<?xml version="1.0" standalone="no"?>
 <!DOCTYPE svg PUBLIC "-//W3C//DTD SVG 1.1//EN" 
 "http://www.w3.org/Graphics/SVG/1.1/DTD/svg11.dtd"> 
<svg xmlns="http://www.w3.org/2000/svg" version="1.1" 
    width="29.7002cm" height="21.0007cm" viewBox="0 0 116930 82680 ">
<title>SVG Picture created as OpenDropV2-F.Fab.svg date 2015/12/01 14:20:11 </title>
  <desc>Picture generated by PCBNEW </desc>
<g style="fill:#000000; fill-opacity:1;stroke:#000000; stroke-opacity:1;
stroke-linecap:round; stroke-linejoin:round; "
 transform="translate(0 0) scale(1 1)">
</g>
<g style="fill:#000000; fill-opacity:0.0; 
stroke:#000000; stroke-width:-0.000393701; stroke-opacity:1; 
stroke-linecap:round; stroke-linejoin:round;">
</g>
<g style="fill:#000000; fill-opacity:0.0; 
stroke:#000000; stroke-width:39.3701; stroke-opacity:1; 
stroke-linecap:round; stroke-linejoin:round;">
</g>
<g style="fill:#000000; fill-opacity:0.0; 
stroke:#000000; stroke-width:59.0551; stroke-opacity:1; 
stroke-linecap:round; stroke-linejoin:round;">
<rect x="69685.9" y="65357.2" width="42519.7" height="12598.4" rx="0" />
</g>
<g style="fill:#000000; fill-opacity:0.0; 
stroke:#000000; stroke-width:39.3701; stroke-opacity:1; 
stroke-linecap:round; stroke-linejoin:round;">
</g>
<g style="fill:#000000; fill-opacity:0.0; 
stroke:#000000; stroke-width:59.0551; stroke-opacity:1; 
stroke-linecap:round; stroke-linejoin:round;">
<rect x="3937.01" y="3937.01" width="109056" height="74806" rx="0" />
</g>
<g style="fill:#000000; fill-opacity:0.0; 
stroke:#000000; stroke-width:39.3701; stroke-opacity:1; 
stroke-linecap:round; stroke-linejoin:round;">
</g>
<g style="fill:#000000; fill-opacity:0.0; 
stroke:#000000; stroke-width:59.0551; stroke-opacity:1; 
stroke-linecap:round; stroke-linejoin:round;">
<rect x="4724.41" y="4724.41" width="107481" height="73231.2" rx="0" />
</g>
<g style="fill:#000000; fill-opacity:0.0; 
stroke:#000000; stroke-width:39.3701; stroke-opacity:1; 
stroke-linecap:round; stroke-linejoin:round;">
</g>
<g style="fill:#000000; fill-opacity:0.0; 
stroke:#000000; stroke-width:59.0551; stroke-opacity:1; 
stroke-linecap:round; stroke-linejoin:round;">
<path d="M23622 4724
L23622 3937
" />
</g>
<g style="fill:#000000; fill-opacity:0.0; 
stroke:#000000; stroke-width:39.3701; stroke-opacity:1; 
stroke-linecap:round; stroke-linejoin:round;">
</g>
<g style="fill:#000000; fill-opacity:0.0; 
stroke:#000000; stroke-width:59.0551; stroke-opacity:1; 
stroke-linecap:round; stroke-linejoin:round;">
<path d="M43307 4724
L43307 3937
" />
</g>
<g style="fill:#000000; fill-opacity:0.0; 
stroke:#000000; stroke-width:39.3701; stroke-opacity:1; 
stroke-linecap:round; stroke-linejoin:round;">
</g>
<g style="fill:#000000; fill-opacity:0.0; 
stroke:#000000; stroke-width:59.0551; stroke-opacity:1; 
stroke-linecap:round; stroke-linejoin:round;">
<path d="M62992 4724
L62992 3937
" />
</g>
<g style="fill:#000000; fill-opacity:0.0; 
stroke:#000000; stroke-width:39.3701; stroke-opacity:1; 
stroke-linecap:round; stroke-linejoin:round;">
</g>
<g style="fill:#000000; fill-opacity:0.0; 
stroke:#000000; stroke-width:59.0551; stroke-opacity:1; 
stroke-linecap:round; stroke-linejoin:round;">
<path d="M82677 4724
L82677 3937
" />
</g>
<g style="fill:#000000; fill-opacity:0.0; 
stroke:#000000; stroke-width:39.3701; stroke-opacity:1; 
stroke-linecap:round; stroke-linejoin:round;">
</g>
<g style="fill:#000000; fill-opacity:0.0; 
stroke:#000000; stroke-width:59.0551; stroke-opacity:1; 
stroke-linecap:round; stroke-linejoin:round;">
<path d="M102362 4724
L102362 3937
" />
</g>
<g style="fill:#000000; fill-opacity:0.0; 
stroke:#000000; stroke-width:39.3701; stroke-opacity:1; 
stroke-linecap:round; stroke-linejoin:round;">
</g>
<g style="fill:#000000; fill-opacity:0.0; 
stroke:#000000; stroke-width:59.0551; stroke-opacity:1; 
stroke-linecap:round; stroke-linejoin:round;">
<path d="M14169 4562
L13877 4562
" />
<path d="M14023 4562
L14023 4050
L13974 4123
L13925 4172
L13877 4196
" />
</g>
<g style="fill:#000000; fill-opacity:0.0; 
stroke:#000000; stroke-width:39.3701; stroke-opacity:1; 
stroke-linecap:round; stroke-linejoin:round;">
</g>
<g style="fill:#000000; fill-opacity:0.0; 
stroke:#000000; stroke-width:59.0551; stroke-opacity:1; 
stroke-linecap:round; stroke-linejoin:round;">
<path d="M33562 4099
L33586 4074
L33635 4050
L33757 4050
L33805 4074
L33830 4099
L33854 4147
L33854 4196
L33830 4269
L33537 4562
L33854 4562
" />
</g>
<g style="fill:#000000; fill-opacity:0.0; 
stroke:#000000; stroke-width:39.3701; stroke-opacity:1; 
stroke-linecap:round; stroke-linejoin:round;">
</g>
<g style="fill:#000000; fill-opacity:0.0; 
stroke:#000000; stroke-width:59.0551; stroke-opacity:1; 
stroke-linecap:round; stroke-linejoin:round;">
<path d="M53222 4050
L53539 4050
L53368 4245
L53442 4245
L53490 4269
L53515 4294
L53539 4342
L53539 4464
L53515 4513
L53490 4537
L53442 4562
L53295 4562
L53247 4537
L53222 4513
" />
</g>
<g style="fill:#000000; fill-opacity:0.0; 
stroke:#000000; stroke-width:39.3701; stroke-opacity:1; 
stroke-linecap:round; stroke-linejoin:round;">
</g>
<g style="fill:#000000; fill-opacity:0.0; 
stroke:#000000; stroke-width:59.0551; stroke-opacity:1; 
stroke-linecap:round; stroke-linejoin:round;">
<path d="M73175 4221
L73175 4562
" />
<path d="M73053 4026
L72932 4391
L73248 4391
" />
</g>
<g style="fill:#000000; fill-opacity:0.0; 
stroke:#000000; stroke-width:39.3701; stroke-opacity:1; 
stroke-linecap:round; stroke-linejoin:round;">
</g>
<g style="fill:#000000; fill-opacity:0.0; 
stroke:#000000; stroke-width:59.0551; stroke-opacity:1; 
stroke-linecap:round; stroke-linejoin:round;">
<path d="M92885 4050
L92641 4050
L92617 4294
L92641 4269
L92690 4245
L92812 4245
L92860 4269
L92885 4294
L92909 4342
L92909 4464
L92885 4513
L92860 4537
L92812 4562
L92690 4562
L92641 4537
L92617 4513
" />
</g>
<g style="fill:#000000; fill-opacity:0.0; 
stroke:#000000; stroke-width:39.3701; stroke-opacity:1; 
stroke-linecap:round; stroke-linejoin:round;">
</g>
<g style="fill:#000000; fill-opacity:0.0; 
stroke:#000000; stroke-width:59.0551; stroke-opacity:1; 
stroke-linecap:round; stroke-linejoin:round;">
<path d="M112545 4050
L112448 4050
L112399 4074
L112375 4099
L112326 4172
L112302 4269
L112302 4464
L112326 4513
L112350 4537
L112399 4562
L112497 4562
L112545 4537
L112570 4513
L112594 4464
L112594 4342
L112570 4294
L112545 4269
L112497 4245
L112399 4245
L112350 4269
L112326 4294
L112302 4342
" />
</g>
<g style="fill:#000000; fill-opacity:0.0; 
stroke:#000000; stroke-width:39.3701; stroke-opacity:1; 
stroke-linecap:round; stroke-linejoin:round;">
</g>
<g style="fill:#000000; fill-opacity:0.0; 
stroke:#000000; stroke-width:59.0551; stroke-opacity:1; 
stroke-linecap:round; stroke-linejoin:round;">
<path d="M23622 77955
L23622 78742
" />
</g>
<g style="fill:#000000; fill-opacity:0.0; 
stroke:#000000; stroke-width:39.3701; stroke-opacity:1; 
stroke-linecap:round; stroke-linejoin:round;">
</g>
<g style="fill:#000000; fill-opacity:0.0; 
stroke:#000000; stroke-width:59.0551; stroke-opacity:1; 
stroke-linecap:round; stroke-linejoin:round;">
<path d="M43307 77955
L43307 78742
" />
</g>
<g style="fill:#000000; fill-opacity:0.0; 
stroke:#000000; stroke-width:39.3701; stroke-opacity:1; 
stroke-linecap:round; stroke-linejoin:round;">
</g>
<g style="fill:#000000; fill-opacity:0.0; 
stroke:#000000; stroke-width:59.0551; stroke-opacity:1; 
stroke-linecap:round; stroke-linejoin:round;">
<path d="M62992 77955
L62992 78742
" />
</g>
<g style="fill:#000000; fill-opacity:0.0; 
stroke:#000000; stroke-width:39.3701; stroke-opacity:1; 
stroke-linecap:round; stroke-linejoin:round;">
</g>
<g style="fill:#000000; fill-opacity:0.0; 
stroke:#000000; stroke-width:59.0551; stroke-opacity:1; 
stroke-linecap:round; stroke-linejoin:round;">
<path d="M82677 77955
L82677 78742
" />
</g>
<g style="fill:#000000; fill-opacity:0.0; 
stroke:#000000; stroke-width:39.3701; stroke-opacity:1; 
stroke-linecap:round; stroke-linejoin:round;">
</g>
<g style="fill:#000000; fill-opacity:0.0; 
stroke:#000000; stroke-width:59.0551; stroke-opacity:1; 
stroke-linecap:round; stroke-linejoin:round;">
<path d="M102362 77955
L102362 78742
" />
</g>
<g style="fill:#000000; fill-opacity:0.0; 
stroke:#000000; stroke-width:39.3701; stroke-opacity:1; 
stroke-linecap:round; stroke-linejoin:round;">
</g>
<g style="fill:#000000; fill-opacity:0.0; 
stroke:#000000; stroke-width:59.0551; stroke-opacity:1; 
stroke-linecap:round; stroke-linejoin:round;">
<path d="M14169 78580
L13877 78580
" />
<path d="M14023 78580
L14023 78069
L13974 78142
L13925 78190
L13877 78215
" />
</g>
<g style="fill:#000000; fill-opacity:0.0; 
stroke:#000000; stroke-width:39.3701; stroke-opacity:1; 
stroke-linecap:round; stroke-linejoin:round;">
</g>
<g style="fill:#000000; fill-opacity:0.0; 
stroke:#000000; stroke-width:59.0551; stroke-opacity:1; 
stroke-linecap:round; stroke-linejoin:round;">
<path d="M33562 78117
L33586 78093
L33635 78069
L33757 78069
L33805 78093
L33830 78117
L33854 78166
L33854 78215
L33830 78288
L33537 78580
L33854 78580
" />
</g>
<g style="fill:#000000; fill-opacity:0.0; 
stroke:#000000; stroke-width:39.3701; stroke-opacity:1; 
stroke-linecap:round; stroke-linejoin:round;">
</g>
<g style="fill:#000000; fill-opacity:0.0; 
stroke:#000000; stroke-width:59.0551; stroke-opacity:1; 
stroke-linecap:round; stroke-linejoin:round;">
<path d="M53222 78069
L53539 78069
L53368 78263
L53442 78263
L53490 78288
L53515 78312
L53539 78361
L53539 78483
L53515 78532
L53490 78556
L53442 78580
L53295 78580
L53247 78556
L53222 78532
" />
</g>
<g style="fill:#000000; fill-opacity:0.0; 
stroke:#000000; stroke-width:39.3701; stroke-opacity:1; 
stroke-linecap:round; stroke-linejoin:round;">
</g>
<g style="fill:#000000; fill-opacity:0.0; 
stroke:#000000; stroke-width:59.0551; stroke-opacity:1; 
stroke-linecap:round; stroke-linejoin:round;">
<path d="M73175 78239
L73175 78580
" />
<path d="M73053 78044
L72932 78410
L73248 78410
" />
</g>
<g style="fill:#000000; fill-opacity:0.0; 
stroke:#000000; stroke-width:39.3701; stroke-opacity:1; 
stroke-linecap:round; stroke-linejoin:round;">
</g>
<g style="fill:#000000; fill-opacity:0.0; 
stroke:#000000; stroke-width:59.0551; stroke-opacity:1; 
stroke-linecap:round; stroke-linejoin:round;">
<path d="M92885 78069
L92641 78069
L92617 78312
L92641 78288
L92690 78263
L92812 78263
L92860 78288
L92885 78312
L92909 78361
L92909 78483
L92885 78532
L92860 78556
L92812 78580
L92690 78580
L92641 78556
L92617 78532
" />
</g>
<g style="fill:#000000; fill-opacity:0.0; 
stroke:#000000; stroke-width:39.3701; stroke-opacity:1; 
stroke-linecap:round; stroke-linejoin:round;">
</g>
<g style="fill:#000000; fill-opacity:0.0; 
stroke:#000000; stroke-width:59.0551; stroke-opacity:1; 
stroke-linecap:round; stroke-linejoin:round;">
<path d="M112545 78069
L112448 78069
L112399 78093
L112375 78117
L112326 78190
L112302 78288
L112302 78483
L112326 78532
L112350 78556
L112399 78580
L112497 78580
L112545 78556
L112570 78532
L112594 78483
L112594 78361
L112570 78312
L112545 78288
L112497 78263
L112399 78263
L112350 78288
L112326 78312
L112302 78361
" />
</g>
<g style="fill:#000000; fill-opacity:0.0; 
stroke:#000000; stroke-width:39.3701; stroke-opacity:1; 
stroke-linecap:round; stroke-linejoin:round;">
</g>
<g style="fill:#000000; fill-opacity:0.0; 
stroke:#000000; stroke-width:59.0551; stroke-opacity:1; 
stroke-linecap:round; stroke-linejoin:round;">
<path d="M3937 23622
L4724 23622
" />
</g>
<g style="fill:#000000; fill-opacity:0.0; 
stroke:#000000; stroke-width:39.3701; stroke-opacity:1; 
stroke-linecap:round; stroke-linejoin:round;">
</g>
<g style="fill:#000000; fill-opacity:0.0; 
stroke:#000000; stroke-width:59.0551; stroke-opacity:1; 
stroke-linecap:round; stroke-linejoin:round;">
<path d="M3937 43307
L4724 43307
" />
</g>
<g style="fill:#000000; fill-opacity:0.0; 
stroke:#000000; stroke-width:39.3701; stroke-opacity:1; 
stroke-linecap:round; stroke-linejoin:round;">
</g>
<g style="fill:#000000; fill-opacity:0.0; 
stroke:#000000; stroke-width:59.0551; stroke-opacity:1; 
stroke-linecap:round; stroke-linejoin:round;">
<path d="M3937 62992
L4724 62992
" />
</g>
<g style="fill:#000000; fill-opacity:0.0; 
stroke:#000000; stroke-width:39.3701; stroke-opacity:1; 
stroke-linecap:round; stroke-linejoin:round;">
</g>
<g style="fill:#000000; fill-opacity:0.0; 
stroke:#000000; stroke-width:59.0551; stroke-opacity:1; 
stroke-linecap:round; stroke-linejoin:round;">
<path d="M4208 13864
L4452 13864
" />
<path d="M4160 14011
L4330 13499
L4501 14011
" />
</g>
<g style="fill:#000000; fill-opacity:0.0; 
stroke:#000000; stroke-width:39.3701; stroke-opacity:1; 
stroke-linecap:round; stroke-linejoin:round;">
</g>
<g style="fill:#000000; fill-opacity:0.0; 
stroke:#000000; stroke-width:59.0551; stroke-opacity:1; 
stroke-linecap:round; stroke-linejoin:round;">
<path d="M4367 33428
L4440 33452
L4464 33476
L4489 33525
L4489 33598
L4464 33647
L4440 33671
L4391 33696
L4196 33696
L4196 33184
L4367 33184
L4416 33208
L4440 33233
L4464 33281
L4464 33330
L4440 33379
L4416 33403
L4367 33428
L4196 33428
" />
</g>
<g style="fill:#000000; fill-opacity:0.0; 
stroke:#000000; stroke-width:39.3701; stroke-opacity:1; 
stroke-linecap:round; stroke-linejoin:round;">
</g>
<g style="fill:#000000; fill-opacity:0.0; 
stroke:#000000; stroke-width:59.0551; stroke-opacity:1; 
stroke-linecap:round; stroke-linejoin:round;">
<path d="M4489 53332
L4464 53356
L4391 53381
L4342 53381
L4269 53356
L4221 53308
L4196 53259
L4172 53161
L4172 53088
L4196 52991
L4221 52942
L4269 52893
L4342 52869
L4391 52869
L4464 52893
L4489 52918
" />
</g>
<g style="fill:#000000; fill-opacity:0.0; 
stroke:#000000; stroke-width:39.3701; stroke-opacity:1; 
stroke-linecap:round; stroke-linejoin:round;">
</g>
<g style="fill:#000000; fill-opacity:0.0; 
stroke:#000000; stroke-width:59.0551; stroke-opacity:1; 
stroke-linecap:round; stroke-linejoin:round;">
<path d="M4196 73066
L4196 72554
L4318 72554
L4391 72578
L4440 72627
L4464 72676
L4489 72773
L4489 72846
L4464 72944
L4440 72993
L4391 73041
L4318 73066
L4196 73066
" />
</g>
<g style="fill:#000000; fill-opacity:0.0; 
stroke:#000000; stroke-width:39.3701; stroke-opacity:1; 
stroke-linecap:round; stroke-linejoin:round;">
</g>
<g style="fill:#000000; fill-opacity:0.0; 
stroke:#000000; stroke-width:59.0551; stroke-opacity:1; 
stroke-linecap:round; stroke-linejoin:round;">
<path d="M112992 23622
L112205 23622
" />
</g>
<g style="fill:#000000; fill-opacity:0.0; 
stroke:#000000; stroke-width:39.3701; stroke-opacity:1; 
stroke-linecap:round; stroke-linejoin:round;">
</g>
<g style="fill:#000000; fill-opacity:0.0; 
stroke:#000000; stroke-width:59.0551; stroke-opacity:1; 
stroke-linecap:round; stroke-linejoin:round;">
<path d="M112992 43307
L112205 43307
" />
</g>
<g style="fill:#000000; fill-opacity:0.0; 
stroke:#000000; stroke-width:39.3701; stroke-opacity:1; 
stroke-linecap:round; stroke-linejoin:round;">
</g>
<g style="fill:#000000; fill-opacity:0.0; 
stroke:#000000; stroke-width:59.0551; stroke-opacity:1; 
stroke-linecap:round; stroke-linejoin:round;">
<path d="M112992 62992
L112205 62992
" />
</g>
<g style="fill:#000000; fill-opacity:0.0; 
stroke:#000000; stroke-width:39.3701; stroke-opacity:1; 
stroke-linecap:round; stroke-linejoin:round;">
</g>
<g style="fill:#000000; fill-opacity:0.0; 
stroke:#000000; stroke-width:59.0551; stroke-opacity:1; 
stroke-linecap:round; stroke-linejoin:round;">
<path d="M112477 13864
L112721 13864
" />
<path d="M112428 14011
L112599 13499
L112769 14011
" />
</g>
<g style="fill:#000000; fill-opacity:0.0; 
stroke:#000000; stroke-width:39.3701; stroke-opacity:1; 
stroke-linecap:round; stroke-linejoin:round;">
</g>
<g style="fill:#000000; fill-opacity:0.0; 
stroke:#000000; stroke-width:59.0551; stroke-opacity:1; 
stroke-linecap:round; stroke-linejoin:round;">
<path d="M112635 33428
L112708 33452
L112733 33476
L112757 33525
L112757 33598
L112733 33647
L112708 33671
L112660 33696
L112465 33696
L112465 33184
L112635 33184
L112684 33208
L112708 33233
L112733 33281
L112733 33330
L112708 33379
L112684 33403
L112635 33428
L112465 33428
" />
</g>
<g style="fill:#000000; fill-opacity:0.0; 
stroke:#000000; stroke-width:39.3701; stroke-opacity:1; 
stroke-linecap:round; stroke-linejoin:round;">
</g>
<g style="fill:#000000; fill-opacity:0.0; 
stroke:#000000; stroke-width:59.0551; stroke-opacity:1; 
stroke-linecap:round; stroke-linejoin:round;">
<path d="M112757 53332
L112733 53356
L112660 53381
L112611 53381
L112538 53356
L112489 53308
L112465 53259
L112440 53161
L112440 53088
L112465 52991
L112489 52942
L112538 52893
L112611 52869
L112660 52869
L112733 52893
L112757 52918
" />
</g>
<g style="fill:#000000; fill-opacity:0.0; 
stroke:#000000; stroke-width:39.3701; stroke-opacity:1; 
stroke-linecap:round; stroke-linejoin:round;">
</g>
<g style="fill:#000000; fill-opacity:0.0; 
stroke:#000000; stroke-width:59.0551; stroke-opacity:1; 
stroke-linecap:round; stroke-linejoin:round;">
<path d="M112465 73066
L112465 72554
L112587 72554
L112660 72578
L112708 72627
L112733 72676
L112757 72773
L112757 72846
L112733 72944
L112708 72993
L112660 73041
L112587 73066
L112465 73066
" />
</g>
<g style="fill:#000000; fill-opacity:0.0; 
stroke:#000000; stroke-width:39.3701; stroke-opacity:1; 
stroke-linecap:round; stroke-linejoin:round;">
</g>
<g style="fill:#000000; fill-opacity:0.0; 
stroke:#000000; stroke-width:59.0551; stroke-opacity:1; 
stroke-linecap:round; stroke-linejoin:round;">
<path d="M78881 76293
L78881 75703
L79022 75703
L79106 75731
L79162 75787
L79190 75843
L79219 75956
L79219 76040
L79190 76153
L79162 76209
L79106 76265
L79022 76293
L78881 76293
" />
<path d="M79725 76293
L79725 75984
L79697 75928
L79640 75899
L79528 75899
L79472 75928
" />
<path d="M79725 76265
L79669 76293
L79528 76293
L79472 76265
L79444 76209
L79444 76153
L79472 76096
L79528 76068
L79669 76068
L79725 76040
" />
<path d="M79922 75899
L80147 75899
" />
<path d="M80006 75703
L80006 76209
L80034 76265
L80090 76293
L80147 76293
" />
<path d="M80568 76265
L80512 76293
L80400 76293
L80343 76265
L80315 76209
L80315 75984
L80343 75928
L80400 75899
L80512 75899
L80568 75928
L80597 75984
L80597 76040
L80315 76096
" />
<path d="M80850 76237
L80878 76265
L80850 76293
L80822 76265
L80850 76237
L80850 76293
" />
<path d="M80850 75928
L80878 75956
L80850 75984
L80822 75956
L80850 75928
L80850 75984
" />
</g>
<g style="fill:#000000; fill-opacity:0.0; 
stroke:#000000; stroke-width:39.3701; stroke-opacity:1; 
stroke-linecap:round; stroke-linejoin:round;">
</g>
<g style="fill:#000000; fill-opacity:0.0; 
stroke:#000000; stroke-width:59.0551; stroke-opacity:1; 
stroke-linecap:round; stroke-linejoin:round;">
<path d="M69685 76577
L112205 76577
" />
</g>
<g style="fill:#000000; fill-opacity:0.0; 
stroke:#000000; stroke-width:39.3701; stroke-opacity:1; 
stroke-linecap:round; stroke-linejoin:round;">
</g>
<g style="fill:#000000; fill-opacity:0.0; 
stroke:#000000; stroke-width:59.0551; stroke-opacity:1; 
stroke-linecap:round; stroke-linejoin:round;">
<path d="M70220 77395
L70220 76805
" />
<path d="M70557 77395
L70304 77058
" />
<path d="M70557 76805
L70220 77142
" />
<path d="M70810 77395
L70810 77002
" />
<path d="M70810 76805
L70782 76833
L70810 76861
L70838 76833
L70810 76805
L70810 76861
" />
<path d="M71429 77339
L71401 77367
L71316 77395
L71260 77395
L71176 77367
L71120 77311
L71091 77255
L71063 77142
L71063 77058
L71091 76946
L71120 76889
L71176 76833
L71260 76805
L71316 76805
L71401 76833
L71429 76861
" />
<path d="M71935 77395
L71935 77086
L71907 77030
L71851 77002
L71738 77002
L71682 77030
" />
<path d="M71935 77367
L71879 77395
L71738 77395
L71682 77367
L71654 77311
L71654 77255
L71682 77199
L71738 77171
L71879 77171
L71935 77142
" />
<path d="M72469 77395
L72469 76805
" />
<path d="M72469 77367
L72413 77395
L72301 77395
L72244 77367
L72216 77339
L72188 77283
L72188 77114
L72216 77058
L72244 77030
L72301 77002
L72413 77002
L72469 77030
" />
<path d="M73201 77086
L73397 77086
" />
<path d="M73482 77395
L73201 77395
L73201 76805
L73482 76805
" />
<path d="M73735 77339
L73763 77367
L73735 77395
L73707 77367
L73735 77339
L73735 77395
" />
<path d="M74016 77395
L74016 76805
L74157 76805
L74241 76833
L74297 76889
L74325 76946
L74354 77058
L74354 77142
L74325 77255
L74297 77311
L74241 77367
L74157 77395
L74016 77395
" />
<path d="M74607 77339
L74635 77367
L74607 77395
L74579 77367
L74607 77339
L74607 77395
" />
<path d="M74860 77227
L75141 77227
" />
<path d="M74804 77395
L75000 76805
L75197 77395
" />
<path d="M75394 77339
L75422 77367
L75394 77395
L75366 77367
L75394 77339
L75394 77395
" />
<path d="M76575 77395
L76575 76805
" />
<path d="M76631 77171
L76800 77395
" />
<path d="M76800 77002
L76575 77227
" />
<path d="M77053 77395
L77053 77002
" />
<path d="M77053 76805
L77025 76833
L77053 76861
L77081 76833
L77053 76805
L77053 76861
" />
<path d="M77588 77367
L77531 77395
L77419 77395
L77363 77367
L77334 77339
L77306 77283
L77306 77114
L77334 77058
L77363 77030
L77419 77002
L77531 77002
L77588 77030
" />
<path d="M78094 77395
L78094 77086
L78066 77030
L78009 77002
L77897 77002
L77841 77030
" />
<path d="M78094 77367
L78037 77395
L77897 77395
L77841 77367
L77813 77311
L77813 77255
L77841 77199
L77897 77171
L78037 77171
L78094 77142
" />
<path d="M78628 77395
L78628 76805
" />
<path d="M78628 77367
L78572 77395
L78459 77395
L78403 77367
L78375 77339
L78347 77283
L78347 77114
L78375 77058
L78403 77030
L78459 77002
L78572 77002
L78628 77030
" />
<path d="M79472 76805
L79528 76805
L79584 76833
L79612 76861
L79640 76917
L79669 77030
L79669 77171
L79640 77283
L79612 77339
L79584 77367
L79528 77395
L79472 77395
L79415 77367
L79387 77339
L79359 77283
L79331 77171
L79331 77030
L79359 76917
L79387 76861
L79415 76833
L79472 76805
" />
<path d="M79922 77339
L79950 77367
L79922 77395
L79894 77367
L79922 77339
L79922 77395
" />
<path d="M80175 76861
L80203 76833
L80259 76805
L80400 76805
L80456 76833
L80484 76861
L80512 76917
L80512 76974
L80484 77058
L80147 77395
L80512 77395
" />
<path d="M80878 76805
L80934 76805
L80990 76833
L81018 76861
L81046 76917
L81075 77030
L81075 77171
L81046 77283
L81018 77339
L80990 77367
L80934 77395
L80878 77395
L80822 77367
L80793 77339
L80765 77283
L80737 77171
L80737 77030
L80765 76917
L80793 76861
L80822 76833
L80878 76805
" />
<path d="M81637 77395
L81300 77395
" />
<path d="M81468 77395
L81468 76805
L81412 76889
L81356 76946
L81300 76974
" />
<path d="M82171 76805
L81890 76805
L81862 77086
L81890 77058
L81946 77030
L82087 77030
L82143 77058
L82171 77086
L82199 77142
L82199 77283
L82171 77339
L82143 77367
L82087 77395
L81946 77395
L81890 77367
L81862 77339
" />
<path d="M82762 77395
L82424 77395
" />
<path d="M82593 77395
L82593 76805
L82537 76889
L82481 76946
L82424 76974
" />
<path d="M83324 77395
L82987 77395
" />
<path d="M83156 77395
L83156 76805
L83099 76889
L83043 76946
L82987 76974
" />
<path d="M83549 76861
L83577 76833
L83634 76805
L83774 76805
L83831 76833
L83859 76861
L83887 76917
L83887 76974
L83859 77058
L83521 77395
L83887 77395
" />
<path d="M84393 77002
L84393 77395
" />
<path d="M84252 76777
L84112 77199
L84477 77199
" />
<path d="M85012 77395
L84674 77395
" />
<path d="M84843 77395
L84843 76805
L84787 76889
L84730 76946
L84674 76974
" />
<path d="M85377 76805
L85433 76805
L85490 76833
L85518 76861
L85546 76917
L85574 77030
L85574 77171
L85546 77283
L85518 77339
L85490 77367
L85433 77395
L85377 77395
L85321 77367
L85293 77339
L85265 77283
L85237 77171
L85237 77030
L85265 76917
L85293 76861
L85321 76833
L85377 76805
" />
<path d="M86136 77395
L85799 77395
" />
<path d="M85968 77395
L85968 76805
L85912 76889
L85855 76946
L85799 76974
" />
<path d="M86333 76805
L86727 76805
L86474 77395
" />
<path d="M86952 77171
L87402 77171
" />
<path d="M87177 77395
L87177 76946
" />
<path d="M87936 76805
L87824 76805
L87768 76833
L87739 76861
L87683 76946
L87655 77058
L87655 77283
L87683 77339
L87711 77367
L87768 77395
L87880 77395
L87936 77367
L87964 77339
L87992 77283
L87992 77142
L87964 77086
L87936 77058
L87880 77030
L87768 77030
L87711 77058
L87683 77086
L87655 77142
" />
<path d="M88189 76805
L88555 76805
L88358 77030
L88442 77030
L88499 77058
L88527 77086
L88555 77142
L88555 77283
L88527 77339
L88499 77367
L88442 77395
L88274 77395
L88217 77367
L88189 77339
" />
<path d="M88780 76861
L88808 76833
L88864 76805
L89005 76805
L89061 76833
L89089 76861
L89117 76917
L89117 76974
L89089 77058
L88752 77395
L89117 77395
" />
<path d="M89455 77058
L89399 77030
L89370 77002
L89342 76946
L89342 76917
L89370 76861
L89399 76833
L89455 76805
L89567 76805
L89624 76833
L89652 76861
L89680 76917
L89680 76946
L89652 77002
L89624 77030
L89567 77058
L89455 77058
L89399 77086
L89370 77114
L89342 77171
L89342 77283
L89370 77339
L89399 77367
L89455 77395
L89567 77395
L89624 77367
L89652 77339
L89680 77283
L89680 77171
L89652 77114
L89624 77086
L89567 77058
" />
<path d="M89877 76805
L90242 76805
L90045 77030
L90130 77030
L90186 77058
L90214 77086
L90242 77142
L90242 77283
L90214 77339
L90186 77367
L90130 77395
L89961 77395
L89905 77367
L89877 77339
" />
<path d="M90580 77058
L90523 77030
L90495 77002
L90467 76946
L90467 76917
L90495 76861
L90523 76833
L90580 76805
L90692 76805
L90748 76833
L90777 76861
L90805 76917
L90805 76946
L90777 77002
L90748 77030
L90692 77058
L90580 77058
L90523 77086
L90495 77114
L90467 77171
L90467 77283
L90495 77339
L90523 77367
L90580 77395
L90692 77395
L90748 77367
L90777 77339
L90805 77283
L90805 77171
L90777 77114
L90748 77086
L90692 77058
" />
<path d="M89792 76703
L90917 76703
" />
<path d="M91311 77002
L91311 77395
" />
<path d="M91058 77002
L91058 77311
L91086 77367
L91142 77395
L91226 77395
L91283 77367
L91311 77339
" />
<path d="M91592 77395
L91592 76805
" />
<path d="M91592 77030
L91648 77002
L91761 77002
L91817 77030
L91845 77058
L91873 77114
L91873 77283
L91845 77339
L91817 77367
L91761 77395
L91648 77395
L91592 77367
" />
<path d="M92379 77002
L92379 77395
" />
<path d="M92126 77002
L92126 77311
L92154 77367
L92211 77395
L92295 77395
L92351 77367
L92379 77339
" />
<path d="M92661 77002
L92661 77395
" />
<path d="M92661 77058
L92689 77030
L92745 77002
L92829 77002
L92886 77030
L92914 77086
L92914 77395
" />
<path d="M93111 77002
L93336 77002
" />
<path d="M93195 76805
L93195 77311
L93223 77367
L93279 77395
L93336 77395
" />
<path d="M93786 77002
L93786 77395
" />
<path d="M93532 77002
L93532 77311
L93561 77367
L93617 77395
L93701 77395
L93757 77367
L93786 77339
" />
<path d="M94376 77395
L94039 77395
" />
<path d="M94207 77395
L94207 76805
L94151 76889
L94095 76946
L94039 76974
" />
<path d="M94882 77002
L94882 77395
" />
<path d="M94742 76777
L94601 77199
L94967 77199
" />
<path d="M95192 77339
L95220 77367
L95192 77395
L95163 77367
L95192 77339
L95192 77395
" />
<path d="M95585 76805
L95642 76805
L95698 76833
L95726 76861
L95754 76917
L95782 77030
L95782 77171
L95754 77283
L95726 77339
L95698 77367
L95642 77395
L95585 77395
L95529 77367
L95501 77339
L95473 77283
L95445 77171
L95445 77030
L95473 76917
L95501 76861
L95529 76833
L95585 76805
" />
<path d="M96288 77002
L96288 77395
" />
<path d="M96148 76777
L96007 77199
L96373 77199
" />
<path d="M96598 77339
L96626 77367
L96598 77395
L96570 77367
L96598 77339
L96598 77395
" />
<path d="M97188 77395
L96851 77395
" />
<path d="M97019 77395
L97019 76805
L96963 76889
L96907 76946
L96851 76974
" />
<path d="M97441 77171
L97891 77171
" />
<path d="M98144 77367
L98201 77395
L98313 77395
L98369 77367
L98397 77311
L98397 77283
L98369 77227
L98313 77199
L98229 77199
L98172 77171
L98144 77114
L98144 77086
L98172 77030
L98229 77002
L98313 77002
L98369 77030
" />
<path d="M98566 77002
L98791 77002
" />
<path d="M98651 76805
L98651 77311
L98679 77367
L98735 77395
L98791 77395
" />
<path d="M99241 77395
L99241 77086
L99213 77030
L99157 77002
L99044 77002
L98988 77030
" />
<path d="M99241 77367
L99185 77395
L99044 77395
L98988 77367
L98960 77311
L98960 77255
L98988 77199
L99044 77171
L99185 77171
L99241 77142
" />
<path d="M99522 77395
L99522 76805
" />
<path d="M99522 77030
L99579 77002
L99691 77002
L99747 77030
L99775 77058
L99804 77114
L99804 77283
L99775 77339
L99747 77367
L99691 77395
L99579 77395
L99522 77367
" />
<path d="M100141 77395
L100085 77367
L100057 77311
L100057 76805
" />
<path d="M100591 77367
L100535 77395
L100422 77395
L100366 77367
L100338 77311
L100338 77086
L100366 77030
L100422 77002
L100535 77002
L100591 77030
L100619 77086
L100619 77142
L100338 77199
" />
</g>
<g style="fill:#000000; fill-opacity:0.0; 
stroke:#000000; stroke-width:39.3701; stroke-opacity:1; 
stroke-linecap:round; stroke-linejoin:round;">
</g>
<g style="fill:#000000; fill-opacity:0.0; 
stroke:#000000; stroke-width:59.0551; stroke-opacity:1; 
stroke-linecap:round; stroke-linejoin:round;">
<path d="M69685 75396
L112205 75396
" />
</g>
<g style="fill:#000000; fill-opacity:0.0; 
stroke:#000000; stroke-width:39.3701; stroke-opacity:1; 
stroke-linecap:round; stroke-linejoin:round;">
</g>
<g style="fill:#000000; fill-opacity:0.0; 
stroke:#000000; stroke-width:118.11; stroke-opacity:1; 
stroke-linecap:round; stroke-linejoin:round;">
<path d="M104022 76293
L103825 76012
" />
<path d="M103684 76293
L103684 75703
L103909 75703
L103965 75731
L103994 75759
L104022 75815
L104022 75899
L103994 75956
L103965 75984
L103909 76012
L103684 76012
" />
<path d="M104500 76265
L104444 76293
L104331 76293
L104275 76265
L104247 76209
L104247 75984
L104275 75928
L104331 75899
L104444 75899
L104500 75928
L104528 75984
L104528 76040
L104247 76096
" />
<path d="M104725 75899
L104865 76293
L105006 75899
" />
<path d="M105231 76237
L105259 76265
L105231 76293
L105203 76265
L105231 76237
L105231 76293
" />
<path d="M105231 75928
L105259 75956
L105231 75984
L105203 75956
L105231 75928
L105231 75984
" />
</g>
<g style="fill:#000000; fill-opacity:0.0; 
stroke:#000000; stroke-width:39.3701; stroke-opacity:1; 
stroke-linecap:round; stroke-linejoin:round;">
</g>
<g style="fill:#000000; fill-opacity:0.0; 
stroke:#000000; stroke-width:59.0551; stroke-opacity:1; 
stroke-linecap:round; stroke-linejoin:round;">
<path d="M70192 76265
L70276 76293
L70417 76293
L70473 76265
L70501 76237
L70529 76181
L70529 76124
L70501 76068
L70473 76040
L70417 76012
L70304 75984
L70248 75956
L70220 75928
L70192 75871
L70192 75815
L70220 75759
L70248 75731
L70304 75703
L70445 75703
L70529 75731
" />
<path d="M70782 76293
L70782 75899
" />
<path d="M70782 75703
L70754 75731
L70782 75759
L70810 75731
L70782 75703
L70782 75759
" />
<path d="M71007 75899
L71316 75899
L71007 76293
L71316 76293
" />
<path d="M71766 76265
L71710 76293
L71598 76293
L71541 76265
L71513 76209
L71513 75984
L71541 75928
L71598 75899
L71710 75899
L71766 75928
L71795 75984
L71795 76040
L71513 76096
" />
<path d="M72048 76237
L72076 76265
L72048 76293
L72019 76265
L72048 76237
L72048 76293
" />
<path d="M72048 75928
L72076 75956
L72048 75984
L72019 75956
L72048 75928
L72048 75984
" />
<path d="M72751 76124
L73032 76124
" />
<path d="M72694 76293
L72891 75703
L73088 76293
" />
<path d="M73538 75899
L73538 76293
" />
<path d="M73397 75674
L73257 76096
L73622 76096
" />
</g>
<g style="fill:#000000; fill-opacity:0.0; 
stroke:#000000; stroke-width:39.3701; stroke-opacity:1; 
stroke-linecap:round; stroke-linejoin:round;">
</g>
<g style="fill:#000000; fill-opacity:0.0; 
stroke:#000000; stroke-width:59.0551; stroke-opacity:1; 
stroke-linecap:round; stroke-linejoin:round;">
<path d="M103684 77395
L103684 76805
" />
<path d="M104219 77395
L104219 76805
" />
<path d="M104219 77367
L104162 77395
L104050 77395
L103994 77367
L103965 77339
L103937 77283
L103937 77114
L103965 77058
L103994 77030
L104050 77002
L104162 77002
L104219 77030
" />
<path d="M104500 77339
L104528 77367
L104500 77395
L104472 77367
L104500 77339
L104500 77395
" />
<path d="M104500 77030
L104528 77058
L104500 77086
L104472 77058
L104500 77030
L104500 77086
" />
<path d="M105540 77395
L105203 77395
" />
<path d="M105372 77395
L105372 76805
L105315 76889
L105259 76946
L105203 76974
" />
<path d="M106215 76777
L105709 77536
" />
<path d="M106721 77395
L106384 77395
" />
<path d="M106553 77395
L106553 76805
L106496 76889
L106440 76946
L106384 76974
" />
</g>
<g style="fill:#000000; fill-opacity:0.0; 
stroke:#000000; stroke-width:39.3701; stroke-opacity:1; 
stroke-linecap:round; stroke-linejoin:round;">
</g>
<g style="fill:#000000; fill-opacity:0.0; 
stroke:#000000; stroke-width:59.0551; stroke-opacity:1; 
stroke-linecap:round; stroke-linejoin:round;">
<path d="M69685 73821
L112205 73821
" />
</g>
<g style="fill:#000000; fill-opacity:0.0; 
stroke:#000000; stroke-width:39.3701; stroke-opacity:1; 
stroke-linecap:round; stroke-linejoin:round;">
</g>
<g style="fill:#000000; fill-opacity:0.0; 
stroke:#000000; stroke-width:157.48; stroke-opacity:1; 
stroke-linecap:round; stroke-linejoin:round;">
<path d="M70257 74099
L70707 74099
" />
<path d="M70384 74886
L70482 74099
" />
<path d="M70871 74886
L70937 74361
" />
<path d="M70970 74099
L70927 74136
L70960 74174
L71002 74136
L70970 74099
L70960 74174
" />
<path d="M71199 74361
L71499 74361
" />
<path d="M71345 74099
L71260 74774
L71288 74849
L71359 74886
L71434 74886
" />
<path d="M71809 74886
L71738 74849
L71710 74774
L71795 74099
" />
<path d="M72413 74849
L72334 74886
L72184 74886
L72113 74849
L72085 74774
L72123 74474
L72169 74399
L72249 74361
L72399 74361
L72469 74399
L72498 74474
L72488 74549
L72104 74624
" />
<path d="M72793 74811
L72826 74849
L72783 74886
L72751 74849
L72793 74811
L72783 74886
" />
<path d="M72844 74399
L72877 74436
L72835 74474
L72802 74436
L72844 74399
L72835 74474
" />
</g>
<g style="fill:#000000; fill-opacity:0.0; 
stroke:#000000; stroke-width:39.3701; stroke-opacity:1; 
stroke-linecap:round; stroke-linejoin:round;">
</g>
<g style="fill:#000000; fill-opacity:0.0; 
stroke:#000000; stroke-width:59.0551; stroke-opacity:1; 
stroke-linecap:round; stroke-linejoin:round;">
<path d="M70417 73070
L70220 73070
" />
<path d="M70220 73380
L70220 72789
L70501 72789
" />
<path d="M70726 73380
L70726 72986
" />
<path d="M70726 72789
L70698 72817
L70726 72845
L70754 72817
L70726 72789
L70726 72845
" />
<path d="M71091 73380
L71035 73352
L71007 73295
L71007 72789
" />
<path d="M71541 73352
L71485 73380
L71373 73380
L71316 73352
L71288 73295
L71288 73070
L71316 73014
L71373 72986
L71485 72986
L71541 73014
L71570 73070
L71570 73127
L71288 73183
" />
<path d="M71823 73323
L71851 73352
L71823 73380
L71795 73352
L71823 73323
L71823 73380
" />
<path d="M71823 73014
L71851 73042
L71823 73070
L71795 73042
L71823 73014
L71823 73070
" />
<path d="M72666 72789
L72779 72789
L72835 72817
L72891 72874
L72919 72986
L72919 73183
L72891 73295
L72835 73352
L72779 73380
L72666 73380
L72610 73352
L72554 73295
L72526 73183
L72526 72986
L72554 72874
L72610 72817
L72666 72789
" />
<path d="M73172 72986
L73172 73577
" />
<path d="M73172 73014
L73229 72986
L73341 72986
L73397 73014
L73426 73042
L73454 73099
L73454 73267
L73426 73323
L73397 73352
L73341 73380
L73229 73380
L73172 73352
" />
<path d="M73932 73352
L73876 73380
L73763 73380
L73707 73352
L73679 73295
L73679 73070
L73707 73014
L73763 72986
L73876 72986
L73932 73014
L73960 73070
L73960 73127
L73679 73183
" />
<path d="M74213 72986
L74213 73380
" />
<path d="M74213 73042
L74241 73014
L74297 72986
L74382 72986
L74438 73014
L74466 73070
L74466 73380
" />
<path d="M74747 73380
L74747 72789
L74888 72789
L74972 72817
L75028 72874
L75057 72930
L75085 73042
L75085 73127
L75057 73239
L75028 73295
L74972 73352
L74888 73380
L74747 73380
" />
<path d="M75338 73380
L75338 72986
" />
<path d="M75338 73099
L75366 73042
L75394 73014
L75450 72986
L75507 72986
" />
<path d="M75788 73380
L75732 73352
L75703 73323
L75675 73267
L75675 73099
L75703 73042
L75732 73014
L75788 72986
L75872 72986
L75928 73014
L75956 73042
L75985 73099
L75985 73267
L75956 73323
L75928 73352
L75872 73380
L75788 73380
" />
<path d="M76238 72986
L76238 73577
" />
<path d="M76238 73014
L76294 72986
L76406 72986
L76463 73014
L76491 73042
L76519 73099
L76519 73267
L76491 73323
L76463 73352
L76406 73380
L76294 73380
L76238 73352
" />
<path d="M76688 72789
L76885 73380
L77081 72789
" />
<path d="M77250 72845
L77278 72817
L77334 72789
L77475 72789
L77531 72817
L77559 72845
L77588 72902
L77588 72958
L77559 73042
L77222 73380
L77588 73380
" />
<path d="M77841 73323
L77869 73352
L77841 73380
L77813 73352
L77841 73323
L77841 73380
" />
<path d="M78122 73380
L78122 72789
" />
<path d="M78178 73155
L78347 73380
" />
<path d="M78347 72986
L78122 73211
" />
<path d="M78600 73380
L78600 72986
" />
<path d="M78600 72789
L78572 72817
L78600 72845
L78628 72817
L78600 72789
L78600 72845
" />
<path d="M79134 73352
L79078 73380
L78965 73380
L78909 73352
L78881 73323
L78853 73267
L78853 73099
L78881 73042
L78909 73014
L78965 72986
L79078 72986
L79134 73014
" />
<path d="M79640 73380
L79640 73070
L79612 73014
L79556 72986
L79444 72986
L79387 73014
" />
<path d="M79640 73352
L79584 73380
L79444 73380
L79387 73352
L79359 73295
L79359 73239
L79387 73183
L79444 73155
L79584 73155
L79640 73127
" />
<path d="M80175 73380
L80175 72789
" />
<path d="M80175 73352
L80118 73380
L80006 73380
L79950 73352
L79922 73323
L79894 73267
L79894 73099
L79922 73042
L79950 73014
L80006 72986
L80118 72986
L80175 73014
" />
<path d="M80315 73436
L80765 73436
" />
<path d="M80906 72986
L80906 73577
" />
<path d="M80906 73014
L80962 72986
L81075 72986
L81131 73014
L81159 73042
L81187 73099
L81187 73267
L81159 73323
L81131 73352
L81075 73380
L80962 73380
L80906 73352
" />
<path d="M81693 73352
L81637 73380
L81525 73380
L81468 73352
L81440 73323
L81412 73267
L81412 73099
L81440 73042
L81468 73014
L81525 72986
L81637 72986
L81693 73014
" />
<path d="M81946 73380
L81946 72789
" />
<path d="M81946 73014
L82003 72986
L82115 72986
L82171 73014
L82199 73042
L82228 73099
L82228 73267
L82199 73323
L82171 73352
L82115 73380
L82003 73380
L81946 73352
" />
</g>
<g style="fill:#000000; fill-opacity:0.0; 
stroke:#000000; stroke-width:39.3701; stroke-opacity:1; 
stroke-linecap:round; stroke-linejoin:round;">
</g>
<g style="fill:#000000; fill-opacity:0.0; 
stroke:#000000; stroke-width:59.0551; stroke-opacity:1; 
stroke-linecap:round; stroke-linejoin:round;">
<path d="M69685 71459
L112205 71459
" />
</g>
<g style="fill:#000000; fill-opacity:0.0; 
stroke:#000000; stroke-width:39.3701; stroke-opacity:1; 
stroke-linecap:round; stroke-linejoin:round;">
</g>
<g style="fill:#000000; fill-opacity:0.0; 
stroke:#000000; stroke-width:59.0551; stroke-opacity:1; 
stroke-linecap:round; stroke-linejoin:round;">
<path d="M70192 72289
L70276 72317
L70417 72317
L70473 72289
L70501 72260
L70529 72204
L70529 72148
L70501 72092
L70473 72064
L70417 72036
L70304 72007
L70248 71979
L70220 71951
L70192 71895
L70192 71839
L70220 71782
L70248 71754
L70304 71726
L70445 71726
L70529 71754
" />
<path d="M70782 72317
L70782 71726
" />
<path d="M71035 72317
L71035 72007
L71007 71951
L70951 71923
L70867 71923
L70810 71951
L70782 71979
" />
<path d="M71541 72289
L71485 72317
L71373 72317
L71316 72289
L71288 72232
L71288 72007
L71316 71951
L71373 71923
L71485 71923
L71541 71951
L71570 72007
L71570 72064
L71288 72120
" />
<path d="M72048 72289
L71991 72317
L71879 72317
L71823 72289
L71795 72232
L71795 72007
L71823 71951
L71879 71923
L71991 71923
L72048 71951
L72076 72007
L72076 72064
L71795 72120
" />
<path d="M72244 71923
L72469 71923
" />
<path d="M72329 71726
L72329 72232
L72357 72289
L72413 72317
L72469 72317
" />
<path d="M72666 72260
L72694 72289
L72666 72317
L72638 72289
L72666 72260
L72666 72317
" />
<path d="M72666 71951
L72694 71979
L72666 72007
L72638 71979
L72666 71951
L72666 72007
" />
</g>
<g style="fill:#000000; fill-opacity:0.0; 
stroke:#000000; stroke-width:39.3701; stroke-opacity:1; 
stroke-linecap:round; stroke-linejoin:round;">
</g>
<g style="fill:#000000; fill-opacity:0.0; 
stroke:#000000; stroke-width:59.0551; stroke-opacity:1; 
stroke-linecap:round; stroke-linejoin:round;">
<path d="M77559 75396
L77559 76577
" />
</g>
<g style="fill:#000000; fill-opacity:0.0; 
stroke:#000000; stroke-width:39.3701; stroke-opacity:1; 
stroke-linecap:round; stroke-linejoin:round;">
</g>
<g style="fill:#000000; fill-opacity:0.0; 
stroke:#000000; stroke-width:59.0551; stroke-opacity:1; 
stroke-linecap:round; stroke-linejoin:round;">
<path d="M102756 75396
L102756 77955
" />
</g>
<g style="fill:#C1C100; fill-opacity:0.0; 
stroke:#C1C100; stroke-width:59.0551; stroke-opacity:1; 
stroke-linecap:round; stroke-linejoin:round;">
</g>
<g style="fill:#C1C100; fill-opacity:0.0; 
stroke:#C1C100; stroke-width:39.3701; stroke-opacity:1; 
stroke-linecap:round; stroke-linejoin:round;">
<path d="M20988 53510
L19681 53144
" />
<path d="M22256 53833
L20988 53510
" />
<path d="M24296 54305
L22256 53833
" />
<path d="M26626 54770
L24296 54305
" />
<path d="M28697 55116
L26626 54770
" />
<path d="M30784 55400
L28697 55116
" />
<path d="M32894 55620
L30784 55400
" />
<path d="M34937 55781
L32894 55620
" />
<path d="M36567 55864
L34937 55781
" />
<path d="M38819 55907
L36567 55864
" />
<path d="M40386 55907
L38819 55907
" />
<path d="M41815 55872
L40386 55907
" />
<path d="M43882 55770
L41815 55872
" />
<path d="M45607 55644
L43882 55770
" />
<path d="M47622 55431
L45607 55644
" />
<path d="M49197 55234
L47622 55431
" />
<path d="M51193 54927
L49197 55234
" />
<path d="M53288 54541
L51193 54927
" />
<path d="M54823 54218
L53288 54541
" />
<path d="M56284 53880
L54823 54218
" />
<path d="M57953 53451
L56284 53880
" />
<path d="M59051 53144
L57953 53451
" />
<path d="M59055.1 18110.2 A1574.8 1574.8 0.0 0 0 57480.3 16535.4 " />
<path d="M21259.8 16535.4 A1574.8 1574.8 0.0 0 0 19685 18110.2 " />
<circle cx="22047.2" cy="29330.7" r="1181.1" /> 
<circle cx="22047.2" cy="49409.4" r="1181.1" /> 
<circle cx="56692.9" cy="49409.4" r="1181.1" /> 
<circle cx="56692.9" cy="29330.7" r="1181.1" /> 
<circle cx="22047.2" cy="49409.4" r="590.551" /> 
<circle cx="56692.9" cy="49409.4" r="590.551" /> 
<circle cx="56692.9" cy="29330.7" r="590.551" /> 
<path d="M58858 27165
L58858 51574
" />
<circle cx="22047.2" cy="29330.7" r="590.551" /> 
<path d="M19881 27165
L19881 51574
" />
<path d="M19685 51771
L59055 51771
" />
<path d="M19685 26968
L59055 26968
" />
<path d="M59055 18110
L59055 25590
" />
<path d="M19685 51574
L59055 51574
" />
<path d="M19685 27165
L59055 27165
" />
<path d="M19685 18110
L19685 53149
" />
<path d="M59055 18110
L59055 53149
" />
<path d="M21259 16535
L57480 16535
" />
<path d="M27559 46062
L51181 46062
" />
<path d="M27559 32677
L51181 32677
" />
<path d="M27559 46062
L27559 32677
" />
<path d="M51181 46062
L51181 32677
" />
<path d="M48031 43700
L48031 35039
" />
<path d="M30708 43700
L48031 43700
" />
<path d="M30708 35039
L30708 43700
" />
<path d="M30708 35039
L48031 35039
" />
</g>
<g style="fill:#C1C100; fill-opacity:0.0; 
stroke:#C1C100; stroke-width:59.0551; stroke-opacity:1; 
stroke-linecap:round; stroke-linejoin:round;">
<path d="M18865 32304
L18865 31910
L18997 32191
L19128 31910
L19128 32304
" />
<path d="M19371 32304
L19334 32285
L19315 32266
L19296 32229
L19296 32116
L19315 32079
L19334 32060
L19371 32041
L19428 32041
L19465 32060
L19484 32079
L19503 32116
L19503 32229
L19484 32266
L19465 32285
L19428 32304
L19371 32304
" />
<path d="M19840 32041
L19840 32304
" />
<path d="M19671 32041
L19671 32247
L19690 32285
L19728 32304
L19784 32304
L19821 32285
L19840 32266
" />
<path d="M20028 32041
L20028 32304
" />
<path d="M20028 32079
L20046 32060
L20084 32041
L20140 32041
L20178 32060
L20196 32097
L20196 32304
" />
<path d="M20328 32041
L20478 32041
" />
<path d="M20384 31910
L20384 32247
L20403 32285
L20440 32304
L20478 32304
" />
<path d="M20609 32304
L20609 32041
" />
<path d="M20609 31910
L20590 31929
L20609 31947
L20628 31929
L20609 31910
L20609 31947
" />
<path d="M20796 32041
L20796 32304
" />
<path d="M20796 32079
L20815 32060
L20853 32041
L20909 32041
L20946 32060
L20965 32097
L20965 32304
" />
<path d="M21321 32041
L21321 32360
L21302 32397
L21284 32416
L21246 32435
L21190 32435
L21152 32416
" />
<path d="M21321 32285
L21284 32304
L21209 32304
L21171 32285
L21152 32266
L21134 32229
L21134 32116
L21152 32079
L21171 32060
L21209 32041
L21284 32041
L21321 32060
" />
<path d="M21509 32304
L21509 31910
" />
<path d="M21509 32097
L21734 32097
" />
<path d="M21734 32304
L21734 31910
" />
<path d="M21977 32304
L21940 32285
L21921 32266
L21902 32229
L21902 32116
L21921 32079
L21940 32060
L21977 32041
L22034 32041
L22071 32060
L22090 32079
L22109 32116
L22109 32229
L22090 32266
L22071 32285
L22034 32304
L21977 32304
" />
<path d="M22334 32304
L22296 32285
L22277 32247
L22277 31910
" />
<path d="M22634 32285
L22596 32304
L22521 32304
L22484 32285
L22465 32247
L22465 32097
L22484 32060
L22521 32041
L22596 32041
L22634 32060
L22652 32097
L22652 32135
L22465 32172
" />
<path d="M22821 32304
L22821 31910
L22971 31910
L23008 31929
L23027 31947
L23046 31985
L23046 32041
L23027 32079
L23008 32097
L22971 32116
L22821 32116
" />
<path d="M23383 32304
L23383 32097
L23365 32060
L23327 32041
L23252 32041
L23215 32060
" />
<path d="M23383 32285
L23346 32304
L23252 32304
L23215 32285
L23196 32247
L23196 32210
L23215 32172
L23252 32154
L23346 32154
L23383 32135
" />
<path d="M23740 32304
L23740 31910
" />
<path d="M23740 32285
L23702 32304
L23627 32304
L23590 32285
L23571 32266
L23552 32229
L23552 32116
L23571 32079
L23590 32060
L23627 32041
L23702 32041
L23740 32060
" />
<path d="M23833 32341
L24133 32341
" />
<path d="M24190 31910
L24433 31910
L24302 32060
L24358 32060
L24396 32079
L24415 32097
L24433 32135
L24433 32229
L24415 32266
L24396 32285
L24358 32304
L24246 32304
L24208 32285
L24190 32266
" />
<path d="M24602 32304
L24602 32041
" />
<path d="M24602 32079
L24621 32060
L24658 32041
L24715 32041
L24752 32060
L24771 32097
L24771 32304
" />
<path d="M24771 32097
L24790 32060
L24827 32041
L24883 32041
L24921 32060
L24940 32097
L24940 32304
" />
<path d="M25127 32304
L25127 32041
" />
<path d="M25127 32079
L25146 32060
L25183 32041
L25239 32041
L25277 32060
L25296 32097
L25296 32304
" />
<path d="M25296 32097
L25314 32060
L25352 32041
L25408 32041
L25446 32060
L25464 32097
L25464 32304
" />
<path d="M18865 52382
L18865 51989
L18997 52270
L19128 51989
L19128 52382
" />
<path d="M19371 52382
L19334 52364
L19315 52345
L19296 52307
L19296 52195
L19315 52157
L19334 52139
L19371 52120
L19428 52120
L19465 52139
L19484 52157
L19503 52195
L19503 52307
L19484 52345
L19465 52364
L19428 52382
L19371 52382
" />
<path d="M19840 52120
L19840 52382
" />
<path d="M19671 52120
L19671 52326
L19690 52364
L19728 52382
L19784 52382
L19821 52364
L19840 52345
" />
<path d="M20028 52120
L20028 52382
" />
<path d="M20028 52157
L20046 52139
L20084 52120
L20140 52120
L20178 52139
L20196 52176
L20196 52382
" />
<path d="M20328 52120
L20478 52120
" />
<path d="M20384 51989
L20384 52326
L20403 52364
L20440 52382
L20478 52382
" />
<path d="M20609 52382
L20609 52120
" />
<path d="M20609 51989
L20590 52007
L20609 52026
L20628 52007
L20609 51989
L20609 52026
" />
<path d="M20796 52120
L20796 52382
" />
<path d="M20796 52157
L20815 52139
L20853 52120
L20909 52120
L20946 52139
L20965 52176
L20965 52382
" />
<path d="M21321 52120
L21321 52439
L21302 52476
L21284 52495
L21246 52514
L21190 52514
L21152 52495
" />
<path d="M21321 52364
L21284 52382
L21209 52382
L21171 52364
L21152 52345
L21134 52307
L21134 52195
L21152 52157
L21171 52139
L21209 52120
L21284 52120
L21321 52139
" />
<path d="M21509 52382
L21509 51989
" />
<path d="M21509 52176
L21734 52176
" />
<path d="M21734 52382
L21734 51989
" />
<path d="M21977 52382
L21940 52364
L21921 52345
L21902 52307
L21902 52195
L21921 52157
L21940 52139
L21977 52120
L22034 52120
L22071 52139
L22090 52157
L22109 52195
L22109 52307
L22090 52345
L22071 52364
L22034 52382
L21977 52382
" />
<path d="M22334 52382
L22296 52364
L22277 52326
L22277 51989
" />
<path d="M22634 52364
L22596 52382
L22521 52382
L22484 52364
L22465 52326
L22465 52176
L22484 52139
L22521 52120
L22596 52120
L22634 52139
L22652 52176
L22652 52214
L22465 52251
" />
<path d="M22821 52382
L22821 51989
L22971 51989
L23008 52007
L23027 52026
L23046 52064
L23046 52120
L23027 52157
L23008 52176
L22971 52195
L22821 52195
" />
<path d="M23383 52382
L23383 52176
L23365 52139
L23327 52120
L23252 52120
L23215 52139
" />
<path d="M23383 52364
L23346 52382
L23252 52382
L23215 52364
L23196 52326
L23196 52289
L23215 52251
L23252 52232
L23346 52232
L23383 52214
" />
<path d="M23740 52382
L23740 51989
" />
<path d="M23740 52364
L23702 52382
L23627 52382
L23590 52364
L23571 52345
L23552 52307
L23552 52195
L23571 52157
L23590 52139
L23627 52120
L23702 52120
L23740 52139
" />
<path d="M23833 52420
L24133 52420
" />
<path d="M24190 51989
L24433 51989
L24302 52139
L24358 52139
L24396 52157
L24415 52176
L24433 52214
L24433 52307
L24415 52345
L24396 52364
L24358 52382
L24246 52382
L24208 52364
L24190 52345
" />
<path d="M24602 52382
L24602 52120
" />
<path d="M24602 52157
L24621 52139
L24658 52120
L24715 52120
L24752 52139
L24771 52176
L24771 52382
" />
<path d="M24771 52176
L24790 52139
L24827 52120
L24883 52120
L24921 52139
L24940 52176
L24940 52382
" />
<path d="M25127 52382
L25127 52120
" />
<path d="M25127 52157
L25146 52139
L25183 52120
L25239 52120
L25277 52139
L25296 52176
L25296 52382
" />
<path d="M25296 52176
L25314 52139
L25352 52120
L25408 52120
L25446 52139
L25464 52176
L25464 52382
" />
<path d="M53511 52382
L53511 51989
L53642 52270
L53773 51989
L53773 52382
" />
<path d="M54017 52382
L53980 52364
L53961 52345
L53942 52307
L53942 52195
L53961 52157
L53980 52139
L54017 52120
L54073 52120
L54111 52139
L54130 52157
L54148 52195
L54148 52307
L54130 52345
L54111 52364
L54073 52382
L54017 52382
" />
<path d="M54486 52120
L54486 52382
" />
<path d="M54317 52120
L54317 52326
L54336 52364
L54373 52382
L54430 52382
L54467 52364
L54486 52345
" />
<path d="M54673 52120
L54673 52382
" />
<path d="M54673 52157
L54692 52139
L54730 52120
L54786 52120
L54823 52139
L54842 52176
L54842 52382
" />
<path d="M54973 52120
L55123 52120
" />
<path d="M55029 51989
L55029 52326
L55048 52364
L55086 52382
L55123 52382
" />
<path d="M55254 52382
L55254 52120
" />
<path d="M55254 51989
L55236 52007
L55254 52026
L55273 52007
L55254 51989
L55254 52026
" />
<path d="M55442 52120
L55442 52382
" />
<path d="M55442 52157
L55461 52139
L55498 52120
L55554 52120
L55592 52139
L55611 52176
L55611 52382
" />
<path d="M55967 52120
L55967 52439
L55948 52476
L55929 52495
L55892 52514
L55836 52514
L55798 52495
" />
<path d="M55967 52364
L55929 52382
L55854 52382
L55817 52364
L55798 52345
L55779 52307
L55779 52195
L55798 52157
L55817 52139
L55854 52120
L55929 52120
L55967 52139
" />
<path d="M56154 52382
L56154 51989
" />
<path d="M56154 52176
L56379 52176
" />
<path d="M56379 52382
L56379 51989
" />
<path d="M56623 52382
L56586 52364
L56567 52345
L56548 52307
L56548 52195
L56567 52157
L56586 52139
L56623 52120
L56679 52120
L56717 52139
L56736 52157
L56754 52195
L56754 52307
L56736 52345
L56717 52364
L56679 52382
L56623 52382
" />
<path d="M56979 52382
L56942 52364
L56923 52326
L56923 51989
" />
<path d="M57279 52364
L57242 52382
L57167 52382
L57129 52364
L57110 52326
L57110 52176
L57129 52139
L57167 52120
L57242 52120
L57279 52139
L57298 52176
L57298 52214
L57110 52251
" />
<path d="M57467 52382
L57467 51989
L57617 51989
L57654 52007
L57673 52026
L57692 52064
L57692 52120
L57673 52157
L57654 52176
L57617 52195
L57467 52195
" />
<path d="M58029 52382
L58029 52176
L58010 52139
L57973 52120
L57898 52120
L57860 52139
" />
<path d="M58029 52364
L57992 52382
L57898 52382
L57860 52364
L57842 52326
L57842 52289
L57860 52251
L57898 52232
L57992 52232
L58029 52214
" />
<path d="M58385 52382
L58385 51989
" />
<path d="M58385 52364
L58348 52382
L58273 52382
L58235 52364
L58217 52345
L58198 52307
L58198 52195
L58217 52157
L58235 52139
L58273 52120
L58348 52120
L58385 52139
" />
<path d="M58479 52420
L58779 52420
" />
<path d="M58835 51989
L59079 51989
L58948 52139
L59004 52139
L59041 52157
L59060 52176
L59079 52214
L59079 52307
L59060 52345
L59041 52364
L59004 52382
L58892 52382
L58854 52364
L58835 52345
" />
<path d="M59248 52382
L59248 52120
" />
<path d="M59248 52157
L59266 52139
L59304 52120
L59360 52120
L59398 52139
L59416 52176
L59416 52382
" />
<path d="M59416 52176
L59435 52139
L59473 52120
L59529 52120
L59566 52139
L59585 52176
L59585 52382
" />
<path d="M59773 52382
L59773 52120
" />
<path d="M59773 52157
L59791 52139
L59829 52120
L59885 52120
L59923 52139
L59941 52176
L59941 52382
" />
<path d="M59941 52176
L59960 52139
L59998 52120
L60054 52120
L60091 52139
L60110 52176
L60110 52382
" />
<path d="M28656 53820
L28712 53839
L28806 53839
L28844 53820
L28862 53802
L28881 53764
L28881 53727
L28862 53689
L28844 53670
L28806 53652
L28731 53633
L28694 53614
L28675 53595
L28656 53558
L28656 53520
L28675 53483
L28694 53464
L28731 53445
L28825 53445
L28881 53464
" />
<path d="M29012 53445
L29106 53839
L29181 53558
L29256 53839
L29350 53445
" />
<path d="M29406 53877
L29706 53877
" />
<path d="M29800 53839
L29800 53445
L29950 53445
L29987 53464
L30006 53483
L30025 53520
L30025 53577
L30006 53614
L29987 53633
L29950 53652
L29800 53652
" />
<path d="M30194 53445
L30194 53764
L30212 53802
L30231 53820
L30269 53839
L30344 53839
L30381 53820
L30400 53802
L30419 53764
L30419 53445
" />
<path d="M30587 53820
L30643 53839
L30737 53839
L30775 53820
L30793 53802
L30812 53764
L30812 53727
L30793 53689
L30775 53670
L30737 53652
L30662 53633
L30625 53614
L30606 53595
L30587 53558
L30587 53520
L30606 53483
L30625 53464
L30662 53445
L30756 53445
L30812 53464
" />
<path d="M30981 53839
L30981 53445
" />
<path d="M30981 53633
L31206 53633
" />
<path d="M31206 53839
L31206 53445
" />
<path d="M47554 53820
L47610 53839
L47704 53839
L47741 53820
L47760 53802
L47779 53764
L47779 53727
L47760 53689
L47741 53670
L47704 53652
L47629 53633
L47591 53614
L47573 53595
L47554 53558
L47554 53520
L47573 53483
L47591 53464
L47629 53445
L47723 53445
L47779 53464
" />
<path d="M47910 53445
L48004 53839
L48079 53558
L48154 53839
L48248 53445
" />
<path d="M48304 53877
L48604 53877
" />
<path d="M48697 53839
L48697 53445
L48847 53445
L48885 53464
L48904 53483
L48922 53520
L48922 53577
L48904 53614
L48885 53633
L48847 53652
L48697 53652
" />
<path d="M49091 53445
L49091 53764
L49110 53802
L49129 53820
L49166 53839
L49241 53839
L49279 53820
L49297 53802
L49316 53764
L49316 53445
" />
<path d="M49485 53820
L49541 53839
L49635 53839
L49672 53820
L49691 53802
L49710 53764
L49710 53727
L49691 53689
L49672 53670
L49635 53652
L49560 53633
L49522 53614
L49504 53595
L49485 53558
L49485 53520
L49504 53483
L49522 53464
L49560 53445
L49654 53445
L49710 53464
" />
<path d="M49879 53839
L49879 53445
" />
<path d="M49879 53633
L50104 53633
" />
<path d="M50104 53839
L50104 53445
" />
<path d="M35526 55868
L35583 55886
L35676 55886
L35714 55868
L35733 55849
L35751 55811
L35751 55774
L35733 55736
L35714 55718
L35676 55699
L35601 55680
L35564 55661
L35545 55643
L35526 55605
L35526 55568
L35545 55530
L35564 55511
L35601 55493
L35695 55493
L35751 55511
" />
<path d="M35883 55493
L35976 55886
L36051 55605
L36126 55886
L36220 55493
" />
<path d="M36276 55924
L36576 55924
" />
<path d="M36670 55886
L36670 55493
L36820 55493
L36857 55511
L36876 55530
L36895 55568
L36895 55624
L36876 55661
L36857 55680
L36820 55699
L36670 55699
" />
<path d="M37064 55493
L37064 55811
L37082 55849
L37101 55868
L37139 55886
L37214 55886
L37251 55868
L37270 55849
L37289 55811
L37289 55493
" />
<path d="M37457 55868
L37514 55886
L37607 55886
L37645 55868
L37664 55849
L37682 55811
L37682 55774
L37664 55736
L37645 55718
L37607 55699
L37532 55680
L37495 55661
L37476 55643
L37457 55605
L37457 55568
L37476 55530
L37495 55511
L37532 55493
L37626 55493
L37682 55511
" />
<path d="M37851 55886
L37851 55493
" />
<path d="M37851 55680
L38076 55680
" />
<path d="M38076 55886
L38076 55493
" />
<path d="M26310 27048
L26310 26654
L26460 26654
L26498 26673
L26516 26691
L26535 26729
L26535 26785
L26516 26823
L26498 26841
L26460 26860
L26310 26860
" />
<path d="M26779 26654
L26854 26654
L26891 26673
L26929 26710
L26948 26785
L26948 26916
L26929 26991
L26891 27029
L26854 27048
L26779 27048
L26741 27029
L26704 26991
L26685 26916
L26685 26785
L26704 26710
L26741 26673
L26779 26654
" />
<path d="M27060 26654
L27285 26654
" />
<path d="M27173 27048
L27173 26654
" />
<path d="M49976 22328
L50051 22328
L50089 22347
L50126 22384
L50145 22459
L50145 22590
L50126 22665
L50089 22703
L50051 22722
L49976 22722
L49939 22703
L49901 22665
L49882 22590
L49882 22459
L49901 22384
L49939 22347
L49976 22328
" />
<path d="M50501 22722
L50314 22722
L50314 22328
" />
<path d="M50632 22515
L50763 22515
" />
<path d="M50820 22722
L50632 22722
L50632 22328
L50820 22328
" />
<path d="M50988 22722
L50988 22328
L51082 22328
L51138 22347
L51176 22384
L51195 22422
L51213 22497
L51213 22553
L51195 22628
L51176 22665
L51138 22703
L51082 22722
L50988 22722
" />
<path d="M51288 22759
L51588 22759
" />
<path d="M51682 22722
L51682 22328
L51776 22328
L51832 22347
L51870 22384
L51888 22422
L51907 22497
L51907 22553
L51888 22628
L51870 22665
L51832 22703
L51776 22722
L51682 22722
" />
<path d="M52076 22722
L52076 22328
" />
<path d="M52245 22703
L52301 22722
L52395 22722
L52432 22703
L52451 22684
L52470 22647
L52470 22609
L52451 22572
L52432 22553
L52395 22534
L52320 22515
L52282 22497
L52263 22478
L52245 22440
L52245 22403
L52263 22365
L52282 22347
L52320 22328
L52413 22328
L52470 22347
" />
<path d="M52638 22722
L52638 22328
L52788 22328
L52826 22347
L52844 22365
L52863 22403
L52863 22459
L52844 22497
L52826 22515
L52788 22534
L52638 22534
" />
<path d="M53219 22722
L53032 22722
L53032 22328
" />
<path d="M53332 22609
L53519 22609
" />
<path d="M53294 22722
L53426 22328
L53557 22722
" />
<path d="M53763 22534
L53763 22722
" />
<path d="M53632 22328
L53763 22534
L53894 22328
" />
<path d="M33605 53170
L33417 53170
L33417 52776
" />
<path d="M33736 52964
L33867 52964
" />
<path d="M33923 53170
L33736 53170
L33736 52776
L33923 52776
" />
<path d="M34092 53170
L34092 52776
L34186 52776
L34242 52795
L34280 52832
L34298 52870
L34317 52945
L34317 53001
L34298 53076
L34280 53113
L34242 53151
L34186 53170
L34092 53170
" />
<path d="M39116 53170
L38929 53170
L38929 52776
" />
<path d="M39248 52964
L39379 52964
" />
<path d="M39435 53170
L39248 53170
L39248 52776
L39435 52776
" />
<path d="M39604 53170
L39604 52776
L39698 52776
L39754 52795
L39791 52832
L39810 52870
L39829 52945
L39829 53001
L39810 53076
L39791 53113
L39754 53151
L39698 53170
L39604 53170
" />
<path d="M44628 53170
L44441 53170
L44441 52776
" />
<path d="M44760 52964
L44891 52964
" />
<path d="M44947 53170
L44760 53170
L44760 52776
L44947 52776
" />
<path d="M45116 53170
L45116 52776
L45209 52776
L45266 52795
L45303 52832
L45322 52870
L45341 52945
L45341 53001
L45322 53076
L45303 53113
L45266 53151
L45209 53170
L45116 53170
" />
<path d="M33605 25926
L33417 25926
L33417 25532
" />
<path d="M33736 25719
L33867 25719
" />
<path d="M33923 25926
L33736 25926
L33736 25532
L33923 25532
" />
<path d="M34092 25926
L34092 25532
L34186 25532
L34242 25551
L34280 25588
L34298 25626
L34317 25701
L34317 25757
L34298 25832
L34280 25869
L34242 25907
L34186 25926
L34092 25926
" />
<path d="M39116 25926
L38929 25926
L38929 25532
" />
<path d="M39248 25719
L39379 25719
" />
<path d="M39435 25926
L39248 25926
L39248 25532
L39435 25532
" />
<path d="M39604 25926
L39604 25532
L39698 25532
L39754 25551
L39791 25588
L39810 25626
L39829 25701
L39829 25757
L39810 25832
L39791 25869
L39754 25907
L39698 25926
L39604 25926
" />
<path d="M40664 54411
L40720 54430
L40814 54430
L40852 54411
L40870 54392
L40889 54355
L40889 54317
L40870 54280
L40852 54261
L40814 54242
L40739 54223
L40702 54205
L40683 54186
L40664 54148
L40664 54111
L40683 54073
L40702 54055
L40739 54036
L40833 54036
L40889 54055
" />
<path d="M41020 54036
L41114 54430
L41189 54148
L41264 54430
L41358 54036
" />
<path d="M41414 54467
L41714 54467
" />
<path d="M41808 54430
L41808 54036
L41958 54036
L41995 54055
L42014 54073
L42033 54111
L42033 54167
L42014 54205
L41995 54223
L41958 54242
L41808 54242
" />
<path d="M42201 54036
L42201 54355
L42220 54392
L42239 54411
L42276 54430
L42351 54430
L42389 54411
L42408 54392
L42426 54355
L42426 54036
" />
<path d="M42595 54411
L42651 54430
L42745 54430
L42783 54411
L42801 54392
L42820 54355
L42820 54317
L42801 54280
L42783 54261
L42745 54242
L42670 54223
L42633 54205
L42614 54186
L42595 54148
L42595 54111
L42614 54073
L42633 54055
L42670 54036
L42764 54036
L42820 54055
" />
<path d="M42989 54430
L42989 54036
" />
<path d="M42989 54223
L43214 54223
" />
<path d="M43214 54430
L43214 54036
" />
<path d="M53511 32304
L53511 31910
L53642 32191
L53773 31910
L53773 32304
" />
<path d="M54017 32304
L53980 32285
L53961 32266
L53942 32229
L53942 32116
L53961 32079
L53980 32060
L54017 32041
L54073 32041
L54111 32060
L54130 32079
L54148 32116
L54148 32229
L54130 32266
L54111 32285
L54073 32304
L54017 32304
" />
<path d="M54486 32041
L54486 32304
" />
<path d="M54317 32041
L54317 32247
L54336 32285
L54373 32304
L54430 32304
L54467 32285
L54486 32266
" />
<path d="M54673 32041
L54673 32304
" />
<path d="M54673 32079
L54692 32060
L54730 32041
L54786 32041
L54823 32060
L54842 32097
L54842 32304
" />
<path d="M54973 32041
L55123 32041
" />
<path d="M55029 31910
L55029 32247
L55048 32285
L55086 32304
L55123 32304
" />
<path d="M55254 32304
L55254 32041
" />
<path d="M55254 31910
L55236 31929
L55254 31947
L55273 31929
L55254 31910
L55254 31947
" />
<path d="M55442 32041
L55442 32304
" />
<path d="M55442 32079
L55461 32060
L55498 32041
L55554 32041
L55592 32060
L55611 32097
L55611 32304
" />
<path d="M55967 32041
L55967 32360
L55948 32397
L55929 32416
L55892 32435
L55836 32435
L55798 32416
" />
<path d="M55967 32285
L55929 32304
L55854 32304
L55817 32285
L55798 32266
L55779 32229
L55779 32116
L55798 32079
L55817 32060
L55854 32041
L55929 32041
L55967 32060
" />
<path d="M56154 32304
L56154 31910
" />
<path d="M56154 32097
L56379 32097
" />
<path d="M56379 32304
L56379 31910
" />
<path d="M56623 32304
L56586 32285
L56567 32266
L56548 32229
L56548 32116
L56567 32079
L56586 32060
L56623 32041
L56679 32041
L56717 32060
L56736 32079
L56754 32116
L56754 32229
L56736 32266
L56717 32285
L56679 32304
L56623 32304
" />
<path d="M56979 32304
L56942 32285
L56923 32247
L56923 31910
" />
<path d="M57279 32285
L57242 32304
L57167 32304
L57129 32285
L57110 32247
L57110 32097
L57129 32060
L57167 32041
L57242 32041
L57279 32060
L57298 32097
L57298 32135
L57110 32172
" />
<path d="M57467 32304
L57467 31910
L57617 31910
L57654 31929
L57673 31947
L57692 31985
L57692 32041
L57673 32079
L57654 32097
L57617 32116
L57467 32116
" />
<path d="M58029 32304
L58029 32097
L58010 32060
L57973 32041
L57898 32041
L57860 32060
" />
<path d="M58029 32285
L57992 32304
L57898 32304
L57860 32285
L57842 32247
L57842 32210
L57860 32172
L57898 32154
L57992 32154
L58029 32135
" />
<path d="M58385 32304
L58385 31910
" />
<path d="M58385 32285
L58348 32304
L58273 32304
L58235 32285
L58217 32266
L58198 32229
L58198 32116
L58217 32079
L58235 32060
L58273 32041
L58348 32041
L58385 32060
" />
<path d="M58479 32341
L58779 32341
" />
<path d="M58835 31910
L59079 31910
L58948 32060
L59004 32060
L59041 32079
L59060 32097
L59079 32135
L59079 32229
L59060 32266
L59041 32285
L59004 32304
L58892 32304
L58854 32285
L58835 32266
" />
<path d="M59248 32304
L59248 32041
" />
<path d="M59248 32079
L59266 32060
L59304 32041
L59360 32041
L59398 32060
L59416 32097
L59416 32304
" />
<path d="M59416 32097
L59435 32060
L59473 32041
L59529 32041
L59566 32060
L59585 32097
L59585 32304
" />
<path d="M59773 32304
L59773 32041
" />
<path d="M59773 32079
L59791 32060
L59829 32041
L59885 32041
L59923 32060
L59941 32097
L59941 32304
" />
<path d="M59941 32097
L59960 32060
L59998 32041
L60054 32041
L60091 32060
L60110 32097
L60110 32304
" />
<path d="M44628 25926
L44441 25926
L44441 25532
" />
<path d="M44760 25719
L44891 25719
" />
<path d="M44947 25926
L44760 25926
L44760 25532
L44947 25532
" />
<path d="M45116 25926
L45116 25532
L45209 25532
L45266 25551
L45303 25588
L45322 25626
L45341 25701
L45341 25757
L45322 25832
L45303 25869
L45266 25907
L45209 25926
L45116 25926
" />
<path d="M57385 27810
L57367 27829
L57310 27848
L57273 27848
L57217 27829
L57179 27791
L57160 27754
L57142 27679
L57142 27623
L57160 27548
L57179 27510
L57217 27473
L57273 27454
L57310 27454
L57367 27473
L57385 27491
" />
<path d="M57629 27454
L57704 27454
L57742 27473
L57779 27510
L57798 27585
L57798 27716
L57779 27791
L57742 27829
L57704 27848
L57629 27848
L57592 27829
L57554 27791
L57535 27716
L57535 27585
L57554 27510
L57592 27473
L57629 27454
" />
<path d="M57967 27848
L57967 27454
L58192 27848
L58192 27454
" />
<path d="M58379 27848
L58379 27454
L58604 27848
L58604 27454
" />
<path d="M58698 27885
L58998 27885
" />
<path d="M59166 27454
L59204 27454
L59241 27473
L59260 27491
L59279 27529
L59298 27604
L59298 27698
L59279 27773
L59260 27810
L59241 27829
L59204 27848
L59166 27848
L59129 27829
L59110 27810
L59091 27773
L59073 27698
L59073 27604
L59091 27529
L59110 27491
L59129 27473
L59166 27454
" />
<path d="M59673 27848
L59448 27848
" />
<path d="M59560 27848
L59560 27454
L59523 27510
L59485 27548
L59448 27566
" />
<path d="M59804 27454
L60066 27848
" />
<path d="M60066 27454
L59804 27848
" />
<path d="M60291 27454
L60329 27454
L60366 27473
L60385 27491
L60404 27529
L60423 27604
L60423 27698
L60404 27773
L60385 27810
L60366 27829
L60329 27848
L60291 27848
L60254 27829
L60235 27810
L60216 27773
L60198 27698
L60198 27604
L60216 27529
L60235 27491
L60254 27473
L60291 27454
" />
<path d="M60797 27848
L60573 27848
" />
<path d="M60685 27848
L60685 27454
L60647 27510
L60610 27548
L60573 27566
" />
<path d="M46337 24423
L46337 24610
L45943 24610
" />
<path d="M46130 24291
L46130 24160
" />
<path d="M46337 24104
L46337 24291
L45943 24291
L45943 24104
" />
<path d="M46337 23935
L45943 23935
L45943 23841
L45962 23785
L45999 23748
L46037 23729
L46112 23710
L46168 23710
L46243 23729
L46280 23748
L46318 23785
L46337 23841
L46337 23935
" />
<path d="M46337 22723
L46337 22910
L45943 22910
" />
<path d="M46130 22591
L46130 22460
" />
<path d="M46337 22404
L46337 22591
L45943 22591
L45943 22404
" />
<path d="M46337 22235
L45943 22235
L45943 22141
L45962 22085
L45999 22048
L46037 22029
L46112 22010
L46168 22010
L46243 22029
L46280 22048
L46318 22085
L46337 22141
L46337 22235
" />
<path d="M25159 24465
L25178 24409
L25178 24315
L25159 24278
L25140 24259
L25103 24240
L25065 24240
L25028 24259
L25009 24278
L24990 24315
L24971 24390
L24953 24428
L24934 24446
L24896 24465
L24859 24465
L24821 24446
L24803 24428
L24784 24390
L24784 24296
L24803 24240
" />
<path d="M25178 24071
L24784 24071
L24784 23922
L24803 23884
L24821 23865
L24859 23847
L24915 23847
L24953 23865
L24971 23884
L24990 23922
L24990 24071
" />
<path d="M25159 23697
L25178 23640
L25178 23547
L25159 23509
L25140 23490
L25103 23472
L25065 23472
L25028 23490
L25009 23509
L24990 23547
L24971 23622
L24953 23659
L24934 23678
L24896 23697
L24859 23697
L24821 23678
L24803 23659
L24784 23622
L24784 23528
L24803 23472
" />
<path d="M24784 23359
L24784 23134
" />
<path d="M25178 23247
L24784 23247
" />
<path d="M40942 24179
L40998 24197
L41092 24197
L41129 24179
L41148 24160
L41167 24122
L41167 24085
L41148 24047
L41129 24029
L41092 24010
L41017 23991
L40979 23972
L40960 23954
L40942 23916
L40942 23879
L40960 23841
L40979 23822
L41017 23804
L41110 23804
L41167 23822
" />
<path d="M41335 24197
L41335 23804
L41485 23804
L41523 23822
L41542 23841
L41560 23879
L41560 23935
L41542 23972
L41523 23991
L41485 24010
L41335 24010
" />
<path d="M41729 23991
L41860 23991
" />
<path d="M41916 24197
L41729 24197
L41729 23804
L41916 23804
" />
<path d="M42066 24085
L42254 24085
" />
<path d="M42029 24197
L42160 23804
L42291 24197
" />
<path d="M42423 24197
L42423 23804
" />
<path d="M42648 24197
L42479 23972
" />
<path d="M42648 23804
L42423 24029
" />
<path d="M42816 23991
L42948 23991
" />
<path d="M43004 24197
L42816 24197
L42816 23804
L43004 23804
" />
<path d="M43398 24197
L43266 24010
" />
<path d="M43173 24197
L43173 23804
L43323 23804
L43360 23822
L43379 23841
L43398 23879
L43398 23935
L43379 23972
L43360 23991
L43323 24010
L43173 24010
" />
</g> 
</svg>
