<?xml version="1.0" standalone="no"?>
 <!DOCTYPE svg PUBLIC "-//W3C//DTD SVG 1.1//EN" 
 "http://www.w3.org/Graphics/SVG/1.1/DTD/svg11.dtd"> 
<svg xmlns="http://www.w3.org/2000/svg" version="1.1" 
    width="29.7002cm" height="21.0007cm" viewBox="0 0 116930 82680 ">
<title>SVG Picture created as OpenDropV2-F.Paste.svg date 2016/05/17 15:02:39 </title>
  <desc>Picture generated by PCBNEW </desc>
<g style="fill:#000000; fill-opacity:1;stroke:#000000; stroke-opacity:1;
stroke-linecap:round; stroke-linejoin:round; "
 transform="translate(0 0) scale(1 1)">
</g>
<g style="fill:#000000; fill-opacity:0.0; 
stroke:#000000; stroke-width:-0.000393701; stroke-opacity:1; 
stroke-linecap:round; stroke-linejoin:round;">
</g>
<g style="fill:#000000; fill-opacity:0.0; 
stroke:#000000; stroke-width:39.3701; stroke-opacity:1; 
stroke-linecap:round; stroke-linejoin:round;">
</g>
<g style="fill:#000000; fill-opacity:0.0; 
stroke:#000000; stroke-width:59.0551; stroke-opacity:1; 
stroke-linecap:round; stroke-linejoin:round;">
<rect x="69685.9" y="65357.2" width="42519.7" height="12598.4" rx="0" />
</g>
<g style="fill:#000000; fill-opacity:0.0; 
stroke:#000000; stroke-width:39.3701; stroke-opacity:1; 
stroke-linecap:round; stroke-linejoin:round;">
</g>
<g style="fill:#000000; fill-opacity:0.0; 
stroke:#000000; stroke-width:59.0551; stroke-opacity:1; 
stroke-linecap:round; stroke-linejoin:round;">
<rect x="3937.01" y="3937.01" width="109056" height="74806" rx="0" />
</g>
<g style="fill:#000000; fill-opacity:0.0; 
stroke:#000000; stroke-width:39.3701; stroke-opacity:1; 
stroke-linecap:round; stroke-linejoin:round;">
</g>
<g style="fill:#000000; fill-opacity:0.0; 
stroke:#000000; stroke-width:59.0551; stroke-opacity:1; 
stroke-linecap:round; stroke-linejoin:round;">
<rect x="4724.41" y="4724.41" width="107481" height="73231.2" rx="0" />
</g>
<g style="fill:#000000; fill-opacity:0.0; 
stroke:#000000; stroke-width:39.3701; stroke-opacity:1; 
stroke-linecap:round; stroke-linejoin:round;">
</g>
<g style="fill:#000000; fill-opacity:0.0; 
stroke:#000000; stroke-width:59.0551; stroke-opacity:1; 
stroke-linecap:round; stroke-linejoin:round;">
<path d="M23622 4724
L23622 3937
" />
</g>
<g style="fill:#000000; fill-opacity:0.0; 
stroke:#000000; stroke-width:39.3701; stroke-opacity:1; 
stroke-linecap:round; stroke-linejoin:round;">
</g>
<g style="fill:#000000; fill-opacity:0.0; 
stroke:#000000; stroke-width:59.0551; stroke-opacity:1; 
stroke-linecap:round; stroke-linejoin:round;">
<path d="M43307 4724
L43307 3937
" />
</g>
<g style="fill:#000000; fill-opacity:0.0; 
stroke:#000000; stroke-width:39.3701; stroke-opacity:1; 
stroke-linecap:round; stroke-linejoin:round;">
</g>
<g style="fill:#000000; fill-opacity:0.0; 
stroke:#000000; stroke-width:59.0551; stroke-opacity:1; 
stroke-linecap:round; stroke-linejoin:round;">
<path d="M62992 4724
L62992 3937
" />
</g>
<g style="fill:#000000; fill-opacity:0.0; 
stroke:#000000; stroke-width:39.3701; stroke-opacity:1; 
stroke-linecap:round; stroke-linejoin:round;">
</g>
<g style="fill:#000000; fill-opacity:0.0; 
stroke:#000000; stroke-width:59.0551; stroke-opacity:1; 
stroke-linecap:round; stroke-linejoin:round;">
<path d="M82677 4724
L82677 3937
" />
</g>
<g style="fill:#000000; fill-opacity:0.0; 
stroke:#000000; stroke-width:39.3701; stroke-opacity:1; 
stroke-linecap:round; stroke-linejoin:round;">
</g>
<g style="fill:#000000; fill-opacity:0.0; 
stroke:#000000; stroke-width:59.0551; stroke-opacity:1; 
stroke-linecap:round; stroke-linejoin:round;">
<path d="M102362 4724
L102362 3937
" />
</g>
<g style="fill:#000000; fill-opacity:0.0; 
stroke:#000000; stroke-width:39.3701; stroke-opacity:1; 
stroke-linecap:round; stroke-linejoin:round;">
</g>
<g style="fill:#000000; fill-opacity:0.0; 
stroke:#000000; stroke-width:59.0551; stroke-opacity:1; 
stroke-linecap:round; stroke-linejoin:round;">
<path d="M14199 4562
L13906 4562
" />
<path d="M14052 4562
L14052 4050
L14004 4123
L13955 4172
L13906 4196
" />
</g>
<g style="fill:#000000; fill-opacity:0.0; 
stroke:#000000; stroke-width:39.3701; stroke-opacity:1; 
stroke-linecap:round; stroke-linejoin:round;">
</g>
<g style="fill:#000000; fill-opacity:0.0; 
stroke:#000000; stroke-width:59.0551; stroke-opacity:1; 
stroke-linecap:round; stroke-linejoin:round;">
<path d="M33591 4099
L33615 4074
L33664 4050
L33786 4050
L33835 4074
L33859 4099
L33884 4147
L33884 4196
L33859 4269
L33567 4562
L33884 4562
" />
</g>
<g style="fill:#000000; fill-opacity:0.0; 
stroke:#000000; stroke-width:39.3701; stroke-opacity:1; 
stroke-linecap:round; stroke-linejoin:round;">
</g>
<g style="fill:#000000; fill-opacity:0.0; 
stroke:#000000; stroke-width:59.0551; stroke-opacity:1; 
stroke-linecap:round; stroke-linejoin:round;">
<path d="M53252 4050
L53569 4050
L53398 4245
L53471 4245
L53520 4269
L53544 4294
L53569 4342
L53569 4464
L53544 4513
L53520 4537
L53471 4562
L53325 4562
L53276 4537
L53252 4513
" />
</g>
<g style="fill:#000000; fill-opacity:0.0; 
stroke:#000000; stroke-width:39.3701; stroke-opacity:1; 
stroke-linecap:round; stroke-linejoin:round;">
</g>
<g style="fill:#000000; fill-opacity:0.0; 
stroke:#000000; stroke-width:59.0551; stroke-opacity:1; 
stroke-linecap:round; stroke-linejoin:round;">
<path d="M73205 4221
L73205 4562
" />
<path d="M73083 4026
L72961 4391
L73278 4391
" />
</g>
<g style="fill:#000000; fill-opacity:0.0; 
stroke:#000000; stroke-width:39.3701; stroke-opacity:1; 
stroke-linecap:round; stroke-linejoin:round;">
</g>
<g style="fill:#000000; fill-opacity:0.0; 
stroke:#000000; stroke-width:59.0551; stroke-opacity:1; 
stroke-linecap:round; stroke-linejoin:round;">
<path d="M92914 4050
L92671 4050
L92646 4294
L92671 4269
L92719 4245
L92841 4245
L92890 4269
L92914 4294
L92939 4342
L92939 4464
L92914 4513
L92890 4537
L92841 4562
L92719 4562
L92671 4537
L92646 4513
" />
</g>
<g style="fill:#000000; fill-opacity:0.0; 
stroke:#000000; stroke-width:39.3701; stroke-opacity:1; 
stroke-linecap:round; stroke-linejoin:round;">
</g>
<g style="fill:#000000; fill-opacity:0.0; 
stroke:#000000; stroke-width:59.0551; stroke-opacity:1; 
stroke-linecap:round; stroke-linejoin:round;">
<path d="M112575 4050
L112477 4050
L112429 4074
L112404 4099
L112356 4172
L112331 4269
L112331 4464
L112356 4513
L112380 4537
L112429 4562
L112526 4562
L112575 4537
L112599 4513
L112624 4464
L112624 4342
L112599 4294
L112575 4269
L112526 4245
L112429 4245
L112380 4269
L112356 4294
L112331 4342
" />
</g>
<g style="fill:#000000; fill-opacity:0.0; 
stroke:#000000; stroke-width:39.3701; stroke-opacity:1; 
stroke-linecap:round; stroke-linejoin:round;">
</g>
<g style="fill:#000000; fill-opacity:0.0; 
stroke:#000000; stroke-width:59.0551; stroke-opacity:1; 
stroke-linecap:round; stroke-linejoin:round;">
<path d="M23622 77955
L23622 78742
" />
</g>
<g style="fill:#000000; fill-opacity:0.0; 
stroke:#000000; stroke-width:39.3701; stroke-opacity:1; 
stroke-linecap:round; stroke-linejoin:round;">
</g>
<g style="fill:#000000; fill-opacity:0.0; 
stroke:#000000; stroke-width:59.0551; stroke-opacity:1; 
stroke-linecap:round; stroke-linejoin:round;">
<path d="M43307 77955
L43307 78742
" />
</g>
<g style="fill:#000000; fill-opacity:0.0; 
stroke:#000000; stroke-width:39.3701; stroke-opacity:1; 
stroke-linecap:round; stroke-linejoin:round;">
</g>
<g style="fill:#000000; fill-opacity:0.0; 
stroke:#000000; stroke-width:59.0551; stroke-opacity:1; 
stroke-linecap:round; stroke-linejoin:round;">
<path d="M62992 77955
L62992 78742
" />
</g>
<g style="fill:#000000; fill-opacity:0.0; 
stroke:#000000; stroke-width:39.3701; stroke-opacity:1; 
stroke-linecap:round; stroke-linejoin:round;">
</g>
<g style="fill:#000000; fill-opacity:0.0; 
stroke:#000000; stroke-width:59.0551; stroke-opacity:1; 
stroke-linecap:round; stroke-linejoin:round;">
<path d="M82677 77955
L82677 78742
" />
</g>
<g style="fill:#000000; fill-opacity:0.0; 
stroke:#000000; stroke-width:39.3701; stroke-opacity:1; 
stroke-linecap:round; stroke-linejoin:round;">
</g>
<g style="fill:#000000; fill-opacity:0.0; 
stroke:#000000; stroke-width:59.0551; stroke-opacity:1; 
stroke-linecap:round; stroke-linejoin:round;">
<path d="M102362 77955
L102362 78742
" />
</g>
<g style="fill:#000000; fill-opacity:0.0; 
stroke:#000000; stroke-width:39.3701; stroke-opacity:1; 
stroke-linecap:round; stroke-linejoin:round;">
</g>
<g style="fill:#000000; fill-opacity:0.0; 
stroke:#000000; stroke-width:59.0551; stroke-opacity:1; 
stroke-linecap:round; stroke-linejoin:round;">
<path d="M14199 78580
L13906 78580
" />
<path d="M14052 78580
L14052 78069
L14004 78142
L13955 78190
L13906 78215
" />
</g>
<g style="fill:#000000; fill-opacity:0.0; 
stroke:#000000; stroke-width:39.3701; stroke-opacity:1; 
stroke-linecap:round; stroke-linejoin:round;">
</g>
<g style="fill:#000000; fill-opacity:0.0; 
stroke:#000000; stroke-width:59.0551; stroke-opacity:1; 
stroke-linecap:round; stroke-linejoin:round;">
<path d="M33591 78117
L33615 78093
L33664 78069
L33786 78069
L33835 78093
L33859 78117
L33884 78166
L33884 78215
L33859 78288
L33567 78580
L33884 78580
" />
</g>
<g style="fill:#000000; fill-opacity:0.0; 
stroke:#000000; stroke-width:39.3701; stroke-opacity:1; 
stroke-linecap:round; stroke-linejoin:round;">
</g>
<g style="fill:#000000; fill-opacity:0.0; 
stroke:#000000; stroke-width:59.0551; stroke-opacity:1; 
stroke-linecap:round; stroke-linejoin:round;">
<path d="M53252 78069
L53569 78069
L53398 78263
L53471 78263
L53520 78288
L53544 78312
L53569 78361
L53569 78483
L53544 78532
L53520 78556
L53471 78580
L53325 78580
L53276 78556
L53252 78532
" />
</g>
<g style="fill:#000000; fill-opacity:0.0; 
stroke:#000000; stroke-width:39.3701; stroke-opacity:1; 
stroke-linecap:round; stroke-linejoin:round;">
</g>
<g style="fill:#000000; fill-opacity:0.0; 
stroke:#000000; stroke-width:59.0551; stroke-opacity:1; 
stroke-linecap:round; stroke-linejoin:round;">
<path d="M73205 78239
L73205 78580
" />
<path d="M73083 78044
L72961 78410
L73278 78410
" />
</g>
<g style="fill:#000000; fill-opacity:0.0; 
stroke:#000000; stroke-width:39.3701; stroke-opacity:1; 
stroke-linecap:round; stroke-linejoin:round;">
</g>
<g style="fill:#000000; fill-opacity:0.0; 
stroke:#000000; stroke-width:59.0551; stroke-opacity:1; 
stroke-linecap:round; stroke-linejoin:round;">
<path d="M92914 78069
L92671 78069
L92646 78312
L92671 78288
L92719 78263
L92841 78263
L92890 78288
L92914 78312
L92939 78361
L92939 78483
L92914 78532
L92890 78556
L92841 78580
L92719 78580
L92671 78556
L92646 78532
" />
</g>
<g style="fill:#000000; fill-opacity:0.0; 
stroke:#000000; stroke-width:39.3701; stroke-opacity:1; 
stroke-linecap:round; stroke-linejoin:round;">
</g>
<g style="fill:#000000; fill-opacity:0.0; 
stroke:#000000; stroke-width:59.0551; stroke-opacity:1; 
stroke-linecap:round; stroke-linejoin:round;">
<path d="M112575 78069
L112477 78069
L112429 78093
L112404 78117
L112356 78190
L112331 78288
L112331 78483
L112356 78532
L112380 78556
L112429 78580
L112526 78580
L112575 78556
L112599 78532
L112624 78483
L112624 78361
L112599 78312
L112575 78288
L112526 78263
L112429 78263
L112380 78288
L112356 78312
L112331 78361
" />
</g>
<g style="fill:#000000; fill-opacity:0.0; 
stroke:#000000; stroke-width:39.3701; stroke-opacity:1; 
stroke-linecap:round; stroke-linejoin:round;">
</g>
<g style="fill:#000000; fill-opacity:0.0; 
stroke:#000000; stroke-width:59.0551; stroke-opacity:1; 
stroke-linecap:round; stroke-linejoin:round;">
<path d="M3937 23622
L4724 23622
" />
</g>
<g style="fill:#000000; fill-opacity:0.0; 
stroke:#000000; stroke-width:39.3701; stroke-opacity:1; 
stroke-linecap:round; stroke-linejoin:round;">
</g>
<g style="fill:#000000; fill-opacity:0.0; 
stroke:#000000; stroke-width:59.0551; stroke-opacity:1; 
stroke-linecap:round; stroke-linejoin:round;">
<path d="M3937 43307
L4724 43307
" />
</g>
<g style="fill:#000000; fill-opacity:0.0; 
stroke:#000000; stroke-width:39.3701; stroke-opacity:1; 
stroke-linecap:round; stroke-linejoin:round;">
</g>
<g style="fill:#000000; fill-opacity:0.0; 
stroke:#000000; stroke-width:59.0551; stroke-opacity:1; 
stroke-linecap:round; stroke-linejoin:round;">
<path d="M3937 62992
L4724 62992
" />
</g>
<g style="fill:#000000; fill-opacity:0.0; 
stroke:#000000; stroke-width:39.3701; stroke-opacity:1; 
stroke-linecap:round; stroke-linejoin:round;">
</g>
<g style="fill:#000000; fill-opacity:0.0; 
stroke:#000000; stroke-width:59.0551; stroke-opacity:1; 
stroke-linecap:round; stroke-linejoin:round;">
<path d="M4208 13864
L4452 13864
" />
<path d="M4160 14011
L4330 13499
L4501 14011
" />
</g>
<g style="fill:#000000; fill-opacity:0.0; 
stroke:#000000; stroke-width:39.3701; stroke-opacity:1; 
stroke-linecap:round; stroke-linejoin:round;">
</g>
<g style="fill:#000000; fill-opacity:0.0; 
stroke:#000000; stroke-width:59.0551; stroke-opacity:1; 
stroke-linecap:round; stroke-linejoin:round;">
<path d="M4367 33428
L4440 33452
L4464 33476
L4489 33525
L4489 33598
L4464 33647
L4440 33671
L4391 33696
L4196 33696
L4196 33184
L4367 33184
L4416 33208
L4440 33233
L4464 33281
L4464 33330
L4440 33379
L4416 33403
L4367 33428
L4196 33428
" />
</g>
<g style="fill:#000000; fill-opacity:0.0; 
stroke:#000000; stroke-width:39.3701; stroke-opacity:1; 
stroke-linecap:round; stroke-linejoin:round;">
</g>
<g style="fill:#000000; fill-opacity:0.0; 
stroke:#000000; stroke-width:59.0551; stroke-opacity:1; 
stroke-linecap:round; stroke-linejoin:round;">
<path d="M4489 53332
L4464 53356
L4391 53381
L4342 53381
L4269 53356
L4221 53308
L4196 53259
L4172 53161
L4172 53088
L4196 52991
L4221 52942
L4269 52893
L4342 52869
L4391 52869
L4464 52893
L4489 52918
" />
</g>
<g style="fill:#000000; fill-opacity:0.0; 
stroke:#000000; stroke-width:39.3701; stroke-opacity:1; 
stroke-linecap:round; stroke-linejoin:round;">
</g>
<g style="fill:#000000; fill-opacity:0.0; 
stroke:#000000; stroke-width:59.0551; stroke-opacity:1; 
stroke-linecap:round; stroke-linejoin:round;">
<path d="M4196 73066
L4196 72554
L4318 72554
L4391 72578
L4440 72627
L4464 72676
L4489 72773
L4489 72846
L4464 72944
L4440 72993
L4391 73041
L4318 73066
L4196 73066
" />
</g>
<g style="fill:#000000; fill-opacity:0.0; 
stroke:#000000; stroke-width:39.3701; stroke-opacity:1; 
stroke-linecap:round; stroke-linejoin:round;">
</g>
<g style="fill:#000000; fill-opacity:0.0; 
stroke:#000000; stroke-width:59.0551; stroke-opacity:1; 
stroke-linecap:round; stroke-linejoin:round;">
<path d="M112992 23622
L112205 23622
" />
</g>
<g style="fill:#000000; fill-opacity:0.0; 
stroke:#000000; stroke-width:39.3701; stroke-opacity:1; 
stroke-linecap:round; stroke-linejoin:round;">
</g>
<g style="fill:#000000; fill-opacity:0.0; 
stroke:#000000; stroke-width:59.0551; stroke-opacity:1; 
stroke-linecap:round; stroke-linejoin:round;">
<path d="M112992 43307
L112205 43307
" />
</g>
<g style="fill:#000000; fill-opacity:0.0; 
stroke:#000000; stroke-width:39.3701; stroke-opacity:1; 
stroke-linecap:round; stroke-linejoin:round;">
</g>
<g style="fill:#000000; fill-opacity:0.0; 
stroke:#000000; stroke-width:59.0551; stroke-opacity:1; 
stroke-linecap:round; stroke-linejoin:round;">
<path d="M112992 62992
L112205 62992
" />
</g>
<g style="fill:#000000; fill-opacity:0.0; 
stroke:#000000; stroke-width:39.3701; stroke-opacity:1; 
stroke-linecap:round; stroke-linejoin:round;">
</g>
<g style="fill:#000000; fill-opacity:0.0; 
stroke:#000000; stroke-width:59.0551; stroke-opacity:1; 
stroke-linecap:round; stroke-linejoin:round;">
<path d="M112477 13864
L112721 13864
" />
<path d="M112428 14011
L112599 13499
L112769 14011
" />
</g>
<g style="fill:#000000; fill-opacity:0.0; 
stroke:#000000; stroke-width:39.3701; stroke-opacity:1; 
stroke-linecap:round; stroke-linejoin:round;">
</g>
<g style="fill:#000000; fill-opacity:0.0; 
stroke:#000000; stroke-width:59.0551; stroke-opacity:1; 
stroke-linecap:round; stroke-linejoin:round;">
<path d="M112635 33428
L112708 33452
L112733 33476
L112757 33525
L112757 33598
L112733 33647
L112708 33671
L112660 33696
L112465 33696
L112465 33184
L112635 33184
L112684 33208
L112708 33233
L112733 33281
L112733 33330
L112708 33379
L112684 33403
L112635 33428
L112465 33428
" />
</g>
<g style="fill:#000000; fill-opacity:0.0; 
stroke:#000000; stroke-width:39.3701; stroke-opacity:1; 
stroke-linecap:round; stroke-linejoin:round;">
</g>
<g style="fill:#000000; fill-opacity:0.0; 
stroke:#000000; stroke-width:59.0551; stroke-opacity:1; 
stroke-linecap:round; stroke-linejoin:round;">
<path d="M112757 53332
L112733 53356
L112660 53381
L112611 53381
L112538 53356
L112489 53308
L112465 53259
L112440 53161
L112440 53088
L112465 52991
L112489 52942
L112538 52893
L112611 52869
L112660 52869
L112733 52893
L112757 52918
" />
</g>
<g style="fill:#000000; fill-opacity:0.0; 
stroke:#000000; stroke-width:39.3701; stroke-opacity:1; 
stroke-linecap:round; stroke-linejoin:round;">
</g>
<g style="fill:#000000; fill-opacity:0.0; 
stroke:#000000; stroke-width:59.0551; stroke-opacity:1; 
stroke-linecap:round; stroke-linejoin:round;">
<path d="M112465 73066
L112465 72554
L112587 72554
L112660 72578
L112708 72627
L112733 72676
L112757 72773
L112757 72846
L112733 72944
L112708 72993
L112660 73041
L112587 73066
L112465 73066
" />
</g>
<g style="fill:#000000; fill-opacity:0.0; 
stroke:#000000; stroke-width:39.3701; stroke-opacity:1; 
stroke-linecap:round; stroke-linejoin:round;">
</g>
<g style="fill:#000000; fill-opacity:0.0; 
stroke:#000000; stroke-width:59.0551; stroke-opacity:1; 
stroke-linecap:round; stroke-linejoin:round;">
<path d="M78911 76293
L78911 75703
L79051 75703
L79136 75731
L79192 75787
L79220 75843
L79248 75956
L79248 76040
L79220 76153
L79192 76209
L79136 76265
L79051 76293
L78911 76293
" />
<path d="M79754 76293
L79754 75984
L79726 75928
L79670 75899
L79557 75899
L79501 75928
" />
<path d="M79754 76265
L79698 76293
L79557 76293
L79501 76265
L79473 76209
L79473 76153
L79501 76096
L79557 76068
L79698 76068
L79754 76040
" />
<path d="M79951 75899
L80176 75899
" />
<path d="M80036 75703
L80036 76209
L80064 76265
L80120 76293
L80176 76293
" />
<path d="M80598 76265
L80542 76293
L80429 76293
L80373 76265
L80345 76209
L80345 75984
L80373 75928
L80429 75899
L80542 75899
L80598 75928
L80626 75984
L80626 76040
L80345 76096
" />
<path d="M80879 76237
L80907 76265
L80879 76293
L80851 76265
L80879 76237
L80879 76293
" />
<path d="M80879 75928
L80907 75956
L80879 75984
L80851 75956
L80879 75928
L80879 75984
" />
</g>
<g style="fill:#000000; fill-opacity:0.0; 
stroke:#000000; stroke-width:39.3701; stroke-opacity:1; 
stroke-linecap:round; stroke-linejoin:round;">
</g>
<g style="fill:#000000; fill-opacity:0.0; 
stroke:#000000; stroke-width:59.0551; stroke-opacity:1; 
stroke-linecap:round; stroke-linejoin:round;">
<path d="M69685 76577
L112205 76577
" />
</g>
<g style="fill:#000000; fill-opacity:0.0; 
stroke:#000000; stroke-width:39.3701; stroke-opacity:1; 
stroke-linecap:round; stroke-linejoin:round;">
</g>
<g style="fill:#000000; fill-opacity:0.0; 
stroke:#000000; stroke-width:59.0551; stroke-opacity:1; 
stroke-linecap:round; stroke-linejoin:round;">
<path d="M70249 77395
L70249 76805
" />
<path d="M70587 77395
L70334 77058
" />
<path d="M70587 76805
L70249 77142
" />
<path d="M70840 77395
L70840 77002
" />
<path d="M70840 76805
L70812 76833
L70840 76861
L70868 76833
L70840 76805
L70840 76861
" />
<path d="M71458 77339
L71430 77367
L71346 77395
L71290 77395
L71205 77367
L71149 77311
L71121 77255
L71093 77142
L71093 77058
L71121 76946
L71149 76889
L71205 76833
L71290 76805
L71346 76805
L71430 76833
L71458 76861
" />
<path d="M71965 77395
L71965 77086
L71937 77030
L71880 77002
L71768 77002
L71712 77030
" />
<path d="M71965 77367
L71908 77395
L71768 77395
L71712 77367
L71683 77311
L71683 77255
L71712 77199
L71768 77171
L71908 77171
L71965 77142
" />
<path d="M72499 77395
L72499 76805
" />
<path d="M72499 77367
L72443 77395
L72330 77395
L72274 77367
L72246 77339
L72218 77283
L72218 77114
L72246 77058
L72274 77030
L72330 77002
L72443 77002
L72499 77030
" />
<path d="M73230 77086
L73427 77086
" />
<path d="M73511 77395
L73230 77395
L73230 76805
L73511 76805
" />
<path d="M73764 77339
L73793 77367
L73764 77395
L73736 77367
L73764 77339
L73764 77395
" />
<path d="M74046 77395
L74046 76805
L74186 76805
L74271 76833
L74327 76889
L74355 76946
L74383 77058
L74383 77142
L74355 77255
L74327 77311
L74271 77367
L74186 77395
L74046 77395
" />
<path d="M74636 77339
L74664 77367
L74636 77395
L74608 77367
L74636 77339
L74636 77395
" />
<path d="M74889 77227
L75171 77227
" />
<path d="M74833 77395
L75030 76805
L75227 77395
" />
<path d="M75424 77339
L75452 77367
L75424 77395
L75395 77367
L75424 77339
L75424 77395
" />
<path d="M76605 77395
L76605 76805
" />
<path d="M76661 77171
L76830 77395
" />
<path d="M76830 77002
L76605 77227
" />
<path d="M77083 77395
L77083 77002
" />
<path d="M77083 76805
L77055 76833
L77083 76861
L77111 76833
L77083 76805
L77083 76861
" />
<path d="M77617 77367
L77561 77395
L77448 77395
L77392 77367
L77364 77339
L77336 77283
L77336 77114
L77364 77058
L77392 77030
L77448 77002
L77561 77002
L77617 77030
" />
<path d="M78123 77395
L78123 77086
L78095 77030
L78039 77002
L77926 77002
L77870 77030
" />
<path d="M78123 77367
L78067 77395
L77926 77395
L77870 77367
L77842 77311
L77842 77255
L77870 77199
L77926 77171
L78067 77171
L78123 77142
" />
<path d="M78658 77395
L78658 76805
" />
<path d="M78658 77367
L78601 77395
L78489 77395
L78433 77367
L78404 77339
L78376 77283
L78376 77114
L78404 77058
L78433 77030
L78489 77002
L78601 77002
L78658 77030
" />
<path d="M79501 76805
L79557 76805
L79614 76833
L79642 76861
L79670 76917
L79698 77030
L79698 77171
L79670 77283
L79642 77339
L79614 77367
L79557 77395
L79501 77395
L79445 77367
L79417 77339
L79389 77283
L79361 77171
L79361 77030
L79389 76917
L79417 76861
L79445 76833
L79501 76805
" />
<path d="M79951 77339
L79979 77367
L79951 77395
L79923 77367
L79951 77339
L79951 77395
" />
<path d="M80204 76861
L80232 76833
L80289 76805
L80429 76805
L80485 76833
L80514 76861
L80542 76917
L80542 76974
L80514 77058
L80176 77395
L80542 77395
" />
<path d="M80907 76805
L80964 76805
L81020 76833
L81048 76861
L81076 76917
L81104 77030
L81104 77171
L81076 77283
L81048 77339
L81020 77367
L80964 77395
L80907 77395
L80851 77367
L80823 77339
L80795 77283
L80767 77171
L80767 77030
L80795 76917
L80823 76861
L80851 76833
L80907 76805
" />
<path d="M81667 77395
L81329 77395
" />
<path d="M81498 77395
L81498 76805
L81442 76889
L81385 76946
L81329 76974
" />
<path d="M82173 76805
L82060 76805
L82004 76833
L81976 76861
L81920 76946
L81892 77058
L81892 77283
L81920 77339
L81948 77367
L82004 77395
L82117 77395
L82173 77367
L82201 77339
L82229 77283
L82229 77142
L82201 77086
L82173 77058
L82117 77030
L82004 77030
L81948 77058
L81920 77086
L81892 77142
" />
<path d="M82595 76805
L82651 76805
L82707 76833
L82735 76861
L82763 76917
L82791 77030
L82791 77171
L82763 77283
L82735 77339
L82707 77367
L82651 77395
L82595 77395
L82538 77367
L82510 77339
L82482 77283
L82454 77171
L82454 77030
L82482 76917
L82510 76861
L82538 76833
L82595 76805
" />
<path d="M83298 77002
L83298 77395
" />
<path d="M83157 76777
L83016 77199
L83382 77199
" />
<path d="M83579 76861
L83607 76833
L83663 76805
L83804 76805
L83860 76833
L83888 76861
L83916 76917
L83916 76974
L83888 77058
L83551 77395
L83916 77395
" />
<path d="M84113 76805
L84479 76805
L84282 77030
L84366 77030
L84422 77058
L84451 77086
L84479 77142
L84479 77283
L84451 77339
L84422 77367
L84366 77395
L84197 77395
L84141 77367
L84113 77339
" />
<path d="M84704 76861
L84732 76833
L84788 76805
L84929 76805
L84985 76833
L85013 76861
L85041 76917
L85041 76974
L85013 77058
L84676 77395
L85041 77395
" />
<path d="M85407 76805
L85463 76805
L85519 76833
L85547 76861
L85575 76917
L85604 77030
L85604 77171
L85575 77283
L85547 77339
L85519 77367
L85463 77395
L85407 77395
L85350 77367
L85322 77339
L85294 77283
L85266 77171
L85266 77030
L85294 76917
L85322 76861
L85350 76833
L85407 76805
" />
<path d="M85800 76805
L86166 76805
L85969 77030
L86054 77030
L86110 77058
L86138 77086
L86166 77142
L86166 77283
L86138 77339
L86110 77367
L86054 77395
L85885 77395
L85829 77367
L85800 77339
" />
<path d="M86728 77395
L86391 77395
" />
<path d="M86560 77395
L86560 76805
L86503 76889
L86447 76946
L86391 76974
" />
<path d="M86982 77171
L87431 77171
" />
<path d="M87206 77395
L87206 76946
" />
<path d="M87966 76805
L87853 76805
L87797 76833
L87769 76861
L87713 76946
L87685 77058
L87685 77283
L87713 77339
L87741 77367
L87797 77395
L87910 77395
L87966 77367
L87994 77339
L88022 77283
L88022 77142
L87994 77086
L87966 77058
L87910 77030
L87797 77030
L87741 77058
L87713 77086
L87685 77142
" />
<path d="M88219 76805
L88613 76805
L88359 77395
" />
<path d="M89147 77395
L88809 77395
" />
<path d="M88978 77395
L88978 76805
L88922 76889
L88866 76946
L88809 76974
" />
<path d="M89512 76805
L89569 76805
L89625 76833
L89653 76861
L89681 76917
L89709 77030
L89709 77171
L89681 77283
L89653 77339
L89625 77367
L89569 77395
L89512 77395
L89456 77367
L89428 77339
L89400 77283
L89372 77171
L89372 77030
L89400 76917
L89428 76861
L89456 76833
L89512 76805
" />
<path d="M89919 76644
L90384 76644
" />
<path d="M90215 77002
L90215 77395
" />
<path d="M90075 76777
L89934 77199
L90300 77199
" />
<path d="M90384 76644
L90947 76644
" />
<path d="M90778 77002
L90778 77395
" />
<path d="M90637 76777
L90497 77199
L90862 77199
" />
<path d="M91340 77002
L91340 77395
" />
<path d="M91087 77002
L91087 77311
L91115 77367
L91172 77395
L91256 77395
L91312 77367
L91340 77339
" />
<path d="M91622 77395
L91622 76805
" />
<path d="M91622 77030
L91678 77002
L91790 77002
L91847 77030
L91875 77058
L91903 77114
L91903 77283
L91875 77339
L91847 77367
L91790 77395
L91678 77395
L91622 77367
" />
<path d="M92409 77002
L92409 77395
" />
<path d="M92156 77002
L92156 77311
L92184 77367
L92240 77395
L92325 77395
L92381 77367
L92409 77339
" />
<path d="M92690 77002
L92690 77395
" />
<path d="M92690 77058
L92718 77030
L92775 77002
L92859 77002
L92915 77030
L92943 77086
L92943 77395
" />
<path d="M93140 77002
L93365 77002
" />
<path d="M93224 76805
L93224 77311
L93253 77367
L93309 77395
L93365 77395
" />
<path d="M93815 77002
L93815 77395
" />
<path d="M93562 77002
L93562 77311
L93590 77367
L93646 77395
L93731 77395
L93787 77367
L93815 77339
" />
<path d="M94406 77395
L94068 77395
" />
<path d="M94237 77395
L94237 76805
L94181 76889
L94124 76946
L94068 76974
" />
<path d="M94912 77002
L94912 77395
" />
<path d="M94771 76777
L94631 77199
L94996 77199
" />
<path d="M95221 77339
L95249 77367
L95221 77395
L95193 77367
L95221 77339
L95221 77395
" />
<path d="M95615 76805
L95671 76805
L95727 76833
L95755 76861
L95784 76917
L95812 77030
L95812 77171
L95784 77283
L95755 77339
L95727 77367
L95671 77395
L95615 77395
L95559 77367
L95530 77339
L95502 77283
L95474 77171
L95474 77030
L95502 76917
L95530 76861
L95559 76833
L95615 76805
" />
<path d="M96318 77002
L96318 77395
" />
<path d="M96177 76777
L96037 77199
L96402 77199
" />
<path d="M96627 77339
L96655 77367
L96627 77395
L96599 77367
L96627 77339
L96627 77395
" />
<path d="M97218 77395
L96880 77395
" />
<path d="M97049 77395
L97049 76805
L96993 76889
L96937 76946
L96880 76974
" />
<path d="M97471 77171
L97921 77171
" />
<path d="M98202 77002
L98202 77592
" />
<path d="M98202 77030
L98258 77002
L98371 77002
L98427 77030
L98455 77058
L98483 77114
L98483 77283
L98455 77339
L98427 77367
L98371 77395
L98258 77395
L98202 77367
" />
<path d="M98736 77395
L98736 77002
" />
<path d="M98736 77114
L98764 77058
L98793 77030
L98849 77002
L98905 77002
" />
<path d="M99186 77395
L99130 77367
L99102 77339
L99074 77283
L99074 77114
L99102 77058
L99130 77030
L99186 77002
L99271 77002
L99327 77030
L99355 77058
L99383 77114
L99383 77283
L99355 77339
L99327 77367
L99271 77395
L99186 77395
" />
<path d="M99889 77395
L99889 76805
" />
<path d="M99889 77367
L99833 77395
L99721 77395
L99664 77367
L99636 77339
L99608 77283
L99608 77114
L99636 77058
L99664 77030
L99721 77002
L99833 77002
L99889 77030
" />
<path d="M100424 77002
L100424 77395
" />
<path d="M100171 77002
L100171 77311
L100199 77367
L100255 77395
L100339 77395
L100395 77367
L100424 77339
" />
<path d="M100958 77367
L100902 77395
L100789 77395
L100733 77367
L100705 77339
L100677 77283
L100677 77114
L100705 77058
L100733 77030
L100789 77002
L100902 77002
L100958 77030
" />
<path d="M101127 77002
L101352 77002
" />
<path d="M101211 76805
L101211 77311
L101239 77367
L101295 77395
L101352 77395
" />
</g>
<g style="fill:#000000; fill-opacity:0.0; 
stroke:#000000; stroke-width:39.3701; stroke-opacity:1; 
stroke-linecap:round; stroke-linejoin:round;">
</g>
<g style="fill:#000000; fill-opacity:0.0; 
stroke:#000000; stroke-width:59.0551; stroke-opacity:1; 
stroke-linecap:round; stroke-linejoin:round;">
<path d="M69685 75396
L112205 75396
" />
</g>
<g style="fill:#000000; fill-opacity:0.0; 
stroke:#000000; stroke-width:39.3701; stroke-opacity:1; 
stroke-linecap:round; stroke-linejoin:round;">
</g>
<g style="fill:#000000; fill-opacity:0.0; 
stroke:#000000; stroke-width:118.11; stroke-opacity:1; 
stroke-linecap:round; stroke-linejoin:round;">
<path d="M104099 76293
L103902 76012
" />
<path d="M103761 76293
L103761 75703
L103986 75703
L104042 75731
L104070 75759
L104099 75815
L104099 75899
L104070 75956
L104042 75984
L103986 76012
L103761 76012
" />
<path d="M104577 76265
L104520 76293
L104408 76293
L104352 76265
L104323 76209
L104323 75984
L104352 75928
L104408 75899
L104520 75899
L104577 75928
L104605 75984
L104605 76040
L104323 76096
" />
<path d="M104802 75899
L104942 76293
L105083 75899
" />
<path d="M105308 76237
L105336 76265
L105308 76293
L105280 76265
L105308 76237
L105308 76293
" />
<path d="M105308 75928
L105336 75956
L105308 75984
L105280 75956
L105308 75928
L105308 75984
" />
</g>
<g style="fill:#000000; fill-opacity:0.0; 
stroke:#000000; stroke-width:39.3701; stroke-opacity:1; 
stroke-linecap:round; stroke-linejoin:round;">
</g>
<g style="fill:#000000; fill-opacity:0.0; 
stroke:#000000; stroke-width:59.0551; stroke-opacity:1; 
stroke-linecap:round; stroke-linejoin:round;">
<path d="M70221 76265
L70305 76293
L70446 76293
L70502 76265
L70530 76237
L70559 76181
L70559 76124
L70530 76068
L70502 76040
L70446 76012
L70334 75984
L70277 75956
L70249 75928
L70221 75871
L70221 75815
L70249 75759
L70277 75731
L70334 75703
L70474 75703
L70559 75731
" />
<path d="M70812 76293
L70812 75899
" />
<path d="M70812 75703
L70784 75731
L70812 75759
L70840 75731
L70812 75703
L70812 75759
" />
<path d="M71037 75899
L71346 75899
L71037 76293
L71346 76293
" />
<path d="M71796 76265
L71740 76293
L71627 76293
L71571 76265
L71543 76209
L71543 75984
L71571 75928
L71627 75899
L71740 75899
L71796 75928
L71824 75984
L71824 76040
L71543 76096
" />
<path d="M72077 76237
L72105 76265
L72077 76293
L72049 76265
L72077 76237
L72077 76293
" />
<path d="M72077 75928
L72105 75956
L72077 75984
L72049 75956
L72077 75928
L72077 75984
" />
<path d="M72780 76124
L73061 76124
" />
<path d="M72724 76293
L72921 75703
L73118 76293
" />
<path d="M73568 75899
L73568 76293
" />
<path d="M73427 75674
L73286 76096
L73652 76096
" />
</g>
<g style="fill:#000000; fill-opacity:0.0; 
stroke:#000000; stroke-width:39.3701; stroke-opacity:1; 
stroke-linecap:round; stroke-linejoin:round;">
</g>
<g style="fill:#000000; fill-opacity:0.0; 
stroke:#000000; stroke-width:59.0551; stroke-opacity:1; 
stroke-linecap:round; stroke-linejoin:round;">
<path d="M103714 77395
L103714 76805
" />
<path d="M104248 77395
L104248 76805
" />
<path d="M104248 77367
L104192 77395
L104079 77395
L104023 77367
L103995 77339
L103967 77283
L103967 77114
L103995 77058
L104023 77030
L104079 77002
L104192 77002
L104248 77030
" />
<path d="M104529 77339
L104557 77367
L104529 77395
L104501 77367
L104529 77339
L104529 77395
" />
<path d="M104529 77030
L104557 77058
L104529 77086
L104501 77058
L104529 77030
L104529 77086
" />
<path d="M105570 77395
L105232 77395
" />
<path d="M105401 77395
L105401 76805
L105345 76889
L105289 76946
L105232 76974
" />
<path d="M106245 76777
L105739 77536
" />
<path d="M106751 77395
L106413 77395
" />
<path d="M106582 77395
L106582 76805
L106526 76889
L106470 76946
L106413 76974
" />
</g>
<g style="fill:#000000; fill-opacity:0.0; 
stroke:#000000; stroke-width:39.3701; stroke-opacity:1; 
stroke-linecap:round; stroke-linejoin:round;">
</g>
<g style="fill:#000000; fill-opacity:0.0; 
stroke:#000000; stroke-width:59.0551; stroke-opacity:1; 
stroke-linecap:round; stroke-linejoin:round;">
<path d="M69685 73821
L112205 73821
" />
</g>
<g style="fill:#000000; fill-opacity:0.0; 
stroke:#000000; stroke-width:39.3701; stroke-opacity:1; 
stroke-linecap:round; stroke-linejoin:round;">
</g>
<g style="fill:#000000; fill-opacity:0.0; 
stroke:#000000; stroke-width:157.48; stroke-opacity:1; 
stroke-linecap:round; stroke-linejoin:round;">
<path d="M70360 74099
L70810 74099
" />
<path d="M70486 74886
L70585 74099
" />
<path d="M70974 74886
L71039 74361
" />
<path d="M71072 74099
L71030 74136
L71063 74174
L71105 74136
L71072 74099
L71063 74174
" />
<path d="M71302 74361
L71602 74361
" />
<path d="M71447 74099
L71363 74774
L71391 74849
L71461 74886
L71536 74886
" />
<path d="M71911 74886
L71841 74849
L71813 74774
L71897 74099
" />
<path d="M72516 74849
L72436 74886
L72286 74886
L72216 74849
L72187 74774
L72225 74474
L72272 74399
L72352 74361
L72501 74361
L72572 74399
L72600 74474
L72591 74549
L72206 74624
" />
<path d="M72895 74811
L72928 74849
L72886 74886
L72853 74849
L72895 74811
L72886 74886
" />
<path d="M72947 74399
L72980 74436
L72937 74474
L72905 74436
L72947 74399
L72937 74474
" />
</g>
<g style="fill:#000000; fill-opacity:0.0; 
stroke:#000000; stroke-width:39.3701; stroke-opacity:1; 
stroke-linecap:round; stroke-linejoin:round;">
</g>
<g style="fill:#000000; fill-opacity:0.0; 
stroke:#000000; stroke-width:59.0551; stroke-opacity:1; 
stroke-linecap:round; stroke-linejoin:round;">
<path d="M70446 73070
L70249 73070
" />
<path d="M70249 73380
L70249 72789
L70530 72789
" />
<path d="M70755 73380
L70755 72986
" />
<path d="M70755 72789
L70727 72817
L70755 72845
L70784 72817
L70755 72789
L70755 72845
" />
<path d="M71121 73380
L71065 73352
L71037 73295
L71037 72789
" />
<path d="M71571 73352
L71515 73380
L71402 73380
L71346 73352
L71318 73295
L71318 73070
L71346 73014
L71402 72986
L71515 72986
L71571 73014
L71599 73070
L71599 73127
L71318 73183
" />
<path d="M71852 73323
L71880 73352
L71852 73380
L71824 73352
L71852 73323
L71852 73380
" />
<path d="M71852 73014
L71880 73042
L71852 73070
L71824 73042
L71852 73014
L71852 73070
" />
<path d="M72696 72789
L72808 72789
L72865 72817
L72921 72874
L72949 72986
L72949 73183
L72921 73295
L72865 73352
L72808 73380
L72696 73380
L72640 73352
L72583 73295
L72555 73183
L72555 72986
L72583 72874
L72640 72817
L72696 72789
" />
<path d="M73202 72986
L73202 73577
" />
<path d="M73202 73014
L73258 72986
L73371 72986
L73427 73014
L73455 73042
L73483 73099
L73483 73267
L73455 73323
L73427 73352
L73371 73380
L73258 73380
L73202 73352
" />
<path d="M73961 73352
L73905 73380
L73793 73380
L73736 73352
L73708 73295
L73708 73070
L73736 73014
L73793 72986
L73905 72986
L73961 73014
L73989 73070
L73989 73127
L73708 73183
" />
<path d="M74242 72986
L74242 73380
" />
<path d="M74242 73042
L74271 73014
L74327 72986
L74411 72986
L74467 73014
L74496 73070
L74496 73380
" />
<path d="M74777 73380
L74777 72789
L74917 72789
L75002 72817
L75058 72874
L75086 72930
L75114 73042
L75114 73127
L75086 73239
L75058 73295
L75002 73352
L74917 73380
L74777 73380
" />
<path d="M75367 73380
L75367 72986
" />
<path d="M75367 73099
L75395 73042
L75424 73014
L75480 72986
L75536 72986
" />
<path d="M75817 73380
L75761 73352
L75733 73323
L75705 73267
L75705 73099
L75733 73042
L75761 73014
L75817 72986
L75902 72986
L75958 73014
L75986 73042
L76014 73099
L76014 73267
L75986 73323
L75958 73352
L75902 73380
L75817 73380
" />
<path d="M76267 72986
L76267 73577
" />
<path d="M76267 73014
L76323 72986
L76436 72986
L76492 73014
L76520 73042
L76548 73099
L76548 73267
L76520 73323
L76492 73352
L76436 73380
L76323 73380
L76267 73352
" />
<path d="M76717 72789
L76914 73380
L77111 72789
" />
<path d="M77280 72845
L77308 72817
L77364 72789
L77505 72789
L77561 72817
L77589 72845
L77617 72902
L77617 72958
L77589 73042
L77251 73380
L77617 73380
" />
<path d="M77870 73323
L77898 73352
L77870 73380
L77842 73352
L77870 73323
L77870 73380
" />
<path d="M78151 73380
L78151 72789
" />
<path d="M78208 73155
L78376 73380
" />
<path d="M78376 72986
L78151 73211
" />
<path d="M78629 73380
L78629 72986
" />
<path d="M78629 72789
L78601 72817
L78629 72845
L78658 72817
L78629 72789
L78629 72845
" />
<path d="M79164 73352
L79108 73380
L78995 73380
L78939 73352
L78911 73323
L78883 73267
L78883 73099
L78911 73042
L78939 73014
L78995 72986
L79108 72986
L79164 73014
" />
<path d="M79670 73380
L79670 73070
L79642 73014
L79586 72986
L79473 72986
L79417 73014
" />
<path d="M79670 73352
L79614 73380
L79473 73380
L79417 73352
L79389 73295
L79389 73239
L79417 73183
L79473 73155
L79614 73155
L79670 73127
" />
<path d="M80204 73380
L80204 72789
" />
<path d="M80204 73352
L80148 73380
L80036 73380
L79979 73352
L79951 73323
L79923 73267
L79923 73099
L79951 73042
L79979 73014
L80036 72986
L80148 72986
L80204 73014
" />
<path d="M80345 73436
L80795 73436
" />
<path d="M80935 72986
L80935 73577
" />
<path d="M80935 73014
L80992 72986
L81104 72986
L81160 73014
L81188 73042
L81217 73099
L81217 73267
L81188 73323
L81160 73352
L81104 73380
L80992 73380
L80935 73352
" />
<path d="M81723 73352
L81667 73380
L81554 73380
L81498 73352
L81470 73323
L81442 73267
L81442 73099
L81470 73042
L81498 73014
L81554 72986
L81667 72986
L81723 73014
" />
<path d="M81976 73380
L81976 72789
" />
<path d="M81976 73014
L82032 72986
L82145 72986
L82201 73014
L82229 73042
L82257 73099
L82257 73267
L82229 73323
L82201 73352
L82145 73380
L82032 73380
L81976 73352
" />
</g>
<g style="fill:#000000; fill-opacity:0.0; 
stroke:#000000; stroke-width:39.3701; stroke-opacity:1; 
stroke-linecap:round; stroke-linejoin:round;">
</g>
<g style="fill:#000000; fill-opacity:0.0; 
stroke:#000000; stroke-width:59.0551; stroke-opacity:1; 
stroke-linecap:round; stroke-linejoin:round;">
<path d="M69685 71459
L112205 71459
" />
</g>
<g style="fill:#000000; fill-opacity:0.0; 
stroke:#000000; stroke-width:39.3701; stroke-opacity:1; 
stroke-linecap:round; stroke-linejoin:round;">
</g>
<g style="fill:#000000; fill-opacity:0.0; 
stroke:#000000; stroke-width:59.0551; stroke-opacity:1; 
stroke-linecap:round; stroke-linejoin:round;">
<path d="M70221 72289
L70305 72317
L70446 72317
L70502 72289
L70530 72260
L70559 72204
L70559 72148
L70530 72092
L70502 72064
L70446 72036
L70334 72007
L70277 71979
L70249 71951
L70221 71895
L70221 71839
L70249 71782
L70277 71754
L70334 71726
L70474 71726
L70559 71754
" />
<path d="M70812 72317
L70812 71726
" />
<path d="M71065 72317
L71065 72007
L71037 71951
L70980 71923
L70896 71923
L70840 71951
L70812 71979
" />
<path d="M71571 72289
L71515 72317
L71402 72317
L71346 72289
L71318 72232
L71318 72007
L71346 71951
L71402 71923
L71515 71923
L71571 71951
L71599 72007
L71599 72064
L71318 72120
" />
<path d="M72077 72289
L72021 72317
L71908 72317
L71852 72289
L71824 72232
L71824 72007
L71852 71951
L71908 71923
L72021 71923
L72077 71951
L72105 72007
L72105 72064
L71824 72120
" />
<path d="M72274 71923
L72499 71923
" />
<path d="M72358 71726
L72358 72232
L72386 72289
L72443 72317
L72499 72317
" />
<path d="M72696 72260
L72724 72289
L72696 72317
L72668 72289
L72696 72260
L72696 72317
" />
<path d="M72696 71951
L72724 71979
L72696 72007
L72668 71979
L72696 71951
L72696 72007
" />
</g>
<g style="fill:#000000; fill-opacity:0.0; 
stroke:#000000; stroke-width:39.3701; stroke-opacity:1; 
stroke-linecap:round; stroke-linejoin:round;">
</g>
<g style="fill:#000000; fill-opacity:0.0; 
stroke:#000000; stroke-width:59.0551; stroke-opacity:1; 
stroke-linecap:round; stroke-linejoin:round;">
<path d="M77559 75396
L77559 76577
" />
</g>
<g style="fill:#000000; fill-opacity:0.0; 
stroke:#000000; stroke-width:39.3701; stroke-opacity:1; 
stroke-linecap:round; stroke-linejoin:round;">
</g>
<g style="fill:#000000; fill-opacity:0.0; 
stroke:#000000; stroke-width:59.0551; stroke-opacity:1; 
stroke-linecap:round; stroke-linejoin:round;">
<path d="M102756 75396
L102756 77955
" />
</g>
<g style="fill:#000000; fill-opacity:0.0; 
stroke:#000000; stroke-width:39.3701; stroke-opacity:1; 
stroke-linecap:round; stroke-linejoin:round;">
<path d="M20988 53510
L19681 53144
" />
<path d="M22256 53833
L20988 53510
" />
<path d="M24296 54305
L22256 53833
" />
<path d="M26626 54770
L24296 54305
" />
<path d="M28697 55116
L26626 54770
" />
<path d="M30784 55400
L28697 55116
" />
<path d="M32894 55620
L30784 55400
" />
<path d="M34937 55781
L32894 55620
" />
<path d="M36567 55864
L34937 55781
" />
<path d="M38819 55907
L36567 55864
" />
<path d="M40386 55907
L38819 55907
" />
<path d="M41815 55872
L40386 55907
" />
<path d="M43882 55770
L41815 55872
" />
<path d="M45607 55644
L43882 55770
" />
<path d="M47622 55431
L45607 55644
" />
<path d="M49197 55234
L47622 55431
" />
<path d="M51193 54927
L49197 55234
" />
<path d="M53288 54541
L51193 54927
" />
<path d="M54823 54218
L53288 54541
" />
<path d="M56284 53880
L54823 54218
" />
<path d="M57953 53451
L56284 53880
" />
<path d="M59051 53144
L57953 53451
" />
<path d="M59055.1 18110.2 A1574.8 1574.8 0.0 0 0 57480.3 16535.4 " />
<path d="M21259.8 16535.4 A1574.8 1574.8 0.0 0 0 19685 18110.2 " />
<path d="M59055 18503
L59055 25984
" />
<path d="M19685 18110
L19685 53149
" />
<path d="M59055 18110
L59055 53149
" />
<path d="M21259 16535
L57480 16535
" />
</g>
<g style="fill:#000000; fill-opacity:0.0; 
stroke:#000000; stroke-width:0; stroke-opacity:1; 
stroke-linecap:round; stroke-linejoin:round;">
</g>
<g style="fill:#000000; fill-opacity:1.0; 
stroke:#000000; stroke-width:0; stroke-opacity:1; 
stroke-linecap:round; stroke-linejoin:round;">
<polyline style="fill-rule:evenodd;"
points="37086,52726
37086,52135
37637,52135
37637,52726
37086,52726
" /> 
<polyline style="fill-rule:evenodd;"
points="41102,52726
41102,52135
41653,52135
41653,52726
41102,52726
" /> 
<polyline style="fill-rule:evenodd;"
points="37086,55285
37086,54694
37637,54694
37637,55285
37086,55285
" /> 
<polyline style="fill-rule:evenodd;"
points="41102,55285
41102,54694
41653,54694
41653,55285
41102,55285
" /> 
<polyline style="fill-rule:evenodd;"
points="37086,54143
37086,53631
37637,53631
37637,54143
37086,54143
" /> 
<polyline style="fill-rule:evenodd;"
points="41102,54143
41102,53631
41653,53631
41653,54143
41102,54143
" /> 
<polyline style="fill-rule:evenodd;"
points="54665,21702
54665,21210
54783,21210
54783,21702
54665,21702
" /> 
<polyline style="fill-rule:evenodd;"
points="53877,21702
53877,21210
53996,21210
53996,21702
53877,21702
" /> 
<polyline style="fill-rule:evenodd;"
points="54074,21702
54074,21210
54192,21210
54192,21702
54074,21702
" /> 
<polyline style="fill-rule:evenodd;"
points="54468,21702
54468,21210
54586,21210
54586,21702
54468,21702
" /> 
<polyline style="fill-rule:evenodd;"
points="54271,21702
54271,21210
54389,21210
54389,21702
54271,21702
" /> 
<polyline style="fill-rule:evenodd;"
points="53484,21702
53484,21210
53602,21210
53602,21702
53484,21702
" /> 
<polyline style="fill-rule:evenodd;"
points="53681,21702
53681,21210
53799,21210
53799,21702
53681,21702
" /> 
<polyline style="fill-rule:evenodd;"
points="53287,21702
53287,21210
53405,21210
53405,21702
53287,21702
" /> 
<polyline style="fill-rule:evenodd;"
points="53090,21702
53090,21210
53208,21210
53208,21702
53090,21702
" /> 
<polyline style="fill-rule:evenodd;"
points="51909,21702
51909,21210
52027,21210
52027,21702
51909,21702
" /> 
<polyline style="fill-rule:evenodd;"
points="52106,21702
52106,21210
52224,21210
52224,21702
52106,21702
" /> 
<polyline style="fill-rule:evenodd;"
points="52500,21702
52500,21210
52618,21210
52618,21702
52500,21702
" /> 
<polyline style="fill-rule:evenodd;"
points="52303,21702
52303,21210
52421,21210
52421,21702
52303,21702
" /> 
<polyline style="fill-rule:evenodd;"
points="52893,21702
52893,21210
53011,21210
53011,21702
52893,21702
" /> 
<polyline style="fill-rule:evenodd;"
points="52696,21702
52696,21210
52814,21210
52814,21702
52696,21702
" /> 
<polyline style="fill-rule:evenodd;"
points="49744,21702
49744,21210
49862,21210
49862,21702
49744,21702
" /> 
<polyline style="fill-rule:evenodd;"
points="49940,21702
49940,21210
50059,21210
50059,21702
49940,21702
" /> 
<polyline style="fill-rule:evenodd;"
points="49350,21702
49350,21210
49468,21210
49468,21702
49350,21702
" /> 
<polyline style="fill-rule:evenodd;"
points="49547,21702
49547,21210
49665,21210
49665,21702
49547,21702
" /> 
<polyline style="fill-rule:evenodd;"
points="49153,21702
49153,21210
49271,21210
49271,21702
49153,21702
" /> 
<polyline style="fill-rule:evenodd;"
points="48956,21702
48956,21210
49074,21210
49074,21702
48956,21702
" /> 
<polyline style="fill-rule:evenodd;"
points="50137,21702
50137,21210
50255,21210
50255,21702
50137,21702
" /> 
<polyline style="fill-rule:evenodd;"
points="50334,21702
50334,21210
50452,21210
50452,21702
50334,21702
" /> 
<polyline style="fill-rule:evenodd;"
points="50728,21702
50728,21210
50846,21210
50846,21702
50728,21702
" /> 
<polyline style="fill-rule:evenodd;"
points="50531,21702
50531,21210
50649,21210
50649,21702
50531,21702
" /> 
<polyline style="fill-rule:evenodd;"
points="51318,21702
51318,21210
51437,21210
51437,21702
51318,21702
" /> 
<polyline style="fill-rule:evenodd;"
points="51515,21702
51515,21210
51633,21210
51633,21702
51515,21702
" /> 
<polyline style="fill-rule:evenodd;"
points="51122,21702
51122,21210
51240,21210
51240,21702
51122,21702
" /> 
<polyline style="fill-rule:evenodd;"
points="50925,21702
50925,21210
51043,21210
51043,21702
50925,21702
" /> 
<polyline style="fill-rule:evenodd;"
points="48015,22962
48015,21781
48803,21781
48803,22962
48015,22962
" /> 
<polyline style="fill-rule:evenodd;"
points="54937,22962
54937,21781
55724,21781
55724,22962
54937,22962
" /> 
<polyline style="fill-rule:evenodd;"
points="51712,21702
51712,21210
51830,21210
51830,21702
51712,21702
" /> 
<polyline style="fill-rule:evenodd;"
points="42972,52047
42972,51732
43248,51732
43248,52047
42972,52047
" /> 
<polyline style="fill-rule:evenodd;"
points="44153,52047
44153,51732
44429,51732
44429,52047
44153,52047
" /> 
<polyline style="fill-rule:evenodd;"
points="34311,52047
34311,51732
34586,51732
34586,52047
34311,52047
" /> 
<polyline style="fill-rule:evenodd;"
points="35492,52026
35492,51711
35767,51711
35767,52026
35492,52026
" /> 
<polyline style="fill-rule:evenodd;"
points="35767,26299
35767,26614
35492,26614
35492,26299
35767,26299
" /> 
<polyline style="fill-rule:evenodd;"
points="34586,26299
34586,26614
34311,26614
34311,26299
34586,26299
" /> 
<polyline style="fill-rule:evenodd;"
points="44429,26299
44429,26614
44153,26614
44153,26299
44429,26299
" /> 
<polyline style="fill-rule:evenodd;"
points="43248,26299
43248,26614
42972,26614
42972,26299
43248,26299
" /> 
<polyline style="fill-rule:evenodd;"
points="57723,26206
57723,25615
58314,25615
58314,26206
57723,26206
" /> 
<polyline style="fill-rule:evenodd;"
points="45234,23914
45706,23914
45706,24386
45234,24386
45234,23914
" /> 
<polyline style="fill-rule:evenodd;"
points="45234,24740
45706,24740
45706,25212
45234,25212
45234,24740
" /> 
<polyline style="fill-rule:evenodd;"
points="45234,22214
45706,22214
45706,22686
45234,22686
45234,22214
" /> 
<polyline style="fill-rule:evenodd;"
points="45234,23040
45706,23040
45706,23512
45234,23512
45234,23040
" /> 
<polyline style="fill-rule:evenodd;"
points="44138,22051
44138,20476
44925,20476
44925,22051
44138,22051
" /> 
<polyline style="fill-rule:evenodd;"
points="39414,22051
39414,20476
40201,20476
40201,22051
39414,22051
" /> 
<polyline style="fill-rule:evenodd;"
points="47805,24616
47805,23986
47942,23986
47942,24616
47805,24616
" /> 
<polyline style="fill-rule:evenodd;"
points="48080,24616
48080,23986
48218,23986
48218,24616
48080,24616
" /> 
<polyline style="fill-rule:evenodd;"
points="48356,24616
48356,23986
48494,23986
48494,24616
48356,24616
" /> 
<polyline style="fill-rule:evenodd;"
points="48631,24616
48631,23986
48769,23986
48769,24616
48631,24616
" /> 
<polyline style="fill-rule:evenodd;"
points="48907,24616
48907,23986
49045,23986
49045,24616
48907,24616
" /> 
<polyline style="fill-rule:evenodd;"
points="49183,24616
49183,23986
49320,23986
49320,24616
49183,24616
" /> 
<polyline style="fill-rule:evenodd;"
points="49458,24616
49458,23986
49596,23986
49596,24616
49458,24616
" /> 
<polyline style="fill-rule:evenodd;"
points="49734,24616
49734,23986
49872,23986
49872,24616
49734,24616
" /> 
<polyline style="fill-rule:evenodd;"
points="50009,24616
50009,23986
50147,23986
50147,24616
50009,24616
" /> 
<polyline style="fill-rule:evenodd;"
points="50285,24616
50285,23986
50423,23986
50423,24616
50285,24616
" /> 
<polyline style="fill-rule:evenodd;"
points="50561,24616
50561,23986
50698,23986
50698,24616
50561,24616
" /> 
<polyline style="fill-rule:evenodd;"
points="50836,24616
50836,23986
50974,23986
50974,24616
50836,24616
" /> 
<polyline style="fill-rule:evenodd;"
points="51112,24616
51112,23986
51250,23986
51250,24616
51112,24616
" /> 
<polyline style="fill-rule:evenodd;"
points="51387,24616
51387,23986
51525,23986
51525,24616
51387,24616
" /> 
<polyline style="fill-rule:evenodd;"
points="51663,24616
51663,23986
51801,23986
51801,24616
51663,24616
" /> 
<polyline style="fill-rule:evenodd;"
points="55797,24616
55797,23986
55935,23986
55935,24616
55797,24616
" /> 
<polyline style="fill-rule:evenodd;"
points="55521,24616
55521,23986
55659,23986
55659,24616
55521,24616
" /> 
<polyline style="fill-rule:evenodd;"
points="55246,24616
55246,23986
55383,23986
55383,24616
55246,24616
" /> 
<polyline style="fill-rule:evenodd;"
points="54970,24616
54970,23986
55108,23986
55108,24616
54970,24616
" /> 
<polyline style="fill-rule:evenodd;"
points="54694,24616
54694,23986
54832,23986
54832,24616
54694,24616
" /> 
<polyline style="fill-rule:evenodd;"
points="54419,24616
54419,23986
54557,23986
54557,24616
54419,24616
" /> 
<polyline style="fill-rule:evenodd;"
points="54143,24616
54143,23986
54281,23986
54281,24616
54143,24616
" /> 
<polyline style="fill-rule:evenodd;"
points="53868,24616
53868,23986
54005,23986
54005,24616
53868,24616
" /> 
<polyline style="fill-rule:evenodd;"
points="53592,24616
53592,23986
53730,23986
53730,24616
53592,24616
" /> 
<polyline style="fill-rule:evenodd;"
points="53316,24616
53316,23986
53454,23986
53454,24616
53316,24616
" /> 
<polyline style="fill-rule:evenodd;"
points="53041,24616
53041,23986
53179,23986
53179,24616
53041,24616
" /> 
<polyline style="fill-rule:evenodd;"
points="52765,24616
52765,23986
52903,23986
52903,24616
52765,24616
" /> 
<polyline style="fill-rule:evenodd;"
points="52490,24616
52490,23986
52627,23986
52627,24616
52490,24616
" /> 
<polyline style="fill-rule:evenodd;"
points="52214,24616
52214,23986
52352,23986
52352,24616
52214,24616
" /> 
<polyline style="fill-rule:evenodd;"
points="51938,24616
51938,23986
52076,23986
52076,24616
51938,24616
" /> 
<polyline style="fill-rule:evenodd;"
points="28366,53956
28366,54507
27539,54507
27539,53956
28366,53956
" /> 
<polyline style="fill-rule:evenodd;"
points="28366,52185
28366,52736
27539,52736
27539,52185
28366,52185
" /> 
<polyline style="fill-rule:evenodd;"
points="32303,53956
32303,54507
31476,54507
31476,53956
32303,53956
" /> 
<polyline style="fill-rule:evenodd;"
points="32303,52185
32303,52736
31476,52736
31476,52185
32303,52185
" /> 
<polyline style="fill-rule:evenodd;"
points="47263,53956
47263,54507
46437,54507
46437,53956
47263,53956
" /> 
<polyline style="fill-rule:evenodd;"
points="47263,52185
47263,52736
46437,52736
46437,52185
47263,52185
" /> 
<polyline style="fill-rule:evenodd;"
points="51200,53956
51200,54507
50374,54507
50374,53956
51200,53956
" /> 
<polyline style="fill-rule:evenodd;"
points="51200,52185
51200,52736
50374,52736
50374,52185
51200,52185
" /> 
<polyline style="fill-rule:evenodd;"
points="56623,26206
56623,25615
57214,25615
57214,26206
56623,26206
" /> 
</g> 
</svg>
