<?xml version="1.0" standalone="no"?>
 <!DOCTYPE svg PUBLIC "-//W3C//DTD SVG 1.1//EN" 
 "http://www.w3.org/Graphics/SVG/1.1/DTD/svg11.dtd"> 
<svg xmlns="http://www.w3.org/2000/svg" version="1.1" 
    width="29.7002cm" height="21.0007cm" viewBox="0 0 116930 82680 ">
<title>SVG Picture created as OpenDropV2-B.Fab.svg date 2015/12/01 14:20:11 </title>
  <desc>Picture generated by PCBNEW </desc>
<g style="fill:#000000; fill-opacity:1;stroke:#000000; stroke-opacity:1;
stroke-linecap:round; stroke-linejoin:round; "
 transform="translate(0 0) scale(1 1)">
</g>
<g style="fill:#000000; fill-opacity:0.0; 
stroke:#000000; stroke-width:-0.000393701; stroke-opacity:1; 
stroke-linecap:round; stroke-linejoin:round;">
</g>
<g style="fill:#000000; fill-opacity:0.0; 
stroke:#000000; stroke-width:39.3701; stroke-opacity:1; 
stroke-linecap:round; stroke-linejoin:round;">
</g>
<g style="fill:#000000; fill-opacity:0.0; 
stroke:#000000; stroke-width:59.0551; stroke-opacity:1; 
stroke-linecap:round; stroke-linejoin:round;">
<rect x="69685.9" y="65357.2" width="42519.7" height="12598.4" rx="0" />
</g>
<g style="fill:#000000; fill-opacity:0.0; 
stroke:#000000; stroke-width:39.3701; stroke-opacity:1; 
stroke-linecap:round; stroke-linejoin:round;">
</g>
<g style="fill:#000000; fill-opacity:0.0; 
stroke:#000000; stroke-width:59.0551; stroke-opacity:1; 
stroke-linecap:round; stroke-linejoin:round;">
<rect x="3937.01" y="3937.01" width="109056" height="74806" rx="0" />
</g>
<g style="fill:#000000; fill-opacity:0.0; 
stroke:#000000; stroke-width:39.3701; stroke-opacity:1; 
stroke-linecap:round; stroke-linejoin:round;">
</g>
<g style="fill:#000000; fill-opacity:0.0; 
stroke:#000000; stroke-width:59.0551; stroke-opacity:1; 
stroke-linecap:round; stroke-linejoin:round;">
<rect x="4724.41" y="4724.41" width="107481" height="73231.2" rx="0" />
</g>
<g style="fill:#000000; fill-opacity:0.0; 
stroke:#000000; stroke-width:39.3701; stroke-opacity:1; 
stroke-linecap:round; stroke-linejoin:round;">
</g>
<g style="fill:#000000; fill-opacity:0.0; 
stroke:#000000; stroke-width:59.0551; stroke-opacity:1; 
stroke-linecap:round; stroke-linejoin:round;">
<path d="M23622 4724
L23622 3937
" />
</g>
<g style="fill:#000000; fill-opacity:0.0; 
stroke:#000000; stroke-width:39.3701; stroke-opacity:1; 
stroke-linecap:round; stroke-linejoin:round;">
</g>
<g style="fill:#000000; fill-opacity:0.0; 
stroke:#000000; stroke-width:59.0551; stroke-opacity:1; 
stroke-linecap:round; stroke-linejoin:round;">
<path d="M43307 4724
L43307 3937
" />
</g>
<g style="fill:#000000; fill-opacity:0.0; 
stroke:#000000; stroke-width:39.3701; stroke-opacity:1; 
stroke-linecap:round; stroke-linejoin:round;">
</g>
<g style="fill:#000000; fill-opacity:0.0; 
stroke:#000000; stroke-width:59.0551; stroke-opacity:1; 
stroke-linecap:round; stroke-linejoin:round;">
<path d="M62992 4724
L62992 3937
" />
</g>
<g style="fill:#000000; fill-opacity:0.0; 
stroke:#000000; stroke-width:39.3701; stroke-opacity:1; 
stroke-linecap:round; stroke-linejoin:round;">
</g>
<g style="fill:#000000; fill-opacity:0.0; 
stroke:#000000; stroke-width:59.0551; stroke-opacity:1; 
stroke-linecap:round; stroke-linejoin:round;">
<path d="M82677 4724
L82677 3937
" />
</g>
<g style="fill:#000000; fill-opacity:0.0; 
stroke:#000000; stroke-width:39.3701; stroke-opacity:1; 
stroke-linecap:round; stroke-linejoin:round;">
</g>
<g style="fill:#000000; fill-opacity:0.0; 
stroke:#000000; stroke-width:59.0551; stroke-opacity:1; 
stroke-linecap:round; stroke-linejoin:round;">
<path d="M102362 4724
L102362 3937
" />
</g>
<g style="fill:#000000; fill-opacity:0.0; 
stroke:#000000; stroke-width:39.3701; stroke-opacity:1; 
stroke-linecap:round; stroke-linejoin:round;">
</g>
<g style="fill:#000000; fill-opacity:0.0; 
stroke:#000000; stroke-width:59.0551; stroke-opacity:1; 
stroke-linecap:round; stroke-linejoin:round;">
<path d="M14169 4562
L13877 4562
" />
<path d="M14023 4562
L14023 4050
L13974 4123
L13925 4172
L13877 4196
" />
</g>
<g style="fill:#000000; fill-opacity:0.0; 
stroke:#000000; stroke-width:39.3701; stroke-opacity:1; 
stroke-linecap:round; stroke-linejoin:round;">
</g>
<g style="fill:#000000; fill-opacity:0.0; 
stroke:#000000; stroke-width:59.0551; stroke-opacity:1; 
stroke-linecap:round; stroke-linejoin:round;">
<path d="M33562 4099
L33586 4074
L33635 4050
L33757 4050
L33805 4074
L33830 4099
L33854 4147
L33854 4196
L33830 4269
L33537 4562
L33854 4562
" />
</g>
<g style="fill:#000000; fill-opacity:0.0; 
stroke:#000000; stroke-width:39.3701; stroke-opacity:1; 
stroke-linecap:round; stroke-linejoin:round;">
</g>
<g style="fill:#000000; fill-opacity:0.0; 
stroke:#000000; stroke-width:59.0551; stroke-opacity:1; 
stroke-linecap:round; stroke-linejoin:round;">
<path d="M53222 4050
L53539 4050
L53368 4245
L53442 4245
L53490 4269
L53515 4294
L53539 4342
L53539 4464
L53515 4513
L53490 4537
L53442 4562
L53295 4562
L53247 4537
L53222 4513
" />
</g>
<g style="fill:#000000; fill-opacity:0.0; 
stroke:#000000; stroke-width:39.3701; stroke-opacity:1; 
stroke-linecap:round; stroke-linejoin:round;">
</g>
<g style="fill:#000000; fill-opacity:0.0; 
stroke:#000000; stroke-width:59.0551; stroke-opacity:1; 
stroke-linecap:round; stroke-linejoin:round;">
<path d="M73175 4221
L73175 4562
" />
<path d="M73053 4026
L72932 4391
L73248 4391
" />
</g>
<g style="fill:#000000; fill-opacity:0.0; 
stroke:#000000; stroke-width:39.3701; stroke-opacity:1; 
stroke-linecap:round; stroke-linejoin:round;">
</g>
<g style="fill:#000000; fill-opacity:0.0; 
stroke:#000000; stroke-width:59.0551; stroke-opacity:1; 
stroke-linecap:round; stroke-linejoin:round;">
<path d="M92885 4050
L92641 4050
L92617 4294
L92641 4269
L92690 4245
L92812 4245
L92860 4269
L92885 4294
L92909 4342
L92909 4464
L92885 4513
L92860 4537
L92812 4562
L92690 4562
L92641 4537
L92617 4513
" />
</g>
<g style="fill:#000000; fill-opacity:0.0; 
stroke:#000000; stroke-width:39.3701; stroke-opacity:1; 
stroke-linecap:round; stroke-linejoin:round;">
</g>
<g style="fill:#000000; fill-opacity:0.0; 
stroke:#000000; stroke-width:59.0551; stroke-opacity:1; 
stroke-linecap:round; stroke-linejoin:round;">
<path d="M112545 4050
L112448 4050
L112399 4074
L112375 4099
L112326 4172
L112302 4269
L112302 4464
L112326 4513
L112350 4537
L112399 4562
L112497 4562
L112545 4537
L112570 4513
L112594 4464
L112594 4342
L112570 4294
L112545 4269
L112497 4245
L112399 4245
L112350 4269
L112326 4294
L112302 4342
" />
</g>
<g style="fill:#000000; fill-opacity:0.0; 
stroke:#000000; stroke-width:39.3701; stroke-opacity:1; 
stroke-linecap:round; stroke-linejoin:round;">
</g>
<g style="fill:#000000; fill-opacity:0.0; 
stroke:#000000; stroke-width:59.0551; stroke-opacity:1; 
stroke-linecap:round; stroke-linejoin:round;">
<path d="M23622 77955
L23622 78742
" />
</g>
<g style="fill:#000000; fill-opacity:0.0; 
stroke:#000000; stroke-width:39.3701; stroke-opacity:1; 
stroke-linecap:round; stroke-linejoin:round;">
</g>
<g style="fill:#000000; fill-opacity:0.0; 
stroke:#000000; stroke-width:59.0551; stroke-opacity:1; 
stroke-linecap:round; stroke-linejoin:round;">
<path d="M43307 77955
L43307 78742
" />
</g>
<g style="fill:#000000; fill-opacity:0.0; 
stroke:#000000; stroke-width:39.3701; stroke-opacity:1; 
stroke-linecap:round; stroke-linejoin:round;">
</g>
<g style="fill:#000000; fill-opacity:0.0; 
stroke:#000000; stroke-width:59.0551; stroke-opacity:1; 
stroke-linecap:round; stroke-linejoin:round;">
<path d="M62992 77955
L62992 78742
" />
</g>
<g style="fill:#000000; fill-opacity:0.0; 
stroke:#000000; stroke-width:39.3701; stroke-opacity:1; 
stroke-linecap:round; stroke-linejoin:round;">
</g>
<g style="fill:#000000; fill-opacity:0.0; 
stroke:#000000; stroke-width:59.0551; stroke-opacity:1; 
stroke-linecap:round; stroke-linejoin:round;">
<path d="M82677 77955
L82677 78742
" />
</g>
<g style="fill:#000000; fill-opacity:0.0; 
stroke:#000000; stroke-width:39.3701; stroke-opacity:1; 
stroke-linecap:round; stroke-linejoin:round;">
</g>
<g style="fill:#000000; fill-opacity:0.0; 
stroke:#000000; stroke-width:59.0551; stroke-opacity:1; 
stroke-linecap:round; stroke-linejoin:round;">
<path d="M102362 77955
L102362 78742
" />
</g>
<g style="fill:#000000; fill-opacity:0.0; 
stroke:#000000; stroke-width:39.3701; stroke-opacity:1; 
stroke-linecap:round; stroke-linejoin:round;">
</g>
<g style="fill:#000000; fill-opacity:0.0; 
stroke:#000000; stroke-width:59.0551; stroke-opacity:1; 
stroke-linecap:round; stroke-linejoin:round;">
<path d="M14169 78580
L13877 78580
" />
<path d="M14023 78580
L14023 78069
L13974 78142
L13925 78190
L13877 78215
" />
</g>
<g style="fill:#000000; fill-opacity:0.0; 
stroke:#000000; stroke-width:39.3701; stroke-opacity:1; 
stroke-linecap:round; stroke-linejoin:round;">
</g>
<g style="fill:#000000; fill-opacity:0.0; 
stroke:#000000; stroke-width:59.0551; stroke-opacity:1; 
stroke-linecap:round; stroke-linejoin:round;">
<path d="M33562 78117
L33586 78093
L33635 78069
L33757 78069
L33805 78093
L33830 78117
L33854 78166
L33854 78215
L33830 78288
L33537 78580
L33854 78580
" />
</g>
<g style="fill:#000000; fill-opacity:0.0; 
stroke:#000000; stroke-width:39.3701; stroke-opacity:1; 
stroke-linecap:round; stroke-linejoin:round;">
</g>
<g style="fill:#000000; fill-opacity:0.0; 
stroke:#000000; stroke-width:59.0551; stroke-opacity:1; 
stroke-linecap:round; stroke-linejoin:round;">
<path d="M53222 78069
L53539 78069
L53368 78263
L53442 78263
L53490 78288
L53515 78312
L53539 78361
L53539 78483
L53515 78532
L53490 78556
L53442 78580
L53295 78580
L53247 78556
L53222 78532
" />
</g>
<g style="fill:#000000; fill-opacity:0.0; 
stroke:#000000; stroke-width:39.3701; stroke-opacity:1; 
stroke-linecap:round; stroke-linejoin:round;">
</g>
<g style="fill:#000000; fill-opacity:0.0; 
stroke:#000000; stroke-width:59.0551; stroke-opacity:1; 
stroke-linecap:round; stroke-linejoin:round;">
<path d="M73175 78239
L73175 78580
" />
<path d="M73053 78044
L72932 78410
L73248 78410
" />
</g>
<g style="fill:#000000; fill-opacity:0.0; 
stroke:#000000; stroke-width:39.3701; stroke-opacity:1; 
stroke-linecap:round; stroke-linejoin:round;">
</g>
<g style="fill:#000000; fill-opacity:0.0; 
stroke:#000000; stroke-width:59.0551; stroke-opacity:1; 
stroke-linecap:round; stroke-linejoin:round;">
<path d="M92885 78069
L92641 78069
L92617 78312
L92641 78288
L92690 78263
L92812 78263
L92860 78288
L92885 78312
L92909 78361
L92909 78483
L92885 78532
L92860 78556
L92812 78580
L92690 78580
L92641 78556
L92617 78532
" />
</g>
<g style="fill:#000000; fill-opacity:0.0; 
stroke:#000000; stroke-width:39.3701; stroke-opacity:1; 
stroke-linecap:round; stroke-linejoin:round;">
</g>
<g style="fill:#000000; fill-opacity:0.0; 
stroke:#000000; stroke-width:59.0551; stroke-opacity:1; 
stroke-linecap:round; stroke-linejoin:round;">
<path d="M112545 78069
L112448 78069
L112399 78093
L112375 78117
L112326 78190
L112302 78288
L112302 78483
L112326 78532
L112350 78556
L112399 78580
L112497 78580
L112545 78556
L112570 78532
L112594 78483
L112594 78361
L112570 78312
L112545 78288
L112497 78263
L112399 78263
L112350 78288
L112326 78312
L112302 78361
" />
</g>
<g style="fill:#000000; fill-opacity:0.0; 
stroke:#000000; stroke-width:39.3701; stroke-opacity:1; 
stroke-linecap:round; stroke-linejoin:round;">
</g>
<g style="fill:#000000; fill-opacity:0.0; 
stroke:#000000; stroke-width:59.0551; stroke-opacity:1; 
stroke-linecap:round; stroke-linejoin:round;">
<path d="M3937 23622
L4724 23622
" />
</g>
<g style="fill:#000000; fill-opacity:0.0; 
stroke:#000000; stroke-width:39.3701; stroke-opacity:1; 
stroke-linecap:round; stroke-linejoin:round;">
</g>
<g style="fill:#000000; fill-opacity:0.0; 
stroke:#000000; stroke-width:59.0551; stroke-opacity:1; 
stroke-linecap:round; stroke-linejoin:round;">
<path d="M3937 43307
L4724 43307
" />
</g>
<g style="fill:#000000; fill-opacity:0.0; 
stroke:#000000; stroke-width:39.3701; stroke-opacity:1; 
stroke-linecap:round; stroke-linejoin:round;">
</g>
<g style="fill:#000000; fill-opacity:0.0; 
stroke:#000000; stroke-width:59.0551; stroke-opacity:1; 
stroke-linecap:round; stroke-linejoin:round;">
<path d="M3937 62992
L4724 62992
" />
</g>
<g style="fill:#000000; fill-opacity:0.0; 
stroke:#000000; stroke-width:39.3701; stroke-opacity:1; 
stroke-linecap:round; stroke-linejoin:round;">
</g>
<g style="fill:#000000; fill-opacity:0.0; 
stroke:#000000; stroke-width:59.0551; stroke-opacity:1; 
stroke-linecap:round; stroke-linejoin:round;">
<path d="M4208 13864
L4452 13864
" />
<path d="M4160 14011
L4330 13499
L4501 14011
" />
</g>
<g style="fill:#000000; fill-opacity:0.0; 
stroke:#000000; stroke-width:39.3701; stroke-opacity:1; 
stroke-linecap:round; stroke-linejoin:round;">
</g>
<g style="fill:#000000; fill-opacity:0.0; 
stroke:#000000; stroke-width:59.0551; stroke-opacity:1; 
stroke-linecap:round; stroke-linejoin:round;">
<path d="M4367 33428
L4440 33452
L4464 33476
L4489 33525
L4489 33598
L4464 33647
L4440 33671
L4391 33696
L4196 33696
L4196 33184
L4367 33184
L4416 33208
L4440 33233
L4464 33281
L4464 33330
L4440 33379
L4416 33403
L4367 33428
L4196 33428
" />
</g>
<g style="fill:#000000; fill-opacity:0.0; 
stroke:#000000; stroke-width:39.3701; stroke-opacity:1; 
stroke-linecap:round; stroke-linejoin:round;">
</g>
<g style="fill:#000000; fill-opacity:0.0; 
stroke:#000000; stroke-width:59.0551; stroke-opacity:1; 
stroke-linecap:round; stroke-linejoin:round;">
<path d="M4489 53332
L4464 53356
L4391 53381
L4342 53381
L4269 53356
L4221 53308
L4196 53259
L4172 53161
L4172 53088
L4196 52991
L4221 52942
L4269 52893
L4342 52869
L4391 52869
L4464 52893
L4489 52918
" />
</g>
<g style="fill:#000000; fill-opacity:0.0; 
stroke:#000000; stroke-width:39.3701; stroke-opacity:1; 
stroke-linecap:round; stroke-linejoin:round;">
</g>
<g style="fill:#000000; fill-opacity:0.0; 
stroke:#000000; stroke-width:59.0551; stroke-opacity:1; 
stroke-linecap:round; stroke-linejoin:round;">
<path d="M4196 73066
L4196 72554
L4318 72554
L4391 72578
L4440 72627
L4464 72676
L4489 72773
L4489 72846
L4464 72944
L4440 72993
L4391 73041
L4318 73066
L4196 73066
" />
</g>
<g style="fill:#000000; fill-opacity:0.0; 
stroke:#000000; stroke-width:39.3701; stroke-opacity:1; 
stroke-linecap:round; stroke-linejoin:round;">
</g>
<g style="fill:#000000; fill-opacity:0.0; 
stroke:#000000; stroke-width:59.0551; stroke-opacity:1; 
stroke-linecap:round; stroke-linejoin:round;">
<path d="M112992 23622
L112205 23622
" />
</g>
<g style="fill:#000000; fill-opacity:0.0; 
stroke:#000000; stroke-width:39.3701; stroke-opacity:1; 
stroke-linecap:round; stroke-linejoin:round;">
</g>
<g style="fill:#000000; fill-opacity:0.0; 
stroke:#000000; stroke-width:59.0551; stroke-opacity:1; 
stroke-linecap:round; stroke-linejoin:round;">
<path d="M112992 43307
L112205 43307
" />
</g>
<g style="fill:#000000; fill-opacity:0.0; 
stroke:#000000; stroke-width:39.3701; stroke-opacity:1; 
stroke-linecap:round; stroke-linejoin:round;">
</g>
<g style="fill:#000000; fill-opacity:0.0; 
stroke:#000000; stroke-width:59.0551; stroke-opacity:1; 
stroke-linecap:round; stroke-linejoin:round;">
<path d="M112992 62992
L112205 62992
" />
</g>
<g style="fill:#000000; fill-opacity:0.0; 
stroke:#000000; stroke-width:39.3701; stroke-opacity:1; 
stroke-linecap:round; stroke-linejoin:round;">
</g>
<g style="fill:#000000; fill-opacity:0.0; 
stroke:#000000; stroke-width:59.0551; stroke-opacity:1; 
stroke-linecap:round; stroke-linejoin:round;">
<path d="M112477 13864
L112721 13864
" />
<path d="M112428 14011
L112599 13499
L112769 14011
" />
</g>
<g style="fill:#000000; fill-opacity:0.0; 
stroke:#000000; stroke-width:39.3701; stroke-opacity:1; 
stroke-linecap:round; stroke-linejoin:round;">
</g>
<g style="fill:#000000; fill-opacity:0.0; 
stroke:#000000; stroke-width:59.0551; stroke-opacity:1; 
stroke-linecap:round; stroke-linejoin:round;">
<path d="M112635 33428
L112708 33452
L112733 33476
L112757 33525
L112757 33598
L112733 33647
L112708 33671
L112660 33696
L112465 33696
L112465 33184
L112635 33184
L112684 33208
L112708 33233
L112733 33281
L112733 33330
L112708 33379
L112684 33403
L112635 33428
L112465 33428
" />
</g>
<g style="fill:#000000; fill-opacity:0.0; 
stroke:#000000; stroke-width:39.3701; stroke-opacity:1; 
stroke-linecap:round; stroke-linejoin:round;">
</g>
<g style="fill:#000000; fill-opacity:0.0; 
stroke:#000000; stroke-width:59.0551; stroke-opacity:1; 
stroke-linecap:round; stroke-linejoin:round;">
<path d="M112757 53332
L112733 53356
L112660 53381
L112611 53381
L112538 53356
L112489 53308
L112465 53259
L112440 53161
L112440 53088
L112465 52991
L112489 52942
L112538 52893
L112611 52869
L112660 52869
L112733 52893
L112757 52918
" />
</g>
<g style="fill:#000000; fill-opacity:0.0; 
stroke:#000000; stroke-width:39.3701; stroke-opacity:1; 
stroke-linecap:round; stroke-linejoin:round;">
</g>
<g style="fill:#000000; fill-opacity:0.0; 
stroke:#000000; stroke-width:59.0551; stroke-opacity:1; 
stroke-linecap:round; stroke-linejoin:round;">
<path d="M112465 73066
L112465 72554
L112587 72554
L112660 72578
L112708 72627
L112733 72676
L112757 72773
L112757 72846
L112733 72944
L112708 72993
L112660 73041
L112587 73066
L112465 73066
" />
</g>
<g style="fill:#000000; fill-opacity:0.0; 
stroke:#000000; stroke-width:39.3701; stroke-opacity:1; 
stroke-linecap:round; stroke-linejoin:round;">
</g>
<g style="fill:#000000; fill-opacity:0.0; 
stroke:#000000; stroke-width:59.0551; stroke-opacity:1; 
stroke-linecap:round; stroke-linejoin:round;">
<path d="M78881 76293
L78881 75703
L79022 75703
L79106 75731
L79162 75787
L79190 75843
L79219 75956
L79219 76040
L79190 76153
L79162 76209
L79106 76265
L79022 76293
L78881 76293
" />
<path d="M79725 76293
L79725 75984
L79697 75928
L79640 75899
L79528 75899
L79472 75928
" />
<path d="M79725 76265
L79669 76293
L79528 76293
L79472 76265
L79444 76209
L79444 76153
L79472 76096
L79528 76068
L79669 76068
L79725 76040
" />
<path d="M79922 75899
L80147 75899
" />
<path d="M80006 75703
L80006 76209
L80034 76265
L80090 76293
L80147 76293
" />
<path d="M80568 76265
L80512 76293
L80400 76293
L80343 76265
L80315 76209
L80315 75984
L80343 75928
L80400 75899
L80512 75899
L80568 75928
L80597 75984
L80597 76040
L80315 76096
" />
<path d="M80850 76237
L80878 76265
L80850 76293
L80822 76265
L80850 76237
L80850 76293
" />
<path d="M80850 75928
L80878 75956
L80850 75984
L80822 75956
L80850 75928
L80850 75984
" />
</g>
<g style="fill:#000000; fill-opacity:0.0; 
stroke:#000000; stroke-width:39.3701; stroke-opacity:1; 
stroke-linecap:round; stroke-linejoin:round;">
</g>
<g style="fill:#000000; fill-opacity:0.0; 
stroke:#000000; stroke-width:59.0551; stroke-opacity:1; 
stroke-linecap:round; stroke-linejoin:round;">
<path d="M69685 76577
L112205 76577
" />
</g>
<g style="fill:#000000; fill-opacity:0.0; 
stroke:#000000; stroke-width:39.3701; stroke-opacity:1; 
stroke-linecap:round; stroke-linejoin:round;">
</g>
<g style="fill:#000000; fill-opacity:0.0; 
stroke:#000000; stroke-width:59.0551; stroke-opacity:1; 
stroke-linecap:round; stroke-linejoin:round;">
<path d="M70220 77395
L70220 76805
" />
<path d="M70557 77395
L70304 77058
" />
<path d="M70557 76805
L70220 77142
" />
<path d="M70810 77395
L70810 77002
" />
<path d="M70810 76805
L70782 76833
L70810 76861
L70838 76833
L70810 76805
L70810 76861
" />
<path d="M71429 77339
L71401 77367
L71316 77395
L71260 77395
L71176 77367
L71120 77311
L71091 77255
L71063 77142
L71063 77058
L71091 76946
L71120 76889
L71176 76833
L71260 76805
L71316 76805
L71401 76833
L71429 76861
" />
<path d="M71935 77395
L71935 77086
L71907 77030
L71851 77002
L71738 77002
L71682 77030
" />
<path d="M71935 77367
L71879 77395
L71738 77395
L71682 77367
L71654 77311
L71654 77255
L71682 77199
L71738 77171
L71879 77171
L71935 77142
" />
<path d="M72469 77395
L72469 76805
" />
<path d="M72469 77367
L72413 77395
L72301 77395
L72244 77367
L72216 77339
L72188 77283
L72188 77114
L72216 77058
L72244 77030
L72301 77002
L72413 77002
L72469 77030
" />
<path d="M73201 77086
L73397 77086
" />
<path d="M73482 77395
L73201 77395
L73201 76805
L73482 76805
" />
<path d="M73735 77339
L73763 77367
L73735 77395
L73707 77367
L73735 77339
L73735 77395
" />
<path d="M74016 77395
L74016 76805
L74157 76805
L74241 76833
L74297 76889
L74325 76946
L74354 77058
L74354 77142
L74325 77255
L74297 77311
L74241 77367
L74157 77395
L74016 77395
" />
<path d="M74607 77339
L74635 77367
L74607 77395
L74579 77367
L74607 77339
L74607 77395
" />
<path d="M74860 77227
L75141 77227
" />
<path d="M74804 77395
L75000 76805
L75197 77395
" />
<path d="M75394 77339
L75422 77367
L75394 77395
L75366 77367
L75394 77339
L75394 77395
" />
<path d="M76575 77395
L76575 76805
" />
<path d="M76631 77171
L76800 77395
" />
<path d="M76800 77002
L76575 77227
" />
<path d="M77053 77395
L77053 77002
" />
<path d="M77053 76805
L77025 76833
L77053 76861
L77081 76833
L77053 76805
L77053 76861
" />
<path d="M77588 77367
L77531 77395
L77419 77395
L77363 77367
L77334 77339
L77306 77283
L77306 77114
L77334 77058
L77363 77030
L77419 77002
L77531 77002
L77588 77030
" />
<path d="M78094 77395
L78094 77086
L78066 77030
L78009 77002
L77897 77002
L77841 77030
" />
<path d="M78094 77367
L78037 77395
L77897 77395
L77841 77367
L77813 77311
L77813 77255
L77841 77199
L77897 77171
L78037 77171
L78094 77142
" />
<path d="M78628 77395
L78628 76805
" />
<path d="M78628 77367
L78572 77395
L78459 77395
L78403 77367
L78375 77339
L78347 77283
L78347 77114
L78375 77058
L78403 77030
L78459 77002
L78572 77002
L78628 77030
" />
<path d="M79472 76805
L79528 76805
L79584 76833
L79612 76861
L79640 76917
L79669 77030
L79669 77171
L79640 77283
L79612 77339
L79584 77367
L79528 77395
L79472 77395
L79415 77367
L79387 77339
L79359 77283
L79331 77171
L79331 77030
L79359 76917
L79387 76861
L79415 76833
L79472 76805
" />
<path d="M79922 77339
L79950 77367
L79922 77395
L79894 77367
L79922 77339
L79922 77395
" />
<path d="M80175 76861
L80203 76833
L80259 76805
L80400 76805
L80456 76833
L80484 76861
L80512 76917
L80512 76974
L80484 77058
L80147 77395
L80512 77395
" />
<path d="M80878 76805
L80934 76805
L80990 76833
L81018 76861
L81046 76917
L81075 77030
L81075 77171
L81046 77283
L81018 77339
L80990 77367
L80934 77395
L80878 77395
L80822 77367
L80793 77339
L80765 77283
L80737 77171
L80737 77030
L80765 76917
L80793 76861
L80822 76833
L80878 76805
" />
<path d="M81637 77395
L81300 77395
" />
<path d="M81468 77395
L81468 76805
L81412 76889
L81356 76946
L81300 76974
" />
<path d="M82171 76805
L81890 76805
L81862 77086
L81890 77058
L81946 77030
L82087 77030
L82143 77058
L82171 77086
L82199 77142
L82199 77283
L82171 77339
L82143 77367
L82087 77395
L81946 77395
L81890 77367
L81862 77339
" />
<path d="M82762 77395
L82424 77395
" />
<path d="M82593 77395
L82593 76805
L82537 76889
L82481 76946
L82424 76974
" />
<path d="M83324 77395
L82987 77395
" />
<path d="M83156 77395
L83156 76805
L83099 76889
L83043 76946
L82987 76974
" />
<path d="M83549 76861
L83577 76833
L83634 76805
L83774 76805
L83831 76833
L83859 76861
L83887 76917
L83887 76974
L83859 77058
L83521 77395
L83887 77395
" />
<path d="M84393 77002
L84393 77395
" />
<path d="M84252 76777
L84112 77199
L84477 77199
" />
<path d="M85012 77395
L84674 77395
" />
<path d="M84843 77395
L84843 76805
L84787 76889
L84730 76946
L84674 76974
" />
<path d="M85377 76805
L85433 76805
L85490 76833
L85518 76861
L85546 76917
L85574 77030
L85574 77171
L85546 77283
L85518 77339
L85490 77367
L85433 77395
L85377 77395
L85321 77367
L85293 77339
L85265 77283
L85237 77171
L85237 77030
L85265 76917
L85293 76861
L85321 76833
L85377 76805
" />
<path d="M86136 77395
L85799 77395
" />
<path d="M85968 77395
L85968 76805
L85912 76889
L85855 76946
L85799 76974
" />
<path d="M86333 76805
L86727 76805
L86474 77395
" />
<path d="M86952 77171
L87402 77171
" />
<path d="M87177 77395
L87177 76946
" />
<path d="M87936 76805
L87824 76805
L87768 76833
L87739 76861
L87683 76946
L87655 77058
L87655 77283
L87683 77339
L87711 77367
L87768 77395
L87880 77395
L87936 77367
L87964 77339
L87992 77283
L87992 77142
L87964 77086
L87936 77058
L87880 77030
L87768 77030
L87711 77058
L87683 77086
L87655 77142
" />
<path d="M88189 76805
L88555 76805
L88358 77030
L88442 77030
L88499 77058
L88527 77086
L88555 77142
L88555 77283
L88527 77339
L88499 77367
L88442 77395
L88274 77395
L88217 77367
L88189 77339
" />
<path d="M88780 76861
L88808 76833
L88864 76805
L89005 76805
L89061 76833
L89089 76861
L89117 76917
L89117 76974
L89089 77058
L88752 77395
L89117 77395
" />
<path d="M89455 77058
L89399 77030
L89370 77002
L89342 76946
L89342 76917
L89370 76861
L89399 76833
L89455 76805
L89567 76805
L89624 76833
L89652 76861
L89680 76917
L89680 76946
L89652 77002
L89624 77030
L89567 77058
L89455 77058
L89399 77086
L89370 77114
L89342 77171
L89342 77283
L89370 77339
L89399 77367
L89455 77395
L89567 77395
L89624 77367
L89652 77339
L89680 77283
L89680 77171
L89652 77114
L89624 77086
L89567 77058
" />
<path d="M89877 76805
L90242 76805
L90045 77030
L90130 77030
L90186 77058
L90214 77086
L90242 77142
L90242 77283
L90214 77339
L90186 77367
L90130 77395
L89961 77395
L89905 77367
L89877 77339
" />
<path d="M90580 77058
L90523 77030
L90495 77002
L90467 76946
L90467 76917
L90495 76861
L90523 76833
L90580 76805
L90692 76805
L90748 76833
L90777 76861
L90805 76917
L90805 76946
L90777 77002
L90748 77030
L90692 77058
L90580 77058
L90523 77086
L90495 77114
L90467 77171
L90467 77283
L90495 77339
L90523 77367
L90580 77395
L90692 77395
L90748 77367
L90777 77339
L90805 77283
L90805 77171
L90777 77114
L90748 77086
L90692 77058
" />
<path d="M89792 76703
L90917 76703
" />
<path d="M91311 77002
L91311 77395
" />
<path d="M91058 77002
L91058 77311
L91086 77367
L91142 77395
L91226 77395
L91283 77367
L91311 77339
" />
<path d="M91592 77395
L91592 76805
" />
<path d="M91592 77030
L91648 77002
L91761 77002
L91817 77030
L91845 77058
L91873 77114
L91873 77283
L91845 77339
L91817 77367
L91761 77395
L91648 77395
L91592 77367
" />
<path d="M92379 77002
L92379 77395
" />
<path d="M92126 77002
L92126 77311
L92154 77367
L92211 77395
L92295 77395
L92351 77367
L92379 77339
" />
<path d="M92661 77002
L92661 77395
" />
<path d="M92661 77058
L92689 77030
L92745 77002
L92829 77002
L92886 77030
L92914 77086
L92914 77395
" />
<path d="M93111 77002
L93336 77002
" />
<path d="M93195 76805
L93195 77311
L93223 77367
L93279 77395
L93336 77395
" />
<path d="M93786 77002
L93786 77395
" />
<path d="M93532 77002
L93532 77311
L93561 77367
L93617 77395
L93701 77395
L93757 77367
L93786 77339
" />
<path d="M94376 77395
L94039 77395
" />
<path d="M94207 77395
L94207 76805
L94151 76889
L94095 76946
L94039 76974
" />
<path d="M94882 77002
L94882 77395
" />
<path d="M94742 76777
L94601 77199
L94967 77199
" />
<path d="M95192 77339
L95220 77367
L95192 77395
L95163 77367
L95192 77339
L95192 77395
" />
<path d="M95585 76805
L95642 76805
L95698 76833
L95726 76861
L95754 76917
L95782 77030
L95782 77171
L95754 77283
L95726 77339
L95698 77367
L95642 77395
L95585 77395
L95529 77367
L95501 77339
L95473 77283
L95445 77171
L95445 77030
L95473 76917
L95501 76861
L95529 76833
L95585 76805
" />
<path d="M96288 77002
L96288 77395
" />
<path d="M96148 76777
L96007 77199
L96373 77199
" />
<path d="M96598 77339
L96626 77367
L96598 77395
L96570 77367
L96598 77339
L96598 77395
" />
<path d="M97188 77395
L96851 77395
" />
<path d="M97019 77395
L97019 76805
L96963 76889
L96907 76946
L96851 76974
" />
<path d="M97441 77171
L97891 77171
" />
<path d="M98144 77367
L98201 77395
L98313 77395
L98369 77367
L98397 77311
L98397 77283
L98369 77227
L98313 77199
L98229 77199
L98172 77171
L98144 77114
L98144 77086
L98172 77030
L98229 77002
L98313 77002
L98369 77030
" />
<path d="M98566 77002
L98791 77002
" />
<path d="M98651 76805
L98651 77311
L98679 77367
L98735 77395
L98791 77395
" />
<path d="M99241 77395
L99241 77086
L99213 77030
L99157 77002
L99044 77002
L98988 77030
" />
<path d="M99241 77367
L99185 77395
L99044 77395
L98988 77367
L98960 77311
L98960 77255
L98988 77199
L99044 77171
L99185 77171
L99241 77142
" />
<path d="M99522 77395
L99522 76805
" />
<path d="M99522 77030
L99579 77002
L99691 77002
L99747 77030
L99775 77058
L99804 77114
L99804 77283
L99775 77339
L99747 77367
L99691 77395
L99579 77395
L99522 77367
" />
<path d="M100141 77395
L100085 77367
L100057 77311
L100057 76805
" />
<path d="M100591 77367
L100535 77395
L100422 77395
L100366 77367
L100338 77311
L100338 77086
L100366 77030
L100422 77002
L100535 77002
L100591 77030
L100619 77086
L100619 77142
L100338 77199
" />
</g>
<g style="fill:#000000; fill-opacity:0.0; 
stroke:#000000; stroke-width:39.3701; stroke-opacity:1; 
stroke-linecap:round; stroke-linejoin:round;">
</g>
<g style="fill:#000000; fill-opacity:0.0; 
stroke:#000000; stroke-width:59.0551; stroke-opacity:1; 
stroke-linecap:round; stroke-linejoin:round;">
<path d="M69685 75396
L112205 75396
" />
</g>
<g style="fill:#000000; fill-opacity:0.0; 
stroke:#000000; stroke-width:39.3701; stroke-opacity:1; 
stroke-linecap:round; stroke-linejoin:round;">
</g>
<g style="fill:#000000; fill-opacity:0.0; 
stroke:#000000; stroke-width:118.11; stroke-opacity:1; 
stroke-linecap:round; stroke-linejoin:round;">
<path d="M104022 76293
L103825 76012
" />
<path d="M103684 76293
L103684 75703
L103909 75703
L103965 75731
L103994 75759
L104022 75815
L104022 75899
L103994 75956
L103965 75984
L103909 76012
L103684 76012
" />
<path d="M104500 76265
L104444 76293
L104331 76293
L104275 76265
L104247 76209
L104247 75984
L104275 75928
L104331 75899
L104444 75899
L104500 75928
L104528 75984
L104528 76040
L104247 76096
" />
<path d="M104725 75899
L104865 76293
L105006 75899
" />
<path d="M105231 76237
L105259 76265
L105231 76293
L105203 76265
L105231 76237
L105231 76293
" />
<path d="M105231 75928
L105259 75956
L105231 75984
L105203 75956
L105231 75928
L105231 75984
" />
</g>
<g style="fill:#000000; fill-opacity:0.0; 
stroke:#000000; stroke-width:39.3701; stroke-opacity:1; 
stroke-linecap:round; stroke-linejoin:round;">
</g>
<g style="fill:#000000; fill-opacity:0.0; 
stroke:#000000; stroke-width:59.0551; stroke-opacity:1; 
stroke-linecap:round; stroke-linejoin:round;">
<path d="M70192 76265
L70276 76293
L70417 76293
L70473 76265
L70501 76237
L70529 76181
L70529 76124
L70501 76068
L70473 76040
L70417 76012
L70304 75984
L70248 75956
L70220 75928
L70192 75871
L70192 75815
L70220 75759
L70248 75731
L70304 75703
L70445 75703
L70529 75731
" />
<path d="M70782 76293
L70782 75899
" />
<path d="M70782 75703
L70754 75731
L70782 75759
L70810 75731
L70782 75703
L70782 75759
" />
<path d="M71007 75899
L71316 75899
L71007 76293
L71316 76293
" />
<path d="M71766 76265
L71710 76293
L71598 76293
L71541 76265
L71513 76209
L71513 75984
L71541 75928
L71598 75899
L71710 75899
L71766 75928
L71795 75984
L71795 76040
L71513 76096
" />
<path d="M72048 76237
L72076 76265
L72048 76293
L72019 76265
L72048 76237
L72048 76293
" />
<path d="M72048 75928
L72076 75956
L72048 75984
L72019 75956
L72048 75928
L72048 75984
" />
<path d="M72751 76124
L73032 76124
" />
<path d="M72694 76293
L72891 75703
L73088 76293
" />
<path d="M73538 75899
L73538 76293
" />
<path d="M73397 75674
L73257 76096
L73622 76096
" />
</g>
<g style="fill:#000000; fill-opacity:0.0; 
stroke:#000000; stroke-width:39.3701; stroke-opacity:1; 
stroke-linecap:round; stroke-linejoin:round;">
</g>
<g style="fill:#000000; fill-opacity:0.0; 
stroke:#000000; stroke-width:59.0551; stroke-opacity:1; 
stroke-linecap:round; stroke-linejoin:round;">
<path d="M103684 77395
L103684 76805
" />
<path d="M104219 77395
L104219 76805
" />
<path d="M104219 77367
L104162 77395
L104050 77395
L103994 77367
L103965 77339
L103937 77283
L103937 77114
L103965 77058
L103994 77030
L104050 77002
L104162 77002
L104219 77030
" />
<path d="M104500 77339
L104528 77367
L104500 77395
L104472 77367
L104500 77339
L104500 77395
" />
<path d="M104500 77030
L104528 77058
L104500 77086
L104472 77058
L104500 77030
L104500 77086
" />
<path d="M105540 77395
L105203 77395
" />
<path d="M105372 77395
L105372 76805
L105315 76889
L105259 76946
L105203 76974
" />
<path d="M106215 76777
L105709 77536
" />
<path d="M106721 77395
L106384 77395
" />
<path d="M106553 77395
L106553 76805
L106496 76889
L106440 76946
L106384 76974
" />
</g>
<g style="fill:#000000; fill-opacity:0.0; 
stroke:#000000; stroke-width:39.3701; stroke-opacity:1; 
stroke-linecap:round; stroke-linejoin:round;">
</g>
<g style="fill:#000000; fill-opacity:0.0; 
stroke:#000000; stroke-width:59.0551; stroke-opacity:1; 
stroke-linecap:round; stroke-linejoin:round;">
<path d="M69685 73821
L112205 73821
" />
</g>
<g style="fill:#000000; fill-opacity:0.0; 
stroke:#000000; stroke-width:39.3701; stroke-opacity:1; 
stroke-linecap:round; stroke-linejoin:round;">
</g>
<g style="fill:#000000; fill-opacity:0.0; 
stroke:#000000; stroke-width:157.48; stroke-opacity:1; 
stroke-linecap:round; stroke-linejoin:round;">
<path d="M70257 74099
L70707 74099
" />
<path d="M70384 74886
L70482 74099
" />
<path d="M70871 74886
L70937 74361
" />
<path d="M70970 74099
L70927 74136
L70960 74174
L71002 74136
L70970 74099
L70960 74174
" />
<path d="M71199 74361
L71499 74361
" />
<path d="M71345 74099
L71260 74774
L71288 74849
L71359 74886
L71434 74886
" />
<path d="M71809 74886
L71738 74849
L71710 74774
L71795 74099
" />
<path d="M72413 74849
L72334 74886
L72184 74886
L72113 74849
L72085 74774
L72123 74474
L72169 74399
L72249 74361
L72399 74361
L72469 74399
L72498 74474
L72488 74549
L72104 74624
" />
<path d="M72793 74811
L72826 74849
L72783 74886
L72751 74849
L72793 74811
L72783 74886
" />
<path d="M72844 74399
L72877 74436
L72835 74474
L72802 74436
L72844 74399
L72835 74474
" />
</g>
<g style="fill:#000000; fill-opacity:0.0; 
stroke:#000000; stroke-width:39.3701; stroke-opacity:1; 
stroke-linecap:round; stroke-linejoin:round;">
</g>
<g style="fill:#000000; fill-opacity:0.0; 
stroke:#000000; stroke-width:59.0551; stroke-opacity:1; 
stroke-linecap:round; stroke-linejoin:round;">
<path d="M70417 73070
L70220 73070
" />
<path d="M70220 73380
L70220 72789
L70501 72789
" />
<path d="M70726 73380
L70726 72986
" />
<path d="M70726 72789
L70698 72817
L70726 72845
L70754 72817
L70726 72789
L70726 72845
" />
<path d="M71091 73380
L71035 73352
L71007 73295
L71007 72789
" />
<path d="M71541 73352
L71485 73380
L71373 73380
L71316 73352
L71288 73295
L71288 73070
L71316 73014
L71373 72986
L71485 72986
L71541 73014
L71570 73070
L71570 73127
L71288 73183
" />
<path d="M71823 73323
L71851 73352
L71823 73380
L71795 73352
L71823 73323
L71823 73380
" />
<path d="M71823 73014
L71851 73042
L71823 73070
L71795 73042
L71823 73014
L71823 73070
" />
<path d="M72666 72789
L72779 72789
L72835 72817
L72891 72874
L72919 72986
L72919 73183
L72891 73295
L72835 73352
L72779 73380
L72666 73380
L72610 73352
L72554 73295
L72526 73183
L72526 72986
L72554 72874
L72610 72817
L72666 72789
" />
<path d="M73172 72986
L73172 73577
" />
<path d="M73172 73014
L73229 72986
L73341 72986
L73397 73014
L73426 73042
L73454 73099
L73454 73267
L73426 73323
L73397 73352
L73341 73380
L73229 73380
L73172 73352
" />
<path d="M73932 73352
L73876 73380
L73763 73380
L73707 73352
L73679 73295
L73679 73070
L73707 73014
L73763 72986
L73876 72986
L73932 73014
L73960 73070
L73960 73127
L73679 73183
" />
<path d="M74213 72986
L74213 73380
" />
<path d="M74213 73042
L74241 73014
L74297 72986
L74382 72986
L74438 73014
L74466 73070
L74466 73380
" />
<path d="M74747 73380
L74747 72789
L74888 72789
L74972 72817
L75028 72874
L75057 72930
L75085 73042
L75085 73127
L75057 73239
L75028 73295
L74972 73352
L74888 73380
L74747 73380
" />
<path d="M75338 73380
L75338 72986
" />
<path d="M75338 73099
L75366 73042
L75394 73014
L75450 72986
L75507 72986
" />
<path d="M75788 73380
L75732 73352
L75703 73323
L75675 73267
L75675 73099
L75703 73042
L75732 73014
L75788 72986
L75872 72986
L75928 73014
L75956 73042
L75985 73099
L75985 73267
L75956 73323
L75928 73352
L75872 73380
L75788 73380
" />
<path d="M76238 72986
L76238 73577
" />
<path d="M76238 73014
L76294 72986
L76406 72986
L76463 73014
L76491 73042
L76519 73099
L76519 73267
L76491 73323
L76463 73352
L76406 73380
L76294 73380
L76238 73352
" />
<path d="M76688 72789
L76885 73380
L77081 72789
" />
<path d="M77250 72845
L77278 72817
L77334 72789
L77475 72789
L77531 72817
L77559 72845
L77588 72902
L77588 72958
L77559 73042
L77222 73380
L77588 73380
" />
<path d="M77841 73323
L77869 73352
L77841 73380
L77813 73352
L77841 73323
L77841 73380
" />
<path d="M78122 73380
L78122 72789
" />
<path d="M78178 73155
L78347 73380
" />
<path d="M78347 72986
L78122 73211
" />
<path d="M78600 73380
L78600 72986
" />
<path d="M78600 72789
L78572 72817
L78600 72845
L78628 72817
L78600 72789
L78600 72845
" />
<path d="M79134 73352
L79078 73380
L78965 73380
L78909 73352
L78881 73323
L78853 73267
L78853 73099
L78881 73042
L78909 73014
L78965 72986
L79078 72986
L79134 73014
" />
<path d="M79640 73380
L79640 73070
L79612 73014
L79556 72986
L79444 72986
L79387 73014
" />
<path d="M79640 73352
L79584 73380
L79444 73380
L79387 73352
L79359 73295
L79359 73239
L79387 73183
L79444 73155
L79584 73155
L79640 73127
" />
<path d="M80175 73380
L80175 72789
" />
<path d="M80175 73352
L80118 73380
L80006 73380
L79950 73352
L79922 73323
L79894 73267
L79894 73099
L79922 73042
L79950 73014
L80006 72986
L80118 72986
L80175 73014
" />
<path d="M80315 73436
L80765 73436
" />
<path d="M80906 72986
L80906 73577
" />
<path d="M80906 73014
L80962 72986
L81075 72986
L81131 73014
L81159 73042
L81187 73099
L81187 73267
L81159 73323
L81131 73352
L81075 73380
L80962 73380
L80906 73352
" />
<path d="M81693 73352
L81637 73380
L81525 73380
L81468 73352
L81440 73323
L81412 73267
L81412 73099
L81440 73042
L81468 73014
L81525 72986
L81637 72986
L81693 73014
" />
<path d="M81946 73380
L81946 72789
" />
<path d="M81946 73014
L82003 72986
L82115 72986
L82171 73014
L82199 73042
L82228 73099
L82228 73267
L82199 73323
L82171 73352
L82115 73380
L82003 73380
L81946 73352
" />
</g>
<g style="fill:#000000; fill-opacity:0.0; 
stroke:#000000; stroke-width:39.3701; stroke-opacity:1; 
stroke-linecap:round; stroke-linejoin:round;">
</g>
<g style="fill:#000000; fill-opacity:0.0; 
stroke:#000000; stroke-width:59.0551; stroke-opacity:1; 
stroke-linecap:round; stroke-linejoin:round;">
<path d="M69685 71459
L112205 71459
" />
</g>
<g style="fill:#000000; fill-opacity:0.0; 
stroke:#000000; stroke-width:39.3701; stroke-opacity:1; 
stroke-linecap:round; stroke-linejoin:round;">
</g>
<g style="fill:#000000; fill-opacity:0.0; 
stroke:#000000; stroke-width:59.0551; stroke-opacity:1; 
stroke-linecap:round; stroke-linejoin:round;">
<path d="M70192 72289
L70276 72317
L70417 72317
L70473 72289
L70501 72260
L70529 72204
L70529 72148
L70501 72092
L70473 72064
L70417 72036
L70304 72007
L70248 71979
L70220 71951
L70192 71895
L70192 71839
L70220 71782
L70248 71754
L70304 71726
L70445 71726
L70529 71754
" />
<path d="M70782 72317
L70782 71726
" />
<path d="M71035 72317
L71035 72007
L71007 71951
L70951 71923
L70867 71923
L70810 71951
L70782 71979
" />
<path d="M71541 72289
L71485 72317
L71373 72317
L71316 72289
L71288 72232
L71288 72007
L71316 71951
L71373 71923
L71485 71923
L71541 71951
L71570 72007
L71570 72064
L71288 72120
" />
<path d="M72048 72289
L71991 72317
L71879 72317
L71823 72289
L71795 72232
L71795 72007
L71823 71951
L71879 71923
L71991 71923
L72048 71951
L72076 72007
L72076 72064
L71795 72120
" />
<path d="M72244 71923
L72469 71923
" />
<path d="M72329 71726
L72329 72232
L72357 72289
L72413 72317
L72469 72317
" />
<path d="M72666 72260
L72694 72289
L72666 72317
L72638 72289
L72666 72260
L72666 72317
" />
<path d="M72666 71951
L72694 71979
L72666 72007
L72638 71979
L72666 71951
L72666 72007
" />
</g>
<g style="fill:#000000; fill-opacity:0.0; 
stroke:#000000; stroke-width:39.3701; stroke-opacity:1; 
stroke-linecap:round; stroke-linejoin:round;">
</g>
<g style="fill:#000000; fill-opacity:0.0; 
stroke:#000000; stroke-width:59.0551; stroke-opacity:1; 
stroke-linecap:round; stroke-linejoin:round;">
<path d="M77559 75396
L77559 76577
" />
</g>
<g style="fill:#000000; fill-opacity:0.0; 
stroke:#000000; stroke-width:39.3701; stroke-opacity:1; 
stroke-linecap:round; stroke-linejoin:round;">
</g>
<g style="fill:#000000; fill-opacity:0.0; 
stroke:#000000; stroke-width:59.0551; stroke-opacity:1; 
stroke-linecap:round; stroke-linejoin:round;">
<path d="M102756 75396
L102756 77955
" />
</g>
<g style="fill:#C1C100; fill-opacity:0.0; 
stroke:#C1C100; stroke-width:59.0551; stroke-opacity:1; 
stroke-linecap:round; stroke-linejoin:round;">
</g>
<g style="fill:#C1C100; fill-opacity:0.0; 
stroke:#C1C100; stroke-width:39.3701; stroke-opacity:1; 
stroke-linecap:round; stroke-linejoin:round;">
<path d="M20988 53510
L19681 53144
" />
<path d="M22256 53833
L20988 53510
" />
<path d="M24296 54305
L22256 53833
" />
<path d="M26626 54770
L24296 54305
" />
<path d="M28697 55116
L26626 54770
" />
<path d="M30784 55400
L28697 55116
" />
<path d="M32894 55620
L30784 55400
" />
<path d="M34937 55781
L32894 55620
" />
<path d="M36567 55864
L34937 55781
" />
<path d="M38819 55907
L36567 55864
" />
<path d="M40386 55907
L38819 55907
" />
<path d="M41815 55872
L40386 55907
" />
<path d="M43882 55770
L41815 55872
" />
<path d="M45607 55644
L43882 55770
" />
<path d="M47622 55431
L45607 55644
" />
<path d="M49197 55234
L47622 55431
" />
<path d="M51193 54927
L49197 55234
" />
<path d="M53288 54541
L51193 54927
" />
<path d="M54823 54218
L53288 54541
" />
<path d="M56284 53880
L54823 54218
" />
<path d="M57953 53451
L56284 53880
" />
<path d="M59051 53144
L57953 53451
" />
<path d="M59055.1 18110.2 A1574.8 1574.8 0.0 0 0 57480.3 16535.4 " />
<path d="M21259.8 16535.4 A1574.8 1574.8 0.0 0 0 19685 18110.2 " />
<path d="M59055 18110
L59055 25590
" />
<path d="M19685 18110
L19685 53149
" />
<path d="M59055 18110
L59055 53149
" />
<path d="M21259 16535
L57480 16535
" />
</g>
<g style="fill:#840000; fill-opacity:0.0; 
stroke:#840000; stroke-width:39.3701; stroke-opacity:1; 
stroke-linecap:round; stroke-linejoin:round;">
</g>
<g style="fill:#840000; fill-opacity:0.0; 
stroke:#840000; stroke-width:59.0551; stroke-opacity:1; 
stroke-linecap:round; stroke-linejoin:round;">
<path d="M28997 38526
L28603 38526
" />
<path d="M28790 38526
L28790 38751
" />
<path d="M28997 38751
L28603 38751
" />
<path d="M28603 38882
L28997 39013
L28603 39145
" />
<path d="M28603 39463
L28603 39276
L28790 39257
L28772 39276
L28753 39313
L28753 39407
L28772 39445
L28790 39463
L28828 39482
L28922 39482
L28959 39463
L28978 39445
L28997 39407
L28997 39313
L28978 39276
L28959 39257
" />
<path d="M28603 39726
L28603 39763
L28622 39801
L28640 39820
L28678 39838
L28753 39857
L28847 39857
L28922 39838
L28959 39820
L28978 39801
L28997 39763
L28997 39726
L28978 39688
L28959 39670
L28922 39651
L28847 39632
L28753 39632
L28678 39651
L28640 39670
L28622 39688
L28603 39726
" />
<path d="M28603 39988
L28603 40251
L28997 40082
" />
<path d="M26785 28808
L27009 28808
" />
<path d="M26897 28808
L26897 28414
L26934 28470
L26972 28508
L27009 28526
" />
<path d="M26616 28808
L26616 28414
L26485 28695
L26353 28414
L26353 28808
" />
<path d="M25978 28414
L26166 28414
L26185 28601
L26166 28583
L26128 28564
L26035 28564
L25997 28583
L25978 28601
L25960 28639
L25960 28733
L25978 28770
L25997 28789
L26035 28808
L26128 28808
L26166 28789
L26185 28770
" />
<path d="M35048 21417
L35010 21417
L34973 21436
L34954 21454
L34935 21492
L34916 21567
L34916 21661
L34935 21736
L34954 21773
L34973 21792
L35010 21811
L35048 21811
L35085 21792
L35104 21773
L35123 21736
L35141 21661
L35141 21567
L35123 21492
L35104 21454
L35085 21436
L35048 21417
" />
<path d="M34523 21811
L34654 21623
" />
<path d="M34748 21811
L34748 21417
L34598 21417
L34560 21436
L34541 21454
L34523 21492
L34523 21548
L34541 21586
L34560 21604
L34598 21623
L34748 21623
" />
<path d="M34279 21417
L34241 21417
L34204 21436
L34185 21454
L34166 21492
L34148 21567
L34148 21661
L34166 21736
L34185 21773
L34204 21792
L34241 21811
L34279 21811
L34316 21792
L34335 21773
L34354 21736
L34373 21661
L34373 21567
L34354 21492
L34335 21454
L34316 21436
L34279 21417
" />
<path d="M33792 21417
L33979 21417
L33998 21604
L33979 21586
L33941 21567
L33848 21567
L33810 21586
L33792 21604
L33773 21642
L33773 21736
L33792 21773
L33810 21792
L33848 21811
L33941 21811
L33979 21792
L33998 21773
" />
<path d="M33529 21417
L33492 21417
L33454 21436
L33435 21454
L33417 21492
L33398 21567
L33398 21661
L33417 21736
L33435 21773
L33454 21792
L33492 21811
L33529 21811
L33567 21792
L33585 21773
L33604 21736
L33623 21661
L33623 21567
L33604 21492
L33585 21454
L33567 21436
L33529 21417
" />
<path d="M36116 26001
L36341 26001
" />
<path d="M36229 26001
L36229 25608
L36266 25664
L36304 25701
L36341 25720
" />
<path d="M35873 25608
L35835 25608
L35798 25626
L35779 25645
L35760 25683
L35741 25758
L35741 25851
L35760 25926
L35779 25964
L35798 25982
L35835 26001
L35873 26001
L35910 25982
L35929 25964
L35948 25926
L35966 25851
L35966 25758
L35948 25683
L35929 25645
L35910 25626
L35873 25608
" />
<path d="M35498 25608
L35460 25608
L35423 25626
L35404 25645
L35385 25683
L35366 25758
L35366 25851
L35385 25926
L35404 25964
L35423 25982
L35460 26001
L35498 26001
L35535 25982
L35554 25964
L35573 25926
L35591 25851
L35591 25758
L35573 25683
L35554 25645
L35535 25626
L35498 25608
" />
<path d="M35029 25739
L35029 26001
" />
<path d="M35198 25739
L35198 25945
L35179 25982
L35141 26001
L35085 26001
L35048 25982
L35029 25964
" />
<path d="M34842 26001
L34842 25608
" />
<path d="M34842 25795
L34617 25795
" />
<path d="M34617 26001
L34617 25608
" />
<path d="M36898 16230
L36766 16230
" />
<path d="M36710 16437
L36898 16437
L36898 16043
L36710 16043
" />
<path d="M36560 16418
L36504 16437
L36410 16437
L36373 16418
L36354 16399
L36335 16362
L36335 16324
L36354 16287
L36373 16268
L36410 16249
L36485 16230
L36523 16212
L36541 16193
L36560 16155
L36560 16118
L36541 16080
L36523 16062
L36485 16043
L36391 16043
L36335 16062
" />
<path d="M36185 16080
L36166 16062
L36129 16043
L36035 16043
L35998 16062
L35979 16080
L35960 16118
L35960 16155
L35979 16212
L36204 16437
L35960 16437
" />
<path d="M35660 16230
L35792 16230
" />
<path d="M35792 16437
L35792 16043
L35604 16043
" />
<path d="M35098 22404
L34704 22404
" />
<path d="M35098 22817
L34910 22685
" />
<path d="M35098 22592
L34704 22592
L34704 22742
L34723 22779
L34741 22798
L34779 22817
L34835 22817
L34873 22798
L34891 22779
L34910 22742
L34910 22592
" />
<path d="M34891 23117
L34891 22985
" />
<path d="M35098 22985
L34704 22985
L34704 23173
" />
<path d="M34873 23679
L34854 23641
L34835 23623
L34798 23604
L34779 23604
L34741 23623
L34723 23641
L34704 23679
L34704 23754
L34723 23791
L34741 23810
L34779 23829
L34798 23829
L34835 23810
L34854 23791
L34873 23754
L34873 23679
L34891 23641
L34910 23623
L34948 23604
L35023 23604
L35060 23623
L35079 23641
L35098 23679
L35098 23754
L35079 23791
L35060 23810
L35023 23829
L34948 23829
L34910 23810
L34891 23791
L34873 23754
" />
<path d="M34835 24166
L35098 24166
" />
<path d="M34685 24073
L34966 23979
L34966 24223
" />
<path d="M34704 24448
L34704 24485
L34723 24523
L34741 24541
L34779 24560
L34854 24579
L34948 24579
L35023 24560
L35060 24541
L35079 24523
L35098 24485
L35098 24448
L35079 24410
L35060 24391
L35023 24373
L34948 24354
L34854 24354
L34779 24373
L34741 24391
L34723 24410
L34704 24448
" />
<path d="M35079 24729
L35098 24785
L35098 24879
L35079 24916
L35060 24935
L35023 24954
L34985 24954
L34948 24935
L34929 24916
L34910 24879
L34891 24804
L34873 24766
L34854 24748
L34816 24729
L34779 24729
L34741 24748
L34723 24766
L34704 24804
L34704 24898
L34723 24954
" />
<path d="M31479 27274
L31704 27274
" />
<path d="M31591 27274
L31591 26881
L31629 26937
L31666 26974
L31704 26993
" />
<path d="M31235 26881
L31198 26881
L31160 26900
L31141 26918
L31123 26956
L31104 27031
L31104 27124
L31123 27199
L31141 27237
L31160 27256
L31198 27274
L31235 27274
L31273 27256
L31291 27237
L31310 27199
L31329 27124
L31329 27031
L31310 26956
L31291 26918
L31273 26900
L31235 26881
" />
<path d="M30860 26881
L30823 26881
L30785 26900
L30766 26918
L30748 26956
L30729 27031
L30729 27124
L30748 27199
L30766 27237
L30785 27256
L30823 27274
L30860 27274
L30898 27256
L30916 27237
L30935 27199
L30954 27124
L30954 27031
L30935 26956
L30916 26918
L30898 26900
L30860 26881
" />
<path d="M30560 27012
L30560 27274
" />
<path d="M30560 27049
L30541 27031
L30504 27012
L30448 27012
L30410 27031
L30392 27068
L30392 27274
" />
<path d="M30073 27068
L30204 27068
" />
<path d="M30204 27274
L30204 26881
L30017 26881
" />
<path d="M30374 22660
L30374 22435
" />
<path d="M30374 22548
L29981 22548
L30037 22510
L30074 22473
L30093 22435
" />
<path d="M29981 22904
L29981 22941
L30000 22979
L30018 22998
L30056 23016
L30131 23035
L30224 23035
L30299 23016
L30337 22998
L30356 22979
L30374 22941
L30374 22904
L30356 22867
L30337 22848
L30299 22829
L30224 22810
L30131 22810
L30056 22829
L30018 22848
L30000 22867
L29981 22904
" />
<path d="M29981 23279
L29981 23316
L30000 23354
L30018 23373
L30056 23391
L30131 23410
L30224 23410
L30299 23391
L30337 23373
L30356 23354
L30374 23316
L30374 23279
L30356 23241
L30337 23223
L30299 23204
L30224 23185
L30131 23185
L30056 23204
L30018 23223
L30000 23241
L29981 23279
" />
<path d="M30112 23579
L30374 23579
" />
<path d="M30149 23579
L30131 23598
L30112 23635
L30112 23691
L30131 23729
L30168 23748
L30374 23748
" />
<path d="M30168 24066
L30168 23935
" />
<path d="M30374 23935
L29981 23935
L29981 24123
" />
<path d="M31179 29311
L31404 29311
" />
<path d="M31291 29311
L31291 28917
L31329 28973
L31366 29011
L31404 29029
" />
<path d="M30935 28917
L30898 28917
L30860 28936
L30841 28954
L30823 28992
L30804 29067
L30804 29161
L30823 29236
L30841 29273
L30860 29292
L30898 29311
L30935 29311
L30973 29292
L30991 29273
L31010 29236
L31029 29161
L31029 29067
L31010 28992
L30991 28954
L30973 28936
L30935 28917
" />
<path d="M30466 29048
L30466 29311
" />
<path d="M30635 29048
L30635 29254
L30616 29292
L30579 29311
L30523 29311
L30485 29292
L30466 29273
" />
<path d="M30148 29104
L30279 29104
" />
<path d="M30279 29311
L30279 28917
L30091 28917
" />
<path d="M29923 29292
L29923 29311
L29941 29348
L29960 29367
" />
<path d="M29473 28954
L29454 28936
L29417 28917
L29323 28917
L29285 28936
L29267 28954
L29248 28992
L29248 29029
L29267 29086
L29492 29311
L29248 29311
" />
<path d="M28892 28917
L29079 28917
L29098 29104
L29079 29086
L29042 29067
L28948 29067
L28910 29086
L28892 29104
L28873 29142
L28873 29236
L28892 29273
L28910 29292
L28948 29311
L29042 29311
L29079 29292
L29098 29273
" />
<path d="M28760 28917
L28629 29311
L28498 28917
" />
<path d="M30149 25773
L30131 25735
L30112 25716
L30074 25698
L30056 25698
L30018 25716
L30000 25735
L29981 25773
L29981 25848
L30000 25885
L30018 25904
L30056 25923
L30074 25923
L30112 25904
L30131 25885
L30149 25848
L30149 25773
L30168 25735
L30187 25716
L30224 25698
L30299 25698
L30337 25716
L30356 25735
L30374 25773
L30374 25848
L30356 25885
L30337 25904
L30299 25923
L30224 25923
L30187 25904
L30168 25885
L30149 25848
" />
<path d="M30374 26091
L29981 26091
" />
<path d="M30224 26129
L30374 26241
" />
<path d="M30112 26241
L30262 26091
" />
<path d="M30735 16136
L30735 16398
" />
<path d="M30829 15986
L30923 16267
L30679 16267
" />
<path d="M30360 16136
L30360 16398
" />
<path d="M30529 16136
L30529 16342
L30510 16379
L30473 16398
L30416 16398
L30379 16379
L30360 16361
" />
<path d="M30210 16004
L29948 16004
L30116 16398
" />
<path d="M29779 16379
L29779 16398
L29798 16436
L29816 16454
" />
<path d="M29329 16042
L29310 16023
L29273 16004
L29179 16004
L29141 16023
L29123 16042
L29104 16079
L29104 16117
L29123 16173
L29348 16398
L29104 16398
" />
<path d="M28748 16004
L28935 16004
L28954 16192
L28935 16173
L28898 16154
L28804 16154
L28767 16173
L28748 16192
L28729 16229
L28729 16323
L28748 16361
L28767 16379
L28804 16398
L28898 16398
L28935 16379
L28954 16361
" />
<path d="M28485 16004
L28448 16004
L28410 16023
L28392 16042
L28373 16079
L28354 16154
L28354 16248
L28373 16323
L28392 16361
L28410 16379
L28448 16398
L28485 16398
L28523 16379
L28542 16361
L28560 16323
L28579 16248
L28579 16154
L28560 16079
L28542 16042
L28523 16023
L28485 16004
" />
<path d="M28242 16004
L28110 16398
L27979 16004
" />
<path d="M28354 24568
L28579 24568
" />
<path d="M28466 24568
L28466 24174
L28504 24231
L28541 24268
L28579 24287
" />
<path d="M28110 24174
L28073 24174
L28035 24193
L28016 24212
L27998 24249
L27979 24324
L27979 24418
L27998 24493
L28016 24531
L28035 24549
L28073 24568
L28110 24568
L28148 24549
L28166 24531
L28185 24493
L28204 24418
L28204 24324
L28185 24249
L28166 24212
L28148 24193
L28110 24174
" />
<path d="M27735 24174
L27698 24174
L27660 24193
L27641 24212
L27623 24249
L27604 24324
L27604 24418
L27623 24493
L27641 24531
L27660 24549
L27698 24568
L27735 24568
L27773 24549
L27791 24531
L27810 24493
L27829 24418
L27829 24324
L27810 24249
L27791 24212
L27773 24193
L27735 24174
" />
<path d="M27435 24306
L27435 24568
" />
<path d="M27435 24343
L27416 24324
L27379 24306
L27323 24306
L27285 24324
L27266 24362
L27266 24568
" />
<path d="M26948 24362
L27079 24362
" />
<path d="M27079 24568
L27079 24174
L26891 24174
" />
<path d="M26723 24549
L26723 24568
L26741 24606
L26760 24624
" />
<path d="M26273 24212
L26254 24193
L26217 24174
L26123 24174
L26085 24193
L26067 24212
L26048 24249
L26048 24287
L26067 24343
L26292 24568
L26048 24568
" />
<path d="M25692 24174
L25879 24174
L25898 24362
L25879 24343
L25842 24324
L25748 24324
L25710 24343
L25692 24362
L25673 24399
L25673 24493
L25692 24531
L25710 24549
L25748 24568
L25842 24568
L25879 24549
L25898 24531
" />
<path d="M25429 24174
L25392 24174
L25354 24193
L25335 24212
L25317 24249
L25298 24324
L25298 24418
L25317 24493
L25335 24531
L25354 24549
L25392 24568
L25429 24568
L25467 24549
L25485 24531
L25504 24493
L25523 24418
L25523 24324
L25504 24249
L25485 24212
L25467 24193
L25429 24174
" />
<path d="M25185 24174
L25054 24568
L24923 24174
" />
<path d="M30566 31168
L30791 31168
" />
<path d="M30679 31168
L30679 30774
L30716 30831
L30754 30868
L30791 30887
" />
<path d="M30323 30774
L30285 30774
L30248 30793
L30229 30812
L30210 30849
L30191 30924
L30191 31018
L30210 31093
L30229 31131
L30248 31149
L30285 31168
L30323 31168
L30360 31149
L30379 31131
L30398 31093
L30416 31018
L30416 30924
L30398 30849
L30379 30812
L30360 30793
L30323 30774
" />
<path d="M29948 30774
L29910 30774
L29873 30793
L29854 30812
L29835 30849
L29816 30924
L29816 31018
L29835 31093
L29854 31131
L29873 31149
L29910 31168
L29948 31168
L29985 31149
L30004 31131
L30023 31093
L30041 31018
L30041 30924
L30023 30849
L30004 30812
L29985 30793
L29948 30774
" />
<path d="M29479 30906
L29479 31168
" />
<path d="M29648 30906
L29648 31112
L29629 31149
L29591 31168
L29535 31168
L29498 31149
L29479 31131
" />
<path d="M29160 30962
L29291 30962
" />
<path d="M29291 31168
L29291 30774
L29104 30774
" />
<path d="M28935 31149
L28935 31168
L28954 31206
L28973 31224
" />
<path d="M28504 30774
L28260 30774
L28392 30924
L28335 30924
L28298 30943
L28279 30962
L28260 30999
L28260 31093
L28279 31131
L28298 31149
L28335 31168
L28448 31168
L28485 31149
L28504 31131
" />
<path d="M27904 30774
L28092 30774
L28110 30962
L28092 30943
L28054 30924
L27960 30924
L27923 30943
L27904 30962
L27885 30999
L27885 31093
L27904 31131
L27923 31149
L27960 31168
L28054 31168
L28092 31149
L28110 31131
" />
<path d="M27773 30774
L27642 31168
L27510 30774
" />
<path d="M32941 24648
L32941 24254
L32810 24535
L32679 24254
L32679 24648
" />
<path d="M32510 24535
L32323 24535
" />
<path d="M32548 24648
L32416 24254
L32285 24648
" />
<path d="M32191 24254
L31929 24648
" />
<path d="M31929 24254
L32191 24648
" />
<path d="M31573 24648
L31798 24648
" />
<path d="M31685 24648
L31685 24254
L31723 24310
L31760 24348
L31798 24366
" />
<path d="M31441 24254
L31179 24254
L31348 24648
" />
<path d="M31066 24254
L30804 24254
L30973 24648
" />
<path d="M30448 24648
L30673 24648
" />
<path d="M30560 24648
L30560 24254
L30598 24310
L30635 24348
L30673 24366
" />
<path d="M30279 24441
L30148 24441
" />
<path d="M30092 24648
L30279 24648
L30279 24254
L30092 24254
" />
<path d="M29942 24629
L29885 24648
L29792 24648
L29754 24629
L29735 24610
L29717 24573
L29717 24535
L29735 24498
L29754 24479
L29792 24460
L29867 24441
L29904 24423
L29923 24404
L29942 24366
L29942 24329
L29923 24291
L29904 24273
L29867 24254
L29773 24254
L29717 24273
" />
<path d="M29567 24535
L29379 24535
" />
<path d="M29604 24648
L29473 24254
L29342 24648
" />
<path d="M48289 20875
L48289 20650
" />
<path d="M48289 20762
L47896 20762
L47952 20725
L47989 20687
L48008 20650
" />
<path d="M48027 21212
L48289 21212
" />
<path d="M48027 21043
L48233 21043
L48271 21062
L48289 21100
L48289 21156
L48271 21193
L48252 21212
" />
<path d="M48083 21531
L48083 21400
" />
<path d="M48289 21400
L47896 21400
L47896 21587
" />
<path d="M56080 20868
L56061 20887
L56042 20925
L56042 21018
L56061 21056
L56080 21075
L56117 21093
L56155 21093
L56211 21075
L56436 20850
L56436 21093
" />
<path d="M56398 21262
L56417 21281
L56436 21262
L56417 21243
L56398 21262
L56436 21262
" />
<path d="M56080 21431
L56061 21450
L56042 21487
L56042 21581
L56061 21618
L56080 21637
L56117 21656
L56155 21656
L56211 21637
L56436 21412
L56436 21656
" />
<path d="M56173 21993
L56436 21993
" />
<path d="M56173 21825
L56380 21825
L56417 21843
L56436 21881
L56436 21937
L56417 21975
L56398 21993
" />
<path d="M56230 22312
L56230 22181
" />
<path d="M56436 22181
L56042 22181
L56042 22368
" />
<path d="M47736 19875
L47736 19650
" />
<path d="M47736 19762
L47342 19762
L47398 19725
L47436 19687
L47455 19650
" />
<path d="M47473 20212
L47736 20212
" />
<path d="M47473 20043
L47680 20043
L47717 20062
L47736 20100
L47736 20156
L47717 20193
L47698 20212
" />
<path d="M47530 20531
L47530 20400
" />
<path d="M47736 20400
L47342 20400
L47342 20587
" />
<path d="M56933 20868
L56914 20887
L56896 20925
L56896 21018
L56914 21056
L56933 21075
L56971 21093
L57008 21093
L57064 21075
L57289 20850
L57289 21093
" />
<path d="M57252 21262
L57271 21281
L57289 21262
L57271 21243
L57252 21262
L57289 21262
" />
<path d="M56933 21431
L56914 21450
L56896 21487
L56896 21581
L56914 21618
L56933 21637
L56971 21656
L57008 21656
L57064 21637
L57289 21412
L57289 21656
" />
<path d="M57027 21993
L57289 21993
" />
<path d="M57027 21825
L57233 21825
L57271 21843
L57289 21881
L57289 21937
L57271 21975
L57252 21993
" />
<path d="M57083 22312
L57083 22181
" />
<path d="M57289 22181
L56896 22181
L56896 22368
" />
<path d="M50099 38526
L49705 38526
" />
<path d="M49893 38526
L49893 38751
" />
<path d="M50099 38751
L49705 38751
" />
<path d="M49705 38882
L50099 39013
L49705 39145
" />
<path d="M49705 39463
L49705 39276
L49893 39257
L49874 39276
L49855 39313
L49855 39407
L49874 39445
L49893 39463
L49930 39482
L50024 39482
L50061 39463
L50080 39445
L50099 39407
L50099 39313
L50080 39276
L50061 39257
" />
<path d="M49705 39726
L49705 39763
L49724 39801
L49743 39820
L49780 39838
L49855 39857
L49949 39857
L50024 39838
L50061 39820
L50080 39801
L50099 39763
L50099 39726
L50080 39688
L50061 39670
L50024 39651
L49949 39632
L49855 39632
L49780 39651
L49743 39670
L49724 39688
L49705 39726
" />
<path d="M49705 39988
L49705 40251
L50099 40082
" />
<path d="M57292 38554
L57161 38554
" />
<path d="M57105 38760
L57292 38760
L57292 38367
L57105 38367
" />
<path d="M56955 38742
L56899 38760
L56805 38760
L56767 38742
L56749 38723
L56730 38685
L56730 38648
L56749 38610
L56767 38592
L56805 38573
L56880 38554
L56917 38535
L56936 38517
L56955 38479
L56955 38442
L56936 38404
L56917 38385
L56880 38367
L56786 38367
L56730 38385
" />
<path d="M56561 38760
L56561 38367
L56411 38367
L56374 38385
L56355 38404
L56336 38442
L56336 38498
L56355 38535
L56374 38554
L56411 38573
L56561 38573
" />
<path d="M56111 38535
L56149 38517
L56167 38498
L56186 38460
L56186 38442
L56167 38404
L56149 38385
L56111 38367
L56036 38367
L55999 38385
L55980 38404
L55961 38442
L55961 38460
L55980 38498
L55999 38517
L56036 38535
L56111 38535
L56149 38554
L56167 38573
L56186 38610
L56186 38685
L56167 38723
L56149 38742
L56111 38760
L56036 38760
L55999 38742
L55980 38723
L55961 38685
L55961 38610
L55980 38573
L55999 38554
L56036 38535
" />
<path d="M55811 38404
L55793 38385
L55755 38367
L55661 38367
L55624 38385
L55605 38404
L55586 38442
L55586 38479
L55605 38535
L55830 38760
L55586 38760
" />
<path d="M55249 38367
L55324 38367
L55361 38385
L55380 38404
L55418 38460
L55436 38535
L55436 38685
L55418 38723
L55399 38742
L55361 38760
L55286 38760
L55249 38742
L55230 38723
L55211 38685
L55211 38592
L55230 38554
L55249 38535
L55286 38517
L55361 38517
L55399 38535
L55418 38554
L55436 38592
" />
<path d="M54874 38367
L54949 38367
L54986 38385
L55005 38404
L55043 38460
L55061 38535
L55061 38685
L55043 38723
L55024 38742
L54986 38760
L54911 38760
L54874 38742
L54855 38723
L54836 38685
L54836 38592
L54855 38554
L54874 38535
L54911 38517
L54986 38517
L55024 38535
L55043 38554
L55061 38592
" />
<path d="M54761 38798
L54461 38798
" />
<path d="M54386 38742
L54330 38760
L54236 38760
L54199 38742
L54180 38723
L54161 38685
L54161 38648
L54180 38610
L54199 38592
L54236 38573
L54311 38554
L54349 38535
L54368 38517
L54386 38479
L54386 38442
L54368 38404
L54349 38385
L54311 38367
L54218 38367
L54161 38385
" />
<path d="M53993 38760
L53993 38367
L53862 38648
L53730 38367
L53730 38760
" />
<path d="M53543 38760
L53543 38367
L53449 38367
L53393 38385
L53355 38423
L53337 38460
L53318 38535
L53318 38592
L53337 38667
L53355 38704
L53393 38742
L53449 38760
L53543 38760
" />
<path d="M24390 17440
L23997 17440
L23997 17533
L24015 17589
L24053 17627
L24090 17646
L24165 17664
L24221 17664
L24296 17646
L24334 17627
L24371 17589
L24390 17533
L24390 17440
" />
<path d="M24353 18058
L24371 18039
L24390 17983
L24390 17946
L24371 17889
L24334 17852
L24296 17833
L24221 17814
L24165 17814
L24090 17833
L24053 17852
L24015 17889
L23997 17946
L23997 17983
L24015 18039
L24034 18058
" />
<path d="M24428 18133
L24428 18433
" />
<path d="M23997 18639
L24278 18639
L24334 18621
L24371 18583
L24390 18527
L24390 18489
" />
<path d="M24278 18808
L24278 18996
" />
<path d="M24390 18771
L23997 18902
L24390 19033
" />
<path d="M24353 19389
L24371 19371
L24390 19314
L24390 19277
L24371 19221
L24334 19183
L24296 19164
L24221 19146
L24165 19146
L24090 19164
L24053 19183
L24015 19221
L23997 19277
L23997 19314
L24015 19371
L24034 19389
" />
<path d="M24390 19558
L23997 19558
" />
<path d="M24390 19783
L24165 19614
" />
<path d="M23997 19783
L24221 19558
" />
<path d="M43427 21963
L43427 22207
L43577 22076
L43577 22132
L43596 22170
L43615 22188
L43652 22207
L43746 22207
L43783 22188
L43802 22170
L43821 22132
L43821 22020
L43802 21982
L43783 21963
" />
<path d="M43821 22395
L43821 22470
L43802 22507
L43783 22526
L43727 22563
L43652 22582
L43502 22582
L43465 22563
L43446 22545
L43427 22507
L43427 22432
L43446 22395
L43465 22376
L43502 22357
L43596 22357
L43633 22376
L43652 22395
L43671 22432
L43671 22507
L43652 22545
L43633 22563
L43596 22582
" />
<path d="M43427 22826
L43427 22863
L43446 22901
L43465 22920
L43502 22938
L43577 22957
L43671 22957
L43746 22938
L43783 22920
L43802 22901
L43821 22863
L43821 22826
L43802 22788
L43783 22770
L43746 22751
L43671 22732
L43577 22732
L43502 22751
L43465 22770
L43446 22788
L43427 22826
" />
<path d="M55442 19243
L55442 19487
L55592 19356
L55592 19412
L55611 19450
L55630 19468
L55667 19487
L55761 19487
L55798 19468
L55817 19450
L55836 19412
L55836 19300
L55817 19262
L55798 19243
" />
<path d="M55836 19675
L55836 19750
L55817 19787
L55798 19806
L55742 19843
L55667 19862
L55517 19862
L55480 19843
L55461 19825
L55442 19787
L55442 19712
L55461 19675
L55480 19656
L55517 19637
L55611 19637
L55648 19656
L55667 19675
L55686 19712
L55686 19787
L55667 19825
L55648 19843
L55611 19862
" />
<path d="M55442 20106
L55442 20143
L55461 20181
L55480 20200
L55517 20218
L55592 20237
L55686 20237
L55761 20218
L55798 20200
L55817 20181
L55836 20143
L55836 20106
L55817 20068
L55798 20050
L55761 20031
L55686 20012
L55592 20012
L55517 20031
L55480 20050
L55461 20068
L55442 20106
" />
<path d="M55836 20406
L55442 20406
" />
<path d="M55686 20443
L55836 20556
" />
<path d="M55573 20556
L55723 20406
" />
<path d="M58889 21000
L58889 20775
" />
<path d="M58889 20887
L58496 20887
L58552 20850
L58589 20812
L58608 20775
" />
<path d="M58496 21243
L58496 21281
L58514 21318
L58533 21337
L58571 21356
L58646 21375
L58739 21375
L58814 21356
L58852 21337
L58871 21318
L58889 21281
L58889 21243
L58871 21206
L58852 21187
L58814 21168
L58739 21150
L58646 21150
L58571 21168
L58533 21187
L58514 21206
L58496 21243
" />
<path d="M58496 21618
L58496 21656
L58514 21693
L58533 21712
L58571 21731
L58646 21750
L58739 21750
L58814 21731
L58852 21712
L58871 21693
L58889 21656
L58889 21618
L58871 21581
L58852 21562
L58814 21543
L58739 21525
L58646 21525
L58571 21543
L58533 21562
L58514 21581
L58496 21618
" />
<path d="M58627 21918
L58889 21918
" />
<path d="M58664 21918
L58646 21937
L58627 21975
L58627 22031
L58646 22068
L58683 22087
L58889 22087
" />
<path d="M58683 22406
L58683 22274
" />
<path d="M58889 22274
L58496 22274
L58496 22462
" />
<path d="M57065 16832
L56671 16832
L56671 16926
L56690 16982
L56727 17020
L56765 17038
L56840 17057
L56896 17057
L56971 17038
L57008 17020
L57046 16982
L57065 16926
L57065 16832
" />
<path d="M57102 17132
L57102 17432
" />
<path d="M57046 17507
L57065 17563
L57065 17657
L57046 17695
L57027 17713
L56990 17732
L56952 17732
L56915 17713
L56896 17695
L56877 17657
L56858 17582
L56840 17545
L56821 17526
L56783 17507
L56746 17507
L56708 17526
L56690 17545
L56671 17582
L56671 17676
L56690 17732
" />
<path d="M57065 17901
L56802 17901
" />
<path d="M56840 17901
L56821 17920
L56802 17957
L56802 18013
L56821 18051
L56858 18070
L57065 18070
" />
<path d="M56858 18070
L56821 18088
L56802 18126
L56802 18182
L56821 18220
L56858 18238
L57065 18238
" />
<path d="M57065 18594
L56858 18594
L56821 18576
L56802 18538
L56802 18463
L56821 18426
" />
<path d="M57046 18594
L57065 18557
L57065 18463
L57046 18426
L57008 18407
L56971 18407
L56933 18426
L56915 18463
L56915 18557
L56896 18594
" />
<path d="M57065 18838
L57046 18801
L57008 18782
L56671 18782
" />
<path d="M57065 19044
L57046 19007
L57008 18988
L56671 18988
" />
<path d="M57783 24335
L57783 23941
L57689 23941
L57633 23960
L57595 23998
L57576 24035
L57558 24110
L57558 24166
L57576 24241
L57595 24279
L57633 24316
L57689 24335
L57783 24335
" />
<path d="M57483 24373
L57183 24373
" />
<path d="M57108 24316
L57051 24335
L56958 24335
L56920 24316
L56901 24298
L56883 24260
L56883 24223
L56901 24185
L56920 24166
L56958 24148
L57033 24129
L57070 24110
L57089 24091
L57108 24054
L57108 24016
L57089 23979
L57070 23960
L57033 23941
L56939 23941
L56883 23960
" />
<path d="M56714 24335
L56714 24073
" />
<path d="M56714 24110
L56695 24091
L56658 24073
L56601 24073
L56564 24091
L56545 24129
L56545 24335
" />
<path d="M56545 24129
L56526 24091
L56489 24073
L56433 24073
L56395 24091
L56376 24129
L56376 24335
" />
<path d="M56020 24335
L56020 24129
L56039 24091
L56076 24073
L56151 24073
L56189 24091
" />
<path d="M56020 24316
L56058 24335
L56151 24335
L56189 24316
L56208 24279
L56208 24241
L56189 24204
L56151 24185
L56058 24185
L56020 24166
" />
<path d="M55777 24335
L55814 24316
L55833 24279
L55833 23941
" />
<path d="M55570 24335
L55608 24316
L55627 24279
L55627 23941
" />
<path d="M53994 21375
L53938 21394
L53919 21413
L53900 21450
L53900 21507
L53919 21544
L53938 21563
L53975 21582
L54125 21582
L54125 21188
L53994 21188
L53956 21207
L53938 21225
L53919 21263
L53919 21300
L53938 21338
L53956 21357
L53994 21375
L54125 21375
" />
<path d="M53750 21563
L53694 21582
L53600 21582
L53563 21563
L53544 21544
L53525 21507
L53525 21469
L53544 21432
L53563 21413
L53600 21394
L53675 21375
L53713 21357
L53731 21338
L53750 21300
L53750 21263
L53731 21225
L53713 21207
L53675 21188
L53581 21188
L53525 21207
" />
<path d="M53375 21563
L53319 21582
L53225 21582
L53188 21563
L53169 21544
L53150 21507
L53150 21469
L53169 21432
L53188 21413
L53225 21394
L53300 21375
L53338 21357
L53356 21338
L53375 21300
L53375 21263
L53356 21225
L53338 21207
L53300 21188
L53206 21188
L53150 21207
" />
<path d="M52775 21582
L53000 21582
" />
<path d="M52888 21582
L52888 21188
L52925 21244
L52963 21282
L53000 21300
" />
<path d="M52644 21188
L52400 21188
L52531 21338
L52475 21338
L52438 21357
L52419 21375
L52400 21413
L52400 21507
L52419 21544
L52438 21563
L52475 21582
L52588 21582
L52625 21563
L52644 21544
" />
<path d="M52175 21357
L52213 21338
L52232 21319
L52250 21282
L52250 21263
L52232 21225
L52213 21207
L52175 21188
L52100 21188
L52063 21207
L52044 21225
L52025 21263
L52025 21282
L52044 21319
L52063 21338
L52100 21357
L52175 21357
L52213 21375
L52232 21394
L52250 21432
L52250 21507
L52232 21544
L52213 21563
L52175 21582
L52100 21582
L52063 21563
L52044 21544
L52025 21507
L52025 21432
L52044 21394
L52063 21375
L52100 21357
" />
<path d="M51344 21275
L51288 21294
L51269 21313
L51250 21350
L51250 21407
L51269 21444
L51288 21463
L51325 21482
L51475 21482
L51475 21088
L51344 21088
L51306 21107
L51288 21125
L51269 21163
L51269 21200
L51288 21238
L51306 21257
L51344 21275
L51475 21275
" />
<path d="M51100 21463
L51044 21482
L50950 21482
L50913 21463
L50894 21444
L50875 21407
L50875 21369
L50894 21332
L50913 21313
L50950 21294
L51025 21275
L51063 21257
L51081 21238
L51100 21200
L51100 21163
L51081 21125
L51063 21107
L51025 21088
L50931 21088
L50875 21107
" />
<path d="M50725 21463
L50669 21482
L50575 21482
L50538 21463
L50519 21444
L50500 21407
L50500 21369
L50519 21332
L50538 21313
L50575 21294
L50650 21275
L50688 21257
L50706 21238
L50725 21200
L50725 21163
L50706 21125
L50688 21107
L50650 21088
L50556 21088
L50500 21107
" />
<path d="M50125 21482
L50350 21482
" />
<path d="M50238 21482
L50238 21088
L50275 21144
L50313 21182
L50350 21200
" />
<path d="M49994 21088
L49750 21088
L49881 21238
L49825 21238
L49788 21257
L49769 21275
L49750 21313
L49750 21407
L49769 21444
L49788 21463
L49825 21482
L49938 21482
L49975 21463
L49994 21444
" />
<path d="M49525 21257
L49563 21238
L49582 21219
L49600 21182
L49600 21163
L49582 21125
L49563 21107
L49525 21088
L49450 21088
L49413 21107
L49394 21125
L49375 21163
L49375 21182
L49394 21219
L49413 21238
L49450 21257
L49525 21257
L49563 21275
L49582 21294
L49600 21332
L49600 21407
L49582 21444
L49563 21463
L49525 21482
L49450 21482
L49413 21463
L49394 21444
L49375 21407
L49375 21332
L49394 21294
L49413 21275
L49450 21257
" />
<path d="M46627 27963
L46627 28207
L46777 28076
L46777 28132
L46796 28170
L46815 28188
L46852 28207
L46946 28207
L46983 28188
L47002 28170
L47021 28132
L47021 28020
L47002 27982
L46983 27963
" />
<path d="M47021 28395
L47021 28470
L47002 28507
L46983 28526
L46927 28563
L46852 28582
L46702 28582
L46665 28563
L46646 28545
L46627 28507
L46627 28432
L46646 28395
L46665 28376
L46702 28357
L46796 28357
L46833 28376
L46852 28395
L46871 28432
L46871 28507
L46852 28545
L46833 28563
L46796 28582
" />
<path d="M46627 28826
L46627 28863
L46646 28901
L46665 28920
L46702 28938
L46777 28957
L46871 28957
L46946 28938
L46983 28920
L47002 28901
L47021 28863
L47021 28826
L47002 28788
L46983 28770
L46946 28751
L46871 28732
L46777 28732
L46702 28751
L46665 28770
L46646 28788
L46627 28826
" />
<path d="M46081 20463
L46081 20707
L46231 20576
L46231 20632
L46249 20670
L46268 20688
L46306 20707
L46399 20707
L46437 20688
L46456 20670
L46474 20632
L46474 20520
L46456 20482
L46437 20463
" />
<path d="M46474 20895
L46474 20970
L46456 21007
L46437 21026
L46381 21063
L46306 21082
L46156 21082
L46118 21063
L46100 21045
L46081 21007
L46081 20932
L46100 20895
L46118 20876
L46156 20857
L46249 20857
L46287 20876
L46306 20895
L46324 20932
L46324 21007
L46306 21045
L46287 21063
L46249 21082
" />
<path d="M46081 21326
L46081 21363
L46100 21401
L46118 21420
L46156 21438
L46231 21457
L46324 21457
L46399 21438
L46437 21420
L46456 21401
L46474 21363
L46474 21326
L46456 21288
L46437 21270
L46399 21251
L46324 21232
L46231 21232
L46156 21251
L46118 21270
L46100 21288
L46081 21326
" />
<path d="M50519 22760
L50744 22760
" />
<path d="M50631 22760
L50631 22367
L50669 22423
L50706 22460
L50744 22479
" />
<path d="M50275 22367
L50238 22367
L50200 22385
L50181 22404
L50163 22442
L50144 22517
L50144 22610
L50163 22685
L50181 22723
L50200 22742
L50238 22760
L50275 22760
L50313 22742
L50331 22723
L50350 22685
L50369 22610
L50369 22517
L50350 22442
L50331 22404
L50313 22385
L50275 22367
" />
<path d="M49975 22760
L49975 22367
" />
<path d="M49938 22610
L49825 22760
" />
<path d="M49825 22498
L49975 22648
" />
<path d="M52136 23475
L52136 23250
" />
<path d="M52136 23362
L51742 23362
L51798 23325
L51836 23287
L51855 23250
" />
<path d="M51742 23718
L51742 23756
L51761 23793
L51780 23812
L51817 23831
L51892 23850
L51986 23850
L52061 23831
L52098 23812
L52117 23793
L52136 23756
L52136 23718
L52117 23681
L52098 23662
L52061 23643
L51986 23625
L51892 23625
L51817 23643
L51780 23662
L51761 23681
L51742 23718
" />
<path d="M52136 24018
L51742 24018
" />
<path d="M51986 24056
L52136 24168
" />
<path d="M51873 24168
L52023 24018
" />
<path d="M50886 21975
L50886 21750
" />
<path d="M50886 21862
L50492 21862
L50548 21825
L50586 21787
L50605 21750
" />
<path d="M50492 22218
L50492 22256
L50511 22293
L50530 22312
L50567 22331
L50642 22350
L50736 22350
L50811 22331
L50848 22312
L50867 22293
L50886 22256
L50886 22218
L50867 22181
L50848 22162
L50811 22143
L50736 22125
L50642 22125
L50567 22143
L50530 22162
L50511 22181
L50492 22218
" />
<path d="M50886 22518
L50492 22518
" />
<path d="M50736 22556
L50886 22668
" />
<path d="M50623 22668
L50773 22518
" />
<path d="M51189 19575
L51189 19350
" />
<path d="M51189 19462
L50796 19462
L50852 19425
L50889 19387
L50908 19350
" />
<path d="M50796 19818
L50796 19856
L50814 19893
L50833 19912
L50871 19931
L50946 19950
L51039 19950
L51114 19931
L51152 19912
L51171 19893
L51189 19856
L51189 19818
L51171 19781
L51152 19762
L51114 19743
L51039 19725
L50946 19725
L50871 19743
L50833 19762
L50814 19781
L50796 19818
" />
<path d="M51189 20118
L50796 20118
" />
<path d="M51039 20156
L51189 20268
" />
<path d="M50927 20268
L51077 20118
" />
<path d="M55289 19575
L55289 19350
" />
<path d="M55289 19462
L54896 19462
L54952 19425
L54989 19387
L55008 19350
" />
<path d="M54896 19818
L54896 19856
L54914 19893
L54933 19912
L54971 19931
L55046 19950
L55139 19950
L55214 19931
L55252 19912
L55271 19893
L55289 19856
L55289 19818
L55271 19781
L55252 19762
L55214 19743
L55139 19725
L55046 19725
L54971 19743
L54933 19762
L54914 19781
L54896 19818
" />
<path d="M55289 20118
L54896 20118
" />
<path d="M55139 20156
L55289 20268
" />
<path d="M55027 20268
L55177 20118
" />
<path d="M53889 19575
L53889 19350
" />
<path d="M53889 19462
L53496 19462
L53552 19425
L53589 19387
L53608 19350
" />
<path d="M53496 19818
L53496 19856
L53514 19893
L53533 19912
L53571 19931
L53646 19950
L53739 19950
L53814 19931
L53852 19912
L53871 19893
L53889 19856
L53889 19818
L53871 19781
L53852 19762
L53814 19743
L53739 19725
L53646 19725
L53571 19743
L53533 19762
L53514 19781
L53496 19818
" />
<path d="M53889 20118
L53496 20118
" />
<path d="M53739 20156
L53889 20268
" />
<path d="M53627 20268
L53777 20118
" />
<path d="M56683 19235
L56683 18841
L56589 18841
L56533 18860
L56495 18898
L56476 18935
L56458 19010
L56458 19066
L56476 19141
L56495 19179
L56533 19216
L56589 19235
L56683 19235
" />
<path d="M56383 19273
L56083 19273
" />
<path d="M56008 19216
L55951 19235
L55858 19235
L55820 19216
L55801 19198
L55783 19160
L55783 19123
L55801 19085
L55820 19066
L55858 19048
L55933 19029
L55970 19010
L55989 18991
L56008 18954
L56008 18916
L55989 18879
L55970 18860
L55933 18841
L55839 18841
L55783 18860
" />
<path d="M55614 19235
L55614 18973
" />
<path d="M55614 19010
L55595 18991
L55558 18973
L55501 18973
L55464 18991
L55445 19029
L55445 19235
" />
<path d="M55445 19029
L55426 18991
L55389 18973
L55333 18973
L55295 18991
L55276 19029
L55276 19235
" />
<path d="M54920 19235
L54920 19029
L54939 18991
L54976 18973
L55051 18973
L55089 18991
" />
<path d="M54920 19216
L54958 19235
L55051 19235
L55089 19216
L55108 19179
L55108 19141
L55089 19104
L55051 19085
L54958 19085
L54920 19066
" />
<path d="M54677 19235
L54714 19216
L54733 19179
L54733 18841
" />
<path d="M54470 19235
L54508 19216
L54527 19179
L54527 18841
" />
<path d="M49847 27560
L49866 27617
L49884 27635
L49922 27654
L49978 27654
L50016 27635
L50034 27617
L50053 27579
L50053 27429
L49659 27429
L49659 27560
L49678 27598
L49697 27617
L49734 27635
L49772 27635
L49809 27617
L49828 27598
L49847 27560
L49847 27429
" />
<path d="M50034 27804
L50053 27860
L50053 27954
L50034 27992
L50016 28010
L49978 28029
L49941 28029
L49903 28010
L49884 27992
L49866 27954
L49847 27879
L49828 27842
L49809 27823
L49772 27804
L49734 27804
L49697 27823
L49678 27842
L49659 27879
L49659 27973
L49678 28029
" />
<path d="M50034 28179
L50053 28235
L50053 28329
L50034 28366
L50016 28385
L49978 28404
L49941 28404
L49903 28385
L49884 28366
L49866 28329
L49847 28254
L49828 28216
L49809 28198
L49772 28179
L49734 28179
L49697 28198
L49678 28216
L49659 28254
L49659 28348
L49678 28404
" />
<path d="M50053 28779
L50053 28554
" />
<path d="M50053 28666
L49659 28666
L49716 28629
L49753 28591
L49772 28554
" />
<path d="M49659 28910
L49659 29154
L49809 29023
L49809 29079
L49828 29116
L49847 29135
L49884 29154
L49978 29154
L50016 29135
L50034 29116
L50053 29079
L50053 28966
L50034 28929
L50016 28910
" />
<path d="M49828 29379
L49809 29341
L49791 29323
L49753 29304
L49734 29304
L49697 29323
L49678 29341
L49659 29379
L49659 29454
L49678 29491
L49697 29510
L49734 29529
L49753 29529
L49791 29510
L49809 29491
L49828 29454
L49828 29379
L49847 29341
L49866 29323
L49903 29304
L49978 29304
L50016 29323
L50034 29341
L50053 29379
L50053 29454
L50034 29491
L50016 29510
L49978 29529
L49903 29529
L49866 29510
L49847 29491
L49828 29454
" />
<path d="M51989 19575
L51989 19350
" />
<path d="M51989 19462
L51596 19462
L51652 19425
L51689 19387
L51708 19350
" />
<path d="M51596 19818
L51596 19856
L51614 19893
L51633 19912
L51671 19931
L51746 19950
L51839 19950
L51914 19931
L51952 19912
L51971 19893
L51989 19856
L51989 19818
L51971 19781
L51952 19762
L51914 19743
L51839 19725
L51746 19725
L51671 19743
L51633 19762
L51614 19781
L51596 19818
" />
<path d="M51989 20118
L51596 20118
" />
<path d="M51839 20156
L51989 20268
" />
<path d="M51727 20268
L51877 20118
" />
<path d="M56469 26750
L56487 26768
L56544 26787
L56581 26787
L56637 26768
L56675 26731
L56694 26693
L56712 26618
L56712 26562
L56694 26487
L56675 26450
L56637 26412
L56581 26393
L56544 26393
L56487 26412
L56469 26431
" />
<path d="M56225 26393
L56150 26393
L56113 26412
L56075 26450
L56056 26525
L56056 26656
L56075 26731
L56113 26768
L56150 26787
L56225 26787
L56262 26768
L56300 26731
L56319 26656
L56319 26525
L56300 26450
L56262 26412
L56225 26393
" />
<path d="M55888 26787
L55888 26393
L55663 26787
L55663 26393
" />
<path d="M55475 26787
L55475 26393
L55250 26787
L55250 26393
" />
<path d="M55156 26825
L54856 26825
" />
<path d="M54688 26393
L54650 26393
L54613 26412
L54594 26431
L54575 26468
L54556 26543
L54556 26637
L54575 26712
L54594 26750
L54613 26768
L54650 26787
L54688 26787
L54725 26768
L54744 26750
L54763 26712
L54781 26637
L54781 26543
L54763 26468
L54744 26431
L54725 26412
L54688 26393
" />
<path d="M54182 26787
L54406 26787
" />
<path d="M54294 26787
L54294 26393
L54331 26450
L54369 26487
L54406 26506
" />
<path d="M54050 26393
L53788 26787
" />
<path d="M53788 26393
L54050 26787
" />
<path d="M53563 26393
L53525 26393
L53488 26412
L53469 26431
L53450 26468
L53432 26543
L53432 26637
L53450 26712
L53469 26750
L53488 26768
L53525 26787
L53563 26787
L53600 26768
L53619 26750
L53638 26712
L53657 26637
L53657 26543
L53638 26468
L53619 26431
L53600 26412
L53563 26393
" />
<path d="M53057 26787
L53282 26787
" />
<path d="M53169 26787
L53169 26393
L53207 26450
L53244 26487
L53282 26506
" />
<path d="M56454 27710
L56473 27729
L56529 27748
L56566 27748
L56622 27729
L56660 27691
L56679 27654
L56697 27579
L56697 27523
L56679 27448
L56660 27410
L56622 27373
L56566 27354
L56529 27354
L56473 27373
L56454 27391
" />
<path d="M56210 27354
L56135 27354
L56098 27373
L56060 27410
L56041 27485
L56041 27616
L56060 27691
L56098 27729
L56135 27748
L56210 27748
L56248 27729
L56285 27691
L56304 27616
L56304 27485
L56285 27410
L56248 27373
L56210 27354
" />
<path d="M55873 27748
L55873 27354
L55648 27748
L55648 27354
" />
<path d="M55460 27748
L55460 27354
L55235 27748
L55235 27354
" />
<path d="M55141 27785
L54841 27785
" />
<path d="M54673 27354
L54635 27354
L54598 27373
L54579 27391
L54560 27429
L54541 27504
L54541 27598
L54560 27673
L54579 27710
L54598 27729
L54635 27748
L54673 27748
L54710 27729
L54729 27710
L54748 27673
L54766 27598
L54766 27504
L54748 27429
L54729 27391
L54710 27373
L54673 27354
" />
<path d="M54167 27748
L54392 27748
" />
<path d="M54279 27748
L54279 27354
L54317 27410
L54354 27448
L54392 27466
" />
<path d="M54035 27354
L53773 27748
" />
<path d="M53773 27354
L54035 27748
" />
<path d="M53548 27354
L53510 27354
L53473 27373
L53454 27391
L53435 27429
L53417 27504
L53417 27598
L53435 27673
L53454 27710
L53473 27729
L53510 27748
L53548 27748
L53585 27729
L53604 27710
L53623 27673
L53642 27598
L53642 27504
L53623 27429
L53604 27391
L53585 27373
L53548 27354
" />
<path d="M53042 27748
L53267 27748
" />
<path d="M53154 27748
L53154 27354
L53192 27410
L53229 27448
L53267 27466
" />
<path d="M56454 28710
L56473 28729
L56529 28748
L56566 28748
L56622 28729
L56660 28691
L56679 28654
L56697 28579
L56697 28523
L56679 28448
L56660 28410
L56622 28373
L56566 28354
L56529 28354
L56473 28373
L56454 28391
" />
<path d="M56210 28354
L56135 28354
L56098 28373
L56060 28410
L56041 28485
L56041 28616
L56060 28691
L56098 28729
L56135 28748
L56210 28748
L56248 28729
L56285 28691
L56304 28616
L56304 28485
L56285 28410
L56248 28373
L56210 28354
" />
<path d="M55873 28748
L55873 28354
L55648 28748
L55648 28354
" />
<path d="M55460 28748
L55460 28354
L55235 28748
L55235 28354
" />
<path d="M55141 28785
L54841 28785
" />
<path d="M54673 28354
L54635 28354
L54598 28373
L54579 28391
L54560 28429
L54541 28504
L54541 28598
L54560 28673
L54579 28710
L54598 28729
L54635 28748
L54673 28748
L54710 28729
L54729 28710
L54748 28673
L54766 28598
L54766 28504
L54748 28429
L54729 28391
L54710 28373
L54673 28354
" />
<path d="M54167 28748
L54392 28748
" />
<path d="M54279 28748
L54279 28354
L54317 28410
L54354 28448
L54392 28466
" />
<path d="M54035 28354
L53773 28748
" />
<path d="M53773 28354
L54035 28748
" />
<path d="M53548 28354
L53510 28354
L53473 28373
L53454 28391
L53435 28429
L53417 28504
L53417 28598
L53435 28673
L53454 28710
L53473 28729
L53510 28748
L53548 28748
L53585 28729
L53604 28710
L53623 28673
L53642 28598
L53642 28504
L53623 28429
L53604 28391
L53585 28373
L53548 28354
" />
<path d="M53042 28748
L53267 28748
" />
<path d="M53154 28748
L53154 28354
L53192 28410
L53229 28448
L53267 28466
" />
<path d="M56454 29710
L56473 29729
L56529 29748
L56566 29748
L56622 29729
L56660 29691
L56679 29654
L56697 29579
L56697 29523
L56679 29448
L56660 29410
L56622 29373
L56566 29354
L56529 29354
L56473 29373
L56454 29391
" />
<path d="M56210 29354
L56135 29354
L56098 29373
L56060 29410
L56041 29485
L56041 29616
L56060 29691
L56098 29729
L56135 29748
L56210 29748
L56248 29729
L56285 29691
L56304 29616
L56304 29485
L56285 29410
L56248 29373
L56210 29354
" />
<path d="M55873 29748
L55873 29354
L55648 29748
L55648 29354
" />
<path d="M55460 29748
L55460 29354
L55235 29748
L55235 29354
" />
<path d="M55141 29785
L54841 29785
" />
<path d="M54673 29354
L54635 29354
L54598 29373
L54579 29391
L54560 29429
L54541 29504
L54541 29598
L54560 29673
L54579 29710
L54598 29729
L54635 29748
L54673 29748
L54710 29729
L54729 29710
L54748 29673
L54766 29598
L54766 29504
L54748 29429
L54729 29391
L54710 29373
L54673 29354
" />
<path d="M54167 29748
L54392 29748
" />
<path d="M54279 29748
L54279 29354
L54317 29410
L54354 29448
L54392 29466
" />
<path d="M54035 29354
L53773 29748
" />
<path d="M53773 29354
L54035 29748
" />
<path d="M53548 29354
L53510 29354
L53473 29373
L53454 29391
L53435 29429
L53417 29504
L53417 29598
L53435 29673
L53454 29710
L53473 29729
L53510 29748
L53548 29748
L53585 29729
L53604 29710
L53623 29673
L53642 29598
L53642 29504
L53623 29429
L53604 29391
L53585 29373
L53548 29354
" />
<path d="M53042 29748
L53267 29748
" />
<path d="M53154 29748
L53154 29354
L53192 29410
L53229 29448
L53267 29466
" />
<path d="M51174 38660
L51174 38435
" />
<path d="M51174 38548
L50781 38548
L50837 38510
L50874 38473
L50893 38435
" />
<path d="M50781 38904
L50781 38941
L50800 38979
L50818 38998
L50856 39016
L50931 39035
L51024 39035
L51099 39016
L51137 38998
L51156 38979
L51174 38941
L51174 38904
L51156 38867
L51137 38848
L51099 38829
L51024 38810
L50931 38810
L50856 38829
L50818 38848
L50800 38867
L50781 38904
" />
<path d="M50781 39279
L50781 39316
L50800 39354
L50818 39373
L50856 39391
L50931 39410
L51024 39410
L51099 39391
L51137 39373
L51156 39354
L51174 39316
L51174 39279
L51156 39241
L51137 39223
L51099 39204
L51024 39185
L50931 39185
L50856 39204
L50818 39223
L50800 39241
L50781 39279
" />
<path d="M50912 39579
L51174 39579
" />
<path d="M50949 39579
L50931 39598
L50912 39635
L50912 39691
L50931 39729
L50968 39748
L51174 39748
" />
<path d="M50968 40066
L50968 39935
" />
<path d="M51174 39935
L50781 39935
L50781 40123
" />
<path d="M27721 38960
L27721 38735
" />
<path d="M27721 38848
L27327 38848
L27383 38810
L27421 38773
L27440 38735
" />
<path d="M27327 39204
L27327 39241
L27346 39279
L27365 39298
L27402 39316
L27477 39335
L27571 39335
L27646 39316
L27683 39298
L27702 39279
L27721 39241
L27721 39204
L27702 39167
L27683 39148
L27646 39129
L27571 39110
L27477 39110
L27402 39129
L27365 39148
L27346 39167
L27327 39204
" />
<path d="M27327 39579
L27327 39616
L27346 39654
L27365 39673
L27402 39691
L27477 39710
L27571 39710
L27646 39691
L27683 39673
L27702 39654
L27721 39616
L27721 39579
L27702 39541
L27683 39523
L27646 39504
L27571 39485
L27477 39485
L27402 39504
L27365 39523
L27346 39541
L27327 39579
" />
<path d="M27458 39879
L27721 39879
" />
<path d="M27496 39879
L27477 39898
L27458 39935
L27458 39991
L27477 40029
L27515 40048
L27721 40048
" />
<path d="M27515 40366
L27515 40235
" />
<path d="M27721 40235
L27327 40235
L27327 40423
" />
<path d="M39061 44156
L39286 44156
" />
<path d="M39173 44156
L39173 43762
L39211 43818
L39248 43856
L39286 43874
" />
<path d="M38817 43762
L38779 43762
L38742 43781
L38723 43799
L38704 43837
L38686 43912
L38686 44006
L38704 44081
L38723 44118
L38742 44137
L38779 44156
L38817 44156
L38854 44137
L38873 44118
L38892 44081
L38911 44006
L38911 43912
L38892 43837
L38873 43799
L38854 43781
L38817 43762
" />
<path d="M38517 44156
L38517 43762
" />
<path d="M38479 44006
L38367 44156
" />
<path d="M38367 43893
L38517 44043
" />
<path d="M40143 34923
L40368 34923
" />
<path d="M40256 34923
L40256 34530
L40293 34586
L40331 34623
L40368 34642
" />
<path d="M39900 34530
L39862 34530
L39825 34548
L39806 34567
L39787 34605
L39768 34680
L39768 34773
L39787 34848
L39806 34886
L39825 34905
L39862 34923
L39900 34923
L39937 34905
L39956 34886
L39975 34848
L39993 34773
L39993 34680
L39975 34605
L39956 34567
L39937 34548
L39900 34530
" />
<path d="M39600 34923
L39600 34530
" />
<path d="M39562 34773
L39450 34923
" />
<path d="M39450 34661
L39600 34811
" />
<path d="M39061 34923
L39286 34923
" />
<path d="M39173 34923
L39173 34530
L39211 34586
L39248 34623
L39286 34642
" />
<path d="M38817 34530
L38779 34530
L38742 34548
L38723 34567
L38704 34605
L38686 34680
L38686 34773
L38704 34848
L38723 34886
L38742 34905
L38779 34923
L38817 34923
L38854 34905
L38873 34886
L38892 34848
L38911 34773
L38911 34680
L38892 34605
L38873 34567
L38854 34548
L38817 34530
" />
<path d="M38517 34923
L38517 34530
" />
<path d="M38479 34773
L38367 34923
" />
<path d="M38367 34661
L38517 34811
" />
<path d="M40143 42502
L40368 42502
" />
<path d="M40256 42502
L40256 42108
L40293 42165
L40331 42202
L40368 42221
" />
<path d="M39900 42108
L39862 42108
L39825 42127
L39806 42146
L39787 42183
L39768 42258
L39768 42352
L39787 42427
L39806 42465
L39825 42483
L39862 42502
L39900 42502
L39937 42483
L39956 42465
L39975 42427
L39993 42352
L39993 42258
L39975 42183
L39956 42146
L39937 42127
L39900 42108
" />
<path d="M39600 42502
L39600 42108
" />
<path d="M39562 42352
L39450 42502
" />
<path d="M39450 42240
L39600 42390
" />
</g> 
</svg>
