<?xml version="1.0" standalone="no"?>
 <!DOCTYPE svg PUBLIC "-//W3C//DTD SVG 1.1//EN" 
 "http://www.w3.org/Graphics/SVG/1.1/DTD/svg11.dtd"> 
<svg xmlns="http://www.w3.org/2000/svg" version="1.1" 
    width="29.7002cm" height="21.0007cm" viewBox="0 0 116930 82680 ">
<title>SVG Picture created as OpenDropV2-F.Paste.svg date 2015/12/14 13:45:38 </title>
  <desc>Picture generated by PCBNEW </desc>
<g style="fill:#000000; fill-opacity:1;stroke:#000000; stroke-opacity:1;
stroke-linecap:round; stroke-linejoin:round; "
 transform="translate(0 0) scale(1 1)">
</g>
<g style="fill:#000000; fill-opacity:0.0; 
stroke:#000000; stroke-width:-0.000393701; stroke-opacity:1; 
stroke-linecap:round; stroke-linejoin:round;">
</g>
<g style="fill:#000000; fill-opacity:0.0; 
stroke:#000000; stroke-width:39.3701; stroke-opacity:1; 
stroke-linecap:round; stroke-linejoin:round;">
</g>
<g style="fill:#000000; fill-opacity:0.0; 
stroke:#000000; stroke-width:59.0551; stroke-opacity:1; 
stroke-linecap:round; stroke-linejoin:round;">
<rect x="69685.9" y="65357.2" width="42519.7" height="12598.4" rx="0" />
</g>
<g style="fill:#000000; fill-opacity:0.0; 
stroke:#000000; stroke-width:39.3701; stroke-opacity:1; 
stroke-linecap:round; stroke-linejoin:round;">
</g>
<g style="fill:#000000; fill-opacity:0.0; 
stroke:#000000; stroke-width:59.0551; stroke-opacity:1; 
stroke-linecap:round; stroke-linejoin:round;">
<rect x="3937.01" y="3937.01" width="109056" height="74806" rx="0" />
</g>
<g style="fill:#000000; fill-opacity:0.0; 
stroke:#000000; stroke-width:39.3701; stroke-opacity:1; 
stroke-linecap:round; stroke-linejoin:round;">
</g>
<g style="fill:#000000; fill-opacity:0.0; 
stroke:#000000; stroke-width:59.0551; stroke-opacity:1; 
stroke-linecap:round; stroke-linejoin:round;">
<rect x="4724.41" y="4724.41" width="107481" height="73231.2" rx="0" />
</g>
<g style="fill:#000000; fill-opacity:0.0; 
stroke:#000000; stroke-width:39.3701; stroke-opacity:1; 
stroke-linecap:round; stroke-linejoin:round;">
</g>
<g style="fill:#000000; fill-opacity:0.0; 
stroke:#000000; stroke-width:59.0551; stroke-opacity:1; 
stroke-linecap:round; stroke-linejoin:round;">
<path d="M23622 4724
L23622 3937
" />
</g>
<g style="fill:#000000; fill-opacity:0.0; 
stroke:#000000; stroke-width:39.3701; stroke-opacity:1; 
stroke-linecap:round; stroke-linejoin:round;">
</g>
<g style="fill:#000000; fill-opacity:0.0; 
stroke:#000000; stroke-width:59.0551; stroke-opacity:1; 
stroke-linecap:round; stroke-linejoin:round;">
<path d="M43307 4724
L43307 3937
" />
</g>
<g style="fill:#000000; fill-opacity:0.0; 
stroke:#000000; stroke-width:39.3701; stroke-opacity:1; 
stroke-linecap:round; stroke-linejoin:round;">
</g>
<g style="fill:#000000; fill-opacity:0.0; 
stroke:#000000; stroke-width:59.0551; stroke-opacity:1; 
stroke-linecap:round; stroke-linejoin:round;">
<path d="M62992 4724
L62992 3937
" />
</g>
<g style="fill:#000000; fill-opacity:0.0; 
stroke:#000000; stroke-width:39.3701; stroke-opacity:1; 
stroke-linecap:round; stroke-linejoin:round;">
</g>
<g style="fill:#000000; fill-opacity:0.0; 
stroke:#000000; stroke-width:59.0551; stroke-opacity:1; 
stroke-linecap:round; stroke-linejoin:round;">
<path d="M82677 4724
L82677 3937
" />
</g>
<g style="fill:#000000; fill-opacity:0.0; 
stroke:#000000; stroke-width:39.3701; stroke-opacity:1; 
stroke-linecap:round; stroke-linejoin:round;">
</g>
<g style="fill:#000000; fill-opacity:0.0; 
stroke:#000000; stroke-width:59.0551; stroke-opacity:1; 
stroke-linecap:round; stroke-linejoin:round;">
<path d="M102362 4724
L102362 3937
" />
</g>
<g style="fill:#000000; fill-opacity:0.0; 
stroke:#000000; stroke-width:39.3701; stroke-opacity:1; 
stroke-linecap:round; stroke-linejoin:round;">
</g>
<g style="fill:#000000; fill-opacity:0.0; 
stroke:#000000; stroke-width:59.0551; stroke-opacity:1; 
stroke-linecap:round; stroke-linejoin:round;">
<path d="M14169 4562
L13877 4562
" />
<path d="M14023 4562
L14023 4050
L13974 4123
L13925 4172
L13877 4196
" />
</g>
<g style="fill:#000000; fill-opacity:0.0; 
stroke:#000000; stroke-width:39.3701; stroke-opacity:1; 
stroke-linecap:round; stroke-linejoin:round;">
</g>
<g style="fill:#000000; fill-opacity:0.0; 
stroke:#000000; stroke-width:59.0551; stroke-opacity:1; 
stroke-linecap:round; stroke-linejoin:round;">
<path d="M33562 4099
L33586 4074
L33635 4050
L33757 4050
L33805 4074
L33830 4099
L33854 4147
L33854 4196
L33830 4269
L33537 4562
L33854 4562
" />
</g>
<g style="fill:#000000; fill-opacity:0.0; 
stroke:#000000; stroke-width:39.3701; stroke-opacity:1; 
stroke-linecap:round; stroke-linejoin:round;">
</g>
<g style="fill:#000000; fill-opacity:0.0; 
stroke:#000000; stroke-width:59.0551; stroke-opacity:1; 
stroke-linecap:round; stroke-linejoin:round;">
<path d="M53222 4050
L53539 4050
L53368 4245
L53442 4245
L53490 4269
L53515 4294
L53539 4342
L53539 4464
L53515 4513
L53490 4537
L53442 4562
L53295 4562
L53247 4537
L53222 4513
" />
</g>
<g style="fill:#000000; fill-opacity:0.0; 
stroke:#000000; stroke-width:39.3701; stroke-opacity:1; 
stroke-linecap:round; stroke-linejoin:round;">
</g>
<g style="fill:#000000; fill-opacity:0.0; 
stroke:#000000; stroke-width:59.0551; stroke-opacity:1; 
stroke-linecap:round; stroke-linejoin:round;">
<path d="M73175 4221
L73175 4562
" />
<path d="M73053 4026
L72932 4391
L73248 4391
" />
</g>
<g style="fill:#000000; fill-opacity:0.0; 
stroke:#000000; stroke-width:39.3701; stroke-opacity:1; 
stroke-linecap:round; stroke-linejoin:round;">
</g>
<g style="fill:#000000; fill-opacity:0.0; 
stroke:#000000; stroke-width:59.0551; stroke-opacity:1; 
stroke-linecap:round; stroke-linejoin:round;">
<path d="M92885 4050
L92641 4050
L92617 4294
L92641 4269
L92690 4245
L92812 4245
L92860 4269
L92885 4294
L92909 4342
L92909 4464
L92885 4513
L92860 4537
L92812 4562
L92690 4562
L92641 4537
L92617 4513
" />
</g>
<g style="fill:#000000; fill-opacity:0.0; 
stroke:#000000; stroke-width:39.3701; stroke-opacity:1; 
stroke-linecap:round; stroke-linejoin:round;">
</g>
<g style="fill:#000000; fill-opacity:0.0; 
stroke:#000000; stroke-width:59.0551; stroke-opacity:1; 
stroke-linecap:round; stroke-linejoin:round;">
<path d="M112545 4050
L112448 4050
L112399 4074
L112375 4099
L112326 4172
L112302 4269
L112302 4464
L112326 4513
L112350 4537
L112399 4562
L112497 4562
L112545 4537
L112570 4513
L112594 4464
L112594 4342
L112570 4294
L112545 4269
L112497 4245
L112399 4245
L112350 4269
L112326 4294
L112302 4342
" />
</g>
<g style="fill:#000000; fill-opacity:0.0; 
stroke:#000000; stroke-width:39.3701; stroke-opacity:1; 
stroke-linecap:round; stroke-linejoin:round;">
</g>
<g style="fill:#000000; fill-opacity:0.0; 
stroke:#000000; stroke-width:59.0551; stroke-opacity:1; 
stroke-linecap:round; stroke-linejoin:round;">
<path d="M23622 77955
L23622 78742
" />
</g>
<g style="fill:#000000; fill-opacity:0.0; 
stroke:#000000; stroke-width:39.3701; stroke-opacity:1; 
stroke-linecap:round; stroke-linejoin:round;">
</g>
<g style="fill:#000000; fill-opacity:0.0; 
stroke:#000000; stroke-width:59.0551; stroke-opacity:1; 
stroke-linecap:round; stroke-linejoin:round;">
<path d="M43307 77955
L43307 78742
" />
</g>
<g style="fill:#000000; fill-opacity:0.0; 
stroke:#000000; stroke-width:39.3701; stroke-opacity:1; 
stroke-linecap:round; stroke-linejoin:round;">
</g>
<g style="fill:#000000; fill-opacity:0.0; 
stroke:#000000; stroke-width:59.0551; stroke-opacity:1; 
stroke-linecap:round; stroke-linejoin:round;">
<path d="M62992 77955
L62992 78742
" />
</g>
<g style="fill:#000000; fill-opacity:0.0; 
stroke:#000000; stroke-width:39.3701; stroke-opacity:1; 
stroke-linecap:round; stroke-linejoin:round;">
</g>
<g style="fill:#000000; fill-opacity:0.0; 
stroke:#000000; stroke-width:59.0551; stroke-opacity:1; 
stroke-linecap:round; stroke-linejoin:round;">
<path d="M82677 77955
L82677 78742
" />
</g>
<g style="fill:#000000; fill-opacity:0.0; 
stroke:#000000; stroke-width:39.3701; stroke-opacity:1; 
stroke-linecap:round; stroke-linejoin:round;">
</g>
<g style="fill:#000000; fill-opacity:0.0; 
stroke:#000000; stroke-width:59.0551; stroke-opacity:1; 
stroke-linecap:round; stroke-linejoin:round;">
<path d="M102362 77955
L102362 78742
" />
</g>
<g style="fill:#000000; fill-opacity:0.0; 
stroke:#000000; stroke-width:39.3701; stroke-opacity:1; 
stroke-linecap:round; stroke-linejoin:round;">
</g>
<g style="fill:#000000; fill-opacity:0.0; 
stroke:#000000; stroke-width:59.0551; stroke-opacity:1; 
stroke-linecap:round; stroke-linejoin:round;">
<path d="M14169 78580
L13877 78580
" />
<path d="M14023 78580
L14023 78069
L13974 78142
L13925 78190
L13877 78215
" />
</g>
<g style="fill:#000000; fill-opacity:0.0; 
stroke:#000000; stroke-width:39.3701; stroke-opacity:1; 
stroke-linecap:round; stroke-linejoin:round;">
</g>
<g style="fill:#000000; fill-opacity:0.0; 
stroke:#000000; stroke-width:59.0551; stroke-opacity:1; 
stroke-linecap:round; stroke-linejoin:round;">
<path d="M33562 78117
L33586 78093
L33635 78069
L33757 78069
L33805 78093
L33830 78117
L33854 78166
L33854 78215
L33830 78288
L33537 78580
L33854 78580
" />
</g>
<g style="fill:#000000; fill-opacity:0.0; 
stroke:#000000; stroke-width:39.3701; stroke-opacity:1; 
stroke-linecap:round; stroke-linejoin:round;">
</g>
<g style="fill:#000000; fill-opacity:0.0; 
stroke:#000000; stroke-width:59.0551; stroke-opacity:1; 
stroke-linecap:round; stroke-linejoin:round;">
<path d="M53222 78069
L53539 78069
L53368 78263
L53442 78263
L53490 78288
L53515 78312
L53539 78361
L53539 78483
L53515 78532
L53490 78556
L53442 78580
L53295 78580
L53247 78556
L53222 78532
" />
</g>
<g style="fill:#000000; fill-opacity:0.0; 
stroke:#000000; stroke-width:39.3701; stroke-opacity:1; 
stroke-linecap:round; stroke-linejoin:round;">
</g>
<g style="fill:#000000; fill-opacity:0.0; 
stroke:#000000; stroke-width:59.0551; stroke-opacity:1; 
stroke-linecap:round; stroke-linejoin:round;">
<path d="M73175 78239
L73175 78580
" />
<path d="M73053 78044
L72932 78410
L73248 78410
" />
</g>
<g style="fill:#000000; fill-opacity:0.0; 
stroke:#000000; stroke-width:39.3701; stroke-opacity:1; 
stroke-linecap:round; stroke-linejoin:round;">
</g>
<g style="fill:#000000; fill-opacity:0.0; 
stroke:#000000; stroke-width:59.0551; stroke-opacity:1; 
stroke-linecap:round; stroke-linejoin:round;">
<path d="M92885 78069
L92641 78069
L92617 78312
L92641 78288
L92690 78263
L92812 78263
L92860 78288
L92885 78312
L92909 78361
L92909 78483
L92885 78532
L92860 78556
L92812 78580
L92690 78580
L92641 78556
L92617 78532
" />
</g>
<g style="fill:#000000; fill-opacity:0.0; 
stroke:#000000; stroke-width:39.3701; stroke-opacity:1; 
stroke-linecap:round; stroke-linejoin:round;">
</g>
<g style="fill:#000000; fill-opacity:0.0; 
stroke:#000000; stroke-width:59.0551; stroke-opacity:1; 
stroke-linecap:round; stroke-linejoin:round;">
<path d="M112545 78069
L112448 78069
L112399 78093
L112375 78117
L112326 78190
L112302 78288
L112302 78483
L112326 78532
L112350 78556
L112399 78580
L112497 78580
L112545 78556
L112570 78532
L112594 78483
L112594 78361
L112570 78312
L112545 78288
L112497 78263
L112399 78263
L112350 78288
L112326 78312
L112302 78361
" />
</g>
<g style="fill:#000000; fill-opacity:0.0; 
stroke:#000000; stroke-width:39.3701; stroke-opacity:1; 
stroke-linecap:round; stroke-linejoin:round;">
</g>
<g style="fill:#000000; fill-opacity:0.0; 
stroke:#000000; stroke-width:59.0551; stroke-opacity:1; 
stroke-linecap:round; stroke-linejoin:round;">
<path d="M3937 23622
L4724 23622
" />
</g>
<g style="fill:#000000; fill-opacity:0.0; 
stroke:#000000; stroke-width:39.3701; stroke-opacity:1; 
stroke-linecap:round; stroke-linejoin:round;">
</g>
<g style="fill:#000000; fill-opacity:0.0; 
stroke:#000000; stroke-width:59.0551; stroke-opacity:1; 
stroke-linecap:round; stroke-linejoin:round;">
<path d="M3937 43307
L4724 43307
" />
</g>
<g style="fill:#000000; fill-opacity:0.0; 
stroke:#000000; stroke-width:39.3701; stroke-opacity:1; 
stroke-linecap:round; stroke-linejoin:round;">
</g>
<g style="fill:#000000; fill-opacity:0.0; 
stroke:#000000; stroke-width:59.0551; stroke-opacity:1; 
stroke-linecap:round; stroke-linejoin:round;">
<path d="M3937 62992
L4724 62992
" />
</g>
<g style="fill:#000000; fill-opacity:0.0; 
stroke:#000000; stroke-width:39.3701; stroke-opacity:1; 
stroke-linecap:round; stroke-linejoin:round;">
</g>
<g style="fill:#000000; fill-opacity:0.0; 
stroke:#000000; stroke-width:59.0551; stroke-opacity:1; 
stroke-linecap:round; stroke-linejoin:round;">
<path d="M4208 13864
L4452 13864
" />
<path d="M4160 14011
L4330 13499
L4501 14011
" />
</g>
<g style="fill:#000000; fill-opacity:0.0; 
stroke:#000000; stroke-width:39.3701; stroke-opacity:1; 
stroke-linecap:round; stroke-linejoin:round;">
</g>
<g style="fill:#000000; fill-opacity:0.0; 
stroke:#000000; stroke-width:59.0551; stroke-opacity:1; 
stroke-linecap:round; stroke-linejoin:round;">
<path d="M4367 33428
L4440 33452
L4464 33476
L4489 33525
L4489 33598
L4464 33647
L4440 33671
L4391 33696
L4196 33696
L4196 33184
L4367 33184
L4416 33208
L4440 33233
L4464 33281
L4464 33330
L4440 33379
L4416 33403
L4367 33428
L4196 33428
" />
</g>
<g style="fill:#000000; fill-opacity:0.0; 
stroke:#000000; stroke-width:39.3701; stroke-opacity:1; 
stroke-linecap:round; stroke-linejoin:round;">
</g>
<g style="fill:#000000; fill-opacity:0.0; 
stroke:#000000; stroke-width:59.0551; stroke-opacity:1; 
stroke-linecap:round; stroke-linejoin:round;">
<path d="M4489 53332
L4464 53356
L4391 53381
L4342 53381
L4269 53356
L4221 53308
L4196 53259
L4172 53161
L4172 53088
L4196 52991
L4221 52942
L4269 52893
L4342 52869
L4391 52869
L4464 52893
L4489 52918
" />
</g>
<g style="fill:#000000; fill-opacity:0.0; 
stroke:#000000; stroke-width:39.3701; stroke-opacity:1; 
stroke-linecap:round; stroke-linejoin:round;">
</g>
<g style="fill:#000000; fill-opacity:0.0; 
stroke:#000000; stroke-width:59.0551; stroke-opacity:1; 
stroke-linecap:round; stroke-linejoin:round;">
<path d="M4196 73066
L4196 72554
L4318 72554
L4391 72578
L4440 72627
L4464 72676
L4489 72773
L4489 72846
L4464 72944
L4440 72993
L4391 73041
L4318 73066
L4196 73066
" />
</g>
<g style="fill:#000000; fill-opacity:0.0; 
stroke:#000000; stroke-width:39.3701; stroke-opacity:1; 
stroke-linecap:round; stroke-linejoin:round;">
</g>
<g style="fill:#000000; fill-opacity:0.0; 
stroke:#000000; stroke-width:59.0551; stroke-opacity:1; 
stroke-linecap:round; stroke-linejoin:round;">
<path d="M112992 23622
L112205 23622
" />
</g>
<g style="fill:#000000; fill-opacity:0.0; 
stroke:#000000; stroke-width:39.3701; stroke-opacity:1; 
stroke-linecap:round; stroke-linejoin:round;">
</g>
<g style="fill:#000000; fill-opacity:0.0; 
stroke:#000000; stroke-width:59.0551; stroke-opacity:1; 
stroke-linecap:round; stroke-linejoin:round;">
<path d="M112992 43307
L112205 43307
" />
</g>
<g style="fill:#000000; fill-opacity:0.0; 
stroke:#000000; stroke-width:39.3701; stroke-opacity:1; 
stroke-linecap:round; stroke-linejoin:round;">
</g>
<g style="fill:#000000; fill-opacity:0.0; 
stroke:#000000; stroke-width:59.0551; stroke-opacity:1; 
stroke-linecap:round; stroke-linejoin:round;">
<path d="M112992 62992
L112205 62992
" />
</g>
<g style="fill:#000000; fill-opacity:0.0; 
stroke:#000000; stroke-width:39.3701; stroke-opacity:1; 
stroke-linecap:round; stroke-linejoin:round;">
</g>
<g style="fill:#000000; fill-opacity:0.0; 
stroke:#000000; stroke-width:59.0551; stroke-opacity:1; 
stroke-linecap:round; stroke-linejoin:round;">
<path d="M112477 13864
L112721 13864
" />
<path d="M112428 14011
L112599 13499
L112769 14011
" />
</g>
<g style="fill:#000000; fill-opacity:0.0; 
stroke:#000000; stroke-width:39.3701; stroke-opacity:1; 
stroke-linecap:round; stroke-linejoin:round;">
</g>
<g style="fill:#000000; fill-opacity:0.0; 
stroke:#000000; stroke-width:59.0551; stroke-opacity:1; 
stroke-linecap:round; stroke-linejoin:round;">
<path d="M112635 33428
L112708 33452
L112733 33476
L112757 33525
L112757 33598
L112733 33647
L112708 33671
L112660 33696
L112465 33696
L112465 33184
L112635 33184
L112684 33208
L112708 33233
L112733 33281
L112733 33330
L112708 33379
L112684 33403
L112635 33428
L112465 33428
" />
</g>
<g style="fill:#000000; fill-opacity:0.0; 
stroke:#000000; stroke-width:39.3701; stroke-opacity:1; 
stroke-linecap:round; stroke-linejoin:round;">
</g>
<g style="fill:#000000; fill-opacity:0.0; 
stroke:#000000; stroke-width:59.0551; stroke-opacity:1; 
stroke-linecap:round; stroke-linejoin:round;">
<path d="M112757 53332
L112733 53356
L112660 53381
L112611 53381
L112538 53356
L112489 53308
L112465 53259
L112440 53161
L112440 53088
L112465 52991
L112489 52942
L112538 52893
L112611 52869
L112660 52869
L112733 52893
L112757 52918
" />
</g>
<g style="fill:#000000; fill-opacity:0.0; 
stroke:#000000; stroke-width:39.3701; stroke-opacity:1; 
stroke-linecap:round; stroke-linejoin:round;">
</g>
<g style="fill:#000000; fill-opacity:0.0; 
stroke:#000000; stroke-width:59.0551; stroke-opacity:1; 
stroke-linecap:round; stroke-linejoin:round;">
<path d="M112465 73066
L112465 72554
L112587 72554
L112660 72578
L112708 72627
L112733 72676
L112757 72773
L112757 72846
L112733 72944
L112708 72993
L112660 73041
L112587 73066
L112465 73066
" />
</g>
<g style="fill:#000000; fill-opacity:0.0; 
stroke:#000000; stroke-width:39.3701; stroke-opacity:1; 
stroke-linecap:round; stroke-linejoin:round;">
</g>
<g style="fill:#000000; fill-opacity:0.0; 
stroke:#000000; stroke-width:59.0551; stroke-opacity:1; 
stroke-linecap:round; stroke-linejoin:round;">
<path d="M78881 76293
L78881 75703
L79022 75703
L79106 75731
L79162 75787
L79190 75843
L79219 75956
L79219 76040
L79190 76153
L79162 76209
L79106 76265
L79022 76293
L78881 76293
" />
<path d="M79725 76293
L79725 75984
L79697 75928
L79640 75899
L79528 75899
L79472 75928
" />
<path d="M79725 76265
L79669 76293
L79528 76293
L79472 76265
L79444 76209
L79444 76153
L79472 76096
L79528 76068
L79669 76068
L79725 76040
" />
<path d="M79922 75899
L80147 75899
" />
<path d="M80006 75703
L80006 76209
L80034 76265
L80090 76293
L80147 76293
" />
<path d="M80568 76265
L80512 76293
L80400 76293
L80343 76265
L80315 76209
L80315 75984
L80343 75928
L80400 75899
L80512 75899
L80568 75928
L80597 75984
L80597 76040
L80315 76096
" />
<path d="M80850 76237
L80878 76265
L80850 76293
L80822 76265
L80850 76237
L80850 76293
" />
<path d="M80850 75928
L80878 75956
L80850 75984
L80822 75956
L80850 75928
L80850 75984
" />
</g>
<g style="fill:#000000; fill-opacity:0.0; 
stroke:#000000; stroke-width:39.3701; stroke-opacity:1; 
stroke-linecap:round; stroke-linejoin:round;">
</g>
<g style="fill:#000000; fill-opacity:0.0; 
stroke:#000000; stroke-width:59.0551; stroke-opacity:1; 
stroke-linecap:round; stroke-linejoin:round;">
<path d="M69685 76577
L112205 76577
" />
</g>
<g style="fill:#000000; fill-opacity:0.0; 
stroke:#000000; stroke-width:39.3701; stroke-opacity:1; 
stroke-linecap:round; stroke-linejoin:round;">
</g>
<g style="fill:#000000; fill-opacity:0.0; 
stroke:#000000; stroke-width:59.0551; stroke-opacity:1; 
stroke-linecap:round; stroke-linejoin:round;">
<path d="M70220 77395
L70220 76805
" />
<path d="M70557 77395
L70304 77058
" />
<path d="M70557 76805
L70220 77142
" />
<path d="M70810 77395
L70810 77002
" />
<path d="M70810 76805
L70782 76833
L70810 76861
L70838 76833
L70810 76805
L70810 76861
" />
<path d="M71429 77339
L71401 77367
L71316 77395
L71260 77395
L71176 77367
L71120 77311
L71091 77255
L71063 77142
L71063 77058
L71091 76946
L71120 76889
L71176 76833
L71260 76805
L71316 76805
L71401 76833
L71429 76861
" />
<path d="M71935 77395
L71935 77086
L71907 77030
L71851 77002
L71738 77002
L71682 77030
" />
<path d="M71935 77367
L71879 77395
L71738 77395
L71682 77367
L71654 77311
L71654 77255
L71682 77199
L71738 77171
L71879 77171
L71935 77142
" />
<path d="M72469 77395
L72469 76805
" />
<path d="M72469 77367
L72413 77395
L72301 77395
L72244 77367
L72216 77339
L72188 77283
L72188 77114
L72216 77058
L72244 77030
L72301 77002
L72413 77002
L72469 77030
" />
<path d="M73201 77086
L73397 77086
" />
<path d="M73482 77395
L73201 77395
L73201 76805
L73482 76805
" />
<path d="M73735 77339
L73763 77367
L73735 77395
L73707 77367
L73735 77339
L73735 77395
" />
<path d="M74016 77395
L74016 76805
L74157 76805
L74241 76833
L74297 76889
L74325 76946
L74354 77058
L74354 77142
L74325 77255
L74297 77311
L74241 77367
L74157 77395
L74016 77395
" />
<path d="M74607 77339
L74635 77367
L74607 77395
L74579 77367
L74607 77339
L74607 77395
" />
<path d="M74860 77227
L75141 77227
" />
<path d="M74804 77395
L75000 76805
L75197 77395
" />
<path d="M75394 77339
L75422 77367
L75394 77395
L75366 77367
L75394 77339
L75394 77395
" />
<path d="M76575 77395
L76575 76805
" />
<path d="M76631 77171
L76800 77395
" />
<path d="M76800 77002
L76575 77227
" />
<path d="M77053 77395
L77053 77002
" />
<path d="M77053 76805
L77025 76833
L77053 76861
L77081 76833
L77053 76805
L77053 76861
" />
<path d="M77588 77367
L77531 77395
L77419 77395
L77363 77367
L77334 77339
L77306 77283
L77306 77114
L77334 77058
L77363 77030
L77419 77002
L77531 77002
L77588 77030
" />
<path d="M78094 77395
L78094 77086
L78066 77030
L78009 77002
L77897 77002
L77841 77030
" />
<path d="M78094 77367
L78037 77395
L77897 77395
L77841 77367
L77813 77311
L77813 77255
L77841 77199
L77897 77171
L78037 77171
L78094 77142
" />
<path d="M78628 77395
L78628 76805
" />
<path d="M78628 77367
L78572 77395
L78459 77395
L78403 77367
L78375 77339
L78347 77283
L78347 77114
L78375 77058
L78403 77030
L78459 77002
L78572 77002
L78628 77030
" />
<path d="M79472 76805
L79528 76805
L79584 76833
L79612 76861
L79640 76917
L79669 77030
L79669 77171
L79640 77283
L79612 77339
L79584 77367
L79528 77395
L79472 77395
L79415 77367
L79387 77339
L79359 77283
L79331 77171
L79331 77030
L79359 76917
L79387 76861
L79415 76833
L79472 76805
" />
<path d="M79922 77339
L79950 77367
L79922 77395
L79894 77367
L79922 77339
L79922 77395
" />
<path d="M80175 76861
L80203 76833
L80259 76805
L80400 76805
L80456 76833
L80484 76861
L80512 76917
L80512 76974
L80484 77058
L80147 77395
L80512 77395
" />
<path d="M80878 76805
L80934 76805
L80990 76833
L81018 76861
L81046 76917
L81075 77030
L81075 77171
L81046 77283
L81018 77339
L80990 77367
L80934 77395
L80878 77395
L80822 77367
L80793 77339
L80765 77283
L80737 77171
L80737 77030
L80765 76917
L80793 76861
L80822 76833
L80878 76805
" />
<path d="M81637 77395
L81300 77395
" />
<path d="M81468 77395
L81468 76805
L81412 76889
L81356 76946
L81300 76974
" />
<path d="M82171 76805
L81890 76805
L81862 77086
L81890 77058
L81946 77030
L82087 77030
L82143 77058
L82171 77086
L82199 77142
L82199 77283
L82171 77339
L82143 77367
L82087 77395
L81946 77395
L81890 77367
L81862 77339
" />
<path d="M82762 77395
L82424 77395
" />
<path d="M82593 77395
L82593 76805
L82537 76889
L82481 76946
L82424 76974
" />
<path d="M82987 76861
L83015 76833
L83071 76805
L83212 76805
L83268 76833
L83296 76861
L83324 76917
L83324 76974
L83296 77058
L82959 77395
L83324 77395
" />
<path d="M83690 76805
L83746 76805
L83802 76833
L83831 76861
L83859 76917
L83887 77030
L83887 77171
L83859 77283
L83831 77339
L83802 77367
L83746 77395
L83690 77395
L83634 77367
L83606 77339
L83577 77283
L83549 77171
L83549 77030
L83577 76917
L83606 76861
L83634 76833
L83690 76805
" />
<path d="M84224 77058
L84168 77030
L84140 77002
L84112 76946
L84112 76917
L84140 76861
L84168 76833
L84224 76805
L84337 76805
L84393 76833
L84421 76861
L84449 76917
L84449 76946
L84421 77002
L84393 77030
L84337 77058
L84224 77058
L84168 77086
L84140 77114
L84112 77171
L84112 77283
L84140 77339
L84168 77367
L84224 77395
L84337 77395
L84393 77367
L84421 77339
L84449 77283
L84449 77171
L84421 77114
L84393 77086
L84337 77058
" />
<path d="M84815 76805
L84871 76805
L84927 76833
L84955 76861
L84983 76917
L85012 77030
L85012 77171
L84983 77283
L84955 77339
L84927 77367
L84871 77395
L84815 77395
L84759 77367
L84730 77339
L84702 77283
L84674 77171
L84674 77030
L84702 76917
L84730 76861
L84759 76833
L84815 76805
" />
<path d="M85293 77395
L85405 77395
L85462 77367
L85490 77339
L85546 77255
L85574 77142
L85574 76917
L85546 76861
L85518 76833
L85462 76805
L85349 76805
L85293 76833
L85265 76861
L85237 76917
L85237 77058
L85265 77114
L85293 77142
L85349 77171
L85462 77171
L85518 77142
L85546 77114
L85574 77058
" />
<path d="M85771 76805
L86136 76805
L85940 77030
L86024 77030
L86080 77058
L86108 77086
L86136 77142
L86136 77283
L86108 77339
L86080 77367
L86024 77395
L85855 77395
L85799 77367
L85771 77339
" />
<path d="M86699 77395
L86361 77395
" />
<path d="M86530 77395
L86530 76805
L86474 76889
L86418 76946
L86361 76974
" />
<path d="M86952 77171
L87402 77171
" />
<path d="M87177 77395
L87177 76946
" />
<path d="M87936 76805
L87824 76805
L87768 76833
L87739 76861
L87683 76946
L87655 77058
L87655 77283
L87683 77339
L87711 77367
L87768 77395
L87880 77395
L87936 77367
L87964 77339
L87992 77283
L87992 77142
L87964 77086
L87936 77058
L87880 77030
L87768 77030
L87711 77058
L87683 77086
L87655 77142
" />
<path d="M88189 76805
L88555 76805
L88358 77030
L88442 77030
L88499 77058
L88527 77086
L88555 77142
L88555 77283
L88527 77339
L88499 77367
L88442 77395
L88274 77395
L88217 77367
L88189 77339
" />
<path d="M89089 76805
L88808 76805
L88780 77086
L88808 77058
L88864 77030
L89005 77030
L89061 77058
L89089 77086
L89117 77142
L89117 77283
L89089 77339
L89061 77367
L89005 77395
L88864 77395
L88808 77367
L88780 77339
" />
<path d="M89314 76805
L89680 76805
L89483 77030
L89567 77030
L89624 77058
L89652 77086
L89680 77142
L89680 77283
L89652 77339
L89624 77367
L89567 77395
L89399 77395
L89342 77367
L89314 77339
" />
<path d="M89877 76805
L90242 76805
L90045 77030
L90130 77030
L90186 77058
L90214 77086
L90242 77142
L90242 77283
L90214 77339
L90186 77367
L90130 77395
L89961 77395
L89905 77367
L89877 77339
" />
<path d="M90580 77058
L90523 77030
L90495 77002
L90467 76946
L90467 76917
L90495 76861
L90523 76833
L90580 76805
L90692 76805
L90748 76833
L90777 76861
L90805 76917
L90805 76946
L90777 77002
L90748 77030
L90692 77058
L90580 77058
L90523 77086
L90495 77114
L90467 77171
L90467 77283
L90495 77339
L90523 77367
L90580 77395
L90692 77395
L90748 77367
L90777 77339
L90805 77283
L90805 77171
L90777 77114
L90748 77086
L90692 77058
" />
<path d="M89792 76703
L90917 76703
" />
<path d="M91311 77002
L91311 77395
" />
<path d="M91058 77002
L91058 77311
L91086 77367
L91142 77395
L91226 77395
L91283 77367
L91311 77339
" />
<path d="M91592 77395
L91592 76805
" />
<path d="M91592 77030
L91648 77002
L91761 77002
L91817 77030
L91845 77058
L91873 77114
L91873 77283
L91845 77339
L91817 77367
L91761 77395
L91648 77395
L91592 77367
" />
<path d="M92379 77002
L92379 77395
" />
<path d="M92126 77002
L92126 77311
L92154 77367
L92211 77395
L92295 77395
L92351 77367
L92379 77339
" />
<path d="M92661 77002
L92661 77395
" />
<path d="M92661 77058
L92689 77030
L92745 77002
L92829 77002
L92886 77030
L92914 77086
L92914 77395
" />
<path d="M93111 77002
L93336 77002
" />
<path d="M93195 76805
L93195 77311
L93223 77367
L93279 77395
L93336 77395
" />
<path d="M93786 77002
L93786 77395
" />
<path d="M93532 77002
L93532 77311
L93561 77367
L93617 77395
L93701 77395
L93757 77367
L93786 77339
" />
<path d="M94376 77395
L94039 77395
" />
<path d="M94207 77395
L94207 76805
L94151 76889
L94095 76946
L94039 76974
" />
<path d="M94882 77002
L94882 77395
" />
<path d="M94742 76777
L94601 77199
L94967 77199
" />
<path d="M95192 77339
L95220 77367
L95192 77395
L95163 77367
L95192 77339
L95192 77395
" />
<path d="M95585 76805
L95642 76805
L95698 76833
L95726 76861
L95754 76917
L95782 77030
L95782 77171
L95754 77283
L95726 77339
L95698 77367
L95642 77395
L95585 77395
L95529 77367
L95501 77339
L95473 77283
L95445 77171
L95445 77030
L95473 76917
L95501 76861
L95529 76833
L95585 76805
" />
<path d="M96288 77002
L96288 77395
" />
<path d="M96148 76777
L96007 77199
L96373 77199
" />
<path d="M96598 77339
L96626 77367
L96598 77395
L96570 77367
L96598 77339
L96598 77395
" />
<path d="M97188 77395
L96851 77395
" />
<path d="M97019 77395
L97019 76805
L96963 76889
L96907 76946
L96851 76974
" />
<path d="M97441 77171
L97891 77171
" />
<path d="M98144 77367
L98201 77395
L98313 77395
L98369 77367
L98397 77311
L98397 77283
L98369 77227
L98313 77199
L98229 77199
L98172 77171
L98144 77114
L98144 77086
L98172 77030
L98229 77002
L98313 77002
L98369 77030
" />
<path d="M98566 77002
L98791 77002
" />
<path d="M98651 76805
L98651 77311
L98679 77367
L98735 77395
L98791 77395
" />
<path d="M99241 77395
L99241 77086
L99213 77030
L99157 77002
L99044 77002
L98988 77030
" />
<path d="M99241 77367
L99185 77395
L99044 77395
L98988 77367
L98960 77311
L98960 77255
L98988 77199
L99044 77171
L99185 77171
L99241 77142
" />
<path d="M99522 77395
L99522 76805
" />
<path d="M99522 77030
L99579 77002
L99691 77002
L99747 77030
L99775 77058
L99804 77114
L99804 77283
L99775 77339
L99747 77367
L99691 77395
L99579 77395
L99522 77367
" />
<path d="M100141 77395
L100085 77367
L100057 77311
L100057 76805
" />
<path d="M100591 77367
L100535 77395
L100422 77395
L100366 77367
L100338 77311
L100338 77086
L100366 77030
L100422 77002
L100535 77002
L100591 77030
L100619 77086
L100619 77142
L100338 77199
" />
</g>
<g style="fill:#000000; fill-opacity:0.0; 
stroke:#000000; stroke-width:39.3701; stroke-opacity:1; 
stroke-linecap:round; stroke-linejoin:round;">
</g>
<g style="fill:#000000; fill-opacity:0.0; 
stroke:#000000; stroke-width:59.0551; stroke-opacity:1; 
stroke-linecap:round; stroke-linejoin:round;">
<path d="M69685 75396
L112205 75396
" />
</g>
<g style="fill:#000000; fill-opacity:0.0; 
stroke:#000000; stroke-width:39.3701; stroke-opacity:1; 
stroke-linecap:round; stroke-linejoin:round;">
</g>
<g style="fill:#000000; fill-opacity:0.0; 
stroke:#000000; stroke-width:118.11; stroke-opacity:1; 
stroke-linecap:round; stroke-linejoin:round;">
<path d="M104022 76293
L103825 76012
" />
<path d="M103684 76293
L103684 75703
L103909 75703
L103965 75731
L103994 75759
L104022 75815
L104022 75899
L103994 75956
L103965 75984
L103909 76012
L103684 76012
" />
<path d="M104500 76265
L104444 76293
L104331 76293
L104275 76265
L104247 76209
L104247 75984
L104275 75928
L104331 75899
L104444 75899
L104500 75928
L104528 75984
L104528 76040
L104247 76096
" />
<path d="M104725 75899
L104865 76293
L105006 75899
" />
<path d="M105231 76237
L105259 76265
L105231 76293
L105203 76265
L105231 76237
L105231 76293
" />
<path d="M105231 75928
L105259 75956
L105231 75984
L105203 75956
L105231 75928
L105231 75984
" />
</g>
<g style="fill:#000000; fill-opacity:0.0; 
stroke:#000000; stroke-width:39.3701; stroke-opacity:1; 
stroke-linecap:round; stroke-linejoin:round;">
</g>
<g style="fill:#000000; fill-opacity:0.0; 
stroke:#000000; stroke-width:59.0551; stroke-opacity:1; 
stroke-linecap:round; stroke-linejoin:round;">
<path d="M70192 76265
L70276 76293
L70417 76293
L70473 76265
L70501 76237
L70529 76181
L70529 76124
L70501 76068
L70473 76040
L70417 76012
L70304 75984
L70248 75956
L70220 75928
L70192 75871
L70192 75815
L70220 75759
L70248 75731
L70304 75703
L70445 75703
L70529 75731
" />
<path d="M70782 76293
L70782 75899
" />
<path d="M70782 75703
L70754 75731
L70782 75759
L70810 75731
L70782 75703
L70782 75759
" />
<path d="M71007 75899
L71316 75899
L71007 76293
L71316 76293
" />
<path d="M71766 76265
L71710 76293
L71598 76293
L71541 76265
L71513 76209
L71513 75984
L71541 75928
L71598 75899
L71710 75899
L71766 75928
L71795 75984
L71795 76040
L71513 76096
" />
<path d="M72048 76237
L72076 76265
L72048 76293
L72019 76265
L72048 76237
L72048 76293
" />
<path d="M72048 75928
L72076 75956
L72048 75984
L72019 75956
L72048 75928
L72048 75984
" />
<path d="M72751 76124
L73032 76124
" />
<path d="M72694 76293
L72891 75703
L73088 76293
" />
<path d="M73538 75899
L73538 76293
" />
<path d="M73397 75674
L73257 76096
L73622 76096
" />
</g>
<g style="fill:#000000; fill-opacity:0.0; 
stroke:#000000; stroke-width:39.3701; stroke-opacity:1; 
stroke-linecap:round; stroke-linejoin:round;">
</g>
<g style="fill:#000000; fill-opacity:0.0; 
stroke:#000000; stroke-width:59.0551; stroke-opacity:1; 
stroke-linecap:round; stroke-linejoin:round;">
<path d="M103684 77395
L103684 76805
" />
<path d="M104219 77395
L104219 76805
" />
<path d="M104219 77367
L104162 77395
L104050 77395
L103994 77367
L103965 77339
L103937 77283
L103937 77114
L103965 77058
L103994 77030
L104050 77002
L104162 77002
L104219 77030
" />
<path d="M104500 77339
L104528 77367
L104500 77395
L104472 77367
L104500 77339
L104500 77395
" />
<path d="M104500 77030
L104528 77058
L104500 77086
L104472 77058
L104500 77030
L104500 77086
" />
<path d="M105540 77395
L105203 77395
" />
<path d="M105372 77395
L105372 76805
L105315 76889
L105259 76946
L105203 76974
" />
<path d="M106215 76777
L105709 77536
" />
<path d="M106721 77395
L106384 77395
" />
<path d="M106553 77395
L106553 76805
L106496 76889
L106440 76946
L106384 76974
" />
</g>
<g style="fill:#000000; fill-opacity:0.0; 
stroke:#000000; stroke-width:39.3701; stroke-opacity:1; 
stroke-linecap:round; stroke-linejoin:round;">
</g>
<g style="fill:#000000; fill-opacity:0.0; 
stroke:#000000; stroke-width:59.0551; stroke-opacity:1; 
stroke-linecap:round; stroke-linejoin:round;">
<path d="M69685 73821
L112205 73821
" />
</g>
<g style="fill:#000000; fill-opacity:0.0; 
stroke:#000000; stroke-width:39.3701; stroke-opacity:1; 
stroke-linecap:round; stroke-linejoin:round;">
</g>
<g style="fill:#000000; fill-opacity:0.0; 
stroke:#000000; stroke-width:157.48; stroke-opacity:1; 
stroke-linecap:round; stroke-linejoin:round;">
<path d="M70257 74099
L70707 74099
" />
<path d="M70384 74886
L70482 74099
" />
<path d="M70871 74886
L70937 74361
" />
<path d="M70970 74099
L70927 74136
L70960 74174
L71002 74136
L70970 74099
L70960 74174
" />
<path d="M71199 74361
L71499 74361
" />
<path d="M71345 74099
L71260 74774
L71288 74849
L71359 74886
L71434 74886
" />
<path d="M71809 74886
L71738 74849
L71710 74774
L71795 74099
" />
<path d="M72413 74849
L72334 74886
L72184 74886
L72113 74849
L72085 74774
L72123 74474
L72169 74399
L72249 74361
L72399 74361
L72469 74399
L72498 74474
L72488 74549
L72104 74624
" />
<path d="M72793 74811
L72826 74849
L72783 74886
L72751 74849
L72793 74811
L72783 74886
" />
<path d="M72844 74399
L72877 74436
L72835 74474
L72802 74436
L72844 74399
L72835 74474
" />
</g>
<g style="fill:#000000; fill-opacity:0.0; 
stroke:#000000; stroke-width:39.3701; stroke-opacity:1; 
stroke-linecap:round; stroke-linejoin:round;">
</g>
<g style="fill:#000000; fill-opacity:0.0; 
stroke:#000000; stroke-width:59.0551; stroke-opacity:1; 
stroke-linecap:round; stroke-linejoin:round;">
<path d="M70417 73070
L70220 73070
" />
<path d="M70220 73380
L70220 72789
L70501 72789
" />
<path d="M70726 73380
L70726 72986
" />
<path d="M70726 72789
L70698 72817
L70726 72845
L70754 72817
L70726 72789
L70726 72845
" />
<path d="M71091 73380
L71035 73352
L71007 73295
L71007 72789
" />
<path d="M71541 73352
L71485 73380
L71373 73380
L71316 73352
L71288 73295
L71288 73070
L71316 73014
L71373 72986
L71485 72986
L71541 73014
L71570 73070
L71570 73127
L71288 73183
" />
<path d="M71823 73323
L71851 73352
L71823 73380
L71795 73352
L71823 73323
L71823 73380
" />
<path d="M71823 73014
L71851 73042
L71823 73070
L71795 73042
L71823 73014
L71823 73070
" />
<path d="M72666 72789
L72779 72789
L72835 72817
L72891 72874
L72919 72986
L72919 73183
L72891 73295
L72835 73352
L72779 73380
L72666 73380
L72610 73352
L72554 73295
L72526 73183
L72526 72986
L72554 72874
L72610 72817
L72666 72789
" />
<path d="M73172 72986
L73172 73577
" />
<path d="M73172 73014
L73229 72986
L73341 72986
L73397 73014
L73426 73042
L73454 73099
L73454 73267
L73426 73323
L73397 73352
L73341 73380
L73229 73380
L73172 73352
" />
<path d="M73932 73352
L73876 73380
L73763 73380
L73707 73352
L73679 73295
L73679 73070
L73707 73014
L73763 72986
L73876 72986
L73932 73014
L73960 73070
L73960 73127
L73679 73183
" />
<path d="M74213 72986
L74213 73380
" />
<path d="M74213 73042
L74241 73014
L74297 72986
L74382 72986
L74438 73014
L74466 73070
L74466 73380
" />
<path d="M74747 73380
L74747 72789
L74888 72789
L74972 72817
L75028 72874
L75057 72930
L75085 73042
L75085 73127
L75057 73239
L75028 73295
L74972 73352
L74888 73380
L74747 73380
" />
<path d="M75338 73380
L75338 72986
" />
<path d="M75338 73099
L75366 73042
L75394 73014
L75450 72986
L75507 72986
" />
<path d="M75788 73380
L75732 73352
L75703 73323
L75675 73267
L75675 73099
L75703 73042
L75732 73014
L75788 72986
L75872 72986
L75928 73014
L75956 73042
L75985 73099
L75985 73267
L75956 73323
L75928 73352
L75872 73380
L75788 73380
" />
<path d="M76238 72986
L76238 73577
" />
<path d="M76238 73014
L76294 72986
L76406 72986
L76463 73014
L76491 73042
L76519 73099
L76519 73267
L76491 73323
L76463 73352
L76406 73380
L76294 73380
L76238 73352
" />
<path d="M76688 72789
L76885 73380
L77081 72789
" />
<path d="M77250 72845
L77278 72817
L77334 72789
L77475 72789
L77531 72817
L77559 72845
L77588 72902
L77588 72958
L77559 73042
L77222 73380
L77588 73380
" />
<path d="M77841 73323
L77869 73352
L77841 73380
L77813 73352
L77841 73323
L77841 73380
" />
<path d="M78122 73380
L78122 72789
" />
<path d="M78178 73155
L78347 73380
" />
<path d="M78347 72986
L78122 73211
" />
<path d="M78600 73380
L78600 72986
" />
<path d="M78600 72789
L78572 72817
L78600 72845
L78628 72817
L78600 72789
L78600 72845
" />
<path d="M79134 73352
L79078 73380
L78965 73380
L78909 73352
L78881 73323
L78853 73267
L78853 73099
L78881 73042
L78909 73014
L78965 72986
L79078 72986
L79134 73014
" />
<path d="M79640 73380
L79640 73070
L79612 73014
L79556 72986
L79444 72986
L79387 73014
" />
<path d="M79640 73352
L79584 73380
L79444 73380
L79387 73352
L79359 73295
L79359 73239
L79387 73183
L79444 73155
L79584 73155
L79640 73127
" />
<path d="M80175 73380
L80175 72789
" />
<path d="M80175 73352
L80118 73380
L80006 73380
L79950 73352
L79922 73323
L79894 73267
L79894 73099
L79922 73042
L79950 73014
L80006 72986
L80118 72986
L80175 73014
" />
<path d="M80315 73436
L80765 73436
" />
<path d="M80906 72986
L80906 73577
" />
<path d="M80906 73014
L80962 72986
L81075 72986
L81131 73014
L81159 73042
L81187 73099
L81187 73267
L81159 73323
L81131 73352
L81075 73380
L80962 73380
L80906 73352
" />
<path d="M81693 73352
L81637 73380
L81525 73380
L81468 73352
L81440 73323
L81412 73267
L81412 73099
L81440 73042
L81468 73014
L81525 72986
L81637 72986
L81693 73014
" />
<path d="M81946 73380
L81946 72789
" />
<path d="M81946 73014
L82003 72986
L82115 72986
L82171 73014
L82199 73042
L82228 73099
L82228 73267
L82199 73323
L82171 73352
L82115 73380
L82003 73380
L81946 73352
" />
</g>
<g style="fill:#000000; fill-opacity:0.0; 
stroke:#000000; stroke-width:39.3701; stroke-opacity:1; 
stroke-linecap:round; stroke-linejoin:round;">
</g>
<g style="fill:#000000; fill-opacity:0.0; 
stroke:#000000; stroke-width:59.0551; stroke-opacity:1; 
stroke-linecap:round; stroke-linejoin:round;">
<path d="M69685 71459
L112205 71459
" />
</g>
<g style="fill:#000000; fill-opacity:0.0; 
stroke:#000000; stroke-width:39.3701; stroke-opacity:1; 
stroke-linecap:round; stroke-linejoin:round;">
</g>
<g style="fill:#000000; fill-opacity:0.0; 
stroke:#000000; stroke-width:59.0551; stroke-opacity:1; 
stroke-linecap:round; stroke-linejoin:round;">
<path d="M70192 72289
L70276 72317
L70417 72317
L70473 72289
L70501 72260
L70529 72204
L70529 72148
L70501 72092
L70473 72064
L70417 72036
L70304 72007
L70248 71979
L70220 71951
L70192 71895
L70192 71839
L70220 71782
L70248 71754
L70304 71726
L70445 71726
L70529 71754
" />
<path d="M70782 72317
L70782 71726
" />
<path d="M71035 72317
L71035 72007
L71007 71951
L70951 71923
L70867 71923
L70810 71951
L70782 71979
" />
<path d="M71541 72289
L71485 72317
L71373 72317
L71316 72289
L71288 72232
L71288 72007
L71316 71951
L71373 71923
L71485 71923
L71541 71951
L71570 72007
L71570 72064
L71288 72120
" />
<path d="M72048 72289
L71991 72317
L71879 72317
L71823 72289
L71795 72232
L71795 72007
L71823 71951
L71879 71923
L71991 71923
L72048 71951
L72076 72007
L72076 72064
L71795 72120
" />
<path d="M72244 71923
L72469 71923
" />
<path d="M72329 71726
L72329 72232
L72357 72289
L72413 72317
L72469 72317
" />
<path d="M72666 72260
L72694 72289
L72666 72317
L72638 72289
L72666 72260
L72666 72317
" />
<path d="M72666 71951
L72694 71979
L72666 72007
L72638 71979
L72666 71951
L72666 72007
" />
</g>
<g style="fill:#000000; fill-opacity:0.0; 
stroke:#000000; stroke-width:39.3701; stroke-opacity:1; 
stroke-linecap:round; stroke-linejoin:round;">
</g>
<g style="fill:#000000; fill-opacity:0.0; 
stroke:#000000; stroke-width:59.0551; stroke-opacity:1; 
stroke-linecap:round; stroke-linejoin:round;">
<path d="M77559 75396
L77559 76577
" />
</g>
<g style="fill:#000000; fill-opacity:0.0; 
stroke:#000000; stroke-width:39.3701; stroke-opacity:1; 
stroke-linecap:round; stroke-linejoin:round;">
</g>
<g style="fill:#000000; fill-opacity:0.0; 
stroke:#000000; stroke-width:59.0551; stroke-opacity:1; 
stroke-linecap:round; stroke-linejoin:round;">
<path d="M102756 75396
L102756 77955
" />
</g>
<g style="fill:#C1C100; fill-opacity:0.0; 
stroke:#C1C100; stroke-width:59.0551; stroke-opacity:1; 
stroke-linecap:round; stroke-linejoin:round;">
</g>
<g style="fill:#C1C100; fill-opacity:0.0; 
stroke:#C1C100; stroke-width:39.3701; stroke-opacity:1; 
stroke-linecap:round; stroke-linejoin:round;">
<path d="M20988 53510
L19681 53144
" />
<path d="M22256 53833
L20988 53510
" />
<path d="M24296 54305
L22256 53833
" />
<path d="M26626 54770
L24296 54305
" />
<path d="M28697 55116
L26626 54770
" />
<path d="M30784 55400
L28697 55116
" />
<path d="M32894 55620
L30784 55400
" />
<path d="M34937 55781
L32894 55620
" />
<path d="M36567 55864
L34937 55781
" />
<path d="M38819 55907
L36567 55864
" />
<path d="M40386 55907
L38819 55907
" />
<path d="M41815 55872
L40386 55907
" />
<path d="M43882 55770
L41815 55872
" />
<path d="M45607 55644
L43882 55770
" />
<path d="M47622 55431
L45607 55644
" />
<path d="M49197 55234
L47622 55431
" />
<path d="M51193 54927
L49197 55234
" />
<path d="M53288 54541
L51193 54927
" />
<path d="M54823 54218
L53288 54541
" />
<path d="M56284 53880
L54823 54218
" />
<path d="M57953 53451
L56284 53880
" />
<path d="M59051 53144
L57953 53451
" />
<path d="M59055.1 18110.2 A1574.8 1574.8 0.0 0 0 57480.3 16535.4 " />
<path d="M21259.8 16535.4 A1574.8 1574.8 0.0 0 0 19685 18110.2 " />
<path d="M59055 18110
L59055 25590
" />
<path d="M19685 18110
L19685 53149
" />
<path d="M59055 18110
L59055 53149
" />
<path d="M21259 16535
L57480 16535
" />
</g>
<g style="fill:#840000; fill-opacity:0.0; 
stroke:#840000; stroke-width:39.3701; stroke-opacity:1; 
stroke-linecap:round; stroke-linejoin:round;">
</g>
<g style="fill:#840000; fill-opacity:0.0; 
stroke:#840000; stroke-width:0; stroke-opacity:1; 
stroke-linecap:round; stroke-linejoin:round;">
</g>
<g style="fill:#840000; fill-opacity:1.0; 
stroke:#840000; stroke-width:0; stroke-opacity:1; 
stroke-linecap:round; stroke-linejoin:round;">
<polyline style="fill-rule:evenodd;"
points="28051,54488
28051,53976
28661,53976
28661,54488
28051,54488
" /> 
<polyline style="fill-rule:evenodd;"
points="28051,52716
28051,52204
28661,52204
28661,52716
28051,52716
" /> 
<polyline style="fill-rule:evenodd;"
points="31181,52716
31181,52204
31791,52204
31791,52716
31181,52716
" /> 
<polyline style="fill-rule:evenodd;"
points="31181,54488
31181,53976
31791,53976
31791,54488
31181,54488
" /> 
<polyline style="fill-rule:evenodd;"
points="46938,54488
46938,53976
47549,53976
47549,54488
46938,54488
" /> 
<polyline style="fill-rule:evenodd;"
points="46948,52716
46948,52204
47559,52204
47559,52716
46948,52716
" /> 
<polyline style="fill-rule:evenodd;"
points="50078,52716
50078,52204
50688,52204
50688,52716
50078,52716
" /> 
<polyline style="fill-rule:evenodd;"
points="50078,54488
50078,53976
50688,53976
50688,54488
50078,54488
" /> 
<polyline style="fill-rule:evenodd;"
points="34940,55078
34940,54566
35551,54566
35551,55078
34940,55078
" /> 
<polyline style="fill-rule:evenodd;"
points="34940,53307
34940,52795
35551,52795
35551,53307
34940,53307
" /> 
<polyline style="fill-rule:evenodd;"
points="38070,53307
38070,52795
38681,52795
38681,53307
38070,53307
" /> 
<polyline style="fill-rule:evenodd;"
points="38070,55078
38070,54566
38681,54566
38681,55078
38070,55078
" /> 
<polyline style="fill-rule:evenodd;"
points="30807,36023
30807,35137
31692,35137
31692,36023
30807,36023
" /> 
<polyline style="fill-rule:evenodd;"
points="31889,36023
31889,35137
32775,35137
32775,36023
31889,36023
" /> 
<polyline style="fill-rule:evenodd;"
points="32972,36023
32972,35137
33858,35137
33858,36023
32972,36023
" /> 
<polyline style="fill-rule:evenodd;"
points="34055,36023
34055,35137
34940,35137
34940,36023
34055,36023
" /> 
<polyline style="fill-rule:evenodd;"
points="35137,36023
35137,35137
36023,35137
36023,36023
35137,36023
" /> 
<polyline style="fill-rule:evenodd;"
points="36220,36023
36220,35137
37106,35137
37106,36023
36220,36023
" /> 
<polyline style="fill-rule:evenodd;"
points="37303,36023
37303,35137
38188,35137
38188,36023
37303,36023
" /> 
<polyline style="fill-rule:evenodd;"
points="38385,36023
38385,35137
39271,35137
39271,36023
38385,36023
" /> 
<polyline style="fill-rule:evenodd;"
points="30807,37106
30807,36220
31692,36220
31692,37106
30807,37106
" /> 
<polyline style="fill-rule:evenodd;"
points="31889,37106
31889,36220
32775,36220
32775,37106
31889,37106
" /> 
<polyline style="fill-rule:evenodd;"
points="32972,37106
32972,36220
33858,36220
33858,37106
32972,37106
" /> 
<polyline style="fill-rule:evenodd;"
points="34055,37106
34055,36220
34940,36220
34940,37106
34055,37106
" /> 
<polyline style="fill-rule:evenodd;"
points="35137,37106
35137,36220
36023,36220
36023,37106
35137,37106
" /> 
<polyline style="fill-rule:evenodd;"
points="36220,37106
36220,36220
37106,36220
37106,37106
36220,37106
" /> 
<polyline style="fill-rule:evenodd;"
points="37303,37106
37303,36220
38188,36220
38188,37106
37303,37106
" /> 
<polyline style="fill-rule:evenodd;"
points="38385,37106
38385,36220
39271,36220
39271,37106
38385,37106
" /> 
<polyline style="fill-rule:evenodd;"
points="30807,38188
30807,37303
31692,37303
31692,38188
30807,38188
" /> 
<polyline style="fill-rule:evenodd;"
points="31889,38188
31889,37303
32775,37303
32775,38188
31889,38188
" /> 
<polyline style="fill-rule:evenodd;"
points="32972,38188
32972,37303
33858,37303
33858,38188
32972,38188
" /> 
<polyline style="fill-rule:evenodd;"
points="34055,38188
34055,37303
34940,37303
34940,38188
34055,38188
" /> 
<polyline style="fill-rule:evenodd;"
points="35137,38188
35137,37303
36023,37303
36023,38188
35137,38188
" /> 
<polyline style="fill-rule:evenodd;"
points="36220,38188
36220,37303
37106,37303
37106,38188
36220,38188
" /> 
<polyline style="fill-rule:evenodd;"
points="37303,38188
37303,37303
38188,37303
38188,38188
37303,38188
" /> 
<polyline style="fill-rule:evenodd;"
points="38385,38188
38385,37303
39271,37303
39271,38188
38385,38188
" /> 
<polyline style="fill-rule:evenodd;"
points="30807,39271
30807,38385
31692,38385
31692,39271
30807,39271
" /> 
<polyline style="fill-rule:evenodd;"
points="31889,39271
31889,38385
32775,38385
32775,39271
31889,39271
" /> 
<polyline style="fill-rule:evenodd;"
points="32972,39271
32972,38385
33858,38385
33858,39271
32972,39271
" /> 
<polyline style="fill-rule:evenodd;"
points="34055,39271
34055,38385
34940,38385
34940,39271
34055,39271
" /> 
<polyline style="fill-rule:evenodd;"
points="35137,39271
35137,38385
36023,38385
36023,39271
35137,39271
" /> 
<polyline style="fill-rule:evenodd;"
points="36220,39271
36220,38385
37106,38385
37106,39271
36220,39271
" /> 
<polyline style="fill-rule:evenodd;"
points="37303,39271
37303,38385
38188,38385
38188,39271
37303,39271
" /> 
<polyline style="fill-rule:evenodd;"
points="38385,39271
38385,38385
39271,38385
39271,39271
38385,39271
" /> 
<polyline style="fill-rule:evenodd;"
points="30807,40354
30807,39468
31692,39468
31692,40354
30807,40354
" /> 
<polyline style="fill-rule:evenodd;"
points="31889,40354
31889,39468
32775,39468
32775,40354
31889,40354
" /> 
<polyline style="fill-rule:evenodd;"
points="32972,40354
32972,39468
33858,39468
33858,40354
32972,40354
" /> 
<polyline style="fill-rule:evenodd;"
points="34055,40354
34055,39468
34940,39468
34940,40354
34055,40354
" /> 
<polyline style="fill-rule:evenodd;"
points="35137,40354
35137,39468
36023,39468
36023,40354
35137,40354
" /> 
<polyline style="fill-rule:evenodd;"
points="36220,40354
36220,39468
37106,39468
37106,40354
36220,40354
" /> 
<polyline style="fill-rule:evenodd;"
points="37303,40354
37303,39468
38188,39468
38188,40354
37303,40354
" /> 
<polyline style="fill-rule:evenodd;"
points="38385,40354
38385,39468
39271,39468
39271,40354
38385,40354
" /> 
<polyline style="fill-rule:evenodd;"
points="30807,41437
30807,40551
31692,40551
31692,41437
30807,41437
" /> 
<polyline style="fill-rule:evenodd;"
points="31889,41437
31889,40551
32775,40551
32775,41437
31889,41437
" /> 
<polyline style="fill-rule:evenodd;"
points="32972,41437
32972,40551
33858,40551
33858,41437
32972,41437
" /> 
<polyline style="fill-rule:evenodd;"
points="34055,41437
34055,40551
34940,40551
34940,41437
34055,41437
" /> 
<polyline style="fill-rule:evenodd;"
points="35137,41437
35137,40551
36023,40551
36023,41437
35137,41437
" /> 
<polyline style="fill-rule:evenodd;"
points="36220,41437
36220,40551
37106,40551
37106,41437
36220,41437
" /> 
<polyline style="fill-rule:evenodd;"
points="37303,41437
37303,40551
38188,40551
38188,41437
37303,41437
" /> 
<polyline style="fill-rule:evenodd;"
points="38385,41437
38385,40551
39271,40551
39271,41437
38385,41437
" /> 
<polyline style="fill-rule:evenodd;"
points="30807,42519
30807,41633
31692,41633
31692,42519
30807,42519
" /> 
<polyline style="fill-rule:evenodd;"
points="31889,42519
31889,41633
32775,41633
32775,42519
31889,42519
" /> 
<polyline style="fill-rule:evenodd;"
points="32972,42519
32972,41633
33858,41633
33858,42519
32972,42519
" /> 
<polyline style="fill-rule:evenodd;"
points="34055,42519
34055,41633
34940,41633
34940,42519
34055,42519
" /> 
<polyline style="fill-rule:evenodd;"
points="35137,42519
35137,41633
36023,41633
36023,42519
35137,42519
" /> 
<polyline style="fill-rule:evenodd;"
points="36220,42519
36220,41633
37106,41633
37106,42519
36220,42519
" /> 
<polyline style="fill-rule:evenodd;"
points="37303,42519
37303,41633
38188,41633
38188,42519
37303,42519
" /> 
<polyline style="fill-rule:evenodd;"
points="38385,42519
38385,41633
39271,41633
39271,42519
38385,42519
" /> 
<polyline style="fill-rule:evenodd;"
points="30807,43602
30807,42716
31692,42716
31692,43602
30807,43602
" /> 
<polyline style="fill-rule:evenodd;"
points="31889,43602
31889,42716
32775,42716
32775,43602
31889,43602
" /> 
<polyline style="fill-rule:evenodd;"
points="32972,43602
32972,42716
33858,42716
33858,43602
32972,43602
" /> 
<polyline style="fill-rule:evenodd;"
points="34055,43602
34055,42716
34940,42716
34940,43602
34055,43602
" /> 
<polyline style="fill-rule:evenodd;"
points="35137,43602
35137,42716
36023,42716
36023,43602
35137,43602
" /> 
<polyline style="fill-rule:evenodd;"
points="36220,43602
36220,42716
37106,42716
37106,43602
36220,43602
" /> 
<polyline style="fill-rule:evenodd;"
points="37303,43602
37303,42716
38188,42716
38188,43602
37303,43602
" /> 
<polyline style="fill-rule:evenodd;"
points="38385,43602
38385,42716
39271,42716
39271,43602
38385,43602
" /> 
<polyline style="fill-rule:evenodd;"
points="54665,21309
54665,20816
54783,20816
54783,21309
54665,21309
" /> 
<polyline style="fill-rule:evenodd;"
points="53877,21309
53877,20816
53996,20816
53996,21309
53877,21309
" /> 
<polyline style="fill-rule:evenodd;"
points="54074,21309
54074,20816
54192,20816
54192,21309
54074,21309
" /> 
<polyline style="fill-rule:evenodd;"
points="54468,21309
54468,20816
54586,20816
54586,21309
54468,21309
" /> 
<polyline style="fill-rule:evenodd;"
points="54271,21309
54271,20816
54389,20816
54389,21309
54271,21309
" /> 
<polyline style="fill-rule:evenodd;"
points="53484,21309
53484,20816
53602,20816
53602,21309
53484,21309
" /> 
<polyline style="fill-rule:evenodd;"
points="53681,21309
53681,20816
53799,20816
53799,21309
53681,21309
" /> 
<polyline style="fill-rule:evenodd;"
points="53287,21309
53287,20816
53405,20816
53405,21309
53287,21309
" /> 
<polyline style="fill-rule:evenodd;"
points="53090,21309
53090,20816
53208,20816
53208,21309
53090,21309
" /> 
<polyline style="fill-rule:evenodd;"
points="51909,21309
51909,20816
52027,20816
52027,21309
51909,21309
" /> 
<polyline style="fill-rule:evenodd;"
points="52106,21309
52106,20816
52224,20816
52224,21309
52106,21309
" /> 
<polyline style="fill-rule:evenodd;"
points="52500,21309
52500,20816
52618,20816
52618,21309
52500,21309
" /> 
<polyline style="fill-rule:evenodd;"
points="52303,21309
52303,20816
52421,20816
52421,21309
52303,21309
" /> 
<polyline style="fill-rule:evenodd;"
points="52893,21309
52893,20816
53011,20816
53011,21309
52893,21309
" /> 
<polyline style="fill-rule:evenodd;"
points="52696,21309
52696,20816
52814,20816
52814,21309
52696,21309
" /> 
<polyline style="fill-rule:evenodd;"
points="49744,21309
49744,20816
49862,20816
49862,21309
49744,21309
" /> 
<polyline style="fill-rule:evenodd;"
points="49940,21309
49940,20816
50059,20816
50059,21309
49940,21309
" /> 
<polyline style="fill-rule:evenodd;"
points="49350,21309
49350,20816
49468,20816
49468,21309
49350,21309
" /> 
<polyline style="fill-rule:evenodd;"
points="49547,21309
49547,20816
49665,20816
49665,21309
49547,21309
" /> 
<polyline style="fill-rule:evenodd;"
points="49153,21309
49153,20816
49271,20816
49271,21309
49153,21309
" /> 
<polyline style="fill-rule:evenodd;"
points="48956,21309
48956,20816
49074,20816
49074,21309
48956,21309
" /> 
<polyline style="fill-rule:evenodd;"
points="50137,21309
50137,20816
50255,20816
50255,21309
50137,21309
" /> 
<polyline style="fill-rule:evenodd;"
points="50334,21309
50334,20816
50452,20816
50452,21309
50334,21309
" /> 
<polyline style="fill-rule:evenodd;"
points="50728,21309
50728,20816
50846,20816
50846,21309
50728,21309
" /> 
<polyline style="fill-rule:evenodd;"
points="50531,21309
50531,20816
50649,20816
50649,21309
50531,21309
" /> 
<polyline style="fill-rule:evenodd;"
points="51318,21309
51318,20816
51437,20816
51437,21309
51318,21309
" /> 
<polyline style="fill-rule:evenodd;"
points="51515,21309
51515,20816
51633,20816
51633,21309
51515,21309
" /> 
<polyline style="fill-rule:evenodd;"
points="51122,21309
51122,20816
51240,20816
51240,21309
51122,21309
" /> 
<polyline style="fill-rule:evenodd;"
points="50925,21309
50925,20816
51043,20816
51043,21309
50925,21309
" /> 
<polyline style="fill-rule:evenodd;"
points="48015,22568
48015,21387
48803,21387
48803,22568
48015,22568
" /> 
<polyline style="fill-rule:evenodd;"
points="54937,22568
54937,21387
55724,21387
55724,22568
54937,22568
" /> 
<polyline style="fill-rule:evenodd;"
points="51712,21309
51712,20816
51830,20816
51830,21309
51712,21309
" /> 
<polyline style="fill-rule:evenodd;"
points="47047,40354
47047,39468
47933,39468
47933,40354
47047,40354
" /> 
<polyline style="fill-rule:evenodd;"
points="47047,41437
47047,40551
47933,40551
47933,41437
47047,41437
" /> 
<polyline style="fill-rule:evenodd;"
points="47047,42519
47047,41633
47933,41633
47933,42519
47047,42519
" /> 
<polyline style="fill-rule:evenodd;"
points="47047,43602
47047,42716
47933,42716
47933,43602
47047,43602
" /> 
<polyline style="fill-rule:evenodd;"
points="45964,40354
45964,39468
46850,39468
46850,40354
45964,40354
" /> 
<polyline style="fill-rule:evenodd;"
points="45964,41437
45964,40551
46850,40551
46850,41437
45964,41437
" /> 
<polyline style="fill-rule:evenodd;"
points="45964,43602
45964,42716
46850,42716
46850,43602
45964,43602
" /> 
<polyline style="fill-rule:evenodd;"
points="45964,42519
45964,41633
46850,41633
46850,42519
45964,42519
" /> 
<polyline style="fill-rule:evenodd;"
points="44881,40354
44881,39468
45767,39468
45767,40354
44881,40354
" /> 
<polyline style="fill-rule:evenodd;"
points="44881,42519
44881,41633
45767,41633
45767,42519
44881,42519
" /> 
<polyline style="fill-rule:evenodd;"
points="44881,43602
44881,42716
45767,42716
45767,43602
44881,43602
" /> 
<polyline style="fill-rule:evenodd;"
points="44881,41437
44881,40551
45767,40551
45767,41437
44881,41437
" /> 
<polyline style="fill-rule:evenodd;"
points="43799,40354
43799,39468
44685,39468
44685,40354
43799,40354
" /> 
<polyline style="fill-rule:evenodd;"
points="43799,43602
43799,42716
44685,42716
44685,43602
43799,43602
" /> 
<polyline style="fill-rule:evenodd;"
points="43799,42519
43799,41633
44685,41633
44685,42519
43799,42519
" /> 
<polyline style="fill-rule:evenodd;"
points="43799,41437
43799,40551
44685,40551
44685,41437
43799,41437
" /> 
<polyline style="fill-rule:evenodd;"
points="42716,40354
42716,39468
43602,39468
43602,40354
42716,40354
" /> 
<polyline style="fill-rule:evenodd;"
points="42716,43602
42716,42716
43602,42716
43602,43602
42716,43602
" /> 
<polyline style="fill-rule:evenodd;"
points="42716,42519
42716,41633
43602,41633
43602,42519
42716,42519
" /> 
<polyline style="fill-rule:evenodd;"
points="42716,41437
42716,40551
43602,40551
43602,41437
42716,41437
" /> 
<polyline style="fill-rule:evenodd;"
points="41633,43602
41633,42716
42519,42716
42519,43602
41633,43602
" /> 
<polyline style="fill-rule:evenodd;"
points="41633,42519
41633,41633
42519,41633
42519,42519
41633,42519
" /> 
<polyline style="fill-rule:evenodd;"
points="41633,41437
41633,40551
42519,40551
42519,41437
41633,41437
" /> 
<polyline style="fill-rule:evenodd;"
points="41633,40354
41633,39468
42519,39468
42519,40354
41633,40354
" /> 
<polyline style="fill-rule:evenodd;"
points="40551,43602
40551,42716
41437,42716
41437,43602
40551,43602
" /> 
<polyline style="fill-rule:evenodd;"
points="39468,42519
39468,41633
40354,41633
40354,42519
39468,42519
" /> 
<polyline style="fill-rule:evenodd;"
points="39468,41437
39468,40551
40354,40551
40354,41437
39468,41437
" /> 
<polyline style="fill-rule:evenodd;"
points="40551,41437
40551,40551
41437,40551
41437,41437
40551,41437
" /> 
<polyline style="fill-rule:evenodd;"
points="40551,42519
40551,41633
41437,41633
41437,42519
40551,42519
" /> 
<polyline style="fill-rule:evenodd;"
points="39468,43602
39468,42716
40354,42716
40354,43602
39468,43602
" /> 
<polyline style="fill-rule:evenodd;"
points="39468,40354
39468,39468
40354,39468
40354,40354
39468,40354
" /> 
<polyline style="fill-rule:evenodd;"
points="40551,40354
40551,39468
41437,39468
41437,40354
40551,40354
" /> 
<polyline style="fill-rule:evenodd;"
points="40551,39271
40551,38385
41437,38385
41437,39271
40551,39271
" /> 
<polyline style="fill-rule:evenodd;"
points="39468,39271
39468,38385
40354,38385
40354,39271
39468,39271
" /> 
<polyline style="fill-rule:evenodd;"
points="39468,36023
39468,35137
40354,35137
40354,36023
39468,36023
" /> 
<polyline style="fill-rule:evenodd;"
points="40551,37106
40551,36220
41437,36220
41437,37106
40551,37106
" /> 
<polyline style="fill-rule:evenodd;"
points="39468,38188
39468,37303
40354,37303
40354,38188
39468,38188
" /> 
<polyline style="fill-rule:evenodd;"
points="40551,38188
40551,37303
41437,37303
41437,38188
40551,38188
" /> 
<polyline style="fill-rule:evenodd;"
points="39468,37106
39468,36220
40354,36220
40354,37106
39468,37106
" /> 
<polyline style="fill-rule:evenodd;"
points="40551,36023
40551,35137
41437,35137
41437,36023
40551,36023
" /> 
<polyline style="fill-rule:evenodd;"
points="41633,39271
41633,38385
42519,38385
42519,39271
41633,39271
" /> 
<polyline style="fill-rule:evenodd;"
points="41633,38188
41633,37303
42519,37303
42519,38188
41633,38188
" /> 
<polyline style="fill-rule:evenodd;"
points="41633,37106
41633,36220
42519,36220
42519,37106
41633,37106
" /> 
<polyline style="fill-rule:evenodd;"
points="41633,36023
41633,35137
42519,35137
42519,36023
41633,36023
" /> 
<polyline style="fill-rule:evenodd;"
points="42716,38188
42716,37303
43602,37303
43602,38188
42716,38188
" /> 
<polyline style="fill-rule:evenodd;"
points="42716,37106
42716,36220
43602,36220
43602,37106
42716,37106
" /> 
<polyline style="fill-rule:evenodd;"
points="42716,36023
42716,35137
43602,35137
43602,36023
42716,36023
" /> 
<polyline style="fill-rule:evenodd;"
points="42716,39271
42716,38385
43602,38385
43602,39271
42716,39271
" /> 
<polyline style="fill-rule:evenodd;"
points="43799,38188
43799,37303
44685,37303
44685,38188
43799,38188
" /> 
<polyline style="fill-rule:evenodd;"
points="43799,37106
43799,36220
44685,36220
44685,37106
43799,37106
" /> 
<polyline style="fill-rule:evenodd;"
points="43799,36023
43799,35137
44685,35137
44685,36023
43799,36023
" /> 
<polyline style="fill-rule:evenodd;"
points="43799,39271
43799,38385
44685,38385
44685,39271
43799,39271
" /> 
<polyline style="fill-rule:evenodd;"
points="44881,38188
44881,37303
45767,37303
45767,38188
44881,38188
" /> 
<polyline style="fill-rule:evenodd;"
points="44881,36023
44881,35137
45767,35137
45767,36023
44881,36023
" /> 
<polyline style="fill-rule:evenodd;"
points="44881,37106
44881,36220
45767,36220
45767,37106
44881,37106
" /> 
<polyline style="fill-rule:evenodd;"
points="44881,39271
44881,38385
45767,38385
45767,39271
44881,39271
" /> 
<polyline style="fill-rule:evenodd;"
points="45964,37106
45964,36220
46850,36220
46850,37106
45964,37106
" /> 
<polyline style="fill-rule:evenodd;"
points="45964,36023
45964,35137
46850,35137
46850,36023
45964,36023
" /> 
<polyline style="fill-rule:evenodd;"
points="45964,38188
45964,37303
46850,37303
46850,38188
45964,38188
" /> 
<polyline style="fill-rule:evenodd;"
points="45964,39271
45964,38385
46850,38385
46850,39271
45964,39271
" /> 
<polyline style="fill-rule:evenodd;"
points="47047,36023
47047,35137
47933,35137
47933,36023
47047,36023
" /> 
<polyline style="fill-rule:evenodd;"
points="47047,37106
47047,36220
47933,36220
47933,37106
47047,37106
" /> 
<polyline style="fill-rule:evenodd;"
points="47047,38188
47047,37303
47933,37303
47933,38188
47047,38188
" /> 
<polyline style="fill-rule:evenodd;"
points="47047,39271
47047,38385
47933,38385
47933,39271
47047,39271
" /> 
<polyline style="fill-rule:evenodd;"
points="33129,52322
33129,52007
33405,52007
33405,52322
33129,52322
" /> 
<polyline style="fill-rule:evenodd;"
points="34311,52322
34311,52007
34586,52007
34586,52322
34311,52322
" /> 
<polyline style="fill-rule:evenodd;"
points="38641,52322
38641,52007
38917,52007
38917,52322
38641,52322
" /> 
<polyline style="fill-rule:evenodd;"
points="39822,52322
39822,52007
40098,52007
40098,52322
39822,52322
" /> 
<polyline style="fill-rule:evenodd;"
points="44153,52322
44153,52007
44429,52007
44429,52322
44153,52322
" /> 
<polyline style="fill-rule:evenodd;"
points="45334,52322
45334,52007
45610,52007
45610,52322
45334,52322
" /> 
<polyline style="fill-rule:evenodd;"
points="34586,26417
34586,26732
34311,26732
34311,26417
34586,26417
" /> 
<polyline style="fill-rule:evenodd;"
points="33405,26417
33405,26732
33129,26732
33129,26417
33405,26417
" /> 
<polyline style="fill-rule:evenodd;"
points="40098,26417
40098,26732
39822,26732
39822,26417
40098,26417
" /> 
<polyline style="fill-rule:evenodd;"
points="38917,26417
38917,26732
38641,26732
38641,26417
38917,26417
" /> 
<polyline style="fill-rule:evenodd;"
points="40059,55078
40059,54566
40669,54566
40669,55078
40059,55078
" /> 
<polyline style="fill-rule:evenodd;"
points="40059,53307
40059,52795
40669,52795
40669,53307
40059,53307
" /> 
<polyline style="fill-rule:evenodd;"
points="43188,53307
43188,52795
43799,52795
43799,53307
43188,53307
" /> 
<polyline style="fill-rule:evenodd;"
points="43001,55078
43001,54566
43612,54566
43612,55078
43001,55078
" /> 
<polyline style="fill-rule:evenodd;"
points="45610,26417
45610,26732
45334,26732
45334,26417
45610,26417
" /> 
<polyline style="fill-rule:evenodd;"
points="44429,26417
44429,26732
44153,26732
44153,26417
44429,26417
" /> 
<polyline style="fill-rule:evenodd;"
points="57674,26465
57674,25874
58265,25874
58265,26465
57674,26465
" /> 
<polyline style="fill-rule:evenodd;"
points="45234,23521
45706,23521
45706,23993
45234,23993
45234,23521
" /> 
<polyline style="fill-rule:evenodd;"
points="45234,24347
45706,24347
45706,24819
45234,24819
45234,24347
" /> 
<polyline style="fill-rule:evenodd;"
points="45234,21821
45706,21821
45706,22293
45234,22293
45234,21821
" /> 
<polyline style="fill-rule:evenodd;"
points="45234,22647
45706,22647
45706,23119
45234,23119
45234,22647
" /> 
<polyline style="fill-rule:evenodd;"
points="44138,21657
44138,20082
44925,20082
44925,21657
44138,21657
" /> 
<polyline style="fill-rule:evenodd;"
points="39414,21657
39414,20082
40201,20082
40201,21657
39414,21657
" /> 
</g> 
</svg>
