G04 #@! TF.FileFunction,Legend,Top*
%FSLAX46Y46*%
G04 Gerber Fmt 4.6, Leading zero omitted, Abs format (unit mm)*
G04 Created by KiCad (PCBNEW 4.0.7-e2-6376~58~ubuntu16.04.1) date Mon Aug 20 17:04:09 2018*
%MOMM*%
%LPD*%
G01*
G04 APERTURE LIST*
%ADD10C,0.100000*%
%ADD11C,0.150000*%
%ADD12C,0.200000*%
%ADD13C,0.300000*%
%ADD14C,0.600000*%
%ADD15C,0.010000*%
%ADD16C,0.050000*%
%ADD17C,0.152400*%
G04 APERTURE END LIST*
D10*
D11*
X149042381Y-50814381D02*
X148566190Y-51147715D01*
X149042381Y-51385810D02*
X148042381Y-51385810D01*
X148042381Y-51004857D01*
X148090000Y-50909619D01*
X148137619Y-50862000D01*
X148232857Y-50814381D01*
X148375714Y-50814381D01*
X148470952Y-50862000D01*
X148518571Y-50909619D01*
X148566190Y-51004857D01*
X148566190Y-51385810D01*
X148518571Y-50385810D02*
X148518571Y-50052476D01*
X149042381Y-49909619D02*
X149042381Y-50385810D01*
X148042381Y-50385810D01*
X148042381Y-49909619D01*
X148994762Y-49528667D02*
X149042381Y-49385810D01*
X149042381Y-49147714D01*
X148994762Y-49052476D01*
X148947143Y-49004857D01*
X148851905Y-48957238D01*
X148756667Y-48957238D01*
X148661429Y-49004857D01*
X148613810Y-49052476D01*
X148566190Y-49147714D01*
X148518571Y-49338191D01*
X148470952Y-49433429D01*
X148423333Y-49481048D01*
X148328095Y-49528667D01*
X148232857Y-49528667D01*
X148137619Y-49481048D01*
X148090000Y-49433429D01*
X148042381Y-49338191D01*
X148042381Y-49100095D01*
X148090000Y-48957238D01*
X148518571Y-48528667D02*
X148518571Y-48195333D01*
X149042381Y-48052476D02*
X149042381Y-48528667D01*
X148042381Y-48528667D01*
X148042381Y-48052476D01*
X148042381Y-47766762D02*
X148042381Y-47195333D01*
X149042381Y-47481048D02*
X148042381Y-47481048D01*
D12*
X140255857Y-60498381D02*
X140589190Y-61498381D01*
X140922524Y-60498381D01*
X141779667Y-60546000D02*
X141684429Y-60498381D01*
X141541572Y-60498381D01*
X141398714Y-60546000D01*
X141303476Y-60641238D01*
X141255857Y-60736476D01*
X141208238Y-60926952D01*
X141208238Y-61069810D01*
X141255857Y-61260286D01*
X141303476Y-61355524D01*
X141398714Y-61450762D01*
X141541572Y-61498381D01*
X141636810Y-61498381D01*
X141779667Y-61450762D01*
X141827286Y-61403143D01*
X141827286Y-61069810D01*
X141636810Y-61069810D01*
X142255857Y-61498381D02*
X142255857Y-60498381D01*
X142827286Y-61498381D01*
X142827286Y-60498381D01*
X143303476Y-61498381D02*
X143303476Y-60498381D01*
X143541571Y-60498381D01*
X143684429Y-60546000D01*
X143779667Y-60641238D01*
X143827286Y-60736476D01*
X143874905Y-60926952D01*
X143874905Y-61069810D01*
X143827286Y-61260286D01*
X143779667Y-61355524D01*
X143684429Y-61450762D01*
X143541571Y-61498381D01*
X143303476Y-61498381D01*
X135691714Y-62514381D02*
X135691714Y-61514381D01*
X135929809Y-61514381D01*
X136072667Y-61562000D01*
X136167905Y-61657238D01*
X136215524Y-61752476D01*
X136263143Y-61942952D01*
X136263143Y-62085810D01*
X136215524Y-62276286D01*
X136167905Y-62371524D01*
X136072667Y-62466762D01*
X135929809Y-62514381D01*
X135691714Y-62514381D01*
X137215524Y-62514381D02*
X136644095Y-62514381D01*
X136929809Y-62514381D02*
X136929809Y-61514381D01*
X136834571Y-61657238D01*
X136739333Y-61752476D01*
X136644095Y-61800095D01*
X137548857Y-61514381D02*
X138167905Y-61514381D01*
X137834571Y-61895333D01*
X137977429Y-61895333D01*
X138072667Y-61942952D01*
X138120286Y-61990571D01*
X138167905Y-62085810D01*
X138167905Y-62323905D01*
X138120286Y-62419143D01*
X138072667Y-62466762D01*
X137977429Y-62514381D01*
X137691714Y-62514381D01*
X137596476Y-62466762D01*
X137548857Y-62419143D01*
X131016477Y-62641381D02*
X130540286Y-62641381D01*
X130540286Y-61641381D01*
X131349810Y-62641381D02*
X131349810Y-61641381D01*
X132159334Y-62117571D02*
X131826000Y-62117571D01*
X131826000Y-62641381D02*
X131826000Y-61641381D01*
X132302191Y-61641381D01*
X132683143Y-62117571D02*
X133016477Y-62117571D01*
X133159334Y-62641381D02*
X132683143Y-62641381D01*
X132683143Y-61641381D01*
X133159334Y-61641381D01*
D13*
X129933143Y-33214571D02*
X129933143Y-34428857D01*
X130004571Y-34571714D01*
X130076000Y-34643143D01*
X130218857Y-34714571D01*
X130504571Y-34714571D01*
X130647429Y-34643143D01*
X130718857Y-34571714D01*
X130790286Y-34428857D01*
X130790286Y-33214571D01*
X131433143Y-34643143D02*
X131647429Y-34714571D01*
X132004572Y-34714571D01*
X132147429Y-34643143D01*
X132218858Y-34571714D01*
X132290286Y-34428857D01*
X132290286Y-34286000D01*
X132218858Y-34143143D01*
X132147429Y-34071714D01*
X132004572Y-34000286D01*
X131718858Y-33928857D01*
X131576000Y-33857429D01*
X131504572Y-33786000D01*
X131433143Y-33643143D01*
X131433143Y-33500286D01*
X131504572Y-33357429D01*
X131576000Y-33286000D01*
X131718858Y-33214571D01*
X132076000Y-33214571D01*
X132290286Y-33286000D01*
X133433143Y-33928857D02*
X133647429Y-34000286D01*
X133718857Y-34071714D01*
X133790286Y-34214571D01*
X133790286Y-34428857D01*
X133718857Y-34571714D01*
X133647429Y-34643143D01*
X133504571Y-34714571D01*
X132933143Y-34714571D01*
X132933143Y-33214571D01*
X133433143Y-33214571D01*
X133576000Y-33286000D01*
X133647429Y-33357429D01*
X133718857Y-33500286D01*
X133718857Y-33643143D01*
X133647429Y-33786000D01*
X133576000Y-33857429D01*
X133433143Y-33928857D01*
X132933143Y-33928857D01*
X57531571Y-133829000D02*
X57388714Y-133757571D01*
X57174428Y-133757571D01*
X56960143Y-133829000D01*
X56817285Y-133971857D01*
X56745857Y-134114714D01*
X56674428Y-134400429D01*
X56674428Y-134614714D01*
X56745857Y-134900429D01*
X56817285Y-135043286D01*
X56960143Y-135186143D01*
X57174428Y-135257571D01*
X57317285Y-135257571D01*
X57531571Y-135186143D01*
X57603000Y-135114714D01*
X57603000Y-134614714D01*
X57317285Y-134614714D01*
X58888714Y-135257571D02*
X58888714Y-134471857D01*
X58817285Y-134329000D01*
X58674428Y-134257571D01*
X58388714Y-134257571D01*
X58245857Y-134329000D01*
X58888714Y-135186143D02*
X58745857Y-135257571D01*
X58388714Y-135257571D01*
X58245857Y-135186143D01*
X58174428Y-135043286D01*
X58174428Y-134900429D01*
X58245857Y-134757571D01*
X58388714Y-134686143D01*
X58745857Y-134686143D01*
X58888714Y-134614714D01*
X60245857Y-134257571D02*
X60245857Y-135257571D01*
X59603000Y-134257571D02*
X59603000Y-135043286D01*
X59674428Y-135186143D01*
X59817286Y-135257571D01*
X60031571Y-135257571D01*
X60174428Y-135186143D01*
X60245857Y-135114714D01*
X61603000Y-135257571D02*
X61603000Y-133757571D01*
X61603000Y-135186143D02*
X61460143Y-135257571D01*
X61174429Y-135257571D01*
X61031571Y-135186143D01*
X60960143Y-135114714D01*
X60888714Y-134971857D01*
X60888714Y-134543286D01*
X60960143Y-134400429D01*
X61031571Y-134329000D01*
X61174429Y-134257571D01*
X61460143Y-134257571D01*
X61603000Y-134329000D01*
X62317286Y-135257571D02*
X62317286Y-134257571D01*
X62317286Y-133757571D02*
X62245857Y-133829000D01*
X62317286Y-133900429D01*
X62388714Y-133829000D01*
X62317286Y-133757571D01*
X62317286Y-133900429D01*
X63745858Y-135257571D02*
X63031572Y-135257571D01*
X63031572Y-133757571D01*
X64888715Y-135257571D02*
X64888715Y-134471857D01*
X64817286Y-134329000D01*
X64674429Y-134257571D01*
X64388715Y-134257571D01*
X64245858Y-134329000D01*
X64888715Y-135186143D02*
X64745858Y-135257571D01*
X64388715Y-135257571D01*
X64245858Y-135186143D01*
X64174429Y-135043286D01*
X64174429Y-134900429D01*
X64245858Y-134757571D01*
X64388715Y-134686143D01*
X64745858Y-134686143D01*
X64888715Y-134614714D01*
X65603001Y-135257571D02*
X65603001Y-133757571D01*
X65603001Y-134329000D02*
X65745858Y-134257571D01*
X66031572Y-134257571D01*
X66174429Y-134329000D01*
X66245858Y-134400429D01*
X66317287Y-134543286D01*
X66317287Y-134971857D01*
X66245858Y-135114714D01*
X66174429Y-135186143D01*
X66031572Y-135257571D01*
X65745858Y-135257571D01*
X65603001Y-135186143D01*
X66888715Y-135186143D02*
X67031572Y-135257571D01*
X67317287Y-135257571D01*
X67460144Y-135186143D01*
X67531572Y-135043286D01*
X67531572Y-134971857D01*
X67460144Y-134829000D01*
X67317287Y-134757571D01*
X67103001Y-134757571D01*
X66960144Y-134686143D01*
X66888715Y-134543286D01*
X66888715Y-134471857D01*
X66960144Y-134329000D01*
X67103001Y-134257571D01*
X67317287Y-134257571D01*
X67460144Y-134329000D01*
D12*
X104791381Y-39543381D02*
X105124714Y-40543381D01*
X105458048Y-39543381D01*
X105696143Y-39543381D02*
X106315191Y-39543381D01*
X105981857Y-39924333D01*
X106124715Y-39924333D01*
X106219953Y-39971952D01*
X106267572Y-40019571D01*
X106315191Y-40114810D01*
X106315191Y-40352905D01*
X106267572Y-40448143D01*
X106219953Y-40495762D01*
X106124715Y-40543381D01*
X105839000Y-40543381D01*
X105743762Y-40495762D01*
X105696143Y-40448143D01*
X106743762Y-40448143D02*
X106791381Y-40495762D01*
X106743762Y-40543381D01*
X106696143Y-40495762D01*
X106743762Y-40448143D01*
X106743762Y-40543381D01*
X107172333Y-39638619D02*
X107219952Y-39591000D01*
X107315190Y-39543381D01*
X107553286Y-39543381D01*
X107648524Y-39591000D01*
X107696143Y-39638619D01*
X107743762Y-39733857D01*
X107743762Y-39829095D01*
X107696143Y-39971952D01*
X107124714Y-40543381D01*
X107743762Y-40543381D01*
X108219952Y-40495762D02*
X108219952Y-40543381D01*
X108172333Y-40638619D01*
X108124714Y-40686238D01*
X109362809Y-39638619D02*
X109410428Y-39591000D01*
X109505666Y-39543381D01*
X109743762Y-39543381D01*
X109839000Y-39591000D01*
X109886619Y-39638619D01*
X109934238Y-39733857D01*
X109934238Y-39829095D01*
X109886619Y-39971952D01*
X109315190Y-40543381D01*
X109934238Y-40543381D01*
X110553285Y-39543381D02*
X110648524Y-39543381D01*
X110743762Y-39591000D01*
X110791381Y-39638619D01*
X110839000Y-39733857D01*
X110886619Y-39924333D01*
X110886619Y-40162429D01*
X110839000Y-40352905D01*
X110791381Y-40448143D01*
X110743762Y-40495762D01*
X110648524Y-40543381D01*
X110553285Y-40543381D01*
X110458047Y-40495762D01*
X110410428Y-40448143D01*
X110362809Y-40352905D01*
X110315190Y-40162429D01*
X110315190Y-39924333D01*
X110362809Y-39733857D01*
X110410428Y-39638619D01*
X110458047Y-39591000D01*
X110553285Y-39543381D01*
X111839000Y-40543381D02*
X111267571Y-40543381D01*
X111553285Y-40543381D02*
X111553285Y-39543381D01*
X111458047Y-39686238D01*
X111362809Y-39781476D01*
X111267571Y-39829095D01*
X112410428Y-39971952D02*
X112315190Y-39924333D01*
X112267571Y-39876714D01*
X112219952Y-39781476D01*
X112219952Y-39733857D01*
X112267571Y-39638619D01*
X112315190Y-39591000D01*
X112410428Y-39543381D01*
X112600905Y-39543381D01*
X112696143Y-39591000D01*
X112743762Y-39638619D01*
X112791381Y-39733857D01*
X112791381Y-39781476D01*
X112743762Y-39876714D01*
X112696143Y-39924333D01*
X112600905Y-39971952D01*
X112410428Y-39971952D01*
X112315190Y-40019571D01*
X112267571Y-40067190D01*
X112219952Y-40162429D01*
X112219952Y-40352905D01*
X112267571Y-40448143D01*
X112315190Y-40495762D01*
X112410428Y-40543381D01*
X112600905Y-40543381D01*
X112696143Y-40495762D01*
X112743762Y-40448143D01*
X112791381Y-40352905D01*
X112791381Y-40162429D01*
X112743762Y-40067190D01*
X112696143Y-40019571D01*
X112600905Y-39971952D01*
D13*
X145796143Y-65376000D02*
X145653286Y-65304571D01*
X145439000Y-65304571D01*
X145224715Y-65376000D01*
X145081857Y-65518857D01*
X145010429Y-65661714D01*
X144939000Y-65947429D01*
X144939000Y-66161714D01*
X145010429Y-66447429D01*
X145081857Y-66590286D01*
X145224715Y-66733143D01*
X145439000Y-66804571D01*
X145581857Y-66804571D01*
X145796143Y-66733143D01*
X145867572Y-66661714D01*
X145867572Y-66161714D01*
X145581857Y-66161714D01*
X146510429Y-66804571D02*
X146510429Y-65304571D01*
X147367572Y-66804571D01*
X147367572Y-65304571D01*
X148081858Y-66804571D02*
X148081858Y-65304571D01*
X148439001Y-65304571D01*
X148653286Y-65376000D01*
X148796144Y-65518857D01*
X148867572Y-65661714D01*
X148939001Y-65947429D01*
X148939001Y-66161714D01*
X148867572Y-66447429D01*
X148796144Y-66590286D01*
X148653286Y-66733143D01*
X148439001Y-66804571D01*
X148081858Y-66804571D01*
D12*
X126706334Y-62641381D02*
X126373000Y-62165190D01*
X126134905Y-62641381D02*
X126134905Y-61641381D01*
X126515858Y-61641381D01*
X126611096Y-61689000D01*
X126658715Y-61736619D01*
X126706334Y-61831857D01*
X126706334Y-61974714D01*
X126658715Y-62069952D01*
X126611096Y-62117571D01*
X126515858Y-62165190D01*
X126134905Y-62165190D01*
X127039667Y-61641381D02*
X127706334Y-62641381D01*
X127706334Y-61641381D02*
X127039667Y-62641381D01*
D13*
X51530429Y-54128571D02*
X51816143Y-54128571D01*
X51959001Y-54200000D01*
X52101858Y-54342857D01*
X52173286Y-54628571D01*
X52173286Y-55128571D01*
X52101858Y-55414286D01*
X51959001Y-55557143D01*
X51816143Y-55628571D01*
X51530429Y-55628571D01*
X51387572Y-55557143D01*
X51244715Y-55414286D01*
X51173286Y-55128571D01*
X51173286Y-54628571D01*
X51244715Y-54342857D01*
X51387572Y-54200000D01*
X51530429Y-54128571D01*
X53316144Y-54842857D02*
X52816144Y-54842857D01*
X52816144Y-55628571D02*
X52816144Y-54128571D01*
X53530430Y-54128571D01*
X54601858Y-54842857D02*
X54101858Y-54842857D01*
X54101858Y-55628571D02*
X54101858Y-54128571D01*
X54816144Y-54128571D01*
X52284428Y-44984571D02*
X52570142Y-44984571D01*
X52713000Y-45056000D01*
X52855857Y-45198857D01*
X52927285Y-45484571D01*
X52927285Y-45984571D01*
X52855857Y-46270286D01*
X52713000Y-46413143D01*
X52570142Y-46484571D01*
X52284428Y-46484571D01*
X52141571Y-46413143D01*
X51998714Y-46270286D01*
X51927285Y-45984571D01*
X51927285Y-45484571D01*
X51998714Y-45198857D01*
X52141571Y-45056000D01*
X52284428Y-44984571D01*
X53570143Y-46484571D02*
X53570143Y-44984571D01*
X54427286Y-46484571D01*
X54427286Y-44984571D01*
X51102571Y-41064571D02*
X51102571Y-39564571D01*
X51102571Y-40278857D02*
X51959714Y-40278857D01*
X51959714Y-41064571D02*
X51959714Y-39564571D01*
X52674000Y-41064571D02*
X52674000Y-39564571D01*
X54174000Y-39636000D02*
X54031143Y-39564571D01*
X53816857Y-39564571D01*
X53602572Y-39636000D01*
X53459714Y-39778857D01*
X53388286Y-39921714D01*
X53316857Y-40207429D01*
X53316857Y-40421714D01*
X53388286Y-40707429D01*
X53459714Y-40850286D01*
X53602572Y-40993143D01*
X53816857Y-41064571D01*
X53959714Y-41064571D01*
X54174000Y-40993143D01*
X54245429Y-40921714D01*
X54245429Y-40421714D01*
X53959714Y-40421714D01*
X54888286Y-41064571D02*
X54888286Y-39564571D01*
X54888286Y-40278857D02*
X55745429Y-40278857D01*
X55745429Y-41064571D02*
X55745429Y-39564571D01*
X57388286Y-39564571D02*
X57888286Y-41064571D01*
X58388286Y-39564571D01*
X59174000Y-39564571D02*
X59459714Y-39564571D01*
X59602572Y-39636000D01*
X59745429Y-39778857D01*
X59816857Y-40064571D01*
X59816857Y-40564571D01*
X59745429Y-40850286D01*
X59602572Y-40993143D01*
X59459714Y-41064571D01*
X59174000Y-41064571D01*
X59031143Y-40993143D01*
X58888286Y-40850286D01*
X58816857Y-40564571D01*
X58816857Y-40064571D01*
X58888286Y-39778857D01*
X59031143Y-39636000D01*
X59174000Y-39564571D01*
X61174001Y-41064571D02*
X60459715Y-41064571D01*
X60459715Y-39564571D01*
X61459715Y-39564571D02*
X62316858Y-39564571D01*
X61888287Y-41064571D02*
X61888287Y-39564571D01*
X62745429Y-40636000D02*
X63459715Y-40636000D01*
X62602572Y-41064571D02*
X63102572Y-39564571D01*
X63602572Y-41064571D01*
X64888286Y-39636000D02*
X64745429Y-39564571D01*
X64531143Y-39564571D01*
X64316858Y-39636000D01*
X64174000Y-39778857D01*
X64102572Y-39921714D01*
X64031143Y-40207429D01*
X64031143Y-40421714D01*
X64102572Y-40707429D01*
X64174000Y-40850286D01*
X64316858Y-40993143D01*
X64531143Y-41064571D01*
X64674000Y-41064571D01*
X64888286Y-40993143D01*
X64959715Y-40921714D01*
X64959715Y-40421714D01*
X64674000Y-40421714D01*
X65602572Y-40278857D02*
X66102572Y-40278857D01*
X66316858Y-41064571D02*
X65602572Y-41064571D01*
X65602572Y-39564571D01*
X66316858Y-39564571D01*
D14*
X90571428Y-34638143D02*
X91142857Y-34638143D01*
X91428571Y-34781000D01*
X91714285Y-35066714D01*
X91857143Y-35638143D01*
X91857143Y-36638143D01*
X91714285Y-37209571D01*
X91428571Y-37495286D01*
X91142857Y-37638143D01*
X90571428Y-37638143D01*
X90285714Y-37495286D01*
X90000000Y-37209571D01*
X89857143Y-36638143D01*
X89857143Y-35638143D01*
X90000000Y-35066714D01*
X90285714Y-34781000D01*
X90571428Y-34638143D01*
X93142857Y-35638143D02*
X93142857Y-38638143D01*
X93142857Y-35781000D02*
X93428571Y-35638143D01*
X94000000Y-35638143D01*
X94285714Y-35781000D01*
X94428571Y-35923857D01*
X94571428Y-36209571D01*
X94571428Y-37066714D01*
X94428571Y-37352429D01*
X94285714Y-37495286D01*
X94000000Y-37638143D01*
X93428571Y-37638143D01*
X93142857Y-37495286D01*
X97000000Y-37495286D02*
X96714286Y-37638143D01*
X96142857Y-37638143D01*
X95857143Y-37495286D01*
X95714286Y-37209571D01*
X95714286Y-36066714D01*
X95857143Y-35781000D01*
X96142857Y-35638143D01*
X96714286Y-35638143D01*
X97000000Y-35781000D01*
X97142857Y-36066714D01*
X97142857Y-36352429D01*
X95714286Y-36638143D01*
X98428572Y-35638143D02*
X98428572Y-37638143D01*
X98428572Y-35923857D02*
X98571429Y-35781000D01*
X98857143Y-35638143D01*
X99285715Y-35638143D01*
X99571429Y-35781000D01*
X99714286Y-36066714D01*
X99714286Y-37638143D01*
X101142858Y-37638143D02*
X101142858Y-34638143D01*
X101857143Y-34638143D01*
X102285715Y-34781000D01*
X102571429Y-35066714D01*
X102714286Y-35352429D01*
X102857143Y-35923857D01*
X102857143Y-36352429D01*
X102714286Y-36923857D01*
X102571429Y-37209571D01*
X102285715Y-37495286D01*
X101857143Y-37638143D01*
X101142858Y-37638143D01*
X104142858Y-37638143D02*
X104142858Y-35638143D01*
X104142858Y-36209571D02*
X104285715Y-35923857D01*
X104428572Y-35781000D01*
X104714286Y-35638143D01*
X105000001Y-35638143D01*
X106428572Y-37638143D02*
X106142858Y-37495286D01*
X106000001Y-37352429D01*
X105857144Y-37066714D01*
X105857144Y-36209571D01*
X106000001Y-35923857D01*
X106142858Y-35781000D01*
X106428572Y-35638143D01*
X106857144Y-35638143D01*
X107142858Y-35781000D01*
X107285715Y-35923857D01*
X107428572Y-36209571D01*
X107428572Y-37066714D01*
X107285715Y-37352429D01*
X107142858Y-37495286D01*
X106857144Y-37638143D01*
X106428572Y-37638143D01*
X108714287Y-35638143D02*
X108714287Y-38638143D01*
X108714287Y-35781000D02*
X109000001Y-35638143D01*
X109571430Y-35638143D01*
X109857144Y-35781000D01*
X110000001Y-35923857D01*
X110142858Y-36209571D01*
X110142858Y-37066714D01*
X110000001Y-37352429D01*
X109857144Y-37495286D01*
X109571430Y-37638143D01*
X109000001Y-37638143D01*
X108714287Y-37495286D01*
D13*
X96354428Y-55247571D02*
X96354428Y-53747571D01*
X96711571Y-53747571D01*
X96925856Y-53819000D01*
X97068714Y-53961857D01*
X97140142Y-54104714D01*
X97211571Y-54390429D01*
X97211571Y-54604714D01*
X97140142Y-54890429D01*
X97068714Y-55033286D01*
X96925856Y-55176143D01*
X96711571Y-55247571D01*
X96354428Y-55247571D01*
X97854428Y-55247571D02*
X97854428Y-53747571D01*
X99354428Y-53819000D02*
X99211571Y-53747571D01*
X98997285Y-53747571D01*
X98783000Y-53819000D01*
X98640142Y-53961857D01*
X98568714Y-54104714D01*
X98497285Y-54390429D01*
X98497285Y-54604714D01*
X98568714Y-54890429D01*
X98640142Y-55033286D01*
X98783000Y-55176143D01*
X98997285Y-55247571D01*
X99140142Y-55247571D01*
X99354428Y-55176143D01*
X99425857Y-55104714D01*
X99425857Y-54604714D01*
X99140142Y-54604714D01*
X100068714Y-55247571D02*
X100068714Y-53747571D01*
X100568714Y-53747571D02*
X101425857Y-53747571D01*
X100997286Y-55247571D02*
X100997286Y-53747571D01*
X101854428Y-54819000D02*
X102568714Y-54819000D01*
X101711571Y-55247571D02*
X102211571Y-53747571D01*
X102711571Y-55247571D01*
X103925857Y-55247571D02*
X103211571Y-55247571D01*
X103211571Y-53747571D01*
X106068714Y-54461857D02*
X106283000Y-54533286D01*
X106354428Y-54604714D01*
X106425857Y-54747571D01*
X106425857Y-54961857D01*
X106354428Y-55104714D01*
X106283000Y-55176143D01*
X106140142Y-55247571D01*
X105568714Y-55247571D01*
X105568714Y-53747571D01*
X106068714Y-53747571D01*
X106211571Y-53819000D01*
X106283000Y-53890429D01*
X106354428Y-54033286D01*
X106354428Y-54176143D01*
X106283000Y-54319000D01*
X106211571Y-54390429D01*
X106068714Y-54461857D01*
X105568714Y-54461857D01*
X107068714Y-55247571D02*
X107068714Y-53747571D01*
X108068714Y-53747571D02*
X108354428Y-53747571D01*
X108497286Y-53819000D01*
X108640143Y-53961857D01*
X108711571Y-54247571D01*
X108711571Y-54747571D01*
X108640143Y-55033286D01*
X108497286Y-55176143D01*
X108354428Y-55247571D01*
X108068714Y-55247571D01*
X107925857Y-55176143D01*
X107783000Y-55033286D01*
X107711571Y-54747571D01*
X107711571Y-54247571D01*
X107783000Y-53961857D01*
X107925857Y-53819000D01*
X108068714Y-53747571D01*
X110068715Y-55247571D02*
X109354429Y-55247571D01*
X109354429Y-53747571D01*
X110854429Y-53747571D02*
X111140143Y-53747571D01*
X111283001Y-53819000D01*
X111425858Y-53961857D01*
X111497286Y-54247571D01*
X111497286Y-54747571D01*
X111425858Y-55033286D01*
X111283001Y-55176143D01*
X111140143Y-55247571D01*
X110854429Y-55247571D01*
X110711572Y-55176143D01*
X110568715Y-55033286D01*
X110497286Y-54747571D01*
X110497286Y-54247571D01*
X110568715Y-53961857D01*
X110711572Y-53819000D01*
X110854429Y-53747571D01*
X112925858Y-53819000D02*
X112783001Y-53747571D01*
X112568715Y-53747571D01*
X112354430Y-53819000D01*
X112211572Y-53961857D01*
X112140144Y-54104714D01*
X112068715Y-54390429D01*
X112068715Y-54604714D01*
X112140144Y-54890429D01*
X112211572Y-55033286D01*
X112354430Y-55176143D01*
X112568715Y-55247571D01*
X112711572Y-55247571D01*
X112925858Y-55176143D01*
X112997287Y-55104714D01*
X112997287Y-54604714D01*
X112711572Y-54604714D01*
X113925858Y-54533286D02*
X113925858Y-55247571D01*
X113425858Y-53747571D02*
X113925858Y-54533286D01*
X114425858Y-53747571D01*
D15*
G36*
X100639585Y-40006138D02*
X100788163Y-40086581D01*
X100923026Y-40175785D01*
X101223906Y-40389703D01*
X100820101Y-40526101D01*
X100609382Y-40595253D01*
X100448386Y-40644331D01*
X100373148Y-40662500D01*
X100342111Y-40607636D01*
X100330936Y-40487875D01*
X100359982Y-40301548D01*
X100430541Y-40123704D01*
X100520543Y-40003893D01*
X100555448Y-39983823D01*
X100639585Y-40006138D01*
X100639585Y-40006138D01*
G37*
X100639585Y-40006138D02*
X100788163Y-40086581D01*
X100923026Y-40175785D01*
X101223906Y-40389703D01*
X100820101Y-40526101D01*
X100609382Y-40595253D01*
X100448386Y-40644331D01*
X100373148Y-40662500D01*
X100342111Y-40607636D01*
X100330936Y-40487875D01*
X100359982Y-40301548D01*
X100430541Y-40123704D01*
X100520543Y-40003893D01*
X100555448Y-39983823D01*
X100639585Y-40006138D01*
G36*
X98821389Y-40257366D02*
X99036131Y-40307818D01*
X99260880Y-40375955D01*
X99459304Y-40452887D01*
X99504500Y-40474441D01*
X99698810Y-40596271D01*
X99870018Y-40740370D01*
X99879730Y-40750544D01*
X100032710Y-40914448D01*
X99725997Y-41185349D01*
X99462143Y-41383071D01*
X99221889Y-41482459D01*
X99160266Y-41494134D01*
X98968617Y-41529388D01*
X98819104Y-41569155D01*
X98796486Y-41577862D01*
X98717479Y-41580423D01*
X98652708Y-41492440D01*
X98610167Y-41381227D01*
X98572210Y-41212582D01*
X98544851Y-40985891D01*
X98529496Y-40738375D01*
X98527552Y-40507255D01*
X98540424Y-40329751D01*
X98567248Y-40245084D01*
X98652984Y-40233491D01*
X98821389Y-40257366D01*
X98821389Y-40257366D01*
G37*
X98821389Y-40257366D02*
X99036131Y-40307818D01*
X99260880Y-40375955D01*
X99459304Y-40452887D01*
X99504500Y-40474441D01*
X99698810Y-40596271D01*
X99870018Y-40740370D01*
X99879730Y-40750544D01*
X100032710Y-40914448D01*
X99725997Y-41185349D01*
X99462143Y-41383071D01*
X99221889Y-41482459D01*
X99160266Y-41494134D01*
X98968617Y-41529388D01*
X98819104Y-41569155D01*
X98796486Y-41577862D01*
X98717479Y-41580423D01*
X98652708Y-41492440D01*
X98610167Y-41381227D01*
X98572210Y-41212582D01*
X98544851Y-40985891D01*
X98529496Y-40738375D01*
X98527552Y-40507255D01*
X98540424Y-40329751D01*
X98567248Y-40245084D01*
X98652984Y-40233491D01*
X98821389Y-40257366D01*
G36*
X103359911Y-41139358D02*
X103618027Y-41477048D01*
X103766620Y-41778423D01*
X103810975Y-42061468D01*
X103756377Y-42344168D01*
X103732252Y-42406572D01*
X103649368Y-42553144D01*
X103525896Y-42666189D01*
X103340696Y-42755686D01*
X103072627Y-42831617D01*
X102700550Y-42903965D01*
X102666567Y-42909743D01*
X102390282Y-42958674D01*
X102153353Y-43004854D01*
X101989264Y-43041549D01*
X101941168Y-43055637D01*
X101865486Y-43067627D01*
X101874335Y-42995543D01*
X101882358Y-42975399D01*
X102037641Y-42498286D01*
X102105722Y-42044920D01*
X102108000Y-41955010D01*
X102113164Y-41756238D01*
X102142521Y-41643529D01*
X102216860Y-41575990D01*
X102326415Y-41525444D01*
X102493276Y-41431479D01*
X102696902Y-41283758D01*
X102842203Y-41160076D01*
X103139576Y-40885967D01*
X103359911Y-41139358D01*
X103359911Y-41139358D01*
G37*
X103359911Y-41139358D02*
X103618027Y-41477048D01*
X103766620Y-41778423D01*
X103810975Y-42061468D01*
X103756377Y-42344168D01*
X103732252Y-42406572D01*
X103649368Y-42553144D01*
X103525896Y-42666189D01*
X103340696Y-42755686D01*
X103072627Y-42831617D01*
X102700550Y-42903965D01*
X102666567Y-42909743D01*
X102390282Y-42958674D01*
X102153353Y-43004854D01*
X101989264Y-43041549D01*
X101941168Y-43055637D01*
X101865486Y-43067627D01*
X101874335Y-42995543D01*
X101882358Y-42975399D01*
X102037641Y-42498286D01*
X102105722Y-42044920D01*
X102108000Y-41955010D01*
X102113164Y-41756238D01*
X102142521Y-41643529D01*
X102216860Y-41575990D01*
X102326415Y-41525444D01*
X102493276Y-41431479D01*
X102696902Y-41283758D01*
X102842203Y-41160076D01*
X103139576Y-40885967D01*
X103359911Y-41139358D01*
G36*
X101437067Y-40757035D02*
X101504143Y-40844775D01*
X101585322Y-41023455D01*
X101586817Y-41026930D01*
X101740238Y-41447729D01*
X101808471Y-41811992D01*
X101796969Y-42152142D01*
X101786596Y-42214698D01*
X101730431Y-42424952D01*
X101638502Y-42673579D01*
X101524820Y-42932007D01*
X101403395Y-43171666D01*
X101288238Y-43363985D01*
X101193361Y-43480394D01*
X101155500Y-43501632D01*
X101039977Y-43487227D01*
X100866701Y-43434989D01*
X100806250Y-43411800D01*
X100525236Y-43274961D01*
X100227690Y-43093706D01*
X99956072Y-42896684D01*
X99752843Y-42712545D01*
X99727767Y-42684128D01*
X99600373Y-42440970D01*
X99565647Y-42151002D01*
X99624816Y-41855547D01*
X99698685Y-41704287D01*
X99901748Y-41460444D01*
X100192519Y-41219444D01*
X100533441Y-41005039D01*
X100886953Y-40840980D01*
X101203169Y-40752916D01*
X101348580Y-40734870D01*
X101437067Y-40757035D01*
X101437067Y-40757035D01*
G37*
X101437067Y-40757035D02*
X101504143Y-40844775D01*
X101585322Y-41023455D01*
X101586817Y-41026930D01*
X101740238Y-41447729D01*
X101808471Y-41811992D01*
X101796969Y-42152142D01*
X101786596Y-42214698D01*
X101730431Y-42424952D01*
X101638502Y-42673579D01*
X101524820Y-42932007D01*
X101403395Y-43171666D01*
X101288238Y-43363985D01*
X101193361Y-43480394D01*
X101155500Y-43501632D01*
X101039977Y-43487227D01*
X100866701Y-43434989D01*
X100806250Y-43411800D01*
X100525236Y-43274961D01*
X100227690Y-43093706D01*
X99956072Y-42896684D01*
X99752843Y-42712545D01*
X99727767Y-42684128D01*
X99600373Y-42440970D01*
X99565647Y-42151002D01*
X99624816Y-41855547D01*
X99698685Y-41704287D01*
X99901748Y-41460444D01*
X100192519Y-41219444D01*
X100533441Y-41005039D01*
X100886953Y-40840980D01*
X101203169Y-40752916D01*
X101348580Y-40734870D01*
X101437067Y-40757035D01*
G36*
X99212427Y-41847023D02*
X99245272Y-41972603D01*
X99250500Y-42125529D01*
X99294907Y-42477074D01*
X99433717Y-42788999D01*
X99675316Y-43071404D01*
X100028088Y-43334388D01*
X100441125Y-43559699D01*
X100709297Y-43694580D01*
X100860230Y-43783474D01*
X100894349Y-43828190D01*
X100812077Y-43830538D01*
X100613839Y-43792325D01*
X100488750Y-43762827D01*
X100266543Y-43727883D01*
X99954865Y-43703960D01*
X99590818Y-43691685D01*
X99211506Y-43691685D01*
X98854031Y-43704590D01*
X98561613Y-43730236D01*
X98158477Y-43781723D01*
X98180613Y-43179115D01*
X98203221Y-42831614D01*
X98252515Y-42577336D01*
X98345363Y-42382884D01*
X98498632Y-42214859D01*
X98729189Y-42039867D01*
X98770121Y-42011875D01*
X98992359Y-41870801D01*
X99133959Y-41814470D01*
X99212427Y-41847023D01*
X99212427Y-41847023D01*
G37*
X99212427Y-41847023D02*
X99245272Y-41972603D01*
X99250500Y-42125529D01*
X99294907Y-42477074D01*
X99433717Y-42788999D01*
X99675316Y-43071404D01*
X100028088Y-43334388D01*
X100441125Y-43559699D01*
X100709297Y-43694580D01*
X100860230Y-43783474D01*
X100894349Y-43828190D01*
X100812077Y-43830538D01*
X100613839Y-43792325D01*
X100488750Y-43762827D01*
X100266543Y-43727883D01*
X99954865Y-43703960D01*
X99590818Y-43691685D01*
X99211506Y-43691685D01*
X98854031Y-43704590D01*
X98561613Y-43730236D01*
X98158477Y-43781723D01*
X98180613Y-43179115D01*
X98203221Y-42831614D01*
X98252515Y-42577336D01*
X98345363Y-42382884D01*
X98498632Y-42214859D01*
X98729189Y-42039867D01*
X98770121Y-42011875D01*
X98992359Y-41870801D01*
X99133959Y-41814470D01*
X99212427Y-41847023D01*
G36*
X96430152Y-40996634D02*
X96750822Y-41014199D01*
X96989213Y-41043668D01*
X97190021Y-41094484D01*
X97397941Y-41176091D01*
X97499948Y-41222665D01*
X97755634Y-41353779D01*
X98002963Y-41499471D01*
X98177397Y-41620066D01*
X98425453Y-41816531D01*
X98205112Y-42073950D01*
X97962293Y-42445561D01*
X97828083Y-42870776D01*
X97799193Y-43360376D01*
X97801084Y-43398306D01*
X97825901Y-43837500D01*
X97347575Y-43831121D01*
X97074489Y-43820227D01*
X96817163Y-43797777D01*
X96631024Y-43768616D01*
X96630138Y-43768408D01*
X96222644Y-43622313D01*
X95857214Y-43395991D01*
X95558154Y-43110232D01*
X95349768Y-42785828D01*
X95288623Y-42620846D01*
X95202410Y-42239373D01*
X95154804Y-41864662D01*
X95149609Y-41537877D01*
X95172440Y-41363167D01*
X95221326Y-41219485D01*
X95310818Y-41132361D01*
X95481055Y-41065010D01*
X95506159Y-41057312D01*
X95793030Y-41006413D01*
X96196267Y-40991160D01*
X96430152Y-40996634D01*
X96430152Y-40996634D01*
G37*
X96430152Y-40996634D02*
X96750822Y-41014199D01*
X96989213Y-41043668D01*
X97190021Y-41094484D01*
X97397941Y-41176091D01*
X97499948Y-41222665D01*
X97755634Y-41353779D01*
X98002963Y-41499471D01*
X98177397Y-41620066D01*
X98425453Y-41816531D01*
X98205112Y-42073950D01*
X97962293Y-42445561D01*
X97828083Y-42870776D01*
X97799193Y-43360376D01*
X97801084Y-43398306D01*
X97825901Y-43837500D01*
X97347575Y-43831121D01*
X97074489Y-43820227D01*
X96817163Y-43797777D01*
X96631024Y-43768616D01*
X96630138Y-43768408D01*
X96222644Y-43622313D01*
X95857214Y-43395991D01*
X95558154Y-43110232D01*
X95349768Y-42785828D01*
X95288623Y-42620846D01*
X95202410Y-42239373D01*
X95154804Y-41864662D01*
X95149609Y-41537877D01*
X95172440Y-41363167D01*
X95221326Y-41219485D01*
X95310818Y-41132361D01*
X95481055Y-41065010D01*
X95506159Y-41057312D01*
X95793030Y-41006413D01*
X96196267Y-40991160D01*
X96430152Y-40996634D01*
G36*
X104859450Y-42059278D02*
X104899488Y-42114306D01*
X104911141Y-42135164D01*
X104948631Y-42261981D01*
X104982147Y-42482923D01*
X105007419Y-42765117D01*
X105016788Y-42948500D01*
X105008754Y-43527172D01*
X104933519Y-44031179D01*
X104783843Y-44497810D01*
X104666319Y-44753716D01*
X104564072Y-44915862D01*
X104405777Y-45121150D01*
X104211760Y-45348047D01*
X104002348Y-45575019D01*
X103797868Y-45780531D01*
X103618646Y-45943049D01*
X103485010Y-46041040D01*
X103433321Y-46059949D01*
X103327496Y-46033194D01*
X103159656Y-45965526D01*
X103073295Y-45924790D01*
X102840756Y-45775138D01*
X102567510Y-45545177D01*
X102280886Y-45261841D01*
X102008208Y-44952060D01*
X101785446Y-44655558D01*
X101629767Y-44439993D01*
X101473067Y-44244936D01*
X101360198Y-44123541D01*
X101187250Y-43963052D01*
X101377750Y-43804101D01*
X101702301Y-43562198D01*
X102019961Y-43396723D01*
X102379395Y-43286395D01*
X102693065Y-43228905D01*
X103187583Y-43127267D01*
X103604363Y-42972204D01*
X103985475Y-42743173D01*
X104372989Y-42419629D01*
X104397592Y-42396546D01*
X104599678Y-42207568D01*
X104730228Y-42095382D01*
X104809924Y-42049461D01*
X104859450Y-42059278D01*
X104859450Y-42059278D01*
G37*
X104859450Y-42059278D02*
X104899488Y-42114306D01*
X104911141Y-42135164D01*
X104948631Y-42261981D01*
X104982147Y-42482923D01*
X105007419Y-42765117D01*
X105016788Y-42948500D01*
X105008754Y-43527172D01*
X104933519Y-44031179D01*
X104783843Y-44497810D01*
X104666319Y-44753716D01*
X104564072Y-44915862D01*
X104405777Y-45121150D01*
X104211760Y-45348047D01*
X104002348Y-45575019D01*
X103797868Y-45780531D01*
X103618646Y-45943049D01*
X103485010Y-46041040D01*
X103433321Y-46059949D01*
X103327496Y-46033194D01*
X103159656Y-45965526D01*
X103073295Y-45924790D01*
X102840756Y-45775138D01*
X102567510Y-45545177D01*
X102280886Y-45261841D01*
X102008208Y-44952060D01*
X101785446Y-44655558D01*
X101629767Y-44439993D01*
X101473067Y-44244936D01*
X101360198Y-44123541D01*
X101187250Y-43963052D01*
X101377750Y-43804101D01*
X101702301Y-43562198D01*
X102019961Y-43396723D01*
X102379395Y-43286395D01*
X102693065Y-43228905D01*
X103187583Y-43127267D01*
X103604363Y-42972204D01*
X103985475Y-42743173D01*
X104372989Y-42419629D01*
X104397592Y-42396546D01*
X104599678Y-42207568D01*
X104730228Y-42095382D01*
X104809924Y-42049461D01*
X104859450Y-42059278D01*
G36*
X94890765Y-43282199D02*
X95161085Y-43413690D01*
X95209067Y-43447897D01*
X95617142Y-43742860D01*
X95961254Y-43961998D01*
X96271354Y-44114983D01*
X96577389Y-44211488D01*
X96909309Y-44261185D01*
X97297062Y-44273747D01*
X97726500Y-44260928D01*
X98097474Y-44239992D01*
X98484713Y-44211824D01*
X98836858Y-44180470D01*
X99056062Y-44156161D01*
X99573687Y-44119907D01*
X100061854Y-44152889D01*
X100072062Y-44154284D01*
X100359774Y-44210903D01*
X100650847Y-44296577D01*
X100915401Y-44399250D01*
X101123559Y-44506865D01*
X101245441Y-44607367D01*
X101260532Y-44633843D01*
X101241898Y-44760160D01*
X101113444Y-44948619D01*
X100875730Y-45198556D01*
X100529319Y-45509305D01*
X100497208Y-45536535D01*
X100188068Y-45792515D01*
X99872494Y-46044633D01*
X99566505Y-46281077D01*
X99286117Y-46490038D01*
X99047349Y-46659706D01*
X98866218Y-46778270D01*
X98758743Y-46833920D01*
X98737329Y-46834132D01*
X98699261Y-46751026D01*
X98645527Y-46591402D01*
X98619941Y-46504500D01*
X98508440Y-46216581D01*
X98368323Y-46048751D01*
X98203050Y-45996500D01*
X98014185Y-46037375D01*
X97761090Y-46149133D01*
X97471883Y-46315476D01*
X97174680Y-46520104D01*
X96897599Y-46746716D01*
X96877675Y-46764820D01*
X96659021Y-46954080D01*
X96509664Y-47058759D01*
X96436473Y-47074227D01*
X96431401Y-47065638D01*
X96404207Y-46968548D01*
X96353459Y-46782559D01*
X96288360Y-46541475D01*
X96261385Y-46441000D01*
X96088642Y-45852478D01*
X95912375Y-45374008D01*
X95723531Y-44988765D01*
X95513057Y-44679922D01*
X95271902Y-44430651D01*
X95112398Y-44305305D01*
X94812988Y-44107069D01*
X94538553Y-43967235D01*
X94236510Y-43863050D01*
X93903467Y-43782219D01*
X93393799Y-43672576D01*
X93850735Y-43461961D01*
X94254777Y-43306135D01*
X94595058Y-43246281D01*
X94890765Y-43282199D01*
X94890765Y-43282199D01*
G37*
X94890765Y-43282199D02*
X95161085Y-43413690D01*
X95209067Y-43447897D01*
X95617142Y-43742860D01*
X95961254Y-43961998D01*
X96271354Y-44114983D01*
X96577389Y-44211488D01*
X96909309Y-44261185D01*
X97297062Y-44273747D01*
X97726500Y-44260928D01*
X98097474Y-44239992D01*
X98484713Y-44211824D01*
X98836858Y-44180470D01*
X99056062Y-44156161D01*
X99573687Y-44119907D01*
X100061854Y-44152889D01*
X100072062Y-44154284D01*
X100359774Y-44210903D01*
X100650847Y-44296577D01*
X100915401Y-44399250D01*
X101123559Y-44506865D01*
X101245441Y-44607367D01*
X101260532Y-44633843D01*
X101241898Y-44760160D01*
X101113444Y-44948619D01*
X100875730Y-45198556D01*
X100529319Y-45509305D01*
X100497208Y-45536535D01*
X100188068Y-45792515D01*
X99872494Y-46044633D01*
X99566505Y-46281077D01*
X99286117Y-46490038D01*
X99047349Y-46659706D01*
X98866218Y-46778270D01*
X98758743Y-46833920D01*
X98737329Y-46834132D01*
X98699261Y-46751026D01*
X98645527Y-46591402D01*
X98619941Y-46504500D01*
X98508440Y-46216581D01*
X98368323Y-46048751D01*
X98203050Y-45996500D01*
X98014185Y-46037375D01*
X97761090Y-46149133D01*
X97471883Y-46315476D01*
X97174680Y-46520104D01*
X96897599Y-46746716D01*
X96877675Y-46764820D01*
X96659021Y-46954080D01*
X96509664Y-47058759D01*
X96436473Y-47074227D01*
X96431401Y-47065638D01*
X96404207Y-46968548D01*
X96353459Y-46782559D01*
X96288360Y-46541475D01*
X96261385Y-46441000D01*
X96088642Y-45852478D01*
X95912375Y-45374008D01*
X95723531Y-44988765D01*
X95513057Y-44679922D01*
X95271902Y-44430651D01*
X95112398Y-44305305D01*
X94812988Y-44107069D01*
X94538553Y-43967235D01*
X94236510Y-43863050D01*
X93903467Y-43782219D01*
X93393799Y-43672576D01*
X93850735Y-43461961D01*
X94254777Y-43306135D01*
X94595058Y-43246281D01*
X94890765Y-43282199D01*
G36*
X96670631Y-47499539D02*
X96748867Y-47521369D01*
X97064953Y-47654124D01*
X97347006Y-47828187D01*
X97578020Y-48026235D01*
X97740990Y-48230942D01*
X97818910Y-48424983D01*
X97796194Y-48588424D01*
X97653248Y-48741140D01*
X97407662Y-48879289D01*
X97083765Y-48991024D01*
X96871448Y-49038719D01*
X96617809Y-49071089D01*
X96295584Y-49091500D01*
X95940197Y-49099995D01*
X95587074Y-49096618D01*
X95271640Y-49081415D01*
X95029321Y-49054429D01*
X94945865Y-49036307D01*
X94755570Y-48928102D01*
X94659087Y-48752513D01*
X94656541Y-48527899D01*
X94748060Y-48272619D01*
X94933769Y-48005031D01*
X94938759Y-47999322D01*
X95023819Y-47929234D01*
X95478360Y-47929234D01*
X95485062Y-47962942D01*
X95518939Y-48043026D01*
X95587449Y-48100804D01*
X95714937Y-48145625D01*
X95925748Y-48186840D01*
X96159152Y-48221858D01*
X96393726Y-48262953D01*
X96583623Y-48310429D01*
X96688563Y-48354171D01*
X96689716Y-48355101D01*
X96744453Y-48460192D01*
X96772876Y-48631279D01*
X96774000Y-48672485D01*
X96780123Y-48830506D01*
X96815731Y-48891799D01*
X96906681Y-48886581D01*
X96948625Y-48876564D01*
X97135615Y-48819791D01*
X97327334Y-48748459D01*
X97523972Y-48621492D01*
X97642198Y-48452104D01*
X97663000Y-48347142D01*
X97610259Y-48241005D01*
X97469401Y-48101011D01*
X97266467Y-47948947D01*
X97027500Y-47806602D01*
X96999798Y-47792304D01*
X96824336Y-47711466D01*
X96666699Y-47666757D01*
X96481723Y-47651054D01*
X96224246Y-47657230D01*
X96163064Y-47660307D01*
X95832962Y-47689830D01*
X95616815Y-47740919D01*
X95502616Y-47818934D01*
X95478360Y-47929234D01*
X95023819Y-47929234D01*
X95198272Y-47785490D01*
X95540356Y-47618262D01*
X95925870Y-47507970D01*
X96315676Y-47464951D01*
X96670631Y-47499539D01*
X96670631Y-47499539D01*
G37*
X96670631Y-47499539D02*
X96748867Y-47521369D01*
X97064953Y-47654124D01*
X97347006Y-47828187D01*
X97578020Y-48026235D01*
X97740990Y-48230942D01*
X97818910Y-48424983D01*
X97796194Y-48588424D01*
X97653248Y-48741140D01*
X97407662Y-48879289D01*
X97083765Y-48991024D01*
X96871448Y-49038719D01*
X96617809Y-49071089D01*
X96295584Y-49091500D01*
X95940197Y-49099995D01*
X95587074Y-49096618D01*
X95271640Y-49081415D01*
X95029321Y-49054429D01*
X94945865Y-49036307D01*
X94755570Y-48928102D01*
X94659087Y-48752513D01*
X94656541Y-48527899D01*
X94748060Y-48272619D01*
X94933769Y-48005031D01*
X94938759Y-47999322D01*
X95023819Y-47929234D01*
X95478360Y-47929234D01*
X95485062Y-47962942D01*
X95518939Y-48043026D01*
X95587449Y-48100804D01*
X95714937Y-48145625D01*
X95925748Y-48186840D01*
X96159152Y-48221858D01*
X96393726Y-48262953D01*
X96583623Y-48310429D01*
X96688563Y-48354171D01*
X96689716Y-48355101D01*
X96744453Y-48460192D01*
X96772876Y-48631279D01*
X96774000Y-48672485D01*
X96780123Y-48830506D01*
X96815731Y-48891799D01*
X96906681Y-48886581D01*
X96948625Y-48876564D01*
X97135615Y-48819791D01*
X97327334Y-48748459D01*
X97523972Y-48621492D01*
X97642198Y-48452104D01*
X97663000Y-48347142D01*
X97610259Y-48241005D01*
X97469401Y-48101011D01*
X97266467Y-47948947D01*
X97027500Y-47806602D01*
X96999798Y-47792304D01*
X96824336Y-47711466D01*
X96666699Y-47666757D01*
X96481723Y-47651054D01*
X96224246Y-47657230D01*
X96163064Y-47660307D01*
X95832962Y-47689830D01*
X95616815Y-47740919D01*
X95502616Y-47818934D01*
X95478360Y-47929234D01*
X95023819Y-47929234D01*
X95198272Y-47785490D01*
X95540356Y-47618262D01*
X95925870Y-47507970D01*
X96315676Y-47464951D01*
X96670631Y-47499539D01*
G36*
X93661175Y-44205626D02*
X94034988Y-44267416D01*
X94145417Y-44300450D01*
X94579927Y-44493792D01*
X94952121Y-44743344D01*
X95230884Y-45028004D01*
X95243545Y-45045167D01*
X95343292Y-45220036D01*
X95464528Y-45489958D01*
X95596805Y-45827069D01*
X95729670Y-46203504D01*
X95852674Y-46591400D01*
X95939344Y-46900379D01*
X96001213Y-47137509D01*
X95737088Y-47208630D01*
X95504873Y-47284390D01*
X95279193Y-47377635D01*
X95250357Y-47391683D01*
X95145370Y-47441070D01*
X95054714Y-47463628D01*
X94948515Y-47455154D01*
X94796900Y-47411445D01*
X94569994Y-47328298D01*
X94435879Y-47277093D01*
X94139247Y-47169237D01*
X93936578Y-47110832D01*
X93806998Y-47097100D01*
X93738025Y-47117423D01*
X93644894Y-47243034D01*
X93585332Y-47462319D01*
X93560669Y-47746109D01*
X93572237Y-48065237D01*
X93621370Y-48390536D01*
X93671132Y-48582046D01*
X93777211Y-48781970D01*
X93945192Y-48958721D01*
X94135690Y-49077630D01*
X94268666Y-49108000D01*
X94415947Y-49137189D01*
X94610073Y-49210809D01*
X94692419Y-49250875D01*
X94811745Y-49307717D01*
X94933724Y-49347225D01*
X95084147Y-49372489D01*
X95288803Y-49386599D01*
X95573481Y-49392643D01*
X95885000Y-49393750D01*
X96307598Y-49389294D01*
X96631924Y-49374232D01*
X96886450Y-49346021D01*
X97099649Y-49302116D01*
X97186750Y-49277461D01*
X97728216Y-49048606D01*
X98241390Y-48707351D01*
X98710743Y-48267656D01*
X99120747Y-47743477D01*
X99377402Y-47308260D01*
X99476474Y-47140668D01*
X99596335Y-47000094D01*
X99765498Y-46859829D01*
X100012475Y-46693162D01*
X100079123Y-46650905D01*
X100492784Y-46412087D01*
X100871884Y-46247482D01*
X101241287Y-46155254D01*
X101625859Y-46133566D01*
X102050465Y-46180580D01*
X102539970Y-46294460D01*
X103002562Y-46434927D01*
X103370061Y-46546450D01*
X103700014Y-46631384D01*
X103962959Y-46682734D01*
X104097937Y-46695000D01*
X104271946Y-46702446D01*
X104378398Y-46721354D01*
X104394000Y-46733736D01*
X104366234Y-46805436D01*
X104293506Y-46955820D01*
X104193502Y-47148645D01*
X104002516Y-47460581D01*
X103756608Y-47795967D01*
X103485174Y-48119433D01*
X103217608Y-48395608D01*
X103014624Y-48567155D01*
X102872606Y-48675621D01*
X102793277Y-48768390D01*
X102757814Y-48887828D01*
X102747396Y-49076301D01*
X102746126Y-49171500D01*
X102696917Y-49695493D01*
X102555211Y-50220151D01*
X102376646Y-50649039D01*
X102200765Y-50974737D01*
X101983461Y-51307223D01*
X101750083Y-51612328D01*
X101525978Y-51855881D01*
X101404076Y-51960054D01*
X101162569Y-52081617D01*
X100852389Y-52137046D01*
X100466340Y-52125506D01*
X99997224Y-52046163D01*
X99437844Y-51898181D01*
X98781004Y-51680727D01*
X98679000Y-51644017D01*
X98277299Y-51499031D01*
X97972502Y-51394696D01*
X97742097Y-51328431D01*
X97563572Y-51297655D01*
X97414413Y-51299787D01*
X97272110Y-51332247D01*
X97114151Y-51392454D01*
X96982601Y-51449555D01*
X96756484Y-51543800D01*
X96580657Y-51593878D01*
X96419629Y-51597216D01*
X96237906Y-51551245D01*
X95999996Y-51453392D01*
X95806109Y-51364332D01*
X95567467Y-51269792D01*
X95383973Y-51229553D01*
X95315595Y-51234584D01*
X95222512Y-51291362D01*
X95059483Y-51417446D01*
X94848709Y-51594747D01*
X94612392Y-51805177D01*
X94589247Y-51826392D01*
X94152853Y-52208341D01*
X93777674Y-52493541D01*
X93452090Y-52689279D01*
X93164478Y-52802845D01*
X92976795Y-52837605D01*
X92785133Y-52841369D01*
X92607128Y-52804865D01*
X92393971Y-52715459D01*
X92277466Y-52656625D01*
X91912999Y-52419571D01*
X91533634Y-52084668D01*
X91445822Y-51994689D01*
X91284029Y-51810485D01*
X91089152Y-51566787D01*
X90872326Y-51279958D01*
X90644688Y-50966360D01*
X90417375Y-50642355D01*
X90201522Y-50324307D01*
X90008267Y-50028577D01*
X89848745Y-49771528D01*
X89734094Y-49569523D01*
X89675448Y-49438923D01*
X89677432Y-49396429D01*
X89760624Y-49388461D01*
X89952722Y-49379396D01*
X90235642Y-49369791D01*
X90591301Y-49360201D01*
X91001614Y-49351184D01*
X91356489Y-49344766D01*
X91862324Y-49335418D01*
X92256804Y-49325185D01*
X92555570Y-49312886D01*
X92774268Y-49297341D01*
X92928541Y-49277370D01*
X93034032Y-49251791D01*
X93106384Y-49219425D01*
X93118614Y-49211799D01*
X93244772Y-49072273D01*
X93279551Y-48905443D01*
X93216400Y-48755421D01*
X93190118Y-48730210D01*
X93094021Y-48696718D01*
X92898965Y-48660978D01*
X92632832Y-48627161D01*
X92323501Y-48599442D01*
X92309753Y-48598457D01*
X91804231Y-48548436D01*
X91395280Y-48472536D01*
X91053657Y-48362190D01*
X90750118Y-48208829D01*
X90567869Y-48088132D01*
X90294821Y-47892043D01*
X90089535Y-48065262D01*
X89919331Y-48186290D01*
X89688670Y-48321331D01*
X89432182Y-48453436D01*
X89184493Y-48565656D01*
X88980230Y-48641041D01*
X88867323Y-48663500D01*
X88763797Y-48636321D01*
X88572420Y-48561870D01*
X88318372Y-48450774D01*
X88026835Y-48313658D01*
X87954799Y-48278411D01*
X87643222Y-48123466D01*
X87429226Y-48011164D01*
X87296003Y-47928971D01*
X87226747Y-47864352D01*
X87204651Y-47804774D01*
X87212907Y-47737702D01*
X87215513Y-47727061D01*
X87299022Y-47511960D01*
X87444569Y-47247008D01*
X87627174Y-46974854D01*
X87741634Y-46828822D01*
X87922189Y-46613394D01*
X88871469Y-46844707D01*
X89214790Y-46925703D01*
X89526453Y-46994317D01*
X89780111Y-47045110D01*
X89949416Y-47072648D01*
X89992387Y-47076010D01*
X90253942Y-47029642D01*
X90456977Y-46903057D01*
X90543997Y-46780259D01*
X90607930Y-46567806D01*
X90569234Y-46396037D01*
X90421837Y-46226829D01*
X90229175Y-46055166D01*
X90342462Y-45860557D01*
X90491162Y-45669740D01*
X90728100Y-45440040D01*
X91028141Y-45189804D01*
X91366149Y-44937379D01*
X91716987Y-44701112D01*
X92055521Y-44499350D01*
X92356613Y-44350440D01*
X92472546Y-44305781D01*
X92827216Y-44224976D01*
X93241006Y-44191535D01*
X93661175Y-44205626D01*
X93661175Y-44205626D01*
G37*
X93661175Y-44205626D02*
X94034988Y-44267416D01*
X94145417Y-44300450D01*
X94579927Y-44493792D01*
X94952121Y-44743344D01*
X95230884Y-45028004D01*
X95243545Y-45045167D01*
X95343292Y-45220036D01*
X95464528Y-45489958D01*
X95596805Y-45827069D01*
X95729670Y-46203504D01*
X95852674Y-46591400D01*
X95939344Y-46900379D01*
X96001213Y-47137509D01*
X95737088Y-47208630D01*
X95504873Y-47284390D01*
X95279193Y-47377635D01*
X95250357Y-47391683D01*
X95145370Y-47441070D01*
X95054714Y-47463628D01*
X94948515Y-47455154D01*
X94796900Y-47411445D01*
X94569994Y-47328298D01*
X94435879Y-47277093D01*
X94139247Y-47169237D01*
X93936578Y-47110832D01*
X93806998Y-47097100D01*
X93738025Y-47117423D01*
X93644894Y-47243034D01*
X93585332Y-47462319D01*
X93560669Y-47746109D01*
X93572237Y-48065237D01*
X93621370Y-48390536D01*
X93671132Y-48582046D01*
X93777211Y-48781970D01*
X93945192Y-48958721D01*
X94135690Y-49077630D01*
X94268666Y-49108000D01*
X94415947Y-49137189D01*
X94610073Y-49210809D01*
X94692419Y-49250875D01*
X94811745Y-49307717D01*
X94933724Y-49347225D01*
X95084147Y-49372489D01*
X95288803Y-49386599D01*
X95573481Y-49392643D01*
X95885000Y-49393750D01*
X96307598Y-49389294D01*
X96631924Y-49374232D01*
X96886450Y-49346021D01*
X97099649Y-49302116D01*
X97186750Y-49277461D01*
X97728216Y-49048606D01*
X98241390Y-48707351D01*
X98710743Y-48267656D01*
X99120747Y-47743477D01*
X99377402Y-47308260D01*
X99476474Y-47140668D01*
X99596335Y-47000094D01*
X99765498Y-46859829D01*
X100012475Y-46693162D01*
X100079123Y-46650905D01*
X100492784Y-46412087D01*
X100871884Y-46247482D01*
X101241287Y-46155254D01*
X101625859Y-46133566D01*
X102050465Y-46180580D01*
X102539970Y-46294460D01*
X103002562Y-46434927D01*
X103370061Y-46546450D01*
X103700014Y-46631384D01*
X103962959Y-46682734D01*
X104097937Y-46695000D01*
X104271946Y-46702446D01*
X104378398Y-46721354D01*
X104394000Y-46733736D01*
X104366234Y-46805436D01*
X104293506Y-46955820D01*
X104193502Y-47148645D01*
X104002516Y-47460581D01*
X103756608Y-47795967D01*
X103485174Y-48119433D01*
X103217608Y-48395608D01*
X103014624Y-48567155D01*
X102872606Y-48675621D01*
X102793277Y-48768390D01*
X102757814Y-48887828D01*
X102747396Y-49076301D01*
X102746126Y-49171500D01*
X102696917Y-49695493D01*
X102555211Y-50220151D01*
X102376646Y-50649039D01*
X102200765Y-50974737D01*
X101983461Y-51307223D01*
X101750083Y-51612328D01*
X101525978Y-51855881D01*
X101404076Y-51960054D01*
X101162569Y-52081617D01*
X100852389Y-52137046D01*
X100466340Y-52125506D01*
X99997224Y-52046163D01*
X99437844Y-51898181D01*
X98781004Y-51680727D01*
X98679000Y-51644017D01*
X98277299Y-51499031D01*
X97972502Y-51394696D01*
X97742097Y-51328431D01*
X97563572Y-51297655D01*
X97414413Y-51299787D01*
X97272110Y-51332247D01*
X97114151Y-51392454D01*
X96982601Y-51449555D01*
X96756484Y-51543800D01*
X96580657Y-51593878D01*
X96419629Y-51597216D01*
X96237906Y-51551245D01*
X95999996Y-51453392D01*
X95806109Y-51364332D01*
X95567467Y-51269792D01*
X95383973Y-51229553D01*
X95315595Y-51234584D01*
X95222512Y-51291362D01*
X95059483Y-51417446D01*
X94848709Y-51594747D01*
X94612392Y-51805177D01*
X94589247Y-51826392D01*
X94152853Y-52208341D01*
X93777674Y-52493541D01*
X93452090Y-52689279D01*
X93164478Y-52802845D01*
X92976795Y-52837605D01*
X92785133Y-52841369D01*
X92607128Y-52804865D01*
X92393971Y-52715459D01*
X92277466Y-52656625D01*
X91912999Y-52419571D01*
X91533634Y-52084668D01*
X91445822Y-51994689D01*
X91284029Y-51810485D01*
X91089152Y-51566787D01*
X90872326Y-51279958D01*
X90644688Y-50966360D01*
X90417375Y-50642355D01*
X90201522Y-50324307D01*
X90008267Y-50028577D01*
X89848745Y-49771528D01*
X89734094Y-49569523D01*
X89675448Y-49438923D01*
X89677432Y-49396429D01*
X89760624Y-49388461D01*
X89952722Y-49379396D01*
X90235642Y-49369791D01*
X90591301Y-49360201D01*
X91001614Y-49351184D01*
X91356489Y-49344766D01*
X91862324Y-49335418D01*
X92256804Y-49325185D01*
X92555570Y-49312886D01*
X92774268Y-49297341D01*
X92928541Y-49277370D01*
X93034032Y-49251791D01*
X93106384Y-49219425D01*
X93118614Y-49211799D01*
X93244772Y-49072273D01*
X93279551Y-48905443D01*
X93216400Y-48755421D01*
X93190118Y-48730210D01*
X93094021Y-48696718D01*
X92898965Y-48660978D01*
X92632832Y-48627161D01*
X92323501Y-48599442D01*
X92309753Y-48598457D01*
X91804231Y-48548436D01*
X91395280Y-48472536D01*
X91053657Y-48362190D01*
X90750118Y-48208829D01*
X90567869Y-48088132D01*
X90294821Y-47892043D01*
X90089535Y-48065262D01*
X89919331Y-48186290D01*
X89688670Y-48321331D01*
X89432182Y-48453436D01*
X89184493Y-48565656D01*
X88980230Y-48641041D01*
X88867323Y-48663500D01*
X88763797Y-48636321D01*
X88572420Y-48561870D01*
X88318372Y-48450774D01*
X88026835Y-48313658D01*
X87954799Y-48278411D01*
X87643222Y-48123466D01*
X87429226Y-48011164D01*
X87296003Y-47928971D01*
X87226747Y-47864352D01*
X87204651Y-47804774D01*
X87212907Y-47737702D01*
X87215513Y-47727061D01*
X87299022Y-47511960D01*
X87444569Y-47247008D01*
X87627174Y-46974854D01*
X87741634Y-46828822D01*
X87922189Y-46613394D01*
X88871469Y-46844707D01*
X89214790Y-46925703D01*
X89526453Y-46994317D01*
X89780111Y-47045110D01*
X89949416Y-47072648D01*
X89992387Y-47076010D01*
X90253942Y-47029642D01*
X90456977Y-46903057D01*
X90543997Y-46780259D01*
X90607930Y-46567806D01*
X90569234Y-46396037D01*
X90421837Y-46226829D01*
X90229175Y-46055166D01*
X90342462Y-45860557D01*
X90491162Y-45669740D01*
X90728100Y-45440040D01*
X91028141Y-45189804D01*
X91366149Y-44937379D01*
X91716987Y-44701112D01*
X92055521Y-44499350D01*
X92356613Y-44350440D01*
X92472546Y-44305781D01*
X92827216Y-44224976D01*
X93241006Y-44191535D01*
X93661175Y-44205626D01*
D11*
X125400000Y-61161000D02*
X128100000Y-61161000D01*
X125400000Y-59661000D02*
X128100000Y-59661000D01*
X126900000Y-60561000D02*
X126900000Y-60311000D01*
X126900000Y-60311000D02*
X126750000Y-60461000D01*
X126650000Y-60061000D02*
X126650000Y-60761000D01*
X127000000Y-60411000D02*
X127350000Y-60411000D01*
X126650000Y-60411000D02*
X127000000Y-60061000D01*
X127000000Y-60061000D02*
X127000000Y-60761000D01*
X127000000Y-60761000D02*
X126650000Y-60411000D01*
X62980000Y-46315000D02*
X62980000Y-43565000D01*
X62980000Y-56565000D02*
X62980000Y-53815000D01*
X55980000Y-57065000D02*
X62480000Y-57065000D01*
X55980000Y-43065000D02*
X62480000Y-43065000D01*
X55480000Y-46315000D02*
X55480000Y-43565000D01*
X55480000Y-56565000D02*
X55480000Y-53815000D01*
X55980000Y-43065000D02*
G75*
G03X55480000Y-43565000I0J-500000D01*
G01*
X62980000Y-43565000D02*
G75*
G03X62480000Y-43065000I-500000J0D01*
G01*
X62480000Y-57065000D02*
G75*
G03X62980000Y-56565000I0J500000D01*
G01*
X55480000Y-56565000D02*
G75*
G03X55980000Y-57065000I500000J0D01*
G01*
X60500000Y-57115000D02*
X57960000Y-57115000D01*
X62980000Y-53875000D02*
X62980000Y-46255000D01*
X57960000Y-43015000D02*
X60500000Y-43015000D01*
X55480000Y-46255000D02*
X55480000Y-53875000D01*
X105000000Y-141925000D02*
X105000000Y-141325000D01*
X95000000Y-141925000D02*
X95000000Y-141325000D01*
X105000000Y-131925000D02*
X105000000Y-132525000D01*
X95000000Y-131925000D02*
X95000000Y-132525000D01*
X102875000Y-136925000D02*
G75*
G03X102875000Y-136925000I-2875000J0D01*
G01*
X98400000Y-135325000D02*
X98400000Y-138525000D01*
X98400000Y-138525000D02*
X101600000Y-138525000D01*
X101600000Y-138525000D02*
X101600000Y-135325000D01*
X101600000Y-135325000D02*
X98400000Y-135325000D01*
X105000000Y-134925000D02*
X105000000Y-136125000D01*
X95000000Y-134925000D02*
X95000000Y-136125000D01*
X95000000Y-141925000D02*
X105000000Y-141925000D01*
X95000000Y-131925000D02*
X105000000Y-131925000D01*
D16*
X78603553Y-133750000D02*
G75*
G03X78603553Y-133750000I-353553J0D01*
G01*
X74103553Y-133750000D02*
G75*
G03X74103553Y-133750000I-353553J0D01*
G01*
X74103553Y-138250000D02*
G75*
G03X74103553Y-138250000I-353553J0D01*
G01*
X78603553Y-138250000D02*
G75*
G03X78603553Y-138250000I-353553J0D01*
G01*
X73000000Y-133500000D02*
X72000000Y-133500000D01*
X72000000Y-133500000D02*
X72000000Y-134000000D01*
X72000000Y-134000000D02*
X73000000Y-134000000D01*
X79000000Y-134000000D02*
X80000000Y-134000000D01*
X80000000Y-134000000D02*
X80000000Y-133500000D01*
X80000000Y-133500000D02*
X79000000Y-133500000D01*
X79000000Y-138500000D02*
X80000000Y-138500000D01*
X80000000Y-138500000D02*
X80000000Y-138000000D01*
X80000000Y-138000000D02*
X79000000Y-138000000D01*
X73000000Y-138500000D02*
X72000000Y-138500000D01*
X72000000Y-138500000D02*
X72000000Y-138000000D01*
X73000000Y-138000000D02*
X72000000Y-138000000D01*
X73000000Y-139000000D02*
X73000000Y-133000000D01*
X73000000Y-133000000D02*
X79000000Y-133000000D01*
X79000000Y-133000000D02*
X79000000Y-139000000D01*
X77749200Y-136000000D02*
G75*
G03X77749200Y-136000000I-1749200J0D01*
G01*
X79000000Y-139000000D02*
X73000000Y-139000000D01*
X126603553Y-133750000D02*
G75*
G03X126603553Y-133750000I-353553J0D01*
G01*
X122103553Y-133750000D02*
G75*
G03X122103553Y-133750000I-353553J0D01*
G01*
X122103553Y-138250000D02*
G75*
G03X122103553Y-138250000I-353553J0D01*
G01*
X126603553Y-138250000D02*
G75*
G03X126603553Y-138250000I-353553J0D01*
G01*
X121000000Y-133500000D02*
X120000000Y-133500000D01*
X120000000Y-133500000D02*
X120000000Y-134000000D01*
X120000000Y-134000000D02*
X121000000Y-134000000D01*
X127000000Y-134000000D02*
X128000000Y-134000000D01*
X128000000Y-134000000D02*
X128000000Y-133500000D01*
X128000000Y-133500000D02*
X127000000Y-133500000D01*
X127000000Y-138500000D02*
X128000000Y-138500000D01*
X128000000Y-138500000D02*
X128000000Y-138000000D01*
X128000000Y-138000000D02*
X127000000Y-138000000D01*
X121000000Y-138500000D02*
X120000000Y-138500000D01*
X120000000Y-138500000D02*
X120000000Y-138000000D01*
X121000000Y-138000000D02*
X120000000Y-138000000D01*
X121000000Y-139000000D02*
X121000000Y-133000000D01*
X121000000Y-133000000D02*
X127000000Y-133000000D01*
X127000000Y-133000000D02*
X127000000Y-139000000D01*
X125749200Y-136000000D02*
G75*
G03X125749200Y-136000000I-1749200J0D01*
G01*
X127000000Y-139000000D02*
X121000000Y-139000000D01*
D11*
X130400000Y-61161000D02*
X133100000Y-61161000D01*
X130400000Y-59661000D02*
X133100000Y-59661000D01*
X131900000Y-60561000D02*
X131900000Y-60311000D01*
X131900000Y-60311000D02*
X131750000Y-60461000D01*
X131650000Y-60061000D02*
X131650000Y-60761000D01*
X132000000Y-60411000D02*
X132350000Y-60411000D01*
X131650000Y-60411000D02*
X132000000Y-60061000D01*
X132000000Y-60061000D02*
X132000000Y-60761000D01*
X132000000Y-60761000D02*
X131650000Y-60411000D01*
X135400000Y-61161000D02*
X138100000Y-61161000D01*
X135400000Y-59661000D02*
X138100000Y-59661000D01*
X136900000Y-60561000D02*
X136900000Y-60311000D01*
X136900000Y-60311000D02*
X136750000Y-60461000D01*
X136650000Y-60061000D02*
X136650000Y-60761000D01*
X137000000Y-60411000D02*
X137350000Y-60411000D01*
X136650000Y-60411000D02*
X137000000Y-60061000D01*
X137000000Y-60061000D02*
X137000000Y-60761000D01*
X137000000Y-60761000D02*
X136650000Y-60411000D01*
X145400000Y-36825000D02*
X143400000Y-36825000D01*
X145400000Y-36825000D02*
X145400000Y-38825000D01*
X145400000Y-56025000D02*
X145400000Y-54125000D01*
X145400000Y-56025000D02*
X143400000Y-56025000D01*
X118600000Y-56025000D02*
X120600000Y-56025000D01*
X118600000Y-56025000D02*
X118600000Y-53925000D01*
X118600000Y-36825000D02*
X118600000Y-38825000D01*
X118600000Y-36825000D02*
X120600000Y-36825000D01*
X124837200Y-47985000D02*
X124837200Y-51803000D01*
X122337200Y-50990200D02*
X124242200Y-50990200D01*
X124242200Y-50990200D02*
X124242200Y-51803000D01*
X124242200Y-51803000D02*
X139757800Y-51803000D01*
X139757800Y-51803000D02*
X139757800Y-50990200D01*
X139757800Y-50990200D02*
X141662800Y-50990200D01*
X139162800Y-51803000D02*
X139162800Y-47985000D01*
X141205600Y-50990200D02*
X141205600Y-52361800D01*
X139757800Y-51701400D02*
X140392800Y-51701400D01*
X140392800Y-50990200D02*
X140392800Y-52361800D01*
X124242200Y-51701400D02*
X123607200Y-51701400D01*
X122794400Y-50990200D02*
X122794400Y-52361800D01*
X123607200Y-50990200D02*
X123607200Y-52361800D01*
X121448200Y-53174600D02*
X121448200Y-52361800D01*
X121448200Y-52361800D02*
X124089800Y-52361800D01*
X124089800Y-52361800D02*
X124089800Y-53174600D01*
X121448200Y-53174600D02*
X142551800Y-53174600D01*
X142551800Y-53174600D02*
X142551800Y-52361800D01*
X142551800Y-52361800D02*
X139910200Y-52361800D01*
X139910200Y-52361800D02*
X139910200Y-53174600D01*
X124837200Y-47985000D02*
X139162800Y-47985000D01*
D17*
X105303101Y-136915800D02*
X99999800Y-142219101D01*
X99999800Y-142219101D02*
X94696499Y-136915800D01*
X94696499Y-136915800D02*
X99999800Y-131612499D01*
X99999800Y-131612499D02*
X105303101Y-136915800D01*
D11*
X125880953Y-59339381D02*
X125404762Y-59339381D01*
X125404762Y-58339381D01*
X126214286Y-58815571D02*
X126547620Y-58815571D01*
X126690477Y-59339381D02*
X126214286Y-59339381D01*
X126214286Y-58339381D01*
X126690477Y-58339381D01*
X127119048Y-59339381D02*
X127119048Y-58339381D01*
X127357143Y-58339381D01*
X127500001Y-58387000D01*
X127595239Y-58482238D01*
X127642858Y-58577476D01*
X127690477Y-58767952D01*
X127690477Y-58910810D01*
X127642858Y-59101286D01*
X127595239Y-59196524D01*
X127500001Y-59291762D01*
X127357143Y-59339381D01*
X127119048Y-59339381D01*
X128642858Y-59339381D02*
X128071429Y-59339381D01*
X128357143Y-59339381D02*
X128357143Y-58339381D01*
X128261905Y-58482238D01*
X128166667Y-58577476D01*
X128071429Y-58625095D01*
X54884762Y-51398333D02*
X54932381Y-51255476D01*
X54932381Y-51017380D01*
X54884762Y-50922142D01*
X54837143Y-50874523D01*
X54741905Y-50826904D01*
X54646667Y-50826904D01*
X54551429Y-50874523D01*
X54503810Y-50922142D01*
X54456190Y-51017380D01*
X54408571Y-51207857D01*
X54360952Y-51303095D01*
X54313333Y-51350714D01*
X54218095Y-51398333D01*
X54122857Y-51398333D01*
X54027619Y-51350714D01*
X53980000Y-51303095D01*
X53932381Y-51207857D01*
X53932381Y-50969761D01*
X53980000Y-50826904D01*
X53932381Y-50493571D02*
X54932381Y-50255476D01*
X54218095Y-50064999D01*
X54932381Y-49874523D01*
X53932381Y-49636428D01*
X53932381Y-48779285D02*
X53932381Y-49255476D01*
X54408571Y-49303095D01*
X54360952Y-49255476D01*
X54313333Y-49160238D01*
X54313333Y-48922142D01*
X54360952Y-48826904D01*
X54408571Y-48779285D01*
X54503810Y-48731666D01*
X54741905Y-48731666D01*
X54837143Y-48779285D01*
X54884762Y-48826904D01*
X54932381Y-48922142D01*
X54932381Y-49160238D01*
X54884762Y-49255476D01*
X54837143Y-49303095D01*
X106807477Y-140187381D02*
X106807477Y-140901667D01*
X106759857Y-141044524D01*
X106664619Y-141139762D01*
X106521762Y-141187381D01*
X106426524Y-141187381D01*
X107236048Y-141139762D02*
X107378905Y-141187381D01*
X107617001Y-141187381D01*
X107712239Y-141139762D01*
X107759858Y-141092143D01*
X107807477Y-140996905D01*
X107807477Y-140901667D01*
X107759858Y-140806429D01*
X107712239Y-140758810D01*
X107617001Y-140711190D01*
X107426524Y-140663571D01*
X107331286Y-140615952D01*
X107283667Y-140568333D01*
X107236048Y-140473095D01*
X107236048Y-140377857D01*
X107283667Y-140282619D01*
X107331286Y-140235000D01*
X107426524Y-140187381D01*
X107664620Y-140187381D01*
X107807477Y-140235000D01*
X108759858Y-141187381D02*
X108188429Y-141187381D01*
X108474143Y-141187381D02*
X108474143Y-140187381D01*
X108378905Y-140330238D01*
X108283667Y-140425476D01*
X108188429Y-140473095D01*
X74660667Y-140250762D02*
X74803524Y-140298381D01*
X75041620Y-140298381D01*
X75136858Y-140250762D01*
X75184477Y-140203143D01*
X75232096Y-140107905D01*
X75232096Y-140012667D01*
X75184477Y-139917429D01*
X75136858Y-139869810D01*
X75041620Y-139822190D01*
X74851143Y-139774571D01*
X74755905Y-139726952D01*
X74708286Y-139679333D01*
X74660667Y-139584095D01*
X74660667Y-139488857D01*
X74708286Y-139393619D01*
X74755905Y-139346000D01*
X74851143Y-139298381D01*
X75089239Y-139298381D01*
X75232096Y-139346000D01*
X75565429Y-139298381D02*
X75803524Y-140298381D01*
X75994001Y-139584095D01*
X76184477Y-140298381D01*
X76422572Y-139298381D01*
X77327334Y-140298381D02*
X76755905Y-140298381D01*
X77041619Y-140298381D02*
X77041619Y-139298381D01*
X76946381Y-139441238D01*
X76851143Y-139536476D01*
X76755905Y-139584095D01*
X122539667Y-140250762D02*
X122682524Y-140298381D01*
X122920620Y-140298381D01*
X123015858Y-140250762D01*
X123063477Y-140203143D01*
X123111096Y-140107905D01*
X123111096Y-140012667D01*
X123063477Y-139917429D01*
X123015858Y-139869810D01*
X122920620Y-139822190D01*
X122730143Y-139774571D01*
X122634905Y-139726952D01*
X122587286Y-139679333D01*
X122539667Y-139584095D01*
X122539667Y-139488857D01*
X122587286Y-139393619D01*
X122634905Y-139346000D01*
X122730143Y-139298381D01*
X122968239Y-139298381D01*
X123111096Y-139346000D01*
X123444429Y-139298381D02*
X123682524Y-140298381D01*
X123873001Y-139584095D01*
X124063477Y-140298381D01*
X124301572Y-139298381D01*
X124634905Y-139393619D02*
X124682524Y-139346000D01*
X124777762Y-139298381D01*
X125015858Y-139298381D01*
X125111096Y-139346000D01*
X125158715Y-139393619D01*
X125206334Y-139488857D01*
X125206334Y-139584095D01*
X125158715Y-139726952D01*
X124587286Y-140298381D01*
X125206334Y-140298381D01*
X141374905Y-65816381D02*
X141374905Y-64816381D01*
X141755858Y-64816381D01*
X141851096Y-64864000D01*
X141898715Y-64911619D01*
X141946334Y-65006857D01*
X141946334Y-65149714D01*
X141898715Y-65244952D01*
X141851096Y-65292571D01*
X141755858Y-65340190D01*
X141374905Y-65340190D01*
X142898715Y-65816381D02*
X142327286Y-65816381D01*
X142613000Y-65816381D02*
X142613000Y-64816381D01*
X142517762Y-64959238D01*
X142422524Y-65054476D01*
X142327286Y-65102095D01*
X130833953Y-59339381D02*
X130357762Y-59339381D01*
X130357762Y-58339381D01*
X131167286Y-58815571D02*
X131500620Y-58815571D01*
X131643477Y-59339381D02*
X131167286Y-59339381D01*
X131167286Y-58339381D01*
X131643477Y-58339381D01*
X132072048Y-59339381D02*
X132072048Y-58339381D01*
X132310143Y-58339381D01*
X132453001Y-58387000D01*
X132548239Y-58482238D01*
X132595858Y-58577476D01*
X132643477Y-58767952D01*
X132643477Y-58910810D01*
X132595858Y-59101286D01*
X132548239Y-59196524D01*
X132453001Y-59291762D01*
X132310143Y-59339381D01*
X132072048Y-59339381D01*
X133024429Y-58434619D02*
X133072048Y-58387000D01*
X133167286Y-58339381D01*
X133405382Y-58339381D01*
X133500620Y-58387000D01*
X133548239Y-58434619D01*
X133595858Y-58529857D01*
X133595858Y-58625095D01*
X133548239Y-58767952D01*
X132976810Y-59339381D01*
X133595858Y-59339381D01*
X135913953Y-59339381D02*
X135437762Y-59339381D01*
X135437762Y-58339381D01*
X136247286Y-58815571D02*
X136580620Y-58815571D01*
X136723477Y-59339381D02*
X136247286Y-59339381D01*
X136247286Y-58339381D01*
X136723477Y-58339381D01*
X137152048Y-59339381D02*
X137152048Y-58339381D01*
X137390143Y-58339381D01*
X137533001Y-58387000D01*
X137628239Y-58482238D01*
X137675858Y-58577476D01*
X137723477Y-58767952D01*
X137723477Y-58910810D01*
X137675858Y-59101286D01*
X137628239Y-59196524D01*
X137533001Y-59291762D01*
X137390143Y-59339381D01*
X137152048Y-59339381D01*
X138056810Y-58339381D02*
X138675858Y-58339381D01*
X138342524Y-58720333D01*
X138485382Y-58720333D01*
X138580620Y-58767952D01*
X138628239Y-58815571D01*
X138675858Y-58910810D01*
X138675858Y-59148905D01*
X138628239Y-59244143D01*
X138580620Y-59291762D01*
X138485382Y-59339381D01*
X138199667Y-59339381D01*
X138104429Y-59291762D01*
X138056810Y-59244143D01*
X166136905Y-63077381D02*
X166136905Y-62077381D01*
X166517858Y-62077381D01*
X166613096Y-62125000D01*
X166660715Y-62172619D01*
X166708334Y-62267857D01*
X166708334Y-62410714D01*
X166660715Y-62505952D01*
X166613096Y-62553571D01*
X166517858Y-62601190D01*
X166136905Y-62601190D01*
X167089286Y-62172619D02*
X167136905Y-62125000D01*
X167232143Y-62077381D01*
X167470239Y-62077381D01*
X167565477Y-62125000D01*
X167613096Y-62172619D01*
X167660715Y-62267857D01*
X167660715Y-62363095D01*
X167613096Y-62505952D01*
X167041667Y-63077381D01*
X167660715Y-63077381D01*
X87130095Y-138158762D02*
X87272952Y-138206381D01*
X87511048Y-138206381D01*
X87606286Y-138158762D01*
X87653905Y-138111143D01*
X87701524Y-138015905D01*
X87701524Y-137920667D01*
X87653905Y-137825429D01*
X87606286Y-137777810D01*
X87511048Y-137730190D01*
X87320571Y-137682571D01*
X87225333Y-137634952D01*
X87177714Y-137587333D01*
X87130095Y-137492095D01*
X87130095Y-137396857D01*
X87177714Y-137301619D01*
X87225333Y-137254000D01*
X87320571Y-137206381D01*
X87558667Y-137206381D01*
X87701524Y-137254000D01*
X88130095Y-138206381D02*
X88130095Y-137206381D01*
X88511048Y-137206381D01*
X88606286Y-137254000D01*
X88653905Y-137301619D01*
X88701524Y-137396857D01*
X88701524Y-137539714D01*
X88653905Y-137634952D01*
X88606286Y-137682571D01*
X88511048Y-137730190D01*
X88130095Y-137730190D01*
X89653905Y-138206381D02*
X89082476Y-138206381D01*
X89368190Y-138206381D02*
X89368190Y-137206381D01*
X89272952Y-137349238D01*
X89177714Y-137444476D01*
X89082476Y-137492095D01*
X131238095Y-49413762D02*
X131380952Y-49461381D01*
X131619048Y-49461381D01*
X131714286Y-49413762D01*
X131761905Y-49366143D01*
X131809524Y-49270905D01*
X131809524Y-49175667D01*
X131761905Y-49080429D01*
X131714286Y-49032810D01*
X131619048Y-48985190D01*
X131428571Y-48937571D01*
X131333333Y-48889952D01*
X131285714Y-48842333D01*
X131238095Y-48747095D01*
X131238095Y-48651857D01*
X131285714Y-48556619D01*
X131333333Y-48509000D01*
X131428571Y-48461381D01*
X131666667Y-48461381D01*
X131809524Y-48509000D01*
X132761905Y-49461381D02*
X132190476Y-49461381D01*
X132476190Y-49461381D02*
X132476190Y-48461381D01*
X132380952Y-48604238D01*
X132285714Y-48699476D01*
X132190476Y-48747095D01*
X146541667Y-148077381D02*
X146208333Y-147601190D01*
X145970238Y-148077381D02*
X145970238Y-147077381D01*
X146351191Y-147077381D01*
X146446429Y-147125000D01*
X146494048Y-147172619D01*
X146541667Y-147267857D01*
X146541667Y-147410714D01*
X146494048Y-147505952D01*
X146446429Y-147553571D01*
X146351191Y-147601190D01*
X145970238Y-147601190D01*
X146970238Y-147553571D02*
X147303572Y-147553571D01*
X147446429Y-148077381D02*
X146970238Y-148077381D01*
X146970238Y-147077381D01*
X147446429Y-147077381D01*
X148208334Y-147553571D02*
X147875000Y-147553571D01*
X147875000Y-148077381D02*
X147875000Y-147077381D01*
X148351191Y-147077381D01*
X148875000Y-147077381D02*
X148875000Y-147315476D01*
X148636905Y-147220238D02*
X148875000Y-147315476D01*
X149113096Y-147220238D01*
X148732143Y-147505952D02*
X148875000Y-147315476D01*
X149017858Y-147505952D01*
X149636905Y-147077381D02*
X149636905Y-147315476D01*
X149398810Y-147220238D02*
X149636905Y-147315476D01*
X149875001Y-147220238D01*
X149494048Y-147505952D02*
X149636905Y-147315476D01*
X149779763Y-147505952D01*
X137041667Y-148077381D02*
X136708333Y-147601190D01*
X136470238Y-148077381D02*
X136470238Y-147077381D01*
X136851191Y-147077381D01*
X136946429Y-147125000D01*
X136994048Y-147172619D01*
X137041667Y-147267857D01*
X137041667Y-147410714D01*
X136994048Y-147505952D01*
X136946429Y-147553571D01*
X136851191Y-147601190D01*
X136470238Y-147601190D01*
X137470238Y-147553571D02*
X137803572Y-147553571D01*
X137946429Y-148077381D02*
X137470238Y-148077381D01*
X137470238Y-147077381D01*
X137946429Y-147077381D01*
X138708334Y-147553571D02*
X138375000Y-147553571D01*
X138375000Y-148077381D02*
X138375000Y-147077381D01*
X138851191Y-147077381D01*
X139375000Y-147077381D02*
X139375000Y-147315476D01*
X139136905Y-147220238D02*
X139375000Y-147315476D01*
X139613096Y-147220238D01*
X139232143Y-147505952D02*
X139375000Y-147315476D01*
X139517858Y-147505952D01*
X140136905Y-147077381D02*
X140136905Y-147315476D01*
X139898810Y-147220238D02*
X140136905Y-147315476D01*
X140375001Y-147220238D01*
X139994048Y-147505952D02*
X140136905Y-147315476D01*
X140279763Y-147505952D01*
X132041667Y-148577381D02*
X131708333Y-148101190D01*
X131470238Y-148577381D02*
X131470238Y-147577381D01*
X131851191Y-147577381D01*
X131946429Y-147625000D01*
X131994048Y-147672619D01*
X132041667Y-147767857D01*
X132041667Y-147910714D01*
X131994048Y-148005952D01*
X131946429Y-148053571D01*
X131851191Y-148101190D01*
X131470238Y-148101190D01*
X132470238Y-148053571D02*
X132803572Y-148053571D01*
X132946429Y-148577381D02*
X132470238Y-148577381D01*
X132470238Y-147577381D01*
X132946429Y-147577381D01*
X133708334Y-148053571D02*
X133375000Y-148053571D01*
X133375000Y-148577381D02*
X133375000Y-147577381D01*
X133851191Y-147577381D01*
X134375000Y-147577381D02*
X134375000Y-147815476D01*
X134136905Y-147720238D02*
X134375000Y-147815476D01*
X134613096Y-147720238D01*
X134232143Y-148005952D02*
X134375000Y-147815476D01*
X134517858Y-148005952D01*
X135136905Y-147577381D02*
X135136905Y-147815476D01*
X134898810Y-147720238D02*
X135136905Y-147815476D01*
X135375001Y-147720238D01*
X134994048Y-148005952D02*
X135136905Y-147815476D01*
X135279763Y-148005952D01*
X142041667Y-148077381D02*
X141708333Y-147601190D01*
X141470238Y-148077381D02*
X141470238Y-147077381D01*
X141851191Y-147077381D01*
X141946429Y-147125000D01*
X141994048Y-147172619D01*
X142041667Y-147267857D01*
X142041667Y-147410714D01*
X141994048Y-147505952D01*
X141946429Y-147553571D01*
X141851191Y-147601190D01*
X141470238Y-147601190D01*
X142470238Y-147553571D02*
X142803572Y-147553571D01*
X142946429Y-148077381D02*
X142470238Y-148077381D01*
X142470238Y-147077381D01*
X142946429Y-147077381D01*
X143708334Y-147553571D02*
X143375000Y-147553571D01*
X143375000Y-148077381D02*
X143375000Y-147077381D01*
X143851191Y-147077381D01*
X144375000Y-147077381D02*
X144375000Y-147315476D01*
X144136905Y-147220238D02*
X144375000Y-147315476D01*
X144613096Y-147220238D01*
X144232143Y-147505952D02*
X144375000Y-147315476D01*
X144517858Y-147505952D01*
X145136905Y-147077381D02*
X145136905Y-147315476D01*
X144898810Y-147220238D02*
X145136905Y-147315476D01*
X145375001Y-147220238D01*
X144994048Y-147505952D02*
X145136905Y-147315476D01*
X145279763Y-147505952D01*
X106660156Y-145432194D02*
X107165232Y-145937271D01*
X107232575Y-146071958D01*
X107232575Y-146206645D01*
X107165231Y-146341332D01*
X107097888Y-146408675D01*
X107636636Y-145802584D02*
X107771323Y-145735240D01*
X107939682Y-145566881D01*
X107973354Y-145465866D01*
X107973354Y-145398522D01*
X107939682Y-145297507D01*
X107872339Y-145230164D01*
X107771324Y-145196492D01*
X107703980Y-145196492D01*
X107602964Y-145230163D01*
X107434605Y-145331179D01*
X107333590Y-145364851D01*
X107266247Y-145364851D01*
X107165231Y-145331179D01*
X107097888Y-145263836D01*
X107064216Y-145162820D01*
X107064216Y-145095477D01*
X107097888Y-144994462D01*
X107266247Y-144826102D01*
X107400934Y-144758759D01*
X107703980Y-144523057D02*
X107703980Y-144455714D01*
X107737651Y-144354698D01*
X107906011Y-144186339D01*
X108007026Y-144152667D01*
X108074369Y-144152667D01*
X108175384Y-144186339D01*
X108242728Y-144253683D01*
X108310071Y-144388369D01*
X108310071Y-145196492D01*
X108747804Y-144758759D01*
X99831441Y-141629846D02*
X100538548Y-140922739D01*
X99865113Y-141596174D02*
X99764098Y-141562502D01*
X99629410Y-141427815D01*
X99595739Y-141326800D01*
X99595739Y-141259456D01*
X99629410Y-141158441D01*
X99831441Y-140956410D01*
X99932457Y-140922738D01*
X99999800Y-140922738D01*
X100100815Y-140956410D01*
X100235503Y-141091098D01*
X100269174Y-141192113D01*
X95639308Y-137370369D02*
X95538293Y-137336698D01*
X95403606Y-137202010D01*
X95369934Y-137100995D01*
X95369934Y-137033651D01*
X95403606Y-136932636D01*
X95605637Y-136730605D01*
X95706652Y-136696933D01*
X95773995Y-136696933D01*
X95875010Y-136730605D01*
X96009698Y-136865293D01*
X96043370Y-136966308D01*
X103771036Y-137084159D02*
X104478143Y-136377052D01*
X104208769Y-136646426D02*
X104309784Y-136680097D01*
X104444472Y-136814785D01*
X104478144Y-136915800D01*
X104478144Y-136983143D01*
X104444472Y-137084159D01*
X104242441Y-137286190D01*
X104141426Y-137319861D01*
X104074082Y-137319861D01*
X103973067Y-137286190D01*
X103838380Y-137151502D01*
X103804708Y-137050487D01*
X99831441Y-133144564D02*
X100201831Y-132774174D01*
X100235503Y-132673159D01*
X100201831Y-132572144D01*
X100067143Y-132437456D01*
X99966128Y-132403785D01*
X99865113Y-133110892D02*
X99764098Y-133077220D01*
X99595739Y-132908861D01*
X99562067Y-132807846D01*
X99595739Y-132706831D01*
X99663082Y-132639487D01*
X99764097Y-132605816D01*
X99865112Y-132639487D01*
X100033472Y-132807847D01*
X100134487Y-132841518D01*
M02*
