G04 #@! TF.FileFunction,Soldermask,Bot*
%FSLAX46Y46*%
G04 Gerber Fmt 4.6, Leading zero omitted, Abs format (unit mm)*
G04 Created by KiCad (PCBNEW 4.0.7-e2-6376~58~ubuntu16.04.1) date Mon Aug 20 17:04:09 2018*
%MOMM*%
%LPD*%
G01*
G04 APERTURE LIST*
%ADD10C,0.100000*%
%ADD11C,2.250000*%
%ADD12C,0.150000*%
%ADD13C,1.000000*%
%ADD14C,2.540000*%
%ADD15R,1.000000X1.250000*%
%ADD16R,1.800000X1.000000*%
%ADD17R,1.250000X1.000000*%
%ADD18R,1.700000X1.600000*%
%ADD19R,4.000500X2.400300*%
%ADD20R,1.300000X0.700000*%
%ADD21R,0.610000X1.520000*%
%ADD22R,0.700000X1.300000*%
%ADD23R,0.800000X1.300000*%
%ADD24R,2.780000X1.550000*%
%ADD25R,6.730000X6.740000*%
%ADD26R,1.397000X1.397000*%
%ADD27C,1.397000*%
%ADD28R,0.660400X2.032000*%
%ADD29R,1.000000X3.200000*%
%ADD30R,2.500000X1.000000*%
%ADD31R,2.500000X2.300000*%
%ADD32R,1.501140X1.501140*%
%ADD33R,1.600200X3.599180*%
%ADD34R,3.500000X10.200000*%
%ADD35R,3.000000X2.000000*%
%ADD36R,1.060000X0.650000*%
%ADD37R,0.600000X0.450000*%
%ADD38C,0.604800*%
%ADD39R,1.300000X0.250000*%
%ADD40R,0.250000X1.300000*%
%ADD41R,2.032000X3.657600*%
%ADD42R,2.032000X1.016000*%
%ADD43R,1.000000X0.900000*%
%ADD44O,0.800000X1.400000*%
%ADD45R,0.300000X0.700000*%
%ADD46O,0.950000X0.650000*%
%ADD47C,0.650000*%
%ADD48R,1.600000X1.000000*%
%ADD49C,3.200000*%
%ADD50R,3.000000X3.200000*%
%ADD51R,0.500000X1.480000*%
%ADD52R,1.480000X0.500000*%
%ADD53C,0.600000*%
%ADD54R,4.500000X2.200000*%
%ADD55R,0.300000X1.250000*%
%ADD56R,2.500000X2.500000*%
%ADD57R,1.500000X1.500000*%
%ADD58R,3.200000X2.700000*%
%ADD59R,0.740000X2.400000*%
%ADD60C,0.750000*%
%ADD61C,1.050000*%
%ADD62C,0.500000*%
G04 APERTURE END LIST*
D10*
D11*
X146982767Y-74000000D02*
G75*
G03X146982767Y-74000000I-2982767J0D01*
G01*
D12*
X139500000Y-71402000D02*
X139500000Y-76598000D01*
X148500000Y-71402000D02*
X148500000Y-76598000D01*
X144000000Y-68804000D02*
X148500000Y-71402000D01*
X139500000Y-71402000D02*
X144000000Y-68804000D01*
X144000000Y-79196000D02*
X139500000Y-76598000D01*
X148500000Y-76598000D02*
X144000000Y-79196000D01*
D13*
X140000000Y-71700000D02*
X144000000Y-69400000D01*
X140000000Y-76300000D02*
X140000000Y-71700000D01*
X144000000Y-78600000D02*
X140000000Y-76300000D01*
X148000000Y-76300000D02*
X144000000Y-78600000D01*
X148000000Y-71700000D02*
X148000000Y-76300000D01*
X144000000Y-69400000D02*
X148000000Y-71700000D01*
D11*
X146982767Y-125000000D02*
G75*
G03X146982767Y-125000000I-2982767J0D01*
G01*
D12*
X139500000Y-122402000D02*
X139500000Y-127598000D01*
X148500000Y-122402000D02*
X148500000Y-127598000D01*
X144000000Y-119804000D02*
X148500000Y-122402000D01*
X139500000Y-122402000D02*
X144000000Y-119804000D01*
X144000000Y-130196000D02*
X139500000Y-127598000D01*
X148500000Y-127598000D02*
X144000000Y-130196000D01*
D13*
X140000000Y-122700000D02*
X144000000Y-120400000D01*
X140000000Y-127300000D02*
X140000000Y-122700000D01*
X144000000Y-129600000D02*
X140000000Y-127300000D01*
X148000000Y-127300000D02*
X144000000Y-129600000D01*
X148000000Y-122700000D02*
X148000000Y-127300000D01*
X144000000Y-120400000D02*
X148000000Y-122700000D01*
D11*
X58982767Y-125000000D02*
G75*
G03X58982767Y-125000000I-2982767J0D01*
G01*
D12*
X51500000Y-122402000D02*
X51500000Y-127598000D01*
X60500000Y-122402000D02*
X60500000Y-127598000D01*
X56000000Y-119804000D02*
X60500000Y-122402000D01*
X51500000Y-122402000D02*
X56000000Y-119804000D01*
X56000000Y-130196000D02*
X51500000Y-127598000D01*
X60500000Y-127598000D02*
X56000000Y-130196000D01*
D13*
X52000000Y-122700000D02*
X56000000Y-120400000D01*
X52000000Y-127300000D02*
X52000000Y-122700000D01*
X56000000Y-129600000D02*
X52000000Y-127300000D01*
X60000000Y-127300000D02*
X56000000Y-129600000D01*
X60000000Y-122700000D02*
X60000000Y-127300000D01*
X56000000Y-120400000D02*
X60000000Y-122700000D01*
D11*
X58982767Y-74000000D02*
G75*
G03X58982767Y-74000000I-2982767J0D01*
G01*
D12*
X51500000Y-71402000D02*
X51500000Y-76598000D01*
X60500000Y-71402000D02*
X60500000Y-76598000D01*
X56000000Y-68804000D02*
X60500000Y-71402000D01*
X51500000Y-71402000D02*
X56000000Y-68804000D01*
X56000000Y-79196000D02*
X51500000Y-76598000D01*
X60500000Y-76598000D02*
X56000000Y-79196000D01*
D13*
X52000000Y-71700000D02*
X56000000Y-69400000D01*
X52000000Y-76300000D02*
X52000000Y-71700000D01*
X56000000Y-78600000D02*
X52000000Y-76300000D01*
X60000000Y-76300000D02*
X56000000Y-78600000D01*
X60000000Y-71700000D02*
X60000000Y-76300000D01*
X56000000Y-69400000D02*
X60000000Y-71700000D01*
D14*
X157000000Y-36000000D03*
X157000000Y-138000000D03*
X43000000Y-137000000D03*
X43000000Y-36000000D03*
D15*
X108950000Y-34757000D03*
X106950000Y-34757000D03*
D16*
X111252000Y-34523000D03*
X111252000Y-37023000D03*
D17*
X101219000Y-45949000D03*
X101219000Y-47949000D03*
D18*
X85011000Y-70817000D03*
X87551000Y-70817000D03*
X87551000Y-61317000D03*
X85011000Y-61317000D03*
D19*
X54419500Y-60960000D03*
X62420500Y-60960000D03*
D20*
X102156000Y-61619500D03*
X102156000Y-59719500D03*
D21*
X118285000Y-69244000D03*
X117015000Y-69244000D03*
X115745000Y-69244000D03*
X114475000Y-69244000D03*
X114475000Y-63779000D03*
X115745000Y-63779000D03*
X117015000Y-63779000D03*
X118285000Y-63779000D03*
X111935000Y-63779000D03*
X110665000Y-63779000D03*
X109395000Y-63779000D03*
X108125000Y-63779000D03*
X108125000Y-69244000D03*
X109395000Y-69244000D03*
X110665000Y-69244000D03*
X111935000Y-69244000D03*
D22*
X102852000Y-71591500D03*
X100952000Y-71591500D03*
D20*
X64262000Y-53528000D03*
X64262000Y-51628000D03*
X101219000Y-42443000D03*
X101219000Y-44343000D03*
D22*
X107177800Y-133766200D03*
X109077800Y-133766200D03*
X101183400Y-133766200D03*
X103083400Y-133766200D03*
D20*
X100812600Y-137083400D03*
X100812600Y-138983400D03*
X98882200Y-133425800D03*
X98882200Y-135325800D03*
D22*
X133126000Y-72363040D03*
X131226000Y-72363040D03*
D20*
X131668000Y-70265040D03*
X131668000Y-68365040D03*
X123794000Y-69757040D03*
X123794000Y-67857040D03*
D22*
X116139000Y-71587000D03*
X114239000Y-71587000D03*
X109456000Y-71591500D03*
X107556000Y-71591500D03*
X104206000Y-71587000D03*
X106106000Y-71587000D03*
X110858000Y-71591500D03*
X112758000Y-71591500D03*
X95189000Y-74889000D03*
X97089000Y-74889000D03*
X71567000Y-73365000D03*
X73467000Y-73365000D03*
X76901000Y-73365000D03*
X78801000Y-73365000D03*
X87437000Y-73365000D03*
X85537000Y-73365000D03*
X81473000Y-73365000D03*
X83373000Y-73365000D03*
D20*
X117650000Y-61619500D03*
X117650000Y-59719500D03*
D22*
X117462000Y-71591500D03*
X119362000Y-71591500D03*
D20*
X140208000Y-41295000D03*
X140208000Y-39395000D03*
X144145000Y-56159000D03*
X144145000Y-58059000D03*
D22*
X121605000Y-59903000D03*
X123505000Y-59903000D03*
D20*
X142113000Y-56159000D03*
X142113000Y-58059000D03*
X115175000Y-61625000D03*
X115175000Y-59725000D03*
X108760000Y-61619500D03*
X108760000Y-59719500D03*
X104975000Y-61625000D03*
X104975000Y-59725000D03*
X111300000Y-61619500D03*
X111300000Y-59719500D03*
X99949000Y-51963000D03*
X99949000Y-50063000D03*
D22*
X93533000Y-74889000D03*
X91633000Y-74889000D03*
X95951000Y-58887000D03*
X97851000Y-58887000D03*
D23*
X98625000Y-89875000D03*
D22*
X97675000Y-89875000D03*
X99575000Y-89875000D03*
D24*
X73932000Y-48620000D03*
D25*
X80567000Y-50800000D03*
D24*
X73932000Y-52980000D03*
D18*
X74343000Y-70817000D03*
X76883000Y-70817000D03*
X76883000Y-61317000D03*
X74343000Y-61317000D03*
X69009000Y-70817000D03*
X71549000Y-70817000D03*
X71549000Y-61317000D03*
X69009000Y-61317000D03*
X79677000Y-70817000D03*
X82217000Y-70817000D03*
X82217000Y-61317000D03*
X79677000Y-61317000D03*
D21*
X105585000Y-69244000D03*
X104315000Y-69244000D03*
X103045000Y-69244000D03*
X101775000Y-69244000D03*
X101775000Y-63779000D03*
X103045000Y-63779000D03*
X104315000Y-63779000D03*
X105585000Y-63779000D03*
D17*
X123794000Y-65997040D03*
X123794000Y-63997040D03*
D26*
X59230000Y-52605000D03*
D27*
X59230000Y-50065000D03*
X59230000Y-47525000D03*
D28*
X129763000Y-72134440D03*
X128493000Y-72134440D03*
X127223000Y-72134440D03*
X125953000Y-72134440D03*
X125953000Y-65987640D03*
X127223000Y-65987640D03*
X128493000Y-65987640D03*
X129763000Y-65987640D03*
D29*
X72465000Y-57363000D03*
X78665000Y-57363000D03*
D30*
X72565000Y-44895000D03*
X72565000Y-39995000D03*
D17*
X61976000Y-49768000D03*
X61976000Y-47768000D03*
X64262000Y-47768000D03*
X64262000Y-49768000D03*
X127432000Y-98246000D03*
X127432000Y-100246000D03*
X72060000Y-101008000D03*
X72060000Y-99008000D03*
D31*
X67875000Y-36095000D03*
X72175000Y-36095000D03*
D14*
X147000000Y-34000000D03*
X147000000Y-134000000D03*
X53000000Y-134000000D03*
D17*
X131668000Y-65013040D03*
X131668000Y-67013040D03*
D15*
X126127000Y-63459000D03*
X128127000Y-63459000D03*
D23*
X101375000Y-109125000D03*
D22*
X100425000Y-109125000D03*
X102325000Y-109125000D03*
D23*
X101375000Y-89875000D03*
D22*
X100425000Y-89875000D03*
X102325000Y-89875000D03*
D23*
X98625000Y-109125000D03*
D22*
X99575000Y-109125000D03*
X97675000Y-109125000D03*
D19*
X62420500Y-39116000D03*
X54419500Y-39116000D03*
D15*
X106791000Y-38821000D03*
X104791000Y-38821000D03*
D17*
X140716000Y-62681000D03*
X140716000Y-60681000D03*
D15*
X108950000Y-36789000D03*
X106950000Y-36789000D03*
D17*
X116967000Y-45917000D03*
X116967000Y-43917000D03*
D32*
X65913000Y-103591000D03*
X65913000Y-108671000D03*
X65913000Y-95971000D03*
X65913000Y-93431000D03*
X65913000Y-106131000D03*
X65913000Y-98511000D03*
X65913000Y-101051000D03*
D33*
X89000000Y-51374180D03*
X89000000Y-56875820D03*
D34*
X83945000Y-40599000D03*
X77345000Y-40599000D03*
D15*
X125206000Y-43393000D03*
X123206000Y-43393000D03*
X137938000Y-43393000D03*
X139938000Y-43393000D03*
X127016000Y-43393000D03*
X129016000Y-43393000D03*
X136128000Y-43393000D03*
X134128000Y-43393000D03*
X117840000Y-53045000D03*
X115840000Y-53045000D03*
D35*
X68120000Y-40145000D03*
X68120000Y-44745000D03*
D17*
X120523000Y-63951000D03*
X120523000Y-61951000D03*
D28*
X66675000Y-47726600D03*
X67945000Y-47726600D03*
X69215000Y-47726600D03*
X70485000Y-47726600D03*
X70485000Y-53873400D03*
X69215000Y-53873400D03*
X67945000Y-53873400D03*
X66675000Y-53873400D03*
X93980000Y-47685600D03*
X95250000Y-47685600D03*
X96520000Y-47685600D03*
X97790000Y-47685600D03*
X97790000Y-53832400D03*
X96520000Y-53832400D03*
X95250000Y-53832400D03*
X93980000Y-53832400D03*
D36*
X115867000Y-56789000D03*
X115867000Y-55839000D03*
X115867000Y-54889000D03*
X118067000Y-54889000D03*
X118067000Y-56789000D03*
X118067000Y-55839000D03*
D17*
X89789000Y-73127000D03*
X89789000Y-75127000D03*
X98933000Y-75127000D03*
X98933000Y-73127000D03*
D15*
X96155000Y-56855000D03*
X98155000Y-56855000D03*
D37*
X91533000Y-72603000D03*
X93633000Y-72603000D03*
X97189000Y-72603000D03*
X95089000Y-72603000D03*
D28*
X90690000Y-63426600D03*
X91960000Y-63426600D03*
X93230000Y-63426600D03*
X94500000Y-63426600D03*
X95770000Y-63426600D03*
X97040000Y-63426600D03*
X98310000Y-63426600D03*
X98310000Y-69573400D03*
X97040000Y-69573400D03*
X94500000Y-69573400D03*
X93230000Y-69573400D03*
X91960000Y-69573400D03*
X90690000Y-69573400D03*
X95770000Y-69573400D03*
D15*
X108474000Y-38821000D03*
X110474000Y-38821000D03*
D38*
X82125000Y-92625000D03*
X82125000Y-106375000D03*
X84875000Y-92625000D03*
X84875000Y-95375000D03*
X84875000Y-98125000D03*
X84875000Y-100875000D03*
X84875000Y-103625000D03*
X84875000Y-106375000D03*
X87625000Y-92625000D03*
X87625000Y-95375000D03*
X87625000Y-98125000D03*
X87625000Y-100875000D03*
X87625000Y-103625000D03*
X87625000Y-106375000D03*
X90375000Y-92625000D03*
X90375000Y-95375000D03*
X90375000Y-98125000D03*
X90375000Y-100875000D03*
X90375000Y-103625000D03*
X90375000Y-106375000D03*
X93125000Y-92625000D03*
X93125000Y-95375000D03*
X93125000Y-98125000D03*
X93125000Y-100875000D03*
X93125000Y-103625000D03*
X93125000Y-106375000D03*
X95875000Y-92625000D03*
X95875000Y-95375000D03*
X95875000Y-98125000D03*
X95875000Y-100875000D03*
X95875000Y-103625000D03*
X95875000Y-106375000D03*
X98625000Y-92625000D03*
X98625000Y-95375000D03*
X98625000Y-98125000D03*
X98625000Y-100875000D03*
X98625000Y-103625000D03*
X98625000Y-106375000D03*
X101375000Y-92625000D03*
X101375000Y-95375000D03*
X101375000Y-98125000D03*
X101375000Y-100875000D03*
X101375000Y-103625000D03*
X101375000Y-106375000D03*
X104125000Y-92625000D03*
X104125000Y-95375000D03*
X104125000Y-98125000D03*
X104125000Y-100875000D03*
X104125000Y-103625000D03*
X104125000Y-106375000D03*
X106875000Y-92625000D03*
X106875000Y-95375000D03*
X106875000Y-98125000D03*
X106875000Y-100875000D03*
X106875000Y-103625000D03*
X106875000Y-106375000D03*
X109625000Y-92625000D03*
X109625000Y-95375000D03*
X109625000Y-98125000D03*
X109625000Y-100875000D03*
X109625000Y-103625000D03*
X109625000Y-106375000D03*
X112375000Y-92625000D03*
X112375000Y-95375000D03*
X112375000Y-98125000D03*
X112375000Y-100875000D03*
X112375000Y-103625000D03*
X112375000Y-106375000D03*
X115125000Y-92625000D03*
X115125000Y-95375000D03*
X115125000Y-98125000D03*
X115125000Y-100875000D03*
X115125000Y-103625000D03*
X115125000Y-106375000D03*
X117875000Y-92625000D03*
X117875000Y-106375000D03*
X84875000Y-89875000D03*
X84875000Y-109125000D03*
X87625000Y-89875000D03*
X87625000Y-109125000D03*
X90375000Y-89875000D03*
X90375000Y-109125000D03*
X93125000Y-89875000D03*
X93125000Y-109125000D03*
X95875000Y-89875000D03*
X95875000Y-109125000D03*
X98625000Y-89875000D03*
X98625000Y-109125000D03*
X101375000Y-89875000D03*
X101375000Y-109125000D03*
X104125000Y-89875000D03*
X104125000Y-109125000D03*
X106875000Y-89875000D03*
X106875000Y-109125000D03*
X109625000Y-89875000D03*
X109625000Y-109125000D03*
X112375000Y-89875000D03*
X112375000Y-109125000D03*
X115125000Y-89875000D03*
X115125000Y-109125000D03*
X82125000Y-95375000D03*
X82125000Y-98125000D03*
X82125000Y-100875000D03*
X82125000Y-103625000D03*
X117875000Y-95375000D03*
X117875000Y-98125000D03*
X117875000Y-100875000D03*
X117875000Y-103625000D03*
X82125000Y-89875000D03*
X82125000Y-109125000D03*
X117875000Y-89875000D03*
D39*
X112935000Y-44199000D03*
X112935000Y-44699000D03*
X112935000Y-45199000D03*
X112935000Y-45699000D03*
X112935000Y-46199000D03*
X112935000Y-46699000D03*
X112935000Y-47199000D03*
X112935000Y-47699000D03*
X112935000Y-48199000D03*
X112935000Y-48699000D03*
X112935000Y-49199000D03*
X112935000Y-49699000D03*
D40*
X111335000Y-51299000D03*
X110835000Y-51299000D03*
X110335000Y-51299000D03*
X109835000Y-51299000D03*
X109335000Y-51299000D03*
X108835000Y-51299000D03*
X108335000Y-51299000D03*
X107835000Y-51299000D03*
X107335000Y-51299000D03*
X106835000Y-51299000D03*
X106335000Y-51299000D03*
X105835000Y-51299000D03*
D39*
X104235000Y-49699000D03*
X104235000Y-49199000D03*
X104235000Y-48699000D03*
X104235000Y-48199000D03*
X104235000Y-47699000D03*
X104235000Y-47199000D03*
X104235000Y-46699000D03*
X104235000Y-46199000D03*
X104235000Y-45699000D03*
X104235000Y-45199000D03*
X104235000Y-44699000D03*
X104235000Y-44199000D03*
D40*
X105835000Y-42599000D03*
X106335000Y-42599000D03*
X106835000Y-42599000D03*
X107335000Y-42599000D03*
X107835000Y-42599000D03*
X108335000Y-42599000D03*
X108835000Y-42599000D03*
X109335000Y-42599000D03*
X109835000Y-42599000D03*
X110335000Y-42599000D03*
X110835000Y-42599000D03*
X111335000Y-42599000D03*
D15*
X111363000Y-54315000D03*
X109363000Y-54315000D03*
D17*
X116967000Y-47727000D03*
X116967000Y-49727000D03*
D41*
X114898000Y-37297000D03*
D42*
X121502000Y-37297000D03*
X121502000Y-39583000D03*
X121502000Y-35011000D03*
D43*
X147231000Y-51348500D03*
X145631000Y-51348500D03*
X147231000Y-47248500D03*
X145631000Y-47248500D03*
D44*
X127870000Y-39010000D03*
D45*
X129250000Y-40920000D03*
X129750000Y-40920000D03*
X130250000Y-40920000D03*
X130750000Y-40920000D03*
X131250000Y-40920000D03*
X131750000Y-40920000D03*
X132250000Y-40920000D03*
X134750000Y-40920000D03*
X133750000Y-40920000D03*
X133250000Y-40920000D03*
X132750000Y-40920000D03*
X134250000Y-40920000D03*
X134500000Y-39220000D03*
D44*
X136130000Y-39010000D03*
X136490000Y-33060000D03*
X127510000Y-33060000D03*
D46*
X135600000Y-40260000D03*
D47*
X128400000Y-40260000D03*
D45*
X134000000Y-39220000D03*
X133500000Y-39220000D03*
X133000000Y-39220000D03*
X132500000Y-39220000D03*
X132000000Y-39220000D03*
X131500000Y-39220000D03*
X131000000Y-39220000D03*
X130500000Y-39220000D03*
X130000000Y-39220000D03*
X129500000Y-39220000D03*
X129000000Y-39220000D03*
D48*
X139827000Y-34527000D03*
X139827000Y-37527000D03*
X124495000Y-37645000D03*
X124495000Y-34645000D03*
D17*
X124500000Y-41218000D03*
X124500000Y-39218000D03*
D49*
X146963000Y-63000000D03*
D50*
X148463000Y-63000000D03*
D51*
X104800000Y-91260000D03*
X105600000Y-91260000D03*
X106400000Y-91260000D03*
X107200000Y-91260000D03*
X108000000Y-91260000D03*
X108800000Y-91260000D03*
X109600000Y-91260000D03*
X110400000Y-91260000D03*
X111200000Y-91260000D03*
X112000000Y-91260000D03*
X112800000Y-91260000D03*
X113600000Y-91260000D03*
X114400000Y-91260000D03*
X115200000Y-91260000D03*
X116000000Y-91260000D03*
X116800000Y-91260000D03*
X117600000Y-91260000D03*
X118400000Y-91260000D03*
X119200000Y-91260000D03*
X120000000Y-91260000D03*
X120800000Y-91260000D03*
X121600000Y-91260000D03*
X122400000Y-91260000D03*
X123200000Y-91260000D03*
D52*
X125240000Y-93500000D03*
X125240000Y-94300000D03*
X125240000Y-95100000D03*
X125240000Y-95900000D03*
X125240000Y-96700000D03*
X125240000Y-97500000D03*
X125240000Y-98300000D03*
X125240000Y-99100000D03*
X125240000Y-99900000D03*
X125240000Y-100700000D03*
X125240000Y-101500000D03*
X125240000Y-102300000D03*
X125240000Y-103100000D03*
X125240000Y-103900000D03*
X125240000Y-104700000D03*
X125240000Y-105500000D03*
D51*
X123200000Y-107740000D03*
X122400000Y-107740000D03*
X121600000Y-107740000D03*
X120800000Y-107740000D03*
X120000000Y-107740000D03*
X119200000Y-107740000D03*
X118400000Y-107740000D03*
X117600000Y-107740000D03*
X116800000Y-107740000D03*
X116000000Y-107740000D03*
X115200000Y-107740000D03*
X114400000Y-107740000D03*
X113600000Y-107740000D03*
X112800000Y-107740000D03*
X112000000Y-107740000D03*
X111200000Y-107740000D03*
X110400000Y-107740000D03*
X109600000Y-107740000D03*
X108800000Y-107740000D03*
X108000000Y-107740000D03*
X107200000Y-107740000D03*
X106400000Y-107740000D03*
X105600000Y-107740000D03*
X104800000Y-107740000D03*
D52*
X102760000Y-105500000D03*
X102760000Y-104700000D03*
X102760000Y-103900000D03*
X102760000Y-103100000D03*
X102760000Y-102300000D03*
X102760000Y-101500000D03*
X102760000Y-100700000D03*
X102760000Y-99900000D03*
X102760000Y-99100000D03*
X102760000Y-98300000D03*
X102760000Y-97500000D03*
X102760000Y-96700000D03*
X102760000Y-95900000D03*
X102760000Y-95100000D03*
X102760000Y-94300000D03*
X102760000Y-93500000D03*
D51*
X95200000Y-107740000D03*
X94400000Y-107740000D03*
X93600000Y-107740000D03*
X92800000Y-107740000D03*
X92000000Y-107740000D03*
X91200000Y-107740000D03*
X90400000Y-107740000D03*
X89600000Y-107740000D03*
X88800000Y-107740000D03*
X88000000Y-107740000D03*
X87200000Y-107740000D03*
X86400000Y-107740000D03*
X85600000Y-107740000D03*
X84800000Y-107740000D03*
X84000000Y-107740000D03*
X83200000Y-107740000D03*
X82400000Y-107740000D03*
X81600000Y-107740000D03*
X80800000Y-107740000D03*
X80000000Y-107740000D03*
X79200000Y-107740000D03*
X78400000Y-107740000D03*
X77600000Y-107740000D03*
X76800000Y-107740000D03*
D52*
X74760000Y-105500000D03*
X74760000Y-104700000D03*
X74760000Y-103900000D03*
X74760000Y-103100000D03*
X74760000Y-102300000D03*
X74760000Y-101500000D03*
X74760000Y-100700000D03*
X74760000Y-99900000D03*
X74760000Y-99100000D03*
X74760000Y-98300000D03*
X74760000Y-97500000D03*
X74760000Y-96700000D03*
X74760000Y-95900000D03*
X74760000Y-95100000D03*
X74760000Y-94300000D03*
X74760000Y-93500000D03*
D51*
X76800000Y-91260000D03*
X77600000Y-91260000D03*
X78400000Y-91260000D03*
X79200000Y-91260000D03*
X80000000Y-91260000D03*
X80800000Y-91260000D03*
X81600000Y-91260000D03*
X82400000Y-91260000D03*
X83200000Y-91260000D03*
X84000000Y-91260000D03*
X84800000Y-91260000D03*
X85600000Y-91260000D03*
X86400000Y-91260000D03*
X87200000Y-91260000D03*
X88000000Y-91260000D03*
X88800000Y-91260000D03*
X89600000Y-91260000D03*
X90400000Y-91260000D03*
X91200000Y-91260000D03*
X92000000Y-91260000D03*
X92800000Y-91260000D03*
X93600000Y-91260000D03*
X94400000Y-91260000D03*
X95200000Y-91260000D03*
D52*
X97240000Y-93500000D03*
X97240000Y-94300000D03*
X97240000Y-95100000D03*
X97240000Y-95900000D03*
X97240000Y-96700000D03*
X97240000Y-97500000D03*
X97240000Y-98300000D03*
X97240000Y-99100000D03*
X97240000Y-99900000D03*
X97240000Y-100700000D03*
X97240000Y-101500000D03*
X97240000Y-102300000D03*
X97240000Y-103100000D03*
X97240000Y-103900000D03*
X97240000Y-104700000D03*
X97240000Y-105500000D03*
D38*
X76625000Y-92625000D03*
D53*
X90265000Y-135539000D03*
X89265000Y-135539000D03*
X88265000Y-135539000D03*
X87265000Y-135539000D03*
X86265000Y-135539000D03*
X90265000Y-134539000D03*
X89765000Y-135039000D03*
X89265000Y-134539000D03*
X88765000Y-135039000D03*
X88265000Y-134539000D03*
X87765000Y-135039000D03*
X87265000Y-134539000D03*
X86765000Y-135039000D03*
X86265000Y-134539000D03*
X90265000Y-133539000D03*
X89765000Y-134039000D03*
X89265000Y-133539000D03*
X88765000Y-134039000D03*
X88265000Y-133539000D03*
X87765000Y-134039000D03*
X87265000Y-133539000D03*
X86765000Y-134039000D03*
X86265000Y-133539000D03*
D54*
X76265000Y-129539000D03*
X76265000Y-134539000D03*
D55*
X139250000Y-47025000D03*
X137250000Y-47025000D03*
X137750000Y-47025000D03*
X138750000Y-47025000D03*
X138250000Y-47025000D03*
X136250000Y-47025000D03*
X136750000Y-47025000D03*
X135750000Y-47025000D03*
X135250000Y-47025000D03*
X132250000Y-47025000D03*
X132750000Y-47025000D03*
X133750000Y-47025000D03*
X133250000Y-47025000D03*
X134750000Y-47025000D03*
X134250000Y-47025000D03*
X126750000Y-47025000D03*
X127250000Y-47025000D03*
X125750000Y-47025000D03*
X126250000Y-47025000D03*
X125250000Y-47025000D03*
X124750000Y-47025000D03*
X127750000Y-47025000D03*
X128250000Y-47025000D03*
X129250000Y-47025000D03*
X128750000Y-47025000D03*
X130750000Y-47025000D03*
X131250000Y-47025000D03*
X130250000Y-47025000D03*
X129750000Y-47025000D03*
D56*
X122250000Y-48125000D03*
X141750000Y-48125000D03*
D55*
X131750000Y-47025000D03*
D20*
X121158000Y-54757000D03*
X121158000Y-52857000D03*
X121158000Y-56159000D03*
X121158000Y-58059000D03*
D49*
X144000000Y-74000000D03*
X144000000Y-125000000D03*
X56000000Y-125000000D03*
X56000000Y-74000000D03*
D57*
X77875000Y-86375000D03*
D35*
X55225000Y-48825000D03*
X55225000Y-53425000D03*
D17*
X99568000Y-58903000D03*
X99568000Y-60903000D03*
D20*
X109474000Y-79146000D03*
X109474000Y-81046000D03*
X111633000Y-79146000D03*
X111633000Y-81046000D03*
X113792000Y-75653500D03*
X113792000Y-77553500D03*
X111633000Y-75653500D03*
X111633000Y-77553500D03*
X107315000Y-79146000D03*
X107315000Y-81046000D03*
D22*
X63185000Y-75143000D03*
X65085000Y-75143000D03*
X66355000Y-72095000D03*
X64455000Y-72095000D03*
D38*
X117875000Y-109125000D03*
D58*
X143900000Y-35125000D03*
X143900000Y-43025000D03*
X88646000Y-36690000D03*
X88646000Y-44590000D03*
D59*
X100040000Y-39475600D03*
X100040000Y-35575600D03*
X98770000Y-39475600D03*
X98770000Y-35575600D03*
X97500000Y-39475600D03*
X97500000Y-35575600D03*
X96230000Y-39475600D03*
X96230000Y-35575600D03*
X94960000Y-39475600D03*
X94960000Y-35575600D03*
D20*
X94107000Y-56540000D03*
X94107000Y-58440000D03*
D15*
X106156000Y-73492000D03*
X104156000Y-73492000D03*
D20*
X138303000Y-41295000D03*
X138303000Y-39395000D03*
D60*
X101343303Y-135572297D03*
D61*
X98656297Y-138259303D03*
D22*
X130622000Y-43393000D03*
X132522000Y-43393000D03*
D38*
X79375000Y-92625000D03*
X78000000Y-89875000D03*
X78000000Y-95375000D03*
X72500000Y-92625000D03*
X78000000Y-109125000D03*
X122000000Y-103625000D03*
X72500000Y-106375000D03*
X76625000Y-106375000D03*
X78000000Y-103625000D03*
X79375000Y-106375000D03*
X120625000Y-92625000D03*
X122000000Y-89875000D03*
X123375000Y-92625000D03*
X127500000Y-92625000D03*
X127500000Y-106375000D03*
X123375000Y-106375000D03*
X122000000Y-109125000D03*
X120625000Y-106375000D03*
X122000000Y-95375000D03*
D62*
X150300000Y-39000000D03*
X150300000Y-39800000D03*
X49700000Y-39000000D03*
X150300000Y-40600000D03*
X150300000Y-41400000D03*
X150300000Y-42200000D03*
X150300000Y-43000000D03*
X150300000Y-123000000D03*
X150300000Y-123800000D03*
X150300000Y-124600000D03*
X150300000Y-125400000D03*
X150300000Y-126200000D03*
X150300000Y-127000000D03*
X49700000Y-39800000D03*
X49700000Y-40600000D03*
X49700000Y-41400000D03*
X49700000Y-42200000D03*
X49700000Y-43000000D03*
X49700000Y-123000000D03*
X49700000Y-123800000D03*
X49700000Y-124600000D03*
X49700000Y-125400000D03*
X49700000Y-126200000D03*
X49700000Y-127000000D03*
M02*
