G04 #@! TF.GenerationSoftware,KiCad,Pcbnew,5.0.2-bee76a0~70~ubuntu18.04.1*
G04 #@! TF.CreationDate,2020-04-09T14:21:13+02:00*
G04 #@! TF.ProjectId,DIMMCartridge,44494d4d-4361-4727-9472-696467652e6b,rev?*
G04 #@! TF.SameCoordinates,Original*
G04 #@! TF.FileFunction,Soldermask,Bot*
G04 #@! TF.FilePolarity,Negative*
%FSLAX46Y46*%
G04 Gerber Fmt 4.6, Leading zero omitted, Abs format (unit mm)*
G04 Created by KiCad (PCBNEW 5.0.2-bee76a0~70~ubuntu18.04.1) date Do 09 Apr 2020 14:21:13 CEST*
%MOMM*%
%LPD*%
G01*
G04 APERTURE LIST*
%ADD10C,0.100000*%
G04 APERTURE END LIST*
D10*
G36*
X100800000Y-132540000D02*
X62000000Y-132540000D01*
X62000000Y-130740000D01*
X100800000Y-130740000D01*
X100800000Y-132540000D01*
X100800000Y-132540000D01*
G37*
G36*
X138000000Y-132540000D02*
X104000000Y-132540000D01*
X104000000Y-130740000D01*
X138000000Y-130740000D01*
X138000000Y-132540000D01*
X138000000Y-132540000D01*
G37*
G36*
X139262521Y-126174586D02*
X139426309Y-126242429D01*
X139573720Y-126340926D01*
X139699074Y-126466280D01*
X139797571Y-126613691D01*
X139865414Y-126777479D01*
X139900000Y-126951356D01*
X139900000Y-127128644D01*
X139865414Y-127302521D01*
X139797571Y-127466309D01*
X139699074Y-127613720D01*
X139573720Y-127739074D01*
X139426309Y-127837571D01*
X139262521Y-127905414D01*
X139088644Y-127940000D01*
X138911356Y-127940000D01*
X138737479Y-127905414D01*
X138573691Y-127837571D01*
X138426280Y-127739074D01*
X138300926Y-127613720D01*
X138202429Y-127466309D01*
X138134586Y-127302521D01*
X138100000Y-127128644D01*
X138100000Y-126951356D01*
X138134586Y-126777479D01*
X138202429Y-126613691D01*
X138300926Y-126466280D01*
X138426280Y-126340926D01*
X138573691Y-126242429D01*
X138737479Y-126174586D01*
X138911356Y-126140000D01*
X139088644Y-126140000D01*
X139262521Y-126174586D01*
X139262521Y-126174586D01*
G37*
G36*
X61262521Y-126174586D02*
X61426309Y-126242429D01*
X61573720Y-126340926D01*
X61699074Y-126466280D01*
X61797571Y-126613691D01*
X61865414Y-126777479D01*
X61900000Y-126951356D01*
X61900000Y-127128644D01*
X61865414Y-127302521D01*
X61797571Y-127466309D01*
X61699074Y-127613720D01*
X61573720Y-127739074D01*
X61426309Y-127837571D01*
X61262521Y-127905414D01*
X61088644Y-127940000D01*
X60911356Y-127940000D01*
X60737479Y-127905414D01*
X60573691Y-127837571D01*
X60426280Y-127739074D01*
X60300926Y-127613720D01*
X60202429Y-127466309D01*
X60134586Y-127302521D01*
X60100000Y-127128644D01*
X60100000Y-126951356D01*
X60134586Y-126777479D01*
X60202429Y-126613691D01*
X60300926Y-126466280D01*
X60426280Y-126340926D01*
X60573691Y-126242429D01*
X60737479Y-126174586D01*
X60911356Y-126140000D01*
X61088644Y-126140000D01*
X61262521Y-126174586D01*
X61262521Y-126174586D01*
G37*
G36*
X115213207Y-108834221D02*
X115268240Y-108857016D01*
X115317772Y-108890113D01*
X115359887Y-108932228D01*
X115392984Y-108981760D01*
X115415779Y-109036793D01*
X115427400Y-109095216D01*
X115427400Y-109154784D01*
X115415779Y-109213207D01*
X115392984Y-109268240D01*
X115359887Y-109317772D01*
X115317772Y-109359887D01*
X115268240Y-109392984D01*
X115213207Y-109415779D01*
X115154784Y-109427400D01*
X115095216Y-109427400D01*
X115036793Y-109415779D01*
X114981760Y-109392984D01*
X114932228Y-109359887D01*
X114890113Y-109317772D01*
X114857016Y-109268240D01*
X114834221Y-109213207D01*
X114822600Y-109154784D01*
X114822600Y-109095216D01*
X114834221Y-109036793D01*
X114857016Y-108981760D01*
X114890113Y-108932228D01*
X114932228Y-108890113D01*
X114981760Y-108857016D01*
X115036793Y-108834221D01*
X115095216Y-108822600D01*
X115154784Y-108822600D01*
X115213207Y-108834221D01*
X115213207Y-108834221D01*
G37*
G36*
X104213207Y-108834221D02*
X104268240Y-108857016D01*
X104317772Y-108890113D01*
X104359887Y-108932228D01*
X104392984Y-108981760D01*
X104415779Y-109036793D01*
X104427400Y-109095216D01*
X104427400Y-109154784D01*
X104415779Y-109213207D01*
X104392984Y-109268240D01*
X104359887Y-109317772D01*
X104317772Y-109359887D01*
X104268240Y-109392984D01*
X104213207Y-109415779D01*
X104154784Y-109427400D01*
X104095216Y-109427400D01*
X104036793Y-109415779D01*
X103981760Y-109392984D01*
X103932228Y-109359887D01*
X103890113Y-109317772D01*
X103857016Y-109268240D01*
X103834221Y-109213207D01*
X103822600Y-109154784D01*
X103822600Y-109095216D01*
X103834221Y-109036793D01*
X103857016Y-108981760D01*
X103890113Y-108932228D01*
X103932228Y-108890113D01*
X103981760Y-108857016D01*
X104036793Y-108834221D01*
X104095216Y-108822600D01*
X104154784Y-108822600D01*
X104213207Y-108834221D01*
X104213207Y-108834221D01*
G37*
G36*
X106963207Y-108834221D02*
X107018240Y-108857016D01*
X107067772Y-108890113D01*
X107109887Y-108932228D01*
X107142984Y-108981760D01*
X107165779Y-109036793D01*
X107177400Y-109095216D01*
X107177400Y-109154784D01*
X107165779Y-109213207D01*
X107142984Y-109268240D01*
X107109887Y-109317772D01*
X107067772Y-109359887D01*
X107018240Y-109392984D01*
X106963207Y-109415779D01*
X106904784Y-109427400D01*
X106845216Y-109427400D01*
X106786793Y-109415779D01*
X106731760Y-109392984D01*
X106682228Y-109359887D01*
X106640113Y-109317772D01*
X106607016Y-109268240D01*
X106584221Y-109213207D01*
X106572600Y-109154784D01*
X106572600Y-109095216D01*
X106584221Y-109036793D01*
X106607016Y-108981760D01*
X106640113Y-108932228D01*
X106682228Y-108890113D01*
X106731760Y-108857016D01*
X106786793Y-108834221D01*
X106845216Y-108822600D01*
X106904784Y-108822600D01*
X106963207Y-108834221D01*
X106963207Y-108834221D01*
G37*
G36*
X109713207Y-108834221D02*
X109768240Y-108857016D01*
X109817772Y-108890113D01*
X109859887Y-108932228D01*
X109892984Y-108981760D01*
X109915779Y-109036793D01*
X109927400Y-109095216D01*
X109927400Y-109154784D01*
X109915779Y-109213207D01*
X109892984Y-109268240D01*
X109859887Y-109317772D01*
X109817772Y-109359887D01*
X109768240Y-109392984D01*
X109713207Y-109415779D01*
X109654784Y-109427400D01*
X109595216Y-109427400D01*
X109536793Y-109415779D01*
X109481760Y-109392984D01*
X109432228Y-109359887D01*
X109390113Y-109317772D01*
X109357016Y-109268240D01*
X109334221Y-109213207D01*
X109322600Y-109154784D01*
X109322600Y-109095216D01*
X109334221Y-109036793D01*
X109357016Y-108981760D01*
X109390113Y-108932228D01*
X109432228Y-108890113D01*
X109481760Y-108857016D01*
X109536793Y-108834221D01*
X109595216Y-108822600D01*
X109654784Y-108822600D01*
X109713207Y-108834221D01*
X109713207Y-108834221D01*
G37*
G36*
X112463207Y-108834221D02*
X112518240Y-108857016D01*
X112567772Y-108890113D01*
X112609887Y-108932228D01*
X112642984Y-108981760D01*
X112665779Y-109036793D01*
X112677400Y-109095216D01*
X112677400Y-109154784D01*
X112665779Y-109213207D01*
X112642984Y-109268240D01*
X112609887Y-109317772D01*
X112567772Y-109359887D01*
X112518240Y-109392984D01*
X112463207Y-109415779D01*
X112404784Y-109427400D01*
X112345216Y-109427400D01*
X112286793Y-109415779D01*
X112231760Y-109392984D01*
X112182228Y-109359887D01*
X112140113Y-109317772D01*
X112107016Y-109268240D01*
X112084221Y-109213207D01*
X112072600Y-109154784D01*
X112072600Y-109095216D01*
X112084221Y-109036793D01*
X112107016Y-108981760D01*
X112140113Y-108932228D01*
X112182228Y-108890113D01*
X112231760Y-108857016D01*
X112286793Y-108834221D01*
X112345216Y-108822600D01*
X112404784Y-108822600D01*
X112463207Y-108834221D01*
X112463207Y-108834221D01*
G37*
G36*
X117963207Y-108834221D02*
X118018240Y-108857016D01*
X118067772Y-108890113D01*
X118109887Y-108932228D01*
X118142984Y-108981760D01*
X118165779Y-109036793D01*
X118177400Y-109095216D01*
X118177400Y-109154784D01*
X118165779Y-109213207D01*
X118142984Y-109268240D01*
X118109887Y-109317772D01*
X118067772Y-109359887D01*
X118018240Y-109392984D01*
X117963207Y-109415779D01*
X117904784Y-109427400D01*
X117845216Y-109427400D01*
X117786793Y-109415779D01*
X117731760Y-109392984D01*
X117682228Y-109359887D01*
X117640113Y-109317772D01*
X117607016Y-109268240D01*
X117584221Y-109213207D01*
X117572600Y-109154784D01*
X117572600Y-109095216D01*
X117584221Y-109036793D01*
X117607016Y-108981760D01*
X117640113Y-108932228D01*
X117682228Y-108890113D01*
X117731760Y-108857016D01*
X117786793Y-108834221D01*
X117845216Y-108822600D01*
X117904784Y-108822600D01*
X117963207Y-108834221D01*
X117963207Y-108834221D01*
G37*
G36*
X122088207Y-108834221D02*
X122143240Y-108857016D01*
X122192772Y-108890113D01*
X122234887Y-108932228D01*
X122267984Y-108981760D01*
X122290779Y-109036793D01*
X122302400Y-109095216D01*
X122302400Y-109154784D01*
X122290779Y-109213207D01*
X122267984Y-109268240D01*
X122234887Y-109317772D01*
X122192772Y-109359887D01*
X122143240Y-109392984D01*
X122088207Y-109415779D01*
X122029784Y-109427400D01*
X121970216Y-109427400D01*
X121911793Y-109415779D01*
X121856760Y-109392984D01*
X121807228Y-109359887D01*
X121765113Y-109317772D01*
X121732016Y-109268240D01*
X121709221Y-109213207D01*
X121697600Y-109154784D01*
X121697600Y-109095216D01*
X121709221Y-109036793D01*
X121732016Y-108981760D01*
X121765113Y-108932228D01*
X121807228Y-108890113D01*
X121856760Y-108857016D01*
X121911793Y-108834221D01*
X121970216Y-108822600D01*
X122029784Y-108822600D01*
X122088207Y-108834221D01*
X122088207Y-108834221D01*
G37*
G36*
X101463207Y-108834221D02*
X101518240Y-108857016D01*
X101567772Y-108890113D01*
X101609887Y-108932228D01*
X101642984Y-108981760D01*
X101665779Y-109036793D01*
X101677400Y-109095216D01*
X101677400Y-109154784D01*
X101665779Y-109213207D01*
X101642984Y-109268240D01*
X101609887Y-109317772D01*
X101567772Y-109359887D01*
X101518240Y-109392984D01*
X101463207Y-109415779D01*
X101404784Y-109427400D01*
X101345216Y-109427400D01*
X101286793Y-109415779D01*
X101231760Y-109392984D01*
X101182228Y-109359887D01*
X101140113Y-109317772D01*
X101107016Y-109268240D01*
X101084221Y-109213207D01*
X101072600Y-109154784D01*
X101072600Y-109095216D01*
X101084221Y-109036793D01*
X101107016Y-108981760D01*
X101140113Y-108932228D01*
X101182228Y-108890113D01*
X101231760Y-108857016D01*
X101286793Y-108834221D01*
X101345216Y-108822600D01*
X101404784Y-108822600D01*
X101463207Y-108834221D01*
X101463207Y-108834221D01*
G37*
G36*
X93213207Y-108834221D02*
X93268240Y-108857016D01*
X93317772Y-108890113D01*
X93359887Y-108932228D01*
X93392984Y-108981760D01*
X93415779Y-109036793D01*
X93427400Y-109095216D01*
X93427400Y-109154784D01*
X93415779Y-109213207D01*
X93392984Y-109268240D01*
X93359887Y-109317772D01*
X93317772Y-109359887D01*
X93268240Y-109392984D01*
X93213207Y-109415779D01*
X93154784Y-109427400D01*
X93095216Y-109427400D01*
X93036793Y-109415779D01*
X92981760Y-109392984D01*
X92932228Y-109359887D01*
X92890113Y-109317772D01*
X92857016Y-109268240D01*
X92834221Y-109213207D01*
X92822600Y-109154784D01*
X92822600Y-109095216D01*
X92834221Y-109036793D01*
X92857016Y-108981760D01*
X92890113Y-108932228D01*
X92932228Y-108890113D01*
X92981760Y-108857016D01*
X93036793Y-108834221D01*
X93095216Y-108822600D01*
X93154784Y-108822600D01*
X93213207Y-108834221D01*
X93213207Y-108834221D01*
G37*
G36*
X78088207Y-108834221D02*
X78143240Y-108857016D01*
X78192772Y-108890113D01*
X78234887Y-108932228D01*
X78267984Y-108981760D01*
X78290779Y-109036793D01*
X78302400Y-109095216D01*
X78302400Y-109154784D01*
X78290779Y-109213207D01*
X78267984Y-109268240D01*
X78234887Y-109317772D01*
X78192772Y-109359887D01*
X78143240Y-109392984D01*
X78088207Y-109415779D01*
X78029784Y-109427400D01*
X77970216Y-109427400D01*
X77911793Y-109415779D01*
X77856760Y-109392984D01*
X77807228Y-109359887D01*
X77765113Y-109317772D01*
X77732016Y-109268240D01*
X77709221Y-109213207D01*
X77697600Y-109154784D01*
X77697600Y-109095216D01*
X77709221Y-109036793D01*
X77732016Y-108981760D01*
X77765113Y-108932228D01*
X77807228Y-108890113D01*
X77856760Y-108857016D01*
X77911793Y-108834221D01*
X77970216Y-108822600D01*
X78029784Y-108822600D01*
X78088207Y-108834221D01*
X78088207Y-108834221D01*
G37*
G36*
X95963207Y-108834221D02*
X96018240Y-108857016D01*
X96067772Y-108890113D01*
X96109887Y-108932228D01*
X96142984Y-108981760D01*
X96165779Y-109036793D01*
X96177400Y-109095216D01*
X96177400Y-109154784D01*
X96165779Y-109213207D01*
X96142984Y-109268240D01*
X96109887Y-109317772D01*
X96067772Y-109359887D01*
X96018240Y-109392984D01*
X95963207Y-109415779D01*
X95904784Y-109427400D01*
X95845216Y-109427400D01*
X95786793Y-109415779D01*
X95731760Y-109392984D01*
X95682228Y-109359887D01*
X95640113Y-109317772D01*
X95607016Y-109268240D01*
X95584221Y-109213207D01*
X95572600Y-109154784D01*
X95572600Y-109095216D01*
X95584221Y-109036793D01*
X95607016Y-108981760D01*
X95640113Y-108932228D01*
X95682228Y-108890113D01*
X95731760Y-108857016D01*
X95786793Y-108834221D01*
X95845216Y-108822600D01*
X95904784Y-108822600D01*
X95963207Y-108834221D01*
X95963207Y-108834221D01*
G37*
G36*
X98713207Y-108834221D02*
X98768240Y-108857016D01*
X98817772Y-108890113D01*
X98859887Y-108932228D01*
X98892984Y-108981760D01*
X98915779Y-109036793D01*
X98927400Y-109095216D01*
X98927400Y-109154784D01*
X98915779Y-109213207D01*
X98892984Y-109268240D01*
X98859887Y-109317772D01*
X98817772Y-109359887D01*
X98768240Y-109392984D01*
X98713207Y-109415779D01*
X98654784Y-109427400D01*
X98595216Y-109427400D01*
X98536793Y-109415779D01*
X98481760Y-109392984D01*
X98432228Y-109359887D01*
X98390113Y-109317772D01*
X98357016Y-109268240D01*
X98334221Y-109213207D01*
X98322600Y-109154784D01*
X98322600Y-109095216D01*
X98334221Y-109036793D01*
X98357016Y-108981760D01*
X98390113Y-108932228D01*
X98432228Y-108890113D01*
X98481760Y-108857016D01*
X98536793Y-108834221D01*
X98595216Y-108822600D01*
X98654784Y-108822600D01*
X98713207Y-108834221D01*
X98713207Y-108834221D01*
G37*
G36*
X84963207Y-108834221D02*
X85018240Y-108857016D01*
X85067772Y-108890113D01*
X85109887Y-108932228D01*
X85142984Y-108981760D01*
X85165779Y-109036793D01*
X85177400Y-109095216D01*
X85177400Y-109154784D01*
X85165779Y-109213207D01*
X85142984Y-109268240D01*
X85109887Y-109317772D01*
X85067772Y-109359887D01*
X85018240Y-109392984D01*
X84963207Y-109415779D01*
X84904784Y-109427400D01*
X84845216Y-109427400D01*
X84786793Y-109415779D01*
X84731760Y-109392984D01*
X84682228Y-109359887D01*
X84640113Y-109317772D01*
X84607016Y-109268240D01*
X84584221Y-109213207D01*
X84572600Y-109154784D01*
X84572600Y-109095216D01*
X84584221Y-109036793D01*
X84607016Y-108981760D01*
X84640113Y-108932228D01*
X84682228Y-108890113D01*
X84731760Y-108857016D01*
X84786793Y-108834221D01*
X84845216Y-108822600D01*
X84904784Y-108822600D01*
X84963207Y-108834221D01*
X84963207Y-108834221D01*
G37*
G36*
X87713207Y-108834221D02*
X87768240Y-108857016D01*
X87817772Y-108890113D01*
X87859887Y-108932228D01*
X87892984Y-108981760D01*
X87915779Y-109036793D01*
X87927400Y-109095216D01*
X87927400Y-109154784D01*
X87915779Y-109213207D01*
X87892984Y-109268240D01*
X87859887Y-109317772D01*
X87817772Y-109359887D01*
X87768240Y-109392984D01*
X87713207Y-109415779D01*
X87654784Y-109427400D01*
X87595216Y-109427400D01*
X87536793Y-109415779D01*
X87481760Y-109392984D01*
X87432228Y-109359887D01*
X87390113Y-109317772D01*
X87357016Y-109268240D01*
X87334221Y-109213207D01*
X87322600Y-109154784D01*
X87322600Y-109095216D01*
X87334221Y-109036793D01*
X87357016Y-108981760D01*
X87390113Y-108932228D01*
X87432228Y-108890113D01*
X87481760Y-108857016D01*
X87536793Y-108834221D01*
X87595216Y-108822600D01*
X87654784Y-108822600D01*
X87713207Y-108834221D01*
X87713207Y-108834221D01*
G37*
G36*
X90463207Y-108834221D02*
X90518240Y-108857016D01*
X90567772Y-108890113D01*
X90609887Y-108932228D01*
X90642984Y-108981760D01*
X90665779Y-109036793D01*
X90677400Y-109095216D01*
X90677400Y-109154784D01*
X90665779Y-109213207D01*
X90642984Y-109268240D01*
X90609887Y-109317772D01*
X90567772Y-109359887D01*
X90518240Y-109392984D01*
X90463207Y-109415779D01*
X90404784Y-109427400D01*
X90345216Y-109427400D01*
X90286793Y-109415779D01*
X90231760Y-109392984D01*
X90182228Y-109359887D01*
X90140113Y-109317772D01*
X90107016Y-109268240D01*
X90084221Y-109213207D01*
X90072600Y-109154784D01*
X90072600Y-109095216D01*
X90084221Y-109036793D01*
X90107016Y-108981760D01*
X90140113Y-108932228D01*
X90182228Y-108890113D01*
X90231760Y-108857016D01*
X90286793Y-108834221D01*
X90345216Y-108822600D01*
X90404784Y-108822600D01*
X90463207Y-108834221D01*
X90463207Y-108834221D01*
G37*
G36*
X82213207Y-108834221D02*
X82268240Y-108857016D01*
X82317772Y-108890113D01*
X82359887Y-108932228D01*
X82392984Y-108981760D01*
X82415779Y-109036793D01*
X82427400Y-109095216D01*
X82427400Y-109154784D01*
X82415779Y-109213207D01*
X82392984Y-109268240D01*
X82359887Y-109317772D01*
X82317772Y-109359887D01*
X82268240Y-109392984D01*
X82213207Y-109415779D01*
X82154784Y-109427400D01*
X82095216Y-109427400D01*
X82036793Y-109415779D01*
X81981760Y-109392984D01*
X81932228Y-109359887D01*
X81890113Y-109317772D01*
X81857016Y-109268240D01*
X81834221Y-109213207D01*
X81822600Y-109154784D01*
X81822600Y-109095216D01*
X81834221Y-109036793D01*
X81857016Y-108981760D01*
X81890113Y-108932228D01*
X81932228Y-108890113D01*
X81981760Y-108857016D01*
X82036793Y-108834221D01*
X82095216Y-108822600D01*
X82154784Y-108822600D01*
X82213207Y-108834221D01*
X82213207Y-108834221D01*
G37*
G36*
X98713207Y-106084221D02*
X98768240Y-106107016D01*
X98817772Y-106140113D01*
X98859887Y-106182228D01*
X98892984Y-106231760D01*
X98915779Y-106286793D01*
X98927400Y-106345216D01*
X98927400Y-106404784D01*
X98915779Y-106463207D01*
X98892984Y-106518240D01*
X98859887Y-106567772D01*
X98817772Y-106609887D01*
X98768240Y-106642984D01*
X98713207Y-106665779D01*
X98654784Y-106677400D01*
X98595216Y-106677400D01*
X98536793Y-106665779D01*
X98481760Y-106642984D01*
X98432228Y-106609887D01*
X98390113Y-106567772D01*
X98357016Y-106518240D01*
X98334221Y-106463207D01*
X98322600Y-106404784D01*
X98322600Y-106345216D01*
X98334221Y-106286793D01*
X98357016Y-106231760D01*
X98390113Y-106182228D01*
X98432228Y-106140113D01*
X98481760Y-106107016D01*
X98536793Y-106084221D01*
X98595216Y-106072600D01*
X98654784Y-106072600D01*
X98713207Y-106084221D01*
X98713207Y-106084221D01*
G37*
G36*
X106963207Y-106084221D02*
X107018240Y-106107016D01*
X107067772Y-106140113D01*
X107109887Y-106182228D01*
X107142984Y-106231760D01*
X107165779Y-106286793D01*
X107177400Y-106345216D01*
X107177400Y-106404784D01*
X107165779Y-106463207D01*
X107142984Y-106518240D01*
X107109887Y-106567772D01*
X107067772Y-106609887D01*
X107018240Y-106642984D01*
X106963207Y-106665779D01*
X106904784Y-106677400D01*
X106845216Y-106677400D01*
X106786793Y-106665779D01*
X106731760Y-106642984D01*
X106682228Y-106609887D01*
X106640113Y-106567772D01*
X106607016Y-106518240D01*
X106584221Y-106463207D01*
X106572600Y-106404784D01*
X106572600Y-106345216D01*
X106584221Y-106286793D01*
X106607016Y-106231760D01*
X106640113Y-106182228D01*
X106682228Y-106140113D01*
X106731760Y-106107016D01*
X106786793Y-106084221D01*
X106845216Y-106072600D01*
X106904784Y-106072600D01*
X106963207Y-106084221D01*
X106963207Y-106084221D01*
G37*
G36*
X109713207Y-106084221D02*
X109768240Y-106107016D01*
X109817772Y-106140113D01*
X109859887Y-106182228D01*
X109892984Y-106231760D01*
X109915779Y-106286793D01*
X109927400Y-106345216D01*
X109927400Y-106404784D01*
X109915779Y-106463207D01*
X109892984Y-106518240D01*
X109859887Y-106567772D01*
X109817772Y-106609887D01*
X109768240Y-106642984D01*
X109713207Y-106665779D01*
X109654784Y-106677400D01*
X109595216Y-106677400D01*
X109536793Y-106665779D01*
X109481760Y-106642984D01*
X109432228Y-106609887D01*
X109390113Y-106567772D01*
X109357016Y-106518240D01*
X109334221Y-106463207D01*
X109322600Y-106404784D01*
X109322600Y-106345216D01*
X109334221Y-106286793D01*
X109357016Y-106231760D01*
X109390113Y-106182228D01*
X109432228Y-106140113D01*
X109481760Y-106107016D01*
X109536793Y-106084221D01*
X109595216Y-106072600D01*
X109654784Y-106072600D01*
X109713207Y-106084221D01*
X109713207Y-106084221D01*
G37*
G36*
X112463207Y-106084221D02*
X112518240Y-106107016D01*
X112567772Y-106140113D01*
X112609887Y-106182228D01*
X112642984Y-106231760D01*
X112665779Y-106286793D01*
X112677400Y-106345216D01*
X112677400Y-106404784D01*
X112665779Y-106463207D01*
X112642984Y-106518240D01*
X112609887Y-106567772D01*
X112567772Y-106609887D01*
X112518240Y-106642984D01*
X112463207Y-106665779D01*
X112404784Y-106677400D01*
X112345216Y-106677400D01*
X112286793Y-106665779D01*
X112231760Y-106642984D01*
X112182228Y-106609887D01*
X112140113Y-106567772D01*
X112107016Y-106518240D01*
X112084221Y-106463207D01*
X112072600Y-106404784D01*
X112072600Y-106345216D01*
X112084221Y-106286793D01*
X112107016Y-106231760D01*
X112140113Y-106182228D01*
X112182228Y-106140113D01*
X112231760Y-106107016D01*
X112286793Y-106084221D01*
X112345216Y-106072600D01*
X112404784Y-106072600D01*
X112463207Y-106084221D01*
X112463207Y-106084221D01*
G37*
G36*
X127588207Y-106084221D02*
X127643240Y-106107016D01*
X127692772Y-106140113D01*
X127734887Y-106182228D01*
X127767984Y-106231760D01*
X127790779Y-106286793D01*
X127802400Y-106345216D01*
X127802400Y-106404784D01*
X127790779Y-106463207D01*
X127767984Y-106518240D01*
X127734887Y-106567772D01*
X127692772Y-106609887D01*
X127643240Y-106642984D01*
X127588207Y-106665779D01*
X127529784Y-106677400D01*
X127470216Y-106677400D01*
X127411793Y-106665779D01*
X127356760Y-106642984D01*
X127307228Y-106609887D01*
X127265113Y-106567772D01*
X127232016Y-106518240D01*
X127209221Y-106463207D01*
X127197600Y-106404784D01*
X127197600Y-106345216D01*
X127209221Y-106286793D01*
X127232016Y-106231760D01*
X127265113Y-106182228D01*
X127307228Y-106140113D01*
X127356760Y-106107016D01*
X127411793Y-106084221D01*
X127470216Y-106072600D01*
X127529784Y-106072600D01*
X127588207Y-106084221D01*
X127588207Y-106084221D01*
G37*
G36*
X123463207Y-106084221D02*
X123518240Y-106107016D01*
X123567772Y-106140113D01*
X123609887Y-106182228D01*
X123642984Y-106231760D01*
X123665779Y-106286793D01*
X123677400Y-106345216D01*
X123677400Y-106404784D01*
X123665779Y-106463207D01*
X123642984Y-106518240D01*
X123609887Y-106567772D01*
X123567772Y-106609887D01*
X123518240Y-106642984D01*
X123463207Y-106665779D01*
X123404784Y-106677400D01*
X123345216Y-106677400D01*
X123286793Y-106665779D01*
X123231760Y-106642984D01*
X123182228Y-106609887D01*
X123140113Y-106567772D01*
X123107016Y-106518240D01*
X123084221Y-106463207D01*
X123072600Y-106404784D01*
X123072600Y-106345216D01*
X123084221Y-106286793D01*
X123107016Y-106231760D01*
X123140113Y-106182228D01*
X123182228Y-106140113D01*
X123231760Y-106107016D01*
X123286793Y-106084221D01*
X123345216Y-106072600D01*
X123404784Y-106072600D01*
X123463207Y-106084221D01*
X123463207Y-106084221D01*
G37*
G36*
X120713207Y-106084221D02*
X120768240Y-106107016D01*
X120817772Y-106140113D01*
X120859887Y-106182228D01*
X120892984Y-106231760D01*
X120915779Y-106286793D01*
X120927400Y-106345216D01*
X120927400Y-106404784D01*
X120915779Y-106463207D01*
X120892984Y-106518240D01*
X120859887Y-106567772D01*
X120817772Y-106609887D01*
X120768240Y-106642984D01*
X120713207Y-106665779D01*
X120654784Y-106677400D01*
X120595216Y-106677400D01*
X120536793Y-106665779D01*
X120481760Y-106642984D01*
X120432228Y-106609887D01*
X120390113Y-106567772D01*
X120357016Y-106518240D01*
X120334221Y-106463207D01*
X120322600Y-106404784D01*
X120322600Y-106345216D01*
X120334221Y-106286793D01*
X120357016Y-106231760D01*
X120390113Y-106182228D01*
X120432228Y-106140113D01*
X120481760Y-106107016D01*
X120536793Y-106084221D01*
X120595216Y-106072600D01*
X120654784Y-106072600D01*
X120713207Y-106084221D01*
X120713207Y-106084221D01*
G37*
G36*
X115213207Y-106084221D02*
X115268240Y-106107016D01*
X115317772Y-106140113D01*
X115359887Y-106182228D01*
X115392984Y-106231760D01*
X115415779Y-106286793D01*
X115427400Y-106345216D01*
X115427400Y-106404784D01*
X115415779Y-106463207D01*
X115392984Y-106518240D01*
X115359887Y-106567772D01*
X115317772Y-106609887D01*
X115268240Y-106642984D01*
X115213207Y-106665779D01*
X115154784Y-106677400D01*
X115095216Y-106677400D01*
X115036793Y-106665779D01*
X114981760Y-106642984D01*
X114932228Y-106609887D01*
X114890113Y-106567772D01*
X114857016Y-106518240D01*
X114834221Y-106463207D01*
X114822600Y-106404784D01*
X114822600Y-106345216D01*
X114834221Y-106286793D01*
X114857016Y-106231760D01*
X114890113Y-106182228D01*
X114932228Y-106140113D01*
X114981760Y-106107016D01*
X115036793Y-106084221D01*
X115095216Y-106072600D01*
X115154784Y-106072600D01*
X115213207Y-106084221D01*
X115213207Y-106084221D01*
G37*
G36*
X117963207Y-106084221D02*
X118018240Y-106107016D01*
X118067772Y-106140113D01*
X118109887Y-106182228D01*
X118142984Y-106231760D01*
X118165779Y-106286793D01*
X118177400Y-106345216D01*
X118177400Y-106404784D01*
X118165779Y-106463207D01*
X118142984Y-106518240D01*
X118109887Y-106567772D01*
X118067772Y-106609887D01*
X118018240Y-106642984D01*
X117963207Y-106665779D01*
X117904784Y-106677400D01*
X117845216Y-106677400D01*
X117786793Y-106665779D01*
X117731760Y-106642984D01*
X117682228Y-106609887D01*
X117640113Y-106567772D01*
X117607016Y-106518240D01*
X117584221Y-106463207D01*
X117572600Y-106404784D01*
X117572600Y-106345216D01*
X117584221Y-106286793D01*
X117607016Y-106231760D01*
X117640113Y-106182228D01*
X117682228Y-106140113D01*
X117731760Y-106107016D01*
X117786793Y-106084221D01*
X117845216Y-106072600D01*
X117904784Y-106072600D01*
X117963207Y-106084221D01*
X117963207Y-106084221D01*
G37*
G36*
X104213207Y-106084221D02*
X104268240Y-106107016D01*
X104317772Y-106140113D01*
X104359887Y-106182228D01*
X104392984Y-106231760D01*
X104415779Y-106286793D01*
X104427400Y-106345216D01*
X104427400Y-106404784D01*
X104415779Y-106463207D01*
X104392984Y-106518240D01*
X104359887Y-106567772D01*
X104317772Y-106609887D01*
X104268240Y-106642984D01*
X104213207Y-106665779D01*
X104154784Y-106677400D01*
X104095216Y-106677400D01*
X104036793Y-106665779D01*
X103981760Y-106642984D01*
X103932228Y-106609887D01*
X103890113Y-106567772D01*
X103857016Y-106518240D01*
X103834221Y-106463207D01*
X103822600Y-106404784D01*
X103822600Y-106345216D01*
X103834221Y-106286793D01*
X103857016Y-106231760D01*
X103890113Y-106182228D01*
X103932228Y-106140113D01*
X103981760Y-106107016D01*
X104036793Y-106084221D01*
X104095216Y-106072600D01*
X104154784Y-106072600D01*
X104213207Y-106084221D01*
X104213207Y-106084221D01*
G37*
G36*
X72588207Y-106084221D02*
X72643240Y-106107016D01*
X72692772Y-106140113D01*
X72734887Y-106182228D01*
X72767984Y-106231760D01*
X72790779Y-106286793D01*
X72802400Y-106345216D01*
X72802400Y-106404784D01*
X72790779Y-106463207D01*
X72767984Y-106518240D01*
X72734887Y-106567772D01*
X72692772Y-106609887D01*
X72643240Y-106642984D01*
X72588207Y-106665779D01*
X72529784Y-106677400D01*
X72470216Y-106677400D01*
X72411793Y-106665779D01*
X72356760Y-106642984D01*
X72307228Y-106609887D01*
X72265113Y-106567772D01*
X72232016Y-106518240D01*
X72209221Y-106463207D01*
X72197600Y-106404784D01*
X72197600Y-106345216D01*
X72209221Y-106286793D01*
X72232016Y-106231760D01*
X72265113Y-106182228D01*
X72307228Y-106140113D01*
X72356760Y-106107016D01*
X72411793Y-106084221D01*
X72470216Y-106072600D01*
X72529784Y-106072600D01*
X72588207Y-106084221D01*
X72588207Y-106084221D01*
G37*
G36*
X82213207Y-106084221D02*
X82268240Y-106107016D01*
X82317772Y-106140113D01*
X82359887Y-106182228D01*
X82392984Y-106231760D01*
X82415779Y-106286793D01*
X82427400Y-106345216D01*
X82427400Y-106404784D01*
X82415779Y-106463207D01*
X82392984Y-106518240D01*
X82359887Y-106567772D01*
X82317772Y-106609887D01*
X82268240Y-106642984D01*
X82213207Y-106665779D01*
X82154784Y-106677400D01*
X82095216Y-106677400D01*
X82036793Y-106665779D01*
X81981760Y-106642984D01*
X81932228Y-106609887D01*
X81890113Y-106567772D01*
X81857016Y-106518240D01*
X81834221Y-106463207D01*
X81822600Y-106404784D01*
X81822600Y-106345216D01*
X81834221Y-106286793D01*
X81857016Y-106231760D01*
X81890113Y-106182228D01*
X81932228Y-106140113D01*
X81981760Y-106107016D01*
X82036793Y-106084221D01*
X82095216Y-106072600D01*
X82154784Y-106072600D01*
X82213207Y-106084221D01*
X82213207Y-106084221D01*
G37*
G36*
X95963207Y-106084221D02*
X96018240Y-106107016D01*
X96067772Y-106140113D01*
X96109887Y-106182228D01*
X96142984Y-106231760D01*
X96165779Y-106286793D01*
X96177400Y-106345216D01*
X96177400Y-106404784D01*
X96165779Y-106463207D01*
X96142984Y-106518240D01*
X96109887Y-106567772D01*
X96067772Y-106609887D01*
X96018240Y-106642984D01*
X95963207Y-106665779D01*
X95904784Y-106677400D01*
X95845216Y-106677400D01*
X95786793Y-106665779D01*
X95731760Y-106642984D01*
X95682228Y-106609887D01*
X95640113Y-106567772D01*
X95607016Y-106518240D01*
X95584221Y-106463207D01*
X95572600Y-106404784D01*
X95572600Y-106345216D01*
X95584221Y-106286793D01*
X95607016Y-106231760D01*
X95640113Y-106182228D01*
X95682228Y-106140113D01*
X95731760Y-106107016D01*
X95786793Y-106084221D01*
X95845216Y-106072600D01*
X95904784Y-106072600D01*
X95963207Y-106084221D01*
X95963207Y-106084221D01*
G37*
G36*
X93213207Y-106084221D02*
X93268240Y-106107016D01*
X93317772Y-106140113D01*
X93359887Y-106182228D01*
X93392984Y-106231760D01*
X93415779Y-106286793D01*
X93427400Y-106345216D01*
X93427400Y-106404784D01*
X93415779Y-106463207D01*
X93392984Y-106518240D01*
X93359887Y-106567772D01*
X93317772Y-106609887D01*
X93268240Y-106642984D01*
X93213207Y-106665779D01*
X93154784Y-106677400D01*
X93095216Y-106677400D01*
X93036793Y-106665779D01*
X92981760Y-106642984D01*
X92932228Y-106609887D01*
X92890113Y-106567772D01*
X92857016Y-106518240D01*
X92834221Y-106463207D01*
X92822600Y-106404784D01*
X92822600Y-106345216D01*
X92834221Y-106286793D01*
X92857016Y-106231760D01*
X92890113Y-106182228D01*
X92932228Y-106140113D01*
X92981760Y-106107016D01*
X93036793Y-106084221D01*
X93095216Y-106072600D01*
X93154784Y-106072600D01*
X93213207Y-106084221D01*
X93213207Y-106084221D01*
G37*
G36*
X90463207Y-106084221D02*
X90518240Y-106107016D01*
X90567772Y-106140113D01*
X90609887Y-106182228D01*
X90642984Y-106231760D01*
X90665779Y-106286793D01*
X90677400Y-106345216D01*
X90677400Y-106404784D01*
X90665779Y-106463207D01*
X90642984Y-106518240D01*
X90609887Y-106567772D01*
X90567772Y-106609887D01*
X90518240Y-106642984D01*
X90463207Y-106665779D01*
X90404784Y-106677400D01*
X90345216Y-106677400D01*
X90286793Y-106665779D01*
X90231760Y-106642984D01*
X90182228Y-106609887D01*
X90140113Y-106567772D01*
X90107016Y-106518240D01*
X90084221Y-106463207D01*
X90072600Y-106404784D01*
X90072600Y-106345216D01*
X90084221Y-106286793D01*
X90107016Y-106231760D01*
X90140113Y-106182228D01*
X90182228Y-106140113D01*
X90231760Y-106107016D01*
X90286793Y-106084221D01*
X90345216Y-106072600D01*
X90404784Y-106072600D01*
X90463207Y-106084221D01*
X90463207Y-106084221D01*
G37*
G36*
X87713207Y-106084221D02*
X87768240Y-106107016D01*
X87817772Y-106140113D01*
X87859887Y-106182228D01*
X87892984Y-106231760D01*
X87915779Y-106286793D01*
X87927400Y-106345216D01*
X87927400Y-106404784D01*
X87915779Y-106463207D01*
X87892984Y-106518240D01*
X87859887Y-106567772D01*
X87817772Y-106609887D01*
X87768240Y-106642984D01*
X87713207Y-106665779D01*
X87654784Y-106677400D01*
X87595216Y-106677400D01*
X87536793Y-106665779D01*
X87481760Y-106642984D01*
X87432228Y-106609887D01*
X87390113Y-106567772D01*
X87357016Y-106518240D01*
X87334221Y-106463207D01*
X87322600Y-106404784D01*
X87322600Y-106345216D01*
X87334221Y-106286793D01*
X87357016Y-106231760D01*
X87390113Y-106182228D01*
X87432228Y-106140113D01*
X87481760Y-106107016D01*
X87536793Y-106084221D01*
X87595216Y-106072600D01*
X87654784Y-106072600D01*
X87713207Y-106084221D01*
X87713207Y-106084221D01*
G37*
G36*
X84963207Y-106084221D02*
X85018240Y-106107016D01*
X85067772Y-106140113D01*
X85109887Y-106182228D01*
X85142984Y-106231760D01*
X85165779Y-106286793D01*
X85177400Y-106345216D01*
X85177400Y-106404784D01*
X85165779Y-106463207D01*
X85142984Y-106518240D01*
X85109887Y-106567772D01*
X85067772Y-106609887D01*
X85018240Y-106642984D01*
X84963207Y-106665779D01*
X84904784Y-106677400D01*
X84845216Y-106677400D01*
X84786793Y-106665779D01*
X84731760Y-106642984D01*
X84682228Y-106609887D01*
X84640113Y-106567772D01*
X84607016Y-106518240D01*
X84584221Y-106463207D01*
X84572600Y-106404784D01*
X84572600Y-106345216D01*
X84584221Y-106286793D01*
X84607016Y-106231760D01*
X84640113Y-106182228D01*
X84682228Y-106140113D01*
X84731760Y-106107016D01*
X84786793Y-106084221D01*
X84845216Y-106072600D01*
X84904784Y-106072600D01*
X84963207Y-106084221D01*
X84963207Y-106084221D01*
G37*
G36*
X101463207Y-106084221D02*
X101518240Y-106107016D01*
X101567772Y-106140113D01*
X101609887Y-106182228D01*
X101642984Y-106231760D01*
X101665779Y-106286793D01*
X101677400Y-106345216D01*
X101677400Y-106404784D01*
X101665779Y-106463207D01*
X101642984Y-106518240D01*
X101609887Y-106567772D01*
X101567772Y-106609887D01*
X101518240Y-106642984D01*
X101463207Y-106665779D01*
X101404784Y-106677400D01*
X101345216Y-106677400D01*
X101286793Y-106665779D01*
X101231760Y-106642984D01*
X101182228Y-106609887D01*
X101140113Y-106567772D01*
X101107016Y-106518240D01*
X101084221Y-106463207D01*
X101072600Y-106404784D01*
X101072600Y-106345216D01*
X101084221Y-106286793D01*
X101107016Y-106231760D01*
X101140113Y-106182228D01*
X101182228Y-106140113D01*
X101231760Y-106107016D01*
X101286793Y-106084221D01*
X101345216Y-106072600D01*
X101404784Y-106072600D01*
X101463207Y-106084221D01*
X101463207Y-106084221D01*
G37*
G36*
X79463207Y-106084221D02*
X79518240Y-106107016D01*
X79567772Y-106140113D01*
X79609887Y-106182228D01*
X79642984Y-106231760D01*
X79665779Y-106286793D01*
X79677400Y-106345216D01*
X79677400Y-106404784D01*
X79665779Y-106463207D01*
X79642984Y-106518240D01*
X79609887Y-106567772D01*
X79567772Y-106609887D01*
X79518240Y-106642984D01*
X79463207Y-106665779D01*
X79404784Y-106677400D01*
X79345216Y-106677400D01*
X79286793Y-106665779D01*
X79231760Y-106642984D01*
X79182228Y-106609887D01*
X79140113Y-106567772D01*
X79107016Y-106518240D01*
X79084221Y-106463207D01*
X79072600Y-106404784D01*
X79072600Y-106345216D01*
X79084221Y-106286793D01*
X79107016Y-106231760D01*
X79140113Y-106182228D01*
X79182228Y-106140113D01*
X79231760Y-106107016D01*
X79286793Y-106084221D01*
X79345216Y-106072600D01*
X79404784Y-106072600D01*
X79463207Y-106084221D01*
X79463207Y-106084221D01*
G37*
G36*
X76713207Y-106084221D02*
X76768240Y-106107016D01*
X76817772Y-106140113D01*
X76859887Y-106182228D01*
X76892984Y-106231760D01*
X76915779Y-106286793D01*
X76927400Y-106345216D01*
X76927400Y-106404784D01*
X76915779Y-106463207D01*
X76892984Y-106518240D01*
X76859887Y-106567772D01*
X76817772Y-106609887D01*
X76768240Y-106642984D01*
X76713207Y-106665779D01*
X76654784Y-106677400D01*
X76595216Y-106677400D01*
X76536793Y-106665779D01*
X76481760Y-106642984D01*
X76432228Y-106609887D01*
X76390113Y-106567772D01*
X76357016Y-106518240D01*
X76334221Y-106463207D01*
X76322600Y-106404784D01*
X76322600Y-106345216D01*
X76334221Y-106286793D01*
X76357016Y-106231760D01*
X76390113Y-106182228D01*
X76432228Y-106140113D01*
X76481760Y-106107016D01*
X76536793Y-106084221D01*
X76595216Y-106072600D01*
X76654784Y-106072600D01*
X76713207Y-106084221D01*
X76713207Y-106084221D01*
G37*
G36*
X122088207Y-103334221D02*
X122143240Y-103357016D01*
X122192772Y-103390113D01*
X122234887Y-103432228D01*
X122267984Y-103481760D01*
X122290779Y-103536793D01*
X122302400Y-103595216D01*
X122302400Y-103654784D01*
X122290779Y-103713207D01*
X122267984Y-103768240D01*
X122234887Y-103817772D01*
X122192772Y-103859887D01*
X122143240Y-103892984D01*
X122088207Y-103915779D01*
X122029784Y-103927400D01*
X121970216Y-103927400D01*
X121911793Y-103915779D01*
X121856760Y-103892984D01*
X121807228Y-103859887D01*
X121765113Y-103817772D01*
X121732016Y-103768240D01*
X121709221Y-103713207D01*
X121697600Y-103654784D01*
X121697600Y-103595216D01*
X121709221Y-103536793D01*
X121732016Y-103481760D01*
X121765113Y-103432228D01*
X121807228Y-103390113D01*
X121856760Y-103357016D01*
X121911793Y-103334221D01*
X121970216Y-103322600D01*
X122029784Y-103322600D01*
X122088207Y-103334221D01*
X122088207Y-103334221D01*
G37*
G36*
X82213207Y-103334221D02*
X82268240Y-103357016D01*
X82317772Y-103390113D01*
X82359887Y-103432228D01*
X82392984Y-103481760D01*
X82415779Y-103536793D01*
X82427400Y-103595216D01*
X82427400Y-103654784D01*
X82415779Y-103713207D01*
X82392984Y-103768240D01*
X82359887Y-103817772D01*
X82317772Y-103859887D01*
X82268240Y-103892984D01*
X82213207Y-103915779D01*
X82154784Y-103927400D01*
X82095216Y-103927400D01*
X82036793Y-103915779D01*
X81981760Y-103892984D01*
X81932228Y-103859887D01*
X81890113Y-103817772D01*
X81857016Y-103768240D01*
X81834221Y-103713207D01*
X81822600Y-103654784D01*
X81822600Y-103595216D01*
X81834221Y-103536793D01*
X81857016Y-103481760D01*
X81890113Y-103432228D01*
X81932228Y-103390113D01*
X81981760Y-103357016D01*
X82036793Y-103334221D01*
X82095216Y-103322600D01*
X82154784Y-103322600D01*
X82213207Y-103334221D01*
X82213207Y-103334221D01*
G37*
G36*
X78088207Y-103334221D02*
X78143240Y-103357016D01*
X78192772Y-103390113D01*
X78234887Y-103432228D01*
X78267984Y-103481760D01*
X78290779Y-103536793D01*
X78302400Y-103595216D01*
X78302400Y-103654784D01*
X78290779Y-103713207D01*
X78267984Y-103768240D01*
X78234887Y-103817772D01*
X78192772Y-103859887D01*
X78143240Y-103892984D01*
X78088207Y-103915779D01*
X78029784Y-103927400D01*
X77970216Y-103927400D01*
X77911793Y-103915779D01*
X77856760Y-103892984D01*
X77807228Y-103859887D01*
X77765113Y-103817772D01*
X77732016Y-103768240D01*
X77709221Y-103713207D01*
X77697600Y-103654784D01*
X77697600Y-103595216D01*
X77709221Y-103536793D01*
X77732016Y-103481760D01*
X77765113Y-103432228D01*
X77807228Y-103390113D01*
X77856760Y-103357016D01*
X77911793Y-103334221D01*
X77970216Y-103322600D01*
X78029784Y-103322600D01*
X78088207Y-103334221D01*
X78088207Y-103334221D01*
G37*
G36*
X84963207Y-103334221D02*
X85018240Y-103357016D01*
X85067772Y-103390113D01*
X85109887Y-103432228D01*
X85142984Y-103481760D01*
X85165779Y-103536793D01*
X85177400Y-103595216D01*
X85177400Y-103654784D01*
X85165779Y-103713207D01*
X85142984Y-103768240D01*
X85109887Y-103817772D01*
X85067772Y-103859887D01*
X85018240Y-103892984D01*
X84963207Y-103915779D01*
X84904784Y-103927400D01*
X84845216Y-103927400D01*
X84786793Y-103915779D01*
X84731760Y-103892984D01*
X84682228Y-103859887D01*
X84640113Y-103817772D01*
X84607016Y-103768240D01*
X84584221Y-103713207D01*
X84572600Y-103654784D01*
X84572600Y-103595216D01*
X84584221Y-103536793D01*
X84607016Y-103481760D01*
X84640113Y-103432228D01*
X84682228Y-103390113D01*
X84731760Y-103357016D01*
X84786793Y-103334221D01*
X84845216Y-103322600D01*
X84904784Y-103322600D01*
X84963207Y-103334221D01*
X84963207Y-103334221D01*
G37*
G36*
X104213207Y-103334221D02*
X104268240Y-103357016D01*
X104317772Y-103390113D01*
X104359887Y-103432228D01*
X104392984Y-103481760D01*
X104415779Y-103536793D01*
X104427400Y-103595216D01*
X104427400Y-103654784D01*
X104415779Y-103713207D01*
X104392984Y-103768240D01*
X104359887Y-103817772D01*
X104317772Y-103859887D01*
X104268240Y-103892984D01*
X104213207Y-103915779D01*
X104154784Y-103927400D01*
X104095216Y-103927400D01*
X104036793Y-103915779D01*
X103981760Y-103892984D01*
X103932228Y-103859887D01*
X103890113Y-103817772D01*
X103857016Y-103768240D01*
X103834221Y-103713207D01*
X103822600Y-103654784D01*
X103822600Y-103595216D01*
X103834221Y-103536793D01*
X103857016Y-103481760D01*
X103890113Y-103432228D01*
X103932228Y-103390113D01*
X103981760Y-103357016D01*
X104036793Y-103334221D01*
X104095216Y-103322600D01*
X104154784Y-103322600D01*
X104213207Y-103334221D01*
X104213207Y-103334221D01*
G37*
G36*
X87713207Y-103334221D02*
X87768240Y-103357016D01*
X87817772Y-103390113D01*
X87859887Y-103432228D01*
X87892984Y-103481760D01*
X87915779Y-103536793D01*
X87927400Y-103595216D01*
X87927400Y-103654784D01*
X87915779Y-103713207D01*
X87892984Y-103768240D01*
X87859887Y-103817772D01*
X87817772Y-103859887D01*
X87768240Y-103892984D01*
X87713207Y-103915779D01*
X87654784Y-103927400D01*
X87595216Y-103927400D01*
X87536793Y-103915779D01*
X87481760Y-103892984D01*
X87432228Y-103859887D01*
X87390113Y-103817772D01*
X87357016Y-103768240D01*
X87334221Y-103713207D01*
X87322600Y-103654784D01*
X87322600Y-103595216D01*
X87334221Y-103536793D01*
X87357016Y-103481760D01*
X87390113Y-103432228D01*
X87432228Y-103390113D01*
X87481760Y-103357016D01*
X87536793Y-103334221D01*
X87595216Y-103322600D01*
X87654784Y-103322600D01*
X87713207Y-103334221D01*
X87713207Y-103334221D01*
G37*
G36*
X90463207Y-103334221D02*
X90518240Y-103357016D01*
X90567772Y-103390113D01*
X90609887Y-103432228D01*
X90642984Y-103481760D01*
X90665779Y-103536793D01*
X90677400Y-103595216D01*
X90677400Y-103654784D01*
X90665779Y-103713207D01*
X90642984Y-103768240D01*
X90609887Y-103817772D01*
X90567772Y-103859887D01*
X90518240Y-103892984D01*
X90463207Y-103915779D01*
X90404784Y-103927400D01*
X90345216Y-103927400D01*
X90286793Y-103915779D01*
X90231760Y-103892984D01*
X90182228Y-103859887D01*
X90140113Y-103817772D01*
X90107016Y-103768240D01*
X90084221Y-103713207D01*
X90072600Y-103654784D01*
X90072600Y-103595216D01*
X90084221Y-103536793D01*
X90107016Y-103481760D01*
X90140113Y-103432228D01*
X90182228Y-103390113D01*
X90231760Y-103357016D01*
X90286793Y-103334221D01*
X90345216Y-103322600D01*
X90404784Y-103322600D01*
X90463207Y-103334221D01*
X90463207Y-103334221D01*
G37*
G36*
X101463207Y-103334221D02*
X101518240Y-103357016D01*
X101567772Y-103390113D01*
X101609887Y-103432228D01*
X101642984Y-103481760D01*
X101665779Y-103536793D01*
X101677400Y-103595216D01*
X101677400Y-103654784D01*
X101665779Y-103713207D01*
X101642984Y-103768240D01*
X101609887Y-103817772D01*
X101567772Y-103859887D01*
X101518240Y-103892984D01*
X101463207Y-103915779D01*
X101404784Y-103927400D01*
X101345216Y-103927400D01*
X101286793Y-103915779D01*
X101231760Y-103892984D01*
X101182228Y-103859887D01*
X101140113Y-103817772D01*
X101107016Y-103768240D01*
X101084221Y-103713207D01*
X101072600Y-103654784D01*
X101072600Y-103595216D01*
X101084221Y-103536793D01*
X101107016Y-103481760D01*
X101140113Y-103432228D01*
X101182228Y-103390113D01*
X101231760Y-103357016D01*
X101286793Y-103334221D01*
X101345216Y-103322600D01*
X101404784Y-103322600D01*
X101463207Y-103334221D01*
X101463207Y-103334221D01*
G37*
G36*
X93213207Y-103334221D02*
X93268240Y-103357016D01*
X93317772Y-103390113D01*
X93359887Y-103432228D01*
X93392984Y-103481760D01*
X93415779Y-103536793D01*
X93427400Y-103595216D01*
X93427400Y-103654784D01*
X93415779Y-103713207D01*
X93392984Y-103768240D01*
X93359887Y-103817772D01*
X93317772Y-103859887D01*
X93268240Y-103892984D01*
X93213207Y-103915779D01*
X93154784Y-103927400D01*
X93095216Y-103927400D01*
X93036793Y-103915779D01*
X92981760Y-103892984D01*
X92932228Y-103859887D01*
X92890113Y-103817772D01*
X92857016Y-103768240D01*
X92834221Y-103713207D01*
X92822600Y-103654784D01*
X92822600Y-103595216D01*
X92834221Y-103536793D01*
X92857016Y-103481760D01*
X92890113Y-103432228D01*
X92932228Y-103390113D01*
X92981760Y-103357016D01*
X93036793Y-103334221D01*
X93095216Y-103322600D01*
X93154784Y-103322600D01*
X93213207Y-103334221D01*
X93213207Y-103334221D01*
G37*
G36*
X95963207Y-103334221D02*
X96018240Y-103357016D01*
X96067772Y-103390113D01*
X96109887Y-103432228D01*
X96142984Y-103481760D01*
X96165779Y-103536793D01*
X96177400Y-103595216D01*
X96177400Y-103654784D01*
X96165779Y-103713207D01*
X96142984Y-103768240D01*
X96109887Y-103817772D01*
X96067772Y-103859887D01*
X96018240Y-103892984D01*
X95963207Y-103915779D01*
X95904784Y-103927400D01*
X95845216Y-103927400D01*
X95786793Y-103915779D01*
X95731760Y-103892984D01*
X95682228Y-103859887D01*
X95640113Y-103817772D01*
X95607016Y-103768240D01*
X95584221Y-103713207D01*
X95572600Y-103654784D01*
X95572600Y-103595216D01*
X95584221Y-103536793D01*
X95607016Y-103481760D01*
X95640113Y-103432228D01*
X95682228Y-103390113D01*
X95731760Y-103357016D01*
X95786793Y-103334221D01*
X95845216Y-103322600D01*
X95904784Y-103322600D01*
X95963207Y-103334221D01*
X95963207Y-103334221D01*
G37*
G36*
X109713207Y-103334221D02*
X109768240Y-103357016D01*
X109817772Y-103390113D01*
X109859887Y-103432228D01*
X109892984Y-103481760D01*
X109915779Y-103536793D01*
X109927400Y-103595216D01*
X109927400Y-103654784D01*
X109915779Y-103713207D01*
X109892984Y-103768240D01*
X109859887Y-103817772D01*
X109817772Y-103859887D01*
X109768240Y-103892984D01*
X109713207Y-103915779D01*
X109654784Y-103927400D01*
X109595216Y-103927400D01*
X109536793Y-103915779D01*
X109481760Y-103892984D01*
X109432228Y-103859887D01*
X109390113Y-103817772D01*
X109357016Y-103768240D01*
X109334221Y-103713207D01*
X109322600Y-103654784D01*
X109322600Y-103595216D01*
X109334221Y-103536793D01*
X109357016Y-103481760D01*
X109390113Y-103432228D01*
X109432228Y-103390113D01*
X109481760Y-103357016D01*
X109536793Y-103334221D01*
X109595216Y-103322600D01*
X109654784Y-103322600D01*
X109713207Y-103334221D01*
X109713207Y-103334221D01*
G37*
G36*
X98713207Y-103334221D02*
X98768240Y-103357016D01*
X98817772Y-103390113D01*
X98859887Y-103432228D01*
X98892984Y-103481760D01*
X98915779Y-103536793D01*
X98927400Y-103595216D01*
X98927400Y-103654784D01*
X98915779Y-103713207D01*
X98892984Y-103768240D01*
X98859887Y-103817772D01*
X98817772Y-103859887D01*
X98768240Y-103892984D01*
X98713207Y-103915779D01*
X98654784Y-103927400D01*
X98595216Y-103927400D01*
X98536793Y-103915779D01*
X98481760Y-103892984D01*
X98432228Y-103859887D01*
X98390113Y-103817772D01*
X98357016Y-103768240D01*
X98334221Y-103713207D01*
X98322600Y-103654784D01*
X98322600Y-103595216D01*
X98334221Y-103536793D01*
X98357016Y-103481760D01*
X98390113Y-103432228D01*
X98432228Y-103390113D01*
X98481760Y-103357016D01*
X98536793Y-103334221D01*
X98595216Y-103322600D01*
X98654784Y-103322600D01*
X98713207Y-103334221D01*
X98713207Y-103334221D01*
G37*
G36*
X117963207Y-103334221D02*
X118018240Y-103357016D01*
X118067772Y-103390113D01*
X118109887Y-103432228D01*
X118142984Y-103481760D01*
X118165779Y-103536793D01*
X118177400Y-103595216D01*
X118177400Y-103654784D01*
X118165779Y-103713207D01*
X118142984Y-103768240D01*
X118109887Y-103817772D01*
X118067772Y-103859887D01*
X118018240Y-103892984D01*
X117963207Y-103915779D01*
X117904784Y-103927400D01*
X117845216Y-103927400D01*
X117786793Y-103915779D01*
X117731760Y-103892984D01*
X117682228Y-103859887D01*
X117640113Y-103817772D01*
X117607016Y-103768240D01*
X117584221Y-103713207D01*
X117572600Y-103654784D01*
X117572600Y-103595216D01*
X117584221Y-103536793D01*
X117607016Y-103481760D01*
X117640113Y-103432228D01*
X117682228Y-103390113D01*
X117731760Y-103357016D01*
X117786793Y-103334221D01*
X117845216Y-103322600D01*
X117904784Y-103322600D01*
X117963207Y-103334221D01*
X117963207Y-103334221D01*
G37*
G36*
X106963207Y-103334221D02*
X107018240Y-103357016D01*
X107067772Y-103390113D01*
X107109887Y-103432228D01*
X107142984Y-103481760D01*
X107165779Y-103536793D01*
X107177400Y-103595216D01*
X107177400Y-103654784D01*
X107165779Y-103713207D01*
X107142984Y-103768240D01*
X107109887Y-103817772D01*
X107067772Y-103859887D01*
X107018240Y-103892984D01*
X106963207Y-103915779D01*
X106904784Y-103927400D01*
X106845216Y-103927400D01*
X106786793Y-103915779D01*
X106731760Y-103892984D01*
X106682228Y-103859887D01*
X106640113Y-103817772D01*
X106607016Y-103768240D01*
X106584221Y-103713207D01*
X106572600Y-103654784D01*
X106572600Y-103595216D01*
X106584221Y-103536793D01*
X106607016Y-103481760D01*
X106640113Y-103432228D01*
X106682228Y-103390113D01*
X106731760Y-103357016D01*
X106786793Y-103334221D01*
X106845216Y-103322600D01*
X106904784Y-103322600D01*
X106963207Y-103334221D01*
X106963207Y-103334221D01*
G37*
G36*
X115213207Y-103334221D02*
X115268240Y-103357016D01*
X115317772Y-103390113D01*
X115359887Y-103432228D01*
X115392984Y-103481760D01*
X115415779Y-103536793D01*
X115427400Y-103595216D01*
X115427400Y-103654784D01*
X115415779Y-103713207D01*
X115392984Y-103768240D01*
X115359887Y-103817772D01*
X115317772Y-103859887D01*
X115268240Y-103892984D01*
X115213207Y-103915779D01*
X115154784Y-103927400D01*
X115095216Y-103927400D01*
X115036793Y-103915779D01*
X114981760Y-103892984D01*
X114932228Y-103859887D01*
X114890113Y-103817772D01*
X114857016Y-103768240D01*
X114834221Y-103713207D01*
X114822600Y-103654784D01*
X114822600Y-103595216D01*
X114834221Y-103536793D01*
X114857016Y-103481760D01*
X114890113Y-103432228D01*
X114932228Y-103390113D01*
X114981760Y-103357016D01*
X115036793Y-103334221D01*
X115095216Y-103322600D01*
X115154784Y-103322600D01*
X115213207Y-103334221D01*
X115213207Y-103334221D01*
G37*
G36*
X112463207Y-103334221D02*
X112518240Y-103357016D01*
X112567772Y-103390113D01*
X112609887Y-103432228D01*
X112642984Y-103481760D01*
X112665779Y-103536793D01*
X112677400Y-103595216D01*
X112677400Y-103654784D01*
X112665779Y-103713207D01*
X112642984Y-103768240D01*
X112609887Y-103817772D01*
X112567772Y-103859887D01*
X112518240Y-103892984D01*
X112463207Y-103915779D01*
X112404784Y-103927400D01*
X112345216Y-103927400D01*
X112286793Y-103915779D01*
X112231760Y-103892984D01*
X112182228Y-103859887D01*
X112140113Y-103817772D01*
X112107016Y-103768240D01*
X112084221Y-103713207D01*
X112072600Y-103654784D01*
X112072600Y-103595216D01*
X112084221Y-103536793D01*
X112107016Y-103481760D01*
X112140113Y-103432228D01*
X112182228Y-103390113D01*
X112231760Y-103357016D01*
X112286793Y-103334221D01*
X112345216Y-103322600D01*
X112404784Y-103322600D01*
X112463207Y-103334221D01*
X112463207Y-103334221D01*
G37*
G36*
X115213207Y-100584221D02*
X115268240Y-100607016D01*
X115317772Y-100640113D01*
X115359887Y-100682228D01*
X115392984Y-100731760D01*
X115415779Y-100786793D01*
X115427400Y-100845216D01*
X115427400Y-100904784D01*
X115415779Y-100963207D01*
X115392984Y-101018240D01*
X115359887Y-101067772D01*
X115317772Y-101109887D01*
X115268240Y-101142984D01*
X115213207Y-101165779D01*
X115154784Y-101177400D01*
X115095216Y-101177400D01*
X115036793Y-101165779D01*
X114981760Y-101142984D01*
X114932228Y-101109887D01*
X114890113Y-101067772D01*
X114857016Y-101018240D01*
X114834221Y-100963207D01*
X114822600Y-100904784D01*
X114822600Y-100845216D01*
X114834221Y-100786793D01*
X114857016Y-100731760D01*
X114890113Y-100682228D01*
X114932228Y-100640113D01*
X114981760Y-100607016D01*
X115036793Y-100584221D01*
X115095216Y-100572600D01*
X115154784Y-100572600D01*
X115213207Y-100584221D01*
X115213207Y-100584221D01*
G37*
G36*
X104213207Y-100584221D02*
X104268240Y-100607016D01*
X104317772Y-100640113D01*
X104359887Y-100682228D01*
X104392984Y-100731760D01*
X104415779Y-100786793D01*
X104427400Y-100845216D01*
X104427400Y-100904784D01*
X104415779Y-100963207D01*
X104392984Y-101018240D01*
X104359887Y-101067772D01*
X104317772Y-101109887D01*
X104268240Y-101142984D01*
X104213207Y-101165779D01*
X104154784Y-101177400D01*
X104095216Y-101177400D01*
X104036793Y-101165779D01*
X103981760Y-101142984D01*
X103932228Y-101109887D01*
X103890113Y-101067772D01*
X103857016Y-101018240D01*
X103834221Y-100963207D01*
X103822600Y-100904784D01*
X103822600Y-100845216D01*
X103834221Y-100786793D01*
X103857016Y-100731760D01*
X103890113Y-100682228D01*
X103932228Y-100640113D01*
X103981760Y-100607016D01*
X104036793Y-100584221D01*
X104095216Y-100572600D01*
X104154784Y-100572600D01*
X104213207Y-100584221D01*
X104213207Y-100584221D01*
G37*
G36*
X87713207Y-100584221D02*
X87768240Y-100607016D01*
X87817772Y-100640113D01*
X87859887Y-100682228D01*
X87892984Y-100731760D01*
X87915779Y-100786793D01*
X87927400Y-100845216D01*
X87927400Y-100904784D01*
X87915779Y-100963207D01*
X87892984Y-101018240D01*
X87859887Y-101067772D01*
X87817772Y-101109887D01*
X87768240Y-101142984D01*
X87713207Y-101165779D01*
X87654784Y-101177400D01*
X87595216Y-101177400D01*
X87536793Y-101165779D01*
X87481760Y-101142984D01*
X87432228Y-101109887D01*
X87390113Y-101067772D01*
X87357016Y-101018240D01*
X87334221Y-100963207D01*
X87322600Y-100904784D01*
X87322600Y-100845216D01*
X87334221Y-100786793D01*
X87357016Y-100731760D01*
X87390113Y-100682228D01*
X87432228Y-100640113D01*
X87481760Y-100607016D01*
X87536793Y-100584221D01*
X87595216Y-100572600D01*
X87654784Y-100572600D01*
X87713207Y-100584221D01*
X87713207Y-100584221D01*
G37*
G36*
X90463207Y-100584221D02*
X90518240Y-100607016D01*
X90567772Y-100640113D01*
X90609887Y-100682228D01*
X90642984Y-100731760D01*
X90665779Y-100786793D01*
X90677400Y-100845216D01*
X90677400Y-100904784D01*
X90665779Y-100963207D01*
X90642984Y-101018240D01*
X90609887Y-101067772D01*
X90567772Y-101109887D01*
X90518240Y-101142984D01*
X90463207Y-101165779D01*
X90404784Y-101177400D01*
X90345216Y-101177400D01*
X90286793Y-101165779D01*
X90231760Y-101142984D01*
X90182228Y-101109887D01*
X90140113Y-101067772D01*
X90107016Y-101018240D01*
X90084221Y-100963207D01*
X90072600Y-100904784D01*
X90072600Y-100845216D01*
X90084221Y-100786793D01*
X90107016Y-100731760D01*
X90140113Y-100682228D01*
X90182228Y-100640113D01*
X90231760Y-100607016D01*
X90286793Y-100584221D01*
X90345216Y-100572600D01*
X90404784Y-100572600D01*
X90463207Y-100584221D01*
X90463207Y-100584221D01*
G37*
G36*
X82213207Y-100584221D02*
X82268240Y-100607016D01*
X82317772Y-100640113D01*
X82359887Y-100682228D01*
X82392984Y-100731760D01*
X82415779Y-100786793D01*
X82427400Y-100845216D01*
X82427400Y-100904784D01*
X82415779Y-100963207D01*
X82392984Y-101018240D01*
X82359887Y-101067772D01*
X82317772Y-101109887D01*
X82268240Y-101142984D01*
X82213207Y-101165779D01*
X82154784Y-101177400D01*
X82095216Y-101177400D01*
X82036793Y-101165779D01*
X81981760Y-101142984D01*
X81932228Y-101109887D01*
X81890113Y-101067772D01*
X81857016Y-101018240D01*
X81834221Y-100963207D01*
X81822600Y-100904784D01*
X81822600Y-100845216D01*
X81834221Y-100786793D01*
X81857016Y-100731760D01*
X81890113Y-100682228D01*
X81932228Y-100640113D01*
X81981760Y-100607016D01*
X82036793Y-100584221D01*
X82095216Y-100572600D01*
X82154784Y-100572600D01*
X82213207Y-100584221D01*
X82213207Y-100584221D01*
G37*
G36*
X93213207Y-100584221D02*
X93268240Y-100607016D01*
X93317772Y-100640113D01*
X93359887Y-100682228D01*
X93392984Y-100731760D01*
X93415779Y-100786793D01*
X93427400Y-100845216D01*
X93427400Y-100904784D01*
X93415779Y-100963207D01*
X93392984Y-101018240D01*
X93359887Y-101067772D01*
X93317772Y-101109887D01*
X93268240Y-101142984D01*
X93213207Y-101165779D01*
X93154784Y-101177400D01*
X93095216Y-101177400D01*
X93036793Y-101165779D01*
X92981760Y-101142984D01*
X92932228Y-101109887D01*
X92890113Y-101067772D01*
X92857016Y-101018240D01*
X92834221Y-100963207D01*
X92822600Y-100904784D01*
X92822600Y-100845216D01*
X92834221Y-100786793D01*
X92857016Y-100731760D01*
X92890113Y-100682228D01*
X92932228Y-100640113D01*
X92981760Y-100607016D01*
X93036793Y-100584221D01*
X93095216Y-100572600D01*
X93154784Y-100572600D01*
X93213207Y-100584221D01*
X93213207Y-100584221D01*
G37*
G36*
X95963207Y-100584221D02*
X96018240Y-100607016D01*
X96067772Y-100640113D01*
X96109887Y-100682228D01*
X96142984Y-100731760D01*
X96165779Y-100786793D01*
X96177400Y-100845216D01*
X96177400Y-100904784D01*
X96165779Y-100963207D01*
X96142984Y-101018240D01*
X96109887Y-101067772D01*
X96067772Y-101109887D01*
X96018240Y-101142984D01*
X95963207Y-101165779D01*
X95904784Y-101177400D01*
X95845216Y-101177400D01*
X95786793Y-101165779D01*
X95731760Y-101142984D01*
X95682228Y-101109887D01*
X95640113Y-101067772D01*
X95607016Y-101018240D01*
X95584221Y-100963207D01*
X95572600Y-100904784D01*
X95572600Y-100845216D01*
X95584221Y-100786793D01*
X95607016Y-100731760D01*
X95640113Y-100682228D01*
X95682228Y-100640113D01*
X95731760Y-100607016D01*
X95786793Y-100584221D01*
X95845216Y-100572600D01*
X95904784Y-100572600D01*
X95963207Y-100584221D01*
X95963207Y-100584221D01*
G37*
G36*
X106963207Y-100584221D02*
X107018240Y-100607016D01*
X107067772Y-100640113D01*
X107109887Y-100682228D01*
X107142984Y-100731760D01*
X107165779Y-100786793D01*
X107177400Y-100845216D01*
X107177400Y-100904784D01*
X107165779Y-100963207D01*
X107142984Y-101018240D01*
X107109887Y-101067772D01*
X107067772Y-101109887D01*
X107018240Y-101142984D01*
X106963207Y-101165779D01*
X106904784Y-101177400D01*
X106845216Y-101177400D01*
X106786793Y-101165779D01*
X106731760Y-101142984D01*
X106682228Y-101109887D01*
X106640113Y-101067772D01*
X106607016Y-101018240D01*
X106584221Y-100963207D01*
X106572600Y-100904784D01*
X106572600Y-100845216D01*
X106584221Y-100786793D01*
X106607016Y-100731760D01*
X106640113Y-100682228D01*
X106682228Y-100640113D01*
X106731760Y-100607016D01*
X106786793Y-100584221D01*
X106845216Y-100572600D01*
X106904784Y-100572600D01*
X106963207Y-100584221D01*
X106963207Y-100584221D01*
G37*
G36*
X112463207Y-100584221D02*
X112518240Y-100607016D01*
X112567772Y-100640113D01*
X112609887Y-100682228D01*
X112642984Y-100731760D01*
X112665779Y-100786793D01*
X112677400Y-100845216D01*
X112677400Y-100904784D01*
X112665779Y-100963207D01*
X112642984Y-101018240D01*
X112609887Y-101067772D01*
X112567772Y-101109887D01*
X112518240Y-101142984D01*
X112463207Y-101165779D01*
X112404784Y-101177400D01*
X112345216Y-101177400D01*
X112286793Y-101165779D01*
X112231760Y-101142984D01*
X112182228Y-101109887D01*
X112140113Y-101067772D01*
X112107016Y-101018240D01*
X112084221Y-100963207D01*
X112072600Y-100904784D01*
X112072600Y-100845216D01*
X112084221Y-100786793D01*
X112107016Y-100731760D01*
X112140113Y-100682228D01*
X112182228Y-100640113D01*
X112231760Y-100607016D01*
X112286793Y-100584221D01*
X112345216Y-100572600D01*
X112404784Y-100572600D01*
X112463207Y-100584221D01*
X112463207Y-100584221D01*
G37*
G36*
X98713207Y-100584221D02*
X98768240Y-100607016D01*
X98817772Y-100640113D01*
X98859887Y-100682228D01*
X98892984Y-100731760D01*
X98915779Y-100786793D01*
X98927400Y-100845216D01*
X98927400Y-100904784D01*
X98915779Y-100963207D01*
X98892984Y-101018240D01*
X98859887Y-101067772D01*
X98817772Y-101109887D01*
X98768240Y-101142984D01*
X98713207Y-101165779D01*
X98654784Y-101177400D01*
X98595216Y-101177400D01*
X98536793Y-101165779D01*
X98481760Y-101142984D01*
X98432228Y-101109887D01*
X98390113Y-101067772D01*
X98357016Y-101018240D01*
X98334221Y-100963207D01*
X98322600Y-100904784D01*
X98322600Y-100845216D01*
X98334221Y-100786793D01*
X98357016Y-100731760D01*
X98390113Y-100682228D01*
X98432228Y-100640113D01*
X98481760Y-100607016D01*
X98536793Y-100584221D01*
X98595216Y-100572600D01*
X98654784Y-100572600D01*
X98713207Y-100584221D01*
X98713207Y-100584221D01*
G37*
G36*
X109713207Y-100584221D02*
X109768240Y-100607016D01*
X109817772Y-100640113D01*
X109859887Y-100682228D01*
X109892984Y-100731760D01*
X109915779Y-100786793D01*
X109927400Y-100845216D01*
X109927400Y-100904784D01*
X109915779Y-100963207D01*
X109892984Y-101018240D01*
X109859887Y-101067772D01*
X109817772Y-101109887D01*
X109768240Y-101142984D01*
X109713207Y-101165779D01*
X109654784Y-101177400D01*
X109595216Y-101177400D01*
X109536793Y-101165779D01*
X109481760Y-101142984D01*
X109432228Y-101109887D01*
X109390113Y-101067772D01*
X109357016Y-101018240D01*
X109334221Y-100963207D01*
X109322600Y-100904784D01*
X109322600Y-100845216D01*
X109334221Y-100786793D01*
X109357016Y-100731760D01*
X109390113Y-100682228D01*
X109432228Y-100640113D01*
X109481760Y-100607016D01*
X109536793Y-100584221D01*
X109595216Y-100572600D01*
X109654784Y-100572600D01*
X109713207Y-100584221D01*
X109713207Y-100584221D01*
G37*
G36*
X101463207Y-100584221D02*
X101518240Y-100607016D01*
X101567772Y-100640113D01*
X101609887Y-100682228D01*
X101642984Y-100731760D01*
X101665779Y-100786793D01*
X101677400Y-100845216D01*
X101677400Y-100904784D01*
X101665779Y-100963207D01*
X101642984Y-101018240D01*
X101609887Y-101067772D01*
X101567772Y-101109887D01*
X101518240Y-101142984D01*
X101463207Y-101165779D01*
X101404784Y-101177400D01*
X101345216Y-101177400D01*
X101286793Y-101165779D01*
X101231760Y-101142984D01*
X101182228Y-101109887D01*
X101140113Y-101067772D01*
X101107016Y-101018240D01*
X101084221Y-100963207D01*
X101072600Y-100904784D01*
X101072600Y-100845216D01*
X101084221Y-100786793D01*
X101107016Y-100731760D01*
X101140113Y-100682228D01*
X101182228Y-100640113D01*
X101231760Y-100607016D01*
X101286793Y-100584221D01*
X101345216Y-100572600D01*
X101404784Y-100572600D01*
X101463207Y-100584221D01*
X101463207Y-100584221D01*
G37*
G36*
X117963207Y-100584221D02*
X118018240Y-100607016D01*
X118067772Y-100640113D01*
X118109887Y-100682228D01*
X118142984Y-100731760D01*
X118165779Y-100786793D01*
X118177400Y-100845216D01*
X118177400Y-100904784D01*
X118165779Y-100963207D01*
X118142984Y-101018240D01*
X118109887Y-101067772D01*
X118067772Y-101109887D01*
X118018240Y-101142984D01*
X117963207Y-101165779D01*
X117904784Y-101177400D01*
X117845216Y-101177400D01*
X117786793Y-101165779D01*
X117731760Y-101142984D01*
X117682228Y-101109887D01*
X117640113Y-101067772D01*
X117607016Y-101018240D01*
X117584221Y-100963207D01*
X117572600Y-100904784D01*
X117572600Y-100845216D01*
X117584221Y-100786793D01*
X117607016Y-100731760D01*
X117640113Y-100682228D01*
X117682228Y-100640113D01*
X117731760Y-100607016D01*
X117786793Y-100584221D01*
X117845216Y-100572600D01*
X117904784Y-100572600D01*
X117963207Y-100584221D01*
X117963207Y-100584221D01*
G37*
G36*
X84963207Y-100584221D02*
X85018240Y-100607016D01*
X85067772Y-100640113D01*
X85109887Y-100682228D01*
X85142984Y-100731760D01*
X85165779Y-100786793D01*
X85177400Y-100845216D01*
X85177400Y-100904784D01*
X85165779Y-100963207D01*
X85142984Y-101018240D01*
X85109887Y-101067772D01*
X85067772Y-101109887D01*
X85018240Y-101142984D01*
X84963207Y-101165779D01*
X84904784Y-101177400D01*
X84845216Y-101177400D01*
X84786793Y-101165779D01*
X84731760Y-101142984D01*
X84682228Y-101109887D01*
X84640113Y-101067772D01*
X84607016Y-101018240D01*
X84584221Y-100963207D01*
X84572600Y-100904784D01*
X84572600Y-100845216D01*
X84584221Y-100786793D01*
X84607016Y-100731760D01*
X84640113Y-100682228D01*
X84682228Y-100640113D01*
X84731760Y-100607016D01*
X84786793Y-100584221D01*
X84845216Y-100572600D01*
X84904784Y-100572600D01*
X84963207Y-100584221D01*
X84963207Y-100584221D01*
G37*
G36*
X98713207Y-97834221D02*
X98768240Y-97857016D01*
X98817772Y-97890113D01*
X98859887Y-97932228D01*
X98892984Y-97981760D01*
X98915779Y-98036793D01*
X98927400Y-98095216D01*
X98927400Y-98154784D01*
X98915779Y-98213207D01*
X98892984Y-98268240D01*
X98859887Y-98317772D01*
X98817772Y-98359887D01*
X98768240Y-98392984D01*
X98713207Y-98415779D01*
X98654784Y-98427400D01*
X98595216Y-98427400D01*
X98536793Y-98415779D01*
X98481760Y-98392984D01*
X98432228Y-98359887D01*
X98390113Y-98317772D01*
X98357016Y-98268240D01*
X98334221Y-98213207D01*
X98322600Y-98154784D01*
X98322600Y-98095216D01*
X98334221Y-98036793D01*
X98357016Y-97981760D01*
X98390113Y-97932228D01*
X98432228Y-97890113D01*
X98481760Y-97857016D01*
X98536793Y-97834221D01*
X98595216Y-97822600D01*
X98654784Y-97822600D01*
X98713207Y-97834221D01*
X98713207Y-97834221D01*
G37*
G36*
X106963207Y-97834221D02*
X107018240Y-97857016D01*
X107067772Y-97890113D01*
X107109887Y-97932228D01*
X107142984Y-97981760D01*
X107165779Y-98036793D01*
X107177400Y-98095216D01*
X107177400Y-98154784D01*
X107165779Y-98213207D01*
X107142984Y-98268240D01*
X107109887Y-98317772D01*
X107067772Y-98359887D01*
X107018240Y-98392984D01*
X106963207Y-98415779D01*
X106904784Y-98427400D01*
X106845216Y-98427400D01*
X106786793Y-98415779D01*
X106731760Y-98392984D01*
X106682228Y-98359887D01*
X106640113Y-98317772D01*
X106607016Y-98268240D01*
X106584221Y-98213207D01*
X106572600Y-98154784D01*
X106572600Y-98095216D01*
X106584221Y-98036793D01*
X106607016Y-97981760D01*
X106640113Y-97932228D01*
X106682228Y-97890113D01*
X106731760Y-97857016D01*
X106786793Y-97834221D01*
X106845216Y-97822600D01*
X106904784Y-97822600D01*
X106963207Y-97834221D01*
X106963207Y-97834221D01*
G37*
G36*
X112463207Y-97834221D02*
X112518240Y-97857016D01*
X112567772Y-97890113D01*
X112609887Y-97932228D01*
X112642984Y-97981760D01*
X112665779Y-98036793D01*
X112677400Y-98095216D01*
X112677400Y-98154784D01*
X112665779Y-98213207D01*
X112642984Y-98268240D01*
X112609887Y-98317772D01*
X112567772Y-98359887D01*
X112518240Y-98392984D01*
X112463207Y-98415779D01*
X112404784Y-98427400D01*
X112345216Y-98427400D01*
X112286793Y-98415779D01*
X112231760Y-98392984D01*
X112182228Y-98359887D01*
X112140113Y-98317772D01*
X112107016Y-98268240D01*
X112084221Y-98213207D01*
X112072600Y-98154784D01*
X112072600Y-98095216D01*
X112084221Y-98036793D01*
X112107016Y-97981760D01*
X112140113Y-97932228D01*
X112182228Y-97890113D01*
X112231760Y-97857016D01*
X112286793Y-97834221D01*
X112345216Y-97822600D01*
X112404784Y-97822600D01*
X112463207Y-97834221D01*
X112463207Y-97834221D01*
G37*
G36*
X109713207Y-97834221D02*
X109768240Y-97857016D01*
X109817772Y-97890113D01*
X109859887Y-97932228D01*
X109892984Y-97981760D01*
X109915779Y-98036793D01*
X109927400Y-98095216D01*
X109927400Y-98154784D01*
X109915779Y-98213207D01*
X109892984Y-98268240D01*
X109859887Y-98317772D01*
X109817772Y-98359887D01*
X109768240Y-98392984D01*
X109713207Y-98415779D01*
X109654784Y-98427400D01*
X109595216Y-98427400D01*
X109536793Y-98415779D01*
X109481760Y-98392984D01*
X109432228Y-98359887D01*
X109390113Y-98317772D01*
X109357016Y-98268240D01*
X109334221Y-98213207D01*
X109322600Y-98154784D01*
X109322600Y-98095216D01*
X109334221Y-98036793D01*
X109357016Y-97981760D01*
X109390113Y-97932228D01*
X109432228Y-97890113D01*
X109481760Y-97857016D01*
X109536793Y-97834221D01*
X109595216Y-97822600D01*
X109654784Y-97822600D01*
X109713207Y-97834221D01*
X109713207Y-97834221D01*
G37*
G36*
X84963207Y-97834221D02*
X85018240Y-97857016D01*
X85067772Y-97890113D01*
X85109887Y-97932228D01*
X85142984Y-97981760D01*
X85165779Y-98036793D01*
X85177400Y-98095216D01*
X85177400Y-98154784D01*
X85165779Y-98213207D01*
X85142984Y-98268240D01*
X85109887Y-98317772D01*
X85067772Y-98359887D01*
X85018240Y-98392984D01*
X84963207Y-98415779D01*
X84904784Y-98427400D01*
X84845216Y-98427400D01*
X84786793Y-98415779D01*
X84731760Y-98392984D01*
X84682228Y-98359887D01*
X84640113Y-98317772D01*
X84607016Y-98268240D01*
X84584221Y-98213207D01*
X84572600Y-98154784D01*
X84572600Y-98095216D01*
X84584221Y-98036793D01*
X84607016Y-97981760D01*
X84640113Y-97932228D01*
X84682228Y-97890113D01*
X84731760Y-97857016D01*
X84786793Y-97834221D01*
X84845216Y-97822600D01*
X84904784Y-97822600D01*
X84963207Y-97834221D01*
X84963207Y-97834221D01*
G37*
G36*
X115213207Y-97834221D02*
X115268240Y-97857016D01*
X115317772Y-97890113D01*
X115359887Y-97932228D01*
X115392984Y-97981760D01*
X115415779Y-98036793D01*
X115427400Y-98095216D01*
X115427400Y-98154784D01*
X115415779Y-98213207D01*
X115392984Y-98268240D01*
X115359887Y-98317772D01*
X115317772Y-98359887D01*
X115268240Y-98392984D01*
X115213207Y-98415779D01*
X115154784Y-98427400D01*
X115095216Y-98427400D01*
X115036793Y-98415779D01*
X114981760Y-98392984D01*
X114932228Y-98359887D01*
X114890113Y-98317772D01*
X114857016Y-98268240D01*
X114834221Y-98213207D01*
X114822600Y-98154784D01*
X114822600Y-98095216D01*
X114834221Y-98036793D01*
X114857016Y-97981760D01*
X114890113Y-97932228D01*
X114932228Y-97890113D01*
X114981760Y-97857016D01*
X115036793Y-97834221D01*
X115095216Y-97822600D01*
X115154784Y-97822600D01*
X115213207Y-97834221D01*
X115213207Y-97834221D01*
G37*
G36*
X87713207Y-97834221D02*
X87768240Y-97857016D01*
X87817772Y-97890113D01*
X87859887Y-97932228D01*
X87892984Y-97981760D01*
X87915779Y-98036793D01*
X87927400Y-98095216D01*
X87927400Y-98154784D01*
X87915779Y-98213207D01*
X87892984Y-98268240D01*
X87859887Y-98317772D01*
X87817772Y-98359887D01*
X87768240Y-98392984D01*
X87713207Y-98415779D01*
X87654784Y-98427400D01*
X87595216Y-98427400D01*
X87536793Y-98415779D01*
X87481760Y-98392984D01*
X87432228Y-98359887D01*
X87390113Y-98317772D01*
X87357016Y-98268240D01*
X87334221Y-98213207D01*
X87322600Y-98154784D01*
X87322600Y-98095216D01*
X87334221Y-98036793D01*
X87357016Y-97981760D01*
X87390113Y-97932228D01*
X87432228Y-97890113D01*
X87481760Y-97857016D01*
X87536793Y-97834221D01*
X87595216Y-97822600D01*
X87654784Y-97822600D01*
X87713207Y-97834221D01*
X87713207Y-97834221D01*
G37*
G36*
X82213207Y-97834221D02*
X82268240Y-97857016D01*
X82317772Y-97890113D01*
X82359887Y-97932228D01*
X82392984Y-97981760D01*
X82415779Y-98036793D01*
X82427400Y-98095216D01*
X82427400Y-98154784D01*
X82415779Y-98213207D01*
X82392984Y-98268240D01*
X82359887Y-98317772D01*
X82317772Y-98359887D01*
X82268240Y-98392984D01*
X82213207Y-98415779D01*
X82154784Y-98427400D01*
X82095216Y-98427400D01*
X82036793Y-98415779D01*
X81981760Y-98392984D01*
X81932228Y-98359887D01*
X81890113Y-98317772D01*
X81857016Y-98268240D01*
X81834221Y-98213207D01*
X81822600Y-98154784D01*
X81822600Y-98095216D01*
X81834221Y-98036793D01*
X81857016Y-97981760D01*
X81890113Y-97932228D01*
X81932228Y-97890113D01*
X81981760Y-97857016D01*
X82036793Y-97834221D01*
X82095216Y-97822600D01*
X82154784Y-97822600D01*
X82213207Y-97834221D01*
X82213207Y-97834221D01*
G37*
G36*
X104213207Y-97834221D02*
X104268240Y-97857016D01*
X104317772Y-97890113D01*
X104359887Y-97932228D01*
X104392984Y-97981760D01*
X104415779Y-98036793D01*
X104427400Y-98095216D01*
X104427400Y-98154784D01*
X104415779Y-98213207D01*
X104392984Y-98268240D01*
X104359887Y-98317772D01*
X104317772Y-98359887D01*
X104268240Y-98392984D01*
X104213207Y-98415779D01*
X104154784Y-98427400D01*
X104095216Y-98427400D01*
X104036793Y-98415779D01*
X103981760Y-98392984D01*
X103932228Y-98359887D01*
X103890113Y-98317772D01*
X103857016Y-98268240D01*
X103834221Y-98213207D01*
X103822600Y-98154784D01*
X103822600Y-98095216D01*
X103834221Y-98036793D01*
X103857016Y-97981760D01*
X103890113Y-97932228D01*
X103932228Y-97890113D01*
X103981760Y-97857016D01*
X104036793Y-97834221D01*
X104095216Y-97822600D01*
X104154784Y-97822600D01*
X104213207Y-97834221D01*
X104213207Y-97834221D01*
G37*
G36*
X117963207Y-97834221D02*
X118018240Y-97857016D01*
X118067772Y-97890113D01*
X118109887Y-97932228D01*
X118142984Y-97981760D01*
X118165779Y-98036793D01*
X118177400Y-98095216D01*
X118177400Y-98154784D01*
X118165779Y-98213207D01*
X118142984Y-98268240D01*
X118109887Y-98317772D01*
X118067772Y-98359887D01*
X118018240Y-98392984D01*
X117963207Y-98415779D01*
X117904784Y-98427400D01*
X117845216Y-98427400D01*
X117786793Y-98415779D01*
X117731760Y-98392984D01*
X117682228Y-98359887D01*
X117640113Y-98317772D01*
X117607016Y-98268240D01*
X117584221Y-98213207D01*
X117572600Y-98154784D01*
X117572600Y-98095216D01*
X117584221Y-98036793D01*
X117607016Y-97981760D01*
X117640113Y-97932228D01*
X117682228Y-97890113D01*
X117731760Y-97857016D01*
X117786793Y-97834221D01*
X117845216Y-97822600D01*
X117904784Y-97822600D01*
X117963207Y-97834221D01*
X117963207Y-97834221D01*
G37*
G36*
X93213207Y-97834221D02*
X93268240Y-97857016D01*
X93317772Y-97890113D01*
X93359887Y-97932228D01*
X93392984Y-97981760D01*
X93415779Y-98036793D01*
X93427400Y-98095216D01*
X93427400Y-98154784D01*
X93415779Y-98213207D01*
X93392984Y-98268240D01*
X93359887Y-98317772D01*
X93317772Y-98359887D01*
X93268240Y-98392984D01*
X93213207Y-98415779D01*
X93154784Y-98427400D01*
X93095216Y-98427400D01*
X93036793Y-98415779D01*
X92981760Y-98392984D01*
X92932228Y-98359887D01*
X92890113Y-98317772D01*
X92857016Y-98268240D01*
X92834221Y-98213207D01*
X92822600Y-98154784D01*
X92822600Y-98095216D01*
X92834221Y-98036793D01*
X92857016Y-97981760D01*
X92890113Y-97932228D01*
X92932228Y-97890113D01*
X92981760Y-97857016D01*
X93036793Y-97834221D01*
X93095216Y-97822600D01*
X93154784Y-97822600D01*
X93213207Y-97834221D01*
X93213207Y-97834221D01*
G37*
G36*
X90463207Y-97834221D02*
X90518240Y-97857016D01*
X90567772Y-97890113D01*
X90609887Y-97932228D01*
X90642984Y-97981760D01*
X90665779Y-98036793D01*
X90677400Y-98095216D01*
X90677400Y-98154784D01*
X90665779Y-98213207D01*
X90642984Y-98268240D01*
X90609887Y-98317772D01*
X90567772Y-98359887D01*
X90518240Y-98392984D01*
X90463207Y-98415779D01*
X90404784Y-98427400D01*
X90345216Y-98427400D01*
X90286793Y-98415779D01*
X90231760Y-98392984D01*
X90182228Y-98359887D01*
X90140113Y-98317772D01*
X90107016Y-98268240D01*
X90084221Y-98213207D01*
X90072600Y-98154784D01*
X90072600Y-98095216D01*
X90084221Y-98036793D01*
X90107016Y-97981760D01*
X90140113Y-97932228D01*
X90182228Y-97890113D01*
X90231760Y-97857016D01*
X90286793Y-97834221D01*
X90345216Y-97822600D01*
X90404784Y-97822600D01*
X90463207Y-97834221D01*
X90463207Y-97834221D01*
G37*
G36*
X95963207Y-97834221D02*
X96018240Y-97857016D01*
X96067772Y-97890113D01*
X96109887Y-97932228D01*
X96142984Y-97981760D01*
X96165779Y-98036793D01*
X96177400Y-98095216D01*
X96177400Y-98154784D01*
X96165779Y-98213207D01*
X96142984Y-98268240D01*
X96109887Y-98317772D01*
X96067772Y-98359887D01*
X96018240Y-98392984D01*
X95963207Y-98415779D01*
X95904784Y-98427400D01*
X95845216Y-98427400D01*
X95786793Y-98415779D01*
X95731760Y-98392984D01*
X95682228Y-98359887D01*
X95640113Y-98317772D01*
X95607016Y-98268240D01*
X95584221Y-98213207D01*
X95572600Y-98154784D01*
X95572600Y-98095216D01*
X95584221Y-98036793D01*
X95607016Y-97981760D01*
X95640113Y-97932228D01*
X95682228Y-97890113D01*
X95731760Y-97857016D01*
X95786793Y-97834221D01*
X95845216Y-97822600D01*
X95904784Y-97822600D01*
X95963207Y-97834221D01*
X95963207Y-97834221D01*
G37*
G36*
X101463207Y-97834221D02*
X101518240Y-97857016D01*
X101567772Y-97890113D01*
X101609887Y-97932228D01*
X101642984Y-97981760D01*
X101665779Y-98036793D01*
X101677400Y-98095216D01*
X101677400Y-98154784D01*
X101665779Y-98213207D01*
X101642984Y-98268240D01*
X101609887Y-98317772D01*
X101567772Y-98359887D01*
X101518240Y-98392984D01*
X101463207Y-98415779D01*
X101404784Y-98427400D01*
X101345216Y-98427400D01*
X101286793Y-98415779D01*
X101231760Y-98392984D01*
X101182228Y-98359887D01*
X101140113Y-98317772D01*
X101107016Y-98268240D01*
X101084221Y-98213207D01*
X101072600Y-98154784D01*
X101072600Y-98095216D01*
X101084221Y-98036793D01*
X101107016Y-97981760D01*
X101140113Y-97932228D01*
X101182228Y-97890113D01*
X101231760Y-97857016D01*
X101286793Y-97834221D01*
X101345216Y-97822600D01*
X101404784Y-97822600D01*
X101463207Y-97834221D01*
X101463207Y-97834221D01*
G37*
G36*
X84963207Y-95084221D02*
X85018240Y-95107016D01*
X85067772Y-95140113D01*
X85109887Y-95182228D01*
X85142984Y-95231760D01*
X85165779Y-95286793D01*
X85177400Y-95345216D01*
X85177400Y-95404784D01*
X85165779Y-95463207D01*
X85142984Y-95518240D01*
X85109887Y-95567772D01*
X85067772Y-95609887D01*
X85018240Y-95642984D01*
X84963207Y-95665779D01*
X84904784Y-95677400D01*
X84845216Y-95677400D01*
X84786793Y-95665779D01*
X84731760Y-95642984D01*
X84682228Y-95609887D01*
X84640113Y-95567772D01*
X84607016Y-95518240D01*
X84584221Y-95463207D01*
X84572600Y-95404784D01*
X84572600Y-95345216D01*
X84584221Y-95286793D01*
X84607016Y-95231760D01*
X84640113Y-95182228D01*
X84682228Y-95140113D01*
X84731760Y-95107016D01*
X84786793Y-95084221D01*
X84845216Y-95072600D01*
X84904784Y-95072600D01*
X84963207Y-95084221D01*
X84963207Y-95084221D01*
G37*
G36*
X87713207Y-95084221D02*
X87768240Y-95107016D01*
X87817772Y-95140113D01*
X87859887Y-95182228D01*
X87892984Y-95231760D01*
X87915779Y-95286793D01*
X87927400Y-95345216D01*
X87927400Y-95404784D01*
X87915779Y-95463207D01*
X87892984Y-95518240D01*
X87859887Y-95567772D01*
X87817772Y-95609887D01*
X87768240Y-95642984D01*
X87713207Y-95665779D01*
X87654784Y-95677400D01*
X87595216Y-95677400D01*
X87536793Y-95665779D01*
X87481760Y-95642984D01*
X87432228Y-95609887D01*
X87390113Y-95567772D01*
X87357016Y-95518240D01*
X87334221Y-95463207D01*
X87322600Y-95404784D01*
X87322600Y-95345216D01*
X87334221Y-95286793D01*
X87357016Y-95231760D01*
X87390113Y-95182228D01*
X87432228Y-95140113D01*
X87481760Y-95107016D01*
X87536793Y-95084221D01*
X87595216Y-95072600D01*
X87654784Y-95072600D01*
X87713207Y-95084221D01*
X87713207Y-95084221D01*
G37*
G36*
X95963207Y-95084221D02*
X96018240Y-95107016D01*
X96067772Y-95140113D01*
X96109887Y-95182228D01*
X96142984Y-95231760D01*
X96165779Y-95286793D01*
X96177400Y-95345216D01*
X96177400Y-95404784D01*
X96165779Y-95463207D01*
X96142984Y-95518240D01*
X96109887Y-95567772D01*
X96067772Y-95609887D01*
X96018240Y-95642984D01*
X95963207Y-95665779D01*
X95904784Y-95677400D01*
X95845216Y-95677400D01*
X95786793Y-95665779D01*
X95731760Y-95642984D01*
X95682228Y-95609887D01*
X95640113Y-95567772D01*
X95607016Y-95518240D01*
X95584221Y-95463207D01*
X95572600Y-95404784D01*
X95572600Y-95345216D01*
X95584221Y-95286793D01*
X95607016Y-95231760D01*
X95640113Y-95182228D01*
X95682228Y-95140113D01*
X95731760Y-95107016D01*
X95786793Y-95084221D01*
X95845216Y-95072600D01*
X95904784Y-95072600D01*
X95963207Y-95084221D01*
X95963207Y-95084221D01*
G37*
G36*
X93213207Y-95084221D02*
X93268240Y-95107016D01*
X93317772Y-95140113D01*
X93359887Y-95182228D01*
X93392984Y-95231760D01*
X93415779Y-95286793D01*
X93427400Y-95345216D01*
X93427400Y-95404784D01*
X93415779Y-95463207D01*
X93392984Y-95518240D01*
X93359887Y-95567772D01*
X93317772Y-95609887D01*
X93268240Y-95642984D01*
X93213207Y-95665779D01*
X93154784Y-95677400D01*
X93095216Y-95677400D01*
X93036793Y-95665779D01*
X92981760Y-95642984D01*
X92932228Y-95609887D01*
X92890113Y-95567772D01*
X92857016Y-95518240D01*
X92834221Y-95463207D01*
X92822600Y-95404784D01*
X92822600Y-95345216D01*
X92834221Y-95286793D01*
X92857016Y-95231760D01*
X92890113Y-95182228D01*
X92932228Y-95140113D01*
X92981760Y-95107016D01*
X93036793Y-95084221D01*
X93095216Y-95072600D01*
X93154784Y-95072600D01*
X93213207Y-95084221D01*
X93213207Y-95084221D01*
G37*
G36*
X90463207Y-95084221D02*
X90518240Y-95107016D01*
X90567772Y-95140113D01*
X90609887Y-95182228D01*
X90642984Y-95231760D01*
X90665779Y-95286793D01*
X90677400Y-95345216D01*
X90677400Y-95404784D01*
X90665779Y-95463207D01*
X90642984Y-95518240D01*
X90609887Y-95567772D01*
X90567772Y-95609887D01*
X90518240Y-95642984D01*
X90463207Y-95665779D01*
X90404784Y-95677400D01*
X90345216Y-95677400D01*
X90286793Y-95665779D01*
X90231760Y-95642984D01*
X90182228Y-95609887D01*
X90140113Y-95567772D01*
X90107016Y-95518240D01*
X90084221Y-95463207D01*
X90072600Y-95404784D01*
X90072600Y-95345216D01*
X90084221Y-95286793D01*
X90107016Y-95231760D01*
X90140113Y-95182228D01*
X90182228Y-95140113D01*
X90231760Y-95107016D01*
X90286793Y-95084221D01*
X90345216Y-95072600D01*
X90404784Y-95072600D01*
X90463207Y-95084221D01*
X90463207Y-95084221D01*
G37*
G36*
X98713207Y-95084221D02*
X98768240Y-95107016D01*
X98817772Y-95140113D01*
X98859887Y-95182228D01*
X98892984Y-95231760D01*
X98915779Y-95286793D01*
X98927400Y-95345216D01*
X98927400Y-95404784D01*
X98915779Y-95463207D01*
X98892984Y-95518240D01*
X98859887Y-95567772D01*
X98817772Y-95609887D01*
X98768240Y-95642984D01*
X98713207Y-95665779D01*
X98654784Y-95677400D01*
X98595216Y-95677400D01*
X98536793Y-95665779D01*
X98481760Y-95642984D01*
X98432228Y-95609887D01*
X98390113Y-95567772D01*
X98357016Y-95518240D01*
X98334221Y-95463207D01*
X98322600Y-95404784D01*
X98322600Y-95345216D01*
X98334221Y-95286793D01*
X98357016Y-95231760D01*
X98390113Y-95182228D01*
X98432228Y-95140113D01*
X98481760Y-95107016D01*
X98536793Y-95084221D01*
X98595216Y-95072600D01*
X98654784Y-95072600D01*
X98713207Y-95084221D01*
X98713207Y-95084221D01*
G37*
G36*
X122088207Y-95084221D02*
X122143240Y-95107016D01*
X122192772Y-95140113D01*
X122234887Y-95182228D01*
X122267984Y-95231760D01*
X122290779Y-95286793D01*
X122302400Y-95345216D01*
X122302400Y-95404784D01*
X122290779Y-95463207D01*
X122267984Y-95518240D01*
X122234887Y-95567772D01*
X122192772Y-95609887D01*
X122143240Y-95642984D01*
X122088207Y-95665779D01*
X122029784Y-95677400D01*
X121970216Y-95677400D01*
X121911793Y-95665779D01*
X121856760Y-95642984D01*
X121807228Y-95609887D01*
X121765113Y-95567772D01*
X121732016Y-95518240D01*
X121709221Y-95463207D01*
X121697600Y-95404784D01*
X121697600Y-95345216D01*
X121709221Y-95286793D01*
X121732016Y-95231760D01*
X121765113Y-95182228D01*
X121807228Y-95140113D01*
X121856760Y-95107016D01*
X121911793Y-95084221D01*
X121970216Y-95072600D01*
X122029784Y-95072600D01*
X122088207Y-95084221D01*
X122088207Y-95084221D01*
G37*
G36*
X82213207Y-95084221D02*
X82268240Y-95107016D01*
X82317772Y-95140113D01*
X82359887Y-95182228D01*
X82392984Y-95231760D01*
X82415779Y-95286793D01*
X82427400Y-95345216D01*
X82427400Y-95404784D01*
X82415779Y-95463207D01*
X82392984Y-95518240D01*
X82359887Y-95567772D01*
X82317772Y-95609887D01*
X82268240Y-95642984D01*
X82213207Y-95665779D01*
X82154784Y-95677400D01*
X82095216Y-95677400D01*
X82036793Y-95665779D01*
X81981760Y-95642984D01*
X81932228Y-95609887D01*
X81890113Y-95567772D01*
X81857016Y-95518240D01*
X81834221Y-95463207D01*
X81822600Y-95404784D01*
X81822600Y-95345216D01*
X81834221Y-95286793D01*
X81857016Y-95231760D01*
X81890113Y-95182228D01*
X81932228Y-95140113D01*
X81981760Y-95107016D01*
X82036793Y-95084221D01*
X82095216Y-95072600D01*
X82154784Y-95072600D01*
X82213207Y-95084221D01*
X82213207Y-95084221D01*
G37*
G36*
X78088207Y-95084221D02*
X78143240Y-95107016D01*
X78192772Y-95140113D01*
X78234887Y-95182228D01*
X78267984Y-95231760D01*
X78290779Y-95286793D01*
X78302400Y-95345216D01*
X78302400Y-95404784D01*
X78290779Y-95463207D01*
X78267984Y-95518240D01*
X78234887Y-95567772D01*
X78192772Y-95609887D01*
X78143240Y-95642984D01*
X78088207Y-95665779D01*
X78029784Y-95677400D01*
X77970216Y-95677400D01*
X77911793Y-95665779D01*
X77856760Y-95642984D01*
X77807228Y-95609887D01*
X77765113Y-95567772D01*
X77732016Y-95518240D01*
X77709221Y-95463207D01*
X77697600Y-95404784D01*
X77697600Y-95345216D01*
X77709221Y-95286793D01*
X77732016Y-95231760D01*
X77765113Y-95182228D01*
X77807228Y-95140113D01*
X77856760Y-95107016D01*
X77911793Y-95084221D01*
X77970216Y-95072600D01*
X78029784Y-95072600D01*
X78088207Y-95084221D01*
X78088207Y-95084221D01*
G37*
G36*
X109713207Y-95084221D02*
X109768240Y-95107016D01*
X109817772Y-95140113D01*
X109859887Y-95182228D01*
X109892984Y-95231760D01*
X109915779Y-95286793D01*
X109927400Y-95345216D01*
X109927400Y-95404784D01*
X109915779Y-95463207D01*
X109892984Y-95518240D01*
X109859887Y-95567772D01*
X109817772Y-95609887D01*
X109768240Y-95642984D01*
X109713207Y-95665779D01*
X109654784Y-95677400D01*
X109595216Y-95677400D01*
X109536793Y-95665779D01*
X109481760Y-95642984D01*
X109432228Y-95609887D01*
X109390113Y-95567772D01*
X109357016Y-95518240D01*
X109334221Y-95463207D01*
X109322600Y-95404784D01*
X109322600Y-95345216D01*
X109334221Y-95286793D01*
X109357016Y-95231760D01*
X109390113Y-95182228D01*
X109432228Y-95140113D01*
X109481760Y-95107016D01*
X109536793Y-95084221D01*
X109595216Y-95072600D01*
X109654784Y-95072600D01*
X109713207Y-95084221D01*
X109713207Y-95084221D01*
G37*
G36*
X104213207Y-95084221D02*
X104268240Y-95107016D01*
X104317772Y-95140113D01*
X104359887Y-95182228D01*
X104392984Y-95231760D01*
X104415779Y-95286793D01*
X104427400Y-95345216D01*
X104427400Y-95404784D01*
X104415779Y-95463207D01*
X104392984Y-95518240D01*
X104359887Y-95567772D01*
X104317772Y-95609887D01*
X104268240Y-95642984D01*
X104213207Y-95665779D01*
X104154784Y-95677400D01*
X104095216Y-95677400D01*
X104036793Y-95665779D01*
X103981760Y-95642984D01*
X103932228Y-95609887D01*
X103890113Y-95567772D01*
X103857016Y-95518240D01*
X103834221Y-95463207D01*
X103822600Y-95404784D01*
X103822600Y-95345216D01*
X103834221Y-95286793D01*
X103857016Y-95231760D01*
X103890113Y-95182228D01*
X103932228Y-95140113D01*
X103981760Y-95107016D01*
X104036793Y-95084221D01*
X104095216Y-95072600D01*
X104154784Y-95072600D01*
X104213207Y-95084221D01*
X104213207Y-95084221D01*
G37*
G36*
X115213207Y-95084221D02*
X115268240Y-95107016D01*
X115317772Y-95140113D01*
X115359887Y-95182228D01*
X115392984Y-95231760D01*
X115415779Y-95286793D01*
X115427400Y-95345216D01*
X115427400Y-95404784D01*
X115415779Y-95463207D01*
X115392984Y-95518240D01*
X115359887Y-95567772D01*
X115317772Y-95609887D01*
X115268240Y-95642984D01*
X115213207Y-95665779D01*
X115154784Y-95677400D01*
X115095216Y-95677400D01*
X115036793Y-95665779D01*
X114981760Y-95642984D01*
X114932228Y-95609887D01*
X114890113Y-95567772D01*
X114857016Y-95518240D01*
X114834221Y-95463207D01*
X114822600Y-95404784D01*
X114822600Y-95345216D01*
X114834221Y-95286793D01*
X114857016Y-95231760D01*
X114890113Y-95182228D01*
X114932228Y-95140113D01*
X114981760Y-95107016D01*
X115036793Y-95084221D01*
X115095216Y-95072600D01*
X115154784Y-95072600D01*
X115213207Y-95084221D01*
X115213207Y-95084221D01*
G37*
G36*
X106963207Y-95084221D02*
X107018240Y-95107016D01*
X107067772Y-95140113D01*
X107109887Y-95182228D01*
X107142984Y-95231760D01*
X107165779Y-95286793D01*
X107177400Y-95345216D01*
X107177400Y-95404784D01*
X107165779Y-95463207D01*
X107142984Y-95518240D01*
X107109887Y-95567772D01*
X107067772Y-95609887D01*
X107018240Y-95642984D01*
X106963207Y-95665779D01*
X106904784Y-95677400D01*
X106845216Y-95677400D01*
X106786793Y-95665779D01*
X106731760Y-95642984D01*
X106682228Y-95609887D01*
X106640113Y-95567772D01*
X106607016Y-95518240D01*
X106584221Y-95463207D01*
X106572600Y-95404784D01*
X106572600Y-95345216D01*
X106584221Y-95286793D01*
X106607016Y-95231760D01*
X106640113Y-95182228D01*
X106682228Y-95140113D01*
X106731760Y-95107016D01*
X106786793Y-95084221D01*
X106845216Y-95072600D01*
X106904784Y-95072600D01*
X106963207Y-95084221D01*
X106963207Y-95084221D01*
G37*
G36*
X112463207Y-95084221D02*
X112518240Y-95107016D01*
X112567772Y-95140113D01*
X112609887Y-95182228D01*
X112642984Y-95231760D01*
X112665779Y-95286793D01*
X112677400Y-95345216D01*
X112677400Y-95404784D01*
X112665779Y-95463207D01*
X112642984Y-95518240D01*
X112609887Y-95567772D01*
X112567772Y-95609887D01*
X112518240Y-95642984D01*
X112463207Y-95665779D01*
X112404784Y-95677400D01*
X112345216Y-95677400D01*
X112286793Y-95665779D01*
X112231760Y-95642984D01*
X112182228Y-95609887D01*
X112140113Y-95567772D01*
X112107016Y-95518240D01*
X112084221Y-95463207D01*
X112072600Y-95404784D01*
X112072600Y-95345216D01*
X112084221Y-95286793D01*
X112107016Y-95231760D01*
X112140113Y-95182228D01*
X112182228Y-95140113D01*
X112231760Y-95107016D01*
X112286793Y-95084221D01*
X112345216Y-95072600D01*
X112404784Y-95072600D01*
X112463207Y-95084221D01*
X112463207Y-95084221D01*
G37*
G36*
X117963207Y-95084221D02*
X118018240Y-95107016D01*
X118067772Y-95140113D01*
X118109887Y-95182228D01*
X118142984Y-95231760D01*
X118165779Y-95286793D01*
X118177400Y-95345216D01*
X118177400Y-95404784D01*
X118165779Y-95463207D01*
X118142984Y-95518240D01*
X118109887Y-95567772D01*
X118067772Y-95609887D01*
X118018240Y-95642984D01*
X117963207Y-95665779D01*
X117904784Y-95677400D01*
X117845216Y-95677400D01*
X117786793Y-95665779D01*
X117731760Y-95642984D01*
X117682228Y-95609887D01*
X117640113Y-95567772D01*
X117607016Y-95518240D01*
X117584221Y-95463207D01*
X117572600Y-95404784D01*
X117572600Y-95345216D01*
X117584221Y-95286793D01*
X117607016Y-95231760D01*
X117640113Y-95182228D01*
X117682228Y-95140113D01*
X117731760Y-95107016D01*
X117786793Y-95084221D01*
X117845216Y-95072600D01*
X117904784Y-95072600D01*
X117963207Y-95084221D01*
X117963207Y-95084221D01*
G37*
G36*
X101463207Y-95084221D02*
X101518240Y-95107016D01*
X101567772Y-95140113D01*
X101609887Y-95182228D01*
X101642984Y-95231760D01*
X101665779Y-95286793D01*
X101677400Y-95345216D01*
X101677400Y-95404784D01*
X101665779Y-95463207D01*
X101642984Y-95518240D01*
X101609887Y-95567772D01*
X101567772Y-95609887D01*
X101518240Y-95642984D01*
X101463207Y-95665779D01*
X101404784Y-95677400D01*
X101345216Y-95677400D01*
X101286793Y-95665779D01*
X101231760Y-95642984D01*
X101182228Y-95609887D01*
X101140113Y-95567772D01*
X101107016Y-95518240D01*
X101084221Y-95463207D01*
X101072600Y-95404784D01*
X101072600Y-95345216D01*
X101084221Y-95286793D01*
X101107016Y-95231760D01*
X101140113Y-95182228D01*
X101182228Y-95140113D01*
X101231760Y-95107016D01*
X101286793Y-95084221D01*
X101345216Y-95072600D01*
X101404784Y-95072600D01*
X101463207Y-95084221D01*
X101463207Y-95084221D01*
G37*
G36*
X93213207Y-92334221D02*
X93268240Y-92357016D01*
X93317772Y-92390113D01*
X93359887Y-92432228D01*
X93392984Y-92481760D01*
X93415779Y-92536793D01*
X93427400Y-92595216D01*
X93427400Y-92654784D01*
X93415779Y-92713207D01*
X93392984Y-92768240D01*
X93359887Y-92817772D01*
X93317772Y-92859887D01*
X93268240Y-92892984D01*
X93213207Y-92915779D01*
X93154784Y-92927400D01*
X93095216Y-92927400D01*
X93036793Y-92915779D01*
X92981760Y-92892984D01*
X92932228Y-92859887D01*
X92890113Y-92817772D01*
X92857016Y-92768240D01*
X92834221Y-92713207D01*
X92822600Y-92654784D01*
X92822600Y-92595216D01*
X92834221Y-92536793D01*
X92857016Y-92481760D01*
X92890113Y-92432228D01*
X92932228Y-92390113D01*
X92981760Y-92357016D01*
X93036793Y-92334221D01*
X93095216Y-92322600D01*
X93154784Y-92322600D01*
X93213207Y-92334221D01*
X93213207Y-92334221D01*
G37*
G36*
X82213207Y-92334221D02*
X82268240Y-92357016D01*
X82317772Y-92390113D01*
X82359887Y-92432228D01*
X82392984Y-92481760D01*
X82415779Y-92536793D01*
X82427400Y-92595216D01*
X82427400Y-92654784D01*
X82415779Y-92713207D01*
X82392984Y-92768240D01*
X82359887Y-92817772D01*
X82317772Y-92859887D01*
X82268240Y-92892984D01*
X82213207Y-92915779D01*
X82154784Y-92927400D01*
X82095216Y-92927400D01*
X82036793Y-92915779D01*
X81981760Y-92892984D01*
X81932228Y-92859887D01*
X81890113Y-92817772D01*
X81857016Y-92768240D01*
X81834221Y-92713207D01*
X81822600Y-92654784D01*
X81822600Y-92595216D01*
X81834221Y-92536793D01*
X81857016Y-92481760D01*
X81890113Y-92432228D01*
X81932228Y-92390113D01*
X81981760Y-92357016D01*
X82036793Y-92334221D01*
X82095216Y-92322600D01*
X82154784Y-92322600D01*
X82213207Y-92334221D01*
X82213207Y-92334221D01*
G37*
G36*
X90463207Y-92334221D02*
X90518240Y-92357016D01*
X90567772Y-92390113D01*
X90609887Y-92432228D01*
X90642984Y-92481760D01*
X90665779Y-92536793D01*
X90677400Y-92595216D01*
X90677400Y-92654784D01*
X90665779Y-92713207D01*
X90642984Y-92768240D01*
X90609887Y-92817772D01*
X90567772Y-92859887D01*
X90518240Y-92892984D01*
X90463207Y-92915779D01*
X90404784Y-92927400D01*
X90345216Y-92927400D01*
X90286793Y-92915779D01*
X90231760Y-92892984D01*
X90182228Y-92859887D01*
X90140113Y-92817772D01*
X90107016Y-92768240D01*
X90084221Y-92713207D01*
X90072600Y-92654784D01*
X90072600Y-92595216D01*
X90084221Y-92536793D01*
X90107016Y-92481760D01*
X90140113Y-92432228D01*
X90182228Y-92390113D01*
X90231760Y-92357016D01*
X90286793Y-92334221D01*
X90345216Y-92322600D01*
X90404784Y-92322600D01*
X90463207Y-92334221D01*
X90463207Y-92334221D01*
G37*
G36*
X87713207Y-92334221D02*
X87768240Y-92357016D01*
X87817772Y-92390113D01*
X87859887Y-92432228D01*
X87892984Y-92481760D01*
X87915779Y-92536793D01*
X87927400Y-92595216D01*
X87927400Y-92654784D01*
X87915779Y-92713207D01*
X87892984Y-92768240D01*
X87859887Y-92817772D01*
X87817772Y-92859887D01*
X87768240Y-92892984D01*
X87713207Y-92915779D01*
X87654784Y-92927400D01*
X87595216Y-92927400D01*
X87536793Y-92915779D01*
X87481760Y-92892984D01*
X87432228Y-92859887D01*
X87390113Y-92817772D01*
X87357016Y-92768240D01*
X87334221Y-92713207D01*
X87322600Y-92654784D01*
X87322600Y-92595216D01*
X87334221Y-92536793D01*
X87357016Y-92481760D01*
X87390113Y-92432228D01*
X87432228Y-92390113D01*
X87481760Y-92357016D01*
X87536793Y-92334221D01*
X87595216Y-92322600D01*
X87654784Y-92322600D01*
X87713207Y-92334221D01*
X87713207Y-92334221D01*
G37*
G36*
X84963207Y-92334221D02*
X85018240Y-92357016D01*
X85067772Y-92390113D01*
X85109887Y-92432228D01*
X85142984Y-92481760D01*
X85165779Y-92536793D01*
X85177400Y-92595216D01*
X85177400Y-92654784D01*
X85165779Y-92713207D01*
X85142984Y-92768240D01*
X85109887Y-92817772D01*
X85067772Y-92859887D01*
X85018240Y-92892984D01*
X84963207Y-92915779D01*
X84904784Y-92927400D01*
X84845216Y-92927400D01*
X84786793Y-92915779D01*
X84731760Y-92892984D01*
X84682228Y-92859887D01*
X84640113Y-92817772D01*
X84607016Y-92768240D01*
X84584221Y-92713207D01*
X84572600Y-92654784D01*
X84572600Y-92595216D01*
X84584221Y-92536793D01*
X84607016Y-92481760D01*
X84640113Y-92432228D01*
X84682228Y-92390113D01*
X84731760Y-92357016D01*
X84786793Y-92334221D01*
X84845216Y-92322600D01*
X84904784Y-92322600D01*
X84963207Y-92334221D01*
X84963207Y-92334221D01*
G37*
G36*
X79463207Y-92334221D02*
X79518240Y-92357016D01*
X79567772Y-92390113D01*
X79609887Y-92432228D01*
X79642984Y-92481760D01*
X79665779Y-92536793D01*
X79677400Y-92595216D01*
X79677400Y-92654784D01*
X79665779Y-92713207D01*
X79642984Y-92768240D01*
X79609887Y-92817772D01*
X79567772Y-92859887D01*
X79518240Y-92892984D01*
X79463207Y-92915779D01*
X79404784Y-92927400D01*
X79345216Y-92927400D01*
X79286793Y-92915779D01*
X79231760Y-92892984D01*
X79182228Y-92859887D01*
X79140113Y-92817772D01*
X79107016Y-92768240D01*
X79084221Y-92713207D01*
X79072600Y-92654784D01*
X79072600Y-92595216D01*
X79084221Y-92536793D01*
X79107016Y-92481760D01*
X79140113Y-92432228D01*
X79182228Y-92390113D01*
X79231760Y-92357016D01*
X79286793Y-92334221D01*
X79345216Y-92322600D01*
X79404784Y-92322600D01*
X79463207Y-92334221D01*
X79463207Y-92334221D01*
G37*
G36*
X76713207Y-92334221D02*
X76768240Y-92357016D01*
X76817772Y-92390113D01*
X76859887Y-92432228D01*
X76892984Y-92481760D01*
X76915779Y-92536793D01*
X76927400Y-92595216D01*
X76927400Y-92654784D01*
X76915779Y-92713207D01*
X76892984Y-92768240D01*
X76859887Y-92817772D01*
X76817772Y-92859887D01*
X76768240Y-92892984D01*
X76713207Y-92915779D01*
X76654784Y-92927400D01*
X76595216Y-92927400D01*
X76536793Y-92915779D01*
X76481760Y-92892984D01*
X76432228Y-92859887D01*
X76390113Y-92817772D01*
X76357016Y-92768240D01*
X76334221Y-92713207D01*
X76322600Y-92654784D01*
X76322600Y-92595216D01*
X76334221Y-92536793D01*
X76357016Y-92481760D01*
X76390113Y-92432228D01*
X76432228Y-92390113D01*
X76481760Y-92357016D01*
X76536793Y-92334221D01*
X76595216Y-92322600D01*
X76654784Y-92322600D01*
X76713207Y-92334221D01*
X76713207Y-92334221D01*
G37*
G36*
X72588207Y-92334221D02*
X72643240Y-92357016D01*
X72692772Y-92390113D01*
X72734887Y-92432228D01*
X72767984Y-92481760D01*
X72790779Y-92536793D01*
X72802400Y-92595216D01*
X72802400Y-92654784D01*
X72790779Y-92713207D01*
X72767984Y-92768240D01*
X72734887Y-92817772D01*
X72692772Y-92859887D01*
X72643240Y-92892984D01*
X72588207Y-92915779D01*
X72529784Y-92927400D01*
X72470216Y-92927400D01*
X72411793Y-92915779D01*
X72356760Y-92892984D01*
X72307228Y-92859887D01*
X72265113Y-92817772D01*
X72232016Y-92768240D01*
X72209221Y-92713207D01*
X72197600Y-92654784D01*
X72197600Y-92595216D01*
X72209221Y-92536793D01*
X72232016Y-92481760D01*
X72265113Y-92432228D01*
X72307228Y-92390113D01*
X72356760Y-92357016D01*
X72411793Y-92334221D01*
X72470216Y-92322600D01*
X72529784Y-92322600D01*
X72588207Y-92334221D01*
X72588207Y-92334221D01*
G37*
G36*
X115213207Y-92334221D02*
X115268240Y-92357016D01*
X115317772Y-92390113D01*
X115359887Y-92432228D01*
X115392984Y-92481760D01*
X115415779Y-92536793D01*
X115427400Y-92595216D01*
X115427400Y-92654784D01*
X115415779Y-92713207D01*
X115392984Y-92768240D01*
X115359887Y-92817772D01*
X115317772Y-92859887D01*
X115268240Y-92892984D01*
X115213207Y-92915779D01*
X115154784Y-92927400D01*
X115095216Y-92927400D01*
X115036793Y-92915779D01*
X114981760Y-92892984D01*
X114932228Y-92859887D01*
X114890113Y-92817772D01*
X114857016Y-92768240D01*
X114834221Y-92713207D01*
X114822600Y-92654784D01*
X114822600Y-92595216D01*
X114834221Y-92536793D01*
X114857016Y-92481760D01*
X114890113Y-92432228D01*
X114932228Y-92390113D01*
X114981760Y-92357016D01*
X115036793Y-92334221D01*
X115095216Y-92322600D01*
X115154784Y-92322600D01*
X115213207Y-92334221D01*
X115213207Y-92334221D01*
G37*
G36*
X117963207Y-92334221D02*
X118018240Y-92357016D01*
X118067772Y-92390113D01*
X118109887Y-92432228D01*
X118142984Y-92481760D01*
X118165779Y-92536793D01*
X118177400Y-92595216D01*
X118177400Y-92654784D01*
X118165779Y-92713207D01*
X118142984Y-92768240D01*
X118109887Y-92817772D01*
X118067772Y-92859887D01*
X118018240Y-92892984D01*
X117963207Y-92915779D01*
X117904784Y-92927400D01*
X117845216Y-92927400D01*
X117786793Y-92915779D01*
X117731760Y-92892984D01*
X117682228Y-92859887D01*
X117640113Y-92817772D01*
X117607016Y-92768240D01*
X117584221Y-92713207D01*
X117572600Y-92654784D01*
X117572600Y-92595216D01*
X117584221Y-92536793D01*
X117607016Y-92481760D01*
X117640113Y-92432228D01*
X117682228Y-92390113D01*
X117731760Y-92357016D01*
X117786793Y-92334221D01*
X117845216Y-92322600D01*
X117904784Y-92322600D01*
X117963207Y-92334221D01*
X117963207Y-92334221D01*
G37*
G36*
X98713207Y-92334221D02*
X98768240Y-92357016D01*
X98817772Y-92390113D01*
X98859887Y-92432228D01*
X98892984Y-92481760D01*
X98915779Y-92536793D01*
X98927400Y-92595216D01*
X98927400Y-92654784D01*
X98915779Y-92713207D01*
X98892984Y-92768240D01*
X98859887Y-92817772D01*
X98817772Y-92859887D01*
X98768240Y-92892984D01*
X98713207Y-92915779D01*
X98654784Y-92927400D01*
X98595216Y-92927400D01*
X98536793Y-92915779D01*
X98481760Y-92892984D01*
X98432228Y-92859887D01*
X98390113Y-92817772D01*
X98357016Y-92768240D01*
X98334221Y-92713207D01*
X98322600Y-92654784D01*
X98322600Y-92595216D01*
X98334221Y-92536793D01*
X98357016Y-92481760D01*
X98390113Y-92432228D01*
X98432228Y-92390113D01*
X98481760Y-92357016D01*
X98536793Y-92334221D01*
X98595216Y-92322600D01*
X98654784Y-92322600D01*
X98713207Y-92334221D01*
X98713207Y-92334221D01*
G37*
G36*
X95963207Y-92334221D02*
X96018240Y-92357016D01*
X96067772Y-92390113D01*
X96109887Y-92432228D01*
X96142984Y-92481760D01*
X96165779Y-92536793D01*
X96177400Y-92595216D01*
X96177400Y-92654784D01*
X96165779Y-92713207D01*
X96142984Y-92768240D01*
X96109887Y-92817772D01*
X96067772Y-92859887D01*
X96018240Y-92892984D01*
X95963207Y-92915779D01*
X95904784Y-92927400D01*
X95845216Y-92927400D01*
X95786793Y-92915779D01*
X95731760Y-92892984D01*
X95682228Y-92859887D01*
X95640113Y-92817772D01*
X95607016Y-92768240D01*
X95584221Y-92713207D01*
X95572600Y-92654784D01*
X95572600Y-92595216D01*
X95584221Y-92536793D01*
X95607016Y-92481760D01*
X95640113Y-92432228D01*
X95682228Y-92390113D01*
X95731760Y-92357016D01*
X95786793Y-92334221D01*
X95845216Y-92322600D01*
X95904784Y-92322600D01*
X95963207Y-92334221D01*
X95963207Y-92334221D01*
G37*
G36*
X112463207Y-92334221D02*
X112518240Y-92357016D01*
X112567772Y-92390113D01*
X112609887Y-92432228D01*
X112642984Y-92481760D01*
X112665779Y-92536793D01*
X112677400Y-92595216D01*
X112677400Y-92654784D01*
X112665779Y-92713207D01*
X112642984Y-92768240D01*
X112609887Y-92817772D01*
X112567772Y-92859887D01*
X112518240Y-92892984D01*
X112463207Y-92915779D01*
X112404784Y-92927400D01*
X112345216Y-92927400D01*
X112286793Y-92915779D01*
X112231760Y-92892984D01*
X112182228Y-92859887D01*
X112140113Y-92817772D01*
X112107016Y-92768240D01*
X112084221Y-92713207D01*
X112072600Y-92654784D01*
X112072600Y-92595216D01*
X112084221Y-92536793D01*
X112107016Y-92481760D01*
X112140113Y-92432228D01*
X112182228Y-92390113D01*
X112231760Y-92357016D01*
X112286793Y-92334221D01*
X112345216Y-92322600D01*
X112404784Y-92322600D01*
X112463207Y-92334221D01*
X112463207Y-92334221D01*
G37*
G36*
X120713207Y-92334221D02*
X120768240Y-92357016D01*
X120817772Y-92390113D01*
X120859887Y-92432228D01*
X120892984Y-92481760D01*
X120915779Y-92536793D01*
X120927400Y-92595216D01*
X120927400Y-92654784D01*
X120915779Y-92713207D01*
X120892984Y-92768240D01*
X120859887Y-92817772D01*
X120817772Y-92859887D01*
X120768240Y-92892984D01*
X120713207Y-92915779D01*
X120654784Y-92927400D01*
X120595216Y-92927400D01*
X120536793Y-92915779D01*
X120481760Y-92892984D01*
X120432228Y-92859887D01*
X120390113Y-92817772D01*
X120357016Y-92768240D01*
X120334221Y-92713207D01*
X120322600Y-92654784D01*
X120322600Y-92595216D01*
X120334221Y-92536793D01*
X120357016Y-92481760D01*
X120390113Y-92432228D01*
X120432228Y-92390113D01*
X120481760Y-92357016D01*
X120536793Y-92334221D01*
X120595216Y-92322600D01*
X120654784Y-92322600D01*
X120713207Y-92334221D01*
X120713207Y-92334221D01*
G37*
G36*
X101463207Y-92334221D02*
X101518240Y-92357016D01*
X101567772Y-92390113D01*
X101609887Y-92432228D01*
X101642984Y-92481760D01*
X101665779Y-92536793D01*
X101677400Y-92595216D01*
X101677400Y-92654784D01*
X101665779Y-92713207D01*
X101642984Y-92768240D01*
X101609887Y-92817772D01*
X101567772Y-92859887D01*
X101518240Y-92892984D01*
X101463207Y-92915779D01*
X101404784Y-92927400D01*
X101345216Y-92927400D01*
X101286793Y-92915779D01*
X101231760Y-92892984D01*
X101182228Y-92859887D01*
X101140113Y-92817772D01*
X101107016Y-92768240D01*
X101084221Y-92713207D01*
X101072600Y-92654784D01*
X101072600Y-92595216D01*
X101084221Y-92536793D01*
X101107016Y-92481760D01*
X101140113Y-92432228D01*
X101182228Y-92390113D01*
X101231760Y-92357016D01*
X101286793Y-92334221D01*
X101345216Y-92322600D01*
X101404784Y-92322600D01*
X101463207Y-92334221D01*
X101463207Y-92334221D01*
G37*
G36*
X104213207Y-92334221D02*
X104268240Y-92357016D01*
X104317772Y-92390113D01*
X104359887Y-92432228D01*
X104392984Y-92481760D01*
X104415779Y-92536793D01*
X104427400Y-92595216D01*
X104427400Y-92654784D01*
X104415779Y-92713207D01*
X104392984Y-92768240D01*
X104359887Y-92817772D01*
X104317772Y-92859887D01*
X104268240Y-92892984D01*
X104213207Y-92915779D01*
X104154784Y-92927400D01*
X104095216Y-92927400D01*
X104036793Y-92915779D01*
X103981760Y-92892984D01*
X103932228Y-92859887D01*
X103890113Y-92817772D01*
X103857016Y-92768240D01*
X103834221Y-92713207D01*
X103822600Y-92654784D01*
X103822600Y-92595216D01*
X103834221Y-92536793D01*
X103857016Y-92481760D01*
X103890113Y-92432228D01*
X103932228Y-92390113D01*
X103981760Y-92357016D01*
X104036793Y-92334221D01*
X104095216Y-92322600D01*
X104154784Y-92322600D01*
X104213207Y-92334221D01*
X104213207Y-92334221D01*
G37*
G36*
X106963207Y-92334221D02*
X107018240Y-92357016D01*
X107067772Y-92390113D01*
X107109887Y-92432228D01*
X107142984Y-92481760D01*
X107165779Y-92536793D01*
X107177400Y-92595216D01*
X107177400Y-92654784D01*
X107165779Y-92713207D01*
X107142984Y-92768240D01*
X107109887Y-92817772D01*
X107067772Y-92859887D01*
X107018240Y-92892984D01*
X106963207Y-92915779D01*
X106904784Y-92927400D01*
X106845216Y-92927400D01*
X106786793Y-92915779D01*
X106731760Y-92892984D01*
X106682228Y-92859887D01*
X106640113Y-92817772D01*
X106607016Y-92768240D01*
X106584221Y-92713207D01*
X106572600Y-92654784D01*
X106572600Y-92595216D01*
X106584221Y-92536793D01*
X106607016Y-92481760D01*
X106640113Y-92432228D01*
X106682228Y-92390113D01*
X106731760Y-92357016D01*
X106786793Y-92334221D01*
X106845216Y-92322600D01*
X106904784Y-92322600D01*
X106963207Y-92334221D01*
X106963207Y-92334221D01*
G37*
G36*
X123463207Y-92334221D02*
X123518240Y-92357016D01*
X123567772Y-92390113D01*
X123609887Y-92432228D01*
X123642984Y-92481760D01*
X123665779Y-92536793D01*
X123677400Y-92595216D01*
X123677400Y-92654784D01*
X123665779Y-92713207D01*
X123642984Y-92768240D01*
X123609887Y-92817772D01*
X123567772Y-92859887D01*
X123518240Y-92892984D01*
X123463207Y-92915779D01*
X123404784Y-92927400D01*
X123345216Y-92927400D01*
X123286793Y-92915779D01*
X123231760Y-92892984D01*
X123182228Y-92859887D01*
X123140113Y-92817772D01*
X123107016Y-92768240D01*
X123084221Y-92713207D01*
X123072600Y-92654784D01*
X123072600Y-92595216D01*
X123084221Y-92536793D01*
X123107016Y-92481760D01*
X123140113Y-92432228D01*
X123182228Y-92390113D01*
X123231760Y-92357016D01*
X123286793Y-92334221D01*
X123345216Y-92322600D01*
X123404784Y-92322600D01*
X123463207Y-92334221D01*
X123463207Y-92334221D01*
G37*
G36*
X109713207Y-92334221D02*
X109768240Y-92357016D01*
X109817772Y-92390113D01*
X109859887Y-92432228D01*
X109892984Y-92481760D01*
X109915779Y-92536793D01*
X109927400Y-92595216D01*
X109927400Y-92654784D01*
X109915779Y-92713207D01*
X109892984Y-92768240D01*
X109859887Y-92817772D01*
X109817772Y-92859887D01*
X109768240Y-92892984D01*
X109713207Y-92915779D01*
X109654784Y-92927400D01*
X109595216Y-92927400D01*
X109536793Y-92915779D01*
X109481760Y-92892984D01*
X109432228Y-92859887D01*
X109390113Y-92817772D01*
X109357016Y-92768240D01*
X109334221Y-92713207D01*
X109322600Y-92654784D01*
X109322600Y-92595216D01*
X109334221Y-92536793D01*
X109357016Y-92481760D01*
X109390113Y-92432228D01*
X109432228Y-92390113D01*
X109481760Y-92357016D01*
X109536793Y-92334221D01*
X109595216Y-92322600D01*
X109654784Y-92322600D01*
X109713207Y-92334221D01*
X109713207Y-92334221D01*
G37*
G36*
X127588207Y-92334221D02*
X127643240Y-92357016D01*
X127692772Y-92390113D01*
X127734887Y-92432228D01*
X127767984Y-92481760D01*
X127790779Y-92536793D01*
X127802400Y-92595216D01*
X127802400Y-92654784D01*
X127790779Y-92713207D01*
X127767984Y-92768240D01*
X127734887Y-92817772D01*
X127692772Y-92859887D01*
X127643240Y-92892984D01*
X127588207Y-92915779D01*
X127529784Y-92927400D01*
X127470216Y-92927400D01*
X127411793Y-92915779D01*
X127356760Y-92892984D01*
X127307228Y-92859887D01*
X127265113Y-92817772D01*
X127232016Y-92768240D01*
X127209221Y-92713207D01*
X127197600Y-92654784D01*
X127197600Y-92595216D01*
X127209221Y-92536793D01*
X127232016Y-92481760D01*
X127265113Y-92432228D01*
X127307228Y-92390113D01*
X127356760Y-92357016D01*
X127411793Y-92334221D01*
X127470216Y-92322600D01*
X127529784Y-92322600D01*
X127588207Y-92334221D01*
X127588207Y-92334221D01*
G37*
G36*
X117963207Y-89584221D02*
X118018240Y-89607016D01*
X118067772Y-89640113D01*
X118109887Y-89682228D01*
X118142984Y-89731760D01*
X118165779Y-89786793D01*
X118177400Y-89845216D01*
X118177400Y-89904784D01*
X118165779Y-89963207D01*
X118142984Y-90018240D01*
X118109887Y-90067772D01*
X118067772Y-90109887D01*
X118018240Y-90142984D01*
X117963207Y-90165779D01*
X117904784Y-90177400D01*
X117845216Y-90177400D01*
X117786793Y-90165779D01*
X117731760Y-90142984D01*
X117682228Y-90109887D01*
X117640113Y-90067772D01*
X117607016Y-90018240D01*
X117584221Y-89963207D01*
X117572600Y-89904784D01*
X117572600Y-89845216D01*
X117584221Y-89786793D01*
X117607016Y-89731760D01*
X117640113Y-89682228D01*
X117682228Y-89640113D01*
X117731760Y-89607016D01*
X117786793Y-89584221D01*
X117845216Y-89572600D01*
X117904784Y-89572600D01*
X117963207Y-89584221D01*
X117963207Y-89584221D01*
G37*
G36*
X115213207Y-89584221D02*
X115268240Y-89607016D01*
X115317772Y-89640113D01*
X115359887Y-89682228D01*
X115392984Y-89731760D01*
X115415779Y-89786793D01*
X115427400Y-89845216D01*
X115427400Y-89904784D01*
X115415779Y-89963207D01*
X115392984Y-90018240D01*
X115359887Y-90067772D01*
X115317772Y-90109887D01*
X115268240Y-90142984D01*
X115213207Y-90165779D01*
X115154784Y-90177400D01*
X115095216Y-90177400D01*
X115036793Y-90165779D01*
X114981760Y-90142984D01*
X114932228Y-90109887D01*
X114890113Y-90067772D01*
X114857016Y-90018240D01*
X114834221Y-89963207D01*
X114822600Y-89904784D01*
X114822600Y-89845216D01*
X114834221Y-89786793D01*
X114857016Y-89731760D01*
X114890113Y-89682228D01*
X114932228Y-89640113D01*
X114981760Y-89607016D01*
X115036793Y-89584221D01*
X115095216Y-89572600D01*
X115154784Y-89572600D01*
X115213207Y-89584221D01*
X115213207Y-89584221D01*
G37*
G36*
X101463207Y-89584221D02*
X101518240Y-89607016D01*
X101567772Y-89640113D01*
X101609887Y-89682228D01*
X101642984Y-89731760D01*
X101665779Y-89786793D01*
X101677400Y-89845216D01*
X101677400Y-89904784D01*
X101665779Y-89963207D01*
X101642984Y-90018240D01*
X101609887Y-90067772D01*
X101567772Y-90109887D01*
X101518240Y-90142984D01*
X101463207Y-90165779D01*
X101404784Y-90177400D01*
X101345216Y-90177400D01*
X101286793Y-90165779D01*
X101231760Y-90142984D01*
X101182228Y-90109887D01*
X101140113Y-90067772D01*
X101107016Y-90018240D01*
X101084221Y-89963207D01*
X101072600Y-89904784D01*
X101072600Y-89845216D01*
X101084221Y-89786793D01*
X101107016Y-89731760D01*
X101140113Y-89682228D01*
X101182228Y-89640113D01*
X101231760Y-89607016D01*
X101286793Y-89584221D01*
X101345216Y-89572600D01*
X101404784Y-89572600D01*
X101463207Y-89584221D01*
X101463207Y-89584221D01*
G37*
G36*
X104213207Y-89584221D02*
X104268240Y-89607016D01*
X104317772Y-89640113D01*
X104359887Y-89682228D01*
X104392984Y-89731760D01*
X104415779Y-89786793D01*
X104427400Y-89845216D01*
X104427400Y-89904784D01*
X104415779Y-89963207D01*
X104392984Y-90018240D01*
X104359887Y-90067772D01*
X104317772Y-90109887D01*
X104268240Y-90142984D01*
X104213207Y-90165779D01*
X104154784Y-90177400D01*
X104095216Y-90177400D01*
X104036793Y-90165779D01*
X103981760Y-90142984D01*
X103932228Y-90109887D01*
X103890113Y-90067772D01*
X103857016Y-90018240D01*
X103834221Y-89963207D01*
X103822600Y-89904784D01*
X103822600Y-89845216D01*
X103834221Y-89786793D01*
X103857016Y-89731760D01*
X103890113Y-89682228D01*
X103932228Y-89640113D01*
X103981760Y-89607016D01*
X104036793Y-89584221D01*
X104095216Y-89572600D01*
X104154784Y-89572600D01*
X104213207Y-89584221D01*
X104213207Y-89584221D01*
G37*
G36*
X106963207Y-89584221D02*
X107018240Y-89607016D01*
X107067772Y-89640113D01*
X107109887Y-89682228D01*
X107142984Y-89731760D01*
X107165779Y-89786793D01*
X107177400Y-89845216D01*
X107177400Y-89904784D01*
X107165779Y-89963207D01*
X107142984Y-90018240D01*
X107109887Y-90067772D01*
X107067772Y-90109887D01*
X107018240Y-90142984D01*
X106963207Y-90165779D01*
X106904784Y-90177400D01*
X106845216Y-90177400D01*
X106786793Y-90165779D01*
X106731760Y-90142984D01*
X106682228Y-90109887D01*
X106640113Y-90067772D01*
X106607016Y-90018240D01*
X106584221Y-89963207D01*
X106572600Y-89904784D01*
X106572600Y-89845216D01*
X106584221Y-89786793D01*
X106607016Y-89731760D01*
X106640113Y-89682228D01*
X106682228Y-89640113D01*
X106731760Y-89607016D01*
X106786793Y-89584221D01*
X106845216Y-89572600D01*
X106904784Y-89572600D01*
X106963207Y-89584221D01*
X106963207Y-89584221D01*
G37*
G36*
X109713207Y-89584221D02*
X109768240Y-89607016D01*
X109817772Y-89640113D01*
X109859887Y-89682228D01*
X109892984Y-89731760D01*
X109915779Y-89786793D01*
X109927400Y-89845216D01*
X109927400Y-89904784D01*
X109915779Y-89963207D01*
X109892984Y-90018240D01*
X109859887Y-90067772D01*
X109817772Y-90109887D01*
X109768240Y-90142984D01*
X109713207Y-90165779D01*
X109654784Y-90177400D01*
X109595216Y-90177400D01*
X109536793Y-90165779D01*
X109481760Y-90142984D01*
X109432228Y-90109887D01*
X109390113Y-90067772D01*
X109357016Y-90018240D01*
X109334221Y-89963207D01*
X109322600Y-89904784D01*
X109322600Y-89845216D01*
X109334221Y-89786793D01*
X109357016Y-89731760D01*
X109390113Y-89682228D01*
X109432228Y-89640113D01*
X109481760Y-89607016D01*
X109536793Y-89584221D01*
X109595216Y-89572600D01*
X109654784Y-89572600D01*
X109713207Y-89584221D01*
X109713207Y-89584221D01*
G37*
G36*
X122088207Y-89584221D02*
X122143240Y-89607016D01*
X122192772Y-89640113D01*
X122234887Y-89682228D01*
X122267984Y-89731760D01*
X122290779Y-89786793D01*
X122302400Y-89845216D01*
X122302400Y-89904784D01*
X122290779Y-89963207D01*
X122267984Y-90018240D01*
X122234887Y-90067772D01*
X122192772Y-90109887D01*
X122143240Y-90142984D01*
X122088207Y-90165779D01*
X122029784Y-90177400D01*
X121970216Y-90177400D01*
X121911793Y-90165779D01*
X121856760Y-90142984D01*
X121807228Y-90109887D01*
X121765113Y-90067772D01*
X121732016Y-90018240D01*
X121709221Y-89963207D01*
X121697600Y-89904784D01*
X121697600Y-89845216D01*
X121709221Y-89786793D01*
X121732016Y-89731760D01*
X121765113Y-89682228D01*
X121807228Y-89640113D01*
X121856760Y-89607016D01*
X121911793Y-89584221D01*
X121970216Y-89572600D01*
X122029784Y-89572600D01*
X122088207Y-89584221D01*
X122088207Y-89584221D01*
G37*
G36*
X112463207Y-89584221D02*
X112518240Y-89607016D01*
X112567772Y-89640113D01*
X112609887Y-89682228D01*
X112642984Y-89731760D01*
X112665779Y-89786793D01*
X112677400Y-89845216D01*
X112677400Y-89904784D01*
X112665779Y-89963207D01*
X112642984Y-90018240D01*
X112609887Y-90067772D01*
X112567772Y-90109887D01*
X112518240Y-90142984D01*
X112463207Y-90165779D01*
X112404784Y-90177400D01*
X112345216Y-90177400D01*
X112286793Y-90165779D01*
X112231760Y-90142984D01*
X112182228Y-90109887D01*
X112140113Y-90067772D01*
X112107016Y-90018240D01*
X112084221Y-89963207D01*
X112072600Y-89904784D01*
X112072600Y-89845216D01*
X112084221Y-89786793D01*
X112107016Y-89731760D01*
X112140113Y-89682228D01*
X112182228Y-89640113D01*
X112231760Y-89607016D01*
X112286793Y-89584221D01*
X112345216Y-89572600D01*
X112404784Y-89572600D01*
X112463207Y-89584221D01*
X112463207Y-89584221D01*
G37*
G36*
X98713207Y-89584221D02*
X98768240Y-89607016D01*
X98817772Y-89640113D01*
X98859887Y-89682228D01*
X98892984Y-89731760D01*
X98915779Y-89786793D01*
X98927400Y-89845216D01*
X98927400Y-89904784D01*
X98915779Y-89963207D01*
X98892984Y-90018240D01*
X98859887Y-90067772D01*
X98817772Y-90109887D01*
X98768240Y-90142984D01*
X98713207Y-90165779D01*
X98654784Y-90177400D01*
X98595216Y-90177400D01*
X98536793Y-90165779D01*
X98481760Y-90142984D01*
X98432228Y-90109887D01*
X98390113Y-90067772D01*
X98357016Y-90018240D01*
X98334221Y-89963207D01*
X98322600Y-89904784D01*
X98322600Y-89845216D01*
X98334221Y-89786793D01*
X98357016Y-89731760D01*
X98390113Y-89682228D01*
X98432228Y-89640113D01*
X98481760Y-89607016D01*
X98536793Y-89584221D01*
X98595216Y-89572600D01*
X98654784Y-89572600D01*
X98713207Y-89584221D01*
X98713207Y-89584221D01*
G37*
G36*
X95963207Y-89584221D02*
X96018240Y-89607016D01*
X96067772Y-89640113D01*
X96109887Y-89682228D01*
X96142984Y-89731760D01*
X96165779Y-89786793D01*
X96177400Y-89845216D01*
X96177400Y-89904784D01*
X96165779Y-89963207D01*
X96142984Y-90018240D01*
X96109887Y-90067772D01*
X96067772Y-90109887D01*
X96018240Y-90142984D01*
X95963207Y-90165779D01*
X95904784Y-90177400D01*
X95845216Y-90177400D01*
X95786793Y-90165779D01*
X95731760Y-90142984D01*
X95682228Y-90109887D01*
X95640113Y-90067772D01*
X95607016Y-90018240D01*
X95584221Y-89963207D01*
X95572600Y-89904784D01*
X95572600Y-89845216D01*
X95584221Y-89786793D01*
X95607016Y-89731760D01*
X95640113Y-89682228D01*
X95682228Y-89640113D01*
X95731760Y-89607016D01*
X95786793Y-89584221D01*
X95845216Y-89572600D01*
X95904784Y-89572600D01*
X95963207Y-89584221D01*
X95963207Y-89584221D01*
G37*
G36*
X93213207Y-89584221D02*
X93268240Y-89607016D01*
X93317772Y-89640113D01*
X93359887Y-89682228D01*
X93392984Y-89731760D01*
X93415779Y-89786793D01*
X93427400Y-89845216D01*
X93427400Y-89904784D01*
X93415779Y-89963207D01*
X93392984Y-90018240D01*
X93359887Y-90067772D01*
X93317772Y-90109887D01*
X93268240Y-90142984D01*
X93213207Y-90165779D01*
X93154784Y-90177400D01*
X93095216Y-90177400D01*
X93036793Y-90165779D01*
X92981760Y-90142984D01*
X92932228Y-90109887D01*
X92890113Y-90067772D01*
X92857016Y-90018240D01*
X92834221Y-89963207D01*
X92822600Y-89904784D01*
X92822600Y-89845216D01*
X92834221Y-89786793D01*
X92857016Y-89731760D01*
X92890113Y-89682228D01*
X92932228Y-89640113D01*
X92981760Y-89607016D01*
X93036793Y-89584221D01*
X93095216Y-89572600D01*
X93154784Y-89572600D01*
X93213207Y-89584221D01*
X93213207Y-89584221D01*
G37*
G36*
X78088207Y-89584221D02*
X78143240Y-89607016D01*
X78192772Y-89640113D01*
X78234887Y-89682228D01*
X78267984Y-89731760D01*
X78290779Y-89786793D01*
X78302400Y-89845216D01*
X78302400Y-89904784D01*
X78290779Y-89963207D01*
X78267984Y-90018240D01*
X78234887Y-90067772D01*
X78192772Y-90109887D01*
X78143240Y-90142984D01*
X78088207Y-90165779D01*
X78029784Y-90177400D01*
X77970216Y-90177400D01*
X77911793Y-90165779D01*
X77856760Y-90142984D01*
X77807228Y-90109887D01*
X77765113Y-90067772D01*
X77732016Y-90018240D01*
X77709221Y-89963207D01*
X77697600Y-89904784D01*
X77697600Y-89845216D01*
X77709221Y-89786793D01*
X77732016Y-89731760D01*
X77765113Y-89682228D01*
X77807228Y-89640113D01*
X77856760Y-89607016D01*
X77911793Y-89584221D01*
X77970216Y-89572600D01*
X78029784Y-89572600D01*
X78088207Y-89584221D01*
X78088207Y-89584221D01*
G37*
G36*
X82213207Y-89584221D02*
X82268240Y-89607016D01*
X82317772Y-89640113D01*
X82359887Y-89682228D01*
X82392984Y-89731760D01*
X82415779Y-89786793D01*
X82427400Y-89845216D01*
X82427400Y-89904784D01*
X82415779Y-89963207D01*
X82392984Y-90018240D01*
X82359887Y-90067772D01*
X82317772Y-90109887D01*
X82268240Y-90142984D01*
X82213207Y-90165779D01*
X82154784Y-90177400D01*
X82095216Y-90177400D01*
X82036793Y-90165779D01*
X81981760Y-90142984D01*
X81932228Y-90109887D01*
X81890113Y-90067772D01*
X81857016Y-90018240D01*
X81834221Y-89963207D01*
X81822600Y-89904784D01*
X81822600Y-89845216D01*
X81834221Y-89786793D01*
X81857016Y-89731760D01*
X81890113Y-89682228D01*
X81932228Y-89640113D01*
X81981760Y-89607016D01*
X82036793Y-89584221D01*
X82095216Y-89572600D01*
X82154784Y-89572600D01*
X82213207Y-89584221D01*
X82213207Y-89584221D01*
G37*
G36*
X84963207Y-89584221D02*
X85018240Y-89607016D01*
X85067772Y-89640113D01*
X85109887Y-89682228D01*
X85142984Y-89731760D01*
X85165779Y-89786793D01*
X85177400Y-89845216D01*
X85177400Y-89904784D01*
X85165779Y-89963207D01*
X85142984Y-90018240D01*
X85109887Y-90067772D01*
X85067772Y-90109887D01*
X85018240Y-90142984D01*
X84963207Y-90165779D01*
X84904784Y-90177400D01*
X84845216Y-90177400D01*
X84786793Y-90165779D01*
X84731760Y-90142984D01*
X84682228Y-90109887D01*
X84640113Y-90067772D01*
X84607016Y-90018240D01*
X84584221Y-89963207D01*
X84572600Y-89904784D01*
X84572600Y-89845216D01*
X84584221Y-89786793D01*
X84607016Y-89731760D01*
X84640113Y-89682228D01*
X84682228Y-89640113D01*
X84731760Y-89607016D01*
X84786793Y-89584221D01*
X84845216Y-89572600D01*
X84904784Y-89572600D01*
X84963207Y-89584221D01*
X84963207Y-89584221D01*
G37*
G36*
X90463207Y-89584221D02*
X90518240Y-89607016D01*
X90567772Y-89640113D01*
X90609887Y-89682228D01*
X90642984Y-89731760D01*
X90665779Y-89786793D01*
X90677400Y-89845216D01*
X90677400Y-89904784D01*
X90665779Y-89963207D01*
X90642984Y-90018240D01*
X90609887Y-90067772D01*
X90567772Y-90109887D01*
X90518240Y-90142984D01*
X90463207Y-90165779D01*
X90404784Y-90177400D01*
X90345216Y-90177400D01*
X90286793Y-90165779D01*
X90231760Y-90142984D01*
X90182228Y-90109887D01*
X90140113Y-90067772D01*
X90107016Y-90018240D01*
X90084221Y-89963207D01*
X90072600Y-89904784D01*
X90072600Y-89845216D01*
X90084221Y-89786793D01*
X90107016Y-89731760D01*
X90140113Y-89682228D01*
X90182228Y-89640113D01*
X90231760Y-89607016D01*
X90286793Y-89584221D01*
X90345216Y-89572600D01*
X90404784Y-89572600D01*
X90463207Y-89584221D01*
X90463207Y-89584221D01*
G37*
G36*
X87713207Y-89584221D02*
X87768240Y-89607016D01*
X87817772Y-89640113D01*
X87859887Y-89682228D01*
X87892984Y-89731760D01*
X87915779Y-89786793D01*
X87927400Y-89845216D01*
X87927400Y-89904784D01*
X87915779Y-89963207D01*
X87892984Y-90018240D01*
X87859887Y-90067772D01*
X87817772Y-90109887D01*
X87768240Y-90142984D01*
X87713207Y-90165779D01*
X87654784Y-90177400D01*
X87595216Y-90177400D01*
X87536793Y-90165779D01*
X87481760Y-90142984D01*
X87432228Y-90109887D01*
X87390113Y-90067772D01*
X87357016Y-90018240D01*
X87334221Y-89963207D01*
X87322600Y-89904784D01*
X87322600Y-89845216D01*
X87334221Y-89786793D01*
X87357016Y-89731760D01*
X87390113Y-89682228D01*
X87432228Y-89640113D01*
X87481760Y-89607016D01*
X87536793Y-89584221D01*
X87595216Y-89572600D01*
X87654784Y-89572600D01*
X87713207Y-89584221D01*
X87713207Y-89584221D01*
G37*
M02*
