<?xml version="1.0" standalone="no"?>
 <!DOCTYPE svg PUBLIC "-//W3C//DTD SVG 1.1//EN" 
 "http://www.w3.org/Graphics/SVG/1.1/DTD/svg11.dtd"> 
<svg xmlns="http://www.w3.org/2000/svg" version="1.1" 
    width="29.7002cm" height="21.0007cm" viewBox="0 0 116930 82680 ">
<title>SVG Picture created as PCBFrame-brd.svg date 2017/01/20 08:44:08 </title>
  <desc>Picture generated by PCBNEW </desc>
<g style="fill:#000000; fill-opacity:1;stroke:#000000; stroke-opacity:1;
stroke-linecap:round; stroke-linejoin:round; "
 transform="translate(0 0) scale(1 1)">
</g>
<g style="fill:#000000; fill-opacity:0.0; 
stroke:#000000; stroke-width:-0.000393701; stroke-opacity:1; 
stroke-linecap:round; stroke-linejoin:round;">
</g>
<g style="fill:#000000; fill-opacity:0.0; 
stroke:#000000; stroke-width:39.3701; stroke-opacity:1; 
stroke-linecap:round; stroke-linejoin:round;">
</g>
<g style="fill:#000000; fill-opacity:0.0; 
stroke:#000000; stroke-width:59.0551; stroke-opacity:1; 
stroke-linecap:round; stroke-linejoin:round;">
<rect x="69685.9" y="65357.2" width="42519.7" height="12598.4" rx="0" />
</g>
<g style="fill:#000000; fill-opacity:0.0; 
stroke:#000000; stroke-width:39.3701; stroke-opacity:1; 
stroke-linecap:round; stroke-linejoin:round;">
</g>
<g style="fill:#000000; fill-opacity:0.0; 
stroke:#000000; stroke-width:59.0551; stroke-opacity:1; 
stroke-linecap:round; stroke-linejoin:round;">
<rect x="3937.01" y="3937.01" width="109056" height="74806" rx="0" />
</g>
<g style="fill:#000000; fill-opacity:0.0; 
stroke:#000000; stroke-width:39.3701; stroke-opacity:1; 
stroke-linecap:round; stroke-linejoin:round;">
</g>
<g style="fill:#000000; fill-opacity:0.0; 
stroke:#000000; stroke-width:59.0551; stroke-opacity:1; 
stroke-linecap:round; stroke-linejoin:round;">
<rect x="4724.41" y="4724.41" width="107481" height="73231.2" rx="0" />
</g>
<g style="fill:#000000; fill-opacity:0.0; 
stroke:#000000; stroke-width:39.3701; stroke-opacity:1; 
stroke-linecap:round; stroke-linejoin:round;">
</g>
<g style="fill:#000000; fill-opacity:0.0; 
stroke:#000000; stroke-width:59.0551; stroke-opacity:1; 
stroke-linecap:round; stroke-linejoin:round;">
<path d="M23622 4724
L23622 3937
" />
</g>
<g style="fill:#000000; fill-opacity:0.0; 
stroke:#000000; stroke-width:39.3701; stroke-opacity:1; 
stroke-linecap:round; stroke-linejoin:round;">
</g>
<g style="fill:#000000; fill-opacity:0.0; 
stroke:#000000; stroke-width:59.0551; stroke-opacity:1; 
stroke-linecap:round; stroke-linejoin:round;">
<path d="M43307 4724
L43307 3937
" />
</g>
<g style="fill:#000000; fill-opacity:0.0; 
stroke:#000000; stroke-width:39.3701; stroke-opacity:1; 
stroke-linecap:round; stroke-linejoin:round;">
</g>
<g style="fill:#000000; fill-opacity:0.0; 
stroke:#000000; stroke-width:59.0551; stroke-opacity:1; 
stroke-linecap:round; stroke-linejoin:round;">
<path d="M62992 4724
L62992 3937
" />
</g>
<g style="fill:#000000; fill-opacity:0.0; 
stroke:#000000; stroke-width:39.3701; stroke-opacity:1; 
stroke-linecap:round; stroke-linejoin:round;">
</g>
<g style="fill:#000000; fill-opacity:0.0; 
stroke:#000000; stroke-width:59.0551; stroke-opacity:1; 
stroke-linecap:round; stroke-linejoin:round;">
<path d="M82677 4724
L82677 3937
" />
</g>
<g style="fill:#000000; fill-opacity:0.0; 
stroke:#000000; stroke-width:39.3701; stroke-opacity:1; 
stroke-linecap:round; stroke-linejoin:round;">
</g>
<g style="fill:#000000; fill-opacity:0.0; 
stroke:#000000; stroke-width:59.0551; stroke-opacity:1; 
stroke-linecap:round; stroke-linejoin:round;">
<path d="M102362 4724
L102362 3937
" />
</g>
<g style="fill:#000000; fill-opacity:0.0; 
stroke:#000000; stroke-width:39.3701; stroke-opacity:1; 
stroke-linecap:round; stroke-linejoin:round;">
</g>
<g style="fill:#000000; fill-opacity:0.0; 
stroke:#000000; stroke-width:59.0551; stroke-opacity:1; 
stroke-linecap:round; stroke-linejoin:round;">
<path d="M14199 4562
L13906 4562
" />
<path d="M14052 4562
L14052 4050
L14004 4123
L13955 4172
L13906 4196
" />
</g>
<g style="fill:#000000; fill-opacity:0.0; 
stroke:#000000; stroke-width:39.3701; stroke-opacity:1; 
stroke-linecap:round; stroke-linejoin:round;">
</g>
<g style="fill:#000000; fill-opacity:0.0; 
stroke:#000000; stroke-width:59.0551; stroke-opacity:1; 
stroke-linecap:round; stroke-linejoin:round;">
<path d="M33591 4099
L33615 4074
L33664 4050
L33786 4050
L33835 4074
L33859 4099
L33884 4147
L33884 4196
L33859 4269
L33567 4562
L33884 4562
" />
</g>
<g style="fill:#000000; fill-opacity:0.0; 
stroke:#000000; stroke-width:39.3701; stroke-opacity:1; 
stroke-linecap:round; stroke-linejoin:round;">
</g>
<g style="fill:#000000; fill-opacity:0.0; 
stroke:#000000; stroke-width:59.0551; stroke-opacity:1; 
stroke-linecap:round; stroke-linejoin:round;">
<path d="M53252 4050
L53569 4050
L53398 4245
L53471 4245
L53520 4269
L53544 4294
L53569 4342
L53569 4464
L53544 4513
L53520 4537
L53471 4562
L53325 4562
L53276 4537
L53252 4513
" />
</g>
<g style="fill:#000000; fill-opacity:0.0; 
stroke:#000000; stroke-width:39.3701; stroke-opacity:1; 
stroke-linecap:round; stroke-linejoin:round;">
</g>
<g style="fill:#000000; fill-opacity:0.0; 
stroke:#000000; stroke-width:59.0551; stroke-opacity:1; 
stroke-linecap:round; stroke-linejoin:round;">
<path d="M73205 4221
L73205 4562
" />
<path d="M73083 4026
L72961 4391
L73278 4391
" />
</g>
<g style="fill:#000000; fill-opacity:0.0; 
stroke:#000000; stroke-width:39.3701; stroke-opacity:1; 
stroke-linecap:round; stroke-linejoin:round;">
</g>
<g style="fill:#000000; fill-opacity:0.0; 
stroke:#000000; stroke-width:59.0551; stroke-opacity:1; 
stroke-linecap:round; stroke-linejoin:round;">
<path d="M92914 4050
L92671 4050
L92646 4294
L92671 4269
L92719 4245
L92841 4245
L92890 4269
L92914 4294
L92939 4342
L92939 4464
L92914 4513
L92890 4537
L92841 4562
L92719 4562
L92671 4537
L92646 4513
" />
</g>
<g style="fill:#000000; fill-opacity:0.0; 
stroke:#000000; stroke-width:39.3701; stroke-opacity:1; 
stroke-linecap:round; stroke-linejoin:round;">
</g>
<g style="fill:#000000; fill-opacity:0.0; 
stroke:#000000; stroke-width:59.0551; stroke-opacity:1; 
stroke-linecap:round; stroke-linejoin:round;">
<path d="M112575 4050
L112477 4050
L112429 4074
L112404 4099
L112356 4172
L112331 4269
L112331 4464
L112356 4513
L112380 4537
L112429 4562
L112526 4562
L112575 4537
L112599 4513
L112624 4464
L112624 4342
L112599 4294
L112575 4269
L112526 4245
L112429 4245
L112380 4269
L112356 4294
L112331 4342
" />
</g>
<g style="fill:#000000; fill-opacity:0.0; 
stroke:#000000; stroke-width:39.3701; stroke-opacity:1; 
stroke-linecap:round; stroke-linejoin:round;">
</g>
<g style="fill:#000000; fill-opacity:0.0; 
stroke:#000000; stroke-width:59.0551; stroke-opacity:1; 
stroke-linecap:round; stroke-linejoin:round;">
<path d="M23622 77955
L23622 78742
" />
</g>
<g style="fill:#000000; fill-opacity:0.0; 
stroke:#000000; stroke-width:39.3701; stroke-opacity:1; 
stroke-linecap:round; stroke-linejoin:round;">
</g>
<g style="fill:#000000; fill-opacity:0.0; 
stroke:#000000; stroke-width:59.0551; stroke-opacity:1; 
stroke-linecap:round; stroke-linejoin:round;">
<path d="M43307 77955
L43307 78742
" />
</g>
<g style="fill:#000000; fill-opacity:0.0; 
stroke:#000000; stroke-width:39.3701; stroke-opacity:1; 
stroke-linecap:round; stroke-linejoin:round;">
</g>
<g style="fill:#000000; fill-opacity:0.0; 
stroke:#000000; stroke-width:59.0551; stroke-opacity:1; 
stroke-linecap:round; stroke-linejoin:round;">
<path d="M62992 77955
L62992 78742
" />
</g>
<g style="fill:#000000; fill-opacity:0.0; 
stroke:#000000; stroke-width:39.3701; stroke-opacity:1; 
stroke-linecap:round; stroke-linejoin:round;">
</g>
<g style="fill:#000000; fill-opacity:0.0; 
stroke:#000000; stroke-width:59.0551; stroke-opacity:1; 
stroke-linecap:round; stroke-linejoin:round;">
<path d="M82677 77955
L82677 78742
" />
</g>
<g style="fill:#000000; fill-opacity:0.0; 
stroke:#000000; stroke-width:39.3701; stroke-opacity:1; 
stroke-linecap:round; stroke-linejoin:round;">
</g>
<g style="fill:#000000; fill-opacity:0.0; 
stroke:#000000; stroke-width:59.0551; stroke-opacity:1; 
stroke-linecap:round; stroke-linejoin:round;">
<path d="M102362 77955
L102362 78742
" />
</g>
<g style="fill:#000000; fill-opacity:0.0; 
stroke:#000000; stroke-width:39.3701; stroke-opacity:1; 
stroke-linecap:round; stroke-linejoin:round;">
</g>
<g style="fill:#000000; fill-opacity:0.0; 
stroke:#000000; stroke-width:59.0551; stroke-opacity:1; 
stroke-linecap:round; stroke-linejoin:round;">
<path d="M14199 78580
L13906 78580
" />
<path d="M14052 78580
L14052 78069
L14004 78142
L13955 78190
L13906 78215
" />
</g>
<g style="fill:#000000; fill-opacity:0.0; 
stroke:#000000; stroke-width:39.3701; stroke-opacity:1; 
stroke-linecap:round; stroke-linejoin:round;">
</g>
<g style="fill:#000000; fill-opacity:0.0; 
stroke:#000000; stroke-width:59.0551; stroke-opacity:1; 
stroke-linecap:round; stroke-linejoin:round;">
<path d="M33591 78117
L33615 78093
L33664 78069
L33786 78069
L33835 78093
L33859 78117
L33884 78166
L33884 78215
L33859 78288
L33567 78580
L33884 78580
" />
</g>
<g style="fill:#000000; fill-opacity:0.0; 
stroke:#000000; stroke-width:39.3701; stroke-opacity:1; 
stroke-linecap:round; stroke-linejoin:round;">
</g>
<g style="fill:#000000; fill-opacity:0.0; 
stroke:#000000; stroke-width:59.0551; stroke-opacity:1; 
stroke-linecap:round; stroke-linejoin:round;">
<path d="M53252 78069
L53569 78069
L53398 78263
L53471 78263
L53520 78288
L53544 78312
L53569 78361
L53569 78483
L53544 78532
L53520 78556
L53471 78580
L53325 78580
L53276 78556
L53252 78532
" />
</g>
<g style="fill:#000000; fill-opacity:0.0; 
stroke:#000000; stroke-width:39.3701; stroke-opacity:1; 
stroke-linecap:round; stroke-linejoin:round;">
</g>
<g style="fill:#000000; fill-opacity:0.0; 
stroke:#000000; stroke-width:59.0551; stroke-opacity:1; 
stroke-linecap:round; stroke-linejoin:round;">
<path d="M73205 78239
L73205 78580
" />
<path d="M73083 78044
L72961 78410
L73278 78410
" />
</g>
<g style="fill:#000000; fill-opacity:0.0; 
stroke:#000000; stroke-width:39.3701; stroke-opacity:1; 
stroke-linecap:round; stroke-linejoin:round;">
</g>
<g style="fill:#000000; fill-opacity:0.0; 
stroke:#000000; stroke-width:59.0551; stroke-opacity:1; 
stroke-linecap:round; stroke-linejoin:round;">
<path d="M92914 78069
L92671 78069
L92646 78312
L92671 78288
L92719 78263
L92841 78263
L92890 78288
L92914 78312
L92939 78361
L92939 78483
L92914 78532
L92890 78556
L92841 78580
L92719 78580
L92671 78556
L92646 78532
" />
</g>
<g style="fill:#000000; fill-opacity:0.0; 
stroke:#000000; stroke-width:39.3701; stroke-opacity:1; 
stroke-linecap:round; stroke-linejoin:round;">
</g>
<g style="fill:#000000; fill-opacity:0.0; 
stroke:#000000; stroke-width:59.0551; stroke-opacity:1; 
stroke-linecap:round; stroke-linejoin:round;">
<path d="M112575 78069
L112477 78069
L112429 78093
L112404 78117
L112356 78190
L112331 78288
L112331 78483
L112356 78532
L112380 78556
L112429 78580
L112526 78580
L112575 78556
L112599 78532
L112624 78483
L112624 78361
L112599 78312
L112575 78288
L112526 78263
L112429 78263
L112380 78288
L112356 78312
L112331 78361
" />
</g>
<g style="fill:#000000; fill-opacity:0.0; 
stroke:#000000; stroke-width:39.3701; stroke-opacity:1; 
stroke-linecap:round; stroke-linejoin:round;">
</g>
<g style="fill:#000000; fill-opacity:0.0; 
stroke:#000000; stroke-width:59.0551; stroke-opacity:1; 
stroke-linecap:round; stroke-linejoin:round;">
<path d="M3937 23622
L4724 23622
" />
</g>
<g style="fill:#000000; fill-opacity:0.0; 
stroke:#000000; stroke-width:39.3701; stroke-opacity:1; 
stroke-linecap:round; stroke-linejoin:round;">
</g>
<g style="fill:#000000; fill-opacity:0.0; 
stroke:#000000; stroke-width:59.0551; stroke-opacity:1; 
stroke-linecap:round; stroke-linejoin:round;">
<path d="M3937 43307
L4724 43307
" />
</g>
<g style="fill:#000000; fill-opacity:0.0; 
stroke:#000000; stroke-width:39.3701; stroke-opacity:1; 
stroke-linecap:round; stroke-linejoin:round;">
</g>
<g style="fill:#000000; fill-opacity:0.0; 
stroke:#000000; stroke-width:59.0551; stroke-opacity:1; 
stroke-linecap:round; stroke-linejoin:round;">
<path d="M3937 62992
L4724 62992
" />
</g>
<g style="fill:#000000; fill-opacity:0.0; 
stroke:#000000; stroke-width:39.3701; stroke-opacity:1; 
stroke-linecap:round; stroke-linejoin:round;">
</g>
<g style="fill:#000000; fill-opacity:0.0; 
stroke:#000000; stroke-width:59.0551; stroke-opacity:1; 
stroke-linecap:round; stroke-linejoin:round;">
<path d="M4208 13864
L4452 13864
" />
<path d="M4160 14011
L4330 13499
L4501 14011
" />
</g>
<g style="fill:#000000; fill-opacity:0.0; 
stroke:#000000; stroke-width:39.3701; stroke-opacity:1; 
stroke-linecap:round; stroke-linejoin:round;">
</g>
<g style="fill:#000000; fill-opacity:0.0; 
stroke:#000000; stroke-width:59.0551; stroke-opacity:1; 
stroke-linecap:round; stroke-linejoin:round;">
<path d="M4367 33428
L4440 33452
L4464 33476
L4489 33525
L4489 33598
L4464 33647
L4440 33671
L4391 33696
L4196 33696
L4196 33184
L4367 33184
L4416 33208
L4440 33233
L4464 33281
L4464 33330
L4440 33379
L4416 33403
L4367 33428
L4196 33428
" />
</g>
<g style="fill:#000000; fill-opacity:0.0; 
stroke:#000000; stroke-width:39.3701; stroke-opacity:1; 
stroke-linecap:round; stroke-linejoin:round;">
</g>
<g style="fill:#000000; fill-opacity:0.0; 
stroke:#000000; stroke-width:59.0551; stroke-opacity:1; 
stroke-linecap:round; stroke-linejoin:round;">
<path d="M4489 53332
L4464 53356
L4391 53381
L4342 53381
L4269 53356
L4221 53308
L4196 53259
L4172 53161
L4172 53088
L4196 52991
L4221 52942
L4269 52893
L4342 52869
L4391 52869
L4464 52893
L4489 52918
" />
</g>
<g style="fill:#000000; fill-opacity:0.0; 
stroke:#000000; stroke-width:39.3701; stroke-opacity:1; 
stroke-linecap:round; stroke-linejoin:round;">
</g>
<g style="fill:#000000; fill-opacity:0.0; 
stroke:#000000; stroke-width:59.0551; stroke-opacity:1; 
stroke-linecap:round; stroke-linejoin:round;">
<path d="M4196 73066
L4196 72554
L4318 72554
L4391 72578
L4440 72627
L4464 72676
L4489 72773
L4489 72846
L4464 72944
L4440 72993
L4391 73041
L4318 73066
L4196 73066
" />
</g>
<g style="fill:#000000; fill-opacity:0.0; 
stroke:#000000; stroke-width:39.3701; stroke-opacity:1; 
stroke-linecap:round; stroke-linejoin:round;">
</g>
<g style="fill:#000000; fill-opacity:0.0; 
stroke:#000000; stroke-width:59.0551; stroke-opacity:1; 
stroke-linecap:round; stroke-linejoin:round;">
<path d="M112992 23622
L112205 23622
" />
</g>
<g style="fill:#000000; fill-opacity:0.0; 
stroke:#000000; stroke-width:39.3701; stroke-opacity:1; 
stroke-linecap:round; stroke-linejoin:round;">
</g>
<g style="fill:#000000; fill-opacity:0.0; 
stroke:#000000; stroke-width:59.0551; stroke-opacity:1; 
stroke-linecap:round; stroke-linejoin:round;">
<path d="M112992 43307
L112205 43307
" />
</g>
<g style="fill:#000000; fill-opacity:0.0; 
stroke:#000000; stroke-width:39.3701; stroke-opacity:1; 
stroke-linecap:round; stroke-linejoin:round;">
</g>
<g style="fill:#000000; fill-opacity:0.0; 
stroke:#000000; stroke-width:59.0551; stroke-opacity:1; 
stroke-linecap:round; stroke-linejoin:round;">
<path d="M112992 62992
L112205 62992
" />
</g>
<g style="fill:#000000; fill-opacity:0.0; 
stroke:#000000; stroke-width:39.3701; stroke-opacity:1; 
stroke-linecap:round; stroke-linejoin:round;">
</g>
<g style="fill:#000000; fill-opacity:0.0; 
stroke:#000000; stroke-width:59.0551; stroke-opacity:1; 
stroke-linecap:round; stroke-linejoin:round;">
<path d="M112477 13864
L112721 13864
" />
<path d="M112428 14011
L112599 13499
L112769 14011
" />
</g>
<g style="fill:#000000; fill-opacity:0.0; 
stroke:#000000; stroke-width:39.3701; stroke-opacity:1; 
stroke-linecap:round; stroke-linejoin:round;">
</g>
<g style="fill:#000000; fill-opacity:0.0; 
stroke:#000000; stroke-width:59.0551; stroke-opacity:1; 
stroke-linecap:round; stroke-linejoin:round;">
<path d="M112635 33428
L112708 33452
L112733 33476
L112757 33525
L112757 33598
L112733 33647
L112708 33671
L112660 33696
L112465 33696
L112465 33184
L112635 33184
L112684 33208
L112708 33233
L112733 33281
L112733 33330
L112708 33379
L112684 33403
L112635 33428
L112465 33428
" />
</g>
<g style="fill:#000000; fill-opacity:0.0; 
stroke:#000000; stroke-width:39.3701; stroke-opacity:1; 
stroke-linecap:round; stroke-linejoin:round;">
</g>
<g style="fill:#000000; fill-opacity:0.0; 
stroke:#000000; stroke-width:59.0551; stroke-opacity:1; 
stroke-linecap:round; stroke-linejoin:round;">
<path d="M112757 53332
L112733 53356
L112660 53381
L112611 53381
L112538 53356
L112489 53308
L112465 53259
L112440 53161
L112440 53088
L112465 52991
L112489 52942
L112538 52893
L112611 52869
L112660 52869
L112733 52893
L112757 52918
" />
</g>
<g style="fill:#000000; fill-opacity:0.0; 
stroke:#000000; stroke-width:39.3701; stroke-opacity:1; 
stroke-linecap:round; stroke-linejoin:round;">
</g>
<g style="fill:#000000; fill-opacity:0.0; 
stroke:#000000; stroke-width:59.0551; stroke-opacity:1; 
stroke-linecap:round; stroke-linejoin:round;">
<path d="M112465 73066
L112465 72554
L112587 72554
L112660 72578
L112708 72627
L112733 72676
L112757 72773
L112757 72846
L112733 72944
L112708 72993
L112660 73041
L112587 73066
L112465 73066
" />
</g>
<g style="fill:#000000; fill-opacity:0.0; 
stroke:#000000; stroke-width:39.3701; stroke-opacity:1; 
stroke-linecap:round; stroke-linejoin:round;">
</g>
<g style="fill:#000000; fill-opacity:0.0; 
stroke:#000000; stroke-width:59.0551; stroke-opacity:1; 
stroke-linecap:round; stroke-linejoin:round;">
<path d="M78911 76293
L78911 75703
L79051 75703
L79136 75731
L79192 75787
L79220 75843
L79248 75956
L79248 76040
L79220 76153
L79192 76209
L79136 76265
L79051 76293
L78911 76293
" />
<path d="M79754 76293
L79754 75984
L79726 75928
L79670 75899
L79557 75899
L79501 75928
" />
<path d="M79754 76265
L79698 76293
L79557 76293
L79501 76265
L79473 76209
L79473 76153
L79501 76096
L79557 76068
L79698 76068
L79754 76040
" />
<path d="M79951 75899
L80176 75899
" />
<path d="M80036 75703
L80036 76209
L80064 76265
L80120 76293
L80176 76293
" />
<path d="M80598 76265
L80542 76293
L80429 76293
L80373 76265
L80345 76209
L80345 75984
L80373 75928
L80429 75899
L80542 75899
L80598 75928
L80626 75984
L80626 76040
L80345 76096
" />
<path d="M80879 76237
L80907 76265
L80879 76293
L80851 76265
L80879 76237
L80879 76293
" />
<path d="M80879 75928
L80907 75956
L80879 75984
L80851 75956
L80879 75928
L80879 75984
" />
</g>
<g style="fill:#000000; fill-opacity:0.0; 
stroke:#000000; stroke-width:39.3701; stroke-opacity:1; 
stroke-linecap:round; stroke-linejoin:round;">
</g>
<g style="fill:#000000; fill-opacity:0.0; 
stroke:#000000; stroke-width:59.0551; stroke-opacity:1; 
stroke-linecap:round; stroke-linejoin:round;">
<path d="M69685 76577
L112205 76577
" />
</g>
<g style="fill:#000000; fill-opacity:0.0; 
stroke:#000000; stroke-width:39.3701; stroke-opacity:1; 
stroke-linecap:round; stroke-linejoin:round;">
</g>
<g style="fill:#000000; fill-opacity:0.0; 
stroke:#000000; stroke-width:59.0551; stroke-opacity:1; 
stroke-linecap:round; stroke-linejoin:round;">
<path d="M70249 77395
L70249 76805
" />
<path d="M70587 77395
L70334 77058
" />
<path d="M70587 76805
L70249 77142
" />
<path d="M70840 77395
L70840 77002
" />
<path d="M70840 76805
L70812 76833
L70840 76861
L70868 76833
L70840 76805
L70840 76861
" />
<path d="M71458 77339
L71430 77367
L71346 77395
L71290 77395
L71205 77367
L71149 77311
L71121 77255
L71093 77142
L71093 77058
L71121 76946
L71149 76889
L71205 76833
L71290 76805
L71346 76805
L71430 76833
L71458 76861
" />
<path d="M71965 77395
L71965 77086
L71937 77030
L71880 77002
L71768 77002
L71712 77030
" />
<path d="M71965 77367
L71908 77395
L71768 77395
L71712 77367
L71683 77311
L71683 77255
L71712 77199
L71768 77171
L71908 77171
L71965 77142
" />
<path d="M72499 77395
L72499 76805
" />
<path d="M72499 77367
L72443 77395
L72330 77395
L72274 77367
L72246 77339
L72218 77283
L72218 77114
L72246 77058
L72274 77030
L72330 77002
L72443 77002
L72499 77030
" />
<path d="M73230 77086
L73427 77086
" />
<path d="M73511 77395
L73230 77395
L73230 76805
L73511 76805
" />
<path d="M73764 77339
L73793 77367
L73764 77395
L73736 77367
L73764 77339
L73764 77395
" />
<path d="M74046 77395
L74046 76805
L74186 76805
L74271 76833
L74327 76889
L74355 76946
L74383 77058
L74383 77142
L74355 77255
L74327 77311
L74271 77367
L74186 77395
L74046 77395
" />
<path d="M74636 77339
L74664 77367
L74636 77395
L74608 77367
L74636 77339
L74636 77395
" />
<path d="M74889 77227
L75171 77227
" />
<path d="M74833 77395
L75030 76805
L75227 77395
" />
<path d="M75424 77339
L75452 77367
L75424 77395
L75395 77367
L75424 77339
L75424 77395
" />
<path d="M76605 77395
L76605 76805
" />
<path d="M76661 77171
L76830 77395
" />
<path d="M76830 77002
L76605 77227
" />
<path d="M77083 77395
L77083 77002
" />
<path d="M77083 76805
L77055 76833
L77083 76861
L77111 76833
L77083 76805
L77083 76861
" />
<path d="M77617 77367
L77561 77395
L77448 77395
L77392 77367
L77364 77339
L77336 77283
L77336 77114
L77364 77058
L77392 77030
L77448 77002
L77561 77002
L77617 77030
" />
<path d="M78123 77395
L78123 77086
L78095 77030
L78039 77002
L77926 77002
L77870 77030
" />
<path d="M78123 77367
L78067 77395
L77926 77395
L77870 77367
L77842 77311
L77842 77255
L77870 77199
L77926 77171
L78067 77171
L78123 77142
" />
<path d="M78658 77395
L78658 76805
" />
<path d="M78658 77367
L78601 77395
L78489 77395
L78433 77367
L78404 77339
L78376 77283
L78376 77114
L78404 77058
L78433 77030
L78489 77002
L78601 77002
L78658 77030
" />
<path d="M79642 77002
L79642 77395
" />
<path d="M79501 76777
L79361 77199
L79726 77199
" />
<path d="M79951 77339
L79979 77367
L79951 77395
L79923 77367
L79951 77339
L79951 77395
" />
<path d="M80542 77395
L80204 77395
" />
<path d="M80373 77395
L80373 76805
L80317 76889
L80260 76946
L80204 76974
" />
<path d="M80795 77339
L80823 77367
L80795 77395
L80767 77367
L80795 77339
L80795 77395
" />
<path d="M81188 76805
L81245 76805
L81301 76833
L81329 76861
L81357 76917
L81385 77030
L81385 77171
L81357 77283
L81329 77339
L81301 77367
L81245 77395
L81188 77395
L81132 77367
L81104 77339
L81076 77283
L81048 77171
L81048 77030
L81076 76917
L81104 76861
L81132 76833
L81188 76805
" />
<path d="M81638 77171
L82088 77171
" />
<path d="M82623 77395
L82623 77086
L82595 77030
L82538 77002
L82426 77002
L82370 77030
" />
<path d="M82623 77367
L82566 77395
L82426 77395
L82370 77367
L82341 77311
L82341 77255
L82370 77199
L82426 77171
L82566 77171
L82623 77142
" />
<path d="M82988 77395
L82932 77367
L82904 77311
L82904 76805
" />
<path d="M83213 77002
L83213 77592
" />
<path d="M83213 77030
L83269 77002
L83382 77002
L83438 77030
L83466 77058
L83494 77114
L83494 77283
L83466 77339
L83438 77367
L83382 77395
L83269 77395
L83213 77367
" />
<path d="M83748 77395
L83748 76805
" />
<path d="M84001 77395
L84001 77086
L83973 77030
L83916 77002
L83832 77002
L83776 77030
L83748 77058
" />
<path d="M84535 77395
L84535 77086
L84507 77030
L84451 77002
L84338 77002
L84282 77030
" />
<path d="M84535 77367
L84479 77395
L84338 77395
L84282 77367
L84254 77311
L84254 77255
L84282 77199
L84338 77171
L84479 77171
L84535 77142
" />
<path d="M84816 77171
L85266 77171
" />
<path d="M85041 77395
L85041 76946
" />
<path d="M85519 76861
L85547 76833
L85604 76805
L85744 76805
L85800 76833
L85829 76861
L85857 76917
L85857 76974
L85829 77058
L85491 77395
L85857 77395
" />
<path d="M86222 76805
L86278 76805
L86335 76833
L86363 76861
L86391 76917
L86419 77030
L86419 77171
L86391 77283
L86363 77339
L86335 77367
L86278 77395
L86222 77395
L86166 77367
L86138 77339
L86110 77283
L86082 77171
L86082 77030
L86110 76917
L86138 76861
L86166 76833
L86222 76805
" />
<path d="M86982 77395
L86644 77395
" />
<path d="M86813 77395
L86813 76805
L86757 76889
L86700 76946
L86644 76974
" />
<path d="M87488 76805
L87375 76805
L87319 76833
L87291 76861
L87235 76946
L87206 77058
L87206 77283
L87235 77339
L87263 77367
L87319 77395
L87431 77395
L87488 77367
L87516 77339
L87544 77283
L87544 77142
L87516 77086
L87488 77058
L87431 77030
L87319 77030
L87263 77058
L87235 77086
L87206 77142
" />
<path d="M87910 76805
L87966 76805
L88022 76833
L88050 76861
L88078 76917
L88106 77030
L88106 77171
L88078 77283
L88050 77339
L88022 77367
L87966 77395
L87910 77395
L87853 77367
L87825 77339
L87797 77283
L87769 77171
L87769 77030
L87797 76917
L87825 76861
L87853 76833
L87910 76805
" />
<path d="M88303 76805
L88697 76805
L88444 77395
" />
<path d="M89231 77395
L88894 77395
" />
<path d="M89063 77395
L89063 76805
L89006 76889
L88950 76946
L88894 76974
" />
<path d="M89512 77395
L89625 77395
L89681 77367
L89709 77339
L89766 77255
L89794 77142
L89794 76917
L89766 76861
L89737 76833
L89681 76805
L89569 76805
L89512 76833
L89484 76861
L89456 76917
L89456 77058
L89484 77114
L89512 77142
L89569 77171
L89681 77171
L89737 77142
L89766 77114
L89794 77058
" />
<path d="M90159 76805
L90215 76805
L90272 76833
L90300 76861
L90328 76917
L90356 77030
L90356 77171
L90328 77283
L90300 77339
L90272 77367
L90215 77395
L90159 77395
L90103 77367
L90075 77339
L90047 77283
L90019 77171
L90019 77030
L90047 76917
L90075 76861
L90103 76833
L90159 76805
" />
<path d="M90553 76805
L90947 76805
L90694 77395
" />
<path d="M91481 77395
L91144 77395
" />
<path d="M91312 77395
L91312 76805
L91256 76889
L91200 76946
L91144 76974
" />
<path d="M91987 76805
L91875 76805
L91818 76833
L91790 76861
L91734 76946
L91706 77058
L91706 77283
L91734 77339
L91762 77367
L91818 77395
L91931 77395
L91987 77367
L92015 77339
L92043 77283
L92043 77142
L92015 77086
L91987 77058
L91931 77030
L91818 77030
L91762 77058
L91734 77086
L91706 77142
" />
<path d="M92296 77171
L92746 77171
" />
<path d="M92521 77395
L92521 76946
" />
<path d="M93281 76805
L93168 76805
L93112 76833
L93084 76861
L93028 76946
L93000 77058
L93000 77283
L93028 77339
L93056 77367
L93112 77395
L93224 77395
L93281 77367
L93309 77339
L93337 77283
L93337 77142
L93309 77086
L93281 77058
L93224 77030
L93112 77030
L93056 77058
L93028 77086
L93000 77142
" />
<path d="M93618 77395
L93731 77395
L93787 77367
L93815 77339
L93871 77255
L93899 77142
L93899 76917
L93871 76861
L93843 76833
L93787 76805
L93674 76805
L93618 76833
L93590 76861
L93562 76917
L93562 77058
L93590 77114
L93618 77142
L93674 77171
L93787 77171
L93843 77142
L93871 77114
L93899 77058
" />
<path d="M94237 77058
L94181 77030
L94153 77002
L94124 76946
L94124 76917
L94153 76861
L94181 76833
L94237 76805
L94349 76805
L94406 76833
L94434 76861
L94462 76917
L94462 76946
L94434 77002
L94406 77030
L94349 77058
L94237 77058
L94181 77086
L94153 77114
L94124 77171
L94124 77283
L94153 77339
L94181 77367
L94237 77395
L94349 77395
L94406 77367
L94434 77339
L94462 77283
L94462 77171
L94434 77114
L94406 77086
L94349 77058
" />
<path d="M94659 76805
L95024 76805
L94827 77030
L94912 77030
L94968 77058
L94996 77086
L95024 77142
L95024 77283
L94996 77339
L94968 77367
L94912 77395
L94743 77395
L94687 77367
L94659 77339
" />
<path d="M95234 76644
L95699 76644
" />
<path d="M95530 77002
L95530 77395
" />
<path d="M95390 76777
L95249 77199
L95615 77199
" />
<path d="M95699 76644
L96262 76644
" />
<path d="M96093 76805
L95980 76805
L95924 76833
L95896 76861
L95840 76946
L95812 77058
L95812 77283
L95840 77339
L95868 77367
L95924 77395
L96037 77395
L96093 77367
L96121 77339
L96149 77283
L96149 77142
L96121 77086
L96093 77058
L96037 77030
L95924 77030
L95868 77058
L95840 77086
L95812 77142
" />
<path d="M96655 77002
L96655 77395
" />
<path d="M96402 77002
L96402 77311
L96430 77367
L96487 77395
L96571 77395
L96627 77367
L96655 77339
" />
<path d="M96937 77395
L96937 76805
" />
<path d="M96937 77030
L96993 77002
L97105 77002
L97162 77030
L97190 77058
L97218 77114
L97218 77283
L97190 77339
L97162 77367
L97105 77395
L96993 77395
L96937 77367
" />
<path d="M97724 77002
L97724 77395
" />
<path d="M97471 77002
L97471 77311
L97499 77367
L97555 77395
L97640 77395
L97696 77367
L97724 77339
" />
<path d="M98005 77002
L98005 77395
" />
<path d="M98005 77058
L98033 77030
L98090 77002
L98174 77002
L98230 77030
L98258 77086
L98258 77395
" />
<path d="M98455 77002
L98680 77002
" />
<path d="M98539 76805
L98539 77311
L98568 77367
L98624 77395
L98680 77395
" />
<path d="M99130 77002
L99130 77395
" />
<path d="M98877 77002
L98877 77311
L98905 77367
L98961 77395
L99046 77395
L99102 77367
L99130 77339
" />
<path d="M99721 77395
L99383 77395
" />
<path d="M99552 77395
L99552 76805
L99496 76889
L99439 76946
L99383 76974
" />
<path d="M100227 77002
L100227 77395
" />
<path d="M100086 76777
L99946 77199
L100311 77199
" />
<path d="M100536 77339
L100564 77367
L100536 77395
L100508 77367
L100536 77339
L100536 77395
" />
<path d="M100930 76805
L100986 76805
L101042 76833
L101070 76861
L101099 76917
L101127 77030
L101127 77171
L101099 77283
L101070 77339
L101042 77367
L100986 77395
L100930 77395
L100874 77367
L100845 77339
L100817 77283
L100789 77171
L100789 77030
L100817 76917
L100845 76861
L100874 76833
L100930 76805
" />
<path d="M101633 77002
L101633 77395
" />
<path d="M101492 76777
L101352 77199
L101717 77199
" />
<path d="M101942 77339
L101970 77367
L101942 77395
L101914 77367
L101942 77339
L101942 77395
" />
<path d="M102533 77395
L102195 77395
" />
<path d="M102364 77395
L102364 76805
L102308 76889
L102251 76946
L102195 76974
" />
<path d="M102786 77171
L103236 77171
" />
<path d="M103517 77002
L103517 77592
" />
<path d="M103517 77030
L103573 77002
L103686 77002
L103742 77030
L103770 77058
L103798 77114
L103798 77283
L103770 77339
L103742 77367
L103686 77395
L103573 77395
L103517 77367
" />
<path d="M104051 77395
L104051 77002
" />
<path d="M104051 77114
L104079 77058
L104108 77030
L104164 77002
L104220 77002
" />
<path d="M104501 77395
L104445 77367
L104417 77339
L104389 77283
L104389 77114
L104417 77058
L104445 77030
L104501 77002
L104586 77002
L104642 77030
L104670 77058
L104698 77114
L104698 77283
L104670 77339
L104642 77367
L104586 77395
L104501 77395
" />
<path d="M105204 77395
L105204 76805
" />
<path d="M105204 77367
L105148 77395
L105036 77395
L104979 77367
L104951 77339
L104923 77283
L104923 77114
L104951 77058
L104979 77030
L105036 77002
L105148 77002
L105204 77030
" />
<path d="M105739 77002
L105739 77395
" />
<path d="M105485 77002
L105485 77311
L105514 77367
L105570 77395
L105654 77395
L105710 77367
L105739 77339
" />
<path d="M106273 77367
L106217 77395
L106104 77395
L106048 77367
L106020 77339
L105992 77283
L105992 77114
L106020 77058
L106048 77030
L106104 77002
L106217 77002
L106273 77030
" />
<path d="M106442 77002
L106667 77002
" />
<path d="M106526 76805
L106526 77311
L106554 77367
L106610 77395
L106667 77395
" />
</g>
<g style="fill:#000000; fill-opacity:0.0; 
stroke:#000000; stroke-width:39.3701; stroke-opacity:1; 
stroke-linecap:round; stroke-linejoin:round;">
</g>
<g style="fill:#000000; fill-opacity:0.0; 
stroke:#000000; stroke-width:59.0551; stroke-opacity:1; 
stroke-linecap:round; stroke-linejoin:round;">
<path d="M69685 75396
L112205 75396
" />
</g>
<g style="fill:#000000; fill-opacity:0.0; 
stroke:#000000; stroke-width:39.3701; stroke-opacity:1; 
stroke-linecap:round; stroke-linejoin:round;">
</g>
<g style="fill:#000000; fill-opacity:0.0; 
stroke:#000000; stroke-width:118.11; stroke-opacity:1; 
stroke-linecap:round; stroke-linejoin:round;">
<path d="M104099 76293
L103902 76012
" />
<path d="M103761 76293
L103761 75703
L103986 75703
L104042 75731
L104070 75759
L104099 75815
L104099 75899
L104070 75956
L104042 75984
L103986 76012
L103761 76012
" />
<path d="M104577 76265
L104520 76293
L104408 76293
L104352 76265
L104323 76209
L104323 75984
L104352 75928
L104408 75899
L104520 75899
L104577 75928
L104605 75984
L104605 76040
L104323 76096
" />
<path d="M104802 75899
L104942 76293
L105083 75899
" />
<path d="M105308 76237
L105336 76265
L105308 76293
L105280 76265
L105308 76237
L105308 76293
" />
<path d="M105308 75928
L105336 75956
L105308 75984
L105280 75956
L105308 75928
L105308 75984
" />
</g>
<g style="fill:#000000; fill-opacity:0.0; 
stroke:#000000; stroke-width:39.3701; stroke-opacity:1; 
stroke-linecap:round; stroke-linejoin:round;">
</g>
<g style="fill:#000000; fill-opacity:0.0; 
stroke:#000000; stroke-width:59.0551; stroke-opacity:1; 
stroke-linecap:round; stroke-linejoin:round;">
<path d="M70221 76265
L70305 76293
L70446 76293
L70502 76265
L70530 76237
L70559 76181
L70559 76124
L70530 76068
L70502 76040
L70446 76012
L70334 75984
L70277 75956
L70249 75928
L70221 75871
L70221 75815
L70249 75759
L70277 75731
L70334 75703
L70474 75703
L70559 75731
" />
<path d="M70812 76293
L70812 75899
" />
<path d="M70812 75703
L70784 75731
L70812 75759
L70840 75731
L70812 75703
L70812 75759
" />
<path d="M71037 75899
L71346 75899
L71037 76293
L71346 76293
" />
<path d="M71796 76265
L71740 76293
L71627 76293
L71571 76265
L71543 76209
L71543 75984
L71571 75928
L71627 75899
L71740 75899
L71796 75928
L71824 75984
L71824 76040
L71543 76096
" />
<path d="M72077 76237
L72105 76265
L72077 76293
L72049 76265
L72077 76237
L72077 76293
" />
<path d="M72077 75928
L72105 75956
L72077 75984
L72049 75956
L72077 75928
L72077 75984
" />
<path d="M72780 76124
L73061 76124
" />
<path d="M72724 76293
L72921 75703
L73118 76293
" />
<path d="M73568 75899
L73568 76293
" />
<path d="M73427 75674
L73286 76096
L73652 76096
" />
</g>
<g style="fill:#000000; fill-opacity:0.0; 
stroke:#000000; stroke-width:39.3701; stroke-opacity:1; 
stroke-linecap:round; stroke-linejoin:round;">
</g>
<g style="fill:#000000; fill-opacity:0.0; 
stroke:#000000; stroke-width:59.0551; stroke-opacity:1; 
stroke-linecap:round; stroke-linejoin:round;">
<path d="M103714 77395
L103714 76805
" />
<path d="M104248 77395
L104248 76805
" />
<path d="M104248 77367
L104192 77395
L104079 77395
L104023 77367
L103995 77339
L103967 77283
L103967 77114
L103995 77058
L104023 77030
L104079 77002
L104192 77002
L104248 77030
" />
<path d="M104529 77339
L104557 77367
L104529 77395
L104501 77367
L104529 77339
L104529 77395
" />
<path d="M104529 77030
L104557 77058
L104529 77086
L104501 77058
L104529 77030
L104529 77086
" />
<path d="M105570 77395
L105232 77395
" />
<path d="M105401 77395
L105401 76805
L105345 76889
L105289 76946
L105232 76974
" />
<path d="M106245 76777
L105739 77536
" />
<path d="M106751 77395
L106413 77395
" />
<path d="M106582 77395
L106582 76805
L106526 76889
L106470 76946
L106413 76974
" />
</g>
<g style="fill:#000000; fill-opacity:0.0; 
stroke:#000000; stroke-width:39.3701; stroke-opacity:1; 
stroke-linecap:round; stroke-linejoin:round;">
</g>
<g style="fill:#000000; fill-opacity:0.0; 
stroke:#000000; stroke-width:59.0551; stroke-opacity:1; 
stroke-linecap:round; stroke-linejoin:round;">
<path d="M69685 73821
L112205 73821
" />
</g>
<g style="fill:#000000; fill-opacity:0.0; 
stroke:#000000; stroke-width:39.3701; stroke-opacity:1; 
stroke-linecap:round; stroke-linejoin:round;">
</g>
<g style="fill:#000000; fill-opacity:0.0; 
stroke:#000000; stroke-width:157.48; stroke-opacity:1; 
stroke-linecap:round; stroke-linejoin:round;">
<path d="M70360 74099
L70810 74099
" />
<path d="M70486 74886
L70585 74099
" />
<path d="M70974 74886
L71039 74361
" />
<path d="M71072 74099
L71030 74136
L71063 74174
L71105 74136
L71072 74099
L71063 74174
" />
<path d="M71302 74361
L71602 74361
" />
<path d="M71447 74099
L71363 74774
L71391 74849
L71461 74886
L71536 74886
" />
<path d="M71911 74886
L71841 74849
L71813 74774
L71897 74099
" />
<path d="M72516 74849
L72436 74886
L72286 74886
L72216 74849
L72187 74774
L72225 74474
L72272 74399
L72352 74361
L72501 74361
L72572 74399
L72600 74474
L72591 74549
L72206 74624
" />
<path d="M72895 74811
L72928 74849
L72886 74886
L72853 74849
L72895 74811
L72886 74886
" />
<path d="M72947 74399
L72980 74436
L72937 74474
L72905 74436
L72947 74399
L72937 74474
" />
</g>
<g style="fill:#000000; fill-opacity:0.0; 
stroke:#000000; stroke-width:39.3701; stroke-opacity:1; 
stroke-linecap:round; stroke-linejoin:round;">
</g>
<g style="fill:#000000; fill-opacity:0.0; 
stroke:#000000; stroke-width:59.0551; stroke-opacity:1; 
stroke-linecap:round; stroke-linejoin:round;">
<path d="M70446 73070
L70249 73070
" />
<path d="M70249 73380
L70249 72789
L70530 72789
" />
<path d="M70755 73380
L70755 72986
" />
<path d="M70755 72789
L70727 72817
L70755 72845
L70784 72817
L70755 72789
L70755 72845
" />
<path d="M71121 73380
L71065 73352
L71037 73295
L71037 72789
" />
<path d="M71571 73352
L71515 73380
L71402 73380
L71346 73352
L71318 73295
L71318 73070
L71346 73014
L71402 72986
L71515 72986
L71571 73014
L71599 73070
L71599 73127
L71318 73183
" />
<path d="M71852 73323
L71880 73352
L71852 73380
L71824 73352
L71852 73323
L71852 73380
" />
<path d="M71852 73014
L71880 73042
L71852 73070
L71824 73042
L71852 73014
L71852 73070
" />
<path d="M72583 73380
L72583 72789
L72808 72789
L72865 72817
L72893 72845
L72921 72902
L72921 72986
L72893 73042
L72865 73070
L72808 73099
L72583 73099
" />
<path d="M73511 73323
L73483 73352
L73399 73380
L73343 73380
L73258 73352
L73202 73295
L73174 73239
L73146 73127
L73146 73042
L73174 72930
L73202 72874
L73258 72817
L73343 72789
L73399 72789
L73483 72817
L73511 72845
" />
<path d="M73961 73070
L74046 73099
L74074 73127
L74102 73183
L74102 73267
L74074 73323
L74046 73352
L73989 73380
L73764 73380
L73764 72789
L73961 72789
L74018 72817
L74046 72845
L74074 72902
L74074 72958
L74046 73014
L74018 73042
L73961 73070
L73764 73070
" />
<path d="M74552 73070
L74355 73070
" />
<path d="M74355 73380
L74355 72789
L74636 72789
" />
<path d="M74861 73380
L74861 72986
" />
<path d="M74861 73099
L74889 73042
L74917 73014
L74974 72986
L75030 72986
" />
<path d="M75480 73380
L75480 73070
L75452 73014
L75395 72986
L75283 72986
L75227 73014
" />
<path d="M75480 73352
L75424 73380
L75283 73380
L75227 73352
L75199 73295
L75199 73239
L75227 73183
L75283 73155
L75424 73155
L75480 73127
" />
<path d="M75761 73380
L75761 72986
" />
<path d="M75761 73042
L75789 73014
L75845 72986
L75930 72986
L75986 73014
L76014 73070
L76014 73380
" />
<path d="M76014 73070
L76042 73014
L76099 72986
L76183 72986
L76239 73014
L76267 73070
L76267 73380
" />
<path d="M76773 73352
L76717 73380
L76605 73380
L76548 73352
L76520 73295
L76520 73070
L76548 73014
L76605 72986
L76717 72986
L76773 73014
L76802 73070
L76802 73127
L76520 73183
" />
<path d="M77055 73323
L77083 73352
L77055 73380
L77027 73352
L77055 73323
L77055 73380
" />
<path d="M77336 73380
L77336 72789
" />
<path d="M77392 73155
L77561 73380
" />
<path d="M77561 72986
L77336 73211
" />
<path d="M77814 73380
L77814 72986
" />
<path d="M77814 72789
L77786 72817
L77814 72845
L77842 72817
L77814 72789
L77814 72845
" />
<path d="M78348 73352
L78292 73380
L78180 73380
L78123 73352
L78095 73323
L78067 73267
L78067 73099
L78095 73042
L78123 73014
L78180 72986
L78292 72986
L78348 73014
" />
<path d="M78854 73380
L78854 73070
L78826 73014
L78770 72986
L78658 72986
L78601 73014
" />
<path d="M78854 73352
L78798 73380
L78658 73380
L78601 73352
L78573 73295
L78573 73239
L78601 73183
L78658 73155
L78798 73155
L78854 73127
" />
<path d="M79389 73380
L79389 72789
" />
<path d="M79389 73352
L79332 73380
L79220 73380
L79164 73352
L79136 73323
L79108 73267
L79108 73099
L79136 73042
L79164 73014
L79220 72986
L79332 72986
L79389 73014
" />
<path d="M79529 73436
L79979 73436
" />
<path d="M80120 72986
L80120 73577
" />
<path d="M80120 73014
L80176 72986
L80289 72986
L80345 73014
L80373 73042
L80401 73099
L80401 73267
L80373 73323
L80345 73352
L80289 73380
L80176 73380
L80120 73352
" />
<path d="M80907 73352
L80851 73380
L80739 73380
L80682 73352
L80654 73323
L80626 73267
L80626 73099
L80654 73042
L80682 73014
L80739 72986
L80851 72986
L80907 73014
" />
<path d="M81160 73380
L81160 72789
" />
<path d="M81160 73014
L81217 72986
L81329 72986
L81385 73014
L81413 73042
L81442 73099
L81442 73267
L81413 73323
L81385 73352
L81329 73380
L81217 73380
L81160 73352
" />
</g>
<g style="fill:#000000; fill-opacity:0.0; 
stroke:#000000; stroke-width:39.3701; stroke-opacity:1; 
stroke-linecap:round; stroke-linejoin:round;">
</g>
<g style="fill:#000000; fill-opacity:0.0; 
stroke:#000000; stroke-width:59.0551; stroke-opacity:1; 
stroke-linecap:round; stroke-linejoin:round;">
<path d="M69685 71459
L112205 71459
" />
</g>
<g style="fill:#000000; fill-opacity:0.0; 
stroke:#000000; stroke-width:39.3701; stroke-opacity:1; 
stroke-linecap:round; stroke-linejoin:round;">
</g>
<g style="fill:#000000; fill-opacity:0.0; 
stroke:#000000; stroke-width:59.0551; stroke-opacity:1; 
stroke-linecap:round; stroke-linejoin:round;">
<path d="M70221 72289
L70305 72317
L70446 72317
L70502 72289
L70530 72260
L70559 72204
L70559 72148
L70530 72092
L70502 72064
L70446 72036
L70334 72007
L70277 71979
L70249 71951
L70221 71895
L70221 71839
L70249 71782
L70277 71754
L70334 71726
L70474 71726
L70559 71754
" />
<path d="M70812 72317
L70812 71726
" />
<path d="M71065 72317
L71065 72007
L71037 71951
L70980 71923
L70896 71923
L70840 71951
L70812 71979
" />
<path d="M71571 72289
L71515 72317
L71402 72317
L71346 72289
L71318 72232
L71318 72007
L71346 71951
L71402 71923
L71515 71923
L71571 71951
L71599 72007
L71599 72064
L71318 72120
" />
<path d="M72077 72289
L72021 72317
L71908 72317
L71852 72289
L71824 72232
L71824 72007
L71852 71951
L71908 71923
L72021 71923
L72077 71951
L72105 72007
L72105 72064
L71824 72120
" />
<path d="M72274 71923
L72499 71923
" />
<path d="M72358 71726
L72358 72232
L72386 72289
L72443 72317
L72499 72317
" />
<path d="M72696 72260
L72724 72289
L72696 72317
L72668 72289
L72696 72260
L72696 72317
" />
<path d="M72696 71951
L72724 71979
L72696 72007
L72668 71979
L72696 71951
L72696 72007
" />
</g>
<g style="fill:#000000; fill-opacity:0.0; 
stroke:#000000; stroke-width:39.3701; stroke-opacity:1; 
stroke-linecap:round; stroke-linejoin:round;">
</g>
<g style="fill:#000000; fill-opacity:0.0; 
stroke:#000000; stroke-width:59.0551; stroke-opacity:1; 
stroke-linecap:round; stroke-linejoin:round;">
<path d="M77559 75396
L77559 76577
" />
</g>
<g style="fill:#000000; fill-opacity:0.0; 
stroke:#000000; stroke-width:39.3701; stroke-opacity:1; 
stroke-linecap:round; stroke-linejoin:round;">
</g>
<g style="fill:#000000; fill-opacity:0.0; 
stroke:#000000; stroke-width:59.0551; stroke-opacity:1; 
stroke-linecap:round; stroke-linejoin:round;">
<path d="M102756 75396
L102756 77955
" />
</g>
<g style="fill:#000000; fill-opacity:1.0; 
stroke:#000000; stroke-width:0; stroke-opacity:1; 
stroke-linecap:round; stroke-linejoin:round;">
<circle cx="56692.9" cy="29330.7" r="1377.95" /> 
</g>
<g style="fill:#000000; fill-opacity:1.0; 
stroke:#000000; stroke-width:39.3701; stroke-opacity:1; 
stroke-linecap:round; stroke-linejoin:round;">
</g>
<g style="fill:#000000; fill-opacity:1.0; 
stroke:#000000; stroke-width:0; stroke-opacity:1; 
stroke-linecap:round; stroke-linejoin:round;">
<circle cx="22047.2" cy="29330.7" r="1377.95" /> 
</g>
<g style="fill:#000000; fill-opacity:1.0; 
stroke:#000000; stroke-width:39.3701; stroke-opacity:1; 
stroke-linecap:round; stroke-linejoin:round;">
</g>
<g style="fill:#000000; fill-opacity:1.0; 
stroke:#000000; stroke-width:0; stroke-opacity:1; 
stroke-linecap:round; stroke-linejoin:round;">
<circle cx="22047.2" cy="49409.4" r="1377.95" /> 
</g>
<g style="fill:#000000; fill-opacity:1.0; 
stroke:#000000; stroke-width:39.3701; stroke-opacity:1; 
stroke-linecap:round; stroke-linejoin:round;">
</g>
<g style="fill:#000000; fill-opacity:1.0; 
stroke:#000000; stroke-width:0; stroke-opacity:1; 
stroke-linecap:round; stroke-linejoin:round;">
<circle cx="56692.9" cy="49409.4" r="1377.95" /> 
</g>
<g style="fill:#000000; fill-opacity:1.0; 
stroke:#000000; stroke-width:39.3701; stroke-opacity:1; 
stroke-linecap:round; stroke-linejoin:round;">
<polyline style="fill-rule:evenodd;"
points="58735,27380
58797,27422
58839,27485
58858,27578
58858,51161
58839,51254
58797,51317
58735,51359
58642,51377
20098,51377
20004,51359
19942,51317
19900,51254
19881,51161
19881,33070
26574,33070
26574,45669
26578,45688
26578,45707
26608,45858
26637,45929
26723,46057
26777,46111
26905,46196
26976,46226
27126,46256
27146,46256
27165,46259
35075,46259
35132,46358
35141,46368
35146,46379
35459,46787
35483,46808
35506,46831
36145,47257
36216,47287
36969,47437
36988,47437
37007,47440
41732,47440
41745,47438
41757,47439
42267,47372
42297,47361
42328,47353
43017,47013
43017,47013
43078,46967
43585,46389
43594,46372
43607,46358
43664,46259
51574,46259
51593,46256
51613,46256
51763,46226
51834,46196
51962,46111
52016,46057
52102,45929
52131,45858
52161,45707
52161,45688
52165,45669
52165,33070
52161,33051
52161,33032
52131,32881
52102,32810
52016,32683
51962,32628
51834,32543
51763,32514
51613,32484
51593,32484
51574,32480
43664,32480
43607,32381
43598,32372
43593,32360
43280,31952
43256,31931
43233,31908
42594,31482
42524,31452
41770,31302
41751,31302
41732,31299
37007,31299
36995,31301
36982,31300
36472,31367
36442,31378
36411,31386
35722,31726
35722,31726
35661,31773
35155,32350
35145,32367
35132,32381
35075,32480
27165,32480
27146,32484
27126,32484
26976,32514
26905,32543
26777,32628
26723,32683
26637,32810
26608,32881
26578,33032
26578,33051
26574,33070
19881,33070
19881,29638
55137,29638
55373,30210
55810,30648
56382,30885
57000,30886
57572,30649
58010,30212
58247,29641
58248,29022
58012,28450
57574,28013
57003,27775
56384,27775
55813,28011
55375,28448
55138,29020
55137,29638
19881,29638
19881,27578
19900,27485
19942,27422
20004,27380
20098,27362
58642,27362
58735,27380
" /> 
</g>
<g style="fill:#FFFFFF; fill-opacity:1.0; 
stroke:#FFFFFF; stroke-width:39.3701; stroke-opacity:1; 
stroke-linecap:round; stroke-linejoin:round;">
</g>
<g style="fill:#FFFFFF; fill-opacity:1.0; 
stroke:#FFFFFF; stroke-width:0; stroke-opacity:1; 
stroke-linecap:round; stroke-linejoin:round;">
<circle cx="56692.9" cy="29330.7" r="649.606" /> 
</g>
<g style="fill:#FFFFFF; fill-opacity:1.0; 
stroke:#FFFFFF; stroke-width:39.3701; stroke-opacity:1; 
stroke-linecap:round; stroke-linejoin:round;">
</g>
<g style="fill:#FFFFFF; fill-opacity:1.0; 
stroke:#FFFFFF; stroke-width:0; stroke-opacity:1; 
stroke-linecap:round; stroke-linejoin:round;">
<circle cx="22047.2" cy="29330.7" r="649.606" /> 
</g>
<g style="fill:#FFFFFF; fill-opacity:1.0; 
stroke:#FFFFFF; stroke-width:39.3701; stroke-opacity:1; 
stroke-linecap:round; stroke-linejoin:round;">
</g>
<g style="fill:#FFFFFF; fill-opacity:1.0; 
stroke:#FFFFFF; stroke-width:0; stroke-opacity:1; 
stroke-linecap:round; stroke-linejoin:round;">
<circle cx="22047.2" cy="49409.4" r="649.606" /> 
</g>
<g style="fill:#FFFFFF; fill-opacity:1.0; 
stroke:#FFFFFF; stroke-width:39.3701; stroke-opacity:1; 
stroke-linecap:round; stroke-linejoin:round;">
</g>
<g style="fill:#FFFFFF; fill-opacity:1.0; 
stroke:#FFFFFF; stroke-width:0; stroke-opacity:1; 
stroke-linecap:round; stroke-linejoin:round;">
<circle cx="56692.9" cy="49409.4" r="649.606" /> 
</g>
<g style="fill:#FFFFFF; fill-opacity:1.0; 
stroke:#FFFFFF; stroke-width:39.3701; stroke-opacity:1; 
stroke-linecap:round; stroke-linejoin:round;">
</g>
<g style="fill:#000000; fill-opacity:1.0; 
stroke:#000000; stroke-width:39.3701; stroke-opacity:1; 
stroke-linecap:round; stroke-linejoin:round;">
</g>
<g style="fill:#000000; fill-opacity:1.0; 
stroke:#000000; stroke-width:0; stroke-opacity:1; 
stroke-linecap:round; stroke-linejoin:round;">
<circle cx="56692.9" cy="29330.7" r="1377.95" /> 
</g>
<g style="fill:#000000; fill-opacity:1.0; 
stroke:#000000; stroke-width:39.3701; stroke-opacity:1; 
stroke-linecap:round; stroke-linejoin:round;">
</g>
<g style="fill:#000000; fill-opacity:1.0; 
stroke:#000000; stroke-width:0; stroke-opacity:1; 
stroke-linecap:round; stroke-linejoin:round;">
<circle cx="22047.2" cy="29330.7" r="1377.95" /> 
</g>
<g style="fill:#000000; fill-opacity:1.0; 
stroke:#000000; stroke-width:39.3701; stroke-opacity:1; 
stroke-linecap:round; stroke-linejoin:round;">
</g>
<g style="fill:#000000; fill-opacity:1.0; 
stroke:#000000; stroke-width:0; stroke-opacity:1; 
stroke-linecap:round; stroke-linejoin:round;">
<circle cx="22047.2" cy="49409.4" r="1377.95" /> 
</g>
<g style="fill:#000000; fill-opacity:1.0; 
stroke:#000000; stroke-width:39.3701; stroke-opacity:1; 
stroke-linecap:round; stroke-linejoin:round;">
</g>
<g style="fill:#000000; fill-opacity:1.0; 
stroke:#000000; stroke-width:0; stroke-opacity:1; 
stroke-linecap:round; stroke-linejoin:round;">
<circle cx="56692.9" cy="49409.4" r="1377.95" /> 
</g>
<g style="fill:#000000; fill-opacity:1.0; 
stroke:#000000; stroke-width:39.3701; stroke-opacity:1; 
stroke-linecap:round; stroke-linejoin:round;">
</g>
<g style="fill:#000000; fill-opacity:1.0; 
stroke:#000000; stroke-width:0; stroke-opacity:1; 
stroke-linecap:round; stroke-linejoin:round;">
<circle cx="52204.7" cy="32440.9" r="300" /> 
</g>
<g style="fill:#000000; fill-opacity:1.0; 
stroke:#000000; stroke-width:39.3701; stroke-opacity:1; 
stroke-linecap:round; stroke-linejoin:round;">
</g>
<g style="fill:#000000; fill-opacity:1.0; 
stroke:#000000; stroke-width:0; stroke-opacity:1; 
stroke-linecap:round; stroke-linejoin:round;">
<polyline style="fill-rule:evenodd;"
points="53444,31702
53444,30521
54625,30521
54625,31702
53444,31702
" /> 
</g>
<g style="fill:#000000; fill-opacity:1.0; 
stroke:#000000; stroke-width:157.48; stroke-opacity:1; 
stroke-linecap:round; stroke-linejoin:round;">
</g>
<g style="fill:#000000; fill-opacity:0.0; 
stroke:#000000; stroke-width:157.48; stroke-opacity:1; 
stroke-linecap:round; stroke-linejoin:round;">
<path d="M52161 32472
L53531 31102
" />
<path d="M53531 31102
L54921 31102
" />
<path d="M54921 31102
L56692 29330
" />
</g>
<g style="fill:#000000; fill-opacity:1.0; 
stroke:#000000; stroke-width:78.7402; stroke-opacity:1; 
stroke-linecap:round; stroke-linejoin:round;">
<polyline style="fill-rule:evenodd;"
points="58727,27399
58783,27436
58821,27492
58838,27580
58838,51159
58821,51247
58783,51303
58727,51340
58640,51358
20100,51358
20012,51340
19956,51303
19918,51247
19901,51159
19901,50805
21430,50805
21631,50918
22241,50962
22462,50918
22663,50805
56076,50805
56277,50918
56886,50962
57108,50918
57309,50805
56692,50188
56076,50805
22663,50805
22047,50188
21430,50805
19901,50805
19901,49603
20493,49603
20537,49824
20651,50026
21267,49409
22826,49409
23443,50026
23556,49824
23572,49603
55139,49603
55183,49824
55296,50026
55913,49409
57472,49409
58088,50026
58202,49824
58246,49215
58202,48994
58088,48792
57472,49409
55913,49409
55296,48792
55183,48994
55139,49603
23572,49603
23600,49215
23556,48994
23443,48792
22826,49409
21267,49409
20651,48792
20537,48994
20493,49603
19901,49603
19901,48013
21430,48013
22047,48629
22663,48013
22462,47900
21853,47855
21631,47900
21430,48013
19901,48013
19901,45641
25531,45641
25531,45645
25563,45995
25565,46004
25679,46343
25681,46349
25796,46561
25800,46568
26009,46820
26014,46825
26282,47042
26288,47046
26520,47172
26528,47175
26827,47262
26833,47263
27081,47298
27086,47299
34517,47299
34659,47459
34661,47461
34933,47721
34937,47724
35283,47980
35287,47983
35654,48187
35660,48190
36191,48375
36196,48377
36499,48440
36504,48440
36937,48480
36940,48480
41712,48480
41713,48480
41874,48476
41877,48476
42295,48436
42300,48435
42643,48353
42647,48351
43029,48206
43033,48204
43336,48054
43340,48052
43400,48013
56076,48013
56692,48629
57309,48013
57108,47900
56499,47855
56277,47900
56076,48013
43400,48013
43612,47875
43615,47873
43867,47672
43870,47669
44146,47385
44147,47384
44218,47303
51602,47303
51606,47302
51937,47267
51946,47265
52308,47135
52317,47131
52592,46946
52598,46941
52842,46701
52848,46693
53049,46362
53052,46357
53146,46120
53149,46111
53208,45670
53208,45665
53208,33011
53208,33009
53200,32844
53199,32836
53112,32509
53110,32502
52988,32243
52984,32236
52899,32123
53256,31766
53259,31779
53303,31844
53368,31888
53444,31903
54625,31903
54702,31888
54767,31844
54811,31779
54826,31702
54826,31377
54921,31377
55026,31356
55116,31297
55774,30639
55799,30664
56378,30905
57004,30905
57583,30666
58027,30223
58267,29645
58267,29018
58028,28439
57586,27996
57007,27756
56381,27755
55802,27994
55358,28437
55118,29016
55117,29642
55357,30221
55384,30249
54826,30807
54826,30521
54811,30444
54767,30379
54702,30336
54625,30320
53444,30320
53368,30336
53303,30379
53259,30444
53244,30521
53244,30999
52507,31736
52256,31584
52248,31580
51905,31470
51897,31468
51550,31437
51547,31437
44221,31437
44213,31429
44025,31214
44021,31209
43548,30820
43543,30816
43205,30615
43199,30613
42660,30392
42653,30390
42157,30284
42151,30283
41699,30255
41696,30255
37043,30259
37042,30259
36775,30263
36770,30264
36459,30307
36455,30308
36125,30382
36120,30384
35718,30529
35712,30532
35146,30851
35140,30855
34793,31142
34789,31147
34537,31433
27102,31440
27096,31441
26698,31504
26689,31507
26378,31641
26370,31645
26035,31889
26028,31896
25816,32152
25811,32158
25665,32434
25663,32440
25557,32767
25555,32776
25539,33005
25539,33007
25531,45641
19901,45641
19901,30726
21430,30726
21631,30840
22241,30884
22462,30840
22663,30726
22047,30110
21430,30726
19901,30726
19901,29524
20493,29524
20537,29746
20651,29947
21267,29330
22826,29330
23443,29947
23556,29746
23600,29136
23556,28915
23443,28714
22826,29330
21267,29330
20651,28714
20537,28915
20493,29524
19901,29524
19901,27934
21430,27934
22047,28551
22663,27934
22462,27821
21853,27777
21631,27821
21430,27934
19901,27934
19901,27580
19918,27492
19956,27436
20012,27399
20100,27381
58640,27381
58727,27399
" /> 
</g>
<g style="fill:#000000; fill-opacity:1.0; 
stroke:#000000; stroke-width:39.3701; stroke-opacity:1; 
stroke-linecap:round; stroke-linejoin:round;">
<polyline style="fill-rule:evenodd;"
points="42185,30743
42556,30833
42967,30998
43268,31173
43604,31439
43890,31749
43992,31878
43998,31883
44007,31885
51651,31897
51962,31951
52268,32106
52449,32276
52604,32493
52721,32781
52755,32954
52755,45684
52740,45874
52666,46118
52573,46292
52391,46525
52245,46640
52015,46765
51787,46834
51632,46850
44000,46850
43992,46851
43984,46857
43670,47249
43362,47499
42924,47757
42486,47937
41958,48031
41570,48035
36973,48031
36597,48000
36171,47898
35733,47718
35358,47487
35014,47190
34795,46929
34753,46859
34747,46854
34740,46850
34736,46850
27197,46850
26882,46819
26635,46738
26344,46528
26146,46288
26022,45990
25972,45734
25980,41126
25980,33070
26574,33070
26574,45669
26578,45688
26578,45707
26608,45858
26637,45929
26723,46057
26777,46111
26905,46196
26976,46226
27126,46256
27146,46256
27165,46259
35075,46259
35132,46358
35141,46368
35146,46379
35459,46787
35483,46808
35506,46831
36145,47257
36216,47287
36969,47437
36988,47437
37007,47440
41732,47440
41745,47438
41757,47439
42267,47372
42297,47361
42328,47353
43017,47013
43017,47013
43078,46967
43585,46389
43594,46372
43607,46358
43664,46259
51574,46259
51593,46256
51613,46256
51763,46226
51834,46196
51962,46111
52016,46057
52102,45929
52131,45858
52161,45707
52161,45688
52165,45669
52165,33070
52161,33051
52161,33032
52131,32881
52102,32810
52016,32683
51962,32628
51834,32543
51763,32514
51613,32484
51593,32484
51574,32480
43664,32480
43607,32381
43598,32372
43593,32360
43280,31952
43256,31931
43233,31908
42594,31482
42524,31452
41770,31302
41751,31302
41732,31299
37007,31299
36995,31301
36982,31300
36472,31367
36442,31378
36411,31386
35722,31726
35722,31726
35661,31773
35155,32350
35145,32367
35132,32381
35075,32480
27165,32480
27146,32484
27126,32484
26976,32514
26905,32543
26777,32628
26723,32683
26637,32810
26608,32881
26578,33032
26578,33051
26574,33070
25980,33070
25980,32993
26011,32808
26108,32536
26228,32346
26398,32172
26580,32044
26836,31936
27061,31889
34740,31877
34747,31876
34755,31871
35002,31580
35307,31291
35729,31025
36077,30865
36546,30747
36949,30704
41751,30704
42185,30743
" /> 
</g>
<g style="fill:#FFFFFF; fill-opacity:1.0; 
stroke:#FFFFFF; stroke-width:39.3701; stroke-opacity:1; 
stroke-linecap:round; stroke-linejoin:round;">
</g>
<g style="fill:#FFFFFF; fill-opacity:1.0; 
stroke:#FFFFFF; stroke-width:0; stroke-opacity:1; 
stroke-linecap:round; stroke-linejoin:round;">
<circle cx="56692.9" cy="29330.7" r="649.606" /> 
</g>
<g style="fill:#FFFFFF; fill-opacity:1.0; 
stroke:#FFFFFF; stroke-width:39.3701; stroke-opacity:1; 
stroke-linecap:round; stroke-linejoin:round;">
</g>
<g style="fill:#FFFFFF; fill-opacity:1.0; 
stroke:#FFFFFF; stroke-width:0; stroke-opacity:1; 
stroke-linecap:round; stroke-linejoin:round;">
<circle cx="22047.2" cy="29330.7" r="649.606" /> 
</g>
<g style="fill:#FFFFFF; fill-opacity:1.0; 
stroke:#FFFFFF; stroke-width:39.3701; stroke-opacity:1; 
stroke-linecap:round; stroke-linejoin:round;">
</g>
<g style="fill:#FFFFFF; fill-opacity:1.0; 
stroke:#FFFFFF; stroke-width:0; stroke-opacity:1; 
stroke-linecap:round; stroke-linejoin:round;">
<circle cx="22047.2" cy="49409.4" r="649.606" /> 
</g>
<g style="fill:#FFFFFF; fill-opacity:1.0; 
stroke:#FFFFFF; stroke-width:39.3701; stroke-opacity:1; 
stroke-linecap:round; stroke-linejoin:round;">
</g>
<g style="fill:#FFFFFF; fill-opacity:1.0; 
stroke:#FFFFFF; stroke-width:0; stroke-opacity:1; 
stroke-linecap:round; stroke-linejoin:round;">
<circle cx="56692.9" cy="49409.4" r="649.606" /> 
</g>
<g style="fill:#FFFFFF; fill-opacity:1.0; 
stroke:#FFFFFF; stroke-width:39.3701; stroke-opacity:1; 
stroke-linecap:round; stroke-linejoin:round;">
</g>
<g style="fill:#000000; fill-opacity:1.0; 
stroke:#000000; stroke-width:39.3701; stroke-opacity:1; 
stroke-linecap:round; stroke-linejoin:round;">
</g>
<g style="fill:#000000; fill-opacity:1.0; 
stroke:#000000; stroke-width:0; stroke-opacity:1; 
stroke-linecap:round; stroke-linejoin:round;">
<circle cx="52204.7" cy="32440.9" r="300" /> 
</g>
<g style="fill:#000000; fill-opacity:1.0; 
stroke:#000000; stroke-width:39.3701; stroke-opacity:1; 
stroke-linecap:round; stroke-linejoin:round;">
</g>
<g style="fill:#000000; fill-opacity:1.0; 
stroke:#000000; stroke-width:0; stroke-opacity:1; 
stroke-linecap:round; stroke-linejoin:round;">
<polyline style="fill-rule:evenodd;"
points="53444,31702
53444,30521
54625,30521
54625,31702
53444,31702
" /> 
</g>
<g style="fill:#000000; fill-opacity:0.0; 
stroke:#000000; stroke-width:0; stroke-opacity:1; 
stroke-linecap:round; stroke-linejoin:round;">
</g>
<g style="fill:#000000; fill-opacity:0.0; 
stroke:#000000; stroke-width:78.7402; stroke-opacity:1; 
stroke-linecap:round; stroke-linejoin:round;">
<path d="M47155 50944
L47118 50926
L47062 50926
L47005 50944
L46968 50982
L46949 51019
L46931 51094
L46931 51151
L46949 51226
L46968 51263
L47005 51301
L47062 51319
L47099 51319
L47155 51301
L47174 51282
L47174 51151
L47099 51151
" />
<path d="M47324 51207
L47512 51207
" />
<path d="M47287 51319
L47418 50926
L47549 51319
" />
<path d="M47680 50926
L47680 51244
L47699 51282
L47718 51301
L47755 51319
L47830 51319
L47868 51301
L47887 51282
L47905 51244
L47905 50926
" />
<path d="M48093 51319
L48093 50926
L48187 50926
L48243 50944
L48280 50982
L48299 51019
L48318 51094
L48318 51151
L48299 51226
L48280 51263
L48243 51301
L48187 51319
L48093 51319
" />
<path d="M48487 51319
L48487 50926
" />
<path d="M48862 51319
L48674 51319
L48674 50926
" />
<path d="M48974 51207
L49161 51207
" />
<path d="M48937 51319
L49068 50926
L49199 51319
" />
<path d="M49461 51113
L49518 51132
L49536 51151
L49555 51188
L49555 51244
L49536 51282
L49518 51301
L49480 51319
L49330 51319
L49330 50926
L49461 50926
L49499 50944
L49518 50963
L49536 51001
L49536 51038
L49518 51076
L49499 51094
L49461 51113
L49330 51113
" />
<path d="M49705 51301
L49761 51319
L49855 51319
L49893 51301
L49911 51282
L49930 51244
L49930 51207
L49911 51169
L49893 51151
L49855 51132
L49780 51113
L49743 51094
L49724 51076
L49705 51038
L49705 51001
L49724 50963
L49743 50944
L49780 50926
L49874 50926
L49930 50944
" />
<path d="M50380 50963
L50399 50944
L50436 50926
L50530 50926
L50568 50944
L50586 50963
L50605 51001
L50605 51038
L50586 51094
L50361 51319
L50605 51319
" />
<path d="M50849 50926
L50886 50926
L50924 50944
L50943 50963
L50961 51001
L50980 51076
L50980 51169
L50961 51244
L50943 51282
L50924 51301
L50886 51319
L50849 51319
L50811 51301
L50793 51282
L50774 51244
L50755 51169
L50755 51076
L50774 51001
L50793 50963
L50811 50944
L50849 50926
" />
<path d="M51355 51319
L51130 51319
" />
<path d="M51242 51319
L51242 50926
L51205 50982
L51167 51019
L51130 51038
" />
<path d="M51692 50926
L51617 50926
L51580 50944
L51561 50963
L51524 51019
L51505 51094
L51505 51244
L51524 51282
L51542 51301
L51580 51319
L51655 51319
L51692 51301
L51711 51282
L51730 51244
L51730 51151
L51711 51113
L51692 51094
L51655 51076
L51580 51076
L51542 51094
L51524 51113
L51505 51151
" />
</g>
<g style="fill:#000000; fill-opacity:0.0; 
stroke:#000000; stroke-width:39.3701; stroke-opacity:1; 
stroke-linecap:round; stroke-linejoin:round;">
<path d="M54822 30523
L54822 31704
" />
<path d="M53444 31901
L54625 31901
" />
<path d="M53247 30523
L53247 31704
" />
<path d="M53444 30326
L54625 30326
" />
<path d="M57874 42913
L57874 45669
" />
<path d="M54133 45866
L57677 45866
" />
<path d="M53937 42913
L53937 45669
" />
<path d="M54133 42716
L57677 42716
" />
<path d="M53740 42913
L53740 45669
" />
<path d="M56692 47834
L58661 47834
" />
<path d="M55118 49409
L55118 51181
" />
<path d="M23622 49409
L23622 51181
" />
<path d="M22047 47834
L20078 47834
" />
<path d="M55118 29330
L55118 27559
" />
<path d="M56692 30905
L58661 30905
" />
<path d="M27165 31496
L34549 31496
" />
<path d="M37007 30314
L41732 30314
" />
<path d="M51574 31496
L44190 31496
" />
<path d="M53149 33070
L53149 45669
" />
<path d="M51574 47244
L44190 47244
" />
<path d="M54133 46062
L57677 46062
" />
<path d="M58070 42913
L58070 45669
" />
<path d="M37007 48425
L41732 48425
" />
<path d="M27165 47244
L34549 47244
" />
<path d="M25590 33070
L25590 45669
" />
<path d="M22047 30905
L20078 30905
" />
<path d="M25990 28099
L26014 28127
" />
<path d="M23622 27559
L24803 27559
" />
<path d="M20078 30905
L20078 47834
" />
<path d="M23622 51181
L24803 51181
" />
<path d="M26014 50613
L25990 50641
" />
<path d="M27795 49803
L50944 49803
" />
<path d="M52725 50613
L52749 50641
" />
<path d="M55118 51181
L53937 51181
" />
<path d="M58661 30905
L58661 47834
" />
<path d="M55118 27559
L53937 27559
" />
<path d="M52749 28099
L52725 28127
" />
<path d="M23622 29330
L23622 27559
" />
<path d="M27795 28937
L50944 28937
" />
<path d="M54133 42519
L57677 42519
" />
<path d="M54822.4 30523.5 A196.85 196.85 0.0 0 0 54625.5 30326.6 " />
<path d="M53247.6 31704.6 A196.85 196.85 0.0 0 0 53444.4 31901.4 " />
<path d="M53444.4 30326.6 A196.85 196.85 0.0 0 0 53247.6 30523.5 " />
<path d="M54625.5 31901.4 A196.85 196.85 0.0 0 0 54822.4 31704.6 " />
<path d="M57677.2 45866.1 A196.85 196.85 0.0 0 0 57874 45669.3 " />
<path d="M57874 42913.4 A196.85 196.85 0.0 0 0 57677.2 42716.5 " />
<path d="M54133.9 42716.5 A196.85 196.85 0.0 0 0 53937 42913.4 " />
<path d="M53937 45669.3 A196.85 196.85 0.0 0 0 54133.9 45866.1 " />
<path d="M56692.9 47834.6 A1574.8 1574.8 0.0 0 0 55118.1 49409.4 " />
<path d="M23622 49409.4 A1574.8 1574.8 0.0 0 0 22047.2 47834.6 " />
<path d="M55118.1 29330.7 A1574.8 1574.8 0.0 0 0 56692.9 30905.5 " />
<path d="M27165.4 31496.1 A1574.8 1574.8 0.0 0 0 25590.6 33070.9 " />
<path d="M37007.9 30315 A3149.61 3149.61 0.0 0 0 34549.8 31495.3 " />
<path d="M44190.9 31496.1 A3149.61 3149.61 0.0 0 0 41733.3 30315 " />
<path d="M53149.6 33070.9 A1574.8 1574.8 0.0 0 0 51574.8 31496.1 " />
<path d="M51574.8 47244.1 A1574.8 1574.8 0.0 0 0 53149.6 45669.3 " />
<path d="M41732.3 48425.2 A3149.61 3149.61 0.0 0 0 44190.3 47244.9 " />
<path d="M34549.2 47244.1 A3149.61 3149.61 0.0 0 0 37006.9 48425.2 " />
<path d="M25590.6 45669.3 A1574.8 1574.8 0.0 0 0 27165.4 47244.1 " />
<path d="M22047.2 30905.5 A1574.8 1574.8 0.0 0 0 23622 29330.7 " />
<path d="M26014.6 28127 A2362.2 2362.2 0.0 0 0 27794.4 28937 " />
<path d="M25990.2 28099 A1574.8 1574.8 0.0 0 0 24803.7 27559.1 " />
<path d="M24803.1 51181.1 A1574.8 1574.8 0.0 0 0 25989.9 50641.5 " />
<path d="M27795.2 49803.1 A2362.2 2362.2 0.0 0 0 26015.2 50612.5 " />
<path d="M52725.5 50613.1 A2362.2 2362.2 0.0 0 0 50945.7 49803.1 " />
<path d="M52749.9 50641.1 A1574.8 1574.8 0.0 0 0 53936.5 51181.1 " />
<path d="M53937 27559.1 A1574.8 1574.8 0.0 0 0 52750.3 28098.6 " />
<path d="M50944.9 28937 A2362.2 2362.2 0.0 0 0 52725 28127.7 " />
<path d="M54133.9 42519.7 A393.701 393.701 0.0 0 0 53740.2 42913.4 " />
<path d="M53740.2 45669.3 A393.701 393.701 0.0 0 0 54133.9 46063 " />
<path d="M57677.2 46063 A393.701 393.701 0.0 0 0 58070.9 45669.3 " />
<path d="M58070.9 42913.4 A393.701 393.701 0.0 0 0 57677.2 42519.7 " />
</g>
<g style="fill:#000000; fill-opacity:1.0; 
stroke:#000000; stroke-width:3.93701; stroke-opacity:1; 
stroke-linecap:round; stroke-linejoin:round;">
<polyline style="fill-rule:evenodd;"
points="24399,27572
24507,27572
24601,27572
24683,27573
24755,27573
24817,27574
24870,27576
24917,27577
24957,27580
24992,27582
25023,27585
25052,27589
25080,27593
25107,27598
25135,27604
25146,27607
25293,27645
25433,27697
25566,27762
25694,27841
25816,27934
25934,28042
26007,28120
26099,28218
26186,28304
26272,28382
26360,28453
26451,28521
26453,28522
26609,28622
26774,28709
26945,28784
27122,28845
27302,28892
27485,28925
27599,28937
27608,28938
27627,28938
27655,28939
27693,28939
27741,28939
27799,28940
27866,28940
27944,28940
28033,28941
28131,28941
28241,28941
28361,28941
28491,28942
28633,28942
28786,28942
28951,28942
29126,28942
29314,28943
29513,28943
29723,28943
29946,28943
30181,28943
30428,28943
30688,28944
30960,28944
31244,28944
31542,28944
31852,28944
32175,28944
32512,28944
32862,28944
33225,28944
33602,28944
33993,28944
34398,28944
34816,28944
35249,28944
35696,28944
36158,28944
36634,28944
37125,28944
37630,28944
38151,28944
38686,28943
39237,28943
39443,28943
51187,28941
51283,28924
51473,28886
51653,28836
51825,28775
51988,28703
52145,28617
52297,28519
52318,28505
52355,28479
52388,28453
52420,28428
52452,28402
52485,28373
52520,28341
52558,28304
52602,28261
52651,28211
52708,28152
52774,28084
52808,28048
52919,27944
53039,27851
53168,27770
53304,27702
53446,27648
53594,27608
53745,27582
53762,27580
53785,27578
53822,27577
53874,27576
53939,27575
54017,27574
54107,27573
54209,27572
54322,27572
54444,27572
54470,27572
55103,27572
55103,28466
55103,28609
55103,28743
55103,28868
55104,28984
55104,29088
55105,29181
55106,29263
55107,29331
55108,29387
55109,29428
55110,29455
55111,29458
55131,29612
55165,29762
55214,29906
55276,30045
55350,30177
55437,30301
55536,30417
55645,30523
55766,30619
55896,30703
55936,30726
56048,30780
56169,30827
56295,30865
56422,30892
56509,30905
56529,30906
56565,30907
56615,30908
56681,30909
56761,30910
56855,30911
56964,30912
57087,30912
57223,30912
57373,30913
57536,30913
57614,30913
58644,30913
58644,47826
57614,47826
57445,47826
57289,47827
57146,47827
57018,47827
56903,47828
56802,47829
56715,47829
56643,47830
56586,47831
56543,47833
56516,47834
56509,47835
56365,47858
56222,47895
56082,47946
55947,48009
55819,48083
55701,48168
55689,48178
55653,48209
55611,48248
55566,48293
55522,48338
55482,48381
55451,48418
55449,48421
55363,48540
55288,48669
55225,48806
55174,48948
55137,49094
55114,49242
55111,49280
55109,49304
55108,49342
55107,49395
55106,49461
55105,49539
55104,49630
55104,49732
55103,49844
55103,49966
55103,50098
55103,50237
55103,50273
55103,51167
54468,51167
54348,51167
54243,51167
54150,51167
54070,51167
54002,51166
53943,51165
53893,51164
53852,51163
53817,51162
53788,51160
53764,51158
53744,51156
53740,51156
53591,51130
53445,51090
53304,51036
53171,50970
53133,50948
53065,50905
53002,50862
52942,50815
52883,50763
52821,50704
52755,50635
52719,50596
52636,50508
52558,50431
52482,50362
52405,50299
52324,50239
52255,50192
52094,50093
51928,50008
51757,49937
51580,49880
51396,49836
51225,49808
51220,49808
51210,49807
51196,49807
51177,49806
51154,49806
51125,49806
51091,49805
51052,49805
51007,49804
50956,49804
50900,49804
50837,49803
50767,49803
50691,49803
50607,49803
50517,49802
50420,49802
50314,49802
50201,49801
50081,49801
49951,49801
49814,49801
49668,49801
49513,49800
49349,49800
49176,49800
48994,49800
48802,49800
48600,49800
48388,49799
48166,49799
47933,49799
47690,49799
47435,49799
47170,49799
46893,49799
46605,49799
46305,49798
45993,49798
45669,49798
45333,49798
44984,49798
44622,49798
44248,49798
43860,49798
43458,49798
43044,49798
42615,49798
42172,49798
41715,49798
41244,49798
40758,49798
40257,49798
39741,49798
39373,49798
38847,49798
38335,49798
37839,49798
37357,49798
36890,49798
36438,49798
35999,49798
35575,49798
35164,49798
34767,49798
34383,49798
34013,49798
33655,49798
33310,49798
32977,49798
32657,49798
32349,49798
32052,49799
31768,49799
31495,49799
31233,49799
30982,49799
30742,49799
30512,49799
30293,49799
30084,49800
29885,49800
29696,49800
29517,49800
29346,49800
29185,49800
29033,49801
28890,49801
28755,49801
28629,49801
28510,49802
28400,49802
28297,49802
28201,49802
28113,49803
28032,49803
27958,49803
27890,49803
27829,49804
27774,49804
27725,49805
27682,49805
27645,49805
27612,49806
27585,49806
27563,49806
27546,49807
27533,49807
27525,49808
27522,49808
27327,49841
27139,49888
26958,49950
26783,50025
26616,50113
26455,50216
26430,50233
26343,50298
26261,50366
26179,50440
26096,50523
26014,50610
25942,50687
25875,50753
25810,50811
25744,50862
25674,50911
25614,50948
25483,51018
25344,51075
25200,51119
25051,51150
25006,51156
24986,51158
24963,51160
24935,51162
24901,51163
24861,51164
24813,51165
24756,51166
24689,51166
24611,51167
24521,51167
24417,51167
24300,51167
24280,51167
23645,51167
23642,50209
23642,50067
23642,49940
23641,49827
23641,49726
23640,49638
23640,49560
23639,49493
23639,49435
23638,49385
23637,49343
23637,49308
23636,49278
23634,49253
23633,49232
23631,49214
23630,49199
23628,49185
23625,49171
23623,49158
23623,49157
23587,48998
23538,48847
23477,48704
23403,48570
23365,48514
25675,48514
25676,48574
25682,48626
25684,48637
25707,48712
25742,48786
25787,48853
25823,48894
25885,48947
25950,48987
26023,49016
26102,49034
26154,49041
26199,49044
26244,49043
26289,49038
26377,49019
26389,49015
26755,49015
26866,49015
27011,48706
27452,48706
27522,48858
27592,49011
27648,49013
27678,49014
27695,49012
27701,49009
27701,49005
27697,48997
27687,48975
27672,48942
27652,48899
27627,48846
27599,48785
27568,48716
27533,48642
27497,48563
27471,48507
27423,48402
27380,48311
27343,48233
27312,48168
27287,48115
27267,48075
27251,48046
27241,48028
27235,48021
27235,48021
27230,48028
27219,48048
27203,48079
27182,48120
27158,48170
27129,48227
27098,48291
27065,48360
27030,48432
26994,48506
26958,48582
26922,48657
26887,48731
26853,48802
26822,48869
26793,48930
26773,48974
26755,49015
27865,49015
27965,49015
27965,48567
28032,48567
28209,48791
28386,49014
28451,49014
28482,49014
28500,49013
28508,49011
28508,49006
28504,49001
28496,48992
28480,48972
28457,48944
28428,48907
28395,48865
28357,48818
28325,48778
28159,48568
28184,48564
28206,48561
28235,48557
28249,48556
28315,48541
28372,48515
28420,48478
28457,48432
28483,48377
28495,48315
28495,48313
28494,48252
28479,48194
28453,48142
28417,48098
28402,48086
28375,48068
28346,48053
28313,48042
28274,48033
28227,48027
28170,48023
28101,48020
28019,48019
28013,48019
27865,48019
28583,48019
28583,48135
28799,48135
28799,49015
28899,49015
29254,49015
29354,49015
29354,48567
29387,48567
29420,48567
29597,48791
29775,49015
29838,49015
29902,49015
29735,48804
29695,48755
29659,48708
29626,48667
29598,48632
29576,48605
29562,48587
29557,48581
29551,48572
29555,48567
29571,48564
29621,48557
29659,48551
29687,48545
29710,48538
29731,48530
29743,48524
29793,48491
29834,48447
29862,48398
29873,48372
29879,48347
29881,48318
29882,48289
29875,48224
29856,48167
29825,48120
29780,48080
29771,48074
29748,48060
29726,48049
29702,48041
29675,48035
29641,48030
29599,48026
29547,48024
29482,48022
29453,48021
29354,48019
30087,48019
30087,49015
30187,49015
30427,49015
30635,49015
30707,49014
30764,49014
30811,49012
30848,49010
30877,49007
30901,49003
30902,49003
30956,48989
31000,48972
31041,48950
31064,48933
31123,48878
31172,48813
31209,48737
31223,48698
31230,48673
31235,48649
31238,48623
31240,48592
31240,48550
31386,48550
31398,48636
31410,48681
31442,48756
31486,48826
31541,48889
31604,48943
31675,48986
31749,49016
31754,49018
31830,49034
31910,49042
31990,49040
32065,49030
32082,49026
32161,48998
32231,48959
32292,48907
32342,48845
32382,48773
32411,48691
32428,48601
32429,48588
32435,48529
32001,48529
32001,48637
32327,48637
32322,48665
32308,48712
32281,48761
32245,48807
32201,48847
32161,48874
32115,48897
32069,48913
32018,48922
31958,48925
31939,48925
31896,48924
31864,48922
31836,48918
31808,48910
31789,48904
31718,48874
31658,48838
31605,48792
31596,48782
31548,48720
31513,48652
31493,48581
31487,48508
31496,48434
31510,48386
31543,48315
31589,48254
31646,48202
31714,48160
31792,48129
31816,48123
31864,48115
31920,48113
31978,48117
32031,48127
32057,48134
32141,48171
32220,48221
32240,48237
32288,48276
32373,48191
32308,48140
32248,48096
32184,48059
32120,48030
32087,48019
32618,48019
32618,49015
33189,49015
33189,48907
32956,48905
32722,48903
32722,48540
32956,48538
33190,48536
33187,48480
33185,48424
32952,48422
32718,48420
32718,48135
33189,48135
33189,48132
33791,48132
33798,48133
33817,48134
33846,48135
33868,48135
33945,48135
33945,49015
34046,49015
34046,48019
33854,48019
33822,48074
33808,48100
33797,48120
33791,48131
33791,48132
33189,48132
33189,48019
32618,48019
32087,48019
32074,48015
32017,48004
31951,47999
31885,47998
31823,48004
31808,48007
31724,48030
31647,48065
31578,48112
31519,48169
31469,48234
31430,48306
31403,48384
31388,48466
31386,48550
31240,48550
31240,48550
31240,48525
31240,48478
31239,48443
31236,48415
31232,48392
31226,48368
31219,48346
31195,48289
31164,48233
31128,48183
31089,48142
31080,48134
31025,48097
30961,48066
30895,48043
30874,48038
30841,48033
30793,48029
30732,48025
30657,48023
30622,48022
30427,48017
30427,49015
30187,49015
30187,48019
30087,48019
29354,48019
29254,48017
29254,49015
28899,49015
28899,48135
29115,48135
29115,48019
28583,48019
27865,48019
27865,49015
26755,49015
26389,49015
26458,48987
26531,48942
26593,48888
26619,48862
26634,48843
26638,48829
26630,48816
26612,48801
26591,48787
26561,48766
26513,48810
26448,48858
26378,48894
26303,48917
26227,48928
26150,48926
26075,48911
26004,48884
25938,48844
25888,48801
25840,48741
25805,48674
25782,48603
25774,48528
25779,48453
25798,48379
25822,48326
25859,48271
25909,48220
25967,48177
26031,48143
26098,48122
26104,48120
26170,48112
26242,48114
26313,48125
26379,48144
26424,48164
26449,48180
26480,48202
26509,48227
26512,48230
26560,48275
26603,48243
26646,48210
26631,48190
26595,48149
26548,48109
26494,48072
26437,48042
26426,48037
26355,48014
26277,48001
26195,47998
26115,48004
26039,48020
26032,48022
25953,48055
25881,48100
25816,48156
25762,48220
25720,48292
25696,48351
25685,48398
25678,48454
25675,48514
23365,48514
23318,48445
23298,48421
23267,48384
23228,48341
23184,48296
23139,48251
23097,48211
23060,48180
23058,48178
22942,48092
22816,48017
22683,47953
22543,47901
22401,47862
22259,47837
22238,47835
22218,47833
22182,47832
22132,47831
22066,47830
21986,47829
21892,47828
21783,47828
21660,47827
21524,47827
21374,47827
21211,47826
21133,47826
20103,47826
20103,39371
25596,39371
25596,39645
25596,39919
25596,40193
25596,40464
25596,40734
25596,41002
25596,41267
25596,41529
25597,41788
25597,42042
25597,42293
25597,42538
25597,42778
25597,43012
25598,43240
25598,43462
25598,43676
25598,43883
25599,44082
25599,44273
25599,44455
25599,44627
25600,44790
25600,44943
25600,45085
25601,45216
25601,45335
25601,45443
25602,45538
25602,45621
25603,45690
25603,45746
25603,45787
25604,45814
25604,45826
25628,45980
25667,46130
25719,46273
25784,46411
25861,46541
25951,46662
26052,46775
26163,46878
26285,46970
26417,47051
26472,47080
26600,47138
26728,47182
26861,47215
27002,47237
27031,47240
27045,47240
27074,47241
27117,47242
27175,47242
27247,47243
27334,47243
27435,47244
27551,47244
27682,47245
27827,47245
27988,47246
28163,47246
28353,47246
28558,47247
28779,47247
29014,47247
29264,47247
29530,47247
29810,47247
30106,47248
30418,47248
30744,47248
30831,47248
34552,47248
34630,47339
34773,47493
34927,47638
35092,47774
35266,47898
35449,48011
35638,48111
35820,48193
35978,48252
36144,48304
36315,48348
36488,48383
36658,48408
36821,48423
36827,48423
36838,48423
36864,48423
36905,48423
36959,48424
37026,48424
37106,48424
37197,48424
37300,48424
37414,48424
37538,48424
37672,48425
37814,48425
37965,48425
38124,48425
38290,48425
38463,48425
38642,48425
38827,48425
39016,48425
39210,48425
39408,48425
39424,48425
39660,48425
39881,48425
40088,48425
40281,48424
40461,48424
40627,48424
40782,48424
40924,48424
41055,48424
41176,48424
41286,48423
41386,48423
41476,48423
41558,48422
41632,48422
41698,48422
41756,48421
41808,48421
41853,48420
41893,48419
41927,48419
41957,48418
41982,48417
42004,48416
42022,48415
42038,48414
42052,48413
42064,48412
42074,48411
42078,48410
42304,48374
42521,48326
42729,48265
42929,48192
43123,48106
43309,48006
43490,47893
43625,47797
43746,47701
43865,47597
43979,47488
44083,47377
44117,47339
44195,47248
47916,47248
48246,47248
48562,47248
48862,47248
49146,47247
49416,47247
49670,47247
49909,47247
50133,47247
50342,47246
50536,47246
50715,47246
50880,47245
51029,47245
51163,47245
51283,47244
51389,47244
51479,47243
51555,47242
51616,47242
51663,47241
51696,47241
51714,47240
51716,47240
51859,47220
51993,47189
52122,47147
52250,47092
52274,47080
52409,47005
52534,46917
52651,46818
52757,46708
52852,46589
52935,46462
53005,46327
53062,46185
53068,46167
53110,46021
53137,45873
53142,45826
53143,45814
53143,45787
53144,45745
53144,45690
53145,45620
53145,45537
53145,45442
53146,45334
53146,45214
53147,45083
53147,44941
53147,44788
53147,44776
53729,44776
53729,44911
53729,45033
53729,45143
53730,45242
53730,45330
53730,45407
53731,45476
53732,45536
53733,45588
53734,45633
53735,45671
53737,45703
53739,45730
53741,45752
53744,45770
53747,45786
53750,45798
53753,45809
53757,45818
53762,45827
53766,45837
53772,45847
53774,45851
53799,45891
53834,45932
53874,45971
53916,46004
53944,46020
53953,46025
53961,46029
53969,46034
53977,46038
53986,46041
53995,46044
54007,46047
54021,46050
54039,46052
54060,46054
54085,46056
54115,46058
54151,46060
54192,46061
54240,46062
54296,46063
54359,46063
54430,46064
54511,46064
54601,46065
54701,46065
54812,46065
54935,46065
55069,46065
55216,46065
55376,46065
55550,46065
55738,46065
55917,46065
57753,46063
57799,46046
57872,46010
57935,45963
57988,45905
58029,45836
58055,45770
58057,45764
58059,45757
58060,45748
58061,45737
58062,45723
58064,45706
58064,45684
58065,45657
58066,45625
58067,45586
58067,45540
58068,45487
58068,45425
58068,45354
58069,45274
58069,45183
58069,45081
58069,44968
58069,44842
58069,44703
58069,44550
58069,44383
58069,44289
58069,42853
58052,42799
58021,42724
57978,42659
57925,42605
57862,42562
57790,42532
57749,42521
57736,42520
57707,42519
57665,42517
57610,42516
57543,42515
57465,42514
57376,42514
57278,42513
57171,42512
57056,42511
56934,42511
56806,42510
56673,42510
56535,42510
56393,42509
56249,42509
56102,42509
55955,42509
55807,42509
55659,42509
55513,42509
55369,42509
55228,42510
55091,42510
54959,42511
54832,42511
54712,42512
54599,42512
54493,42513
54397,42514
54311,42515
54235,42516
54170,42517
54118,42518
54079,42519
54054,42520
54045,42521
53972,42544
53906,42580
53849,42628
53800,42686
53763,42752
53741,42816
53739,42823
53738,42832
53737,42846
53736,42863
53735,42885
53734,42912
53733,42946
53732,42986
53732,43034
53731,43089
53731,43153
53730,43227
53730,43311
53730,43405
53730,43510
53729,43628
53729,43758
53729,43901
53729,44059
53729,44230
53729,44289
53729,44466
53729,44628
53729,44776
53147,44776
53148,44625
53148,44453
53148,44271
53148,44080
53149,43881
53149,43674
53149,43460
53149,43238
53149,43010
53150,42776
53150,42535
53150,42290
53150,42040
53150,41785
53150,41527
53150,41265
53151,40999
53151,40732
53151,40462
53151,40190
53151,39917
53151,39643
53151,39368
53151,39094
53151,38820
53151,38547
53151,38275
53151,38005
53151,37737
53150,37472
53150,37210
53150,36951
53150,36697
53150,36447
53150,36201
53150,35961
53149,35727
53149,35499
53149,35277
53149,35063
53149,34856
53148,34657
53148,34466
53148,34285
53148,34112
53147,33949
53147,33797
53147,33654
53146,33523
53146,33404
53145,33296
53145,33201
53145,33118
53144,33049
53144,32993
53143,32952
53143,32925
53142,32913
53118,32758
53080,32607
53027,32462
52961,32324
52882,32192
52790,32069
52696,31965
52581,31859
52458,31766
52329,31686
52191,31619
52044,31565
51889,31524
51815,31509
51809,31508
51801,31507
51791,31506
51780,31506
51765,31505
51748,31504
51727,31503
51702,31503
51673,31502
51639,31501
51600,31501
51556,31500
51506,31500
51449,31499
51386,31499
51316,31498
51238,31498
51152,31498
51058,31497
50955,31497
50843,31497
50721,31497
50590,31496
50447,31496
50295,31496
50131,31496
49955,31495
49767,31495
49567,31495
49354,31495
49128,31495
48889,31494
48635,31494
48366,31494
48083,31494
47969,31494
44195,31491
44123,31406
44071,31348
44011,31285
43944,31218
43875,31152
43807,31089
43742,31034
43715,31011
43538,30879
43356,30760
43168,30656
42975,30565
42774,30488
42712,30469
53239,30469
53239,31765
53256,31796
53288,31841
53331,31877
53359,31892
53365,31895
53372,31897
53381,31900
53392,31901
53407,31903
53427,31904
53452,31905
53484,31906
53523,31907
53572,31907
53630,31907
53700,31908
53781,31908
53875,31908
53983,31908
54030,31908
54667,31908
54705,31890
54733,31873
54760,31852
54770,31842
54779,31832
54787,31824
54794,31815
54800,31805
54804,31794
54809,31779
54812,31760
54815,31737
54817,31707
54819,31670
54820,31624
54821,31570
54822,31505
54822,31429
54822,31340
54823,31238
54823,31133
54824,31015
54824,30912
54824,30821
54824,30743
54824,30676
54823,30620
54822,30573
54820,30534
54817,30502
54814,30477
54810,30457
54805,30441
54799,30428
54791,30417
54783,30407
54773,30397
54762,30387
54761,30385
54726,30356
54695,30338
54688,30336
54674,30334
54646,30332
54605,30330
54553,30329
54492,30328
54423,30327
54347,30326
54265,30326
54180,30325
54092,30325
54004,30325
53915,30325
53828,30326
53745,30326
53666,30327
53593,30328
53528,30329
53471,30331
53425,30332
53391,30334
53369,30336
53363,30337
53332,30355
53300,30383
53272,30414
53256,30438
53239,30469
42712,30469
42567,30425
42351,30374
42128,30336
42070,30329
42059,30327
42048,30326
42034,30325
42019,30324
42002,30323
41982,30322
41958,30321
41930,30321
41898,30320
41861,30319
41819,30319
41771,30318
41716,30318
41654,30317
41585,30317
41508,30316
41423,30316
41328,30316
41224,30316
41110,30315
40985,30315
40850,30315
40703,30315
40544,30315
40372,30315
40188,30315
39989,30315
39777,30315
39551,30315
39373,30315
39136,30315
38913,30315
38704,30315
38510,30315
38329,30315
38160,30315
38004,30315
37860,30315
37728,30315
37606,30316
37495,30316
37393,30316
37301,30316
37218,30317
37143,30317
37076,30317
37016,30318
36963,30318
36916,30319
36875,30319
36840,30320
36809,30321
36782,30321
36760,30322
36740,30323
36723,30324
36709,30325
36696,30326
36685,30328
36677,30329
36451,30363
36234,30411
36024,30471
35822,30545
35627,30632
35438,30733
35254,30848
35076,30977
35032,31011
34971,31063
34904,31123
34834,31187
34766,31254
34702,31320
34646,31381
34624,31406
34552,31491
30778,31494
30489,31494
30215,31494
29956,31494
29711,31495
29479,31495
29261,31495
29056,31495
28864,31495
28683,31495
28515,31496
28358,31496
28212,31496
28076,31496
27950,31497
27835,31497
27728,31497
27631,31498
27542,31498
27461,31498
27387,31499
27321,31499
27262,31500
27210,31500
27163,31501
27122,31501
27087,31502
27056,31502
27029,31503
27007,31504
26988,31504
26973,31505
26960,31506
26950,31507
26941,31508
26934,31509
26932,31509
26778,31544
26632,31590
26494,31647
26366,31716
26314,31748
26186,31842
26069,31947
25964,32060
25871,32182
25791,32312
25724,32450
25671,32594
25631,32744
25606,32900
25604,32913
25604,32925
25603,32952
25603,32994
25603,33050
25602,33119
25602,33202
25601,33297
25601,33405
25601,33525
25600,33656
25600,33798
25600,33951
25599,34114
25599,34286
25599,34468
25599,34659
25598,34858
25598,35065
25598,35280
25598,35501
25597,35729
25597,35964
25597,36204
25597,36449
25597,36699
25597,36954
25596,37212
25596,37475
25596,37740
25596,38008
25596,38278
25596,38549
25596,38823
25596,39097
25596,39371
20103,39371
20103,30913
21133,30913
21302,30913
21458,30913
21600,30912
21729,30912
21844,30911
21945,30911
22032,30910
22104,30909
22161,30908
22204,30907
22231,30905
22238,30905
22347,30888
22461,30862
22573,30828
22681,30788
22780,30743
22814,30725
22949,30640
23074,30545
23189,30439
23292,30324
23383,30199
23461,30065
23487,30014
23529,29920
23563,29826
23591,29729
23615,29623
23623,29582
23625,29568
23628,29554
23630,29540
23631,29525
23633,29507
23634,29486
23635,29462
23637,29432
23637,29397
23638,29355
23639,29305
23639,29247
23640,29180
23640,29102
23641,29014
23641,28914
23642,28800
23642,28674
23642,28532
23642,28530
23645,27572
24278,27572
24399,27572
" /> 
<polyline style="fill-rule:evenodd;"
points="27236,48254
27245,48271
27259,48298
27276,48331
27295,48370
27316,48411
27335,48453
27354,48492
27370,48528
27383,48557
27392,48577
27394,48586
27387,48587
27366,48588
27335,48589
27295,48590
27248,48590
27232,48590
27184,48590
27142,48590
27107,48589
27083,48588
27071,48587
27070,48586
27073,48578
27082,48558
27096,48529
27112,48494
27131,48453
27151,48411
27171,48370
27190,48330
27207,48296
27220,48270
27229,48253
27231,48248
27236,48254
" /> 
<polyline style="fill-rule:evenodd;"
points="28118,48136
28171,48137
28211,48139
28241,48141
28263,48143
28279,48146
28293,48151
28307,48157
28346,48184
28375,48219
28391,48260
28394,48304
28390,48328
28374,48362
28348,48395
28316,48421
28285,48436
28267,48439
28236,48443
28196,48446
28148,48448
28110,48449
27965,48453
27965,48133
28118,48136
" /> 
<polyline style="fill-rule:evenodd;"
points="29503,48137
29568,48139
29621,48143
29661,48148
29693,48157
29718,48169
29737,48184
29753,48205
29763,48221
29776,48259
29778,48301
29771,48342
29753,48377
29753,48377
29732,48400
29709,48418
29681,48431
29646,48441
29602,48447
29546,48450
29478,48451
29476,48451
29354,48451
29354,48133
29503,48137
" /> 
<polyline style="fill-rule:evenodd;"
points="30664,48138
30713,48140
30760,48143
30803,48147
30837,48151
30852,48154
30926,48177
30990,48211
31044,48257
31086,48313
31118,48380
31129,48416
31142,48494
31143,48570
31131,48641
31107,48707
31072,48765
31027,48814
30971,48853
30957,48860
30931,48871
30904,48880
30873,48887
30836,48893
30790,48897
30734,48901
30668,48904
30527,48909
30527,48133
30664,48138
" /> 
<polyline style="fill-rule:evenodd;"
points="39384,31496
39385,31499
39379,31506
39373,31507
39363,31503
39362,31499
39368,31492
39373,31491
39384,31496
" /> 
<polyline style="fill-rule:evenodd;"
points="57751,42740
57795,42770
57828,42811
57843,42838
57845,42842
57846,42848
57848,42855
57849,42864
57850,42877
57851,42893
57852,42914
57853,42940
57854,42971
57854,43009
57855,43055
57855,43108
57856,43169
57856,43240
57856,43320
57856,43411
57857,43513
57857,43626
57857,43752
57857,43892
57857,44045
57857,44212
57857,44289
57857,45708
57839,45747
57822,45775
57801,45802
57791,45811
57785,45816
57780,45821
57775,45826
57770,45830
57764,45833
57757,45837
57747,45840
57735,45842
57719,45845
57700,45847
57676,45849
57647,45851
57613,45852
57572,45854
57524,45855
57469,45856
57406,45856
57335,45857
57254,45857
57164,45858
57063,45858
56951,45858
56827,45858
56692,45858
56544,45858
56382,45858
56207,45858
56017,45858
55898,45858
55733,45858
55571,45858
55415,45858
55263,45857
55118,45857
54979,45857
54848,45856
54724,45856
54610,45856
54505,45855
54410,45855
54325,45854
54253,45854
54192,45853
54145,45853
54111,45852
54091,45852
54087,45851
54039,45833
53998,45802
53966,45762
53946,45715
53945,45712
53944,45702
53943,45681
53942,45649
53942,45605
53941,45550
53940,45482
53940,45402
53939,45309
53939,45203
53939,45084
53939,44951
53939,44803
53939,44642
53939,44465
53939,44274
53939,44269
53939,44096
53940,43938
53940,43794
53940,43663
53940,43545
53941,43439
53941,43344
53941,43260
53942,43186
53942,43122
53943,43066
53943,43018
53944,42978
53945,42944
53946,42916
53947,42894
53948,42876
53949,42863
53950,42852
53952,42844
53953,42839
53955,42834
53956,42832
53986,42788
54028,42752
54048,42739
54080,42722
57714,42722
57751,42740
" /> 
</g>
<g style="fill:#000000; fill-opacity:0.0; 
stroke:#000000; stroke-width:3.93701; stroke-opacity:1; 
stroke-linecap:round; stroke-linejoin:round;">
</g>
<g style="fill:#000000; fill-opacity:0.0; 
stroke:#000000; stroke-width:59.0551; stroke-opacity:1; 
stroke-linecap:round; stroke-linejoin:round;">
<path d="M55757 27855
L55626 27667
" />
<path d="M55532 27855
L55532 27461
L55682 27461
L55719 27480
L55738 27499
L55757 27536
L55757 27592
L55738 27630
L55719 27649
L55682 27667
L55532 27667
" />
<path d="M55926 27649
L56057 27649
" />
<path d="M56113 27855
L55926 27855
L55926 27461
L56113 27461
" />
<path d="M56413 27649
L56282 27649
" />
<path d="M56282 27855
L56282 27461
L56469 27461
" />
<path d="M57125 27480
L57088 27461
L57032 27461
L56976 27480
L56938 27517
L56919 27555
L56901 27630
L56901 27686
L56919 27761
L56938 27799
L56976 27836
L57032 27855
L57069 27855
L57125 27836
L57144 27817
L57144 27686
L57069 27686
" />
<path d="M57313 27855
L57313 27461
L57538 27855
L57538 27461
" />
<path d="M57725 27855
L57725 27461
L57819 27461
L57875 27480
L57913 27517
L57932 27555
L57950 27630
L57950 27686
L57932 27761
L57913 27799
L57875 27836
L57819 27855
L57725 27855
" />
<path d="M55764 26122
L55764 25729
L55896 26010
L56027 25729
L56027 26122
" />
<path d="M56271 26122
L56233 26104
L56214 26085
L56196 26047
L56196 25935
L56214 25898
L56233 25879
L56271 25860
L56327 25860
L56364 25879
L56383 25898
L56402 25935
L56402 26047
L56383 26085
L56364 26104
L56327 26122
L56271 26122
" />
<path d="M56739 25860
L56739 26122
" />
<path d="M56571 25860
L56571 26066
L56589 26104
L56627 26122
L56683 26122
L56721 26104
L56739 26085
" />
<path d="M56927 25860
L56927 26122
" />
<path d="M56927 25898
L56946 25879
L56983 25860
L57039 25860
L57077 25879
L57095 25916
L57095 26122
" />
<path d="M57227 25860
L57377 25860
" />
<path d="M57283 25729
L57283 26066
L57302 26104
L57339 26122
L57377 26122
" />
<path d="M57508 26122
L57508 25729
L57658 25729
L57695 25748
L57714 25766
L57733 25804
L57733 25860
L57714 25898
L57695 25916
L57658 25935
L57508 25935
" />
<path d="M58070 26122
L58070 25916
L58052 25879
L58014 25860
L57939 25860
L57902 25879
" />
<path d="M58070 26104
L58033 26122
L57939 26122
L57902 26104
L57883 26066
L57883 26029
L57902 25991
L57939 25973
L58033 25973
L58070 25954
" />
<path d="M58427 26122
L58427 25729
" />
<path d="M58427 26104
L58389 26122
L58314 26122
L58277 26104
L58258 26085
L58239 26047
L58239 25935
L58258 25898
L58277 25879
L58314 25860
L58389 25860
L58427 25879
" />
<path d="M58577 25729
L58820 25729
L58689 25879
L58745 25879
L58783 25898
L58802 25916
L58820 25954
L58820 26047
L58802 26085
L58783 26104
L58745 26122
L58633 26122
L58595 26104
L58577 26085
" />
<path d="M22339 26004
L22339 25611
L22470 25892
L22602 25611
L22602 26004
" />
<path d="M22845 26004
L22808 25986
L22789 25967
L22770 25929
L22770 25817
L22789 25779
L22808 25761
L22845 25742
L22902 25742
L22939 25761
L22958 25779
L22977 25817
L22977 25929
L22958 25967
L22939 25986
L22902 26004
L22845 26004
" />
<path d="M23314 25742
L23314 26004
" />
<path d="M23145 25742
L23145 25948
L23164 25986
L23202 26004
L23258 26004
L23295 25986
L23314 25967
" />
<path d="M23502 25742
L23502 26004
" />
<path d="M23502 25779
L23520 25761
L23558 25742
L23614 25742
L23652 25761
L23670 25798
L23670 26004
" />
<path d="M23802 25742
L23952 25742
" />
<path d="M23858 25611
L23858 25948
L23877 25986
L23914 26004
L23952 26004
" />
<path d="M24083 26004
L24083 25611
L24233 25611
L24270 25629
L24289 25648
L24308 25686
L24308 25742
L24289 25779
L24270 25798
L24233 25817
L24083 25817
" />
<path d="M24645 26004
L24645 25798
L24626 25761
L24589 25742
L24514 25742
L24476 25761
" />
<path d="M24645 25986
L24608 26004
L24514 26004
L24476 25986
L24458 25948
L24458 25911
L24476 25873
L24514 25854
L24608 25854
L24645 25836
" />
<path d="M25001 26004
L25001 25611
" />
<path d="M25001 25986
L24964 26004
L24889 26004
L24851 25986
L24833 25967
L24814 25929
L24814 25817
L24833 25779
L24851 25761
L24889 25742
L24964 25742
L25001 25761
" />
<path d="M25151 25611
L25395 25611
L25264 25761
L25320 25761
L25358 25779
L25376 25798
L25395 25836
L25395 25929
L25376 25967
L25358 25986
L25320 26004
L25208 26004
L25170 25986
L25151 25967
" />
<path d="M14820 47619
L14820 47225
L14951 47506
L15082 47225
L15082 47619
" />
<path d="M15326 47619
L15288 47600
L15269 47581
L15251 47544
L15251 47431
L15269 47394
L15288 47375
L15326 47356
L15382 47356
L15419 47375
L15438 47394
L15457 47431
L15457 47544
L15438 47581
L15419 47600
L15382 47619
L15326 47619
" />
<path d="M15794 47356
L15794 47619
" />
<path d="M15626 47356
L15626 47562
L15644 47600
L15682 47619
L15738 47619
L15776 47600
L15794 47581
" />
<path d="M15982 47356
L15982 47619
" />
<path d="M15982 47394
L16001 47375
L16038 47356
L16094 47356
L16132 47375
L16151 47412
L16151 47619
" />
<path d="M16282 47356
L16432 47356
" />
<path d="M16338 47225
L16338 47562
L16357 47600
L16394 47619
L16432 47619
" />
<path d="M16563 47619
L16563 47225
L16713 47225
L16751 47244
L16769 47262
L16788 47300
L16788 47356
L16769 47394
L16751 47412
L16713 47431
L16563 47431
" />
<path d="M17125 47619
L17125 47412
L17107 47375
L17069 47356
L16994 47356
L16957 47375
" />
<path d="M17125 47600
L17088 47619
L16994 47619
L16957 47600
L16938 47562
L16938 47525
L16957 47487
L16994 47469
L17088 47469
L17125 47450
" />
<path d="M17482 47619
L17482 47225
" />
<path d="M17482 47600
L17444 47619
L17369 47619
L17332 47600
L17313 47581
L17294 47544
L17294 47431
L17313 47394
L17332 47375
L17369 47356
L17444 47356
L17482 47375
" />
<path d="M17632 47225
L17875 47225
L17744 47375
L17800 47375
L17838 47394
L17857 47412
L17875 47450
L17875 47544
L17857 47581
L17838 47600
L17800 47619
L17688 47619
L17650 47600
L17632 47581
" />
<path d="M59780 47540
L59780 47146
L59911 47427
L60043 47146
L60043 47540
" />
<path d="M60286 47540
L60249 47521
L60230 47502
L60211 47465
L60211 47352
L60230 47315
L60249 47296
L60286 47277
L60343 47277
L60380 47296
L60399 47315
L60418 47352
L60418 47465
L60399 47502
L60380 47521
L60343 47540
L60286 47540
" />
<path d="M60755 47277
L60755 47540
" />
<path d="M60586 47277
L60586 47484
L60605 47521
L60643 47540
L60699 47540
L60736 47521
L60755 47502
" />
<path d="M60943 47277
L60943 47540
" />
<path d="M60943 47315
L60961 47296
L60999 47277
L61055 47277
L61092 47296
L61111 47334
L61111 47540
" />
<path d="M61242 47277
L61392 47277
" />
<path d="M61299 47146
L61299 47484
L61317 47521
L61355 47540
L61392 47540
" />
<path d="M61524 47540
L61524 47146
L61674 47146
L61711 47165
L61730 47184
L61749 47221
L61749 47277
L61730 47315
L61711 47334
L61674 47352
L61524 47352
" />
<path d="M62086 47540
L62086 47334
L62067 47296
L62030 47277
L61955 47277
L61917 47296
" />
<path d="M62086 47521
L62049 47540
L61955 47540
L61917 47521
L61899 47484
L61899 47446
L61917 47409
L61955 47390
L62049 47390
L62086 47371
" />
<path d="M62442 47540
L62442 47146
" />
<path d="M62442 47521
L62405 47540
L62330 47540
L62292 47521
L62274 47502
L62255 47465
L62255 47352
L62274 47315
L62292 47296
L62330 47277
L62405 47277
L62442 47296
" />
<path d="M62592 47146
L62836 47146
L62705 47296
L62761 47296
L62799 47315
L62817 47334
L62836 47371
L62836 47465
L62817 47502
L62799 47521
L62761 47540
L62649 47540
L62611 47521
L62592 47502
" />
<path d="M59662 26871
L59662 26477
L59793 26758
L59925 26477
L59925 26871
" />
<path d="M60168 26871
L60131 26852
L60112 26833
L60093 26796
L60093 26683
L60112 26646
L60131 26627
L60168 26608
L60224 26608
L60262 26627
L60281 26646
L60299 26683
L60299 26796
L60281 26833
L60262 26852
L60224 26871
L60168 26871
" />
<path d="M60637 26608
L60637 26871
" />
<path d="M60468 26608
L60468 26814
L60487 26852
L60524 26871
L60581 26871
L60618 26852
L60637 26833
" />
<path d="M60824 26608
L60824 26871
" />
<path d="M60824 26646
L60843 26627
L60881 26608
L60937 26608
L60974 26627
L60993 26664
L60993 26871
" />
<path d="M61124 26608
L61274 26608
" />
<path d="M61181 26477
L61181 26814
L61199 26852
L61237 26871
L61274 26871
" />
<path d="M61406 26871
L61406 26477
L61556 26477
L61593 26496
L61612 26514
L61631 26552
L61631 26608
L61612 26646
L61593 26664
L61556 26683
L61406 26683
" />
<path d="M61968 26871
L61968 26664
L61949 26627
L61912 26608
L61837 26608
L61799 26627
" />
<path d="M61968 26852
L61931 26871
L61837 26871
L61799 26852
L61781 26814
L61781 26777
L61799 26739
L61837 26721
L61931 26721
L61968 26702
" />
<path d="M62324 26871
L62324 26477
" />
<path d="M62324 26852
L62287 26871
L62212 26871
L62174 26852
L62155 26833
L62137 26796
L62137 26683
L62155 26646
L62174 26627
L62212 26608
L62287 26608
L62324 26627
" />
<path d="M62474 26477
L62718 26477
L62587 26627
L62643 26627
L62680 26646
L62699 26664
L62718 26702
L62718 26796
L62699 26833
L62680 26852
L62643 26871
L62530 26871
L62493 26852
L62474 26833
" />
<path d="M59938 28012
L59938 27619
L60069 27900
L60200 27619
L60200 28012
" />
<path d="M60444 28012
L60406 27994
L60388 27975
L60369 27937
L60369 27825
L60388 27787
L60406 27769
L60444 27750
L60500 27750
L60538 27769
L60556 27787
L60575 27825
L60575 27937
L60556 27975
L60538 27994
L60500 28012
L60444 28012
" />
<path d="M60913 27750
L60913 28012
" />
<path d="M60744 27750
L60744 27956
L60763 27994
L60800 28012
L60856 28012
L60894 27994
L60913 27975
" />
<path d="M61100 27750
L61100 28012
" />
<path d="M61100 27787
L61119 27769
L61156 27750
L61212 27750
L61250 27769
L61269 27806
L61269 28012
" />
<path d="M61400 27750
L61550 27750
" />
<path d="M61456 27619
L61456 27956
L61475 27994
L61512 28012
L61550 28012
" />
<path d="M61681 28012
L61681 27619
L61831 27619
L61869 27637
L61887 27656
L61906 27694
L61906 27750
L61887 27787
L61869 27806
L61831 27825
L61681 27825
" />
<path d="M62244 28012
L62244 27806
L62225 27769
L62187 27750
L62112 27750
L62075 27769
" />
<path d="M62244 27994
L62206 28012
L62112 28012
L62075 27994
L62056 27956
L62056 27919
L62075 27881
L62112 27862
L62206 27862
L62244 27844
" />
<path d="M62600 28012
L62600 27619
" />
<path d="M62600 27994
L62562 28012
L62487 28012
L62450 27994
L62431 27975
L62412 27937
L62412 27825
L62431 27787
L62450 27769
L62487 27750
L62562 27750
L62600 27769
" />
<path d="M62750 27619
L62994 27619
L62862 27769
L62919 27769
L62956 27787
L62975 27806
L62994 27844
L62994 27937
L62975 27975
L62956 27994
L62919 28012
L62806 28012
L62769 27994
L62750 27975
" />
</g>
<g style="fill:#000000; fill-opacity:0.0; 
stroke:#000000; stroke-width:39.3701; stroke-opacity:1; 
stroke-linecap:round; stroke-linejoin:round;">
<path d="M43437.1 32480.3 A1968.5 1968.5 0.0 0 0 41732.3 31496.1 " />
<path d="M35303.1 46259.8 A1968.5 1968.5 0.0 0 0 37007.9 47244.1 " />
<path d="M51968.5 33070.9 A393.701 393.701 0.0 0 0 51574.8 32677.2 " />
<path d="M37007.9 31496.1 A1968.5 1968.5 0.0 0 0 35303.1 32480.3 " />
<path d="M27165.4 32677.2 A393.701 393.701 0.0 0 0 26771.7 33070.9 " />
<path d="M26771.7 45669.3 A393.701 393.701 0.0 0 0 27165.4 46063 " />
<path d="M41732.3 47244.1 A1968.5 1968.5 0.0 0 0 43437.1 46259.8 " />
<path d="M51574.8 46063 A393.701 393.701 0.0 0 0 51968.5 45669.3 " />
<path d="M26771 33070
L26771 45669
" />
<path d="M35189 32677
L35303 32480
" />
<path d="M37007 31496
L41732 31496
" />
<path d="M27165 32677
L35189 32677
" />
<path d="M43550 32677
L43437 32480
" />
<path d="M51968 33070
L51968 45669
" />
<path d="M51574 32677
L43550 32677
" />
<path d="M43550 46062
L43437 46259
" />
<path d="M51574 46062
L43550 46062
" />
<path d="M37007 47244
L41732 47244
" />
<path d="M35189 46062
L35303 46259
" />
<path d="M27165 46062
L35189 46062
" />
<path d="M59055 27559
L59055 51181
" />
<path d="M19685 27559
L19685 51181
" />
<path d="M20078 51574
L58661 51574
" />
<path d="M58661 27165
L20078 27165
" />
<path d="M19685 51181.1 A393.701 393.701 0.0 0 0 20078.7 51574.8 " />
<path d="M58661.4 51574.8 A393.701 393.701 0.0 0 0 59055.1 51181.1 " />
<path d="M59055.1 27559.1 A393.701 393.701 0.0 0 0 58661.4 27165.4 " />
<path d="M20078.7 27165.4 A393.701 393.701 0.0 0 0 19685 27559.1 " />
</g> 
</svg>
