  0
SECTION
  2
HEADER
  9
$ACADVER
  1
AC1014
  9
$HANDSEED
  5
FFFF
  9
$MEASUREMENT
 70
     1
  0
ENDSEC
  0
SECTION
  2
TABLES
  0
TABLE
  2
VPORT
  5
8
330
0
100
AcDbSymbolTable
 70
     4
  0
VPORT
  5
2E
330
8
100
AcDbSymbolTableRecord
100
AcDbViewportTableRecord
  2
*ACTIVE
 70
     0
 10
0.0
 20
0.0
 11
1.0
 21
1.0
 12
210.0
 22
148.5
 13
0.0
 23
0.0
 14
10.0
 24
10.0
 15
10.0
 25
10.0
 16
0.0
 26
0.0
 36
1.0
 17
0.0
 27
0.0
 37
0.0
 40
341.0
 41
1.24
 42
50.0
 43
0.0
 44
0.0
 50
0.0
 51
0.0
 71
     0
 72
   100
 73
     1
 74
     3
 75
     0
 76
     0
 77
     0
 78
     0
  0
ENDTAB
  0
TABLE
  2
LTYPE
  5
5
330
0
100
AcDbSymbolTable
 70
     1
  0
LTYPE
  5
14
330
5
100
AcDbSymbolTableRecord
100
AcDbLinetypeTableRecord
  2
BYBLOCK
 70
     0
  3

 72
    65
 73
     0
 40
0.0
  0
LTYPE
  5
15
330
5
100
AcDbSymbolTableRecord
100
AcDbLinetypeTableRecord
  2
BYLAYER
 70
     0
  3

 72
    65
 73
     0
 40
0.0
  0
LTYPE
  5
16
330
5
100
AcDbSymbolTableRecord
100
AcDbLinetypeTableRecord
  2
CONTINUOUS
 70
     0
  3
Solid line
 72
    65
 73
     0
 40
0.0
  0
ENDTAB
  0
TABLE
  2
LAYER
  5
2
100
AcDbSymbolTable
 70
2
  0
LAYER
  5
50
100
AcDbSymbolTableRecord
100
AcDbLayerTableRecord
  2
0
 70
0
  6
CONTINUOUS
  0
LAYER
  5
51
100
AcDbSymbolTableRecord
100
AcDbLayerTableRecord
  2
Layer_1
 70
0
  6
CONTINUOUS
  0
ENDTAB
  0
TABLE
  2
STYLE
  5
3
330
0
100
AcDbSymbolTable
 70
     1
  0
STYLE
  5
11
330
3
100
AcDbSymbolTableRecord
100
AcDbTextStyleTableRecord
  2
STANDARD
 70
     0
 40
0.0
 41
1.0
 50
0.0
 71
     0
 42
2.5
  3
txt
  4

  0
ENDTAB
  0
TABLE
  2
VIEW
  5
6
330
0
100
AcDbSymbolTable
 70
     0
  0
ENDTAB
  0
TABLE
  2
UCS
  5
7
330
0
100
AcDbSymbolTable
 70
     0
  0
ENDTAB
  0
TABLE
  2
APPID
  5
9
330
0
100
AcDbSymbolTable
 70
     2
  0
APPID
  5
12
330
9
100
AcDbSymbolTableRecord
100
AcDbRegAppTableRecord
  2
ACAD
 70
     0
  0
ENDTAB
  0
TABLE
  2
DIMSTYLE
  5
A
330
0
100
AcDbSymbolTable
 70
     1
  0
DIMSTYLE
105
27
330
A
100
AcDbSymbolTableRecord
100
AcDbDimStyleTableRecord
  2
ISO-25
 70
     0
  3

  4

  5

  6

  7

 40
1.0
 41
2.5
 42
0.625
 43
3.75
 44
1.25
 45
0.0
 46
0.0
 47
0.0
 48
0.0
140
2.5
141
2.5
142
0.0
143
0.03937007874016
144
1.0
145
0.0
146
1.0
147
0.625
 71
     0
 72
     0
 73
     0
 74
     0
 75
     0
 76
     0
 77
     1
 78
     8
170
     0
171
     3
172
     1
173
     0
174
     0
175
     0
176
     0
177
     0
178
     0
270
     2
271
     2
272
     2
273
     2
274
     3
340
11
275
     0
280
     0
281
     0
282
     0
283
     0
284
     8
285
     0
286
     0
287
     3
288
     0
  0
ENDTAB
  0
TABLE
  2
BLOCK_RECORD
  5
1
330
0
100
AcDbSymbolTable
 70
     1
  0
BLOCK_RECORD
  5
1F
330
1
100
AcDbSymbolTableRecord
100
AcDbBlockTableRecord
  2
*MODEL_SPACE
  0
BLOCK_RECORD
  5
1B
330
1
100
AcDbSymbolTableRecord
100
AcDbBlockTableRecord
  2
*PAPER_SPACE
  0
ENDTAB
  0
ENDSEC
  0
SECTION
  2
BLOCKS
  0
BLOCK
  5
20
330
1F
100
AcDbEntity
  8
0
100
AcDbBlockBegin
  2
*MODEL_SPACE
 70
     0
 10
0.0
 20
0.0
 30
0.0
  3
*MODEL_SPACE
  1

  0
ENDBLK
  5
21
330
1F
100
AcDbEntity
  8
0
100
AcDbBlockEnd
  0
BLOCK
  5
1C
330
1B
100
AcDbEntity
 67
     1
  8
0
100
AcDbBlockBegin
  2
*PAPER_SPACE
  1

  0
ENDBLK
  5
1D
330
1B
100
AcDbEntity
 67
     1
  8
0
100
AcDbBlockEnd
  0
ENDSEC
  0
SECTION
  2
ENTITIES
  0
LWPOLYLINE
  5
100
100
AcDbEntity
  8
Layer_1
 62
7
100
AcDbPolyline
 90
40
 70
1
 10
66.856100
 20
174.904280
 30
0.0
 10
66.856100
 20
182.894720
 30
0.0
 10
66.856100
 20
190.885160
 30
0.0
 10
66.856100
 20
198.875610
 30
0.0
 10
66.856100
 20
206.866050
 30
0.0
 10
84.360040
 20
206.866050
 30
0.0
 10
101.863980
 20
206.866050
 30
0.0
 10
119.367920
 20
206.866050
 30
0.0
 10
136.871860
 20
206.866050
 30
0.0
 10
136.871860
 20
198.875610
 30
0.0
 10
136.871860
 20
190.885160
 30
0.0
 10
136.871860
 20
182.894720
 30
0.0
 10
136.871860
 20
174.904280
 30
0.0
 10
132.104060
 20
174.903780
 30
0.0
 10
127.336260
 20
174.903280
 30
0.0
 10
122.568470
 20
174.902780
 30
0.0
 10
117.800670
 20
174.902280
 30
0.0
 10
117.516050
 20
174.314010
 30
0.0
 10
116.658440
 20
172.867560
 30
0.0
 10
115.222170
 20
171.040520
 30
0.0
 10
113.201620
 20
169.310460
 30
0.0
 10
111.671300
 20
168.529600
 30
0.0
 10
110.057640
 20
167.920400
 30
0.0
 10
108.382900
 20
167.523450
 30
0.0
 10
106.669330
 20
167.379320
 30
0.0
 10
104.266660
 20
167.379320
 30
0.0
 10
101.863980
 20
167.379330
 30
0.0
 10
99.461310
 20
167.379330
 30
0.0
 10
97.058640
 20
167.379330
 30
0.0
 10
96.306850
 20
167.404630
 30
0.0
 10
94.834120
 20
167.607770
 30
0.0
 10
92.840570
 20
168.179460
 30
0.0
 10
90.526350
 20
169.310450
 30
0.0
 10
88.506020
 20
171.040750
 30
0.0
 10
87.070240
 20
172.868300
 30
0.0
 10
86.213110
 20
174.315250
 30
0.0
 10
85.928710
 20
174.903760
 30
0.0
 10
81.160560
 20
174.903890
 30
0.0
 10
76.392410
 20
174.904010
 30
0.0
 10
71.624250
 20
174.904140
 30
0.0
  0
LWPOLYLINE
  5
101
100
AcDbEntity
  8
Layer_1
 62
7
100
AcDbPolyline
 90
80
 70
1
 10
61.864932
 20
211.861828
 30
0.0
 10
61.476100
 20
211.783321
 30
0.0
 10
61.158600
 20
211.569233
 30
0.0
 10
60.944526
 20
211.251715
 30
0.0
 10
60.866024
 20
210.862920
 30
0.0
 10
60.866024
 20
202.978260
 30
0.0
 10
60.866024
 20
195.093600
 30
0.0
 10
60.866024
 20
187.208937
 30
0.0
 10
60.866024
 20
179.324277
 30
0.0
 10
61.641094
 20
179.167149
 30
0.0
 10
62.273925
 20
178.739998
 30
0.0
 10
62.700592
 20
178.106826
 30
0.0
 10
62.857119
 20
177.331634
 30
0.0
 10
62.700751
 20
176.556278
 30
0.0
 10
62.274110
 20
175.922937
 30
0.0
 10
61.641227
 20
175.495656
 30
0.0
 10
60.866024
 20
175.338475
 30
0.0
 10
60.866024
 20
173.961687
 30
0.0
 10
60.866024
 20
172.584896
 30
0.0
 10
60.866024
 20
171.208107
 30
0.0
 10
60.866024
 20
169.831319
 30
0.0
 10
62.472759
 20
169.831186
 30
0.0
 10
64.079521
 20
169.831054
 30
0.0
 10
65.686256
 20
169.830922
 30
0.0
 10
67.293018
 20
169.830789
 30
0.0
 10
69.118246
 20
169.633630
 30
0.0
 10
70.840630
 20
169.061008
 30
0.0
 10
72.403445
 20
168.138827
 30
0.0
 10
73.749989
 20
166.892986
 30
0.0
 10
73.782929
 20
166.855002
 30
0.0
 10
73.815870
 20
166.817021
 30
0.0
 10
73.848837
 20
166.779038
 30
0.0
 10
73.881777
 20
166.741057
 30
0.0
 10
75.902824
 20
164.872101
 30
0.0
 10
78.247455
 20
163.488796
 30
0.0
 10
80.830794
 20
162.630006
 30
0.0
 10
83.567988
 20
162.334607
 30
0.0
 10
92.710586
 20
162.334607
 30
0.0
 10
101.853183
 20
162.334607
 30
0.0
 10
110.995781
 20
162.334607
 30
0.0
 10
120.138378
 20
162.334607
 30
0.0
 10
122.876154
 20
162.629072
 30
0.0
 10
125.459943
 20
163.486978
 30
0.0
 10
127.804760
 20
164.869794
 30
0.0
 10
129.825647
 20
166.738990
 30
0.0
 10
129.859223
 20
166.777876
 30
0.0
 10
129.892825
 20
166.816765
 30
0.0
 10
129.926401
 20
166.855650
 30
0.0
 10
129.960003
 20
166.894536
 30
0.0
 10
131.309298
 20
168.140494
 30
0.0
 10
132.873383
 20
169.062323
 30
0.0
 10
134.595820
 20
169.634320
 30
0.0
 10
136.420069
 20
169.830789
 30
0.0
 10
138.027201
 20
169.830922
 30
0.0
 10
139.634333
 20
169.831054
 30
0.0
 10
141.241492
 20
169.831186
 30
0.0
 10
142.848624
 20
169.831319
 30
0.0
 10
142.848624
 20
171.208237
 30
0.0
 10
142.848624
 20
172.585155
 30
0.0
 10
142.848624
 20
173.962073
 30
0.0
 10
142.848624
 20
175.338991
 30
0.0
 10
142.077363
 20
175.499530
 30
0.0
 10
141.448396
 20
175.927459
 30
0.0
 10
141.024745
 20
176.559315
 30
0.0
 10
140.869435
 20
177.331634
 30
0.0
 10
141.025063
 20
178.104165
 30
0.0
 10
141.449137
 20
178.736024
 30
0.0
 10
142.078554
 20
179.163720
 30
0.0
 10
142.850185
 20
179.323762
 30
0.0
 10
142.852831
 20
187.208551
 30
0.0
 10
142.855477
 20
195.093341
 30
0.0
 10
142.858122
 20
202.978130
 30
0.0
 10
142.860768
 20
210.862920
 30
0.0
 10
142.782266
 20
211.251715
 30
0.0
 10
142.568166
 20
211.569233
 30
0.0
 10
142.250666
 20
211.783321
 30
0.0
 10
141.861860
 20
211.861828
 30
0.0
 10
121.862033
 20
211.861828
 30
0.0
 10
101.862205
 20
211.861828
 30
0.0
 10
81.862378
 20
211.861828
 30
0.0
  0
ENDSEC
  0
SECTION
  2
OBJECTS
  0
DICTIONARY
  5
C
330
0
100
AcDbDictionary
  3
ACAD_GROUP
350
D
  3
ACAD_MLINESTYLE
350
17
  0
DICTIONARY
  5
D
330
C
100
AcDbDictionary
  0
DICTIONARY
  5
1A
330
C
100
AcDbDictionary
  0
DICTIONARY
  5
17
330
C
100
AcDbDictionary
  3
STANDARD
350
18
  0
DICTIONARY
  5
19
330
C
100
AcDbDictionary
  0
ENDSEC
  0
EOF
