M48
;DRILL file {KiCad 5.0.2-bee76a0~70~ubuntu18.04.1} date Di 07 Apr 2020 14:55:29 CEST
;FORMAT={-:-/ absolute / inch / decimal}
FMAT,2
INCH,TZ
T1C0.0197
T2C0.0256
T3C0.0295
T4C0.0413
T5C0.1260
%
G90
G05
T1
X5.9173Y-5.0394
X5.9173Y-1.6614
X5.9173Y-5.1339
X1.9567Y-1.5354
X5.9173Y-5.0709
X1.9567Y-1.5669
X1.9567Y-5.1339
X5.9173Y-1.6929
X5.9173Y-1.6299
X5.9173Y-5.0079
X1.9567Y-1.6614
X1.9567Y-5.0709
X1.9567Y-5.0394
X5.9173Y-5.1024
X1.9567Y-4.9764
X1.9567Y-5.0079
X5.9173Y-1.5669
X1.9567Y-1.6299
X1.9567Y-1.6929
X1.9567Y-1.5984
X5.9173Y-1.5984
X5.9173Y-1.5354
X1.9567Y-5.1024
X5.9173Y-4.9764
T2
X5.0551Y-1.585
T3
X3.9899Y-5.4241
T4
X3.8841Y-5.5299
T5
X2.2047Y-5.2756
X2.2047Y-2.9134
X5.6693Y-5.2756
X5.6693Y-2.9134
T2
X5.3327Y-1.585G85X5.3445Y-1.585
G05
T0
M30
