M48
;DRILL file {KiCad 4.0.7-e2-6376~58~ubuntu16.04.1} date Mon Aug 20 17:04:11 2018
;FORMAT={-:-/ absolute / inch / decimal}
FMAT,2
INCH,TZ
T1C0.020
T2C0.026
T3C0.030
T4C0.041
T5C0.126
%
G90
G05
M72
T1
X1.9567Y-1.5354
X1.9567Y-1.5669
X1.9567Y-1.5984
X1.9567Y-1.6299
X1.9567Y-1.6614
X1.9567Y-1.6929
X1.9567Y-4.8425
X1.9567Y-4.874
X1.9567Y-4.9055
X1.9567Y-4.937
X1.9567Y-4.9685
X1.9567Y-5.
X5.9173Y-1.5354
X5.9173Y-1.5669
X5.9173Y-1.5984
X5.9173Y-1.6299
X5.9173Y-1.6614
X5.9173Y-1.6929
X5.9173Y-4.8425
X5.9173Y-4.874
X5.9173Y-4.9055
X5.9173Y-4.937
X5.9173Y-4.9685
X5.9173Y-5.
T2
X5.0551Y-1.585
T3
X3.9899Y-5.3375
T4
X3.8841Y-5.4433
T5
X2.2047Y-2.9134
X2.2047Y-4.9213
X5.6693Y-2.9134
X5.6693Y-4.9213
T2
X5.3327Y-1.585G85X5.3445Y-1.585
G05
T0
M30
