M48
;DRILL file {KiCad 4.0.7-e2-6376~58~ubuntu16.04.1} date Mon Aug 20 17:04:11 2018
;FORMAT={-:-/ absolute / inch / decimal}
FMAT,2
INCH,TZ
T1C0.012
T2C0.014
T3C0.016
T4C0.020
T5C0.024
T6C0.032
T7C0.039
%
G90
G05
M72
T1
X2.8543Y-3.6467
X2.8543Y-3.6467
X2.8543Y-4.188
X2.8543Y-4.188
X3.0167Y-3.6467
X3.0167Y-3.6467
X3.0167Y-4.188
X3.0167Y-4.188
X3.0709Y-3.5384
X3.0709Y-3.5384
X3.0709Y-3.7549
X3.0709Y-3.7549
X3.0709Y-4.0797
X3.0709Y-4.0797
X3.0709Y-4.2963
X3.0709Y-4.2963
X3.125Y-3.6467
X3.125Y-3.6467
X3.125Y-4.188
X3.125Y-4.188
X3.2333Y-3.5384
X3.2333Y-3.5384
X3.2333Y-3.6467
X3.2333Y-3.6467
X3.2333Y-3.7549
X3.2333Y-3.7549
X3.2333Y-3.8632
X3.2333Y-3.8632
X3.2333Y-3.9715
X3.2333Y-3.9715
X3.2333Y-4.0797
X3.2333Y-4.0797
X3.2333Y-4.188
X3.2333Y-4.188
X3.2333Y-4.2963
X3.2333Y-4.2963
X3.3415Y-3.5384
X3.3415Y-3.5384
X3.3415Y-3.6467
X3.3415Y-3.6467
X3.3415Y-3.7549
X3.3415Y-3.7549
X3.3415Y-3.8632
X3.3415Y-3.8632
X3.3415Y-3.9715
X3.3415Y-3.9715
X3.3415Y-4.0797
X3.3415Y-4.0797
X3.3415Y-4.188
X3.3415Y-4.188
X3.3415Y-4.2963
X3.3415Y-4.2963
X3.4498Y-3.5384
X3.4498Y-3.5384
X3.4498Y-3.6467
X3.4498Y-3.6467
X3.4498Y-3.7549
X3.4498Y-3.7549
X3.4498Y-3.8632
X3.4498Y-3.8632
X3.4498Y-3.9715
X3.4498Y-3.9715
X3.4498Y-4.0797
X3.4498Y-4.0797
X3.4498Y-4.188
X3.4498Y-4.188
X3.4498Y-4.2963
X3.4498Y-4.2963
X3.5581Y-3.5384
X3.5581Y-3.5384
X3.5581Y-3.6467
X3.5581Y-3.6467
X3.5581Y-3.7549
X3.5581Y-3.7549
X3.5581Y-3.8632
X3.5581Y-3.8632
X3.5581Y-3.9715
X3.5581Y-3.9715
X3.5581Y-4.0797
X3.5581Y-4.0797
X3.5581Y-4.188
X3.5581Y-4.188
X3.5581Y-4.2963
X3.5581Y-4.2963
X3.6663Y-3.5384
X3.6663Y-3.5384
X3.6663Y-3.6467
X3.6663Y-3.6467
X3.6663Y-3.7549
X3.6663Y-3.7549
X3.6663Y-3.8632
X3.6663Y-3.8632
X3.6663Y-3.9715
X3.6663Y-3.9715
X3.6663Y-4.0797
X3.6663Y-4.0797
X3.6663Y-4.188
X3.6663Y-4.188
X3.6663Y-4.2963
X3.6663Y-4.2963
X3.7746Y-3.5384
X3.7746Y-3.5384
X3.7746Y-3.6467
X3.7746Y-3.6467
X3.7746Y-3.7549
X3.7746Y-3.7549
X3.7746Y-3.8632
X3.7746Y-3.8632
X3.7746Y-3.9715
X3.7746Y-3.9715
X3.7746Y-4.0797
X3.7746Y-4.0797
X3.7746Y-4.188
X3.7746Y-4.188
X3.7746Y-4.2963
X3.7746Y-4.2963
X3.8829Y-3.5384
X3.8829Y-3.5384
X3.8829Y-3.6467
X3.8829Y-3.6467
X3.8829Y-3.7549
X3.8829Y-3.7549
X3.8829Y-3.8632
X3.8829Y-3.8632
X3.8829Y-3.9715
X3.8829Y-3.9715
X3.8829Y-4.0797
X3.8829Y-4.0797
X3.8829Y-4.188
X3.8829Y-4.188
X3.8829Y-4.2963
X3.8829Y-4.2963
X3.9911Y-3.5384
X3.9911Y-3.5384
X3.9911Y-3.6467
X3.9911Y-3.6467
X3.9911Y-3.7549
X3.9911Y-3.7549
X3.9911Y-3.8632
X3.9911Y-3.8632
X3.9911Y-3.9715
X3.9911Y-3.9715
X3.9911Y-4.0797
X3.9911Y-4.0797
X3.9911Y-4.188
X3.9911Y-4.188
X3.9911Y-4.2963
X3.9911Y-4.2963
X4.0994Y-3.5384
X4.0994Y-3.5384
X4.0994Y-3.6467
X4.0994Y-3.6467
X4.0994Y-3.7549
X4.0994Y-3.7549
X4.0994Y-3.8632
X4.0994Y-3.8632
X4.0994Y-3.9715
X4.0994Y-3.9715
X4.0994Y-4.0797
X4.0994Y-4.0797
X4.0994Y-4.188
X4.0994Y-4.188
X4.0994Y-4.2963
X4.0994Y-4.2963
X4.2077Y-3.5384
X4.2077Y-3.5384
X4.2077Y-3.6467
X4.2077Y-3.6467
X4.2077Y-3.7549
X4.2077Y-3.7549
X4.2077Y-3.8632
X4.2077Y-3.8632
X4.2077Y-3.9715
X4.2077Y-3.9715
X4.2077Y-4.0797
X4.2077Y-4.0797
X4.2077Y-4.188
X4.2077Y-4.188
X4.2077Y-4.2963
X4.2077Y-4.2963
X4.3159Y-3.5384
X4.3159Y-3.5384
X4.3159Y-3.6467
X4.3159Y-3.6467
X4.3159Y-3.7549
X4.3159Y-3.7549
X4.3159Y-3.8632
X4.3159Y-3.8632
X4.3159Y-3.9715
X4.3159Y-3.9715
X4.3159Y-4.0797
X4.3159Y-4.0797
X4.3159Y-4.188
X4.3159Y-4.188
X4.3159Y-4.2963
X4.3159Y-4.2963
X4.4242Y-3.5384
X4.4242Y-3.5384
X4.4242Y-3.6467
X4.4242Y-3.6467
X4.4242Y-3.7549
X4.4242Y-3.7549
X4.4242Y-3.8632
X4.4242Y-3.8632
X4.4242Y-3.9715
X4.4242Y-3.9715
X4.4242Y-4.0797
X4.4242Y-4.0797
X4.4242Y-4.188
X4.4242Y-4.188
X4.4242Y-4.2963
X4.4242Y-4.2963
X4.5325Y-3.5384
X4.5325Y-3.5384
X4.5325Y-3.6467
X4.5325Y-3.6467
X4.5325Y-3.7549
X4.5325Y-3.7549
X4.5325Y-3.8632
X4.5325Y-3.8632
X4.5325Y-3.9715
X4.5325Y-3.9715
X4.5325Y-4.0797
X4.5325Y-4.0797
X4.5325Y-4.188
X4.5325Y-4.188
X4.5325Y-4.2963
X4.5325Y-4.2963
X4.6407Y-3.5384
X4.6407Y-3.5384
X4.6407Y-3.6467
X4.6407Y-3.6467
X4.6407Y-3.7549
X4.6407Y-3.7549
X4.6407Y-3.8632
X4.6407Y-3.8632
X4.6407Y-3.9715
X4.6407Y-3.9715
X4.6407Y-4.0797
X4.6407Y-4.0797
X4.6407Y-4.188
X4.6407Y-4.188
X4.6407Y-4.2963
X4.6407Y-4.2963
X4.749Y-3.6467
X4.749Y-3.6467
X4.749Y-4.188
X4.749Y-4.188
X4.8031Y-3.5384
X4.8031Y-3.5384
X4.8031Y-3.7549
X4.8031Y-3.7549
X4.8031Y-4.0797
X4.8031Y-4.0797
X4.8031Y-4.2963
X4.8031Y-4.2963
X4.8573Y-3.6467
X4.8573Y-3.6467
X4.8573Y-4.188
X4.8573Y-4.188
X5.0197Y-3.6467
X5.0197Y-3.6467
X5.0197Y-4.188
X5.0197Y-4.188
T2
X3.3963Y-5.2574
X3.3963Y-5.2968
X3.3963Y-5.3362
X3.4159Y-5.2771
X3.4159Y-5.3165
X3.4356Y-5.2574
X3.4356Y-5.2968
X3.4356Y-5.3362
X3.4553Y-5.2771
X3.4553Y-5.3165
X3.475Y-5.2574
X3.475Y-5.2968
X3.475Y-5.3362
X3.4947Y-5.2771
X3.4947Y-5.3165
X3.5144Y-5.2574
X3.5144Y-5.2968
X3.5144Y-5.3362
X3.5341Y-5.2771
X3.5341Y-5.3165
X3.5537Y-5.2574
X3.5537Y-5.2968
X3.5537Y-5.3362
T3
X2.235Y-1.4284
X2.235Y-1.6384
X2.555Y-2.1584
X2.585Y-1.6884
X2.675Y-2.0484
X3.045Y-2.2584
X3.0469Y-5.4407
X3.155Y-2.2984
X3.57Y-2.5434
X3.57Y-2.6534
X3.62Y-2.6534
X3.67Y-2.5484
X3.675Y-2.1884
X3.695Y-2.3284
X3.695Y-2.6384
X3.7231Y-2.5618
X3.735Y-2.6384
X3.7564Y-2.5582
X3.789Y-5.2624
X3.805Y-2.0334
X3.815Y-1.4634
X3.837Y-5.3664
X3.845Y-2.0184
X3.865Y-2.6384
X3.885Y-2.1034
X3.9006Y-2.499
X3.937Y-5.5184
X3.955Y-1.4634
X3.995Y-2.0484
X4.03Y-2.0184
X4.05Y-1.8884
X4.085Y-1.6234
X4.085Y-2.4659
X4.085Y-5.3944
X4.09Y-1.9834
X4.135Y-2.2084
X4.135Y-2.2584
X4.14Y-1.5784
X4.141Y-5.3264
X4.16Y-1.7934
X4.17Y-2.1834
X4.185Y-1.7684
X4.185Y-1.9634
X4.195Y-1.8084
X4.195Y-2.0784
X4.215Y-1.9234
X4.235Y-1.8184
X4.24Y-2.1834
X4.245Y-1.7234
X4.265Y-1.8384
X4.2704Y-2.2549
X4.295Y-1.8684
X4.33Y-1.9434
X4.335Y-1.613
X4.335Y-2.2795
X4.335Y-2.4659
X4.355Y-1.9684
X4.355Y-2.2284
X4.375Y-1.6134
X4.39Y-1.9734
X4.41Y-1.6384
X4.415Y-1.6684
X4.42Y-1.5484
X4.45Y-1.5284
X4.4833Y-2.2589
X4.485Y-1.9884
X4.505Y-1.6384
X4.52Y-2.0134
X4.545Y-1.6384
X4.565Y-2.2984
X4.585Y-2.4659
X4.605Y-2.2984
X4.61Y-2.0034
X4.65Y-2.0134
X4.65Y-2.2734
X4.66Y-1.8684
X4.67Y-1.7234
X4.685Y-1.8384
X4.685Y-2.0034
X4.77Y-2.2484
X4.785Y-1.6684
X4.785Y-1.7234
X4.7864Y-2.5423
X4.825Y-2.3734
X4.84Y-2.0934
X4.915Y-2.3784
X5.045Y-2.4284
X5.0819Y-5.3207
X5.085Y-2.3684
X5.095Y-2.4984
X5.1099Y-2.3452
X5.135Y-1.8984
X5.14Y-1.9384
X5.155Y-2.3284
X5.16Y-1.7634
X5.17Y-1.5034
X5.18Y-1.9234
X5.2Y-1.7634
X5.205Y-1.5034
X5.2067Y-1.6517
X5.245Y-1.7734
X5.245Y-2.4284
X5.245Y-2.5384
X5.275Y-1.7984
X5.295Y-2.3884
X5.335Y-2.6084
X5.36Y-1.7984
X5.365Y-2.5584
X5.3896Y-2.633
X5.41Y-1.4984
X5.41Y-2.3534
X5.425Y-2.5884
X5.445Y-1.7634
X5.515Y-2.2084
X5.6Y-2.5334
X5.765Y-1.6634
X5.765Y-1.7034
T5
X2.07Y-2.5984
X2.175Y-1.6384
X2.18Y-1.4284
X2.245Y-1.5234
X2.245Y-1.5534
X2.585Y-1.7584
X2.6325Y-2.3959
X2.6325Y-2.4509
X2.725Y-1.9984
X3.235Y-2.4784
X3.295Y-1.8384
X3.335Y-2.3584
X3.375Y-2.3584
X3.4625Y-2.6334
X3.49Y-1.6784
X3.515Y-2.3734
X3.58Y-1.7184
X3.58Y-1.7634
X3.6125Y-2.3734
X3.635Y-1.7784
X4.01Y-1.3984
X4.045Y-1.8084
X4.13Y-1.4534
X4.13Y-1.4884
X4.335Y-2.1184
X4.335Y-2.1634
X4.353Y-5.2864
X4.353Y-5.4384
X4.515Y-2.1434
X4.59Y-1.6284
X4.68Y-1.6184
X4.695Y-2.4484
X4.735Y-1.3584
X4.8463Y-1.3569
X4.865Y-1.6334
X4.945Y-1.5434
X4.975Y-1.6234
X5.065Y-1.6284
X5.075Y-1.5034
X5.105Y-2.5384
X5.21Y-1.9584
X5.31Y-1.5284
X5.32Y-1.6484
X5.4Y-5.1984
X5.41Y-2.5284
X5.455Y-2.5284
X5.465Y-1.5084
X5.49Y-2.4684
X5.615Y-1.6084
X5.665Y-1.6084
X5.715Y-1.6084
T6
X2.3319Y-1.8711
X2.3319Y-1.9711
X2.3319Y-2.0711
T7
X5.7859Y-2.4803
T4
X5.0201Y-1.2898G85X5.0201Y-1.3134
G05
X5.0343Y-1.524G85X5.0343Y-1.5476
G05
X5.3594Y-1.524G85X5.3594Y-1.5476
G05
X5.3736Y-1.2898G85X5.3736Y-1.3134
G05
T0
M30
