G04 #@! TF.GenerationSoftware,KiCad,Pcbnew,5.0.2-bee76a0~70~ubuntu18.04.1*
G04 #@! TF.CreationDate,2020-04-07T14:55:27+02:00*
G04 #@! TF.ProjectId,OpenDropV4,4f70656e-4472-46f7-9056-342e6b696361,rev?*
G04 #@! TF.SameCoordinates,Original*
G04 #@! TF.FileFunction,Paste,Bot*
G04 #@! TF.FilePolarity,Positive*
%FSLAX46Y46*%
G04 Gerber Fmt 4.6, Leading zero omitted, Abs format (unit mm)*
G04 Created by KiCad (PCBNEW 5.0.2-bee76a0~70~ubuntu18.04.1) date Di 07 Apr 2020 14:55:27 CEST*
%MOMM*%
%LPD*%
G01*
G04 APERTURE LIST*
%ADD10R,0.300000X0.700000*%
%ADD11O,0.800000X1.400000*%
%ADD12R,2.000000X1.300000*%
%ADD13R,0.300000X1.000000*%
%ADD14R,1.000000X1.250000*%
%ADD15R,1.800000X1.000000*%
%ADD16R,1.250000X1.000000*%
%ADD17R,1.700000X1.600000*%
%ADD18R,4.000500X2.400300*%
%ADD19R,1.300000X0.700000*%
%ADD20R,0.610000X1.520000*%
%ADD21R,0.700000X1.300000*%
%ADD22R,2.780000X1.550000*%
%ADD23R,6.730000X6.740000*%
%ADD24R,0.660400X2.032000*%
%ADD25R,1.000000X3.200000*%
%ADD26R,2.500000X1.000000*%
%ADD27R,2.500000X2.300000*%
%ADD28R,1.600200X3.599180*%
%ADD29R,3.500000X10.200000*%
%ADD30R,3.000000X2.000000*%
%ADD31R,1.060000X0.650000*%
%ADD32R,0.600000X0.450000*%
%ADD33R,1.300000X0.250000*%
%ADD34R,0.250000X1.300000*%
%ADD35R,2.032000X3.657600*%
%ADD36R,2.032000X1.016000*%
%ADD37R,1.000000X0.900000*%
%ADD38R,1.600000X1.000000*%
%ADD39R,4.500000X2.200000*%
%ADD40R,0.300000X1.250000*%
%ADD41R,2.500000X2.500000*%
%ADD42R,3.200000X2.700000*%
%ADD43R,0.740000X2.400000*%
G04 APERTURE END LIST*
D10*
G04 #@! TO.C,J1*
X129000000Y-39220000D03*
X129500000Y-39220000D03*
X130000000Y-39220000D03*
X130500000Y-39220000D03*
X131000000Y-39220000D03*
X131500000Y-39220000D03*
X132000000Y-39220000D03*
X132500000Y-39220000D03*
X133000000Y-39220000D03*
X133500000Y-39220000D03*
X134000000Y-39220000D03*
D11*
X127510000Y-33060000D03*
X136490000Y-33060000D03*
X136130000Y-39010000D03*
D10*
X134500000Y-39220000D03*
X134250000Y-40920000D03*
X132750000Y-40920000D03*
X133250000Y-40920000D03*
X133750000Y-40920000D03*
X134750000Y-40920000D03*
X132250000Y-40920000D03*
X131750000Y-40920000D03*
X131250000Y-40920000D03*
X130750000Y-40920000D03*
X130250000Y-40920000D03*
X129750000Y-40920000D03*
X129250000Y-40920000D03*
D11*
X127870000Y-39010000D03*
G04 #@! TD*
D12*
G04 #@! TO.C,J3*
X108050000Y-79000000D03*
X91950000Y-79000000D03*
D13*
X105750000Y-76300000D03*
X105250000Y-76300000D03*
X104750000Y-76300000D03*
X104250000Y-76300000D03*
X103750000Y-76300000D03*
X103250000Y-76300000D03*
X102750000Y-76300000D03*
X102250000Y-76300000D03*
X101750000Y-76300000D03*
X101250000Y-76300000D03*
X100750000Y-76300000D03*
X100250000Y-76300000D03*
X99750000Y-76300000D03*
X99250000Y-76300000D03*
X98750000Y-76300000D03*
X98250000Y-76300000D03*
X97750000Y-76300000D03*
X97250000Y-76300000D03*
X96750000Y-76300000D03*
X96250000Y-76300000D03*
X95750000Y-76300000D03*
X95250000Y-76300000D03*
X94750000Y-76300000D03*
X94250000Y-76300000D03*
G04 #@! TD*
D14*
G04 #@! TO.C,C25*
X108950000Y-34757000D03*
X106950000Y-34757000D03*
G04 #@! TD*
D15*
G04 #@! TO.C,Y1*
X111252000Y-34523000D03*
X111252000Y-37023000D03*
G04 #@! TD*
D16*
G04 #@! TO.C,C14*
X101219000Y-45949000D03*
X101219000Y-47949000D03*
G04 #@! TD*
D17*
G04 #@! TO.C,U12*
X85011000Y-70817000D03*
X87551000Y-70817000D03*
X87551000Y-61317000D03*
X85011000Y-61317000D03*
G04 #@! TD*
D18*
G04 #@! TO.C,C18*
X54419500Y-60960000D03*
X62420500Y-60960000D03*
G04 #@! TD*
D19*
G04 #@! TO.C,R32*
X102156000Y-61619500D03*
X102156000Y-59719500D03*
G04 #@! TD*
D20*
G04 #@! TO.C,U9*
X118285000Y-69244000D03*
X117015000Y-69244000D03*
X115745000Y-69244000D03*
X114475000Y-69244000D03*
X114475000Y-63779000D03*
X115745000Y-63779000D03*
X117015000Y-63779000D03*
X118285000Y-63779000D03*
G04 #@! TD*
G04 #@! TO.C,U8*
X111935000Y-63779000D03*
X110665000Y-63779000D03*
X109395000Y-63779000D03*
X108125000Y-63779000D03*
X108125000Y-69244000D03*
X109395000Y-69244000D03*
X110665000Y-69244000D03*
X111935000Y-69244000D03*
G04 #@! TD*
D19*
G04 #@! TO.C,R1*
X64262000Y-53528000D03*
X64262000Y-51628000D03*
G04 #@! TD*
G04 #@! TO.C,R5*
X101219000Y-42443000D03*
X101219000Y-44343000D03*
G04 #@! TD*
D21*
G04 #@! TO.C,R18*
X107177800Y-135966200D03*
X109077800Y-135966200D03*
G04 #@! TD*
G04 #@! TO.C,R19*
X101183400Y-135966200D03*
X103083400Y-135966200D03*
G04 #@! TD*
D19*
G04 #@! TO.C,R20*
X100812600Y-139283400D03*
X100812600Y-141183400D03*
G04 #@! TD*
G04 #@! TO.C,R21*
X98882200Y-135625800D03*
X98882200Y-137525800D03*
G04 #@! TD*
D21*
G04 #@! TO.C,R22*
X133126000Y-72363040D03*
X131226000Y-72363040D03*
G04 #@! TD*
D19*
G04 #@! TO.C,R30*
X131668000Y-70265040D03*
X131668000Y-68365040D03*
G04 #@! TD*
G04 #@! TO.C,R31*
X123794000Y-69757040D03*
X123794000Y-67857040D03*
G04 #@! TD*
G04 #@! TO.C,R44*
X98984000Y-72253000D03*
X98984000Y-74153000D03*
G04 #@! TD*
D21*
G04 #@! TO.C,R45*
X71567000Y-73365000D03*
X73467000Y-73365000D03*
G04 #@! TD*
G04 #@! TO.C,R48*
X76901000Y-73365000D03*
X78801000Y-73365000D03*
G04 #@! TD*
G04 #@! TO.C,R49*
X87437000Y-73365000D03*
X85537000Y-73365000D03*
G04 #@! TD*
G04 #@! TO.C,R51*
X81473000Y-73365000D03*
X83373000Y-73365000D03*
G04 #@! TD*
D19*
G04 #@! TO.C,R41*
X117650000Y-61619500D03*
X117650000Y-59719500D03*
G04 #@! TD*
G04 #@! TO.C,R3*
X140208000Y-41295000D03*
X140208000Y-39395000D03*
G04 #@! TD*
G04 #@! TO.C,R4*
X144145000Y-56159000D03*
X144145000Y-58059000D03*
G04 #@! TD*
D21*
G04 #@! TO.C,R6*
X121605000Y-59903000D03*
X123505000Y-59903000D03*
G04 #@! TD*
D19*
G04 #@! TO.C,R8*
X142113000Y-56159000D03*
X142113000Y-58059000D03*
G04 #@! TD*
G04 #@! TO.C,R34*
X115175000Y-61625000D03*
X115175000Y-59725000D03*
G04 #@! TD*
G04 #@! TO.C,R36*
X108760000Y-61619500D03*
X108760000Y-59719500D03*
G04 #@! TD*
G04 #@! TO.C,R37*
X104975000Y-61625000D03*
X104975000Y-59725000D03*
G04 #@! TD*
G04 #@! TO.C,R40*
X111300000Y-61619500D03*
X111300000Y-59719500D03*
G04 #@! TD*
G04 #@! TO.C,R9*
X99949000Y-51963000D03*
X99949000Y-50063000D03*
G04 #@! TD*
D21*
G04 #@! TO.C,R10*
X93518000Y-74346000D03*
X91618000Y-74346000D03*
G04 #@! TD*
G04 #@! TO.C,R11*
X95951000Y-58887000D03*
X97851000Y-58887000D03*
G04 #@! TD*
D22*
G04 #@! TO.C,T1*
X73932000Y-48620000D03*
D23*
X80567000Y-50800000D03*
D22*
X73932000Y-52980000D03*
G04 #@! TD*
D17*
G04 #@! TO.C,U11*
X74343000Y-70817000D03*
X76883000Y-70817000D03*
X76883000Y-61317000D03*
X74343000Y-61317000D03*
G04 #@! TD*
G04 #@! TO.C,U10*
X69009000Y-70817000D03*
X71549000Y-70817000D03*
X71549000Y-61317000D03*
X69009000Y-61317000D03*
G04 #@! TD*
G04 #@! TO.C,U13*
X79677000Y-70817000D03*
X82217000Y-70817000D03*
X82217000Y-61317000D03*
X79677000Y-61317000D03*
G04 #@! TD*
D20*
G04 #@! TO.C,U7*
X105585000Y-69244000D03*
X104315000Y-69244000D03*
X103045000Y-69244000D03*
X101775000Y-69244000D03*
X101775000Y-63779000D03*
X103045000Y-63779000D03*
X104315000Y-63779000D03*
X105585000Y-63779000D03*
G04 #@! TD*
D16*
G04 #@! TO.C,C17*
X123794000Y-65997040D03*
X123794000Y-63997040D03*
G04 #@! TD*
D24*
G04 #@! TO.C,U6*
X129763000Y-72134440D03*
X128493000Y-72134440D03*
X127223000Y-72134440D03*
X125953000Y-72134440D03*
X125953000Y-65987640D03*
X127223000Y-65987640D03*
X128493000Y-65987640D03*
X129763000Y-65987640D03*
G04 #@! TD*
D25*
G04 #@! TO.C,R2*
X72465000Y-57363000D03*
X78665000Y-57363000D03*
G04 #@! TD*
D26*
G04 #@! TO.C,RSENSE1*
X72565000Y-44895000D03*
X72565000Y-39995000D03*
G04 #@! TD*
D16*
G04 #@! TO.C,C2*
X61976000Y-49768000D03*
X61976000Y-47768000D03*
G04 #@! TD*
G04 #@! TO.C,C3*
X64262000Y-47768000D03*
X64262000Y-49768000D03*
G04 #@! TD*
G04 #@! TO.C,C13*
X84760000Y-78886000D03*
X84760000Y-76886000D03*
G04 #@! TD*
D27*
G04 #@! TO.C,D1*
X67875000Y-36095000D03*
X72175000Y-36095000D03*
G04 #@! TD*
D16*
G04 #@! TO.C,C15*
X131668000Y-65013040D03*
X131668000Y-67013040D03*
G04 #@! TD*
D14*
G04 #@! TO.C,C16*
X126127000Y-63459000D03*
X128127000Y-63459000D03*
G04 #@! TD*
D18*
G04 #@! TO.C,C4*
X62420500Y-39116000D03*
X54419500Y-39116000D03*
G04 #@! TD*
D14*
G04 #@! TO.C,C20*
X106791000Y-38821000D03*
X104791000Y-38821000D03*
G04 #@! TD*
D16*
G04 #@! TO.C,C22*
X140716000Y-62681000D03*
X140716000Y-60681000D03*
G04 #@! TD*
D14*
G04 #@! TO.C,C23*
X108950000Y-36789000D03*
X106950000Y-36789000D03*
G04 #@! TD*
D16*
G04 #@! TO.C,C24*
X116967000Y-45917000D03*
X116967000Y-43917000D03*
G04 #@! TD*
D28*
G04 #@! TO.C,C19*
X89000000Y-51374180D03*
X89000000Y-56875820D03*
G04 #@! TD*
D29*
G04 #@! TO.C,L1*
X83945000Y-40599000D03*
X77345000Y-40599000D03*
G04 #@! TD*
D14*
G04 #@! TO.C,C7*
X125206000Y-43393000D03*
X123206000Y-43393000D03*
G04 #@! TD*
G04 #@! TO.C,C8*
X137938000Y-43393000D03*
X139938000Y-43393000D03*
G04 #@! TD*
G04 #@! TO.C,C9*
X127016000Y-43393000D03*
X129016000Y-43393000D03*
G04 #@! TD*
G04 #@! TO.C,C10*
X136128000Y-43393000D03*
X134128000Y-43393000D03*
G04 #@! TD*
G04 #@! TO.C,C11*
X117840000Y-53045000D03*
X115840000Y-53045000D03*
G04 #@! TD*
D30*
G04 #@! TO.C,C6*
X68120000Y-40145000D03*
X68120000Y-44745000D03*
G04 #@! TD*
D16*
G04 #@! TO.C,C27*
X120523000Y-63951000D03*
X120523000Y-61951000D03*
G04 #@! TD*
D24*
G04 #@! TO.C,U1*
X66675000Y-47726600D03*
X67945000Y-47726600D03*
X69215000Y-47726600D03*
X70485000Y-47726600D03*
X70485000Y-53873400D03*
X69215000Y-53873400D03*
X67945000Y-53873400D03*
X66675000Y-53873400D03*
G04 #@! TD*
G04 #@! TO.C,U15*
X93980000Y-47685600D03*
X95250000Y-47685600D03*
X96520000Y-47685600D03*
X97790000Y-47685600D03*
X97790000Y-53832400D03*
X96520000Y-53832400D03*
X95250000Y-53832400D03*
X93980000Y-53832400D03*
G04 #@! TD*
D31*
G04 #@! TO.C,U3*
X115867000Y-56789000D03*
X115867000Y-55839000D03*
X115867000Y-54889000D03*
X118067000Y-54889000D03*
X118067000Y-56789000D03*
X118067000Y-55839000D03*
G04 #@! TD*
D16*
G04 #@! TO.C,C28*
X89789000Y-73127000D03*
X89789000Y-75127000D03*
G04 #@! TD*
D14*
G04 #@! TO.C,C29*
X95190000Y-74346000D03*
X97190000Y-74346000D03*
G04 #@! TD*
G04 #@! TO.C,C31*
X96155000Y-56855000D03*
X98155000Y-56855000D03*
G04 #@! TD*
D32*
G04 #@! TO.C,D2*
X91533000Y-72314000D03*
X93633000Y-72314000D03*
G04 #@! TD*
G04 #@! TO.C,D3*
X97189000Y-72314000D03*
X95089000Y-72314000D03*
G04 #@! TD*
D24*
G04 #@! TO.C,U16*
X90690000Y-63426600D03*
X91960000Y-63426600D03*
X93230000Y-63426600D03*
X94500000Y-63426600D03*
X95770000Y-63426600D03*
X97040000Y-63426600D03*
X98310000Y-63426600D03*
X98310000Y-69573400D03*
X97040000Y-69573400D03*
X94500000Y-69573400D03*
X93230000Y-69573400D03*
X91960000Y-69573400D03*
X90690000Y-69573400D03*
X95770000Y-69573400D03*
G04 #@! TD*
D14*
G04 #@! TO.C,C26*
X108474000Y-38821000D03*
X110474000Y-38821000D03*
G04 #@! TD*
D33*
G04 #@! TO.C,U5*
X112935000Y-44199000D03*
X112935000Y-44699000D03*
X112935000Y-45199000D03*
X112935000Y-45699000D03*
X112935000Y-46199000D03*
X112935000Y-46699000D03*
X112935000Y-47199000D03*
X112935000Y-47699000D03*
X112935000Y-48199000D03*
X112935000Y-48699000D03*
X112935000Y-49199000D03*
X112935000Y-49699000D03*
D34*
X111335000Y-51299000D03*
X110835000Y-51299000D03*
X110335000Y-51299000D03*
X109835000Y-51299000D03*
X109335000Y-51299000D03*
X108835000Y-51299000D03*
X108335000Y-51299000D03*
X107835000Y-51299000D03*
X107335000Y-51299000D03*
X106835000Y-51299000D03*
X106335000Y-51299000D03*
X105835000Y-51299000D03*
D33*
X104235000Y-49699000D03*
X104235000Y-49199000D03*
X104235000Y-48699000D03*
X104235000Y-48199000D03*
X104235000Y-47699000D03*
X104235000Y-47199000D03*
X104235000Y-46699000D03*
X104235000Y-46199000D03*
X104235000Y-45699000D03*
X104235000Y-45199000D03*
X104235000Y-44699000D03*
X104235000Y-44199000D03*
D34*
X105835000Y-42599000D03*
X106335000Y-42599000D03*
X106835000Y-42599000D03*
X107335000Y-42599000D03*
X107835000Y-42599000D03*
X108335000Y-42599000D03*
X108835000Y-42599000D03*
X109335000Y-42599000D03*
X109835000Y-42599000D03*
X110335000Y-42599000D03*
X110835000Y-42599000D03*
X111335000Y-42599000D03*
G04 #@! TD*
D14*
G04 #@! TO.C,C30*
X110855000Y-54315000D03*
X108855000Y-54315000D03*
G04 #@! TD*
D16*
G04 #@! TO.C,C33*
X116967000Y-47727000D03*
X116967000Y-49727000D03*
G04 #@! TD*
D35*
G04 #@! TO.C,U14*
X114898000Y-37297000D03*
D36*
X121502000Y-37297000D03*
X121502000Y-39583000D03*
X121502000Y-35011000D03*
G04 #@! TD*
D37*
G04 #@! TO.C,SW3*
X147231000Y-51348500D03*
X145631000Y-51348500D03*
X147231000Y-47248500D03*
X145631000Y-47248500D03*
G04 #@! TD*
D38*
G04 #@! TO.C,C5*
X139827000Y-34527000D03*
X139827000Y-37527000D03*
G04 #@! TD*
G04 #@! TO.C,C21*
X124495000Y-37645000D03*
X124495000Y-34645000D03*
G04 #@! TD*
D16*
G04 #@! TO.C,C34*
X124500000Y-41218000D03*
X124500000Y-39218000D03*
G04 #@! TD*
D39*
G04 #@! TO.C,SP1*
X76265000Y-132939000D03*
X76265000Y-137939000D03*
G04 #@! TD*
D40*
G04 #@! TO.C,S1*
X139250000Y-47025000D03*
X137250000Y-47025000D03*
X137750000Y-47025000D03*
X138750000Y-47025000D03*
X138250000Y-47025000D03*
X136250000Y-47025000D03*
X136750000Y-47025000D03*
X135750000Y-47025000D03*
X135250000Y-47025000D03*
X132250000Y-47025000D03*
X132750000Y-47025000D03*
X133750000Y-47025000D03*
X133250000Y-47025000D03*
X134750000Y-47025000D03*
X134250000Y-47025000D03*
X126750000Y-47025000D03*
X127250000Y-47025000D03*
X125750000Y-47025000D03*
X126250000Y-47025000D03*
X125250000Y-47025000D03*
X124750000Y-47025000D03*
X127750000Y-47025000D03*
X128250000Y-47025000D03*
X129250000Y-47025000D03*
X128750000Y-47025000D03*
X130750000Y-47025000D03*
X131250000Y-47025000D03*
X130250000Y-47025000D03*
X129750000Y-47025000D03*
D41*
X122250000Y-48125000D03*
X141750000Y-48125000D03*
D40*
X131750000Y-47025000D03*
G04 #@! TD*
D19*
G04 #@! TO.C,R12*
X121158000Y-54757000D03*
X121158000Y-52857000D03*
G04 #@! TD*
G04 #@! TO.C,R13*
X121158000Y-56159000D03*
X121158000Y-58059000D03*
G04 #@! TD*
D30*
G04 #@! TO.C,C35*
X55225000Y-48825000D03*
X55225000Y-53425000D03*
G04 #@! TD*
D16*
G04 #@! TO.C,C36*
X99568000Y-58903000D03*
X99568000Y-60903000D03*
G04 #@! TD*
D42*
G04 #@! TO.C,C32*
X143900000Y-35125000D03*
X143900000Y-43025000D03*
G04 #@! TD*
G04 #@! TO.C,C1*
X88646000Y-36690000D03*
X88646000Y-44590000D03*
G04 #@! TD*
D43*
G04 #@! TO.C,J2*
X100040000Y-39475600D03*
X100040000Y-35575600D03*
X98770000Y-39475600D03*
X98770000Y-35575600D03*
X97500000Y-39475600D03*
X97500000Y-35575600D03*
X96230000Y-39475600D03*
X96230000Y-35575600D03*
X94960000Y-39475600D03*
X94960000Y-35575600D03*
G04 #@! TD*
D19*
G04 #@! TO.C,R29*
X94107000Y-56540000D03*
X94107000Y-58440000D03*
G04 #@! TD*
D14*
G04 #@! TO.C,C37*
X106318000Y-71933000D03*
X104318000Y-71933000D03*
G04 #@! TD*
D19*
G04 #@! TO.C,R46*
X138303000Y-41295000D03*
X138303000Y-39395000D03*
G04 #@! TD*
D21*
G04 #@! TO.C,R47*
X130622000Y-43393000D03*
X132522000Y-43393000D03*
G04 #@! TD*
D13*
G04 #@! TO.C,J2*
X94250000Y-84800000D03*
X94750000Y-84800000D03*
X95250000Y-84800000D03*
X95750000Y-84800000D03*
X96250000Y-84800000D03*
X96750000Y-84800000D03*
X97250000Y-84800000D03*
X97750000Y-84800000D03*
X98250000Y-84800000D03*
X98750000Y-84800000D03*
X99250000Y-84800000D03*
X99750000Y-84800000D03*
X100250000Y-84800000D03*
X100750000Y-84800000D03*
X101250000Y-84800000D03*
X101750000Y-84800000D03*
X102250000Y-84800000D03*
X102750000Y-84800000D03*
X103250000Y-84800000D03*
X103750000Y-84800000D03*
X104250000Y-84800000D03*
X104750000Y-84800000D03*
X105250000Y-84800000D03*
X105750000Y-84800000D03*
D12*
X91950000Y-87500000D03*
X108050000Y-87500000D03*
G04 #@! TD*
M02*
