M48
;DRILL file {KiCad 5.0.2-bee76a0~70~ubuntu18.04.1} date Do 30 Apr 2020 09:19:54 CEST
;FORMAT={-:-/ absolute / inch / decimal}
FMAT,2
INCH,TZ
T1C0.0157
T2C0.0236
%
G90
G05
T1
X2.4724Y-4.5906
X2.5197Y-4.5906
X2.5669Y-4.5906
X2.6142Y-4.5906
X2.6614Y-4.5906
X2.707Y-3.102
X2.7087Y-4.5906
X2.747Y-3.077
X2.7559Y-4.5906
X2.8031Y-4.5906
X2.811Y-4.1339
X2.8425Y-4.1654
X2.8504Y-4.5906
X2.874Y-4.1339
X2.8976Y-4.5906
X2.902Y-3.052
X2.9055Y-4.1654
X2.932Y-3.127
X2.937Y-4.1339
X2.9449Y-4.5906
X2.9685Y-4.1654
X2.9921Y-4.5906
X3.Y-4.1339
X3.0315Y-4.1654
X3.0394Y-4.5906
X3.063Y-4.1339
X3.0866Y-4.5906
X3.0945Y-4.1654
X3.126Y-4.1339
X3.1339Y-4.5906
X3.1575Y-4.1654
X3.1811Y-4.5906
X3.189Y-4.1339
X3.2205Y-4.1654
X3.2283Y-4.5906
X3.252Y-4.1339
X3.2756Y-4.5906
X3.2835Y-4.1654
X3.315Y-4.1339
X3.3228Y-4.5906
X3.3465Y-4.1654
X3.3701Y-4.5906
X3.378Y-4.1339
X3.402Y-3.387
X3.407Y-3.302
X3.4094Y-4.1654
X3.4173Y-4.5906
X3.4409Y-4.1339
X3.4646Y-4.5906
X3.4724Y-4.1654
X3.5039Y-4.1339
X3.5118Y-4.5906
X3.5354Y-4.1654
X3.5591Y-4.5906
X3.5669Y-4.1339
X3.6063Y-4.5906
X3.6535Y-4.5906
X3.7008Y-3.7165
X3.7008Y-4.5906
X3.7303Y-5.0886
X3.7323Y-3.748
X3.748Y-4.5906
X3.7638Y-3.7795
X3.7953Y-3.811
X3.7953Y-4.5906
X3.811Y-4.748
X3.8268Y-3.8425
X3.8425Y-4.5906
X3.8425Y-4.7717
X3.8583Y-3.874
X3.874Y-4.7953
X3.9134Y-4.7717
X3.9134Y-4.811
X3.9134Y-4.8504
X3.947Y-3.052
X3.9606Y-4.5945
X3.9862Y-3.127
X3.987Y-3.027
X4.0256Y-3.077
X4.042Y-3.837
X4.065Y-3.102
X4.0787Y-3.7795
X4.0787Y-4.3976
X4.1024Y-4.5906
X4.1043Y-3.127
X4.1102Y-3.748
X4.1417Y-3.7165
X4.1496Y-4.5906
X4.157Y-3.632
X4.1732Y-3.685
X4.1969Y-4.5906
X4.2441Y-4.5906
X4.2913Y-4.5906
X4.3386Y-4.1335
X4.3386Y-4.5902
X4.3701Y-4.165
X4.3858Y-4.5902
X4.4016Y-4.1335
X4.4331Y-4.165
X4.4331Y-4.5902
X4.447Y-3.297
X4.4646Y-4.1335
X4.4803Y-4.5902
X4.4961Y-4.165
X4.5276Y-4.1335
X4.5276Y-4.5902
X4.5591Y-4.165
X4.5748Y-4.5902
X4.5906Y-4.1335
X4.622Y-4.165
X4.622Y-4.5902
X4.6535Y-4.1335
X4.6693Y-4.5902
X4.685Y-4.165
X4.7165Y-4.1335
X4.7165Y-4.5902
X4.748Y-4.165
X4.7638Y-4.5902
X4.7795Y-4.1335
X4.811Y-4.165
X4.811Y-4.5902
X4.827Y-3.077
X4.832Y-3.127
X4.8425Y-4.1335
X4.8583Y-4.5902
X4.862Y-3.102
X4.874Y-4.165
X4.9055Y-4.1335
X4.9055Y-4.5902
X4.937Y-4.165
X4.9528Y-4.5902
X4.9685Y-4.1335
X4.997Y-3.027
X5.Y-4.165
X5.Y-4.5902
X5.017Y-3.057
X5.0315Y-4.1335
X5.0472Y-4.5902
X5.063Y-4.165
X5.0945Y-4.5902
X5.1417Y-4.5902
X5.189Y-4.5902
X5.2362Y-4.5902
X5.2835Y-4.5902
X5.3307Y-4.5902
X5.378Y-4.5902
X5.4252Y-4.5902
X5.477Y-4.987
T2
X2.252Y-3.112
X2.447Y-4.752
X2.817Y-2.997
X2.862Y-2.997
X3.4646Y-4.8524
X3.492Y-3.287
X3.492Y-3.437
X3.742Y-2.997
X3.777Y-4.872
X3.787Y-2.917
X3.827Y-2.952
X3.967Y-3.417
X4.167Y-4.872
X4.457Y-3.387
X4.852Y-2.992
X4.907Y-2.992
X5.002Y-2.952
X5.362Y-4.782
X5.362Y-4.872
T0
M30
