G04 #@! TF.GenerationSoftware,KiCad,Pcbnew,5.0.2-bee76a0~70~ubuntu18.04.1*
G04 #@! TF.CreationDate,2020-04-30T09:19:53+02:00*
G04 #@! TF.ProjectId,ModulAdapter,4d6f6475-6c41-4646-9170-7465722e6b69,rev?*
G04 #@! TF.SameCoordinates,Original*
G04 #@! TF.FileFunction,Soldermask,Top*
G04 #@! TF.FilePolarity,Negative*
%FSLAX46Y46*%
G04 Gerber Fmt 4.6, Leading zero omitted, Abs format (unit mm)*
G04 Created by KiCad (PCBNEW 5.0.2-bee76a0~70~ubuntu18.04.1) date Do 30 Apr 2020 09:19:53 CEST*
%MOMM*%
%LPD*%
G01*
G04 APERTURE LIST*
%ADD10C,0.100000*%
G04 APERTURE END LIST*
D10*
G36*
X144466703Y-132461486D02*
X144757883Y-132582097D01*
X145019944Y-132757201D01*
X145242799Y-132980056D01*
X145417903Y-133242117D01*
X145538514Y-133533297D01*
X145600000Y-133842412D01*
X145600000Y-134157588D01*
X145538514Y-134466703D01*
X145417903Y-134757883D01*
X145242799Y-135019944D01*
X145019944Y-135242799D01*
X144757883Y-135417903D01*
X144466703Y-135538514D01*
X144157588Y-135600000D01*
X143842412Y-135600000D01*
X143533297Y-135538514D01*
X143242117Y-135417903D01*
X142980056Y-135242799D01*
X142757201Y-135019944D01*
X142582097Y-134757883D01*
X142461486Y-134466703D01*
X142400000Y-134157588D01*
X142400000Y-133842412D01*
X142461486Y-133533297D01*
X142582097Y-133242117D01*
X142757201Y-132980056D01*
X142980056Y-132757201D01*
X143242117Y-132582097D01*
X143533297Y-132461486D01*
X143842412Y-132400000D01*
X144157588Y-132400000D01*
X144466703Y-132461486D01*
X144466703Y-132461486D01*
G37*
G36*
X56466703Y-132461486D02*
X56757883Y-132582097D01*
X57019944Y-132757201D01*
X57242799Y-132980056D01*
X57417903Y-133242117D01*
X57538514Y-133533297D01*
X57600000Y-133842412D01*
X57600000Y-134157588D01*
X57538514Y-134466703D01*
X57417903Y-134757883D01*
X57242799Y-135019944D01*
X57019944Y-135242799D01*
X56757883Y-135417903D01*
X56466703Y-135538514D01*
X56157588Y-135600000D01*
X55842412Y-135600000D01*
X55533297Y-135538514D01*
X55242117Y-135417903D01*
X54980056Y-135242799D01*
X54757201Y-135019944D01*
X54582097Y-134757883D01*
X54461486Y-134466703D01*
X54400000Y-134157588D01*
X54400000Y-133842412D01*
X54461486Y-133533297D01*
X54582097Y-133242117D01*
X54757201Y-132980056D01*
X54980056Y-132757201D01*
X55242117Y-132582097D01*
X55533297Y-132461486D01*
X55842412Y-132400000D01*
X56157588Y-132400000D01*
X56466703Y-132461486D01*
X56466703Y-132461486D01*
G37*
G36*
X145500000Y-130490000D02*
X140700000Y-130490000D01*
X140700000Y-125490000D01*
X145500000Y-125490000D01*
X145500000Y-130490000D01*
X145500000Y-130490000D01*
G37*
G36*
X59300000Y-130490000D02*
X54500000Y-130490000D01*
X54500000Y-125490000D01*
X59300000Y-125490000D01*
X59300000Y-130490000D01*
X59300000Y-130490000D01*
G37*
G36*
X103700000Y-130490000D02*
X101100000Y-130490000D01*
X101100000Y-125490000D01*
X103700000Y-125490000D01*
X103700000Y-130490000D01*
X103700000Y-130490000D01*
G37*
G36*
X137975000Y-127750000D02*
X104025000Y-127750000D01*
X104025000Y-125750000D01*
X137975000Y-125750000D01*
X137975000Y-127750000D01*
X137975000Y-127750000D01*
G37*
G36*
X100775000Y-127750000D02*
X62025000Y-127750000D01*
X62025000Y-125750000D01*
X100775000Y-125750000D01*
X100775000Y-127750000D01*
X100775000Y-127750000D01*
G37*
G36*
X102764612Y-122198037D02*
X102992096Y-122292264D01*
X103196831Y-122429064D01*
X103370936Y-122603169D01*
X103507736Y-122807904D01*
X103601963Y-123035388D01*
X103650000Y-123276885D01*
X103650000Y-123523115D01*
X103601963Y-123764612D01*
X103507736Y-123992096D01*
X103370936Y-124196831D01*
X103196831Y-124370936D01*
X102992096Y-124507736D01*
X102764612Y-124601963D01*
X102523115Y-124650000D01*
X102276885Y-124650000D01*
X102035388Y-124601963D01*
X101807904Y-124507736D01*
X101603169Y-124370936D01*
X101429064Y-124196831D01*
X101292264Y-123992096D01*
X101198037Y-123764612D01*
X101150000Y-123523115D01*
X101150000Y-123276885D01*
X101198037Y-123035388D01*
X101292264Y-122807904D01*
X101429064Y-122603169D01*
X101603169Y-122429064D01*
X101807904Y-122292264D01*
X102035388Y-122198037D01*
X102276885Y-122150000D01*
X102523115Y-122150000D01*
X102764612Y-122198037D01*
X102764612Y-122198037D01*
G37*
G36*
X143464612Y-122198037D02*
X143692096Y-122292264D01*
X143896831Y-122429064D01*
X144070936Y-122603169D01*
X144207736Y-122807904D01*
X144301963Y-123035388D01*
X144350000Y-123276885D01*
X144350000Y-123523115D01*
X144301963Y-123764612D01*
X144207736Y-123992096D01*
X144070936Y-124196831D01*
X143896831Y-124370936D01*
X143692096Y-124507736D01*
X143464612Y-124601963D01*
X143223115Y-124650000D01*
X142976885Y-124650000D01*
X142735388Y-124601963D01*
X142507904Y-124507736D01*
X142303169Y-124370936D01*
X142129064Y-124196831D01*
X141992264Y-123992096D01*
X141898037Y-123764612D01*
X141850000Y-123523115D01*
X141850000Y-123276885D01*
X141898037Y-123035388D01*
X141992264Y-122807904D01*
X142129064Y-122603169D01*
X142303169Y-122429064D01*
X142507904Y-122292264D01*
X142735388Y-122198037D01*
X142976885Y-122150000D01*
X143223115Y-122150000D01*
X143464612Y-122198037D01*
X143464612Y-122198037D01*
G37*
G36*
X57264612Y-122198037D02*
X57492096Y-122292264D01*
X57696831Y-122429064D01*
X57870936Y-122603169D01*
X58007736Y-122807904D01*
X58101963Y-123035388D01*
X58150000Y-123276885D01*
X58150000Y-123523115D01*
X58101963Y-123764612D01*
X58007736Y-123992096D01*
X57870936Y-124196831D01*
X57696831Y-124370936D01*
X57492096Y-124507736D01*
X57264612Y-124601963D01*
X57023115Y-124650000D01*
X56776885Y-124650000D01*
X56535388Y-124601963D01*
X56307904Y-124507736D01*
X56103169Y-124370936D01*
X55929064Y-124196831D01*
X55792264Y-123992096D01*
X55698037Y-123764612D01*
X55650000Y-123523115D01*
X55650000Y-123276885D01*
X55698037Y-123035388D01*
X55792264Y-122807904D01*
X55929064Y-122603169D01*
X56103169Y-122429064D01*
X56307904Y-122292264D01*
X56535388Y-122198037D01*
X56776885Y-122150000D01*
X57023115Y-122150000D01*
X57264612Y-122198037D01*
X57264612Y-122198037D01*
G37*
G36*
X59300000Y-121310000D02*
X54500000Y-121310000D01*
X54500000Y-116310000D01*
X59300000Y-116310000D01*
X59300000Y-121310000D01*
X59300000Y-121310000D01*
G37*
G36*
X145500000Y-121310000D02*
X140700000Y-121310000D01*
X140700000Y-116310000D01*
X145500000Y-116310000D01*
X145500000Y-121310000D01*
X145500000Y-121310000D01*
G37*
G36*
X103700000Y-121310000D02*
X101100000Y-121310000D01*
X101100000Y-116310000D01*
X103700000Y-116310000D01*
X103700000Y-121310000D01*
X103700000Y-121310000D01*
G37*
G36*
X100775000Y-119050000D02*
X62025000Y-119050000D01*
X62025000Y-117050000D01*
X100775000Y-117050000D01*
X100775000Y-119050000D01*
X100775000Y-119050000D01*
G37*
G36*
X137975000Y-119050000D02*
X104025000Y-119050000D01*
X104025000Y-117050000D01*
X137975000Y-117050000D01*
X137975000Y-119050000D01*
X137975000Y-119050000D01*
G37*
G36*
X85764570Y-86780570D02*
X84263430Y-86780570D01*
X84263430Y-85279430D01*
X85764570Y-85279430D01*
X85764570Y-86780570D01*
X85764570Y-86780570D01*
G37*
G36*
X115736570Y-86780570D02*
X114235430Y-86780570D01*
X114235430Y-85279430D01*
X115736570Y-85279430D01*
X115736570Y-86780570D01*
X115736570Y-86780570D01*
G37*
G36*
X115736570Y-84240570D02*
X114235430Y-84240570D01*
X114235430Y-82739430D01*
X115736570Y-82739430D01*
X115736570Y-84240570D01*
X115736570Y-84240570D01*
G37*
G36*
X85764570Y-84240570D02*
X84263430Y-84240570D01*
X84263430Y-82739430D01*
X85764570Y-82739430D01*
X85764570Y-84240570D01*
X85764570Y-84240570D01*
G37*
G36*
X56466703Y-72461486D02*
X56757883Y-72582097D01*
X57019944Y-72757201D01*
X57242799Y-72980056D01*
X57417903Y-73242117D01*
X57538514Y-73533297D01*
X57600000Y-73842412D01*
X57600000Y-74157588D01*
X57538514Y-74466703D01*
X57417903Y-74757883D01*
X57242799Y-75019944D01*
X57019944Y-75242799D01*
X56757883Y-75417903D01*
X56466703Y-75538514D01*
X56157588Y-75600000D01*
X55842412Y-75600000D01*
X55533297Y-75538514D01*
X55242117Y-75417903D01*
X54980056Y-75242799D01*
X54757201Y-75019944D01*
X54582097Y-74757883D01*
X54461486Y-74466703D01*
X54400000Y-74157588D01*
X54400000Y-73842412D01*
X54461486Y-73533297D01*
X54582097Y-73242117D01*
X54757201Y-72980056D01*
X54980056Y-72757201D01*
X55242117Y-72582097D01*
X55533297Y-72461486D01*
X55842412Y-72400000D01*
X56157588Y-72400000D01*
X56466703Y-72461486D01*
X56466703Y-72461486D01*
G37*
G36*
X144466703Y-72461486D02*
X144757883Y-72582097D01*
X145019944Y-72757201D01*
X145242799Y-72980056D01*
X145417903Y-73242117D01*
X145538514Y-73533297D01*
X145600000Y-73842412D01*
X145600000Y-74157588D01*
X145538514Y-74466703D01*
X145417903Y-74757883D01*
X145242799Y-75019944D01*
X145019944Y-75242799D01*
X144757883Y-75417903D01*
X144466703Y-75538514D01*
X144157588Y-75600000D01*
X143842412Y-75600000D01*
X143533297Y-75538514D01*
X143242117Y-75417903D01*
X142980056Y-75242799D01*
X142757201Y-75019944D01*
X142582097Y-74757883D01*
X142461486Y-74466703D01*
X142400000Y-74157588D01*
X142400000Y-73842412D01*
X142461486Y-73533297D01*
X142582097Y-73242117D01*
X142757201Y-72980056D01*
X142980056Y-72757201D01*
X143242117Y-72582097D01*
X143533297Y-72461486D01*
X143842412Y-72400000D01*
X144157588Y-72400000D01*
X144466703Y-72461486D01*
X144466703Y-72461486D01*
G37*
M02*
