G04 #@! TF.GenerationSoftware,KiCad,Pcbnew,5.0.2-bee76a0~70~ubuntu18.04.1*
G04 #@! TF.CreationDate,2020-04-30T09:19:53+02:00*
G04 #@! TF.ProjectId,ModulAdapter,4d6f6475-6c41-4646-9170-7465722e6b69,rev?*
G04 #@! TF.SameCoordinates,Original*
G04 #@! TF.FileFunction,Paste,Bot*
G04 #@! TF.FilePolarity,Positive*
%FSLAX46Y46*%
G04 Gerber Fmt 4.6, Leading zero omitted, Abs format (unit mm)*
G04 Created by KiCad (PCBNEW 5.0.2-bee76a0~70~ubuntu18.04.1) date Do 30 Apr 2020 09:19:53 CEST*
%MOMM*%
%LPD*%
G01*
G04 APERTURE LIST*
%ADD10R,0.500000X1.480000*%
%ADD11R,1.480000X0.500000*%
%ADD12R,1.250000X1.000000*%
%ADD13R,2.000000X1.300000*%
%ADD14R,0.300000X1.000000*%
G04 APERTURE END LIST*
D10*
G04 #@! TO.C,U4*
X109800000Y-91260000D03*
X110600000Y-91260000D03*
X111400000Y-91260000D03*
X112200000Y-91260000D03*
X113000000Y-91260000D03*
X113800000Y-91260000D03*
X114600000Y-91260000D03*
X115400000Y-91260000D03*
X116200000Y-91260000D03*
X117000000Y-91260000D03*
X117800000Y-91260000D03*
X118600000Y-91260000D03*
X119400000Y-91260000D03*
X120200000Y-91260000D03*
X121000000Y-91260000D03*
X121800000Y-91260000D03*
X122600000Y-91260000D03*
X123400000Y-91260000D03*
X124200000Y-91260000D03*
X125000000Y-91260000D03*
X125800000Y-91260000D03*
X126600000Y-91260000D03*
X127400000Y-91260000D03*
X128200000Y-91260000D03*
D11*
X130240000Y-93500000D03*
X130240000Y-94300000D03*
X130240000Y-95100000D03*
X130240000Y-95900000D03*
X130240000Y-96700000D03*
X130240000Y-97500000D03*
X130240000Y-98300000D03*
X130240000Y-99100000D03*
X130240000Y-99900000D03*
X130240000Y-100700000D03*
X130240000Y-101500000D03*
X130240000Y-102300000D03*
X130240000Y-103100000D03*
X130240000Y-103900000D03*
X130240000Y-104700000D03*
X130240000Y-105500000D03*
D10*
X128200000Y-107740000D03*
X127400000Y-107740000D03*
X126600000Y-107740000D03*
X125800000Y-107740000D03*
X125000000Y-107740000D03*
X124200000Y-107740000D03*
X123400000Y-107740000D03*
X122600000Y-107740000D03*
X121800000Y-107740000D03*
X121000000Y-107740000D03*
X120200000Y-107740000D03*
X119400000Y-107740000D03*
X118600000Y-107740000D03*
X117800000Y-107740000D03*
X117000000Y-107740000D03*
X116200000Y-107740000D03*
X115400000Y-107740000D03*
X114600000Y-107740000D03*
X113800000Y-107740000D03*
X113000000Y-107740000D03*
X112200000Y-107740000D03*
X111400000Y-107740000D03*
X110600000Y-107740000D03*
X109800000Y-107740000D03*
D11*
X107760000Y-105500000D03*
X107760000Y-104700000D03*
X107760000Y-103900000D03*
X107760000Y-103100000D03*
X107760000Y-102300000D03*
X107760000Y-101500000D03*
X107760000Y-100700000D03*
X107760000Y-99900000D03*
X107760000Y-99100000D03*
X107760000Y-98300000D03*
X107760000Y-97500000D03*
X107760000Y-96700000D03*
X107760000Y-95900000D03*
X107760000Y-95100000D03*
X107760000Y-94300000D03*
X107760000Y-93500000D03*
G04 #@! TD*
D10*
G04 #@! TO.C,U2*
X90200000Y-107740000D03*
X89400000Y-107740000D03*
X88600000Y-107740000D03*
X87800000Y-107740000D03*
X87000000Y-107740000D03*
X86200000Y-107740000D03*
X85400000Y-107740000D03*
X84600000Y-107740000D03*
X83800000Y-107740000D03*
X83000000Y-107740000D03*
X82200000Y-107740000D03*
X81400000Y-107740000D03*
X80600000Y-107740000D03*
X79800000Y-107740000D03*
X79000000Y-107740000D03*
X78200000Y-107740000D03*
X77400000Y-107740000D03*
X76600000Y-107740000D03*
X75800000Y-107740000D03*
X75000000Y-107740000D03*
X74200000Y-107740000D03*
X73400000Y-107740000D03*
X72600000Y-107740000D03*
X71800000Y-107740000D03*
D11*
X69760000Y-105500000D03*
X69760000Y-104700000D03*
X69760000Y-103900000D03*
X69760000Y-103100000D03*
X69760000Y-102300000D03*
X69760000Y-101500000D03*
X69760000Y-100700000D03*
X69760000Y-99900000D03*
X69760000Y-99100000D03*
X69760000Y-98300000D03*
X69760000Y-97500000D03*
X69760000Y-96700000D03*
X69760000Y-95900000D03*
X69760000Y-95100000D03*
X69760000Y-94300000D03*
X69760000Y-93500000D03*
D10*
X71800000Y-91260000D03*
X72600000Y-91260000D03*
X73400000Y-91260000D03*
X74200000Y-91260000D03*
X75000000Y-91260000D03*
X75800000Y-91260000D03*
X76600000Y-91260000D03*
X77400000Y-91260000D03*
X78200000Y-91260000D03*
X79000000Y-91260000D03*
X79800000Y-91260000D03*
X80600000Y-91260000D03*
X81400000Y-91260000D03*
X82200000Y-91260000D03*
X83000000Y-91260000D03*
X83800000Y-91260000D03*
X84600000Y-91260000D03*
X85400000Y-91260000D03*
X86200000Y-91260000D03*
X87000000Y-91260000D03*
X87800000Y-91260000D03*
X88600000Y-91260000D03*
X89400000Y-91260000D03*
X90200000Y-91260000D03*
D11*
X92240000Y-93500000D03*
X92240000Y-94300000D03*
X92240000Y-95100000D03*
X92240000Y-95900000D03*
X92240000Y-96700000D03*
X92240000Y-97500000D03*
X92240000Y-98300000D03*
X92240000Y-99100000D03*
X92240000Y-99900000D03*
X92240000Y-100700000D03*
X92240000Y-101500000D03*
X92240000Y-102300000D03*
X92240000Y-103100000D03*
X92240000Y-103900000D03*
X92240000Y-104700000D03*
X92240000Y-105500000D03*
G04 #@! TD*
D12*
G04 #@! TO.C,C12*
X134000000Y-98500000D03*
X134000000Y-100500000D03*
G04 #@! TD*
G04 #@! TO.C,C13*
X66000000Y-100500000D03*
X66000000Y-98500000D03*
G04 #@! TD*
D13*
G04 #@! TO.C,J2*
X108050000Y-87500000D03*
X91950000Y-87500000D03*
D14*
X105750000Y-84800000D03*
X105250000Y-84800000D03*
X104750000Y-84800000D03*
X104250000Y-84800000D03*
X103750000Y-84800000D03*
X103250000Y-84800000D03*
X102750000Y-84800000D03*
X102250000Y-84800000D03*
X101750000Y-84800000D03*
X101250000Y-84800000D03*
X100750000Y-84800000D03*
X100250000Y-84800000D03*
X99750000Y-84800000D03*
X99250000Y-84800000D03*
X98750000Y-84800000D03*
X98250000Y-84800000D03*
X97750000Y-84800000D03*
X97250000Y-84800000D03*
X96750000Y-84800000D03*
X96250000Y-84800000D03*
X95750000Y-84800000D03*
X95250000Y-84800000D03*
X94750000Y-84800000D03*
X94250000Y-84800000D03*
G04 #@! TD*
M02*
