  0
SECTION
  2
HEADER
  9
$ACADVER
  1
AC1015
  9
$ACADMAINTVER
 70
     6
  9
$DWGCODEPAGE
  3
ANSI_1252
  9
$INSBASE
 10
0.0
 20
0.0
 30
0.0
  9
$EXTMIN
 10
-65.9422333474
 20
-43.1059037171
 30
0.0
  9
$EXTMAX
 10
63.7643089095
 20
51.5867714147
 30
0.0
  9
$LIMMIN
 10
0.0
 20
0.0
  9
$LIMMAX
 10
420.0
 20
297.0
  9
$ORTHOMODE
 70
     0
  9
$REGENMODE
 70
     1
  9
$FILLMODE
 70
     1
  9
$QTEXTMODE
 70
     0
  9
$MIRRTEXT
 70
     1
  9
$LTSCALE
 40
1.0
  9
$ATTMODE
 70
     1
  9
$TEXTSIZE
 40
3.5
  9
$TRACEWID
 40
1.0
  9
$TEXTSTYLE
  7
Standard
  9
$CLAYER
  8
0
  9
$CELTYPE
  6
ByLayer
  9
$CECOLOR
 62
   256
  9
$CELTSCALE
 40
1.0
  9
$DISPSILH
 70
     0
  9
$DIMSCALE
 40
1.0
  9
$DIMASZ
 40
3.302
  9
$DIMEXO
 40
1.0
  9
$DIMDLI
 40
3.75
  9
$DIMRND
 40
0.0
  9
$DIMDLE
 40
0.0
  9
$DIMEXE
 40
1.0
  9
$DIMTP
 40
0.0
  9
$DIMTM
 40
0.0
  9
$DIMTXT
 40
3.5
  9
$DIMCEN
 40
2.5
  9
$DIMTSZ
 40
0.0
  9
$DIMTOL
 70
     0
  9
$DIMLIM
 70
     0
  9
$DIMTIH
 70
     1
  9
$DIMTOH
 70
     1
  9
$DIMSE1
 70
     0
  9
$DIMSE2
 70
     0
  9
$DIMTAD
 70
     1
  9
$DIMZIN
 70
     0
  9
$DIMBLK
  1

  9
$DIMASO
 70
     1
  9
$DIMSHO
 70
     1
  9
$DIMPOST
  1

  9
$DIMAPOST
  1

  9
$DIMALT
 70
     0
  9
$DIMALTD
 70
     3
  9
$DIMALTF
 40
0.0393700787
  9
$DIMLFAC
 40
1.0
  9
$DIMTOFL
 70
     1
  9
$DIMTVP
 40
0.0
  9
$DIMTIX
 70
     0
  9
$DIMSOXD
 70
     0
  9
$DIMSAH
 70
     0
  9
$DIMBLK1
  1

  9
$DIMBLK2
  1

  9
$DIMSTYLE
  2
ISO-25
  9
$DIMCLRD
 70
     0
  9
$DIMCLRE
 70
     0
  9
$DIMCLRT
 70
     0
  9
$DIMTFAC
 40
1.0
  9
$DIMGAP
 40
1.524
  9
$DIMJUST
 70
     0
  9
$DIMSD1
 70
     0
  9
$DIMSD2
 70
     0
  9
$DIMTOLJ
 70
     0
  9
$DIMTZIN
 70
     0
  9
$DIMALTZ
 70
     0
  9
$DIMALTTZ
 70
     0
  9
$DIMUPT
 70
     0
  9
$DIMDEC
 70
     2
  9
$DIMTDEC
 70
     2
  9
$DIMALTU
 70
     2
  9
$DIMALTTD
 70
     3
  9
$DIMTXSTY
  7
Standard
  9
$DIMAUNIT
 70
     0
  9
$DIMADEC
 70
     2
  9
$DIMALTRND
 40
0.0
  9
$DIMAZIN
 70
     0
  9
$DIMDSEP
 70
    44
  9
$DIMATFIT
 70
     3
  9
$DIMFRAC
 70
     0
  9
$DIMLDRBLK
  1

  9
$DIMLUNIT
 70
     2
  9
$DIMLWD
 70
    -2
  9
$DIMLWE
 70
    -2
  9
$DIMTMOVE
 70
     0
  9
$LUNITS
 70
     2
  9
$LUPREC
 70
     2
  9
$SKETCHINC
 40
1.0
  9
$FILLETRAD
 40
10.0
  9
$AUNITS
 70
     0
  9
$AUPREC
 70
     2
  9
$MENU
  1
.
  9
$ELEVATION
 40
0.0
  9
$PELEVATION
 40
0.0
  9
$THICKNESS
 40
0.0
  9
$LIMCHECK
 70
     0
  9
$CHAMFERA
 40
10.0
  9
$CHAMFERB
 40
10.0
  9
$CHAMFERC
 40
20.0
  9
$CHAMFERD
 40
0.0
  9
$SKPOLY
 70
     0
  9
$TDCREATE
 40
2457497.421600255
  9
$TDUCREATE
 40
2457497.338266921
  9
$TDUPDATE
 40
2457497.421624792
  9
$TDUUPDATE
 40
2457497.338291458
  9
$TDINDWG
 40
0.0000000116
  9
$TDUSRTIMER
 40
0.0000000116
  9
$USRTIMER
 70
     1
  9
$ANGBASE
 50
0.0
  9
$ANGDIR
 70
     0
  9
$PDMODE
 70
     0
  9
$PDSIZE
 40
-1.0
  9
$PLINEWID
 40
0.0
  9
$SPLFRAME
 70
     0
  9
$SPLINETYPE
 70
     6
  9
$SPLINESEGS
 70
     8
  9
$HANDSEED
  5
FD
  9
$SURFTAB1
 70
     6
  9
$SURFTAB2
 70
     6
  9
$SURFTYPE
 70
     6
  9
$SURFU
 70
     6
  9
$SURFV
 70
     6
  9
$UCSBASE
  2

  9
$UCSNAME
  2

  9
$UCSORG
 10
0.0
 20
0.0
 30
0.0
  9
$UCSXDIR
 10
1.0
 20
0.0
 30
0.0
  9
$UCSYDIR
 10
0.0
 20
1.0
 30
0.0
  9
$UCSORTHOREF
  2

  9
$UCSORTHOVIEW
 70
     0
  9
$UCSORGTOP
 10
0.0
 20
0.0
 30
0.0
  9
$UCSORGBOTTOM
 10
0.0
 20
0.0
 30
0.0
  9
$UCSORGLEFT
 10
0.0
 20
0.0
 30
0.0
  9
$UCSORGRIGHT
 10
0.0
 20
0.0
 30
0.0
  9
$UCSORGFRONT
 10
0.0
 20
0.0
 30
0.0
  9
$UCSORGBACK
 10
0.0
 20
0.0
 30
0.0
  9
$PUCSBASE
  2

  9
$PUCSNAME
  2

  9
$PUCSORG
 10
0.0
 20
0.0
 30
0.0
  9
$PUCSXDIR
 10
1.0
 20
0.0
 30
0.0
  9
$PUCSYDIR
 10
0.0
 20
1.0
 30
0.0
  9
$PUCSORTHOREF
  2

  9
$PUCSORTHOVIEW
 70
     0
  9
$PUCSORGTOP
 10
0.0
 20
0.0
 30
0.0
  9
$PUCSORGBOTTOM
 10
0.0
 20
0.0
 30
0.0
  9
$PUCSORGLEFT
 10
0.0
 20
0.0
 30
0.0
  9
$PUCSORGRIGHT
 10
0.0
 20
0.0
 30
0.0
  9
$PUCSORGFRONT
 10
0.0
 20
0.0
 30
0.0
  9
$PUCSORGBACK
 10
0.0
 20
0.0
 30
0.0
  9
$USERI1
 70
     0
  9
$USERI2
 70
     0
  9
$USERI3
 70
     0
  9
$USERI4
 70
     0
  9
$USERI5
 70
     0
  9
$USERR1
 40
0.0
  9
$USERR2
 40
0.0
  9
$USERR3
 40
0.0
  9
$USERR4
 40
0.0
  9
$USERR5
 40
0.0
  9
$WORLDVIEW
 70
     1
  9
$SHADEDGE
 70
     3
  9
$SHADEDIF
 70
    70
  9
$TILEMODE
 70
     1
  9
$MAXACTVP
 70
    64
  9
$PINSBASE
 10
0.0
 20
0.0
 30
0.0
  9
$PLIMCHECK
 70
     0
  9
$PEXTMIN
 10
1.0000000000E+20
 20
1.0000000000E+20
 30
1.0000000000E+20
  9
$PEXTMAX
 10
-1.0000000000E+20
 20
-1.0000000000E+20
 30
-1.0000000000E+20
  9
$PLIMMIN
 10
0.0
 20
0.0
  9
$PLIMMAX
 10
420.0
 20
297.0
  9
$UNITMODE
 70
     0
  9
$VISRETAIN
 70
     1
  9
$PLINEGEN
 70
     0
  9
$PSLTSCALE
 70
     1
  9
$TREEDEPTH
 70
  3020
  9
$CMLSTYLE
  2
Standard
  9
$CMLJUST
 70
     0
  9
$CMLSCALE
 40
20.0
  9
$PROXYGRAPHICS
 70
     1
  9
$MEASUREMENT
 70
     1
  9
$CELWEIGHT
370
    -1
  9
$ENDCAPS
280
     0
  9
$JOINSTYLE
280
     0
  9
$LWDISPLAY
290
     1
  9
$INSUNITS
 70
     4
  9
$HYPERLINKBASE
  1

  9
$STYLESHEET
  1

  9
$XEDIT
290
     1
  9
$CEPSNTYPE
380
     0
  9
$PSTYLEMODE
290
     1
  9
$FINGERPRINTGUID
  2
{DBA5A255-E1A7-480E-BB87-D0C8A9D91081}
  9
$VERSIONGUID
  2
{FAEB1C32-E019-11D5-929B-00C0DF256EC4}
  9
$EXTNAMES
290
     1
  9
$PSVPSCALE
 40
0.0
  9
$OLESTARTUP
290
     0
  0
ENDSEC
  0
SECTION
  2
CLASSES
  0
CLASS
  1
ACDBDICTIONARYWDFLT
  2
AcDbDictionaryWithDefault
  3
ObjectDBX Classes
 90
        0
280
     0
281
     0
  0
CLASS
  1
VISUALSTYLE
  2
AcDbVisualStyle
  3
ObjectDBX Classes
 90
     4095
280
     0
281
     0
  0
CLASS
  1
MATERIAL
  2
AcDbMaterial
  3
ObjectDBX Classes
 90
     1153
280
     0
281
     0
  0
CLASS
  1
SCALE
  2
AcDbScale
  3
ObjectDBX Classes
 90
     1153
280
     0
281
     0
  0
CLASS
  1
DICTIONARYVAR
  2
AcDbDictionaryVar
  3
ObjectDBX Classes
 90
        0
280
     0
281
     0
  0
CLASS
  1
ACDBPLACEHOLDER
  2
AcDbPlaceHolder
  3
ObjectDBX Classes
 90
        0
280
     0
281
     0
  0
CLASS
  1
LAYOUT
  2
AcDbLayout
  3
ObjectDBX Classes
 90
        0
280
     0
281
     0
  0
ENDSEC
  0
SECTION
  2
TABLES
  0
TABLE
  2
VPORT
  5
8
330
0
100
AcDbSymbolTable
 70
     1
  0
VPORT
  5
29
330
8
100
AcDbSymbolTableRecord
100
AcDbViewportTableRecord
  2
*Active
 70
     0
 10
0.0
 20
0.0
 11
1.0
 21
1.0
 12
-1.0889622189
 22
4.2404338488
 13
0.0
 23
0.0
 14
10.0
 24
10.0
 15
10.0
 25
10.0
 16
0.0
 26
0.0
 36
1.0
 17
0.0
 27
0.0
 37
0.0
 40
96.5865286344
 41
1.3697632058
 42
50.0
 43
0.0
 44
0.0
 50
0.0
 51
0.0
 71
     0
 72
   100
 73
     1
 74
     3
 75
     0
 76
     0
 77
     0
 78
     0
281
     0
 65
     1
110
0.0
120
0.0
130
0.0
111
1.0
121
0.0
131
0.0
112
0.0
122
1.0
132
0.0
 79
     0
146
0.0
  0
ENDTAB
  0
TABLE
  2
LTYPE
  5
5
330
0
100
AcDbSymbolTable
 70
     6
  0
LTYPE
  5
14
330
5
100
AcDbSymbolTableRecord
100
AcDbLinetypeTableRecord
  2
ByBlock
 70
     0
  3

 72
    65
 73
     0
 40
0.0
  0
LTYPE
  5
15
330
5
100
AcDbSymbolTableRecord
100
AcDbLinetypeTableRecord
  2
ByLayer
 70
     0
  3

 72
    65
 73
     0
 40
0.0
  0
LTYPE
  5
16
330
5
100
AcDbSymbolTableRecord
100
AcDbLinetypeTableRecord
  2
Continuous
 70
     0
  3
Solid line
 72
    65
 73
     0
 40
0.0
  0
LTYPE
  5
3F
330
5
100
AcDbSymbolTableRecord
100
AcDbLinetypeTableRecord
  2
HIDDEN
 70
     0
  3
Hidden __ __ __ __ __ __ __ __ __ __ __ __ __ __
 72
    65
 73
     2
 40
1.905
 49
1.27
 74
     0
 49
-0.635
 74
     0
  0
LTYPE
  5
40
330
5
100
AcDbSymbolTableRecord
100
AcDbLinetypeTableRecord
  2
PHANTOM
 70
     0
  3
Phantom ______  __  __  ______  __  __  ______
 72
    65
 73
     6
 40
12.7
 49
6.35
 74
     0
 49
-1.27
 74
     0
 49
1.27
 74
     0
 49
-1.27
 74
     0
 49
1.27
 74
     0
 49
-1.27
 74
     0
  0
LTYPE
  5
41
330
5
100
AcDbSymbolTableRecord
100
AcDbLinetypeTableRecord
  2
CENTER
 70
     0
  3
Center ____ _ ____ _ ____ _ ____ _ ____ _ ____
 72
    65
 73
     4
 40
10.16
 49
6.35
 74
     0
 49
-1.27
 74
     0
 49
1.27
 74
     0
 49
-1.27
 74
     0
  0
LTYPE
  5
42
330
5
100
AcDbSymbolTableRecord
100
AcDbLinetypeTableRecord
  2
CENTERX2
 70
     0
  3
Center (2x) ________  __  ________  __  _____
 72
    65
 73
     4
 40
20.32
 49
12.7
 74
     0
 49
-2.54
 74
     0
 49
2.54
 74
     0
 49
-2.54
 74
     0
  0
LTYPE
  5
43
330
5
100
AcDbSymbolTableRecord
100
AcDbLinetypeTableRecord
  2
DOT2
 70
     0
  3
Dot (.5x) ........................................
 72
    65
 73
     2
 40
0.635
 49
0.0
 74
     0
 49
-0.635
 74
     0
  0
ENDTAB
  0
TABLE
  2
LAYER
  5
2
330
0
100
AcDbSymbolTable
 70
     1
  0
LAYER
  5
10
330
2
100
AcDbSymbolTableRecord
100
AcDbLayerTableRecord
  2
0
 70
     0
 62
     7
  6
Continuous
370
    -3
390
F
  0
ENDTAB
  0
TABLE
  2
STYLE
  5
3
330
0
100
AcDbSymbolTable
 70
     1
  0
STYLE
  5
11
330
3
100
AcDbSymbolTableRecord
100
AcDbTextStyleTableRecord
  2
Standard
 70
     0
 40
0.0
 41
1.0
 50
0.0
 71
     0
 42
3.5
  3
txt
  4

  0
ENDTAB
  0
TABLE
  2
VIEW
  5
6
330
0
100
AcDbSymbolTable
 70
     0
  0
ENDTAB
  0
TABLE
  2
UCS
  5
7
330
0
100
AcDbSymbolTable
 70
     0
  0
ENDTAB
  0
TABLE
  2
APPID
  5
9
330
0
100
AcDbSymbolTable
 70
     1
  0
APPID
  5
12
330
9
100
AcDbSymbolTableRecord
100
AcDbRegAppTableRecord
  2
ACAD
 70
     0
  0
ENDTAB
  0
TABLE
  2
DIMSTYLE
  5
A
330
0
100
AcDbSymbolTable
 70
     1
100
AcDbDimStyleTable
  0
DIMSTYLE
105
27
330
A
100
AcDbSymbolTableRecord
100
AcDbDimStyleTableRecord
  2
ISO-25
 70
     0
 41
2.5
 42
0.625
 43
3.75
 44
1.25
 73
     0
 74
     0
 77
     1
 78
     8
140
2.5
141
2.5
143
0.0393700787
147
0.625
171
     3
172
     1
178
     0
271
     2
272
     2
274
     3
278
    44
283
     0
284
     8
340
11
  0
ENDTAB
  0
TABLE
  2
BLOCK_RECORD
  5
1
330
0
100
AcDbSymbolTable
 70
     1
  0
BLOCK_RECORD
  5
1F
330
1
100
AcDbSymbolTableRecord
100
AcDbBlockTableRecord
  2
*Model_Space
340
22
  0
BLOCK_RECORD
  5
1B
330
1
100
AcDbSymbolTableRecord
100
AcDbBlockTableRecord
  2
*Paper_Space
340
1E
  0
BLOCK_RECORD
  5
23
330
1
100
AcDbSymbolTableRecord
100
AcDbBlockTableRecord
  2
*Paper_Space0
340
26
  0
ENDTAB
  0
ENDSEC
  0
SECTION
  2
BLOCKS
  0
BLOCK
  5
20
330
1F
100
AcDbEntity
  8
0
100
AcDbBlockBegin
  2
*Model_Space
 70
     0
 10
0.0
 20
0.0
 30
0.0
  3
*Model_Space
  1

  0
ENDBLK
  5
21
330
1F
100
AcDbEntity
  8
0
100
AcDbBlockEnd
  0
BLOCK
  5
1C
330
1B
100
AcDbEntity
 67
     1
  8
0
100
AcDbBlockBegin
  2
*Paper_Space
 70
     0
 10
0.0
 20
0.0
 30
0.0
  3
*Paper_Space
  1

  0
ENDBLK
  5
1D
330
1B
100
AcDbEntity
 67
     1
  8
0
100
AcDbBlockEnd
  0
BLOCK
  5
24
330
23
100
AcDbEntity
  8
0
100
AcDbBlockBegin
  2
*Paper_Space0
 70
     0
 10
0.0
 20
0.0
 30
0.0
  3
*Paper_Space0
  1

  0
ENDBLK
  5
25
330
23
100
AcDbEntity
  8
0
100
AcDbBlockEnd
  0
ENDSEC
  0
SECTION
  2
ENTITIES
  0
CIRCLE
  5
44
330
1F
100
AcDbEntity
  8
0
  6
Continuous
 62
     7
100
AcDbCircle
 10
-44.0
 20
25.5
 30
0.0
 40
1.6
  0
ARC
  5
45
330
1F
100
AcDbEntity
  8
0
  6
Continuous
 62
     7
100
AcDbCircle
 10
31.0
 20
16.0
 30
0.0
 40
1.0
100
AcDbArc
 50
0.0
 51
90.0
  0
CIRCLE
  5
46
330
1F
100
AcDbEntity
  8
0
  6
Continuous
 62
     7
100
AcDbCircle
 10
44.0
 20
25.5
 30
0.0
 40
1.599999999999993
  0
ARC
  5
47
330
1F
100
AcDbEntity
  8
0
  6
Continuous
 62
     7
100
AcDbCircle
 10
46.5
 20
-9.0
 30
0.0
 40
1.000000000000002
100
AcDbArc
 50
0.0
 51
90.0
  0
ARC
  5
48
330
1F
100
AcDbEntity
  8
0
  6
Continuous
 62
     7
100
AcDbCircle
 10
46.5
 20
-16.0
 30
0.0
 40
1.0
100
AcDbArc
 50
270.0
 51
0.0
  0
ARC
  5
49
330
1F
100
AcDbEntity
  8
0
  6
Continuous
 62
     7
100
AcDbCircle
 10
6.0
 20
15.0
 30
0.0
 40
5.0
100
AcDbArc
 50
30.0
 51
90.0
  0
ARC
  5
4A
330
1F
100
AcDbEntity
  8
0
  6
Continuous
 62
     7
100
AcDbCircle
 10
-49.0
 20
30.0
 30
0.0
 40
1.000000000000014
100
AcDbArc
 50
90.0
 51
180.0
  0
ARC
  5
4B
330
1F
100
AcDbEntity
  8
0
  6
Continuous
 62
     7
100
AcDbCircle
 10
-31.0
 20
-16.0
 30
0.0
 40
3.000000000000004
100
AcDbArc
 50
180.0
 51
270.0
  0
ARC
  5
4C
330
1F
100
AcDbEntity
  8
0
  6
Continuous
 62
     7
100
AcDbCircle
 10
-6.0
 20
-15.0
 30
0.0
 40
7.000000000000004
100
AcDbArc
 50
214.849904579
 51
270.0
  0
ARC
  5
4D
330
1F
100
AcDbEntity
  8
0
  6
Continuous
 62
     7
100
AcDbCircle
 10
6.0
 20
-15.0
 30
0.0
 40
6.999999999999999
100
AcDbArc
 50
270.0
 51
325.150095421
  0
ARC
  5
4E
330
1F
100
AcDbEntity
  8
0
  6
Continuous
 62
     7
100
AcDbCircle
 10
31.0
 20
-16.0
 30
0.0
 40
3.000000000000004
100
AcDbArc
 50
270.0
 51
0.0
  0
ARC
  5
4F
330
1F
100
AcDbEntity
  8
0
  6
Continuous
 62
     7
100
AcDbCircle
 10
-6.0
 20
15.0
 30
0.0
 40
5.000000000000001
100
AcDbArc
 50
90.0
 51
150.0
  0
ARC
  5
50
330
1F
100
AcDbEntity
  8
0
  6
Continuous
 62
     7
100
AcDbCircle
 10
37.5
 20
-16.0
 30
0.0
 40
1.0
100
AcDbArc
 50
180.0
 51
270.0
  0
ARC
  5
51
330
1F
100
AcDbEntity
  8
0
  6
Continuous
 62
     7
100
AcDbCircle
 10
37.5
 20
-9.0
 30
0.0
 40
1.0
100
AcDbArc
 50
90.0
 51
180.0
  0
ARC
  5
52
330
1F
100
AcDbEntity
  8
0
  6
Continuous
 62
     7
100
AcDbCircle
 10
-31.0
 20
16.0
 30
0.0
 40
1.0
100
AcDbArc
 50
90.0
 51
180.0
  0
ARC
  5
53
330
1F
100
AcDbEntity
  8
0
  6
Continuous
 62
     7
100
AcDbCircle
 10
31.0
 20
16.0
 30
0.0
 40
3.000000000000004
100
AcDbArc
 50
0.0
 51
90.0
  0
ARC
  5
54
330
1F
100
AcDbEntity
  8
0
  6
Continuous
 62
     7
100
AcDbCircle
 10
6.0
 20
15.0
 30
0.0
 40
6.999999999999999
100
AcDbArc
 50
34.849904579
 51
90.0
  0
ARC
  5
55
330
1F
100
AcDbEntity
  8
0
  6
Continuous
 62
     7
100
AcDbCircle
 10
49.0
 20
30.0
 30
0.0
 40
1.000000000000014
100
AcDbArc
 50
0.0
 51
90.0
  0
CIRCLE
  5
56
330
1F
100
AcDbEntity
  8
0
  6
Continuous
 62
     7
100
AcDbCircle
 10
44.0
 20
-25.5
 30
0.0
 40
1.599999999999993
  0
ARC
  5
57
330
1F
100
AcDbEntity
  8
0
  6
Continuous
 62
     7
100
AcDbCircle
 10
-6.0
 20
15.0
 30
0.0
 40
7.0
100
AcDbArc
 50
90.0
 51
145.150095421
  0
ARC
  5
58
330
1F
100
AcDbEntity
  8
0
  6
Continuous
 62
     7
100
AcDbCircle
 10
49.0
 20
-30.0
 30
0.0
 40
1.000000000000014
100
AcDbArc
 50
270.0
 51
0.0
  0
ARC
  5
59
330
1F
100
AcDbEntity
  8
0
  6
Continuous
 62
     7
100
AcDbCircle
 10
-31.0
 20
16.0
 30
0.0
 40
3.000000000000004
100
AcDbArc
 50
90.0
 51
180.0
  0
ARC
  5
5A
330
1F
100
AcDbEntity
  8
0
  6
Continuous
 62
     7
100
AcDbCircle
 10
29.4000727662
 20
32.5
 30
0.0
 40
6.0
100
AcDbArc
 50
270.0
 51
318.920249494
  0
ARC
  5
5B
330
1F
100
AcDbEntity
  8
0
  6
Continuous
 62
     7
100
AcDbCircle
 10
-31.0
 20
-16.0
 30
0.0
 40
1.0
100
AcDbArc
 50
180.0
 51
270.0
  0
ARC
  5
5C
330
1F
100
AcDbEntity
  8
0
  6
Continuous
 62
     7
100
AcDbCircle
 10
-6.0
 20
-15.0
 30
0.0
 40
5.000000000000001
100
AcDbArc
 50
210.0
 51
270.0
  0
ARC
  5
5D
330
1F
100
AcDbEntity
  8
0
  6
Continuous
 62
     7
100
AcDbCircle
 10
37.0
 20
26.0
 30
0.0
 40
4.000000000000006
100
AcDbArc
 50
90.0
 51
138.920249494
  0
CIRCLE
  5
5E
330
1F
100
AcDbEntity
  8
0
  6
Continuous
 62
     7
100
AcDbCircle
 10
49.0
 20
30.0
 30
0.0
 40
0.0
  0
CIRCLE
  5
5F
330
1F
100
AcDbEntity
  8
0
  6
Continuous
 62
     7
100
AcDbCircle
 10
49.0
 20
-30.0
 30
0.0
 40
0.0
  0
ARC
  5
60
330
1F
100
AcDbEntity
  8
0
  6
Continuous
 62
     7
100
AcDbCircle
 10
37.0
 20
-26.0
 30
0.0
 40
4.000000000000009
100
AcDbArc
 50
221.079750506
 51
270.0
  0
ARC
  5
61
330
1F
100
AcDbEntity
  8
0
  6
Continuous
 62
     7
100
AcDbCircle
 10
-49.0
 20
-30.0
 30
0.0
 40
1.000000000000014
100
AcDbArc
 50
180.0
 51
270.0
  0
ARC
  5
62
330
1F
100
AcDbEntity
  8
0
  6
Continuous
 62
     7
100
AcDbCircle
 10
6.0
 20
-15.0
 30
0.0
 40
5.0
100
AcDbArc
 50
270.0
 51
330.0
  0
ARC
  5
63
330
1F
100
AcDbEntity
  8
0
  6
Continuous
 62
     7
100
AcDbCircle
 10
31.0
 20
-16.0
 30
0.0
 40
1.0
100
AcDbArc
 50
270.0
 51
0.0
  0
CIRCLE
  5
64
330
1F
100
AcDbEntity
  8
0
  6
Continuous
 62
     7
100
AcDbCircle
 10
-44.0
 20
-25.5
 30
0.0
 40
1.6
  0
ARC
  5
65
330
1F
100
AcDbEntity
  8
0
  6
Continuous
 62
     7
100
AcDbCircle
 10
29.4000727662
 20
-32.5
 30
0.0
 40
5.999999999999989
100
AcDbArc
 50
41.079750506
 51
90.0
  0
ARC
  5
66
330
1F
100
AcDbEntity
  8
0
  6
Continuous
 62
     7
100
AcDbCircle
 10
-29.4000727662
 20
-32.5
 30
0.0
 40
5.999999999999994
100
AcDbArc
 50
90.0
 51
138.920249494
  0
ARC
  5
67
330
1F
100
AcDbEntity
  8
0
  6
Continuous
 62
     7
100
AcDbCircle
 10
-37.0
 20
-26.0
 30
0.0
 40
4.000000000000004
100
AcDbArc
 50
270.0
 51
318.920249494
  0
CIRCLE
  5
68
330
1F
100
AcDbEntity
  8
0
  6
Continuous
 62
     7
100
AcDbCircle
 10
-49.0
 20
-30.0
 30
0.0
 40
0.0
  0
CIRCLE
  5
69
330
1F
100
AcDbEntity
  8
0
  6
Continuous
 62
     7
100
AcDbCircle
 10
-49.0
 20
30.0
 30
0.0
 40
0.0
  0
ARC
  5
6A
330
1F
100
AcDbEntity
  8
0
  6
Continuous
 62
     7
100
AcDbCircle
 10
-37.0
 20
26.0
 30
0.0
 40
4.000000000000009
100
AcDbArc
 50
41.079750506
 51
90.0
  0
ARC
  5
6B
330
1F
100
AcDbEntity
  8
0
  6
Continuous
 62
     7
100
AcDbCircle
 10
-29.4000727662
 20
32.5
 30
0.0
 40
5.999999999999994
100
AcDbArc
 50
221.079750506
 51
270.0
  0
ARC
  5
6C
330
1F
100
AcDbEntity
  8
0
  6
Continuous
 62
     7
100
AcDbCircle
 10
-44.0
 20
25.5
 30
0.0
 40
4.000000000000007
100
AcDbArc
 50
270.0
 51
0.0
  0
ARC
  5
6D
330
1F
100
AcDbEntity
  8
0
  6
Continuous
 62
     7
100
AcDbCircle
 10
-31.0
 20
-16.0
 30
0.0
 40
4.0
100
AcDbArc
 50
180.0
 51
270.0
  0
ARC
  5
6E
330
1F
100
AcDbEntity
  8
0
  6
Continuous
 62
     7
100
AcDbCircle
 10
-6.0
 20
-15.0
 30
0.0
 40
7.999999999999999
100
AcDbArc
 50
218.6821874535
 51
270.0
  0
ARC
  5
6F
330
1F
100
AcDbEntity
  8
0
  6
Continuous
 62
     7
100
AcDbCircle
 10
6.0
 20
-15.0
 30
0.0
 40
7.999999999999999
100
AcDbArc
 50
270.0
 51
321.3178125465
  0
ARC
  5
70
330
1F
100
AcDbEntity
  8
0
  6
Continuous
 62
     7
100
AcDbCircle
 10
31.0
 20
-16.0
 30
0.0
 40
4.000000000000004
100
AcDbArc
 50
270.0
 51
0.0
  0
ARC
  5
71
330
1F
100
AcDbEntity
  8
0
  6
Continuous
 62
     7
100
AcDbCircle
 10
31.0
 20
16.0
 30
0.0
 40
4.0
100
AcDbArc
 50
0.0
 51
90.0
  0
ARC
  5
72
330
1F
100
AcDbEntity
  8
0
  6
Continuous
 62
     7
100
AcDbCircle
 10
6.0
 20
15.0
 30
0.0
 40
7.999999999999999
100
AcDbArc
 50
38.6821874535
 51
90.0
  0
ARC
  5
73
330
1F
100
AcDbEntity
  8
0
  6
Continuous
 62
     7
100
AcDbCircle
 10
-6.0
 20
15.0
 30
0.0
 40
7.999999999999998
100
AcDbArc
 50
90.0
 51
141.3178125465
  0
ARC
  5
74
330
1F
100
AcDbEntity
  8
0
  6
Continuous
 62
     7
100
AcDbCircle
 10
-31.0
 20
16.0
 30
0.0
 40
4.000000000000004
100
AcDbArc
 50
90.0
 51
180.0
  0
ARC
  5
75
330
1F
100
AcDbEntity
  8
0
  6
Continuous
 62
     7
100
AcDbCircle
 10
44.0
 20
25.5
 30
0.0
 40
4.000000000000007
100
AcDbArc
 50
180.0
 51
270.0
  0
ARC
  5
76
330
1F
100
AcDbEntity
  8
0
  6
Continuous
 62
     7
100
AcDbCircle
 10
-44.0
 20
-25.5
 30
0.0
 40
4.000000000000021
100
AcDbArc
 50
0.0
 51
90.0
  0
ARC
  5
77
330
1F
100
AcDbEntity
  8
0
  6
Continuous
 62
     7
100
AcDbCircle
 10
44.0
 20
-25.5
 30
0.0
 40
4.000000000000021
100
AcDbArc
 50
90.0
 51
180.0
  0
ARC
  5
78
330
1F
100
AcDbEntity
  8
0
  6
Continuous
 62
     7
100
AcDbCircle
 10
37.5
 20
-16.0
 30
0.0
 40
0.5
100
AcDbArc
 50
180.0
 51
270.0
  0
ARC
  5
79
330
1F
100
AcDbEntity
  8
0
  6
Continuous
 62
     7
100
AcDbCircle
 10
37.5
 20
-9.0
 30
0.0
 40
0.5000000000000071
100
AcDbArc
 50
90.0
 51
180.0
  0
ARC
  5
7A
330
1F
100
AcDbEntity
  8
0
  6
Continuous
 62
     7
100
AcDbCircle
 10
46.5
 20
-9.0
 30
0.0
 40
0.5000000000000018
100
AcDbArc
 50
0.0
 51
90.0
  0
ARC
  5
7B
330
1F
100
AcDbEntity
  8
0
  6
Continuous
 62
     7
100
AcDbCircle
 10
46.5
 20
-16.0
 30
0.0
 40
0.5
100
AcDbArc
 50
270.0
 51
0.0
  0
ARC
  5
7C
330
1F
100
AcDbEntity
  8
0
  6
Continuous
 62
     7
100
AcDbCircle
 10
38.7488706763
 20
19.4703285711
 30
0.0
 40
0.5000000000000071
100
AcDbArc
 50
270.0
 51
0.0
  0
ARC
  5
7D
330
1F
100
AcDbEntity
  8
0
  6
Continuous
 62
     7
100
AcDbCircle
 10
35.7488706763
 20
22.4703285711
 30
0.0
 40
0.5
100
AcDbArc
 50
90.0
 51
180.0
  0
ARC
  5
7E
330
1F
100
AcDbEntity
  8
0
  6
Continuous
 62
     7
100
AcDbCircle
 10
35.7488706763
 20
19.4703285711
 30
0.0
 40
0.5
100
AcDbArc
 50
180.0
 51
270.0
  0
ARC
  5
7F
330
1F
100
AcDbEntity
  8
0
  6
Continuous
 62
     7
100
AcDbCircle
 10
38.7488706763
 20
22.4703285711
 30
0.0
 40
0.5000000000000071
100
AcDbArc
 50
0.0
 51
90.0
  0
LINE
  5
80
330
1F
100
AcDbEntity
  8
0
  6
Continuous
 62
     7
100
AcDbLine
 10
49.0
 20
31.0
 30
0.0
 11
-49.0
 21
31.0
 31
0.0
  0
LINE
  5
81
330
1F
100
AcDbEntity
  8
0
  6
CENTERX2
 62
     7
100
AcDbLine
 10
0.0
 20
51.5867714147
 30
0.0
 11
0.0
 21
-43.1059037171
 31
0.0
  0
LINE
  5
82
330
1F
100
AcDbEntity
  8
0
  6
CENTERX2
 62
     7
100
AcDbLine
 10
-65.9422333474
 20
0.0
 30
0.0
 11
63.7643089095
 21
0.0
 31
0.0
  0
LINE
  5
83
330
1F
100
AcDbEntity
  8
0
  6
Continuous
 62
     7
100
AcDbLine
 10
-49.0
 20
-31.0
 30
0.0
 11
49.0
 21
-31.0
 31
0.0
  0
LINE
  5
84
330
1F
100
AcDbEntity
  8
0
  6
Continuous
 62
     7
100
AcDbLine
 10
-50.0
 20
30.0
 30
0.0
 11
-50.0
 21
-30.0
 31
0.0
  0
LINE
  5
85
330
1F
100
AcDbEntity
  8
0
  6
Continuous
 62
     7
100
AcDbLine
 10
37.5
 20
-8.0
 30
0.0
 11
46.5
 21
-8.0
 31
0.0
  0
LINE
  5
86
330
1F
100
AcDbEntity
  8
0
  6
Continuous
 62
     7
100
AcDbLine
 10
-34.0
 20
16.0
 30
0.0
 11
-34.0
 21
-16.0
 31
0.0
  0
LINE
  5
87
330
1F
100
AcDbEntity
  8
0
  6
Continuous
 62
     7
100
AcDbLine
 10
-31.0
 20
-19.0
 30
0.0
 11
-11.7445626465
 21
-19.0
 31
0.0
  0
LINE
  5
88
330
1F
100
AcDbEntity
  8
0
  6
Continuous
 62
     7
100
AcDbLine
 10
-32.0
 20
16.0
 30
0.0
 11
-32.0
 21
-16.0
 31
0.0
  0
LINE
  5
89
330
1F
100
AcDbEntity
  8
0
  6
Continuous
 62
     7
100
AcDbLine
 10
-10.6188021535
 20
17.0
 30
0.0
 11
-10.3301270189
 21
17.5
 31
0.0
  0
LINE
  5
8A
330
1F
100
AcDbEntity
  8
0
  6
Continuous
 62
     7
100
AcDbLine
 10
-6.0
 20
20.0
 30
0.0
 11
6.0
 21
20.0
 31
0.0
  0
LINE
  5
8B
330
1F
100
AcDbEntity
  8
0
  6
Continuous
 62
     7
100
AcDbLine
 10
-6.0
 20
-22.0
 30
0.0
 11
6.0
 21
-22.0
 31
0.0
  0
LINE
  5
8C
330
1F
100
AcDbEntity
  8
0
  6
Continuous
 62
     7
100
AcDbLine
 10
31.0
 20
-19.0
 30
0.0
 11
11.7445626465
 21
-19.0
 31
0.0
  0
LINE
  5
8D
330
1F
100
AcDbEntity
  8
0
  6
Continuous
 62
     7
100
AcDbLine
 10
34.0
 20
16.0
 30
0.0
 11
34.0
 21
-16.0
 31
0.0
  0
LINE
  5
8E
330
1F
100
AcDbEntity
  8
0
  6
Continuous
 62
     7
100
AcDbLine
 10
31.0
 20
19.0
 30
0.0
 11
11.7445626465
 21
19.0
 31
0.0
  0
LINE
  5
8F
330
1F
100
AcDbEntity
  8
0
  6
Continuous
 62
     7
100
AcDbLine
 10
-6.0
 20
22.0
 30
0.0
 11
6.0
 21
22.0
 31
0.0
  0
LINE
  5
90
330
1F
100
AcDbEntity
  8
0
  6
Continuous
 62
     7
100
AcDbLine
 10
-31.0
 20
19.0
 30
0.0
 11
-11.7445626465
 21
19.0
 31
0.0
  0
LINE
  5
91
330
1F
100
AcDbEntity
  8
0
  6
Continuous
 62
     7
100
AcDbLine
 10
-29.4000727662
 20
26.5
 30
0.0
 11
29.4000727662
 21
26.5
 31
0.0
  0
LINE
  5
92
330
1F
100
AcDbEntity
  8
0
  6
Continuous
 62
     7
100
AcDbLine
 10
-40.0
 20
25.5
 30
0.0
 11
-40.0
 21
30.0
 31
0.0
  0
LINE
  5
93
330
1F
100
AcDbEntity
  8
0
  6
Continuous
 62
     7
100
AcDbLine
 10
33.9848172999
 20
28.6284355204
 30
0.0
 11
33.9228468164
 21
28.5573467193
 31
0.0
  0
LINE
  5
94
330
1F
100
AcDbEntity
  8
0
  6
Continuous
 62
     7
100
AcDbLine
 10
40.0
 20
30.0
 30
0.0
 11
37.0
 21
30.0
 31
0.0
  0
LINE
  5
95
330
1F
100
AcDbEntity
  8
0
  6
Continuous
 62
     7
100
AcDbLine
 10
-31.0
 20
17.0
 30
0.0
 11
-10.6188021535
 21
17.0
 31
0.0
  0
LINE
  5
96
330
1F
100
AcDbEntity
  8
0
  6
Continuous
 62
     7
100
AcDbLine
 10
49.0
 20
21.5
 30
0.0
 11
49.0
 21
-21.5
 31
0.0
  0
LINE
  5
97
330
1F
100
AcDbEntity
  8
0
  6
Continuous
 62
     7
100
AcDbLine
 10
40.0
 20
-30.0
 30
0.0
 11
37.0
 21
-30.0
 31
0.0
  0
LINE
  5
98
330
1F
100
AcDbEntity
  8
0
  6
Continuous
 62
     7
100
AcDbLine
 10
33.9228468164
 20
-28.5573467193
 30
0.0
 11
33.9848172999
 21
-28.6284355204
 31
0.0
  0
LINE
  5
99
330
1F
100
AcDbEntity
  8
0
  6
Continuous
 62
     7
100
AcDbLine
 10
-29.4000727662
 20
-26.5
 30
0.0
 11
29.4000727662
 21
-26.5
 31
0.0
  0
LINE
  5
9A
330
1F
100
AcDbEntity
  8
0
  6
Continuous
 62
     7
100
AcDbLine
 10
-33.9228468164
 20
-28.5573467193
 30
0.0
 11
-33.9848172999
 21
-28.6284355204
 31
0.0
  0
LINE
  5
9B
330
1F
100
AcDbEntity
  8
0
  6
Continuous
 62
     7
100
AcDbLine
 10
-40.0
 20
-30.0
 30
0.0
 11
-37.0
 21
-30.0
 31
0.0
  0
LINE
  5
9C
330
1F
100
AcDbEntity
  8
0
  6
Continuous
 62
     7
100
AcDbLine
 10
-49.0
 20
21.5
 30
0.0
 11
-49.0
 21
-21.5
 31
0.0
  0
LINE
  5
9D
330
1F
100
AcDbEntity
  8
0
  6
Continuous
 62
     7
100
AcDbLine
 10
-40.0
 20
30.0
 30
0.0
 11
-37.0
 21
30.0
 31
0.0
  0
LINE
  5
9E
330
1F
100
AcDbEntity
  8
0
  6
Continuous
 62
     7
100
AcDbLine
 10
-33.9848172999
 20
28.6284355204
 30
0.0
 11
-33.9228468164
 21
28.5573467193
 31
0.0
  0
LINE
  5
9F
330
1F
100
AcDbEntity
  8
0
  6
Continuous
 62
     7
100
AcDbLine
 10
-44.0
 20
21.5
 30
0.0
 11
-49.0
 21
21.5
 31
0.0
  0
LINE
  5
A0
330
1F
100
AcDbEntity
  8
0
  6
Continuous
 62
     7
100
AcDbLine
 10
-35.0
 20
16.0
 30
0.0
 11
-35.0
 21
-16.0
 31
0.0
  0
LINE
  5
A1
330
1F
100
AcDbEntity
  8
0
  6
Continuous
 62
     7
100
AcDbLine
 10
-31.0
 20
-20.0
 30
0.0
 11
-12.2449979984
 21
-20.0
 31
0.0
  0
LINE
  5
A2
330
1F
100
AcDbEntity
  8
0
  6
Continuous
 62
     7
100
AcDbLine
 10
-6.0
 20
-23.0
 30
0.0
 11
6.0
 21
-23.0
 31
0.0
  0
LINE
  5
A3
330
1F
100
AcDbEntity
  8
0
  6
Continuous
 62
     7
100
AcDbLine
 10
10.6188021535
 20
17.0
 30
0.0
 11
10.3301270189
 21
17.5
 31
0.0
  0
LINE
  5
A4
330
1F
100
AcDbEntity
  8
0
  6
Continuous
 62
     7
100
AcDbLine
 10
32.0
 20
16.0
 30
0.0
 11
32.0
 21
-16.0
 31
0.0
  0
LINE
  5
A5
330
1F
100
AcDbEntity
  8
0
  6
Continuous
 62
     7
100
AcDbLine
 10
31.0
 20
17.0
 30
0.0
 11
10.6188021535
 21
17.0
 31
0.0
  0
LINE
  5
A6
330
1F
100
AcDbEntity
  8
0
  6
Continuous
 62
     7
100
AcDbLine
 10
47.5
 20
-9.0
 30
0.0
 11
47.5
 21
-16.0
 31
0.0
  0
LINE
  5
A7
330
1F
100
AcDbEntity
  8
0
  6
Continuous
 62
     7
100
AcDbLine
 10
50.0
 20
30.0
 30
0.0
 11
50.0
 21
-30.0
 31
0.0
  0
LINE
  5
A8
330
1F
100
AcDbEntity
  8
0
  6
Continuous
 62
     7
100
AcDbLine
 10
37.5
 20
-17.0
 30
0.0
 11
46.5
 21
-17.0
 31
0.0
  0
LINE
  5
A9
330
1F
100
AcDbEntity
  8
0
  6
Continuous
 62
     7
100
AcDbLine
 10
31.0
 20
-20.0
 30
0.0
 11
12.2449979984
 21
-20.0
 31
0.0
  0
LINE
  5
AA
330
1F
100
AcDbEntity
  8
0
  6
Continuous
 62
     7
100
AcDbLine
 10
35.0
 20
16.0
 30
0.0
 11
35.0
 21
-16.0
 31
0.0
  0
LINE
  5
AB
330
1F
100
AcDbEntity
  8
0
  6
Continuous
 62
     7
100
AcDbLine
 10
31.0
 20
20.0
 30
0.0
 11
12.2449979984
 21
20.0
 31
0.0
  0
LINE
  5
AC
330
1F
100
AcDbEntity
  8
0
  6
Continuous
 62
     7
100
AcDbLine
 10
-6.0
 20
23.0
 30
0.0
 11
6.0
 21
23.0
 31
0.0
  0
LINE
  5
AD
330
1F
100
AcDbEntity
  8
0
  6
Continuous
 62
     7
100
AcDbLine
 10
-31.0
 20
20.0
 30
0.0
 11
-12.2449979984
 21
20.0
 31
0.0
  0
LINE
  5
AE
330
1F
100
AcDbEntity
  8
0
  6
Continuous
 62
     7
100
AcDbLine
 10
44.0
 20
21.5
 30
0.0
 11
49.0
 21
21.5
 31
0.0
  0
LINE
  5
AF
330
1F
100
AcDbEntity
  8
0
  6
Continuous
 62
     7
100
AcDbLine
 10
40.0
 20
25.5
 30
0.0
 11
40.0
 21
30.0
 31
0.0
  0
LINE
  5
B0
330
1F
100
AcDbEntity
  8
0
  6
Continuous
 62
     7
100
AcDbLine
 10
-44.0
 20
-21.5
 30
0.0
 11
-49.0
 21
-21.5
 31
0.0
  0
LINE
  5
B1
330
1F
100
AcDbEntity
  8
0
  6
Continuous
 62
     7
100
AcDbLine
 10
-40.0
 20
-25.5
 30
0.0
 11
-40.0
 21
-30.0
 31
0.0
  0
LINE
  5
B2
330
1F
100
AcDbEntity
  8
0
  6
Continuous
 62
     7
100
AcDbLine
 10
40.0
 20
-25.5
 30
0.0
 11
40.0
 21
-30.0
 31
0.0
  0
LINE
  5
B3
330
1F
100
AcDbEntity
  8
0
  6
Continuous
 62
     7
100
AcDbLine
 10
44.0
 20
-21.5
 30
0.0
 11
49.0
 21
-21.5
 31
0.0
  0
LINE
  5
B4
330
1F
100
AcDbEntity
  8
0
  6
Continuous
 62
     7
100
AcDbLine
 10
36.5
 20
-9.0
 30
0.0
 11
36.5
 21
-16.0
 31
0.0
  0
LINE
  5
B5
330
1F
100
AcDbEntity
  8
0
  6
Continuous
 62
     7
100
AcDbLine
 10
10.6188021535
 20
-17.0
 30
0.0
 11
10.3301270189
 21
-17.5
 31
0.0
  0
LINE
  5
B6
330
1F
100
AcDbEntity
  8
0
  6
CENTERX2
 62
     7
100
AcDbLine
 10
31.0
 20
16.0
 30
0.0
 11
44.0
 21
25.5
 31
0.0
  0
LINE
  5
B7
330
1F
100
AcDbEntity
  8
0
  6
Continuous
 62
     7
100
AcDbLine
 10
37.5
 20
-8.5
 30
0.0
 11
46.5
 21
-8.5
 31
0.0
  0
LINE
  5
B8
330
1F
100
AcDbEntity
  8
0
  6
Continuous
 62
     7
100
AcDbLine
 10
37.0
 20
-9.0
 30
0.0
 11
37.0
 21
-16.0
 31
0.0
  0
LINE
  5
B9
330
1F
100
AcDbEntity
  8
0
  6
Continuous
 62
     7
100
AcDbLine
 10
37.5
 20
-16.5
 30
0.0
 11
46.5
 21
-16.5
 31
0.0
  0
LINE
  5
BA
330
1F
100
AcDbEntity
  8
0
  6
Continuous
 62
     7
100
AcDbLine
 10
47.0
 20
-9.0
 30
0.0
 11
47.0
 21
-16.0
 31
0.0
  0
LINE
  5
BB
330
1F
100
AcDbEntity
  8
0
  6
Continuous
 62
     7
100
AcDbLine
 10
35.7488706763
 20
22.9703285711
 30
0.0
 11
38.7488706763
 21
22.9703285711
 31
0.0
  0
LINE
  5
BC
330
1F
100
AcDbEntity
  8
0
  6
Continuous
 62
     7
100
AcDbLine
 10
31.0
 20
-17.0
 30
0.0
 11
10.6188021535
 21
-17.0
 31
0.0
  0
LINE
  5
BD
330
1F
100
AcDbEntity
  8
0
  6
Continuous
 62
     7
100
AcDbLine
 10
35.2488706763
 20
22.4703285711
 30
0.0
 11
35.2488706763
 21
19.4703285711
 31
0.0
  0
LINE
  5
BE
330
1F
100
AcDbEntity
  8
0
  6
Continuous
 62
     7
100
AcDbLine
 10
35.7488706763
 20
18.9703285711
 30
0.0
 11
38.7488706763
 21
18.9703285711
 31
0.0
  0
LINE
  5
BF
330
1F
100
AcDbEntity
  8
0
  6
Continuous
 62
     7
100
AcDbLine
 10
39.2488706763
 20
22.4703285711
 30
0.0
 11
39.2488706763
 21
19.4703285711
 31
0.0
  0
LINE
  5
C0
330
1F
100
AcDbEntity
  8
0
  6
CENTERX2
 62
     7
100
AcDbLine
 10
-22.0
 20
11.0
 30
0.0
 11
22.0
 21
11.0
 31
0.0
  0
LINE
  5
C1
330
1F
100
AcDbEntity
  8
0
  6
CENTERX2
 62
     7
100
AcDbLine
 10
-22.0
 20
11.0
 30
0.0
 11
-22.0
 21
-11.0
 31
0.0
  0
LINE
  5
C2
330
1F
100
AcDbEntity
  8
0
  6
CENTERX2
 62
     7
100
AcDbLine
 10
-22.0
 20
-11.0
 30
0.0
 11
22.0
 21
-11.0
 31
0.0
  0
LINE
  5
C3
330
1F
100
AcDbEntity
  8
0
  6
Continuous
 62
     7
100
AcDbLine
 10
-6.0
 20
-20.0
 30
0.0
 11
6.0
 21
-20.0
 31
0.0
  0
LINE
  5
C4
330
1F
100
AcDbEntity
  8
0
  6
Continuous
 62
     7
100
AcDbLine
 10
-10.6188021535
 20
-17.0
 30
0.0
 11
-10.3301270189
 21
-17.5
 31
0.0
  0
LINE
  5
C5
330
1F
100
AcDbEntity
  8
0
  6
Continuous
 62
     7
100
AcDbLine
 10
-31.0
 20
-17.0
 30
0.0
 11
-10.6188021535
 21
-17.0
 31
0.0
  0
LINE
  5
C6
330
1F
100
AcDbEntity
  8
0
  6
CENTERX2
 62
     7
100
AcDbLine
 10
22.0
 20
11.0
 30
0.0
 11
22.0
 21
-11.0
 31
0.0
  0
LWPOLYLINE
  5
C7
330
1F
100
AcDbEntity
  8
0
  6
Continuous
 62
     7
100
AcDbPolyline
 90
      145
 70
   128
 43
0.0
 10
-32.371789217
 20
-22.4587339744
 10
-32.5681089744
 20
-22.608974359
 10
-32.5681089744
 20
-22.608974359
 10
-32.6106770833
 20
-22.5593950321
 10
-32.6552483974
 20
-22.5128205128
 10
-32.7018229167
 20
-22.4692508013
 10
-32.750400641
 20
-22.4286858974
 10
-32.8014823718
 20
-22.3916266026
 10
-32.8540665064
 20
-22.3575721154
 10
-32.9091546474
 20
-22.3265224359
 10
-32.9662459936
 20
-22.2984775641
 10
-33.0854366987
 20
-22.2519030449
 10
-33.2101362179
 20
-22.2188501603
 10
-33.3403445513
 20
-22.198818109
 10
-33.4765625
 20
-22.1923076923
 10
-33.4765625
 20
-22.1923076923
 10
-33.5516826923
 20
-22.1943108974
 10
-33.6258012821
 20
-22.2013221154
 10
-33.6984174679
 20
-22.2123397436
 10
-33.7690304487
 20
-22.2278645833
 10
-33.8391426282
 20
-22.2478966346
 10
-33.9072516026
 20
-22.2719350962
 10
-33.9738581731
 20
-22.3009815705
 10
-34.039463141
 20
-22.3340344551
 10
-34.1025641026
 20
-22.37109375
 10
-34.1616586538
 20
-22.4111578526
 10
-34.2172475962
 20
-22.4542267628
 10
-34.2693309295
 20
-22.5003004808
 10
-34.3179086538
 20
-22.5493790064
 10
-34.3624799679
 20
-22.6014623397
 10
-34.4035456731
 20
-22.6570512821
 10
-34.4411057692
 20
-22.7151442308
 10
-34.4746594551
 20
-22.7757411859
 10
-34.5032051282
 20
-22.8383413462
 10
-34.527744391
 20
-22.9024439103
 10
-34.5477764423
 20
-22.9690504808
 10
-34.5633012821
 20
-23.0371594551
 10
-34.5743189103
 20
-23.1067708333
 10
-34.5813301282
 20
-23.1788862179
 10
-34.5833333333
 20
-23.2525040064
 10
-34.5833333333
 20
-23.2525040064
 10
-34.5783253205
 20
-23.3631810897
 10
-34.5633012821
 20
-23.4688501603
 10
-34.5387620192
 20
-23.5700120192
 10
-34.5037059295
 20
-23.6661658654
 10
-34.4591346154
 20
-23.7583133013
 10
-34.4040464744
 20
-23.8454527244
 10
-34.339443109
 20
-23.9280849359
 10
-34.2648237179
 20
-24.0057091346
 10
-34.1826923077
 20
-24.0763221154
 10
-34.0950520833
 20
-24.1379206731
 10
-34.0024038462
 20
-24.1895032051
 10
-33.9047475962
 20
-24.2320713141
 10
-33.8015825321
 20
-24.2651241987
 10
-33.6934094551
 20
-24.288661859
 10
-33.5797275641
 20
-24.3031850962
 10
-33.4610376603
 20
-24.3076923077
 10
-33.4610376603
 20
-24.3076923077
 10
-33.3303285256
 20
-24.301181891
 10
-33.2051282051
 20
-24.281650641
 10
-33.0854366987
 20
-24.2490985577
 10
-32.9707532051
 20
-24.203525641
 10
-32.8620793269
 20
-24.144931891
 10
-32.7584134615
 20
-24.0733173077
 10
-32.6607572115
 20
-23.988681891
 10
-32.5681089744
 20
-23.891025641
 10
-32.5681089744
 20
-23.891025641
 10
-32.3717948718
 20
-24.0397636218
 10
-32.3717948718
 20
-24.0397636218
 10
-32.4198717949
 20
-24.1003605769
 10
-32.4709535256
 20
-24.1579527244
 10
-32.5245392628
 20
-24.2115384615
 10
-32.5811298077
 20
-24.2616185897
 10
-32.6407251603
 20
-24.3086939103
 10
-32.7033253205
 20
-24.3517628205
 10
-32.7689302885
 20
-24.3913261218
 10
-32.8370392628
 20
-24.4273838141
 10
-32.9076522436
 20
-24.4594350962
 10
-32.9802684295
 20
-24.4869791667
 10
-33.0548878205
 20
-24.5105168269
 10
-33.1320112179
 20
-24.5300480769
 10
-33.2106370192
 20
-24.5450721154
 10
-33.2917668269
 20
-24.5555889423
 10
-33.3743990385
 20
-24.562099359
 10
-33.4595352564
 20
-24.5641025641
 10
-33.4595352564
 20
-24.5641025641
 10
-33.5401642628
 20
-24.5626001603
 10
-33.6187900641
 20
-24.5570913462
 10
-33.694911859
 20
-24.5485777244
 10
-33.7690304487
 20
-24.5365584936
 10
-33.8411458333
 20
-24.5215344551
 10
-33.9107572115
 20
-24.5025040064
 10
-33.9783653846
 20
-24.48046875
 10
-34.0439703526
 20
-24.4549278846
 10
-34.1075721154
 20
-24.4258814103
 10
-34.1686698718
 20
-24.3933293269
 10
-34.2277644231
 20
-24.3572716346
 10
-34.2848557692
 20
-24.3182091346
 10
-34.339443109
 20
-24.2756410256
 10
-34.3920272436
 20
-24.2295673077
 10
-34.4426081731
 20
-24.1799879808
 10
-34.4906850962
 20
-24.1269030449
 10
-34.4906850962
 20
-24.1269030449
 10
-34.5648036859
 20
-24.0322516026
 10
-34.6294070513
 20
-23.9325921474
 10
-34.683994391
 20
-23.8284254808
 10
-34.7285657051
 20
-23.7192508013
 10
-34.7631209936
 20
-23.6055689103
 10
-34.7876602564
 20
-23.4868790064
 10
-34.8026842949
 20
-23.363681891
 10
-34.8076923077
 20
-23.2354767628
 10
-34.8076923077
 20
-23.2354767628
 10
-34.8016826923
 20
-23.1007612179
 10
-34.7836538462
 20
-22.9715544872
 10
-34.7536057692
 20
-22.8478565705
 10
-34.7115384615
 20
-22.7296674679
 10
-34.6579527244
 20
-22.6169871795
 10
-34.5918469551
 20
-22.5093149038
 10
-34.5142227564
 20
-22.4076522436
 10
-34.4240785256
 20
-22.3109975962
 10
-34.3249198718
 20
-22.2228565705
 10
-34.2202524038
 20
-22.1467347756
 10
-34.1090745192
 20
-22.0826322115
 10
-33.9918870192
 20
-22.0295472756
 10
-33.8686899038
 20
-21.9884815705
 10
-33.7394831731
 20
-21.9594350962
 10
-33.6037660256
 20
-21.9419070513
 10
-33.4625400641
 20
-21.9358974359
 10
-33.4625400641
 20
-21.9358974359
 10
-33.3764022436
 20
-21.937900641
 10
-33.2922676282
 20
-21.9444110577
 10
-33.2106370192
 20
-21.9554286859
 10
-33.1310096154
 20
-21.9704527244
 10
-33.0533854167
 20
-21.9894831731
 10
-32.9777644231
 20
-22.0135216346
 10
-32.9041466346
 20
-22.0415665064
 10
-32.8330328526
 20
-22.0736177885
 10
-32.7644230769
 20
-22.1096754808
 10
-32.698818109
 20
-22.1492387821
 10
-32.6362179487
 20
-22.1923076923
 10
-32.5771233974
 20
-22.2383814103
 10
-32.5210336538
 20
-22.2884615385
 10
-32.4679487179
 20
-22.3415464744
 10
-32.418369391
 20
-22.3986378205
 10
-32.3717948718
 20
-22.4587339744
  0
LWPOLYLINE
  5
C8
330
1F
100
AcDbEntity
  8
0
  6
Continuous
 62
     7
100
AcDbPolyline
 90
       16
 70
   128
 43
0.0
 10
-30.8333188295
 20
-22.0
 10
-29.6794871795
 20
-24.5
 10
-29.6794871795
 20
-24.5
 10
-29.9233774038
 20
-24.5
 10
-29.9233774038
 20
-24.5
 10
-30.29296875
 20
-23.6987179487
 10
-30.29296875
 20
-23.6987179487
 10
-31.4262820513
 20
-23.6987179487
 10
-31.4262820513
 20
-23.6987179487
 10
-31.8063902244
 20
-24.5
 10
-31.8063902244
 20
-24.5
 10
-32.0512820513
 20
-24.5
 10
-32.0512820513
 20
-24.5
 10
-30.8653846154
 20
-22.0
 10
-30.8653846154
 20
-22.0
 10
-30.8333333333
 20
-22.0
  0
LWPOLYLINE
  5
C9
330
1F
100
AcDbEntity
  8
0
  6
Continuous
 62
     7
100
AcDbPolyline
 90
        6
 70
   128
 43
0.0
 10
-30.8518558741
 20
-22.4872796474
 10
-31.3045873397
 20
-23.4423076923
 10
-31.3045873397
 20
-23.4423076923
 10
-30.4111578526
 20
-23.4423076923
 10
-30.4111578526
 20
-23.4423076923
 10
-30.8518629808
 20
-22.4872796474
  0
LWPOLYLINE
  5
CA
330
1F
100
AcDbEntity
  8
0
  6
Continuous
 62
     7
100
AcDbPolyline
 90
       59
 70
   128
 43
0.0
 10
-29.2307585478
 20
-22.0
 10
-28.73046875
 20
-22.0
 10
-28.73046875
 20
-22.0
 10
-28.6303084936
 20
-22.0005008013
 10
-28.5381610577
 20
-22.0020032051
 10
-28.4550280449
 20
-22.0050080128
 10
-28.3799078526
 20
-22.0085136218
 10
-28.3133012821
 20
-22.0135216346
 10
-28.2552083333
 20
-22.0190304487
 10
-28.2051282051
 20
-22.0260416667
 10
-28.1640625
 20
-22.0340544872
 10
-28.1640625
 20
-22.0340544872
 10
-28.1094751603
 20
-22.0485777244
 10
-28.0573918269
 20
-22.0671073718
 10
-28.0078125
 20
-22.0891426282
 10
-27.9612379808
 20
-22.1146834936
 10
-27.9171674679
 20
-22.1442307692
 10
-27.8756009615
 20
-22.1772836538
 10
-27.8365384615
 20
-22.2138421474
 10
-27.8004807692
 20
-22.2544070513
 10
-27.7674278846
 20
-22.2974759615
 10
-27.7388822115
 20
-22.3435496795
 10
-27.71484375
 20
-22.3916266026
 10
-27.6953125
 20
-22.4422075321
 10
-27.6797876603
 20
-22.4952924679
 10
-27.6687700321
 20
-22.550380609
 10
-27.6622596154
 20
-22.6084735577
 10
-27.6602564103
 20
-22.6685697115
 10
-27.6602564103
 20
-22.6685697115
 10
-27.6662660256
 20
-22.7682291667
 10
-27.6847956731
 20
-22.8613782051
 10
-27.7158453526
 20
-22.9485176282
 10
-27.7589142628
 20
-23.0296474359
 10
-27.8135016026
 20
-23.1027644231
 10
-27.8786057692
 20
-23.1663661859
 10
-27.9547275641
 20
-23.2204527244
 10
-28.0408653846
 20
-23.2650240385
 10
-28.0889423077
 20
-23.2835536859
 10
-28.141025641
 20
-23.3000801282
 10
-28.1976161859
 20
-23.3136017628
 10
-28.2587139423
 20
-23.3251201923
 10
-28.3243189103
 20
-23.3341346154
 10
-28.3939302885
 20
-23.3406450321
 10
-28.4680488782
 20
-23.3446514423
 10
-28.5466746795
 20
-23.3461538462
 10
-28.5466746795
 20
-23.3461538462
 10
-27.6282051282
 20
-24.5
 10
-27.6282051282
 20
-24.5
 10
-27.9056490385
 20
-24.5
 10
-27.9056490385
 20
-24.5
 10
-28.8241185897
 20
-23.3461538462
 10
-28.8241185897
 20
-23.3461538462
 10
-29.0064102564
 20
-23.3461538462
 10
-29.0064102564
 20
-23.3461538462
 10
-29.0064102564
 20
-24.5
 10
-29.0064102564
 20
-24.5
 10
-29.2307692308
 20
-24.5
 10
-29.2307692308
 20
-24.5
 10
-29.2307692308
 20
-22.0
  0
LWPOLYLINE
  5
CB
330
1F
100
AcDbEntity
  8
0
  6
Continuous
 62
     7
100
AcDbPolyline
 90
       40
 70
   128
 43
0.0
 10
-29.0064066648
 20
-22.2564102564
 10
-29.0064102564
 20
-23.0897435897
 10
-29.0064102564
 20
-23.0897435897
 10
-28.5486778846
 20
-23.0932491987
 10
-28.5486778846
 20
-23.0932491987
 10
-28.4845753205
 20
-23.0927483974
 10
-28.4244791667
 20
-23.090244391
 10
-28.3688902244
 20
-23.0867387821
 10
-28.3173076923
 20
-23.0817307692
 10
-28.2702323718
 20
-23.0752203526
 10
-28.2276642628
 20
-23.0672075321
 10
-28.1891025641
 20
-23.0576923077
 10
-28.1550480769
 20
-23.0466746795
 10
-28.0949519231
 20
-23.0196314103
 10
-28.0413661859
 20
-22.9860777244
 10
-27.9952924679
 20
-22.9450120192
 10
-27.9562299679
 20
-22.8974358974
 10
-27.9246794872
 20
-22.8443509615
 10
-27.9026442308
 20
-22.7887620192
 10
-27.8891225962
 20
-22.7296674679
 10
-27.8846153846
 20
-22.6680689103
 10
-27.8846153846
 20
-22.6680689103
 10
-27.8891225962
 20
-22.6079727564
 10
-27.9026442308
 20
-22.550380609
 10
-27.9256810897
 20
-22.4957932692
 10
-27.9572315705
 20
-22.4442107372
 10
-27.9962940705
 20
-22.3971354167
 10
-28.0408653846
 20
-22.3575721154
 10
-28.0909455128
 20
-22.3250200321
 10
-28.1470352564
 20
-22.2999799679
 10
-28.1790865385
 20
-22.2899639423
 10
-28.2156450321
 20
-22.2809495192
 10
-28.2572115385
 20
-22.2734375
 10
-28.3032852564
 20
-22.2674278846
 10
-28.3548677885
 20
-22.2624198718
 10
-28.4109575321
 20
-22.2589142628
 10
-28.4720552885
 20
-22.2569110577
 10
-28.5376602564
 20
-22.2564102564
 10
-28.5376602564
 20
-22.2564102564
 10
-29.0064102564
 20
-22.2564102564
  0
LWPOLYLINE
  5
CC
330
1F
100
AcDbEntity
  8
0
  6
Continuous
 62
     7
100
AcDbPolyline
 90
       16
 70
   128
 43
0.0
 10
-27.4038314819
 20
-22.2564102564
 10
-27.4038461538
 20
-22.0
 10
-27.4038461538
 20
-22.0
 10
-26.0897435897
 20
-22.0
 10
-26.0897435897
 20
-22.0
 10
-26.0897435897
 20
-22.2564102564
 10
-26.0897435897
 20
-22.2564102564
 10
-26.6346153846
 20
-22.2564102564
 10
-26.6346153846
 20
-22.2564102564
 10
-26.6346153846
 20
-24.5
 10
-26.6346153846
 20
-24.5
 10
-26.858974359
 20
-24.5
 10
-26.858974359
 20
-24.5
 10
-26.858974359
 20
-22.2564102564
 10
-26.858974359
 20
-22.2564102564
 10
-27.4038461538
 20
-22.2564102564
  0
LWPOLYLINE
  5
CD
330
1F
100
AcDbEntity
  8
0
  6
Continuous
 62
     7
100
AcDbPolyline
 90
       59
 70
   128
 43
0.0
 10
-25.705114007
 20
-22.0
 10
-25.2048277244
 20
-22.0
 10
-25.2048277244
 20
-22.0
 10
-25.1046674679
 20
-22.0005008013
 10
-25.0125200321
 20
-22.0020032051
 10
-24.9293870192
 20
-22.0050080128
 10
-24.8542668269
 20
-22.0085136218
 10
-24.7876602564
 20
-22.0135216346
 10
-24.7295673077
 20
-22.0190304487
 10
-24.6794871795
 20
-22.0260416667
 10
-24.6384214744
 20
-22.0340544872
 10
-24.6384214744
 20
-22.0340544872
 10
-24.5838341346
 20
-22.0485777244
 10
-24.5317508013
 20
-22.0671073718
 10
-24.4821714744
 20
-22.0891426282
 10
-24.4355969551
 20
-22.1146834936
 10
-24.3915264423
 20
-22.1442307692
 10
-24.3499599359
 20
-22.1772836538
 10
-24.3108974359
 20
-22.2138421474
 10
-24.2748397436
 20
-22.2544070513
 10
-24.241786859
 20
-22.2974759615
 10
-24.2132411859
 20
-22.3435496795
 10
-24.1892027244
 20
-22.3916266026
 10
-24.1696714744
 20
-22.4422075321
 10
-24.1541466346
 20
-22.4952924679
 10
-24.1431290064
 20
-22.550380609
 10
-24.1366185897
 20
-22.6084735577
 10
-24.1346153846
 20
-22.6685697115
 10
-24.1346153846
 20
-22.6685697115
 10
-24.140625
 20
-22.7682291667
 10
-24.1591546474
 20
-22.8613782051
 10
-24.1902043269
 20
-22.9485176282
 10
-24.2332732372
 20
-23.0296474359
 10
-24.2878605769
 20
-23.1027644231
 10
-24.3529647436
 20
-23.1663661859
 10
-24.4290865385
 20
-23.2204527244
 10
-24.515224359
 20
-23.2650240385
 10
-24.5633012821
 20
-23.2835536859
 10
-24.6153846154
 20
-23.3000801282
 10
-24.6719751603
 20
-23.3136017628
 10
-24.7330729167
 20
-23.3251201923
 10
-24.7986778846
 20
-23.3341346154
 10
-24.8682892628
 20
-23.3406450321
 10
-24.9424078526
 20
-23.3446514423
 10
-25.0210336538
 20
-23.3461538462
 10
-25.0210336538
 20
-23.3461538462
 10
-24.1025641026
 20
-24.5
 10
-24.1025641026
 20
-24.5
 10
-24.3800080128
 20
-24.5
 10
-24.3800080128
 20
-24.5
 10
-25.2984775641
 20
-23.3461538462
 10
-25.2984775641
 20
-23.3461538462
 10
-25.4807692308
 20
-23.3461538462
 10
-25.4807692308
 20
-23.3461538462
 10
-25.4807692308
 20
-24.5
 10
-25.4807692308
 20
-24.5
 10
-25.7051282051
 20
-24.5
 10
-25.7051282051
 20
-24.5
 10
-25.7051282051
 20
-22.0
  0
LWPOLYLINE
  5
CE
330
1F
100
AcDbEntity
  8
0
  6
Continuous
 62
     7
100
AcDbPolyline
 90
       40
 70
   128
 43
0.0
 10
-25.4807621241
 20
-22.2564102564
 10
-25.4807692308
 20
-23.0897435897
 10
-25.4807692308
 20
-23.0897435897
 10
-25.023036859
 20
-23.0932491987
 10
-25.023036859
 20
-23.0932491987
 10
-24.9589342949
 20
-23.0927483974
 10
-24.898838141
 20
-23.090244391
 10
-24.8432491987
 20
-23.0867387821
 10
-24.7916666667
 20
-23.0817307692
 10
-24.7445913462
 20
-23.0752203526
 10
-24.7020232372
 20
-23.0672075321
 10
-24.6634615385
 20
-23.0576923077
 10
-24.6294070513
 20
-23.0466746795
 10
-24.5693108974
 20
-23.0196314103
 10
-24.5157251603
 20
-22.9860777244
 10
-24.4696514423
 20
-22.9450120192
 10
-24.4305889423
 20
-22.8974358974
 10
-24.3990384615
 20
-22.8443509615
 10
-24.3770032051
 20
-22.7887620192
 10
-24.3634815705
 20
-22.7296674679
 10
-24.358974359
 20
-22.6680689103
 10
-24.358974359
 20
-22.6680689103
 10
-24.3634815705
 20
-22.6079727564
 10
-24.3770032051
 20
-22.550380609
 10
-24.4000400641
 20
-22.4957932692
 10
-24.4315905449
 20
-22.4442107372
 10
-24.4706530449
 20
-22.3971354167
 10
-24.515224359
 20
-22.3575721154
 10
-24.5653044872
 20
-22.3250200321
 10
-24.6213942308
 20
-22.2999799679
 10
-24.6534455128
 20
-22.2899639423
 10
-24.6900040064
 20
-22.2809495192
 10
-24.7315705128
 20
-22.2734375
 10
-24.7776442308
 20
-22.2674278846
 10
-24.8292267628
 20
-22.2624198718
 10
-24.8853165064
 20
-22.2589142628
 10
-24.9464142628
 20
-22.2569110577
 10
-25.0120192308
 20
-22.2564102564
 10
-25.0120192308
 20
-22.2564102564
 10
-25.4807692308
 20
-22.2564102564
  0
LWPOLYLINE
  5
CF
330
1F
100
AcDbEntity
  8
0
  6
Continuous
 62
     7
100
AcDbPolyline
 90
        8
 70
   128
 43
0.0
 10
-23.5897302628
 20
-22.0
 10
-23.3653846154
 20
-22.0
 10
-23.3653846154
 20
-22.0
 10
-23.3653846154
 20
-24.5
 10
-23.3653846154
 20
-24.5
 10
-23.5897435897
 20
-24.5
 10
-23.5897435897
 20
-24.5
 10
-23.5897435897
 20
-22.0
  0
LWPOLYLINE
  5
D0
330
1F
100
AcDbEntity
  8
0
  6
Continuous
 62
     7
100
AcDbPolyline
 90
       57
 70
   128
 43
0.0
 10
-22.7243453264
 20
-24.5
 10
-22.7243589744
 20
-22.0
 10
-22.7243589744
 20
-22.0
 10
-22.2195512821
 20
-22.0
 10
-22.2195512821
 20
-22.0
 10
-22.0878405449
 20
-22.0015024038
 10
-21.9651442308
 20
-22.0055088141
 10
-21.851963141
 20
-22.0125200321
 10
-21.7477964744
 20
-22.0225360577
 10
-21.6536458333
 20
-22.0350560897
 10
-21.5685096154
 20
-22.0505809295
 10
-21.4928886218
 20
-22.0691105769
 10
-21.4262820513
 20
-22.0901442308
 10
-21.4262820513
 20
-22.0901442308
 10
-21.3401442308
 20
-22.1246995192
 10
-21.2590144231
 20
-22.1652644231
 10
-21.1823918269
 20
-22.2118389423
 10
-21.1107772436
 20
-22.2639222756
 10
-21.0441706731
 20
-22.3225160256
 10
-20.9820713141
 20
-22.3861177885
 10
-20.9249799679
 20
-22.4562299679
 10
-20.8728966346
 20
-22.5318509615
 10
-20.8258213141
 20
-22.6124799679
 10
-20.7852564103
 20
-22.6966145833
 10
-20.7512019231
 20
-22.784755609
 10
-20.7231570513
 20
-22.8764022436
 10
-20.7011217949
 20
-22.9720552885
 10
-20.6855969551
 20
-23.0717147436
 10
-20.6760817308
 20
-23.1748798077
 10
-20.6730769231
 20
-23.2815504808
 10
-20.6730769231
 20
-23.2815504808
 10
-20.6755809295
 20
-23.3741987179
 10
-20.6830929487
 20
-23.4638421474
 10
-20.6951121795
 20
-23.5504807692
 10
-20.7126402244
 20
-23.6346153846
 10
-20.7346754808
 20
-23.7157451923
 10
-20.7622195513
 20
-23.7943709936
 10
-20.7942708333
 20
-23.8699919872
 10
-20.8313301282
 20
-23.9426081731
 10
-20.8723958333
 20
-24.01171875
 10
-20.9159655449
 20
-24.0758213141
 10
-20.9630408654
 20
-24.1359174679
 10
-21.0126201923
 20
-24.1905048077
 10
-21.0657051282
 20
-24.2410857372
 10
-21.1212940705
 20
-24.2866586538
 10
-21.1803886218
 20
-24.327724359
 10
-21.2419871795
 20
-24.3642828526
 10
-21.3080929487
 20
-24.3963341346
 10
-21.3807091346
 20
-24.4238782051
 10
-21.4598357372
 20
-24.4469150641
 10
-21.5449719551
 20
-24.4659455128
 10
-21.6366185897
 20
-24.4809695513
 10
-21.734775641
 20
-24.4914863782
 10
-21.8389423077
 20
-24.4979967949
 10
-21.949619391
 20
-24.5
 10
-21.949619391
 20
-24.5
 10
-22.7243589744
 20
-24.5
  0
LWPOLYLINE
  5
D1
330
1F
100
AcDbEntity
  8
0
  6
Continuous
 62
     7
100
AcDbPolyline
 90
       58
 70
   128
 43
0.0
 10
-22.4999934435
 20
-24.2435897436
 10
-22.2130408654
 20
-24.2435897436
 10
-22.2130408654
 20
-24.2435897436
 10
-22.0893429487
 20
-24.242588141
 10
-21.9751602564
 20
-24.2395833333
 10
-21.8709935897
 20
-24.2345753205
 10
-21.7768429487
 20
-24.2275641026
 10
-21.6922075321
 20
-24.2185496795
 10
-21.617588141
 20
-24.2080328526
 10
-21.5529847756
 20
-24.1950120192
 10
-21.4983974359
 20
-24.1799879808
 10
-21.4983974359
 20
-24.1799879808
 10
-21.4302884615
 20
-24.1549479167
 10
-21.3656850962
 20
-24.1259014423
 10
-21.305088141
 20
-24.0918469551
 10
-21.2484975962
 20
-24.0537860577
 10
-21.1954126603
 20
-24.0107171474
 10
-21.1458333333
 20
-23.9631410256
 10
-21.1002604167
 20
-23.9115584936
 10
-21.058193109
 20
-23.8549679487
 10
-21.0206330128
 20
-23.7943709936
 10
-20.9880809295
 20
-23.7307692308
 10
-20.9600360577
 20
-23.6641626603
 10
-20.9375
 20
-23.5940504808
 10
-20.9199719551
 20
-23.5204326923
 10
-20.9074519231
 20
-23.4438100962
 10
-20.8999399038
 20
-23.3641826923
 10
-20.8974358974
 20
-23.2810496795
 10
-20.8974358974
 20
-23.2810496795
 10
-20.8999399038
 20
-23.1934094551
 10
-20.9084535256
 20
-23.1092748397
 10
-20.9219751603
 20
-23.0286458333
 10
-20.941005609
 20
-22.9510216346
 10
-20.9655448718
 20
-22.8764022436
 10
-20.9955929487
 20
-22.8052884615
 10
-21.0306490385
 20
-22.7371794872
 10
-21.0717147436
 20
-22.6725761218
 10
-21.1172876603
 20
-22.6119791667
 10
-21.1673677885
 20
-22.5563902244
 10
-21.2214543269
 20
-22.5058092949
 10
-21.2795472756
 20
-22.4597355769
 10
-21.3421474359
 20
-22.4191706731
 10
-21.4092548077
 20
-22.3831129808
 10
-21.4803685897
 20
-22.3525641026
 10
-21.5559895833
 20
-22.3265224359
 10
-21.5559895833
 20
-22.3265224359
 10
-21.6190905449
 20
-22.3099959936
 10
-21.6912059295
 20
-22.2959735577
 10
-21.7733373397
 20
-22.2839543269
 10
-21.8644831731
 20
-22.2739383013
 10
-21.9651442308
 20
-22.2664262821
 10
-22.0753205128
 20
-22.2609174679
 10
-22.1950120192
 20
-22.257411859
 10
-22.32421875
 20
-22.2564102564
 10
-22.32421875
 20
-22.2564102564
 10
-22.5
 20
-22.2564102564
 10
-22.5
 20
-22.2564102564
 10
-22.5
 20
-24.2435897436
  0
LWPOLYLINE
  5
D2
330
1F
100
AcDbEntity
  8
0
  6
Continuous
 62
     7
100
AcDbPolyline
 90
      169
 70
   128
 43
0.0
 10
-17.820507288
 20
-22.4266826923
 10
-18.0128205128
 20
-22.608974359
 10
-18.0128205128
 20
-22.608974359
 10
-18.1189903846
 20
-22.5128205128
 10
-18.2306690705
 20
-22.4286858974
 10
-18.3468549679
 20
-22.3575721154
 10
-18.4685496795
 20
-22.2984775641
 10
-18.5917467949
 20
-22.2519030449
 10
-18.7129407051
 20
-22.2188501603
 10
-18.8331330128
 20
-22.198818109
 10
-18.9513221154
 20
-22.1923076923
 10
-18.9513221154
 20
-22.1923076923
 10
-19.0239383013
 20
-22.1943108974
 10
-19.0960536859
 20
-22.2013221154
 10
-19.1666666667
 20
-22.2123397436
 10
-19.2367788462
 20
-22.2278645833
 10
-19.3063902244
 20
-22.2478966346
 10
-19.3744991987
 20
-22.2724358974
 10
-19.4421073718
 20
-22.3014823718
 10
-19.5087139423
 20
-22.3350360577
 10
-19.5728165064
 20
-22.3720953526
 10
-19.6334134615
 20
-22.4126602564
 10
-19.6905048077
 20
-22.4562299679
 10
-19.7435897436
 20
-22.5033052885
 10
-19.7926682692
 20
-22.5533854167
 10
-19.8387419872
 20
-22.6064703526
 10
-19.8808092949
 20
-22.6630608974
 10
-19.9188701923
 20
-22.72265625
 10
-19.9529246795
 20
-22.7842548077
 10
-19.9824719551
 20
-22.8463541667
 10
-20.0075120192
 20
-22.9099559295
 10
-20.0275440705
 20
-22.9740584936
 10
-20.0435697115
 20
-23.038661859
 10
-20.055088141
 20
-23.1047676282
 10
-20.0615985577
 20
-23.1713741987
 10
-20.0641025641
 20
-23.2389823718
 10
-20.0641025641
 20
-23.2389823718
 10
-20.0615985577
 20
-23.3080929487
 10
-20.0545873397
 20
-23.3767027244
 10
-20.0420673077
 20
-23.4443108974
 10
-20.0250400641
 20
-23.5109174679
 10
-20.003505609
 20
-23.5770232372
 10
-19.976963141
 20
-23.6421274038
 10
-19.9454126603
 20
-23.7062299679
 10
-19.9088541667
 20
-23.7693309295
 10
-19.8682892628
 20
-23.8304286859
 10
-19.8237179487
 20
-23.8880208333
 10
-19.7756410256
 20
-23.9426081731
 10
-19.7240584936
 20
-23.9931891026
 10
-19.6684695513
 20
-24.0412660256
 10
-19.609375
 20
-24.0853365385
 10
-19.5462740385
 20
-24.1264022436
 10
-19.4796674679
 20
-24.1639623397
 10
-19.410556891
 20
-24.1975160256
 10
-19.339443109
 20
-24.2270633013
 10
-19.2668269231
 20
-24.2516025641
 10
-19.1927083333
 20
-24.2716346154
 10
-19.1165865385
 20
-24.2876602564
 10
-19.0389623397
 20
-24.2986778846
 10
-18.9598357372
 20
-24.3056891026
 10
-18.8792067308
 20
-24.3076923077
 10
-18.8792067308
 20
-24.3076923077
 10
-18.7820512821
 20
-24.3041866987
 10
-18.6889022436
 20
-24.2941706731
 10
-18.5992588141
 20
-24.2776442308
 10
-18.5136217949
 20
-24.2541065705
 10
-18.4319911859
 20
-24.2240584936
 10
-18.3538661859
 20
-24.1875
 10
-18.2797475962
 20
-24.1439302885
 10
-18.2091346154
 20
-24.0938501603
 10
-18.1440304487
 20
-24.0382612179
 10
-18.0859375
 20
-23.9786658654
 10
-18.0348557692
 20
-23.9150641026
 10
-17.9907852564
 20
-23.8479567308
 10
-17.9537259615
 20
-23.7763421474
 10
-17.9236778846
 20
-23.7012219551
 10
-17.9006410256
 20
-23.6215945513
 10
-17.8846153846
 20
-23.5384615385
 10
-17.8846153846
 20
-23.5384615385
 10
-18.7179487179
 20
-23.5384615385
 10
-18.7179487179
 20
-23.5384615385
 10
-18.7179487179
 20
-23.2820512821
 10
-18.7179487179
 20
-23.2820512821
 10
-17.6602564103
 20
-23.2820512821
 10
-17.6602564103
 20
-23.2820512821
 10
-17.6662660256
 20
-23.4252804487
 10
-17.6827924679
 20
-23.5614983974
 10
-17.7098357372
 20
-23.6897035256
 10
-17.7468950321
 20
-23.8103966346
 10
-17.7944711538
 20
-23.9235777244
 10
-17.8525641026
 20
-24.0292467949
 10
-17.9211738782
 20
-24.1269030449
 10
-17.9997996795
 20
-24.2175480769
 10
-18.0874399038
 20
-24.2986778846
 10
-18.1820913462
 20
-24.3692908654
 10
-18.2837540064
 20
-24.4288862179
 10
-18.3924278846
 20
-24.4774639423
 10
-18.5086137821
 20
-24.5155248397
 10
-18.6313100962
 20
-24.542568109
 10
-18.7615184295
 20
-24.55859375
 10
-18.8987379808
 20
-24.5641025641
 10
-18.8987379808
 20
-24.5641025641
 10
-18.9833733974
 20
-24.562099359
 10
-19.0655048077
 20
-24.5565905449
 10
-19.1451322115
 20
-24.5475761218
 10
-19.2227564103
 20
-24.5345552885
 10
-19.2983774038
 20
-24.5180288462
 10
-19.371494391
 20
-24.4974959936
 10
-19.4426081731
 20
-24.4734575321
 10
-19.51171875
 20
-24.4459134615
 10
-19.5783253205
 20
-24.4143629808
 10
-19.6424278846
 20
-24.379306891
 10
-19.7045272436
 20
-24.3407451923
 10
-19.7646233974
 20
-24.2981770833
 10
-19.8222155449
 20
-24.2521033654
 10
-19.8778044872
 20
-24.2020232372
 10
-19.9308894231
 20
-24.1484375
 10
-19.9819711538
 20
-24.0913461538
 10
-19.9819711538
 20
-24.0913461538
 10
-20.0535857372
 20
-23.9986979167
 10
-20.1161858974
 20
-23.9020432692
 10
-20.1687700321
 20
-23.8023838141
 10
-20.2118389423
 20
-23.6987179487
 10
-20.2453926282
 20
-23.5915464744
 10
-20.2694310897
 20
-23.480869391
 10
-20.2834535256
 20
-23.3666866987
 10
-20.2884615385
 20
-23.2489983974
 10
-20.2884615385
 20
-23.2489983974
 10
-20.2859575321
 20
-23.1608573718
 10
-20.2774439103
 20
-23.07421875
 10
-20.2639222756
 20
-22.9890825321
 10
-20.2448918269
 20
-22.9059495192
 10
-20.2203525641
 20
-22.823818109
 10
-20.1903044872
 20
-22.7436899038
 10
-20.1547475962
 20
-22.6645633013
 10
-20.113681891
 20
-22.5874399038
 10
-20.0676081731
 20
-22.5128205128
 10
-20.0180288462
 20
-22.4427083333
 10
-19.9639423077
 20
-22.3766025641
 10
-19.905849359
 20
-22.3145032051
 10
-19.84375
 20
-22.2569110577
 10
-19.7776442308
 20
-22.2033253205
 10
-19.7075320513
 20
-22.1537459936
 10
-19.6334134615
 20
-22.1086738782
 10
-19.5557892628
 20
-22.0681089744
 10
-19.476161859
 20
-22.0330528846
 10
-19.3935296474
 20
-22.003505609
 10
-19.3083934295
 20
-21.9789663462
 10
-19.2212540064
 20
-21.9604366987
 10
-19.1311097756
 20
-21.9469150641
 10
-19.0389623397
 20
-21.9384014423
 10
-18.9438100962
 20
-21.9358974359
 10
-18.9438100962
 20
-21.9358974359
 10
-18.8661858974
 20
-21.937900641
 10
-18.7900641026
 20
-21.9434094551
 10
-18.7149439103
 20
-21.9524238782
 10
-18.6408253205
 20
-21.9649439103
 10
-18.5682091346
 20
-21.9814703526
 10
-18.4965945513
 20
-22.0015024038
 10
-18.4259815705
 20
-22.0250400641
 10
-18.3568709936
 20
-22.0525841346
 10
-18.2882612179
 20
-22.0841346154
 10
-18.2201522436
 20
-22.1196915064
 10
-18.1525440705
 20
-22.159755609
 10
-18.0854366987
 20
-22.2043269231
 10
-18.0183293269
 20
-22.2534054487
 10
-17.9522235577
 20
-22.3069911859
 10
-17.8861177885
 20
-22.3645833333
 10
-17.8205128205
 20
-22.4266826923
  0
LWPOLYLINE
  5
D3
330
1F
100
AcDbEntity
  8
0
  6
Continuous
 62
     7
100
AcDbPolyline
 90
       24
 70
   128
 43
0.0
 10
-17.1474218369
 20
-22.0
 10
-15.7371794872
 20
-22.0
 10
-15.7371794872
 20
-22.0
 10
-15.7371794872
 20
-22.2564102564
 10
-15.7371794872
 20
-22.2564102564
 10
-16.9230769231
 20
-22.2564102564
 10
-16.9230769231
 20
-22.2564102564
 10
-16.9230769231
 20
-23.0256410256
 10
-16.9230769231
 20
-23.0256410256
 10
-15.7371794872
 20
-23.0256410256
 10
-15.7371794872
 20
-23.0256410256
 10
-15.7371794872
 20
-23.2820512821
 10
-15.7371794872
 20
-23.2820512821
 10
-16.9230769231
 20
-23.2820512821
 10
-16.9230769231
 20
-23.2820512821
 10
-16.9230769231
 20
-24.2435897436
 10
-16.9230769231
 20
-24.2435897436
 10
-15.7371794872
 20
-24.2435897436
 10
-15.7371794872
 20
-24.2435897436
 10
-15.7371794872
 20
-24.5
 10
-15.7371794872
 20
-24.5
 10
-17.1474358974
 20
-24.5
 10
-17.1474358974
 20
-24.5
 10
-17.1474358974
 20
-22.0
  0
LWPOLYLINE
  5
D4
330
1F
100
AcDbEntity
  8
0
  6
Continuous
 62
     7
100
AcDbPolyline
 90
       12
 70
   128
 43
0.0
 10
-14.0199288726
 20
-22.0
 10
-13.5576923077
 20
-22.0
 10
-13.5576923077
 20
-22.0
 10
-13.5576923077
 20
-24.5
 10
-13.5576923077
 20
-24.5
 10
-13.7820512821
 20
-24.5
 10
-13.7820512821
 20
-24.5
 10
-13.7820512821
 20
-22.2564102564
 10
-13.7820512821
 20
-22.2564102564
 10
-14.1666666667
 20
-22.2564102564
 10
-14.1666666667
 20
-22.2564102564
 10
-14.019931891
 20
-22.0
  0
POINT
  5
D5
330
1F
100
AcDbEntity
  8
0
  6
Continuous
 62
     7
100
AcDbPoint
 10
0.0
 20
20.0
 30
0.0
  0
POINT
  5
D6
330
1F
100
AcDbEntity
  8
0
  6
Continuous
 62
     7
100
AcDbPoint
 10
32.0
 20
0.0
 30
0.0
  0
POINT
  5
D7
330
1F
100
AcDbEntity
  8
0
  6
Continuous
 62
     7
100
AcDbPoint
 10
-32.0
 20
0.0
 30
0.0
  0
POINT
  5
D8
330
1F
100
AcDbEntity
  8
0
  6
Continuous
 62
     7
100
AcDbPoint
 10
0.0
 20
-20.0
 30
0.0
  0
ENDSEC
  0
SECTION
  2
OBJECTS
  0
DICTIONARY
  5
C
330
0
100
AcDbDictionary
281
     1
  3
ACAD_GROUP
350
D
  3
ACAD_LAYOUT
350
1A
  3
ACAD_MLINESTYLE
350
17
  3
ACAD_PLOTSETTINGS
350
19
  3
ACAD_PLOTSTYLENAME
350
E
  3
ACAD_SCALELIST
350
D9
  3
AcDbVariableDictionary
350
FB
  0
DICTIONARY
  5
D
102
{ACAD_REACTORS
330
C
102
}
330
C
100
AcDbDictionary
281
     1
  0
DICTIONARY
  5
1A
102
{ACAD_REACTORS
330
C
102
}
330
C
100
AcDbDictionary
281
     1
  3
Layout1
350
1E
  3
Layout2
350
26
  3
Model
350
22
  0
DICTIONARY
  5
17
102
{ACAD_REACTORS
330
C
102
}
330
C
100
AcDbDictionary
281
     1
  3
Standard
350
18
  0
DICTIONARY
  5
19
102
{ACAD_REACTORS
330
C
102
}
330
C
100
AcDbDictionary
281
     1
  0
ACDBDICTIONARYWDFLT
  5
E
102
{ACAD_REACTORS
330
C
102
}
330
C
100
AcDbDictionary
281
     1
  3
Normal
350
F
100
AcDbDictionaryWithDefault
340
F
  0
DICTIONARY
  5
D9
102
{ACAD_REACTORS
330
C
102
}
330
C
100
AcDbDictionary
281
     1
  3
A0
350
DA
  3
A1
350
DB
  3
A2
350
DC
  3
A3
350
DD
  3
A4
350
DE
  3
A5
350
DF
  3
A6
350
E0
  3
A7
350
E1
  3
A8
350
E2
  3
A9
350
E3
  3
B0
350
E4
  3
B1
350
E5
  3
B2
350
E6
  3
B3
350
E7
  3
B4
350
E8
  3
B5
350
E9
  3
B6
350
EA
  3
B7
350
EB
  3
B8
350
EC
  3
B9
350
ED
  3
C0
350
EE
  3
C1
350
EF
  3
C2
350
F0
  3
C3
350
F1
  3
C4
350
F2
  3
C5
350
F3
  3
C6
350
F4
  3
C7
350
F5
  3
C8
350
F6
  3
C9
350
F7
  3
D0
350
F8
  3
D1
350
F9
  3
D2
350
FA
  0
DICTIONARY
  5
FB
102
{ACAD_REACTORS
330
C
102
}
330
C
100
AcDbDictionary
281
     1
  3
CANNOSCALE
350
FC
  0
LAYOUT
  5
1E
102
{ACAD_REACTORS
330
1A
102
}
330
1A
100
AcDbPlotSettings
  1

  2
none_device
  4

  6

 40
0.0
 41
0.0
 42
0.0
 43
0.0
 44
0.0
 45
0.0
 46
0.0
 47
0.0
 48
0.0
 49
0.0
140
0.0
141
0.0
142
1.0
143
1.0
 70
   688
 72
     0
 73
     0
 74
     5
  7

 75
    16
147
1.0
148
0.0
149
0.0
100
AcDbLayout
  1
Layout1
 70
     1
 71
     1
 10
0.0
 20
0.0
 11
420.0
 21
297.0
 12
0.0
 22
0.0
 32
0.0
 14
1.0000000000E+20
 24
1.0000000000E+20
 34
1.0000000000E+20
 15
-1.0000000000E+20
 25
-1.0000000000E+20
 35
-1.0000000000E+20
146
0.0
 13
0.0
 23
0.0
 33
0.0
 16
1.0
 26
0.0
 36
0.0
 17
0.0
 27
1.0
 37
0.0
 76
     0
330
1B
  0
LAYOUT
  5
26
102
{ACAD_REACTORS
330
1A
102
}
330
1A
100
AcDbPlotSettings
  1

  2
none_device
  4

  6

 40
0.0
 41
0.0
 42
0.0
 43
0.0
 44
0.0
 45
0.0
 46
0.0
 47
0.0
 48
0.0
 49
0.0
140
0.0
141
0.0
142
1.0
143
1.0
 70
   688
 72
     0
 73
     0
 74
     5
  7

 75
    16
147
1.0
148
0.0
149
0.0
100
AcDbLayout
  1
Layout2
 70
     1
 71
     2
 10
0.0
 20
0.0
 11
0.0
 21
0.0
 12
0.0
 22
0.0
 32
0.0
 14
0.0
 24
0.0
 34
0.0
 15
0.0
 25
0.0
 35
0.0
146
0.0
 13
0.0
 23
0.0
 33
0.0
 16
1.0
 26
0.0
 36
0.0
 17
0.0
 27
1.0
 37
0.0
 76
     0
330
23
  0
LAYOUT
  5
22
102
{ACAD_REACTORS
330
1A
102
}
330
1A
100
AcDbPlotSettings
  1

  2
none_device
  4
ANSI_A_(11.00_x_8.50_Inches)
  6

 40
6.35
 41
19.05
 42
6.35000508
 43
19.05000254
 44
279.4
 45
215.9
 46
135.6722664704
 47
79.8570512828
 48
0.0
 49
0.0
140
0.0
141
0.0
142
0.0839587565
143
1.0
 70
  1696
 72
     0
 73
     0
 74
     0
  7

 75
     0
147
0.0179189148
148
0.0
149
0.0
100
AcDbLayout
  1
Model
 70
     1
 71
     0
 10
0.0
 20
0.0
 11
420.0
 21
297.0
 12
0.0
 22
0.0
 32
0.0
 14
-65.9422333474
 24
-43.1059037171
 34
0.0
 15
63.7643089095
 25
51.5867714147
 35
0.0
146
0.0
 13
0.0
 23
0.0
 33
0.0
 16
1.0
 26
0.0
 36
0.0
 17
0.0
 27
1.0
 37
0.0
 76
     0
330
1F
331
29
  0
MLINESTYLE
  5
18
102
{ACAD_REACTORS
330
17
102
}
330
17
100
AcDbMlineStyle
  2
Standard
 70
     0
  3

 62
   256
 51
90.0
 52
90.0
 71
     2
 49
0.5
 62
   256
  6
BYLAYER
 49
-0.5
 62
   256
  6
BYLAYER
  0
ACDBPLACEHOLDER
  5
F
102
{ACAD_REACTORS
330
E
102
}
330
E
  0
SCALE
  5
DA
102
{ACAD_REACTORS
330
D9
102
}
330
D9
100
AcDbScale
 70
     0
300
1:1
140
1.0
141
1.0
290
     1
  0
SCALE
  5
DB
102
{ACAD_REACTORS
330
D9
102
}
330
D9
100
AcDbScale
 70
     0
300
1:2
140
1.0
141
2.0
290
     0
  0
SCALE
  5
DC
102
{ACAD_REACTORS
330
D9
102
}
330
D9
100
AcDbScale
 70
     0
300
1:4
140
1.0
141
4.0
290
     0
  0
SCALE
  5
DD
102
{ACAD_REACTORS
330
D9
102
}
330
D9
100
AcDbScale
 70
     0
300
1:5
140
1.0
141
5.0
290
     0
  0
SCALE
  5
DE
102
{ACAD_REACTORS
330
D9
102
}
330
D9
100
AcDbScale
 70
     0
300
1:8
140
1.0
141
8.0
290
     0
  0
SCALE
  5
DF
102
{ACAD_REACTORS
330
D9
102
}
330
D9
100
AcDbScale
 70
     0
300
1:10
140
1.0
141
10.0
290
     0
  0
SCALE
  5
E0
102
{ACAD_REACTORS
330
D9
102
}
330
D9
100
AcDbScale
 70
     0
300
1:16
140
1.0
141
16.0
290
     0
  0
SCALE
  5
E1
102
{ACAD_REACTORS
330
D9
102
}
330
D9
100
AcDbScale
 70
     0
300
1:20
140
1.0
141
20.0
290
     0
  0
SCALE
  5
E2
102
{ACAD_REACTORS
330
D9
102
}
330
D9
100
AcDbScale
 70
     0
300
1:30
140
1.0
141
30.0
290
     0
  0
SCALE
  5
E3
102
{ACAD_REACTORS
330
D9
102
}
330
D9
100
AcDbScale
 70
     0
300
1:40
140
1.0
141
40.0
290
     0
  0
SCALE
  5
E4
102
{ACAD_REACTORS
330
D9
102
}
330
D9
100
AcDbScale
 70
     0
300
1:50
140
1.0
141
50.0
290
     0
  0
SCALE
  5
E5
102
{ACAD_REACTORS
330
D9
102
}
330
D9
100
AcDbScale
 70
     0
300
1:100
140
1.0
141
100.0
290
     0
  0
SCALE
  5
E6
102
{ACAD_REACTORS
330
D9
102
}
330
D9
100
AcDbScale
 70
     0
300
2:1
140
2.0
141
1.0
290
     0
  0
SCALE
  5
E7
102
{ACAD_REACTORS
330
D9
102
}
330
D9
100
AcDbScale
 70
     0
300
4:1
140
4.0
141
1.0
290
     0
  0
SCALE
  5
E8
102
{ACAD_REACTORS
330
D9
102
}
330
D9
100
AcDbScale
 70
     0
300
8:1
140
8.0
141
1.0
290
     0
  0
SCALE
  5
E9
102
{ACAD_REACTORS
330
D9
102
}
330
D9
100
AcDbScale
 70
     0
300
10:1
140
10.0
141
1.0
290
     0
  0
SCALE
  5
EA
102
{ACAD_REACTORS
330
D9
102
}
330
D9
100
AcDbScale
 70
     0
300
100:1
140
100.0
141
1.0
290
     0
  0
SCALE
  5
EB
102
{ACAD_REACTORS
330
D9
102
}
330
D9
100
AcDbScale
 70
     0
300
1/128" = 1'-0"
140
0.0078125
141
12.0
290
     0
  0
SCALE
  5
EC
102
{ACAD_REACTORS
330
D9
102
}
330
D9
100
AcDbScale
 70
     0
300
1/64" = 1'-0"
140
0.015625
141
12.0
290
     0
  0
SCALE
  5
ED
102
{ACAD_REACTORS
330
D9
102
}
330
D9
100
AcDbScale
 70
     0
300
1/32" = 1'-0"
140
0.03125
141
12.0
290
     0
  0
SCALE
  5
EE
102
{ACAD_REACTORS
330
D9
102
}
330
D9
100
AcDbScale
 70
     0
300
1/16" = 1'-0"
140
0.0625
141
12.0
290
     0
  0
SCALE
  5
EF
102
{ACAD_REACTORS
330
D9
102
}
330
D9
100
AcDbScale
 70
     0
300
3/32" = 1'-0"
140
0.09375
141
12.0
290
     0
  0
SCALE
  5
F0
102
{ACAD_REACTORS
330
D9
102
}
330
D9
100
AcDbScale
 70
     0
300
1/8" = 1'-0"
140
0.125
141
12.0
290
     0
  0
SCALE
  5
F1
102
{ACAD_REACTORS
330
D9
102
}
330
D9
100
AcDbScale
 70
     0
300
3/16" = 1'-0"
140
0.1875
141
12.0
290
     0
  0
SCALE
  5
F2
102
{ACAD_REACTORS
330
D9
102
}
330
D9
100
AcDbScale
 70
     0
300
1/4" = 1'-0"
140
0.25
141
12.0
290
     0
  0
SCALE
  5
F3
102
{ACAD_REACTORS
330
D9
102
}
330
D9
100
AcDbScale
 70
     0
300
3/8" = 1'-0"
140
0.375
141
12.0
290
     0
  0
SCALE
  5
F4
102
{ACAD_REACTORS
330
D9
102
}
330
D9
100
AcDbScale
 70
     0
300
1/2" = 1'-0"
140
0.5
141
12.0
290
     0
  0
SCALE
  5
F5
102
{ACAD_REACTORS
330
D9
102
}
330
D9
100
AcDbScale
 70
     0
300
3/4" = 1'-0"
140
0.75
141
12.0
290
     0
  0
SCALE
  5
F6
102
{ACAD_REACTORS
330
D9
102
}
330
D9
100
AcDbScale
 70
     0
300
1" = 1'-0"
140
1.0
141
12.0
290
     0
  0
SCALE
  5
F7
102
{ACAD_REACTORS
330
D9
102
}
330
D9
100
AcDbScale
 70
     0
300
1-1/2" = 1'-0"
140
1.5
141
12.0
290
     0
  0
SCALE
  5
F8
102
{ACAD_REACTORS
330
D9
102
}
330
D9
100
AcDbScale
 70
     0
300
3" = 1'-0"
140
3.0
141
12.0
290
     0
  0
SCALE
  5
F9
102
{ACAD_REACTORS
330
D9
102
}
330
D9
100
AcDbScale
 70
     0
300
6" = 1'-0"
140
6.0
141
12.0
290
     0
  0
SCALE
  5
FA
102
{ACAD_REACTORS
330
D9
102
}
330
D9
100
AcDbScale
 70
     0
300
1'-0" = 1'-0"
140
12.0
141
12.0
290
     0
  0
DICTIONARYVAR
  5
FC
102
{ACAD_REACTORS
330
FB
102
}
330
FB
100
DictionaryVariables
280
     0
  1
1:1
  0
ENDSEC
  0
EOF
