%TF.GenerationSoftware,KiCad,Pcbnew,no-vcs-found-9b4eddb~60~ubuntu16.04.1*%
%TF.CreationDate,2017-11-10T14:06:11+01:00*%
%TF.ProjectId,OpenDropV3,4F70656E44726F7056332E6B69636164,rev?*%
%TF.SameCoordinates,Original*%
%TF.FileFunction,Legend,Bot*%
%TF.FilePolarity,Positive*%
%FSLAX46Y46*%
G04 Gerber Fmt 4.6, Leading zero omitted, Abs format (unit mm)*
G04 Created by KiCad (PCBNEW no-vcs-found-9b4eddb~60~ubuntu16.04.1) date Fri Nov 10 14:06:11 2017*
%MOMM*%
%LPD*%
G01*
G04 APERTURE LIST*
%ADD10C,0.200000*%
%ADD11C,0.150000*%
%ADD12C,0.100000*%
%ADD13C,0.400000*%
%ADD14C,0.300000*%
%ADD15C,0.120000*%
%ADD16C,0.076200*%
%ADD17C,0.050000*%
G04 APERTURE END LIST*
D10*
X63071285Y-108869380D02*
X63071285Y-107869380D01*
X63071285Y-108345571D02*
X62499857Y-108345571D01*
X62499857Y-108869380D02*
X62499857Y-107869380D01*
X62166523Y-107869380D02*
X61833190Y-108869380D01*
X61499857Y-107869380D01*
X63182333Y-102789380D02*
X62849000Y-103789380D01*
X62515666Y-102789380D01*
X62182333Y-103789380D02*
X62182333Y-102789380D01*
X61944238Y-102789380D01*
X61801380Y-102837000D01*
X61706142Y-102932238D01*
X61658523Y-103027476D01*
X61610904Y-103217952D01*
X61610904Y-103360809D01*
X61658523Y-103551285D01*
X61706142Y-103646523D01*
X61801380Y-103741761D01*
X61944238Y-103789380D01*
X62182333Y-103789380D01*
X61182333Y-103789380D02*
X61182333Y-102789380D01*
X60944238Y-102789380D01*
X60801380Y-102837000D01*
X60706142Y-102932238D01*
X60658523Y-103027476D01*
X60610904Y-103217952D01*
X60610904Y-103360809D01*
X60658523Y-103551285D01*
X60706142Y-103646523D01*
X60801380Y-103741761D01*
X60944238Y-103789380D01*
X61182333Y-103789380D01*
X62698238Y-101281142D02*
X62745857Y-101328761D01*
X62888714Y-101376380D01*
X62983952Y-101376380D01*
X63126809Y-101328761D01*
X63222047Y-101233523D01*
X63269666Y-101138285D01*
X63317285Y-100947809D01*
X63317285Y-100804952D01*
X63269666Y-100614476D01*
X63222047Y-100519238D01*
X63126809Y-100424000D01*
X62983952Y-100376380D01*
X62888714Y-100376380D01*
X62745857Y-100424000D01*
X62698238Y-100471619D01*
X61793476Y-101376380D02*
X62269666Y-101376380D01*
X62269666Y-100376380D01*
X61460142Y-101376380D02*
X61460142Y-100376380D01*
X60888714Y-101376380D02*
X61317285Y-100804952D01*
X60888714Y-100376380D02*
X61460142Y-100947809D01*
X62698238Y-98741142D02*
X62745857Y-98788761D01*
X62888714Y-98836380D01*
X62983952Y-98836380D01*
X63126809Y-98788761D01*
X63222047Y-98693523D01*
X63269666Y-98598285D01*
X63317285Y-98407809D01*
X63317285Y-98264952D01*
X63269666Y-98074476D01*
X63222047Y-97979238D01*
X63126809Y-97884000D01*
X62983952Y-97836380D01*
X62888714Y-97836380D01*
X62745857Y-97884000D01*
X62698238Y-97931619D01*
X61793476Y-98836380D02*
X62269666Y-98836380D01*
X62269666Y-97836380D01*
X61460142Y-98836380D02*
X61460142Y-97836380D01*
X60888714Y-98836380D02*
X61317285Y-98264952D01*
X60888714Y-97836380D02*
X61460142Y-98407809D01*
X62753857Y-96296380D02*
X63230047Y-96296380D01*
X63230047Y-95296380D01*
X62420523Y-95772571D02*
X62087190Y-95772571D01*
X61944333Y-96296380D02*
X62420523Y-96296380D01*
X62420523Y-95296380D01*
X61944333Y-95296380D01*
X63269714Y-93756380D02*
X63269714Y-92756380D01*
X63031619Y-92756380D01*
X62888761Y-92804000D01*
X62793523Y-92899238D01*
X62745904Y-92994476D01*
X62698285Y-93184952D01*
X62698285Y-93327809D01*
X62745904Y-93518285D01*
X62793523Y-93613523D01*
X62888761Y-93708761D01*
X63031619Y-93756380D01*
X63269714Y-93756380D01*
X62079238Y-92756380D02*
X61888761Y-92756380D01*
X61793523Y-92804000D01*
X61698285Y-92899238D01*
X61650666Y-93089714D01*
X61650666Y-93423047D01*
X61698285Y-93613523D01*
X61793523Y-93708761D01*
X61888761Y-93756380D01*
X62079238Y-93756380D01*
X62174476Y-93708761D01*
X62269714Y-93613523D01*
X62317333Y-93423047D01*
X62317333Y-93089714D01*
X62269714Y-92899238D01*
X62174476Y-92804000D01*
X62079238Y-92756380D01*
X62690333Y-105805571D02*
X62547476Y-105853190D01*
X62499857Y-105900809D01*
X62452238Y-105996047D01*
X62452238Y-106138904D01*
X62499857Y-106234142D01*
X62547476Y-106281761D01*
X62642714Y-106329380D01*
X63023666Y-106329380D01*
X63023666Y-105329380D01*
X62690333Y-105329380D01*
X62595095Y-105377000D01*
X62547476Y-105424619D01*
X62499857Y-105519857D01*
X62499857Y-105615095D01*
X62547476Y-105710333D01*
X62595095Y-105757952D01*
X62690333Y-105805571D01*
X63023666Y-105805571D01*
X61547476Y-106329380D02*
X62023666Y-106329380D01*
X62023666Y-105329380D01*
X102830238Y-75627142D02*
X102877857Y-75674761D01*
X103020714Y-75722380D01*
X103115952Y-75722380D01*
X103258809Y-75674761D01*
X103354047Y-75579523D01*
X103401666Y-75484285D01*
X103449285Y-75293809D01*
X103449285Y-75150952D01*
X103401666Y-74960476D01*
X103354047Y-74865238D01*
X103258809Y-74770000D01*
X103115952Y-74722380D01*
X103020714Y-74722380D01*
X102877857Y-74770000D01*
X102830238Y-74817619D01*
X101925476Y-75722380D02*
X102401666Y-75722380D01*
X102401666Y-74722380D01*
X101592142Y-75722380D02*
X101592142Y-74722380D01*
X101020714Y-75722380D02*
X101449285Y-75150952D01*
X101020714Y-74722380D02*
X101592142Y-75293809D01*
X104917857Y-75722380D02*
X105394047Y-75722380D01*
X105394047Y-74722380D01*
X104584523Y-75198571D02*
X104251190Y-75198571D01*
X104108333Y-75722380D02*
X104584523Y-75722380D01*
X104584523Y-74722380D01*
X104108333Y-74722380D01*
X109775476Y-75849380D02*
X109775476Y-74849380D01*
X109394523Y-74849380D01*
X109299285Y-74897000D01*
X109251666Y-74944619D01*
X109204047Y-75039857D01*
X109204047Y-75182714D01*
X109251666Y-75277952D01*
X109299285Y-75325571D01*
X109394523Y-75373190D01*
X109775476Y-75373190D01*
X108585000Y-74849380D02*
X108394523Y-74849380D01*
X108299285Y-74897000D01*
X108204047Y-74992238D01*
X108156428Y-75182714D01*
X108156428Y-75516047D01*
X108204047Y-75706523D01*
X108299285Y-75801761D01*
X108394523Y-75849380D01*
X108585000Y-75849380D01*
X108680238Y-75801761D01*
X108775476Y-75706523D01*
X108823095Y-75516047D01*
X108823095Y-75182714D01*
X108775476Y-74992238D01*
X108680238Y-74897000D01*
X108585000Y-74849380D01*
X107251666Y-75849380D02*
X107727857Y-75849380D01*
X107727857Y-74849380D01*
X111839333Y-75325571D02*
X111696476Y-75373190D01*
X111648857Y-75420809D01*
X111601238Y-75516047D01*
X111601238Y-75658904D01*
X111648857Y-75754142D01*
X111696476Y-75801761D01*
X111791714Y-75849380D01*
X112172666Y-75849380D01*
X112172666Y-74849380D01*
X111839333Y-74849380D01*
X111744095Y-74897000D01*
X111696476Y-74944619D01*
X111648857Y-75039857D01*
X111648857Y-75135095D01*
X111696476Y-75230333D01*
X111744095Y-75277952D01*
X111839333Y-75325571D01*
X112172666Y-75325571D01*
X110696476Y-75849380D02*
X111172666Y-75849380D01*
X111172666Y-74849380D01*
X116578000Y-75849380D02*
X116578000Y-74849380D01*
X116339904Y-74849380D01*
X116197047Y-74897000D01*
X116101809Y-74992238D01*
X116054190Y-75087476D01*
X116006571Y-75277952D01*
X116006571Y-75420809D01*
X116054190Y-75611285D01*
X116101809Y-75706523D01*
X116197047Y-75801761D01*
X116339904Y-75849380D01*
X116578000Y-75849380D01*
X115578000Y-75849380D02*
X115578000Y-74849380D01*
X146811904Y-65372000D02*
X146907142Y-65324380D01*
X147050000Y-65324380D01*
X147192857Y-65372000D01*
X147288095Y-65467238D01*
X147335714Y-65562476D01*
X147383333Y-65752952D01*
X147383333Y-65895809D01*
X147335714Y-66086285D01*
X147288095Y-66181523D01*
X147192857Y-66276761D01*
X147050000Y-66324380D01*
X146954761Y-66324380D01*
X146811904Y-66276761D01*
X146764285Y-66229142D01*
X146764285Y-65895809D01*
X146954761Y-65895809D01*
X146335714Y-66324380D02*
X146335714Y-65324380D01*
X145764285Y-66324380D01*
X145764285Y-65324380D01*
X145288095Y-66324380D02*
X145288095Y-65324380D01*
X145050000Y-65324380D01*
X144907142Y-65372000D01*
X144811904Y-65467238D01*
X144764285Y-65562476D01*
X144716666Y-65752952D01*
X144716666Y-65895809D01*
X144764285Y-66086285D01*
X144811904Y-66181523D01*
X144907142Y-66276761D01*
X145050000Y-66324380D01*
X145288095Y-66324380D01*
D11*
X114214285Y-120875380D02*
X114785714Y-120875380D01*
X114500000Y-120875380D02*
X114500000Y-119875380D01*
X114595238Y-120018238D01*
X114690476Y-120113476D01*
X114785714Y-120161095D01*
X113880952Y-119875380D02*
X113214285Y-119875380D01*
X113642857Y-120875380D01*
X112309523Y-119923000D02*
X112404761Y-119875380D01*
X112547619Y-119875380D01*
X112690476Y-119923000D01*
X112785714Y-120018238D01*
X112833333Y-120113476D01*
X112880952Y-120303952D01*
X112880952Y-120446809D01*
X112833333Y-120637285D01*
X112785714Y-120732523D01*
X112690476Y-120827761D01*
X112547619Y-120875380D01*
X112452380Y-120875380D01*
X112309523Y-120827761D01*
X112261904Y-120780142D01*
X112261904Y-120446809D01*
X112452380Y-120446809D01*
X111833333Y-120875380D02*
X111833333Y-119875380D01*
X111261904Y-120875380D01*
X111261904Y-119875380D01*
X110880952Y-119875380D02*
X110214285Y-119875380D01*
X110642857Y-120875380D01*
X109833333Y-120875380D02*
X109833333Y-119875380D01*
X109261904Y-120875380D01*
X109261904Y-119875380D01*
X108214285Y-120875380D02*
X108547619Y-120399190D01*
X108785714Y-120875380D02*
X108785714Y-119875380D01*
X108404761Y-119875380D01*
X108309523Y-119923000D01*
X108261904Y-119970619D01*
X108214285Y-120065857D01*
X108214285Y-120208714D01*
X108261904Y-120303952D01*
X108309523Y-120351571D01*
X108404761Y-120399190D01*
X108785714Y-120399190D01*
X107738095Y-120875380D02*
X107547619Y-120875380D01*
X107452380Y-120827761D01*
X107404761Y-120780142D01*
X107309523Y-120637285D01*
X107261904Y-120446809D01*
X107261904Y-120065857D01*
X107309523Y-119970619D01*
X107357142Y-119923000D01*
X107452380Y-119875380D01*
X107642857Y-119875380D01*
X107738095Y-119923000D01*
X107785714Y-119970619D01*
X107833333Y-120065857D01*
X107833333Y-120303952D01*
X107785714Y-120399190D01*
X107738095Y-120446809D01*
X107642857Y-120494428D01*
X107452380Y-120494428D01*
X107357142Y-120446809D01*
X107309523Y-120399190D01*
X107261904Y-120303952D01*
X106976190Y-120208714D02*
X106595238Y-120208714D01*
X106833333Y-120875380D02*
X106833333Y-120018238D01*
X106785714Y-119923000D01*
X106690476Y-119875380D01*
X106595238Y-119875380D01*
X106261904Y-120875380D02*
X106261904Y-120208714D01*
X106261904Y-120399190D02*
X106214285Y-120303952D01*
X106166666Y-120256333D01*
X106071428Y-120208714D01*
X105976190Y-120208714D01*
X105642857Y-120875380D02*
X105642857Y-119875380D01*
X105404761Y-119875380D01*
X105261904Y-119923000D01*
X105166666Y-120018238D01*
X105119047Y-120113476D01*
X105071428Y-120303952D01*
X105071428Y-120446809D01*
X105119047Y-120637285D01*
X105166666Y-120732523D01*
X105261904Y-120827761D01*
X105404761Y-120875380D01*
X105642857Y-120875380D01*
X104214285Y-120827761D02*
X104309523Y-120875380D01*
X104500000Y-120875380D01*
X104595238Y-120827761D01*
X104642857Y-120780142D01*
X104690476Y-120684904D01*
X104690476Y-120399190D01*
X104642857Y-120303952D01*
X104595238Y-120256333D01*
X104500000Y-120208714D01*
X104309523Y-120208714D01*
X104214285Y-120256333D01*
X103357142Y-120208714D02*
X103357142Y-121208714D01*
X103357142Y-120827761D02*
X103452380Y-120875380D01*
X103642857Y-120875380D01*
X103738095Y-120827761D01*
X103785714Y-120780142D01*
X103833333Y-120684904D01*
X103833333Y-120399190D01*
X103785714Y-120303952D01*
X103738095Y-120256333D01*
X103642857Y-120208714D01*
X103452380Y-120208714D01*
X103357142Y-120256333D01*
X102500000Y-120827761D02*
X102595238Y-120875380D01*
X102785714Y-120875380D01*
X102880952Y-120827761D01*
X102928571Y-120732523D01*
X102928571Y-120351571D01*
X102880952Y-120256333D01*
X102785714Y-120208714D01*
X102595238Y-120208714D01*
X102500000Y-120256333D01*
X102452380Y-120351571D01*
X102452380Y-120446809D01*
X102928571Y-120542047D01*
X101595238Y-120208714D02*
X101595238Y-120875380D01*
X102023809Y-120208714D02*
X102023809Y-120732523D01*
X101976190Y-120827761D01*
X101880952Y-120875380D01*
X101738095Y-120875380D01*
X101642857Y-120827761D01*
X101595238Y-120780142D01*
X101119047Y-120875380D02*
X101119047Y-119875380D01*
X100738095Y-119875380D01*
X100642857Y-119923000D01*
X100595238Y-119970619D01*
X100547619Y-120065857D01*
X100547619Y-120208714D01*
X100595238Y-120303952D01*
X100642857Y-120351571D01*
X100738095Y-120399190D01*
X101119047Y-120399190D01*
X100119047Y-120875380D02*
X100119047Y-119875380D01*
X100119047Y-120351571D02*
X99547619Y-120351571D01*
X99547619Y-120875380D02*
X99547619Y-119875380D01*
X98880952Y-120399190D02*
X98880952Y-120875380D01*
X99214285Y-119875380D02*
X98880952Y-120399190D01*
X98547619Y-119875380D01*
X98214285Y-120875380D02*
X98214285Y-119875380D01*
X97642857Y-120875380D02*
X98071428Y-120303952D01*
X97642857Y-119875380D02*
X98214285Y-120446809D01*
X97309523Y-120208714D02*
X97071428Y-120875380D01*
X96833333Y-120208714D02*
X97071428Y-120875380D01*
X97166666Y-121113476D01*
X97214285Y-121161095D01*
X97309523Y-121208714D01*
X96452380Y-120208714D02*
X96452380Y-121208714D01*
X96452380Y-120256333D02*
X96357142Y-120208714D01*
X96166666Y-120208714D01*
X96071428Y-120256333D01*
X96023809Y-120303952D01*
X95976190Y-120399190D01*
X95976190Y-120684904D01*
X96023809Y-120780142D01*
X96071428Y-120827761D01*
X96166666Y-120875380D01*
X96357142Y-120875380D01*
X96452380Y-120827761D01*
X95119047Y-120827761D02*
X95214285Y-120875380D01*
X95404761Y-120875380D01*
X95500000Y-120827761D01*
X95547619Y-120780142D01*
X95595238Y-120684904D01*
X95595238Y-120399190D01*
X95547619Y-120303952D01*
X95500000Y-120256333D01*
X95404761Y-120208714D01*
X95214285Y-120208714D01*
X95119047Y-120256333D01*
X94690476Y-120875380D02*
X94690476Y-119875380D01*
X94690476Y-120256333D02*
X94595238Y-120208714D01*
X94404761Y-120208714D01*
X94309523Y-120256333D01*
X94261904Y-120303952D01*
X94214285Y-120399190D01*
X94214285Y-120684904D01*
X94261904Y-120780142D01*
X94309523Y-120827761D01*
X94404761Y-120875380D01*
X94595238Y-120875380D01*
X94690476Y-120827761D01*
X93833333Y-119970619D02*
X93785714Y-119923000D01*
X93690476Y-119875380D01*
X93452380Y-119875380D01*
X93357142Y-119923000D01*
X93309523Y-119970619D01*
X93261904Y-120065857D01*
X93261904Y-120161095D01*
X93309523Y-120303952D01*
X93880952Y-120875380D01*
X93261904Y-120875380D01*
X92880952Y-120827761D02*
X92785714Y-120875380D01*
X92595238Y-120875380D01*
X92500000Y-120827761D01*
X92452380Y-120732523D01*
X92452380Y-120684904D01*
X92500000Y-120589666D01*
X92595238Y-120542047D01*
X92738095Y-120542047D01*
X92833333Y-120494428D01*
X92880952Y-120399190D01*
X92880952Y-120351571D01*
X92833333Y-120256333D01*
X92738095Y-120208714D01*
X92595238Y-120208714D01*
X92500000Y-120256333D01*
X92023809Y-120351571D02*
X91690476Y-120351571D01*
X91547619Y-120875380D02*
X92023809Y-120875380D01*
X92023809Y-119875380D01*
X91547619Y-119875380D01*
X90690476Y-120875380D02*
X90690476Y-119875380D01*
X90690476Y-120827761D02*
X90785714Y-120875380D01*
X90976190Y-120875380D01*
X91071428Y-120827761D01*
X91119047Y-120780142D01*
X91166666Y-120684904D01*
X91166666Y-120399190D01*
X91119047Y-120303952D01*
X91071428Y-120256333D01*
X90976190Y-120208714D01*
X90785714Y-120208714D01*
X90690476Y-120256333D01*
X90309523Y-120208714D02*
X90119047Y-120875380D01*
X89928571Y-120399190D01*
X89738095Y-120875380D01*
X89547619Y-120208714D01*
X88690476Y-120875380D02*
X89166666Y-120875380D01*
X89166666Y-119875380D01*
X88357142Y-120875380D02*
X88357142Y-119875380D01*
X88119047Y-119875380D01*
X87976190Y-119923000D01*
X87880952Y-120018238D01*
X87833333Y-120113476D01*
X87785714Y-120303952D01*
X87785714Y-120446809D01*
X87833333Y-120637285D01*
X87880952Y-120732523D01*
X87976190Y-120827761D01*
X88119047Y-120875380D01*
X88357142Y-120875380D01*
X87357142Y-120875380D02*
X87357142Y-120208714D01*
X87357142Y-120399190D02*
X87309523Y-120303952D01*
X87261904Y-120256333D01*
X87166666Y-120208714D01*
X87071428Y-120208714D01*
X86738095Y-120351571D02*
X86404761Y-120351571D01*
X86261904Y-120875380D02*
X86738095Y-120875380D01*
X86738095Y-119875380D01*
X86261904Y-119875380D01*
X85166666Y-120970619D02*
X85261904Y-120923000D01*
X85357142Y-120827761D01*
X85500000Y-120684904D01*
X85595238Y-120637285D01*
X85690476Y-120637285D01*
X85642857Y-120875380D02*
X85738095Y-120827761D01*
X85833333Y-120732523D01*
X85880952Y-120542047D01*
X85880952Y-120208714D01*
X85833333Y-120018238D01*
X85738095Y-119923000D01*
X85642857Y-119875380D01*
X85452380Y-119875380D01*
X85357142Y-119923000D01*
X85261904Y-120018238D01*
X85214285Y-120208714D01*
X85214285Y-120542047D01*
X85261904Y-120732523D01*
X85357142Y-120827761D01*
X85452380Y-120875380D01*
X85642857Y-120875380D01*
D12*
X103915210Y-91372000D02*
G75*
G03X103915210Y-91372000I-359210J0D01*
G01*
X96803210Y-107628000D02*
G75*
G03X96803210Y-107628000I-359210J0D01*
G01*
D13*
X120595238Y-118267857D02*
X120714285Y-118386904D01*
X121071428Y-118505952D01*
X121309523Y-118505952D01*
X121666666Y-118386904D01*
X121904761Y-118148809D01*
X122023809Y-117910714D01*
X122142857Y-117434523D01*
X122142857Y-117077380D01*
X122023809Y-116601190D01*
X121904761Y-116363095D01*
X121666666Y-116125000D01*
X121309523Y-116005952D01*
X121071428Y-116005952D01*
X120714285Y-116125000D01*
X120595238Y-116244047D01*
X119761904Y-116839285D02*
X119166666Y-118505952D01*
X118571428Y-116839285D02*
X119166666Y-118505952D01*
X119404761Y-119101190D01*
X119523809Y-119220238D01*
X119761904Y-119339285D01*
X117619047Y-118505952D02*
X117619047Y-116005952D01*
X117619047Y-116958333D02*
X117380952Y-116839285D01*
X116904761Y-116839285D01*
X116666666Y-116958333D01*
X116547619Y-117077380D01*
X116428571Y-117315476D01*
X116428571Y-118029761D01*
X116547619Y-118267857D01*
X116666666Y-118386904D01*
X116904761Y-118505952D01*
X117380952Y-118505952D01*
X117619047Y-118386904D01*
X114404761Y-118386904D02*
X114642857Y-118505952D01*
X115119047Y-118505952D01*
X115357142Y-118386904D01*
X115476190Y-118148809D01*
X115476190Y-117196428D01*
X115357142Y-116958333D01*
X115119047Y-116839285D01*
X114642857Y-116839285D01*
X114404761Y-116958333D01*
X114285714Y-117196428D01*
X114285714Y-117434523D01*
X115476190Y-117672619D01*
X113214285Y-118505952D02*
X113214285Y-116839285D01*
X113214285Y-117315476D02*
X113095238Y-117077380D01*
X112976190Y-116958333D01*
X112738095Y-116839285D01*
X112500000Y-116839285D01*
X111666666Y-116839285D02*
X111666666Y-118505952D01*
X111666666Y-117077380D02*
X111547619Y-116958333D01*
X111309523Y-116839285D01*
X110952380Y-116839285D01*
X110714285Y-116958333D01*
X110595238Y-117196428D01*
X110595238Y-118505952D01*
X108452380Y-118386904D02*
X108690476Y-118505952D01*
X109166666Y-118505952D01*
X109404761Y-118386904D01*
X109523809Y-118148809D01*
X109523809Y-117196428D01*
X109404761Y-116958333D01*
X109166666Y-116839285D01*
X108690476Y-116839285D01*
X108452380Y-116958333D01*
X108333333Y-117196428D01*
X108333333Y-117434523D01*
X109523809Y-117672619D01*
X107619047Y-116839285D02*
X106666666Y-116839285D01*
X107261904Y-116005952D02*
X107261904Y-118148809D01*
X107142857Y-118386904D01*
X106904761Y-118505952D01*
X106666666Y-118505952D01*
X105833333Y-118505952D02*
X105833333Y-116839285D01*
X105833333Y-116005952D02*
X105952380Y-116125000D01*
X105833333Y-116244047D01*
X105714285Y-116125000D01*
X105833333Y-116005952D01*
X105833333Y-116244047D01*
X103571428Y-118386904D02*
X103809523Y-118505952D01*
X104285714Y-118505952D01*
X104523809Y-118386904D01*
X104642857Y-118267857D01*
X104761904Y-118029761D01*
X104761904Y-117315476D01*
X104642857Y-117077380D01*
X104523809Y-116958333D01*
X104285714Y-116839285D01*
X103809523Y-116839285D01*
X103571428Y-116958333D01*
X99404761Y-118505952D02*
X100595238Y-118505952D01*
X100595238Y-116005952D01*
X98571428Y-118505952D02*
X98571428Y-116839285D01*
X98571428Y-116005952D02*
X98690476Y-116125000D01*
X98571428Y-116244047D01*
X98452380Y-116125000D01*
X98571428Y-116005952D01*
X98571428Y-116244047D01*
X97738095Y-116839285D02*
X96785714Y-116839285D01*
X97380952Y-118505952D02*
X97380952Y-116363095D01*
X97261904Y-116125000D01*
X97023809Y-116005952D01*
X96785714Y-116005952D01*
X95000000Y-118386904D02*
X95238095Y-118505952D01*
X95714285Y-118505952D01*
X95952380Y-118386904D01*
X96071428Y-118148809D01*
X96071428Y-117196428D01*
X95952380Y-116958333D01*
X95714285Y-116839285D01*
X95238095Y-116839285D01*
X95000000Y-116958333D01*
X94880952Y-117196428D01*
X94880952Y-117434523D01*
X96071428Y-117672619D01*
X91904761Y-118505952D02*
X91904761Y-116005952D01*
X91071428Y-117791666D01*
X90238095Y-116005952D01*
X90238095Y-118505952D01*
X87976190Y-118505952D02*
X87976190Y-117196428D01*
X88095238Y-116958333D01*
X88333333Y-116839285D01*
X88809523Y-116839285D01*
X89047619Y-116958333D01*
X87976190Y-118386904D02*
X88214285Y-118505952D01*
X88809523Y-118505952D01*
X89047619Y-118386904D01*
X89166666Y-118148809D01*
X89166666Y-117910714D01*
X89047619Y-117672619D01*
X88809523Y-117553571D01*
X88214285Y-117553571D01*
X87976190Y-117434523D01*
X85714285Y-118386904D02*
X85952380Y-118505952D01*
X86428571Y-118505952D01*
X86666666Y-118386904D01*
X86785714Y-118267857D01*
X86904761Y-118029761D01*
X86904761Y-117315476D01*
X86785714Y-117077380D01*
X86666666Y-116958333D01*
X86428571Y-116839285D01*
X85952380Y-116839285D01*
X85714285Y-116958333D01*
X84642857Y-118505952D02*
X84642857Y-116005952D01*
X83571428Y-118505952D02*
X83571428Y-117196428D01*
X83690476Y-116958333D01*
X83928571Y-116839285D01*
X84285714Y-116839285D01*
X84523809Y-116958333D01*
X84642857Y-117077380D01*
X82380952Y-118505952D02*
X82380952Y-116839285D01*
X82380952Y-116005952D02*
X82500000Y-116125000D01*
X82380952Y-116244047D01*
X82261904Y-116125000D01*
X82380952Y-116005952D01*
X82380952Y-116244047D01*
X81190476Y-116839285D02*
X81190476Y-118505952D01*
X81190476Y-117077380D02*
X81071428Y-116958333D01*
X80833333Y-116839285D01*
X80476190Y-116839285D01*
X80238095Y-116958333D01*
X80119047Y-117196428D01*
X80119047Y-118505952D01*
X77976190Y-118386904D02*
X78214285Y-118505952D01*
X78690476Y-118505952D01*
X78928571Y-118386904D01*
X79047619Y-118148809D01*
X79047619Y-117196428D01*
X78928571Y-116958333D01*
X78690476Y-116839285D01*
X78214285Y-116839285D01*
X77976190Y-116958333D01*
X77857142Y-117196428D01*
X77857142Y-117434523D01*
X79047619Y-117672619D01*
D11*
X53570142Y-83304666D02*
X53617761Y-83257047D01*
X53665380Y-83114190D01*
X53665380Y-83018952D01*
X53617761Y-82876095D01*
X53522523Y-82780857D01*
X53427285Y-82733238D01*
X53236809Y-82685619D01*
X53093952Y-82685619D01*
X52903476Y-82733238D01*
X52808238Y-82780857D01*
X52713000Y-82876095D01*
X52665380Y-83018952D01*
X52665380Y-83114190D01*
X52713000Y-83257047D01*
X52760619Y-83304666D01*
X53665380Y-83876095D02*
X53617761Y-83780857D01*
X53570142Y-83733238D01*
X53474904Y-83685619D01*
X53189190Y-83685619D01*
X53093952Y-83733238D01*
X53046333Y-83780857D01*
X52998714Y-83876095D01*
X52998714Y-84018952D01*
X53046333Y-84114190D01*
X53093952Y-84161809D01*
X53189190Y-84209428D01*
X53474904Y-84209428D01*
X53570142Y-84161809D01*
X53617761Y-84114190D01*
X53665380Y-84018952D01*
X53665380Y-83876095D01*
X53665380Y-84638000D02*
X52998714Y-84638000D01*
X53093952Y-84638000D02*
X53046333Y-84685619D01*
X52998714Y-84780857D01*
X52998714Y-84923714D01*
X53046333Y-85018952D01*
X53141571Y-85066571D01*
X53665380Y-85066571D01*
X53141571Y-85066571D02*
X53046333Y-85114190D01*
X52998714Y-85209428D01*
X52998714Y-85352285D01*
X53046333Y-85447523D01*
X53141571Y-85495142D01*
X53665380Y-85495142D01*
X53665380Y-85971333D02*
X52998714Y-85971333D01*
X53093952Y-85971333D02*
X53046333Y-86018952D01*
X52998714Y-86114190D01*
X52998714Y-86257047D01*
X53046333Y-86352285D01*
X53141571Y-86399904D01*
X53665380Y-86399904D01*
X53141571Y-86399904D02*
X53046333Y-86447523D01*
X52998714Y-86542761D01*
X52998714Y-86685619D01*
X53046333Y-86780857D01*
X53141571Y-86828476D01*
X53665380Y-86828476D01*
X52998714Y-87733238D02*
X53665380Y-87733238D01*
X52998714Y-87304666D02*
X53522523Y-87304666D01*
X53617761Y-87352285D01*
X53665380Y-87447523D01*
X53665380Y-87590380D01*
X53617761Y-87685619D01*
X53570142Y-87733238D01*
X52998714Y-88209428D02*
X53665380Y-88209428D01*
X53093952Y-88209428D02*
X53046333Y-88257047D01*
X52998714Y-88352285D01*
X52998714Y-88495142D01*
X53046333Y-88590380D01*
X53141571Y-88638000D01*
X53665380Y-88638000D01*
X53665380Y-89114190D02*
X52998714Y-89114190D01*
X52665380Y-89114190D02*
X52713000Y-89066571D01*
X52760619Y-89114190D01*
X52713000Y-89161809D01*
X52665380Y-89114190D01*
X52760619Y-89114190D01*
X52998714Y-89447523D02*
X52998714Y-89828476D01*
X52665380Y-89590380D02*
X53522523Y-89590380D01*
X53617761Y-89638000D01*
X53665380Y-89733238D01*
X53665380Y-89828476D01*
X52998714Y-90066571D02*
X53665380Y-90304666D01*
X52998714Y-90542761D02*
X53665380Y-90304666D01*
X53903476Y-90209428D01*
X53951095Y-90161809D01*
X53998714Y-90066571D01*
X53570142Y-92257047D02*
X53617761Y-92209428D01*
X53665380Y-92066571D01*
X53665380Y-91971333D01*
X53617761Y-91828476D01*
X53522523Y-91733238D01*
X53427285Y-91685619D01*
X53236809Y-91638000D01*
X53093952Y-91638000D01*
X52903476Y-91685619D01*
X52808238Y-91733238D01*
X52713000Y-91828476D01*
X52665380Y-91971333D01*
X52665380Y-92066571D01*
X52713000Y-92209428D01*
X52760619Y-92257047D01*
X53665380Y-92828476D02*
X53617761Y-92733238D01*
X53570142Y-92685619D01*
X53474904Y-92638000D01*
X53189190Y-92638000D01*
X53093952Y-92685619D01*
X53046333Y-92733238D01*
X52998714Y-92828476D01*
X52998714Y-92971333D01*
X53046333Y-93066571D01*
X53093952Y-93114190D01*
X53189190Y-93161809D01*
X53474904Y-93161809D01*
X53570142Y-93114190D01*
X53617761Y-93066571D01*
X53665380Y-92971333D01*
X53665380Y-92828476D01*
X53665380Y-93733238D02*
X53617761Y-93638000D01*
X53570142Y-93590380D01*
X53474904Y-93542761D01*
X53189190Y-93542761D01*
X53093952Y-93590380D01*
X53046333Y-93638000D01*
X52998714Y-93733238D01*
X52998714Y-93876095D01*
X53046333Y-93971333D01*
X53093952Y-94018952D01*
X53189190Y-94066571D01*
X53474904Y-94066571D01*
X53570142Y-94018952D01*
X53617761Y-93971333D01*
X53665380Y-93876095D01*
X53665380Y-93733238D01*
X53665380Y-94495142D02*
X52998714Y-94495142D01*
X53189190Y-94495142D02*
X53093952Y-94542761D01*
X53046333Y-94590380D01*
X52998714Y-94685619D01*
X52998714Y-94780857D01*
X53665380Y-95542761D02*
X52665380Y-95542761D01*
X53617761Y-95542761D02*
X53665380Y-95447523D01*
X53665380Y-95257047D01*
X53617761Y-95161809D01*
X53570142Y-95114190D01*
X53474904Y-95066571D01*
X53189190Y-95066571D01*
X53093952Y-95114190D01*
X53046333Y-95161809D01*
X52998714Y-95257047D01*
X52998714Y-95447523D01*
X53046333Y-95542761D01*
X53665380Y-96018952D02*
X52998714Y-96018952D01*
X52665380Y-96018952D02*
X52713000Y-95971333D01*
X52760619Y-96018952D01*
X52713000Y-96066571D01*
X52665380Y-96018952D01*
X52760619Y-96018952D01*
X52998714Y-96495142D02*
X53665380Y-96495142D01*
X53093952Y-96495142D02*
X53046333Y-96542761D01*
X52998714Y-96637999D01*
X52998714Y-96780857D01*
X53046333Y-96876095D01*
X53141571Y-96923714D01*
X53665380Y-96923714D01*
X53665380Y-97828476D02*
X53141571Y-97828476D01*
X53046333Y-97780857D01*
X52998714Y-97685619D01*
X52998714Y-97495142D01*
X53046333Y-97399904D01*
X53617761Y-97828476D02*
X53665380Y-97733238D01*
X53665380Y-97495142D01*
X53617761Y-97399904D01*
X53522523Y-97352285D01*
X53427285Y-97352285D01*
X53332047Y-97399904D01*
X53284428Y-97495142D01*
X53284428Y-97733238D01*
X53236809Y-97828476D01*
X52998714Y-98161809D02*
X52998714Y-98542761D01*
X52665380Y-98304666D02*
X53522523Y-98304666D01*
X53617761Y-98352285D01*
X53665380Y-98447523D01*
X53665380Y-98542761D01*
X53665380Y-99018952D02*
X53617761Y-98923714D01*
X53570142Y-98876095D01*
X53474904Y-98828476D01*
X53189190Y-98828476D01*
X53093952Y-98876095D01*
X53046333Y-98923714D01*
X52998714Y-99018952D01*
X52998714Y-99161809D01*
X53046333Y-99257047D01*
X53093952Y-99304666D01*
X53189190Y-99352285D01*
X53474904Y-99352285D01*
X53570142Y-99304666D01*
X53617761Y-99257047D01*
X53665380Y-99161809D01*
X53665380Y-99018952D01*
X53665380Y-99780857D02*
X52998714Y-99780857D01*
X53189190Y-99780857D02*
X53093952Y-99828476D01*
X53046333Y-99876095D01*
X52998714Y-99971333D01*
X52998714Y-100066571D01*
X53570142Y-100399904D02*
X53617761Y-100447523D01*
X53665380Y-100399904D01*
X53617761Y-100352285D01*
X53570142Y-100399904D01*
X53665380Y-100399904D01*
X53046333Y-100399904D02*
X53093952Y-100447523D01*
X53141571Y-100399904D01*
X53093952Y-100352285D01*
X53046333Y-100399904D01*
X53141571Y-100399904D01*
X53141571Y-101637999D02*
X53141571Y-101971333D01*
X53665380Y-102114190D02*
X53665380Y-101637999D01*
X52665380Y-101637999D01*
X52665380Y-102114190D01*
X52998714Y-102971333D02*
X53665380Y-102971333D01*
X52998714Y-102542761D02*
X53522523Y-102542761D01*
X53617761Y-102590380D01*
X53665380Y-102685619D01*
X53665380Y-102828476D01*
X53617761Y-102923714D01*
X53570142Y-102971333D01*
X52998714Y-103876095D02*
X53808238Y-103876095D01*
X53903476Y-103828476D01*
X53951095Y-103780857D01*
X53998714Y-103685619D01*
X53998714Y-103542761D01*
X53951095Y-103447523D01*
X53617761Y-103876095D02*
X53665380Y-103780857D01*
X53665380Y-103590380D01*
X53617761Y-103495142D01*
X53570142Y-103447523D01*
X53474904Y-103399904D01*
X53189190Y-103399904D01*
X53093952Y-103447523D01*
X53046333Y-103495142D01*
X52998714Y-103590380D01*
X52998714Y-103780857D01*
X53046333Y-103876095D01*
X53617761Y-104733238D02*
X53665380Y-104637999D01*
X53665380Y-104447523D01*
X53617761Y-104352285D01*
X53522523Y-104304666D01*
X53141571Y-104304666D01*
X53046333Y-104352285D01*
X52998714Y-104447523D01*
X52998714Y-104637999D01*
X53046333Y-104733238D01*
X53141571Y-104780857D01*
X53236809Y-104780857D01*
X53332047Y-104304666D01*
X52998714Y-105209428D02*
X53665380Y-105209428D01*
X53093952Y-105209428D02*
X53046333Y-105257047D01*
X52998714Y-105352285D01*
X52998714Y-105495142D01*
X53046333Y-105590380D01*
X53141571Y-105637999D01*
X53665380Y-105637999D01*
X53665380Y-106114190D02*
X52998714Y-106114190D01*
X52665380Y-106114190D02*
X52713000Y-106066571D01*
X52760619Y-106114190D01*
X52713000Y-106161809D01*
X52665380Y-106114190D01*
X52760619Y-106114190D01*
X53665380Y-106733238D02*
X53617761Y-106637999D01*
X53570142Y-106590380D01*
X53474904Y-106542761D01*
X53189190Y-106542761D01*
X53093952Y-106590380D01*
X53046333Y-106637999D01*
X52998714Y-106733238D01*
X52998714Y-106876095D01*
X53046333Y-106971333D01*
X53093952Y-107018952D01*
X53189190Y-107066571D01*
X53474904Y-107066571D01*
X53570142Y-107018952D01*
X53617761Y-106971333D01*
X53665380Y-106876095D01*
X53665380Y-106733238D01*
X53141571Y-108590380D02*
X53189190Y-108733238D01*
X53236809Y-108780857D01*
X53332047Y-108828476D01*
X53474904Y-108828476D01*
X53570142Y-108780857D01*
X53617761Y-108733238D01*
X53665380Y-108637999D01*
X53665380Y-108257047D01*
X52665380Y-108257047D01*
X52665380Y-108590380D01*
X52713000Y-108685619D01*
X52760619Y-108733238D01*
X52855857Y-108780857D01*
X52951095Y-108780857D01*
X53046333Y-108733238D01*
X53093952Y-108685619D01*
X53141571Y-108590380D01*
X53141571Y-108257047D01*
X53665380Y-109685619D02*
X53141571Y-109685619D01*
X53046333Y-109637999D01*
X52998714Y-109542761D01*
X52998714Y-109352285D01*
X53046333Y-109257047D01*
X53617761Y-109685619D02*
X53665380Y-109590380D01*
X53665380Y-109352285D01*
X53617761Y-109257047D01*
X53522523Y-109209428D01*
X53427285Y-109209428D01*
X53332047Y-109257047D01*
X53284428Y-109352285D01*
X53284428Y-109590380D01*
X53236809Y-109685619D01*
X52998714Y-110018952D02*
X52998714Y-110399904D01*
X52665380Y-110161809D02*
X53522523Y-110161809D01*
X53617761Y-110209428D01*
X53665380Y-110304666D01*
X53665380Y-110399904D01*
X52998714Y-110590380D02*
X52998714Y-110971333D01*
X52665380Y-110733238D02*
X53522523Y-110733238D01*
X53617761Y-110780857D01*
X53665380Y-110876095D01*
X53665380Y-110971333D01*
X53665380Y-111733238D02*
X53141571Y-111733238D01*
X53046333Y-111685619D01*
X52998714Y-111590380D01*
X52998714Y-111399904D01*
X53046333Y-111304666D01*
X53617761Y-111733238D02*
X53665380Y-111637999D01*
X53665380Y-111399904D01*
X53617761Y-111304666D01*
X53522523Y-111257047D01*
X53427285Y-111257047D01*
X53332047Y-111304666D01*
X53284428Y-111399904D01*
X53284428Y-111637999D01*
X53236809Y-111733238D01*
X52998714Y-112637999D02*
X53808238Y-112637999D01*
X53903476Y-112590380D01*
X53951095Y-112542761D01*
X53998714Y-112447523D01*
X53998714Y-112304666D01*
X53951095Y-112209428D01*
X53617761Y-112637999D02*
X53665380Y-112542761D01*
X53665380Y-112352285D01*
X53617761Y-112257047D01*
X53570142Y-112209428D01*
X53474904Y-112161809D01*
X53189190Y-112161809D01*
X53093952Y-112209428D01*
X53046333Y-112257047D01*
X52998714Y-112352285D01*
X52998714Y-112542761D01*
X53046333Y-112637999D01*
X53665380Y-113257047D02*
X53617761Y-113161809D01*
X53522523Y-113114190D01*
X52665380Y-113114190D01*
X53665380Y-113637999D02*
X52998714Y-113637999D01*
X52665380Y-113637999D02*
X52713000Y-113590380D01*
X52760619Y-113637999D01*
X52713000Y-113685619D01*
X52665380Y-113637999D01*
X52760619Y-113637999D01*
X53665380Y-114542761D02*
X53141571Y-114542761D01*
X53046333Y-114495142D01*
X52998714Y-114399904D01*
X52998714Y-114209428D01*
X53046333Y-114114190D01*
X53617761Y-114542761D02*
X53665380Y-114447523D01*
X53665380Y-114209428D01*
X53617761Y-114114190D01*
X53522523Y-114066571D01*
X53427285Y-114066571D01*
X53332047Y-114114190D01*
X53284428Y-114209428D01*
X53284428Y-114447523D01*
X53236809Y-114542761D01*
D10*
X121029809Y-87452380D02*
X121029809Y-86452380D01*
X121029809Y-86928571D02*
X120458380Y-86928571D01*
X120458380Y-87452380D02*
X120458380Y-86452380D01*
X120125047Y-86452380D02*
X119791714Y-87452380D01*
X119458380Y-86452380D01*
X118648857Y-86452380D02*
X119125047Y-86452380D01*
X119172666Y-86928571D01*
X119125047Y-86880952D01*
X119029809Y-86833333D01*
X118791714Y-86833333D01*
X118696476Y-86880952D01*
X118648857Y-86928571D01*
X118601238Y-87023809D01*
X118601238Y-87261904D01*
X118648857Y-87357142D01*
X118696476Y-87404761D01*
X118791714Y-87452380D01*
X119029809Y-87452380D01*
X119125047Y-87404761D01*
X119172666Y-87357142D01*
X117982190Y-86452380D02*
X117886952Y-86452380D01*
X117791714Y-86500000D01*
X117744095Y-86547619D01*
X117696476Y-86642857D01*
X117648857Y-86833333D01*
X117648857Y-87071428D01*
X117696476Y-87261904D01*
X117744095Y-87357142D01*
X117791714Y-87404761D01*
X117886952Y-87452380D01*
X117982190Y-87452380D01*
X118077428Y-87404761D01*
X118125047Y-87357142D01*
X118172666Y-87261904D01*
X118220285Y-87071428D01*
X118220285Y-86833333D01*
X118172666Y-86642857D01*
X118125047Y-86547619D01*
X118077428Y-86500000D01*
X117982190Y-86452380D01*
X117315523Y-86452380D02*
X116648857Y-86452380D01*
X117077428Y-87452380D01*
X115077428Y-87452380D02*
X115077428Y-86452380D01*
X115077428Y-87404761D02*
X115172666Y-87452380D01*
X115363142Y-87452380D01*
X115458380Y-87404761D01*
X115505999Y-87357142D01*
X115553619Y-87261904D01*
X115553619Y-86976190D01*
X115505999Y-86880952D01*
X115458380Y-86833333D01*
X115363142Y-86785714D01*
X115172666Y-86785714D01*
X115077428Y-86833333D01*
X114220285Y-87404761D02*
X114315523Y-87452380D01*
X114505999Y-87452380D01*
X114601238Y-87404761D01*
X114648857Y-87309523D01*
X114648857Y-86928571D01*
X114601238Y-86833333D01*
X114505999Y-86785714D01*
X114315523Y-86785714D01*
X114220285Y-86833333D01*
X114172666Y-86928571D01*
X114172666Y-87023809D01*
X114648857Y-87119047D01*
X113791714Y-87404761D02*
X113696476Y-87452380D01*
X113505999Y-87452380D01*
X113410761Y-87404761D01*
X113363142Y-87309523D01*
X113363142Y-87261904D01*
X113410761Y-87166666D01*
X113505999Y-87119047D01*
X113648857Y-87119047D01*
X113744095Y-87071428D01*
X113791714Y-86976190D01*
X113791714Y-86928571D01*
X113744095Y-86833333D01*
X113648857Y-86785714D01*
X113505999Y-86785714D01*
X113410761Y-86833333D01*
X112934571Y-87452380D02*
X112934571Y-86785714D01*
X112934571Y-86452380D02*
X112982190Y-86500000D01*
X112934571Y-86547619D01*
X112886952Y-86500000D01*
X112934571Y-86452380D01*
X112934571Y-86547619D01*
X112029809Y-86785714D02*
X112029809Y-87595238D01*
X112077428Y-87690476D01*
X112125047Y-87738095D01*
X112220285Y-87785714D01*
X112363142Y-87785714D01*
X112458380Y-87738095D01*
X112029809Y-87404761D02*
X112125047Y-87452380D01*
X112315523Y-87452380D01*
X112410761Y-87404761D01*
X112458380Y-87357142D01*
X112505999Y-87261904D01*
X112505999Y-86976190D01*
X112458380Y-86880952D01*
X112410761Y-86833333D01*
X112315523Y-86785714D01*
X112125047Y-86785714D01*
X112029809Y-86833333D01*
X111553619Y-86785714D02*
X111553619Y-87452380D01*
X111553619Y-86880952D02*
X111505999Y-86833333D01*
X111410761Y-86785714D01*
X111267904Y-86785714D01*
X111172666Y-86833333D01*
X111125047Y-86928571D01*
X111125047Y-87452380D01*
X109886952Y-87452380D02*
X109886952Y-86785714D01*
X109886952Y-86452380D02*
X109934571Y-86500000D01*
X109886952Y-86547619D01*
X109839333Y-86500000D01*
X109886952Y-86452380D01*
X109886952Y-86547619D01*
X109410761Y-86785714D02*
X109410761Y-87452380D01*
X109410761Y-86880952D02*
X109363142Y-86833333D01*
X109267904Y-86785714D01*
X109125047Y-86785714D01*
X109029809Y-86833333D01*
X108982190Y-86928571D01*
X108982190Y-87452380D01*
X108553619Y-87404761D02*
X108458380Y-87452380D01*
X108267904Y-87452380D01*
X108172666Y-87404761D01*
X108125047Y-87309523D01*
X108125047Y-87261904D01*
X108172666Y-87166666D01*
X108267904Y-87119047D01*
X108410761Y-87119047D01*
X108506000Y-87071428D01*
X108553619Y-86976190D01*
X108553619Y-86928571D01*
X108506000Y-86833333D01*
X108410761Y-86785714D01*
X108267904Y-86785714D01*
X108172666Y-86833333D01*
X107696476Y-86785714D02*
X107696476Y-87785714D01*
X107696476Y-86833333D02*
X107601238Y-86785714D01*
X107410761Y-86785714D01*
X107315523Y-86833333D01*
X107267904Y-86880952D01*
X107220285Y-86976190D01*
X107220285Y-87261904D01*
X107267904Y-87357142D01*
X107315523Y-87404761D01*
X107410761Y-87452380D01*
X107601238Y-87452380D01*
X107696476Y-87404761D01*
X106791714Y-87452380D02*
X106791714Y-86785714D01*
X106791714Y-86452380D02*
X106839333Y-86500000D01*
X106791714Y-86547619D01*
X106744095Y-86500000D01*
X106791714Y-86452380D01*
X106791714Y-86547619D01*
X106315523Y-87452380D02*
X106315523Y-86785714D01*
X106315523Y-86976190D02*
X106267904Y-86880952D01*
X106220285Y-86833333D01*
X106125047Y-86785714D01*
X106029809Y-86785714D01*
X105315523Y-87404761D02*
X105410761Y-87452380D01*
X105601238Y-87452380D01*
X105696476Y-87404761D01*
X105744095Y-87309523D01*
X105744095Y-86928571D01*
X105696476Y-86833333D01*
X105601238Y-86785714D01*
X105410761Y-86785714D01*
X105315523Y-86833333D01*
X105267904Y-86928571D01*
X105267904Y-87023809D01*
X105744095Y-87119047D01*
X104410761Y-87452380D02*
X104410761Y-86452380D01*
X104410761Y-87404761D02*
X104506000Y-87452380D01*
X104696476Y-87452380D01*
X104791714Y-87404761D01*
X104839333Y-87357142D01*
X104886952Y-87261904D01*
X104886952Y-86976190D01*
X104839333Y-86880952D01*
X104791714Y-86833333D01*
X104696476Y-86785714D01*
X104506000Y-86785714D01*
X104410761Y-86833333D01*
X103172666Y-87452380D02*
X103172666Y-86452380D01*
X103172666Y-86833333D02*
X103077428Y-86785714D01*
X102886952Y-86785714D01*
X102791714Y-86833333D01*
X102744095Y-86880952D01*
X102696476Y-86976190D01*
X102696476Y-87261904D01*
X102744095Y-87357142D01*
X102791714Y-87404761D01*
X102886952Y-87452380D01*
X103077428Y-87452380D01*
X103172666Y-87404761D01*
X102363142Y-86785714D02*
X102125047Y-87452380D01*
X101886952Y-86785714D02*
X102125047Y-87452380D01*
X102220285Y-87690476D01*
X102267904Y-87738095D01*
X102363142Y-87785714D01*
X100172666Y-87452380D02*
X100506000Y-86976190D01*
X100744095Y-87452380D02*
X100744095Y-86452380D01*
X100363142Y-86452380D01*
X100267904Y-86500000D01*
X100220285Y-86547619D01*
X100172666Y-86642857D01*
X100172666Y-86785714D01*
X100220285Y-86880952D01*
X100267904Y-86928571D01*
X100363142Y-86976190D01*
X100744095Y-86976190D01*
X99839333Y-86785714D02*
X99601238Y-87452380D01*
X99363142Y-86785714D02*
X99601238Y-87452380D01*
X99696476Y-87690476D01*
X99744095Y-87738095D01*
X99839333Y-87785714D01*
X98553619Y-87452380D02*
X98553619Y-86928571D01*
X98601238Y-86833333D01*
X98696476Y-86785714D01*
X98886952Y-86785714D01*
X98982190Y-86833333D01*
X98553619Y-87404761D02*
X98648857Y-87452380D01*
X98886952Y-87452380D01*
X98982190Y-87404761D01*
X99029809Y-87309523D01*
X99029809Y-87214285D01*
X98982190Y-87119047D01*
X98886952Y-87071428D01*
X98648857Y-87071428D01*
X98553619Y-87023809D01*
X98077428Y-86785714D02*
X98077428Y-87452380D01*
X98077428Y-86880952D02*
X98029809Y-86833333D01*
X97934571Y-86785714D01*
X97791714Y-86785714D01*
X97696476Y-86833333D01*
X97648857Y-86928571D01*
X97648857Y-87452380D01*
X96077428Y-86928571D02*
X96410761Y-86928571D01*
X96410761Y-87452380D02*
X96410761Y-86452380D01*
X95934571Y-86452380D01*
X95410761Y-87452380D02*
X95506000Y-87404761D01*
X95553619Y-87357142D01*
X95601238Y-87261904D01*
X95601238Y-86976190D01*
X95553619Y-86880952D01*
X95506000Y-86833333D01*
X95410761Y-86785714D01*
X95267904Y-86785714D01*
X95172666Y-86833333D01*
X95125047Y-86880952D01*
X95077428Y-86976190D01*
X95077428Y-87261904D01*
X95125047Y-87357142D01*
X95172666Y-87404761D01*
X95267904Y-87452380D01*
X95410761Y-87452380D01*
X94648857Y-87452380D02*
X94648857Y-86452380D01*
X94648857Y-86833333D02*
X94553619Y-86785714D01*
X94363142Y-86785714D01*
X94267904Y-86833333D01*
X94220285Y-86880952D01*
X94172666Y-86976190D01*
X94172666Y-87261904D01*
X94220285Y-87357142D01*
X94267904Y-87404761D01*
X94363142Y-87452380D01*
X94553619Y-87452380D01*
X94648857Y-87404761D01*
X93363142Y-87404761D02*
X93458380Y-87452380D01*
X93648857Y-87452380D01*
X93744095Y-87404761D01*
X93791714Y-87309523D01*
X93791714Y-86928571D01*
X93744095Y-86833333D01*
X93648857Y-86785714D01*
X93458380Y-86785714D01*
X93363142Y-86833333D01*
X93315523Y-86928571D01*
X93315523Y-87023809D01*
X93791714Y-87119047D01*
X92744095Y-87452380D02*
X92839333Y-87404761D01*
X92886952Y-87309523D01*
X92886952Y-86452380D01*
X91172666Y-87452380D02*
X91172666Y-86928571D01*
X91220285Y-86833333D01*
X91315523Y-86785714D01*
X91506000Y-86785714D01*
X91601238Y-86833333D01*
X91172666Y-87404761D02*
X91267904Y-87452380D01*
X91506000Y-87452380D01*
X91601238Y-87404761D01*
X91648857Y-87309523D01*
X91648857Y-87214285D01*
X91601238Y-87119047D01*
X91506000Y-87071428D01*
X91267904Y-87071428D01*
X91172666Y-87023809D01*
X90696476Y-86785714D02*
X90696476Y-87452380D01*
X90696476Y-86880952D02*
X90648857Y-86833333D01*
X90553619Y-86785714D01*
X90410761Y-86785714D01*
X90315523Y-86833333D01*
X90267904Y-86928571D01*
X90267904Y-87452380D01*
X89363142Y-87452380D02*
X89363142Y-86452380D01*
X89363142Y-87404761D02*
X89458380Y-87452380D01*
X89648857Y-87452380D01*
X89744095Y-87404761D01*
X89791714Y-87357142D01*
X89839333Y-87261904D01*
X89839333Y-86976190D01*
X89791714Y-86880952D01*
X89744095Y-86833333D01*
X89648857Y-86785714D01*
X89458380Y-86785714D01*
X89363142Y-86833333D01*
X87791714Y-86928571D02*
X87648857Y-86976190D01*
X87601238Y-87023809D01*
X87553619Y-87119047D01*
X87553619Y-87261904D01*
X87601238Y-87357142D01*
X87648857Y-87404761D01*
X87744095Y-87452380D01*
X88125047Y-87452380D01*
X88125047Y-86452380D01*
X87791714Y-86452380D01*
X87696476Y-86500000D01*
X87648857Y-86547619D01*
X87601238Y-86642857D01*
X87601238Y-86738095D01*
X87648857Y-86833333D01*
X87696476Y-86880952D01*
X87791714Y-86928571D01*
X88125047Y-86928571D01*
X86744095Y-87404761D02*
X86839333Y-87452380D01*
X87029809Y-87452380D01*
X87125047Y-87404761D01*
X87172666Y-87309523D01*
X87172666Y-86928571D01*
X87125047Y-86833333D01*
X87029809Y-86785714D01*
X86839333Y-86785714D01*
X86744095Y-86833333D01*
X86696476Y-86928571D01*
X86696476Y-87023809D01*
X87172666Y-87119047D01*
X86267904Y-86785714D02*
X86267904Y-87452380D01*
X86267904Y-86880952D02*
X86220285Y-86833333D01*
X86125047Y-86785714D01*
X85982190Y-86785714D01*
X85886952Y-86833333D01*
X85839333Y-86928571D01*
X85839333Y-87452380D01*
X84934571Y-86785714D02*
X84934571Y-87595238D01*
X84982190Y-87690476D01*
X85029809Y-87738095D01*
X85125047Y-87785714D01*
X85267904Y-87785714D01*
X85363142Y-87738095D01*
X84934571Y-87404761D02*
X85029809Y-87452380D01*
X85220285Y-87452380D01*
X85315523Y-87404761D01*
X85363142Y-87357142D01*
X85410761Y-87261904D01*
X85410761Y-86976190D01*
X85363142Y-86880952D01*
X85315523Y-86833333D01*
X85220285Y-86785714D01*
X85029809Y-86785714D01*
X84934571Y-86833333D01*
X84601238Y-86785714D02*
X84220285Y-86785714D01*
X84458380Y-86452380D02*
X84458380Y-87309523D01*
X84410761Y-87404761D01*
X84315523Y-87452380D01*
X84220285Y-87452380D01*
X83172666Y-87404761D02*
X83029809Y-87452380D01*
X82791714Y-87452380D01*
X82696476Y-87404761D01*
X82648857Y-87357142D01*
X82601238Y-87261904D01*
X82601238Y-87166666D01*
X82648857Y-87071428D01*
X82696476Y-87023809D01*
X82791714Y-86976190D01*
X82982190Y-86928571D01*
X83077428Y-86880952D01*
X83125047Y-86833333D01*
X83172666Y-86738095D01*
X83172666Y-86642857D01*
X83125047Y-86547619D01*
X83077428Y-86500000D01*
X82982190Y-86452380D01*
X82744095Y-86452380D01*
X82601238Y-86500000D01*
X82172666Y-86785714D02*
X82172666Y-87642857D01*
X82220285Y-87738095D01*
X82315523Y-87785714D01*
X82363142Y-87785714D01*
X82172666Y-86452380D02*
X82220285Y-86500000D01*
X82172666Y-86547619D01*
X82125047Y-86500000D01*
X82172666Y-86452380D01*
X82172666Y-86547619D01*
X81553619Y-87452380D02*
X81648857Y-87404761D01*
X81696476Y-87357142D01*
X81744095Y-87261904D01*
X81744095Y-86976190D01*
X81696476Y-86880952D01*
X81648857Y-86833333D01*
X81553619Y-86785714D01*
X81410761Y-86785714D01*
X81315523Y-86833333D01*
X81267904Y-86880952D01*
X81220285Y-86976190D01*
X81220285Y-87261904D01*
X81267904Y-87357142D01*
X81315523Y-87404761D01*
X81410761Y-87452380D01*
X81553619Y-87452380D01*
X81648857Y-86452380D02*
X81601238Y-86500000D01*
X81648857Y-86547619D01*
X81696476Y-86500000D01*
X81648857Y-86452380D01*
X81648857Y-86547619D01*
X81267904Y-86452380D02*
X81220285Y-86500000D01*
X81267904Y-86547619D01*
X81315523Y-86500000D01*
X81267904Y-86452380D01*
X81267904Y-86547619D01*
X80648857Y-87452380D02*
X80744095Y-87404761D01*
X80791714Y-87309523D01*
X80791714Y-86452380D01*
X79886952Y-87404761D02*
X79982190Y-87452380D01*
X80172666Y-87452380D01*
X80267904Y-87404761D01*
X80315523Y-87309523D01*
X80315523Y-86928571D01*
X80267904Y-86833333D01*
X80172666Y-86785714D01*
X79982190Y-86785714D01*
X79886952Y-86833333D01*
X79839333Y-86928571D01*
X79839333Y-87023809D01*
X80315523Y-87119047D01*
X79982190Y-86404761D02*
X80125047Y-86547619D01*
X79410761Y-86785714D02*
X79410761Y-87452380D01*
X79410761Y-86880952D02*
X79363142Y-86833333D01*
X79267904Y-86785714D01*
X79125047Y-86785714D01*
X79029809Y-86833333D01*
X78982190Y-86928571D01*
X78982190Y-87452380D01*
D11*
X86851333Y-33965666D02*
X86851333Y-33265666D01*
X86851333Y-33599000D02*
X86451333Y-33599000D01*
X86451333Y-33965666D02*
X86451333Y-33265666D01*
X86218000Y-33265666D02*
X85984666Y-33965666D01*
X85751333Y-33265666D01*
X84984666Y-33965666D02*
X84984666Y-33265666D01*
X84984666Y-33532333D02*
X84918000Y-33499000D01*
X84784666Y-33499000D01*
X84718000Y-33532333D01*
X84684666Y-33565666D01*
X84651333Y-33632333D01*
X84651333Y-33832333D01*
X84684666Y-33899000D01*
X84718000Y-33932333D01*
X84784666Y-33965666D01*
X84918000Y-33965666D01*
X84984666Y-33932333D01*
X84051333Y-33965666D02*
X84051333Y-33599000D01*
X84084666Y-33532333D01*
X84151333Y-33499000D01*
X84284666Y-33499000D01*
X84351333Y-33532333D01*
X84051333Y-33932333D02*
X84118000Y-33965666D01*
X84284666Y-33965666D01*
X84351333Y-33932333D01*
X84384666Y-33865666D01*
X84384666Y-33799000D01*
X84351333Y-33732333D01*
X84284666Y-33699000D01*
X84118000Y-33699000D01*
X84051333Y-33665666D01*
X83751333Y-33932333D02*
X83684666Y-33965666D01*
X83551333Y-33965666D01*
X83484666Y-33932333D01*
X83451333Y-33865666D01*
X83451333Y-33832333D01*
X83484666Y-33765666D01*
X83551333Y-33732333D01*
X83651333Y-33732333D01*
X83718000Y-33699000D01*
X83751333Y-33632333D01*
X83751333Y-33599000D01*
X83718000Y-33532333D01*
X83651333Y-33499000D01*
X83551333Y-33499000D01*
X83484666Y-33532333D01*
X82884666Y-33932333D02*
X82951333Y-33965666D01*
X83084666Y-33965666D01*
X83151333Y-33932333D01*
X83184666Y-33865666D01*
X83184666Y-33599000D01*
X83151333Y-33532333D01*
X83084666Y-33499000D01*
X82951333Y-33499000D01*
X82884666Y-33532333D01*
X82851333Y-33599000D01*
X82851333Y-33665666D01*
X83184666Y-33732333D01*
X82251333Y-33965666D02*
X82251333Y-33265666D01*
X82251333Y-33932333D02*
X82318000Y-33965666D01*
X82451333Y-33965666D01*
X82518000Y-33932333D01*
X82551333Y-33899000D01*
X82584666Y-33832333D01*
X82584666Y-33632333D01*
X82551333Y-33565666D01*
X82518000Y-33532333D01*
X82451333Y-33499000D01*
X82318000Y-33499000D01*
X82251333Y-33532333D01*
X81284666Y-33965666D02*
X81351333Y-33932333D01*
X81384666Y-33899000D01*
X81418000Y-33832333D01*
X81418000Y-33632333D01*
X81384666Y-33565666D01*
X81351333Y-33532333D01*
X81284666Y-33499000D01*
X81184666Y-33499000D01*
X81118000Y-33532333D01*
X81084666Y-33565666D01*
X81051333Y-33632333D01*
X81051333Y-33832333D01*
X81084666Y-33899000D01*
X81118000Y-33932333D01*
X81184666Y-33965666D01*
X81284666Y-33965666D01*
X80751333Y-33499000D02*
X80751333Y-33965666D01*
X80751333Y-33565666D02*
X80718000Y-33532333D01*
X80651333Y-33499000D01*
X80551333Y-33499000D01*
X80484666Y-33532333D01*
X80451333Y-33599000D01*
X80451333Y-33965666D01*
X79584666Y-33965666D02*
X79584666Y-33265666D01*
X79184666Y-33965666D01*
X79184666Y-33265666D01*
X78851333Y-33965666D02*
X78851333Y-33499000D01*
X78851333Y-33265666D02*
X78884666Y-33299000D01*
X78851333Y-33332333D01*
X78818000Y-33299000D01*
X78851333Y-33265666D01*
X78851333Y-33332333D01*
X78584666Y-33965666D02*
X78218000Y-33499000D01*
X78584666Y-33499000D02*
X78218000Y-33965666D01*
X77951333Y-33965666D02*
X77951333Y-33499000D01*
X77951333Y-33265666D02*
X77984666Y-33299000D01*
X77951333Y-33332333D01*
X77918000Y-33299000D01*
X77951333Y-33265666D01*
X77951333Y-33332333D01*
X77351333Y-33932333D02*
X77418000Y-33965666D01*
X77551333Y-33965666D01*
X77618000Y-33932333D01*
X77651333Y-33865666D01*
X77651333Y-33599000D01*
X77618000Y-33532333D01*
X77551333Y-33499000D01*
X77418000Y-33499000D01*
X77351333Y-33532333D01*
X77318000Y-33599000D01*
X77318000Y-33665666D01*
X77651333Y-33732333D01*
X76484666Y-33965666D02*
X76484666Y-33265666D01*
X76218000Y-33265666D01*
X76151333Y-33299000D01*
X76118000Y-33332333D01*
X76084666Y-33399000D01*
X76084666Y-33499000D01*
X76118000Y-33565666D01*
X76151333Y-33599000D01*
X76218000Y-33632333D01*
X76484666Y-33632333D01*
X75818000Y-33932333D02*
X75718000Y-33965666D01*
X75551333Y-33965666D01*
X75484666Y-33932333D01*
X75451333Y-33899000D01*
X75418000Y-33832333D01*
X75418000Y-33765666D01*
X75451333Y-33699000D01*
X75484666Y-33665666D01*
X75551333Y-33632333D01*
X75684666Y-33599000D01*
X75751333Y-33565666D01*
X75784666Y-33532333D01*
X75818000Y-33465666D01*
X75818000Y-33399000D01*
X75784666Y-33332333D01*
X75751333Y-33299000D01*
X75684666Y-33265666D01*
X75518000Y-33265666D01*
X75418000Y-33299000D01*
X75118000Y-33265666D02*
X75118000Y-33832333D01*
X75084666Y-33899000D01*
X75051333Y-33932333D01*
X74984666Y-33965666D01*
X74851333Y-33965666D01*
X74784666Y-33932333D01*
X74751333Y-33899000D01*
X74718000Y-33832333D01*
X74718000Y-33265666D01*
X83568000Y-35165666D02*
X83568000Y-34465666D01*
X83568000Y-34732333D02*
X83501333Y-34699000D01*
X83368000Y-34699000D01*
X83301333Y-34732333D01*
X83268000Y-34765666D01*
X83234666Y-34832333D01*
X83234666Y-35032333D01*
X83268000Y-35099000D01*
X83301333Y-35132333D01*
X83368000Y-35165666D01*
X83501333Y-35165666D01*
X83568000Y-35132333D01*
X83001333Y-34699000D02*
X82834666Y-35165666D01*
X82668000Y-34699000D02*
X82834666Y-35165666D01*
X82901333Y-35332333D01*
X82934666Y-35365666D01*
X83001333Y-35399000D01*
X81568000Y-35165666D02*
X81568000Y-34465666D01*
X81568000Y-35132333D02*
X81634666Y-35165666D01*
X81768000Y-35165666D01*
X81834666Y-35132333D01*
X81868000Y-35099000D01*
X81901333Y-35032333D01*
X81901333Y-34832333D01*
X81868000Y-34765666D01*
X81834666Y-34732333D01*
X81768000Y-34699000D01*
X81634666Y-34699000D01*
X81568000Y-34732333D01*
X80968000Y-35132333D02*
X81034666Y-35165666D01*
X81168000Y-35165666D01*
X81234666Y-35132333D01*
X81268000Y-35065666D01*
X81268000Y-34799000D01*
X81234666Y-34732333D01*
X81168000Y-34699000D01*
X81034666Y-34699000D01*
X80968000Y-34732333D01*
X80934666Y-34799000D01*
X80934666Y-34865666D01*
X81268000Y-34932333D01*
X80134666Y-35132333D02*
X80034666Y-35165666D01*
X79868000Y-35165666D01*
X79801333Y-35132333D01*
X79768000Y-35099000D01*
X79734666Y-35032333D01*
X79734666Y-34965666D01*
X79768000Y-34899000D01*
X79801333Y-34865666D01*
X79868000Y-34832333D01*
X80001333Y-34799000D01*
X80068000Y-34765666D01*
X80101333Y-34732333D01*
X80134666Y-34665666D01*
X80134666Y-34599000D01*
X80101333Y-34532333D01*
X80068000Y-34499000D01*
X80001333Y-34465666D01*
X79834666Y-34465666D01*
X79734666Y-34499000D01*
X79434666Y-35165666D02*
X79434666Y-34699000D01*
X79434666Y-34765666D02*
X79401333Y-34732333D01*
X79334666Y-34699000D01*
X79234666Y-34699000D01*
X79168000Y-34732333D01*
X79134666Y-34799000D01*
X79134666Y-35165666D01*
X79134666Y-34799000D02*
X79101333Y-34732333D01*
X79034666Y-34699000D01*
X78934666Y-34699000D01*
X78868000Y-34732333D01*
X78834666Y-34799000D01*
X78834666Y-35165666D01*
X78501333Y-35165666D02*
X78501333Y-34699000D01*
X78501333Y-34465666D02*
X78534666Y-34499000D01*
X78501333Y-34532333D01*
X78468000Y-34499000D01*
X78501333Y-34465666D01*
X78501333Y-34532333D01*
X78268000Y-34699000D02*
X78001333Y-34699000D01*
X78168000Y-34465666D02*
X78168000Y-35065666D01*
X78134666Y-35132333D01*
X78068000Y-35165666D01*
X78001333Y-35165666D01*
X77768000Y-35165666D02*
X77768000Y-34465666D01*
X77468000Y-35165666D02*
X77468000Y-34799000D01*
X77501333Y-34732333D01*
X77568000Y-34699000D01*
X77668000Y-34699000D01*
X77734666Y-34732333D01*
X77768000Y-34765666D01*
D14*
X128871285Y-126574000D02*
X128157000Y-126574000D01*
X129014142Y-127002571D02*
X128514142Y-125502571D01*
X128014142Y-127002571D01*
X126371285Y-127002571D02*
X126371285Y-125502571D01*
X126371285Y-126216857D02*
X125514142Y-126216857D01*
X125514142Y-127002571D02*
X125514142Y-125502571D01*
X124157000Y-127002571D02*
X124157000Y-126216857D01*
X124228428Y-126074000D01*
X124371285Y-126002571D01*
X124657000Y-126002571D01*
X124799857Y-126074000D01*
X124157000Y-126931142D02*
X124299857Y-127002571D01*
X124657000Y-127002571D01*
X124799857Y-126931142D01*
X124871285Y-126788285D01*
X124871285Y-126645428D01*
X124799857Y-126502571D01*
X124657000Y-126431142D01*
X124299857Y-126431142D01*
X124157000Y-126359714D01*
X122799857Y-126931142D02*
X122942714Y-127002571D01*
X123228428Y-127002571D01*
X123371285Y-126931142D01*
X123442714Y-126859714D01*
X123514142Y-126716857D01*
X123514142Y-126288285D01*
X123442714Y-126145428D01*
X123371285Y-126074000D01*
X123228428Y-126002571D01*
X122942714Y-126002571D01*
X122799857Y-126074000D01*
X122157000Y-127002571D02*
X122157000Y-125502571D01*
X122014142Y-126431142D02*
X121585571Y-127002571D01*
X121585571Y-126002571D02*
X122157000Y-126574000D01*
X121157000Y-126002571D02*
X120585571Y-126002571D01*
X120942714Y-125502571D02*
X120942714Y-126788285D01*
X120871285Y-126931142D01*
X120728428Y-127002571D01*
X120585571Y-127002571D01*
X119514142Y-126931142D02*
X119657000Y-127002571D01*
X119942714Y-127002571D01*
X120085571Y-126931142D01*
X120157000Y-126788285D01*
X120157000Y-126216857D01*
X120085571Y-126074000D01*
X119942714Y-126002571D01*
X119657000Y-126002571D01*
X119514142Y-126074000D01*
X119442714Y-126216857D01*
X119442714Y-126359714D01*
X120157000Y-126502571D01*
X118799857Y-127002571D02*
X118799857Y-126002571D01*
X118799857Y-126288285D02*
X118728428Y-126145428D01*
X118657000Y-126074000D01*
X118514142Y-126002571D01*
X118371285Y-126002571D01*
X117871285Y-127002571D02*
X117871285Y-126002571D01*
X117871285Y-125502571D02*
X117942714Y-125574000D01*
X117871285Y-125645428D01*
X117799857Y-125574000D01*
X117871285Y-125502571D01*
X117871285Y-125645428D01*
X116514142Y-127002571D02*
X116514142Y-126216857D01*
X116585571Y-126074000D01*
X116728428Y-126002571D01*
X117014142Y-126002571D01*
X117157000Y-126074000D01*
X116514142Y-126931142D02*
X116657000Y-127002571D01*
X117014142Y-127002571D01*
X117157000Y-126931142D01*
X117228428Y-126788285D01*
X117228428Y-126645428D01*
X117157000Y-126502571D01*
X117014142Y-126431142D01*
X116657000Y-126431142D01*
X116514142Y-126359714D01*
X114657000Y-127002571D02*
X114657000Y-125502571D01*
X113799857Y-127002571D01*
X113799857Y-125502571D01*
X112514142Y-126931142D02*
X112657000Y-127002571D01*
X112942714Y-127002571D01*
X113085571Y-126931142D01*
X113157000Y-126788285D01*
X113157000Y-126216857D01*
X113085571Y-126074000D01*
X112942714Y-126002571D01*
X112657000Y-126002571D01*
X112514142Y-126074000D01*
X112442714Y-126216857D01*
X112442714Y-126359714D01*
X113157000Y-126502571D01*
X112014142Y-126002571D02*
X111442714Y-126002571D01*
X111799857Y-125502571D02*
X111799857Y-126788285D01*
X111728428Y-126931142D01*
X111585571Y-127002571D01*
X111442714Y-127002571D01*
X111085571Y-126002571D02*
X110799857Y-127002571D01*
X110514142Y-126288285D01*
X110228428Y-127002571D01*
X109942714Y-126002571D01*
X109157000Y-127002571D02*
X109299857Y-126931142D01*
X109371285Y-126859714D01*
X109442714Y-126716857D01*
X109442714Y-126288285D01*
X109371285Y-126145428D01*
X109299857Y-126074000D01*
X109157000Y-126002571D01*
X108942714Y-126002571D01*
X108799857Y-126074000D01*
X108728428Y-126145428D01*
X108657000Y-126288285D01*
X108657000Y-126716857D01*
X108728428Y-126859714D01*
X108799857Y-126931142D01*
X108942714Y-127002571D01*
X109157000Y-127002571D01*
X108014142Y-127002571D02*
X108014142Y-126002571D01*
X108014142Y-126288285D02*
X107942714Y-126145428D01*
X107871285Y-126074000D01*
X107728428Y-126002571D01*
X107585571Y-126002571D01*
X107085571Y-127002571D02*
X107085571Y-125502571D01*
X106942714Y-126431142D02*
X106514142Y-127002571D01*
X106514142Y-126002571D02*
X107085571Y-126574000D01*
X104728428Y-127002571D02*
X104728428Y-125502571D01*
X104157000Y-125502571D01*
X104014142Y-125574000D01*
X103942714Y-125645428D01*
X103871285Y-125788285D01*
X103871285Y-126002571D01*
X103942714Y-126145428D01*
X104014142Y-126216857D01*
X104157000Y-126288285D01*
X104728428Y-126288285D01*
X103228428Y-127002571D02*
X103228428Y-126002571D01*
X103228428Y-126288285D02*
X103157000Y-126145428D01*
X103085571Y-126074000D01*
X102942714Y-126002571D01*
X102799857Y-126002571D01*
X102085571Y-127002571D02*
X102228428Y-126931142D01*
X102299857Y-126859714D01*
X102371285Y-126716857D01*
X102371285Y-126288285D01*
X102299857Y-126145428D01*
X102228428Y-126074000D01*
X102085571Y-126002571D01*
X101871285Y-126002571D01*
X101728428Y-126074000D01*
X101657000Y-126145428D01*
X101585571Y-126288285D01*
X101585571Y-126716857D01*
X101657000Y-126859714D01*
X101728428Y-126931142D01*
X101871285Y-127002571D01*
X102085571Y-127002571D01*
X100942714Y-126002571D02*
X100942714Y-127288285D01*
X101014142Y-127431142D01*
X101157000Y-127502571D01*
X101228428Y-127502571D01*
X100942714Y-125502571D02*
X101014142Y-125574000D01*
X100942714Y-125645428D01*
X100871285Y-125574000D01*
X100942714Y-125502571D01*
X100942714Y-125645428D01*
X99657000Y-126931142D02*
X99799857Y-127002571D01*
X100085571Y-127002571D01*
X100228428Y-126931142D01*
X100299857Y-126788285D01*
X100299857Y-126216857D01*
X100228428Y-126074000D01*
X100085571Y-126002571D01*
X99799857Y-126002571D01*
X99657000Y-126074000D01*
X99585571Y-126216857D01*
X99585571Y-126359714D01*
X100299857Y-126502571D01*
X98299857Y-126931142D02*
X98442714Y-127002571D01*
X98728428Y-127002571D01*
X98871285Y-126931142D01*
X98942714Y-126859714D01*
X99014142Y-126716857D01*
X99014142Y-126288285D01*
X98942714Y-126145428D01*
X98871285Y-126074000D01*
X98728428Y-126002571D01*
X98442714Y-126002571D01*
X98299857Y-126074000D01*
X97871285Y-126002571D02*
X97299857Y-126002571D01*
X97657000Y-125502571D02*
X97657000Y-126788285D01*
X97585571Y-126931142D01*
X97442714Y-127002571D01*
X97299857Y-127002571D01*
X129216857Y-128542571D02*
X128931142Y-129542571D01*
X128645428Y-128828285D01*
X128359714Y-129542571D01*
X128074000Y-128542571D01*
X127645428Y-128542571D02*
X127359714Y-129542571D01*
X127074000Y-128828285D01*
X126788285Y-129542571D01*
X126502571Y-128542571D01*
X126074000Y-128542571D02*
X125788285Y-129542571D01*
X125502571Y-128828285D01*
X125216857Y-129542571D01*
X124931142Y-128542571D01*
X124359714Y-129399714D02*
X124288285Y-129471142D01*
X124359714Y-129542571D01*
X124431142Y-129471142D01*
X124359714Y-129399714D01*
X124359714Y-129542571D01*
X123002571Y-128542571D02*
X123002571Y-129756857D01*
X123074000Y-129899714D01*
X123145428Y-129971142D01*
X123288285Y-130042571D01*
X123502571Y-130042571D01*
X123645428Y-129971142D01*
X123002571Y-129471142D02*
X123145428Y-129542571D01*
X123431142Y-129542571D01*
X123574000Y-129471142D01*
X123645428Y-129399714D01*
X123716857Y-129256857D01*
X123716857Y-128828285D01*
X123645428Y-128685428D01*
X123574000Y-128614000D01*
X123431142Y-128542571D01*
X123145428Y-128542571D01*
X123002571Y-128614000D01*
X121645428Y-129542571D02*
X121645428Y-128756857D01*
X121716857Y-128614000D01*
X121859714Y-128542571D01*
X122145428Y-128542571D01*
X122288285Y-128614000D01*
X121645428Y-129471142D02*
X121788285Y-129542571D01*
X122145428Y-129542571D01*
X122288285Y-129471142D01*
X122359714Y-129328285D01*
X122359714Y-129185428D01*
X122288285Y-129042571D01*
X122145428Y-128971142D01*
X121788285Y-128971142D01*
X121645428Y-128899714D01*
X120288285Y-128542571D02*
X120288285Y-129542571D01*
X120931142Y-128542571D02*
X120931142Y-129328285D01*
X120859714Y-129471142D01*
X120716857Y-129542571D01*
X120502571Y-129542571D01*
X120359714Y-129471142D01*
X120288285Y-129399714D01*
X118931142Y-129542571D02*
X118931142Y-128042571D01*
X118931142Y-129471142D02*
X119074000Y-129542571D01*
X119359714Y-129542571D01*
X119502571Y-129471142D01*
X119574000Y-129399714D01*
X119645428Y-129256857D01*
X119645428Y-128828285D01*
X119574000Y-128685428D01*
X119502571Y-128614000D01*
X119359714Y-128542571D01*
X119074000Y-128542571D01*
X118931142Y-128614000D01*
X118216857Y-129542571D02*
X118216857Y-128542571D01*
X118216857Y-128042571D02*
X118288285Y-128114000D01*
X118216857Y-128185428D01*
X118145428Y-128114000D01*
X118216857Y-128042571D01*
X118216857Y-128185428D01*
X117502571Y-129399714D02*
X117431142Y-129471142D01*
X117502571Y-129542571D01*
X117574000Y-129471142D01*
X117502571Y-129399714D01*
X117502571Y-129542571D01*
X116145428Y-129471142D02*
X116288285Y-129542571D01*
X116574000Y-129542571D01*
X116716857Y-129471142D01*
X116788285Y-129399714D01*
X116859714Y-129256857D01*
X116859714Y-128828285D01*
X116788285Y-128685428D01*
X116716857Y-128614000D01*
X116574000Y-128542571D01*
X116288285Y-128542571D01*
X116145428Y-128614000D01*
X115502571Y-129542571D02*
X115502571Y-128042571D01*
X114859714Y-129542571D02*
X114859714Y-128756857D01*
X114931142Y-128614000D01*
X115074000Y-128542571D01*
X115288285Y-128542571D01*
X115431142Y-128614000D01*
X115502571Y-128685428D01*
X113074000Y-127971142D02*
X114359714Y-129899714D01*
X112288285Y-128042571D02*
X112002571Y-128042571D01*
X111859714Y-128114000D01*
X111716857Y-128256857D01*
X111645428Y-128542571D01*
X111645428Y-129042571D01*
X111716857Y-129328285D01*
X111859714Y-129471142D01*
X112002571Y-129542571D01*
X112288285Y-129542571D01*
X112431142Y-129471142D01*
X112574000Y-129328285D01*
X112645428Y-129042571D01*
X112645428Y-128542571D01*
X112574000Y-128256857D01*
X112431142Y-128114000D01*
X112288285Y-128042571D01*
X111002571Y-128542571D02*
X111002571Y-130042571D01*
X111002571Y-128614000D02*
X110859714Y-128542571D01*
X110574000Y-128542571D01*
X110431142Y-128614000D01*
X110359714Y-128685428D01*
X110288285Y-128828285D01*
X110288285Y-129256857D01*
X110359714Y-129399714D01*
X110431142Y-129471142D01*
X110574000Y-129542571D01*
X110859714Y-129542571D01*
X111002571Y-129471142D01*
X109074000Y-129471142D02*
X109216857Y-129542571D01*
X109502571Y-129542571D01*
X109645428Y-129471142D01*
X109716857Y-129328285D01*
X109716857Y-128756857D01*
X109645428Y-128614000D01*
X109502571Y-128542571D01*
X109216857Y-128542571D01*
X109074000Y-128614000D01*
X109002571Y-128756857D01*
X109002571Y-128899714D01*
X109716857Y-129042571D01*
X108359714Y-128542571D02*
X108359714Y-129542571D01*
X108359714Y-128685428D02*
X108288285Y-128614000D01*
X108145428Y-128542571D01*
X107931142Y-128542571D01*
X107788285Y-128614000D01*
X107716857Y-128756857D01*
X107716857Y-129542571D01*
X107002571Y-129542571D02*
X107002571Y-128042571D01*
X106645428Y-128042571D01*
X106431142Y-128114000D01*
X106288285Y-128256857D01*
X106216857Y-128399714D01*
X106145428Y-128685428D01*
X106145428Y-128899714D01*
X106216857Y-129185428D01*
X106288285Y-129328285D01*
X106431142Y-129471142D01*
X106645428Y-129542571D01*
X107002571Y-129542571D01*
X105502571Y-129542571D02*
X105502571Y-128542571D01*
X105502571Y-128828285D02*
X105431142Y-128685428D01*
X105359714Y-128614000D01*
X105216857Y-128542571D01*
X105074000Y-128542571D01*
X104359714Y-129542571D02*
X104502571Y-129471142D01*
X104574000Y-129399714D01*
X104645428Y-129256857D01*
X104645428Y-128828285D01*
X104574000Y-128685428D01*
X104502571Y-128614000D01*
X104359714Y-128542571D01*
X104145428Y-128542571D01*
X104002571Y-128614000D01*
X103931142Y-128685428D01*
X103859714Y-128828285D01*
X103859714Y-129256857D01*
X103931142Y-129399714D01*
X104002571Y-129471142D01*
X104145428Y-129542571D01*
X104359714Y-129542571D01*
X103216857Y-128542571D02*
X103216857Y-130042571D01*
X103216857Y-128614000D02*
X103074000Y-128542571D01*
X102788285Y-128542571D01*
X102645428Y-128614000D01*
X102574000Y-128685428D01*
X102502571Y-128828285D01*
X102502571Y-129256857D01*
X102574000Y-129399714D01*
X102645428Y-129471142D01*
X102788285Y-129542571D01*
X103074000Y-129542571D01*
X103216857Y-129471142D01*
D11*
%TO.C,SP1*%
X96265000Y-132039000D02*
G75*
G03X96265000Y-132039000I-8000000J0D01*
G01*
X93765000Y-132039000D02*
G75*
G03X93765000Y-132039000I-5500000J0D01*
G01*
X90265000Y-132039000D02*
G75*
G03X90265000Y-132039000I-2000000J0D01*
G01*
D15*
%TO.C,J2*%
X107183000Y-39062000D02*
X107248000Y-39062000D01*
X107183000Y-35532000D02*
X107248000Y-35532000D01*
X100778000Y-39062000D02*
X100843000Y-39062000D01*
X100778000Y-35532000D02*
X100843000Y-35532000D01*
X100843000Y-34207000D02*
X100843000Y-35532000D01*
X107248000Y-35532000D02*
X107248000Y-39062000D01*
X100778000Y-35532000D02*
X100778000Y-39062000D01*
D11*
%TO.C,U5*%
X112210000Y-43324000D02*
X112210000Y-43849000D01*
X104960000Y-43324000D02*
X104960000Y-43849000D01*
X104960000Y-50574000D02*
X104960000Y-50049000D01*
X112210000Y-50574000D02*
X112210000Y-50049000D01*
X112210000Y-43324000D02*
X111685000Y-43324000D01*
X112210000Y-50574000D02*
X111685000Y-50574000D01*
X104960000Y-50574000D02*
X105485000Y-50574000D01*
X104960000Y-43324000D02*
X105485000Y-43324000D01*
X112210000Y-43849000D02*
X113585000Y-43849000D01*
%TO.C,C14*%
X101211000Y-48307000D02*
X100211000Y-48307000D01*
X100211000Y-46607000D02*
X101211000Y-46607000D01*
%TO.C,U12*%
X83247860Y-68318140D02*
X82546820Y-68318140D01*
X82546820Y-68367000D02*
X82546820Y-69267000D01*
X83347000Y-62867000D02*
X83347000Y-69267000D01*
X83347000Y-69267000D02*
X78547000Y-69267000D01*
X78547000Y-69267000D02*
X78547000Y-62867000D01*
X78547000Y-62867000D02*
X83347000Y-62867000D01*
%TO.C,C18*%
X63246000Y-61976000D02*
X63246000Y-59944000D01*
X63119000Y-59563000D02*
X63119000Y-62484000D01*
X62992000Y-62738000D02*
X62992000Y-59182000D01*
X62865000Y-58801000D02*
X62865000Y-63119000D01*
X62738000Y-63373000D02*
X62738000Y-58547000D01*
X62611000Y-58420000D02*
X62611000Y-63500000D01*
X63627000Y-55753000D02*
X63627000Y-66167000D01*
X63627000Y-66167000D02*
X53975000Y-66167000D01*
X53975000Y-66167000D02*
X53213000Y-65405000D01*
X53213000Y-65405000D02*
X53213000Y-56515000D01*
X53213000Y-56515000D02*
X53975000Y-55753000D01*
X53975000Y-55753000D02*
X63627000Y-55753000D01*
X53848000Y-60960000D02*
X54610000Y-60960000D01*
X54229000Y-60579000D02*
X54229000Y-61341000D01*
X63373000Y-60960000D02*
G75*
G03X63373000Y-60960000I-4953000J0D01*
G01*
D15*
%TO.C,R32*%
X101276000Y-60069500D02*
X101276000Y-61269500D01*
X103036000Y-61269500D02*
X103036000Y-60069500D01*
D11*
%TO.C,U9*%
X114729000Y-65241500D02*
G75*
G03X114729000Y-65241500I-254000J0D01*
G01*
X113840000Y-68467300D02*
X113840000Y-64555700D01*
X118920000Y-68467300D02*
X118920000Y-64555700D01*
X113840000Y-68467300D02*
X118920000Y-68467300D01*
X118920000Y-64555700D02*
X113840000Y-64555700D01*
%TO.C,U8*%
X112570000Y-64555700D02*
X107490000Y-64555700D01*
X107490000Y-68467300D02*
X112570000Y-68467300D01*
X112570000Y-68467300D02*
X112570000Y-64555700D01*
X107490000Y-68467300D02*
X107490000Y-64555700D01*
X108379000Y-65241500D02*
G75*
G03X108379000Y-65241500I-254000J0D01*
G01*
D15*
%TO.C,R33*%
X101302000Y-72471500D02*
X102502000Y-72471500D01*
X102502000Y-70711500D02*
X101302000Y-70711500D01*
%TO.C,R1*%
X63382000Y-51978000D02*
X63382000Y-53178000D01*
X65142000Y-53178000D02*
X65142000Y-51978000D01*
%TO.C,R5*%
X102099000Y-43993000D02*
X102099000Y-42793000D01*
X100339000Y-42793000D02*
X100339000Y-43993000D01*
%TO.C,R18*%
X101530000Y-135817000D02*
X101530000Y-137017000D01*
X103290000Y-137017000D02*
X103290000Y-135817000D01*
%TO.C,R19*%
X100877000Y-137017000D02*
X100877000Y-135817000D01*
X99117000Y-135817000D02*
X99117000Y-137017000D01*
%TO.C,R20*%
X98210000Y-138541000D02*
X98210000Y-137341000D01*
X96450000Y-137341000D02*
X96450000Y-138541000D01*
%TO.C,R21*%
X98210000Y-135112000D02*
X98210000Y-133912000D01*
X96450000Y-133912000D02*
X96450000Y-135112000D01*
%TO.C,R22*%
X131576000Y-73243040D02*
X132776000Y-73243040D01*
X132776000Y-71483040D02*
X131576000Y-71483040D01*
%TO.C,R30*%
X130788000Y-68715040D02*
X130788000Y-69915040D01*
X132548000Y-69915040D02*
X132548000Y-68715040D01*
%TO.C,R31*%
X122914000Y-68207040D02*
X122914000Y-69407040D01*
X124674000Y-69407040D02*
X124674000Y-68207040D01*
%TO.C,R35*%
X114589000Y-72467000D02*
X115789000Y-72467000D01*
X115789000Y-70707000D02*
X114589000Y-70707000D01*
%TO.C,R38*%
X107906000Y-72471500D02*
X109106000Y-72471500D01*
X109106000Y-70711500D02*
X107906000Y-70711500D01*
%TO.C,R39*%
X105756000Y-70707000D02*
X104556000Y-70707000D01*
X104556000Y-72467000D02*
X105756000Y-72467000D01*
%TO.C,R42*%
X112408000Y-70711500D02*
X111208000Y-70711500D01*
X111208000Y-72471500D02*
X112408000Y-72471500D01*
%TO.C,R44*%
X96739000Y-74009000D02*
X95539000Y-74009000D01*
X95539000Y-75769000D02*
X96739000Y-75769000D01*
%TO.C,R45*%
X85887000Y-74245000D02*
X87087000Y-74245000D01*
X87087000Y-72485000D02*
X85887000Y-72485000D01*
%TO.C,R48*%
X73117000Y-72485000D02*
X71917000Y-72485000D01*
X71917000Y-74245000D02*
X73117000Y-74245000D01*
%TO.C,R49*%
X83023000Y-72485000D02*
X81823000Y-72485000D01*
X81823000Y-74245000D02*
X83023000Y-74245000D01*
%TO.C,R51*%
X78451000Y-72485000D02*
X77251000Y-72485000D01*
X77251000Y-74245000D02*
X78451000Y-74245000D01*
%TO.C,R41*%
X116770000Y-60069500D02*
X116770000Y-61269500D01*
X118530000Y-61269500D02*
X118530000Y-60069500D01*
%TO.C,R43*%
X119012000Y-70711500D02*
X117812000Y-70711500D01*
X117812000Y-72471500D02*
X119012000Y-72471500D01*
%TO.C,R3*%
X139919000Y-40227000D02*
X138719000Y-40227000D01*
X138719000Y-41987000D02*
X139919000Y-41987000D01*
%TO.C,R4*%
X145025000Y-57709000D02*
X145025000Y-56509000D01*
X143265000Y-56509000D02*
X143265000Y-57709000D01*
%TO.C,R6*%
X122165000Y-57709000D02*
X122165000Y-56509000D01*
X120405000Y-56509000D02*
X120405000Y-57709000D01*
%TO.C,R8*%
X142993000Y-57709000D02*
X142993000Y-56509000D01*
X141233000Y-56509000D02*
X141233000Y-57709000D01*
%TO.C,R34*%
X114295000Y-60075000D02*
X114295000Y-61275000D01*
X116055000Y-61275000D02*
X116055000Y-60075000D01*
%TO.C,R36*%
X107880000Y-60069500D02*
X107880000Y-61269500D01*
X109640000Y-61269500D02*
X109640000Y-60069500D01*
%TO.C,R37*%
X104095000Y-60075000D02*
X104095000Y-61275000D01*
X105855000Y-61275000D02*
X105855000Y-60075000D01*
%TO.C,R40*%
X110420000Y-60069500D02*
X110420000Y-61269500D01*
X112180000Y-61269500D02*
X112180000Y-60069500D01*
%TO.C,R9*%
X99069000Y-50413000D02*
X99069000Y-51613000D01*
X100829000Y-51613000D02*
X100829000Y-50413000D01*
%TO.C,R10*%
X91983000Y-75769000D02*
X93183000Y-75769000D01*
X93183000Y-74009000D02*
X91983000Y-74009000D01*
%TO.C,R11*%
X96485000Y-59150000D02*
X95285000Y-59150000D01*
X95285000Y-60910000D02*
X96485000Y-60910000D01*
D11*
%TO.C,U2*%
X96125000Y-106625000D02*
X95675000Y-106625000D01*
X96125000Y-92375000D02*
X95675000Y-92375000D01*
X75875000Y-92375000D02*
X76325000Y-92375000D01*
X75875000Y-106625000D02*
X76325000Y-106625000D01*
X96125000Y-106625000D02*
X96125000Y-105975000D01*
X75875000Y-106625000D02*
X75875000Y-105975000D01*
X75875000Y-92375000D02*
X75875000Y-93025000D01*
X96125000Y-92375000D02*
X96125000Y-93025000D01*
X95675000Y-106625000D02*
X95675000Y-108300000D01*
%TO.C,R16*%
X99225000Y-89000000D02*
X98025000Y-89000000D01*
X98025000Y-90750000D02*
X99225000Y-90750000D01*
%TO.C,U4*%
X103875000Y-92375000D02*
X104325000Y-92375000D01*
X103875000Y-106625000D02*
X104325000Y-106625000D01*
X124125000Y-106625000D02*
X123675000Y-106625000D01*
X124125000Y-92375000D02*
X123675000Y-92375000D01*
X103875000Y-92375000D02*
X103875000Y-93025000D01*
X124125000Y-92375000D02*
X124125000Y-93025000D01*
X124125000Y-106625000D02*
X124125000Y-105975000D01*
X103875000Y-106625000D02*
X103875000Y-105975000D01*
X104325000Y-92375000D02*
X104325000Y-90700000D01*
%TO.C,U11*%
X72579860Y-68318140D02*
X71878820Y-68318140D01*
X71878820Y-68367000D02*
X71878820Y-69267000D01*
X72679000Y-62867000D02*
X72679000Y-69267000D01*
X72679000Y-69267000D02*
X67879000Y-69267000D01*
X67879000Y-69267000D02*
X67879000Y-62867000D01*
X67879000Y-62867000D02*
X72679000Y-62867000D01*
%TO.C,U10*%
X88581860Y-68318140D02*
X87880820Y-68318140D01*
X87880820Y-68367000D02*
X87880820Y-69267000D01*
X88681000Y-62867000D02*
X88681000Y-69267000D01*
X88681000Y-69267000D02*
X83881000Y-69267000D01*
X83881000Y-69267000D02*
X83881000Y-62867000D01*
X83881000Y-62867000D02*
X88681000Y-62867000D01*
%TO.C,U13*%
X77913860Y-68318140D02*
X77212820Y-68318140D01*
X77212820Y-68367000D02*
X77212820Y-69267000D01*
X78013000Y-62867000D02*
X78013000Y-69267000D01*
X78013000Y-69267000D02*
X73213000Y-69267000D01*
X73213000Y-69267000D02*
X73213000Y-62867000D01*
X73213000Y-62867000D02*
X78013000Y-62867000D01*
%TO.C,U7*%
X102029000Y-65241500D02*
G75*
G03X102029000Y-65241500I-254000J0D01*
G01*
X101140000Y-68467300D02*
X101140000Y-64555700D01*
X106220000Y-68467300D02*
X106220000Y-64555700D01*
X101140000Y-68467300D02*
X106220000Y-68467300D01*
X106220000Y-64555700D02*
X101140000Y-64555700D01*
%TO.C,C17*%
X124644000Y-64497040D02*
X124644000Y-65497040D01*
X122944000Y-65497040D02*
X122944000Y-64497040D01*
D16*
%TO.C,U6*%
X125328000Y-67761040D02*
X130388000Y-67761040D01*
D11*
X125948000Y-69061040D02*
G75*
G02X125328000Y-69681040I-620000J0D01*
G01*
X125308000Y-68431040D02*
G75*
G02X125948000Y-69051040I10000J-630000D01*
G01*
X125328000Y-67711040D02*
G75*
G02X125688000Y-67371040I350000J-10000D01*
G01*
X130068000Y-67351040D02*
G75*
G02X130398000Y-67681040I0J-330000D01*
G01*
X130398000Y-70481040D02*
G75*
G02X130058000Y-70761040I-310000J30000D01*
G01*
X125708000Y-70771040D02*
G75*
G02X125328000Y-70451040I-30000J350000D01*
G01*
X125318000Y-70381840D02*
X125318000Y-67740240D01*
X130398000Y-70381840D02*
X130398000Y-67740240D01*
X125699000Y-70762840D02*
X130017000Y-70762840D01*
X130017000Y-67359240D02*
X125699000Y-67359240D01*
%TO.C,R2*%
X78165000Y-55538000D02*
X72965000Y-55538000D01*
X72965000Y-59188000D02*
X78165000Y-59188000D01*
%TO.C,RSENSE1*%
X71090000Y-40495000D02*
X71090000Y-44395000D01*
X74040000Y-44395000D02*
X74040000Y-40495000D01*
%TO.C,C2*%
X62826000Y-48268000D02*
X62826000Y-49268000D01*
X61126000Y-49268000D02*
X61126000Y-48268000D01*
%TO.C,C3*%
X63412000Y-49268000D02*
X63412000Y-48268000D01*
X65112000Y-48268000D02*
X65112000Y-49268000D01*
%TO.C,C1*%
X90471000Y-43240000D02*
X90471000Y-38040000D01*
X86821000Y-38040000D02*
X86821000Y-43240000D01*
%TO.C,C12*%
X126582000Y-99746000D02*
X126582000Y-98746000D01*
X128282000Y-98746000D02*
X128282000Y-99746000D01*
%TO.C,C13*%
X72910000Y-99508000D02*
X72910000Y-100508000D01*
X71210000Y-100508000D02*
X71210000Y-99508000D01*
%TO.C,D1*%
X72775000Y-37945000D02*
X72775000Y-37415000D01*
X72775000Y-34245000D02*
X72775000Y-34755000D01*
X67275000Y-37945000D02*
X67275000Y-37485000D01*
X67275000Y-34245000D02*
X67275000Y-34785000D01*
D14*
X68225000Y-37845000D02*
X68225000Y-37495000D01*
X68225000Y-34345000D02*
X68225000Y-34695000D01*
D11*
X67275000Y-34245000D02*
X72775000Y-34245000D01*
X72775000Y-37945000D02*
X67275000Y-37945000D01*
%TO.C,C15*%
X130818000Y-66513040D02*
X130818000Y-65513040D01*
X132518000Y-65513040D02*
X132518000Y-66513040D01*
%TO.C,C16*%
X127627000Y-64309000D02*
X126627000Y-64309000D01*
X126627000Y-62609000D02*
X127627000Y-62609000D01*
%TO.C,R17*%
X101975000Y-108250000D02*
X100775000Y-108250000D01*
X100775000Y-110000000D02*
X101975000Y-110000000D01*
%TO.C,R15*%
X101975000Y-89000000D02*
X100775000Y-89000000D01*
X100775000Y-90750000D02*
X101975000Y-90750000D01*
%TO.C,R7*%
X98025000Y-110000000D02*
X99225000Y-110000000D01*
X99225000Y-108250000D02*
X98025000Y-108250000D01*
%TO.C,C4*%
X53594000Y-38100000D02*
X53594000Y-40132000D01*
X53721000Y-40513000D02*
X53721000Y-37592000D01*
X53848000Y-37338000D02*
X53848000Y-40894000D01*
X53975000Y-41275000D02*
X53975000Y-36957000D01*
X54102000Y-36703000D02*
X54102000Y-41529000D01*
X54229000Y-41656000D02*
X54229000Y-36576000D01*
X53213000Y-44323000D02*
X53213000Y-33909000D01*
X53213000Y-33909000D02*
X62865000Y-33909000D01*
X62865000Y-33909000D02*
X63627000Y-34671000D01*
X63627000Y-34671000D02*
X63627000Y-43561000D01*
X63627000Y-43561000D02*
X62865000Y-44323000D01*
X62865000Y-44323000D02*
X53213000Y-44323000D01*
X62992000Y-39116000D02*
X62230000Y-39116000D01*
X62611000Y-39497000D02*
X62611000Y-38735000D01*
X63373000Y-39116000D02*
G75*
G03X63373000Y-39116000I-4953000J0D01*
G01*
%TO.C,C20*%
X109609000Y-37971000D02*
X110609000Y-37971000D01*
X110609000Y-39671000D02*
X109609000Y-39671000D01*
%TO.C,C21*%
X127469000Y-39591000D02*
X127469000Y-40591000D01*
X125769000Y-40591000D02*
X125769000Y-39591000D01*
%TO.C,C22*%
X142963000Y-61181000D02*
X142963000Y-62181000D01*
X141263000Y-62181000D02*
X141263000Y-61181000D01*
%TO.C,C23*%
X109609000Y-33907000D02*
X110609000Y-33907000D01*
X110609000Y-35607000D02*
X109609000Y-35607000D01*
%TO.C,C24*%
X117817000Y-44417000D02*
X117817000Y-45417000D01*
X116117000Y-45417000D02*
X116117000Y-44417000D01*
%TO.C,C25*%
X109609000Y-35939000D02*
X110609000Y-35939000D01*
X110609000Y-37639000D02*
X109609000Y-37639000D01*
D17*
%TO.C,SW3*%
X143853553Y-45000000D02*
G75*
G03X143853553Y-45000000I-353553J0D01*
G01*
X143853553Y-40500000D02*
G75*
G03X143853553Y-40500000I-353553J0D01*
G01*
X148353553Y-40500000D02*
G75*
G03X148353553Y-40500000I-353553J0D01*
G01*
X148353553Y-45000000D02*
G75*
G03X148353553Y-45000000I-353553J0D01*
G01*
X143250000Y-39750000D02*
X143250000Y-38750000D01*
X143250000Y-38750000D02*
X143750000Y-38750000D01*
X143750000Y-38750000D02*
X143750000Y-39750000D01*
X143750000Y-45750000D02*
X143750000Y-46750000D01*
X143750000Y-46750000D02*
X143250000Y-46750000D01*
X143250000Y-46750000D02*
X143250000Y-45750000D01*
X148250000Y-45750000D02*
X148250000Y-46750000D01*
X148250000Y-46750000D02*
X147750000Y-46750000D01*
X147750000Y-46750000D02*
X147750000Y-45750000D01*
X148250000Y-39750000D02*
X148250000Y-38750000D01*
X148250000Y-38750000D02*
X147750000Y-38750000D01*
X147750000Y-39750000D02*
X147750000Y-38750000D01*
X148750000Y-39750000D02*
X142750000Y-39750000D01*
X142750000Y-39750000D02*
X142750000Y-45750000D01*
X142750000Y-45750000D02*
X148750000Y-45750000D01*
X147499200Y-42750000D02*
G75*
G03X147499200Y-42750000I-1749200J0D01*
G01*
X148750000Y-45750000D02*
X148750000Y-39750000D01*
D11*
%TO.C,C19*%
X89762000Y-57046000D02*
X88238000Y-57046000D01*
X87857000Y-56919000D02*
X90143000Y-56919000D01*
X90397000Y-56792000D02*
X87603000Y-56792000D01*
X87349000Y-56665000D02*
X90651000Y-56665000D01*
X90778000Y-56538000D02*
X87222000Y-56538000D01*
X92302000Y-57427000D02*
X85698000Y-57427000D01*
X85698000Y-57427000D02*
X85698000Y-51585000D01*
X85698000Y-51585000D02*
X86460000Y-50823000D01*
X86460000Y-50823000D02*
X91540000Y-50823000D01*
X91540000Y-50823000D02*
X92302000Y-51585000D01*
X92302000Y-51585000D02*
X92302000Y-57427000D01*
X89000000Y-51966000D02*
X89000000Y-52728000D01*
X89381000Y-52347000D02*
X88619000Y-52347000D01*
X92048000Y-54125000D02*
G75*
G03X92048000Y-54125000I-3048000J0D01*
G01*
%TO.C,L1*%
X78145000Y-45599000D02*
X83145000Y-45599000D01*
X83145000Y-35599000D02*
X78145000Y-35599000D01*
X84945000Y-39599000D02*
X84945000Y-41599000D01*
X76345000Y-39599000D02*
X76345000Y-41499000D01*
X76345000Y-39599000D02*
X75745000Y-39199000D01*
X76345000Y-41499000D02*
X75745000Y-41999000D01*
X84945000Y-41599000D02*
X85545000Y-41999000D01*
X84945000Y-39599000D02*
X85545000Y-39199000D01*
X75745000Y-39199000D02*
X75745000Y-38099000D01*
X75745000Y-41999000D02*
X75745000Y-43099000D01*
X85545000Y-41999000D02*
X85545000Y-43099000D01*
X85545000Y-39199000D02*
X85545000Y-38099000D01*
X85545000Y-38099000D02*
X83145000Y-35599000D01*
X75745000Y-38099000D02*
X78145000Y-35599000D01*
X75745000Y-43099000D02*
X78145000Y-45599000D01*
X85545000Y-43099000D02*
X83145000Y-45599000D01*
%TO.C,C7*%
X124087000Y-42543000D02*
X125087000Y-42543000D01*
X125087000Y-44243000D02*
X124087000Y-44243000D01*
%TO.C,C8*%
X139819000Y-44243000D02*
X138819000Y-44243000D01*
X138819000Y-42543000D02*
X139819000Y-42543000D01*
%TO.C,C9*%
X129151000Y-44243000D02*
X128151000Y-44243000D01*
X128151000Y-42543000D02*
X129151000Y-42543000D01*
%TO.C,C10*%
X134755000Y-42543000D02*
X135755000Y-42543000D01*
X135755000Y-44243000D02*
X134755000Y-44243000D01*
%TO.C,C11*%
X117467000Y-53895000D02*
X116467000Y-53895000D01*
X116467000Y-52195000D02*
X117467000Y-52195000D01*
%TO.C,C6*%
X66395000Y-44245000D02*
X66395000Y-40645000D01*
X69845000Y-40645000D02*
X69845000Y-44245000D01*
%TO.C,C27*%
X121373000Y-62451000D02*
X121373000Y-63451000D01*
X119673000Y-63451000D02*
X119673000Y-62451000D01*
%TO.C,U14*%
X121793000Y-34249000D02*
X124841000Y-34249000D01*
X124841000Y-34249000D02*
X124841000Y-41361000D01*
X124841000Y-41361000D02*
X121793000Y-41361000D01*
X118745000Y-34249000D02*
X117983000Y-34249000D01*
X117983000Y-34249000D02*
X115697000Y-35773000D01*
X115697000Y-35773000D02*
X115697000Y-39837000D01*
X115697000Y-39837000D02*
X117983000Y-41361000D01*
X117983000Y-41361000D02*
X118745000Y-41361000D01*
D16*
%TO.C,U1*%
X71110000Y-52100000D02*
X66050000Y-52100000D01*
D11*
X70490000Y-50800000D02*
G75*
G02X71110000Y-50180000I620000J0D01*
G01*
X71130000Y-51430000D02*
G75*
G02X70490000Y-50810000I-10000J630000D01*
G01*
X71110000Y-52150000D02*
G75*
G02X70750000Y-52490000I-350000J10000D01*
G01*
X66370000Y-52510000D02*
G75*
G02X66040000Y-52180000I0J330000D01*
G01*
X66040000Y-49380000D02*
G75*
G02X66380000Y-49100000I310000J-30000D01*
G01*
X70730000Y-49090000D02*
G75*
G02X71110000Y-49410000I30000J-350000D01*
G01*
X71120000Y-49479200D02*
X71120000Y-52120800D01*
X66040000Y-49479200D02*
X66040000Y-52120800D01*
X70739000Y-49098200D02*
X66421000Y-49098200D01*
X66421000Y-52501800D02*
X70739000Y-52501800D01*
D16*
%TO.C,U15*%
X98415000Y-52059000D02*
X93355000Y-52059000D01*
D11*
X97795000Y-50759000D02*
G75*
G02X98415000Y-50139000I620000J0D01*
G01*
X98435000Y-51389000D02*
G75*
G02X97795000Y-50769000I-10000J630000D01*
G01*
X98415000Y-52109000D02*
G75*
G02X98055000Y-52449000I-350000J10000D01*
G01*
X93675000Y-52469000D02*
G75*
G02X93345000Y-52139000I0J330000D01*
G01*
X93345000Y-49339000D02*
G75*
G02X93685000Y-49059000I310000J-30000D01*
G01*
X98035000Y-49049000D02*
G75*
G02X98415000Y-49369000I30000J-350000D01*
G01*
X98425000Y-49438200D02*
X98425000Y-52079800D01*
X93345000Y-49438200D02*
X93345000Y-52079800D01*
X98044000Y-49057200D02*
X93726000Y-49057200D01*
X93726000Y-52460800D02*
X98044000Y-52460800D01*
%TO.C,C5*%
X138469000Y-36781000D02*
X138469000Y-35781000D01*
X140169000Y-35781000D02*
X140169000Y-36781000D01*
%TO.C,U3*%
X116667000Y-57539000D02*
G75*
G03X116667000Y-57539000I-100000J0D01*
G01*
X117217000Y-57289000D02*
X116717000Y-57289000D01*
X117217000Y-54389000D02*
X117217000Y-57289000D01*
X116717000Y-54389000D02*
X117217000Y-54389000D01*
X116717000Y-57289000D02*
X116717000Y-54389000D01*
D15*
%TO.C,C28*%
X88939000Y-74627000D02*
X88939000Y-73627000D01*
X90639000Y-73627000D02*
X90639000Y-74627000D01*
%TO.C,C29*%
X99783000Y-73627000D02*
X99783000Y-74627000D01*
X98083000Y-74627000D02*
X98083000Y-73627000D01*
%TO.C,C31*%
X96385000Y-58340000D02*
X95385000Y-58340000D01*
X95385000Y-56640000D02*
X96385000Y-56640000D01*
%TO.C,D2*%
X94083000Y-71753000D02*
X91533000Y-71753000D01*
X94083000Y-73453000D02*
X91533000Y-73453000D01*
X94083000Y-71753000D02*
X94083000Y-73453000D01*
%TO.C,D3*%
X97639000Y-71753000D02*
X97639000Y-73453000D01*
X97639000Y-73453000D02*
X95089000Y-73453000D01*
X97639000Y-71753000D02*
X95089000Y-71753000D01*
%TO.C,J1*%
X96137000Y-43199000D02*
X97157000Y-43199000D01*
X96137000Y-37999000D02*
X97157000Y-37999000D01*
X93597000Y-43199000D02*
X94617000Y-43199000D01*
X93597000Y-37999000D02*
X94617000Y-37999000D01*
X98677000Y-43199000D02*
X99247000Y-43199000D01*
X98677000Y-37999000D02*
X99247000Y-37999000D01*
X91507000Y-43199000D02*
X92077000Y-43199000D01*
X91507000Y-37999000D02*
X92077000Y-37999000D01*
X92077000Y-36559000D02*
X92077000Y-37999000D01*
X99247000Y-37999000D02*
X99247000Y-43199000D01*
X91507000Y-37999000D02*
X91507000Y-43199000D01*
D11*
%TO.C,U16*%
X90978591Y-65227000D02*
G75*
G03X90978591Y-65227000I-288591J0D01*
G01*
X98945000Y-68455800D02*
X98945000Y-64544200D01*
X98945000Y-64544200D02*
X90055000Y-64544200D01*
X90055000Y-68455800D02*
X90055000Y-64544200D01*
X90055000Y-68455800D02*
X98945000Y-68455800D01*
X90055000Y-67008000D02*
X90055000Y-65738000D01*
D15*
%TO.C,Y1*%
X114540000Y-36956000D02*
X114540000Y-35606000D01*
X112790000Y-36956000D02*
X112790000Y-35606000D01*
D11*
%TO.C,C32*%
X133753000Y-41816000D02*
X130153000Y-41816000D01*
X130153000Y-38366000D02*
X133753000Y-38366000D01*
D15*
%TO.C,C26*%
X120357000Y-44417000D02*
X120357000Y-45417000D01*
X118657000Y-45417000D02*
X118657000Y-44417000D01*
D11*
%TO.C,J3*%
X128100000Y-29671000D02*
X135900000Y-29671000D01*
X128100000Y-35058540D02*
X135900000Y-35058540D01*
X135900000Y-35058540D02*
X135900000Y-29671000D01*
X127500000Y-31021000D02*
X136500000Y-31021000D01*
X128100000Y-29671000D02*
X128100000Y-35058540D01*
%TO.C,J2*%
X104346333Y-41067380D02*
X104346333Y-41781666D01*
X104393952Y-41924523D01*
X104489190Y-42019761D01*
X104632047Y-42067380D01*
X104727285Y-42067380D01*
X103917761Y-41162619D02*
X103870142Y-41115000D01*
X103774904Y-41067380D01*
X103536809Y-41067380D01*
X103441571Y-41115000D01*
X103393952Y-41162619D01*
X103346333Y-41257857D01*
X103346333Y-41353095D01*
X103393952Y-41495952D01*
X103965380Y-42067380D01*
X103346333Y-42067380D01*
%TO.C,U5*%
X114299904Y-42083380D02*
X114299904Y-42892904D01*
X114252285Y-42988142D01*
X114204666Y-43035761D01*
X114109428Y-43083380D01*
X113918952Y-43083380D01*
X113823714Y-43035761D01*
X113776095Y-42988142D01*
X113728476Y-42892904D01*
X113728476Y-42083380D01*
X112776095Y-42083380D02*
X113252285Y-42083380D01*
X113299904Y-42559571D01*
X113252285Y-42511952D01*
X113157047Y-42464333D01*
X112918952Y-42464333D01*
X112823714Y-42511952D01*
X112776095Y-42559571D01*
X112728476Y-42654809D01*
X112728476Y-42892904D01*
X112776095Y-42988142D01*
X112823714Y-43035761D01*
X112918952Y-43083380D01*
X113157047Y-43083380D01*
X113252285Y-43035761D01*
X113299904Y-42988142D01*
%TO.C,C14*%
X101480857Y-49338142D02*
X101528476Y-49385761D01*
X101671333Y-49433380D01*
X101766571Y-49433380D01*
X101909428Y-49385761D01*
X102004666Y-49290523D01*
X102052285Y-49195285D01*
X102099904Y-49004809D01*
X102099904Y-48861952D01*
X102052285Y-48671476D01*
X102004666Y-48576238D01*
X101909428Y-48481000D01*
X101766571Y-48433380D01*
X101671333Y-48433380D01*
X101528476Y-48481000D01*
X101480857Y-48528619D01*
X100528476Y-49433380D02*
X101099904Y-49433380D01*
X100814190Y-49433380D02*
X100814190Y-48433380D01*
X100909428Y-48576238D01*
X101004666Y-48671476D01*
X101099904Y-48719095D01*
X99671333Y-48766714D02*
X99671333Y-49433380D01*
X99909428Y-48385761D02*
X100147523Y-49100047D01*
X99528476Y-49100047D01*
%TO.C,U12*%
X79589380Y-72126904D02*
X80398904Y-72126904D01*
X80494142Y-72174523D01*
X80541761Y-72222142D01*
X80589380Y-72317380D01*
X80589380Y-72507857D01*
X80541761Y-72603095D01*
X80494142Y-72650714D01*
X80398904Y-72698333D01*
X79589380Y-72698333D01*
X80589380Y-73698333D02*
X80589380Y-73126904D01*
X80589380Y-73412619D02*
X79589380Y-73412619D01*
X79732238Y-73317380D01*
X79827476Y-73222142D01*
X79875095Y-73126904D01*
X79684619Y-74079285D02*
X79637000Y-74126904D01*
X79589380Y-74222142D01*
X79589380Y-74460238D01*
X79637000Y-74555476D01*
X79684619Y-74603095D01*
X79779857Y-74650714D01*
X79875095Y-74650714D01*
X80017952Y-74603095D01*
X80589380Y-74031666D01*
X80589380Y-74650714D01*
%TO.C,C18*%
X55887857Y-55053142D02*
X55935476Y-55100761D01*
X56078333Y-55148380D01*
X56173571Y-55148380D01*
X56316428Y-55100761D01*
X56411666Y-55005523D01*
X56459285Y-54910285D01*
X56506904Y-54719809D01*
X56506904Y-54576952D01*
X56459285Y-54386476D01*
X56411666Y-54291238D01*
X56316428Y-54196000D01*
X56173571Y-54148380D01*
X56078333Y-54148380D01*
X55935476Y-54196000D01*
X55887857Y-54243619D01*
X54935476Y-55148380D02*
X55506904Y-55148380D01*
X55221190Y-55148380D02*
X55221190Y-54148380D01*
X55316428Y-54291238D01*
X55411666Y-54386476D01*
X55506904Y-54434095D01*
X54364047Y-54576952D02*
X54459285Y-54529333D01*
X54506904Y-54481714D01*
X54554523Y-54386476D01*
X54554523Y-54338857D01*
X54506904Y-54243619D01*
X54459285Y-54196000D01*
X54364047Y-54148380D01*
X54173571Y-54148380D01*
X54078333Y-54196000D01*
X54030714Y-54243619D01*
X53983095Y-54338857D01*
X53983095Y-54386476D01*
X54030714Y-54481714D01*
X54078333Y-54529333D01*
X54173571Y-54576952D01*
X54364047Y-54576952D01*
X54459285Y-54624571D01*
X54506904Y-54672190D01*
X54554523Y-54767428D01*
X54554523Y-54957904D01*
X54506904Y-55053142D01*
X54459285Y-55100761D01*
X54364047Y-55148380D01*
X54173571Y-55148380D01*
X54078333Y-55100761D01*
X54030714Y-55053142D01*
X53983095Y-54957904D01*
X53983095Y-54767428D01*
X54030714Y-54672190D01*
X54078333Y-54624571D01*
X54173571Y-54576952D01*
%TO.C,R32*%
X102750857Y-58831380D02*
X103084190Y-58355190D01*
X103322285Y-58831380D02*
X103322285Y-57831380D01*
X102941333Y-57831380D01*
X102846095Y-57879000D01*
X102798476Y-57926619D01*
X102750857Y-58021857D01*
X102750857Y-58164714D01*
X102798476Y-58259952D01*
X102846095Y-58307571D01*
X102941333Y-58355190D01*
X103322285Y-58355190D01*
X102417523Y-57831380D02*
X101798476Y-57831380D01*
X102131809Y-58212333D01*
X101988952Y-58212333D01*
X101893714Y-58259952D01*
X101846095Y-58307571D01*
X101798476Y-58402809D01*
X101798476Y-58640904D01*
X101846095Y-58736142D01*
X101893714Y-58783761D01*
X101988952Y-58831380D01*
X102274666Y-58831380D01*
X102369904Y-58783761D01*
X102417523Y-58736142D01*
X101417523Y-57926619D02*
X101369904Y-57879000D01*
X101274666Y-57831380D01*
X101036571Y-57831380D01*
X100941333Y-57879000D01*
X100893714Y-57926619D01*
X100846095Y-58021857D01*
X100846095Y-58117095D01*
X100893714Y-58259952D01*
X101465142Y-58831380D01*
X100846095Y-58831380D01*
%TO.C,U9*%
X119340380Y-65745095D02*
X120149904Y-65745095D01*
X120245142Y-65792714D01*
X120292761Y-65840333D01*
X120340380Y-65935571D01*
X120340380Y-66126047D01*
X120292761Y-66221285D01*
X120245142Y-66268904D01*
X120149904Y-66316523D01*
X119340380Y-66316523D01*
X120340380Y-66840333D02*
X120340380Y-67030809D01*
X120292761Y-67126047D01*
X120245142Y-67173666D01*
X120102285Y-67268904D01*
X119911809Y-67316523D01*
X119530857Y-67316523D01*
X119435619Y-67268904D01*
X119388000Y-67221285D01*
X119340380Y-67126047D01*
X119340380Y-66935571D01*
X119388000Y-66840333D01*
X119435619Y-66792714D01*
X119530857Y-66745095D01*
X119768952Y-66745095D01*
X119864190Y-66792714D01*
X119911809Y-66840333D01*
X119959428Y-66935571D01*
X119959428Y-67126047D01*
X119911809Y-67221285D01*
X119864190Y-67268904D01*
X119768952Y-67316523D01*
%TO.C,U8*%
X106386380Y-62697095D02*
X107195904Y-62697095D01*
X107291142Y-62744714D01*
X107338761Y-62792333D01*
X107386380Y-62887571D01*
X107386380Y-63078047D01*
X107338761Y-63173285D01*
X107291142Y-63220904D01*
X107195904Y-63268523D01*
X106386380Y-63268523D01*
X106814952Y-63887571D02*
X106767333Y-63792333D01*
X106719714Y-63744714D01*
X106624476Y-63697095D01*
X106576857Y-63697095D01*
X106481619Y-63744714D01*
X106434000Y-63792333D01*
X106386380Y-63887571D01*
X106386380Y-64078047D01*
X106434000Y-64173285D01*
X106481619Y-64220904D01*
X106576857Y-64268523D01*
X106624476Y-64268523D01*
X106719714Y-64220904D01*
X106767333Y-64173285D01*
X106814952Y-64078047D01*
X106814952Y-63887571D01*
X106862571Y-63792333D01*
X106910190Y-63744714D01*
X107005428Y-63697095D01*
X107195904Y-63697095D01*
X107291142Y-63744714D01*
X107338761Y-63792333D01*
X107386380Y-63887571D01*
X107386380Y-64078047D01*
X107338761Y-64173285D01*
X107291142Y-64220904D01*
X107195904Y-64268523D01*
X107005428Y-64268523D01*
X106910190Y-64220904D01*
X106862571Y-64173285D01*
X106814952Y-64078047D01*
%TO.C,R33*%
X102623857Y-74071380D02*
X102957190Y-73595190D01*
X103195285Y-74071380D02*
X103195285Y-73071380D01*
X102814333Y-73071380D01*
X102719095Y-73119000D01*
X102671476Y-73166619D01*
X102623857Y-73261857D01*
X102623857Y-73404714D01*
X102671476Y-73499952D01*
X102719095Y-73547571D01*
X102814333Y-73595190D01*
X103195285Y-73595190D01*
X102290523Y-73071380D02*
X101671476Y-73071380D01*
X102004809Y-73452333D01*
X101861952Y-73452333D01*
X101766714Y-73499952D01*
X101719095Y-73547571D01*
X101671476Y-73642809D01*
X101671476Y-73880904D01*
X101719095Y-73976142D01*
X101766714Y-74023761D01*
X101861952Y-74071380D01*
X102147666Y-74071380D01*
X102242904Y-74023761D01*
X102290523Y-73976142D01*
X101338142Y-73071380D02*
X100719095Y-73071380D01*
X101052428Y-73452333D01*
X100909571Y-73452333D01*
X100814333Y-73499952D01*
X100766714Y-73547571D01*
X100719095Y-73642809D01*
X100719095Y-73880904D01*
X100766714Y-73976142D01*
X100814333Y-74023761D01*
X100909571Y-74071380D01*
X101195285Y-74071380D01*
X101290523Y-74023761D01*
X101338142Y-73976142D01*
%TO.C,R1*%
X63063380Y-52497333D02*
X62587190Y-52164000D01*
X63063380Y-51925904D02*
X62063380Y-51925904D01*
X62063380Y-52306857D01*
X62111000Y-52402095D01*
X62158619Y-52449714D01*
X62253857Y-52497333D01*
X62396714Y-52497333D01*
X62491952Y-52449714D01*
X62539571Y-52402095D01*
X62587190Y-52306857D01*
X62587190Y-51925904D01*
X63063380Y-53449714D02*
X63063380Y-52878285D01*
X63063380Y-53164000D02*
X62063380Y-53164000D01*
X62206238Y-53068761D01*
X62301476Y-52973523D01*
X62349095Y-52878285D01*
%TO.C,R5*%
X100147380Y-44242333D02*
X99671190Y-43909000D01*
X100147380Y-43670904D02*
X99147380Y-43670904D01*
X99147380Y-44051857D01*
X99195000Y-44147095D01*
X99242619Y-44194714D01*
X99337857Y-44242333D01*
X99480714Y-44242333D01*
X99575952Y-44194714D01*
X99623571Y-44147095D01*
X99671190Y-44051857D01*
X99671190Y-43670904D01*
X99147380Y-45147095D02*
X99147380Y-44670904D01*
X99623571Y-44623285D01*
X99575952Y-44670904D01*
X99528333Y-44766142D01*
X99528333Y-45004238D01*
X99575952Y-45099476D01*
X99623571Y-45147095D01*
X99718809Y-45194714D01*
X99956904Y-45194714D01*
X100052142Y-45147095D01*
X100099761Y-45099476D01*
X100147380Y-45004238D01*
X100147380Y-44766142D01*
X100099761Y-44670904D01*
X100052142Y-44623285D01*
%TO.C,R18*%
X102862380Y-138949142D02*
X102386190Y-138615809D01*
X102862380Y-138377714D02*
X101862380Y-138377714D01*
X101862380Y-138758666D01*
X101910000Y-138853904D01*
X101957619Y-138901523D01*
X102052857Y-138949142D01*
X102195714Y-138949142D01*
X102290952Y-138901523D01*
X102338571Y-138853904D01*
X102386190Y-138758666D01*
X102386190Y-138377714D01*
X102862380Y-139901523D02*
X102862380Y-139330095D01*
X102862380Y-139615809D02*
X101862380Y-139615809D01*
X102005238Y-139520571D01*
X102100476Y-139425333D01*
X102148095Y-139330095D01*
X102290952Y-140472952D02*
X102243333Y-140377714D01*
X102195714Y-140330095D01*
X102100476Y-140282476D01*
X102052857Y-140282476D01*
X101957619Y-140330095D01*
X101910000Y-140377714D01*
X101862380Y-140472952D01*
X101862380Y-140663428D01*
X101910000Y-140758666D01*
X101957619Y-140806285D01*
X102052857Y-140853904D01*
X102100476Y-140853904D01*
X102195714Y-140806285D01*
X102243333Y-140758666D01*
X102290952Y-140663428D01*
X102290952Y-140472952D01*
X102338571Y-140377714D01*
X102386190Y-140330095D01*
X102481428Y-140282476D01*
X102671904Y-140282476D01*
X102767142Y-140330095D01*
X102814761Y-140377714D01*
X102862380Y-140472952D01*
X102862380Y-140663428D01*
X102814761Y-140758666D01*
X102767142Y-140806285D01*
X102671904Y-140853904D01*
X102481428Y-140853904D01*
X102386190Y-140806285D01*
X102338571Y-140758666D01*
X102290952Y-140663428D01*
%TO.C,R19*%
X100528380Y-139016142D02*
X100052190Y-138682809D01*
X100528380Y-138444714D02*
X99528380Y-138444714D01*
X99528380Y-138825666D01*
X99576000Y-138920904D01*
X99623619Y-138968523D01*
X99718857Y-139016142D01*
X99861714Y-139016142D01*
X99956952Y-138968523D01*
X100004571Y-138920904D01*
X100052190Y-138825666D01*
X100052190Y-138444714D01*
X100528380Y-139968523D02*
X100528380Y-139397095D01*
X100528380Y-139682809D02*
X99528380Y-139682809D01*
X99671238Y-139587571D01*
X99766476Y-139492333D01*
X99814095Y-139397095D01*
X100528380Y-140444714D02*
X100528380Y-140635190D01*
X100480761Y-140730428D01*
X100433142Y-140778047D01*
X100290285Y-140873285D01*
X100099809Y-140920904D01*
X99718857Y-140920904D01*
X99623619Y-140873285D01*
X99576000Y-140825666D01*
X99528380Y-140730428D01*
X99528380Y-140539952D01*
X99576000Y-140444714D01*
X99623619Y-140397095D01*
X99718857Y-140349476D01*
X99956952Y-140349476D01*
X100052190Y-140397095D01*
X100099809Y-140444714D01*
X100147428Y-140539952D01*
X100147428Y-140730428D01*
X100099809Y-140825666D01*
X100052190Y-140873285D01*
X99956952Y-140920904D01*
%TO.C,R20*%
X95575380Y-137619142D02*
X95099190Y-137285809D01*
X95575380Y-137047714D02*
X94575380Y-137047714D01*
X94575380Y-137428666D01*
X94623000Y-137523904D01*
X94670619Y-137571523D01*
X94765857Y-137619142D01*
X94908714Y-137619142D01*
X95003952Y-137571523D01*
X95051571Y-137523904D01*
X95099190Y-137428666D01*
X95099190Y-137047714D01*
X94670619Y-138000095D02*
X94623000Y-138047714D01*
X94575380Y-138142952D01*
X94575380Y-138381047D01*
X94623000Y-138476285D01*
X94670619Y-138523904D01*
X94765857Y-138571523D01*
X94861095Y-138571523D01*
X95003952Y-138523904D01*
X95575380Y-137952476D01*
X95575380Y-138571523D01*
X94575380Y-139190571D02*
X94575380Y-139285809D01*
X94623000Y-139381047D01*
X94670619Y-139428666D01*
X94765857Y-139476285D01*
X94956333Y-139523904D01*
X95194428Y-139523904D01*
X95384904Y-139476285D01*
X95480142Y-139428666D01*
X95527761Y-139381047D01*
X95575380Y-139285809D01*
X95575380Y-139190571D01*
X95527761Y-139095333D01*
X95480142Y-139047714D01*
X95384904Y-139000095D01*
X95194428Y-138952476D01*
X94956333Y-138952476D01*
X94765857Y-139000095D01*
X94670619Y-139047714D01*
X94623000Y-139095333D01*
X94575380Y-139190571D01*
%TO.C,R21*%
X100210857Y-134015380D02*
X100544190Y-133539190D01*
X100782285Y-134015380D02*
X100782285Y-133015380D01*
X100401333Y-133015380D01*
X100306095Y-133063000D01*
X100258476Y-133110619D01*
X100210857Y-133205857D01*
X100210857Y-133348714D01*
X100258476Y-133443952D01*
X100306095Y-133491571D01*
X100401333Y-133539190D01*
X100782285Y-133539190D01*
X99829904Y-133110619D02*
X99782285Y-133063000D01*
X99687047Y-133015380D01*
X99448952Y-133015380D01*
X99353714Y-133063000D01*
X99306095Y-133110619D01*
X99258476Y-133205857D01*
X99258476Y-133301095D01*
X99306095Y-133443952D01*
X99877523Y-134015380D01*
X99258476Y-134015380D01*
X98306095Y-134015380D02*
X98877523Y-134015380D01*
X98591809Y-134015380D02*
X98591809Y-133015380D01*
X98687047Y-133158238D01*
X98782285Y-133253476D01*
X98877523Y-133301095D01*
%TO.C,R22*%
X132818857Y-74593420D02*
X133152190Y-74117230D01*
X133390285Y-74593420D02*
X133390285Y-73593420D01*
X133009333Y-73593420D01*
X132914095Y-73641040D01*
X132866476Y-73688659D01*
X132818857Y-73783897D01*
X132818857Y-73926754D01*
X132866476Y-74021992D01*
X132914095Y-74069611D01*
X133009333Y-74117230D01*
X133390285Y-74117230D01*
X132437904Y-73688659D02*
X132390285Y-73641040D01*
X132295047Y-73593420D01*
X132056952Y-73593420D01*
X131961714Y-73641040D01*
X131914095Y-73688659D01*
X131866476Y-73783897D01*
X131866476Y-73879135D01*
X131914095Y-74021992D01*
X132485523Y-74593420D01*
X131866476Y-74593420D01*
X131485523Y-73688659D02*
X131437904Y-73641040D01*
X131342666Y-73593420D01*
X131104571Y-73593420D01*
X131009333Y-73641040D01*
X130961714Y-73688659D01*
X130914095Y-73783897D01*
X130914095Y-73879135D01*
X130961714Y-74021992D01*
X131533142Y-74593420D01*
X130914095Y-74593420D01*
%TO.C,R30*%
X133898380Y-68672182D02*
X133422190Y-68338849D01*
X133898380Y-68100754D02*
X132898380Y-68100754D01*
X132898380Y-68481706D01*
X132946000Y-68576944D01*
X132993619Y-68624563D01*
X133088857Y-68672182D01*
X133231714Y-68672182D01*
X133326952Y-68624563D01*
X133374571Y-68576944D01*
X133422190Y-68481706D01*
X133422190Y-68100754D01*
X132898380Y-69005516D02*
X132898380Y-69624563D01*
X133279333Y-69291230D01*
X133279333Y-69434087D01*
X133326952Y-69529325D01*
X133374571Y-69576944D01*
X133469809Y-69624563D01*
X133707904Y-69624563D01*
X133803142Y-69576944D01*
X133850761Y-69529325D01*
X133898380Y-69434087D01*
X133898380Y-69148373D01*
X133850761Y-69053135D01*
X133803142Y-69005516D01*
X132898380Y-70243611D02*
X132898380Y-70338849D01*
X132946000Y-70434087D01*
X132993619Y-70481706D01*
X133088857Y-70529325D01*
X133279333Y-70576944D01*
X133517428Y-70576944D01*
X133707904Y-70529325D01*
X133803142Y-70481706D01*
X133850761Y-70434087D01*
X133898380Y-70338849D01*
X133898380Y-70243611D01*
X133850761Y-70148373D01*
X133803142Y-70100754D01*
X133707904Y-70053135D01*
X133517428Y-70005516D01*
X133279333Y-70005516D01*
X133088857Y-70053135D01*
X132993619Y-70100754D01*
X132946000Y-70148373D01*
X132898380Y-70243611D01*
%TO.C,R31*%
X122499380Y-68658142D02*
X122023190Y-68324809D01*
X122499380Y-68086714D02*
X121499380Y-68086714D01*
X121499380Y-68467666D01*
X121547000Y-68562904D01*
X121594619Y-68610523D01*
X121689857Y-68658142D01*
X121832714Y-68658142D01*
X121927952Y-68610523D01*
X121975571Y-68562904D01*
X122023190Y-68467666D01*
X122023190Y-68086714D01*
X121499380Y-68991476D02*
X121499380Y-69610523D01*
X121880333Y-69277190D01*
X121880333Y-69420047D01*
X121927952Y-69515285D01*
X121975571Y-69562904D01*
X122070809Y-69610523D01*
X122308904Y-69610523D01*
X122404142Y-69562904D01*
X122451761Y-69515285D01*
X122499380Y-69420047D01*
X122499380Y-69134333D01*
X122451761Y-69039095D01*
X122404142Y-68991476D01*
X122499380Y-70562904D02*
X122499380Y-69991476D01*
X122499380Y-70277190D02*
X121499380Y-70277190D01*
X121642238Y-70181952D01*
X121737476Y-70086714D01*
X121785095Y-69991476D01*
%TO.C,R35*%
X115831857Y-74071380D02*
X116165190Y-73595190D01*
X116403285Y-74071380D02*
X116403285Y-73071380D01*
X116022333Y-73071380D01*
X115927095Y-73119000D01*
X115879476Y-73166619D01*
X115831857Y-73261857D01*
X115831857Y-73404714D01*
X115879476Y-73499952D01*
X115927095Y-73547571D01*
X116022333Y-73595190D01*
X116403285Y-73595190D01*
X115498523Y-73071380D02*
X114879476Y-73071380D01*
X115212809Y-73452333D01*
X115069952Y-73452333D01*
X114974714Y-73499952D01*
X114927095Y-73547571D01*
X114879476Y-73642809D01*
X114879476Y-73880904D01*
X114927095Y-73976142D01*
X114974714Y-74023761D01*
X115069952Y-74071380D01*
X115355666Y-74071380D01*
X115450904Y-74023761D01*
X115498523Y-73976142D01*
X113974714Y-73071380D02*
X114450904Y-73071380D01*
X114498523Y-73547571D01*
X114450904Y-73499952D01*
X114355666Y-73452333D01*
X114117571Y-73452333D01*
X114022333Y-73499952D01*
X113974714Y-73547571D01*
X113927095Y-73642809D01*
X113927095Y-73880904D01*
X113974714Y-73976142D01*
X114022333Y-74023761D01*
X114117571Y-74071380D01*
X114355666Y-74071380D01*
X114450904Y-74023761D01*
X114498523Y-73976142D01*
%TO.C,R38*%
X109100857Y-74071380D02*
X109434190Y-73595190D01*
X109672285Y-74071380D02*
X109672285Y-73071380D01*
X109291333Y-73071380D01*
X109196095Y-73119000D01*
X109148476Y-73166619D01*
X109100857Y-73261857D01*
X109100857Y-73404714D01*
X109148476Y-73499952D01*
X109196095Y-73547571D01*
X109291333Y-73595190D01*
X109672285Y-73595190D01*
X108767523Y-73071380D02*
X108148476Y-73071380D01*
X108481809Y-73452333D01*
X108338952Y-73452333D01*
X108243714Y-73499952D01*
X108196095Y-73547571D01*
X108148476Y-73642809D01*
X108148476Y-73880904D01*
X108196095Y-73976142D01*
X108243714Y-74023761D01*
X108338952Y-74071380D01*
X108624666Y-74071380D01*
X108719904Y-74023761D01*
X108767523Y-73976142D01*
X107577047Y-73499952D02*
X107672285Y-73452333D01*
X107719904Y-73404714D01*
X107767523Y-73309476D01*
X107767523Y-73261857D01*
X107719904Y-73166619D01*
X107672285Y-73119000D01*
X107577047Y-73071380D01*
X107386571Y-73071380D01*
X107291333Y-73119000D01*
X107243714Y-73166619D01*
X107196095Y-73261857D01*
X107196095Y-73309476D01*
X107243714Y-73404714D01*
X107291333Y-73452333D01*
X107386571Y-73499952D01*
X107577047Y-73499952D01*
X107672285Y-73547571D01*
X107719904Y-73595190D01*
X107767523Y-73690428D01*
X107767523Y-73880904D01*
X107719904Y-73976142D01*
X107672285Y-74023761D01*
X107577047Y-74071380D01*
X107386571Y-74071380D01*
X107291333Y-74023761D01*
X107243714Y-73976142D01*
X107196095Y-73880904D01*
X107196095Y-73690428D01*
X107243714Y-73595190D01*
X107291333Y-73547571D01*
X107386571Y-73499952D01*
%TO.C,R39*%
X105798857Y-74071380D02*
X106132190Y-73595190D01*
X106370285Y-74071380D02*
X106370285Y-73071380D01*
X105989333Y-73071380D01*
X105894095Y-73119000D01*
X105846476Y-73166619D01*
X105798857Y-73261857D01*
X105798857Y-73404714D01*
X105846476Y-73499952D01*
X105894095Y-73547571D01*
X105989333Y-73595190D01*
X106370285Y-73595190D01*
X105465523Y-73071380D02*
X104846476Y-73071380D01*
X105179809Y-73452333D01*
X105036952Y-73452333D01*
X104941714Y-73499952D01*
X104894095Y-73547571D01*
X104846476Y-73642809D01*
X104846476Y-73880904D01*
X104894095Y-73976142D01*
X104941714Y-74023761D01*
X105036952Y-74071380D01*
X105322666Y-74071380D01*
X105417904Y-74023761D01*
X105465523Y-73976142D01*
X104370285Y-74071380D02*
X104179809Y-74071380D01*
X104084571Y-74023761D01*
X104036952Y-73976142D01*
X103941714Y-73833285D01*
X103894095Y-73642809D01*
X103894095Y-73261857D01*
X103941714Y-73166619D01*
X103989333Y-73119000D01*
X104084571Y-73071380D01*
X104275047Y-73071380D01*
X104370285Y-73119000D01*
X104417904Y-73166619D01*
X104465523Y-73261857D01*
X104465523Y-73499952D01*
X104417904Y-73595190D01*
X104370285Y-73642809D01*
X104275047Y-73690428D01*
X104084571Y-73690428D01*
X103989333Y-73642809D01*
X103941714Y-73595190D01*
X103894095Y-73499952D01*
%TO.C,R42*%
X112402857Y-74071380D02*
X112736190Y-73595190D01*
X112974285Y-74071380D02*
X112974285Y-73071380D01*
X112593333Y-73071380D01*
X112498095Y-73119000D01*
X112450476Y-73166619D01*
X112402857Y-73261857D01*
X112402857Y-73404714D01*
X112450476Y-73499952D01*
X112498095Y-73547571D01*
X112593333Y-73595190D01*
X112974285Y-73595190D01*
X111545714Y-73404714D02*
X111545714Y-74071380D01*
X111783809Y-73023761D02*
X112021904Y-73738047D01*
X111402857Y-73738047D01*
X111069523Y-73166619D02*
X111021904Y-73119000D01*
X110926666Y-73071380D01*
X110688571Y-73071380D01*
X110593333Y-73119000D01*
X110545714Y-73166619D01*
X110498095Y-73261857D01*
X110498095Y-73357095D01*
X110545714Y-73499952D01*
X111117142Y-74071380D01*
X110498095Y-74071380D01*
%TO.C,R44*%
X96908857Y-77500380D02*
X97242190Y-77024190D01*
X97480285Y-77500380D02*
X97480285Y-76500380D01*
X97099333Y-76500380D01*
X97004095Y-76548000D01*
X96956476Y-76595619D01*
X96908857Y-76690857D01*
X96908857Y-76833714D01*
X96956476Y-76928952D01*
X97004095Y-76976571D01*
X97099333Y-77024190D01*
X97480285Y-77024190D01*
X96051714Y-76833714D02*
X96051714Y-77500380D01*
X96289809Y-76452761D02*
X96527904Y-77167047D01*
X95908857Y-77167047D01*
X95099333Y-76833714D02*
X95099333Y-77500380D01*
X95337428Y-76452761D02*
X95575523Y-77167047D01*
X94956476Y-77167047D01*
%TO.C,R45*%
X87256857Y-75849380D02*
X87590190Y-75373190D01*
X87828285Y-75849380D02*
X87828285Y-74849380D01*
X87447333Y-74849380D01*
X87352095Y-74897000D01*
X87304476Y-74944619D01*
X87256857Y-75039857D01*
X87256857Y-75182714D01*
X87304476Y-75277952D01*
X87352095Y-75325571D01*
X87447333Y-75373190D01*
X87828285Y-75373190D01*
X86399714Y-75182714D02*
X86399714Y-75849380D01*
X86637809Y-74801761D02*
X86875904Y-75516047D01*
X86256857Y-75516047D01*
X85399714Y-74849380D02*
X85875904Y-74849380D01*
X85923523Y-75325571D01*
X85875904Y-75277952D01*
X85780666Y-75230333D01*
X85542571Y-75230333D01*
X85447333Y-75277952D01*
X85399714Y-75325571D01*
X85352095Y-75420809D01*
X85352095Y-75658904D01*
X85399714Y-75754142D01*
X85447333Y-75801761D01*
X85542571Y-75849380D01*
X85780666Y-75849380D01*
X85875904Y-75801761D01*
X85923523Y-75754142D01*
%TO.C,R48*%
X73159857Y-75849380D02*
X73493190Y-75373190D01*
X73731285Y-75849380D02*
X73731285Y-74849380D01*
X73350333Y-74849380D01*
X73255095Y-74897000D01*
X73207476Y-74944619D01*
X73159857Y-75039857D01*
X73159857Y-75182714D01*
X73207476Y-75277952D01*
X73255095Y-75325571D01*
X73350333Y-75373190D01*
X73731285Y-75373190D01*
X72302714Y-75182714D02*
X72302714Y-75849380D01*
X72540809Y-74801761D02*
X72778904Y-75516047D01*
X72159857Y-75516047D01*
X71636047Y-75277952D02*
X71731285Y-75230333D01*
X71778904Y-75182714D01*
X71826523Y-75087476D01*
X71826523Y-75039857D01*
X71778904Y-74944619D01*
X71731285Y-74897000D01*
X71636047Y-74849380D01*
X71445571Y-74849380D01*
X71350333Y-74897000D01*
X71302714Y-74944619D01*
X71255095Y-75039857D01*
X71255095Y-75087476D01*
X71302714Y-75182714D01*
X71350333Y-75230333D01*
X71445571Y-75277952D01*
X71636047Y-75277952D01*
X71731285Y-75325571D01*
X71778904Y-75373190D01*
X71826523Y-75468428D01*
X71826523Y-75658904D01*
X71778904Y-75754142D01*
X71731285Y-75801761D01*
X71636047Y-75849380D01*
X71445571Y-75849380D01*
X71350333Y-75801761D01*
X71302714Y-75754142D01*
X71255095Y-75658904D01*
X71255095Y-75468428D01*
X71302714Y-75373190D01*
X71350333Y-75325571D01*
X71445571Y-75277952D01*
%TO.C,R49*%
X83065857Y-75849380D02*
X83399190Y-75373190D01*
X83637285Y-75849380D02*
X83637285Y-74849380D01*
X83256333Y-74849380D01*
X83161095Y-74897000D01*
X83113476Y-74944619D01*
X83065857Y-75039857D01*
X83065857Y-75182714D01*
X83113476Y-75277952D01*
X83161095Y-75325571D01*
X83256333Y-75373190D01*
X83637285Y-75373190D01*
X82208714Y-75182714D02*
X82208714Y-75849380D01*
X82446809Y-74801761D02*
X82684904Y-75516047D01*
X82065857Y-75516047D01*
X81637285Y-75849380D02*
X81446809Y-75849380D01*
X81351571Y-75801761D01*
X81303952Y-75754142D01*
X81208714Y-75611285D01*
X81161095Y-75420809D01*
X81161095Y-75039857D01*
X81208714Y-74944619D01*
X81256333Y-74897000D01*
X81351571Y-74849380D01*
X81542047Y-74849380D01*
X81637285Y-74897000D01*
X81684904Y-74944619D01*
X81732523Y-75039857D01*
X81732523Y-75277952D01*
X81684904Y-75373190D01*
X81637285Y-75420809D01*
X81542047Y-75468428D01*
X81351571Y-75468428D01*
X81256333Y-75420809D01*
X81208714Y-75373190D01*
X81161095Y-75277952D01*
%TO.C,R51*%
X78493857Y-75849380D02*
X78827190Y-75373190D01*
X79065285Y-75849380D02*
X79065285Y-74849380D01*
X78684333Y-74849380D01*
X78589095Y-74897000D01*
X78541476Y-74944619D01*
X78493857Y-75039857D01*
X78493857Y-75182714D01*
X78541476Y-75277952D01*
X78589095Y-75325571D01*
X78684333Y-75373190D01*
X79065285Y-75373190D01*
X77589095Y-74849380D02*
X78065285Y-74849380D01*
X78112904Y-75325571D01*
X78065285Y-75277952D01*
X77970047Y-75230333D01*
X77731952Y-75230333D01*
X77636714Y-75277952D01*
X77589095Y-75325571D01*
X77541476Y-75420809D01*
X77541476Y-75658904D01*
X77589095Y-75754142D01*
X77636714Y-75801761D01*
X77731952Y-75849380D01*
X77970047Y-75849380D01*
X78065285Y-75801761D01*
X78112904Y-75754142D01*
X76589095Y-75849380D02*
X77160523Y-75849380D01*
X76874809Y-75849380D02*
X76874809Y-74849380D01*
X76970047Y-74992238D01*
X77065285Y-75087476D01*
X77160523Y-75135095D01*
%TO.C,R41*%
X119705380Y-59260142D02*
X119229190Y-58926809D01*
X119705380Y-58688714D02*
X118705380Y-58688714D01*
X118705380Y-59069666D01*
X118753000Y-59164904D01*
X118800619Y-59212523D01*
X118895857Y-59260142D01*
X119038714Y-59260142D01*
X119133952Y-59212523D01*
X119181571Y-59164904D01*
X119229190Y-59069666D01*
X119229190Y-58688714D01*
X119038714Y-60117285D02*
X119705380Y-60117285D01*
X118657761Y-59879190D02*
X119372047Y-59641095D01*
X119372047Y-60260142D01*
X119705380Y-61164904D02*
X119705380Y-60593476D01*
X119705380Y-60879190D02*
X118705380Y-60879190D01*
X118848238Y-60783952D01*
X118943476Y-60688714D01*
X118991095Y-60593476D01*
%TO.C,R43*%
X119133857Y-74071380D02*
X119467190Y-73595190D01*
X119705285Y-74071380D02*
X119705285Y-73071380D01*
X119324333Y-73071380D01*
X119229095Y-73119000D01*
X119181476Y-73166619D01*
X119133857Y-73261857D01*
X119133857Y-73404714D01*
X119181476Y-73499952D01*
X119229095Y-73547571D01*
X119324333Y-73595190D01*
X119705285Y-73595190D01*
X118276714Y-73404714D02*
X118276714Y-74071380D01*
X118514809Y-73023761D02*
X118752904Y-73738047D01*
X118133857Y-73738047D01*
X117848142Y-73071380D02*
X117229095Y-73071380D01*
X117562428Y-73452333D01*
X117419571Y-73452333D01*
X117324333Y-73499952D01*
X117276714Y-73547571D01*
X117229095Y-73642809D01*
X117229095Y-73880904D01*
X117276714Y-73976142D01*
X117324333Y-74023761D01*
X117419571Y-74071380D01*
X117705285Y-74071380D01*
X117800523Y-74023761D01*
X117848142Y-73976142D01*
%TO.C,R3*%
X139358666Y-40035380D02*
X139692000Y-39559190D01*
X139930095Y-40035380D02*
X139930095Y-39035380D01*
X139549142Y-39035380D01*
X139453904Y-39083000D01*
X139406285Y-39130619D01*
X139358666Y-39225857D01*
X139358666Y-39368714D01*
X139406285Y-39463952D01*
X139453904Y-39511571D01*
X139549142Y-39559190D01*
X139930095Y-39559190D01*
X139025333Y-39035380D02*
X138406285Y-39035380D01*
X138739619Y-39416333D01*
X138596761Y-39416333D01*
X138501523Y-39463952D01*
X138453904Y-39511571D01*
X138406285Y-39606809D01*
X138406285Y-39844904D01*
X138453904Y-39940142D01*
X138501523Y-39987761D01*
X138596761Y-40035380D01*
X138882476Y-40035380D01*
X138977714Y-39987761D01*
X139025333Y-39940142D01*
%TO.C,R4*%
X144311666Y-55275380D02*
X144645000Y-54799190D01*
X144883095Y-55275380D02*
X144883095Y-54275380D01*
X144502142Y-54275380D01*
X144406904Y-54323000D01*
X144359285Y-54370619D01*
X144311666Y-54465857D01*
X144311666Y-54608714D01*
X144359285Y-54703952D01*
X144406904Y-54751571D01*
X144502142Y-54799190D01*
X144883095Y-54799190D01*
X143454523Y-54608714D02*
X143454523Y-55275380D01*
X143692619Y-54227761D02*
X143930714Y-54942047D01*
X143311666Y-54942047D01*
%TO.C,R6*%
X120086380Y-56688333D02*
X119610190Y-56355000D01*
X120086380Y-56116904D02*
X119086380Y-56116904D01*
X119086380Y-56497857D01*
X119134000Y-56593095D01*
X119181619Y-56640714D01*
X119276857Y-56688333D01*
X119419714Y-56688333D01*
X119514952Y-56640714D01*
X119562571Y-56593095D01*
X119610190Y-56497857D01*
X119610190Y-56116904D01*
X119086380Y-57545476D02*
X119086380Y-57355000D01*
X119134000Y-57259761D01*
X119181619Y-57212142D01*
X119324476Y-57116904D01*
X119514952Y-57069285D01*
X119895904Y-57069285D01*
X119991142Y-57116904D01*
X120038761Y-57164523D01*
X120086380Y-57259761D01*
X120086380Y-57450238D01*
X120038761Y-57545476D01*
X119991142Y-57593095D01*
X119895904Y-57640714D01*
X119657809Y-57640714D01*
X119562571Y-57593095D01*
X119514952Y-57545476D01*
X119467333Y-57450238D01*
X119467333Y-57259761D01*
X119514952Y-57164523D01*
X119562571Y-57116904D01*
X119657809Y-57069285D01*
%TO.C,R8*%
X142279666Y-55275380D02*
X142613000Y-54799190D01*
X142851095Y-55275380D02*
X142851095Y-54275380D01*
X142470142Y-54275380D01*
X142374904Y-54323000D01*
X142327285Y-54370619D01*
X142279666Y-54465857D01*
X142279666Y-54608714D01*
X142327285Y-54703952D01*
X142374904Y-54751571D01*
X142470142Y-54799190D01*
X142851095Y-54799190D01*
X141708238Y-54703952D02*
X141803476Y-54656333D01*
X141851095Y-54608714D01*
X141898714Y-54513476D01*
X141898714Y-54465857D01*
X141851095Y-54370619D01*
X141803476Y-54323000D01*
X141708238Y-54275380D01*
X141517761Y-54275380D01*
X141422523Y-54323000D01*
X141374904Y-54370619D01*
X141327285Y-54465857D01*
X141327285Y-54513476D01*
X141374904Y-54608714D01*
X141422523Y-54656333D01*
X141517761Y-54703952D01*
X141708238Y-54703952D01*
X141803476Y-54751571D01*
X141851095Y-54799190D01*
X141898714Y-54894428D01*
X141898714Y-55084904D01*
X141851095Y-55180142D01*
X141803476Y-55227761D01*
X141708238Y-55275380D01*
X141517761Y-55275380D01*
X141422523Y-55227761D01*
X141374904Y-55180142D01*
X141327285Y-55084904D01*
X141327285Y-54894428D01*
X141374904Y-54799190D01*
X141422523Y-54751571D01*
X141517761Y-54703952D01*
%TO.C,R34*%
X113990380Y-60022142D02*
X113514190Y-59688809D01*
X113990380Y-59450714D02*
X112990380Y-59450714D01*
X112990380Y-59831666D01*
X113038000Y-59926904D01*
X113085619Y-59974523D01*
X113180857Y-60022142D01*
X113323714Y-60022142D01*
X113418952Y-59974523D01*
X113466571Y-59926904D01*
X113514190Y-59831666D01*
X113514190Y-59450714D01*
X112990380Y-60355476D02*
X112990380Y-60974523D01*
X113371333Y-60641190D01*
X113371333Y-60784047D01*
X113418952Y-60879285D01*
X113466571Y-60926904D01*
X113561809Y-60974523D01*
X113799904Y-60974523D01*
X113895142Y-60926904D01*
X113942761Y-60879285D01*
X113990380Y-60784047D01*
X113990380Y-60498333D01*
X113942761Y-60403095D01*
X113895142Y-60355476D01*
X113323714Y-61831666D02*
X113990380Y-61831666D01*
X112942761Y-61593571D02*
X113657047Y-61355476D01*
X113657047Y-61974523D01*
%TO.C,R36*%
X108973857Y-58831380D02*
X109307190Y-58355190D01*
X109545285Y-58831380D02*
X109545285Y-57831380D01*
X109164333Y-57831380D01*
X109069095Y-57879000D01*
X109021476Y-57926619D01*
X108973857Y-58021857D01*
X108973857Y-58164714D01*
X109021476Y-58259952D01*
X109069095Y-58307571D01*
X109164333Y-58355190D01*
X109545285Y-58355190D01*
X108640523Y-57831380D02*
X108021476Y-57831380D01*
X108354809Y-58212333D01*
X108211952Y-58212333D01*
X108116714Y-58259952D01*
X108069095Y-58307571D01*
X108021476Y-58402809D01*
X108021476Y-58640904D01*
X108069095Y-58736142D01*
X108116714Y-58783761D01*
X108211952Y-58831380D01*
X108497666Y-58831380D01*
X108592904Y-58783761D01*
X108640523Y-58736142D01*
X107164333Y-57831380D02*
X107354809Y-57831380D01*
X107450047Y-57879000D01*
X107497666Y-57926619D01*
X107592904Y-58069476D01*
X107640523Y-58259952D01*
X107640523Y-58640904D01*
X107592904Y-58736142D01*
X107545285Y-58783761D01*
X107450047Y-58831380D01*
X107259571Y-58831380D01*
X107164333Y-58783761D01*
X107116714Y-58736142D01*
X107069095Y-58640904D01*
X107069095Y-58402809D01*
X107116714Y-58307571D01*
X107164333Y-58259952D01*
X107259571Y-58212333D01*
X107450047Y-58212333D01*
X107545285Y-58259952D01*
X107592904Y-58307571D01*
X107640523Y-58402809D01*
%TO.C,R37*%
X105798857Y-58831380D02*
X106132190Y-58355190D01*
X106370285Y-58831380D02*
X106370285Y-57831380D01*
X105989333Y-57831380D01*
X105894095Y-57879000D01*
X105846476Y-57926619D01*
X105798857Y-58021857D01*
X105798857Y-58164714D01*
X105846476Y-58259952D01*
X105894095Y-58307571D01*
X105989333Y-58355190D01*
X106370285Y-58355190D01*
X105465523Y-57831380D02*
X104846476Y-57831380D01*
X105179809Y-58212333D01*
X105036952Y-58212333D01*
X104941714Y-58259952D01*
X104894095Y-58307571D01*
X104846476Y-58402809D01*
X104846476Y-58640904D01*
X104894095Y-58736142D01*
X104941714Y-58783761D01*
X105036952Y-58831380D01*
X105322666Y-58831380D01*
X105417904Y-58783761D01*
X105465523Y-58736142D01*
X104513142Y-57831380D02*
X103846476Y-57831380D01*
X104275047Y-58831380D01*
%TO.C,R40*%
X112148857Y-58831380D02*
X112482190Y-58355190D01*
X112720285Y-58831380D02*
X112720285Y-57831380D01*
X112339333Y-57831380D01*
X112244095Y-57879000D01*
X112196476Y-57926619D01*
X112148857Y-58021857D01*
X112148857Y-58164714D01*
X112196476Y-58259952D01*
X112244095Y-58307571D01*
X112339333Y-58355190D01*
X112720285Y-58355190D01*
X111291714Y-58164714D02*
X111291714Y-58831380D01*
X111529809Y-57783761D02*
X111767904Y-58498047D01*
X111148857Y-58498047D01*
X110577428Y-57831380D02*
X110482190Y-57831380D01*
X110386952Y-57879000D01*
X110339333Y-57926619D01*
X110291714Y-58021857D01*
X110244095Y-58212333D01*
X110244095Y-58450428D01*
X110291714Y-58640904D01*
X110339333Y-58736142D01*
X110386952Y-58783761D01*
X110482190Y-58831380D01*
X110577428Y-58831380D01*
X110672666Y-58783761D01*
X110720285Y-58736142D01*
X110767904Y-58640904D01*
X110815523Y-58450428D01*
X110815523Y-58212333D01*
X110767904Y-58021857D01*
X110720285Y-57926619D01*
X110672666Y-57879000D01*
X110577428Y-57831380D01*
%TO.C,R9*%
X100115666Y-53878380D02*
X100449000Y-53402190D01*
X100687095Y-53878380D02*
X100687095Y-52878380D01*
X100306142Y-52878380D01*
X100210904Y-52926000D01*
X100163285Y-52973619D01*
X100115666Y-53068857D01*
X100115666Y-53211714D01*
X100163285Y-53306952D01*
X100210904Y-53354571D01*
X100306142Y-53402190D01*
X100687095Y-53402190D01*
X99639476Y-53878380D02*
X99449000Y-53878380D01*
X99353761Y-53830761D01*
X99306142Y-53783142D01*
X99210904Y-53640285D01*
X99163285Y-53449809D01*
X99163285Y-53068857D01*
X99210904Y-52973619D01*
X99258523Y-52926000D01*
X99353761Y-52878380D01*
X99544238Y-52878380D01*
X99639476Y-52926000D01*
X99687095Y-52973619D01*
X99734714Y-53068857D01*
X99734714Y-53306952D01*
X99687095Y-53402190D01*
X99639476Y-53449809D01*
X99544238Y-53497428D01*
X99353761Y-53497428D01*
X99258523Y-53449809D01*
X99210904Y-53402190D01*
X99163285Y-53306952D01*
%TO.C,R10*%
X93225857Y-77500380D02*
X93559190Y-77024190D01*
X93797285Y-77500380D02*
X93797285Y-76500380D01*
X93416333Y-76500380D01*
X93321095Y-76548000D01*
X93273476Y-76595619D01*
X93225857Y-76690857D01*
X93225857Y-76833714D01*
X93273476Y-76928952D01*
X93321095Y-76976571D01*
X93416333Y-77024190D01*
X93797285Y-77024190D01*
X92273476Y-77500380D02*
X92844904Y-77500380D01*
X92559190Y-77500380D02*
X92559190Y-76500380D01*
X92654428Y-76643238D01*
X92749666Y-76738476D01*
X92844904Y-76786095D01*
X91654428Y-76500380D02*
X91559190Y-76500380D01*
X91463952Y-76548000D01*
X91416333Y-76595619D01*
X91368714Y-76690857D01*
X91321095Y-76881333D01*
X91321095Y-77119428D01*
X91368714Y-77309904D01*
X91416333Y-77405142D01*
X91463952Y-77452761D01*
X91559190Y-77500380D01*
X91654428Y-77500380D01*
X91749666Y-77452761D01*
X91797285Y-77405142D01*
X91844904Y-77309904D01*
X91892523Y-77119428D01*
X91892523Y-76881333D01*
X91844904Y-76690857D01*
X91797285Y-76595619D01*
X91749666Y-76548000D01*
X91654428Y-76500380D01*
%TO.C,R11*%
X96400857Y-62133380D02*
X96734190Y-61657190D01*
X96972285Y-62133380D02*
X96972285Y-61133380D01*
X96591333Y-61133380D01*
X96496095Y-61181000D01*
X96448476Y-61228619D01*
X96400857Y-61323857D01*
X96400857Y-61466714D01*
X96448476Y-61561952D01*
X96496095Y-61609571D01*
X96591333Y-61657190D01*
X96972285Y-61657190D01*
X95448476Y-62133380D02*
X96019904Y-62133380D01*
X95734190Y-62133380D02*
X95734190Y-61133380D01*
X95829428Y-61276238D01*
X95924666Y-61371476D01*
X96019904Y-61419095D01*
X94496095Y-62133380D02*
X95067523Y-62133380D01*
X94781809Y-62133380D02*
X94781809Y-61133380D01*
X94877047Y-61276238D01*
X94972285Y-61371476D01*
X95067523Y-61419095D01*
%TO.C,U2*%
X74215904Y-107302380D02*
X74215904Y-108111904D01*
X74168285Y-108207142D01*
X74120666Y-108254761D01*
X74025428Y-108302380D01*
X73834952Y-108302380D01*
X73739714Y-108254761D01*
X73692095Y-108207142D01*
X73644476Y-108111904D01*
X73644476Y-107302380D01*
X73215904Y-107397619D02*
X73168285Y-107350000D01*
X73073047Y-107302380D01*
X72834952Y-107302380D01*
X72739714Y-107350000D01*
X72692095Y-107397619D01*
X72644476Y-107492857D01*
X72644476Y-107588095D01*
X72692095Y-107730952D01*
X73263523Y-108302380D01*
X72644476Y-108302380D01*
%TO.C,U4*%
X126793904Y-107556380D02*
X126793904Y-108365904D01*
X126746285Y-108461142D01*
X126698666Y-108508761D01*
X126603428Y-108556380D01*
X126412952Y-108556380D01*
X126317714Y-108508761D01*
X126270095Y-108461142D01*
X126222476Y-108365904D01*
X126222476Y-107556380D01*
X125317714Y-107889714D02*
X125317714Y-108556380D01*
X125555809Y-107508761D02*
X125793904Y-108223047D01*
X125174857Y-108223047D01*
%TO.C,T1*%
X82549904Y-54910380D02*
X81978476Y-54910380D01*
X82264190Y-55910380D02*
X82264190Y-54910380D01*
X81121333Y-55910380D02*
X81692761Y-55910380D01*
X81407047Y-55910380D02*
X81407047Y-54910380D01*
X81502285Y-55053238D01*
X81597523Y-55148476D01*
X81692761Y-55196095D01*
%TO.C,U11*%
X69302380Y-72126904D02*
X70111904Y-72126904D01*
X70207142Y-72174523D01*
X70254761Y-72222142D01*
X70302380Y-72317380D01*
X70302380Y-72507857D01*
X70254761Y-72603095D01*
X70207142Y-72650714D01*
X70111904Y-72698333D01*
X69302380Y-72698333D01*
X70302380Y-73698333D02*
X70302380Y-73126904D01*
X70302380Y-73412619D02*
X69302380Y-73412619D01*
X69445238Y-73317380D01*
X69540476Y-73222142D01*
X69588095Y-73126904D01*
X70302380Y-74650714D02*
X70302380Y-74079285D01*
X70302380Y-74365000D02*
X69302380Y-74365000D01*
X69445238Y-74269761D01*
X69540476Y-74174523D01*
X69588095Y-74079285D01*
%TO.C,U10*%
X84034380Y-72126904D02*
X84843904Y-72126904D01*
X84939142Y-72174523D01*
X84986761Y-72222142D01*
X85034380Y-72317380D01*
X85034380Y-72507857D01*
X84986761Y-72603095D01*
X84939142Y-72650714D01*
X84843904Y-72698333D01*
X84034380Y-72698333D01*
X85034380Y-73698333D02*
X85034380Y-73126904D01*
X85034380Y-73412619D02*
X84034380Y-73412619D01*
X84177238Y-73317380D01*
X84272476Y-73222142D01*
X84320095Y-73126904D01*
X84034380Y-74317380D02*
X84034380Y-74412619D01*
X84082000Y-74507857D01*
X84129619Y-74555476D01*
X84224857Y-74603095D01*
X84415333Y-74650714D01*
X84653428Y-74650714D01*
X84843904Y-74603095D01*
X84939142Y-74555476D01*
X84986761Y-74507857D01*
X85034380Y-74412619D01*
X85034380Y-74317380D01*
X84986761Y-74222142D01*
X84939142Y-74174523D01*
X84843904Y-74126904D01*
X84653428Y-74079285D01*
X84415333Y-74079285D01*
X84224857Y-74126904D01*
X84129619Y-74174523D01*
X84082000Y-74222142D01*
X84034380Y-74317380D01*
%TO.C,U13*%
X74890380Y-72126904D02*
X75699904Y-72126904D01*
X75795142Y-72174523D01*
X75842761Y-72222142D01*
X75890380Y-72317380D01*
X75890380Y-72507857D01*
X75842761Y-72603095D01*
X75795142Y-72650714D01*
X75699904Y-72698333D01*
X74890380Y-72698333D01*
X75890380Y-73698333D02*
X75890380Y-73126904D01*
X75890380Y-73412619D02*
X74890380Y-73412619D01*
X75033238Y-73317380D01*
X75128476Y-73222142D01*
X75176095Y-73126904D01*
X74890380Y-74031666D02*
X74890380Y-74650714D01*
X75271333Y-74317380D01*
X75271333Y-74460238D01*
X75318952Y-74555476D01*
X75366571Y-74603095D01*
X75461809Y-74650714D01*
X75699904Y-74650714D01*
X75795142Y-74603095D01*
X75842761Y-74555476D01*
X75890380Y-74460238D01*
X75890380Y-74174523D01*
X75842761Y-74079285D01*
X75795142Y-74031666D01*
%TO.C,U7*%
X99782380Y-64856095D02*
X100591904Y-64856095D01*
X100687142Y-64903714D01*
X100734761Y-64951333D01*
X100782380Y-65046571D01*
X100782380Y-65237047D01*
X100734761Y-65332285D01*
X100687142Y-65379904D01*
X100591904Y-65427523D01*
X99782380Y-65427523D01*
X99782380Y-65808476D02*
X99782380Y-66475142D01*
X100782380Y-66046571D01*
%TO.C,C17*%
X122531142Y-64467142D02*
X122578761Y-64419523D01*
X122626380Y-64276666D01*
X122626380Y-64181428D01*
X122578761Y-64038571D01*
X122483523Y-63943333D01*
X122388285Y-63895714D01*
X122197809Y-63848095D01*
X122054952Y-63848095D01*
X121864476Y-63895714D01*
X121769238Y-63943333D01*
X121674000Y-64038571D01*
X121626380Y-64181428D01*
X121626380Y-64276666D01*
X121674000Y-64419523D01*
X121721619Y-64467142D01*
X122626380Y-65419523D02*
X122626380Y-64848095D01*
X122626380Y-65133809D02*
X121626380Y-65133809D01*
X121769238Y-65038571D01*
X121864476Y-64943333D01*
X121912095Y-64848095D01*
X121626380Y-65752857D02*
X121626380Y-66419523D01*
X122626380Y-65990952D01*
%TO.C,U6*%
X125094904Y-71293380D02*
X125094904Y-72102904D01*
X125047285Y-72198142D01*
X124999666Y-72245761D01*
X124904428Y-72293380D01*
X124713952Y-72293380D01*
X124618714Y-72245761D01*
X124571095Y-72198142D01*
X124523476Y-72102904D01*
X124523476Y-71293380D01*
X123618714Y-71293380D02*
X123809190Y-71293380D01*
X123904428Y-71341000D01*
X123952047Y-71388619D01*
X124047285Y-71531476D01*
X124094904Y-71721952D01*
X124094904Y-72102904D01*
X124047285Y-72198142D01*
X123999666Y-72245761D01*
X123904428Y-72293380D01*
X123713952Y-72293380D01*
X123618714Y-72245761D01*
X123571095Y-72198142D01*
X123523476Y-72102904D01*
X123523476Y-71864809D01*
X123571095Y-71769571D01*
X123618714Y-71721952D01*
X123713952Y-71674333D01*
X123904428Y-71674333D01*
X123999666Y-71721952D01*
X124047285Y-71769571D01*
X124094904Y-71864809D01*
%TO.C,R2*%
X80811666Y-57688380D02*
X81145000Y-57212190D01*
X81383095Y-57688380D02*
X81383095Y-56688380D01*
X81002142Y-56688380D01*
X80906904Y-56736000D01*
X80859285Y-56783619D01*
X80811666Y-56878857D01*
X80811666Y-57021714D01*
X80859285Y-57116952D01*
X80906904Y-57164571D01*
X81002142Y-57212190D01*
X81383095Y-57212190D01*
X80430714Y-56783619D02*
X80383095Y-56736000D01*
X80287857Y-56688380D01*
X80049761Y-56688380D01*
X79954523Y-56736000D01*
X79906904Y-56783619D01*
X79859285Y-56878857D01*
X79859285Y-56974095D01*
X79906904Y-57116952D01*
X80478333Y-57688380D01*
X79859285Y-57688380D01*
%TO.C,RSENSE1*%
X75382380Y-39956380D02*
X74906190Y-39623047D01*
X75382380Y-39384952D02*
X74382380Y-39384952D01*
X74382380Y-39765904D01*
X74430000Y-39861142D01*
X74477619Y-39908761D01*
X74572857Y-39956380D01*
X74715714Y-39956380D01*
X74810952Y-39908761D01*
X74858571Y-39861142D01*
X74906190Y-39765904D01*
X74906190Y-39384952D01*
X75334761Y-40337333D02*
X75382380Y-40480190D01*
X75382380Y-40718285D01*
X75334761Y-40813523D01*
X75287142Y-40861142D01*
X75191904Y-40908761D01*
X75096666Y-40908761D01*
X75001428Y-40861142D01*
X74953809Y-40813523D01*
X74906190Y-40718285D01*
X74858571Y-40527809D01*
X74810952Y-40432571D01*
X74763333Y-40384952D01*
X74668095Y-40337333D01*
X74572857Y-40337333D01*
X74477619Y-40384952D01*
X74430000Y-40432571D01*
X74382380Y-40527809D01*
X74382380Y-40765904D01*
X74430000Y-40908761D01*
X74858571Y-41337333D02*
X74858571Y-41670666D01*
X75382380Y-41813523D02*
X75382380Y-41337333D01*
X74382380Y-41337333D01*
X74382380Y-41813523D01*
X75382380Y-42242095D02*
X74382380Y-42242095D01*
X75382380Y-42813523D01*
X74382380Y-42813523D01*
X75334761Y-43242095D02*
X75382380Y-43384952D01*
X75382380Y-43623047D01*
X75334761Y-43718285D01*
X75287142Y-43765904D01*
X75191904Y-43813523D01*
X75096666Y-43813523D01*
X75001428Y-43765904D01*
X74953809Y-43718285D01*
X74906190Y-43623047D01*
X74858571Y-43432571D01*
X74810952Y-43337333D01*
X74763333Y-43289714D01*
X74668095Y-43242095D01*
X74572857Y-43242095D01*
X74477619Y-43289714D01*
X74430000Y-43337333D01*
X74382380Y-43432571D01*
X74382380Y-43670666D01*
X74430000Y-43813523D01*
X74858571Y-44242095D02*
X74858571Y-44575428D01*
X75382380Y-44718285D02*
X75382380Y-44242095D01*
X74382380Y-44242095D01*
X74382380Y-44718285D01*
X75382380Y-45670666D02*
X75382380Y-45099238D01*
X75382380Y-45384952D02*
X74382380Y-45384952D01*
X74525238Y-45289714D01*
X74620476Y-45194476D01*
X74668095Y-45099238D01*
%TO.C,C2*%
X62142666Y-46417142D02*
X62190285Y-46464761D01*
X62333142Y-46512380D01*
X62428380Y-46512380D01*
X62571238Y-46464761D01*
X62666476Y-46369523D01*
X62714095Y-46274285D01*
X62761714Y-46083809D01*
X62761714Y-45940952D01*
X62714095Y-45750476D01*
X62666476Y-45655238D01*
X62571238Y-45560000D01*
X62428380Y-45512380D01*
X62333142Y-45512380D01*
X62190285Y-45560000D01*
X62142666Y-45607619D01*
X61761714Y-45607619D02*
X61714095Y-45560000D01*
X61618857Y-45512380D01*
X61380761Y-45512380D01*
X61285523Y-45560000D01*
X61237904Y-45607619D01*
X61190285Y-45702857D01*
X61190285Y-45798095D01*
X61237904Y-45940952D01*
X61809333Y-46512380D01*
X61190285Y-46512380D01*
%TO.C,C3*%
X64428666Y-46417142D02*
X64476285Y-46464761D01*
X64619142Y-46512380D01*
X64714380Y-46512380D01*
X64857238Y-46464761D01*
X64952476Y-46369523D01*
X65000095Y-46274285D01*
X65047714Y-46083809D01*
X65047714Y-45940952D01*
X65000095Y-45750476D01*
X64952476Y-45655238D01*
X64857238Y-45560000D01*
X64714380Y-45512380D01*
X64619142Y-45512380D01*
X64476285Y-45560000D01*
X64428666Y-45607619D01*
X64095333Y-45512380D02*
X63476285Y-45512380D01*
X63809619Y-45893333D01*
X63666761Y-45893333D01*
X63571523Y-45940952D01*
X63523904Y-45988571D01*
X63476285Y-46083809D01*
X63476285Y-46321904D01*
X63523904Y-46417142D01*
X63571523Y-46464761D01*
X63666761Y-46512380D01*
X63952476Y-46512380D01*
X64047714Y-46464761D01*
X64095333Y-46417142D01*
%TO.C,C1*%
X88812666Y-47560142D02*
X88860285Y-47607761D01*
X89003142Y-47655380D01*
X89098380Y-47655380D01*
X89241238Y-47607761D01*
X89336476Y-47512523D01*
X89384095Y-47417285D01*
X89431714Y-47226809D01*
X89431714Y-47083952D01*
X89384095Y-46893476D01*
X89336476Y-46798238D01*
X89241238Y-46703000D01*
X89098380Y-46655380D01*
X89003142Y-46655380D01*
X88860285Y-46703000D01*
X88812666Y-46750619D01*
X87860285Y-47655380D02*
X88431714Y-47655380D01*
X88146000Y-47655380D02*
X88146000Y-46655380D01*
X88241238Y-46798238D01*
X88336476Y-46893476D01*
X88431714Y-46941095D01*
%TO.C,C12*%
X129821142Y-98603142D02*
X129868761Y-98555523D01*
X129916380Y-98412666D01*
X129916380Y-98317428D01*
X129868761Y-98174571D01*
X129773523Y-98079333D01*
X129678285Y-98031714D01*
X129487809Y-97984095D01*
X129344952Y-97984095D01*
X129154476Y-98031714D01*
X129059238Y-98079333D01*
X128964000Y-98174571D01*
X128916380Y-98317428D01*
X128916380Y-98412666D01*
X128964000Y-98555523D01*
X129011619Y-98603142D01*
X129916380Y-99555523D02*
X129916380Y-98984095D01*
X129916380Y-99269809D02*
X128916380Y-99269809D01*
X129059238Y-99174571D01*
X129154476Y-99079333D01*
X129202095Y-98984095D01*
X129011619Y-99936476D02*
X128964000Y-99984095D01*
X128916380Y-100079333D01*
X128916380Y-100317428D01*
X128964000Y-100412666D01*
X129011619Y-100460285D01*
X129106857Y-100507904D01*
X129202095Y-100507904D01*
X129344952Y-100460285D01*
X129916380Y-99888857D01*
X129916380Y-100507904D01*
%TO.C,C13*%
X70639142Y-99111142D02*
X70686761Y-99063523D01*
X70734380Y-98920666D01*
X70734380Y-98825428D01*
X70686761Y-98682571D01*
X70591523Y-98587333D01*
X70496285Y-98539714D01*
X70305809Y-98492095D01*
X70162952Y-98492095D01*
X69972476Y-98539714D01*
X69877238Y-98587333D01*
X69782000Y-98682571D01*
X69734380Y-98825428D01*
X69734380Y-98920666D01*
X69782000Y-99063523D01*
X69829619Y-99111142D01*
X70734380Y-100063523D02*
X70734380Y-99492095D01*
X70734380Y-99777809D02*
X69734380Y-99777809D01*
X69877238Y-99682571D01*
X69972476Y-99587333D01*
X70020095Y-99492095D01*
X69734380Y-100396857D02*
X69734380Y-101015904D01*
X70115333Y-100682571D01*
X70115333Y-100825428D01*
X70162952Y-100920666D01*
X70210571Y-100968285D01*
X70305809Y-101015904D01*
X70543904Y-101015904D01*
X70639142Y-100968285D01*
X70686761Y-100920666D01*
X70734380Y-100825428D01*
X70734380Y-100539714D01*
X70686761Y-100444476D01*
X70639142Y-100396857D01*
%TO.C,D1*%
X66016095Y-36606380D02*
X66016095Y-35606380D01*
X65778000Y-35606380D01*
X65635142Y-35654000D01*
X65539904Y-35749238D01*
X65492285Y-35844476D01*
X65444666Y-36034952D01*
X65444666Y-36177809D01*
X65492285Y-36368285D01*
X65539904Y-36463523D01*
X65635142Y-36558761D01*
X65778000Y-36606380D01*
X66016095Y-36606380D01*
X64492285Y-36606380D02*
X65063714Y-36606380D01*
X64778000Y-36606380D02*
X64778000Y-35606380D01*
X64873238Y-35749238D01*
X64968476Y-35844476D01*
X65063714Y-35892095D01*
%TO.C,C15*%
X132341857Y-63816142D02*
X132389476Y-63863761D01*
X132532333Y-63911380D01*
X132627571Y-63911380D01*
X132770428Y-63863761D01*
X132865666Y-63768523D01*
X132913285Y-63673285D01*
X132960904Y-63482809D01*
X132960904Y-63339952D01*
X132913285Y-63149476D01*
X132865666Y-63054238D01*
X132770428Y-62959000D01*
X132627571Y-62911380D01*
X132532333Y-62911380D01*
X132389476Y-62959000D01*
X132341857Y-63006619D01*
X131389476Y-63911380D02*
X131960904Y-63911380D01*
X131675190Y-63911380D02*
X131675190Y-62911380D01*
X131770428Y-63054238D01*
X131865666Y-63149476D01*
X131960904Y-63197095D01*
X130484714Y-62911380D02*
X130960904Y-62911380D01*
X131008523Y-63387571D01*
X130960904Y-63339952D01*
X130865666Y-63292333D01*
X130627571Y-63292333D01*
X130532333Y-63339952D01*
X130484714Y-63387571D01*
X130437095Y-63482809D01*
X130437095Y-63720904D01*
X130484714Y-63816142D01*
X130532333Y-63863761D01*
X130627571Y-63911380D01*
X130865666Y-63911380D01*
X130960904Y-63863761D01*
X131008523Y-63816142D01*
%TO.C,C16*%
X127896857Y-62165142D02*
X127944476Y-62212761D01*
X128087333Y-62260380D01*
X128182571Y-62260380D01*
X128325428Y-62212761D01*
X128420666Y-62117523D01*
X128468285Y-62022285D01*
X128515904Y-61831809D01*
X128515904Y-61688952D01*
X128468285Y-61498476D01*
X128420666Y-61403238D01*
X128325428Y-61308000D01*
X128182571Y-61260380D01*
X128087333Y-61260380D01*
X127944476Y-61308000D01*
X127896857Y-61355619D01*
X126944476Y-62260380D02*
X127515904Y-62260380D01*
X127230190Y-62260380D02*
X127230190Y-61260380D01*
X127325428Y-61403238D01*
X127420666Y-61498476D01*
X127515904Y-61546095D01*
X126087333Y-61260380D02*
X126277809Y-61260380D01*
X126373047Y-61308000D01*
X126420666Y-61355619D01*
X126515904Y-61498476D01*
X126563523Y-61688952D01*
X126563523Y-62069904D01*
X126515904Y-62165142D01*
X126468285Y-62212761D01*
X126373047Y-62260380D01*
X126182571Y-62260380D01*
X126087333Y-62212761D01*
X126039714Y-62165142D01*
X125992095Y-62069904D01*
X125992095Y-61831809D01*
X126039714Y-61736571D01*
X126087333Y-61688952D01*
X126182571Y-61641333D01*
X126373047Y-61641333D01*
X126468285Y-61688952D01*
X126515904Y-61736571D01*
X126563523Y-61831809D01*
%TO.C,C4*%
X54268666Y-45782142D02*
X54316285Y-45829761D01*
X54459142Y-45877380D01*
X54554380Y-45877380D01*
X54697238Y-45829761D01*
X54792476Y-45734523D01*
X54840095Y-45639285D01*
X54887714Y-45448809D01*
X54887714Y-45305952D01*
X54840095Y-45115476D01*
X54792476Y-45020238D01*
X54697238Y-44925000D01*
X54554380Y-44877380D01*
X54459142Y-44877380D01*
X54316285Y-44925000D01*
X54268666Y-44972619D01*
X53411523Y-45210714D02*
X53411523Y-45877380D01*
X53649619Y-44829761D02*
X53887714Y-45544047D01*
X53268666Y-45544047D01*
%TO.C,C20*%
X110751857Y-40956142D02*
X110799476Y-41003761D01*
X110942333Y-41051380D01*
X111037571Y-41051380D01*
X111180428Y-41003761D01*
X111275666Y-40908523D01*
X111323285Y-40813285D01*
X111370904Y-40622809D01*
X111370904Y-40479952D01*
X111323285Y-40289476D01*
X111275666Y-40194238D01*
X111180428Y-40099000D01*
X111037571Y-40051380D01*
X110942333Y-40051380D01*
X110799476Y-40099000D01*
X110751857Y-40146619D01*
X110370904Y-40146619D02*
X110323285Y-40099000D01*
X110228047Y-40051380D01*
X109989952Y-40051380D01*
X109894714Y-40099000D01*
X109847095Y-40146619D01*
X109799476Y-40241857D01*
X109799476Y-40337095D01*
X109847095Y-40479952D01*
X110418523Y-41051380D01*
X109799476Y-41051380D01*
X109180428Y-40051380D02*
X109085190Y-40051380D01*
X108989952Y-40099000D01*
X108942333Y-40146619D01*
X108894714Y-40241857D01*
X108847095Y-40432333D01*
X108847095Y-40670428D01*
X108894714Y-40860904D01*
X108942333Y-40956142D01*
X108989952Y-41003761D01*
X109085190Y-41051380D01*
X109180428Y-41051380D01*
X109275666Y-41003761D01*
X109323285Y-40956142D01*
X109370904Y-40860904D01*
X109418523Y-40670428D01*
X109418523Y-40432333D01*
X109370904Y-40241857D01*
X109323285Y-40146619D01*
X109275666Y-40099000D01*
X109180428Y-40051380D01*
%TO.C,C21*%
X126849142Y-36146142D02*
X126896761Y-36098523D01*
X126944380Y-35955666D01*
X126944380Y-35860428D01*
X126896761Y-35717571D01*
X126801523Y-35622333D01*
X126706285Y-35574714D01*
X126515809Y-35527095D01*
X126372952Y-35527095D01*
X126182476Y-35574714D01*
X126087238Y-35622333D01*
X125992000Y-35717571D01*
X125944380Y-35860428D01*
X125944380Y-35955666D01*
X125992000Y-36098523D01*
X126039619Y-36146142D01*
X126039619Y-36527095D02*
X125992000Y-36574714D01*
X125944380Y-36669952D01*
X125944380Y-36908047D01*
X125992000Y-37003285D01*
X126039619Y-37050904D01*
X126134857Y-37098523D01*
X126230095Y-37098523D01*
X126372952Y-37050904D01*
X126944380Y-36479476D01*
X126944380Y-37098523D01*
X126944380Y-38050904D02*
X126944380Y-37479476D01*
X126944380Y-37765190D02*
X125944380Y-37765190D01*
X126087238Y-37669952D01*
X126182476Y-37574714D01*
X126230095Y-37479476D01*
%TO.C,C22*%
X144375142Y-60911142D02*
X144422761Y-60863523D01*
X144470380Y-60720666D01*
X144470380Y-60625428D01*
X144422761Y-60482571D01*
X144327523Y-60387333D01*
X144232285Y-60339714D01*
X144041809Y-60292095D01*
X143898952Y-60292095D01*
X143708476Y-60339714D01*
X143613238Y-60387333D01*
X143518000Y-60482571D01*
X143470380Y-60625428D01*
X143470380Y-60720666D01*
X143518000Y-60863523D01*
X143565619Y-60911142D01*
X143565619Y-61292095D02*
X143518000Y-61339714D01*
X143470380Y-61434952D01*
X143470380Y-61673047D01*
X143518000Y-61768285D01*
X143565619Y-61815904D01*
X143660857Y-61863523D01*
X143756095Y-61863523D01*
X143898952Y-61815904D01*
X144470380Y-61244476D01*
X144470380Y-61863523D01*
X143565619Y-62244476D02*
X143518000Y-62292095D01*
X143470380Y-62387333D01*
X143470380Y-62625428D01*
X143518000Y-62720666D01*
X143565619Y-62768285D01*
X143660857Y-62815904D01*
X143756095Y-62815904D01*
X143898952Y-62768285D01*
X144470380Y-62196857D01*
X144470380Y-62815904D01*
%TO.C,C23*%
X108180142Y-33987142D02*
X108227761Y-33939523D01*
X108275380Y-33796666D01*
X108275380Y-33701428D01*
X108227761Y-33558571D01*
X108132523Y-33463333D01*
X108037285Y-33415714D01*
X107846809Y-33368095D01*
X107703952Y-33368095D01*
X107513476Y-33415714D01*
X107418238Y-33463333D01*
X107323000Y-33558571D01*
X107275380Y-33701428D01*
X107275380Y-33796666D01*
X107323000Y-33939523D01*
X107370619Y-33987142D01*
X107370619Y-34368095D02*
X107323000Y-34415714D01*
X107275380Y-34510952D01*
X107275380Y-34749047D01*
X107323000Y-34844285D01*
X107370619Y-34891904D01*
X107465857Y-34939523D01*
X107561095Y-34939523D01*
X107703952Y-34891904D01*
X108275380Y-34320476D01*
X108275380Y-34939523D01*
X107275380Y-35272857D02*
X107275380Y-35891904D01*
X107656333Y-35558571D01*
X107656333Y-35701428D01*
X107703952Y-35796666D01*
X107751571Y-35844285D01*
X107846809Y-35891904D01*
X108084904Y-35891904D01*
X108180142Y-35844285D01*
X108227761Y-35796666D01*
X108275380Y-35701428D01*
X108275380Y-35415714D01*
X108227761Y-35320476D01*
X108180142Y-35272857D01*
%TO.C,C24*%
X119102142Y-44274142D02*
X119149761Y-44226523D01*
X119197380Y-44083666D01*
X119197380Y-43988428D01*
X119149761Y-43845571D01*
X119054523Y-43750333D01*
X118959285Y-43702714D01*
X118768809Y-43655095D01*
X118625952Y-43655095D01*
X118435476Y-43702714D01*
X118340238Y-43750333D01*
X118245000Y-43845571D01*
X118197380Y-43988428D01*
X118197380Y-44083666D01*
X118245000Y-44226523D01*
X118292619Y-44274142D01*
X118292619Y-44655095D02*
X118245000Y-44702714D01*
X118197380Y-44797952D01*
X118197380Y-45036047D01*
X118245000Y-45131285D01*
X118292619Y-45178904D01*
X118387857Y-45226523D01*
X118483095Y-45226523D01*
X118625952Y-45178904D01*
X119197380Y-44607476D01*
X119197380Y-45226523D01*
X118530714Y-46083666D02*
X119197380Y-46083666D01*
X118149761Y-45845571D02*
X118864047Y-45607476D01*
X118864047Y-46226523D01*
%TO.C,C25*%
X108180142Y-36654142D02*
X108227761Y-36606523D01*
X108275380Y-36463666D01*
X108275380Y-36368428D01*
X108227761Y-36225571D01*
X108132523Y-36130333D01*
X108037285Y-36082714D01*
X107846809Y-36035095D01*
X107703952Y-36035095D01*
X107513476Y-36082714D01*
X107418238Y-36130333D01*
X107323000Y-36225571D01*
X107275380Y-36368428D01*
X107275380Y-36463666D01*
X107323000Y-36606523D01*
X107370619Y-36654142D01*
X107370619Y-37035095D02*
X107323000Y-37082714D01*
X107275380Y-37177952D01*
X107275380Y-37416047D01*
X107323000Y-37511285D01*
X107370619Y-37558904D01*
X107465857Y-37606523D01*
X107561095Y-37606523D01*
X107703952Y-37558904D01*
X108275380Y-36987476D01*
X108275380Y-37606523D01*
X107275380Y-38511285D02*
X107275380Y-38035095D01*
X107751571Y-37987476D01*
X107703952Y-38035095D01*
X107656333Y-38130333D01*
X107656333Y-38368428D01*
X107703952Y-38463666D01*
X107751571Y-38511285D01*
X107846809Y-38558904D01*
X108084904Y-38558904D01*
X108180142Y-38511285D01*
X108227761Y-38463666D01*
X108275380Y-38368428D01*
X108275380Y-38130333D01*
X108227761Y-38035095D01*
X108180142Y-37987476D01*
%TO.C,P3*%
X66905095Y-103789380D02*
X66905095Y-102789380D01*
X66524142Y-102789380D01*
X66428904Y-102837000D01*
X66381285Y-102884619D01*
X66333666Y-102979857D01*
X66333666Y-103122714D01*
X66381285Y-103217952D01*
X66428904Y-103265571D01*
X66524142Y-103313190D01*
X66905095Y-103313190D01*
X66000333Y-102789380D02*
X65381285Y-102789380D01*
X65714619Y-103170333D01*
X65571761Y-103170333D01*
X65476523Y-103217952D01*
X65428904Y-103265571D01*
X65381285Y-103360809D01*
X65381285Y-103598904D01*
X65428904Y-103694142D01*
X65476523Y-103741761D01*
X65571761Y-103789380D01*
X65857476Y-103789380D01*
X65952714Y-103741761D01*
X66000333Y-103694142D01*
%TO.C,P7*%
X66905095Y-108996380D02*
X66905095Y-107996380D01*
X66524142Y-107996380D01*
X66428904Y-108044000D01*
X66381285Y-108091619D01*
X66333666Y-108186857D01*
X66333666Y-108329714D01*
X66381285Y-108424952D01*
X66428904Y-108472571D01*
X66524142Y-108520190D01*
X66905095Y-108520190D01*
X66000333Y-107996380D02*
X65333666Y-107996380D01*
X65762238Y-108996380D01*
%TO.C,P8*%
X66905095Y-96296380D02*
X66905095Y-95296380D01*
X66524142Y-95296380D01*
X66428904Y-95344000D01*
X66381285Y-95391619D01*
X66333666Y-95486857D01*
X66333666Y-95629714D01*
X66381285Y-95724952D01*
X66428904Y-95772571D01*
X66524142Y-95820190D01*
X66905095Y-95820190D01*
X65762238Y-95724952D02*
X65857476Y-95677333D01*
X65905095Y-95629714D01*
X65952714Y-95534476D01*
X65952714Y-95486857D01*
X65905095Y-95391619D01*
X65857476Y-95344000D01*
X65762238Y-95296380D01*
X65571761Y-95296380D01*
X65476523Y-95344000D01*
X65428904Y-95391619D01*
X65381285Y-95486857D01*
X65381285Y-95534476D01*
X65428904Y-95629714D01*
X65476523Y-95677333D01*
X65571761Y-95724952D01*
X65762238Y-95724952D01*
X65857476Y-95772571D01*
X65905095Y-95820190D01*
X65952714Y-95915428D01*
X65952714Y-96105904D01*
X65905095Y-96201142D01*
X65857476Y-96248761D01*
X65762238Y-96296380D01*
X65571761Y-96296380D01*
X65476523Y-96248761D01*
X65428904Y-96201142D01*
X65381285Y-96105904D01*
X65381285Y-95915428D01*
X65428904Y-95820190D01*
X65476523Y-95772571D01*
X65571761Y-95724952D01*
%TO.C,P9*%
X66905095Y-93756380D02*
X66905095Y-92756380D01*
X66524142Y-92756380D01*
X66428904Y-92804000D01*
X66381285Y-92851619D01*
X66333666Y-92946857D01*
X66333666Y-93089714D01*
X66381285Y-93184952D01*
X66428904Y-93232571D01*
X66524142Y-93280190D01*
X66905095Y-93280190D01*
X65857476Y-93756380D02*
X65667000Y-93756380D01*
X65571761Y-93708761D01*
X65524142Y-93661142D01*
X65428904Y-93518285D01*
X65381285Y-93327809D01*
X65381285Y-92946857D01*
X65428904Y-92851619D01*
X65476523Y-92804000D01*
X65571761Y-92756380D01*
X65762238Y-92756380D01*
X65857476Y-92804000D01*
X65905095Y-92851619D01*
X65952714Y-92946857D01*
X65952714Y-93184952D01*
X65905095Y-93280190D01*
X65857476Y-93327809D01*
X65762238Y-93375428D01*
X65571761Y-93375428D01*
X65476523Y-93327809D01*
X65428904Y-93280190D01*
X65381285Y-93184952D01*
%TO.C,P10*%
X66873285Y-106456380D02*
X66873285Y-105456380D01*
X66492333Y-105456380D01*
X66397095Y-105504000D01*
X66349476Y-105551619D01*
X66301857Y-105646857D01*
X66301857Y-105789714D01*
X66349476Y-105884952D01*
X66397095Y-105932571D01*
X66492333Y-105980190D01*
X66873285Y-105980190D01*
X65349476Y-106456380D02*
X65920904Y-106456380D01*
X65635190Y-106456380D02*
X65635190Y-105456380D01*
X65730428Y-105599238D01*
X65825666Y-105694476D01*
X65920904Y-105742095D01*
X64730428Y-105456380D02*
X64635190Y-105456380D01*
X64539952Y-105504000D01*
X64492333Y-105551619D01*
X64444714Y-105646857D01*
X64397095Y-105837333D01*
X64397095Y-106075428D01*
X64444714Y-106265904D01*
X64492333Y-106361142D01*
X64539952Y-106408761D01*
X64635190Y-106456380D01*
X64730428Y-106456380D01*
X64825666Y-106408761D01*
X64873285Y-106361142D01*
X64920904Y-106265904D01*
X64968523Y-106075428D01*
X64968523Y-105837333D01*
X64920904Y-105646857D01*
X64873285Y-105551619D01*
X64825666Y-105504000D01*
X64730428Y-105456380D01*
%TO.C,P11*%
X66873285Y-98836380D02*
X66873285Y-97836380D01*
X66492333Y-97836380D01*
X66397095Y-97884000D01*
X66349476Y-97931619D01*
X66301857Y-98026857D01*
X66301857Y-98169714D01*
X66349476Y-98264952D01*
X66397095Y-98312571D01*
X66492333Y-98360190D01*
X66873285Y-98360190D01*
X65349476Y-98836380D02*
X65920904Y-98836380D01*
X65635190Y-98836380D02*
X65635190Y-97836380D01*
X65730428Y-97979238D01*
X65825666Y-98074476D01*
X65920904Y-98122095D01*
X64397095Y-98836380D02*
X64968523Y-98836380D01*
X64682809Y-98836380D02*
X64682809Y-97836380D01*
X64778047Y-97979238D01*
X64873285Y-98074476D01*
X64968523Y-98122095D01*
%TO.C,P12*%
X67000285Y-101376380D02*
X67000285Y-100376380D01*
X66619333Y-100376380D01*
X66524095Y-100424000D01*
X66476476Y-100471619D01*
X66428857Y-100566857D01*
X66428857Y-100709714D01*
X66476476Y-100804952D01*
X66524095Y-100852571D01*
X66619333Y-100900190D01*
X67000285Y-100900190D01*
X65476476Y-101376380D02*
X66047904Y-101376380D01*
X65762190Y-101376380D02*
X65762190Y-100376380D01*
X65857428Y-100519238D01*
X65952666Y-100614476D01*
X66047904Y-100662095D01*
X65095523Y-100471619D02*
X65047904Y-100424000D01*
X64952666Y-100376380D01*
X64714571Y-100376380D01*
X64619333Y-100424000D01*
X64571714Y-100471619D01*
X64524095Y-100566857D01*
X64524095Y-100662095D01*
X64571714Y-100804952D01*
X65143142Y-101376380D01*
X64524095Y-101376380D01*
%TO.C,SW3*%
X147129333Y-50655761D02*
X146986476Y-50703380D01*
X146748380Y-50703380D01*
X146653142Y-50655761D01*
X146605523Y-50608142D01*
X146557904Y-50512904D01*
X146557904Y-50417666D01*
X146605523Y-50322428D01*
X146653142Y-50274809D01*
X146748380Y-50227190D01*
X146938857Y-50179571D01*
X147034095Y-50131952D01*
X147081714Y-50084333D01*
X147129333Y-49989095D01*
X147129333Y-49893857D01*
X147081714Y-49798619D01*
X147034095Y-49751000D01*
X146938857Y-49703380D01*
X146700761Y-49703380D01*
X146557904Y-49751000D01*
X146224571Y-49703380D02*
X145986476Y-50703380D01*
X145796000Y-49989095D01*
X145605523Y-50703380D01*
X145367428Y-49703380D01*
X145081714Y-49703380D02*
X144462666Y-49703380D01*
X144796000Y-50084333D01*
X144653142Y-50084333D01*
X144557904Y-50131952D01*
X144510285Y-50179571D01*
X144462666Y-50274809D01*
X144462666Y-50512904D01*
X144510285Y-50608142D01*
X144557904Y-50655761D01*
X144653142Y-50703380D01*
X144938857Y-50703380D01*
X145034095Y-50655761D01*
X145081714Y-50608142D01*
%TO.C,C19*%
X91701857Y-60133142D02*
X91749476Y-60180761D01*
X91892333Y-60228380D01*
X91987571Y-60228380D01*
X92130428Y-60180761D01*
X92225666Y-60085523D01*
X92273285Y-59990285D01*
X92320904Y-59799809D01*
X92320904Y-59656952D01*
X92273285Y-59466476D01*
X92225666Y-59371238D01*
X92130428Y-59276000D01*
X91987571Y-59228380D01*
X91892333Y-59228380D01*
X91749476Y-59276000D01*
X91701857Y-59323619D01*
X90749476Y-60228380D02*
X91320904Y-60228380D01*
X91035190Y-60228380D02*
X91035190Y-59228380D01*
X91130428Y-59371238D01*
X91225666Y-59466476D01*
X91320904Y-59514095D01*
X90273285Y-60228380D02*
X90082809Y-60228380D01*
X89987571Y-60180761D01*
X89939952Y-60133142D01*
X89844714Y-59990285D01*
X89797095Y-59799809D01*
X89797095Y-59418857D01*
X89844714Y-59323619D01*
X89892333Y-59276000D01*
X89987571Y-59228380D01*
X90178047Y-59228380D01*
X90273285Y-59276000D01*
X90320904Y-59323619D01*
X90368523Y-59418857D01*
X90368523Y-59656952D01*
X90320904Y-59752190D01*
X90273285Y-59799809D01*
X90178047Y-59847428D01*
X89987571Y-59847428D01*
X89892333Y-59799809D01*
X89844714Y-59752190D01*
X89797095Y-59656952D01*
%TO.C,L1*%
X80811666Y-46893380D02*
X81287857Y-46893380D01*
X81287857Y-45893380D01*
X79954523Y-46893380D02*
X80525952Y-46893380D01*
X80240238Y-46893380D02*
X80240238Y-45893380D01*
X80335476Y-46036238D01*
X80430714Y-46131476D01*
X80525952Y-46179095D01*
%TO.C,C7*%
X124753666Y-45528142D02*
X124801285Y-45575761D01*
X124944142Y-45623380D01*
X125039380Y-45623380D01*
X125182238Y-45575761D01*
X125277476Y-45480523D01*
X125325095Y-45385285D01*
X125372714Y-45194809D01*
X125372714Y-45051952D01*
X125325095Y-44861476D01*
X125277476Y-44766238D01*
X125182238Y-44671000D01*
X125039380Y-44623380D01*
X124944142Y-44623380D01*
X124801285Y-44671000D01*
X124753666Y-44718619D01*
X124420333Y-44623380D02*
X123753666Y-44623380D01*
X124182238Y-45623380D01*
%TO.C,C8*%
X139485666Y-45528142D02*
X139533285Y-45575761D01*
X139676142Y-45623380D01*
X139771380Y-45623380D01*
X139914238Y-45575761D01*
X140009476Y-45480523D01*
X140057095Y-45385285D01*
X140104714Y-45194809D01*
X140104714Y-45051952D01*
X140057095Y-44861476D01*
X140009476Y-44766238D01*
X139914238Y-44671000D01*
X139771380Y-44623380D01*
X139676142Y-44623380D01*
X139533285Y-44671000D01*
X139485666Y-44718619D01*
X138914238Y-45051952D02*
X139009476Y-45004333D01*
X139057095Y-44956714D01*
X139104714Y-44861476D01*
X139104714Y-44813857D01*
X139057095Y-44718619D01*
X139009476Y-44671000D01*
X138914238Y-44623380D01*
X138723761Y-44623380D01*
X138628523Y-44671000D01*
X138580904Y-44718619D01*
X138533285Y-44813857D01*
X138533285Y-44861476D01*
X138580904Y-44956714D01*
X138628523Y-45004333D01*
X138723761Y-45051952D01*
X138914238Y-45051952D01*
X139009476Y-45099571D01*
X139057095Y-45147190D01*
X139104714Y-45242428D01*
X139104714Y-45432904D01*
X139057095Y-45528142D01*
X139009476Y-45575761D01*
X138914238Y-45623380D01*
X138723761Y-45623380D01*
X138628523Y-45575761D01*
X138580904Y-45528142D01*
X138533285Y-45432904D01*
X138533285Y-45242428D01*
X138580904Y-45147190D01*
X138628523Y-45099571D01*
X138723761Y-45051952D01*
%TO.C,C9*%
X128817666Y-45528142D02*
X128865285Y-45575761D01*
X129008142Y-45623380D01*
X129103380Y-45623380D01*
X129246238Y-45575761D01*
X129341476Y-45480523D01*
X129389095Y-45385285D01*
X129436714Y-45194809D01*
X129436714Y-45051952D01*
X129389095Y-44861476D01*
X129341476Y-44766238D01*
X129246238Y-44671000D01*
X129103380Y-44623380D01*
X129008142Y-44623380D01*
X128865285Y-44671000D01*
X128817666Y-44718619D01*
X128341476Y-45623380D02*
X128151000Y-45623380D01*
X128055761Y-45575761D01*
X128008142Y-45528142D01*
X127912904Y-45385285D01*
X127865285Y-45194809D01*
X127865285Y-44813857D01*
X127912904Y-44718619D01*
X127960523Y-44671000D01*
X128055761Y-44623380D01*
X128246238Y-44623380D01*
X128341476Y-44671000D01*
X128389095Y-44718619D01*
X128436714Y-44813857D01*
X128436714Y-45051952D01*
X128389095Y-45147190D01*
X128341476Y-45194809D01*
X128246238Y-45242428D01*
X128055761Y-45242428D01*
X127960523Y-45194809D01*
X127912904Y-45147190D01*
X127865285Y-45051952D01*
%TO.C,C10*%
X135897857Y-45528142D02*
X135945476Y-45575761D01*
X136088333Y-45623380D01*
X136183571Y-45623380D01*
X136326428Y-45575761D01*
X136421666Y-45480523D01*
X136469285Y-45385285D01*
X136516904Y-45194809D01*
X136516904Y-45051952D01*
X136469285Y-44861476D01*
X136421666Y-44766238D01*
X136326428Y-44671000D01*
X136183571Y-44623380D01*
X136088333Y-44623380D01*
X135945476Y-44671000D01*
X135897857Y-44718619D01*
X134945476Y-45623380D02*
X135516904Y-45623380D01*
X135231190Y-45623380D02*
X135231190Y-44623380D01*
X135326428Y-44766238D01*
X135421666Y-44861476D01*
X135516904Y-44909095D01*
X134326428Y-44623380D02*
X134231190Y-44623380D01*
X134135952Y-44671000D01*
X134088333Y-44718619D01*
X134040714Y-44813857D01*
X133993095Y-45004333D01*
X133993095Y-45242428D01*
X134040714Y-45432904D01*
X134088333Y-45528142D01*
X134135952Y-45575761D01*
X134231190Y-45623380D01*
X134326428Y-45623380D01*
X134421666Y-45575761D01*
X134469285Y-45528142D01*
X134516904Y-45432904D01*
X134564523Y-45242428D01*
X134564523Y-45004333D01*
X134516904Y-44813857D01*
X134469285Y-44718619D01*
X134421666Y-44671000D01*
X134326428Y-44623380D01*
%TO.C,C11*%
X117609857Y-51624142D02*
X117657476Y-51671761D01*
X117800333Y-51719380D01*
X117895571Y-51719380D01*
X118038428Y-51671761D01*
X118133666Y-51576523D01*
X118181285Y-51481285D01*
X118228904Y-51290809D01*
X118228904Y-51147952D01*
X118181285Y-50957476D01*
X118133666Y-50862238D01*
X118038428Y-50767000D01*
X117895571Y-50719380D01*
X117800333Y-50719380D01*
X117657476Y-50767000D01*
X117609857Y-50814619D01*
X116657476Y-51719380D02*
X117228904Y-51719380D01*
X116943190Y-51719380D02*
X116943190Y-50719380D01*
X117038428Y-50862238D01*
X117133666Y-50957476D01*
X117228904Y-51005095D01*
X115705095Y-51719380D02*
X116276523Y-51719380D01*
X115990809Y-51719380D02*
X115990809Y-50719380D01*
X116086047Y-50862238D01*
X116181285Y-50957476D01*
X116276523Y-51005095D01*
%TO.C,C6*%
X65889142Y-41448333D02*
X65936761Y-41400714D01*
X65984380Y-41257857D01*
X65984380Y-41162619D01*
X65936761Y-41019761D01*
X65841523Y-40924523D01*
X65746285Y-40876904D01*
X65555809Y-40829285D01*
X65412952Y-40829285D01*
X65222476Y-40876904D01*
X65127238Y-40924523D01*
X65032000Y-41019761D01*
X64984380Y-41162619D01*
X64984380Y-41257857D01*
X65032000Y-41400714D01*
X65079619Y-41448333D01*
X64984380Y-42305476D02*
X64984380Y-42115000D01*
X65032000Y-42019761D01*
X65079619Y-41972142D01*
X65222476Y-41876904D01*
X65412952Y-41829285D01*
X65793904Y-41829285D01*
X65889142Y-41876904D01*
X65936761Y-41924523D01*
X65984380Y-42019761D01*
X65984380Y-42210238D01*
X65936761Y-42305476D01*
X65889142Y-42353095D01*
X65793904Y-42400714D01*
X65555809Y-42400714D01*
X65460571Y-42353095D01*
X65412952Y-42305476D01*
X65365333Y-42210238D01*
X65365333Y-42019761D01*
X65412952Y-41924523D01*
X65460571Y-41876904D01*
X65555809Y-41829285D01*
%TO.C,C27*%
X122658142Y-61292142D02*
X122705761Y-61244523D01*
X122753380Y-61101666D01*
X122753380Y-61006428D01*
X122705761Y-60863571D01*
X122610523Y-60768333D01*
X122515285Y-60720714D01*
X122324809Y-60673095D01*
X122181952Y-60673095D01*
X121991476Y-60720714D01*
X121896238Y-60768333D01*
X121801000Y-60863571D01*
X121753380Y-61006428D01*
X121753380Y-61101666D01*
X121801000Y-61244523D01*
X121848619Y-61292142D01*
X121848619Y-61673095D02*
X121801000Y-61720714D01*
X121753380Y-61815952D01*
X121753380Y-62054047D01*
X121801000Y-62149285D01*
X121848619Y-62196904D01*
X121943857Y-62244523D01*
X122039095Y-62244523D01*
X122181952Y-62196904D01*
X122753380Y-61625476D01*
X122753380Y-62244523D01*
X121753380Y-62577857D02*
X121753380Y-63244523D01*
X122753380Y-62815952D01*
%TO.C,U14*%
X121253095Y-41829380D02*
X121253095Y-42638904D01*
X121205476Y-42734142D01*
X121157857Y-42781761D01*
X121062619Y-42829380D01*
X120872142Y-42829380D01*
X120776904Y-42781761D01*
X120729285Y-42734142D01*
X120681666Y-42638904D01*
X120681666Y-41829380D01*
X119681666Y-42829380D02*
X120253095Y-42829380D01*
X119967380Y-42829380D02*
X119967380Y-41829380D01*
X120062619Y-41972238D01*
X120157857Y-42067476D01*
X120253095Y-42115095D01*
X118824523Y-42162714D02*
X118824523Y-42829380D01*
X119062619Y-41781761D02*
X119300714Y-42496047D01*
X118681666Y-42496047D01*
%TO.C,U1*%
X69341904Y-55545380D02*
X69341904Y-56354904D01*
X69294285Y-56450142D01*
X69246666Y-56497761D01*
X69151428Y-56545380D01*
X68960952Y-56545380D01*
X68865714Y-56497761D01*
X68818095Y-56450142D01*
X68770476Y-56354904D01*
X68770476Y-55545380D01*
X67770476Y-56545380D02*
X68341904Y-56545380D01*
X68056190Y-56545380D02*
X68056190Y-55545380D01*
X68151428Y-55688238D01*
X68246666Y-55783476D01*
X68341904Y-55831095D01*
%TO.C,U15*%
X93186095Y-47925380D02*
X93186095Y-48734904D01*
X93138476Y-48830142D01*
X93090857Y-48877761D01*
X92995619Y-48925380D01*
X92805142Y-48925380D01*
X92709904Y-48877761D01*
X92662285Y-48830142D01*
X92614666Y-48734904D01*
X92614666Y-47925380D01*
X91614666Y-48925380D02*
X92186095Y-48925380D01*
X91900380Y-48925380D02*
X91900380Y-47925380D01*
X91995619Y-48068238D01*
X92090857Y-48163476D01*
X92186095Y-48211095D01*
X90709904Y-47925380D02*
X91186095Y-47925380D01*
X91233714Y-48401571D01*
X91186095Y-48353952D01*
X91090857Y-48306333D01*
X90852761Y-48306333D01*
X90757523Y-48353952D01*
X90709904Y-48401571D01*
X90662285Y-48496809D01*
X90662285Y-48734904D01*
X90709904Y-48830142D01*
X90757523Y-48877761D01*
X90852761Y-48925380D01*
X91090857Y-48925380D01*
X91186095Y-48877761D01*
X91233714Y-48830142D01*
%TO.C,C5*%
X141454142Y-36114333D02*
X141501761Y-36066714D01*
X141549380Y-35923857D01*
X141549380Y-35828619D01*
X141501761Y-35685761D01*
X141406523Y-35590523D01*
X141311285Y-35542904D01*
X141120809Y-35495285D01*
X140977952Y-35495285D01*
X140787476Y-35542904D01*
X140692238Y-35590523D01*
X140597000Y-35685761D01*
X140549380Y-35828619D01*
X140549380Y-35923857D01*
X140597000Y-36066714D01*
X140644619Y-36114333D01*
X140549380Y-37019095D02*
X140549380Y-36542904D01*
X141025571Y-36495285D01*
X140977952Y-36542904D01*
X140930333Y-36638142D01*
X140930333Y-36876238D01*
X140977952Y-36971476D01*
X141025571Y-37019095D01*
X141120809Y-37066714D01*
X141358904Y-37066714D01*
X141454142Y-37019095D01*
X141501761Y-36971476D01*
X141549380Y-36876238D01*
X141549380Y-36638142D01*
X141501761Y-36542904D01*
X141454142Y-36495285D01*
%TO.C,U3*%
X114807904Y-55164380D02*
X114807904Y-55973904D01*
X114760285Y-56069142D01*
X114712666Y-56116761D01*
X114617428Y-56164380D01*
X114426952Y-56164380D01*
X114331714Y-56116761D01*
X114284095Y-56069142D01*
X114236476Y-55973904D01*
X114236476Y-55164380D01*
X113855523Y-55164380D02*
X113236476Y-55164380D01*
X113569809Y-55545333D01*
X113426952Y-55545333D01*
X113331714Y-55592952D01*
X113284095Y-55640571D01*
X113236476Y-55735809D01*
X113236476Y-55973904D01*
X113284095Y-56069142D01*
X113331714Y-56116761D01*
X113426952Y-56164380D01*
X113712666Y-56164380D01*
X113807904Y-56116761D01*
X113855523Y-56069142D01*
%TO.C,C28*%
X89923857Y-77405142D02*
X89971476Y-77452761D01*
X90114333Y-77500380D01*
X90209571Y-77500380D01*
X90352428Y-77452761D01*
X90447666Y-77357523D01*
X90495285Y-77262285D01*
X90542904Y-77071809D01*
X90542904Y-76928952D01*
X90495285Y-76738476D01*
X90447666Y-76643238D01*
X90352428Y-76548000D01*
X90209571Y-76500380D01*
X90114333Y-76500380D01*
X89971476Y-76548000D01*
X89923857Y-76595619D01*
X89542904Y-76595619D02*
X89495285Y-76548000D01*
X89400047Y-76500380D01*
X89161952Y-76500380D01*
X89066714Y-76548000D01*
X89019095Y-76595619D01*
X88971476Y-76690857D01*
X88971476Y-76786095D01*
X89019095Y-76928952D01*
X89590523Y-77500380D01*
X88971476Y-77500380D01*
X88400047Y-76928952D02*
X88495285Y-76881333D01*
X88542904Y-76833714D01*
X88590523Y-76738476D01*
X88590523Y-76690857D01*
X88542904Y-76595619D01*
X88495285Y-76548000D01*
X88400047Y-76500380D01*
X88209571Y-76500380D01*
X88114333Y-76548000D01*
X88066714Y-76595619D01*
X88019095Y-76690857D01*
X88019095Y-76738476D01*
X88066714Y-76833714D01*
X88114333Y-76881333D01*
X88209571Y-76928952D01*
X88400047Y-76928952D01*
X88495285Y-76976571D01*
X88542904Y-77024190D01*
X88590523Y-77119428D01*
X88590523Y-77309904D01*
X88542904Y-77405142D01*
X88495285Y-77452761D01*
X88400047Y-77500380D01*
X88209571Y-77500380D01*
X88114333Y-77452761D01*
X88066714Y-77405142D01*
X88019095Y-77309904D01*
X88019095Y-77119428D01*
X88066714Y-77024190D01*
X88114333Y-76976571D01*
X88209571Y-76928952D01*
%TO.C,C29*%
X100210857Y-77405142D02*
X100258476Y-77452761D01*
X100401333Y-77500380D01*
X100496571Y-77500380D01*
X100639428Y-77452761D01*
X100734666Y-77357523D01*
X100782285Y-77262285D01*
X100829904Y-77071809D01*
X100829904Y-76928952D01*
X100782285Y-76738476D01*
X100734666Y-76643238D01*
X100639428Y-76548000D01*
X100496571Y-76500380D01*
X100401333Y-76500380D01*
X100258476Y-76548000D01*
X100210857Y-76595619D01*
X99829904Y-76595619D02*
X99782285Y-76548000D01*
X99687047Y-76500380D01*
X99448952Y-76500380D01*
X99353714Y-76548000D01*
X99306095Y-76595619D01*
X99258476Y-76690857D01*
X99258476Y-76786095D01*
X99306095Y-76928952D01*
X99877523Y-77500380D01*
X99258476Y-77500380D01*
X98782285Y-77500380D02*
X98591809Y-77500380D01*
X98496571Y-77452761D01*
X98448952Y-77405142D01*
X98353714Y-77262285D01*
X98306095Y-77071809D01*
X98306095Y-76690857D01*
X98353714Y-76595619D01*
X98401333Y-76548000D01*
X98496571Y-76500380D01*
X98687047Y-76500380D01*
X98782285Y-76548000D01*
X98829904Y-76595619D01*
X98877523Y-76690857D01*
X98877523Y-76928952D01*
X98829904Y-77024190D01*
X98782285Y-77071809D01*
X98687047Y-77119428D01*
X98496571Y-77119428D01*
X98401333Y-77071809D01*
X98353714Y-77024190D01*
X98306095Y-76928952D01*
%TO.C,C31*%
X96527857Y-56347142D02*
X96575476Y-56394761D01*
X96718333Y-56442380D01*
X96813571Y-56442380D01*
X96956428Y-56394761D01*
X97051666Y-56299523D01*
X97099285Y-56204285D01*
X97146904Y-56013809D01*
X97146904Y-55870952D01*
X97099285Y-55680476D01*
X97051666Y-55585238D01*
X96956428Y-55490000D01*
X96813571Y-55442380D01*
X96718333Y-55442380D01*
X96575476Y-55490000D01*
X96527857Y-55537619D01*
X96194523Y-55442380D02*
X95575476Y-55442380D01*
X95908809Y-55823333D01*
X95765952Y-55823333D01*
X95670714Y-55870952D01*
X95623095Y-55918571D01*
X95575476Y-56013809D01*
X95575476Y-56251904D01*
X95623095Y-56347142D01*
X95670714Y-56394761D01*
X95765952Y-56442380D01*
X96051666Y-56442380D01*
X96146904Y-56394761D01*
X96194523Y-56347142D01*
X94623095Y-56442380D02*
X95194523Y-56442380D01*
X94908809Y-56442380D02*
X94908809Y-55442380D01*
X95004047Y-55585238D01*
X95099285Y-55680476D01*
X95194523Y-55728095D01*
%TO.C,D2*%
X90654095Y-72039380D02*
X90654095Y-71039380D01*
X90416000Y-71039380D01*
X90273142Y-71087000D01*
X90177904Y-71182238D01*
X90130285Y-71277476D01*
X90082666Y-71467952D01*
X90082666Y-71610809D01*
X90130285Y-71801285D01*
X90177904Y-71896523D01*
X90273142Y-71991761D01*
X90416000Y-72039380D01*
X90654095Y-72039380D01*
X89701714Y-71134619D02*
X89654095Y-71087000D01*
X89558857Y-71039380D01*
X89320761Y-71039380D01*
X89225523Y-71087000D01*
X89177904Y-71134619D01*
X89130285Y-71229857D01*
X89130285Y-71325095D01*
X89177904Y-71467952D01*
X89749333Y-72039380D01*
X89130285Y-72039380D01*
%TO.C,D3*%
X99544095Y-72039380D02*
X99544095Y-71039380D01*
X99306000Y-71039380D01*
X99163142Y-71087000D01*
X99067904Y-71182238D01*
X99020285Y-71277476D01*
X98972666Y-71467952D01*
X98972666Y-71610809D01*
X99020285Y-71801285D01*
X99067904Y-71896523D01*
X99163142Y-71991761D01*
X99306000Y-72039380D01*
X99544095Y-72039380D01*
X98639333Y-71039380D02*
X98020285Y-71039380D01*
X98353619Y-71420333D01*
X98210761Y-71420333D01*
X98115523Y-71467952D01*
X98067904Y-71515571D01*
X98020285Y-71610809D01*
X98020285Y-71848904D01*
X98067904Y-71944142D01*
X98115523Y-71991761D01*
X98210761Y-72039380D01*
X98496476Y-72039380D01*
X98591714Y-71991761D01*
X98639333Y-71944142D01*
%TO.C,J1*%
X95710333Y-33320380D02*
X95710333Y-34034666D01*
X95757952Y-34177523D01*
X95853190Y-34272761D01*
X95996047Y-34320380D01*
X96091285Y-34320380D01*
X94710333Y-34320380D02*
X95281761Y-34320380D01*
X94996047Y-34320380D02*
X94996047Y-33320380D01*
X95091285Y-33463238D01*
X95186523Y-33558476D01*
X95281761Y-33606095D01*
%TO.C,U16*%
X92678095Y-60879380D02*
X92678095Y-61688904D01*
X92630476Y-61784142D01*
X92582857Y-61831761D01*
X92487619Y-61879380D01*
X92297142Y-61879380D01*
X92201904Y-61831761D01*
X92154285Y-61784142D01*
X92106666Y-61688904D01*
X92106666Y-60879380D01*
X91106666Y-61879380D02*
X91678095Y-61879380D01*
X91392380Y-61879380D02*
X91392380Y-60879380D01*
X91487619Y-61022238D01*
X91582857Y-61117476D01*
X91678095Y-61165095D01*
X90249523Y-60879380D02*
X90440000Y-60879380D01*
X90535238Y-60927000D01*
X90582857Y-60974619D01*
X90678095Y-61117476D01*
X90725714Y-61307952D01*
X90725714Y-61688904D01*
X90678095Y-61784142D01*
X90630476Y-61831761D01*
X90535238Y-61879380D01*
X90344761Y-61879380D01*
X90249523Y-61831761D01*
X90201904Y-61784142D01*
X90154285Y-61688904D01*
X90154285Y-61450809D01*
X90201904Y-61355571D01*
X90249523Y-61307952D01*
X90344761Y-61260333D01*
X90535238Y-61260333D01*
X90630476Y-61307952D01*
X90678095Y-61355571D01*
X90725714Y-61450809D01*
%TO.C,Y1*%
X114014190Y-38924190D02*
X114014190Y-39400380D01*
X114347523Y-38400380D02*
X114014190Y-38924190D01*
X113680857Y-38400380D01*
X112823714Y-39400380D02*
X113395142Y-39400380D01*
X113109428Y-39400380D02*
X113109428Y-38400380D01*
X113204666Y-38543238D01*
X113299904Y-38638476D01*
X113395142Y-38686095D01*
%TO.C,C32*%
X132722857Y-43115142D02*
X132770476Y-43162761D01*
X132913333Y-43210380D01*
X133008571Y-43210380D01*
X133151428Y-43162761D01*
X133246666Y-43067523D01*
X133294285Y-42972285D01*
X133341904Y-42781809D01*
X133341904Y-42638952D01*
X133294285Y-42448476D01*
X133246666Y-42353238D01*
X133151428Y-42258000D01*
X133008571Y-42210380D01*
X132913333Y-42210380D01*
X132770476Y-42258000D01*
X132722857Y-42305619D01*
X132389523Y-42210380D02*
X131770476Y-42210380D01*
X132103809Y-42591333D01*
X131960952Y-42591333D01*
X131865714Y-42638952D01*
X131818095Y-42686571D01*
X131770476Y-42781809D01*
X131770476Y-43019904D01*
X131818095Y-43115142D01*
X131865714Y-43162761D01*
X131960952Y-43210380D01*
X132246666Y-43210380D01*
X132341904Y-43162761D01*
X132389523Y-43115142D01*
X131389523Y-42305619D02*
X131341904Y-42258000D01*
X131246666Y-42210380D01*
X131008571Y-42210380D01*
X130913333Y-42258000D01*
X130865714Y-42305619D01*
X130818095Y-42400857D01*
X130818095Y-42496095D01*
X130865714Y-42638952D01*
X131437142Y-43210380D01*
X130818095Y-43210380D01*
%TO.C,C26*%
X118364142Y-44274142D02*
X118411761Y-44226523D01*
X118459380Y-44083666D01*
X118459380Y-43988428D01*
X118411761Y-43845571D01*
X118316523Y-43750333D01*
X118221285Y-43702714D01*
X118030809Y-43655095D01*
X117887952Y-43655095D01*
X117697476Y-43702714D01*
X117602238Y-43750333D01*
X117507000Y-43845571D01*
X117459380Y-43988428D01*
X117459380Y-44083666D01*
X117507000Y-44226523D01*
X117554619Y-44274142D01*
X117554619Y-44655095D02*
X117507000Y-44702714D01*
X117459380Y-44797952D01*
X117459380Y-45036047D01*
X117507000Y-45131285D01*
X117554619Y-45178904D01*
X117649857Y-45226523D01*
X117745095Y-45226523D01*
X117887952Y-45178904D01*
X118459380Y-44607476D01*
X118459380Y-45226523D01*
X117459380Y-46083666D02*
X117459380Y-45893190D01*
X117507000Y-45797952D01*
X117554619Y-45750333D01*
X117697476Y-45655095D01*
X117887952Y-45607476D01*
X118268904Y-45607476D01*
X118364142Y-45655095D01*
X118411761Y-45702714D01*
X118459380Y-45797952D01*
X118459380Y-45988428D01*
X118411761Y-46083666D01*
X118364142Y-46131285D01*
X118268904Y-46178904D01*
X118030809Y-46178904D01*
X117935571Y-46131285D01*
X117887952Y-46083666D01*
X117840333Y-45988428D01*
X117840333Y-45797952D01*
X117887952Y-45702714D01*
X117935571Y-45655095D01*
X118030809Y-45607476D01*
%TO.C,J3*%
X137874333Y-35232380D02*
X137874333Y-35946666D01*
X137921952Y-36089523D01*
X138017190Y-36184761D01*
X138160047Y-36232380D01*
X138255285Y-36232380D01*
X137493380Y-35232380D02*
X136874333Y-35232380D01*
X137207666Y-35613333D01*
X137064809Y-35613333D01*
X136969571Y-35660952D01*
X136921952Y-35708571D01*
X136874333Y-35803809D01*
X136874333Y-36041904D01*
X136921952Y-36137142D01*
X136969571Y-36184761D01*
X137064809Y-36232380D01*
X137350523Y-36232380D01*
X137445761Y-36184761D01*
X137493380Y-36137142D01*
%TD*%
M02*
