G04 #@! TF.GenerationSoftware,KiCad,Pcbnew,5.1.5+dfsg1-2build2*
G04 #@! TF.CreationDate,2021-02-25T12:04:28+01:00*
G04 #@! TF.ProjectId,DIMMCartridgeConect,44494d4d-4361-4727-9472-69646765436f,rev?*
G04 #@! TF.SameCoordinates,Original*
G04 #@! TF.FileFunction,Copper,L2,Bot*
G04 #@! TF.FilePolarity,Positive*
%FSLAX46Y46*%
G04 Gerber Fmt 4.6, Leading zero omitted, Abs format (unit mm)*
G04 Created by KiCad (PCBNEW 5.1.5+dfsg1-2build2) date 2021-02-25 12:04:28*
%MOMM*%
%LPD*%
G04 APERTURE LIST*
%ADD10R,0.400000X1.800000*%
%ADD11R,1.800000X1.800000*%
%ADD12C,1.800000*%
%ADD13C,5.460000*%
%ADD14C,0.600000*%
%ADD15C,0.152400*%
G04 APERTURE END LIST*
D10*
X62200000Y-131640000D03*
X62800000Y-131640000D03*
X63400000Y-131640000D03*
X64000000Y-131640000D03*
X64600000Y-131640000D03*
X65200000Y-131640000D03*
X65800000Y-131640000D03*
X66400000Y-131640000D03*
X67000000Y-131640000D03*
X67600000Y-131640000D03*
X68200000Y-131640000D03*
X68800000Y-131640000D03*
X69400000Y-131640000D03*
X70000000Y-131640000D03*
X70600000Y-131640000D03*
X71200000Y-131640000D03*
X71800000Y-131640000D03*
X72400000Y-131640000D03*
X73000000Y-131640000D03*
X73600000Y-131640000D03*
X74200000Y-131640000D03*
X74800000Y-131640000D03*
X75400000Y-131640000D03*
X76000000Y-131640000D03*
X76600000Y-131640000D03*
X77200000Y-131640000D03*
X77800000Y-131640000D03*
X78400000Y-131640000D03*
X79000000Y-131640000D03*
X79600000Y-131640000D03*
X80200000Y-131640000D03*
X80800000Y-131640000D03*
X81400000Y-131640000D03*
X82000000Y-131640000D03*
X82600000Y-131640000D03*
X83200000Y-131640000D03*
X83800000Y-131640000D03*
X84400000Y-131640000D03*
X85000000Y-131640000D03*
X85600000Y-131640000D03*
X86200000Y-131640000D03*
X86800000Y-131640000D03*
X87400000Y-131640000D03*
X88000000Y-131640000D03*
X88600000Y-131640000D03*
X89200000Y-131640000D03*
X89800000Y-131640000D03*
X90400000Y-131640000D03*
X91000000Y-131640000D03*
X91600000Y-131640000D03*
X92200000Y-131640000D03*
X92800000Y-131640000D03*
X93400000Y-131640000D03*
X94000000Y-131640000D03*
X94600000Y-131640000D03*
X95200000Y-131640000D03*
X95800000Y-131640000D03*
X96400000Y-131640000D03*
X97000000Y-131640000D03*
X97600000Y-131640000D03*
X98200000Y-131640000D03*
X98800000Y-131640000D03*
X99400000Y-131640000D03*
X100000000Y-131640000D03*
X100600000Y-131640000D03*
X104200000Y-131640000D03*
X104800000Y-131640000D03*
X105400000Y-131640000D03*
X106000000Y-131640000D03*
X106600000Y-131640000D03*
X107200000Y-131640000D03*
X107800000Y-131640000D03*
X108400000Y-131640000D03*
X109000000Y-131640000D03*
X109600000Y-131640000D03*
X110200000Y-131640000D03*
X110800000Y-131640000D03*
X111400000Y-131640000D03*
X112000000Y-131640000D03*
X112600000Y-131640000D03*
X113200000Y-131640000D03*
X113800000Y-131640000D03*
X114400000Y-131640000D03*
X115000000Y-131640000D03*
X115600000Y-131640000D03*
X116200000Y-131640000D03*
X116800000Y-131640000D03*
X117400000Y-131640000D03*
X118000000Y-131640000D03*
X118600000Y-131640000D03*
X119200000Y-131640000D03*
X119800000Y-131640000D03*
X120400000Y-131640000D03*
X121000000Y-131640000D03*
X121600000Y-131640000D03*
X122200000Y-131640000D03*
X122800000Y-131640000D03*
X123400000Y-131640000D03*
X124000000Y-131640000D03*
X124600000Y-131640000D03*
X125200000Y-131640000D03*
X125800000Y-131640000D03*
X126400000Y-131640000D03*
X127000000Y-131640000D03*
X127600000Y-131640000D03*
X128200000Y-131640000D03*
X128800000Y-131640000D03*
X129400000Y-131640000D03*
X130000000Y-131640000D03*
X130600000Y-131640000D03*
X131200000Y-131640000D03*
X131800000Y-131640000D03*
X132400000Y-131640000D03*
X133000000Y-131640000D03*
X133600000Y-131640000D03*
X134200000Y-131640000D03*
X134800000Y-131640000D03*
X135400000Y-131640000D03*
X136000000Y-131640000D03*
X136600000Y-131640000D03*
X137200000Y-131640000D03*
X137800000Y-131640000D03*
D11*
X79680000Y-104000000D03*
D12*
X79680000Y-101460000D03*
X82220000Y-104000000D03*
X82220000Y-101460000D03*
X84760000Y-104000000D03*
X84760000Y-101460000D03*
X87300000Y-104000000D03*
X87300000Y-101460000D03*
X89840000Y-104000000D03*
X89840000Y-101460000D03*
X92380000Y-104000000D03*
X92380000Y-101460000D03*
X94920000Y-104000000D03*
X94920000Y-101460000D03*
X97460000Y-104000000D03*
X97460000Y-101460000D03*
X100000000Y-104000000D03*
X100000000Y-101460000D03*
X102540000Y-104000000D03*
X102540000Y-101460000D03*
D13*
X70790000Y-102980000D03*
D12*
X105080000Y-104000000D03*
X105080000Y-101460000D03*
X107620000Y-104000000D03*
X107620000Y-101460000D03*
X110160000Y-104000000D03*
X110160000Y-101460000D03*
X112700000Y-104000000D03*
X112700000Y-101460000D03*
X115240000Y-104000000D03*
X115240000Y-101460000D03*
X117780000Y-104000000D03*
X117780000Y-101460000D03*
X120320000Y-104000000D03*
X120320000Y-101460000D03*
D13*
X129210000Y-102980000D03*
X129210000Y-115680000D03*
D12*
X120320000Y-114160000D03*
X120320000Y-116700000D03*
X117780000Y-114160000D03*
X117780000Y-116700000D03*
X115240000Y-114160000D03*
X115240000Y-116700000D03*
X112700000Y-114160000D03*
X112700000Y-116700000D03*
X110160000Y-114160000D03*
X110160000Y-116700000D03*
X107620000Y-114160000D03*
X107620000Y-116700000D03*
X105080000Y-114160000D03*
X105080000Y-116700000D03*
D13*
X70790000Y-115680000D03*
D12*
X102540000Y-114160000D03*
X102540000Y-116700000D03*
X100000000Y-114160000D03*
X100000000Y-116700000D03*
X97460000Y-114160000D03*
X97460000Y-116700000D03*
X94920000Y-114160000D03*
X94920000Y-116700000D03*
X92380000Y-114160000D03*
X92380000Y-116700000D03*
X89840000Y-114160000D03*
X89840000Y-116700000D03*
X87300000Y-114160000D03*
X87300000Y-116700000D03*
X84760000Y-114160000D03*
X84760000Y-116700000D03*
X82220000Y-114160000D03*
X82220000Y-116700000D03*
X79680000Y-114160000D03*
D11*
X79680000Y-116700000D03*
D14*
X98476000Y-130085000D03*
X97587000Y-130085000D03*
D15*
X62200000Y-131640000D02*
X62200000Y-129277000D01*
X62200000Y-129277000D02*
X68885000Y-122592000D01*
X68885000Y-122592000D02*
X86919000Y-122592000D01*
X92380000Y-117131000D02*
X92380000Y-116700000D01*
X86919000Y-122592000D02*
X92380000Y-117131000D01*
X93650000Y-116369000D02*
X92761000Y-115480000D01*
X91060000Y-115480000D02*
X89840000Y-116700000D01*
X92761000Y-115480000D02*
X91060000Y-115480000D01*
X62800000Y-131640000D02*
X62800000Y-129312000D01*
X62800000Y-129312000D02*
X69139000Y-122973000D01*
X88443000Y-122973000D02*
X93650000Y-117766000D01*
X69139000Y-122973000D02*
X88443000Y-122973000D01*
X93650000Y-117766000D02*
X93650000Y-116369000D01*
X94920000Y-118020000D02*
X94920000Y-116700000D01*
X70663000Y-123354000D02*
X89586000Y-123354000D01*
X67000000Y-127017000D02*
X70663000Y-123354000D01*
X89586000Y-123354000D02*
X94920000Y-118020000D01*
X67000000Y-131640000D02*
X67000000Y-127017000D01*
X67600000Y-131640000D02*
X67600000Y-127179000D01*
X67600000Y-127179000D02*
X71044000Y-123735000D01*
X86919000Y-123735000D02*
X90094000Y-123735000D01*
X71044000Y-123735000D02*
X86919000Y-123735000D01*
X86919000Y-123735000D02*
X87985810Y-123735000D01*
X90094000Y-123735000D02*
X96190000Y-117639000D01*
X96190000Y-117639000D02*
X96190000Y-113321000D01*
X96190000Y-113321000D02*
X95809000Y-112940000D01*
X95809000Y-112940000D02*
X89205000Y-112940000D01*
X89205000Y-112940000D02*
X88951000Y-112940000D01*
X88951000Y-112940000D02*
X88570000Y-113321000D01*
X88570000Y-115430000D02*
X87300000Y-116700000D01*
X88570000Y-113321000D02*
X88570000Y-115430000D01*
X71800000Y-131640000D02*
X71800000Y-130472000D01*
X71800000Y-131640000D02*
X71800000Y-127297000D01*
X71800000Y-127297000D02*
X74981000Y-124116000D01*
X74981000Y-124116000D02*
X91237000Y-124116000D01*
X97460000Y-117893000D02*
X97460000Y-116700000D01*
X91237000Y-124116000D02*
X97460000Y-117893000D01*
X86030000Y-115430000D02*
X84760000Y-116700000D01*
X98730000Y-117893000D02*
X98730000Y-113321000D01*
X92126000Y-124497000D02*
X98730000Y-117893000D01*
X75362000Y-124497000D02*
X92126000Y-124497000D01*
X72400000Y-127459000D02*
X75362000Y-124497000D01*
X72400000Y-131640000D02*
X72400000Y-127459000D01*
X86855500Y-112495500D02*
X86030000Y-113321000D01*
X97904500Y-112495500D02*
X86855500Y-112495500D01*
X86030000Y-113321000D02*
X86030000Y-115430000D01*
X98730000Y-113321000D02*
X97904500Y-112495500D01*
X76600000Y-127831000D02*
X76600000Y-131640000D01*
X92888000Y-124878000D02*
X79553000Y-124878000D01*
X100000000Y-117766000D02*
X92888000Y-124878000D01*
X79553000Y-124878000D02*
X76600000Y-127831000D01*
X100000000Y-116700000D02*
X100000000Y-117766000D01*
X100000000Y-112051000D02*
X84633000Y-112051000D01*
X94285000Y-125259000D02*
X101270000Y-118274000D01*
X79807000Y-125259000D02*
X94285000Y-125259000D01*
X83617000Y-113067000D02*
X83617000Y-115303000D01*
X101270000Y-113321000D02*
X100000000Y-112051000D01*
X77200000Y-127866000D02*
X79807000Y-125259000D01*
X83617000Y-115303000D02*
X82220000Y-116700000D01*
X84633000Y-112051000D02*
X83617000Y-113067000D01*
X101270000Y-118274000D02*
X101270000Y-113321000D01*
X77200000Y-131640000D02*
X77200000Y-127866000D01*
X81400000Y-131640000D02*
X81400000Y-127984000D01*
X81400000Y-127984000D02*
X83744000Y-125640000D01*
X83744000Y-125640000D02*
X95428000Y-125640000D01*
X102540000Y-118528000D02*
X102540000Y-116700000D01*
X95428000Y-125640000D02*
X102540000Y-118528000D01*
X82000000Y-131640000D02*
X82000000Y-128400000D01*
X82000000Y-128400000D02*
X84379000Y-126021000D01*
X84379000Y-126021000D02*
X96444000Y-126021000D01*
X96444000Y-126021000D02*
X103810000Y-118655000D01*
X103810000Y-118655000D02*
X103810000Y-111924000D01*
X103810000Y-111924000D02*
X104191000Y-111543000D01*
X104191000Y-111543000D02*
X117907000Y-111543000D01*
X117907000Y-111543000D02*
X119050000Y-112686000D01*
X119050000Y-115430000D02*
X120320000Y-116700000D01*
X119050000Y-112686000D02*
X119050000Y-115430000D01*
X86200000Y-131640000D02*
X86200000Y-128899000D01*
X86200000Y-128899000D02*
X88697000Y-126402000D01*
X88697000Y-126402000D02*
X97587000Y-126402000D01*
X105080000Y-118909000D02*
X105080000Y-116700000D01*
X97587000Y-126402000D02*
X105080000Y-118909000D01*
X116510000Y-115430000D02*
X117780000Y-116700000D01*
X116510000Y-112559000D02*
X116510000Y-115430000D01*
X107162810Y-111924000D02*
X115875000Y-111924000D01*
X106350000Y-112736810D02*
X107162810Y-111924000D01*
X106350000Y-118655000D02*
X106350000Y-112736810D01*
X98222000Y-126783000D02*
X106350000Y-118655000D01*
X89205000Y-126783000D02*
X98222000Y-126783000D01*
X115875000Y-111924000D02*
X116510000Y-112559000D01*
X86800000Y-129188000D02*
X89205000Y-126783000D01*
X86800000Y-131640000D02*
X86800000Y-129188000D01*
X91000000Y-131640000D02*
X91000000Y-129179000D01*
X91000000Y-129179000D02*
X92888000Y-127291000D01*
X92888000Y-127291000D02*
X98603000Y-127291000D01*
X107620000Y-118274000D02*
X107620000Y-116700000D01*
X98603000Y-127291000D02*
X107620000Y-118274000D01*
X91600000Y-131640000D02*
X91600000Y-129468000D01*
X91600000Y-129468000D02*
X93396000Y-127672000D01*
X93396000Y-127672000D02*
X99111000Y-127672000D01*
X99111000Y-127672000D02*
X108890000Y-117893000D01*
X108890000Y-117893000D02*
X108890000Y-113321000D01*
X108890000Y-113321000D02*
X109779000Y-112432000D01*
X109779000Y-112432000D02*
X113208000Y-112432000D01*
X113208000Y-112432000D02*
X113970000Y-113194000D01*
X113970000Y-115430000D02*
X115240000Y-116700000D01*
X113970000Y-113194000D02*
X113970000Y-115430000D01*
X95800000Y-131640000D02*
X95800000Y-129078000D01*
X95800000Y-129078000D02*
X96825000Y-128053000D01*
X96825000Y-128053000D02*
X99619000Y-128053000D01*
X110160000Y-117512000D02*
X110160000Y-116700000D01*
X99619000Y-128053000D02*
X110160000Y-117512000D01*
X96400000Y-131640000D02*
X96400000Y-129748000D01*
X96400000Y-129748000D02*
X97587000Y-128561000D01*
X97587000Y-128561000D02*
X99746000Y-128561000D01*
X99746000Y-128561000D02*
X108001000Y-120306000D01*
X109094000Y-120306000D02*
X112700000Y-116700000D01*
X108001000Y-120306000D02*
X109094000Y-120306000D01*
X120701000Y-110146000D02*
X94285000Y-110146000D01*
X92380000Y-108241000D02*
X92380000Y-104000000D01*
X94285000Y-110146000D02*
X92380000Y-108241000D01*
X122479000Y-111924000D02*
X120701000Y-110146000D01*
X122479000Y-122719000D02*
X122479000Y-111924000D01*
X105461000Y-127926000D02*
X117272000Y-127926000D01*
X104800000Y-128587000D02*
X105461000Y-127926000D01*
X117272000Y-127926000D02*
X122479000Y-122719000D01*
X104800000Y-131640000D02*
X104800000Y-128587000D01*
X105400000Y-131640000D02*
X105400000Y-128749000D01*
X86030000Y-102730000D02*
X84760000Y-104000000D01*
X86030000Y-99478000D02*
X86030000Y-102730000D01*
X105842000Y-128307000D02*
X117526000Y-128307000D01*
X117526000Y-128307000D02*
X122860000Y-122973000D01*
X122860000Y-122973000D02*
X122860000Y-111797000D01*
X93650000Y-108622000D02*
X93650000Y-99097000D01*
X122860000Y-111797000D02*
X120828000Y-109765000D01*
X120828000Y-109765000D02*
X94793000Y-109765000D01*
X105400000Y-128749000D02*
X105842000Y-128307000D01*
X94793000Y-109765000D02*
X93650000Y-108622000D01*
X86919000Y-98589000D02*
X86030000Y-99478000D01*
X93650000Y-99097000D02*
X93142000Y-98589000D01*
X93142000Y-98589000D02*
X86919000Y-98589000D01*
X94920000Y-107860000D02*
X94920000Y-104000000D01*
X96444000Y-109384000D02*
X94920000Y-107860000D01*
X120955000Y-109384000D02*
X96444000Y-109384000D01*
X123241000Y-111670000D02*
X120955000Y-109384000D01*
X123241000Y-123227000D02*
X123241000Y-111670000D01*
X117780000Y-128688000D02*
X123241000Y-123227000D01*
X110160000Y-128688000D02*
X117780000Y-128688000D01*
X109600000Y-129248000D02*
X110160000Y-128688000D01*
X109600000Y-131640000D02*
X109600000Y-129248000D01*
X110200000Y-131640000D02*
X110200000Y-129537000D01*
X110200000Y-129537000D02*
X110668000Y-129069000D01*
X123622000Y-111543000D02*
X121082000Y-109003000D01*
X121082000Y-109003000D02*
X97206000Y-109003000D01*
X97206000Y-109003000D02*
X96190000Y-107987000D01*
X96190000Y-107987000D02*
X96190000Y-99351000D01*
X96190000Y-99351000D02*
X95047000Y-98208000D01*
X95047000Y-98208000D02*
X84125000Y-98208000D01*
X84125000Y-98208000D02*
X83490000Y-98843000D01*
X83490000Y-102730000D02*
X82220000Y-104000000D01*
X83490000Y-98843000D02*
X83490000Y-102730000D01*
X118034000Y-129069000D02*
X123622000Y-123481000D01*
X123622000Y-123481000D02*
X123622000Y-111543000D01*
X110668000Y-129069000D02*
X118034000Y-129069000D01*
X97460000Y-107225000D02*
X97460000Y-104000000D01*
X121209000Y-108622000D02*
X98857000Y-108622000D01*
X124003000Y-111416000D02*
X121209000Y-108622000D01*
X98857000Y-108622000D02*
X97460000Y-107225000D01*
X124003000Y-123735000D02*
X124003000Y-111416000D01*
X114986000Y-129450000D02*
X118288000Y-129450000D01*
X114400000Y-130036000D02*
X114986000Y-129450000D01*
X118288000Y-129450000D02*
X124003000Y-123735000D01*
X114400000Y-131640000D02*
X114400000Y-130036000D01*
X115000000Y-131640000D02*
X115000000Y-130325000D01*
X115000000Y-130325000D02*
X115494000Y-129831000D01*
X80950000Y-102730000D02*
X79680000Y-104000000D01*
X96190000Y-97827000D02*
X81585000Y-97827000D01*
X80950000Y-98462000D02*
X80950000Y-102730000D01*
X98730000Y-100367000D02*
X96190000Y-97827000D01*
X98730000Y-106971000D02*
X98730000Y-100367000D01*
X100000000Y-108241000D02*
X98730000Y-106971000D01*
X121336000Y-108241000D02*
X100000000Y-108241000D01*
X124384000Y-111289000D02*
X121336000Y-108241000D01*
X81585000Y-97827000D02*
X80950000Y-98462000D01*
X118415000Y-129831000D02*
X118542000Y-129831000D01*
X115494000Y-129831000D02*
X118415000Y-129831000D01*
X124384000Y-123989000D02*
X124384000Y-123735000D01*
X124384000Y-123735000D02*
X124384000Y-111289000D01*
X118542000Y-129831000D02*
X124384000Y-123989000D01*
X100000000Y-106590000D02*
X100000000Y-104000000D01*
X101270000Y-107860000D02*
X100000000Y-106590000D01*
X121463000Y-107860000D02*
X101270000Y-107860000D01*
X124765000Y-111162000D02*
X121463000Y-107860000D01*
X124765000Y-124243000D02*
X124765000Y-111162000D01*
X119200000Y-129808000D02*
X124765000Y-124243000D01*
X119200000Y-131640000D02*
X119200000Y-129808000D01*
X119800000Y-131640000D02*
X119800000Y-130097000D01*
X120320000Y-129577000D02*
X122987000Y-129577000D01*
X116510000Y-102730000D02*
X117780000Y-104000000D01*
X133655000Y-118909000D02*
X133655000Y-111797000D01*
X119800000Y-130097000D02*
X120320000Y-129577000D01*
X114351000Y-97954000D02*
X116510000Y-100113000D01*
X122987000Y-129577000D02*
X133655000Y-118909000D01*
X101270000Y-106082000D02*
X101270000Y-99732000D01*
X103048000Y-97954000D02*
X114351000Y-97954000D01*
X102667000Y-107479000D02*
X101270000Y-106082000D01*
X116510000Y-100113000D02*
X116510000Y-102730000D01*
X101270000Y-99732000D02*
X103048000Y-97954000D01*
X133655000Y-111797000D02*
X131877000Y-110019000D01*
X124892000Y-110019000D02*
X122352000Y-107479000D01*
X125781000Y-110019000D02*
X124892000Y-110019000D01*
X122352000Y-107479000D02*
X102667000Y-107479000D01*
X131877000Y-110019000D02*
X125781000Y-110019000D01*
X125781000Y-110019000D02*
X125654000Y-110019000D01*
X132321500Y-120877500D02*
X132512000Y-120687000D01*
X124000000Y-129199000D02*
X132321500Y-120877500D01*
X124000000Y-131640000D02*
X124000000Y-129199000D01*
X103810000Y-107098000D02*
X102540000Y-105828000D01*
X102540000Y-105828000D02*
X102540000Y-104000000D01*
X132321500Y-120877500D02*
X134036000Y-119163000D01*
X134036000Y-111924000D02*
X134036000Y-111670000D01*
X134036000Y-119163000D02*
X134036000Y-111924000D01*
X134036000Y-111670000D02*
X132004000Y-109638000D01*
X125019000Y-109638000D02*
X122479000Y-107098000D01*
X132004000Y-109638000D02*
X125019000Y-109638000D01*
X122479000Y-107098000D02*
X103810000Y-107098000D01*
X124600000Y-131640000D02*
X124600000Y-129234000D01*
X124600000Y-129234000D02*
X134544000Y-119290000D01*
X134544000Y-119290000D02*
X134544000Y-111543000D01*
X134544000Y-111543000D02*
X132258000Y-109257000D01*
X132258000Y-109257000D02*
X125273000Y-109257000D01*
X125273000Y-109257000D02*
X122733000Y-106717000D01*
X122733000Y-106717000D02*
X104572000Y-106717000D01*
X104572000Y-106717000D02*
X103810000Y-105955000D01*
X103810000Y-105955000D02*
X103810000Y-98893810D01*
X103810000Y-98893810D02*
X104368810Y-98335000D01*
X104368810Y-98335000D02*
X112827000Y-98335000D01*
X112827000Y-98335000D02*
X113970000Y-99478000D01*
X113970000Y-102730000D02*
X115240000Y-104000000D01*
X113970000Y-99478000D02*
X113970000Y-102730000D01*
X128800000Y-131640000D02*
X128800000Y-125669000D01*
X128800000Y-125669000D02*
X134925000Y-119544000D01*
X134925000Y-119544000D02*
X134925000Y-111289000D01*
X134925000Y-111289000D02*
X132512000Y-108876000D01*
X132512000Y-108876000D02*
X125400000Y-108876000D01*
X125400000Y-108876000D02*
X122860000Y-106336000D01*
X122860000Y-106336000D02*
X105842000Y-106336000D01*
X105080000Y-105574000D02*
X105080000Y-104000000D01*
X105842000Y-106336000D02*
X105080000Y-105574000D01*
X129400000Y-131640000D02*
X129400000Y-125704000D01*
X129400000Y-125704000D02*
X135306000Y-119798000D01*
X135306000Y-119798000D02*
X135306000Y-111035000D01*
X135306000Y-111035000D02*
X132766000Y-108495000D01*
X132766000Y-108495000D02*
X125654000Y-108495000D01*
X125654000Y-108495000D02*
X123114000Y-105955000D01*
X107747000Y-105955000D02*
X107239000Y-105955000D01*
X123114000Y-105955000D02*
X107747000Y-105955000D01*
X107239000Y-105955000D02*
X106350000Y-105066000D01*
X106350000Y-105066000D02*
X106350000Y-99478000D01*
X106350000Y-99478000D02*
X106985000Y-98843000D01*
X106985000Y-98843000D02*
X110541000Y-98843000D01*
X110541000Y-98843000D02*
X111430000Y-99732000D01*
X111430000Y-102730000D02*
X112700000Y-104000000D01*
X111430000Y-99732000D02*
X111430000Y-102730000D01*
X133600000Y-131640000D02*
X133600000Y-122139000D01*
X133600000Y-122139000D02*
X135687000Y-120052000D01*
X135687000Y-120052000D02*
X135687000Y-110781000D01*
X135687000Y-110781000D02*
X133020000Y-108114000D01*
X133020000Y-108114000D02*
X125908000Y-108114000D01*
X125908000Y-108114000D02*
X123368000Y-105574000D01*
X123368000Y-105574000D02*
X108128000Y-105574000D01*
X107620000Y-105066000D02*
X107620000Y-104000000D01*
X108128000Y-105574000D02*
X107620000Y-105066000D01*
X134200000Y-131640000D02*
X134200000Y-122174000D01*
X134200000Y-122174000D02*
X136068000Y-120306000D01*
X136068000Y-120306000D02*
X136068000Y-110400000D01*
X136068000Y-110400000D02*
X133274000Y-107606000D01*
X133274000Y-107606000D02*
X126035000Y-107606000D01*
X126035000Y-107606000D02*
X123622000Y-105193000D01*
X111353000Y-105193000D02*
X110160000Y-104000000D01*
X123622000Y-105193000D02*
X111353000Y-105193000D01*
X98476000Y-130085000D02*
X98349000Y-129958000D01*
X90348000Y-98970000D02*
X89332000Y-98970000D01*
X117018000Y-127545000D02*
X122098000Y-122465000D01*
X94031000Y-110527000D02*
X91110000Y-107606000D01*
X88570000Y-102730000D02*
X87300000Y-104000000D01*
X122098000Y-122465000D02*
X122098000Y-112178000D01*
X88570000Y-99732000D02*
X88570000Y-102730000D01*
X91110000Y-99732000D02*
X90348000Y-98970000D01*
X122098000Y-112178000D02*
X120447000Y-110527000D01*
X120447000Y-110527000D02*
X94031000Y-110527000D01*
X91110000Y-107606000D02*
X91110000Y-99732000D01*
X89332000Y-98970000D02*
X88570000Y-99732000D01*
X98476000Y-130085000D02*
X99619000Y-130085000D01*
X99619000Y-130085000D02*
X101143000Y-128561000D01*
X104191000Y-128561000D02*
X105207000Y-127545000D01*
X101143000Y-128561000D02*
X104191000Y-128561000D01*
X105207000Y-127545000D02*
X117018000Y-127545000D01*
X91491000Y-110908000D02*
X89840000Y-109257000D01*
X120320000Y-110908000D02*
X91491000Y-110908000D01*
X89840000Y-109257000D02*
X89840000Y-104000000D01*
X121717000Y-112305000D02*
X120320000Y-110908000D01*
X121717000Y-122211000D02*
X121717000Y-112305000D01*
X116764000Y-127164000D02*
X121717000Y-122211000D01*
X97587000Y-130085000D02*
X97587000Y-129831000D01*
X97587000Y-129831000D02*
X98095000Y-129323000D01*
X98095000Y-129323000D02*
X99746000Y-129323000D01*
X99746000Y-129323000D02*
X101016000Y-128053000D01*
X104064000Y-128053000D02*
X104953000Y-127164000D01*
X101016000Y-128053000D02*
X104064000Y-128053000D01*
X104953000Y-127164000D02*
X116764000Y-127164000D01*
M02*
