M48
; DRILL file {KiCad 5.1.5+dfsg1-2build2} date Do 25 Feb 2021 12:04:30
; FORMAT={-:-/ absolute / inch / decimal}
; #@! TF.CreationDate,2021-02-25T12:04:30+01:00
; #@! TF.GenerationSoftware,Kicad,Pcbnew,5.1.5+dfsg1-2build2
; #@! TF.FileFunction,Plated,1,2,PTH
FMAT,2
INCH
T1C0.0157
T2C0.0433
T3C0.1059
%
G90
G05
T1
X3.842Y-5.1215
X3.877Y-5.1215
T2
X3.137Y-3.9945
X3.137Y-4.0945
X3.237Y-3.9945
X3.237Y-4.0945
X3.337Y-3.9945
X3.337Y-4.0945
X3.437Y-3.9945
X3.437Y-4.0945
X3.537Y-3.9945
X3.537Y-4.0945
X3.637Y-3.9945
X3.637Y-4.0945
X3.737Y-3.9945
X3.737Y-4.0945
X3.837Y-3.9945
X3.837Y-4.0945
X3.937Y-3.9945
X3.937Y-4.0945
X4.037Y-3.9945
X4.037Y-4.0945
X4.137Y-3.9945
X4.137Y-4.0945
X4.237Y-3.9945
X4.237Y-4.0945
X4.337Y-3.9945
X4.337Y-4.0945
X4.437Y-3.9945
X4.437Y-4.0945
X4.537Y-3.9945
X4.537Y-4.0945
X4.637Y-3.9945
X4.637Y-4.0945
X4.737Y-3.9945
X4.737Y-4.0945
X3.137Y-4.4945
X3.137Y-4.5945
X3.237Y-4.4945
X3.237Y-4.5945
X3.337Y-4.4945
X3.337Y-4.5945
X3.437Y-4.4945
X3.437Y-4.5945
X3.537Y-4.4945
X3.537Y-4.5945
X3.637Y-4.4945
X3.637Y-4.5945
X3.737Y-4.4945
X3.737Y-4.5945
X3.837Y-4.4945
X3.837Y-4.5945
X3.937Y-4.4945
X3.937Y-4.5945
X4.037Y-4.4945
X4.037Y-4.5945
X4.137Y-4.4945
X4.137Y-4.5945
X4.237Y-4.4945
X4.237Y-4.5945
X4.337Y-4.4945
X4.337Y-4.5945
X4.437Y-4.4945
X4.437Y-4.5945
X4.537Y-4.4945
X4.537Y-4.5945
X4.637Y-4.4945
X4.637Y-4.5945
X4.737Y-4.4945
X4.737Y-4.5945
T3
X2.787Y-4.0543
X5.087Y-4.0543
X2.787Y-4.5543
X5.087Y-4.5543
T0
M30
