G04 #@! TF.FileFunction,Profile,NP*
%FSLAX46Y46*%
G04 Gerber Fmt 4.6, Leading zero omitted, Abs format (unit mm)*
G04 Created by KiCad (PCBNEW 4.1.0-alpha+201605191647+6814~44~ubuntu14.04.1-product) date Tue May 24 14:16:21 2016*
%MOMM*%
%LPD*%
G01*
G04 APERTURE LIST*
%ADD10C,0.100000*%
G04 APERTURE END LIST*
D10*
X53312000Y-135916000D02*
X49992000Y-134986000D01*
X56532000Y-136736000D02*
X53312000Y-135916000D01*
X61712000Y-137936000D02*
X56532000Y-136736000D01*
X67632000Y-139116000D02*
X61712000Y-137936000D01*
X72892000Y-139996000D02*
X67632000Y-139116000D01*
X78192000Y-140716000D02*
X72892000Y-139996000D01*
X83552000Y-141276000D02*
X78192000Y-140716000D01*
X88742000Y-141686000D02*
X83552000Y-141276000D01*
X92882000Y-141896000D02*
X88742000Y-141686000D01*
X98602000Y-142006000D02*
X92882000Y-141896000D01*
X102582000Y-142006000D02*
X98602000Y-142006000D01*
X106212000Y-141916000D02*
X102582000Y-142006000D01*
X111462000Y-141656000D02*
X106212000Y-141916000D01*
X115842000Y-141336000D02*
X111462000Y-141656000D01*
X120962000Y-140796000D02*
X115842000Y-141336000D01*
X124962000Y-140296000D02*
X120962000Y-140796000D01*
X130032000Y-139516000D02*
X124962000Y-140296000D01*
X135352000Y-138536000D02*
X130032000Y-139516000D01*
X139252000Y-137716000D02*
X135352000Y-138536000D01*
X142962000Y-136856000D02*
X139252000Y-137716000D01*
X147202000Y-135766000D02*
X142962000Y-136856000D01*
X149992000Y-134986000D02*
X147202000Y-135766000D01*
X150000000Y-46000000D02*
G75*
G03X146000000Y-42000000I-4000000J0D01*
G01*
X54000000Y-42000000D02*
G75*
G03X50000000Y-46000000I0J-4000000D01*
G01*
X150000000Y-47000000D02*
X150000000Y-66000000D01*
X50000000Y-46000000D02*
X50000000Y-135000000D01*
X150000000Y-46000000D02*
X150000000Y-135000000D01*
X54000000Y-42000000D02*
X146000000Y-42000000D01*
M02*
