M48
;DRILL file {KiCad 4.1.0-alpha+201605191647+6814~44~ubuntu14.04.1-product} date Tue May 24 14:16:23 2016
;FORMAT={-:-/ absolute / inch / decimal}
FMAT,2
INCH,TZ
T1C0.012
T2C0.016
T3C0.020
T4C0.024
T5C0.032
T6C0.063
T7C0.071
T8C0.126
%
G90
G05
M72
T1
X3.125Y-3.5384
X3.125Y-3.5384
X3.125Y-3.6467
X3.125Y-3.6467
X3.125Y-3.7549
X3.125Y-3.7549
X3.125Y-3.8632
X3.125Y-3.8632
X3.125Y-3.9715
X3.125Y-3.9715
X3.125Y-4.0797
X3.125Y-4.0797
X3.125Y-4.188
X3.125Y-4.188
X3.125Y-4.2963
X3.125Y-4.2963
X3.2333Y-3.5384
X3.2333Y-3.5384
X3.2333Y-3.6467
X3.2333Y-3.6467
X3.2333Y-3.7549
X3.2333Y-3.7549
X3.2333Y-3.8632
X3.2333Y-3.8632
X3.2333Y-3.9715
X3.2333Y-3.9715
X3.2333Y-4.0797
X3.2333Y-4.0797
X3.2333Y-4.188
X3.2333Y-4.188
X3.2333Y-4.2963
X3.2333Y-4.2963
X3.3415Y-3.5384
X3.3415Y-3.5384
X3.3415Y-3.6467
X3.3415Y-3.6467
X3.3415Y-3.7549
X3.3415Y-3.7549
X3.3415Y-3.8632
X3.3415Y-3.8632
X3.3415Y-3.9715
X3.3415Y-3.9715
X3.3415Y-4.0797
X3.3415Y-4.0797
X3.3415Y-4.188
X3.3415Y-4.188
X3.3415Y-4.2963
X3.3415Y-4.2963
X3.4498Y-3.5384
X3.4498Y-3.5384
X3.4498Y-3.6467
X3.4498Y-3.6467
X3.4498Y-3.7549
X3.4498Y-3.7549
X3.4498Y-3.8632
X3.4498Y-3.8632
X3.4498Y-3.9715
X3.4498Y-3.9715
X3.4498Y-4.0797
X3.4498Y-4.0797
X3.4498Y-4.188
X3.4498Y-4.188
X3.4498Y-4.2963
X3.4498Y-4.2963
X3.5581Y-3.5384
X3.5581Y-3.5384
X3.5581Y-3.6467
X3.5581Y-3.6467
X3.5581Y-3.7549
X3.5581Y-3.7549
X3.5581Y-3.8632
X3.5581Y-3.8632
X3.5581Y-3.9715
X3.5581Y-3.9715
X3.5581Y-4.0797
X3.5581Y-4.0797
X3.5581Y-4.188
X3.5581Y-4.188
X3.5581Y-4.2963
X3.5581Y-4.2963
X3.6663Y-3.5384
X3.6663Y-3.5384
X3.6663Y-3.6467
X3.6663Y-3.6467
X3.6663Y-3.7549
X3.6663Y-3.7549
X3.6663Y-3.8632
X3.6663Y-3.8632
X3.6663Y-3.9715
X3.6663Y-3.9715
X3.6663Y-4.0797
X3.6663Y-4.0797
X3.6663Y-4.188
X3.6663Y-4.188
X3.6663Y-4.2963
X3.6663Y-4.2963
X3.7746Y-3.5384
X3.7746Y-3.5384
X3.7746Y-3.6467
X3.7746Y-3.6467
X3.7746Y-3.7549
X3.7746Y-3.7549
X3.7746Y-3.8632
X3.7746Y-3.8632
X3.7746Y-3.9715
X3.7746Y-3.9715
X3.7746Y-4.0797
X3.7746Y-4.0797
X3.7746Y-4.188
X3.7746Y-4.188
X3.7746Y-4.2963
X3.7746Y-4.2963
X3.8829Y-3.5384
X3.8829Y-3.5384
X3.8829Y-3.6467
X3.8829Y-3.6467
X3.8829Y-3.7549
X3.8829Y-3.7549
X3.8829Y-3.8632
X3.8829Y-3.8632
X3.8829Y-3.9715
X3.8829Y-3.9715
X3.8829Y-4.0797
X3.8829Y-4.0797
X3.8829Y-4.188
X3.8829Y-4.188
X3.8829Y-4.2963
X3.8829Y-4.2963
X3.9911Y-3.5384
X3.9911Y-3.5384
X3.9911Y-3.6467
X3.9911Y-3.6467
X3.9911Y-3.7549
X3.9911Y-3.7549
X3.9911Y-3.8632
X3.9911Y-3.8632
X3.9911Y-3.9715
X3.9911Y-3.9715
X3.9911Y-4.0797
X3.9911Y-4.0797
X3.9911Y-4.188
X3.9911Y-4.188
X3.9911Y-4.2963
X3.9911Y-4.2963
X4.0994Y-3.5384
X4.0994Y-3.5384
X4.0994Y-3.6467
X4.0994Y-3.6467
X4.0994Y-3.7549
X4.0994Y-3.7549
X4.0994Y-3.8632
X4.0994Y-3.8632
X4.0994Y-3.9715
X4.0994Y-3.9715
X4.0994Y-4.0797
X4.0994Y-4.0797
X4.0994Y-4.188
X4.0994Y-4.188
X4.0994Y-4.2963
X4.0994Y-4.2963
X4.2077Y-3.5384
X4.2077Y-3.5384
X4.2077Y-3.6467
X4.2077Y-3.6467
X4.2077Y-3.7549
X4.2077Y-3.7549
X4.2077Y-3.8632
X4.2077Y-3.8632
X4.2077Y-3.9715
X4.2077Y-3.9715
X4.2077Y-4.0797
X4.2077Y-4.0797
X4.2077Y-4.188
X4.2077Y-4.188
X4.2077Y-4.2963
X4.2077Y-4.2963
X4.3159Y-3.5384
X4.3159Y-3.5384
X4.3159Y-3.6467
X4.3159Y-3.6467
X4.3159Y-3.7549
X4.3159Y-3.7549
X4.3159Y-3.8632
X4.3159Y-3.8632
X4.3159Y-3.9715
X4.3159Y-3.9715
X4.3159Y-4.0797
X4.3159Y-4.0797
X4.3159Y-4.188
X4.3159Y-4.188
X4.3159Y-4.2963
X4.3159Y-4.2963
X4.4242Y-3.5384
X4.4242Y-3.5384
X4.4242Y-3.6467
X4.4242Y-3.6467
X4.4242Y-3.7549
X4.4242Y-3.7549
X4.4242Y-3.8632
X4.4242Y-3.8632
X4.4242Y-3.9715
X4.4242Y-3.9715
X4.4242Y-4.0797
X4.4242Y-4.0797
X4.4242Y-4.188
X4.4242Y-4.188
X4.4242Y-4.2963
X4.4242Y-4.2963
X4.5325Y-3.5384
X4.5325Y-3.5384
X4.5325Y-3.6467
X4.5325Y-3.6467
X4.5325Y-3.7549
X4.5325Y-3.7549
X4.5325Y-3.8632
X4.5325Y-3.8632
X4.5325Y-3.9715
X4.5325Y-3.9715
X4.5325Y-4.0797
X4.5325Y-4.0797
X4.5325Y-4.188
X4.5325Y-4.188
X4.5325Y-4.2963
X4.5325Y-4.2963
X4.6407Y-3.5384
X4.6407Y-3.5384
X4.6407Y-3.6467
X4.6407Y-3.6467
X4.6407Y-3.7549
X4.6407Y-3.7549
X4.6407Y-3.8632
X4.6407Y-3.8632
X4.6407Y-3.9715
X4.6407Y-3.9715
X4.6407Y-4.0797
X4.6407Y-4.0797
X4.6407Y-4.188
X4.6407Y-4.188
X4.6407Y-4.2963
X4.6407Y-4.2963
X4.749Y-3.5384
X4.749Y-3.5384
X4.749Y-3.6467
X4.749Y-3.6467
X4.749Y-3.7549
X4.749Y-3.7549
X4.749Y-3.8632
X4.749Y-3.8632
X4.749Y-3.9715
X4.749Y-3.9715
X4.749Y-4.0797
X4.749Y-4.0797
X4.749Y-4.188
X4.749Y-4.188
X4.749Y-4.2963
X4.749Y-4.2963
T2
X2.7719Y-2.2011
X2.7719Y-2.2611
X2.7919Y-2.1411
X2.9119Y-2.2611
X2.9619Y-2.2011
X2.9868Y-2.5063
X3.0219Y-2.1411
X3.0469Y-5.4211
X3.0868Y-2.4763
X3.4119Y-5.1911
X3.7819Y-5.3911
X3.7819Y-5.5011
X3.7869Y-5.2411
X3.947Y-1.9964
X3.9819Y-2.4311
X3.9819Y-5.2611
X4.0219Y-2.6511
X4.0419Y-5.5311
X4.0619Y-2.4711
X4.0619Y-2.5911
X4.0669Y-5.4411
X4.0869Y-5.3861
X4.1719Y-2.5911
X4.2019Y-2.4311
X4.2669Y-5.1911
X4.2719Y-2.6511
X4.3319Y-2.5611
X4.3919Y-2.6411
X4.4119Y-2.5711
X4.4419Y-2.4611
X4.4919Y-2.2411
X4.5019Y-2.5411
X4.5019Y-2.6211
X4.5419Y-2.6311
X4.627Y-2.3464
X4.6969Y-2.3311
X4.7069Y-2.4211
X4.7185Y-1.8603
X4.7919Y-2.6611
X4.8119Y-1.8211
X4.8619Y-1.7711
X4.9085Y-2.1903
X4.9119Y-2.5111
X4.9285Y-2.0903
X4.9285Y-2.2203
X4.9519Y-2.0611
X5.0019Y-1.8511
X5.0219Y-2.0111
X5.0385Y-2.2053
X5.0819Y-5.3011
X5.1085Y-2.1003
X5.1419Y-1.7511
X5.1419Y-2.5311
X5.1519Y-2.0911
X5.1585Y-2.1953
X5.1719Y-2.0611
X5.1719Y-2.2611
X5.1735Y-1.8903
X5.1819Y-2.6611
X5.1919Y-1.7511
X5.1919Y-2.1961
X5.1919Y-2.5711
X5.2019Y-2.2961
X5.2219Y-2.5111
X5.2319Y-2.6011
X5.2419Y-1.9811
X5.2419Y-2.0911
X5.2869Y-2.2711
X5.2919Y-5.2011
X5.3185Y-2.2003
X5.3219Y-1.7711
X5.3369Y-2.5911
X5.3469Y-2.3361
X5.3719Y-2.2461
X5.3719Y-2.5611
X5.4019Y-1.8711
X5.4419Y-2.0411
X5.4685Y-2.3403
X5.5219Y-2.0711
X5.5719Y-2.0211
X5.5885Y-2.1003
X5.5919Y-2.1461
X5.6219Y-2.6011
X5.6419Y-1.9611
X5.6969Y-2.1211
T3
X2.577Y-2.447
X2.677Y-2.547
X2.777Y-2.447
T4
X2.1768Y-1.7763
X2.5868Y-1.8763
X2.5984Y-2.1457
X2.8168Y-2.5863
X2.9768Y-2.6363
X4.2019Y-2.5111
X4.2919Y-1.9611
X4.4319Y-2.3511
X4.6019Y-1.8211
X5.3019Y-1.9811
T5
X2.3031Y-2.2819
X2.3031Y-2.3819
X2.3031Y-2.4819
T6
X2.3031Y-1.7717
T7
X2.3031Y-1.9488
T8
X2.2047Y-2.9134
X2.2047Y-4.9213
X5.6693Y-2.9134
X5.6693Y-4.9213
T0
M30
