G04 #@! TF.GenerationSoftware,KiCad,Pcbnew,5.1.5+dfsg1-2build2*
G04 #@! TF.CreationDate,2022-05-25T15:14:24+02:00*
G04 #@! TF.ProjectId,ModulAdapter,4d6f6475-6c41-4646-9170-7465722e6b69,rev?*
G04 #@! TF.SameCoordinates,Original*
G04 #@! TF.FileFunction,Paste,Top*
G04 #@! TF.FilePolarity,Positive*
%FSLAX46Y46*%
G04 Gerber Fmt 4.6, Leading zero omitted, Abs format (unit mm)*
G04 Created by KiCad (PCBNEW 5.1.5+dfsg1-2build2) date 2022-05-25 15:14:24*
%MOMM*%
%LPD*%
G04 APERTURE LIST*
%ADD10C,0.100000*%
%ADD11R,0.350000X2.000000*%
G04 APERTURE END LIST*
D10*
G36*
X102601000Y-117748500D02*
G01*
X103520000Y-117748500D01*
X103520000Y-118632200D01*
X102601000Y-118632200D01*
X102601000Y-117748500D01*
G37*
G36*
X102601000Y-116498500D02*
G01*
X103520000Y-116498500D01*
X103520000Y-117382200D01*
X102601000Y-117382200D01*
X102601000Y-116498500D01*
G37*
G36*
X101301000Y-118998500D02*
G01*
X102220000Y-118998500D01*
X102220000Y-119882200D01*
X101301000Y-119882200D01*
X101301000Y-118998500D01*
G37*
G36*
X101301000Y-116498500D02*
G01*
X102220000Y-116498500D01*
X102220000Y-117382200D01*
X101301000Y-117382200D01*
X101301000Y-116498500D01*
G37*
G36*
X101301000Y-117748500D02*
G01*
X102220000Y-117748500D01*
X102220000Y-118632200D01*
X101301000Y-118632200D01*
X101301000Y-117748500D01*
G37*
G36*
X101301000Y-120248500D02*
G01*
X102220000Y-120248500D01*
X102220000Y-121132200D01*
X101301000Y-121132200D01*
X101301000Y-120248500D01*
G37*
G36*
X102601000Y-118998500D02*
G01*
X103520000Y-118998500D01*
X103520000Y-119882200D01*
X102601000Y-119882200D01*
X102601000Y-118998500D01*
G37*
G36*
X102601000Y-120248500D02*
G01*
X103520000Y-120248500D01*
X103520000Y-121132200D01*
X102601000Y-121132200D01*
X102601000Y-120248500D01*
G37*
G36*
X101291000Y-125688500D02*
G01*
X102210000Y-125688500D01*
X102210000Y-126572200D01*
X101291000Y-126572200D01*
X101291000Y-125688500D01*
G37*
G36*
X101291000Y-126938500D02*
G01*
X102210000Y-126938500D01*
X102210000Y-127822200D01*
X101291000Y-127822200D01*
X101291000Y-126938500D01*
G37*
G36*
X102591000Y-125688500D02*
G01*
X103510000Y-125688500D01*
X103510000Y-126572200D01*
X102591000Y-126572200D01*
X102591000Y-125688500D01*
G37*
G36*
X102591000Y-126938500D02*
G01*
X103510000Y-126938500D01*
X103510000Y-127822200D01*
X102591000Y-127822200D01*
X102591000Y-126938500D01*
G37*
G36*
X101291000Y-128188500D02*
G01*
X102210000Y-128188500D01*
X102210000Y-129072200D01*
X101291000Y-129072200D01*
X101291000Y-128188500D01*
G37*
G36*
X102591000Y-128188500D02*
G01*
X103510000Y-128188500D01*
X103510000Y-129072200D01*
X102591000Y-129072200D01*
X102591000Y-128188500D01*
G37*
G36*
X102591000Y-129438500D02*
G01*
X103510000Y-129438500D01*
X103510000Y-130322200D01*
X102591000Y-130322200D01*
X102591000Y-129438500D01*
G37*
G36*
X101291000Y-129438500D02*
G01*
X102210000Y-129438500D01*
X102210000Y-130322200D01*
X101291000Y-130322200D01*
X101291000Y-129438500D01*
G37*
G36*
X57071500Y-118997000D02*
G01*
X57920000Y-118997000D01*
X57920000Y-119880000D01*
X57071500Y-119880000D01*
X57071500Y-118997000D01*
G37*
G36*
X57071500Y-120247000D02*
G01*
X57920000Y-120247000D01*
X57920000Y-121130000D01*
X57071500Y-121130000D01*
X57071500Y-120247000D01*
G37*
G36*
X55871500Y-117747000D02*
G01*
X56720000Y-117747000D01*
X56720000Y-118630000D01*
X55871500Y-118630000D01*
X55871500Y-117747000D01*
G37*
G36*
X58271500Y-116497000D02*
G01*
X59120000Y-116497000D01*
X59120000Y-117380000D01*
X58271500Y-117380000D01*
X58271500Y-116497000D01*
G37*
G36*
X55871500Y-118997000D02*
G01*
X56720000Y-118997000D01*
X56720000Y-119880000D01*
X55871500Y-119880000D01*
X55871500Y-118997000D01*
G37*
G36*
X54671500Y-117747000D02*
G01*
X55520000Y-117747000D01*
X55520000Y-118630000D01*
X54671500Y-118630000D01*
X54671500Y-117747000D01*
G37*
G36*
X54671500Y-118997000D02*
G01*
X55520000Y-118997000D01*
X55520000Y-119880000D01*
X54671500Y-119880000D01*
X54671500Y-118997000D01*
G37*
G36*
X55871500Y-116497000D02*
G01*
X56720000Y-116497000D01*
X56720000Y-117380000D01*
X55871500Y-117380000D01*
X55871500Y-116497000D01*
G37*
G36*
X55871500Y-120247000D02*
G01*
X56720000Y-120247000D01*
X56720000Y-121130000D01*
X55871500Y-121130000D01*
X55871500Y-120247000D01*
G37*
G36*
X57071500Y-116497000D02*
G01*
X57920000Y-116497000D01*
X57920000Y-117380000D01*
X57071500Y-117380000D01*
X57071500Y-116497000D01*
G37*
G36*
X58271500Y-120247000D02*
G01*
X59120000Y-120247000D01*
X59120000Y-121130000D01*
X58271500Y-121130000D01*
X58271500Y-120247000D01*
G37*
G36*
X54671500Y-120247000D02*
G01*
X55520000Y-120247000D01*
X55520000Y-121130000D01*
X54671500Y-121130000D01*
X54671500Y-120247000D01*
G37*
G36*
X54671500Y-116497000D02*
G01*
X55520000Y-116497000D01*
X55520000Y-117380000D01*
X54671500Y-117380000D01*
X54671500Y-116497000D01*
G37*
G36*
X58271500Y-117747000D02*
G01*
X59120000Y-117747000D01*
X59120000Y-118630000D01*
X58271500Y-118630000D01*
X58271500Y-117747000D01*
G37*
G36*
X57071500Y-117747000D02*
G01*
X57920000Y-117747000D01*
X57920000Y-118630000D01*
X57071500Y-118630000D01*
X57071500Y-117747000D01*
G37*
G36*
X58271500Y-118997000D02*
G01*
X59120000Y-118997000D01*
X59120000Y-119880000D01*
X58271500Y-119880000D01*
X58271500Y-118997000D01*
G37*
G36*
X55871500Y-125697000D02*
G01*
X56720000Y-125697000D01*
X56720000Y-126580000D01*
X55871500Y-126580000D01*
X55871500Y-125697000D01*
G37*
G36*
X58271500Y-125697000D02*
G01*
X59120000Y-125697000D01*
X59120000Y-126580000D01*
X58271500Y-126580000D01*
X58271500Y-125697000D01*
G37*
G36*
X54671500Y-125697000D02*
G01*
X55520000Y-125697000D01*
X55520000Y-126580000D01*
X54671500Y-126580000D01*
X54671500Y-125697000D01*
G37*
G36*
X57071500Y-125697000D02*
G01*
X57920000Y-125697000D01*
X57920000Y-126580000D01*
X57071500Y-126580000D01*
X57071500Y-125697000D01*
G37*
G36*
X55871500Y-126947000D02*
G01*
X56720000Y-126947000D01*
X56720000Y-127830000D01*
X55871500Y-127830000D01*
X55871500Y-126947000D01*
G37*
G36*
X58271500Y-126947000D02*
G01*
X59120000Y-126947000D01*
X59120000Y-127830000D01*
X58271500Y-127830000D01*
X58271500Y-126947000D01*
G37*
G36*
X57071500Y-126947000D02*
G01*
X57920000Y-126947000D01*
X57920000Y-127830000D01*
X57071500Y-127830000D01*
X57071500Y-126947000D01*
G37*
G36*
X54671500Y-126947000D02*
G01*
X55520000Y-126947000D01*
X55520000Y-127830000D01*
X54671500Y-127830000D01*
X54671500Y-126947000D01*
G37*
G36*
X55871500Y-128197000D02*
G01*
X56720000Y-128197000D01*
X56720000Y-129080000D01*
X55871500Y-129080000D01*
X55871500Y-128197000D01*
G37*
G36*
X57071500Y-128197000D02*
G01*
X57920000Y-128197000D01*
X57920000Y-129080000D01*
X57071500Y-129080000D01*
X57071500Y-128197000D01*
G37*
G36*
X58271500Y-128197000D02*
G01*
X59120000Y-128197000D01*
X59120000Y-129080000D01*
X58271500Y-129080000D01*
X58271500Y-128197000D01*
G37*
G36*
X54671500Y-128197000D02*
G01*
X55520000Y-128197000D01*
X55520000Y-129080000D01*
X54671500Y-129080000D01*
X54671500Y-128197000D01*
G37*
G36*
X55871500Y-129447000D02*
G01*
X56720000Y-129447000D01*
X56720000Y-130330000D01*
X55871500Y-130330000D01*
X55871500Y-129447000D01*
G37*
G36*
X57071500Y-129447000D02*
G01*
X57920000Y-129447000D01*
X57920000Y-130330000D01*
X57071500Y-130330000D01*
X57071500Y-129447000D01*
G37*
G36*
X58271500Y-129447000D02*
G01*
X59120000Y-129447000D01*
X59120000Y-130330000D01*
X58271500Y-130330000D01*
X58271500Y-129447000D01*
G37*
G36*
X54671500Y-129447000D02*
G01*
X55520000Y-129447000D01*
X55520000Y-130330000D01*
X54671500Y-130330000D01*
X54671500Y-129447000D01*
G37*
G36*
X142081500Y-116497000D02*
G01*
X142930000Y-116497000D01*
X142930000Y-117380000D01*
X142081500Y-117380000D01*
X142081500Y-116497000D01*
G37*
G36*
X144481500Y-116497000D02*
G01*
X145330000Y-116497000D01*
X145330000Y-117380000D01*
X144481500Y-117380000D01*
X144481500Y-116497000D01*
G37*
G36*
X140881500Y-116497000D02*
G01*
X141730000Y-116497000D01*
X141730000Y-117380000D01*
X140881500Y-117380000D01*
X140881500Y-116497000D01*
G37*
G36*
X143281500Y-116497000D02*
G01*
X144130000Y-116497000D01*
X144130000Y-117380000D01*
X143281500Y-117380000D01*
X143281500Y-116497000D01*
G37*
G36*
X142081500Y-117747000D02*
G01*
X142930000Y-117747000D01*
X142930000Y-118630000D01*
X142081500Y-118630000D01*
X142081500Y-117747000D01*
G37*
G36*
X144481500Y-117747000D02*
G01*
X145330000Y-117747000D01*
X145330000Y-118630000D01*
X144481500Y-118630000D01*
X144481500Y-117747000D01*
G37*
G36*
X143281500Y-117747000D02*
G01*
X144130000Y-117747000D01*
X144130000Y-118630000D01*
X143281500Y-118630000D01*
X143281500Y-117747000D01*
G37*
G36*
X140881500Y-117747000D02*
G01*
X141730000Y-117747000D01*
X141730000Y-118630000D01*
X140881500Y-118630000D01*
X140881500Y-117747000D01*
G37*
G36*
X142081500Y-118997000D02*
G01*
X142930000Y-118997000D01*
X142930000Y-119880000D01*
X142081500Y-119880000D01*
X142081500Y-118997000D01*
G37*
G36*
X143281500Y-118997000D02*
G01*
X144130000Y-118997000D01*
X144130000Y-119880000D01*
X143281500Y-119880000D01*
X143281500Y-118997000D01*
G37*
G36*
X144481500Y-118997000D02*
G01*
X145330000Y-118997000D01*
X145330000Y-119880000D01*
X144481500Y-119880000D01*
X144481500Y-118997000D01*
G37*
G36*
X140881500Y-118997000D02*
G01*
X141730000Y-118997000D01*
X141730000Y-119880000D01*
X140881500Y-119880000D01*
X140881500Y-118997000D01*
G37*
G36*
X142081500Y-120247000D02*
G01*
X142930000Y-120247000D01*
X142930000Y-121130000D01*
X142081500Y-121130000D01*
X142081500Y-120247000D01*
G37*
G36*
X143281500Y-120247000D02*
G01*
X144130000Y-120247000D01*
X144130000Y-121130000D01*
X143281500Y-121130000D01*
X143281500Y-120247000D01*
G37*
G36*
X144481500Y-120247000D02*
G01*
X145330000Y-120247000D01*
X145330000Y-121130000D01*
X144481500Y-121130000D01*
X144481500Y-120247000D01*
G37*
G36*
X140881500Y-120247000D02*
G01*
X141730000Y-120247000D01*
X141730000Y-121130000D01*
X140881500Y-121130000D01*
X140881500Y-120247000D01*
G37*
G36*
X142091500Y-125687000D02*
G01*
X142940000Y-125687000D01*
X142940000Y-126570000D01*
X142091500Y-126570000D01*
X142091500Y-125687000D01*
G37*
G36*
X144491500Y-125687000D02*
G01*
X145340000Y-125687000D01*
X145340000Y-126570000D01*
X144491500Y-126570000D01*
X144491500Y-125687000D01*
G37*
G36*
X140891500Y-125687000D02*
G01*
X141740000Y-125687000D01*
X141740000Y-126570000D01*
X140891500Y-126570000D01*
X140891500Y-125687000D01*
G37*
G36*
X143291500Y-125687000D02*
G01*
X144140000Y-125687000D01*
X144140000Y-126570000D01*
X143291500Y-126570000D01*
X143291500Y-125687000D01*
G37*
G36*
X142091500Y-126937000D02*
G01*
X142940000Y-126937000D01*
X142940000Y-127820000D01*
X142091500Y-127820000D01*
X142091500Y-126937000D01*
G37*
G36*
X144491500Y-126937000D02*
G01*
X145340000Y-126937000D01*
X145340000Y-127820000D01*
X144491500Y-127820000D01*
X144491500Y-126937000D01*
G37*
G36*
X143291500Y-126937000D02*
G01*
X144140000Y-126937000D01*
X144140000Y-127820000D01*
X143291500Y-127820000D01*
X143291500Y-126937000D01*
G37*
G36*
X140891500Y-126937000D02*
G01*
X141740000Y-126937000D01*
X141740000Y-127820000D01*
X140891500Y-127820000D01*
X140891500Y-126937000D01*
G37*
G36*
X142091500Y-128187000D02*
G01*
X142940000Y-128187000D01*
X142940000Y-129070000D01*
X142091500Y-129070000D01*
X142091500Y-128187000D01*
G37*
G36*
X143291500Y-128187000D02*
G01*
X144140000Y-128187000D01*
X144140000Y-129070000D01*
X143291500Y-129070000D01*
X143291500Y-128187000D01*
G37*
G36*
X144491500Y-128187000D02*
G01*
X145340000Y-128187000D01*
X145340000Y-129070000D01*
X144491500Y-129070000D01*
X144491500Y-128187000D01*
G37*
G36*
X140891500Y-128187000D02*
G01*
X141740000Y-128187000D01*
X141740000Y-129070000D01*
X140891500Y-129070000D01*
X140891500Y-128187000D01*
G37*
G36*
X142091500Y-129437000D02*
G01*
X142940000Y-129437000D01*
X142940000Y-130320000D01*
X142091500Y-130320000D01*
X142091500Y-129437000D01*
G37*
G36*
X143291500Y-129437000D02*
G01*
X144140000Y-129437000D01*
X144140000Y-130320000D01*
X143291500Y-130320000D01*
X143291500Y-129437000D01*
G37*
G36*
X144491500Y-129437000D02*
G01*
X145340000Y-129437000D01*
X145340000Y-130320000D01*
X144491500Y-130320000D01*
X144491500Y-129437000D01*
G37*
G36*
X140891500Y-129437000D02*
G01*
X141740000Y-129437000D01*
X141740000Y-130320000D01*
X140891500Y-130320000D01*
X140891500Y-129437000D01*
G37*
D11*
X62800000Y-126750000D03*
X62200000Y-126750000D03*
X63400000Y-126750000D03*
X64000000Y-126750000D03*
X64600000Y-126750000D03*
X65200000Y-126750000D03*
X65800000Y-126750000D03*
X66400000Y-126750000D03*
X67000000Y-126750000D03*
X67600000Y-126750000D03*
X68200000Y-126750000D03*
X68800000Y-126750000D03*
X69400000Y-126750000D03*
X70000000Y-126750000D03*
X70600000Y-126750000D03*
X71200000Y-126750000D03*
X71800000Y-126750000D03*
X72400000Y-126750000D03*
X73000000Y-126750000D03*
X73600000Y-126750000D03*
X74200000Y-126750000D03*
X74800000Y-126750000D03*
X75400000Y-126750000D03*
X76000000Y-126750000D03*
X76600000Y-126750000D03*
X77200000Y-126750000D03*
X77800000Y-126750000D03*
X78400000Y-126750000D03*
X79000000Y-126750000D03*
X79600000Y-126750000D03*
X80200000Y-126750000D03*
X80800000Y-126750000D03*
X81400000Y-126750000D03*
X82000000Y-126750000D03*
X82600000Y-126750000D03*
X83200000Y-126750000D03*
X83800000Y-126750000D03*
X84400000Y-126750000D03*
X85000000Y-126750000D03*
X85600000Y-126750000D03*
X86200000Y-126750000D03*
X86800000Y-126750000D03*
X87400000Y-126750000D03*
X88000000Y-126750000D03*
X88600000Y-126750000D03*
X89200000Y-126750000D03*
X90400000Y-126750000D03*
X89800000Y-126750000D03*
X91000000Y-126750000D03*
X91600000Y-126750000D03*
X92200000Y-126750000D03*
X92800000Y-126750000D03*
X93400000Y-126750000D03*
X94000000Y-126750000D03*
X94600000Y-126750000D03*
X95200000Y-126750000D03*
X95800000Y-126750000D03*
X96400000Y-126750000D03*
X97000000Y-126750000D03*
X97600000Y-126750000D03*
X98200000Y-126750000D03*
X98800000Y-126750000D03*
X99400000Y-126750000D03*
X100000000Y-126750000D03*
X100600000Y-126750000D03*
X104200000Y-126750000D03*
X104800000Y-126750000D03*
X105400000Y-126750000D03*
X106000000Y-126750000D03*
X106600000Y-126750000D03*
X107200000Y-126750000D03*
X107800000Y-126750000D03*
X108400000Y-126750000D03*
X109000000Y-126750000D03*
X109600000Y-126750000D03*
X110200000Y-126750000D03*
X110800000Y-126750000D03*
X111400000Y-126750000D03*
X112000000Y-126750000D03*
X112600000Y-126750000D03*
X113200000Y-126750000D03*
X113800000Y-126750000D03*
X114400000Y-126750000D03*
X115000000Y-126750000D03*
X115600000Y-126750000D03*
X116200000Y-126750000D03*
X116800000Y-126750000D03*
X117400000Y-126750000D03*
X118000000Y-126750000D03*
X118600000Y-126750000D03*
X119200000Y-126750000D03*
X119800000Y-126750000D03*
X120400000Y-126750000D03*
X121000000Y-126750000D03*
X121600000Y-126750000D03*
X122200000Y-126750000D03*
X122800000Y-126750000D03*
X123400000Y-126750000D03*
X124000000Y-126750000D03*
X124600000Y-126750000D03*
X125200000Y-126750000D03*
X125800000Y-126750000D03*
X126400000Y-126750000D03*
X127000000Y-126750000D03*
X127600000Y-126750000D03*
X128200000Y-126750000D03*
X128800000Y-126750000D03*
X129400000Y-126750000D03*
X130000000Y-126750000D03*
X130600000Y-126750000D03*
X131200000Y-126750000D03*
X131800000Y-126750000D03*
X132400000Y-126750000D03*
X133000000Y-126750000D03*
X133600000Y-126750000D03*
X134200000Y-126750000D03*
X134800000Y-126750000D03*
X135400000Y-126750000D03*
X136000000Y-126750000D03*
X136600000Y-126750000D03*
X137200000Y-126750000D03*
X137800000Y-126750000D03*
X62200000Y-118050000D03*
X62800000Y-118050000D03*
X63400000Y-118050000D03*
X64000000Y-118050000D03*
X64600000Y-118050000D03*
X65200000Y-118050000D03*
X65800000Y-118050000D03*
X66400000Y-118050000D03*
X67000000Y-118050000D03*
X67600000Y-118050000D03*
X68200000Y-118050000D03*
X68800000Y-118050000D03*
X69400000Y-118050000D03*
X70000000Y-118050000D03*
X70600000Y-118050000D03*
X71200000Y-118050000D03*
X71800000Y-118050000D03*
X72400000Y-118050000D03*
X73000000Y-118050000D03*
X73600000Y-118050000D03*
X74200000Y-118050000D03*
X74800000Y-118050000D03*
X75400000Y-118050000D03*
X76000000Y-118050000D03*
X76600000Y-118050000D03*
X77200000Y-118050000D03*
X77800000Y-118050000D03*
X78400000Y-118050000D03*
X79000000Y-118050000D03*
X79600000Y-118050000D03*
X80200000Y-118050000D03*
X80800000Y-118050000D03*
X81400000Y-118050000D03*
X82000000Y-118050000D03*
X82600000Y-118050000D03*
X83200000Y-118050000D03*
X83800000Y-118050000D03*
X84400000Y-118050000D03*
X85000000Y-118050000D03*
X85600000Y-118050000D03*
X86200000Y-118050000D03*
X86800000Y-118050000D03*
X87400000Y-118050000D03*
X88000000Y-118050000D03*
X88600000Y-118050000D03*
X89200000Y-118050000D03*
X89800000Y-118050000D03*
X90400000Y-118050000D03*
X91000000Y-118050000D03*
X91600000Y-118050000D03*
X92200000Y-118050000D03*
X92800000Y-118050000D03*
X93400000Y-118050000D03*
X94000000Y-118050000D03*
X94600000Y-118050000D03*
X95200000Y-118050000D03*
X95800000Y-118050000D03*
X96400000Y-118050000D03*
X97000000Y-118050000D03*
X97600000Y-118050000D03*
X98200000Y-118050000D03*
X98800000Y-118050000D03*
X99400000Y-118050000D03*
X100000000Y-118050000D03*
X100600000Y-118050000D03*
X104200000Y-118050000D03*
X104800000Y-118050000D03*
X105400000Y-118050000D03*
X106000000Y-118050000D03*
X106600000Y-118050000D03*
X107200000Y-118050000D03*
X107800000Y-118050000D03*
X108400000Y-118050000D03*
X109000000Y-118050000D03*
X109600000Y-118050000D03*
X110200000Y-118050000D03*
X110800000Y-118050000D03*
X111400000Y-118050000D03*
X112000000Y-118050000D03*
X112600000Y-118050000D03*
X113200000Y-118050000D03*
X113800000Y-118050000D03*
X114400000Y-118050000D03*
X115000000Y-118050000D03*
X115600000Y-118050000D03*
X116200000Y-118050000D03*
X116800000Y-118050000D03*
X117400000Y-118050000D03*
X118000000Y-118050000D03*
X118600000Y-118050000D03*
X119200000Y-118050000D03*
X119800000Y-118050000D03*
X120400000Y-118050000D03*
X121000000Y-118050000D03*
X121600000Y-118050000D03*
X122200000Y-118050000D03*
X122800000Y-118050000D03*
X123400000Y-118050000D03*
X124000000Y-118050000D03*
X124600000Y-118050000D03*
X125200000Y-118050000D03*
X125800000Y-118050000D03*
X126400000Y-118050000D03*
X127000000Y-118050000D03*
X127600000Y-118050000D03*
X128200000Y-118050000D03*
X128800000Y-118050000D03*
X129400000Y-118050000D03*
X130000000Y-118050000D03*
X130600000Y-118050000D03*
X131200000Y-118050000D03*
X131800000Y-118050000D03*
X132400000Y-118050000D03*
X133000000Y-118050000D03*
X133600000Y-118050000D03*
X134200000Y-118050000D03*
X134800000Y-118050000D03*
X135400000Y-118050000D03*
X136000000Y-118050000D03*
X136600000Y-118050000D03*
X137200000Y-118050000D03*
X137800000Y-118050000D03*
M02*
