G04 #@! TF.GenerationSoftware,KiCad,Pcbnew,5.1.5+dfsg1-2build2*
G04 #@! TF.CreationDate,2022-05-25T15:14:24+02:00*
G04 #@! TF.ProjectId,ModulAdapter,4d6f6475-6c41-4646-9170-7465722e6b69,rev?*
G04 #@! TF.SameCoordinates,Original*
G04 #@! TF.FileFunction,Soldermask,Bot*
G04 #@! TF.FilePolarity,Negative*
%FSLAX46Y46*%
G04 Gerber Fmt 4.6, Leading zero omitted, Abs format (unit mm)*
G04 Created by KiCad (PCBNEW 5.1.5+dfsg1-2build2) date 2022-05-25 15:14:24*
%MOMM*%
%LPD*%
G04 APERTURE LIST*
%ADD10C,0.100000*%
G04 APERTURE END LIST*
D10*
G36*
X144466703Y-132461486D02*
G01*
X144757883Y-132582097D01*
X145019940Y-132757198D01*
X145242802Y-132980060D01*
X145417903Y-133242117D01*
X145538514Y-133533297D01*
X145600000Y-133842412D01*
X145600000Y-134157588D01*
X145538514Y-134466703D01*
X145417903Y-134757883D01*
X145242802Y-135019940D01*
X145019940Y-135242802D01*
X144757883Y-135417903D01*
X144466703Y-135538514D01*
X144157588Y-135600000D01*
X143842412Y-135600000D01*
X143533297Y-135538514D01*
X143242117Y-135417903D01*
X142980060Y-135242802D01*
X142757198Y-135019940D01*
X142582097Y-134757883D01*
X142461486Y-134466703D01*
X142400000Y-134157588D01*
X142400000Y-133842412D01*
X142461486Y-133533297D01*
X142582097Y-133242117D01*
X142757198Y-132980060D01*
X142980060Y-132757198D01*
X143242117Y-132582097D01*
X143533297Y-132461486D01*
X143842412Y-132400000D01*
X144157588Y-132400000D01*
X144466703Y-132461486D01*
G37*
G36*
X56466703Y-132461486D02*
G01*
X56757883Y-132582097D01*
X57019940Y-132757198D01*
X57242802Y-132980060D01*
X57417903Y-133242117D01*
X57538514Y-133533297D01*
X57600000Y-133842412D01*
X57600000Y-134157588D01*
X57538514Y-134466703D01*
X57417903Y-134757883D01*
X57242802Y-135019940D01*
X57019940Y-135242802D01*
X56757883Y-135417903D01*
X56466703Y-135538514D01*
X56157588Y-135600000D01*
X55842412Y-135600000D01*
X55533297Y-135538514D01*
X55242117Y-135417903D01*
X54980060Y-135242802D01*
X54757198Y-135019940D01*
X54582097Y-134757883D01*
X54461486Y-134466703D01*
X54400000Y-134157588D01*
X54400000Y-133842412D01*
X54461486Y-133533297D01*
X54582097Y-133242117D01*
X54757198Y-132980060D01*
X54980060Y-132757198D01*
X55242117Y-132582097D01*
X55533297Y-132461486D01*
X55842412Y-132400000D01*
X56157588Y-132400000D01*
X56466703Y-132461486D01*
G37*
G36*
X63247764Y-125754402D02*
G01*
X63370445Y-125778805D01*
X63601571Y-125874541D01*
X63809578Y-126013527D01*
X63986473Y-126190422D01*
X64125459Y-126398429D01*
X64221195Y-126629555D01*
X64270000Y-126874916D01*
X64270000Y-127125084D01*
X64221195Y-127370445D01*
X64125459Y-127601571D01*
X63986473Y-127809578D01*
X63809578Y-127986473D01*
X63601571Y-128125459D01*
X63370445Y-128221195D01*
X63247764Y-128245598D01*
X63125085Y-128270000D01*
X62874915Y-128270000D01*
X62752236Y-128245598D01*
X62629555Y-128221195D01*
X62398429Y-128125459D01*
X62190422Y-127986473D01*
X62013527Y-127809578D01*
X61874541Y-127601571D01*
X61778805Y-127370445D01*
X61730000Y-127125084D01*
X61730000Y-126874916D01*
X61778805Y-126629555D01*
X61874541Y-126398429D01*
X62013527Y-126190422D01*
X62190422Y-126013527D01*
X62398429Y-125874541D01*
X62629555Y-125778805D01*
X62752236Y-125754402D01*
X62874915Y-125730000D01*
X63125085Y-125730000D01*
X63247764Y-125754402D01*
G37*
G36*
X57264610Y-122198036D02*
G01*
X57492095Y-122292264D01*
X57492097Y-122292265D01*
X57696828Y-122429062D01*
X57870938Y-122603172D01*
X58007736Y-122807905D01*
X58101964Y-123035390D01*
X58150000Y-123276884D01*
X58150000Y-123523116D01*
X58101964Y-123764610D01*
X58007736Y-123992095D01*
X58007735Y-123992097D01*
X57870938Y-124196828D01*
X57696828Y-124370938D01*
X57492097Y-124507735D01*
X57492096Y-124507736D01*
X57492095Y-124507736D01*
X57264610Y-124601964D01*
X57023116Y-124650000D01*
X56776884Y-124650000D01*
X56535390Y-124601964D01*
X56307905Y-124507736D01*
X56307904Y-124507736D01*
X56307903Y-124507735D01*
X56103172Y-124370938D01*
X55929062Y-124196828D01*
X55792265Y-123992097D01*
X55792264Y-123992095D01*
X55698036Y-123764610D01*
X55650000Y-123523116D01*
X55650000Y-123276884D01*
X55698036Y-123035390D01*
X55792264Y-122807905D01*
X55929062Y-122603172D01*
X56103172Y-122429062D01*
X56307903Y-122292265D01*
X56307905Y-122292264D01*
X56535390Y-122198036D01*
X56776884Y-122150000D01*
X57023116Y-122150000D01*
X57264610Y-122198036D01*
G37*
G36*
X143464610Y-122198036D02*
G01*
X143692095Y-122292264D01*
X143692097Y-122292265D01*
X143896828Y-122429062D01*
X144070938Y-122603172D01*
X144207736Y-122807905D01*
X144301964Y-123035390D01*
X144350000Y-123276884D01*
X144350000Y-123523116D01*
X144301964Y-123764610D01*
X144207736Y-123992095D01*
X144207735Y-123992097D01*
X144070938Y-124196828D01*
X143896828Y-124370938D01*
X143692097Y-124507735D01*
X143692096Y-124507736D01*
X143692095Y-124507736D01*
X143464610Y-124601964D01*
X143223116Y-124650000D01*
X142976884Y-124650000D01*
X142735390Y-124601964D01*
X142507905Y-124507736D01*
X142507904Y-124507736D01*
X142507903Y-124507735D01*
X142303172Y-124370938D01*
X142129062Y-124196828D01*
X141992265Y-123992097D01*
X141992264Y-123992095D01*
X141898036Y-123764610D01*
X141850000Y-123523116D01*
X141850000Y-123276884D01*
X141898036Y-123035390D01*
X141992264Y-122807905D01*
X142129062Y-122603172D01*
X142303172Y-122429062D01*
X142507903Y-122292265D01*
X142507905Y-122292264D01*
X142735390Y-122198036D01*
X142976884Y-122150000D01*
X143223116Y-122150000D01*
X143464610Y-122198036D01*
G37*
G36*
X102764610Y-122198036D02*
G01*
X102992095Y-122292264D01*
X102992097Y-122292265D01*
X103196828Y-122429062D01*
X103370938Y-122603172D01*
X103507736Y-122807905D01*
X103601964Y-123035390D01*
X103650000Y-123276884D01*
X103650000Y-123523116D01*
X103601964Y-123764610D01*
X103507736Y-123992095D01*
X103507735Y-123992097D01*
X103370938Y-124196828D01*
X103196828Y-124370938D01*
X102992097Y-124507735D01*
X102992096Y-124507736D01*
X102992095Y-124507736D01*
X102764610Y-124601964D01*
X102523116Y-124650000D01*
X102276884Y-124650000D01*
X102035390Y-124601964D01*
X101807905Y-124507736D01*
X101807904Y-124507736D01*
X101807903Y-124507735D01*
X101603172Y-124370938D01*
X101429062Y-124196828D01*
X101292265Y-123992097D01*
X101292264Y-123992095D01*
X101198036Y-123764610D01*
X101150000Y-123523116D01*
X101150000Y-123276884D01*
X101198036Y-123035390D01*
X101292264Y-122807905D01*
X101429062Y-122603172D01*
X101603172Y-122429062D01*
X101807903Y-122292265D01*
X101807905Y-122292264D01*
X102035390Y-122198036D01*
X102276884Y-122150000D01*
X102523116Y-122150000D01*
X102764610Y-122198036D01*
G37*
G36*
X89650000Y-108480000D02*
G01*
X89150000Y-108480000D01*
X89150000Y-107000000D01*
X89650000Y-107000000D01*
X89650000Y-108480000D01*
G37*
G36*
X121250000Y-108480000D02*
G01*
X120750000Y-108480000D01*
X120750000Y-107000000D01*
X121250000Y-107000000D01*
X121250000Y-108480000D01*
G37*
G36*
X90450000Y-108480000D02*
G01*
X89950000Y-108480000D01*
X89950000Y-107000000D01*
X90450000Y-107000000D01*
X90450000Y-108480000D01*
G37*
G36*
X110050000Y-108480000D02*
G01*
X109550000Y-108480000D01*
X109550000Y-107000000D01*
X110050000Y-107000000D01*
X110050000Y-108480000D01*
G37*
G36*
X110850000Y-108480000D02*
G01*
X110350000Y-108480000D01*
X110350000Y-107000000D01*
X110850000Y-107000000D01*
X110850000Y-108480000D01*
G37*
G36*
X111650000Y-108480000D02*
G01*
X111150000Y-108480000D01*
X111150000Y-107000000D01*
X111650000Y-107000000D01*
X111650000Y-108480000D01*
G37*
G36*
X112450000Y-108480000D02*
G01*
X111950000Y-108480000D01*
X111950000Y-107000000D01*
X112450000Y-107000000D01*
X112450000Y-108480000D01*
G37*
G36*
X113250000Y-108480000D02*
G01*
X112750000Y-108480000D01*
X112750000Y-107000000D01*
X113250000Y-107000000D01*
X113250000Y-108480000D01*
G37*
G36*
X114050000Y-108480000D02*
G01*
X113550000Y-108480000D01*
X113550000Y-107000000D01*
X114050000Y-107000000D01*
X114050000Y-108480000D01*
G37*
G36*
X114850000Y-108480000D02*
G01*
X114350000Y-108480000D01*
X114350000Y-107000000D01*
X114850000Y-107000000D01*
X114850000Y-108480000D01*
G37*
G36*
X115650000Y-108480000D02*
G01*
X115150000Y-108480000D01*
X115150000Y-107000000D01*
X115650000Y-107000000D01*
X115650000Y-108480000D01*
G37*
G36*
X116450000Y-108480000D02*
G01*
X115950000Y-108480000D01*
X115950000Y-107000000D01*
X116450000Y-107000000D01*
X116450000Y-108480000D01*
G37*
G36*
X128450000Y-108480000D02*
G01*
X127950000Y-108480000D01*
X127950000Y-107000000D01*
X128450000Y-107000000D01*
X128450000Y-108480000D01*
G37*
G36*
X118050000Y-108480000D02*
G01*
X117550000Y-108480000D01*
X117550000Y-107000000D01*
X118050000Y-107000000D01*
X118050000Y-108480000D01*
G37*
G36*
X118850000Y-108480000D02*
G01*
X118350000Y-108480000D01*
X118350000Y-107000000D01*
X118850000Y-107000000D01*
X118850000Y-108480000D01*
G37*
G36*
X119650000Y-108480000D02*
G01*
X119150000Y-108480000D01*
X119150000Y-107000000D01*
X119650000Y-107000000D01*
X119650000Y-108480000D01*
G37*
G36*
X120450000Y-108480000D02*
G01*
X119950000Y-108480000D01*
X119950000Y-107000000D01*
X120450000Y-107000000D01*
X120450000Y-108480000D01*
G37*
G36*
X122050000Y-108480000D02*
G01*
X121550000Y-108480000D01*
X121550000Y-107000000D01*
X122050000Y-107000000D01*
X122050000Y-108480000D01*
G37*
G36*
X122850000Y-108480000D02*
G01*
X122350000Y-108480000D01*
X122350000Y-107000000D01*
X122850000Y-107000000D01*
X122850000Y-108480000D01*
G37*
G36*
X123650000Y-108480000D02*
G01*
X123150000Y-108480000D01*
X123150000Y-107000000D01*
X123650000Y-107000000D01*
X123650000Y-108480000D01*
G37*
G36*
X124450000Y-108480000D02*
G01*
X123950000Y-108480000D01*
X123950000Y-107000000D01*
X124450000Y-107000000D01*
X124450000Y-108480000D01*
G37*
G36*
X125250000Y-108480000D02*
G01*
X124750000Y-108480000D01*
X124750000Y-107000000D01*
X125250000Y-107000000D01*
X125250000Y-108480000D01*
G37*
G36*
X126050000Y-108480000D02*
G01*
X125550000Y-108480000D01*
X125550000Y-107000000D01*
X126050000Y-107000000D01*
X126050000Y-108480000D01*
G37*
G36*
X126850000Y-108480000D02*
G01*
X126350000Y-108480000D01*
X126350000Y-107000000D01*
X126850000Y-107000000D01*
X126850000Y-108480000D01*
G37*
G36*
X85650000Y-108480000D02*
G01*
X85150000Y-108480000D01*
X85150000Y-107000000D01*
X85650000Y-107000000D01*
X85650000Y-108480000D01*
G37*
G36*
X88850000Y-108480000D02*
G01*
X88350000Y-108480000D01*
X88350000Y-107000000D01*
X88850000Y-107000000D01*
X88850000Y-108480000D01*
G37*
G36*
X80050000Y-108480000D02*
G01*
X79550000Y-108480000D01*
X79550000Y-107000000D01*
X80050000Y-107000000D01*
X80050000Y-108480000D01*
G37*
G36*
X76850000Y-108480000D02*
G01*
X76350000Y-108480000D01*
X76350000Y-107000000D01*
X76850000Y-107000000D01*
X76850000Y-108480000D01*
G37*
G36*
X80850000Y-108480000D02*
G01*
X80350000Y-108480000D01*
X80350000Y-107000000D01*
X80850000Y-107000000D01*
X80850000Y-108480000D01*
G37*
G36*
X81650000Y-108480000D02*
G01*
X81150000Y-108480000D01*
X81150000Y-107000000D01*
X81650000Y-107000000D01*
X81650000Y-108480000D01*
G37*
G36*
X82450000Y-108480000D02*
G01*
X81950000Y-108480000D01*
X81950000Y-107000000D01*
X82450000Y-107000000D01*
X82450000Y-108480000D01*
G37*
G36*
X83250000Y-108480000D02*
G01*
X82750000Y-108480000D01*
X82750000Y-107000000D01*
X83250000Y-107000000D01*
X83250000Y-108480000D01*
G37*
G36*
X84050000Y-108480000D02*
G01*
X83550000Y-108480000D01*
X83550000Y-107000000D01*
X84050000Y-107000000D01*
X84050000Y-108480000D01*
G37*
G36*
X84850000Y-108480000D02*
G01*
X84350000Y-108480000D01*
X84350000Y-107000000D01*
X84850000Y-107000000D01*
X84850000Y-108480000D01*
G37*
G36*
X86450000Y-108480000D02*
G01*
X85950000Y-108480000D01*
X85950000Y-107000000D01*
X86450000Y-107000000D01*
X86450000Y-108480000D01*
G37*
G36*
X79250000Y-108480000D02*
G01*
X78750000Y-108480000D01*
X78750000Y-107000000D01*
X79250000Y-107000000D01*
X79250000Y-108480000D01*
G37*
G36*
X72050000Y-108480000D02*
G01*
X71550000Y-108480000D01*
X71550000Y-107000000D01*
X72050000Y-107000000D01*
X72050000Y-108480000D01*
G37*
G36*
X88050000Y-108480000D02*
G01*
X87550000Y-108480000D01*
X87550000Y-107000000D01*
X88050000Y-107000000D01*
X88050000Y-108480000D01*
G37*
G36*
X117250000Y-108480000D02*
G01*
X116750000Y-108480000D01*
X116750000Y-107000000D01*
X117250000Y-107000000D01*
X117250000Y-108480000D01*
G37*
G36*
X87250000Y-108480000D02*
G01*
X86750000Y-108480000D01*
X86750000Y-107000000D01*
X87250000Y-107000000D01*
X87250000Y-108480000D01*
G37*
G36*
X78450000Y-108480000D02*
G01*
X77950000Y-108480000D01*
X77950000Y-107000000D01*
X78450000Y-107000000D01*
X78450000Y-108480000D01*
G37*
G36*
X72850000Y-108480000D02*
G01*
X72350000Y-108480000D01*
X72350000Y-107000000D01*
X72850000Y-107000000D01*
X72850000Y-108480000D01*
G37*
G36*
X73650000Y-108480000D02*
G01*
X73150000Y-108480000D01*
X73150000Y-107000000D01*
X73650000Y-107000000D01*
X73650000Y-108480000D01*
G37*
G36*
X74450000Y-108480000D02*
G01*
X73950000Y-108480000D01*
X73950000Y-107000000D01*
X74450000Y-107000000D01*
X74450000Y-108480000D01*
G37*
G36*
X75250000Y-108480000D02*
G01*
X74750000Y-108480000D01*
X74750000Y-107000000D01*
X75250000Y-107000000D01*
X75250000Y-108480000D01*
G37*
G36*
X76050000Y-108480000D02*
G01*
X75550000Y-108480000D01*
X75550000Y-107000000D01*
X76050000Y-107000000D01*
X76050000Y-108480000D01*
G37*
G36*
X127650000Y-108480000D02*
G01*
X127150000Y-108480000D01*
X127150000Y-107000000D01*
X127650000Y-107000000D01*
X127650000Y-108480000D01*
G37*
G36*
X77650000Y-108480000D02*
G01*
X77150000Y-108480000D01*
X77150000Y-107000000D01*
X77650000Y-107000000D01*
X77650000Y-108480000D01*
G37*
G36*
X92980000Y-105750000D02*
G01*
X91500000Y-105750000D01*
X91500000Y-105250000D01*
X92980000Y-105250000D01*
X92980000Y-105750000D01*
G37*
G36*
X130980000Y-105750000D02*
G01*
X129500000Y-105750000D01*
X129500000Y-105250000D01*
X130980000Y-105250000D01*
X130980000Y-105750000D01*
G37*
G36*
X70500000Y-105750000D02*
G01*
X69020000Y-105750000D01*
X69020000Y-105250000D01*
X70500000Y-105250000D01*
X70500000Y-105750000D01*
G37*
G36*
X108500000Y-105750000D02*
G01*
X107020000Y-105750000D01*
X107020000Y-105250000D01*
X108500000Y-105250000D01*
X108500000Y-105750000D01*
G37*
G36*
X92980000Y-104950000D02*
G01*
X91500000Y-104950000D01*
X91500000Y-104450000D01*
X92980000Y-104450000D01*
X92980000Y-104950000D01*
G37*
G36*
X70500000Y-104950000D02*
G01*
X69020000Y-104950000D01*
X69020000Y-104450000D01*
X70500000Y-104450000D01*
X70500000Y-104950000D01*
G37*
G36*
X130980000Y-104950000D02*
G01*
X129500000Y-104950000D01*
X129500000Y-104450000D01*
X130980000Y-104450000D01*
X130980000Y-104950000D01*
G37*
G36*
X108500000Y-104950000D02*
G01*
X107020000Y-104950000D01*
X107020000Y-104450000D01*
X108500000Y-104450000D01*
X108500000Y-104950000D01*
G37*
G36*
X70500000Y-104150000D02*
G01*
X69020000Y-104150000D01*
X69020000Y-103650000D01*
X70500000Y-103650000D01*
X70500000Y-104150000D01*
G37*
G36*
X130980000Y-104150000D02*
G01*
X129500000Y-104150000D01*
X129500000Y-103650000D01*
X130980000Y-103650000D01*
X130980000Y-104150000D01*
G37*
G36*
X108500000Y-104150000D02*
G01*
X107020000Y-104150000D01*
X107020000Y-103650000D01*
X108500000Y-103650000D01*
X108500000Y-104150000D01*
G37*
G36*
X92980000Y-104150000D02*
G01*
X91500000Y-104150000D01*
X91500000Y-103650000D01*
X92980000Y-103650000D01*
X92980000Y-104150000D01*
G37*
G36*
X130980000Y-103350000D02*
G01*
X129500000Y-103350000D01*
X129500000Y-102850000D01*
X130980000Y-102850000D01*
X130980000Y-103350000D01*
G37*
G36*
X108500000Y-103350000D02*
G01*
X107020000Y-103350000D01*
X107020000Y-102850000D01*
X108500000Y-102850000D01*
X108500000Y-103350000D01*
G37*
G36*
X70500000Y-103350000D02*
G01*
X69020000Y-103350000D01*
X69020000Y-102850000D01*
X70500000Y-102850000D01*
X70500000Y-103350000D01*
G37*
G36*
X92980000Y-103350000D02*
G01*
X91500000Y-103350000D01*
X91500000Y-102850000D01*
X92980000Y-102850000D01*
X92980000Y-103350000D01*
G37*
G36*
X70500000Y-102550000D02*
G01*
X69020000Y-102550000D01*
X69020000Y-102050000D01*
X70500000Y-102050000D01*
X70500000Y-102550000D01*
G37*
G36*
X92980000Y-102550000D02*
G01*
X91500000Y-102550000D01*
X91500000Y-102050000D01*
X92980000Y-102050000D01*
X92980000Y-102550000D01*
G37*
G36*
X130980000Y-102550000D02*
G01*
X129500000Y-102550000D01*
X129500000Y-102050000D01*
X130980000Y-102050000D01*
X130980000Y-102550000D01*
G37*
G36*
X108500000Y-102550000D02*
G01*
X107020000Y-102550000D01*
X107020000Y-102050000D01*
X108500000Y-102050000D01*
X108500000Y-102550000D01*
G37*
G36*
X108500000Y-101750000D02*
G01*
X107020000Y-101750000D01*
X107020000Y-101250000D01*
X108500000Y-101250000D01*
X108500000Y-101750000D01*
G37*
G36*
X92980000Y-101750000D02*
G01*
X91500000Y-101750000D01*
X91500000Y-101250000D01*
X92980000Y-101250000D01*
X92980000Y-101750000D01*
G37*
G36*
X70500000Y-101750000D02*
G01*
X69020000Y-101750000D01*
X69020000Y-101250000D01*
X70500000Y-101250000D01*
X70500000Y-101750000D01*
G37*
G36*
X130980000Y-101750000D02*
G01*
X129500000Y-101750000D01*
X129500000Y-101250000D01*
X130980000Y-101250000D01*
X130980000Y-101750000D01*
G37*
G36*
X108500000Y-100950000D02*
G01*
X107020000Y-100950000D01*
X107020000Y-100450000D01*
X108500000Y-100450000D01*
X108500000Y-100950000D01*
G37*
G36*
X130980000Y-100950000D02*
G01*
X129500000Y-100950000D01*
X129500000Y-100450000D01*
X130980000Y-100450000D01*
X130980000Y-100950000D01*
G37*
G36*
X70500000Y-100950000D02*
G01*
X69020000Y-100950000D01*
X69020000Y-100450000D01*
X70500000Y-100450000D01*
X70500000Y-100950000D01*
G37*
G36*
X92980000Y-100950000D02*
G01*
X91500000Y-100950000D01*
X91500000Y-100450000D01*
X92980000Y-100450000D01*
X92980000Y-100950000D01*
G37*
G36*
X134349116Y-99853595D02*
G01*
X134378311Y-99862452D01*
X134405223Y-99876837D01*
X134428808Y-99896192D01*
X134448163Y-99919777D01*
X134462548Y-99946689D01*
X134471405Y-99975884D01*
X134475000Y-100012390D01*
X134475000Y-100562610D01*
X134471405Y-100599116D01*
X134462548Y-100628311D01*
X134448163Y-100655223D01*
X134428808Y-100678808D01*
X134405223Y-100698163D01*
X134378311Y-100712548D01*
X134349116Y-100721405D01*
X134312610Y-100725000D01*
X133687390Y-100725000D01*
X133650884Y-100721405D01*
X133621689Y-100712548D01*
X133594777Y-100698163D01*
X133571192Y-100678808D01*
X133551837Y-100655223D01*
X133537452Y-100628311D01*
X133528595Y-100599116D01*
X133525000Y-100562610D01*
X133525000Y-100012390D01*
X133528595Y-99975884D01*
X133537452Y-99946689D01*
X133551837Y-99919777D01*
X133571192Y-99896192D01*
X133594777Y-99876837D01*
X133621689Y-99862452D01*
X133650884Y-99853595D01*
X133687390Y-99850000D01*
X134312610Y-99850000D01*
X134349116Y-99853595D01*
G37*
G36*
X66349116Y-99853595D02*
G01*
X66378311Y-99862452D01*
X66405223Y-99876837D01*
X66428808Y-99896192D01*
X66448163Y-99919777D01*
X66462548Y-99946689D01*
X66471405Y-99975884D01*
X66475000Y-100012390D01*
X66475000Y-100562610D01*
X66471405Y-100599116D01*
X66462548Y-100628311D01*
X66448163Y-100655223D01*
X66428808Y-100678808D01*
X66405223Y-100698163D01*
X66378311Y-100712548D01*
X66349116Y-100721405D01*
X66312610Y-100725000D01*
X65687390Y-100725000D01*
X65650884Y-100721405D01*
X65621689Y-100712548D01*
X65594777Y-100698163D01*
X65571192Y-100678808D01*
X65551837Y-100655223D01*
X65537452Y-100628311D01*
X65528595Y-100599116D01*
X65525000Y-100562610D01*
X65525000Y-100012390D01*
X65528595Y-99975884D01*
X65537452Y-99946689D01*
X65551837Y-99919777D01*
X65571192Y-99896192D01*
X65594777Y-99876837D01*
X65621689Y-99862452D01*
X65650884Y-99853595D01*
X65687390Y-99850000D01*
X66312610Y-99850000D01*
X66349116Y-99853595D01*
G37*
G36*
X108500000Y-100150000D02*
G01*
X107020000Y-100150000D01*
X107020000Y-99650000D01*
X108500000Y-99650000D01*
X108500000Y-100150000D01*
G37*
G36*
X130980000Y-100150000D02*
G01*
X129500000Y-100150000D01*
X129500000Y-99650000D01*
X130980000Y-99650000D01*
X130980000Y-100150000D01*
G37*
G36*
X92980000Y-100150000D02*
G01*
X91500000Y-100150000D01*
X91500000Y-99650000D01*
X92980000Y-99650000D01*
X92980000Y-100150000D01*
G37*
G36*
X70500000Y-100150000D02*
G01*
X69020000Y-100150000D01*
X69020000Y-99650000D01*
X70500000Y-99650000D01*
X70500000Y-100150000D01*
G37*
G36*
X130980000Y-99350000D02*
G01*
X129500000Y-99350000D01*
X129500000Y-98850000D01*
X130980000Y-98850000D01*
X130980000Y-99350000D01*
G37*
G36*
X92980000Y-99350000D02*
G01*
X91500000Y-99350000D01*
X91500000Y-98850000D01*
X92980000Y-98850000D01*
X92980000Y-99350000D01*
G37*
G36*
X108500000Y-99350000D02*
G01*
X107020000Y-99350000D01*
X107020000Y-98850000D01*
X108500000Y-98850000D01*
X108500000Y-99350000D01*
G37*
G36*
X70500000Y-99350000D02*
G01*
X69020000Y-99350000D01*
X69020000Y-98850000D01*
X70500000Y-98850000D01*
X70500000Y-99350000D01*
G37*
G36*
X134349116Y-98278595D02*
G01*
X134378311Y-98287452D01*
X134405223Y-98301837D01*
X134428808Y-98321192D01*
X134448163Y-98344777D01*
X134462548Y-98371689D01*
X134471405Y-98400884D01*
X134475000Y-98437390D01*
X134475000Y-98987610D01*
X134471405Y-99024116D01*
X134462548Y-99053311D01*
X134448163Y-99080223D01*
X134428808Y-99103808D01*
X134405223Y-99123163D01*
X134378311Y-99137548D01*
X134349116Y-99146405D01*
X134312610Y-99150000D01*
X133687390Y-99150000D01*
X133650884Y-99146405D01*
X133621689Y-99137548D01*
X133594777Y-99123163D01*
X133571192Y-99103808D01*
X133551837Y-99080223D01*
X133537452Y-99053311D01*
X133528595Y-99024116D01*
X133525000Y-98987610D01*
X133525000Y-98437390D01*
X133528595Y-98400884D01*
X133537452Y-98371689D01*
X133551837Y-98344777D01*
X133571192Y-98321192D01*
X133594777Y-98301837D01*
X133621689Y-98287452D01*
X133650884Y-98278595D01*
X133687390Y-98275000D01*
X134312610Y-98275000D01*
X134349116Y-98278595D01*
G37*
G36*
X66349116Y-98278595D02*
G01*
X66378311Y-98287452D01*
X66405223Y-98301837D01*
X66428808Y-98321192D01*
X66448163Y-98344777D01*
X66462548Y-98371689D01*
X66471405Y-98400884D01*
X66475000Y-98437390D01*
X66475000Y-98987610D01*
X66471405Y-99024116D01*
X66462548Y-99053311D01*
X66448163Y-99080223D01*
X66428808Y-99103808D01*
X66405223Y-99123163D01*
X66378311Y-99137548D01*
X66349116Y-99146405D01*
X66312610Y-99150000D01*
X65687390Y-99150000D01*
X65650884Y-99146405D01*
X65621689Y-99137548D01*
X65594777Y-99123163D01*
X65571192Y-99103808D01*
X65551837Y-99080223D01*
X65537452Y-99053311D01*
X65528595Y-99024116D01*
X65525000Y-98987610D01*
X65525000Y-98437390D01*
X65528595Y-98400884D01*
X65537452Y-98371689D01*
X65551837Y-98344777D01*
X65571192Y-98321192D01*
X65594777Y-98301837D01*
X65621689Y-98287452D01*
X65650884Y-98278595D01*
X65687390Y-98275000D01*
X66312610Y-98275000D01*
X66349116Y-98278595D01*
G37*
G36*
X130980000Y-98550000D02*
G01*
X129500000Y-98550000D01*
X129500000Y-98050000D01*
X130980000Y-98050000D01*
X130980000Y-98550000D01*
G37*
G36*
X108500000Y-98550000D02*
G01*
X107020000Y-98550000D01*
X107020000Y-98050000D01*
X108500000Y-98050000D01*
X108500000Y-98550000D01*
G37*
G36*
X70500000Y-98550000D02*
G01*
X69020000Y-98550000D01*
X69020000Y-98050000D01*
X70500000Y-98050000D01*
X70500000Y-98550000D01*
G37*
G36*
X92980000Y-98550000D02*
G01*
X91500000Y-98550000D01*
X91500000Y-98050000D01*
X92980000Y-98050000D01*
X92980000Y-98550000D01*
G37*
G36*
X92980000Y-97750000D02*
G01*
X91500000Y-97750000D01*
X91500000Y-97250000D01*
X92980000Y-97250000D01*
X92980000Y-97750000D01*
G37*
G36*
X130980000Y-97750000D02*
G01*
X129500000Y-97750000D01*
X129500000Y-97250000D01*
X130980000Y-97250000D01*
X130980000Y-97750000D01*
G37*
G36*
X108500000Y-97750000D02*
G01*
X107020000Y-97750000D01*
X107020000Y-97250000D01*
X108500000Y-97250000D01*
X108500000Y-97750000D01*
G37*
G36*
X70500000Y-97750000D02*
G01*
X69020000Y-97750000D01*
X69020000Y-97250000D01*
X70500000Y-97250000D01*
X70500000Y-97750000D01*
G37*
G36*
X130980000Y-96950000D02*
G01*
X129500000Y-96950000D01*
X129500000Y-96450000D01*
X130980000Y-96450000D01*
X130980000Y-96950000D01*
G37*
G36*
X108500000Y-96950000D02*
G01*
X107020000Y-96950000D01*
X107020000Y-96450000D01*
X108500000Y-96450000D01*
X108500000Y-96950000D01*
G37*
G36*
X92980000Y-96950000D02*
G01*
X91500000Y-96950000D01*
X91500000Y-96450000D01*
X92980000Y-96450000D01*
X92980000Y-96950000D01*
G37*
G36*
X70500000Y-96950000D02*
G01*
X69020000Y-96950000D01*
X69020000Y-96450000D01*
X70500000Y-96450000D01*
X70500000Y-96950000D01*
G37*
G36*
X70500000Y-96150000D02*
G01*
X69020000Y-96150000D01*
X69020000Y-95650000D01*
X70500000Y-95650000D01*
X70500000Y-96150000D01*
G37*
G36*
X92980000Y-96150000D02*
G01*
X91500000Y-96150000D01*
X91500000Y-95650000D01*
X92980000Y-95650000D01*
X92980000Y-96150000D01*
G37*
G36*
X108500000Y-96150000D02*
G01*
X107020000Y-96150000D01*
X107020000Y-95650000D01*
X108500000Y-95650000D01*
X108500000Y-96150000D01*
G37*
G36*
X130980000Y-96150000D02*
G01*
X129500000Y-96150000D01*
X129500000Y-95650000D01*
X130980000Y-95650000D01*
X130980000Y-96150000D01*
G37*
G36*
X130980000Y-95350000D02*
G01*
X129500000Y-95350000D01*
X129500000Y-94850000D01*
X130980000Y-94850000D01*
X130980000Y-95350000D01*
G37*
G36*
X108500000Y-95350000D02*
G01*
X107020000Y-95350000D01*
X107020000Y-94850000D01*
X108500000Y-94850000D01*
X108500000Y-95350000D01*
G37*
G36*
X92980000Y-95350000D02*
G01*
X91500000Y-95350000D01*
X91500000Y-94850000D01*
X92980000Y-94850000D01*
X92980000Y-95350000D01*
G37*
G36*
X70500000Y-95350000D02*
G01*
X69020000Y-95350000D01*
X69020000Y-94850000D01*
X70500000Y-94850000D01*
X70500000Y-95350000D01*
G37*
G36*
X92980000Y-94550000D02*
G01*
X91500000Y-94550000D01*
X91500000Y-94050000D01*
X92980000Y-94050000D01*
X92980000Y-94550000D01*
G37*
G36*
X70500000Y-94550000D02*
G01*
X69020000Y-94550000D01*
X69020000Y-94050000D01*
X70500000Y-94050000D01*
X70500000Y-94550000D01*
G37*
G36*
X108500000Y-94550000D02*
G01*
X107020000Y-94550000D01*
X107020000Y-94050000D01*
X108500000Y-94050000D01*
X108500000Y-94550000D01*
G37*
G36*
X130980000Y-94550000D02*
G01*
X129500000Y-94550000D01*
X129500000Y-94050000D01*
X130980000Y-94050000D01*
X130980000Y-94550000D01*
G37*
G36*
X70500000Y-93750000D02*
G01*
X69020000Y-93750000D01*
X69020000Y-93250000D01*
X70500000Y-93250000D01*
X70500000Y-93750000D01*
G37*
G36*
X108500000Y-93750000D02*
G01*
X107020000Y-93750000D01*
X107020000Y-93250000D01*
X108500000Y-93250000D01*
X108500000Y-93750000D01*
G37*
G36*
X130980000Y-93750000D02*
G01*
X129500000Y-93750000D01*
X129500000Y-93250000D01*
X130980000Y-93250000D01*
X130980000Y-93750000D01*
G37*
G36*
X92980000Y-93750000D02*
G01*
X91500000Y-93750000D01*
X91500000Y-93250000D01*
X92980000Y-93250000D01*
X92980000Y-93750000D01*
G37*
G36*
X112450000Y-92000000D02*
G01*
X111950000Y-92000000D01*
X111950000Y-90520000D01*
X112450000Y-90520000D01*
X112450000Y-92000000D01*
G37*
G36*
X111650000Y-92000000D02*
G01*
X111150000Y-92000000D01*
X111150000Y-90520000D01*
X111650000Y-90520000D01*
X111650000Y-92000000D01*
G37*
G36*
X110850000Y-92000000D02*
G01*
X110350000Y-92000000D01*
X110350000Y-90520000D01*
X110850000Y-90520000D01*
X110850000Y-92000000D01*
G37*
G36*
X110050000Y-92000000D02*
G01*
X109550000Y-92000000D01*
X109550000Y-90520000D01*
X110050000Y-90520000D01*
X110050000Y-92000000D01*
G37*
G36*
X113250000Y-92000000D02*
G01*
X112750000Y-92000000D01*
X112750000Y-90520000D01*
X113250000Y-90520000D01*
X113250000Y-92000000D01*
G37*
G36*
X121250000Y-92000000D02*
G01*
X120750000Y-92000000D01*
X120750000Y-90520000D01*
X121250000Y-90520000D01*
X121250000Y-92000000D01*
G37*
G36*
X128450000Y-92000000D02*
G01*
X127950000Y-92000000D01*
X127950000Y-90520000D01*
X128450000Y-90520000D01*
X128450000Y-92000000D01*
G37*
G36*
X127650000Y-92000000D02*
G01*
X127150000Y-92000000D01*
X127150000Y-90520000D01*
X127650000Y-90520000D01*
X127650000Y-92000000D01*
G37*
G36*
X126850000Y-92000000D02*
G01*
X126350000Y-92000000D01*
X126350000Y-90520000D01*
X126850000Y-90520000D01*
X126850000Y-92000000D01*
G37*
G36*
X126050000Y-92000000D02*
G01*
X125550000Y-92000000D01*
X125550000Y-90520000D01*
X126050000Y-90520000D01*
X126050000Y-92000000D01*
G37*
G36*
X72050000Y-92000000D02*
G01*
X71550000Y-92000000D01*
X71550000Y-90520000D01*
X72050000Y-90520000D01*
X72050000Y-92000000D01*
G37*
G36*
X125250000Y-92000000D02*
G01*
X124750000Y-92000000D01*
X124750000Y-90520000D01*
X125250000Y-90520000D01*
X125250000Y-92000000D01*
G37*
G36*
X124450000Y-92000000D02*
G01*
X123950000Y-92000000D01*
X123950000Y-90520000D01*
X124450000Y-90520000D01*
X124450000Y-92000000D01*
G37*
G36*
X123650000Y-92000000D02*
G01*
X123150000Y-92000000D01*
X123150000Y-90520000D01*
X123650000Y-90520000D01*
X123650000Y-92000000D01*
G37*
G36*
X122850000Y-92000000D02*
G01*
X122350000Y-92000000D01*
X122350000Y-90520000D01*
X122850000Y-90520000D01*
X122850000Y-92000000D01*
G37*
G36*
X122050000Y-92000000D02*
G01*
X121550000Y-92000000D01*
X121550000Y-90520000D01*
X122050000Y-90520000D01*
X122050000Y-92000000D01*
G37*
G36*
X120450000Y-92000000D02*
G01*
X119950000Y-92000000D01*
X119950000Y-90520000D01*
X120450000Y-90520000D01*
X120450000Y-92000000D01*
G37*
G36*
X119650000Y-92000000D02*
G01*
X119150000Y-92000000D01*
X119150000Y-90520000D01*
X119650000Y-90520000D01*
X119650000Y-92000000D01*
G37*
G36*
X118850000Y-92000000D02*
G01*
X118350000Y-92000000D01*
X118350000Y-90520000D01*
X118850000Y-90520000D01*
X118850000Y-92000000D01*
G37*
G36*
X118050000Y-92000000D02*
G01*
X117550000Y-92000000D01*
X117550000Y-90520000D01*
X118050000Y-90520000D01*
X118050000Y-92000000D01*
G37*
G36*
X117250000Y-92000000D02*
G01*
X116750000Y-92000000D01*
X116750000Y-90520000D01*
X117250000Y-90520000D01*
X117250000Y-92000000D01*
G37*
G36*
X115650000Y-92000000D02*
G01*
X115150000Y-92000000D01*
X115150000Y-90520000D01*
X115650000Y-90520000D01*
X115650000Y-92000000D01*
G37*
G36*
X114850000Y-92000000D02*
G01*
X114350000Y-92000000D01*
X114350000Y-90520000D01*
X114850000Y-90520000D01*
X114850000Y-92000000D01*
G37*
G36*
X114050000Y-92000000D02*
G01*
X113550000Y-92000000D01*
X113550000Y-90520000D01*
X114050000Y-90520000D01*
X114050000Y-92000000D01*
G37*
G36*
X73650000Y-92000000D02*
G01*
X73150000Y-92000000D01*
X73150000Y-90520000D01*
X73650000Y-90520000D01*
X73650000Y-92000000D01*
G37*
G36*
X116450000Y-92000000D02*
G01*
X115950000Y-92000000D01*
X115950000Y-90520000D01*
X116450000Y-90520000D01*
X116450000Y-92000000D01*
G37*
G36*
X81650000Y-92000000D02*
G01*
X81150000Y-92000000D01*
X81150000Y-90520000D01*
X81650000Y-90520000D01*
X81650000Y-92000000D01*
G37*
G36*
X90450000Y-92000000D02*
G01*
X89950000Y-92000000D01*
X89950000Y-90520000D01*
X90450000Y-90520000D01*
X90450000Y-92000000D01*
G37*
G36*
X89650000Y-92000000D02*
G01*
X89150000Y-92000000D01*
X89150000Y-90520000D01*
X89650000Y-90520000D01*
X89650000Y-92000000D01*
G37*
G36*
X88850000Y-92000000D02*
G01*
X88350000Y-92000000D01*
X88350000Y-90520000D01*
X88850000Y-90520000D01*
X88850000Y-92000000D01*
G37*
G36*
X88050000Y-92000000D02*
G01*
X87550000Y-92000000D01*
X87550000Y-90520000D01*
X88050000Y-90520000D01*
X88050000Y-92000000D01*
G37*
G36*
X87250000Y-92000000D02*
G01*
X86750000Y-92000000D01*
X86750000Y-90520000D01*
X87250000Y-90520000D01*
X87250000Y-92000000D01*
G37*
G36*
X86450000Y-92000000D02*
G01*
X85950000Y-92000000D01*
X85950000Y-90520000D01*
X86450000Y-90520000D01*
X86450000Y-92000000D01*
G37*
G36*
X85650000Y-92000000D02*
G01*
X85150000Y-92000000D01*
X85150000Y-90520000D01*
X85650000Y-90520000D01*
X85650000Y-92000000D01*
G37*
G36*
X84850000Y-92000000D02*
G01*
X84350000Y-92000000D01*
X84350000Y-90520000D01*
X84850000Y-90520000D01*
X84850000Y-92000000D01*
G37*
G36*
X84050000Y-92000000D02*
G01*
X83550000Y-92000000D01*
X83550000Y-90520000D01*
X84050000Y-90520000D01*
X84050000Y-92000000D01*
G37*
G36*
X82450000Y-92000000D02*
G01*
X81950000Y-92000000D01*
X81950000Y-90520000D01*
X82450000Y-90520000D01*
X82450000Y-92000000D01*
G37*
G36*
X72850000Y-92000000D02*
G01*
X72350000Y-92000000D01*
X72350000Y-90520000D01*
X72850000Y-90520000D01*
X72850000Y-92000000D01*
G37*
G36*
X74450000Y-92000000D02*
G01*
X73950000Y-92000000D01*
X73950000Y-90520000D01*
X74450000Y-90520000D01*
X74450000Y-92000000D01*
G37*
G36*
X75250000Y-92000000D02*
G01*
X74750000Y-92000000D01*
X74750000Y-90520000D01*
X75250000Y-90520000D01*
X75250000Y-92000000D01*
G37*
G36*
X76050000Y-92000000D02*
G01*
X75550000Y-92000000D01*
X75550000Y-90520000D01*
X76050000Y-90520000D01*
X76050000Y-92000000D01*
G37*
G36*
X76850000Y-92000000D02*
G01*
X76350000Y-92000000D01*
X76350000Y-90520000D01*
X76850000Y-90520000D01*
X76850000Y-92000000D01*
G37*
G36*
X78450000Y-92000000D02*
G01*
X77950000Y-92000000D01*
X77950000Y-90520000D01*
X78450000Y-90520000D01*
X78450000Y-92000000D01*
G37*
G36*
X79250000Y-92000000D02*
G01*
X78750000Y-92000000D01*
X78750000Y-90520000D01*
X79250000Y-90520000D01*
X79250000Y-92000000D01*
G37*
G36*
X80050000Y-92000000D02*
G01*
X79550000Y-92000000D01*
X79550000Y-90520000D01*
X80050000Y-90520000D01*
X80050000Y-92000000D01*
G37*
G36*
X80850000Y-92000000D02*
G01*
X80350000Y-92000000D01*
X80350000Y-90520000D01*
X80850000Y-90520000D01*
X80850000Y-92000000D01*
G37*
G36*
X83250000Y-92000000D02*
G01*
X82750000Y-92000000D01*
X82750000Y-90520000D01*
X83250000Y-90520000D01*
X83250000Y-92000000D01*
G37*
G36*
X77650000Y-92000000D02*
G01*
X77150000Y-92000000D01*
X77150000Y-90520000D01*
X77650000Y-90520000D01*
X77650000Y-92000000D01*
G37*
G36*
X89935116Y-88060095D02*
G01*
X89964311Y-88068952D01*
X89991223Y-88083337D01*
X90014808Y-88102692D01*
X90034163Y-88126277D01*
X90048548Y-88153189D01*
X90057405Y-88182384D01*
X90061000Y-88218890D01*
X90061000Y-88769110D01*
X90057405Y-88805616D01*
X90048548Y-88834811D01*
X90034163Y-88861723D01*
X90014808Y-88885308D01*
X89991223Y-88904663D01*
X89964311Y-88919048D01*
X89935116Y-88927905D01*
X89898610Y-88931500D01*
X89273390Y-88931500D01*
X89236884Y-88927905D01*
X89207689Y-88919048D01*
X89180777Y-88904663D01*
X89157192Y-88885308D01*
X89137837Y-88861723D01*
X89123452Y-88834811D01*
X89114595Y-88805616D01*
X89111000Y-88769110D01*
X89111000Y-88218890D01*
X89114595Y-88182384D01*
X89123452Y-88153189D01*
X89137837Y-88126277D01*
X89157192Y-88102692D01*
X89180777Y-88083337D01*
X89207689Y-88068952D01*
X89236884Y-88060095D01*
X89273390Y-88056500D01*
X89898610Y-88056500D01*
X89935116Y-88060095D01*
G37*
G36*
X109050000Y-88150000D02*
G01*
X107050000Y-88150000D01*
X107050000Y-86850000D01*
X109050000Y-86850000D01*
X109050000Y-88150000D01*
G37*
G36*
X92950000Y-88150000D02*
G01*
X90950000Y-88150000D01*
X90950000Y-86850000D01*
X92950000Y-86850000D01*
X92950000Y-88150000D01*
G37*
G36*
X89935116Y-86485095D02*
G01*
X89964311Y-86493952D01*
X89991223Y-86508337D01*
X90014808Y-86527692D01*
X90034163Y-86551277D01*
X90048548Y-86578189D01*
X90057405Y-86607384D01*
X90061000Y-86643890D01*
X90061000Y-87194110D01*
X90057405Y-87230616D01*
X90048548Y-87259811D01*
X90034163Y-87286723D01*
X90014808Y-87310308D01*
X89991223Y-87329663D01*
X89964311Y-87344048D01*
X89935116Y-87352905D01*
X89898610Y-87356500D01*
X89273390Y-87356500D01*
X89236884Y-87352905D01*
X89207689Y-87344048D01*
X89180777Y-87329663D01*
X89157192Y-87310308D01*
X89137837Y-87286723D01*
X89123452Y-87259811D01*
X89114595Y-87230616D01*
X89111000Y-87194110D01*
X89111000Y-86643890D01*
X89114595Y-86607384D01*
X89123452Y-86578189D01*
X89137837Y-86551277D01*
X89157192Y-86527692D01*
X89180777Y-86508337D01*
X89207689Y-86493952D01*
X89236884Y-86485095D01*
X89273390Y-86481500D01*
X89898610Y-86481500D01*
X89935116Y-86485095D01*
G37*
G36*
X89935116Y-84961095D02*
G01*
X89964311Y-84969952D01*
X89991223Y-84984337D01*
X90014808Y-85003692D01*
X90034163Y-85027277D01*
X90048548Y-85054189D01*
X90057405Y-85083384D01*
X90061000Y-85119890D01*
X90061000Y-85670110D01*
X90057405Y-85706616D01*
X90048548Y-85735811D01*
X90034163Y-85762723D01*
X90014808Y-85786308D01*
X89991223Y-85805663D01*
X89964311Y-85820048D01*
X89935116Y-85828905D01*
X89898610Y-85832500D01*
X89273390Y-85832500D01*
X89236884Y-85828905D01*
X89207689Y-85820048D01*
X89180777Y-85805663D01*
X89157192Y-85786308D01*
X89137837Y-85762723D01*
X89123452Y-85735811D01*
X89114595Y-85706616D01*
X89111000Y-85670110D01*
X89111000Y-85119890D01*
X89114595Y-85083384D01*
X89123452Y-85054189D01*
X89137837Y-85027277D01*
X89157192Y-85003692D01*
X89180777Y-84984337D01*
X89207689Y-84969952D01*
X89236884Y-84961095D01*
X89273390Y-84957500D01*
X89898610Y-84957500D01*
X89935116Y-84961095D01*
G37*
G36*
X105900000Y-85300000D02*
G01*
X94100000Y-85300000D01*
X94100000Y-84300000D01*
X105900000Y-84300000D01*
X105900000Y-85300000D01*
G37*
G36*
X89935116Y-83386095D02*
G01*
X89964311Y-83394952D01*
X89991223Y-83409337D01*
X90014808Y-83428692D01*
X90034163Y-83452277D01*
X90048548Y-83479189D01*
X90057405Y-83508384D01*
X90061000Y-83544890D01*
X90061000Y-84095110D01*
X90057405Y-84131616D01*
X90048548Y-84160811D01*
X90034163Y-84187723D01*
X90014808Y-84211308D01*
X89991223Y-84230663D01*
X89964311Y-84245048D01*
X89935116Y-84253905D01*
X89898610Y-84257500D01*
X89273390Y-84257500D01*
X89236884Y-84253905D01*
X89207689Y-84245048D01*
X89180777Y-84230663D01*
X89157192Y-84211308D01*
X89137837Y-84187723D01*
X89123452Y-84160811D01*
X89114595Y-84131616D01*
X89111000Y-84095110D01*
X89111000Y-83544890D01*
X89114595Y-83508384D01*
X89123452Y-83479189D01*
X89137837Y-83452277D01*
X89157192Y-83428692D01*
X89180777Y-83409337D01*
X89207689Y-83394952D01*
X89236884Y-83386095D01*
X89273390Y-83382500D01*
X89898610Y-83382500D01*
X89935116Y-83386095D01*
G37*
G36*
X144466703Y-72461486D02*
G01*
X144757883Y-72582097D01*
X145019940Y-72757198D01*
X145242802Y-72980060D01*
X145417903Y-73242117D01*
X145538514Y-73533297D01*
X145600000Y-73842412D01*
X145600000Y-74157588D01*
X145538514Y-74466703D01*
X145417903Y-74757883D01*
X145242802Y-75019940D01*
X145019940Y-75242802D01*
X144757883Y-75417903D01*
X144466703Y-75538514D01*
X144157588Y-75600000D01*
X143842412Y-75600000D01*
X143533297Y-75538514D01*
X143242117Y-75417903D01*
X142980060Y-75242802D01*
X142757198Y-75019940D01*
X142582097Y-74757883D01*
X142461486Y-74466703D01*
X142400000Y-74157588D01*
X142400000Y-73842412D01*
X142461486Y-73533297D01*
X142582097Y-73242117D01*
X142757198Y-72980060D01*
X142980060Y-72757198D01*
X143242117Y-72582097D01*
X143533297Y-72461486D01*
X143842412Y-72400000D01*
X144157588Y-72400000D01*
X144466703Y-72461486D01*
G37*
G36*
X56466703Y-72461486D02*
G01*
X56757883Y-72582097D01*
X57019940Y-72757198D01*
X57242802Y-72980060D01*
X57417903Y-73242117D01*
X57538514Y-73533297D01*
X57600000Y-73842412D01*
X57600000Y-74157588D01*
X57538514Y-74466703D01*
X57417903Y-74757883D01*
X57242802Y-75019940D01*
X57019940Y-75242802D01*
X56757883Y-75417903D01*
X56466703Y-75538514D01*
X56157588Y-75600000D01*
X55842412Y-75600000D01*
X55533297Y-75538514D01*
X55242117Y-75417903D01*
X54980060Y-75242802D01*
X54757198Y-75019940D01*
X54582097Y-74757883D01*
X54461486Y-74466703D01*
X54400000Y-74157588D01*
X54400000Y-73842412D01*
X54461486Y-73533297D01*
X54582097Y-73242117D01*
X54757198Y-72980060D01*
X54980060Y-72757198D01*
X55242117Y-72582097D01*
X55533297Y-72461486D01*
X55842412Y-72400000D01*
X56157588Y-72400000D01*
X56466703Y-72461486D01*
G37*
G36*
X137247765Y-72754403D02*
G01*
X137370445Y-72778805D01*
X137601571Y-72874541D01*
X137809578Y-73013527D01*
X137986473Y-73190422D01*
X138125459Y-73398429D01*
X138221195Y-73629555D01*
X138270000Y-73874916D01*
X138270000Y-74125084D01*
X138221195Y-74370445D01*
X138125459Y-74601571D01*
X137986473Y-74809578D01*
X137809578Y-74986473D01*
X137601571Y-75125459D01*
X137370445Y-75221195D01*
X137247765Y-75245597D01*
X137125085Y-75270000D01*
X136874915Y-75270000D01*
X136752235Y-75245597D01*
X136629555Y-75221195D01*
X136398429Y-75125459D01*
X136190422Y-74986473D01*
X136013527Y-74809578D01*
X135874541Y-74601571D01*
X135778805Y-74370445D01*
X135730000Y-74125084D01*
X135730000Y-73874916D01*
X135778805Y-73629555D01*
X135874541Y-73398429D01*
X136013527Y-73190422D01*
X136190422Y-73013527D01*
X136398429Y-72874541D01*
X136629555Y-72778805D01*
X136752235Y-72754403D01*
X136874915Y-72730000D01*
X137125085Y-72730000D01*
X137247765Y-72754403D01*
G37*
G36*
X63247765Y-72754403D02*
G01*
X63370445Y-72778805D01*
X63601571Y-72874541D01*
X63809578Y-73013527D01*
X63986473Y-73190422D01*
X64125459Y-73398429D01*
X64221195Y-73629555D01*
X64270000Y-73874916D01*
X64270000Y-74125084D01*
X64221195Y-74370445D01*
X64125459Y-74601571D01*
X63986473Y-74809578D01*
X63809578Y-74986473D01*
X63601571Y-75125459D01*
X63370445Y-75221195D01*
X63247765Y-75245597D01*
X63125085Y-75270000D01*
X62874915Y-75270000D01*
X62752235Y-75245597D01*
X62629555Y-75221195D01*
X62398429Y-75125459D01*
X62190422Y-74986473D01*
X62013527Y-74809578D01*
X61874541Y-74601571D01*
X61778805Y-74370445D01*
X61730000Y-74125084D01*
X61730000Y-73874916D01*
X61778805Y-73629555D01*
X61874541Y-73398429D01*
X62013527Y-73190422D01*
X62190422Y-73013527D01*
X62398429Y-72874541D01*
X62629555Y-72778805D01*
X62752235Y-72754403D01*
X62874915Y-72730000D01*
X63125085Y-72730000D01*
X63247765Y-72754403D01*
G37*
M02*
