<?xml version="1.0" encoding="UTF-8" standalone="no"?>
<!-- Created with Inkscape (http://www.inkscape.org/) -->

<svg
   xmlns:dc="http://purl.org/dc/elements/1.1/"
   xmlns:cc="http://creativecommons.org/ns#"
   xmlns:rdf="http://www.w3.org/1999/02/22-rdf-syntax-ns#"
   xmlns:svg="http://www.w3.org/2000/svg"
   xmlns="http://www.w3.org/2000/svg"
   xmlns:sodipodi="http://sodipodi.sourceforge.net/DTD/sodipodi-0.dtd"
   xmlns:inkscape="http://www.inkscape.org/namespaces/inkscape"
   width="210mm"
   height="297mm"
   viewBox="0 0 210 297"
   version="1.1"
   id="svg6713"
   inkscape:version="0.92.4 (fd57863, 2020-04-02)"
   sodipodi:docname="DimmTopOutline.svg">
  <defs
     id="defs6707" />
  <sodipodi:namedview
     id="base"
     pagecolor="#ffffff"
     bordercolor="#666666"
     borderopacity="1.0"
     inkscape:pageopacity="0.0"
     inkscape:pageshadow="2"
     inkscape:zoom="2"
     inkscape:cx="304.96421"
     inkscape:cy="944.95926"
     inkscape:document-units="mm"
     inkscape:current-layer="layer1"
     showgrid="false"
     inkscape:window-width="1975"
     inkscape:window-height="1097"
     inkscape:window-x="73"
     inkscape:window-y="27"
     inkscape:window-maximized="1"
     inkscape:snap-bbox="true"
     inkscape:bbox-paths="true"
     inkscape:bbox-nodes="true"
     inkscape:snap-bbox-edge-midpoints="true"
     inkscape:snap-bbox-midpoints="true"
     inkscape:object-paths="true"
     inkscape:snap-intersection-paths="true"
     inkscape:object-nodes="false"
     inkscape:snap-smooth-nodes="true"
     inkscape:snap-midpoints="true"
     inkscape:snap-object-midpoints="true"
     inkscape:snap-center="true" />
  <metadata
     id="metadata6710">
    <rdf:RDF>
      <cc:Work
         rdf:about="">
        <dc:format>image/svg+xml</dc:format>
        <dc:type
           rdf:resource="http://purl.org/dc/dcmitype/StillImage" />
        <dc:title />
      </cc:Work>
    </rdf:RDF>
  </metadata>
  <g
     inkscape:label="Layer 1"
     inkscape:groupmode="layer"
     id="layer1">
    <path
       inkscape:connector-curvature="0"
       d="m 65.685268,69.506699 h -1.200002 -1.200003 l -0.311391,-0.06287 -0.254286,-0.17145 -0.171446,-0.254292 -0.06287,-0.311399 0,-3.862026 v -2.225 -11.259004 -2.224999 -3.860607 -2.225 l 0.06287,-0.311397 0.171444,-0.254289 0.254287,-0.171446 0.311391,-0.06287 h 2.400005 l 61.064093,-0.0056 h 1.2 1.2 l 0.31139,0.06287 0.25429,0.171446 0.17144,0.254289 0.0629,0.311397 0,3.829036 0,3.862109 v 2.225 9.034011 2.262204 2.224998 2.224997 l -0.0629,0.311399 -0.17144,0.254292 -0.25429,0.17145 -0.31139,0.06287 h -1.2 z"
       style="fill:none;stroke:#000000;stroke-width:0.05;stroke-linecap:round;stroke-miterlimit:4;stroke-dasharray:none;stroke-opacity:0.98578198"
       id="path10387-4-3-5-4-0-8-3"
       sodipodi:nodetypes="cccccccccccccccccccccccccccccccccccccc" />
    <path
       inkscape:connector-curvature="0"
       style="opacity:1;vector-effect:none;fill:none;fill-opacity:1;stroke:#000000;stroke-width:0.05;stroke-linecap:butt;stroke-linejoin:miter;stroke-miterlimit:4;stroke-dasharray:none;stroke-dashoffset:0;stroke-opacity:0.98578198"
       d="m 137.21238,75.934832 -0.0785,0.388713 -0.21408,0.317339 -0.31749,0.213911 -0.38882,0.07843 c -27.0819,0 -56.297078,3e-6 -79.992263,-2e-5 h -1.66e-4 l -0.388797,-0.07843 -0.317514,-0.213911 -0.214084,-0.317339 -0.0785,-0.388713 4.95e-4,-0.38045 v -1.37666 -1.37666 -1.37666 l 0.774031,-0.158223 0.631718,-0.427519 0.425712,-0.632938 0.156009,-0.77448 -0.156159,-0.774313 -0.425745,-0.632769 -0.631661,-0.427388 -0.773905,-0.15817 V 35.899417 l 0.0785,-0.388713 0.214084,-0.317339 0.317514,-0.213911 0.388797,-0.07843 c 23.695184,-2.3e-5 52.910354,-2e-5 79.992264,-2e-5 l 0.38881,0.07843 0.3175,0.213911 0.21408,0.317339 0.0785,0.388713 -0.012,31.539675 -0.76981,0.161656 -0.62758,0.428067 -0.42266,0.631238 -0.15504,0.771169 0.15494,0.770922 0.42239,0.631126 0.62725,0.428134 0.76948,0.161948 -7.5e-4,1.376918 -7.6e-4,1.376917 -7.5e-4,1.376918 z"
       id="path10892-1-3-8-8-2-6-8-3"
       sodipodi:nodetypes="cccccccccccccccccccccccccccccccccccccccccccccc" />
    <path
       inkscape:connector-curvature="0"
       d="m 64.32761,71.006484 h -1.253362 -1.253363 l -0.325238,-0.06979 -0.265593,-0.190315 -0.179069,-0.282271 -0.06567,-0.345662 V 65.831492 63.361679 50.863868 48.394056 44.108672 41.63886 l 0.06567,-0.345659 0.179067,-0.28227 0.265594,-0.190308 0.325237,-0.06979 h 2.506726 l 63.779391,-0.0062 h 1.25337 1.25335 l 0.32524,0.06979 0.2656,0.190309 0.17907,0.282269 0.0657,0.34566 v 4.250337 4.287052 2.469811 10.028007 2.51111 2.469811 2.46981 l -0.0657,0.345662 -0.17907,0.28227 -0.2656,0.190314 -0.32524,0.06979 h -1.25335 z"
       style="fill:none;stroke:#000000;stroke-width:0.05;stroke-linecap:round;stroke-miterlimit:4;stroke-dasharray:none;stroke-opacity:0.98578198"
       id="path10387-4-3-5-4-0-8-3-6"
       sodipodi:nodetypes="cccccccccccccccccccccccccccccccccccccc" />
    <path
       style="opacity:1;vector-effect:none;fill:#ffff00;fill-opacity:1;stroke:#000000;stroke-width:0.00377953;stroke-linecap:butt;stroke-linejoin:miter;stroke-miterlimit:4;stroke-dasharray:none;stroke-dashoffset:0;stroke-opacity:1"
       d="m 232.47713,267.77353 c -0.44019,-0.21706 -1.00269,-0.69262 -1.25,-1.05681 -0.42948,-0.63246 -0.44965,-3.11886 -0.44965,-55.4368 0,-59.50915 -0.0948,-55.55163 1.35386,-56.5362 0.61397,-0.41728 7.14911,-0.44231 131.23137,-0.5026 118.92397,-0.0578 130.66002,-0.028 131.42285,0.33404 0.4607,0.21861 1.0411,0.69716 1.28977,1.06344 0.4328,0.63747 0.45215,3.01432 0.45215,55.54097 0,54.03544 -0.008,54.88604 -0.4886,55.5966 -0.26872,0.39689 -0.85575,0.87501 -1.30447,1.0625 -0.68545,0.28641 -21.64719,0.33999 -131.1364,0.3352 -118.2124,-0.005 -130.39489,-0.0424 -131.12088,-0.40034 z m 257.4465,-5.40812 c 1.44598,-0.98277 1.35385,2.50012 1.35385,-51.18584 0,-53.68597 0.0921,-50.20308 -1.35385,-51.18585 -0.61387,-0.41722 -6.90197,-0.44228 -125.89615,-0.50181 -118.88063,-0.0595 -125.29359,-0.0404 -126.10723,0.375 -0.47147,0.24071 -1.09022,0.75527 -1.375,1.14346 l -0.51777,0.70581 -0.0732,48.66919 c -0.0402,26.76806 -0.006,49.14525 0.0771,49.72709 0.16607,1.16901 1.23149,2.4566 2.18565,2.64145 0.30821,0.0597 56.92288,0.0955 125.81038,0.0796 119.026,-0.0275 125.2821,-0.0508 125.89615,-0.46811 z"
       id="path6029"
       inkscape:connector-curvature="0"
       inkscape:export-filename="/home/gaudi/Desktop/Cartridge/OpenCartridgeCooper.png"
       inkscape:export-xdpi="600"
       inkscape:export-ydpi="600"
       transform="scale(0.26458333)" />
    <path
       style="opacity:1;vector-effect:none;fill:#ff0000;fill-opacity:1;stroke:none;stroke-width:3.02362204;stroke-linecap:butt;stroke-linejoin:miter;stroke-miterlimit:4;stroke-dasharray:none;stroke-dashoffset:0;stroke-opacity:1"
       d="m 210.94343,290.0979 c -0.45125,-0.22241 -1.07,-0.75422 -1.375,-1.1818 -0.54456,-0.76343 -0.55588,-0.94015 -0.62859,-9.81488 l -0.074,-9.03745 1.25841,-0.17308 c 1.73716,-0.23892 3.93923,-1.69828 4.94388,-3.27642 2.85266,-4.48104 0.34632,-10.63183 -4.74005,-11.63251 l -1.43916,-0.28314 0.0141,-59.65497 c 0.0108,-45.54646 0.0847,-59.8563 0.3125,-60.50625 0.16412,-0.4682 0.73071,-1.19945 1.2591,-1.625 l 0.9607,-0.77373 h 152.1643 c 151.16189,0 152.16967,0.003 152.98209,0.49454 0.4498,0.272 1.04043,0.95439 1.3125,1.51643 0.4887,1.00951 0.4947,1.74676 0.4947,60.80024 v 59.77834 l -1.4273,0.29631 c -4.0118,0.83285 -6.58027,4.76575 -5.78255,8.85435 0.58548,3.0008 2.8597,5.32556 5.8165,5.94575 l 1.4162,0.29705 -0.0739,9.0085 -0.0739,9.00849 -0.59967,0.84079 c -0.3298,0.46243 -0.97308,0.99681 -1.42945,1.1875 -0.7045,0.29435 -23.75963,0.34585 -152.65035,0.34102 -139.34291,-0.005 -151.88796,-0.0389 -152.64098,-0.41008 z m 285.35975,-20.98573 c 0.52838,-0.42708 1.1857,-1.15833 1.4607,-1.625 0.49595,-0.84162 0.5,-1.29799 0.5,-56.3485 v -55.5 l -0.5571,-0.88649 c -0.80495,-1.2809 -1.8969,-1.98829 -3.5193,-2.27988 -0.96875,-0.17411 -43.08565,-0.18841 -131.81701,-0.0447 l -130.39341,0.21111 -0.86982,0.59608 c -0.4784,0.32784 -1.14511,1.00284 -1.48159,1.5 l -0.61177,0.90392 -0.0652,54.96305 c -0.0459,38.66408 0.0146,55.25953 0.20395,55.96282 0.32406,1.20346 2.1867,3.11939 3.18031,3.27129 0.37454,0.0573 59.70493,0.0926 131.84529,0.0785 l 131.1643,-0.0256 z"
       id="path6048"
       inkscape:connector-curvature="0"
       inkscape:export-filename="/home/gaudi/Desktop/Cartridge/OpenCartridgeSilk.png"
       inkscape:export-xdpi="600"
       inkscape:export-ydpi="600"
       transform="scale(0.26458333)" />
    <flowRoot
       xml:space="preserve"
       id="flowRoot6050"
       style="font-style:normal;font-weight:normal;font-size:40px;line-height:1.25;font-family:sans-serif;letter-spacing:0px;word-spacing:0px;fill:#ffffff;fill-opacity:1;stroke:none;stroke-width:3.96695065"
       transform="matrix(0.06669691,0,0,0.06669691,80.188441,68.610566)"
       inkscape:export-filename="/home/gaudi/Desktop/Cartridge/OpenCartridgeSilk.png"
       inkscape:export-xdpi="600"
       inkscape:export-ydpi="600"><flowRegion
         id="flowRegion6052"
         style="fill:#ffffff;stroke-width:3.96695065"><rect
           id="rect6054"
           width="428.21475"
           height="141.13495"
           x="62.932503"
           y="59.031086"
           style="fill:#ffffff;stroke-width:3.96695065" /></flowRegion><flowPara
         id="flowPara6056"
         style="font-style:normal;font-variant:normal;font-weight:normal;font-stretch:normal;font-family:'DejaVu Sans';-inkscape-font-specification:'DejaVu Sans';fill:#ffffff;stroke-width:9.5430584">OPEN CARTRIDGE</flowPara></flowRoot>    <path
       inkscape:connector-curvature="0"
       d="m 65.070139,129.67484 h -1.200001 -1.200003 l -0.311391,-0.0629 -0.254286,-0.17145 -0.171447,-0.25429 -0.06287,-0.3114 v -3.86203 -2.225 -11.259 -2.225 -3.86061 -2.225 l 0.06287,-0.31139 0.171445,-0.25429 0.254286,-0.17145 0.311391,-0.0629 h 2.400005 l 61.064092,-0.006 h 1.20001 1.19999 l 0.3114,0.0629 0.25428,0.17145 0.17145,0.25429 0.0629,0.31139 v 3.82904 3.86211 2.225 9.03401 2.26221 2.22499 2.225 l -0.0629,0.3114 -0.17145,0.25429 -0.25428,0.17145 -0.3114,0.0629 h -1.19999 z"
       style="fill:none;stroke:#000000;stroke-width:0.05;stroke-linecap:round;stroke-miterlimit:4;stroke-dasharray:none;stroke-opacity:0.98578198"
       id="path10387-4-3-5-4-0-8-3-1"
       sodipodi:nodetypes="cccccccccccccccccccccccccccccccccccccc" />
    <path
       inkscape:connector-curvature="0"
       style="opacity:1;vector-effect:none;fill:none;fill-opacity:1;stroke:#000000;stroke-width:0.05;stroke-linecap:butt;stroke-linejoin:miter;stroke-miterlimit:4;stroke-dasharray:none;stroke-dashoffset:0;stroke-opacity:0.98578198"
       d="m 136.59726,136.10297 -0.0785,0.38872 -0.21408,0.31734 -0.31749,0.21391 -0.38882,0.0784 c -27.0819,0 -56.297084,0 -79.992269,-2e-5 h -1.66e-4 l -0.388797,-0.0784 -0.317514,-0.21391 -0.214084,-0.31734 -0.0785,-0.38871 4.95e-4,-0.38045 v -1.37667 -1.37665 -1.37667 l 0.774031,-0.15822 0.631718,-0.42752 0.425712,-0.63293 0.156009,-0.77449 -0.156159,-0.77431 -0.425745,-0.63277 -0.631661,-0.42739 -0.773905,-0.15817 V 96.067559 l 0.0785,-0.388713 0.214084,-0.317339 0.317514,-0.213911 0.388797,-0.07843 c 23.695183,-2.3e-5 52.91036,-2e-5 79.99226,-2e-5 l 0.38881,0.07843 0.3175,0.213911 0.21408,0.317339 0.0785,0.388713 -0.012,31.539671 -0.76981,0.16166 -0.62757,0.42807 -0.42267,0.63123 -0.15504,0.77118 0.15494,0.77092 0.4224,0.63112 0.62725,0.42814 0.76948,0.16195 -8e-4,1.37691 -7.9e-4,1.37692 -8e-4,1.37692 z"
       id="path10892-1-3-8-8-2-6-8-3-7"
       sodipodi:nodetypes="cccccccccccccccccccccccccccccccccccccccccccccc" />
    <path
       inkscape:connector-curvature="0"
       d="M 63.712481,131.17463 H 62.45912 61.205757 l -0.325238,-0.0698 -0.265593,-0.19032 -0.179069,-0.28227 -0.06567,-0.34566 v -4.28696 -2.46981 -12.49781 -2.46981 -4.28539 -2.46981 l 0.06567,-0.34566 0.179066,-0.28227 0.265594,-0.1903 0.325238,-0.0698 h 2.506726 l 63.779389,-0.006 h 1.25337 1.25335 l 0.32524,0.0698 0.26561,0.1903 0.17907,0.28227 0.0657,0.34566 v 4.25034 4.28705 2.46981 10.02801 2.51111 2.46981 2.46981 l -0.0657,0.34566 -0.17907,0.28227 -0.26561,0.19032 -0.32524,0.0698 h -1.25335 z"
       style="fill:none;stroke:#000000;stroke-width:0.05;stroke-linecap:round;stroke-miterlimit:4;stroke-dasharray:none;stroke-opacity:0.98578198"
       id="path10387-4-3-5-4-0-8-3-6-5"
       sodipodi:nodetypes="cccccccccccccccccccccccccccccccccccccc" />
    <flowRoot
       xml:space="preserve"
       id="flowRoot6050-4"
       style="font-style:normal;font-weight:normal;font-size:40px;line-height:1.25;font-family:sans-serif;letter-spacing:0px;word-spacing:0px;fill:#ffffff;fill-opacity:1;stroke:none;stroke-width:3.96695065"
       transform="matrix(0.06669691,0,0,0.06669691,79.573311,128.77871)"
       inkscape:export-filename="/home/gaudi/Desktop/Cartridge/OpenCartridgeSilk.png"
       inkscape:export-xdpi="600"
       inkscape:export-ydpi="600"><flowRegion
         id="flowRegion6052-2"
         style="fill:#ffffff;stroke-width:3.96695065"><rect
           id="rect6054-2"
           width="428.21475"
           height="141.13495"
           x="62.932503"
           y="59.031086"
           style="fill:#ffffff;stroke-width:3.96695065" /></flowRegion><flowPara
         id="flowPara6056-1"
         style="font-style:normal;font-variant:normal;font-weight:normal;font-stretch:normal;font-family:'DejaVu Sans';-inkscape-font-specification:'DejaVu Sans';fill:#ffffff;stroke-width:9.5430584">OPEN CARTRIDGE</flowPara></flowRoot>  </g>
</svg>
