999
"DXF R12 Output" (www.mydxf.blogspot.com)
 0 
SECTION
 2 
HEADER
 9 
$ACADVER
 1 
AC1009
 9 
$EXTMIN
 10 
 0 
 20 
 0 
 9 
$EXTMAX
 10 
 8.5 
 20 
 11 
 0 
ENDSEC
 0 
SECTION
 2 
ENTITIES
0
LINE
8
Layer 1
10
66.102300
20
108.101000
11
65.502300
21
108.101000
0
LINE
8
Layer 1
10
65.502300
20
108.101000
11
64.902300
21
108.101000
0
LINE
8
Layer 1
10
64.902300
20
108.101000
11
64.302295
21
108.101000
0
LINE
8
Layer 1
10
64.302295
20
108.101000
11
63.702290
21
108.101000
0
LINE
8
Layer 1
10
63.702290
20
108.101000
11
63.546595
21
108.069600
0
LINE
8
Layer 1
10
63.546595
20
108.069600
11
63.390900
21
108.038100
0
LINE
8
Layer 1
10
63.390900
20
108.038100
11
63.263760
21
107.952400
0
LINE
8
Layer 1
10
63.263760
20
107.952400
11
63.136620
21
107.866700
0
LINE
8
Layer 1
10
63.136620
20
107.866700
11
63.050890
21
107.739560
0
LINE
8
Layer 1
10
63.050890
20
107.739560
11
62.965170
21
107.612420
0
LINE
8
Layer 1
10
62.965170
20
107.612420
11
62.933720
21
107.456720
0
LINE
8
Layer 1
10
62.933720
20
107.456720
11
62.902270
21
107.301010
0
LINE
8
Layer 1
10
62.902270
20
107.301010
11
62.902270
21
105.370000
0
LINE
8
Layer 1
10
62.902270
20
105.370000
11
62.902270
21
103.438980
0
LINE
8
Layer 1
10
62.902270
20
103.438980
11
62.902270
21
102.326480
0
LINE
8
Layer 1
10
62.902270
20
102.326480
11
62.902270
21
101.213980
0
LINE
8
Layer 1
10
62.902270
20
101.213980
11
62.902270
21
95.584480
0
LINE
8
Layer 1
10
62.902270
20
95.584480
11
62.902270
21
89.954980
0
LINE
8
Layer 1
10
62.902270
20
89.954980
11
62.902270
21
88.842480
0
LINE
8
Layer 1
10
62.902270
20
88.842480
11
62.902270
21
87.729980
0
LINE
8
Layer 1
10
62.902270
20
87.729980
11
62.902270
21
85.799680
0
LINE
8
Layer 1
10
62.902270
20
85.799680
11
62.902270
21
83.869380
0
LINE
8
Layer 1
10
62.902270
20
83.869380
11
62.902270
21
82.756880
0
LINE
8
Layer 1
10
62.902270
20
82.756880
11
62.902270
21
81.644380
0
LINE
8
Layer 1
10
62.902270
20
81.644380
11
62.933720
21
81.488685
0
LINE
8
Layer 1
10
62.933720
20
81.488685
11
62.965170
21
81.332990
0
LINE
8
Layer 1
10
62.965170
20
81.332990
11
63.050890
21
81.205845
0
LINE
8
Layer 1
10
63.050890
20
81.205845
11
63.136610
21
81.078700
0
LINE
8
Layer 1
10
63.136610
20
81.078700
11
63.263755
21
80.992980
0
LINE
8
Layer 1
10
63.263755
20
80.992980
11
63.390900
21
80.907250
0
LINE
8
Layer 1
10
63.390900
20
80.907250
11
63.546595
21
80.875800
0
LINE
8
Layer 1
10
63.546595
20
80.875800
11
63.702290
21
80.844350
0
LINE
8
Layer 1
10
63.702290
20
80.844350
11
64.902290
21
80.844350
0
LINE
8
Layer 1
10
64.902290
20
80.844350
11
66.102290
21
80.844350
0
LINE
8
Layer 1
10
66.102290
20
80.844350
11
96.634290
21
80.841350
0
LINE
8
Layer 1
10
96.634290
20
80.841350
11
127.166290
21
80.838350
0
LINE
8
Layer 1
10
127.166290
20
80.838350
11
127.766300
21
80.838350
0
LINE
8
Layer 1
10
127.766300
20
80.838350
11
128.366300
21
80.838350
0
LINE
8
Layer 1
10
128.366300
20
80.838350
11
128.966290
21
80.838350
0
LINE
8
Layer 1
10
128.966290
20
80.838350
11
129.566290
21
80.838350
0
LINE
8
Layer 1
10
129.566290
20
80.838350
11
129.721990
21
80.869800
0
LINE
8
Layer 1
10
129.721990
20
80.869800
11
129.877690
21
80.901250
0
LINE
8
Layer 1
10
129.877690
20
80.901250
11
130.004830
21
80.986980
0
LINE
8
Layer 1
10
130.004830
20
80.986980
11
130.131970
21
81.072700
0
LINE
8
Layer 1
10
130.131970
20
81.072700
11
130.217670
21
81.199845
0
LINE
8
Layer 1
10
130.217670
20
81.199845
11
130.303370
21
81.326990
0
LINE
8
Layer 1
10
130.303370
20
81.326990
11
130.334870
21
81.482685
0
LINE
8
Layer 1
10
130.334870
20
81.482685
11
130.366270
21
81.638380
0
LINE
8
Layer 1
10
130.366270
20
81.638380
11
130.366270
21
83.552900
0
LINE
8
Layer 1
10
130.366270
20
83.552900
11
130.366270
21
85.467420
0
LINE
8
Layer 1
10
130.366270
20
85.467420
11
130.366270
21
87.398470
0
LINE
8
Layer 1
10
130.366270
20
87.398470
11
130.366270
21
89.329520
0
LINE
8
Layer 1
10
130.366270
20
89.329520
11
130.366270
21
90.442020
0
LINE
8
Layer 1
10
130.366270
20
90.442020
11
130.366270
21
91.554520
0
LINE
8
Layer 1
10
130.366270
20
91.554520
11
130.366270
21
96.071530
0
LINE
8
Layer 1
10
130.366270
20
96.071530
11
130.366270
21
100.588540
0
LINE
8
Layer 1
10
130.366270
20
100.588540
11
130.366270
21
101.719640
0
LINE
8
Layer 1
10
130.366270
20
101.719640
11
130.366270
21
102.850740
0
LINE
8
Layer 1
10
130.366270
20
102.850740
11
130.366270
21
103.963240
0
LINE
8
Layer 1
10
130.366270
20
103.963240
11
130.366270
21
105.075730
0
LINE
8
Layer 1
10
130.366270
20
105.075730
11
130.366270
21
106.188230
0
LINE
8
Layer 1
10
130.366270
20
106.188230
11
130.366270
21
107.300730
0
LINE
8
Layer 1
10
130.366270
20
107.300730
11
130.334870
21
107.456440
0
LINE
8
Layer 1
10
130.334870
20
107.456440
11
130.303370
21
107.612140
0
LINE
8
Layer 1
10
130.303370
20
107.612140
11
130.217670
21
107.739280
0
LINE
8
Layer 1
10
130.217670
20
107.739280
11
130.131970
21
107.866420
0
LINE
8
Layer 1
10
130.131970
20
107.866420
11
130.004830
21
107.952120
0
LINE
8
Layer 1
10
130.004830
20
107.952120
11
129.877690
21
108.037820
0
LINE
8
Layer 1
10
129.877690
20
108.037820
11
129.721990
21
108.069320
0
LINE
8
Layer 1
10
129.721990
20
108.069320
11
129.566290
21
108.100720
0
LINE
8
Layer 1
10
129.566290
20
108.100720
11
128.966290
21
108.100720
0
LINE
8
Layer 1
10
128.966290
20
108.100720
11
128.366300
21
108.100720
0
LINE
8
Layer 1
10
128.366300
20
108.100720
11
97.234200
21
108.100860
0
LINE
8
Layer 1
10
97.234200
20
108.100860
11
66.102300
21
108.101000
0
LINE
8
Layer 1
10
137.629000
20
114.529000
11
137.589700
21
114.723360
0
LINE
8
Layer 1
10
137.589700
20
114.723360
11
137.550500
21
114.917720
0
LINE
8
Layer 1
10
137.550500
20
114.917720
11
137.443460
21
115.076390
0
LINE
8
Layer 1
10
137.443460
20
115.076390
11
137.336420
21
115.235060
0
LINE
8
Layer 1
10
137.336420
20
115.235060
11
137.177670
21
115.342020
0
LINE
8
Layer 1
10
137.177670
20
115.342020
11
137.018930
21
115.448970
0
LINE
8
Layer 1
10
137.018930
20
115.448970
11
136.824520
21
115.488170
0
LINE
8
Layer 1
10
136.824520
20
115.488170
11
136.630110
21
115.527370
0
LINE
8
Layer 1
10
136.630110
20
115.527370
11
95.363910
21
115.527370
0
LINE
8
Layer 1
10
95.363910
20
115.527370
11
56.637810
21
115.527340
0
LINE
8
Layer 1
10
56.637810
20
115.527340
11
56.637727
21
115.527340
0
LINE
8
Layer 1
10
56.637727
20
115.527340
11
56.637644
21
115.527340
0
LINE
8
Layer 1
10
56.637644
20
115.527340
11
56.443246
21
115.488140
0
LINE
8
Layer 1
10
56.443246
20
115.488140
11
56.248847
21
115.448940
0
LINE
8
Layer 1
10
56.248847
20
115.448940
11
56.090090
21
115.341990
0
LINE
8
Layer 1
10
56.090090
20
115.341990
11
55.931333
21
115.235030
0
LINE
8
Layer 1
10
55.931333
20
115.235030
11
55.824291
21
115.076360
0
LINE
8
Layer 1
10
55.824291
20
115.076360
11
55.717249
21
114.917690
0
LINE
8
Layer 1
10
55.717249
20
114.917690
11
55.677999
21
114.723340
0
LINE
8
Layer 1
10
55.677999
20
114.723340
11
55.638749
21
114.528980
0
LINE
8
Layer 1
10
55.638749
20
114.528980
11
55.638996
21
114.338760
0
LINE
8
Layer 1
10
55.638996
20
114.338760
11
55.639244
21
114.148530
0
LINE
8
Layer 1
10
55.639244
20
114.148530
11
55.639244
21
113.460200
0
LINE
8
Layer 1
10
55.639244
20
113.460200
11
55.639244
21
112.771860
0
LINE
8
Layer 1
10
55.639244
20
112.771860
11
55.639244
21
112.083540
0
LINE
8
Layer 1
10
55.639244
20
112.083540
11
55.639244
21
111.395210
0
LINE
8
Layer 1
10
55.639244
20
111.395210
11
55.639244
21
110.706870
0
LINE
8
Layer 1
10
55.639244
20
110.706870
11
55.639244
21
110.018540
0
LINE
8
Layer 1
10
55.639244
20
110.018540
11
56.026260
21
109.939440
0
LINE
8
Layer 1
10
56.026260
20
109.939440
11
56.413276
21
109.860340
0
LINE
8
Layer 1
10
56.413276
20
109.860340
11
56.729135
21
109.646580
0
LINE
8
Layer 1
10
56.729135
20
109.646580
11
57.044994
21
109.432820
0
LINE
8
Layer 1
10
57.044994
20
109.432820
11
57.257850
21
109.116360
0
LINE
8
Layer 1
10
57.257850
20
109.116360
11
57.470706
21
108.799890
0
LINE
8
Layer 1
10
57.470706
20
108.799890
11
57.548706
21
108.412650
0
LINE
8
Layer 1
10
57.548706
20
108.412650
11
57.626706
21
108.025400
0
LINE
8
Layer 1
10
57.626706
20
108.025400
11
57.548626
21
107.638240
0
LINE
8
Layer 1
10
57.548626
20
107.638240
11
57.470546
21
107.251090
0
LINE
8
Layer 1
10
57.470546
20
107.251090
11
57.257674
21
106.934710
0
LINE
8
Layer 1
10
57.257674
20
106.934710
11
57.044801
21
106.618320
0
LINE
8
Layer 1
10
57.044801
20
106.618320
11
56.728971
21
106.404630
0
LINE
8
Layer 1
10
56.728971
20
106.404630
11
56.413140
21
106.190930
0
LINE
8
Layer 1
10
56.413140
20
106.190930
11
56.026188
21
106.111830
0
LINE
8
Layer 1
10
56.026188
20
106.111830
11
55.639235
21
106.032730
0
LINE
8
Layer 1
10
55.639235
20
106.032730
11
55.639235
21
90.263100
0
LINE
8
Layer 1
10
55.639235
20
90.263100
11
55.639235
21
74.493500
0
LINE
8
Layer 1
10
55.639235
20
74.493500
11
55.678485
21
74.299145
0
LINE
8
Layer 1
10
55.678485
20
74.299145
11
55.717735
21
74.104790
0
LINE
8
Layer 1
10
55.717735
20
74.104790
11
55.824777
21
73.946120
0
LINE
8
Layer 1
10
55.824777
20
73.946120
11
55.931819
21
73.787450
0
LINE
8
Layer 1
10
55.931819
20
73.787450
11
56.090576
21
73.680495
0
LINE
8
Layer 1
10
56.090576
20
73.680495
11
56.249333
21
73.573540
0
LINE
8
Layer 1
10
56.249333
20
73.573540
11
56.443732
21
73.534340
0
LINE
8
Layer 1
10
56.443732
20
73.534340
11
56.638130
21
73.495140
0
LINE
8
Layer 1
10
56.638130
20
73.495140
11
95.364230
21
73.495123
0
LINE
8
Layer 1
10
95.364230
20
73.495123
11
136.630430
21
73.495120
0
LINE
8
Layer 1
10
136.630430
20
73.495120
11
136.824840
21
73.534320
0
LINE
8
Layer 1
10
136.824840
20
73.534320
11
137.019240
21
73.573520
0
LINE
8
Layer 1
10
137.019240
20
73.573520
11
137.177990
21
73.680475
0
LINE
8
Layer 1
10
137.177990
20
73.680475
11
137.336740
21
73.787430
0
LINE
8
Layer 1
10
137.336740
20
73.787430
11
137.443780
21
73.946100
0
LINE
8
Layer 1
10
137.443780
20
73.946100
11
137.550820
21
74.104770
0
LINE
8
Layer 1
10
137.550820
20
74.104770
11
137.590120
21
74.299125
0
LINE
8
Layer 1
10
137.590120
20
74.299125
11
137.629420
21
74.493480
0
LINE
8
Layer 1
10
137.629420
20
74.493480
11
137.623420
21
90.263280
0
LINE
8
Layer 1
10
137.623420
20
90.263280
11
137.617420
21
106.033080
0
LINE
8
Layer 1
10
137.617420
20
106.033080
11
137.232510
21
106.113880
0
LINE
8
Layer 1
10
137.232510
20
106.113880
11
136.847610
21
106.194680
0
LINE
8
Layer 1
10
136.847610
20
106.194680
11
136.533820
21
106.408720
0
LINE
8
Layer 1
10
136.533820
20
106.408720
11
136.220040
21
106.622750
0
LINE
8
Layer 1
10
136.220040
20
106.622750
11
136.008700
21
106.938370
0
LINE
8
Layer 1
10
136.008700
20
106.938370
11
135.797370
21
107.253980
0
LINE
8
Layer 1
10
135.797370
20
107.253980
11
135.719870
21
107.639570
0
LINE
8
Layer 1
10
135.719870
20
107.639570
11
135.642370
21
108.025160
0
LINE
8
Layer 1
10
135.642370
20
108.025160
11
135.719870
21
108.410620
0
LINE
8
Layer 1
10
135.719870
20
108.410620
11
135.797370
21
108.796080
0
LINE
8
Layer 1
10
135.797370
20
108.796080
11
136.008570
21
109.111640
0
LINE
8
Layer 1
10
136.008570
20
109.111640
11
136.219770
21
109.427200
0
LINE
8
Layer 1
10
136.219770
20
109.427200
11
136.533390
21
109.641270
0
LINE
8
Layer 1
10
136.533390
20
109.641270
11
136.847020
21
109.855340
0
LINE
8
Layer 1
10
136.847020
20
109.855340
11
137.231760
21
109.936340
0
LINE
8
Layer 1
10
137.231760
20
109.936340
11
137.616500
21
110.017340
0
LINE
8
Layer 1
10
137.616500
20
110.017340
11
137.616100
21
110.705800
0
LINE
8
Layer 1
10
137.616100
20
110.705800
11
137.615710
21
111.394250
0
LINE
8
Layer 1
10
137.615710
20
111.394250
11
137.615310
21
112.082710
0
LINE
8
Layer 1
10
137.615310
20
112.082710
11
137.614910
21
112.771160
0
LINE
8
Layer 1
10
137.614910
20
112.771160
11
137.614510
21
113.459630
0
LINE
8
Layer 1
10
137.614510
20
113.459630
11
137.614120
21
114.148090
0
LINE
8
Layer 1
10
137.614120
20
114.148090
11
137.622120
21
114.338460
0
LINE
8
Layer 1
10
137.622120
20
114.338460
11
137.629000
21
114.529000
 0 
ENDSEC
 0 
EOF