M48
;DRILL file {KiCad no-vcs-found-9b4eddb~60~ubuntu16.04.1} date Fri Nov 10 14:06:12 2017
;FORMAT={-:-/ absolute / inch / decimal}
FMAT,2
INCH,TZ
T1C0.012
T2C0.014
T3C0.016
T4C0.024
T5C0.032
T6C0.039
%
G90
G05
M72
T1
X4.3159Y-4.188
X3.3415Y-3.7549
X4.3159Y-3.7549
X4.0994Y-4.188
X4.6407Y-4.2963
X3.7746Y-3.7549
X3.3415Y-4.2963
X4.5325Y-3.6467
X4.8031Y-4.2963
X3.5581Y-3.8632
X3.3415Y-3.6467
X4.5325Y-4.188
X3.4498Y-4.0797
X4.6407Y-4.188
X4.4242Y-4.188
X4.8573Y-3.6467
X4.4242Y-3.6467
X4.4242Y-4.0797
X3.8829Y-3.9715
X3.7746Y-4.188
X3.6663Y-3.8632
X3.4498Y-3.5384
X3.4498Y-3.7549
X3.5581Y-4.188
X4.2077Y-4.188
X4.0994Y-3.8632
X3.9911Y-3.8632
X4.8573Y-4.188
X4.0994Y-3.9715
X4.2077Y-3.7549
X3.125Y-4.188
X3.9911Y-3.5384
X3.9911Y-4.2963
X4.0994Y-3.5384
X4.4242Y-3.5384
X3.9911Y-4.0797
X3.3415Y-3.5384
X4.0994Y-4.2963
X4.3159Y-4.2963
X5.0197Y-3.6467
X4.4242Y-4.2963
X3.5581Y-3.6467
X3.8829Y-3.8632
X3.4498Y-3.6467
X4.3159Y-3.5384
X4.2077Y-4.0797
X4.0994Y-3.7549
X3.3415Y-4.188
X3.2333Y-3.9715
X3.0709Y-4.2963
X4.3159Y-3.8632
X4.2077Y-3.6467
X2.8543Y-4.188
X3.2333Y-3.8632
X3.2333Y-3.7549
X3.5581Y-3.9715
X4.749Y-4.188
X3.5581Y-4.2963
X3.6663Y-3.5384
X3.7746Y-4.2963
X3.2333Y-3.5384
X3.0709Y-3.5384
X3.7746Y-3.9715
X3.125Y-3.6467
X5.0197Y-4.188
X3.6663Y-3.9715
X3.9911Y-3.6467
X3.8829Y-4.0797
X4.8031Y-3.5384
X3.8829Y-3.6467
X4.4242Y-3.7549
X3.4498Y-3.8632
X4.6407Y-4.0797
X4.3159Y-3.6467
X3.7746Y-3.8632
X3.3415Y-3.9715
X4.2077Y-3.8632
X3.9911Y-3.9715
X4.5325Y-3.9715
X4.3159Y-4.0797
X4.0994Y-4.0797
X3.0709Y-3.7549
X3.8829Y-4.188
X3.9911Y-4.188
X3.3415Y-3.8632
X3.8829Y-3.5384
X4.749Y-3.6467
X3.7746Y-3.6467
X4.8031Y-3.7549
X3.5581Y-3.7549
X4.8031Y-4.0797
X4.5325Y-4.0797
X2.8543Y-3.6467
X4.6407Y-3.5384
X4.5325Y-3.8632
X4.3159Y-3.9715
X4.4242Y-3.9715
X3.4498Y-4.2963
X4.5325Y-4.2963
X3.7746Y-4.0797
X3.0167Y-3.6467
X4.5325Y-3.5384
X3.2333Y-4.0797
X3.5581Y-4.0797
X4.6407Y-3.6467
X4.6407Y-3.8632
X4.6407Y-3.9715
X3.6663Y-4.188
X3.0709Y-4.0797
X3.8829Y-4.2963
X4.2077Y-4.2963
X3.6663Y-3.7549
X3.9911Y-3.7549
X4.6407Y-3.7549
X4.2077Y-3.5384
X3.7746Y-3.5384
X3.0167Y-4.188
X4.5325Y-3.7549
X3.5581Y-3.5384
X4.4242Y-3.8632
X3.2333Y-4.2963
X3.6663Y-4.0797
X3.8829Y-3.7549
X3.4498Y-4.188
X3.6663Y-4.2963
X3.2333Y-4.188
X3.4498Y-3.9715
X3.3415Y-4.0797
X3.6663Y-3.6467
X4.0994Y-3.6467
X3.2333Y-3.6467
X4.2077Y-3.9715
T2
X3.3963Y-5.2574
X3.3963Y-5.2968
X3.3963Y-5.3362
X3.4159Y-5.2771
X3.4159Y-5.3165
X3.4356Y-5.2574
X3.4356Y-5.2968
X3.4356Y-5.3362
X3.4553Y-5.2771
X3.4553Y-5.3165
X3.475Y-5.2574
X3.475Y-5.2968
X3.475Y-5.3362
X3.4947Y-5.2771
X3.4947Y-5.3165
X3.5144Y-5.2574
X3.5144Y-5.2968
X3.5144Y-5.3362
X3.5341Y-5.2771
X3.5341Y-5.3165
X3.5537Y-5.2574
X3.5537Y-5.2968
X3.5537Y-5.3362
T3
X2.185Y-1.4284
X2.185Y-1.6384
X2.235Y-1.4284
X2.235Y-1.6384
X2.25Y-1.5234
X2.25Y-1.5534
X2.445Y-2.5684
X2.555Y-2.1584
X2.585Y-1.6884
X2.585Y-1.7584
X2.585Y-2.5684
X2.635Y-2.6284
X2.675Y-2.0484
X2.755Y-2.3384
X2.925Y-2.4884
X3.025Y-2.3584
X3.045Y-2.2584
X3.0469Y-5.4407
X3.155Y-2.2984
X3.345Y-2.3584
X3.375Y-2.3584
X3.5699Y-2.1329
X3.585Y-1.7284
X3.585Y-1.7684
X3.585Y-1.8084
X3.595Y-2.4284
X3.675Y-2.1884
X3.695Y-2.6584
X3.705Y-1.6484
X3.7231Y-2.5618
X3.725Y-2.6784
X3.755Y-2.1884
X3.7564Y-2.5582
X3.7819Y-5.4107
X3.7819Y-5.5207
X3.7869Y-5.2607
X3.805Y-1.6484
X3.835Y-2.0484
X3.855Y-1.4084
X3.865Y-2.6684
X3.873Y-2.3061
X3.885Y-2.1184
X3.9006Y-2.499
X3.985Y-5.2784
X3.995Y-1.6038
X3.995Y-2.0284
X4.025Y-5.5684
X4.045Y-1.6038
X4.045Y-1.7584
X4.055Y-2.6184
X4.0669Y-5.4607
X4.085Y-2.4659
X4.0869Y-5.4057
X4.105Y-2.1784
X4.105Y-2.5875
X4.1327Y-2.2329
X4.145Y-1.9584
X4.16Y-1.7934
X4.165Y-1.9184
X4.165Y-2.6584
X4.185Y-1.7684
X4.195Y-1.8084
X4.195Y-2.0784
X4.205Y-1.9284
X4.205Y-2.1484
X4.215Y-2.1084
X4.235Y-1.8184
X4.255Y-1.3884
X4.255Y-1.4484
X4.265Y-1.7234
X4.265Y-1.8384
X4.2704Y-2.2549
X4.2898Y-2.1284
X4.295Y-1.8684
X4.295Y-2.1684
X4.305Y-2.6284
X4.315Y-2.0684
X4.335Y-1.613
X4.335Y-2.1484
X4.335Y-2.2795
X4.335Y-2.4659
X4.345Y-2.0984
X4.355Y-2.6084
X4.365Y-1.973
X4.375Y-1.6184
X4.3809Y-2.2274
X4.405Y-2.6584
X4.415Y-1.6684
X4.425Y-1.6184
X4.4833Y-2.2589
X4.495Y-1.9784
X4.5148Y-2.1447
X4.515Y-2.0584
X4.515Y-2.662
X4.555Y-2.6066
X4.565Y-2.2984
X4.585Y-2.4659
X4.605Y-2.2984
X4.665Y-1.8684
X4.675Y-2.2984
X4.695Y-1.9784
X4.705Y-1.8584
X4.705Y-2.5584
X4.735Y-1.9784
X4.74Y-1.5934
X4.7417Y-2.583
X4.765Y-2.6066
X4.785Y-2.3684
X4.7864Y-2.5423
X4.7909Y-2.6302
X4.795Y-1.6684
X4.805Y-2.6584
X4.915Y-2.3784
X4.935Y-1.4884
X4.935Y-1.6184
X4.965Y-1.4184
X5.045Y-2.4284
X5.0819Y-5.3207
X5.085Y-2.3684
X5.095Y-2.4984
X5.105Y-2.5484
X5.1099Y-2.3452
X5.132Y-1.8984
X5.14Y-1.9384
X5.155Y-2.3284
X5.165Y-1.7284
X5.175Y-1.9234
X5.215Y-1.7584
X5.245Y-1.7734
X5.245Y-2.4284
X5.245Y-2.5384
X5.275Y-1.7984
X5.295Y-2.3884
X5.335Y-2.6084
X5.365Y-1.5484
X5.365Y-2.5584
X5.3652Y-1.5148
X5.3652Y-1.5896
X5.385Y-1.7984
X5.385Y-5.1884
X5.3896Y-2.633
X5.42Y-1.7534
X5.425Y-2.5884
X5.455Y-2.5284
X5.475Y-2.3784
X5.485Y-1.5084
X5.515Y-2.2084
X5.515Y-2.6584
X5.585Y-1.6984
X5.585Y-2.5284
T4
X2.315Y-2.3984
X2.495Y-2.6284
X2.725Y-1.9984
X3.235Y-2.4607
X3.295Y-1.8384
X3.503Y-2.3337
X3.515Y-2.6584
X3.805Y-2.4284
X3.8691Y-2.3533
X3.9518Y-2.6368
X4.695Y-2.4484
X5.08Y-1.4584
X5.3Y-1.4584
T5
X2.3319Y-1.8711
X2.3319Y-1.9711
X2.3319Y-2.0711
T6
X5.7859Y-2.4803
T0
M30
