%TF.GenerationSoftware,KiCad,Pcbnew,no-vcs-found-9b4eddb~60~ubuntu16.04.1*%
%TF.CreationDate,2017-11-10T14:06:11+01:00*%
%TF.ProjectId,OpenDropV3,4F70656E44726F7056332E6B69636164,rev?*%
%TF.SameCoordinates,Original*%
%TF.FileFunction,Soldermask,Top*%
%TF.FilePolarity,Negative*%
%FSLAX46Y46*%
G04 Gerber Fmt 4.6, Leading zero omitted, Abs format (unit mm)*
G04 Created by KiCad (PCBNEW no-vcs-found-9b4eddb~60~ubuntu16.04.1) date Fri Nov 10 14:06:11 2017*
%MOMM*%
%LPD*%
G01*
G04 APERTURE LIST*
%ADD10R,3.000000X3.200000*%
%ADD11C,3.200000*%
%ADD12R,1.500000X2.250000*%
%ADD13C,0.604800*%
%ADD14R,2.250000X2.250000*%
%ADD15R,3.300000X8.000000*%
%ADD16R,3.300000X2.250000*%
%ADD17C,0.600000*%
%ADD18R,5.200000X3.000000*%
%ADD19R,1.198880X1.198880*%
%ADD20R,1.397000X1.397000*%
%ADD21C,1.397000*%
%ADD22R,1.400000X1.500000*%
%ADD23R,1.400000X1.300000*%
%ADD24C,2.540000*%
%ADD25R,2.100000X1.400000*%
%ADD26R,1.501140X1.501140*%
%ADD27C,0.254000*%
G04 APERTURE END LIST*
D10*
%TO.C,P2*%
X148463000Y-63000000D03*
D11*
X146963000Y-63000000D03*
%TD*%
D12*
%TO.C,FLUXL_1_3*%
X74875000Y-92625000D03*
D13*
X76625000Y-92625000D03*
D14*
X76625000Y-92625000D03*
%TD*%
D12*
%TO.C,FLUXL_1_6*%
X74875000Y-106375000D03*
D13*
X76625000Y-106375000D03*
D14*
X76625000Y-106375000D03*
%TD*%
D12*
%TO.C,FLUXL_16_3*%
X125125000Y-92625000D03*
D13*
X123375000Y-92625000D03*
D14*
X123375000Y-92625000D03*
%TD*%
D12*
%TO.C,FLUXL_16_6*%
X125125000Y-106375000D03*
D13*
X123375000Y-106375000D03*
D14*
X123375000Y-106375000D03*
%TD*%
D15*
%TO.C,FLUXL_16_1*%
X129900000Y-92625000D03*
D16*
X127500000Y-89875000D03*
X127500000Y-95375000D03*
D14*
X127500000Y-92625000D03*
D13*
X127500000Y-92625000D03*
D14*
X124750000Y-95375000D03*
X124750000Y-89875000D03*
%TD*%
D15*
%TO.C,FLUXL_1_8*%
X70100000Y-106375000D03*
D16*
X72500000Y-109125000D03*
X72500000Y-103625000D03*
D14*
X72500000Y-106375000D03*
D13*
X72500000Y-106375000D03*
D14*
X75250000Y-103625000D03*
X75250000Y-109125000D03*
%TD*%
D15*
%TO.C,FLUXL_16_8*%
X129900000Y-106375000D03*
D16*
X127500000Y-103625000D03*
X127500000Y-109125000D03*
D14*
X127500000Y-106375000D03*
D13*
X127500000Y-106375000D03*
D14*
X124750000Y-109125000D03*
X124750000Y-103625000D03*
%TD*%
D15*
%TO.C,FLUXL_1_1*%
X70100000Y-92625000D03*
D16*
X72500000Y-95375000D03*
X72500000Y-89875000D03*
D14*
X72500000Y-92625000D03*
D13*
X72500000Y-92625000D03*
D14*
X75250000Y-89875000D03*
X75250000Y-95375000D03*
%TD*%
D17*
%TO.C,SP1*%
X90265000Y-135539000D03*
X89265000Y-135539000D03*
X88265000Y-135539000D03*
X87265000Y-135539000D03*
X86265000Y-135539000D03*
X90265000Y-134539000D03*
X89765000Y-135039000D03*
X89265000Y-134539000D03*
X88765000Y-135039000D03*
X88265000Y-134539000D03*
X87765000Y-135039000D03*
X87265000Y-134539000D03*
X86765000Y-135039000D03*
X86265000Y-134539000D03*
X90265000Y-133539000D03*
X89765000Y-134039000D03*
X89265000Y-133539000D03*
X88765000Y-134039000D03*
X88265000Y-133539000D03*
X87765000Y-134039000D03*
X87265000Y-133539000D03*
X86765000Y-134039000D03*
X86265000Y-133539000D03*
D18*
X88265000Y-134539000D03*
%TD*%
D19*
%TO.C,LED1*%
X128049020Y-60411000D03*
X125950980Y-60411000D03*
%TD*%
D11*
%TO.C,P14*%
X144000000Y-74000000D03*
%TD*%
D13*
%TO.C,FLUXL_1_5b1*%
X78000000Y-109125000D03*
D14*
X78000000Y-109125000D03*
%TD*%
D20*
%TO.C,SW5*%
X59230000Y-52605000D03*
D21*
X59230000Y-50065000D03*
X59230000Y-47525000D03*
%TD*%
D22*
%TO.C,JS1*%
X94900000Y-133675000D03*
X105100000Y-133675000D03*
X94900000Y-140175000D03*
X105100000Y-140175000D03*
D23*
X94900000Y-137375000D03*
X105100000Y-137375000D03*
%TD*%
D24*
%TO.C,REF\002A\002A*%
X147000000Y-134000000D03*
%TD*%
%TO.C,REF\002A\002A*%
X147000000Y-34000000D03*
%TD*%
%TO.C,REF\002A\002A*%
X53000000Y-134000000D03*
%TD*%
D25*
%TO.C,SW1*%
X71000000Y-138250000D03*
X71000000Y-133750000D03*
X81000000Y-138250000D03*
X81000000Y-133750000D03*
%TD*%
%TO.C,SW2*%
X119000000Y-138250000D03*
X119000000Y-133750000D03*
X129000000Y-138250000D03*
X129000000Y-133750000D03*
%TD*%
D11*
%TO.C,P13*%
X56000000Y-74000000D03*
%TD*%
D26*
%TO.C,P1*%
X142000000Y-63000000D03*
%TD*%
D19*
%TO.C,LED2*%
X133049020Y-60411000D03*
X130950980Y-60411000D03*
%TD*%
D11*
%TO.C,P15*%
X56000000Y-125000000D03*
%TD*%
%TO.C,P16*%
X144000000Y-125000000D03*
%TD*%
D19*
%TO.C,LED3*%
X138049020Y-60411000D03*
X135950980Y-60411000D03*
%TD*%
D14*
%TO.C,FLUXL_3_2*%
X84875000Y-92625000D03*
D13*
X84875000Y-92625000D03*
%TD*%
D14*
%TO.C,FLUXL_3_3*%
X84875000Y-95375000D03*
D13*
X84875000Y-95375000D03*
%TD*%
D14*
%TO.C,FLUXL_3_4*%
X84875000Y-98125000D03*
D13*
X84875000Y-98125000D03*
%TD*%
D14*
%TO.C,FLUXL_3_5*%
X84875000Y-100875000D03*
D13*
X84875000Y-100875000D03*
%TD*%
D14*
%TO.C,FLUXL_3_6*%
X84875000Y-103625000D03*
D13*
X84875000Y-103625000D03*
%TD*%
%TO.C,FLUXL_3_7*%
X84875000Y-106375000D03*
D14*
X84875000Y-106375000D03*
%TD*%
D13*
%TO.C,FLUXL_4_2*%
X87625000Y-92625000D03*
D14*
X87625000Y-92625000D03*
%TD*%
%TO.C,FLUXL_4_3*%
X87625000Y-95375000D03*
D13*
X87625000Y-95375000D03*
%TD*%
%TO.C,FLUXL_4_4*%
X87625000Y-98125000D03*
D14*
X87625000Y-98125000D03*
%TD*%
D13*
%TO.C,FLUXL_4_5*%
X87625000Y-100875000D03*
D14*
X87625000Y-100875000D03*
%TD*%
%TO.C,FLUXL_4_6*%
X87625000Y-103625000D03*
D13*
X87625000Y-103625000D03*
%TD*%
%TO.C,FLUXL_4_7*%
X87625000Y-106375000D03*
D14*
X87625000Y-106375000D03*
%TD*%
%TO.C,FLUXL_5_2*%
X90375000Y-92625000D03*
D13*
X90375000Y-92625000D03*
%TD*%
D14*
%TO.C,FLUXL_5_3*%
X90375000Y-95375000D03*
D13*
X90375000Y-95375000D03*
%TD*%
D14*
%TO.C,FLUXL_5_4*%
X90375000Y-98125000D03*
D13*
X90375000Y-98125000D03*
%TD*%
D14*
%TO.C,FLUXL_5_5*%
X90375000Y-100875000D03*
D13*
X90375000Y-100875000D03*
%TD*%
D14*
%TO.C,FLUXL_5_6*%
X90375000Y-103625000D03*
D13*
X90375000Y-103625000D03*
%TD*%
%TO.C,FLUXL_5_7*%
X90375000Y-106375000D03*
D14*
X90375000Y-106375000D03*
%TD*%
D13*
%TO.C,FLUXL_6_2*%
X93125000Y-92625000D03*
D14*
X93125000Y-92625000D03*
%TD*%
D13*
%TO.C,FLUXL_6_3*%
X93125000Y-95375000D03*
D14*
X93125000Y-95375000D03*
%TD*%
D13*
%TO.C,FLUXL_6_4*%
X93125000Y-98125000D03*
D14*
X93125000Y-98125000D03*
%TD*%
D13*
%TO.C,FLUXL_6_5*%
X93125000Y-100875000D03*
D14*
X93125000Y-100875000D03*
%TD*%
%TO.C,FLUXL_6_6*%
X93125000Y-103625000D03*
D13*
X93125000Y-103625000D03*
%TD*%
D14*
%TO.C,FLUXL_6_7*%
X93125000Y-106375000D03*
D13*
X93125000Y-106375000D03*
%TD*%
D14*
%TO.C,FLUXL_7_2*%
X95875000Y-92625000D03*
D13*
X95875000Y-92625000D03*
%TD*%
D14*
%TO.C,FLUXL_7_3*%
X95875000Y-95375000D03*
D13*
X95875000Y-95375000D03*
%TD*%
D14*
%TO.C,FLUXL_7_4*%
X95875000Y-98125000D03*
D13*
X95875000Y-98125000D03*
%TD*%
D14*
%TO.C,FLUXL_7_5*%
X95875000Y-100875000D03*
D13*
X95875000Y-100875000D03*
%TD*%
%TO.C,FLUXL_7_6*%
X95875000Y-103625000D03*
D14*
X95875000Y-103625000D03*
%TD*%
D13*
%TO.C,FLUXL_7_7*%
X95875000Y-106375000D03*
D14*
X95875000Y-106375000D03*
%TD*%
D13*
%TO.C,FLUXL_8_2*%
X98625000Y-92625000D03*
D14*
X98625000Y-92625000D03*
%TD*%
D13*
%TO.C,FLUXL_8_3*%
X98625000Y-95375000D03*
D14*
X98625000Y-95375000D03*
%TD*%
D13*
%TO.C,FLUXL_8_4*%
X98625000Y-98125000D03*
D14*
X98625000Y-98125000D03*
%TD*%
D13*
%TO.C,FLUXL_8_5*%
X98625000Y-100875000D03*
D14*
X98625000Y-100875000D03*
%TD*%
%TO.C,FLUXL_8_6*%
X98625000Y-103625000D03*
D13*
X98625000Y-103625000D03*
%TD*%
D14*
%TO.C,FLUXL_8_7*%
X98625000Y-106375000D03*
D13*
X98625000Y-106375000D03*
%TD*%
%TO.C,FLUXL_9_2*%
X101375000Y-92625000D03*
D14*
X101375000Y-92625000D03*
%TD*%
%TO.C,FLUXL_9_3*%
X101375000Y-95375000D03*
D13*
X101375000Y-95375000D03*
%TD*%
D14*
%TO.C,FLUXL_9_4*%
X101375000Y-98125000D03*
D13*
X101375000Y-98125000D03*
%TD*%
%TO.C,FLUXL_9_5*%
X101375000Y-100875000D03*
D14*
X101375000Y-100875000D03*
%TD*%
%TO.C,FLUXL_9_6*%
X101375000Y-103625000D03*
D13*
X101375000Y-103625000D03*
%TD*%
D14*
%TO.C,FLUXL_9_7*%
X101375000Y-106375000D03*
D13*
X101375000Y-106375000D03*
%TD*%
%TO.C,FLUXL_10_2*%
X104125000Y-92625000D03*
D14*
X104125000Y-92625000D03*
%TD*%
D13*
%TO.C,FLUXL_10_3*%
X104125000Y-95375000D03*
D14*
X104125000Y-95375000D03*
%TD*%
D13*
%TO.C,FLUXL_10_4*%
X104125000Y-98125000D03*
D14*
X104125000Y-98125000D03*
%TD*%
%TO.C,FLUXL_10_5*%
X104125000Y-100875000D03*
D13*
X104125000Y-100875000D03*
%TD*%
%TO.C,FLUXL_10_6*%
X104125000Y-103625000D03*
D14*
X104125000Y-103625000D03*
%TD*%
D13*
%TO.C,FLUXL_10_7*%
X104125000Y-106375000D03*
D14*
X104125000Y-106375000D03*
%TD*%
%TO.C,FLUXL_11_2*%
X106875000Y-92625000D03*
D13*
X106875000Y-92625000D03*
%TD*%
D14*
%TO.C,FLUXL_11_3*%
X106875000Y-95375000D03*
D13*
X106875000Y-95375000D03*
%TD*%
D14*
%TO.C,FLUXL_11_4*%
X106875000Y-98125000D03*
D13*
X106875000Y-98125000D03*
%TD*%
D14*
%TO.C,FLUXL_11_5*%
X106875000Y-100875000D03*
D13*
X106875000Y-100875000D03*
%TD*%
D14*
%TO.C,FLUXL_11_6*%
X106875000Y-103625000D03*
D13*
X106875000Y-103625000D03*
%TD*%
D14*
%TO.C,FLUXL_11_7*%
X106875000Y-106375000D03*
D13*
X106875000Y-106375000D03*
%TD*%
%TO.C,FLUXL_12_2*%
X109625000Y-92625000D03*
D14*
X109625000Y-92625000D03*
%TD*%
D13*
%TO.C,FLUXL_12_3*%
X109625000Y-95375000D03*
D14*
X109625000Y-95375000D03*
%TD*%
%TO.C,FLUXL_12_4*%
X109625000Y-98125000D03*
D13*
X109625000Y-98125000D03*
%TD*%
%TO.C,FLUXL_12_5*%
X109625000Y-100875000D03*
D14*
X109625000Y-100875000D03*
%TD*%
D13*
%TO.C,FLUXL_12_6*%
X109625000Y-103625000D03*
D14*
X109625000Y-103625000D03*
%TD*%
D13*
%TO.C,FLUXL_12_7*%
X109625000Y-106375000D03*
D14*
X109625000Y-106375000D03*
%TD*%
%TO.C,FLUXL_13_2*%
X112375000Y-92625000D03*
D13*
X112375000Y-92625000D03*
%TD*%
D14*
%TO.C,FLUXL_13_3*%
X112375000Y-95375000D03*
D13*
X112375000Y-95375000D03*
%TD*%
%TO.C,FLUXL_13_4*%
X112375000Y-98125000D03*
D14*
X112375000Y-98125000D03*
%TD*%
%TO.C,FLUXL_13_5*%
X112375000Y-100875000D03*
D13*
X112375000Y-100875000D03*
%TD*%
D14*
%TO.C,FLUXL_13_6*%
X112375000Y-103625000D03*
D13*
X112375000Y-103625000D03*
%TD*%
D14*
%TO.C,FLUXL_13_7*%
X112375000Y-106375000D03*
D13*
X112375000Y-106375000D03*
%TD*%
%TO.C,FLUXL_14_2*%
X115125000Y-92625000D03*
D14*
X115125000Y-92625000D03*
%TD*%
D13*
%TO.C,FLUXL_14_3*%
X115125000Y-95375000D03*
D14*
X115125000Y-95375000D03*
%TD*%
%TO.C,FLUXL_14_4*%
X115125000Y-98125000D03*
D13*
X115125000Y-98125000D03*
%TD*%
%TO.C,FLUXL_14_5*%
X115125000Y-100875000D03*
D14*
X115125000Y-100875000D03*
%TD*%
D13*
%TO.C,FLUXL_14_6*%
X115125000Y-103625000D03*
D14*
X115125000Y-103625000D03*
%TD*%
D13*
%TO.C,FLUXL_14_7*%
X115125000Y-106375000D03*
D14*
X115125000Y-106375000D03*
%TD*%
%TO.C,FLUXL_1_2*%
X79375000Y-92625000D03*
D13*
X79375000Y-92625000D03*
%TD*%
%TO.C,FLUXL_1_4*%
X78000000Y-89875000D03*
D14*
X78000000Y-89875000D03*
%TD*%
%TO.C,FLUXL_1_5*%
X78000000Y-103625000D03*
D13*
X78000000Y-103625000D03*
%TD*%
%TO.C,FLUXL_1_7*%
X79375000Y-106375000D03*
D14*
X79375000Y-106375000D03*
%TD*%
%TO.C,FLUXL_2_1*%
X82125000Y-89875000D03*
D13*
X82125000Y-89875000D03*
%TD*%
D14*
%TO.C,FLUXL_2_3*%
X82125000Y-95375000D03*
D13*
X82125000Y-95375000D03*
%TD*%
D14*
%TO.C,FLUXL_2_4*%
X82125000Y-98125000D03*
D13*
X82125000Y-98125000D03*
%TD*%
%TO.C,FLUXL_2_5*%
X82125000Y-100875000D03*
D14*
X82125000Y-100875000D03*
%TD*%
D13*
%TO.C,FLUXL_2_6*%
X82125000Y-103625000D03*
D14*
X82125000Y-103625000D03*
%TD*%
D13*
%TO.C,FLUXL_3_1*%
X84875000Y-89875000D03*
D14*
X84875000Y-89875000D03*
%TD*%
D13*
%TO.C,FLUXL_4_8*%
X87625000Y-109125000D03*
D14*
X87625000Y-109125000D03*
%TD*%
%TO.C,FLUXL_5_1*%
X90375000Y-89875000D03*
D13*
X90375000Y-89875000D03*
%TD*%
D14*
%TO.C,FLUXL_6_8*%
X93125000Y-109125000D03*
D13*
X93125000Y-109125000D03*
%TD*%
D14*
%TO.C,FLUXL_7_1*%
X95875000Y-89875000D03*
D13*
X95875000Y-89875000D03*
%TD*%
%TO.C,FLUXL_8_8*%
X98625000Y-109125000D03*
D14*
X98625000Y-109125000D03*
%TD*%
D13*
%TO.C,FLUXL_9_1*%
X101375000Y-89875000D03*
D14*
X101375000Y-89875000D03*
%TD*%
%TO.C,FLUXL_9_8*%
X101375000Y-109125000D03*
D13*
X101375000Y-109125000D03*
%TD*%
%TO.C,FLUXL_10_1*%
X104125000Y-89875000D03*
D14*
X104125000Y-89875000D03*
%TD*%
D13*
%TO.C,FLUXL_10_8*%
X104125000Y-109125000D03*
D14*
X104125000Y-109125000D03*
%TD*%
%TO.C,FLUXL_11_1*%
X106875000Y-89875000D03*
D13*
X106875000Y-89875000D03*
%TD*%
D14*
%TO.C,FLUXL_11_8*%
X106875000Y-109125000D03*
D13*
X106875000Y-109125000D03*
%TD*%
D14*
%TO.C,FLUXL_12_1*%
X109625000Y-89875000D03*
D13*
X109625000Y-89875000D03*
%TD*%
%TO.C,FLUXL_12_8*%
X109625000Y-109125000D03*
D14*
X109625000Y-109125000D03*
%TD*%
%TO.C,FLUXL_13_1*%
X112375000Y-89875000D03*
D13*
X112375000Y-89875000D03*
%TD*%
D14*
%TO.C,FLUXL_13_8*%
X112375000Y-109125000D03*
D13*
X112375000Y-109125000D03*
%TD*%
%TO.C,FLUXL_14_1*%
X115125000Y-89875000D03*
D14*
X115125000Y-89875000D03*
%TD*%
%TO.C,FLUXL_14_8*%
X115125000Y-109125000D03*
D13*
X115125000Y-109125000D03*
%TD*%
D14*
%TO.C,FLUXL_15_1*%
X117875000Y-89875000D03*
D13*
X117875000Y-89875000D03*
%TD*%
%TO.C,FLUXL_15_3*%
X117875000Y-95375000D03*
D14*
X117875000Y-95375000D03*
%TD*%
%TO.C,FLUXL_15_4*%
X117875000Y-98125000D03*
D13*
X117875000Y-98125000D03*
%TD*%
D14*
%TO.C,FLUXL_15_5*%
X117875000Y-100875000D03*
D13*
X117875000Y-100875000D03*
%TD*%
D14*
%TO.C,FLUXL_15_6*%
X117875000Y-103625000D03*
D13*
X117875000Y-103625000D03*
%TD*%
%TO.C,FLUXL_15_8*%
X117875000Y-109125000D03*
D14*
X117875000Y-109125000D03*
%TD*%
%TO.C,FLUXL_2_8*%
X82125000Y-109125000D03*
D13*
X82125000Y-109125000D03*
%TD*%
D14*
%TO.C,FLUXL_3_8*%
X84875000Y-109125000D03*
D13*
X84875000Y-109125000D03*
%TD*%
D14*
%TO.C,FLUXL_5_8*%
X90375000Y-109125000D03*
D13*
X90375000Y-109125000D03*
%TD*%
D14*
%TO.C,FLUXL_6_1*%
X93125000Y-89875000D03*
D13*
X93125000Y-89875000D03*
%TD*%
D14*
%TO.C,FLUXL_7_8*%
X95875000Y-109125000D03*
D13*
X95875000Y-109125000D03*
%TD*%
D14*
%TO.C,FLUXL_8_1*%
X98625000Y-89875000D03*
D13*
X98625000Y-89875000D03*
%TD*%
D14*
%TO.C,FLUXL_4_1*%
X87625000Y-89875000D03*
D13*
X87625000Y-89875000D03*
%TD*%
%TO.C,FLUXL_16_2*%
X120625000Y-92625000D03*
D14*
X120625000Y-92625000D03*
%TD*%
%TO.C,FLUXL_16_4*%
X122000000Y-95375000D03*
D13*
X122000000Y-95375000D03*
%TD*%
D14*
%TO.C,FLUXL_16_5*%
X122000000Y-109125000D03*
D13*
X122000000Y-109125000D03*
%TD*%
D14*
%TO.C,FLUXL_16_7*%
X120625000Y-106375000D03*
D13*
X120625000Y-106375000D03*
%TD*%
D14*
%TO.C,FLUXL_2_2*%
X82125000Y-92625000D03*
D13*
X82125000Y-92625000D03*
%TD*%
D14*
%TO.C,FLUXL_2_7*%
X82125000Y-106375000D03*
D13*
X82125000Y-106375000D03*
%TD*%
D14*
%TO.C,FLUXL_15_2*%
X117875000Y-92625000D03*
D13*
X117875000Y-92625000D03*
%TD*%
%TO.C,FLUXL_15_7*%
X117875000Y-106375000D03*
D14*
X117875000Y-106375000D03*
%TD*%
%TO.C,FLUXL_16_4b1*%
X122000000Y-89875000D03*
D13*
X122000000Y-89875000D03*
%TD*%
%TO.C,FLUXL_1_4b1*%
X78000000Y-95375000D03*
D14*
X78000000Y-95375000D03*
%TD*%
%TO.C,FLUXL_16_5b1*%
X122000000Y-103625000D03*
D13*
X122000000Y-103625000D03*
%TD*%
D27*
G36*
X149885000Y-130869000D02*
X50139000Y-130869000D01*
X50139000Y-68123000D01*
X149885000Y-68123000D01*
X149885000Y-130869000D01*
X149885000Y-130869000D01*
G37*
X149885000Y-130869000D02*
X50139000Y-130869000D01*
X50139000Y-68123000D01*
X149885000Y-68123000D01*
X149885000Y-130869000D01*
M02*
