%TF.GenerationSoftware,KiCad,Pcbnew,no-vcs-found-9b4eddb~60~ubuntu16.04.1*%
%TF.CreationDate,2017-11-10T14:06:11+01:00*%
%TF.ProjectId,OpenDropV3,4F70656E44726F7056332E6B69636164,rev?*%
%TF.SameCoordinates,Original*%
%TF.FileFunction,Soldermask,Bot*%
%TF.FilePolarity,Negative*%
%FSLAX46Y46*%
G04 Gerber Fmt 4.6, Leading zero omitted, Abs format (unit mm)*
G04 Created by KiCad (PCBNEW no-vcs-found-9b4eddb~60~ubuntu16.04.1) date Fri Nov 10 14:06:11 2017*
%MOMM*%
%LPD*%
G01*
G04 APERTURE LIST*
%ADD10C,2.250000*%
%ADD11C,0.150000*%
%ADD12C,1.000000*%
%ADD13C,3.200000*%
%ADD14R,3.000000X3.200000*%
%ADD15C,0.604800*%
%ADD16C,0.600000*%
%ADD17R,4.500000X2.200000*%
%ADD18R,0.740000X2.400000*%
%ADD19R,1.300000X0.250000*%
%ADD20R,0.250000X1.300000*%
%ADD21R,0.300000X1.250000*%
%ADD22R,2.000000X3.000000*%
%ADD23R,1.000000X1.250000*%
%ADD24R,1.700000X1.600000*%
%ADD25R,4.000500X2.400300*%
%ADD26R,1.300000X0.700000*%
%ADD27R,0.610000X1.520000*%
%ADD28R,0.700000X1.300000*%
%ADD29R,0.500000X1.480000*%
%ADD30R,1.480000X0.500000*%
%ADD31R,0.800000X1.300000*%
%ADD32R,2.780000X1.550000*%
%ADD33R,6.730000X6.740000*%
%ADD34R,1.250000X1.000000*%
%ADD35R,1.397000X1.397000*%
%ADD36C,1.397000*%
%ADD37R,0.660400X2.032000*%
%ADD38R,1.000000X3.200000*%
%ADD39R,2.500000X1.000000*%
%ADD40R,3.200000X2.700000*%
%ADD41R,2.500000X2.300000*%
%ADD42C,2.540000*%
%ADD43R,1.501140X1.501140*%
%ADD44R,1.400000X2.100000*%
%ADD45R,1.600200X3.599180*%
%ADD46R,3.500000X10.200000*%
%ADD47R,3.000000X2.000000*%
%ADD48R,2.032000X3.657600*%
%ADD49R,2.032000X1.016000*%
%ADD50R,1.060000X0.650000*%
%ADD51R,0.600000X0.450000*%
%ADD52R,1.000000X3.150000*%
%ADD53R,1.800000X1.000000*%
%ADD54R,1.800000X1.900000*%
%ADD55R,1.900000X1.900000*%
%ADD56R,2.100000X1.600000*%
%ADD57R,0.400000X1.350000*%
G04 APERTURE END LIST*
D10*
%TO.C,P14*%
X146982767Y-74000000D02*
G75*
G03X146982767Y-74000000I-2982767J0D01*
G01*
D11*
X139500000Y-71402000D02*
X139500000Y-76598000D01*
X148500000Y-71402000D02*
X148500000Y-76598000D01*
X144000000Y-68804000D02*
X148500000Y-71402000D01*
X139500000Y-71402000D02*
X144000000Y-68804000D01*
X144000000Y-79196000D02*
X139500000Y-76598000D01*
X148500000Y-76598000D02*
X144000000Y-79196000D01*
D12*
X140000000Y-71700000D02*
X144000000Y-69400000D01*
X140000000Y-76300000D02*
X140000000Y-71700000D01*
X144000000Y-78600000D02*
X140000000Y-76300000D01*
X148000000Y-76300000D02*
X144000000Y-78600000D01*
X148000000Y-71700000D02*
X148000000Y-76300000D01*
X144000000Y-69400000D02*
X148000000Y-71700000D01*
D10*
%TO.C,P13*%
X58982767Y-74000000D02*
G75*
G03X58982767Y-74000000I-2982767J0D01*
G01*
D11*
X51500000Y-71402000D02*
X51500000Y-76598000D01*
X60500000Y-71402000D02*
X60500000Y-76598000D01*
X56000000Y-68804000D02*
X60500000Y-71402000D01*
X51500000Y-71402000D02*
X56000000Y-68804000D01*
X56000000Y-79196000D02*
X51500000Y-76598000D01*
X60500000Y-76598000D02*
X56000000Y-79196000D01*
D12*
X52000000Y-71700000D02*
X56000000Y-69400000D01*
X52000000Y-76300000D02*
X52000000Y-71700000D01*
X56000000Y-78600000D02*
X52000000Y-76300000D01*
X60000000Y-76300000D02*
X56000000Y-78600000D01*
X60000000Y-71700000D02*
X60000000Y-76300000D01*
X56000000Y-69400000D02*
X60000000Y-71700000D01*
%TO.C,P15*%
X56000000Y-120400000D02*
X60000000Y-122700000D01*
X60000000Y-122700000D02*
X60000000Y-127300000D01*
X60000000Y-127300000D02*
X56000000Y-129600000D01*
X56000000Y-129600000D02*
X52000000Y-127300000D01*
X52000000Y-127300000D02*
X52000000Y-122700000D01*
X52000000Y-122700000D02*
X56000000Y-120400000D01*
D11*
X60500000Y-127598000D02*
X56000000Y-130196000D01*
X56000000Y-130196000D02*
X51500000Y-127598000D01*
X51500000Y-122402000D02*
X56000000Y-119804000D01*
X56000000Y-119804000D02*
X60500000Y-122402000D01*
X60500000Y-122402000D02*
X60500000Y-127598000D01*
X51500000Y-122402000D02*
X51500000Y-127598000D01*
D10*
X58982767Y-125000000D02*
G75*
G03X58982767Y-125000000I-2982767J0D01*
G01*
%TO.C,P16*%
X146982767Y-125000000D02*
G75*
G03X146982767Y-125000000I-2982767J0D01*
G01*
D11*
X139500000Y-122402000D02*
X139500000Y-127598000D01*
X148500000Y-122402000D02*
X148500000Y-127598000D01*
X144000000Y-119804000D02*
X148500000Y-122402000D01*
X139500000Y-122402000D02*
X144000000Y-119804000D01*
X144000000Y-130196000D02*
X139500000Y-127598000D01*
X148500000Y-127598000D02*
X144000000Y-130196000D01*
D12*
X140000000Y-122700000D02*
X144000000Y-120400000D01*
X140000000Y-127300000D02*
X140000000Y-122700000D01*
X144000000Y-129600000D02*
X140000000Y-127300000D01*
X148000000Y-127300000D02*
X144000000Y-129600000D01*
X148000000Y-122700000D02*
X148000000Y-127300000D01*
X144000000Y-120400000D02*
X148000000Y-122700000D01*
%TD*%
D13*
%TO.C,P2*%
X146963000Y-63000000D03*
D14*
X148463000Y-63000000D03*
%TD*%
D15*
%TO.C,FLUXL_1_3*%
X76625000Y-92625000D03*
%TD*%
%TO.C,FLUXL_1_6*%
X76625000Y-106375000D03*
%TD*%
%TO.C,FLUXL_16_3*%
X123375000Y-92625000D03*
%TD*%
%TO.C,FLUXL_16_6*%
X123375000Y-106375000D03*
%TD*%
%TO.C,FLUXL_16_1*%
X127500000Y-92625000D03*
%TD*%
%TO.C,FLUXL_1_8*%
X72500000Y-106375000D03*
%TD*%
%TO.C,FLUXL_16_8*%
X127500000Y-106375000D03*
%TD*%
%TO.C,FLUXL_1_1*%
X72500000Y-92625000D03*
%TD*%
D16*
%TO.C,SP1*%
X90265000Y-135539000D03*
X89265000Y-135539000D03*
X88265000Y-135539000D03*
X87265000Y-135539000D03*
X86265000Y-135539000D03*
X90265000Y-134539000D03*
X89765000Y-135039000D03*
X89265000Y-134539000D03*
X88765000Y-135039000D03*
X88265000Y-134539000D03*
X87765000Y-135039000D03*
X87265000Y-134539000D03*
X86765000Y-135039000D03*
X86265000Y-134539000D03*
X90265000Y-133539000D03*
X89765000Y-134039000D03*
X89265000Y-133539000D03*
X88765000Y-134039000D03*
X88265000Y-133539000D03*
X87765000Y-134039000D03*
X87265000Y-133539000D03*
X86765000Y-134039000D03*
X86265000Y-133539000D03*
D17*
X76265000Y-129539000D03*
X76265000Y-134539000D03*
%TD*%
D18*
%TO.C,J2*%
X106553000Y-39247000D03*
X106553000Y-35347000D03*
X105283000Y-39247000D03*
X105283000Y-35347000D03*
X104013000Y-39247000D03*
X104013000Y-35347000D03*
X102743000Y-39247000D03*
X102743000Y-35347000D03*
X101473000Y-39247000D03*
X101473000Y-35347000D03*
%TD*%
D19*
%TO.C,U5*%
X112935000Y-44199000D03*
X112935000Y-44699000D03*
X112935000Y-45199000D03*
X112935000Y-45699000D03*
X112935000Y-46199000D03*
X112935000Y-46699000D03*
X112935000Y-47199000D03*
X112935000Y-47699000D03*
X112935000Y-48199000D03*
X112935000Y-48699000D03*
X112935000Y-49199000D03*
X112935000Y-49699000D03*
D20*
X111335000Y-51299000D03*
X110835000Y-51299000D03*
X110335000Y-51299000D03*
X109835000Y-51299000D03*
X109335000Y-51299000D03*
X108835000Y-51299000D03*
X108335000Y-51299000D03*
X107835000Y-51299000D03*
X107335000Y-51299000D03*
X106835000Y-51299000D03*
X106335000Y-51299000D03*
X105835000Y-51299000D03*
D19*
X104235000Y-49699000D03*
X104235000Y-49199000D03*
X104235000Y-48699000D03*
X104235000Y-48199000D03*
X104235000Y-47699000D03*
X104235000Y-47199000D03*
X104235000Y-46699000D03*
X104235000Y-46199000D03*
X104235000Y-45699000D03*
X104235000Y-45199000D03*
X104235000Y-44699000D03*
X104235000Y-44199000D03*
D20*
X105835000Y-42599000D03*
X106335000Y-42599000D03*
X106835000Y-42599000D03*
X107335000Y-42599000D03*
X107835000Y-42599000D03*
X108335000Y-42599000D03*
X108835000Y-42599000D03*
X109335000Y-42599000D03*
X109835000Y-42599000D03*
X110335000Y-42599000D03*
X110835000Y-42599000D03*
X111335000Y-42599000D03*
%TD*%
D21*
%TO.C,S1*%
X139250000Y-47025000D03*
X137250000Y-47025000D03*
X137750000Y-47025000D03*
X138750000Y-47025000D03*
X138250000Y-47025000D03*
X136250000Y-47025000D03*
X136750000Y-47025000D03*
X135750000Y-47025000D03*
X135250000Y-47025000D03*
X132250000Y-47025000D03*
X132750000Y-47025000D03*
X133750000Y-47025000D03*
X133250000Y-47025000D03*
X134750000Y-47025000D03*
X134250000Y-47025000D03*
X126750000Y-47025000D03*
X127250000Y-47025000D03*
X125750000Y-47025000D03*
X126250000Y-47025000D03*
X125250000Y-47025000D03*
X124750000Y-47025000D03*
X127750000Y-47025000D03*
X128250000Y-47025000D03*
X129250000Y-47025000D03*
X128750000Y-47025000D03*
X130750000Y-47025000D03*
X131250000Y-47025000D03*
X130250000Y-47025000D03*
X129750000Y-47025000D03*
D22*
X123210000Y-49350000D03*
X140790000Y-49350000D03*
D21*
X131750000Y-47025000D03*
%TD*%
D23*
%TO.C,C14*%
X99711000Y-47457000D03*
X101711000Y-47457000D03*
%TD*%
D13*
%TO.C,P14*%
X144000000Y-74000000D03*
%TD*%
D24*
%TO.C,U12*%
X79677000Y-70817000D03*
X82217000Y-70817000D03*
X82217000Y-61317000D03*
X79677000Y-61317000D03*
%TD*%
D25*
%TO.C,C18*%
X54419500Y-60960000D03*
X62420500Y-60960000D03*
%TD*%
D26*
%TO.C,R32*%
X102156000Y-61619500D03*
X102156000Y-59719500D03*
%TD*%
D27*
%TO.C,U9*%
X118285000Y-69244000D03*
X117015000Y-69244000D03*
X115745000Y-69244000D03*
X114475000Y-69244000D03*
X114475000Y-63779000D03*
X115745000Y-63779000D03*
X117015000Y-63779000D03*
X118285000Y-63779000D03*
%TD*%
%TO.C,U8*%
X111935000Y-63779000D03*
X110665000Y-63779000D03*
X109395000Y-63779000D03*
X108125000Y-63779000D03*
X108125000Y-69244000D03*
X109395000Y-69244000D03*
X110665000Y-69244000D03*
X111935000Y-69244000D03*
%TD*%
D28*
%TO.C,R33*%
X102852000Y-71591500D03*
X100952000Y-71591500D03*
%TD*%
D26*
%TO.C,R1*%
X64262000Y-53528000D03*
X64262000Y-51628000D03*
%TD*%
%TO.C,R5*%
X101219000Y-42443000D03*
X101219000Y-44343000D03*
%TD*%
%TO.C,R18*%
X102410000Y-137367000D03*
X102410000Y-135467000D03*
%TD*%
%TO.C,R19*%
X99997000Y-135467000D03*
X99997000Y-137367000D03*
%TD*%
%TO.C,R20*%
X97330000Y-136991000D03*
X97330000Y-138891000D03*
%TD*%
%TO.C,R21*%
X97330000Y-133562000D03*
X97330000Y-135462000D03*
%TD*%
D28*
%TO.C,R22*%
X133126000Y-72363040D03*
X131226000Y-72363040D03*
%TD*%
D26*
%TO.C,R30*%
X131668000Y-70265040D03*
X131668000Y-68365040D03*
%TD*%
%TO.C,R31*%
X123794000Y-69757040D03*
X123794000Y-67857040D03*
%TD*%
D28*
%TO.C,R35*%
X116139000Y-71587000D03*
X114239000Y-71587000D03*
%TD*%
%TO.C,R38*%
X109456000Y-71591500D03*
X107556000Y-71591500D03*
%TD*%
%TO.C,R39*%
X104206000Y-71587000D03*
X106106000Y-71587000D03*
%TD*%
%TO.C,R42*%
X110858000Y-71591500D03*
X112758000Y-71591500D03*
%TD*%
%TO.C,R44*%
X95189000Y-74889000D03*
X97089000Y-74889000D03*
%TD*%
%TO.C,R45*%
X87437000Y-73365000D03*
X85537000Y-73365000D03*
%TD*%
%TO.C,R48*%
X71567000Y-73365000D03*
X73467000Y-73365000D03*
%TD*%
%TO.C,R49*%
X81473000Y-73365000D03*
X83373000Y-73365000D03*
%TD*%
%TO.C,R51*%
X76901000Y-73365000D03*
X78801000Y-73365000D03*
%TD*%
D26*
%TO.C,R41*%
X117650000Y-61619500D03*
X117650000Y-59719500D03*
%TD*%
D28*
%TO.C,R43*%
X117462000Y-71591500D03*
X119362000Y-71591500D03*
%TD*%
%TO.C,R3*%
X138369000Y-41107000D03*
X140269000Y-41107000D03*
%TD*%
D26*
%TO.C,R4*%
X144145000Y-56159000D03*
X144145000Y-58059000D03*
%TD*%
%TO.C,R6*%
X121285000Y-56159000D03*
X121285000Y-58059000D03*
%TD*%
%TO.C,R8*%
X142113000Y-56159000D03*
X142113000Y-58059000D03*
%TD*%
%TO.C,R34*%
X115175000Y-61625000D03*
X115175000Y-59725000D03*
%TD*%
%TO.C,R36*%
X108760000Y-61619500D03*
X108760000Y-59719500D03*
%TD*%
%TO.C,R37*%
X104975000Y-61625000D03*
X104975000Y-59725000D03*
%TD*%
%TO.C,R40*%
X111300000Y-61619500D03*
X111300000Y-59719500D03*
%TD*%
%TO.C,R9*%
X99949000Y-51963000D03*
X99949000Y-50063000D03*
%TD*%
D28*
%TO.C,R10*%
X93533000Y-74889000D03*
X91633000Y-74889000D03*
%TD*%
%TO.C,R11*%
X94935000Y-60030000D03*
X96835000Y-60030000D03*
%TD*%
D15*
%TO.C,FLUXL_1_5b1*%
X78000000Y-109125000D03*
%TD*%
D29*
%TO.C,U2*%
X95200000Y-107740000D03*
X94400000Y-107740000D03*
X93600000Y-107740000D03*
X92800000Y-107740000D03*
X92000000Y-107740000D03*
X91200000Y-107740000D03*
X90400000Y-107740000D03*
X89600000Y-107740000D03*
X88800000Y-107740000D03*
X88000000Y-107740000D03*
X87200000Y-107740000D03*
X86400000Y-107740000D03*
X85600000Y-107740000D03*
X84800000Y-107740000D03*
X84000000Y-107740000D03*
X83200000Y-107740000D03*
X82400000Y-107740000D03*
X81600000Y-107740000D03*
X80800000Y-107740000D03*
X80000000Y-107740000D03*
X79200000Y-107740000D03*
X78400000Y-107740000D03*
X77600000Y-107740000D03*
X76800000Y-107740000D03*
D30*
X74760000Y-105500000D03*
X74760000Y-104700000D03*
X74760000Y-103900000D03*
X74760000Y-103100000D03*
X74760000Y-102300000D03*
X74760000Y-101500000D03*
X74760000Y-100700000D03*
X74760000Y-99900000D03*
X74760000Y-99100000D03*
X74760000Y-98300000D03*
X74760000Y-97500000D03*
X74760000Y-96700000D03*
X74760000Y-95900000D03*
X74760000Y-95100000D03*
X74760000Y-94300000D03*
X74760000Y-93500000D03*
D29*
X76800000Y-91260000D03*
X77600000Y-91260000D03*
X78400000Y-91260000D03*
X79200000Y-91260000D03*
X80000000Y-91260000D03*
X80800000Y-91260000D03*
X81600000Y-91260000D03*
X82400000Y-91260000D03*
X83200000Y-91260000D03*
X84000000Y-91260000D03*
X84800000Y-91260000D03*
X85600000Y-91260000D03*
X86400000Y-91260000D03*
X87200000Y-91260000D03*
X88000000Y-91260000D03*
X88800000Y-91260000D03*
X89600000Y-91260000D03*
X90400000Y-91260000D03*
X91200000Y-91260000D03*
X92000000Y-91260000D03*
X92800000Y-91260000D03*
X93600000Y-91260000D03*
X94400000Y-91260000D03*
X95200000Y-91260000D03*
D30*
X97240000Y-93500000D03*
X97240000Y-94300000D03*
X97240000Y-95100000D03*
X97240000Y-95900000D03*
X97240000Y-96700000D03*
X97240000Y-97500000D03*
X97240000Y-98300000D03*
X97240000Y-99100000D03*
X97240000Y-99900000D03*
X97240000Y-100700000D03*
X97240000Y-101500000D03*
X97240000Y-102300000D03*
X97240000Y-103100000D03*
X97240000Y-103900000D03*
X97240000Y-104700000D03*
X97240000Y-105500000D03*
%TD*%
D31*
%TO.C,R16*%
X98625000Y-89875000D03*
D28*
X97675000Y-89875000D03*
X99575000Y-89875000D03*
%TD*%
D29*
%TO.C,U4*%
X104800000Y-91260000D03*
X105600000Y-91260000D03*
X106400000Y-91260000D03*
X107200000Y-91260000D03*
X108000000Y-91260000D03*
X108800000Y-91260000D03*
X109600000Y-91260000D03*
X110400000Y-91260000D03*
X111200000Y-91260000D03*
X112000000Y-91260000D03*
X112800000Y-91260000D03*
X113600000Y-91260000D03*
X114400000Y-91260000D03*
X115200000Y-91260000D03*
X116000000Y-91260000D03*
X116800000Y-91260000D03*
X117600000Y-91260000D03*
X118400000Y-91260000D03*
X119200000Y-91260000D03*
X120000000Y-91260000D03*
X120800000Y-91260000D03*
X121600000Y-91260000D03*
X122400000Y-91260000D03*
X123200000Y-91260000D03*
D30*
X125240000Y-93500000D03*
X125240000Y-94300000D03*
X125240000Y-95100000D03*
X125240000Y-95900000D03*
X125240000Y-96700000D03*
X125240000Y-97500000D03*
X125240000Y-98300000D03*
X125240000Y-99100000D03*
X125240000Y-99900000D03*
X125240000Y-100700000D03*
X125240000Y-101500000D03*
X125240000Y-102300000D03*
X125240000Y-103100000D03*
X125240000Y-103900000D03*
X125240000Y-104700000D03*
X125240000Y-105500000D03*
D29*
X123200000Y-107740000D03*
X122400000Y-107740000D03*
X121600000Y-107740000D03*
X120800000Y-107740000D03*
X120000000Y-107740000D03*
X119200000Y-107740000D03*
X118400000Y-107740000D03*
X117600000Y-107740000D03*
X116800000Y-107740000D03*
X116000000Y-107740000D03*
X115200000Y-107740000D03*
X114400000Y-107740000D03*
X113600000Y-107740000D03*
X112800000Y-107740000D03*
X112000000Y-107740000D03*
X111200000Y-107740000D03*
X110400000Y-107740000D03*
X109600000Y-107740000D03*
X108800000Y-107740000D03*
X108000000Y-107740000D03*
X107200000Y-107740000D03*
X106400000Y-107740000D03*
X105600000Y-107740000D03*
X104800000Y-107740000D03*
D30*
X102760000Y-105500000D03*
X102760000Y-104700000D03*
X102760000Y-103900000D03*
X102760000Y-103100000D03*
X102760000Y-102300000D03*
X102760000Y-101500000D03*
X102760000Y-100700000D03*
X102760000Y-99900000D03*
X102760000Y-99100000D03*
X102760000Y-98300000D03*
X102760000Y-97500000D03*
X102760000Y-96700000D03*
X102760000Y-95900000D03*
X102760000Y-95100000D03*
X102760000Y-94300000D03*
X102760000Y-93500000D03*
%TD*%
D32*
%TO.C,T1*%
X73932000Y-48620000D03*
D33*
X80567000Y-50800000D03*
D32*
X73932000Y-52980000D03*
%TD*%
D24*
%TO.C,U11*%
X69009000Y-70817000D03*
X71549000Y-70817000D03*
X71549000Y-61317000D03*
X69009000Y-61317000D03*
%TD*%
%TO.C,U10*%
X85011000Y-70817000D03*
X87551000Y-70817000D03*
X87551000Y-61317000D03*
X85011000Y-61317000D03*
%TD*%
%TO.C,U13*%
X74343000Y-70817000D03*
X76883000Y-70817000D03*
X76883000Y-61317000D03*
X74343000Y-61317000D03*
%TD*%
D27*
%TO.C,U7*%
X105585000Y-69244000D03*
X104315000Y-69244000D03*
X103045000Y-69244000D03*
X101775000Y-69244000D03*
X101775000Y-63779000D03*
X103045000Y-63779000D03*
X104315000Y-63779000D03*
X105585000Y-63779000D03*
%TD*%
D34*
%TO.C,C17*%
X123794000Y-65997040D03*
X123794000Y-63997040D03*
%TD*%
D35*
%TO.C,SW5*%
X59230000Y-52605000D03*
D36*
X59230000Y-50065000D03*
X59230000Y-47525000D03*
%TD*%
D37*
%TO.C,U6*%
X129763000Y-72134440D03*
X128493000Y-72134440D03*
X127223000Y-72134440D03*
X125953000Y-72134440D03*
X125953000Y-65987640D03*
X127223000Y-65987640D03*
X128493000Y-65987640D03*
X129763000Y-65987640D03*
%TD*%
D38*
%TO.C,R2*%
X72465000Y-57363000D03*
X78665000Y-57363000D03*
%TD*%
D39*
%TO.C,RSENSE1*%
X72565000Y-44895000D03*
X72565000Y-39995000D03*
%TD*%
D34*
%TO.C,C2*%
X61976000Y-49768000D03*
X61976000Y-47768000D03*
%TD*%
%TO.C,C3*%
X64262000Y-47768000D03*
X64262000Y-49768000D03*
%TD*%
D40*
%TO.C,C1*%
X88646000Y-36690000D03*
X88646000Y-44590000D03*
%TD*%
D34*
%TO.C,C12*%
X127432000Y-98246000D03*
X127432000Y-100246000D03*
%TD*%
%TO.C,C13*%
X72060000Y-101008000D03*
X72060000Y-99008000D03*
%TD*%
D41*
%TO.C,D1*%
X67875000Y-36095000D03*
X72175000Y-36095000D03*
%TD*%
D42*
%TO.C,REF\002A\002A*%
X147000000Y-34000000D03*
%TD*%
%TO.C,REF\002A\002A*%
X147000000Y-134000000D03*
%TD*%
%TO.C,REF\002A\002A*%
X53000000Y-134000000D03*
%TD*%
D34*
%TO.C,C15*%
X131668000Y-65013040D03*
X131668000Y-67013040D03*
%TD*%
D23*
%TO.C,C16*%
X126127000Y-63459000D03*
X128127000Y-63459000D03*
%TD*%
D31*
%TO.C,R17*%
X101375000Y-109125000D03*
D28*
X100425000Y-109125000D03*
X102325000Y-109125000D03*
%TD*%
D31*
%TO.C,R15*%
X101375000Y-89875000D03*
D28*
X100425000Y-89875000D03*
X102325000Y-89875000D03*
%TD*%
D31*
%TO.C,R7*%
X98625000Y-109125000D03*
D28*
X99575000Y-109125000D03*
X97675000Y-109125000D03*
%TD*%
D13*
%TO.C,P13*%
X56000000Y-74000000D03*
%TD*%
D25*
%TO.C,C4*%
X62420500Y-39116000D03*
X54419500Y-39116000D03*
%TD*%
D23*
%TO.C,C20*%
X111109000Y-38821000D03*
X109109000Y-38821000D03*
%TD*%
D34*
%TO.C,C21*%
X126619000Y-41091000D03*
X126619000Y-39091000D03*
%TD*%
%TO.C,C22*%
X142113000Y-62681000D03*
X142113000Y-60681000D03*
%TD*%
D23*
%TO.C,C23*%
X111109000Y-34757000D03*
X109109000Y-34757000D03*
%TD*%
D34*
%TO.C,C24*%
X116967000Y-45917000D03*
X116967000Y-43917000D03*
%TD*%
D23*
%TO.C,C25*%
X111109000Y-36789000D03*
X109109000Y-36789000D03*
%TD*%
D43*
%TO.C,P3*%
X68120000Y-103405000D03*
%TD*%
%TO.C,P7*%
X68120000Y-108485000D03*
%TD*%
%TO.C,P8*%
X68120000Y-95785000D03*
%TD*%
%TO.C,P9*%
X68120000Y-93245000D03*
%TD*%
%TO.C,P10*%
X68120000Y-105945000D03*
%TD*%
%TO.C,P11*%
X68120000Y-98325000D03*
%TD*%
%TO.C,P12*%
X68120000Y-100865000D03*
%TD*%
D44*
%TO.C,SW3*%
X148000000Y-37750000D03*
X143500000Y-37750000D03*
X148000000Y-47750000D03*
X143500000Y-47750000D03*
%TD*%
D45*
%TO.C,C19*%
X89000000Y-51374180D03*
X89000000Y-56875820D03*
%TD*%
D46*
%TO.C,L1*%
X83945000Y-40599000D03*
X77345000Y-40599000D03*
%TD*%
D23*
%TO.C,C7*%
X125587000Y-43393000D03*
X123587000Y-43393000D03*
%TD*%
%TO.C,C8*%
X138319000Y-43393000D03*
X140319000Y-43393000D03*
%TD*%
%TO.C,C9*%
X127651000Y-43393000D03*
X129651000Y-43393000D03*
%TD*%
%TO.C,C10*%
X136255000Y-43393000D03*
X134255000Y-43393000D03*
%TD*%
%TO.C,C11*%
X115967000Y-53045000D03*
X117967000Y-53045000D03*
%TD*%
D47*
%TO.C,C6*%
X68120000Y-40145000D03*
X68120000Y-44745000D03*
%TD*%
D34*
%TO.C,C27*%
X120523000Y-63951000D03*
X120523000Y-61951000D03*
%TD*%
D48*
%TO.C,U14*%
X116967000Y-37805000D03*
D49*
X123571000Y-37805000D03*
X123571000Y-40091000D03*
X123571000Y-35519000D03*
%TD*%
D37*
%TO.C,U1*%
X66675000Y-47726600D03*
X67945000Y-47726600D03*
X69215000Y-47726600D03*
X70485000Y-47726600D03*
X70485000Y-53873400D03*
X69215000Y-53873400D03*
X67945000Y-53873400D03*
X66675000Y-53873400D03*
%TD*%
%TO.C,U15*%
X93980000Y-47685600D03*
X95250000Y-47685600D03*
X96520000Y-47685600D03*
X97790000Y-47685600D03*
X97790000Y-53832400D03*
X96520000Y-53832400D03*
X95250000Y-53832400D03*
X93980000Y-53832400D03*
%TD*%
D13*
%TO.C,P15*%
X56000000Y-125000000D03*
%TD*%
%TO.C,P16*%
X144000000Y-125000000D03*
%TD*%
D34*
%TO.C,C5*%
X139319000Y-35281000D03*
X139319000Y-37281000D03*
%TD*%
D50*
%TO.C,U3*%
X115867000Y-56789000D03*
X115867000Y-55839000D03*
X115867000Y-54889000D03*
X118067000Y-54889000D03*
X118067000Y-56789000D03*
X118067000Y-55839000D03*
%TD*%
D34*
%TO.C,C28*%
X89789000Y-73127000D03*
X89789000Y-75127000D03*
%TD*%
%TO.C,C29*%
X98933000Y-75127000D03*
X98933000Y-73127000D03*
%TD*%
D15*
%TO.C,FLUXL_3_2*%
X84875000Y-92625000D03*
%TD*%
%TO.C,FLUXL_3_3*%
X84875000Y-95375000D03*
%TD*%
%TO.C,FLUXL_3_4*%
X84875000Y-98125000D03*
%TD*%
%TO.C,FLUXL_3_5*%
X84875000Y-100875000D03*
%TD*%
%TO.C,FLUXL_3_6*%
X84875000Y-103625000D03*
%TD*%
%TO.C,FLUXL_3_7*%
X84875000Y-106375000D03*
%TD*%
%TO.C,FLUXL_4_2*%
X87625000Y-92625000D03*
%TD*%
%TO.C,FLUXL_4_3*%
X87625000Y-95375000D03*
%TD*%
%TO.C,FLUXL_4_4*%
X87625000Y-98125000D03*
%TD*%
%TO.C,FLUXL_4_5*%
X87625000Y-100875000D03*
%TD*%
%TO.C,FLUXL_4_6*%
X87625000Y-103625000D03*
%TD*%
%TO.C,FLUXL_4_7*%
X87625000Y-106375000D03*
%TD*%
%TO.C,FLUXL_5_2*%
X90375000Y-92625000D03*
%TD*%
%TO.C,FLUXL_5_3*%
X90375000Y-95375000D03*
%TD*%
%TO.C,FLUXL_5_4*%
X90375000Y-98125000D03*
%TD*%
%TO.C,FLUXL_5_5*%
X90375000Y-100875000D03*
%TD*%
%TO.C,FLUXL_5_6*%
X90375000Y-103625000D03*
%TD*%
%TO.C,FLUXL_5_7*%
X90375000Y-106375000D03*
%TD*%
%TO.C,FLUXL_6_2*%
X93125000Y-92625000D03*
%TD*%
%TO.C,FLUXL_6_3*%
X93125000Y-95375000D03*
%TD*%
%TO.C,FLUXL_6_4*%
X93125000Y-98125000D03*
%TD*%
%TO.C,FLUXL_6_5*%
X93125000Y-100875000D03*
%TD*%
%TO.C,FLUXL_6_6*%
X93125000Y-103625000D03*
%TD*%
%TO.C,FLUXL_6_7*%
X93125000Y-106375000D03*
%TD*%
%TO.C,FLUXL_7_2*%
X95875000Y-92625000D03*
%TD*%
%TO.C,FLUXL_7_3*%
X95875000Y-95375000D03*
%TD*%
%TO.C,FLUXL_7_4*%
X95875000Y-98125000D03*
%TD*%
%TO.C,FLUXL_7_5*%
X95875000Y-100875000D03*
%TD*%
%TO.C,FLUXL_7_6*%
X95875000Y-103625000D03*
%TD*%
%TO.C,FLUXL_7_7*%
X95875000Y-106375000D03*
%TD*%
%TO.C,FLUXL_8_2*%
X98625000Y-92625000D03*
%TD*%
%TO.C,FLUXL_8_3*%
X98625000Y-95375000D03*
%TD*%
%TO.C,FLUXL_8_4*%
X98625000Y-98125000D03*
%TD*%
%TO.C,FLUXL_8_5*%
X98625000Y-100875000D03*
%TD*%
%TO.C,FLUXL_8_6*%
X98625000Y-103625000D03*
%TD*%
%TO.C,FLUXL_8_7*%
X98625000Y-106375000D03*
%TD*%
%TO.C,FLUXL_9_2*%
X101375000Y-92625000D03*
%TD*%
%TO.C,FLUXL_9_3*%
X101375000Y-95375000D03*
%TD*%
%TO.C,FLUXL_9_4*%
X101375000Y-98125000D03*
%TD*%
%TO.C,FLUXL_9_5*%
X101375000Y-100875000D03*
%TD*%
%TO.C,FLUXL_9_6*%
X101375000Y-103625000D03*
%TD*%
%TO.C,FLUXL_9_7*%
X101375000Y-106375000D03*
%TD*%
%TO.C,FLUXL_10_2*%
X104125000Y-92625000D03*
%TD*%
%TO.C,FLUXL_10_3*%
X104125000Y-95375000D03*
%TD*%
%TO.C,FLUXL_10_4*%
X104125000Y-98125000D03*
%TD*%
%TO.C,FLUXL_10_5*%
X104125000Y-100875000D03*
%TD*%
%TO.C,FLUXL_10_6*%
X104125000Y-103625000D03*
%TD*%
%TO.C,FLUXL_10_7*%
X104125000Y-106375000D03*
%TD*%
%TO.C,FLUXL_11_2*%
X106875000Y-92625000D03*
%TD*%
%TO.C,FLUXL_11_3*%
X106875000Y-95375000D03*
%TD*%
%TO.C,FLUXL_11_4*%
X106875000Y-98125000D03*
%TD*%
%TO.C,FLUXL_11_5*%
X106875000Y-100875000D03*
%TD*%
%TO.C,FLUXL_11_6*%
X106875000Y-103625000D03*
%TD*%
%TO.C,FLUXL_11_7*%
X106875000Y-106375000D03*
%TD*%
%TO.C,FLUXL_12_2*%
X109625000Y-92625000D03*
%TD*%
%TO.C,FLUXL_12_3*%
X109625000Y-95375000D03*
%TD*%
%TO.C,FLUXL_12_4*%
X109625000Y-98125000D03*
%TD*%
%TO.C,FLUXL_12_5*%
X109625000Y-100875000D03*
%TD*%
%TO.C,FLUXL_12_6*%
X109625000Y-103625000D03*
%TD*%
%TO.C,FLUXL_12_7*%
X109625000Y-106375000D03*
%TD*%
%TO.C,FLUXL_13_2*%
X112375000Y-92625000D03*
%TD*%
%TO.C,FLUXL_13_3*%
X112375000Y-95375000D03*
%TD*%
%TO.C,FLUXL_13_4*%
X112375000Y-98125000D03*
%TD*%
%TO.C,FLUXL_13_5*%
X112375000Y-100875000D03*
%TD*%
%TO.C,FLUXL_13_6*%
X112375000Y-103625000D03*
%TD*%
%TO.C,FLUXL_13_7*%
X112375000Y-106375000D03*
%TD*%
%TO.C,FLUXL_14_2*%
X115125000Y-92625000D03*
%TD*%
%TO.C,FLUXL_14_3*%
X115125000Y-95375000D03*
%TD*%
%TO.C,FLUXL_14_4*%
X115125000Y-98125000D03*
%TD*%
%TO.C,FLUXL_14_5*%
X115125000Y-100875000D03*
%TD*%
%TO.C,FLUXL_14_6*%
X115125000Y-103625000D03*
%TD*%
%TO.C,FLUXL_14_7*%
X115125000Y-106375000D03*
%TD*%
%TO.C,FLUXL_1_2*%
X79375000Y-92625000D03*
%TD*%
%TO.C,FLUXL_1_4*%
X78000000Y-89875000D03*
%TD*%
%TO.C,FLUXL_1_5*%
X78000000Y-103625000D03*
%TD*%
%TO.C,FLUXL_1_7*%
X79375000Y-106375000D03*
%TD*%
%TO.C,FLUXL_2_1*%
X82125000Y-89875000D03*
%TD*%
%TO.C,FLUXL_2_3*%
X82125000Y-95375000D03*
%TD*%
%TO.C,FLUXL_2_4*%
X82125000Y-98125000D03*
%TD*%
%TO.C,FLUXL_2_5*%
X82125000Y-100875000D03*
%TD*%
%TO.C,FLUXL_2_6*%
X82125000Y-103625000D03*
%TD*%
%TO.C,FLUXL_3_1*%
X84875000Y-89875000D03*
%TD*%
%TO.C,FLUXL_4_8*%
X87625000Y-109125000D03*
%TD*%
%TO.C,FLUXL_5_1*%
X90375000Y-89875000D03*
%TD*%
%TO.C,FLUXL_6_8*%
X93125000Y-109125000D03*
%TD*%
%TO.C,FLUXL_7_1*%
X95875000Y-89875000D03*
%TD*%
%TO.C,FLUXL_8_8*%
X98625000Y-109125000D03*
%TD*%
%TO.C,FLUXL_9_1*%
X101375000Y-89875000D03*
%TD*%
%TO.C,FLUXL_9_8*%
X101375000Y-109125000D03*
%TD*%
%TO.C,FLUXL_10_1*%
X104125000Y-89875000D03*
%TD*%
%TO.C,FLUXL_10_8*%
X104125000Y-109125000D03*
%TD*%
%TO.C,FLUXL_11_1*%
X106875000Y-89875000D03*
%TD*%
%TO.C,FLUXL_11_8*%
X106875000Y-109125000D03*
%TD*%
%TO.C,FLUXL_12_1*%
X109625000Y-89875000D03*
%TD*%
%TO.C,FLUXL_12_8*%
X109625000Y-109125000D03*
%TD*%
%TO.C,FLUXL_13_1*%
X112375000Y-89875000D03*
%TD*%
%TO.C,FLUXL_13_8*%
X112375000Y-109125000D03*
%TD*%
%TO.C,FLUXL_14_1*%
X115125000Y-89875000D03*
%TD*%
%TO.C,FLUXL_14_8*%
X115125000Y-109125000D03*
%TD*%
%TO.C,FLUXL_15_1*%
X117875000Y-89875000D03*
%TD*%
%TO.C,FLUXL_15_3*%
X117875000Y-95375000D03*
%TD*%
%TO.C,FLUXL_15_4*%
X117875000Y-98125000D03*
%TD*%
%TO.C,FLUXL_15_5*%
X117875000Y-100875000D03*
%TD*%
%TO.C,FLUXL_15_6*%
X117875000Y-103625000D03*
%TD*%
%TO.C,FLUXL_15_8*%
X117875000Y-109125000D03*
%TD*%
%TO.C,FLUXL_2_8*%
X82125000Y-109125000D03*
%TD*%
%TO.C,FLUXL_3_8*%
X84875000Y-109125000D03*
%TD*%
%TO.C,FLUXL_5_8*%
X90375000Y-109125000D03*
%TD*%
%TO.C,FLUXL_6_1*%
X93125000Y-89875000D03*
%TD*%
%TO.C,FLUXL_7_8*%
X95875000Y-109125000D03*
%TD*%
%TO.C,FLUXL_8_1*%
X98625000Y-89875000D03*
%TD*%
%TO.C,FLUXL_4_1*%
X87625000Y-89875000D03*
%TD*%
%TO.C,FLUXL_16_2*%
X120625000Y-92625000D03*
%TD*%
%TO.C,FLUXL_16_4*%
X122000000Y-95375000D03*
%TD*%
%TO.C,FLUXL_16_5*%
X122000000Y-109125000D03*
%TD*%
%TO.C,FLUXL_16_7*%
X120625000Y-106375000D03*
%TD*%
%TO.C,FLUXL_2_2*%
X82125000Y-92625000D03*
%TD*%
%TO.C,FLUXL_2_7*%
X82125000Y-106375000D03*
%TD*%
%TO.C,FLUXL_15_2*%
X117875000Y-92625000D03*
%TD*%
%TO.C,FLUXL_15_7*%
X117875000Y-106375000D03*
%TD*%
%TO.C,FLUXL_16_4b1*%
X122000000Y-89875000D03*
%TD*%
%TO.C,FLUXL_1_4b1*%
X78000000Y-95375000D03*
%TD*%
%TO.C,FLUXL_16_5b1*%
X122000000Y-103625000D03*
%TD*%
D23*
%TO.C,C31*%
X94885000Y-57490000D03*
X96885000Y-57490000D03*
%TD*%
D51*
%TO.C,D2*%
X91533000Y-72603000D03*
X93633000Y-72603000D03*
%TD*%
%TO.C,D3*%
X97189000Y-72603000D03*
X95089000Y-72603000D03*
%TD*%
D52*
%TO.C,J1*%
X97917000Y-43124000D03*
X97917000Y-38074000D03*
X95377000Y-43124000D03*
X95377000Y-38074000D03*
X92837000Y-43124000D03*
X92837000Y-38074000D03*
%TD*%
D37*
%TO.C,U16*%
X90690000Y-63426600D03*
X91960000Y-63426600D03*
X93230000Y-63426600D03*
X94500000Y-63426600D03*
X95770000Y-63426600D03*
X97040000Y-63426600D03*
X98310000Y-63426600D03*
X98310000Y-69573400D03*
X97040000Y-69573400D03*
X94500000Y-69573400D03*
X93230000Y-69573400D03*
X91960000Y-69573400D03*
X90690000Y-69573400D03*
X95770000Y-69573400D03*
%TD*%
D53*
%TO.C,Y1*%
X113665000Y-37531000D03*
X113665000Y-35031000D03*
%TD*%
D22*
%TO.C,C32*%
X129653000Y-40091000D03*
X134253000Y-40091000D03*
%TD*%
D34*
%TO.C,C26*%
X119507000Y-45917000D03*
X119507000Y-43917000D03*
%TD*%
D54*
%TO.C,J3*%
X135800000Y-32471000D03*
X128200000Y-32471000D03*
D55*
X130800000Y-32471000D03*
X133200000Y-32471000D03*
D56*
X135100000Y-35021000D03*
X128900000Y-35021000D03*
D57*
X130700000Y-35146000D03*
X131350000Y-35146000D03*
X131999100Y-35146000D03*
X132650000Y-35146000D03*
X133300000Y-35146000D03*
%TD*%
M02*
