  0
SECTION
  2
HEADER
  9
$ACADVER
  1
AC1014
  9
$HANDSEED
  5
FFFF
  9
$MEASUREMENT
 70
     1
  0
ENDSEC
  0
SECTION
  2
TABLES
  0
TABLE
  2
VPORT
  5
8
330
0
100
AcDbSymbolTable
 70
     4
  0
VPORT
  5
2E
330
8
100
AcDbSymbolTableRecord
100
AcDbViewportTableRecord
  2
*ACTIVE
 70
     0
 10
0.0
 20
0.0
 11
1.0
 21
1.0
 12
210.0
 22
148.5
 13
0.0
 23
0.0
 14
10.0
 24
10.0
 15
10.0
 25
10.0
 16
0.0
 26
0.0
 36
1.0
 17
0.0
 27
0.0
 37
0.0
 40
341.0
 41
1.24
 42
50.0
 43
0.0
 44
0.0
 50
0.0
 51
0.0
 71
     0
 72
   100
 73
     1
 74
     3
 75
     0
 76
     0
 77
     0
 78
     0
  0
ENDTAB
  0
TABLE
  2
LTYPE
  5
5
330
0
100
AcDbSymbolTable
 70
     1
  0
LTYPE
  5
14
330
5
100
AcDbSymbolTableRecord
100
AcDbLinetypeTableRecord
  2
BYBLOCK
 70
     0
  3

 72
    65
 73
     0
 40
0.0
  0
LTYPE
  5
15
330
5
100
AcDbSymbolTableRecord
100
AcDbLinetypeTableRecord
  2
BYLAYER
 70
     0
  3

 72
    65
 73
     0
 40
0.0
  0
LTYPE
  5
16
330
5
100
AcDbSymbolTableRecord
100
AcDbLinetypeTableRecord
  2
CONTINUOUS
 70
     0
  3
Solid line
 72
    65
 73
     0
 40
0.0
  0
ENDTAB
  0
TABLE
  2
LAYER
  5
2
100
AcDbSymbolTable
 70
2
  0
LAYER
  5
50
100
AcDbSymbolTableRecord
100
AcDbLayerTableRecord
  2
0
 70
0
  6
CONTINUOUS
  0
LAYER
  5
51
100
AcDbSymbolTableRecord
100
AcDbLayerTableRecord
  2
Layer_1
 70
0
  6
CONTINUOUS
  0
ENDTAB
  0
TABLE
  2
STYLE
  5
3
330
0
100
AcDbSymbolTable
 70
     1
  0
STYLE
  5
11
330
3
100
AcDbSymbolTableRecord
100
AcDbTextStyleTableRecord
  2
STANDARD
 70
     0
 40
0.0
 41
1.0
 50
0.0
 71
     0
 42
2.5
  3
txt
  4

  0
ENDTAB
  0
TABLE
  2
VIEW
  5
6
330
0
100
AcDbSymbolTable
 70
     0
  0
ENDTAB
  0
TABLE
  2
UCS
  5
7
330
0
100
AcDbSymbolTable
 70
     0
  0
ENDTAB
  0
TABLE
  2
APPID
  5
9
330
0
100
AcDbSymbolTable
 70
     2
  0
APPID
  5
12
330
9
100
AcDbSymbolTableRecord
100
AcDbRegAppTableRecord
  2
ACAD
 70
     0
  0
ENDTAB
  0
TABLE
  2
DIMSTYLE
  5
A
330
0
100
AcDbSymbolTable
 70
     1
  0
DIMSTYLE
105
27
330
A
100
AcDbSymbolTableRecord
100
AcDbDimStyleTableRecord
  2
ISO-25
 70
     0
  3

  4

  5

  6

  7

 40
1.0
 41
2.5
 42
0.625
 43
3.75
 44
1.25
 45
0.0
 46
0.0
 47
0.0
 48
0.0
140
2.5
141
2.5
142
0.0
143
0.03937007874016
144
1.0
145
0.0
146
1.0
147
0.625
 71
     0
 72
     0
 73
     0
 74
     0
 75
     0
 76
     0
 77
     1
 78
     8
170
     0
171
     3
172
     1
173
     0
174
     0
175
     0
176
     0
177
     0
178
     0
270
     2
271
     2
272
     2
273
     2
274
     3
340
11
275
     0
280
     0
281
     0
282
     0
283
     0
284
     8
285
     0
286
     0
287
     3
288
     0
  0
ENDTAB
  0
TABLE
  2
BLOCK_RECORD
  5
1
330
0
100
AcDbSymbolTable
 70
     1
  0
BLOCK_RECORD
  5
1F
330
1
100
AcDbSymbolTableRecord
100
AcDbBlockTableRecord
  2
*MODEL_SPACE
  0
BLOCK_RECORD
  5
1B
330
1
100
AcDbSymbolTableRecord
100
AcDbBlockTableRecord
  2
*PAPER_SPACE
  0
ENDTAB
  0
ENDSEC
  0
SECTION
  2
BLOCKS
  0
BLOCK
  5
20
330
1F
100
AcDbEntity
  8
0
100
AcDbBlockBegin
  2
*MODEL_SPACE
 70
     0
 10
0.0
 20
0.0
 30
0.0
  3
*MODEL_SPACE
  1

  0
ENDBLK
  5
21
330
1F
100
AcDbEntity
  8
0
100
AcDbBlockEnd
  0
BLOCK
  5
1C
330
1B
100
AcDbEntity
 67
     1
  8
0
100
AcDbBlockBegin
  2
*PAPER_SPACE
  1

  0
ENDBLK
  5
1D
330
1B
100
AcDbEntity
 67
     1
  8
0
100
AcDbBlockEnd
  0
ENDSEC
  0
SECTION
  2
ENTITIES
  0
LWPOLYLINE
  5
100
100
AcDbEntity
  8
Layer_1
 62
5
100
AcDbPolyline
 90
80
 70
1
 10
56.221556
 20
262.098976
 30
0.0
 10
55.832759
 20
262.020546
 30
0.0
 10
55.515245
 20
261.806635
 30
0.0
 10
55.301161
 20
261.489296
 30
0.0
 10
55.222661
 20
261.100583
 30
0.0
 10
55.222661
 20
253.215792
 30
0.0
 10
55.222661
 20
245.331000
 30
0.0
 10
55.222661
 20
237.446209
 30
0.0
 10
55.222661
 20
229.561418
 30
0.0
 10
55.996566
 20
229.403248
 30
0.0
 10
56.628227
 20
228.975860
 30
0.0
 10
57.053972
 20
228.343091
 30
0.0
 10
57.210131
 20
227.568778
 30
0.0
 10
57.054122
 20
226.794298
 30
0.0
 10
56.628410
 20
226.161360
 30
0.0
 10
55.996692
 20
225.733841
 30
0.0
 10
55.222661
 20
225.575618
 30
0.0
 10
55.222661
 20
224.198958
 30
0.0
 10
55.222661
 20
222.822298
 30
0.0
 10
55.222661
 20
221.445638
 30
0.0
 10
55.222661
 20
220.068978
 30
0.0
 10
56.829283
 20
220.068728
 30
0.0
 10
58.435906
 20
220.068478
 30
0.0
 10
60.042529
 20
220.068228
 30
0.0
 10
61.649151
 20
220.067978
 30
0.0
 10
63.474194
 20
219.870924
 30
0.0
 10
65.196459
 20
219.298475
 30
0.0
 10
66.759179
 20
218.376456
 30
0.0
 10
68.105591
 20
217.130688
 30
0.0
 10
68.138541
 20
217.092578
 30
0.0
 10
68.171491
 20
217.054468
 30
0.0
 10
68.204441
 20
217.016358
 30
0.0
 10
68.237391
 20
216.978248
 30
0.0
 10
70.258231
 20
215.109295
 30
0.0
 10
72.602610
 20
213.725992
 30
0.0
 10
75.185674
 20
212.867207
 30
0.0
 10
77.922571
 20
212.571808
 30
0.0
 10
87.064132
 20
212.571808
 30
0.0
 10
96.205693
 20
212.571808
 30
0.0
 10
105.347255
 20
212.571808
 30
0.0
 10
114.488815
 20
212.571808
 30
0.0
 10
117.226385
 20
212.866270
 30
0.0
 10
119.810095
 20
213.724178
 30
0.0
 10
122.154855
 20
215.106995
 30
0.0
 10
124.175585
 20
216.976188
 30
0.0
 10
124.209085
 20
217.015078
 30
0.0
 10
124.242585
 20
217.053968
 30
0.0
 10
124.276085
 20
217.092858
 30
0.0
 10
124.309585
 20
217.131748
 30
0.0
 10
125.658765
 20
218.377697
 30
0.0
 10
127.222765
 20
219.299525
 30
0.0
 10
128.945065
 20
219.871528
 30
0.0
 10
130.769155
 20
220.067998
 30
0.0
 10
132.376035
 20
220.068248
 30
0.0
 10
133.982915
 20
220.068498
 30
0.0
 10
135.589795
 20
220.068748
 30
0.0
 10
137.196675
 20
220.068998
 30
0.0
 10
137.197425
 20
221.445915
 30
0.0
 10
137.198175
 20
222.822833
 30
0.0
 10
137.198925
 20
224.199750
 30
0.0
 10
137.199675
 20
225.576668
 30
0.0
 10
136.430195
 20
225.738616
 30
0.0
 10
135.802945
 20
226.166750
 30
0.0
 10
135.380555
 20
226.797876
 30
0.0
 10
135.225625
 20
227.568798
 30
0.0
 10
135.380655
 20
228.339967
 30
0.0
 10
135.803315
 20
228.971205
 30
0.0
 10
136.430895
 20
229.399272
 30
0.0
 10
137.200705
 20
229.560928
 30
0.0
 10
137.203705
 20
237.445847
 30
0.0
 10
137.206705
 20
245.330765
 30
0.0
 10
137.209705
 20
253.215684
 30
0.0
 10
137.212705
 20
261.100603
 30
0.0
 10
137.134205
 20
261.489316
 30
0.0
 10
136.920125
 20
261.806655
 30
0.0
 10
136.602615
 20
262.020566
 30
0.0
 10
136.213815
 20
262.098996
 30
0.0
 10
116.214770
 20
262.098996
 30
0.0
 10
96.217033
 20
262.098996
 30
0.0
 10
76.219294
 20
262.098996
 30
0.0
  0
LWPOLYLINE
  5
101
100
AcDbEntity
  8
Layer_1
 62
7
100
AcDbPolyline
 90
184
 70
1
 10
96.217276
 20
227.491421
 30
0.0
 10
89.584276
 20
227.491421
 30
0.0
 10
82.951276
 20
227.491421
 30
0.0
 10
76.318276
 20
227.491421
 30
0.0
 10
69.685276
 20
227.491421
 30
0.0
 10
69.373879
 20
227.554291
 30
0.0
 10
69.119590
 20
227.725737
 30
0.0
 10
68.948144
 20
227.980026
 30
0.0
 10
68.885274
 20
228.291423
 30
0.0
 10
68.885274
 20
228.301123
 30
0.0
 10
68.885274
 20
228.310823
 30
0.0
 10
68.885274
 20
228.320623
 30
0.0
 10
68.885274
 20
228.330323
 30
0.0
 10
68.822404
 20
228.641724
 30
0.0
 10
68.650956
 20
228.896013
 30
0.0
 10
68.396666
 20
229.067457
 30
0.0
 10
68.085273
 20
229.130327
 30
0.0
 10
66.885271
 20
229.130327
 30
0.0
 10
65.685268
 20
229.130327
 30
0.0
 10
64.485266
 20
229.130327
 30
0.0
 10
63.285263
 20
229.130327
 30
0.0
 10
62.973872
 20
229.193197
 30
0.0
 10
62.719586
 20
229.364647
 30
0.0
 10
62.548140
 20
229.618939
 30
0.0
 10
62.485270
 20
229.930338
 30
0.0
 10
62.485270
 20
232.155338
 30
0.0
 10
62.485270
 20
234.380338
 30
0.0
 10
62.485270
 20
236.605338
 30
0.0
 10
62.485270
 20
238.830338
 30
0.0
 10
62.548140
 20
239.141735
 30
0.0
 10
62.719584
 20
239.396024
 30
0.0
 10
62.973871
 20
239.567470
 30
0.0
 10
63.285262
 20
239.630340
 30
0.0
 10
64.485265
 20
239.630340
 30
0.0
 10
65.685267
 20
239.630340
 30
0.0
 10
66.885270
 20
239.630340
 30
0.0
 10
68.085272
 20
239.630340
 30
0.0
 10
68.396665
 20
239.693210
 30
0.0
 10
68.650955
 20
239.864656
 30
0.0
 10
68.822403
 20
240.118945
 30
0.0
 10
68.885273
 20
240.430342
 30
0.0
 10
68.885273
 20
240.430342
 30
0.0
 10
68.885273
 20
240.430342
 30
0.0
 10
68.885273
 20
240.430342
 30
0.0
 10
68.885273
 20
240.430342
 30
0.0
 10
68.885273
 20
240.776341
 30
0.0
 10
68.885273
 20
241.122340
 30
0.0
 10
68.885273
 20
241.468339
 30
0.0
 10
68.885273
 20
241.814338
 30
0.0
 10
68.885273
 20
241.814338
 30
0.0
 10
68.885273
 20
241.814338
 30
0.0
 10
68.885273
 20
241.814338
 30
0.0
 10
68.885273
 20
241.814338
 30
0.0
 10
68.822403
 20
242.125735
 30
0.0
 10
68.650955
 20
242.380024
 30
0.0
 10
68.396665
 20
242.551470
 30
0.0
 10
68.085272
 20
242.614340
 30
0.0
 10
66.885270
 20
242.614340
 30
0.0
 10
65.685267
 20
242.614340
 30
0.0
 10
64.485265
 20
242.614340
 30
0.0
 10
63.285262
 20
242.614340
 30
0.0
 10
62.973871
 20
242.677210
 30
0.0
 10
62.719585
 20
242.848656
 30
0.0
 10
62.548140
 20
243.102945
 30
0.0
 10
62.485270
 20
243.414342
 30
0.0
 10
62.485270
 20
245.639342
 30
0.0
 10
62.485270
 20
247.864341
 30
0.0
 10
62.485270
 20
250.089341
 30
0.0
 10
62.485270
 20
252.314341
 30
0.0
 10
62.548140
 20
252.625738
 30
0.0
 10
62.719584
 20
252.880027
 30
0.0
 10
62.973871
 20
253.051473
 30
0.0
 10
63.285262
 20
253.114343
 30
0.0
 10
64.485265
 20
253.114343
 30
0.0
 10
65.685267
 20
253.114343
 30
0.0
 10
66.885270
 20
253.114343
 30
0.0
 10
68.085272
 20
253.114343
 30
0.0
 10
68.396665
 20
253.177213
 30
0.0
 10
68.650955
 20
253.348659
 30
0.0
 10
68.822403
 20
253.602948
 30
0.0
 10
68.885273
 20
253.914345
 30
0.0
 10
68.885273
 20
253.924145
 30
0.0
 10
68.885273
 20
253.933845
 30
0.0
 10
68.885273
 20
253.943645
 30
0.0
 10
68.885273
 20
253.953345
 30
0.0
 10
68.948143
 20
254.264742
 30
0.0
 10
69.119589
 20
254.519031
 30
0.0
 10
69.373878
 20
254.690477
 30
0.0
 10
69.685275
 20
254.753347
 30
0.0
 10
76.318275
 20
254.753347
 30
0.0
 10
82.951275
 20
254.753347
 30
0.0
 10
89.584275
 20
254.753347
 30
0.0
 10
96.217275
 20
254.753347
 30
0.0
 10
102.850279
 20
254.753347
 30
0.0
 10
109.483289
 20
254.753347
 30
0.0
 10
116.116289
 20
254.753347
 30
0.0
 10
122.749299
 20
254.753347
 30
0.0
 10
123.060689
 20
254.690477
 30
0.0
 10
123.314969
 20
254.519031
 30
0.0
 10
123.486419
 20
254.264742
 30
0.0
 10
123.549319
 20
253.953345
 30
0.0
 10
123.549319
 20
253.943645
 30
0.0
 10
123.549329
 20
253.933845
 30
0.0
 10
123.549329
 20
253.924145
 30
0.0
 10
123.549329
 20
253.914345
 30
0.0
 10
123.612229
 20
253.602948
 30
0.0
 10
123.783669
 20
253.348659
 30
0.0
 10
124.037959
 20
253.177213
 30
0.0
 10
124.349359
 20
253.114343
 30
0.0
 10
125.549359
 20
253.114343
 30
0.0
 10
126.749359
 20
253.114343
 30
0.0
 10
127.949359
 20
253.114343
 30
0.0
 10
129.149359
 20
253.114343
 30
0.0
 10
129.460749
 20
253.051473
 30
0.0
 10
129.715039
 20
252.880027
 30
0.0
 10
129.886479
 20
252.625738
 30
0.0
 10
129.949379
 20
252.314341
 30
0.0
 10
129.949379
 20
250.089341
 30
0.0
 10
129.949379
 20
247.864341
 30
0.0
 10
129.949379
 20
245.639341
 30
0.0
 10
129.949379
 20
243.414341
 30
0.0
 10
129.886479
 20
243.102944
 30
0.0
 10
129.715039
 20
242.848655
 30
0.0
 10
129.460749
 20
242.677209
 30
0.0
 10
129.149359
 20
242.614339
 30
0.0
 10
127.949359
 20
242.614339
 30
0.0
 10
126.749359
 20
242.614339
 30
0.0
 10
125.549359
 20
242.614339
 30
0.0
 10
124.349359
 20
242.614339
 30
0.0
 10
124.037959
 20
242.551469
 30
0.0
 10
123.783669
 20
242.380023
 30
0.0
 10
123.612229
 20
242.125734
 30
0.0
 10
123.549329
 20
241.814337
 30
0.0
 10
123.549329
 20
241.814337
 30
0.0
 10
123.549329
 20
241.814337
 30
0.0
 10
123.549329
 20
241.814337
 30
0.0
 10
123.549329
 20
241.814337
 30
0.0
 10
123.549329
 20
241.468336
 30
0.0
 10
123.549329
 20
241.122334
 30
0.0
 10
123.549329
 20
240.776333
 30
0.0
 10
123.549329
 20
240.430332
 30
0.0
 10
123.549329
 20
240.430332
 30
0.0
 10
123.549329
 20
240.430332
 30
0.0
 10
123.549329
 20
240.430332
 30
0.0
 10
123.549329
 20
240.430332
 30
0.0
 10
123.612229
 20
240.118935
 30
0.0
 10
123.783669
 20
239.864646
 30
0.0
 10
124.037959
 20
239.693200
 30
0.0
 10
124.349359
 20
239.630330
 30
0.0
 10
125.549359
 20
239.630330
 30
0.0
 10
126.749359
 20
239.630330
 30
0.0
 10
127.949359
 20
239.630330
 30
0.0
 10
129.149359
 20
239.630330
 30
0.0
 10
129.460749
 20
239.567460
 30
0.0
 10
129.715039
 20
239.396014
 30
0.0
 10
129.886479
 20
239.141725
 30
0.0
 10
129.949379
 20
238.830328
 30
0.0
 10
129.949379
 20
236.605330
 30
0.0
 10
129.949379
 20
234.380333
 30
0.0
 10
129.949379
 20
232.155335
 30
0.0
 10
129.949379
 20
229.930338
 30
0.0
 10
129.886479
 20
229.618939
 30
0.0
 10
129.715039
 20
229.364647
 30
0.0
 10
129.460749
 20
229.193197
 30
0.0
 10
129.149359
 20
229.130327
 30
0.0
 10
127.949359
 20
229.130327
 30
0.0
 10
126.749359
 20
229.130327
 30
0.0
 10
125.549359
 20
229.130327
 30
0.0
 10
124.349359
 20
229.130327
 30
0.0
 10
124.037959
 20
229.067457
 30
0.0
 10
123.783669
 20
228.896011
 30
0.0
 10
123.612229
 20
228.641722
 30
0.0
 10
123.549329
 20
228.330325
 30
0.0
 10
123.549329
 20
228.320625
 30
0.0
 10
123.549329
 20
228.310825
 30
0.0
 10
123.549319
 20
228.301125
 30
0.0
 10
123.549319
 20
228.291425
 30
0.0
 10
123.486419
 20
227.980028
 30
0.0
 10
123.314969
 20
227.725739
 30
0.0
 10
123.060689
 20
227.554293
 30
0.0
 10
122.749299
 20
227.491423
 30
0.0
 10
116.116289
 20
227.491423
 30
0.0
 10
109.483289
 20
227.491423
 30
0.0
 10
102.850279
 20
227.491423
 30
0.0
  0
ENDSEC
  0
SECTION
  2
OBJECTS
  0
DICTIONARY
  5
C
330
0
100
AcDbDictionary
  3
ACAD_GROUP
350
D
  3
ACAD_MLINESTYLE
350
17
  0
DICTIONARY
  5
D
330
C
100
AcDbDictionary
  0
DICTIONARY
  5
1A
330
C
100
AcDbDictionary
  0
DICTIONARY
  5
17
330
C
100
AcDbDictionary
  3
STANDARD
350
18
  0
DICTIONARY
  5
19
330
C
100
AcDbDictionary
  0
ENDSEC
  0
EOF
