<?xml version="1.0" encoding="UTF-8" standalone="no"?>
<!-- Created with Inkscape (http://www.inkscape.org/) -->

<svg
   xmlns:dc="http://purl.org/dc/elements/1.1/"
   xmlns:cc="http://creativecommons.org/ns#"
   xmlns:rdf="http://www.w3.org/1999/02/22-rdf-syntax-ns#"
   xmlns:svg="http://www.w3.org/2000/svg"
   xmlns="http://www.w3.org/2000/svg"
   xmlns:sodipodi="http://sodipodi.sourceforge.net/DTD/sodipodi-0.dtd"
   xmlns:inkscape="http://www.inkscape.org/namespaces/inkscape"
   width="744.09448819"
   height="1052.3622047"
   id="svg7380"
   version="1.1"
   inkscape:version="0.48.4 r9939"
   sodipodi:docname="New document 13">
  <defs
     id="defs7382" />
  <sodipodi:namedview
     id="base"
     pagecolor="#ffffff"
     bordercolor="#666666"
     borderopacity="1.0"
     inkscape:pageopacity="0.0"
     inkscape:pageshadow="2"
     inkscape:zoom="2.8"
     inkscape:cx="346.29483"
     inkscape:cy="807.18"
     inkscape:document-units="px"
     inkscape:current-layer="layer1"
     showgrid="false"
     inkscape:window-width="1855"
     inkscape:window-height="1056"
     inkscape:window-x="65"
     inkscape:window-y="24"
     inkscape:window-maximized="1" />
  <metadata
     id="metadata7385">
    <rdf:RDF>
      <cc:Work
         rdf:about="">
        <dc:format>image/svg+xml</dc:format>
        <dc:type
           rdf:resource="http://purl.org/dc/dcmitype/StillImage" />
        <dc:title></dc:title>
      </cc:Work>
    </rdf:RDF>
  </metadata>
  <g
     inkscape:label="Layer 1"
     inkscape:groupmode="layer"
     id="layer1">
    <g
       transform="matrix(0.00899999,0,0,0.00899999,17.598055,-108.66633)"
       style="fill:none;stroke:#000000;stroke-width:3.93701215000000015;stroke-linecap:round;stroke-linejoin:round;stroke-miterlimit:4;stroke-opacity:1;stroke-dasharray:none"
       id="g6120">
      <circle
         sodipodi:ry="1377.95"
         sodipodi:rx="1377.95"
         sodipodi:cy="29330.699"
         sodipodi:cx="56692.898"
         d="m 58070.848,29330.699 c 0,761.021 -616.929,1377.95 -1377.95,1377.95 -761.02,0 -1377.95,-616.929 -1377.95,-1377.95 0,-761.021 616.93,-1377.95 1377.95,-1377.95 761.021,0 1377.95,616.929 1377.95,1377.95 z"
         cx="56692.898"
         cy="29330.699"
         r="1377.95"
         id="circle6122"
         style="fill:none;stroke-width:3.93701215000000015;stroke-miterlimit:4;stroke-dasharray:none;stroke:#000000;stroke-opacity:1" />
    </g>
    <g
       transform="matrix(0.00899999,0,0,0.00899999,17.598055,-108.66633)"
       style="fill:none;stroke:#000000;stroke-width:3.93701215000000015;stroke-linecap:round;stroke-linejoin:round;stroke-miterlimit:4;stroke-opacity:1;stroke-dasharray:none"
       id="g6126">
      <circle
         sodipodi:ry="1377.95"
         sodipodi:rx="1377.95"
         sodipodi:cy="29330.699"
         sodipodi:cx="22047.199"
         d="m 23425.149,29330.699 c 0,761.021 -616.929,1377.95 -1377.95,1377.95 -761.021,0 -1377.95,-616.929 -1377.95,-1377.95 0,-761.021 616.929,-1377.95 1377.95,-1377.95 761.021,0 1377.95,616.929 1377.95,1377.95 z"
         cx="22047.199"
         cy="29330.699"
         r="1377.95"
         id="circle6128"
         style="fill:none;stroke-width:3.93701215000000015;stroke-miterlimit:4;stroke-dasharray:none;stroke:#000000;stroke-opacity:1" />
    </g>
    <g
       transform="matrix(0.00899999,0,0,0.00899999,17.598055,-108.66633)"
       style="fill:none;stroke:#000000;stroke-width:3.93701215000000015;stroke-linecap:round;stroke-linejoin:round;stroke-miterlimit:4;stroke-opacity:1;stroke-dasharray:none"
       id="g6132">
      <circle
         sodipodi:ry="1377.95"
         sodipodi:rx="1377.95"
         sodipodi:cy="49409.398"
         sodipodi:cx="22047.199"
         d="m 23425.149,49409.398 c 0,761.021 -616.929,1377.95 -1377.95,1377.95 -761.021,0 -1377.95,-616.929 -1377.95,-1377.95 0,-761.02 616.929,-1377.95 1377.95,-1377.95 761.021,0 1377.95,616.93 1377.95,1377.95 z"
         cx="22047.199"
         cy="49409.398"
         r="1377.95"
         id="circle6134"
         style="fill:none;stroke-width:3.93701215000000015;stroke-miterlimit:4;stroke-dasharray:none;stroke:#000000;stroke-opacity:1" />
    </g>
    <g
       transform="matrix(0.00899999,0,0,0.00899999,17.598055,-108.66633)"
       style="fill:none;stroke:#000000;stroke-width:3.93701215000000015;stroke-linecap:round;stroke-linejoin:round;stroke-miterlimit:4;stroke-opacity:1;stroke-dasharray:none"
       id="g6138">
      <circle
         sodipodi:ry="1377.95"
         sodipodi:rx="1377.95"
         sodipodi:cy="49409.398"
         sodipodi:cx="56692.898"
         d="m 58070.848,49409.398 c 0,761.021 -616.929,1377.95 -1377.95,1377.95 -761.02,0 -1377.95,-616.929 -1377.95,-1377.95 0,-761.02 616.93,-1377.95 1377.95,-1377.95 761.021,0 1377.95,616.93 1377.95,1377.95 z"
         cx="56692.898"
         cy="49409.398"
         r="1377.95"
         id="circle6140"
         style="fill:none;stroke-width:3.93701215000000015;stroke-miterlimit:4;stroke-dasharray:none;stroke:#000000;stroke-opacity:1" />
    </g>
    <g
       transform="matrix(0.00899999,0,0,0.00899999,17.598055,-108.66633)"
       style="fill:none;stroke:#000000;stroke-width:3.93701215000000015;stroke-linecap:round;stroke-linejoin:round;stroke-miterlimit:4;stroke-opacity:1;stroke-dasharray:none"
       id="g6148">
      <circle
         sodipodi:ry="649.60602"
         sodipodi:rx="649.60602"
         sodipodi:cy="29330.699"
         sodipodi:cx="56692.898"
         d="m 57342.504,29330.699 c 0,358.768 -290.838,649.606 -649.606,649.606 -358.767,0 -649.606,-290.838 -649.606,-649.606 0,-358.767 290.839,-649.606 649.606,-649.606 358.768,0 649.606,290.839 649.606,649.606 z"
         cx="56692.898"
         cy="29330.699"
         r="649.60602"
         id="circle6150"
         style="fill:none;stroke-width:3.93701215000000015;stroke-miterlimit:4;stroke-dasharray:none;stroke:#000000;stroke-opacity:1" />
    </g>
    <g
       transform="matrix(0.00899999,0,0,0.00899999,17.598055,-108.66633)"
       style="fill:none;stroke:#000000;stroke-width:3.93701215000000015;stroke-linecap:round;stroke-linejoin:round;stroke-miterlimit:4;stroke-opacity:1;stroke-dasharray:none"
       id="g6154">
      <circle
         sodipodi:ry="649.60602"
         sodipodi:rx="649.60602"
         sodipodi:cy="29330.699"
         sodipodi:cx="22047.199"
         d="m 22696.805,29330.699 c 0,358.768 -290.838,649.606 -649.606,649.606 -358.767,0 -649.606,-290.838 -649.606,-649.606 0,-358.767 290.839,-649.606 649.606,-649.606 358.768,0 649.606,290.839 649.606,649.606 z"
         cx="22047.199"
         cy="29330.699"
         r="649.60602"
         id="circle6156"
         style="fill:none;stroke-width:3.93701215000000015;stroke-miterlimit:4;stroke-dasharray:none;stroke:#000000;stroke-opacity:1" />
    </g>
    <g
       transform="matrix(0.00899999,0,0,0.00899999,17.598055,-108.66633)"
       style="fill:none;stroke:#000000;stroke-width:3.93701215000000015;stroke-linecap:round;stroke-linejoin:round;stroke-miterlimit:4;stroke-opacity:1;stroke-dasharray:none"
       id="g6160">
      <circle
         sodipodi:ry="649.60602"
         sodipodi:rx="649.60602"
         sodipodi:cy="49409.398"
         sodipodi:cx="22047.199"
         d="m 22696.805,49409.398 c 0,358.768 -290.838,649.606 -649.606,649.606 -358.767,0 -649.606,-290.838 -649.606,-649.606 0,-358.767 290.839,-649.606 649.606,-649.606 358.768,0 649.606,290.839 649.606,649.606 z"
         cx="22047.199"
         cy="49409.398"
         r="649.60602"
         id="circle6162"
         style="fill:none;stroke-width:3.93701215000000015;stroke-miterlimit:4;stroke-dasharray:none;stroke:#000000;stroke-opacity:1" />
    </g>
    <g
       transform="matrix(0.00899999,0,0,0.00899999,17.598055,-108.66633)"
       style="fill:none;stroke:#000000;stroke-width:3.93701215000000015;stroke-linecap:round;stroke-linejoin:round;stroke-miterlimit:4;stroke-opacity:1;stroke-dasharray:none"
       id="g6166">
      <circle
         sodipodi:ry="649.60602"
         sodipodi:rx="649.60602"
         sodipodi:cy="49409.398"
         sodipodi:cx="56692.898"
         d="m 57342.504,49409.398 c 0,358.768 -290.838,649.606 -649.606,649.606 -358.767,0 -649.606,-290.838 -649.606,-649.606 0,-358.767 290.839,-649.606 649.606,-649.606 358.768,0 649.606,290.839 649.606,649.606 z"
         cx="56692.898"
         cy="49409.398"
         r="649.60602"
         id="circle6168"
         style="fill:none;stroke-width:3.93701215000000015;stroke-miterlimit:4;stroke-dasharray:none;stroke:#000000;stroke-opacity:1" />
    </g>
    <g
       transform="matrix(0.00899999,0,0,0.00899999,17.598055,-108.66633)"
       style="fill:none;stroke:#000000;stroke-width:3.93701215000000015;stroke-linecap:round;stroke-linejoin:round;stroke-miterlimit:4;stroke-opacity:1;stroke-dasharray:none"
       id="g6204">
      <polyline
         style="fill:none;stroke-width:3.93701215000000015;stroke-miterlimit:4;stroke-dasharray:none;stroke:#000000;stroke-opacity:1"
         points="53444,31702 53444,30521 54625,30521 54625,31702 53444,31702 "
         id="polyline6206" />
    </g>
    <g
       transform="matrix(0.00899999,0,0,0.00899999,17.598055,-108.66633)"
       style="fill:none;stroke:#000000;stroke-width:3.93701215000000015;stroke-linecap:round;stroke-linejoin:round;stroke-miterlimit:4;stroke-opacity:1;stroke-dasharray:none"
       id="g6210">
      <path
         inkscape:connector-curvature="0"
         d="m 52161,32472 1370,-1370"
         id="path6212"
         style="fill:none;stroke-width:3.93701215000000015;stroke-miterlimit:4;stroke-dasharray:none;stroke:#000000;stroke-opacity:1" />
      <path
         inkscape:connector-curvature="0"
         d="m 53531,31102 1390,0"
         id="path6214"
         style="fill:none;stroke-width:3.93701215000000015;stroke-miterlimit:4;stroke-dasharray:none;stroke:#000000;stroke-opacity:1" />
      <path
         inkscape:connector-curvature="0"
         d="m 54921,31102 1771,-1772"
         id="path6216"
         style="fill:none;stroke-width:3.93701215000000015;stroke-miterlimit:4;stroke-dasharray:none;stroke:#000000;stroke-opacity:1" />
    </g>
    <g
       transform="matrix(0.00899999,0,0,0.00899999,17.598055,-108.66633)"
       style="fill:none;stroke:#000000;stroke-width:3.93701215000000015;stroke-linecap:round;stroke-linejoin:round;stroke-miterlimit:4;stroke-opacity:1;stroke-dasharray:none"
       id="g6222">
      <polyline
         style="fill:none;stroke-width:3.93701215000000015;stroke-miterlimit:4;stroke-dasharray:none;stroke:#000000;stroke-opacity:1"
         points="42185,30743 42556,30833 42967,30998 43268,31173 43604,31439 43890,31749 43992,31878 43998,31883 44007,31885 51651,31897 51962,31951 52268,32106 52449,32276 52604,32493 52721,32781 52755,32954 52755,45684 52740,45874 52666,46118 52573,46292 52391,46525 52245,46640 52015,46765 51787,46834 51632,46850 44000,46850 43992,46851 43984,46857 43670,47249 43362,47499 42924,47757 42486,47937 41958,48031 41570,48035 36973,48031 36597,48000 36171,47898 35733,47718 35358,47487 35014,47190 34795,46929 34753,46859 34747,46854 34740,46850 34736,46850 27197,46850 26882,46819 26635,46738 26344,46528 26146,46288 26022,45990 25972,45734 25980,41126 25980,33070 26574,33070 26574,45669 26578,45688 26578,45707 26608,45858 26637,45929 26723,46057 26777,46111 26905,46196 26976,46226 27126,46256 27146,46256 27165,46259 35075,46259 35132,46358 35141,46368 35146,46379 35459,46787 35483,46808 35506,46831 36145,47257 36216,47287 36969,47437 36988,47437 37007,47440 41732,47440 41745,47438 41757,47439 42267,47372 42297,47361 42328,47353 43017,47013 43017,47013 43078,46967 43585,46389 43594,46372 43607,46358 43664,46259 51574,46259 51593,46256 51613,46256 51763,46226 51834,46196 51962,46111 52016,46057 52102,45929 52131,45858 52161,45707 52161,45688 52165,45669 52165,33070 52161,33051 52161,33032 52131,32881 52102,32810 52016,32683 51962,32628 51834,32543 51763,32514 51613,32484 51593,32484 51574,32480 43664,32480 43607,32381 43598,32372 43593,32360 43280,31952 43256,31931 43233,31908 42594,31482 42524,31452 41770,31302 41751,31302 41732,31299 37007,31299 36995,31301 36982,31300 36472,31367 36442,31378 36411,31386 35722,31726 35722,31726 35661,31773 35155,32350 35145,32367 35132,32381 35075,32480 27165,32480 27146,32484 27126,32484 26976,32514 26905,32543 26777,32628 26723,32683 26637,32810 26608,32881 26578,33032 26578,33051 26574,33070 25980,33070 25980,32993 26011,32808 26108,32536 26228,32346 26398,32172 26580,32044 26836,31936 27061,31889 34740,31877 34747,31876 34755,31871 35002,31580 35307,31291 35729,31025 36077,30865 36546,30747 36949,30704 41751,30704 42185,30743 "
         id="polyline6224" />
    </g>
    <g
       transform="matrix(0.00899999,0,0,0.00899999,17.598055,-108.66633)"
       style="fill:none;stroke:#000000;stroke-width:3.93701215000000015;stroke-linecap:round;stroke-linejoin:round;stroke-miterlimit:4;stroke-opacity:1;stroke-dasharray:none"
       id="g6266">
      <path
         inkscape:connector-curvature="0"
         d="m 47155,50944 -37,-18 -56,0 -57,18 -37,38 -19,37 -18,75 0,57 18,75 19,37 37,38 57,18 37,0 56,-18 19,-19 0,-131 -75,0"
         id="path6268"
         style="fill:none;stroke-width:3.93701215000000015;stroke-miterlimit:4;stroke-dasharray:none;stroke:#000000;stroke-opacity:1" />
      <path
         inkscape:connector-curvature="0"
         d="m 47324,51207 188,0"
         id="path6270"
         style="fill:none;stroke-width:3.93701215000000015;stroke-miterlimit:4;stroke-dasharray:none;stroke:#000000;stroke-opacity:1" />
      <path
         inkscape:connector-curvature="0"
         d="m 47287,51319 131,-393 131,393"
         id="path6272"
         style="fill:none;stroke-width:3.93701215000000015;stroke-miterlimit:4;stroke-dasharray:none;stroke:#000000;stroke-opacity:1" />
      <path
         inkscape:connector-curvature="0"
         d="m 47680,50926 0,318 19,38 19,19 37,18 75,0 38,-18 19,-19 18,-38 0,-318"
         id="path6274"
         style="fill:none;stroke-width:3.93701215000000015;stroke-miterlimit:4;stroke-dasharray:none;stroke:#000000;stroke-opacity:1" />
      <path
         inkscape:connector-curvature="0"
         d="m 48093,51319 0,-393 94,0 56,18 37,38 19,37 19,75 0,57 -19,75 -19,37 -37,38 -56,18 -94,0"
         id="path6276"
         style="fill:none;stroke-width:3.93701215000000015;stroke-miterlimit:4;stroke-dasharray:none;stroke:#000000;stroke-opacity:1" />
      <path
         inkscape:connector-curvature="0"
         d="m 48487,51319 0,-393"
         id="path6278"
         style="fill:none;stroke-width:3.93701215000000015;stroke-miterlimit:4;stroke-dasharray:none;stroke:#000000;stroke-opacity:1" />
      <path
         inkscape:connector-curvature="0"
         d="m 48862,51319 -188,0 0,-393"
         id="path6280"
         style="fill:none;stroke-width:3.93701215000000015;stroke-miterlimit:4;stroke-dasharray:none;stroke:#000000;stroke-opacity:1" />
      <path
         inkscape:connector-curvature="0"
         d="m 48974,51207 187,0"
         id="path6282"
         style="fill:none;stroke-width:3.93701215000000015;stroke-miterlimit:4;stroke-dasharray:none;stroke:#000000;stroke-opacity:1" />
      <path
         inkscape:connector-curvature="0"
         d="m 48937,51319 131,-393 131,393"
         id="path6284"
         style="fill:none;stroke-width:3.93701215000000015;stroke-miterlimit:4;stroke-dasharray:none;stroke:#000000;stroke-opacity:1" />
      <path
         inkscape:connector-curvature="0"
         d="m 49461,51113 57,19 18,19 19,37 0,56 -19,38 -18,19 -38,18 -150,0 0,-393 131,0 38,18 19,19 18,38 0,37 -18,38 -19,18 -38,19 -131,0"
         id="path6286"
         style="fill:none;stroke-width:3.93701215000000015;stroke-miterlimit:4;stroke-dasharray:none;stroke:#000000;stroke-opacity:1" />
      <path
         inkscape:connector-curvature="0"
         d="m 49705,51301 56,18 94,0 38,-18 18,-19 19,-38 0,-37 -19,-38 -18,-18 -38,-19 -75,-19 -37,-19 -19,-18 -19,-38 0,-37 19,-38 19,-19 37,-18 94,0 56,18"
         id="path6288"
         style="fill:none;stroke-width:3.93701215000000015;stroke-miterlimit:4;stroke-dasharray:none;stroke:#000000;stroke-opacity:1" />
      <path
         inkscape:connector-curvature="0"
         d="m 50380,50963 19,-19 37,-18 94,0 38,18 18,19 19,38 0,37 -19,56 -225,225 244,0"
         id="path6290"
         style="fill:none;stroke-width:3.93701215000000015;stroke-miterlimit:4;stroke-dasharray:none;stroke:#000000;stroke-opacity:1" />
      <path
         inkscape:connector-curvature="0"
         d="m 50849,50926 37,0 38,18 19,19 18,38 19,75 0,93 -19,75 -18,38 -19,19 -38,18 -37,0 -38,-18 -18,-19 -19,-38 -19,-75 0,-93 19,-75 19,-38 18,-19 38,-18"
         id="path6292"
         style="fill:none;stroke-width:3.93701215000000015;stroke-miterlimit:4;stroke-dasharray:none;stroke:#000000;stroke-opacity:1" />
      <path
         inkscape:connector-curvature="0"
         d="m 51355,51319 -225,0"
         id="path6294"
         style="fill:none;stroke-width:3.93701215000000015;stroke-miterlimit:4;stroke-dasharray:none;stroke:#000000;stroke-opacity:1" />
      <path
         inkscape:connector-curvature="0"
         d="m 51242,51319 0,-393 -37,56 -38,37 -37,19"
         id="path6296"
         style="fill:none;stroke-width:3.93701215000000015;stroke-miterlimit:4;stroke-dasharray:none;stroke:#000000;stroke-opacity:1" />
      <path
         inkscape:connector-curvature="0"
         d="m 51692,50926 -75,0 -37,18 -19,19 -37,56 -19,75 0,150 19,38 18,19 38,18 75,0 37,-18 19,-19 19,-38 0,-93 -19,-38 -19,-19 -37,-18 -75,0 -38,18 -18,19 -19,38"
         id="path6298"
         style="fill:none;stroke-width:3.93701215000000015;stroke-miterlimit:4;stroke-dasharray:none;stroke:#000000;stroke-opacity:1" />
    </g>
    <g
       transform="matrix(0.00899999,0,0,0.00899999,17.598055,-108.66633)"
       style="fill:none;stroke:#000000;stroke-width:3.93701215000000015;stroke-linecap:round;stroke-linejoin:round;stroke-miterlimit:4;stroke-opacity:1;stroke-dasharray:none"
       id="g6300">
      <path
         inkscape:connector-curvature="0"
         d="m 54822,30523 0,1181"
         id="path6302"
         style="fill:none;stroke-width:3.93701215000000015;stroke-miterlimit:4;stroke-dasharray:none;stroke:#000000;stroke-opacity:1" />
      <path
         inkscape:connector-curvature="0"
         d="m 53444,31901 1181,0"
         id="path6304"
         style="fill:none;stroke-width:3.93701215000000015;stroke-miterlimit:4;stroke-dasharray:none;stroke:#000000;stroke-opacity:1" />
      <path
         inkscape:connector-curvature="0"
         d="m 53247,30523 0,1181"
         id="path6306"
         style="fill:none;stroke-width:3.93701215000000015;stroke-miterlimit:4;stroke-dasharray:none;stroke:#000000;stroke-opacity:1" />
      <path
         inkscape:connector-curvature="0"
         d="m 53444,30326 1181,0"
         id="path6308"
         style="fill:none;stroke-width:3.93701215000000015;stroke-miterlimit:4;stroke-dasharray:none;stroke:#000000;stroke-opacity:1" />
      <path
         inkscape:connector-curvature="0"
         d="m 57874,42913 0,2756"
         id="path6310"
         style="fill:none;stroke-width:3.93701215000000015;stroke-miterlimit:4;stroke-dasharray:none;stroke:#000000;stroke-opacity:1" />
      <path
         inkscape:connector-curvature="0"
         d="m 54133,45866 3544,0"
         id="path6312"
         style="fill:none;stroke-width:3.93701215000000015;stroke-miterlimit:4;stroke-dasharray:none;stroke:#000000;stroke-opacity:1" />
      <path
         inkscape:connector-curvature="0"
         d="m 53937,42913 0,2756"
         id="path6314"
         style="fill:none;stroke-width:3.93701215000000015;stroke-miterlimit:4;stroke-dasharray:none;stroke:#000000;stroke-opacity:1" />
      <path
         inkscape:connector-curvature="0"
         d="m 54133,42716 3544,0"
         id="path6316"
         style="fill:none;stroke-width:3.93701215000000015;stroke-miterlimit:4;stroke-dasharray:none;stroke:#000000;stroke-opacity:1" />
      <path
         inkscape:connector-curvature="0"
         d="m 53740,42913 0,2756"
         id="path6318"
         style="fill:none;stroke-width:3.93701215000000015;stroke-miterlimit:4;stroke-dasharray:none;stroke:#000000;stroke-opacity:1" />
      <path
         inkscape:connector-curvature="0"
         d="m 56692,47834 1969,0"
         id="path6320"
         style="fill:none;stroke-width:3.93701215000000015;stroke-miterlimit:4;stroke-dasharray:none;stroke:#000000;stroke-opacity:1" />
      <path
         inkscape:connector-curvature="0"
         d="m 55118,49409 0,1772"
         id="path6322"
         style="fill:none;stroke-width:3.93701215000000015;stroke-miterlimit:4;stroke-dasharray:none;stroke:#000000;stroke-opacity:1" />
      <path
         inkscape:connector-curvature="0"
         d="m 23622,49409 0,1772"
         id="path6324"
         style="fill:none;stroke-width:3.93701215000000015;stroke-miterlimit:4;stroke-dasharray:none;stroke:#000000;stroke-opacity:1" />
      <path
         inkscape:connector-curvature="0"
         d="m 22047,47834 -1969,0"
         id="path6326"
         style="fill:none;stroke-width:3.93701215000000015;stroke-miterlimit:4;stroke-dasharray:none;stroke:#000000;stroke-opacity:1" />
      <path
         inkscape:connector-curvature="0"
         d="m 55118,29330 0,-1771"
         id="path6328"
         style="fill:none;stroke-width:3.93701215000000015;stroke-miterlimit:4;stroke-dasharray:none;stroke:#000000;stroke-opacity:1" />
      <path
         inkscape:connector-curvature="0"
         d="m 56692,30905 1969,0"
         id="path6330"
         style="fill:none;stroke-width:3.93701215000000015;stroke-miterlimit:4;stroke-dasharray:none;stroke:#000000;stroke-opacity:1" />
      <path
         inkscape:connector-curvature="0"
         d="m 27165,31496 7384,0"
         id="path6332"
         style="fill:none;stroke-width:3.93701215000000015;stroke-miterlimit:4;stroke-dasharray:none;stroke:#000000;stroke-opacity:1" />
      <path
         inkscape:connector-curvature="0"
         d="m 37007,30314 4725,0"
         id="path6334"
         style="fill:none;stroke-width:3.93701215000000015;stroke-miterlimit:4;stroke-dasharray:none;stroke:#000000;stroke-opacity:1" />
      <path
         inkscape:connector-curvature="0"
         d="m 51574,31496 -7384,0"
         id="path6336"
         style="fill:none;stroke-width:3.93701215000000015;stroke-miterlimit:4;stroke-dasharray:none;stroke:#000000;stroke-opacity:1" />
      <path
         inkscape:connector-curvature="0"
         d="m 53149,33070 0,12599"
         id="path6338"
         style="fill:none;stroke-width:3.93701215000000015;stroke-miterlimit:4;stroke-dasharray:none;stroke:#000000;stroke-opacity:1" />
      <path
         inkscape:connector-curvature="0"
         d="m 51574,47244 -7384,0"
         id="path6340"
         style="fill:none;stroke-width:3.93701215000000015;stroke-miterlimit:4;stroke-dasharray:none;stroke:#000000;stroke-opacity:1" />
      <path
         inkscape:connector-curvature="0"
         d="m 54133,46062 3544,0"
         id="path6342"
         style="fill:none;stroke-width:3.93701215000000015;stroke-miterlimit:4;stroke-dasharray:none;stroke:#000000;stroke-opacity:1" />
      <path
         inkscape:connector-curvature="0"
         d="m 58070,42913 0,2756"
         id="path6344"
         style="fill:none;stroke-width:3.93701215000000015;stroke-miterlimit:4;stroke-dasharray:none;stroke:#000000;stroke-opacity:1" />
      <path
         inkscape:connector-curvature="0"
         d="m 37007,48425 4725,0"
         id="path6346"
         style="fill:none;stroke-width:3.93701215000000015;stroke-miterlimit:4;stroke-dasharray:none;stroke:#000000;stroke-opacity:1" />
      <path
         inkscape:connector-curvature="0"
         d="m 27165,47244 7384,0"
         id="path6348"
         style="fill:none;stroke-width:3.93701215000000015;stroke-miterlimit:4;stroke-dasharray:none;stroke:#000000;stroke-opacity:1" />
      <path
         inkscape:connector-curvature="0"
         d="m 25590,33070 0,12599"
         id="path6350"
         style="fill:none;stroke-width:3.93701215000000015;stroke-miterlimit:4;stroke-dasharray:none;stroke:#000000;stroke-opacity:1" />
      <path
         inkscape:connector-curvature="0"
         d="m 22047,30905 -1969,0"
         id="path6352"
         style="fill:none;stroke-width:3.93701215000000015;stroke-miterlimit:4;stroke-dasharray:none;stroke:#000000;stroke-opacity:1" />
      <path
         inkscape:connector-curvature="0"
         d="m 25990,28099 24,28"
         id="path6354"
         style="fill:none;stroke-width:3.93701215000000015;stroke-miterlimit:4;stroke-dasharray:none;stroke:#000000;stroke-opacity:1" />
      <path
         inkscape:connector-curvature="0"
         d="m 23622,27559 1181,0"
         id="path6356"
         style="fill:none;stroke-width:3.93701215000000015;stroke-miterlimit:4;stroke-dasharray:none;stroke:#000000;stroke-opacity:1" />
      <path
         inkscape:connector-curvature="0"
         d="m 20078,30905 0,16929"
         id="path6358"
         style="fill:none;stroke-width:3.93701215000000015;stroke-miterlimit:4;stroke-dasharray:none;stroke:#000000;stroke-opacity:1" />
      <path
         inkscape:connector-curvature="0"
         d="m 23622,51181 1181,0"
         id="path6360"
         style="fill:none;stroke-width:3.93701215000000015;stroke-miterlimit:4;stroke-dasharray:none;stroke:#000000;stroke-opacity:1" />
      <path
         inkscape:connector-curvature="0"
         d="m 26014,50613 -24,28"
         id="path6362"
         style="fill:none;stroke-width:3.93701215000000015;stroke-miterlimit:4;stroke-dasharray:none;stroke:#000000;stroke-opacity:1" />
      <path
         inkscape:connector-curvature="0"
         d="m 27795,49803 23149,0"
         id="path6364"
         style="fill:none;stroke-width:3.93701215000000015;stroke-miterlimit:4;stroke-dasharray:none;stroke:#000000;stroke-opacity:1" />
      <path
         inkscape:connector-curvature="0"
         d="m 52725,50613 24,28"
         id="path6366"
         style="fill:none;stroke-width:3.93701215000000015;stroke-miterlimit:4;stroke-dasharray:none;stroke:#000000;stroke-opacity:1" />
      <path
         inkscape:connector-curvature="0"
         d="m 55118,51181 -1181,0"
         id="path6368"
         style="fill:none;stroke-width:3.93701215000000015;stroke-miterlimit:4;stroke-dasharray:none;stroke:#000000;stroke-opacity:1" />
      <path
         inkscape:connector-curvature="0"
         d="m 58661,30905 0,16929"
         id="path6370"
         style="fill:none;stroke-width:3.93701215000000015;stroke-miterlimit:4;stroke-dasharray:none;stroke:#000000;stroke-opacity:1" />
      <path
         inkscape:connector-curvature="0"
         d="m 55118,27559 -1181,0"
         id="path6372"
         style="fill:none;stroke-width:3.93701215000000015;stroke-miterlimit:4;stroke-dasharray:none;stroke:#000000;stroke-opacity:1" />
      <path
         inkscape:connector-curvature="0"
         d="m 52749,28099 -24,28"
         id="path6374"
         style="fill:none;stroke-width:3.93701215000000015;stroke-miterlimit:4;stroke-dasharray:none;stroke:#000000;stroke-opacity:1" />
      <path
         inkscape:connector-curvature="0"
         d="m 23622,29330 0,-1771"
         id="path6376"
         style="fill:none;stroke-width:3.93701215000000015;stroke-miterlimit:4;stroke-dasharray:none;stroke:#000000;stroke-opacity:1" />
      <path
         inkscape:connector-curvature="0"
         d="m 27795,28937 23149,0"
         id="path6378"
         style="fill:none;stroke-width:3.93701215000000015;stroke-miterlimit:4;stroke-dasharray:none;stroke:#000000;stroke-opacity:1" />
      <path
         inkscape:connector-curvature="0"
         d="m 54133,42519 3544,0"
         id="path6380"
         style="fill:none;stroke-width:3.93701215000000015;stroke-miterlimit:4;stroke-dasharray:none;stroke:#000000;stroke-opacity:1" />
      <path
         inkscape:connector-curvature="0"
         d="m 54822.4,30523.5 a 196.85,196.85 0 0 0 -196.9,-196.9"
         id="path6382"
         style="fill:none;stroke-width:3.93701215000000015;stroke-miterlimit:4;stroke-dasharray:none;stroke:#000000;stroke-opacity:1" />
      <path
         inkscape:connector-curvature="0"
         d="m 53247.6,31704.6 a 196.85,196.85 0 0 0 196.8,196.8"
         id="path6384"
         style="fill:none;stroke-width:3.93701215000000015;stroke-miterlimit:4;stroke-dasharray:none;stroke:#000000;stroke-opacity:1" />
      <path
         inkscape:connector-curvature="0"
         d="m 53444.4,30326.6 a 196.85,196.85 0 0 0 -196.8,196.9"
         id="path6386"
         style="fill:none;stroke-width:3.93701215000000015;stroke-miterlimit:4;stroke-dasharray:none;stroke:#000000;stroke-opacity:1" />
      <path
         inkscape:connector-curvature="0"
         d="m 54625.5,31901.4 a 196.85,196.85 0 0 0 196.9,-196.8"
         id="path6388"
         style="fill:none;stroke-width:3.93701215000000015;stroke-miterlimit:4;stroke-dasharray:none;stroke:#000000;stroke-opacity:1" />
      <path
         inkscape:connector-curvature="0"
         d="m 57677.2,45866.1 a 196.85,196.85 0 0 0 196.8,-196.8"
         id="path6390"
         style="fill:none;stroke-width:3.93701215000000015;stroke-miterlimit:4;stroke-dasharray:none;stroke:#000000;stroke-opacity:1" />
      <path
         inkscape:connector-curvature="0"
         d="m 57874,42913.4 a 196.85,196.85 0 0 0 -196.8,-196.9"
         id="path6392"
         style="fill:none;stroke-width:3.93701215000000015;stroke-miterlimit:4;stroke-dasharray:none;stroke:#000000;stroke-opacity:1" />
      <path
         inkscape:connector-curvature="0"
         d="m 54133.9,42716.5 a 196.85,196.85 0 0 0 -196.9,196.9"
         id="path6394"
         style="fill:none;stroke-width:3.93701215000000015;stroke-miterlimit:4;stroke-dasharray:none;stroke:#000000;stroke-opacity:1" />
      <path
         inkscape:connector-curvature="0"
         d="m 53937,45669.3 a 196.85,196.85 0 0 0 196.9,196.8"
         id="path6396"
         style="fill:none;stroke-width:3.93701215000000015;stroke-miterlimit:4;stroke-dasharray:none;stroke:#000000;stroke-opacity:1" />
      <path
         inkscape:connector-curvature="0"
         d="m 56692.9,47834.6 a 1574.8,1574.8 0 0 0 -1574.8,1574.8"
         id="path6398"
         style="fill:none;stroke-width:3.93701215000000015;stroke-miterlimit:4;stroke-dasharray:none;stroke:#000000;stroke-opacity:1" />
      <path
         inkscape:connector-curvature="0"
         d="M 23622,49409.4 A 1574.8,1574.8 0 0 0 22047.2,47834.6"
         id="path6400"
         style="fill:none;stroke-width:3.93701215000000015;stroke-miterlimit:4;stroke-dasharray:none;stroke:#000000;stroke-opacity:1" />
      <path
         inkscape:connector-curvature="0"
         d="m 55118.1,29330.7 a 1574.8,1574.8 0 0 0 1574.8,1574.8"
         id="path6402"
         style="fill:none;stroke-width:3.93701215000000015;stroke-miterlimit:4;stroke-dasharray:none;stroke:#000000;stroke-opacity:1" />
      <path
         inkscape:connector-curvature="0"
         d="m 27165.4,31496.1 a 1574.8,1574.8 0 0 0 -1574.8,1574.8"
         id="path6404"
         style="fill:none;stroke-width:3.93701215000000015;stroke-miterlimit:4;stroke-dasharray:none;stroke:#000000;stroke-opacity:1" />
      <path
         inkscape:connector-curvature="0"
         d="m 37007.9,30315 a 3149.61,3149.61 0 0 0 -2458.1,1180.3"
         id="path6406"
         style="fill:none;stroke-width:3.93701215000000015;stroke-miterlimit:4;stroke-dasharray:none;stroke:#000000;stroke-opacity:1" />
      <path
         inkscape:connector-curvature="0"
         d="M 44190.9,31496.1 A 3149.61,3149.61 0 0 0 41733.3,30315"
         id="path6408"
         style="fill:none;stroke-width:3.93701215000000015;stroke-miterlimit:4;stroke-dasharray:none;stroke:#000000;stroke-opacity:1" />
      <path
         inkscape:connector-curvature="0"
         d="M 53149.6,33070.9 A 1574.8,1574.8 0 0 0 51574.8,31496.1"
         id="path6410"
         style="fill:none;stroke-width:3.93701215000000015;stroke-miterlimit:4;stroke-dasharray:none;stroke:#000000;stroke-opacity:1" />
      <path
         inkscape:connector-curvature="0"
         d="m 51574.8,47244.1 a 1574.8,1574.8 0 0 0 1574.8,-1574.8"
         id="path6412"
         style="fill:none;stroke-width:3.93701215000000015;stroke-miterlimit:4;stroke-dasharray:none;stroke:#000000;stroke-opacity:1" />
      <path
         inkscape:connector-curvature="0"
         d="m 41732.3,48425.2 a 3149.61,3149.61 0 0 0 2458,-1180.3"
         id="path6414"
         style="fill:none;stroke-width:3.93701215000000015;stroke-miterlimit:4;stroke-dasharray:none;stroke:#000000;stroke-opacity:1" />
      <path
         inkscape:connector-curvature="0"
         d="m 34549.2,47244.1 a 3149.61,3149.61 0 0 0 2457.7,1181.1"
         id="path6416"
         style="fill:none;stroke-width:3.93701215000000015;stroke-miterlimit:4;stroke-dasharray:none;stroke:#000000;stroke-opacity:1" />
      <path
         inkscape:connector-curvature="0"
         d="m 25590.6,45669.3 a 1574.8,1574.8 0 0 0 1574.8,1574.8"
         id="path6418"
         style="fill:none;stroke-width:3.93701215000000015;stroke-miterlimit:4;stroke-dasharray:none;stroke:#000000;stroke-opacity:1" />
      <path
         inkscape:connector-curvature="0"
         d="M 22047.2,30905.5 A 1574.8,1574.8 0 0 0 23622,29330.7"
         id="path6420"
         style="fill:none;stroke-width:3.93701215000000015;stroke-miterlimit:4;stroke-dasharray:none;stroke:#000000;stroke-opacity:1" />
      <path
         inkscape:connector-curvature="0"
         d="m 26014.6,28127 a 2362.2,2362.2 0 0 0 1779.8,810"
         id="path6422"
         style="fill:none;stroke-width:3.93701215000000015;stroke-miterlimit:4;stroke-dasharray:none;stroke:#000000;stroke-opacity:1" />
      <path
         inkscape:connector-curvature="0"
         d="m 25990.2,28099 a 1574.8,1574.8 0 0 0 -1186.5,-539.9"
         id="path6424"
         style="fill:none;stroke-width:3.93701215000000015;stroke-miterlimit:4;stroke-dasharray:none;stroke:#000000;stroke-opacity:1" />
      <path
         inkscape:connector-curvature="0"
         d="m 24803.1,51181.1 a 1574.8,1574.8 0 0 0 1186.8,-539.6"
         id="path6426"
         style="fill:none;stroke-width:3.93701215000000015;stroke-miterlimit:4;stroke-dasharray:none;stroke:#000000;stroke-opacity:1" />
      <path
         inkscape:connector-curvature="0"
         d="m 27795.2,49803.1 a 2362.2,2362.2 0 0 0 -1780,809.4"
         id="path6428"
         style="fill:none;stroke-width:3.93701215000000015;stroke-miterlimit:4;stroke-dasharray:none;stroke:#000000;stroke-opacity:1" />
      <path
         inkscape:connector-curvature="0"
         d="m 52725.5,50613.1 a 2362.2,2362.2 0 0 0 -1779.8,-810"
         id="path6430"
         style="fill:none;stroke-width:3.93701215000000015;stroke-miterlimit:4;stroke-dasharray:none;stroke:#000000;stroke-opacity:1" />
      <path
         inkscape:connector-curvature="0"
         d="m 52749.9,50641.1 a 1574.8,1574.8 0 0 0 1186.6,540"
         id="path6432"
         style="fill:none;stroke-width:3.93701215000000015;stroke-miterlimit:4;stroke-dasharray:none;stroke:#000000;stroke-opacity:1" />
      <path
         inkscape:connector-curvature="0"
         d="m 53937,27559.1 a 1574.8,1574.8 0 0 0 -1186.7,539.5"
         id="path6434"
         style="fill:none;stroke-width:3.93701215000000015;stroke-miterlimit:4;stroke-dasharray:none;stroke:#000000;stroke-opacity:1" />
      <path
         inkscape:connector-curvature="0"
         d="M 50944.9,28937 A 2362.2,2362.2 0 0 0 52725,28127.7"
         id="path6436"
         style="fill:none;stroke-width:3.93701215000000015;stroke-miterlimit:4;stroke-dasharray:none;stroke:#000000;stroke-opacity:1" />
      <path
         inkscape:connector-curvature="0"
         d="m 54133.9,42519.7 a 393.701,393.701 0 0 0 -393.7,393.7"
         id="path6438"
         style="fill:none;stroke-width:3.93701215000000015;stroke-miterlimit:4;stroke-dasharray:none;stroke:#000000;stroke-opacity:1" />
      <path
         inkscape:connector-curvature="0"
         d="m 53740.2,45669.3 a 393.701,393.701 0 0 0 393.7,393.7"
         id="path6440"
         style="fill:none;stroke-width:3.93701215000000015;stroke-miterlimit:4;stroke-dasharray:none;stroke:#000000;stroke-opacity:1" />
      <path
         inkscape:connector-curvature="0"
         d="m 57677.2,46063 a 393.701,393.701 0 0 0 393.7,-393.7"
         id="path6442"
         style="fill:none;stroke-width:3.93701215000000015;stroke-miterlimit:4;stroke-dasharray:none;stroke:#000000;stroke-opacity:1" />
      <path
         inkscape:connector-curvature="0"
         d="m 58070.9,42913.4 a 393.701,393.701 0 0 0 -393.7,-393.7"
         id="path6444"
         style="fill:none;stroke-width:3.93701215000000015;stroke-miterlimit:4;stroke-dasharray:none;stroke:#000000;stroke-opacity:1" />
    </g>
    <g
       transform="matrix(0.00899999,0,0,0.00899999,17.598055,-108.66633)"
       style="fill:none;stroke:#000000;stroke-width:3.93701215000000015;stroke-linecap:round;stroke-linejoin:round;stroke-miterlimit:4;stroke-opacity:1;stroke-dasharray:none"
       id="g6652">
      <path
         inkscape:connector-curvature="0"
         d="m 43437.1,32480.3 a 1968.5,1968.5 0 0 0 -1704.8,-984.2"
         id="path6654"
         style="fill:none;stroke-width:3.93701215000000015;stroke-miterlimit:4;stroke-dasharray:none;stroke:#000000;stroke-opacity:1" />
      <path
         inkscape:connector-curvature="0"
         d="m 35303.1,46259.8 a 1968.5,1968.5 0 0 0 1704.8,984.3"
         id="path6656"
         style="fill:none;stroke-width:3.93701215000000015;stroke-miterlimit:4;stroke-dasharray:none;stroke:#000000;stroke-opacity:1" />
      <path
         inkscape:connector-curvature="0"
         d="m 51968.5,33070.9 a 393.701,393.701 0 0 0 -393.7,-393.7"
         id="path6658"
         style="fill:none;stroke-width:3.93701215000000015;stroke-miterlimit:4;stroke-dasharray:none;stroke:#000000;stroke-opacity:1" />
      <path
         inkscape:connector-curvature="0"
         d="m 37007.9,31496.1 a 1968.5,1968.5 0 0 0 -1704.8,984.2"
         id="path6660"
         style="fill:none;stroke-width:3.93701215000000015;stroke-miterlimit:4;stroke-dasharray:none;stroke:#000000;stroke-opacity:1" />
      <path
         inkscape:connector-curvature="0"
         d="m 27165.4,32677.2 a 393.701,393.701 0 0 0 -393.7,393.7"
         id="path6662"
         style="fill:none;stroke-width:3.93701215000000015;stroke-miterlimit:4;stroke-dasharray:none;stroke:#000000;stroke-opacity:1" />
      <path
         inkscape:connector-curvature="0"
         d="m 26771.7,45669.3 a 393.701,393.701 0 0 0 393.7,393.7"
         id="path6664"
         style="fill:none;stroke-width:3.93701215000000015;stroke-miterlimit:4;stroke-dasharray:none;stroke:#000000;stroke-opacity:1" />
      <path
         inkscape:connector-curvature="0"
         d="m 41732.3,47244.1 a 1968.5,1968.5 0 0 0 1704.8,-984.3"
         id="path6666"
         style="fill:none;stroke-width:3.93701215000000015;stroke-miterlimit:4;stroke-dasharray:none;stroke:#000000;stroke-opacity:1" />
      <path
         inkscape:connector-curvature="0"
         d="m 51574.8,46063 a 393.701,393.701 0 0 0 393.7,-393.7"
         id="path6668"
         style="fill:none;stroke-width:3.93701215000000015;stroke-miterlimit:4;stroke-dasharray:none;stroke:#000000;stroke-opacity:1" />
      <path
         inkscape:connector-curvature="0"
         d="m 26771,33070 0,12599"
         id="path6670"
         style="fill:none;stroke-width:3.93701215000000015;stroke-miterlimit:4;stroke-dasharray:none;stroke:#000000;stroke-opacity:1" />
      <path
         inkscape:connector-curvature="0"
         d="m 35189,32677 114,-197"
         id="path6672"
         style="fill:none;stroke-width:3.93701215000000015;stroke-miterlimit:4;stroke-dasharray:none;stroke:#000000;stroke-opacity:1" />
      <path
         inkscape:connector-curvature="0"
         d="m 37007,31496 4725,0"
         id="path6674"
         style="fill:none;stroke-width:3.93701215000000015;stroke-miterlimit:4;stroke-dasharray:none;stroke:#000000;stroke-opacity:1" />
      <path
         inkscape:connector-curvature="0"
         d="m 27165,32677 8024,0"
         id="path6676"
         style="fill:none;stroke-width:3.93701215000000015;stroke-miterlimit:4;stroke-dasharray:none;stroke:#000000;stroke-opacity:1" />
      <path
         inkscape:connector-curvature="0"
         d="m 43550,32677 -113,-197"
         id="path6678"
         style="fill:none;stroke-width:3.93701215000000015;stroke-miterlimit:4;stroke-dasharray:none;stroke:#000000;stroke-opacity:1" />
      <path
         inkscape:connector-curvature="0"
         d="m 51968,33070 0,12599"
         id="path6680"
         style="fill:none;stroke-width:3.93701215000000015;stroke-miterlimit:4;stroke-dasharray:none;stroke:#000000;stroke-opacity:1" />
      <path
         inkscape:connector-curvature="0"
         d="m 51574,32677 -8024,0"
         id="path6682"
         style="fill:none;stroke-width:3.93701215000000015;stroke-miterlimit:4;stroke-dasharray:none;stroke:#000000;stroke-opacity:1" />
      <path
         inkscape:connector-curvature="0"
         d="m 43550,46062 -113,197"
         id="path6684"
         style="fill:none;stroke-width:3.93701215000000015;stroke-miterlimit:4;stroke-dasharray:none;stroke:#000000;stroke-opacity:1" />
      <path
         inkscape:connector-curvature="0"
         d="m 51574,46062 -8024,0"
         id="path6686"
         style="fill:none;stroke-width:3.93701215000000015;stroke-miterlimit:4;stroke-dasharray:none;stroke:#000000;stroke-opacity:1" />
      <path
         inkscape:connector-curvature="0"
         d="m 37007,47244 4725,0"
         id="path6688"
         style="fill:none;stroke-width:3.93701215000000015;stroke-miterlimit:4;stroke-dasharray:none;stroke:#000000;stroke-opacity:1" />
      <path
         inkscape:connector-curvature="0"
         d="m 35189,46062 114,197"
         id="path6690"
         style="fill:none;stroke-width:3.93701215000000015;stroke-miterlimit:4;stroke-dasharray:none;stroke:#000000;stroke-opacity:1" />
      <path
         inkscape:connector-curvature="0"
         d="m 27165,46062 8024,0"
         id="path6692"
         style="fill:none;stroke-width:3.93701215000000015;stroke-miterlimit:4;stroke-dasharray:none;stroke:#000000;stroke-opacity:1" />
      <path
         inkscape:connector-curvature="0"
         d="m 59055,27559 0,23622"
         id="path6694"
         style="fill:none;stroke-width:3.93701215000000015;stroke-miterlimit:4;stroke-dasharray:none;stroke:#000000;stroke-opacity:1" />
      <path
         inkscape:connector-curvature="0"
         d="m 19685,27559 0,23622"
         id="path6696"
         style="fill:none;stroke-width:3.93701215000000015;stroke-miterlimit:4;stroke-dasharray:none;stroke:#000000;stroke-opacity:1" />
      <path
         inkscape:connector-curvature="0"
         d="m 20078,51574 38583,0"
         id="path6698"
         style="fill:none;stroke-width:3.93701215000000015;stroke-miterlimit:4;stroke-dasharray:none;stroke:#000000;stroke-opacity:1" />
      <path
         inkscape:connector-curvature="0"
         d="m 58661,27165 -38583,0"
         id="path6700"
         style="fill:none;stroke-width:3.93701215000000015;stroke-miterlimit:4;stroke-dasharray:none;stroke:#000000;stroke-opacity:1" />
      <path
         inkscape:connector-curvature="0"
         d="m 19685,51181.1 a 393.701,393.701 0 0 0 393.7,393.7"
         id="path6702"
         style="fill:none;stroke-width:3.93701215000000015;stroke-miterlimit:4;stroke-dasharray:none;stroke:#000000;stroke-opacity:1" />
      <path
         inkscape:connector-curvature="0"
         d="m 58661.4,51574.8 a 393.701,393.701 0 0 0 393.7,-393.7"
         id="path6704"
         style="fill:none;stroke-width:3.93701215000000015;stroke-miterlimit:4;stroke-dasharray:none;stroke:#000000;stroke-opacity:1" />
      <path
         inkscape:connector-curvature="0"
         d="m 59055.1,27559.1 a 393.701,393.701 0 0 0 -393.7,-393.7"
         id="path6706"
         style="fill:none;stroke-width:3.93701215000000015;stroke-miterlimit:4;stroke-dasharray:none;stroke:#000000;stroke-opacity:1" />
      <path
         inkscape:connector-curvature="0"
         d="m 20078.7,27165.4 a 393.701,393.701 0 0 0 -393.7,393.7"
         id="path6708"
         style="fill:none;stroke-width:3.93701215000000015;stroke-miterlimit:4;stroke-dasharray:none;stroke:#000000;stroke-opacity:1" />
    </g>
  </g>
</svg>
