  0
SECTION
  2
HEADER
  9
$ACADVER
  1
AC1014
  9
$HANDSEED
  5
FFFF
  9
$MEASUREMENT
 70
     1
  0
ENDSEC
  0
SECTION
  2
TABLES
  0
TABLE
  2
VPORT
  5
8
330
0
100
AcDbSymbolTable
 70
     4
  0
VPORT
  5
2E
330
8
100
AcDbSymbolTableRecord
100
AcDbViewportTableRecord
  2
*ACTIVE
 70
     0
 10
0.0
 20
0.0
 11
1.0
 21
1.0
 12
210.0
 22
148.5
 13
0.0
 23
0.0
 14
10.0
 24
10.0
 15
10.0
 25
10.0
 16
0.0
 26
0.0
 36
1.0
 17
0.0
 27
0.0
 37
0.0
 40
341.0
 41
1.24
 42
50.0
 43
0.0
 44
0.0
 50
0.0
 51
0.0
 71
     0
 72
   100
 73
     1
 74
     3
 75
     0
 76
     0
 77
     0
 78
     0
  0
ENDTAB
  0
TABLE
  2
LTYPE
  5
5
330
0
100
AcDbSymbolTable
 70
     1
  0
LTYPE
  5
14
330
5
100
AcDbSymbolTableRecord
100
AcDbLinetypeTableRecord
  2
BYBLOCK
 70
     0
  3

 72
    65
 73
     0
 40
0.0
  0
LTYPE
  5
15
330
5
100
AcDbSymbolTableRecord
100
AcDbLinetypeTableRecord
  2
BYLAYER
 70
     0
  3

 72
    65
 73
     0
 40
0.0
  0
LTYPE
  5
16
330
5
100
AcDbSymbolTableRecord
100
AcDbLinetypeTableRecord
  2
CONTINUOUS
 70
     0
  3
Solid line
 72
    65
 73
     0
 40
0.0
  0
ENDTAB
  0
TABLE
  2
LAYER
  5
2
100
AcDbSymbolTable
 70
2
  0
LAYER
  5
50
100
AcDbSymbolTableRecord
100
AcDbLayerTableRecord
  2
0
 70
0
  6
CONTINUOUS
  0
LAYER
  5
51
100
AcDbSymbolTableRecord
100
AcDbLayerTableRecord
  2
Layer_1
 70
0
  6
CONTINUOUS
  0
ENDTAB
  0
TABLE
  2
STYLE
  5
3
330
0
100
AcDbSymbolTable
 70
     1
  0
STYLE
  5
11
330
3
100
AcDbSymbolTableRecord
100
AcDbTextStyleTableRecord
  2
STANDARD
 70
     0
 40
0.0
 41
1.0
 50
0.0
 71
     0
 42
2.5
  3
txt
  4

  0
ENDTAB
  0
TABLE
  2
VIEW
  5
6
330
0
100
AcDbSymbolTable
 70
     0
  0
ENDTAB
  0
TABLE
  2
UCS
  5
7
330
0
100
AcDbSymbolTable
 70
     0
  0
ENDTAB
  0
TABLE
  2
APPID
  5
9
330
0
100
AcDbSymbolTable
 70
     2
  0
APPID
  5
12
330
9
100
AcDbSymbolTableRecord
100
AcDbRegAppTableRecord
  2
ACAD
 70
     0
  0
ENDTAB
  0
TABLE
  2
DIMSTYLE
  5
A
330
0
100
AcDbSymbolTable
 70
     1
  0
DIMSTYLE
105
27
330
A
100
AcDbSymbolTableRecord
100
AcDbDimStyleTableRecord
  2
ISO-25
 70
     0
  3

  4

  5

  6

  7

 40
1.0
 41
2.5
 42
0.625
 43
3.75
 44
1.25
 45
0.0
 46
0.0
 47
0.0
 48
0.0
140
2.5
141
2.5
142
0.0
143
0.03937007874016
144
1.0
145
0.0
146
1.0
147
0.625
 71
     0
 72
     0
 73
     0
 74
     0
 75
     0
 76
     0
 77
     1
 78
     8
170
     0
171
     3
172
     1
173
     0
174
     0
175
     0
176
     0
177
     0
178
     0
270
     2
271
     2
272
     2
273
     2
274
     3
340
11
275
     0
280
     0
281
     0
282
     0
283
     0
284
     8
285
     0
286
     0
287
     3
288
     0
  0
ENDTAB
  0
TABLE
  2
BLOCK_RECORD
  5
1
330
0
100
AcDbSymbolTable
 70
     1
  0
BLOCK_RECORD
  5
1F
330
1
100
AcDbSymbolTableRecord
100
AcDbBlockTableRecord
  2
*MODEL_SPACE
  0
BLOCK_RECORD
  5
1B
330
1
100
AcDbSymbolTableRecord
100
AcDbBlockTableRecord
  2
*PAPER_SPACE
  0
ENDTAB
  0
ENDSEC
  0
SECTION
  2
BLOCKS
  0
BLOCK
  5
20
330
1F
100
AcDbEntity
  8
0
100
AcDbBlockBegin
  2
*MODEL_SPACE
 70
     0
 10
0.0
 20
0.0
 30
0.0
  3
*MODEL_SPACE
  1

  0
ENDBLK
  5
21
330
1F
100
AcDbEntity
  8
0
100
AcDbBlockEnd
  0
BLOCK
  5
1C
330
1B
100
AcDbEntity
 67
     1
  8
0
100
AcDbBlockBegin
  2
*PAPER_SPACE
  1

  0
ENDBLK
  5
1D
330
1B
100
AcDbEntity
 67
     1
  8
0
100
AcDbBlockEnd
  0
ENDSEC
  0
SECTION
  2
ENTITIES
  0
LWPOLYLINE
  5
100
100
AcDbEntity
  8
Layer_1
 62
7
100
AcDbPolyline
 90
80
 70
1
 10
61.864932
 20
211.861828
 30
0.0
 10
61.476101
 20
211.783328
 30
0.0
 10
61.158601
 20
211.569238
 30
0.0
 10
60.944526
 20
211.251718
 30
0.0
 10
60.866026
 20
210.862928
 30
0.0
 10
60.866026
 20
202.978268
 30
0.0
 10
60.866026
 20
195.093610
 30
0.0
 10
60.866026
 20
187.208950
 30
0.0
 10
60.866026
 20
179.324290
 30
0.0
 10
61.641097
 20
179.167160
 30
0.0
 10
62.273927
 20
178.740010
 30
0.0
 10
62.700594
 20
178.106830
 30
0.0
 10
62.857122
 20
177.331640
 30
0.0
 10
62.700753
 20
176.556290
 30
0.0
 10
62.274112
 20
175.922940
 30
0.0
 10
61.641229
 20
175.495660
 30
0.0
 10
60.866026
 20
175.338480
 30
0.0
 10
60.866026
 20
173.961690
 30
0.0
 10
60.866026
 20
172.584900
 30
0.0
 10
60.866026
 20
171.208110
 30
0.0
 10
60.866023
 20
169.581320
 30
0.0
 10
62.472759
 20
169.581180
 30
0.0
 10
64.079520
 20
169.581050
 30
0.0
 10
65.686255
 20
169.580920
 30
0.0
 10
67.293017
 20
169.580790
 30
0.0
 10
69.118245
 20
169.383630
 30
0.0
 10
70.840630
 20
168.811010
 30
0.0
 10
72.403444
 20
167.888820
 30
0.0
 10
73.749988
 20
166.642980
 30
0.0
 10
73.782928
 20
166.604980
 30
0.0
 10
73.815868
 20
166.566980
 30
0.0
 10
73.848838
 20
166.528980
 30
0.0
 10
73.881778
 20
166.490980
 30
0.0
 10
75.902824
 20
164.622030
 30
0.0
 10
78.247456
 20
163.238720
 30
0.0
 10
80.830794
 20
162.379930
 30
0.0
 10
83.567988
 20
162.084530
 30
0.0
 10
92.710587
 20
162.084530
 30
0.0
 10
101.853190
 20
162.084530
 30
0.0
 10
110.995780
 20
162.084530
 30
0.0
 10
120.138380
 20
162.084530
 30
0.0
 10
122.876160
 20
162.379000
 30
0.0
 10
125.459950
 20
163.236900
 30
0.0
 10
127.804760
 20
164.619720
 30
0.0
 10
129.825650
 20
166.488920
 30
0.0
 10
129.859250
 20
166.527820
 30
0.0
 10
129.892850
 20
166.566720
 30
0.0
 10
129.926450
 20
166.605620
 30
0.0
 10
129.960050
 20
166.644520
 30
0.0
 10
131.309350
 20
167.890470
 30
0.0
 10
132.873430
 20
168.812300
 30
0.0
 10
134.595870
 20
169.384300
 30
0.0
 10
136.420120
 20
169.580770
 30
0.0
 10
138.027250
 20
169.580900
 30
0.0
 10
139.634380
 20
169.581030
 30
0.0
 10
141.241540
 20
169.581170
 30
0.0
 10
142.848670
 20
169.581300
 30
0.0
 10
142.848670
 20
171.208230
 30
0.0
 10
142.848670
 20
172.585150
 30
0.0
 10
142.848670
 20
173.962060
 30
0.0
 10
142.848670
 20
175.338980
 30
0.0
 10
142.077410
 20
175.499520
 30
0.0
 10
141.448440
 20
175.927450
 30
0.0
 10
141.024790
 20
176.559310
 30
0.0
 10
140.869480
 20
177.331620
 30
0.0
 10
141.025110
 20
178.104160
 30
0.0
 10
141.449180
 20
178.736010
 30
0.0
 10
142.078600
 20
179.163710
 30
0.0
 10
142.850230
 20
179.323750
 30
0.0
 10
142.853230
 20
187.208540
 30
0.0
 10
142.856230
 20
195.093330
 30
0.0
 10
142.859230
 20
202.978118
 30
0.0
 10
142.862230
 20
210.862908
 30
0.0
 10
142.783730
 20
211.251708
 30
0.0
 10
142.569630
 20
211.569228
 30
0.0
 10
142.252130
 20
211.783308
 30
0.0
 10
141.863510
 20
211.861808
 30
0.0
 10
121.862030
 20
211.861808
 30
0.0
 10
101.862210
 20
211.861808
 30
0.0
 10
81.862378
 20
211.861808
 30
0.0
  0
ENDSEC
  0
SECTION
  2
OBJECTS
  0
DICTIONARY
  5
C
330
0
100
AcDbDictionary
  3
ACAD_GROUP
350
D
  3
ACAD_MLINESTYLE
350
17
  0
DICTIONARY
  5
D
330
C
100
AcDbDictionary
  0
DICTIONARY
  5
1A
330
C
100
AcDbDictionary
  0
DICTIONARY
  5
17
330
C
100
AcDbDictionary
  3
STANDARD
350
18
  0
DICTIONARY
  5
19
330
C
100
AcDbDictionary
  0
ENDSEC
  0
EOF
