G04 #@! TF.FileFunction,Soldermask,Top*
%FSLAX46Y46*%
G04 Gerber Fmt 4.6, Leading zero omitted, Abs format (unit mm)*
G04 Created by KiCad (PCBNEW 0.201603210401+6634~43~ubuntu14.04.1-product) date Mon 18 Apr 2016 03:28:45 PM CEST*
%MOMM*%
G01*
G04 APERTURE LIST*
%ADD10C,0.100000*%
%ADD11C,7.400000*%
%ADD12C,1.924000*%
%ADD13R,3.399740X3.399740*%
%ADD14C,0.010000*%
G04 APERTURE END LIST*
D10*
X69000000Y-117000000D02*
X89381198Y-117000000D01*
X89381198Y-117000000D02*
X89669873Y-117500000D01*
X94000000Y-120000000D02*
X106000000Y-120000000D01*
X131000000Y-117000000D02*
X110618802Y-117000000D01*
X110618802Y-117000000D02*
X110330127Y-117500000D01*
X131000000Y-83000000D02*
X110618802Y-83000000D01*
X132000000Y-84000000D02*
X132000000Y-116000000D01*
X110618802Y-83000000D02*
X110330127Y-82500000D01*
X69000000Y-83000000D02*
X89381198Y-83000000D01*
X69000000Y-81000000D02*
X88255437Y-81000000D01*
X94000000Y-78000000D02*
X106000000Y-78000000D01*
X131000000Y-81000000D02*
X111744563Y-81000000D01*
X134000000Y-84000000D02*
X134000000Y-116000000D01*
X131000000Y-119000000D02*
X111744563Y-119000000D01*
X94000000Y-122000000D02*
X106000000Y-122000000D01*
X94000000Y-80000000D02*
X106000000Y-80000000D01*
X89381198Y-83000000D02*
X89669873Y-82500000D01*
X68000000Y-84000000D02*
X68000000Y-116000000D01*
X69000000Y-119000000D02*
X88255437Y-119000000D01*
X66000000Y-84000000D02*
X66000000Y-116000000D01*
X132000000Y-116000000D02*
G75*
G02X131000000Y-117000000I-1000000J0D01*
G01*
X110330127Y-117500000D02*
G75*
G02X106000000Y-120000000I-4330127J2500000D01*
G01*
X94000000Y-120000000D02*
G75*
G02X89669873Y-117500000I0J5000000D01*
G01*
X69000000Y-117000000D02*
G75*
G02X68000000Y-116000000I0J1000000D01*
G01*
X66000000Y-84000000D02*
G75*
G02X69000000Y-81000000I3000000J0D01*
G01*
X88258937Y-80994979D02*
G75*
G02X94000000Y-78000000I5741063J-4005021D01*
G01*
X106006121Y-78000003D02*
G75*
G02X111744563Y-81000000I-6121J-6999997D01*
G01*
X131000000Y-81000000D02*
G75*
G02X134000000Y-84000000I0J-3000000D01*
G01*
X68000000Y-84000000D02*
G75*
G02X69000000Y-83000000I1000000J0D01*
G01*
X89669873Y-82500000D02*
G75*
G02X94000000Y-80000000I4330127J-2500000D01*
G01*
X134000000Y-116000000D02*
G75*
G02X131000000Y-119000000I-3000000J0D01*
G01*
X111741063Y-119005021D02*
G75*
G02X106000000Y-122000000I-5741063J4005021D01*
G01*
X93993879Y-121999997D02*
G75*
G02X88255437Y-119000000I6121J6999997D01*
G01*
X69000000Y-119000000D02*
G75*
G02X66000000Y-116000000I0J3000000D01*
G01*
X106000000Y-80000000D02*
G75*
G02X110330127Y-82500000I0J-5000000D01*
G01*
X131000000Y-83000000D02*
G75*
G02X132000000Y-84000000I0J-1000000D01*
G01*
D11*
X144000000Y-74500000D03*
X56000000Y-74500000D03*
X56000000Y-125500000D03*
X144000000Y-125500000D03*
D12*
X132600000Y-82400000D03*
D13*
X137250000Y-79025000D03*
D14*
G36*
X107498935Y-78154915D02*
X108698080Y-78554630D01*
X109697425Y-79054303D01*
X110546763Y-79653835D01*
X110996390Y-80103462D01*
X111496101Y-80653144D01*
X111745931Y-81002906D01*
X111747353Y-81004242D01*
X111750000Y-81005000D01*
X131249643Y-81005000D01*
X131598753Y-81054873D01*
X132397760Y-81354500D01*
X132946849Y-81703921D01*
X133446009Y-82203081D01*
X133795391Y-82802021D01*
X133995000Y-83450752D01*
X133995000Y-116149643D01*
X133895165Y-116848491D01*
X133395892Y-117847036D01*
X132846989Y-118395939D01*
X132098069Y-118795363D01*
X131449248Y-118995000D01*
X111750000Y-118995000D01*
X111748087Y-118995381D01*
X111746464Y-118996464D01*
X111745840Y-118997226D01*
X111546074Y-119296875D01*
X110696614Y-120196303D01*
X109747306Y-120945757D01*
X108548209Y-121545306D01*
X107448948Y-121845104D01*
X106499606Y-121995000D01*
X93750248Y-121995000D01*
X92750968Y-121895072D01*
X91401721Y-121495295D01*
X90602458Y-121145617D01*
X90102927Y-120795946D01*
X89353133Y-120246097D01*
X88953560Y-119896470D01*
X88653943Y-119546917D01*
X88404069Y-119197094D01*
X88404000Y-119197000D01*
X88254000Y-118997000D01*
X88252547Y-118995698D01*
X88250000Y-118995000D01*
X68950222Y-118995000D01*
X68400956Y-118945067D01*
X67901921Y-118795356D01*
X67252922Y-118445895D01*
X66653856Y-117896751D01*
X66204652Y-117197989D01*
X66104879Y-116798899D01*
X66005000Y-116299504D01*
X66005000Y-84000308D01*
X66005038Y-84000000D01*
X67995000Y-84000000D01*
X67995000Y-116050000D01*
X67995149Y-116051213D01*
X68095149Y-116451213D01*
X68095840Y-116452774D01*
X68295840Y-116752774D01*
X68297519Y-116754341D01*
X68647519Y-116954341D01*
X68649293Y-116954950D01*
X68999293Y-117004950D01*
X69000000Y-117005000D01*
X89397076Y-117005000D01*
X89845642Y-117802451D01*
X89846284Y-117803345D01*
X90038897Y-118017360D01*
X90095840Y-118102774D01*
X90096159Y-118103201D01*
X90596159Y-118703201D01*
X90597094Y-118704069D01*
X91016944Y-119003962D01*
X91196799Y-119153841D01*
X91197481Y-119154319D01*
X91797481Y-119504319D01*
X91798271Y-119504692D01*
X92748271Y-119854692D01*
X92749131Y-119854924D01*
X92810724Y-119865794D01*
X92897969Y-119904569D01*
X92899547Y-119904979D01*
X93174332Y-119929959D01*
X93599131Y-120004924D01*
X93600000Y-120005000D01*
X106300000Y-120005000D01*
X106300869Y-120004924D01*
X106543612Y-119962087D01*
X107000620Y-119904961D01*
X107001581Y-119904743D01*
X108201581Y-119504743D01*
X108202670Y-119504227D01*
X108343071Y-119415553D01*
X108601970Y-119304596D01*
X108602906Y-119304069D01*
X109302906Y-118804069D01*
X109303796Y-118803254D01*
X109453597Y-118628486D01*
X109753379Y-118353686D01*
X109754085Y-118352883D01*
X110354085Y-117502883D01*
X110354287Y-117502572D01*
X110652830Y-117005000D01*
X131100000Y-117005000D01*
X131101581Y-117004743D01*
X131401581Y-116904743D01*
X131402773Y-116904160D01*
X131445148Y-116875910D01*
X131501756Y-116854682D01*
X131503123Y-116853904D01*
X131627948Y-116754044D01*
X131702774Y-116704160D01*
X131703536Y-116703536D01*
X131903536Y-116503536D01*
X131904851Y-116501213D01*
X131934641Y-116382052D01*
X131954160Y-116352774D01*
X131954932Y-116350822D01*
X131979899Y-116201023D01*
X132004851Y-116101213D01*
X132005000Y-116100000D01*
X132005000Y-83800000D01*
X132004472Y-83797764D01*
X131904630Y-83598080D01*
X131854743Y-83448419D01*
X131853777Y-83446724D01*
X131853000Y-83446000D01*
X131813944Y-83416708D01*
X131804472Y-83397764D01*
X131803000Y-83396000D01*
X131403000Y-83096000D01*
X131401213Y-83095149D01*
X131151490Y-83032718D01*
X131051756Y-82995318D01*
X131050000Y-82995000D01*
X110603090Y-82995000D01*
X110404472Y-82597764D01*
X110404096Y-82597133D01*
X110124194Y-82197273D01*
X110004287Y-81997428D01*
X110003686Y-81996621D01*
X109919289Y-81904551D01*
X109704096Y-81597133D01*
X109703166Y-81596130D01*
X108603166Y-80696130D01*
X108602031Y-80695431D01*
X108152130Y-80495475D01*
X107752236Y-80295528D01*
X107751213Y-80295149D01*
X106751213Y-80045149D01*
X106750383Y-80045015D01*
X106550760Y-80029659D01*
X106401124Y-79995128D01*
X106400000Y-79995000D01*
X93600000Y-79995000D01*
X93599106Y-79995081D01*
X92499106Y-80195081D01*
X92497969Y-80195431D01*
X91597969Y-80595431D01*
X91597094Y-80595931D01*
X91480744Y-80679037D01*
X91347764Y-80745528D01*
X91346911Y-80746068D01*
X90946999Y-81060285D01*
X90897094Y-81095931D01*
X90896746Y-81096204D01*
X90846835Y-81138985D01*
X90646911Y-81296068D01*
X90646464Y-81296464D01*
X90546592Y-81396336D01*
X90196746Y-81696204D01*
X90195840Y-81697226D01*
X89795840Y-82297226D01*
X89795659Y-82297519D01*
X89695745Y-82472368D01*
X89545840Y-82697226D01*
X89545528Y-82697764D01*
X89396910Y-82995000D01*
X68850000Y-82995000D01*
X68847931Y-82995448D01*
X68730598Y-83048781D01*
X68499019Y-83095097D01*
X68496464Y-83096464D01*
X68388771Y-83204157D01*
X68297931Y-83245448D01*
X68296347Y-83246586D01*
X68295629Y-83247572D01*
X68129057Y-83547401D01*
X68095840Y-83597227D01*
X68095149Y-83598787D01*
X68090764Y-83616331D01*
X68045629Y-83697572D01*
X68045050Y-83699293D01*
X68011754Y-83932369D01*
X67995149Y-83998787D01*
X67995000Y-84000000D01*
X66005038Y-84000000D01*
X66104862Y-83201410D01*
X66504331Y-82352539D01*
X66753706Y-82003414D01*
X67402647Y-81454310D01*
X68351246Y-81054900D01*
X68850248Y-81005000D01*
X88250000Y-81005000D01*
X88251913Y-81004619D01*
X88253870Y-81003166D01*
X88703708Y-80453364D01*
X89503237Y-79653835D01*
X90352622Y-79054269D01*
X91202082Y-78604555D01*
X92101405Y-78254818D01*
X93100652Y-78054969D01*
X93900152Y-78005000D01*
X106099728Y-78005000D01*
X107498935Y-78154915D01*
X107498935Y-78154915D01*
G37*
X107498935Y-78154915D02*
X108698080Y-78554630D01*
X109697425Y-79054303D01*
X110546763Y-79653835D01*
X110996390Y-80103462D01*
X111496101Y-80653144D01*
X111745931Y-81002906D01*
X111747353Y-81004242D01*
X111750000Y-81005000D01*
X131249643Y-81005000D01*
X131598753Y-81054873D01*
X132397760Y-81354500D01*
X132946849Y-81703921D01*
X133446009Y-82203081D01*
X133795391Y-82802021D01*
X133995000Y-83450752D01*
X133995000Y-116149643D01*
X133895165Y-116848491D01*
X133395892Y-117847036D01*
X132846989Y-118395939D01*
X132098069Y-118795363D01*
X131449248Y-118995000D01*
X111750000Y-118995000D01*
X111748087Y-118995381D01*
X111746464Y-118996464D01*
X111745840Y-118997226D01*
X111546074Y-119296875D01*
X110696614Y-120196303D01*
X109747306Y-120945757D01*
X108548209Y-121545306D01*
X107448948Y-121845104D01*
X106499606Y-121995000D01*
X93750248Y-121995000D01*
X92750968Y-121895072D01*
X91401721Y-121495295D01*
X90602458Y-121145617D01*
X90102927Y-120795946D01*
X89353133Y-120246097D01*
X88953560Y-119896470D01*
X88653943Y-119546917D01*
X88404069Y-119197094D01*
X88404000Y-119197000D01*
X88254000Y-118997000D01*
X88252547Y-118995698D01*
X88250000Y-118995000D01*
X68950222Y-118995000D01*
X68400956Y-118945067D01*
X67901921Y-118795356D01*
X67252922Y-118445895D01*
X66653856Y-117896751D01*
X66204652Y-117197989D01*
X66104879Y-116798899D01*
X66005000Y-116299504D01*
X66005000Y-84000308D01*
X66005038Y-84000000D01*
X67995000Y-84000000D01*
X67995000Y-116050000D01*
X67995149Y-116051213D01*
X68095149Y-116451213D01*
X68095840Y-116452774D01*
X68295840Y-116752774D01*
X68297519Y-116754341D01*
X68647519Y-116954341D01*
X68649293Y-116954950D01*
X68999293Y-117004950D01*
X69000000Y-117005000D01*
X89397076Y-117005000D01*
X89845642Y-117802451D01*
X89846284Y-117803345D01*
X90038897Y-118017360D01*
X90095840Y-118102774D01*
X90096159Y-118103201D01*
X90596159Y-118703201D01*
X90597094Y-118704069D01*
X91016944Y-119003962D01*
X91196799Y-119153841D01*
X91197481Y-119154319D01*
X91797481Y-119504319D01*
X91798271Y-119504692D01*
X92748271Y-119854692D01*
X92749131Y-119854924D01*
X92810724Y-119865794D01*
X92897969Y-119904569D01*
X92899547Y-119904979D01*
X93174332Y-119929959D01*
X93599131Y-120004924D01*
X93600000Y-120005000D01*
X106300000Y-120005000D01*
X106300869Y-120004924D01*
X106543612Y-119962087D01*
X107000620Y-119904961D01*
X107001581Y-119904743D01*
X108201581Y-119504743D01*
X108202670Y-119504227D01*
X108343071Y-119415553D01*
X108601970Y-119304596D01*
X108602906Y-119304069D01*
X109302906Y-118804069D01*
X109303796Y-118803254D01*
X109453597Y-118628486D01*
X109753379Y-118353686D01*
X109754085Y-118352883D01*
X110354085Y-117502883D01*
X110354287Y-117502572D01*
X110652830Y-117005000D01*
X131100000Y-117005000D01*
X131101581Y-117004743D01*
X131401581Y-116904743D01*
X131402773Y-116904160D01*
X131445148Y-116875910D01*
X131501756Y-116854682D01*
X131503123Y-116853904D01*
X131627948Y-116754044D01*
X131702774Y-116704160D01*
X131703536Y-116703536D01*
X131903536Y-116503536D01*
X131904851Y-116501213D01*
X131934641Y-116382052D01*
X131954160Y-116352774D01*
X131954932Y-116350822D01*
X131979899Y-116201023D01*
X132004851Y-116101213D01*
X132005000Y-116100000D01*
X132005000Y-83800000D01*
X132004472Y-83797764D01*
X131904630Y-83598080D01*
X131854743Y-83448419D01*
X131853777Y-83446724D01*
X131853000Y-83446000D01*
X131813944Y-83416708D01*
X131804472Y-83397764D01*
X131803000Y-83396000D01*
X131403000Y-83096000D01*
X131401213Y-83095149D01*
X131151490Y-83032718D01*
X131051756Y-82995318D01*
X131050000Y-82995000D01*
X110603090Y-82995000D01*
X110404472Y-82597764D01*
X110404096Y-82597133D01*
X110124194Y-82197273D01*
X110004287Y-81997428D01*
X110003686Y-81996621D01*
X109919289Y-81904551D01*
X109704096Y-81597133D01*
X109703166Y-81596130D01*
X108603166Y-80696130D01*
X108602031Y-80695431D01*
X108152130Y-80495475D01*
X107752236Y-80295528D01*
X107751213Y-80295149D01*
X106751213Y-80045149D01*
X106750383Y-80045015D01*
X106550760Y-80029659D01*
X106401124Y-79995128D01*
X106400000Y-79995000D01*
X93600000Y-79995000D01*
X93599106Y-79995081D01*
X92499106Y-80195081D01*
X92497969Y-80195431D01*
X91597969Y-80595431D01*
X91597094Y-80595931D01*
X91480744Y-80679037D01*
X91347764Y-80745528D01*
X91346911Y-80746068D01*
X90946999Y-81060285D01*
X90897094Y-81095931D01*
X90896746Y-81096204D01*
X90846835Y-81138985D01*
X90646911Y-81296068D01*
X90646464Y-81296464D01*
X90546592Y-81396336D01*
X90196746Y-81696204D01*
X90195840Y-81697226D01*
X89795840Y-82297226D01*
X89795659Y-82297519D01*
X89695745Y-82472368D01*
X89545840Y-82697226D01*
X89545528Y-82697764D01*
X89396910Y-82995000D01*
X68850000Y-82995000D01*
X68847931Y-82995448D01*
X68730598Y-83048781D01*
X68499019Y-83095097D01*
X68496464Y-83096464D01*
X68388771Y-83204157D01*
X68297931Y-83245448D01*
X68296347Y-83246586D01*
X68295629Y-83247572D01*
X68129057Y-83547401D01*
X68095840Y-83597227D01*
X68095149Y-83598787D01*
X68090764Y-83616331D01*
X68045629Y-83697572D01*
X68045050Y-83699293D01*
X68011754Y-83932369D01*
X67995149Y-83998787D01*
X67995000Y-84000000D01*
X66005038Y-84000000D01*
X66104862Y-83201410D01*
X66504331Y-82352539D01*
X66753706Y-82003414D01*
X67402647Y-81454310D01*
X68351246Y-81054900D01*
X68850248Y-81005000D01*
X88250000Y-81005000D01*
X88251913Y-81004619D01*
X88253870Y-81003166D01*
X88703708Y-80453364D01*
X89503237Y-79653835D01*
X90352622Y-79054269D01*
X91202082Y-78604555D01*
X92101405Y-78254818D01*
X93100652Y-78054969D01*
X93900152Y-78005000D01*
X106099728Y-78005000D01*
X107498935Y-78154915D01*
M02*
