G04 #@! TF.GenerationSoftware,KiCad,Pcbnew,6.0.9-8da3e8f707~117~ubuntu22.04.1*
G04 #@! TF.CreationDate,2023-03-03T14:59:22+01:00*
G04 #@! TF.ProjectId,ModulAdapterBasic,4d6f6475-6c41-4646-9170-746572426173,rev?*
G04 #@! TF.SameCoordinates,Original*
G04 #@! TF.FileFunction,Copper,L1,Top*
G04 #@! TF.FilePolarity,Positive*
%FSLAX46Y46*%
G04 Gerber Fmt 4.6, Leading zero omitted, Abs format (unit mm)*
G04 Created by KiCad (PCBNEW 6.0.9-8da3e8f707~117~ubuntu22.04.1) date 2023-03-03 14:59:22*
%MOMM*%
%LPD*%
G01*
G04 APERTURE LIST*
G04 Aperture macros list*
%AMRoundRect*
0 Rectangle with rounded corners*
0 $1 Rounding radius*
0 $2 $3 $4 $5 $6 $7 $8 $9 X,Y pos of 4 corners*
0 Add a 4 corners polygon primitive as box body*
4,1,4,$2,$3,$4,$5,$6,$7,$8,$9,$2,$3,0*
0 Add four circle primitives for the rounded corners*
1,1,$1+$1,$2,$3*
1,1,$1+$1,$4,$5*
1,1,$1+$1,$6,$7*
1,1,$1+$1,$8,$9*
0 Add four rect primitives between the rounded corners*
20,1,$1+$1,$2,$3,$4,$5,0*
20,1,$1+$1,$4,$5,$6,$7,0*
20,1,$1+$1,$6,$7,$8,$9,0*
20,1,$1+$1,$8,$9,$2,$3,0*%
G04 Aperture macros list end*
G04 #@! TA.AperFunction,SMDPad,CuDef*
%ADD10R,1.501140X1.501140*%
G04 #@! TD*
G04 #@! TA.AperFunction,SMDPad,CuDef*
%ADD11R,4.800000X5.000000*%
G04 #@! TD*
G04 #@! TA.AperFunction,SMDPad,CuDef*
%ADD12R,2.600000X5.000000*%
G04 #@! TD*
G04 #@! TA.AperFunction,SMDPad,CuDef*
%ADD13R,0.350000X2.000000*%
G04 #@! TD*
G04 #@! TA.AperFunction,SMDPad,CuDef*
%ADD14C,1.000000*%
G04 #@! TD*
G04 #@! TA.AperFunction,SMDPad,CuDef*
%ADD15RoundRect,0.135000X0.185000X-0.135000X0.185000X0.135000X-0.185000X0.135000X-0.185000X-0.135000X0*%
G04 #@! TD*
G04 #@! TA.AperFunction,SMDPad,CuDef*
%ADD16RoundRect,0.135000X-0.185000X0.135000X-0.185000X-0.135000X0.185000X-0.135000X0.185000X0.135000X0*%
G04 #@! TD*
G04 #@! TA.AperFunction,ComponentPad*
%ADD17R,1.350000X1.350000*%
G04 #@! TD*
G04 #@! TA.AperFunction,ComponentPad*
%ADD18O,1.350000X1.350000*%
G04 #@! TD*
G04 #@! TA.AperFunction,ViaPad*
%ADD19C,0.600000*%
G04 #@! TD*
G04 #@! TA.AperFunction,ViaPad*
%ADD20C,0.800000*%
G04 #@! TD*
G04 #@! TA.AperFunction,ViaPad*
%ADD21C,0.500000*%
G04 #@! TD*
G04 #@! TA.AperFunction,Conductor*
%ADD22C,0.200000*%
G04 #@! TD*
G04 #@! TA.AperFunction,Conductor*
%ADD23C,0.500000*%
G04 #@! TD*
G04 #@! TA.AperFunction,Conductor*
%ADD24C,0.150000*%
G04 #@! TD*
G04 #@! TA.AperFunction,Conductor*
%ADD25C,0.300000*%
G04 #@! TD*
G04 APERTURE END LIST*
D10*
X114986000Y-84360000D03*
X114986000Y-86900000D03*
D11*
X56900000Y-127990000D03*
D12*
X102400000Y-118810000D03*
D11*
X56900000Y-118810000D03*
X143100000Y-118810000D03*
D12*
X102400000Y-127990000D03*
D11*
X143100000Y-127990000D03*
D13*
X62200000Y-126750000D03*
X62800000Y-126750000D03*
X63400000Y-126750000D03*
X64000000Y-126750000D03*
X64600000Y-126750000D03*
X65200000Y-126750000D03*
X65800000Y-126750000D03*
X66400000Y-126750000D03*
X67000000Y-126750000D03*
X67600000Y-126750000D03*
X68200000Y-126750000D03*
X68800000Y-126750000D03*
X69400000Y-126750000D03*
X70000000Y-126750000D03*
X70600000Y-126750000D03*
X71200000Y-126750000D03*
X71800000Y-126750000D03*
X72400000Y-126750000D03*
X73000000Y-126750000D03*
X73600000Y-126750000D03*
X74200000Y-126750000D03*
X74800000Y-126750000D03*
X75400000Y-126750000D03*
X76000000Y-126750000D03*
X76600000Y-126750000D03*
X77200000Y-126750000D03*
X77800000Y-126750000D03*
X78400000Y-126750000D03*
X79000000Y-126750000D03*
X79600000Y-126750000D03*
X80200000Y-126750000D03*
X80800000Y-126750000D03*
X81400000Y-126750000D03*
X82000000Y-126750000D03*
X82600000Y-126750000D03*
X83200000Y-126750000D03*
X83800000Y-126750000D03*
X84400000Y-126750000D03*
X85000000Y-126750000D03*
X85600000Y-126750000D03*
X86200000Y-126750000D03*
X86800000Y-126750000D03*
X87400000Y-126750000D03*
X88000000Y-126750000D03*
X88600000Y-126750000D03*
X89200000Y-126750000D03*
X89800000Y-126750000D03*
X90400000Y-126750000D03*
X91000000Y-126750000D03*
X91600000Y-126750000D03*
X92200000Y-126750000D03*
X92800000Y-126750000D03*
X93400000Y-126750000D03*
X94000000Y-126750000D03*
X94600000Y-126750000D03*
X95200000Y-126750000D03*
X95800000Y-126750000D03*
X96400000Y-126750000D03*
X97000000Y-126750000D03*
X97600000Y-126750000D03*
X98200000Y-126750000D03*
X98800000Y-126750000D03*
X99400000Y-126750000D03*
X100000000Y-126750000D03*
X100600000Y-126750000D03*
X104200000Y-126750000D03*
X104800000Y-126750000D03*
X105400000Y-126750000D03*
X106000000Y-126750000D03*
X106600000Y-126750000D03*
X107200000Y-126750000D03*
X107800000Y-126750000D03*
X108400000Y-126750000D03*
X109000000Y-126750000D03*
X109600000Y-126750000D03*
X110200000Y-126750000D03*
X110800000Y-126750000D03*
X111400000Y-126750000D03*
X112000000Y-126750000D03*
X112600000Y-126750000D03*
X113200000Y-126750000D03*
X113800000Y-126750000D03*
X114400000Y-126750000D03*
X115000000Y-126750000D03*
X115600000Y-126750000D03*
X116200000Y-126750000D03*
X116800000Y-126750000D03*
X117400000Y-126750000D03*
X118000000Y-126750000D03*
X118600000Y-126750000D03*
X119200000Y-126750000D03*
X119800000Y-126750000D03*
X120400000Y-126750000D03*
X121000000Y-126750000D03*
X121600000Y-126750000D03*
X122200000Y-126750000D03*
X122800000Y-126750000D03*
X123400000Y-126750000D03*
X124000000Y-126750000D03*
X124600000Y-126750000D03*
X125200000Y-126750000D03*
X125800000Y-126750000D03*
X126400000Y-126750000D03*
X127000000Y-126750000D03*
X127600000Y-126750000D03*
X128200000Y-126750000D03*
X128800000Y-126750000D03*
X129400000Y-126750000D03*
X130000000Y-126750000D03*
X130600000Y-126750000D03*
X131200000Y-126750000D03*
X131800000Y-126750000D03*
X132400000Y-126750000D03*
X133000000Y-126750000D03*
X133600000Y-126750000D03*
X134200000Y-126750000D03*
X134800000Y-126750000D03*
X135400000Y-126750000D03*
X136000000Y-126750000D03*
X136600000Y-126750000D03*
X137200000Y-126750000D03*
X137800000Y-126750000D03*
X62200000Y-118050000D03*
X62800000Y-118050000D03*
X63400000Y-118050000D03*
X64000000Y-118050000D03*
X64600000Y-118050000D03*
X65200000Y-118050000D03*
X65800000Y-118050000D03*
X66400000Y-118050000D03*
X67000000Y-118050000D03*
X67600000Y-118050000D03*
X68200000Y-118050000D03*
X68800000Y-118050000D03*
X69400000Y-118050000D03*
X70000000Y-118050000D03*
X70600000Y-118050000D03*
X71200000Y-118050000D03*
X71800000Y-118050000D03*
X72400000Y-118050000D03*
X73000000Y-118050000D03*
X73600000Y-118050000D03*
X74200000Y-118050000D03*
X74800000Y-118050000D03*
X75400000Y-118050000D03*
X76000000Y-118050000D03*
X76600000Y-118050000D03*
X77200000Y-118050000D03*
X77800000Y-118050000D03*
X78400000Y-118050000D03*
X79000000Y-118050000D03*
X79600000Y-118050000D03*
X80200000Y-118050000D03*
X80800000Y-118050000D03*
X81400000Y-118050000D03*
X82000000Y-118050000D03*
X82600000Y-118050000D03*
X83200000Y-118050000D03*
X83800000Y-118050000D03*
X84400000Y-118050000D03*
X85000000Y-118050000D03*
X85600000Y-118050000D03*
X86200000Y-118050000D03*
X86800000Y-118050000D03*
X87400000Y-118050000D03*
X88000000Y-118050000D03*
X88600000Y-118050000D03*
X89200000Y-118050000D03*
X89800000Y-118050000D03*
X90400000Y-118050000D03*
X91000000Y-118050000D03*
X91600000Y-118050000D03*
X92200000Y-118050000D03*
X92800000Y-118050000D03*
X93400000Y-118050000D03*
X94000000Y-118050000D03*
X94600000Y-118050000D03*
X95200000Y-118050000D03*
X95800000Y-118050000D03*
X96400000Y-118050000D03*
X97000000Y-118050000D03*
X97600000Y-118050000D03*
X98200000Y-118050000D03*
X98800000Y-118050000D03*
X99400000Y-118050000D03*
X100000000Y-118050000D03*
X100600000Y-118050000D03*
X104200000Y-118050000D03*
X104800000Y-118050000D03*
X105400000Y-118050000D03*
X106000000Y-118050000D03*
X106600000Y-118050000D03*
X107200000Y-118050000D03*
X107800000Y-118050000D03*
X108400000Y-118050000D03*
X109000000Y-118050000D03*
X109600000Y-118050000D03*
X110200000Y-118050000D03*
X110800000Y-118050000D03*
X111400000Y-118050000D03*
X112000000Y-118050000D03*
X112600000Y-118050000D03*
X113200000Y-118050000D03*
X113800000Y-118050000D03*
X114400000Y-118050000D03*
X115000000Y-118050000D03*
X115600000Y-118050000D03*
X116200000Y-118050000D03*
X116800000Y-118050000D03*
X117400000Y-118050000D03*
X118000000Y-118050000D03*
X118600000Y-118050000D03*
X119200000Y-118050000D03*
X119800000Y-118050000D03*
X120400000Y-118050000D03*
X121000000Y-118050000D03*
X121600000Y-118050000D03*
X122200000Y-118050000D03*
X122800000Y-118050000D03*
X123400000Y-118050000D03*
X124000000Y-118050000D03*
X124600000Y-118050000D03*
X125200000Y-118050000D03*
X125800000Y-118050000D03*
X126400000Y-118050000D03*
X127000000Y-118050000D03*
X127600000Y-118050000D03*
X128200000Y-118050000D03*
X128800000Y-118050000D03*
X129400000Y-118050000D03*
X130000000Y-118050000D03*
X130600000Y-118050000D03*
X131200000Y-118050000D03*
X131800000Y-118050000D03*
X132400000Y-118050000D03*
X133000000Y-118050000D03*
X133600000Y-118050000D03*
X134200000Y-118050000D03*
X134800000Y-118050000D03*
X135400000Y-118050000D03*
X136000000Y-118050000D03*
X136600000Y-118050000D03*
X137200000Y-118050000D03*
X137800000Y-118050000D03*
D14*
X137000000Y-74000000D03*
X132000000Y-123000000D03*
X63000000Y-74000000D03*
D15*
X89200000Y-113960000D03*
X89200000Y-112940000D03*
X97000000Y-115910000D03*
X97000000Y-114890000D03*
X98800000Y-113960000D03*
X98800000Y-112940000D03*
X82000000Y-113960000D03*
X82000000Y-112940000D03*
X107800000Y-115910000D03*
X107800000Y-114890000D03*
X115600000Y-113960000D03*
X115600000Y-112940000D03*
X125200000Y-113960000D03*
X125200000Y-112940000D03*
X64000000Y-113960000D03*
X64000000Y-112940000D03*
X131200000Y-113960000D03*
X131200000Y-112940000D03*
X84400000Y-113960000D03*
X84400000Y-112940000D03*
X105400000Y-115910000D03*
X105400000Y-114890000D03*
X89800000Y-115910000D03*
X89800000Y-114890000D03*
X82600000Y-115910000D03*
X82600000Y-114890000D03*
X116800000Y-113960000D03*
X116800000Y-112940000D03*
X114400000Y-113960000D03*
X114400000Y-112940000D03*
X83200000Y-113960000D03*
X83200000Y-112940000D03*
X67000000Y-115910000D03*
X67000000Y-114890000D03*
X113200000Y-113960000D03*
X113200000Y-112940000D03*
X134800000Y-113960000D03*
X134800000Y-112940000D03*
X77200000Y-113960000D03*
X77200000Y-112940000D03*
X91000000Y-115910000D03*
X91000000Y-114890000D03*
X95800000Y-115910000D03*
X95800000Y-114890000D03*
X135400000Y-115910000D03*
X135400000Y-114890000D03*
X76600000Y-115910000D03*
X76600000Y-114890000D03*
X72400000Y-113960000D03*
X72400000Y-112940000D03*
X98200000Y-115910000D03*
X98200000Y-114890000D03*
X86800000Y-113960000D03*
X86800000Y-112940000D03*
X67600000Y-113960000D03*
X67600000Y-112940000D03*
X91600000Y-113960000D03*
X91600000Y-112940000D03*
X121600000Y-113960000D03*
X121600000Y-112940000D03*
X126400000Y-113960000D03*
X126400000Y-112940000D03*
X66400000Y-113960000D03*
X66400000Y-112940000D03*
X71200000Y-113960000D03*
X71200000Y-112940000D03*
X99400000Y-115910000D03*
X99400000Y-114890000D03*
X112600000Y-115910000D03*
X112600000Y-114890000D03*
X134200000Y-115910000D03*
X134200000Y-114890000D03*
X76000000Y-113960000D03*
X76000000Y-112940000D03*
X113800000Y-115910000D03*
X113800000Y-114890000D03*
X94000000Y-113960000D03*
X94000000Y-112940000D03*
X125800000Y-115910000D03*
X125800000Y-114890000D03*
X87400000Y-115910000D03*
X87400000Y-114890000D03*
X117400000Y-115910000D03*
X117400000Y-114890000D03*
X132400000Y-113960000D03*
X132400000Y-112940000D03*
X70600000Y-115910000D03*
X70600000Y-114890000D03*
X122200000Y-115910000D03*
X122200000Y-114890000D03*
X81400000Y-115910000D03*
X81400000Y-114890000D03*
X74200000Y-115910000D03*
X74200000Y-114890000D03*
X94600000Y-115910000D03*
X94600000Y-114890000D03*
X127000000Y-115910000D03*
X127000000Y-114890000D03*
X77800000Y-115910000D03*
X77800000Y-114890000D03*
X97600000Y-113960000D03*
X97600000Y-112940000D03*
D16*
X103825000Y-111525000D03*
X103825000Y-112545000D03*
D15*
X130600000Y-115910000D03*
X130600000Y-114890000D03*
X73000000Y-115910000D03*
X73000000Y-114890000D03*
X95200000Y-113960000D03*
X95200000Y-112940000D03*
X79600000Y-113960000D03*
X79600000Y-112940000D03*
X85000000Y-115910000D03*
X85000000Y-114890000D03*
X62800000Y-113960000D03*
X62800000Y-112940000D03*
D10*
X115000000Y-81820000D03*
D15*
X69400000Y-115910000D03*
X69400000Y-114890000D03*
X124000000Y-113960000D03*
X124000000Y-112940000D03*
X63400000Y-115910000D03*
X63400000Y-114890000D03*
X74800000Y-113960000D03*
X74800000Y-112940000D03*
X73600000Y-113960000D03*
X73600000Y-112940000D03*
X136600000Y-115910000D03*
X136600000Y-114890000D03*
X106000000Y-113960000D03*
X106000000Y-112940000D03*
X80800000Y-113960000D03*
X80800000Y-112940000D03*
X118000000Y-113960000D03*
X118000000Y-112940000D03*
X128200000Y-115910000D03*
X128200000Y-114890000D03*
X71800000Y-115910000D03*
X71800000Y-114890000D03*
X118600000Y-115910000D03*
X118600000Y-114890000D03*
X120400000Y-113960000D03*
X120400000Y-112940000D03*
X75400000Y-115910000D03*
X75400000Y-114890000D03*
D16*
X103000000Y-114290000D03*
X103000000Y-115310000D03*
D15*
X92200000Y-115910000D03*
X92200000Y-114890000D03*
X65800000Y-115910000D03*
X65800000Y-114890000D03*
X88000000Y-113960000D03*
X88000000Y-112940000D03*
X85600000Y-113960000D03*
X85600000Y-112940000D03*
X119200000Y-113960000D03*
X119200000Y-112940000D03*
X127600000Y-113960000D03*
X127600000Y-112940000D03*
X90400000Y-113960000D03*
X90400000Y-112940000D03*
D16*
X101800000Y-114290000D03*
X101800000Y-115310000D03*
D15*
X86200000Y-115910000D03*
X86200000Y-114890000D03*
X110200000Y-115910000D03*
X110200000Y-114890000D03*
X100000000Y-113960000D03*
X100000000Y-112940000D03*
X106600000Y-115910000D03*
X106600000Y-114890000D03*
X108400000Y-113960000D03*
X108400000Y-112940000D03*
X96400000Y-113960000D03*
X96400000Y-112940000D03*
X64600000Y-115910000D03*
X64600000Y-114890000D03*
X115000000Y-115910000D03*
X115000000Y-114890000D03*
X136000000Y-113960000D03*
X136000000Y-112940000D03*
X79000000Y-115910000D03*
X79000000Y-114890000D03*
X110800000Y-113960000D03*
X110800000Y-112940000D03*
X109600000Y-113960000D03*
X109600000Y-112940000D03*
X88600000Y-115910000D03*
X88600000Y-114890000D03*
X131800000Y-115910000D03*
X131800000Y-114890000D03*
X100600000Y-115910000D03*
X100600000Y-114890000D03*
X70000000Y-113960000D03*
X70000000Y-112940000D03*
X137200000Y-113960000D03*
X137200000Y-112940000D03*
X122800000Y-113960000D03*
X122800000Y-112940000D03*
X68800000Y-113960000D03*
X68800000Y-112940000D03*
X111400000Y-115910000D03*
X111400000Y-114890000D03*
X80200000Y-115910000D03*
X80200000Y-114890000D03*
D16*
X101925000Y-111525000D03*
X101925000Y-112545000D03*
D15*
X68200000Y-115910000D03*
X68200000Y-114890000D03*
X128800000Y-113960000D03*
X128800000Y-112940000D03*
X137800000Y-115910000D03*
X137800000Y-114890000D03*
X121000000Y-115910000D03*
X121000000Y-114890000D03*
X116200000Y-115910000D03*
X116200000Y-114890000D03*
X104200000Y-115910000D03*
X104200000Y-114890000D03*
X119800000Y-115910000D03*
X119800000Y-114890000D03*
X93400000Y-115910000D03*
X93400000Y-114890000D03*
X109000000Y-115910000D03*
X109000000Y-114890000D03*
X107200000Y-113960000D03*
X107200000Y-112940000D03*
X130000000Y-113960000D03*
X130000000Y-112940000D03*
X129400000Y-115910000D03*
X129400000Y-114890000D03*
X104800000Y-113960000D03*
X104800000Y-112940000D03*
X78400000Y-113960000D03*
X78400000Y-112940000D03*
D16*
X102875000Y-111525000D03*
X102875000Y-112545000D03*
D15*
X133600000Y-113960000D03*
X133600000Y-112940000D03*
X92800000Y-113960000D03*
X92800000Y-112940000D03*
X83800000Y-115910000D03*
X83800000Y-114890000D03*
D16*
X100975000Y-111525000D03*
X100975000Y-112545000D03*
D15*
X123400000Y-115910000D03*
X123400000Y-114890000D03*
X112000000Y-113960000D03*
X112000000Y-112940000D03*
X62200000Y-115910000D03*
X62200000Y-114890000D03*
X133000000Y-115910000D03*
X133000000Y-114890000D03*
X65200000Y-113960000D03*
X65200000Y-112940000D03*
X124600000Y-115910000D03*
X124600000Y-114890000D03*
D17*
X99000000Y-107000000D03*
D18*
X101000000Y-107000000D03*
X99000000Y-105000000D03*
X101000000Y-105000000D03*
D17*
X65600000Y-105300000D03*
D18*
X67600000Y-105300000D03*
X65600000Y-103300000D03*
X67600000Y-103300000D03*
D19*
X139116000Y-126670000D03*
D20*
X124638000Y-75997000D03*
X97206000Y-74981000D03*
X71552000Y-76124000D03*
X95047000Y-76124000D03*
X72695000Y-76124000D03*
X123241000Y-75997000D03*
D19*
X97600000Y-121700000D03*
X101800000Y-115800000D03*
X100900000Y-113750000D03*
X97569122Y-120469122D03*
X101925000Y-113025000D03*
X98169122Y-119869122D03*
X99400000Y-120350000D03*
X103000000Y-115800000D03*
D20*
X136195000Y-121463000D03*
X96190000Y-74092000D03*
X105842000Y-123749000D03*
X136195000Y-123749000D03*
X62916000Y-120955000D03*
X95936000Y-123750000D03*
X127051000Y-74981000D03*
D19*
X126924000Y-76886000D03*
X101270000Y-76886000D03*
X72250500Y-79045000D03*
X101250000Y-79426000D03*
X100254000Y-77521000D03*
X73711000Y-77521000D03*
X127432000Y-77648000D03*
X103820000Y-113000000D03*
X100000000Y-121850000D03*
X103046642Y-112986601D03*
X100000000Y-120950000D03*
X94600000Y-130000000D03*
D20*
X93700000Y-87600000D03*
X88570000Y-83236000D03*
X93142000Y-83220000D03*
X65100000Y-79100000D03*
X57201000Y-79045000D03*
X100762000Y-86792000D03*
X140640000Y-70853500D03*
X88000000Y-123250000D03*
X113208000Y-86900000D03*
X111176000Y-83220000D03*
D21*
X111200000Y-80200000D03*
D19*
X122733000Y-79426000D03*
X104250000Y-79426000D03*
X103250000Y-78791000D03*
X123495000Y-78791000D03*
X68618300Y-78448100D03*
X69380300Y-77762300D03*
X102250000Y-78156000D03*
X122606000Y-78156000D03*
X93400000Y-129000000D03*
X92800000Y-129600000D03*
D21*
X95200000Y-88900000D03*
X97600000Y-88600000D03*
D19*
X92800000Y-128400000D03*
D20*
X90665500Y-88760500D03*
X113208000Y-84360000D03*
D19*
X101800000Y-113775000D03*
X100975000Y-111050000D03*
X101925000Y-111050000D03*
X71400000Y-105000000D03*
X62800000Y-112400000D03*
X72200000Y-105800000D03*
X64000000Y-112400000D03*
X73000000Y-105000000D03*
X65200000Y-112400000D03*
X73800000Y-105800000D03*
X66400000Y-112400000D03*
X74600000Y-105000000D03*
X67600000Y-112400000D03*
X75400000Y-105800000D03*
D20*
X103000000Y-80934000D03*
D19*
X68800000Y-112400000D03*
X76200000Y-105000000D03*
X70000000Y-112400000D03*
X77000000Y-105800000D03*
X71200000Y-112400000D03*
X77800000Y-105000000D03*
X60900000Y-110800000D03*
X63200000Y-105300000D03*
X72400000Y-112400000D03*
X78600000Y-105800000D03*
X73600000Y-112400000D03*
X103000000Y-113775000D03*
X103825000Y-111050000D03*
X102875000Y-111050000D03*
X79400000Y-105000000D03*
X74800000Y-112400000D03*
X80200000Y-105800000D03*
X76000000Y-112400000D03*
X81000000Y-105000000D03*
X77200000Y-112400000D03*
X81800000Y-105800000D03*
X78400000Y-112400000D03*
X82600000Y-105000000D03*
X79600000Y-112400000D03*
X83400000Y-105800000D03*
X80800000Y-112400000D03*
X84200000Y-105000000D03*
X82000000Y-112400000D03*
X85000000Y-105800000D03*
X83200000Y-112400000D03*
X85800000Y-105000000D03*
X84400000Y-112400000D03*
X86600000Y-105800000D03*
X85600000Y-112400000D03*
X87400000Y-105000000D03*
X86800000Y-112400000D03*
X88200000Y-105800000D03*
X88000000Y-112400000D03*
X89000000Y-105000000D03*
X89200000Y-112400000D03*
X89800000Y-105800000D03*
X90400000Y-112400000D03*
X90600000Y-105000000D03*
X91600000Y-112400000D03*
X94000000Y-94400000D03*
X92800000Y-112400000D03*
X94600000Y-95200000D03*
X94000000Y-112400000D03*
X95000000Y-96000000D03*
X95200000Y-112400000D03*
X95600000Y-96800000D03*
X96400000Y-112400000D03*
X95600000Y-97600000D03*
X97600000Y-112400000D03*
X96000000Y-98600000D03*
X105588000Y-92253000D03*
X104400000Y-97800000D03*
X104950000Y-111050000D03*
X103000000Y-109100000D03*
X100675500Y-114500000D03*
X98200000Y-111050000D03*
X104210930Y-114540827D03*
X104400000Y-96200000D03*
X105400000Y-112393398D03*
X104800000Y-95200000D03*
X106600000Y-112393399D03*
X105400000Y-94400000D03*
X107800000Y-112393398D03*
X106000000Y-93600000D03*
X109000000Y-112393398D03*
X110200000Y-104990248D03*
X110200000Y-112393398D03*
X111000000Y-105790248D03*
X111400000Y-112393399D03*
X111800000Y-104990248D03*
X112600000Y-112393398D03*
X112600000Y-105790248D03*
X113800000Y-112393399D03*
X113400000Y-104990248D03*
X115000000Y-112393398D03*
X114200000Y-105790248D03*
X116200000Y-112393398D03*
X115000000Y-104990248D03*
X117400000Y-112393398D03*
X115800000Y-105790248D03*
X118600000Y-112393398D03*
X116600000Y-104990248D03*
X119800000Y-112393398D03*
X117400000Y-105790248D03*
X121000000Y-112393398D03*
X118200000Y-104990248D03*
X122200000Y-112393398D03*
X119000000Y-105790248D03*
X123400000Y-112393398D03*
X119800000Y-104990248D03*
X124600000Y-112393399D03*
X120600000Y-105790248D03*
X125800000Y-112393399D03*
X121400000Y-104990248D03*
X127000000Y-112393399D03*
X122200000Y-105790248D03*
X128200000Y-112393398D03*
X123000000Y-104990248D03*
X129400000Y-112393398D03*
X123800000Y-105790248D03*
X130600000Y-112393399D03*
X124600000Y-104990248D03*
X131800000Y-112393399D03*
X125400000Y-105790248D03*
X133000000Y-112393398D03*
X126200000Y-104990248D03*
X134200000Y-112393398D03*
X127000000Y-105790248D03*
X135400000Y-112393398D03*
X127800000Y-104990248D03*
X136600000Y-112393398D03*
X128600000Y-105790248D03*
X137803314Y-112396766D03*
X62300000Y-106400000D03*
X62300000Y-109600000D03*
D22*
X139116000Y-126670000D02*
X137880000Y-126670000D01*
X137800000Y-126750000D02*
X137200000Y-126750000D01*
X137880000Y-126670000D02*
X137800000Y-126750000D01*
D23*
X71552000Y-76124000D02*
X71552000Y-75489000D01*
X124638000Y-75997000D02*
X123622000Y-74981000D01*
X97206000Y-74981000D02*
X123622000Y-74981000D01*
X71552000Y-75489000D02*
X72060000Y-74981000D01*
X72060000Y-74981000D02*
X72695000Y-74981000D01*
X97206000Y-74981000D02*
X72695000Y-74981000D01*
X74473000Y-76124000D02*
X72949000Y-76124000D01*
X95047000Y-76124000D02*
X74473000Y-76124000D01*
X95047000Y-75997000D02*
X121463000Y-75997000D01*
X121463000Y-75997000D02*
X123368000Y-75997000D01*
D24*
X62200000Y-115910000D02*
X62200000Y-118050000D01*
X62800000Y-113960000D02*
X62800000Y-118050000D01*
X63400000Y-115910000D02*
X63400000Y-118050000D01*
X64000000Y-113960000D02*
X64000000Y-118050000D01*
X64600000Y-115910000D02*
X64600000Y-118050000D01*
X65200000Y-113960000D02*
X65200000Y-118050000D01*
X65800000Y-115910000D02*
X65800000Y-118050000D01*
X66400000Y-113960000D02*
X66400000Y-118050000D01*
X67000000Y-115910000D02*
X67000000Y-118050000D01*
X67600000Y-113960000D02*
X67600000Y-118050000D01*
X68200000Y-115910000D02*
X68200000Y-118050000D01*
X68800000Y-113960000D02*
X68800000Y-118050000D01*
X69400000Y-115910000D02*
X69400000Y-118050000D01*
X70000000Y-113960000D02*
X70000000Y-118050000D01*
X70600000Y-115910000D02*
X70600000Y-118050000D01*
X71200000Y-113960000D02*
X71200000Y-118050000D01*
X71800000Y-115910000D02*
X71800000Y-118050000D01*
X72400000Y-113960000D02*
X72400000Y-118050000D01*
X73000000Y-115910000D02*
X73000000Y-118050000D01*
X73600000Y-113960000D02*
X73600000Y-118050000D01*
X74200000Y-115910000D02*
X74200000Y-118050000D01*
X74800000Y-113960000D02*
X74800000Y-118050000D01*
X75400000Y-115910000D02*
X75400000Y-118050000D01*
X76000000Y-113960000D02*
X76000000Y-118050000D01*
X76600000Y-115910000D02*
X76600000Y-118050000D01*
X77200000Y-113960000D02*
X77200000Y-118050000D01*
X77800000Y-115910000D02*
X77800000Y-118050000D01*
X78400000Y-113960000D02*
X78400000Y-118050000D01*
X79000000Y-115910000D02*
X79000000Y-118050000D01*
X79600000Y-113960000D02*
X79600000Y-118050000D01*
X80200000Y-115910000D02*
X80200000Y-118050000D01*
X80800000Y-113960000D02*
X80800000Y-118050000D01*
X81400000Y-115910000D02*
X81400000Y-118050000D01*
X82000000Y-113960000D02*
X82000000Y-118050000D01*
X82600000Y-115910000D02*
X82600000Y-118050000D01*
X83200000Y-113960000D02*
X83200000Y-118050000D01*
X83800000Y-115910000D02*
X83800000Y-118050000D01*
X84400000Y-113960000D02*
X84400000Y-118050000D01*
X85000000Y-115910000D02*
X85000000Y-118050000D01*
X85600000Y-113960000D02*
X85600000Y-118050000D01*
X86200000Y-115910000D02*
X86200000Y-118050000D01*
X86800000Y-113960000D02*
X86800000Y-118050000D01*
X87400000Y-115910000D02*
X87400000Y-118050000D01*
X88000000Y-113960000D02*
X88000000Y-118050000D01*
X88600000Y-115910000D02*
X88600000Y-118050000D01*
X89200000Y-113960000D02*
X89200000Y-118050000D01*
X89800000Y-115910000D02*
X89800000Y-118050000D01*
X90400000Y-113960000D02*
X90400000Y-118050000D01*
X91000000Y-115910000D02*
X91000000Y-118050000D01*
X91600000Y-113960000D02*
X91600000Y-118050000D01*
X92200000Y-115910000D02*
X92200000Y-118050000D01*
X92800000Y-113960000D02*
X92800000Y-118050000D01*
X93400000Y-115910000D02*
X93400000Y-118050000D01*
X94000000Y-113960000D02*
X94000000Y-118050000D01*
X94600000Y-115910000D02*
X94600000Y-118050000D01*
X95200000Y-113960000D02*
X95200000Y-118050000D01*
X96400000Y-113960000D02*
X96400000Y-118050000D01*
X100000000Y-113960000D02*
X100000000Y-118050000D01*
X104200000Y-115910000D02*
X104200000Y-118050000D01*
X105400000Y-115910000D02*
X105400000Y-118050000D01*
X106600000Y-115910000D02*
X106600000Y-118050000D01*
X107200000Y-113960000D02*
X107200000Y-118050000D01*
X107800000Y-115910000D02*
X107800000Y-118050000D01*
X108400000Y-113960000D02*
X108400000Y-118050000D01*
X109000000Y-115910000D02*
X109000000Y-118050000D01*
X109600000Y-113960000D02*
X109600000Y-118050000D01*
X110200000Y-115910000D02*
X110200000Y-118050000D01*
X110800000Y-113960000D02*
X110800000Y-118050000D01*
X111400000Y-115910000D02*
X111400000Y-118050000D01*
X112000000Y-113960000D02*
X112000000Y-118050000D01*
X112600000Y-115910000D02*
X112600000Y-118050000D01*
X113200000Y-113960000D02*
X113200000Y-118050000D01*
X113800000Y-115910000D02*
X113800000Y-118050000D01*
X114400000Y-113960000D02*
X114400000Y-118050000D01*
X115000000Y-115910000D02*
X115000000Y-118050000D01*
X115600000Y-113960000D02*
X115600000Y-118050000D01*
X116200000Y-115910000D02*
X116200000Y-118050000D01*
X116800000Y-113960000D02*
X116800000Y-118050000D01*
X117400000Y-115910000D02*
X117400000Y-118050000D01*
X118000000Y-113960000D02*
X118000000Y-118050000D01*
X118600000Y-115910000D02*
X118600000Y-118050000D01*
X119200000Y-113960000D02*
X119200000Y-118050000D01*
X119800000Y-115910000D02*
X119800000Y-118050000D01*
X120400000Y-113960000D02*
X120400000Y-118050000D01*
X121000000Y-115910000D02*
X121000000Y-118050000D01*
X121600000Y-113960000D02*
X121600000Y-118050000D01*
X122200000Y-115910000D02*
X122200000Y-118050000D01*
X122800000Y-113960000D02*
X122800000Y-118050000D01*
X123400000Y-115910000D02*
X123400000Y-118050000D01*
X124000000Y-113960000D02*
X124000000Y-118050000D01*
X124600000Y-115910000D02*
X124600000Y-118050000D01*
X125200000Y-113960000D02*
X125200000Y-118050000D01*
X125800000Y-115910000D02*
X125800000Y-118050000D01*
X126400000Y-113960000D02*
X126400000Y-118050000D01*
X127000000Y-115910000D02*
X127000000Y-118050000D01*
X127600000Y-113960000D02*
X127600000Y-118050000D01*
X128200000Y-115910000D02*
X128200000Y-118050000D01*
X128800000Y-113960000D02*
X128800000Y-118050000D01*
X129400000Y-115910000D02*
X129400000Y-118050000D01*
X130000000Y-113960000D02*
X130000000Y-118050000D01*
X130600000Y-115910000D02*
X130600000Y-118050000D01*
X131200000Y-113960000D02*
X131200000Y-118050000D01*
X131800000Y-115910000D02*
X131800000Y-118050000D01*
X132400000Y-113960000D02*
X132400000Y-118050000D01*
X133000000Y-115910000D02*
X133000000Y-118050000D01*
X133600000Y-113960000D02*
X133600000Y-118050000D01*
X134200000Y-115910000D02*
X134200000Y-118050000D01*
X134800000Y-113960000D02*
X134800000Y-118050000D01*
X135400000Y-115910000D02*
X135400000Y-118050000D01*
X136000000Y-113960000D02*
X136000000Y-118050000D01*
X136600000Y-115910000D02*
X136600000Y-118050000D01*
X137200000Y-113960000D02*
X137200000Y-118050000D01*
X137800000Y-115910000D02*
X137800000Y-118050000D01*
X95800000Y-115910000D02*
X95800000Y-118050000D01*
X97000000Y-115910000D02*
X97000000Y-118050000D01*
X97600000Y-113960000D02*
X97600000Y-118050000D01*
X98200000Y-115910000D02*
X98200000Y-118050000D01*
X98800000Y-113960000D02*
X98800000Y-118050000D01*
X99400000Y-115910000D02*
X99400000Y-118050000D01*
X100600000Y-115910000D02*
X100600000Y-118050000D01*
X104800000Y-113960000D02*
X104800000Y-118050000D01*
X106000000Y-113960000D02*
X106000000Y-118050000D01*
X97600000Y-126750000D02*
X97600000Y-121690000D01*
X100860000Y-113250000D02*
X100975000Y-113135000D01*
X98200000Y-121100000D02*
X97569122Y-120469122D01*
X98200000Y-126750000D02*
X98200000Y-121100000D01*
X100900000Y-113750000D02*
X100860000Y-113710000D01*
X100975000Y-113135000D02*
X100975000Y-112545000D01*
X100860000Y-113710000D02*
X100860000Y-113250000D01*
X98800000Y-126750000D02*
X98800000Y-120500000D01*
X98800000Y-120500000D02*
X98169122Y-119869122D01*
X99400000Y-126750000D02*
X99400000Y-120350000D01*
D23*
X136195000Y-121463000D02*
X136195000Y-120447000D01*
X96317000Y-73965000D02*
X124130000Y-73965000D01*
X62916000Y-120955000D02*
X63678000Y-120955000D01*
X96190000Y-74092000D02*
X96317000Y-73965000D01*
X109144000Y-120447000D02*
X105842000Y-123749000D01*
X124130000Y-73965000D02*
X125146000Y-74981000D01*
X125146000Y-74981000D02*
X127051000Y-74981000D01*
X136195000Y-120447000D02*
X109144000Y-120447000D01*
X136195000Y-121463000D02*
X136195000Y-123749000D01*
X93396000Y-120955000D02*
X63678000Y-120955000D01*
X95936000Y-123495000D02*
X93396000Y-120955000D01*
X95936000Y-123750000D02*
X95936000Y-123495000D01*
D22*
X101250000Y-79426000D02*
X77203500Y-79426000D01*
X73838000Y-79299000D02*
X77076500Y-79299000D01*
X72377500Y-79299000D02*
X73139500Y-79299000D01*
X77076500Y-79299000D02*
X77203500Y-79426000D01*
X72504500Y-79299000D02*
X72250500Y-79045000D01*
X73139500Y-79299000D02*
X73838000Y-79299000D01*
X73139500Y-79299000D02*
X72504500Y-79299000D01*
X124257000Y-76886000D02*
X126797000Y-76886000D01*
X101270000Y-76886000D02*
X124257000Y-76886000D01*
X125654000Y-77648000D02*
X125527000Y-77521000D01*
X125527000Y-77521000D02*
X106985000Y-77521000D01*
X127432000Y-77648000D02*
X125654000Y-77648000D01*
X100254000Y-77521000D02*
X75235000Y-77521000D01*
X75235000Y-77521000D02*
X73711000Y-77521000D01*
X106985000Y-77521000D02*
X100254000Y-77521000D01*
D24*
X103825000Y-112545000D02*
X103825000Y-112995000D01*
X100000000Y-126750000D02*
X100000000Y-121700000D01*
X103825000Y-112995000D02*
X103820000Y-113000000D01*
X100600000Y-126750000D02*
X100600000Y-122300000D01*
X102875000Y-112545000D02*
X102875000Y-112814959D01*
X100300000Y-120950000D02*
X100600000Y-121250000D01*
X100600000Y-121250000D02*
X100600000Y-122300000D01*
X102875000Y-112814959D02*
X103046642Y-112986601D01*
X100000000Y-120950000D02*
X100300000Y-120950000D01*
D22*
X94600000Y-130000000D02*
X94600000Y-129000000D01*
X94600000Y-129000000D02*
X94600000Y-126750000D01*
D25*
X95200000Y-126750000D02*
X95200000Y-124950000D01*
X95200000Y-124950000D02*
X94750000Y-124500000D01*
X94750000Y-124500000D02*
X92750000Y-124500000D01*
X92750000Y-124500000D02*
X91500000Y-123250000D01*
X91500000Y-123250000D02*
X88000000Y-123250000D01*
X91500000Y-123250000D02*
X88000000Y-123250000D01*
X95200000Y-124950000D02*
X94750000Y-124500000D01*
X94750000Y-124500000D02*
X92750000Y-124500000D01*
D23*
X114986000Y-86900000D02*
X113208000Y-86900000D01*
D25*
X92750000Y-124500000D02*
X91500000Y-123250000D01*
X95200000Y-126750000D02*
X95200000Y-124950000D01*
D22*
X106223000Y-79426000D02*
X104250000Y-79426000D01*
X106223000Y-79426000D02*
X122733000Y-79426000D01*
X69608900Y-78448100D02*
X69647000Y-78410000D01*
X68618300Y-78448100D02*
X69608900Y-78448100D01*
X73139500Y-78791000D02*
X72631500Y-78283000D01*
X69774000Y-78283000D02*
X69647000Y-78410000D01*
X103250000Y-78791000D02*
X73139500Y-78791000D01*
X72631500Y-78283000D02*
X69774000Y-78283000D01*
X106858000Y-78791000D02*
X123495000Y-78791000D01*
X106858000Y-78791000D02*
X103250000Y-78791000D01*
X106096000Y-78156000D02*
X122606000Y-78156000D01*
X102250000Y-78156000D02*
X73203000Y-78156000D01*
X106096000Y-78156000D02*
X102250000Y-78156000D01*
X73203000Y-78156000D02*
X72822000Y-77775000D01*
X72822000Y-77775000D02*
X69367600Y-77775000D01*
X93400000Y-129000000D02*
X93400000Y-126750000D01*
X94000000Y-129300000D02*
X94000000Y-126750000D01*
X93700000Y-129600000D02*
X94000000Y-129300000D01*
X93700000Y-129600000D02*
X92800000Y-129600000D01*
X95500000Y-88600000D02*
X97600000Y-88600000D01*
X95200000Y-88900000D02*
X95500000Y-88600000D01*
X92800000Y-128400000D02*
X92800000Y-126750000D01*
D25*
X96602000Y-95602000D02*
X96800000Y-95800000D01*
X112500000Y-85068000D02*
X113208000Y-84360000D01*
X112350000Y-88450000D02*
X111100000Y-89700000D01*
X96602000Y-91698000D02*
X96602000Y-95602000D01*
X109800000Y-89700000D02*
X110200000Y-89700000D01*
X90665500Y-88760500D02*
X90665500Y-88765500D01*
X91600000Y-89700000D02*
X96600000Y-89700000D01*
D23*
X114986000Y-84360000D02*
X113208000Y-84360000D01*
D25*
X96602000Y-91444000D02*
X96602000Y-91698000D01*
X112500000Y-88300000D02*
X112500000Y-85068000D01*
X111900000Y-88900000D02*
X112350000Y-88450000D01*
X111100000Y-89700000D02*
X109800000Y-89700000D01*
X99000000Y-103400000D02*
X99000000Y-105000000D01*
X96800000Y-101200000D02*
X99000000Y-103400000D01*
X96602000Y-91444000D02*
X96602000Y-91252000D01*
X96602000Y-91002000D02*
X96602000Y-89702000D01*
X96600000Y-89700000D02*
X109800000Y-89700000D01*
X96602000Y-89702000D02*
X96600000Y-89700000D01*
X96602000Y-91698000D02*
X96602000Y-91002000D01*
X90665500Y-88765500D02*
X91600000Y-89700000D01*
X112350000Y-88450000D02*
X112500000Y-88300000D01*
X96800000Y-95800000D02*
X96800000Y-101200000D01*
D24*
X62200000Y-114890000D02*
X62200000Y-112257537D01*
X71400000Y-106500000D02*
X71400000Y-105000000D01*
X68225736Y-110300000D02*
X69100000Y-109425736D01*
X67775736Y-110300000D02*
X68225736Y-110300000D01*
X63782536Y-110675000D02*
X67400736Y-110675000D01*
X67400736Y-110675000D02*
X67775736Y-110300000D01*
X69100000Y-108800000D02*
X71400000Y-106500000D01*
X62200000Y-112257537D02*
X63782536Y-110675000D01*
X69100000Y-109425736D02*
X69100000Y-108800000D01*
X62800000Y-112430080D02*
X62796686Y-112426766D01*
X67900000Y-110600000D02*
X68350000Y-110600000D01*
X64225000Y-110975000D02*
X67525000Y-110975000D01*
X68350000Y-110600000D02*
X72200000Y-106750000D01*
X63400000Y-114890000D02*
X63400000Y-111800000D01*
X67525000Y-110975000D02*
X67900000Y-110600000D01*
X63400000Y-111800000D02*
X64225000Y-110975000D01*
X72200000Y-106750000D02*
X72200000Y-105800000D01*
X64600000Y-114890000D02*
X64600000Y-111950000D01*
X65275000Y-111275000D02*
X67700736Y-111275000D01*
X71950000Y-107600000D02*
X72100000Y-107450000D01*
X68650000Y-110900000D02*
X71950000Y-107600000D01*
X68075736Y-110900000D02*
X68650000Y-110900000D01*
X73000000Y-106550000D02*
X73000000Y-105000000D01*
X64600000Y-111950000D02*
X65275000Y-111275000D01*
X71950000Y-107600000D02*
X73000000Y-106550000D01*
X67700736Y-111275000D02*
X68075736Y-110900000D01*
X68200000Y-111200000D02*
X68800000Y-111200000D01*
X69550000Y-110450000D02*
X69850000Y-110450000D01*
X67825000Y-111575000D02*
X68200000Y-111200000D01*
X65800000Y-114890000D02*
X65800000Y-112100000D01*
X73800000Y-106500000D02*
X73800000Y-105800000D01*
X66325000Y-111575000D02*
X67825000Y-111575000D01*
X68800000Y-111200000D02*
X69550000Y-110450000D01*
X69850000Y-110450000D02*
X73800000Y-106500000D01*
X65800000Y-112100000D02*
X66325000Y-111575000D01*
X67000000Y-112250000D02*
X67375000Y-111875000D01*
X67000000Y-114890000D02*
X67000000Y-112250000D01*
X69550000Y-110900000D02*
X70000000Y-110900000D01*
X74215000Y-107765000D02*
X74400000Y-107580000D01*
X68350000Y-111500000D02*
X68950000Y-111500000D01*
X74600000Y-107380000D02*
X74600000Y-105000000D01*
X72100000Y-108800000D02*
X73180000Y-108800000D01*
X68000736Y-111849264D02*
X68350000Y-111500000D01*
X68000736Y-111875000D02*
X68000736Y-111849264D01*
X74215000Y-107765000D02*
X74600000Y-107380000D01*
X70000000Y-110900000D02*
X72100000Y-108800000D01*
X67375000Y-111875000D02*
X68000736Y-111875000D01*
X73180000Y-108800000D02*
X74215000Y-107765000D01*
X68950000Y-111500000D02*
X69550000Y-110900000D01*
X69550000Y-111350000D02*
X70150000Y-111350000D01*
X70150000Y-111350000D02*
X72220000Y-109280000D01*
X68200000Y-112100000D02*
X68500000Y-111800000D01*
X68200000Y-114890000D02*
X68200000Y-112100000D01*
X68500000Y-111800000D02*
X69100000Y-111800000D01*
X69100000Y-111800000D02*
X69550000Y-111350000D01*
X75400000Y-107630000D02*
X75400000Y-105800000D01*
X72220000Y-109280000D02*
X73750000Y-109280000D01*
X73750000Y-109280000D02*
X75400000Y-107630000D01*
D25*
X110792000Y-81820000D02*
X115000000Y-81820000D01*
X103000000Y-80934000D02*
X109906000Y-80934000D01*
X109906000Y-80934000D02*
X110792000Y-81820000D01*
D24*
X76200000Y-107880000D02*
X76200000Y-105000000D01*
X69400000Y-114890000D02*
X69400000Y-112100000D01*
X69400000Y-112100000D02*
X69700000Y-111800000D01*
X69700000Y-111800000D02*
X70300000Y-111800000D01*
X70300000Y-111800000D02*
X72520000Y-109580000D01*
X72520000Y-109580000D02*
X74500000Y-109580000D01*
X74500000Y-109580000D02*
X76200000Y-107880000D01*
X75100000Y-109880000D02*
X77000000Y-107980000D01*
X70600000Y-114890000D02*
X70600000Y-112100000D01*
X72820000Y-109880000D02*
X75100000Y-109880000D01*
X70600000Y-112100000D02*
X72820000Y-109880000D01*
X77000000Y-107980000D02*
X77000000Y-105800000D01*
X71800000Y-114890000D02*
X71800000Y-111650000D01*
X75700000Y-110180000D02*
X77800000Y-108080000D01*
X77800000Y-108080000D02*
X77800000Y-105000000D01*
X73270000Y-110180000D02*
X75700000Y-110180000D01*
X71800000Y-111650000D02*
X73270000Y-110180000D01*
X65600000Y-103300000D02*
X65077000Y-103300000D01*
D22*
X63400000Y-126750000D02*
X63400000Y-124042500D01*
X63200000Y-104200000D02*
X64100000Y-103300000D01*
X63200000Y-105300000D02*
X63200000Y-104200000D01*
X64100000Y-103300000D02*
X65600000Y-103300000D01*
X61074500Y-111574500D02*
X61074500Y-110974500D01*
X61074500Y-112174500D02*
X61074500Y-111574500D01*
X63400000Y-124042500D02*
X61074500Y-121717000D01*
X61074500Y-112174500D02*
X61074500Y-111493500D01*
X61074500Y-121717000D02*
X61074500Y-112174500D01*
X61074500Y-110974500D02*
X60900000Y-110800000D01*
D24*
X76300000Y-110480000D02*
X78600000Y-108180000D01*
X73000000Y-114890000D02*
X73000000Y-111230000D01*
X73750000Y-110480000D02*
X76300000Y-110480000D01*
X73000000Y-111230000D02*
X73750000Y-110480000D01*
X78600000Y-108180000D02*
X78600000Y-105800000D01*
X74200000Y-114890000D02*
X74200000Y-111530000D01*
X74950000Y-110780000D02*
X76870000Y-110780000D01*
X79400000Y-108250000D02*
X79400000Y-105000000D01*
X76870000Y-110780000D02*
X79400000Y-108250000D01*
X74200000Y-111530000D02*
X74950000Y-110780000D01*
X75400000Y-111830000D02*
X76150000Y-111080000D01*
X77500000Y-111080000D02*
X80200000Y-108380000D01*
X76150000Y-111080000D02*
X77500000Y-111080000D01*
X80200000Y-108380000D02*
X80200000Y-105800000D01*
X75400000Y-114890000D02*
X75400000Y-111830000D01*
X77200000Y-111380000D02*
X78070000Y-111380000D01*
X76600000Y-111980000D02*
X77200000Y-111380000D01*
X81000000Y-108450000D02*
X81000000Y-105000000D01*
X76600000Y-114890000D02*
X76600000Y-111980000D01*
X78070000Y-111380000D02*
X81000000Y-108450000D01*
X77800000Y-114890000D02*
X77800000Y-111980000D01*
X77800000Y-111980000D02*
X78100000Y-111680000D01*
X81800000Y-108550000D02*
X81800000Y-105800000D01*
X78670000Y-111680000D02*
X81800000Y-108550000D01*
X78100000Y-111680000D02*
X78670000Y-111680000D01*
X79000000Y-112130000D02*
X79300000Y-111830000D01*
X82600000Y-108680000D02*
X82600000Y-105000000D01*
X79300000Y-111830000D02*
X79450000Y-111830000D01*
X79000000Y-114890000D02*
X79000000Y-112130000D01*
X79450000Y-111830000D02*
X82600000Y-108680000D01*
X81865000Y-110315000D02*
X83400000Y-108780000D01*
X80200000Y-114890000D02*
X80200000Y-111980000D01*
X83400000Y-108780000D02*
X83400000Y-105800000D01*
X81865000Y-110315000D02*
X82000000Y-110180000D01*
X80200000Y-111980000D02*
X81865000Y-110315000D01*
X84200000Y-108850000D02*
X84200000Y-105000000D01*
X81400000Y-114890000D02*
X81400000Y-111650000D01*
X81400000Y-111650000D02*
X84200000Y-108850000D01*
X82600000Y-111380000D02*
X85000000Y-108980000D01*
X82600000Y-114890000D02*
X82600000Y-111380000D01*
X85000000Y-108980000D02*
X85000000Y-105800000D01*
X83800000Y-114890000D02*
X83800000Y-111080000D01*
X83800000Y-111080000D02*
X85800000Y-109080000D01*
X85800000Y-109080000D02*
X85800000Y-105000000D01*
X85000000Y-114890000D02*
X85000000Y-110930000D01*
X86600000Y-109330000D02*
X86600000Y-105800000D01*
X85000000Y-110930000D02*
X86600000Y-109330000D01*
X86200000Y-114890000D02*
X86200000Y-110830000D01*
X87400000Y-109630000D02*
X87400000Y-105000000D01*
X86200000Y-110830000D02*
X87400000Y-109630000D01*
X87400000Y-114890000D02*
X87400000Y-110780000D01*
X87400000Y-110780000D02*
X88200000Y-109980000D01*
X88200000Y-109980000D02*
X88200000Y-105800000D01*
X88600000Y-112970000D02*
X88600000Y-110580000D01*
X88600000Y-110580000D02*
X89000000Y-110180000D01*
X89000000Y-110180000D02*
X89000000Y-105000000D01*
X88600000Y-114890000D02*
X88600000Y-111350000D01*
X89800000Y-114890000D02*
X89800000Y-105800000D01*
X91000000Y-110600000D02*
X90600000Y-110200000D01*
X91000000Y-114890000D02*
X91000000Y-110600000D01*
X90600000Y-110200000D02*
X90600000Y-105000000D01*
X93800000Y-106200000D02*
X93800000Y-94600000D01*
X92200000Y-107800000D02*
X92200000Y-114890000D01*
X93800000Y-94600000D02*
X94000000Y-94400000D01*
X92200000Y-107800000D02*
X93800000Y-106200000D01*
X94200000Y-107800000D02*
X93400000Y-108600000D01*
X94200000Y-95600000D02*
X94600000Y-95200000D01*
X94200000Y-96200000D02*
X94200000Y-107800000D01*
X94200000Y-96200000D02*
X94200000Y-95800000D01*
X94200000Y-96200000D02*
X94200000Y-95600000D01*
X93400000Y-108600000D02*
X93400000Y-114890000D01*
X94600000Y-97200000D02*
X94600000Y-97000000D01*
X94600000Y-96400000D02*
X95000000Y-96000000D01*
X94600000Y-114890000D02*
X94600000Y-96400000D01*
X94600000Y-97200000D02*
X94600000Y-96400000D01*
X95000000Y-109950000D02*
X95800000Y-110750000D01*
X95600000Y-96800000D02*
X95200000Y-96800000D01*
X95000000Y-98600000D02*
X95000000Y-98400000D01*
X95800000Y-110750000D02*
X95800000Y-114890000D01*
X95000000Y-97000000D02*
X95200000Y-96800000D01*
X95000000Y-98600000D02*
X95000000Y-98100000D01*
X95000000Y-98100000D02*
X95000000Y-97000000D01*
X95000000Y-98100000D02*
X95000000Y-109950000D01*
X97000000Y-111350000D02*
X97000000Y-114890000D01*
X95350000Y-109700000D02*
X97000000Y-111350000D01*
X95350000Y-97850000D02*
X95350000Y-109700000D01*
X95600000Y-97600000D02*
X95350000Y-97850000D01*
X96000000Y-98600000D02*
X95800000Y-98800000D01*
X97375000Y-110975000D02*
X97375000Y-111275000D01*
X95800000Y-109400000D02*
X97375000Y-110975000D01*
X97600000Y-111500000D02*
X97750000Y-111500000D01*
X95800000Y-98800000D02*
X95800000Y-109400000D01*
X97750000Y-111500000D02*
X98200000Y-111950000D01*
X98200000Y-111950000D02*
X98200000Y-114890000D01*
X97375000Y-111275000D02*
X97600000Y-111500000D01*
X104200000Y-98800000D02*
X104200000Y-108800000D01*
X103300000Y-109700000D02*
X99400000Y-109700000D01*
X105588000Y-92253000D02*
X104000000Y-93800000D01*
X103600000Y-98200000D02*
X104200000Y-98800000D01*
X98800000Y-110300000D02*
X98800000Y-112940000D01*
X104200000Y-108800000D02*
X103300000Y-109700000D01*
X104000000Y-93800000D02*
X103600000Y-94200000D01*
X99400000Y-109700000D02*
X98800000Y-110300000D01*
X103600000Y-94200000D02*
X103600000Y-98200000D01*
X99400000Y-114890000D02*
X99400000Y-110600000D01*
X104600000Y-109000000D02*
X104600000Y-98000000D01*
X103600000Y-110000000D02*
X104600000Y-109000000D01*
X104600000Y-98000000D02*
X104400000Y-97800000D01*
X99400000Y-110600000D02*
X100000000Y-110000000D01*
X100000000Y-110000000D02*
X103600000Y-110000000D01*
X100750000Y-110300000D02*
X103900000Y-110300000D01*
X100000000Y-111050000D02*
X100750000Y-110300000D01*
X100000000Y-112400000D02*
X100000000Y-111200000D01*
X100000000Y-112400000D02*
X100000000Y-111050000D01*
X104200000Y-110300000D02*
X104950000Y-111050000D01*
X103900000Y-110300000D02*
X104200000Y-110300000D01*
X100000000Y-112400000D02*
X100000000Y-112940000D01*
X98200000Y-109850000D02*
X98950000Y-109100000D01*
X98950000Y-109100000D02*
X103000000Y-109100000D01*
X100600000Y-114890000D02*
X100600000Y-114575500D01*
X98200000Y-109850000D02*
X98200000Y-111050000D01*
X100600000Y-114575500D02*
X100675500Y-114500000D01*
X104200000Y-114551757D02*
X104210930Y-114540827D01*
X104200000Y-114890000D02*
X104200000Y-114551757D01*
X104200000Y-114530000D02*
X104180000Y-114510000D01*
X104200000Y-114890000D02*
X104200000Y-114530000D01*
X105000000Y-97800000D02*
X105000000Y-96800000D01*
X105000000Y-97800000D02*
X105000000Y-97400000D01*
X104800000Y-112550000D02*
X104800000Y-112940000D01*
X105550000Y-110500000D02*
X105550000Y-111350000D01*
X105550000Y-111350000D02*
X104800000Y-112100000D01*
X105000000Y-109950000D02*
X105550000Y-110500000D01*
X104800000Y-112550000D02*
X104800000Y-112100000D01*
X105000000Y-96800000D02*
X104400000Y-96200000D01*
X105000000Y-97800000D02*
X105000000Y-109950000D01*
X105400000Y-114890000D02*
X105400000Y-112393398D01*
X106000000Y-112940000D02*
X106000000Y-112150000D01*
X106700000Y-111450000D02*
X106700000Y-110430000D01*
X105400000Y-109130000D02*
X105400000Y-96600000D01*
X106700000Y-110430000D02*
X105400000Y-109130000D01*
X106000000Y-112150000D02*
X106700000Y-111450000D01*
X105400000Y-96600000D02*
X105400000Y-96200000D01*
X105400000Y-96600000D02*
X105400000Y-95800000D01*
X105400000Y-95800000D02*
X104800000Y-95200000D01*
X106600000Y-114890000D02*
X106600000Y-112393399D01*
X105800000Y-108800000D02*
X107200000Y-110200000D01*
X105800000Y-94800000D02*
X105400000Y-94400000D01*
X105800000Y-95400000D02*
X105800000Y-108800000D01*
X105800000Y-95400000D02*
X105800000Y-94800000D01*
X107200000Y-110200000D02*
X107200000Y-112940000D01*
X105800000Y-95400000D02*
X105800000Y-95000000D01*
X107800000Y-114890000D02*
X107800000Y-112393398D01*
X106200000Y-107600000D02*
X108400000Y-109800000D01*
X106000000Y-93600000D02*
X106200000Y-93800000D01*
X108400000Y-109800000D02*
X108400000Y-112940000D01*
X106200000Y-93800000D02*
X106200000Y-107600000D01*
X109000000Y-114890000D02*
X109000000Y-112393398D01*
X109600000Y-112940000D02*
X109600000Y-105590248D01*
X109600000Y-105590248D02*
X110200000Y-104990248D01*
X110200000Y-114890000D02*
X110200000Y-112393398D01*
D22*
X111000000Y-110400000D02*
X110800000Y-110600000D01*
X110800000Y-110600000D02*
X110800000Y-112940000D01*
X111000000Y-105790248D02*
X111000000Y-110400000D01*
D24*
X111400000Y-114890000D02*
X111400000Y-112393399D01*
X111800000Y-110350000D02*
X111800000Y-104990248D01*
X112000000Y-112940000D02*
X112000000Y-110550000D01*
X112000000Y-110550000D02*
X111800000Y-110350000D01*
X112600000Y-114890000D02*
X112600000Y-112393398D01*
X113200000Y-112940000D02*
X113200000Y-110750000D01*
X112600000Y-110150000D02*
X112600000Y-105790248D01*
X113200000Y-110750000D02*
X112600000Y-110150000D01*
X113800000Y-114890000D02*
X113800000Y-112393399D01*
X113400000Y-109800000D02*
X113400000Y-104990248D01*
X114400000Y-112940000D02*
X114400000Y-110800000D01*
X114400000Y-110800000D02*
X113400000Y-109800000D01*
X115000000Y-114890000D02*
X115000000Y-112393398D01*
X114200000Y-109500000D02*
X114200000Y-105790248D01*
X115600000Y-110900000D02*
X114200000Y-109500000D01*
X115600000Y-112940000D02*
X115600000Y-110900000D01*
X116200000Y-114890000D02*
X116200000Y-112393398D01*
X115000000Y-109250000D02*
X115000000Y-104990248D01*
X116800000Y-112940000D02*
X116800000Y-111050000D01*
X116800000Y-111050000D02*
X115000000Y-109250000D01*
X117400000Y-114890000D02*
X117400000Y-112393398D01*
X118000000Y-112940000D02*
X118000000Y-111350000D01*
X118000000Y-111350000D02*
X115800000Y-109150000D01*
X115800000Y-109150000D02*
X115800000Y-105790248D01*
X118600000Y-114890000D02*
X118600000Y-112393398D01*
X119200000Y-112940000D02*
X119200000Y-111650000D01*
X116600000Y-109050000D02*
X116600000Y-104990248D01*
X119200000Y-111650000D02*
X116600000Y-109050000D01*
X119800000Y-114890000D02*
X119800000Y-112393398D01*
X117400000Y-108950000D02*
X117400000Y-105790248D01*
X120400000Y-112940000D02*
X120400000Y-111950000D01*
X120400000Y-111950000D02*
X117400000Y-108950000D01*
X121000000Y-114890000D02*
X121000000Y-112393398D01*
X118200000Y-108850000D02*
X118200000Y-104990248D01*
X121300000Y-111800000D02*
X121150000Y-111800000D01*
X121600000Y-112100000D02*
X121300000Y-111800000D01*
X121600000Y-112940000D02*
X121600000Y-112100000D01*
X121150000Y-111800000D02*
X118200000Y-108850000D01*
X122200000Y-114890000D02*
X122200000Y-112393398D01*
X122800000Y-111950000D02*
X122500000Y-111650000D01*
X122800000Y-112940000D02*
X122800000Y-111950000D01*
X122500000Y-111650000D02*
X121900000Y-111650000D01*
X121900000Y-111650000D02*
X119000000Y-108750000D01*
X119000000Y-108750000D02*
X119000000Y-105790248D01*
X123400000Y-114890000D02*
X123400000Y-112393398D01*
X123400000Y-111350000D02*
X122500000Y-111350000D01*
X119800000Y-108650000D02*
X119800000Y-104990248D01*
X123400000Y-111350000D02*
X124000000Y-111950000D01*
X124000000Y-112940000D02*
X124000000Y-111950000D01*
X122500000Y-111350000D02*
X119800000Y-108650000D01*
X124600000Y-114890000D02*
X124600000Y-112393399D01*
X123100000Y-111050000D02*
X124450000Y-111050000D01*
X120600000Y-105790248D02*
X120600000Y-108550000D01*
X125200000Y-111800000D02*
X125200000Y-112940000D01*
X120600000Y-108550000D02*
X123100000Y-111050000D01*
X124450000Y-111050000D02*
X125200000Y-111800000D01*
X125800000Y-114890000D02*
X125800000Y-112393399D01*
X123700000Y-110750000D02*
X121400000Y-108450000D01*
X125650000Y-110750000D02*
X126400000Y-111500000D01*
X125650000Y-110750000D02*
X123700000Y-110750000D01*
X121400000Y-108450000D02*
X121400000Y-104990248D01*
X126400000Y-112940000D02*
X126400000Y-111500000D01*
X127000000Y-114890000D02*
X127000000Y-112393399D01*
X122200000Y-108350000D02*
X124300000Y-110450000D01*
X127600000Y-111200000D02*
X127600000Y-112940000D01*
X122200000Y-105790248D02*
X122200000Y-108350000D01*
X126850000Y-110450000D02*
X127600000Y-111200000D01*
X124300000Y-110450000D02*
X126850000Y-110450000D01*
X128200000Y-114890000D02*
X128200000Y-112393398D01*
X128800000Y-112940000D02*
X128800000Y-111050000D01*
X127900000Y-110150000D02*
X128800000Y-111050000D01*
X127900000Y-110150000D02*
X124900000Y-110150000D01*
X124900000Y-110150000D02*
X123000000Y-108250000D01*
X123000000Y-108250000D02*
X123000000Y-104990248D01*
X129400000Y-114890000D02*
X129400000Y-112393398D01*
X129100000Y-109850000D02*
X130000000Y-110750000D01*
X123800000Y-108150000D02*
X125500000Y-109850000D01*
X125500000Y-109850000D02*
X129100000Y-109850000D01*
X130000000Y-110750000D02*
X130000000Y-112940000D01*
X123800000Y-105790248D02*
X123800000Y-108150000D01*
X130600000Y-114890000D02*
X130600000Y-112393399D01*
X131200000Y-110450000D02*
X130300000Y-109550000D01*
X130300000Y-109550000D02*
X126100000Y-109550000D01*
X126100000Y-109550000D02*
X124600000Y-108050000D01*
X124600000Y-108050000D02*
X124600000Y-104990248D01*
X131200000Y-112940000D02*
X131200000Y-110450000D01*
X131800000Y-114890000D02*
X131800000Y-112393399D01*
X130600000Y-109250000D02*
X132400000Y-111050000D01*
X126850000Y-109250000D02*
X130600000Y-109250000D01*
X125400000Y-105790248D02*
X125400000Y-107800000D01*
X132400000Y-111050000D02*
X132400000Y-112940000D01*
X125400000Y-107800000D02*
X126850000Y-109250000D01*
X133000000Y-114890000D02*
X133000000Y-112393398D01*
X126200000Y-104990248D02*
X126200000Y-107550000D01*
X127600000Y-108950000D02*
X130900000Y-108950000D01*
X133600000Y-111200000D02*
X133600000Y-112940000D01*
X126200000Y-107550000D02*
X127600000Y-108950000D01*
X132700000Y-110750000D02*
X133150000Y-110750000D01*
X130900000Y-108950000D02*
X132700000Y-110750000D01*
X133150000Y-110750000D02*
X133600000Y-111200000D01*
X134200000Y-114890000D02*
X134200000Y-112393398D01*
X127600000Y-107000000D02*
X127000000Y-106400000D01*
X132100000Y-106250000D02*
X130900000Y-107450000D01*
X134800000Y-110900000D02*
X135700000Y-110000000D01*
X134500000Y-106250000D02*
X132100000Y-106250000D01*
X127000000Y-106400000D02*
X127000000Y-105790248D01*
X130900000Y-107450000D02*
X129400000Y-107450000D01*
X134800000Y-112940000D02*
X134800000Y-110900000D01*
X129400000Y-107450000D02*
X128950000Y-107000000D01*
X135700000Y-107450000D02*
X134500000Y-106250000D01*
X128950000Y-107000000D02*
X127600000Y-107000000D01*
X135700000Y-110000000D02*
X135700000Y-107450000D01*
X135400000Y-114890000D02*
X135400000Y-112393398D01*
X136000000Y-106850000D02*
X134950000Y-105800000D01*
X129700000Y-107000000D02*
X129400000Y-106700000D01*
X127800000Y-106000000D02*
X127800000Y-104990248D01*
X128500000Y-106700000D02*
X127800000Y-106000000D01*
X136000000Y-112940000D02*
X136000000Y-106850000D01*
X129400000Y-106700000D02*
X128500000Y-106700000D01*
X130300000Y-107000000D02*
X129700000Y-107000000D01*
X131500000Y-105800000D02*
X130300000Y-107000000D01*
X134950000Y-105800000D02*
X131500000Y-105800000D01*
X136600000Y-114890000D02*
X136600000Y-112393398D01*
X137200000Y-112940000D02*
X137200000Y-106550000D01*
X131650000Y-105050000D02*
X130450000Y-106250000D01*
X135700000Y-105050000D02*
X131650000Y-105050000D01*
X130450000Y-106250000D02*
X129059752Y-106250000D01*
X137200000Y-106550000D02*
X135700000Y-105050000D01*
X129059752Y-106250000D02*
X128600000Y-105790248D01*
X137800000Y-112400080D02*
X137803314Y-112396766D01*
X137800000Y-114890000D02*
X137800000Y-112400080D01*
D22*
X62200000Y-124430000D02*
X62200000Y-126750000D01*
X64500000Y-105300000D02*
X59741000Y-110059000D01*
X65600000Y-105300000D02*
X64500000Y-105300000D01*
X59741000Y-110059000D02*
X59741000Y-121971000D01*
X59741000Y-121971000D02*
X62200000Y-124430000D01*
X66805250Y-106238750D02*
X65773500Y-106286500D01*
X64313500Y-106286500D02*
X60122000Y-110478000D01*
X65773500Y-106286500D02*
X64313500Y-106286500D01*
X62800000Y-124522000D02*
X62800000Y-126750000D01*
X60122000Y-110478000D02*
X60122000Y-121844000D01*
X67710000Y-105334000D02*
X66805250Y-106238750D01*
X60122000Y-121844000D02*
X62800000Y-124522000D01*
D25*
X61519000Y-112419000D02*
X61519000Y-112319000D01*
D22*
X61519000Y-121399500D02*
X61519000Y-112419000D01*
X64000000Y-126750000D02*
X63996253Y-124303747D01*
X63996253Y-123876753D02*
X63996253Y-124303747D01*
X63809750Y-123690250D02*
X61519000Y-121399500D01*
X64000000Y-123880500D02*
X63809750Y-123690250D01*
X63809750Y-123690250D02*
X63996253Y-123876753D01*
X62300000Y-106400000D02*
X62300000Y-103600000D01*
X61519000Y-110381000D02*
X62300000Y-109600000D01*
X61519000Y-112419000D02*
X61519000Y-110381000D01*
X62300000Y-103600000D02*
X63900000Y-102000000D01*
X63900000Y-102000000D02*
X66300000Y-102000000D01*
X66300000Y-102000000D02*
X67600000Y-103300000D01*
G04 #@! TA.AperFunction,Conductor*
G36*
X102811390Y-79211502D02*
G01*
X102821460Y-79219618D01*
X102821718Y-79219282D01*
X102947159Y-79315536D01*
X103093238Y-79376044D01*
X103250000Y-79396682D01*
X103258188Y-79395604D01*
X103398574Y-79377122D01*
X103406762Y-79376044D01*
X103414389Y-79372885D01*
X103414392Y-79372884D01*
X103474090Y-79348156D01*
X103544680Y-79340567D01*
X103608167Y-79372346D01*
X103644394Y-79433405D01*
X103647230Y-79448119D01*
X103664956Y-79582762D01*
X103725464Y-79728841D01*
X103821718Y-79854282D01*
X103947159Y-79950536D01*
X104093238Y-80011044D01*
X104250000Y-80031682D01*
X104258188Y-80030604D01*
X104398574Y-80012122D01*
X104406762Y-80011044D01*
X104552841Y-79950536D01*
X104678282Y-79854282D01*
X104680072Y-79856614D01*
X104729948Y-79829379D01*
X104756731Y-79826500D01*
X112005400Y-79826500D01*
X112073521Y-79846502D01*
X112120014Y-79900158D01*
X112130118Y-79970432D01*
X112100624Y-80035012D01*
X112086289Y-80044224D01*
X112071753Y-80061000D01*
X112065000Y-80061000D01*
X112065000Y-81243500D01*
X112044998Y-81311621D01*
X111991342Y-81358114D01*
X111939000Y-81369500D01*
X111030793Y-81369500D01*
X110962672Y-81349498D01*
X110941698Y-81332595D01*
X110248753Y-80639650D01*
X110238899Y-80628561D01*
X110223707Y-80609291D01*
X110223705Y-80609289D01*
X110217872Y-80601890D01*
X110210125Y-80596535D01*
X110210123Y-80596534D01*
X110169625Y-80568545D01*
X110166403Y-80566243D01*
X110126758Y-80536960D01*
X110126757Y-80536959D01*
X110119184Y-80531366D01*
X110112368Y-80528973D01*
X110106431Y-80524869D01*
X110097451Y-80522029D01*
X110097449Y-80522028D01*
X110077283Y-80515650D01*
X110050481Y-80507174D01*
X110046750Y-80505929D01*
X110000263Y-80489604D01*
X110000261Y-80489604D01*
X109991369Y-80486481D01*
X109984181Y-80486199D01*
X109984122Y-80486188D01*
X109977270Y-80484020D01*
X109970663Y-80483500D01*
X109917984Y-80483500D01*
X109913037Y-80483403D01*
X109856006Y-80481162D01*
X109848900Y-80483046D01*
X109840653Y-80483500D01*
X103595428Y-80483500D01*
X103527307Y-80463498D01*
X103511609Y-80451576D01*
X103408392Y-80359613D01*
X103402721Y-80354560D01*
X103252881Y-80275224D01*
X103088441Y-80233919D01*
X103080843Y-80233879D01*
X103080841Y-80233879D01*
X103003668Y-80233475D01*
X102918895Y-80233031D01*
X102911508Y-80234805D01*
X102911504Y-80234805D01*
X102768162Y-80269220D01*
X102754032Y-80272612D01*
X102747288Y-80276093D01*
X102747285Y-80276094D01*
X102742089Y-80278776D01*
X102603369Y-80350375D01*
X102475604Y-80461831D01*
X102444153Y-80506581D01*
X102401401Y-80567412D01*
X102378113Y-80600547D01*
X102316524Y-80758513D01*
X102315532Y-80766046D01*
X102315532Y-80766047D01*
X102298330Y-80896717D01*
X102294394Y-80926611D01*
X102312999Y-81095135D01*
X102371266Y-81254356D01*
X102465830Y-81395083D01*
X102471442Y-81400190D01*
X102471445Y-81400193D01*
X102585612Y-81504077D01*
X102585616Y-81504080D01*
X102591233Y-81509191D01*
X102597906Y-81512814D01*
X102597910Y-81512817D01*
X102733558Y-81586467D01*
X102733560Y-81586468D01*
X102740235Y-81590092D01*
X102747584Y-81592020D01*
X102896883Y-81631188D01*
X102896885Y-81631188D01*
X102904233Y-81633116D01*
X102990609Y-81634473D01*
X103066161Y-81635660D01*
X103066164Y-81635660D01*
X103073760Y-81635779D01*
X103081165Y-81634083D01*
X103081166Y-81634083D01*
X103141586Y-81620245D01*
X103239029Y-81597928D01*
X103390498Y-81521747D01*
X103515846Y-81414689D01*
X103580636Y-81385658D01*
X103597677Y-81384500D01*
X109667207Y-81384500D01*
X109735328Y-81404502D01*
X109756302Y-81421405D01*
X110449247Y-82114350D01*
X110459101Y-82125439D01*
X110474293Y-82144709D01*
X110480128Y-82152110D01*
X110487875Y-82157465D01*
X110487877Y-82157466D01*
X110528375Y-82185455D01*
X110531587Y-82187750D01*
X110578816Y-82222634D01*
X110585632Y-82225027D01*
X110591569Y-82229131D01*
X110600549Y-82231971D01*
X110600551Y-82231972D01*
X110620717Y-82238350D01*
X110647519Y-82246826D01*
X110651250Y-82248071D01*
X110697737Y-82264396D01*
X110697739Y-82264396D01*
X110706631Y-82267519D01*
X110713819Y-82267801D01*
X110713878Y-82267812D01*
X110720730Y-82269980D01*
X110727337Y-82270500D01*
X110780016Y-82270500D01*
X110784962Y-82270597D01*
X110841994Y-82272838D01*
X110849100Y-82270954D01*
X110857344Y-82270500D01*
X111939000Y-82270500D01*
X112007121Y-82290502D01*
X112053614Y-82344158D01*
X112065000Y-82396500D01*
X112065000Y-84925500D01*
X112057883Y-84967248D01*
X112052481Y-84982631D01*
X112052199Y-84989819D01*
X112052188Y-84989878D01*
X112050020Y-84996730D01*
X112049500Y-85003337D01*
X112049500Y-85056016D01*
X112049403Y-85060962D01*
X112047162Y-85117994D01*
X112049046Y-85125100D01*
X112049500Y-85133347D01*
X112049500Y-87936000D01*
X112029498Y-88004121D01*
X111975842Y-88050614D01*
X111923500Y-88062000D01*
X97739283Y-88062000D01*
X97722836Y-88060922D01*
X97719016Y-88060419D01*
X97600000Y-88044750D01*
X97480985Y-88060419D01*
X97477164Y-88060922D01*
X97460717Y-88062000D01*
X90767102Y-88062000D01*
X90757942Y-88061424D01*
X90753941Y-88060419D01*
X90746344Y-88060379D01*
X90746342Y-88060379D01*
X90673905Y-88060000D01*
X90584395Y-88059531D01*
X90577393Y-88061212D01*
X90563729Y-88062000D01*
X88188000Y-88062000D01*
X88119879Y-88041998D01*
X88073386Y-87988342D01*
X88062000Y-87936000D01*
X88062000Y-80061000D01*
X88054206Y-80061000D01*
X88038886Y-80047725D01*
X88000502Y-79987998D01*
X88000502Y-79917002D01*
X88038885Y-79857276D01*
X88103466Y-79827783D01*
X88121398Y-79826500D01*
X100743269Y-79826500D01*
X100811390Y-79846502D01*
X100821460Y-79854618D01*
X100821718Y-79854282D01*
X100947159Y-79950536D01*
X101093238Y-80011044D01*
X101250000Y-80031682D01*
X101258188Y-80030604D01*
X101398574Y-80012122D01*
X101406762Y-80011044D01*
X101552841Y-79950536D01*
X101678282Y-79854282D01*
X101774536Y-79728841D01*
X101835044Y-79582762D01*
X101855682Y-79426000D01*
X101843563Y-79333946D01*
X101854502Y-79263797D01*
X101901631Y-79210699D01*
X101968485Y-79191500D01*
X102743269Y-79191500D01*
X102811390Y-79211502D01*
G37*
G04 #@! TD.AperFunction*
G04 #@! TA.AperFunction,Conductor*
G36*
X87134006Y-68300502D02*
G01*
X87180499Y-68354158D01*
X87189256Y-68380898D01*
X87213791Y-68499173D01*
X87214532Y-68501677D01*
X87214535Y-68501689D01*
X87335544Y-68910622D01*
X87336286Y-68913128D01*
X87492742Y-69315478D01*
X87682077Y-69703442D01*
X87683421Y-69705698D01*
X87901642Y-70072084D01*
X87901648Y-70072093D01*
X87902985Y-70074338D01*
X88153937Y-70425603D01*
X88433199Y-70754809D01*
X88738842Y-71059680D01*
X89068752Y-71338110D01*
X89234353Y-71455789D01*
X89418515Y-71586658D01*
X89418523Y-71586663D01*
X89420649Y-71588174D01*
X89422885Y-71589498D01*
X89422894Y-71589504D01*
X89787912Y-71805664D01*
X89792102Y-71808145D01*
X90180543Y-71996500D01*
X90583287Y-72151939D01*
X90585795Y-72152674D01*
X90585803Y-72152677D01*
X90663493Y-72175453D01*
X90997550Y-72273388D01*
X91420470Y-72360006D01*
X91592467Y-72380546D01*
X91846515Y-72410885D01*
X91846526Y-72410886D01*
X91849123Y-72411196D01*
X91851734Y-72411289D01*
X91851744Y-72411290D01*
X92100253Y-72420165D01*
X92279054Y-72426550D01*
X92280548Y-72426804D01*
X92292521Y-72424620D01*
X92295127Y-72424145D01*
X92317736Y-72422100D01*
X107682264Y-72422100D01*
X107704873Y-72424145D01*
X107707479Y-72424620D01*
X107719452Y-72426804D01*
X107720946Y-72426550D01*
X107805066Y-72423546D01*
X108148256Y-72411290D01*
X108148266Y-72411289D01*
X108150877Y-72411196D01*
X108153474Y-72410886D01*
X108153485Y-72410885D01*
X108407533Y-72380546D01*
X108579530Y-72360006D01*
X109002450Y-72273388D01*
X109336507Y-72175453D01*
X109414197Y-72152677D01*
X109414205Y-72152674D01*
X109416713Y-72151939D01*
X109819457Y-71996500D01*
X110207898Y-71808145D01*
X110212088Y-71805664D01*
X110577106Y-71589504D01*
X110577115Y-71589498D01*
X110579351Y-71588174D01*
X110581477Y-71586663D01*
X110581485Y-71586658D01*
X110765647Y-71455789D01*
X110931248Y-71338110D01*
X111261158Y-71059680D01*
X111566801Y-70754809D01*
X111846063Y-70425603D01*
X112097015Y-70074338D01*
X112098352Y-70072093D01*
X112098358Y-70072084D01*
X112316579Y-69705698D01*
X112317923Y-69703442D01*
X112507258Y-69315478D01*
X112663714Y-68913128D01*
X112664456Y-68910622D01*
X112785465Y-68501689D01*
X112785468Y-68501677D01*
X112786209Y-68499173D01*
X112810743Y-68380904D01*
X112844163Y-68318269D01*
X112906144Y-68283644D01*
X112934115Y-68280500D01*
X149573500Y-68280500D01*
X149641621Y-68300502D01*
X149688114Y-68354158D01*
X149699500Y-68406500D01*
X149699500Y-79935000D01*
X149679498Y-80003121D01*
X149625842Y-80049614D01*
X149573500Y-80061000D01*
X123257231Y-80061000D01*
X123189110Y-80040998D01*
X123142617Y-79987342D01*
X123132513Y-79917068D01*
X123161137Y-79854393D01*
X123161282Y-79854282D01*
X123181616Y-79827783D01*
X123222602Y-79774368D01*
X123257536Y-79728841D01*
X123318044Y-79582762D01*
X123328693Y-79501875D01*
X123357415Y-79436948D01*
X123416681Y-79397856D01*
X123470060Y-79393399D01*
X123486810Y-79395604D01*
X123486812Y-79395604D01*
X123495000Y-79396682D01*
X123503188Y-79395604D01*
X123643574Y-79377122D01*
X123651762Y-79376044D01*
X123797841Y-79315536D01*
X123923282Y-79219282D01*
X124019536Y-79093841D01*
X124080044Y-78947762D01*
X124100682Y-78791000D01*
X124080044Y-78634238D01*
X124019536Y-78488159D01*
X123923282Y-78362718D01*
X123797841Y-78266464D01*
X123651762Y-78205956D01*
X123495000Y-78185318D01*
X123486812Y-78186396D01*
X123345225Y-78205036D01*
X123275076Y-78194097D01*
X123221978Y-78146968D01*
X123203857Y-78096561D01*
X123199563Y-78063947D01*
X123210502Y-77993799D01*
X123257630Y-77940700D01*
X123324485Y-77921500D01*
X125308918Y-77921500D01*
X125377039Y-77941502D01*
X125398013Y-77958405D01*
X125415658Y-77976050D01*
X125424492Y-77980551D01*
X125424493Y-77980552D01*
X125435259Y-77986038D01*
X125452116Y-77996368D01*
X125461885Y-78003466D01*
X125461888Y-78003467D01*
X125469910Y-78009296D01*
X125490834Y-78016095D01*
X125509094Y-78023659D01*
X125519859Y-78029144D01*
X125519863Y-78029145D01*
X125528696Y-78033646D01*
X125538487Y-78035197D01*
X125538488Y-78035197D01*
X125550422Y-78037087D01*
X125569647Y-78041703D01*
X125581132Y-78045435D01*
X125581136Y-78045436D01*
X125590567Y-78048500D01*
X126925269Y-78048500D01*
X126993390Y-78068502D01*
X127003460Y-78076618D01*
X127003718Y-78076282D01*
X127129159Y-78172536D01*
X127275238Y-78233044D01*
X127432000Y-78253682D01*
X127440188Y-78252604D01*
X127580574Y-78234122D01*
X127588762Y-78233044D01*
X127734841Y-78172536D01*
X127860282Y-78076282D01*
X127956536Y-77950841D01*
X128017044Y-77804762D01*
X128037682Y-77648000D01*
X128017044Y-77491238D01*
X127956536Y-77345159D01*
X127888059Y-77255918D01*
X127865305Y-77226264D01*
X127860282Y-77219718D01*
X127734841Y-77123464D01*
X127599969Y-77067598D01*
X127544688Y-77023050D01*
X127522267Y-76955686D01*
X127523265Y-76934743D01*
X127528604Y-76894188D01*
X127529682Y-76886000D01*
X127509044Y-76729238D01*
X127448536Y-76583159D01*
X127352282Y-76457718D01*
X127226841Y-76361464D01*
X127080762Y-76300956D01*
X126924000Y-76280318D01*
X126767238Y-76300956D01*
X126621159Y-76361464D01*
X126495718Y-76457718D01*
X126493928Y-76455386D01*
X126444052Y-76482621D01*
X126417269Y-76485500D01*
X125383095Y-76485500D01*
X125314974Y-76465498D01*
X125268481Y-76411842D01*
X125258377Y-76341568D01*
X125266188Y-76312504D01*
X125316765Y-76186691D01*
X125316767Y-76186684D01*
X125319601Y-76179634D01*
X125343490Y-76011778D01*
X125343645Y-75997000D01*
X125323276Y-75828680D01*
X125275422Y-75702038D01*
X125270054Y-75631244D01*
X125303812Y-75568787D01*
X125365978Y-75534495D01*
X125393288Y-75531500D01*
X126568853Y-75531500D01*
X126640079Y-75554231D01*
X126642233Y-75556191D01*
X126712836Y-75594525D01*
X126784558Y-75633467D01*
X126784560Y-75633468D01*
X126791235Y-75637092D01*
X126798584Y-75639020D01*
X126947883Y-75678188D01*
X126947885Y-75678188D01*
X126955233Y-75680116D01*
X127041609Y-75681473D01*
X127117161Y-75682660D01*
X127117164Y-75682660D01*
X127124760Y-75682779D01*
X127132165Y-75681083D01*
X127132166Y-75681083D01*
X127259888Y-75651831D01*
X127290029Y-75644928D01*
X127441498Y-75568747D01*
X127545533Y-75479892D01*
X127564651Y-75463564D01*
X127564652Y-75463563D01*
X127570423Y-75458634D01*
X127669361Y-75320947D01*
X127678645Y-75297853D01*
X127729766Y-75170687D01*
X127729767Y-75170685D01*
X127732601Y-75163634D01*
X127756490Y-74995778D01*
X127756645Y-74981000D01*
X127736276Y-74812680D01*
X127676345Y-74654077D01*
X127650140Y-74615949D01*
X127584614Y-74520608D01*
X127584613Y-74520607D01*
X127580312Y-74514349D01*
X127566771Y-74502284D01*
X127459392Y-74406612D01*
X127459388Y-74406610D01*
X127453721Y-74401560D01*
X127439717Y-74394145D01*
X127386080Y-74365746D01*
X127303881Y-74322224D01*
X127139441Y-74280919D01*
X127131843Y-74280879D01*
X127131841Y-74280879D01*
X127054668Y-74280475D01*
X126969895Y-74280031D01*
X126962508Y-74281805D01*
X126962504Y-74281805D01*
X126831573Y-74313240D01*
X126805032Y-74319612D01*
X126798288Y-74323093D01*
X126798285Y-74323094D01*
X126661117Y-74393892D01*
X126654369Y-74397375D01*
X126648645Y-74402368D01*
X126642364Y-74406637D01*
X126640938Y-74404539D01*
X126587522Y-74429155D01*
X126569163Y-74430500D01*
X125426216Y-74430500D01*
X125358095Y-74410498D01*
X125337121Y-74393596D01*
X124943525Y-74000000D01*
X135724647Y-74000000D01*
X135744022Y-74221463D01*
X135769846Y-74317839D01*
X135799308Y-74427790D01*
X135801560Y-74436196D01*
X135803882Y-74441177D01*
X135803883Y-74441178D01*
X135893186Y-74632689D01*
X135893189Y-74632694D01*
X135895512Y-74637676D01*
X135898668Y-74642183D01*
X135898669Y-74642185D01*
X136018051Y-74812680D01*
X136023023Y-74819781D01*
X136180219Y-74976977D01*
X136184727Y-74980134D01*
X136184730Y-74980136D01*
X136212902Y-74999862D01*
X136362323Y-75104488D01*
X136367305Y-75106811D01*
X136367310Y-75106814D01*
X136527628Y-75181571D01*
X136563804Y-75198440D01*
X136569112Y-75199862D01*
X136569114Y-75199863D01*
X136604621Y-75209377D01*
X136778537Y-75255978D01*
X137000000Y-75275353D01*
X137221463Y-75255978D01*
X137395379Y-75209377D01*
X137430886Y-75199863D01*
X137430888Y-75199862D01*
X137436196Y-75198440D01*
X137472372Y-75181571D01*
X137632690Y-75106814D01*
X137632695Y-75106811D01*
X137637677Y-75104488D01*
X137787098Y-74999862D01*
X137815270Y-74980136D01*
X137815273Y-74980134D01*
X137819781Y-74976977D01*
X137976977Y-74819781D01*
X137981950Y-74812680D01*
X138101331Y-74642185D01*
X138101332Y-74642183D01*
X138104488Y-74637676D01*
X138106811Y-74632694D01*
X138106814Y-74632689D01*
X138196117Y-74441178D01*
X138196118Y-74441177D01*
X138198440Y-74436196D01*
X138200693Y-74427790D01*
X138230154Y-74317839D01*
X138255978Y-74221463D01*
X138271571Y-74043233D01*
X142094906Y-74043233D01*
X142121102Y-74317792D01*
X142186657Y-74585694D01*
X142290199Y-74841326D01*
X142292500Y-74845256D01*
X142292503Y-74845262D01*
X142427255Y-75075403D01*
X142427260Y-75075410D01*
X142429558Y-75079335D01*
X142432405Y-75082895D01*
X142571207Y-75256457D01*
X142601816Y-75294732D01*
X142605157Y-75297853D01*
X142778544Y-75459822D01*
X142803364Y-75483008D01*
X143029979Y-75640216D01*
X143034055Y-75642244D01*
X143034057Y-75642245D01*
X143272827Y-75761032D01*
X143272830Y-75761033D01*
X143276914Y-75763065D01*
X143538998Y-75848980D01*
X143543489Y-75849760D01*
X143543490Y-75849760D01*
X143806957Y-75895506D01*
X143806965Y-75895507D01*
X143810738Y-75896162D01*
X143814575Y-75896353D01*
X143896305Y-75900422D01*
X143896313Y-75900422D01*
X143897876Y-75900500D01*
X144070070Y-75900500D01*
X144072338Y-75900335D01*
X144072350Y-75900335D01*
X144206603Y-75890594D01*
X144275083Y-75885625D01*
X144279538Y-75884641D01*
X144279541Y-75884641D01*
X144539947Y-75827148D01*
X144539950Y-75827147D01*
X144544403Y-75826164D01*
X144802319Y-75728449D01*
X144819702Y-75718794D01*
X145039435Y-75596743D01*
X145039436Y-75596742D01*
X145043428Y-75594525D01*
X145215027Y-75463564D01*
X145259046Y-75429970D01*
X145259047Y-75429969D01*
X145262678Y-75427198D01*
X145265873Y-75423930D01*
X145452283Y-75233242D01*
X145452287Y-75233237D01*
X145455477Y-75229974D01*
X145459676Y-75224205D01*
X145615100Y-75010676D01*
X145615102Y-75010673D01*
X145617787Y-75006984D01*
X145746206Y-74762899D01*
X145838045Y-74502832D01*
X145874007Y-74320375D01*
X145890499Y-74236704D01*
X145890500Y-74236698D01*
X145891380Y-74232232D01*
X145892189Y-74215984D01*
X145904867Y-73961336D01*
X145904867Y-73961330D01*
X145905094Y-73956767D01*
X145878898Y-73682208D01*
X145863635Y-73619831D01*
X145814429Y-73418744D01*
X145813343Y-73414306D01*
X145709801Y-73158674D01*
X145707500Y-73154744D01*
X145707497Y-73154738D01*
X145572745Y-72924597D01*
X145572740Y-72924590D01*
X145570442Y-72920665D01*
X145452927Y-72773720D01*
X145401036Y-72708834D01*
X145401035Y-72708833D01*
X145398184Y-72705268D01*
X145196636Y-72516992D01*
X144970021Y-72359784D01*
X144965943Y-72357755D01*
X144727173Y-72238968D01*
X144727170Y-72238967D01*
X144723086Y-72236935D01*
X144461002Y-72151020D01*
X144456510Y-72150240D01*
X144193043Y-72104494D01*
X144193035Y-72104493D01*
X144189262Y-72103838D01*
X144179029Y-72103329D01*
X144103695Y-72099578D01*
X144103687Y-72099578D01*
X144102124Y-72099500D01*
X143929930Y-72099500D01*
X143927662Y-72099665D01*
X143927650Y-72099665D01*
X143793397Y-72109406D01*
X143724917Y-72114375D01*
X143720462Y-72115359D01*
X143720459Y-72115359D01*
X143460053Y-72172852D01*
X143460050Y-72172853D01*
X143455597Y-72173836D01*
X143197681Y-72271551D01*
X143193694Y-72273765D01*
X143193693Y-72273766D01*
X143042484Y-72357755D01*
X142956572Y-72405475D01*
X142737322Y-72572802D01*
X142734129Y-72576068D01*
X142734127Y-72576070D01*
X142547717Y-72766758D01*
X142547713Y-72766763D01*
X142544523Y-72770026D01*
X142382213Y-72993016D01*
X142253794Y-73237101D01*
X142161955Y-73497168D01*
X142154135Y-73536844D01*
X142111663Y-73752330D01*
X142108620Y-73767768D01*
X142108393Y-73772322D01*
X142108393Y-73772324D01*
X142096786Y-74005475D01*
X142094906Y-74043233D01*
X138271571Y-74043233D01*
X138275353Y-74000000D01*
X138255978Y-73778537D01*
X138198440Y-73563804D01*
X138183759Y-73532321D01*
X138106814Y-73367311D01*
X138106811Y-73367306D01*
X138104488Y-73362324D01*
X138101331Y-73357815D01*
X137980136Y-73184730D01*
X137980134Y-73184727D01*
X137976977Y-73180219D01*
X137819781Y-73023023D01*
X137815273Y-73019866D01*
X137815270Y-73019864D01*
X137739505Y-72966813D01*
X137637677Y-72895512D01*
X137632695Y-72893189D01*
X137632690Y-72893186D01*
X137441178Y-72803883D01*
X137441177Y-72803882D01*
X137436196Y-72801560D01*
X137430888Y-72800138D01*
X137430886Y-72800137D01*
X137365051Y-72782497D01*
X137221463Y-72744022D01*
X137000000Y-72724647D01*
X136778537Y-72744022D01*
X136634949Y-72782497D01*
X136569114Y-72800137D01*
X136569112Y-72800138D01*
X136563804Y-72801560D01*
X136558823Y-72803882D01*
X136558822Y-72803883D01*
X136367311Y-72893186D01*
X136367306Y-72893189D01*
X136362324Y-72895512D01*
X136357817Y-72898668D01*
X136357815Y-72898669D01*
X136184730Y-73019864D01*
X136184727Y-73019866D01*
X136180219Y-73023023D01*
X136023023Y-73180219D01*
X136019866Y-73184727D01*
X136019864Y-73184730D01*
X135898669Y-73357815D01*
X135895512Y-73362324D01*
X135893189Y-73367306D01*
X135893186Y-73367311D01*
X135816241Y-73532321D01*
X135801560Y-73563804D01*
X135744022Y-73778537D01*
X135724647Y-74000000D01*
X124943525Y-74000000D01*
X124529870Y-73586346D01*
X124526217Y-73582536D01*
X124490015Y-73543167D01*
X124484201Y-73536844D01*
X124447198Y-73513901D01*
X124437448Y-73507200D01*
X124402783Y-73480888D01*
X124388804Y-73475354D01*
X124368801Y-73465293D01*
X124356014Y-73457365D01*
X124347763Y-73454968D01*
X124347761Y-73454967D01*
X124314228Y-73445225D01*
X124302995Y-73441379D01*
X124262547Y-73425364D01*
X124254006Y-73424466D01*
X124254005Y-73424466D01*
X124247592Y-73423792D01*
X124225617Y-73419480D01*
X124211175Y-73415285D01*
X124203692Y-73414736D01*
X124202792Y-73414669D01*
X124202781Y-73414669D01*
X124200485Y-73414500D01*
X124165783Y-73414500D01*
X124152613Y-73413810D01*
X124142384Y-73412735D01*
X124112546Y-73409599D01*
X124104081Y-73411031D01*
X124104072Y-73411031D01*
X124094000Y-73412735D01*
X124072987Y-73414500D01*
X96383923Y-73414500D01*
X96353227Y-73410704D01*
X96285810Y-73393770D01*
X96278441Y-73391919D01*
X96270843Y-73391879D01*
X96270841Y-73391879D01*
X96193668Y-73391475D01*
X96108895Y-73391031D01*
X96101508Y-73392805D01*
X96101504Y-73392805D01*
X95990403Y-73419479D01*
X95944032Y-73430612D01*
X95937288Y-73434093D01*
X95937285Y-73434094D01*
X95815082Y-73497168D01*
X95793369Y-73508375D01*
X95787647Y-73513367D01*
X95787645Y-73513368D01*
X95765919Y-73532321D01*
X95665604Y-73619831D01*
X95568113Y-73758547D01*
X95506524Y-73916513D01*
X95505532Y-73924046D01*
X95505532Y-73924047D01*
X95489242Y-74047789D01*
X95484394Y-74084611D01*
X95502999Y-74253135D01*
X95505609Y-74260267D01*
X95505950Y-74261199D01*
X95505997Y-74261923D01*
X95507344Y-74267665D01*
X95506387Y-74267889D01*
X95510576Y-74332045D01*
X95476166Y-74394145D01*
X95413645Y-74427784D01*
X95387624Y-74430500D01*
X72074993Y-74430500D01*
X72069717Y-74430389D01*
X72065310Y-74430204D01*
X72007706Y-74427790D01*
X71999341Y-74429752D01*
X71965338Y-74437727D01*
X71953667Y-74439890D01*
X71944265Y-74441178D01*
X71910568Y-74445794D01*
X71902684Y-74449206D01*
X71902683Y-74449206D01*
X71896770Y-74451765D01*
X71875501Y-74458799D01*
X71869228Y-74460270D01*
X71869226Y-74460271D01*
X71860864Y-74462232D01*
X71853336Y-74466371D01*
X71853335Y-74466371D01*
X71822735Y-74483194D01*
X71812073Y-74488417D01*
X71780027Y-74502284D01*
X71780026Y-74502285D01*
X71772145Y-74505695D01*
X71765472Y-74511099D01*
X71760459Y-74515158D01*
X71741871Y-74527649D01*
X71728692Y-74534894D01*
X71720578Y-74541898D01*
X71696043Y-74566433D01*
X71686242Y-74575258D01*
X71673355Y-74585694D01*
X71654930Y-74600614D01*
X71649954Y-74607616D01*
X71649952Y-74607618D01*
X71644032Y-74615949D01*
X71630421Y-74632055D01*
X71173358Y-75089118D01*
X71169549Y-75092771D01*
X71123844Y-75134799D01*
X71100901Y-75171802D01*
X71094200Y-75181552D01*
X71067888Y-75216217D01*
X71062354Y-75230195D01*
X71052293Y-75250199D01*
X71044365Y-75262986D01*
X71041968Y-75271237D01*
X71041967Y-75271239D01*
X71032225Y-75304772D01*
X71028380Y-75316002D01*
X71012364Y-75356453D01*
X71011466Y-75364994D01*
X71011466Y-75364995D01*
X71010792Y-75371408D01*
X71006480Y-75393383D01*
X71002285Y-75407825D01*
X71001500Y-75418515D01*
X71001500Y-75453217D01*
X71000810Y-75466387D01*
X70996599Y-75506454D01*
X70998031Y-75514919D01*
X70998031Y-75514928D01*
X70999735Y-75525000D01*
X71001500Y-75546013D01*
X71001500Y-75649125D01*
X70978587Y-75721575D01*
X70930113Y-75790547D01*
X70927354Y-75797622D01*
X70927353Y-75797625D01*
X70887308Y-75900335D01*
X70868524Y-75948513D01*
X70867532Y-75956046D01*
X70867532Y-75956047D01*
X70859658Y-76015862D01*
X70846394Y-76116611D01*
X70864999Y-76285135D01*
X70923266Y-76444356D01*
X70927502Y-76450659D01*
X70927502Y-76450660D01*
X70937473Y-76465498D01*
X71017830Y-76585083D01*
X71023442Y-76590190D01*
X71023445Y-76590193D01*
X71137612Y-76694077D01*
X71137616Y-76694080D01*
X71143233Y-76699191D01*
X71149906Y-76702814D01*
X71149910Y-76702817D01*
X71285558Y-76776467D01*
X71285560Y-76776468D01*
X71292235Y-76780092D01*
X71299584Y-76782020D01*
X71448883Y-76821188D01*
X71448885Y-76821188D01*
X71456233Y-76823116D01*
X71542609Y-76824473D01*
X71618161Y-76825660D01*
X71618164Y-76825660D01*
X71625760Y-76825779D01*
X71633165Y-76824083D01*
X71633166Y-76824083D01*
X71693586Y-76810245D01*
X71791029Y-76787928D01*
X71942498Y-76711747D01*
X72042455Y-76626375D01*
X72107245Y-76597344D01*
X72177445Y-76607949D01*
X72209085Y-76628992D01*
X72286233Y-76699191D01*
X72292906Y-76702814D01*
X72292910Y-76702817D01*
X72428558Y-76776467D01*
X72428560Y-76776468D01*
X72435235Y-76780092D01*
X72442584Y-76782020D01*
X72591883Y-76821188D01*
X72591885Y-76821188D01*
X72599233Y-76823116D01*
X72685609Y-76824473D01*
X72761161Y-76825660D01*
X72761164Y-76825660D01*
X72768760Y-76825779D01*
X72776165Y-76824083D01*
X72776166Y-76824083D01*
X72836586Y-76810245D01*
X72934029Y-76787928D01*
X73085498Y-76711747D01*
X73093763Y-76704688D01*
X73095948Y-76703709D01*
X73097602Y-76702610D01*
X73097785Y-76702886D01*
X73158553Y-76675658D01*
X73175593Y-76674500D01*
X73617806Y-76674500D01*
X73685927Y-76694502D01*
X73710305Y-76722636D01*
X73720554Y-76706264D01*
X73784779Y-76676005D01*
X73804194Y-76674500D01*
X94564853Y-76674500D01*
X94636079Y-76697231D01*
X94638233Y-76699191D01*
X94679522Y-76721609D01*
X94780558Y-76776467D01*
X94780560Y-76776468D01*
X94787235Y-76780092D01*
X94794584Y-76782020D01*
X94943883Y-76821188D01*
X94943885Y-76821188D01*
X94951233Y-76823116D01*
X95037609Y-76824473D01*
X95113161Y-76825660D01*
X95113164Y-76825660D01*
X95120760Y-76825779D01*
X95128165Y-76824083D01*
X95128166Y-76824083D01*
X95188586Y-76810245D01*
X95286029Y-76787928D01*
X95437498Y-76711747D01*
X95537455Y-76626375D01*
X95560651Y-76606564D01*
X95560652Y-76606563D01*
X95566423Y-76601634D01*
X95570852Y-76595470D01*
X95575998Y-76589874D01*
X95578096Y-76591803D01*
X95623619Y-76556323D01*
X95669939Y-76547500D01*
X100571662Y-76547500D01*
X100639783Y-76567502D01*
X100686276Y-76621158D01*
X100696380Y-76691432D01*
X100688769Y-76719174D01*
X100688117Y-76721606D01*
X100684956Y-76729238D01*
X100672470Y-76824083D01*
X100666403Y-76870166D01*
X100637681Y-76935093D01*
X100578416Y-76974185D01*
X100507424Y-76975030D01*
X100493263Y-76970129D01*
X100418391Y-76939116D01*
X100410762Y-76935956D01*
X100401549Y-76934743D01*
X100262188Y-76916396D01*
X100254000Y-76915318D01*
X100245812Y-76916396D01*
X100106452Y-76934743D01*
X100097238Y-76935956D01*
X99951159Y-76996464D01*
X99825718Y-77092718D01*
X99823928Y-77090386D01*
X99774052Y-77117621D01*
X99747269Y-77120500D01*
X74217731Y-77120500D01*
X74149610Y-77100498D01*
X74139540Y-77092382D01*
X74139282Y-77092718D01*
X74074178Y-77042762D01*
X74013841Y-76996464D01*
X73867762Y-76935956D01*
X73858549Y-76934743D01*
X73787748Y-76925422D01*
X73722821Y-76896700D01*
X73713342Y-76882329D01*
X73713030Y-76883012D01*
X73653304Y-76921396D01*
X73634252Y-76925422D01*
X73563452Y-76934743D01*
X73554238Y-76935956D01*
X73408159Y-76996464D01*
X73282718Y-77092718D01*
X73186464Y-77218159D01*
X73176261Y-77242791D01*
X73138394Y-77334210D01*
X73093846Y-77389491D01*
X73026482Y-77411912D01*
X72964785Y-77398260D01*
X72956142Y-77393856D01*
X72956135Y-77393854D01*
X72947304Y-77389354D01*
X72937513Y-77387803D01*
X72937512Y-77387803D01*
X72925578Y-77385913D01*
X72906353Y-77381297D01*
X72894868Y-77377565D01*
X72894864Y-77377564D01*
X72885433Y-77374500D01*
X69899730Y-77374500D01*
X69831609Y-77354498D01*
X69812448Y-77339056D01*
X69808582Y-77334018D01*
X69683141Y-77237764D01*
X69537062Y-77177256D01*
X69380300Y-77156618D01*
X69223538Y-77177256D01*
X69077459Y-77237764D01*
X68952018Y-77334018D01*
X68946995Y-77340564D01*
X68936303Y-77354498D01*
X68855764Y-77459459D01*
X68795256Y-77605538D01*
X68794178Y-77613726D01*
X68778033Y-77736360D01*
X68749311Y-77801287D01*
X68690045Y-77840379D01*
X68636665Y-77844836D01*
X68618300Y-77842418D01*
X68461538Y-77863056D01*
X68315459Y-77923564D01*
X68270053Y-77958405D01*
X68203731Y-78009296D01*
X68190018Y-78019818D01*
X68093764Y-78145259D01*
X68033256Y-78291338D01*
X68012618Y-78448100D01*
X68033256Y-78604862D01*
X68093764Y-78750941D01*
X68190018Y-78876382D01*
X68315459Y-78972636D01*
X68461538Y-79033144D01*
X68618300Y-79053782D01*
X68626488Y-79052704D01*
X68766874Y-79034222D01*
X68775062Y-79033144D01*
X68921141Y-78972636D01*
X69046582Y-78876382D01*
X69048372Y-78878714D01*
X69098248Y-78851479D01*
X69125031Y-78848600D01*
X69672333Y-78848600D01*
X69681764Y-78845536D01*
X69681768Y-78845535D01*
X69693253Y-78841803D01*
X69712478Y-78837187D01*
X69724412Y-78835297D01*
X69724413Y-78835297D01*
X69734204Y-78833746D01*
X69743037Y-78829245D01*
X69743041Y-78829244D01*
X69753806Y-78823759D01*
X69772066Y-78816195D01*
X69792990Y-78809396D01*
X69810793Y-78796461D01*
X69827645Y-78786135D01*
X69838402Y-78780654D01*
X69847242Y-78776150D01*
X69869805Y-78753587D01*
X69869809Y-78753584D01*
X69902988Y-78720405D01*
X69965300Y-78686379D01*
X69992083Y-78683500D01*
X71561689Y-78683500D01*
X71629810Y-78703502D01*
X71676303Y-78757158D01*
X71686407Y-78827432D01*
X71678099Y-78857715D01*
X71665456Y-78888238D01*
X71644818Y-79045000D01*
X71665456Y-79201762D01*
X71725964Y-79347841D01*
X71822218Y-79473282D01*
X71947659Y-79569536D01*
X72093738Y-79630044D01*
X72116885Y-79633091D01*
X72141439Y-79636324D01*
X72182197Y-79648979D01*
X72252196Y-79684646D01*
X72261985Y-79686196D01*
X72261987Y-79686197D01*
X72289349Y-79690530D01*
X72345981Y-79699500D01*
X76858418Y-79699500D01*
X76926539Y-79719502D01*
X76947513Y-79736405D01*
X76965158Y-79754050D01*
X76973992Y-79758551D01*
X76973993Y-79758552D01*
X76984759Y-79764038D01*
X77001616Y-79774368D01*
X77011385Y-79781466D01*
X77011388Y-79781467D01*
X77019410Y-79787296D01*
X77040334Y-79794095D01*
X77058594Y-79801659D01*
X77069361Y-79807145D01*
X77069365Y-79807146D01*
X77078196Y-79811646D01*
X77087986Y-79813197D01*
X77094051Y-79815167D01*
X77152657Y-79855240D01*
X77180295Y-79920636D01*
X77168189Y-79990593D01*
X77120183Y-80042900D01*
X77055116Y-80061000D01*
X50426500Y-80061000D01*
X50358379Y-80040998D01*
X50311886Y-79987342D01*
X50300500Y-79935000D01*
X50300500Y-74043233D01*
X54094906Y-74043233D01*
X54121102Y-74317792D01*
X54186657Y-74585694D01*
X54290199Y-74841326D01*
X54292500Y-74845256D01*
X54292503Y-74845262D01*
X54427255Y-75075403D01*
X54427260Y-75075410D01*
X54429558Y-75079335D01*
X54432405Y-75082895D01*
X54571207Y-75256457D01*
X54601816Y-75294732D01*
X54605157Y-75297853D01*
X54778544Y-75459822D01*
X54803364Y-75483008D01*
X55029979Y-75640216D01*
X55034055Y-75642244D01*
X55034057Y-75642245D01*
X55272827Y-75761032D01*
X55272830Y-75761033D01*
X55276914Y-75763065D01*
X55538998Y-75848980D01*
X55543489Y-75849760D01*
X55543490Y-75849760D01*
X55806957Y-75895506D01*
X55806965Y-75895507D01*
X55810738Y-75896162D01*
X55814575Y-75896353D01*
X55896305Y-75900422D01*
X55896313Y-75900422D01*
X55897876Y-75900500D01*
X56070070Y-75900500D01*
X56072338Y-75900335D01*
X56072350Y-75900335D01*
X56206603Y-75890594D01*
X56275083Y-75885625D01*
X56279538Y-75884641D01*
X56279541Y-75884641D01*
X56539947Y-75827148D01*
X56539950Y-75827147D01*
X56544403Y-75826164D01*
X56802319Y-75728449D01*
X56819702Y-75718794D01*
X57039435Y-75596743D01*
X57039436Y-75596742D01*
X57043428Y-75594525D01*
X57215027Y-75463564D01*
X57259046Y-75429970D01*
X57259047Y-75429969D01*
X57262678Y-75427198D01*
X57265873Y-75423930D01*
X57452283Y-75233242D01*
X57452287Y-75233237D01*
X57455477Y-75229974D01*
X57459676Y-75224205D01*
X57615100Y-75010676D01*
X57615102Y-75010673D01*
X57617787Y-75006984D01*
X57746206Y-74762899D01*
X57838045Y-74502832D01*
X57874007Y-74320375D01*
X57890499Y-74236704D01*
X57890500Y-74236698D01*
X57891380Y-74232232D01*
X57892189Y-74215984D01*
X57902942Y-74000000D01*
X61724647Y-74000000D01*
X61744022Y-74221463D01*
X61769846Y-74317839D01*
X61799308Y-74427790D01*
X61801560Y-74436196D01*
X61803882Y-74441177D01*
X61803883Y-74441178D01*
X61893186Y-74632689D01*
X61893189Y-74632694D01*
X61895512Y-74637676D01*
X61898668Y-74642183D01*
X61898669Y-74642185D01*
X62018051Y-74812680D01*
X62023023Y-74819781D01*
X62180219Y-74976977D01*
X62184727Y-74980134D01*
X62184730Y-74980136D01*
X62212902Y-74999862D01*
X62362323Y-75104488D01*
X62367305Y-75106811D01*
X62367310Y-75106814D01*
X62527628Y-75181571D01*
X62563804Y-75198440D01*
X62569112Y-75199862D01*
X62569114Y-75199863D01*
X62604621Y-75209377D01*
X62778537Y-75255978D01*
X63000000Y-75275353D01*
X63221463Y-75255978D01*
X63395379Y-75209377D01*
X63430886Y-75199863D01*
X63430888Y-75199862D01*
X63436196Y-75198440D01*
X63472372Y-75181571D01*
X63632690Y-75106814D01*
X63632695Y-75106811D01*
X63637677Y-75104488D01*
X63787098Y-74999862D01*
X63815270Y-74980136D01*
X63815273Y-74980134D01*
X63819781Y-74976977D01*
X63976977Y-74819781D01*
X63981950Y-74812680D01*
X64101331Y-74642185D01*
X64101332Y-74642183D01*
X64104488Y-74637676D01*
X64106811Y-74632694D01*
X64106814Y-74632689D01*
X64196117Y-74441178D01*
X64196118Y-74441177D01*
X64198440Y-74436196D01*
X64200693Y-74427790D01*
X64230154Y-74317839D01*
X64255978Y-74221463D01*
X64275353Y-74000000D01*
X64255978Y-73778537D01*
X64198440Y-73563804D01*
X64183759Y-73532321D01*
X64106814Y-73367311D01*
X64106811Y-73367306D01*
X64104488Y-73362324D01*
X64101331Y-73357815D01*
X63980136Y-73184730D01*
X63980134Y-73184727D01*
X63976977Y-73180219D01*
X63819781Y-73023023D01*
X63815273Y-73019866D01*
X63815270Y-73019864D01*
X63739505Y-72966813D01*
X63637677Y-72895512D01*
X63632695Y-72893189D01*
X63632690Y-72893186D01*
X63441178Y-72803883D01*
X63441177Y-72803882D01*
X63436196Y-72801560D01*
X63430888Y-72800138D01*
X63430886Y-72800137D01*
X63365051Y-72782497D01*
X63221463Y-72744022D01*
X63000000Y-72724647D01*
X62778537Y-72744022D01*
X62634949Y-72782497D01*
X62569114Y-72800137D01*
X62569112Y-72800138D01*
X62563804Y-72801560D01*
X62558823Y-72803882D01*
X62558822Y-72803883D01*
X62367311Y-72893186D01*
X62367306Y-72893189D01*
X62362324Y-72895512D01*
X62357817Y-72898668D01*
X62357815Y-72898669D01*
X62184730Y-73019864D01*
X62184727Y-73019866D01*
X62180219Y-73023023D01*
X62023023Y-73180219D01*
X62019866Y-73184727D01*
X62019864Y-73184730D01*
X61898669Y-73357815D01*
X61895512Y-73362324D01*
X61893189Y-73367306D01*
X61893186Y-73367311D01*
X61816241Y-73532321D01*
X61801560Y-73563804D01*
X61744022Y-73778537D01*
X61724647Y-74000000D01*
X57902942Y-74000000D01*
X57904867Y-73961336D01*
X57904867Y-73961330D01*
X57905094Y-73956767D01*
X57878898Y-73682208D01*
X57863635Y-73619831D01*
X57814429Y-73418744D01*
X57813343Y-73414306D01*
X57709801Y-73158674D01*
X57707500Y-73154744D01*
X57707497Y-73154738D01*
X57572745Y-72924597D01*
X57572740Y-72924590D01*
X57570442Y-72920665D01*
X57452927Y-72773720D01*
X57401036Y-72708834D01*
X57401035Y-72708833D01*
X57398184Y-72705268D01*
X57196636Y-72516992D01*
X56970021Y-72359784D01*
X56965943Y-72357755D01*
X56727173Y-72238968D01*
X56727170Y-72238967D01*
X56723086Y-72236935D01*
X56461002Y-72151020D01*
X56456510Y-72150240D01*
X56193043Y-72104494D01*
X56193035Y-72104493D01*
X56189262Y-72103838D01*
X56179029Y-72103329D01*
X56103695Y-72099578D01*
X56103687Y-72099578D01*
X56102124Y-72099500D01*
X55929930Y-72099500D01*
X55927662Y-72099665D01*
X55927650Y-72099665D01*
X55793397Y-72109406D01*
X55724917Y-72114375D01*
X55720462Y-72115359D01*
X55720459Y-72115359D01*
X55460053Y-72172852D01*
X55460050Y-72172853D01*
X55455597Y-72173836D01*
X55197681Y-72271551D01*
X55193694Y-72273765D01*
X55193693Y-72273766D01*
X55042484Y-72357755D01*
X54956572Y-72405475D01*
X54737322Y-72572802D01*
X54734129Y-72576068D01*
X54734127Y-72576070D01*
X54547717Y-72766758D01*
X54547713Y-72766763D01*
X54544523Y-72770026D01*
X54382213Y-72993016D01*
X54253794Y-73237101D01*
X54161955Y-73497168D01*
X54154135Y-73536844D01*
X54111663Y-73752330D01*
X54108620Y-73767768D01*
X54108393Y-73772322D01*
X54108393Y-73772324D01*
X54096786Y-74005475D01*
X54094906Y-74043233D01*
X50300500Y-74043233D01*
X50300500Y-68406500D01*
X50320502Y-68338379D01*
X50374158Y-68291886D01*
X50426500Y-68280500D01*
X87065885Y-68280500D01*
X87134006Y-68300502D01*
G37*
G04 #@! TD.AperFunction*
M02*
