G04 #@! TF.GenerationSoftware,KiCad,Pcbnew,5.0.2-bee76a0~70~ubuntu18.04.1*
G04 #@! TF.CreationDate,2020-04-30T09:21:28+02:00*
G04 #@! TF.ProjectId,OpenFrame,4f70656e-4672-4616-9d65-2e6b69636164,rev?*
G04 #@! TF.SameCoordinates,Original*
G04 #@! TF.FileFunction,Profile,NP*
%FSLAX46Y46*%
G04 Gerber Fmt 4.6, Leading zero omitted, Abs format (unit mm)*
G04 Created by KiCad (PCBNEW 5.0.2-bee76a0~70~ubuntu18.04.1) date Do 30 Apr 2020 09:21:28 CEST*
%MOMM*%
%LPD*%
G01*
G04 APERTURE LIST*
%ADD10C,0.150000*%
G04 APERTURE END LIST*
D10*
X65040396Y-87448080D02*
X64651599Y-87369680D01*
X65040562Y-87448080D02*
X65040396Y-87448080D01*
X64041996Y-84692600D02*
X64041996Y-83315950D01*
X64041996Y-86069270D02*
X64041996Y-84692600D01*
X145953219Y-86838460D02*
X145739139Y-87155790D01*
X71793204Y-52827790D02*
X72104595Y-52764890D01*
X64120497Y-46025610D02*
X64334581Y-45708270D01*
X64041997Y-46414320D02*
X64120497Y-46025610D01*
X64041997Y-77953490D02*
X64041997Y-46414320D01*
X144044949Y-79946120D02*
X144199889Y-80717030D01*
X144199989Y-79174930D02*
X144044949Y-79946120D01*
X144622659Y-78543700D02*
X144199989Y-79174930D01*
X145250229Y-78115640D02*
X144622659Y-78543700D01*
X146020039Y-77953980D02*
X145250229Y-78115640D01*
X146032039Y-46414300D02*
X146020039Y-77953980D01*
X145953539Y-46025590D02*
X146032039Y-46414300D01*
X145739459Y-45708250D02*
X145953539Y-46025590D01*
X145421959Y-45494340D02*
X145739459Y-45708250D01*
X138705819Y-79532680D02*
X138534369Y-79786970D01*
X71304603Y-61875530D02*
X71304603Y-59650530D01*
X74504601Y-80021600D02*
X73304600Y-80021600D01*
X64334085Y-87155770D02*
X64120001Y-86838430D01*
X64651599Y-87369680D02*
X64334085Y-87155770D01*
X64815902Y-78111660D02*
X64041997Y-77953490D01*
X65447563Y-78539050D02*
X64815902Y-78111660D01*
X65873308Y-79171820D02*
X65447563Y-78539050D01*
X138534369Y-79786970D02*
X138280089Y-79958420D01*
X71304603Y-73134530D02*
X71304603Y-61875530D01*
X138768719Y-79221280D02*
X138705819Y-79532680D01*
X71367473Y-53253530D02*
X71538918Y-52999240D01*
X138768719Y-76996280D02*
X138768719Y-79221280D01*
X71304603Y-79221560D02*
X71304603Y-75359530D01*
X138768719Y-53558920D02*
X138768719Y-57387960D01*
X137968689Y-52758890D02*
X138280089Y-52821790D01*
X64041501Y-86449720D02*
X64041996Y-86069270D01*
X64120001Y-86838430D02*
X64041501Y-86449720D01*
X65447746Y-81353550D02*
X65873458Y-80720610D01*
X64816028Y-81781060D02*
X65447746Y-81353550D01*
X71367473Y-79532970D02*
X71304603Y-79221560D01*
X72104595Y-52764890D02*
X74504600Y-52764890D01*
X137968689Y-80021320D02*
X136768699Y-80021320D01*
X138768719Y-61250070D02*
X138768719Y-63475070D01*
X146016639Y-86068990D02*
X146031719Y-86449740D01*
X146017429Y-84692070D02*
X146016639Y-86068990D01*
X146018219Y-83315160D02*
X146017429Y-84692070D01*
X146019019Y-81938250D02*
X146018219Y-83315160D01*
X145249539Y-81776290D02*
X146019019Y-81938250D01*
X144622289Y-81348160D02*
X145249539Y-81776290D01*
X144199889Y-80717030D02*
X144622289Y-81348160D01*
X138705819Y-53247530D02*
X138768719Y-53558920D01*
X145033149Y-45415940D02*
X145421959Y-45494340D01*
X103767003Y-45415943D02*
X145033149Y-45415940D01*
X65040892Y-45415960D02*
X103767003Y-45415943D01*
X64652095Y-45494360D02*
X65040892Y-45415960D01*
X64334581Y-45708270D02*
X64652095Y-45494360D01*
X135568689Y-52758890D02*
X136768699Y-52758890D01*
X136768699Y-52758890D02*
X137968689Y-52758890D01*
X74504600Y-52764890D02*
X135568689Y-52758890D01*
X138768719Y-57387960D02*
X138768719Y-61250070D01*
X138534369Y-52993240D02*
X138705819Y-53247530D01*
X138768719Y-74771290D02*
X138768719Y-76996280D01*
X71538918Y-52999240D02*
X71793204Y-52827790D01*
X136768699Y-80021320D02*
X74504601Y-80021600D01*
X146031719Y-86449740D02*
X145953219Y-86838460D01*
X138768719Y-72509080D02*
X138768719Y-74771290D01*
X71304603Y-53564920D02*
X71367473Y-53253530D01*
X71793206Y-79958700D02*
X71538920Y-79787250D01*
X64041996Y-81939280D02*
X64816028Y-81781060D01*
X64041996Y-83315950D02*
X64041996Y-81939280D01*
X72104597Y-80021600D02*
X71793206Y-79958700D01*
X71304603Y-59650530D02*
X71304603Y-55789920D01*
X71304603Y-55789920D02*
X71304603Y-53564920D01*
X145421649Y-87369700D02*
X145032829Y-87448100D01*
X145739139Y-87155790D02*
X145421649Y-87369700D01*
X138280089Y-52821790D02*
X138534369Y-52993240D01*
X71538920Y-79787250D02*
X71367473Y-79532970D01*
X138280089Y-79958420D02*
X137968689Y-80021320D01*
X66029467Y-79946130D02*
X65873308Y-79171820D01*
X65873458Y-80720610D02*
X66029467Y-79946130D01*
X71304603Y-75359530D02*
X71304603Y-73134530D01*
X138768719Y-63475070D02*
X138768719Y-72509080D01*
X103766679Y-87448098D02*
X65040562Y-87448080D01*
X145032829Y-87448100D02*
X103766679Y-87448098D01*
X73304600Y-80021600D02*
X72104597Y-80021600D01*
M02*
