G04 #@! TF.GenerationSoftware,KiCad,Pcbnew,5.0.2-bee76a0~70~ubuntu18.04.1*
G04 #@! TF.CreationDate,2020-04-30T09:21:28+02:00*
G04 #@! TF.ProjectId,OpenFrame,4f70656e-4672-4616-9d65-2e6b69636164,rev?*
G04 #@! TF.SameCoordinates,Original*
G04 #@! TF.FileFunction,Copper,L1,Top*
G04 #@! TF.FilePolarity,Positive*
%FSLAX46Y46*%
G04 Gerber Fmt 4.6, Leading zero omitted, Abs format (unit mm)*
G04 Created by KiCad (PCBNEW 5.0.2-bee76a0~70~ubuntu18.04.1) date Do 30 Apr 2020 09:21:28 CEST*
%MOMM*%
%LPD*%
G01*
G04 APERTURE LIST*
G04 #@! TA.AperFunction,EtchedComponent*
%ADD10C,0.010000*%
G04 #@! TD*
G04 #@! TA.AperFunction,SMDPad,CuDef*
%ADD11R,1.501140X1.501140*%
G04 #@! TD*
G04 #@! TA.AperFunction,ViaPad*
%ADD12C,0.600000*%
G04 #@! TD*
G04 #@! TA.AperFunction,Conductor*
%ADD13C,0.110000*%
G04 #@! TD*
G04 APERTURE END LIST*
D10*
G04 #@! TO.C,G\002A\002A\002A*
G36*
X122656319Y-51354231D02*
X123824748Y-51354380D01*
X124952621Y-51354633D01*
X126037214Y-51354991D01*
X127075806Y-51355456D01*
X128065675Y-51356031D01*
X129004098Y-51356718D01*
X129888353Y-51357519D01*
X130715718Y-51358437D01*
X131483471Y-51359472D01*
X132188888Y-51360629D01*
X132829249Y-51361908D01*
X133401830Y-51363312D01*
X133903910Y-51364843D01*
X134332767Y-51366503D01*
X134685677Y-51368296D01*
X134750823Y-51368695D01*
X139686280Y-51400034D01*
X139856476Y-51517982D01*
X139971365Y-51613325D01*
X140060934Y-51715000D01*
X140082680Y-51750816D01*
X140094056Y-51797169D01*
X140104763Y-51889383D01*
X140114814Y-52029280D01*
X140124226Y-52218684D01*
X140133011Y-52459419D01*
X140141185Y-52753309D01*
X140148762Y-53102177D01*
X140155757Y-53507847D01*
X140162183Y-53972142D01*
X140168057Y-54496886D01*
X140173392Y-55083903D01*
X140178202Y-55735016D01*
X140182503Y-56452050D01*
X140186308Y-57236827D01*
X140189633Y-58091171D01*
X140192492Y-59016907D01*
X140194899Y-60015857D01*
X140196868Y-61089845D01*
X140198415Y-62240696D01*
X140199554Y-63470232D01*
X140200299Y-64780277D01*
X140200665Y-66172655D01*
X140200702Y-66576534D01*
X140200586Y-67974442D01*
X140200072Y-69289543D01*
X140199143Y-70523693D01*
X140197784Y-71678750D01*
X140195980Y-72756572D01*
X140193716Y-73759016D01*
X140190977Y-74687939D01*
X140187747Y-75545201D01*
X140184012Y-76332657D01*
X140179755Y-77052166D01*
X140174962Y-77705585D01*
X140169618Y-78294772D01*
X140163707Y-78821585D01*
X140157214Y-79287880D01*
X140150124Y-79695517D01*
X140142422Y-80046351D01*
X140134092Y-80342242D01*
X140125120Y-80585046D01*
X140115489Y-80776621D01*
X140105185Y-80918825D01*
X140094193Y-81013515D01*
X140082497Y-81062549D01*
X140082016Y-81063585D01*
X140013277Y-81157665D01*
X139905076Y-81259819D01*
X139856479Y-81296418D01*
X139686285Y-81414367D01*
X131554659Y-81441899D01*
X130842731Y-81444109D01*
X130050087Y-81446202D01*
X129180678Y-81448176D01*
X128238456Y-81450033D01*
X127227371Y-81451774D01*
X126151375Y-81453398D01*
X125014418Y-81454905D01*
X123820451Y-81456297D01*
X122573426Y-81457573D01*
X121277293Y-81458734D01*
X119936004Y-81459780D01*
X118553508Y-81460711D01*
X117133759Y-81461529D01*
X115680706Y-81462232D01*
X114198300Y-81462822D01*
X112690492Y-81463299D01*
X111161234Y-81463663D01*
X109614476Y-81463915D01*
X108054170Y-81464055D01*
X106484266Y-81464083D01*
X104908716Y-81463999D01*
X103331469Y-81463805D01*
X101756479Y-81463500D01*
X100187694Y-81463085D01*
X98629067Y-81462559D01*
X97084548Y-81461924D01*
X95558089Y-81461180D01*
X94053640Y-81460327D01*
X92575153Y-81459365D01*
X91126577Y-81458295D01*
X89711866Y-81457117D01*
X88334968Y-81455832D01*
X86999836Y-81454439D01*
X85710420Y-81452940D01*
X84470672Y-81451334D01*
X83284542Y-81449622D01*
X82155981Y-81447804D01*
X81088940Y-81445880D01*
X80087371Y-81443852D01*
X79155225Y-81441719D01*
X78296451Y-81439481D01*
X77515002Y-81437140D01*
X77512534Y-81437132D01*
X76604629Y-81434157D01*
X75777560Y-81431334D01*
X75027494Y-81428612D01*
X74350601Y-81425939D01*
X73743049Y-81423264D01*
X73201008Y-81420538D01*
X72720645Y-81417708D01*
X72298129Y-81414725D01*
X71929630Y-81411537D01*
X71611315Y-81408093D01*
X71339354Y-81404343D01*
X71109915Y-81400236D01*
X70919167Y-81395720D01*
X70763279Y-81390746D01*
X70638419Y-81385261D01*
X70540757Y-81379216D01*
X70466460Y-81372559D01*
X70411698Y-81365240D01*
X70372639Y-81357208D01*
X70345452Y-81348411D01*
X70331493Y-81341804D01*
X70197013Y-81257290D01*
X70100484Y-81163469D01*
X70034190Y-81043663D01*
X69990416Y-80881192D01*
X69961446Y-80659375D01*
X69949785Y-80516636D01*
X69946936Y-80434935D01*
X69944153Y-80271904D01*
X69941444Y-80030882D01*
X69938817Y-79715204D01*
X69936281Y-79328209D01*
X69933843Y-78873234D01*
X69931513Y-78353616D01*
X69929299Y-77772692D01*
X69927209Y-77133800D01*
X69925251Y-76440277D01*
X69923434Y-75695461D01*
X69921766Y-74902687D01*
X69920255Y-74065295D01*
X69918911Y-73186621D01*
X69917741Y-72270002D01*
X69916753Y-71318776D01*
X69915956Y-70336280D01*
X69915359Y-69325851D01*
X69914969Y-68290826D01*
X69914795Y-67234544D01*
X69914801Y-66555367D01*
X69914937Y-65237827D01*
X69915156Y-64002246D01*
X69915485Y-62845915D01*
X69915953Y-61766125D01*
X69916584Y-60760169D01*
X69917406Y-59825338D01*
X69918446Y-58958924D01*
X69919730Y-58158218D01*
X69921285Y-57420513D01*
X69923139Y-56743099D01*
X69925317Y-56123269D01*
X69927847Y-55558314D01*
X69930755Y-55045526D01*
X69934069Y-54582197D01*
X69937814Y-54165618D01*
X69942018Y-53793080D01*
X69946707Y-53461877D01*
X69948912Y-53337842D01*
X71247200Y-53337842D01*
X71247200Y-66288442D01*
X71247292Y-67629425D01*
X71247571Y-68887536D01*
X71248044Y-70064571D01*
X71248718Y-71162325D01*
X71249599Y-72182592D01*
X71250693Y-73127169D01*
X71252008Y-73997848D01*
X71253549Y-74796427D01*
X71255324Y-75524699D01*
X71257338Y-76184460D01*
X71259599Y-76777505D01*
X71262113Y-77305629D01*
X71264886Y-77770627D01*
X71267926Y-78174293D01*
X71271237Y-78518424D01*
X71274828Y-78804813D01*
X71278704Y-79035257D01*
X71282873Y-79211549D01*
X71287340Y-79335486D01*
X71292112Y-79408862D01*
X71295067Y-79429137D01*
X71374283Y-79615398D01*
X71512598Y-79806604D01*
X71523047Y-79818300D01*
X71615956Y-79917861D01*
X71690186Y-79978567D01*
X71772559Y-80012119D01*
X71889896Y-80030215D01*
X72036097Y-80042106D01*
X72100816Y-80043775D01*
X72247633Y-80045393D01*
X72473978Y-80046959D01*
X72777281Y-80048474D01*
X73154973Y-80049937D01*
X73604484Y-80051348D01*
X74123246Y-80052707D01*
X74708688Y-80054014D01*
X75358241Y-80055270D01*
X76069336Y-80056473D01*
X76839404Y-80057625D01*
X77665874Y-80058724D01*
X78546178Y-80059771D01*
X79477746Y-80060766D01*
X80458009Y-80061709D01*
X81484397Y-80062599D01*
X82554340Y-80063437D01*
X83665270Y-80064223D01*
X84814617Y-80064956D01*
X85999812Y-80065637D01*
X87218284Y-80066265D01*
X88467465Y-80066840D01*
X89744785Y-80067363D01*
X91047675Y-80067833D01*
X92373566Y-80068250D01*
X93719887Y-80068614D01*
X95084070Y-80068925D01*
X96463545Y-80069184D01*
X97855742Y-80069389D01*
X99258093Y-80069541D01*
X100668027Y-80069640D01*
X102082976Y-80069686D01*
X103500370Y-80069679D01*
X104917639Y-80069618D01*
X106332214Y-80069504D01*
X107741526Y-80069337D01*
X109143005Y-80069116D01*
X110534082Y-80068842D01*
X111912187Y-80068514D01*
X113274751Y-80068133D01*
X114619204Y-80067698D01*
X115942978Y-80067209D01*
X117243502Y-80066666D01*
X118518207Y-80066070D01*
X119764524Y-80065419D01*
X120979884Y-80064715D01*
X122161716Y-80063957D01*
X123307452Y-80063144D01*
X124414521Y-80062278D01*
X125480356Y-80061357D01*
X126502385Y-80060383D01*
X127478041Y-80059354D01*
X128404752Y-80058270D01*
X129279951Y-80057132D01*
X130101067Y-80055940D01*
X130865531Y-80054694D01*
X131570773Y-80053392D01*
X132214225Y-80052037D01*
X132793317Y-80050626D01*
X133305478Y-80049161D01*
X133748141Y-80047641D01*
X134118735Y-80046066D01*
X134414691Y-80044437D01*
X134556700Y-80043422D01*
X135210427Y-80038083D01*
X135784856Y-80033136D01*
X136285354Y-80028434D01*
X136717288Y-80023835D01*
X137086027Y-80019192D01*
X137396936Y-80014363D01*
X137655383Y-80009201D01*
X137866735Y-80003563D01*
X138036359Y-79997305D01*
X138169622Y-79990280D01*
X138271892Y-79982346D01*
X138348536Y-79973357D01*
X138404921Y-79963169D01*
X138446413Y-79951638D01*
X138478381Y-79938618D01*
X138480170Y-79937759D01*
X138560979Y-79890753D01*
X138622838Y-79830158D01*
X138669375Y-79743759D01*
X138704216Y-79619343D01*
X138730989Y-79444695D01*
X138753319Y-79207600D01*
X138770793Y-78959034D01*
X138774846Y-78853249D01*
X138778690Y-78667034D01*
X138782327Y-78404627D01*
X138785755Y-78070265D01*
X138788976Y-77668183D01*
X138791988Y-77202620D01*
X138794793Y-76677812D01*
X138797389Y-76097996D01*
X138799778Y-75467408D01*
X138801958Y-74790286D01*
X138803931Y-74070867D01*
X138805695Y-73313387D01*
X138807252Y-72522084D01*
X138808600Y-71701194D01*
X138809741Y-70854955D01*
X138810673Y-69987602D01*
X138811398Y-69103374D01*
X138811914Y-68206507D01*
X138812223Y-67301237D01*
X138812323Y-66391802D01*
X138812216Y-65482439D01*
X138811900Y-64577385D01*
X138811377Y-63680876D01*
X138810645Y-62797149D01*
X138809706Y-61930442D01*
X138808558Y-61084991D01*
X138807203Y-60265033D01*
X138805639Y-59474805D01*
X138803868Y-58718544D01*
X138801888Y-58000487D01*
X138799701Y-57324870D01*
X138797305Y-56695932D01*
X138794701Y-56117907D01*
X138791890Y-55595035D01*
X138788870Y-55131550D01*
X138785643Y-54731691D01*
X138782207Y-54399694D01*
X138778564Y-54139796D01*
X138774712Y-53956234D01*
X138770793Y-53855367D01*
X138752955Y-53620165D01*
X138731832Y-53404459D01*
X138709645Y-53227429D01*
X138688616Y-53108257D01*
X138681171Y-53081497D01*
X138660920Y-53024692D01*
X138638583Y-52976220D01*
X138607657Y-52935322D01*
X138561639Y-52901243D01*
X138494027Y-52873224D01*
X138398318Y-52850507D01*
X138268009Y-52832337D01*
X138096597Y-52817954D01*
X137877580Y-52806602D01*
X137604455Y-52797523D01*
X137270720Y-52789961D01*
X136869871Y-52783156D01*
X136395406Y-52776352D01*
X136017200Y-52771201D01*
X135830707Y-52769232D01*
X135565389Y-52767303D01*
X135223826Y-52765416D01*
X134808594Y-52763571D01*
X134322269Y-52761768D01*
X133767430Y-52760009D01*
X133146654Y-52758294D01*
X132462518Y-52756623D01*
X131717598Y-52754997D01*
X130914473Y-52753418D01*
X130055720Y-52751885D01*
X129143915Y-52750399D01*
X128181637Y-52748961D01*
X127171461Y-52747572D01*
X126115967Y-52746231D01*
X125017729Y-52744941D01*
X123879327Y-52743701D01*
X122703337Y-52742512D01*
X121492336Y-52741375D01*
X120248902Y-52740290D01*
X118975612Y-52739259D01*
X117675043Y-52738281D01*
X116349772Y-52737357D01*
X115002377Y-52736489D01*
X113635435Y-52735676D01*
X112251522Y-52734919D01*
X110853217Y-52734220D01*
X109443096Y-52733578D01*
X108023737Y-52732994D01*
X106597717Y-52732469D01*
X105167613Y-52732004D01*
X103736003Y-52731599D01*
X102305463Y-52731255D01*
X100878571Y-52730973D01*
X99457904Y-52730752D01*
X98046039Y-52730595D01*
X96645554Y-52730501D01*
X95259026Y-52730471D01*
X93889032Y-52730506D01*
X92538149Y-52730606D01*
X91208954Y-52730772D01*
X89904025Y-52731005D01*
X88625939Y-52731306D01*
X87377274Y-52731674D01*
X86160605Y-52732111D01*
X84978512Y-52732618D01*
X83833570Y-52733194D01*
X82728357Y-52733841D01*
X81665450Y-52734560D01*
X80647428Y-52735350D01*
X79676865Y-52736213D01*
X78756341Y-52737149D01*
X77888432Y-52738159D01*
X77075716Y-52739244D01*
X76320769Y-52740403D01*
X75626169Y-52741639D01*
X74994494Y-52742951D01*
X74428320Y-52744340D01*
X73930224Y-52745807D01*
X73502784Y-52747353D01*
X73148578Y-52748977D01*
X72870181Y-52750682D01*
X72670172Y-52752466D01*
X72551128Y-52754332D01*
X72525211Y-52755172D01*
X72265669Y-52768238D01*
X72075505Y-52780781D01*
X71939486Y-52795356D01*
X71842380Y-52814514D01*
X71768954Y-52840809D01*
X71703975Y-52876794D01*
X71671267Y-52898290D01*
X71539624Y-53004279D01*
X71410260Y-53134272D01*
X71377507Y-53173271D01*
X71247200Y-53337842D01*
X69948912Y-53337842D01*
X69951909Y-53169299D01*
X69957649Y-52912638D01*
X69963956Y-52689185D01*
X69970855Y-52496234D01*
X69978373Y-52331074D01*
X69986538Y-52190998D01*
X69995375Y-52073297D01*
X70004912Y-51975264D01*
X70015176Y-51894190D01*
X70026193Y-51827366D01*
X70037989Y-51772084D01*
X70050593Y-51725637D01*
X70061769Y-51691619D01*
X70082529Y-51637699D01*
X70108158Y-51592469D01*
X70145883Y-51555025D01*
X70202934Y-51524463D01*
X70286539Y-51499877D01*
X70403926Y-51480365D01*
X70562325Y-51465020D01*
X70768963Y-51452939D01*
X71031069Y-51443218D01*
X71355871Y-51434952D01*
X71750599Y-51427237D01*
X72222480Y-51419168D01*
X72242034Y-51418842D01*
X72417989Y-51416610D01*
X72675889Y-51414384D01*
X73013012Y-51412164D01*
X73426634Y-51409954D01*
X73914034Y-51407755D01*
X74472489Y-51405570D01*
X75099278Y-51403401D01*
X75791677Y-51401249D01*
X76546965Y-51399118D01*
X77362420Y-51397009D01*
X78235319Y-51394924D01*
X79162939Y-51392866D01*
X80142560Y-51390837D01*
X81171458Y-51388839D01*
X82246911Y-51386875D01*
X83366197Y-51384946D01*
X84526593Y-51383054D01*
X85725378Y-51381202D01*
X86959830Y-51379393D01*
X88227225Y-51377627D01*
X89524842Y-51375908D01*
X90849959Y-51374237D01*
X92199852Y-51372617D01*
X93571801Y-51371050D01*
X94963082Y-51369538D01*
X96370974Y-51368083D01*
X97792754Y-51366688D01*
X99225700Y-51365355D01*
X100667090Y-51364085D01*
X102114201Y-51362881D01*
X103564312Y-51361745D01*
X105014699Y-51360680D01*
X106462641Y-51359688D01*
X107905416Y-51358770D01*
X109340301Y-51357929D01*
X110764574Y-51357167D01*
X112175513Y-51356486D01*
X113570395Y-51355889D01*
X114946498Y-51355378D01*
X116301101Y-51354954D01*
X117631480Y-51354621D01*
X118934913Y-51354380D01*
X120208679Y-51354233D01*
X121450055Y-51354183D01*
X122656319Y-51354231D01*
X122656319Y-51354231D01*
G37*
X122656319Y-51354231D02*
X123824748Y-51354380D01*
X124952621Y-51354633D01*
X126037214Y-51354991D01*
X127075806Y-51355456D01*
X128065675Y-51356031D01*
X129004098Y-51356718D01*
X129888353Y-51357519D01*
X130715718Y-51358437D01*
X131483471Y-51359472D01*
X132188888Y-51360629D01*
X132829249Y-51361908D01*
X133401830Y-51363312D01*
X133903910Y-51364843D01*
X134332767Y-51366503D01*
X134685677Y-51368296D01*
X134750823Y-51368695D01*
X139686280Y-51400034D01*
X139856476Y-51517982D01*
X139971365Y-51613325D01*
X140060934Y-51715000D01*
X140082680Y-51750816D01*
X140094056Y-51797169D01*
X140104763Y-51889383D01*
X140114814Y-52029280D01*
X140124226Y-52218684D01*
X140133011Y-52459419D01*
X140141185Y-52753309D01*
X140148762Y-53102177D01*
X140155757Y-53507847D01*
X140162183Y-53972142D01*
X140168057Y-54496886D01*
X140173392Y-55083903D01*
X140178202Y-55735016D01*
X140182503Y-56452050D01*
X140186308Y-57236827D01*
X140189633Y-58091171D01*
X140192492Y-59016907D01*
X140194899Y-60015857D01*
X140196868Y-61089845D01*
X140198415Y-62240696D01*
X140199554Y-63470232D01*
X140200299Y-64780277D01*
X140200665Y-66172655D01*
X140200702Y-66576534D01*
X140200586Y-67974442D01*
X140200072Y-69289543D01*
X140199143Y-70523693D01*
X140197784Y-71678750D01*
X140195980Y-72756572D01*
X140193716Y-73759016D01*
X140190977Y-74687939D01*
X140187747Y-75545201D01*
X140184012Y-76332657D01*
X140179755Y-77052166D01*
X140174962Y-77705585D01*
X140169618Y-78294772D01*
X140163707Y-78821585D01*
X140157214Y-79287880D01*
X140150124Y-79695517D01*
X140142422Y-80046351D01*
X140134092Y-80342242D01*
X140125120Y-80585046D01*
X140115489Y-80776621D01*
X140105185Y-80918825D01*
X140094193Y-81013515D01*
X140082497Y-81062549D01*
X140082016Y-81063585D01*
X140013277Y-81157665D01*
X139905076Y-81259819D01*
X139856479Y-81296418D01*
X139686285Y-81414367D01*
X131554659Y-81441899D01*
X130842731Y-81444109D01*
X130050087Y-81446202D01*
X129180678Y-81448176D01*
X128238456Y-81450033D01*
X127227371Y-81451774D01*
X126151375Y-81453398D01*
X125014418Y-81454905D01*
X123820451Y-81456297D01*
X122573426Y-81457573D01*
X121277293Y-81458734D01*
X119936004Y-81459780D01*
X118553508Y-81460711D01*
X117133759Y-81461529D01*
X115680706Y-81462232D01*
X114198300Y-81462822D01*
X112690492Y-81463299D01*
X111161234Y-81463663D01*
X109614476Y-81463915D01*
X108054170Y-81464055D01*
X106484266Y-81464083D01*
X104908716Y-81463999D01*
X103331469Y-81463805D01*
X101756479Y-81463500D01*
X100187694Y-81463085D01*
X98629067Y-81462559D01*
X97084548Y-81461924D01*
X95558089Y-81461180D01*
X94053640Y-81460327D01*
X92575153Y-81459365D01*
X91126577Y-81458295D01*
X89711866Y-81457117D01*
X88334968Y-81455832D01*
X86999836Y-81454439D01*
X85710420Y-81452940D01*
X84470672Y-81451334D01*
X83284542Y-81449622D01*
X82155981Y-81447804D01*
X81088940Y-81445880D01*
X80087371Y-81443852D01*
X79155225Y-81441719D01*
X78296451Y-81439481D01*
X77515002Y-81437140D01*
X77512534Y-81437132D01*
X76604629Y-81434157D01*
X75777560Y-81431334D01*
X75027494Y-81428612D01*
X74350601Y-81425939D01*
X73743049Y-81423264D01*
X73201008Y-81420538D01*
X72720645Y-81417708D01*
X72298129Y-81414725D01*
X71929630Y-81411537D01*
X71611315Y-81408093D01*
X71339354Y-81404343D01*
X71109915Y-81400236D01*
X70919167Y-81395720D01*
X70763279Y-81390746D01*
X70638419Y-81385261D01*
X70540757Y-81379216D01*
X70466460Y-81372559D01*
X70411698Y-81365240D01*
X70372639Y-81357208D01*
X70345452Y-81348411D01*
X70331493Y-81341804D01*
X70197013Y-81257290D01*
X70100484Y-81163469D01*
X70034190Y-81043663D01*
X69990416Y-80881192D01*
X69961446Y-80659375D01*
X69949785Y-80516636D01*
X69946936Y-80434935D01*
X69944153Y-80271904D01*
X69941444Y-80030882D01*
X69938817Y-79715204D01*
X69936281Y-79328209D01*
X69933843Y-78873234D01*
X69931513Y-78353616D01*
X69929299Y-77772692D01*
X69927209Y-77133800D01*
X69925251Y-76440277D01*
X69923434Y-75695461D01*
X69921766Y-74902687D01*
X69920255Y-74065295D01*
X69918911Y-73186621D01*
X69917741Y-72270002D01*
X69916753Y-71318776D01*
X69915956Y-70336280D01*
X69915359Y-69325851D01*
X69914969Y-68290826D01*
X69914795Y-67234544D01*
X69914801Y-66555367D01*
X69914937Y-65237827D01*
X69915156Y-64002246D01*
X69915485Y-62845915D01*
X69915953Y-61766125D01*
X69916584Y-60760169D01*
X69917406Y-59825338D01*
X69918446Y-58958924D01*
X69919730Y-58158218D01*
X69921285Y-57420513D01*
X69923139Y-56743099D01*
X69925317Y-56123269D01*
X69927847Y-55558314D01*
X69930755Y-55045526D01*
X69934069Y-54582197D01*
X69937814Y-54165618D01*
X69942018Y-53793080D01*
X69946707Y-53461877D01*
X69948912Y-53337842D01*
X71247200Y-53337842D01*
X71247200Y-66288442D01*
X71247292Y-67629425D01*
X71247571Y-68887536D01*
X71248044Y-70064571D01*
X71248718Y-71162325D01*
X71249599Y-72182592D01*
X71250693Y-73127169D01*
X71252008Y-73997848D01*
X71253549Y-74796427D01*
X71255324Y-75524699D01*
X71257338Y-76184460D01*
X71259599Y-76777505D01*
X71262113Y-77305629D01*
X71264886Y-77770627D01*
X71267926Y-78174293D01*
X71271237Y-78518424D01*
X71274828Y-78804813D01*
X71278704Y-79035257D01*
X71282873Y-79211549D01*
X71287340Y-79335486D01*
X71292112Y-79408862D01*
X71295067Y-79429137D01*
X71374283Y-79615398D01*
X71512598Y-79806604D01*
X71523047Y-79818300D01*
X71615956Y-79917861D01*
X71690186Y-79978567D01*
X71772559Y-80012119D01*
X71889896Y-80030215D01*
X72036097Y-80042106D01*
X72100816Y-80043775D01*
X72247633Y-80045393D01*
X72473978Y-80046959D01*
X72777281Y-80048474D01*
X73154973Y-80049937D01*
X73604484Y-80051348D01*
X74123246Y-80052707D01*
X74708688Y-80054014D01*
X75358241Y-80055270D01*
X76069336Y-80056473D01*
X76839404Y-80057625D01*
X77665874Y-80058724D01*
X78546178Y-80059771D01*
X79477746Y-80060766D01*
X80458009Y-80061709D01*
X81484397Y-80062599D01*
X82554340Y-80063437D01*
X83665270Y-80064223D01*
X84814617Y-80064956D01*
X85999812Y-80065637D01*
X87218284Y-80066265D01*
X88467465Y-80066840D01*
X89744785Y-80067363D01*
X91047675Y-80067833D01*
X92373566Y-80068250D01*
X93719887Y-80068614D01*
X95084070Y-80068925D01*
X96463545Y-80069184D01*
X97855742Y-80069389D01*
X99258093Y-80069541D01*
X100668027Y-80069640D01*
X102082976Y-80069686D01*
X103500370Y-80069679D01*
X104917639Y-80069618D01*
X106332214Y-80069504D01*
X107741526Y-80069337D01*
X109143005Y-80069116D01*
X110534082Y-80068842D01*
X111912187Y-80068514D01*
X113274751Y-80068133D01*
X114619204Y-80067698D01*
X115942978Y-80067209D01*
X117243502Y-80066666D01*
X118518207Y-80066070D01*
X119764524Y-80065419D01*
X120979884Y-80064715D01*
X122161716Y-80063957D01*
X123307452Y-80063144D01*
X124414521Y-80062278D01*
X125480356Y-80061357D01*
X126502385Y-80060383D01*
X127478041Y-80059354D01*
X128404752Y-80058270D01*
X129279951Y-80057132D01*
X130101067Y-80055940D01*
X130865531Y-80054694D01*
X131570773Y-80053392D01*
X132214225Y-80052037D01*
X132793317Y-80050626D01*
X133305478Y-80049161D01*
X133748141Y-80047641D01*
X134118735Y-80046066D01*
X134414691Y-80044437D01*
X134556700Y-80043422D01*
X135210427Y-80038083D01*
X135784856Y-80033136D01*
X136285354Y-80028434D01*
X136717288Y-80023835D01*
X137086027Y-80019192D01*
X137396936Y-80014363D01*
X137655383Y-80009201D01*
X137866735Y-80003563D01*
X138036359Y-79997305D01*
X138169622Y-79990280D01*
X138271892Y-79982346D01*
X138348536Y-79973357D01*
X138404921Y-79963169D01*
X138446413Y-79951638D01*
X138478381Y-79938618D01*
X138480170Y-79937759D01*
X138560979Y-79890753D01*
X138622838Y-79830158D01*
X138669375Y-79743759D01*
X138704216Y-79619343D01*
X138730989Y-79444695D01*
X138753319Y-79207600D01*
X138770793Y-78959034D01*
X138774846Y-78853249D01*
X138778690Y-78667034D01*
X138782327Y-78404627D01*
X138785755Y-78070265D01*
X138788976Y-77668183D01*
X138791988Y-77202620D01*
X138794793Y-76677812D01*
X138797389Y-76097996D01*
X138799778Y-75467408D01*
X138801958Y-74790286D01*
X138803931Y-74070867D01*
X138805695Y-73313387D01*
X138807252Y-72522084D01*
X138808600Y-71701194D01*
X138809741Y-70854955D01*
X138810673Y-69987602D01*
X138811398Y-69103374D01*
X138811914Y-68206507D01*
X138812223Y-67301237D01*
X138812323Y-66391802D01*
X138812216Y-65482439D01*
X138811900Y-64577385D01*
X138811377Y-63680876D01*
X138810645Y-62797149D01*
X138809706Y-61930442D01*
X138808558Y-61084991D01*
X138807203Y-60265033D01*
X138805639Y-59474805D01*
X138803868Y-58718544D01*
X138801888Y-58000487D01*
X138799701Y-57324870D01*
X138797305Y-56695932D01*
X138794701Y-56117907D01*
X138791890Y-55595035D01*
X138788870Y-55131550D01*
X138785643Y-54731691D01*
X138782207Y-54399694D01*
X138778564Y-54139796D01*
X138774712Y-53956234D01*
X138770793Y-53855367D01*
X138752955Y-53620165D01*
X138731832Y-53404459D01*
X138709645Y-53227429D01*
X138688616Y-53108257D01*
X138681171Y-53081497D01*
X138660920Y-53024692D01*
X138638583Y-52976220D01*
X138607657Y-52935322D01*
X138561639Y-52901243D01*
X138494027Y-52873224D01*
X138398318Y-52850507D01*
X138268009Y-52832337D01*
X138096597Y-52817954D01*
X137877580Y-52806602D01*
X137604455Y-52797523D01*
X137270720Y-52789961D01*
X136869871Y-52783156D01*
X136395406Y-52776352D01*
X136017200Y-52771201D01*
X135830707Y-52769232D01*
X135565389Y-52767303D01*
X135223826Y-52765416D01*
X134808594Y-52763571D01*
X134322269Y-52761768D01*
X133767430Y-52760009D01*
X133146654Y-52758294D01*
X132462518Y-52756623D01*
X131717598Y-52754997D01*
X130914473Y-52753418D01*
X130055720Y-52751885D01*
X129143915Y-52750399D01*
X128181637Y-52748961D01*
X127171461Y-52747572D01*
X126115967Y-52746231D01*
X125017729Y-52744941D01*
X123879327Y-52743701D01*
X122703337Y-52742512D01*
X121492336Y-52741375D01*
X120248902Y-52740290D01*
X118975612Y-52739259D01*
X117675043Y-52738281D01*
X116349772Y-52737357D01*
X115002377Y-52736489D01*
X113635435Y-52735676D01*
X112251522Y-52734919D01*
X110853217Y-52734220D01*
X109443096Y-52733578D01*
X108023737Y-52732994D01*
X106597717Y-52732469D01*
X105167613Y-52732004D01*
X103736003Y-52731599D01*
X102305463Y-52731255D01*
X100878571Y-52730973D01*
X99457904Y-52730752D01*
X98046039Y-52730595D01*
X96645554Y-52730501D01*
X95259026Y-52730471D01*
X93889032Y-52730506D01*
X92538149Y-52730606D01*
X91208954Y-52730772D01*
X89904025Y-52731005D01*
X88625939Y-52731306D01*
X87377274Y-52731674D01*
X86160605Y-52732111D01*
X84978512Y-52732618D01*
X83833570Y-52733194D01*
X82728357Y-52733841D01*
X81665450Y-52734560D01*
X80647428Y-52735350D01*
X79676865Y-52736213D01*
X78756341Y-52737149D01*
X77888432Y-52738159D01*
X77075716Y-52739244D01*
X76320769Y-52740403D01*
X75626169Y-52741639D01*
X74994494Y-52742951D01*
X74428320Y-52744340D01*
X73930224Y-52745807D01*
X73502784Y-52747353D01*
X73148578Y-52748977D01*
X72870181Y-52750682D01*
X72670172Y-52752466D01*
X72551128Y-52754332D01*
X72525211Y-52755172D01*
X72265669Y-52768238D01*
X72075505Y-52780781D01*
X71939486Y-52795356D01*
X71842380Y-52814514D01*
X71768954Y-52840809D01*
X71703975Y-52876794D01*
X71671267Y-52898290D01*
X71539624Y-53004279D01*
X71410260Y-53134272D01*
X71377507Y-53173271D01*
X71247200Y-53337842D01*
X69948912Y-53337842D01*
X69951909Y-53169299D01*
X69957649Y-52912638D01*
X69963956Y-52689185D01*
X69970855Y-52496234D01*
X69978373Y-52331074D01*
X69986538Y-52190998D01*
X69995375Y-52073297D01*
X70004912Y-51975264D01*
X70015176Y-51894190D01*
X70026193Y-51827366D01*
X70037989Y-51772084D01*
X70050593Y-51725637D01*
X70061769Y-51691619D01*
X70082529Y-51637699D01*
X70108158Y-51592469D01*
X70145883Y-51555025D01*
X70202934Y-51524463D01*
X70286539Y-51499877D01*
X70403926Y-51480365D01*
X70562325Y-51465020D01*
X70768963Y-51452939D01*
X71031069Y-51443218D01*
X71355871Y-51434952D01*
X71750599Y-51427237D01*
X72222480Y-51419168D01*
X72242034Y-51418842D01*
X72417989Y-51416610D01*
X72675889Y-51414384D01*
X73013012Y-51412164D01*
X73426634Y-51409954D01*
X73914034Y-51407755D01*
X74472489Y-51405570D01*
X75099278Y-51403401D01*
X75791677Y-51401249D01*
X76546965Y-51399118D01*
X77362420Y-51397009D01*
X78235319Y-51394924D01*
X79162939Y-51392866D01*
X80142560Y-51390837D01*
X81171458Y-51388839D01*
X82246911Y-51386875D01*
X83366197Y-51384946D01*
X84526593Y-51383054D01*
X85725378Y-51381202D01*
X86959830Y-51379393D01*
X88227225Y-51377627D01*
X89524842Y-51375908D01*
X90849959Y-51374237D01*
X92199852Y-51372617D01*
X93571801Y-51371050D01*
X94963082Y-51369538D01*
X96370974Y-51368083D01*
X97792754Y-51366688D01*
X99225700Y-51365355D01*
X100667090Y-51364085D01*
X102114201Y-51362881D01*
X103564312Y-51361745D01*
X105014699Y-51360680D01*
X106462641Y-51359688D01*
X107905416Y-51358770D01*
X109340301Y-51357929D01*
X110764574Y-51357167D01*
X112175513Y-51356486D01*
X113570395Y-51355889D01*
X114946498Y-51355378D01*
X116301101Y-51354954D01*
X117631480Y-51354621D01*
X118934913Y-51354380D01*
X120208679Y-51354233D01*
X121450055Y-51354183D01*
X122656319Y-51354231D01*
G04 #@! TD*
D11*
G04 #@! TO.P,X1,1*
G04 #@! TO.N,GND*
X105000000Y-86549400D03*
G04 #@! TD*
D12*
G04 #@! TO.N,GND*
X105000000Y-80809000D03*
G04 #@! TD*
D13*
G04 #@! TO.N,GND*
X105000000Y-80809000D02*
X105000000Y-86549400D01*
G04 #@! TD*
M02*
