G04 #@! TF.GenerationSoftware,KiCad,Pcbnew,5.0.2-bee76a0~70~ubuntu18.04.1*
G04 #@! TF.CreationDate,2020-04-30T09:21:28+02:00*
G04 #@! TF.ProjectId,OpenFrame,4f70656e-4672-4616-9d65-2e6b69636164,rev?*
G04 #@! TF.SameCoordinates,Original*
G04 #@! TF.FileFunction,Legend,Top*
G04 #@! TF.FilePolarity,Positive*
%FSLAX46Y46*%
G04 Gerber Fmt 4.6, Leading zero omitted, Abs format (unit mm)*
G04 Created by KiCad (PCBNEW 5.0.2-bee76a0~70~ubuntu18.04.1) date Do 30 Apr 2020 09:21:28 CEST*
%MOMM*%
%LPD*%
G01*
G04 APERTURE LIST*
%ADD10C,0.010000*%
%ADD11C,0.150000*%
G04 APERTURE END LIST*
D10*
G04 #@! TO.C,G\002A\002A\002A*
G36*
X111920566Y-83713537D02*
X112198575Y-83754020D01*
X112406676Y-83838566D01*
X112550203Y-83972418D01*
X112634489Y-84160820D01*
X112664868Y-84409015D01*
X112665138Y-84445433D01*
X112640871Y-84715036D01*
X112566666Y-84918646D01*
X112437316Y-85061363D01*
X112247610Y-85148285D01*
X111992340Y-85184513D01*
X111908319Y-85186266D01*
X111607800Y-85186266D01*
X111607800Y-83693465D01*
X111920566Y-83713537D01*
X111920566Y-83713537D01*
G37*
X111920566Y-83713537D02*
X112198575Y-83754020D01*
X112406676Y-83838566D01*
X112550203Y-83972418D01*
X112634489Y-84160820D01*
X112664868Y-84409015D01*
X112665138Y-84445433D01*
X112640871Y-84715036D01*
X112566666Y-84918646D01*
X112437316Y-85061363D01*
X112247610Y-85148285D01*
X111992340Y-85184513D01*
X111908319Y-85186266D01*
X111607800Y-85186266D01*
X111607800Y-83693465D01*
X111920566Y-83713537D01*
G36*
X109221623Y-83712618D02*
X109385480Y-83728479D01*
X109489381Y-83755604D01*
X109557970Y-83801900D01*
X109581456Y-83828073D01*
X109651620Y-83975036D01*
X109644978Y-84130813D01*
X109562848Y-84271580D01*
X109556557Y-84278024D01*
X109481512Y-84338703D01*
X109392692Y-84370254D01*
X109260208Y-84381309D01*
X109196724Y-84381933D01*
X108940800Y-84381933D01*
X108940800Y-83694736D01*
X109221623Y-83712618D01*
X109221623Y-83712618D01*
G37*
X109221623Y-83712618D02*
X109385480Y-83728479D01*
X109489381Y-83755604D01*
X109557970Y-83801900D01*
X109581456Y-83828073D01*
X109651620Y-83975036D01*
X109644978Y-84130813D01*
X109562848Y-84271580D01*
X109556557Y-84278024D01*
X109481512Y-84338703D01*
X109392692Y-84370254D01*
X109260208Y-84381309D01*
X109196724Y-84381933D01*
X108940800Y-84381933D01*
X108940800Y-83694736D01*
X109221623Y-83712618D01*
G36*
X105941430Y-83713251D02*
X106102516Y-83731907D01*
X106204681Y-83764893D01*
X106273481Y-83820933D01*
X106280096Y-83828863D01*
X106349772Y-83975306D01*
X106342934Y-84130871D01*
X106260952Y-84271471D01*
X106254557Y-84278024D01*
X106173817Y-84341730D01*
X106076442Y-84373044D01*
X105930069Y-84381897D01*
X105915891Y-84381933D01*
X105681133Y-84381933D01*
X105681133Y-83694423D01*
X105941430Y-83713251D01*
X105941430Y-83713251D01*
G37*
X105941430Y-83713251D02*
X106102516Y-83731907D01*
X106204681Y-83764893D01*
X106273481Y-83820933D01*
X106280096Y-83828863D01*
X106349772Y-83975306D01*
X106342934Y-84130871D01*
X106260952Y-84271471D01*
X106254557Y-84278024D01*
X106173817Y-84341730D01*
X106076442Y-84373044D01*
X105930069Y-84381897D01*
X105915891Y-84381933D01*
X105681133Y-84381933D01*
X105681133Y-83694423D01*
X105941430Y-83713251D01*
G36*
X104244982Y-83845008D02*
X104285345Y-83949578D01*
X104338289Y-84093397D01*
X104396543Y-84255987D01*
X104452833Y-84416871D01*
X104499887Y-84555571D01*
X104530433Y-84651609D01*
X104538133Y-84683316D01*
X104499262Y-84701137D01*
X104396437Y-84714320D01*
X104250344Y-84720436D01*
X104220633Y-84720600D01*
X104032591Y-84714193D01*
X103927383Y-84695025D01*
X103903133Y-84671910D01*
X103916431Y-84615988D01*
X103951599Y-84506450D01*
X104001544Y-84362531D01*
X104059176Y-84203471D01*
X104117403Y-84048506D01*
X104169133Y-83916874D01*
X104207277Y-83827813D01*
X104224474Y-83800163D01*
X104244982Y-83845008D01*
X104244982Y-83845008D01*
G37*
X104244982Y-83845008D02*
X104285345Y-83949578D01*
X104338289Y-84093397D01*
X104396543Y-84255987D01*
X104452833Y-84416871D01*
X104499887Y-84555571D01*
X104530433Y-84651609D01*
X104538133Y-84683316D01*
X104499262Y-84701137D01*
X104396437Y-84714320D01*
X104250344Y-84720436D01*
X104220633Y-84720600D01*
X104032591Y-84714193D01*
X103927383Y-84695025D01*
X103903133Y-84671910D01*
X103916431Y-84615988D01*
X103951599Y-84506450D01*
X104001544Y-84362531D01*
X104059176Y-84203471D01*
X104117403Y-84048506D01*
X104169133Y-83916874D01*
X104207277Y-83827813D01*
X104224474Y-83800163D01*
X104244982Y-83845008D01*
G36*
X96242020Y-83724168D02*
X96391117Y-83785997D01*
X96484527Y-83894776D01*
X96497658Y-83923167D01*
X96525181Y-84076351D01*
X96493256Y-84225494D01*
X96410648Y-84340755D01*
X96366369Y-84370188D01*
X96262913Y-84401232D01*
X96117715Y-84420553D01*
X96039717Y-84423642D01*
X95817467Y-84424266D01*
X95817467Y-83704600D01*
X96027141Y-83704600D01*
X96242020Y-83724168D01*
X96242020Y-83724168D01*
G37*
X96242020Y-83724168D02*
X96391117Y-83785997D01*
X96484527Y-83894776D01*
X96497658Y-83923167D01*
X96525181Y-84076351D01*
X96493256Y-84225494D01*
X96410648Y-84340755D01*
X96366369Y-84370188D01*
X96262913Y-84401232D01*
X96117715Y-84420553D01*
X96039717Y-84423642D01*
X95817467Y-84424266D01*
X95817467Y-83704600D01*
X96027141Y-83704600D01*
X96242020Y-83724168D01*
G36*
X94442620Y-83709982D02*
X94568044Y-83763821D01*
X94698170Y-83895588D01*
X94787037Y-84080108D01*
X94834869Y-84297689D01*
X94841885Y-84528635D01*
X94808308Y-84753255D01*
X94734357Y-84951854D01*
X94620255Y-85104740D01*
X94552417Y-85155441D01*
X94381769Y-85214663D01*
X94183073Y-85223067D01*
X93995684Y-85181075D01*
X93930245Y-85148772D01*
X93784358Y-85011681D01*
X93691275Y-84810005D01*
X93650562Y-84542690D01*
X93648525Y-84467190D01*
X93675284Y-84181273D01*
X93760112Y-83955593D01*
X93903883Y-83787954D01*
X93926233Y-83770831D01*
X94074627Y-83706340D01*
X94258955Y-83685923D01*
X94442620Y-83709982D01*
X94442620Y-83709982D01*
G37*
X94442620Y-83709982D02*
X94568044Y-83763821D01*
X94698170Y-83895588D01*
X94787037Y-84080108D01*
X94834869Y-84297689D01*
X94841885Y-84528635D01*
X94808308Y-84753255D01*
X94734357Y-84951854D01*
X94620255Y-85104740D01*
X94552417Y-85155441D01*
X94381769Y-85214663D01*
X94183073Y-85223067D01*
X93995684Y-85181075D01*
X93930245Y-85148772D01*
X93784358Y-85011681D01*
X93691275Y-84810005D01*
X93650562Y-84542690D01*
X93648525Y-84467190D01*
X93675284Y-84181273D01*
X93760112Y-83955593D01*
X93903883Y-83787954D01*
X93926233Y-83770831D01*
X94074627Y-83706340D01*
X94258955Y-83685923D01*
X94442620Y-83709982D01*
G36*
X104640607Y-45494273D02*
X106479005Y-45495398D01*
X108297671Y-45496578D01*
X110094728Y-45497813D01*
X111868302Y-45499098D01*
X113616516Y-45500432D01*
X115337493Y-45501811D01*
X117029360Y-45503234D01*
X118690238Y-45504697D01*
X120318253Y-45506198D01*
X121911529Y-45507734D01*
X123468189Y-45509303D01*
X124986359Y-45510901D01*
X126464161Y-45512528D01*
X127899720Y-45514178D01*
X129291161Y-45515851D01*
X130636607Y-45517544D01*
X131934182Y-45519253D01*
X133182011Y-45520977D01*
X134378217Y-45522712D01*
X135520925Y-45524456D01*
X136608260Y-45526206D01*
X137638344Y-45527960D01*
X138609302Y-45529715D01*
X139519259Y-45531469D01*
X140366337Y-45533218D01*
X141148663Y-45534961D01*
X141864359Y-45536694D01*
X142511549Y-45538415D01*
X143088359Y-45540121D01*
X143592911Y-45541810D01*
X144023330Y-45543479D01*
X144377741Y-45545125D01*
X144654266Y-45546746D01*
X144851032Y-45548339D01*
X144966160Y-45549902D01*
X144995617Y-45550847D01*
X145204333Y-45566656D01*
X145347654Y-45582975D01*
X145444736Y-45604832D01*
X145514729Y-45637252D01*
X145576788Y-45685262D01*
X145604371Y-45710606D01*
X145707607Y-45831145D01*
X145802876Y-45979706D01*
X145827238Y-46027933D01*
X145843484Y-46065236D01*
X145857669Y-46105793D01*
X145869995Y-46155508D01*
X145880663Y-46220283D01*
X145889874Y-46306022D01*
X145897831Y-46418629D01*
X145904733Y-46564008D01*
X145910783Y-46748061D01*
X145916182Y-46976693D01*
X145921132Y-47255807D01*
X145925833Y-47591307D01*
X145930487Y-47989096D01*
X145935296Y-48455077D01*
X145940461Y-48995154D01*
X145944925Y-49478100D01*
X145947452Y-49796281D01*
X145949950Y-50194605D01*
X145952408Y-50668546D01*
X145954816Y-51213579D01*
X145957166Y-51825182D01*
X145959448Y-52498827D01*
X145961651Y-53229992D01*
X145963766Y-54014151D01*
X145965785Y-54846780D01*
X145967696Y-55723354D01*
X145969490Y-56639348D01*
X145971159Y-57590239D01*
X145972691Y-58571501D01*
X145974078Y-59578609D01*
X145975310Y-60607040D01*
X145976377Y-61652268D01*
X145977269Y-62709769D01*
X145977978Y-63775018D01*
X145978493Y-64843491D01*
X145978657Y-65318497D01*
X145979011Y-66542493D01*
X145979295Y-67684651D01*
X145979495Y-68747797D01*
X145979593Y-69734759D01*
X145979576Y-70648366D01*
X145979425Y-71491444D01*
X145979127Y-72266821D01*
X145978664Y-72977325D01*
X145978022Y-73625784D01*
X145977185Y-74215025D01*
X145976136Y-74747876D01*
X145974860Y-75227165D01*
X145973341Y-75655719D01*
X145971564Y-76036366D01*
X145969513Y-76371933D01*
X145967171Y-76665249D01*
X145964524Y-76919140D01*
X145961555Y-77136435D01*
X145958248Y-77319961D01*
X145954589Y-77472546D01*
X145950560Y-77597018D01*
X145946147Y-77696204D01*
X145941333Y-77772931D01*
X145936103Y-77830028D01*
X145930441Y-77870322D01*
X145924331Y-77896641D01*
X145917758Y-77911812D01*
X145910706Y-77918664D01*
X145908383Y-77919550D01*
X145826732Y-77939798D01*
X145696692Y-77969947D01*
X145601467Y-77991276D01*
X145221773Y-78116697D01*
X144877126Y-78312872D01*
X144577708Y-78570504D01*
X144333703Y-78880297D01*
X144155294Y-79232953D01*
X144115336Y-79348117D01*
X144059330Y-79614105D01*
X144037257Y-79918573D01*
X144049913Y-80222108D01*
X144092764Y-80466100D01*
X144236950Y-80847573D01*
X144450007Y-81185569D01*
X144724431Y-81473155D01*
X145052722Y-81703403D01*
X145427377Y-81869381D01*
X145686487Y-81938367D01*
X145961300Y-81994062D01*
X145945316Y-84383914D01*
X145929333Y-86773766D01*
X145785433Y-86951607D01*
X145673281Y-87076214D01*
X145553848Y-87188358D01*
X145505083Y-87226774D01*
X145368633Y-87324100D01*
X137833300Y-87351789D01*
X137293958Y-87353578D01*
X136673120Y-87355291D01*
X135973956Y-87356928D01*
X135199635Y-87358488D01*
X134353327Y-87359971D01*
X133438204Y-87361379D01*
X132457434Y-87362711D01*
X131414188Y-87363968D01*
X130311637Y-87365150D01*
X129152949Y-87366256D01*
X127941296Y-87367288D01*
X126679846Y-87368246D01*
X125371771Y-87369129D01*
X124020241Y-87369938D01*
X122628425Y-87370674D01*
X121199493Y-87371335D01*
X119736616Y-87371924D01*
X118242964Y-87372439D01*
X116721707Y-87372882D01*
X115176014Y-87373252D01*
X113609057Y-87373550D01*
X112024004Y-87373775D01*
X110424027Y-87373929D01*
X108812295Y-87374011D01*
X107191978Y-87374022D01*
X105566246Y-87373961D01*
X103938270Y-87373829D01*
X102311220Y-87373627D01*
X100688264Y-87373354D01*
X99072575Y-87373011D01*
X97467322Y-87372598D01*
X95875674Y-87372116D01*
X94300802Y-87371563D01*
X92745876Y-87370942D01*
X91214066Y-87370251D01*
X89708542Y-87369491D01*
X88232475Y-87368663D01*
X86789034Y-87367767D01*
X85381389Y-87366802D01*
X84012711Y-87365770D01*
X82686169Y-87364670D01*
X81404934Y-87363502D01*
X80172175Y-87362268D01*
X78991064Y-87360966D01*
X77864769Y-87359598D01*
X76796461Y-87358163D01*
X75789310Y-87356662D01*
X74846486Y-87355095D01*
X73971160Y-87353462D01*
X73166500Y-87351764D01*
X72435678Y-87350000D01*
X71781864Y-87348171D01*
X71369967Y-87346847D01*
X70486091Y-87343884D01*
X69682900Y-87341238D01*
X68956409Y-87338766D01*
X68302638Y-87336323D01*
X67717604Y-87333769D01*
X67197325Y-87330959D01*
X66737819Y-87327752D01*
X66335103Y-87324004D01*
X65985197Y-87319572D01*
X65684117Y-87314315D01*
X65427882Y-87308089D01*
X65212510Y-87300751D01*
X65034018Y-87292159D01*
X64888424Y-87282170D01*
X64771747Y-87270641D01*
X64680004Y-87257429D01*
X64609213Y-87242392D01*
X64555393Y-87225387D01*
X64514560Y-87206271D01*
X64482734Y-87184901D01*
X64455931Y-87161135D01*
X64430170Y-87134830D01*
X64401469Y-87105843D01*
X64391770Y-87096677D01*
X64339909Y-87048022D01*
X64295134Y-87000762D01*
X64256847Y-86948566D01*
X64224448Y-86885101D01*
X64197340Y-86804036D01*
X64174923Y-86699039D01*
X64156599Y-86563778D01*
X64141768Y-86391923D01*
X64129833Y-86177141D01*
X64120194Y-85913100D01*
X64112252Y-85593468D01*
X64105408Y-85211915D01*
X64099065Y-84762108D01*
X64094722Y-84408578D01*
X93336788Y-84408578D01*
X93357917Y-84685350D01*
X93443492Y-84955612D01*
X93492303Y-85051115D01*
X93650578Y-85247797D01*
X93858654Y-85388263D01*
X94097993Y-85466286D01*
X94350060Y-85475634D01*
X94580576Y-85416854D01*
X94814597Y-85280074D01*
X94984460Y-85090863D01*
X95091543Y-84846874D01*
X95137223Y-84545756D01*
X95139203Y-84464328D01*
X95108561Y-84149111D01*
X95015802Y-83885942D01*
X94862641Y-83678673D01*
X94748025Y-83586390D01*
X94539024Y-83492933D01*
X95563467Y-83492933D01*
X95563467Y-85440266D01*
X95817467Y-85440266D01*
X95817467Y-84678266D01*
X95959855Y-84678266D01*
X96225025Y-84658427D01*
X96451091Y-84602302D01*
X96620748Y-84514983D01*
X96672447Y-84468674D01*
X96781287Y-84293250D01*
X96823228Y-84095286D01*
X96800427Y-83896180D01*
X96715043Y-83717333D01*
X96583789Y-83589563D01*
X96507740Y-83544930D01*
X96425947Y-83516461D01*
X96317324Y-83500654D01*
X96160782Y-83494010D01*
X96001706Y-83492933D01*
X97172133Y-83492933D01*
X97172133Y-85440266D01*
X98447757Y-85440266D01*
X98434362Y-85323850D01*
X98420967Y-85207433D01*
X97426133Y-85183579D01*
X97426133Y-84508933D01*
X98357467Y-84508933D01*
X98357467Y-84254933D01*
X97426133Y-84254933D01*
X97426133Y-83704600D01*
X98399800Y-83704600D01*
X98399800Y-83492933D01*
X98865467Y-83492933D01*
X98865467Y-85440266D01*
X99117598Y-85440266D01*
X99129116Y-84660420D01*
X99140633Y-83880575D01*
X99556136Y-84660420D01*
X99971639Y-85440266D01*
X100347133Y-85440266D01*
X100347133Y-84377049D01*
X101593328Y-84377049D01*
X101602245Y-84633146D01*
X101649723Y-84869455D01*
X101694850Y-84984887D01*
X101841112Y-85191699D01*
X102041116Y-85345534D01*
X102279083Y-85441740D01*
X102539235Y-85475665D01*
X102784795Y-85445258D01*
X103312465Y-85445258D01*
X103466943Y-85432179D01*
X103554392Y-85419653D01*
X103610106Y-85387189D01*
X103652562Y-85314648D01*
X103700240Y-85181893D01*
X103702305Y-85175683D01*
X103783189Y-84932266D01*
X104648718Y-84932266D01*
X104735363Y-85175683D01*
X104787002Y-85310948D01*
X104831607Y-85385461D01*
X104887697Y-85419189D01*
X104973136Y-85432043D01*
X105124264Y-85444987D01*
X104767180Y-84506411D01*
X104665699Y-84240626D01*
X104573474Y-84000882D01*
X104494973Y-83798654D01*
X104434667Y-83645415D01*
X104397026Y-83552642D01*
X104386949Y-83530384D01*
X104333224Y-83505914D01*
X104230498Y-83493653D01*
X104207551Y-83493311D01*
X104051300Y-83493689D01*
X103776133Y-84222395D01*
X103680621Y-84475194D01*
X103588266Y-84719384D01*
X103506116Y-84936346D01*
X103441221Y-85107463D01*
X103406716Y-85198180D01*
X103312465Y-85445258D01*
X102784795Y-85445258D01*
X102805793Y-85442658D01*
X103002186Y-85370321D01*
X103111596Y-85303239D01*
X103162482Y-85225405D01*
X103175565Y-85154516D01*
X103178949Y-85058123D01*
X103155061Y-85024635D01*
X103090151Y-85050662D01*
X103000449Y-85111343D01*
X102842809Y-85183958D01*
X102644065Y-85221158D01*
X102437009Y-85221477D01*
X102254433Y-85183445D01*
X102180105Y-85148059D01*
X102040530Y-85030363D01*
X101950527Y-84876149D01*
X101903734Y-84670299D01*
X101893140Y-84466600D01*
X101911182Y-84210298D01*
X101971698Y-84013276D01*
X102081958Y-83857811D01*
X102176429Y-83776052D01*
X102332852Y-83706304D01*
X102531405Y-83684951D01*
X102745426Y-83711034D01*
X102948249Y-83783600D01*
X102987791Y-83805162D01*
X103183467Y-83919835D01*
X103183467Y-83774708D01*
X103172434Y-83674612D01*
X103124366Y-83609903D01*
X103024717Y-83553016D01*
X102849587Y-83495910D01*
X102829786Y-83492933D01*
X105384800Y-83492933D01*
X105384800Y-85440266D01*
X105681133Y-85440266D01*
X105681133Y-84635933D01*
X105906587Y-84635933D01*
X106036921Y-84643354D01*
X106138335Y-84673837D01*
X106224553Y-84739710D01*
X106309297Y-84853303D01*
X106406293Y-85026943D01*
X106460289Y-85133350D01*
X106538436Y-85285540D01*
X106595454Y-85376790D01*
X106646562Y-85422626D01*
X106706981Y-85438572D01*
X106761165Y-85440266D01*
X106858935Y-85433523D01*
X106907593Y-85416953D01*
X106908800Y-85413540D01*
X106888043Y-85353070D01*
X106833453Y-85241308D01*
X106756549Y-85098455D01*
X106668851Y-84944714D01*
X106581879Y-84800286D01*
X106507154Y-84685374D01*
X106456638Y-84620604D01*
X106364309Y-84531388D01*
X106492452Y-84424410D01*
X106598069Y-84284623D01*
X106647707Y-84102326D01*
X106637221Y-83901955D01*
X106600965Y-83784701D01*
X106531429Y-83666505D01*
X106428902Y-83582929D01*
X106280690Y-83529276D01*
X106074099Y-83500849D01*
X105812319Y-83492933D01*
X106781800Y-83492933D01*
X106781800Y-83598766D01*
X106785409Y-83651255D01*
X106807752Y-83682684D01*
X106866104Y-83698452D01*
X106977739Y-83703957D01*
X107120467Y-83704600D01*
X107459133Y-83704600D01*
X107459133Y-85440266D01*
X107755467Y-85440266D01*
X108686800Y-85440266D01*
X108940800Y-85440266D01*
X108940800Y-84635933D01*
X109187421Y-84635933D01*
X109325533Y-84642407D01*
X109431193Y-84670073D01*
X109518691Y-84731296D01*
X109602318Y-84838441D01*
X109696364Y-85003872D01*
X109762289Y-85133350D01*
X109840413Y-85285521D01*
X109897401Y-85376764D01*
X109948496Y-85422602D01*
X110008940Y-85438561D01*
X110063638Y-85440266D01*
X110211745Y-85440266D01*
X110037558Y-85091016D01*
X109947388Y-84920829D01*
X109857018Y-84767921D01*
X109781545Y-84657284D01*
X109759918Y-84631529D01*
X109656466Y-84521291D01*
X109762549Y-84451783D01*
X109858020Y-84345708D01*
X109923627Y-84188542D01*
X109949161Y-84011550D01*
X109940583Y-83906598D01*
X109891168Y-83781423D01*
X109803928Y-83658104D01*
X109784279Y-83637931D01*
X109724682Y-83584383D01*
X109666471Y-83548426D01*
X109591124Y-83525892D01*
X109480119Y-83512611D01*
X109314936Y-83504414D01*
X109170973Y-83499873D01*
X108934775Y-83492933D01*
X110549467Y-83492933D01*
X110549467Y-85440266D01*
X110803467Y-85440266D01*
X110803467Y-83492933D01*
X111311467Y-83492933D01*
X111311467Y-85449184D01*
X111808883Y-85433585D01*
X112040052Y-85423727D01*
X112208276Y-85408698D01*
X112335265Y-85384925D01*
X112442726Y-85348835D01*
X112510176Y-85318164D01*
X112697638Y-85200410D01*
X112827737Y-85051621D01*
X112908904Y-84856893D01*
X112949568Y-84601326D01*
X112954014Y-84533602D01*
X112950427Y-84368020D01*
X113274308Y-84368020D01*
X113279934Y-84620335D01*
X113322035Y-84853782D01*
X113385800Y-85013183D01*
X113471172Y-85141438D01*
X113564075Y-85248819D01*
X113599914Y-85279958D01*
X113838202Y-85406280D01*
X114114210Y-85469958D01*
X114405694Y-85468121D01*
X114643737Y-85414685D01*
X114796438Y-85358542D01*
X114896938Y-85300153D01*
X114956101Y-85221093D01*
X114984793Y-85102935D01*
X114993879Y-84927254D01*
X114994467Y-84819872D01*
X114994467Y-84424266D01*
X114634633Y-84424266D01*
X114460385Y-84425238D01*
X114354040Y-84431440D01*
X114298837Y-84447802D01*
X114278011Y-84479255D01*
X114274800Y-84530100D01*
X114281662Y-84592911D01*
X114316685Y-84624245D01*
X114401520Y-84634930D01*
X114486467Y-84635933D01*
X114698133Y-84635933D01*
X114698133Y-84888443D01*
X114690352Y-85042525D01*
X114657096Y-85141839D01*
X114583497Y-85198109D01*
X114454685Y-85223063D01*
X114267000Y-85228441D01*
X114014910Y-85201683D01*
X113823099Y-85118654D01*
X113686650Y-84974721D01*
X113600646Y-84765252D01*
X113566940Y-84568768D01*
X113570996Y-84285451D01*
X113640172Y-84049054D01*
X113765589Y-83865351D01*
X113938371Y-83740119D01*
X114149639Y-83679132D01*
X114390516Y-83688166D01*
X114652124Y-83772997D01*
X114729883Y-83812209D01*
X114909800Y-83910306D01*
X114909800Y-83766207D01*
X114895313Y-83658204D01*
X114836022Y-83588382D01*
X114772554Y-83551135D01*
X114620321Y-83499859D01*
X114576580Y-83492933D01*
X115460133Y-83492933D01*
X115460133Y-85440266D01*
X116735757Y-85440266D01*
X116722362Y-85323850D01*
X116708967Y-85207433D01*
X115714133Y-85183579D01*
X115714133Y-84508933D01*
X116645467Y-84508933D01*
X116645467Y-84254933D01*
X115714133Y-84254933D01*
X115714133Y-83704600D01*
X116687800Y-83704600D01*
X116687800Y-83492933D01*
X115460133Y-83492933D01*
X114576580Y-83492933D01*
X114418249Y-83467863D01*
X114199460Y-83457508D01*
X113997074Y-83471159D01*
X113906308Y-83489333D01*
X113673691Y-83594999D01*
X113480160Y-83771563D01*
X113373868Y-83932175D01*
X113305504Y-84128184D01*
X113274308Y-84368020D01*
X112950427Y-84368020D01*
X112947512Y-84233501D01*
X112890800Y-83994550D01*
X112780619Y-83807442D01*
X112660581Y-83695271D01*
X112526829Y-83609019D01*
X112385405Y-83550216D01*
X112216339Y-83514320D01*
X111999660Y-83496789D01*
X111770816Y-83492933D01*
X111311467Y-83492933D01*
X110803467Y-83492933D01*
X110549467Y-83492933D01*
X108934775Y-83492933D01*
X108686800Y-83485647D01*
X108686800Y-85440266D01*
X107755467Y-85440266D01*
X107755467Y-83704600D01*
X108094133Y-83704600D01*
X108262098Y-83703472D01*
X108362672Y-83696489D01*
X108413129Y-83678254D01*
X108430745Y-83643368D01*
X108432800Y-83598766D01*
X108432800Y-83492933D01*
X106781800Y-83492933D01*
X105812319Y-83492933D01*
X105384800Y-83492933D01*
X102829786Y-83492933D01*
X102632886Y-83463331D01*
X102411820Y-83458008D01*
X102223592Y-83482670D01*
X102191745Y-83491906D01*
X101966804Y-83609102D01*
X101779633Y-83793662D01*
X101691570Y-83932175D01*
X101623070Y-84132835D01*
X101593328Y-84377049D01*
X100347133Y-84377049D01*
X100347133Y-83492933D01*
X100052710Y-83492933D01*
X100041171Y-84252465D01*
X100029633Y-85011998D01*
X99627467Y-84252537D01*
X99225300Y-83493076D01*
X99045383Y-83493004D01*
X98865467Y-83492933D01*
X98399800Y-83492933D01*
X97172133Y-83492933D01*
X96001706Y-83492933D01*
X95563467Y-83492933D01*
X94539024Y-83492933D01*
X94535168Y-83491209D01*
X94288438Y-83452482D01*
X94038314Y-83471643D01*
X93828366Y-83543182D01*
X93625895Y-83692599D01*
X93474196Y-83896864D01*
X93376687Y-84140637D01*
X93336788Y-84408578D01*
X64094722Y-84408578D01*
X64092623Y-84237716D01*
X64088524Y-83890064D01*
X64066055Y-81980029D01*
X64314212Y-81951953D01*
X64640928Y-81875646D01*
X64964911Y-81727694D01*
X65269909Y-81520030D01*
X65539671Y-81264589D01*
X65757348Y-80974100D01*
X69380300Y-80974100D01*
X69475772Y-81167842D01*
X69584273Y-81342108D01*
X69737266Y-81531148D01*
X69907677Y-81704497D01*
X70061927Y-81827473D01*
X70075570Y-81835029D01*
X70094561Y-81842093D01*
X70121746Y-81848688D01*
X70159972Y-81854838D01*
X70212084Y-81860565D01*
X70280928Y-81865892D01*
X70369352Y-81870842D01*
X70480200Y-81875437D01*
X70616319Y-81879701D01*
X70780555Y-81883657D01*
X70975754Y-81887326D01*
X71204762Y-81890733D01*
X71470425Y-81893900D01*
X71775590Y-81896850D01*
X72123103Y-81899605D01*
X72515809Y-81902188D01*
X72956554Y-81904624D01*
X73448186Y-81906933D01*
X73993549Y-81909139D01*
X74595491Y-81911265D01*
X75256856Y-81913335D01*
X75980492Y-81915369D01*
X76769244Y-81917392D01*
X77625959Y-81919427D01*
X78553482Y-81921495D01*
X79554660Y-81923621D01*
X80632338Y-81925827D01*
X81789364Y-81928135D01*
X82861603Y-81930242D01*
X84075892Y-81932457D01*
X85361989Y-81934500D01*
X86710581Y-81936366D01*
X88112357Y-81938053D01*
X89558004Y-81939556D01*
X91038208Y-81940871D01*
X92543659Y-81941994D01*
X94065043Y-81942922D01*
X95593048Y-81943650D01*
X97118362Y-81944175D01*
X98631671Y-81944492D01*
X100123664Y-81944597D01*
X101585028Y-81944487D01*
X103006451Y-81944158D01*
X104378619Y-81943606D01*
X105692221Y-81942826D01*
X106937945Y-81941815D01*
X107882467Y-81940834D01*
X109042371Y-81939544D01*
X110253519Y-81938285D01*
X111507914Y-81937064D01*
X112797556Y-81935883D01*
X114114449Y-81934750D01*
X115450595Y-81933668D01*
X116797994Y-81932644D01*
X118148649Y-81931682D01*
X119494563Y-81930787D01*
X120827737Y-81929964D01*
X122140173Y-81929219D01*
X123423874Y-81928557D01*
X124670840Y-81927983D01*
X125873075Y-81927501D01*
X127022580Y-81927118D01*
X128111357Y-81926838D01*
X129131408Y-81926666D01*
X130068502Y-81926608D01*
X139914372Y-81926600D01*
X140171925Y-81693527D01*
X140313199Y-81551071D01*
X140439350Y-81398296D01*
X140525338Y-81265683D01*
X140528389Y-81259610D01*
X140627300Y-81058766D01*
X140638985Y-66379711D01*
X140640021Y-65048391D01*
X140640935Y-63799133D01*
X140641719Y-62629333D01*
X140642362Y-61536387D01*
X140642855Y-60517689D01*
X140643188Y-59570637D01*
X140643351Y-58692624D01*
X140643335Y-57881048D01*
X140643129Y-57133304D01*
X140642725Y-56446787D01*
X140642111Y-55818893D01*
X140641280Y-55247018D01*
X140640220Y-54728556D01*
X140638922Y-54260905D01*
X140637377Y-53841459D01*
X140635574Y-53467615D01*
X140633505Y-53136767D01*
X140631158Y-52846312D01*
X140628525Y-52593644D01*
X140625596Y-52376161D01*
X140622361Y-52191257D01*
X140618811Y-52036328D01*
X140614934Y-51908769D01*
X140610723Y-51805977D01*
X140606167Y-51725347D01*
X140601256Y-51664274D01*
X140595981Y-51620154D01*
X140590332Y-51590384D01*
X140584299Y-51572357D01*
X140583673Y-51571099D01*
X140440353Y-51360696D01*
X140245137Y-51163756D01*
X140029066Y-51010783D01*
X139994986Y-50992604D01*
X139871381Y-50938412D01*
X139736383Y-50900199D01*
X139566219Y-50872986D01*
X139337116Y-50851794D01*
X139314967Y-50850169D01*
X139219831Y-50846441D01*
X139041503Y-50842930D01*
X138781460Y-50839638D01*
X138441175Y-50836563D01*
X138022124Y-50833706D01*
X137525782Y-50831066D01*
X136953624Y-50828643D01*
X136307125Y-50826437D01*
X135587759Y-50824448D01*
X134797003Y-50822675D01*
X133936331Y-50821120D01*
X133007219Y-50819780D01*
X132011140Y-50818657D01*
X130949571Y-50817750D01*
X129823986Y-50817059D01*
X128635861Y-50816584D01*
X127386670Y-50816325D01*
X126077888Y-50816281D01*
X124710991Y-50816452D01*
X123287454Y-50816839D01*
X121808751Y-50817441D01*
X120276358Y-50818258D01*
X118691750Y-50819289D01*
X117056401Y-50820535D01*
X115371788Y-50821996D01*
X113639384Y-50823671D01*
X111860665Y-50825560D01*
X110037107Y-50827664D01*
X108170183Y-50829981D01*
X106261370Y-50832512D01*
X104312141Y-50835257D01*
X102323973Y-50838215D01*
X100298340Y-50841386D01*
X98236718Y-50844771D01*
X96140581Y-50848368D01*
X94011404Y-50852179D01*
X92559482Y-50854865D01*
X70187997Y-50896796D01*
X70038149Y-50997619D01*
X69791789Y-51197151D01*
X69570931Y-51438168D01*
X69493498Y-51544976D01*
X69386078Y-51706852D01*
X69380300Y-80974100D01*
X65757348Y-80974100D01*
X65757943Y-80973306D01*
X65833954Y-80835912D01*
X65907790Y-80679891D01*
X65955427Y-80553236D01*
X65983650Y-80426624D01*
X65999246Y-80270735D01*
X66007995Y-80083856D01*
X66010918Y-79819549D01*
X65995906Y-79611394D01*
X65960760Y-79432354D01*
X65952568Y-79402668D01*
X65799518Y-79011459D01*
X65581910Y-78673816D01*
X65303035Y-78392658D01*
X64966181Y-78170903D01*
X64574640Y-78011471D01*
X64310883Y-77946171D01*
X64067467Y-77898930D01*
X64071937Y-70546515D01*
X64072600Y-69686586D01*
X64073577Y-68752251D01*
X64074847Y-67753771D01*
X64076389Y-66701405D01*
X64078182Y-65605415D01*
X64080205Y-64476059D01*
X64082437Y-63323599D01*
X64084856Y-62158295D01*
X64087441Y-60990407D01*
X64090171Y-59830195D01*
X64093025Y-58687920D01*
X64095982Y-57573841D01*
X64099021Y-56498219D01*
X64102120Y-55471315D01*
X64104651Y-54685100D01*
X64108014Y-53682904D01*
X64111201Y-52761908D01*
X64114250Y-51918645D01*
X64117203Y-51149647D01*
X64120098Y-50451449D01*
X64122975Y-49820582D01*
X64125875Y-49253579D01*
X64128837Y-48746975D01*
X64131901Y-48297302D01*
X64135107Y-47901093D01*
X64138494Y-47554882D01*
X64142103Y-47255201D01*
X64145973Y-46998583D01*
X64150144Y-46781562D01*
X64154656Y-46600670D01*
X64159549Y-46452441D01*
X64164863Y-46333408D01*
X64170636Y-46240104D01*
X64176911Y-46169062D01*
X64183725Y-46116814D01*
X64191119Y-46079895D01*
X64199132Y-46054838D01*
X64203910Y-46044687D01*
X64270504Y-45951066D01*
X64379080Y-45828085D01*
X64507063Y-45701169D01*
X64517086Y-45691953D01*
X64759247Y-45470632D01*
X104640607Y-45494273D01*
X104640607Y-45494273D01*
G37*
X104640607Y-45494273D02*
X106479005Y-45495398D01*
X108297671Y-45496578D01*
X110094728Y-45497813D01*
X111868302Y-45499098D01*
X113616516Y-45500432D01*
X115337493Y-45501811D01*
X117029360Y-45503234D01*
X118690238Y-45504697D01*
X120318253Y-45506198D01*
X121911529Y-45507734D01*
X123468189Y-45509303D01*
X124986359Y-45510901D01*
X126464161Y-45512528D01*
X127899720Y-45514178D01*
X129291161Y-45515851D01*
X130636607Y-45517544D01*
X131934182Y-45519253D01*
X133182011Y-45520977D01*
X134378217Y-45522712D01*
X135520925Y-45524456D01*
X136608260Y-45526206D01*
X137638344Y-45527960D01*
X138609302Y-45529715D01*
X139519259Y-45531469D01*
X140366337Y-45533218D01*
X141148663Y-45534961D01*
X141864359Y-45536694D01*
X142511549Y-45538415D01*
X143088359Y-45540121D01*
X143592911Y-45541810D01*
X144023330Y-45543479D01*
X144377741Y-45545125D01*
X144654266Y-45546746D01*
X144851032Y-45548339D01*
X144966160Y-45549902D01*
X144995617Y-45550847D01*
X145204333Y-45566656D01*
X145347654Y-45582975D01*
X145444736Y-45604832D01*
X145514729Y-45637252D01*
X145576788Y-45685262D01*
X145604371Y-45710606D01*
X145707607Y-45831145D01*
X145802876Y-45979706D01*
X145827238Y-46027933D01*
X145843484Y-46065236D01*
X145857669Y-46105793D01*
X145869995Y-46155508D01*
X145880663Y-46220283D01*
X145889874Y-46306022D01*
X145897831Y-46418629D01*
X145904733Y-46564008D01*
X145910783Y-46748061D01*
X145916182Y-46976693D01*
X145921132Y-47255807D01*
X145925833Y-47591307D01*
X145930487Y-47989096D01*
X145935296Y-48455077D01*
X145940461Y-48995154D01*
X145944925Y-49478100D01*
X145947452Y-49796281D01*
X145949950Y-50194605D01*
X145952408Y-50668546D01*
X145954816Y-51213579D01*
X145957166Y-51825182D01*
X145959448Y-52498827D01*
X145961651Y-53229992D01*
X145963766Y-54014151D01*
X145965785Y-54846780D01*
X145967696Y-55723354D01*
X145969490Y-56639348D01*
X145971159Y-57590239D01*
X145972691Y-58571501D01*
X145974078Y-59578609D01*
X145975310Y-60607040D01*
X145976377Y-61652268D01*
X145977269Y-62709769D01*
X145977978Y-63775018D01*
X145978493Y-64843491D01*
X145978657Y-65318497D01*
X145979011Y-66542493D01*
X145979295Y-67684651D01*
X145979495Y-68747797D01*
X145979593Y-69734759D01*
X145979576Y-70648366D01*
X145979425Y-71491444D01*
X145979127Y-72266821D01*
X145978664Y-72977325D01*
X145978022Y-73625784D01*
X145977185Y-74215025D01*
X145976136Y-74747876D01*
X145974860Y-75227165D01*
X145973341Y-75655719D01*
X145971564Y-76036366D01*
X145969513Y-76371933D01*
X145967171Y-76665249D01*
X145964524Y-76919140D01*
X145961555Y-77136435D01*
X145958248Y-77319961D01*
X145954589Y-77472546D01*
X145950560Y-77597018D01*
X145946147Y-77696204D01*
X145941333Y-77772931D01*
X145936103Y-77830028D01*
X145930441Y-77870322D01*
X145924331Y-77896641D01*
X145917758Y-77911812D01*
X145910706Y-77918664D01*
X145908383Y-77919550D01*
X145826732Y-77939798D01*
X145696692Y-77969947D01*
X145601467Y-77991276D01*
X145221773Y-78116697D01*
X144877126Y-78312872D01*
X144577708Y-78570504D01*
X144333703Y-78880297D01*
X144155294Y-79232953D01*
X144115336Y-79348117D01*
X144059330Y-79614105D01*
X144037257Y-79918573D01*
X144049913Y-80222108D01*
X144092764Y-80466100D01*
X144236950Y-80847573D01*
X144450007Y-81185569D01*
X144724431Y-81473155D01*
X145052722Y-81703403D01*
X145427377Y-81869381D01*
X145686487Y-81938367D01*
X145961300Y-81994062D01*
X145945316Y-84383914D01*
X145929333Y-86773766D01*
X145785433Y-86951607D01*
X145673281Y-87076214D01*
X145553848Y-87188358D01*
X145505083Y-87226774D01*
X145368633Y-87324100D01*
X137833300Y-87351789D01*
X137293958Y-87353578D01*
X136673120Y-87355291D01*
X135973956Y-87356928D01*
X135199635Y-87358488D01*
X134353327Y-87359971D01*
X133438204Y-87361379D01*
X132457434Y-87362711D01*
X131414188Y-87363968D01*
X130311637Y-87365150D01*
X129152949Y-87366256D01*
X127941296Y-87367288D01*
X126679846Y-87368246D01*
X125371771Y-87369129D01*
X124020241Y-87369938D01*
X122628425Y-87370674D01*
X121199493Y-87371335D01*
X119736616Y-87371924D01*
X118242964Y-87372439D01*
X116721707Y-87372882D01*
X115176014Y-87373252D01*
X113609057Y-87373550D01*
X112024004Y-87373775D01*
X110424027Y-87373929D01*
X108812295Y-87374011D01*
X107191978Y-87374022D01*
X105566246Y-87373961D01*
X103938270Y-87373829D01*
X102311220Y-87373627D01*
X100688264Y-87373354D01*
X99072575Y-87373011D01*
X97467322Y-87372598D01*
X95875674Y-87372116D01*
X94300802Y-87371563D01*
X92745876Y-87370942D01*
X91214066Y-87370251D01*
X89708542Y-87369491D01*
X88232475Y-87368663D01*
X86789034Y-87367767D01*
X85381389Y-87366802D01*
X84012711Y-87365770D01*
X82686169Y-87364670D01*
X81404934Y-87363502D01*
X80172175Y-87362268D01*
X78991064Y-87360966D01*
X77864769Y-87359598D01*
X76796461Y-87358163D01*
X75789310Y-87356662D01*
X74846486Y-87355095D01*
X73971160Y-87353462D01*
X73166500Y-87351764D01*
X72435678Y-87350000D01*
X71781864Y-87348171D01*
X71369967Y-87346847D01*
X70486091Y-87343884D01*
X69682900Y-87341238D01*
X68956409Y-87338766D01*
X68302638Y-87336323D01*
X67717604Y-87333769D01*
X67197325Y-87330959D01*
X66737819Y-87327752D01*
X66335103Y-87324004D01*
X65985197Y-87319572D01*
X65684117Y-87314315D01*
X65427882Y-87308089D01*
X65212510Y-87300751D01*
X65034018Y-87292159D01*
X64888424Y-87282170D01*
X64771747Y-87270641D01*
X64680004Y-87257429D01*
X64609213Y-87242392D01*
X64555393Y-87225387D01*
X64514560Y-87206271D01*
X64482734Y-87184901D01*
X64455931Y-87161135D01*
X64430170Y-87134830D01*
X64401469Y-87105843D01*
X64391770Y-87096677D01*
X64339909Y-87048022D01*
X64295134Y-87000762D01*
X64256847Y-86948566D01*
X64224448Y-86885101D01*
X64197340Y-86804036D01*
X64174923Y-86699039D01*
X64156599Y-86563778D01*
X64141768Y-86391923D01*
X64129833Y-86177141D01*
X64120194Y-85913100D01*
X64112252Y-85593468D01*
X64105408Y-85211915D01*
X64099065Y-84762108D01*
X64094722Y-84408578D01*
X93336788Y-84408578D01*
X93357917Y-84685350D01*
X93443492Y-84955612D01*
X93492303Y-85051115D01*
X93650578Y-85247797D01*
X93858654Y-85388263D01*
X94097993Y-85466286D01*
X94350060Y-85475634D01*
X94580576Y-85416854D01*
X94814597Y-85280074D01*
X94984460Y-85090863D01*
X95091543Y-84846874D01*
X95137223Y-84545756D01*
X95139203Y-84464328D01*
X95108561Y-84149111D01*
X95015802Y-83885942D01*
X94862641Y-83678673D01*
X94748025Y-83586390D01*
X94539024Y-83492933D01*
X95563467Y-83492933D01*
X95563467Y-85440266D01*
X95817467Y-85440266D01*
X95817467Y-84678266D01*
X95959855Y-84678266D01*
X96225025Y-84658427D01*
X96451091Y-84602302D01*
X96620748Y-84514983D01*
X96672447Y-84468674D01*
X96781287Y-84293250D01*
X96823228Y-84095286D01*
X96800427Y-83896180D01*
X96715043Y-83717333D01*
X96583789Y-83589563D01*
X96507740Y-83544930D01*
X96425947Y-83516461D01*
X96317324Y-83500654D01*
X96160782Y-83494010D01*
X96001706Y-83492933D01*
X97172133Y-83492933D01*
X97172133Y-85440266D01*
X98447757Y-85440266D01*
X98434362Y-85323850D01*
X98420967Y-85207433D01*
X97426133Y-85183579D01*
X97426133Y-84508933D01*
X98357467Y-84508933D01*
X98357467Y-84254933D01*
X97426133Y-84254933D01*
X97426133Y-83704600D01*
X98399800Y-83704600D01*
X98399800Y-83492933D01*
X98865467Y-83492933D01*
X98865467Y-85440266D01*
X99117598Y-85440266D01*
X99129116Y-84660420D01*
X99140633Y-83880575D01*
X99556136Y-84660420D01*
X99971639Y-85440266D01*
X100347133Y-85440266D01*
X100347133Y-84377049D01*
X101593328Y-84377049D01*
X101602245Y-84633146D01*
X101649723Y-84869455D01*
X101694850Y-84984887D01*
X101841112Y-85191699D01*
X102041116Y-85345534D01*
X102279083Y-85441740D01*
X102539235Y-85475665D01*
X102784795Y-85445258D01*
X103312465Y-85445258D01*
X103466943Y-85432179D01*
X103554392Y-85419653D01*
X103610106Y-85387189D01*
X103652562Y-85314648D01*
X103700240Y-85181893D01*
X103702305Y-85175683D01*
X103783189Y-84932266D01*
X104648718Y-84932266D01*
X104735363Y-85175683D01*
X104787002Y-85310948D01*
X104831607Y-85385461D01*
X104887697Y-85419189D01*
X104973136Y-85432043D01*
X105124264Y-85444987D01*
X104767180Y-84506411D01*
X104665699Y-84240626D01*
X104573474Y-84000882D01*
X104494973Y-83798654D01*
X104434667Y-83645415D01*
X104397026Y-83552642D01*
X104386949Y-83530384D01*
X104333224Y-83505914D01*
X104230498Y-83493653D01*
X104207551Y-83493311D01*
X104051300Y-83493689D01*
X103776133Y-84222395D01*
X103680621Y-84475194D01*
X103588266Y-84719384D01*
X103506116Y-84936346D01*
X103441221Y-85107463D01*
X103406716Y-85198180D01*
X103312465Y-85445258D01*
X102784795Y-85445258D01*
X102805793Y-85442658D01*
X103002186Y-85370321D01*
X103111596Y-85303239D01*
X103162482Y-85225405D01*
X103175565Y-85154516D01*
X103178949Y-85058123D01*
X103155061Y-85024635D01*
X103090151Y-85050662D01*
X103000449Y-85111343D01*
X102842809Y-85183958D01*
X102644065Y-85221158D01*
X102437009Y-85221477D01*
X102254433Y-85183445D01*
X102180105Y-85148059D01*
X102040530Y-85030363D01*
X101950527Y-84876149D01*
X101903734Y-84670299D01*
X101893140Y-84466600D01*
X101911182Y-84210298D01*
X101971698Y-84013276D01*
X102081958Y-83857811D01*
X102176429Y-83776052D01*
X102332852Y-83706304D01*
X102531405Y-83684951D01*
X102745426Y-83711034D01*
X102948249Y-83783600D01*
X102987791Y-83805162D01*
X103183467Y-83919835D01*
X103183467Y-83774708D01*
X103172434Y-83674612D01*
X103124366Y-83609903D01*
X103024717Y-83553016D01*
X102849587Y-83495910D01*
X102829786Y-83492933D01*
X105384800Y-83492933D01*
X105384800Y-85440266D01*
X105681133Y-85440266D01*
X105681133Y-84635933D01*
X105906587Y-84635933D01*
X106036921Y-84643354D01*
X106138335Y-84673837D01*
X106224553Y-84739710D01*
X106309297Y-84853303D01*
X106406293Y-85026943D01*
X106460289Y-85133350D01*
X106538436Y-85285540D01*
X106595454Y-85376790D01*
X106646562Y-85422626D01*
X106706981Y-85438572D01*
X106761165Y-85440266D01*
X106858935Y-85433523D01*
X106907593Y-85416953D01*
X106908800Y-85413540D01*
X106888043Y-85353070D01*
X106833453Y-85241308D01*
X106756549Y-85098455D01*
X106668851Y-84944714D01*
X106581879Y-84800286D01*
X106507154Y-84685374D01*
X106456638Y-84620604D01*
X106364309Y-84531388D01*
X106492452Y-84424410D01*
X106598069Y-84284623D01*
X106647707Y-84102326D01*
X106637221Y-83901955D01*
X106600965Y-83784701D01*
X106531429Y-83666505D01*
X106428902Y-83582929D01*
X106280690Y-83529276D01*
X106074099Y-83500849D01*
X105812319Y-83492933D01*
X106781800Y-83492933D01*
X106781800Y-83598766D01*
X106785409Y-83651255D01*
X106807752Y-83682684D01*
X106866104Y-83698452D01*
X106977739Y-83703957D01*
X107120467Y-83704600D01*
X107459133Y-83704600D01*
X107459133Y-85440266D01*
X107755467Y-85440266D01*
X108686800Y-85440266D01*
X108940800Y-85440266D01*
X108940800Y-84635933D01*
X109187421Y-84635933D01*
X109325533Y-84642407D01*
X109431193Y-84670073D01*
X109518691Y-84731296D01*
X109602318Y-84838441D01*
X109696364Y-85003872D01*
X109762289Y-85133350D01*
X109840413Y-85285521D01*
X109897401Y-85376764D01*
X109948496Y-85422602D01*
X110008940Y-85438561D01*
X110063638Y-85440266D01*
X110211745Y-85440266D01*
X110037558Y-85091016D01*
X109947388Y-84920829D01*
X109857018Y-84767921D01*
X109781545Y-84657284D01*
X109759918Y-84631529D01*
X109656466Y-84521291D01*
X109762549Y-84451783D01*
X109858020Y-84345708D01*
X109923627Y-84188542D01*
X109949161Y-84011550D01*
X109940583Y-83906598D01*
X109891168Y-83781423D01*
X109803928Y-83658104D01*
X109784279Y-83637931D01*
X109724682Y-83584383D01*
X109666471Y-83548426D01*
X109591124Y-83525892D01*
X109480119Y-83512611D01*
X109314936Y-83504414D01*
X109170973Y-83499873D01*
X108934775Y-83492933D01*
X110549467Y-83492933D01*
X110549467Y-85440266D01*
X110803467Y-85440266D01*
X110803467Y-83492933D01*
X111311467Y-83492933D01*
X111311467Y-85449184D01*
X111808883Y-85433585D01*
X112040052Y-85423727D01*
X112208276Y-85408698D01*
X112335265Y-85384925D01*
X112442726Y-85348835D01*
X112510176Y-85318164D01*
X112697638Y-85200410D01*
X112827737Y-85051621D01*
X112908904Y-84856893D01*
X112949568Y-84601326D01*
X112954014Y-84533602D01*
X112950427Y-84368020D01*
X113274308Y-84368020D01*
X113279934Y-84620335D01*
X113322035Y-84853782D01*
X113385800Y-85013183D01*
X113471172Y-85141438D01*
X113564075Y-85248819D01*
X113599914Y-85279958D01*
X113838202Y-85406280D01*
X114114210Y-85469958D01*
X114405694Y-85468121D01*
X114643737Y-85414685D01*
X114796438Y-85358542D01*
X114896938Y-85300153D01*
X114956101Y-85221093D01*
X114984793Y-85102935D01*
X114993879Y-84927254D01*
X114994467Y-84819872D01*
X114994467Y-84424266D01*
X114634633Y-84424266D01*
X114460385Y-84425238D01*
X114354040Y-84431440D01*
X114298837Y-84447802D01*
X114278011Y-84479255D01*
X114274800Y-84530100D01*
X114281662Y-84592911D01*
X114316685Y-84624245D01*
X114401520Y-84634930D01*
X114486467Y-84635933D01*
X114698133Y-84635933D01*
X114698133Y-84888443D01*
X114690352Y-85042525D01*
X114657096Y-85141839D01*
X114583497Y-85198109D01*
X114454685Y-85223063D01*
X114267000Y-85228441D01*
X114014910Y-85201683D01*
X113823099Y-85118654D01*
X113686650Y-84974721D01*
X113600646Y-84765252D01*
X113566940Y-84568768D01*
X113570996Y-84285451D01*
X113640172Y-84049054D01*
X113765589Y-83865351D01*
X113938371Y-83740119D01*
X114149639Y-83679132D01*
X114390516Y-83688166D01*
X114652124Y-83772997D01*
X114729883Y-83812209D01*
X114909800Y-83910306D01*
X114909800Y-83766207D01*
X114895313Y-83658204D01*
X114836022Y-83588382D01*
X114772554Y-83551135D01*
X114620321Y-83499859D01*
X114576580Y-83492933D01*
X115460133Y-83492933D01*
X115460133Y-85440266D01*
X116735757Y-85440266D01*
X116722362Y-85323850D01*
X116708967Y-85207433D01*
X115714133Y-85183579D01*
X115714133Y-84508933D01*
X116645467Y-84508933D01*
X116645467Y-84254933D01*
X115714133Y-84254933D01*
X115714133Y-83704600D01*
X116687800Y-83704600D01*
X116687800Y-83492933D01*
X115460133Y-83492933D01*
X114576580Y-83492933D01*
X114418249Y-83467863D01*
X114199460Y-83457508D01*
X113997074Y-83471159D01*
X113906308Y-83489333D01*
X113673691Y-83594999D01*
X113480160Y-83771563D01*
X113373868Y-83932175D01*
X113305504Y-84128184D01*
X113274308Y-84368020D01*
X112950427Y-84368020D01*
X112947512Y-84233501D01*
X112890800Y-83994550D01*
X112780619Y-83807442D01*
X112660581Y-83695271D01*
X112526829Y-83609019D01*
X112385405Y-83550216D01*
X112216339Y-83514320D01*
X111999660Y-83496789D01*
X111770816Y-83492933D01*
X111311467Y-83492933D01*
X110803467Y-83492933D01*
X110549467Y-83492933D01*
X108934775Y-83492933D01*
X108686800Y-83485647D01*
X108686800Y-85440266D01*
X107755467Y-85440266D01*
X107755467Y-83704600D01*
X108094133Y-83704600D01*
X108262098Y-83703472D01*
X108362672Y-83696489D01*
X108413129Y-83678254D01*
X108430745Y-83643368D01*
X108432800Y-83598766D01*
X108432800Y-83492933D01*
X106781800Y-83492933D01*
X105812319Y-83492933D01*
X105384800Y-83492933D01*
X102829786Y-83492933D01*
X102632886Y-83463331D01*
X102411820Y-83458008D01*
X102223592Y-83482670D01*
X102191745Y-83491906D01*
X101966804Y-83609102D01*
X101779633Y-83793662D01*
X101691570Y-83932175D01*
X101623070Y-84132835D01*
X101593328Y-84377049D01*
X100347133Y-84377049D01*
X100347133Y-83492933D01*
X100052710Y-83492933D01*
X100041171Y-84252465D01*
X100029633Y-85011998D01*
X99627467Y-84252537D01*
X99225300Y-83493076D01*
X99045383Y-83493004D01*
X98865467Y-83492933D01*
X98399800Y-83492933D01*
X97172133Y-83492933D01*
X96001706Y-83492933D01*
X95563467Y-83492933D01*
X94539024Y-83492933D01*
X94535168Y-83491209D01*
X94288438Y-83452482D01*
X94038314Y-83471643D01*
X93828366Y-83543182D01*
X93625895Y-83692599D01*
X93474196Y-83896864D01*
X93376687Y-84140637D01*
X93336788Y-84408578D01*
X64094722Y-84408578D01*
X64092623Y-84237716D01*
X64088524Y-83890064D01*
X64066055Y-81980029D01*
X64314212Y-81951953D01*
X64640928Y-81875646D01*
X64964911Y-81727694D01*
X65269909Y-81520030D01*
X65539671Y-81264589D01*
X65757348Y-80974100D01*
X69380300Y-80974100D01*
X69475772Y-81167842D01*
X69584273Y-81342108D01*
X69737266Y-81531148D01*
X69907677Y-81704497D01*
X70061927Y-81827473D01*
X70075570Y-81835029D01*
X70094561Y-81842093D01*
X70121746Y-81848688D01*
X70159972Y-81854838D01*
X70212084Y-81860565D01*
X70280928Y-81865892D01*
X70369352Y-81870842D01*
X70480200Y-81875437D01*
X70616319Y-81879701D01*
X70780555Y-81883657D01*
X70975754Y-81887326D01*
X71204762Y-81890733D01*
X71470425Y-81893900D01*
X71775590Y-81896850D01*
X72123103Y-81899605D01*
X72515809Y-81902188D01*
X72956554Y-81904624D01*
X73448186Y-81906933D01*
X73993549Y-81909139D01*
X74595491Y-81911265D01*
X75256856Y-81913335D01*
X75980492Y-81915369D01*
X76769244Y-81917392D01*
X77625959Y-81919427D01*
X78553482Y-81921495D01*
X79554660Y-81923621D01*
X80632338Y-81925827D01*
X81789364Y-81928135D01*
X82861603Y-81930242D01*
X84075892Y-81932457D01*
X85361989Y-81934500D01*
X86710581Y-81936366D01*
X88112357Y-81938053D01*
X89558004Y-81939556D01*
X91038208Y-81940871D01*
X92543659Y-81941994D01*
X94065043Y-81942922D01*
X95593048Y-81943650D01*
X97118362Y-81944175D01*
X98631671Y-81944492D01*
X100123664Y-81944597D01*
X101585028Y-81944487D01*
X103006451Y-81944158D01*
X104378619Y-81943606D01*
X105692221Y-81942826D01*
X106937945Y-81941815D01*
X107882467Y-81940834D01*
X109042371Y-81939544D01*
X110253519Y-81938285D01*
X111507914Y-81937064D01*
X112797556Y-81935883D01*
X114114449Y-81934750D01*
X115450595Y-81933668D01*
X116797994Y-81932644D01*
X118148649Y-81931682D01*
X119494563Y-81930787D01*
X120827737Y-81929964D01*
X122140173Y-81929219D01*
X123423874Y-81928557D01*
X124670840Y-81927983D01*
X125873075Y-81927501D01*
X127022580Y-81927118D01*
X128111357Y-81926838D01*
X129131408Y-81926666D01*
X130068502Y-81926608D01*
X139914372Y-81926600D01*
X140171925Y-81693527D01*
X140313199Y-81551071D01*
X140439350Y-81398296D01*
X140525338Y-81265683D01*
X140528389Y-81259610D01*
X140627300Y-81058766D01*
X140638985Y-66379711D01*
X140640021Y-65048391D01*
X140640935Y-63799133D01*
X140641719Y-62629333D01*
X140642362Y-61536387D01*
X140642855Y-60517689D01*
X140643188Y-59570637D01*
X140643351Y-58692624D01*
X140643335Y-57881048D01*
X140643129Y-57133304D01*
X140642725Y-56446787D01*
X140642111Y-55818893D01*
X140641280Y-55247018D01*
X140640220Y-54728556D01*
X140638922Y-54260905D01*
X140637377Y-53841459D01*
X140635574Y-53467615D01*
X140633505Y-53136767D01*
X140631158Y-52846312D01*
X140628525Y-52593644D01*
X140625596Y-52376161D01*
X140622361Y-52191257D01*
X140618811Y-52036328D01*
X140614934Y-51908769D01*
X140610723Y-51805977D01*
X140606167Y-51725347D01*
X140601256Y-51664274D01*
X140595981Y-51620154D01*
X140590332Y-51590384D01*
X140584299Y-51572357D01*
X140583673Y-51571099D01*
X140440353Y-51360696D01*
X140245137Y-51163756D01*
X140029066Y-51010783D01*
X139994986Y-50992604D01*
X139871381Y-50938412D01*
X139736383Y-50900199D01*
X139566219Y-50872986D01*
X139337116Y-50851794D01*
X139314967Y-50850169D01*
X139219831Y-50846441D01*
X139041503Y-50842930D01*
X138781460Y-50839638D01*
X138441175Y-50836563D01*
X138022124Y-50833706D01*
X137525782Y-50831066D01*
X136953624Y-50828643D01*
X136307125Y-50826437D01*
X135587759Y-50824448D01*
X134797003Y-50822675D01*
X133936331Y-50821120D01*
X133007219Y-50819780D01*
X132011140Y-50818657D01*
X130949571Y-50817750D01*
X129823986Y-50817059D01*
X128635861Y-50816584D01*
X127386670Y-50816325D01*
X126077888Y-50816281D01*
X124710991Y-50816452D01*
X123287454Y-50816839D01*
X121808751Y-50817441D01*
X120276358Y-50818258D01*
X118691750Y-50819289D01*
X117056401Y-50820535D01*
X115371788Y-50821996D01*
X113639384Y-50823671D01*
X111860665Y-50825560D01*
X110037107Y-50827664D01*
X108170183Y-50829981D01*
X106261370Y-50832512D01*
X104312141Y-50835257D01*
X102323973Y-50838215D01*
X100298340Y-50841386D01*
X98236718Y-50844771D01*
X96140581Y-50848368D01*
X94011404Y-50852179D01*
X92559482Y-50854865D01*
X70187997Y-50896796D01*
X70038149Y-50997619D01*
X69791789Y-51197151D01*
X69570931Y-51438168D01*
X69493498Y-51544976D01*
X69386078Y-51706852D01*
X69380300Y-80974100D01*
X65757348Y-80974100D01*
X65757943Y-80973306D01*
X65833954Y-80835912D01*
X65907790Y-80679891D01*
X65955427Y-80553236D01*
X65983650Y-80426624D01*
X65999246Y-80270735D01*
X66007995Y-80083856D01*
X66010918Y-79819549D01*
X65995906Y-79611394D01*
X65960760Y-79432354D01*
X65952568Y-79402668D01*
X65799518Y-79011459D01*
X65581910Y-78673816D01*
X65303035Y-78392658D01*
X64966181Y-78170903D01*
X64574640Y-78011471D01*
X64310883Y-77946171D01*
X64067467Y-77898930D01*
X64071937Y-70546515D01*
X64072600Y-69686586D01*
X64073577Y-68752251D01*
X64074847Y-67753771D01*
X64076389Y-66701405D01*
X64078182Y-65605415D01*
X64080205Y-64476059D01*
X64082437Y-63323599D01*
X64084856Y-62158295D01*
X64087441Y-60990407D01*
X64090171Y-59830195D01*
X64093025Y-58687920D01*
X64095982Y-57573841D01*
X64099021Y-56498219D01*
X64102120Y-55471315D01*
X64104651Y-54685100D01*
X64108014Y-53682904D01*
X64111201Y-52761908D01*
X64114250Y-51918645D01*
X64117203Y-51149647D01*
X64120098Y-50451449D01*
X64122975Y-49820582D01*
X64125875Y-49253579D01*
X64128837Y-48746975D01*
X64131901Y-48297302D01*
X64135107Y-47901093D01*
X64138494Y-47554882D01*
X64142103Y-47255201D01*
X64145973Y-46998583D01*
X64150144Y-46781562D01*
X64154656Y-46600670D01*
X64159549Y-46452441D01*
X64164863Y-46333408D01*
X64170636Y-46240104D01*
X64176911Y-46169062D01*
X64183725Y-46116814D01*
X64191119Y-46079895D01*
X64199132Y-46054838D01*
X64203910Y-46044687D01*
X64270504Y-45951066D01*
X64379080Y-45828085D01*
X64507063Y-45701169D01*
X64517086Y-45691953D01*
X64759247Y-45470632D01*
X104640607Y-45494273D01*
G04 #@! TO.C,X1*
D11*
X102412476Y-86001780D02*
X103079142Y-87001780D01*
X103079142Y-86001780D02*
X102412476Y-87001780D01*
X103983904Y-87001780D02*
X103412476Y-87001780D01*
X103698190Y-87001780D02*
X103698190Y-86001780D01*
X103602952Y-86144638D01*
X103507714Y-86239876D01*
X103412476Y-86287495D01*
G04 #@! TD*
M02*
