<?xml version="1.0" standalone="no"?>
 <!DOCTYPE svg PUBLIC "-//W3C//DTD SVG 1.1//EN" 
 "http://www.w3.org/Graphics/SVG/1.1/DTD/svg11.dtd"> 
<svg xmlns="http://www.w3.org/2000/svg" version="1.1" 
    width="29.7002cm" height="21.0007cm" viewBox="0 0 116930 82680 ">
<title>SVG Picture created as OpenFrame-brd.svg date 2020/05/25 16:56:36 </title>
  <desc>Picture generated by PCBNEW </desc>
<g style="fill:#000000; fill-opacity:1;stroke:#000000; stroke-opacity:1;
stroke-linecap:round; stroke-linejoin:round; "
 transform="translate(0 0) scale(1 1)">
</g>
<g style="fill:#000000; fill-opacity:0.0; 
stroke:#000000; stroke-width:-0.000393701; stroke-opacity:1; 
stroke-linecap:round; stroke-linejoin:round;">
</g>
<g style="fill:#000000; fill-opacity:0.0; 
stroke:#000000; stroke-width:39.3701; stroke-opacity:1; 
stroke-linecap:round; stroke-linejoin:round;">
</g>
<g style="fill:#000000; fill-opacity:0.0; 
stroke:#000000; stroke-width:59.0551; stroke-opacity:1; 
stroke-linecap:round; stroke-linejoin:round;">
<rect x="69685.9" y="65357.2" width="42519.7" height="12598.4" rx="0" />
</g>
<g style="fill:#000000; fill-opacity:0.0; 
stroke:#000000; stroke-width:39.3701; stroke-opacity:1; 
stroke-linecap:round; stroke-linejoin:round;">
</g>
<g style="fill:#000000; fill-opacity:0.0; 
stroke:#000000; stroke-width:59.0551; stroke-opacity:1; 
stroke-linecap:round; stroke-linejoin:round;">
<rect x="3937.01" y="3937.01" width="109056" height="74806" rx="0" />
</g>
<g style="fill:#000000; fill-opacity:0.0; 
stroke:#000000; stroke-width:39.3701; stroke-opacity:1; 
stroke-linecap:round; stroke-linejoin:round;">
</g>
<g style="fill:#000000; fill-opacity:0.0; 
stroke:#000000; stroke-width:59.0551; stroke-opacity:1; 
stroke-linecap:round; stroke-linejoin:round;">
<rect x="4724.41" y="4724.41" width="107481" height="73231.2" rx="0" />
</g>
<g style="fill:#000000; fill-opacity:0.0; 
stroke:#000000; stroke-width:39.3701; stroke-opacity:1; 
stroke-linecap:round; stroke-linejoin:round;">
</g>
<g style="fill:#000000; fill-opacity:0.0; 
stroke:#000000; stroke-width:59.0551; stroke-opacity:1; 
stroke-linecap:round; stroke-linejoin:round;">
<path d="M23622 4724
L23622 3937
" />
</g>
<g style="fill:#000000; fill-opacity:0.0; 
stroke:#000000; stroke-width:39.3701; stroke-opacity:1; 
stroke-linecap:round; stroke-linejoin:round;">
</g>
<g style="fill:#000000; fill-opacity:0.0; 
stroke:#000000; stroke-width:59.0551; stroke-opacity:1; 
stroke-linecap:round; stroke-linejoin:round;">
<path d="M43307 4724
L43307 3937
" />
</g>
<g style="fill:#000000; fill-opacity:0.0; 
stroke:#000000; stroke-width:39.3701; stroke-opacity:1; 
stroke-linecap:round; stroke-linejoin:round;">
</g>
<g style="fill:#000000; fill-opacity:0.0; 
stroke:#000000; stroke-width:59.0551; stroke-opacity:1; 
stroke-linecap:round; stroke-linejoin:round;">
<path d="M62992 4724
L62992 3937
" />
</g>
<g style="fill:#000000; fill-opacity:0.0; 
stroke:#000000; stroke-width:39.3701; stroke-opacity:1; 
stroke-linecap:round; stroke-linejoin:round;">
</g>
<g style="fill:#000000; fill-opacity:0.0; 
stroke:#000000; stroke-width:59.0551; stroke-opacity:1; 
stroke-linecap:round; stroke-linejoin:round;">
<path d="M82677 4724
L82677 3937
" />
</g>
<g style="fill:#000000; fill-opacity:0.0; 
stroke:#000000; stroke-width:39.3701; stroke-opacity:1; 
stroke-linecap:round; stroke-linejoin:round;">
</g>
<g style="fill:#000000; fill-opacity:0.0; 
stroke:#000000; stroke-width:59.0551; stroke-opacity:1; 
stroke-linecap:round; stroke-linejoin:round;">
<path d="M102362 4724
L102362 3937
" />
</g>
<g style="fill:#000000; fill-opacity:0.0; 
stroke:#000000; stroke-width:39.3701; stroke-opacity:1; 
stroke-linecap:round; stroke-linejoin:round;">
</g>
<g style="fill:#000000; fill-opacity:0.0; 
stroke:#000000; stroke-width:59.0551; stroke-opacity:1; 
stroke-linecap:round; stroke-linejoin:round;">
<path d="M14199 4562
L13906 4562
" />
<path d="M14052 4562
L14052 4050
L14004 4123
L13955 4172
L13906 4196
" />
</g>
<g style="fill:#000000; fill-opacity:0.0; 
stroke:#000000; stroke-width:39.3701; stroke-opacity:1; 
stroke-linecap:round; stroke-linejoin:round;">
</g>
<g style="fill:#000000; fill-opacity:0.0; 
stroke:#000000; stroke-width:59.0551; stroke-opacity:1; 
stroke-linecap:round; stroke-linejoin:round;">
<path d="M33591 4099
L33615 4074
L33664 4050
L33786 4050
L33835 4074
L33859 4099
L33884 4147
L33884 4196
L33859 4269
L33567 4562
L33884 4562
" />
</g>
<g style="fill:#000000; fill-opacity:0.0; 
stroke:#000000; stroke-width:39.3701; stroke-opacity:1; 
stroke-linecap:round; stroke-linejoin:round;">
</g>
<g style="fill:#000000; fill-opacity:0.0; 
stroke:#000000; stroke-width:59.0551; stroke-opacity:1; 
stroke-linecap:round; stroke-linejoin:round;">
<path d="M53252 4050
L53569 4050
L53398 4245
L53471 4245
L53520 4269
L53544 4294
L53569 4342
L53569 4464
L53544 4513
L53520 4537
L53471 4562
L53325 4562
L53276 4537
L53252 4513
" />
</g>
<g style="fill:#000000; fill-opacity:0.0; 
stroke:#000000; stroke-width:39.3701; stroke-opacity:1; 
stroke-linecap:round; stroke-linejoin:round;">
</g>
<g style="fill:#000000; fill-opacity:0.0; 
stroke:#000000; stroke-width:59.0551; stroke-opacity:1; 
stroke-linecap:round; stroke-linejoin:round;">
<path d="M73205 4221
L73205 4562
" />
<path d="M73083 4026
L72961 4391
L73278 4391
" />
</g>
<g style="fill:#000000; fill-opacity:0.0; 
stroke:#000000; stroke-width:39.3701; stroke-opacity:1; 
stroke-linecap:round; stroke-linejoin:round;">
</g>
<g style="fill:#000000; fill-opacity:0.0; 
stroke:#000000; stroke-width:59.0551; stroke-opacity:1; 
stroke-linecap:round; stroke-linejoin:round;">
<path d="M92914 4050
L92671 4050
L92646 4294
L92671 4269
L92719 4245
L92841 4245
L92890 4269
L92914 4294
L92939 4342
L92939 4464
L92914 4513
L92890 4537
L92841 4562
L92719 4562
L92671 4537
L92646 4513
" />
</g>
<g style="fill:#000000; fill-opacity:0.0; 
stroke:#000000; stroke-width:39.3701; stroke-opacity:1; 
stroke-linecap:round; stroke-linejoin:round;">
</g>
<g style="fill:#000000; fill-opacity:0.0; 
stroke:#000000; stroke-width:59.0551; stroke-opacity:1; 
stroke-linecap:round; stroke-linejoin:round;">
<path d="M112575 4050
L112477 4050
L112429 4074
L112404 4099
L112356 4172
L112331 4269
L112331 4464
L112356 4513
L112380 4537
L112429 4562
L112526 4562
L112575 4537
L112599 4513
L112624 4464
L112624 4342
L112599 4294
L112575 4269
L112526 4245
L112429 4245
L112380 4269
L112356 4294
L112331 4342
" />
</g>
<g style="fill:#000000; fill-opacity:0.0; 
stroke:#000000; stroke-width:39.3701; stroke-opacity:1; 
stroke-linecap:round; stroke-linejoin:round;">
</g>
<g style="fill:#000000; fill-opacity:0.0; 
stroke:#000000; stroke-width:59.0551; stroke-opacity:1; 
stroke-linecap:round; stroke-linejoin:round;">
<path d="M23622 77955
L23622 78742
" />
</g>
<g style="fill:#000000; fill-opacity:0.0; 
stroke:#000000; stroke-width:39.3701; stroke-opacity:1; 
stroke-linecap:round; stroke-linejoin:round;">
</g>
<g style="fill:#000000; fill-opacity:0.0; 
stroke:#000000; stroke-width:59.0551; stroke-opacity:1; 
stroke-linecap:round; stroke-linejoin:round;">
<path d="M43307 77955
L43307 78742
" />
</g>
<g style="fill:#000000; fill-opacity:0.0; 
stroke:#000000; stroke-width:39.3701; stroke-opacity:1; 
stroke-linecap:round; stroke-linejoin:round;">
</g>
<g style="fill:#000000; fill-opacity:0.0; 
stroke:#000000; stroke-width:59.0551; stroke-opacity:1; 
stroke-linecap:round; stroke-linejoin:round;">
<path d="M62992 77955
L62992 78742
" />
</g>
<g style="fill:#000000; fill-opacity:0.0; 
stroke:#000000; stroke-width:39.3701; stroke-opacity:1; 
stroke-linecap:round; stroke-linejoin:round;">
</g>
<g style="fill:#000000; fill-opacity:0.0; 
stroke:#000000; stroke-width:59.0551; stroke-opacity:1; 
stroke-linecap:round; stroke-linejoin:round;">
<path d="M82677 77955
L82677 78742
" />
</g>
<g style="fill:#000000; fill-opacity:0.0; 
stroke:#000000; stroke-width:39.3701; stroke-opacity:1; 
stroke-linecap:round; stroke-linejoin:round;">
</g>
<g style="fill:#000000; fill-opacity:0.0; 
stroke:#000000; stroke-width:59.0551; stroke-opacity:1; 
stroke-linecap:round; stroke-linejoin:round;">
<path d="M102362 77955
L102362 78742
" />
</g>
<g style="fill:#000000; fill-opacity:0.0; 
stroke:#000000; stroke-width:39.3701; stroke-opacity:1; 
stroke-linecap:round; stroke-linejoin:round;">
</g>
<g style="fill:#000000; fill-opacity:0.0; 
stroke:#000000; stroke-width:59.0551; stroke-opacity:1; 
stroke-linecap:round; stroke-linejoin:round;">
<path d="M14199 78580
L13906 78580
" />
<path d="M14052 78580
L14052 78069
L14004 78142
L13955 78190
L13906 78215
" />
</g>
<g style="fill:#000000; fill-opacity:0.0; 
stroke:#000000; stroke-width:39.3701; stroke-opacity:1; 
stroke-linecap:round; stroke-linejoin:round;">
</g>
<g style="fill:#000000; fill-opacity:0.0; 
stroke:#000000; stroke-width:59.0551; stroke-opacity:1; 
stroke-linecap:round; stroke-linejoin:round;">
<path d="M33591 78117
L33615 78093
L33664 78069
L33786 78069
L33835 78093
L33859 78117
L33884 78166
L33884 78215
L33859 78288
L33567 78580
L33884 78580
" />
</g>
<g style="fill:#000000; fill-opacity:0.0; 
stroke:#000000; stroke-width:39.3701; stroke-opacity:1; 
stroke-linecap:round; stroke-linejoin:round;">
</g>
<g style="fill:#000000; fill-opacity:0.0; 
stroke:#000000; stroke-width:59.0551; stroke-opacity:1; 
stroke-linecap:round; stroke-linejoin:round;">
<path d="M53252 78069
L53569 78069
L53398 78263
L53471 78263
L53520 78288
L53544 78312
L53569 78361
L53569 78483
L53544 78532
L53520 78556
L53471 78580
L53325 78580
L53276 78556
L53252 78532
" />
</g>
<g style="fill:#000000; fill-opacity:0.0; 
stroke:#000000; stroke-width:39.3701; stroke-opacity:1; 
stroke-linecap:round; stroke-linejoin:round;">
</g>
<g style="fill:#000000; fill-opacity:0.0; 
stroke:#000000; stroke-width:59.0551; stroke-opacity:1; 
stroke-linecap:round; stroke-linejoin:round;">
<path d="M73205 78239
L73205 78580
" />
<path d="M73083 78044
L72961 78410
L73278 78410
" />
</g>
<g style="fill:#000000; fill-opacity:0.0; 
stroke:#000000; stroke-width:39.3701; stroke-opacity:1; 
stroke-linecap:round; stroke-linejoin:round;">
</g>
<g style="fill:#000000; fill-opacity:0.0; 
stroke:#000000; stroke-width:59.0551; stroke-opacity:1; 
stroke-linecap:round; stroke-linejoin:round;">
<path d="M92914 78069
L92671 78069
L92646 78312
L92671 78288
L92719 78263
L92841 78263
L92890 78288
L92914 78312
L92939 78361
L92939 78483
L92914 78532
L92890 78556
L92841 78580
L92719 78580
L92671 78556
L92646 78532
" />
</g>
<g style="fill:#000000; fill-opacity:0.0; 
stroke:#000000; stroke-width:39.3701; stroke-opacity:1; 
stroke-linecap:round; stroke-linejoin:round;">
</g>
<g style="fill:#000000; fill-opacity:0.0; 
stroke:#000000; stroke-width:59.0551; stroke-opacity:1; 
stroke-linecap:round; stroke-linejoin:round;">
<path d="M112575 78069
L112477 78069
L112429 78093
L112404 78117
L112356 78190
L112331 78288
L112331 78483
L112356 78532
L112380 78556
L112429 78580
L112526 78580
L112575 78556
L112599 78532
L112624 78483
L112624 78361
L112599 78312
L112575 78288
L112526 78263
L112429 78263
L112380 78288
L112356 78312
L112331 78361
" />
</g>
<g style="fill:#000000; fill-opacity:0.0; 
stroke:#000000; stroke-width:39.3701; stroke-opacity:1; 
stroke-linecap:round; stroke-linejoin:round;">
</g>
<g style="fill:#000000; fill-opacity:0.0; 
stroke:#000000; stroke-width:59.0551; stroke-opacity:1; 
stroke-linecap:round; stroke-linejoin:round;">
<path d="M3937 23622
L4724 23622
" />
</g>
<g style="fill:#000000; fill-opacity:0.0; 
stroke:#000000; stroke-width:39.3701; stroke-opacity:1; 
stroke-linecap:round; stroke-linejoin:round;">
</g>
<g style="fill:#000000; fill-opacity:0.0; 
stroke:#000000; stroke-width:59.0551; stroke-opacity:1; 
stroke-linecap:round; stroke-linejoin:round;">
<path d="M3937 43307
L4724 43307
" />
</g>
<g style="fill:#000000; fill-opacity:0.0; 
stroke:#000000; stroke-width:39.3701; stroke-opacity:1; 
stroke-linecap:round; stroke-linejoin:round;">
</g>
<g style="fill:#000000; fill-opacity:0.0; 
stroke:#000000; stroke-width:59.0551; stroke-opacity:1; 
stroke-linecap:round; stroke-linejoin:round;">
<path d="M3937 62992
L4724 62992
" />
</g>
<g style="fill:#000000; fill-opacity:0.0; 
stroke:#000000; stroke-width:39.3701; stroke-opacity:1; 
stroke-linecap:round; stroke-linejoin:round;">
</g>
<g style="fill:#000000; fill-opacity:0.0; 
stroke:#000000; stroke-width:59.0551; stroke-opacity:1; 
stroke-linecap:round; stroke-linejoin:round;">
<path d="M4208 13864
L4452 13864
" />
<path d="M4160 14011
L4330 13499
L4501 14011
" />
</g>
<g style="fill:#000000; fill-opacity:0.0; 
stroke:#000000; stroke-width:39.3701; stroke-opacity:1; 
stroke-linecap:round; stroke-linejoin:round;">
</g>
<g style="fill:#000000; fill-opacity:0.0; 
stroke:#000000; stroke-width:59.0551; stroke-opacity:1; 
stroke-linecap:round; stroke-linejoin:round;">
<path d="M4367 33428
L4440 33452
L4464 33476
L4489 33525
L4489 33598
L4464 33647
L4440 33671
L4391 33696
L4196 33696
L4196 33184
L4367 33184
L4416 33208
L4440 33233
L4464 33281
L4464 33330
L4440 33379
L4416 33403
L4367 33428
L4196 33428
" />
</g>
<g style="fill:#000000; fill-opacity:0.0; 
stroke:#000000; stroke-width:39.3701; stroke-opacity:1; 
stroke-linecap:round; stroke-linejoin:round;">
</g>
<g style="fill:#000000; fill-opacity:0.0; 
stroke:#000000; stroke-width:59.0551; stroke-opacity:1; 
stroke-linecap:round; stroke-linejoin:round;">
<path d="M4489 53332
L4464 53356
L4391 53381
L4342 53381
L4269 53356
L4221 53308
L4196 53259
L4172 53161
L4172 53088
L4196 52991
L4221 52942
L4269 52893
L4342 52869
L4391 52869
L4464 52893
L4489 52918
" />
</g>
<g style="fill:#000000; fill-opacity:0.0; 
stroke:#000000; stroke-width:39.3701; stroke-opacity:1; 
stroke-linecap:round; stroke-linejoin:round;">
</g>
<g style="fill:#000000; fill-opacity:0.0; 
stroke:#000000; stroke-width:59.0551; stroke-opacity:1; 
stroke-linecap:round; stroke-linejoin:round;">
<path d="M4196 73066
L4196 72554
L4318 72554
L4391 72578
L4440 72627
L4464 72676
L4489 72773
L4489 72846
L4464 72944
L4440 72993
L4391 73041
L4318 73066
L4196 73066
" />
</g>
<g style="fill:#000000; fill-opacity:0.0; 
stroke:#000000; stroke-width:39.3701; stroke-opacity:1; 
stroke-linecap:round; stroke-linejoin:round;">
</g>
<g style="fill:#000000; fill-opacity:0.0; 
stroke:#000000; stroke-width:59.0551; stroke-opacity:1; 
stroke-linecap:round; stroke-linejoin:round;">
<path d="M112992 23622
L112205 23622
" />
</g>
<g style="fill:#000000; fill-opacity:0.0; 
stroke:#000000; stroke-width:39.3701; stroke-opacity:1; 
stroke-linecap:round; stroke-linejoin:round;">
</g>
<g style="fill:#000000; fill-opacity:0.0; 
stroke:#000000; stroke-width:59.0551; stroke-opacity:1; 
stroke-linecap:round; stroke-linejoin:round;">
<path d="M112992 43307
L112205 43307
" />
</g>
<g style="fill:#000000; fill-opacity:0.0; 
stroke:#000000; stroke-width:39.3701; stroke-opacity:1; 
stroke-linecap:round; stroke-linejoin:round;">
</g>
<g style="fill:#000000; fill-opacity:0.0; 
stroke:#000000; stroke-width:59.0551; stroke-opacity:1; 
stroke-linecap:round; stroke-linejoin:round;">
<path d="M112992 62992
L112205 62992
" />
</g>
<g style="fill:#000000; fill-opacity:0.0; 
stroke:#000000; stroke-width:39.3701; stroke-opacity:1; 
stroke-linecap:round; stroke-linejoin:round;">
</g>
<g style="fill:#000000; fill-opacity:0.0; 
stroke:#000000; stroke-width:59.0551; stroke-opacity:1; 
stroke-linecap:round; stroke-linejoin:round;">
<path d="M112477 13864
L112721 13864
" />
<path d="M112428 14011
L112599 13499
L112769 14011
" />
</g>
<g style="fill:#000000; fill-opacity:0.0; 
stroke:#000000; stroke-width:39.3701; stroke-opacity:1; 
stroke-linecap:round; stroke-linejoin:round;">
</g>
<g style="fill:#000000; fill-opacity:0.0; 
stroke:#000000; stroke-width:59.0551; stroke-opacity:1; 
stroke-linecap:round; stroke-linejoin:round;">
<path d="M112635 33428
L112708 33452
L112733 33476
L112757 33525
L112757 33598
L112733 33647
L112708 33671
L112660 33696
L112465 33696
L112465 33184
L112635 33184
L112684 33208
L112708 33233
L112733 33281
L112733 33330
L112708 33379
L112684 33403
L112635 33428
L112465 33428
" />
</g>
<g style="fill:#000000; fill-opacity:0.0; 
stroke:#000000; stroke-width:39.3701; stroke-opacity:1; 
stroke-linecap:round; stroke-linejoin:round;">
</g>
<g style="fill:#000000; fill-opacity:0.0; 
stroke:#000000; stroke-width:59.0551; stroke-opacity:1; 
stroke-linecap:round; stroke-linejoin:round;">
<path d="M112757 53332
L112733 53356
L112660 53381
L112611 53381
L112538 53356
L112489 53308
L112465 53259
L112440 53161
L112440 53088
L112465 52991
L112489 52942
L112538 52893
L112611 52869
L112660 52869
L112733 52893
L112757 52918
" />
</g>
<g style="fill:#000000; fill-opacity:0.0; 
stroke:#000000; stroke-width:39.3701; stroke-opacity:1; 
stroke-linecap:round; stroke-linejoin:round;">
</g>
<g style="fill:#000000; fill-opacity:0.0; 
stroke:#000000; stroke-width:59.0551; stroke-opacity:1; 
stroke-linecap:round; stroke-linejoin:round;">
<path d="M112465 73066
L112465 72554
L112587 72554
L112660 72578
L112708 72627
L112733 72676
L112757 72773
L112757 72846
L112733 72944
L112708 72993
L112660 73041
L112587 73066
L112465 73066
" />
</g>
<g style="fill:#000000; fill-opacity:0.0; 
stroke:#000000; stroke-width:39.3701; stroke-opacity:1; 
stroke-linecap:round; stroke-linejoin:round;">
</g>
<g style="fill:#000000; fill-opacity:0.0; 
stroke:#000000; stroke-width:59.0551; stroke-opacity:1; 
stroke-linecap:round; stroke-linejoin:round;">
<path d="M78911 76293
L78911 75703
L79051 75703
L79136 75731
L79192 75787
L79220 75843
L79248 75956
L79248 76040
L79220 76153
L79192 76209
L79136 76265
L79051 76293
L78911 76293
" />
<path d="M79754 76293
L79754 75984
L79726 75928
L79670 75899
L79557 75899
L79501 75928
" />
<path d="M79754 76265
L79698 76293
L79557 76293
L79501 76265
L79473 76209
L79473 76153
L79501 76096
L79557 76068
L79698 76068
L79754 76040
" />
<path d="M79951 75899
L80176 75899
" />
<path d="M80036 75703
L80036 76209
L80064 76265
L80120 76293
L80176 76293
" />
<path d="M80598 76265
L80542 76293
L80429 76293
L80373 76265
L80345 76209
L80345 75984
L80373 75928
L80429 75899
L80542 75899
L80598 75928
L80626 75984
L80626 76040
L80345 76096
" />
<path d="M80879 76237
L80907 76265
L80879 76293
L80851 76265
L80879 76237
L80879 76293
" />
<path d="M80879 75928
L80907 75956
L80879 75984
L80851 75956
L80879 75928
L80879 75984
" />
</g>
<g style="fill:#000000; fill-opacity:0.0; 
stroke:#000000; stroke-width:39.3701; stroke-opacity:1; 
stroke-linecap:round; stroke-linejoin:round;">
</g>
<g style="fill:#000000; fill-opacity:0.0; 
stroke:#000000; stroke-width:59.0551; stroke-opacity:1; 
stroke-linecap:round; stroke-linejoin:round;">
<path d="M69685 76577
L112205 76577
" />
</g>
<g style="fill:#000000; fill-opacity:0.0; 
stroke:#000000; stroke-width:39.3701; stroke-opacity:1; 
stroke-linecap:round; stroke-linejoin:round;">
</g>
<g style="fill:#000000; fill-opacity:0.0; 
stroke:#000000; stroke-width:59.0551; stroke-opacity:1; 
stroke-linecap:round; stroke-linejoin:round;">
<path d="M70249 77395
L70249 76805
" />
<path d="M70587 77395
L70334 77058
" />
<path d="M70587 76805
L70249 77142
" />
<path d="M70840 77395
L70840 77002
" />
<path d="M70840 76805
L70812 76833
L70840 76861
L70868 76833
L70840 76805
L70840 76861
" />
<path d="M71458 77339
L71430 77367
L71346 77395
L71290 77395
L71205 77367
L71149 77311
L71121 77255
L71093 77142
L71093 77058
L71121 76946
L71149 76889
L71205 76833
L71290 76805
L71346 76805
L71430 76833
L71458 76861
" />
<path d="M71965 77395
L71965 77086
L71937 77030
L71880 77002
L71768 77002
L71712 77030
" />
<path d="M71965 77367
L71908 77395
L71768 77395
L71712 77367
L71683 77311
L71683 77255
L71712 77199
L71768 77171
L71908 77171
L71965 77142
" />
<path d="M72499 77395
L72499 76805
" />
<path d="M72499 77367
L72443 77395
L72330 77395
L72274 77367
L72246 77339
L72218 77283
L72218 77114
L72246 77058
L72274 77030
L72330 77002
L72443 77002
L72499 77030
" />
<path d="M73230 77086
L73427 77086
" />
<path d="M73511 77395
L73230 77395
L73230 76805
L73511 76805
" />
<path d="M73764 77339
L73793 77367
L73764 77395
L73736 77367
L73764 77339
L73764 77395
" />
<path d="M74046 77395
L74046 76805
L74186 76805
L74271 76833
L74327 76889
L74355 76946
L74383 77058
L74383 77142
L74355 77255
L74327 77311
L74271 77367
L74186 77395
L74046 77395
" />
<path d="M74636 77339
L74664 77367
L74636 77395
L74608 77367
L74636 77339
L74636 77395
" />
<path d="M74889 77227
L75171 77227
" />
<path d="M74833 77395
L75030 76805
L75227 77395
" />
<path d="M75424 77339
L75452 77367
L75424 77395
L75395 77367
L75424 77339
L75424 77395
" />
<path d="M76605 77395
L76605 76805
" />
<path d="M76661 77171
L76830 77395
" />
<path d="M76830 77002
L76605 77227
" />
<path d="M77083 77395
L77083 77002
" />
<path d="M77083 76805
L77055 76833
L77083 76861
L77111 76833
L77083 76805
L77083 76861
" />
<path d="M77617 77367
L77561 77395
L77448 77395
L77392 77367
L77364 77339
L77336 77283
L77336 77114
L77364 77058
L77392 77030
L77448 77002
L77561 77002
L77617 77030
" />
<path d="M78123 77395
L78123 77086
L78095 77030
L78039 77002
L77926 77002
L77870 77030
" />
<path d="M78123 77367
L78067 77395
L77926 77395
L77870 77367
L77842 77311
L77842 77255
L77870 77199
L77926 77171
L78067 77171
L78123 77142
" />
<path d="M78658 77395
L78658 76805
" />
<path d="M78658 77367
L78601 77395
L78489 77395
L78433 77367
L78404 77339
L78376 77283
L78376 77114
L78404 77058
L78433 77030
L78489 77002
L78601 77002
L78658 77030
" />
<path d="M79670 76805
L79389 76805
L79361 77086
L79389 77058
L79445 77030
L79586 77030
L79642 77058
L79670 77086
L79698 77142
L79698 77283
L79670 77339
L79642 77367
L79586 77395
L79445 77395
L79389 77367
L79361 77339
" />
<path d="M79951 77339
L79979 77367
L79951 77395
L79923 77367
L79951 77339
L79951 77395
" />
<path d="M80345 76805
L80401 76805
L80457 76833
L80485 76861
L80514 76917
L80542 77030
L80542 77171
L80514 77283
L80485 77339
L80457 77367
L80401 77395
L80345 77395
L80289 77367
L80260 77339
L80232 77283
L80204 77171
L80204 77030
L80232 76917
L80260 76861
L80289 76833
L80345 76805
" />
<path d="M80795 77339
L80823 77367
L80795 77395
L80767 77367
L80795 77339
L80795 77395
" />
<path d="M81048 76861
L81076 76833
L81132 76805
L81273 76805
L81329 76833
L81357 76861
L81385 76917
L81385 76974
L81357 77058
L81020 77395
L81385 77395
" />
<path d="M81638 77171
L82088 77171
" />
<path d="M82370 77395
L82370 76805
" />
<path d="M82370 77030
L82426 77002
L82538 77002
L82595 77030
L82623 77058
L82651 77114
L82651 77283
L82623 77339
L82595 77367
L82538 77395
L82426 77395
L82370 77367
" />
<path d="M83129 77367
L83073 77395
L82960 77395
L82904 77367
L82876 77311
L82876 77086
L82904 77030
L82960 77002
L83073 77002
L83129 77030
L83157 77086
L83157 77142
L82876 77199
" />
<path d="M83635 77367
L83579 77395
L83466 77395
L83410 77367
L83382 77311
L83382 77086
L83410 77030
L83466 77002
L83579 77002
L83635 77030
L83663 77086
L83663 77142
L83382 77199
" />
<path d="M83860 76805
L84254 76805
L84001 77395
" />
<path d="M84732 76805
L84619 76805
L84563 76833
L84535 76861
L84479 76946
L84451 77058
L84451 77283
L84479 77339
L84507 77367
L84563 77395
L84676 77395
L84732 77367
L84760 77339
L84788 77283
L84788 77142
L84760 77086
L84732 77058
L84676 77030
L84563 77030
L84507 77058
L84479 77086
L84451 77142
" />
<path d="M85294 77395
L85294 77086
L85266 77030
L85210 77002
L85097 77002
L85041 77030
" />
<path d="M85294 77367
L85238 77395
L85097 77395
L85041 77367
L85013 77311
L85013 77255
L85041 77199
L85097 77171
L85238 77171
L85294 77142
" />
<path d="M85688 76805
L85744 76805
L85800 76833
L85829 76861
L85857 76917
L85885 77030
L85885 77171
L85857 77283
L85829 77339
L85800 77367
L85744 77395
L85688 77395
L85632 77367
L85604 77339
L85575 77283
L85547 77171
L85547 77030
L85575 76917
L85604 76861
L85632 76833
L85688 76805
" />
<path d="M85997 76644
L86560 76644
" />
<path d="M86082 76805
L86475 76805
L86222 77395
" />
<path d="M86560 76644
L87122 76644
" />
<path d="M86813 76805
L86869 76805
L86925 76833
L86953 76861
L86982 76917
L87010 77030
L87010 77171
L86982 77283
L86953 77339
L86925 77367
L86869 77395
L86813 77395
L86757 77367
L86728 77339
L86700 77283
L86672 77171
L86672 77030
L86700 76917
L86728 76861
L86757 76833
L86813 76805
" />
<path d="M87516 77002
L87516 77395
" />
<path d="M87263 77002
L87263 77311
L87291 77367
L87347 77395
L87431 77395
L87488 77367
L87516 77339
" />
<path d="M87797 77395
L87797 76805
" />
<path d="M87797 77030
L87853 77002
L87966 77002
L88022 77030
L88050 77058
L88078 77114
L88078 77283
L88050 77339
L88022 77367
L87966 77395
L87853 77395
L87797 77367
" />
<path d="M88584 77002
L88584 77395
" />
<path d="M88331 77002
L88331 77311
L88359 77367
L88416 77395
L88500 77395
L88556 77367
L88584 77339
" />
<path d="M88866 77002
L88866 77395
" />
<path d="M88866 77058
L88894 77030
L88950 77002
L89034 77002
L89091 77030
L89119 77086
L89119 77395
" />
<path d="M89316 77002
L89541 77002
" />
<path d="M89400 76805
L89400 77311
L89428 77367
L89484 77395
L89541 77395
" />
<path d="M89991 77002
L89991 77395
" />
<path d="M89737 77002
L89737 77311
L89766 77367
L89822 77395
L89906 77395
L89962 77367
L89991 77339
" />
<path d="M90581 77395
L90244 77395
" />
<path d="M90412 77395
L90412 76805
L90356 76889
L90300 76946
L90244 76974
" />
<path d="M90919 77058
L90862 77030
L90834 77002
L90806 76946
L90806 76917
L90834 76861
L90862 76833
L90919 76805
L91031 76805
L91087 76833
L91115 76861
L91144 76917
L91144 76946
L91115 77002
L91087 77030
L91031 77058
L90919 77058
L90862 77086
L90834 77114
L90806 77171
L90806 77283
L90834 77339
L90862 77367
L90919 77395
L91031 77395
L91087 77367
L91115 77339
L91144 77283
L91144 77171
L91115 77114
L91087 77086
L91031 77058
" />
<path d="M91397 77339
L91425 77367
L91397 77395
L91368 77367
L91397 77339
L91397 77395
" />
<path d="M91790 76805
L91847 76805
L91903 76833
L91931 76861
L91959 76917
L91987 77030
L91987 77171
L91959 77283
L91931 77339
L91903 77367
L91847 77395
L91790 77395
L91734 77367
L91706 77339
L91678 77283
L91650 77171
L91650 77030
L91678 76917
L91706 76861
L91734 76833
L91790 76805
" />
<path d="M92493 77002
L92493 77395
" />
<path d="M92353 76777
L92212 77199
L92578 77199
" />
<path d="M92803 77339
L92831 77367
L92803 77395
L92775 77367
L92803 77339
L92803 77395
" />
<path d="M93393 77395
L93056 77395
" />
<path d="M93224 77395
L93224 76805
L93168 76889
L93112 76946
L93056 76974
" />
</g>
<g style="fill:#000000; fill-opacity:0.0; 
stroke:#000000; stroke-width:39.3701; stroke-opacity:1; 
stroke-linecap:round; stroke-linejoin:round;">
</g>
<g style="fill:#000000; fill-opacity:0.0; 
stroke:#000000; stroke-width:59.0551; stroke-opacity:1; 
stroke-linecap:round; stroke-linejoin:round;">
<path d="M69685 75396
L112205 75396
" />
</g>
<g style="fill:#000000; fill-opacity:0.0; 
stroke:#000000; stroke-width:39.3701; stroke-opacity:1; 
stroke-linecap:round; stroke-linejoin:round;">
</g>
<g style="fill:#000000; fill-opacity:0.0; 
stroke:#000000; stroke-width:118.11; stroke-opacity:1; 
stroke-linecap:round; stroke-linejoin:round;">
<path d="M104099 76293
L103902 76012
" />
<path d="M103761 76293
L103761 75703
L103986 75703
L104042 75731
L104070 75759
L104099 75815
L104099 75899
L104070 75956
L104042 75984
L103986 76012
L103761 76012
" />
<path d="M104577 76265
L104520 76293
L104408 76293
L104352 76265
L104323 76209
L104323 75984
L104352 75928
L104408 75899
L104520 75899
L104577 75928
L104605 75984
L104605 76040
L104323 76096
" />
<path d="M104802 75899
L104942 76293
L105083 75899
" />
<path d="M105308 76237
L105336 76265
L105308 76293
L105280 76265
L105308 76237
L105308 76293
" />
<path d="M105308 75928
L105336 75956
L105308 75984
L105280 75956
L105308 75928
L105308 75984
" />
</g>
<g style="fill:#000000; fill-opacity:0.0; 
stroke:#000000; stroke-width:39.3701; stroke-opacity:1; 
stroke-linecap:round; stroke-linejoin:round;">
</g>
<g style="fill:#000000; fill-opacity:0.0; 
stroke:#000000; stroke-width:59.0551; stroke-opacity:1; 
stroke-linecap:round; stroke-linejoin:round;">
<path d="M70221 76265
L70305 76293
L70446 76293
L70502 76265
L70530 76237
L70559 76181
L70559 76124
L70530 76068
L70502 76040
L70446 76012
L70334 75984
L70277 75956
L70249 75928
L70221 75871
L70221 75815
L70249 75759
L70277 75731
L70334 75703
L70474 75703
L70559 75731
" />
<path d="M70812 76293
L70812 75899
" />
<path d="M70812 75703
L70784 75731
L70812 75759
L70840 75731
L70812 75703
L70812 75759
" />
<path d="M71037 75899
L71346 75899
L71037 76293
L71346 76293
" />
<path d="M71796 76265
L71740 76293
L71627 76293
L71571 76265
L71543 76209
L71543 75984
L71571 75928
L71627 75899
L71740 75899
L71796 75928
L71824 75984
L71824 76040
L71543 76096
" />
<path d="M72077 76237
L72105 76265
L72077 76293
L72049 76265
L72077 76237
L72077 76293
" />
<path d="M72077 75928
L72105 75956
L72077 75984
L72049 75956
L72077 75928
L72077 75984
" />
<path d="M72780 76124
L73061 76124
" />
<path d="M72724 76293
L72921 75703
L73118 76293
" />
<path d="M73568 75899
L73568 76293
" />
<path d="M73427 75674
L73286 76096
L73652 76096
" />
</g>
<g style="fill:#000000; fill-opacity:0.0; 
stroke:#000000; stroke-width:39.3701; stroke-opacity:1; 
stroke-linecap:round; stroke-linejoin:round;">
</g>
<g style="fill:#000000; fill-opacity:0.0; 
stroke:#000000; stroke-width:59.0551; stroke-opacity:1; 
stroke-linecap:round; stroke-linejoin:round;">
<path d="M103714 77395
L103714 76805
" />
<path d="M104248 77395
L104248 76805
" />
<path d="M104248 77367
L104192 77395
L104079 77395
L104023 77367
L103995 77339
L103967 77283
L103967 77114
L103995 77058
L104023 77030
L104079 77002
L104192 77002
L104248 77030
" />
<path d="M104529 77339
L104557 77367
L104529 77395
L104501 77367
L104529 77339
L104529 77395
" />
<path d="M104529 77030
L104557 77058
L104529 77086
L104501 77058
L104529 77030
L104529 77086
" />
<path d="M105570 77395
L105232 77395
" />
<path d="M105401 77395
L105401 76805
L105345 76889
L105289 76946
L105232 76974
" />
<path d="M106245 76777
L105739 77536
" />
<path d="M106751 77395
L106413 77395
" />
<path d="M106582 77395
L106582 76805
L106526 76889
L106470 76946
L106413 76974
" />
</g>
<g style="fill:#000000; fill-opacity:0.0; 
stroke:#000000; stroke-width:39.3701; stroke-opacity:1; 
stroke-linecap:round; stroke-linejoin:round;">
</g>
<g style="fill:#000000; fill-opacity:0.0; 
stroke:#000000; stroke-width:59.0551; stroke-opacity:1; 
stroke-linecap:round; stroke-linejoin:round;">
<path d="M69685 73821
L112205 73821
" />
</g>
<g style="fill:#000000; fill-opacity:0.0; 
stroke:#000000; stroke-width:39.3701; stroke-opacity:1; 
stroke-linecap:round; stroke-linejoin:round;">
</g>
<g style="fill:#000000; fill-opacity:0.0; 
stroke:#000000; stroke-width:157.48; stroke-opacity:1; 
stroke-linecap:round; stroke-linejoin:round;">
<path d="M70360 74099
L70810 74099
" />
<path d="M70486 74886
L70585 74099
" />
<path d="M70974 74886
L71039 74361
" />
<path d="M71072 74099
L71030 74136
L71063 74174
L71105 74136
L71072 74099
L71063 74174
" />
<path d="M71302 74361
L71602 74361
" />
<path d="M71447 74099
L71363 74774
L71391 74849
L71461 74886
L71536 74886
" />
<path d="M71911 74886
L71841 74849
L71813 74774
L71897 74099
" />
<path d="M72516 74849
L72436 74886
L72286 74886
L72216 74849
L72187 74774
L72225 74474
L72272 74399
L72352 74361
L72501 74361
L72572 74399
L72600 74474
L72591 74549
L72206 74624
" />
<path d="M72895 74811
L72928 74849
L72886 74886
L72853 74849
L72895 74811
L72886 74886
" />
<path d="M72947 74399
L72980 74436
L72937 74474
L72905 74436
L72947 74399
L72937 74474
" />
</g>
<g style="fill:#000000; fill-opacity:0.0; 
stroke:#000000; stroke-width:39.3701; stroke-opacity:1; 
stroke-linecap:round; stroke-linejoin:round;">
</g>
<g style="fill:#000000; fill-opacity:0.0; 
stroke:#000000; stroke-width:59.0551; stroke-opacity:1; 
stroke-linecap:round; stroke-linejoin:round;">
<path d="M70446 73070
L70249 73070
" />
<path d="M70249 73380
L70249 72789
L70530 72789
" />
<path d="M70755 73380
L70755 72986
" />
<path d="M70755 72789
L70727 72817
L70755 72845
L70784 72817
L70755 72789
L70755 72845
" />
<path d="M71121 73380
L71065 73352
L71037 73295
L71037 72789
" />
<path d="M71571 73352
L71515 73380
L71402 73380
L71346 73352
L71318 73295
L71318 73070
L71346 73014
L71402 72986
L71515 72986
L71571 73014
L71599 73070
L71599 73127
L71318 73183
" />
<path d="M71852 73323
L71880 73352
L71852 73380
L71824 73352
L71852 73323
L71852 73380
" />
<path d="M71852 73014
L71880 73042
L71852 73070
L71824 73042
L71852 73014
L71852 73070
" />
<path d="M72696 72789
L72808 72789
L72865 72817
L72921 72874
L72949 72986
L72949 73183
L72921 73295
L72865 73352
L72808 73380
L72696 73380
L72640 73352
L72583 73295
L72555 73183
L72555 72986
L72583 72874
L72640 72817
L72696 72789
" />
<path d="M73202 72986
L73202 73577
" />
<path d="M73202 73014
L73258 72986
L73371 72986
L73427 73014
L73455 73042
L73483 73099
L73483 73267
L73455 73323
L73427 73352
L73371 73380
L73258 73380
L73202 73352
" />
<path d="M73961 73352
L73905 73380
L73793 73380
L73736 73352
L73708 73295
L73708 73070
L73736 73014
L73793 72986
L73905 72986
L73961 73014
L73989 73070
L73989 73127
L73708 73183
" />
<path d="M74242 72986
L74242 73380
" />
<path d="M74242 73042
L74271 73014
L74327 72986
L74411 72986
L74467 73014
L74496 73070
L74496 73380
" />
<path d="M74974 73070
L74777 73070
" />
<path d="M74777 73380
L74777 72789
L75058 72789
" />
<path d="M75283 73380
L75283 72986
" />
<path d="M75283 73099
L75311 73042
L75339 73014
L75395 72986
L75452 72986
" />
<path d="M75902 73380
L75902 73070
L75874 73014
L75817 72986
L75705 72986
L75649 73014
" />
<path d="M75902 73352
L75845 73380
L75705 73380
L75649 73352
L75620 73295
L75620 73239
L75649 73183
L75705 73155
L75845 73155
L75902 73127
" />
<path d="M76183 73380
L76183 72986
" />
<path d="M76183 73042
L76211 73014
L76267 72986
L76352 72986
L76408 73014
L76436 73070
L76436 73380
" />
<path d="M76436 73070
L76464 73014
L76520 72986
L76605 72986
L76661 73014
L76689 73070
L76689 73380
" />
<path d="M77195 73352
L77139 73380
L77027 73380
L76970 73352
L76942 73295
L76942 73070
L76970 73014
L77027 72986
L77139 72986
L77195 73014
L77223 73070
L77223 73127
L76942 73183
" />
<path d="M77476 73323
L77505 73352
L77476 73380
L77448 73352
L77476 73323
L77476 73380
" />
<path d="M77758 73380
L77758 72789
" />
<path d="M77814 73155
L77983 73380
" />
<path d="M77983 72986
L77758 73211
" />
<path d="M78236 73380
L78236 72986
" />
<path d="M78236 72789
L78208 72817
L78236 72845
L78264 72817
L78236 72789
L78236 72845
" />
<path d="M78770 73352
L78714 73380
L78601 73380
L78545 73352
L78517 73323
L78489 73267
L78489 73099
L78517 73042
L78545 73014
L78601 72986
L78714 72986
L78770 73014
" />
<path d="M79276 73380
L79276 73070
L79248 73014
L79192 72986
L79079 72986
L79023 73014
" />
<path d="M79276 73352
L79220 73380
L79079 73380
L79023 73352
L78995 73295
L78995 73239
L79023 73183
L79079 73155
L79220 73155
L79276 73127
" />
<path d="M79811 73380
L79811 72789
" />
<path d="M79811 73352
L79754 73380
L79642 73380
L79586 73352
L79557 73323
L79529 73267
L79529 73099
L79557 73042
L79586 73014
L79642 72986
L79754 72986
L79811 73014
" />
<path d="M79951 73436
L80401 73436
" />
<path d="M80542 72986
L80542 73577
" />
<path d="M80542 73014
L80598 72986
L80710 72986
L80767 73014
L80795 73042
L80823 73099
L80823 73267
L80795 73323
L80767 73352
L80710 73380
L80598 73380
L80542 73352
" />
<path d="M81329 73352
L81273 73380
L81160 73380
L81104 73352
L81076 73323
L81048 73267
L81048 73099
L81076 73042
L81104 73014
L81160 72986
L81273 72986
L81329 73014
" />
<path d="M81582 73380
L81582 72789
" />
<path d="M81582 73014
L81638 72986
L81751 72986
L81807 73014
L81835 73042
L81863 73099
L81863 73267
L81835 73323
L81807 73352
L81751 73380
L81638 73380
L81582 73352
" />
</g>
<g style="fill:#000000; fill-opacity:0.0; 
stroke:#000000; stroke-width:39.3701; stroke-opacity:1; 
stroke-linecap:round; stroke-linejoin:round;">
</g>
<g style="fill:#000000; fill-opacity:0.0; 
stroke:#000000; stroke-width:59.0551; stroke-opacity:1; 
stroke-linecap:round; stroke-linejoin:round;">
<path d="M69685 71459
L112205 71459
" />
</g>
<g style="fill:#000000; fill-opacity:0.0; 
stroke:#000000; stroke-width:39.3701; stroke-opacity:1; 
stroke-linecap:round; stroke-linejoin:round;">
</g>
<g style="fill:#000000; fill-opacity:0.0; 
stroke:#000000; stroke-width:59.0551; stroke-opacity:1; 
stroke-linecap:round; stroke-linejoin:round;">
<path d="M70221 72289
L70305 72317
L70446 72317
L70502 72289
L70530 72260
L70559 72204
L70559 72148
L70530 72092
L70502 72064
L70446 72036
L70334 72007
L70277 71979
L70249 71951
L70221 71895
L70221 71839
L70249 71782
L70277 71754
L70334 71726
L70474 71726
L70559 71754
" />
<path d="M70812 72317
L70812 71726
" />
<path d="M71065 72317
L71065 72007
L71037 71951
L70980 71923
L70896 71923
L70840 71951
L70812 71979
" />
<path d="M71571 72289
L71515 72317
L71402 72317
L71346 72289
L71318 72232
L71318 72007
L71346 71951
L71402 71923
L71515 71923
L71571 71951
L71599 72007
L71599 72064
L71318 72120
" />
<path d="M72077 72289
L72021 72317
L71908 72317
L71852 72289
L71824 72232
L71824 72007
L71852 71951
L71908 71923
L72021 71923
L72077 71951
L72105 72007
L72105 72064
L71824 72120
" />
<path d="M72274 71923
L72499 71923
" />
<path d="M72358 71726
L72358 72232
L72386 72289
L72443 72317
L72499 72317
" />
<path d="M72696 72260
L72724 72289
L72696 72317
L72668 72289
L72696 72260
L72696 72317
" />
<path d="M72696 71951
L72724 71979
L72696 72007
L72668 71979
L72696 71951
L72696 72007
" />
</g>
<g style="fill:#000000; fill-opacity:0.0; 
stroke:#000000; stroke-width:39.3701; stroke-opacity:1; 
stroke-linecap:round; stroke-linejoin:round;">
</g>
<g style="fill:#000000; fill-opacity:0.0; 
stroke:#000000; stroke-width:59.0551; stroke-opacity:1; 
stroke-linecap:round; stroke-linejoin:round;">
<path d="M77559 75396
L77559 76577
" />
</g>
<g style="fill:#000000; fill-opacity:0.0; 
stroke:#000000; stroke-width:39.3701; stroke-opacity:1; 
stroke-linecap:round; stroke-linejoin:round;">
</g>
<g style="fill:#000000; fill-opacity:0.0; 
stroke:#000000; stroke-width:59.0551; stroke-opacity:1; 
stroke-linecap:round; stroke-linejoin:round;">
<path d="M102756 75396
L102756 77955
" />
</g>
<g style="fill:#840000; fill-opacity:0.0; 
stroke:#840000; stroke-width:59.0551; stroke-opacity:1; 
stroke-linecap:round; stroke-linejoin:round;">
</g>
<g style="fill:#840000; fill-opacity:1.0; 
stroke:#840000; stroke-width:3.93701; stroke-opacity:1; 
stroke-linecap:round; stroke-linejoin:round;">
<polyline style="fill-rule:evenodd;"
points="48289,20218
48749,20218
49193,20218
49620,20218
50029,20218
50419,20218
50789,20219
51137,20219
51462,20219
51765,20220
52042,20220
52294,20221
52520,20221
52718,20222
52886,20223
53025,20223
53051,20223
54994,20236
55061,20282
55106,20320
55142,20360
55150,20374
55155,20392
55159,20428
55163,20483
55167,20558
55170,20653
55173,20769
55176,20906
55179,21066
55181,21248
55184,21455
55186,21686
55188,21942
55189,22225
55191,22534
55192,22870
55193,23235
55194,23628
55195,24051
55196,24504
55196,24988
55196,25504
55197,26052
55197,26211
55197,26761
55196,27279
55196,27765
55195,28219
55195,28644
55194,29038
55193,29404
55192,29742
55190,30052
55188,30335
55186,30592
55184,30824
55182,31032
55180,31215
55177,31376
55174,31514
55170,31630
55167,31726
55163,31801
55159,31857
55155,31895
55150,31914
55150,31914
55123,31951
55080,31992
55061,32006
54994,32052
51793,32063
51512,32064
51200,32065
50858,32066
50487,32066
50089,32067
49665,32068
49218,32068
48748,32069
48257,32069
47746,32070
47218,32070
46674,32071
46115,32071
45543,32071
44959,32071
44366,32072
43764,32072
43155,32072
42541,32072
41922,32072
41302,32072
40681,32072
40061,32072
39443,32072
38830,32071
38222,32071
37621,32071
37028,32070
36446,32070
35876,32070
35319,32069
34777,32069
34251,32068
33744,32068
33256,32067
32789,32066
32344,32066
31924,32065
31530,32064
31163,32063
30825,32062
30517,32061
30516,32061
30159,32060
29833,32059
29538,32058
29271,32057
29032,32056
28819,32055
28630,32054
28463,32053
28318,32051
28193,32050
28086,32048
27996,32047
27920,32045
27859,32043
27810,32041
27771,32039
27742,32036
27721,32033
27705,32030
27695,32026
27689,32024
27636,31991
27598,31954
27572,31906
27555,31842
27543,31755
27539,31699
27538,31667
27537,31603
27536,31508
27534,31383
27533,31231
27533,31052
27532,30847
27531,30619
27530,30367
27529,30094
27528,29801
27528,29489
27527,29159
27527,28813
27526,28452
27526,28078
27525,27691
27525,27293
27525,26886
27525,26470
27525,26202
27525,25684
27525,25197
27525,24742
27525,24317
27526,23921
27526,23553
27526,23212
27527,22896
27528,22606
27528,22339
27529,22095
27530,21873
27531,21671
27533,21489
27534,21325
27536,21178
27538,21047
27538,20999
28050,20999
28050,26097
28050,26625
28050,27121
28050,27584
28050,28016
28051,28418
28051,28790
28051,29133
28052,29447
28053,29734
28054,29993
28054,30227
28055,30435
28057,30618
28058,30777
28059,30912
28060,31025
28062,31116
28064,31185
28065,31234
28067,31263
28068,31271
28100,31344
28154,31419
28158,31424
28195,31463
28224,31487
28256,31500
28303,31507
28360,31512
28386,31513
28443,31513
28533,31514
28652,31515
28801,31515
28978,31516
29182,31516
29412,31517
29668,31517
29948,31518
30251,31518
30577,31519
30923,31519
31290,31519
31676,31520
32080,31520
32501,31521
32939,31521
33391,31521
33858,31521
34337,31522
34829,31522
35332,31522
35845,31522
36367,31522
36897,31523
37434,31523
37977,31523
38525,31523
39077,31523
39633,31523
40190,31523
40748,31523
41306,31523
41863,31523
42417,31523
42969,31523
43517,31523
44059,31523
44596,31522
45125,31522
45646,31522
46158,31522
46660,31522
47151,31521
47629,31521
48095,31521
48546,31520
48982,31520
49401,31520
49804,31519
50188,31519
50553,31519
50897,31518
51220,31518
51521,31517
51799,31517
52052,31516
52280,31515
52482,31515
52656,31514
52802,31514
52919,31513
52975,31513
53232,31511
53458,31509
53655,31507
53825,31505
53970,31503
54093,31501
54195,31499
54278,31497
54345,31495
54397,31492
54437,31489
54467,31485
54490,31481
54506,31477
54519,31471
54519,31471
54551,31453
54575,31429
54594,31395
54607,31346
54618,31277
54627,31184
54634,31086
54635,31044
54637,30971
54638,30867
54640,30736
54641,30578
54642,30394
54643,30188
54644,29959
54645,29711
54646,29444
54647,29161
54647,28863
54648,28552
54649,28228
54649,27895
54649,27554
54650,27206
54650,26852
54650,26496
54650,26138
54650,25780
54650,25424
54650,25071
54649,24723
54649,24382
54649,24049
54648,23726
54647,23415
54647,23117
54646,22834
54645,22568
54644,22321
54643,22093
54642,21887
54641,21705
54640,21547
54638,21417
54637,21314
54635,21242
54634,21202
54627,21110
54618,21025
54610,20955
54601,20908
54598,20898
54590,20875
54582,20856
54569,20840
54551,20827
54525,20816
54487,20807
54436,20800
54368,20794
54282,20790
54174,20786
54043,20783
53885,20780
53698,20778
53550,20776
53476,20775
53372,20774
53237,20773
53074,20773
52882,20772
52664,20771
52419,20770
52150,20770
51857,20769
51541,20769
51203,20768
50844,20767
50465,20767
50067,20766
49651,20766
49219,20765
48771,20765
48308,20764
47831,20764
47342,20763
46840,20763
46328,20763
45806,20762
45276,20762
44738,20762
44193,20761
43642,20761
43087,20761
42529,20761
41967,20760
41404,20760
40840,20760
40277,20760
39715,20760
39156,20760
38600,20760
38049,20760
37503,20760
36964,20760
36432,20760
35909,20760
35395,20760
34892,20760
34400,20760
33921,20760
33456,20760
33005,20761
32570,20761
32151,20761
31750,20761
31368,20762
31006,20762
30664,20763
30344,20763
30047,20763
29774,20764
29525,20764
29302,20765
29106,20766
28938,20766
28798,20767
28689,20767
28610,20768
28563,20769
28553,20769
28451,20774
28376,20779
28322,20785
28284,20793
28255,20803
28229,20817
28217,20826
28165,20867
28114,20919
28101,20934
28050,20999
27538,20999
27540,20932
27542,20831
27544,20743
27547,20667
27550,20602
27553,20547
27557,20501
27560,20462
27565,20430
27569,20404
27574,20382
27578,20364
27583,20351
27591,20329
27601,20311
27616,20297
27638,20285
27671,20275
27718,20267
27780,20261
27861,20257
27964,20253
28092,20249
28248,20246
28434,20243
28441,20243
28511,20242
28612,20241
28745,20241
28908,20240
29100,20239
29319,20238
29566,20237
29839,20236
30136,20235
30457,20235
30801,20234
31166,20233
31552,20232
31957,20231
32380,20231
32821,20230
33278,20229
33750,20228
34236,20228
34735,20227
35246,20226
35767,20226
36299,20225
36839,20224
37387,20224
37941,20223
38501,20223
39065,20222
39632,20222
40202,20221
40773,20221
41344,20220
41914,20220
42482,20219
43047,20219
43608,20219
44163,20219
44712,20218
45254,20218
45787,20218
46311,20218
46824,20218
47326,20218
47814,20218
48289,20218
" /> 
</g>
<g style="fill:#840000; fill-opacity:1.0; 
stroke:#840000; stroke-width:0; stroke-opacity:1; 
stroke-linecap:round; stroke-linejoin:round;">
<polyline style="fill-rule:evenodd;"
points="41043,34370
41043,33779
41634,33779
41634,34370
41043,34370
" /> 
</g>
<g style="fill:#C2C2C2; fill-opacity:1.0; 
stroke:#C2C2C2; stroke-width:0; stroke-opacity:1; 
stroke-linecap:round; stroke-linejoin:round;">
<circle cx="41338.6" cy="31814.6" r="118.11" /> 
</g>
<g style="fill:#C2C2C2; fill-opacity:1.0; 
stroke:#C2C2C2; stroke-width:39.3701; stroke-opacity:1; 
stroke-linecap:round; stroke-linejoin:round;">
</g>
<g style="fill:#840000; fill-opacity:1.0; 
stroke:#840000; stroke-width:39.3701; stroke-opacity:1; 
stroke-linecap:round; stroke-linejoin:round;">
</g>
<g style="fill:#840000; fill-opacity:1.0; 
stroke:#840000; stroke-width:43.3071; stroke-opacity:1; 
stroke-linecap:round; stroke-linejoin:round;">
</g>
<g style="fill:#840000; fill-opacity:0.0; 
stroke:#840000; stroke-width:43.3071; stroke-opacity:1; 
stroke-linecap:round; stroke-linejoin:round;">
<path d="M41338 31814
L41338 34074
" />
</g>
<g style="fill:#FFFFFF; fill-opacity:0.0; 
stroke:#FFFFFF; stroke-width:43.3071; stroke-opacity:1; 
stroke-linecap:round; stroke-linejoin:round;">
</g>
<g style="fill:#FFFFFF; fill-opacity:1.0; 
stroke:#FFFFFF; stroke-width:0; stroke-opacity:1; 
stroke-linecap:round; stroke-linejoin:round;">
<circle cx="41338.6" cy="31814.6" r="78.7402" /> 
</g>
<g style="fill:#FFFFFF; fill-opacity:1.0; 
stroke:#FFFFFF; stroke-width:39.3701; stroke-opacity:1; 
stroke-linecap:round; stroke-linejoin:round;">
</g>
<g style="fill:#000000; fill-opacity:1.0; 
stroke:#000000; stroke-width:39.3701; stroke-opacity:1; 
stroke-linecap:round; stroke-linejoin:round;">
</g>
<g style="fill:#C2C200; fill-opacity:1.0; 
stroke:#C2C200; stroke-width:39.3701; stroke-opacity:1; 
stroke-linecap:round; stroke-linejoin:round;">
</g>
<g style="fill:#C2C200; fill-opacity:1.0; 
stroke:#C2C200; stroke-width:59.0551; stroke-opacity:1; 
stroke-linecap:round; stroke-linejoin:round;">
</g>
<g style="fill:#C2C200; fill-opacity:0.0; 
stroke:#C2C200; stroke-width:59.0551; stroke-opacity:1; 
stroke-linecap:round; stroke-linejoin:round;">
<path d="M25606 34428
L25453 34397
" />
<path d="M25606 34428
L25606 34428
" />
<path d="M25213 33343
L25213 32801
" />
<path d="M25213 33885
L25213 33343
" />
<path d="M57461 34188
L57377 34313
" />
<path d="M28265 20798
L28387 20773
" />
<path d="M25244 18120
L25328 17995
" />
<path d="M25213 18273
L25244 18120
" />
<path d="M25213 30690
L25213 18273
" />
<path d="M56710 31474
L56771 31778
" />
<path d="M56771 31171
L56710 31474
" />
<path d="M56938 30922
L56771 31171
" />
<path d="M57185 30754
L56938 30922
" />
<path d="M57488 30690
L57185 30754
" />
<path d="M57492 18273
L57488 30690
" />
<path d="M57462 18120
L57492 18273
" />
<path d="M57377 17995
L57462 18120
" />
<path d="M57252 17911
L57377 17995
" />
<path d="M54608 31312
L54541 31412
" />
<path d="M28072 24360
L28072 23484
" />
<path d="M29332 31504
L28860 31504
" />
<path d="M25328 34313
L25244 34188
" />
<path d="M25453 34397
L25328 34313
" />
<path d="M25518 30752
L25213 30690
" />
<path d="M25766 30920
L25518 30752
" />
<path d="M25934 31170
L25766 30920
" />
<path d="M54541 31412
L54440 31479
" />
<path d="M28072 28793
L28072 24360
" />
<path d="M54633 31189
L54608 31312
" />
<path d="M28097 20965
L28164 20865
" />
<path d="M54633 30313
L54633 31189
" />
<path d="M28072 31189
L28072 29669
" />
<path d="M54633 21086
L54633 22593
" />
<path d="M54318 20771
L54440 20795
" />
<path d="M25213 34035
L25213 33885
" />
<path d="M25244 34188
L25213 34035
" />
<path d="M25766 32028
L25934 31779
" />
<path d="M25518 32197
L25766 32028
" />
<path d="M28097 31312
L28072 31189
" />
<path d="M28387 20773
L29332 20773
" />
<path d="M54318 31504
L53845 31504
" />
<path d="M54633 24114
L54633 24990
" />
<path d="M57486 33885
L57492 34035
" />
<path d="M57487 33343
L57486 33885
" />
<path d="M57487 32801
L57487 33343
" />
<path d="M57487 32259
L57487 32801
" />
<path d="M57184 32195
L57487 32259
" />
<path d="M56937 32026
L57184 32195
" />
<path d="M56771 31778
L56937 32026
" />
<path d="M54608 20963
L54633 21086
" />
<path d="M57099 17880
L57252 17911
" />
<path d="M40853 17880
L57099 17880
" />
<path d="M25606 17880
L40853 17880
" />
<path d="M25453 17911
L25606 17880
" />
<path d="M25328 17995
L25453 17911
" />
<path d="M53373 20771
L53845 20771
" />
<path d="M53845 20771
L54318 20771
" />
<path d="M29332 20773
L53373 20771
" />
<path d="M54633 22593
L54633 24114
" />
<path d="M54541 20863
L54608 20963
" />
<path d="M54633 29437
L54633 30313
" />
<path d="M28164 20865
L28265 20798
" />
<path d="M53845 31504
L29332 31504
" />
<path d="M57492 34035
L57461 34188
" />
<path d="M54633 28546
L54633 29437
" />
<path d="M28072 21088
L28097 20965
" />
<path d="M28265 31479
L28164 31412
" />
<path d="M25213 32259
L25518 32197
" />
<path d="M25213 32801
L25213 32259
" />
<path d="M28387 31504
L28265 31479
" />
<path d="M28072 23484
L28072 21964
" />
<path d="M28072 21964
L28072 21088
" />
<path d="M57252 34397
L57099 34428
" />
<path d="M57377 34313
L57252 34397
" />
<path d="M54440 20795
L54541 20863
" />
<path d="M28164 31412
L28097 31312
" />
<path d="M54440 31479
L54318 31504
" />
<path d="M25995 31474
L25934 31170
" />
<path d="M25934 31779
L25995 31474
" />
<path d="M28072 29669
L28072 28793
" />
<path d="M54633 24990
L54633 28546
" />
<path d="M40853 34428
L25606 34428
" />
<path d="M57099 34428
L40853 34428
" />
<path d="M28860 31504
L28387 31504
" />
</g> 
</svg>
