G04 #@! TF.GenerationSoftware,KiCad,Pcbnew,5.1.5+dfsg1-2build2*
G04 #@! TF.CreationDate,2022-03-25T09:21:37+01:00*
G04 #@! TF.ProjectId,OpenDropV4,4f70656e-4472-46f7-9056-342e6b696361,rev?*
G04 #@! TF.SameCoordinates,Original*
G04 #@! TF.FileFunction,Soldermask,Bot*
G04 #@! TF.FilePolarity,Negative*
%FSLAX46Y46*%
G04 Gerber Fmt 4.6, Leading zero omitted, Abs format (unit mm)*
G04 Created by KiCad (PCBNEW 5.1.5+dfsg1-2build2) date 2022-03-25 09:21:37*
%MOMM*%
%LPD*%
G04 APERTURE LIST*
%ADD10C,0.100000*%
G04 APERTURE END LIST*
D10*
G36*
X157247764Y-140154402D02*
G01*
X157370445Y-140178805D01*
X157601571Y-140274541D01*
X157602132Y-140274916D01*
X157800701Y-140407595D01*
X157809578Y-140413527D01*
X157986473Y-140590422D01*
X158125459Y-140798429D01*
X158209604Y-141001571D01*
X158221195Y-141029556D01*
X158270000Y-141274915D01*
X158270000Y-141525085D01*
X158245597Y-141647765D01*
X158221195Y-141770445D01*
X158125459Y-142001571D01*
X157986473Y-142209578D01*
X157809578Y-142386473D01*
X157601571Y-142525459D01*
X157370445Y-142621195D01*
X157247765Y-142645597D01*
X157125085Y-142670000D01*
X156874915Y-142670000D01*
X156752235Y-142645597D01*
X156629555Y-142621195D01*
X156398429Y-142525459D01*
X156190422Y-142386473D01*
X156013527Y-142209578D01*
X155874541Y-142001571D01*
X155778805Y-141770445D01*
X155754403Y-141647765D01*
X155730000Y-141525085D01*
X155730000Y-141274915D01*
X155778805Y-141029556D01*
X155790397Y-141001571D01*
X155874541Y-140798429D01*
X156013527Y-140590422D01*
X156190422Y-140413527D01*
X156199300Y-140407595D01*
X156397868Y-140274916D01*
X156398429Y-140274541D01*
X156629555Y-140178805D01*
X156752236Y-140154402D01*
X156874915Y-140130000D01*
X157125085Y-140130000D01*
X157247764Y-140154402D01*
G37*
G36*
X43247765Y-139154403D02*
G01*
X43370445Y-139178805D01*
X43601571Y-139274541D01*
X43809578Y-139413527D01*
X43986473Y-139590422D01*
X44125459Y-139798429D01*
X44206490Y-139994053D01*
X44221195Y-140029556D01*
X44269926Y-140274541D01*
X44270000Y-140274916D01*
X44270000Y-140525084D01*
X44221195Y-140770445D01*
X44195118Y-140833400D01*
X44140969Y-140964128D01*
X44125459Y-141001571D01*
X43986473Y-141209578D01*
X43809578Y-141386473D01*
X43601571Y-141525459D01*
X43370445Y-141621195D01*
X43247765Y-141645597D01*
X43125085Y-141670000D01*
X42874915Y-141670000D01*
X42752235Y-141645597D01*
X42629555Y-141621195D01*
X42398429Y-141525459D01*
X42190422Y-141386473D01*
X42013527Y-141209578D01*
X41874541Y-141001571D01*
X41859032Y-140964128D01*
X41804882Y-140833400D01*
X41778805Y-140770445D01*
X41730000Y-140525084D01*
X41730000Y-140274916D01*
X41730075Y-140274541D01*
X41778805Y-140029556D01*
X41793511Y-139994053D01*
X41874541Y-139798429D01*
X42013527Y-139590422D01*
X42190422Y-139413527D01*
X42398429Y-139274541D01*
X42629555Y-139178805D01*
X42752235Y-139154403D01*
X42874915Y-139130000D01*
X43125085Y-139130000D01*
X43247765Y-139154403D01*
G37*
G36*
X101462600Y-141533400D02*
G01*
X100162600Y-141533400D01*
X100162600Y-140833400D01*
X101462600Y-140833400D01*
X101462600Y-141533400D01*
G37*
G36*
X98809434Y-139954478D02*
G01*
X98904976Y-139994053D01*
X98904978Y-139994054D01*
X98990965Y-140051509D01*
X99064091Y-140124635D01*
X99100286Y-140178805D01*
X99121547Y-140210624D01*
X99161122Y-140306166D01*
X99181297Y-140407594D01*
X99181297Y-140511012D01*
X99161122Y-140612440D01*
X99121547Y-140707982D01*
X99121546Y-140707984D01*
X99064091Y-140793971D01*
X98990965Y-140867097D01*
X98904978Y-140924552D01*
X98904977Y-140924553D01*
X98904976Y-140924553D01*
X98809434Y-140964128D01*
X98708006Y-140984303D01*
X98604588Y-140984303D01*
X98503160Y-140964128D01*
X98407618Y-140924553D01*
X98407617Y-140924553D01*
X98407616Y-140924552D01*
X98321629Y-140867097D01*
X98248503Y-140793971D01*
X98191048Y-140707984D01*
X98191047Y-140707982D01*
X98151472Y-140612440D01*
X98131297Y-140511012D01*
X98131297Y-140407594D01*
X98151472Y-140306166D01*
X98191047Y-140210624D01*
X98212308Y-140178805D01*
X98248503Y-140124635D01*
X98321629Y-140051509D01*
X98407616Y-139994054D01*
X98407618Y-139994053D01*
X98503160Y-139954478D01*
X98604588Y-139934303D01*
X98708006Y-139934303D01*
X98809434Y-139954478D01*
G37*
G36*
X101462600Y-139633400D02*
G01*
X100162600Y-139633400D01*
X100162600Y-138933400D01*
X101462600Y-138933400D01*
X101462600Y-139633400D01*
G37*
G36*
X86352507Y-136650528D02*
G01*
X86407103Y-136673143D01*
X86456239Y-136705974D01*
X86498026Y-136747761D01*
X86530857Y-136796897D01*
X86553472Y-136851493D01*
X86565000Y-136909453D01*
X86565000Y-136968547D01*
X86559171Y-136997854D01*
X86556770Y-137022229D01*
X86559171Y-137046615D01*
X86566284Y-137070064D01*
X86577835Y-137091675D01*
X86593380Y-137110617D01*
X86612322Y-137126163D01*
X86633932Y-137137714D01*
X86657381Y-137144828D01*
X86681767Y-137147230D01*
X86706146Y-137144829D01*
X86735453Y-137139000D01*
X86794547Y-137139000D01*
X86823854Y-137144829D01*
X86848229Y-137147230D01*
X86872615Y-137144829D01*
X86896064Y-137137716D01*
X86917675Y-137126165D01*
X86936617Y-137110620D01*
X86952163Y-137091678D01*
X86963714Y-137070068D01*
X86970828Y-137046619D01*
X86973230Y-137022233D01*
X86970829Y-136997854D01*
X86965000Y-136968547D01*
X86965000Y-136909453D01*
X86976528Y-136851493D01*
X86999143Y-136796897D01*
X87031974Y-136747761D01*
X87073761Y-136705974D01*
X87122897Y-136673143D01*
X87177493Y-136650528D01*
X87235453Y-136639000D01*
X87294547Y-136639000D01*
X87352507Y-136650528D01*
X87407103Y-136673143D01*
X87456239Y-136705974D01*
X87498026Y-136747761D01*
X87530857Y-136796897D01*
X87553472Y-136851493D01*
X87565000Y-136909453D01*
X87565000Y-136968547D01*
X87559171Y-136997854D01*
X87556770Y-137022229D01*
X87559171Y-137046615D01*
X87566284Y-137070064D01*
X87577835Y-137091675D01*
X87593380Y-137110617D01*
X87612322Y-137126163D01*
X87633932Y-137137714D01*
X87657381Y-137144828D01*
X87681767Y-137147230D01*
X87706146Y-137144829D01*
X87735453Y-137139000D01*
X87794547Y-137139000D01*
X87823854Y-137144829D01*
X87848229Y-137147230D01*
X87872615Y-137144829D01*
X87896064Y-137137716D01*
X87917675Y-137126165D01*
X87936617Y-137110620D01*
X87952163Y-137091678D01*
X87963714Y-137070068D01*
X87970828Y-137046619D01*
X87973230Y-137022233D01*
X87970829Y-136997854D01*
X87965000Y-136968547D01*
X87965000Y-136909453D01*
X87976528Y-136851493D01*
X87999143Y-136796897D01*
X88031974Y-136747761D01*
X88073761Y-136705974D01*
X88122897Y-136673143D01*
X88177493Y-136650528D01*
X88235453Y-136639000D01*
X88294547Y-136639000D01*
X88352507Y-136650528D01*
X88407103Y-136673143D01*
X88456239Y-136705974D01*
X88498026Y-136747761D01*
X88530857Y-136796897D01*
X88553472Y-136851493D01*
X88565000Y-136909453D01*
X88565000Y-136968547D01*
X88559171Y-136997854D01*
X88556770Y-137022229D01*
X88559171Y-137046615D01*
X88566284Y-137070064D01*
X88577835Y-137091675D01*
X88593380Y-137110617D01*
X88612322Y-137126163D01*
X88633932Y-137137714D01*
X88657381Y-137144828D01*
X88681767Y-137147230D01*
X88706146Y-137144829D01*
X88735453Y-137139000D01*
X88794547Y-137139000D01*
X88823854Y-137144829D01*
X88848229Y-137147230D01*
X88872615Y-137144829D01*
X88896064Y-137137716D01*
X88917675Y-137126165D01*
X88936617Y-137110620D01*
X88952163Y-137091678D01*
X88963714Y-137070068D01*
X88970828Y-137046619D01*
X88973230Y-137022233D01*
X88970829Y-136997854D01*
X88965000Y-136968547D01*
X88965000Y-136909453D01*
X88976528Y-136851493D01*
X88999143Y-136796897D01*
X89031974Y-136747761D01*
X89073761Y-136705974D01*
X89122897Y-136673143D01*
X89177493Y-136650528D01*
X89235453Y-136639000D01*
X89294547Y-136639000D01*
X89352507Y-136650528D01*
X89407103Y-136673143D01*
X89456239Y-136705974D01*
X89498026Y-136747761D01*
X89530857Y-136796897D01*
X89553472Y-136851493D01*
X89565000Y-136909453D01*
X89565000Y-136968547D01*
X89559171Y-136997854D01*
X89556770Y-137022229D01*
X89559171Y-137046615D01*
X89566284Y-137070064D01*
X89577835Y-137091675D01*
X89593380Y-137110617D01*
X89612322Y-137126163D01*
X89633932Y-137137714D01*
X89657381Y-137144828D01*
X89681767Y-137147230D01*
X89706146Y-137144829D01*
X89735453Y-137139000D01*
X89794547Y-137139000D01*
X89823854Y-137144829D01*
X89848229Y-137147230D01*
X89872615Y-137144829D01*
X89896064Y-137137716D01*
X89917675Y-137126165D01*
X89936617Y-137110620D01*
X89952163Y-137091678D01*
X89963714Y-137070068D01*
X89970828Y-137046619D01*
X89973230Y-137022233D01*
X89970829Y-136997854D01*
X89965000Y-136968547D01*
X89965000Y-136909453D01*
X89976528Y-136851493D01*
X89999143Y-136796897D01*
X90031974Y-136747761D01*
X90073761Y-136705974D01*
X90122897Y-136673143D01*
X90177493Y-136650528D01*
X90235453Y-136639000D01*
X90294547Y-136639000D01*
X90352507Y-136650528D01*
X90407103Y-136673143D01*
X90456239Y-136705974D01*
X90498026Y-136747761D01*
X90530857Y-136796897D01*
X90553472Y-136851493D01*
X90565000Y-136909453D01*
X90565000Y-136968547D01*
X90553472Y-137026507D01*
X90530857Y-137081103D01*
X90498026Y-137130239D01*
X90456239Y-137172026D01*
X90407103Y-137204857D01*
X90352507Y-137227472D01*
X90294547Y-137239000D01*
X90235453Y-137239000D01*
X90206146Y-137233171D01*
X90181771Y-137230770D01*
X90157385Y-137233171D01*
X90133936Y-137240284D01*
X90112325Y-137251835D01*
X90093383Y-137267380D01*
X90077837Y-137286322D01*
X90066286Y-137307932D01*
X90059172Y-137331381D01*
X90056770Y-137355767D01*
X90059171Y-137380146D01*
X90065000Y-137409453D01*
X90065000Y-137468547D01*
X90059171Y-137497854D01*
X90056770Y-137522229D01*
X90059171Y-137546615D01*
X90066284Y-137570064D01*
X90077835Y-137591675D01*
X90093380Y-137610617D01*
X90112322Y-137626163D01*
X90133932Y-137637714D01*
X90157381Y-137644828D01*
X90181767Y-137647230D01*
X90206146Y-137644829D01*
X90235453Y-137639000D01*
X90294547Y-137639000D01*
X90352507Y-137650528D01*
X90407103Y-137673143D01*
X90456239Y-137705974D01*
X90498026Y-137747761D01*
X90530857Y-137796897D01*
X90553472Y-137851493D01*
X90565000Y-137909453D01*
X90565000Y-137968547D01*
X90553472Y-138026507D01*
X90530857Y-138081103D01*
X90498026Y-138130239D01*
X90456239Y-138172026D01*
X90407103Y-138204857D01*
X90352507Y-138227472D01*
X90294547Y-138239000D01*
X90235453Y-138239000D01*
X90206146Y-138233171D01*
X90181771Y-138230770D01*
X90157385Y-138233171D01*
X90133936Y-138240284D01*
X90112325Y-138251835D01*
X90093383Y-138267380D01*
X90077837Y-138286322D01*
X90066286Y-138307932D01*
X90059172Y-138331381D01*
X90056770Y-138355767D01*
X90059171Y-138380146D01*
X90065000Y-138409453D01*
X90065000Y-138468547D01*
X90059171Y-138497854D01*
X90056770Y-138522229D01*
X90059171Y-138546615D01*
X90066284Y-138570064D01*
X90077835Y-138591675D01*
X90093380Y-138610617D01*
X90112322Y-138626163D01*
X90133932Y-138637714D01*
X90157381Y-138644828D01*
X90181767Y-138647230D01*
X90206146Y-138644829D01*
X90235453Y-138639000D01*
X90294547Y-138639000D01*
X90352507Y-138650528D01*
X90407103Y-138673143D01*
X90456239Y-138705974D01*
X90498026Y-138747761D01*
X90530857Y-138796897D01*
X90553472Y-138851493D01*
X90565000Y-138909453D01*
X90565000Y-138968547D01*
X90553472Y-139026507D01*
X90530857Y-139081103D01*
X90498026Y-139130239D01*
X90456239Y-139172026D01*
X90407103Y-139204857D01*
X90352507Y-139227472D01*
X90294547Y-139239000D01*
X90235453Y-139239000D01*
X90177493Y-139227472D01*
X90122897Y-139204857D01*
X90073761Y-139172026D01*
X90031974Y-139130239D01*
X89999143Y-139081103D01*
X89976528Y-139026507D01*
X89965000Y-138968547D01*
X89965000Y-138909453D01*
X89970829Y-138880146D01*
X89973230Y-138855771D01*
X89970829Y-138831385D01*
X89963716Y-138807936D01*
X89952165Y-138786325D01*
X89936620Y-138767383D01*
X89917678Y-138751837D01*
X89896068Y-138740286D01*
X89872619Y-138733172D01*
X89848233Y-138730770D01*
X89823854Y-138733171D01*
X89794547Y-138739000D01*
X89735453Y-138739000D01*
X89706146Y-138733171D01*
X89681771Y-138730770D01*
X89657385Y-138733171D01*
X89633936Y-138740284D01*
X89612325Y-138751835D01*
X89593383Y-138767380D01*
X89577837Y-138786322D01*
X89566286Y-138807932D01*
X89559172Y-138831381D01*
X89556770Y-138855767D01*
X89559171Y-138880146D01*
X89565000Y-138909453D01*
X89565000Y-138968547D01*
X89553472Y-139026507D01*
X89530857Y-139081103D01*
X89498026Y-139130239D01*
X89456239Y-139172026D01*
X89407103Y-139204857D01*
X89352507Y-139227472D01*
X89294547Y-139239000D01*
X89235453Y-139239000D01*
X89177493Y-139227472D01*
X89122897Y-139204857D01*
X89073761Y-139172026D01*
X89031974Y-139130239D01*
X88999143Y-139081103D01*
X88976528Y-139026507D01*
X88965000Y-138968547D01*
X88965000Y-138909453D01*
X88970829Y-138880146D01*
X88973230Y-138855771D01*
X88970829Y-138831385D01*
X88963716Y-138807936D01*
X88952165Y-138786325D01*
X88936620Y-138767383D01*
X88917678Y-138751837D01*
X88896068Y-138740286D01*
X88872619Y-138733172D01*
X88848233Y-138730770D01*
X88823854Y-138733171D01*
X88794547Y-138739000D01*
X88735453Y-138739000D01*
X88706146Y-138733171D01*
X88681771Y-138730770D01*
X88657385Y-138733171D01*
X88633936Y-138740284D01*
X88612325Y-138751835D01*
X88593383Y-138767380D01*
X88577837Y-138786322D01*
X88566286Y-138807932D01*
X88559172Y-138831381D01*
X88556770Y-138855767D01*
X88559171Y-138880146D01*
X88565000Y-138909453D01*
X88565000Y-138968547D01*
X88553472Y-139026507D01*
X88530857Y-139081103D01*
X88498026Y-139130239D01*
X88456239Y-139172026D01*
X88407103Y-139204857D01*
X88352507Y-139227472D01*
X88294547Y-139239000D01*
X88235453Y-139239000D01*
X88177493Y-139227472D01*
X88122897Y-139204857D01*
X88073761Y-139172026D01*
X88031974Y-139130239D01*
X87999143Y-139081103D01*
X87976528Y-139026507D01*
X87965000Y-138968547D01*
X87965000Y-138909453D01*
X87970829Y-138880146D01*
X87973230Y-138855771D01*
X87970829Y-138831385D01*
X87963716Y-138807936D01*
X87952165Y-138786325D01*
X87936620Y-138767383D01*
X87917678Y-138751837D01*
X87896068Y-138740286D01*
X87872619Y-138733172D01*
X87848233Y-138730770D01*
X87823854Y-138733171D01*
X87794547Y-138739000D01*
X87735453Y-138739000D01*
X87706146Y-138733171D01*
X87681771Y-138730770D01*
X87657385Y-138733171D01*
X87633936Y-138740284D01*
X87612325Y-138751835D01*
X87593383Y-138767380D01*
X87577837Y-138786322D01*
X87566286Y-138807932D01*
X87559172Y-138831381D01*
X87556770Y-138855767D01*
X87559171Y-138880146D01*
X87565000Y-138909453D01*
X87565000Y-138968547D01*
X87553472Y-139026507D01*
X87530857Y-139081103D01*
X87498026Y-139130239D01*
X87456239Y-139172026D01*
X87407103Y-139204857D01*
X87352507Y-139227472D01*
X87294547Y-139239000D01*
X87235453Y-139239000D01*
X87177493Y-139227472D01*
X87122897Y-139204857D01*
X87073761Y-139172026D01*
X87031974Y-139130239D01*
X86999143Y-139081103D01*
X86976528Y-139026507D01*
X86965000Y-138968547D01*
X86965000Y-138909453D01*
X86970829Y-138880146D01*
X86973230Y-138855771D01*
X86970829Y-138831385D01*
X86963716Y-138807936D01*
X86952165Y-138786325D01*
X86936620Y-138767383D01*
X86917678Y-138751837D01*
X86896068Y-138740286D01*
X86872619Y-138733172D01*
X86848233Y-138730770D01*
X86823854Y-138733171D01*
X86794547Y-138739000D01*
X86735453Y-138739000D01*
X86706146Y-138733171D01*
X86681771Y-138730770D01*
X86657385Y-138733171D01*
X86633936Y-138740284D01*
X86612325Y-138751835D01*
X86593383Y-138767380D01*
X86577837Y-138786322D01*
X86566286Y-138807932D01*
X86559172Y-138831381D01*
X86556770Y-138855767D01*
X86559171Y-138880146D01*
X86565000Y-138909453D01*
X86565000Y-138968547D01*
X86553472Y-139026507D01*
X86530857Y-139081103D01*
X86498026Y-139130239D01*
X86456239Y-139172026D01*
X86407103Y-139204857D01*
X86352507Y-139227472D01*
X86294547Y-139239000D01*
X86235453Y-139239000D01*
X86177493Y-139227472D01*
X86122897Y-139204857D01*
X86073761Y-139172026D01*
X86031974Y-139130239D01*
X85999143Y-139081103D01*
X85976528Y-139026507D01*
X85965000Y-138968547D01*
X85965000Y-138909453D01*
X85976528Y-138851493D01*
X85999143Y-138796897D01*
X86031974Y-138747761D01*
X86073761Y-138705974D01*
X86122897Y-138673143D01*
X86177493Y-138650528D01*
X86235453Y-138639000D01*
X86294547Y-138639000D01*
X86323854Y-138644829D01*
X86348229Y-138647230D01*
X86372615Y-138644829D01*
X86396064Y-138637716D01*
X86417675Y-138626165D01*
X86436617Y-138610620D01*
X86452163Y-138591678D01*
X86463714Y-138570068D01*
X86470828Y-138546619D01*
X86473230Y-138522233D01*
X86470829Y-138497854D01*
X86465000Y-138468547D01*
X86465000Y-138409453D01*
X86470829Y-138380146D01*
X86473230Y-138355771D01*
X86473230Y-138355767D01*
X87056770Y-138355767D01*
X87059171Y-138380146D01*
X87065000Y-138409453D01*
X87065000Y-138468547D01*
X87059171Y-138497854D01*
X87056770Y-138522229D01*
X87059171Y-138546615D01*
X87066284Y-138570064D01*
X87077835Y-138591675D01*
X87093380Y-138610617D01*
X87112322Y-138626163D01*
X87133932Y-138637714D01*
X87157381Y-138644828D01*
X87181767Y-138647230D01*
X87206146Y-138644829D01*
X87235453Y-138639000D01*
X87294547Y-138639000D01*
X87323854Y-138644829D01*
X87348229Y-138647230D01*
X87372615Y-138644829D01*
X87396064Y-138637716D01*
X87417675Y-138626165D01*
X87436617Y-138610620D01*
X87452163Y-138591678D01*
X87463714Y-138570068D01*
X87470828Y-138546619D01*
X87473230Y-138522233D01*
X87470829Y-138497854D01*
X87465000Y-138468547D01*
X87465000Y-138409453D01*
X87470829Y-138380146D01*
X87473230Y-138355771D01*
X87473230Y-138355767D01*
X88056770Y-138355767D01*
X88059171Y-138380146D01*
X88065000Y-138409453D01*
X88065000Y-138468547D01*
X88059171Y-138497854D01*
X88056770Y-138522229D01*
X88059171Y-138546615D01*
X88066284Y-138570064D01*
X88077835Y-138591675D01*
X88093380Y-138610617D01*
X88112322Y-138626163D01*
X88133932Y-138637714D01*
X88157381Y-138644828D01*
X88181767Y-138647230D01*
X88206146Y-138644829D01*
X88235453Y-138639000D01*
X88294547Y-138639000D01*
X88323854Y-138644829D01*
X88348229Y-138647230D01*
X88372615Y-138644829D01*
X88396064Y-138637716D01*
X88417675Y-138626165D01*
X88436617Y-138610620D01*
X88452163Y-138591678D01*
X88463714Y-138570068D01*
X88470828Y-138546619D01*
X88473230Y-138522233D01*
X88470829Y-138497854D01*
X88465000Y-138468547D01*
X88465000Y-138409453D01*
X88470829Y-138380146D01*
X88473230Y-138355771D01*
X88473230Y-138355767D01*
X89056770Y-138355767D01*
X89059171Y-138380146D01*
X89065000Y-138409453D01*
X89065000Y-138468547D01*
X89059171Y-138497854D01*
X89056770Y-138522229D01*
X89059171Y-138546615D01*
X89066284Y-138570064D01*
X89077835Y-138591675D01*
X89093380Y-138610617D01*
X89112322Y-138626163D01*
X89133932Y-138637714D01*
X89157381Y-138644828D01*
X89181767Y-138647230D01*
X89206146Y-138644829D01*
X89235453Y-138639000D01*
X89294547Y-138639000D01*
X89323854Y-138644829D01*
X89348229Y-138647230D01*
X89372615Y-138644829D01*
X89396064Y-138637716D01*
X89417675Y-138626165D01*
X89436617Y-138610620D01*
X89452163Y-138591678D01*
X89463714Y-138570068D01*
X89470828Y-138546619D01*
X89473230Y-138522233D01*
X89470829Y-138497854D01*
X89465000Y-138468547D01*
X89465000Y-138409453D01*
X89470829Y-138380146D01*
X89473230Y-138355771D01*
X89470829Y-138331385D01*
X89463716Y-138307936D01*
X89452165Y-138286325D01*
X89436620Y-138267383D01*
X89417678Y-138251837D01*
X89396068Y-138240286D01*
X89372619Y-138233172D01*
X89348233Y-138230770D01*
X89323854Y-138233171D01*
X89294547Y-138239000D01*
X89235453Y-138239000D01*
X89206146Y-138233171D01*
X89181771Y-138230770D01*
X89157385Y-138233171D01*
X89133936Y-138240284D01*
X89112325Y-138251835D01*
X89093383Y-138267380D01*
X89077837Y-138286322D01*
X89066286Y-138307932D01*
X89059172Y-138331381D01*
X89056770Y-138355767D01*
X88473230Y-138355767D01*
X88470829Y-138331385D01*
X88463716Y-138307936D01*
X88452165Y-138286325D01*
X88436620Y-138267383D01*
X88417678Y-138251837D01*
X88396068Y-138240286D01*
X88372619Y-138233172D01*
X88348233Y-138230770D01*
X88323854Y-138233171D01*
X88294547Y-138239000D01*
X88235453Y-138239000D01*
X88206146Y-138233171D01*
X88181771Y-138230770D01*
X88157385Y-138233171D01*
X88133936Y-138240284D01*
X88112325Y-138251835D01*
X88093383Y-138267380D01*
X88077837Y-138286322D01*
X88066286Y-138307932D01*
X88059172Y-138331381D01*
X88056770Y-138355767D01*
X87473230Y-138355767D01*
X87470829Y-138331385D01*
X87463716Y-138307936D01*
X87452165Y-138286325D01*
X87436620Y-138267383D01*
X87417678Y-138251837D01*
X87396068Y-138240286D01*
X87372619Y-138233172D01*
X87348233Y-138230770D01*
X87323854Y-138233171D01*
X87294547Y-138239000D01*
X87235453Y-138239000D01*
X87206146Y-138233171D01*
X87181771Y-138230770D01*
X87157385Y-138233171D01*
X87133936Y-138240284D01*
X87112325Y-138251835D01*
X87093383Y-138267380D01*
X87077837Y-138286322D01*
X87066286Y-138307932D01*
X87059172Y-138331381D01*
X87056770Y-138355767D01*
X86473230Y-138355767D01*
X86470829Y-138331385D01*
X86463716Y-138307936D01*
X86452165Y-138286325D01*
X86436620Y-138267383D01*
X86417678Y-138251837D01*
X86396068Y-138240286D01*
X86372619Y-138233172D01*
X86348233Y-138230770D01*
X86323854Y-138233171D01*
X86294547Y-138239000D01*
X86235453Y-138239000D01*
X86177493Y-138227472D01*
X86122897Y-138204857D01*
X86073761Y-138172026D01*
X86031974Y-138130239D01*
X85999143Y-138081103D01*
X85976528Y-138026507D01*
X85965000Y-137968547D01*
X85965000Y-137909453D01*
X85975677Y-137855767D01*
X86556770Y-137855767D01*
X86559171Y-137880146D01*
X86565000Y-137909453D01*
X86565000Y-137968547D01*
X86559171Y-137997854D01*
X86556770Y-138022229D01*
X86559171Y-138046615D01*
X86566284Y-138070064D01*
X86577835Y-138091675D01*
X86593380Y-138110617D01*
X86612322Y-138126163D01*
X86633932Y-138137714D01*
X86657381Y-138144828D01*
X86681767Y-138147230D01*
X86706146Y-138144829D01*
X86735453Y-138139000D01*
X86794547Y-138139000D01*
X86823854Y-138144829D01*
X86848229Y-138147230D01*
X86872615Y-138144829D01*
X86896064Y-138137716D01*
X86917675Y-138126165D01*
X86936617Y-138110620D01*
X86952163Y-138091678D01*
X86963714Y-138070068D01*
X86970828Y-138046619D01*
X86973230Y-138022233D01*
X86970829Y-137997854D01*
X86965000Y-137968547D01*
X86965000Y-137909453D01*
X86970829Y-137880146D01*
X86973230Y-137855771D01*
X86973230Y-137855767D01*
X87556770Y-137855767D01*
X87559171Y-137880146D01*
X87565000Y-137909453D01*
X87565000Y-137968547D01*
X87559171Y-137997854D01*
X87556770Y-138022229D01*
X87559171Y-138046615D01*
X87566284Y-138070064D01*
X87577835Y-138091675D01*
X87593380Y-138110617D01*
X87612322Y-138126163D01*
X87633932Y-138137714D01*
X87657381Y-138144828D01*
X87681767Y-138147230D01*
X87706146Y-138144829D01*
X87735453Y-138139000D01*
X87794547Y-138139000D01*
X87823854Y-138144829D01*
X87848229Y-138147230D01*
X87872615Y-138144829D01*
X87896064Y-138137716D01*
X87917675Y-138126165D01*
X87936617Y-138110620D01*
X87952163Y-138091678D01*
X87963714Y-138070068D01*
X87970828Y-138046619D01*
X87973230Y-138022233D01*
X87970829Y-137997854D01*
X87965000Y-137968547D01*
X87965000Y-137909453D01*
X87970829Y-137880146D01*
X87973230Y-137855771D01*
X87973230Y-137855767D01*
X88556770Y-137855767D01*
X88559171Y-137880146D01*
X88565000Y-137909453D01*
X88565000Y-137968547D01*
X88559171Y-137997854D01*
X88556770Y-138022229D01*
X88559171Y-138046615D01*
X88566284Y-138070064D01*
X88577835Y-138091675D01*
X88593380Y-138110617D01*
X88612322Y-138126163D01*
X88633932Y-138137714D01*
X88657381Y-138144828D01*
X88681767Y-138147230D01*
X88706146Y-138144829D01*
X88735453Y-138139000D01*
X88794547Y-138139000D01*
X88823854Y-138144829D01*
X88848229Y-138147230D01*
X88872615Y-138144829D01*
X88896064Y-138137716D01*
X88917675Y-138126165D01*
X88936617Y-138110620D01*
X88952163Y-138091678D01*
X88963714Y-138070068D01*
X88970828Y-138046619D01*
X88973230Y-138022233D01*
X88970829Y-137997854D01*
X88965000Y-137968547D01*
X88965000Y-137909453D01*
X88970829Y-137880146D01*
X88973230Y-137855771D01*
X88973230Y-137855767D01*
X89556770Y-137855767D01*
X89559171Y-137880146D01*
X89565000Y-137909453D01*
X89565000Y-137968547D01*
X89559171Y-137997854D01*
X89556770Y-138022229D01*
X89559171Y-138046615D01*
X89566284Y-138070064D01*
X89577835Y-138091675D01*
X89593380Y-138110617D01*
X89612322Y-138126163D01*
X89633932Y-138137714D01*
X89657381Y-138144828D01*
X89681767Y-138147230D01*
X89706146Y-138144829D01*
X89735453Y-138139000D01*
X89794547Y-138139000D01*
X89823854Y-138144829D01*
X89848229Y-138147230D01*
X89872615Y-138144829D01*
X89896064Y-138137716D01*
X89917675Y-138126165D01*
X89936617Y-138110620D01*
X89952163Y-138091678D01*
X89963714Y-138070068D01*
X89970828Y-138046619D01*
X89973230Y-138022233D01*
X89970829Y-137997854D01*
X89965000Y-137968547D01*
X89965000Y-137909453D01*
X89970829Y-137880146D01*
X89973230Y-137855771D01*
X89970829Y-137831385D01*
X89963716Y-137807936D01*
X89952165Y-137786325D01*
X89936620Y-137767383D01*
X89917678Y-137751837D01*
X89896068Y-137740286D01*
X89872619Y-137733172D01*
X89848233Y-137730770D01*
X89823854Y-137733171D01*
X89794547Y-137739000D01*
X89735453Y-137739000D01*
X89706146Y-137733171D01*
X89681771Y-137730770D01*
X89657385Y-137733171D01*
X89633936Y-137740284D01*
X89612325Y-137751835D01*
X89593383Y-137767380D01*
X89577837Y-137786322D01*
X89566286Y-137807932D01*
X89559172Y-137831381D01*
X89556770Y-137855767D01*
X88973230Y-137855767D01*
X88970829Y-137831385D01*
X88963716Y-137807936D01*
X88952165Y-137786325D01*
X88936620Y-137767383D01*
X88917678Y-137751837D01*
X88896068Y-137740286D01*
X88872619Y-137733172D01*
X88848233Y-137730770D01*
X88823854Y-137733171D01*
X88794547Y-137739000D01*
X88735453Y-137739000D01*
X88706146Y-137733171D01*
X88681771Y-137730770D01*
X88657385Y-137733171D01*
X88633936Y-137740284D01*
X88612325Y-137751835D01*
X88593383Y-137767380D01*
X88577837Y-137786322D01*
X88566286Y-137807932D01*
X88559172Y-137831381D01*
X88556770Y-137855767D01*
X87973230Y-137855767D01*
X87970829Y-137831385D01*
X87963716Y-137807936D01*
X87952165Y-137786325D01*
X87936620Y-137767383D01*
X87917678Y-137751837D01*
X87896068Y-137740286D01*
X87872619Y-137733172D01*
X87848233Y-137730770D01*
X87823854Y-137733171D01*
X87794547Y-137739000D01*
X87735453Y-137739000D01*
X87706146Y-137733171D01*
X87681771Y-137730770D01*
X87657385Y-137733171D01*
X87633936Y-137740284D01*
X87612325Y-137751835D01*
X87593383Y-137767380D01*
X87577837Y-137786322D01*
X87566286Y-137807932D01*
X87559172Y-137831381D01*
X87556770Y-137855767D01*
X86973230Y-137855767D01*
X86970829Y-137831385D01*
X86963716Y-137807936D01*
X86952165Y-137786325D01*
X86936620Y-137767383D01*
X86917678Y-137751837D01*
X86896068Y-137740286D01*
X86872619Y-137733172D01*
X86848233Y-137730770D01*
X86823854Y-137733171D01*
X86794547Y-137739000D01*
X86735453Y-137739000D01*
X86706146Y-137733171D01*
X86681771Y-137730770D01*
X86657385Y-137733171D01*
X86633936Y-137740284D01*
X86612325Y-137751835D01*
X86593383Y-137767380D01*
X86577837Y-137786322D01*
X86566286Y-137807932D01*
X86559172Y-137831381D01*
X86556770Y-137855767D01*
X85975677Y-137855767D01*
X85976528Y-137851493D01*
X85999143Y-137796897D01*
X86031974Y-137747761D01*
X86073761Y-137705974D01*
X86122897Y-137673143D01*
X86177493Y-137650528D01*
X86235453Y-137639000D01*
X86294547Y-137639000D01*
X86323854Y-137644829D01*
X86348229Y-137647230D01*
X86372615Y-137644829D01*
X86396064Y-137637716D01*
X86417675Y-137626165D01*
X86436617Y-137610620D01*
X86452163Y-137591678D01*
X86463714Y-137570068D01*
X86470828Y-137546619D01*
X86473230Y-137522233D01*
X86470829Y-137497854D01*
X86465000Y-137468547D01*
X86465000Y-137409453D01*
X86470829Y-137380146D01*
X86473230Y-137355771D01*
X86473230Y-137355767D01*
X87056770Y-137355767D01*
X87059171Y-137380146D01*
X87065000Y-137409453D01*
X87065000Y-137468547D01*
X87059171Y-137497854D01*
X87056770Y-137522229D01*
X87059171Y-137546615D01*
X87066284Y-137570064D01*
X87077835Y-137591675D01*
X87093380Y-137610617D01*
X87112322Y-137626163D01*
X87133932Y-137637714D01*
X87157381Y-137644828D01*
X87181767Y-137647230D01*
X87206146Y-137644829D01*
X87235453Y-137639000D01*
X87294547Y-137639000D01*
X87323854Y-137644829D01*
X87348229Y-137647230D01*
X87372615Y-137644829D01*
X87396064Y-137637716D01*
X87417675Y-137626165D01*
X87436617Y-137610620D01*
X87452163Y-137591678D01*
X87463714Y-137570068D01*
X87470828Y-137546619D01*
X87473230Y-137522233D01*
X87470829Y-137497854D01*
X87465000Y-137468547D01*
X87465000Y-137409453D01*
X87470829Y-137380146D01*
X87473230Y-137355771D01*
X87473230Y-137355767D01*
X88056770Y-137355767D01*
X88059171Y-137380146D01*
X88065000Y-137409453D01*
X88065000Y-137468547D01*
X88059171Y-137497854D01*
X88056770Y-137522229D01*
X88059171Y-137546615D01*
X88066284Y-137570064D01*
X88077835Y-137591675D01*
X88093380Y-137610617D01*
X88112322Y-137626163D01*
X88133932Y-137637714D01*
X88157381Y-137644828D01*
X88181767Y-137647230D01*
X88206146Y-137644829D01*
X88235453Y-137639000D01*
X88294547Y-137639000D01*
X88323854Y-137644829D01*
X88348229Y-137647230D01*
X88372615Y-137644829D01*
X88396064Y-137637716D01*
X88417675Y-137626165D01*
X88436617Y-137610620D01*
X88452163Y-137591678D01*
X88463714Y-137570068D01*
X88470828Y-137546619D01*
X88473230Y-137522233D01*
X88470829Y-137497854D01*
X88465000Y-137468547D01*
X88465000Y-137409453D01*
X88470829Y-137380146D01*
X88473230Y-137355771D01*
X88473230Y-137355767D01*
X89056770Y-137355767D01*
X89059171Y-137380146D01*
X89065000Y-137409453D01*
X89065000Y-137468547D01*
X89059171Y-137497854D01*
X89056770Y-137522229D01*
X89059171Y-137546615D01*
X89066284Y-137570064D01*
X89077835Y-137591675D01*
X89093380Y-137610617D01*
X89112322Y-137626163D01*
X89133932Y-137637714D01*
X89157381Y-137644828D01*
X89181767Y-137647230D01*
X89206146Y-137644829D01*
X89235453Y-137639000D01*
X89294547Y-137639000D01*
X89323854Y-137644829D01*
X89348229Y-137647230D01*
X89372615Y-137644829D01*
X89396064Y-137637716D01*
X89417675Y-137626165D01*
X89436617Y-137610620D01*
X89452163Y-137591678D01*
X89463714Y-137570068D01*
X89470828Y-137546619D01*
X89473230Y-137522233D01*
X89470829Y-137497854D01*
X89465000Y-137468547D01*
X89465000Y-137409453D01*
X89470829Y-137380146D01*
X89473230Y-137355771D01*
X89470829Y-137331385D01*
X89463716Y-137307936D01*
X89452165Y-137286325D01*
X89436620Y-137267383D01*
X89417678Y-137251837D01*
X89396068Y-137240286D01*
X89372619Y-137233172D01*
X89348233Y-137230770D01*
X89323854Y-137233171D01*
X89294547Y-137239000D01*
X89235453Y-137239000D01*
X89206146Y-137233171D01*
X89181771Y-137230770D01*
X89157385Y-137233171D01*
X89133936Y-137240284D01*
X89112325Y-137251835D01*
X89093383Y-137267380D01*
X89077837Y-137286322D01*
X89066286Y-137307932D01*
X89059172Y-137331381D01*
X89056770Y-137355767D01*
X88473230Y-137355767D01*
X88470829Y-137331385D01*
X88463716Y-137307936D01*
X88452165Y-137286325D01*
X88436620Y-137267383D01*
X88417678Y-137251837D01*
X88396068Y-137240286D01*
X88372619Y-137233172D01*
X88348233Y-137230770D01*
X88323854Y-137233171D01*
X88294547Y-137239000D01*
X88235453Y-137239000D01*
X88206146Y-137233171D01*
X88181771Y-137230770D01*
X88157385Y-137233171D01*
X88133936Y-137240284D01*
X88112325Y-137251835D01*
X88093383Y-137267380D01*
X88077837Y-137286322D01*
X88066286Y-137307932D01*
X88059172Y-137331381D01*
X88056770Y-137355767D01*
X87473230Y-137355767D01*
X87470829Y-137331385D01*
X87463716Y-137307936D01*
X87452165Y-137286325D01*
X87436620Y-137267383D01*
X87417678Y-137251837D01*
X87396068Y-137240286D01*
X87372619Y-137233172D01*
X87348233Y-137230770D01*
X87323854Y-137233171D01*
X87294547Y-137239000D01*
X87235453Y-137239000D01*
X87206146Y-137233171D01*
X87181771Y-137230770D01*
X87157385Y-137233171D01*
X87133936Y-137240284D01*
X87112325Y-137251835D01*
X87093383Y-137267380D01*
X87077837Y-137286322D01*
X87066286Y-137307932D01*
X87059172Y-137331381D01*
X87056770Y-137355767D01*
X86473230Y-137355767D01*
X86470829Y-137331385D01*
X86463716Y-137307936D01*
X86452165Y-137286325D01*
X86436620Y-137267383D01*
X86417678Y-137251837D01*
X86396068Y-137240286D01*
X86372619Y-137233172D01*
X86348233Y-137230770D01*
X86323854Y-137233171D01*
X86294547Y-137239000D01*
X86235453Y-137239000D01*
X86177493Y-137227472D01*
X86122897Y-137204857D01*
X86073761Y-137172026D01*
X86031974Y-137130239D01*
X85999143Y-137081103D01*
X85976528Y-137026507D01*
X85965000Y-136968547D01*
X85965000Y-136909453D01*
X85976528Y-136851493D01*
X85999143Y-136796897D01*
X86031974Y-136747761D01*
X86073761Y-136705974D01*
X86122897Y-136673143D01*
X86177493Y-136650528D01*
X86235453Y-136639000D01*
X86294547Y-136639000D01*
X86352507Y-136650528D01*
G37*
G36*
X78515000Y-139039000D02*
G01*
X74015000Y-139039000D01*
X74015000Y-136839000D01*
X78515000Y-136839000D01*
X78515000Y-139039000D01*
G37*
G36*
X101452686Y-137411708D02*
G01*
X101520932Y-137439977D01*
X101563688Y-137468546D01*
X101582351Y-137481016D01*
X101634584Y-137533249D01*
X101675624Y-137594670D01*
X101682231Y-137610620D01*
X101703892Y-137662914D01*
X101718303Y-137735363D01*
X101718303Y-137809231D01*
X101703892Y-137881680D01*
X101675623Y-137949926D01*
X101634584Y-138011345D01*
X101582351Y-138063578D01*
X101520932Y-138104617D01*
X101520931Y-138104618D01*
X101520930Y-138104618D01*
X101452686Y-138132886D01*
X101380237Y-138147297D01*
X101306369Y-138147297D01*
X101233920Y-138132886D01*
X101165676Y-138104618D01*
X101165675Y-138104618D01*
X101165674Y-138104617D01*
X101104255Y-138063578D01*
X101052022Y-138011345D01*
X101010983Y-137949926D01*
X100982714Y-137881680D01*
X100968303Y-137809231D01*
X100968303Y-137735363D01*
X100982714Y-137662914D01*
X101004375Y-137610620D01*
X101010982Y-137594670D01*
X101052022Y-137533249D01*
X101104255Y-137481016D01*
X101122918Y-137468546D01*
X101165674Y-137439977D01*
X101233920Y-137411708D01*
X101306369Y-137397297D01*
X101380237Y-137397297D01*
X101452686Y-137411708D01*
G37*
G36*
X99532200Y-137875800D02*
G01*
X98232200Y-137875800D01*
X98232200Y-137175800D01*
X99532200Y-137175800D01*
X99532200Y-137875800D01*
G37*
G36*
X103433400Y-136616200D02*
G01*
X102733400Y-136616200D01*
X102733400Y-135316200D01*
X103433400Y-135316200D01*
X103433400Y-136616200D01*
G37*
G36*
X101533400Y-136616200D02*
G01*
X100833400Y-136616200D01*
X100833400Y-135316200D01*
X101533400Y-135316200D01*
X101533400Y-136616200D01*
G37*
G36*
X109427800Y-136616200D02*
G01*
X108727800Y-136616200D01*
X108727800Y-135316200D01*
X109427800Y-135316200D01*
X109427800Y-136616200D01*
G37*
G36*
X107527800Y-136616200D02*
G01*
X106827800Y-136616200D01*
X106827800Y-135316200D01*
X107527800Y-135316200D01*
X107527800Y-136616200D01*
G37*
G36*
X99532200Y-135975800D02*
G01*
X98232200Y-135975800D01*
X98232200Y-135275800D01*
X99532200Y-135275800D01*
X99532200Y-135975800D01*
G37*
G36*
X144466703Y-132461486D02*
G01*
X144757883Y-132582097D01*
X145019940Y-132757198D01*
X145242802Y-132980060D01*
X145417903Y-133242117D01*
X145538514Y-133533297D01*
X145600000Y-133842412D01*
X145600000Y-134157588D01*
X145538514Y-134466703D01*
X145417903Y-134757883D01*
X145242802Y-135019940D01*
X145019940Y-135242802D01*
X144757883Y-135417903D01*
X144466703Y-135538514D01*
X144157588Y-135600000D01*
X143842412Y-135600000D01*
X143533297Y-135538514D01*
X143242117Y-135417903D01*
X142980060Y-135242802D01*
X142757198Y-135019940D01*
X142582097Y-134757883D01*
X142461486Y-134466703D01*
X142400000Y-134157588D01*
X142400000Y-133842412D01*
X142461486Y-133533297D01*
X142582097Y-133242117D01*
X142757198Y-132980060D01*
X142980060Y-132757198D01*
X143242117Y-132582097D01*
X143533297Y-132461486D01*
X143842412Y-132400000D01*
X144157588Y-132400000D01*
X144466703Y-132461486D01*
G37*
G36*
X56466703Y-132461486D02*
G01*
X56757883Y-132582097D01*
X57019940Y-132757198D01*
X57242802Y-132980060D01*
X57417903Y-133242117D01*
X57538514Y-133533297D01*
X57600000Y-133842412D01*
X57600000Y-134157588D01*
X57538514Y-134466703D01*
X57417903Y-134757883D01*
X57242802Y-135019940D01*
X57019940Y-135242802D01*
X56757883Y-135417903D01*
X56466703Y-135538514D01*
X56157588Y-135600000D01*
X55842412Y-135600000D01*
X55533297Y-135538514D01*
X55242117Y-135417903D01*
X54980060Y-135242802D01*
X54757198Y-135019940D01*
X54582097Y-134757883D01*
X54461486Y-134466703D01*
X54400000Y-134157588D01*
X54400000Y-133842412D01*
X54461486Y-133533297D01*
X54582097Y-133242117D01*
X54757198Y-132980060D01*
X54980060Y-132757198D01*
X55242117Y-132582097D01*
X55533297Y-132461486D01*
X55842412Y-132400000D01*
X56157588Y-132400000D01*
X56466703Y-132461486D01*
G37*
G36*
X78515000Y-134039000D02*
G01*
X74015000Y-134039000D01*
X74015000Y-131839000D01*
X78515000Y-131839000D01*
X78515000Y-134039000D01*
G37*
G36*
X147247764Y-128754402D02*
G01*
X147370445Y-128778805D01*
X147481059Y-128824623D01*
X147597663Y-128872922D01*
X147601571Y-128874541D01*
X147667236Y-128918417D01*
X147780636Y-128994188D01*
X147809578Y-129013527D01*
X147986473Y-129190422D01*
X148125459Y-129398429D01*
X148221195Y-129629555D01*
X148270000Y-129874916D01*
X148270000Y-130125084D01*
X148221195Y-130370445D01*
X148125459Y-130601571D01*
X147986473Y-130809578D01*
X147809578Y-130986473D01*
X147601571Y-131125459D01*
X147370445Y-131221195D01*
X147247764Y-131245598D01*
X147125085Y-131270000D01*
X146874915Y-131270000D01*
X146752236Y-131245598D01*
X146629555Y-131221195D01*
X146398429Y-131125459D01*
X146190422Y-130986473D01*
X146013527Y-130809578D01*
X145874541Y-130601571D01*
X145778805Y-130370445D01*
X145730000Y-130125084D01*
X145730000Y-129874916D01*
X145778805Y-129629555D01*
X145874541Y-129398429D01*
X146013527Y-129190422D01*
X146190422Y-129013527D01*
X146219365Y-128994188D01*
X146332764Y-128918417D01*
X146398429Y-128874541D01*
X146402338Y-128872922D01*
X146518941Y-128824623D01*
X146629555Y-128778805D01*
X146752236Y-128754402D01*
X146874915Y-128730000D01*
X147125085Y-128730000D01*
X147247764Y-128754402D01*
G37*
G36*
X53247764Y-128754402D02*
G01*
X53370445Y-128778805D01*
X53481059Y-128824623D01*
X53597663Y-128872922D01*
X53601571Y-128874541D01*
X53667236Y-128918417D01*
X53780636Y-128994188D01*
X53809578Y-129013527D01*
X53986473Y-129190422D01*
X54125459Y-129398429D01*
X54221195Y-129629555D01*
X54270000Y-129874916D01*
X54270000Y-130125084D01*
X54221195Y-130370445D01*
X54125459Y-130601571D01*
X53986473Y-130809578D01*
X53809578Y-130986473D01*
X53601571Y-131125459D01*
X53370445Y-131221195D01*
X53247764Y-131245598D01*
X53125085Y-131270000D01*
X52874915Y-131270000D01*
X52752236Y-131245598D01*
X52629555Y-131221195D01*
X52398429Y-131125459D01*
X52190422Y-130986473D01*
X52013527Y-130809578D01*
X51874541Y-130601571D01*
X51778805Y-130370445D01*
X51730000Y-130125084D01*
X51730000Y-129874916D01*
X51778805Y-129629555D01*
X51874541Y-129398429D01*
X52013527Y-129190422D01*
X52190422Y-129013527D01*
X52219365Y-128994188D01*
X52332764Y-128918417D01*
X52398429Y-128874541D01*
X52402338Y-128872922D01*
X52518941Y-128824623D01*
X52629555Y-128778805D01*
X52752236Y-128754402D01*
X52874915Y-128730000D01*
X53125085Y-128730000D01*
X53247764Y-128754402D01*
G37*
G36*
X49772923Y-130159607D02*
G01*
X49801611Y-130171491D01*
X49818420Y-130178453D01*
X49859366Y-130205812D01*
X49894188Y-130240634D01*
X49921547Y-130281580D01*
X49940393Y-130327078D01*
X49950000Y-130375377D01*
X49950000Y-130424623D01*
X49940393Y-130472922D01*
X49921547Y-130518420D01*
X49894188Y-130559366D01*
X49859366Y-130594188D01*
X49818420Y-130621547D01*
X49801611Y-130628509D01*
X49772923Y-130640393D01*
X49724624Y-130650000D01*
X49675376Y-130650000D01*
X49627077Y-130640393D01*
X49598389Y-130628509D01*
X49581580Y-130621547D01*
X49540634Y-130594188D01*
X49505812Y-130559366D01*
X49478453Y-130518420D01*
X49459607Y-130472922D01*
X49450000Y-130424623D01*
X49450000Y-130375377D01*
X49459607Y-130327078D01*
X49478453Y-130281580D01*
X49505812Y-130240634D01*
X49540634Y-130205812D01*
X49581580Y-130178453D01*
X49598389Y-130171491D01*
X49627077Y-130159607D01*
X49675376Y-130150000D01*
X49724624Y-130150000D01*
X49772923Y-130159607D01*
G37*
G36*
X150372923Y-130159607D02*
G01*
X150401611Y-130171491D01*
X150418420Y-130178453D01*
X150459366Y-130205812D01*
X150494188Y-130240634D01*
X150521547Y-130281580D01*
X150540393Y-130327078D01*
X150550000Y-130375377D01*
X150550000Y-130424623D01*
X150540393Y-130472922D01*
X150521547Y-130518420D01*
X150494188Y-130559366D01*
X150459366Y-130594188D01*
X150418420Y-130621547D01*
X150401611Y-130628509D01*
X150372923Y-130640393D01*
X150324624Y-130650000D01*
X150275376Y-130650000D01*
X150227077Y-130640393D01*
X150198389Y-130628509D01*
X150181580Y-130621547D01*
X150140634Y-130594188D01*
X150105812Y-130559366D01*
X150078453Y-130518420D01*
X150059607Y-130472922D01*
X150050000Y-130424623D01*
X150050000Y-130375377D01*
X150059607Y-130327078D01*
X150078453Y-130281580D01*
X150105812Y-130240634D01*
X150140634Y-130205812D01*
X150181580Y-130178453D01*
X150198389Y-130171491D01*
X150227077Y-130159607D01*
X150275376Y-130150000D01*
X150324624Y-130150000D01*
X150372923Y-130159607D01*
G37*
G36*
X49772923Y-129359607D02*
G01*
X49801611Y-129371491D01*
X49818420Y-129378453D01*
X49859366Y-129405812D01*
X49894188Y-129440634D01*
X49921547Y-129481580D01*
X49940393Y-129527078D01*
X49950000Y-129575377D01*
X49950000Y-129624623D01*
X49940393Y-129672922D01*
X49921547Y-129718420D01*
X49894188Y-129759366D01*
X49859366Y-129794188D01*
X49818420Y-129821547D01*
X49801611Y-129828509D01*
X49772923Y-129840393D01*
X49724624Y-129850000D01*
X49675376Y-129850000D01*
X49627077Y-129840393D01*
X49598389Y-129828509D01*
X49581580Y-129821547D01*
X49540634Y-129794188D01*
X49505812Y-129759366D01*
X49478453Y-129718420D01*
X49459607Y-129672922D01*
X49450000Y-129624623D01*
X49450000Y-129575377D01*
X49459607Y-129527078D01*
X49478453Y-129481580D01*
X49505812Y-129440634D01*
X49540634Y-129405812D01*
X49581580Y-129378453D01*
X49598389Y-129371491D01*
X49627077Y-129359607D01*
X49675376Y-129350000D01*
X49724624Y-129350000D01*
X49772923Y-129359607D01*
G37*
G36*
X150372923Y-129359607D02*
G01*
X150401611Y-129371491D01*
X150418420Y-129378453D01*
X150459366Y-129405812D01*
X150494188Y-129440634D01*
X150521547Y-129481580D01*
X150540393Y-129527078D01*
X150550000Y-129575377D01*
X150550000Y-129624623D01*
X150540393Y-129672922D01*
X150521547Y-129718420D01*
X150494188Y-129759366D01*
X150459366Y-129794188D01*
X150418420Y-129821547D01*
X150401611Y-129828509D01*
X150372923Y-129840393D01*
X150324624Y-129850000D01*
X150275376Y-129850000D01*
X150227077Y-129840393D01*
X150198389Y-129828509D01*
X150181580Y-129821547D01*
X150140634Y-129794188D01*
X150105812Y-129759366D01*
X150078453Y-129718420D01*
X150059607Y-129672922D01*
X150050000Y-129624623D01*
X150050000Y-129575377D01*
X150059607Y-129527078D01*
X150078453Y-129481580D01*
X150105812Y-129440634D01*
X150140634Y-129405812D01*
X150181580Y-129378453D01*
X150198389Y-129371491D01*
X150227077Y-129359607D01*
X150275376Y-129350000D01*
X150324624Y-129350000D01*
X150372923Y-129359607D01*
G37*
G36*
X150372923Y-128559607D02*
G01*
X150401611Y-128571491D01*
X150418420Y-128578453D01*
X150459366Y-128605812D01*
X150494188Y-128640634D01*
X150521547Y-128681580D01*
X150521548Y-128681583D01*
X150540393Y-128727077D01*
X150550000Y-128775376D01*
X150550000Y-128824624D01*
X150540393Y-128872923D01*
X150528509Y-128901611D01*
X150521547Y-128918420D01*
X150494188Y-128959366D01*
X150459366Y-128994188D01*
X150418420Y-129021547D01*
X150401611Y-129028509D01*
X150372923Y-129040393D01*
X150324624Y-129050000D01*
X150275376Y-129050000D01*
X150227077Y-129040393D01*
X150198389Y-129028509D01*
X150181580Y-129021547D01*
X150140634Y-128994188D01*
X150105812Y-128959366D01*
X150078453Y-128918420D01*
X150071491Y-128901611D01*
X150059607Y-128872923D01*
X150050000Y-128824624D01*
X150050000Y-128775376D01*
X150059607Y-128727077D01*
X150078452Y-128681583D01*
X150078453Y-128681580D01*
X150105812Y-128640634D01*
X150140634Y-128605812D01*
X150181580Y-128578453D01*
X150198389Y-128571491D01*
X150227077Y-128559607D01*
X150275376Y-128550000D01*
X150324624Y-128550000D01*
X150372923Y-128559607D01*
G37*
G36*
X49772923Y-128559607D02*
G01*
X49801611Y-128571491D01*
X49818420Y-128578453D01*
X49859366Y-128605812D01*
X49894188Y-128640634D01*
X49921547Y-128681580D01*
X49921548Y-128681583D01*
X49940393Y-128727077D01*
X49950000Y-128775376D01*
X49950000Y-128824624D01*
X49940393Y-128872923D01*
X49928509Y-128901611D01*
X49921547Y-128918420D01*
X49894188Y-128959366D01*
X49859366Y-128994188D01*
X49818420Y-129021547D01*
X49801611Y-129028509D01*
X49772923Y-129040393D01*
X49724624Y-129050000D01*
X49675376Y-129050000D01*
X49627077Y-129040393D01*
X49598389Y-129028509D01*
X49581580Y-129021547D01*
X49540634Y-128994188D01*
X49505812Y-128959366D01*
X49478453Y-128918420D01*
X49471491Y-128901611D01*
X49459607Y-128872923D01*
X49450000Y-128824624D01*
X49450000Y-128775376D01*
X49459607Y-128727077D01*
X49478452Y-128681583D01*
X49478453Y-128681580D01*
X49505812Y-128640634D01*
X49540634Y-128605812D01*
X49581580Y-128578453D01*
X49598389Y-128571491D01*
X49627077Y-128559607D01*
X49675376Y-128550000D01*
X49724624Y-128550000D01*
X49772923Y-128559607D01*
G37*
G36*
X49772923Y-127759607D02*
G01*
X49801611Y-127771491D01*
X49818420Y-127778453D01*
X49859366Y-127805812D01*
X49894188Y-127840634D01*
X49921547Y-127881580D01*
X49940393Y-127927078D01*
X49950000Y-127975377D01*
X49950000Y-128024623D01*
X49940393Y-128072922D01*
X49921547Y-128118420D01*
X49894188Y-128159366D01*
X49859366Y-128194188D01*
X49818420Y-128221547D01*
X49801611Y-128228509D01*
X49772923Y-128240393D01*
X49724624Y-128250000D01*
X49675376Y-128250000D01*
X49627077Y-128240393D01*
X49598389Y-128228509D01*
X49581580Y-128221547D01*
X49540634Y-128194188D01*
X49505812Y-128159366D01*
X49478453Y-128118420D01*
X49459607Y-128072922D01*
X49450000Y-128024623D01*
X49450000Y-127975377D01*
X49459607Y-127927078D01*
X49478453Y-127881580D01*
X49505812Y-127840634D01*
X49540634Y-127805812D01*
X49581580Y-127778453D01*
X49598389Y-127771491D01*
X49627077Y-127759607D01*
X49675376Y-127750000D01*
X49724624Y-127750000D01*
X49772923Y-127759607D01*
G37*
G36*
X150372923Y-127759607D02*
G01*
X150401611Y-127771491D01*
X150418420Y-127778453D01*
X150459366Y-127805812D01*
X150494188Y-127840634D01*
X150521547Y-127881580D01*
X150540393Y-127927078D01*
X150550000Y-127975377D01*
X150550000Y-128024623D01*
X150540393Y-128072922D01*
X150521547Y-128118420D01*
X150494188Y-128159366D01*
X150459366Y-128194188D01*
X150418420Y-128221547D01*
X150401611Y-128228509D01*
X150372923Y-128240393D01*
X150324624Y-128250000D01*
X150275376Y-128250000D01*
X150227077Y-128240393D01*
X150198389Y-128228509D01*
X150181580Y-128221547D01*
X150140634Y-128194188D01*
X150105812Y-128159366D01*
X150078453Y-128118420D01*
X150059607Y-128072922D01*
X150050000Y-128024623D01*
X150050000Y-127975377D01*
X150059607Y-127927078D01*
X150078453Y-127881580D01*
X150105812Y-127840634D01*
X150140634Y-127805812D01*
X150181580Y-127778453D01*
X150198389Y-127771491D01*
X150227077Y-127759607D01*
X150275376Y-127750000D01*
X150324624Y-127750000D01*
X150372923Y-127759607D01*
G37*
G36*
X150372923Y-126959607D02*
G01*
X150401611Y-126971491D01*
X150418420Y-126978453D01*
X150459366Y-127005812D01*
X150494188Y-127040634D01*
X150521547Y-127081580D01*
X150540393Y-127127078D01*
X150550000Y-127175377D01*
X150550000Y-127224623D01*
X150540393Y-127272922D01*
X150521547Y-127318420D01*
X150494188Y-127359366D01*
X150459366Y-127394188D01*
X150418420Y-127421547D01*
X150401611Y-127428509D01*
X150372923Y-127440393D01*
X150324624Y-127450000D01*
X150275376Y-127450000D01*
X150227077Y-127440393D01*
X150198389Y-127428509D01*
X150181580Y-127421547D01*
X150140634Y-127394188D01*
X150105812Y-127359366D01*
X150078453Y-127318420D01*
X150059607Y-127272922D01*
X150050000Y-127224623D01*
X150050000Y-127175377D01*
X150059607Y-127127078D01*
X150078453Y-127081580D01*
X150105812Y-127040634D01*
X150140634Y-127005812D01*
X150181580Y-126978453D01*
X150198389Y-126971491D01*
X150227077Y-126959607D01*
X150275376Y-126950000D01*
X150324624Y-126950000D01*
X150372923Y-126959607D01*
G37*
G36*
X49772923Y-126959607D02*
G01*
X49801611Y-126971491D01*
X49818420Y-126978453D01*
X49859366Y-127005812D01*
X49894188Y-127040634D01*
X49921547Y-127081580D01*
X49940393Y-127127078D01*
X49950000Y-127175377D01*
X49950000Y-127224623D01*
X49940393Y-127272922D01*
X49921547Y-127318420D01*
X49894188Y-127359366D01*
X49859366Y-127394188D01*
X49818420Y-127421547D01*
X49801611Y-127428509D01*
X49772923Y-127440393D01*
X49724624Y-127450000D01*
X49675376Y-127450000D01*
X49627077Y-127440393D01*
X49598389Y-127428509D01*
X49581580Y-127421547D01*
X49540634Y-127394188D01*
X49505812Y-127359366D01*
X49478453Y-127318420D01*
X49459607Y-127272922D01*
X49450000Y-127224623D01*
X49450000Y-127175377D01*
X49459607Y-127127078D01*
X49478453Y-127081580D01*
X49505812Y-127040634D01*
X49540634Y-127005812D01*
X49581580Y-126978453D01*
X49598389Y-126971491D01*
X49627077Y-126959607D01*
X49675376Y-126950000D01*
X49724624Y-126950000D01*
X49772923Y-126959607D01*
G37*
G36*
X49772923Y-126159607D02*
G01*
X49801611Y-126171491D01*
X49818420Y-126178453D01*
X49859366Y-126205812D01*
X49894188Y-126240634D01*
X49921547Y-126281580D01*
X49940393Y-126327078D01*
X49950000Y-126375377D01*
X49950000Y-126424623D01*
X49940393Y-126472922D01*
X49921547Y-126518420D01*
X49894188Y-126559366D01*
X49859366Y-126594188D01*
X49818420Y-126621547D01*
X49801611Y-126628509D01*
X49772923Y-126640393D01*
X49724624Y-126650000D01*
X49675376Y-126650000D01*
X49627077Y-126640393D01*
X49598389Y-126628509D01*
X49581580Y-126621547D01*
X49540634Y-126594188D01*
X49505812Y-126559366D01*
X49478453Y-126518420D01*
X49459607Y-126472922D01*
X49450000Y-126424623D01*
X49450000Y-126375377D01*
X49459607Y-126327078D01*
X49478453Y-126281580D01*
X49505812Y-126240634D01*
X49540634Y-126205812D01*
X49581580Y-126178453D01*
X49598389Y-126171491D01*
X49627077Y-126159607D01*
X49675376Y-126150000D01*
X49724624Y-126150000D01*
X49772923Y-126159607D01*
G37*
G36*
X150372923Y-126159607D02*
G01*
X150401611Y-126171491D01*
X150418420Y-126178453D01*
X150459366Y-126205812D01*
X150494188Y-126240634D01*
X150521547Y-126281580D01*
X150540393Y-126327078D01*
X150550000Y-126375377D01*
X150550000Y-126424623D01*
X150540393Y-126472922D01*
X150521547Y-126518420D01*
X150494188Y-126559366D01*
X150459366Y-126594188D01*
X150418420Y-126621547D01*
X150401611Y-126628509D01*
X150372923Y-126640393D01*
X150324624Y-126650000D01*
X150275376Y-126650000D01*
X150227077Y-126640393D01*
X150198389Y-126628509D01*
X150181580Y-126621547D01*
X150140634Y-126594188D01*
X150105812Y-126559366D01*
X150078453Y-126518420D01*
X150059607Y-126472922D01*
X150050000Y-126424623D01*
X150050000Y-126375377D01*
X150059607Y-126327078D01*
X150078453Y-126281580D01*
X150105812Y-126240634D01*
X150140634Y-126205812D01*
X150181580Y-126178453D01*
X150198389Y-126171491D01*
X150227077Y-126159607D01*
X150275376Y-126150000D01*
X150324624Y-126150000D01*
X150372923Y-126159607D01*
G37*
G36*
X102793779Y-122101879D02*
G01*
X103039463Y-122203645D01*
X103039465Y-122203646D01*
X103150769Y-122278017D01*
X103260574Y-122351386D01*
X103448614Y-122539426D01*
X103596355Y-122760537D01*
X103698121Y-123006221D01*
X103750000Y-123267035D01*
X103750000Y-123532965D01*
X103698121Y-123793779D01*
X103596355Y-124039463D01*
X103596354Y-124039465D01*
X103448613Y-124260575D01*
X103260575Y-124448613D01*
X103039465Y-124596354D01*
X103039464Y-124596355D01*
X103039463Y-124596355D01*
X102793779Y-124698121D01*
X102532965Y-124750000D01*
X102267035Y-124750000D01*
X102006221Y-124698121D01*
X101760537Y-124596355D01*
X101760536Y-124596355D01*
X101760535Y-124596354D01*
X101539425Y-124448613D01*
X101351387Y-124260575D01*
X101203646Y-124039465D01*
X101203645Y-124039463D01*
X101101879Y-123793779D01*
X101050000Y-123532965D01*
X101050000Y-123267035D01*
X101101879Y-123006221D01*
X101203645Y-122760537D01*
X101351386Y-122539426D01*
X101539426Y-122351386D01*
X101649231Y-122278017D01*
X101760535Y-122203646D01*
X101760537Y-122203645D01*
X102006221Y-122101879D01*
X102267035Y-122050000D01*
X102532965Y-122050000D01*
X102793779Y-122101879D01*
G37*
G36*
X57293779Y-122101879D02*
G01*
X57539463Y-122203645D01*
X57539465Y-122203646D01*
X57650769Y-122278017D01*
X57760574Y-122351386D01*
X57948614Y-122539426D01*
X58096355Y-122760537D01*
X58198121Y-123006221D01*
X58250000Y-123267035D01*
X58250000Y-123532965D01*
X58198121Y-123793779D01*
X58096355Y-124039463D01*
X58096354Y-124039465D01*
X57948613Y-124260575D01*
X57760575Y-124448613D01*
X57539465Y-124596354D01*
X57539464Y-124596355D01*
X57539463Y-124596355D01*
X57293779Y-124698121D01*
X57032965Y-124750000D01*
X56767035Y-124750000D01*
X56506221Y-124698121D01*
X56260537Y-124596355D01*
X56260536Y-124596355D01*
X56260535Y-124596354D01*
X56039425Y-124448613D01*
X55851387Y-124260575D01*
X55703646Y-124039465D01*
X55703645Y-124039463D01*
X55601879Y-123793779D01*
X55550000Y-123532965D01*
X55550000Y-123267035D01*
X55601879Y-123006221D01*
X55703645Y-122760537D01*
X55851386Y-122539426D01*
X56039426Y-122351386D01*
X56149231Y-122278017D01*
X56260535Y-122203646D01*
X56260537Y-122203645D01*
X56506221Y-122101879D01*
X56767035Y-122050000D01*
X57032965Y-122050000D01*
X57293779Y-122101879D01*
G37*
G36*
X143493779Y-122101879D02*
G01*
X143739463Y-122203645D01*
X143739465Y-122203646D01*
X143850769Y-122278017D01*
X143960574Y-122351386D01*
X144148614Y-122539426D01*
X144296355Y-122760537D01*
X144398121Y-123006221D01*
X144450000Y-123267035D01*
X144450000Y-123532965D01*
X144398121Y-123793779D01*
X144296355Y-124039463D01*
X144296354Y-124039465D01*
X144148613Y-124260575D01*
X143960575Y-124448613D01*
X143739465Y-124596354D01*
X143739464Y-124596355D01*
X143739463Y-124596355D01*
X143493779Y-124698121D01*
X143232965Y-124750000D01*
X142967035Y-124750000D01*
X142706221Y-124698121D01*
X142460537Y-124596355D01*
X142460536Y-124596355D01*
X142460535Y-124596354D01*
X142239425Y-124448613D01*
X142051387Y-124260575D01*
X141903646Y-124039465D01*
X141903645Y-124039463D01*
X141801879Y-123793779D01*
X141750000Y-123532965D01*
X141750000Y-123267035D01*
X141801879Y-123006221D01*
X141903645Y-122760537D01*
X142051386Y-122539426D01*
X142239426Y-122351386D01*
X142349231Y-122278017D01*
X142460535Y-122203646D01*
X142460537Y-122203645D01*
X142706221Y-122101879D01*
X142967035Y-122050000D01*
X143232965Y-122050000D01*
X143493779Y-122101879D01*
G37*
G36*
X114974570Y-86526570D02*
G01*
X113473430Y-86526570D01*
X113473430Y-85025430D01*
X114974570Y-85025430D01*
X114974570Y-86526570D01*
G37*
G36*
X92950000Y-79650000D02*
G01*
X90950000Y-79650000D01*
X90950000Y-78350000D01*
X92950000Y-78350000D01*
X92950000Y-79650000D01*
G37*
G36*
X109050000Y-79650000D02*
G01*
X107050000Y-79650000D01*
X107050000Y-78350000D01*
X109050000Y-78350000D01*
X109050000Y-79650000D01*
G37*
G36*
X65195570Y-79287570D02*
G01*
X63694430Y-79287570D01*
X63694430Y-77786430D01*
X65195570Y-77786430D01*
X65195570Y-79287570D01*
G37*
G36*
X62015570Y-79287570D02*
G01*
X60514430Y-79287570D01*
X60514430Y-77786430D01*
X62015570Y-77786430D01*
X62015570Y-79287570D01*
G37*
G36*
X75860000Y-79275000D02*
G01*
X74610000Y-79275000D01*
X74610000Y-78275000D01*
X75860000Y-78275000D01*
X75860000Y-79275000D01*
G37*
G36*
X78442116Y-78319595D02*
G01*
X78471311Y-78328452D01*
X78498223Y-78342837D01*
X78521808Y-78362192D01*
X78541163Y-78385777D01*
X78555548Y-78412689D01*
X78564405Y-78441884D01*
X78568000Y-78478390D01*
X78568000Y-79103610D01*
X78564405Y-79140116D01*
X78555548Y-79169311D01*
X78541163Y-79196223D01*
X78521808Y-79219808D01*
X78498223Y-79239163D01*
X78471311Y-79253548D01*
X78442116Y-79262405D01*
X78405610Y-79266000D01*
X77855390Y-79266000D01*
X77818884Y-79262405D01*
X77789689Y-79253548D01*
X77762777Y-79239163D01*
X77739192Y-79219808D01*
X77719837Y-79196223D01*
X77705452Y-79169311D01*
X77696595Y-79140116D01*
X77693000Y-79103610D01*
X77693000Y-78478390D01*
X77696595Y-78441884D01*
X77705452Y-78412689D01*
X77719837Y-78385777D01*
X77739192Y-78362192D01*
X77762777Y-78342837D01*
X77789689Y-78328452D01*
X77818884Y-78319595D01*
X77855390Y-78316000D01*
X78405610Y-78316000D01*
X78442116Y-78319595D01*
G37*
G36*
X80017116Y-78319595D02*
G01*
X80046311Y-78328452D01*
X80073223Y-78342837D01*
X80096808Y-78362192D01*
X80116163Y-78385777D01*
X80130548Y-78412689D01*
X80139405Y-78441884D01*
X80143000Y-78478390D01*
X80143000Y-79103610D01*
X80139405Y-79140116D01*
X80130548Y-79169311D01*
X80116163Y-79196223D01*
X80096808Y-79219808D01*
X80073223Y-79239163D01*
X80046311Y-79253548D01*
X80017116Y-79262405D01*
X79980610Y-79266000D01*
X79430390Y-79266000D01*
X79393884Y-79262405D01*
X79364689Y-79253548D01*
X79337777Y-79239163D01*
X79314192Y-79219808D01*
X79294837Y-79196223D01*
X79280452Y-79169311D01*
X79271595Y-79140116D01*
X79268000Y-79103610D01*
X79268000Y-78478390D01*
X79271595Y-78441884D01*
X79280452Y-78412689D01*
X79294837Y-78385777D01*
X79314192Y-78362192D01*
X79337777Y-78342837D01*
X79364689Y-78328452D01*
X79393884Y-78319595D01*
X79430390Y-78316000D01*
X79980610Y-78316000D01*
X80017116Y-78319595D01*
G37*
G36*
X81617116Y-77430595D02*
G01*
X81646311Y-77439452D01*
X81673223Y-77453837D01*
X81696808Y-77473192D01*
X81716163Y-77496777D01*
X81730548Y-77523689D01*
X81739405Y-77552884D01*
X81743000Y-77589390D01*
X81743000Y-78214610D01*
X81739405Y-78251116D01*
X81730548Y-78280311D01*
X81716163Y-78307223D01*
X81696808Y-78330808D01*
X81673223Y-78350163D01*
X81646311Y-78364548D01*
X81617116Y-78373405D01*
X81580610Y-78377000D01*
X81030390Y-78377000D01*
X80993884Y-78373405D01*
X80964689Y-78364548D01*
X80937777Y-78350163D01*
X80914192Y-78330808D01*
X80894837Y-78307223D01*
X80880452Y-78280311D01*
X80871595Y-78251116D01*
X80868000Y-78214610D01*
X80868000Y-77589390D01*
X80871595Y-77552884D01*
X80880452Y-77523689D01*
X80894837Y-77496777D01*
X80914192Y-77473192D01*
X80937777Y-77453837D01*
X80964689Y-77439452D01*
X80993884Y-77430595D01*
X81030390Y-77427000D01*
X81580610Y-77427000D01*
X81617116Y-77430595D01*
G37*
G36*
X83192116Y-77430595D02*
G01*
X83221311Y-77439452D01*
X83248223Y-77453837D01*
X83271808Y-77473192D01*
X83291163Y-77496777D01*
X83305548Y-77523689D01*
X83314405Y-77552884D01*
X83318000Y-77589390D01*
X83318000Y-78214610D01*
X83314405Y-78251116D01*
X83305548Y-78280311D01*
X83291163Y-78307223D01*
X83271808Y-78330808D01*
X83248223Y-78350163D01*
X83221311Y-78364548D01*
X83192116Y-78373405D01*
X83155610Y-78377000D01*
X82605390Y-78377000D01*
X82568884Y-78373405D01*
X82539689Y-78364548D01*
X82512777Y-78350163D01*
X82489192Y-78330808D01*
X82469837Y-78307223D01*
X82455452Y-78280311D01*
X82446595Y-78251116D01*
X82443000Y-78214610D01*
X82443000Y-77589390D01*
X82446595Y-77552884D01*
X82455452Y-77523689D01*
X82469837Y-77496777D01*
X82489192Y-77473192D01*
X82512777Y-77453837D01*
X82539689Y-77439452D01*
X82568884Y-77430595D01*
X82605390Y-77427000D01*
X83155610Y-77427000D01*
X83192116Y-77430595D01*
G37*
G36*
X75860000Y-77275000D02*
G01*
X74610000Y-77275000D01*
X74610000Y-76275000D01*
X75860000Y-76275000D01*
X75860000Y-77275000D01*
G37*
G36*
X131126999Y-75437499D02*
G01*
X131127001Y-75437501D01*
X131127604Y-75443627D01*
X131132384Y-75467660D01*
X131141761Y-75490299D01*
X131155374Y-75510674D01*
X131172701Y-75528001D01*
X131193075Y-75541615D01*
X131215713Y-75550993D01*
X131239746Y-75555774D01*
X131264251Y-75555774D01*
X131288284Y-75550994D01*
X131310923Y-75541617D01*
X131331298Y-75528004D01*
X131348625Y-75510677D01*
X131362239Y-75490303D01*
X131371617Y-75467665D01*
X131376398Y-75443632D01*
X131376699Y-75437500D01*
X132377603Y-75437500D01*
X132379402Y-75455763D01*
X132386515Y-75479212D01*
X132398066Y-75500823D01*
X132413611Y-75519765D01*
X132432553Y-75535310D01*
X132454164Y-75546861D01*
X132477613Y-75553974D01*
X132501999Y-75556376D01*
X132526385Y-75553974D01*
X132549834Y-75546861D01*
X132571445Y-75535310D01*
X132590387Y-75519765D01*
X132605932Y-75500823D01*
X132617483Y-75479212D01*
X132624596Y-75455763D01*
X132626396Y-75443627D01*
X132626999Y-75437501D01*
X132627001Y-75437499D01*
X132633137Y-75436895D01*
X133170863Y-75436895D01*
X133189203Y-75438701D01*
X133201453Y-75439303D01*
X133219872Y-75439303D01*
X133232150Y-75440512D01*
X133316232Y-75457237D01*
X133328052Y-75460823D01*
X133407256Y-75493630D01*
X133418136Y-75499445D01*
X133489426Y-75547079D01*
X133498963Y-75554907D01*
X133559593Y-75615537D01*
X133567421Y-75625074D01*
X133615055Y-75696364D01*
X133620870Y-75707244D01*
X133653677Y-75786448D01*
X133657263Y-75798268D01*
X133673988Y-75882350D01*
X133675197Y-75894628D01*
X133675197Y-75913047D01*
X133675799Y-75925297D01*
X133677605Y-75943637D01*
X133677605Y-76431363D01*
X133675799Y-76449703D01*
X133675197Y-76461953D01*
X133675197Y-76480372D01*
X133673988Y-76492650D01*
X133657263Y-76576732D01*
X133653677Y-76588552D01*
X133620870Y-76667756D01*
X133615055Y-76678636D01*
X133567421Y-76749926D01*
X133559593Y-76759463D01*
X133498963Y-76820093D01*
X133489426Y-76827921D01*
X133418136Y-76875555D01*
X133407256Y-76881370D01*
X133328052Y-76914177D01*
X133316232Y-76917763D01*
X133232150Y-76934488D01*
X133219872Y-76935697D01*
X133201453Y-76935697D01*
X133189203Y-76936299D01*
X133170863Y-76938105D01*
X132633137Y-76938105D01*
X132627001Y-76937501D01*
X132626999Y-76937499D01*
X132626396Y-76931373D01*
X132621616Y-76907340D01*
X132612239Y-76884701D01*
X132598626Y-76864326D01*
X132581299Y-76846999D01*
X132560925Y-76833385D01*
X132538287Y-76824007D01*
X132514254Y-76819226D01*
X132489749Y-76819226D01*
X132465716Y-76824006D01*
X132443077Y-76833383D01*
X132422702Y-76846996D01*
X132405375Y-76864323D01*
X132391761Y-76884697D01*
X132382383Y-76907335D01*
X132377602Y-76931368D01*
X132377301Y-76937500D01*
X131376397Y-76937500D01*
X131374598Y-76919237D01*
X131367485Y-76895788D01*
X131355934Y-76874177D01*
X131340389Y-76855235D01*
X131321447Y-76839690D01*
X131299836Y-76828139D01*
X131276387Y-76821026D01*
X131252001Y-76818624D01*
X131227615Y-76821026D01*
X131204166Y-76828139D01*
X131182555Y-76839690D01*
X131163613Y-76855235D01*
X131148068Y-76874177D01*
X131136517Y-76895788D01*
X131129404Y-76919237D01*
X131127604Y-76931373D01*
X131127001Y-76937499D01*
X131126999Y-76937501D01*
X131120863Y-76938105D01*
X130583137Y-76938105D01*
X130564797Y-76936299D01*
X130552547Y-76935697D01*
X130534128Y-76935697D01*
X130521850Y-76934488D01*
X130437768Y-76917763D01*
X130425948Y-76914177D01*
X130346744Y-76881370D01*
X130335864Y-76875555D01*
X130264574Y-76827921D01*
X130255037Y-76820093D01*
X130194407Y-76759463D01*
X130186579Y-76749926D01*
X130138945Y-76678636D01*
X130133130Y-76667756D01*
X130100323Y-76588552D01*
X130096737Y-76576732D01*
X130080012Y-76492650D01*
X130078803Y-76480372D01*
X130078803Y-76461953D01*
X130078201Y-76449703D01*
X130076395Y-76431363D01*
X130076395Y-75943637D01*
X130078201Y-75925297D01*
X130078803Y-75913047D01*
X130078803Y-75894628D01*
X130080012Y-75882350D01*
X130096737Y-75798268D01*
X130100323Y-75786448D01*
X130133130Y-75707244D01*
X130138945Y-75696364D01*
X130186579Y-75625074D01*
X130194407Y-75615537D01*
X130255037Y-75554907D01*
X130264574Y-75547079D01*
X130335864Y-75499445D01*
X130346744Y-75493630D01*
X130425948Y-75460823D01*
X130437768Y-75457237D01*
X130521850Y-75440512D01*
X130534128Y-75439303D01*
X130552547Y-75439303D01*
X130564797Y-75438701D01*
X130583137Y-75436895D01*
X131120863Y-75436895D01*
X131126999Y-75437499D01*
G37*
G36*
X105900000Y-76800000D02*
G01*
X94100000Y-76800000D01*
X94100000Y-75800000D01*
X105900000Y-75800000D01*
X105900000Y-76800000D01*
G37*
G36*
X90414000Y-75627000D02*
G01*
X89164000Y-75627000D01*
X89164000Y-74627000D01*
X90414000Y-74627000D01*
X90414000Y-75627000D01*
G37*
G36*
X56466703Y-72461486D02*
G01*
X56757883Y-72582097D01*
X57019940Y-72757198D01*
X57242802Y-72980060D01*
X57417903Y-73242117D01*
X57538514Y-73533297D01*
X57600000Y-73842412D01*
X57600000Y-74157588D01*
X57538514Y-74466703D01*
X57417903Y-74757883D01*
X57242802Y-75019940D01*
X57019940Y-75242802D01*
X56757883Y-75417903D01*
X56466703Y-75538514D01*
X56157588Y-75600000D01*
X55842412Y-75600000D01*
X55533297Y-75538514D01*
X55242117Y-75417903D01*
X54980060Y-75242802D01*
X54757198Y-75019940D01*
X54582097Y-74757883D01*
X54461486Y-74466703D01*
X54400000Y-74157588D01*
X54400000Y-73842412D01*
X54461486Y-73533297D01*
X54582097Y-73242117D01*
X54757198Y-72980060D01*
X54980060Y-72757198D01*
X55242117Y-72582097D01*
X55533297Y-72461486D01*
X55842412Y-72400000D01*
X56157588Y-72400000D01*
X56466703Y-72461486D01*
G37*
G36*
X144466703Y-72461486D02*
G01*
X144757883Y-72582097D01*
X145019940Y-72757198D01*
X145242802Y-72980060D01*
X145417903Y-73242117D01*
X145538514Y-73533297D01*
X145600000Y-73842412D01*
X145600000Y-74157588D01*
X145538514Y-74466703D01*
X145417903Y-74757883D01*
X145242802Y-75019940D01*
X145019940Y-75242802D01*
X144757883Y-75417903D01*
X144466703Y-75538514D01*
X144157588Y-75600000D01*
X143842412Y-75600000D01*
X143533297Y-75538514D01*
X143242117Y-75417903D01*
X142980060Y-75242802D01*
X142757198Y-75019940D01*
X142582097Y-74757883D01*
X142461486Y-74466703D01*
X142400000Y-74157588D01*
X142400000Y-73842412D01*
X142461486Y-73533297D01*
X142582097Y-73242117D01*
X142757198Y-72980060D01*
X142980060Y-72757198D01*
X143242117Y-72582097D01*
X143533297Y-72461486D01*
X143842412Y-72400000D01*
X144157588Y-72400000D01*
X144466703Y-72461486D01*
G37*
G36*
X62923000Y-75460000D02*
G01*
X60623000Y-75460000D01*
X60623000Y-72960000D01*
X62923000Y-72960000D01*
X62923000Y-75460000D01*
G37*
G36*
X93868000Y-74996000D02*
G01*
X93168000Y-74996000D01*
X93168000Y-73696000D01*
X93868000Y-73696000D01*
X93868000Y-74996000D01*
G37*
G36*
X91968000Y-74996000D02*
G01*
X91268000Y-74996000D01*
X91268000Y-73696000D01*
X91968000Y-73696000D01*
X91968000Y-74996000D01*
G37*
G36*
X95690000Y-74971000D02*
G01*
X94690000Y-74971000D01*
X94690000Y-73721000D01*
X95690000Y-73721000D01*
X95690000Y-74971000D01*
G37*
G36*
X97690000Y-74971000D02*
G01*
X96690000Y-74971000D01*
X96690000Y-73721000D01*
X97690000Y-73721000D01*
X97690000Y-74971000D01*
G37*
G36*
X99634000Y-74503000D02*
G01*
X98334000Y-74503000D01*
X98334000Y-73803000D01*
X99634000Y-73803000D01*
X99634000Y-74503000D01*
G37*
G36*
X73817000Y-74015000D02*
G01*
X73117000Y-74015000D01*
X73117000Y-72715000D01*
X73817000Y-72715000D01*
X73817000Y-74015000D01*
G37*
G36*
X77251000Y-74015000D02*
G01*
X76551000Y-74015000D01*
X76551000Y-72715000D01*
X77251000Y-72715000D01*
X77251000Y-74015000D01*
G37*
G36*
X79151000Y-74015000D02*
G01*
X78451000Y-74015000D01*
X78451000Y-72715000D01*
X79151000Y-72715000D01*
X79151000Y-74015000D01*
G37*
G36*
X87787000Y-74015000D02*
G01*
X87087000Y-74015000D01*
X87087000Y-72715000D01*
X87787000Y-72715000D01*
X87787000Y-74015000D01*
G37*
G36*
X81823000Y-74015000D02*
G01*
X81123000Y-74015000D01*
X81123000Y-72715000D01*
X81823000Y-72715000D01*
X81823000Y-74015000D01*
G37*
G36*
X83723000Y-74015000D02*
G01*
X83023000Y-74015000D01*
X83023000Y-72715000D01*
X83723000Y-72715000D01*
X83723000Y-74015000D01*
G37*
G36*
X85887000Y-74015000D02*
G01*
X85187000Y-74015000D01*
X85187000Y-72715000D01*
X85887000Y-72715000D01*
X85887000Y-74015000D01*
G37*
G36*
X71917000Y-74015000D02*
G01*
X71217000Y-74015000D01*
X71217000Y-72715000D01*
X71917000Y-72715000D01*
X71917000Y-74015000D01*
G37*
G36*
X107483000Y-73687000D02*
G01*
X106233000Y-73687000D01*
X106233000Y-72687000D01*
X107483000Y-72687000D01*
X107483000Y-73687000D01*
G37*
G36*
X90414000Y-73627000D02*
G01*
X89164000Y-73627000D01*
X89164000Y-72627000D01*
X90414000Y-72627000D01*
X90414000Y-73627000D01*
G37*
G36*
X113535000Y-73335000D02*
G01*
X113135000Y-73335000D01*
X113135000Y-72685000D01*
X113535000Y-72685000D01*
X113535000Y-73335000D01*
G37*
G36*
X114185000Y-73335000D02*
G01*
X113785000Y-73335000D01*
X113785000Y-72685000D01*
X114185000Y-72685000D01*
X114185000Y-73335000D01*
G37*
G36*
X112885000Y-73335000D02*
G01*
X112485000Y-73335000D01*
X112485000Y-72685000D01*
X112885000Y-72685000D01*
X112885000Y-73335000D01*
G37*
G36*
X103143116Y-72413595D02*
G01*
X103172311Y-72422452D01*
X103199223Y-72436837D01*
X103222808Y-72456192D01*
X103242163Y-72479777D01*
X103256548Y-72506689D01*
X103265405Y-72535884D01*
X103269000Y-72572390D01*
X103269000Y-73122610D01*
X103265405Y-73159116D01*
X103256548Y-73188311D01*
X103242163Y-73215223D01*
X103222808Y-73238808D01*
X103199223Y-73258163D01*
X103172311Y-73272548D01*
X103143116Y-73281405D01*
X103106610Y-73285000D01*
X102481390Y-73285000D01*
X102444884Y-73281405D01*
X102415689Y-73272548D01*
X102388777Y-73258163D01*
X102365192Y-73238808D01*
X102345837Y-73215223D01*
X102331452Y-73188311D01*
X102322595Y-73159116D01*
X102319000Y-73122610D01*
X102319000Y-72572390D01*
X102322595Y-72535884D01*
X102331452Y-72506689D01*
X102345837Y-72479777D01*
X102365192Y-72456192D01*
X102388777Y-72436837D01*
X102415689Y-72422452D01*
X102444884Y-72413595D01*
X102481390Y-72410000D01*
X103106610Y-72410000D01*
X103143116Y-72413595D01*
G37*
G36*
X104921116Y-72413595D02*
G01*
X104950311Y-72422452D01*
X104977223Y-72436837D01*
X105000808Y-72456192D01*
X105020163Y-72479777D01*
X105034548Y-72506689D01*
X105043405Y-72535884D01*
X105047000Y-72572390D01*
X105047000Y-73122610D01*
X105043405Y-73159116D01*
X105034548Y-73188311D01*
X105020163Y-73215223D01*
X105000808Y-73238808D01*
X104977223Y-73258163D01*
X104950311Y-73272548D01*
X104921116Y-73281405D01*
X104884610Y-73285000D01*
X104259390Y-73285000D01*
X104222884Y-73281405D01*
X104193689Y-73272548D01*
X104166777Y-73258163D01*
X104143192Y-73238808D01*
X104123837Y-73215223D01*
X104109452Y-73188311D01*
X104100595Y-73159116D01*
X104097000Y-73122610D01*
X104097000Y-72572390D01*
X104100595Y-72535884D01*
X104109452Y-72506689D01*
X104123837Y-72479777D01*
X104143192Y-72456192D01*
X104166777Y-72436837D01*
X104193689Y-72422452D01*
X104222884Y-72413595D01*
X104259390Y-72410000D01*
X104884610Y-72410000D01*
X104921116Y-72413595D01*
G37*
G36*
X109493116Y-72413595D02*
G01*
X109522311Y-72422452D01*
X109549223Y-72436837D01*
X109572808Y-72456192D01*
X109592163Y-72479777D01*
X109606548Y-72506689D01*
X109615405Y-72535884D01*
X109619000Y-72572390D01*
X109619000Y-73122610D01*
X109615405Y-73159116D01*
X109606548Y-73188311D01*
X109592163Y-73215223D01*
X109572808Y-73238808D01*
X109549223Y-73258163D01*
X109522311Y-73272548D01*
X109493116Y-73281405D01*
X109456610Y-73285000D01*
X108831390Y-73285000D01*
X108794884Y-73281405D01*
X108765689Y-73272548D01*
X108738777Y-73258163D01*
X108715192Y-73238808D01*
X108695837Y-73215223D01*
X108681452Y-73188311D01*
X108672595Y-73159116D01*
X108669000Y-73122610D01*
X108669000Y-72572390D01*
X108672595Y-72535884D01*
X108681452Y-72506689D01*
X108695837Y-72479777D01*
X108715192Y-72456192D01*
X108738777Y-72436837D01*
X108765689Y-72422452D01*
X108794884Y-72413595D01*
X108831390Y-72410000D01*
X109456610Y-72410000D01*
X109493116Y-72413595D01*
G37*
G36*
X111271116Y-72413595D02*
G01*
X111300311Y-72422452D01*
X111327223Y-72436837D01*
X111350808Y-72456192D01*
X111370163Y-72479777D01*
X111384548Y-72506689D01*
X111393405Y-72535884D01*
X111397000Y-72572390D01*
X111397000Y-73122610D01*
X111393405Y-73159116D01*
X111384548Y-73188311D01*
X111370163Y-73215223D01*
X111350808Y-73238808D01*
X111327223Y-73258163D01*
X111300311Y-73272548D01*
X111271116Y-73281405D01*
X111234610Y-73285000D01*
X110609390Y-73285000D01*
X110572884Y-73281405D01*
X110543689Y-73272548D01*
X110516777Y-73258163D01*
X110493192Y-73238808D01*
X110473837Y-73215223D01*
X110459452Y-73188311D01*
X110450595Y-73159116D01*
X110447000Y-73122610D01*
X110447000Y-72572390D01*
X110450595Y-72535884D01*
X110459452Y-72506689D01*
X110473837Y-72479777D01*
X110493192Y-72456192D01*
X110516777Y-72436837D01*
X110543689Y-72422452D01*
X110572884Y-72413595D01*
X110609390Y-72410000D01*
X111234610Y-72410000D01*
X111271116Y-72413595D01*
G37*
G36*
X116097116Y-72413595D02*
G01*
X116126311Y-72422452D01*
X116153223Y-72436837D01*
X116176808Y-72456192D01*
X116196163Y-72479777D01*
X116210548Y-72506689D01*
X116219405Y-72535884D01*
X116223000Y-72572390D01*
X116223000Y-73122610D01*
X116219405Y-73159116D01*
X116210548Y-73188311D01*
X116196163Y-73215223D01*
X116176808Y-73238808D01*
X116153223Y-73258163D01*
X116126311Y-73272548D01*
X116097116Y-73281405D01*
X116060610Y-73285000D01*
X115435390Y-73285000D01*
X115398884Y-73281405D01*
X115369689Y-73272548D01*
X115342777Y-73258163D01*
X115319192Y-73238808D01*
X115299837Y-73215223D01*
X115285452Y-73188311D01*
X115276595Y-73159116D01*
X115273000Y-73122610D01*
X115273000Y-72572390D01*
X115276595Y-72535884D01*
X115285452Y-72506689D01*
X115299837Y-72479777D01*
X115319192Y-72456192D01*
X115342777Y-72436837D01*
X115369689Y-72422452D01*
X115398884Y-72413595D01*
X115435390Y-72410000D01*
X116060610Y-72410000D01*
X116097116Y-72413595D01*
G37*
G36*
X130093200Y-73150440D02*
G01*
X129432800Y-73150440D01*
X129432800Y-71118440D01*
X130093200Y-71118440D01*
X130093200Y-73150440D01*
G37*
G36*
X128823200Y-73150440D02*
G01*
X128162800Y-73150440D01*
X128162800Y-71118440D01*
X128823200Y-71118440D01*
X128823200Y-73150440D01*
G37*
G36*
X127553200Y-73150440D02*
G01*
X126892800Y-73150440D01*
X126892800Y-71118440D01*
X127553200Y-71118440D01*
X127553200Y-73150440D01*
G37*
G36*
X126283200Y-73150440D02*
G01*
X125622800Y-73150440D01*
X125622800Y-71118440D01*
X126283200Y-71118440D01*
X126283200Y-73150440D01*
G37*
G36*
X133476000Y-73013040D02*
G01*
X132776000Y-73013040D01*
X132776000Y-71713040D01*
X133476000Y-71713040D01*
X133476000Y-73013040D01*
G37*
G36*
X131576000Y-73013040D02*
G01*
X130876000Y-73013040D01*
X130876000Y-71713040D01*
X131576000Y-71713040D01*
X131576000Y-73013040D01*
G37*
G36*
X99634000Y-72603000D02*
G01*
X98334000Y-72603000D01*
X98334000Y-71903000D01*
X99634000Y-71903000D01*
X99634000Y-72603000D01*
G37*
G36*
X97489000Y-72539000D02*
G01*
X96889000Y-72539000D01*
X96889000Y-72089000D01*
X97489000Y-72089000D01*
X97489000Y-72539000D01*
G37*
G36*
X93933000Y-72539000D02*
G01*
X93333000Y-72539000D01*
X93333000Y-72089000D01*
X93933000Y-72089000D01*
X93933000Y-72539000D01*
G37*
G36*
X95389000Y-72539000D02*
G01*
X94789000Y-72539000D01*
X94789000Y-72089000D01*
X95389000Y-72089000D01*
X95389000Y-72539000D01*
G37*
G36*
X91833000Y-72539000D02*
G01*
X91233000Y-72539000D01*
X91233000Y-72089000D01*
X91833000Y-72089000D01*
X91833000Y-72539000D01*
G37*
G36*
X104921116Y-70838595D02*
G01*
X104950311Y-70847452D01*
X104977223Y-70861837D01*
X105000808Y-70881192D01*
X105020163Y-70904777D01*
X105034548Y-70931689D01*
X105043405Y-70960884D01*
X105047000Y-70997390D01*
X105047000Y-71547610D01*
X105043405Y-71584116D01*
X105034548Y-71613311D01*
X105020163Y-71640223D01*
X105000808Y-71663808D01*
X104977223Y-71683163D01*
X104950311Y-71697548D01*
X104921116Y-71706405D01*
X104884610Y-71710000D01*
X104259390Y-71710000D01*
X104222884Y-71706405D01*
X104193689Y-71697548D01*
X104166777Y-71683163D01*
X104143192Y-71663808D01*
X104123837Y-71640223D01*
X104109452Y-71613311D01*
X104100595Y-71584116D01*
X104097000Y-71547610D01*
X104097000Y-70997390D01*
X104100595Y-70960884D01*
X104109452Y-70931689D01*
X104123837Y-70904777D01*
X104143192Y-70881192D01*
X104166777Y-70861837D01*
X104193689Y-70847452D01*
X104222884Y-70838595D01*
X104259390Y-70835000D01*
X104884610Y-70835000D01*
X104921116Y-70838595D01*
G37*
G36*
X103143116Y-70838595D02*
G01*
X103172311Y-70847452D01*
X103199223Y-70861837D01*
X103222808Y-70881192D01*
X103242163Y-70904777D01*
X103256548Y-70931689D01*
X103265405Y-70960884D01*
X103269000Y-70997390D01*
X103269000Y-71547610D01*
X103265405Y-71584116D01*
X103256548Y-71613311D01*
X103242163Y-71640223D01*
X103222808Y-71663808D01*
X103199223Y-71683163D01*
X103172311Y-71697548D01*
X103143116Y-71706405D01*
X103106610Y-71710000D01*
X102481390Y-71710000D01*
X102444884Y-71706405D01*
X102415689Y-71697548D01*
X102388777Y-71683163D01*
X102365192Y-71663808D01*
X102345837Y-71640223D01*
X102331452Y-71613311D01*
X102322595Y-71584116D01*
X102319000Y-71547610D01*
X102319000Y-70997390D01*
X102322595Y-70960884D01*
X102331452Y-70931689D01*
X102345837Y-70904777D01*
X102365192Y-70881192D01*
X102388777Y-70861837D01*
X102415689Y-70847452D01*
X102444884Y-70838595D01*
X102481390Y-70835000D01*
X103106610Y-70835000D01*
X103143116Y-70838595D01*
G37*
G36*
X109493116Y-70838595D02*
G01*
X109522311Y-70847452D01*
X109549223Y-70861837D01*
X109572808Y-70881192D01*
X109592163Y-70904777D01*
X109606548Y-70931689D01*
X109615405Y-70960884D01*
X109619000Y-70997390D01*
X109619000Y-71547610D01*
X109615405Y-71584116D01*
X109606548Y-71613311D01*
X109592163Y-71640223D01*
X109572808Y-71663808D01*
X109549223Y-71683163D01*
X109522311Y-71697548D01*
X109493116Y-71706405D01*
X109456610Y-71710000D01*
X108831390Y-71710000D01*
X108794884Y-71706405D01*
X108765689Y-71697548D01*
X108738777Y-71683163D01*
X108715192Y-71663808D01*
X108695837Y-71640223D01*
X108681452Y-71613311D01*
X108672595Y-71584116D01*
X108669000Y-71547610D01*
X108669000Y-70997390D01*
X108672595Y-70960884D01*
X108681452Y-70931689D01*
X108695837Y-70904777D01*
X108715192Y-70881192D01*
X108738777Y-70861837D01*
X108765689Y-70847452D01*
X108794884Y-70838595D01*
X108831390Y-70835000D01*
X109456610Y-70835000D01*
X109493116Y-70838595D01*
G37*
G36*
X111271116Y-70838595D02*
G01*
X111300311Y-70847452D01*
X111327223Y-70861837D01*
X111350808Y-70881192D01*
X111370163Y-70904777D01*
X111384548Y-70931689D01*
X111393405Y-70960884D01*
X111397000Y-70997390D01*
X111397000Y-71547610D01*
X111393405Y-71584116D01*
X111384548Y-71613311D01*
X111370163Y-71640223D01*
X111350808Y-71663808D01*
X111327223Y-71683163D01*
X111300311Y-71697548D01*
X111271116Y-71706405D01*
X111234610Y-71710000D01*
X110609390Y-71710000D01*
X110572884Y-71706405D01*
X110543689Y-71697548D01*
X110516777Y-71683163D01*
X110493192Y-71663808D01*
X110473837Y-71640223D01*
X110459452Y-71613311D01*
X110450595Y-71584116D01*
X110447000Y-71547610D01*
X110447000Y-70997390D01*
X110450595Y-70960884D01*
X110459452Y-70931689D01*
X110473837Y-70904777D01*
X110493192Y-70881192D01*
X110516777Y-70861837D01*
X110543689Y-70847452D01*
X110572884Y-70838595D01*
X110609390Y-70835000D01*
X111234610Y-70835000D01*
X111271116Y-70838595D01*
G37*
G36*
X116097116Y-70838595D02*
G01*
X116126311Y-70847452D01*
X116153223Y-70861837D01*
X116176808Y-70881192D01*
X116196163Y-70904777D01*
X116210548Y-70931689D01*
X116219405Y-70960884D01*
X116223000Y-70997390D01*
X116223000Y-71547610D01*
X116219405Y-71584116D01*
X116210548Y-71613311D01*
X116196163Y-71640223D01*
X116176808Y-71663808D01*
X116153223Y-71683163D01*
X116126311Y-71697548D01*
X116097116Y-71706405D01*
X116060610Y-71710000D01*
X115435390Y-71710000D01*
X115398884Y-71706405D01*
X115369689Y-71697548D01*
X115342777Y-71683163D01*
X115319192Y-71663808D01*
X115299837Y-71640223D01*
X115285452Y-71613311D01*
X115276595Y-71584116D01*
X115273000Y-71547610D01*
X115273000Y-70997390D01*
X115276595Y-70960884D01*
X115285452Y-70931689D01*
X115299837Y-70904777D01*
X115319192Y-70881192D01*
X115342777Y-70861837D01*
X115369689Y-70847452D01*
X115398884Y-70838595D01*
X115435390Y-70835000D01*
X116060610Y-70835000D01*
X116097116Y-70838595D01*
G37*
G36*
X107483000Y-71687000D02*
G01*
X106233000Y-71687000D01*
X106233000Y-70687000D01*
X107483000Y-70687000D01*
X107483000Y-71687000D01*
G37*
G36*
X75193000Y-71617000D02*
G01*
X73493000Y-71617000D01*
X73493000Y-70017000D01*
X75193000Y-70017000D01*
X75193000Y-71617000D01*
G37*
G36*
X88401000Y-71617000D02*
G01*
X86701000Y-71617000D01*
X86701000Y-70017000D01*
X88401000Y-70017000D01*
X88401000Y-71617000D01*
G37*
G36*
X83067000Y-71617000D02*
G01*
X81367000Y-71617000D01*
X81367000Y-70017000D01*
X83067000Y-70017000D01*
X83067000Y-71617000D01*
G37*
G36*
X80527000Y-71617000D02*
G01*
X78827000Y-71617000D01*
X78827000Y-70017000D01*
X80527000Y-70017000D01*
X80527000Y-71617000D01*
G37*
G36*
X77733000Y-71617000D02*
G01*
X76033000Y-71617000D01*
X76033000Y-70017000D01*
X77733000Y-70017000D01*
X77733000Y-71617000D01*
G37*
G36*
X85861000Y-71617000D02*
G01*
X84161000Y-71617000D01*
X84161000Y-70017000D01*
X85861000Y-70017000D01*
X85861000Y-71617000D01*
G37*
G36*
X72399000Y-71617000D02*
G01*
X70699000Y-71617000D01*
X70699000Y-70017000D01*
X72399000Y-70017000D01*
X72399000Y-71617000D01*
G37*
G36*
X69859000Y-71617000D02*
G01*
X68159000Y-71617000D01*
X68159000Y-70017000D01*
X69859000Y-70017000D01*
X69859000Y-71617000D01*
G37*
G36*
X114185000Y-71435000D02*
G01*
X113785000Y-71435000D01*
X113785000Y-70785000D01*
X114185000Y-70785000D01*
X114185000Y-71435000D01*
G37*
G36*
X113535000Y-71435000D02*
G01*
X113135000Y-71435000D01*
X113135000Y-70785000D01*
X113535000Y-70785000D01*
X113535000Y-71435000D01*
G37*
G36*
X112885000Y-71435000D02*
G01*
X112485000Y-71435000D01*
X112485000Y-70785000D01*
X112885000Y-70785000D01*
X112885000Y-71435000D01*
G37*
G36*
X62923000Y-71160000D02*
G01*
X60623000Y-71160000D01*
X60623000Y-68660000D01*
X62923000Y-68660000D01*
X62923000Y-71160000D01*
G37*
G36*
X132300000Y-70810000D02*
G01*
X131000000Y-70810000D01*
X131000000Y-70110000D01*
X132300000Y-70110000D01*
X132300000Y-70810000D01*
G37*
G36*
X92290200Y-70589400D02*
G01*
X91629800Y-70589400D01*
X91629800Y-68557400D01*
X92290200Y-68557400D01*
X92290200Y-70589400D01*
G37*
G36*
X91020200Y-70589400D02*
G01*
X90359800Y-70589400D01*
X90359800Y-68557400D01*
X91020200Y-68557400D01*
X91020200Y-70589400D01*
G37*
G36*
X93560200Y-70589400D02*
G01*
X92899800Y-70589400D01*
X92899800Y-68557400D01*
X93560200Y-68557400D01*
X93560200Y-70589400D01*
G37*
G36*
X97370200Y-70589400D02*
G01*
X96709800Y-70589400D01*
X96709800Y-68557400D01*
X97370200Y-68557400D01*
X97370200Y-70589400D01*
G37*
G36*
X98640200Y-70589400D02*
G01*
X97979800Y-70589400D01*
X97979800Y-68557400D01*
X98640200Y-68557400D01*
X98640200Y-70589400D01*
G37*
G36*
X94830200Y-70589400D02*
G01*
X94169800Y-70589400D01*
X94169800Y-68557400D01*
X94830200Y-68557400D01*
X94830200Y-70589400D01*
G37*
G36*
X96100200Y-70589400D02*
G01*
X95439800Y-70589400D01*
X95439800Y-68557400D01*
X96100200Y-68557400D01*
X96100200Y-70589400D01*
G37*
G36*
X124444000Y-70107040D02*
G01*
X123144000Y-70107040D01*
X123144000Y-69407040D01*
X124444000Y-69407040D01*
X124444000Y-70107040D01*
G37*
G36*
X102080000Y-70004000D02*
G01*
X101470000Y-70004000D01*
X101470000Y-68484000D01*
X102080000Y-68484000D01*
X102080000Y-70004000D01*
G37*
G36*
X103350000Y-70004000D02*
G01*
X102740000Y-70004000D01*
X102740000Y-68484000D01*
X103350000Y-68484000D01*
X103350000Y-70004000D01*
G37*
G36*
X104620000Y-70004000D02*
G01*
X104010000Y-70004000D01*
X104010000Y-68484000D01*
X104620000Y-68484000D01*
X104620000Y-70004000D01*
G37*
G36*
X105890000Y-70004000D02*
G01*
X105280000Y-70004000D01*
X105280000Y-68484000D01*
X105890000Y-68484000D01*
X105890000Y-70004000D01*
G37*
G36*
X112240000Y-70004000D02*
G01*
X111630000Y-70004000D01*
X111630000Y-68484000D01*
X112240000Y-68484000D01*
X112240000Y-70004000D01*
G37*
G36*
X110970000Y-70004000D02*
G01*
X110360000Y-70004000D01*
X110360000Y-68484000D01*
X110970000Y-68484000D01*
X110970000Y-70004000D01*
G37*
G36*
X108430000Y-70004000D02*
G01*
X107820000Y-70004000D01*
X107820000Y-68484000D01*
X108430000Y-68484000D01*
X108430000Y-70004000D01*
G37*
G36*
X114780000Y-70004000D02*
G01*
X114170000Y-70004000D01*
X114170000Y-68484000D01*
X114780000Y-68484000D01*
X114780000Y-70004000D01*
G37*
G36*
X116050000Y-70004000D02*
G01*
X115440000Y-70004000D01*
X115440000Y-68484000D01*
X116050000Y-68484000D01*
X116050000Y-70004000D01*
G37*
G36*
X117320000Y-70004000D02*
G01*
X116710000Y-70004000D01*
X116710000Y-68484000D01*
X117320000Y-68484000D01*
X117320000Y-70004000D01*
G37*
G36*
X118590000Y-70004000D02*
G01*
X117980000Y-70004000D01*
X117980000Y-68484000D01*
X118590000Y-68484000D01*
X118590000Y-70004000D01*
G37*
G36*
X109700000Y-70004000D02*
G01*
X109090000Y-70004000D01*
X109090000Y-68484000D01*
X109700000Y-68484000D01*
X109700000Y-70004000D01*
G37*
G36*
X132300000Y-68910000D02*
G01*
X131000000Y-68910000D01*
X131000000Y-68210000D01*
X132300000Y-68210000D01*
X132300000Y-68910000D01*
G37*
G36*
X124444000Y-68207040D02*
G01*
X123144000Y-68207040D01*
X123144000Y-67507040D01*
X124444000Y-67507040D01*
X124444000Y-68207040D01*
G37*
G36*
X132293000Y-67513040D02*
G01*
X131043000Y-67513040D01*
X131043000Y-66513040D01*
X132293000Y-66513040D01*
X132293000Y-67513040D01*
G37*
G36*
X127553200Y-67003640D02*
G01*
X126892800Y-67003640D01*
X126892800Y-64971640D01*
X127553200Y-64971640D01*
X127553200Y-67003640D01*
G37*
G36*
X126283200Y-67003640D02*
G01*
X125622800Y-67003640D01*
X125622800Y-64971640D01*
X126283200Y-64971640D01*
X126283200Y-67003640D01*
G37*
G36*
X128823200Y-67003640D02*
G01*
X128162800Y-67003640D01*
X128162800Y-64971640D01*
X128823200Y-64971640D01*
X128823200Y-67003640D01*
G37*
G36*
X130093200Y-67003640D02*
G01*
X129432800Y-67003640D01*
X129432800Y-64971640D01*
X130093200Y-64971640D01*
X130093200Y-67003640D01*
G37*
G36*
X124419000Y-66497040D02*
G01*
X123169000Y-66497040D01*
X123169000Y-65497040D01*
X124419000Y-65497040D01*
X124419000Y-66497040D01*
G37*
G36*
X132293000Y-65513040D02*
G01*
X131043000Y-65513040D01*
X131043000Y-64513040D01*
X132293000Y-64513040D01*
X132293000Y-65513040D01*
G37*
G36*
X149963000Y-64600000D02*
G01*
X146805412Y-64600000D01*
X146496297Y-64538514D01*
X146205117Y-64417903D01*
X145943060Y-64242802D01*
X145720198Y-64019940D01*
X145545097Y-63757883D01*
X145424486Y-63466703D01*
X145363000Y-63157588D01*
X145363000Y-62842412D01*
X145424486Y-62533297D01*
X145545097Y-62242117D01*
X145720198Y-61980060D01*
X145943060Y-61757198D01*
X146205117Y-61582097D01*
X146496297Y-61461486D01*
X146805412Y-61400000D01*
X149963000Y-61400000D01*
X149963000Y-64600000D01*
G37*
G36*
X109700000Y-64539000D02*
G01*
X109090000Y-64539000D01*
X109090000Y-63019000D01*
X109700000Y-63019000D01*
X109700000Y-64539000D01*
G37*
G36*
X108430000Y-64539000D02*
G01*
X107820000Y-64539000D01*
X107820000Y-63019000D01*
X108430000Y-63019000D01*
X108430000Y-64539000D01*
G37*
G36*
X116050000Y-64539000D02*
G01*
X115440000Y-64539000D01*
X115440000Y-63019000D01*
X116050000Y-63019000D01*
X116050000Y-64539000D01*
G37*
G36*
X112240000Y-64539000D02*
G01*
X111630000Y-64539000D01*
X111630000Y-63019000D01*
X112240000Y-63019000D01*
X112240000Y-64539000D01*
G37*
G36*
X118590000Y-64539000D02*
G01*
X117980000Y-64539000D01*
X117980000Y-63019000D01*
X118590000Y-63019000D01*
X118590000Y-64539000D01*
G37*
G36*
X102080000Y-64539000D02*
G01*
X101470000Y-64539000D01*
X101470000Y-63019000D01*
X102080000Y-63019000D01*
X102080000Y-64539000D01*
G37*
G36*
X104620000Y-64539000D02*
G01*
X104010000Y-64539000D01*
X104010000Y-63019000D01*
X104620000Y-63019000D01*
X104620000Y-64539000D01*
G37*
G36*
X105890000Y-64539000D02*
G01*
X105280000Y-64539000D01*
X105280000Y-63019000D01*
X105890000Y-63019000D01*
X105890000Y-64539000D01*
G37*
G36*
X117320000Y-64539000D02*
G01*
X116710000Y-64539000D01*
X116710000Y-63019000D01*
X117320000Y-63019000D01*
X117320000Y-64539000D01*
G37*
G36*
X110970000Y-64539000D02*
G01*
X110360000Y-64539000D01*
X110360000Y-63019000D01*
X110970000Y-63019000D01*
X110970000Y-64539000D01*
G37*
G36*
X114780000Y-64539000D02*
G01*
X114170000Y-64539000D01*
X114170000Y-63019000D01*
X114780000Y-63019000D01*
X114780000Y-64539000D01*
G37*
G36*
X103350000Y-64539000D02*
G01*
X102740000Y-64539000D01*
X102740000Y-63019000D01*
X103350000Y-63019000D01*
X103350000Y-64539000D01*
G37*
G36*
X124419000Y-64497040D02*
G01*
X123169000Y-64497040D01*
X123169000Y-63497040D01*
X124419000Y-63497040D01*
X124419000Y-64497040D01*
G37*
G36*
X121148000Y-64451000D02*
G01*
X119898000Y-64451000D01*
X119898000Y-63451000D01*
X121148000Y-63451000D01*
X121148000Y-64451000D01*
G37*
G36*
X96100200Y-64442600D02*
G01*
X95439800Y-64442600D01*
X95439800Y-62410600D01*
X96100200Y-62410600D01*
X96100200Y-64442600D01*
G37*
G36*
X91020200Y-64442600D02*
G01*
X90359800Y-64442600D01*
X90359800Y-62410600D01*
X91020200Y-62410600D01*
X91020200Y-64442600D01*
G37*
G36*
X94830200Y-64442600D02*
G01*
X94169800Y-64442600D01*
X94169800Y-62410600D01*
X94830200Y-62410600D01*
X94830200Y-64442600D01*
G37*
G36*
X97370200Y-64442600D02*
G01*
X96709800Y-64442600D01*
X96709800Y-62410600D01*
X97370200Y-62410600D01*
X97370200Y-64442600D01*
G37*
G36*
X98640200Y-64442600D02*
G01*
X97979800Y-64442600D01*
X97979800Y-62410600D01*
X98640200Y-62410600D01*
X98640200Y-64442600D01*
G37*
G36*
X92290200Y-64442600D02*
G01*
X91629800Y-64442600D01*
X91629800Y-62410600D01*
X92290200Y-62410600D01*
X92290200Y-64442600D01*
G37*
G36*
X93560200Y-64442600D02*
G01*
X92899800Y-64442600D01*
X92899800Y-62410600D01*
X93560200Y-62410600D01*
X93560200Y-64442600D01*
G37*
G36*
X128627000Y-64084000D02*
G01*
X127627000Y-64084000D01*
X127627000Y-62834000D01*
X128627000Y-62834000D01*
X128627000Y-64084000D01*
G37*
G36*
X126627000Y-64084000D02*
G01*
X125627000Y-64084000D01*
X125627000Y-62834000D01*
X126627000Y-62834000D01*
X126627000Y-64084000D01*
G37*
G36*
X141341000Y-63181000D02*
G01*
X140091000Y-63181000D01*
X140091000Y-62181000D01*
X141341000Y-62181000D01*
X141341000Y-63181000D01*
G37*
G36*
X121148000Y-62451000D02*
G01*
X119898000Y-62451000D01*
X119898000Y-61451000D01*
X121148000Y-61451000D01*
X121148000Y-62451000D01*
G37*
G36*
X57504310Y-60282067D02*
G01*
X57533232Y-60290841D01*
X57559884Y-60305086D01*
X57583244Y-60324256D01*
X57602414Y-60347616D01*
X57616659Y-60374268D01*
X57625433Y-60403190D01*
X57629000Y-60439404D01*
X57629000Y-62217596D01*
X57625433Y-62253810D01*
X57616659Y-62282732D01*
X57602414Y-62309384D01*
X57583244Y-62332744D01*
X57559884Y-62351914D01*
X57533232Y-62366159D01*
X57504310Y-62374933D01*
X57468096Y-62378500D01*
X53289904Y-62378500D01*
X53253690Y-62374933D01*
X53224768Y-62366159D01*
X53198116Y-62351914D01*
X53174756Y-62332744D01*
X53155586Y-62309384D01*
X53141341Y-62282732D01*
X53132567Y-62253810D01*
X53129000Y-62217596D01*
X53129000Y-60439404D01*
X53132567Y-60403190D01*
X53141341Y-60374268D01*
X53155586Y-60347616D01*
X53174756Y-60324256D01*
X53198116Y-60305086D01*
X53224768Y-60290841D01*
X53253690Y-60282067D01*
X53289904Y-60278500D01*
X57468096Y-60278500D01*
X57504310Y-60282067D01*
G37*
G36*
X64704310Y-60282067D02*
G01*
X64733232Y-60290841D01*
X64759884Y-60305086D01*
X64783244Y-60324256D01*
X64802414Y-60347616D01*
X64816659Y-60374268D01*
X64825433Y-60403190D01*
X64829000Y-60439404D01*
X64829000Y-62217596D01*
X64825433Y-62253810D01*
X64816659Y-62282732D01*
X64802414Y-62309384D01*
X64783244Y-62332744D01*
X64759884Y-62351914D01*
X64733232Y-62366159D01*
X64704310Y-62374933D01*
X64668096Y-62378500D01*
X60489904Y-62378500D01*
X60453690Y-62374933D01*
X60424768Y-62366159D01*
X60398116Y-62351914D01*
X60374756Y-62332744D01*
X60355586Y-62309384D01*
X60341341Y-62282732D01*
X60332567Y-62253810D01*
X60329000Y-62217596D01*
X60329000Y-60439404D01*
X60332567Y-60403190D01*
X60341341Y-60374268D01*
X60355586Y-60347616D01*
X60374756Y-60324256D01*
X60398116Y-60305086D01*
X60424768Y-60290841D01*
X60453690Y-60282067D01*
X60489904Y-60278500D01*
X64668096Y-60278500D01*
X64704310Y-60282067D01*
G37*
G36*
X88401000Y-62117000D02*
G01*
X86701000Y-62117000D01*
X86701000Y-60517000D01*
X88401000Y-60517000D01*
X88401000Y-62117000D01*
G37*
G36*
X69859000Y-62117000D02*
G01*
X68159000Y-62117000D01*
X68159000Y-60517000D01*
X69859000Y-60517000D01*
X69859000Y-62117000D01*
G37*
G36*
X72399000Y-62117000D02*
G01*
X70699000Y-62117000D01*
X70699000Y-60517000D01*
X72399000Y-60517000D01*
X72399000Y-62117000D01*
G37*
G36*
X75193000Y-62117000D02*
G01*
X73493000Y-62117000D01*
X73493000Y-60517000D01*
X75193000Y-60517000D01*
X75193000Y-62117000D01*
G37*
G36*
X80527000Y-62117000D02*
G01*
X78827000Y-62117000D01*
X78827000Y-60517000D01*
X80527000Y-60517000D01*
X80527000Y-62117000D01*
G37*
G36*
X77733000Y-62117000D02*
G01*
X76033000Y-62117000D01*
X76033000Y-60517000D01*
X77733000Y-60517000D01*
X77733000Y-62117000D01*
G37*
G36*
X85861000Y-62117000D02*
G01*
X84161000Y-62117000D01*
X84161000Y-60517000D01*
X85861000Y-60517000D01*
X85861000Y-62117000D01*
G37*
G36*
X83067000Y-62117000D02*
G01*
X81367000Y-62117000D01*
X81367000Y-60517000D01*
X83067000Y-60517000D01*
X83067000Y-62117000D01*
G37*
G36*
X115825000Y-61975000D02*
G01*
X114525000Y-61975000D01*
X114525000Y-61275000D01*
X115825000Y-61275000D01*
X115825000Y-61975000D01*
G37*
G36*
X105625000Y-61975000D02*
G01*
X104325000Y-61975000D01*
X104325000Y-61275000D01*
X105625000Y-61275000D01*
X105625000Y-61975000D01*
G37*
G36*
X118300000Y-61969500D02*
G01*
X117000000Y-61969500D01*
X117000000Y-61269500D01*
X118300000Y-61269500D01*
X118300000Y-61969500D01*
G37*
G36*
X102806000Y-61969500D02*
G01*
X101506000Y-61969500D01*
X101506000Y-61269500D01*
X102806000Y-61269500D01*
X102806000Y-61969500D01*
G37*
G36*
X111950000Y-61969500D02*
G01*
X110650000Y-61969500D01*
X110650000Y-61269500D01*
X111950000Y-61269500D01*
X111950000Y-61969500D01*
G37*
G36*
X109410000Y-61969500D02*
G01*
X108110000Y-61969500D01*
X108110000Y-61269500D01*
X109410000Y-61269500D01*
X109410000Y-61969500D01*
G37*
G36*
X100193000Y-61403000D02*
G01*
X98943000Y-61403000D01*
X98943000Y-60403000D01*
X100193000Y-60403000D01*
X100193000Y-61403000D01*
G37*
G36*
X141341000Y-61181000D02*
G01*
X140091000Y-61181000D01*
X140091000Y-60181000D01*
X141341000Y-60181000D01*
X141341000Y-61181000D01*
G37*
G36*
X123855000Y-60553000D02*
G01*
X123155000Y-60553000D01*
X123155000Y-59253000D01*
X123855000Y-59253000D01*
X123855000Y-60553000D01*
G37*
G36*
X121955000Y-60553000D02*
G01*
X121255000Y-60553000D01*
X121255000Y-59253000D01*
X121955000Y-59253000D01*
X121955000Y-60553000D01*
G37*
G36*
X105625000Y-60075000D02*
G01*
X104325000Y-60075000D01*
X104325000Y-59375000D01*
X105625000Y-59375000D01*
X105625000Y-60075000D01*
G37*
G36*
X115825000Y-60075000D02*
G01*
X114525000Y-60075000D01*
X114525000Y-59375000D01*
X115825000Y-59375000D01*
X115825000Y-60075000D01*
G37*
G36*
X102806000Y-60069500D02*
G01*
X101506000Y-60069500D01*
X101506000Y-59369500D01*
X102806000Y-59369500D01*
X102806000Y-60069500D01*
G37*
G36*
X109410000Y-60069500D02*
G01*
X108110000Y-60069500D01*
X108110000Y-59369500D01*
X109410000Y-59369500D01*
X109410000Y-60069500D01*
G37*
G36*
X111950000Y-60069500D02*
G01*
X110650000Y-60069500D01*
X110650000Y-59369500D01*
X111950000Y-59369500D01*
X111950000Y-60069500D01*
G37*
G36*
X118300000Y-60069500D02*
G01*
X117000000Y-60069500D01*
X117000000Y-59369500D01*
X118300000Y-59369500D01*
X118300000Y-60069500D01*
G37*
G36*
X96301000Y-59537000D02*
G01*
X95601000Y-59537000D01*
X95601000Y-58237000D01*
X96301000Y-58237000D01*
X96301000Y-59537000D01*
G37*
G36*
X98201000Y-59537000D02*
G01*
X97501000Y-59537000D01*
X97501000Y-58237000D01*
X98201000Y-58237000D01*
X98201000Y-59537000D01*
G37*
G36*
X100193000Y-59403000D02*
G01*
X98943000Y-59403000D01*
X98943000Y-58403000D01*
X100193000Y-58403000D01*
X100193000Y-59403000D01*
G37*
G36*
X72965000Y-58963000D02*
G01*
X71965000Y-58963000D01*
X71965000Y-55763000D01*
X72965000Y-55763000D01*
X72965000Y-58963000D01*
G37*
G36*
X79165000Y-58963000D02*
G01*
X78165000Y-58963000D01*
X78165000Y-55763000D01*
X79165000Y-55763000D01*
X79165000Y-58963000D01*
G37*
G36*
X94757000Y-58790000D02*
G01*
X93457000Y-58790000D01*
X93457000Y-58090000D01*
X94757000Y-58090000D01*
X94757000Y-58790000D01*
G37*
G36*
X121808000Y-58409000D02*
G01*
X120508000Y-58409000D01*
X120508000Y-57709000D01*
X121808000Y-57709000D01*
X121808000Y-58409000D01*
G37*
G36*
X142763000Y-58409000D02*
G01*
X141463000Y-58409000D01*
X141463000Y-57709000D01*
X142763000Y-57709000D01*
X142763000Y-58409000D01*
G37*
G36*
X144795000Y-58409000D02*
G01*
X143495000Y-58409000D01*
X143495000Y-57709000D01*
X144795000Y-57709000D01*
X144795000Y-58409000D01*
G37*
G36*
X90383524Y-56836955D02*
G01*
X90416238Y-56846879D01*
X90446385Y-56862993D01*
X90472815Y-56884685D01*
X90494507Y-56911115D01*
X90510621Y-56941262D01*
X90520545Y-56973976D01*
X90524500Y-57014138D01*
X90524500Y-57901862D01*
X90520545Y-57942024D01*
X90510621Y-57974738D01*
X90494507Y-58004885D01*
X90472815Y-58031315D01*
X90446385Y-58053007D01*
X90416238Y-58069121D01*
X90383524Y-58079045D01*
X90343362Y-58083000D01*
X88955638Y-58083000D01*
X88915476Y-58079045D01*
X88882762Y-58069121D01*
X88852615Y-58053007D01*
X88826185Y-58031315D01*
X88804493Y-58004885D01*
X88788379Y-57974738D01*
X88778455Y-57942024D01*
X88774500Y-57901862D01*
X88774500Y-57014138D01*
X88778455Y-56973976D01*
X88788379Y-56941262D01*
X88804493Y-56911115D01*
X88826185Y-56884685D01*
X88852615Y-56862993D01*
X88882762Y-56846879D01*
X88915476Y-56836955D01*
X88955638Y-56833000D01*
X90343362Y-56833000D01*
X90383524Y-56836955D01*
G37*
G36*
X96655000Y-57480000D02*
G01*
X95655000Y-57480000D01*
X95655000Y-56230000D01*
X96655000Y-56230000D01*
X96655000Y-57480000D01*
G37*
G36*
X98655000Y-57480000D02*
G01*
X97655000Y-57480000D01*
X97655000Y-56230000D01*
X98655000Y-56230000D01*
X98655000Y-57480000D01*
G37*
G36*
X118597000Y-57114000D02*
G01*
X117537000Y-57114000D01*
X117537000Y-56464000D01*
X118597000Y-56464000D01*
X118597000Y-57114000D01*
G37*
G36*
X116397000Y-57114000D02*
G01*
X115337000Y-57114000D01*
X115337000Y-56464000D01*
X116397000Y-56464000D01*
X116397000Y-57114000D01*
G37*
G36*
X94757000Y-56890000D02*
G01*
X93457000Y-56890000D01*
X93457000Y-56190000D01*
X94757000Y-56190000D01*
X94757000Y-56890000D01*
G37*
G36*
X121808000Y-56509000D02*
G01*
X120508000Y-56509000D01*
X120508000Y-55809000D01*
X121808000Y-55809000D01*
X121808000Y-56509000D01*
G37*
G36*
X142763000Y-56509000D02*
G01*
X141463000Y-56509000D01*
X141463000Y-55809000D01*
X142763000Y-55809000D01*
X142763000Y-56509000D01*
G37*
G36*
X144795000Y-56509000D02*
G01*
X143495000Y-56509000D01*
X143495000Y-55809000D01*
X144795000Y-55809000D01*
X144795000Y-56509000D01*
G37*
G36*
X116397000Y-56164000D02*
G01*
X115337000Y-56164000D01*
X115337000Y-55514000D01*
X116397000Y-55514000D01*
X116397000Y-56164000D01*
G37*
G36*
X118597000Y-56164000D02*
G01*
X117537000Y-56164000D01*
X117537000Y-55514000D01*
X118597000Y-55514000D01*
X118597000Y-56164000D01*
G37*
G36*
X90383524Y-54036955D02*
G01*
X90416238Y-54046879D01*
X90446385Y-54062993D01*
X90472815Y-54084685D01*
X90494507Y-54111115D01*
X90510621Y-54141262D01*
X90520545Y-54173976D01*
X90524500Y-54214138D01*
X90524500Y-55101862D01*
X90520545Y-55142024D01*
X90510621Y-55174738D01*
X90494507Y-55204885D01*
X90472815Y-55231315D01*
X90446385Y-55253007D01*
X90416238Y-55269121D01*
X90383524Y-55279045D01*
X90343362Y-55283000D01*
X88955638Y-55283000D01*
X88915476Y-55279045D01*
X88882762Y-55269121D01*
X88852615Y-55253007D01*
X88826185Y-55231315D01*
X88804493Y-55204885D01*
X88788379Y-55174738D01*
X88778455Y-55142024D01*
X88774500Y-55101862D01*
X88774500Y-54214138D01*
X88778455Y-54173976D01*
X88788379Y-54141262D01*
X88804493Y-54111115D01*
X88826185Y-54084685D01*
X88852615Y-54062993D01*
X88882762Y-54046879D01*
X88915476Y-54036955D01*
X88955638Y-54033000D01*
X90343362Y-54033000D01*
X90383524Y-54036955D01*
G37*
G36*
X118597000Y-55214000D02*
G01*
X117537000Y-55214000D01*
X117537000Y-54564000D01*
X118597000Y-54564000D01*
X118597000Y-55214000D01*
G37*
G36*
X116397000Y-55214000D02*
G01*
X115337000Y-55214000D01*
X115337000Y-54564000D01*
X116397000Y-54564000D01*
X116397000Y-55214000D01*
G37*
G36*
X121808000Y-55107000D02*
G01*
X120508000Y-55107000D01*
X120508000Y-54407000D01*
X121808000Y-54407000D01*
X121808000Y-55107000D01*
G37*
G36*
X111355000Y-54940000D02*
G01*
X110355000Y-54940000D01*
X110355000Y-53690000D01*
X111355000Y-53690000D01*
X111355000Y-54940000D01*
G37*
G36*
X109355000Y-54940000D02*
G01*
X108355000Y-54940000D01*
X108355000Y-53690000D01*
X109355000Y-53690000D01*
X109355000Y-54940000D01*
G37*
G36*
X70815200Y-54889400D02*
G01*
X70154800Y-54889400D01*
X70154800Y-52857400D01*
X70815200Y-52857400D01*
X70815200Y-54889400D01*
G37*
G36*
X67005200Y-54889400D02*
G01*
X66344800Y-54889400D01*
X66344800Y-52857400D01*
X67005200Y-52857400D01*
X67005200Y-54889400D01*
G37*
G36*
X68275200Y-54889400D02*
G01*
X67614800Y-54889400D01*
X67614800Y-52857400D01*
X68275200Y-52857400D01*
X68275200Y-54889400D01*
G37*
G36*
X69545200Y-54889400D02*
G01*
X68884800Y-54889400D01*
X68884800Y-52857400D01*
X69545200Y-52857400D01*
X69545200Y-54889400D01*
G37*
G36*
X95580200Y-54848400D02*
G01*
X94919800Y-54848400D01*
X94919800Y-52816400D01*
X95580200Y-52816400D01*
X95580200Y-54848400D01*
G37*
G36*
X94310200Y-54848400D02*
G01*
X93649800Y-54848400D01*
X93649800Y-52816400D01*
X94310200Y-52816400D01*
X94310200Y-54848400D01*
G37*
G36*
X96850200Y-54848400D02*
G01*
X96189800Y-54848400D01*
X96189800Y-52816400D01*
X96850200Y-52816400D01*
X96850200Y-54848400D01*
G37*
G36*
X98120200Y-54848400D02*
G01*
X97459800Y-54848400D01*
X97459800Y-52816400D01*
X98120200Y-52816400D01*
X98120200Y-54848400D01*
G37*
G36*
X83932000Y-54170000D02*
G01*
X77202000Y-54170000D01*
X77202000Y-47430000D01*
X83932000Y-47430000D01*
X83932000Y-54170000D01*
G37*
G36*
X56785569Y-52703918D02*
G01*
X56817923Y-52713733D01*
X56847744Y-52729672D01*
X56873879Y-52751121D01*
X56895328Y-52777256D01*
X56911267Y-52807077D01*
X56921082Y-52839431D01*
X56925000Y-52879216D01*
X56925000Y-53820784D01*
X56921082Y-53860569D01*
X56911267Y-53892923D01*
X56895328Y-53922744D01*
X56873879Y-53948879D01*
X56847744Y-53970328D01*
X56817923Y-53986267D01*
X56785569Y-53996082D01*
X56745784Y-54000000D01*
X53704216Y-54000000D01*
X53664431Y-53996082D01*
X53632077Y-53986267D01*
X53602256Y-53970328D01*
X53576121Y-53948879D01*
X53554672Y-53922744D01*
X53538733Y-53892923D01*
X53528918Y-53860569D01*
X53525000Y-53820784D01*
X53525000Y-52879216D01*
X53528918Y-52839431D01*
X53538733Y-52807077D01*
X53554672Y-52777256D01*
X53576121Y-52751121D01*
X53602256Y-52729672D01*
X53632077Y-52713733D01*
X53664431Y-52703918D01*
X53704216Y-52700000D01*
X56745784Y-52700000D01*
X56785569Y-52703918D01*
G37*
G36*
X64912000Y-53878000D02*
G01*
X63612000Y-53878000D01*
X63612000Y-53178000D01*
X64912000Y-53178000D01*
X64912000Y-53878000D01*
G37*
G36*
X75322000Y-53755000D02*
G01*
X72542000Y-53755000D01*
X72542000Y-52205000D01*
X75322000Y-52205000D01*
X75322000Y-53755000D01*
G37*
G36*
X118340000Y-53670000D02*
G01*
X117340000Y-53670000D01*
X117340000Y-52420000D01*
X118340000Y-52420000D01*
X118340000Y-53670000D01*
G37*
G36*
X116340000Y-53670000D02*
G01*
X115340000Y-53670000D01*
X115340000Y-52420000D01*
X116340000Y-52420000D01*
X116340000Y-53670000D01*
G37*
G36*
X59928500Y-53303500D02*
G01*
X58531500Y-53303500D01*
X58531500Y-51906500D01*
X59928500Y-51906500D01*
X59928500Y-53303500D01*
G37*
G36*
X121808000Y-53207000D02*
G01*
X120508000Y-53207000D01*
X120508000Y-52507000D01*
X121808000Y-52507000D01*
X121808000Y-53207000D01*
G37*
G36*
X100599000Y-52313000D02*
G01*
X99299000Y-52313000D01*
X99299000Y-51613000D01*
X100599000Y-51613000D01*
X100599000Y-52313000D01*
G37*
G36*
X64912000Y-51978000D02*
G01*
X63612000Y-51978000D01*
X63612000Y-51278000D01*
X64912000Y-51278000D01*
X64912000Y-51978000D01*
G37*
G36*
X106460000Y-51949000D02*
G01*
X106210000Y-51949000D01*
X106210000Y-50649000D01*
X106460000Y-50649000D01*
X106460000Y-51949000D01*
G37*
G36*
X105960000Y-51949000D02*
G01*
X105710000Y-51949000D01*
X105710000Y-50649000D01*
X105960000Y-50649000D01*
X105960000Y-51949000D01*
G37*
G36*
X106960000Y-51949000D02*
G01*
X106710000Y-51949000D01*
X106710000Y-50649000D01*
X106960000Y-50649000D01*
X106960000Y-51949000D01*
G37*
G36*
X107460000Y-51949000D02*
G01*
X107210000Y-51949000D01*
X107210000Y-50649000D01*
X107460000Y-50649000D01*
X107460000Y-51949000D01*
G37*
G36*
X107960000Y-51949000D02*
G01*
X107710000Y-51949000D01*
X107710000Y-50649000D01*
X107960000Y-50649000D01*
X107960000Y-51949000D01*
G37*
G36*
X108460000Y-51949000D02*
G01*
X108210000Y-51949000D01*
X108210000Y-50649000D01*
X108460000Y-50649000D01*
X108460000Y-51949000D01*
G37*
G36*
X109960000Y-51949000D02*
G01*
X109710000Y-51949000D01*
X109710000Y-50649000D01*
X109960000Y-50649000D01*
X109960000Y-51949000D01*
G37*
G36*
X110460000Y-51949000D02*
G01*
X110210000Y-51949000D01*
X110210000Y-50649000D01*
X110460000Y-50649000D01*
X110460000Y-51949000D01*
G37*
G36*
X110960000Y-51949000D02*
G01*
X110710000Y-51949000D01*
X110710000Y-50649000D01*
X110960000Y-50649000D01*
X110960000Y-51949000D01*
G37*
G36*
X111460000Y-51949000D02*
G01*
X111210000Y-51949000D01*
X111210000Y-50649000D01*
X111460000Y-50649000D01*
X111460000Y-51949000D01*
G37*
G36*
X108960000Y-51949000D02*
G01*
X108710000Y-51949000D01*
X108710000Y-50649000D01*
X108960000Y-50649000D01*
X108960000Y-51949000D01*
G37*
G36*
X109460000Y-51949000D02*
G01*
X109210000Y-51949000D01*
X109210000Y-50649000D01*
X109460000Y-50649000D01*
X109460000Y-51949000D01*
G37*
G36*
X146131000Y-51798500D02*
G01*
X145131000Y-51798500D01*
X145131000Y-50898500D01*
X146131000Y-50898500D01*
X146131000Y-51798500D01*
G37*
G36*
X147731000Y-51798500D02*
G01*
X146731000Y-51798500D01*
X146731000Y-50898500D01*
X147731000Y-50898500D01*
X147731000Y-51798500D01*
G37*
G36*
X59433745Y-49393342D02*
G01*
X59553443Y-49442923D01*
X59560864Y-49445997D01*
X59675268Y-49522439D01*
X59772561Y-49619732D01*
X59834880Y-49713000D01*
X59849004Y-49734138D01*
X59901658Y-49861255D01*
X59928500Y-49996202D01*
X59928500Y-50133798D01*
X59901658Y-50268745D01*
X59849004Y-50395862D01*
X59849003Y-50395864D01*
X59772561Y-50510268D01*
X59675268Y-50607561D01*
X59560864Y-50684003D01*
X59560863Y-50684004D01*
X59560862Y-50684004D01*
X59433745Y-50736658D01*
X59298798Y-50763500D01*
X59161202Y-50763500D01*
X59026255Y-50736658D01*
X58899138Y-50684004D01*
X58899137Y-50684004D01*
X58899136Y-50684003D01*
X58784732Y-50607561D01*
X58687439Y-50510268D01*
X58610997Y-50395864D01*
X58610996Y-50395862D01*
X58558342Y-50268745D01*
X58531500Y-50133798D01*
X58531500Y-49996202D01*
X58558342Y-49861255D01*
X58610996Y-49734138D01*
X58625120Y-49713000D01*
X58687439Y-49619732D01*
X58784732Y-49522439D01*
X58899136Y-49445997D01*
X58906557Y-49442923D01*
X59026255Y-49393342D01*
X59161202Y-49366500D01*
X59298798Y-49366500D01*
X59433745Y-49393342D01*
G37*
G36*
X100599000Y-50413000D02*
G01*
X99299000Y-50413000D01*
X99299000Y-49713000D01*
X100599000Y-49713000D01*
X100599000Y-50413000D01*
G37*
G36*
X62601000Y-50268000D02*
G01*
X61351000Y-50268000D01*
X61351000Y-49268000D01*
X62601000Y-49268000D01*
X62601000Y-50268000D01*
G37*
G36*
X64887000Y-50268000D02*
G01*
X63637000Y-50268000D01*
X63637000Y-49268000D01*
X64887000Y-49268000D01*
X64887000Y-50268000D01*
G37*
G36*
X117592000Y-50227000D02*
G01*
X116342000Y-50227000D01*
X116342000Y-49227000D01*
X117592000Y-49227000D01*
X117592000Y-50227000D01*
G37*
G36*
X113585000Y-49824000D02*
G01*
X112285000Y-49824000D01*
X112285000Y-49574000D01*
X113585000Y-49574000D01*
X113585000Y-49824000D01*
G37*
G36*
X104885000Y-49824000D02*
G01*
X103585000Y-49824000D01*
X103585000Y-49574000D01*
X104885000Y-49574000D01*
X104885000Y-49824000D01*
G37*
G36*
X56785569Y-48253918D02*
G01*
X56817923Y-48263733D01*
X56847744Y-48279672D01*
X56873879Y-48301121D01*
X56895328Y-48327256D01*
X56911267Y-48357077D01*
X56921082Y-48389431D01*
X56925000Y-48429216D01*
X56925000Y-49370784D01*
X56921082Y-49410569D01*
X56911267Y-49442923D01*
X56895328Y-49472744D01*
X56873879Y-49498879D01*
X56847744Y-49520328D01*
X56817923Y-49536267D01*
X56785569Y-49546082D01*
X56745784Y-49550000D01*
X53704216Y-49550000D01*
X53664431Y-49546082D01*
X53632077Y-49536267D01*
X53602256Y-49520328D01*
X53576121Y-49498879D01*
X53554672Y-49472744D01*
X53538733Y-49442923D01*
X53528918Y-49410569D01*
X53525000Y-49370784D01*
X53525000Y-48429216D01*
X53528918Y-48389431D01*
X53538733Y-48357077D01*
X53554672Y-48327256D01*
X53576121Y-48301121D01*
X53602256Y-48279672D01*
X53632077Y-48263733D01*
X53664431Y-48253918D01*
X53704216Y-48250000D01*
X56745784Y-48250000D01*
X56785569Y-48253918D01*
G37*
G36*
X75322000Y-49395000D02*
G01*
X72542000Y-49395000D01*
X72542000Y-47845000D01*
X75322000Y-47845000D01*
X75322000Y-49395000D01*
G37*
G36*
X123500000Y-49375000D02*
G01*
X121000000Y-49375000D01*
X121000000Y-46875000D01*
X123500000Y-46875000D01*
X123500000Y-49375000D01*
G37*
G36*
X143000000Y-49375000D02*
G01*
X140500000Y-49375000D01*
X140500000Y-46875000D01*
X143000000Y-46875000D01*
X143000000Y-49375000D01*
G37*
G36*
X113585000Y-49324000D02*
G01*
X112285000Y-49324000D01*
X112285000Y-49074000D01*
X113585000Y-49074000D01*
X113585000Y-49324000D01*
G37*
G36*
X104885000Y-49324000D02*
G01*
X103585000Y-49324000D01*
X103585000Y-49074000D01*
X104885000Y-49074000D01*
X104885000Y-49324000D01*
G37*
G36*
X104885000Y-48824000D02*
G01*
X103585000Y-48824000D01*
X103585000Y-48574000D01*
X104885000Y-48574000D01*
X104885000Y-48824000D01*
G37*
G36*
X113585000Y-48824000D02*
G01*
X112285000Y-48824000D01*
X112285000Y-48574000D01*
X113585000Y-48574000D01*
X113585000Y-48824000D01*
G37*
G36*
X69545200Y-48742600D02*
G01*
X68884800Y-48742600D01*
X68884800Y-46710600D01*
X69545200Y-46710600D01*
X69545200Y-48742600D01*
G37*
G36*
X70815200Y-48742600D02*
G01*
X70154800Y-48742600D01*
X70154800Y-46710600D01*
X70815200Y-46710600D01*
X70815200Y-48742600D01*
G37*
G36*
X68275200Y-48742600D02*
G01*
X67614800Y-48742600D01*
X67614800Y-46710600D01*
X68275200Y-46710600D01*
X68275200Y-48742600D01*
G37*
G36*
X67005200Y-48742600D02*
G01*
X66344800Y-48742600D01*
X66344800Y-46710600D01*
X67005200Y-46710600D01*
X67005200Y-48742600D01*
G37*
G36*
X98120200Y-48701600D02*
G01*
X97459800Y-48701600D01*
X97459800Y-46669600D01*
X98120200Y-46669600D01*
X98120200Y-48701600D01*
G37*
G36*
X96850200Y-48701600D02*
G01*
X96189800Y-48701600D01*
X96189800Y-46669600D01*
X96850200Y-46669600D01*
X96850200Y-48701600D01*
G37*
G36*
X94310200Y-48701600D02*
G01*
X93649800Y-48701600D01*
X93649800Y-46669600D01*
X94310200Y-46669600D01*
X94310200Y-48701600D01*
G37*
G36*
X95580200Y-48701600D02*
G01*
X94919800Y-48701600D01*
X94919800Y-46669600D01*
X95580200Y-46669600D01*
X95580200Y-48701600D01*
G37*
G36*
X101844000Y-48449000D02*
G01*
X100594000Y-48449000D01*
X100594000Y-47449000D01*
X101844000Y-47449000D01*
X101844000Y-48449000D01*
G37*
G36*
X104885000Y-48324000D02*
G01*
X103585000Y-48324000D01*
X103585000Y-48074000D01*
X104885000Y-48074000D01*
X104885000Y-48324000D01*
G37*
G36*
X113585000Y-48324000D02*
G01*
X112285000Y-48324000D01*
X112285000Y-48074000D01*
X113585000Y-48074000D01*
X113585000Y-48324000D01*
G37*
G36*
X62601000Y-48268000D02*
G01*
X61351000Y-48268000D01*
X61351000Y-47268000D01*
X62601000Y-47268000D01*
X62601000Y-48268000D01*
G37*
G36*
X64887000Y-48268000D02*
G01*
X63637000Y-48268000D01*
X63637000Y-47268000D01*
X64887000Y-47268000D01*
X64887000Y-48268000D01*
G37*
G36*
X117592000Y-48227000D02*
G01*
X116342000Y-48227000D01*
X116342000Y-47227000D01*
X117592000Y-47227000D01*
X117592000Y-48227000D01*
G37*
G36*
X59433745Y-46853342D02*
G01*
X59560862Y-46905996D01*
X59560864Y-46905997D01*
X59675268Y-46982439D01*
X59772561Y-47079732D01*
X59849003Y-47194136D01*
X59849004Y-47194138D01*
X59901658Y-47321255D01*
X59928500Y-47456202D01*
X59928500Y-47593798D01*
X59901658Y-47728745D01*
X59853503Y-47845000D01*
X59849003Y-47855864D01*
X59772561Y-47970268D01*
X59675268Y-48067561D01*
X59560864Y-48144003D01*
X59560863Y-48144004D01*
X59560862Y-48144004D01*
X59433745Y-48196658D01*
X59298798Y-48223500D01*
X59161202Y-48223500D01*
X59026255Y-48196658D01*
X58899138Y-48144004D01*
X58899137Y-48144004D01*
X58899136Y-48144003D01*
X58784732Y-48067561D01*
X58687439Y-47970268D01*
X58610997Y-47855864D01*
X58606497Y-47845000D01*
X58558342Y-47728745D01*
X58531500Y-47593798D01*
X58531500Y-47456202D01*
X58558342Y-47321255D01*
X58610996Y-47194138D01*
X58610997Y-47194136D01*
X58687439Y-47079732D01*
X58784732Y-46982439D01*
X58899136Y-46905997D01*
X58899138Y-46905996D01*
X59026255Y-46853342D01*
X59161202Y-46826500D01*
X59298798Y-46826500D01*
X59433745Y-46853342D01*
G37*
G36*
X113585000Y-47824000D02*
G01*
X112285000Y-47824000D01*
X112285000Y-47574000D01*
X113585000Y-47574000D01*
X113585000Y-47824000D01*
G37*
G36*
X104885000Y-47824000D02*
G01*
X103585000Y-47824000D01*
X103585000Y-47574000D01*
X104885000Y-47574000D01*
X104885000Y-47824000D01*
G37*
G36*
X147731000Y-47698500D02*
G01*
X146731000Y-47698500D01*
X146731000Y-46798500D01*
X147731000Y-46798500D01*
X147731000Y-47698500D01*
G37*
G36*
X146131000Y-47698500D02*
G01*
X145131000Y-47698500D01*
X145131000Y-46798500D01*
X146131000Y-46798500D01*
X146131000Y-47698500D01*
G37*
G36*
X139400000Y-47650000D02*
G01*
X124600000Y-47650000D01*
X124600000Y-46400000D01*
X139400000Y-46400000D01*
X139400000Y-47650000D01*
G37*
G36*
X113585000Y-47324000D02*
G01*
X112285000Y-47324000D01*
X112285000Y-47074000D01*
X113585000Y-47074000D01*
X113585000Y-47324000D01*
G37*
G36*
X104885000Y-47324000D02*
G01*
X103585000Y-47324000D01*
X103585000Y-47074000D01*
X104885000Y-47074000D01*
X104885000Y-47324000D01*
G37*
G36*
X104885000Y-46824000D02*
G01*
X103585000Y-46824000D01*
X103585000Y-46574000D01*
X104885000Y-46574000D01*
X104885000Y-46824000D01*
G37*
G36*
X113585000Y-46824000D02*
G01*
X112285000Y-46824000D01*
X112285000Y-46574000D01*
X113585000Y-46574000D01*
X113585000Y-46824000D01*
G37*
G36*
X101844000Y-46449000D02*
G01*
X100594000Y-46449000D01*
X100594000Y-45449000D01*
X101844000Y-45449000D01*
X101844000Y-46449000D01*
G37*
G36*
X117592000Y-46417000D02*
G01*
X116342000Y-46417000D01*
X116342000Y-45417000D01*
X117592000Y-45417000D01*
X117592000Y-46417000D01*
G37*
G36*
X113585000Y-46324000D02*
G01*
X112285000Y-46324000D01*
X112285000Y-46074000D01*
X113585000Y-46074000D01*
X113585000Y-46324000D01*
G37*
G36*
X104885000Y-46324000D02*
G01*
X103585000Y-46324000D01*
X103585000Y-46074000D01*
X104885000Y-46074000D01*
X104885000Y-46324000D01*
G37*
G36*
X104885000Y-45824000D02*
G01*
X103585000Y-45824000D01*
X103585000Y-45574000D01*
X104885000Y-45574000D01*
X104885000Y-45824000D01*
G37*
G36*
X113585000Y-45824000D02*
G01*
X112285000Y-45824000D01*
X112285000Y-45574000D01*
X113585000Y-45574000D01*
X113585000Y-45824000D01*
G37*
G36*
X85695000Y-45699000D02*
G01*
X82195000Y-45699000D01*
X82195000Y-35499000D01*
X85695000Y-35499000D01*
X85695000Y-45699000D01*
G37*
G36*
X79095000Y-45699000D02*
G01*
X75595000Y-45699000D01*
X75595000Y-35499000D01*
X79095000Y-35499000D01*
X79095000Y-45699000D01*
G37*
G36*
X90963991Y-44614075D02*
G01*
X90997879Y-44624355D01*
X91029112Y-44641050D01*
X91056486Y-44663514D01*
X91078950Y-44690888D01*
X91095645Y-44722121D01*
X91105925Y-44756009D01*
X91110000Y-44797388D01*
X91110000Y-45397612D01*
X91105925Y-45438991D01*
X91095645Y-45472879D01*
X91078950Y-45504112D01*
X91056486Y-45531486D01*
X91029112Y-45553950D01*
X90997879Y-45570645D01*
X90963991Y-45580925D01*
X90922612Y-45585000D01*
X89897388Y-45585000D01*
X89856009Y-45580925D01*
X89822121Y-45570645D01*
X89790888Y-45553950D01*
X89763514Y-45531486D01*
X89741050Y-45504112D01*
X89724355Y-45472879D01*
X89714075Y-45438991D01*
X89710000Y-45397612D01*
X89710000Y-44797388D01*
X89714075Y-44756009D01*
X89724355Y-44722121D01*
X89741050Y-44690888D01*
X89763514Y-44663514D01*
X89790888Y-44641050D01*
X89822121Y-44624355D01*
X89856009Y-44614075D01*
X89897388Y-44610000D01*
X90922612Y-44610000D01*
X90963991Y-44614075D01*
G37*
G36*
X88873991Y-44614075D02*
G01*
X88907879Y-44624355D01*
X88939112Y-44641050D01*
X88966486Y-44663514D01*
X88988950Y-44690888D01*
X89005645Y-44722121D01*
X89015925Y-44756009D01*
X89020000Y-44797388D01*
X89020000Y-45397612D01*
X89015925Y-45438991D01*
X89005645Y-45472879D01*
X88988950Y-45504112D01*
X88966486Y-45531486D01*
X88939112Y-45553950D01*
X88907879Y-45570645D01*
X88873991Y-45580925D01*
X88832612Y-45585000D01*
X87807388Y-45585000D01*
X87766009Y-45580925D01*
X87732121Y-45570645D01*
X87700888Y-45553950D01*
X87673514Y-45531486D01*
X87651050Y-45504112D01*
X87634355Y-45472879D01*
X87624075Y-45438991D01*
X87620000Y-45397612D01*
X87620000Y-44797388D01*
X87624075Y-44756009D01*
X87634355Y-44722121D01*
X87651050Y-44690888D01*
X87673514Y-44663514D01*
X87700888Y-44641050D01*
X87732121Y-44624355D01*
X87766009Y-44614075D01*
X87807388Y-44610000D01*
X88832612Y-44610000D01*
X88873991Y-44614075D01*
G37*
G36*
X73815000Y-45395000D02*
G01*
X71315000Y-45395000D01*
X71315000Y-44395000D01*
X73815000Y-44395000D01*
X73815000Y-45395000D01*
G37*
G36*
X69302569Y-44047918D02*
G01*
X69334923Y-44057733D01*
X69364744Y-44073672D01*
X69390879Y-44095121D01*
X69412328Y-44121256D01*
X69428267Y-44151077D01*
X69438082Y-44183431D01*
X69442000Y-44223216D01*
X69442000Y-45164784D01*
X69438082Y-45204569D01*
X69428267Y-45236923D01*
X69412328Y-45266744D01*
X69390879Y-45292879D01*
X69364744Y-45314328D01*
X69334923Y-45330267D01*
X69302569Y-45340082D01*
X69262784Y-45344000D01*
X66221216Y-45344000D01*
X66181431Y-45340082D01*
X66149077Y-45330267D01*
X66119256Y-45314328D01*
X66093121Y-45292879D01*
X66071672Y-45266744D01*
X66055733Y-45236923D01*
X66045918Y-45204569D01*
X66042000Y-45164784D01*
X66042000Y-44223216D01*
X66045918Y-44183431D01*
X66055733Y-44151077D01*
X66071672Y-44121256D01*
X66093121Y-44095121D01*
X66119256Y-44073672D01*
X66149077Y-44057733D01*
X66181431Y-44047918D01*
X66221216Y-44044000D01*
X69262784Y-44044000D01*
X69302569Y-44047918D01*
G37*
G36*
X113585000Y-45324000D02*
G01*
X112285000Y-45324000D01*
X112285000Y-45074000D01*
X113585000Y-45074000D01*
X113585000Y-45324000D01*
G37*
G36*
X104885000Y-45324000D02*
G01*
X103585000Y-45324000D01*
X103585000Y-45074000D01*
X104885000Y-45074000D01*
X104885000Y-45324000D01*
G37*
G36*
X104885000Y-44824000D02*
G01*
X103585000Y-44824000D01*
X103585000Y-44574000D01*
X104885000Y-44574000D01*
X104885000Y-44824000D01*
G37*
G36*
X113585000Y-44824000D02*
G01*
X112285000Y-44824000D01*
X112285000Y-44574000D01*
X113585000Y-44574000D01*
X113585000Y-44824000D01*
G37*
G36*
X101869000Y-44693000D02*
G01*
X100569000Y-44693000D01*
X100569000Y-43993000D01*
X101869000Y-43993000D01*
X101869000Y-44693000D01*
G37*
G36*
X117592000Y-44417000D02*
G01*
X116342000Y-44417000D01*
X116342000Y-43417000D01*
X117592000Y-43417000D01*
X117592000Y-44417000D01*
G37*
G36*
X104885000Y-44324000D02*
G01*
X103585000Y-44324000D01*
X103585000Y-44074000D01*
X104885000Y-44074000D01*
X104885000Y-44324000D01*
G37*
G36*
X113585000Y-44324000D02*
G01*
X112285000Y-44324000D01*
X112285000Y-44074000D01*
X113585000Y-44074000D01*
X113585000Y-44324000D01*
G37*
G36*
X130972000Y-44043000D02*
G01*
X130272000Y-44043000D01*
X130272000Y-42743000D01*
X130972000Y-42743000D01*
X130972000Y-44043000D01*
G37*
G36*
X132872000Y-44043000D02*
G01*
X132172000Y-44043000D01*
X132172000Y-42743000D01*
X132872000Y-42743000D01*
X132872000Y-44043000D01*
G37*
G36*
X127516000Y-44018000D02*
G01*
X126516000Y-44018000D01*
X126516000Y-42768000D01*
X127516000Y-42768000D01*
X127516000Y-44018000D01*
G37*
G36*
X123706000Y-44018000D02*
G01*
X122706000Y-44018000D01*
X122706000Y-42768000D01*
X123706000Y-42768000D01*
X123706000Y-44018000D01*
G37*
G36*
X125706000Y-44018000D02*
G01*
X124706000Y-44018000D01*
X124706000Y-42768000D01*
X125706000Y-42768000D01*
X125706000Y-44018000D01*
G37*
G36*
X129516000Y-44018000D02*
G01*
X128516000Y-44018000D01*
X128516000Y-42768000D01*
X129516000Y-42768000D01*
X129516000Y-44018000D01*
G37*
G36*
X136628000Y-44018000D02*
G01*
X135628000Y-44018000D01*
X135628000Y-42768000D01*
X136628000Y-42768000D01*
X136628000Y-44018000D01*
G37*
G36*
X138438000Y-44018000D02*
G01*
X137438000Y-44018000D01*
X137438000Y-42768000D01*
X138438000Y-42768000D01*
X138438000Y-44018000D01*
G37*
G36*
X140438000Y-44018000D02*
G01*
X139438000Y-44018000D01*
X139438000Y-42768000D01*
X140438000Y-42768000D01*
X140438000Y-44018000D01*
G37*
G36*
X134628000Y-44018000D02*
G01*
X133628000Y-44018000D01*
X133628000Y-42768000D01*
X134628000Y-42768000D01*
X134628000Y-44018000D01*
G37*
G36*
X88873991Y-42739075D02*
G01*
X88907879Y-42749355D01*
X88939112Y-42766050D01*
X88966486Y-42788514D01*
X88988950Y-42815888D01*
X89005645Y-42847121D01*
X89015925Y-42881009D01*
X89020000Y-42922388D01*
X89020000Y-43522612D01*
X89015925Y-43563991D01*
X89005645Y-43597879D01*
X88988950Y-43629112D01*
X88966486Y-43656486D01*
X88939112Y-43678950D01*
X88907879Y-43695645D01*
X88873991Y-43705925D01*
X88832612Y-43710000D01*
X87807388Y-43710000D01*
X87766009Y-43705925D01*
X87732121Y-43695645D01*
X87700888Y-43678950D01*
X87673514Y-43656486D01*
X87651050Y-43629112D01*
X87634355Y-43597879D01*
X87624075Y-43563991D01*
X87620000Y-43522612D01*
X87620000Y-42922388D01*
X87624075Y-42881009D01*
X87634355Y-42847121D01*
X87651050Y-42815888D01*
X87673514Y-42788514D01*
X87700888Y-42766050D01*
X87732121Y-42749355D01*
X87766009Y-42739075D01*
X87807388Y-42735000D01*
X88832612Y-42735000D01*
X88873991Y-42739075D01*
G37*
G36*
X90963991Y-42739075D02*
G01*
X90997879Y-42749355D01*
X91029112Y-42766050D01*
X91056486Y-42788514D01*
X91078950Y-42815888D01*
X91095645Y-42847121D01*
X91105925Y-42881009D01*
X91110000Y-42922388D01*
X91110000Y-43522612D01*
X91105925Y-43563991D01*
X91095645Y-43597879D01*
X91078950Y-43629112D01*
X91056486Y-43656486D01*
X91029112Y-43678950D01*
X90997879Y-43695645D01*
X90963991Y-43705925D01*
X90922612Y-43710000D01*
X89897388Y-43710000D01*
X89856009Y-43705925D01*
X89822121Y-43695645D01*
X89790888Y-43678950D01*
X89763514Y-43656486D01*
X89741050Y-43629112D01*
X89724355Y-43597879D01*
X89714075Y-43563991D01*
X89710000Y-43522612D01*
X89710000Y-42922388D01*
X89714075Y-42881009D01*
X89724355Y-42847121D01*
X89741050Y-42815888D01*
X89763514Y-42788514D01*
X89790888Y-42766050D01*
X89822121Y-42749355D01*
X89856009Y-42739075D01*
X89897388Y-42735000D01*
X90922612Y-42735000D01*
X90963991Y-42739075D01*
G37*
G36*
X49772923Y-42759607D02*
G01*
X49801611Y-42771491D01*
X49818420Y-42778453D01*
X49859366Y-42805812D01*
X49894188Y-42840634D01*
X49921547Y-42881580D01*
X49921548Y-42881583D01*
X49938451Y-42922388D01*
X49940393Y-42927078D01*
X49950000Y-42975377D01*
X49950000Y-43024623D01*
X49940393Y-43072922D01*
X49921547Y-43118420D01*
X49894188Y-43159366D01*
X49859366Y-43194188D01*
X49818420Y-43221547D01*
X49801611Y-43228509D01*
X49772923Y-43240393D01*
X49724624Y-43250000D01*
X49675376Y-43250000D01*
X49627077Y-43240393D01*
X49598389Y-43228509D01*
X49581580Y-43221547D01*
X49540634Y-43194188D01*
X49505812Y-43159366D01*
X49478453Y-43118420D01*
X49459607Y-43072922D01*
X49450000Y-43024623D01*
X49450000Y-42975377D01*
X49459607Y-42927078D01*
X49461550Y-42922388D01*
X49478452Y-42881583D01*
X49478453Y-42881580D01*
X49505812Y-42840634D01*
X49540634Y-42805812D01*
X49581580Y-42778453D01*
X49598389Y-42771491D01*
X49627077Y-42759607D01*
X49675376Y-42750000D01*
X49724624Y-42750000D01*
X49772923Y-42759607D01*
G37*
G36*
X150372923Y-42759607D02*
G01*
X150401611Y-42771491D01*
X150418420Y-42778453D01*
X150459366Y-42805812D01*
X150494188Y-42840634D01*
X150521547Y-42881580D01*
X150521548Y-42881583D01*
X150538451Y-42922388D01*
X150540393Y-42927078D01*
X150550000Y-42975377D01*
X150550000Y-43024623D01*
X150540393Y-43072922D01*
X150521547Y-43118420D01*
X150494188Y-43159366D01*
X150459366Y-43194188D01*
X150418420Y-43221547D01*
X150401611Y-43228509D01*
X150372923Y-43240393D01*
X150324624Y-43250000D01*
X150275376Y-43250000D01*
X150227077Y-43240393D01*
X150198389Y-43228509D01*
X150181580Y-43221547D01*
X150140634Y-43194188D01*
X150105812Y-43159366D01*
X150078453Y-43118420D01*
X150059607Y-43072922D01*
X150050000Y-43024623D01*
X150050000Y-42975377D01*
X150059607Y-42927078D01*
X150061550Y-42922388D01*
X150078452Y-42881583D01*
X150078453Y-42881580D01*
X150105812Y-42840634D01*
X150140634Y-42805812D01*
X150181580Y-42778453D01*
X150198389Y-42771491D01*
X150227077Y-42759607D01*
X150275376Y-42750000D01*
X150324624Y-42750000D01*
X150372923Y-42759607D01*
G37*
G36*
X110460000Y-43249000D02*
G01*
X110210000Y-43249000D01*
X110210000Y-41949000D01*
X110460000Y-41949000D01*
X110460000Y-43249000D01*
G37*
G36*
X106960000Y-43249000D02*
G01*
X106710000Y-43249000D01*
X106710000Y-41949000D01*
X106960000Y-41949000D01*
X106960000Y-43249000D01*
G37*
G36*
X105960000Y-43249000D02*
G01*
X105710000Y-43249000D01*
X105710000Y-41949000D01*
X105960000Y-41949000D01*
X105960000Y-43249000D01*
G37*
G36*
X106460000Y-43249000D02*
G01*
X106210000Y-43249000D01*
X106210000Y-41949000D01*
X106460000Y-41949000D01*
X106460000Y-43249000D01*
G37*
G36*
X109460000Y-43249000D02*
G01*
X109210000Y-43249000D01*
X109210000Y-41949000D01*
X109460000Y-41949000D01*
X109460000Y-43249000D01*
G37*
G36*
X111460000Y-43249000D02*
G01*
X111210000Y-43249000D01*
X111210000Y-41949000D01*
X111460000Y-41949000D01*
X111460000Y-43249000D01*
G37*
G36*
X110960000Y-43249000D02*
G01*
X110710000Y-43249000D01*
X110710000Y-41949000D01*
X110960000Y-41949000D01*
X110960000Y-43249000D01*
G37*
G36*
X109960000Y-43249000D02*
G01*
X109710000Y-43249000D01*
X109710000Y-41949000D01*
X109960000Y-41949000D01*
X109960000Y-43249000D01*
G37*
G36*
X107460000Y-43249000D02*
G01*
X107210000Y-43249000D01*
X107210000Y-41949000D01*
X107460000Y-41949000D01*
X107460000Y-43249000D01*
G37*
G36*
X107960000Y-43249000D02*
G01*
X107710000Y-43249000D01*
X107710000Y-41949000D01*
X107960000Y-41949000D01*
X107960000Y-43249000D01*
G37*
G36*
X108960000Y-43249000D02*
G01*
X108710000Y-43249000D01*
X108710000Y-41949000D01*
X108960000Y-41949000D01*
X108960000Y-43249000D01*
G37*
G36*
X108460000Y-43249000D02*
G01*
X108210000Y-43249000D01*
X108210000Y-41949000D01*
X108460000Y-41949000D01*
X108460000Y-43249000D01*
G37*
G36*
X101869000Y-42793000D02*
G01*
X100569000Y-42793000D01*
X100569000Y-42093000D01*
X101869000Y-42093000D01*
X101869000Y-42793000D01*
G37*
G36*
X150372923Y-41959607D02*
G01*
X150401611Y-41971491D01*
X150418420Y-41978453D01*
X150459366Y-42005812D01*
X150494188Y-42040634D01*
X150521547Y-42081580D01*
X150540393Y-42127078D01*
X150550000Y-42175377D01*
X150550000Y-42224623D01*
X150540393Y-42272922D01*
X150521547Y-42318420D01*
X150494188Y-42359366D01*
X150459366Y-42394188D01*
X150418420Y-42421547D01*
X150401611Y-42428509D01*
X150372923Y-42440393D01*
X150324624Y-42450000D01*
X150275376Y-42450000D01*
X150227077Y-42440393D01*
X150198389Y-42428509D01*
X150181580Y-42421547D01*
X150140634Y-42394188D01*
X150105812Y-42359366D01*
X150078453Y-42318420D01*
X150059607Y-42272922D01*
X150050000Y-42224623D01*
X150050000Y-42175377D01*
X150059607Y-42127078D01*
X150078453Y-42081580D01*
X150105812Y-42040634D01*
X150140634Y-42005812D01*
X150181580Y-41978453D01*
X150198389Y-41971491D01*
X150227077Y-41959607D01*
X150275376Y-41950000D01*
X150324624Y-41950000D01*
X150372923Y-41959607D01*
G37*
G36*
X49772923Y-41959607D02*
G01*
X49801611Y-41971491D01*
X49818420Y-41978453D01*
X49859366Y-42005812D01*
X49894188Y-42040634D01*
X49921547Y-42081580D01*
X49940393Y-42127078D01*
X49950000Y-42175377D01*
X49950000Y-42224623D01*
X49940393Y-42272922D01*
X49921547Y-42318420D01*
X49894188Y-42359366D01*
X49859366Y-42394188D01*
X49818420Y-42421547D01*
X49801611Y-42428509D01*
X49772923Y-42440393D01*
X49724624Y-42450000D01*
X49675376Y-42450000D01*
X49627077Y-42440393D01*
X49598389Y-42428509D01*
X49581580Y-42421547D01*
X49540634Y-42394188D01*
X49505812Y-42359366D01*
X49478453Y-42318420D01*
X49459607Y-42272922D01*
X49450000Y-42224623D01*
X49450000Y-42175377D01*
X49459607Y-42127078D01*
X49478453Y-42081580D01*
X49505812Y-42040634D01*
X49540634Y-42005812D01*
X49581580Y-41978453D01*
X49598389Y-41971491D01*
X49627077Y-41959607D01*
X49675376Y-41950000D01*
X49724624Y-41950000D01*
X49772923Y-41959607D01*
G37*
G36*
X125125000Y-41718000D02*
G01*
X123875000Y-41718000D01*
X123875000Y-40718000D01*
X125125000Y-40718000D01*
X125125000Y-41718000D01*
G37*
G36*
X150372923Y-41159607D02*
G01*
X150401611Y-41171491D01*
X150418420Y-41178453D01*
X150459366Y-41205812D01*
X150494188Y-41240634D01*
X150521547Y-41281580D01*
X150540393Y-41327078D01*
X150550000Y-41375377D01*
X150550000Y-41424623D01*
X150540393Y-41472922D01*
X150521547Y-41518420D01*
X150494188Y-41559366D01*
X150459366Y-41594188D01*
X150418420Y-41621547D01*
X150401611Y-41628509D01*
X150372923Y-41640393D01*
X150324624Y-41650000D01*
X150275376Y-41650000D01*
X150227077Y-41640393D01*
X150198389Y-41628509D01*
X150181580Y-41621547D01*
X150140634Y-41594188D01*
X150105812Y-41559366D01*
X150078453Y-41518420D01*
X150059607Y-41472922D01*
X150050000Y-41424623D01*
X150050000Y-41375377D01*
X150059607Y-41327078D01*
X150078453Y-41281580D01*
X150105812Y-41240634D01*
X150140634Y-41205812D01*
X150181580Y-41178453D01*
X150198389Y-41171491D01*
X150227077Y-41159607D01*
X150275376Y-41150000D01*
X150324624Y-41150000D01*
X150372923Y-41159607D01*
G37*
G36*
X49772923Y-41159607D02*
G01*
X49801611Y-41171491D01*
X49818420Y-41178453D01*
X49859366Y-41205812D01*
X49894188Y-41240634D01*
X49921547Y-41281580D01*
X49940393Y-41327078D01*
X49950000Y-41375377D01*
X49950000Y-41424623D01*
X49940393Y-41472922D01*
X49921547Y-41518420D01*
X49894188Y-41559366D01*
X49859366Y-41594188D01*
X49818420Y-41621547D01*
X49801611Y-41628509D01*
X49772923Y-41640393D01*
X49724624Y-41650000D01*
X49675376Y-41650000D01*
X49627077Y-41640393D01*
X49598389Y-41628509D01*
X49581580Y-41621547D01*
X49540634Y-41594188D01*
X49505812Y-41559366D01*
X49478453Y-41518420D01*
X49459607Y-41472922D01*
X49450000Y-41424623D01*
X49450000Y-41375377D01*
X49459607Y-41327078D01*
X49478453Y-41281580D01*
X49505812Y-41240634D01*
X49540634Y-41205812D01*
X49581580Y-41178453D01*
X49598389Y-41171491D01*
X49627077Y-41159607D01*
X49675376Y-41150000D01*
X49724624Y-41150000D01*
X49772923Y-41159607D01*
G37*
G36*
X140858000Y-41645000D02*
G01*
X139558000Y-41645000D01*
X139558000Y-40945000D01*
X140858000Y-40945000D01*
X140858000Y-41645000D01*
G37*
G36*
X138953000Y-41645000D02*
G01*
X137653000Y-41645000D01*
X137653000Y-40945000D01*
X138953000Y-40945000D01*
X138953000Y-41645000D01*
G37*
G36*
X134900000Y-41270000D02*
G01*
X129100000Y-41270000D01*
X129100000Y-40570000D01*
X134900000Y-40570000D01*
X134900000Y-41270000D01*
G37*
G36*
X69302569Y-39597918D02*
G01*
X69334923Y-39607733D01*
X69364744Y-39623672D01*
X69390879Y-39645121D01*
X69412328Y-39671256D01*
X69428267Y-39701077D01*
X69438082Y-39733431D01*
X69442000Y-39773216D01*
X69442000Y-40714784D01*
X69438082Y-40754569D01*
X69428267Y-40786923D01*
X69412328Y-40816744D01*
X69390879Y-40842879D01*
X69364744Y-40864328D01*
X69334923Y-40880267D01*
X69302569Y-40890082D01*
X69262784Y-40894000D01*
X66221216Y-40894000D01*
X66181431Y-40890082D01*
X66149077Y-40880267D01*
X66119256Y-40864328D01*
X66093121Y-40842879D01*
X66071672Y-40816744D01*
X66055733Y-40786923D01*
X66045918Y-40754569D01*
X66042000Y-40714784D01*
X66042000Y-39773216D01*
X66045918Y-39733431D01*
X66055733Y-39701077D01*
X66071672Y-39671256D01*
X66093121Y-39645121D01*
X66119256Y-39623672D01*
X66149077Y-39607733D01*
X66181431Y-39597918D01*
X66221216Y-39594000D01*
X69262784Y-39594000D01*
X69302569Y-39597918D01*
G37*
G36*
X49772923Y-40359607D02*
G01*
X49801611Y-40371491D01*
X49818420Y-40378453D01*
X49859366Y-40405812D01*
X49894188Y-40440634D01*
X49921547Y-40481580D01*
X49926484Y-40493500D01*
X49940393Y-40527077D01*
X49950000Y-40575376D01*
X49950000Y-40624624D01*
X49940393Y-40672923D01*
X49928509Y-40701611D01*
X49921547Y-40718420D01*
X49894188Y-40759366D01*
X49859366Y-40794188D01*
X49818420Y-40821547D01*
X49801611Y-40828509D01*
X49772923Y-40840393D01*
X49724624Y-40850000D01*
X49675376Y-40850000D01*
X49627077Y-40840393D01*
X49598389Y-40828509D01*
X49581580Y-40821547D01*
X49540634Y-40794188D01*
X49505812Y-40759366D01*
X49478453Y-40718420D01*
X49471491Y-40701611D01*
X49459607Y-40672923D01*
X49450000Y-40624624D01*
X49450000Y-40575376D01*
X49459607Y-40527077D01*
X49473516Y-40493500D01*
X49478453Y-40481580D01*
X49505812Y-40440634D01*
X49540634Y-40405812D01*
X49581580Y-40378453D01*
X49598389Y-40371491D01*
X49627077Y-40359607D01*
X49675376Y-40350000D01*
X49724624Y-40350000D01*
X49772923Y-40359607D01*
G37*
G36*
X150372923Y-40359607D02*
G01*
X150401611Y-40371491D01*
X150418420Y-40378453D01*
X150459366Y-40405812D01*
X150494188Y-40440634D01*
X150521547Y-40481580D01*
X150526484Y-40493500D01*
X150540393Y-40527077D01*
X150550000Y-40575376D01*
X150550000Y-40624624D01*
X150540393Y-40672923D01*
X150528509Y-40701611D01*
X150521547Y-40718420D01*
X150494188Y-40759366D01*
X150459366Y-40794188D01*
X150418420Y-40821547D01*
X150401611Y-40828509D01*
X150372923Y-40840393D01*
X150324624Y-40850000D01*
X150275376Y-40850000D01*
X150227077Y-40840393D01*
X150198389Y-40828509D01*
X150181580Y-40821547D01*
X150140634Y-40794188D01*
X150105812Y-40759366D01*
X150078453Y-40718420D01*
X150071491Y-40701611D01*
X150059607Y-40672923D01*
X150050000Y-40624624D01*
X150050000Y-40575376D01*
X150059607Y-40527077D01*
X150073516Y-40493500D01*
X150078453Y-40481580D01*
X150105812Y-40440634D01*
X150140634Y-40405812D01*
X150181580Y-40378453D01*
X150198389Y-40371491D01*
X150227077Y-40359607D01*
X150275376Y-40350000D01*
X150324624Y-40350000D01*
X150372923Y-40359607D01*
G37*
G36*
X96600000Y-40675600D02*
G01*
X95860000Y-40675600D01*
X95860000Y-38275600D01*
X96600000Y-38275600D01*
X96600000Y-40675600D01*
G37*
G36*
X100410000Y-40675600D02*
G01*
X99670000Y-40675600D01*
X99670000Y-38275600D01*
X100410000Y-38275600D01*
X100410000Y-40675600D01*
G37*
G36*
X99140000Y-40675600D02*
G01*
X98400000Y-40675600D01*
X98400000Y-38275600D01*
X99140000Y-38275600D01*
X99140000Y-40675600D01*
G37*
G36*
X97870000Y-40675600D02*
G01*
X97130000Y-40675600D01*
X97130000Y-38275600D01*
X97870000Y-38275600D01*
X97870000Y-40675600D01*
G37*
G36*
X95330000Y-40675600D02*
G01*
X94590000Y-40675600D01*
X94590000Y-38275600D01*
X95330000Y-38275600D01*
X95330000Y-40675600D01*
G37*
G36*
X128494799Y-39947489D02*
G01*
X128553945Y-39971988D01*
X128607176Y-40007556D01*
X128652444Y-40052824D01*
X128688012Y-40106055D01*
X128712511Y-40165201D01*
X128725000Y-40227990D01*
X128725000Y-40292010D01*
X128712511Y-40354799D01*
X128688012Y-40413945D01*
X128652444Y-40467176D01*
X128607176Y-40512444D01*
X128553945Y-40548012D01*
X128494799Y-40572511D01*
X128432010Y-40585000D01*
X128367990Y-40585000D01*
X128305201Y-40572511D01*
X128246055Y-40548012D01*
X128192824Y-40512444D01*
X128147556Y-40467176D01*
X128111988Y-40413945D01*
X128087489Y-40354799D01*
X128075000Y-40292010D01*
X128075000Y-40227990D01*
X128087489Y-40165201D01*
X128111988Y-40106055D01*
X128147556Y-40052824D01*
X128192824Y-40007556D01*
X128246055Y-39971988D01*
X128305201Y-39947489D01*
X128367990Y-39935000D01*
X128432010Y-39935000D01*
X128494799Y-39947489D01*
G37*
G36*
X135813712Y-39939702D02*
G01*
X135874972Y-39958286D01*
X135931436Y-39988466D01*
X135980922Y-40029078D01*
X136021534Y-40078564D01*
X136051714Y-40135028D01*
X136070298Y-40196288D01*
X136076572Y-40260000D01*
X136070298Y-40323712D01*
X136051714Y-40384972D01*
X136021534Y-40441436D01*
X135980922Y-40490922D01*
X135931436Y-40531534D01*
X135874972Y-40561714D01*
X135813712Y-40580298D01*
X135765965Y-40585000D01*
X135434035Y-40585000D01*
X135386288Y-40580298D01*
X135325028Y-40561714D01*
X135268564Y-40531534D01*
X135219078Y-40490922D01*
X135178466Y-40441436D01*
X135148286Y-40384972D01*
X135129702Y-40323712D01*
X135123428Y-40260000D01*
X135129702Y-40196288D01*
X135148286Y-40135028D01*
X135178466Y-40078564D01*
X135219078Y-40029078D01*
X135268564Y-39988466D01*
X135325028Y-39958286D01*
X135386288Y-39939702D01*
X135434035Y-39935000D01*
X135765965Y-39935000D01*
X135813712Y-39939702D01*
G37*
G36*
X73815000Y-40495000D02*
G01*
X71315000Y-40495000D01*
X71315000Y-39495000D01*
X73815000Y-39495000D01*
X73815000Y-40495000D01*
G37*
G36*
X89240524Y-39247455D02*
G01*
X89273238Y-39257379D01*
X89303385Y-39273493D01*
X89329815Y-39295185D01*
X89351507Y-39321615D01*
X89367621Y-39351762D01*
X89377545Y-39384476D01*
X89381500Y-39424638D01*
X89381500Y-40312362D01*
X89377545Y-40352524D01*
X89367621Y-40385238D01*
X89351507Y-40415385D01*
X89329815Y-40441815D01*
X89303385Y-40463507D01*
X89273238Y-40479621D01*
X89240524Y-40489545D01*
X89200362Y-40493500D01*
X87812638Y-40493500D01*
X87772476Y-40489545D01*
X87739762Y-40479621D01*
X87709615Y-40463507D01*
X87683185Y-40441815D01*
X87661493Y-40415385D01*
X87645379Y-40385238D01*
X87635455Y-40352524D01*
X87631500Y-40312362D01*
X87631500Y-39424638D01*
X87635455Y-39384476D01*
X87645379Y-39351762D01*
X87661493Y-39321615D01*
X87683185Y-39295185D01*
X87709615Y-39273493D01*
X87739762Y-39257379D01*
X87772476Y-39247455D01*
X87812638Y-39243500D01*
X89200362Y-39243500D01*
X89240524Y-39247455D01*
G37*
G36*
X57504310Y-38069567D02*
G01*
X57533232Y-38078341D01*
X57559884Y-38092586D01*
X57583244Y-38111756D01*
X57602414Y-38135116D01*
X57616659Y-38161768D01*
X57625433Y-38190690D01*
X57629000Y-38226904D01*
X57629000Y-40005096D01*
X57625433Y-40041310D01*
X57616659Y-40070232D01*
X57602414Y-40096884D01*
X57583244Y-40120244D01*
X57559884Y-40139414D01*
X57533232Y-40153659D01*
X57504310Y-40162433D01*
X57468096Y-40166000D01*
X53289904Y-40166000D01*
X53253690Y-40162433D01*
X53224768Y-40153659D01*
X53198116Y-40139414D01*
X53174756Y-40120244D01*
X53155586Y-40096884D01*
X53141341Y-40070232D01*
X53132567Y-40041310D01*
X53129000Y-40005096D01*
X53129000Y-38226904D01*
X53132567Y-38190690D01*
X53141341Y-38161768D01*
X53155586Y-38135116D01*
X53174756Y-38111756D01*
X53198116Y-38092586D01*
X53224768Y-38078341D01*
X53253690Y-38069567D01*
X53289904Y-38066000D01*
X57468096Y-38066000D01*
X57504310Y-38069567D01*
G37*
G36*
X64704310Y-38069567D02*
G01*
X64733232Y-38078341D01*
X64759884Y-38092586D01*
X64783244Y-38111756D01*
X64802414Y-38135116D01*
X64816659Y-38161768D01*
X64825433Y-38190690D01*
X64829000Y-38226904D01*
X64829000Y-40005096D01*
X64825433Y-40041310D01*
X64816659Y-40070232D01*
X64802414Y-40096884D01*
X64783244Y-40120244D01*
X64759884Y-40139414D01*
X64733232Y-40153659D01*
X64704310Y-40162433D01*
X64668096Y-40166000D01*
X60489904Y-40166000D01*
X60453690Y-40162433D01*
X60424768Y-40153659D01*
X60398116Y-40139414D01*
X60374756Y-40120244D01*
X60355586Y-40096884D01*
X60341341Y-40070232D01*
X60332567Y-40041310D01*
X60329000Y-40005096D01*
X60329000Y-38226904D01*
X60332567Y-38190690D01*
X60341341Y-38161768D01*
X60355586Y-38135116D01*
X60374756Y-38111756D01*
X60398116Y-38092586D01*
X60424768Y-38078341D01*
X60453690Y-38069567D01*
X60489904Y-38066000D01*
X64668096Y-38066000D01*
X64704310Y-38069567D01*
G37*
G36*
X122518000Y-40091000D02*
G01*
X120486000Y-40091000D01*
X120486000Y-39075000D01*
X122518000Y-39075000D01*
X122518000Y-40091000D01*
G37*
G36*
X150372923Y-39559607D02*
G01*
X150398013Y-39570000D01*
X150418420Y-39578453D01*
X150459366Y-39605812D01*
X150494188Y-39640634D01*
X150521547Y-39681580D01*
X150540393Y-39727078D01*
X150550000Y-39775377D01*
X150550000Y-39824623D01*
X150540393Y-39872922D01*
X150521547Y-39918420D01*
X150494188Y-39959366D01*
X150459366Y-39994188D01*
X150418420Y-40021547D01*
X150401611Y-40028509D01*
X150372923Y-40040393D01*
X150324624Y-40050000D01*
X150275376Y-40050000D01*
X150227077Y-40040393D01*
X150198389Y-40028509D01*
X150181580Y-40021547D01*
X150140634Y-39994188D01*
X150105812Y-39959366D01*
X150078453Y-39918420D01*
X150059607Y-39872922D01*
X150050000Y-39824623D01*
X150050000Y-39775377D01*
X150059607Y-39727078D01*
X150078453Y-39681580D01*
X150105812Y-39640634D01*
X150140634Y-39605812D01*
X150181580Y-39578453D01*
X150201987Y-39570000D01*
X150227077Y-39559607D01*
X150275376Y-39550000D01*
X150324624Y-39550000D01*
X150372923Y-39559607D01*
G37*
G36*
X49772923Y-39559607D02*
G01*
X49798013Y-39570000D01*
X49818420Y-39578453D01*
X49859366Y-39605812D01*
X49894188Y-39640634D01*
X49921547Y-39681580D01*
X49940393Y-39727078D01*
X49950000Y-39775377D01*
X49950000Y-39824623D01*
X49940393Y-39872922D01*
X49921547Y-39918420D01*
X49894188Y-39959366D01*
X49859366Y-39994188D01*
X49818420Y-40021547D01*
X49801611Y-40028509D01*
X49772923Y-40040393D01*
X49724624Y-40050000D01*
X49675376Y-40050000D01*
X49627077Y-40040393D01*
X49598389Y-40028509D01*
X49581580Y-40021547D01*
X49540634Y-39994188D01*
X49505812Y-39959366D01*
X49478453Y-39918420D01*
X49459607Y-39872922D01*
X49450000Y-39824623D01*
X49450000Y-39775377D01*
X49459607Y-39727078D01*
X49478453Y-39681580D01*
X49505812Y-39640634D01*
X49540634Y-39605812D01*
X49581580Y-39578453D01*
X49601987Y-39570000D01*
X49627077Y-39559607D01*
X49675376Y-39550000D01*
X49724624Y-39550000D01*
X49772923Y-39559607D01*
G37*
G36*
X138953000Y-39745000D02*
G01*
X137653000Y-39745000D01*
X137653000Y-39045000D01*
X138953000Y-39045000D01*
X138953000Y-39745000D01*
G37*
G36*
X140858000Y-39745000D02*
G01*
X139558000Y-39745000D01*
X139558000Y-39045000D01*
X140858000Y-39045000D01*
X140858000Y-39745000D01*
G37*
G36*
X125125000Y-39718000D02*
G01*
X123875000Y-39718000D01*
X123875000Y-38718000D01*
X125125000Y-38718000D01*
X125125000Y-39718000D01*
G37*
G36*
X127948413Y-38315788D02*
G01*
X128023813Y-38338660D01*
X128088507Y-38373240D01*
X128093304Y-38375804D01*
X128154211Y-38425789D01*
X128204197Y-38486697D01*
X128241340Y-38556186D01*
X128264212Y-38631586D01*
X128270000Y-38690353D01*
X128270000Y-39329647D01*
X128264212Y-39388414D01*
X128241340Y-39463814D01*
X128204197Y-39533303D01*
X128154211Y-39594211D01*
X128093303Y-39644197D01*
X128023814Y-39681340D01*
X127948414Y-39704212D01*
X127870000Y-39711935D01*
X127791587Y-39704212D01*
X127716187Y-39681340D01*
X127646698Y-39644197D01*
X127585790Y-39594211D01*
X127535804Y-39533303D01*
X127498661Y-39463814D01*
X127475789Y-39388414D01*
X127472179Y-39351762D01*
X127470000Y-39329645D01*
X127470000Y-38690354D01*
X127475788Y-38631591D01*
X127475788Y-38631587D01*
X127498660Y-38556187D01*
X127535803Y-38486698D01*
X127535804Y-38486696D01*
X127585789Y-38425789D01*
X127646696Y-38375804D01*
X127646695Y-38375804D01*
X127646697Y-38375803D01*
X127716186Y-38338660D01*
X127791586Y-38315788D01*
X127870000Y-38308065D01*
X127948413Y-38315788D01*
G37*
G36*
X136208413Y-38315788D02*
G01*
X136283813Y-38338660D01*
X136348507Y-38373240D01*
X136353304Y-38375804D01*
X136414211Y-38425789D01*
X136464197Y-38486697D01*
X136501340Y-38556186D01*
X136524212Y-38631586D01*
X136530000Y-38690353D01*
X136530000Y-39329647D01*
X136524212Y-39388414D01*
X136501340Y-39463814D01*
X136464197Y-39533303D01*
X136414211Y-39594211D01*
X136353303Y-39644197D01*
X136283814Y-39681340D01*
X136208414Y-39704212D01*
X136130000Y-39711935D01*
X136051587Y-39704212D01*
X135976187Y-39681340D01*
X135906698Y-39644197D01*
X135845790Y-39594211D01*
X135795804Y-39533303D01*
X135758661Y-39463814D01*
X135735789Y-39388414D01*
X135732179Y-39351762D01*
X135730000Y-39329645D01*
X135730000Y-38690354D01*
X135735788Y-38631591D01*
X135735788Y-38631587D01*
X135758660Y-38556187D01*
X135795803Y-38486698D01*
X135795804Y-38486696D01*
X135845789Y-38425789D01*
X135906696Y-38375804D01*
X135906695Y-38375804D01*
X135906697Y-38375803D01*
X135976186Y-38338660D01*
X136051586Y-38315788D01*
X136130000Y-38308065D01*
X136208413Y-38315788D01*
G37*
G36*
X134650000Y-39570000D02*
G01*
X128850000Y-39570000D01*
X128850000Y-38870000D01*
X134650000Y-38870000D01*
X134650000Y-39570000D01*
G37*
G36*
X107291000Y-39446000D02*
G01*
X106291000Y-39446000D01*
X106291000Y-38196000D01*
X107291000Y-38196000D01*
X107291000Y-39446000D01*
G37*
G36*
X108974000Y-39446000D02*
G01*
X107974000Y-39446000D01*
X107974000Y-38196000D01*
X108974000Y-38196000D01*
X108974000Y-39446000D01*
G37*
G36*
X110974000Y-39446000D02*
G01*
X109974000Y-39446000D01*
X109974000Y-38196000D01*
X110974000Y-38196000D01*
X110974000Y-39446000D01*
G37*
G36*
X105291000Y-39446000D02*
G01*
X104291000Y-39446000D01*
X104291000Y-38196000D01*
X105291000Y-38196000D01*
X105291000Y-39446000D01*
G37*
G36*
X49772923Y-38759607D02*
G01*
X49801611Y-38771491D01*
X49818420Y-38778453D01*
X49859366Y-38805812D01*
X49894188Y-38840634D01*
X49921547Y-38881580D01*
X49921548Y-38881583D01*
X49940393Y-38927077D01*
X49950000Y-38975376D01*
X49950000Y-39024624D01*
X49940393Y-39072923D01*
X49928509Y-39101611D01*
X49921547Y-39118420D01*
X49894188Y-39159366D01*
X49859366Y-39194188D01*
X49818420Y-39221547D01*
X49801611Y-39228509D01*
X49772923Y-39240393D01*
X49724624Y-39250000D01*
X49675376Y-39250000D01*
X49627077Y-39240393D01*
X49598389Y-39228509D01*
X49581580Y-39221547D01*
X49540634Y-39194188D01*
X49505812Y-39159366D01*
X49478453Y-39118420D01*
X49471491Y-39101611D01*
X49459607Y-39072923D01*
X49450000Y-39024624D01*
X49450000Y-38975376D01*
X49459607Y-38927077D01*
X49478452Y-38881583D01*
X49478453Y-38881580D01*
X49505812Y-38840634D01*
X49540634Y-38805812D01*
X49581580Y-38778453D01*
X49598389Y-38771491D01*
X49627077Y-38759607D01*
X49675376Y-38750000D01*
X49724624Y-38750000D01*
X49772923Y-38759607D01*
G37*
G36*
X150372923Y-38759607D02*
G01*
X150401611Y-38771491D01*
X150418420Y-38778453D01*
X150459366Y-38805812D01*
X150494188Y-38840634D01*
X150521547Y-38881580D01*
X150521548Y-38881583D01*
X150540393Y-38927077D01*
X150550000Y-38975376D01*
X150550000Y-39024624D01*
X150540393Y-39072923D01*
X150528509Y-39101611D01*
X150521547Y-39118420D01*
X150494188Y-39159366D01*
X150459366Y-39194188D01*
X150418420Y-39221547D01*
X150401611Y-39228509D01*
X150372923Y-39240393D01*
X150324624Y-39250000D01*
X150275376Y-39250000D01*
X150227077Y-39240393D01*
X150198389Y-39228509D01*
X150181580Y-39221547D01*
X150140634Y-39194188D01*
X150105812Y-39159366D01*
X150078453Y-39118420D01*
X150071491Y-39101611D01*
X150059607Y-39072923D01*
X150050000Y-39024624D01*
X150050000Y-38975376D01*
X150059607Y-38927077D01*
X150078452Y-38881583D01*
X150078453Y-38881580D01*
X150105812Y-38840634D01*
X150140634Y-38805812D01*
X150181580Y-38778453D01*
X150198389Y-38771491D01*
X150227077Y-38759607D01*
X150275376Y-38750000D01*
X150324624Y-38750000D01*
X150372923Y-38759607D01*
G37*
G36*
X115914000Y-39125800D02*
G01*
X113882000Y-39125800D01*
X113882000Y-35468200D01*
X115914000Y-35468200D01*
X115914000Y-39125800D01*
G37*
G36*
X125295000Y-38145000D02*
G01*
X123695000Y-38145000D01*
X123695000Y-37145000D01*
X125295000Y-37145000D01*
X125295000Y-38145000D01*
G37*
G36*
X140627000Y-38145000D02*
G01*
X139027000Y-38145000D01*
X139027000Y-37145000D01*
X140627000Y-37145000D01*
X140627000Y-38145000D01*
G37*
G36*
X122518000Y-37805000D02*
G01*
X120486000Y-37805000D01*
X120486000Y-36789000D01*
X122518000Y-36789000D01*
X122518000Y-37805000D01*
G37*
G36*
X89240524Y-36447455D02*
G01*
X89273238Y-36457379D01*
X89303385Y-36473493D01*
X89329815Y-36495185D01*
X89351507Y-36521615D01*
X89367621Y-36551762D01*
X89377545Y-36584476D01*
X89381500Y-36624638D01*
X89381500Y-37512362D01*
X89377545Y-37552524D01*
X89367621Y-37585238D01*
X89351507Y-37615385D01*
X89329815Y-37641815D01*
X89303385Y-37663507D01*
X89273238Y-37679621D01*
X89240524Y-37689545D01*
X89200362Y-37693500D01*
X87812638Y-37693500D01*
X87772476Y-37689545D01*
X87739762Y-37679621D01*
X87709615Y-37663507D01*
X87683185Y-37641815D01*
X87661493Y-37615385D01*
X87645379Y-37585238D01*
X87635455Y-37552524D01*
X87631500Y-37512362D01*
X87631500Y-36624638D01*
X87635455Y-36584476D01*
X87645379Y-36551762D01*
X87661493Y-36521615D01*
X87683185Y-36495185D01*
X87709615Y-36473493D01*
X87739762Y-36457379D01*
X87772476Y-36447455D01*
X87812638Y-36443500D01*
X89200362Y-36443500D01*
X89240524Y-36447455D01*
G37*
G36*
X112152000Y-37523000D02*
G01*
X110352000Y-37523000D01*
X110352000Y-36523000D01*
X112152000Y-36523000D01*
X112152000Y-37523000D01*
G37*
G36*
X109450000Y-37414000D02*
G01*
X108450000Y-37414000D01*
X108450000Y-36164000D01*
X109450000Y-36164000D01*
X109450000Y-37414000D01*
G37*
G36*
X107450000Y-37414000D02*
G01*
X106450000Y-37414000D01*
X106450000Y-36164000D01*
X107450000Y-36164000D01*
X107450000Y-37414000D01*
G37*
G36*
X157247764Y-34754402D02*
G01*
X157370445Y-34778805D01*
X157601571Y-34874541D01*
X157706279Y-34944505D01*
X157769091Y-34986474D01*
X157809578Y-35013527D01*
X157986473Y-35190422D01*
X158125459Y-35398429D01*
X158221195Y-35629555D01*
X158270000Y-35874916D01*
X158270000Y-36125084D01*
X158221195Y-36370445D01*
X158183052Y-36462530D01*
X158125460Y-36601569D01*
X158009177Y-36775600D01*
X157986473Y-36809578D01*
X157809578Y-36986473D01*
X157601571Y-37125459D01*
X157370445Y-37221195D01*
X157250768Y-37245000D01*
X157125085Y-37270000D01*
X156874915Y-37270000D01*
X156749232Y-37245000D01*
X156629555Y-37221195D01*
X156398429Y-37125459D01*
X156190422Y-36986473D01*
X156013527Y-36809578D01*
X155990824Y-36775600D01*
X155874540Y-36601569D01*
X155816948Y-36462530D01*
X155778805Y-36370445D01*
X155730000Y-36125084D01*
X155730000Y-35874916D01*
X155778805Y-35629555D01*
X155874541Y-35398429D01*
X156013527Y-35190422D01*
X156190422Y-35013527D01*
X156230910Y-34986474D01*
X156293721Y-34944505D01*
X156398429Y-34874541D01*
X156629555Y-34778805D01*
X156752236Y-34754402D01*
X156874915Y-34730000D01*
X157125085Y-34730000D01*
X157247764Y-34754402D01*
G37*
G36*
X43247764Y-34754402D02*
G01*
X43370445Y-34778805D01*
X43601571Y-34874541D01*
X43706279Y-34944505D01*
X43769091Y-34986474D01*
X43809578Y-35013527D01*
X43986473Y-35190422D01*
X44125459Y-35398429D01*
X44221195Y-35629555D01*
X44270000Y-35874916D01*
X44270000Y-36125084D01*
X44221195Y-36370445D01*
X44183052Y-36462530D01*
X44125460Y-36601569D01*
X44009177Y-36775600D01*
X43986473Y-36809578D01*
X43809578Y-36986473D01*
X43601571Y-37125459D01*
X43370445Y-37221195D01*
X43250768Y-37245000D01*
X43125085Y-37270000D01*
X42874915Y-37270000D01*
X42749232Y-37245000D01*
X42629555Y-37221195D01*
X42398429Y-37125459D01*
X42190422Y-36986473D01*
X42013527Y-36809578D01*
X41990824Y-36775600D01*
X41874540Y-36601569D01*
X41816948Y-36462530D01*
X41778805Y-36370445D01*
X41730000Y-36125084D01*
X41730000Y-35874916D01*
X41778805Y-35629555D01*
X41874541Y-35398429D01*
X42013527Y-35190422D01*
X42190422Y-35013527D01*
X42230910Y-34986474D01*
X42293721Y-34944505D01*
X42398429Y-34874541D01*
X42629555Y-34778805D01*
X42752236Y-34754402D01*
X42874915Y-34730000D01*
X43125085Y-34730000D01*
X43247764Y-34754402D01*
G37*
G36*
X73425000Y-37245000D02*
G01*
X70925000Y-37245000D01*
X70925000Y-34945000D01*
X73425000Y-34945000D01*
X73425000Y-37245000D01*
G37*
G36*
X69125000Y-37245000D02*
G01*
X66625000Y-37245000D01*
X66625000Y-34945000D01*
X69125000Y-34945000D01*
X69125000Y-37245000D01*
G37*
G36*
X96600000Y-36775600D02*
G01*
X95860000Y-36775600D01*
X95860000Y-34375600D01*
X96600000Y-34375600D01*
X96600000Y-36775600D01*
G37*
G36*
X100410000Y-36775600D02*
G01*
X99670000Y-36775600D01*
X99670000Y-34375600D01*
X100410000Y-34375600D01*
X100410000Y-36775600D01*
G37*
G36*
X99140000Y-36775600D02*
G01*
X98400000Y-36775600D01*
X98400000Y-34375600D01*
X99140000Y-34375600D01*
X99140000Y-36775600D01*
G37*
G36*
X97870000Y-36775600D02*
G01*
X97130000Y-36775600D01*
X97130000Y-34375600D01*
X97870000Y-34375600D01*
X97870000Y-36775600D01*
G37*
G36*
X95330000Y-36775600D02*
G01*
X94590000Y-36775600D01*
X94590000Y-34375600D01*
X95330000Y-34375600D01*
X95330000Y-36775600D01*
G37*
G36*
X122518000Y-35519000D02*
G01*
X120486000Y-35519000D01*
X120486000Y-34503000D01*
X122518000Y-34503000D01*
X122518000Y-35519000D01*
G37*
G36*
X109450000Y-35382000D02*
G01*
X108450000Y-35382000D01*
X108450000Y-34132000D01*
X109450000Y-34132000D01*
X109450000Y-35382000D01*
G37*
G36*
X107450000Y-35382000D02*
G01*
X106450000Y-35382000D01*
X106450000Y-34132000D01*
X107450000Y-34132000D01*
X107450000Y-35382000D01*
G37*
G36*
X147247764Y-32754402D02*
G01*
X147370445Y-32778805D01*
X147601571Y-32874541D01*
X147809578Y-33013527D01*
X147986473Y-33190422D01*
X148125459Y-33398429D01*
X148202037Y-33583303D01*
X148221195Y-33629556D01*
X148270000Y-33874915D01*
X148270000Y-34125085D01*
X148245598Y-34247764D01*
X148221195Y-34370445D01*
X148166289Y-34503000D01*
X148125460Y-34601569D01*
X147986474Y-34809577D01*
X147809577Y-34986474D01*
X147769089Y-35013527D01*
X147601571Y-35125459D01*
X147370445Y-35221195D01*
X147247765Y-35245597D01*
X147125085Y-35270000D01*
X146874915Y-35270000D01*
X146752236Y-35245598D01*
X146629555Y-35221195D01*
X146398429Y-35125459D01*
X146230911Y-35013527D01*
X146190423Y-34986474D01*
X146013526Y-34809577D01*
X145874540Y-34601569D01*
X145833711Y-34503000D01*
X145778805Y-34370445D01*
X145754402Y-34247764D01*
X145730000Y-34125085D01*
X145730000Y-33874915D01*
X145778805Y-33629556D01*
X145797964Y-33583303D01*
X145874541Y-33398429D01*
X146013527Y-33190422D01*
X146190422Y-33013527D01*
X146398429Y-32874541D01*
X146629555Y-32778805D01*
X146752236Y-32754402D01*
X146874915Y-32730000D01*
X147125085Y-32730000D01*
X147247764Y-32754402D01*
G37*
G36*
X125295000Y-35145000D02*
G01*
X123695000Y-35145000D01*
X123695000Y-34145000D01*
X125295000Y-34145000D01*
X125295000Y-35145000D01*
G37*
G36*
X140627000Y-35145000D02*
G01*
X139027000Y-35145000D01*
X139027000Y-34145000D01*
X140627000Y-34145000D01*
X140627000Y-35145000D01*
G37*
G36*
X112152000Y-35023000D02*
G01*
X110352000Y-35023000D01*
X110352000Y-34023000D01*
X112152000Y-34023000D01*
X112152000Y-35023000D01*
G37*
G36*
X136568413Y-32365788D02*
G01*
X136643813Y-32388660D01*
X136708507Y-32423240D01*
X136713304Y-32425804D01*
X136774211Y-32475789D01*
X136824197Y-32536697D01*
X136861340Y-32606186D01*
X136884212Y-32681586D01*
X136890000Y-32740353D01*
X136890000Y-33379647D01*
X136884212Y-33438414D01*
X136861340Y-33513814D01*
X136824197Y-33583303D01*
X136774211Y-33644211D01*
X136713303Y-33694197D01*
X136643814Y-33731340D01*
X136568414Y-33754212D01*
X136490000Y-33761935D01*
X136411587Y-33754212D01*
X136336187Y-33731340D01*
X136266698Y-33694197D01*
X136205790Y-33644211D01*
X136155804Y-33583303D01*
X136118661Y-33513814D01*
X136095789Y-33438414D01*
X136091851Y-33398431D01*
X136090000Y-33379645D01*
X136090000Y-32740354D01*
X136095788Y-32681591D01*
X136095788Y-32681587D01*
X136118660Y-32606187D01*
X136155803Y-32536698D01*
X136155804Y-32536696D01*
X136205789Y-32475789D01*
X136266696Y-32425804D01*
X136266695Y-32425804D01*
X136266697Y-32425803D01*
X136336186Y-32388660D01*
X136411586Y-32365788D01*
X136490000Y-32358065D01*
X136568413Y-32365788D01*
G37*
G36*
X127588413Y-32365788D02*
G01*
X127663813Y-32388660D01*
X127728507Y-32423240D01*
X127733304Y-32425804D01*
X127794211Y-32475789D01*
X127844197Y-32536697D01*
X127881340Y-32606186D01*
X127904212Y-32681586D01*
X127910000Y-32740353D01*
X127910000Y-33379647D01*
X127904212Y-33438414D01*
X127881340Y-33513814D01*
X127844197Y-33583303D01*
X127794211Y-33644211D01*
X127733303Y-33694197D01*
X127663814Y-33731340D01*
X127588414Y-33754212D01*
X127510000Y-33761935D01*
X127431587Y-33754212D01*
X127356187Y-33731340D01*
X127286698Y-33694197D01*
X127225790Y-33644211D01*
X127175804Y-33583303D01*
X127138661Y-33513814D01*
X127115789Y-33438414D01*
X127111851Y-33398431D01*
X127110000Y-33379645D01*
X127110000Y-32740354D01*
X127115788Y-32681591D01*
X127115788Y-32681587D01*
X127138660Y-32606187D01*
X127175803Y-32536698D01*
X127175804Y-32536696D01*
X127225789Y-32475789D01*
X127286696Y-32425804D01*
X127286695Y-32425804D01*
X127286697Y-32425803D01*
X127356186Y-32388660D01*
X127431586Y-32365788D01*
X127510000Y-32358065D01*
X127588413Y-32365788D01*
G37*
M02*
