G04 #@! TF.GenerationSoftware,KiCad,Pcbnew,5.1.5+dfsg1-2build2*
G04 #@! TF.CreationDate,2021-08-16T15:22:43+02:00*
G04 #@! TF.ProjectId,ModulAdapterMagnet,4d6f6475-6c41-4646-9170-7465724d6167,rev?*
G04 #@! TF.SameCoordinates,Original*
G04 #@! TF.FileFunction,Paste,Top*
G04 #@! TF.FilePolarity,Positive*
%FSLAX46Y46*%
G04 Gerber Fmt 4.6, Leading zero omitted, Abs format (unit mm)*
G04 Created by KiCad (PCBNEW 5.1.5+dfsg1-2build2) date 2021-08-16 15:22:43*
%MOMM*%
%LPD*%
G04 APERTURE LIST*
%ADD10C,0.100000*%
%ADD11R,4.800000X5.000000*%
%ADD12R,0.350000X2.000000*%
%ADD13R,2.600000X5.000000*%
%ADD14R,0.550000X0.270000*%
%ADD15R,0.270000X0.550000*%
%ADD16R,1.800000X1.800000*%
G04 APERTURE END LIST*
D10*
G36*
X87141452Y-87105402D02*
G01*
X87153586Y-87107202D01*
X87165486Y-87110182D01*
X87177035Y-87114315D01*
X87188125Y-87119560D01*
X87198646Y-87125866D01*
X87208499Y-87133174D01*
X87217588Y-87141412D01*
X87225826Y-87150501D01*
X87233134Y-87160354D01*
X87239440Y-87170875D01*
X87244685Y-87181965D01*
X87248818Y-87193514D01*
X87251798Y-87205414D01*
X87253598Y-87217548D01*
X87254200Y-87229800D01*
X87254200Y-87479800D01*
X87253598Y-87492052D01*
X87251798Y-87504186D01*
X87248818Y-87516086D01*
X87244685Y-87527635D01*
X87239440Y-87538725D01*
X87233134Y-87549246D01*
X87225826Y-87559099D01*
X87217588Y-87568188D01*
X87208499Y-87576426D01*
X87198646Y-87583734D01*
X87188125Y-87590040D01*
X87177035Y-87595285D01*
X87165486Y-87599418D01*
X87153586Y-87602398D01*
X87141452Y-87604198D01*
X87129200Y-87604800D01*
X85479200Y-87604800D01*
X85466948Y-87604198D01*
X85454814Y-87602398D01*
X85442914Y-87599418D01*
X85431365Y-87595285D01*
X85420275Y-87590040D01*
X85409754Y-87583734D01*
X85399901Y-87576426D01*
X85390812Y-87568188D01*
X85382574Y-87559099D01*
X85375266Y-87549246D01*
X85368960Y-87538725D01*
X85363715Y-87527635D01*
X85359582Y-87516086D01*
X85356602Y-87504186D01*
X85354802Y-87492052D01*
X85354200Y-87479800D01*
X85354200Y-87229800D01*
X85354802Y-87217548D01*
X85356602Y-87205414D01*
X85359582Y-87193514D01*
X85363715Y-87181965D01*
X85368960Y-87170875D01*
X85375266Y-87160354D01*
X85382574Y-87150501D01*
X85390812Y-87141412D01*
X85399901Y-87133174D01*
X85409754Y-87125866D01*
X85420275Y-87119560D01*
X85431365Y-87114315D01*
X85442914Y-87110182D01*
X85454814Y-87107202D01*
X85466948Y-87105402D01*
X85479200Y-87104800D01*
X87129200Y-87104800D01*
X87141452Y-87105402D01*
G37*
G36*
X87141452Y-86455402D02*
G01*
X87153586Y-86457202D01*
X87165486Y-86460182D01*
X87177035Y-86464315D01*
X87188125Y-86469560D01*
X87198646Y-86475866D01*
X87208499Y-86483174D01*
X87217588Y-86491412D01*
X87225826Y-86500501D01*
X87233134Y-86510354D01*
X87239440Y-86520875D01*
X87244685Y-86531965D01*
X87248818Y-86543514D01*
X87251798Y-86555414D01*
X87253598Y-86567548D01*
X87254200Y-86579800D01*
X87254200Y-86829800D01*
X87253598Y-86842052D01*
X87251798Y-86854186D01*
X87248818Y-86866086D01*
X87244685Y-86877635D01*
X87239440Y-86888725D01*
X87233134Y-86899246D01*
X87225826Y-86909099D01*
X87217588Y-86918188D01*
X87208499Y-86926426D01*
X87198646Y-86933734D01*
X87188125Y-86940040D01*
X87177035Y-86945285D01*
X87165486Y-86949418D01*
X87153586Y-86952398D01*
X87141452Y-86954198D01*
X87129200Y-86954800D01*
X85479200Y-86954800D01*
X85466948Y-86954198D01*
X85454814Y-86952398D01*
X85442914Y-86949418D01*
X85431365Y-86945285D01*
X85420275Y-86940040D01*
X85409754Y-86933734D01*
X85399901Y-86926426D01*
X85390812Y-86918188D01*
X85382574Y-86909099D01*
X85375266Y-86899246D01*
X85368960Y-86888725D01*
X85363715Y-86877635D01*
X85359582Y-86866086D01*
X85356602Y-86854186D01*
X85354802Y-86842052D01*
X85354200Y-86829800D01*
X85354200Y-86579800D01*
X85354802Y-86567548D01*
X85356602Y-86555414D01*
X85359582Y-86543514D01*
X85363715Y-86531965D01*
X85368960Y-86520875D01*
X85375266Y-86510354D01*
X85382574Y-86500501D01*
X85390812Y-86491412D01*
X85399901Y-86483174D01*
X85409754Y-86475866D01*
X85420275Y-86469560D01*
X85431365Y-86464315D01*
X85442914Y-86460182D01*
X85454814Y-86457202D01*
X85466948Y-86455402D01*
X85479200Y-86454800D01*
X87129200Y-86454800D01*
X87141452Y-86455402D01*
G37*
G36*
X87141452Y-85805402D02*
G01*
X87153586Y-85807202D01*
X87165486Y-85810182D01*
X87177035Y-85814315D01*
X87188125Y-85819560D01*
X87198646Y-85825866D01*
X87208499Y-85833174D01*
X87217588Y-85841412D01*
X87225826Y-85850501D01*
X87233134Y-85860354D01*
X87239440Y-85870875D01*
X87244685Y-85881965D01*
X87248818Y-85893514D01*
X87251798Y-85905414D01*
X87253598Y-85917548D01*
X87254200Y-85929800D01*
X87254200Y-86179800D01*
X87253598Y-86192052D01*
X87251798Y-86204186D01*
X87248818Y-86216086D01*
X87244685Y-86227635D01*
X87239440Y-86238725D01*
X87233134Y-86249246D01*
X87225826Y-86259099D01*
X87217588Y-86268188D01*
X87208499Y-86276426D01*
X87198646Y-86283734D01*
X87188125Y-86290040D01*
X87177035Y-86295285D01*
X87165486Y-86299418D01*
X87153586Y-86302398D01*
X87141452Y-86304198D01*
X87129200Y-86304800D01*
X85479200Y-86304800D01*
X85466948Y-86304198D01*
X85454814Y-86302398D01*
X85442914Y-86299418D01*
X85431365Y-86295285D01*
X85420275Y-86290040D01*
X85409754Y-86283734D01*
X85399901Y-86276426D01*
X85390812Y-86268188D01*
X85382574Y-86259099D01*
X85375266Y-86249246D01*
X85368960Y-86238725D01*
X85363715Y-86227635D01*
X85359582Y-86216086D01*
X85356602Y-86204186D01*
X85354802Y-86192052D01*
X85354200Y-86179800D01*
X85354200Y-85929800D01*
X85354802Y-85917548D01*
X85356602Y-85905414D01*
X85359582Y-85893514D01*
X85363715Y-85881965D01*
X85368960Y-85870875D01*
X85375266Y-85860354D01*
X85382574Y-85850501D01*
X85390812Y-85841412D01*
X85399901Y-85833174D01*
X85409754Y-85825866D01*
X85420275Y-85819560D01*
X85431365Y-85814315D01*
X85442914Y-85810182D01*
X85454814Y-85807202D01*
X85466948Y-85805402D01*
X85479200Y-85804800D01*
X87129200Y-85804800D01*
X87141452Y-85805402D01*
G37*
G36*
X87141452Y-85155402D02*
G01*
X87153586Y-85157202D01*
X87165486Y-85160182D01*
X87177035Y-85164315D01*
X87188125Y-85169560D01*
X87198646Y-85175866D01*
X87208499Y-85183174D01*
X87217588Y-85191412D01*
X87225826Y-85200501D01*
X87233134Y-85210354D01*
X87239440Y-85220875D01*
X87244685Y-85231965D01*
X87248818Y-85243514D01*
X87251798Y-85255414D01*
X87253598Y-85267548D01*
X87254200Y-85279800D01*
X87254200Y-85529800D01*
X87253598Y-85542052D01*
X87251798Y-85554186D01*
X87248818Y-85566086D01*
X87244685Y-85577635D01*
X87239440Y-85588725D01*
X87233134Y-85599246D01*
X87225826Y-85609099D01*
X87217588Y-85618188D01*
X87208499Y-85626426D01*
X87198646Y-85633734D01*
X87188125Y-85640040D01*
X87177035Y-85645285D01*
X87165486Y-85649418D01*
X87153586Y-85652398D01*
X87141452Y-85654198D01*
X87129200Y-85654800D01*
X85479200Y-85654800D01*
X85466948Y-85654198D01*
X85454814Y-85652398D01*
X85442914Y-85649418D01*
X85431365Y-85645285D01*
X85420275Y-85640040D01*
X85409754Y-85633734D01*
X85399901Y-85626426D01*
X85390812Y-85618188D01*
X85382574Y-85609099D01*
X85375266Y-85599246D01*
X85368960Y-85588725D01*
X85363715Y-85577635D01*
X85359582Y-85566086D01*
X85356602Y-85554186D01*
X85354802Y-85542052D01*
X85354200Y-85529800D01*
X85354200Y-85279800D01*
X85354802Y-85267548D01*
X85356602Y-85255414D01*
X85359582Y-85243514D01*
X85363715Y-85231965D01*
X85368960Y-85220875D01*
X85375266Y-85210354D01*
X85382574Y-85200501D01*
X85390812Y-85191412D01*
X85399901Y-85183174D01*
X85409754Y-85175866D01*
X85420275Y-85169560D01*
X85431365Y-85164315D01*
X85442914Y-85160182D01*
X85454814Y-85157202D01*
X85466948Y-85155402D01*
X85479200Y-85154800D01*
X87129200Y-85154800D01*
X87141452Y-85155402D01*
G37*
G36*
X87141452Y-84505402D02*
G01*
X87153586Y-84507202D01*
X87165486Y-84510182D01*
X87177035Y-84514315D01*
X87188125Y-84519560D01*
X87198646Y-84525866D01*
X87208499Y-84533174D01*
X87217588Y-84541412D01*
X87225826Y-84550501D01*
X87233134Y-84560354D01*
X87239440Y-84570875D01*
X87244685Y-84581965D01*
X87248818Y-84593514D01*
X87251798Y-84605414D01*
X87253598Y-84617548D01*
X87254200Y-84629800D01*
X87254200Y-84879800D01*
X87253598Y-84892052D01*
X87251798Y-84904186D01*
X87248818Y-84916086D01*
X87244685Y-84927635D01*
X87239440Y-84938725D01*
X87233134Y-84949246D01*
X87225826Y-84959099D01*
X87217588Y-84968188D01*
X87208499Y-84976426D01*
X87198646Y-84983734D01*
X87188125Y-84990040D01*
X87177035Y-84995285D01*
X87165486Y-84999418D01*
X87153586Y-85002398D01*
X87141452Y-85004198D01*
X87129200Y-85004800D01*
X85479200Y-85004800D01*
X85466948Y-85004198D01*
X85454814Y-85002398D01*
X85442914Y-84999418D01*
X85431365Y-84995285D01*
X85420275Y-84990040D01*
X85409754Y-84983734D01*
X85399901Y-84976426D01*
X85390812Y-84968188D01*
X85382574Y-84959099D01*
X85375266Y-84949246D01*
X85368960Y-84938725D01*
X85363715Y-84927635D01*
X85359582Y-84916086D01*
X85356602Y-84904186D01*
X85354802Y-84892052D01*
X85354200Y-84879800D01*
X85354200Y-84629800D01*
X85354802Y-84617548D01*
X85356602Y-84605414D01*
X85359582Y-84593514D01*
X85363715Y-84581965D01*
X85368960Y-84570875D01*
X85375266Y-84560354D01*
X85382574Y-84550501D01*
X85390812Y-84541412D01*
X85399901Y-84533174D01*
X85409754Y-84525866D01*
X85420275Y-84519560D01*
X85431365Y-84514315D01*
X85442914Y-84510182D01*
X85454814Y-84507202D01*
X85466948Y-84505402D01*
X85479200Y-84504800D01*
X87129200Y-84504800D01*
X87141452Y-84505402D01*
G37*
G36*
X87141452Y-83855402D02*
G01*
X87153586Y-83857202D01*
X87165486Y-83860182D01*
X87177035Y-83864315D01*
X87188125Y-83869560D01*
X87198646Y-83875866D01*
X87208499Y-83883174D01*
X87217588Y-83891412D01*
X87225826Y-83900501D01*
X87233134Y-83910354D01*
X87239440Y-83920875D01*
X87244685Y-83931965D01*
X87248818Y-83943514D01*
X87251798Y-83955414D01*
X87253598Y-83967548D01*
X87254200Y-83979800D01*
X87254200Y-84229800D01*
X87253598Y-84242052D01*
X87251798Y-84254186D01*
X87248818Y-84266086D01*
X87244685Y-84277635D01*
X87239440Y-84288725D01*
X87233134Y-84299246D01*
X87225826Y-84309099D01*
X87217588Y-84318188D01*
X87208499Y-84326426D01*
X87198646Y-84333734D01*
X87188125Y-84340040D01*
X87177035Y-84345285D01*
X87165486Y-84349418D01*
X87153586Y-84352398D01*
X87141452Y-84354198D01*
X87129200Y-84354800D01*
X85479200Y-84354800D01*
X85466948Y-84354198D01*
X85454814Y-84352398D01*
X85442914Y-84349418D01*
X85431365Y-84345285D01*
X85420275Y-84340040D01*
X85409754Y-84333734D01*
X85399901Y-84326426D01*
X85390812Y-84318188D01*
X85382574Y-84309099D01*
X85375266Y-84299246D01*
X85368960Y-84288725D01*
X85363715Y-84277635D01*
X85359582Y-84266086D01*
X85356602Y-84254186D01*
X85354802Y-84242052D01*
X85354200Y-84229800D01*
X85354200Y-83979800D01*
X85354802Y-83967548D01*
X85356602Y-83955414D01*
X85359582Y-83943514D01*
X85363715Y-83931965D01*
X85368960Y-83920875D01*
X85375266Y-83910354D01*
X85382574Y-83900501D01*
X85390812Y-83891412D01*
X85399901Y-83883174D01*
X85409754Y-83875866D01*
X85420275Y-83869560D01*
X85431365Y-83864315D01*
X85442914Y-83860182D01*
X85454814Y-83857202D01*
X85466948Y-83855402D01*
X85479200Y-83854800D01*
X87129200Y-83854800D01*
X87141452Y-83855402D01*
G37*
G36*
X87141452Y-83205402D02*
G01*
X87153586Y-83207202D01*
X87165486Y-83210182D01*
X87177035Y-83214315D01*
X87188125Y-83219560D01*
X87198646Y-83225866D01*
X87208499Y-83233174D01*
X87217588Y-83241412D01*
X87225826Y-83250501D01*
X87233134Y-83260354D01*
X87239440Y-83270875D01*
X87244685Y-83281965D01*
X87248818Y-83293514D01*
X87251798Y-83305414D01*
X87253598Y-83317548D01*
X87254200Y-83329800D01*
X87254200Y-83579800D01*
X87253598Y-83592052D01*
X87251798Y-83604186D01*
X87248818Y-83616086D01*
X87244685Y-83627635D01*
X87239440Y-83638725D01*
X87233134Y-83649246D01*
X87225826Y-83659099D01*
X87217588Y-83668188D01*
X87208499Y-83676426D01*
X87198646Y-83683734D01*
X87188125Y-83690040D01*
X87177035Y-83695285D01*
X87165486Y-83699418D01*
X87153586Y-83702398D01*
X87141452Y-83704198D01*
X87129200Y-83704800D01*
X85479200Y-83704800D01*
X85466948Y-83704198D01*
X85454814Y-83702398D01*
X85442914Y-83699418D01*
X85431365Y-83695285D01*
X85420275Y-83690040D01*
X85409754Y-83683734D01*
X85399901Y-83676426D01*
X85390812Y-83668188D01*
X85382574Y-83659099D01*
X85375266Y-83649246D01*
X85368960Y-83638725D01*
X85363715Y-83627635D01*
X85359582Y-83616086D01*
X85356602Y-83604186D01*
X85354802Y-83592052D01*
X85354200Y-83579800D01*
X85354200Y-83329800D01*
X85354802Y-83317548D01*
X85356602Y-83305414D01*
X85359582Y-83293514D01*
X85363715Y-83281965D01*
X85368960Y-83270875D01*
X85375266Y-83260354D01*
X85382574Y-83250501D01*
X85390812Y-83241412D01*
X85399901Y-83233174D01*
X85409754Y-83225866D01*
X85420275Y-83219560D01*
X85431365Y-83214315D01*
X85442914Y-83210182D01*
X85454814Y-83207202D01*
X85466948Y-83205402D01*
X85479200Y-83204800D01*
X87129200Y-83204800D01*
X87141452Y-83205402D01*
G37*
G36*
X87141452Y-82555402D02*
G01*
X87153586Y-82557202D01*
X87165486Y-82560182D01*
X87177035Y-82564315D01*
X87188125Y-82569560D01*
X87198646Y-82575866D01*
X87208499Y-82583174D01*
X87217588Y-82591412D01*
X87225826Y-82600501D01*
X87233134Y-82610354D01*
X87239440Y-82620875D01*
X87244685Y-82631965D01*
X87248818Y-82643514D01*
X87251798Y-82655414D01*
X87253598Y-82667548D01*
X87254200Y-82679800D01*
X87254200Y-82929800D01*
X87253598Y-82942052D01*
X87251798Y-82954186D01*
X87248818Y-82966086D01*
X87244685Y-82977635D01*
X87239440Y-82988725D01*
X87233134Y-82999246D01*
X87225826Y-83009099D01*
X87217588Y-83018188D01*
X87208499Y-83026426D01*
X87198646Y-83033734D01*
X87188125Y-83040040D01*
X87177035Y-83045285D01*
X87165486Y-83049418D01*
X87153586Y-83052398D01*
X87141452Y-83054198D01*
X87129200Y-83054800D01*
X85479200Y-83054800D01*
X85466948Y-83054198D01*
X85454814Y-83052398D01*
X85442914Y-83049418D01*
X85431365Y-83045285D01*
X85420275Y-83040040D01*
X85409754Y-83033734D01*
X85399901Y-83026426D01*
X85390812Y-83018188D01*
X85382574Y-83009099D01*
X85375266Y-82999246D01*
X85368960Y-82988725D01*
X85363715Y-82977635D01*
X85359582Y-82966086D01*
X85356602Y-82954186D01*
X85354802Y-82942052D01*
X85354200Y-82929800D01*
X85354200Y-82679800D01*
X85354802Y-82667548D01*
X85356602Y-82655414D01*
X85359582Y-82643514D01*
X85363715Y-82631965D01*
X85368960Y-82620875D01*
X85375266Y-82610354D01*
X85382574Y-82600501D01*
X85390812Y-82591412D01*
X85399901Y-82583174D01*
X85409754Y-82575866D01*
X85420275Y-82569560D01*
X85431365Y-82564315D01*
X85442914Y-82560182D01*
X85454814Y-82557202D01*
X85466948Y-82555402D01*
X85479200Y-82554800D01*
X87129200Y-82554800D01*
X87141452Y-82555402D01*
G37*
G36*
X87141452Y-81905402D02*
G01*
X87153586Y-81907202D01*
X87165486Y-81910182D01*
X87177035Y-81914315D01*
X87188125Y-81919560D01*
X87198646Y-81925866D01*
X87208499Y-81933174D01*
X87217588Y-81941412D01*
X87225826Y-81950501D01*
X87233134Y-81960354D01*
X87239440Y-81970875D01*
X87244685Y-81981965D01*
X87248818Y-81993514D01*
X87251798Y-82005414D01*
X87253598Y-82017548D01*
X87254200Y-82029800D01*
X87254200Y-82279800D01*
X87253598Y-82292052D01*
X87251798Y-82304186D01*
X87248818Y-82316086D01*
X87244685Y-82327635D01*
X87239440Y-82338725D01*
X87233134Y-82349246D01*
X87225826Y-82359099D01*
X87217588Y-82368188D01*
X87208499Y-82376426D01*
X87198646Y-82383734D01*
X87188125Y-82390040D01*
X87177035Y-82395285D01*
X87165486Y-82399418D01*
X87153586Y-82402398D01*
X87141452Y-82404198D01*
X87129200Y-82404800D01*
X85479200Y-82404800D01*
X85466948Y-82404198D01*
X85454814Y-82402398D01*
X85442914Y-82399418D01*
X85431365Y-82395285D01*
X85420275Y-82390040D01*
X85409754Y-82383734D01*
X85399901Y-82376426D01*
X85390812Y-82368188D01*
X85382574Y-82359099D01*
X85375266Y-82349246D01*
X85368960Y-82338725D01*
X85363715Y-82327635D01*
X85359582Y-82316086D01*
X85356602Y-82304186D01*
X85354802Y-82292052D01*
X85354200Y-82279800D01*
X85354200Y-82029800D01*
X85354802Y-82017548D01*
X85356602Y-82005414D01*
X85359582Y-81993514D01*
X85363715Y-81981965D01*
X85368960Y-81970875D01*
X85375266Y-81960354D01*
X85382574Y-81950501D01*
X85390812Y-81941412D01*
X85399901Y-81933174D01*
X85409754Y-81925866D01*
X85420275Y-81919560D01*
X85431365Y-81914315D01*
X85442914Y-81910182D01*
X85454814Y-81907202D01*
X85466948Y-81905402D01*
X85479200Y-81904800D01*
X87129200Y-81904800D01*
X87141452Y-81905402D01*
G37*
G36*
X87141452Y-81255402D02*
G01*
X87153586Y-81257202D01*
X87165486Y-81260182D01*
X87177035Y-81264315D01*
X87188125Y-81269560D01*
X87198646Y-81275866D01*
X87208499Y-81283174D01*
X87217588Y-81291412D01*
X87225826Y-81300501D01*
X87233134Y-81310354D01*
X87239440Y-81320875D01*
X87244685Y-81331965D01*
X87248818Y-81343514D01*
X87251798Y-81355414D01*
X87253598Y-81367548D01*
X87254200Y-81379800D01*
X87254200Y-81629800D01*
X87253598Y-81642052D01*
X87251798Y-81654186D01*
X87248818Y-81666086D01*
X87244685Y-81677635D01*
X87239440Y-81688725D01*
X87233134Y-81699246D01*
X87225826Y-81709099D01*
X87217588Y-81718188D01*
X87208499Y-81726426D01*
X87198646Y-81733734D01*
X87188125Y-81740040D01*
X87177035Y-81745285D01*
X87165486Y-81749418D01*
X87153586Y-81752398D01*
X87141452Y-81754198D01*
X87129200Y-81754800D01*
X85479200Y-81754800D01*
X85466948Y-81754198D01*
X85454814Y-81752398D01*
X85442914Y-81749418D01*
X85431365Y-81745285D01*
X85420275Y-81740040D01*
X85409754Y-81733734D01*
X85399901Y-81726426D01*
X85390812Y-81718188D01*
X85382574Y-81709099D01*
X85375266Y-81699246D01*
X85368960Y-81688725D01*
X85363715Y-81677635D01*
X85359582Y-81666086D01*
X85356602Y-81654186D01*
X85354802Y-81642052D01*
X85354200Y-81629800D01*
X85354200Y-81379800D01*
X85354802Y-81367548D01*
X85356602Y-81355414D01*
X85359582Y-81343514D01*
X85363715Y-81331965D01*
X85368960Y-81320875D01*
X85375266Y-81310354D01*
X85382574Y-81300501D01*
X85390812Y-81291412D01*
X85399901Y-81283174D01*
X85409754Y-81275866D01*
X85420275Y-81269560D01*
X85431365Y-81264315D01*
X85442914Y-81260182D01*
X85454814Y-81257202D01*
X85466948Y-81255402D01*
X85479200Y-81254800D01*
X87129200Y-81254800D01*
X87141452Y-81255402D01*
G37*
G36*
X80141452Y-81255402D02*
G01*
X80153586Y-81257202D01*
X80165486Y-81260182D01*
X80177035Y-81264315D01*
X80188125Y-81269560D01*
X80198646Y-81275866D01*
X80208499Y-81283174D01*
X80217588Y-81291412D01*
X80225826Y-81300501D01*
X80233134Y-81310354D01*
X80239440Y-81320875D01*
X80244685Y-81331965D01*
X80248818Y-81343514D01*
X80251798Y-81355414D01*
X80253598Y-81367548D01*
X80254200Y-81379800D01*
X80254200Y-81629800D01*
X80253598Y-81642052D01*
X80251798Y-81654186D01*
X80248818Y-81666086D01*
X80244685Y-81677635D01*
X80239440Y-81688725D01*
X80233134Y-81699246D01*
X80225826Y-81709099D01*
X80217588Y-81718188D01*
X80208499Y-81726426D01*
X80198646Y-81733734D01*
X80188125Y-81740040D01*
X80177035Y-81745285D01*
X80165486Y-81749418D01*
X80153586Y-81752398D01*
X80141452Y-81754198D01*
X80129200Y-81754800D01*
X78479200Y-81754800D01*
X78466948Y-81754198D01*
X78454814Y-81752398D01*
X78442914Y-81749418D01*
X78431365Y-81745285D01*
X78420275Y-81740040D01*
X78409754Y-81733734D01*
X78399901Y-81726426D01*
X78390812Y-81718188D01*
X78382574Y-81709099D01*
X78375266Y-81699246D01*
X78368960Y-81688725D01*
X78363715Y-81677635D01*
X78359582Y-81666086D01*
X78356602Y-81654186D01*
X78354802Y-81642052D01*
X78354200Y-81629800D01*
X78354200Y-81379800D01*
X78354802Y-81367548D01*
X78356602Y-81355414D01*
X78359582Y-81343514D01*
X78363715Y-81331965D01*
X78368960Y-81320875D01*
X78375266Y-81310354D01*
X78382574Y-81300501D01*
X78390812Y-81291412D01*
X78399901Y-81283174D01*
X78409754Y-81275866D01*
X78420275Y-81269560D01*
X78431365Y-81264315D01*
X78442914Y-81260182D01*
X78454814Y-81257202D01*
X78466948Y-81255402D01*
X78479200Y-81254800D01*
X80129200Y-81254800D01*
X80141452Y-81255402D01*
G37*
G36*
X80141452Y-81905402D02*
G01*
X80153586Y-81907202D01*
X80165486Y-81910182D01*
X80177035Y-81914315D01*
X80188125Y-81919560D01*
X80198646Y-81925866D01*
X80208499Y-81933174D01*
X80217588Y-81941412D01*
X80225826Y-81950501D01*
X80233134Y-81960354D01*
X80239440Y-81970875D01*
X80244685Y-81981965D01*
X80248818Y-81993514D01*
X80251798Y-82005414D01*
X80253598Y-82017548D01*
X80254200Y-82029800D01*
X80254200Y-82279800D01*
X80253598Y-82292052D01*
X80251798Y-82304186D01*
X80248818Y-82316086D01*
X80244685Y-82327635D01*
X80239440Y-82338725D01*
X80233134Y-82349246D01*
X80225826Y-82359099D01*
X80217588Y-82368188D01*
X80208499Y-82376426D01*
X80198646Y-82383734D01*
X80188125Y-82390040D01*
X80177035Y-82395285D01*
X80165486Y-82399418D01*
X80153586Y-82402398D01*
X80141452Y-82404198D01*
X80129200Y-82404800D01*
X78479200Y-82404800D01*
X78466948Y-82404198D01*
X78454814Y-82402398D01*
X78442914Y-82399418D01*
X78431365Y-82395285D01*
X78420275Y-82390040D01*
X78409754Y-82383734D01*
X78399901Y-82376426D01*
X78390812Y-82368188D01*
X78382574Y-82359099D01*
X78375266Y-82349246D01*
X78368960Y-82338725D01*
X78363715Y-82327635D01*
X78359582Y-82316086D01*
X78356602Y-82304186D01*
X78354802Y-82292052D01*
X78354200Y-82279800D01*
X78354200Y-82029800D01*
X78354802Y-82017548D01*
X78356602Y-82005414D01*
X78359582Y-81993514D01*
X78363715Y-81981965D01*
X78368960Y-81970875D01*
X78375266Y-81960354D01*
X78382574Y-81950501D01*
X78390812Y-81941412D01*
X78399901Y-81933174D01*
X78409754Y-81925866D01*
X78420275Y-81919560D01*
X78431365Y-81914315D01*
X78442914Y-81910182D01*
X78454814Y-81907202D01*
X78466948Y-81905402D01*
X78479200Y-81904800D01*
X80129200Y-81904800D01*
X80141452Y-81905402D01*
G37*
G36*
X80141452Y-82555402D02*
G01*
X80153586Y-82557202D01*
X80165486Y-82560182D01*
X80177035Y-82564315D01*
X80188125Y-82569560D01*
X80198646Y-82575866D01*
X80208499Y-82583174D01*
X80217588Y-82591412D01*
X80225826Y-82600501D01*
X80233134Y-82610354D01*
X80239440Y-82620875D01*
X80244685Y-82631965D01*
X80248818Y-82643514D01*
X80251798Y-82655414D01*
X80253598Y-82667548D01*
X80254200Y-82679800D01*
X80254200Y-82929800D01*
X80253598Y-82942052D01*
X80251798Y-82954186D01*
X80248818Y-82966086D01*
X80244685Y-82977635D01*
X80239440Y-82988725D01*
X80233134Y-82999246D01*
X80225826Y-83009099D01*
X80217588Y-83018188D01*
X80208499Y-83026426D01*
X80198646Y-83033734D01*
X80188125Y-83040040D01*
X80177035Y-83045285D01*
X80165486Y-83049418D01*
X80153586Y-83052398D01*
X80141452Y-83054198D01*
X80129200Y-83054800D01*
X78479200Y-83054800D01*
X78466948Y-83054198D01*
X78454814Y-83052398D01*
X78442914Y-83049418D01*
X78431365Y-83045285D01*
X78420275Y-83040040D01*
X78409754Y-83033734D01*
X78399901Y-83026426D01*
X78390812Y-83018188D01*
X78382574Y-83009099D01*
X78375266Y-82999246D01*
X78368960Y-82988725D01*
X78363715Y-82977635D01*
X78359582Y-82966086D01*
X78356602Y-82954186D01*
X78354802Y-82942052D01*
X78354200Y-82929800D01*
X78354200Y-82679800D01*
X78354802Y-82667548D01*
X78356602Y-82655414D01*
X78359582Y-82643514D01*
X78363715Y-82631965D01*
X78368960Y-82620875D01*
X78375266Y-82610354D01*
X78382574Y-82600501D01*
X78390812Y-82591412D01*
X78399901Y-82583174D01*
X78409754Y-82575866D01*
X78420275Y-82569560D01*
X78431365Y-82564315D01*
X78442914Y-82560182D01*
X78454814Y-82557202D01*
X78466948Y-82555402D01*
X78479200Y-82554800D01*
X80129200Y-82554800D01*
X80141452Y-82555402D01*
G37*
G36*
X80141452Y-83205402D02*
G01*
X80153586Y-83207202D01*
X80165486Y-83210182D01*
X80177035Y-83214315D01*
X80188125Y-83219560D01*
X80198646Y-83225866D01*
X80208499Y-83233174D01*
X80217588Y-83241412D01*
X80225826Y-83250501D01*
X80233134Y-83260354D01*
X80239440Y-83270875D01*
X80244685Y-83281965D01*
X80248818Y-83293514D01*
X80251798Y-83305414D01*
X80253598Y-83317548D01*
X80254200Y-83329800D01*
X80254200Y-83579800D01*
X80253598Y-83592052D01*
X80251798Y-83604186D01*
X80248818Y-83616086D01*
X80244685Y-83627635D01*
X80239440Y-83638725D01*
X80233134Y-83649246D01*
X80225826Y-83659099D01*
X80217588Y-83668188D01*
X80208499Y-83676426D01*
X80198646Y-83683734D01*
X80188125Y-83690040D01*
X80177035Y-83695285D01*
X80165486Y-83699418D01*
X80153586Y-83702398D01*
X80141452Y-83704198D01*
X80129200Y-83704800D01*
X78479200Y-83704800D01*
X78466948Y-83704198D01*
X78454814Y-83702398D01*
X78442914Y-83699418D01*
X78431365Y-83695285D01*
X78420275Y-83690040D01*
X78409754Y-83683734D01*
X78399901Y-83676426D01*
X78390812Y-83668188D01*
X78382574Y-83659099D01*
X78375266Y-83649246D01*
X78368960Y-83638725D01*
X78363715Y-83627635D01*
X78359582Y-83616086D01*
X78356602Y-83604186D01*
X78354802Y-83592052D01*
X78354200Y-83579800D01*
X78354200Y-83329800D01*
X78354802Y-83317548D01*
X78356602Y-83305414D01*
X78359582Y-83293514D01*
X78363715Y-83281965D01*
X78368960Y-83270875D01*
X78375266Y-83260354D01*
X78382574Y-83250501D01*
X78390812Y-83241412D01*
X78399901Y-83233174D01*
X78409754Y-83225866D01*
X78420275Y-83219560D01*
X78431365Y-83214315D01*
X78442914Y-83210182D01*
X78454814Y-83207202D01*
X78466948Y-83205402D01*
X78479200Y-83204800D01*
X80129200Y-83204800D01*
X80141452Y-83205402D01*
G37*
G36*
X80141452Y-83855402D02*
G01*
X80153586Y-83857202D01*
X80165486Y-83860182D01*
X80177035Y-83864315D01*
X80188125Y-83869560D01*
X80198646Y-83875866D01*
X80208499Y-83883174D01*
X80217588Y-83891412D01*
X80225826Y-83900501D01*
X80233134Y-83910354D01*
X80239440Y-83920875D01*
X80244685Y-83931965D01*
X80248818Y-83943514D01*
X80251798Y-83955414D01*
X80253598Y-83967548D01*
X80254200Y-83979800D01*
X80254200Y-84229800D01*
X80253598Y-84242052D01*
X80251798Y-84254186D01*
X80248818Y-84266086D01*
X80244685Y-84277635D01*
X80239440Y-84288725D01*
X80233134Y-84299246D01*
X80225826Y-84309099D01*
X80217588Y-84318188D01*
X80208499Y-84326426D01*
X80198646Y-84333734D01*
X80188125Y-84340040D01*
X80177035Y-84345285D01*
X80165486Y-84349418D01*
X80153586Y-84352398D01*
X80141452Y-84354198D01*
X80129200Y-84354800D01*
X78479200Y-84354800D01*
X78466948Y-84354198D01*
X78454814Y-84352398D01*
X78442914Y-84349418D01*
X78431365Y-84345285D01*
X78420275Y-84340040D01*
X78409754Y-84333734D01*
X78399901Y-84326426D01*
X78390812Y-84318188D01*
X78382574Y-84309099D01*
X78375266Y-84299246D01*
X78368960Y-84288725D01*
X78363715Y-84277635D01*
X78359582Y-84266086D01*
X78356602Y-84254186D01*
X78354802Y-84242052D01*
X78354200Y-84229800D01*
X78354200Y-83979800D01*
X78354802Y-83967548D01*
X78356602Y-83955414D01*
X78359582Y-83943514D01*
X78363715Y-83931965D01*
X78368960Y-83920875D01*
X78375266Y-83910354D01*
X78382574Y-83900501D01*
X78390812Y-83891412D01*
X78399901Y-83883174D01*
X78409754Y-83875866D01*
X78420275Y-83869560D01*
X78431365Y-83864315D01*
X78442914Y-83860182D01*
X78454814Y-83857202D01*
X78466948Y-83855402D01*
X78479200Y-83854800D01*
X80129200Y-83854800D01*
X80141452Y-83855402D01*
G37*
G36*
X80141452Y-84505402D02*
G01*
X80153586Y-84507202D01*
X80165486Y-84510182D01*
X80177035Y-84514315D01*
X80188125Y-84519560D01*
X80198646Y-84525866D01*
X80208499Y-84533174D01*
X80217588Y-84541412D01*
X80225826Y-84550501D01*
X80233134Y-84560354D01*
X80239440Y-84570875D01*
X80244685Y-84581965D01*
X80248818Y-84593514D01*
X80251798Y-84605414D01*
X80253598Y-84617548D01*
X80254200Y-84629800D01*
X80254200Y-84879800D01*
X80253598Y-84892052D01*
X80251798Y-84904186D01*
X80248818Y-84916086D01*
X80244685Y-84927635D01*
X80239440Y-84938725D01*
X80233134Y-84949246D01*
X80225826Y-84959099D01*
X80217588Y-84968188D01*
X80208499Y-84976426D01*
X80198646Y-84983734D01*
X80188125Y-84990040D01*
X80177035Y-84995285D01*
X80165486Y-84999418D01*
X80153586Y-85002398D01*
X80141452Y-85004198D01*
X80129200Y-85004800D01*
X78479200Y-85004800D01*
X78466948Y-85004198D01*
X78454814Y-85002398D01*
X78442914Y-84999418D01*
X78431365Y-84995285D01*
X78420275Y-84990040D01*
X78409754Y-84983734D01*
X78399901Y-84976426D01*
X78390812Y-84968188D01*
X78382574Y-84959099D01*
X78375266Y-84949246D01*
X78368960Y-84938725D01*
X78363715Y-84927635D01*
X78359582Y-84916086D01*
X78356602Y-84904186D01*
X78354802Y-84892052D01*
X78354200Y-84879800D01*
X78354200Y-84629800D01*
X78354802Y-84617548D01*
X78356602Y-84605414D01*
X78359582Y-84593514D01*
X78363715Y-84581965D01*
X78368960Y-84570875D01*
X78375266Y-84560354D01*
X78382574Y-84550501D01*
X78390812Y-84541412D01*
X78399901Y-84533174D01*
X78409754Y-84525866D01*
X78420275Y-84519560D01*
X78431365Y-84514315D01*
X78442914Y-84510182D01*
X78454814Y-84507202D01*
X78466948Y-84505402D01*
X78479200Y-84504800D01*
X80129200Y-84504800D01*
X80141452Y-84505402D01*
G37*
G36*
X80141452Y-85155402D02*
G01*
X80153586Y-85157202D01*
X80165486Y-85160182D01*
X80177035Y-85164315D01*
X80188125Y-85169560D01*
X80198646Y-85175866D01*
X80208499Y-85183174D01*
X80217588Y-85191412D01*
X80225826Y-85200501D01*
X80233134Y-85210354D01*
X80239440Y-85220875D01*
X80244685Y-85231965D01*
X80248818Y-85243514D01*
X80251798Y-85255414D01*
X80253598Y-85267548D01*
X80254200Y-85279800D01*
X80254200Y-85529800D01*
X80253598Y-85542052D01*
X80251798Y-85554186D01*
X80248818Y-85566086D01*
X80244685Y-85577635D01*
X80239440Y-85588725D01*
X80233134Y-85599246D01*
X80225826Y-85609099D01*
X80217588Y-85618188D01*
X80208499Y-85626426D01*
X80198646Y-85633734D01*
X80188125Y-85640040D01*
X80177035Y-85645285D01*
X80165486Y-85649418D01*
X80153586Y-85652398D01*
X80141452Y-85654198D01*
X80129200Y-85654800D01*
X78479200Y-85654800D01*
X78466948Y-85654198D01*
X78454814Y-85652398D01*
X78442914Y-85649418D01*
X78431365Y-85645285D01*
X78420275Y-85640040D01*
X78409754Y-85633734D01*
X78399901Y-85626426D01*
X78390812Y-85618188D01*
X78382574Y-85609099D01*
X78375266Y-85599246D01*
X78368960Y-85588725D01*
X78363715Y-85577635D01*
X78359582Y-85566086D01*
X78356602Y-85554186D01*
X78354802Y-85542052D01*
X78354200Y-85529800D01*
X78354200Y-85279800D01*
X78354802Y-85267548D01*
X78356602Y-85255414D01*
X78359582Y-85243514D01*
X78363715Y-85231965D01*
X78368960Y-85220875D01*
X78375266Y-85210354D01*
X78382574Y-85200501D01*
X78390812Y-85191412D01*
X78399901Y-85183174D01*
X78409754Y-85175866D01*
X78420275Y-85169560D01*
X78431365Y-85164315D01*
X78442914Y-85160182D01*
X78454814Y-85157202D01*
X78466948Y-85155402D01*
X78479200Y-85154800D01*
X80129200Y-85154800D01*
X80141452Y-85155402D01*
G37*
G36*
X80141452Y-85805402D02*
G01*
X80153586Y-85807202D01*
X80165486Y-85810182D01*
X80177035Y-85814315D01*
X80188125Y-85819560D01*
X80198646Y-85825866D01*
X80208499Y-85833174D01*
X80217588Y-85841412D01*
X80225826Y-85850501D01*
X80233134Y-85860354D01*
X80239440Y-85870875D01*
X80244685Y-85881965D01*
X80248818Y-85893514D01*
X80251798Y-85905414D01*
X80253598Y-85917548D01*
X80254200Y-85929800D01*
X80254200Y-86179800D01*
X80253598Y-86192052D01*
X80251798Y-86204186D01*
X80248818Y-86216086D01*
X80244685Y-86227635D01*
X80239440Y-86238725D01*
X80233134Y-86249246D01*
X80225826Y-86259099D01*
X80217588Y-86268188D01*
X80208499Y-86276426D01*
X80198646Y-86283734D01*
X80188125Y-86290040D01*
X80177035Y-86295285D01*
X80165486Y-86299418D01*
X80153586Y-86302398D01*
X80141452Y-86304198D01*
X80129200Y-86304800D01*
X78479200Y-86304800D01*
X78466948Y-86304198D01*
X78454814Y-86302398D01*
X78442914Y-86299418D01*
X78431365Y-86295285D01*
X78420275Y-86290040D01*
X78409754Y-86283734D01*
X78399901Y-86276426D01*
X78390812Y-86268188D01*
X78382574Y-86259099D01*
X78375266Y-86249246D01*
X78368960Y-86238725D01*
X78363715Y-86227635D01*
X78359582Y-86216086D01*
X78356602Y-86204186D01*
X78354802Y-86192052D01*
X78354200Y-86179800D01*
X78354200Y-85929800D01*
X78354802Y-85917548D01*
X78356602Y-85905414D01*
X78359582Y-85893514D01*
X78363715Y-85881965D01*
X78368960Y-85870875D01*
X78375266Y-85860354D01*
X78382574Y-85850501D01*
X78390812Y-85841412D01*
X78399901Y-85833174D01*
X78409754Y-85825866D01*
X78420275Y-85819560D01*
X78431365Y-85814315D01*
X78442914Y-85810182D01*
X78454814Y-85807202D01*
X78466948Y-85805402D01*
X78479200Y-85804800D01*
X80129200Y-85804800D01*
X80141452Y-85805402D01*
G37*
G36*
X80141452Y-86455402D02*
G01*
X80153586Y-86457202D01*
X80165486Y-86460182D01*
X80177035Y-86464315D01*
X80188125Y-86469560D01*
X80198646Y-86475866D01*
X80208499Y-86483174D01*
X80217588Y-86491412D01*
X80225826Y-86500501D01*
X80233134Y-86510354D01*
X80239440Y-86520875D01*
X80244685Y-86531965D01*
X80248818Y-86543514D01*
X80251798Y-86555414D01*
X80253598Y-86567548D01*
X80254200Y-86579800D01*
X80254200Y-86829800D01*
X80253598Y-86842052D01*
X80251798Y-86854186D01*
X80248818Y-86866086D01*
X80244685Y-86877635D01*
X80239440Y-86888725D01*
X80233134Y-86899246D01*
X80225826Y-86909099D01*
X80217588Y-86918188D01*
X80208499Y-86926426D01*
X80198646Y-86933734D01*
X80188125Y-86940040D01*
X80177035Y-86945285D01*
X80165486Y-86949418D01*
X80153586Y-86952398D01*
X80141452Y-86954198D01*
X80129200Y-86954800D01*
X78479200Y-86954800D01*
X78466948Y-86954198D01*
X78454814Y-86952398D01*
X78442914Y-86949418D01*
X78431365Y-86945285D01*
X78420275Y-86940040D01*
X78409754Y-86933734D01*
X78399901Y-86926426D01*
X78390812Y-86918188D01*
X78382574Y-86909099D01*
X78375266Y-86899246D01*
X78368960Y-86888725D01*
X78363715Y-86877635D01*
X78359582Y-86866086D01*
X78356602Y-86854186D01*
X78354802Y-86842052D01*
X78354200Y-86829800D01*
X78354200Y-86579800D01*
X78354802Y-86567548D01*
X78356602Y-86555414D01*
X78359582Y-86543514D01*
X78363715Y-86531965D01*
X78368960Y-86520875D01*
X78375266Y-86510354D01*
X78382574Y-86500501D01*
X78390812Y-86491412D01*
X78399901Y-86483174D01*
X78409754Y-86475866D01*
X78420275Y-86469560D01*
X78431365Y-86464315D01*
X78442914Y-86460182D01*
X78454814Y-86457202D01*
X78466948Y-86455402D01*
X78479200Y-86454800D01*
X80129200Y-86454800D01*
X80141452Y-86455402D01*
G37*
G36*
X80141452Y-87105402D02*
G01*
X80153586Y-87107202D01*
X80165486Y-87110182D01*
X80177035Y-87114315D01*
X80188125Y-87119560D01*
X80198646Y-87125866D01*
X80208499Y-87133174D01*
X80217588Y-87141412D01*
X80225826Y-87150501D01*
X80233134Y-87160354D01*
X80239440Y-87170875D01*
X80244685Y-87181965D01*
X80248818Y-87193514D01*
X80251798Y-87205414D01*
X80253598Y-87217548D01*
X80254200Y-87229800D01*
X80254200Y-87479800D01*
X80253598Y-87492052D01*
X80251798Y-87504186D01*
X80248818Y-87516086D01*
X80244685Y-87527635D01*
X80239440Y-87538725D01*
X80233134Y-87549246D01*
X80225826Y-87559099D01*
X80217588Y-87568188D01*
X80208499Y-87576426D01*
X80198646Y-87583734D01*
X80188125Y-87590040D01*
X80177035Y-87595285D01*
X80165486Y-87599418D01*
X80153586Y-87602398D01*
X80141452Y-87604198D01*
X80129200Y-87604800D01*
X78479200Y-87604800D01*
X78466948Y-87604198D01*
X78454814Y-87602398D01*
X78442914Y-87599418D01*
X78431365Y-87595285D01*
X78420275Y-87590040D01*
X78409754Y-87583734D01*
X78399901Y-87576426D01*
X78390812Y-87568188D01*
X78382574Y-87559099D01*
X78375266Y-87549246D01*
X78368960Y-87538725D01*
X78363715Y-87527635D01*
X78359582Y-87516086D01*
X78356602Y-87504186D01*
X78354802Y-87492052D01*
X78354200Y-87479800D01*
X78354200Y-87229800D01*
X78354802Y-87217548D01*
X78356602Y-87205414D01*
X78359582Y-87193514D01*
X78363715Y-87181965D01*
X78368960Y-87170875D01*
X78375266Y-87160354D01*
X78382574Y-87150501D01*
X78390812Y-87141412D01*
X78399901Y-87133174D01*
X78409754Y-87125866D01*
X78420275Y-87119560D01*
X78431365Y-87114315D01*
X78442914Y-87110182D01*
X78454814Y-87107202D01*
X78466948Y-87105402D01*
X78479200Y-87104800D01*
X80129200Y-87104800D01*
X80141452Y-87105402D01*
G37*
G36*
X75449691Y-80831653D02*
G01*
X75470926Y-80834803D01*
X75491750Y-80840019D01*
X75511962Y-80847251D01*
X75531368Y-80856430D01*
X75549781Y-80867466D01*
X75567024Y-80880254D01*
X75582930Y-80894670D01*
X75597346Y-80910576D01*
X75610134Y-80927819D01*
X75621170Y-80946232D01*
X75630349Y-80965638D01*
X75637581Y-80985850D01*
X75642797Y-81006674D01*
X75645947Y-81027909D01*
X75647000Y-81049350D01*
X75647000Y-81561850D01*
X75645947Y-81583291D01*
X75642797Y-81604526D01*
X75637581Y-81625350D01*
X75630349Y-81645562D01*
X75621170Y-81664968D01*
X75610134Y-81683381D01*
X75597346Y-81700624D01*
X75582930Y-81716530D01*
X75567024Y-81730946D01*
X75549781Y-81743734D01*
X75531368Y-81754770D01*
X75511962Y-81763949D01*
X75491750Y-81771181D01*
X75470926Y-81776397D01*
X75449691Y-81779547D01*
X75428250Y-81780600D01*
X74990750Y-81780600D01*
X74969309Y-81779547D01*
X74948074Y-81776397D01*
X74927250Y-81771181D01*
X74907038Y-81763949D01*
X74887632Y-81754770D01*
X74869219Y-81743734D01*
X74851976Y-81730946D01*
X74836070Y-81716530D01*
X74821654Y-81700624D01*
X74808866Y-81683381D01*
X74797830Y-81664968D01*
X74788651Y-81645562D01*
X74781419Y-81625350D01*
X74776203Y-81604526D01*
X74773053Y-81583291D01*
X74772000Y-81561850D01*
X74772000Y-81049350D01*
X74773053Y-81027909D01*
X74776203Y-81006674D01*
X74781419Y-80985850D01*
X74788651Y-80965638D01*
X74797830Y-80946232D01*
X74808866Y-80927819D01*
X74821654Y-80910576D01*
X74836070Y-80894670D01*
X74851976Y-80880254D01*
X74869219Y-80867466D01*
X74887632Y-80856430D01*
X74907038Y-80847251D01*
X74927250Y-80840019D01*
X74948074Y-80834803D01*
X74969309Y-80831653D01*
X74990750Y-80830600D01*
X75428250Y-80830600D01*
X75449691Y-80831653D01*
G37*
G36*
X77024691Y-80831653D02*
G01*
X77045926Y-80834803D01*
X77066750Y-80840019D01*
X77086962Y-80847251D01*
X77106368Y-80856430D01*
X77124781Y-80867466D01*
X77142024Y-80880254D01*
X77157930Y-80894670D01*
X77172346Y-80910576D01*
X77185134Y-80927819D01*
X77196170Y-80946232D01*
X77205349Y-80965638D01*
X77212581Y-80985850D01*
X77217797Y-81006674D01*
X77220947Y-81027909D01*
X77222000Y-81049350D01*
X77222000Y-81561850D01*
X77220947Y-81583291D01*
X77217797Y-81604526D01*
X77212581Y-81625350D01*
X77205349Y-81645562D01*
X77196170Y-81664968D01*
X77185134Y-81683381D01*
X77172346Y-81700624D01*
X77157930Y-81716530D01*
X77142024Y-81730946D01*
X77124781Y-81743734D01*
X77106368Y-81754770D01*
X77086962Y-81763949D01*
X77066750Y-81771181D01*
X77045926Y-81776397D01*
X77024691Y-81779547D01*
X77003250Y-81780600D01*
X76565750Y-81780600D01*
X76544309Y-81779547D01*
X76523074Y-81776397D01*
X76502250Y-81771181D01*
X76482038Y-81763949D01*
X76462632Y-81754770D01*
X76444219Y-81743734D01*
X76426976Y-81730946D01*
X76411070Y-81716530D01*
X76396654Y-81700624D01*
X76383866Y-81683381D01*
X76372830Y-81664968D01*
X76363651Y-81645562D01*
X76356419Y-81625350D01*
X76351203Y-81604526D01*
X76348053Y-81583291D01*
X76347000Y-81561850D01*
X76347000Y-81049350D01*
X76348053Y-81027909D01*
X76351203Y-81006674D01*
X76356419Y-80985850D01*
X76363651Y-80965638D01*
X76372830Y-80946232D01*
X76383866Y-80927819D01*
X76396654Y-80910576D01*
X76411070Y-80894670D01*
X76426976Y-80880254D01*
X76444219Y-80867466D01*
X76462632Y-80856430D01*
X76482038Y-80847251D01*
X76502250Y-80840019D01*
X76523074Y-80834803D01*
X76544309Y-80831653D01*
X76565750Y-80830600D01*
X77003250Y-80830600D01*
X77024691Y-80831653D01*
G37*
D11*
X143100000Y-118810000D03*
X143100000Y-127990000D03*
X56900000Y-127990000D03*
X56900000Y-118810000D03*
D12*
X137800000Y-118050000D03*
X137200000Y-118050000D03*
X136600000Y-118050000D03*
X136000000Y-118050000D03*
X135400000Y-118050000D03*
X134800000Y-118050000D03*
X134200000Y-118050000D03*
X133600000Y-118050000D03*
X133000000Y-118050000D03*
X132400000Y-118050000D03*
X131800000Y-118050000D03*
X131200000Y-118050000D03*
X130600000Y-118050000D03*
X130000000Y-118050000D03*
X129400000Y-118050000D03*
X128800000Y-118050000D03*
X128200000Y-118050000D03*
X127600000Y-118050000D03*
X127000000Y-118050000D03*
X126400000Y-118050000D03*
X125800000Y-118050000D03*
X125200000Y-118050000D03*
X124600000Y-118050000D03*
X124000000Y-118050000D03*
X123400000Y-118050000D03*
X122800000Y-118050000D03*
X122200000Y-118050000D03*
X121600000Y-118050000D03*
X121000000Y-118050000D03*
X120400000Y-118050000D03*
X119800000Y-118050000D03*
X119200000Y-118050000D03*
X118600000Y-118050000D03*
X118000000Y-118050000D03*
X117400000Y-118050000D03*
X116800000Y-118050000D03*
X116200000Y-118050000D03*
X115600000Y-118050000D03*
X115000000Y-118050000D03*
X114400000Y-118050000D03*
X113800000Y-118050000D03*
X113200000Y-118050000D03*
X112600000Y-118050000D03*
X112000000Y-118050000D03*
X111400000Y-118050000D03*
X110800000Y-118050000D03*
X110200000Y-118050000D03*
X109600000Y-118050000D03*
X109000000Y-118050000D03*
X108400000Y-118050000D03*
X107800000Y-118050000D03*
X107200000Y-118050000D03*
X106600000Y-118050000D03*
X106000000Y-118050000D03*
X105400000Y-118050000D03*
X104800000Y-118050000D03*
X104200000Y-118050000D03*
X100600000Y-118050000D03*
X100000000Y-118050000D03*
X99400000Y-118050000D03*
X98800000Y-118050000D03*
X98200000Y-118050000D03*
X97600000Y-118050000D03*
X97000000Y-118050000D03*
X96400000Y-118050000D03*
X95800000Y-118050000D03*
X95200000Y-118050000D03*
X94600000Y-118050000D03*
X94000000Y-118050000D03*
X93400000Y-118050000D03*
X92800000Y-118050000D03*
X92200000Y-118050000D03*
X91600000Y-118050000D03*
X91000000Y-118050000D03*
X90400000Y-118050000D03*
X89800000Y-118050000D03*
X89200000Y-118050000D03*
X88600000Y-118050000D03*
X88000000Y-118050000D03*
X87400000Y-118050000D03*
X86800000Y-118050000D03*
X86200000Y-118050000D03*
X85600000Y-118050000D03*
X85000000Y-118050000D03*
X84400000Y-118050000D03*
X83800000Y-118050000D03*
X83200000Y-118050000D03*
X82600000Y-118050000D03*
X82000000Y-118050000D03*
X81400000Y-118050000D03*
X80800000Y-118050000D03*
X80200000Y-118050000D03*
X79600000Y-118050000D03*
X79000000Y-118050000D03*
X78400000Y-118050000D03*
X77800000Y-118050000D03*
X77200000Y-118050000D03*
X76600000Y-118050000D03*
X76000000Y-118050000D03*
X75400000Y-118050000D03*
X74800000Y-118050000D03*
X74200000Y-118050000D03*
X73600000Y-118050000D03*
X73000000Y-118050000D03*
X72400000Y-118050000D03*
X71800000Y-118050000D03*
X71200000Y-118050000D03*
X70600000Y-118050000D03*
X70000000Y-118050000D03*
X69400000Y-118050000D03*
X68800000Y-118050000D03*
X68200000Y-118050000D03*
X67600000Y-118050000D03*
X67000000Y-118050000D03*
X66400000Y-118050000D03*
X65800000Y-118050000D03*
X65200000Y-118050000D03*
X64600000Y-118050000D03*
X64000000Y-118050000D03*
X63400000Y-118050000D03*
X62800000Y-118050000D03*
X62200000Y-118050000D03*
X137800000Y-126750000D03*
X137200000Y-126750000D03*
X136600000Y-126750000D03*
X136000000Y-126750000D03*
X135400000Y-126750000D03*
X134800000Y-126750000D03*
X134200000Y-126750000D03*
X133600000Y-126750000D03*
X133000000Y-126750000D03*
X132400000Y-126750000D03*
X131800000Y-126750000D03*
X131200000Y-126750000D03*
X130600000Y-126750000D03*
X130000000Y-126750000D03*
X129400000Y-126750000D03*
X128800000Y-126750000D03*
X128200000Y-126750000D03*
X127600000Y-126750000D03*
X127000000Y-126750000D03*
X126400000Y-126750000D03*
X125800000Y-126750000D03*
X125200000Y-126750000D03*
X124600000Y-126750000D03*
X124000000Y-126750000D03*
X123400000Y-126750000D03*
X122800000Y-126750000D03*
X122200000Y-126750000D03*
X121600000Y-126750000D03*
X121000000Y-126750000D03*
X120400000Y-126750000D03*
X119800000Y-126750000D03*
X119200000Y-126750000D03*
X118600000Y-126750000D03*
X118000000Y-126750000D03*
X117400000Y-126750000D03*
X116800000Y-126750000D03*
X116200000Y-126750000D03*
X115600000Y-126750000D03*
X115000000Y-126750000D03*
X114400000Y-126750000D03*
X113800000Y-126750000D03*
X113200000Y-126750000D03*
X112600000Y-126750000D03*
X112000000Y-126750000D03*
X111400000Y-126750000D03*
X110800000Y-126750000D03*
X110200000Y-126750000D03*
X109600000Y-126750000D03*
X109000000Y-126750000D03*
X108400000Y-126750000D03*
X107800000Y-126750000D03*
X107200000Y-126750000D03*
X106600000Y-126750000D03*
X106000000Y-126750000D03*
X105400000Y-126750000D03*
X104800000Y-126750000D03*
X104200000Y-126750000D03*
X100600000Y-126750000D03*
X100000000Y-126750000D03*
X99400000Y-126750000D03*
X98800000Y-126750000D03*
X98200000Y-126750000D03*
X97600000Y-126750000D03*
X97000000Y-126750000D03*
X96400000Y-126750000D03*
X95800000Y-126750000D03*
X95200000Y-126750000D03*
X94600000Y-126750000D03*
X94000000Y-126750000D03*
X93400000Y-126750000D03*
X92800000Y-126750000D03*
X92200000Y-126750000D03*
X91600000Y-126750000D03*
X91000000Y-126750000D03*
X89800000Y-126750000D03*
X90400000Y-126750000D03*
X89200000Y-126750000D03*
X88600000Y-126750000D03*
X88000000Y-126750000D03*
X87400000Y-126750000D03*
X86800000Y-126750000D03*
X86200000Y-126750000D03*
X85600000Y-126750000D03*
X85000000Y-126750000D03*
X84400000Y-126750000D03*
X83800000Y-126750000D03*
X83200000Y-126750000D03*
X82600000Y-126750000D03*
X82000000Y-126750000D03*
X81400000Y-126750000D03*
X80800000Y-126750000D03*
X80200000Y-126750000D03*
X79600000Y-126750000D03*
X79000000Y-126750000D03*
X78400000Y-126750000D03*
X77800000Y-126750000D03*
X77200000Y-126750000D03*
X76600000Y-126750000D03*
X76000000Y-126750000D03*
X75400000Y-126750000D03*
X74800000Y-126750000D03*
X74200000Y-126750000D03*
X73600000Y-126750000D03*
X73000000Y-126750000D03*
X72400000Y-126750000D03*
X71800000Y-126750000D03*
X71200000Y-126750000D03*
X70600000Y-126750000D03*
X70000000Y-126750000D03*
X69400000Y-126750000D03*
X68800000Y-126750000D03*
X68200000Y-126750000D03*
X67600000Y-126750000D03*
X67000000Y-126750000D03*
X66400000Y-126750000D03*
X65800000Y-126750000D03*
X65200000Y-126750000D03*
X64600000Y-126750000D03*
X64000000Y-126750000D03*
X63400000Y-126750000D03*
X62200000Y-126750000D03*
X62800000Y-126750000D03*
D13*
X102400000Y-118810000D03*
X102400000Y-127990000D03*
D14*
X71905000Y-84214000D03*
X71905000Y-84764000D03*
X71905000Y-85764000D03*
X71905000Y-85264000D03*
D15*
X72580000Y-83589000D03*
X73080000Y-83589000D03*
X73580000Y-83589000D03*
X74080000Y-83589000D03*
X72580000Y-86439000D03*
X73080000Y-86439000D03*
X73580000Y-86439000D03*
X74080000Y-86439000D03*
D14*
X74755000Y-84264000D03*
X74755000Y-84764000D03*
X74755000Y-85264000D03*
X74755000Y-85764000D03*
D16*
X73330000Y-85014000D03*
D10*
G36*
X77163691Y-85822053D02*
G01*
X77184926Y-85825203D01*
X77205750Y-85830419D01*
X77225962Y-85837651D01*
X77245368Y-85846830D01*
X77263781Y-85857866D01*
X77281024Y-85870654D01*
X77296930Y-85885070D01*
X77311346Y-85900976D01*
X77324134Y-85918219D01*
X77335170Y-85936632D01*
X77344349Y-85956038D01*
X77351581Y-85976250D01*
X77356797Y-85997074D01*
X77359947Y-86018309D01*
X77361000Y-86039750D01*
X77361000Y-86477250D01*
X77359947Y-86498691D01*
X77356797Y-86519926D01*
X77351581Y-86540750D01*
X77344349Y-86560962D01*
X77335170Y-86580368D01*
X77324134Y-86598781D01*
X77311346Y-86616024D01*
X77296930Y-86631930D01*
X77281024Y-86646346D01*
X77263781Y-86659134D01*
X77245368Y-86670170D01*
X77225962Y-86679349D01*
X77205750Y-86686581D01*
X77184926Y-86691797D01*
X77163691Y-86694947D01*
X77142250Y-86696000D01*
X76629750Y-86696000D01*
X76608309Y-86694947D01*
X76587074Y-86691797D01*
X76566250Y-86686581D01*
X76546038Y-86679349D01*
X76526632Y-86670170D01*
X76508219Y-86659134D01*
X76490976Y-86646346D01*
X76475070Y-86631930D01*
X76460654Y-86616024D01*
X76447866Y-86598781D01*
X76436830Y-86580368D01*
X76427651Y-86560962D01*
X76420419Y-86540750D01*
X76415203Y-86519926D01*
X76412053Y-86498691D01*
X76411000Y-86477250D01*
X76411000Y-86039750D01*
X76412053Y-86018309D01*
X76415203Y-85997074D01*
X76420419Y-85976250D01*
X76427651Y-85956038D01*
X76436830Y-85936632D01*
X76447866Y-85918219D01*
X76460654Y-85900976D01*
X76475070Y-85885070D01*
X76490976Y-85870654D01*
X76508219Y-85857866D01*
X76526632Y-85846830D01*
X76546038Y-85837651D01*
X76566250Y-85830419D01*
X76587074Y-85825203D01*
X76608309Y-85822053D01*
X76629750Y-85821000D01*
X77142250Y-85821000D01*
X77163691Y-85822053D01*
G37*
G36*
X77163691Y-87397053D02*
G01*
X77184926Y-87400203D01*
X77205750Y-87405419D01*
X77225962Y-87412651D01*
X77245368Y-87421830D01*
X77263781Y-87432866D01*
X77281024Y-87445654D01*
X77296930Y-87460070D01*
X77311346Y-87475976D01*
X77324134Y-87493219D01*
X77335170Y-87511632D01*
X77344349Y-87531038D01*
X77351581Y-87551250D01*
X77356797Y-87572074D01*
X77359947Y-87593309D01*
X77361000Y-87614750D01*
X77361000Y-88052250D01*
X77359947Y-88073691D01*
X77356797Y-88094926D01*
X77351581Y-88115750D01*
X77344349Y-88135962D01*
X77335170Y-88155368D01*
X77324134Y-88173781D01*
X77311346Y-88191024D01*
X77296930Y-88206930D01*
X77281024Y-88221346D01*
X77263781Y-88234134D01*
X77245368Y-88245170D01*
X77225962Y-88254349D01*
X77205750Y-88261581D01*
X77184926Y-88266797D01*
X77163691Y-88269947D01*
X77142250Y-88271000D01*
X76629750Y-88271000D01*
X76608309Y-88269947D01*
X76587074Y-88266797D01*
X76566250Y-88261581D01*
X76546038Y-88254349D01*
X76526632Y-88245170D01*
X76508219Y-88234134D01*
X76490976Y-88221346D01*
X76475070Y-88206930D01*
X76460654Y-88191024D01*
X76447866Y-88173781D01*
X76436830Y-88155368D01*
X76427651Y-88135962D01*
X76420419Y-88115750D01*
X76415203Y-88094926D01*
X76412053Y-88073691D01*
X76411000Y-88052250D01*
X76411000Y-87614750D01*
X76412053Y-87593309D01*
X76415203Y-87572074D01*
X76420419Y-87551250D01*
X76427651Y-87531038D01*
X76436830Y-87511632D01*
X76447866Y-87493219D01*
X76460654Y-87475976D01*
X76475070Y-87460070D01*
X76490976Y-87445654D01*
X76508219Y-87432866D01*
X76526632Y-87421830D01*
X76546038Y-87412651D01*
X76566250Y-87405419D01*
X76587074Y-87400203D01*
X76608309Y-87397053D01*
X76629750Y-87396000D01*
X77142250Y-87396000D01*
X77163691Y-87397053D01*
G37*
G36*
X74052691Y-87943653D02*
G01*
X74073926Y-87946803D01*
X74094750Y-87952019D01*
X74114962Y-87959251D01*
X74134368Y-87968430D01*
X74152781Y-87979466D01*
X74170024Y-87992254D01*
X74185930Y-88006670D01*
X74200346Y-88022576D01*
X74213134Y-88039819D01*
X74224170Y-88058232D01*
X74233349Y-88077638D01*
X74240581Y-88097850D01*
X74245797Y-88118674D01*
X74248947Y-88139909D01*
X74250000Y-88161350D01*
X74250000Y-88673850D01*
X74248947Y-88695291D01*
X74245797Y-88716526D01*
X74240581Y-88737350D01*
X74233349Y-88757562D01*
X74224170Y-88776968D01*
X74213134Y-88795381D01*
X74200346Y-88812624D01*
X74185930Y-88828530D01*
X74170024Y-88842946D01*
X74152781Y-88855734D01*
X74134368Y-88866770D01*
X74114962Y-88875949D01*
X74094750Y-88883181D01*
X74073926Y-88888397D01*
X74052691Y-88891547D01*
X74031250Y-88892600D01*
X73593750Y-88892600D01*
X73572309Y-88891547D01*
X73551074Y-88888397D01*
X73530250Y-88883181D01*
X73510038Y-88875949D01*
X73490632Y-88866770D01*
X73472219Y-88855734D01*
X73454976Y-88842946D01*
X73439070Y-88828530D01*
X73424654Y-88812624D01*
X73411866Y-88795381D01*
X73400830Y-88776968D01*
X73391651Y-88757562D01*
X73384419Y-88737350D01*
X73379203Y-88716526D01*
X73376053Y-88695291D01*
X73375000Y-88673850D01*
X73375000Y-88161350D01*
X73376053Y-88139909D01*
X73379203Y-88118674D01*
X73384419Y-88097850D01*
X73391651Y-88077638D01*
X73400830Y-88058232D01*
X73411866Y-88039819D01*
X73424654Y-88022576D01*
X73439070Y-88006670D01*
X73454976Y-87992254D01*
X73472219Y-87979466D01*
X73490632Y-87968430D01*
X73510038Y-87959251D01*
X73530250Y-87952019D01*
X73551074Y-87946803D01*
X73572309Y-87943653D01*
X73593750Y-87942600D01*
X74031250Y-87942600D01*
X74052691Y-87943653D01*
G37*
G36*
X75627691Y-87943653D02*
G01*
X75648926Y-87946803D01*
X75669750Y-87952019D01*
X75689962Y-87959251D01*
X75709368Y-87968430D01*
X75727781Y-87979466D01*
X75745024Y-87992254D01*
X75760930Y-88006670D01*
X75775346Y-88022576D01*
X75788134Y-88039819D01*
X75799170Y-88058232D01*
X75808349Y-88077638D01*
X75815581Y-88097850D01*
X75820797Y-88118674D01*
X75823947Y-88139909D01*
X75825000Y-88161350D01*
X75825000Y-88673850D01*
X75823947Y-88695291D01*
X75820797Y-88716526D01*
X75815581Y-88737350D01*
X75808349Y-88757562D01*
X75799170Y-88776968D01*
X75788134Y-88795381D01*
X75775346Y-88812624D01*
X75760930Y-88828530D01*
X75745024Y-88842946D01*
X75727781Y-88855734D01*
X75709368Y-88866770D01*
X75689962Y-88875949D01*
X75669750Y-88883181D01*
X75648926Y-88888397D01*
X75627691Y-88891547D01*
X75606250Y-88892600D01*
X75168750Y-88892600D01*
X75147309Y-88891547D01*
X75126074Y-88888397D01*
X75105250Y-88883181D01*
X75085038Y-88875949D01*
X75065632Y-88866770D01*
X75047219Y-88855734D01*
X75029976Y-88842946D01*
X75014070Y-88828530D01*
X74999654Y-88812624D01*
X74986866Y-88795381D01*
X74975830Y-88776968D01*
X74966651Y-88757562D01*
X74959419Y-88737350D01*
X74954203Y-88716526D01*
X74951053Y-88695291D01*
X74950000Y-88673850D01*
X74950000Y-88161350D01*
X74951053Y-88139909D01*
X74954203Y-88118674D01*
X74959419Y-88097850D01*
X74966651Y-88077638D01*
X74975830Y-88058232D01*
X74986866Y-88039819D01*
X74999654Y-88022576D01*
X75014070Y-88006670D01*
X75029976Y-87992254D01*
X75047219Y-87979466D01*
X75065632Y-87968430D01*
X75085038Y-87959251D01*
X75105250Y-87952019D01*
X75126074Y-87946803D01*
X75147309Y-87943653D01*
X75168750Y-87942600D01*
X75606250Y-87942600D01*
X75627691Y-87943653D01*
G37*
G36*
X81291691Y-90382053D02*
G01*
X81312926Y-90385203D01*
X81333750Y-90390419D01*
X81353962Y-90397651D01*
X81373368Y-90406830D01*
X81391781Y-90417866D01*
X81409024Y-90430654D01*
X81424930Y-90445070D01*
X81439346Y-90460976D01*
X81452134Y-90478219D01*
X81463170Y-90496632D01*
X81472349Y-90516038D01*
X81479581Y-90536250D01*
X81484797Y-90557074D01*
X81487947Y-90578309D01*
X81489000Y-90599750D01*
X81489000Y-91112250D01*
X81487947Y-91133691D01*
X81484797Y-91154926D01*
X81479581Y-91175750D01*
X81472349Y-91195962D01*
X81463170Y-91215368D01*
X81452134Y-91233781D01*
X81439346Y-91251024D01*
X81424930Y-91266930D01*
X81409024Y-91281346D01*
X81391781Y-91294134D01*
X81373368Y-91305170D01*
X81353962Y-91314349D01*
X81333750Y-91321581D01*
X81312926Y-91326797D01*
X81291691Y-91329947D01*
X81270250Y-91331000D01*
X80832750Y-91331000D01*
X80811309Y-91329947D01*
X80790074Y-91326797D01*
X80769250Y-91321581D01*
X80749038Y-91314349D01*
X80729632Y-91305170D01*
X80711219Y-91294134D01*
X80693976Y-91281346D01*
X80678070Y-91266930D01*
X80663654Y-91251024D01*
X80650866Y-91233781D01*
X80639830Y-91215368D01*
X80630651Y-91195962D01*
X80623419Y-91175750D01*
X80618203Y-91154926D01*
X80615053Y-91133691D01*
X80614000Y-91112250D01*
X80614000Y-90599750D01*
X80615053Y-90578309D01*
X80618203Y-90557074D01*
X80623419Y-90536250D01*
X80630651Y-90516038D01*
X80639830Y-90496632D01*
X80650866Y-90478219D01*
X80663654Y-90460976D01*
X80678070Y-90445070D01*
X80693976Y-90430654D01*
X80711219Y-90417866D01*
X80729632Y-90406830D01*
X80749038Y-90397651D01*
X80769250Y-90390419D01*
X80790074Y-90385203D01*
X80811309Y-90382053D01*
X80832750Y-90381000D01*
X81270250Y-90381000D01*
X81291691Y-90382053D01*
G37*
G36*
X82866691Y-90382053D02*
G01*
X82887926Y-90385203D01*
X82908750Y-90390419D01*
X82928962Y-90397651D01*
X82948368Y-90406830D01*
X82966781Y-90417866D01*
X82984024Y-90430654D01*
X82999930Y-90445070D01*
X83014346Y-90460976D01*
X83027134Y-90478219D01*
X83038170Y-90496632D01*
X83047349Y-90516038D01*
X83054581Y-90536250D01*
X83059797Y-90557074D01*
X83062947Y-90578309D01*
X83064000Y-90599750D01*
X83064000Y-91112250D01*
X83062947Y-91133691D01*
X83059797Y-91154926D01*
X83054581Y-91175750D01*
X83047349Y-91195962D01*
X83038170Y-91215368D01*
X83027134Y-91233781D01*
X83014346Y-91251024D01*
X82999930Y-91266930D01*
X82984024Y-91281346D01*
X82966781Y-91294134D01*
X82948368Y-91305170D01*
X82928962Y-91314349D01*
X82908750Y-91321581D01*
X82887926Y-91326797D01*
X82866691Y-91329947D01*
X82845250Y-91331000D01*
X82407750Y-91331000D01*
X82386309Y-91329947D01*
X82365074Y-91326797D01*
X82344250Y-91321581D01*
X82324038Y-91314349D01*
X82304632Y-91305170D01*
X82286219Y-91294134D01*
X82268976Y-91281346D01*
X82253070Y-91266930D01*
X82238654Y-91251024D01*
X82225866Y-91233781D01*
X82214830Y-91215368D01*
X82205651Y-91195962D01*
X82198419Y-91175750D01*
X82193203Y-91154926D01*
X82190053Y-91133691D01*
X82189000Y-91112250D01*
X82189000Y-90599750D01*
X82190053Y-90578309D01*
X82193203Y-90557074D01*
X82198419Y-90536250D01*
X82205651Y-90516038D01*
X82214830Y-90496632D01*
X82225866Y-90478219D01*
X82238654Y-90460976D01*
X82253070Y-90445070D01*
X82268976Y-90430654D01*
X82286219Y-90417866D01*
X82304632Y-90406830D01*
X82324038Y-90397651D01*
X82344250Y-90390419D01*
X82365074Y-90385203D01*
X82386309Y-90382053D01*
X82407750Y-90381000D01*
X82845250Y-90381000D01*
X82866691Y-90382053D01*
G37*
G36*
X68019691Y-88032053D02*
G01*
X68040926Y-88035203D01*
X68061750Y-88040419D01*
X68081962Y-88047651D01*
X68101368Y-88056830D01*
X68119781Y-88067866D01*
X68137024Y-88080654D01*
X68152930Y-88095070D01*
X68167346Y-88110976D01*
X68180134Y-88128219D01*
X68191170Y-88146632D01*
X68200349Y-88166038D01*
X68207581Y-88186250D01*
X68212797Y-88207074D01*
X68215947Y-88228309D01*
X68217000Y-88249750D01*
X68217000Y-88687250D01*
X68215947Y-88708691D01*
X68212797Y-88729926D01*
X68207581Y-88750750D01*
X68200349Y-88770962D01*
X68191170Y-88790368D01*
X68180134Y-88808781D01*
X68167346Y-88826024D01*
X68152930Y-88841930D01*
X68137024Y-88856346D01*
X68119781Y-88869134D01*
X68101368Y-88880170D01*
X68081962Y-88889349D01*
X68061750Y-88896581D01*
X68040926Y-88901797D01*
X68019691Y-88904947D01*
X67998250Y-88906000D01*
X67485750Y-88906000D01*
X67464309Y-88904947D01*
X67443074Y-88901797D01*
X67422250Y-88896581D01*
X67402038Y-88889349D01*
X67382632Y-88880170D01*
X67364219Y-88869134D01*
X67346976Y-88856346D01*
X67331070Y-88841930D01*
X67316654Y-88826024D01*
X67303866Y-88808781D01*
X67292830Y-88790368D01*
X67283651Y-88770962D01*
X67276419Y-88750750D01*
X67271203Y-88729926D01*
X67268053Y-88708691D01*
X67267000Y-88687250D01*
X67267000Y-88249750D01*
X67268053Y-88228309D01*
X67271203Y-88207074D01*
X67276419Y-88186250D01*
X67283651Y-88166038D01*
X67292830Y-88146632D01*
X67303866Y-88128219D01*
X67316654Y-88110976D01*
X67331070Y-88095070D01*
X67346976Y-88080654D01*
X67364219Y-88067866D01*
X67382632Y-88056830D01*
X67402038Y-88047651D01*
X67422250Y-88040419D01*
X67443074Y-88035203D01*
X67464309Y-88032053D01*
X67485750Y-88031000D01*
X67998250Y-88031000D01*
X68019691Y-88032053D01*
G37*
G36*
X68019691Y-86457053D02*
G01*
X68040926Y-86460203D01*
X68061750Y-86465419D01*
X68081962Y-86472651D01*
X68101368Y-86481830D01*
X68119781Y-86492866D01*
X68137024Y-86505654D01*
X68152930Y-86520070D01*
X68167346Y-86535976D01*
X68180134Y-86553219D01*
X68191170Y-86571632D01*
X68200349Y-86591038D01*
X68207581Y-86611250D01*
X68212797Y-86632074D01*
X68215947Y-86653309D01*
X68217000Y-86674750D01*
X68217000Y-87112250D01*
X68215947Y-87133691D01*
X68212797Y-87154926D01*
X68207581Y-87175750D01*
X68200349Y-87195962D01*
X68191170Y-87215368D01*
X68180134Y-87233781D01*
X68167346Y-87251024D01*
X68152930Y-87266930D01*
X68137024Y-87281346D01*
X68119781Y-87294134D01*
X68101368Y-87305170D01*
X68081962Y-87314349D01*
X68061750Y-87321581D01*
X68040926Y-87326797D01*
X68019691Y-87329947D01*
X67998250Y-87331000D01*
X67485750Y-87331000D01*
X67464309Y-87329947D01*
X67443074Y-87326797D01*
X67422250Y-87321581D01*
X67402038Y-87314349D01*
X67382632Y-87305170D01*
X67364219Y-87294134D01*
X67346976Y-87281346D01*
X67331070Y-87266930D01*
X67316654Y-87251024D01*
X67303866Y-87233781D01*
X67292830Y-87215368D01*
X67283651Y-87195962D01*
X67276419Y-87175750D01*
X67271203Y-87154926D01*
X67268053Y-87133691D01*
X67267000Y-87112250D01*
X67267000Y-86674750D01*
X67268053Y-86653309D01*
X67271203Y-86632074D01*
X67276419Y-86611250D01*
X67283651Y-86591038D01*
X67292830Y-86571632D01*
X67303866Y-86553219D01*
X67316654Y-86535976D01*
X67331070Y-86520070D01*
X67346976Y-86505654D01*
X67364219Y-86492866D01*
X67382632Y-86481830D01*
X67402038Y-86472651D01*
X67422250Y-86465419D01*
X67443074Y-86460203D01*
X67464309Y-86457053D01*
X67485750Y-86456000D01*
X67998250Y-86456000D01*
X68019691Y-86457053D01*
G37*
G36*
X71004691Y-87943653D02*
G01*
X71025926Y-87946803D01*
X71046750Y-87952019D01*
X71066962Y-87959251D01*
X71086368Y-87968430D01*
X71104781Y-87979466D01*
X71122024Y-87992254D01*
X71137930Y-88006670D01*
X71152346Y-88022576D01*
X71165134Y-88039819D01*
X71176170Y-88058232D01*
X71185349Y-88077638D01*
X71192581Y-88097850D01*
X71197797Y-88118674D01*
X71200947Y-88139909D01*
X71202000Y-88161350D01*
X71202000Y-88673850D01*
X71200947Y-88695291D01*
X71197797Y-88716526D01*
X71192581Y-88737350D01*
X71185349Y-88757562D01*
X71176170Y-88776968D01*
X71165134Y-88795381D01*
X71152346Y-88812624D01*
X71137930Y-88828530D01*
X71122024Y-88842946D01*
X71104781Y-88855734D01*
X71086368Y-88866770D01*
X71066962Y-88875949D01*
X71046750Y-88883181D01*
X71025926Y-88888397D01*
X71004691Y-88891547D01*
X70983250Y-88892600D01*
X70545750Y-88892600D01*
X70524309Y-88891547D01*
X70503074Y-88888397D01*
X70482250Y-88883181D01*
X70462038Y-88875949D01*
X70442632Y-88866770D01*
X70424219Y-88855734D01*
X70406976Y-88842946D01*
X70391070Y-88828530D01*
X70376654Y-88812624D01*
X70363866Y-88795381D01*
X70352830Y-88776968D01*
X70343651Y-88757562D01*
X70336419Y-88737350D01*
X70331203Y-88716526D01*
X70328053Y-88695291D01*
X70327000Y-88673850D01*
X70327000Y-88161350D01*
X70328053Y-88139909D01*
X70331203Y-88118674D01*
X70336419Y-88097850D01*
X70343651Y-88077638D01*
X70352830Y-88058232D01*
X70363866Y-88039819D01*
X70376654Y-88022576D01*
X70391070Y-88006670D01*
X70406976Y-87992254D01*
X70424219Y-87979466D01*
X70442632Y-87968430D01*
X70462038Y-87959251D01*
X70482250Y-87952019D01*
X70503074Y-87946803D01*
X70524309Y-87943653D01*
X70545750Y-87942600D01*
X70983250Y-87942600D01*
X71004691Y-87943653D01*
G37*
G36*
X72579691Y-87943653D02*
G01*
X72600926Y-87946803D01*
X72621750Y-87952019D01*
X72641962Y-87959251D01*
X72661368Y-87968430D01*
X72679781Y-87979466D01*
X72697024Y-87992254D01*
X72712930Y-88006670D01*
X72727346Y-88022576D01*
X72740134Y-88039819D01*
X72751170Y-88058232D01*
X72760349Y-88077638D01*
X72767581Y-88097850D01*
X72772797Y-88118674D01*
X72775947Y-88139909D01*
X72777000Y-88161350D01*
X72777000Y-88673850D01*
X72775947Y-88695291D01*
X72772797Y-88716526D01*
X72767581Y-88737350D01*
X72760349Y-88757562D01*
X72751170Y-88776968D01*
X72740134Y-88795381D01*
X72727346Y-88812624D01*
X72712930Y-88828530D01*
X72697024Y-88842946D01*
X72679781Y-88855734D01*
X72661368Y-88866770D01*
X72641962Y-88875949D01*
X72621750Y-88883181D01*
X72600926Y-88888397D01*
X72579691Y-88891547D01*
X72558250Y-88892600D01*
X72120750Y-88892600D01*
X72099309Y-88891547D01*
X72078074Y-88888397D01*
X72057250Y-88883181D01*
X72037038Y-88875949D01*
X72017632Y-88866770D01*
X71999219Y-88855734D01*
X71981976Y-88842946D01*
X71966070Y-88828530D01*
X71951654Y-88812624D01*
X71938866Y-88795381D01*
X71927830Y-88776968D01*
X71918651Y-88757562D01*
X71911419Y-88737350D01*
X71906203Y-88716526D01*
X71903053Y-88695291D01*
X71902000Y-88673850D01*
X71902000Y-88161350D01*
X71903053Y-88139909D01*
X71906203Y-88118674D01*
X71911419Y-88097850D01*
X71918651Y-88077638D01*
X71927830Y-88058232D01*
X71938866Y-88039819D01*
X71951654Y-88022576D01*
X71966070Y-88006670D01*
X71981976Y-87992254D01*
X71999219Y-87979466D01*
X72017632Y-87968430D01*
X72037038Y-87959251D01*
X72057250Y-87952019D01*
X72078074Y-87946803D01*
X72099309Y-87943653D01*
X72120750Y-87942600D01*
X72558250Y-87942600D01*
X72579691Y-87943653D01*
G37*
G36*
X72401691Y-80831653D02*
G01*
X72422926Y-80834803D01*
X72443750Y-80840019D01*
X72463962Y-80847251D01*
X72483368Y-80856430D01*
X72501781Y-80867466D01*
X72519024Y-80880254D01*
X72534930Y-80894670D01*
X72549346Y-80910576D01*
X72562134Y-80927819D01*
X72573170Y-80946232D01*
X72582349Y-80965638D01*
X72589581Y-80985850D01*
X72594797Y-81006674D01*
X72597947Y-81027909D01*
X72599000Y-81049350D01*
X72599000Y-81561850D01*
X72597947Y-81583291D01*
X72594797Y-81604526D01*
X72589581Y-81625350D01*
X72582349Y-81645562D01*
X72573170Y-81664968D01*
X72562134Y-81683381D01*
X72549346Y-81700624D01*
X72534930Y-81716530D01*
X72519024Y-81730946D01*
X72501781Y-81743734D01*
X72483368Y-81754770D01*
X72463962Y-81763949D01*
X72443750Y-81771181D01*
X72422926Y-81776397D01*
X72401691Y-81779547D01*
X72380250Y-81780600D01*
X71942750Y-81780600D01*
X71921309Y-81779547D01*
X71900074Y-81776397D01*
X71879250Y-81771181D01*
X71859038Y-81763949D01*
X71839632Y-81754770D01*
X71821219Y-81743734D01*
X71803976Y-81730946D01*
X71788070Y-81716530D01*
X71773654Y-81700624D01*
X71760866Y-81683381D01*
X71749830Y-81664968D01*
X71740651Y-81645562D01*
X71733419Y-81625350D01*
X71728203Y-81604526D01*
X71725053Y-81583291D01*
X71724000Y-81561850D01*
X71724000Y-81049350D01*
X71725053Y-81027909D01*
X71728203Y-81006674D01*
X71733419Y-80985850D01*
X71740651Y-80965638D01*
X71749830Y-80946232D01*
X71760866Y-80927819D01*
X71773654Y-80910576D01*
X71788070Y-80894670D01*
X71803976Y-80880254D01*
X71821219Y-80867466D01*
X71839632Y-80856430D01*
X71859038Y-80847251D01*
X71879250Y-80840019D01*
X71900074Y-80834803D01*
X71921309Y-80831653D01*
X71942750Y-80830600D01*
X72380250Y-80830600D01*
X72401691Y-80831653D01*
G37*
G36*
X73976691Y-80831653D02*
G01*
X73997926Y-80834803D01*
X74018750Y-80840019D01*
X74038962Y-80847251D01*
X74058368Y-80856430D01*
X74076781Y-80867466D01*
X74094024Y-80880254D01*
X74109930Y-80894670D01*
X74124346Y-80910576D01*
X74137134Y-80927819D01*
X74148170Y-80946232D01*
X74157349Y-80965638D01*
X74164581Y-80985850D01*
X74169797Y-81006674D01*
X74172947Y-81027909D01*
X74174000Y-81049350D01*
X74174000Y-81561850D01*
X74172947Y-81583291D01*
X74169797Y-81604526D01*
X74164581Y-81625350D01*
X74157349Y-81645562D01*
X74148170Y-81664968D01*
X74137134Y-81683381D01*
X74124346Y-81700624D01*
X74109930Y-81716530D01*
X74094024Y-81730946D01*
X74076781Y-81743734D01*
X74058368Y-81754770D01*
X74038962Y-81763949D01*
X74018750Y-81771181D01*
X73997926Y-81776397D01*
X73976691Y-81779547D01*
X73955250Y-81780600D01*
X73517750Y-81780600D01*
X73496309Y-81779547D01*
X73475074Y-81776397D01*
X73454250Y-81771181D01*
X73434038Y-81763949D01*
X73414632Y-81754770D01*
X73396219Y-81743734D01*
X73378976Y-81730946D01*
X73363070Y-81716530D01*
X73348654Y-81700624D01*
X73335866Y-81683381D01*
X73324830Y-81664968D01*
X73315651Y-81645562D01*
X73308419Y-81625350D01*
X73303203Y-81604526D01*
X73300053Y-81583291D01*
X73299000Y-81561850D01*
X73299000Y-81049350D01*
X73300053Y-81027909D01*
X73303203Y-81006674D01*
X73308419Y-80985850D01*
X73315651Y-80965638D01*
X73324830Y-80946232D01*
X73335866Y-80927819D01*
X73348654Y-80910576D01*
X73363070Y-80894670D01*
X73378976Y-80880254D01*
X73396219Y-80867466D01*
X73414632Y-80856430D01*
X73434038Y-80847251D01*
X73454250Y-80840019D01*
X73475074Y-80834803D01*
X73496309Y-80831653D01*
X73517750Y-80830600D01*
X73955250Y-80830600D01*
X73976691Y-80831653D01*
G37*
G36*
X69543691Y-88032053D02*
G01*
X69564926Y-88035203D01*
X69585750Y-88040419D01*
X69605962Y-88047651D01*
X69625368Y-88056830D01*
X69643781Y-88067866D01*
X69661024Y-88080654D01*
X69676930Y-88095070D01*
X69691346Y-88110976D01*
X69704134Y-88128219D01*
X69715170Y-88146632D01*
X69724349Y-88166038D01*
X69731581Y-88186250D01*
X69736797Y-88207074D01*
X69739947Y-88228309D01*
X69741000Y-88249750D01*
X69741000Y-88687250D01*
X69739947Y-88708691D01*
X69736797Y-88729926D01*
X69731581Y-88750750D01*
X69724349Y-88770962D01*
X69715170Y-88790368D01*
X69704134Y-88808781D01*
X69691346Y-88826024D01*
X69676930Y-88841930D01*
X69661024Y-88856346D01*
X69643781Y-88869134D01*
X69625368Y-88880170D01*
X69605962Y-88889349D01*
X69585750Y-88896581D01*
X69564926Y-88901797D01*
X69543691Y-88904947D01*
X69522250Y-88906000D01*
X69009750Y-88906000D01*
X68988309Y-88904947D01*
X68967074Y-88901797D01*
X68946250Y-88896581D01*
X68926038Y-88889349D01*
X68906632Y-88880170D01*
X68888219Y-88869134D01*
X68870976Y-88856346D01*
X68855070Y-88841930D01*
X68840654Y-88826024D01*
X68827866Y-88808781D01*
X68816830Y-88790368D01*
X68807651Y-88770962D01*
X68800419Y-88750750D01*
X68795203Y-88729926D01*
X68792053Y-88708691D01*
X68791000Y-88687250D01*
X68791000Y-88249750D01*
X68792053Y-88228309D01*
X68795203Y-88207074D01*
X68800419Y-88186250D01*
X68807651Y-88166038D01*
X68816830Y-88146632D01*
X68827866Y-88128219D01*
X68840654Y-88110976D01*
X68855070Y-88095070D01*
X68870976Y-88080654D01*
X68888219Y-88067866D01*
X68906632Y-88056830D01*
X68926038Y-88047651D01*
X68946250Y-88040419D01*
X68967074Y-88035203D01*
X68988309Y-88032053D01*
X69009750Y-88031000D01*
X69522250Y-88031000D01*
X69543691Y-88032053D01*
G37*
G36*
X69543691Y-86457053D02*
G01*
X69564926Y-86460203D01*
X69585750Y-86465419D01*
X69605962Y-86472651D01*
X69625368Y-86481830D01*
X69643781Y-86492866D01*
X69661024Y-86505654D01*
X69676930Y-86520070D01*
X69691346Y-86535976D01*
X69704134Y-86553219D01*
X69715170Y-86571632D01*
X69724349Y-86591038D01*
X69731581Y-86611250D01*
X69736797Y-86632074D01*
X69739947Y-86653309D01*
X69741000Y-86674750D01*
X69741000Y-87112250D01*
X69739947Y-87133691D01*
X69736797Y-87154926D01*
X69731581Y-87175750D01*
X69724349Y-87195962D01*
X69715170Y-87215368D01*
X69704134Y-87233781D01*
X69691346Y-87251024D01*
X69676930Y-87266930D01*
X69661024Y-87281346D01*
X69643781Y-87294134D01*
X69625368Y-87305170D01*
X69605962Y-87314349D01*
X69585750Y-87321581D01*
X69564926Y-87326797D01*
X69543691Y-87329947D01*
X69522250Y-87331000D01*
X69009750Y-87331000D01*
X68988309Y-87329947D01*
X68967074Y-87326797D01*
X68946250Y-87321581D01*
X68926038Y-87314349D01*
X68906632Y-87305170D01*
X68888219Y-87294134D01*
X68870976Y-87281346D01*
X68855070Y-87266930D01*
X68840654Y-87251024D01*
X68827866Y-87233781D01*
X68816830Y-87215368D01*
X68807651Y-87195962D01*
X68800419Y-87175750D01*
X68795203Y-87154926D01*
X68792053Y-87133691D01*
X68791000Y-87112250D01*
X68791000Y-86674750D01*
X68792053Y-86653309D01*
X68795203Y-86632074D01*
X68800419Y-86611250D01*
X68807651Y-86591038D01*
X68816830Y-86571632D01*
X68827866Y-86553219D01*
X68840654Y-86535976D01*
X68855070Y-86520070D01*
X68870976Y-86505654D01*
X68888219Y-86492866D01*
X68906632Y-86481830D01*
X68926038Y-86472651D01*
X68946250Y-86465419D01*
X68967074Y-86460203D01*
X68988309Y-86457053D01*
X69009750Y-86456000D01*
X69522250Y-86456000D01*
X69543691Y-86457053D01*
G37*
G36*
X77163691Y-82647053D02*
G01*
X77184926Y-82650203D01*
X77205750Y-82655419D01*
X77225962Y-82662651D01*
X77245368Y-82671830D01*
X77263781Y-82682866D01*
X77281024Y-82695654D01*
X77296930Y-82710070D01*
X77311346Y-82725976D01*
X77324134Y-82743219D01*
X77335170Y-82761632D01*
X77344349Y-82781038D01*
X77351581Y-82801250D01*
X77356797Y-82822074D01*
X77359947Y-82843309D01*
X77361000Y-82864750D01*
X77361000Y-83302250D01*
X77359947Y-83323691D01*
X77356797Y-83344926D01*
X77351581Y-83365750D01*
X77344349Y-83385962D01*
X77335170Y-83405368D01*
X77324134Y-83423781D01*
X77311346Y-83441024D01*
X77296930Y-83456930D01*
X77281024Y-83471346D01*
X77263781Y-83484134D01*
X77245368Y-83495170D01*
X77225962Y-83504349D01*
X77205750Y-83511581D01*
X77184926Y-83516797D01*
X77163691Y-83519947D01*
X77142250Y-83521000D01*
X76629750Y-83521000D01*
X76608309Y-83519947D01*
X76587074Y-83516797D01*
X76566250Y-83511581D01*
X76546038Y-83504349D01*
X76526632Y-83495170D01*
X76508219Y-83484134D01*
X76490976Y-83471346D01*
X76475070Y-83456930D01*
X76460654Y-83441024D01*
X76447866Y-83423781D01*
X76436830Y-83405368D01*
X76427651Y-83385962D01*
X76420419Y-83365750D01*
X76415203Y-83344926D01*
X76412053Y-83323691D01*
X76411000Y-83302250D01*
X76411000Y-82864750D01*
X76412053Y-82843309D01*
X76415203Y-82822074D01*
X76420419Y-82801250D01*
X76427651Y-82781038D01*
X76436830Y-82761632D01*
X76447866Y-82743219D01*
X76460654Y-82725976D01*
X76475070Y-82710070D01*
X76490976Y-82695654D01*
X76508219Y-82682866D01*
X76526632Y-82671830D01*
X76546038Y-82662651D01*
X76566250Y-82655419D01*
X76587074Y-82650203D01*
X76608309Y-82647053D01*
X76629750Y-82646000D01*
X77142250Y-82646000D01*
X77163691Y-82647053D01*
G37*
G36*
X77163691Y-84222053D02*
G01*
X77184926Y-84225203D01*
X77205750Y-84230419D01*
X77225962Y-84237651D01*
X77245368Y-84246830D01*
X77263781Y-84257866D01*
X77281024Y-84270654D01*
X77296930Y-84285070D01*
X77311346Y-84300976D01*
X77324134Y-84318219D01*
X77335170Y-84336632D01*
X77344349Y-84356038D01*
X77351581Y-84376250D01*
X77356797Y-84397074D01*
X77359947Y-84418309D01*
X77361000Y-84439750D01*
X77361000Y-84877250D01*
X77359947Y-84898691D01*
X77356797Y-84919926D01*
X77351581Y-84940750D01*
X77344349Y-84960962D01*
X77335170Y-84980368D01*
X77324134Y-84998781D01*
X77311346Y-85016024D01*
X77296930Y-85031930D01*
X77281024Y-85046346D01*
X77263781Y-85059134D01*
X77245368Y-85070170D01*
X77225962Y-85079349D01*
X77205750Y-85086581D01*
X77184926Y-85091797D01*
X77163691Y-85094947D01*
X77142250Y-85096000D01*
X76629750Y-85096000D01*
X76608309Y-85094947D01*
X76587074Y-85091797D01*
X76566250Y-85086581D01*
X76546038Y-85079349D01*
X76526632Y-85070170D01*
X76508219Y-85059134D01*
X76490976Y-85046346D01*
X76475070Y-85031930D01*
X76460654Y-85016024D01*
X76447866Y-84998781D01*
X76436830Y-84980368D01*
X76427651Y-84960962D01*
X76420419Y-84940750D01*
X76415203Y-84919926D01*
X76412053Y-84898691D01*
X76411000Y-84877250D01*
X76411000Y-84439750D01*
X76412053Y-84418309D01*
X76415203Y-84397074D01*
X76420419Y-84376250D01*
X76427651Y-84356038D01*
X76436830Y-84336632D01*
X76447866Y-84318219D01*
X76460654Y-84300976D01*
X76475070Y-84285070D01*
X76490976Y-84270654D01*
X76508219Y-84257866D01*
X76526632Y-84246830D01*
X76546038Y-84237651D01*
X76566250Y-84230419D01*
X76587074Y-84225203D01*
X76608309Y-84222053D01*
X76629750Y-84221000D01*
X77142250Y-84221000D01*
X77163691Y-84222053D01*
G37*
G36*
X86422691Y-88731053D02*
G01*
X86443926Y-88734203D01*
X86464750Y-88739419D01*
X86484962Y-88746651D01*
X86504368Y-88755830D01*
X86522781Y-88766866D01*
X86540024Y-88779654D01*
X86555930Y-88794070D01*
X86570346Y-88809976D01*
X86583134Y-88827219D01*
X86594170Y-88845632D01*
X86603349Y-88865038D01*
X86610581Y-88885250D01*
X86615797Y-88906074D01*
X86618947Y-88927309D01*
X86620000Y-88948750D01*
X86620000Y-89461250D01*
X86618947Y-89482691D01*
X86615797Y-89503926D01*
X86610581Y-89524750D01*
X86603349Y-89544962D01*
X86594170Y-89564368D01*
X86583134Y-89582781D01*
X86570346Y-89600024D01*
X86555930Y-89615930D01*
X86540024Y-89630346D01*
X86522781Y-89643134D01*
X86504368Y-89654170D01*
X86484962Y-89663349D01*
X86464750Y-89670581D01*
X86443926Y-89675797D01*
X86422691Y-89678947D01*
X86401250Y-89680000D01*
X85963750Y-89680000D01*
X85942309Y-89678947D01*
X85921074Y-89675797D01*
X85900250Y-89670581D01*
X85880038Y-89663349D01*
X85860632Y-89654170D01*
X85842219Y-89643134D01*
X85824976Y-89630346D01*
X85809070Y-89615930D01*
X85794654Y-89600024D01*
X85781866Y-89582781D01*
X85770830Y-89564368D01*
X85761651Y-89544962D01*
X85754419Y-89524750D01*
X85749203Y-89503926D01*
X85746053Y-89482691D01*
X85745000Y-89461250D01*
X85745000Y-88948750D01*
X85746053Y-88927309D01*
X85749203Y-88906074D01*
X85754419Y-88885250D01*
X85761651Y-88865038D01*
X85770830Y-88845632D01*
X85781866Y-88827219D01*
X85794654Y-88809976D01*
X85809070Y-88794070D01*
X85824976Y-88779654D01*
X85842219Y-88766866D01*
X85860632Y-88755830D01*
X85880038Y-88746651D01*
X85900250Y-88739419D01*
X85921074Y-88734203D01*
X85942309Y-88731053D01*
X85963750Y-88730000D01*
X86401250Y-88730000D01*
X86422691Y-88731053D01*
G37*
G36*
X84847691Y-88731053D02*
G01*
X84868926Y-88734203D01*
X84889750Y-88739419D01*
X84909962Y-88746651D01*
X84929368Y-88755830D01*
X84947781Y-88766866D01*
X84965024Y-88779654D01*
X84980930Y-88794070D01*
X84995346Y-88809976D01*
X85008134Y-88827219D01*
X85019170Y-88845632D01*
X85028349Y-88865038D01*
X85035581Y-88885250D01*
X85040797Y-88906074D01*
X85043947Y-88927309D01*
X85045000Y-88948750D01*
X85045000Y-89461250D01*
X85043947Y-89482691D01*
X85040797Y-89503926D01*
X85035581Y-89524750D01*
X85028349Y-89544962D01*
X85019170Y-89564368D01*
X85008134Y-89582781D01*
X84995346Y-89600024D01*
X84980930Y-89615930D01*
X84965024Y-89630346D01*
X84947781Y-89643134D01*
X84929368Y-89654170D01*
X84909962Y-89663349D01*
X84889750Y-89670581D01*
X84868926Y-89675797D01*
X84847691Y-89678947D01*
X84826250Y-89680000D01*
X84388750Y-89680000D01*
X84367309Y-89678947D01*
X84346074Y-89675797D01*
X84325250Y-89670581D01*
X84305038Y-89663349D01*
X84285632Y-89654170D01*
X84267219Y-89643134D01*
X84249976Y-89630346D01*
X84234070Y-89615930D01*
X84219654Y-89600024D01*
X84206866Y-89582781D01*
X84195830Y-89564368D01*
X84186651Y-89544962D01*
X84179419Y-89524750D01*
X84174203Y-89503926D01*
X84171053Y-89482691D01*
X84170000Y-89461250D01*
X84170000Y-88948750D01*
X84171053Y-88927309D01*
X84174203Y-88906074D01*
X84179419Y-88885250D01*
X84186651Y-88865038D01*
X84195830Y-88845632D01*
X84206866Y-88827219D01*
X84219654Y-88809976D01*
X84234070Y-88794070D01*
X84249976Y-88779654D01*
X84267219Y-88766866D01*
X84285632Y-88755830D01*
X84305038Y-88746651D01*
X84325250Y-88739419D01*
X84346074Y-88734203D01*
X84367309Y-88731053D01*
X84388750Y-88730000D01*
X84826250Y-88730000D01*
X84847691Y-88731053D01*
G37*
G36*
X81291691Y-88731053D02*
G01*
X81312926Y-88734203D01*
X81333750Y-88739419D01*
X81353962Y-88746651D01*
X81373368Y-88755830D01*
X81391781Y-88766866D01*
X81409024Y-88779654D01*
X81424930Y-88794070D01*
X81439346Y-88809976D01*
X81452134Y-88827219D01*
X81463170Y-88845632D01*
X81472349Y-88865038D01*
X81479581Y-88885250D01*
X81484797Y-88906074D01*
X81487947Y-88927309D01*
X81489000Y-88948750D01*
X81489000Y-89461250D01*
X81487947Y-89482691D01*
X81484797Y-89503926D01*
X81479581Y-89524750D01*
X81472349Y-89544962D01*
X81463170Y-89564368D01*
X81452134Y-89582781D01*
X81439346Y-89600024D01*
X81424930Y-89615930D01*
X81409024Y-89630346D01*
X81391781Y-89643134D01*
X81373368Y-89654170D01*
X81353962Y-89663349D01*
X81333750Y-89670581D01*
X81312926Y-89675797D01*
X81291691Y-89678947D01*
X81270250Y-89680000D01*
X80832750Y-89680000D01*
X80811309Y-89678947D01*
X80790074Y-89675797D01*
X80769250Y-89670581D01*
X80749038Y-89663349D01*
X80729632Y-89654170D01*
X80711219Y-89643134D01*
X80693976Y-89630346D01*
X80678070Y-89615930D01*
X80663654Y-89600024D01*
X80650866Y-89582781D01*
X80639830Y-89564368D01*
X80630651Y-89544962D01*
X80623419Y-89524750D01*
X80618203Y-89503926D01*
X80615053Y-89482691D01*
X80614000Y-89461250D01*
X80614000Y-88948750D01*
X80615053Y-88927309D01*
X80618203Y-88906074D01*
X80623419Y-88885250D01*
X80630651Y-88865038D01*
X80639830Y-88845632D01*
X80650866Y-88827219D01*
X80663654Y-88809976D01*
X80678070Y-88794070D01*
X80693976Y-88779654D01*
X80711219Y-88766866D01*
X80729632Y-88755830D01*
X80749038Y-88746651D01*
X80769250Y-88739419D01*
X80790074Y-88734203D01*
X80811309Y-88731053D01*
X80832750Y-88730000D01*
X81270250Y-88730000D01*
X81291691Y-88731053D01*
G37*
G36*
X82866691Y-88731053D02*
G01*
X82887926Y-88734203D01*
X82908750Y-88739419D01*
X82928962Y-88746651D01*
X82948368Y-88755830D01*
X82966781Y-88766866D01*
X82984024Y-88779654D01*
X82999930Y-88794070D01*
X83014346Y-88809976D01*
X83027134Y-88827219D01*
X83038170Y-88845632D01*
X83047349Y-88865038D01*
X83054581Y-88885250D01*
X83059797Y-88906074D01*
X83062947Y-88927309D01*
X83064000Y-88948750D01*
X83064000Y-89461250D01*
X83062947Y-89482691D01*
X83059797Y-89503926D01*
X83054581Y-89524750D01*
X83047349Y-89544962D01*
X83038170Y-89564368D01*
X83027134Y-89582781D01*
X83014346Y-89600024D01*
X82999930Y-89615930D01*
X82984024Y-89630346D01*
X82966781Y-89643134D01*
X82948368Y-89654170D01*
X82928962Y-89663349D01*
X82908750Y-89670581D01*
X82887926Y-89675797D01*
X82866691Y-89678947D01*
X82845250Y-89680000D01*
X82407750Y-89680000D01*
X82386309Y-89678947D01*
X82365074Y-89675797D01*
X82344250Y-89670581D01*
X82324038Y-89663349D01*
X82304632Y-89654170D01*
X82286219Y-89643134D01*
X82268976Y-89630346D01*
X82253070Y-89615930D01*
X82238654Y-89600024D01*
X82225866Y-89582781D01*
X82214830Y-89564368D01*
X82205651Y-89544962D01*
X82198419Y-89524750D01*
X82193203Y-89503926D01*
X82190053Y-89482691D01*
X82189000Y-89461250D01*
X82189000Y-88948750D01*
X82190053Y-88927309D01*
X82193203Y-88906074D01*
X82198419Y-88885250D01*
X82205651Y-88865038D01*
X82214830Y-88845632D01*
X82225866Y-88827219D01*
X82238654Y-88809976D01*
X82253070Y-88794070D01*
X82268976Y-88779654D01*
X82286219Y-88766866D01*
X82304632Y-88755830D01*
X82324038Y-88746651D01*
X82344250Y-88739419D01*
X82365074Y-88734203D01*
X82386309Y-88731053D01*
X82407750Y-88730000D01*
X82845250Y-88730000D01*
X82866691Y-88731053D01*
G37*
G36*
X70178691Y-84984053D02*
G01*
X70199926Y-84987203D01*
X70220750Y-84992419D01*
X70240962Y-84999651D01*
X70260368Y-85008830D01*
X70278781Y-85019866D01*
X70296024Y-85032654D01*
X70311930Y-85047070D01*
X70326346Y-85062976D01*
X70339134Y-85080219D01*
X70350170Y-85098632D01*
X70359349Y-85118038D01*
X70366581Y-85138250D01*
X70371797Y-85159074D01*
X70374947Y-85180309D01*
X70376000Y-85201750D01*
X70376000Y-85639250D01*
X70374947Y-85660691D01*
X70371797Y-85681926D01*
X70366581Y-85702750D01*
X70359349Y-85722962D01*
X70350170Y-85742368D01*
X70339134Y-85760781D01*
X70326346Y-85778024D01*
X70311930Y-85793930D01*
X70296024Y-85808346D01*
X70278781Y-85821134D01*
X70260368Y-85832170D01*
X70240962Y-85841349D01*
X70220750Y-85848581D01*
X70199926Y-85853797D01*
X70178691Y-85856947D01*
X70157250Y-85858000D01*
X69644750Y-85858000D01*
X69623309Y-85856947D01*
X69602074Y-85853797D01*
X69581250Y-85848581D01*
X69561038Y-85841349D01*
X69541632Y-85832170D01*
X69523219Y-85821134D01*
X69505976Y-85808346D01*
X69490070Y-85793930D01*
X69475654Y-85778024D01*
X69462866Y-85760781D01*
X69451830Y-85742368D01*
X69442651Y-85722962D01*
X69435419Y-85702750D01*
X69430203Y-85681926D01*
X69427053Y-85660691D01*
X69426000Y-85639250D01*
X69426000Y-85201750D01*
X69427053Y-85180309D01*
X69430203Y-85159074D01*
X69435419Y-85138250D01*
X69442651Y-85118038D01*
X69451830Y-85098632D01*
X69462866Y-85080219D01*
X69475654Y-85062976D01*
X69490070Y-85047070D01*
X69505976Y-85032654D01*
X69523219Y-85019866D01*
X69541632Y-85008830D01*
X69561038Y-84999651D01*
X69581250Y-84992419D01*
X69602074Y-84987203D01*
X69623309Y-84984053D01*
X69644750Y-84983000D01*
X70157250Y-84983000D01*
X70178691Y-84984053D01*
G37*
G36*
X70178691Y-83409053D02*
G01*
X70199926Y-83412203D01*
X70220750Y-83417419D01*
X70240962Y-83424651D01*
X70260368Y-83433830D01*
X70278781Y-83444866D01*
X70296024Y-83457654D01*
X70311930Y-83472070D01*
X70326346Y-83487976D01*
X70339134Y-83505219D01*
X70350170Y-83523632D01*
X70359349Y-83543038D01*
X70366581Y-83563250D01*
X70371797Y-83584074D01*
X70374947Y-83605309D01*
X70376000Y-83626750D01*
X70376000Y-84064250D01*
X70374947Y-84085691D01*
X70371797Y-84106926D01*
X70366581Y-84127750D01*
X70359349Y-84147962D01*
X70350170Y-84167368D01*
X70339134Y-84185781D01*
X70326346Y-84203024D01*
X70311930Y-84218930D01*
X70296024Y-84233346D01*
X70278781Y-84246134D01*
X70260368Y-84257170D01*
X70240962Y-84266349D01*
X70220750Y-84273581D01*
X70199926Y-84278797D01*
X70178691Y-84281947D01*
X70157250Y-84283000D01*
X69644750Y-84283000D01*
X69623309Y-84281947D01*
X69602074Y-84278797D01*
X69581250Y-84273581D01*
X69561038Y-84266349D01*
X69541632Y-84257170D01*
X69523219Y-84246134D01*
X69505976Y-84233346D01*
X69490070Y-84218930D01*
X69475654Y-84203024D01*
X69462866Y-84185781D01*
X69451830Y-84167368D01*
X69442651Y-84147962D01*
X69435419Y-84127750D01*
X69430203Y-84106926D01*
X69427053Y-84085691D01*
X69426000Y-84064250D01*
X69426000Y-83626750D01*
X69427053Y-83605309D01*
X69430203Y-83584074D01*
X69435419Y-83563250D01*
X69442651Y-83543038D01*
X69451830Y-83523632D01*
X69462866Y-83505219D01*
X69475654Y-83487976D01*
X69490070Y-83472070D01*
X69505976Y-83457654D01*
X69523219Y-83444866D01*
X69541632Y-83433830D01*
X69561038Y-83424651D01*
X69581250Y-83417419D01*
X69602074Y-83412203D01*
X69623309Y-83409053D01*
X69644750Y-83408000D01*
X70157250Y-83408000D01*
X70178691Y-83409053D01*
G37*
G36*
X84847691Y-90382053D02*
G01*
X84868926Y-90385203D01*
X84889750Y-90390419D01*
X84909962Y-90397651D01*
X84929368Y-90406830D01*
X84947781Y-90417866D01*
X84965024Y-90430654D01*
X84980930Y-90445070D01*
X84995346Y-90460976D01*
X85008134Y-90478219D01*
X85019170Y-90496632D01*
X85028349Y-90516038D01*
X85035581Y-90536250D01*
X85040797Y-90557074D01*
X85043947Y-90578309D01*
X85045000Y-90599750D01*
X85045000Y-91112250D01*
X85043947Y-91133691D01*
X85040797Y-91154926D01*
X85035581Y-91175750D01*
X85028349Y-91195962D01*
X85019170Y-91215368D01*
X85008134Y-91233781D01*
X84995346Y-91251024D01*
X84980930Y-91266930D01*
X84965024Y-91281346D01*
X84947781Y-91294134D01*
X84929368Y-91305170D01*
X84909962Y-91314349D01*
X84889750Y-91321581D01*
X84868926Y-91326797D01*
X84847691Y-91329947D01*
X84826250Y-91331000D01*
X84388750Y-91331000D01*
X84367309Y-91329947D01*
X84346074Y-91326797D01*
X84325250Y-91321581D01*
X84305038Y-91314349D01*
X84285632Y-91305170D01*
X84267219Y-91294134D01*
X84249976Y-91281346D01*
X84234070Y-91266930D01*
X84219654Y-91251024D01*
X84206866Y-91233781D01*
X84195830Y-91215368D01*
X84186651Y-91195962D01*
X84179419Y-91175750D01*
X84174203Y-91154926D01*
X84171053Y-91133691D01*
X84170000Y-91112250D01*
X84170000Y-90599750D01*
X84171053Y-90578309D01*
X84174203Y-90557074D01*
X84179419Y-90536250D01*
X84186651Y-90516038D01*
X84195830Y-90496632D01*
X84206866Y-90478219D01*
X84219654Y-90460976D01*
X84234070Y-90445070D01*
X84249976Y-90430654D01*
X84267219Y-90417866D01*
X84285632Y-90406830D01*
X84305038Y-90397651D01*
X84325250Y-90390419D01*
X84346074Y-90385203D01*
X84367309Y-90382053D01*
X84388750Y-90381000D01*
X84826250Y-90381000D01*
X84847691Y-90382053D01*
G37*
G36*
X86422691Y-90382053D02*
G01*
X86443926Y-90385203D01*
X86464750Y-90390419D01*
X86484962Y-90397651D01*
X86504368Y-90406830D01*
X86522781Y-90417866D01*
X86540024Y-90430654D01*
X86555930Y-90445070D01*
X86570346Y-90460976D01*
X86583134Y-90478219D01*
X86594170Y-90496632D01*
X86603349Y-90516038D01*
X86610581Y-90536250D01*
X86615797Y-90557074D01*
X86618947Y-90578309D01*
X86620000Y-90599750D01*
X86620000Y-91112250D01*
X86618947Y-91133691D01*
X86615797Y-91154926D01*
X86610581Y-91175750D01*
X86603349Y-91195962D01*
X86594170Y-91215368D01*
X86583134Y-91233781D01*
X86570346Y-91251024D01*
X86555930Y-91266930D01*
X86540024Y-91281346D01*
X86522781Y-91294134D01*
X86504368Y-91305170D01*
X86484962Y-91314349D01*
X86464750Y-91321581D01*
X86443926Y-91326797D01*
X86422691Y-91329947D01*
X86401250Y-91331000D01*
X85963750Y-91331000D01*
X85942309Y-91329947D01*
X85921074Y-91326797D01*
X85900250Y-91321581D01*
X85880038Y-91314349D01*
X85860632Y-91305170D01*
X85842219Y-91294134D01*
X85824976Y-91281346D01*
X85809070Y-91266930D01*
X85794654Y-91251024D01*
X85781866Y-91233781D01*
X85770830Y-91215368D01*
X85761651Y-91195962D01*
X85754419Y-91175750D01*
X85749203Y-91154926D01*
X85746053Y-91133691D01*
X85745000Y-91112250D01*
X85745000Y-90599750D01*
X85746053Y-90578309D01*
X85749203Y-90557074D01*
X85754419Y-90536250D01*
X85761651Y-90516038D01*
X85770830Y-90496632D01*
X85781866Y-90478219D01*
X85794654Y-90460976D01*
X85809070Y-90445070D01*
X85824976Y-90430654D01*
X85842219Y-90417866D01*
X85860632Y-90406830D01*
X85880038Y-90397651D01*
X85900250Y-90390419D01*
X85921074Y-90385203D01*
X85942309Y-90382053D01*
X85963750Y-90381000D01*
X86401250Y-90381000D01*
X86422691Y-90382053D01*
G37*
M02*
