M48
; DRILL file {KiCad 5.1.5+dfsg1-2build2} date Mo 16 Aug 2021 15:22:45
; FORMAT={-:-/ absolute / inch / decimal}
; #@! TF.CreationDate,2021-08-16T15:22:45+02:00
; #@! TF.GenerationSoftware,Kicad,Pcbnew,5.1.5+dfsg1-2build2
; #@! TF.FileFunction,Plated,1,2,PTH
FMAT,2
INCH
T1C0.0118
T2C0.0157
T3C0.0236
T4C0.0315
%
G90
G05
T1
X2.417Y-4.377
X2.442Y-4.247
X2.447Y-4.377
X2.462Y-4.207
X2.666Y-3.395
X2.727Y-3.455
X2.763Y-3.566
X2.771Y-3.597
X2.779Y-3.54
X2.78Y-3.449
X2.787Y-3.379
X2.8Y-3.324
X2.802Y-3.356
X2.809Y-3.221
X2.827Y-3.293
X2.836Y-3.43
X2.85Y-3.263
X2.869Y-3.433
X2.877Y-3.261
X2.895Y-3.437
X2.906Y-3.263
X2.924Y-3.431
X2.97Y-3.308
X3.002Y-3.362
X3.065Y-3.48
X3.067Y-3.235
X3.069Y-3.286
X3.069Y-3.314
X3.175Y-3.261
X3.177Y-3.388
X3.181Y-3.338
X3.221Y-3.453
X3.338Y-3.449
X3.342Y-3.415
X3.623Y-3.509
X3.627Y-3.537
X3.748Y-3.5
X3.8425Y-3.4882
T2
X2.4724Y-4.5906
X2.5197Y-4.5906
X2.5669Y-4.5906
X2.6142Y-4.5906
X2.6614Y-4.5906
X2.689Y-3.101
X2.7087Y-4.5906
X2.719Y-3.074
X2.7559Y-4.5906
X2.8031Y-4.5906
X2.811Y-4.1339
X2.8425Y-4.1654
X2.8504Y-4.5906
X2.874Y-4.1339
X2.8976Y-4.5906
X2.902Y-3.052
X2.9055Y-4.1654
X2.932Y-3.127
X2.937Y-4.1339
X2.9449Y-4.5906
X2.9685Y-4.1654
X2.9921Y-4.5906
X3.0Y-4.1339
X3.0315Y-4.1654
X3.0394Y-4.5906
X3.063Y-4.1339
X3.0866Y-4.5906
X3.0945Y-4.1654
X3.126Y-4.1339
X3.1339Y-4.5906
X3.1575Y-4.1654
X3.1811Y-4.5906
X3.189Y-4.1339
X3.2205Y-4.1654
X3.2283Y-4.5906
X3.252Y-4.1339
X3.2756Y-4.5906
X3.2835Y-4.1654
X3.315Y-4.1339
X3.3228Y-4.5906
X3.3465Y-4.1654
X3.3701Y-4.5906
X3.378Y-4.1339
X3.4094Y-4.1654
X3.4173Y-4.5906
X3.4409Y-4.1339
X3.4646Y-4.5906
X3.4724Y-4.1654
X3.5039Y-4.1339
X3.5118Y-4.5906
X3.5354Y-4.1654
X3.5591Y-4.5906
X3.5669Y-4.1339
X3.6063Y-4.5906
X3.6535Y-4.5906
X3.7008Y-3.7165
X3.7008Y-4.5906
X3.7244Y-3.748
X3.7303Y-5.0886
X3.7402Y-3.7795
X3.748Y-4.5906
X3.7638Y-3.811
X3.7638Y-3.8425
X3.7795Y-3.8819
X3.7953Y-4.5906
X3.811Y-4.748
X3.8425Y-4.5906
X3.8425Y-4.7717
X3.874Y-4.7953
X3.9134Y-4.7717
X3.9134Y-4.811
X3.9134Y-4.8504
X3.947Y-3.052
X3.9606Y-4.5945
X3.9862Y-3.127
X3.987Y-3.027
X4.0256Y-3.077
X4.065Y-3.102
X4.0787Y-4.3976
X4.1024Y-4.5906
X4.1043Y-3.127
X4.1102Y-3.7874
X4.1102Y-3.8504
X4.126Y-3.748
X4.1496Y-3.7165
X4.1496Y-4.5906
X4.157Y-3.632
X4.1732Y-3.685
X4.1969Y-4.5906
X4.2441Y-4.5906
X4.2913Y-4.5906
X4.3386Y-4.1335
X4.3386Y-4.5902
X4.3701Y-4.165
X4.3858Y-4.5902
X4.4016Y-4.1335
X4.4331Y-4.165
X4.4331Y-4.5902
X4.447Y-3.297
X4.4646Y-4.1335
X4.4803Y-4.5902
X4.4961Y-4.165
X4.5276Y-4.1335
X4.5276Y-4.5902
X4.5591Y-4.165
X4.5748Y-4.5902
X4.5906Y-4.1335
X4.622Y-4.165
X4.622Y-4.5902
X4.6535Y-4.1335
X4.6693Y-4.5902
X4.685Y-4.165
X4.7165Y-4.1335
X4.7165Y-4.5902
X4.748Y-4.165
X4.7638Y-4.5902
X4.7795Y-4.1335
X4.811Y-4.165
X4.811Y-4.5902
X4.827Y-3.077
X4.832Y-3.127
X4.8425Y-4.1335
X4.8583Y-4.5902
X4.862Y-3.102
X4.874Y-4.165
X4.9055Y-4.1335
X4.9055Y-4.5902
X4.937Y-4.165
X4.9528Y-4.5902
X4.9685Y-4.1335
X4.997Y-3.027
X5.0Y-4.165
X5.0Y-4.5902
X5.017Y-3.057
X5.0315Y-4.1335
X5.0472Y-4.5902
X5.063Y-4.165
X5.0945Y-4.5902
X5.1417Y-4.5902
X5.189Y-4.5902
X5.2362Y-4.5902
X5.2835Y-4.5902
X5.3307Y-4.5902
X5.378Y-4.5902
X5.4252Y-4.5902
X5.477Y-4.987
T3
X2.252Y-3.112
X2.477Y-4.762
X2.817Y-2.997
X2.862Y-2.997
X3.4646Y-4.8524
X3.492Y-3.287
X3.492Y-3.437
X3.492Y-3.537
X3.689Y-3.4488
X3.742Y-2.997
X3.777Y-4.872
X3.787Y-2.917
X3.827Y-2.952
X3.967Y-3.417
X4.067Y-3.587
X4.107Y-3.507
X4.167Y-4.872
X4.457Y-3.387
X4.852Y-2.992
X4.907Y-2.992
X5.002Y-2.952
X5.362Y-4.782
X5.362Y-4.872
T4
X3.8976Y-4.1339
X3.8976Y-4.2126
X3.9764Y-4.1339
X3.9764Y-4.2126
X2.5827Y-4.0669
X2.5827Y-4.1457
X2.6614Y-4.0669
X2.6614Y-4.1457
T0
M30
