G04 #@! TF.GenerationSoftware,KiCad,Pcbnew,5.1.5+dfsg1-2build2*
G04 #@! TF.CreationDate,2021-08-16T15:22:43+02:00*
G04 #@! TF.ProjectId,ModulAdapterMagnet,4d6f6475-6c41-4646-9170-7465724d6167,rev?*
G04 #@! TF.SameCoordinates,Original*
G04 #@! TF.FileFunction,Profile,NP*
%FSLAX46Y46*%
G04 Gerber Fmt 4.6, Leading zero omitted, Abs format (unit mm)*
G04 Created by KiCad (PCBNEW 5.1.5+dfsg1-2build2) date 2021-08-16 15:22:43*
%MOMM*%
%LPD*%
G04 APERTURE LIST*
%ADD10C,0.100000*%
G04 APERTURE END LIST*
D10*
X61629165Y-134250000D02*
X61620835Y-134250000D01*
X138380000Y-134250000D02*
X138375417Y-134257937D01*
X112573000Y-68027000D02*
X112600000Y-67980000D01*
X87440000Y-67980000D02*
X87427000Y-68027000D01*
X87440000Y-67980000D02*
X50000000Y-67980000D01*
X107721247Y-72121673D02*
G75*
G03X112573000Y-68027000I28753J4887673D01*
G01*
X92278753Y-72121673D02*
G75*
G02X87427000Y-68027000I-28753J4887673D01*
G01*
X92278000Y-72121600D02*
X107720000Y-72121600D01*
X56000000Y-137500000D02*
X50000000Y-137500000D01*
X144000000Y-137500000D02*
X150000000Y-137500000D01*
X132750417Y-130999277D02*
G75*
G02X138380000Y-134250000I-417J-6500723D01*
G01*
X144000000Y-137499999D02*
G75*
G02X138375417Y-134257937I-4583J6492062D01*
G01*
X61620835Y-134250000D02*
G75*
G02X67250000Y-131000000I5629165J-3250000D01*
G01*
X61629165Y-134250000D02*
G75*
G02X56000000Y-137500000I-5629165J3250000D01*
G01*
X134550000Y-108500000D02*
G75*
G03X134550000Y-108500000I-1050000J0D01*
G01*
X67550000Y-108500000D02*
G75*
G03X67550000Y-108500000I-1050000J0D01*
G01*
X150000000Y-137500000D02*
X150000000Y-67980000D01*
X50000000Y-137500000D02*
X50000000Y-67980000D01*
X67250000Y-131000000D02*
X132750000Y-131000000D01*
X112600000Y-67980000D02*
X150000000Y-67980000D01*
M02*
