G04 #@! TF.FileFunction,Legend,Bot*
%FSLAX46Y46*%
G04 Gerber Fmt 4.6, Leading zero omitted, Abs format (unit mm)*
G04 Created by KiCad (PCBNEW 4.1.0-alpha+201605191647+6814~44~ubuntu14.04.1-product) date Tue May 24 14:16:21 2016*
%MOMM*%
%LPD*%
G01*
G04 APERTURE LIST*
%ADD10C,0.100000*%
%ADD11C,0.150000*%
%ADD12C,0.400000*%
%ADD13C,0.200000*%
%ADD14C,0.300000*%
%ADD15C,0.076200*%
%ADD16C,0.050000*%
%ADD17C,0.152400*%
G04 APERTURE END LIST*
D10*
D11*
X114846285Y-120875380D02*
X115417714Y-120875380D01*
X115132000Y-120875380D02*
X115132000Y-119875380D01*
X115227238Y-120018238D01*
X115322476Y-120113476D01*
X115417714Y-120161095D01*
X114512952Y-119875380D02*
X113846285Y-119875380D01*
X114274857Y-120875380D01*
X112941523Y-119923000D02*
X113036761Y-119875380D01*
X113179619Y-119875380D01*
X113322476Y-119923000D01*
X113417714Y-120018238D01*
X113465333Y-120113476D01*
X113512952Y-120303952D01*
X113512952Y-120446809D01*
X113465333Y-120637285D01*
X113417714Y-120732523D01*
X113322476Y-120827761D01*
X113179619Y-120875380D01*
X113084380Y-120875380D01*
X112941523Y-120827761D01*
X112893904Y-120780142D01*
X112893904Y-120446809D01*
X113084380Y-120446809D01*
X112465333Y-120875380D02*
X112465333Y-119875380D01*
X111893904Y-120875380D01*
X111893904Y-119875380D01*
X111512952Y-119875380D02*
X110846285Y-119875380D01*
X111274857Y-120875380D01*
X110465333Y-120875380D02*
X110465333Y-119875380D01*
X109893904Y-120875380D01*
X109893904Y-119875380D01*
X108846285Y-120875380D02*
X109179619Y-120399190D01*
X109417714Y-120875380D02*
X109417714Y-119875380D01*
X109036761Y-119875380D01*
X108941523Y-119923000D01*
X108893904Y-119970619D01*
X108846285Y-120065857D01*
X108846285Y-120208714D01*
X108893904Y-120303952D01*
X108941523Y-120351571D01*
X109036761Y-120399190D01*
X109417714Y-120399190D01*
X108370095Y-120875380D02*
X108179619Y-120875380D01*
X108084380Y-120827761D01*
X108036761Y-120780142D01*
X107941523Y-120637285D01*
X107893904Y-120446809D01*
X107893904Y-120065857D01*
X107941523Y-119970619D01*
X107989142Y-119923000D01*
X108084380Y-119875380D01*
X108274857Y-119875380D01*
X108370095Y-119923000D01*
X108417714Y-119970619D01*
X108465333Y-120065857D01*
X108465333Y-120303952D01*
X108417714Y-120399190D01*
X108370095Y-120446809D01*
X108274857Y-120494428D01*
X108084380Y-120494428D01*
X107989142Y-120446809D01*
X107941523Y-120399190D01*
X107893904Y-120303952D01*
X107608190Y-120208714D02*
X107227238Y-120208714D01*
X107465333Y-120875380D02*
X107465333Y-120018238D01*
X107417714Y-119923000D01*
X107322476Y-119875380D01*
X107227238Y-119875380D01*
X106893904Y-120875380D02*
X106893904Y-120208714D01*
X106893904Y-120399190D02*
X106846285Y-120303952D01*
X106798666Y-120256333D01*
X106703428Y-120208714D01*
X106608190Y-120208714D01*
X106274857Y-120875380D02*
X106274857Y-119875380D01*
X106036761Y-119875380D01*
X105893904Y-119923000D01*
X105798666Y-120018238D01*
X105751047Y-120113476D01*
X105703428Y-120303952D01*
X105703428Y-120446809D01*
X105751047Y-120637285D01*
X105798666Y-120732523D01*
X105893904Y-120827761D01*
X106036761Y-120875380D01*
X106274857Y-120875380D01*
X104846285Y-120827761D02*
X104941523Y-120875380D01*
X105132000Y-120875380D01*
X105227238Y-120827761D01*
X105274857Y-120780142D01*
X105322476Y-120684904D01*
X105322476Y-120399190D01*
X105274857Y-120303952D01*
X105227238Y-120256333D01*
X105132000Y-120208714D01*
X104941523Y-120208714D01*
X104846285Y-120256333D01*
X103989142Y-120208714D02*
X103989142Y-121208714D01*
X103989142Y-120827761D02*
X104084380Y-120875380D01*
X104274857Y-120875380D01*
X104370095Y-120827761D01*
X104417714Y-120780142D01*
X104465333Y-120684904D01*
X104465333Y-120399190D01*
X104417714Y-120303952D01*
X104370095Y-120256333D01*
X104274857Y-120208714D01*
X104084380Y-120208714D01*
X103989142Y-120256333D01*
X103132000Y-120827761D02*
X103227238Y-120875380D01*
X103417714Y-120875380D01*
X103512952Y-120827761D01*
X103560571Y-120732523D01*
X103560571Y-120351571D01*
X103512952Y-120256333D01*
X103417714Y-120208714D01*
X103227238Y-120208714D01*
X103132000Y-120256333D01*
X103084380Y-120351571D01*
X103084380Y-120446809D01*
X103560571Y-120542047D01*
X102227238Y-120208714D02*
X102227238Y-120875380D01*
X102655809Y-120208714D02*
X102655809Y-120732523D01*
X102608190Y-120827761D01*
X102512952Y-120875380D01*
X102370095Y-120875380D01*
X102274857Y-120827761D01*
X102227238Y-120780142D01*
X101751047Y-120875380D02*
X101751047Y-119875380D01*
X101370095Y-119875380D01*
X101274857Y-119923000D01*
X101227238Y-119970619D01*
X101179619Y-120065857D01*
X101179619Y-120208714D01*
X101227238Y-120303952D01*
X101274857Y-120351571D01*
X101370095Y-120399190D01*
X101751047Y-120399190D01*
X100751047Y-120875380D02*
X100751047Y-119875380D01*
X100751047Y-120351571D02*
X100179619Y-120351571D01*
X100179619Y-120875380D02*
X100179619Y-119875380D01*
X99512952Y-120399190D02*
X99512952Y-120875380D01*
X99846285Y-119875380D02*
X99512952Y-120399190D01*
X99179619Y-119875380D01*
X98846285Y-120875380D02*
X98846285Y-119875380D01*
X98274857Y-120875380D02*
X98703428Y-120303952D01*
X98274857Y-119875380D02*
X98846285Y-120446809D01*
X97941523Y-120208714D02*
X97703428Y-120875380D01*
X97465333Y-120208714D02*
X97703428Y-120875380D01*
X97798666Y-121113476D01*
X97846285Y-121161095D01*
X97941523Y-121208714D01*
X97084380Y-120208714D02*
X97084380Y-121208714D01*
X97084380Y-120256333D02*
X96989142Y-120208714D01*
X96798666Y-120208714D01*
X96703428Y-120256333D01*
X96655809Y-120303952D01*
X96608190Y-120399190D01*
X96608190Y-120684904D01*
X96655809Y-120780142D01*
X96703428Y-120827761D01*
X96798666Y-120875380D01*
X96989142Y-120875380D01*
X97084380Y-120827761D01*
X95751047Y-120827761D02*
X95846285Y-120875380D01*
X96036761Y-120875380D01*
X96132000Y-120827761D01*
X96179619Y-120780142D01*
X96227238Y-120684904D01*
X96227238Y-120399190D01*
X96179619Y-120303952D01*
X96132000Y-120256333D01*
X96036761Y-120208714D01*
X95846285Y-120208714D01*
X95751047Y-120256333D01*
X95322476Y-120875380D02*
X95322476Y-119875380D01*
X95322476Y-120256333D02*
X95227238Y-120208714D01*
X95036761Y-120208714D01*
X94941523Y-120256333D01*
X94893904Y-120303952D01*
X94846285Y-120399190D01*
X94846285Y-120684904D01*
X94893904Y-120780142D01*
X94941523Y-120827761D01*
X95036761Y-120875380D01*
X95227238Y-120875380D01*
X95322476Y-120827761D01*
X94465333Y-119970619D02*
X94417714Y-119923000D01*
X94322476Y-119875380D01*
X94084380Y-119875380D01*
X93989142Y-119923000D01*
X93941523Y-119970619D01*
X93893904Y-120065857D01*
X93893904Y-120161095D01*
X93941523Y-120303952D01*
X94512952Y-120875380D01*
X93893904Y-120875380D01*
X93512952Y-120827761D02*
X93417714Y-120875380D01*
X93227238Y-120875380D01*
X93132000Y-120827761D01*
X93084380Y-120732523D01*
X93084380Y-120684904D01*
X93132000Y-120589666D01*
X93227238Y-120542047D01*
X93370095Y-120542047D01*
X93465333Y-120494428D01*
X93512952Y-120399190D01*
X93512952Y-120351571D01*
X93465333Y-120256333D01*
X93370095Y-120208714D01*
X93227238Y-120208714D01*
X93132000Y-120256333D01*
X92655809Y-120351571D02*
X92322476Y-120351571D01*
X92179619Y-120875380D02*
X92655809Y-120875380D01*
X92655809Y-119875380D01*
X92179619Y-119875380D01*
X91322476Y-120875380D02*
X91322476Y-119875380D01*
X91322476Y-120827761D02*
X91417714Y-120875380D01*
X91608190Y-120875380D01*
X91703428Y-120827761D01*
X91751047Y-120780142D01*
X91798666Y-120684904D01*
X91798666Y-120399190D01*
X91751047Y-120303952D01*
X91703428Y-120256333D01*
X91608190Y-120208714D01*
X91417714Y-120208714D01*
X91322476Y-120256333D01*
X90941523Y-120208714D02*
X90751047Y-120875380D01*
X90560571Y-120399190D01*
X90370095Y-120875380D01*
X90179619Y-120208714D01*
X89322476Y-120875380D02*
X89798666Y-120875380D01*
X89798666Y-119875380D01*
X88989142Y-120875380D02*
X88989142Y-119875380D01*
X88751047Y-119875380D01*
X88608190Y-119923000D01*
X88512952Y-120018238D01*
X88465333Y-120113476D01*
X88417714Y-120303952D01*
X88417714Y-120446809D01*
X88465333Y-120637285D01*
X88512952Y-120732523D01*
X88608190Y-120827761D01*
X88751047Y-120875380D01*
X88989142Y-120875380D01*
X87989142Y-120875380D02*
X87989142Y-120208714D01*
X87989142Y-120399190D02*
X87941523Y-120303952D01*
X87893904Y-120256333D01*
X87798666Y-120208714D01*
X87703428Y-120208714D01*
X87370095Y-120351571D02*
X87036761Y-120351571D01*
X86893904Y-120875380D02*
X87370095Y-120875380D01*
X87370095Y-119875380D01*
X86893904Y-119875380D01*
X85798666Y-120970619D02*
X85893904Y-120923000D01*
X85989142Y-120827761D01*
X86132000Y-120684904D01*
X86227238Y-120637285D01*
X86322476Y-120637285D01*
X86274857Y-120875380D02*
X86370095Y-120827761D01*
X86465333Y-120732523D01*
X86512952Y-120542047D01*
X86512952Y-120208714D01*
X86465333Y-120018238D01*
X86370095Y-119923000D01*
X86274857Y-119875380D01*
X86084380Y-119875380D01*
X85989142Y-119923000D01*
X85893904Y-120018238D01*
X85846285Y-120208714D01*
X85846285Y-120542047D01*
X85893904Y-120732523D01*
X85989142Y-120827761D01*
X86084380Y-120875380D01*
X86274857Y-120875380D01*
D10*
X103915210Y-91372000D02*
G75*
G03X103915210Y-91372000I-359210J0D01*
G01*
X96803210Y-107628000D02*
G75*
G03X96803210Y-107628000I-359210J0D01*
G01*
D12*
X109723238Y-118744047D02*
X109961333Y-118625000D01*
X110199428Y-118386904D01*
X110556571Y-118029761D01*
X110794666Y-117910714D01*
X111032761Y-117910714D01*
X110913714Y-118505952D02*
X111151809Y-118386904D01*
X111389904Y-118148809D01*
X111508952Y-117672619D01*
X111508952Y-116839285D01*
X111389904Y-116363095D01*
X111151809Y-116125000D01*
X110913714Y-116005952D01*
X110437523Y-116005952D01*
X110199428Y-116125000D01*
X109961333Y-116363095D01*
X109842285Y-116839285D01*
X109842285Y-117672619D01*
X109961333Y-118148809D01*
X110199428Y-118386904D01*
X110437523Y-118505952D01*
X110913714Y-118505952D01*
X107699428Y-116839285D02*
X107699428Y-118505952D01*
X108770857Y-116839285D02*
X108770857Y-118148809D01*
X108651809Y-118386904D01*
X108413714Y-118505952D01*
X108056571Y-118505952D01*
X107818476Y-118386904D01*
X107699428Y-118267857D01*
X105556571Y-118386904D02*
X105794666Y-118505952D01*
X106270857Y-118505952D01*
X106508952Y-118386904D01*
X106628000Y-118148809D01*
X106628000Y-117196428D01*
X106508952Y-116958333D01*
X106270857Y-116839285D01*
X105794666Y-116839285D01*
X105556571Y-116958333D01*
X105437523Y-117196428D01*
X105437523Y-117434523D01*
X106628000Y-117672619D01*
X103413714Y-118386904D02*
X103651809Y-118505952D01*
X104128000Y-118505952D01*
X104366095Y-118386904D01*
X104485142Y-118148809D01*
X104485142Y-117196428D01*
X104366095Y-116958333D01*
X104128000Y-116839285D01*
X103651809Y-116839285D01*
X103413714Y-116958333D01*
X103294666Y-117196428D01*
X103294666Y-117434523D01*
X104485142Y-117672619D01*
X102223238Y-116839285D02*
X102223238Y-118505952D01*
X102223238Y-117077380D02*
X102104190Y-116958333D01*
X101866095Y-116839285D01*
X101508952Y-116839285D01*
X101270857Y-116958333D01*
X101151809Y-117196428D01*
X101151809Y-118505952D01*
X97223238Y-117196428D02*
X96866095Y-117315476D01*
X96747047Y-117434523D01*
X96628000Y-117672619D01*
X96628000Y-118029761D01*
X96747047Y-118267857D01*
X96866095Y-118386904D01*
X97104190Y-118505952D01*
X98056571Y-118505952D01*
X98056571Y-116005952D01*
X97223238Y-116005952D01*
X96985142Y-116125000D01*
X96866095Y-116244047D01*
X96747047Y-116482142D01*
X96747047Y-116720238D01*
X96866095Y-116958333D01*
X96985142Y-117077380D01*
X97223238Y-117196428D01*
X98056571Y-117196428D01*
X95556571Y-118505952D02*
X95556571Y-116839285D01*
X95556571Y-116005952D02*
X95675619Y-116125000D01*
X95556571Y-116244047D01*
X95437523Y-116125000D01*
X95556571Y-116005952D01*
X95556571Y-116244047D01*
X94723238Y-116839285D02*
X93770857Y-116839285D01*
X94366095Y-116005952D02*
X94366095Y-118148809D01*
X94247047Y-118386904D01*
X94008952Y-118505952D01*
X93770857Y-118505952D01*
X93294666Y-116839285D02*
X92342285Y-116839285D01*
X92937523Y-116005952D02*
X92937523Y-118148809D01*
X92818476Y-118386904D01*
X92580380Y-118505952D01*
X92342285Y-118505952D01*
X91508952Y-118505952D02*
X91508952Y-116839285D01*
X91508952Y-116005952D02*
X91628000Y-116125000D01*
X91508952Y-116244047D01*
X91389904Y-116125000D01*
X91508952Y-116005952D01*
X91508952Y-116244047D01*
X89366095Y-118386904D02*
X89604190Y-118505952D01*
X90080380Y-118505952D01*
X90318476Y-118386904D01*
X90437523Y-118148809D01*
X90437523Y-117196428D01*
X90318476Y-116958333D01*
X90080380Y-116839285D01*
X89604190Y-116839285D01*
X89366095Y-116958333D01*
X89247047Y-117196428D01*
X89247047Y-117434523D01*
X90437523Y-117672619D01*
D11*
X52863142Y-82666666D02*
X52910761Y-82619047D01*
X52958380Y-82476190D01*
X52958380Y-82380952D01*
X52910761Y-82238095D01*
X52815523Y-82142857D01*
X52720285Y-82095238D01*
X52529809Y-82047619D01*
X52386952Y-82047619D01*
X52196476Y-82095238D01*
X52101238Y-82142857D01*
X52006000Y-82238095D01*
X51958380Y-82380952D01*
X51958380Y-82476190D01*
X52006000Y-82619047D01*
X52053619Y-82666666D01*
X52958380Y-83238095D02*
X52910761Y-83142857D01*
X52863142Y-83095238D01*
X52767904Y-83047619D01*
X52482190Y-83047619D01*
X52386952Y-83095238D01*
X52339333Y-83142857D01*
X52291714Y-83238095D01*
X52291714Y-83380952D01*
X52339333Y-83476190D01*
X52386952Y-83523809D01*
X52482190Y-83571428D01*
X52767904Y-83571428D01*
X52863142Y-83523809D01*
X52910761Y-83476190D01*
X52958380Y-83380952D01*
X52958380Y-83238095D01*
X52958380Y-84000000D02*
X52291714Y-84000000D01*
X52386952Y-84000000D02*
X52339333Y-84047619D01*
X52291714Y-84142857D01*
X52291714Y-84285714D01*
X52339333Y-84380952D01*
X52434571Y-84428571D01*
X52958380Y-84428571D01*
X52434571Y-84428571D02*
X52339333Y-84476190D01*
X52291714Y-84571428D01*
X52291714Y-84714285D01*
X52339333Y-84809523D01*
X52434571Y-84857142D01*
X52958380Y-84857142D01*
X52958380Y-85333333D02*
X52291714Y-85333333D01*
X52386952Y-85333333D02*
X52339333Y-85380952D01*
X52291714Y-85476190D01*
X52291714Y-85619047D01*
X52339333Y-85714285D01*
X52434571Y-85761904D01*
X52958380Y-85761904D01*
X52434571Y-85761904D02*
X52339333Y-85809523D01*
X52291714Y-85904761D01*
X52291714Y-86047619D01*
X52339333Y-86142857D01*
X52434571Y-86190476D01*
X52958380Y-86190476D01*
X52291714Y-87095238D02*
X52958380Y-87095238D01*
X52291714Y-86666666D02*
X52815523Y-86666666D01*
X52910761Y-86714285D01*
X52958380Y-86809523D01*
X52958380Y-86952380D01*
X52910761Y-87047619D01*
X52863142Y-87095238D01*
X52291714Y-87571428D02*
X52958380Y-87571428D01*
X52386952Y-87571428D02*
X52339333Y-87619047D01*
X52291714Y-87714285D01*
X52291714Y-87857142D01*
X52339333Y-87952380D01*
X52434571Y-88000000D01*
X52958380Y-88000000D01*
X52958380Y-88476190D02*
X52291714Y-88476190D01*
X51958380Y-88476190D02*
X52006000Y-88428571D01*
X52053619Y-88476190D01*
X52006000Y-88523809D01*
X51958380Y-88476190D01*
X52053619Y-88476190D01*
X52291714Y-88809523D02*
X52291714Y-89190476D01*
X51958380Y-88952380D02*
X52815523Y-88952380D01*
X52910761Y-89000000D01*
X52958380Y-89095238D01*
X52958380Y-89190476D01*
X52291714Y-89428571D02*
X52958380Y-89666666D01*
X52291714Y-89904761D02*
X52958380Y-89666666D01*
X53196476Y-89571428D01*
X53244095Y-89523809D01*
X53291714Y-89428571D01*
X52863142Y-91619047D02*
X52910761Y-91571428D01*
X52958380Y-91428571D01*
X52958380Y-91333333D01*
X52910761Y-91190476D01*
X52815523Y-91095238D01*
X52720285Y-91047619D01*
X52529809Y-91000000D01*
X52386952Y-90999999D01*
X52196476Y-91047619D01*
X52101238Y-91095238D01*
X52006000Y-91190476D01*
X51958380Y-91333333D01*
X51958380Y-91428571D01*
X52006000Y-91571428D01*
X52053619Y-91619047D01*
X52958380Y-92190476D02*
X52910761Y-92095238D01*
X52863142Y-92047619D01*
X52767904Y-92000000D01*
X52482190Y-92000000D01*
X52386952Y-92047619D01*
X52339333Y-92095238D01*
X52291714Y-92190476D01*
X52291714Y-92333333D01*
X52339333Y-92428571D01*
X52386952Y-92476190D01*
X52482190Y-92523809D01*
X52767904Y-92523809D01*
X52863142Y-92476190D01*
X52910761Y-92428571D01*
X52958380Y-92333333D01*
X52958380Y-92190476D01*
X52958380Y-93095238D02*
X52910761Y-93000000D01*
X52863142Y-92952380D01*
X52767904Y-92904761D01*
X52482190Y-92904761D01*
X52386952Y-92952380D01*
X52339333Y-92999999D01*
X52291714Y-93095238D01*
X52291714Y-93238095D01*
X52339333Y-93333333D01*
X52386952Y-93380952D01*
X52482190Y-93428571D01*
X52767904Y-93428571D01*
X52863142Y-93380952D01*
X52910761Y-93333333D01*
X52958380Y-93238095D01*
X52958380Y-93095238D01*
X52958380Y-93857142D02*
X52291714Y-93857142D01*
X52482190Y-93857142D02*
X52386952Y-93904761D01*
X52339333Y-93952380D01*
X52291714Y-94047619D01*
X52291714Y-94142857D01*
X52958380Y-94904761D02*
X51958380Y-94904761D01*
X52910761Y-94904761D02*
X52958380Y-94809523D01*
X52958380Y-94619047D01*
X52910761Y-94523809D01*
X52863142Y-94476190D01*
X52767904Y-94428571D01*
X52482190Y-94428571D01*
X52386952Y-94476190D01*
X52339333Y-94523809D01*
X52291714Y-94619047D01*
X52291714Y-94809523D01*
X52339333Y-94904761D01*
X52958380Y-95380952D02*
X52291714Y-95380952D01*
X51958380Y-95380952D02*
X52006000Y-95333333D01*
X52053619Y-95380952D01*
X52006000Y-95428571D01*
X51958380Y-95380952D01*
X52053619Y-95380952D01*
X52291714Y-95857142D02*
X52958380Y-95857142D01*
X52386952Y-95857142D02*
X52339333Y-95904761D01*
X52291714Y-95999999D01*
X52291714Y-96142857D01*
X52339333Y-96238095D01*
X52434571Y-96285714D01*
X52958380Y-96285714D01*
X52958380Y-97190476D02*
X52434571Y-97190476D01*
X52339333Y-97142857D01*
X52291714Y-97047619D01*
X52291714Y-96857142D01*
X52339333Y-96761904D01*
X52910761Y-97190476D02*
X52958380Y-97095238D01*
X52958380Y-96857142D01*
X52910761Y-96761904D01*
X52815523Y-96714285D01*
X52720285Y-96714285D01*
X52625047Y-96761904D01*
X52577428Y-96857142D01*
X52577428Y-97095238D01*
X52529809Y-97190476D01*
X52291714Y-97523809D02*
X52291714Y-97904761D01*
X51958380Y-97666666D02*
X52815523Y-97666666D01*
X52910761Y-97714285D01*
X52958380Y-97809523D01*
X52958380Y-97904761D01*
X52958380Y-98380952D02*
X52910761Y-98285714D01*
X52863142Y-98238095D01*
X52767904Y-98190476D01*
X52482190Y-98190476D01*
X52386952Y-98238095D01*
X52339333Y-98285714D01*
X52291714Y-98380952D01*
X52291714Y-98523809D01*
X52339333Y-98619047D01*
X52386952Y-98666666D01*
X52482190Y-98714285D01*
X52767904Y-98714285D01*
X52863142Y-98666666D01*
X52910761Y-98619047D01*
X52958380Y-98523809D01*
X52958380Y-98380952D01*
X52958380Y-99142857D02*
X52291714Y-99142857D01*
X52482190Y-99142857D02*
X52386952Y-99190476D01*
X52339333Y-99238095D01*
X52291714Y-99333333D01*
X52291714Y-99428571D01*
X52863142Y-99761904D02*
X52910761Y-99809523D01*
X52958380Y-99761904D01*
X52910761Y-99714285D01*
X52863142Y-99761904D01*
X52958380Y-99761904D01*
X52339333Y-99761904D02*
X52386952Y-99809523D01*
X52434571Y-99761904D01*
X52386952Y-99714285D01*
X52339333Y-99761904D01*
X52434571Y-99761904D01*
X52434571Y-100999999D02*
X52434571Y-101333333D01*
X52958380Y-101476190D02*
X52958380Y-100999999D01*
X51958380Y-100999999D01*
X51958380Y-101476190D01*
X52291714Y-102333333D02*
X52958380Y-102333333D01*
X52291714Y-101904761D02*
X52815523Y-101904761D01*
X52910761Y-101952380D01*
X52958380Y-102047619D01*
X52958380Y-102190476D01*
X52910761Y-102285714D01*
X52863142Y-102333333D01*
X52291714Y-103238095D02*
X53101238Y-103238095D01*
X53196476Y-103190476D01*
X53244095Y-103142857D01*
X53291714Y-103047619D01*
X53291714Y-102904761D01*
X53244095Y-102809523D01*
X52910761Y-103238095D02*
X52958380Y-103142857D01*
X52958380Y-102952380D01*
X52910761Y-102857142D01*
X52863142Y-102809523D01*
X52767904Y-102761904D01*
X52482190Y-102761904D01*
X52386952Y-102809523D01*
X52339333Y-102857142D01*
X52291714Y-102952380D01*
X52291714Y-103142857D01*
X52339333Y-103238095D01*
X52910761Y-104095238D02*
X52958380Y-103999999D01*
X52958380Y-103809523D01*
X52910761Y-103714285D01*
X52815523Y-103666666D01*
X52434571Y-103666666D01*
X52339333Y-103714285D01*
X52291714Y-103809523D01*
X52291714Y-103999999D01*
X52339333Y-104095238D01*
X52434571Y-104142857D01*
X52529809Y-104142857D01*
X52625047Y-103666666D01*
X52291714Y-104571428D02*
X52958380Y-104571428D01*
X52386952Y-104571428D02*
X52339333Y-104619047D01*
X52291714Y-104714285D01*
X52291714Y-104857142D01*
X52339333Y-104952380D01*
X52434571Y-104999999D01*
X52958380Y-104999999D01*
X52958380Y-105476190D02*
X52291714Y-105476190D01*
X51958380Y-105476190D02*
X52006000Y-105428571D01*
X52053619Y-105476190D01*
X52006000Y-105523809D01*
X51958380Y-105476190D01*
X52053619Y-105476190D01*
X52958380Y-106095238D02*
X52910761Y-105999999D01*
X52863142Y-105952380D01*
X52767904Y-105904761D01*
X52482190Y-105904761D01*
X52386952Y-105952380D01*
X52339333Y-105999999D01*
X52291714Y-106095238D01*
X52291714Y-106238095D01*
X52339333Y-106333333D01*
X52386952Y-106380952D01*
X52482190Y-106428571D01*
X52767904Y-106428571D01*
X52863142Y-106380952D01*
X52910761Y-106333333D01*
X52958380Y-106238095D01*
X52958380Y-106095238D01*
X52434571Y-107952380D02*
X52482190Y-108095238D01*
X52529809Y-108142857D01*
X52625047Y-108190476D01*
X52767904Y-108190476D01*
X52863142Y-108142857D01*
X52910761Y-108095238D01*
X52958380Y-107999999D01*
X52958380Y-107619047D01*
X51958380Y-107619047D01*
X51958380Y-107952380D01*
X52006000Y-108047619D01*
X52053619Y-108095238D01*
X52148857Y-108142857D01*
X52244095Y-108142857D01*
X52339333Y-108095238D01*
X52386952Y-108047619D01*
X52434571Y-107952380D01*
X52434571Y-107619047D01*
X52958380Y-109047619D02*
X52434571Y-109047619D01*
X52339333Y-108999999D01*
X52291714Y-108904761D01*
X52291714Y-108714285D01*
X52339333Y-108619047D01*
X52910761Y-109047619D02*
X52958380Y-108952380D01*
X52958380Y-108714285D01*
X52910761Y-108619047D01*
X52815523Y-108571428D01*
X52720285Y-108571428D01*
X52625047Y-108619047D01*
X52577428Y-108714285D01*
X52577428Y-108952380D01*
X52529809Y-109047619D01*
X52291714Y-109380952D02*
X52291714Y-109761904D01*
X51958380Y-109523809D02*
X52815523Y-109523809D01*
X52910761Y-109571428D01*
X52958380Y-109666666D01*
X52958380Y-109761904D01*
X52291714Y-109952380D02*
X52291714Y-110333333D01*
X51958380Y-110095238D02*
X52815523Y-110095238D01*
X52910761Y-110142857D01*
X52958380Y-110238095D01*
X52958380Y-110333333D01*
X52958380Y-111095238D02*
X52434571Y-111095238D01*
X52339333Y-111047619D01*
X52291714Y-110952380D01*
X52291714Y-110761904D01*
X52339333Y-110666666D01*
X52910761Y-111095238D02*
X52958380Y-110999999D01*
X52958380Y-110761904D01*
X52910761Y-110666666D01*
X52815523Y-110619047D01*
X52720285Y-110619047D01*
X52625047Y-110666666D01*
X52577428Y-110761904D01*
X52577428Y-110999999D01*
X52529809Y-111095238D01*
X52291714Y-111999999D02*
X53101238Y-111999999D01*
X53196476Y-111952380D01*
X53244095Y-111904761D01*
X53291714Y-111809523D01*
X53291714Y-111666666D01*
X53244095Y-111571428D01*
X52910761Y-111999999D02*
X52958380Y-111904761D01*
X52958380Y-111714285D01*
X52910761Y-111619047D01*
X52863142Y-111571428D01*
X52767904Y-111523809D01*
X52482190Y-111523809D01*
X52386952Y-111571428D01*
X52339333Y-111619047D01*
X52291714Y-111714285D01*
X52291714Y-111904761D01*
X52339333Y-111999999D01*
X52958380Y-112619047D02*
X52910761Y-112523809D01*
X52815523Y-112476190D01*
X51958380Y-112476190D01*
X52958380Y-112999999D02*
X52291714Y-112999999D01*
X51958380Y-112999999D02*
X52006000Y-112952380D01*
X52053619Y-112999999D01*
X52006000Y-113047619D01*
X51958380Y-112999999D01*
X52053619Y-112999999D01*
X52958380Y-113904761D02*
X52434571Y-113904761D01*
X52339333Y-113857142D01*
X52291714Y-113761904D01*
X52291714Y-113571428D01*
X52339333Y-113476190D01*
X52910761Y-113904761D02*
X52958380Y-113809523D01*
X52958380Y-113571428D01*
X52910761Y-113476190D01*
X52815523Y-113428571D01*
X52720285Y-113428571D01*
X52625047Y-113476190D01*
X52577428Y-113571428D01*
X52577428Y-113809523D01*
X52529809Y-113904761D01*
D13*
X121029809Y-87452380D02*
X121029809Y-86452380D01*
X121029809Y-86928571D02*
X120458380Y-86928571D01*
X120458380Y-87452380D02*
X120458380Y-86452380D01*
X120125047Y-86452380D02*
X119791714Y-87452380D01*
X119458380Y-86452380D01*
X118648857Y-86452380D02*
X119125047Y-86452380D01*
X119172666Y-86928571D01*
X119125047Y-86880952D01*
X119029809Y-86833333D01*
X118791714Y-86833333D01*
X118696476Y-86880952D01*
X118648857Y-86928571D01*
X118601238Y-87023809D01*
X118601238Y-87261904D01*
X118648857Y-87357142D01*
X118696476Y-87404761D01*
X118791714Y-87452380D01*
X119029809Y-87452380D01*
X119125047Y-87404761D01*
X119172666Y-87357142D01*
X117982190Y-86452380D02*
X117886952Y-86452380D01*
X117791714Y-86500000D01*
X117744095Y-86547619D01*
X117696476Y-86642857D01*
X117648857Y-86833333D01*
X117648857Y-87071428D01*
X117696476Y-87261904D01*
X117744095Y-87357142D01*
X117791714Y-87404761D01*
X117886952Y-87452380D01*
X117982190Y-87452380D01*
X118077428Y-87404761D01*
X118125047Y-87357142D01*
X118172666Y-87261904D01*
X118220285Y-87071428D01*
X118220285Y-86833333D01*
X118172666Y-86642857D01*
X118125047Y-86547619D01*
X118077428Y-86500000D01*
X117982190Y-86452380D01*
X117315523Y-86452380D02*
X116648857Y-86452380D01*
X117077428Y-87452380D01*
X115077428Y-87452380D02*
X115077428Y-86452380D01*
X115077428Y-87404761D02*
X115172666Y-87452380D01*
X115363142Y-87452380D01*
X115458380Y-87404761D01*
X115505999Y-87357142D01*
X115553619Y-87261904D01*
X115553619Y-86976190D01*
X115505999Y-86880952D01*
X115458380Y-86833333D01*
X115363142Y-86785714D01*
X115172666Y-86785714D01*
X115077428Y-86833333D01*
X114220285Y-87404761D02*
X114315523Y-87452380D01*
X114505999Y-87452380D01*
X114601238Y-87404761D01*
X114648857Y-87309523D01*
X114648857Y-86928571D01*
X114601238Y-86833333D01*
X114505999Y-86785714D01*
X114315523Y-86785714D01*
X114220285Y-86833333D01*
X114172666Y-86928571D01*
X114172666Y-87023809D01*
X114648857Y-87119047D01*
X113791714Y-87404761D02*
X113696476Y-87452380D01*
X113505999Y-87452380D01*
X113410761Y-87404761D01*
X113363142Y-87309523D01*
X113363142Y-87261904D01*
X113410761Y-87166666D01*
X113505999Y-87119047D01*
X113648857Y-87119047D01*
X113744095Y-87071428D01*
X113791714Y-86976190D01*
X113791714Y-86928571D01*
X113744095Y-86833333D01*
X113648857Y-86785714D01*
X113505999Y-86785714D01*
X113410761Y-86833333D01*
X112934571Y-87452380D02*
X112934571Y-86785714D01*
X112934571Y-86452380D02*
X112982190Y-86500000D01*
X112934571Y-86547619D01*
X112886952Y-86500000D01*
X112934571Y-86452380D01*
X112934571Y-86547619D01*
X112029809Y-86785714D02*
X112029809Y-87595238D01*
X112077428Y-87690476D01*
X112125047Y-87738095D01*
X112220285Y-87785714D01*
X112363142Y-87785714D01*
X112458380Y-87738095D01*
X112029809Y-87404761D02*
X112125047Y-87452380D01*
X112315523Y-87452380D01*
X112410761Y-87404761D01*
X112458380Y-87357142D01*
X112505999Y-87261904D01*
X112505999Y-86976190D01*
X112458380Y-86880952D01*
X112410761Y-86833333D01*
X112315523Y-86785714D01*
X112125047Y-86785714D01*
X112029809Y-86833333D01*
X111553619Y-86785714D02*
X111553619Y-87452380D01*
X111553619Y-86880952D02*
X111505999Y-86833333D01*
X111410761Y-86785714D01*
X111267904Y-86785714D01*
X111172666Y-86833333D01*
X111125047Y-86928571D01*
X111125047Y-87452380D01*
X109886952Y-87452380D02*
X109886952Y-86785714D01*
X109886952Y-86452380D02*
X109934571Y-86500000D01*
X109886952Y-86547619D01*
X109839333Y-86500000D01*
X109886952Y-86452380D01*
X109886952Y-86547619D01*
X109410761Y-86785714D02*
X109410761Y-87452380D01*
X109410761Y-86880952D02*
X109363142Y-86833333D01*
X109267904Y-86785714D01*
X109125047Y-86785714D01*
X109029809Y-86833333D01*
X108982190Y-86928571D01*
X108982190Y-87452380D01*
X108553619Y-87404761D02*
X108458380Y-87452380D01*
X108267904Y-87452380D01*
X108172666Y-87404761D01*
X108125047Y-87309523D01*
X108125047Y-87261904D01*
X108172666Y-87166666D01*
X108267904Y-87119047D01*
X108410761Y-87119047D01*
X108506000Y-87071428D01*
X108553619Y-86976190D01*
X108553619Y-86928571D01*
X108506000Y-86833333D01*
X108410761Y-86785714D01*
X108267904Y-86785714D01*
X108172666Y-86833333D01*
X107696476Y-86785714D02*
X107696476Y-87785714D01*
X107696476Y-86833333D02*
X107601238Y-86785714D01*
X107410761Y-86785714D01*
X107315523Y-86833333D01*
X107267904Y-86880952D01*
X107220285Y-86976190D01*
X107220285Y-87261904D01*
X107267904Y-87357142D01*
X107315523Y-87404761D01*
X107410761Y-87452380D01*
X107601238Y-87452380D01*
X107696476Y-87404761D01*
X106791714Y-87452380D02*
X106791714Y-86785714D01*
X106791714Y-86452380D02*
X106839333Y-86500000D01*
X106791714Y-86547619D01*
X106744095Y-86500000D01*
X106791714Y-86452380D01*
X106791714Y-86547619D01*
X106315523Y-87452380D02*
X106315523Y-86785714D01*
X106315523Y-86976190D02*
X106267904Y-86880952D01*
X106220285Y-86833333D01*
X106125047Y-86785714D01*
X106029809Y-86785714D01*
X105315523Y-87404761D02*
X105410761Y-87452380D01*
X105601238Y-87452380D01*
X105696476Y-87404761D01*
X105744095Y-87309523D01*
X105744095Y-86928571D01*
X105696476Y-86833333D01*
X105601238Y-86785714D01*
X105410761Y-86785714D01*
X105315523Y-86833333D01*
X105267904Y-86928571D01*
X105267904Y-87023809D01*
X105744095Y-87119047D01*
X104410761Y-87452380D02*
X104410761Y-86452380D01*
X104410761Y-87404761D02*
X104506000Y-87452380D01*
X104696476Y-87452380D01*
X104791714Y-87404761D01*
X104839333Y-87357142D01*
X104886952Y-87261904D01*
X104886952Y-86976190D01*
X104839333Y-86880952D01*
X104791714Y-86833333D01*
X104696476Y-86785714D01*
X104506000Y-86785714D01*
X104410761Y-86833333D01*
X103172666Y-87452380D02*
X103172666Y-86452380D01*
X103172666Y-86833333D02*
X103077428Y-86785714D01*
X102886952Y-86785714D01*
X102791714Y-86833333D01*
X102744095Y-86880952D01*
X102696476Y-86976190D01*
X102696476Y-87261904D01*
X102744095Y-87357142D01*
X102791714Y-87404761D01*
X102886952Y-87452380D01*
X103077428Y-87452380D01*
X103172666Y-87404761D01*
X102363142Y-86785714D02*
X102125047Y-87452380D01*
X101886952Y-86785714D02*
X102125047Y-87452380D01*
X102220285Y-87690476D01*
X102267904Y-87738095D01*
X102363142Y-87785714D01*
X100172666Y-87452380D02*
X100506000Y-86976190D01*
X100744095Y-87452380D02*
X100744095Y-86452380D01*
X100363142Y-86452380D01*
X100267904Y-86500000D01*
X100220285Y-86547619D01*
X100172666Y-86642857D01*
X100172666Y-86785714D01*
X100220285Y-86880952D01*
X100267904Y-86928571D01*
X100363142Y-86976190D01*
X100744095Y-86976190D01*
X99839333Y-86785714D02*
X99601238Y-87452380D01*
X99363142Y-86785714D02*
X99601238Y-87452380D01*
X99696476Y-87690476D01*
X99744095Y-87738095D01*
X99839333Y-87785714D01*
X98553619Y-87452380D02*
X98553619Y-86928571D01*
X98601238Y-86833333D01*
X98696476Y-86785714D01*
X98886952Y-86785714D01*
X98982190Y-86833333D01*
X98553619Y-87404761D02*
X98648857Y-87452380D01*
X98886952Y-87452380D01*
X98982190Y-87404761D01*
X99029809Y-87309523D01*
X99029809Y-87214285D01*
X98982190Y-87119047D01*
X98886952Y-87071428D01*
X98648857Y-87071428D01*
X98553619Y-87023809D01*
X98077428Y-86785714D02*
X98077428Y-87452380D01*
X98077428Y-86880952D02*
X98029809Y-86833333D01*
X97934571Y-86785714D01*
X97791714Y-86785714D01*
X97696476Y-86833333D01*
X97648857Y-86928571D01*
X97648857Y-87452380D01*
X96077428Y-86928571D02*
X96410761Y-86928571D01*
X96410761Y-87452380D02*
X96410761Y-86452380D01*
X95934571Y-86452380D01*
X95410761Y-87452380D02*
X95506000Y-87404761D01*
X95553619Y-87357142D01*
X95601238Y-87261904D01*
X95601238Y-86976190D01*
X95553619Y-86880952D01*
X95506000Y-86833333D01*
X95410761Y-86785714D01*
X95267904Y-86785714D01*
X95172666Y-86833333D01*
X95125047Y-86880952D01*
X95077428Y-86976190D01*
X95077428Y-87261904D01*
X95125047Y-87357142D01*
X95172666Y-87404761D01*
X95267904Y-87452380D01*
X95410761Y-87452380D01*
X94648857Y-87452380D02*
X94648857Y-86452380D01*
X94648857Y-86833333D02*
X94553619Y-86785714D01*
X94363142Y-86785714D01*
X94267904Y-86833333D01*
X94220285Y-86880952D01*
X94172666Y-86976190D01*
X94172666Y-87261904D01*
X94220285Y-87357142D01*
X94267904Y-87404761D01*
X94363142Y-87452380D01*
X94553619Y-87452380D01*
X94648857Y-87404761D01*
X93363142Y-87404761D02*
X93458380Y-87452380D01*
X93648857Y-87452380D01*
X93744095Y-87404761D01*
X93791714Y-87309523D01*
X93791714Y-86928571D01*
X93744095Y-86833333D01*
X93648857Y-86785714D01*
X93458380Y-86785714D01*
X93363142Y-86833333D01*
X93315523Y-86928571D01*
X93315523Y-87023809D01*
X93791714Y-87119047D01*
X92744095Y-87452380D02*
X92839333Y-87404761D01*
X92886952Y-87309523D01*
X92886952Y-86452380D01*
X91172666Y-87452380D02*
X91172666Y-86928571D01*
X91220285Y-86833333D01*
X91315523Y-86785714D01*
X91506000Y-86785714D01*
X91601238Y-86833333D01*
X91172666Y-87404761D02*
X91267904Y-87452380D01*
X91506000Y-87452380D01*
X91601238Y-87404761D01*
X91648857Y-87309523D01*
X91648857Y-87214285D01*
X91601238Y-87119047D01*
X91506000Y-87071428D01*
X91267904Y-87071428D01*
X91172666Y-87023809D01*
X90696476Y-86785714D02*
X90696476Y-87452380D01*
X90696476Y-86880952D02*
X90648857Y-86833333D01*
X90553619Y-86785714D01*
X90410761Y-86785714D01*
X90315523Y-86833333D01*
X90267904Y-86928571D01*
X90267904Y-87452380D01*
X89363142Y-87452380D02*
X89363142Y-86452380D01*
X89363142Y-87404761D02*
X89458380Y-87452380D01*
X89648857Y-87452380D01*
X89744095Y-87404761D01*
X89791714Y-87357142D01*
X89839333Y-87261904D01*
X89839333Y-86976190D01*
X89791714Y-86880952D01*
X89744095Y-86833333D01*
X89648857Y-86785714D01*
X89458380Y-86785714D01*
X89363142Y-86833333D01*
X87791714Y-86928571D02*
X87648857Y-86976190D01*
X87601238Y-87023809D01*
X87553619Y-87119047D01*
X87553619Y-87261904D01*
X87601238Y-87357142D01*
X87648857Y-87404761D01*
X87744095Y-87452380D01*
X88125047Y-87452380D01*
X88125047Y-86452380D01*
X87791714Y-86452380D01*
X87696476Y-86500000D01*
X87648857Y-86547619D01*
X87601238Y-86642857D01*
X87601238Y-86738095D01*
X87648857Y-86833333D01*
X87696476Y-86880952D01*
X87791714Y-86928571D01*
X88125047Y-86928571D01*
X86744095Y-87404761D02*
X86839333Y-87452380D01*
X87029809Y-87452380D01*
X87125047Y-87404761D01*
X87172666Y-87309523D01*
X87172666Y-86928571D01*
X87125047Y-86833333D01*
X87029809Y-86785714D01*
X86839333Y-86785714D01*
X86744095Y-86833333D01*
X86696476Y-86928571D01*
X86696476Y-87023809D01*
X87172666Y-87119047D01*
X86267904Y-86785714D02*
X86267904Y-87452380D01*
X86267904Y-86880952D02*
X86220285Y-86833333D01*
X86125047Y-86785714D01*
X85982190Y-86785714D01*
X85886952Y-86833333D01*
X85839333Y-86928571D01*
X85839333Y-87452380D01*
X84934571Y-86785714D02*
X84934571Y-87595238D01*
X84982190Y-87690476D01*
X85029809Y-87738095D01*
X85125047Y-87785714D01*
X85267904Y-87785714D01*
X85363142Y-87738095D01*
X84934571Y-87404761D02*
X85029809Y-87452380D01*
X85220285Y-87452380D01*
X85315523Y-87404761D01*
X85363142Y-87357142D01*
X85410761Y-87261904D01*
X85410761Y-86976190D01*
X85363142Y-86880952D01*
X85315523Y-86833333D01*
X85220285Y-86785714D01*
X85029809Y-86785714D01*
X84934571Y-86833333D01*
X84601238Y-86785714D02*
X84220285Y-86785714D01*
X84458380Y-86452380D02*
X84458380Y-87309523D01*
X84410761Y-87404761D01*
X84315523Y-87452380D01*
X84220285Y-87452380D01*
X83172666Y-87404761D02*
X83029809Y-87452380D01*
X82791714Y-87452380D01*
X82696476Y-87404761D01*
X82648857Y-87357142D01*
X82601238Y-87261904D01*
X82601238Y-87166666D01*
X82648857Y-87071428D01*
X82696476Y-87023809D01*
X82791714Y-86976190D01*
X82982190Y-86928571D01*
X83077428Y-86880952D01*
X83125047Y-86833333D01*
X83172666Y-86738095D01*
X83172666Y-86642857D01*
X83125047Y-86547619D01*
X83077428Y-86500000D01*
X82982190Y-86452380D01*
X82744095Y-86452380D01*
X82601238Y-86500000D01*
X82172666Y-86785714D02*
X82172666Y-87642857D01*
X82220285Y-87738095D01*
X82315523Y-87785714D01*
X82363142Y-87785714D01*
X82172666Y-86452380D02*
X82220285Y-86500000D01*
X82172666Y-86547619D01*
X82125047Y-86500000D01*
X82172666Y-86452380D01*
X82172666Y-86547619D01*
X81553619Y-87452380D02*
X81648857Y-87404761D01*
X81696476Y-87357142D01*
X81744095Y-87261904D01*
X81744095Y-86976190D01*
X81696476Y-86880952D01*
X81648857Y-86833333D01*
X81553619Y-86785714D01*
X81410761Y-86785714D01*
X81315523Y-86833333D01*
X81267904Y-86880952D01*
X81220285Y-86976190D01*
X81220285Y-87261904D01*
X81267904Y-87357142D01*
X81315523Y-87404761D01*
X81410761Y-87452380D01*
X81553619Y-87452380D01*
X81648857Y-86452380D02*
X81601238Y-86500000D01*
X81648857Y-86547619D01*
X81696476Y-86500000D01*
X81648857Y-86452380D01*
X81648857Y-86547619D01*
X81267904Y-86452380D02*
X81220285Y-86500000D01*
X81267904Y-86547619D01*
X81315523Y-86500000D01*
X81267904Y-86452380D01*
X81267904Y-86547619D01*
X80648857Y-87452380D02*
X80744095Y-87404761D01*
X80791714Y-87309523D01*
X80791714Y-86452380D01*
X79886952Y-87404761D02*
X79982190Y-87452380D01*
X80172666Y-87452380D01*
X80267904Y-87404761D01*
X80315523Y-87309523D01*
X80315523Y-86928571D01*
X80267904Y-86833333D01*
X80172666Y-86785714D01*
X79982190Y-86785714D01*
X79886952Y-86833333D01*
X79839333Y-86928571D01*
X79839333Y-87023809D01*
X80315523Y-87119047D01*
X79982190Y-86404761D02*
X80125047Y-86547619D01*
X79410761Y-86785714D02*
X79410761Y-87452380D01*
X79410761Y-86880952D02*
X79363142Y-86833333D01*
X79267904Y-86785714D01*
X79125047Y-86785714D01*
X79029809Y-86833333D01*
X78982190Y-86928571D01*
X78982190Y-87452380D01*
D11*
X80692095Y-79977904D02*
X80692095Y-79177904D01*
X80692095Y-79558857D02*
X80234952Y-79558857D01*
X80234952Y-79977904D02*
X80234952Y-79177904D01*
X79968285Y-79177904D02*
X79701619Y-79977904D01*
X79434952Y-79177904D01*
X78558761Y-79977904D02*
X78558761Y-79177904D01*
X78558761Y-79482666D02*
X78482571Y-79444571D01*
X78330190Y-79444571D01*
X78254000Y-79482666D01*
X78215904Y-79520761D01*
X78177809Y-79596952D01*
X78177809Y-79825523D01*
X78215904Y-79901714D01*
X78254000Y-79939809D01*
X78330190Y-79977904D01*
X78482571Y-79977904D01*
X78558761Y-79939809D01*
X77492095Y-79977904D02*
X77492095Y-79558857D01*
X77530190Y-79482666D01*
X77606380Y-79444571D01*
X77758761Y-79444571D01*
X77834952Y-79482666D01*
X77492095Y-79939809D02*
X77568285Y-79977904D01*
X77758761Y-79977904D01*
X77834952Y-79939809D01*
X77873047Y-79863619D01*
X77873047Y-79787428D01*
X77834952Y-79711238D01*
X77758761Y-79673142D01*
X77568285Y-79673142D01*
X77492095Y-79635047D01*
X77149238Y-79939809D02*
X77073047Y-79977904D01*
X76920666Y-79977904D01*
X76844476Y-79939809D01*
X76806380Y-79863619D01*
X76806380Y-79825523D01*
X76844476Y-79749333D01*
X76920666Y-79711238D01*
X77034952Y-79711238D01*
X77111142Y-79673142D01*
X77149238Y-79596952D01*
X77149238Y-79558857D01*
X77111142Y-79482666D01*
X77034952Y-79444571D01*
X76920666Y-79444571D01*
X76844476Y-79482666D01*
X76158761Y-79939809D02*
X76234952Y-79977904D01*
X76387333Y-79977904D01*
X76463523Y-79939809D01*
X76501619Y-79863619D01*
X76501619Y-79558857D01*
X76463523Y-79482666D01*
X76387333Y-79444571D01*
X76234952Y-79444571D01*
X76158761Y-79482666D01*
X76120666Y-79558857D01*
X76120666Y-79635047D01*
X76501619Y-79711238D01*
X75434952Y-79977904D02*
X75434952Y-79177904D01*
X75434952Y-79939809D02*
X75511142Y-79977904D01*
X75663523Y-79977904D01*
X75739714Y-79939809D01*
X75777809Y-79901714D01*
X75815904Y-79825523D01*
X75815904Y-79596952D01*
X75777809Y-79520761D01*
X75739714Y-79482666D01*
X75663523Y-79444571D01*
X75511142Y-79444571D01*
X75434952Y-79482666D01*
X74330190Y-79977904D02*
X74406380Y-79939809D01*
X74444476Y-79901714D01*
X74482571Y-79825523D01*
X74482571Y-79596952D01*
X74444476Y-79520761D01*
X74406380Y-79482666D01*
X74330190Y-79444571D01*
X74215904Y-79444571D01*
X74139714Y-79482666D01*
X74101619Y-79520761D01*
X74063523Y-79596952D01*
X74063523Y-79825523D01*
X74101619Y-79901714D01*
X74139714Y-79939809D01*
X74215904Y-79977904D01*
X74330190Y-79977904D01*
X73720666Y-79444571D02*
X73720666Y-79977904D01*
X73720666Y-79520761D02*
X73682571Y-79482666D01*
X73606380Y-79444571D01*
X73492095Y-79444571D01*
X73415904Y-79482666D01*
X73377809Y-79558857D01*
X73377809Y-79977904D01*
X72387333Y-79977904D02*
X72387333Y-79177904D01*
X71930190Y-79977904D01*
X71930190Y-79177904D01*
X71549238Y-79977904D02*
X71549238Y-79444571D01*
X71549238Y-79177904D02*
X71587333Y-79216000D01*
X71549238Y-79254095D01*
X71511142Y-79216000D01*
X71549238Y-79177904D01*
X71549238Y-79254095D01*
X71244476Y-79977904D02*
X70825428Y-79444571D01*
X71244476Y-79444571D02*
X70825428Y-79977904D01*
X70520666Y-79977904D02*
X70520666Y-79444571D01*
X70520666Y-79177904D02*
X70558761Y-79216000D01*
X70520666Y-79254095D01*
X70482571Y-79216000D01*
X70520666Y-79177904D01*
X70520666Y-79254095D01*
X69834952Y-79939809D02*
X69911142Y-79977904D01*
X70063523Y-79977904D01*
X70139714Y-79939809D01*
X70177809Y-79863619D01*
X70177809Y-79558857D01*
X70139714Y-79482666D01*
X70063523Y-79444571D01*
X69911142Y-79444571D01*
X69834952Y-79482666D01*
X69796857Y-79558857D01*
X69796857Y-79635047D01*
X70177809Y-79711238D01*
X68844476Y-79977904D02*
X68844476Y-79177904D01*
X68539714Y-79177904D01*
X68463523Y-79216000D01*
X68425428Y-79254095D01*
X68387333Y-79330285D01*
X68387333Y-79444571D01*
X68425428Y-79520761D01*
X68463523Y-79558857D01*
X68539714Y-79596952D01*
X68844476Y-79596952D01*
X68082571Y-79939809D02*
X67968285Y-79977904D01*
X67777809Y-79977904D01*
X67701619Y-79939809D01*
X67663523Y-79901714D01*
X67625428Y-79825523D01*
X67625428Y-79749333D01*
X67663523Y-79673142D01*
X67701619Y-79635047D01*
X67777809Y-79596952D01*
X67930190Y-79558857D01*
X68006380Y-79520761D01*
X68044476Y-79482666D01*
X68082571Y-79406476D01*
X68082571Y-79330285D01*
X68044476Y-79254095D01*
X68006380Y-79216000D01*
X67930190Y-79177904D01*
X67739714Y-79177904D01*
X67625428Y-79216000D01*
X67282571Y-79177904D02*
X67282571Y-79825523D01*
X67244476Y-79901714D01*
X67206380Y-79939809D01*
X67130190Y-79977904D01*
X66977809Y-79977904D01*
X66901619Y-79939809D01*
X66863523Y-79901714D01*
X66825428Y-79825523D01*
X66825428Y-79177904D01*
X76939714Y-81327904D02*
X76939714Y-80527904D01*
X76939714Y-80832666D02*
X76863523Y-80794571D01*
X76711142Y-80794571D01*
X76634952Y-80832666D01*
X76596857Y-80870761D01*
X76558761Y-80946952D01*
X76558761Y-81175523D01*
X76596857Y-81251714D01*
X76634952Y-81289809D01*
X76711142Y-81327904D01*
X76863523Y-81327904D01*
X76939714Y-81289809D01*
X76292095Y-80794571D02*
X76101619Y-81327904D01*
X75911142Y-80794571D02*
X76101619Y-81327904D01*
X76177809Y-81518380D01*
X76215904Y-81556476D01*
X76292095Y-81594571D01*
X74654000Y-81327904D02*
X74654000Y-80527904D01*
X74654000Y-81289809D02*
X74730190Y-81327904D01*
X74882571Y-81327904D01*
X74958761Y-81289809D01*
X74996857Y-81251714D01*
X75034952Y-81175523D01*
X75034952Y-80946952D01*
X74996857Y-80870761D01*
X74958761Y-80832666D01*
X74882571Y-80794571D01*
X74730190Y-80794571D01*
X74654000Y-80832666D01*
X73968285Y-81289809D02*
X74044476Y-81327904D01*
X74196857Y-81327904D01*
X74273047Y-81289809D01*
X74311142Y-81213619D01*
X74311142Y-80908857D01*
X74273047Y-80832666D01*
X74196857Y-80794571D01*
X74044476Y-80794571D01*
X73968285Y-80832666D01*
X73930190Y-80908857D01*
X73930190Y-80985047D01*
X74311142Y-81061238D01*
X73015904Y-81289809D02*
X72901619Y-81327904D01*
X72711142Y-81327904D01*
X72634952Y-81289809D01*
X72596857Y-81251714D01*
X72558761Y-81175523D01*
X72558761Y-81099333D01*
X72596857Y-81023142D01*
X72634952Y-80985047D01*
X72711142Y-80946952D01*
X72863523Y-80908857D01*
X72939714Y-80870761D01*
X72977809Y-80832666D01*
X73015904Y-80756476D01*
X73015904Y-80680285D01*
X72977809Y-80604095D01*
X72939714Y-80566000D01*
X72863523Y-80527904D01*
X72673047Y-80527904D01*
X72558761Y-80566000D01*
X72215904Y-81327904D02*
X72215904Y-80794571D01*
X72215904Y-80870761D02*
X72177809Y-80832666D01*
X72101619Y-80794571D01*
X71987333Y-80794571D01*
X71911142Y-80832666D01*
X71873047Y-80908857D01*
X71873047Y-81327904D01*
X71873047Y-80908857D02*
X71834952Y-80832666D01*
X71758761Y-80794571D01*
X71644476Y-80794571D01*
X71568285Y-80832666D01*
X71530190Y-80908857D01*
X71530190Y-81327904D01*
X71149238Y-81327904D02*
X71149238Y-80794571D01*
X71149238Y-80527904D02*
X71187333Y-80566000D01*
X71149238Y-80604095D01*
X71111142Y-80566000D01*
X71149238Y-80527904D01*
X71149238Y-80604095D01*
X70882571Y-80794571D02*
X70577809Y-80794571D01*
X70768285Y-80527904D02*
X70768285Y-81213619D01*
X70730190Y-81289809D01*
X70654000Y-81327904D01*
X70577809Y-81327904D01*
X70311142Y-81327904D02*
X70311142Y-80527904D01*
X69968285Y-81327904D02*
X69968285Y-80908857D01*
X70006380Y-80832666D01*
X70082571Y-80794571D01*
X70196857Y-80794571D01*
X70273047Y-80832666D01*
X70311142Y-80870761D01*
D13*
X153463904Y-80045000D02*
X153559142Y-79997380D01*
X153702000Y-79997380D01*
X153844857Y-80045000D01*
X153940095Y-80140238D01*
X153987714Y-80235476D01*
X154035333Y-80425952D01*
X154035333Y-80568809D01*
X153987714Y-80759285D01*
X153940095Y-80854523D01*
X153844857Y-80949761D01*
X153702000Y-80997380D01*
X153606761Y-80997380D01*
X153463904Y-80949761D01*
X153416285Y-80902142D01*
X153416285Y-80568809D01*
X153606761Y-80568809D01*
X152987714Y-80997380D02*
X152987714Y-79997380D01*
X152416285Y-80997380D01*
X152416285Y-79997380D01*
X151940095Y-80997380D02*
X151940095Y-79997380D01*
X151702000Y-79997380D01*
X151559142Y-80045000D01*
X151463904Y-80140238D01*
X151416285Y-80235476D01*
X151368666Y-80425952D01*
X151368666Y-80568809D01*
X151416285Y-80759285D01*
X151463904Y-80854523D01*
X151559142Y-80949761D01*
X151702000Y-80997380D01*
X151940095Y-80997380D01*
D14*
X128506000Y-127678571D02*
X128220285Y-128678571D01*
X127934571Y-127964285D01*
X127648857Y-128678571D01*
X127363142Y-127678571D01*
X126934571Y-127678571D02*
X126648857Y-128678571D01*
X126363142Y-127964285D01*
X126077428Y-128678571D01*
X125791714Y-127678571D01*
X125363142Y-127678571D02*
X125077428Y-128678571D01*
X124791714Y-127964285D01*
X124506000Y-128678571D01*
X124220285Y-127678571D01*
X123648857Y-128535714D02*
X123577428Y-128607142D01*
X123648857Y-128678571D01*
X123720285Y-128607142D01*
X123648857Y-128535714D01*
X123648857Y-128678571D01*
X122934571Y-128678571D02*
X122934571Y-127178571D01*
X122934571Y-127750000D02*
X122791714Y-127678571D01*
X122506000Y-127678571D01*
X122363142Y-127750000D01*
X122291714Y-127821428D01*
X122220285Y-127964285D01*
X122220285Y-128392857D01*
X122291714Y-128535714D01*
X122363142Y-128607142D01*
X122506000Y-128678571D01*
X122791714Y-128678571D01*
X122934571Y-128607142D01*
X121577428Y-128678571D02*
X121577428Y-127678571D01*
X121577428Y-127178571D02*
X121648857Y-127250000D01*
X121577428Y-127321428D01*
X121506000Y-127250000D01*
X121577428Y-127178571D01*
X121577428Y-127321428D01*
X120648857Y-128678571D02*
X120791714Y-128607142D01*
X120863142Y-128535714D01*
X120934571Y-128392857D01*
X120934571Y-127964285D01*
X120863142Y-127821428D01*
X120791714Y-127750000D01*
X120648857Y-127678571D01*
X120434571Y-127678571D01*
X120291714Y-127750000D01*
X120220285Y-127821428D01*
X120148857Y-127964285D01*
X120148857Y-128392857D01*
X120220285Y-128535714D01*
X120291714Y-128607142D01*
X120434571Y-128678571D01*
X120648857Y-128678571D01*
X119720285Y-127678571D02*
X119148857Y-127678571D01*
X119506000Y-128678571D02*
X119506000Y-127392857D01*
X119434571Y-127250000D01*
X119291714Y-127178571D01*
X119148857Y-127178571D01*
X118434571Y-128678571D02*
X118577428Y-128607142D01*
X118648857Y-128464285D01*
X118648857Y-127178571D01*
X117220285Y-127678571D02*
X117220285Y-128678571D01*
X117863142Y-127678571D02*
X117863142Y-128464285D01*
X117791714Y-128607142D01*
X117648857Y-128678571D01*
X117434571Y-128678571D01*
X117291714Y-128607142D01*
X117220285Y-128535714D01*
X116648857Y-128678571D02*
X115863142Y-127678571D01*
X116648857Y-127678571D02*
X115863142Y-128678571D01*
X115291714Y-128535714D02*
X115220285Y-128607142D01*
X115291714Y-128678571D01*
X115363142Y-128607142D01*
X115291714Y-128535714D01*
X115291714Y-128678571D01*
X114006000Y-128607142D02*
X114148857Y-128678571D01*
X114434571Y-128678571D01*
X114577428Y-128607142D01*
X114648857Y-128464285D01*
X114648857Y-127892857D01*
X114577428Y-127750000D01*
X114434571Y-127678571D01*
X114148857Y-127678571D01*
X114006000Y-127750000D01*
X113934571Y-127892857D01*
X113934571Y-128035714D01*
X114648857Y-128178571D01*
X112648857Y-127678571D02*
X112648857Y-128678571D01*
X113291714Y-127678571D02*
X113291714Y-128464285D01*
X113220285Y-128607142D01*
X113077428Y-128678571D01*
X112863142Y-128678571D01*
X112720285Y-128607142D01*
X112648857Y-128535714D01*
X129506000Y-124892857D02*
X130006000Y-124892857D01*
X130006000Y-125678571D02*
X130006000Y-124178571D01*
X129291714Y-124178571D01*
X128506000Y-125678571D02*
X128648857Y-125607142D01*
X128720285Y-125464285D01*
X128720285Y-124178571D01*
X127291714Y-124678571D02*
X127291714Y-125678571D01*
X127934571Y-124678571D02*
X127934571Y-125464285D01*
X127863142Y-125607142D01*
X127720285Y-125678571D01*
X127506000Y-125678571D01*
X127363142Y-125607142D01*
X127291714Y-125535714D01*
X126720285Y-125678571D02*
X125934571Y-124678571D01*
X126720285Y-124678571D02*
X125934571Y-125678571D01*
X125148857Y-125678571D02*
X125291714Y-125607142D01*
X125363142Y-125464285D01*
X125363142Y-124178571D01*
X124577428Y-125107142D02*
X123434571Y-125107142D01*
X122934571Y-124178571D02*
X122077428Y-124178571D01*
X122506000Y-125678571D02*
X122506000Y-124178571D01*
X121006000Y-125607142D02*
X121148857Y-125678571D01*
X121434571Y-125678571D01*
X121577428Y-125607142D01*
X121648857Y-125464285D01*
X121648857Y-124892857D01*
X121577428Y-124750000D01*
X121434571Y-124678571D01*
X121148857Y-124678571D01*
X121006000Y-124750000D01*
X120934571Y-124892857D01*
X120934571Y-125035714D01*
X121648857Y-125178571D01*
X119648857Y-125607142D02*
X119791714Y-125678571D01*
X120077428Y-125678571D01*
X120220285Y-125607142D01*
X120291714Y-125535714D01*
X120363142Y-125392857D01*
X120363142Y-124964285D01*
X120291714Y-124821428D01*
X120220285Y-124750000D01*
X120077428Y-124678571D01*
X119791714Y-124678571D01*
X119648857Y-124750000D01*
X119006000Y-125678571D02*
X119006000Y-124178571D01*
X118363142Y-125678571D02*
X118363142Y-124892857D01*
X118434571Y-124750000D01*
X118577428Y-124678571D01*
X118791714Y-124678571D01*
X118934571Y-124750000D01*
X119006000Y-124821428D01*
X117648857Y-124678571D02*
X117648857Y-125678571D01*
X117648857Y-124821428D02*
X117577428Y-124750000D01*
X117434571Y-124678571D01*
X117220285Y-124678571D01*
X117077428Y-124750000D01*
X117006000Y-124892857D01*
X117006000Y-125678571D01*
X116077428Y-125678571D02*
X116220285Y-125607142D01*
X116291714Y-125535714D01*
X116363142Y-125392857D01*
X116363142Y-124964285D01*
X116291714Y-124821428D01*
X116220285Y-124750000D01*
X116077428Y-124678571D01*
X115863142Y-124678571D01*
X115720285Y-124750000D01*
X115648857Y-124821428D01*
X115577428Y-124964285D01*
X115577428Y-125392857D01*
X115648857Y-125535714D01*
X115720285Y-125607142D01*
X115863142Y-125678571D01*
X116077428Y-125678571D01*
X114720285Y-125678571D02*
X114863142Y-125607142D01*
X114934571Y-125464285D01*
X114934571Y-124178571D01*
X113934571Y-125678571D02*
X114077428Y-125607142D01*
X114148857Y-125535714D01*
X114220285Y-125392857D01*
X114220285Y-124964285D01*
X114148857Y-124821428D01*
X114077428Y-124750000D01*
X113934571Y-124678571D01*
X113720285Y-124678571D01*
X113577428Y-124750000D01*
X113506000Y-124821428D01*
X113434571Y-124964285D01*
X113434571Y-125392857D01*
X113506000Y-125535714D01*
X113577428Y-125607142D01*
X113720285Y-125678571D01*
X113934571Y-125678571D01*
X112148857Y-124678571D02*
X112148857Y-125892857D01*
X112220285Y-126035714D01*
X112291714Y-126107142D01*
X112434571Y-126178571D01*
X112648857Y-126178571D01*
X112791714Y-126107142D01*
X112148857Y-125607142D02*
X112291714Y-125678571D01*
X112577428Y-125678571D01*
X112720285Y-125607142D01*
X112791714Y-125535714D01*
X112863142Y-125392857D01*
X112863142Y-124964285D01*
X112791714Y-124821428D01*
X112720285Y-124750000D01*
X112577428Y-124678571D01*
X112291714Y-124678571D01*
X112148857Y-124750000D01*
X111577428Y-124678571D02*
X111220285Y-125678571D01*
X110863142Y-124678571D02*
X111220285Y-125678571D01*
X111363142Y-126035714D01*
X111434571Y-126107142D01*
X111577428Y-126178571D01*
X97720285Y-125250000D02*
X97006000Y-125250000D01*
X97863142Y-125678571D02*
X97363142Y-124178571D01*
X96863142Y-125678571D01*
X95220285Y-125678571D02*
X95220285Y-124178571D01*
X95220285Y-124892857D02*
X94363142Y-124892857D01*
X94363142Y-125678571D02*
X94363142Y-124178571D01*
X93006000Y-125678571D02*
X93006000Y-124892857D01*
X93077428Y-124750000D01*
X93220285Y-124678571D01*
X93506000Y-124678571D01*
X93648857Y-124750000D01*
X93006000Y-125607142D02*
X93148857Y-125678571D01*
X93506000Y-125678571D01*
X93648857Y-125607142D01*
X93720285Y-125464285D01*
X93720285Y-125321428D01*
X93648857Y-125178571D01*
X93506000Y-125107142D01*
X93148857Y-125107142D01*
X93006000Y-125035714D01*
X91648857Y-125607142D02*
X91791714Y-125678571D01*
X92077428Y-125678571D01*
X92220285Y-125607142D01*
X92291714Y-125535714D01*
X92363142Y-125392857D01*
X92363142Y-124964285D01*
X92291714Y-124821428D01*
X92220285Y-124750000D01*
X92077428Y-124678571D01*
X91791714Y-124678571D01*
X91648857Y-124750000D01*
X91006000Y-125678571D02*
X91006000Y-124178571D01*
X90863142Y-125107142D02*
X90434571Y-125678571D01*
X90434571Y-124678571D02*
X91006000Y-125250000D01*
X90006000Y-124678571D02*
X89434571Y-124678571D01*
X89791714Y-124178571D02*
X89791714Y-125464285D01*
X89720285Y-125607142D01*
X89577428Y-125678571D01*
X89434571Y-125678571D01*
X88363142Y-125607142D02*
X88506000Y-125678571D01*
X88791714Y-125678571D01*
X88934571Y-125607142D01*
X89006000Y-125464285D01*
X89006000Y-124892857D01*
X88934571Y-124750000D01*
X88791714Y-124678571D01*
X88506000Y-124678571D01*
X88363142Y-124750000D01*
X88291714Y-124892857D01*
X88291714Y-125035714D01*
X89006000Y-125178571D01*
X87648857Y-125678571D02*
X87648857Y-124678571D01*
X87648857Y-124964285D02*
X87577428Y-124821428D01*
X87506000Y-124750000D01*
X87363142Y-124678571D01*
X87220285Y-124678571D01*
X86720285Y-125678571D02*
X86720285Y-124678571D01*
X86720285Y-124178571D02*
X86791714Y-124250000D01*
X86720285Y-124321428D01*
X86648857Y-124250000D01*
X86720285Y-124178571D01*
X86720285Y-124321428D01*
X85363142Y-125678571D02*
X85363142Y-124892857D01*
X85434571Y-124750000D01*
X85577428Y-124678571D01*
X85863142Y-124678571D01*
X86006000Y-124750000D01*
X85363142Y-125607142D02*
X85506000Y-125678571D01*
X85863142Y-125678571D01*
X86006000Y-125607142D01*
X86077428Y-125464285D01*
X86077428Y-125321428D01*
X86006000Y-125178571D01*
X85863142Y-125107142D01*
X85506000Y-125107142D01*
X85363142Y-125035714D01*
X83506000Y-125678571D02*
X83506000Y-124178571D01*
X82648857Y-125678571D01*
X82648857Y-124178571D01*
X81363142Y-125607142D02*
X81506000Y-125678571D01*
X81791714Y-125678571D01*
X81934571Y-125607142D01*
X82006000Y-125464285D01*
X82006000Y-124892857D01*
X81934571Y-124750000D01*
X81791714Y-124678571D01*
X81506000Y-124678571D01*
X81363142Y-124750000D01*
X81291714Y-124892857D01*
X81291714Y-125035714D01*
X82006000Y-125178571D01*
X80863142Y-124678571D02*
X80291714Y-124678571D01*
X80648857Y-124178571D02*
X80648857Y-125464285D01*
X80577428Y-125607142D01*
X80434571Y-125678571D01*
X80291714Y-125678571D01*
X79934571Y-124678571D02*
X79648857Y-125678571D01*
X79363142Y-124964285D01*
X79077428Y-125678571D01*
X78791714Y-124678571D01*
X78006000Y-125678571D02*
X78148857Y-125607142D01*
X78220285Y-125535714D01*
X78291714Y-125392857D01*
X78291714Y-124964285D01*
X78220285Y-124821428D01*
X78148857Y-124750000D01*
X78006000Y-124678571D01*
X77791714Y-124678571D01*
X77648857Y-124750000D01*
X77577428Y-124821428D01*
X77506000Y-124964285D01*
X77506000Y-125392857D01*
X77577428Y-125535714D01*
X77648857Y-125607142D01*
X77791714Y-125678571D01*
X78006000Y-125678571D01*
X76863142Y-125678571D02*
X76863142Y-124678571D01*
X76863142Y-124964285D02*
X76791714Y-124821428D01*
X76720285Y-124750000D01*
X76577428Y-124678571D01*
X76434571Y-124678571D01*
X75934571Y-125678571D02*
X75934571Y-124178571D01*
X75791714Y-125107142D02*
X75363142Y-125678571D01*
X75363142Y-124678571D02*
X75934571Y-125250000D01*
X73577428Y-125678571D02*
X73577428Y-124178571D01*
X73006000Y-124178571D01*
X72863142Y-124250000D01*
X72791714Y-124321428D01*
X72720285Y-124464285D01*
X72720285Y-124678571D01*
X72791714Y-124821428D01*
X72863142Y-124892857D01*
X73006000Y-124964285D01*
X73577428Y-124964285D01*
X72077428Y-125678571D02*
X72077428Y-124678571D01*
X72077428Y-124964285D02*
X72006000Y-124821428D01*
X71934571Y-124750000D01*
X71791714Y-124678571D01*
X71648857Y-124678571D01*
X70934571Y-125678571D02*
X71077428Y-125607142D01*
X71148857Y-125535714D01*
X71220285Y-125392857D01*
X71220285Y-124964285D01*
X71148857Y-124821428D01*
X71077428Y-124750000D01*
X70934571Y-124678571D01*
X70720285Y-124678571D01*
X70577428Y-124750000D01*
X70506000Y-124821428D01*
X70434571Y-124964285D01*
X70434571Y-125392857D01*
X70506000Y-125535714D01*
X70577428Y-125607142D01*
X70720285Y-125678571D01*
X70934571Y-125678571D01*
X69791714Y-124678571D02*
X69791714Y-125964285D01*
X69863142Y-126107142D01*
X70006000Y-126178571D01*
X70077428Y-126178571D01*
X69791714Y-124178571D02*
X69863142Y-124250000D01*
X69791714Y-124321428D01*
X69720285Y-124250000D01*
X69791714Y-124178571D01*
X69791714Y-124321428D01*
X68506000Y-125607142D02*
X68648857Y-125678571D01*
X68934571Y-125678571D01*
X69077428Y-125607142D01*
X69148857Y-125464285D01*
X69148857Y-124892857D01*
X69077428Y-124750000D01*
X68934571Y-124678571D01*
X68648857Y-124678571D01*
X68506000Y-124750000D01*
X68434571Y-124892857D01*
X68434571Y-125035714D01*
X69148857Y-125178571D01*
X67148857Y-125607142D02*
X67291714Y-125678571D01*
X67577428Y-125678571D01*
X67720285Y-125607142D01*
X67791714Y-125535714D01*
X67863142Y-125392857D01*
X67863142Y-124964285D01*
X67791714Y-124821428D01*
X67720285Y-124750000D01*
X67577428Y-124678571D01*
X67291714Y-124678571D01*
X67148857Y-124750000D01*
X66720285Y-124678571D02*
X66148857Y-124678571D01*
X66506000Y-124178571D02*
X66506000Y-125464285D01*
X66434571Y-125607142D01*
X66291714Y-125678571D01*
X66148857Y-125678571D01*
X94898857Y-127678571D02*
X94613142Y-128678571D01*
X94327428Y-127964285D01*
X94041714Y-128678571D01*
X93756000Y-127678571D01*
X93327428Y-127678571D02*
X93041714Y-128678571D01*
X92756000Y-127964285D01*
X92470285Y-128678571D01*
X92184571Y-127678571D01*
X91756000Y-127678571D02*
X91470285Y-128678571D01*
X91184571Y-127964285D01*
X90898857Y-128678571D01*
X90613142Y-127678571D01*
X90041714Y-128535714D02*
X89970285Y-128607142D01*
X90041714Y-128678571D01*
X90113142Y-128607142D01*
X90041714Y-128535714D01*
X90041714Y-128678571D01*
X88684571Y-127678571D02*
X88684571Y-128892857D01*
X88756000Y-129035714D01*
X88827428Y-129107142D01*
X88970285Y-129178571D01*
X89184571Y-129178571D01*
X89327428Y-129107142D01*
X88684571Y-128607142D02*
X88827428Y-128678571D01*
X89113142Y-128678571D01*
X89256000Y-128607142D01*
X89327428Y-128535714D01*
X89398857Y-128392857D01*
X89398857Y-127964285D01*
X89327428Y-127821428D01*
X89256000Y-127750000D01*
X89113142Y-127678571D01*
X88827428Y-127678571D01*
X88684571Y-127750000D01*
X87327428Y-128678571D02*
X87327428Y-127892857D01*
X87398857Y-127750000D01*
X87541714Y-127678571D01*
X87827428Y-127678571D01*
X87970285Y-127750000D01*
X87327428Y-128607142D02*
X87470285Y-128678571D01*
X87827428Y-128678571D01*
X87970285Y-128607142D01*
X88041714Y-128464285D01*
X88041714Y-128321428D01*
X87970285Y-128178571D01*
X87827428Y-128107142D01*
X87470285Y-128107142D01*
X87327428Y-128035714D01*
X85970285Y-127678571D02*
X85970285Y-128678571D01*
X86613142Y-127678571D02*
X86613142Y-128464285D01*
X86541714Y-128607142D01*
X86398857Y-128678571D01*
X86184571Y-128678571D01*
X86041714Y-128607142D01*
X85970285Y-128535714D01*
X84613142Y-128678571D02*
X84613142Y-127178571D01*
X84613142Y-128607142D02*
X84756000Y-128678571D01*
X85041714Y-128678571D01*
X85184571Y-128607142D01*
X85256000Y-128535714D01*
X85327428Y-128392857D01*
X85327428Y-127964285D01*
X85256000Y-127821428D01*
X85184571Y-127750000D01*
X85041714Y-127678571D01*
X84756000Y-127678571D01*
X84613142Y-127750000D01*
X83898857Y-128678571D02*
X83898857Y-127678571D01*
X83898857Y-127178571D02*
X83970285Y-127250000D01*
X83898857Y-127321428D01*
X83827428Y-127250000D01*
X83898857Y-127178571D01*
X83898857Y-127321428D01*
X83184571Y-128535714D02*
X83113142Y-128607142D01*
X83184571Y-128678571D01*
X83256000Y-128607142D01*
X83184571Y-128535714D01*
X83184571Y-128678571D01*
X81827428Y-128607142D02*
X81970285Y-128678571D01*
X82256000Y-128678571D01*
X82398857Y-128607142D01*
X82470285Y-128535714D01*
X82541714Y-128392857D01*
X82541714Y-127964285D01*
X82470285Y-127821428D01*
X82398857Y-127750000D01*
X82256000Y-127678571D01*
X81970285Y-127678571D01*
X81827428Y-127750000D01*
X81184571Y-128678571D02*
X81184571Y-127178571D01*
X80541714Y-128678571D02*
X80541714Y-127892857D01*
X80613142Y-127750000D01*
X80756000Y-127678571D01*
X80970285Y-127678571D01*
X81113142Y-127750000D01*
X81184571Y-127821428D01*
X78756000Y-127107142D02*
X80041714Y-129035714D01*
X77970285Y-127178571D02*
X77684571Y-127178571D01*
X77541714Y-127250000D01*
X77398857Y-127392857D01*
X77327428Y-127678571D01*
X77327428Y-128178571D01*
X77398857Y-128464285D01*
X77541714Y-128607142D01*
X77684571Y-128678571D01*
X77970285Y-128678571D01*
X78113142Y-128607142D01*
X78256000Y-128464285D01*
X78327428Y-128178571D01*
X78327428Y-127678571D01*
X78256000Y-127392857D01*
X78113142Y-127250000D01*
X77970285Y-127178571D01*
X76684571Y-127678571D02*
X76684571Y-129178571D01*
X76684571Y-127750000D02*
X76541714Y-127678571D01*
X76256000Y-127678571D01*
X76113142Y-127750000D01*
X76041714Y-127821428D01*
X75970285Y-127964285D01*
X75970285Y-128392857D01*
X76041714Y-128535714D01*
X76113142Y-128607142D01*
X76256000Y-128678571D01*
X76541714Y-128678571D01*
X76684571Y-128607142D01*
X74756000Y-128607142D02*
X74898857Y-128678571D01*
X75184571Y-128678571D01*
X75327428Y-128607142D01*
X75398857Y-128464285D01*
X75398857Y-127892857D01*
X75327428Y-127750000D01*
X75184571Y-127678571D01*
X74898857Y-127678571D01*
X74756000Y-127750000D01*
X74684571Y-127892857D01*
X74684571Y-128035714D01*
X75398857Y-128178571D01*
X74041714Y-127678571D02*
X74041714Y-128678571D01*
X74041714Y-127821428D02*
X73970285Y-127750000D01*
X73827428Y-127678571D01*
X73613142Y-127678571D01*
X73470285Y-127750000D01*
X73398857Y-127892857D01*
X73398857Y-128678571D01*
X72684571Y-128678571D02*
X72684571Y-127178571D01*
X72327428Y-127178571D01*
X72113142Y-127250000D01*
X71970285Y-127392857D01*
X71898857Y-127535714D01*
X71827428Y-127821428D01*
X71827428Y-128035714D01*
X71898857Y-128321428D01*
X71970285Y-128464285D01*
X72113142Y-128607142D01*
X72327428Y-128678571D01*
X72684571Y-128678571D01*
X71184571Y-128678571D02*
X71184571Y-127678571D01*
X71184571Y-127964285D02*
X71113142Y-127821428D01*
X71041714Y-127750000D01*
X70898857Y-127678571D01*
X70756000Y-127678571D01*
X70041714Y-128678571D02*
X70184571Y-128607142D01*
X70256000Y-128535714D01*
X70327428Y-128392857D01*
X70327428Y-127964285D01*
X70256000Y-127821428D01*
X70184571Y-127750000D01*
X70041714Y-127678571D01*
X69827428Y-127678571D01*
X69684571Y-127750000D01*
X69613142Y-127821428D01*
X69541714Y-127964285D01*
X69541714Y-128392857D01*
X69613142Y-128535714D01*
X69684571Y-128607142D01*
X69827428Y-128678571D01*
X70041714Y-128678571D01*
X68898857Y-127678571D02*
X68898857Y-129178571D01*
X68898857Y-127750000D02*
X68756000Y-127678571D01*
X68470285Y-127678571D01*
X68327428Y-127750000D01*
X68256000Y-127821428D01*
X68184571Y-127964285D01*
X68184571Y-128392857D01*
X68256000Y-128535714D01*
X68327428Y-128607142D01*
X68470285Y-128678571D01*
X68756000Y-128678571D01*
X68898857Y-128607142D01*
D15*
X112072000Y-73657000D02*
X117132000Y-73657000D01*
D11*
X112692000Y-74957000D02*
G75*
G02X112072000Y-75577000I-620000J0D01*
G01*
X112052000Y-74327000D02*
G75*
G02X112692000Y-74947000I10000J-630000D01*
G01*
X112072000Y-73607000D02*
G75*
G02X112432000Y-73267000I350000J-10000D01*
G01*
X116812000Y-73247000D02*
G75*
G02X117142000Y-73577000I0J-330000D01*
G01*
X117142000Y-76377000D02*
G75*
G02X116802000Y-76657000I-310000J30000D01*
G01*
X112452000Y-76667000D02*
G75*
G02X112072000Y-76347000I-30000J350000D01*
G01*
X112062000Y-76277800D02*
X112062000Y-73636200D01*
X117142000Y-76277800D02*
X117142000Y-73636200D01*
X112443000Y-76658800D02*
X116761000Y-76658800D01*
X116761000Y-73255200D02*
X112443000Y-73255200D01*
D16*
X150000000Y-47130000D02*
X102000000Y-47130000D01*
X102000000Y-64870000D02*
X150000000Y-64870000D01*
X150000000Y-49630000D02*
X102000000Y-49630000D01*
X102000000Y-62370000D02*
X150000000Y-62370000D01*
D11*
X151400000Y-59810000D02*
X147590000Y-59810000D01*
X151400000Y-52190000D02*
X147590000Y-52190000D01*
X151400000Y-59810000D02*
X151400000Y-52190000D01*
X147590000Y-52190000D02*
X147590000Y-59810000D01*
X150000000Y-47000000D02*
X150000000Y-65000000D01*
X102000000Y-47000000D02*
X150000000Y-47000000D01*
X102000000Y-65000000D02*
X150000000Y-65000000D01*
X102000000Y-65000000D02*
X102000000Y-47000000D01*
X64374000Y-70819000D02*
X69574000Y-70819000D01*
X69574000Y-67169000D02*
X64374000Y-67169000D01*
X85725000Y-55610000D02*
X89625000Y-55610000D01*
X89625000Y-52660000D02*
X85725000Y-52660000D01*
D17*
X85463131Y-70192420D02*
G75*
G02X94594000Y-70092000I4630869J-5899580D01*
G01*
X94724869Y-81991580D02*
G75*
G02X85594000Y-82092000I-4630869J5899580D01*
G01*
X99094000Y-74342000D02*
X94594000Y-70092000D01*
X81094000Y-74342000D02*
X85594000Y-70092000D01*
X85594000Y-82092000D02*
X81094000Y-77842000D01*
X99094000Y-77842000D02*
X94594000Y-82092000D01*
X96094000Y-76092000D02*
G75*
G03X96094000Y-76092000I-6000000J0D01*
G01*
D11*
X87173000Y-58700000D02*
X87173000Y-56407000D01*
X87160300Y-65544000D02*
X83617000Y-65544000D01*
X87173000Y-67837000D02*
X99054000Y-67837000D01*
X99054000Y-56407000D02*
X87173000Y-56407000D01*
X87173000Y-67837000D02*
X87173000Y-65544000D01*
X74094000Y-68144000D02*
X75094000Y-68144000D01*
X75094000Y-69844000D02*
X74094000Y-69844000D01*
X73490000Y-61112000D02*
X73490000Y-60112000D01*
X75190000Y-60112000D02*
X75190000Y-61112000D01*
X74610000Y-70440000D02*
X76610000Y-70440000D01*
X76610000Y-73390000D02*
X74610000Y-73390000D01*
X75215000Y-65022000D02*
X75215000Y-63822000D01*
X73465000Y-63822000D02*
X73465000Y-65022000D01*
X69154000Y-49600000D02*
X69454000Y-48700000D01*
X69354000Y-53300000D02*
X69054000Y-52400000D01*
X68954000Y-50500000D02*
X68954000Y-51900000D01*
X69054000Y-52400000D02*
X69054000Y-49900000D01*
X69154000Y-49600000D02*
X69154000Y-52800000D01*
X69254000Y-53100000D02*
X69254000Y-49300000D01*
X69354000Y-49100000D02*
X69354000Y-53400000D01*
X69454000Y-53700000D02*
X69454000Y-48800000D01*
X69554000Y-48500000D02*
X69554000Y-53900000D01*
X69654000Y-54200000D02*
X69654000Y-48200000D01*
X79354000Y-56200000D02*
X81354000Y-56200000D01*
X80354000Y-55200000D02*
X80354000Y-55700000D01*
X80354000Y-57200000D02*
X80354000Y-55700000D01*
X80354000Y-58200000D02*
X81854000Y-56700000D01*
X80854000Y-51200000D02*
G75*
G03X80854000Y-51200000I-6000000J0D01*
G01*
X67854000Y-44200000D02*
X67854000Y-58200000D01*
X67854000Y-44200000D02*
X81854000Y-44200000D01*
X81854000Y-56700000D02*
X81854000Y-44200000D01*
X80354000Y-58200000D02*
X67854000Y-58200000D01*
X71105000Y-78185000D02*
X76305000Y-78185000D01*
X76305000Y-74535000D02*
X71105000Y-74535000D01*
X119254000Y-55118000D02*
X119254000Y-54118000D01*
X120954000Y-54118000D02*
X120954000Y-55118000D01*
X145932000Y-56169000D02*
X145932000Y-57169000D01*
X144232000Y-57169000D02*
X144232000Y-56169000D01*
X124088000Y-52867000D02*
X124088000Y-53867000D01*
X122388000Y-53867000D02*
X122388000Y-52867000D01*
X142200000Y-57169000D02*
X142200000Y-56169000D01*
X143900000Y-56169000D02*
X143900000Y-57169000D01*
X146764000Y-116531000D02*
X140764000Y-116531000D01*
X136764000Y-114031000D02*
X136764000Y-116531000D01*
X136764000Y-116531000D02*
X137764000Y-116531000D01*
X134764000Y-111031000D02*
X140764000Y-111031000D01*
X140764000Y-116531000D02*
X140764000Y-114031000D01*
X140764000Y-114031000D02*
X139764000Y-114031000D01*
X139764000Y-114031000D02*
X139764000Y-116531000D01*
X139764000Y-116531000D02*
X138764000Y-116531000D01*
X138764000Y-116531000D02*
X138764000Y-114031000D01*
X138764000Y-114031000D02*
X137764000Y-114031000D01*
X137764000Y-114031000D02*
X137764000Y-116531000D01*
X136764000Y-114031000D02*
X135764000Y-114031000D01*
X135764000Y-114031000D02*
X135764000Y-116531000D01*
X135764000Y-116531000D02*
X134764000Y-116531000D01*
X134764000Y-116531000D02*
X134764000Y-109031000D01*
X147914000Y-117791000D02*
X133614000Y-117791000D01*
X133614000Y-92991000D02*
X147914000Y-92991000D01*
X133614000Y-117791000D02*
X133614000Y-92991000D01*
X147914000Y-92991000D02*
X147914000Y-117791000D01*
D17*
X62000000Y-40000000D02*
G75*
G02X63000000Y-41000000I0J-1000000D01*
G01*
X54000000Y-41000000D02*
G75*
G02X55000000Y-40000000I1000000J0D01*
G01*
X54000000Y-41000000D02*
X54000000Y-54000000D01*
X54000000Y-54000000D02*
X60000000Y-54000000D01*
X60000000Y-54000000D02*
X60000000Y-55250000D01*
X60000000Y-55250000D02*
X63000000Y-55250000D01*
X63000000Y-55250000D02*
X63000000Y-40800000D01*
X62000000Y-40000000D02*
X55000000Y-40000000D01*
D11*
X112079000Y-57474000D02*
X112079000Y-58674000D01*
X113829000Y-58674000D02*
X113829000Y-57474000D01*
X142597000Y-50970000D02*
X142597000Y-52170000D01*
X144347000Y-52170000D02*
X144347000Y-50970000D01*
X146264000Y-57169000D02*
X146264000Y-56169000D01*
X147964000Y-56169000D02*
X147964000Y-57169000D01*
X148130000Y-53109000D02*
X148130000Y-53359000D01*
X148130000Y-52609000D02*
X148130000Y-52359000D01*
X148130000Y-52609000D02*
X147780000Y-53109000D01*
X147780000Y-53109000D02*
X148480000Y-53109000D01*
X148480000Y-53109000D02*
X148130000Y-52609000D01*
X147780000Y-52609000D02*
X148480000Y-52609000D01*
X148930000Y-51559000D02*
X148930000Y-53959000D01*
X147330000Y-51559000D02*
X147330000Y-53959000D01*
X143562000Y-60479000D02*
X143312000Y-60479000D01*
X144062000Y-60479000D02*
X144312000Y-60479000D01*
X144062000Y-60479000D02*
X143562000Y-60129000D01*
X143562000Y-60129000D02*
X143562000Y-60829000D01*
X143562000Y-60829000D02*
X144062000Y-60479000D01*
X144062000Y-60129000D02*
X144062000Y-60829000D01*
X145112000Y-61279000D02*
X142712000Y-61279000D01*
X145112000Y-59679000D02*
X142712000Y-59679000D01*
X136135160Y-58316240D02*
X136086900Y-58316240D01*
X133336180Y-57615200D02*
X133336180Y-58316240D01*
X133336180Y-58316240D02*
X133585100Y-58316240D01*
X136135160Y-58316240D02*
X136335820Y-58316240D01*
X136335820Y-58316240D02*
X136335820Y-57615200D01*
X129404160Y-58062240D02*
X129355900Y-58062240D01*
X126605180Y-57361200D02*
X126605180Y-58062240D01*
X126605180Y-58062240D02*
X126854100Y-58062240D01*
X129404160Y-58062240D02*
X129604820Y-58062240D01*
X129604820Y-58062240D02*
X129604820Y-57361200D01*
X120207000Y-71214000D02*
X120207000Y-72414000D01*
X121957000Y-72414000D02*
X121957000Y-71214000D01*
X116369000Y-54864000D02*
X116369000Y-53664000D01*
X114619000Y-53664000D02*
X114619000Y-54864000D01*
X125108000Y-57318000D02*
X123908000Y-57318000D01*
X123908000Y-59068000D02*
X125108000Y-59068000D01*
X133199000Y-60622000D02*
X133199000Y-61822000D01*
X134949000Y-61822000D02*
X134949000Y-60622000D01*
X130024000Y-56812000D02*
X130024000Y-58012000D01*
X131774000Y-58012000D02*
X131774000Y-56812000D01*
X128177000Y-53967000D02*
X128177000Y-52767000D01*
X126427000Y-52767000D02*
X126427000Y-53967000D01*
X138845000Y-52189000D02*
X138845000Y-50989000D01*
X137095000Y-50989000D02*
X137095000Y-52189000D01*
X135289000Y-53967000D02*
X135289000Y-52767000D01*
X133539000Y-52767000D02*
X133539000Y-53967000D01*
X146098000Y-53109000D02*
X146098000Y-53359000D01*
X146098000Y-52609000D02*
X146098000Y-52359000D01*
X146098000Y-52609000D02*
X145748000Y-53109000D01*
X145748000Y-53109000D02*
X146448000Y-53109000D01*
X146448000Y-53109000D02*
X146098000Y-52609000D01*
X145748000Y-52609000D02*
X146448000Y-52609000D01*
X146898000Y-51559000D02*
X146898000Y-53959000D01*
X145298000Y-51559000D02*
X145298000Y-53959000D01*
X123733760Y-73113160D02*
X123733760Y-73064900D01*
X124434800Y-70314180D02*
X123733760Y-70314180D01*
X123733760Y-70314180D02*
X123733760Y-70563100D01*
X123733760Y-73113160D02*
X123733760Y-73313820D01*
X123733760Y-73313820D02*
X124434800Y-73313820D01*
X130209000Y-53967000D02*
X130209000Y-52767000D01*
X128459000Y-52767000D02*
X128459000Y-53967000D01*
X126582000Y-99746000D02*
X126582000Y-98746000D01*
X128282000Y-98746000D02*
X128282000Y-99746000D01*
X72910000Y-99508000D02*
X72910000Y-100508000D01*
X71210000Y-100508000D02*
X71210000Y-99508000D01*
X84675000Y-46555000D02*
X90675000Y-46555000D01*
X84675000Y-51555000D02*
X90675000Y-51555000D01*
X94080000Y-53710000D02*
X94610000Y-53710000D01*
X97780000Y-53710000D02*
X97270000Y-53710000D01*
X94080000Y-48210000D02*
X94540000Y-48210000D01*
X97780000Y-48210000D02*
X97240000Y-48210000D01*
D14*
X94180000Y-49160000D02*
X94530000Y-49160000D01*
X97680000Y-49160000D02*
X97330000Y-49160000D01*
D11*
X97780000Y-48210000D02*
X97780000Y-53710000D01*
X94080000Y-53710000D02*
X94080000Y-48210000D01*
D15*
X81702000Y-64184000D02*
X76642000Y-64184000D01*
D11*
X81082000Y-62884000D02*
G75*
G02X81702000Y-62264000I620000J0D01*
G01*
X81722000Y-63514000D02*
G75*
G02X81082000Y-62894000I-10000J630000D01*
G01*
X81702000Y-64234000D02*
G75*
G02X81342000Y-64574000I-350000J10000D01*
G01*
X76962000Y-64594000D02*
G75*
G02X76632000Y-64264000I0J330000D01*
G01*
X76632000Y-61464000D02*
G75*
G02X76972000Y-61184000I310000J-30000D01*
G01*
X81322000Y-61174000D02*
G75*
G02X81702000Y-61494000I30000J-350000D01*
G01*
X81712000Y-61563200D02*
X81712000Y-64204800D01*
X76632000Y-61563200D02*
X76632000Y-64204800D01*
X81331000Y-61182200D02*
X77013000Y-61182200D01*
X77013000Y-64585800D02*
X81331000Y-64585800D01*
X101535000Y-135317000D02*
X101535000Y-136517000D01*
X103285000Y-136517000D02*
X103285000Y-135317000D01*
X100872000Y-136517000D02*
X100872000Y-135317000D01*
X99122000Y-135317000D02*
X99122000Y-136517000D01*
X98205000Y-138041000D02*
X98205000Y-136841000D01*
X96455000Y-136841000D02*
X96455000Y-138041000D01*
X98205000Y-134612000D02*
X98205000Y-133412000D01*
X96455000Y-133412000D02*
X96455000Y-134612000D01*
X96125000Y-106625000D02*
X95675000Y-106625000D01*
X96125000Y-92375000D02*
X95675000Y-92375000D01*
X75875000Y-92375000D02*
X76325000Y-92375000D01*
X75875000Y-106625000D02*
X76325000Y-106625000D01*
X96125000Y-106625000D02*
X96125000Y-105975000D01*
X75875000Y-106625000D02*
X75875000Y-105975000D01*
X75875000Y-92375000D02*
X75875000Y-93025000D01*
X96125000Y-92375000D02*
X96125000Y-93025000D01*
X95675000Y-106625000D02*
X95675000Y-108300000D01*
X103875000Y-92375000D02*
X104325000Y-92375000D01*
X103875000Y-106625000D02*
X104325000Y-106625000D01*
X124125000Y-106625000D02*
X123675000Y-106625000D01*
X124125000Y-92375000D02*
X123675000Y-92375000D01*
X103875000Y-92375000D02*
X103875000Y-93025000D01*
X124125000Y-92375000D02*
X124125000Y-93025000D01*
X124125000Y-106625000D02*
X124125000Y-105975000D01*
X103875000Y-106625000D02*
X103875000Y-105975000D01*
X104325000Y-92375000D02*
X104325000Y-90700000D01*
X144058000Y-102731000D02*
X143058000Y-102731000D01*
X143058000Y-101031000D02*
X144058000Y-101031000D01*
X138228000Y-101881000D02*
X137978000Y-101881000D01*
X138728000Y-101881000D02*
X138978000Y-101881000D01*
X138728000Y-101881000D02*
X138228000Y-101531000D01*
X138228000Y-101531000D02*
X138228000Y-102231000D01*
X138228000Y-102231000D02*
X138728000Y-101881000D01*
X138728000Y-101531000D02*
X138728000Y-102231000D01*
X139778000Y-102681000D02*
X137378000Y-102681000D01*
X139778000Y-101081000D02*
X137378000Y-101081000D01*
X140226840Y-88530760D02*
X140275100Y-88530760D01*
X143025820Y-89231800D02*
X143025820Y-88530760D01*
X143025820Y-88530760D02*
X142776900Y-88530760D01*
X140226840Y-88530760D02*
X140026180Y-88530760D01*
X140026180Y-88530760D02*
X140026180Y-89231800D01*
X146127160Y-89831240D02*
X146078900Y-89831240D01*
X143328180Y-89130200D02*
X143328180Y-89831240D01*
X143328180Y-89831240D02*
X143577100Y-89831240D01*
X146127160Y-89831240D02*
X146327820Y-89831240D01*
X146327820Y-89831240D02*
X146327820Y-89130200D01*
X139015160Y-89831240D02*
X138966900Y-89831240D01*
X136216180Y-89130200D02*
X136216180Y-89831240D01*
X136216180Y-89831240D02*
X136465100Y-89831240D01*
X139015160Y-89831240D02*
X139215820Y-89831240D01*
X139215820Y-89831240D02*
X139215820Y-89130200D01*
X140651000Y-84263000D02*
X140651000Y-85463000D01*
X142401000Y-85463000D02*
X142401000Y-84263000D01*
X136559000Y-101973000D02*
X136559000Y-100773000D01*
X134809000Y-100773000D02*
X134809000Y-101973000D01*
X145703000Y-85463000D02*
X145703000Y-84263000D01*
X143953000Y-84263000D02*
X143953000Y-85463000D01*
X148497000Y-101465000D02*
X148497000Y-100265000D01*
X146747000Y-100265000D02*
X146747000Y-101465000D01*
X137575000Y-85463000D02*
X137575000Y-84263000D01*
X135825000Y-84263000D02*
X135825000Y-85463000D01*
X137857000Y-84263000D02*
X137857000Y-85463000D01*
X139607000Y-85463000D02*
X139607000Y-84263000D01*
X145985000Y-84263000D02*
X145985000Y-85463000D01*
X147735000Y-85463000D02*
X147735000Y-84263000D01*
X117562000Y-72409000D02*
X117562000Y-71409000D01*
X119262000Y-71409000D02*
X119262000Y-72409000D01*
X115610000Y-70219000D02*
X114610000Y-70219000D01*
X114610000Y-68519000D02*
X115610000Y-68519000D01*
X111388000Y-70393000D02*
X111388000Y-71393000D01*
X109688000Y-71393000D02*
X109688000Y-70393000D01*
X118320000Y-79134000D02*
X119520000Y-79134000D01*
X119520000Y-77384000D02*
X118320000Y-77384000D01*
X117537000Y-74611000D02*
X117537000Y-75811000D01*
X119287000Y-75811000D02*
X119287000Y-74611000D01*
X109663000Y-74103000D02*
X109663000Y-75303000D01*
X111413000Y-75303000D02*
X111413000Y-74103000D01*
X101970000Y-108229000D02*
X100770000Y-108229000D01*
X100770000Y-109979000D02*
X101970000Y-109979000D01*
X99220000Y-88979000D02*
X98020000Y-88979000D01*
X98020000Y-90729000D02*
X99220000Y-90729000D01*
X101970000Y-88979000D02*
X100770000Y-88979000D01*
X100770000Y-90729000D02*
X101970000Y-90729000D01*
X98020000Y-109979000D02*
X99220000Y-109979000D01*
X99220000Y-108229000D02*
X98020000Y-108229000D01*
X111299904Y-77457380D02*
X111299904Y-78266904D01*
X111252285Y-78362142D01*
X111204666Y-78409761D01*
X111109428Y-78457380D01*
X110918952Y-78457380D01*
X110823714Y-78409761D01*
X110776095Y-78362142D01*
X110728476Y-78266904D01*
X110728476Y-77457380D01*
X109823714Y-77457380D02*
X110014190Y-77457380D01*
X110109428Y-77505000D01*
X110157047Y-77552619D01*
X110252285Y-77695476D01*
X110299904Y-77885952D01*
X110299904Y-78266904D01*
X110252285Y-78362142D01*
X110204666Y-78409761D01*
X110109428Y-78457380D01*
X109918952Y-78457380D01*
X109823714Y-78409761D01*
X109776095Y-78362142D01*
X109728476Y-78266904D01*
X109728476Y-78028809D01*
X109776095Y-77933571D01*
X109823714Y-77885952D01*
X109918952Y-77838333D01*
X110109428Y-77838333D01*
X110204666Y-77885952D01*
X110252285Y-77933571D01*
X110299904Y-78028809D01*
X104340285Y-45089857D02*
X104340285Y-46061285D01*
X104283142Y-46175571D01*
X104226000Y-46232714D01*
X104111714Y-46289857D01*
X103883142Y-46289857D01*
X103768857Y-46232714D01*
X103711714Y-46175571D01*
X103654571Y-46061285D01*
X103654571Y-45089857D01*
X103197428Y-45089857D02*
X102454571Y-45089857D01*
X102854571Y-45547000D01*
X102683142Y-45547000D01*
X102568857Y-45604142D01*
X102511714Y-45661285D01*
X102454571Y-45775571D01*
X102454571Y-46061285D01*
X102511714Y-46175571D01*
X102568857Y-46232714D01*
X102683142Y-46289857D01*
X103026000Y-46289857D01*
X103140285Y-46232714D01*
X103197428Y-46175571D01*
X116690285Y-52043000D02*
X116118857Y-52043000D01*
X116804571Y-52385857D02*
X116404571Y-51185857D01*
X116004571Y-52385857D01*
X114918857Y-52385857D02*
X115318857Y-51814428D01*
X115604571Y-52385857D02*
X115604571Y-51185857D01*
X115147428Y-51185857D01*
X115033142Y-51243000D01*
X114976000Y-51300142D01*
X114918857Y-51414428D01*
X114918857Y-51585857D01*
X114976000Y-51700142D01*
X115033142Y-51757285D01*
X115147428Y-51814428D01*
X115604571Y-51814428D01*
X114404571Y-52385857D02*
X114404571Y-51185857D01*
X114118857Y-51185857D01*
X113947428Y-51243000D01*
X113833142Y-51357285D01*
X113776000Y-51471571D01*
X113718857Y-51700142D01*
X113718857Y-51871571D01*
X113776000Y-52100142D01*
X113833142Y-52214428D01*
X113947428Y-52328714D01*
X114118857Y-52385857D01*
X114404571Y-52385857D01*
X113204571Y-51185857D02*
X113204571Y-52157285D01*
X113147428Y-52271571D01*
X113090285Y-52328714D01*
X112976000Y-52385857D01*
X112747428Y-52385857D01*
X112633142Y-52328714D01*
X112576000Y-52271571D01*
X112518857Y-52157285D01*
X112518857Y-51185857D01*
X111947428Y-52385857D02*
X111947428Y-51185857D01*
X111376000Y-52385857D02*
X111376000Y-51185857D01*
X110690285Y-52385857D01*
X110690285Y-51185857D01*
X109890285Y-51185857D02*
X109661714Y-51185857D01*
X109547428Y-51243000D01*
X109433142Y-51357285D01*
X109376000Y-51585857D01*
X109376000Y-51985857D01*
X109433142Y-52214428D01*
X109547428Y-52328714D01*
X109661714Y-52385857D01*
X109890285Y-52385857D01*
X110004571Y-52328714D01*
X110118857Y-52214428D01*
X110176000Y-51985857D01*
X110176000Y-51585857D01*
X110118857Y-51357285D01*
X110004571Y-51243000D01*
X109890285Y-51185857D01*
X109147428Y-52500142D02*
X108233142Y-52500142D01*
X107947428Y-52385857D02*
X107947428Y-51185857D01*
X107547428Y-52043000D01*
X107147428Y-51185857D01*
X107147428Y-52385857D01*
X106576000Y-52385857D02*
X106576000Y-51185857D01*
X105318857Y-52271571D02*
X105376000Y-52328714D01*
X105547428Y-52385857D01*
X105661714Y-52385857D01*
X105833142Y-52328714D01*
X105947428Y-52214428D01*
X106004571Y-52100142D01*
X106061714Y-51871571D01*
X106061714Y-51700142D01*
X106004571Y-51471571D01*
X105947428Y-51357285D01*
X105833142Y-51243000D01*
X105661714Y-51185857D01*
X105547428Y-51185857D01*
X105376000Y-51243000D01*
X105318857Y-51300142D01*
X104118857Y-52385857D02*
X104518857Y-51814428D01*
X104804571Y-52385857D02*
X104804571Y-51185857D01*
X104347428Y-51185857D01*
X104233142Y-51243000D01*
X104176000Y-51300142D01*
X104118857Y-51414428D01*
X104118857Y-51585857D01*
X104176000Y-51700142D01*
X104233142Y-51757285D01*
X104347428Y-51814428D01*
X104804571Y-51814428D01*
X103376000Y-51185857D02*
X103147428Y-51185857D01*
X103033142Y-51243000D01*
X102918857Y-51357285D01*
X102861714Y-51585857D01*
X102861714Y-51985857D01*
X102918857Y-52214428D01*
X103033142Y-52328714D01*
X103147428Y-52385857D01*
X103376000Y-52385857D01*
X103490285Y-52328714D01*
X103604571Y-52214428D01*
X103661714Y-51985857D01*
X103661714Y-51585857D01*
X103604571Y-51357285D01*
X103490285Y-51243000D01*
X103376000Y-51185857D01*
X65746666Y-66519380D02*
X66080000Y-66043190D01*
X66318095Y-66519380D02*
X66318095Y-65519380D01*
X65937142Y-65519380D01*
X65841904Y-65567000D01*
X65794285Y-65614619D01*
X65746666Y-65709857D01*
X65746666Y-65852714D01*
X65794285Y-65947952D01*
X65841904Y-65995571D01*
X65937142Y-66043190D01*
X66318095Y-66043190D01*
X65365714Y-65614619D02*
X65318095Y-65567000D01*
X65222857Y-65519380D01*
X64984761Y-65519380D01*
X64889523Y-65567000D01*
X64841904Y-65614619D01*
X64794285Y-65709857D01*
X64794285Y-65805095D01*
X64841904Y-65947952D01*
X65413333Y-66519380D01*
X64794285Y-66519380D01*
X96829619Y-55851380D02*
X97162952Y-55375190D01*
X97401047Y-55851380D02*
X97401047Y-54851380D01*
X97020095Y-54851380D01*
X96924857Y-54899000D01*
X96877238Y-54946619D01*
X96829619Y-55041857D01*
X96829619Y-55184714D01*
X96877238Y-55279952D01*
X96924857Y-55327571D01*
X97020095Y-55375190D01*
X97401047Y-55375190D01*
X96448666Y-55803761D02*
X96305809Y-55851380D01*
X96067714Y-55851380D01*
X95972476Y-55803761D01*
X95924857Y-55756142D01*
X95877238Y-55660904D01*
X95877238Y-55565666D01*
X95924857Y-55470428D01*
X95972476Y-55422809D01*
X96067714Y-55375190D01*
X96258190Y-55327571D01*
X96353428Y-55279952D01*
X96401047Y-55232333D01*
X96448666Y-55137095D01*
X96448666Y-55041857D01*
X96401047Y-54946619D01*
X96353428Y-54899000D01*
X96258190Y-54851380D01*
X96020095Y-54851380D01*
X95877238Y-54899000D01*
X95448666Y-55327571D02*
X95115333Y-55327571D01*
X94972476Y-55851380D02*
X95448666Y-55851380D01*
X95448666Y-54851380D01*
X94972476Y-54851380D01*
X94543904Y-55851380D02*
X94543904Y-54851380D01*
X93972476Y-55851380D01*
X93972476Y-54851380D01*
X93543904Y-55803761D02*
X93401047Y-55851380D01*
X93162952Y-55851380D01*
X93067714Y-55803761D01*
X93020095Y-55756142D01*
X92972476Y-55660904D01*
X92972476Y-55565666D01*
X93020095Y-55470428D01*
X93067714Y-55422809D01*
X93162952Y-55375190D01*
X93353428Y-55327571D01*
X93448666Y-55279952D01*
X93496285Y-55232333D01*
X93543904Y-55137095D01*
X93543904Y-55041857D01*
X93496285Y-54946619D01*
X93448666Y-54899000D01*
X93353428Y-54851380D01*
X93115333Y-54851380D01*
X92972476Y-54899000D01*
X92543904Y-55327571D02*
X92210571Y-55327571D01*
X92067714Y-55851380D02*
X92543904Y-55851380D01*
X92543904Y-54851380D01*
X92067714Y-54851380D01*
X91115333Y-55851380D02*
X91686761Y-55851380D01*
X91401047Y-55851380D02*
X91401047Y-54851380D01*
X91496285Y-54994238D01*
X91591523Y-55089476D01*
X91686761Y-55137095D01*
X97922666Y-81702380D02*
X98398857Y-81702380D01*
X98398857Y-80702380D01*
X97065523Y-81702380D02*
X97636952Y-81702380D01*
X97351238Y-81702380D02*
X97351238Y-80702380D01*
X97446476Y-80845238D01*
X97541714Y-80940476D01*
X97636952Y-80988095D01*
X86153904Y-57391380D02*
X85582476Y-57391380D01*
X85868190Y-58391380D02*
X85868190Y-57391380D01*
X84725333Y-58391380D02*
X85296761Y-58391380D01*
X85011047Y-58391380D02*
X85011047Y-57391380D01*
X85106285Y-57534238D01*
X85201523Y-57629476D01*
X85296761Y-57677095D01*
X77938666Y-69218142D02*
X77986285Y-69265761D01*
X78129142Y-69313380D01*
X78224380Y-69313380D01*
X78367238Y-69265761D01*
X78462476Y-69170523D01*
X78510095Y-69075285D01*
X78557714Y-68884809D01*
X78557714Y-68741952D01*
X78510095Y-68551476D01*
X78462476Y-68456238D01*
X78367238Y-68361000D01*
X78224380Y-68313380D01*
X78129142Y-68313380D01*
X77986285Y-68361000D01*
X77938666Y-68408619D01*
X77557714Y-68408619D02*
X77510095Y-68361000D01*
X77414857Y-68313380D01*
X77176761Y-68313380D01*
X77081523Y-68361000D01*
X77033904Y-68408619D01*
X76986285Y-68503857D01*
X76986285Y-68599095D01*
X77033904Y-68741952D01*
X77605333Y-69313380D01*
X76986285Y-69313380D01*
X72597142Y-60445333D02*
X72644761Y-60397714D01*
X72692380Y-60254857D01*
X72692380Y-60159619D01*
X72644761Y-60016761D01*
X72549523Y-59921523D01*
X72454285Y-59873904D01*
X72263809Y-59826285D01*
X72120952Y-59826285D01*
X71930476Y-59873904D01*
X71835238Y-59921523D01*
X71740000Y-60016761D01*
X71692380Y-60159619D01*
X71692380Y-60254857D01*
X71740000Y-60397714D01*
X71787619Y-60445333D01*
X71692380Y-60778666D02*
X71692380Y-61397714D01*
X72073333Y-61064380D01*
X72073333Y-61207238D01*
X72120952Y-61302476D01*
X72168571Y-61350095D01*
X72263809Y-61397714D01*
X72501904Y-61397714D01*
X72597142Y-61350095D01*
X72644761Y-61302476D01*
X72692380Y-61207238D01*
X72692380Y-60921523D01*
X72644761Y-60826285D01*
X72597142Y-60778666D01*
X80478666Y-72266142D02*
X80526285Y-72313761D01*
X80669142Y-72361380D01*
X80764380Y-72361380D01*
X80907238Y-72313761D01*
X81002476Y-72218523D01*
X81050095Y-72123285D01*
X81097714Y-71932809D01*
X81097714Y-71789952D01*
X81050095Y-71599476D01*
X81002476Y-71504238D01*
X80907238Y-71409000D01*
X80764380Y-71361380D01*
X80669142Y-71361380D01*
X80526285Y-71409000D01*
X80478666Y-71456619D01*
X79573904Y-71361380D02*
X80050095Y-71361380D01*
X80097714Y-71837571D01*
X80050095Y-71789952D01*
X79954857Y-71742333D01*
X79716761Y-71742333D01*
X79621523Y-71789952D01*
X79573904Y-71837571D01*
X79526285Y-71932809D01*
X79526285Y-72170904D01*
X79573904Y-72266142D01*
X79621523Y-72313761D01*
X79716761Y-72361380D01*
X79954857Y-72361380D01*
X80050095Y-72313761D01*
X80097714Y-72266142D01*
X72692380Y-64255333D02*
X72216190Y-63922000D01*
X72692380Y-63683904D02*
X71692380Y-63683904D01*
X71692380Y-64064857D01*
X71740000Y-64160095D01*
X71787619Y-64207714D01*
X71882857Y-64255333D01*
X72025714Y-64255333D01*
X72120952Y-64207714D01*
X72168571Y-64160095D01*
X72216190Y-64064857D01*
X72216190Y-63683904D01*
X72692380Y-65207714D02*
X72692380Y-64636285D01*
X72692380Y-64922000D02*
X71692380Y-64922000D01*
X71835238Y-64826761D01*
X71930476Y-64731523D01*
X71978095Y-64636285D01*
X83526666Y-45342142D02*
X83574285Y-45389761D01*
X83717142Y-45437380D01*
X83812380Y-45437380D01*
X83955238Y-45389761D01*
X84050476Y-45294523D01*
X84098095Y-45199285D01*
X84145714Y-45008809D01*
X84145714Y-44865952D01*
X84098095Y-44675476D01*
X84050476Y-44580238D01*
X83955238Y-44485000D01*
X83812380Y-44437380D01*
X83717142Y-44437380D01*
X83574285Y-44485000D01*
X83526666Y-44532619D01*
X82669523Y-44770714D02*
X82669523Y-45437380D01*
X82907619Y-44389761D02*
X83145714Y-45104047D01*
X82526666Y-45104047D01*
X66762666Y-76584142D02*
X66810285Y-76631761D01*
X66953142Y-76679380D01*
X67048380Y-76679380D01*
X67191238Y-76631761D01*
X67286476Y-76536523D01*
X67334095Y-76441285D01*
X67381714Y-76250809D01*
X67381714Y-76107952D01*
X67334095Y-75917476D01*
X67286476Y-75822238D01*
X67191238Y-75727000D01*
X67048380Y-75679380D01*
X66953142Y-75679380D01*
X66810285Y-75727000D01*
X66762666Y-75774619D01*
X65810285Y-76679380D02*
X66381714Y-76679380D01*
X66096000Y-76679380D02*
X66096000Y-75679380D01*
X66191238Y-75822238D01*
X66286476Y-75917476D01*
X66381714Y-75965095D01*
X118863142Y-54333333D02*
X118910761Y-54285714D01*
X118958380Y-54142857D01*
X118958380Y-54047619D01*
X118910761Y-53904761D01*
X118815523Y-53809523D01*
X118720285Y-53761904D01*
X118529809Y-53714285D01*
X118386952Y-53714285D01*
X118196476Y-53761904D01*
X118101238Y-53809523D01*
X118006000Y-53904761D01*
X117958380Y-54047619D01*
X117958380Y-54142857D01*
X118006000Y-54285714D01*
X118053619Y-54333333D01*
X117958380Y-54666666D02*
X117958380Y-55333333D01*
X118958380Y-54904761D01*
X145248666Y-59312142D02*
X145296285Y-59359761D01*
X145439142Y-59407380D01*
X145534380Y-59407380D01*
X145677238Y-59359761D01*
X145772476Y-59264523D01*
X145820095Y-59169285D01*
X145867714Y-58978809D01*
X145867714Y-58835952D01*
X145820095Y-58645476D01*
X145772476Y-58550238D01*
X145677238Y-58455000D01*
X145534380Y-58407380D01*
X145439142Y-58407380D01*
X145296285Y-58455000D01*
X145248666Y-58502619D01*
X144677238Y-58835952D02*
X144772476Y-58788333D01*
X144820095Y-58740714D01*
X144867714Y-58645476D01*
X144867714Y-58597857D01*
X144820095Y-58502619D01*
X144772476Y-58455000D01*
X144677238Y-58407380D01*
X144486761Y-58407380D01*
X144391523Y-58455000D01*
X144343904Y-58502619D01*
X144296285Y-58597857D01*
X144296285Y-58645476D01*
X144343904Y-58740714D01*
X144391523Y-58788333D01*
X144486761Y-58835952D01*
X144677238Y-58835952D01*
X144772476Y-58883571D01*
X144820095Y-58931190D01*
X144867714Y-59026428D01*
X144867714Y-59216904D01*
X144820095Y-59312142D01*
X144772476Y-59359761D01*
X144677238Y-59407380D01*
X144486761Y-59407380D01*
X144391523Y-59359761D01*
X144343904Y-59312142D01*
X144296285Y-59216904D01*
X144296285Y-59026428D01*
X144343904Y-58931190D01*
X144391523Y-58883571D01*
X144486761Y-58835952D01*
X122071142Y-52946333D02*
X122118761Y-52898714D01*
X122166380Y-52755857D01*
X122166380Y-52660619D01*
X122118761Y-52517761D01*
X122023523Y-52422523D01*
X121928285Y-52374904D01*
X121737809Y-52327285D01*
X121594952Y-52327285D01*
X121404476Y-52374904D01*
X121309238Y-52422523D01*
X121214000Y-52517761D01*
X121166380Y-52660619D01*
X121166380Y-52755857D01*
X121214000Y-52898714D01*
X121261619Y-52946333D01*
X122166380Y-53422523D02*
X122166380Y-53613000D01*
X122118761Y-53708238D01*
X122071142Y-53755857D01*
X121928285Y-53851095D01*
X121737809Y-53898714D01*
X121356857Y-53898714D01*
X121261619Y-53851095D01*
X121214000Y-53803476D01*
X121166380Y-53708238D01*
X121166380Y-53517761D01*
X121214000Y-53422523D01*
X121261619Y-53374904D01*
X121356857Y-53327285D01*
X121594952Y-53327285D01*
X121690190Y-53374904D01*
X121737809Y-53422523D01*
X121785428Y-53517761D01*
X121785428Y-53708238D01*
X121737809Y-53803476D01*
X121690190Y-53851095D01*
X121594952Y-53898714D01*
X141629142Y-56026142D02*
X141676761Y-55978523D01*
X141724380Y-55835666D01*
X141724380Y-55740428D01*
X141676761Y-55597571D01*
X141581523Y-55502333D01*
X141486285Y-55454714D01*
X141295809Y-55407095D01*
X141152952Y-55407095D01*
X140962476Y-55454714D01*
X140867238Y-55502333D01*
X140772000Y-55597571D01*
X140724380Y-55740428D01*
X140724380Y-55835666D01*
X140772000Y-55978523D01*
X140819619Y-56026142D01*
X141724380Y-56978523D02*
X141724380Y-56407095D01*
X141724380Y-56692809D02*
X140724380Y-56692809D01*
X140867238Y-56597571D01*
X140962476Y-56502333D01*
X141010095Y-56407095D01*
X140724380Y-57597571D02*
X140724380Y-57692809D01*
X140772000Y-57788047D01*
X140819619Y-57835666D01*
X140914857Y-57883285D01*
X141105333Y-57930904D01*
X141343428Y-57930904D01*
X141533904Y-57883285D01*
X141629142Y-57835666D01*
X141676761Y-57788047D01*
X141724380Y-57692809D01*
X141724380Y-57597571D01*
X141676761Y-57502333D01*
X141629142Y-57454714D01*
X141533904Y-57407095D01*
X141343428Y-57359476D01*
X141105333Y-57359476D01*
X140914857Y-57407095D01*
X140819619Y-57454714D01*
X140772000Y-57502333D01*
X140724380Y-57597571D01*
X147875904Y-91427380D02*
X147875904Y-92236904D01*
X147828285Y-92332142D01*
X147780666Y-92379761D01*
X147685428Y-92427380D01*
X147494952Y-92427380D01*
X147399714Y-92379761D01*
X147352095Y-92332142D01*
X147304476Y-92236904D01*
X147304476Y-91427380D01*
X146352095Y-91427380D02*
X146828285Y-91427380D01*
X146875904Y-91903571D01*
X146828285Y-91855952D01*
X146733047Y-91808333D01*
X146494952Y-91808333D01*
X146399714Y-91855952D01*
X146352095Y-91903571D01*
X146304476Y-91998809D01*
X146304476Y-92236904D01*
X146352095Y-92332142D01*
X146399714Y-92379761D01*
X146494952Y-92427380D01*
X146733047Y-92427380D01*
X146828285Y-92379761D01*
X146875904Y-92332142D01*
X52332380Y-55065666D02*
X53046666Y-55065666D01*
X53189523Y-55018047D01*
X53284761Y-54922809D01*
X53332380Y-54779952D01*
X53332380Y-54684714D01*
X53332380Y-56065666D02*
X53332380Y-55494238D01*
X53332380Y-55779952D02*
X52332380Y-55779952D01*
X52475238Y-55684714D01*
X52570476Y-55589476D01*
X52618095Y-55494238D01*
X115208380Y-57833333D02*
X114732190Y-57500000D01*
X115208380Y-57261904D02*
X114208380Y-57261904D01*
X114208380Y-57642857D01*
X114256000Y-57738095D01*
X114303619Y-57785714D01*
X114398857Y-57833333D01*
X114541714Y-57833333D01*
X114636952Y-57785714D01*
X114684571Y-57738095D01*
X114732190Y-57642857D01*
X114732190Y-57261904D01*
X114541714Y-58690476D02*
X115208380Y-58690476D01*
X114160761Y-58452380D02*
X114875047Y-58214285D01*
X114875047Y-58833333D01*
X142232380Y-52438333D02*
X141756190Y-52105000D01*
X142232380Y-51866904D02*
X141232380Y-51866904D01*
X141232380Y-52247857D01*
X141280000Y-52343095D01*
X141327619Y-52390714D01*
X141422857Y-52438333D01*
X141565714Y-52438333D01*
X141660952Y-52390714D01*
X141708571Y-52343095D01*
X141756190Y-52247857D01*
X141756190Y-51866904D01*
X141232380Y-52771666D02*
X141232380Y-53390714D01*
X141613333Y-53057380D01*
X141613333Y-53200238D01*
X141660952Y-53295476D01*
X141708571Y-53343095D01*
X141803809Y-53390714D01*
X142041904Y-53390714D01*
X142137142Y-53343095D01*
X142184761Y-53295476D01*
X142232380Y-53200238D01*
X142232380Y-52914523D01*
X142184761Y-52819285D01*
X142137142Y-52771666D01*
X149249142Y-56026142D02*
X149296761Y-55978523D01*
X149344380Y-55835666D01*
X149344380Y-55740428D01*
X149296761Y-55597571D01*
X149201523Y-55502333D01*
X149106285Y-55454714D01*
X148915809Y-55407095D01*
X148772952Y-55407095D01*
X148582476Y-55454714D01*
X148487238Y-55502333D01*
X148392000Y-55597571D01*
X148344380Y-55740428D01*
X148344380Y-55835666D01*
X148392000Y-55978523D01*
X148439619Y-56026142D01*
X149344380Y-56978523D02*
X149344380Y-56407095D01*
X149344380Y-56692809D02*
X148344380Y-56692809D01*
X148487238Y-56597571D01*
X148582476Y-56502333D01*
X148630095Y-56407095D01*
X149344380Y-57930904D02*
X149344380Y-57359476D01*
X149344380Y-57645190D02*
X148344380Y-57645190D01*
X148487238Y-57549952D01*
X148582476Y-57454714D01*
X148630095Y-57359476D01*
X148998095Y-50977380D02*
X148998095Y-49977380D01*
X148760000Y-49977380D01*
X148617142Y-50025000D01*
X148521904Y-50120238D01*
X148474285Y-50215476D01*
X148426666Y-50405952D01*
X148426666Y-50548809D01*
X148474285Y-50739285D01*
X148521904Y-50834523D01*
X148617142Y-50929761D01*
X148760000Y-50977380D01*
X148998095Y-50977380D01*
X148045714Y-50072619D02*
X147998095Y-50025000D01*
X147902857Y-49977380D01*
X147664761Y-49977380D01*
X147569523Y-50025000D01*
X147521904Y-50072619D01*
X147474285Y-50167857D01*
X147474285Y-50263095D01*
X147521904Y-50405952D01*
X148093333Y-50977380D01*
X147474285Y-50977380D01*
X142010095Y-60169380D02*
X142010095Y-59169380D01*
X141772000Y-59169380D01*
X141629142Y-59217000D01*
X141533904Y-59312238D01*
X141486285Y-59407476D01*
X141438666Y-59597952D01*
X141438666Y-59740809D01*
X141486285Y-59931285D01*
X141533904Y-60026523D01*
X141629142Y-60121761D01*
X141772000Y-60169380D01*
X142010095Y-60169380D01*
X141105333Y-59169380D02*
X140486285Y-59169380D01*
X140819619Y-59550333D01*
X140676761Y-59550333D01*
X140581523Y-59597952D01*
X140533904Y-59645571D01*
X140486285Y-59740809D01*
X140486285Y-59978904D01*
X140533904Y-60074142D01*
X140581523Y-60121761D01*
X140676761Y-60169380D01*
X140962476Y-60169380D01*
X141057714Y-60121761D01*
X141105333Y-60074142D01*
X136541238Y-60010619D02*
X136636476Y-59963000D01*
X136731714Y-59867761D01*
X136874571Y-59724904D01*
X136969809Y-59677285D01*
X137065047Y-59677285D01*
X137017428Y-59915380D02*
X137112666Y-59867761D01*
X137207904Y-59772523D01*
X137255523Y-59582047D01*
X137255523Y-59248714D01*
X137207904Y-59058238D01*
X137112666Y-58963000D01*
X137017428Y-58915380D01*
X136826952Y-58915380D01*
X136731714Y-58963000D01*
X136636476Y-59058238D01*
X136588857Y-59248714D01*
X136588857Y-59582047D01*
X136636476Y-59772523D01*
X136731714Y-59867761D01*
X136826952Y-59915380D01*
X137017428Y-59915380D01*
X135636476Y-59915380D02*
X136207904Y-59915380D01*
X135922190Y-59915380D02*
X135922190Y-58915380D01*
X136017428Y-59058238D01*
X136112666Y-59153476D01*
X136207904Y-59201095D01*
X128159238Y-60518619D02*
X128254476Y-60471000D01*
X128349714Y-60375761D01*
X128492571Y-60232904D01*
X128587809Y-60185285D01*
X128683047Y-60185285D01*
X128635428Y-60423380D02*
X128730666Y-60375761D01*
X128825904Y-60280523D01*
X128873523Y-60090047D01*
X128873523Y-59756714D01*
X128825904Y-59566238D01*
X128730666Y-59471000D01*
X128635428Y-59423380D01*
X128444952Y-59423380D01*
X128349714Y-59471000D01*
X128254476Y-59566238D01*
X128206857Y-59756714D01*
X128206857Y-60090047D01*
X128254476Y-60280523D01*
X128349714Y-60375761D01*
X128444952Y-60423380D01*
X128635428Y-60423380D01*
X127825904Y-59518619D02*
X127778285Y-59471000D01*
X127683047Y-59423380D01*
X127444952Y-59423380D01*
X127349714Y-59471000D01*
X127302095Y-59518619D01*
X127254476Y-59613857D01*
X127254476Y-59709095D01*
X127302095Y-59851952D01*
X127873523Y-60423380D01*
X127254476Y-60423380D01*
X121404380Y-68948333D02*
X120928190Y-68615000D01*
X121404380Y-68376904D02*
X120404380Y-68376904D01*
X120404380Y-68757857D01*
X120452000Y-68853095D01*
X120499619Y-68900714D01*
X120594857Y-68948333D01*
X120737714Y-68948333D01*
X120832952Y-68900714D01*
X120880571Y-68853095D01*
X120928190Y-68757857D01*
X120928190Y-68376904D01*
X120404380Y-69853095D02*
X120404380Y-69376904D01*
X120880571Y-69329285D01*
X120832952Y-69376904D01*
X120785333Y-69472142D01*
X120785333Y-69710238D01*
X120832952Y-69805476D01*
X120880571Y-69853095D01*
X120975809Y-69900714D01*
X121213904Y-69900714D01*
X121309142Y-69853095D01*
X121356761Y-69805476D01*
X121404380Y-69710238D01*
X121404380Y-69472142D01*
X121356761Y-69376904D01*
X121309142Y-69329285D01*
X114208380Y-54083333D02*
X113732190Y-53750000D01*
X114208380Y-53511904D02*
X113208380Y-53511904D01*
X113208380Y-53892857D01*
X113256000Y-53988095D01*
X113303619Y-54035714D01*
X113398857Y-54083333D01*
X113541714Y-54083333D01*
X113636952Y-54035714D01*
X113684571Y-53988095D01*
X113732190Y-53892857D01*
X113732190Y-53511904D01*
X113208380Y-54940476D02*
X113208380Y-54750000D01*
X113256000Y-54654761D01*
X113303619Y-54607142D01*
X113446476Y-54511904D01*
X113636952Y-54464285D01*
X114017904Y-54464285D01*
X114113142Y-54511904D01*
X114160761Y-54559523D01*
X114208380Y-54654761D01*
X114208380Y-54845238D01*
X114160761Y-54940476D01*
X114113142Y-54988095D01*
X114017904Y-55035714D01*
X113779809Y-55035714D01*
X113684571Y-54988095D01*
X113636952Y-54940476D01*
X113589333Y-54845238D01*
X113589333Y-54654761D01*
X113636952Y-54559523D01*
X113684571Y-54511904D01*
X113779809Y-54464285D01*
X124674666Y-60423380D02*
X125008000Y-59947190D01*
X125246095Y-60423380D02*
X125246095Y-59423380D01*
X124865142Y-59423380D01*
X124769904Y-59471000D01*
X124722285Y-59518619D01*
X124674666Y-59613857D01*
X124674666Y-59756714D01*
X124722285Y-59851952D01*
X124769904Y-59899571D01*
X124865142Y-59947190D01*
X125246095Y-59947190D01*
X124103238Y-59851952D02*
X124198476Y-59804333D01*
X124246095Y-59756714D01*
X124293714Y-59661476D01*
X124293714Y-59613857D01*
X124246095Y-59518619D01*
X124198476Y-59471000D01*
X124103238Y-59423380D01*
X123912761Y-59423380D01*
X123817523Y-59471000D01*
X123769904Y-59518619D01*
X123722285Y-59613857D01*
X123722285Y-59661476D01*
X123769904Y-59756714D01*
X123817523Y-59804333D01*
X123912761Y-59851952D01*
X124103238Y-59851952D01*
X124198476Y-59899571D01*
X124246095Y-59947190D01*
X124293714Y-60042428D01*
X124293714Y-60232904D01*
X124246095Y-60328142D01*
X124198476Y-60375761D01*
X124103238Y-60423380D01*
X123912761Y-60423380D01*
X123817523Y-60375761D01*
X123769904Y-60328142D01*
X123722285Y-60232904D01*
X123722285Y-60042428D01*
X123769904Y-59947190D01*
X123817523Y-59899571D01*
X123912761Y-59851952D01*
X132834380Y-60058333D02*
X132358190Y-59725000D01*
X132834380Y-59486904D02*
X131834380Y-59486904D01*
X131834380Y-59867857D01*
X131882000Y-59963095D01*
X131929619Y-60010714D01*
X132024857Y-60058333D01*
X132167714Y-60058333D01*
X132262952Y-60010714D01*
X132310571Y-59963095D01*
X132358190Y-59867857D01*
X132358190Y-59486904D01*
X132834380Y-60534523D02*
X132834380Y-60725000D01*
X132786761Y-60820238D01*
X132739142Y-60867857D01*
X132596285Y-60963095D01*
X132405809Y-61010714D01*
X132024857Y-61010714D01*
X131929619Y-60963095D01*
X131882000Y-60915476D01*
X131834380Y-60820238D01*
X131834380Y-60629761D01*
X131882000Y-60534523D01*
X131929619Y-60486904D01*
X132024857Y-60439285D01*
X132262952Y-60439285D01*
X132358190Y-60486904D01*
X132405809Y-60534523D01*
X132453428Y-60629761D01*
X132453428Y-60820238D01*
X132405809Y-60915476D01*
X132358190Y-60963095D01*
X132262952Y-61010714D01*
X133088380Y-56788142D02*
X132612190Y-56454809D01*
X133088380Y-56216714D02*
X132088380Y-56216714D01*
X132088380Y-56597666D01*
X132136000Y-56692904D01*
X132183619Y-56740523D01*
X132278857Y-56788142D01*
X132421714Y-56788142D01*
X132516952Y-56740523D01*
X132564571Y-56692904D01*
X132612190Y-56597666D01*
X132612190Y-56216714D01*
X133088380Y-57740523D02*
X133088380Y-57169095D01*
X133088380Y-57454809D02*
X132088380Y-57454809D01*
X132231238Y-57359571D01*
X132326476Y-57264333D01*
X132374095Y-57169095D01*
X132088380Y-58359571D02*
X132088380Y-58454809D01*
X132136000Y-58550047D01*
X132183619Y-58597666D01*
X132278857Y-58645285D01*
X132469333Y-58692904D01*
X132707428Y-58692904D01*
X132897904Y-58645285D01*
X132993142Y-58597666D01*
X133040761Y-58550047D01*
X133088380Y-58454809D01*
X133088380Y-58359571D01*
X133040761Y-58264333D01*
X132993142Y-58216714D01*
X132897904Y-58169095D01*
X132707428Y-58121476D01*
X132469333Y-58121476D01*
X132278857Y-58169095D01*
X132183619Y-58216714D01*
X132136000Y-58264333D01*
X132088380Y-58359571D01*
X125976380Y-52978142D02*
X125500190Y-52644809D01*
X125976380Y-52406714D02*
X124976380Y-52406714D01*
X124976380Y-52787666D01*
X125024000Y-52882904D01*
X125071619Y-52930523D01*
X125166857Y-52978142D01*
X125309714Y-52978142D01*
X125404952Y-52930523D01*
X125452571Y-52882904D01*
X125500190Y-52787666D01*
X125500190Y-52406714D01*
X125976380Y-53930523D02*
X125976380Y-53359095D01*
X125976380Y-53644809D02*
X124976380Y-53644809D01*
X125119238Y-53549571D01*
X125214476Y-53454333D01*
X125262095Y-53359095D01*
X125976380Y-54882904D02*
X125976380Y-54311476D01*
X125976380Y-54597190D02*
X124976380Y-54597190D01*
X125119238Y-54501952D01*
X125214476Y-54406714D01*
X125262095Y-54311476D01*
X138402380Y-54052142D02*
X137926190Y-53718809D01*
X138402380Y-53480714D02*
X137402380Y-53480714D01*
X137402380Y-53861666D01*
X137450000Y-53956904D01*
X137497619Y-54004523D01*
X137592857Y-54052142D01*
X137735714Y-54052142D01*
X137830952Y-54004523D01*
X137878571Y-53956904D01*
X137926190Y-53861666D01*
X137926190Y-53480714D01*
X138402380Y-55004523D02*
X138402380Y-54433095D01*
X138402380Y-54718809D02*
X137402380Y-54718809D01*
X137545238Y-54623571D01*
X137640476Y-54528333D01*
X137688095Y-54433095D01*
X137497619Y-55385476D02*
X137450000Y-55433095D01*
X137402380Y-55528333D01*
X137402380Y-55766428D01*
X137450000Y-55861666D01*
X137497619Y-55909285D01*
X137592857Y-55956904D01*
X137688095Y-55956904D01*
X137830952Y-55909285D01*
X138402380Y-55337857D01*
X138402380Y-55956904D01*
X133342380Y-52724142D02*
X132866190Y-52390809D01*
X133342380Y-52152714D02*
X132342380Y-52152714D01*
X132342380Y-52533666D01*
X132390000Y-52628904D01*
X132437619Y-52676523D01*
X132532857Y-52724142D01*
X132675714Y-52724142D01*
X132770952Y-52676523D01*
X132818571Y-52628904D01*
X132866190Y-52533666D01*
X132866190Y-52152714D01*
X133342380Y-53676523D02*
X133342380Y-53105095D01*
X133342380Y-53390809D02*
X132342380Y-53390809D01*
X132485238Y-53295571D01*
X132580476Y-53200333D01*
X132628095Y-53105095D01*
X132342380Y-54009857D02*
X132342380Y-54628904D01*
X132723333Y-54295571D01*
X132723333Y-54438428D01*
X132770952Y-54533666D01*
X132818571Y-54581285D01*
X132913809Y-54628904D01*
X133151904Y-54628904D01*
X133247142Y-54581285D01*
X133294761Y-54533666D01*
X133342380Y-54438428D01*
X133342380Y-54152714D01*
X133294761Y-54057476D01*
X133247142Y-54009857D01*
X145534380Y-49834904D02*
X144534380Y-49834904D01*
X144534380Y-50073000D01*
X144582000Y-50215857D01*
X144677238Y-50311095D01*
X144772476Y-50358714D01*
X144962952Y-50406333D01*
X145105809Y-50406333D01*
X145296285Y-50358714D01*
X145391523Y-50311095D01*
X145486761Y-50215857D01*
X145534380Y-50073000D01*
X145534380Y-49834904D01*
X144867714Y-51263476D02*
X145534380Y-51263476D01*
X144486761Y-51025380D02*
X145201047Y-50787285D01*
X145201047Y-51406333D01*
X125055619Y-74353761D02*
X125008000Y-74258523D01*
X124912761Y-74163285D01*
X124769904Y-74020428D01*
X124722285Y-73925190D01*
X124722285Y-73829952D01*
X124960380Y-73877571D02*
X124912761Y-73782333D01*
X124817523Y-73687095D01*
X124627047Y-73639476D01*
X124293714Y-73639476D01*
X124103238Y-73687095D01*
X124008000Y-73782333D01*
X123960380Y-73877571D01*
X123960380Y-74068047D01*
X124008000Y-74163285D01*
X124103238Y-74258523D01*
X124293714Y-74306142D01*
X124627047Y-74306142D01*
X124817523Y-74258523D01*
X124912761Y-74163285D01*
X124960380Y-74068047D01*
X124960380Y-73877571D01*
X123960380Y-74639476D02*
X123960380Y-75258523D01*
X124341333Y-74925190D01*
X124341333Y-75068047D01*
X124388952Y-75163285D01*
X124436571Y-75210904D01*
X124531809Y-75258523D01*
X124769904Y-75258523D01*
X124865142Y-75210904D01*
X124912761Y-75163285D01*
X124960380Y-75068047D01*
X124960380Y-74782333D01*
X124912761Y-74687095D01*
X124865142Y-74639476D01*
X131310380Y-52724142D02*
X130834190Y-52390809D01*
X131310380Y-52152714D02*
X130310380Y-52152714D01*
X130310380Y-52533666D01*
X130358000Y-52628904D01*
X130405619Y-52676523D01*
X130500857Y-52724142D01*
X130643714Y-52724142D01*
X130738952Y-52676523D01*
X130786571Y-52628904D01*
X130834190Y-52533666D01*
X130834190Y-52152714D01*
X131310380Y-53676523D02*
X131310380Y-53105095D01*
X131310380Y-53390809D02*
X130310380Y-53390809D01*
X130453238Y-53295571D01*
X130548476Y-53200333D01*
X130596095Y-53105095D01*
X130643714Y-54533666D02*
X131310380Y-54533666D01*
X130262761Y-54295571D02*
X130977047Y-54057476D01*
X130977047Y-54676523D01*
X66572095Y-103857380D02*
X66572095Y-102857380D01*
X66191142Y-102857380D01*
X66095904Y-102905000D01*
X66048285Y-102952619D01*
X66000666Y-103047857D01*
X66000666Y-103190714D01*
X66048285Y-103285952D01*
X66095904Y-103333571D01*
X66191142Y-103381190D01*
X66572095Y-103381190D01*
X65667333Y-102857380D02*
X65048285Y-102857380D01*
X65381619Y-103238333D01*
X65238761Y-103238333D01*
X65143523Y-103285952D01*
X65095904Y-103333571D01*
X65048285Y-103428809D01*
X65048285Y-103666904D01*
X65095904Y-103762142D01*
X65143523Y-103809761D01*
X65238761Y-103857380D01*
X65524476Y-103857380D01*
X65619714Y-103809761D01*
X65667333Y-103762142D01*
X129821142Y-98603142D02*
X129868761Y-98555523D01*
X129916380Y-98412666D01*
X129916380Y-98317428D01*
X129868761Y-98174571D01*
X129773523Y-98079333D01*
X129678285Y-98031714D01*
X129487809Y-97984095D01*
X129344952Y-97984095D01*
X129154476Y-98031714D01*
X129059238Y-98079333D01*
X128964000Y-98174571D01*
X128916380Y-98317428D01*
X128916380Y-98412666D01*
X128964000Y-98555523D01*
X129011619Y-98603142D01*
X129916380Y-99555523D02*
X129916380Y-98984095D01*
X129916380Y-99269809D02*
X128916380Y-99269809D01*
X129059238Y-99174571D01*
X129154476Y-99079333D01*
X129202095Y-98984095D01*
X129011619Y-99936476D02*
X128964000Y-99984095D01*
X128916380Y-100079333D01*
X128916380Y-100317428D01*
X128964000Y-100412666D01*
X129011619Y-100460285D01*
X129106857Y-100507904D01*
X129202095Y-100507904D01*
X129344952Y-100460285D01*
X129916380Y-99888857D01*
X129916380Y-100507904D01*
X70639142Y-99111142D02*
X70686761Y-99063523D01*
X70734380Y-98920666D01*
X70734380Y-98825428D01*
X70686761Y-98682571D01*
X70591523Y-98587333D01*
X70496285Y-98539714D01*
X70305809Y-98492095D01*
X70162952Y-98492095D01*
X69972476Y-98539714D01*
X69877238Y-98587333D01*
X69782000Y-98682571D01*
X69734380Y-98825428D01*
X69734380Y-98920666D01*
X69782000Y-99063523D01*
X69829619Y-99111142D01*
X70734380Y-100063523D02*
X70734380Y-99492095D01*
X70734380Y-99777809D02*
X69734380Y-99777809D01*
X69877238Y-99682571D01*
X69972476Y-99587333D01*
X70020095Y-99492095D01*
X69734380Y-100396857D02*
X69734380Y-101015904D01*
X70115333Y-100682571D01*
X70115333Y-100825428D01*
X70162952Y-100920666D01*
X70210571Y-100968285D01*
X70305809Y-101015904D01*
X70543904Y-101015904D01*
X70639142Y-100968285D01*
X70686761Y-100920666D01*
X70734380Y-100825428D01*
X70734380Y-100539714D01*
X70686761Y-100444476D01*
X70639142Y-100396857D01*
X87844666Y-46104142D02*
X87892285Y-46151761D01*
X88035142Y-46199380D01*
X88130380Y-46199380D01*
X88273238Y-46151761D01*
X88368476Y-46056523D01*
X88416095Y-45961285D01*
X88463714Y-45770809D01*
X88463714Y-45627952D01*
X88416095Y-45437476D01*
X88368476Y-45342238D01*
X88273238Y-45247000D01*
X88130380Y-45199380D01*
X88035142Y-45199380D01*
X87892285Y-45247000D01*
X87844666Y-45294619D01*
X86987523Y-45199380D02*
X87178000Y-45199380D01*
X87273238Y-45247000D01*
X87320857Y-45294619D01*
X87416095Y-45437476D01*
X87463714Y-45627952D01*
X87463714Y-46008904D01*
X87416095Y-46104142D01*
X87368476Y-46151761D01*
X87273238Y-46199380D01*
X87082761Y-46199380D01*
X86987523Y-46151761D01*
X86939904Y-46104142D01*
X86892285Y-46008904D01*
X86892285Y-45770809D01*
X86939904Y-45675571D01*
X86987523Y-45627952D01*
X87082761Y-45580333D01*
X87273238Y-45580333D01*
X87368476Y-45627952D01*
X87416095Y-45675571D01*
X87463714Y-45770809D01*
X99306380Y-50342904D02*
X98306380Y-50342904D01*
X98306380Y-50581000D01*
X98354000Y-50723857D01*
X98449238Y-50819095D01*
X98544476Y-50866714D01*
X98734952Y-50914333D01*
X98877809Y-50914333D01*
X99068285Y-50866714D01*
X99163523Y-50819095D01*
X99258761Y-50723857D01*
X99306380Y-50581000D01*
X99306380Y-50342904D01*
X99306380Y-51866714D02*
X99306380Y-51295285D01*
X99306380Y-51581000D02*
X98306380Y-51581000D01*
X98449238Y-51485761D01*
X98544476Y-51390523D01*
X98592095Y-51295285D01*
X81581904Y-67551380D02*
X81581904Y-68360904D01*
X81534285Y-68456142D01*
X81486666Y-68503761D01*
X81391428Y-68551380D01*
X81200952Y-68551380D01*
X81105714Y-68503761D01*
X81058095Y-68456142D01*
X81010476Y-68360904D01*
X81010476Y-67551380D01*
X80010476Y-68551380D02*
X80581904Y-68551380D01*
X80296190Y-68551380D02*
X80296190Y-67551380D01*
X80391428Y-67694238D01*
X80486666Y-67789476D01*
X80581904Y-67837095D01*
X102862380Y-138449142D02*
X102386190Y-138115809D01*
X102862380Y-137877714D02*
X101862380Y-137877714D01*
X101862380Y-138258666D01*
X101910000Y-138353904D01*
X101957619Y-138401523D01*
X102052857Y-138449142D01*
X102195714Y-138449142D01*
X102290952Y-138401523D01*
X102338571Y-138353904D01*
X102386190Y-138258666D01*
X102386190Y-137877714D01*
X102862380Y-139401523D02*
X102862380Y-138830095D01*
X102862380Y-139115809D02*
X101862380Y-139115809D01*
X102005238Y-139020571D01*
X102100476Y-138925333D01*
X102148095Y-138830095D01*
X102290952Y-139972952D02*
X102243333Y-139877714D01*
X102195714Y-139830095D01*
X102100476Y-139782476D01*
X102052857Y-139782476D01*
X101957619Y-139830095D01*
X101910000Y-139877714D01*
X101862380Y-139972952D01*
X101862380Y-140163428D01*
X101910000Y-140258666D01*
X101957619Y-140306285D01*
X102052857Y-140353904D01*
X102100476Y-140353904D01*
X102195714Y-140306285D01*
X102243333Y-140258666D01*
X102290952Y-140163428D01*
X102290952Y-139972952D01*
X102338571Y-139877714D01*
X102386190Y-139830095D01*
X102481428Y-139782476D01*
X102671904Y-139782476D01*
X102767142Y-139830095D01*
X102814761Y-139877714D01*
X102862380Y-139972952D01*
X102862380Y-140163428D01*
X102814761Y-140258666D01*
X102767142Y-140306285D01*
X102671904Y-140353904D01*
X102481428Y-140353904D01*
X102386190Y-140306285D01*
X102338571Y-140258666D01*
X102290952Y-140163428D01*
X100449380Y-138322142D02*
X99973190Y-137988809D01*
X100449380Y-137750714D02*
X99449380Y-137750714D01*
X99449380Y-138131666D01*
X99497000Y-138226904D01*
X99544619Y-138274523D01*
X99639857Y-138322142D01*
X99782714Y-138322142D01*
X99877952Y-138274523D01*
X99925571Y-138226904D01*
X99973190Y-138131666D01*
X99973190Y-137750714D01*
X100449380Y-139274523D02*
X100449380Y-138703095D01*
X100449380Y-138988809D02*
X99449380Y-138988809D01*
X99592238Y-138893571D01*
X99687476Y-138798333D01*
X99735095Y-138703095D01*
X100449380Y-139750714D02*
X100449380Y-139941190D01*
X100401761Y-140036428D01*
X100354142Y-140084047D01*
X100211285Y-140179285D01*
X100020809Y-140226904D01*
X99639857Y-140226904D01*
X99544619Y-140179285D01*
X99497000Y-140131666D01*
X99449380Y-140036428D01*
X99449380Y-139845952D01*
X99497000Y-139750714D01*
X99544619Y-139703095D01*
X99639857Y-139655476D01*
X99877952Y-139655476D01*
X99973190Y-139703095D01*
X100020809Y-139750714D01*
X100068428Y-139845952D01*
X100068428Y-140036428D01*
X100020809Y-140131666D01*
X99973190Y-140179285D01*
X99877952Y-140226904D01*
X95682380Y-136798142D02*
X95206190Y-136464809D01*
X95682380Y-136226714D02*
X94682380Y-136226714D01*
X94682380Y-136607666D01*
X94730000Y-136702904D01*
X94777619Y-136750523D01*
X94872857Y-136798142D01*
X95015714Y-136798142D01*
X95110952Y-136750523D01*
X95158571Y-136702904D01*
X95206190Y-136607666D01*
X95206190Y-136226714D01*
X94777619Y-137179095D02*
X94730000Y-137226714D01*
X94682380Y-137321952D01*
X94682380Y-137560047D01*
X94730000Y-137655285D01*
X94777619Y-137702904D01*
X94872857Y-137750523D01*
X94968095Y-137750523D01*
X95110952Y-137702904D01*
X95682380Y-137131476D01*
X95682380Y-137750523D01*
X94682380Y-138369571D02*
X94682380Y-138464809D01*
X94730000Y-138560047D01*
X94777619Y-138607666D01*
X94872857Y-138655285D01*
X95063333Y-138702904D01*
X95301428Y-138702904D01*
X95491904Y-138655285D01*
X95587142Y-138607666D01*
X95634761Y-138560047D01*
X95682380Y-138464809D01*
X95682380Y-138369571D01*
X95634761Y-138274333D01*
X95587142Y-138226714D01*
X95491904Y-138179095D01*
X95301428Y-138131476D01*
X95063333Y-138131476D01*
X94872857Y-138179095D01*
X94777619Y-138226714D01*
X94730000Y-138274333D01*
X94682380Y-138369571D01*
X95682380Y-133369142D02*
X95206190Y-133035809D01*
X95682380Y-132797714D02*
X94682380Y-132797714D01*
X94682380Y-133178666D01*
X94730000Y-133273904D01*
X94777619Y-133321523D01*
X94872857Y-133369142D01*
X95015714Y-133369142D01*
X95110952Y-133321523D01*
X95158571Y-133273904D01*
X95206190Y-133178666D01*
X95206190Y-132797714D01*
X94777619Y-133750095D02*
X94730000Y-133797714D01*
X94682380Y-133892952D01*
X94682380Y-134131047D01*
X94730000Y-134226285D01*
X94777619Y-134273904D01*
X94872857Y-134321523D01*
X94968095Y-134321523D01*
X95110952Y-134273904D01*
X95682380Y-133702476D01*
X95682380Y-134321523D01*
X95682380Y-135273904D02*
X95682380Y-134702476D01*
X95682380Y-134988190D02*
X94682380Y-134988190D01*
X94825238Y-134892952D01*
X94920476Y-134797714D01*
X94968095Y-134702476D01*
X74215904Y-107302380D02*
X74215904Y-108111904D01*
X74168285Y-108207142D01*
X74120666Y-108254761D01*
X74025428Y-108302380D01*
X73834952Y-108302380D01*
X73739714Y-108254761D01*
X73692095Y-108207142D01*
X73644476Y-108111904D01*
X73644476Y-107302380D01*
X73215904Y-107397619D02*
X73168285Y-107350000D01*
X73073047Y-107302380D01*
X72834952Y-107302380D01*
X72739714Y-107350000D01*
X72692095Y-107397619D01*
X72644476Y-107492857D01*
X72644476Y-107588095D01*
X72692095Y-107730952D01*
X73263523Y-108302380D01*
X72644476Y-108302380D01*
X126793904Y-107556380D02*
X126793904Y-108365904D01*
X126746285Y-108461142D01*
X126698666Y-108508761D01*
X126603428Y-108556380D01*
X126412952Y-108556380D01*
X126317714Y-108508761D01*
X126270095Y-108461142D01*
X126222476Y-108365904D01*
X126222476Y-107556380D01*
X125317714Y-107889714D02*
X125317714Y-108556380D01*
X125555809Y-107508761D02*
X125793904Y-108223047D01*
X125174857Y-108223047D01*
X144200857Y-104338142D02*
X144248476Y-104385761D01*
X144391333Y-104433380D01*
X144486571Y-104433380D01*
X144629428Y-104385761D01*
X144724666Y-104290523D01*
X144772285Y-104195285D01*
X144819904Y-104004809D01*
X144819904Y-103861952D01*
X144772285Y-103671476D01*
X144724666Y-103576238D01*
X144629428Y-103481000D01*
X144486571Y-103433380D01*
X144391333Y-103433380D01*
X144248476Y-103481000D01*
X144200857Y-103528619D01*
X143248476Y-104433380D02*
X143819904Y-104433380D01*
X143534190Y-104433380D02*
X143534190Y-103433380D01*
X143629428Y-103576238D01*
X143724666Y-103671476D01*
X143819904Y-103719095D01*
X142391333Y-103766714D02*
X142391333Y-104433380D01*
X142629428Y-103385761D02*
X142867523Y-104100047D01*
X142248476Y-104100047D01*
X139216095Y-100682380D02*
X139216095Y-99682380D01*
X138978000Y-99682380D01*
X138835142Y-99730000D01*
X138739904Y-99825238D01*
X138692285Y-99920476D01*
X138644666Y-100110952D01*
X138644666Y-100253809D01*
X138692285Y-100444285D01*
X138739904Y-100539523D01*
X138835142Y-100634761D01*
X138978000Y-100682380D01*
X139216095Y-100682380D01*
X137739904Y-99682380D02*
X138216095Y-99682380D01*
X138263714Y-100158571D01*
X138216095Y-100110952D01*
X138120857Y-100063333D01*
X137882761Y-100063333D01*
X137787523Y-100110952D01*
X137739904Y-100158571D01*
X137692285Y-100253809D01*
X137692285Y-100491904D01*
X137739904Y-100587142D01*
X137787523Y-100634761D01*
X137882761Y-100682380D01*
X138120857Y-100682380D01*
X138216095Y-100634761D01*
X138263714Y-100587142D01*
X141621238Y-87696619D02*
X141716476Y-87649000D01*
X141811714Y-87553761D01*
X141954571Y-87410904D01*
X142049809Y-87363285D01*
X142145047Y-87363285D01*
X142097428Y-87601380D02*
X142192666Y-87553761D01*
X142287904Y-87458523D01*
X142335523Y-87268047D01*
X142335523Y-86934714D01*
X142287904Y-86744238D01*
X142192666Y-86649000D01*
X142097428Y-86601380D01*
X141906952Y-86601380D01*
X141811714Y-86649000D01*
X141716476Y-86744238D01*
X141668857Y-86934714D01*
X141668857Y-87268047D01*
X141716476Y-87458523D01*
X141811714Y-87553761D01*
X141906952Y-87601380D01*
X142097428Y-87601380D01*
X140764095Y-86601380D02*
X141240285Y-86601380D01*
X141287904Y-87077571D01*
X141240285Y-87029952D01*
X141145047Y-86982333D01*
X140906952Y-86982333D01*
X140811714Y-87029952D01*
X140764095Y-87077571D01*
X140716476Y-87172809D01*
X140716476Y-87410904D01*
X140764095Y-87506142D01*
X140811714Y-87553761D01*
X140906952Y-87601380D01*
X141145047Y-87601380D01*
X141240285Y-87553761D01*
X141287904Y-87506142D01*
X147717238Y-88966619D02*
X147812476Y-88919000D01*
X147907714Y-88823761D01*
X148050571Y-88680904D01*
X148145809Y-88633285D01*
X148241047Y-88633285D01*
X148193428Y-88871380D02*
X148288666Y-88823761D01*
X148383904Y-88728523D01*
X148431523Y-88538047D01*
X148431523Y-88204714D01*
X148383904Y-88014238D01*
X148288666Y-87919000D01*
X148193428Y-87871380D01*
X148002952Y-87871380D01*
X147907714Y-87919000D01*
X147812476Y-88014238D01*
X147764857Y-88204714D01*
X147764857Y-88538047D01*
X147812476Y-88728523D01*
X147907714Y-88823761D01*
X148002952Y-88871380D01*
X148193428Y-88871380D01*
X146907714Y-87871380D02*
X147098190Y-87871380D01*
X147193428Y-87919000D01*
X147241047Y-87966619D01*
X147336285Y-88109476D01*
X147383904Y-88299952D01*
X147383904Y-88680904D01*
X147336285Y-88776142D01*
X147288666Y-88823761D01*
X147193428Y-88871380D01*
X147002952Y-88871380D01*
X146907714Y-88823761D01*
X146860095Y-88776142D01*
X146812476Y-88680904D01*
X146812476Y-88442809D01*
X146860095Y-88347571D01*
X146907714Y-88299952D01*
X147002952Y-88252333D01*
X147193428Y-88252333D01*
X147288666Y-88299952D01*
X147336285Y-88347571D01*
X147383904Y-88442809D01*
X135017238Y-88966619D02*
X135112476Y-88919000D01*
X135207714Y-88823761D01*
X135350571Y-88680904D01*
X135445809Y-88633285D01*
X135541047Y-88633285D01*
X135493428Y-88871380D02*
X135588666Y-88823761D01*
X135683904Y-88728523D01*
X135731523Y-88538047D01*
X135731523Y-88204714D01*
X135683904Y-88014238D01*
X135588666Y-87919000D01*
X135493428Y-87871380D01*
X135302952Y-87871380D01*
X135207714Y-87919000D01*
X135112476Y-88014238D01*
X135064857Y-88204714D01*
X135064857Y-88538047D01*
X135112476Y-88728523D01*
X135207714Y-88823761D01*
X135302952Y-88871380D01*
X135493428Y-88871380D01*
X134731523Y-87871380D02*
X134064857Y-87871380D01*
X134493428Y-88871380D01*
X66572095Y-108937380D02*
X66572095Y-107937380D01*
X66191142Y-107937380D01*
X66095904Y-107985000D01*
X66048285Y-108032619D01*
X66000666Y-108127857D01*
X66000666Y-108270714D01*
X66048285Y-108365952D01*
X66095904Y-108413571D01*
X66191142Y-108461190D01*
X66572095Y-108461190D01*
X65667333Y-107937380D02*
X65000666Y-107937380D01*
X65429238Y-108937380D01*
X66572095Y-96237380D02*
X66572095Y-95237380D01*
X66191142Y-95237380D01*
X66095904Y-95285000D01*
X66048285Y-95332619D01*
X66000666Y-95427857D01*
X66000666Y-95570714D01*
X66048285Y-95665952D01*
X66095904Y-95713571D01*
X66191142Y-95761190D01*
X66572095Y-95761190D01*
X65429238Y-95665952D02*
X65524476Y-95618333D01*
X65572095Y-95570714D01*
X65619714Y-95475476D01*
X65619714Y-95427857D01*
X65572095Y-95332619D01*
X65524476Y-95285000D01*
X65429238Y-95237380D01*
X65238761Y-95237380D01*
X65143523Y-95285000D01*
X65095904Y-95332619D01*
X65048285Y-95427857D01*
X65048285Y-95475476D01*
X65095904Y-95570714D01*
X65143523Y-95618333D01*
X65238761Y-95665952D01*
X65429238Y-95665952D01*
X65524476Y-95713571D01*
X65572095Y-95761190D01*
X65619714Y-95856428D01*
X65619714Y-96046904D01*
X65572095Y-96142142D01*
X65524476Y-96189761D01*
X65429238Y-96237380D01*
X65238761Y-96237380D01*
X65143523Y-96189761D01*
X65095904Y-96142142D01*
X65048285Y-96046904D01*
X65048285Y-95856428D01*
X65095904Y-95761190D01*
X65143523Y-95713571D01*
X65238761Y-95665952D01*
X66572095Y-93697380D02*
X66572095Y-92697380D01*
X66191142Y-92697380D01*
X66095904Y-92745000D01*
X66048285Y-92792619D01*
X66000666Y-92887857D01*
X66000666Y-93030714D01*
X66048285Y-93125952D01*
X66095904Y-93173571D01*
X66191142Y-93221190D01*
X66572095Y-93221190D01*
X65524476Y-93697380D02*
X65334000Y-93697380D01*
X65238761Y-93649761D01*
X65191142Y-93602142D01*
X65095904Y-93459285D01*
X65048285Y-93268809D01*
X65048285Y-92887857D01*
X65095904Y-92792619D01*
X65143523Y-92745000D01*
X65238761Y-92697380D01*
X65429238Y-92697380D01*
X65524476Y-92745000D01*
X65572095Y-92792619D01*
X65619714Y-92887857D01*
X65619714Y-93125952D01*
X65572095Y-93221190D01*
X65524476Y-93268809D01*
X65429238Y-93316428D01*
X65238761Y-93316428D01*
X65143523Y-93268809D01*
X65095904Y-93221190D01*
X65048285Y-93125952D01*
X66540285Y-106397380D02*
X66540285Y-105397380D01*
X66159333Y-105397380D01*
X66064095Y-105445000D01*
X66016476Y-105492619D01*
X65968857Y-105587857D01*
X65968857Y-105730714D01*
X66016476Y-105825952D01*
X66064095Y-105873571D01*
X66159333Y-105921190D01*
X66540285Y-105921190D01*
X65016476Y-106397380D02*
X65587904Y-106397380D01*
X65302190Y-106397380D02*
X65302190Y-105397380D01*
X65397428Y-105540238D01*
X65492666Y-105635476D01*
X65587904Y-105683095D01*
X64397428Y-105397380D02*
X64302190Y-105397380D01*
X64206952Y-105445000D01*
X64159333Y-105492619D01*
X64111714Y-105587857D01*
X64064095Y-105778333D01*
X64064095Y-106016428D01*
X64111714Y-106206904D01*
X64159333Y-106302142D01*
X64206952Y-106349761D01*
X64302190Y-106397380D01*
X64397428Y-106397380D01*
X64492666Y-106349761D01*
X64540285Y-106302142D01*
X64587904Y-106206904D01*
X64635523Y-106016428D01*
X64635523Y-105778333D01*
X64587904Y-105587857D01*
X64540285Y-105492619D01*
X64492666Y-105445000D01*
X64397428Y-105397380D01*
X66540285Y-98777380D02*
X66540285Y-97777380D01*
X66159333Y-97777380D01*
X66064095Y-97825000D01*
X66016476Y-97872619D01*
X65968857Y-97967857D01*
X65968857Y-98110714D01*
X66016476Y-98205952D01*
X66064095Y-98253571D01*
X66159333Y-98301190D01*
X66540285Y-98301190D01*
X65016476Y-98777380D02*
X65587904Y-98777380D01*
X65302190Y-98777380D02*
X65302190Y-97777380D01*
X65397428Y-97920238D01*
X65492666Y-98015476D01*
X65587904Y-98063095D01*
X64064095Y-98777380D02*
X64635523Y-98777380D01*
X64349809Y-98777380D02*
X64349809Y-97777380D01*
X64445047Y-97920238D01*
X64540285Y-98015476D01*
X64635523Y-98063095D01*
X66540285Y-101317380D02*
X66540285Y-100317380D01*
X66159333Y-100317380D01*
X66064095Y-100365000D01*
X66016476Y-100412619D01*
X65968857Y-100507857D01*
X65968857Y-100650714D01*
X66016476Y-100745952D01*
X66064095Y-100793571D01*
X66159333Y-100841190D01*
X66540285Y-100841190D01*
X65016476Y-101317380D02*
X65587904Y-101317380D01*
X65302190Y-101317380D02*
X65302190Y-100317380D01*
X65397428Y-100460238D01*
X65492666Y-100555476D01*
X65587904Y-100603095D01*
X64635523Y-100412619D02*
X64587904Y-100365000D01*
X64492666Y-100317380D01*
X64254571Y-100317380D01*
X64159333Y-100365000D01*
X64111714Y-100412619D01*
X64064095Y-100507857D01*
X64064095Y-100603095D01*
X64111714Y-100745952D01*
X64683142Y-101317380D01*
X64064095Y-101317380D01*
X136676095Y-74139380D02*
X136676095Y-73139380D01*
X136295142Y-73139380D01*
X136199904Y-73187000D01*
X136152285Y-73234619D01*
X136104666Y-73329857D01*
X136104666Y-73472714D01*
X136152285Y-73567952D01*
X136199904Y-73615571D01*
X136295142Y-73663190D01*
X136676095Y-73663190D01*
X135723714Y-73234619D02*
X135676095Y-73187000D01*
X135580857Y-73139380D01*
X135342761Y-73139380D01*
X135247523Y-73187000D01*
X135199904Y-73234619D01*
X135152285Y-73329857D01*
X135152285Y-73425095D01*
X135199904Y-73567952D01*
X135771333Y-74139380D01*
X135152285Y-74139380D01*
X141978380Y-81172142D02*
X141502190Y-80838809D01*
X141978380Y-80600714D02*
X140978380Y-80600714D01*
X140978380Y-80981666D01*
X141026000Y-81076904D01*
X141073619Y-81124523D01*
X141168857Y-81172142D01*
X141311714Y-81172142D01*
X141406952Y-81124523D01*
X141454571Y-81076904D01*
X141502190Y-80981666D01*
X141502190Y-80600714D01*
X141073619Y-81553095D02*
X141026000Y-81600714D01*
X140978380Y-81695952D01*
X140978380Y-81934047D01*
X141026000Y-82029285D01*
X141073619Y-82076904D01*
X141168857Y-82124523D01*
X141264095Y-82124523D01*
X141406952Y-82076904D01*
X141978380Y-81505476D01*
X141978380Y-82124523D01*
X140978380Y-82457857D02*
X140978380Y-83076904D01*
X141359333Y-82743571D01*
X141359333Y-82886428D01*
X141406952Y-82981666D01*
X141454571Y-83029285D01*
X141549809Y-83076904D01*
X141787904Y-83076904D01*
X141883142Y-83029285D01*
X141930761Y-82981666D01*
X141978380Y-82886428D01*
X141978380Y-82600714D01*
X141930761Y-82505476D01*
X141883142Y-82457857D01*
X135882380Y-97555142D02*
X135406190Y-97221809D01*
X135882380Y-96983714D02*
X134882380Y-96983714D01*
X134882380Y-97364666D01*
X134930000Y-97459904D01*
X134977619Y-97507523D01*
X135072857Y-97555142D01*
X135215714Y-97555142D01*
X135310952Y-97507523D01*
X135358571Y-97459904D01*
X135406190Y-97364666D01*
X135406190Y-96983714D01*
X134977619Y-97936095D02*
X134930000Y-97983714D01*
X134882380Y-98078952D01*
X134882380Y-98317047D01*
X134930000Y-98412285D01*
X134977619Y-98459904D01*
X135072857Y-98507523D01*
X135168095Y-98507523D01*
X135310952Y-98459904D01*
X135882380Y-97888476D01*
X135882380Y-98507523D01*
X135215714Y-99364666D02*
X135882380Y-99364666D01*
X134834761Y-99126571D02*
X135549047Y-98888476D01*
X135549047Y-99507523D01*
X145280380Y-81172142D02*
X144804190Y-80838809D01*
X145280380Y-80600714D02*
X144280380Y-80600714D01*
X144280380Y-80981666D01*
X144328000Y-81076904D01*
X144375619Y-81124523D01*
X144470857Y-81172142D01*
X144613714Y-81172142D01*
X144708952Y-81124523D01*
X144756571Y-81076904D01*
X144804190Y-80981666D01*
X144804190Y-80600714D01*
X144375619Y-81553095D02*
X144328000Y-81600714D01*
X144280380Y-81695952D01*
X144280380Y-81934047D01*
X144328000Y-82029285D01*
X144375619Y-82076904D01*
X144470857Y-82124523D01*
X144566095Y-82124523D01*
X144708952Y-82076904D01*
X145280380Y-81505476D01*
X145280380Y-82124523D01*
X144280380Y-83029285D02*
X144280380Y-82553095D01*
X144756571Y-82505476D01*
X144708952Y-82553095D01*
X144661333Y-82648333D01*
X144661333Y-82886428D01*
X144708952Y-82981666D01*
X144756571Y-83029285D01*
X144851809Y-83076904D01*
X145089904Y-83076904D01*
X145185142Y-83029285D01*
X145232761Y-82981666D01*
X145280380Y-82886428D01*
X145280380Y-82648333D01*
X145232761Y-82553095D01*
X145185142Y-82505476D01*
X147566380Y-103397142D02*
X147090190Y-103063809D01*
X147566380Y-102825714D02*
X146566380Y-102825714D01*
X146566380Y-103206666D01*
X146614000Y-103301904D01*
X146661619Y-103349523D01*
X146756857Y-103397142D01*
X146899714Y-103397142D01*
X146994952Y-103349523D01*
X147042571Y-103301904D01*
X147090190Y-103206666D01*
X147090190Y-102825714D01*
X146661619Y-103778095D02*
X146614000Y-103825714D01*
X146566380Y-103920952D01*
X146566380Y-104159047D01*
X146614000Y-104254285D01*
X146661619Y-104301904D01*
X146756857Y-104349523D01*
X146852095Y-104349523D01*
X146994952Y-104301904D01*
X147566380Y-103730476D01*
X147566380Y-104349523D01*
X146566380Y-105206666D02*
X146566380Y-105016190D01*
X146614000Y-104920952D01*
X146661619Y-104873333D01*
X146804476Y-104778095D01*
X146994952Y-104730476D01*
X147375904Y-104730476D01*
X147471142Y-104778095D01*
X147518761Y-104825714D01*
X147566380Y-104920952D01*
X147566380Y-105111428D01*
X147518761Y-105206666D01*
X147471142Y-105254285D01*
X147375904Y-105301904D01*
X147137809Y-105301904D01*
X147042571Y-105254285D01*
X146994952Y-105206666D01*
X146947333Y-105111428D01*
X146947333Y-104920952D01*
X146994952Y-104825714D01*
X147042571Y-104778095D01*
X147137809Y-104730476D01*
X137152380Y-81172142D02*
X136676190Y-80838809D01*
X137152380Y-80600714D02*
X136152380Y-80600714D01*
X136152380Y-80981666D01*
X136200000Y-81076904D01*
X136247619Y-81124523D01*
X136342857Y-81172142D01*
X136485714Y-81172142D01*
X136580952Y-81124523D01*
X136628571Y-81076904D01*
X136676190Y-80981666D01*
X136676190Y-80600714D01*
X136247619Y-81553095D02*
X136200000Y-81600714D01*
X136152380Y-81695952D01*
X136152380Y-81934047D01*
X136200000Y-82029285D01*
X136247619Y-82076904D01*
X136342857Y-82124523D01*
X136438095Y-82124523D01*
X136580952Y-82076904D01*
X137152380Y-81505476D01*
X137152380Y-82124523D01*
X136152380Y-82457857D02*
X136152380Y-83124523D01*
X137152380Y-82695952D01*
X139184380Y-81172142D02*
X138708190Y-80838809D01*
X139184380Y-80600714D02*
X138184380Y-80600714D01*
X138184380Y-80981666D01*
X138232000Y-81076904D01*
X138279619Y-81124523D01*
X138374857Y-81172142D01*
X138517714Y-81172142D01*
X138612952Y-81124523D01*
X138660571Y-81076904D01*
X138708190Y-80981666D01*
X138708190Y-80600714D01*
X138279619Y-81553095D02*
X138232000Y-81600714D01*
X138184380Y-81695952D01*
X138184380Y-81934047D01*
X138232000Y-82029285D01*
X138279619Y-82076904D01*
X138374857Y-82124523D01*
X138470095Y-82124523D01*
X138612952Y-82076904D01*
X139184380Y-81505476D01*
X139184380Y-82124523D01*
X138612952Y-82695952D02*
X138565333Y-82600714D01*
X138517714Y-82553095D01*
X138422476Y-82505476D01*
X138374857Y-82505476D01*
X138279619Y-82553095D01*
X138232000Y-82600714D01*
X138184380Y-82695952D01*
X138184380Y-82886428D01*
X138232000Y-82981666D01*
X138279619Y-83029285D01*
X138374857Y-83076904D01*
X138422476Y-83076904D01*
X138517714Y-83029285D01*
X138565333Y-82981666D01*
X138612952Y-82886428D01*
X138612952Y-82695952D01*
X138660571Y-82600714D01*
X138708190Y-82553095D01*
X138803428Y-82505476D01*
X138993904Y-82505476D01*
X139089142Y-82553095D01*
X139136761Y-82600714D01*
X139184380Y-82695952D01*
X139184380Y-82886428D01*
X139136761Y-82981666D01*
X139089142Y-83029285D01*
X138993904Y-83076904D01*
X138803428Y-83076904D01*
X138708190Y-83029285D01*
X138660571Y-82981666D01*
X138612952Y-82886428D01*
X147312380Y-81172142D02*
X146836190Y-80838809D01*
X147312380Y-80600714D02*
X146312380Y-80600714D01*
X146312380Y-80981666D01*
X146360000Y-81076904D01*
X146407619Y-81124523D01*
X146502857Y-81172142D01*
X146645714Y-81172142D01*
X146740952Y-81124523D01*
X146788571Y-81076904D01*
X146836190Y-80981666D01*
X146836190Y-80600714D01*
X146407619Y-81553095D02*
X146360000Y-81600714D01*
X146312380Y-81695952D01*
X146312380Y-81934047D01*
X146360000Y-82029285D01*
X146407619Y-82076904D01*
X146502857Y-82124523D01*
X146598095Y-82124523D01*
X146740952Y-82076904D01*
X147312380Y-81505476D01*
X147312380Y-82124523D01*
X147312380Y-82600714D02*
X147312380Y-82791190D01*
X147264761Y-82886428D01*
X147217142Y-82934047D01*
X147074285Y-83029285D01*
X146883809Y-83076904D01*
X146502857Y-83076904D01*
X146407619Y-83029285D01*
X146360000Y-82981666D01*
X146312380Y-82886428D01*
X146312380Y-82695952D01*
X146360000Y-82600714D01*
X146407619Y-82553095D01*
X146502857Y-82505476D01*
X146740952Y-82505476D01*
X146836190Y-82553095D01*
X146883809Y-82600714D01*
X146931428Y-82695952D01*
X146931428Y-82886428D01*
X146883809Y-82981666D01*
X146836190Y-83029285D01*
X146740952Y-83076904D01*
X118769142Y-67964142D02*
X118816761Y-67916523D01*
X118864380Y-67773666D01*
X118864380Y-67678428D01*
X118816761Y-67535571D01*
X118721523Y-67440333D01*
X118626285Y-67392714D01*
X118435809Y-67345095D01*
X118292952Y-67345095D01*
X118102476Y-67392714D01*
X118007238Y-67440333D01*
X117912000Y-67535571D01*
X117864380Y-67678428D01*
X117864380Y-67773666D01*
X117912000Y-67916523D01*
X117959619Y-67964142D01*
X118864380Y-68916523D02*
X118864380Y-68345095D01*
X118864380Y-68630809D02*
X117864380Y-68630809D01*
X118007238Y-68535571D01*
X118102476Y-68440333D01*
X118150095Y-68345095D01*
X117864380Y-69821285D02*
X117864380Y-69345095D01*
X118340571Y-69297476D01*
X118292952Y-69345095D01*
X118245333Y-69440333D01*
X118245333Y-69678428D01*
X118292952Y-69773666D01*
X118340571Y-69821285D01*
X118435809Y-69868904D01*
X118673904Y-69868904D01*
X118769142Y-69821285D01*
X118816761Y-69773666D01*
X118864380Y-69678428D01*
X118864380Y-69440333D01*
X118816761Y-69345095D01*
X118769142Y-69297476D01*
X115244857Y-68202142D02*
X115292476Y-68249761D01*
X115435333Y-68297380D01*
X115530571Y-68297380D01*
X115673428Y-68249761D01*
X115768666Y-68154523D01*
X115816285Y-68059285D01*
X115863904Y-67868809D01*
X115863904Y-67725952D01*
X115816285Y-67535476D01*
X115768666Y-67440238D01*
X115673428Y-67345000D01*
X115530571Y-67297380D01*
X115435333Y-67297380D01*
X115292476Y-67345000D01*
X115244857Y-67392619D01*
X114292476Y-68297380D02*
X114863904Y-68297380D01*
X114578190Y-68297380D02*
X114578190Y-67297380D01*
X114673428Y-67440238D01*
X114768666Y-67535476D01*
X114863904Y-67583095D01*
X113435333Y-67297380D02*
X113625809Y-67297380D01*
X113721047Y-67345000D01*
X113768666Y-67392619D01*
X113863904Y-67535476D01*
X113911523Y-67725952D01*
X113911523Y-68106904D01*
X113863904Y-68202142D01*
X113816285Y-68249761D01*
X113721047Y-68297380D01*
X113530571Y-68297380D01*
X113435333Y-68249761D01*
X113387714Y-68202142D01*
X113340095Y-68106904D01*
X113340095Y-67868809D01*
X113387714Y-67773571D01*
X113435333Y-67725952D01*
X113530571Y-67678333D01*
X113721047Y-67678333D01*
X113816285Y-67725952D01*
X113863904Y-67773571D01*
X113911523Y-67868809D01*
X109117142Y-69996142D02*
X109164761Y-69948523D01*
X109212380Y-69805666D01*
X109212380Y-69710428D01*
X109164761Y-69567571D01*
X109069523Y-69472333D01*
X108974285Y-69424714D01*
X108783809Y-69377095D01*
X108640952Y-69377095D01*
X108450476Y-69424714D01*
X108355238Y-69472333D01*
X108260000Y-69567571D01*
X108212380Y-69710428D01*
X108212380Y-69805666D01*
X108260000Y-69948523D01*
X108307619Y-69996142D01*
X109212380Y-70948523D02*
X109212380Y-70377095D01*
X109212380Y-70662809D02*
X108212380Y-70662809D01*
X108355238Y-70567571D01*
X108450476Y-70472333D01*
X108498095Y-70377095D01*
X108212380Y-71281857D02*
X108212380Y-71948523D01*
X109212380Y-71519952D01*
X119562857Y-80489380D02*
X119896190Y-80013190D01*
X120134285Y-80489380D02*
X120134285Y-79489380D01*
X119753333Y-79489380D01*
X119658095Y-79537000D01*
X119610476Y-79584619D01*
X119562857Y-79679857D01*
X119562857Y-79822714D01*
X119610476Y-79917952D01*
X119658095Y-79965571D01*
X119753333Y-80013190D01*
X120134285Y-80013190D01*
X119181904Y-79584619D02*
X119134285Y-79537000D01*
X119039047Y-79489380D01*
X118800952Y-79489380D01*
X118705714Y-79537000D01*
X118658095Y-79584619D01*
X118610476Y-79679857D01*
X118610476Y-79775095D01*
X118658095Y-79917952D01*
X119229523Y-80489380D01*
X118610476Y-80489380D01*
X118229523Y-79584619D02*
X118181904Y-79537000D01*
X118086666Y-79489380D01*
X117848571Y-79489380D01*
X117753333Y-79537000D01*
X117705714Y-79584619D01*
X117658095Y-79679857D01*
X117658095Y-79775095D01*
X117705714Y-79917952D01*
X118277142Y-80489380D01*
X117658095Y-80489380D01*
X120642380Y-74568142D02*
X120166190Y-74234809D01*
X120642380Y-73996714D02*
X119642380Y-73996714D01*
X119642380Y-74377666D01*
X119690000Y-74472904D01*
X119737619Y-74520523D01*
X119832857Y-74568142D01*
X119975714Y-74568142D01*
X120070952Y-74520523D01*
X120118571Y-74472904D01*
X120166190Y-74377666D01*
X120166190Y-73996714D01*
X119642380Y-74901476D02*
X119642380Y-75520523D01*
X120023333Y-75187190D01*
X120023333Y-75330047D01*
X120070952Y-75425285D01*
X120118571Y-75472904D01*
X120213809Y-75520523D01*
X120451904Y-75520523D01*
X120547142Y-75472904D01*
X120594761Y-75425285D01*
X120642380Y-75330047D01*
X120642380Y-75044333D01*
X120594761Y-74949095D01*
X120547142Y-74901476D01*
X119642380Y-76139571D02*
X119642380Y-76234809D01*
X119690000Y-76330047D01*
X119737619Y-76377666D01*
X119832857Y-76425285D01*
X120023333Y-76472904D01*
X120261428Y-76472904D01*
X120451904Y-76425285D01*
X120547142Y-76377666D01*
X120594761Y-76330047D01*
X120642380Y-76234809D01*
X120642380Y-76139571D01*
X120594761Y-76044333D01*
X120547142Y-75996714D01*
X120451904Y-75949095D01*
X120261428Y-75901476D01*
X120023333Y-75901476D01*
X119832857Y-75949095D01*
X119737619Y-75996714D01*
X119690000Y-76044333D01*
X119642380Y-76139571D01*
X109212380Y-73806142D02*
X108736190Y-73472809D01*
X109212380Y-73234714D02*
X108212380Y-73234714D01*
X108212380Y-73615666D01*
X108260000Y-73710904D01*
X108307619Y-73758523D01*
X108402857Y-73806142D01*
X108545714Y-73806142D01*
X108640952Y-73758523D01*
X108688571Y-73710904D01*
X108736190Y-73615666D01*
X108736190Y-73234714D01*
X108212380Y-74139476D02*
X108212380Y-74758523D01*
X108593333Y-74425190D01*
X108593333Y-74568047D01*
X108640952Y-74663285D01*
X108688571Y-74710904D01*
X108783809Y-74758523D01*
X109021904Y-74758523D01*
X109117142Y-74710904D01*
X109164761Y-74663285D01*
X109212380Y-74568047D01*
X109212380Y-74282333D01*
X109164761Y-74187095D01*
X109117142Y-74139476D01*
X109212380Y-75710904D02*
X109212380Y-75139476D01*
X109212380Y-75425190D02*
X108212380Y-75425190D01*
X108355238Y-75329952D01*
X108450476Y-75234714D01*
X108498095Y-75139476D01*
M02*
