G04 #@! TF.FileFunction,Copper,L1,Top,Signal*
%FSLAX46Y46*%
G04 Gerber Fmt 4.6, Leading zero omitted, Abs format (unit mm)*
G04 Created by KiCad (PCBNEW 0.201603210401+6634~43~ubuntu14.04.1-product) date Mon 18 Apr 2016 03:28:45 PM CEST*
%MOMM*%
G01*
G04 APERTURE LIST*
%ADD10C,0.100000*%
%ADD11C,7.000000*%
%ADD12C,1.524000*%
%ADD13R,2.999740X2.999740*%
%ADD14C,0.400000*%
%ADD15C,0.200000*%
G04 APERTURE END LIST*
D10*
D11*
X144000000Y-74500000D03*
X56000000Y-74500000D03*
X56000000Y-125500000D03*
X144000000Y-125500000D03*
D12*
X132600000Y-82400000D03*
D13*
X137250000Y-79025000D03*
D14*
X132490000Y-82480000D02*
X135970000Y-79000000D01*
X135970000Y-79000000D02*
X139500000Y-79000000D01*
X139500000Y-79000000D02*
X144000000Y-74500000D01*
D15*
G36*
X149168085Y-69594209D02*
X149310580Y-69689421D01*
X149405791Y-69831916D01*
X149450000Y-70054170D01*
X149450000Y-129945830D01*
X149405791Y-130168084D01*
X149310580Y-130310579D01*
X149168085Y-130405791D01*
X148945830Y-130450000D01*
X51054170Y-130450000D01*
X50831916Y-130405791D01*
X50689421Y-130310580D01*
X50594209Y-130168085D01*
X50550000Y-129945830D01*
X50550000Y-129045974D01*
X54433925Y-129045974D01*
X54945004Y-129333900D01*
X56492481Y-129445791D01*
X57054996Y-129333900D01*
X57566075Y-129045974D01*
X142433925Y-129045974D01*
X142945004Y-129333900D01*
X144492481Y-129445791D01*
X145054996Y-129333900D01*
X145566075Y-129045974D01*
X144000000Y-127479899D01*
X142433925Y-129045974D01*
X57566075Y-129045974D01*
X56000000Y-127479899D01*
X54433925Y-129045974D01*
X50550000Y-129045974D01*
X50550000Y-125992481D01*
X52054209Y-125992481D01*
X52166100Y-126554996D01*
X52454026Y-127066075D01*
X54020101Y-125500000D01*
X57979899Y-125500000D01*
X59545974Y-127066075D01*
X59833900Y-126554996D01*
X59874572Y-125992481D01*
X140054209Y-125992481D01*
X140166100Y-126554996D01*
X140454026Y-127066075D01*
X142020101Y-125500000D01*
X145979899Y-125500000D01*
X147545974Y-127066075D01*
X147833900Y-126554996D01*
X147945791Y-125007519D01*
X147833900Y-124445004D01*
X147545974Y-123933925D01*
X145979899Y-125500000D01*
X142020101Y-125500000D01*
X140454026Y-123933925D01*
X140166100Y-124445004D01*
X140054209Y-125992481D01*
X59874572Y-125992481D01*
X59945791Y-125007519D01*
X59833900Y-124445004D01*
X59545974Y-123933925D01*
X57979899Y-125500000D01*
X54020101Y-125500000D01*
X52454026Y-123933925D01*
X52166100Y-124445004D01*
X52054209Y-125992481D01*
X50550000Y-125992481D01*
X50550000Y-121954026D01*
X54433925Y-121954026D01*
X56000000Y-123520101D01*
X57566075Y-121954026D01*
X57054996Y-121666100D01*
X55507519Y-121554209D01*
X54945004Y-121666100D01*
X54433925Y-121954026D01*
X50550000Y-121954026D01*
X50550000Y-115929938D01*
X64850000Y-115929938D01*
X64850402Y-115938953D01*
X64930402Y-116828953D01*
X64935242Y-116851953D01*
X65225242Y-117711953D01*
X65231901Y-117727313D01*
X65521901Y-118267313D01*
X65532981Y-118283781D01*
X66062981Y-118923781D01*
X66077113Y-118937751D01*
X66757113Y-119487751D01*
X66772324Y-119497903D01*
X67362324Y-119817903D01*
X67382194Y-119826056D01*
X68142194Y-120046056D01*
X68155858Y-120048995D01*
X68785858Y-120138995D01*
X68800000Y-120140000D01*
X87675008Y-120140000D01*
X88035165Y-120546331D01*
X88040878Y-120552264D01*
X88730878Y-121212264D01*
X88740587Y-121220437D01*
X89620587Y-121870437D01*
X89631197Y-121877283D01*
X90561197Y-122397283D01*
X90577121Y-122404440D01*
X91927121Y-122874440D01*
X91939655Y-122877909D01*
X92709655Y-123037909D01*
X92720946Y-123039589D01*
X93820946Y-123139589D01*
X93830000Y-123140000D01*
X105950000Y-123140000D01*
X105952438Y-123139970D01*
X106362438Y-123129970D01*
X106369392Y-123129558D01*
X107429392Y-123029558D01*
X107443464Y-123027208D01*
X108313464Y-122817208D01*
X108325640Y-122813434D01*
X109295640Y-122443434D01*
X109304255Y-122439674D01*
X110074255Y-122059674D01*
X110084627Y-122053761D01*
X110237554Y-121954026D01*
X142433925Y-121954026D01*
X144000000Y-123520101D01*
X145566075Y-121954026D01*
X145054996Y-121666100D01*
X143507519Y-121554209D01*
X142945004Y-121666100D01*
X142433925Y-121954026D01*
X110237554Y-121954026D01*
X110774627Y-121603761D01*
X110782320Y-121598206D01*
X111422320Y-121088206D01*
X111431699Y-121079708D01*
X112131699Y-120359708D01*
X112135258Y-120355850D01*
X112315377Y-120150000D01*
X131070000Y-120150000D01*
X131080653Y-120149431D01*
X131920653Y-120059431D01*
X131943763Y-120054128D01*
X132863763Y-119724128D01*
X132885743Y-119713022D01*
X133585743Y-119243022D01*
X133600133Y-119231283D01*
X134220133Y-118621283D01*
X134235479Y-118601898D01*
X134745479Y-117761898D01*
X134752848Y-117747139D01*
X134992848Y-117147139D01*
X134999115Y-117123274D01*
X135149115Y-116003274D01*
X135150000Y-115990000D01*
X135150000Y-83850000D01*
X135149887Y-83845243D01*
X135129887Y-83425243D01*
X135126662Y-83404379D01*
X134906662Y-82574379D01*
X134900513Y-82557486D01*
X134590513Y-81897486D01*
X134579861Y-81879815D01*
X134365103Y-81594847D01*
X135272645Y-80687305D01*
X135279141Y-80719960D01*
X135389650Y-80885350D01*
X135555040Y-80995859D01*
X135750130Y-81034665D01*
X138749870Y-81034665D01*
X138944960Y-80995859D01*
X139110350Y-80885350D01*
X139220859Y-80719960D01*
X139259665Y-80524870D01*
X139259665Y-79700000D01*
X139500000Y-79700000D01*
X139767879Y-79646716D01*
X139994975Y-79494975D01*
X141666114Y-77823836D01*
X141731223Y-77889058D01*
X143200860Y-78499305D01*
X144792159Y-78500693D01*
X146262858Y-77893013D01*
X147389058Y-76768777D01*
X147999305Y-75299140D01*
X148000693Y-73707841D01*
X147393013Y-72237142D01*
X146268777Y-71110942D01*
X144799140Y-70500695D01*
X143207841Y-70499307D01*
X141737142Y-71106987D01*
X140610942Y-72231223D01*
X140000695Y-73700860D01*
X139999307Y-75292159D01*
X140606987Y-76762858D01*
X140677028Y-76833022D01*
X139259665Y-78250385D01*
X139259665Y-77525130D01*
X139220859Y-77330040D01*
X139110350Y-77164650D01*
X138944960Y-77054141D01*
X138749870Y-77015335D01*
X135750130Y-77015335D01*
X135555040Y-77054141D01*
X135389650Y-77164650D01*
X135279141Y-77330040D01*
X135240335Y-77525130D01*
X135240335Y-78739715D01*
X133369570Y-80610480D01*
X132731780Y-80224450D01*
X132710636Y-80214809D01*
X131840636Y-79934809D01*
X131819054Y-79930411D01*
X130939054Y-79850411D01*
X130930000Y-79850000D01*
X112321422Y-79850000D01*
X112303100Y-79831678D01*
X111825342Y-79284247D01*
X111813638Y-79272863D01*
X110613638Y-78282863D01*
X110601008Y-78273987D01*
X109741008Y-77763987D01*
X109727837Y-77757435D01*
X108357837Y-77197435D01*
X108340953Y-77192220D01*
X107080953Y-76922220D01*
X107066076Y-76920185D01*
X105916076Y-76850185D01*
X105909915Y-76850000D01*
X94089915Y-76860000D01*
X94088530Y-76860011D01*
X93408530Y-76870011D01*
X93396209Y-76870956D01*
X92606209Y-76980956D01*
X92597938Y-76982464D01*
X91757938Y-77172464D01*
X91745900Y-77175994D01*
X90725900Y-77545994D01*
X90710974Y-77552842D01*
X89270974Y-78362842D01*
X89256154Y-78373035D01*
X88376154Y-79103035D01*
X88364987Y-79113870D01*
X87724804Y-79840048D01*
X68839894Y-79860000D01*
X68824354Y-79861232D01*
X67814354Y-80021232D01*
X67790468Y-80028146D01*
X67000468Y-80368146D01*
X66981070Y-80379209D01*
X66131070Y-80999209D01*
X66113081Y-81016098D01*
X65573081Y-81666098D01*
X65561591Y-81683269D01*
X65191591Y-82383269D01*
X65184905Y-82399065D01*
X64914905Y-83229065D01*
X64910237Y-83253120D01*
X64870237Y-83833120D01*
X64870000Y-83839938D01*
X64850000Y-115929938D01*
X50550000Y-115929938D01*
X50550000Y-78045974D01*
X54433925Y-78045974D01*
X54945004Y-78333900D01*
X56492481Y-78445791D01*
X57054996Y-78333900D01*
X57566075Y-78045974D01*
X56000000Y-76479899D01*
X54433925Y-78045974D01*
X50550000Y-78045974D01*
X50550000Y-74992481D01*
X52054209Y-74992481D01*
X52166100Y-75554996D01*
X52454026Y-76066075D01*
X54020101Y-74500000D01*
X57979899Y-74500000D01*
X59545974Y-76066075D01*
X59833900Y-75554996D01*
X59945791Y-74007519D01*
X59833900Y-73445004D01*
X59545974Y-72933925D01*
X57979899Y-74500000D01*
X54020101Y-74500000D01*
X52454026Y-72933925D01*
X52166100Y-73445004D01*
X52054209Y-74992481D01*
X50550000Y-74992481D01*
X50550000Y-70954026D01*
X54433925Y-70954026D01*
X56000000Y-72520101D01*
X57566075Y-70954026D01*
X57054996Y-70666100D01*
X55507519Y-70554209D01*
X54945004Y-70666100D01*
X54433925Y-70954026D01*
X50550000Y-70954026D01*
X50550000Y-70054170D01*
X50594209Y-69831915D01*
X50689421Y-69689420D01*
X50831916Y-69594209D01*
X51054170Y-69550000D01*
X148945830Y-69550000D01*
X149168085Y-69594209D01*
X149168085Y-69594209D01*
G37*
X149168085Y-69594209D02*
X149310580Y-69689421D01*
X149405791Y-69831916D01*
X149450000Y-70054170D01*
X149450000Y-129945830D01*
X149405791Y-130168084D01*
X149310580Y-130310579D01*
X149168085Y-130405791D01*
X148945830Y-130450000D01*
X51054170Y-130450000D01*
X50831916Y-130405791D01*
X50689421Y-130310580D01*
X50594209Y-130168085D01*
X50550000Y-129945830D01*
X50550000Y-129045974D01*
X54433925Y-129045974D01*
X54945004Y-129333900D01*
X56492481Y-129445791D01*
X57054996Y-129333900D01*
X57566075Y-129045974D01*
X142433925Y-129045974D01*
X142945004Y-129333900D01*
X144492481Y-129445791D01*
X145054996Y-129333900D01*
X145566075Y-129045974D01*
X144000000Y-127479899D01*
X142433925Y-129045974D01*
X57566075Y-129045974D01*
X56000000Y-127479899D01*
X54433925Y-129045974D01*
X50550000Y-129045974D01*
X50550000Y-125992481D01*
X52054209Y-125992481D01*
X52166100Y-126554996D01*
X52454026Y-127066075D01*
X54020101Y-125500000D01*
X57979899Y-125500000D01*
X59545974Y-127066075D01*
X59833900Y-126554996D01*
X59874572Y-125992481D01*
X140054209Y-125992481D01*
X140166100Y-126554996D01*
X140454026Y-127066075D01*
X142020101Y-125500000D01*
X145979899Y-125500000D01*
X147545974Y-127066075D01*
X147833900Y-126554996D01*
X147945791Y-125007519D01*
X147833900Y-124445004D01*
X147545974Y-123933925D01*
X145979899Y-125500000D01*
X142020101Y-125500000D01*
X140454026Y-123933925D01*
X140166100Y-124445004D01*
X140054209Y-125992481D01*
X59874572Y-125992481D01*
X59945791Y-125007519D01*
X59833900Y-124445004D01*
X59545974Y-123933925D01*
X57979899Y-125500000D01*
X54020101Y-125500000D01*
X52454026Y-123933925D01*
X52166100Y-124445004D01*
X52054209Y-125992481D01*
X50550000Y-125992481D01*
X50550000Y-121954026D01*
X54433925Y-121954026D01*
X56000000Y-123520101D01*
X57566075Y-121954026D01*
X57054996Y-121666100D01*
X55507519Y-121554209D01*
X54945004Y-121666100D01*
X54433925Y-121954026D01*
X50550000Y-121954026D01*
X50550000Y-115929938D01*
X64850000Y-115929938D01*
X64850402Y-115938953D01*
X64930402Y-116828953D01*
X64935242Y-116851953D01*
X65225242Y-117711953D01*
X65231901Y-117727313D01*
X65521901Y-118267313D01*
X65532981Y-118283781D01*
X66062981Y-118923781D01*
X66077113Y-118937751D01*
X66757113Y-119487751D01*
X66772324Y-119497903D01*
X67362324Y-119817903D01*
X67382194Y-119826056D01*
X68142194Y-120046056D01*
X68155858Y-120048995D01*
X68785858Y-120138995D01*
X68800000Y-120140000D01*
X87675008Y-120140000D01*
X88035165Y-120546331D01*
X88040878Y-120552264D01*
X88730878Y-121212264D01*
X88740587Y-121220437D01*
X89620587Y-121870437D01*
X89631197Y-121877283D01*
X90561197Y-122397283D01*
X90577121Y-122404440D01*
X91927121Y-122874440D01*
X91939655Y-122877909D01*
X92709655Y-123037909D01*
X92720946Y-123039589D01*
X93820946Y-123139589D01*
X93830000Y-123140000D01*
X105950000Y-123140000D01*
X105952438Y-123139970D01*
X106362438Y-123129970D01*
X106369392Y-123129558D01*
X107429392Y-123029558D01*
X107443464Y-123027208D01*
X108313464Y-122817208D01*
X108325640Y-122813434D01*
X109295640Y-122443434D01*
X109304255Y-122439674D01*
X110074255Y-122059674D01*
X110084627Y-122053761D01*
X110237554Y-121954026D01*
X142433925Y-121954026D01*
X144000000Y-123520101D01*
X145566075Y-121954026D01*
X145054996Y-121666100D01*
X143507519Y-121554209D01*
X142945004Y-121666100D01*
X142433925Y-121954026D01*
X110237554Y-121954026D01*
X110774627Y-121603761D01*
X110782320Y-121598206D01*
X111422320Y-121088206D01*
X111431699Y-121079708D01*
X112131699Y-120359708D01*
X112135258Y-120355850D01*
X112315377Y-120150000D01*
X131070000Y-120150000D01*
X131080653Y-120149431D01*
X131920653Y-120059431D01*
X131943763Y-120054128D01*
X132863763Y-119724128D01*
X132885743Y-119713022D01*
X133585743Y-119243022D01*
X133600133Y-119231283D01*
X134220133Y-118621283D01*
X134235479Y-118601898D01*
X134745479Y-117761898D01*
X134752848Y-117747139D01*
X134992848Y-117147139D01*
X134999115Y-117123274D01*
X135149115Y-116003274D01*
X135150000Y-115990000D01*
X135150000Y-83850000D01*
X135149887Y-83845243D01*
X135129887Y-83425243D01*
X135126662Y-83404379D01*
X134906662Y-82574379D01*
X134900513Y-82557486D01*
X134590513Y-81897486D01*
X134579861Y-81879815D01*
X134365103Y-81594847D01*
X135272645Y-80687305D01*
X135279141Y-80719960D01*
X135389650Y-80885350D01*
X135555040Y-80995859D01*
X135750130Y-81034665D01*
X138749870Y-81034665D01*
X138944960Y-80995859D01*
X139110350Y-80885350D01*
X139220859Y-80719960D01*
X139259665Y-80524870D01*
X139259665Y-79700000D01*
X139500000Y-79700000D01*
X139767879Y-79646716D01*
X139994975Y-79494975D01*
X141666114Y-77823836D01*
X141731223Y-77889058D01*
X143200860Y-78499305D01*
X144792159Y-78500693D01*
X146262858Y-77893013D01*
X147389058Y-76768777D01*
X147999305Y-75299140D01*
X148000693Y-73707841D01*
X147393013Y-72237142D01*
X146268777Y-71110942D01*
X144799140Y-70500695D01*
X143207841Y-70499307D01*
X141737142Y-71106987D01*
X140610942Y-72231223D01*
X140000695Y-73700860D01*
X139999307Y-75292159D01*
X140606987Y-76762858D01*
X140677028Y-76833022D01*
X139259665Y-78250385D01*
X139259665Y-77525130D01*
X139220859Y-77330040D01*
X139110350Y-77164650D01*
X138944960Y-77054141D01*
X138749870Y-77015335D01*
X135750130Y-77015335D01*
X135555040Y-77054141D01*
X135389650Y-77164650D01*
X135279141Y-77330040D01*
X135240335Y-77525130D01*
X135240335Y-78739715D01*
X133369570Y-80610480D01*
X132731780Y-80224450D01*
X132710636Y-80214809D01*
X131840636Y-79934809D01*
X131819054Y-79930411D01*
X130939054Y-79850411D01*
X130930000Y-79850000D01*
X112321422Y-79850000D01*
X112303100Y-79831678D01*
X111825342Y-79284247D01*
X111813638Y-79272863D01*
X110613638Y-78282863D01*
X110601008Y-78273987D01*
X109741008Y-77763987D01*
X109727837Y-77757435D01*
X108357837Y-77197435D01*
X108340953Y-77192220D01*
X107080953Y-76922220D01*
X107066076Y-76920185D01*
X105916076Y-76850185D01*
X105909915Y-76850000D01*
X94089915Y-76860000D01*
X94088530Y-76860011D01*
X93408530Y-76870011D01*
X93396209Y-76870956D01*
X92606209Y-76980956D01*
X92597938Y-76982464D01*
X91757938Y-77172464D01*
X91745900Y-77175994D01*
X90725900Y-77545994D01*
X90710974Y-77552842D01*
X89270974Y-78362842D01*
X89256154Y-78373035D01*
X88376154Y-79103035D01*
X88364987Y-79113870D01*
X87724804Y-79840048D01*
X68839894Y-79860000D01*
X68824354Y-79861232D01*
X67814354Y-80021232D01*
X67790468Y-80028146D01*
X67000468Y-80368146D01*
X66981070Y-80379209D01*
X66131070Y-80999209D01*
X66113081Y-81016098D01*
X65573081Y-81666098D01*
X65561591Y-81683269D01*
X65191591Y-82383269D01*
X65184905Y-82399065D01*
X64914905Y-83229065D01*
X64910237Y-83253120D01*
X64870237Y-83833120D01*
X64870000Y-83839938D01*
X64850000Y-115929938D01*
X50550000Y-115929938D01*
X50550000Y-78045974D01*
X54433925Y-78045974D01*
X54945004Y-78333900D01*
X56492481Y-78445791D01*
X57054996Y-78333900D01*
X57566075Y-78045974D01*
X56000000Y-76479899D01*
X54433925Y-78045974D01*
X50550000Y-78045974D01*
X50550000Y-74992481D01*
X52054209Y-74992481D01*
X52166100Y-75554996D01*
X52454026Y-76066075D01*
X54020101Y-74500000D01*
X57979899Y-74500000D01*
X59545974Y-76066075D01*
X59833900Y-75554996D01*
X59945791Y-74007519D01*
X59833900Y-73445004D01*
X59545974Y-72933925D01*
X57979899Y-74500000D01*
X54020101Y-74500000D01*
X52454026Y-72933925D01*
X52166100Y-73445004D01*
X52054209Y-74992481D01*
X50550000Y-74992481D01*
X50550000Y-70954026D01*
X54433925Y-70954026D01*
X56000000Y-72520101D01*
X57566075Y-70954026D01*
X57054996Y-70666100D01*
X55507519Y-70554209D01*
X54945004Y-70666100D01*
X54433925Y-70954026D01*
X50550000Y-70954026D01*
X50550000Y-70054170D01*
X50594209Y-69831915D01*
X50689421Y-69689420D01*
X50831916Y-69594209D01*
X51054170Y-69550000D01*
X148945830Y-69550000D01*
X149168085Y-69594209D01*
D10*
G36*
X107151828Y-78089466D02*
X108094752Y-78317753D01*
X109137981Y-78735044D01*
X109901740Y-79181397D01*
X110755930Y-79856803D01*
X111481934Y-80642479D01*
X111740725Y-80970944D01*
X111755557Y-80983618D01*
X111779923Y-80990000D01*
X131195617Y-81019993D01*
X131984053Y-81157970D01*
X132761043Y-81551382D01*
X133222200Y-81983103D01*
X133615882Y-82534259D01*
X133911894Y-83264422D01*
X134000000Y-83704951D01*
X134000000Y-116037966D01*
X133960598Y-116520644D01*
X133773558Y-117140829D01*
X133537940Y-117582613D01*
X133074326Y-118174460D01*
X132702390Y-118468094D01*
X132120589Y-118783647D01*
X131540123Y-118960738D01*
X131147505Y-119000000D01*
X111760000Y-119000000D01*
X111740866Y-119003806D01*
X111720957Y-119018765D01*
X110924331Y-120014547D01*
X110141414Y-120648809D01*
X109027695Y-121305108D01*
X107915966Y-121761711D01*
X106575337Y-122000045D01*
X105589812Y-122010000D01*
X93912097Y-122000002D01*
X92957927Y-121920488D01*
X91875389Y-121662268D01*
X90762735Y-121205284D01*
X89809623Y-120619518D01*
X88935759Y-119864817D01*
X88380736Y-119200771D01*
X88272664Y-119023927D01*
X88259439Y-119009585D01*
X88241732Y-119001396D01*
X88230000Y-119000000D01*
X69082464Y-119000000D01*
X68280376Y-118920781D01*
X67652938Y-118714903D01*
X66914487Y-118183219D01*
X66413326Y-117573965D01*
X66098090Y-116815427D01*
X65970008Y-116165167D01*
X65990000Y-104460085D01*
X65990000Y-84000000D01*
X67500000Y-84000000D01*
X67500000Y-116000000D01*
X67509607Y-116048298D01*
X67509607Y-116097545D01*
X67585727Y-116480228D01*
X67660385Y-116660468D01*
X67877158Y-116984892D01*
X68015108Y-117122842D01*
X68339532Y-117339615D01*
X68519772Y-117414273D01*
X68902455Y-117490393D01*
X68951702Y-117490393D01*
X69000000Y-117500000D01*
X89092522Y-117500000D01*
X89236860Y-117750000D01*
X89258608Y-117774798D01*
X89273196Y-117804381D01*
X90067789Y-118839915D01*
X90129061Y-118893649D01*
X90186681Y-118951269D01*
X91808798Y-120035133D01*
X91989038Y-120109791D01*
X93902455Y-120490393D01*
X93951702Y-120490393D01*
X94000000Y-120500000D01*
X106000000Y-120500000D01*
X106032351Y-120493565D01*
X106065263Y-120495722D01*
X107359358Y-120325351D01*
X107436526Y-120299156D01*
X107515239Y-120278065D01*
X109264947Y-119415205D01*
X109264951Y-119415204D01*
X109419727Y-119296440D01*
X110706047Y-117829673D01*
X110730670Y-117787025D01*
X110763140Y-117750000D01*
X110907478Y-117500000D01*
X131000000Y-117500000D01*
X131048298Y-117490393D01*
X131097545Y-117490393D01*
X131480228Y-117414273D01*
X131660468Y-117339615D01*
X131984892Y-117122842D01*
X132122842Y-116984892D01*
X132339615Y-116660468D01*
X132414273Y-116480228D01*
X132490393Y-116097545D01*
X132490393Y-116048298D01*
X132500000Y-116000000D01*
X132500000Y-84000000D01*
X132490393Y-83951702D01*
X132490393Y-83902455D01*
X132414273Y-83519772D01*
X132339615Y-83339532D01*
X132122842Y-83015108D01*
X131984892Y-82877158D01*
X131660468Y-82660385D01*
X131480228Y-82585727D01*
X131097545Y-82509607D01*
X131048298Y-82509607D01*
X131000000Y-82500000D01*
X110907477Y-82500000D01*
X110763140Y-82250000D01*
X110741392Y-82225202D01*
X110726804Y-82195619D01*
X109932211Y-81160085D01*
X109870943Y-81106354D01*
X109813319Y-81048731D01*
X108191202Y-79964867D01*
X108010962Y-79890209D01*
X106097545Y-79509607D01*
X106048298Y-79509607D01*
X106000000Y-79500000D01*
X94000000Y-79500000D01*
X93967649Y-79506435D01*
X93934737Y-79504278D01*
X92640642Y-79674649D01*
X92563476Y-79700843D01*
X92484761Y-79721935D01*
X90735053Y-80584795D01*
X90735049Y-80584796D01*
X90580273Y-80703560D01*
X89293953Y-82170327D01*
X89269331Y-82212974D01*
X89236860Y-82250000D01*
X89092523Y-82500000D01*
X69000000Y-82500000D01*
X68951702Y-82509607D01*
X68902455Y-82509607D01*
X68519772Y-82585727D01*
X68339532Y-82660385D01*
X68015108Y-82877158D01*
X67877158Y-83015108D01*
X67660385Y-83339532D01*
X67585727Y-83519772D01*
X67509607Y-83902455D01*
X67509607Y-83951702D01*
X67500000Y-84000000D01*
X65990000Y-84000000D01*
X65990000Y-83804140D01*
X66068587Y-83332616D01*
X66315221Y-82642043D01*
X66619436Y-82161186D01*
X67052514Y-81718266D01*
X67514403Y-81393960D01*
X68164973Y-81117961D01*
X68735156Y-80999992D01*
X88240077Y-80970000D01*
X88259205Y-80966164D01*
X88278072Y-80952412D01*
X88906347Y-80214438D01*
X89680823Y-79479679D01*
X90753883Y-78804048D01*
X91636670Y-78397371D01*
X92828761Y-78099348D01*
X93852660Y-77990000D01*
X106047756Y-77990000D01*
X107151828Y-78089466D01*
X107151828Y-78089466D01*
G37*
X107151828Y-78089466D02*
X108094752Y-78317753D01*
X109137981Y-78735044D01*
X109901740Y-79181397D01*
X110755930Y-79856803D01*
X111481934Y-80642479D01*
X111740725Y-80970944D01*
X111755557Y-80983618D01*
X111779923Y-80990000D01*
X131195617Y-81019993D01*
X131984053Y-81157970D01*
X132761043Y-81551382D01*
X133222200Y-81983103D01*
X133615882Y-82534259D01*
X133911894Y-83264422D01*
X134000000Y-83704951D01*
X134000000Y-116037966D01*
X133960598Y-116520644D01*
X133773558Y-117140829D01*
X133537940Y-117582613D01*
X133074326Y-118174460D01*
X132702390Y-118468094D01*
X132120589Y-118783647D01*
X131540123Y-118960738D01*
X131147505Y-119000000D01*
X111760000Y-119000000D01*
X111740866Y-119003806D01*
X111720957Y-119018765D01*
X110924331Y-120014547D01*
X110141414Y-120648809D01*
X109027695Y-121305108D01*
X107915966Y-121761711D01*
X106575337Y-122000045D01*
X105589812Y-122010000D01*
X93912097Y-122000002D01*
X92957927Y-121920488D01*
X91875389Y-121662268D01*
X90762735Y-121205284D01*
X89809623Y-120619518D01*
X88935759Y-119864817D01*
X88380736Y-119200771D01*
X88272664Y-119023927D01*
X88259439Y-119009585D01*
X88241732Y-119001396D01*
X88230000Y-119000000D01*
X69082464Y-119000000D01*
X68280376Y-118920781D01*
X67652938Y-118714903D01*
X66914487Y-118183219D01*
X66413326Y-117573965D01*
X66098090Y-116815427D01*
X65970008Y-116165167D01*
X65990000Y-104460085D01*
X65990000Y-84000000D01*
X67500000Y-84000000D01*
X67500000Y-116000000D01*
X67509607Y-116048298D01*
X67509607Y-116097545D01*
X67585727Y-116480228D01*
X67660385Y-116660468D01*
X67877158Y-116984892D01*
X68015108Y-117122842D01*
X68339532Y-117339615D01*
X68519772Y-117414273D01*
X68902455Y-117490393D01*
X68951702Y-117490393D01*
X69000000Y-117500000D01*
X89092522Y-117500000D01*
X89236860Y-117750000D01*
X89258608Y-117774798D01*
X89273196Y-117804381D01*
X90067789Y-118839915D01*
X90129061Y-118893649D01*
X90186681Y-118951269D01*
X91808798Y-120035133D01*
X91989038Y-120109791D01*
X93902455Y-120490393D01*
X93951702Y-120490393D01*
X94000000Y-120500000D01*
X106000000Y-120500000D01*
X106032351Y-120493565D01*
X106065263Y-120495722D01*
X107359358Y-120325351D01*
X107436526Y-120299156D01*
X107515239Y-120278065D01*
X109264947Y-119415205D01*
X109264951Y-119415204D01*
X109419727Y-119296440D01*
X110706047Y-117829673D01*
X110730670Y-117787025D01*
X110763140Y-117750000D01*
X110907478Y-117500000D01*
X131000000Y-117500000D01*
X131048298Y-117490393D01*
X131097545Y-117490393D01*
X131480228Y-117414273D01*
X131660468Y-117339615D01*
X131984892Y-117122842D01*
X132122842Y-116984892D01*
X132339615Y-116660468D01*
X132414273Y-116480228D01*
X132490393Y-116097545D01*
X132490393Y-116048298D01*
X132500000Y-116000000D01*
X132500000Y-84000000D01*
X132490393Y-83951702D01*
X132490393Y-83902455D01*
X132414273Y-83519772D01*
X132339615Y-83339532D01*
X132122842Y-83015108D01*
X131984892Y-82877158D01*
X131660468Y-82660385D01*
X131480228Y-82585727D01*
X131097545Y-82509607D01*
X131048298Y-82509607D01*
X131000000Y-82500000D01*
X110907477Y-82500000D01*
X110763140Y-82250000D01*
X110741392Y-82225202D01*
X110726804Y-82195619D01*
X109932211Y-81160085D01*
X109870943Y-81106354D01*
X109813319Y-81048731D01*
X108191202Y-79964867D01*
X108010962Y-79890209D01*
X106097545Y-79509607D01*
X106048298Y-79509607D01*
X106000000Y-79500000D01*
X94000000Y-79500000D01*
X93967649Y-79506435D01*
X93934737Y-79504278D01*
X92640642Y-79674649D01*
X92563476Y-79700843D01*
X92484761Y-79721935D01*
X90735053Y-80584795D01*
X90735049Y-80584796D01*
X90580273Y-80703560D01*
X89293953Y-82170327D01*
X89269331Y-82212974D01*
X89236860Y-82250000D01*
X89092523Y-82500000D01*
X69000000Y-82500000D01*
X68951702Y-82509607D01*
X68902455Y-82509607D01*
X68519772Y-82585727D01*
X68339532Y-82660385D01*
X68015108Y-82877158D01*
X67877158Y-83015108D01*
X67660385Y-83339532D01*
X67585727Y-83519772D01*
X67509607Y-83902455D01*
X67509607Y-83951702D01*
X67500000Y-84000000D01*
X65990000Y-84000000D01*
X65990000Y-83804140D01*
X66068587Y-83332616D01*
X66315221Y-82642043D01*
X66619436Y-82161186D01*
X67052514Y-81718266D01*
X67514403Y-81393960D01*
X68164973Y-81117961D01*
X68735156Y-80999992D01*
X88240077Y-80970000D01*
X88259205Y-80966164D01*
X88278072Y-80952412D01*
X88906347Y-80214438D01*
X89680823Y-79479679D01*
X90753883Y-78804048D01*
X91636670Y-78397371D01*
X92828761Y-78099348D01*
X93852660Y-77990000D01*
X106047756Y-77990000D01*
X107151828Y-78089466D01*
M02*
