G04 #@! TF.FileFunction,Profile,NP*
%FSLAX46Y46*%
G04 Gerber Fmt 4.6, Leading zero omitted, Abs format (unit mm)*
G04 Created by KiCad (PCBNEW 0.201603210401+6634~43~ubuntu14.04.1-product) date Mon 18 Apr 2016 03:28:45 PM CEST*
%MOMM*%
G01*
G04 APERTURE LIST*
%ADD10C,0.100000*%
G04 APERTURE END LIST*
D10*
X106000000Y-80000000D02*
G75*
G02X110330127Y-82500000I0J-5000000D01*
G01*
X94000000Y-120000000D02*
G75*
G02X89669873Y-117500000I0J5000000D01*
G01*
X131000000Y-83000000D02*
G75*
G02X132000000Y-84000000I0J-1000000D01*
G01*
X89669873Y-82500000D02*
G75*
G02X94000000Y-80000000I4330127J-2500000D01*
G01*
X68000000Y-84000000D02*
G75*
G02X69000000Y-83000000I1000000J0D01*
G01*
X69000000Y-117000000D02*
G75*
G02X68000000Y-116000000I0J1000000D01*
G01*
X110330127Y-117500000D02*
G75*
G02X106000000Y-120000000I-4330127J2500000D01*
G01*
X132000000Y-116000000D02*
G75*
G02X131000000Y-117000000I-1000000J0D01*
G01*
X68000000Y-84000000D02*
X68000000Y-116000000D01*
X89381198Y-83000000D02*
X89669873Y-82500000D01*
X94000000Y-80000000D02*
X106000000Y-80000000D01*
X69000000Y-83000000D02*
X89381198Y-83000000D01*
X110618802Y-83000000D02*
X110330127Y-82500000D01*
X132000000Y-84000000D02*
X132000000Y-116000000D01*
X131000000Y-83000000D02*
X110618802Y-83000000D01*
X110618802Y-117000000D02*
X110330127Y-117500000D01*
X131000000Y-117000000D02*
X110618802Y-117000000D01*
X94000000Y-120000000D02*
X106000000Y-120000000D01*
X89381198Y-117000000D02*
X89669873Y-117500000D01*
X69000000Y-117000000D02*
X89381198Y-117000000D01*
X150000000Y-70000000D02*
X150000000Y-130000000D01*
X50000000Y-70000000D02*
X50000000Y-130000000D01*
X51000000Y-131000000D02*
X149000000Y-131000000D01*
X149000000Y-69000000D02*
X51000000Y-69000000D01*
X51000000Y-131000000D02*
G75*
G02X50000000Y-130000000I0J1000000D01*
G01*
X150000000Y-130000000D02*
G75*
G02X149000000Y-131000000I-1000000J0D01*
G01*
X149000000Y-69000000D02*
G75*
G02X150000000Y-70000000I0J-1000000D01*
G01*
X50000000Y-70000000D02*
G75*
G02X51000000Y-69000000I1000000J0D01*
G01*
M02*
