<?xml version="1.0" standalone="no"?>
 <!DOCTYPE svg PUBLIC "-//W3C//DTD SVG 1.1//EN" 
 "http://www.w3.org/Graphics/SVG/1.1/DTD/svg11.dtd"> 
<svg xmlns="http://www.w3.org/2000/svg" version="1.1" 
    width="29.7002cm" height="21.0007cm" viewBox="0 0 116930 82680 ">
<title>SVG Picture created as OpenDropV4-F_SilkS.svg date 2021/08/02 14:24:08 </title>
  <desc>Picture generated by PCBNEW </desc>
<g style="fill:#000000; fill-opacity:1;stroke:#000000; stroke-opacity:1;
stroke-linecap:round; stroke-linejoin:round; "
 transform="translate(0 0) scale(1 1)">
</g>
<g style="fill:#000000; fill-opacity:0.0; 
stroke:#000000; stroke-width:-0.000393701; stroke-opacity:1; 
stroke-linecap:round; stroke-linejoin:round;">
</g>
<g style="fill:#000000; fill-opacity:0.0; 
stroke:#000000; stroke-width:39.3701; stroke-opacity:1; 
stroke-linecap:round; stroke-linejoin:round;">
</g>
<g style="fill:#000000; fill-opacity:0.0; 
stroke:#000000; stroke-width:59.0551; stroke-opacity:1; 
stroke-linecap:round; stroke-linejoin:round;">
<rect x="69685.9" y="65357.2" width="42519.7" height="12598.4" rx="0" />
</g>
<g style="fill:#000000; fill-opacity:0.0; 
stroke:#000000; stroke-width:39.3701; stroke-opacity:1; 
stroke-linecap:round; stroke-linejoin:round;">
</g>
<g style="fill:#000000; fill-opacity:0.0; 
stroke:#000000; stroke-width:59.0551; stroke-opacity:1; 
stroke-linecap:round; stroke-linejoin:round;">
<rect x="3937.01" y="3937.01" width="109056" height="74806" rx="0" />
</g>
<g style="fill:#000000; fill-opacity:0.0; 
stroke:#000000; stroke-width:39.3701; stroke-opacity:1; 
stroke-linecap:round; stroke-linejoin:round;">
</g>
<g style="fill:#000000; fill-opacity:0.0; 
stroke:#000000; stroke-width:59.0551; stroke-opacity:1; 
stroke-linecap:round; stroke-linejoin:round;">
<rect x="4724.41" y="4724.41" width="107481" height="73231.2" rx="0" />
</g>
<g style="fill:#000000; fill-opacity:0.0; 
stroke:#000000; stroke-width:39.3701; stroke-opacity:1; 
stroke-linecap:round; stroke-linejoin:round;">
</g>
<g style="fill:#000000; fill-opacity:0.0; 
stroke:#000000; stroke-width:59.0551; stroke-opacity:1; 
stroke-linecap:round; stroke-linejoin:round;">
<path d="M23622 4724
L23622 3937
" />
</g>
<g style="fill:#000000; fill-opacity:0.0; 
stroke:#000000; stroke-width:39.3701; stroke-opacity:1; 
stroke-linecap:round; stroke-linejoin:round;">
</g>
<g style="fill:#000000; fill-opacity:0.0; 
stroke:#000000; stroke-width:59.0551; stroke-opacity:1; 
stroke-linecap:round; stroke-linejoin:round;">
<path d="M43307 4724
L43307 3937
" />
</g>
<g style="fill:#000000; fill-opacity:0.0; 
stroke:#000000; stroke-width:39.3701; stroke-opacity:1; 
stroke-linecap:round; stroke-linejoin:round;">
</g>
<g style="fill:#000000; fill-opacity:0.0; 
stroke:#000000; stroke-width:59.0551; stroke-opacity:1; 
stroke-linecap:round; stroke-linejoin:round;">
<path d="M62992 4724
L62992 3937
" />
</g>
<g style="fill:#000000; fill-opacity:0.0; 
stroke:#000000; stroke-width:39.3701; stroke-opacity:1; 
stroke-linecap:round; stroke-linejoin:round;">
</g>
<g style="fill:#000000; fill-opacity:0.0; 
stroke:#000000; stroke-width:59.0551; stroke-opacity:1; 
stroke-linecap:round; stroke-linejoin:round;">
<path d="M82677 4724
L82677 3937
" />
</g>
<g style="fill:#000000; fill-opacity:0.0; 
stroke:#000000; stroke-width:39.3701; stroke-opacity:1; 
stroke-linecap:round; stroke-linejoin:round;">
</g>
<g style="fill:#000000; fill-opacity:0.0; 
stroke:#000000; stroke-width:59.0551; stroke-opacity:1; 
stroke-linecap:round; stroke-linejoin:round;">
<path d="M102362 4724
L102362 3937
" />
</g>
<g style="fill:#000000; fill-opacity:0.0; 
stroke:#000000; stroke-width:39.3701; stroke-opacity:1; 
stroke-linecap:round; stroke-linejoin:round;">
</g>
<g style="fill:#000000; fill-opacity:0.0; 
stroke:#000000; stroke-width:59.0551; stroke-opacity:1; 
stroke-linecap:round; stroke-linejoin:round;">
<text x="13779.5" y="4586.61"
textLength="564.211" font-size="682.415" lengthAdjust="spacingAndGlyphs"
text-anchor="start" opacity="0">1</text>
<path d="M14199 4562
L13906 4562
" />
<path d="M14052 4562
L14052 4050
L14004 4123
L13955 4172
L13906 4196
" />
</g>
<g style="fill:#000000; fill-opacity:0.0; 
stroke:#000000; stroke-width:39.3701; stroke-opacity:1; 
stroke-linecap:round; stroke-linejoin:round;">
</g>
<g style="fill:#000000; fill-opacity:0.0; 
stroke:#000000; stroke-width:59.0551; stroke-opacity:1; 
stroke-linecap:round; stroke-linejoin:round;">
<text x="33464.6" y="4586.61"
textLength="546.494" font-size="682.415" lengthAdjust="spacingAndGlyphs"
text-anchor="start" opacity="0">2</text>
<path d="M33591 4099
L33615 4074
L33664 4050
L33786 4050
L33835 4074
L33859 4099
L33884 4147
L33884 4196
L33859 4269
L33567 4562
L33884 4562
" />
</g>
<g style="fill:#000000; fill-opacity:0.0; 
stroke:#000000; stroke-width:39.3701; stroke-opacity:1; 
stroke-linecap:round; stroke-linejoin:round;">
</g>
<g style="fill:#000000; fill-opacity:0.0; 
stroke:#000000; stroke-width:59.0551; stroke-opacity:1; 
stroke-linecap:round; stroke-linejoin:round;">
<text x="53149.6" y="4586.61"
textLength="546.494" font-size="682.415" lengthAdjust="spacingAndGlyphs"
text-anchor="start" opacity="0">3</text>
<path d="M53252 4050
L53569 4050
L53398 4245
L53471 4245
L53520 4269
L53544 4294
L53569 4342
L53569 4464
L53544 4513
L53520 4537
L53471 4562
L53325 4562
L53276 4537
L53252 4513
" />
</g>
<g style="fill:#000000; fill-opacity:0.0; 
stroke:#000000; stroke-width:39.3701; stroke-opacity:1; 
stroke-linecap:round; stroke-linejoin:round;">
</g>
<g style="fill:#000000; fill-opacity:0.0; 
stroke:#000000; stroke-width:59.0551; stroke-opacity:1; 
stroke-linecap:round; stroke-linejoin:round;">
<text x="72834.6" y="4586.61"
textLength="546.494" font-size="682.415" lengthAdjust="spacingAndGlyphs"
text-anchor="start" opacity="0">4</text>
<path d="M73205 4221
L73205 4562
" />
<path d="M73083 4026
L72961 4391
L73278 4391
" />
</g>
<g style="fill:#000000; fill-opacity:0.0; 
stroke:#000000; stroke-width:39.3701; stroke-opacity:1; 
stroke-linecap:round; stroke-linejoin:round;">
</g>
<g style="fill:#000000; fill-opacity:0.0; 
stroke:#000000; stroke-width:59.0551; stroke-opacity:1; 
stroke-linecap:round; stroke-linejoin:round;">
<text x="92519.7" y="4586.61"
textLength="546.494" font-size="682.415" lengthAdjust="spacingAndGlyphs"
text-anchor="start" opacity="0">5</text>
<path d="M92914 4050
L92671 4050
L92646 4294
L92671 4269
L92719 4245
L92841 4245
L92890 4269
L92914 4294
L92939 4342
L92939 4464
L92914 4513
L92890 4537
L92841 4562
L92719 4562
L92671 4537
L92646 4513
" />
</g>
<g style="fill:#000000; fill-opacity:0.0; 
stroke:#000000; stroke-width:39.3701; stroke-opacity:1; 
stroke-linecap:round; stroke-linejoin:round;">
</g>
<g style="fill:#000000; fill-opacity:0.0; 
stroke:#000000; stroke-width:59.0551; stroke-opacity:1; 
stroke-linecap:round; stroke-linejoin:round;">
<text x="112205" y="4586.61"
textLength="546.494" font-size="682.415" lengthAdjust="spacingAndGlyphs"
text-anchor="start" opacity="0">6</text>
<path d="M112575 4050
L112477 4050
L112429 4074
L112404 4099
L112356 4172
L112331 4269
L112331 4464
L112356 4513
L112380 4537
L112429 4562
L112526 4562
L112575 4537
L112599 4513
L112624 4464
L112624 4342
L112599 4294
L112575 4269
L112526 4245
L112429 4245
L112380 4269
L112356 4294
L112331 4342
" />
</g>
<g style="fill:#000000; fill-opacity:0.0; 
stroke:#000000; stroke-width:39.3701; stroke-opacity:1; 
stroke-linecap:round; stroke-linejoin:round;">
</g>
<g style="fill:#000000; fill-opacity:0.0; 
stroke:#000000; stroke-width:59.0551; stroke-opacity:1; 
stroke-linecap:round; stroke-linejoin:round;">
<path d="M23622 77955
L23622 78742
" />
</g>
<g style="fill:#000000; fill-opacity:0.0; 
stroke:#000000; stroke-width:39.3701; stroke-opacity:1; 
stroke-linecap:round; stroke-linejoin:round;">
</g>
<g style="fill:#000000; fill-opacity:0.0; 
stroke:#000000; stroke-width:59.0551; stroke-opacity:1; 
stroke-linecap:round; stroke-linejoin:round;">
<path d="M43307 77955
L43307 78742
" />
</g>
<g style="fill:#000000; fill-opacity:0.0; 
stroke:#000000; stroke-width:39.3701; stroke-opacity:1; 
stroke-linecap:round; stroke-linejoin:round;">
</g>
<g style="fill:#000000; fill-opacity:0.0; 
stroke:#000000; stroke-width:59.0551; stroke-opacity:1; 
stroke-linecap:round; stroke-linejoin:round;">
<path d="M62992 77955
L62992 78742
" />
</g>
<g style="fill:#000000; fill-opacity:0.0; 
stroke:#000000; stroke-width:39.3701; stroke-opacity:1; 
stroke-linecap:round; stroke-linejoin:round;">
</g>
<g style="fill:#000000; fill-opacity:0.0; 
stroke:#000000; stroke-width:59.0551; stroke-opacity:1; 
stroke-linecap:round; stroke-linejoin:round;">
<path d="M82677 77955
L82677 78742
" />
</g>
<g style="fill:#000000; fill-opacity:0.0; 
stroke:#000000; stroke-width:39.3701; stroke-opacity:1; 
stroke-linecap:round; stroke-linejoin:round;">
</g>
<g style="fill:#000000; fill-opacity:0.0; 
stroke:#000000; stroke-width:59.0551; stroke-opacity:1; 
stroke-linecap:round; stroke-linejoin:round;">
<path d="M102362 77955
L102362 78742
" />
</g>
<g style="fill:#000000; fill-opacity:0.0; 
stroke:#000000; stroke-width:39.3701; stroke-opacity:1; 
stroke-linecap:round; stroke-linejoin:round;">
</g>
<g style="fill:#000000; fill-opacity:0.0; 
stroke:#000000; stroke-width:59.0551; stroke-opacity:1; 
stroke-linecap:round; stroke-linejoin:round;">
<text x="13779.5" y="78605.2"
textLength="546.494" font-size="682.415" lengthAdjust="spacingAndGlyphs"
text-anchor="start" opacity="0">1</text>
<path d="M14199 78580
L13906 78580
" />
<path d="M14052 78580
L14052 78069
L14004 78142
L13955 78190
L13906 78215
" />
</g>
<g style="fill:#000000; fill-opacity:0.0; 
stroke:#000000; stroke-width:39.3701; stroke-opacity:1; 
stroke-linecap:round; stroke-linejoin:round;">
</g>
<g style="fill:#000000; fill-opacity:0.0; 
stroke:#000000; stroke-width:59.0551; stroke-opacity:1; 
stroke-linecap:round; stroke-linejoin:round;">
<text x="33464.6" y="78605.2"
textLength="546.494" font-size="682.415" lengthAdjust="spacingAndGlyphs"
text-anchor="start" opacity="0">2</text>
<path d="M33591 78117
L33615 78093
L33664 78069
L33786 78069
L33835 78093
L33859 78117
L33884 78166
L33884 78215
L33859 78288
L33567 78580
L33884 78580
" />
</g>
<g style="fill:#000000; fill-opacity:0.0; 
stroke:#000000; stroke-width:39.3701; stroke-opacity:1; 
stroke-linecap:round; stroke-linejoin:round;">
</g>
<g style="fill:#000000; fill-opacity:0.0; 
stroke:#000000; stroke-width:59.0551; stroke-opacity:1; 
stroke-linecap:round; stroke-linejoin:round;">
<text x="53149.6" y="78605.2"
textLength="546.494" font-size="682.415" lengthAdjust="spacingAndGlyphs"
text-anchor="start" opacity="0">3</text>
<path d="M53252 78069
L53569 78069
L53398 78263
L53471 78263
L53520 78288
L53544 78312
L53569 78361
L53569 78483
L53544 78532
L53520 78556
L53471 78580
L53325 78580
L53276 78556
L53252 78532
" />
</g>
<g style="fill:#000000; fill-opacity:0.0; 
stroke:#000000; stroke-width:39.3701; stroke-opacity:1; 
stroke-linecap:round; stroke-linejoin:round;">
</g>
<g style="fill:#000000; fill-opacity:0.0; 
stroke:#000000; stroke-width:59.0551; stroke-opacity:1; 
stroke-linecap:round; stroke-linejoin:round;">
<text x="72834.6" y="78605.2"
textLength="546.494" font-size="682.415" lengthAdjust="spacingAndGlyphs"
text-anchor="start" opacity="0">4</text>
<path d="M73205 78239
L73205 78580
" />
<path d="M73083 78044
L72961 78410
L73278 78410
" />
</g>
<g style="fill:#000000; fill-opacity:0.0; 
stroke:#000000; stroke-width:39.3701; stroke-opacity:1; 
stroke-linecap:round; stroke-linejoin:round;">
</g>
<g style="fill:#000000; fill-opacity:0.0; 
stroke:#000000; stroke-width:59.0551; stroke-opacity:1; 
stroke-linecap:round; stroke-linejoin:round;">
<text x="92519.7" y="78605.2"
textLength="546.494" font-size="682.415" lengthAdjust="spacingAndGlyphs"
text-anchor="start" opacity="0">5</text>
<path d="M92914 78069
L92671 78069
L92646 78312
L92671 78288
L92719 78263
L92841 78263
L92890 78288
L92914 78312
L92939 78361
L92939 78483
L92914 78532
L92890 78556
L92841 78580
L92719 78580
L92671 78556
L92646 78532
" />
</g>
<g style="fill:#000000; fill-opacity:0.0; 
stroke:#000000; stroke-width:39.3701; stroke-opacity:1; 
stroke-linecap:round; stroke-linejoin:round;">
</g>
<g style="fill:#000000; fill-opacity:0.0; 
stroke:#000000; stroke-width:59.0551; stroke-opacity:1; 
stroke-linecap:round; stroke-linejoin:round;">
<text x="112205" y="78605.2"
textLength="546.494" font-size="682.415" lengthAdjust="spacingAndGlyphs"
text-anchor="start" opacity="0">6</text>
<path d="M112575 78069
L112477 78069
L112429 78093
L112404 78117
L112356 78190
L112331 78288
L112331 78483
L112356 78532
L112380 78556
L112429 78580
L112526 78580
L112575 78556
L112599 78532
L112624 78483
L112624 78361
L112599 78312
L112575 78288
L112526 78263
L112429 78263
L112380 78288
L112356 78312
L112331 78361
" />
</g>
<g style="fill:#000000; fill-opacity:0.0; 
stroke:#000000; stroke-width:39.3701; stroke-opacity:1; 
stroke-linecap:round; stroke-linejoin:round;">
</g>
<g style="fill:#000000; fill-opacity:0.0; 
stroke:#000000; stroke-width:59.0551; stroke-opacity:1; 
stroke-linecap:round; stroke-linejoin:round;">
<path d="M3937 23622
L4724 23622
" />
</g>
<g style="fill:#000000; fill-opacity:0.0; 
stroke:#000000; stroke-width:39.3701; stroke-opacity:1; 
stroke-linecap:round; stroke-linejoin:round;">
</g>
<g style="fill:#000000; fill-opacity:0.0; 
stroke:#000000; stroke-width:59.0551; stroke-opacity:1; 
stroke-linecap:round; stroke-linejoin:round;">
<path d="M3937 43307
L4724 43307
" />
</g>
<g style="fill:#000000; fill-opacity:0.0; 
stroke:#000000; stroke-width:39.3701; stroke-opacity:1; 
stroke-linecap:round; stroke-linejoin:round;">
</g>
<g style="fill:#000000; fill-opacity:0.0; 
stroke:#000000; stroke-width:59.0551; stroke-opacity:1; 
stroke-linecap:round; stroke-linejoin:round;">
<path d="M3937 62992
L4724 62992
" />
</g>
<g style="fill:#000000; fill-opacity:0.0; 
stroke:#000000; stroke-width:39.3701; stroke-opacity:1; 
stroke-linecap:round; stroke-linejoin:round;">
</g>
<g style="fill:#000000; fill-opacity:0.0; 
stroke:#000000; stroke-width:59.0551; stroke-opacity:1; 
stroke-linecap:round; stroke-linejoin:round;">
<text x="4330.71" y="14035.4"
textLength="497.75" font-size="682.415" lengthAdjust="spacingAndGlyphs"
text-anchor="middle" opacity="0">A</text>
<path d="M4208 13864
L4452 13864
" />
<path d="M4160 14011
L4330 13499
L4501 14011
" />
</g>
<g style="fill:#000000; fill-opacity:0.0; 
stroke:#000000; stroke-width:39.3701; stroke-opacity:1; 
stroke-linecap:round; stroke-linejoin:round;">
</g>
<g style="fill:#000000; fill-opacity:0.0; 
stroke:#000000; stroke-width:59.0551; stroke-opacity:1; 
stroke-linecap:round; stroke-linejoin:round;">
<text x="4330.71" y="33720.5"
textLength="570.866" font-size="682.415" lengthAdjust="spacingAndGlyphs"
text-anchor="middle" opacity="0">B</text>
<path d="M4367 33428
L4440 33452
L4464 33476
L4489 33525
L4489 33598
L4464 33647
L4440 33671
L4391 33696
L4196 33696
L4196 33184
L4367 33184
L4416 33208
L4440 33233
L4464 33281
L4464 33330
L4440 33379
L4416 33403
L4367 33428
L4196 33428
" />
</g>
<g style="fill:#000000; fill-opacity:0.0; 
stroke:#000000; stroke-width:39.3701; stroke-opacity:1; 
stroke-linecap:round; stroke-linejoin:round;">
</g>
<g style="fill:#000000; fill-opacity:0.0; 
stroke:#000000; stroke-width:59.0551; stroke-opacity:1; 
stroke-linecap:round; stroke-linejoin:round;">
<text x="4330.71" y="53405.5"
textLength="570.866" font-size="682.415" lengthAdjust="spacingAndGlyphs"
text-anchor="middle" opacity="0">C</text>
<path d="M4489 53332
L4464 53356
L4391 53381
L4342 53381
L4269 53356
L4221 53308
L4196 53259
L4172 53161
L4172 53088
L4196 52991
L4221 52942
L4269 52893
L4342 52869
L4391 52869
L4464 52893
L4489 52918
" />
</g>
<g style="fill:#000000; fill-opacity:0.0; 
stroke:#000000; stroke-width:39.3701; stroke-opacity:1; 
stroke-linecap:round; stroke-linejoin:round;">
</g>
<g style="fill:#000000; fill-opacity:0.0; 
stroke:#000000; stroke-width:59.0551; stroke-opacity:1; 
stroke-linecap:round; stroke-linejoin:round;">
<text x="4330.71" y="73090.6"
textLength="570.866" font-size="682.415" lengthAdjust="spacingAndGlyphs"
text-anchor="middle" opacity="0">D</text>
<path d="M4196 73066
L4196 72554
L4318 72554
L4391 72578
L4440 72627
L4464 72676
L4489 72773
L4489 72846
L4464 72944
L4440 72993
L4391 73041
L4318 73066
L4196 73066
" />
</g>
<g style="fill:#000000; fill-opacity:0.0; 
stroke:#000000; stroke-width:39.3701; stroke-opacity:1; 
stroke-linecap:round; stroke-linejoin:round;">
</g>
<g style="fill:#000000; fill-opacity:0.0; 
stroke:#000000; stroke-width:59.0551; stroke-opacity:1; 
stroke-linecap:round; stroke-linejoin:round;">
<path d="M112992 23622
L112205 23622
" />
</g>
<g style="fill:#000000; fill-opacity:0.0; 
stroke:#000000; stroke-width:39.3701; stroke-opacity:1; 
stroke-linecap:round; stroke-linejoin:round;">
</g>
<g style="fill:#000000; fill-opacity:0.0; 
stroke:#000000; stroke-width:59.0551; stroke-opacity:1; 
stroke-linecap:round; stroke-linejoin:round;">
<path d="M112992 43307
L112205 43307
" />
</g>
<g style="fill:#000000; fill-opacity:0.0; 
stroke:#000000; stroke-width:39.3701; stroke-opacity:1; 
stroke-linecap:round; stroke-linejoin:round;">
</g>
<g style="fill:#000000; fill-opacity:0.0; 
stroke:#000000; stroke-width:59.0551; stroke-opacity:1; 
stroke-linecap:round; stroke-linejoin:round;">
<path d="M112992 62992
L112205 62992
" />
</g>
<g style="fill:#000000; fill-opacity:0.0; 
stroke:#000000; stroke-width:39.3701; stroke-opacity:1; 
stroke-linecap:round; stroke-linejoin:round;">
</g>
<g style="fill:#000000; fill-opacity:0.0; 
stroke:#000000; stroke-width:59.0551; stroke-opacity:1; 
stroke-linecap:round; stroke-linejoin:round;">
<text x="112599" y="14035.4"
textLength="497.75" font-size="682.415" lengthAdjust="spacingAndGlyphs"
text-anchor="middle" opacity="0">A</text>
<path d="M112477 13864
L112721 13864
" />
<path d="M112428 14011
L112599 13499
L112769 14011
" />
</g>
<g style="fill:#000000; fill-opacity:0.0; 
stroke:#000000; stroke-width:39.3701; stroke-opacity:1; 
stroke-linecap:round; stroke-linejoin:round;">
</g>
<g style="fill:#000000; fill-opacity:0.0; 
stroke:#000000; stroke-width:59.0551; stroke-opacity:1; 
stroke-linecap:round; stroke-linejoin:round;">
<text x="112599" y="33720.5"
textLength="570.866" font-size="682.415" lengthAdjust="spacingAndGlyphs"
text-anchor="middle" opacity="0">B</text>
<path d="M112635 33428
L112708 33452
L112733 33476
L112757 33525
L112757 33598
L112733 33647
L112708 33671
L112660 33696
L112465 33696
L112465 33184
L112635 33184
L112684 33208
L112708 33233
L112733 33281
L112733 33330
L112708 33379
L112684 33403
L112635 33428
L112465 33428
" />
</g>
<g style="fill:#000000; fill-opacity:0.0; 
stroke:#000000; stroke-width:39.3701; stroke-opacity:1; 
stroke-linecap:round; stroke-linejoin:round;">
</g>
<g style="fill:#000000; fill-opacity:0.0; 
stroke:#000000; stroke-width:59.0551; stroke-opacity:1; 
stroke-linecap:round; stroke-linejoin:round;">
<text x="112599" y="53405.5"
textLength="570.866" font-size="682.415" lengthAdjust="spacingAndGlyphs"
text-anchor="middle" opacity="0">C</text>
<path d="M112757 53332
L112733 53356
L112660 53381
L112611 53381
L112538 53356
L112489 53308
L112465 53259
L112440 53161
L112440 53088
L112465 52991
L112489 52942
L112538 52893
L112611 52869
L112660 52869
L112733 52893
L112757 52918
" />
</g>
<g style="fill:#000000; fill-opacity:0.0; 
stroke:#000000; stroke-width:39.3701; stroke-opacity:1; 
stroke-linecap:round; stroke-linejoin:round;">
</g>
<g style="fill:#000000; fill-opacity:0.0; 
stroke:#000000; stroke-width:59.0551; stroke-opacity:1; 
stroke-linecap:round; stroke-linejoin:round;">
<text x="112599" y="73090.6"
textLength="570.866" font-size="682.415" lengthAdjust="spacingAndGlyphs"
text-anchor="middle" opacity="0">D</text>
<path d="M112465 73066
L112465 72554
L112587 72554
L112660 72578
L112708 72627
L112733 72676
L112757 72773
L112757 72846
L112733 72944
L112708 72993
L112660 73041
L112587 73066
L112465 73066
" />
</g>
<g style="fill:#000000; fill-opacity:0.0; 
stroke:#000000; stroke-width:39.3701; stroke-opacity:1; 
stroke-linecap:round; stroke-linejoin:round;">
</g>
<g style="fill:#000000; fill-opacity:0.0; 
stroke:#000000; stroke-width:59.0551; stroke-opacity:1; 
stroke-linecap:round; stroke-linejoin:round;">
<text x="78741" y="76321.7"
textLength="2758.72" font-size="787.402" lengthAdjust="spacingAndGlyphs"
text-anchor="start" opacity="0">Date: </text>
<path d="M78911 76293
L78911 75703
L79051 75703
L79136 75731
L79192 75787
L79220 75843
L79248 75956
L79248 76040
L79220 76153
L79192 76209
L79136 76265
L79051 76293
L78911 76293
" />
<path d="M79754 76293
L79754 75984
L79726 75928
L79670 75899
L79557 75899
L79501 75928
" />
<path d="M79754 76265
L79698 76293
L79557 76293
L79501 76265
L79473 76209
L79473 76153
L79501 76096
L79557 76068
L79698 76068
L79754 76040
" />
<path d="M79951 75899
L80176 75899
" />
<path d="M80036 75703
L80036 76209
L80064 76265
L80120 76293
L80176 76293
" />
<path d="M80598 76265
L80542 76293
L80429 76293
L80373 76265
L80345 76209
L80345 75984
L80373 75928
L80429 75899
L80542 75899
L80598 75928
L80626 75984
L80626 76040
L80345 76096
" />
<path d="M80879 76237
L80907 76265
L80879 76293
L80851 76265
L80879 76237
L80879 76293
" />
<path d="M80879 75928
L80907 75956
L80879 75984
L80851 75956
L80879 75928
L80879 75984
" />
</g>
<g style="fill:#000000; fill-opacity:0.0; 
stroke:#000000; stroke-width:39.3701; stroke-opacity:1; 
stroke-linecap:round; stroke-linejoin:round;">
</g>
<g style="fill:#000000; fill-opacity:0.0; 
stroke:#000000; stroke-width:59.0551; stroke-opacity:1; 
stroke-linecap:round; stroke-linejoin:round;">
<path d="M69685 76577
L112205 76577
" />
</g>
<g style="fill:#000000; fill-opacity:0.0; 
stroke:#000000; stroke-width:39.3701; stroke-opacity:1; 
stroke-linecap:round; stroke-linejoin:round;">
</g>
<g style="fill:#000000; fill-opacity:0.0; 
stroke:#000000; stroke-width:59.0551; stroke-opacity:1; 
stroke-linecap:round; stroke-linejoin:round;">
<text x="70079.6" y="77424.1"
textLength="18675.5" font-size="787.402" lengthAdjust="spacingAndGlyphs"
text-anchor="start" opacity="0">KiCad E.D.A.  kicad 5.1.5+dfsg1-2build2</text>
<path d="M70249 77395
L70249 76805
" />
<path d="M70587 77395
L70334 77058
" />
<path d="M70587 76805
L70249 77142
" />
<path d="M70840 77395
L70840 77002
" />
<path d="M70840 76805
L70812 76833
L70840 76861
L70868 76833
L70840 76805
L70840 76861
" />
<path d="M71458 77339
L71430 77367
L71346 77395
L71290 77395
L71205 77367
L71149 77311
L71121 77255
L71093 77142
L71093 77058
L71121 76946
L71149 76889
L71205 76833
L71290 76805
L71346 76805
L71430 76833
L71458 76861
" />
<path d="M71965 77395
L71965 77086
L71937 77030
L71880 77002
L71768 77002
L71712 77030
" />
<path d="M71965 77367
L71908 77395
L71768 77395
L71712 77367
L71683 77311
L71683 77255
L71712 77199
L71768 77171
L71908 77171
L71965 77142
" />
<path d="M72499 77395
L72499 76805
" />
<path d="M72499 77367
L72443 77395
L72330 77395
L72274 77367
L72246 77339
L72218 77283
L72218 77114
L72246 77058
L72274 77030
L72330 77002
L72443 77002
L72499 77030
" />
<path d="M73230 77086
L73427 77086
" />
<path d="M73511 77395
L73230 77395
L73230 76805
L73511 76805
" />
<path d="M73764 77339
L73793 77367
L73764 77395
L73736 77367
L73764 77339
L73764 77395
" />
<path d="M74046 77395
L74046 76805
L74186 76805
L74271 76833
L74327 76889
L74355 76946
L74383 77058
L74383 77142
L74355 77255
L74327 77311
L74271 77367
L74186 77395
L74046 77395
" />
<path d="M74636 77339
L74664 77367
L74636 77395
L74608 77367
L74636 77339
L74636 77395
" />
<path d="M74889 77227
L75171 77227
" />
<path d="M74833 77395
L75030 76805
L75227 77395
" />
<path d="M75424 77339
L75452 77367
L75424 77395
L75395 77367
L75424 77339
L75424 77395
" />
<path d="M76605 77395
L76605 76805
" />
<path d="M76661 77171
L76830 77395
" />
<path d="M76830 77002
L76605 77227
" />
<path d="M77083 77395
L77083 77002
" />
<path d="M77083 76805
L77055 76833
L77083 76861
L77111 76833
L77083 76805
L77083 76861
" />
<path d="M77617 77367
L77561 77395
L77448 77395
L77392 77367
L77364 77339
L77336 77283
L77336 77114
L77364 77058
L77392 77030
L77448 77002
L77561 77002
L77617 77030
" />
<path d="M78123 77395
L78123 77086
L78095 77030
L78039 77002
L77926 77002
L77870 77030
" />
<path d="M78123 77367
L78067 77395
L77926 77395
L77870 77367
L77842 77311
L77842 77255
L77870 77199
L77926 77171
L78067 77171
L78123 77142
" />
<path d="M78658 77395
L78658 76805
" />
<path d="M78658 77367
L78601 77395
L78489 77395
L78433 77367
L78404 77339
L78376 77283
L78376 77114
L78404 77058
L78433 77030
L78489 77002
L78601 77002
L78658 77030
" />
<path d="M79670 76805
L79389 76805
L79361 77086
L79389 77058
L79445 77030
L79586 77030
L79642 77058
L79670 77086
L79698 77142
L79698 77283
L79670 77339
L79642 77367
L79586 77395
L79445 77395
L79389 77367
L79361 77339
" />
<path d="M79951 77339
L79979 77367
L79951 77395
L79923 77367
L79951 77339
L79951 77395
" />
<path d="M80542 77395
L80204 77395
" />
<path d="M80373 77395
L80373 76805
L80317 76889
L80260 76946
L80204 76974
" />
<path d="M80795 77339
L80823 77367
L80795 77395
L80767 77367
L80795 77339
L80795 77395
" />
<path d="M81357 76805
L81076 76805
L81048 77086
L81076 77058
L81132 77030
L81273 77030
L81329 77058
L81357 77086
L81385 77142
L81385 77283
L81357 77339
L81329 77367
L81273 77395
L81132 77395
L81076 77367
L81048 77339
" />
<path d="M81638 77171
L82088 77171
" />
<path d="M81863 77395
L81863 76946
" />
<path d="M82623 77395
L82623 76805
" />
<path d="M82623 77367
L82566 77395
L82454 77395
L82398 77367
L82370 77339
L82341 77283
L82341 77114
L82370 77058
L82398 77030
L82454 77002
L82566 77002
L82623 77030
" />
<path d="M82820 77002
L83045 77002
" />
<path d="M82904 77395
L82904 76889
L82932 76833
L82988 76805
L83045 76805
" />
<path d="M83213 77367
L83269 77395
L83382 77395
L83438 77367
L83466 77311
L83466 77283
L83438 77227
L83382 77199
L83298 77199
L83241 77171
L83213 77114
L83213 77086
L83241 77030
L83298 77002
L83382 77002
L83438 77030
" />
<path d="M83973 77002
L83973 77480
L83944 77536
L83916 77564
L83860 77592
L83776 77592
L83719 77564
" />
<path d="M83973 77367
L83916 77395
L83804 77395
L83748 77367
L83719 77339
L83691 77283
L83691 77114
L83719 77058
L83748 77030
L83804 77002
L83916 77002
L83973 77030
" />
<path d="M84563 77395
L84226 77395
" />
<path d="M84394 77395
L84394 76805
L84338 76889
L84282 76946
L84226 76974
" />
<path d="M84816 77171
L85266 77171
" />
<path d="M85519 76861
L85547 76833
L85604 76805
L85744 76805
L85800 76833
L85829 76861
L85857 76917
L85857 76974
L85829 77058
L85491 77395
L85857 77395
" />
<path d="M86110 77395
L86110 76805
" />
<path d="M86110 77030
L86166 77002
L86278 77002
L86335 77030
L86363 77058
L86391 77114
L86391 77283
L86363 77339
L86335 77367
L86278 77395
L86166 77395
L86110 77367
" />
<path d="M86897 77002
L86897 77395
" />
<path d="M86644 77002
L86644 77311
L86672 77367
L86728 77395
L86813 77395
L86869 77367
L86897 77339
" />
<path d="M87178 77395
L87178 77002
" />
<path d="M87178 76805
L87150 76833
L87178 76861
L87206 76833
L87178 76805
L87178 76861
" />
<path d="M87544 77395
L87488 77367
L87460 77311
L87460 76805
" />
<path d="M88022 77395
L88022 76805
" />
<path d="M88022 77367
L87966 77395
L87853 77395
L87797 77367
L87769 77339
L87741 77283
L87741 77114
L87769 77058
L87797 77030
L87853 77002
L87966 77002
L88022 77030
" />
<path d="M88275 76861
L88303 76833
L88359 76805
L88500 76805
L88556 76833
L88584 76861
L88613 76917
L88613 76974
L88584 77058
L88247 77395
L88613 77395
" />
</g>
<g style="fill:#000000; fill-opacity:0.0; 
stroke:#000000; stroke-width:39.3701; stroke-opacity:1; 
stroke-linecap:round; stroke-linejoin:round;">
</g>
<g style="fill:#000000; fill-opacity:0.0; 
stroke:#000000; stroke-width:59.0551; stroke-opacity:1; 
stroke-linecap:round; stroke-linejoin:round;">
<path d="M69685 75396
L112205 75396
" />
</g>
<g style="fill:#000000; fill-opacity:0.0; 
stroke:#000000; stroke-width:39.3701; stroke-opacity:1; 
stroke-linecap:round; stroke-linejoin:round;">
</g>
<g style="fill:#000000; fill-opacity:0.0; 
stroke:#000000; stroke-width:118.11; stroke-opacity:1; 
stroke-linecap:round; stroke-linejoin:round;">
<text x="103544" y="76321.7"
textLength="2336.9" font-size="787.402" lengthAdjust="spacingAndGlyphs"
text-anchor="start" opacity="0">Rev: </text>
<path d="M104099 76293
L103902 76012
" />
<path d="M103761 76293
L103761 75703
L103986 75703
L104042 75731
L104070 75759
L104099 75815
L104099 75899
L104070 75956
L104042 75984
L103986 76012
L103761 76012
" />
<path d="M104577 76265
L104520 76293
L104408 76293
L104352 76265
L104323 76209
L104323 75984
L104352 75928
L104408 75899
L104520 75899
L104577 75928
L104605 75984
L104605 76040
L104323 76096
" />
<path d="M104802 75899
L104942 76293
L105083 75899
" />
<path d="M105308 76237
L105336 76265
L105308 76293
L105280 76265
L105308 76237
L105308 76293
" />
<path d="M105308 75928
L105336 75956
L105308 75984
L105280 75956
L105308 75928
L105308 75984
" />
</g>
<g style="fill:#000000; fill-opacity:0.0; 
stroke:#000000; stroke-width:39.3701; stroke-opacity:1; 
stroke-linecap:round; stroke-linejoin:round;">
</g>
<g style="fill:#000000; fill-opacity:0.0; 
stroke:#000000; stroke-width:59.0551; stroke-opacity:1; 
stroke-linecap:round; stroke-linejoin:round;">
<text x="70079.6" y="76321.7"
textLength="3781.21" font-size="787.402" lengthAdjust="spacingAndGlyphs"
text-anchor="start" opacity="0">Size: A4</text>
<path d="M70221 76265
L70305 76293
L70446 76293
L70502 76265
L70530 76237
L70559 76181
L70559 76124
L70530 76068
L70502 76040
L70446 76012
L70334 75984
L70277 75956
L70249 75928
L70221 75871
L70221 75815
L70249 75759
L70277 75731
L70334 75703
L70474 75703
L70559 75731
" />
<path d="M70812 76293
L70812 75899
" />
<path d="M70812 75703
L70784 75731
L70812 75759
L70840 75731
L70812 75703
L70812 75759
" />
<path d="M71037 75899
L71346 75899
L71037 76293
L71346 76293
" />
<path d="M71796 76265
L71740 76293
L71627 76293
L71571 76265
L71543 76209
L71543 75984
L71571 75928
L71627 75899
L71740 75899
L71796 75928
L71824 75984
L71824 76040
L71543 76096
" />
<path d="M72077 76237
L72105 76265
L72077 76293
L72049 76265
L72077 76237
L72077 76293
" />
<path d="M72077 75928
L72105 75956
L72077 75984
L72049 75956
L72077 75928
L72077 75984
" />
<path d="M72780 76124
L73061 76124
" />
<path d="M72724 76293
L72921 75703
L73118 76293
" />
<path d="M73568 75899
L73568 76293
" />
<path d="M73427 75674
L73286 76096
L73652 76096
" />
</g>
<g style="fill:#000000; fill-opacity:0.0; 
stroke:#000000; stroke-width:39.3701; stroke-opacity:1; 
stroke-linecap:round; stroke-linejoin:round;">
</g>
<g style="fill:#000000; fill-opacity:0.0; 
stroke:#000000; stroke-width:59.0551; stroke-opacity:1; 
stroke-linecap:round; stroke-linejoin:round;">
<text x="103544" y="77424.1"
textLength="3349.27" font-size="787.402" lengthAdjust="spacingAndGlyphs"
text-anchor="start" opacity="0">Id: 1/1</text>
<path d="M103714 77395
L103714 76805
" />
<path d="M104248 77395
L104248 76805
" />
<path d="M104248 77367
L104192 77395
L104079 77395
L104023 77367
L103995 77339
L103967 77283
L103967 77114
L103995 77058
L104023 77030
L104079 77002
L104192 77002
L104248 77030
" />
<path d="M104529 77339
L104557 77367
L104529 77395
L104501 77367
L104529 77339
L104529 77395
" />
<path d="M104529 77030
L104557 77058
L104529 77086
L104501 77058
L104529 77030
L104529 77086
" />
<path d="M105570 77395
L105232 77395
" />
<path d="M105401 77395
L105401 76805
L105345 76889
L105289 76946
L105232 76974
" />
<path d="M106245 76777
L105739 77536
" />
<path d="M106751 77395
L106413 77395
" />
<path d="M106582 77395
L106582 76805
L106526 76889
L106470 76946
L106413 76974
" />
</g>
<g style="fill:#000000; fill-opacity:0.0; 
stroke:#000000; stroke-width:39.3701; stroke-opacity:1; 
stroke-linecap:round; stroke-linejoin:round;">
</g>
<g style="fill:#000000; fill-opacity:0.0; 
stroke:#000000; stroke-width:59.0551; stroke-opacity:1; 
stroke-linecap:round; stroke-linejoin:round;">
<path d="M69685 73821
L112205 73821
" />
</g>
<g style="fill:#000000; fill-opacity:0.0; 
stroke:#000000; stroke-width:39.3701; stroke-opacity:1; 
stroke-linecap:round; stroke-linejoin:round;">
</g>
<g style="fill:#000000; fill-opacity:0.0; 
stroke:#000000; stroke-width:157.48; stroke-opacity:1; 
stroke-linecap:round; stroke-linejoin:round;">
<text x="70079.6" y="74924.1"
textLength="3701.14" font-size="1049.87" lengthAdjust="spacingAndGlyphs"
text-anchor="start" opacity="0">Title: </text>
<path d="M70360 74099
L70810 74099
" />
<path d="M70486 74886
L70585 74099
" />
<path d="M70974 74886
L71039 74361
" />
<path d="M71072 74099
L71030 74136
L71063 74174
L71105 74136
L71072 74099
L71063 74174
" />
<path d="M71302 74361
L71602 74361
" />
<path d="M71447 74099
L71363 74774
L71391 74849
L71461 74886
L71536 74886
" />
<path d="M71911 74886
L71841 74849
L71813 74774
L71897 74099
" />
<path d="M72516 74849
L72436 74886
L72286 74886
L72216 74849
L72187 74774
L72225 74474
L72272 74399
L72352 74361
L72501 74361
L72572 74399
L72600 74474
L72591 74549
L72206 74624
" />
<path d="M72895 74811
L72928 74849
L72886 74886
L72853 74849
L72895 74811
L72886 74886
" />
<path d="M72947 74399
L72980 74436
L72937 74474
L72905 74436
L72947 74399
L72937 74474
" />
</g>
<g style="fill:#000000; fill-opacity:0.0; 
stroke:#000000; stroke-width:39.3701; stroke-opacity:1; 
stroke-linecap:round; stroke-linejoin:round;">
</g>
<g style="fill:#000000; fill-opacity:0.0; 
stroke:#000000; stroke-width:59.0551; stroke-opacity:1; 
stroke-linecap:round; stroke-linejoin:round;">
<text x="70079.6" y="73408.3"
textLength="12465.7" font-size="787.402" lengthAdjust="spacingAndGlyphs"
text-anchor="start" opacity="0">File: OpenDropV4.kicad_pcb</text>
<path d="M70446 73070
L70249 73070
" />
<path d="M70249 73380
L70249 72789
L70530 72789
" />
<path d="M70755 73380
L70755 72986
" />
<path d="M70755 72789
L70727 72817
L70755 72845
L70784 72817
L70755 72789
L70755 72845
" />
<path d="M71121 73380
L71065 73352
L71037 73295
L71037 72789
" />
<path d="M71571 73352
L71515 73380
L71402 73380
L71346 73352
L71318 73295
L71318 73070
L71346 73014
L71402 72986
L71515 72986
L71571 73014
L71599 73070
L71599 73127
L71318 73183
" />
<path d="M71852 73323
L71880 73352
L71852 73380
L71824 73352
L71852 73323
L71852 73380
" />
<path d="M71852 73014
L71880 73042
L71852 73070
L71824 73042
L71852 73014
L71852 73070
" />
<path d="M72696 72789
L72808 72789
L72865 72817
L72921 72874
L72949 72986
L72949 73183
L72921 73295
L72865 73352
L72808 73380
L72696 73380
L72640 73352
L72583 73295
L72555 73183
L72555 72986
L72583 72874
L72640 72817
L72696 72789
" />
<path d="M73202 72986
L73202 73577
" />
<path d="M73202 73014
L73258 72986
L73371 72986
L73427 73014
L73455 73042
L73483 73099
L73483 73267
L73455 73323
L73427 73352
L73371 73380
L73258 73380
L73202 73352
" />
<path d="M73961 73352
L73905 73380
L73793 73380
L73736 73352
L73708 73295
L73708 73070
L73736 73014
L73793 72986
L73905 72986
L73961 73014
L73989 73070
L73989 73127
L73708 73183
" />
<path d="M74242 72986
L74242 73380
" />
<path d="M74242 73042
L74271 73014
L74327 72986
L74411 72986
L74467 73014
L74496 73070
L74496 73380
" />
<path d="M74777 73380
L74777 72789
L74917 72789
L75002 72817
L75058 72874
L75086 72930
L75114 73042
L75114 73127
L75086 73239
L75058 73295
L75002 73352
L74917 73380
L74777 73380
" />
<path d="M75367 73380
L75367 72986
" />
<path d="M75367 73099
L75395 73042
L75424 73014
L75480 72986
L75536 72986
" />
<path d="M75817 73380
L75761 73352
L75733 73323
L75705 73267
L75705 73099
L75733 73042
L75761 73014
L75817 72986
L75902 72986
L75958 73014
L75986 73042
L76014 73099
L76014 73267
L75986 73323
L75958 73352
L75902 73380
L75817 73380
" />
<path d="M76267 72986
L76267 73577
" />
<path d="M76267 73014
L76323 72986
L76436 72986
L76492 73014
L76520 73042
L76548 73099
L76548 73267
L76520 73323
L76492 73352
L76436 73380
L76323 73380
L76267 73352
" />
<path d="M76717 72789
L76914 73380
L77111 72789
" />
<path d="M77561 72986
L77561 73380
" />
<path d="M77420 72761
L77280 73183
L77645 73183
" />
<path d="M77870 73323
L77898 73352
L77870 73380
L77842 73352
L77870 73323
L77870 73380
" />
<path d="M78151 73380
L78151 72789
" />
<path d="M78208 73155
L78376 73380
" />
<path d="M78376 72986
L78151 73211
" />
<path d="M78629 73380
L78629 72986
" />
<path d="M78629 72789
L78601 72817
L78629 72845
L78658 72817
L78629 72789
L78629 72845
" />
<path d="M79164 73352
L79108 73380
L78995 73380
L78939 73352
L78911 73323
L78883 73267
L78883 73099
L78911 73042
L78939 73014
L78995 72986
L79108 72986
L79164 73014
" />
<path d="M79670 73380
L79670 73070
L79642 73014
L79586 72986
L79473 72986
L79417 73014
" />
<path d="M79670 73352
L79614 73380
L79473 73380
L79417 73352
L79389 73295
L79389 73239
L79417 73183
L79473 73155
L79614 73155
L79670 73127
" />
<path d="M80204 73380
L80204 72789
" />
<path d="M80204 73352
L80148 73380
L80036 73380
L79979 73352
L79951 73323
L79923 73267
L79923 73099
L79951 73042
L79979 73014
L80036 72986
L80148 72986
L80204 73014
" />
<path d="M80345 73436
L80795 73436
" />
<path d="M80935 72986
L80935 73577
" />
<path d="M80935 73014
L80992 72986
L81104 72986
L81160 73014
L81188 73042
L81217 73099
L81217 73267
L81188 73323
L81160 73352
L81104 73380
L80992 73380
L80935 73352
" />
<path d="M81723 73352
L81667 73380
L81554 73380
L81498 73352
L81470 73323
L81442 73267
L81442 73099
L81470 73042
L81498 73014
L81554 72986
L81667 72986
L81723 73014
" />
<path d="M81976 73380
L81976 72789
" />
<path d="M81976 73014
L82032 72986
L82145 72986
L82201 73014
L82229 73042
L82257 73099
L82257 73267
L82229 73323
L82201 73352
L82145 73380
L82032 73380
L81976 73352
" />
</g>
<g style="fill:#000000; fill-opacity:0.0; 
stroke:#000000; stroke-width:39.3701; stroke-opacity:1; 
stroke-linecap:round; stroke-linejoin:round;">
</g>
<g style="fill:#000000; fill-opacity:0.0; 
stroke:#000000; stroke-width:59.0551; stroke-opacity:1; 
stroke-linecap:round; stroke-linejoin:round;">
<path d="M69685 71459
L112205 71459
" />
</g>
<g style="fill:#000000; fill-opacity:0.0; 
stroke:#000000; stroke-width:39.3701; stroke-opacity:1; 
stroke-linecap:round; stroke-linejoin:round;">
</g>
<g style="fill:#000000; fill-opacity:0.0; 
stroke:#000000; stroke-width:59.0551; stroke-opacity:1; 
stroke-linecap:round; stroke-linejoin:round;">
<text x="70079.6" y="72345.4"
textLength="3236.78" font-size="787.402" lengthAdjust="spacingAndGlyphs"
text-anchor="start" opacity="0">Sheet: </text>
<path d="M70221 72289
L70305 72317
L70446 72317
L70502 72289
L70530 72260
L70559 72204
L70559 72148
L70530 72092
L70502 72064
L70446 72036
L70334 72007
L70277 71979
L70249 71951
L70221 71895
L70221 71839
L70249 71782
L70277 71754
L70334 71726
L70474 71726
L70559 71754
" />
<path d="M70812 72317
L70812 71726
" />
<path d="M71065 72317
L71065 72007
L71037 71951
L70980 71923
L70896 71923
L70840 71951
L70812 71979
" />
<path d="M71571 72289
L71515 72317
L71402 72317
L71346 72289
L71318 72232
L71318 72007
L71346 71951
L71402 71923
L71515 71923
L71571 71951
L71599 72007
L71599 72064
L71318 72120
" />
<path d="M72077 72289
L72021 72317
L71908 72317
L71852 72289
L71824 72232
L71824 72007
L71852 71951
L71908 71923
L72021 71923
L72077 71951
L72105 72007
L72105 72064
L71824 72120
" />
<path d="M72274 71923
L72499 71923
" />
<path d="M72358 71726
L72358 72232
L72386 72289
L72443 72317
L72499 72317
" />
<path d="M72696 72260
L72724 72289
L72696 72317
L72668 72289
L72696 72260
L72696 72317
" />
<path d="M72696 71951
L72724 71979
L72696 72007
L72668 71979
L72696 71951
L72696 72007
" />
</g>
<g style="fill:#000000; fill-opacity:0.0; 
stroke:#000000; stroke-width:39.3701; stroke-opacity:1; 
stroke-linecap:round; stroke-linejoin:round;">
</g>
<g style="fill:#000000; fill-opacity:0.0; 
stroke:#000000; stroke-width:59.0551; stroke-opacity:1; 
stroke-linecap:round; stroke-linejoin:round;">
<path d="M77559 75396
L77559 76577
" />
</g>
<g style="fill:#000000; fill-opacity:0.0; 
stroke:#000000; stroke-width:39.3701; stroke-opacity:1; 
stroke-linecap:round; stroke-linejoin:round;">
</g>
<g style="fill:#000000; fill-opacity:0.0; 
stroke:#000000; stroke-width:59.0551; stroke-opacity:1; 
stroke-linecap:round; stroke-linejoin:round;">
<path d="M102756 75396
L102756 77955
" />
</g>
<g style="fill:#008484; fill-opacity:0.0; 
stroke:#008484; stroke-width:59.0551; stroke-opacity:1; 
stroke-linecap:round; stroke-linejoin:round;">
</g>
<g style="fill:#008484; fill-opacity:0.0; 
stroke:#008484; stroke-width:39.3701; stroke-opacity:1; 
stroke-linecap:round; stroke-linejoin:round;">
<path d="M44330 26771
L59055 26771
" />
<path d="M42408.2 28391.9 A1923.41 1923.41 0.0 0 0 44318.9 26782.3 " />
<path d="M36318 28385
L42401 28393
" />
<path d="M34420.1 26782.3 A1924.31 1924.31 0.0 0 0 36330.2 28394.4 " />
</g>
<g style="fill:#008484; fill-opacity:0.0; 
stroke:#008484; stroke-width:59.0551; stroke-opacity:1; 
stroke-linecap:round; stroke-linejoin:round;">
<text x="39370.1" y="46259.8"
textLength="3771.09" font-size="524.934" lengthAdjust="spacingAndGlyphs"
text-anchor="middle" opacity="0">Driver Board</text>
<path d="M37607 46241
L37607 45847
L37701 45847
L37757 45866
L37795 45903
L37814 45941
L37832 46016
L37832 46072
L37814 46147
L37795 46184
L37757 46222
L37701 46241
L37607 46241
" />
<path d="M38001 46241
L38001 45978
" />
<path d="M38001 46053
L38020 46016
L38038 45997
L38076 45978
L38113 45978
" />
<path d="M38245 46241
L38245 45978
" />
<path d="M38245 45847
L38226 45866
L38245 45884
L38263 45866
L38245 45847
L38245 45884
" />
<path d="M38395 45978
L38488 46241
L38582 45978
" />
<path d="M38882 46222
L38845 46241
L38770 46241
L38732 46222
L38713 46184
L38713 46034
L38732 45997
L38770 45978
L38845 45978
L38882 45997
L38901 46034
L38901 46072
L38713 46109
" />
<path d="M39070 46241
L39070 45978
" />
<path d="M39070 46053
L39088 46016
L39107 45997
L39145 45978
L39182 45978
" />
<path d="M39745 46034
L39801 46053
L39820 46072
L39838 46109
L39838 46166
L39820 46203
L39801 46222
L39763 46241
L39613 46241
L39613 45847
L39745 45847
L39782 45866
L39801 45884
L39820 45922
L39820 45959
L39801 45997
L39782 46016
L39745 46034
L39613 46034
" />
<path d="M40063 46241
L40026 46222
L40007 46203
L39988 46166
L39988 46053
L40007 46016
L40026 45997
L40063 45978
L40119 45978
L40157 45997
L40176 46016
L40194 46053
L40194 46166
L40176 46203
L40157 46222
L40119 46241
L40063 46241
" />
<path d="M40532 46241
L40532 46034
L40513 45997
L40476 45978
L40401 45978
L40363 45997
" />
<path d="M40532 46222
L40494 46241
L40401 46241
L40363 46222
L40344 46184
L40344 46147
L40363 46109
L40401 46091
L40494 46091
L40532 46072
" />
<path d="M40719 46241
L40719 45978
" />
<path d="M40719 46053
L40738 46016
L40757 45997
L40794 45978
L40832 45978
" />
<path d="M41132 46241
L41132 45847
" />
<path d="M41132 46222
L41094 46241
L41019 46241
L40982 46222
L40963 46203
L40944 46166
L40944 46053
L40963 46016
L40982 45997
L41019 45978
L41094 45978
L41132 45997
" />
</g>
<g style="fill:#008484; fill-opacity:0.0; 
stroke:#008484; stroke-width:39.3701; stroke-opacity:1; 
stroke-linecap:round; stroke-linejoin:round;">
<path d="M56692 54133
L59055 54133
" />
<path d="M54480.3 52854.3 A2559.34 2559.34 0.0 0 0 52263.9 51574.5 " />
<path d="M54480.3 52854.3 A2555.93 2555.93 0.0 0 0 56694.7 54130.7 " />
<path d="M26476.4 51574.8 A2559.06 2559.06 0.0 0 0 24260.2 52854.3 " />
<path d="M22047.2 54133.9 A2559.06 2559.06 0.0 0 0 24263.5 52854.3 " />
<path d="M19685 54133
L22047 54133
" />
<path d="M26472 51574
L52267 51574
" />
</g>
<g style="fill:#008484; fill-opacity:0.0; 
stroke:#008484; stroke-width:59.0551; stroke-opacity:1; 
stroke-linecap:round; stroke-linejoin:round;">
<g transform="rotate(-90 58500 19433.9)">
<text x="58500" y="19630.7"
textLength="1857.8" font-size="524.934" lengthAdjust="spacingAndGlyphs"
text-anchor="middle" opacity="0">RESET</text>
</g>
<path d="M58678 20005
L58490 20136
" />
<path d="M58678 20230
L58284 20230
L58284 20080
L58303 20043
L58321 20024
L58359 20005
L58415 20005
L58453 20024
L58471 20043
L58490 20080
L58490 20230
" />
<path d="M58471 19836
L58471 19705
" />
<path d="M58678 19649
L58678 19836
L58284 19836
L58284 19649
" />
<path d="M58659 19499
L58678 19443
L58678 19349
L58659 19311
L58640 19293
L58603 19274
L58565 19274
L58528 19293
L58509 19311
L58490 19349
L58471 19424
L58453 19461
L58434 19480
L58396 19499
L58359 19499
L58321 19480
L58303 19461
L58284 19424
L58284 19330
L58303 19274
" />
<path d="M58471 19105
L58471 18974
" />
<path d="M58678 18918
L58678 19105
L58284 19105
L58284 18918
" />
<path d="M58284 18805
L58284 18580
" />
<path d="M58678 18693
L58284 18693
" />
</g>
<g style="fill:#008484; fill-opacity:0.0; 
stroke:#008484; stroke-width:78.7402; stroke-opacity:1; 
stroke-linecap:round; stroke-linejoin:round;">
<text x="55950" y="24230.7"
textLength="1614.08" font-size="524.934" lengthAdjust="spacingAndGlyphs"
text-anchor="middle" opacity="0">VGND</text>
<path d="M55218 23818
L55350 24211
L55481 23818
" />
<path d="M55818 23837
L55781 23818
L55725 23818
L55668 23837
L55631 23874
L55612 23911
L55593 23986
L55593 24043
L55612 24118
L55631 24155
L55668 24193
L55725 24211
L55762 24211
L55818 24193
L55837 24174
L55837 24043
L55762 24043
" />
<path d="M56006 24211
L56006 23818
L56231 24211
L56231 23818
" />
<path d="M56418 24211
L56418 23818
L56512 23818
L56568 23837
L56606 23874
L56624 23911
L56643 23986
L56643 24043
L56624 24118
L56606 24155
L56568 24193
L56512 24211
L56418 24211
" />
<text x="53900" y="24630.7"
textLength="1245.97" font-size="524.934" lengthAdjust="spacingAndGlyphs"
text-anchor="middle" opacity="0">D13</text>
<path d="M53421 24611
L53421 24218
L53515 24218
L53571 24237
L53609 24274
L53628 24311
L53646 24386
L53646 24443
L53628 24518
L53609 24555
L53571 24593
L53515 24611
L53421 24611
" />
<path d="M54021 24611
L53796 24611
" />
<path d="M53909 24611
L53909 24218
L53871 24274
L53834 24311
L53796 24330
" />
<path d="M54153 24218
L54396 24218
L54265 24368
L54321 24368
L54359 24386
L54378 24405
L54396 24443
L54396 24536
L54378 24574
L54359 24593
L54321 24611
L54209 24611
L54171 24593
L54153 24574
" />
<text x="51900" y="24680.7"
textLength="1302.21" font-size="524.934" lengthAdjust="spacingAndGlyphs"
text-anchor="middle" opacity="0">LIFE</text>
<path d="M51581 24661
L51393 24661
L51393 24268
" />
<path d="M51712 24661
L51712 24268
" />
<path d="M52031 24455
L51900 24455
" />
<path d="M51900 24661
L51900 24268
L52087 24268
" />
<path d="M52237 24455
L52368 24455
" />
<path d="M52424 24661
L52237 24661
L52237 24268
L52424 24268
" />
</g>
<g style="fill:#008484; fill-opacity:0.0; 
stroke:#008484; stroke-width:118.11; stroke-opacity:1; 
stroke-linecap:round; stroke-linejoin:round;">
<text x="51900" y="13695.3"
textLength="1874.02" font-size="787.402" lengthAdjust="spacingAndGlyphs"
text-anchor="middle" opacity="0">USB</text>
<path d="M51154 13076
L51154 13554
L51182 13610
L51211 13639
L51267 13667
L51379 13667
L51435 13639
L51464 13610
L51492 13554
L51492 13076
" />
<path d="M51745 13639
L51829 13667
L51970 13667
L52026 13639
L52054 13610
L52082 13554
L52082 13498
L52054 13442
L52026 13414
L51970 13385
L51857 13357
L51801 13329
L51773 13301
L51745 13245
L51745 13189
L51773 13132
L51801 13104
L51857 13076
L51998 13076
L52082 13104
" />
<path d="M52532 13357
L52617 13385
L52645 13414
L52673 13470
L52673 13554
L52645 13610
L52617 13639
L52560 13667
L52335 13667
L52335 13076
L52532 13076
L52588 13104
L52617 13132
L52645 13189
L52645 13245
L52617 13301
L52588 13329
L52532 13357
L52335 13357
" />
<text x="24720.1" y="55115.4"
textLength="4652.98" font-size="787.402" lengthAdjust="spacingAndGlyphs"
text-anchor="middle" opacity="0">GaudiLabs</text>
<path d="M22920 54524
L22864 54496
L22779 54496
L22695 54524
L22639 54581
L22610 54637
L22582 54749
L22582 54834
L22610 54946
L22639 55002
L22695 55059
L22779 55087
L22835 55087
L22920 55059
L22948 55030
L22948 54834
L22835 54834
" />
<path d="M23454 55087
L23454 54777
L23426 54721
L23370 54693
L23257 54693
L23201 54721
" />
<path d="M23454 55059
L23398 55087
L23257 55087
L23201 55059
L23173 55002
L23173 54946
L23201 54890
L23257 54862
L23398 54862
L23454 54834
" />
<path d="M23988 54693
L23988 55087
" />
<path d="M23735 54693
L23735 55002
L23763 55059
L23820 55087
L23904 55087
L23960 55059
L23988 55030
" />
<path d="M24523 55087
L24523 54496
" />
<path d="M24523 55059
L24466 55087
L24354 55087
L24298 55059
L24270 55030
L24242 54974
L24242 54806
L24270 54749
L24298 54721
L24354 54693
L24466 54693
L24523 54721
" />
<path d="M24804 55087
L24804 54693
" />
<path d="M24804 54496
L24776 54524
L24804 54552
L24832 54524
L24804 54496
L24804 54552
" />
<path d="M25366 55087
L25085 55087
L25085 54496
" />
<path d="M25816 55087
L25816 54777
L25788 54721
L25732 54693
L25619 54693
L25563 54721
" />
<path d="M25816 55059
L25760 55087
L25619 55087
L25563 55059
L25535 55002
L25535 54946
L25563 54890
L25619 54862
L25760 54862
L25816 54834
" />
<path d="M26098 55087
L26098 54496
" />
<path d="M26098 54721
L26154 54693
L26266 54693
L26323 54721
L26351 54749
L26379 54806
L26379 54974
L26351 55030
L26323 55059
L26266 55087
L26154 55087
L26098 55059
" />
<path d="M26604 55059
L26660 55087
L26772 55087
L26829 55059
L26857 55002
L26857 54974
L26829 54918
L26772 54890
L26688 54890
L26632 54862
L26604 54806
L26604 54777
L26632 54721
L26688 54693
L26772 54693
L26829 54721
" />
</g>
<g style="fill:#008484; fill-opacity:0.0; 
stroke:#008484; stroke-width:78.7402; stroke-opacity:1; 
stroke-linecap:round; stroke-linejoin:round;">
<text x="42850" y="15980.7"
textLength="3415.64" font-size="524.934" lengthAdjust="spacingAndGlyphs"
text-anchor="middle" opacity="0">V4.1, 2021</text>
<path d="M41256 15568
L41387 15961
L41518 15568
" />
<path d="M41818 15699
L41818 15961
" />
<path d="M41725 15549
L41631 15830
L41875 15830
" />
<path d="M42025 15924
L42043 15943
L42025 15961
L42006 15943
L42025 15924
L42025 15961
" />
<path d="M42418 15961
L42193 15961
" />
<path d="M42306 15961
L42306 15568
L42268 15624
L42231 15661
L42193 15680
" />
<path d="M42606 15943
L42606 15961
L42587 15999
L42568 16018
" />
<path d="M43056 15605
L43074 15587
L43112 15568
L43206 15568
L43243 15587
L43262 15605
L43281 15643
L43281 15680
L43262 15736
L43037 15961
L43281 15961
" />
<path d="M43524 15568
L43562 15568
L43599 15587
L43618 15605
L43637 15643
L43656 15718
L43656 15811
L43637 15886
L43618 15924
L43599 15943
L43562 15961
L43524 15961
L43487 15943
L43468 15924
L43449 15886
L43431 15811
L43431 15718
L43449 15643
L43468 15605
L43487 15587
L43524 15568
" />
<path d="M43806 15605
L43824 15587
L43862 15568
L43956 15568
L43993 15587
L44012 15605
L44031 15643
L44031 15680
L44012 15736
L43787 15961
L44031 15961
" />
<path d="M44406 15961
L44181 15961
" />
<path d="M44293 15961
L44293 15568
L44256 15624
L44218 15661
L44181 15680
" />
</g>
<g style="fill:#008484; fill-opacity:0.0; 
stroke:#008484; stroke-width:118.11; stroke-opacity:1; 
stroke-linecap:round; stroke-linejoin:round;">
<text x="57850" y="26329.1"
textLength="1902.14" font-size="787.402" lengthAdjust="spacingAndGlyphs"
text-anchor="middle" opacity="0">GND</text>
<path d="M57400 25738
L57343 25710
L57259 25710
L57175 25738
L57118 25794
L57090 25851
L57062 25963
L57062 26047
L57090 26160
L57118 26216
L57175 26272
L57259 26301
L57315 26301
L57400 26272
L57428 26244
L57428 26047
L57315 26047
" />
<path d="M57681 26301
L57681 25710
L58018 26301
L58018 25710
" />
<path d="M58299 26301
L58299 25710
L58440 25710
L58524 25738
L58581 25794
L58609 25851
L58637 25963
L58637 26047
L58609 26160
L58581 26216
L58524 26272
L58440 26301
L58299 26301
" />
</g>
<g style="fill:#008484; fill-opacity:0.0; 
stroke:#008484; stroke-width:78.7402; stroke-opacity:1; 
stroke-linecap:round; stroke-linejoin:round;">
<text x="49950" y="24680.7"
textLength="922.197" font-size="524.934" lengthAdjust="spacingAndGlyphs"
text-anchor="middle" opacity="0">RX</text>
<path d="M49884 24661
L49753 24474
" />
<path d="M49659 24661
L49659 24268
L49809 24268
L49846 24287
L49865 24305
L49884 24343
L49884 24399
L49865 24436
L49846 24455
L49809 24474
L49659 24474
" />
<path d="M50015 24268
L50278 24661
" />
<path d="M50278 24268
L50015 24661
" />
</g>
<g style="fill:#008484; fill-opacity:0.0; 
stroke:#008484; stroke-width:118.11; stroke-opacity:1; 
stroke-linecap:round; stroke-linejoin:round;">
<text x="20850" y="21929.1"
textLength="1733.41" font-size="787.402" lengthAdjust="spacingAndGlyphs"
text-anchor="middle" opacity="0">OFF</text>
<path d="M20287 21310
L20400 21310
L20456 21338
L20512 21394
L20540 21507
L20540 21704
L20512 21816
L20456 21872
L20400 21901
L20287 21901
L20231 21872
L20175 21816
L20146 21704
L20146 21507
L20175 21394
L20231 21338
L20287 21310
" />
<path d="M20990 21591
L20793 21591
" />
<path d="M20793 21901
L20793 21310
L21074 21310
" />
<path d="M21496 21591
L21299 21591
" />
<path d="M21299 21901
L21299 21310
L21581 21310
" />
<text x="20950" y="18329.1"
textLength="1390.89" font-size="787.402" lengthAdjust="spacingAndGlyphs"
text-anchor="middle" opacity="0">ON</text>
<path d="M20584 17710
L20696 17710
L20753 17738
L20809 17794
L20837 17907
L20837 18104
L20809 18216
L20753 18272
L20696 18301
L20584 18301
L20528 18272
L20471 18216
L20443 18104
L20443 17907
L20471 17794
L20528 17738
L20584 17710
" />
<path d="M21090 18301
L21090 17710
L21428 18301
L21428 17710
" />
<text x="23100" y="16195.3"
textLength="6396.51" font-size="787.402" lengthAdjust="spacingAndGlyphs"
text-anchor="middle" opacity="0">HIGH VOLTAGE</text>
<path d="M20119 16167
L20119 15576
" />
<path d="M20119 15857
L20456 15857
" />
<path d="M20456 16167
L20456 15576
" />
<path d="M20737 16167
L20737 15576
" />
<path d="M21328 15604
L21272 15576
L21187 15576
L21103 15604
L21047 15660
L21019 15717
L20990 15829
L20990 15914
L21019 16026
L21047 16082
L21103 16139
L21187 16167
L21243 16167
L21328 16139
L21356 16110
L21356 15914
L21243 15914
" />
<path d="M21609 16167
L21609 15576
" />
<path d="M21609 15857
L21947 15857
" />
<path d="M21947 16167
L21947 15576
" />
<path d="M22593 15576
L22790 16167
L22987 15576
" />
<path d="M23296 15576
L23409 15576
L23465 15604
L23521 15660
L23549 15773
L23549 15970
L23521 16082
L23465 16139
L23409 16167
L23296 16167
L23240 16139
L23184 16082
L23156 15970
L23156 15773
L23184 15660
L23240 15604
L23296 15576
" />
<path d="M24084 16167
L23803 16167
L23803 15576
" />
<path d="M24196 15576
L24534 15576
" />
<path d="M24365 16167
L24365 15576
" />
<path d="M24702 15998
L24984 15998
" />
<path d="M24646 16167
L24843 15576
L25040 16167
" />
<path d="M25546 15604
L25490 15576
L25405 15576
L25321 15604
L25265 15660
L25237 15717
L25209 15829
L25209 15914
L25237 16026
L25265 16082
L25321 16139
L25405 16167
L25462 16167
L25546 16139
L25574 16110
L25574 15914
L25462 15914
" />
<path d="M25827 15857
L26024 15857
" />
<path d="M26108 16167
L25827 16167
L25827 15576
L26108 15576
" />
</g>
<g style="fill:#008484; fill-opacity:0.0; 
stroke:#008484; stroke-width:236.22; stroke-opacity:1; 
stroke-linecap:round; stroke-linejoin:round;">
<text x="39370.1" y="14874.4"
textLength="8589.99" font-size="1574.8" lengthAdjust="spacingAndGlyphs"
text-anchor="middle" opacity="0">OpenDrop</text>
<path d="M35658 13637
L35883 13637
L35995 13693
L36107 13805
L36164 14030
L36164 14424
L36107 14649
L35995 14761
L35883 14818
L35658 14818
L35545 14761
L35433 14649
L35376 14424
L35376 14030
L35433 13805
L35545 13693
L35658 13637
" />
<path d="M36670 14030
L36670 15211
" />
<path d="M36670 14087
L36782 14030
L37007 14030
L37120 14087
L37176 14143
L37232 14255
L37232 14593
L37176 14705
L37120 14761
L37007 14818
L36782 14818
L36670 14761
" />
<path d="M38188 14761
L38076 14818
L37851 14818
L37739 14761
L37682 14649
L37682 14199
L37739 14087
L37851 14030
L38076 14030
L38188 14087
L38245 14199
L38245 14311
L37682 14424
" />
<path d="M38751 14030
L38751 14818
" />
<path d="M38751 14143
L38807 14087
L38920 14030
L39088 14030
L39201 14087
L39257 14199
L39257 14818
" />
<path d="M39820 14818
L39820 13637
L40101 13637
L40269 13693
L40382 13805
L40438 13918
L40494 14143
L40494 14311
L40438 14536
L40382 14649
L40269 14761
L40101 14818
L39820 14818
" />
<path d="M41001 14818
L41001 14030
" />
<path d="M41001 14255
L41057 14143
L41113 14087
L41226 14030
L41338 14030
" />
<path d="M41901 14818
L41788 14761
L41732 14705
L41676 14593
L41676 14255
L41732 14143
L41788 14087
L41901 14030
L42069 14030
L42182 14087
L42238 14143
L42294 14255
L42294 14593
L42238 14705
L42182 14761
L42069 14818
L41901 14818
" />
<path d="M42800 14030
L42800 15211
" />
<path d="M42800 14087
L42913 14030
L43138 14030
L43250 14087
L43307 14143
L43363 14255
L43363 14593
L43307 14705
L43250 14761
L43138 14818
L42913 14818
L42800 14761
" />
</g>
<g style="fill:#008484; fill-opacity:0.0; 
stroke:#008484; stroke-width:118.11; stroke-opacity:1; 
stroke-linecap:round; stroke-linejoin:round;">
<text x="41450" y="21779.1"
textLength="7618.67" font-size="787.402" lengthAdjust="spacingAndGlyphs"
text-anchor="middle" opacity="0">DIGITAL BIOLOGY</text>
<path d="M37934 21751
L37934 21160
L38075 21160
L38159 21188
L38216 21244
L38244 21301
L38272 21413
L38272 21497
L38244 21610
L38216 21666
L38159 21722
L38075 21751
L37934 21751
" />
<path d="M38525 21751
L38525 21160
" />
<path d="M39115 21188
L39059 21160
L38975 21160
L38890 21188
L38834 21244
L38806 21301
L38778 21413
L38778 21497
L38806 21610
L38834 21666
L38890 21722
L38975 21751
L39031 21751
L39115 21722
L39144 21694
L39144 21497
L39031 21497
" />
<path d="M39397 21751
L39397 21160
" />
<path d="M39593 21160
L39931 21160
" />
<path d="M39762 21751
L39762 21160
" />
<path d="M40100 21582
L40381 21582
" />
<path d="M40043 21751
L40240 21160
L40437 21751
" />
<path d="M40915 21751
L40634 21751
L40634 21160
" />
<path d="M41759 21441
L41843 21469
L41871 21497
L41899 21554
L41899 21638
L41871 21694
L41843 21722
L41787 21751
L41562 21751
L41562 21160
L41759 21160
L41815 21188
L41843 21216
L41871 21272
L41871 21329
L41843 21385
L41815 21413
L41759 21441
L41562 21441
" />
<path d="M42153 21751
L42153 21160
" />
<path d="M42546 21160
L42659 21160
L42715 21188
L42771 21244
L42799 21357
L42799 21554
L42771 21666
L42715 21722
L42659 21751
L42546 21751
L42490 21722
L42434 21666
L42406 21554
L42406 21357
L42434 21244
L42490 21188
L42546 21160
" />
<path d="M43334 21751
L43052 21751
L43052 21160
" />
<path d="M43643 21160
L43755 21160
L43812 21188
L43868 21244
L43896 21357
L43896 21554
L43868 21666
L43812 21722
L43755 21751
L43643 21751
L43587 21722
L43530 21666
L43502 21554
L43502 21357
L43530 21244
L43587 21188
L43643 21160
" />
<path d="M44458 21188
L44402 21160
L44318 21160
L44234 21188
L44177 21244
L44149 21301
L44121 21413
L44121 21497
L44149 21610
L44177 21666
L44234 21722
L44318 21751
L44374 21751
L44458 21722
L44487 21694
L44487 21497
L44374 21497
" />
<path d="M44852 21469
L44852 21751
" />
<path d="M44655 21160
L44852 21469
L45049 21160
" />
</g>
<g style="fill:#008484; fill-opacity:0.0; 
stroke:#008484; stroke-width:39.3701; stroke-opacity:1; 
stroke-linecap:round; stroke-linejoin:round;">
<path d="M19685 26771
L34425 26771
" />
</g>
<g style="fill:#008484; fill-opacity:0.0; 
stroke:#008484; stroke-width:59.0551; stroke-opacity:1; 
stroke-linecap:round; stroke-linejoin:round;">
<circle cx="22047.2" cy="52755.9" r="1220.47" /> 
</g>
<g style="fill:#008484; fill-opacity:1.0; 
stroke:#008484; stroke-width:3.93701; stroke-opacity:1; 
stroke-linecap:round; stroke-linejoin:round;">
<path style="fill:#008484; fill-opacity:1.0; 
stroke:#008484; stroke-width:3.93701; stroke-opacity:1; 
stroke-linecap:round; stroke-linejoin:round;fill-rule:evenodd;"
d="M 39621.9,15750.4
39680.4,15782.1
39733.5,15817.2
39851.9,15901.5
39693,15955.2
39610,15982.4
39546.6,16001.7
39517,16008.9
39504.8,15987.3
39500.4,15940.1
39511.8,15866.8
39539.6,15796.7
39575,15749.6
39588.8,15741.7
Z" /> 
<path style="fill:#008484; fill-opacity:1.0; 
stroke:#008484; stroke-width:3.93701; stroke-opacity:1; 
stroke-linecap:round; stroke-linejoin:round;fill-rule:evenodd;"
d="M 38906.1,15849.4
38990.6,15869.2
39079.1,15896
39157.2,15926.3
39175,15934.8
39251.5,15982.8
39318.9,16039.5
39322.7,16043.5
39383,16108.1
39262.2,16214.7
39158.3,16292.5
39063.7,16331.7
39039.5,16336.3
38964,16350.2
38905.2,16365.8
38896.3,16369.2
38865.1,16370.2
38839.6,16335.6
38822.9,16291.8
38808,16225.4
38797.2,16136.2
38791.1,16038.7
38790.4,15947.7
38795.4,15877.9
38806,15844.5
38839.8,15840
Z" /> 
<path style="fill:#008484; fill-opacity:1.0; 
stroke:#008484; stroke-width:3.93701; stroke-opacity:1; 
stroke-linecap:round; stroke-linejoin:round;fill-rule:evenodd;"
d="M 40692.9,16196.6
40794.5,16329.5
40853,16448.2
40870.5,16559.6
40849,16670.9
40839.5,16695.5
40806.8,16753.2
40758.2,16797.7
40685.3,16832.9
40579.8,16862.8
40433.3,16891.3
40419.9,16893.6
40311.1,16912.9
40217.9,16931
40153.3,16945.5
40134.3,16951
40104.5,16955.8
40108,16927.4
40111.2,16919.4
40172.3,16731.6
40199.1,16553.1
40200,16517.7
40202,16439.5
40213.6,16395.1
40242.9,16368.5
40286,16348.6
40351.7,16311.6
40431.9,16253.4
40489.1,16204.8
40606.1,16096.8
Z" /> 
<path style="fill:#008484; fill-opacity:1.0; 
stroke:#008484; stroke-width:3.93701; stroke-opacity:1; 
stroke-linecap:round; stroke-linejoin:round;fill-rule:evenodd;"
d="M 39935.9,16046.1
39962.3,16080.6
39994.2,16151
39994.8,16152.3
40055.2,16318
40082.1,16461.4
40077.5,16595.3
40073.5,16620
40051.4,16702.7
40015.2,16800.6
39970.4,16902.4
39922.6,16996.7
39877.3,17072.4
39839.9,17118.3
39825,17126.6
39779.5,17121
39711.3,17100.4
39687.5,17091.3
39576.9,17037.4
39459.7,16966
39352.8,16888.5
39272.8,16816
39262.9,16804.8
39212.7,16709
39199.1,16594.9
39222.4,16478.6
39251.5,16419
39331.4,16323
39445.9,16228.1
39580.1,16143.7
39719.3,16079.1
39843.8,16044.5
39901,16037.4
Z" /> 
<path style="fill:#008484; fill-opacity:1.0; 
stroke:#008484; stroke-width:3.93701; stroke-opacity:1; 
stroke-linecap:round; stroke-linejoin:round;fill-rule:evenodd;"
d="M 39060,16475.2
39072.9,16524.6
39075,16584.9
39092.5,16723.3
39147.1,16846.1
39242.3,16957.2
39381.1,17060.8
39543.8,17149.5
39649.3,17202.6
39708.8,17237.6
39722.2,17255.2
39689.8,17256.1
39611.7,17241.1
39562.5,17229.5
39475,17215.7
39352.3,17206.3
39209,17201.5
39059.6,17201.5
38918.9,17206.5
38803.8,17216.6
38645.1,17236.9
38653.8,16999.7
38662.7,16862.8
38682.1,16762.7
38718.6,16686.2
38779,16620
38869.8,16551.1
38885.9,16540.1
38973.4,16484.6
39029.1,16462.4
Z" /> 
<path style="fill:#008484; fill-opacity:1.0; 
stroke:#008484; stroke-width:3.93701; stroke-opacity:1; 
stroke-linecap:round; stroke-linejoin:round;fill-rule:evenodd;"
d="M 37964.6,16140.4
38090.9,16147.3
38184.7,16158.9
38263.8,16178.9
38345.6,16211.1
38385.8,16229.4
38486.5,16281
38583.8,16338.4
38652.5,16385.9
38750.2,16463.2
38663.4,16564.5
38567.8,16710.9
38515,16878.3
38503.6,17071
38504.4,17085.9
38514.1,17258.9
38325.8,17256.3
38218.3,17252.1
38117,17243.2
38043.7,17231.7
38043.4,17231.7
37882.9,17174.1
37739.1,17085
37621.3,16972.5
37539.3,16844.8
37515.2,16779.9
37481.3,16629.7
37462.5,16482.2
37460.5,16353.5
37469.5,16284.7
37488.7,16228.1
37523.9,16193.8
37591,16167.3
37600.8,16164.3
37713.8,16144.3
37872.5,16138.3
Z" /> 
<path style="fill:#008484; fill-opacity:1.0; 
stroke:#008484; stroke-width:3.93701; stroke-opacity:1; 
stroke-linecap:round; stroke-linejoin:round;fill-rule:evenodd;"
d="M 41283.2,16558.8
41299,16580.4
41303.6,16588.6
41318.4,16638.6
41331.6,16725.6
41341.5,16836.7
41345.2,16908.9
41342,17136.7
41312.4,17335.1
41253.5,17518.8
41207.2,17619.6
41167,17683.4
41104.6,17764.2
41028.3,17853.6
40945.8,17942.9
40865.3,18023.8
40794.7,18087.8
40742.1,18126.4
40721.8,18133.8
40680.1,18123.3
40614,18096.7
40580,18080.6
40488.5,18021.7
40380.9,17931.2
40268.1,17819.6
40160.7,17697.7
40073,17580.9
40011.7,17496.1
39950,17419.3
39905.6,17371.5
39837.5,17308.3
39912.5,17245.7
40040.3,17150.5
40165.3,17085.3
40306.8,17041.9
40430.3,17019.3
40625,16979.2
40789.1,16918.2
40939.2,16828
41091.7,16700.6
41101.4,16691.6
41181,16617.2
41232.4,16573
41263.7,16554.9
Z" /> 
<path style="fill:#008484; fill-opacity:1.0; 
stroke:#008484; stroke-width:3.93701; stroke-opacity:1; 
stroke-linecap:round; stroke-linejoin:round;fill-rule:evenodd;"
d="M 37358.6,17040.2
37465,17092
37483.9,17105.5
37644.5,17221.6
37780,17307.9
37902.1,17368.1
38022.6,17406.1
38153.3,17425.7
38305.9,17430.6
38475,17425.6
38621.1,17417.3
38773.5,17406.2
38912.1,17393.9
38998.4,17384.3
39202.2,17370
39394.4,17383
39398.4,17383.6
39511.7,17405.9
39626.3,17439.6
39730.5,17480
39812.4,17522.4
39860.4,17562
39866.4,17572.4
39859,17622.1
39808.4,17696.3
39714.9,17794.7
39578.5,17917
39565.8,17927.8
39444.1,18028.5
39319.9,18127.8
39199.4,18220.9
39089,18303.2
38995,18370
38923.7,18416.6
38881.4,18438.6
38873,18438.6
38858,18405.9
38836.8,18343.1
38826.7,18308.9
38782.9,18195.5
38727.7,18129.4
38662.6,18108.9
38588.3,18125
38488.6,18169
38374.8,18234.4
38257.7,18315
38148.7,18404.2
38140.8,18411.3
38054.7,18485.9
37995.9,18527.1
37967.1,18533.2
37965.1,18529.8
37954.4,18491.6
37934.4,18418.3
37908.8,18323.4
37898.2,18283.9
37830.2,18052.2
37760.8,17863.8
37686.4,17712.1
37603.6,17590.5
37508.6,17492.4
37445.8,17443
37327.9,17365
37219.9,17309.9
37101,17268.9
36969.9,17237.1
36769.2,17193.9
36949.1,17111
37108.2,17049.7
37242.1,17026.1
Z" /> 
<path style="fill:#008484; fill-opacity:1.0; 
stroke:#008484; stroke-width:3.93701; stroke-opacity:1; 
stroke-linecap:round; stroke-linejoin:round;fill-rule:evenodd;"
d="M 38059.3,18700.6
38090.1,18709.2
38214.5,18761.5
38325.6,18830
38416.5,18908
38480.7,18988.6
38511.4,19065
38502.4,19129.3
38446.2,19189.4
38349.5,19243.8
38222,19287.8
38138.4,19306.6
38038.5,19319.3
37911.6,19327.4
37771.7,19330.7
37632.7,19329.4
37508.5,19323.4
37413.1,19312.8
37380.3,19305.6
37305.3,19263
37267.4,19193.9
37266.4,19105.5
37302.4,19005
37375.5,18899.6
37377.5,18897.4
37411,18869.8
37589.9,18869.8
37592.5,18883
37605.9,18914.6
37632.9,18937.3
37683,18955
37766,18971.2
37857.9,18985
37950.3,19001.2
38025,19019.9
38066.4,19037.1
38066.8,19037.4
38088.4,19078.8
38099.6,19146.2
38100,19162.4
38102.4,19224.6
38116.4,19248.7
38152.2,19246.7
38168.8,19242.7
38242.4,19220.4
38317.8,19192.3
38395.3,19142.3
38441.8,19075.6
38450,19034.3
38429.2,18992.5
38373.8,18937.4
38293.9,18877.5
38199.8,18821.5
38188.9,18815.9
38119.8,18784
38057.8,18766.4
37984.9,18760.3
37883.6,18762.7
37859.5,18763.9
37729.5,18775.5
37644.4,18795.6
37599.5,18826.4
37589.9,18869.8
37411,18869.8
37479.6,18813.2
37614.3,18747.3
37766.1,18703.9
37919.6,18687
Z" /> 
<path style="fill:#008484; fill-opacity:1.0; 
stroke:#008484; stroke-width:3.93701; stroke-opacity:1; 
stroke-linecap:round; stroke-linejoin:round;fill-rule:evenodd;"
d="M 36874.5,17403.8
37021.6,17428.1
37065.1,17441.1
37236.2,17517.2
37382.7,17615.5
37492.5,17727.6
37497.5,17734.3
37536.7,17803.2
37584.5,17909.4
37636.5,18042.2
37688.8,18190.4
37737.3,18343.1
37771.4,18464.7
37795.8,18558.1
37691.8,18586.1
37600.3,18615.9
37511.5,18652.6
37500.1,18658.1
37458.8,18677.6
37423.1,18686.5
37381.3,18683.1
37321.6,18665.9
37232.3,18633.2
37179.5,18613
37062.7,18570.6
36982.9,18547.6
36931.9,18542.2
36904.7,18550.2
36868.1,18599.6
36844.6,18686
36834.9,18797.7
36839.5,18923.3
36858.8,19051.4
36878.4,19126.8
36920.2,19205.5
36986.3,19275.1
37061.3,19321.9
37113.6,19333.9
37171.6,19345.3
37248.1,19374.3
37280.5,19390.1
37327.5,19412.5
37375.5,19428
37434.7,19438
37515.3,19443.5
37627.4,19445.9
37750,19446.4
37916.4,19444.6
38044.1,19438.7
38144.3,19427.6
38228.2,19410.3
38262.5,19400.6
38475.7,19310.5
38677.7,19176.1
38862.5,19003
39023.9,18796.6
39125,18625.3
39164,18559.3
39211.2,18504
39277.8,18448.8
39375,18383.1
39401.2,18366.5
39564.1,18272.5
39713.3,18207.7
39858.8,18171.4
40010.2,18162.8
40177.3,18181.3
40370.1,18226.2
40552.2,18281.5
40696.9,18325.4
40826.8,18358.8
40930.3,18379
40983.4,18383.9
41051.9,18386.8
41093.9,18394.2
41100,18399.1
41089.1,18427.3
41060.4,18486.5
41021.1,18562.5
40945.9,18685.3
40849.1,18817.3
40742.2,18944.7
40636.9,19053.4
40556.9,19120.9
40501,19163.6
40469.8,19200.2
40455.8,19247.2
40451.7,19321.4
40451.2,19358.9
40431.9,19565.2
40376.1,19771.7
40305.8,19940.6
40236.5,20068.8
40151,20199.7
40059.1,20319.8
39970.9,20415.7
39922.9,20456.7
39827.8,20504.6
39705.7,20526.4
39553.7,20521.9
39369,20490.6
39148.8,20432.4
38890.2,20346.7
38850,20332.3
38691.8,20275.2
38571.9,20234.1
38481.1,20208
38410.9,20195.9
38352.1,20196.8
38296.1,20209.5
38233.9,20233.2
38182.1,20255.7
38093.1,20292.8
38023.9,20312.6
37960.5,20313.9
37888.9,20295.8
37795.3,20257.2
37718.9,20222.2
37625,20185
37552.7,20169.1
37525.8,20171.1
37489.2,20193.4
37425,20243.1
37342,20312.9
37249,20395.7
37239.9,20404.1
37068.1,20554.5
36920.3,20666.7
36792.2,20743.8
36678.9,20788.5
36605,20802.2
36529.6,20803.7
36459.5,20789.3
36375.6,20754.1
36329.7,20731
36186.2,20637.6
36036.9,20505.8
36002.3,20470.3
35938.6,20397.8
35861.9,20301.9
35776.5,20189
35686.9,20065.5
35597.4,19937.9
35512.4,19812.7
35436.3,19696.3
35373.5,19595.1
35328.4,19515.6
35305.3,19464.1
35306.1,19447.4
35338.8,19444.3
35414.5,19440.7
35525.8,19436.9
35665.9,19433.2
35827.4,19429.6
35967.1,19427.1
36166.3,19423.4
36321.6,19419.4
36439.2,19414.5
36525.3,19408.4
36586,19400.5
36627.6,19390.5
36656.1,19377.7
36660.9,19374.7
36710.5,19319.8
36724.2,19254.1
36699.4,19195
36689,19185.1
36651.2,19171.9
36574.4,19157.9
36469.6,19144.6
36347.8,19133.6
36342.4,19133.3
36143.4,19113.6
35982.4,19083.7
35847.9,19040.2
35728.4,18979.9
35656.6,18932.3
35549.1,18855.1
35468.3,18923.3
35401.3,18971
35310.5,19024.1
35209.5,19076.2
35112,19120.3
35031.6,19150
34987.1,19158.9
34946.4,19148.2
34871,19118.8
34771,19075.1
34656.2,19021.1
34627.9,19007.2
34505.2,18946.2
34421,18902
34368.5,18869.7
34341.2,18844.2
34332.5,18820.8
34335.8,18794.4
34336.8,18790.2
34369.7,18705.5
34427,18601.2
34498.9,18494
34544,18436.5
34615,18351.7
34988.8,18442.8
35123.9,18474.7
35246.6,18501.7
35346.5,18521.7
35413.2,18532.5
35430.1,18533.9
35533,18515.6
35613,18465.8
35647.2,18417.4
35672.4,18333.8
35657.2,18266.2
35599.1,18199.5
35523.3,18132
35567.9,18055.3
35626.4,17980.2
35719.7,17889.8
35837.9,17791.3
35970.9,17691.9
36109.1,17598.9
36242.3,17519.4
36360.9,17460.8
36406.5,17443.2
36546.1,17411.4
36709.1,17398.2
Z" /> 
</g>
<g style="fill:#008484; fill-opacity:1.0; 
stroke:#008484; stroke-width:59.0551; stroke-opacity:1; 
stroke-linecap:round; stroke-linejoin:round;">
</g>
<g style="fill:#008484; fill-opacity:0.0; 
stroke:#008484; stroke-width:59.0551; stroke-opacity:1; 
stroke-linecap:round; stroke-linejoin:round;">
<path d="M24795 18234
L24795 17151
" />
<path d="M24795 22269
L24795 21187
" />
<path d="M22039 22466
L24598 22466
" />
<path d="M22039 16954
L24598 16954
" />
<path d="M21842 18234
L21842 17151
" />
<path d="M21842 22269
L21842 21187
" />
<path d="M22039.4 16954.7 A196.85 196.85 0.0 0 0 21842.5 17151.6 " />
<path d="M24795.3 17151.6 A196.85 196.85 0.0 0 0 24598.4 16954.7 " />
<path d="M24598.4 22466.5 A196.85 196.85 0.0 0 0 24795.3 22269.7 " />
<path d="M21842.5 22269.7 A196.85 196.85 0.0 0 0 22039.4 22466.5 " />
<path d="M23818 22486
L22818 22486
" />
<path d="M24795 21210
L24795 18210
" />
<path d="M22818 16935
L23818 16935
" />
<path d="M21842 18210
L21842 21210
" />
</g>
<g style="fill:#008484; fill-opacity:0.0; 
stroke:#008484; stroke-width:19.685; stroke-opacity:1; 
stroke-linecap:round; stroke-linejoin:round;">
<circle cx="30807.1" cy="53523.6" r="139.194" /> 
<circle cx="29035.4" cy="53523.6" r="139.194" /> 
<circle cx="29035.4" cy="55295.3" r="139.194" /> 
<circle cx="30807.1" cy="55295.3" r="139.194" /> 
<path d="M28740 53425
L28346 53425
" />
<path d="M28346 53425
L28346 53622
" />
<path d="M28346 53622
L28740 53622
" />
<path d="M31102 53622
L31496 53622
" />
<path d="M31496 53622
L31496 53425
" />
<path d="M31496 53425
L31102 53425
" />
<path d="M31102 55393
L31496 55393
" />
<path d="M31496 55393
L31496 55196
" />
<path d="M31496 55196
L31102 55196
" />
<path d="M28740 55393
L28346 55393
" />
<path d="M28346 55393
L28346 55196
" />
<path d="M28740 55196
L28346 55196
" />
<path d="M28740 55590
L28740 53228
" />
<path d="M28740 53228
L31102 53228
" />
<path d="M31102 53228
L31102 55590
" />
<circle cx="29921.3" cy="54409.4" r="688.661" /> 
<path d="M31102 55590
L28740 55590
" />
<circle cx="49704.7" cy="53523.6" r="139.194" /> 
<circle cx="47933.1" cy="53523.6" r="139.194" /> 
<circle cx="47933.1" cy="55295.3" r="139.194" /> 
<circle cx="49704.7" cy="55295.3" r="139.194" /> 
<path d="M47637 53425
L47244 53425
" />
<path d="M47244 53425
L47244 53622
" />
<path d="M47244 53622
L47637 53622
" />
<path d="M50000 53622
L50393 53622
" />
<path d="M50393 53622
L50393 53425
" />
<path d="M50393 53425
L50000 53425
" />
<path d="M50000 55393
L50393 55393
" />
<path d="M50393 55393
L50393 55196
" />
<path d="M50393 55196
L50000 55196
" />
<path d="M47637 55393
L47244 55393
" />
<path d="M47244 55393
L47244 55196
" />
<path d="M47637 55196
L47244 55196
" />
<path d="M47637 55590
L47637 53228
" />
<path d="M47637 53228
L50000 53228
" />
<path d="M50000 53228
L50000 55590
" />
<circle cx="48818.9" cy="54409.4" r="688.661" /> 
<path d="M50000 55590
L47637 55590
" />
</g>
<g style="fill:#008484; fill-opacity:0.0; 
stroke:#008484; stroke-width:59.0551; stroke-opacity:1; 
stroke-linecap:round; stroke-linejoin:round;">
<path d="M57244 14498
L56456 14498
" />
<path d="M57244 14498
L57244 15285
" />
<path d="M57244 22057
L57244 21309
" />
<path d="M57244 22057
L56456 22057
" />
<path d="M46692 22057
L47480 22057
" />
<path d="M46692 22057
L46692 21230
" />
<path d="M46692 14498
L46692 15285
" />
<path d="M46692 14498
L47480 14498
" />
<path d="M49148 18891
L49148 20394
" />
<path d="M48164 20074
L48914 20074
" />
<path d="M48914 20074
L48914 20394
" />
<path d="M48914 20394
L55022 20394
" />
<path d="M55022 20394
L55022 20074
" />
<path d="M55022 20074
L55772 20074
" />
<path d="M54788 20394
L54788 18891
" />
<path d="M55592 20074
L55592 20614
" />
<path d="M55022 20354
L55272 20354
" />
<path d="M55272 20074
L55272 20614
" />
<path d="M48914 20354
L48664 20354
" />
<path d="M48344 20074
L48344 20614
" />
<path d="M48664 20074
L48664 20614
" />
<path d="M47814 20934
L47814 20614
" />
<path d="M47814 20614
L48854 20614
" />
<path d="M48854 20614
L48854 20934
" />
<path d="M47814 20934
L56122 20934
" />
<path d="M56122 20934
L56122 20614
" />
<path d="M56122 20614
L55082 20614
" />
<path d="M55082 20614
L55082 20934
" />
<path d="M49148 18891
L54788 18891
" />
</g>
<g style="fill:#008484; fill-opacity:0.0; 
stroke:#008484; stroke-width:60; stroke-opacity:1; 
stroke-linecap:round; stroke-linejoin:round;">
<path d="M41457 54770
L39370 56857
" />
<path d="M39370 56857
L37282 54770
" />
<path d="M37282 54770
L39370 52682
" />
<path d="M39370 52682
L41457 54770
" />
</g>
<g style="fill:#008484; fill-opacity:0.0; 
stroke:#008484; stroke-width:59.0551; stroke-opacity:1; 
stroke-linecap:round; stroke-linejoin:round;">
<circle cx="22047.2" cy="29133.9" r="1220.47" /> 
<circle cx="56692.9" cy="29133.9" r="1220.47" /> 
<circle cx="56692.9" cy="52755.9" r="1220.47" /> 
</g>
<g style="fill:#008484; fill-opacity:0.0; 
stroke:#008484; stroke-width:47.2441; stroke-opacity:1; 
stroke-linecap:round; stroke-linejoin:round;">
<path d="M49415 24073
L50314 24073
" />
<path d="M49415 23494
L49415 24073
" />
<path d="M50314 23494
L49415 23494
" />
<path d="M52283 23494
L51383 23494
" />
<path d="M51383 23494
L51383 24073
" />
<path d="M51383 24073
L52283 24073
" />
<path d="M54251 23494
L53352 23494
" />
<path d="M53352 23494
L53352 24073
" />
<path d="M53352 24073
L54251 24073
" />
</g>
<g style="fill:#008484; fill-opacity:0.0; 
stroke:#008484; stroke-width:59.0551; stroke-opacity:1; 
stroke-linecap:round; stroke-linejoin:round;">
<text x="34800" y="55769.3"
textLength="1297.15" font-size="524.934" lengthAdjust="spacingAndGlyphs"
text-anchor="middle" opacity="0">SP1</text>
<path d="M34303 55731
L34359 55750
L34453 55750
L34490 55731
L34509 55713
L34528 55675
L34528 55638
L34509 55600
L34490 55581
L34453 55563
L34378 55544
L34340 55525
L34321 55506
L34303 55469
L34303 55431
L34321 55394
L34340 55375
L34378 55356
L34471 55356
L34528 55375
" />
<path d="M34696 55750
L34696 55356
L34846 55356
L34884 55375
L34903 55394
L34921 55431
L34921 55488
L34903 55525
L34884 55544
L34846 55563
L34696 55563
" />
<path d="M35296 55750
L35071 55750
" />
<path d="M35184 55750
L35184 55356
L35146 55413
L35109 55450
L35071 55469
" />
<g transform="rotate(-90 21448.8 19710.6)">
<text x="21448.8" y="19907.5"
textLength="1276.62" font-size="524.934" lengthAdjust="spacingAndGlyphs"
text-anchor="middle" opacity="0">SW5</text>
</g>
<path d="M21608 20235
L21626 20179
L21626 20085
L21608 20048
L21589 20029
L21551 20010
L21514 20010
L21476 20029
L21458 20048
L21439 20085
L21420 20160
L21401 20198
L21383 20216
L21345 20235
L21308 20235
L21270 20216
L21251 20198
L21233 20160
L21233 20066
L21251 20010
" />
<path d="M21233 19879
L21626 19785
L21345 19710
L21626 19635
L21233 19541
" />
<path d="M21233 19204
L21233 19391
L21420 19410
L21401 19391
L21383 19354
L21383 19260
L21401 19223
L21420 19204
L21458 19185
L21551 19185
L21589 19204
L21608 19223
L21626 19260
L21626 19354
L21608 19391
L21589 19410
" />
<text x="29918.9" y="56299.2"
textLength="1276.62" font-size="524.934" lengthAdjust="spacingAndGlyphs"
text-anchor="middle" opacity="0">SW1</text>
<path d="M29393 56261
L29450 56280
L29543 56280
L29581 56261
L29600 56242
L29618 56205
L29618 56167
L29600 56130
L29581 56111
L29543 56092
L29468 56074
L29431 56055
L29412 56036
L29393 55999
L29393 55961
L29412 55924
L29431 55905
L29468 55886
L29562 55886
L29618 55905
" />
<path d="M29750 55886
L29843 56280
L29918 55999
L29993 56280
L30087 55886
" />
<path d="M30443 56280
L30218 56280
" />
<path d="M30331 56280
L30331 55886
L30293 55943
L30256 55980
L30218 55999
" />
<text x="48768.9" y="56299.2"
textLength="1276.62" font-size="524.934" lengthAdjust="spacingAndGlyphs"
text-anchor="middle" opacity="0">SW2</text>
<path d="M48243 56261
L48300 56280
L48393 56280
L48431 56261
L48450 56242
L48468 56205
L48468 56167
L48450 56130
L48431 56111
L48393 56092
L48318 56074
L48281 56055
L48262 56036
L48243 55999
L48243 55961
L48262 55924
L48281 55905
L48318 55886
L48412 55886
L48468 55905
" />
<path d="M48600 55886
L48693 56280
L48768 55999
L48843 56280
L48937 55886
" />
<path d="M49068 55924
L49087 55905
L49125 55886
L49218 55886
L49256 55905
L49275 55924
L49293 55961
L49293 55999
L49275 56055
L49050 56280
L49293 56280
" />
<text x="51968.5" y="19491.7"
textLength="826.678" font-size="524.934" lengthAdjust="spacingAndGlyphs"
text-anchor="middle" opacity="0">S1</text>
<path d="M51668 19454
L51724 19472
L51818 19472
L51856 19454
L51874 19435
L51893 19397
L51893 19360
L51874 19323
L51856 19304
L51818 19285
L51743 19266
L51706 19248
L51687 19229
L51668 19191
L51668 19154
L51687 19116
L51706 19098
L51743 19079
L51837 19079
L51893 19098
" />
<path d="M52268 19472
L52043 19472
" />
<path d="M52155 19472
L52155 19079
L52118 19135
L52080 19173
L52043 19191
" />
<text x="40885.8" y="56811"
textLength="1126.64" font-size="524.934" lengthAdjust="spacingAndGlyphs"
text-anchor="middle" opacity="0">JS2</text>
<path d="M40567 56398
L40567 56679
L40548 56736
L40510 56773
L40454 56792
L40417 56792
" />
<path d="M40735 56773
L40792 56792
L40885 56792
L40923 56773
L40942 56754
L40960 56717
L40960 56679
L40942 56642
L40923 56623
L40885 56604
L40810 56586
L40773 56567
L40754 56548
L40735 56511
L40735 56473
L40754 56436
L40773 56417
L40810 56398
L40904 56398
L40960 56417
" />
<path d="M41110 56436
L41129 56417
L41167 56398
L41260 56398
L41298 56417
L41317 56436
L41335 56473
L41335 56511
L41317 56567
L41092 56792
L41335 56792
" />
<g transform="rotate(45 39370 56440.3)">
<text x="39370" y="56637.2"
textLength="432.977" font-size="524.934" lengthAdjust="spacingAndGlyphs"
text-anchor="middle" opacity="0">d</text>
</g>
<path d="M39303 56625
L39582 56347
" />
<path d="M39316 56612
L39277 56599
L39224 56546
L39210 56506
L39210 56480
L39224 56440
L39303 56360
L39343 56347
L39369 56347
L39409 56360
L39462 56413
L39476 56453
" />
<g transform="rotate(45 37699.7 54770)">
<text x="37699.7" y="54966.9"
textLength="414.23" font-size="524.934" lengthAdjust="spacingAndGlyphs"
text-anchor="middle" opacity="0">c</text>
</g>
<path d="M37653 54948
L37613 54935
L37560 54882
L37547 54842
L37547 54816
L37560 54776
L37640 54697
L37679 54683
L37706 54683
L37746 54697
L37799 54750
L37812 54789
" />
<g transform="rotate(45 41040.3 54770)">
<text x="41040.3" y="54966.9"
textLength="432.977" font-size="524.934" lengthAdjust="spacingAndGlyphs"
text-anchor="middle" opacity="0">b</text>
</g>
<path d="M40854 54836
L41133 54557
" />
<path d="M41027 54663
L41066 54677
L41119 54730
L41133 54770
L41133 54796
L41119 54836
L41040 54915
L41000 54929
L40974 54929
L40934 54915
L40881 54862
L40867 54823
" />
<g transform="rotate(45 39370 53099.7)">
<text x="39370" y="53296.5"
textLength="432.977" font-size="524.934" lengthAdjust="spacingAndGlyphs"
text-anchor="middle" opacity="0">a</text>
</g>
<path d="M39303 53285
L39449 53139
L39462 53099
L39449 53059
L39396 53006
L39356 52993
" />
<path d="M39316 53272
L39277 53258
L39210 53192
L39197 53152
L39210 53112
L39237 53086
L39277 53073
L39316 53086
L39383 53152
L39423 53165
" />
<text x="55920.1" y="25816.9"
textLength="845.426" font-size="524.934" lengthAdjust="spacingAndGlyphs"
text-anchor="middle" opacity="0">P1</text>
<path d="M55629 25798
L55629 25404
L55779 25404
L55816 25423
L55835 25441
L55854 25479
L55854 25535
L55835 25573
L55816 25591
L55779 25610
L55629 25610
" />
<path d="M56229 25798
L56004 25798
" />
<path d="M56116 25798
L56116 25404
L56079 25460
L56041 25498
L56004 25516
" />
<text x="50000" y="23417.7"
textLength="1520.34" font-size="524.934" lengthAdjust="spacingAndGlyphs"
text-anchor="middle" opacity="0">LED1</text>
<path d="M49559 23398
L49371 23398
L49371 23005
" />
<path d="M49690 23192
L49821 23192
" />
<path d="M49878 23398
L49690 23398
L49690 23005
L49878 23005
" />
<path d="M50046 23398
L50046 23005
L50140 23005
L50196 23024
L50234 23061
L50253 23099
L50271 23173
L50271 23230
L50253 23305
L50234 23342
L50196 23380
L50140 23398
L50046 23398
" />
<path d="M50646 23398
L50421 23398
" />
<path d="M50534 23398
L50534 23005
L50496 23061
L50459 23099
L50421 23117
" />
<text x="51968.5" y="23417.7"
textLength="1520.34" font-size="524.934" lengthAdjust="spacingAndGlyphs"
text-anchor="middle" opacity="0">LED2</text>
<path d="M51527 23398
L51340 23398
L51340 23005
" />
<path d="M51659 23192
L51790 23192
" />
<path d="M51846 23398
L51659 23398
L51659 23005
L51846 23005
" />
<path d="M52015 23398
L52015 23005
L52109 23005
L52165 23024
L52202 23061
L52221 23099
L52240 23173
L52240 23230
L52221 23305
L52202 23342
L52165 23380
L52109 23398
L52015 23398
" />
<path d="M52390 23042
L52409 23024
L52446 23005
L52540 23005
L52577 23024
L52596 23042
L52615 23080
L52615 23117
L52596 23173
L52371 23398
L52615 23398
" />
<text x="53937" y="23417.7"
textLength="1520.34" font-size="524.934" lengthAdjust="spacingAndGlyphs"
text-anchor="middle" opacity="0">LED3</text>
<path d="M53496 23398
L53308 23398
L53308 23005
" />
<path d="M53627 23192
L53758 23192
" />
<path d="M53815 23398
L53627 23398
L53627 23005
L53815 23005
" />
<path d="M53983 23398
L53983 23005
L54077 23005
L54133 23024
L54171 23061
L54190 23099
L54208 23173
L54208 23230
L54190 23305
L54171 23342
L54133 23380
L54077 23398
L53983 23398
" />
<path d="M54340 23005
L54583 23005
L54452 23155
L54508 23155
L54546 23173
L54565 23192
L54583 23230
L54583 23323
L54565 23361
L54546 23380
L54508 23398
L54396 23398
L54358 23380
L54340 23361
" />
<g >
</g>
</g>
<g style="fill:#000000; fill-opacity:0.0; 
stroke:#000000; stroke-width:59.0551; stroke-opacity:1; 
stroke-linecap:round; stroke-linejoin:round;">
</g>
<g style="fill:#C2C200; fill-opacity:0.0; 
stroke:#C2C200; stroke-width:59.0551; stroke-opacity:1; 
stroke-linecap:round; stroke-linejoin:round;">
</g>
<g style="fill:#C2C200; fill-opacity:0.0; 
stroke:#C2C200; stroke-width:39.3701; stroke-opacity:1; 
stroke-linecap:round; stroke-linejoin:round;">
<path d="M44094.5 34448.8 A196.85 196.85 0.0 0 0 44291.3 34645.7 " />
<path d="M44094.5 32677.2 A196.85 196.85 0.0 0 0 43897.6 32480.3 " />
<path d="M34842.5 32480.3 A196.85 196.85 0.0 0 0 34645.7 32677.2 " />
<path d="M34448.8 34645.7 A196.85 196.85 0.0 0 0 34645.7 34448.8 " />
<path d="M53346.5 43700.8 A196.85 196.85 0.0 0 0 53543.3 43503.9 " />
<path d="M53543.3 34842.5 A196.85 196.85 0.0 0 0 53346.5 34645.7 " />
<path d="M25393.7 34645.7 A196.85 196.85 0.0 0 0 25196.9 34842.5 " />
<path d="M25196.9 43503.9 A196.85 196.85 0.0 0 0 25393.7 43700.8 " />
<path d="M44291 34645
L53346 34645
" />
<path d="M44094 32677
L44094 34448
" />
<path d="M34645 32677
L34645 34448
" />
<path d="M25393 43700
L53346 43700
" />
<path d="M34842 32480
L43897 32480
" />
<path d="M53543 34842
L53543 43503
" />
<path d="M25196 34842
L25196 43503
" />
<path d="M25393 34645
L34448 34645
" />
<path d="M18897 51338
L18897 57637
" />
<path d="M18897 16929
L18897 49763
" />
<path d="M18897 12204
L18897 15354
" />
<path d="M59842 15354
L59842 12204
" />
<path d="M59842 49763
L59842 16929
" />
<path d="M59842 57637
L59842 51338
" />
<path d="M19685 15354
L19685 13779
" />
<path d="M19685 49763
L19685 16929
" />
<path d="M18897 51338
L19685 51338
" />
<path d="M18897 49763
L19685 49763
" />
<path d="M18897 16929
L19685 16929
" />
<path d="M18897 15354
L19685 15354
" />
<path d="M59055 15354
L59055 13779
" />
<path d="M59055 49763
L59055 16929
" />
<path d="M59055 49763
L59842 49763
" />
<path d="M59055 51338
L59842 51338
" />
<path d="M59842 16929
L59055 16929
" />
<path d="M59842 15354
L59055 15354
" />
<path d="M59842 57637
L63779 57637
" />
<path d="M63779 12204
L59842 12204
" />
<path d="M14960 12204
L18897 12204
" />
<path d="M14960 57637
L18897 57637
" />
<path d="M14960 12204
L14960 57637
" />
<path d="M63779 12204
L63779 57637
" />
<path d="M59055 51338
L59055 54876
" />
<path d="M55118.1 22844.5 A196.85 196.85 0.0 0 0 55118.1 22450.8 " />
<path d="M48818.9 22450.8 A196.85 196.85 0.0 0 0 48818.9 22844.5 " />
<path d="M55118 22844
L48818 22844
" />
<path d="M48818 22450
L55118 22450
" />
<path d="M20988 55242
L19685 54876
" />
<path d="M22256 55565
L20988 55242
" />
<path d="M24296 56037
L22256 55565
" />
<path d="M26626 56502
L24296 56037
" />
<path d="M28697 56848
L26626 56502
" />
<path d="M30784 57132
L28697 56848
" />
<path d="M32894 57352
L30784 57132
" />
<path d="M34937 57514
L32894 57352
" />
<path d="M36567 57596
L34937 57514
" />
<path d="M38819 57640
L36567 57596
" />
<path d="M40386 57640
L38819 57640
" />
<path d="M41815 57604
L40386 57640
" />
<path d="M43882 57502
L41815 57604
" />
<path d="M45607 57376
L43882 57502
" />
<path d="M47622 57163
L45607 57376
" />
<path d="M49197 56966
L47622 57163
" />
<path d="M51193 56659
L49197 56966
" />
<path d="M53288 56274
L51193 56659
" />
<path d="M54823 55951
L53288 56274
" />
<path d="M56284 55612
L54823 55951
" />
<path d="M57953 55183
L56284 55612
" />
<path d="M59055 54876
L57953 55183
" />
<path d="M59055.1 13779.5 A1574.8 1574.8 0.0 0 0 57480.3 12204.7 " />
<path d="M21259.8 12204.7 A1574.8 1574.8 0.0 0 0 19685 13779.5 " />
<path d="M19685 51338
L19685 54876
" />
<path d="M21259 12204
L57480 12204
" />
<g >
</g>
<g >
</g>
<g >
</g>
<g >
</g>
<g >
</g>
<g >
</g>
<g >
</g>
<g >
</g>
<g >
</g>
<g >
</g>
<g >
</g>
<g >
</g>
<g >
</g>
<g >
</g>
<g >
</g>
<g >
</g>
<g >
</g>
<g >
</g>
<g >
</g>
<g >
</g>
<g >
</g>
<g >
</g>
<g >
</g>
<g >
</g>
<g >
</g>
<g >
</g>
<g >
</g>
<g >
</g>
<g >
</g>
<g >
</g>
<g >
</g>
<g >
</g>
<g >
</g>
<g >
</g>
<g >
</g>
<g >
</g>
<g >
</g>
<g >
</g>
<g >
</g>
<g >
</g>
<g >
</g>
<g >
</g>
<g >
</g>
<g >
</g>
<g >
</g>
<g >
</g>
<g >
</g>
<g >
</g>
<g >
</g>
<g >
</g>
<g >
</g>
<g >
</g>
<g >
</g>
<g >
</g>
<g >
</g>
<g >
</g>
<g >
</g>
<g >
</g>
<g >
</g>
<g >
</g>
<g >
</g>
<g >
</g>
<g >
</g>
<g >
</g>
<g >
</g>
<g >
</g>
<g >
</g>
<g >
</g>
<g >
</g>
<g >
</g>
<g >
</g>
<g >
</g>
<g >
</g>
<g >
</g>
<g >
</g>
<g >
</g>
<g >
</g>
<g >
</g>
<g >
</g>
<g >
</g>
<g >
</g>
<g >
</g>
<g >
</g>
<g >
</g>
<g >
</g>
<g >
</g>
<g >
</g>
<g >
</g>
<g >
</g>
<g >
</g>
<g >
</g>
<g >
</g>
<g >
</g>
<g >
</g>
<g >
</g>
<g >
</g>
<g >
</g>
<g >
</g>
<g >
</g>
<g >
</g>
<g >
</g>
<g >
</g>
<g >
</g>
<g >
</g>
<g >
</g>
<g >
</g>
<g >
</g>
<g >
</g>
<g >
</g>
<g >
</g>
<g >
</g>
<g >
</g>
<g >
</g>
<g >
</g>
<g >
</g>
<g >
</g>
<g >
</g>
<g >
</g>
<g >
</g>
<g >
</g>
<g >
</g>
<g >
</g>
<g >
</g>
<g >
</g>
<g >
</g>
<g >
</g>
<g >
</g>
<g >
</g>
<g >
</g>
<g >
</g>
<g >
</g>
<g >
</g>
<g >
</g>
<g >
</g>
<g >
</g>
<g >
</g>
<g >
</g>
<g >
</g>
<g >
</g>
<g >
</g>
<g >
</g>
<g >
</g>
<g >
</g>
<g >
</g>
<g >
</g>
<g >
</g>
<g >
</g>
<g >
</g>
<g >
</g>
<g >
</g>
<g >
</g>
<g >
</g>
<g >
</g>
<g >
</g>
<g >
</g>
<g >
</g>
<g >
</g>
<g >
</g>
<g >
</g>
<g >
</g>
<g >
</g>
<g >
</g>
<g >
</g>
<g >
</g>
<g >
</g>
<g >
</g>
<g >
</g>
<g >
</g>
<g >
</g>
<g >
</g>
<g >
</g>
</g> 
</svg>
