<?xml version="1.0" standalone="no"?>
 <!DOCTYPE svg PUBLIC "-//W3C//DTD SVG 1.1//EN" 
 "http://www.w3.org/Graphics/SVG/1.1/DTD/svg11.dtd"> 
<svg xmlns="http://www.w3.org/2000/svg" version="1.1" 
    width="29.7002cm" height="21.0007cm" viewBox="0 0 116930 82680 ">
<title>SVG Picture created as OpenDropV3-F.CrtYd.svg date 2018/12/04 10:34:33 </title>
  <desc>Picture generated by PCBNEW </desc>
<g style="fill:#000000; fill-opacity:1;stroke:#000000; stroke-opacity:1;
stroke-linecap:round; stroke-linejoin:round; "
 transform="translate(0 0) scale(1 1)">
</g>
<g style="fill:#000000; fill-opacity:0.0; 
stroke:#000000; stroke-width:-0.000393701; stroke-opacity:1; 
stroke-linecap:round; stroke-linejoin:round;">
</g>
<g style="fill:#000000; fill-opacity:0.0; 
stroke:#000000; stroke-width:39.3701; stroke-opacity:1; 
stroke-linecap:round; stroke-linejoin:round;">
</g>
<g style="fill:#000000; fill-opacity:0.0; 
stroke:#000000; stroke-width:59.0551; stroke-opacity:1; 
stroke-linecap:round; stroke-linejoin:round;">
<rect x="69685.9" y="65357.2" width="42519.7" height="12598.4" rx="0" />
</g>
<g style="fill:#000000; fill-opacity:0.0; 
stroke:#000000; stroke-width:39.3701; stroke-opacity:1; 
stroke-linecap:round; stroke-linejoin:round;">
</g>
<g style="fill:#000000; fill-opacity:0.0; 
stroke:#000000; stroke-width:59.0551; stroke-opacity:1; 
stroke-linecap:round; stroke-linejoin:round;">
<rect x="3937.01" y="3937.01" width="109056" height="74806" rx="0" />
</g>
<g style="fill:#000000; fill-opacity:0.0; 
stroke:#000000; stroke-width:39.3701; stroke-opacity:1; 
stroke-linecap:round; stroke-linejoin:round;">
</g>
<g style="fill:#000000; fill-opacity:0.0; 
stroke:#000000; stroke-width:59.0551; stroke-opacity:1; 
stroke-linecap:round; stroke-linejoin:round;">
<rect x="4724.41" y="4724.41" width="107481" height="73231.2" rx="0" />
</g>
<g style="fill:#000000; fill-opacity:0.0; 
stroke:#000000; stroke-width:39.3701; stroke-opacity:1; 
stroke-linecap:round; stroke-linejoin:round;">
</g>
<g style="fill:#000000; fill-opacity:0.0; 
stroke:#000000; stroke-width:59.0551; stroke-opacity:1; 
stroke-linecap:round; stroke-linejoin:round;">
<path d="M23622 4724
L23622 3937
" />
</g>
<g style="fill:#000000; fill-opacity:0.0; 
stroke:#000000; stroke-width:39.3701; stroke-opacity:1; 
stroke-linecap:round; stroke-linejoin:round;">
</g>
<g style="fill:#000000; fill-opacity:0.0; 
stroke:#000000; stroke-width:59.0551; stroke-opacity:1; 
stroke-linecap:round; stroke-linejoin:round;">
<path d="M43307 4724
L43307 3937
" />
</g>
<g style="fill:#000000; fill-opacity:0.0; 
stroke:#000000; stroke-width:39.3701; stroke-opacity:1; 
stroke-linecap:round; stroke-linejoin:round;">
</g>
<g style="fill:#000000; fill-opacity:0.0; 
stroke:#000000; stroke-width:59.0551; stroke-opacity:1; 
stroke-linecap:round; stroke-linejoin:round;">
<path d="M62992 4724
L62992 3937
" />
</g>
<g style="fill:#000000; fill-opacity:0.0; 
stroke:#000000; stroke-width:39.3701; stroke-opacity:1; 
stroke-linecap:round; stroke-linejoin:round;">
</g>
<g style="fill:#000000; fill-opacity:0.0; 
stroke:#000000; stroke-width:59.0551; stroke-opacity:1; 
stroke-linecap:round; stroke-linejoin:round;">
<path d="M82677 4724
L82677 3937
" />
</g>
<g style="fill:#000000; fill-opacity:0.0; 
stroke:#000000; stroke-width:39.3701; stroke-opacity:1; 
stroke-linecap:round; stroke-linejoin:round;">
</g>
<g style="fill:#000000; fill-opacity:0.0; 
stroke:#000000; stroke-width:59.0551; stroke-opacity:1; 
stroke-linecap:round; stroke-linejoin:round;">
<path d="M102362 4724
L102362 3937
" />
</g>
<g style="fill:#000000; fill-opacity:0.0; 
stroke:#000000; stroke-width:39.3701; stroke-opacity:1; 
stroke-linecap:round; stroke-linejoin:round;">
</g>
<g style="fill:#000000; fill-opacity:0.0; 
stroke:#000000; stroke-width:59.0551; stroke-opacity:1; 
stroke-linecap:round; stroke-linejoin:round;">
<path d="M14169 4562
L13877 4562
" />
<path d="M14023 4562
L14023 4050
L13974 4123
L13925 4172
L13877 4196
" />
</g>
<g style="fill:#000000; fill-opacity:0.0; 
stroke:#000000; stroke-width:39.3701; stroke-opacity:1; 
stroke-linecap:round; stroke-linejoin:round;">
</g>
<g style="fill:#000000; fill-opacity:0.0; 
stroke:#000000; stroke-width:59.0551; stroke-opacity:1; 
stroke-linecap:round; stroke-linejoin:round;">
<path d="M33562 4099
L33586 4074
L33635 4050
L33757 4050
L33805 4074
L33830 4099
L33854 4147
L33854 4196
L33830 4269
L33537 4562
L33854 4562
" />
</g>
<g style="fill:#000000; fill-opacity:0.0; 
stroke:#000000; stroke-width:39.3701; stroke-opacity:1; 
stroke-linecap:round; stroke-linejoin:round;">
</g>
<g style="fill:#000000; fill-opacity:0.0; 
stroke:#000000; stroke-width:59.0551; stroke-opacity:1; 
stroke-linecap:round; stroke-linejoin:round;">
<path d="M53222 4050
L53539 4050
L53368 4245
L53442 4245
L53490 4269
L53515 4294
L53539 4342
L53539 4464
L53515 4513
L53490 4537
L53442 4562
L53295 4562
L53247 4537
L53222 4513
" />
</g>
<g style="fill:#000000; fill-opacity:0.0; 
stroke:#000000; stroke-width:39.3701; stroke-opacity:1; 
stroke-linecap:round; stroke-linejoin:round;">
</g>
<g style="fill:#000000; fill-opacity:0.0; 
stroke:#000000; stroke-width:59.0551; stroke-opacity:1; 
stroke-linecap:round; stroke-linejoin:round;">
<path d="M73175 4221
L73175 4562
" />
<path d="M73053 4026
L72932 4391
L73248 4391
" />
</g>
<g style="fill:#000000; fill-opacity:0.0; 
stroke:#000000; stroke-width:39.3701; stroke-opacity:1; 
stroke-linecap:round; stroke-linejoin:round;">
</g>
<g style="fill:#000000; fill-opacity:0.0; 
stroke:#000000; stroke-width:59.0551; stroke-opacity:1; 
stroke-linecap:round; stroke-linejoin:round;">
<path d="M92885 4050
L92641 4050
L92617 4294
L92641 4269
L92690 4245
L92812 4245
L92860 4269
L92885 4294
L92909 4342
L92909 4464
L92885 4513
L92860 4537
L92812 4562
L92690 4562
L92641 4537
L92617 4513
" />
</g>
<g style="fill:#000000; fill-opacity:0.0; 
stroke:#000000; stroke-width:39.3701; stroke-opacity:1; 
stroke-linecap:round; stroke-linejoin:round;">
</g>
<g style="fill:#000000; fill-opacity:0.0; 
stroke:#000000; stroke-width:59.0551; stroke-opacity:1; 
stroke-linecap:round; stroke-linejoin:round;">
<path d="M112545 4050
L112448 4050
L112399 4074
L112375 4099
L112326 4172
L112302 4269
L112302 4464
L112326 4513
L112350 4537
L112399 4562
L112497 4562
L112545 4537
L112570 4513
L112594 4464
L112594 4342
L112570 4294
L112545 4269
L112497 4245
L112399 4245
L112350 4269
L112326 4294
L112302 4342
" />
</g>
<g style="fill:#000000; fill-opacity:0.0; 
stroke:#000000; stroke-width:39.3701; stroke-opacity:1; 
stroke-linecap:round; stroke-linejoin:round;">
</g>
<g style="fill:#000000; fill-opacity:0.0; 
stroke:#000000; stroke-width:59.0551; stroke-opacity:1; 
stroke-linecap:round; stroke-linejoin:round;">
<path d="M23622 77955
L23622 78742
" />
</g>
<g style="fill:#000000; fill-opacity:0.0; 
stroke:#000000; stroke-width:39.3701; stroke-opacity:1; 
stroke-linecap:round; stroke-linejoin:round;">
</g>
<g style="fill:#000000; fill-opacity:0.0; 
stroke:#000000; stroke-width:59.0551; stroke-opacity:1; 
stroke-linecap:round; stroke-linejoin:round;">
<path d="M43307 77955
L43307 78742
" />
</g>
<g style="fill:#000000; fill-opacity:0.0; 
stroke:#000000; stroke-width:39.3701; stroke-opacity:1; 
stroke-linecap:round; stroke-linejoin:round;">
</g>
<g style="fill:#000000; fill-opacity:0.0; 
stroke:#000000; stroke-width:59.0551; stroke-opacity:1; 
stroke-linecap:round; stroke-linejoin:round;">
<path d="M62992 77955
L62992 78742
" />
</g>
<g style="fill:#000000; fill-opacity:0.0; 
stroke:#000000; stroke-width:39.3701; stroke-opacity:1; 
stroke-linecap:round; stroke-linejoin:round;">
</g>
<g style="fill:#000000; fill-opacity:0.0; 
stroke:#000000; stroke-width:59.0551; stroke-opacity:1; 
stroke-linecap:round; stroke-linejoin:round;">
<path d="M82677 77955
L82677 78742
" />
</g>
<g style="fill:#000000; fill-opacity:0.0; 
stroke:#000000; stroke-width:39.3701; stroke-opacity:1; 
stroke-linecap:round; stroke-linejoin:round;">
</g>
<g style="fill:#000000; fill-opacity:0.0; 
stroke:#000000; stroke-width:59.0551; stroke-opacity:1; 
stroke-linecap:round; stroke-linejoin:round;">
<path d="M102362 77955
L102362 78742
" />
</g>
<g style="fill:#000000; fill-opacity:0.0; 
stroke:#000000; stroke-width:39.3701; stroke-opacity:1; 
stroke-linecap:round; stroke-linejoin:round;">
</g>
<g style="fill:#000000; fill-opacity:0.0; 
stroke:#000000; stroke-width:59.0551; stroke-opacity:1; 
stroke-linecap:round; stroke-linejoin:round;">
<path d="M14169 78580
L13877 78580
" />
<path d="M14023 78580
L14023 78069
L13974 78142
L13925 78190
L13877 78215
" />
</g>
<g style="fill:#000000; fill-opacity:0.0; 
stroke:#000000; stroke-width:39.3701; stroke-opacity:1; 
stroke-linecap:round; stroke-linejoin:round;">
</g>
<g style="fill:#000000; fill-opacity:0.0; 
stroke:#000000; stroke-width:59.0551; stroke-opacity:1; 
stroke-linecap:round; stroke-linejoin:round;">
<path d="M33562 78117
L33586 78093
L33635 78069
L33757 78069
L33805 78093
L33830 78117
L33854 78166
L33854 78215
L33830 78288
L33537 78580
L33854 78580
" />
</g>
<g style="fill:#000000; fill-opacity:0.0; 
stroke:#000000; stroke-width:39.3701; stroke-opacity:1; 
stroke-linecap:round; stroke-linejoin:round;">
</g>
<g style="fill:#000000; fill-opacity:0.0; 
stroke:#000000; stroke-width:59.0551; stroke-opacity:1; 
stroke-linecap:round; stroke-linejoin:round;">
<path d="M53222 78069
L53539 78069
L53368 78263
L53442 78263
L53490 78288
L53515 78312
L53539 78361
L53539 78483
L53515 78532
L53490 78556
L53442 78580
L53295 78580
L53247 78556
L53222 78532
" />
</g>
<g style="fill:#000000; fill-opacity:0.0; 
stroke:#000000; stroke-width:39.3701; stroke-opacity:1; 
stroke-linecap:round; stroke-linejoin:round;">
</g>
<g style="fill:#000000; fill-opacity:0.0; 
stroke:#000000; stroke-width:59.0551; stroke-opacity:1; 
stroke-linecap:round; stroke-linejoin:round;">
<path d="M73175 78239
L73175 78580
" />
<path d="M73053 78044
L72932 78410
L73248 78410
" />
</g>
<g style="fill:#000000; fill-opacity:0.0; 
stroke:#000000; stroke-width:39.3701; stroke-opacity:1; 
stroke-linecap:round; stroke-linejoin:round;">
</g>
<g style="fill:#000000; fill-opacity:0.0; 
stroke:#000000; stroke-width:59.0551; stroke-opacity:1; 
stroke-linecap:round; stroke-linejoin:round;">
<path d="M92885 78069
L92641 78069
L92617 78312
L92641 78288
L92690 78263
L92812 78263
L92860 78288
L92885 78312
L92909 78361
L92909 78483
L92885 78532
L92860 78556
L92812 78580
L92690 78580
L92641 78556
L92617 78532
" />
</g>
<g style="fill:#000000; fill-opacity:0.0; 
stroke:#000000; stroke-width:39.3701; stroke-opacity:1; 
stroke-linecap:round; stroke-linejoin:round;">
</g>
<g style="fill:#000000; fill-opacity:0.0; 
stroke:#000000; stroke-width:59.0551; stroke-opacity:1; 
stroke-linecap:round; stroke-linejoin:round;">
<path d="M112545 78069
L112448 78069
L112399 78093
L112375 78117
L112326 78190
L112302 78288
L112302 78483
L112326 78532
L112350 78556
L112399 78580
L112497 78580
L112545 78556
L112570 78532
L112594 78483
L112594 78361
L112570 78312
L112545 78288
L112497 78263
L112399 78263
L112350 78288
L112326 78312
L112302 78361
" />
</g>
<g style="fill:#000000; fill-opacity:0.0; 
stroke:#000000; stroke-width:39.3701; stroke-opacity:1; 
stroke-linecap:round; stroke-linejoin:round;">
</g>
<g style="fill:#000000; fill-opacity:0.0; 
stroke:#000000; stroke-width:59.0551; stroke-opacity:1; 
stroke-linecap:round; stroke-linejoin:round;">
<path d="M3937 23622
L4724 23622
" />
</g>
<g style="fill:#000000; fill-opacity:0.0; 
stroke:#000000; stroke-width:39.3701; stroke-opacity:1; 
stroke-linecap:round; stroke-linejoin:round;">
</g>
<g style="fill:#000000; fill-opacity:0.0; 
stroke:#000000; stroke-width:59.0551; stroke-opacity:1; 
stroke-linecap:round; stroke-linejoin:round;">
<path d="M3937 43307
L4724 43307
" />
</g>
<g style="fill:#000000; fill-opacity:0.0; 
stroke:#000000; stroke-width:39.3701; stroke-opacity:1; 
stroke-linecap:round; stroke-linejoin:round;">
</g>
<g style="fill:#000000; fill-opacity:0.0; 
stroke:#000000; stroke-width:59.0551; stroke-opacity:1; 
stroke-linecap:round; stroke-linejoin:round;">
<path d="M3937 62992
L4724 62992
" />
</g>
<g style="fill:#000000; fill-opacity:0.0; 
stroke:#000000; stroke-width:39.3701; stroke-opacity:1; 
stroke-linecap:round; stroke-linejoin:round;">
</g>
<g style="fill:#000000; fill-opacity:0.0; 
stroke:#000000; stroke-width:59.0551; stroke-opacity:1; 
stroke-linecap:round; stroke-linejoin:round;">
<path d="M4208 13864
L4452 13864
" />
<path d="M4160 14011
L4330 13499
L4501 14011
" />
</g>
<g style="fill:#000000; fill-opacity:0.0; 
stroke:#000000; stroke-width:39.3701; stroke-opacity:1; 
stroke-linecap:round; stroke-linejoin:round;">
</g>
<g style="fill:#000000; fill-opacity:0.0; 
stroke:#000000; stroke-width:59.0551; stroke-opacity:1; 
stroke-linecap:round; stroke-linejoin:round;">
<path d="M4367 33428
L4440 33452
L4464 33476
L4489 33525
L4489 33598
L4464 33647
L4440 33671
L4391 33696
L4196 33696
L4196 33184
L4367 33184
L4416 33208
L4440 33233
L4464 33281
L4464 33330
L4440 33379
L4416 33403
L4367 33428
L4196 33428
" />
</g>
<g style="fill:#000000; fill-opacity:0.0; 
stroke:#000000; stroke-width:39.3701; stroke-opacity:1; 
stroke-linecap:round; stroke-linejoin:round;">
</g>
<g style="fill:#000000; fill-opacity:0.0; 
stroke:#000000; stroke-width:59.0551; stroke-opacity:1; 
stroke-linecap:round; stroke-linejoin:round;">
<path d="M4489 53332
L4464 53356
L4391 53381
L4342 53381
L4269 53356
L4221 53308
L4196 53259
L4172 53161
L4172 53088
L4196 52991
L4221 52942
L4269 52893
L4342 52869
L4391 52869
L4464 52893
L4489 52918
" />
</g>
<g style="fill:#000000; fill-opacity:0.0; 
stroke:#000000; stroke-width:39.3701; stroke-opacity:1; 
stroke-linecap:round; stroke-linejoin:round;">
</g>
<g style="fill:#000000; fill-opacity:0.0; 
stroke:#000000; stroke-width:59.0551; stroke-opacity:1; 
stroke-linecap:round; stroke-linejoin:round;">
<path d="M4196 73066
L4196 72554
L4318 72554
L4391 72578
L4440 72627
L4464 72676
L4489 72773
L4489 72846
L4464 72944
L4440 72993
L4391 73041
L4318 73066
L4196 73066
" />
</g>
<g style="fill:#000000; fill-opacity:0.0; 
stroke:#000000; stroke-width:39.3701; stroke-opacity:1; 
stroke-linecap:round; stroke-linejoin:round;">
</g>
<g style="fill:#000000; fill-opacity:0.0; 
stroke:#000000; stroke-width:59.0551; stroke-opacity:1; 
stroke-linecap:round; stroke-linejoin:round;">
<path d="M112992 23622
L112205 23622
" />
</g>
<g style="fill:#000000; fill-opacity:0.0; 
stroke:#000000; stroke-width:39.3701; stroke-opacity:1; 
stroke-linecap:round; stroke-linejoin:round;">
</g>
<g style="fill:#000000; fill-opacity:0.0; 
stroke:#000000; stroke-width:59.0551; stroke-opacity:1; 
stroke-linecap:round; stroke-linejoin:round;">
<path d="M112992 43307
L112205 43307
" />
</g>
<g style="fill:#000000; fill-opacity:0.0; 
stroke:#000000; stroke-width:39.3701; stroke-opacity:1; 
stroke-linecap:round; stroke-linejoin:round;">
</g>
<g style="fill:#000000; fill-opacity:0.0; 
stroke:#000000; stroke-width:59.0551; stroke-opacity:1; 
stroke-linecap:round; stroke-linejoin:round;">
<path d="M112992 62992
L112205 62992
" />
</g>
<g style="fill:#000000; fill-opacity:0.0; 
stroke:#000000; stroke-width:39.3701; stroke-opacity:1; 
stroke-linecap:round; stroke-linejoin:round;">
</g>
<g style="fill:#000000; fill-opacity:0.0; 
stroke:#000000; stroke-width:59.0551; stroke-opacity:1; 
stroke-linecap:round; stroke-linejoin:round;">
<path d="M112477 13864
L112721 13864
" />
<path d="M112428 14011
L112599 13499
L112769 14011
" />
</g>
<g style="fill:#000000; fill-opacity:0.0; 
stroke:#000000; stroke-width:39.3701; stroke-opacity:1; 
stroke-linecap:round; stroke-linejoin:round;">
</g>
<g style="fill:#000000; fill-opacity:0.0; 
stroke:#000000; stroke-width:59.0551; stroke-opacity:1; 
stroke-linecap:round; stroke-linejoin:round;">
<path d="M112635 33428
L112708 33452
L112733 33476
L112757 33525
L112757 33598
L112733 33647
L112708 33671
L112660 33696
L112465 33696
L112465 33184
L112635 33184
L112684 33208
L112708 33233
L112733 33281
L112733 33330
L112708 33379
L112684 33403
L112635 33428
L112465 33428
" />
</g>
<g style="fill:#000000; fill-opacity:0.0; 
stroke:#000000; stroke-width:39.3701; stroke-opacity:1; 
stroke-linecap:round; stroke-linejoin:round;">
</g>
<g style="fill:#000000; fill-opacity:0.0; 
stroke:#000000; stroke-width:59.0551; stroke-opacity:1; 
stroke-linecap:round; stroke-linejoin:round;">
<path d="M112757 53332
L112733 53356
L112660 53381
L112611 53381
L112538 53356
L112489 53308
L112465 53259
L112440 53161
L112440 53088
L112465 52991
L112489 52942
L112538 52893
L112611 52869
L112660 52869
L112733 52893
L112757 52918
" />
</g>
<g style="fill:#000000; fill-opacity:0.0; 
stroke:#000000; stroke-width:39.3701; stroke-opacity:1; 
stroke-linecap:round; stroke-linejoin:round;">
</g>
<g style="fill:#000000; fill-opacity:0.0; 
stroke:#000000; stroke-width:59.0551; stroke-opacity:1; 
stroke-linecap:round; stroke-linejoin:round;">
<path d="M112465 73066
L112465 72554
L112587 72554
L112660 72578
L112708 72627
L112733 72676
L112757 72773
L112757 72846
L112733 72944
L112708 72993
L112660 73041
L112587 73066
L112465 73066
" />
</g>
<g style="fill:#000000; fill-opacity:0.0; 
stroke:#000000; stroke-width:39.3701; stroke-opacity:1; 
stroke-linecap:round; stroke-linejoin:round;">
</g>
<g style="fill:#000000; fill-opacity:0.0; 
stroke:#000000; stroke-width:59.0551; stroke-opacity:1; 
stroke-linecap:round; stroke-linejoin:round;">
<path d="M78881 76293
L78881 75703
L79022 75703
L79106 75731
L79162 75787
L79190 75843
L79219 75956
L79219 76040
L79190 76153
L79162 76209
L79106 76265
L79022 76293
L78881 76293
" />
<path d="M79725 76293
L79725 75984
L79697 75928
L79640 75899
L79528 75899
L79472 75928
" />
<path d="M79725 76265
L79669 76293
L79528 76293
L79472 76265
L79444 76209
L79444 76153
L79472 76096
L79528 76068
L79669 76068
L79725 76040
" />
<path d="M79922 75899
L80147 75899
" />
<path d="M80006 75703
L80006 76209
L80034 76265
L80090 76293
L80147 76293
" />
<path d="M80568 76265
L80512 76293
L80400 76293
L80343 76265
L80315 76209
L80315 75984
L80343 75928
L80400 75899
L80512 75899
L80568 75928
L80597 75984
L80597 76040
L80315 76096
" />
<path d="M80850 76237
L80878 76265
L80850 76293
L80822 76265
L80850 76237
L80850 76293
" />
<path d="M80850 75928
L80878 75956
L80850 75984
L80822 75956
L80850 75928
L80850 75984
" />
</g>
<g style="fill:#000000; fill-opacity:0.0; 
stroke:#000000; stroke-width:39.3701; stroke-opacity:1; 
stroke-linecap:round; stroke-linejoin:round;">
</g>
<g style="fill:#000000; fill-opacity:0.0; 
stroke:#000000; stroke-width:59.0551; stroke-opacity:1; 
stroke-linecap:round; stroke-linejoin:round;">
<path d="M69685 76577
L112205 76577
" />
</g>
<g style="fill:#000000; fill-opacity:0.0; 
stroke:#000000; stroke-width:39.3701; stroke-opacity:1; 
stroke-linecap:round; stroke-linejoin:round;">
</g>
<g style="fill:#000000; fill-opacity:0.0; 
stroke:#000000; stroke-width:59.0551; stroke-opacity:1; 
stroke-linecap:round; stroke-linejoin:round;">
<path d="M70220 77395
L70220 76805
" />
<path d="M70557 77395
L70304 77058
" />
<path d="M70557 76805
L70220 77142
" />
<path d="M70810 77395
L70810 77002
" />
<path d="M70810 76805
L70782 76833
L70810 76861
L70838 76833
L70810 76805
L70810 76861
" />
<path d="M71429 77339
L71401 77367
L71316 77395
L71260 77395
L71176 77367
L71120 77311
L71091 77255
L71063 77142
L71063 77058
L71091 76946
L71120 76889
L71176 76833
L71260 76805
L71316 76805
L71401 76833
L71429 76861
" />
<path d="M71935 77395
L71935 77086
L71907 77030
L71851 77002
L71738 77002
L71682 77030
" />
<path d="M71935 77367
L71879 77395
L71738 77395
L71682 77367
L71654 77311
L71654 77255
L71682 77199
L71738 77171
L71879 77171
L71935 77142
" />
<path d="M72469 77395
L72469 76805
" />
<path d="M72469 77367
L72413 77395
L72301 77395
L72244 77367
L72216 77339
L72188 77283
L72188 77114
L72216 77058
L72244 77030
L72301 77002
L72413 77002
L72469 77030
" />
<path d="M73201 77086
L73397 77086
" />
<path d="M73482 77395
L73201 77395
L73201 76805
L73482 76805
" />
<path d="M73735 77339
L73763 77367
L73735 77395
L73707 77367
L73735 77339
L73735 77395
" />
<path d="M74016 77395
L74016 76805
L74157 76805
L74241 76833
L74297 76889
L74325 76946
L74354 77058
L74354 77142
L74325 77255
L74297 77311
L74241 77367
L74157 77395
L74016 77395
" />
<path d="M74607 77339
L74635 77367
L74607 77395
L74579 77367
L74607 77339
L74607 77395
" />
<path d="M74860 77227
L75141 77227
" />
<path d="M74804 77395
L75000 76805
L75197 77395
" />
<path d="M75394 77339
L75422 77367
L75394 77395
L75366 77367
L75394 77339
L75394 77395
" />
<path d="M76575 77395
L76575 76805
" />
<path d="M76631 77171
L76800 77395
" />
<path d="M76800 77002
L76575 77227
" />
<path d="M77053 77395
L77053 77002
" />
<path d="M77053 76805
L77025 76833
L77053 76861
L77081 76833
L77053 76805
L77053 76861
" />
<path d="M77588 77367
L77531 77395
L77419 77395
L77363 77367
L77334 77339
L77306 77283
L77306 77114
L77334 77058
L77363 77030
L77419 77002
L77531 77002
L77588 77030
" />
<path d="M78094 77395
L78094 77086
L78066 77030
L78009 77002
L77897 77002
L77841 77030
" />
<path d="M78094 77367
L78037 77395
L77897 77395
L77841 77367
L77813 77311
L77813 77255
L77841 77199
L77897 77171
L78037 77171
L78094 77142
" />
<path d="M78628 77395
L78628 76805
" />
<path d="M78628 77367
L78572 77395
L78459 77395
L78403 77367
L78375 77339
L78347 77283
L78347 77114
L78375 77058
L78403 77030
L78459 77002
L78572 77002
L78628 77030
" />
<path d="M79612 77002
L79612 77395
" />
<path d="M79472 76777
L79331 77199
L79697 77199
" />
<path d="M79922 77339
L79950 77367
L79922 77395
L79894 77367
L79922 77339
L79922 77395
" />
<path d="M80315 76805
L80372 76805
L80428 76833
L80456 76861
L80484 76917
L80512 77030
L80512 77171
L80484 77283
L80456 77339
L80428 77367
L80372 77395
L80315 77395
L80259 77367
L80231 77339
L80203 77283
L80175 77171
L80175 77030
L80203 76917
L80231 76861
L80259 76833
L80315 76805
" />
<path d="M80765 77339
L80793 77367
L80765 77395
L80737 77367
L80765 77339
L80765 77395
" />
<path d="M80990 76805
L81384 76805
L81131 77395
" />
<path d="M81609 77171
L82059 77171
" />
<path d="M82565 77367
L82509 77395
L82396 77395
L82340 77367
L82312 77311
L82312 77086
L82340 77030
L82396 77002
L82509 77002
L82565 77030
L82593 77086
L82593 77142
L82312 77199
" />
<path d="M82818 76861
L82846 76833
L82903 76805
L83043 76805
L83099 76833
L83127 76861
L83156 76917
L83156 76974
L83127 77058
L82790 77395
L83156 77395
" />
<path d="M83409 77171
L83859 77171
" />
<path d="M84393 76805
L84280 76805
L84224 76833
L84196 76861
L84140 76946
L84112 77058
L84112 77283
L84140 77339
L84168 77367
L84224 77395
L84337 77395
L84393 77367
L84421 77339
L84449 77283
L84449 77142
L84421 77086
L84393 77058
L84337 77030
L84224 77030
L84168 77058
L84140 77086
L84112 77142
" />
<path d="M84646 76805
L85012 76805
L84815 77030
L84899 77030
L84955 77058
L84983 77086
L85012 77142
L85012 77283
L84983 77339
L84955 77367
L84899 77395
L84730 77395
L84674 77367
L84646 77339
" />
<path d="M85208 76805
L85602 76805
L85349 77395
" />
<path d="M86080 76805
L85968 76805
L85912 76833
L85883 76861
L85827 76946
L85799 77058
L85799 77283
L85827 77339
L85855 77367
L85912 77395
L86024 77395
L86080 77367
L86108 77339
L86136 77283
L86136 77142
L86108 77086
L86080 77058
L86024 77030
L85912 77030
L85855 77058
L85827 77086
L85799 77142
" />
<path d="M86671 76805
L86390 76805
L86361 77086
L86390 77058
L86446 77030
L86586 77030
L86643 77058
L86671 77086
L86699 77142
L86699 77283
L86671 77339
L86643 77367
L86586 77395
L86446 77395
L86390 77367
L86361 77339
" />
<path d="M87036 77058
L86980 77030
L86952 77002
L86924 76946
L86924 76917
L86952 76861
L86980 76833
L87036 76805
L87149 76805
L87205 76833
L87233 76861
L87261 76917
L87261 76946
L87233 77002
L87205 77030
L87149 77058
L87036 77058
L86980 77086
L86952 77114
L86924 77171
L86924 77283
L86952 77339
L86980 77367
L87036 77395
L87149 77395
L87205 77367
L87233 77339
L87261 77283
L87261 77171
L87233 77114
L87205 77086
L87149 77058
" />
<path d="M86249 76703
L87374 76703
" />
<path d="M87768 77002
L87768 77395
" />
<path d="M87514 77002
L87514 77311
L87543 77367
L87599 77395
L87683 77395
L87739 77367
L87768 77339
" />
<path d="M88049 77395
L88049 76805
" />
<path d="M88049 77030
L88105 77002
L88217 77002
L88274 77030
L88302 77058
L88330 77114
L88330 77283
L88302 77339
L88274 77367
L88217 77395
L88105 77395
L88049 77367
" />
<path d="M88836 77002
L88836 77395
" />
<path d="M88583 77002
L88583 77311
L88611 77367
L88667 77395
L88752 77395
L88808 77367
L88836 77339
" />
<path d="M89117 77002
L89117 77395
" />
<path d="M89117 77058
L89145 77030
L89202 77002
L89286 77002
L89342 77030
L89370 77086
L89370 77395
" />
<path d="M89567 77002
L89792 77002
" />
<path d="M89652 76805
L89652 77311
L89680 77367
L89736 77395
L89792 77395
" />
<path d="M90242 77002
L90242 77395
" />
<path d="M89989 77002
L89989 77311
L90017 77367
L90073 77395
L90158 77395
L90214 77367
L90242 77339
" />
<path d="M90833 77395
L90495 77395
" />
<path d="M90664 77395
L90664 76805
L90608 76889
L90552 76946
L90495 76974
" />
<path d="M91339 76805
L91226 76805
L91170 76833
L91142 76861
L91086 76946
L91058 77058
L91058 77283
L91086 77339
L91114 77367
L91170 77395
L91283 77395
L91339 77367
L91367 77339
L91395 77283
L91395 77142
L91367 77086
L91339 77058
L91283 77030
L91170 77030
L91114 77058
L91086 77086
L91058 77142
" />
<path d="M91648 77339
L91676 77367
L91648 77395
L91620 77367
L91648 77339
L91648 77395
" />
<path d="M92042 76805
L92098 76805
L92154 76833
L92183 76861
L92211 76917
L92239 77030
L92239 77171
L92211 77283
L92183 77339
L92154 77367
L92098 77395
L92042 77395
L91986 77367
L91958 77339
L91929 77283
L91901 77171
L91901 77030
L91929 76917
L91958 76861
L91986 76833
L92042 76805
" />
<path d="M92745 77002
L92745 77395
" />
<path d="M92604 76777
L92464 77199
L92829 77199
" />
<path d="M93054 77339
L93082 77367
L93054 77395
L93026 77367
L93054 77339
L93054 77395
" />
<path d="M93645 77395
L93307 77395
" />
<path d="M93476 77395
L93476 76805
L93420 76889
L93364 76946
L93307 76974
" />
</g>
<g style="fill:#000000; fill-opacity:0.0; 
stroke:#000000; stroke-width:39.3701; stroke-opacity:1; 
stroke-linecap:round; stroke-linejoin:round;">
</g>
<g style="fill:#000000; fill-opacity:0.0; 
stroke:#000000; stroke-width:59.0551; stroke-opacity:1; 
stroke-linecap:round; stroke-linejoin:round;">
<path d="M69685 75396
L112205 75396
" />
</g>
<g style="fill:#000000; fill-opacity:0.0; 
stroke:#000000; stroke-width:39.3701; stroke-opacity:1; 
stroke-linecap:round; stroke-linejoin:round;">
</g>
<g style="fill:#000000; fill-opacity:0.0; 
stroke:#000000; stroke-width:118.11; stroke-opacity:1; 
stroke-linecap:round; stroke-linejoin:round;">
<path d="M104022 76293
L103825 76012
" />
<path d="M103684 76293
L103684 75703
L103909 75703
L103965 75731
L103994 75759
L104022 75815
L104022 75899
L103994 75956
L103965 75984
L103909 76012
L103684 76012
" />
<path d="M104500 76265
L104444 76293
L104331 76293
L104275 76265
L104247 76209
L104247 75984
L104275 75928
L104331 75899
L104444 75899
L104500 75928
L104528 75984
L104528 76040
L104247 76096
" />
<path d="M104725 75899
L104865 76293
L105006 75899
" />
<path d="M105231 76237
L105259 76265
L105231 76293
L105203 76265
L105231 76237
L105231 76293
" />
<path d="M105231 75928
L105259 75956
L105231 75984
L105203 75956
L105231 75928
L105231 75984
" />
</g>
<g style="fill:#000000; fill-opacity:0.0; 
stroke:#000000; stroke-width:39.3701; stroke-opacity:1; 
stroke-linecap:round; stroke-linejoin:round;">
</g>
<g style="fill:#000000; fill-opacity:0.0; 
stroke:#000000; stroke-width:59.0551; stroke-opacity:1; 
stroke-linecap:round; stroke-linejoin:round;">
<path d="M70192 76265
L70276 76293
L70417 76293
L70473 76265
L70501 76237
L70529 76181
L70529 76124
L70501 76068
L70473 76040
L70417 76012
L70304 75984
L70248 75956
L70220 75928
L70192 75871
L70192 75815
L70220 75759
L70248 75731
L70304 75703
L70445 75703
L70529 75731
" />
<path d="M70782 76293
L70782 75899
" />
<path d="M70782 75703
L70754 75731
L70782 75759
L70810 75731
L70782 75703
L70782 75759
" />
<path d="M71007 75899
L71316 75899
L71007 76293
L71316 76293
" />
<path d="M71766 76265
L71710 76293
L71598 76293
L71541 76265
L71513 76209
L71513 75984
L71541 75928
L71598 75899
L71710 75899
L71766 75928
L71795 75984
L71795 76040
L71513 76096
" />
<path d="M72048 76237
L72076 76265
L72048 76293
L72019 76265
L72048 76237
L72048 76293
" />
<path d="M72048 75928
L72076 75956
L72048 75984
L72019 75956
L72048 75928
L72048 75984
" />
<path d="M72751 76124
L73032 76124
" />
<path d="M72694 76293
L72891 75703
L73088 76293
" />
<path d="M73538 75899
L73538 76293
" />
<path d="M73397 75674
L73257 76096
L73622 76096
" />
</g>
<g style="fill:#000000; fill-opacity:0.0; 
stroke:#000000; stroke-width:39.3701; stroke-opacity:1; 
stroke-linecap:round; stroke-linejoin:round;">
</g>
<g style="fill:#000000; fill-opacity:0.0; 
stroke:#000000; stroke-width:59.0551; stroke-opacity:1; 
stroke-linecap:round; stroke-linejoin:round;">
<path d="M103684 77395
L103684 76805
" />
<path d="M104219 77395
L104219 76805
" />
<path d="M104219 77367
L104162 77395
L104050 77395
L103994 77367
L103965 77339
L103937 77283
L103937 77114
L103965 77058
L103994 77030
L104050 77002
L104162 77002
L104219 77030
" />
<path d="M104500 77339
L104528 77367
L104500 77395
L104472 77367
L104500 77339
L104500 77395
" />
<path d="M104500 77030
L104528 77058
L104500 77086
L104472 77058
L104500 77030
L104500 77086
" />
<path d="M105540 77395
L105203 77395
" />
<path d="M105372 77395
L105372 76805
L105315 76889
L105259 76946
L105203 76974
" />
<path d="M106215 76777
L105709 77536
" />
<path d="M106721 77395
L106384 77395
" />
<path d="M106553 77395
L106553 76805
L106496 76889
L106440 76946
L106384 76974
" />
</g>
<g style="fill:#000000; fill-opacity:0.0; 
stroke:#000000; stroke-width:39.3701; stroke-opacity:1; 
stroke-linecap:round; stroke-linejoin:round;">
</g>
<g style="fill:#000000; fill-opacity:0.0; 
stroke:#000000; stroke-width:59.0551; stroke-opacity:1; 
stroke-linecap:round; stroke-linejoin:round;">
<path d="M69685 73821
L112205 73821
" />
</g>
<g style="fill:#000000; fill-opacity:0.0; 
stroke:#000000; stroke-width:39.3701; stroke-opacity:1; 
stroke-linecap:round; stroke-linejoin:round;">
</g>
<g style="fill:#000000; fill-opacity:0.0; 
stroke:#000000; stroke-width:157.48; stroke-opacity:1; 
stroke-linecap:round; stroke-linejoin:round;">
<path d="M70257 74099
L70707 74099
" />
<path d="M70384 74886
L70482 74099
" />
<path d="M70871 74886
L70937 74361
" />
<path d="M70970 74099
L70927 74136
L70960 74174
L71002 74136
L70970 74099
L70960 74174
" />
<path d="M71199 74361
L71499 74361
" />
<path d="M71345 74099
L71260 74774
L71288 74849
L71359 74886
L71434 74886
" />
<path d="M71809 74886
L71738 74849
L71710 74774
L71795 74099
" />
<path d="M72413 74849
L72334 74886
L72184 74886
L72113 74849
L72085 74774
L72123 74474
L72169 74399
L72249 74361
L72399 74361
L72469 74399
L72498 74474
L72488 74549
L72104 74624
" />
<path d="M72793 74811
L72826 74849
L72783 74886
L72751 74849
L72793 74811
L72783 74886
" />
<path d="M72844 74399
L72877 74436
L72835 74474
L72802 74436
L72844 74399
L72835 74474
" />
</g>
<g style="fill:#000000; fill-opacity:0.0; 
stroke:#000000; stroke-width:39.3701; stroke-opacity:1; 
stroke-linecap:round; stroke-linejoin:round;">
</g>
<g style="fill:#000000; fill-opacity:0.0; 
stroke:#000000; stroke-width:59.0551; stroke-opacity:1; 
stroke-linecap:round; stroke-linejoin:round;">
<path d="M70417 73070
L70220 73070
" />
<path d="M70220 73380
L70220 72789
L70501 72789
" />
<path d="M70726 73380
L70726 72986
" />
<path d="M70726 72789
L70698 72817
L70726 72845
L70754 72817
L70726 72789
L70726 72845
" />
<path d="M71091 73380
L71035 73352
L71007 73295
L71007 72789
" />
<path d="M71541 73352
L71485 73380
L71373 73380
L71316 73352
L71288 73295
L71288 73070
L71316 73014
L71373 72986
L71485 72986
L71541 73014
L71570 73070
L71570 73127
L71288 73183
" />
<path d="M71823 73323
L71851 73352
L71823 73380
L71795 73352
L71823 73323
L71823 73380
" />
<path d="M71823 73014
L71851 73042
L71823 73070
L71795 73042
L71823 73014
L71823 73070
" />
<path d="M72666 72789
L72779 72789
L72835 72817
L72891 72874
L72919 72986
L72919 73183
L72891 73295
L72835 73352
L72779 73380
L72666 73380
L72610 73352
L72554 73295
L72526 73183
L72526 72986
L72554 72874
L72610 72817
L72666 72789
" />
<path d="M73172 72986
L73172 73577
" />
<path d="M73172 73014
L73229 72986
L73341 72986
L73397 73014
L73426 73042
L73454 73099
L73454 73267
L73426 73323
L73397 73352
L73341 73380
L73229 73380
L73172 73352
" />
<path d="M73932 73352
L73876 73380
L73763 73380
L73707 73352
L73679 73295
L73679 73070
L73707 73014
L73763 72986
L73876 72986
L73932 73014
L73960 73070
L73960 73127
L73679 73183
" />
<path d="M74213 72986
L74213 73380
" />
<path d="M74213 73042
L74241 73014
L74297 72986
L74382 72986
L74438 73014
L74466 73070
L74466 73380
" />
<path d="M74747 73380
L74747 72789
L74888 72789
L74972 72817
L75028 72874
L75057 72930
L75085 73042
L75085 73127
L75057 73239
L75028 73295
L74972 73352
L74888 73380
L74747 73380
" />
<path d="M75338 73380
L75338 72986
" />
<path d="M75338 73099
L75366 73042
L75394 73014
L75450 72986
L75507 72986
" />
<path d="M75788 73380
L75732 73352
L75703 73323
L75675 73267
L75675 73099
L75703 73042
L75732 73014
L75788 72986
L75872 72986
L75928 73014
L75956 73042
L75985 73099
L75985 73267
L75956 73323
L75928 73352
L75872 73380
L75788 73380
" />
<path d="M76238 72986
L76238 73577
" />
<path d="M76238 73014
L76294 72986
L76406 72986
L76463 73014
L76491 73042
L76519 73099
L76519 73267
L76491 73323
L76463 73352
L76406 73380
L76294 73380
L76238 73352
" />
<path d="M76688 72789
L76885 73380
L77081 72789
" />
<path d="M77222 72789
L77588 72789
L77391 73014
L77475 73014
L77531 73042
L77559 73070
L77588 73127
L77588 73267
L77559 73323
L77531 73352
L77475 73380
L77306 73380
L77250 73352
L77222 73323
" />
<path d="M77841 73323
L77869 73352
L77841 73380
L77813 73352
L77841 73323
L77841 73380
" />
<path d="M78122 73380
L78122 72789
" />
<path d="M78178 73155
L78347 73380
" />
<path d="M78347 72986
L78122 73211
" />
<path d="M78600 73380
L78600 72986
" />
<path d="M78600 72789
L78572 72817
L78600 72845
L78628 72817
L78600 72789
L78600 72845
" />
<path d="M79134 73352
L79078 73380
L78965 73380
L78909 73352
L78881 73323
L78853 73267
L78853 73099
L78881 73042
L78909 73014
L78965 72986
L79078 72986
L79134 73014
" />
<path d="M79640 73380
L79640 73070
L79612 73014
L79556 72986
L79444 72986
L79387 73014
" />
<path d="M79640 73352
L79584 73380
L79444 73380
L79387 73352
L79359 73295
L79359 73239
L79387 73183
L79444 73155
L79584 73155
L79640 73127
" />
<path d="M80175 73380
L80175 72789
" />
<path d="M80175 73352
L80118 73380
L80006 73380
L79950 73352
L79922 73323
L79894 73267
L79894 73099
L79922 73042
L79950 73014
L80006 72986
L80118 72986
L80175 73014
" />
<path d="M80315 73436
L80765 73436
" />
<path d="M80906 72986
L80906 73577
" />
<path d="M80906 73014
L80962 72986
L81075 72986
L81131 73014
L81159 73042
L81187 73099
L81187 73267
L81159 73323
L81131 73352
L81075 73380
L80962 73380
L80906 73352
" />
<path d="M81693 73352
L81637 73380
L81525 73380
L81468 73352
L81440 73323
L81412 73267
L81412 73099
L81440 73042
L81468 73014
L81525 72986
L81637 72986
L81693 73014
" />
<path d="M81946 73380
L81946 72789
" />
<path d="M81946 73014
L82003 72986
L82115 72986
L82171 73014
L82199 73042
L82228 73099
L82228 73267
L82199 73323
L82171 73352
L82115 73380
L82003 73380
L81946 73352
" />
</g>
<g style="fill:#000000; fill-opacity:0.0; 
stroke:#000000; stroke-width:39.3701; stroke-opacity:1; 
stroke-linecap:round; stroke-linejoin:round;">
</g>
<g style="fill:#000000; fill-opacity:0.0; 
stroke:#000000; stroke-width:59.0551; stroke-opacity:1; 
stroke-linecap:round; stroke-linejoin:round;">
<path d="M69685 71459
L112205 71459
" />
</g>
<g style="fill:#000000; fill-opacity:0.0; 
stroke:#000000; stroke-width:39.3701; stroke-opacity:1; 
stroke-linecap:round; stroke-linejoin:round;">
</g>
<g style="fill:#000000; fill-opacity:0.0; 
stroke:#000000; stroke-width:59.0551; stroke-opacity:1; 
stroke-linecap:round; stroke-linejoin:round;">
<path d="M70192 72289
L70276 72317
L70417 72317
L70473 72289
L70501 72260
L70529 72204
L70529 72148
L70501 72092
L70473 72064
L70417 72036
L70304 72007
L70248 71979
L70220 71951
L70192 71895
L70192 71839
L70220 71782
L70248 71754
L70304 71726
L70445 71726
L70529 71754
" />
<path d="M70782 72317
L70782 71726
" />
<path d="M71035 72317
L71035 72007
L71007 71951
L70951 71923
L70867 71923
L70810 71951
L70782 71979
" />
<path d="M71541 72289
L71485 72317
L71373 72317
L71316 72289
L71288 72232
L71288 72007
L71316 71951
L71373 71923
L71485 71923
L71541 71951
L71570 72007
L71570 72064
L71288 72120
" />
<path d="M72048 72289
L71991 72317
L71879 72317
L71823 72289
L71795 72232
L71795 72007
L71823 71951
L71879 71923
L71991 71923
L72048 71951
L72076 72007
L72076 72064
L71795 72120
" />
<path d="M72244 71923
L72469 71923
" />
<path d="M72329 71726
L72329 72232
L72357 72289
L72413 72317
L72469 72317
" />
<path d="M72666 72260
L72694 72289
L72666 72317
L72638 72289
L72666 72260
L72666 72317
" />
<path d="M72666 71951
L72694 71979
L72666 72007
L72638 71979
L72666 71951
L72666 72007
" />
</g>
<g style="fill:#000000; fill-opacity:0.0; 
stroke:#000000; stroke-width:39.3701; stroke-opacity:1; 
stroke-linecap:round; stroke-linejoin:round;">
</g>
<g style="fill:#000000; fill-opacity:0.0; 
stroke:#000000; stroke-width:59.0551; stroke-opacity:1; 
stroke-linecap:round; stroke-linejoin:round;">
<path d="M77559 75396
L77559 76577
" />
</g>
<g style="fill:#000000; fill-opacity:0.0; 
stroke:#000000; stroke-width:39.3701; stroke-opacity:1; 
stroke-linecap:round; stroke-linejoin:round;">
</g>
<g style="fill:#000000; fill-opacity:0.0; 
stroke:#000000; stroke-width:59.0551; stroke-opacity:1; 
stroke-linecap:round; stroke-linejoin:round;">
<path d="M102756 75396
L102756 77955
" />
</g>
<g style="fill:#000000; fill-opacity:0.0; 
stroke:#000000; stroke-width:39.3701; stroke-opacity:1; 
stroke-linecap:round; stroke-linejoin:round;">
<path d="M18897 50000
L18897 56299
" />
<path d="M18897 16929
L18897 48425
" />
<path d="M18897 12204
L18897 15354
" />
<path d="M59842 15354
L59842 12204
" />
<path d="M59842 48425
L59842 16929
" />
<path d="M59842 56299
L59842 50000
" />
<path d="M19685 15354
L19685 13779
" />
<path d="M19685 48425
L19685 16929
" />
<path d="M18897 50000
L19685 50000
" />
<path d="M18897 48425
L19685 48425
" />
<path d="M18897 16929
L19685 16929
" />
<path d="M18897 15354
L19685 15354
" />
<path d="M59055 15354
L59055 13779
" />
<path d="M59055 48425
L59055 16929
" />
<path d="M59055 48425
L59842 48425
" />
<path d="M59055 50000
L59842 50000
" />
<path d="M59055 51181
L59055 50000
" />
<path d="M59842 16929
L59055 16929
" />
<path d="M59842 15354
L59055 15354
" />
<path d="M59842 56299
L63779 56299
" />
<path d="M63779 12204
L59842 12204
" />
<path d="M14960 12204
L18897 12204
" />
<path d="M14960 56299
L18897 56299
" />
<path d="M14960 12204
L14960 56299
" />
<path d="M63779 12204
L63779 56299
" />
<path d="M59055 50000
L59055 53537
" />
<path d="M55118.1 22844.5 A196.85 196.85 0.0 0 0 55118.1 22450.8 " />
<path d="M48818.9 22450.8 A196.85 196.85 0.0 0 0 48818.9 22844.5 " />
<path d="M55118 22844
L48818 22844
" />
<path d="M48818 22450
L55118 22450
" />
<path d="M20988 53903
L19685 53537
" />
<path d="M22256 54226
L20988 53903
" />
<path d="M24296 54699
L22256 54226
" />
<path d="M26626 55163
L24296 54699
" />
<path d="M28697 55510
L26626 55163
" />
<path d="M30784 55793
L28697 55510
" />
<path d="M32894 56014
L30784 55793
" />
<path d="M34937 56175
L32894 56014
" />
<path d="M36567 56258
L34937 56175
" />
<path d="M38819 56301
L36567 56258
" />
<path d="M40386 56301
L38819 56301
" />
<path d="M41815 56266
L40386 56301
" />
<path d="M43882 56163
L41815 56266
" />
<path d="M45607 56037
L43882 56163
" />
<path d="M47622 55825
L45607 56037
" />
<path d="M49197 55628
L47622 55825
" />
<path d="M51193 55321
L49197 55628
" />
<path d="M53288 54935
L51193 55321
" />
<path d="M54823 54612
L53288 54935
" />
<path d="M56284 54274
L54823 54612
" />
<path d="M57953 53844
L56284 54274
" />
<path d="M59051 53537
L57953 53844
" />
<path d="M59055.1 13779.5 A1574.8 1574.8 0.0 0 0 57480.3 12204.7 " />
<path d="M21259.8 12204.7 A1574.8 1574.8 0.0 0 0 19685 13779.5 " />
<path d="M19685 50000
L19685 53537
" />
<path d="M21259 12204
L57480 12204
" />
</g>
<g style="fill:#000000; fill-opacity:0.0; 
stroke:#000000; stroke-width:19.685; stroke-opacity:1; 
stroke-linecap:round; stroke-linejoin:round;">
<circle cx="16929.1" cy="53937" r="610.236" /> 
<circle cx="16929.1" cy="14173.2" r="610.236" /> 
<circle cx="61811" cy="54330.7" r="610.236" /> 
<circle cx="61811" cy="14173.2" r="610.236" /> 
<path d="M50748 23409
L50748 24157
" />
<path d="M50748 24157
L49251 24157
" />
<path d="M49251 24157
L49251 23409
" />
<path d="M49251 23409
L50748 23409
" />
<circle cx="57874" cy="52755.9" r="610.236" /> 
<circle cx="57874" cy="13385.8" r="610.236" /> 
<circle cx="20866.1" cy="52755.9" r="610.236" /> 
<path d="M52716 23409
L52716 24157
" />
<path d="M52716 24157
L51220 24157
" />
<path d="M51220 24157
L51220 23409
" />
<path d="M51220 23409
L52716 23409
" />
<path d="M54685 23409
L54685 24157
" />
<path d="M54685 24157
L53188 24157
" />
<path d="M53188 24157
L53188 23409
" />
<path d="M53188 23409
L54685 23409
" />
<path d="M31791 37007
L32874 37007
" />
<path d="M31791 35925
L31791 37007
" />
<path d="M32874 35925
L32874 37007
" />
<path d="M31791 35925
L32874 35925
" />
<path d="M31791 42421
L32874 42421
" />
<path d="M31791 41338
L31791 42421
" />
<path d="M32874 41338
L32874 42421
" />
<path d="M31791 41338
L32874 41338
" />
<path d="M32874 37007
L33956 37007
" />
<path d="M32874 35925
L32874 37007
" />
<path d="M33956 35925
L33956 37007
" />
<path d="M32874 35925
L33956 35925
" />
<path d="M32874 38090
L33956 38090
" />
<path d="M32874 37007
L32874 38090
" />
<path d="M33956 37007
L33956 38090
" />
<path d="M32874 37007
L33956 37007
" />
<path d="M32874 39173
L33956 39173
" />
<path d="M32874 38090
L32874 39173
" />
<path d="M33956 38090
L33956 39173
" />
<path d="M32874 38090
L33956 38090
" />
<path d="M32874 40255
L33956 40255
" />
<path d="M32874 39173
L32874 40255
" />
<path d="M33956 39173
L33956 40255
" />
<path d="M32874 39173
L33956 39173
" />
<path d="M32874 41338
L33956 41338
" />
<path d="M32874 40255
L32874 41338
" />
<path d="M33956 40255
L33956 41338
" />
<path d="M32874 40255
L33956 40255
" />
<path d="M32874 42421
L33956 42421
" />
<path d="M32874 41338
L32874 42421
" />
<path d="M33956 41338
L33956 42421
" />
<path d="M32874 41338
L33956 41338
" />
<path d="M33956 37007
L35039 37007
" />
<path d="M33956 35925
L33956 37007
" />
<path d="M35039 35925
L35039 37007
" />
<path d="M33956 35925
L35039 35925
" />
<path d="M33956 38090
L35039 38090
" />
<path d="M33956 37007
L33956 38090
" />
<path d="M35039 37007
L35039 38090
" />
<path d="M33956 37007
L35039 37007
" />
<path d="M33956 39173
L35039 39173
" />
<path d="M33956 38090
L33956 39173
" />
<path d="M35039 38090
L35039 39173
" />
<path d="M33956 38090
L35039 38090
" />
<path d="M33956 40255
L35039 40255
" />
<path d="M33956 39173
L33956 40255
" />
<path d="M35039 39173
L35039 40255
" />
<path d="M33956 39173
L35039 39173
" />
<path d="M33956 41338
L35039 41338
" />
<path d="M33956 40255
L33956 41338
" />
<path d="M35039 40255
L35039 41338
" />
<path d="M33956 40255
L35039 40255
" />
<path d="M33956 42421
L35039 42421
" />
<path d="M33956 41338
L33956 42421
" />
<path d="M35039 41338
L35039 42421
" />
<path d="M33956 41338
L35039 41338
" />
<path d="M35039 37007
L36122 37007
" />
<path d="M35039 35925
L35039 37007
" />
<path d="M36122 35925
L36122 37007
" />
<path d="M35039 35925
L36122 35925
" />
<path d="M35039 38090
L36122 38090
" />
<path d="M35039 37007
L35039 38090
" />
<path d="M36122 37007
L36122 38090
" />
<path d="M35039 37007
L36122 37007
" />
<path d="M35039 39173
L36122 39173
" />
<path d="M35039 38090
L35039 39173
" />
<path d="M36122 38090
L36122 39173
" />
<path d="M35039 38090
L36122 38090
" />
<path d="M35039 40255
L36122 40255
" />
<path d="M35039 39173
L35039 40255
" />
<path d="M36122 39173
L36122 40255
" />
<path d="M35039 39173
L36122 39173
" />
<path d="M35039 41338
L36122 41338
" />
<path d="M35039 40255
L35039 41338
" />
<path d="M36122 40255
L36122 41338
" />
<path d="M35039 40255
L36122 40255
" />
<path d="M35039 42421
L36122 42421
" />
<path d="M35039 41338
L35039 42421
" />
<path d="M36122 41338
L36122 42421
" />
<path d="M35039 41338
L36122 41338
" />
<path d="M36122 37007
L37204 37007
" />
<path d="M36122 35925
L36122 37007
" />
<path d="M37204 35925
L37204 37007
" />
<path d="M36122 35925
L37204 35925
" />
<path d="M36122 38090
L37204 38090
" />
<path d="M36122 37007
L36122 38090
" />
<path d="M37204 37007
L37204 38090
" />
<path d="M36122 37007
L37204 37007
" />
<path d="M36122 39173
L37204 39173
" />
<path d="M36122 38090
L36122 39173
" />
<path d="M37204 38090
L37204 39173
" />
<path d="M36122 38090
L37204 38090
" />
<path d="M36122 40255
L37204 40255
" />
<path d="M36122 39173
L36122 40255
" />
<path d="M37204 39173
L37204 40255
" />
<path d="M36122 39173
L37204 39173
" />
<path d="M36122 41338
L37204 41338
" />
<path d="M36122 40255
L36122 41338
" />
<path d="M37204 40255
L37204 41338
" />
<path d="M36122 40255
L37204 40255
" />
<path d="M36122 42421
L37204 42421
" />
<path d="M36122 41338
L36122 42421
" />
<path d="M37204 41338
L37204 42421
" />
<path d="M36122 41338
L37204 41338
" />
<path d="M37204 37007
L38287 37007
" />
<path d="M37204 35925
L37204 37007
" />
<path d="M38287 35925
L38287 37007
" />
<path d="M37204 35925
L38287 35925
" />
<path d="M37204 38090
L38287 38090
" />
<path d="M37204 37007
L37204 38090
" />
<path d="M38287 37007
L38287 38090
" />
<path d="M37204 37007
L38287 37007
" />
<path d="M37204 39173
L38287 39173
" />
<path d="M37204 38090
L37204 39173
" />
<path d="M38287 38090
L38287 39173
" />
<path d="M37204 38090
L38287 38090
" />
<path d="M37204 40255
L38287 40255
" />
<path d="M37204 39173
L37204 40255
" />
<path d="M38287 39173
L38287 40255
" />
<path d="M37204 39173
L38287 39173
" />
<path d="M37204 41338
L38287 41338
" />
<path d="M37204 40255
L37204 41338
" />
<path d="M38287 40255
L38287 41338
" />
<path d="M37204 40255
L38287 40255
" />
<path d="M37204 42421
L38287 42421
" />
<path d="M37204 41338
L37204 42421
" />
<path d="M38287 41338
L38287 42421
" />
<path d="M37204 41338
L38287 41338
" />
<path d="M38287 37007
L39370 37007
" />
<path d="M38287 35925
L38287 37007
" />
<path d="M39370 35925
L39370 37007
" />
<path d="M38287 35925
L39370 35925
" />
<path d="M38287 38090
L39370 38090
" />
<path d="M38287 37007
L38287 38090
" />
<path d="M39370 37007
L39370 38090
" />
<path d="M38287 37007
L39370 37007
" />
<path d="M38287 39173
L39370 39173
" />
<path d="M38287 38090
L38287 39173
" />
<path d="M39370 38090
L39370 39173
" />
<path d="M38287 38090
L39370 38090
" />
<path d="M38287 40255
L39370 40255
" />
<path d="M38287 39173
L38287 40255
" />
<path d="M39370 39173
L39370 40255
" />
<path d="M38287 39173
L39370 39173
" />
<path d="M38287 41338
L39370 41338
" />
<path d="M38287 40255
L38287 41338
" />
<path d="M39370 40255
L39370 41338
" />
<path d="M38287 40255
L39370 40255
" />
<path d="M38287 42421
L39370 42421
" />
<path d="M38287 41338
L38287 42421
" />
<path d="M39370 41338
L39370 42421
" />
<path d="M38287 41338
L39370 41338
" />
<path d="M39370 37007
L40452 37007
" />
<path d="M39370 35925
L39370 37007
" />
<path d="M40452 35925
L40452 37007
" />
<path d="M39370 35925
L40452 35925
" />
<path d="M39370 38090
L40452 38090
" />
<path d="M39370 37007
L39370 38090
" />
<path d="M40452 37007
L40452 38090
" />
<path d="M39370 37007
L40452 37007
" />
<path d="M39370 39173
L40452 39173
" />
<path d="M39370 38090
L39370 39173
" />
<path d="M40452 38090
L40452 39173
" />
<path d="M39370 38090
L40452 38090
" />
<path d="M39370 40255
L40452 40255
" />
<path d="M39370 39173
L39370 40255
" />
<path d="M40452 39173
L40452 40255
" />
<path d="M39370 39173
L40452 39173
" />
<path d="M39370 41338
L40452 41338
" />
<path d="M39370 40255
L39370 41338
" />
<path d="M40452 40255
L40452 41338
" />
<path d="M39370 40255
L40452 40255
" />
<path d="M39370 42421
L40452 42421
" />
<path d="M39370 41338
L39370 42421
" />
<path d="M40452 41338
L40452 42421
" />
<path d="M39370 41338
L40452 41338
" />
<path d="M40452 37007
L41535 37007
" />
<path d="M40452 35925
L40452 37007
" />
<path d="M41535 35925
L41535 37007
" />
<path d="M40452 35925
L41535 35925
" />
<path d="M40452 38090
L41535 38090
" />
<path d="M40452 37007
L40452 38090
" />
<path d="M41535 37007
L41535 38090
" />
<path d="M40452 37007
L41535 37007
" />
<path d="M40452 39173
L41535 39173
" />
<path d="M40452 38090
L40452 39173
" />
<path d="M41535 38090
L41535 39173
" />
<path d="M40452 38090
L41535 38090
" />
<path d="M40452 40255
L41535 40255
" />
<path d="M40452 39173
L40452 40255
" />
<path d="M41535 39173
L41535 40255
" />
<path d="M40452 39173
L41535 39173
" />
<path d="M40452 41338
L41535 41338
" />
<path d="M40452 40255
L40452 41338
" />
<path d="M41535 40255
L41535 41338
" />
<path d="M40452 40255
L41535 40255
" />
<path d="M40452 42421
L41535 42421
" />
<path d="M40452 41338
L40452 42421
" />
<path d="M41535 41338
L41535 42421
" />
<path d="M40452 41338
L41535 41338
" />
<path d="M41535 37007
L42618 37007
" />
<path d="M41535 35925
L41535 37007
" />
<path d="M42618 35925
L42618 37007
" />
<path d="M41535 35925
L42618 35925
" />
<path d="M41535 38090
L42618 38090
" />
<path d="M41535 37007
L41535 38090
" />
<path d="M42618 37007
L42618 38090
" />
<path d="M41535 37007
L42618 37007
" />
<path d="M41535 39173
L42618 39173
" />
<path d="M41535 38090
L41535 39173
" />
<path d="M42618 38090
L42618 39173
" />
<path d="M41535 38090
L42618 38090
" />
<path d="M41535 40255
L42618 40255
" />
<path d="M41535 39173
L41535 40255
" />
<path d="M42618 39173
L42618 40255
" />
<path d="M41535 39173
L42618 39173
" />
<path d="M41535 41338
L42618 41338
" />
<path d="M41535 40255
L41535 41338
" />
<path d="M42618 40255
L42618 41338
" />
<path d="M41535 40255
L42618 40255
" />
<path d="M41535 42421
L42618 42421
" />
<path d="M41535 41338
L41535 42421
" />
<path d="M42618 41338
L42618 42421
" />
<path d="M41535 41338
L42618 41338
" />
<path d="M42618 37007
L43700 37007
" />
<path d="M42618 35925
L42618 37007
" />
<path d="M43700 35925
L43700 37007
" />
<path d="M42618 35925
L43700 35925
" />
<path d="M42618 38090
L43700 38090
" />
<path d="M42618 37007
L42618 38090
" />
<path d="M43700 37007
L43700 38090
" />
<path d="M42618 37007
L43700 37007
" />
<path d="M42618 39173
L43700 39173
" />
<path d="M42618 38090
L42618 39173
" />
<path d="M43700 38090
L43700 39173
" />
<path d="M42618 38090
L43700 38090
" />
<path d="M42618 40255
L43700 40255
" />
<path d="M42618 39173
L42618 40255
" />
<path d="M43700 39173
L43700 40255
" />
<path d="M42618 39173
L43700 39173
" />
<path d="M42618 41338
L43700 41338
" />
<path d="M42618 40255
L42618 41338
" />
<path d="M43700 40255
L43700 41338
" />
<path d="M42618 40255
L43700 40255
" />
<path d="M42618 42421
L43700 42421
" />
<path d="M42618 41338
L42618 42421
" />
<path d="M43700 41338
L43700 42421
" />
<path d="M42618 41338
L43700 41338
" />
<path d="M43700 37007
L44783 37007
" />
<path d="M43700 35925
L43700 37007
" />
<path d="M44783 35925
L44783 37007
" />
<path d="M43700 35925
L44783 35925
" />
<path d="M43700 38090
L44783 38090
" />
<path d="M43700 37007
L43700 38090
" />
<path d="M44783 37007
L44783 38090
" />
<path d="M43700 37007
L44783 37007
" />
<path d="M43700 39173
L44783 39173
" />
<path d="M43700 38090
L43700 39173
" />
<path d="M44783 38090
L44783 39173
" />
<path d="M43700 38090
L44783 38090
" />
<path d="M43700 40255
L44783 40255
" />
<path d="M43700 39173
L43700 40255
" />
<path d="M44783 39173
L44783 40255
" />
<path d="M43700 39173
L44783 39173
" />
<path d="M43700 41338
L44783 41338
" />
<path d="M43700 40255
L43700 41338
" />
<path d="M44783 40255
L44783 41338
" />
<path d="M43700 40255
L44783 40255
" />
<path d="M43700 42421
L44783 42421
" />
<path d="M43700 41338
L43700 42421
" />
<path d="M44783 41338
L44783 42421
" />
<path d="M43700 41338
L44783 41338
" />
<path d="M44783 37007
L45866 37007
" />
<path d="M44783 35925
L44783 37007
" />
<path d="M45866 35925
L45866 37007
" />
<path d="M44783 35925
L45866 35925
" />
<path d="M44783 38090
L45866 38090
" />
<path d="M44783 37007
L44783 38090
" />
<path d="M45866 37007
L45866 38090
" />
<path d="M44783 37007
L45866 37007
" />
<path d="M44783 39173
L45866 39173
" />
<path d="M44783 38090
L44783 39173
" />
<path d="M45866 38090
L45866 39173
" />
<path d="M44783 38090
L45866 38090
" />
<path d="M44783 40255
L45866 40255
" />
<path d="M44783 39173
L44783 40255
" />
<path d="M45866 39173
L45866 40255
" />
<path d="M44783 39173
L45866 39173
" />
<path d="M44783 41338
L45866 41338
" />
<path d="M44783 40255
L44783 41338
" />
<path d="M45866 40255
L45866 41338
" />
<path d="M44783 40255
L45866 40255
" />
<path d="M44783 42421
L45866 42421
" />
<path d="M44783 41338
L44783 42421
" />
<path d="M45866 41338
L45866 42421
" />
<path d="M44783 41338
L45866 41338
" />
<path d="M45866 37007
L46948 37007
" />
<path d="M45866 35925
L45866 37007
" />
<path d="M46948 35925
L46948 37007
" />
<path d="M45866 35925
L46948 35925
" />
<path d="M45866 42421
L46948 42421
" />
<path d="M45866 41338
L45866 42421
" />
<path d="M46948 41338
L46948 42421
" />
<path d="M45866 41338
L46948 41338
" />
<path d="M32874 35925
L33956 35925
" />
<path d="M32874 34842
L32874 35925
" />
<path d="M33956 34842
L33956 35925
" />
<path d="M32874 34842
L33956 34842
" />
<path d="M33956 42421
L32874 42421
" />
<path d="M33956 43503
L33956 42421
" />
<path d="M32874 43503
L32874 42421
" />
<path d="M33956 43503
L32874 43503
" />
<path d="M33956 35925
L35039 35925
" />
<path d="M33956 34842
L33956 35925
" />
<path d="M35039 34842
L35039 35925
" />
<path d="M33956 34842
L35039 34842
" />
<path d="M35039 42421
L33956 42421
" />
<path d="M35039 43503
L35039 42421
" />
<path d="M33956 43503
L33956 42421
" />
<path d="M35039 43503
L33956 43503
" />
<path d="M35039 35925
L36122 35925
" />
<path d="M35039 34842
L35039 35925
" />
<path d="M36122 34842
L36122 35925
" />
<path d="M35039 34842
L36122 34842
" />
<path d="M36122 42421
L35039 42421
" />
<path d="M36122 43503
L36122 42421
" />
<path d="M35039 43503
L35039 42421
" />
<path d="M36122 43503
L35039 43503
" />
<path d="M36122 35925
L37204 35925
" />
<path d="M36122 34842
L36122 35925
" />
<path d="M37204 34842
L37204 35925
" />
<path d="M36122 34842
L37204 34842
" />
<path d="M37204 42421
L36122 42421
" />
<path d="M37204 43503
L37204 42421
" />
<path d="M36122 43503
L36122 42421
" />
<path d="M37204 43503
L36122 43503
" />
<path d="M37204 35925
L38287 35925
" />
<path d="M37204 34842
L37204 35925
" />
<path d="M38287 34842
L38287 35925
" />
<path d="M37204 34842
L38287 34842
" />
<path d="M38287 42421
L37204 42421
" />
<path d="M38287 43503
L38287 42421
" />
<path d="M37204 43503
L37204 42421
" />
<path d="M38287 43503
L37204 43503
" />
<path d="M38287 35925
L39370 35925
" />
<path d="M38287 34842
L38287 35925
" />
<path d="M39370 34842
L39370 35925
" />
<path d="M38287 34842
L39370 34842
" />
<path d="M39370 42421
L38287 42421
" />
<path d="M39370 43503
L39370 42421
" />
<path d="M38287 43503
L38287 42421
" />
<path d="M39370 43503
L38287 43503
" />
<path d="M39370 35925
L40452 35925
" />
<path d="M39370 34842
L39370 35925
" />
<path d="M40452 34842
L40452 35925
" />
<path d="M39370 34842
L40452 34842
" />
<path d="M40452 42421
L39370 42421
" />
<path d="M40452 43503
L40452 42421
" />
<path d="M39370 43503
L39370 42421
" />
<path d="M40452 43503
L39370 43503
" />
<path d="M40452 35925
L41535 35925
" />
<path d="M40452 34842
L40452 35925
" />
<path d="M41535 34842
L41535 35925
" />
<path d="M40452 34842
L41535 34842
" />
<path d="M41535 42421
L40452 42421
" />
<path d="M41535 43503
L41535 42421
" />
<path d="M40452 43503
L40452 42421
" />
<path d="M41535 43503
L40452 43503
" />
<path d="M41535 35925
L42618 35925
" />
<path d="M41535 34842
L41535 35925
" />
<path d="M42618 34842
L42618 35925
" />
<path d="M41535 34842
L42618 34842
" />
<path d="M42618 42421
L41535 42421
" />
<path d="M42618 43503
L42618 42421
" />
<path d="M41535 43503
L41535 42421
" />
<path d="M42618 43503
L41535 43503
" />
<path d="M42618 35925
L43700 35925
" />
<path d="M42618 34842
L42618 35925
" />
<path d="M43700 34842
L43700 35925
" />
<path d="M42618 34842
L43700 34842
" />
<path d="M43700 42421
L42618 42421
" />
<path d="M43700 43503
L43700 42421
" />
<path d="M42618 43503
L42618 42421
" />
<path d="M43700 43503
L42618 43503
" />
<path d="M43700 35925
L44783 35925
" />
<path d="M43700 34842
L43700 35925
" />
<path d="M44783 34842
L44783 35925
" />
<path d="M43700 34842
L44783 34842
" />
<path d="M44783 42421
L43700 42421
" />
<path d="M44783 43503
L44783 42421
" />
<path d="M43700 43503
L43700 42421
" />
<path d="M44783 43503
L43700 43503
" />
<path d="M44783 35925
L45866 35925
" />
<path d="M44783 34842
L44783 35925
" />
<path d="M45866 34842
L45866 35925
" />
<path d="M44783 34842
L45866 34842
" />
<path d="M45866 42421
L44783 42421
" />
<path d="M45866 43503
L45866 42421
" />
<path d="M44783 43503
L44783 42421
" />
<path d="M45866 43503
L44783 43503
" />
<path d="M32874 37007
L31791 37007
" />
<path d="M32874 38090
L32874 37007
" />
<path d="M31791 38090
L31791 37007
" />
<path d="M32874 38090
L31791 38090
" />
<path d="M32874 38090
L31791 38090
" />
<path d="M32874 39173
L32874 38090
" />
<path d="M31791 39173
L31791 38090
" />
<path d="M32874 39173
L31791 39173
" />
<path d="M32874 39173
L31791 39173
" />
<path d="M32874 40255
L32874 39173
" />
<path d="M31791 40255
L31791 39173
" />
<path d="M32874 40255
L31791 40255
" />
<path d="M32874 40255
L31791 40255
" />
<path d="M32874 41338
L32874 40255
" />
<path d="M31791 41338
L31791 40255
" />
<path d="M32874 41338
L31791 41338
" />
<path d="M45866 38090
L46948 38090
" />
<path d="M45866 37007
L45866 38090
" />
<path d="M46948 37007
L46948 38090
" />
<path d="M45866 37007
L46948 37007
" />
<path d="M45866 39173
L46948 39173
" />
<path d="M45866 38090
L45866 39173
" />
<path d="M46948 38090
L46948 39173
" />
<path d="M45866 38090
L46948 38090
" />
<path d="M45866 40255
L46948 40255
" />
<path d="M45866 39173
L45866 40255
" />
<path d="M46948 39173
L46948 40255
" />
<path d="M45866 39173
L46948 39173
" />
<path d="M45866 41338
L46948 41338
" />
<path d="M45866 40255
L45866 41338
" />
<path d="M46948 40255
L46948 41338
" />
<path d="M45866 40255
L46948 40255
" />
<path d="M31791 35925
L32874 35925
" />
<path d="M31791 34842
L31791 35925
" />
<path d="M32874 34842
L32874 35925
" />
<path d="M31791 34842
L32874 34842
" />
<path d="M32874 42421
L31791 42421
" />
<path d="M32874 43503
L32874 42421
" />
<path d="M31791 43503
L31791 42421
" />
<path d="M32874 43503
L31791 43503
" />
<path d="M45866 35925
L46948 35925
" />
<path d="M45866 34842
L45866 35925
" />
<path d="M46948 34842
L46948 35925
" />
<path d="M45866 34842
L46948 34842
" />
<path d="M30167 37007
L29084 37007
" />
<path d="M29084 37007
L29084 35925
" />
<path d="M30167 35925
L29084 35925
" />
<path d="M30708 35925
L29625 35925
" />
<path d="M30708 37007
L30708 35925
" />
<path d="M30708 37007
L29625 37007
" />
</g>
<g style="fill:#000000; fill-opacity:0.0; 
stroke:#000000; stroke-width:59.0551; stroke-opacity:1; 
stroke-linecap:round; stroke-linejoin:round;">
<path d="M49606 22647
L49606 22057
" />
<path d="M54330 22647
L54330 22057
" />
<path d="M47677 19714
L48129 19714
" />
<path d="M56259 19714
L55807 19714
" />
<path d="M47677 15305
L47677 19714
" />
<path d="M47677 15305
L56259 15305
" />
<path d="M56259 15305
L56259 19714
" />
<path d="M46692 14478
L57244 14478
" />
<path d="M46692 14478
L46692 22057
" />
<path d="M57244 14478
L57244 22057
" />
<path d="M49606 22647
L54330 22647
" />
<path d="M46692 22057
L57244 22057
" />
</g>
<g style="fill:#000000; fill-opacity:0.0; 
stroke:#000000; stroke-width:19.685; stroke-opacity:1; 
stroke-linecap:round; stroke-linejoin:round;">
<path d="M46948 42421
L45866 42421
" />
<path d="M46948 43503
L46948 42421
" />
<path d="M45866 43503
L45866 42421
" />
<path d="M46948 43503
L45866 43503
" />
<path d="M30708 37007
L31791 37007
" />
<path d="M30708 35925
L30708 37007
" />
<path d="M31791 35925
L31791 37007
" />
<path d="M30708 35925
L31791 35925
" />
<path d="M30167 35925
L31250 35925
" />
<path d="M30167 34842
L30167 35925
" />
<path d="M31250 34842
L31250 35925
" />
<path d="M30167 34842
L31250 34842
" />
<path d="M30167 37007
L30167 38090
" />
<path d="M31250 37007
L30167 37007
" />
<path d="M31250 38090
L30167 38090
" />
<path d="M31250 37007
L31250 38090
" />
<path d="M30167 34842
L29084 34842
" />
<path d="M30167 35925
L30167 34842
" />
<path d="M30167 35925
L29084 35925
" />
<path d="M30167 37007
L29084 37007
" />
<path d="M30167 38090
L30167 37007
" />
<path d="M30167 38090
L29084 38090
" />
<path d="M30167 35925
L29084 35925
" />
<path d="M30167 34842
L29084 34842
" />
<path d="M29625 34842
L28543 34842
" />
<path d="M28543 35925
L28543 34842
" />
<path d="M29625 35925
L28543 35925
" />
<path d="M29625 38090
L29625 34842
" />
<path d="M30167 38090
L29084 38090
" />
<path d="M29625 38090
L29625 37007
" />
<path d="M30167 37007
L29084 37007
" />
<path d="M29625 37007
L28543 37007
" />
<path d="M28543 38090
L28543 37007
" />
<path d="M29625 38090
L28543 38090
" />
<path d="M29625 38090
L29625 37007
" />
<path d="M30708 37007
L29625 37007
" />
<path d="M30708 37007
L30708 35925
" />
<path d="M30708 35925
L29625 35925
" />
<path d="M30167 35925
L29084 35925
" />
<path d="M29084 37007
L29084 35925
" />
<path d="M30167 37007
L29084 37007
" />
<path d="M28543 35925
L27460 35925
" />
<path d="M29084 35925
L28001 35925
" />
<path d="M29084 37007
L29084 35925
" />
<path d="M29084 37007
L28001 37007
" />
<path d="M30167 42421
L30167 43503
" />
<path d="M31250 42421
L30167 42421
" />
<path d="M31250 43503
L30167 43503
" />
<path d="M31250 42421
L31250 43503
" />
<path d="M48572 41338
L48572 40255
" />
<path d="M47490 41338
L48572 41338
" />
<path d="M47490 40255
L48572 40255
" />
<path d="M47490 41338
L47490 40255
" />
<path d="M30167 40255
L29084 40255
" />
<path d="M30167 41338
L30167 40255
" />
<path d="M30167 41338
L29084 41338
" />
<path d="M30167 42421
L29084 42421
" />
<path d="M30167 43503
L30167 42421
" />
<path d="M30167 43503
L29084 43503
" />
<path d="M30167 41338
L29084 41338
" />
<path d="M30167 40255
L29084 40255
" />
<path d="M29625 40255
L28543 40255
" />
<path d="M28543 41338
L28543 40255
" />
<path d="M29625 41338
L28543 41338
" />
<path d="M29625 43503
L29625 40255
" />
<path d="M30167 43503
L29084 43503
" />
<path d="M29625 43503
L29625 42421
" />
<path d="M30167 42421
L29084 42421
" />
<path d="M29625 42421
L28543 42421
" />
<path d="M28543 43503
L28543 42421
" />
<path d="M29625 43503
L28543 43503
" />
<path d="M29625 43503
L29625 42421
" />
<path d="M30708 42421
L29625 42421
" />
<path d="M30708 42421
L30708 41338
" />
<path d="M30708 41338
L29625 41338
" />
<path d="M30167 41338
L29084 41338
" />
<path d="M29084 42421
L29084 41338
" />
<path d="M30167 42421
L29084 42421
" />
<path d="M28543 41338
L27460 41338
" />
<path d="M29084 41338
L28001 41338
" />
<path d="M29084 42421
L29084 41338
" />
<path d="M29084 42421
L28001 42421
" />
<path d="M30167 42421
L29084 42421
" />
<path d="M29084 42421
L29084 41338
" />
<path d="M30167 41338
L29084 41338
" />
<path d="M30708 41338
L29625 41338
" />
<path d="M30708 42421
L30708 41338
" />
<path d="M30708 42421
L29625 42421
" />
<path d="M30167 41338
L31250 41338
" />
<path d="M30167 40255
L30167 41338
" />
<path d="M31250 40255
L31250 41338
" />
<path d="M30167 40255
L31250 40255
" />
<path d="M30708 42421
L31791 42421
" />
<path d="M30708 41338
L30708 42421
" />
<path d="M31791 41338
L31791 42421
" />
<path d="M30708 41338
L31791 41338
" />
<path d="M48031 35925
L46948 35925
" />
<path d="M48031 37007
L48031 35925
" />
<path d="M46948 37007
L46948 35925
" />
<path d="M48031 37007
L46948 37007
" />
<path d="M48572 35925
L48572 34842
" />
<path d="M47490 35925
L48572 35925
" />
<path d="M47490 34842
L48572 34842
" />
<path d="M47490 35925
L47490 34842
" />
<path d="M48572 35925
L49655 35925
" />
<path d="M49655 35925
L49655 37007
" />
<path d="M48572 37007
L49655 37007
" />
<path d="M48031 37007
L49114 37007
" />
<path d="M48031 35925
L48031 37007
" />
<path d="M48031 35925
L49114 35925
" />
<path d="M48572 38090
L49655 38090
" />
<path d="M48572 37007
L48572 38090
" />
<path d="M48572 37007
L49655 37007
" />
<path d="M48572 35925
L49655 35925
" />
<path d="M48572 34842
L48572 35925
" />
<path d="M48572 34842
L49655 34842
" />
<path d="M48572 37007
L49655 37007
" />
<path d="M48572 38090
L49655 38090
" />
<path d="M49114 38090
L50196 38090
" />
<path d="M50196 37007
L50196 38090
" />
<path d="M49114 37007
L50196 37007
" />
<path d="M49114 34842
L49114 38090
" />
<path d="M48572 34842
L49655 34842
" />
<path d="M49114 34842
L49114 35925
" />
<path d="M48572 35925
L49655 35925
" />
<path d="M49114 35925
L50196 35925
" />
<path d="M50196 34842
L50196 35925
" />
<path d="M49114 34842
L50196 34842
" />
<path d="M49114 34842
L49114 35925
" />
<path d="M48031 35925
L49114 35925
" />
<path d="M48031 35925
L48031 37007
" />
<path d="M48031 37007
L49114 37007
" />
<path d="M48572 37007
L49655 37007
" />
<path d="M49655 35925
L49655 37007
" />
<path d="M48572 35925
L49655 35925
" />
<path d="M50196 37007
L51279 37007
" />
<path d="M49655 37007
L50738 37007
" />
<path d="M49655 35925
L49655 37007
" />
<path d="M49655 35925
L50738 35925
" />
<path d="M48572 43503
L49655 43503
" />
<path d="M48572 42421
L48572 43503
" />
<path d="M48572 42421
L49655 42421
" />
<path d="M48572 41338
L49655 41338
" />
<path d="M48572 40255
L48572 41338
" />
<path d="M48572 40255
L49655 40255
" />
<path d="M48572 42421
L49655 42421
" />
<path d="M48572 43503
L49655 43503
" />
<path d="M49114 43503
L50196 43503
" />
<path d="M50196 42421
L50196 43503
" />
<path d="M49114 42421
L50196 42421
" />
<path d="M49114 40255
L49114 43503
" />
<path d="M48572 40255
L49655 40255
" />
<path d="M49114 40255
L49114 41338
" />
<path d="M48572 41338
L49655 41338
" />
<path d="M49114 41338
L50196 41338
" />
<path d="M50196 40255
L50196 41338
" />
<path d="M49114 40255
L50196 40255
" />
<path d="M49114 40255
L49114 41338
" />
<path d="M48031 41338
L49114 41338
" />
<path d="M48031 41338
L48031 42421
" />
<path d="M48031 42421
L49114 42421
" />
<path d="M48572 42421
L49655 42421
" />
<path d="M49655 41338
L49655 42421
" />
<path d="M48572 41338
L49655 41338
" />
<path d="M50196 42421
L51279 42421
" />
<path d="M49655 42421
L50738 42421
" />
<path d="M49655 41338
L49655 42421
" />
<path d="M49655 41338
L50738 41338
" />
<path d="M48572 41338
L49655 41338
" />
<path d="M49655 41338
L49655 42421
" />
<path d="M48572 42421
L49655 42421
" />
<path d="M48031 42421
L49114 42421
" />
<path d="M48031 41338
L48031 42421
" />
<path d="M48031 41338
L49114 41338
" />
<path d="M48572 42421
L47490 42421
" />
<path d="M48572 43503
L48572 42421
" />
<path d="M47490 43503
L47490 42421
" />
<path d="M48572 43503
L47490 43503
" />
<path d="M48031 41338
L46948 41338
" />
<path d="M48031 42421
L48031 41338
" />
<path d="M46948 42421
L46948 41338
" />
<path d="M48031 42421
L46948 42421
" />
<path d="M48572 37007
L47490 37007
" />
<path d="M48572 38090
L48572 37007
" />
<path d="M47490 38090
L47490 37007
" />
<path d="M48572 38090
L47490 38090
" />
</g> 
</svg>
