  0
SECTION
  2
HEADER
  9
$ACADVER
  1
AC1014
  9
$HANDSEED
  5
FFFF
  9
$MEASUREMENT
 70
     1
  0
ENDSEC
  0
SECTION
  2
TABLES
  0
TABLE
  2
VPORT
  5
8
330
0
100
AcDbSymbolTable
 70
     4
  0
VPORT
  5
2E
330
8
100
AcDbSymbolTableRecord
100
AcDbViewportTableRecord
  2
*ACTIVE
 70
     0
 10
0.0
 20
0.0
 11
1.0
 21
1.0
 12
210.0
 22
148.5
 13
0.0
 23
0.0
 14
10.0
 24
10.0
 15
10.0
 25
10.0
 16
0.0
 26
0.0
 36
1.0
 17
0.0
 27
0.0
 37
0.0
 40
341.0
 41
1.24
 42
50.0
 43
0.0
 44
0.0
 50
0.0
 51
0.0
 71
     0
 72
   100
 73
     1
 74
     3
 75
     0
 76
     0
 77
     0
 78
     0
  0
ENDTAB
  0
TABLE
  2
LTYPE
  5
5
330
0
100
AcDbSymbolTable
 70
     1
  0
LTYPE
  5
14
330
5
100
AcDbSymbolTableRecord
100
AcDbLinetypeTableRecord
  2
BYBLOCK
 70
     0
  3

 72
    65
 73
     0
 40
0.0
  0
LTYPE
  5
15
330
5
100
AcDbSymbolTableRecord
100
AcDbLinetypeTableRecord
  2
BYLAYER
 70
     0
  3

 72
    65
 73
     0
 40
0.0
  0
LTYPE
  5
16
330
5
100
AcDbSymbolTableRecord
100
AcDbLinetypeTableRecord
  2
CONTINUOUS
 70
     0
  3
Solid line
 72
    65
 73
     0
 40
0.0
  0
ENDTAB
  0
TABLE
  2
LAYER
  5
2
100
AcDbSymbolTable
 70
2
  0
LAYER
  5
50
100
AcDbSymbolTableRecord
100
AcDbLayerTableRecord
  2
0
 70
0
  6
CONTINUOUS
  0
LAYER
  5
51
100
AcDbSymbolTableRecord
100
AcDbLayerTableRecord
  2
Layer_1
 70
0
  6
CONTINUOUS
  0
ENDTAB
  0
TABLE
  2
STYLE
  5
3
330
0
100
AcDbSymbolTable
 70
     1
  0
STYLE
  5
11
330
3
100
AcDbSymbolTableRecord
100
AcDbTextStyleTableRecord
  2
STANDARD
 70
     0
 40
0.0
 41
1.0
 50
0.0
 71
     0
 42
2.5
  3
txt
  4

  0
ENDTAB
  0
TABLE
  2
VIEW
  5
6
330
0
100
AcDbSymbolTable
 70
     0
  0
ENDTAB
  0
TABLE
  2
UCS
  5
7
330
0
100
AcDbSymbolTable
 70
     0
  0
ENDTAB
  0
TABLE
  2
APPID
  5
9
330
0
100
AcDbSymbolTable
 70
     2
  0
APPID
  5
12
330
9
100
AcDbSymbolTableRecord
100
AcDbRegAppTableRecord
  2
ACAD
 70
     0
  0
ENDTAB
  0
TABLE
  2
DIMSTYLE
  5
A
330
0
100
AcDbSymbolTable
 70
     1
  0
DIMSTYLE
105
27
330
A
100
AcDbSymbolTableRecord
100
AcDbDimStyleTableRecord
  2
ISO-25
 70
     0
  3

  4

  5

  6

  7

 40
1.0
 41
2.5
 42
0.625
 43
3.75
 44
1.25
 45
0.0
 46
0.0
 47
0.0
 48
0.0
140
2.5
141
2.5
142
0.0
143
0.03937007874016
144
1.0
145
0.0
146
1.0
147
0.625
 71
     0
 72
     0
 73
     0
 74
     0
 75
     0
 76
     0
 77
     1
 78
     8
170
     0
171
     3
172
     1
173
     0
174
     0
175
     0
176
     0
177
     0
178
     0
270
     2
271
     2
272
     2
273
     2
274
     3
340
11
275
     0
280
     0
281
     0
282
     0
283
     0
284
     8
285
     0
286
     0
287
     3
288
     0
  0
ENDTAB
  0
TABLE
  2
BLOCK_RECORD
  5
1
330
0
100
AcDbSymbolTable
 70
     1
  0
BLOCK_RECORD
  5
1F
330
1
100
AcDbSymbolTableRecord
100
AcDbBlockTableRecord
  2
*MODEL_SPACE
  0
BLOCK_RECORD
  5
1B
330
1
100
AcDbSymbolTableRecord
100
AcDbBlockTableRecord
  2
*PAPER_SPACE
  0
ENDTAB
  0
ENDSEC
  0
SECTION
  2
BLOCKS
  0
BLOCK
  5
20
330
1F
100
AcDbEntity
  8
0
100
AcDbBlockBegin
  2
*MODEL_SPACE
 70
     0
 10
0.0
 20
0.0
 30
0.0
  3
*MODEL_SPACE
  1

  0
ENDBLK
  5
21
330
1F
100
AcDbEntity
  8
0
100
AcDbBlockEnd
  0
BLOCK
  5
1C
330
1B
100
AcDbEntity
 67
     1
  8
0
100
AcDbBlockBegin
  2
*PAPER_SPACE
  1

  0
ENDBLK
  5
1D
330
1B
100
AcDbEntity
 67
     1
  8
0
100
AcDbBlockEnd
  0
ENDSEC
  0
SECTION
  2
ENTITIES
  0
LWPOLYLINE
  5
100
100
AcDbEntity
  8
Layer_1
 62
7
100
AcDbPolyline
 90
2
 70
0
 10
62.816898
 20
168.237510
 30
0.0
 10
60.306797
 20
168.237510
 30
0.0
  0
LWPOLYLINE
  5
101
100
AcDbEntity
  8
Layer_1
 62
7
100
AcDbPolyline
 90
2
 70
0
 10
59.957289
 20
168.237510
 30
0.0
 10
59.385367
 20
168.237510
 30
0.0
  0
LWPOLYLINE
  5
102
100
AcDbEntity
  8
Layer_1
 62
7
100
AcDbPolyline
 90
2
 70
0
 10
59.035859
 20
168.237510
 30
0.0
 10
58.463938
 20
168.237510
 30
0.0
  0
LWPOLYLINE
  5
103
100
AcDbEntity
  8
Layer_1
 62
7
100
AcDbPolyline
 90
2
 70
0
 10
58.114430
 20
168.237510
 30
0.0
 10
55.604329
 20
168.237510
 30
0.0
  0
LWPOLYLINE
  5
104
100
AcDbEntity
  8
Layer_1
 62
7
100
AcDbPolyline
 90
2
 70
0
 10
55.254821
 20
168.237510
 30
0.0
 10
54.682899
 20
168.237510
 30
0.0
  0
LWPOLYLINE
  5
105
100
AcDbEntity
  8
Layer_1
 62
7
100
AcDbPolyline
 90
2
 70
0
 10
54.333391
 20
168.237510
 30
0.0
 10
53.793243
 20
168.237510
 30
0.0
  0
LWPOLYLINE
  5
106
100
AcDbEntity
  8
Layer_1
 62
7
100
AcDbPolyline
 90
4
 70
0
 10
53.411962
 20
168.237510
 30
0.0
 10
50.933635
 20
168.237510
 30
0.0
 10
50.933635
 20
170.394940
 30
0.0
 10
53.411962
 20
170.394940
 30
0.0
  0
LWPOLYLINE
  5
107
100
AcDbEntity
  8
Layer_1
 62
7
100
AcDbPolyline
 90
2
 70
0
 10
53.793243
 20
170.394940
 30
0.0
 10
54.333391
 20
170.394940
 30
0.0
  0
LWPOLYLINE
  5
108
100
AcDbEntity
  8
Layer_1
 62
7
100
AcDbPolyline
 90
2
 70
0
 10
54.682899
 20
170.394940
 30
0.0
 10
55.254821
 20
170.394940
 30
0.0
  0
LWPOLYLINE
  5
109
100
AcDbEntity
  8
Layer_1
 62
7
100
AcDbPolyline
 90
2
 70
0
 10
55.604329
 20
170.394940
 30
0.0
 10
58.114430
 20
170.394940
 30
0.0
  0
LWPOLYLINE
  5
10a
100
AcDbEntity
  8
Layer_1
 62
7
100
AcDbPolyline
 90
2
 70
0
 10
58.463938
 20
170.394940
 30
0.0
 10
59.035859
 20
170.394940
 30
0.0
  0
LWPOLYLINE
  5
10b
100
AcDbEntity
  8
Layer_1
 62
7
100
AcDbPolyline
 90
2
 70
0
 10
59.385367
 20
170.394940
 30
0.0
 10
59.957289
 20
170.394940
 30
0.0
  0
LWPOLYLINE
  5
10c
100
AcDbEntity
  8
Layer_1
 62
7
100
AcDbPolyline
 90
2
 70
0
 10
60.306797
 20
170.394940
 30
0.0
 10
62.785125
 20
170.394940
 30
0.0
  0
LWPOLYLINE
  5
10d
100
AcDbEntity
  8
Layer_1
 62
7
100
AcDbPolyline
 90
2
 70
0
 10
62.816898
 20
170.394940
 30
0.0
 10
62.816898
 20
168.237510
 30
0.0
  0
LWPOLYLINE
  5
10e
100
AcDbEntity
  8
Layer_1
 62
7
100
AcDbPolyline
 90
2
 70
0
 10
48.836581
 20
168.174050
 30
0.0
 10
46.326482
 20
168.174050
 30
0.0
  0
LWPOLYLINE
  5
10f
100
AcDbEntity
  8
Layer_1
 62
7
100
AcDbPolyline
 90
2
 70
0
 10
45.945201
 20
168.174050
 30
0.0
 10
45.405050
 20
168.174050
 30
0.0
  0
LWPOLYLINE
  5
110
100
AcDbEntity
  8
Layer_1
 62
7
100
AcDbPolyline
 90
2
 70
0
 10
45.023769
 20
168.174050
 30
0.0
 10
44.483625
 20
168.174050
 30
0.0
  0
LWPOLYLINE
  5
111
100
AcDbEntity
  8
Layer_1
 62
7
100
AcDbPolyline
 90
2
 70
0
 10
44.102344
 20
168.174050
 30
0.0
 10
41.624016
 20
168.174050
 30
0.0
  0
LWPOLYLINE
  5
112
100
AcDbEntity
  8
Layer_1
 62
7
100
AcDbPolyline
 90
2
 70
0
 10
41.274506
 20
168.174050
 30
0.0
 10
40.702584
 20
168.174050
 30
0.0
  0
LWPOLYLINE
  5
113
100
AcDbEntity
  8
Layer_1
 62
7
100
AcDbPolyline
 90
2
 70
0
 10
40.321303
 20
168.174050
 30
0.0
 10
39.812931
 20
168.174050
 30
0.0
  0
LWPOLYLINE
  5
114
100
AcDbEntity
  8
Layer_1
 62
7
100
AcDbPolyline
 90
2
 70
0
 10
39.431649
 20
168.174050
 30
0.0
 10
36.953322
 20
168.174050
 30
0.0
  0
LWPOLYLINE
  5
115
100
AcDbEntity
  8
Layer_1
 62
7
100
AcDbPolyline
 90
3
 70
0
 10
36.921543
 20
168.174050
 30
0.0
 10
36.921543
 20
170.236310
 30
0.0
 10
39.431649
 20
170.236310
 30
0.0
  0
LWPOLYLINE
  5
116
100
AcDbEntity
  8
Layer_1
 62
7
100
AcDbPolyline
 90
2
 70
0
 10
39.812931
 20
170.236310
 30
0.0
 10
40.321303
 20
170.236310
 30
0.0
  0
LWPOLYLINE
  5
117
100
AcDbEntity
  8
Layer_1
 62
7
100
AcDbPolyline
 90
2
 70
0
 10
40.702584
 20
170.236310
 30
0.0
 10
41.274506
 20
170.236310
 30
0.0
  0
LWPOLYLINE
  5
118
100
AcDbEntity
  8
Layer_1
 62
7
100
AcDbPolyline
 90
2
 70
0
 10
41.624016
 20
170.236310
 30
0.0
 10
44.102344
 20
170.236310
 30
0.0
  0
LWPOLYLINE
  5
119
100
AcDbEntity
  8
Layer_1
 62
7
100
AcDbPolyline
 90
2
 70
0
 10
44.483625
 20
170.236310
 30
0.0
 10
45.023769
 20
170.236310
 30
0.0
  0
LWPOLYLINE
  5
11a
100
AcDbEntity
  8
Layer_1
 62
7
100
AcDbPolyline
 90
2
 70
0
 10
45.405050
 20
170.236310
 30
0.0
 10
45.945201
 20
170.236310
 30
0.0
  0
LWPOLYLINE
  5
11b
100
AcDbEntity
  8
Layer_1
 62
7
100
AcDbPolyline
 90
3
 70
0
 10
46.326482
 20
170.236310
 30
0.0
 10
48.836581
 20
170.236310
 30
0.0
 10
48.836581
 20
168.174050
 30
0.0
  0
LWPOLYLINE
  5
11c
100
AcDbEntity
  8
Layer_1
 62
7
100
AcDbPolyline
 90
3
 70
0
 10
114.798240
 20
176.105780
 30
0.0
 10
114.798240
 20
176.518240
 30
0.0
 10
114.798240
 20
177.311410
 30
0.0
  0
LWPOLYLINE
  5
11d
100
AcDbEntity
  8
Layer_1
 62
7
100
AcDbPolyline
 90
2
 70
0
 10
118.102670
 20
176.105780
 30
0.0
 10
118.166270
 20
176.105780
 30
0.0
  0
LWPOLYLINE
  5
11e
100
AcDbEntity
  8
Layer_1
 62
7
100
AcDbPolyline
 90
2
 70
0
 10
117.308340
 20
179.310210
 30
0.0
 10
117.308340
 20
179.627470
 30
0.0
  0
LWPOLYLINE
  5
11f
100
AcDbEntity
  8
Layer_1
 62
7
100
AcDbPolyline
 90
2
 70
0
 10
117.308340
 20
176.105780
 30
0.0
 10
117.975580
 20
176.105780
 30
0.0
  0
LWPOLYLINE
  5
120
100
AcDbEntity
  8
Layer_1
 62
7
100
AcDbPolyline
 90
2
 70
0
 10
114.798240
 20
177.311410
 30
0.0
 10
114.798240
 20
177.501770
 30
0.0
  0
LWPOLYLINE
  5
121
100
AcDbEntity
  8
Layer_1
 62
7
100
AcDbPolyline
 90
2
 70
0
 10
116.704640
 20
176.105780
 30
0.0
 10
117.308340
 20
176.105780
 30
0.0
  0
LWPOLYLINE
  5
122
100
AcDbEntity
  8
Layer_1
 62
7
100
AcDbPolyline
 90
2
 70
0
 10
118.039130
 20
179.944740
 30
0.0
 10
118.007330
 20
180.039940
 30
0.0
  0
LWPOLYLINE
  5
123
100
AcDbEntity
  8
Layer_1
 62
7
100
AcDbPolyline
 90
2
 70
0
 10
117.975580
 20
176.105780
 30
0.0
 10
118.102670
 20
176.105780
 30
0.0
  0
LWPOLYLINE
  5
124
100
AcDbEntity
  8
Layer_1
 62
7
100
AcDbPolyline
 90
2
 70
0
 10
120.485680
 20
178.612210
 30
0.0
 10
120.485680
 20
178.834300
 30
0.0
  0
LWPOLYLINE
  5
125
100
AcDbEntity
  8
Layer_1
 62
7
100
AcDbPolyline
 90
2
 70
0
 10
120.390360
 20
175.439520
 30
0.0
 10
120.358560
 20
175.407820
 30
0.0
  0
LWPOLYLINE
  5
126
100
AcDbEntity
  8
Layer_1
 62
7
100
AcDbPolyline
 90
2
 70
0
 10
120.485680
 20
178.834300
 30
0.0
 10
120.517480
 20
178.834300
 30
0.0
  0
LWPOLYLINE
  5
127
100
AcDbEntity
  8
Layer_1
 62
7
100
AcDbPolyline
 90
2
 70
0
 10
120.517460
 20
180.357190
 30
0.0
 10
120.485660
 20
180.357190
 30
0.0
  0
LWPOLYLINE
  5
128
100
AcDbEntity
  8
Layer_1
 62
7
100
AcDbPolyline
 90
2
 70
0
 10
26.150349
 20
174.519440
 30
0.0
 10
25.959708
 20
174.392530
 30
0.0
  0
LWPOLYLINE
  5
129
100
AcDbEntity
  8
Layer_1
 62
7
100
AcDbPolyline
 90
2
 70
0
 10
26.150349
 20
175.312610
 30
0.0
 10
25.927937
 20
175.661610
 30
0.0
  0
LWPOLYLINE
  5
12a
100
AcDbEntity
  8
Layer_1
 62
7
100
AcDbPolyline
 90
2
 70
0
 10
27.103552
 20
180.039920
 30
0.0
 10
27.897893
 20
180.484100
 30
0.0
  0
LWPOLYLINE
  5
12b
100
AcDbEntity
  8
Layer_1
 62
7
100
AcDbPolyline
 90
2
 70
0
 10
26.881140
 20
177.819040
 30
0.0
 10
27.389513
 20
176.962410
 30
0.0
  0
LWPOLYLINE
  5
12c
100
AcDbEntity
  8
Layer_1
 62
7
100
AcDbPolyline
 90
2
 70
0
 10
26.881140
 20
177.819040
 30
0.0
 10
27.484833
 20
178.168040
 30
0.0
  0
LWPOLYLINE
  5
12d
100
AcDbEntity
  8
Layer_1
 62
7
100
AcDbPolyline
 90
2
 70
0
 10
28.215625
 20
178.580480
 30
0.0
 10
28.787546
 20
178.929480
 30
0.0
  0
LWPOLYLINE
  5
12e
100
AcDbEntity
  8
Layer_1
 62
7
100
AcDbPolyline
 90
2
 70
0
 10
25.927937
 20
175.661610
 30
0.0
 10
25.419565
 20
175.376070
 30
0.0
  0
LWPOLYLINE
  5
12f
100
AcDbEntity
  8
Layer_1
 62
7
100
AcDbPolyline
 90
2
 70
0
 10
26.150349
 20
174.043540
 30
0.0
 10
25.483107
 20
173.662820
 30
0.0
  0
LWPOLYLINE
  5
130
100
AcDbEntity
  8
Layer_1
 62
7
100
AcDbPolyline
 90
2
 70
0
 10
24.688774
 20
173.218640
 30
0.0
 10
23.989761
 20
172.806190
 30
0.0
  0
LWPOLYLINE
  5
131
100
AcDbEntity
  8
Layer_1
 62
7
100
AcDbPolyline
 90
2
 70
0
 10
22.432857
 20
174.106990
 30
0.0
 10
22.083355
 20
174.741530
 30
0.0
  0
LWPOLYLINE
  5
132
100
AcDbEntity
  8
Layer_1
 62
7
100
AcDbPolyline
 90
2
 70
0
 10
21.670295
 20
175.502970
 30
0.0
 10
21.289014
 20
176.137520
 30
0.0
  0
LWPOLYLINE
  5
133
100
AcDbEntity
  8
Layer_1
 62
7
100
AcDbPolyline
 90
2
 70
0
 10
22.432857
 20
174.106990
 30
0.0
 10
22.941237
 20
173.250360
 30
0.0
  0
LWPOLYLINE
  5
134
100
AcDbEntity
  8
Layer_1
 62
7
100
AcDbPolyline
 90
2
 70
0
 10
22.432857
 20
174.106990
 30
0.0
 10
23.227198
 20
174.551170
 30
0.0
  0
LWPOLYLINE
  5
135
100
AcDbEntity
  8
Layer_1
 62
7
100
AcDbPolyline
 90
2
 70
0
 10
24.148623
 20
175.090530
 30
0.0
 10
24.911185
 20
175.534700
 30
0.0
  0
LWPOLYLINE
  5
136
100
AcDbEntity
  8
Layer_1
 62
7
100
AcDbPolyline
 90
2
 70
0
 10
25.832617
 20
176.105780
 30
0.0
 10
26.595179
 20
176.518240
 30
0.0
  0
LWPOLYLINE
  5
137
100
AcDbEntity
  8
Layer_1
 62
7
100
AcDbPolyline
 90
2
 70
0
 10
25.419565
 20
175.376070
 30
0.0
 10
25.959708
 20
174.392530
 30
0.0
  0
LWPOLYLINE
  5
138
100
AcDbEntity
  8
Layer_1
 62
7
100
AcDbPolyline
 90
2
 70
0
 10
25.356016
 20
174.075260
 30
0.0
 10
24.815865
 20
175.027070
 30
0.0
  0
LWPOLYLINE
  5
139
100
AcDbEntity
  8
Layer_1
 62
7
100
AcDbPolyline
 90
3
 70
0
 10
25.356016
 20
174.075260
 30
0.0
 10
25.197146
 20
173.980060
 30
0.0
 10
24.625224
 20
174.900170
 30
0.0
  0
LWPOLYLINE
  5
13a
100
AcDbEntity
  8
Layer_1
 62
7
100
AcDbPolyline
 90
2
 70
0
 10
25.356016
 20
174.075260
 30
0.0
 10
25.959708
 20
174.392530
 30
0.0
  0
LWPOLYLINE
  5
13b
100
AcDbEntity
  8
Layer_1
 62
7
100
AcDbPolyline
 90
2
 70
0
 10
25.419565
 20
175.376070
 30
0.0
 10
24.815865
 20
175.027070
 30
0.0
  0
LWPOLYLINE
  5
13c
100
AcDbEntity
  8
Layer_1
 62
7
100
AcDbPolyline
 90
2
 70
0
 10
26.595179
 20
176.518240
 30
0.0
 10
27.389513
 20
176.962410
 30
0.0
  0
LWPOLYLINE
  5
13d
100
AcDbEntity
  8
Layer_1
 62
7
100
AcDbPolyline
 90
5
 70
0
 10
24.625224
 20
178.612210
 30
0.0
 10
23.799120
 20
178.104580
 30
0.0
 10
23.640250
 20
178.390120
 30
0.0
 10
22.845917
 20
178.294920
 30
0.0
 10
22.814167
 20
178.643940
 30
0.0
  0
LWPOLYLINE
  5
13e
100
AcDbEntity
  8
Layer_1
 62
7
100
AcDbPolyline
 90
2
 70
0
 10
22.941237
 20
173.250360
 30
0.0
 10
23.100099
 20
173.218660
 30
0.0
  0
LWPOLYLINE
  5
13f
100
AcDbEntity
  8
Layer_1
 62
7
100
AcDbPolyline
 90
3
 70
0
 10
22.814138
 20
178.643940
 30
0.0
 10
22.019805
 20
178.580440
 30
0.0
 10
21.988055
 20
178.929480
 30
0.0
  0
LWPOLYLINE
  5
140
100
AcDbEntity
  8
Layer_1
 62
7
100
AcDbPolyline
 90
2
 70
0
 10
21.289014
 20
176.137520
 30
0.0
 10
21.257264
 20
176.105820
 30
0.0
  0
LWPOLYLINE
  5
141
100
AcDbEntity
  8
Layer_1
 62
7
100
AcDbPolyline
 90
2
 70
0
 10
21.257243
 20
176.169240
 30
0.0
 10
21.257243
 20
176.200940
 30
0.0
  0
LWPOLYLINE
  5
142
100
AcDbEntity
  8
Layer_1
 62
7
100
AcDbPolyline
 90
2
 70
0
 10
21.257243
 20
176.169240
 30
0.0
 10
21.257243
 20
176.137540
 30
0.0
  0
LWPOLYLINE
  5
143
100
AcDbEntity
  8
Layer_1
 62
7
100
AcDbPolyline
 90
2
 70
0
 10
21.257243
 20
176.169240
 30
0.0
 10
21.288993
 20
176.137540
 30
0.0
  0
LWPOLYLINE
  5
144
100
AcDbEntity
  8
Layer_1
 62
7
100
AcDbPolyline
 90
5
 70
0
 10
21.257243
 20
176.105780
 30
0.0
 10
21.257243
 20
176.137480
 30
0.0
 10
21.193673
 20
176.201020
 30
0.0
 10
21.257263
 20
176.200960
 30
0.0
 10
21.193673
 20
176.264460
 30
0.0
  0
LWPOLYLINE
  5
145
100
AcDbEntity
  8
Layer_1
 62
7
100
AcDbPolyline
 90
2
 70
0
 10
21.193693
 20
178.866030
 30
0.0
 10
21.988034
 20
178.929530
 30
0.0
  0
LWPOLYLINE
  5
146
100
AcDbEntity
  8
Layer_1
 62
7
100
AcDbPolyline
 90
2
 70
0
 10
21.193693
 20
178.866030
 30
0.0
 10
21.161943
 20
179.215020
 30
0.0
  0
LWPOLYLINE
  5
147
100
AcDbEntity
  8
Layer_1
 62
7
100
AcDbPolyline
 90
2
 70
0
 10
21.161922
 20
176.264420
 30
0.0
 10
21.193672
 20
176.200920
 30
0.0
  0
LWPOLYLINE
  5
148
100
AcDbEntity
  8
Layer_1
 62
7
100
AcDbPolyline
 90
2
 70
0
 10
21.161922
 20
176.264420
 30
0.0
 10
21.193672
 20
176.264420
 30
0.0
  0
LWPOLYLINE
  5
149
100
AcDbEntity
  8
Layer_1
 62
7
100
AcDbPolyline
 90
2
 70
0
 10
21.161922
 20
176.264420
 30
0.0
 10
21.130172
 20
176.327920
 30
0.0
  0
LWPOLYLINE
  5
14a
100
AcDbEntity
  8
Layer_1
 62
7
100
AcDbPolyline
 90
2
 70
0
 10
21.161922
 20
176.327880
 30
0.0
 10
21.193672
 20
176.264380
 30
0.0
  0
LWPOLYLINE
  5
14b
100
AcDbEntity
  8
Layer_1
 62
7
100
AcDbPolyline
 90
2
 70
0
 10
21.161922
 20
176.327880
 30
0.0
 10
21.130172
 20
176.327880
 30
0.0
  0
LWPOLYLINE
  5
14c
100
AcDbEntity
  8
Layer_1
 62
7
100
AcDbPolyline
 90
1
 70
1
 10
21.098373
 20
176.423060
 30
0.0
  0
LWPOLYLINE
  5
14d
100
AcDbEntity
  8
Layer_1
 62
7
100
AcDbPolyline
 90
2
 70
0
 10
21.161922
 20
179.215020
 30
0.0
 10
20.367589
 20
179.119820
 30
0.0
  0
LWPOLYLINE
  5
14e
100
AcDbEntity
  8
Layer_1
 62
7
100
AcDbPolyline
 90
2
 70
0
 10
20.494680
 20
177.406590
 30
0.0
 10
20.526430
 20
177.374890
 30
0.0
  0
LWPOLYLINE
  5
14f
100
AcDbEntity
  8
Layer_1
 62
7
100
AcDbPolyline
 90
2
 70
0
 10
20.494680
 20
177.406590
 30
0.0
 10
20.526430
 20
177.438290
 30
0.0
  0
LWPOLYLINE
  5
150
100
AcDbEntity
  8
Layer_1
 62
7
100
AcDbPolyline
 90
2
 70
0
 10
20.621772
 20
177.279680
 30
0.0
 10
20.590022
 20
177.247980
 30
0.0
  0
LWPOLYLINE
  5
151
100
AcDbEntity
  8
Layer_1
 62
7
100
AcDbPolyline
 90
3
 70
0
 10
20.653550
 20
177.152770
 30
0.0
 10
20.685300
 20
177.184470
 30
0.0
 10
20.621751
 20
177.279700
 30
0.0
  0
LWPOLYLINE
  5
152
100
AcDbEntity
  8
Layer_1
 62
7
100
AcDbPolyline
 90
2
 70
0
 10
20.590001
 20
177.247950
 30
0.0
 10
20.653571
 20
177.152750
 30
0.0
  0
LWPOLYLINE
  5
153
100
AcDbEntity
  8
Layer_1
 62
7
100
AcDbPolyline
 90
2
 70
0
 10
20.621772
 20
177.279680
 30
0.0
 10
20.590022
 20
177.343180
 30
0.0
  0
LWPOLYLINE
  5
154
100
AcDbEntity
  8
Layer_1
 62
7
100
AcDbPolyline
 90
2
 70
0
 10
20.558230
 20
177.343130
 30
0.0
 10
20.589980
 20
177.247930
 30
0.0
  0
LWPOLYLINE
  5
155
100
AcDbEntity
  8
Layer_1
 62
7
100
AcDbPolyline
 90
2
 70
0
 10
20.558230
 20
177.343130
 30
0.0
 10
20.589980
 20
177.343130
 30
0.0
  0
LWPOLYLINE
  5
156
100
AcDbEntity
  8
Layer_1
 62
7
100
AcDbPolyline
 90
2
 70
0
 10
20.558230
 20
177.406590
 30
0.0
 10
20.494660
 20
177.406590
 30
0.0
  0
LWPOLYLINE
  5
157
100
AcDbEntity
  8
Layer_1
 62
7
100
AcDbPolyline
 90
2
 70
0
 10
20.558230
 20
177.374870
 30
0.0
 10
20.589980
 20
177.343170
 30
0.0
  0
LWPOLYLINE
  5
158
100
AcDbEntity
  8
Layer_1
 62
7
100
AcDbPolyline
 90
2
 70
0
 10
20.558230
 20
177.343130
 30
0.0
 10
20.526480
 20
177.374830
 30
0.0
  0
LWPOLYLINE
  5
159
100
AcDbEntity
  8
Layer_1
 62
7
100
AcDbPolyline
 90
3
 70
0
 10
20.558230
 20
177.406590
 30
0.0
 10
20.558230
 20
177.374890
 30
0.0
 10
20.526480
 20
177.374870
 30
0.0
  0
LWPOLYLINE
  5
15a
100
AcDbEntity
  8
Layer_1
 62
7
100
AcDbPolyline
 90
2
 70
0
 10
20.558230
 20
177.406590
 30
0.0
 10
20.526480
 20
177.438290
 30
0.0
  0
LWPOLYLINE
  5
15b
100
AcDbEntity
  8
Layer_1
 62
7
100
AcDbPolyline
 90
2
 70
0
 10
21.003053
 20
176.613420
 30
0.0
 10
21.066623
 20
176.518220
 30
0.0
  0
LWPOLYLINE
  5
15c
100
AcDbEntity
  8
Layer_1
 62
7
100
AcDbPolyline
 90
2
 70
0
 10
21.098373
 20
176.423060
 30
0.0
 10
21.130123
 20
176.327860
 30
0.0
  0
LWPOLYLINE
  5
15d
100
AcDbEntity
  8
Layer_1
 62
7
100
AcDbPolyline
 90
2
 70
0
 10
21.034831
 20
176.518240
 30
0.0
 10
20.971261
 20
176.581740
 30
0.0
  0
LWPOLYLINE
  5
15e
100
AcDbEntity
  8
Layer_1
 62
7
100
AcDbPolyline
 90
3
 70
0
 10
21.034831
 20
176.518240
 30
0.0
 10
21.066581
 20
176.518240
 30
0.0
 10
21.098352
 20
176.423040
 30
0.0
  0
LWPOLYLINE
  5
15f
100
AcDbEntity
  8
Layer_1
 62
7
100
AcDbPolyline
 90
2
 70
0
 10
21.003053
 20
176.613420
 30
0.0
 10
20.971303
 20
176.581720
 30
0.0
  0
LWPOLYLINE
  5
160
100
AcDbEntity
  8
Layer_1
 62
7
100
AcDbPolyline
 90
2
 70
0
 10
21.034831
 20
176.518240
 30
0.0
 10
21.098401
 20
176.423040
 30
0.0
  0
LWPOLYLINE
  5
161
100
AcDbEntity
  8
Layer_1
 62
7
100
AcDbPolyline
 90
2
 70
0
 10
20.907732
 20
176.676870
 30
0.0
 10
20.875982
 20
176.772070
 30
0.0
  0
LWPOLYLINE
  5
162
100
AcDbEntity
  8
Layer_1
 62
7
100
AcDbPolyline
 90
3
 70
0
 10
20.907732
 20
176.772050
 30
0.0
 10
20.939482
 20
176.708550
 30
0.0
 10
20.971261
 20
176.676900
 30
0.0
  0
LWPOLYLINE
  5
163
100
AcDbEntity
  8
Layer_1
 62
7
100
AcDbPolyline
 90
2
 70
0
 10
20.971282
 20
176.645140
 30
0.0
 10
20.971282
 20
176.581640
 30
0.0
  0
LWPOLYLINE
  5
164
100
AcDbEntity
  8
Layer_1
 62
7
100
AcDbPolyline
 90
2
 70
0
 10
20.939511
 20
176.676870
 30
0.0
 10
20.971261
 20
176.676870
 30
0.0
  0
LWPOLYLINE
  5
165
100
AcDbEntity
  8
Layer_1
 62
7
100
AcDbPolyline
 90
2
 70
0
 10
20.939511
 20
176.676870
 30
0.0
 10
20.971261
 20
176.645170
 30
0.0
  0
LWPOLYLINE
  5
166
100
AcDbEntity
  8
Layer_1
 62
7
100
AcDbPolyline
 90
2
 70
0
 10
20.907732
 20
176.676870
 30
0.0
 10
20.939482
 20
176.708570
 30
0.0
  0
LWPOLYLINE
  5
167
100
AcDbEntity
  8
Layer_1
 62
7
100
AcDbPolyline
 90
2
 70
0
 10
20.907732
 20
176.676870
 30
0.0
 10
20.939482
 20
176.676870
 30
0.0
  0
LWPOLYLINE
  5
168
100
AcDbEntity
  8
Layer_1
 62
7
100
AcDbPolyline
 90
2
 70
0
 10
20.875961
 20
176.772050
 30
0.0
 10
20.907711
 20
176.772050
 30
0.0
  0
LWPOLYLINE
  5
169
100
AcDbEntity
  8
Layer_1
 62
7
100
AcDbPolyline
 90
3
 70
0
 10
20.971282
 20
176.645140
 30
0.0
 10
20.971282
 20
176.645140
 30
0.0
 10
20.971282
 20
176.676840
 30
0.0
  0
LWPOLYLINE
  5
16a
100
AcDbEntity
  8
Layer_1
 62
7
100
AcDbPolyline
 90
2
 70
0
 10
20.971282
 20
176.645140
 30
0.0
 10
21.003032
 20
176.613440
 30
0.0
  0
LWPOLYLINE
  5
16b
100
AcDbEntity
  8
Layer_1
 62
7
100
AcDbPolyline
 90
2
 70
0
 10
20.780641
 20
176.930690
 30
0.0
 10
20.748891
 20
177.025890
 30
0.0
  0
LWPOLYLINE
  5
16c
100
AcDbEntity
  8
Layer_1
 62
7
100
AcDbPolyline
 90
2
 70
0
 10
20.748870
 20
177.057590
 30
0.0
 10
20.685300
 20
177.184500
 30
0.0
  0
LWPOLYLINE
  5
16d
100
AcDbEntity
  8
Layer_1
 62
7
100
AcDbPolyline
 90
5
 70
0
 10
20.653550
 20
177.152770
 30
0.0
 10
20.717120
 20
177.057570
 30
0.0
 10
20.748842
 20
177.057590
 30
0.0
 10
20.780620
 20
177.025890
 30
0.0
 10
20.748891
 20
177.025870
 30
0.0
  0
LWPOLYLINE
  5
16e
100
AcDbEntity
  8
Layer_1
 62
7
100
AcDbPolyline
 90
1
 70
1
 10
20.748870
 20
177.057590
 30
0.0
  0
LWPOLYLINE
  5
16f
100
AcDbEntity
  8
Layer_1
 62
7
100
AcDbPolyline
 90
2
 70
0
 10
20.717092
 20
177.057590
 30
0.0
 10
20.748842
 20
177.057590
 30
0.0
  0
LWPOLYLINE
  5
170
100
AcDbEntity
  8
Layer_1
 62
7
100
AcDbPolyline
 90
2
 70
0
 10
20.717092
 20
177.057590
 30
0.0
 10
20.748842
 20
177.025890
 30
0.0
  0
LWPOLYLINE
  5
171
100
AcDbEntity
  8
Layer_1
 62
7
100
AcDbPolyline
 90
2
 70
0
 10
20.780641
 20
177.025870
 30
0.0
 10
20.812391
 20
176.962370
 30
0.0
  0
LWPOLYLINE
  5
172
100
AcDbEntity
  8
Layer_1
 62
7
100
AcDbPolyline
 90
2
 70
0
 10
21.098373
 20
176.423060
 30
0.0
 10
21.161943
 20
176.327860
 30
0.0
  0
LWPOLYLINE
  5
173
100
AcDbEntity
  8
Layer_1
 62
7
100
AcDbPolyline
 90
2
 70
0
 10
20.844191
 20
176.898960
 30
0.0
 10
20.812441
 20
176.962460
 30
0.0
  0
LWPOLYLINE
  5
174
100
AcDbEntity
  8
Layer_1
 62
7
100
AcDbPolyline
 90
3
 70
0
 10
20.780641
 20
176.930690
 30
0.0
 10
20.812391
 20
176.867190
 30
0.0
 10
20.875982
 20
176.772030
 30
0.0
  0
LWPOLYLINE
  5
175
100
AcDbEntity
  8
Layer_1
 62
7
100
AcDbPolyline
 90
3
 70
0
 10
20.812412
 20
176.867230
 30
0.0
 10
20.844162
 20
176.898930
 30
0.0
 10
20.907761
 20
176.772050
 30
0.0
  0
LWPOLYLINE
  5
176
100
AcDbEntity
  8
Layer_1
 62
7
100
AcDbPolyline
 90
2
 70
0
 10
20.812412
 20
176.962410
 30
0.0
 10
20.780662
 20
176.930710
 30
0.0
  0
LWPOLYLINE
  5
177
100
AcDbEntity
  8
Layer_1
 62
7
100
AcDbPolyline
 90
2
 70
0
 10
20.526451
 20
177.438310
 30
0.0
 10
19.954529
 20
178.390120
 30
0.0
  0
LWPOLYLINE
  5
178
100
AcDbEntity
  8
Layer_1
 62
7
100
AcDbPolyline
 90
2
 70
0
 10
24.625224
 20
178.612210
 30
0.0
 10
25.419565
 20
179.056390
 30
0.0
  0
LWPOLYLINE
  5
179
100
AcDbEntity
  8
Layer_1
 62
7
100
AcDbPolyline
 90
2
 70
0
 10
26.340989
 20
179.595750
 30
0.0
 10
27.103552
 20
180.039920
 30
0.0
  0
LWPOLYLINE
  5
17a
100
AcDbEntity
  8
Layer_1
 62
7
100
AcDbPolyline
 90
3
 70
0
 10
26.150349
 20
171.981290
 30
0.0
 10
25.165375
 20
171.410200
 30
0.0
 10
25.387787
 20
171.029480
 30
0.0
  0
LWPOLYLINE
  5
17b
100
AcDbEntity
  8
Layer_1
 62
7
100
AcDbPolyline
 90
4
 70
0
 10
29.137057
 20
179.310210
 30
0.0
 10
29.200627
 20
179.532290
 30
0.0
 10
29.232349
 20
179.786110
 30
0.0
 10
29.168807
 20
179.976470
 30
0.0
  0
LWPOLYLINE
  5
17c
100
AcDbEntity
  8
Layer_1
 62
7
100
AcDbPolyline
 90
5
 70
0
 10
28.565135
 20
180.579280
 30
0.0
 10
28.533385
 20
180.579280
 30
0.0
 10
28.310945
 20
180.579280
 30
0.0
 10
28.056755
 20
180.547580
 30
0.0
 10
27.897893
 20
180.452360
 30
0.0
  0
LWPOLYLINE
  5
17d
100
AcDbEntity
  8
Layer_1
 62
7
100
AcDbPolyline
 90
3
 70
0
 10
28.787546
 20
178.929480
 30
0.0
 10
29.009958
 20
179.119840
 30
0.0
 10
29.137057
 20
179.310210
 30
0.0
  0
LWPOLYLINE
  5
17e
100
AcDbEntity
  8
Layer_1
 62
7
100
AcDbPolyline
 90
3
 70
0
 10
25.387787
 20
171.029480
 30
0.0
 10
25.737297
 20
170.553570
 30
0.0
 10
26.150349
 20
170.141130
 30
0.0
  0
LWPOLYLINE
  5
17f
100
AcDbEntity
  8
Layer_1
 62
7
100
AcDbPolyline
 90
6
 70
0
 10
24.911185
 20
171.822650
 30
0.0
 10
24.593453
 20
172.298550
 30
0.0
 10
24.116852
 20
172.711010
 30
0.0
 10
23.989761
 20
172.806210
 30
0.0
 10
23.544930
 20
173.060000
 30
0.0
 10
23.100099
 20
173.218640
 30
0.0
  0
LWPOLYLINE
  5
180
100
AcDbEntity
  8
Layer_1
 62
7
100
AcDbPolyline
 90
6
 70
0
 10
20.367589
 20
179.151570
 30
0.0
 10
20.176948
 20
179.088070
 30
0.0
 10
20.018079
 20
178.929480
 30
0.0
 10
19.922759
 20
178.739120
 30
0.0
 10
19.922758
 20
178.580480
 30
0.0
 10
19.954508
 20
178.390120
 30
0.0
  0
LWPOLYLINE
  5
181
100
AcDbEntity
  8
Layer_1
 62
7
100
AcDbPolyline
 90
2
 70
0
 10
24.720545
 20
175.439520
 30
0.0
 10
24.752295
 20
175.407820
 30
0.0
  0
LWPOLYLINE
  5
182
100
AcDbEntity
  8
Layer_1
 62
7
100
AcDbPolyline
 90
2
 70
0
 10
115.910300
 20
171.251560
 30
0.0
 10
118.261540
 20
171.251560
 30
0.0
  0
LWPOLYLINE
  5
183
100
AcDbEntity
  8
Layer_1
 62
7
100
AcDbPolyline
 90
2
 70
0
 10
117.085920
 20
170.045950
 30
0.0
 10
117.085920
 20
172.393730
 30
0.0
  0
LWPOLYLINE
  5
184
100
AcDbEntity
  8
Layer_1
 62
7
100
AcDbPolyline
 90
2
 70
0
 10
29.200599
 20
171.251560
 30
0.0
 10
26.849369
 20
171.251560
 30
0.0
  0
LWPOLYLINE
  5
185
100
AcDbEntity
  8
Layer_1
 62
7
100
AcDbPolyline
 90
2
 70
0
 10
28.024984
 20
170.045950
 30
0.0
 10
28.024984
 20
172.393730
 30
0.0
  0
LWPOLYLINE
  5
186
100
AcDbEntity
  8
Layer_1
 62
7
100
AcDbPolyline
 90
2
 70
0
 10
117.244790
 20
176.105780
 30
0.0
 10
117.498980
 20
176.518240
 30
0.0
  0
LWPOLYLINE
  5
187
100
AcDbEntity
  8
Layer_1
 62
7
100
AcDbPolyline
 90
2
 70
0
 10
118.007350
 20
180.039920
 30
0.0
 10
117.244790
 20
180.484100
 30
0.0
  0
LWPOLYLINE
  5
188
100
AcDbEntity
  8
Layer_1
 62
7
100
AcDbPolyline
 90
2
 70
0
 10
119.182970
 20
175.661610
 30
0.0
 10
118.992330
 20
175.312610
 30
0.0
  0
LWPOLYLINE
  5
189
100
AcDbEntity
  8
Layer_1
 62
7
100
AcDbPolyline
 90
4
 70
0
 10
118.992330
 20
174.519440
 30
0.0
 10
119.151190
 20
174.392530
 30
0.0
 10
119.723120
 20
175.376070
 30
0.0
 10
119.182970
 20
175.661610
 30
0.0
  0
LWPOLYLINE
  5
18a
100
AcDbEntity
  8
Layer_1
 62
7
100
AcDbPolyline
 90
2
 70
0
 10
118.261540
 20
177.819040
 30
0.0
 10
117.657850
 20
178.168040
 30
0.0
  0
LWPOLYLINE
  5
18b
100
AcDbEntity
  8
Layer_1
 62
7
100
AcDbPolyline
 90
2
 70
0
 10
116.927060
 20
178.580480
 30
0.0
 10
116.323360
 20
178.929480
 30
0.0
  0
LWPOLYLINE
  5
18c
100
AcDbEntity
  8
Layer_1
 62
7
100
AcDbPolyline
 90
2
 70
0
 10
117.753170
 20
176.962410
 30
0.0
 10
118.515730
 20
176.518240
 30
0.0
  0
LWPOLYLINE
  5
18d
100
AcDbEntity
  8
Layer_1
 62
7
100
AcDbPolyline
 90
2
 70
0
 10
117.753170
 20
176.962410
 30
0.0
 10
118.261540
 20
177.819040
 30
0.0
  0
LWPOLYLINE
  5
18e
100
AcDbEntity
  8
Layer_1
 62
7
100
AcDbPolyline
 90
2
 70
0
 10
118.007350
 20
180.039920
 30
0.0
 10
118.769910
 20
179.595750
 30
0.0
  0
LWPOLYLINE
  5
18f
100
AcDbEntity
  8
Layer_1
 62
7
100
AcDbPolyline
 90
2
 70
0
 10
119.691340
 20
179.056390
 30
0.0
 10
120.485680
 20
178.612210
 30
0.0
  0
LWPOLYLINE
  5
190
100
AcDbEntity
  8
Layer_1
 62
7
100
AcDbPolyline
 90
2
 70
0
 10
120.326820
 20
175.027070
 30
0.0
 10
120.485680
 20
174.900170
 30
0.0
  0
LWPOLYLINE
  5
191
100
AcDbEntity
  8
Layer_1
 62
7
100
AcDbPolyline
 90
2
 70
0
 10
120.326820
 20
175.027070
 30
0.0
 10
119.754890
 20
174.075260
 30
0.0
  0
LWPOLYLINE
  5
192
100
AcDbEntity
  8
Layer_1
 62
7
100
AcDbPolyline
 90
2
 70
0
 10
119.945530
 20
173.980080
 30
0.0
 10
120.485680
 20
174.900170
 30
0.0
  0
LWPOLYLINE
  5
193
100
AcDbEntity
  8
Layer_1
 62
7
100
AcDbPolyline
 90
2
 70
0
 10
120.326820
 20
175.027070
 30
0.0
 10
119.723120
 20
175.376070
 30
0.0
  0
LWPOLYLINE
  5
194
100
AcDbEntity
  8
Layer_1
 62
7
100
AcDbPolyline
 90
2
 70
0
 10
119.754890
 20
174.075260
 30
0.0
 10
119.945530
 20
173.980060
 30
0.0
  0
LWPOLYLINE
  5
195
100
AcDbEntity
  8
Layer_1
 62
7
100
AcDbPolyline
 90
2
 70
0
 10
119.945530
 20
171.410200
 30
0.0
 10
119.723120
 20
171.029480
 30
0.0
  0
LWPOLYLINE
  5
196
100
AcDbEntity
  8
Layer_1
 62
7
100
AcDbPolyline
 90
2
 70
0
 10
119.945530
 20
171.410200
 30
0.0
 10
120.199720
 20
171.822650
 30
0.0
  0
LWPOLYLINE
  5
197
100
AcDbEntity
  8
Layer_1
 62
7
100
AcDbPolyline
 90
2
 70
0
 10
119.945530
 20
171.410200
 30
0.0
 10
118.992330
 20
171.981290
 30
0.0
  0
LWPOLYLINE
  5
198
100
AcDbEntity
  8
Layer_1
 62
7
100
AcDbPolyline
 90
2
 70
0
 10
119.754890
 20
174.075260
 30
0.0
 10
119.151190
 20
174.392530
 30
0.0
  0
LWPOLYLINE
  5
199
100
AcDbEntity
  8
Layer_1
 62
7
100
AcDbPolyline
 90
2
 70
0
 10
118.992330
 20
174.043540
 30
0.0
 10
119.627790
 20
173.662820
 30
0.0
  0
LWPOLYLINE
  5
19a
100
AcDbEntity
  8
Layer_1
 62
7
100
AcDbPolyline
 90
2
 70
0
 10
120.453910
 20
173.218640
 30
0.0
 10
121.121150
 20
172.806190
 30
0.0
  0
LWPOLYLINE
  5
19b
100
AcDbEntity
  8
Layer_1
 62
7
100
AcDbPolyline
 90
2
 70
0
 10
122.678040
 20
174.106990
 30
0.0
 10
121.883710
 20
174.551170
 30
0.0
  0
LWPOLYLINE
  5
19c
100
AcDbEntity
  8
Layer_1
 62
7
100
AcDbPolyline
 90
2
 70
0
 10
120.962280
 20
175.090530
 30
0.0
 10
120.199720
 20
175.534700
 30
0.0
  0
LWPOLYLINE
  5
19d
100
AcDbEntity
  8
Layer_1
 62
7
100
AcDbPolyline
 90
2
 70
0
 10
119.278290
 20
176.105780
 30
0.0
 10
118.515730
 20
176.518240
 30
0.0
  0
LWPOLYLINE
  5
19e
100
AcDbEntity
  8
Layer_1
 62
7
100
AcDbPolyline
 90
2
 70
0
 10
122.010800
 20
173.218640
 30
0.0
 10
122.169670
 20
173.250340
 30
0.0
  0
LWPOLYLINE
  5
19f
100
AcDbEntity
  8
Layer_1
 62
7
100
AcDbPolyline
 90
2
 70
0
 10
123.122880
 20
178.580480
 30
0.0
 10
123.122880
 20
178.929480
 30
0.0
  0
LWPOLYLINE
  5
1a0
100
AcDbEntity
  8
Layer_1
 62
7
100
AcDbPolyline
 90
2
 70
0
 10
122.296760
 20
178.643940
 30
0.0
 10
122.296760
 20
178.294940
 30
0.0
  0
LWPOLYLINE
  5
1a1
100
AcDbEntity
  8
Layer_1
 62
7
100
AcDbPolyline
 90
2
 70
0
 10
123.122880
 20
178.929480
 30
0.0
 10
123.948990
 20
178.865980
 30
0.0
  0
LWPOLYLINE
  5
1a2
100
AcDbEntity
  8
Layer_1
 62
7
100
AcDbPolyline
 90
2
 70
0
 10
121.343560
 20
178.104580
 30
0.0
 10
120.485680
 20
178.612210
 30
0.0
  0
LWPOLYLINE
  5
1a3
100
AcDbEntity
  8
Layer_1
 62
7
100
AcDbPolyline
 90
3
 70
0
 10
121.343560
 20
178.104580
 30
0.0
 10
121.470660
 20
178.390120
 30
0.0
 10
122.296760
 20
178.294920
 30
0.0
  0
LWPOLYLINE
  5
1a4
100
AcDbEntity
  8
Layer_1
 62
7
100
AcDbPolyline
 90
2
 70
0
 10
123.853670
 20
176.137520
 30
0.0
 10
123.853670
 20
176.105820
 30
0.0
  0
LWPOLYLINE
  5
1a5
100
AcDbEntity
  8
Layer_1
 62
7
100
AcDbPolyline
 90
2
 70
0
 10
123.122880
 20
178.580480
 30
0.0
 10
122.296760
 20
178.643980
 30
0.0
  0
LWPOLYLINE
  5
1a6
100
AcDbEntity
  8
Layer_1
 62
7
100
AcDbPolyline
 90
2
 70
0
 10
123.853670
 20
176.137520
 30
0.0
 10
123.472390
 20
175.502970
 30
0.0
  0
LWPOLYLINE
  5
1a7
100
AcDbEntity
  8
Layer_1
 62
7
100
AcDbPolyline
 90
3
 70
0
 10
123.027550
 20
174.741530
 30
0.0
 10
122.678040
 20
174.106990
 30
0.0
 10
122.169670
 20
173.250360
 30
0.0
  0
LWPOLYLINE
  5
1a8
100
AcDbEntity
  8
Layer_1
 62
7
100
AcDbPolyline
 90
2
 70
0
 10
124.584450
 20
177.438310
 30
0.0
 10
125.156370
 20
178.390120
 30
0.0
  0
LWPOLYLINE
  5
1a9
100
AcDbEntity
  8
Layer_1
 62
7
100
AcDbPolyline
 90
2
 70
0
 10
124.616230
 20
177.406590
 30
0.0
 10
123.853670
 20
176.105780
 30
0.0
  0
LWPOLYLINE
  5
1aa
100
AcDbEntity
  8
Layer_1
 62
7
100
AcDbPolyline
 90
3
 70
0
 10
124.616230
 20
177.406590
 30
0.0
 10
124.584430
 20
177.438290
 30
0.0
 10
123.853670
 20
176.137520
 30
0.0
  0
LWPOLYLINE
  5
1ab
100
AcDbEntity
  8
Layer_1
 62
7
100
AcDbPolyline
 90
2
 70
0
 10
123.948990
 20
179.215020
 30
0.0
 10
124.775090
 20
179.119820
 30
0.0
  0
LWPOLYLINE
  5
1ac
100
AcDbEntity
  8
Layer_1
 62
7
100
AcDbPolyline
 90
2
 70
0
 10
123.948990
 20
179.215020
 30
0.0
 10
123.948990
 20
178.866030
 30
0.0
  0
LWPOLYLINE
  5
1ad
100
AcDbEntity
  8
Layer_1
 62
7
100
AcDbPolyline
 90
4
 70
0
 10
117.244790
 20
180.452380
 30
0.0
 10
117.022380
 20
180.579280
 30
0.0
 10
116.768190
 20
180.579280
 30
0.0
 10
116.577550
 20
180.547580
 30
0.0
  0
LWPOLYLINE
  5
1ae
100
AcDbEntity
  8
Layer_1
 62
7
100
AcDbPolyline
 90
5
 70
0
 10
115.942080
 20
180.008200
 30
0.0
 10
115.942080
 20
179.944700
 30
0.0
 10
115.910280
 20
179.722650
 30
0.0
 10
115.942000
 20
179.468840
 30
0.0
 10
116.005680
 20
179.310210
 30
0.0
  0
LWPOLYLINE
  5
1af
100
AcDbEntity
  8
Layer_1
 62
7
100
AcDbPolyline
 90
3
 70
0
 10
118.992330
 20
170.141130
 30
0.0
 10
119.437150
 20
170.617030
 30
0.0
 10
119.723120
 20
171.029480
 30
0.0
  0
LWPOLYLINE
  5
1b0
100
AcDbEntity
  8
Layer_1
 62
7
100
AcDbPolyline
 90
3
 70
0
 10
116.005620
 20
179.310210
 30
0.0
 10
116.164490
 20
179.056390
 30
0.0
 10
116.355130
 20
178.929480
 30
0.0
  0
LWPOLYLINE
  5
1b1
100
AcDbEntity
  8
Layer_1
 62
7
100
AcDbPolyline
 90
4
 70
0
 10
121.121150
 20
172.806190
 30
0.0
 10
120.644550
 20
172.425460
 30
0.0
 10
120.263270
 20
171.949560
 30
0.0
 10
120.199670
 20
171.822650
 30
0.0
  0
LWPOLYLINE
  5
1b2
100
AcDbEntity
  8
Layer_1
 62
7
100
AcDbPolyline
 90
3
 70
0
 10
122.010800
 20
173.218640
 30
0.0
 10
121.565980
 20
173.028270
 30
0.0
 10
121.089380
 20
172.806190
 30
0.0
  0
LWPOLYLINE
  5
1b3
100
AcDbEntity
  8
Layer_1
 62
7
100
AcDbPolyline
 90
6
 70
0
 10
125.156370
 20
178.390120
 30
0.0
 10
125.219970
 20
178.580480
 30
0.0
 10
125.219920
 20
178.770850
 30
0.0
 10
125.092830
 20
178.961210
 30
0.0
 10
124.933960
 20
179.088110
 30
0.0
 10
124.775090
 20
179.151610
 30
0.0
  0
LWPOLYLINE
  5
1b4
100
AcDbEntity
  8
Layer_1
 62
7
100
AcDbPolyline
 90
2
 70
0
 10
75.971100
 20
174.392530
 30
0.0
 10
73.937600
 20
174.392530
 30
0.0
  0
LWPOLYLINE
  5
1b5
100
AcDbEntity
  8
Layer_1
 62
7
100
AcDbPolyline
 90
2
 70
0
 10
73.937600
 20
172.742730
 30
0.0
 10
75.971100
 20
172.742730
 30
0.0
  0
LWPOLYLINE
  5
1b6
100
AcDbEntity
  8
Layer_1
 62
7
100
AcDbPolyline
 90
2
 70
0
 10
73.937600
 20
172.742730
 30
0.0
 10
73.937600
 20
174.075260
 30
0.0
  0
LWPOLYLINE
  5
1b7
100
AcDbEntity
  8
Layer_1
 62
7
100
AcDbPolyline
 90
2
 70
0
 10
75.971100
 20
174.075260
 30
0.0
 10
75.971100
 20
172.742730
 30
0.0
  0
LWPOLYLINE
  5
1b8
100
AcDbEntity
  8
Layer_1
 62
7
100
AcDbPolyline
 90
2
 70
0
 10
73.937600
 20
174.075260
 30
0.0
 10
73.937600
 20
174.392530
 30
0.0
  0
LWPOLYLINE
  5
1b9
100
AcDbEntity
  8
Layer_1
 62
7
100
AcDbPolyline
 90
2
 70
0
 10
75.971100
 20
174.392530
 30
0.0
 10
75.971100
 20
174.075260
 30
0.0
  0
LWPOLYLINE
  5
1ba
100
AcDbEntity
  8
Layer_1
 62
7
100
AcDbPolyline
 90
2
 70
0
 10
72.666663
 20
172.013010
 30
0.0
 10
72.476022
 20
172.013010
 30
0.0
  0
LWPOLYLINE
  5
1bb
100
AcDbEntity
  8
Layer_1
 62
7
100
AcDbPolyline
 90
2
 70
0
 10
72.062967
 20
172.013010
 30
0.0
 10
71.872327
 20
172.013010
 30
0.0
  0
LWPOLYLINE
  5
1bc
100
AcDbEntity
  8
Layer_1
 62
7
100
AcDbPolyline
 90
2
 70
0
 10
73.079717
 20
172.013010
 30
0.0
 10
73.270358
 20
172.013010
 30
0.0
  0
LWPOLYLINE
  5
1bd
100
AcDbEntity
  8
Layer_1
 62
7
100
AcDbPolyline
 90
2
 70
0
 10
71.459272
 20
172.013010
 30
0.0
 10
71.268632
 20
172.013010
 30
0.0
  0
LWPOLYLINE
  5
1be
100
AcDbEntity
  8
Layer_1
 62
7
100
AcDbPolyline
 90
2
 70
0
 10
76.638342
 20
172.013010
 30
0.0
 10
76.860756
 20
172.013010
 30
0.0
  0
LWPOLYLINE
  5
1bf
100
AcDbEntity
  8
Layer_1
 62
7
100
AcDbPolyline
 90
2
 70
0
 10
77.242037
 20
172.013010
 30
0.0
 10
77.464451
 20
172.013010
 30
0.0
  0
LWPOLYLINE
  5
1c0
100
AcDbEntity
  8
Layer_1
 62
7
100
AcDbPolyline
 90
2
 70
0
 10
77.845732
 20
172.013010
 30
0.0
 10
78.068146
 20
172.013010
 30
0.0
  0
LWPOLYLINE
  5
1c1
100
AcDbEntity
  8
Layer_1
 62
7
100
AcDbPolyline
 90
2
 70
0
 10
78.449427
 20
172.013010
 30
0.0
 10
78.671842
 20
172.013010
 30
0.0
  0
LWPOLYLINE
  5
1c2
100
AcDbEntity
  8
Layer_1
 62
7
100
AcDbPolyline
 90
2
 70
0
 10
34.919817
 20
172.013010
 30
0.0
 10
34.729176
 20
172.013010
 30
0.0
  0
LWPOLYLINE
  5
1c3
100
AcDbEntity
  8
Layer_1
 62
7
100
AcDbPolyline
 90
2
 70
0
 10
35.301098
 20
172.013010
 30
0.0
 10
35.523517
 20
172.013010
 30
0.0
  0
LWPOLYLINE
  5
1c4
100
AcDbEntity
  8
Layer_1
 62
7
100
AcDbPolyline
 90
2
 70
0
 10
35.904798
 20
172.013010
 30
0.0
 10
36.127210
 20
172.013010
 30
0.0
  0
LWPOLYLINE
  5
1c5
100
AcDbEntity
  8
Layer_1
 62
7
100
AcDbPolyline
 90
2
 70
0
 10
36.508491
 20
172.013010
 30
0.0
 10
36.730902
 20
172.013010
 30
0.0
  0
LWPOLYLINE
  5
1c6
100
AcDbEntity
  8
Layer_1
 62
7
100
AcDbPolyline
 90
2
 70
0
 10
109.015470
 20
172.013010
 30
0.0
 10
109.206110
 20
172.013010
 30
0.0
  0
LWPOLYLINE
  5
1c7
100
AcDbEntity
  8
Layer_1
 62
7
100
AcDbPolyline
 90
2
 70
0
 10
109.587390
 20
172.013010
 30
0.0
 10
109.809800
 20
172.013010
 30
0.0
  0
LWPOLYLINE
  5
1c8
100
AcDbEntity
  8
Layer_1
 62
7
100
AcDbPolyline
 90
2
 70
0
 10
110.191080
 20
172.013010
 30
0.0
 10
110.413500
 20
172.013010
 30
0.0
  0
LWPOLYLINE
  5
1c9
100
AcDbEntity
  8
Layer_1
 62
7
100
AcDbPolyline
 90
2
 70
0
 10
108.602420
 20
172.013010
 30
0.0
 10
108.411780
 20
172.013010
 30
0.0
  0
LWPOLYLINE
  5
1ca
100
AcDbEntity
  8
Layer_1
 62
7
100
AcDbPolyline
 90
2
 70
0
 10
118.611050
 20
180.611000
 30
0.0
 10
118.483950
 20
180.896550
 30
0.0
  0
LWPOLYLINE
  5
1cb
100
AcDbEntity
  8
Layer_1
 62
7
100
AcDbPolyline
 90
2
 70
0
 10
118.039130
 20
179.944740
 30
0.0
 10
117.308340
 20
179.627470
 30
0.0
  0
LWPOLYLINE
  5
1cc
100
AcDbEntity
  8
Layer_1
 62
7
100
AcDbPolyline
 90
2
 70
0
 10
117.848490
 20
171.568840
 30
0.0
 10
116.323360
 20
171.568840
 30
0.0
  0
LWPOLYLINE
  5
1cd
100
AcDbEntity
  8
Layer_1
 62
7
100
AcDbPolyline
 90
2
 70
0
 10
114.798240
 20
177.501770
 30
0.0
 10
112.605870
 20
177.501770
 30
0.0
  0
LWPOLYLINE
  5
1ce
100
AcDbEntity
  8
Layer_1
 62
7
100
AcDbPolyline
 90
2
 70
0
 10
118.483950
 20
180.896550
 30
0.0
 10
119.182970
 20
181.245550
 30
0.0
  0
LWPOLYLINE
  5
1cf
100
AcDbEntity
  8
Layer_1
 62
7
100
AcDbPolyline
 90
2
 70
0
 10
119.500700
 20
172.806190
 30
0.0
 10
119.500700
 20
172.362010
 30
0.0
  0
LWPOLYLINE
  5
1d0
100
AcDbEntity
  8
Layer_1
 62
7
100
AcDbPolyline
 90
2
 70
0
 10
118.007350
 20
180.039920
 30
0.0
 10
117.880260
 20
180.262010
 30
0.0
  0
LWPOLYLINE
  5
1d1
100
AcDbEntity
  8
Layer_1
 62
7
100
AcDbPolyline
 90
2
 70
0
 10
115.973850
 20
179.310210
 30
0.0
 10
112.605870
 20
179.310210
 30
0.0
  0
LWPOLYLINE
  5
1d2
100
AcDbEntity
  8
Layer_1
 62
7
100
AcDbPolyline
 90
2
 70
0
 10
115.973850
 20
179.310210
 30
0.0
 10
117.308340
 20
179.310210
 30
0.0
  0
LWPOLYLINE
  5
1d3
100
AcDbEntity
  8
Layer_1
 62
7
100
AcDbPolyline
 90
2
 70
0
 10
118.515730
 20
176.518240
 30
0.0
 10
114.798240
 20
176.518240
 30
0.0
  0
LWPOLYLINE
  5
1d4
100
AcDbEntity
  8
Layer_1
 62
7
100
AcDbPolyline
 90
2
 70
0
 10
117.880260
 20
180.262010
 30
0.0
 10
118.611050
 20
180.611000
 30
0.0
  0
LWPOLYLINE
  5
1d5
100
AcDbEntity
  8
Layer_1
 62
7
100
AcDbPolyline
 90
2
 70
0
 10
120.485680
 20
180.357190
 30
0.0
 10
120.485680
 20
181.435910
 30
0.0
  0
LWPOLYLINE
  5
1d6
100
AcDbEntity
  8
Layer_1
 62
7
100
AcDbPolyline
 90
2
 70
0
 10
120.485680
 20
180.357190
 30
0.0
 10
120.485680
 20
178.834300
 30
0.0
  0
LWPOLYLINE
  5
1d7
100
AcDbEntity
  8
Layer_1
 62
7
100
AcDbPolyline
 90
2
 70
0
 10
120.485680
 20
178.612210
 30
0.0
 10
120.485680
 20
176.518240
 30
0.0
  0
LWPOLYLINE
  5
1d8
100
AcDbEntity
  8
Layer_1
 62
7
100
AcDbPolyline
 90
2
 70
0
 10
119.055870
 20
181.562810
 30
0.0
 10
119.754890
 20
181.911810
 30
0.0
  0
LWPOLYLINE
  5
1d9
100
AcDbEntity
  8
Layer_1
 62
7
100
AcDbPolyline
 90
2
 70
0
 10
119.055870
 20
181.562810
 30
0.0
 10
119.182970
 20
181.245550
 30
0.0
  0
LWPOLYLINE
  5
1da
100
AcDbEntity
  8
Layer_1
 62
7
100
AcDbPolyline
 90
2
 70
0
 10
118.515730
 20
176.518240
 30
0.0
 10
120.485680
 20
176.518240
 30
0.0
  0
LWPOLYLINE
  5
1db
100
AcDbEntity
  8
Layer_1
 62
7
100
AcDbPolyline
 90
2
 70
0
 10
120.517460
 20
178.834300
 30
0.0
 10
120.517460
 20
180.357190
 30
0.0
  0
LWPOLYLINE
  5
1dc
100
AcDbEntity
  8
Layer_1
 62
7
100
AcDbPolyline
 90
12
 70
0
 10
116.323360
 20
171.568840
 30
0.0
 10
116.259760
 20
171.346740
 30
0.0
 10
116.259760
 20
171.092930
 30
0.0
 10
116.323360
 20
170.839120
 30
0.0
 10
116.514000
 20
170.617030
 30
0.0
 10
116.768190
 20
170.458390
 30
0.0
 10
117.022380
 20
170.363190
 30
0.0
 10
117.244790
 20
170.394890
 30
0.0
 10
117.498980
 20
170.490090
 30
0.0
 10
117.753170
 20
170.712180
 30
0.0
 10
117.880260
 20
170.934270
 30
0.0
 10
117.943860
 20
171.156360
 30
0.0
  0
LWPOLYLINE
  5
1dd
100
AcDbEntity
  8
Layer_1
 62
7
100
AcDbPolyline
 90
7
 70
0
 10
117.848490
 20
171.568840
 30
0.0
 10
117.657850
 20
171.822650
 30
0.0
 10
117.435430
 20
171.981290
 30
0.0
 10
117.181250
 20
172.044790
 30
0.0
 10
116.927060
 20
172.044790
 30
0.0
 10
116.704640
 20
171.949590
 30
0.0
 10
116.609340
 20
171.886090
 30
0.0
  0
LWPOLYLINE
  5
1de
100
AcDbEntity
  8
Layer_1
 62
7
100
AcDbPolyline
 90
3
 70
0
 10
117.912030
 20
171.156380
 30
0.0
 10
117.912030
 20
171.378480
 30
0.0
 10
117.848430
 20
171.568840
 30
0.0
  0
LWPOLYLINE
  5
1df
100
AcDbEntity
  8
Layer_1
 62
7
100
AcDbPolyline
 90
3
 70
0
 10
116.609320
 20
171.886100
 30
0.0
 10
116.386900
 20
171.664020
 30
0.0
 10
116.323300
 20
171.568820
 30
0.0
  0
LWPOLYLINE
  5
1e0
100
AcDbEntity
  8
Layer_1
 62
7
100
AcDbPolyline
 90
12
 70
0
 10
112.605870
 20
179.310210
 30
0.0
 10
112.351680
 20
179.278510
 30
0.0
 10
112.129270
 20
179.151600
 30
0.0
 10
111.875080
 20
178.961240
 30
0.0
 10
111.747990
 20
178.707430
 30
0.0
 10
111.716190
 20
178.485340
 30
0.0
 10
111.716190
 20
178.231530
 30
0.0
 10
111.811490
 20
177.977710
 30
0.0
 10
112.002130
 20
177.755620
 30
0.0
 10
112.256310
 20
177.596980
 30
0.0
 10
112.478730
 20
177.501780
 30
0.0
 10
112.605820
 20
177.501780
 30
0.0
  0
LWPOLYLINE
  5
1e1
100
AcDbEntity
  8
Layer_1
 62
7
100
AcDbPolyline
 90
5
 70
0
 10
118.992330
 20
170.712210
 30
0.0
 10
119.278290
 20
171.188110
 30
0.0
 10
119.405380
 20
171.664020
 30
0.0
 10
119.500680
 20
172.108190
 30
0.0
 10
119.500680
 20
172.362010
 30
0.0
  0
LWPOLYLINE
  5
1e2
100
AcDbEntity
  8
Layer_1
 62
7
100
AcDbPolyline
 90
2
 70
0
 10
120.358590
 20
175.407790
 30
0.0
 10
120.136170
 20
175.122250
 30
0.0
  0
LWPOLYLINE
  5
1e3
100
AcDbEntity
  8
Layer_1
 62
7
100
AcDbPolyline
 90
6
 70
0
 10
120.517460
 20
181.435910
 30
0.0
 10
120.453860
 20
181.626270
 30
0.0
 10
120.326770
 20
181.816630
 30
0.0
 10
120.136130
 20
181.911830
 30
0.0
 10
119.945490
 20
181.943530
 30
0.0
 10
119.786620
 20
181.911830
 30
0.0
  0
LWPOLYLINE
  5
1e4
100
AcDbEntity
  8
Layer_1
 62
7
100
AcDbPolyline
 90
3
 70
0
 10
27.516611
 20
161.194130
 30
0.0
 10
31.520064
 20
161.194130
 30
0.0
 10
31.520064
 20
161.511400
 30
0.0
  0
LWPOLYLINE
  5
1e5
100
AcDbEntity
  8
Layer_1
 62
7
100
AcDbPolyline
 90
2
 70
0
 10
27.516611
 20
161.511400
 30
0.0
 10
27.516611
 20
161.194130
 30
0.0
  0
LWPOLYLINE
  5
1e6
100
AcDbEntity
  8
Layer_1
 62
7
100
AcDbPolyline
 90
3
 70
0
 10
113.590840
 20
161.194130
 30
0.0
 10
117.594300
 20
161.194130
 30
0.0
 10
117.594300
 20
161.511400
 30
0.0
  0
LWPOLYLINE
  5
1e7
100
AcDbEntity
  8
Layer_1
 62
7
100
AcDbPolyline
 90
2
 70
0
 10
113.590840
 20
161.511400
 30
0.0
 10
113.590840
 20
161.194130
 30
0.0
  0
LWPOLYLINE
  5
1e8
100
AcDbEntity
  8
Layer_1
 62
7
100
AcDbPolyline
 90
2
 70
0
 10
75.971100
 20
161.194130
 30
0.0
 10
73.937600
 20
161.194130
 30
0.0
  0
LWPOLYLINE
  5
1e9
100
AcDbEntity
  8
Layer_1
 62
7
100
AcDbPolyline
 90
3
 70
0
 10
73.937600
 20
162.843930
 30
0.0
 10
75.971100
 20
162.843930
 30
0.0
 10
75.971100
 20
161.194130
 30
0.0
  0
LWPOLYLINE
  5
1ea
100
AcDbEntity
  8
Layer_1
 62
7
100
AcDbPolyline
 90
2
 70
0
 10
73.937600
 20
161.194130
 30
0.0
 10
73.937600
 20
162.843930
 30
0.0
  0
LWPOLYLINE
  5
1eb
100
AcDbEntity
  8
Layer_1
 62
7
100
AcDbPolyline
 90
2
 70
0
 10
27.866114
 20
176.105780
 30
0.0
 10
27.611932
 20
176.518240
 30
0.0
  0
LWPOLYLINE
  5
1ec
100
AcDbEntity
  8
Layer_1
 62
7
100
AcDbPolyline
 90
2
 70
0
 10
28.533356
 20
171.917830
 30
0.0
 10
27.198872
 20
171.156380
 30
0.0
  0
LWPOLYLINE
  5
1ed
100
AcDbEntity
  8
Layer_1
 62
7
100
AcDbPolyline
 90
2
 70
0
 10
24.815865
 20
175.027070
 30
0.0
 10
24.625224
 20
174.900170
 30
0.0
  0
LWPOLYLINE
  5
1ee
100
AcDbEntity
  8
Layer_1
 62
7
100
AcDbPolyline
 90
2
 70
0
 10
24.911185
 20
171.822650
 30
0.0
 10
25.165375
 20
171.410200
 30
0.0
  0
LWPOLYLINE
  5
1ef
100
AcDbEntity
  8
Layer_1
 62
7
100
AcDbPolyline
 90
12
 70
0
 10
27.198872
 20
171.156380
 30
0.0
 10
27.262442
 20
170.902570
 30
0.0
 10
27.421312
 20
170.648750
 30
0.0
 10
27.643723
 20
170.458390
 30
0.0
 10
27.897913
 20
170.394890
 30
0.0
 10
28.152096
 20
170.394890
 30
0.0
 10
28.406286
 20
170.458390
 30
0.0
 10
28.628697
 20
170.648750
 30
0.0
 10
28.819338
 20
170.870840
 30
0.0
 10
28.851088
 20
171.124660
 30
0.0
 10
28.851088
 20
171.378480
 30
0.0
 10
28.787518
 20
171.568840
 30
0.0
  0
LWPOLYLINE
  5
1f0
100
AcDbEntity
  8
Layer_1
 62
7
100
AcDbPolyline
 90
7
 70
0
 10
28.533356
 20
171.886100
 30
0.0
 10
28.279174
 20
172.013010
 30
0.0
 10
28.024984
 20
172.076510
 30
0.0
 10
27.802572
 20
172.013010
 30
0.0
 10
27.548382
 20
171.886100
 30
0.0
 10
27.325971
 20
171.664020
 30
0.0
 10
27.262401
 20
171.568820
 30
0.0
  0
LWPOLYLINE
  5
1f1
100
AcDbEntity
  8
Layer_1
 62
7
100
AcDbPolyline
 90
3
 70
0
 10
28.819317
 20
171.568840
 30
0.0
 10
28.628677
 20
171.822650
 30
0.0
 10
28.533357
 20
171.886150
 30
0.0
  0
LWPOLYLINE
  5
1f2
100
AcDbEntity
  8
Layer_1
 62
7
100
AcDbPolyline
 90
3
 70
0
 10
27.262422
 20
171.568840
 30
0.0
 10
27.198852
 20
171.346740
 30
0.0
 10
27.198852
 20
171.124660
 30
0.0
  0
LWPOLYLINE
  5
1f3
100
AcDbEntity
  8
Layer_1
 62
7
100
AcDbPolyline
 90
2
 70
0
 10
25.927937
 20
181.245550
 30
0.0
 10
26.055029
 20
181.562810
 30
0.0
  0
LWPOLYLINE
  5
1f4
100
AcDbEntity
  8
Layer_1
 62
7
100
AcDbPolyline
 90
2
 70
0
 10
27.103552
 20
180.039920
 30
0.0
 10
27.071802
 20
179.944720
 30
0.0
  0
LWPOLYLINE
  5
1f5
100
AcDbEntity
  8
Layer_1
 62
7
100
AcDbPolyline
 90
2
 70
0
 10
29.137057
 20
179.310210
 30
0.0
 10
32.505038
 20
179.310210
 30
0.0
  0
LWPOLYLINE
  5
1f6
100
AcDbEntity
  8
Layer_1
 62
7
100
AcDbPolyline
 90
2
 70
0
 10
30.312671
 20
176.518240
 30
0.0
 10
30.312671
 20
176.105780
 30
0.0
  0
LWPOLYLINE
  5
1f7
100
AcDbEntity
  8
Layer_1
 62
7
100
AcDbPolyline
 90
2
 70
0
 10
28.438036
 20
176.105780
 30
0.0
 10
27.834343
 20
176.105780
 30
0.0
  0
LWPOLYLINE
  5
1f8
100
AcDbEntity
  8
Layer_1
 62
7
100
AcDbPolyline
 90
2
 70
0
 10
30.312671
 20
177.311410
 30
0.0
 10
30.312671
 20
177.501770
 30
0.0
  0
LWPOLYLINE
  5
1f9
100
AcDbEntity
  8
Layer_1
 62
7
100
AcDbPolyline
 90
2
 70
0
 10
30.312671
 20
177.311410
 30
0.0
 10
30.312671
 20
176.518240
 30
0.0
  0
LWPOLYLINE
  5
1fa
100
AcDbEntity
  8
Layer_1
 62
7
100
AcDbPolyline
 90
2
 70
0
 10
28.819317
 20
171.568840
 30
0.0
 10
27.262422
 20
171.568840
 30
0.0
  0
LWPOLYLINE
  5
1fb
100
AcDbEntity
  8
Layer_1
 62
7
100
AcDbPolyline
 90
2
 70
0
 10
26.055029
 20
181.562810
 30
0.0
 10
25.356016
 20
181.911810
 30
0.0
  0
LWPOLYLINE
  5
1fc
100
AcDbEntity
  8
Layer_1
 62
7
100
AcDbPolyline
 90
2
 70
0
 10
25.641976
 20
172.806190
 30
0.0
 10
25.641976
 20
172.362010
 30
0.0
  0
LWPOLYLINE
  5
1fd
100
AcDbEntity
  8
Layer_1
 62
7
100
AcDbPolyline
 90
2
 70
0
 10
26.944690
 20
176.105780
 30
0.0
 10
27.008260
 20
176.105780
 30
0.0
  0
LWPOLYLINE
  5
1fe
100
AcDbEntity
  8
Layer_1
 62
7
100
AcDbPolyline
 90
2
 70
0
 10
27.135330
 20
176.105780
 30
0.0
 10
27.834343
 20
176.105780
 30
0.0
  0
LWPOLYLINE
  5
1ff
100
AcDbEntity
  8
Layer_1
 62
7
100
AcDbPolyline
 90
2
 70
0
 10
27.135330
 20
176.105780
 30
0.0
 10
27.008232
 20
176.105780
 30
0.0
  0
LWPOLYLINE
  5
200
100
AcDbEntity
  8
Layer_1
 62
7
100
AcDbPolyline
 90
2
 70
0
 10
24.593453
 20
179.817830
 30
0.0
 10
24.593453
 20
179.881330
 30
0.0
  0
LWPOLYLINE
  5
201
100
AcDbEntity
  8
Layer_1
 62
7
100
AcDbPolyline
 90
2
 70
0
 10
24.593453
 20
179.913010
 30
0.0
 10
24.593453
 20
179.944710
 30
0.0
  0
LWPOLYLINE
  5
202
100
AcDbEntity
  8
Layer_1
 62
7
100
AcDbPolyline
 90
2
 70
0
 10
24.593453
 20
179.913010
 30
0.0
 10
24.593453
 20
179.881310
 30
0.0
  0
LWPOLYLINE
  5
203
100
AcDbEntity
  8
Layer_1
 62
7
100
AcDbPolyline
 90
2
 70
0
 10
24.593453
 20
179.817830
 30
0.0
 10
24.625203
 20
179.817830
 30
0.0
  0
LWPOLYLINE
  5
204
100
AcDbEntity
  8
Layer_1
 62
7
100
AcDbPolyline
 90
2
 70
0
 10
24.625224
 20
179.881290
 30
0.0
 10
24.593474
 20
179.881290
 30
0.0
  0
LWPOLYLINE
  5
205
100
AcDbEntity
  8
Layer_1
 62
7
100
AcDbPolyline
 90
2
 70
0
 10
24.593453
 20
179.913010
 30
0.0
 10
24.625203
 20
179.913010
 30
0.0
  0
LWPOLYLINE
  5
206
100
AcDbEntity
  8
Layer_1
 62
7
100
AcDbPolyline
 90
2
 70
0
 10
24.625224
 20
179.944740
 30
0.0
 10
24.593474
 20
179.944740
 30
0.0
  0
LWPOLYLINE
  5
207
100
AcDbEntity
  8
Layer_1
 62
7
100
AcDbPolyline
 90
2
 70
0
 10
24.593453
 20
178.834300
 30
0.0
 10
24.625203
 20
178.834300
 30
0.0
  0
LWPOLYLINE
  5
208
100
AcDbEntity
  8
Layer_1
 62
7
100
AcDbPolyline
 90
2
 70
0
 10
24.625224
 20
178.897750
 30
0.0
 10
24.593474
 20
178.897750
 30
0.0
  0
LWPOLYLINE
  5
209
100
AcDbEntity
  8
Layer_1
 62
7
100
AcDbPolyline
 90
2
 70
0
 10
24.593453
 20
178.929480
 30
0.0
 10
24.625203
 20
178.929480
 30
0.0
  0
LWPOLYLINE
  5
20a
100
AcDbEntity
  8
Layer_1
 62
7
100
AcDbPolyline
 90
2
 70
0
 10
24.625224
 20
179.024660
 30
0.0
 10
24.593474
 20
179.024660
 30
0.0
  0
LWPOLYLINE
  5
20b
100
AcDbEntity
  8
Layer_1
 62
7
100
AcDbPolyline
 90
2
 70
0
 10
24.593453
 20
179.088110
 30
0.0
 10
24.625203
 20
179.088110
 30
0.0
  0
LWPOLYLINE
  5
20c
100
AcDbEntity
  8
Layer_1
 62
7
100
AcDbPolyline
 90
2
 70
0
 10
24.593453
 20
180.166830
 30
0.0
 10
24.593453
 20
180.262030
 30
0.0
  0
LWPOLYLINE
  5
20d
100
AcDbEntity
  8
Layer_1
 62
7
100
AcDbPolyline
 90
2
 70
0
 10
24.593453
 20
180.071650
 30
0.0
 10
24.593453
 20
179.944740
 30
0.0
  0
LWPOLYLINE
  5
20e
100
AcDbEntity
  8
Layer_1
 62
7
100
AcDbPolyline
 90
2
 70
0
 10
24.593453
 20
180.071650
 30
0.0
 10
24.593453
 20
180.166850
 30
0.0
  0
LWPOLYLINE
  5
20f
100
AcDbEntity
  8
Layer_1
 62
7
100
AcDbPolyline
 90
2
 70
0
 10
24.593453
 20
180.262010
 30
0.0
 10
24.593453
 20
180.293710
 30
0.0
  0
LWPOLYLINE
  5
210
100
AcDbEntity
  8
Layer_1
 62
7
100
AcDbPolyline
 90
2
 70
0
 10
24.593453
 20
180.325460
 30
0.0
 10
24.593453
 20
180.357160
 30
0.0
  0
LWPOLYLINE
  5
211
100
AcDbEntity
  8
Layer_1
 62
7
100
AcDbPolyline
 90
2
 70
0
 10
24.593453
 20
180.325460
 30
0.0
 10
24.593453
 20
180.293760
 30
0.0
  0
LWPOLYLINE
  5
212
100
AcDbEntity
  8
Layer_1
 62
7
100
AcDbPolyline
 90
4
 70
0
 10
24.593453
 20
179.405390
 30
0.0
 10
24.593453
 20
179.310190
 30
0.0
 10
24.593453
 20
179.183290
 30
0.0
 10
24.625203
 20
179.183290
 30
0.0
  0
LWPOLYLINE
  5
213
100
AcDbEntity
  8
Layer_1
 62
7
100
AcDbPolyline
 90
2
 70
0
 10
24.625224
 20
179.310210
 30
0.0
 10
24.593474
 20
179.310210
 30
0.0
  0
LWPOLYLINE
  5
214
100
AcDbEntity
  8
Layer_1
 62
7
100
AcDbPolyline
 90
2
 70
0
 10
24.593453
 20
179.405390
 30
0.0
 10
24.625203
 20
179.405390
 30
0.0
  0
LWPOLYLINE
  5
215
100
AcDbEntity
  8
Layer_1
 62
7
100
AcDbPolyline
 90
2
 70
0
 10
24.625224
 20
180.071650
 30
0.0
 10
24.593474
 20
180.071650
 30
0.0
  0
LWPOLYLINE
  5
216
100
AcDbEntity
  8
Layer_1
 62
7
100
AcDbPolyline
 90
2
 70
0
 10
24.593453
 20
180.357190
 30
0.0
 10
24.625203
 20
180.357190
 30
0.0
  0
LWPOLYLINE
  5
217
100
AcDbEntity
  8
Layer_1
 62
7
100
AcDbPolyline
 90
2
 70
0
 10
24.625224
 20
180.166830
 30
0.0
 10
24.593474
 20
180.166830
 30
0.0
  0
LWPOLYLINE
  5
218
100
AcDbEntity
  8
Layer_1
 62
7
100
AcDbPolyline
 90
2
 70
0
 10
24.593453
 20
180.262010
 30
0.0
 10
24.625203
 20
180.262010
 30
0.0
  0
LWPOLYLINE
  5
219
100
AcDbEntity
  8
Layer_1
 62
7
100
AcDbPolyline
 90
2
 70
0
 10
24.625224
 20
180.293740
 30
0.0
 10
24.593474
 20
180.293740
 30
0.0
  0
LWPOLYLINE
  5
21a
100
AcDbEntity
  8
Layer_1
 62
7
100
AcDbPolyline
 90
2
 70
0
 10
24.593453
 20
180.325460
 30
0.0
 10
24.625203
 20
180.325460
 30
0.0
  0
LWPOLYLINE
  5
21b
100
AcDbEntity
  8
Layer_1
 62
7
100
AcDbPolyline
 90
3
 70
0
 10
24.593453
 20
179.817830
 30
0.0
 10
24.593453
 20
179.722630
 30
0.0
 10
24.625203
 20
179.722650
 30
0.0
  0
LWPOLYLINE
  5
21c
100
AcDbEntity
  8
Layer_1
 62
7
100
AcDbPolyline
 90
2
 70
0
 10
24.593453
 20
179.024660
 30
0.0
 10
24.593453
 20
178.929460
 30
0.0
  0
LWPOLYLINE
  5
21d
100
AcDbEntity
  8
Layer_1
 62
7
100
AcDbPolyline
 90
2
 70
0
 10
24.593453
 20
179.088110
 30
0.0
 10
24.593453
 20
179.183310
 30
0.0
  0
LWPOLYLINE
  5
21e
100
AcDbEntity
  8
Layer_1
 62
7
100
AcDbPolyline
 90
2
 70
0
 10
24.593453
 20
178.897750
 30
0.0
 10
24.593453
 20
178.834250
 30
0.0
  0
LWPOLYLINE
  5
21f
100
AcDbEntity
  8
Layer_1
 62
7
100
AcDbPolyline
 90
2
 70
0
 10
24.593453
 20
179.024660
 30
0.0
 10
24.593453
 20
179.088160
 30
0.0
  0
LWPOLYLINE
  5
220
100
AcDbEntity
  8
Layer_1
 62
7
100
AcDbPolyline
 90
2
 70
0
 10
24.593453
 20
178.929480
 30
0.0
 10
24.593453
 20
178.897780
 30
0.0
  0
LWPOLYLINE
  5
221
100
AcDbEntity
  8
Layer_1
 62
7
100
AcDbPolyline
 90
2
 70
0
 10
24.593453
 20
179.532290
 30
0.0
 10
24.593453
 20
179.595790
 30
0.0
  0
LWPOLYLINE
  5
222
100
AcDbEntity
  8
Layer_1
 62
7
100
AcDbPolyline
 90
2
 70
0
 10
24.593453
 20
179.437110
 30
0.0
 10
24.593453
 20
179.405410
 30
0.0
  0
LWPOLYLINE
  5
223
100
AcDbEntity
  8
Layer_1
 62
7
100
AcDbPolyline
 90
2
 70
0
 10
24.593453
 20
179.437110
 30
0.0
 10
24.593453
 20
179.468810
 30
0.0
  0
LWPOLYLINE
  5
224
100
AcDbEntity
  8
Layer_1
 62
7
100
AcDbPolyline
 90
2
 70
0
 10
24.593453
 20
179.595750
 30
0.0
 10
24.593453
 20
179.722650
 30
0.0
  0
LWPOLYLINE
  5
225
100
AcDbEntity
  8
Layer_1
 62
7
100
AcDbPolyline
 90
2
 70
0
 10
24.593453
 20
179.532290
 30
0.0
 10
24.593453
 20
179.468790
 30
0.0
  0
LWPOLYLINE
  5
226
100
AcDbEntity
  8
Layer_1
 62
7
100
AcDbPolyline
 90
2
 70
0
 10
24.593453
 20
179.437110
 30
0.0
 10
24.625203
 20
179.437110
 30
0.0
  0
LWPOLYLINE
  5
227
100
AcDbEntity
  8
Layer_1
 62
7
100
AcDbPolyline
 90
2
 70
0
 10
24.625224
 20
179.468840
 30
0.0
 10
24.593474
 20
179.468840
 30
0.0
  0
LWPOLYLINE
  5
228
100
AcDbEntity
  8
Layer_1
 62
7
100
AcDbPolyline
 90
2
 70
0
 10
24.593453
 20
179.532290
 30
0.0
 10
24.625203
 20
179.532290
 30
0.0
  0
LWPOLYLINE
  5
229
100
AcDbEntity
  8
Layer_1
 62
7
100
AcDbPolyline
 90
2
 70
0
 10
24.625224
 20
179.595750
 30
0.0
 10
24.593474
 20
179.595750
 30
0.0
  0
LWPOLYLINE
  5
22a
100
AcDbEntity
  8
Layer_1
 62
7
100
AcDbPolyline
 90
2
 70
0
 10
27.071781
 20
179.944740
 30
0.0
 10
27.802572
 20
179.627470
 30
0.0
  0
LWPOLYLINE
  5
22b
100
AcDbEntity
  8
Layer_1
 62
7
100
AcDbPolyline
 90
2
 70
0
 10
26.658729
 20
180.896550
 30
0.0
 10
25.927937
 20
181.245550
 30
0.0
  0
LWPOLYLINE
  5
22c
100
AcDbEntity
  8
Layer_1
 62
7
100
AcDbPolyline
 90
2
 70
0
 10
26.658729
 20
180.896550
 30
0.0
 10
26.499859
 20
180.611000
 30
0.0
  0
LWPOLYLINE
  5
22d
100
AcDbEntity
  8
Layer_1
 62
7
100
AcDbPolyline
 90
2
 70
0
 10
30.312671
 20
177.501770
 30
0.0
 10
32.505038
 20
177.501770
 30
0.0
  0
LWPOLYLINE
  5
22e
100
AcDbEntity
  8
Layer_1
 62
7
100
AcDbPolyline
 90
3
 70
0
 10
29.137057
 20
179.310210
 30
0.0
 10
27.802572
 20
179.310210
 30
0.0
 10
27.802572
 20
179.627470
 30
0.0
  0
LWPOLYLINE
  5
22f
100
AcDbEntity
  8
Layer_1
 62
7
100
AcDbPolyline
 90
2
 70
0
 10
26.595179
 20
176.518240
 30
0.0
 10
30.312671
 20
176.518240
 30
0.0
  0
LWPOLYLINE
  5
230
100
AcDbEntity
  8
Layer_1
 62
7
100
AcDbPolyline
 90
2
 70
0
 10
26.595179
 20
176.518240
 30
0.0
 10
24.625224
 20
176.518240
 30
0.0
  0
LWPOLYLINE
  5
231
100
AcDbEntity
  8
Layer_1
 62
7
100
AcDbPolyline
 90
3
 70
0
 10
27.103552
 20
180.039920
 30
0.0
 10
27.230651
 20
180.262010
 30
0.0
 10
26.499859
 20
180.611000
 30
0.0
  0
LWPOLYLINE
  5
232
100
AcDbEntity
  8
Layer_1
 62
7
100
AcDbPolyline
 90
2
 70
0
 10
24.625224
 20
178.612210
 30
0.0
 10
24.625224
 20
176.518240
 30
0.0
  0
LWPOLYLINE
  5
233
100
AcDbEntity
  8
Layer_1
 62
7
100
AcDbPolyline
 90
2
 70
0
 10
24.625224
 20
180.357190
 30
0.0
 10
24.625224
 20
181.435910
 30
0.0
  0
LWPOLYLINE
  5
234
100
AcDbEntity
  8
Layer_1
 62
7
100
AcDbPolyline
 90
2
 70
0
 10
24.625224
 20
179.881290
 30
0.0
 10
24.625224
 20
179.817790
 30
0.0
  0
LWPOLYLINE
  5
235
100
AcDbEntity
  8
Layer_1
 62
7
100
AcDbPolyline
 90
4
 70
0
 10
24.625224
 20
180.071650
 30
0.0
 10
24.625224
 20
180.166850
 30
0.0
 10
24.625224
 20
180.262030
 30
0.0
 10
24.625224
 20
180.293710
 30
0.0
  0
LWPOLYLINE
  5
236
100
AcDbEntity
  8
Layer_1
 62
7
100
AcDbPolyline
 90
2
 70
0
 10
24.625224
 20
180.325460
 30
0.0
 10
24.625224
 20
180.357160
 30
0.0
  0
LWPOLYLINE
  5
237
100
AcDbEntity
  8
Layer_1
 62
7
100
AcDbPolyline
 90
2
 70
0
 10
24.625224
 20
180.325460
 30
0.0
 10
24.625224
 20
180.293760
 30
0.0
  0
LWPOLYLINE
  5
238
100
AcDbEntity
  8
Layer_1
 62
7
100
AcDbPolyline
 90
2
 70
0
 10
24.625224
 20
180.071650
 30
0.0
 10
24.625224
 20
179.944740
 30
0.0
  0
LWPOLYLINE
  5
239
100
AcDbEntity
  8
Layer_1
 62
7
100
AcDbPolyline
 90
2
 70
0
 10
24.625224
 20
179.817830
 30
0.0
 10
24.625224
 20
179.722630
 30
0.0
  0
LWPOLYLINE
  5
23a
100
AcDbEntity
  8
Layer_1
 62
7
100
AcDbPolyline
 90
3
 70
0
 10
24.625224
 20
179.881290
 30
0.0
 10
24.625224
 20
179.912990
 30
0.0
 10
24.625224
 20
179.944710
 30
0.0
  0
LWPOLYLINE
  5
23b
100
AcDbEntity
  8
Layer_1
 62
7
100
AcDbPolyline
 90
2
 70
0
 10
24.625224
 20
179.024660
 30
0.0
 10
24.625224
 20
178.929460
 30
0.0
  0
LWPOLYLINE
  5
23c
100
AcDbEntity
  8
Layer_1
 62
7
100
AcDbPolyline
 90
2
 70
0
 10
24.625224
 20
178.897750
 30
0.0
 10
24.625224
 20
178.834250
 30
0.0
  0
LWPOLYLINE
  5
23d
100
AcDbEntity
  8
Layer_1
 62
7
100
AcDbPolyline
 90
2
 70
0
 10
24.625224
 20
178.897750
 30
0.0
 10
24.625224
 20
178.929450
 30
0.0
  0
LWPOLYLINE
  5
23e
100
AcDbEntity
  8
Layer_1
 62
7
100
AcDbPolyline
 90
3
 70
0
 10
24.625224
 20
179.024660
 30
0.0
 10
24.625224
 20
179.088160
 30
0.0
 10
24.625224
 20
179.183310
 30
0.0
  0
LWPOLYLINE
  5
23f
100
AcDbEntity
  8
Layer_1
 62
7
100
AcDbPolyline
 90
2
 70
0
 10
24.625224
 20
179.310210
 30
0.0
 10
24.625224
 20
179.405410
 30
0.0
  0
LWPOLYLINE
  5
240
100
AcDbEntity
  8
Layer_1
 62
7
100
AcDbPolyline
 90
2
 70
0
 10
24.625224
 20
179.310210
 30
0.0
 10
24.625224
 20
179.183290
 30
0.0
  0
LWPOLYLINE
  5
241
100
AcDbEntity
  8
Layer_1
 62
7
100
AcDbPolyline
 90
6
 70
0
 10
24.625224
 20
179.405390
 30
0.0
 10
24.625224
 20
179.437090
 30
0.0
 10
24.625224
 20
179.468810
 30
0.0
 10
24.625224
 20
179.532340
 30
0.0
 10
24.625224
 20
179.595790
 30
0.0
 10
24.625224
 20
179.722650
 30
0.0
  0
LWPOLYLINE
  5
242
100
AcDbEntity
  8
Layer_1
 62
7
100
AcDbPolyline
 90
2
 70
0
 10
24.625224
 20
178.834300
 30
0.0
 10
24.625224
 20
178.612210
 30
0.0
  0
LWPOLYLINE
  5
243
100
AcDbEntity
  8
Layer_1
 62
7
100
AcDbPolyline
 90
12
 70
0
 10
32.505038
 20
177.501770
 30
0.0
 10
32.759228
 20
177.565270
 30
0.0
 10
33.013411
 20
177.660470
 30
0.0
 10
33.235830
 20
177.882560
 30
0.0
 10
33.362921
 20
178.104640
 30
0.0
 10
33.426491
 20
178.358460
 30
0.0
 10
33.394741
 20
178.612280
 30
0.0
 10
33.299421
 20
178.834360
 30
0.0
 10
33.108780
 20
179.088180
 30
0.0
 10
32.886369
 20
179.246810
 30
0.0
 10
32.632179
 20
179.310310
 30
0.0
 10
32.505088
 20
179.310310
 30
0.0
  0
LWPOLYLINE
  5
244
100
AcDbEntity
  8
Layer_1
 62
7
100
AcDbPolyline
 90
12
 70
0
 10
27.198872
 20
171.156380
 30
0.0
 10
27.262442
 20
170.902570
 30
0.0
 10
27.421312
 20
170.648750
 30
0.0
 10
27.643723
 20
170.458390
 30
0.0
 10
27.897913
 20
170.394890
 30
0.0
 10
28.152096
 20
170.394890
 30
0.0
 10
28.406286
 20
170.458390
 30
0.0
 10
28.628697
 20
170.648750
 30
0.0
 10
28.819338
 20
170.870840
 30
0.0
 10
28.851088
 20
171.124660
 30
0.0
 10
28.851088
 20
171.378480
 30
0.0
 10
28.787518
 20
171.568840
 30
0.0
  0
LWPOLYLINE
  5
245
100
AcDbEntity
  8
Layer_1
 62
7
100
AcDbPolyline
 90
7
 70
0
 10
28.533356
 20
171.886100
 30
0.0
 10
28.279174
 20
172.013010
 30
0.0
 10
28.024984
 20
172.076510
 30
0.0
 10
27.802572
 20
172.013010
 30
0.0
 10
27.548382
 20
171.886100
 30
0.0
 10
27.325971
 20
171.664020
 30
0.0
 10
27.262401
 20
171.568820
 30
0.0
  0
LWPOLYLINE
  5
246
100
AcDbEntity
  8
Layer_1
 62
7
100
AcDbPolyline
 90
3
 70
0
 10
28.819317
 20
171.568840
 30
0.0
 10
28.628677
 20
171.822650
 30
0.0
 10
28.533357
 20
171.886150
 30
0.0
  0
LWPOLYLINE
  5
247
100
AcDbEntity
  8
Layer_1
 62
7
100
AcDbPolyline
 90
3
 70
0
 10
27.262422
 20
171.568840
 30
0.0
 10
27.198852
 20
171.346740
 30
0.0
 10
27.198852
 20
171.124660
 30
0.0
  0
LWPOLYLINE
  5
248
100
AcDbEntity
  8
Layer_1
 62
7
100
AcDbPolyline
 90
5
 70
0
 10
25.641976
 20
172.362010
 30
0.0
 10
25.673726
 20
171.886100
 30
0.0
 10
25.769046
 20
171.441930
 30
0.0
 10
25.991465
 20
170.966020
 30
0.0
 10
26.150327
 20
170.712210
 30
0.0
  0
LWPOLYLINE
  5
249
100
AcDbEntity
  8
Layer_1
 62
7
100
AcDbPolyline
 90
2
 70
0
 10
25.006505
 20
175.122250
 30
0.0
 10
24.752323
 20
175.407790
 30
0.0
  0
LWPOLYLINE
  5
24a
100
AcDbEntity
  8
Layer_1
 62
7
100
AcDbPolyline
 90
6
 70
0
 10
25.324245
 20
181.911810
 30
0.0
 10
25.133604
 20
181.943510
 30
0.0
 10
24.942964
 20
181.911810
 30
0.0
 10
24.784094
 20
181.816610
 30
0.0
 10
24.657003
 20
181.626250
 30
0.0
 10
24.625253
 20
181.435890
 30
0.0
  0
LWPOLYLINE
  5
24b
100
AcDbEntity
  8
Layer_1
 62
7
100
AcDbPolyline
 90
2
 70
0
 10
76.860756
 20
165.540720
 30
0.0
 10
76.638342
 20
165.540720
 30
0.0
  0
LWPOLYLINE
  5
24c
100
AcDbEntity
  8
Layer_1
 62
7
100
AcDbPolyline
 90
2
 70
0
 10
78.068146
 20
165.540720
 30
0.0
 10
77.845732
 20
165.540720
 30
0.0
  0
LWPOLYLINE
  5
24d
100
AcDbEntity
  8
Layer_1
 62
7
100
AcDbPolyline
 90
2
 70
0
 10
77.464451
 20
165.540720
 30
0.0
 10
77.242037
 20
165.540720
 30
0.0
  0
LWPOLYLINE
  5
24e
100
AcDbEntity
  8
Layer_1
 62
7
100
AcDbPolyline
 90
2
 70
0
 10
78.449427
 20
165.540720
 30
0.0
 10
78.671842
 20
165.540720
 30
0.0
  0
LWPOLYLINE
  5
24f
100
AcDbEntity
  8
Layer_1
 62
7
100
AcDbPolyline
 90
2
 70
0
 10
72.062967
 20
165.540720
 30
0.0
 10
71.872327
 20
165.540720
 30
0.0
  0
LWPOLYLINE
  5
250
100
AcDbEntity
  8
Layer_1
 62
7
100
AcDbPolyline
 90
2
 70
0
 10
71.268632
 20
165.540720
 30
0.0
 10
71.459272
 20
165.540720
 30
0.0
  0
LWPOLYLINE
  5
251
100
AcDbEntity
  8
Layer_1
 62
7
100
AcDbPolyline
 90
2
 70
0
 10
72.666663
 20
165.540720
 30
0.0
 10
72.476022
 20
165.540720
 30
0.0
  0
LWPOLYLINE
  5
252
100
AcDbEntity
  8
Layer_1
 62
7
100
AcDbPolyline
 90
2
 70
0
 10
73.079717
 20
165.540720
 30
0.0
 10
73.270358
 20
165.540720
 30
0.0
  0
LWPOLYLINE
  5
253
100
AcDbEntity
  8
Layer_1
 62
7
100
AcDbPolyline
 90
2
 70
0
 10
34.729176
 20
165.540720
 30
0.0
 10
34.919817
 20
165.540720
 30
0.0
  0
LWPOLYLINE
  5
254
100
AcDbEntity
  8
Layer_1
 62
7
100
AcDbPolyline
 90
2
 70
0
 10
35.301098
 20
165.540720
 30
0.0
 10
35.523517
 20
165.540720
 30
0.0
  0
LWPOLYLINE
  5
255
100
AcDbEntity
  8
Layer_1
 62
7
100
AcDbPolyline
 90
2
 70
0
 10
36.127210
 20
165.540720
 30
0.0
 10
35.904798
 20
165.540720
 30
0.0
  0
LWPOLYLINE
  5
256
100
AcDbEntity
  8
Layer_1
 62
7
100
AcDbPolyline
 90
2
 70
0
 10
36.730902
 20
165.540720
 30
0.0
 10
36.508491
 20
165.540720
 30
0.0
  0
LWPOLYLINE
  5
257
100
AcDbEntity
  8
Layer_1
 62
7
100
AcDbPolyline
 90
2
 70
0
 10
108.602420
 20
165.540720
 30
0.0
 10
108.411780
 20
165.540720
 30
0.0
  0
LWPOLYLINE
  5
258
100
AcDbEntity
  8
Layer_1
 62
7
100
AcDbPolyline
 90
2
 70
0
 10
109.015470
 20
165.540720
 30
0.0
 10
109.206110
 20
165.540720
 30
0.0
  0
LWPOLYLINE
  5
259
100
AcDbEntity
  8
Layer_1
 62
7
100
AcDbPolyline
 90
2
 70
0
 10
109.587390
 20
165.540720
 30
0.0
 10
109.809800
 20
165.540720
 30
0.0
  0
LWPOLYLINE
  5
25a
100
AcDbEntity
  8
Layer_1
 62
7
100
AcDbPolyline
 90
2
 70
0
 10
110.191080
 20
165.540720
 30
0.0
 10
110.413500
 20
165.540720
 30
0.0
  0
LWPOLYLINE
  5
25b
100
AcDbEntity
  8
Layer_1
 62
7
100
AcDbPolyline
 90
4
 70
0
 10
114.798240
 20
176.105780
 30
0.0
 10
114.798240
 20
176.518240
 30
0.0
 10
114.798240
 20
177.311410
 30
0.0
 10
112.256360
 20
177.311410
 30
0.0
  0
LWPOLYLINE
  5
25c
100
AcDbEntity
  8
Layer_1
 62
7
100
AcDbPolyline
 90
2
 70
0
 10
118.102670
 20
176.105780
 30
0.0
 10
118.166270
 20
176.105780
 30
0.0
  0
LWPOLYLINE
  5
25d
100
AcDbEntity
  8
Layer_1
 62
7
100
AcDbPolyline
 90
3
 70
0
 10
117.975580
 20
176.105780
 30
0.0
 10
117.308340
 20
176.105780
 30
0.0
 10
116.704640
 20
176.105780
 30
0.0
  0
LWPOLYLINE
  5
25e
100
AcDbEntity
  8
Layer_1
 62
7
100
AcDbPolyline
 90
2
 70
0
 10
117.975580
 20
176.105780
 30
0.0
 10
118.102670
 20
176.105780
 30
0.0
  0
LWPOLYLINE
  5
25f
100
AcDbEntity
  8
Layer_1
 62
7
100
AcDbPolyline
 90
2
 70
0
 10
76.447701
 20
161.511400
 30
0.0
 10
76.002873
 20
161.511400
 30
0.0
  0
LWPOLYLINE
  5
260
100
AcDbEntity
  8
Layer_1
 62
7
100
AcDbPolyline
 90
2
 70
0
 10
76.447701
 20
161.511400
 30
0.0
 10
76.447701
 20
165.540720
 30
0.0
  0
LWPOLYLINE
  5
261
100
AcDbEntity
  8
Layer_1
 62
7
100
AcDbPolyline
 90
3
 70
0
 10
76.638342
 20
165.540720
 30
0.0
 10
76.860756
 20
165.540720
 30
0.0
 10
77.051397
 20
165.540720
 30
0.0
  0
LWPOLYLINE
  5
262
100
AcDbEntity
  8
Layer_1
 62
7
100
AcDbPolyline
 90
2
 70
0
 10
76.638342
 20
165.540720
 30
0.0
 10
76.447701
 20
165.540720
 30
0.0
  0
LWPOLYLINE
  5
263
100
AcDbEntity
  8
Layer_1
 62
7
100
AcDbPolyline
 90
2
 70
0
 10
76.002873
 20
165.540720
 30
0.0
 10
76.002873
 20
161.511400
 30
0.0
  0
LWPOLYLINE
  5
264
100
AcDbEntity
  8
Layer_1
 62
7
100
AcDbPolyline
 90
2
 70
0
 10
77.655092
 20
165.540720
 30
0.0
 10
77.845732
 20
165.540720
 30
0.0
  0
LWPOLYLINE
  5
265
100
AcDbEntity
  8
Layer_1
 62
7
100
AcDbPolyline
 90
2
 70
0
 10
78.258787
 20
165.540720
 30
0.0
 10
78.449427
 20
165.540720
 30
0.0
  0
LWPOLYLINE
  5
266
100
AcDbEntity
  8
Layer_1
 62
7
100
AcDbPolyline
 90
3
 70
0
 10
78.258787
 20
165.540720
 30
0.0
 10
78.068146
 20
165.540720
 30
0.0
 10
77.845732
 20
165.540720
 30
0.0
  0
LWPOLYLINE
  5
267
100
AcDbEntity
  8
Layer_1
 62
7
100
AcDbPolyline
 90
2
 70
0
 10
78.449427
 20
165.540720
 30
0.0
 10
78.671842
 20
165.540720
 30
0.0
  0
LWPOLYLINE
  5
268
100
AcDbEntity
  8
Layer_1
 62
7
100
AcDbPolyline
 90
2
 70
0
 10
77.655092
 20
165.540720
 30
0.0
 10
77.464451
 20
165.540720
 30
0.0
  0
LWPOLYLINE
  5
269
100
AcDbEntity
  8
Layer_1
 62
7
100
AcDbPolyline
 90
2
 70
0
 10
77.242037
 20
165.540720
 30
0.0
 10
77.051397
 20
165.540720
 30
0.0
  0
LWPOLYLINE
  5
26a
100
AcDbEntity
  8
Layer_1
 62
7
100
AcDbPolyline
 90
2
 70
0
 10
77.242037
 20
165.540720
 30
0.0
 10
77.464451
 20
165.540720
 30
0.0
  0
LWPOLYLINE
  5
26b
100
AcDbEntity
  8
Layer_1
 62
7
100
AcDbPolyline
 90
3
 70
0
 10
76.447701
 20
165.540720
 30
0.0
 10
73.270358
 20
165.540720
 30
0.0
 10
73.079717
 20
165.540720
 30
0.0
  0
LWPOLYLINE
  5
26c
100
AcDbEntity
  8
Layer_1
 62
7
100
AcDbPolyline
 90
3
 70
0
 10
66.883898
 20
165.540720
 30
0.0
 10
66.470843
 20
165.540720
 30
0.0
 10
66.439073
 20
165.540720
 30
0.0
  0
LWPOLYLINE
  5
26d
100
AcDbEntity
  8
Layer_1
 62
7
100
AcDbPolyline
 90
4
 70
0
 10
67.074538
 20
165.540720
 30
0.0
 10
67.487593
 20
165.540720
 30
0.0
 10
67.678233
 20
165.540720
 30
0.0
 10
68.091288
 20
165.540720
 30
0.0
  0
LWPOLYLINE
  5
26e
100
AcDbEntity
  8
Layer_1
 62
7
100
AcDbPolyline
 90
2
 70
0
 10
68.218382
 20
165.540720
 30
0.0
 10
71.268632
 20
165.540720
 30
0.0
  0
LWPOLYLINE
  5
26f
100
AcDbEntity
  8
Layer_1
 62
7
100
AcDbPolyline
 90
2
 70
0
 10
68.218382
 20
165.540720
 30
0.0
 10
68.091288
 20
165.540720
 30
0.0
  0
LWPOLYLINE
  5
270
100
AcDbEntity
  8
Layer_1
 62
7
100
AcDbPolyline
 90
2
 70
0
 10
72.857303
 20
165.540720
 30
0.0
 10
73.079717
 20
165.540720
 30
0.0
  0
LWPOLYLINE
  5
271
100
AcDbEntity
  8
Layer_1
 62
7
100
AcDbPolyline
 90
2
 70
0
 10
72.476022
 20
165.540720
 30
0.0
 10
72.062967
 20
165.540720
 30
0.0
  0
LWPOLYLINE
  5
272
100
AcDbEntity
  8
Layer_1
 62
7
100
AcDbPolyline
 90
2
 70
0
 10
71.872327
 20
165.540720
 30
0.0
 10
71.459272
 20
165.540720
 30
0.0
  0
LWPOLYLINE
  5
273
100
AcDbEntity
  8
Layer_1
 62
7
100
AcDbPolyline
 90
2
 70
0
 10
71.872327
 20
165.540720
 30
0.0
 10
72.062967
 20
165.540720
 30
0.0
  0
LWPOLYLINE
  5
274
100
AcDbEntity
  8
Layer_1
 62
7
100
AcDbPolyline
 90
2
 70
0
 10
72.666663
 20
165.540720
 30
0.0
 10
72.857303
 20
165.540720
 30
0.0
  0
LWPOLYLINE
  5
275
100
AcDbEntity
  8
Layer_1
 62
7
100
AcDbPolyline
 90
2
 70
0
 10
72.666663
 20
165.540720
 30
0.0
 10
72.476022
 20
165.540720
 30
0.0
  0
LWPOLYLINE
  5
276
100
AcDbEntity
  8
Layer_1
 62
7
100
AcDbPolyline
 90
2
 70
0
 10
71.459272
 20
165.540720
 30
0.0
 10
71.268632
 20
165.540720
 30
0.0
  0
LWPOLYLINE
  5
277
100
AcDbEntity
  8
Layer_1
 62
7
100
AcDbPolyline
 90
2
 70
0
 10
67.074538
 20
165.540720
 30
0.0
 10
66.883898
 20
165.540720
 30
0.0
  0
LWPOLYLINE
  5
278
100
AcDbEntity
  8
Layer_1
 62
7
100
AcDbPolyline
 90
2
 70
0
 10
71.872327
 20
172.013010
 30
0.0
 10
72.062967
 20
172.013010
 30
0.0
  0
LWPOLYLINE
  5
279
100
AcDbEntity
  8
Layer_1
 62
7
100
AcDbPolyline
 90
2
 70
0
 10
71.459272
 20
172.013010
 30
0.0
 10
71.268632
 20
172.013010
 30
0.0
  0
LWPOLYLINE
  5
27a
100
AcDbEntity
  8
Layer_1
 62
7
100
AcDbPolyline
 90
2
 70
0
 10
71.459272
 20
172.013010
 30
0.0
 10
71.872327
 20
172.013010
 30
0.0
  0
LWPOLYLINE
  5
27b
100
AcDbEntity
  8
Layer_1
 62
7
100
AcDbPolyline
 90
2
 70
0
 10
72.476022
 20
172.013010
 30
0.0
 10
72.666663
 20
172.013010
 30
0.0
  0
LWPOLYLINE
  5
27c
100
AcDbEntity
  8
Layer_1
 62
7
100
AcDbPolyline
 90
2
 70
0
 10
73.079717
 20
172.013010
 30
0.0
 10
73.270358
 20
172.013010
 30
0.0
  0
LWPOLYLINE
  5
27d
100
AcDbEntity
  8
Layer_1
 62
7
100
AcDbPolyline
 90
2
 70
0
 10
72.476022
 20
172.013010
 30
0.0
 10
72.062967
 20
172.013010
 30
0.0
  0
LWPOLYLINE
  5
27e
100
AcDbEntity
  8
Layer_1
 62
7
100
AcDbPolyline
 90
2
 70
0
 10
72.666663
 20
172.013010
 30
0.0
 10
73.079717
 20
172.013010
 30
0.0
  0
LWPOLYLINE
  5
27f
100
AcDbEntity
  8
Layer_1
 62
7
100
AcDbPolyline
 90
2
 70
0
 10
77.845732
 20
172.013010
 30
0.0
 10
78.068146
 20
172.013010
 30
0.0
  0
LWPOLYLINE
  5
280
100
AcDbEntity
  8
Layer_1
 62
7
100
AcDbPolyline
 90
2
 70
0
 10
78.449427
 20
172.013010
 30
0.0
 10
78.671842
 20
172.013010
 30
0.0
  0
LWPOLYLINE
  5
281
100
AcDbEntity
  8
Layer_1
 62
7
100
AcDbPolyline
 90
2
 70
0
 10
78.449427
 20
172.013010
 30
0.0
 10
78.068146
 20
172.013010
 30
0.0
  0
LWPOLYLINE
  5
282
100
AcDbEntity
  8
Layer_1
 62
7
100
AcDbPolyline
 90
2
 70
0
 10
73.460998
 20
172.013010
 30
0.0
 10
73.460998
 20
174.075260
 30
0.0
  0
LWPOLYLINE
  5
283
100
AcDbEntity
  8
Layer_1
 62
7
100
AcDbPolyline
 90
2
 70
0
 10
73.905827
 20
174.075260
 30
0.0
 10
73.905827
 20
172.013010
 30
0.0
  0
LWPOLYLINE
  5
284
100
AcDbEntity
  8
Layer_1
 62
7
100
AcDbPolyline
 90
2
 70
0
 10
77.242037
 20
172.013010
 30
0.0
 10
77.464451
 20
172.013010
 30
0.0
  0
LWPOLYLINE
  5
285
100
AcDbEntity
  8
Layer_1
 62
7
100
AcDbPolyline
 90
3
 70
0
 10
76.860756
 20
172.013010
 30
0.0
 10
76.638342
 20
172.013010
 30
0.0
 10
73.270358
 20
172.013010
 30
0.0
  0
LWPOLYLINE
  5
286
100
AcDbEntity
  8
Layer_1
 62
7
100
AcDbPolyline
 90
2
 70
0
 10
77.464451
 20
172.013010
 30
0.0
 10
77.845732
 20
172.013010
 30
0.0
  0
LWPOLYLINE
  5
287
100
AcDbEntity
  8
Layer_1
 62
7
100
AcDbPolyline
 90
2
 70
0
 10
77.242037
 20
172.013010
 30
0.0
 10
76.860756
 20
172.013010
 30
0.0
  0
LWPOLYLINE
  5
288
100
AcDbEntity
  8
Layer_1
 62
7
100
AcDbPolyline
 90
2
 70
0
 10
73.905827
 20
174.075260
 30
0.0
 10
73.460998
 20
174.075260
 30
0.0
  0
LWPOLYLINE
  5
289
100
AcDbEntity
  8
Layer_1
 62
7
100
AcDbPolyline
 90
2
 70
0
 10
76.002873
 20
174.075260
 30
0.0
 10
76.002873
 20
172.013010
 30
0.0
  0
LWPOLYLINE
  5
28a
100
AcDbEntity
  8
Layer_1
 62
7
100
AcDbPolyline
 90
2
 70
0
 10
76.447701
 20
172.013010
 30
0.0
 10
76.447701
 20
174.075260
 30
0.0
  0
LWPOLYLINE
  5
28b
100
AcDbEntity
  8
Layer_1
 62
7
100
AcDbPolyline
 90
2
 70
0
 10
76.002873
 20
174.075260
 30
0.0
 10
75.971103
 20
174.075260
 30
0.0
  0
LWPOLYLINE
  5
28c
100
AcDbEntity
  8
Layer_1
 62
7
100
AcDbPolyline
 90
2
 70
0
 10
76.002873
 20
174.075260
 30
0.0
 10
76.447701
 20
174.075260
 30
0.0
  0
LWPOLYLINE
  5
28d
100
AcDbEntity
  8
Layer_1
 62
7
100
AcDbPolyline
 90
2
 70
0
 10
36.730902
 20
172.013010
 30
0.0
 10
36.508491
 20
172.013010
 30
0.0
  0
LWPOLYLINE
  5
28e
100
AcDbEntity
  8
Layer_1
 62
7
100
AcDbPolyline
 90
2
 70
0
 10
36.127210
 20
172.013010
 30
0.0
 10
35.904798
 20
172.013010
 30
0.0
  0
LWPOLYLINE
  5
28f
100
AcDbEntity
  8
Layer_1
 62
7
100
AcDbPolyline
 90
2
 70
0
 10
73.905827
 20
174.075260
 30
0.0
 10
73.937597
 20
174.075260
 30
0.0
  0
LWPOLYLINE
  5
290
100
AcDbEntity
  8
Layer_1
 62
7
100
AcDbPolyline
 90
2
 70
0
 10
35.523517
 20
172.013010
 30
0.0
 10
35.301098
 20
172.013010
 30
0.0
  0
LWPOLYLINE
  5
291
100
AcDbEntity
  8
Layer_1
 62
7
100
AcDbPolyline
 90
2
 70
0
 10
34.919817
 20
172.013010
 30
0.0
 10
34.729176
 20
172.013010
 30
0.0
  0
LWPOLYLINE
  5
292
100
AcDbEntity
  8
Layer_1
 62
7
100
AcDbPolyline
 90
2
 70
0
 10
34.919817
 20
172.013010
 30
0.0
 10
35.301098
 20
172.013010
 30
0.0
  0
LWPOLYLINE
  5
293
100
AcDbEntity
  8
Layer_1
 62
7
100
AcDbPolyline
 90
2
 70
0
 10
32.918090
 20
172.013010
 30
0.0
 10
32.886340
 20
177.311410
 30
0.0
  0
LWPOLYLINE
  5
294
100
AcDbEntity
  8
Layer_1
 62
7
100
AcDbPolyline
 90
2
 70
0
 10
34.125483
 20
172.013010
 30
0.0
 10
34.729176
 20
172.013010
 30
0.0
  0
LWPOLYLINE
  5
295
100
AcDbEntity
  8
Layer_1
 62
7
100
AcDbPolyline
 90
2
 70
0
 10
36.127210
 20
172.013010
 30
0.0
 10
36.508491
 20
172.013010
 30
0.0
  0
LWPOLYLINE
  5
296
100
AcDbEntity
  8
Layer_1
 62
7
100
AcDbPolyline
 90
2
 70
0
 10
35.904798
 20
172.013010
 30
0.0
 10
35.523517
 20
172.013010
 30
0.0
  0
LWPOLYLINE
  5
297
100
AcDbEntity
  8
Layer_1
 62
7
100
AcDbPolyline
 90
2
 70
0
 10
36.730902
 20
172.013010
 30
0.0
 10
71.268632
 20
172.013010
 30
0.0
  0
LWPOLYLINE
  5
298
100
AcDbEntity
  8
Layer_1
 62
7
100
AcDbPolyline
 90
2
 70
0
 10
30.312671
 20
176.105780
 30
0.0
 10
30.312671
 20
176.518240
 30
0.0
  0
LWPOLYLINE
  5
299
100
AcDbEntity
  8
Layer_1
 62
7
100
AcDbPolyline
 90
2
 70
0
 10
28.438036
 20
176.105780
 30
0.0
 10
27.834343
 20
176.105780
 30
0.0
  0
LWPOLYLINE
  5
29a
100
AcDbEntity
  8
Layer_1
 62
7
100
AcDbPolyline
 90
2
 70
0
 10
30.312671
 20
176.518240
 30
0.0
 10
30.312671
 20
177.311410
 30
0.0
  0
LWPOLYLINE
  5
29b
100
AcDbEntity
  8
Layer_1
 62
7
100
AcDbPolyline
 90
2
 70
0
 10
108.411780
 20
172.013010
 30
0.0
 10
108.602420
 20
172.013010
 30
0.0
  0
LWPOLYLINE
  5
29c
100
AcDbEntity
  8
Layer_1
 62
7
100
AcDbPolyline
 90
2
 70
0
 10
109.015470
 20
172.013010
 30
0.0
 10
109.206110
 20
172.013010
 30
0.0
  0
LWPOLYLINE
  5
29d
100
AcDbEntity
  8
Layer_1
 62
7
100
AcDbPolyline
 90
2
 70
0
 10
110.191080
 20
172.013010
 30
0.0
 10
110.413500
 20
172.013010
 30
0.0
  0
LWPOLYLINE
  5
29e
100
AcDbEntity
  8
Layer_1
 62
7
100
AcDbPolyline
 90
3
 70
0
 10
109.809800
 20
172.013010
 30
0.0
 10
109.587390
 20
172.013010
 30
0.0
 10
109.206110
 20
172.013010
 30
0.0
  0
LWPOLYLINE
  5
29f
100
AcDbEntity
  8
Layer_1
 62
7
100
AcDbPolyline
 90
2
 70
0
 10
109.015470
 20
172.013010
 30
0.0
 10
108.602420
 20
172.013010
 30
0.0
  0
LWPOLYLINE
  5
2a0
100
AcDbEntity
  8
Layer_1
 62
7
100
AcDbPolyline
 90
2
 70
0
 10
109.809800
 20
172.013010
 30
0.0
 10
110.191080
 20
172.013010
 30
0.0
  0
LWPOLYLINE
  5
2a1
100
AcDbEntity
  8
Layer_1
 62
7
100
AcDbPolyline
 90
2
 70
0
 10
111.017200
 20
172.013010
 30
0.0
 10
112.192810
 20
172.013010
 30
0.0
  0
LWPOLYLINE
  5
2a2
100
AcDbEntity
  8
Layer_1
 62
7
100
AcDbPolyline
 90
2
 70
0
 10
111.017200
 20
172.013010
 30
0.0
 10
110.413500
 20
172.013010
 30
0.0
  0
LWPOLYLINE
  5
2a3
100
AcDbEntity
  8
Layer_1
 62
7
100
AcDbPolyline
 90
2
 70
0
 10
112.192810
 20
172.013010
 30
0.0
 10
112.256410
 20
177.311410
 30
0.0
  0
LWPOLYLINE
  5
2a4
100
AcDbEntity
  8
Layer_1
 62
7
100
AcDbPolyline
 90
2
 70
0
 10
108.411780
 20
172.013010
 30
0.0
 10
78.671842
 20
172.013010
 30
0.0
  0
LWPOLYLINE
  5
2a5
100
AcDbEntity
  8
Layer_1
 62
7
100
AcDbPolyline
 90
2
 70
0
 10
114.798240
 20
176.105780
 30
0.0
 10
116.704640
 20
176.105780
 30
0.0
  0
LWPOLYLINE
  5
2a6
100
AcDbEntity
  8
Layer_1
 62
7
100
AcDbPolyline
 90
2
 70
0
 10
118.166220
 20
176.105780
 30
0.0
 10
118.483950
 20
176.105780
 30
0.0
  0
LWPOLYLINE
  5
2a7
100
AcDbEntity
  8
Layer_1
 62
7
100
AcDbPolyline
 90
2
 70
0
 10
108.221140
 20
165.540720
 30
0.0
 10
78.671842
 20
165.540720
 30
0.0
  0
LWPOLYLINE
  5
2a8
100
AcDbEntity
  8
Layer_1
 62
7
100
AcDbPolyline
 90
2
 70
0
 10
118.166220
 20
165.540720
 30
0.0
 10
118.166220
 20
161.511400
 30
0.0
  0
LWPOLYLINE
  5
2a9
100
AcDbEntity
  8
Layer_1
 62
7
100
AcDbPolyline
 90
2
 70
0
 10
33.903072
 20
165.540720
 30
0.0
 10
33.521791
 20
165.540720
 30
0.0
  0
LWPOLYLINE
  5
2aa
100
AcDbEntity
  8
Layer_1
 62
7
100
AcDbPolyline
 90
2
 70
0
 10
118.166220
 20
161.511400
 30
0.0
 10
118.992330
 20
161.511400
 30
0.0
  0
LWPOLYLINE
  5
2ab
100
AcDbEntity
  8
Layer_1
 62
7
100
AcDbPolyline
 90
2
 70
0
 10
35.301098
 20
165.540720
 30
0.0
 10
35.142236
 20
165.540720
 30
0.0
  0
LWPOLYLINE
  5
2ac
100
AcDbEntity
  8
Layer_1
 62
7
100
AcDbPolyline
 90
2
 70
0
 10
34.919817
 20
165.540720
 30
0.0
 10
34.729176
 20
165.540720
 30
0.0
  0
LWPOLYLINE
  5
2ad
100
AcDbEntity
  8
Layer_1
 62
7
100
AcDbPolyline
 90
2
 70
0
 10
34.919817
 20
165.540720
 30
0.0
 10
35.142236
 20
165.540720
 30
0.0
  0
LWPOLYLINE
  5
2ae
100
AcDbEntity
  8
Layer_1
 62
7
100
AcDbPolyline
 90
2
 70
0
 10
34.729176
 20
165.540720
 30
0.0
 10
34.538536
 20
165.540720
 30
0.0
  0
LWPOLYLINE
  5
2af
100
AcDbEntity
  8
Layer_1
 62
7
100
AcDbPolyline
 90
2
 70
0
 10
35.523517
 20
165.540720
 30
0.0
 10
35.714158
 20
165.540720
 30
0.0
  0
LWPOLYLINE
  5
2b0
100
AcDbEntity
  8
Layer_1
 62
7
100
AcDbPolyline
 90
2
 70
0
 10
35.523517
 20
165.540720
 30
0.0
 10
35.301098
 20
165.540720
 30
0.0
  0
LWPOLYLINE
  5
2b1
100
AcDbEntity
  8
Layer_1
 62
7
100
AcDbPolyline
 90
4
 70
0
 10
35.714158
 20
165.540720
 30
0.0
 10
35.904798
 20
165.540720
 30
0.0
 10
36.127210
 20
165.540720
 30
0.0
 10
36.317850
 20
165.540720
 30
0.0
  0
LWPOLYLINE
  5
2b2
100
AcDbEntity
  8
Layer_1
 62
7
100
AcDbPolyline
 90
2
 70
0
 10
36.730902
 20
165.540720
 30
0.0
 10
66.439069
 20
165.540720
 30
0.0
  0
LWPOLYLINE
  5
2b3
100
AcDbEntity
  8
Layer_1
 62
7
100
AcDbPolyline
 90
2
 70
0
 10
36.508491
 20
165.540720
 30
0.0
 10
36.317850
 20
165.540720
 30
0.0
  0
LWPOLYLINE
  5
2b4
100
AcDbEntity
  8
Layer_1
 62
7
100
AcDbPolyline
 90
2
 70
0
 10
36.508491
 20
165.540720
 30
0.0
 10
36.730902
 20
165.540720
 30
0.0
  0
LWPOLYLINE
  5
2b5
100
AcDbEntity
  8
Layer_1
 62
7
100
AcDbPolyline
 90
2
 70
0
 10
33.903072
 20
165.540720
 30
0.0
 10
34.125483
 20
172.013010
 30
0.0
  0
LWPOLYLINE
  5
2b6
100
AcDbEntity
  8
Layer_1
 62
7
100
AcDbPolyline
 90
2
 70
0
 10
33.903072
 20
165.540720
 30
0.0
 10
34.538536
 20
165.540720
 30
0.0
  0
LWPOLYLINE
  5
2b7
100
AcDbEntity
  8
Layer_1
 62
7
100
AcDbPolyline
 90
2
 70
0
 10
26.944690
 20
176.105780
 30
0.0
 10
26.626950
 20
176.105780
 30
0.0
  0
LWPOLYLINE
  5
2b8
100
AcDbEntity
  8
Layer_1
 62
7
100
AcDbPolyline
 90
2
 70
0
 10
26.944690
 20
176.105780
 30
0.0
 10
27.008260
 20
176.105780
 30
0.0
  0
LWPOLYLINE
  5
2b9
100
AcDbEntity
  8
Layer_1
 62
7
100
AcDbPolyline
 90
2
 70
0
 10
28.438036
 20
176.105780
 30
0.0
 10
30.312671
 20
176.105780
 30
0.0
  0
LWPOLYLINE
  5
2ba
100
AcDbEntity
  8
Layer_1
 62
7
100
AcDbPolyline
 90
3
 70
0
 10
27.834343
 20
176.105780
 30
0.0
 10
27.135330
 20
176.105780
 30
0.0
 10
27.008232
 20
176.105780
 30
0.0
  0
LWPOLYLINE
  5
2bb
100
AcDbEntity
  8
Layer_1
 62
7
100
AcDbPolyline
 90
2
 70
0
 10
111.589120
 20
165.540720
 30
0.0
 10
111.589120
 20
161.511400
 30
0.0
  0
LWPOLYLINE
  5
2bc
100
AcDbEntity
  8
Layer_1
 62
7
100
AcDbPolyline
 90
2
 70
0
 10
116.005620
 20
161.511400
 30
0.0
 10
116.005620
 20
165.540720
 30
0.0
  0
LWPOLYLINE
  5
2bd
100
AcDbEntity
  8
Layer_1
 62
7
100
AcDbPolyline
 90
2
 70
0
 10
116.005620
 20
161.511400
 30
0.0
 10
111.589120
 20
161.511400
 30
0.0
  0
LWPOLYLINE
  5
2be
100
AcDbEntity
  8
Layer_1
 62
7
100
AcDbPolyline
 90
2
 70
0
 10
116.005620
 20
161.511400
 30
0.0
 10
118.166220
 20
161.511400
 30
0.0
  0
LWPOLYLINE
  5
2bf
100
AcDbEntity
  8
Layer_1
 62
7
100
AcDbPolyline
 90
2
 70
0
 10
29.105278
 20
165.540720
 30
0.0
 10
28.914638
 20
171.251560
 30
0.0
  0
LWPOLYLINE
  5
2c0
100
AcDbEntity
  8
Layer_1
 62
7
100
AcDbPolyline
 90
2
 70
0
 10
33.521791
 20
165.540720
 30
0.0
 10
33.521791
 20
161.511400
 30
0.0
  0
LWPOLYLINE
  5
2c1
100
AcDbEntity
  8
Layer_1
 62
7
100
AcDbPolyline
 90
2
 70
0
 10
26.150349
 20
161.511400
 30
0.0
 10
26.150349
 20
175.629880
 30
0.0
  0
LWPOLYLINE
  5
2c2
100
AcDbEntity
  8
Layer_1
 62
7
100
AcDbPolyline
 90
2
 70
0
 10
29.105278
 20
165.540720
 30
0.0
 10
29.105278
 20
161.511400
 30
0.0
  0
LWPOLYLINE
  5
2c3
100
AcDbEntity
  8
Layer_1
 62
7
100
AcDbPolyline
 90
2
 70
0
 10
26.976461
 20
161.511400
 30
0.0
 10
26.976461
 20
165.540720
 30
0.0
  0
LWPOLYLINE
  5
2c4
100
AcDbEntity
  8
Layer_1
 62
7
100
AcDbPolyline
 90
2
 70
0
 10
26.976461
 20
161.511400
 30
0.0
 10
29.105278
 20
161.511400
 30
0.0
  0
LWPOLYLINE
  5
2c5
100
AcDbEntity
  8
Layer_1
 62
7
100
AcDbPolyline
 90
2
 70
0
 10
26.976461
 20
161.511400
 30
0.0
 10
26.150349
 20
161.511400
 30
0.0
  0
LWPOLYLINE
  5
2c6
100
AcDbEntity
  8
Layer_1
 62
7
100
AcDbPolyline
 90
2
 70
0
 10
29.105278
 20
161.511400
 30
0.0
 10
33.521791
 20
161.511400
 30
0.0
  0
LWPOLYLINE
  5
2c7
100
AcDbEntity
  8
Layer_1
 62
7
100
AcDbPolyline
 90
2
 70
0
 10
73.905827
 20
161.511400
 30
0.0
 10
73.905827
 20
165.540720
 30
0.0
  0
LWPOLYLINE
  5
2c8
100
AcDbEntity
  8
Layer_1
 62
7
100
AcDbPolyline
 90
2
 70
0
 10
73.460998
 20
165.540720
 30
0.0
 10
73.460998
 20
161.511400
 30
0.0
  0
LWPOLYLINE
  5
2c9
100
AcDbEntity
  8
Layer_1
 62
7
100
AcDbPolyline
 90
2
 70
0
 10
75.971100
 20
161.511400
 30
0.0
 10
76.002870
 20
161.511400
 30
0.0
  0
LWPOLYLINE
  5
2ca
100
AcDbEntity
  8
Layer_1
 62
7
100
AcDbPolyline
 90
3
 70
0
 10
73.937600
 20
161.511400
 30
0.0
 10
73.905830
 20
161.511400
 30
0.0
 10
73.460998
 20
161.511400
 30
0.0
  0
LWPOLYLINE
  5
2cb
100
AcDbEntity
  8
Layer_1
 62
7
100
AcDbPolyline
 90
2
 70
0
 10
26.976461
 20
165.540720
 30
0.0
 10
27.135330
 20
171.251560
 30
0.0
  0
LWPOLYLINE
  5
2cc
100
AcDbEntity
  8
Layer_1
 62
7
100
AcDbPolyline
 90
2
 70
0
 10
32.918090
 20
172.013010
 30
0.0
 10
34.125483
 20
172.013010
 30
0.0
  0
LWPOLYLINE
  5
2cd
100
AcDbEntity
  8
Layer_1
 62
7
100
AcDbPolyline
 90
2
 70
0
 10
32.886319
 20
177.311410
 30
0.0
 10
30.312671
 20
177.311410
 30
0.0
  0
LWPOLYLINE
  5
2ce
100
AcDbEntity
  8
Layer_1
 62
7
100
AcDbPolyline
 90
2
 70
0
 10
117.975580
 20
171.251560
 30
0.0
 10
118.166220
 20
165.540720
 30
0.0
  0
LWPOLYLINE
  5
2cf
100
AcDbEntity
  8
Layer_1
 62
7
100
AcDbPolyline
 90
2
 70
0
 10
116.005620
 20
165.540720
 30
0.0
 10
116.196260
 20
171.251560
 30
0.0
  0
LWPOLYLINE
  5
2d0
100
AcDbEntity
  8
Layer_1
 62
7
100
AcDbPolyline
 90
2
 70
0
 10
118.992330
 20
175.629880
 30
0.0
 10
118.992330
 20
161.511400
 30
0.0
  0
LWPOLYLINE
  5
2d1
100
AcDbEntity
  8
Layer_1
 62
7
100
AcDbPolyline
 90
2
 70
0
 10
108.411780
 20
165.540720
 30
0.0
 10
108.221140
 20
165.540720
 30
0.0
  0
LWPOLYLINE
  5
2d2
100
AcDbEntity
  8
Layer_1
 62
7
100
AcDbPolyline
 90
10
 70
0
 10
108.411780
 20
165.540720
 30
0.0
 10
108.602420
 20
165.540720
 30
0.0
 10
108.793060
 20
165.540720
 30
0.0
 10
109.015470
 20
165.540720
 30
0.0
 10
109.206110
 20
165.540720
 30
0.0
 10
109.396750
 20
165.540720
 30
0.0
 10
109.587390
 20
165.540720
 30
0.0
 10
109.809800
 20
165.540720
 30
0.0
 10
110.000440
 20
165.540720
 30
0.0
 10
110.159310
 20
165.540720
 30
0.0
  0
LWPOLYLINE
  5
2d3
100
AcDbEntity
  8
Layer_1
 62
7
100
AcDbPolyline
 90
2
 70
0
 10
111.239610
 20
165.540720
 30
0.0
 10
111.017200
 20
172.013010
 30
0.0
  0
LWPOLYLINE
  5
2d4
100
AcDbEntity
  8
Layer_1
 62
7
100
AcDbPolyline
 90
2
 70
0
 10
111.239610
 20
165.540720
 30
0.0
 10
110.413500
 20
165.540720
 30
0.0
  0
LWPOLYLINE
  5
2d5
100
AcDbEntity
  8
Layer_1
 62
7
100
AcDbPolyline
 90
3
 70
0
 10
110.191080
 20
165.540720
 30
0.0
 10
110.191080
 20
165.540720
 30
0.0
 10
110.413500
 20
165.540720
 30
0.0
  0
LWPOLYLINE
  5
2d6
100
AcDbEntity
  8
Layer_1
 62
7
100
AcDbPolyline
 90
2
 70
0
 10
111.239610
 20
165.540720
 30
0.0
 10
111.589120
 20
165.540720
 30
0.0
  0
LWPOLYLINE
  5
2d7
100
AcDbEntity
  8
Layer_1
 62
7
100
AcDbPolyline
 90
2
 70
0
 10
110.191080
 20
165.540720
 30
0.0
 10
110.159380
 20
165.540720
 30
0.0
  0
LWPOLYLINE
  5
2d8
100
AcDbEntity
  8
Layer_1
 62
7
100
AcDbPolyline
 90
22
 70
1
 10
117.975580
 20
171.219840
 30
0.0
 10
117.943880
 20
171.473660
 30
0.0
 10
117.848580
 20
171.695740
 30
0.0
 10
117.626170
 20
171.917830
 30
0.0
 10
117.371980
 20
172.076470
 30
0.0
 10
117.117790
 20
172.108170
 30
0.0
 10
116.895380
 20
172.076470
 30
0.0
 10
116.641190
 20
171.981270
 30
0.0
 10
116.387000
 20
171.790900
 30
0.0
 10
116.259910
 20
171.537090
 30
0.0
 10
116.196310
 20
171.283280
 30
0.0
 10
116.196310
 20
171.219780
 30
0.0
 10
116.228060
 20
170.966020
 30
0.0
 10
116.323360
 20
170.743940
 30
0.0
 10
116.577550
 20
170.521850
 30
0.0
 10
116.799960
 20
170.363210
 30
0.0
 10
117.054150
 20
170.331510
 30
0.0
 10
117.308340
 20
170.363210
 30
0.0
 10
117.530760
 20
170.458410
 30
0.0
 10
117.784950
 20
170.648770
 30
0.0
 10
117.912040
 20
170.902590
 30
0.0
 10
117.975640
 20
171.156400
 30
0.0
  0
LWPOLYLINE
  5
2d9
100
AcDbEntity
  8
Layer_1
 62
7
100
AcDbPolyline
 90
5
 70
0
 10
118.992330
 20
175.629880
 30
0.0
 10
118.960530
 20
175.820240
 30
0.0
 10
118.833430
 20
176.010600
 30
0.0
 10
118.642790
 20
176.105800
 30
0.0
 10
118.483930
 20
176.137500
 30
0.0
  0
LWPOLYLINE
  5
2da
100
AcDbEntity
  8
Layer_1
 62
7
100
AcDbPolyline
 90
22
 70
1
 10
28.914638
 20
171.219840
 30
0.0
 10
28.882888
 20
171.473660
 30
0.0
 10
28.787568
 20
171.695740
 30
0.0
 10
28.565156
 20
171.917830
 30
0.0
 10
28.310966
 20
172.076470
 30
0.0
 10
28.056776
 20
172.108170
 30
0.0
 10
27.834365
 20
172.076470
 30
0.0
 10
27.580175
 20
171.981270
 30
0.0
 10
27.325992
 20
171.790900
 30
0.0
 10
27.198894
 20
171.537090
 30
0.0
 10
27.167144
 20
171.283280
 30
0.0
 10
27.167144
 20
171.219780
 30
0.0
 10
27.167101
 20
170.966020
 30
0.0
 10
27.294192
 20
170.743940
 30
0.0
 10
27.516611
 20
170.521850
 30
0.0
 10
27.739023
 20
170.363210
 30
0.0
 10
27.993213
 20
170.331510
 30
0.0
 10
28.247395
 20
170.363210
 30
0.0
 10
28.469815
 20
170.458410
 30
0.0
 10
28.723997
 20
170.648770
 30
0.0
 10
28.851096
 20
170.902590
 30
0.0
 10
28.914666
 20
171.156400
 30
0.0
  0
LWPOLYLINE
  5
2db
100
AcDbEntity
  8
Layer_1
 62
7
100
AcDbPolyline
 90
5
 70
0
 10
26.626950
 20
176.137520
 30
0.0
 10
26.436310
 20
176.105820
 30
0.0
 10
26.245669
 20
175.947190
 30
0.0
 10
26.150349
 20
175.788550
 30
0.0
 10
26.118599
 20
175.629920
 30
0.0
  0
LWPOLYLINE
  5
2dc
100
AcDbEntity
  8
Layer_1
 62
7
100
AcDbPolyline
 90
2
 70
0
 10
117.943810
 20
171.156380
 30
0.0
 10
116.609320
 20
171.917830
 30
0.0
  0
LWPOLYLINE
  5
2dd
100
AcDbEntity
  8
Layer_1
 62
7
100
AcDbPolyline
 90
12
 70
0
 10
116.323360
 20
171.568840
 30
0.0
 10
116.259760
 20
171.346740
 30
0.0
 10
116.259760
 20
171.092930
 30
0.0
 10
116.323360
 20
170.839120
 30
0.0
 10
116.514000
 20
170.617030
 30
0.0
 10
116.768190
 20
170.458390
 30
0.0
 10
117.022380
 20
170.363190
 30
0.0
 10
117.244790
 20
170.394890
 30
0.0
 10
117.498980
 20
170.490090
 30
0.0
 10
117.753170
 20
170.712180
 30
0.0
 10
117.880260
 20
170.934270
 30
0.0
 10
117.943860
 20
171.156360
 30
0.0
  0
LWPOLYLINE
  5
2de
100
AcDbEntity
  8
Layer_1
 62
7
100
AcDbPolyline
 90
7
 70
0
 10
117.848490
 20
171.568840
 30
0.0
 10
117.657850
 20
171.822650
 30
0.0
 10
117.435430
 20
171.981290
 30
0.0
 10
117.181250
 20
172.044790
 30
0.0
 10
116.927060
 20
172.044790
 30
0.0
 10
116.704640
 20
171.949590
 30
0.0
 10
116.609340
 20
171.886090
 30
0.0
  0
LWPOLYLINE
  5
2df
100
AcDbEntity
  8
Layer_1
 62
7
100
AcDbPolyline
 90
3
 70
0
 10
117.912030
 20
171.156380
 30
0.0
 10
117.912030
 20
171.378480
 30
0.0
 10
117.848430
 20
171.568840
 30
0.0
  0
LWPOLYLINE
  5
2e0
100
AcDbEntity
  8
Layer_1
 62
7
100
AcDbPolyline
 90
3
 70
0
 10
116.609320
 20
171.886100
 30
0.0
 10
116.386900
 20
171.664020
 30
0.0
 10
116.323300
 20
171.568820
 30
0.0
  0
ENDSEC
  0
SECTION
  2
OBJECTS
  0
DICTIONARY
  5
C
330
0
100
AcDbDictionary
  3
ACAD_GROUP
350
D
  3
ACAD_MLINESTYLE
350
17
  0
DICTIONARY
  5
D
330
C
100
AcDbDictionary
  0
DICTIONARY
  5
1A
330
C
100
AcDbDictionary
  0
DICTIONARY
  5
17
330
C
100
AcDbDictionary
  3
STANDARD
350
18
  0
DICTIONARY
  5
19
330
C
100
AcDbDictionary
  0
ENDSEC
  0
EOF
