G04 #@! TF.GenerationSoftware,KiCad,Pcbnew,5.0.2-bee76a0~70~ubuntu18.04.1*
G04 #@! TF.CreationDate,2019-04-15T09:41:49+02:00*
G04 #@! TF.ProjectId,DIMMTop,44494d4d-546f-4702-9e6b-696361645f70,rev?*
G04 #@! TF.SameCoordinates,Original*
G04 #@! TF.FileFunction,Profile,NP*
%FSLAX46Y46*%
G04 Gerber Fmt 4.6, Leading zero omitted, Abs format (unit mm)*
G04 Created by KiCad (PCBNEW 5.0.2-bee76a0~70~ubuntu18.04.1) date Mo 15 Apr 2019 09:41:49 CEST*
%MOMM*%
%LPD*%
G01*
G04 APERTURE LIST*
%ADD10C,0.200000*%
G04 APERTURE END LIST*
D10*
X127326658Y-88137447D02*
X127326658Y-88147147D01*
X127263758Y-87826050D02*
X127326658Y-88137447D01*
X68262604Y-102460452D02*
X69462606Y-102460452D01*
X133492378Y-102694778D02*
X133663818Y-102949067D01*
X133238088Y-102523332D02*
X133492378Y-102694778D01*
X127986424Y-125075714D02*
X128019924Y-125036824D01*
X66262609Y-103260454D02*
X66325479Y-102949057D01*
X127326658Y-113799367D02*
X127263758Y-114110764D01*
X127326658Y-113789667D02*
X127326658Y-113799367D01*
X59000000Y-112529374D02*
X59773905Y-112687544D01*
X71862611Y-102460452D02*
X72174004Y-102397582D01*
X68973798Y-122792317D02*
X70536518Y-123714336D01*
X132926698Y-112960465D02*
X131726698Y-112960465D01*
X133238088Y-112897595D02*
X132926698Y-112960465D01*
X118266154Y-129518984D02*
X121003724Y-129224522D01*
X127326668Y-100276455D02*
X127326668Y-100622456D01*
X127326668Y-100276455D02*
X127326668Y-100276455D01*
X130526698Y-112960465D02*
X129326698Y-112960465D01*
X131726698Y-112960465D02*
X130526698Y-112960465D01*
X127561008Y-102226146D02*
X127815298Y-102397592D01*
X127389568Y-101971857D02*
X127561008Y-102226146D01*
X133726718Y-112160454D02*
X133663818Y-112471853D01*
X133726718Y-109935457D02*
X133726718Y-112160454D01*
X68262605Y-112960465D02*
X67062602Y-112960465D01*
X72662612Y-101660450D02*
X72662612Y-101660450D01*
X59773905Y-112687544D02*
X60405566Y-113114932D01*
X127326668Y-88156947D02*
X127326668Y-88166647D01*
X127326658Y-88147147D02*
X127326668Y-88156947D01*
X133492378Y-89210765D02*
X133663818Y-89465054D01*
X133238088Y-89039319D02*
X133492378Y-89210765D01*
X140977014Y-116514124D02*
X140207534Y-116352176D01*
X72662613Y-113779969D02*
X72662613Y-113770169D01*
X130526698Y-99476453D02*
X129326698Y-99476453D01*
X131726698Y-99476453D02*
X130526698Y-99476453D01*
X72428294Y-99710768D02*
X72174004Y-99539322D01*
X72599742Y-99965057D02*
X72428294Y-99710768D01*
X71981780Y-125074434D02*
X72014730Y-125112544D01*
X71948830Y-125036324D02*
X71981780Y-125074434D01*
X140974014Y-122021794D02*
X140974764Y-120644877D01*
X128053424Y-124997934D02*
X128086924Y-124959044D01*
X71862611Y-88976449D02*
X72174004Y-88913579D01*
X70662609Y-88976449D02*
X71862611Y-88976449D01*
X130526698Y-102460462D02*
X131726698Y-102460462D01*
X129326698Y-102460462D02*
X130526698Y-102460462D01*
X127561008Y-88742133D02*
X127815298Y-88913579D01*
X127389568Y-88487844D02*
X127561008Y-88742133D01*
X66262609Y-109935454D02*
X66262609Y-107710454D01*
X113260628Y-87337445D02*
X119893628Y-87337445D01*
X106627618Y-87337445D02*
X113260628Y-87337445D01*
X80095615Y-114599371D02*
X73462615Y-114599371D01*
X66262609Y-105485454D02*
X66262609Y-103260454D01*
X66262609Y-107710454D02*
X66262609Y-105485454D01*
X72662612Y-100968452D02*
X72662612Y-100622453D01*
X72662612Y-101314451D02*
X72662612Y-100968452D01*
X113260628Y-114599369D02*
X106627618Y-114599369D01*
X119893628Y-114599369D02*
X113260628Y-114599369D01*
X72662612Y-88176447D02*
X72662612Y-88166647D01*
X72599742Y-88487844D02*
X72662612Y-88176447D01*
X133726718Y-89776451D02*
X133726718Y-92001451D01*
X133663818Y-89465054D02*
X133726718Y-89776451D01*
X132926698Y-88976449D02*
X133238088Y-89039319D01*
X131726698Y-88976449D02*
X132926698Y-88976449D01*
X70662609Y-102460452D02*
X71862611Y-102460452D01*
X66496923Y-89210765D02*
X66751210Y-89039319D01*
X66325479Y-89465054D02*
X66496923Y-89210765D01*
X133492378Y-99242137D02*
X133238088Y-99413583D01*
X133663818Y-98987848D02*
X133492378Y-99242137D01*
X127326668Y-100968458D02*
X127326668Y-101314459D01*
X127326668Y-100622456D02*
X127326668Y-100968458D01*
X72662613Y-113760469D02*
X72599743Y-113449068D01*
X139367134Y-122022044D02*
X140974014Y-122021794D01*
X86728615Y-114599371D02*
X80095615Y-114599371D01*
X59998895Y-79991816D02*
X59610098Y-80070246D01*
X72662613Y-113770169D02*
X72662613Y-113760469D01*
X139580284Y-115924042D02*
X139157894Y-115292916D01*
X60405566Y-113114932D02*
X60831311Y-113747701D01*
X73151218Y-114536501D02*
X72896929Y-114365055D01*
X66751210Y-102523322D02*
X67062601Y-102460452D01*
X69462607Y-112960465D02*
X68262605Y-112960465D01*
X127326668Y-113760467D02*
X127326668Y-113770167D01*
X127389568Y-113449070D02*
X127326668Y-113760467D01*
X74035570Y-126981497D02*
X76379949Y-128364800D01*
X72174004Y-102397582D02*
X72428294Y-102226136D01*
X133492378Y-112726145D02*
X133238088Y-112897595D01*
X133663818Y-112471853D02*
X133492378Y-112726145D01*
X66496925Y-112726145D02*
X66325479Y-112471853D01*
X126526638Y-87337445D02*
X126838028Y-87400315D01*
X119893628Y-87337445D02*
X126526638Y-87337445D01*
X59000000Y-104644583D02*
X59000000Y-112529374D01*
X128126698Y-112960465D02*
X127815298Y-113023335D01*
X129326698Y-112960465D02*
X128126698Y-112960465D01*
X72662612Y-100276454D02*
X72662612Y-100276454D01*
X72662612Y-100276454D02*
X72662612Y-100276454D01*
X66262609Y-89776451D02*
X66325479Y-89465054D01*
X66262609Y-92001451D02*
X66262609Y-89776451D01*
X121003724Y-129224522D02*
X123587434Y-128366614D01*
X66262609Y-98676450D02*
X66262609Y-96451450D01*
X66325479Y-98987847D02*
X66262609Y-98676450D01*
X59078500Y-80601496D02*
X59000000Y-80990209D01*
X59292584Y-80284157D02*
X59078500Y-80601496D01*
X59000000Y-96759792D02*
X59000000Y-104644583D01*
X93361615Y-114599371D02*
X86728615Y-114599371D01*
X127561008Y-113194781D02*
X127389568Y-113449070D01*
X127815298Y-113023335D02*
X127561008Y-113194781D01*
X59000000Y-80990209D02*
X59000000Y-88875000D01*
X127326668Y-113779967D02*
X127326658Y-113789667D01*
X127326668Y-113770167D02*
X127326668Y-113779967D01*
X60987470Y-114522014D02*
X60831461Y-115296494D01*
X69462606Y-99476452D02*
X68262604Y-99476452D01*
X70662609Y-99476452D02*
X69462606Y-99476452D01*
X72662612Y-100276454D02*
X72599742Y-99965057D01*
X72662612Y-100276454D02*
X72662612Y-100276454D01*
X72428294Y-88742133D02*
X72599742Y-88487844D01*
X72174004Y-88913579D02*
X72428294Y-88742133D01*
X69462606Y-102460452D02*
X70662609Y-102460452D01*
X127092308Y-114365053D02*
X126838028Y-114536499D01*
X127263758Y-114110764D02*
X127092308Y-114365053D01*
X127326668Y-88176447D02*
X127389568Y-88487844D01*
X127326668Y-88166647D02*
X127326668Y-88176447D01*
X109124594Y-129518984D02*
X118266154Y-129518984D01*
X132926698Y-99476453D02*
X131726698Y-99476453D01*
X133238088Y-99413583D02*
X132926698Y-99476453D01*
X71915880Y-124998214D02*
X71948830Y-125036324D01*
X66262609Y-94226451D02*
X66262609Y-92001451D01*
X66262609Y-96451450D02*
X66262609Y-94226451D01*
X133726718Y-107710459D02*
X133726718Y-109935457D01*
X133726718Y-105485462D02*
X133726718Y-107710459D01*
X128126698Y-99476453D02*
X127815298Y-99539323D01*
X129326698Y-99476453D02*
X128126698Y-99476453D01*
X67062601Y-88976449D02*
X68262604Y-88976449D01*
X66751210Y-89039319D02*
X67062601Y-88976449D01*
X72662612Y-101660450D02*
X72662612Y-101314451D01*
X72662612Y-101660450D02*
X72662612Y-101660450D01*
X72662612Y-88137447D02*
X72725482Y-87826050D01*
X72662612Y-88147147D02*
X72662612Y-88137447D01*
X127326668Y-101660460D02*
X127389568Y-101971857D01*
X127326668Y-101660460D02*
X127326668Y-101660460D01*
X126526638Y-114599369D02*
X119893628Y-114599369D01*
X126838028Y-114536499D02*
X126526638Y-114599369D01*
X99994614Y-87337445D02*
X106627618Y-87337445D01*
X93361614Y-87337445D02*
X99994614Y-87337445D01*
X69462606Y-88976449D02*
X70662609Y-88976449D01*
X68262604Y-88976449D02*
X69462606Y-88976449D01*
X67062602Y-112960465D02*
X66751211Y-112897595D01*
X73462615Y-114599371D02*
X73151218Y-114536501D01*
X140974764Y-120644877D02*
X140975514Y-119267959D01*
X140975514Y-119267959D02*
X140976264Y-117891042D01*
X66496923Y-102694768D02*
X66751210Y-102523322D01*
X123587434Y-128366614D02*
X125932194Y-126983797D01*
X66496924Y-99242136D02*
X66325479Y-98987847D01*
X66751210Y-99413582D02*
X66496924Y-99242136D01*
X66262609Y-112160454D02*
X66262609Y-109935454D01*
X70662610Y-112960465D02*
X69462607Y-112960465D01*
X133726718Y-103260464D02*
X133726718Y-105485462D01*
X133663818Y-102949067D02*
X133726718Y-103260464D01*
X127326668Y-100276455D02*
X127326668Y-100276455D01*
X127389568Y-99965058D02*
X127326668Y-100276455D01*
X71882930Y-124960104D02*
X71915880Y-124998214D01*
X139157894Y-115292916D02*
X139002964Y-114521994D01*
X140207534Y-116352176D02*
X139580284Y-115924042D01*
X72014730Y-125112544D02*
X74035570Y-126981497D01*
X127952924Y-125114604D02*
X127986424Y-125075714D01*
X72896928Y-87571761D02*
X73151217Y-87400315D01*
X72725482Y-87826050D02*
X72896928Y-87571761D01*
X127092308Y-87571761D02*
X127263758Y-87826050D01*
X126838028Y-87400315D02*
X127092308Y-87571761D01*
X133726718Y-98676451D02*
X133663818Y-98987848D01*
X133726718Y-96451451D02*
X133726718Y-98676451D01*
X72725483Y-114110766D02*
X72662613Y-113799369D01*
X66325479Y-112471853D02*
X66262609Y-112160454D01*
X67251533Y-122219868D02*
X68973798Y-122792317D01*
X129436104Y-123713095D02*
X131000104Y-122791267D01*
X130526698Y-88976449D02*
X131726698Y-88976449D01*
X129326698Y-88976449D02*
X130526698Y-88976449D01*
X128086924Y-124959044D02*
X129436104Y-123713095D01*
X72599743Y-113449068D02*
X72428295Y-113194779D01*
X72599742Y-101971847D02*
X72662612Y-101660450D01*
X60831311Y-113747701D02*
X60987470Y-114522014D01*
X106627618Y-114599369D02*
X99994615Y-114599371D01*
X66325479Y-102949057D02*
X66496923Y-102694768D01*
X70536518Y-123714336D02*
X71882930Y-124960104D01*
X99983032Y-129518984D02*
X109124594Y-129518984D01*
X72662613Y-113799369D02*
X72662613Y-113789669D01*
X60405749Y-115929432D02*
X59774031Y-116356951D01*
X59774031Y-116356951D02*
X59000000Y-116515174D01*
X76379949Y-128364800D02*
X78963013Y-129223585D01*
X140976264Y-117891042D02*
X140977014Y-116514124D01*
X127326668Y-101660460D02*
X127326668Y-101660460D01*
X127326668Y-101314459D02*
X127326668Y-101660460D01*
X71862611Y-99476452D02*
X70662609Y-99476452D01*
X72174004Y-99539322D02*
X71862611Y-99476452D01*
X60831461Y-115296494D02*
X60405749Y-115929432D01*
X127561008Y-99710769D02*
X127389568Y-99965058D01*
X127815298Y-99539323D02*
X127561008Y-99710769D01*
X132926698Y-102460462D02*
X133238088Y-102523332D01*
X131726698Y-102460462D02*
X132926698Y-102460462D01*
X73462614Y-87337445D02*
X80095614Y-87337445D01*
X73151217Y-87400315D02*
X73462614Y-87337445D01*
X72428294Y-102226136D02*
X72599742Y-101971847D01*
X72662612Y-100276454D02*
X72662612Y-100276454D01*
X72662612Y-100622453D02*
X72662612Y-100276454D01*
X59000000Y-117891834D02*
X59000000Y-119268494D01*
X133726718Y-94226451D02*
X133726718Y-96451451D01*
X133726718Y-92001451D02*
X133726718Y-94226451D01*
X140981044Y-104644945D02*
X140984044Y-96760027D01*
X59610098Y-80070246D02*
X59292584Y-80284157D01*
X81699910Y-129518984D02*
X90841471Y-129518984D01*
X71862612Y-112960465D02*
X70662610Y-112960465D01*
X140984044Y-96760027D02*
X140987044Y-88875108D01*
X62213245Y-122022314D02*
X63819868Y-122022564D01*
X65426490Y-122022814D02*
X67251533Y-122219868D01*
X139580654Y-113119587D02*
X140208234Y-112691520D01*
X72662613Y-113789669D02*
X72662613Y-113779969D01*
X59000000Y-120645154D02*
X59000000Y-122021814D01*
X128019924Y-125036824D02*
X128053424Y-124997934D01*
X59000000Y-122021814D02*
X60606622Y-122022064D01*
X128126698Y-88976449D02*
X129326698Y-88976449D01*
X127815298Y-88913579D02*
X128126698Y-88976449D01*
X127326668Y-101660460D02*
X127326668Y-101660460D01*
X127326668Y-101660460D02*
X127326668Y-101660460D01*
X66751211Y-112897595D02*
X66496925Y-112726145D01*
X63819868Y-122022564D02*
X65426490Y-122022814D01*
X72428295Y-113194779D02*
X72174005Y-113023335D01*
X127326668Y-100276455D02*
X127326668Y-100276455D01*
X127326668Y-100276455D02*
X127326668Y-100276455D01*
X60606622Y-122022064D02*
X62213245Y-122022314D01*
X72896929Y-114365055D02*
X72725483Y-114110766D01*
X86728614Y-87337445D02*
X93361614Y-87337445D01*
X80095614Y-87337445D02*
X86728614Y-87337445D01*
X134546494Y-122022794D02*
X136153374Y-122022544D01*
X128126698Y-102460462D02*
X129326698Y-102460462D01*
X127815298Y-102397592D02*
X128126698Y-102460462D01*
X132722404Y-122219264D02*
X134546494Y-122022794D01*
X67062601Y-99476452D02*
X66751210Y-99413582D01*
X68262604Y-99476452D02*
X67062601Y-99476452D01*
X72662612Y-101660450D02*
X72662612Y-101660450D01*
X72662612Y-101660450D02*
X72662612Y-101660450D01*
X140379954Y-80070226D02*
X139991154Y-79991796D01*
X79996633Y-79991796D02*
X59998895Y-79991816D01*
X139157994Y-113750825D02*
X139580654Y-113119587D01*
X139002964Y-114521994D02*
X139157994Y-113750825D01*
X140990044Y-80990189D02*
X140911544Y-80601476D01*
X67062601Y-102460452D02*
X68262604Y-102460452D01*
X139991154Y-79991796D02*
X119992109Y-79991796D01*
X99994372Y-79991796D02*
X79996633Y-79991796D01*
X119992109Y-79991796D02*
X99994372Y-79991796D01*
X140208234Y-112691520D02*
X140978044Y-112529864D01*
X140987044Y-88875108D02*
X140990044Y-80990189D01*
X125932194Y-126983797D02*
X127952924Y-125114604D01*
X78963013Y-129223585D02*
X81699910Y-129518984D01*
X140978044Y-112529864D02*
X140981044Y-104644945D01*
X140697464Y-80284137D02*
X140379954Y-80070226D01*
X136153374Y-122022544D02*
X137760254Y-122022294D01*
X137760254Y-122022294D02*
X139367134Y-122022044D01*
X140911544Y-80601476D02*
X140697464Y-80284137D01*
X72662612Y-88156947D02*
X72662612Y-88147147D01*
X72662612Y-88166647D02*
X72662612Y-88156947D01*
X90841471Y-129518984D02*
X99983032Y-129518984D01*
X99994615Y-114599371D02*
X93361615Y-114599371D01*
X59000000Y-119268494D02*
X59000000Y-120645154D01*
X131000104Y-122791267D02*
X132722404Y-122219264D01*
X72174005Y-113023335D02*
X71862612Y-112960465D01*
X59000000Y-116515174D02*
X59000000Y-117891834D01*
X59000000Y-88875000D02*
X59000000Y-96759792D01*
M02*
