G04 #@! TF.GenerationSoftware,KiCad,Pcbnew,5.0.2-bee76a0~70~ubuntu18.04.1*
G04 #@! TF.CreationDate,2019-04-15T09:41:49+02:00*
G04 #@! TF.ProjectId,DIMMTop,44494d4d-546f-4702-9e6b-696361645f70,rev?*
G04 #@! TF.SameCoordinates,Original*
G04 #@! TF.FileFunction,Legend,Top*
G04 #@! TF.FilePolarity,Positive*
%FSLAX46Y46*%
G04 Gerber Fmt 4.6, Leading zero omitted, Abs format (unit mm)*
G04 Created by KiCad (PCBNEW 5.0.2-bee76a0~70~ubuntu18.04.1) date Mo 15 Apr 2019 09:41:49 CEST*
%MOMM*%
%LPD*%
G01*
G04 APERTURE LIST*
%ADD10C,0.010000*%
G04 APERTURE END LIST*
D10*
G04 #@! TO.C,G\002A\002A\002A*
G36*
X102219212Y-80275423D02*
X103814769Y-80275539D01*
X105404908Y-80275716D01*
X106987377Y-80275955D01*
X108559922Y-80276254D01*
X110120293Y-80276615D01*
X111666237Y-80277036D01*
X113195502Y-80277519D01*
X114705836Y-80278062D01*
X116194986Y-80278667D01*
X117660701Y-80279332D01*
X119100728Y-80280059D01*
X120512816Y-80280846D01*
X121894712Y-80281695D01*
X123244164Y-80282605D01*
X124558920Y-80283575D01*
X125836728Y-80284607D01*
X127075336Y-80285700D01*
X128272491Y-80286854D01*
X129425941Y-80288069D01*
X130533435Y-80289344D01*
X131592720Y-80290681D01*
X132601544Y-80292079D01*
X133557655Y-80293538D01*
X134458801Y-80295058D01*
X135302730Y-80296639D01*
X136087189Y-80298281D01*
X136809927Y-80299984D01*
X137468690Y-80301748D01*
X138061228Y-80303573D01*
X138585289Y-80305460D01*
X139038619Y-80307407D01*
X139418966Y-80309415D01*
X139724080Y-80311484D01*
X139951707Y-80313614D01*
X140099595Y-80315806D01*
X140165493Y-80318058D01*
X140168544Y-80318489D01*
X140331033Y-80399308D01*
X140483138Y-80535133D01*
X140597207Y-80698086D01*
X140633040Y-80786799D01*
X140637047Y-80843316D01*
X140640864Y-80983779D01*
X140644486Y-81207464D01*
X140647914Y-81513650D01*
X140651144Y-81901616D01*
X140654176Y-82370640D01*
X140657007Y-82919999D01*
X140659634Y-83548972D01*
X140662057Y-84256837D01*
X140664274Y-85042873D01*
X140666282Y-85906358D01*
X140668079Y-86846569D01*
X140669664Y-87862785D01*
X140671035Y-88954285D01*
X140672190Y-90120347D01*
X140673127Y-91360248D01*
X140673844Y-92673267D01*
X140674339Y-94058682D01*
X140674610Y-95515772D01*
X140674666Y-96580748D01*
X140674666Y-112229555D01*
X140452416Y-112281080D01*
X140065303Y-112408936D01*
X139713763Y-112607344D01*
X139386280Y-112882837D01*
X139378811Y-112890260D01*
X139087617Y-113231783D01*
X138877400Y-113596300D01*
X138746655Y-113987702D01*
X138693876Y-114409876D01*
X138697205Y-114651000D01*
X138762601Y-115080196D01*
X138903426Y-115478968D01*
X139113648Y-115839957D01*
X139387231Y-116155805D01*
X139718142Y-116419156D01*
X140100346Y-116622650D01*
X140399500Y-116726749D01*
X140538190Y-116767513D01*
X140613951Y-116802725D01*
X140645530Y-116849143D01*
X140651672Y-116923523D01*
X140651383Y-116951909D01*
X140650829Y-117022788D01*
X140650014Y-117169951D01*
X140648972Y-117385017D01*
X140647741Y-117659604D01*
X140646355Y-117985329D01*
X140644852Y-118353811D01*
X140643267Y-118756668D01*
X140641636Y-119185519D01*
X140640800Y-119411303D01*
X140632333Y-121716272D01*
X137044583Y-121732646D01*
X136407823Y-121735627D01*
X135849726Y-121738484D01*
X135364292Y-121741370D01*
X134945516Y-121744440D01*
X134587397Y-121747849D01*
X134283933Y-121751751D01*
X134029120Y-121756300D01*
X133816958Y-121761652D01*
X133641442Y-121767960D01*
X133496572Y-121775379D01*
X133376344Y-121784064D01*
X133274757Y-121794168D01*
X133185808Y-121805846D01*
X133103494Y-121819253D01*
X133021813Y-121834544D01*
X133012333Y-121836401D01*
X132436783Y-121962191D01*
X131919174Y-122104081D01*
X131433124Y-122270560D01*
X130952250Y-122470111D01*
X130747500Y-122564865D01*
X130068609Y-122919284D01*
X129452074Y-123310253D01*
X128878689Y-123751603D01*
X128329247Y-124257165D01*
X128165166Y-124424513D01*
X127763568Y-124841566D01*
X127411497Y-125202946D01*
X127101373Y-125515483D01*
X126825613Y-125786010D01*
X126576636Y-126021359D01*
X126346861Y-126228361D01*
X126128706Y-126413848D01*
X125914589Y-126584652D01*
X125696928Y-126747605D01*
X125468143Y-126909539D01*
X125223000Y-127075719D01*
X124336195Y-127618736D01*
X123424716Y-128081045D01*
X122486782Y-128463257D01*
X121520609Y-128765980D01*
X120524415Y-128989827D01*
X119496416Y-129135406D01*
X119105833Y-129169689D01*
X119032624Y-129171974D01*
X118878074Y-129174201D01*
X118645511Y-129176367D01*
X118338260Y-129178473D01*
X117959649Y-129180516D01*
X117513002Y-129182495D01*
X117001648Y-129184409D01*
X116428912Y-129186257D01*
X115798121Y-129188036D01*
X115112601Y-129189747D01*
X114375678Y-129191388D01*
X113590680Y-129192956D01*
X112760931Y-129194452D01*
X111889760Y-129195874D01*
X110980492Y-129197220D01*
X110036454Y-129198489D01*
X109060971Y-129199679D01*
X108057371Y-129200791D01*
X107028980Y-129201821D01*
X105979125Y-129202769D01*
X104911131Y-129203634D01*
X103828326Y-129204414D01*
X102734035Y-129205108D01*
X101631585Y-129205715D01*
X100524302Y-129206232D01*
X99415514Y-129206660D01*
X98308545Y-129206997D01*
X97206724Y-129207240D01*
X96113375Y-129207390D01*
X95031826Y-129207445D01*
X93965403Y-129207403D01*
X92917433Y-129207263D01*
X91891241Y-129207024D01*
X90890155Y-129206685D01*
X89917500Y-129206244D01*
X88976603Y-129205699D01*
X88070791Y-129205050D01*
X87203390Y-129204296D01*
X86377726Y-129203434D01*
X85597126Y-129202464D01*
X84864916Y-129201385D01*
X84184423Y-129200194D01*
X83558972Y-129198891D01*
X82991892Y-129197475D01*
X82486507Y-129195943D01*
X82046144Y-129194296D01*
X81674130Y-129192531D01*
X81373791Y-129190647D01*
X81148454Y-129188643D01*
X81001445Y-129186517D01*
X80942333Y-129184720D01*
X80669849Y-129162931D01*
X80342376Y-129126996D01*
X79987669Y-129080711D01*
X79633480Y-129027874D01*
X79307565Y-128972283D01*
X79116805Y-128934960D01*
X78140860Y-128688213D01*
X77186667Y-128363215D01*
X76261084Y-127963622D01*
X75370969Y-127493092D01*
X74523180Y-126955280D01*
X73724578Y-126353842D01*
X72982019Y-125692435D01*
X72918935Y-125630843D01*
X72739298Y-125451052D01*
X72524183Y-125230968D01*
X72295124Y-124992894D01*
X72073654Y-124759132D01*
X71967155Y-124645085D01*
X71650710Y-124311992D01*
X71366042Y-124031399D01*
X71094964Y-123787452D01*
X70819287Y-123564300D01*
X70520825Y-123346090D01*
X70316666Y-123206535D01*
X69633060Y-122794138D01*
X68906784Y-122440694D01*
X68158255Y-122155363D01*
X67628500Y-122000176D01*
X67460926Y-121957166D01*
X67311765Y-121919373D01*
X67174602Y-121886436D01*
X67043019Y-121857993D01*
X66910600Y-121833683D01*
X66861749Y-121826500D01*
X90022833Y-121826500D01*
X90025367Y-122031653D01*
X90036151Y-122178907D01*
X90059958Y-122294962D01*
X90101559Y-122406513D01*
X90141830Y-122492160D01*
X90312416Y-122753367D01*
X90534722Y-122956539D01*
X90796078Y-123090454D01*
X91030015Y-123139514D01*
X91302553Y-123147233D01*
X91467082Y-123128330D01*
X102871000Y-123128330D01*
X103474250Y-123107090D01*
X103787585Y-123091255D01*
X104030127Y-123067543D01*
X104215520Y-123034326D01*
X104310333Y-123007378D01*
X104575633Y-122878184D01*
X104780302Y-122689963D01*
X104924229Y-122442894D01*
X105007305Y-122137157D01*
X105029627Y-121831597D01*
X105453333Y-121831597D01*
X105453333Y-121832704D01*
X105484338Y-122186077D01*
X105579061Y-122486639D01*
X105740063Y-122740130D01*
X105944375Y-122933247D01*
X106163721Y-123053289D01*
X106432279Y-123126975D01*
X106727711Y-123153219D01*
X107027679Y-123130929D01*
X107309845Y-123059019D01*
X107433824Y-123005847D01*
X107675833Y-122884833D01*
X107687645Y-122323917D01*
X107699457Y-121763000D01*
X106765666Y-121763000D01*
X106765666Y-122059333D01*
X107358333Y-122059333D01*
X107358333Y-122396510D01*
X107353420Y-122579388D01*
X107329167Y-122702388D01*
X107271301Y-122778817D01*
X107165552Y-122821985D01*
X106997645Y-122845201D01*
X106866957Y-122854716D01*
X106553882Y-122845484D01*
X106296668Y-122773349D01*
X106093530Y-122637419D01*
X105942683Y-122436802D01*
X105913905Y-122378585D01*
X105864225Y-122208685D01*
X105837444Y-121988371D01*
X105833542Y-121747945D01*
X105852502Y-121517711D01*
X105894304Y-121327971D01*
X105914591Y-121276167D01*
X106048509Y-121062365D01*
X106226263Y-120912846D01*
X106455403Y-120823399D01*
X106743480Y-120789816D01*
X106788053Y-120789333D01*
X106958217Y-120798252D01*
X107106061Y-120831876D01*
X107271312Y-120900505D01*
X107332069Y-120930389D01*
X107612333Y-121071445D01*
X107612333Y-120893269D01*
X107608262Y-120790350D01*
X107583333Y-120726531D01*
X107518470Y-120678120D01*
X107394599Y-120621426D01*
X107392851Y-120620674D01*
X107120276Y-120538364D01*
X107095059Y-120535333D01*
X108332000Y-120535333D01*
X108332000Y-123117667D01*
X109983000Y-123117667D01*
X109983000Y-122821333D01*
X108670666Y-122821333D01*
X108670666Y-121890000D01*
X109898333Y-121890000D01*
X109898333Y-121593667D01*
X108670666Y-121593667D01*
X108670666Y-120831667D01*
X109940666Y-120831667D01*
X109940666Y-120535333D01*
X108332000Y-120535333D01*
X107095059Y-120535333D01*
X106810875Y-120501176D01*
X106500765Y-120511244D01*
X106276726Y-120554676D01*
X106114582Y-120612630D01*
X105980841Y-120692639D01*
X105841416Y-120816255D01*
X105805333Y-120852739D01*
X105640145Y-121054387D01*
X105531425Y-121270802D01*
X105471658Y-121522900D01*
X105453333Y-121831597D01*
X105029627Y-121831597D01*
X105030000Y-121826500D01*
X105000849Y-121470165D01*
X104912808Y-121173963D01*
X104764996Y-120936356D01*
X104556531Y-120755805D01*
X104359959Y-120656951D01*
X104244836Y-120617528D01*
X104121380Y-120589085D01*
X103970782Y-120569182D01*
X103774231Y-120555374D01*
X103512919Y-120545221D01*
X103495416Y-120544694D01*
X102871000Y-120526105D01*
X102871000Y-123128330D01*
X91467082Y-123128330D01*
X91579449Y-123115420D01*
X91693923Y-123083195D01*
X92337192Y-123083195D01*
X92370382Y-123110561D01*
X92464209Y-123117562D01*
X92490894Y-123117667D01*
X92593719Y-123112808D01*
X92654575Y-123084467D01*
X92698583Y-123011994D01*
X92735525Y-122916583D01*
X92791859Y-122765452D01*
X92846586Y-122622088D01*
X92863866Y-122577917D01*
X92918346Y-122440333D01*
X94056384Y-122440333D01*
X94176715Y-122779000D01*
X94297047Y-123117667D01*
X94482219Y-123117667D01*
X95039333Y-123117667D01*
X95378000Y-123117667D01*
X95378000Y-122007746D01*
X95692821Y-122023644D01*
X95856246Y-122037251D01*
X95983576Y-122066845D01*
X96087793Y-122123733D01*
X96181880Y-122219223D01*
X96278819Y-122364620D01*
X96391592Y-122571232D01*
X96448024Y-122681395D01*
X96669166Y-123117283D01*
X96849083Y-123117475D01*
X96959011Y-123113091D01*
X97022655Y-123101841D01*
X97029000Y-123096208D01*
X97007950Y-123033886D01*
X96951364Y-122917101D01*
X96869082Y-122762866D01*
X96770946Y-122588196D01*
X96666797Y-122410107D01*
X96566477Y-122245612D01*
X96479827Y-122111727D01*
X96416690Y-122025465D01*
X96399056Y-122007116D01*
X96284405Y-121912166D01*
X96413286Y-121826156D01*
X96570403Y-121675116D01*
X96659213Y-121476188D01*
X96680702Y-121227060D01*
X96679330Y-121201514D01*
X96639593Y-120975455D01*
X96546015Y-120803335D01*
X96387119Y-120665790D01*
X96347241Y-120641167D01*
X96274480Y-120605543D01*
X96186041Y-120580182D01*
X96065254Y-120562800D01*
X95895446Y-120551119D01*
X95659945Y-120542855D01*
X95621416Y-120541857D01*
X95362077Y-120535333D01*
X96859666Y-120535333D01*
X96859666Y-120831667D01*
X97791000Y-120831667D01*
X97791000Y-123117667D01*
X98129666Y-123117667D01*
X99399666Y-123117667D01*
X99738333Y-123117667D01*
X99738333Y-122007445D01*
X100033313Y-122024113D01*
X100207426Y-122040900D01*
X100343143Y-122076705D01*
X100454248Y-122143243D01*
X100554520Y-122252230D01*
X100657742Y-122415382D01*
X100777694Y-122644413D01*
X100788507Y-122666097D01*
X101013182Y-123117667D01*
X101392599Y-123117667D01*
X101133991Y-122610422D01*
X101028359Y-122412856D01*
X100924660Y-122235758D01*
X100833912Y-122096890D01*
X100767137Y-122014017D01*
X100760060Y-122007672D01*
X100644739Y-121912166D01*
X100773619Y-121826156D01*
X100926966Y-121676143D01*
X101018621Y-121481888D01*
X101045152Y-121260584D01*
X101003126Y-121029423D01*
X100955416Y-120915688D01*
X100880509Y-120787900D01*
X100794798Y-120693635D01*
X100684264Y-120627512D01*
X100534888Y-120584149D01*
X100332652Y-120558163D01*
X100063538Y-120544172D01*
X99981750Y-120541857D01*
X99722410Y-120535333D01*
X101855000Y-120535333D01*
X101855000Y-123117667D01*
X102193666Y-123117667D01*
X102193666Y-120535333D01*
X101855000Y-120535333D01*
X99722410Y-120535333D01*
X99399666Y-120527214D01*
X99399666Y-123117667D01*
X98129666Y-123117667D01*
X98129666Y-120831667D01*
X99061000Y-120831667D01*
X99061000Y-120535333D01*
X96859666Y-120535333D01*
X95362077Y-120535333D01*
X95039333Y-120527214D01*
X95039333Y-123117667D01*
X94482219Y-123117667D01*
X94595789Y-123113107D01*
X94642670Y-123093792D01*
X94640603Y-123051265D01*
X94637661Y-123043583D01*
X94615327Y-122986113D01*
X94566887Y-122860268D01*
X94496449Y-122676766D01*
X94408123Y-122446323D01*
X94306019Y-122179657D01*
X94194247Y-121887484D01*
X94170930Y-121826500D01*
X94057729Y-121530491D01*
X93953403Y-121257830D01*
X93862057Y-121019232D01*
X93787795Y-120825413D01*
X93734721Y-120687091D01*
X93706940Y-120614980D01*
X93704768Y-120609417D01*
X93660601Y-120560371D01*
X93565545Y-120538348D01*
X93478676Y-120535333D01*
X93281744Y-120535333D01*
X92825411Y-121731250D01*
X92709798Y-122035241D01*
X92603334Y-122317092D01*
X92509991Y-122566136D01*
X92433741Y-122771706D01*
X92378556Y-122923136D01*
X92348408Y-123009757D01*
X92344602Y-123022417D01*
X92337192Y-123083195D01*
X91693923Y-123083195D01*
X91826459Y-123045886D01*
X91853750Y-123034536D01*
X91979157Y-122976944D01*
X92045431Y-122928545D01*
X92071426Y-122865573D01*
X92075995Y-122764260D01*
X92076000Y-122754369D01*
X92076000Y-122570830D01*
X91865561Y-122701646D01*
X91709822Y-122784303D01*
X91552076Y-122830907D01*
X91364775Y-122853236D01*
X91068698Y-122842169D01*
X90823697Y-122764015D01*
X90631208Y-122620279D01*
X90492669Y-122412464D01*
X90409519Y-122142075D01*
X90383138Y-121826500D01*
X90412021Y-121497645D01*
X90497841Y-121230045D01*
X90639358Y-121025013D01*
X90835333Y-120883860D01*
X91084526Y-120807898D01*
X91356857Y-120796553D01*
X91546219Y-120816494D01*
X91694687Y-120859622D01*
X91845410Y-120938895D01*
X91859251Y-120947431D01*
X92076000Y-121082169D01*
X92076000Y-120898631D01*
X92072298Y-120793435D01*
X92048607Y-120728476D01*
X91986047Y-120680012D01*
X91865737Y-120624296D01*
X91853750Y-120619115D01*
X91684583Y-120562773D01*
X91484036Y-120519207D01*
X91353159Y-120502911D01*
X91014181Y-120514095D01*
X90714874Y-120598143D01*
X90459271Y-120752864D01*
X90251407Y-120976065D01*
X90141830Y-121160840D01*
X90085613Y-121284336D01*
X90050393Y-121394422D01*
X90031399Y-121517795D01*
X90023856Y-121681153D01*
X90022833Y-121826500D01*
X66861749Y-121826500D01*
X66770927Y-121813146D01*
X66617585Y-121796020D01*
X66444157Y-121781944D01*
X66244226Y-121770557D01*
X66011376Y-121761497D01*
X65739189Y-121754404D01*
X65421250Y-121748916D01*
X65051141Y-121744672D01*
X64622446Y-121741311D01*
X64128749Y-121738471D01*
X63563632Y-121735793D01*
X62920679Y-121732914D01*
X62876583Y-121732714D01*
X59267666Y-121716295D01*
X59267666Y-116777280D01*
X59458567Y-116748653D01*
X59585346Y-116715973D01*
X59755599Y-116654066D01*
X59938600Y-116574479D01*
X59995287Y-116546937D01*
X60363249Y-116317675D01*
X60673907Y-116031704D01*
X60922875Y-115698407D01*
X61105765Y-115327169D01*
X61218191Y-114927373D01*
X61255764Y-114508405D01*
X61214098Y-114079647D01*
X61193597Y-113983815D01*
X61062357Y-113599921D01*
X60861526Y-113242907D01*
X60601950Y-112923608D01*
X60294478Y-112652861D01*
X59949955Y-112441500D01*
X59579227Y-112300363D01*
X59485861Y-112277778D01*
X59267666Y-112230984D01*
X59267666Y-96581462D01*
X59267779Y-95074467D01*
X59268118Y-93638640D01*
X59268679Y-92274702D01*
X59269462Y-90983377D01*
X59270464Y-89765384D01*
X59270817Y-89433453D01*
X64940914Y-89433453D01*
X64993522Y-112724833D01*
X65162970Y-113054503D01*
X65393169Y-113430191D01*
X65661586Y-113732440D01*
X65973136Y-113965654D01*
X66332736Y-114134237D01*
X66390328Y-114153962D01*
X66451314Y-114172682D01*
X66515965Y-114188687D01*
X66591576Y-114202303D01*
X66685441Y-114213859D01*
X66804856Y-114223681D01*
X66957115Y-114232095D01*
X67149514Y-114239430D01*
X67389346Y-114246011D01*
X67683907Y-114252167D01*
X68040491Y-114258223D01*
X68466394Y-114264508D01*
X68968909Y-114271348D01*
X69025500Y-114272099D01*
X69465084Y-114278003D01*
X69878598Y-114283698D01*
X70258422Y-114289073D01*
X70596939Y-114294010D01*
X70886531Y-114298397D01*
X71119579Y-114302118D01*
X71288467Y-114305059D01*
X71385576Y-114307104D01*
X71406750Y-114307935D01*
X71415798Y-114347288D01*
X71417366Y-114386417D01*
X71438823Y-114480406D01*
X71495463Y-114622014D01*
X71575778Y-114788234D01*
X71668257Y-114956058D01*
X71761391Y-115102478D01*
X71804575Y-115160433D01*
X72046229Y-115409846D01*
X72333755Y-115623273D01*
X72645657Y-115788243D01*
X72960440Y-115892283D01*
X73108894Y-115917206D01*
X73171370Y-115919369D01*
X73315513Y-115921396D01*
X73538558Y-115923289D01*
X73837745Y-115925049D01*
X74210310Y-115926678D01*
X74653493Y-115928180D01*
X75164529Y-115929556D01*
X75740658Y-115930807D01*
X76379116Y-115931937D01*
X77077142Y-115932948D01*
X77831973Y-115933840D01*
X78640847Y-115934618D01*
X79501001Y-115935282D01*
X80409674Y-115935836D01*
X81364103Y-115936280D01*
X82361526Y-115936618D01*
X83399181Y-115936851D01*
X84474304Y-115936982D01*
X85584135Y-115937012D01*
X86725910Y-115936944D01*
X87896868Y-115936780D01*
X89094246Y-115936523D01*
X90315282Y-115936173D01*
X91557213Y-115935734D01*
X92817278Y-115935207D01*
X94092714Y-115934595D01*
X95380758Y-115933899D01*
X96678649Y-115933123D01*
X97983624Y-115932267D01*
X99292921Y-115931335D01*
X100603778Y-115930328D01*
X101913432Y-115929249D01*
X103219121Y-115928099D01*
X104518083Y-115926881D01*
X105807556Y-115925596D01*
X107084776Y-115924248D01*
X108346983Y-115922838D01*
X109591413Y-115921368D01*
X110815305Y-115919841D01*
X112015896Y-115918258D01*
X113190424Y-115916622D01*
X114336126Y-115914935D01*
X115450241Y-115913198D01*
X116530005Y-115911415D01*
X117572658Y-115909587D01*
X118575436Y-115907717D01*
X119535577Y-115905806D01*
X120450318Y-115903857D01*
X121316899Y-115901871D01*
X122132556Y-115899852D01*
X122894527Y-115897800D01*
X123600050Y-115895719D01*
X124246362Y-115893610D01*
X124830701Y-115891476D01*
X125350306Y-115889319D01*
X125802413Y-115887140D01*
X126184260Y-115884942D01*
X126493086Y-115882727D01*
X126726127Y-115880497D01*
X126880622Y-115878255D01*
X126953809Y-115876002D01*
X126958666Y-115875515D01*
X127312079Y-115774368D01*
X127646755Y-115597886D01*
X127952646Y-115354953D01*
X128219704Y-115054453D01*
X128437881Y-114705272D01*
X128540985Y-114476495D01*
X128600823Y-114323158D01*
X130817161Y-114300549D01*
X131323204Y-114294494D01*
X131787102Y-114287160D01*
X132202447Y-114278727D01*
X132562834Y-114269376D01*
X132861857Y-114259286D01*
X133093110Y-114248638D01*
X133250186Y-114237612D01*
X133308666Y-114230469D01*
X133672337Y-114127393D01*
X134022348Y-113952093D01*
X134340303Y-113716878D01*
X134607805Y-113434057D01*
X134706352Y-113295264D01*
X134787559Y-113145956D01*
X134871754Y-112954971D01*
X134941183Y-112762718D01*
X134943260Y-112756033D01*
X135044321Y-112428500D01*
X135041948Y-101210167D01*
X135041621Y-100235795D01*
X135041064Y-99280789D01*
X135040288Y-98348809D01*
X135039303Y-97443518D01*
X135038120Y-96568577D01*
X135036751Y-95727648D01*
X135035205Y-94924393D01*
X135033495Y-94162473D01*
X135031630Y-93445551D01*
X135029622Y-92777287D01*
X135027482Y-92161344D01*
X135025220Y-91601383D01*
X135022847Y-91101066D01*
X135020374Y-90664055D01*
X135017813Y-90294012D01*
X135015173Y-89994598D01*
X135012466Y-89769475D01*
X135009703Y-89622304D01*
X135007364Y-89561842D01*
X134956989Y-89202783D01*
X134857515Y-88892621D01*
X134698462Y-88607683D01*
X134469352Y-88324295D01*
X134450610Y-88304108D01*
X134230853Y-88094664D01*
X134005067Y-87938520D01*
X133746662Y-87820431D01*
X133449780Y-87730384D01*
X133370304Y-87711016D01*
X133291505Y-87694711D01*
X133205604Y-87681207D01*
X133104823Y-87670240D01*
X132981386Y-87661549D01*
X132827514Y-87654870D01*
X132635431Y-87649940D01*
X132397359Y-87646497D01*
X132105520Y-87644278D01*
X131752137Y-87643019D01*
X131329432Y-87642458D01*
X130844200Y-87642333D01*
X128584341Y-87642333D01*
X128528890Y-87483583D01*
X128480056Y-87371861D01*
X128400422Y-87218325D01*
X128305315Y-87052157D01*
X128282834Y-87015171D01*
X128033155Y-86687456D01*
X127726853Y-86422196D01*
X127366249Y-86221064D01*
X127016289Y-86101129D01*
X126993406Y-86096672D01*
X126958665Y-86092417D01*
X126910145Y-86088360D01*
X126845926Y-86084495D01*
X126764087Y-86080817D01*
X126662707Y-86077322D01*
X126539865Y-86074004D01*
X126393640Y-86070859D01*
X126222112Y-86067882D01*
X126023359Y-86065069D01*
X125795461Y-86062413D01*
X125536497Y-86059911D01*
X125244545Y-86057557D01*
X124917686Y-86055347D01*
X124553998Y-86053276D01*
X124151560Y-86051338D01*
X123708452Y-86049530D01*
X123222753Y-86047845D01*
X122692541Y-86046280D01*
X122115897Y-86044829D01*
X121490898Y-86043488D01*
X120815625Y-86042251D01*
X120088156Y-86041114D01*
X119306571Y-86040072D01*
X118468949Y-86039120D01*
X117573368Y-86038254D01*
X116617908Y-86037467D01*
X115600649Y-86036756D01*
X114519668Y-86036115D01*
X113373046Y-86035541D01*
X112158862Y-86035026D01*
X110875194Y-86034568D01*
X109520123Y-86034161D01*
X108091726Y-86033800D01*
X106588083Y-86033481D01*
X105007274Y-86033198D01*
X103347377Y-86032946D01*
X101606471Y-86032721D01*
X99960488Y-86032537D01*
X73158517Y-86029720D01*
X72827675Y-86140706D01*
X72425344Y-86307903D01*
X72092995Y-86518327D01*
X71824923Y-86777267D01*
X71615420Y-87090009D01*
X71485538Y-87384185D01*
X71391284Y-87644491D01*
X69065392Y-87660548D01*
X68559241Y-87664194D01*
X68130322Y-87667767D01*
X67771197Y-87671553D01*
X67474433Y-87675840D01*
X67232594Y-87680915D01*
X67038244Y-87687064D01*
X66883948Y-87694574D01*
X66762272Y-87703732D01*
X66665779Y-87714826D01*
X66587034Y-87728142D01*
X66518603Y-87743966D01*
X66457760Y-87761168D01*
X66121970Y-87888758D01*
X65831882Y-88062566D01*
X65587503Y-88269613D01*
X65377742Y-88492954D01*
X65222273Y-88717504D01*
X65099660Y-88977038D01*
X65047217Y-89120911D01*
X64940914Y-89433453D01*
X59270817Y-89433453D01*
X59271683Y-88621447D01*
X59273118Y-87552287D01*
X59274767Y-86558625D01*
X59276627Y-85641184D01*
X59278697Y-84800685D01*
X59280975Y-84037850D01*
X59283460Y-83353400D01*
X59286148Y-82748058D01*
X59289039Y-82222545D01*
X59292129Y-81777583D01*
X59295419Y-81413893D01*
X59298905Y-81132198D01*
X59302585Y-80933219D01*
X59306458Y-80817677D01*
X59309292Y-80786799D01*
X59391628Y-80620782D01*
X59526807Y-80466965D01*
X59687176Y-80353227D01*
X59773788Y-80318489D01*
X59824005Y-80316225D01*
X59956636Y-80314022D01*
X60169430Y-80311880D01*
X60460133Y-80309800D01*
X60826495Y-80307780D01*
X61266263Y-80305821D01*
X61777185Y-80303924D01*
X62357009Y-80302087D01*
X63003482Y-80300312D01*
X63714353Y-80298597D01*
X64487369Y-80296944D01*
X65320278Y-80295351D01*
X66210829Y-80293820D01*
X67156768Y-80292349D01*
X68155845Y-80290940D01*
X69205806Y-80289591D01*
X70304400Y-80288304D01*
X71449374Y-80287078D01*
X72638476Y-80285912D01*
X73869455Y-80284808D01*
X75140058Y-80283765D01*
X76448033Y-80282783D01*
X77791128Y-80281862D01*
X79167091Y-80281001D01*
X80573669Y-80280202D01*
X82008611Y-80279464D01*
X83469664Y-80278787D01*
X84954576Y-80278171D01*
X86461095Y-80277616D01*
X87986970Y-80277122D01*
X89529947Y-80276689D01*
X91087775Y-80276317D01*
X92658201Y-80276006D01*
X94238974Y-80275757D01*
X95827842Y-80275568D01*
X97422551Y-80275440D01*
X99020851Y-80275373D01*
X100620489Y-80275367D01*
X102219212Y-80275423D01*
X102219212Y-80275423D01*
G37*
X102219212Y-80275423D02*
X103814769Y-80275539D01*
X105404908Y-80275716D01*
X106987377Y-80275955D01*
X108559922Y-80276254D01*
X110120293Y-80276615D01*
X111666237Y-80277036D01*
X113195502Y-80277519D01*
X114705836Y-80278062D01*
X116194986Y-80278667D01*
X117660701Y-80279332D01*
X119100728Y-80280059D01*
X120512816Y-80280846D01*
X121894712Y-80281695D01*
X123244164Y-80282605D01*
X124558920Y-80283575D01*
X125836728Y-80284607D01*
X127075336Y-80285700D01*
X128272491Y-80286854D01*
X129425941Y-80288069D01*
X130533435Y-80289344D01*
X131592720Y-80290681D01*
X132601544Y-80292079D01*
X133557655Y-80293538D01*
X134458801Y-80295058D01*
X135302730Y-80296639D01*
X136087189Y-80298281D01*
X136809927Y-80299984D01*
X137468690Y-80301748D01*
X138061228Y-80303573D01*
X138585289Y-80305460D01*
X139038619Y-80307407D01*
X139418966Y-80309415D01*
X139724080Y-80311484D01*
X139951707Y-80313614D01*
X140099595Y-80315806D01*
X140165493Y-80318058D01*
X140168544Y-80318489D01*
X140331033Y-80399308D01*
X140483138Y-80535133D01*
X140597207Y-80698086D01*
X140633040Y-80786799D01*
X140637047Y-80843316D01*
X140640864Y-80983779D01*
X140644486Y-81207464D01*
X140647914Y-81513650D01*
X140651144Y-81901616D01*
X140654176Y-82370640D01*
X140657007Y-82919999D01*
X140659634Y-83548972D01*
X140662057Y-84256837D01*
X140664274Y-85042873D01*
X140666282Y-85906358D01*
X140668079Y-86846569D01*
X140669664Y-87862785D01*
X140671035Y-88954285D01*
X140672190Y-90120347D01*
X140673127Y-91360248D01*
X140673844Y-92673267D01*
X140674339Y-94058682D01*
X140674610Y-95515772D01*
X140674666Y-96580748D01*
X140674666Y-112229555D01*
X140452416Y-112281080D01*
X140065303Y-112408936D01*
X139713763Y-112607344D01*
X139386280Y-112882837D01*
X139378811Y-112890260D01*
X139087617Y-113231783D01*
X138877400Y-113596300D01*
X138746655Y-113987702D01*
X138693876Y-114409876D01*
X138697205Y-114651000D01*
X138762601Y-115080196D01*
X138903426Y-115478968D01*
X139113648Y-115839957D01*
X139387231Y-116155805D01*
X139718142Y-116419156D01*
X140100346Y-116622650D01*
X140399500Y-116726749D01*
X140538190Y-116767513D01*
X140613951Y-116802725D01*
X140645530Y-116849143D01*
X140651672Y-116923523D01*
X140651383Y-116951909D01*
X140650829Y-117022788D01*
X140650014Y-117169951D01*
X140648972Y-117385017D01*
X140647741Y-117659604D01*
X140646355Y-117985329D01*
X140644852Y-118353811D01*
X140643267Y-118756668D01*
X140641636Y-119185519D01*
X140640800Y-119411303D01*
X140632333Y-121716272D01*
X137044583Y-121732646D01*
X136407823Y-121735627D01*
X135849726Y-121738484D01*
X135364292Y-121741370D01*
X134945516Y-121744440D01*
X134587397Y-121747849D01*
X134283933Y-121751751D01*
X134029120Y-121756300D01*
X133816958Y-121761652D01*
X133641442Y-121767960D01*
X133496572Y-121775379D01*
X133376344Y-121784064D01*
X133274757Y-121794168D01*
X133185808Y-121805846D01*
X133103494Y-121819253D01*
X133021813Y-121834544D01*
X133012333Y-121836401D01*
X132436783Y-121962191D01*
X131919174Y-122104081D01*
X131433124Y-122270560D01*
X130952250Y-122470111D01*
X130747500Y-122564865D01*
X130068609Y-122919284D01*
X129452074Y-123310253D01*
X128878689Y-123751603D01*
X128329247Y-124257165D01*
X128165166Y-124424513D01*
X127763568Y-124841566D01*
X127411497Y-125202946D01*
X127101373Y-125515483D01*
X126825613Y-125786010D01*
X126576636Y-126021359D01*
X126346861Y-126228361D01*
X126128706Y-126413848D01*
X125914589Y-126584652D01*
X125696928Y-126747605D01*
X125468143Y-126909539D01*
X125223000Y-127075719D01*
X124336195Y-127618736D01*
X123424716Y-128081045D01*
X122486782Y-128463257D01*
X121520609Y-128765980D01*
X120524415Y-128989827D01*
X119496416Y-129135406D01*
X119105833Y-129169689D01*
X119032624Y-129171974D01*
X118878074Y-129174201D01*
X118645511Y-129176367D01*
X118338260Y-129178473D01*
X117959649Y-129180516D01*
X117513002Y-129182495D01*
X117001648Y-129184409D01*
X116428912Y-129186257D01*
X115798121Y-129188036D01*
X115112601Y-129189747D01*
X114375678Y-129191388D01*
X113590680Y-129192956D01*
X112760931Y-129194452D01*
X111889760Y-129195874D01*
X110980492Y-129197220D01*
X110036454Y-129198489D01*
X109060971Y-129199679D01*
X108057371Y-129200791D01*
X107028980Y-129201821D01*
X105979125Y-129202769D01*
X104911131Y-129203634D01*
X103828326Y-129204414D01*
X102734035Y-129205108D01*
X101631585Y-129205715D01*
X100524302Y-129206232D01*
X99415514Y-129206660D01*
X98308545Y-129206997D01*
X97206724Y-129207240D01*
X96113375Y-129207390D01*
X95031826Y-129207445D01*
X93965403Y-129207403D01*
X92917433Y-129207263D01*
X91891241Y-129207024D01*
X90890155Y-129206685D01*
X89917500Y-129206244D01*
X88976603Y-129205699D01*
X88070791Y-129205050D01*
X87203390Y-129204296D01*
X86377726Y-129203434D01*
X85597126Y-129202464D01*
X84864916Y-129201385D01*
X84184423Y-129200194D01*
X83558972Y-129198891D01*
X82991892Y-129197475D01*
X82486507Y-129195943D01*
X82046144Y-129194296D01*
X81674130Y-129192531D01*
X81373791Y-129190647D01*
X81148454Y-129188643D01*
X81001445Y-129186517D01*
X80942333Y-129184720D01*
X80669849Y-129162931D01*
X80342376Y-129126996D01*
X79987669Y-129080711D01*
X79633480Y-129027874D01*
X79307565Y-128972283D01*
X79116805Y-128934960D01*
X78140860Y-128688213D01*
X77186667Y-128363215D01*
X76261084Y-127963622D01*
X75370969Y-127493092D01*
X74523180Y-126955280D01*
X73724578Y-126353842D01*
X72982019Y-125692435D01*
X72918935Y-125630843D01*
X72739298Y-125451052D01*
X72524183Y-125230968D01*
X72295124Y-124992894D01*
X72073654Y-124759132D01*
X71967155Y-124645085D01*
X71650710Y-124311992D01*
X71366042Y-124031399D01*
X71094964Y-123787452D01*
X70819287Y-123564300D01*
X70520825Y-123346090D01*
X70316666Y-123206535D01*
X69633060Y-122794138D01*
X68906784Y-122440694D01*
X68158255Y-122155363D01*
X67628500Y-122000176D01*
X67460926Y-121957166D01*
X67311765Y-121919373D01*
X67174602Y-121886436D01*
X67043019Y-121857993D01*
X66910600Y-121833683D01*
X66861749Y-121826500D01*
X90022833Y-121826500D01*
X90025367Y-122031653D01*
X90036151Y-122178907D01*
X90059958Y-122294962D01*
X90101559Y-122406513D01*
X90141830Y-122492160D01*
X90312416Y-122753367D01*
X90534722Y-122956539D01*
X90796078Y-123090454D01*
X91030015Y-123139514D01*
X91302553Y-123147233D01*
X91467082Y-123128330D01*
X102871000Y-123128330D01*
X103474250Y-123107090D01*
X103787585Y-123091255D01*
X104030127Y-123067543D01*
X104215520Y-123034326D01*
X104310333Y-123007378D01*
X104575633Y-122878184D01*
X104780302Y-122689963D01*
X104924229Y-122442894D01*
X105007305Y-122137157D01*
X105029627Y-121831597D01*
X105453333Y-121831597D01*
X105453333Y-121832704D01*
X105484338Y-122186077D01*
X105579061Y-122486639D01*
X105740063Y-122740130D01*
X105944375Y-122933247D01*
X106163721Y-123053289D01*
X106432279Y-123126975D01*
X106727711Y-123153219D01*
X107027679Y-123130929D01*
X107309845Y-123059019D01*
X107433824Y-123005847D01*
X107675833Y-122884833D01*
X107687645Y-122323917D01*
X107699457Y-121763000D01*
X106765666Y-121763000D01*
X106765666Y-122059333D01*
X107358333Y-122059333D01*
X107358333Y-122396510D01*
X107353420Y-122579388D01*
X107329167Y-122702388D01*
X107271301Y-122778817D01*
X107165552Y-122821985D01*
X106997645Y-122845201D01*
X106866957Y-122854716D01*
X106553882Y-122845484D01*
X106296668Y-122773349D01*
X106093530Y-122637419D01*
X105942683Y-122436802D01*
X105913905Y-122378585D01*
X105864225Y-122208685D01*
X105837444Y-121988371D01*
X105833542Y-121747945D01*
X105852502Y-121517711D01*
X105894304Y-121327971D01*
X105914591Y-121276167D01*
X106048509Y-121062365D01*
X106226263Y-120912846D01*
X106455403Y-120823399D01*
X106743480Y-120789816D01*
X106788053Y-120789333D01*
X106958217Y-120798252D01*
X107106061Y-120831876D01*
X107271312Y-120900505D01*
X107332069Y-120930389D01*
X107612333Y-121071445D01*
X107612333Y-120893269D01*
X107608262Y-120790350D01*
X107583333Y-120726531D01*
X107518470Y-120678120D01*
X107394599Y-120621426D01*
X107392851Y-120620674D01*
X107120276Y-120538364D01*
X107095059Y-120535333D01*
X108332000Y-120535333D01*
X108332000Y-123117667D01*
X109983000Y-123117667D01*
X109983000Y-122821333D01*
X108670666Y-122821333D01*
X108670666Y-121890000D01*
X109898333Y-121890000D01*
X109898333Y-121593667D01*
X108670666Y-121593667D01*
X108670666Y-120831667D01*
X109940666Y-120831667D01*
X109940666Y-120535333D01*
X108332000Y-120535333D01*
X107095059Y-120535333D01*
X106810875Y-120501176D01*
X106500765Y-120511244D01*
X106276726Y-120554676D01*
X106114582Y-120612630D01*
X105980841Y-120692639D01*
X105841416Y-120816255D01*
X105805333Y-120852739D01*
X105640145Y-121054387D01*
X105531425Y-121270802D01*
X105471658Y-121522900D01*
X105453333Y-121831597D01*
X105029627Y-121831597D01*
X105030000Y-121826500D01*
X105000849Y-121470165D01*
X104912808Y-121173963D01*
X104764996Y-120936356D01*
X104556531Y-120755805D01*
X104359959Y-120656951D01*
X104244836Y-120617528D01*
X104121380Y-120589085D01*
X103970782Y-120569182D01*
X103774231Y-120555374D01*
X103512919Y-120545221D01*
X103495416Y-120544694D01*
X102871000Y-120526105D01*
X102871000Y-123128330D01*
X91467082Y-123128330D01*
X91579449Y-123115420D01*
X91693923Y-123083195D01*
X92337192Y-123083195D01*
X92370382Y-123110561D01*
X92464209Y-123117562D01*
X92490894Y-123117667D01*
X92593719Y-123112808D01*
X92654575Y-123084467D01*
X92698583Y-123011994D01*
X92735525Y-122916583D01*
X92791859Y-122765452D01*
X92846586Y-122622088D01*
X92863866Y-122577917D01*
X92918346Y-122440333D01*
X94056384Y-122440333D01*
X94176715Y-122779000D01*
X94297047Y-123117667D01*
X94482219Y-123117667D01*
X95039333Y-123117667D01*
X95378000Y-123117667D01*
X95378000Y-122007746D01*
X95692821Y-122023644D01*
X95856246Y-122037251D01*
X95983576Y-122066845D01*
X96087793Y-122123733D01*
X96181880Y-122219223D01*
X96278819Y-122364620D01*
X96391592Y-122571232D01*
X96448024Y-122681395D01*
X96669166Y-123117283D01*
X96849083Y-123117475D01*
X96959011Y-123113091D01*
X97022655Y-123101841D01*
X97029000Y-123096208D01*
X97007950Y-123033886D01*
X96951364Y-122917101D01*
X96869082Y-122762866D01*
X96770946Y-122588196D01*
X96666797Y-122410107D01*
X96566477Y-122245612D01*
X96479827Y-122111727D01*
X96416690Y-122025465D01*
X96399056Y-122007116D01*
X96284405Y-121912166D01*
X96413286Y-121826156D01*
X96570403Y-121675116D01*
X96659213Y-121476188D01*
X96680702Y-121227060D01*
X96679330Y-121201514D01*
X96639593Y-120975455D01*
X96546015Y-120803335D01*
X96387119Y-120665790D01*
X96347241Y-120641167D01*
X96274480Y-120605543D01*
X96186041Y-120580182D01*
X96065254Y-120562800D01*
X95895446Y-120551119D01*
X95659945Y-120542855D01*
X95621416Y-120541857D01*
X95362077Y-120535333D01*
X96859666Y-120535333D01*
X96859666Y-120831667D01*
X97791000Y-120831667D01*
X97791000Y-123117667D01*
X98129666Y-123117667D01*
X99399666Y-123117667D01*
X99738333Y-123117667D01*
X99738333Y-122007445D01*
X100033313Y-122024113D01*
X100207426Y-122040900D01*
X100343143Y-122076705D01*
X100454248Y-122143243D01*
X100554520Y-122252230D01*
X100657742Y-122415382D01*
X100777694Y-122644413D01*
X100788507Y-122666097D01*
X101013182Y-123117667D01*
X101392599Y-123117667D01*
X101133991Y-122610422D01*
X101028359Y-122412856D01*
X100924660Y-122235758D01*
X100833912Y-122096890D01*
X100767137Y-122014017D01*
X100760060Y-122007672D01*
X100644739Y-121912166D01*
X100773619Y-121826156D01*
X100926966Y-121676143D01*
X101018621Y-121481888D01*
X101045152Y-121260584D01*
X101003126Y-121029423D01*
X100955416Y-120915688D01*
X100880509Y-120787900D01*
X100794798Y-120693635D01*
X100684264Y-120627512D01*
X100534888Y-120584149D01*
X100332652Y-120558163D01*
X100063538Y-120544172D01*
X99981750Y-120541857D01*
X99722410Y-120535333D01*
X101855000Y-120535333D01*
X101855000Y-123117667D01*
X102193666Y-123117667D01*
X102193666Y-120535333D01*
X101855000Y-120535333D01*
X99722410Y-120535333D01*
X99399666Y-120527214D01*
X99399666Y-123117667D01*
X98129666Y-123117667D01*
X98129666Y-120831667D01*
X99061000Y-120831667D01*
X99061000Y-120535333D01*
X96859666Y-120535333D01*
X95362077Y-120535333D01*
X95039333Y-120527214D01*
X95039333Y-123117667D01*
X94482219Y-123117667D01*
X94595789Y-123113107D01*
X94642670Y-123093792D01*
X94640603Y-123051265D01*
X94637661Y-123043583D01*
X94615327Y-122986113D01*
X94566887Y-122860268D01*
X94496449Y-122676766D01*
X94408123Y-122446323D01*
X94306019Y-122179657D01*
X94194247Y-121887484D01*
X94170930Y-121826500D01*
X94057729Y-121530491D01*
X93953403Y-121257830D01*
X93862057Y-121019232D01*
X93787795Y-120825413D01*
X93734721Y-120687091D01*
X93706940Y-120614980D01*
X93704768Y-120609417D01*
X93660601Y-120560371D01*
X93565545Y-120538348D01*
X93478676Y-120535333D01*
X93281744Y-120535333D01*
X92825411Y-121731250D01*
X92709798Y-122035241D01*
X92603334Y-122317092D01*
X92509991Y-122566136D01*
X92433741Y-122771706D01*
X92378556Y-122923136D01*
X92348408Y-123009757D01*
X92344602Y-123022417D01*
X92337192Y-123083195D01*
X91693923Y-123083195D01*
X91826459Y-123045886D01*
X91853750Y-123034536D01*
X91979157Y-122976944D01*
X92045431Y-122928545D01*
X92071426Y-122865573D01*
X92075995Y-122764260D01*
X92076000Y-122754369D01*
X92076000Y-122570830D01*
X91865561Y-122701646D01*
X91709822Y-122784303D01*
X91552076Y-122830907D01*
X91364775Y-122853236D01*
X91068698Y-122842169D01*
X90823697Y-122764015D01*
X90631208Y-122620279D01*
X90492669Y-122412464D01*
X90409519Y-122142075D01*
X90383138Y-121826500D01*
X90412021Y-121497645D01*
X90497841Y-121230045D01*
X90639358Y-121025013D01*
X90835333Y-120883860D01*
X91084526Y-120807898D01*
X91356857Y-120796553D01*
X91546219Y-120816494D01*
X91694687Y-120859622D01*
X91845410Y-120938895D01*
X91859251Y-120947431D01*
X92076000Y-121082169D01*
X92076000Y-120898631D01*
X92072298Y-120793435D01*
X92048607Y-120728476D01*
X91986047Y-120680012D01*
X91865737Y-120624296D01*
X91853750Y-120619115D01*
X91684583Y-120562773D01*
X91484036Y-120519207D01*
X91353159Y-120502911D01*
X91014181Y-120514095D01*
X90714874Y-120598143D01*
X90459271Y-120752864D01*
X90251407Y-120976065D01*
X90141830Y-121160840D01*
X90085613Y-121284336D01*
X90050393Y-121394422D01*
X90031399Y-121517795D01*
X90023856Y-121681153D01*
X90022833Y-121826500D01*
X66861749Y-121826500D01*
X66770927Y-121813146D01*
X66617585Y-121796020D01*
X66444157Y-121781944D01*
X66244226Y-121770557D01*
X66011376Y-121761497D01*
X65739189Y-121754404D01*
X65421250Y-121748916D01*
X65051141Y-121744672D01*
X64622446Y-121741311D01*
X64128749Y-121738471D01*
X63563632Y-121735793D01*
X62920679Y-121732914D01*
X62876583Y-121732714D01*
X59267666Y-121716295D01*
X59267666Y-116777280D01*
X59458567Y-116748653D01*
X59585346Y-116715973D01*
X59755599Y-116654066D01*
X59938600Y-116574479D01*
X59995287Y-116546937D01*
X60363249Y-116317675D01*
X60673907Y-116031704D01*
X60922875Y-115698407D01*
X61105765Y-115327169D01*
X61218191Y-114927373D01*
X61255764Y-114508405D01*
X61214098Y-114079647D01*
X61193597Y-113983815D01*
X61062357Y-113599921D01*
X60861526Y-113242907D01*
X60601950Y-112923608D01*
X60294478Y-112652861D01*
X59949955Y-112441500D01*
X59579227Y-112300363D01*
X59485861Y-112277778D01*
X59267666Y-112230984D01*
X59267666Y-96581462D01*
X59267779Y-95074467D01*
X59268118Y-93638640D01*
X59268679Y-92274702D01*
X59269462Y-90983377D01*
X59270464Y-89765384D01*
X59270817Y-89433453D01*
X64940914Y-89433453D01*
X64993522Y-112724833D01*
X65162970Y-113054503D01*
X65393169Y-113430191D01*
X65661586Y-113732440D01*
X65973136Y-113965654D01*
X66332736Y-114134237D01*
X66390328Y-114153962D01*
X66451314Y-114172682D01*
X66515965Y-114188687D01*
X66591576Y-114202303D01*
X66685441Y-114213859D01*
X66804856Y-114223681D01*
X66957115Y-114232095D01*
X67149514Y-114239430D01*
X67389346Y-114246011D01*
X67683907Y-114252167D01*
X68040491Y-114258223D01*
X68466394Y-114264508D01*
X68968909Y-114271348D01*
X69025500Y-114272099D01*
X69465084Y-114278003D01*
X69878598Y-114283698D01*
X70258422Y-114289073D01*
X70596939Y-114294010D01*
X70886531Y-114298397D01*
X71119579Y-114302118D01*
X71288467Y-114305059D01*
X71385576Y-114307104D01*
X71406750Y-114307935D01*
X71415798Y-114347288D01*
X71417366Y-114386417D01*
X71438823Y-114480406D01*
X71495463Y-114622014D01*
X71575778Y-114788234D01*
X71668257Y-114956058D01*
X71761391Y-115102478D01*
X71804575Y-115160433D01*
X72046229Y-115409846D01*
X72333755Y-115623273D01*
X72645657Y-115788243D01*
X72960440Y-115892283D01*
X73108894Y-115917206D01*
X73171370Y-115919369D01*
X73315513Y-115921396D01*
X73538558Y-115923289D01*
X73837745Y-115925049D01*
X74210310Y-115926678D01*
X74653493Y-115928180D01*
X75164529Y-115929556D01*
X75740658Y-115930807D01*
X76379116Y-115931937D01*
X77077142Y-115932948D01*
X77831973Y-115933840D01*
X78640847Y-115934618D01*
X79501001Y-115935282D01*
X80409674Y-115935836D01*
X81364103Y-115936280D01*
X82361526Y-115936618D01*
X83399181Y-115936851D01*
X84474304Y-115936982D01*
X85584135Y-115937012D01*
X86725910Y-115936944D01*
X87896868Y-115936780D01*
X89094246Y-115936523D01*
X90315282Y-115936173D01*
X91557213Y-115935734D01*
X92817278Y-115935207D01*
X94092714Y-115934595D01*
X95380758Y-115933899D01*
X96678649Y-115933123D01*
X97983624Y-115932267D01*
X99292921Y-115931335D01*
X100603778Y-115930328D01*
X101913432Y-115929249D01*
X103219121Y-115928099D01*
X104518083Y-115926881D01*
X105807556Y-115925596D01*
X107084776Y-115924248D01*
X108346983Y-115922838D01*
X109591413Y-115921368D01*
X110815305Y-115919841D01*
X112015896Y-115918258D01*
X113190424Y-115916622D01*
X114336126Y-115914935D01*
X115450241Y-115913198D01*
X116530005Y-115911415D01*
X117572658Y-115909587D01*
X118575436Y-115907717D01*
X119535577Y-115905806D01*
X120450318Y-115903857D01*
X121316899Y-115901871D01*
X122132556Y-115899852D01*
X122894527Y-115897800D01*
X123600050Y-115895719D01*
X124246362Y-115893610D01*
X124830701Y-115891476D01*
X125350306Y-115889319D01*
X125802413Y-115887140D01*
X126184260Y-115884942D01*
X126493086Y-115882727D01*
X126726127Y-115880497D01*
X126880622Y-115878255D01*
X126953809Y-115876002D01*
X126958666Y-115875515D01*
X127312079Y-115774368D01*
X127646755Y-115597886D01*
X127952646Y-115354953D01*
X128219704Y-115054453D01*
X128437881Y-114705272D01*
X128540985Y-114476495D01*
X128600823Y-114323158D01*
X130817161Y-114300549D01*
X131323204Y-114294494D01*
X131787102Y-114287160D01*
X132202447Y-114278727D01*
X132562834Y-114269376D01*
X132861857Y-114259286D01*
X133093110Y-114248638D01*
X133250186Y-114237612D01*
X133308666Y-114230469D01*
X133672337Y-114127393D01*
X134022348Y-113952093D01*
X134340303Y-113716878D01*
X134607805Y-113434057D01*
X134706352Y-113295264D01*
X134787559Y-113145956D01*
X134871754Y-112954971D01*
X134941183Y-112762718D01*
X134943260Y-112756033D01*
X135044321Y-112428500D01*
X135041948Y-101210167D01*
X135041621Y-100235795D01*
X135041064Y-99280789D01*
X135040288Y-98348809D01*
X135039303Y-97443518D01*
X135038120Y-96568577D01*
X135036751Y-95727648D01*
X135035205Y-94924393D01*
X135033495Y-94162473D01*
X135031630Y-93445551D01*
X135029622Y-92777287D01*
X135027482Y-92161344D01*
X135025220Y-91601383D01*
X135022847Y-91101066D01*
X135020374Y-90664055D01*
X135017813Y-90294012D01*
X135015173Y-89994598D01*
X135012466Y-89769475D01*
X135009703Y-89622304D01*
X135007364Y-89561842D01*
X134956989Y-89202783D01*
X134857515Y-88892621D01*
X134698462Y-88607683D01*
X134469352Y-88324295D01*
X134450610Y-88304108D01*
X134230853Y-88094664D01*
X134005067Y-87938520D01*
X133746662Y-87820431D01*
X133449780Y-87730384D01*
X133370304Y-87711016D01*
X133291505Y-87694711D01*
X133205604Y-87681207D01*
X133104823Y-87670240D01*
X132981386Y-87661549D01*
X132827514Y-87654870D01*
X132635431Y-87649940D01*
X132397359Y-87646497D01*
X132105520Y-87644278D01*
X131752137Y-87643019D01*
X131329432Y-87642458D01*
X130844200Y-87642333D01*
X128584341Y-87642333D01*
X128528890Y-87483583D01*
X128480056Y-87371861D01*
X128400422Y-87218325D01*
X128305315Y-87052157D01*
X128282834Y-87015171D01*
X128033155Y-86687456D01*
X127726853Y-86422196D01*
X127366249Y-86221064D01*
X127016289Y-86101129D01*
X126993406Y-86096672D01*
X126958665Y-86092417D01*
X126910145Y-86088360D01*
X126845926Y-86084495D01*
X126764087Y-86080817D01*
X126662707Y-86077322D01*
X126539865Y-86074004D01*
X126393640Y-86070859D01*
X126222112Y-86067882D01*
X126023359Y-86065069D01*
X125795461Y-86062413D01*
X125536497Y-86059911D01*
X125244545Y-86057557D01*
X124917686Y-86055347D01*
X124553998Y-86053276D01*
X124151560Y-86051338D01*
X123708452Y-86049530D01*
X123222753Y-86047845D01*
X122692541Y-86046280D01*
X122115897Y-86044829D01*
X121490898Y-86043488D01*
X120815625Y-86042251D01*
X120088156Y-86041114D01*
X119306571Y-86040072D01*
X118468949Y-86039120D01*
X117573368Y-86038254D01*
X116617908Y-86037467D01*
X115600649Y-86036756D01*
X114519668Y-86036115D01*
X113373046Y-86035541D01*
X112158862Y-86035026D01*
X110875194Y-86034568D01*
X109520123Y-86034161D01*
X108091726Y-86033800D01*
X106588083Y-86033481D01*
X105007274Y-86033198D01*
X103347377Y-86032946D01*
X101606471Y-86032721D01*
X99960488Y-86032537D01*
X73158517Y-86029720D01*
X72827675Y-86140706D01*
X72425344Y-86307903D01*
X72092995Y-86518327D01*
X71824923Y-86777267D01*
X71615420Y-87090009D01*
X71485538Y-87384185D01*
X71391284Y-87644491D01*
X69065392Y-87660548D01*
X68559241Y-87664194D01*
X68130322Y-87667767D01*
X67771197Y-87671553D01*
X67474433Y-87675840D01*
X67232594Y-87680915D01*
X67038244Y-87687064D01*
X66883948Y-87694574D01*
X66762272Y-87703732D01*
X66665779Y-87714826D01*
X66587034Y-87728142D01*
X66518603Y-87743966D01*
X66457760Y-87761168D01*
X66121970Y-87888758D01*
X65831882Y-88062566D01*
X65587503Y-88269613D01*
X65377742Y-88492954D01*
X65222273Y-88717504D01*
X65099660Y-88977038D01*
X65047217Y-89120911D01*
X64940914Y-89433453D01*
X59270817Y-89433453D01*
X59271683Y-88621447D01*
X59273118Y-87552287D01*
X59274767Y-86558625D01*
X59276627Y-85641184D01*
X59278697Y-84800685D01*
X59280975Y-84037850D01*
X59283460Y-83353400D01*
X59286148Y-82748058D01*
X59289039Y-82222545D01*
X59292129Y-81777583D01*
X59295419Y-81413893D01*
X59298905Y-81132198D01*
X59302585Y-80933219D01*
X59306458Y-80817677D01*
X59309292Y-80786799D01*
X59391628Y-80620782D01*
X59526807Y-80466965D01*
X59687176Y-80353227D01*
X59773788Y-80318489D01*
X59824005Y-80316225D01*
X59956636Y-80314022D01*
X60169430Y-80311880D01*
X60460133Y-80309800D01*
X60826495Y-80307780D01*
X61266263Y-80305821D01*
X61777185Y-80303924D01*
X62357009Y-80302087D01*
X63003482Y-80300312D01*
X63714353Y-80298597D01*
X64487369Y-80296944D01*
X65320278Y-80295351D01*
X66210829Y-80293820D01*
X67156768Y-80292349D01*
X68155845Y-80290940D01*
X69205806Y-80289591D01*
X70304400Y-80288304D01*
X71449374Y-80287078D01*
X72638476Y-80285912D01*
X73869455Y-80284808D01*
X75140058Y-80283765D01*
X76448033Y-80282783D01*
X77791128Y-80281862D01*
X79167091Y-80281001D01*
X80573669Y-80280202D01*
X82008611Y-80279464D01*
X83469664Y-80278787D01*
X84954576Y-80278171D01*
X86461095Y-80277616D01*
X87986970Y-80277122D01*
X89529947Y-80276689D01*
X91087775Y-80276317D01*
X92658201Y-80276006D01*
X94238974Y-80275757D01*
X95827842Y-80275568D01*
X97422551Y-80275440D01*
X99020851Y-80275373D01*
X100620489Y-80275367D01*
X102219212Y-80275423D01*
G36*
X93531376Y-121043382D02*
X93586378Y-121173578D01*
X93661570Y-121378666D01*
X93709520Y-121509000D01*
X93788056Y-121720526D01*
X93854983Y-121901926D01*
X93905241Y-122039394D01*
X93933770Y-122119124D01*
X93938369Y-122133417D01*
X93899013Y-122137674D01*
X93792083Y-122141113D01*
X93634674Y-122143344D01*
X93474047Y-122144000D01*
X93009428Y-122144000D01*
X93055039Y-122027583D01*
X93089704Y-121936669D01*
X93144146Y-121791186D01*
X93209055Y-121616079D01*
X93240703Y-121530167D01*
X93331262Y-121279738D01*
X93396508Y-121106257D01*
X93445542Y-121009311D01*
X93487464Y-120988489D01*
X93531376Y-121043382D01*
X93531376Y-121043382D01*
G37*
X93531376Y-121043382D02*
X93586378Y-121173578D01*
X93661570Y-121378666D01*
X93709520Y-121509000D01*
X93788056Y-121720526D01*
X93854983Y-121901926D01*
X93905241Y-122039394D01*
X93933770Y-122119124D01*
X93938369Y-122133417D01*
X93899013Y-122137674D01*
X93792083Y-122141113D01*
X93634674Y-122143344D01*
X93474047Y-122144000D01*
X93009428Y-122144000D01*
X93055039Y-122027583D01*
X93089704Y-121936669D01*
X93144146Y-121791186D01*
X93209055Y-121616079D01*
X93240703Y-121530167D01*
X93331262Y-121279738D01*
X93396508Y-121106257D01*
X93445542Y-121009311D01*
X93487464Y-120988489D01*
X93531376Y-121043382D01*
G36*
X95741499Y-120837907D02*
X95920967Y-120847341D01*
X96037706Y-120861925D01*
X96113646Y-120887956D01*
X96170717Y-120931729D01*
X96207166Y-120971611D01*
X96295516Y-121133710D01*
X96313979Y-121315283D01*
X96263453Y-121490304D01*
X96185589Y-121596923D01*
X96117816Y-121658793D01*
X96051408Y-121695676D01*
X95962221Y-121713986D01*
X95826112Y-121720139D01*
X95719923Y-121720667D01*
X95378000Y-121720667D01*
X95378000Y-120822978D01*
X95741499Y-120837907D01*
X95741499Y-120837907D01*
G37*
X95741499Y-120837907D02*
X95920967Y-120847341D01*
X96037706Y-120861925D01*
X96113646Y-120887956D01*
X96170717Y-120931729D01*
X96207166Y-120971611D01*
X96295516Y-121133710D01*
X96313979Y-121315283D01*
X96263453Y-121490304D01*
X96185589Y-121596923D01*
X96117816Y-121658793D01*
X96051408Y-121695676D01*
X95962221Y-121713986D01*
X95826112Y-121720139D01*
X95719923Y-121720667D01*
X95378000Y-121720667D01*
X95378000Y-120822978D01*
X95741499Y-120837907D01*
G36*
X100101832Y-120837907D02*
X100281300Y-120847341D01*
X100398040Y-120861925D01*
X100473980Y-120887956D01*
X100531051Y-120931729D01*
X100567499Y-120971611D01*
X100655850Y-121133710D01*
X100674313Y-121315283D01*
X100623787Y-121490304D01*
X100545923Y-121596923D01*
X100478150Y-121658793D01*
X100411741Y-121695676D01*
X100322554Y-121713986D01*
X100186445Y-121720139D01*
X100080256Y-121720667D01*
X99738333Y-121720667D01*
X99738333Y-120822978D01*
X100101832Y-120837907D01*
X100101832Y-120837907D01*
G37*
X100101832Y-120837907D02*
X100281300Y-120847341D01*
X100398040Y-120861925D01*
X100473980Y-120887956D01*
X100531051Y-120931729D01*
X100567499Y-120971611D01*
X100655850Y-121133710D01*
X100674313Y-121315283D01*
X100623787Y-121490304D01*
X100545923Y-121596923D01*
X100478150Y-121658793D01*
X100411741Y-121695676D01*
X100322554Y-121713986D01*
X100186445Y-121720139D01*
X100080256Y-121720667D01*
X99738333Y-121720667D01*
X99738333Y-120822978D01*
X100101832Y-120837907D01*
G36*
X103643583Y-120838515D02*
X103857942Y-120849810D01*
X104011513Y-120867632D01*
X104128156Y-120896629D01*
X104231729Y-120941450D01*
X104265718Y-120959733D01*
X104443697Y-121093628D01*
X104565677Y-121270869D01*
X104636153Y-121501243D01*
X104659616Y-121794537D01*
X104659613Y-121817845D01*
X104649934Y-122031186D01*
X104625287Y-122210730D01*
X104595929Y-122314500D01*
X104472687Y-122516112D01*
X104293167Y-122665148D01*
X104053095Y-122763662D01*
X103748195Y-122813707D01*
X103540649Y-122821333D01*
X103209666Y-122821333D01*
X103209666Y-120822064D01*
X103643583Y-120838515D01*
X103643583Y-120838515D01*
G37*
X103643583Y-120838515D02*
X103857942Y-120849810D01*
X104011513Y-120867632D01*
X104128156Y-120896629D01*
X104231729Y-120941450D01*
X104265718Y-120959733D01*
X104443697Y-121093628D01*
X104565677Y-121270869D01*
X104636153Y-121501243D01*
X104659616Y-121794537D01*
X104659613Y-121817845D01*
X104649934Y-122031186D01*
X104625287Y-122210730D01*
X104595929Y-122314500D01*
X104472687Y-122516112D01*
X104293167Y-122665148D01*
X104053095Y-122763662D01*
X103748195Y-122813707D01*
X103540649Y-122821333D01*
X103209666Y-122821333D01*
X103209666Y-120822064D01*
X103643583Y-120838515D01*
G04 #@! TD*
M02*
