G04 #@! TF.FileFunction,Soldermask,Top*
%FSLAX46Y46*%
G04 Gerber Fmt 4.6, Leading zero omitted, Abs format (unit mm)*
G04 Created by KiCad (PCBNEW 0.201511241017+6328~38~ubuntu14.04.1-stable) date Mon 30 Nov 2015 09:24:39 AM CET*
%MOMM*%
G01*
G04 APERTURE LIST*
%ADD10C,0.100000*%
%ADD11C,3.200000*%
%ADD12R,1.550000X1.300000*%
%ADD13R,2.250000X2.250000*%
%ADD14C,0.604800*%
%ADD15C,1.510000*%
%ADD16R,1.510000X1.510000*%
%ADD17R,0.300000X1.250000*%
%ADD18R,2.000000X3.000000*%
%ADD19C,2.400000*%
%ADD20R,0.700000X0.800000*%
%ADD21R,1.501140X1.501140*%
%ADD22R,1.198880X1.198880*%
%ADD23R,1.397000X1.397000*%
%ADD24C,1.397000*%
%ADD25R,2.000000X4.000000*%
%ADD26C,0.254000*%
G04 APERTURE END LIST*
D10*
D11*
X56000000Y-74500000D03*
X56000000Y-125500000D03*
X144000000Y-125500000D03*
D12*
X72025000Y-137750000D03*
X72025000Y-133250000D03*
X79975000Y-133250000D03*
X79975000Y-137750000D03*
X120000000Y-137750000D03*
X120025000Y-133250000D03*
X127975000Y-133250000D03*
X127975000Y-137750000D03*
X89525000Y-139250000D03*
X89525000Y-134750000D03*
X97475000Y-134750000D03*
X97475000Y-139250000D03*
D13*
X79375000Y-90375000D03*
D14*
X79375000Y-90375000D03*
D13*
X82125000Y-90375000D03*
D14*
X82125000Y-90375000D03*
D13*
X84875000Y-90375000D03*
D14*
X84875000Y-90375000D03*
D13*
X87625000Y-90375000D03*
D14*
X87625000Y-90375000D03*
D13*
X90375000Y-90375000D03*
D14*
X90375000Y-90375000D03*
D13*
X93125000Y-90375000D03*
D14*
X93125000Y-90375000D03*
D13*
X95875000Y-90375000D03*
D14*
X95875000Y-90375000D03*
D13*
X98625000Y-90375000D03*
D14*
X98625000Y-90375000D03*
D13*
X79375000Y-93125000D03*
D14*
X79375000Y-93125000D03*
D13*
X82125000Y-93125000D03*
D14*
X82125000Y-93125000D03*
D13*
X84875000Y-93125000D03*
D14*
X84875000Y-93125000D03*
D13*
X87625000Y-93125000D03*
D14*
X87625000Y-93125000D03*
D13*
X90375000Y-93125000D03*
D14*
X90375000Y-93125000D03*
D13*
X93125000Y-93125000D03*
D14*
X93125000Y-93125000D03*
D13*
X95875000Y-93125000D03*
D14*
X95875000Y-93125000D03*
D13*
X98625000Y-93125000D03*
D14*
X98625000Y-93125000D03*
D13*
X79375000Y-95875000D03*
D14*
X79375000Y-95875000D03*
D13*
X82125000Y-95875000D03*
D14*
X82125000Y-95875000D03*
D13*
X84875000Y-95875000D03*
D14*
X84875000Y-95875000D03*
D13*
X87625000Y-95875000D03*
D14*
X87625000Y-95875000D03*
D13*
X90375000Y-95875000D03*
D14*
X90375000Y-95875000D03*
D13*
X93125000Y-95875000D03*
D14*
X93125000Y-95875000D03*
D13*
X95875000Y-95875000D03*
D14*
X95875000Y-95875000D03*
D13*
X98625000Y-95875000D03*
D14*
X98625000Y-95875000D03*
D13*
X79375000Y-98625000D03*
D14*
X79375000Y-98625000D03*
D13*
X82125000Y-98625000D03*
D14*
X82125000Y-98625000D03*
D13*
X84875000Y-98625000D03*
D14*
X84875000Y-98625000D03*
D13*
X87625000Y-98625000D03*
D14*
X87625000Y-98625000D03*
D13*
X90375000Y-98625000D03*
D14*
X90375000Y-98625000D03*
D13*
X93125000Y-98625000D03*
D14*
X93125000Y-98625000D03*
D13*
X95875000Y-98625000D03*
D14*
X95875000Y-98625000D03*
D13*
X98625000Y-98625000D03*
D14*
X98625000Y-98625000D03*
D13*
X79375000Y-101375000D03*
D14*
X79375000Y-101375000D03*
D13*
X82125000Y-101375000D03*
D14*
X82125000Y-101375000D03*
D13*
X84875000Y-101375000D03*
D14*
X84875000Y-101375000D03*
D13*
X87625000Y-101375000D03*
D14*
X87625000Y-101375000D03*
D13*
X90375000Y-101375000D03*
D14*
X90375000Y-101375000D03*
D13*
X93125000Y-101375000D03*
D14*
X93125000Y-101375000D03*
D13*
X95875000Y-101375000D03*
D14*
X95875000Y-101375000D03*
D13*
X98625000Y-101375000D03*
D14*
X98625000Y-101375000D03*
D13*
X79375000Y-104125000D03*
D14*
X79375000Y-104125000D03*
D13*
X82125000Y-104125000D03*
D14*
X82125000Y-104125000D03*
D13*
X84875000Y-104125000D03*
D14*
X84875000Y-104125000D03*
D13*
X87625000Y-104125000D03*
D14*
X87625000Y-104125000D03*
D13*
X90375000Y-104125000D03*
D14*
X90375000Y-104125000D03*
D13*
X93125000Y-104125000D03*
D14*
X93125000Y-104125000D03*
D13*
X95875000Y-104125000D03*
D14*
X95875000Y-104125000D03*
D13*
X98625000Y-104125000D03*
D14*
X98625000Y-104125000D03*
D13*
X79375000Y-106875000D03*
D14*
X79375000Y-106875000D03*
D13*
X82125000Y-106875000D03*
D14*
X82125000Y-106875000D03*
D13*
X84875000Y-106875000D03*
D14*
X84875000Y-106875000D03*
D13*
X87625000Y-106875000D03*
D14*
X87625000Y-106875000D03*
D13*
X90375000Y-106875000D03*
D14*
X90375000Y-106875000D03*
D13*
X93125000Y-106875000D03*
D14*
X93125000Y-106875000D03*
D13*
X95875000Y-106875000D03*
D14*
X95875000Y-106875000D03*
D13*
X98625000Y-106875000D03*
D14*
X98625000Y-106875000D03*
D13*
X79375000Y-109625000D03*
D14*
X79375000Y-109625000D03*
D13*
X82125000Y-109625000D03*
D14*
X82125000Y-109625000D03*
D13*
X84875000Y-109625000D03*
D14*
X84875000Y-109625000D03*
D13*
X87625000Y-109625000D03*
D14*
X87625000Y-109625000D03*
D13*
X90375000Y-109625000D03*
D14*
X90375000Y-109625000D03*
D13*
X93125000Y-109625000D03*
D14*
X93125000Y-109625000D03*
D13*
X95875000Y-109625000D03*
D14*
X95875000Y-109625000D03*
D13*
X98625000Y-109625000D03*
D14*
X98625000Y-109625000D03*
D15*
X70536000Y-62154000D03*
D16*
X65456000Y-62154000D03*
D15*
X67996000Y-64694000D03*
D17*
X139000000Y-53500000D03*
X137000000Y-53500000D03*
X137500000Y-53500000D03*
X138500000Y-53500000D03*
X138000000Y-53500000D03*
X136000000Y-53500000D03*
X136500000Y-53500000D03*
X135500000Y-53500000D03*
X135000000Y-53500000D03*
X132000000Y-53500000D03*
X132500000Y-53500000D03*
X133500000Y-53500000D03*
X133000000Y-53500000D03*
X134500000Y-53500000D03*
X134000000Y-53500000D03*
X126500000Y-53500000D03*
X127000000Y-53500000D03*
X125500000Y-53500000D03*
X126000000Y-53500000D03*
X125000000Y-53500000D03*
X124500000Y-53500000D03*
X127500000Y-53500000D03*
X128000000Y-53500000D03*
X129000000Y-53500000D03*
X128500000Y-53500000D03*
X130500000Y-53500000D03*
X131000000Y-53500000D03*
X130000000Y-53500000D03*
X129500000Y-53500000D03*
D18*
X122960000Y-55825000D03*
X140540000Y-55825000D03*
D17*
X131500000Y-53500000D03*
D13*
X120625000Y-101375000D03*
D14*
X120625000Y-101375000D03*
D13*
X120625000Y-104125000D03*
D14*
X120625000Y-104125000D03*
D13*
X120625000Y-106875000D03*
D14*
X120625000Y-106875000D03*
D13*
X120625000Y-109625000D03*
D14*
X120625000Y-109625000D03*
D13*
X117875000Y-101375000D03*
D14*
X117875000Y-101375000D03*
D13*
X117875000Y-104125000D03*
D14*
X117875000Y-104125000D03*
D13*
X117875000Y-109625000D03*
D14*
X117875000Y-109625000D03*
D13*
X117875000Y-106875000D03*
D14*
X117875000Y-106875000D03*
D13*
X115125000Y-101375000D03*
D14*
X115125000Y-101375000D03*
D13*
X115125000Y-106875000D03*
D14*
X115125000Y-106875000D03*
D13*
X115125000Y-109625000D03*
D14*
X115125000Y-109625000D03*
D13*
X115125000Y-104125000D03*
D14*
X115125000Y-104125000D03*
D13*
X112375000Y-101375000D03*
D14*
X112375000Y-101375000D03*
D13*
X112375000Y-109625000D03*
D14*
X112375000Y-109625000D03*
D13*
X112375000Y-106875000D03*
D14*
X112375000Y-106875000D03*
D13*
X112375000Y-104125000D03*
D14*
X112375000Y-104125000D03*
D13*
X109625000Y-101375000D03*
D14*
X109625000Y-101375000D03*
D13*
X109625000Y-109625000D03*
D14*
X109625000Y-109625000D03*
D13*
X109625000Y-106875000D03*
D14*
X109625000Y-106875000D03*
D13*
X109625000Y-104125000D03*
D14*
X109625000Y-104125000D03*
D13*
X106875000Y-109625000D03*
D14*
X106875000Y-109625000D03*
D13*
X106875000Y-106875000D03*
D14*
X106875000Y-106875000D03*
D13*
X106875000Y-104125000D03*
D14*
X106875000Y-104125000D03*
D13*
X106875000Y-101375000D03*
D14*
X106875000Y-101375000D03*
D13*
X104125000Y-109625000D03*
D14*
X104125000Y-109625000D03*
D13*
X101375000Y-106875000D03*
D14*
X101375000Y-106875000D03*
D13*
X101375000Y-104125000D03*
D14*
X101375000Y-104125000D03*
D13*
X104125000Y-104125000D03*
D14*
X104125000Y-104125000D03*
D13*
X104125000Y-106875000D03*
D14*
X104125000Y-106875000D03*
D13*
X101375000Y-109625000D03*
D14*
X101375000Y-109625000D03*
D13*
X101375000Y-101375000D03*
D14*
X101375000Y-101375000D03*
D13*
X104125000Y-101375000D03*
D14*
X104125000Y-101375000D03*
D13*
X104125000Y-98625000D03*
D14*
X104125000Y-98625000D03*
D13*
X101375000Y-98625000D03*
D14*
X101375000Y-98625000D03*
D13*
X101375000Y-90375000D03*
D14*
X101375000Y-90375000D03*
D13*
X104125000Y-93125000D03*
D14*
X104125000Y-93125000D03*
D13*
X101375000Y-95875000D03*
D14*
X101375000Y-95875000D03*
D13*
X104125000Y-95875000D03*
D14*
X104125000Y-95875000D03*
D13*
X101375000Y-93125000D03*
D14*
X101375000Y-93125000D03*
D13*
X104125000Y-90375000D03*
D14*
X104125000Y-90375000D03*
D13*
X106875000Y-98625000D03*
D14*
X106875000Y-98625000D03*
D13*
X106875000Y-95875000D03*
D14*
X106875000Y-95875000D03*
D13*
X106875000Y-93125000D03*
D14*
X106875000Y-93125000D03*
D13*
X106875000Y-90375000D03*
D14*
X106875000Y-90375000D03*
D13*
X109625000Y-95875000D03*
D14*
X109625000Y-95875000D03*
D13*
X109625000Y-93125000D03*
D14*
X109625000Y-93125000D03*
D13*
X109625000Y-90375000D03*
D14*
X109625000Y-90375000D03*
D13*
X109625000Y-98625000D03*
D14*
X109625000Y-98625000D03*
D13*
X112375000Y-95875000D03*
D14*
X112375000Y-95875000D03*
D13*
X112375000Y-93125000D03*
D14*
X112375000Y-93125000D03*
D13*
X112375000Y-90375000D03*
D14*
X112375000Y-90375000D03*
D13*
X112375000Y-98625000D03*
D14*
X112375000Y-98625000D03*
D13*
X115125000Y-95875000D03*
D14*
X115125000Y-95875000D03*
D13*
X115125000Y-90375000D03*
D14*
X115125000Y-90375000D03*
D13*
X115125000Y-93125000D03*
D14*
X115125000Y-93125000D03*
D13*
X115125000Y-98625000D03*
D14*
X115125000Y-98625000D03*
D13*
X117875000Y-93125000D03*
D14*
X117875000Y-93125000D03*
D13*
X117875000Y-90375000D03*
D14*
X117875000Y-90375000D03*
D13*
X117875000Y-95875000D03*
D14*
X117875000Y-95875000D03*
D13*
X117875000Y-98625000D03*
D14*
X117875000Y-98625000D03*
D13*
X120625000Y-90375000D03*
D14*
X120625000Y-90375000D03*
D13*
X120625000Y-93125000D03*
D14*
X120625000Y-93125000D03*
D13*
X120625000Y-95875000D03*
D14*
X120625000Y-95875000D03*
D13*
X120625000Y-98625000D03*
D14*
X120625000Y-98625000D03*
D19*
X58500000Y-49500000D03*
X58500000Y-45000000D03*
D20*
X84500000Y-132500000D03*
X87500000Y-132500000D03*
X98500000Y-132500000D03*
X101500000Y-132500000D03*
X112500000Y-132500000D03*
X115500000Y-132500000D03*
X87500000Y-67500000D03*
X84500000Y-67500000D03*
X101500000Y-67500000D03*
X98500000Y-67500000D03*
D12*
X102525000Y-139250000D03*
X102525000Y-134750000D03*
X110475000Y-134750000D03*
X110000000Y-139250000D03*
D11*
X144000000Y-74500000D03*
D20*
X115500000Y-67500000D03*
X112500000Y-67500000D03*
D21*
X147244000Y-66472000D03*
D22*
X115494000Y-60342980D03*
X115494000Y-62441020D03*
X115494000Y-56024980D03*
X115494000Y-58123020D03*
D23*
X58500000Y-63040000D03*
D24*
X58500000Y-60500000D03*
X58500000Y-57960000D03*
D25*
X113112000Y-53010000D03*
X101112000Y-53010000D03*
D26*
G36*
X149885000Y-131369000D02*
X50139000Y-131369000D01*
X50139000Y-68623000D01*
X149885000Y-68623000D01*
X149885000Y-131369000D01*
X149885000Y-131369000D01*
G37*
X149885000Y-131369000D02*
X50139000Y-131369000D01*
X50139000Y-68623000D01*
X149885000Y-68623000D01*
X149885000Y-131369000D01*
M02*
