G04 #@! TF.FileFunction,Legend,Bot*
%FSLAX46Y46*%
G04 Gerber Fmt 4.6, Leading zero omitted, Abs format (unit mm)*
G04 Created by KiCad (PCBNEW 0.201511241017+6328~38~ubuntu14.04.1-stable) date Mon 30 Nov 2015 09:24:39 AM CET*
%MOMM*%
G01*
G04 APERTURE LIST*
%ADD10C,0.100000*%
%ADD11C,0.400000*%
%ADD12C,0.150000*%
%ADD13C,0.200000*%
%ADD14C,0.300000*%
%ADD15C,0.152400*%
G04 APERTURE END LIST*
D10*
X103915210Y-91872000D02*
G75*
G03X103915210Y-91872000I-359210J0D01*
G01*
X96803210Y-108128000D02*
G75*
G03X96803210Y-108128000I-359210J0D01*
G01*
D11*
X111994095Y-119821429D02*
X112827428Y-119821429D01*
X112827428Y-121130952D02*
X112827428Y-118630952D01*
X111636952Y-118630952D01*
X109732190Y-121011905D02*
X109970285Y-121130952D01*
X110446476Y-121130952D01*
X110684571Y-121011905D01*
X110803619Y-120773810D01*
X110803619Y-119821429D01*
X110684571Y-119583333D01*
X110446476Y-119464286D01*
X109970285Y-119464286D01*
X109732190Y-119583333D01*
X109613142Y-119821429D01*
X109613142Y-120059524D01*
X110803619Y-120297619D01*
X108660762Y-121011905D02*
X108422666Y-121130952D01*
X107946476Y-121130952D01*
X107708381Y-121011905D01*
X107589333Y-120773810D01*
X107589333Y-120654762D01*
X107708381Y-120416667D01*
X107946476Y-120297619D01*
X108303619Y-120297619D01*
X108541714Y-120178571D01*
X108660762Y-119940476D01*
X108660762Y-119821429D01*
X108541714Y-119583333D01*
X108303619Y-119464286D01*
X107946476Y-119464286D01*
X107708381Y-119583333D01*
X106875047Y-119464286D02*
X105922666Y-119464286D01*
X106517904Y-118630952D02*
X106517904Y-120773810D01*
X106398856Y-121011905D01*
X106160761Y-121130952D01*
X105922666Y-121130952D01*
X105089333Y-121130952D02*
X105089333Y-119464286D01*
X105089333Y-118630952D02*
X105208381Y-118750000D01*
X105089333Y-118869048D01*
X104970285Y-118750000D01*
X105089333Y-118630952D01*
X105089333Y-118869048D01*
X103898857Y-119464286D02*
X103898857Y-121130952D01*
X103898857Y-119702381D02*
X103779809Y-119583333D01*
X103541714Y-119464286D01*
X103184571Y-119464286D01*
X102946476Y-119583333D01*
X102827428Y-119821429D01*
X102827428Y-121130952D01*
X100565523Y-121130952D02*
X100565523Y-119821429D01*
X100684571Y-119583333D01*
X100922666Y-119464286D01*
X101398857Y-119464286D01*
X101636952Y-119583333D01*
X100565523Y-121011905D02*
X100803619Y-121130952D01*
X101398857Y-121130952D01*
X101636952Y-121011905D01*
X101756000Y-120773810D01*
X101756000Y-120535714D01*
X101636952Y-120297619D01*
X101398857Y-120178571D01*
X100803619Y-120178571D01*
X100565523Y-120059524D01*
X97113142Y-121130952D02*
X97351237Y-121011905D01*
X97470285Y-120773810D01*
X97470285Y-118630952D01*
X95208380Y-121011905D02*
X95446475Y-121130952D01*
X95922666Y-121130952D01*
X96160761Y-121011905D01*
X96279809Y-120773810D01*
X96279809Y-119821429D01*
X96160761Y-119583333D01*
X95922666Y-119464286D01*
X95446475Y-119464286D01*
X95208380Y-119583333D01*
X95089332Y-119821429D01*
X95089332Y-120059524D01*
X96279809Y-120297619D01*
X94017904Y-119464286D02*
X94017904Y-121130952D01*
X94017904Y-119702381D02*
X93898856Y-119583333D01*
X93660761Y-119464286D01*
X93303618Y-119464286D01*
X93065523Y-119583333D01*
X92946475Y-119821429D01*
X92946475Y-121130952D01*
X92113142Y-119464286D02*
X91160761Y-119464286D01*
X91755999Y-118630952D02*
X91755999Y-120773810D01*
X91636951Y-121011905D01*
X91398856Y-121130952D01*
X91160761Y-121130952D01*
X89375047Y-121011905D02*
X89613142Y-121130952D01*
X90089333Y-121130952D01*
X90327428Y-121011905D01*
X90446476Y-120773810D01*
X90446476Y-119821429D01*
X90327428Y-119583333D01*
X90089333Y-119464286D01*
X89613142Y-119464286D01*
X89375047Y-119583333D01*
X89255999Y-119821429D01*
X89255999Y-120059524D01*
X90446476Y-120297619D01*
X88184571Y-120892857D02*
X88065523Y-121011905D01*
X88184571Y-121130952D01*
X88303619Y-121011905D01*
X88184571Y-120892857D01*
X88184571Y-121130952D01*
X88184571Y-120178571D02*
X88303619Y-118750000D01*
X88184571Y-118630952D01*
X88065523Y-118750000D01*
X88184571Y-120178571D01*
X88184571Y-118630952D01*
D12*
X52863143Y-82666666D02*
X52910762Y-82619047D01*
X52958381Y-82476190D01*
X52958381Y-82380952D01*
X52910762Y-82238094D01*
X52815524Y-82142856D01*
X52720286Y-82095237D01*
X52529810Y-82047618D01*
X52386952Y-82047618D01*
X52196476Y-82095237D01*
X52101238Y-82142856D01*
X52006000Y-82238094D01*
X51958381Y-82380952D01*
X51958381Y-82476190D01*
X52006000Y-82619047D01*
X52053619Y-82666666D01*
X52958381Y-83238094D02*
X52910762Y-83142856D01*
X52863143Y-83095237D01*
X52767905Y-83047618D01*
X52482190Y-83047618D01*
X52386952Y-83095237D01*
X52339333Y-83142856D01*
X52291714Y-83238094D01*
X52291714Y-83380952D01*
X52339333Y-83476190D01*
X52386952Y-83523809D01*
X52482190Y-83571428D01*
X52767905Y-83571428D01*
X52863143Y-83523809D01*
X52910762Y-83476190D01*
X52958381Y-83380952D01*
X52958381Y-83238094D01*
X52958381Y-83999999D02*
X52291714Y-83999999D01*
X52386952Y-83999999D02*
X52339333Y-84047618D01*
X52291714Y-84142856D01*
X52291714Y-84285714D01*
X52339333Y-84380952D01*
X52434571Y-84428571D01*
X52958381Y-84428571D01*
X52434571Y-84428571D02*
X52339333Y-84476190D01*
X52291714Y-84571428D01*
X52291714Y-84714285D01*
X52339333Y-84809523D01*
X52434571Y-84857142D01*
X52958381Y-84857142D01*
X52958381Y-85333332D02*
X52291714Y-85333332D01*
X52386952Y-85333332D02*
X52339333Y-85380951D01*
X52291714Y-85476189D01*
X52291714Y-85619047D01*
X52339333Y-85714285D01*
X52434571Y-85761904D01*
X52958381Y-85761904D01*
X52434571Y-85761904D02*
X52339333Y-85809523D01*
X52291714Y-85904761D01*
X52291714Y-86047618D01*
X52339333Y-86142856D01*
X52434571Y-86190475D01*
X52958381Y-86190475D01*
X52291714Y-87095237D02*
X52958381Y-87095237D01*
X52291714Y-86666665D02*
X52815524Y-86666665D01*
X52910762Y-86714284D01*
X52958381Y-86809522D01*
X52958381Y-86952380D01*
X52910762Y-87047618D01*
X52863143Y-87095237D01*
X52291714Y-87571427D02*
X52958381Y-87571427D01*
X52386952Y-87571427D02*
X52339333Y-87619046D01*
X52291714Y-87714284D01*
X52291714Y-87857142D01*
X52339333Y-87952380D01*
X52434571Y-87999999D01*
X52958381Y-87999999D01*
X52958381Y-88476189D02*
X52291714Y-88476189D01*
X51958381Y-88476189D02*
X52006000Y-88428570D01*
X52053619Y-88476189D01*
X52006000Y-88523808D01*
X51958381Y-88476189D01*
X52053619Y-88476189D01*
X52291714Y-88809522D02*
X52291714Y-89190474D01*
X51958381Y-88952379D02*
X52815524Y-88952379D01*
X52910762Y-88999998D01*
X52958381Y-89095236D01*
X52958381Y-89190474D01*
X52291714Y-89428570D02*
X52958381Y-89666665D01*
X52291714Y-89904761D02*
X52958381Y-89666665D01*
X53196476Y-89571427D01*
X53244095Y-89523808D01*
X53291714Y-89428570D01*
X52863143Y-91619047D02*
X52910762Y-91571428D01*
X52958381Y-91428571D01*
X52958381Y-91333333D01*
X52910762Y-91190475D01*
X52815524Y-91095237D01*
X52720286Y-91047618D01*
X52529810Y-90999999D01*
X52386952Y-90999999D01*
X52196476Y-91047618D01*
X52101238Y-91095237D01*
X52006000Y-91190475D01*
X51958381Y-91333333D01*
X51958381Y-91428571D01*
X52006000Y-91571428D01*
X52053619Y-91619047D01*
X52958381Y-92190475D02*
X52910762Y-92095237D01*
X52863143Y-92047618D01*
X52767905Y-91999999D01*
X52482190Y-91999999D01*
X52386952Y-92047618D01*
X52339333Y-92095237D01*
X52291714Y-92190475D01*
X52291714Y-92333333D01*
X52339333Y-92428571D01*
X52386952Y-92476190D01*
X52482190Y-92523809D01*
X52767905Y-92523809D01*
X52863143Y-92476190D01*
X52910762Y-92428571D01*
X52958381Y-92333333D01*
X52958381Y-92190475D01*
X52958381Y-93095237D02*
X52910762Y-92999999D01*
X52863143Y-92952380D01*
X52767905Y-92904761D01*
X52482190Y-92904761D01*
X52386952Y-92952380D01*
X52339333Y-92999999D01*
X52291714Y-93095237D01*
X52291714Y-93238095D01*
X52339333Y-93333333D01*
X52386952Y-93380952D01*
X52482190Y-93428571D01*
X52767905Y-93428571D01*
X52863143Y-93380952D01*
X52910762Y-93333333D01*
X52958381Y-93238095D01*
X52958381Y-93095237D01*
X52958381Y-93857142D02*
X52291714Y-93857142D01*
X52482190Y-93857142D02*
X52386952Y-93904761D01*
X52339333Y-93952380D01*
X52291714Y-94047618D01*
X52291714Y-94142857D01*
X52958381Y-94904762D02*
X51958381Y-94904762D01*
X52910762Y-94904762D02*
X52958381Y-94809524D01*
X52958381Y-94619047D01*
X52910762Y-94523809D01*
X52863143Y-94476190D01*
X52767905Y-94428571D01*
X52482190Y-94428571D01*
X52386952Y-94476190D01*
X52339333Y-94523809D01*
X52291714Y-94619047D01*
X52291714Y-94809524D01*
X52339333Y-94904762D01*
X52958381Y-95380952D02*
X52291714Y-95380952D01*
X51958381Y-95380952D02*
X52006000Y-95333333D01*
X52053619Y-95380952D01*
X52006000Y-95428571D01*
X51958381Y-95380952D01*
X52053619Y-95380952D01*
X52291714Y-95857142D02*
X52958381Y-95857142D01*
X52386952Y-95857142D02*
X52339333Y-95904761D01*
X52291714Y-95999999D01*
X52291714Y-96142857D01*
X52339333Y-96238095D01*
X52434571Y-96285714D01*
X52958381Y-96285714D01*
X52958381Y-97190476D02*
X52434571Y-97190476D01*
X52339333Y-97142857D01*
X52291714Y-97047619D01*
X52291714Y-96857142D01*
X52339333Y-96761904D01*
X52910762Y-97190476D02*
X52958381Y-97095238D01*
X52958381Y-96857142D01*
X52910762Y-96761904D01*
X52815524Y-96714285D01*
X52720286Y-96714285D01*
X52625048Y-96761904D01*
X52577429Y-96857142D01*
X52577429Y-97095238D01*
X52529810Y-97190476D01*
X52291714Y-97523809D02*
X52291714Y-97904761D01*
X51958381Y-97666666D02*
X52815524Y-97666666D01*
X52910762Y-97714285D01*
X52958381Y-97809523D01*
X52958381Y-97904761D01*
X52958381Y-98380952D02*
X52910762Y-98285714D01*
X52863143Y-98238095D01*
X52767905Y-98190476D01*
X52482190Y-98190476D01*
X52386952Y-98238095D01*
X52339333Y-98285714D01*
X52291714Y-98380952D01*
X52291714Y-98523810D01*
X52339333Y-98619048D01*
X52386952Y-98666667D01*
X52482190Y-98714286D01*
X52767905Y-98714286D01*
X52863143Y-98666667D01*
X52910762Y-98619048D01*
X52958381Y-98523810D01*
X52958381Y-98380952D01*
X52958381Y-99142857D02*
X52291714Y-99142857D01*
X52482190Y-99142857D02*
X52386952Y-99190476D01*
X52339333Y-99238095D01*
X52291714Y-99333333D01*
X52291714Y-99428572D01*
X52863143Y-99761905D02*
X52910762Y-99809524D01*
X52958381Y-99761905D01*
X52910762Y-99714286D01*
X52863143Y-99761905D01*
X52958381Y-99761905D01*
X52339333Y-99761905D02*
X52386952Y-99809524D01*
X52434571Y-99761905D01*
X52386952Y-99714286D01*
X52339333Y-99761905D01*
X52434571Y-99761905D01*
X52434571Y-101000000D02*
X52434571Y-101333334D01*
X52958381Y-101476191D02*
X52958381Y-101000000D01*
X51958381Y-101000000D01*
X51958381Y-101476191D01*
X52291714Y-102333334D02*
X52958381Y-102333334D01*
X52291714Y-101904762D02*
X52815524Y-101904762D01*
X52910762Y-101952381D01*
X52958381Y-102047619D01*
X52958381Y-102190477D01*
X52910762Y-102285715D01*
X52863143Y-102333334D01*
X52291714Y-103238096D02*
X53101238Y-103238096D01*
X53196476Y-103190477D01*
X53244095Y-103142858D01*
X53291714Y-103047619D01*
X53291714Y-102904762D01*
X53244095Y-102809524D01*
X52910762Y-103238096D02*
X52958381Y-103142858D01*
X52958381Y-102952381D01*
X52910762Y-102857143D01*
X52863143Y-102809524D01*
X52767905Y-102761905D01*
X52482190Y-102761905D01*
X52386952Y-102809524D01*
X52339333Y-102857143D01*
X52291714Y-102952381D01*
X52291714Y-103142858D01*
X52339333Y-103238096D01*
X52910762Y-104095239D02*
X52958381Y-104000001D01*
X52958381Y-103809524D01*
X52910762Y-103714286D01*
X52815524Y-103666667D01*
X52434571Y-103666667D01*
X52339333Y-103714286D01*
X52291714Y-103809524D01*
X52291714Y-104000001D01*
X52339333Y-104095239D01*
X52434571Y-104142858D01*
X52529810Y-104142858D01*
X52625048Y-103666667D01*
X52291714Y-104571429D02*
X52958381Y-104571429D01*
X52386952Y-104571429D02*
X52339333Y-104619048D01*
X52291714Y-104714286D01*
X52291714Y-104857144D01*
X52339333Y-104952382D01*
X52434571Y-105000001D01*
X52958381Y-105000001D01*
X52958381Y-105476191D02*
X52291714Y-105476191D01*
X51958381Y-105476191D02*
X52006000Y-105428572D01*
X52053619Y-105476191D01*
X52006000Y-105523810D01*
X51958381Y-105476191D01*
X52053619Y-105476191D01*
X52958381Y-106095238D02*
X52910762Y-106000000D01*
X52863143Y-105952381D01*
X52767905Y-105904762D01*
X52482190Y-105904762D01*
X52386952Y-105952381D01*
X52339333Y-106000000D01*
X52291714Y-106095238D01*
X52291714Y-106238096D01*
X52339333Y-106333334D01*
X52386952Y-106380953D01*
X52482190Y-106428572D01*
X52767905Y-106428572D01*
X52863143Y-106380953D01*
X52910762Y-106333334D01*
X52958381Y-106238096D01*
X52958381Y-106095238D01*
X52434571Y-107952382D02*
X52482190Y-108095239D01*
X52529810Y-108142858D01*
X52625048Y-108190477D01*
X52767905Y-108190477D01*
X52863143Y-108142858D01*
X52910762Y-108095239D01*
X52958381Y-108000001D01*
X52958381Y-107619048D01*
X51958381Y-107619048D01*
X51958381Y-107952382D01*
X52006000Y-108047620D01*
X52053619Y-108095239D01*
X52148857Y-108142858D01*
X52244095Y-108142858D01*
X52339333Y-108095239D01*
X52386952Y-108047620D01*
X52434571Y-107952382D01*
X52434571Y-107619048D01*
X52958381Y-109047620D02*
X52434571Y-109047620D01*
X52339333Y-109000001D01*
X52291714Y-108904763D01*
X52291714Y-108714286D01*
X52339333Y-108619048D01*
X52910762Y-109047620D02*
X52958381Y-108952382D01*
X52958381Y-108714286D01*
X52910762Y-108619048D01*
X52815524Y-108571429D01*
X52720286Y-108571429D01*
X52625048Y-108619048D01*
X52577429Y-108714286D01*
X52577429Y-108952382D01*
X52529810Y-109047620D01*
X52291714Y-109380953D02*
X52291714Y-109761905D01*
X51958381Y-109523810D02*
X52815524Y-109523810D01*
X52910762Y-109571429D01*
X52958381Y-109666667D01*
X52958381Y-109761905D01*
X52291714Y-109952382D02*
X52291714Y-110333334D01*
X51958381Y-110095239D02*
X52815524Y-110095239D01*
X52910762Y-110142858D01*
X52958381Y-110238096D01*
X52958381Y-110333334D01*
X52958381Y-111095240D02*
X52434571Y-111095240D01*
X52339333Y-111047621D01*
X52291714Y-110952383D01*
X52291714Y-110761906D01*
X52339333Y-110666668D01*
X52910762Y-111095240D02*
X52958381Y-111000002D01*
X52958381Y-110761906D01*
X52910762Y-110666668D01*
X52815524Y-110619049D01*
X52720286Y-110619049D01*
X52625048Y-110666668D01*
X52577429Y-110761906D01*
X52577429Y-111000002D01*
X52529810Y-111095240D01*
X52291714Y-112000002D02*
X53101238Y-112000002D01*
X53196476Y-111952383D01*
X53244095Y-111904764D01*
X53291714Y-111809525D01*
X53291714Y-111666668D01*
X53244095Y-111571430D01*
X52910762Y-112000002D02*
X52958381Y-111904764D01*
X52958381Y-111714287D01*
X52910762Y-111619049D01*
X52863143Y-111571430D01*
X52767905Y-111523811D01*
X52482190Y-111523811D01*
X52386952Y-111571430D01*
X52339333Y-111619049D01*
X52291714Y-111714287D01*
X52291714Y-111904764D01*
X52339333Y-112000002D01*
X52958381Y-112619049D02*
X52910762Y-112523811D01*
X52815524Y-112476192D01*
X51958381Y-112476192D01*
X52958381Y-113000002D02*
X52291714Y-113000002D01*
X51958381Y-113000002D02*
X52006000Y-112952383D01*
X52053619Y-113000002D01*
X52006000Y-113047621D01*
X51958381Y-113000002D01*
X52053619Y-113000002D01*
X52958381Y-113904764D02*
X52434571Y-113904764D01*
X52339333Y-113857145D01*
X52291714Y-113761907D01*
X52291714Y-113571430D01*
X52339333Y-113476192D01*
X52910762Y-113904764D02*
X52958381Y-113809526D01*
X52958381Y-113571430D01*
X52910762Y-113476192D01*
X52815524Y-113428573D01*
X52720286Y-113428573D01*
X52625048Y-113476192D01*
X52577429Y-113571430D01*
X52577429Y-113809526D01*
X52529810Y-113904764D01*
D13*
X121029812Y-87952381D02*
X121029812Y-86952381D01*
X121029812Y-87428571D02*
X120458383Y-87428571D01*
X120458383Y-87952381D02*
X120458383Y-86952381D01*
X120125050Y-86952381D02*
X119791717Y-87952381D01*
X119458383Y-86952381D01*
X118648859Y-86952381D02*
X119125050Y-86952381D01*
X119172669Y-87428571D01*
X119125050Y-87380952D01*
X119029812Y-87333333D01*
X118791716Y-87333333D01*
X118696478Y-87380952D01*
X118648859Y-87428571D01*
X118601240Y-87523810D01*
X118601240Y-87761905D01*
X118648859Y-87857143D01*
X118696478Y-87904762D01*
X118791716Y-87952381D01*
X119029812Y-87952381D01*
X119125050Y-87904762D01*
X119172669Y-87857143D01*
X117982193Y-86952381D02*
X117886954Y-86952381D01*
X117791716Y-87000000D01*
X117744097Y-87047619D01*
X117696478Y-87142857D01*
X117648859Y-87333333D01*
X117648859Y-87571429D01*
X117696478Y-87761905D01*
X117744097Y-87857143D01*
X117791716Y-87904762D01*
X117886954Y-87952381D01*
X117982193Y-87952381D01*
X118077431Y-87904762D01*
X118125050Y-87857143D01*
X118172669Y-87761905D01*
X118220288Y-87571429D01*
X118220288Y-87333333D01*
X118172669Y-87142857D01*
X118125050Y-87047619D01*
X118077431Y-87000000D01*
X117982193Y-86952381D01*
X117315526Y-86952381D02*
X116648859Y-86952381D01*
X117077431Y-87952381D01*
X115077430Y-87952381D02*
X115077430Y-86952381D01*
X115077430Y-87904762D02*
X115172668Y-87952381D01*
X115363145Y-87952381D01*
X115458383Y-87904762D01*
X115506002Y-87857143D01*
X115553621Y-87761905D01*
X115553621Y-87476190D01*
X115506002Y-87380952D01*
X115458383Y-87333333D01*
X115363145Y-87285714D01*
X115172668Y-87285714D01*
X115077430Y-87333333D01*
X114220287Y-87904762D02*
X114315525Y-87952381D01*
X114506002Y-87952381D01*
X114601240Y-87904762D01*
X114648859Y-87809524D01*
X114648859Y-87428571D01*
X114601240Y-87333333D01*
X114506002Y-87285714D01*
X114315525Y-87285714D01*
X114220287Y-87333333D01*
X114172668Y-87428571D01*
X114172668Y-87523810D01*
X114648859Y-87619048D01*
X113791716Y-87904762D02*
X113696478Y-87952381D01*
X113506002Y-87952381D01*
X113410763Y-87904762D01*
X113363144Y-87809524D01*
X113363144Y-87761905D01*
X113410763Y-87666667D01*
X113506002Y-87619048D01*
X113648859Y-87619048D01*
X113744097Y-87571429D01*
X113791716Y-87476190D01*
X113791716Y-87428571D01*
X113744097Y-87333333D01*
X113648859Y-87285714D01*
X113506002Y-87285714D01*
X113410763Y-87333333D01*
X112934573Y-87952381D02*
X112934573Y-87285714D01*
X112934573Y-86952381D02*
X112982192Y-87000000D01*
X112934573Y-87047619D01*
X112886954Y-87000000D01*
X112934573Y-86952381D01*
X112934573Y-87047619D01*
X112029811Y-87285714D02*
X112029811Y-88095238D01*
X112077430Y-88190476D01*
X112125049Y-88238095D01*
X112220288Y-88285714D01*
X112363145Y-88285714D01*
X112458383Y-88238095D01*
X112029811Y-87904762D02*
X112125049Y-87952381D01*
X112315526Y-87952381D01*
X112410764Y-87904762D01*
X112458383Y-87857143D01*
X112506002Y-87761905D01*
X112506002Y-87476190D01*
X112458383Y-87380952D01*
X112410764Y-87333333D01*
X112315526Y-87285714D01*
X112125049Y-87285714D01*
X112029811Y-87333333D01*
X111553621Y-87285714D02*
X111553621Y-87952381D01*
X111553621Y-87380952D02*
X111506002Y-87333333D01*
X111410764Y-87285714D01*
X111267906Y-87285714D01*
X111172668Y-87333333D01*
X111125049Y-87428571D01*
X111125049Y-87952381D01*
X109886954Y-87952381D02*
X109886954Y-87285714D01*
X109886954Y-86952381D02*
X109934573Y-87000000D01*
X109886954Y-87047619D01*
X109839335Y-87000000D01*
X109886954Y-86952381D01*
X109886954Y-87047619D01*
X109410764Y-87285714D02*
X109410764Y-87952381D01*
X109410764Y-87380952D02*
X109363145Y-87333333D01*
X109267907Y-87285714D01*
X109125049Y-87285714D01*
X109029811Y-87333333D01*
X108982192Y-87428571D01*
X108982192Y-87952381D01*
X108553621Y-87904762D02*
X108458383Y-87952381D01*
X108267907Y-87952381D01*
X108172668Y-87904762D01*
X108125049Y-87809524D01*
X108125049Y-87761905D01*
X108172668Y-87666667D01*
X108267907Y-87619048D01*
X108410764Y-87619048D01*
X108506002Y-87571429D01*
X108553621Y-87476190D01*
X108553621Y-87428571D01*
X108506002Y-87333333D01*
X108410764Y-87285714D01*
X108267907Y-87285714D01*
X108172668Y-87333333D01*
X107696478Y-87285714D02*
X107696478Y-88285714D01*
X107696478Y-87333333D02*
X107601240Y-87285714D01*
X107410763Y-87285714D01*
X107315525Y-87333333D01*
X107267906Y-87380952D01*
X107220287Y-87476190D01*
X107220287Y-87761905D01*
X107267906Y-87857143D01*
X107315525Y-87904762D01*
X107410763Y-87952381D01*
X107601240Y-87952381D01*
X107696478Y-87904762D01*
X106791716Y-87952381D02*
X106791716Y-87285714D01*
X106791716Y-86952381D02*
X106839335Y-87000000D01*
X106791716Y-87047619D01*
X106744097Y-87000000D01*
X106791716Y-86952381D01*
X106791716Y-87047619D01*
X106315526Y-87952381D02*
X106315526Y-87285714D01*
X106315526Y-87476190D02*
X106267907Y-87380952D01*
X106220288Y-87333333D01*
X106125050Y-87285714D01*
X106029811Y-87285714D01*
X105315525Y-87904762D02*
X105410763Y-87952381D01*
X105601240Y-87952381D01*
X105696478Y-87904762D01*
X105744097Y-87809524D01*
X105744097Y-87428571D01*
X105696478Y-87333333D01*
X105601240Y-87285714D01*
X105410763Y-87285714D01*
X105315525Y-87333333D01*
X105267906Y-87428571D01*
X105267906Y-87523810D01*
X105744097Y-87619048D01*
X104410763Y-87952381D02*
X104410763Y-86952381D01*
X104410763Y-87904762D02*
X104506001Y-87952381D01*
X104696478Y-87952381D01*
X104791716Y-87904762D01*
X104839335Y-87857143D01*
X104886954Y-87761905D01*
X104886954Y-87476190D01*
X104839335Y-87380952D01*
X104791716Y-87333333D01*
X104696478Y-87285714D01*
X104506001Y-87285714D01*
X104410763Y-87333333D01*
X103172668Y-87952381D02*
X103172668Y-86952381D01*
X103172668Y-87333333D02*
X103077430Y-87285714D01*
X102886953Y-87285714D01*
X102791715Y-87333333D01*
X102744096Y-87380952D01*
X102696477Y-87476190D01*
X102696477Y-87761905D01*
X102744096Y-87857143D01*
X102791715Y-87904762D01*
X102886953Y-87952381D01*
X103077430Y-87952381D01*
X103172668Y-87904762D01*
X102363144Y-87285714D02*
X102125049Y-87952381D01*
X101886953Y-87285714D02*
X102125049Y-87952381D01*
X102220287Y-88190476D01*
X102267906Y-88238095D01*
X102363144Y-88285714D01*
X100172667Y-87952381D02*
X100506001Y-87476190D01*
X100744096Y-87952381D02*
X100744096Y-86952381D01*
X100363143Y-86952381D01*
X100267905Y-87000000D01*
X100220286Y-87047619D01*
X100172667Y-87142857D01*
X100172667Y-87285714D01*
X100220286Y-87380952D01*
X100267905Y-87428571D01*
X100363143Y-87476190D01*
X100744096Y-87476190D01*
X99839334Y-87285714D02*
X99601239Y-87952381D01*
X99363143Y-87285714D02*
X99601239Y-87952381D01*
X99696477Y-88190476D01*
X99744096Y-88238095D01*
X99839334Y-88285714D01*
X98553619Y-87952381D02*
X98553619Y-87428571D01*
X98601238Y-87333333D01*
X98696476Y-87285714D01*
X98886953Y-87285714D01*
X98982191Y-87333333D01*
X98553619Y-87904762D02*
X98648857Y-87952381D01*
X98886953Y-87952381D01*
X98982191Y-87904762D01*
X99029810Y-87809524D01*
X99029810Y-87714286D01*
X98982191Y-87619048D01*
X98886953Y-87571429D01*
X98648857Y-87571429D01*
X98553619Y-87523810D01*
X98077429Y-87285714D02*
X98077429Y-87952381D01*
X98077429Y-87380952D02*
X98029810Y-87333333D01*
X97934572Y-87285714D01*
X97791714Y-87285714D01*
X97696476Y-87333333D01*
X97648857Y-87428571D01*
X97648857Y-87952381D01*
X96077428Y-87428571D02*
X96410762Y-87428571D01*
X96410762Y-87952381D02*
X96410762Y-86952381D01*
X95934571Y-86952381D01*
X95410762Y-87952381D02*
X95506000Y-87904762D01*
X95553619Y-87857143D01*
X95601238Y-87761905D01*
X95601238Y-87476190D01*
X95553619Y-87380952D01*
X95506000Y-87333333D01*
X95410762Y-87285714D01*
X95267904Y-87285714D01*
X95172666Y-87333333D01*
X95125047Y-87380952D01*
X95077428Y-87476190D01*
X95077428Y-87761905D01*
X95125047Y-87857143D01*
X95172666Y-87904762D01*
X95267904Y-87952381D01*
X95410762Y-87952381D01*
X94648857Y-87952381D02*
X94648857Y-86952381D01*
X94648857Y-87333333D02*
X94553619Y-87285714D01*
X94363142Y-87285714D01*
X94267904Y-87333333D01*
X94220285Y-87380952D01*
X94172666Y-87476190D01*
X94172666Y-87761905D01*
X94220285Y-87857143D01*
X94267904Y-87904762D01*
X94363142Y-87952381D01*
X94553619Y-87952381D01*
X94648857Y-87904762D01*
X93363142Y-87904762D02*
X93458380Y-87952381D01*
X93648857Y-87952381D01*
X93744095Y-87904762D01*
X93791714Y-87809524D01*
X93791714Y-87428571D01*
X93744095Y-87333333D01*
X93648857Y-87285714D01*
X93458380Y-87285714D01*
X93363142Y-87333333D01*
X93315523Y-87428571D01*
X93315523Y-87523810D01*
X93791714Y-87619048D01*
X92744095Y-87952381D02*
X92839333Y-87904762D01*
X92886952Y-87809524D01*
X92886952Y-86952381D01*
X91172665Y-87952381D02*
X91172665Y-87428571D01*
X91220284Y-87333333D01*
X91315522Y-87285714D01*
X91505999Y-87285714D01*
X91601237Y-87333333D01*
X91172665Y-87904762D02*
X91267903Y-87952381D01*
X91505999Y-87952381D01*
X91601237Y-87904762D01*
X91648856Y-87809524D01*
X91648856Y-87714286D01*
X91601237Y-87619048D01*
X91505999Y-87571429D01*
X91267903Y-87571429D01*
X91172665Y-87523810D01*
X90696475Y-87285714D02*
X90696475Y-87952381D01*
X90696475Y-87380952D02*
X90648856Y-87333333D01*
X90553618Y-87285714D01*
X90410760Y-87285714D01*
X90315522Y-87333333D01*
X90267903Y-87428571D01*
X90267903Y-87952381D01*
X89363141Y-87952381D02*
X89363141Y-86952381D01*
X89363141Y-87904762D02*
X89458379Y-87952381D01*
X89648856Y-87952381D01*
X89744094Y-87904762D01*
X89791713Y-87857143D01*
X89839332Y-87761905D01*
X89839332Y-87476190D01*
X89791713Y-87380952D01*
X89744094Y-87333333D01*
X89648856Y-87285714D01*
X89458379Y-87285714D01*
X89363141Y-87333333D01*
X87791712Y-87428571D02*
X87648855Y-87476190D01*
X87601236Y-87523810D01*
X87553617Y-87619048D01*
X87553617Y-87761905D01*
X87601236Y-87857143D01*
X87648855Y-87904762D01*
X87744093Y-87952381D01*
X88125046Y-87952381D01*
X88125046Y-86952381D01*
X87791712Y-86952381D01*
X87696474Y-87000000D01*
X87648855Y-87047619D01*
X87601236Y-87142857D01*
X87601236Y-87238095D01*
X87648855Y-87333333D01*
X87696474Y-87380952D01*
X87791712Y-87428571D01*
X88125046Y-87428571D01*
X86744093Y-87904762D02*
X86839331Y-87952381D01*
X87029808Y-87952381D01*
X87125046Y-87904762D01*
X87172665Y-87809524D01*
X87172665Y-87428571D01*
X87125046Y-87333333D01*
X87029808Y-87285714D01*
X86839331Y-87285714D01*
X86744093Y-87333333D01*
X86696474Y-87428571D01*
X86696474Y-87523810D01*
X87172665Y-87619048D01*
X86267903Y-87285714D02*
X86267903Y-87952381D01*
X86267903Y-87380952D02*
X86220284Y-87333333D01*
X86125046Y-87285714D01*
X85982188Y-87285714D01*
X85886950Y-87333333D01*
X85839331Y-87428571D01*
X85839331Y-87952381D01*
X84934569Y-87285714D02*
X84934569Y-88095238D01*
X84982188Y-88190476D01*
X85029807Y-88238095D01*
X85125046Y-88285714D01*
X85267903Y-88285714D01*
X85363141Y-88238095D01*
X84934569Y-87904762D02*
X85029807Y-87952381D01*
X85220284Y-87952381D01*
X85315522Y-87904762D01*
X85363141Y-87857143D01*
X85410760Y-87761905D01*
X85410760Y-87476190D01*
X85363141Y-87380952D01*
X85315522Y-87333333D01*
X85220284Y-87285714D01*
X85029807Y-87285714D01*
X84934569Y-87333333D01*
X84601236Y-87285714D02*
X84220284Y-87285714D01*
X84458379Y-86952381D02*
X84458379Y-87809524D01*
X84410760Y-87904762D01*
X84315522Y-87952381D01*
X84220284Y-87952381D01*
X83172664Y-87904762D02*
X83029807Y-87952381D01*
X82791711Y-87952381D01*
X82696473Y-87904762D01*
X82648854Y-87857143D01*
X82601235Y-87761905D01*
X82601235Y-87666667D01*
X82648854Y-87571429D01*
X82696473Y-87523810D01*
X82791711Y-87476190D01*
X82982188Y-87428571D01*
X83077426Y-87380952D01*
X83125045Y-87333333D01*
X83172664Y-87238095D01*
X83172664Y-87142857D01*
X83125045Y-87047619D01*
X83077426Y-87000000D01*
X82982188Y-86952381D01*
X82744092Y-86952381D01*
X82601235Y-87000000D01*
X82172664Y-87285714D02*
X82172664Y-88142857D01*
X82220283Y-88238095D01*
X82315521Y-88285714D01*
X82363140Y-88285714D01*
X82172664Y-86952381D02*
X82220283Y-87000000D01*
X82172664Y-87047619D01*
X82125045Y-87000000D01*
X82172664Y-86952381D01*
X82172664Y-87047619D01*
X81553617Y-87952381D02*
X81648855Y-87904762D01*
X81696474Y-87857143D01*
X81744093Y-87761905D01*
X81744093Y-87476190D01*
X81696474Y-87380952D01*
X81648855Y-87333333D01*
X81553617Y-87285714D01*
X81410759Y-87285714D01*
X81315521Y-87333333D01*
X81267902Y-87380952D01*
X81220283Y-87476190D01*
X81220283Y-87761905D01*
X81267902Y-87857143D01*
X81315521Y-87904762D01*
X81410759Y-87952381D01*
X81553617Y-87952381D01*
X81648855Y-86952381D02*
X81601236Y-87000000D01*
X81648855Y-87047619D01*
X81696474Y-87000000D01*
X81648855Y-86952381D01*
X81648855Y-87047619D01*
X81267902Y-86952381D02*
X81220283Y-87000000D01*
X81267902Y-87047619D01*
X81315521Y-87000000D01*
X81267902Y-86952381D01*
X81267902Y-87047619D01*
X80648855Y-87952381D02*
X80744093Y-87904762D01*
X80791712Y-87809524D01*
X80791712Y-86952381D01*
X79886949Y-87904762D02*
X79982187Y-87952381D01*
X80172664Y-87952381D01*
X80267902Y-87904762D01*
X80315521Y-87809524D01*
X80315521Y-87428571D01*
X80267902Y-87333333D01*
X80172664Y-87285714D01*
X79982187Y-87285714D01*
X79886949Y-87333333D01*
X79839330Y-87428571D01*
X79839330Y-87523810D01*
X80315521Y-87619048D01*
X79982187Y-86904762D02*
X80125045Y-87047619D01*
X79410759Y-87285714D02*
X79410759Y-87952381D01*
X79410759Y-87380952D02*
X79363140Y-87333333D01*
X79267902Y-87285714D01*
X79125044Y-87285714D01*
X79029806Y-87333333D01*
X78982187Y-87428571D01*
X78982187Y-87952381D01*
D12*
X82744096Y-79226905D02*
X82744096Y-78426905D01*
X82744096Y-78807857D02*
X82286953Y-78807857D01*
X82286953Y-79226905D02*
X82286953Y-78426905D01*
X82020287Y-78426905D02*
X81753620Y-79226905D01*
X81486953Y-78426905D01*
X80610763Y-79226905D02*
X80610763Y-78426905D01*
X80610763Y-78731667D02*
X80534572Y-78693571D01*
X80382191Y-78693571D01*
X80306001Y-78731667D01*
X80267906Y-78769762D01*
X80229810Y-78845952D01*
X80229810Y-79074524D01*
X80267906Y-79150714D01*
X80306001Y-79188810D01*
X80382191Y-79226905D01*
X80534572Y-79226905D01*
X80610763Y-79188810D01*
X79544096Y-79226905D02*
X79544096Y-78807857D01*
X79582191Y-78731667D01*
X79658381Y-78693571D01*
X79810762Y-78693571D01*
X79886953Y-78731667D01*
X79544096Y-79188810D02*
X79620286Y-79226905D01*
X79810762Y-79226905D01*
X79886953Y-79188810D01*
X79925048Y-79112619D01*
X79925048Y-79036429D01*
X79886953Y-78960238D01*
X79810762Y-78922143D01*
X79620286Y-78922143D01*
X79544096Y-78884048D01*
X79201238Y-79188810D02*
X79125048Y-79226905D01*
X78972667Y-79226905D01*
X78896476Y-79188810D01*
X78858381Y-79112619D01*
X78858381Y-79074524D01*
X78896476Y-78998333D01*
X78972667Y-78960238D01*
X79086952Y-78960238D01*
X79163143Y-78922143D01*
X79201238Y-78845952D01*
X79201238Y-78807857D01*
X79163143Y-78731667D01*
X79086952Y-78693571D01*
X78972667Y-78693571D01*
X78896476Y-78731667D01*
X78210762Y-79188810D02*
X78286952Y-79226905D01*
X78439333Y-79226905D01*
X78515524Y-79188810D01*
X78553619Y-79112619D01*
X78553619Y-78807857D01*
X78515524Y-78731667D01*
X78439333Y-78693571D01*
X78286952Y-78693571D01*
X78210762Y-78731667D01*
X78172667Y-78807857D01*
X78172667Y-78884048D01*
X78553619Y-78960238D01*
X77486953Y-79226905D02*
X77486953Y-78426905D01*
X77486953Y-79188810D02*
X77563143Y-79226905D01*
X77715524Y-79226905D01*
X77791715Y-79188810D01*
X77829810Y-79150714D01*
X77867905Y-79074524D01*
X77867905Y-78845952D01*
X77829810Y-78769762D01*
X77791715Y-78731667D01*
X77715524Y-78693571D01*
X77563143Y-78693571D01*
X77486953Y-78731667D01*
X76382190Y-79226905D02*
X76458381Y-79188810D01*
X76496476Y-79150714D01*
X76534571Y-79074524D01*
X76534571Y-78845952D01*
X76496476Y-78769762D01*
X76458381Y-78731667D01*
X76382190Y-78693571D01*
X76267904Y-78693571D01*
X76191714Y-78731667D01*
X76153619Y-78769762D01*
X76115523Y-78845952D01*
X76115523Y-79074524D01*
X76153619Y-79150714D01*
X76191714Y-79188810D01*
X76267904Y-79226905D01*
X76382190Y-79226905D01*
X75772666Y-78693571D02*
X75772666Y-79226905D01*
X75772666Y-78769762D02*
X75734571Y-78731667D01*
X75658380Y-78693571D01*
X75544094Y-78693571D01*
X75467904Y-78731667D01*
X75429809Y-78807857D01*
X75429809Y-79226905D01*
X74439332Y-79226905D02*
X74439332Y-78426905D01*
X73982189Y-79226905D01*
X73982189Y-78426905D01*
X73601237Y-79226905D02*
X73601237Y-78693571D01*
X73601237Y-78426905D02*
X73639332Y-78465000D01*
X73601237Y-78503095D01*
X73563142Y-78465000D01*
X73601237Y-78426905D01*
X73601237Y-78503095D01*
X73296475Y-79226905D02*
X72877428Y-78693571D01*
X73296475Y-78693571D02*
X72877428Y-79226905D01*
X72572666Y-79226905D02*
X72572666Y-78693571D01*
X72572666Y-78426905D02*
X72610761Y-78465000D01*
X72572666Y-78503095D01*
X72534571Y-78465000D01*
X72572666Y-78426905D01*
X72572666Y-78503095D01*
X71886952Y-79188810D02*
X71963142Y-79226905D01*
X72115523Y-79226905D01*
X72191714Y-79188810D01*
X72229809Y-79112619D01*
X72229809Y-78807857D01*
X72191714Y-78731667D01*
X72115523Y-78693571D01*
X71963142Y-78693571D01*
X71886952Y-78731667D01*
X71848857Y-78807857D01*
X71848857Y-78884048D01*
X72229809Y-78960238D01*
X70896476Y-79226905D02*
X70896476Y-78426905D01*
X70591714Y-78426905D01*
X70515523Y-78465000D01*
X70477428Y-78503095D01*
X70439333Y-78579286D01*
X70439333Y-78693571D01*
X70477428Y-78769762D01*
X70515523Y-78807857D01*
X70591714Y-78845952D01*
X70896476Y-78845952D01*
X70134571Y-79188810D02*
X70020285Y-79226905D01*
X69829809Y-79226905D01*
X69753619Y-79188810D01*
X69715523Y-79150714D01*
X69677428Y-79074524D01*
X69677428Y-78998333D01*
X69715523Y-78922143D01*
X69753619Y-78884048D01*
X69829809Y-78845952D01*
X69982190Y-78807857D01*
X70058381Y-78769762D01*
X70096476Y-78731667D01*
X70134571Y-78655476D01*
X70134571Y-78579286D01*
X70096476Y-78503095D01*
X70058381Y-78465000D01*
X69982190Y-78426905D01*
X69791714Y-78426905D01*
X69677428Y-78465000D01*
X69334571Y-78426905D02*
X69334571Y-79074524D01*
X69296476Y-79150714D01*
X69258380Y-79188810D01*
X69182190Y-79226905D01*
X69029809Y-79226905D01*
X68953618Y-79188810D01*
X68915523Y-79150714D01*
X68877428Y-79074524D01*
X68877428Y-78426905D01*
X78991715Y-80496905D02*
X78991715Y-79696905D01*
X78991715Y-80001667D02*
X78915524Y-79963571D01*
X78763143Y-79963571D01*
X78686953Y-80001667D01*
X78648858Y-80039762D01*
X78610762Y-80115952D01*
X78610762Y-80344524D01*
X78648858Y-80420714D01*
X78686953Y-80458810D01*
X78763143Y-80496905D01*
X78915524Y-80496905D01*
X78991715Y-80458810D01*
X78344095Y-79963571D02*
X78153619Y-80496905D01*
X77963143Y-79963571D02*
X78153619Y-80496905D01*
X78229810Y-80687381D01*
X78267905Y-80725476D01*
X78344095Y-80763571D01*
X76706000Y-80496905D02*
X76706000Y-79696905D01*
X76706000Y-80458810D02*
X76782190Y-80496905D01*
X76934571Y-80496905D01*
X77010762Y-80458810D01*
X77048857Y-80420714D01*
X77086952Y-80344524D01*
X77086952Y-80115952D01*
X77048857Y-80039762D01*
X77010762Y-80001667D01*
X76934571Y-79963571D01*
X76782190Y-79963571D01*
X76706000Y-80001667D01*
X76020285Y-80458810D02*
X76096475Y-80496905D01*
X76248856Y-80496905D01*
X76325047Y-80458810D01*
X76363142Y-80382619D01*
X76363142Y-80077857D01*
X76325047Y-80001667D01*
X76248856Y-79963571D01*
X76096475Y-79963571D01*
X76020285Y-80001667D01*
X75982190Y-80077857D01*
X75982190Y-80154048D01*
X76363142Y-80230238D01*
X75067904Y-80458810D02*
X74953618Y-80496905D01*
X74763142Y-80496905D01*
X74686952Y-80458810D01*
X74648856Y-80420714D01*
X74610761Y-80344524D01*
X74610761Y-80268333D01*
X74648856Y-80192143D01*
X74686952Y-80154048D01*
X74763142Y-80115952D01*
X74915523Y-80077857D01*
X74991714Y-80039762D01*
X75029809Y-80001667D01*
X75067904Y-79925476D01*
X75067904Y-79849286D01*
X75029809Y-79773095D01*
X74991714Y-79735000D01*
X74915523Y-79696905D01*
X74725047Y-79696905D01*
X74610761Y-79735000D01*
X74267904Y-80496905D02*
X74267904Y-79963571D01*
X74267904Y-80039762D02*
X74229809Y-80001667D01*
X74153618Y-79963571D01*
X74039332Y-79963571D01*
X73963142Y-80001667D01*
X73925047Y-80077857D01*
X73925047Y-80496905D01*
X73925047Y-80077857D02*
X73886951Y-80001667D01*
X73810761Y-79963571D01*
X73696475Y-79963571D01*
X73620285Y-80001667D01*
X73582190Y-80077857D01*
X73582190Y-80496905D01*
X73201237Y-80496905D02*
X73201237Y-79963571D01*
X73201237Y-79696905D02*
X73239332Y-79735000D01*
X73201237Y-79773095D01*
X73163142Y-79735000D01*
X73201237Y-79696905D01*
X73201237Y-79773095D01*
X72934571Y-79963571D02*
X72629809Y-79963571D01*
X72820285Y-79696905D02*
X72820285Y-80382619D01*
X72782190Y-80458810D01*
X72705999Y-80496905D01*
X72629809Y-80496905D01*
X72363142Y-80496905D02*
X72363142Y-79696905D01*
X72020285Y-80496905D02*
X72020285Y-80077857D01*
X72058380Y-80001667D01*
X72134570Y-79963571D01*
X72248856Y-79963571D01*
X72325047Y-80001667D01*
X72363142Y-80039762D01*
D13*
X137767904Y-80500000D02*
X137863142Y-80452381D01*
X138005999Y-80452381D01*
X138148857Y-80500000D01*
X138244095Y-80595238D01*
X138291714Y-80690476D01*
X138339333Y-80880952D01*
X138339333Y-81023810D01*
X138291714Y-81214286D01*
X138244095Y-81309524D01*
X138148857Y-81404762D01*
X138005999Y-81452381D01*
X137910761Y-81452381D01*
X137767904Y-81404762D01*
X137720285Y-81357143D01*
X137720285Y-81023810D01*
X137910761Y-81023810D01*
X137291714Y-81452381D02*
X137291714Y-80452381D01*
X136720285Y-81452381D01*
X136720285Y-80452381D01*
X136244095Y-81452381D02*
X136244095Y-80452381D01*
X136006000Y-80452381D01*
X135863142Y-80500000D01*
X135767904Y-80595238D01*
X135720285Y-80690476D01*
X135672666Y-80880952D01*
X135672666Y-81023810D01*
X135720285Y-81214286D01*
X135767904Y-81309524D01*
X135863142Y-81404762D01*
X136006000Y-81452381D01*
X136244095Y-81452381D01*
D14*
X128506001Y-128178571D02*
X128220287Y-129178571D01*
X127934573Y-128464286D01*
X127648858Y-129178571D01*
X127363144Y-128178571D01*
X126934572Y-128178571D02*
X126648858Y-129178571D01*
X126363144Y-128464286D01*
X126077429Y-129178571D01*
X125791715Y-128178571D01*
X125363143Y-128178571D02*
X125077429Y-129178571D01*
X124791715Y-128464286D01*
X124506000Y-129178571D01*
X124220286Y-128178571D01*
X123648857Y-129035714D02*
X123577429Y-129107143D01*
X123648857Y-129178571D01*
X123720286Y-129107143D01*
X123648857Y-129035714D01*
X123648857Y-129178571D01*
X122934571Y-129178571D02*
X122934571Y-127678571D01*
X122934571Y-128250000D02*
X122791714Y-128178571D01*
X122506000Y-128178571D01*
X122363143Y-128250000D01*
X122291714Y-128321429D01*
X122220285Y-128464286D01*
X122220285Y-128892857D01*
X122291714Y-129035714D01*
X122363143Y-129107143D01*
X122506000Y-129178571D01*
X122791714Y-129178571D01*
X122934571Y-129107143D01*
X121577428Y-129178571D02*
X121577428Y-128178571D01*
X121577428Y-127678571D02*
X121648857Y-127750000D01*
X121577428Y-127821429D01*
X121506000Y-127750000D01*
X121577428Y-127678571D01*
X121577428Y-127821429D01*
X120648856Y-129178571D02*
X120791714Y-129107143D01*
X120863142Y-129035714D01*
X120934571Y-128892857D01*
X120934571Y-128464286D01*
X120863142Y-128321429D01*
X120791714Y-128250000D01*
X120648856Y-128178571D01*
X120434571Y-128178571D01*
X120291714Y-128250000D01*
X120220285Y-128321429D01*
X120148856Y-128464286D01*
X120148856Y-128892857D01*
X120220285Y-129035714D01*
X120291714Y-129107143D01*
X120434571Y-129178571D01*
X120648856Y-129178571D01*
X119720285Y-128178571D02*
X119148856Y-128178571D01*
X119505999Y-129178571D02*
X119505999Y-127892857D01*
X119434571Y-127750000D01*
X119291713Y-127678571D01*
X119148856Y-127678571D01*
X118434570Y-129178571D02*
X118577428Y-129107143D01*
X118648856Y-128964286D01*
X118648856Y-127678571D01*
X117220285Y-128178571D02*
X117220285Y-129178571D01*
X117863142Y-128178571D02*
X117863142Y-128964286D01*
X117791714Y-129107143D01*
X117648856Y-129178571D01*
X117434571Y-129178571D01*
X117291714Y-129107143D01*
X117220285Y-129035714D01*
X116648856Y-129178571D02*
X115863142Y-128178571D01*
X116648856Y-128178571D02*
X115863142Y-129178571D01*
X115291713Y-129035714D02*
X115220285Y-129107143D01*
X115291713Y-129178571D01*
X115363142Y-129107143D01*
X115291713Y-129035714D01*
X115291713Y-129178571D01*
X114005999Y-129107143D02*
X114148856Y-129178571D01*
X114434570Y-129178571D01*
X114577427Y-129107143D01*
X114648856Y-128964286D01*
X114648856Y-128392857D01*
X114577427Y-128250000D01*
X114434570Y-128178571D01*
X114148856Y-128178571D01*
X114005999Y-128250000D01*
X113934570Y-128392857D01*
X113934570Y-128535714D01*
X114648856Y-128678571D01*
X112648856Y-128178571D02*
X112648856Y-129178571D01*
X113291713Y-128178571D02*
X113291713Y-128964286D01*
X113220285Y-129107143D01*
X113077427Y-129178571D01*
X112863142Y-129178571D01*
X112720285Y-129107143D01*
X112648856Y-129035714D01*
X129505999Y-125392857D02*
X130005999Y-125392857D01*
X130005999Y-126178571D02*
X130005999Y-124678571D01*
X129291713Y-124678571D01*
X128505999Y-126178571D02*
X128648857Y-126107143D01*
X128720285Y-125964286D01*
X128720285Y-124678571D01*
X127291714Y-125178571D02*
X127291714Y-126178571D01*
X127934571Y-125178571D02*
X127934571Y-125964286D01*
X127863143Y-126107143D01*
X127720285Y-126178571D01*
X127506000Y-126178571D01*
X127363143Y-126107143D01*
X127291714Y-126035714D01*
X126720285Y-126178571D02*
X125934571Y-125178571D01*
X126720285Y-125178571D02*
X125934571Y-126178571D01*
X125148856Y-126178571D02*
X125291714Y-126107143D01*
X125363142Y-125964286D01*
X125363142Y-124678571D01*
X124577428Y-125607143D02*
X123434571Y-125607143D01*
X122934571Y-124678571D02*
X122077428Y-124678571D01*
X122505999Y-126178571D02*
X122505999Y-124678571D01*
X121006000Y-126107143D02*
X121148857Y-126178571D01*
X121434571Y-126178571D01*
X121577428Y-126107143D01*
X121648857Y-125964286D01*
X121648857Y-125392857D01*
X121577428Y-125250000D01*
X121434571Y-125178571D01*
X121148857Y-125178571D01*
X121006000Y-125250000D01*
X120934571Y-125392857D01*
X120934571Y-125535714D01*
X121648857Y-125678571D01*
X119648857Y-126107143D02*
X119791714Y-126178571D01*
X120077428Y-126178571D01*
X120220286Y-126107143D01*
X120291714Y-126035714D01*
X120363143Y-125892857D01*
X120363143Y-125464286D01*
X120291714Y-125321429D01*
X120220286Y-125250000D01*
X120077428Y-125178571D01*
X119791714Y-125178571D01*
X119648857Y-125250000D01*
X119006000Y-126178571D02*
X119006000Y-124678571D01*
X118363143Y-126178571D02*
X118363143Y-125392857D01*
X118434572Y-125250000D01*
X118577429Y-125178571D01*
X118791714Y-125178571D01*
X118934572Y-125250000D01*
X119006000Y-125321429D01*
X117648857Y-125178571D02*
X117648857Y-126178571D01*
X117648857Y-125321429D02*
X117577429Y-125250000D01*
X117434571Y-125178571D01*
X117220286Y-125178571D01*
X117077429Y-125250000D01*
X117006000Y-125392857D01*
X117006000Y-126178571D01*
X116077428Y-126178571D02*
X116220286Y-126107143D01*
X116291714Y-126035714D01*
X116363143Y-125892857D01*
X116363143Y-125464286D01*
X116291714Y-125321429D01*
X116220286Y-125250000D01*
X116077428Y-125178571D01*
X115863143Y-125178571D01*
X115720286Y-125250000D01*
X115648857Y-125321429D01*
X115577428Y-125464286D01*
X115577428Y-125892857D01*
X115648857Y-126035714D01*
X115720286Y-126107143D01*
X115863143Y-126178571D01*
X116077428Y-126178571D01*
X114720285Y-126178571D02*
X114863143Y-126107143D01*
X114934571Y-125964286D01*
X114934571Y-124678571D01*
X113934571Y-126178571D02*
X114077429Y-126107143D01*
X114148857Y-126035714D01*
X114220286Y-125892857D01*
X114220286Y-125464286D01*
X114148857Y-125321429D01*
X114077429Y-125250000D01*
X113934571Y-125178571D01*
X113720286Y-125178571D01*
X113577429Y-125250000D01*
X113506000Y-125321429D01*
X113434571Y-125464286D01*
X113434571Y-125892857D01*
X113506000Y-126035714D01*
X113577429Y-126107143D01*
X113720286Y-126178571D01*
X113934571Y-126178571D01*
X112148857Y-125178571D02*
X112148857Y-126392857D01*
X112220286Y-126535714D01*
X112291714Y-126607143D01*
X112434571Y-126678571D01*
X112648857Y-126678571D01*
X112791714Y-126607143D01*
X112148857Y-126107143D02*
X112291714Y-126178571D01*
X112577428Y-126178571D01*
X112720286Y-126107143D01*
X112791714Y-126035714D01*
X112863143Y-125892857D01*
X112863143Y-125464286D01*
X112791714Y-125321429D01*
X112720286Y-125250000D01*
X112577428Y-125178571D01*
X112291714Y-125178571D01*
X112148857Y-125250000D01*
X111577428Y-125178571D02*
X111220285Y-126178571D01*
X110863143Y-125178571D02*
X111220285Y-126178571D01*
X111363143Y-126535714D01*
X111434571Y-126607143D01*
X111577428Y-126678571D01*
X97720286Y-125750000D02*
X97006000Y-125750000D01*
X97863143Y-126178571D02*
X97363143Y-124678571D01*
X96863143Y-126178571D01*
X95220286Y-126178571D02*
X95220286Y-124678571D01*
X95220286Y-125392857D02*
X94363143Y-125392857D01*
X94363143Y-126178571D02*
X94363143Y-124678571D01*
X93006000Y-126178571D02*
X93006000Y-125392857D01*
X93077429Y-125250000D01*
X93220286Y-125178571D01*
X93506000Y-125178571D01*
X93648857Y-125250000D01*
X93006000Y-126107143D02*
X93148857Y-126178571D01*
X93506000Y-126178571D01*
X93648857Y-126107143D01*
X93720286Y-125964286D01*
X93720286Y-125821429D01*
X93648857Y-125678571D01*
X93506000Y-125607143D01*
X93148857Y-125607143D01*
X93006000Y-125535714D01*
X91648857Y-126107143D02*
X91791714Y-126178571D01*
X92077428Y-126178571D01*
X92220286Y-126107143D01*
X92291714Y-126035714D01*
X92363143Y-125892857D01*
X92363143Y-125464286D01*
X92291714Y-125321429D01*
X92220286Y-125250000D01*
X92077428Y-125178571D01*
X91791714Y-125178571D01*
X91648857Y-125250000D01*
X91006000Y-126178571D02*
X91006000Y-124678571D01*
X90863143Y-125607143D02*
X90434572Y-126178571D01*
X90434572Y-125178571D02*
X91006000Y-125750000D01*
X90006000Y-125178571D02*
X89434571Y-125178571D01*
X89791714Y-124678571D02*
X89791714Y-125964286D01*
X89720286Y-126107143D01*
X89577428Y-126178571D01*
X89434571Y-126178571D01*
X88363143Y-126107143D02*
X88506000Y-126178571D01*
X88791714Y-126178571D01*
X88934571Y-126107143D01*
X89006000Y-125964286D01*
X89006000Y-125392857D01*
X88934571Y-125250000D01*
X88791714Y-125178571D01*
X88506000Y-125178571D01*
X88363143Y-125250000D01*
X88291714Y-125392857D01*
X88291714Y-125535714D01*
X89006000Y-125678571D01*
X87648857Y-126178571D02*
X87648857Y-125178571D01*
X87648857Y-125464286D02*
X87577429Y-125321429D01*
X87506000Y-125250000D01*
X87363143Y-125178571D01*
X87220286Y-125178571D01*
X86720286Y-126178571D02*
X86720286Y-125178571D01*
X86720286Y-124678571D02*
X86791715Y-124750000D01*
X86720286Y-124821429D01*
X86648858Y-124750000D01*
X86720286Y-124678571D01*
X86720286Y-124821429D01*
X85363143Y-126178571D02*
X85363143Y-125392857D01*
X85434572Y-125250000D01*
X85577429Y-125178571D01*
X85863143Y-125178571D01*
X86006000Y-125250000D01*
X85363143Y-126107143D02*
X85506000Y-126178571D01*
X85863143Y-126178571D01*
X86006000Y-126107143D01*
X86077429Y-125964286D01*
X86077429Y-125821429D01*
X86006000Y-125678571D01*
X85863143Y-125607143D01*
X85506000Y-125607143D01*
X85363143Y-125535714D01*
X83506000Y-126178571D02*
X83506000Y-124678571D01*
X82648857Y-126178571D01*
X82648857Y-124678571D01*
X81363143Y-126107143D02*
X81506000Y-126178571D01*
X81791714Y-126178571D01*
X81934571Y-126107143D01*
X82006000Y-125964286D01*
X82006000Y-125392857D01*
X81934571Y-125250000D01*
X81791714Y-125178571D01*
X81506000Y-125178571D01*
X81363143Y-125250000D01*
X81291714Y-125392857D01*
X81291714Y-125535714D01*
X82006000Y-125678571D01*
X80863143Y-125178571D02*
X80291714Y-125178571D01*
X80648857Y-124678571D02*
X80648857Y-125964286D01*
X80577429Y-126107143D01*
X80434571Y-126178571D01*
X80291714Y-126178571D01*
X79934571Y-125178571D02*
X79648857Y-126178571D01*
X79363143Y-125464286D01*
X79077428Y-126178571D01*
X78791714Y-125178571D01*
X78005999Y-126178571D02*
X78148857Y-126107143D01*
X78220285Y-126035714D01*
X78291714Y-125892857D01*
X78291714Y-125464286D01*
X78220285Y-125321429D01*
X78148857Y-125250000D01*
X78005999Y-125178571D01*
X77791714Y-125178571D01*
X77648857Y-125250000D01*
X77577428Y-125321429D01*
X77505999Y-125464286D01*
X77505999Y-125892857D01*
X77577428Y-126035714D01*
X77648857Y-126107143D01*
X77791714Y-126178571D01*
X78005999Y-126178571D01*
X76863142Y-126178571D02*
X76863142Y-125178571D01*
X76863142Y-125464286D02*
X76791714Y-125321429D01*
X76720285Y-125250000D01*
X76577428Y-125178571D01*
X76434571Y-125178571D01*
X75934571Y-126178571D02*
X75934571Y-124678571D01*
X75791714Y-125607143D02*
X75363143Y-126178571D01*
X75363143Y-125178571D02*
X75934571Y-125750000D01*
X73577428Y-126178571D02*
X73577428Y-124678571D01*
X73006000Y-124678571D01*
X72863142Y-124750000D01*
X72791714Y-124821429D01*
X72720285Y-124964286D01*
X72720285Y-125178571D01*
X72791714Y-125321429D01*
X72863142Y-125392857D01*
X73006000Y-125464286D01*
X73577428Y-125464286D01*
X72077428Y-126178571D02*
X72077428Y-125178571D01*
X72077428Y-125464286D02*
X72006000Y-125321429D01*
X71934571Y-125250000D01*
X71791714Y-125178571D01*
X71648857Y-125178571D01*
X70934571Y-126178571D02*
X71077429Y-126107143D01*
X71148857Y-126035714D01*
X71220286Y-125892857D01*
X71220286Y-125464286D01*
X71148857Y-125321429D01*
X71077429Y-125250000D01*
X70934571Y-125178571D01*
X70720286Y-125178571D01*
X70577429Y-125250000D01*
X70506000Y-125321429D01*
X70434571Y-125464286D01*
X70434571Y-125892857D01*
X70506000Y-126035714D01*
X70577429Y-126107143D01*
X70720286Y-126178571D01*
X70934571Y-126178571D01*
X69791714Y-125178571D02*
X69791714Y-126464286D01*
X69863143Y-126607143D01*
X70006000Y-126678571D01*
X70077428Y-126678571D01*
X69791714Y-124678571D02*
X69863143Y-124750000D01*
X69791714Y-124821429D01*
X69720286Y-124750000D01*
X69791714Y-124678571D01*
X69791714Y-124821429D01*
X68506000Y-126107143D02*
X68648857Y-126178571D01*
X68934571Y-126178571D01*
X69077428Y-126107143D01*
X69148857Y-125964286D01*
X69148857Y-125392857D01*
X69077428Y-125250000D01*
X68934571Y-125178571D01*
X68648857Y-125178571D01*
X68506000Y-125250000D01*
X68434571Y-125392857D01*
X68434571Y-125535714D01*
X69148857Y-125678571D01*
X67148857Y-126107143D02*
X67291714Y-126178571D01*
X67577428Y-126178571D01*
X67720286Y-126107143D01*
X67791714Y-126035714D01*
X67863143Y-125892857D01*
X67863143Y-125464286D01*
X67791714Y-125321429D01*
X67720286Y-125250000D01*
X67577428Y-125178571D01*
X67291714Y-125178571D01*
X67148857Y-125250000D01*
X66720286Y-125178571D02*
X66148857Y-125178571D01*
X66506000Y-124678571D02*
X66506000Y-125964286D01*
X66434572Y-126107143D01*
X66291714Y-126178571D01*
X66148857Y-126178571D01*
X94898858Y-128178571D02*
X94613144Y-129178571D01*
X94327430Y-128464286D01*
X94041715Y-129178571D01*
X93756001Y-128178571D01*
X93327429Y-128178571D02*
X93041715Y-129178571D01*
X92756001Y-128464286D01*
X92470286Y-129178571D01*
X92184572Y-128178571D01*
X91756000Y-128178571D02*
X91470286Y-129178571D01*
X91184572Y-128464286D01*
X90898857Y-129178571D01*
X90613143Y-128178571D01*
X90041714Y-129035714D02*
X89970286Y-129107143D01*
X90041714Y-129178571D01*
X90113143Y-129107143D01*
X90041714Y-129035714D01*
X90041714Y-129178571D01*
X88684571Y-128178571D02*
X88684571Y-129392857D01*
X88756000Y-129535714D01*
X88827428Y-129607143D01*
X88970285Y-129678571D01*
X89184571Y-129678571D01*
X89327428Y-129607143D01*
X88684571Y-129107143D02*
X88827428Y-129178571D01*
X89113142Y-129178571D01*
X89256000Y-129107143D01*
X89327428Y-129035714D01*
X89398857Y-128892857D01*
X89398857Y-128464286D01*
X89327428Y-128321429D01*
X89256000Y-128250000D01*
X89113142Y-128178571D01*
X88827428Y-128178571D01*
X88684571Y-128250000D01*
X87327428Y-129178571D02*
X87327428Y-128392857D01*
X87398857Y-128250000D01*
X87541714Y-128178571D01*
X87827428Y-128178571D01*
X87970285Y-128250000D01*
X87327428Y-129107143D02*
X87470285Y-129178571D01*
X87827428Y-129178571D01*
X87970285Y-129107143D01*
X88041714Y-128964286D01*
X88041714Y-128821429D01*
X87970285Y-128678571D01*
X87827428Y-128607143D01*
X87470285Y-128607143D01*
X87327428Y-128535714D01*
X85970285Y-128178571D02*
X85970285Y-129178571D01*
X86613142Y-128178571D02*
X86613142Y-128964286D01*
X86541714Y-129107143D01*
X86398856Y-129178571D01*
X86184571Y-129178571D01*
X86041714Y-129107143D01*
X85970285Y-129035714D01*
X84613142Y-129178571D02*
X84613142Y-127678571D01*
X84613142Y-129107143D02*
X84755999Y-129178571D01*
X85041713Y-129178571D01*
X85184571Y-129107143D01*
X85255999Y-129035714D01*
X85327428Y-128892857D01*
X85327428Y-128464286D01*
X85255999Y-128321429D01*
X85184571Y-128250000D01*
X85041713Y-128178571D01*
X84755999Y-128178571D01*
X84613142Y-128250000D01*
X83898856Y-129178571D02*
X83898856Y-128178571D01*
X83898856Y-127678571D02*
X83970285Y-127750000D01*
X83898856Y-127821429D01*
X83827428Y-127750000D01*
X83898856Y-127678571D01*
X83898856Y-127821429D01*
X83184570Y-129035714D02*
X83113142Y-129107143D01*
X83184570Y-129178571D01*
X83255999Y-129107143D01*
X83184570Y-129035714D01*
X83184570Y-129178571D01*
X81827427Y-129107143D02*
X81970284Y-129178571D01*
X82255998Y-129178571D01*
X82398856Y-129107143D01*
X82470284Y-129035714D01*
X82541713Y-128892857D01*
X82541713Y-128464286D01*
X82470284Y-128321429D01*
X82398856Y-128250000D01*
X82255998Y-128178571D01*
X81970284Y-128178571D01*
X81827427Y-128250000D01*
X81184570Y-129178571D02*
X81184570Y-127678571D01*
X80541713Y-129178571D02*
X80541713Y-128392857D01*
X80613142Y-128250000D01*
X80755999Y-128178571D01*
X80970284Y-128178571D01*
X81113142Y-128250000D01*
X81184570Y-128321429D01*
X78755999Y-127607143D02*
X80041713Y-129535714D01*
X77970284Y-127678571D02*
X77684570Y-127678571D01*
X77541712Y-127750000D01*
X77398855Y-127892857D01*
X77327427Y-128178571D01*
X77327427Y-128678571D01*
X77398855Y-128964286D01*
X77541712Y-129107143D01*
X77684570Y-129178571D01*
X77970284Y-129178571D01*
X78113141Y-129107143D01*
X78255998Y-128964286D01*
X78327427Y-128678571D01*
X78327427Y-128178571D01*
X78255998Y-127892857D01*
X78113141Y-127750000D01*
X77970284Y-127678571D01*
X76684569Y-128178571D02*
X76684569Y-129678571D01*
X76684569Y-128250000D02*
X76541712Y-128178571D01*
X76255998Y-128178571D01*
X76113141Y-128250000D01*
X76041712Y-128321429D01*
X75970283Y-128464286D01*
X75970283Y-128892857D01*
X76041712Y-129035714D01*
X76113141Y-129107143D01*
X76255998Y-129178571D01*
X76541712Y-129178571D01*
X76684569Y-129107143D01*
X74755998Y-129107143D02*
X74898855Y-129178571D01*
X75184569Y-129178571D01*
X75327426Y-129107143D01*
X75398855Y-128964286D01*
X75398855Y-128392857D01*
X75327426Y-128250000D01*
X75184569Y-128178571D01*
X74898855Y-128178571D01*
X74755998Y-128250000D01*
X74684569Y-128392857D01*
X74684569Y-128535714D01*
X75398855Y-128678571D01*
X74041712Y-128178571D02*
X74041712Y-129178571D01*
X74041712Y-128321429D02*
X73970284Y-128250000D01*
X73827426Y-128178571D01*
X73613141Y-128178571D01*
X73470284Y-128250000D01*
X73398855Y-128392857D01*
X73398855Y-129178571D01*
X72684569Y-129178571D02*
X72684569Y-127678571D01*
X72327426Y-127678571D01*
X72113141Y-127750000D01*
X71970283Y-127892857D01*
X71898855Y-128035714D01*
X71827426Y-128321429D01*
X71827426Y-128535714D01*
X71898855Y-128821429D01*
X71970283Y-128964286D01*
X72113141Y-129107143D01*
X72327426Y-129178571D01*
X72684569Y-129178571D01*
X71184569Y-129178571D02*
X71184569Y-128178571D01*
X71184569Y-128464286D02*
X71113141Y-128321429D01*
X71041712Y-128250000D01*
X70898855Y-128178571D01*
X70755998Y-128178571D01*
X70041712Y-129178571D02*
X70184570Y-129107143D01*
X70255998Y-129035714D01*
X70327427Y-128892857D01*
X70327427Y-128464286D01*
X70255998Y-128321429D01*
X70184570Y-128250000D01*
X70041712Y-128178571D01*
X69827427Y-128178571D01*
X69684570Y-128250000D01*
X69613141Y-128321429D01*
X69541712Y-128464286D01*
X69541712Y-128892857D01*
X69613141Y-129035714D01*
X69684570Y-129107143D01*
X69827427Y-129178571D01*
X70041712Y-129178571D01*
X68898855Y-128178571D02*
X68898855Y-129678571D01*
X68898855Y-128250000D02*
X68755998Y-128178571D01*
X68470284Y-128178571D01*
X68327427Y-128250000D01*
X68255998Y-128321429D01*
X68184569Y-128464286D01*
X68184569Y-128892857D01*
X68255998Y-129035714D01*
X68327427Y-129107143D01*
X68470284Y-129178571D01*
X68755998Y-129178571D01*
X68898855Y-129107143D01*
D12*
X96125000Y-107125000D02*
X95675000Y-107125000D01*
X96125000Y-92875000D02*
X95675000Y-92875000D01*
X75875000Y-92875000D02*
X76325000Y-92875000D01*
X75875000Y-107125000D02*
X76325000Y-107125000D01*
X96125000Y-107125000D02*
X96125000Y-106475000D01*
X75875000Y-107125000D02*
X75875000Y-106475000D01*
X75875000Y-92875000D02*
X75875000Y-93525000D01*
X96125000Y-92875000D02*
X96125000Y-93525000D01*
X95675000Y-107125000D02*
X95675000Y-108800000D01*
X64672000Y-71445000D02*
X69872000Y-71445000D01*
X69872000Y-67795000D02*
X64672000Y-67795000D01*
X85096000Y-53723000D02*
X88996000Y-53723000D01*
X88996000Y-50773000D02*
X85096000Y-50773000D01*
D15*
X85463131Y-68192420D02*
G75*
G02X94594000Y-68092000I4630869J-5899580D01*
G01*
X94724869Y-79991580D02*
G75*
G02X85594000Y-80092000I-4630869J5899580D01*
G01*
X99094000Y-72342000D02*
X94594000Y-68092000D01*
X81094000Y-72342000D02*
X85594000Y-68092000D01*
X85594000Y-80092000D02*
X81094000Y-75842000D01*
X99094000Y-75842000D02*
X94594000Y-80092000D01*
X96094000Y-74092000D02*
G75*
G03X96094000Y-74092000I-6000000J0D01*
G01*
D12*
X95626000Y-42698000D02*
X87326000Y-42698000D01*
X87326000Y-49098000D02*
X95626000Y-49098000D01*
X87173000Y-56700000D02*
X87173000Y-54407000D01*
X87160300Y-63544000D02*
X83617000Y-63544000D01*
X87173000Y-65837000D02*
X99054000Y-65837000D01*
X99054000Y-54407000D02*
X87173000Y-54407000D01*
X87173000Y-65837000D02*
X87173000Y-63544000D01*
X77910000Y-65876000D02*
X78910000Y-65876000D01*
X78910000Y-67576000D02*
X77910000Y-67576000D01*
X73750000Y-59606000D02*
X73750000Y-58606000D01*
X75450000Y-58606000D02*
X75450000Y-59606000D01*
X75124000Y-69823000D02*
X77124000Y-69823000D01*
X77124000Y-72773000D02*
X75124000Y-72773000D01*
X75475000Y-66564000D02*
X75475000Y-65364000D01*
X73725000Y-65364000D02*
X73725000Y-66564000D01*
X69154000Y-47600000D02*
X69454000Y-46700000D01*
X69354000Y-51300000D02*
X69054000Y-50400000D01*
X68954000Y-48500000D02*
X68954000Y-49900000D01*
X69054000Y-50400000D02*
X69054000Y-47900000D01*
X69154000Y-47600000D02*
X69154000Y-50800000D01*
X69254000Y-51100000D02*
X69254000Y-47300000D01*
X69354000Y-47100000D02*
X69354000Y-51400000D01*
X69454000Y-51700000D02*
X69454000Y-46800000D01*
X69554000Y-46500000D02*
X69554000Y-51900000D01*
X69654000Y-52200000D02*
X69654000Y-46200000D01*
X79354000Y-54200000D02*
X81354000Y-54200000D01*
X80354000Y-53200000D02*
X80354000Y-53700000D01*
X80354000Y-55200000D02*
X80354000Y-53700000D01*
X80354000Y-56200000D02*
X81854000Y-54700000D01*
X80854000Y-49200000D02*
G75*
G03X80854000Y-49200000I-6000000J0D01*
G01*
X67854000Y-42200000D02*
X67854000Y-56200000D01*
X67854000Y-42200000D02*
X81854000Y-42200000D01*
X81854000Y-54700000D02*
X81854000Y-42200000D01*
X80354000Y-56200000D02*
X67854000Y-56200000D01*
X65396000Y-60677000D02*
X70596000Y-60677000D01*
X70596000Y-57027000D02*
X65396000Y-57027000D01*
X71492000Y-77441000D02*
X76692000Y-77441000D01*
X76692000Y-73791000D02*
X71492000Y-73791000D01*
X81712000Y-58598000D02*
X76632000Y-58598000D01*
X76632000Y-58598000D02*
X76632000Y-63170000D01*
X76632000Y-63170000D02*
X81712000Y-63170000D01*
X81712000Y-63170000D02*
X81712000Y-58598000D01*
X81712000Y-60122000D02*
X81204000Y-60122000D01*
X81204000Y-60122000D02*
X81204000Y-61392000D01*
X81204000Y-61392000D02*
X81712000Y-61392000D01*
X119254000Y-54118000D02*
X119254000Y-53118000D01*
X120954000Y-53118000D02*
X120954000Y-54118000D01*
X145846000Y-54388000D02*
X145846000Y-55388000D01*
X144146000Y-55388000D02*
X144146000Y-54388000D01*
X123748000Y-50578000D02*
X123748000Y-51578000D01*
X122048000Y-51578000D02*
X122048000Y-50578000D01*
X142114000Y-55388000D02*
X142114000Y-54388000D01*
X143814000Y-54388000D02*
X143814000Y-55388000D01*
X103875000Y-92875000D02*
X104325000Y-92875000D01*
X103875000Y-107125000D02*
X104325000Y-107125000D01*
X124125000Y-107125000D02*
X123675000Y-107125000D01*
X124125000Y-92875000D02*
X123675000Y-92875000D01*
X103875000Y-92875000D02*
X103875000Y-93525000D01*
X124125000Y-92875000D02*
X124125000Y-93525000D01*
X124125000Y-107125000D02*
X124125000Y-106475000D01*
X103875000Y-107125000D02*
X103875000Y-106475000D01*
X104325000Y-92875000D02*
X104325000Y-91200000D01*
X151400000Y-59610000D02*
X147590000Y-59610000D01*
X151400000Y-51990000D02*
X147590000Y-51990000D01*
X151400000Y-59610000D02*
X151400000Y-51990000D01*
X147590000Y-51990000D02*
X147590000Y-59610000D01*
X150000000Y-46800000D02*
X150000000Y-64800000D01*
X102000000Y-46800000D02*
X150000000Y-46800000D01*
X102000000Y-64800000D02*
X150000000Y-64800000D01*
X102000000Y-64800000D02*
X102000000Y-46800000D01*
X146500000Y-108000000D02*
X140500000Y-108000000D01*
X136500000Y-105500000D02*
X136500000Y-108000000D01*
X136500000Y-108000000D02*
X137500000Y-108000000D01*
X134500000Y-102500000D02*
X140500000Y-102500000D01*
X140500000Y-108000000D02*
X140500000Y-105500000D01*
X140500000Y-105500000D02*
X139500000Y-105500000D01*
X139500000Y-105500000D02*
X139500000Y-108000000D01*
X139500000Y-108000000D02*
X138500000Y-108000000D01*
X138500000Y-108000000D02*
X138500000Y-105500000D01*
X138500000Y-105500000D02*
X137500000Y-105500000D01*
X137500000Y-105500000D02*
X137500000Y-108000000D01*
X136500000Y-105500000D02*
X135500000Y-105500000D01*
X135500000Y-105500000D02*
X135500000Y-108000000D01*
X135500000Y-108000000D02*
X134500000Y-108000000D01*
X134500000Y-108000000D02*
X134500000Y-100500000D01*
X147650000Y-109260000D02*
X133350000Y-109260000D01*
X133350000Y-84460000D02*
X147650000Y-84460000D01*
X133350000Y-109260000D02*
X133350000Y-84460000D01*
X147650000Y-84460000D02*
X147650000Y-109260000D01*
D15*
X62000000Y-40000000D02*
G75*
G02X63000000Y-41000000I0J-1000000D01*
G01*
X54000000Y-41000000D02*
G75*
G02X55000000Y-40000000I1000000J0D01*
G01*
X54000000Y-41000000D02*
X54000000Y-54000000D01*
X54000000Y-54000000D02*
X60000000Y-54000000D01*
X60000000Y-54000000D02*
X60000000Y-55250000D01*
X60000000Y-55250000D02*
X63000000Y-55250000D01*
X63000000Y-55250000D02*
X63000000Y-40800000D01*
X62000000Y-40000000D02*
X55000000Y-40000000D01*
D12*
X112079000Y-56474000D02*
X112079000Y-57674000D01*
X113829000Y-57674000D02*
X113829000Y-56474000D01*
X142597000Y-49970000D02*
X142597000Y-51170000D01*
X144347000Y-51170000D02*
X144347000Y-49970000D01*
X146178000Y-55388000D02*
X146178000Y-54388000D01*
X147878000Y-54388000D02*
X147878000Y-55388000D01*
X146393000Y-45367000D02*
X146393000Y-45117000D01*
X146393000Y-45867000D02*
X146393000Y-46117000D01*
X146393000Y-45867000D02*
X146743000Y-45367000D01*
X146743000Y-45367000D02*
X146043000Y-45367000D01*
X146043000Y-45367000D02*
X146393000Y-45867000D01*
X146743000Y-45867000D02*
X146043000Y-45867000D01*
X145593000Y-46917000D02*
X145593000Y-44517000D01*
X147193000Y-46917000D02*
X147193000Y-44517000D01*
X143857000Y-59460000D02*
X143607000Y-59460000D01*
X144357000Y-59460000D02*
X144607000Y-59460000D01*
X144357000Y-59460000D02*
X143857000Y-59110000D01*
X143857000Y-59110000D02*
X143857000Y-59810000D01*
X143857000Y-59810000D02*
X144357000Y-59460000D01*
X144357000Y-59110000D02*
X144357000Y-59810000D01*
X145407000Y-60260000D02*
X143007000Y-60260000D01*
X145407000Y-58660000D02*
X143007000Y-58660000D01*
X136135160Y-57316240D02*
X136086900Y-57316240D01*
X133336180Y-56615200D02*
X133336180Y-57316240D01*
X133336180Y-57316240D02*
X133585100Y-57316240D01*
X136135160Y-57316240D02*
X136335820Y-57316240D01*
X136335820Y-57316240D02*
X136335820Y-56615200D01*
X129404160Y-57062240D02*
X129355900Y-57062240D01*
X126605180Y-56361200D02*
X126605180Y-57062240D01*
X126605180Y-57062240D02*
X126854100Y-57062240D01*
X129404160Y-57062240D02*
X129604820Y-57062240D01*
X129604820Y-57062240D02*
X129604820Y-56361200D01*
X120207000Y-71714000D02*
X120207000Y-72914000D01*
X121957000Y-72914000D02*
X121957000Y-71714000D01*
X116369000Y-53864000D02*
X116369000Y-52664000D01*
X114619000Y-52664000D02*
X114619000Y-53864000D01*
X128324000Y-58585000D02*
X127124000Y-58585000D01*
X127124000Y-60335000D02*
X128324000Y-60335000D01*
X133199000Y-59622000D02*
X133199000Y-60822000D01*
X134949000Y-60822000D02*
X134949000Y-59622000D01*
X130024000Y-55812000D02*
X130024000Y-57012000D01*
X131774000Y-57012000D02*
X131774000Y-55812000D01*
X128345000Y-50916000D02*
X128345000Y-49716000D01*
X126595000Y-49716000D02*
X126595000Y-50916000D01*
X138759000Y-50916000D02*
X138759000Y-49716000D01*
X137009000Y-49716000D02*
X137009000Y-50916000D01*
X135203000Y-50916000D02*
X135203000Y-49716000D01*
X133453000Y-49716000D02*
X133453000Y-50916000D01*
X141063000Y-46506000D02*
X140813000Y-46506000D01*
X141563000Y-46506000D02*
X141813000Y-46506000D01*
X141563000Y-46506000D02*
X141063000Y-46156000D01*
X141063000Y-46156000D02*
X141063000Y-46856000D01*
X141063000Y-46856000D02*
X141563000Y-46506000D01*
X141563000Y-46156000D02*
X141563000Y-46856000D01*
X142613000Y-47306000D02*
X140213000Y-47306000D01*
X142613000Y-45706000D02*
X140213000Y-45706000D01*
X123733760Y-73613160D02*
X123733760Y-73564900D01*
X124434800Y-70814180D02*
X123733760Y-70814180D01*
X123733760Y-70814180D02*
X123733760Y-71063100D01*
X123733760Y-73613160D02*
X123733760Y-73813820D01*
X123733760Y-73813820D02*
X124434800Y-73813820D01*
X130377000Y-50916000D02*
X130377000Y-49716000D01*
X128627000Y-49716000D02*
X128627000Y-50916000D01*
X126582000Y-100246000D02*
X126582000Y-99246000D01*
X128282000Y-99246000D02*
X128282000Y-100246000D01*
X72910000Y-100008000D02*
X72910000Y-101008000D01*
X71210000Y-101008000D02*
X71210000Y-100008000D01*
X98020000Y-110479000D02*
X99220000Y-110479000D01*
X99220000Y-108729000D02*
X98020000Y-108729000D01*
X101970000Y-89479000D02*
X100770000Y-89479000D01*
X100770000Y-91229000D02*
X101970000Y-91229000D01*
X99220000Y-89479000D02*
X98020000Y-89479000D01*
X98020000Y-91229000D02*
X99220000Y-91229000D01*
X101970000Y-108729000D02*
X100770000Y-108729000D01*
X100770000Y-110479000D02*
X101970000Y-110479000D01*
X73267905Y-107702381D02*
X73267905Y-108511905D01*
X73220286Y-108607143D01*
X73172667Y-108654762D01*
X73077429Y-108702381D01*
X72886952Y-108702381D01*
X72791714Y-108654762D01*
X72744095Y-108607143D01*
X72696476Y-108511905D01*
X72696476Y-107702381D01*
X72267905Y-107797619D02*
X72220286Y-107750000D01*
X72125048Y-107702381D01*
X71886952Y-107702381D01*
X71791714Y-107750000D01*
X71744095Y-107797619D01*
X71696476Y-107892857D01*
X71696476Y-107988095D01*
X71744095Y-108130952D01*
X72315524Y-108702381D01*
X71696476Y-108702381D01*
X67438666Y-66972381D02*
X67772000Y-66496190D01*
X68010095Y-66972381D02*
X68010095Y-65972381D01*
X67629142Y-65972381D01*
X67533904Y-66020000D01*
X67486285Y-66067619D01*
X67438666Y-66162857D01*
X67438666Y-66305714D01*
X67486285Y-66400952D01*
X67533904Y-66448571D01*
X67629142Y-66496190D01*
X68010095Y-66496190D01*
X67057714Y-66067619D02*
X67010095Y-66020000D01*
X66914857Y-65972381D01*
X66676761Y-65972381D01*
X66581523Y-66020000D01*
X66533904Y-66067619D01*
X66486285Y-66162857D01*
X66486285Y-66258095D01*
X66533904Y-66400952D01*
X67105333Y-66972381D01*
X66486285Y-66972381D01*
X96303619Y-52702381D02*
X96636953Y-52226190D01*
X96875048Y-52702381D02*
X96875048Y-51702381D01*
X96494095Y-51702381D01*
X96398857Y-51750000D01*
X96351238Y-51797619D01*
X96303619Y-51892857D01*
X96303619Y-52035714D01*
X96351238Y-52130952D01*
X96398857Y-52178571D01*
X96494095Y-52226190D01*
X96875048Y-52226190D01*
X95922667Y-52654762D02*
X95779810Y-52702381D01*
X95541714Y-52702381D01*
X95446476Y-52654762D01*
X95398857Y-52607143D01*
X95351238Y-52511905D01*
X95351238Y-52416667D01*
X95398857Y-52321429D01*
X95446476Y-52273810D01*
X95541714Y-52226190D01*
X95732191Y-52178571D01*
X95827429Y-52130952D01*
X95875048Y-52083333D01*
X95922667Y-51988095D01*
X95922667Y-51892857D01*
X95875048Y-51797619D01*
X95827429Y-51750000D01*
X95732191Y-51702381D01*
X95494095Y-51702381D01*
X95351238Y-51750000D01*
X94922667Y-52178571D02*
X94589333Y-52178571D01*
X94446476Y-52702381D02*
X94922667Y-52702381D01*
X94922667Y-51702381D01*
X94446476Y-51702381D01*
X94017905Y-52702381D02*
X94017905Y-51702381D01*
X93446476Y-52702381D01*
X93446476Y-51702381D01*
X93017905Y-52654762D02*
X92875048Y-52702381D01*
X92636952Y-52702381D01*
X92541714Y-52654762D01*
X92494095Y-52607143D01*
X92446476Y-52511905D01*
X92446476Y-52416667D01*
X92494095Y-52321429D01*
X92541714Y-52273810D01*
X92636952Y-52226190D01*
X92827429Y-52178571D01*
X92922667Y-52130952D01*
X92970286Y-52083333D01*
X93017905Y-51988095D01*
X93017905Y-51892857D01*
X92970286Y-51797619D01*
X92922667Y-51750000D01*
X92827429Y-51702381D01*
X92589333Y-51702381D01*
X92446476Y-51750000D01*
X92017905Y-52178571D02*
X91684571Y-52178571D01*
X91541714Y-52702381D02*
X92017905Y-52702381D01*
X92017905Y-51702381D01*
X91541714Y-51702381D01*
X90589333Y-52702381D02*
X91160762Y-52702381D01*
X90875048Y-52702381D02*
X90875048Y-51702381D01*
X90970286Y-51845238D01*
X91065524Y-51940476D01*
X91160762Y-51988095D01*
X97922666Y-79702381D02*
X98398857Y-79702381D01*
X98398857Y-78702381D01*
X97065523Y-79702381D02*
X97636952Y-79702381D01*
X97351238Y-79702381D02*
X97351238Y-78702381D01*
X97446476Y-78845238D01*
X97541714Y-78940476D01*
X97636952Y-78988095D01*
X92864095Y-50550381D02*
X92864095Y-49550381D01*
X92626000Y-49550381D01*
X92483142Y-49598000D01*
X92387904Y-49693238D01*
X92340285Y-49788476D01*
X92292666Y-49978952D01*
X92292666Y-50121810D01*
X92340285Y-50312286D01*
X92387904Y-50407524D01*
X92483142Y-50502762D01*
X92626000Y-50550381D01*
X92864095Y-50550381D01*
X91340285Y-50550381D02*
X91911714Y-50550381D01*
X91626000Y-50550381D02*
X91626000Y-49550381D01*
X91721238Y-49693238D01*
X91816476Y-49788476D01*
X91911714Y-49836095D01*
X98767905Y-52952381D02*
X98196476Y-52952381D01*
X98482191Y-53952381D02*
X98482191Y-52952381D01*
X97339333Y-53952381D02*
X97910762Y-53952381D01*
X97625048Y-53952381D02*
X97625048Y-52952381D01*
X97720286Y-53095238D01*
X97815524Y-53190476D01*
X97910762Y-53238095D01*
X81672666Y-66607143D02*
X81720285Y-66654762D01*
X81863142Y-66702381D01*
X81958380Y-66702381D01*
X82101238Y-66654762D01*
X82196476Y-66559524D01*
X82244095Y-66464286D01*
X82291714Y-66273810D01*
X82291714Y-66130952D01*
X82244095Y-65940476D01*
X82196476Y-65845238D01*
X82101238Y-65750000D01*
X81958380Y-65702381D01*
X81863142Y-65702381D01*
X81720285Y-65750000D01*
X81672666Y-65797619D01*
X81291714Y-65797619D02*
X81244095Y-65750000D01*
X81148857Y-65702381D01*
X80910761Y-65702381D01*
X80815523Y-65750000D01*
X80767904Y-65797619D01*
X80720285Y-65892857D01*
X80720285Y-65988095D01*
X80767904Y-66130952D01*
X81339333Y-66702381D01*
X80720285Y-66702381D01*
X72857143Y-58939334D02*
X72904762Y-58891715D01*
X72952381Y-58748858D01*
X72952381Y-58653620D01*
X72904762Y-58510762D01*
X72809524Y-58415524D01*
X72714286Y-58367905D01*
X72523810Y-58320286D01*
X72380952Y-58320286D01*
X72190476Y-58367905D01*
X72095238Y-58415524D01*
X72000000Y-58510762D01*
X71952381Y-58653620D01*
X71952381Y-58748858D01*
X72000000Y-58891715D01*
X72047619Y-58939334D01*
X71952381Y-59272667D02*
X71952381Y-59891715D01*
X72333333Y-59558381D01*
X72333333Y-59701239D01*
X72380952Y-59796477D01*
X72428571Y-59844096D01*
X72523810Y-59891715D01*
X72761905Y-59891715D01*
X72857143Y-59844096D01*
X72904762Y-59796477D01*
X72952381Y-59701239D01*
X72952381Y-59415524D01*
X72904762Y-59320286D01*
X72857143Y-59272667D01*
X80862666Y-70893143D02*
X80910285Y-70940762D01*
X81053142Y-70988381D01*
X81148380Y-70988381D01*
X81291238Y-70940762D01*
X81386476Y-70845524D01*
X81434095Y-70750286D01*
X81481714Y-70559810D01*
X81481714Y-70416952D01*
X81434095Y-70226476D01*
X81386476Y-70131238D01*
X81291238Y-70036000D01*
X81148380Y-69988381D01*
X81053142Y-69988381D01*
X80910285Y-70036000D01*
X80862666Y-70083619D01*
X79957904Y-69988381D02*
X80434095Y-69988381D01*
X80481714Y-70464571D01*
X80434095Y-70416952D01*
X80338857Y-70369333D01*
X80100761Y-70369333D01*
X80005523Y-70416952D01*
X79957904Y-70464571D01*
X79910285Y-70559810D01*
X79910285Y-70797905D01*
X79957904Y-70893143D01*
X80005523Y-70940762D01*
X80100761Y-70988381D01*
X80338857Y-70988381D01*
X80434095Y-70940762D01*
X80481714Y-70893143D01*
X72952381Y-65797334D02*
X72476190Y-65464000D01*
X72952381Y-65225905D02*
X71952381Y-65225905D01*
X71952381Y-65606858D01*
X72000000Y-65702096D01*
X72047619Y-65749715D01*
X72142857Y-65797334D01*
X72285714Y-65797334D01*
X72380952Y-65749715D01*
X72428571Y-65702096D01*
X72476190Y-65606858D01*
X72476190Y-65225905D01*
X72952381Y-66749715D02*
X72952381Y-66178286D01*
X72952381Y-66464000D02*
X71952381Y-66464000D01*
X72095238Y-66368762D01*
X72190476Y-66273524D01*
X72238095Y-66178286D01*
X83422666Y-43857143D02*
X83470285Y-43904762D01*
X83613142Y-43952381D01*
X83708380Y-43952381D01*
X83851238Y-43904762D01*
X83946476Y-43809524D01*
X83994095Y-43714286D01*
X84041714Y-43523810D01*
X84041714Y-43380952D01*
X83994095Y-43190476D01*
X83946476Y-43095238D01*
X83851238Y-43000000D01*
X83708380Y-42952381D01*
X83613142Y-42952381D01*
X83470285Y-43000000D01*
X83422666Y-43047619D01*
X82565523Y-43285714D02*
X82565523Y-43952381D01*
X82803619Y-42904762D02*
X83041714Y-43619048D01*
X82422666Y-43619048D01*
X65672666Y-56357143D02*
X65720285Y-56404762D01*
X65863142Y-56452381D01*
X65958380Y-56452381D01*
X66101238Y-56404762D01*
X66196476Y-56309524D01*
X66244095Y-56214286D01*
X66291714Y-56023810D01*
X66291714Y-55880952D01*
X66244095Y-55690476D01*
X66196476Y-55595238D01*
X66101238Y-55500000D01*
X65958380Y-55452381D01*
X65863142Y-55452381D01*
X65720285Y-55500000D01*
X65672666Y-55547619D01*
X64815523Y-55452381D02*
X65006000Y-55452381D01*
X65101238Y-55500000D01*
X65148857Y-55547619D01*
X65244095Y-55690476D01*
X65291714Y-55880952D01*
X65291714Y-56261905D01*
X65244095Y-56357143D01*
X65196476Y-56404762D01*
X65101238Y-56452381D01*
X64910761Y-56452381D01*
X64815523Y-56404762D01*
X64767904Y-56357143D01*
X64720285Y-56261905D01*
X64720285Y-56023810D01*
X64767904Y-55928571D01*
X64815523Y-55880952D01*
X64910761Y-55833333D01*
X65101238Y-55833333D01*
X65196476Y-55880952D01*
X65244095Y-55928571D01*
X65291714Y-56023810D01*
X71210666Y-73179143D02*
X71258285Y-73226762D01*
X71401142Y-73274381D01*
X71496380Y-73274381D01*
X71639238Y-73226762D01*
X71734476Y-73131524D01*
X71782095Y-73036286D01*
X71829714Y-72845810D01*
X71829714Y-72702952D01*
X71782095Y-72512476D01*
X71734476Y-72417238D01*
X71639238Y-72322000D01*
X71496380Y-72274381D01*
X71401142Y-72274381D01*
X71258285Y-72322000D01*
X71210666Y-72369619D01*
X70258285Y-73274381D02*
X70829714Y-73274381D01*
X70544000Y-73274381D02*
X70544000Y-72274381D01*
X70639238Y-72417238D01*
X70734476Y-72512476D01*
X70829714Y-72560095D01*
X76267905Y-61202381D02*
X76267905Y-62011905D01*
X76220286Y-62107143D01*
X76172667Y-62154762D01*
X76077429Y-62202381D01*
X75886952Y-62202381D01*
X75791714Y-62154762D01*
X75744095Y-62107143D01*
X75696476Y-62011905D01*
X75696476Y-61202381D01*
X74696476Y-62202381D02*
X75267905Y-62202381D01*
X74982191Y-62202381D02*
X74982191Y-61202381D01*
X75077429Y-61345238D01*
X75172667Y-61440476D01*
X75267905Y-61488095D01*
X118863143Y-53333334D02*
X118910762Y-53285715D01*
X118958381Y-53142858D01*
X118958381Y-53047620D01*
X118910762Y-52904762D01*
X118815524Y-52809524D01*
X118720286Y-52761905D01*
X118529810Y-52714286D01*
X118386952Y-52714286D01*
X118196476Y-52761905D01*
X118101238Y-52809524D01*
X118006000Y-52904762D01*
X117958381Y-53047620D01*
X117958381Y-53142858D01*
X118006000Y-53285715D01*
X118053619Y-53333334D01*
X117958381Y-53666667D02*
X117958381Y-54333334D01*
X118958381Y-53904762D01*
X149113143Y-54833334D02*
X149160762Y-54785715D01*
X149208381Y-54642858D01*
X149208381Y-54547620D01*
X149160762Y-54404762D01*
X149065524Y-54309524D01*
X148970286Y-54261905D01*
X148779810Y-54214286D01*
X148636952Y-54214286D01*
X148446476Y-54261905D01*
X148351238Y-54309524D01*
X148256000Y-54404762D01*
X148208381Y-54547620D01*
X148208381Y-54642858D01*
X148256000Y-54785715D01*
X148303619Y-54833334D01*
X148636952Y-55404762D02*
X148589333Y-55309524D01*
X148541714Y-55261905D01*
X148446476Y-55214286D01*
X148398857Y-55214286D01*
X148303619Y-55261905D01*
X148256000Y-55309524D01*
X148208381Y-55404762D01*
X148208381Y-55595239D01*
X148256000Y-55690477D01*
X148303619Y-55738096D01*
X148398857Y-55785715D01*
X148446476Y-55785715D01*
X148541714Y-55738096D01*
X148589333Y-55690477D01*
X148636952Y-55595239D01*
X148636952Y-55404762D01*
X148684571Y-55309524D01*
X148732190Y-55261905D01*
X148827429Y-55214286D01*
X149017905Y-55214286D01*
X149113143Y-55261905D01*
X149160762Y-55309524D01*
X149208381Y-55404762D01*
X149208381Y-55595239D01*
X149160762Y-55690477D01*
X149113143Y-55738096D01*
X149017905Y-55785715D01*
X148827429Y-55785715D01*
X148732190Y-55738096D01*
X148684571Y-55690477D01*
X148636952Y-55595239D01*
X124863143Y-50833334D02*
X124910762Y-50785715D01*
X124958381Y-50642858D01*
X124958381Y-50547620D01*
X124910762Y-50404762D01*
X124815524Y-50309524D01*
X124720286Y-50261905D01*
X124529810Y-50214286D01*
X124386952Y-50214286D01*
X124196476Y-50261905D01*
X124101238Y-50309524D01*
X124006000Y-50404762D01*
X123958381Y-50547620D01*
X123958381Y-50642858D01*
X124006000Y-50785715D01*
X124053619Y-50833334D01*
X124958381Y-51309524D02*
X124958381Y-51500000D01*
X124910762Y-51595239D01*
X124863143Y-51642858D01*
X124720286Y-51738096D01*
X124529810Y-51785715D01*
X124148857Y-51785715D01*
X124053619Y-51738096D01*
X124006000Y-51690477D01*
X123958381Y-51595239D01*
X123958381Y-51404762D01*
X124006000Y-51309524D01*
X124053619Y-51261905D01*
X124148857Y-51214286D01*
X124386952Y-51214286D01*
X124482190Y-51261905D01*
X124529810Y-51309524D01*
X124577429Y-51404762D01*
X124577429Y-51595239D01*
X124529810Y-51690477D01*
X124482190Y-51738096D01*
X124386952Y-51785715D01*
X141363143Y-54357143D02*
X141410762Y-54309524D01*
X141458381Y-54166667D01*
X141458381Y-54071429D01*
X141410762Y-53928571D01*
X141315524Y-53833333D01*
X141220286Y-53785714D01*
X141029810Y-53738095D01*
X140886952Y-53738095D01*
X140696476Y-53785714D01*
X140601238Y-53833333D01*
X140506000Y-53928571D01*
X140458381Y-54071429D01*
X140458381Y-54166667D01*
X140506000Y-54309524D01*
X140553619Y-54357143D01*
X141458381Y-55309524D02*
X141458381Y-54738095D01*
X141458381Y-55023809D02*
X140458381Y-55023809D01*
X140601238Y-54928571D01*
X140696476Y-54833333D01*
X140744095Y-54738095D01*
X140458381Y-55928571D02*
X140458381Y-56023810D01*
X140506000Y-56119048D01*
X140553619Y-56166667D01*
X140648857Y-56214286D01*
X140839333Y-56261905D01*
X141077429Y-56261905D01*
X141267905Y-56214286D01*
X141363143Y-56166667D01*
X141410762Y-56119048D01*
X141458381Y-56023810D01*
X141458381Y-55928571D01*
X141410762Y-55833333D01*
X141363143Y-55785714D01*
X141267905Y-55738095D01*
X141077429Y-55690476D01*
X140839333Y-55690476D01*
X140648857Y-55738095D01*
X140553619Y-55785714D01*
X140506000Y-55833333D01*
X140458381Y-55928571D01*
X128267905Y-107702381D02*
X128267905Y-108511905D01*
X128220286Y-108607143D01*
X128172667Y-108654762D01*
X128077429Y-108702381D01*
X127886952Y-108702381D01*
X127791714Y-108654762D01*
X127744095Y-108607143D01*
X127696476Y-108511905D01*
X127696476Y-107702381D01*
X126791714Y-108035714D02*
X126791714Y-108702381D01*
X127029810Y-107654762D02*
X127267905Y-108369048D01*
X126648857Y-108369048D01*
X148670286Y-65842857D02*
X148670286Y-66814286D01*
X148613143Y-66928571D01*
X148556000Y-66985714D01*
X148441714Y-67042857D01*
X148213143Y-67042857D01*
X148098857Y-66985714D01*
X148041714Y-66928571D01*
X147984571Y-66814286D01*
X147984571Y-65842857D01*
X147527428Y-65842857D02*
X146784571Y-65842857D01*
X147184571Y-66300000D01*
X147013143Y-66300000D01*
X146898857Y-66357143D01*
X146841714Y-66414286D01*
X146784571Y-66528571D01*
X146784571Y-66814286D01*
X146841714Y-66928571D01*
X146898857Y-66985714D01*
X147013143Y-67042857D01*
X147356000Y-67042857D01*
X147470286Y-66985714D01*
X147527428Y-66928571D01*
X124694287Y-59560000D02*
X124122858Y-59560000D01*
X124808572Y-59902857D02*
X124408572Y-58702857D01*
X124008572Y-59902857D01*
X122922858Y-59902857D02*
X123322858Y-59331429D01*
X123608573Y-59902857D02*
X123608573Y-58702857D01*
X123151430Y-58702857D01*
X123037144Y-58760000D01*
X122980001Y-58817143D01*
X122922858Y-58931429D01*
X122922858Y-59102857D01*
X122980001Y-59217143D01*
X123037144Y-59274286D01*
X123151430Y-59331429D01*
X123608573Y-59331429D01*
X122408573Y-59902857D02*
X122408573Y-58702857D01*
X122122858Y-58702857D01*
X121951430Y-58760000D01*
X121837144Y-58874286D01*
X121780001Y-58988571D01*
X121722858Y-59217143D01*
X121722858Y-59388571D01*
X121780001Y-59617143D01*
X121837144Y-59731429D01*
X121951430Y-59845714D01*
X122122858Y-59902857D01*
X122408573Y-59902857D01*
X121208573Y-58702857D02*
X121208573Y-59674286D01*
X121151430Y-59788571D01*
X121094287Y-59845714D01*
X120980001Y-59902857D01*
X120751430Y-59902857D01*
X120637144Y-59845714D01*
X120580001Y-59788571D01*
X120522858Y-59674286D01*
X120522858Y-58702857D01*
X119951430Y-59902857D02*
X119951430Y-58702857D01*
X119380001Y-59902857D02*
X119380001Y-58702857D01*
X118694286Y-59902857D01*
X118694286Y-58702857D01*
X117894286Y-58702857D02*
X117665715Y-58702857D01*
X117551429Y-58760000D01*
X117437143Y-58874286D01*
X117380001Y-59102857D01*
X117380001Y-59502857D01*
X117437143Y-59731429D01*
X117551429Y-59845714D01*
X117665715Y-59902857D01*
X117894286Y-59902857D01*
X118008572Y-59845714D01*
X118122858Y-59731429D01*
X118180001Y-59502857D01*
X118180001Y-59102857D01*
X118122858Y-58874286D01*
X118008572Y-58760000D01*
X117894286Y-58702857D01*
X117151429Y-60017143D02*
X116237143Y-60017143D01*
X115951429Y-59902857D02*
X115951429Y-58702857D01*
X115551429Y-59560000D01*
X115151429Y-58702857D01*
X115151429Y-59902857D01*
X114580000Y-59902857D02*
X114580000Y-58702857D01*
X113322856Y-59788571D02*
X113379999Y-59845714D01*
X113551428Y-59902857D01*
X113665714Y-59902857D01*
X113837142Y-59845714D01*
X113951428Y-59731429D01*
X114008571Y-59617143D01*
X114065714Y-59388571D01*
X114065714Y-59217143D01*
X114008571Y-58988571D01*
X113951428Y-58874286D01*
X113837142Y-58760000D01*
X113665714Y-58702857D01*
X113551428Y-58702857D01*
X113379999Y-58760000D01*
X113322856Y-58817143D01*
X112122856Y-59902857D02*
X112522856Y-59331429D01*
X112808571Y-59902857D02*
X112808571Y-58702857D01*
X112351428Y-58702857D01*
X112237142Y-58760000D01*
X112179999Y-58817143D01*
X112122856Y-58931429D01*
X112122856Y-59102857D01*
X112179999Y-59217143D01*
X112237142Y-59274286D01*
X112351428Y-59331429D01*
X112808571Y-59331429D01*
X111379999Y-58702857D02*
X111151428Y-58702857D01*
X111037142Y-58760000D01*
X110922856Y-58874286D01*
X110865714Y-59102857D01*
X110865714Y-59502857D01*
X110922856Y-59731429D01*
X111037142Y-59845714D01*
X111151428Y-59902857D01*
X111379999Y-59902857D01*
X111494285Y-59845714D01*
X111608571Y-59731429D01*
X111665714Y-59502857D01*
X111665714Y-59102857D01*
X111608571Y-58874286D01*
X111494285Y-58760000D01*
X111379999Y-58702857D01*
X141261905Y-92802381D02*
X141261905Y-93611905D01*
X141214286Y-93707143D01*
X141166667Y-93754762D01*
X141071429Y-93802381D01*
X140880952Y-93802381D01*
X140785714Y-93754762D01*
X140738095Y-93707143D01*
X140690476Y-93611905D01*
X140690476Y-92802381D01*
X139738095Y-92802381D02*
X140214286Y-92802381D01*
X140261905Y-93278571D01*
X140214286Y-93230952D01*
X140119048Y-93183333D01*
X139880952Y-93183333D01*
X139785714Y-93230952D01*
X139738095Y-93278571D01*
X139690476Y-93373810D01*
X139690476Y-93611905D01*
X139738095Y-93707143D01*
X139785714Y-93754762D01*
X139880952Y-93802381D01*
X140119048Y-93802381D01*
X140214286Y-93754762D01*
X140261905Y-93707143D01*
X52458381Y-53416667D02*
X53172667Y-53416667D01*
X53315524Y-53369047D01*
X53410762Y-53273809D01*
X53458381Y-53130952D01*
X53458381Y-53035714D01*
X53458381Y-54416667D02*
X53458381Y-53845238D01*
X53458381Y-54130952D02*
X52458381Y-54130952D01*
X52601238Y-54035714D01*
X52696476Y-53940476D01*
X52744095Y-53845238D01*
X115208381Y-56833334D02*
X114732190Y-56500000D01*
X115208381Y-56261905D02*
X114208381Y-56261905D01*
X114208381Y-56642858D01*
X114256000Y-56738096D01*
X114303619Y-56785715D01*
X114398857Y-56833334D01*
X114541714Y-56833334D01*
X114636952Y-56785715D01*
X114684571Y-56738096D01*
X114732190Y-56642858D01*
X114732190Y-56261905D01*
X114541714Y-57690477D02*
X115208381Y-57690477D01*
X114160762Y-57452381D02*
X114875048Y-57214286D01*
X114875048Y-57833334D01*
X145458381Y-50083334D02*
X144982190Y-49750000D01*
X145458381Y-49511905D02*
X144458381Y-49511905D01*
X144458381Y-49892858D01*
X144506000Y-49988096D01*
X144553619Y-50035715D01*
X144648857Y-50083334D01*
X144791714Y-50083334D01*
X144886952Y-50035715D01*
X144934571Y-49988096D01*
X144982190Y-49892858D01*
X144982190Y-49511905D01*
X144458381Y-50416667D02*
X144458381Y-51035715D01*
X144839333Y-50702381D01*
X144839333Y-50845239D01*
X144886952Y-50940477D01*
X144934571Y-50988096D01*
X145029810Y-51035715D01*
X145267905Y-51035715D01*
X145363143Y-50988096D01*
X145410762Y-50940477D01*
X145458381Y-50845239D01*
X145458381Y-50559524D01*
X145410762Y-50464286D01*
X145363143Y-50416667D01*
X146648857Y-52607143D02*
X146696476Y-52654762D01*
X146839333Y-52702381D01*
X146934571Y-52702381D01*
X147077429Y-52654762D01*
X147172667Y-52559524D01*
X147220286Y-52464286D01*
X147267905Y-52273810D01*
X147267905Y-52130952D01*
X147220286Y-51940476D01*
X147172667Y-51845238D01*
X147077429Y-51750000D01*
X146934571Y-51702381D01*
X146839333Y-51702381D01*
X146696476Y-51750000D01*
X146648857Y-51797619D01*
X145696476Y-52702381D02*
X146267905Y-52702381D01*
X145982191Y-52702381D02*
X145982191Y-51702381D01*
X146077429Y-51845238D01*
X146172667Y-51940476D01*
X146267905Y-51988095D01*
X144744095Y-52702381D02*
X145315524Y-52702381D01*
X145029810Y-52702381D02*
X145029810Y-51702381D01*
X145125048Y-51845238D01*
X145220286Y-51940476D01*
X145315524Y-51988095D01*
X148695381Y-44878905D02*
X147695381Y-44878905D01*
X147695381Y-45117000D01*
X147743000Y-45259858D01*
X147838238Y-45355096D01*
X147933476Y-45402715D01*
X148123952Y-45450334D01*
X148266810Y-45450334D01*
X148457286Y-45402715D01*
X148552524Y-45355096D01*
X148647762Y-45259858D01*
X148695381Y-45117000D01*
X148695381Y-44878905D01*
X147790619Y-45831286D02*
X147743000Y-45878905D01*
X147695381Y-45974143D01*
X147695381Y-46212239D01*
X147743000Y-46307477D01*
X147790619Y-46355096D01*
X147885857Y-46402715D01*
X147981095Y-46402715D01*
X148123952Y-46355096D01*
X148695381Y-45783667D01*
X148695381Y-46402715D01*
X144845095Y-58062381D02*
X144845095Y-57062381D01*
X144607000Y-57062381D01*
X144464142Y-57110000D01*
X144368904Y-57205238D01*
X144321285Y-57300476D01*
X144273666Y-57490952D01*
X144273666Y-57633810D01*
X144321285Y-57824286D01*
X144368904Y-57919524D01*
X144464142Y-58014762D01*
X144607000Y-58062381D01*
X144845095Y-58062381D01*
X143940333Y-57062381D02*
X143321285Y-57062381D01*
X143654619Y-57443333D01*
X143511761Y-57443333D01*
X143416523Y-57490952D01*
X143368904Y-57538571D01*
X143321285Y-57633810D01*
X143321285Y-57871905D01*
X143368904Y-57967143D01*
X143416523Y-58014762D01*
X143511761Y-58062381D01*
X143797476Y-58062381D01*
X143892714Y-58014762D01*
X143940333Y-57967143D01*
X134931238Y-59463619D02*
X135026476Y-59416000D01*
X135121714Y-59320762D01*
X135264571Y-59177905D01*
X135359810Y-59130286D01*
X135455048Y-59130286D01*
X135407429Y-59368381D02*
X135502667Y-59320762D01*
X135597905Y-59225524D01*
X135645524Y-59035048D01*
X135645524Y-58701714D01*
X135597905Y-58511238D01*
X135502667Y-58416000D01*
X135407429Y-58368381D01*
X135216952Y-58368381D01*
X135121714Y-58416000D01*
X135026476Y-58511238D01*
X134978857Y-58701714D01*
X134978857Y-59035048D01*
X135026476Y-59225524D01*
X135121714Y-59320762D01*
X135216952Y-59368381D01*
X135407429Y-59368381D01*
X134026476Y-59368381D02*
X134597905Y-59368381D01*
X134312191Y-59368381D02*
X134312191Y-58368381D01*
X134407429Y-58511238D01*
X134502667Y-58606476D01*
X134597905Y-58654095D01*
X128200238Y-59209619D02*
X128295476Y-59162000D01*
X128390714Y-59066762D01*
X128533571Y-58923905D01*
X128628810Y-58876286D01*
X128724048Y-58876286D01*
X128676429Y-59114381D02*
X128771667Y-59066762D01*
X128866905Y-58971524D01*
X128914524Y-58781048D01*
X128914524Y-58447714D01*
X128866905Y-58257238D01*
X128771667Y-58162000D01*
X128676429Y-58114381D01*
X128485952Y-58114381D01*
X128390714Y-58162000D01*
X128295476Y-58257238D01*
X128247857Y-58447714D01*
X128247857Y-58781048D01*
X128295476Y-58971524D01*
X128390714Y-59066762D01*
X128485952Y-59114381D01*
X128676429Y-59114381D01*
X127866905Y-58209619D02*
X127819286Y-58162000D01*
X127724048Y-58114381D01*
X127485952Y-58114381D01*
X127390714Y-58162000D01*
X127343095Y-58209619D01*
X127295476Y-58304857D01*
X127295476Y-58400095D01*
X127343095Y-58542952D01*
X127914524Y-59114381D01*
X127295476Y-59114381D01*
X119708381Y-72083334D02*
X119232190Y-71750000D01*
X119708381Y-71511905D02*
X118708381Y-71511905D01*
X118708381Y-71892858D01*
X118756000Y-71988096D01*
X118803619Y-72035715D01*
X118898857Y-72083334D01*
X119041714Y-72083334D01*
X119136952Y-72035715D01*
X119184571Y-71988096D01*
X119232190Y-71892858D01*
X119232190Y-71511905D01*
X118708381Y-72988096D02*
X118708381Y-72511905D01*
X119184571Y-72464286D01*
X119136952Y-72511905D01*
X119089333Y-72607143D01*
X119089333Y-72845239D01*
X119136952Y-72940477D01*
X119184571Y-72988096D01*
X119279810Y-73035715D01*
X119517905Y-73035715D01*
X119613143Y-72988096D01*
X119660762Y-72940477D01*
X119708381Y-72845239D01*
X119708381Y-72607143D01*
X119660762Y-72511905D01*
X119613143Y-72464286D01*
X114208381Y-53083334D02*
X113732190Y-52750000D01*
X114208381Y-52511905D02*
X113208381Y-52511905D01*
X113208381Y-52892858D01*
X113256000Y-52988096D01*
X113303619Y-53035715D01*
X113398857Y-53083334D01*
X113541714Y-53083334D01*
X113636952Y-53035715D01*
X113684571Y-52988096D01*
X113732190Y-52892858D01*
X113732190Y-52511905D01*
X113208381Y-53940477D02*
X113208381Y-53750000D01*
X113256000Y-53654762D01*
X113303619Y-53607143D01*
X113446476Y-53511905D01*
X113636952Y-53464286D01*
X114017905Y-53464286D01*
X114113143Y-53511905D01*
X114160762Y-53559524D01*
X114208381Y-53654762D01*
X114208381Y-53845239D01*
X114160762Y-53940477D01*
X114113143Y-53988096D01*
X114017905Y-54035715D01*
X113779810Y-54035715D01*
X113684571Y-53988096D01*
X113636952Y-53940477D01*
X113589333Y-53845239D01*
X113589333Y-53654762D01*
X113636952Y-53559524D01*
X113684571Y-53511905D01*
X113779810Y-53464286D01*
X127890666Y-62012381D02*
X128224000Y-61536190D01*
X128462095Y-62012381D02*
X128462095Y-61012381D01*
X128081142Y-61012381D01*
X127985904Y-61060000D01*
X127938285Y-61107619D01*
X127890666Y-61202857D01*
X127890666Y-61345714D01*
X127938285Y-61440952D01*
X127985904Y-61488571D01*
X128081142Y-61536190D01*
X128462095Y-61536190D01*
X127319238Y-61440952D02*
X127414476Y-61393333D01*
X127462095Y-61345714D01*
X127509714Y-61250476D01*
X127509714Y-61202857D01*
X127462095Y-61107619D01*
X127414476Y-61060000D01*
X127319238Y-61012381D01*
X127128761Y-61012381D01*
X127033523Y-61060000D01*
X126985904Y-61107619D01*
X126938285Y-61202857D01*
X126938285Y-61250476D01*
X126985904Y-61345714D01*
X127033523Y-61393333D01*
X127128761Y-61440952D01*
X127319238Y-61440952D01*
X127414476Y-61488571D01*
X127462095Y-61536190D01*
X127509714Y-61631429D01*
X127509714Y-61821905D01*
X127462095Y-61917143D01*
X127414476Y-61964762D01*
X127319238Y-62012381D01*
X127128761Y-62012381D01*
X127033523Y-61964762D01*
X126985904Y-61917143D01*
X126938285Y-61821905D01*
X126938285Y-61631429D01*
X126985904Y-61536190D01*
X127033523Y-61488571D01*
X127128761Y-61440952D01*
X135208381Y-62833334D02*
X134732190Y-62500000D01*
X135208381Y-62261905D02*
X134208381Y-62261905D01*
X134208381Y-62642858D01*
X134256000Y-62738096D01*
X134303619Y-62785715D01*
X134398857Y-62833334D01*
X134541714Y-62833334D01*
X134636952Y-62785715D01*
X134684571Y-62738096D01*
X134732190Y-62642858D01*
X134732190Y-62261905D01*
X135208381Y-63309524D02*
X135208381Y-63500000D01*
X135160762Y-63595239D01*
X135113143Y-63642858D01*
X134970286Y-63738096D01*
X134779810Y-63785715D01*
X134398857Y-63785715D01*
X134303619Y-63738096D01*
X134256000Y-63690477D01*
X134208381Y-63595239D01*
X134208381Y-63404762D01*
X134256000Y-63309524D01*
X134303619Y-63261905D01*
X134398857Y-63214286D01*
X134636952Y-63214286D01*
X134732190Y-63261905D01*
X134779810Y-63309524D01*
X134827429Y-63404762D01*
X134827429Y-63595239D01*
X134779810Y-63690477D01*
X134732190Y-63738096D01*
X134636952Y-63785715D01*
X131708381Y-52607143D02*
X131232190Y-52273809D01*
X131708381Y-52035714D02*
X130708381Y-52035714D01*
X130708381Y-52416667D01*
X130756000Y-52511905D01*
X130803619Y-52559524D01*
X130898857Y-52607143D01*
X131041714Y-52607143D01*
X131136952Y-52559524D01*
X131184571Y-52511905D01*
X131232190Y-52416667D01*
X131232190Y-52035714D01*
X131708381Y-53559524D02*
X131708381Y-52988095D01*
X131708381Y-53273809D02*
X130708381Y-53273809D01*
X130851238Y-53178571D01*
X130946476Y-53083333D01*
X130994095Y-52988095D01*
X130708381Y-54178571D02*
X130708381Y-54273810D01*
X130756000Y-54369048D01*
X130803619Y-54416667D01*
X130898857Y-54464286D01*
X131089333Y-54511905D01*
X131327429Y-54511905D01*
X131517905Y-54464286D01*
X131613143Y-54416667D01*
X131660762Y-54369048D01*
X131708381Y-54273810D01*
X131708381Y-54178571D01*
X131660762Y-54083333D01*
X131613143Y-54035714D01*
X131517905Y-53988095D01*
X131327429Y-53940476D01*
X131089333Y-53940476D01*
X130898857Y-53988095D01*
X130803619Y-54035714D01*
X130756000Y-54083333D01*
X130708381Y-54178571D01*
X127958381Y-52607143D02*
X127482190Y-52273809D01*
X127958381Y-52035714D02*
X126958381Y-52035714D01*
X126958381Y-52416667D01*
X127006000Y-52511905D01*
X127053619Y-52559524D01*
X127148857Y-52607143D01*
X127291714Y-52607143D01*
X127386952Y-52559524D01*
X127434571Y-52511905D01*
X127482190Y-52416667D01*
X127482190Y-52035714D01*
X127958381Y-53559524D02*
X127958381Y-52988095D01*
X127958381Y-53273809D02*
X126958381Y-53273809D01*
X127101238Y-53178571D01*
X127196476Y-53083333D01*
X127244095Y-52988095D01*
X127958381Y-54511905D02*
X127958381Y-53940476D01*
X127958381Y-54226190D02*
X126958381Y-54226190D01*
X127101238Y-54130952D01*
X127196476Y-54035714D01*
X127244095Y-53940476D01*
X138708381Y-52857143D02*
X138232190Y-52523809D01*
X138708381Y-52285714D02*
X137708381Y-52285714D01*
X137708381Y-52666667D01*
X137756000Y-52761905D01*
X137803619Y-52809524D01*
X137898857Y-52857143D01*
X138041714Y-52857143D01*
X138136952Y-52809524D01*
X138184571Y-52761905D01*
X138232190Y-52666667D01*
X138232190Y-52285714D01*
X138708381Y-53809524D02*
X138708381Y-53238095D01*
X138708381Y-53523809D02*
X137708381Y-53523809D01*
X137851238Y-53428571D01*
X137946476Y-53333333D01*
X137994095Y-53238095D01*
X137803619Y-54190476D02*
X137756000Y-54238095D01*
X137708381Y-54333333D01*
X137708381Y-54571429D01*
X137756000Y-54666667D01*
X137803619Y-54714286D01*
X137898857Y-54761905D01*
X137994095Y-54761905D01*
X138136952Y-54714286D01*
X138708381Y-54142857D01*
X138708381Y-54761905D01*
X134458381Y-52857143D02*
X133982190Y-52523809D01*
X134458381Y-52285714D02*
X133458381Y-52285714D01*
X133458381Y-52666667D01*
X133506000Y-52761905D01*
X133553619Y-52809524D01*
X133648857Y-52857143D01*
X133791714Y-52857143D01*
X133886952Y-52809524D01*
X133934571Y-52761905D01*
X133982190Y-52666667D01*
X133982190Y-52285714D01*
X134458381Y-53809524D02*
X134458381Y-53238095D01*
X134458381Y-53523809D02*
X133458381Y-53523809D01*
X133601238Y-53428571D01*
X133696476Y-53333333D01*
X133744095Y-53238095D01*
X133458381Y-54142857D02*
X133458381Y-54761905D01*
X133839333Y-54428571D01*
X133839333Y-54571429D01*
X133886952Y-54666667D01*
X133934571Y-54714286D01*
X134029810Y-54761905D01*
X134267905Y-54761905D01*
X134363143Y-54714286D01*
X134410762Y-54666667D01*
X134458381Y-54571429D01*
X134458381Y-54285714D01*
X134410762Y-54190476D01*
X134363143Y-54142857D01*
X142051095Y-45108381D02*
X142051095Y-44108381D01*
X141813000Y-44108381D01*
X141670142Y-44156000D01*
X141574904Y-44251238D01*
X141527285Y-44346476D01*
X141479666Y-44536952D01*
X141479666Y-44679810D01*
X141527285Y-44870286D01*
X141574904Y-44965524D01*
X141670142Y-45060762D01*
X141813000Y-45108381D01*
X142051095Y-45108381D01*
X140622523Y-44441714D02*
X140622523Y-45108381D01*
X140860619Y-44060762D02*
X141098714Y-44775048D01*
X140479666Y-44775048D01*
X124803619Y-75154762D02*
X124756000Y-75059524D01*
X124660762Y-74964286D01*
X124517905Y-74821429D01*
X124470286Y-74726190D01*
X124470286Y-74630952D01*
X124708381Y-74678571D02*
X124660762Y-74583333D01*
X124565524Y-74488095D01*
X124375048Y-74440476D01*
X124041714Y-74440476D01*
X123851238Y-74488095D01*
X123756000Y-74583333D01*
X123708381Y-74678571D01*
X123708381Y-74869048D01*
X123756000Y-74964286D01*
X123851238Y-75059524D01*
X124041714Y-75107143D01*
X124375048Y-75107143D01*
X124565524Y-75059524D01*
X124660762Y-74964286D01*
X124708381Y-74869048D01*
X124708381Y-74678571D01*
X123708381Y-75440476D02*
X123708381Y-76059524D01*
X124089333Y-75726190D01*
X124089333Y-75869048D01*
X124136952Y-75964286D01*
X124184571Y-76011905D01*
X124279810Y-76059524D01*
X124517905Y-76059524D01*
X124613143Y-76011905D01*
X124660762Y-75964286D01*
X124708381Y-75869048D01*
X124708381Y-75583333D01*
X124660762Y-75488095D01*
X124613143Y-75440476D01*
X129708381Y-52607143D02*
X129232190Y-52273809D01*
X129708381Y-52035714D02*
X128708381Y-52035714D01*
X128708381Y-52416667D01*
X128756000Y-52511905D01*
X128803619Y-52559524D01*
X128898857Y-52607143D01*
X129041714Y-52607143D01*
X129136952Y-52559524D01*
X129184571Y-52511905D01*
X129232190Y-52416667D01*
X129232190Y-52035714D01*
X129708381Y-53559524D02*
X129708381Y-52988095D01*
X129708381Y-53273809D02*
X128708381Y-53273809D01*
X128851238Y-53178571D01*
X128946476Y-53083333D01*
X128994095Y-52988095D01*
X129041714Y-54416667D02*
X129708381Y-54416667D01*
X128660762Y-54178571D02*
X129375048Y-53940476D01*
X129375048Y-54559524D01*
X135744095Y-71952381D02*
X135744095Y-70952381D01*
X135363142Y-70952381D01*
X135267904Y-71000000D01*
X135220285Y-71047619D01*
X135172666Y-71142857D01*
X135172666Y-71285714D01*
X135220285Y-71380952D01*
X135267904Y-71428571D01*
X135363142Y-71476190D01*
X135744095Y-71476190D01*
X134220285Y-71952381D02*
X134791714Y-71952381D01*
X134506000Y-71952381D02*
X134506000Y-70952381D01*
X134601238Y-71095238D01*
X134696476Y-71190476D01*
X134791714Y-71238095D01*
X135744095Y-74202381D02*
X135744095Y-73202381D01*
X135363142Y-73202381D01*
X135267904Y-73250000D01*
X135220285Y-73297619D01*
X135172666Y-73392857D01*
X135172666Y-73535714D01*
X135220285Y-73630952D01*
X135267904Y-73678571D01*
X135363142Y-73726190D01*
X135744095Y-73726190D01*
X134791714Y-73297619D02*
X134744095Y-73250000D01*
X134648857Y-73202381D01*
X134410761Y-73202381D01*
X134315523Y-73250000D01*
X134267904Y-73297619D01*
X134220285Y-73392857D01*
X134220285Y-73488095D01*
X134267904Y-73630952D01*
X134839333Y-74202381D01*
X134220285Y-74202381D01*
X135744095Y-76702381D02*
X135744095Y-75702381D01*
X135363142Y-75702381D01*
X135267904Y-75750000D01*
X135220285Y-75797619D01*
X135172666Y-75892857D01*
X135172666Y-76035714D01*
X135220285Y-76130952D01*
X135267904Y-76178571D01*
X135363142Y-76226190D01*
X135744095Y-76226190D01*
X134839333Y-75702381D02*
X134220285Y-75702381D01*
X134553619Y-76083333D01*
X134410761Y-76083333D01*
X134315523Y-76130952D01*
X134267904Y-76178571D01*
X134220285Y-76273810D01*
X134220285Y-76511905D01*
X134267904Y-76607143D01*
X134315523Y-76654762D01*
X134410761Y-76702381D01*
X134696476Y-76702381D01*
X134791714Y-76654762D01*
X134839333Y-76607143D01*
X135744095Y-79452381D02*
X135744095Y-78452381D01*
X135363142Y-78452381D01*
X135267904Y-78500000D01*
X135220285Y-78547619D01*
X135172666Y-78642857D01*
X135172666Y-78785714D01*
X135220285Y-78880952D01*
X135267904Y-78928571D01*
X135363142Y-78976190D01*
X135744095Y-78976190D01*
X134315523Y-78785714D02*
X134315523Y-79452381D01*
X134553619Y-78404762D02*
X134791714Y-79119048D01*
X134172666Y-79119048D01*
X129821143Y-99103143D02*
X129868762Y-99055524D01*
X129916381Y-98912667D01*
X129916381Y-98817429D01*
X129868762Y-98674571D01*
X129773524Y-98579333D01*
X129678286Y-98531714D01*
X129487810Y-98484095D01*
X129344952Y-98484095D01*
X129154476Y-98531714D01*
X129059238Y-98579333D01*
X128964000Y-98674571D01*
X128916381Y-98817429D01*
X128916381Y-98912667D01*
X128964000Y-99055524D01*
X129011619Y-99103143D01*
X129916381Y-100055524D02*
X129916381Y-99484095D01*
X129916381Y-99769809D02*
X128916381Y-99769809D01*
X129059238Y-99674571D01*
X129154476Y-99579333D01*
X129202095Y-99484095D01*
X129011619Y-100436476D02*
X128964000Y-100484095D01*
X128916381Y-100579333D01*
X128916381Y-100817429D01*
X128964000Y-100912667D01*
X129011619Y-100960286D01*
X129106857Y-101007905D01*
X129202095Y-101007905D01*
X129344952Y-100960286D01*
X129916381Y-100388857D01*
X129916381Y-101007905D01*
X70639143Y-99611143D02*
X70686762Y-99563524D01*
X70734381Y-99420667D01*
X70734381Y-99325429D01*
X70686762Y-99182571D01*
X70591524Y-99087333D01*
X70496286Y-99039714D01*
X70305810Y-98992095D01*
X70162952Y-98992095D01*
X69972476Y-99039714D01*
X69877238Y-99087333D01*
X69782000Y-99182571D01*
X69734381Y-99325429D01*
X69734381Y-99420667D01*
X69782000Y-99563524D01*
X69829619Y-99611143D01*
X70734381Y-100563524D02*
X70734381Y-99992095D01*
X70734381Y-100277809D02*
X69734381Y-100277809D01*
X69877238Y-100182571D01*
X69972476Y-100087333D01*
X70020095Y-99992095D01*
X69734381Y-100896857D02*
X69734381Y-101515905D01*
X70115333Y-101182571D01*
X70115333Y-101325429D01*
X70162952Y-101420667D01*
X70210571Y-101468286D01*
X70305810Y-101515905D01*
X70543905Y-101515905D01*
X70639143Y-101468286D01*
X70686762Y-101420667D01*
X70734381Y-101325429D01*
X70734381Y-101039714D01*
X70686762Y-100944476D01*
X70639143Y-100896857D01*
X98736666Y-112156381D02*
X99070000Y-111680190D01*
X99308095Y-112156381D02*
X99308095Y-111156381D01*
X98927142Y-111156381D01*
X98831904Y-111204000D01*
X98784285Y-111251619D01*
X98736666Y-111346857D01*
X98736666Y-111489714D01*
X98784285Y-111584952D01*
X98831904Y-111632571D01*
X98927142Y-111680190D01*
X99308095Y-111680190D01*
X98403333Y-111156381D02*
X97736666Y-111156381D01*
X98165238Y-112156381D01*
X105212857Y-89606381D02*
X105546191Y-89130190D01*
X105784286Y-89606381D02*
X105784286Y-88606381D01*
X105403333Y-88606381D01*
X105308095Y-88654000D01*
X105260476Y-88701619D01*
X105212857Y-88796857D01*
X105212857Y-88939714D01*
X105260476Y-89034952D01*
X105308095Y-89082571D01*
X105403333Y-89130190D01*
X105784286Y-89130190D01*
X104260476Y-89606381D02*
X104831905Y-89606381D01*
X104546191Y-89606381D02*
X104546191Y-88606381D01*
X104641429Y-88749238D01*
X104736667Y-88844476D01*
X104831905Y-88892095D01*
X103355714Y-88606381D02*
X103831905Y-88606381D01*
X103879524Y-89082571D01*
X103831905Y-89034952D01*
X103736667Y-88987333D01*
X103498571Y-88987333D01*
X103403333Y-89034952D01*
X103355714Y-89082571D01*
X103308095Y-89177810D01*
X103308095Y-89415905D01*
X103355714Y-89511143D01*
X103403333Y-89558762D01*
X103498571Y-89606381D01*
X103736667Y-89606381D01*
X103831905Y-89558762D01*
X103879524Y-89511143D01*
X96062857Y-89506381D02*
X96396191Y-89030190D01*
X96634286Y-89506381D02*
X96634286Y-88506381D01*
X96253333Y-88506381D01*
X96158095Y-88554000D01*
X96110476Y-88601619D01*
X96062857Y-88696857D01*
X96062857Y-88839714D01*
X96110476Y-88934952D01*
X96158095Y-88982571D01*
X96253333Y-89030190D01*
X96634286Y-89030190D01*
X95110476Y-89506381D02*
X95681905Y-89506381D01*
X95396191Y-89506381D02*
X95396191Y-88506381D01*
X95491429Y-88649238D01*
X95586667Y-88744476D01*
X95681905Y-88792095D01*
X94253333Y-88506381D02*
X94443810Y-88506381D01*
X94539048Y-88554000D01*
X94586667Y-88601619D01*
X94681905Y-88744476D01*
X94729524Y-88934952D01*
X94729524Y-89315905D01*
X94681905Y-89411143D01*
X94634286Y-89458762D01*
X94539048Y-89506381D01*
X94348571Y-89506381D01*
X94253333Y-89458762D01*
X94205714Y-89411143D01*
X94158095Y-89315905D01*
X94158095Y-89077810D01*
X94205714Y-88982571D01*
X94253333Y-88934952D01*
X94348571Y-88887333D01*
X94539048Y-88887333D01*
X94634286Y-88934952D01*
X94681905Y-88982571D01*
X94729524Y-89077810D01*
X101912857Y-112156381D02*
X102246191Y-111680190D01*
X102484286Y-112156381D02*
X102484286Y-111156381D01*
X102103333Y-111156381D01*
X102008095Y-111204000D01*
X101960476Y-111251619D01*
X101912857Y-111346857D01*
X101912857Y-111489714D01*
X101960476Y-111584952D01*
X102008095Y-111632571D01*
X102103333Y-111680190D01*
X102484286Y-111680190D01*
X100960476Y-112156381D02*
X101531905Y-112156381D01*
X101246191Y-112156381D02*
X101246191Y-111156381D01*
X101341429Y-111299238D01*
X101436667Y-111394476D01*
X101531905Y-111442095D01*
X100627143Y-111156381D02*
X99960476Y-111156381D01*
X100389048Y-112156381D01*
M02*
