G04 #@! TF.GenerationSoftware,KiCad,Pcbnew,5.1.5+dfsg1-2build2*
G04 #@! TF.CreationDate,2021-03-31T10:31:05+02:00*
G04 #@! TF.ProjectId,ModulAdapterMagnet,4d6f6475-6c41-4646-9170-7465724d6167,rev?*
G04 #@! TF.SameCoordinates,Original*
G04 #@! TF.FileFunction,Legend,Bot*
G04 #@! TF.FilePolarity,Positive*
%FSLAX46Y46*%
G04 Gerber Fmt 4.6, Leading zero omitted, Abs format (unit mm)*
G04 Created by KiCad (PCBNEW 5.1.5+dfsg1-2build2) date 2021-03-31 10:31:05*
%MOMM*%
%LPD*%
G04 APERTURE LIST*
%ADD10C,0.150000*%
%ADD11C,0.120000*%
G04 APERTURE END LIST*
D10*
X127101133Y-125128600D02*
X127196371Y-125080980D01*
X127339228Y-125080980D01*
X127482085Y-125128600D01*
X127577323Y-125223838D01*
X127624942Y-125319076D01*
X127672561Y-125509552D01*
X127672561Y-125652409D01*
X127624942Y-125842885D01*
X127577323Y-125938123D01*
X127482085Y-126033361D01*
X127339228Y-126080980D01*
X127243990Y-126080980D01*
X127101133Y-126033361D01*
X127053514Y-125985742D01*
X127053514Y-125652409D01*
X127243990Y-125652409D01*
X126196371Y-126080980D02*
X126196371Y-125557171D01*
X126243990Y-125461933D01*
X126339228Y-125414314D01*
X126529704Y-125414314D01*
X126624942Y-125461933D01*
X126196371Y-126033361D02*
X126291609Y-126080980D01*
X126529704Y-126080980D01*
X126624942Y-126033361D01*
X126672561Y-125938123D01*
X126672561Y-125842885D01*
X126624942Y-125747647D01*
X126529704Y-125700028D01*
X126291609Y-125700028D01*
X126196371Y-125652409D01*
X125291609Y-125414314D02*
X125291609Y-126080980D01*
X125720180Y-125414314D02*
X125720180Y-125938123D01*
X125672561Y-126033361D01*
X125577323Y-126080980D01*
X125434466Y-126080980D01*
X125339228Y-126033361D01*
X125291609Y-125985742D01*
X124386847Y-126080980D02*
X124386847Y-125080980D01*
X124386847Y-126033361D02*
X124482085Y-126080980D01*
X124672561Y-126080980D01*
X124767800Y-126033361D01*
X124815419Y-125985742D01*
X124863038Y-125890504D01*
X124863038Y-125604790D01*
X124815419Y-125509552D01*
X124767800Y-125461933D01*
X124672561Y-125414314D01*
X124482085Y-125414314D01*
X124386847Y-125461933D01*
X123910657Y-126080980D02*
X123910657Y-125414314D01*
X123910657Y-125080980D02*
X123958276Y-125128600D01*
X123910657Y-125176219D01*
X123863038Y-125128600D01*
X123910657Y-125080980D01*
X123910657Y-125176219D01*
X122958276Y-126080980D02*
X123434466Y-126080980D01*
X123434466Y-125080980D01*
X122196371Y-126080980D02*
X122196371Y-125557171D01*
X122243990Y-125461933D01*
X122339228Y-125414314D01*
X122529704Y-125414314D01*
X122624942Y-125461933D01*
X122196371Y-126033361D02*
X122291609Y-126080980D01*
X122529704Y-126080980D01*
X122624942Y-126033361D01*
X122672561Y-125938123D01*
X122672561Y-125842885D01*
X122624942Y-125747647D01*
X122529704Y-125700028D01*
X122291609Y-125700028D01*
X122196371Y-125652409D01*
X121720180Y-126080980D02*
X121720180Y-125080980D01*
X121720180Y-125461933D02*
X121624942Y-125414314D01*
X121434466Y-125414314D01*
X121339228Y-125461933D01*
X121291609Y-125509552D01*
X121243990Y-125604790D01*
X121243990Y-125890504D01*
X121291609Y-125985742D01*
X121339228Y-126033361D01*
X121434466Y-126080980D01*
X121624942Y-126080980D01*
X121720180Y-126033361D01*
X120863038Y-126033361D02*
X120767800Y-126080980D01*
X120577323Y-126080980D01*
X120482085Y-126033361D01*
X120434466Y-125938123D01*
X120434466Y-125890504D01*
X120482085Y-125795266D01*
X120577323Y-125747647D01*
X120720180Y-125747647D01*
X120815419Y-125700028D01*
X120863038Y-125604790D01*
X120863038Y-125557171D01*
X120815419Y-125461933D01*
X120720180Y-125414314D01*
X120577323Y-125414314D01*
X120482085Y-125461933D01*
X119291609Y-125176219D02*
X119243990Y-125128600D01*
X119148752Y-125080980D01*
X118910657Y-125080980D01*
X118815419Y-125128600D01*
X118767800Y-125176219D01*
X118720180Y-125271457D01*
X118720180Y-125366695D01*
X118767800Y-125509552D01*
X119339228Y-126080980D01*
X118720180Y-126080980D01*
X118101133Y-125080980D02*
X118005895Y-125080980D01*
X117910657Y-125128600D01*
X117863038Y-125176219D01*
X117815419Y-125271457D01*
X117767800Y-125461933D01*
X117767800Y-125700028D01*
X117815419Y-125890504D01*
X117863038Y-125985742D01*
X117910657Y-126033361D01*
X118005895Y-126080980D01*
X118101133Y-126080980D01*
X118196371Y-126033361D01*
X118243990Y-125985742D01*
X118291609Y-125890504D01*
X118339228Y-125700028D01*
X118339228Y-125461933D01*
X118291609Y-125271457D01*
X118243990Y-125176219D01*
X118196371Y-125128600D01*
X118101133Y-125080980D01*
X117386847Y-125176219D02*
X117339228Y-125128600D01*
X117243990Y-125080980D01*
X117005895Y-125080980D01*
X116910657Y-125128600D01*
X116863038Y-125176219D01*
X116815419Y-125271457D01*
X116815419Y-125366695D01*
X116863038Y-125509552D01*
X117434466Y-126080980D01*
X116815419Y-126080980D01*
X115863038Y-126080980D02*
X116434466Y-126080980D01*
X116148752Y-126080980D02*
X116148752Y-125080980D01*
X116243990Y-125223838D01*
X116339228Y-125319076D01*
X116434466Y-125366695D01*
X83915057Y-88784380D02*
X83724580Y-88784380D01*
X83629342Y-88832000D01*
X83534104Y-88927238D01*
X83486485Y-89117714D01*
X83486485Y-89451047D01*
X83534104Y-89641523D01*
X83629342Y-89736761D01*
X83724580Y-89784380D01*
X83915057Y-89784380D01*
X84010295Y-89736761D01*
X84105533Y-89641523D01*
X84153152Y-89451047D01*
X84153152Y-89117714D01*
X84105533Y-88927238D01*
X84010295Y-88832000D01*
X83915057Y-88784380D01*
X83057914Y-89117714D02*
X83057914Y-90117714D01*
X83057914Y-89165333D02*
X82962676Y-89117714D01*
X82772200Y-89117714D01*
X82676961Y-89165333D01*
X82629342Y-89212952D01*
X82581723Y-89308190D01*
X82581723Y-89593904D01*
X82629342Y-89689142D01*
X82676961Y-89736761D01*
X82772200Y-89784380D01*
X82962676Y-89784380D01*
X83057914Y-89736761D01*
X81772200Y-89736761D02*
X81867438Y-89784380D01*
X82057914Y-89784380D01*
X82153152Y-89736761D01*
X82200771Y-89641523D01*
X82200771Y-89260571D01*
X82153152Y-89165333D01*
X82057914Y-89117714D01*
X81867438Y-89117714D01*
X81772200Y-89165333D01*
X81724580Y-89260571D01*
X81724580Y-89355809D01*
X82200771Y-89451047D01*
X81296009Y-89117714D02*
X81296009Y-89784380D01*
X81296009Y-89212952D02*
X81248390Y-89165333D01*
X81153152Y-89117714D01*
X81010295Y-89117714D01*
X80915057Y-89165333D01*
X80867438Y-89260571D01*
X80867438Y-89784380D01*
X80391247Y-89784380D02*
X80391247Y-88784380D01*
X80153152Y-88784380D01*
X80010295Y-88832000D01*
X79915057Y-88927238D01*
X79867438Y-89022476D01*
X79819819Y-89212952D01*
X79819819Y-89355809D01*
X79867438Y-89546285D01*
X79915057Y-89641523D01*
X80010295Y-89736761D01*
X80153152Y-89784380D01*
X80391247Y-89784380D01*
X79391247Y-89784380D02*
X79391247Y-89117714D01*
X79391247Y-89308190D02*
X79343628Y-89212952D01*
X79296009Y-89165333D01*
X79200771Y-89117714D01*
X79105533Y-89117714D01*
X78629342Y-89784380D02*
X78724580Y-89736761D01*
X78772200Y-89689142D01*
X78819819Y-89593904D01*
X78819819Y-89308190D01*
X78772200Y-89212952D01*
X78724580Y-89165333D01*
X78629342Y-89117714D01*
X78486485Y-89117714D01*
X78391247Y-89165333D01*
X78343628Y-89212952D01*
X78296009Y-89308190D01*
X78296009Y-89593904D01*
X78343628Y-89689142D01*
X78391247Y-89736761D01*
X78486485Y-89784380D01*
X78629342Y-89784380D01*
X77867438Y-89117714D02*
X77867438Y-90117714D01*
X77867438Y-89165333D02*
X77772200Y-89117714D01*
X77581723Y-89117714D01*
X77486485Y-89165333D01*
X77438866Y-89212952D01*
X77391247Y-89308190D01*
X77391247Y-89593904D01*
X77438866Y-89689142D01*
X77486485Y-89736761D01*
X77581723Y-89784380D01*
X77772200Y-89784380D01*
X77867438Y-89736761D01*
X129318266Y-89809780D02*
X129318266Y-88809780D01*
X128984933Y-89524066D01*
X128651600Y-88809780D01*
X128651600Y-89809780D01*
X128032552Y-89809780D02*
X128127790Y-89762161D01*
X128175409Y-89714542D01*
X128223028Y-89619304D01*
X128223028Y-89333590D01*
X128175409Y-89238352D01*
X128127790Y-89190733D01*
X128032552Y-89143114D01*
X127889695Y-89143114D01*
X127794457Y-89190733D01*
X127746838Y-89238352D01*
X127699219Y-89333590D01*
X127699219Y-89619304D01*
X127746838Y-89714542D01*
X127794457Y-89762161D01*
X127889695Y-89809780D01*
X128032552Y-89809780D01*
X126842076Y-89809780D02*
X126842076Y-88809780D01*
X126842076Y-89762161D02*
X126937314Y-89809780D01*
X127127790Y-89809780D01*
X127223028Y-89762161D01*
X127270647Y-89714542D01*
X127318266Y-89619304D01*
X127318266Y-89333590D01*
X127270647Y-89238352D01*
X127223028Y-89190733D01*
X127127790Y-89143114D01*
X126937314Y-89143114D01*
X126842076Y-89190733D01*
X125937314Y-89143114D02*
X125937314Y-89809780D01*
X126365885Y-89143114D02*
X126365885Y-89666923D01*
X126318266Y-89762161D01*
X126223028Y-89809780D01*
X126080171Y-89809780D01*
X125984933Y-89762161D01*
X125937314Y-89714542D01*
X125318266Y-89809780D02*
X125413504Y-89762161D01*
X125461123Y-89666923D01*
X125461123Y-88809780D01*
X124223028Y-89524066D02*
X123746838Y-89524066D01*
X124318266Y-89809780D02*
X123984933Y-88809780D01*
X123651600Y-89809780D01*
X122889695Y-89809780D02*
X122889695Y-88809780D01*
X122889695Y-89762161D02*
X122984933Y-89809780D01*
X123175409Y-89809780D01*
X123270647Y-89762161D01*
X123318266Y-89714542D01*
X123365885Y-89619304D01*
X123365885Y-89333590D01*
X123318266Y-89238352D01*
X123270647Y-89190733D01*
X123175409Y-89143114D01*
X122984933Y-89143114D01*
X122889695Y-89190733D01*
X121984933Y-89809780D02*
X121984933Y-89285971D01*
X122032552Y-89190733D01*
X122127790Y-89143114D01*
X122318266Y-89143114D01*
X122413504Y-89190733D01*
X121984933Y-89762161D02*
X122080171Y-89809780D01*
X122318266Y-89809780D01*
X122413504Y-89762161D01*
X122461123Y-89666923D01*
X122461123Y-89571685D01*
X122413504Y-89476447D01*
X122318266Y-89428828D01*
X122080171Y-89428828D01*
X121984933Y-89381209D01*
X121508742Y-89143114D02*
X121508742Y-90143114D01*
X121508742Y-89190733D02*
X121413504Y-89143114D01*
X121223028Y-89143114D01*
X121127790Y-89190733D01*
X121080171Y-89238352D01*
X121032552Y-89333590D01*
X121032552Y-89619304D01*
X121080171Y-89714542D01*
X121127790Y-89762161D01*
X121223028Y-89809780D01*
X121413504Y-89809780D01*
X121508742Y-89762161D01*
X120746838Y-89143114D02*
X120365885Y-89143114D01*
X120603980Y-88809780D02*
X120603980Y-89666923D01*
X120556361Y-89762161D01*
X120461123Y-89809780D01*
X120365885Y-89809780D01*
X119651600Y-89762161D02*
X119746838Y-89809780D01*
X119937314Y-89809780D01*
X120032552Y-89762161D01*
X120080171Y-89666923D01*
X120080171Y-89285971D01*
X120032552Y-89190733D01*
X119937314Y-89143114D01*
X119746838Y-89143114D01*
X119651600Y-89190733D01*
X119603980Y-89285971D01*
X119603980Y-89381209D01*
X120080171Y-89476447D01*
X119175409Y-89809780D02*
X119175409Y-89143114D01*
X119175409Y-89333590D02*
X119127790Y-89238352D01*
X119080171Y-89190733D01*
X118984933Y-89143114D01*
X118889695Y-89143114D01*
X117794457Y-89809780D02*
X117794457Y-88809780D01*
X117461123Y-89524066D01*
X117127790Y-88809780D01*
X117127790Y-89809780D01*
X116223028Y-89809780D02*
X116223028Y-89285971D01*
X116270647Y-89190733D01*
X116365885Y-89143114D01*
X116556361Y-89143114D01*
X116651600Y-89190733D01*
X116223028Y-89762161D02*
X116318266Y-89809780D01*
X116556361Y-89809780D01*
X116651600Y-89762161D01*
X116699219Y-89666923D01*
X116699219Y-89571685D01*
X116651600Y-89476447D01*
X116556361Y-89428828D01*
X116318266Y-89428828D01*
X116223028Y-89381209D01*
X115318266Y-89143114D02*
X115318266Y-89952638D01*
X115365885Y-90047876D01*
X115413504Y-90095495D01*
X115508742Y-90143114D01*
X115651600Y-90143114D01*
X115746838Y-90095495D01*
X115318266Y-89762161D02*
X115413504Y-89809780D01*
X115603980Y-89809780D01*
X115699219Y-89762161D01*
X115746838Y-89714542D01*
X115794457Y-89619304D01*
X115794457Y-89333590D01*
X115746838Y-89238352D01*
X115699219Y-89190733D01*
X115603980Y-89143114D01*
X115413504Y-89143114D01*
X115318266Y-89190733D01*
X114842076Y-89143114D02*
X114842076Y-89809780D01*
X114842076Y-89238352D02*
X114794457Y-89190733D01*
X114699219Y-89143114D01*
X114556361Y-89143114D01*
X114461123Y-89190733D01*
X114413504Y-89285971D01*
X114413504Y-89809780D01*
X113556361Y-89762161D02*
X113651600Y-89809780D01*
X113842076Y-89809780D01*
X113937314Y-89762161D01*
X113984933Y-89666923D01*
X113984933Y-89285971D01*
X113937314Y-89190733D01*
X113842076Y-89143114D01*
X113651600Y-89143114D01*
X113556361Y-89190733D01*
X113508742Y-89285971D01*
X113508742Y-89381209D01*
X113984933Y-89476447D01*
X113223028Y-89143114D02*
X112842076Y-89143114D01*
X113080171Y-88809780D02*
X113080171Y-89666923D01*
X113032552Y-89762161D01*
X112937314Y-89809780D01*
X112842076Y-89809780D01*
X111889695Y-88809780D02*
X111556361Y-89809780D01*
X111223028Y-88809780D01*
X110461123Y-89143114D02*
X110461123Y-89809780D01*
X110699219Y-88762161D02*
X110937314Y-89476447D01*
X110318266Y-89476447D01*
X109937314Y-89714542D02*
X109889695Y-89762161D01*
X109937314Y-89809780D01*
X109984933Y-89762161D01*
X109937314Y-89714542D01*
X109937314Y-89809780D01*
X109270647Y-88809780D02*
X109175409Y-88809780D01*
X109080171Y-88857400D01*
X109032552Y-88905019D01*
X108984933Y-89000257D01*
X108937314Y-89190733D01*
X108937314Y-89428828D01*
X108984933Y-89619304D01*
X109032552Y-89714542D01*
X109080171Y-89762161D01*
X109175409Y-89809780D01*
X109270647Y-89809780D01*
X109365885Y-89762161D01*
X109413504Y-89714542D01*
X109461123Y-89619304D01*
X109508742Y-89428828D01*
X109508742Y-89190733D01*
X109461123Y-89000257D01*
X109413504Y-88905019D01*
X109365885Y-88857400D01*
X109270647Y-88809780D01*
X108778408Y-91300500D02*
G75*
G03X108778408Y-91300500I-269408J0D01*
G01*
X91887408Y-107683500D02*
G75*
G03X91887408Y-107683500I-269408J0D01*
G01*
X108875000Y-92375000D02*
X109325000Y-92375000D01*
X108875000Y-106625000D02*
X109325000Y-106625000D01*
X129125000Y-106625000D02*
X128675000Y-106625000D01*
X129125000Y-92375000D02*
X128675000Y-92375000D01*
X108875000Y-92375000D02*
X108875000Y-93025000D01*
X129125000Y-92375000D02*
X129125000Y-93025000D01*
X129125000Y-106625000D02*
X129125000Y-105975000D01*
X108875000Y-106625000D02*
X108875000Y-105975000D01*
X109325000Y-92375000D02*
X109325000Y-90700000D01*
X91125000Y-106625000D02*
X90675000Y-106625000D01*
X91125000Y-92375000D02*
X90675000Y-92375000D01*
X70875000Y-92375000D02*
X71325000Y-92375000D01*
X70875000Y-106625000D02*
X71325000Y-106625000D01*
X91125000Y-106625000D02*
X91125000Y-105975000D01*
X70875000Y-106625000D02*
X70875000Y-105975000D01*
X70875000Y-92375000D02*
X70875000Y-93025000D01*
X91125000Y-92375000D02*
X91125000Y-93025000D01*
X90675000Y-106625000D02*
X90675000Y-108300000D01*
X53500000Y-72560000D02*
X56000000Y-71120000D01*
X53500000Y-75440000D02*
X53500000Y-72560000D01*
X56000000Y-76880000D02*
X53500000Y-75440000D01*
X58500000Y-75440000D02*
X56000000Y-76880000D01*
X58500000Y-72560000D02*
X56000000Y-71120000D01*
X58500000Y-72560000D02*
X58500000Y-75440000D01*
X146500000Y-72560000D02*
X146500000Y-75440000D01*
X146500000Y-72560000D02*
X144000000Y-71120000D01*
X146500000Y-75440000D02*
X144000000Y-76880000D01*
X144000000Y-76880000D02*
X141500000Y-75440000D01*
X141500000Y-75440000D02*
X141500000Y-72560000D01*
X141500000Y-72560000D02*
X144000000Y-71120000D01*
X58500000Y-132560000D02*
X58500000Y-135440000D01*
X58500000Y-132560000D02*
X56000000Y-131120000D01*
X58500000Y-135440000D02*
X56000000Y-136880000D01*
X56000000Y-136880000D02*
X53500000Y-135440000D01*
X53500000Y-135440000D02*
X53500000Y-132560000D01*
X53500000Y-132560000D02*
X56000000Y-131120000D01*
X141500000Y-132560000D02*
X144000000Y-131120000D01*
X141500000Y-135440000D02*
X141500000Y-132560000D01*
X144000000Y-136880000D02*
X141500000Y-135440000D01*
X146500000Y-135440000D02*
X144000000Y-136880000D01*
X146500000Y-132560000D02*
X144000000Y-131120000D01*
X146500000Y-132560000D02*
X146500000Y-135440000D01*
X107900000Y-84700000D02*
X92100000Y-84700000D01*
X92450000Y-88300000D02*
X92450000Y-89600000D01*
X107550000Y-88300000D02*
X107550000Y-89600000D01*
X91650000Y-84300000D02*
X91650000Y-88300000D01*
X108350000Y-84300000D02*
X108350000Y-88300000D01*
X108300000Y-84300000D02*
X107900000Y-84300000D01*
X91700000Y-84300000D02*
X92100000Y-84300000D01*
X92450000Y-89600000D02*
X107550000Y-89600000D01*
X108350000Y-88300000D02*
X107550000Y-88300000D01*
X91650000Y-88300000D02*
X92450000Y-88300000D01*
X107900000Y-84700000D02*
X107900000Y-84300000D01*
X92100000Y-84700000D02*
X92100000Y-84300000D01*
D11*
X133490000Y-99337221D02*
X133490000Y-99662779D01*
X134510000Y-99337221D02*
X134510000Y-99662779D01*
X65490000Y-99662779D02*
X65490000Y-99337221D01*
X66510000Y-99662779D02*
X66510000Y-99337221D01*
D10*
X133255904Y-90702380D02*
X133255904Y-91511904D01*
X133208285Y-91607142D01*
X133160666Y-91654761D01*
X133065428Y-91702380D01*
X132874952Y-91702380D01*
X132779714Y-91654761D01*
X132732095Y-91607142D01*
X132684476Y-91511904D01*
X132684476Y-90702380D01*
X131779714Y-91035714D02*
X131779714Y-91702380D01*
X132017809Y-90654761D02*
X132255904Y-91369047D01*
X131636857Y-91369047D01*
X68186404Y-90562380D02*
X68186404Y-91371904D01*
X68138785Y-91467142D01*
X68091166Y-91514761D01*
X67995928Y-91562380D01*
X67805452Y-91562380D01*
X67710214Y-91514761D01*
X67662595Y-91467142D01*
X67614976Y-91371904D01*
X67614976Y-90562380D01*
X67186404Y-90657619D02*
X67138785Y-90610000D01*
X67043547Y-90562380D01*
X66805452Y-90562380D01*
X66710214Y-90610000D01*
X66662595Y-90657619D01*
X66614976Y-90752857D01*
X66614976Y-90848095D01*
X66662595Y-90990952D01*
X67234023Y-91562380D01*
X66614976Y-91562380D01*
X89733333Y-84752380D02*
X89733333Y-85466666D01*
X89780952Y-85609523D01*
X89876190Y-85704761D01*
X90019047Y-85752380D01*
X90114285Y-85752380D01*
X89304761Y-84847619D02*
X89257142Y-84800000D01*
X89161904Y-84752380D01*
X88923809Y-84752380D01*
X88828571Y-84800000D01*
X88780952Y-84847619D01*
X88733333Y-84942857D01*
X88733333Y-85038095D01*
X88780952Y-85180952D01*
X89352380Y-85752380D01*
X88733333Y-85752380D01*
X132927142Y-98857142D02*
X132974761Y-98809523D01*
X133022380Y-98666666D01*
X133022380Y-98571428D01*
X132974761Y-98428571D01*
X132879523Y-98333333D01*
X132784285Y-98285714D01*
X132593809Y-98238095D01*
X132450952Y-98238095D01*
X132260476Y-98285714D01*
X132165238Y-98333333D01*
X132070000Y-98428571D01*
X132022380Y-98571428D01*
X132022380Y-98666666D01*
X132070000Y-98809523D01*
X132117619Y-98857142D01*
X133022380Y-99809523D02*
X133022380Y-99238095D01*
X133022380Y-99523809D02*
X132022380Y-99523809D01*
X132165238Y-99428571D01*
X132260476Y-99333333D01*
X132308095Y-99238095D01*
X132117619Y-100190476D02*
X132070000Y-100238095D01*
X132022380Y-100333333D01*
X132022380Y-100571428D01*
X132070000Y-100666666D01*
X132117619Y-100714285D01*
X132212857Y-100761904D01*
X132308095Y-100761904D01*
X132450952Y-100714285D01*
X133022380Y-100142857D01*
X133022380Y-100761904D01*
X67787142Y-98857142D02*
X67834761Y-98809523D01*
X67882380Y-98666666D01*
X67882380Y-98571428D01*
X67834761Y-98428571D01*
X67739523Y-98333333D01*
X67644285Y-98285714D01*
X67453809Y-98238095D01*
X67310952Y-98238095D01*
X67120476Y-98285714D01*
X67025238Y-98333333D01*
X66930000Y-98428571D01*
X66882380Y-98571428D01*
X66882380Y-98666666D01*
X66930000Y-98809523D01*
X66977619Y-98857142D01*
X67882380Y-99809523D02*
X67882380Y-99238095D01*
X67882380Y-99523809D02*
X66882380Y-99523809D01*
X67025238Y-99428571D01*
X67120476Y-99333333D01*
X67168095Y-99238095D01*
X66882380Y-100142857D02*
X66882380Y-100761904D01*
X67263333Y-100428571D01*
X67263333Y-100571428D01*
X67310952Y-100666666D01*
X67358571Y-100714285D01*
X67453809Y-100761904D01*
X67691904Y-100761904D01*
X67787142Y-100714285D01*
X67834761Y-100666666D01*
X67882380Y-100571428D01*
X67882380Y-100285714D01*
X67834761Y-100190476D01*
X67787142Y-100142857D01*
M02*
