G04 #@! TF.GenerationSoftware,KiCad,Pcbnew,5.1.5+dfsg1-2build2*
G04 #@! TF.CreationDate,2021-03-31T10:31:05+02:00*
G04 #@! TF.ProjectId,ModulAdapterMagnet,4d6f6475-6c41-4646-9170-7465724d6167,rev?*
G04 #@! TF.SameCoordinates,Original*
G04 #@! TF.FileFunction,Soldermask,Top*
G04 #@! TF.FilePolarity,Negative*
%FSLAX46Y46*%
G04 Gerber Fmt 4.6, Leading zero omitted, Abs format (unit mm)*
G04 Created by KiCad (PCBNEW 5.1.5+dfsg1-2build2) date 2021-03-31 10:31:05*
%MOMM*%
%LPD*%
G04 APERTURE LIST*
%ADD10C,0.100000*%
G04 APERTURE END LIST*
D10*
G36*
X144466703Y-132461486D02*
G01*
X144757883Y-132582097D01*
X145019940Y-132757198D01*
X145242802Y-132980060D01*
X145417903Y-133242117D01*
X145538514Y-133533297D01*
X145600000Y-133842412D01*
X145600000Y-134157588D01*
X145538514Y-134466703D01*
X145417903Y-134757883D01*
X145242802Y-135019940D01*
X145019940Y-135242802D01*
X144757883Y-135417903D01*
X144466703Y-135538514D01*
X144157588Y-135600000D01*
X143842412Y-135600000D01*
X143533297Y-135538514D01*
X143242117Y-135417903D01*
X142980060Y-135242802D01*
X142757198Y-135019940D01*
X142582097Y-134757883D01*
X142461486Y-134466703D01*
X142400000Y-134157588D01*
X142400000Y-133842412D01*
X142461486Y-133533297D01*
X142582097Y-133242117D01*
X142757198Y-132980060D01*
X142980060Y-132757198D01*
X143242117Y-132582097D01*
X143533297Y-132461486D01*
X143842412Y-132400000D01*
X144157588Y-132400000D01*
X144466703Y-132461486D01*
G37*
G36*
X56466703Y-132461486D02*
G01*
X56757883Y-132582097D01*
X57019940Y-132757198D01*
X57242802Y-132980060D01*
X57417903Y-133242117D01*
X57538514Y-133533297D01*
X57600000Y-133842412D01*
X57600000Y-134157588D01*
X57538514Y-134466703D01*
X57417903Y-134757883D01*
X57242802Y-135019940D01*
X57019940Y-135242802D01*
X56757883Y-135417903D01*
X56466703Y-135538514D01*
X56157588Y-135600000D01*
X55842412Y-135600000D01*
X55533297Y-135538514D01*
X55242117Y-135417903D01*
X54980060Y-135242802D01*
X54757198Y-135019940D01*
X54582097Y-134757883D01*
X54461486Y-134466703D01*
X54400000Y-134157588D01*
X54400000Y-133842412D01*
X54461486Y-133533297D01*
X54582097Y-133242117D01*
X54757198Y-132980060D01*
X54980060Y-132757198D01*
X55242117Y-132582097D01*
X55533297Y-132461486D01*
X55842412Y-132400000D01*
X56157588Y-132400000D01*
X56466703Y-132461486D01*
G37*
G36*
X145500000Y-130490000D02*
G01*
X140700000Y-130490000D01*
X140700000Y-125490000D01*
X145500000Y-125490000D01*
X145500000Y-130490000D01*
G37*
G36*
X103700000Y-130490000D02*
G01*
X101100000Y-130490000D01*
X101100000Y-125490000D01*
X103700000Y-125490000D01*
X103700000Y-130490000D01*
G37*
G36*
X59300000Y-130490000D02*
G01*
X54500000Y-130490000D01*
X54500000Y-125490000D01*
X59300000Y-125490000D01*
X59300000Y-130490000D01*
G37*
G36*
X121775000Y-127750000D02*
G01*
X121425000Y-127750000D01*
X121425000Y-125750000D01*
X121775000Y-125750000D01*
X121775000Y-127750000D01*
G37*
G36*
X100775000Y-127750000D02*
G01*
X100425000Y-127750000D01*
X100425000Y-125750000D01*
X100775000Y-125750000D01*
X100775000Y-127750000D01*
G37*
G36*
X111575000Y-127750000D02*
G01*
X111225000Y-127750000D01*
X111225000Y-125750000D01*
X111575000Y-125750000D01*
X111575000Y-127750000D01*
G37*
G36*
X110975000Y-127750000D02*
G01*
X110625000Y-127750000D01*
X110625000Y-125750000D01*
X110975000Y-125750000D01*
X110975000Y-127750000D01*
G37*
G36*
X110375000Y-127750000D02*
G01*
X110025000Y-127750000D01*
X110025000Y-125750000D01*
X110375000Y-125750000D01*
X110375000Y-127750000D01*
G37*
G36*
X109775000Y-127750000D02*
G01*
X109425000Y-127750000D01*
X109425000Y-125750000D01*
X109775000Y-125750000D01*
X109775000Y-127750000D01*
G37*
G36*
X109175000Y-127750000D02*
G01*
X108825000Y-127750000D01*
X108825000Y-125750000D01*
X109175000Y-125750000D01*
X109175000Y-127750000D01*
G37*
G36*
X108575000Y-127750000D02*
G01*
X108225000Y-127750000D01*
X108225000Y-125750000D01*
X108575000Y-125750000D01*
X108575000Y-127750000D01*
G37*
G36*
X107975000Y-127750000D02*
G01*
X107625000Y-127750000D01*
X107625000Y-125750000D01*
X107975000Y-125750000D01*
X107975000Y-127750000D01*
G37*
G36*
X107375000Y-127750000D02*
G01*
X107025000Y-127750000D01*
X107025000Y-125750000D01*
X107375000Y-125750000D01*
X107375000Y-127750000D01*
G37*
G36*
X106775000Y-127750000D02*
G01*
X106425000Y-127750000D01*
X106425000Y-125750000D01*
X106775000Y-125750000D01*
X106775000Y-127750000D01*
G37*
G36*
X106175000Y-127750000D02*
G01*
X105825000Y-127750000D01*
X105825000Y-125750000D01*
X106175000Y-125750000D01*
X106175000Y-127750000D01*
G37*
G36*
X105575000Y-127750000D02*
G01*
X105225000Y-127750000D01*
X105225000Y-125750000D01*
X105575000Y-125750000D01*
X105575000Y-127750000D01*
G37*
G36*
X104975000Y-127750000D02*
G01*
X104625000Y-127750000D01*
X104625000Y-125750000D01*
X104975000Y-125750000D01*
X104975000Y-127750000D01*
G37*
G36*
X104375000Y-127750000D02*
G01*
X104025000Y-127750000D01*
X104025000Y-125750000D01*
X104375000Y-125750000D01*
X104375000Y-127750000D01*
G37*
G36*
X121175000Y-127750000D02*
G01*
X120825000Y-127750000D01*
X120825000Y-125750000D01*
X121175000Y-125750000D01*
X121175000Y-127750000D01*
G37*
G36*
X112775000Y-127750000D02*
G01*
X112425000Y-127750000D01*
X112425000Y-125750000D01*
X112775000Y-125750000D01*
X112775000Y-127750000D01*
G37*
G36*
X113375000Y-127750000D02*
G01*
X113025000Y-127750000D01*
X113025000Y-125750000D01*
X113375000Y-125750000D01*
X113375000Y-127750000D01*
G37*
G36*
X113975000Y-127750000D02*
G01*
X113625000Y-127750000D01*
X113625000Y-125750000D01*
X113975000Y-125750000D01*
X113975000Y-127750000D01*
G37*
G36*
X114575000Y-127750000D02*
G01*
X114225000Y-127750000D01*
X114225000Y-125750000D01*
X114575000Y-125750000D01*
X114575000Y-127750000D01*
G37*
G36*
X115175000Y-127750000D02*
G01*
X114825000Y-127750000D01*
X114825000Y-125750000D01*
X115175000Y-125750000D01*
X115175000Y-127750000D01*
G37*
G36*
X115775000Y-127750000D02*
G01*
X115425000Y-127750000D01*
X115425000Y-125750000D01*
X115775000Y-125750000D01*
X115775000Y-127750000D01*
G37*
G36*
X116375000Y-127750000D02*
G01*
X116025000Y-127750000D01*
X116025000Y-125750000D01*
X116375000Y-125750000D01*
X116375000Y-127750000D01*
G37*
G36*
X116975000Y-127750000D02*
G01*
X116625000Y-127750000D01*
X116625000Y-125750000D01*
X116975000Y-125750000D01*
X116975000Y-127750000D01*
G37*
G36*
X117575000Y-127750000D02*
G01*
X117225000Y-127750000D01*
X117225000Y-125750000D01*
X117575000Y-125750000D01*
X117575000Y-127750000D01*
G37*
G36*
X118175000Y-127750000D02*
G01*
X117825000Y-127750000D01*
X117825000Y-125750000D01*
X118175000Y-125750000D01*
X118175000Y-127750000D01*
G37*
G36*
X118775000Y-127750000D02*
G01*
X118425000Y-127750000D01*
X118425000Y-125750000D01*
X118775000Y-125750000D01*
X118775000Y-127750000D01*
G37*
G36*
X119375000Y-127750000D02*
G01*
X119025000Y-127750000D01*
X119025000Y-125750000D01*
X119375000Y-125750000D01*
X119375000Y-127750000D01*
G37*
G36*
X119975000Y-127750000D02*
G01*
X119625000Y-127750000D01*
X119625000Y-125750000D01*
X119975000Y-125750000D01*
X119975000Y-127750000D01*
G37*
G36*
X120575000Y-127750000D02*
G01*
X120225000Y-127750000D01*
X120225000Y-125750000D01*
X120575000Y-125750000D01*
X120575000Y-127750000D01*
G37*
G36*
X98375000Y-127750000D02*
G01*
X98025000Y-127750000D01*
X98025000Y-125750000D01*
X98375000Y-125750000D01*
X98375000Y-127750000D01*
G37*
G36*
X97175000Y-127750000D02*
G01*
X96825000Y-127750000D01*
X96825000Y-125750000D01*
X97175000Y-125750000D01*
X97175000Y-127750000D01*
G37*
G36*
X122375000Y-127750000D02*
G01*
X122025000Y-127750000D01*
X122025000Y-125750000D01*
X122375000Y-125750000D01*
X122375000Y-127750000D01*
G37*
G36*
X122975000Y-127750000D02*
G01*
X122625000Y-127750000D01*
X122625000Y-125750000D01*
X122975000Y-125750000D01*
X122975000Y-127750000D01*
G37*
G36*
X123575000Y-127750000D02*
G01*
X123225000Y-127750000D01*
X123225000Y-125750000D01*
X123575000Y-125750000D01*
X123575000Y-127750000D01*
G37*
G36*
X124175000Y-127750000D02*
G01*
X123825000Y-127750000D01*
X123825000Y-125750000D01*
X124175000Y-125750000D01*
X124175000Y-127750000D01*
G37*
G36*
X124775000Y-127750000D02*
G01*
X124425000Y-127750000D01*
X124425000Y-125750000D01*
X124775000Y-125750000D01*
X124775000Y-127750000D01*
G37*
G36*
X125375000Y-127750000D02*
G01*
X125025000Y-127750000D01*
X125025000Y-125750000D01*
X125375000Y-125750000D01*
X125375000Y-127750000D01*
G37*
G36*
X125975000Y-127750000D02*
G01*
X125625000Y-127750000D01*
X125625000Y-125750000D01*
X125975000Y-125750000D01*
X125975000Y-127750000D01*
G37*
G36*
X126575000Y-127750000D02*
G01*
X126225000Y-127750000D01*
X126225000Y-125750000D01*
X126575000Y-125750000D01*
X126575000Y-127750000D01*
G37*
G36*
X127175000Y-127750000D02*
G01*
X126825000Y-127750000D01*
X126825000Y-125750000D01*
X127175000Y-125750000D01*
X127175000Y-127750000D01*
G37*
G36*
X127775000Y-127750000D02*
G01*
X127425000Y-127750000D01*
X127425000Y-125750000D01*
X127775000Y-125750000D01*
X127775000Y-127750000D01*
G37*
G36*
X128375000Y-127750000D02*
G01*
X128025000Y-127750000D01*
X128025000Y-125750000D01*
X128375000Y-125750000D01*
X128375000Y-127750000D01*
G37*
G36*
X128975000Y-127750000D02*
G01*
X128625000Y-127750000D01*
X128625000Y-125750000D01*
X128975000Y-125750000D01*
X128975000Y-127750000D01*
G37*
G36*
X129575000Y-127750000D02*
G01*
X129225000Y-127750000D01*
X129225000Y-125750000D01*
X129575000Y-125750000D01*
X129575000Y-127750000D01*
G37*
G36*
X130175000Y-127750000D02*
G01*
X129825000Y-127750000D01*
X129825000Y-125750000D01*
X130175000Y-125750000D01*
X130175000Y-127750000D01*
G37*
G36*
X130775000Y-127750000D02*
G01*
X130425000Y-127750000D01*
X130425000Y-125750000D01*
X130775000Y-125750000D01*
X130775000Y-127750000D01*
G37*
G36*
X131375000Y-127750000D02*
G01*
X131025000Y-127750000D01*
X131025000Y-125750000D01*
X131375000Y-125750000D01*
X131375000Y-127750000D01*
G37*
G36*
X131975000Y-127750000D02*
G01*
X131625000Y-127750000D01*
X131625000Y-125750000D01*
X131975000Y-125750000D01*
X131975000Y-127750000D01*
G37*
G36*
X132575000Y-127750000D02*
G01*
X132225000Y-127750000D01*
X132225000Y-125750000D01*
X132575000Y-125750000D01*
X132575000Y-127750000D01*
G37*
G36*
X133175000Y-127750000D02*
G01*
X132825000Y-127750000D01*
X132825000Y-125750000D01*
X133175000Y-125750000D01*
X133175000Y-127750000D01*
G37*
G36*
X133775000Y-127750000D02*
G01*
X133425000Y-127750000D01*
X133425000Y-125750000D01*
X133775000Y-125750000D01*
X133775000Y-127750000D01*
G37*
G36*
X134375000Y-127750000D02*
G01*
X134025000Y-127750000D01*
X134025000Y-125750000D01*
X134375000Y-125750000D01*
X134375000Y-127750000D01*
G37*
G36*
X134975000Y-127750000D02*
G01*
X134625000Y-127750000D01*
X134625000Y-125750000D01*
X134975000Y-125750000D01*
X134975000Y-127750000D01*
G37*
G36*
X135575000Y-127750000D02*
G01*
X135225000Y-127750000D01*
X135225000Y-125750000D01*
X135575000Y-125750000D01*
X135575000Y-127750000D01*
G37*
G36*
X136175000Y-127750000D02*
G01*
X135825000Y-127750000D01*
X135825000Y-125750000D01*
X136175000Y-125750000D01*
X136175000Y-127750000D01*
G37*
G36*
X136775000Y-127750000D02*
G01*
X136425000Y-127750000D01*
X136425000Y-125750000D01*
X136775000Y-125750000D01*
X136775000Y-127750000D01*
G37*
G36*
X137375000Y-127750000D02*
G01*
X137025000Y-127750000D01*
X137025000Y-125750000D01*
X137375000Y-125750000D01*
X137375000Y-127750000D01*
G37*
G36*
X137975000Y-127750000D02*
G01*
X137625000Y-127750000D01*
X137625000Y-125750000D01*
X137975000Y-125750000D01*
X137975000Y-127750000D01*
G37*
G36*
X99575000Y-127750000D02*
G01*
X99225000Y-127750000D01*
X99225000Y-125750000D01*
X99575000Y-125750000D01*
X99575000Y-127750000D01*
G37*
G36*
X98975000Y-127750000D02*
G01*
X98625000Y-127750000D01*
X98625000Y-125750000D01*
X98975000Y-125750000D01*
X98975000Y-127750000D01*
G37*
G36*
X80375000Y-127750000D02*
G01*
X80025000Y-127750000D01*
X80025000Y-125750000D01*
X80375000Y-125750000D01*
X80375000Y-127750000D01*
G37*
G36*
X88175000Y-127750000D02*
G01*
X87825000Y-127750000D01*
X87825000Y-125750000D01*
X88175000Y-125750000D01*
X88175000Y-127750000D01*
G37*
G36*
X96575000Y-127750000D02*
G01*
X96225000Y-127750000D01*
X96225000Y-125750000D01*
X96575000Y-125750000D01*
X96575000Y-127750000D01*
G37*
G36*
X95975000Y-127750000D02*
G01*
X95625000Y-127750000D01*
X95625000Y-125750000D01*
X95975000Y-125750000D01*
X95975000Y-127750000D01*
G37*
G36*
X95375000Y-127750000D02*
G01*
X95025000Y-127750000D01*
X95025000Y-125750000D01*
X95375000Y-125750000D01*
X95375000Y-127750000D01*
G37*
G36*
X94775000Y-127750000D02*
G01*
X94425000Y-127750000D01*
X94425000Y-125750000D01*
X94775000Y-125750000D01*
X94775000Y-127750000D01*
G37*
G36*
X94175000Y-127750000D02*
G01*
X93825000Y-127750000D01*
X93825000Y-125750000D01*
X94175000Y-125750000D01*
X94175000Y-127750000D01*
G37*
G36*
X93575000Y-127750000D02*
G01*
X93225000Y-127750000D01*
X93225000Y-125750000D01*
X93575000Y-125750000D01*
X93575000Y-127750000D01*
G37*
G36*
X92975000Y-127750000D02*
G01*
X92625000Y-127750000D01*
X92625000Y-125750000D01*
X92975000Y-125750000D01*
X92975000Y-127750000D01*
G37*
G36*
X92375000Y-127750000D02*
G01*
X92025000Y-127750000D01*
X92025000Y-125750000D01*
X92375000Y-125750000D01*
X92375000Y-127750000D01*
G37*
G36*
X91775000Y-127750000D02*
G01*
X91425000Y-127750000D01*
X91425000Y-125750000D01*
X91775000Y-125750000D01*
X91775000Y-127750000D01*
G37*
G36*
X91175000Y-127750000D02*
G01*
X90825000Y-127750000D01*
X90825000Y-125750000D01*
X91175000Y-125750000D01*
X91175000Y-127750000D01*
G37*
G36*
X79175000Y-127750000D02*
G01*
X78825000Y-127750000D01*
X78825000Y-125750000D01*
X79175000Y-125750000D01*
X79175000Y-127750000D01*
G37*
G36*
X90575000Y-127750000D02*
G01*
X90225000Y-127750000D01*
X90225000Y-125750000D01*
X90575000Y-125750000D01*
X90575000Y-127750000D01*
G37*
G36*
X89375000Y-127750000D02*
G01*
X89025000Y-127750000D01*
X89025000Y-125750000D01*
X89375000Y-125750000D01*
X89375000Y-127750000D01*
G37*
G36*
X88775000Y-127750000D02*
G01*
X88425000Y-127750000D01*
X88425000Y-125750000D01*
X88775000Y-125750000D01*
X88775000Y-127750000D01*
G37*
G36*
X70775000Y-127750000D02*
G01*
X70425000Y-127750000D01*
X70425000Y-125750000D01*
X70775000Y-125750000D01*
X70775000Y-127750000D01*
G37*
G36*
X80975000Y-127750000D02*
G01*
X80625000Y-127750000D01*
X80625000Y-125750000D01*
X80975000Y-125750000D01*
X80975000Y-127750000D01*
G37*
G36*
X81575000Y-127750000D02*
G01*
X81225000Y-127750000D01*
X81225000Y-125750000D01*
X81575000Y-125750000D01*
X81575000Y-127750000D01*
G37*
G36*
X82175000Y-127750000D02*
G01*
X81825000Y-127750000D01*
X81825000Y-125750000D01*
X82175000Y-125750000D01*
X82175000Y-127750000D01*
G37*
G36*
X82775000Y-127750000D02*
G01*
X82425000Y-127750000D01*
X82425000Y-125750000D01*
X82775000Y-125750000D01*
X82775000Y-127750000D01*
G37*
G36*
X83375000Y-127750000D02*
G01*
X83025000Y-127750000D01*
X83025000Y-125750000D01*
X83375000Y-125750000D01*
X83375000Y-127750000D01*
G37*
G36*
X83975000Y-127750000D02*
G01*
X83625000Y-127750000D01*
X83625000Y-125750000D01*
X83975000Y-125750000D01*
X83975000Y-127750000D01*
G37*
G36*
X84575000Y-127750000D02*
G01*
X84225000Y-127750000D01*
X84225000Y-125750000D01*
X84575000Y-125750000D01*
X84575000Y-127750000D01*
G37*
G36*
X85175000Y-127750000D02*
G01*
X84825000Y-127750000D01*
X84825000Y-125750000D01*
X85175000Y-125750000D01*
X85175000Y-127750000D01*
G37*
G36*
X85775000Y-127750000D02*
G01*
X85425000Y-127750000D01*
X85425000Y-125750000D01*
X85775000Y-125750000D01*
X85775000Y-127750000D01*
G37*
G36*
X86375000Y-127750000D02*
G01*
X86025000Y-127750000D01*
X86025000Y-125750000D01*
X86375000Y-125750000D01*
X86375000Y-127750000D01*
G37*
G36*
X86975000Y-127750000D02*
G01*
X86625000Y-127750000D01*
X86625000Y-125750000D01*
X86975000Y-125750000D01*
X86975000Y-127750000D01*
G37*
G36*
X87575000Y-127750000D02*
G01*
X87225000Y-127750000D01*
X87225000Y-125750000D01*
X87575000Y-125750000D01*
X87575000Y-127750000D01*
G37*
G36*
X89975000Y-127750000D02*
G01*
X89625000Y-127750000D01*
X89625000Y-125750000D01*
X89975000Y-125750000D01*
X89975000Y-127750000D01*
G37*
G36*
X112175000Y-127750000D02*
G01*
X111825000Y-127750000D01*
X111825000Y-125750000D01*
X112175000Y-125750000D01*
X112175000Y-127750000D01*
G37*
G36*
X71375000Y-127750000D02*
G01*
X71025000Y-127750000D01*
X71025000Y-125750000D01*
X71375000Y-125750000D01*
X71375000Y-127750000D01*
G37*
G36*
X97775000Y-127750000D02*
G01*
X97425000Y-127750000D01*
X97425000Y-125750000D01*
X97775000Y-125750000D01*
X97775000Y-127750000D01*
G37*
G36*
X78575000Y-127750000D02*
G01*
X78225000Y-127750000D01*
X78225000Y-125750000D01*
X78575000Y-125750000D01*
X78575000Y-127750000D01*
G37*
G36*
X77975000Y-127750000D02*
G01*
X77625000Y-127750000D01*
X77625000Y-125750000D01*
X77975000Y-125750000D01*
X77975000Y-127750000D01*
G37*
G36*
X77375000Y-127750000D02*
G01*
X77025000Y-127750000D01*
X77025000Y-125750000D01*
X77375000Y-125750000D01*
X77375000Y-127750000D01*
G37*
G36*
X76775000Y-127750000D02*
G01*
X76425000Y-127750000D01*
X76425000Y-125750000D01*
X76775000Y-125750000D01*
X76775000Y-127750000D01*
G37*
G36*
X76175000Y-127750000D02*
G01*
X75825000Y-127750000D01*
X75825000Y-125750000D01*
X76175000Y-125750000D01*
X76175000Y-127750000D01*
G37*
G36*
X75575000Y-127750000D02*
G01*
X75225000Y-127750000D01*
X75225000Y-125750000D01*
X75575000Y-125750000D01*
X75575000Y-127750000D01*
G37*
G36*
X74975000Y-127750000D02*
G01*
X74625000Y-127750000D01*
X74625000Y-125750000D01*
X74975000Y-125750000D01*
X74975000Y-127750000D01*
G37*
G36*
X74375000Y-127750000D02*
G01*
X74025000Y-127750000D01*
X74025000Y-125750000D01*
X74375000Y-125750000D01*
X74375000Y-127750000D01*
G37*
G36*
X73775000Y-127750000D02*
G01*
X73425000Y-127750000D01*
X73425000Y-125750000D01*
X73775000Y-125750000D01*
X73775000Y-127750000D01*
G37*
G36*
X73175000Y-127750000D02*
G01*
X72825000Y-127750000D01*
X72825000Y-125750000D01*
X73175000Y-125750000D01*
X73175000Y-127750000D01*
G37*
G36*
X72575000Y-127750000D02*
G01*
X72225000Y-127750000D01*
X72225000Y-125750000D01*
X72575000Y-125750000D01*
X72575000Y-127750000D01*
G37*
G36*
X71975000Y-127750000D02*
G01*
X71625000Y-127750000D01*
X71625000Y-125750000D01*
X71975000Y-125750000D01*
X71975000Y-127750000D01*
G37*
G36*
X100175000Y-127750000D02*
G01*
X99825000Y-127750000D01*
X99825000Y-125750000D01*
X100175000Y-125750000D01*
X100175000Y-127750000D01*
G37*
G36*
X79775000Y-127750000D02*
G01*
X79425000Y-127750000D01*
X79425000Y-125750000D01*
X79775000Y-125750000D01*
X79775000Y-127750000D01*
G37*
G36*
X69575000Y-127750000D02*
G01*
X69225000Y-127750000D01*
X69225000Y-125750000D01*
X69575000Y-125750000D01*
X69575000Y-127750000D01*
G37*
G36*
X62975000Y-127750000D02*
G01*
X62625000Y-127750000D01*
X62625000Y-125750000D01*
X62975000Y-125750000D01*
X62975000Y-127750000D01*
G37*
G36*
X62375000Y-127750000D02*
G01*
X62025000Y-127750000D01*
X62025000Y-125750000D01*
X62375000Y-125750000D01*
X62375000Y-127750000D01*
G37*
G36*
X63575000Y-127750000D02*
G01*
X63225000Y-127750000D01*
X63225000Y-125750000D01*
X63575000Y-125750000D01*
X63575000Y-127750000D01*
G37*
G36*
X64175000Y-127750000D02*
G01*
X63825000Y-127750000D01*
X63825000Y-125750000D01*
X64175000Y-125750000D01*
X64175000Y-127750000D01*
G37*
G36*
X64775000Y-127750000D02*
G01*
X64425000Y-127750000D01*
X64425000Y-125750000D01*
X64775000Y-125750000D01*
X64775000Y-127750000D01*
G37*
G36*
X65375000Y-127750000D02*
G01*
X65025000Y-127750000D01*
X65025000Y-125750000D01*
X65375000Y-125750000D01*
X65375000Y-127750000D01*
G37*
G36*
X65975000Y-127750000D02*
G01*
X65625000Y-127750000D01*
X65625000Y-125750000D01*
X65975000Y-125750000D01*
X65975000Y-127750000D01*
G37*
G36*
X66575000Y-127750000D02*
G01*
X66225000Y-127750000D01*
X66225000Y-125750000D01*
X66575000Y-125750000D01*
X66575000Y-127750000D01*
G37*
G36*
X67175000Y-127750000D02*
G01*
X66825000Y-127750000D01*
X66825000Y-125750000D01*
X67175000Y-125750000D01*
X67175000Y-127750000D01*
G37*
G36*
X67775000Y-127750000D02*
G01*
X67425000Y-127750000D01*
X67425000Y-125750000D01*
X67775000Y-125750000D01*
X67775000Y-127750000D01*
G37*
G36*
X68375000Y-127750000D02*
G01*
X68025000Y-127750000D01*
X68025000Y-125750000D01*
X68375000Y-125750000D01*
X68375000Y-127750000D01*
G37*
G36*
X68975000Y-127750000D02*
G01*
X68625000Y-127750000D01*
X68625000Y-125750000D01*
X68975000Y-125750000D01*
X68975000Y-127750000D01*
G37*
G36*
X70175000Y-127750000D02*
G01*
X69825000Y-127750000D01*
X69825000Y-125750000D01*
X70175000Y-125750000D01*
X70175000Y-127750000D01*
G37*
G36*
X102764610Y-122198036D02*
G01*
X102992095Y-122292264D01*
X102992097Y-122292265D01*
X103196828Y-122429062D01*
X103370938Y-122603172D01*
X103507736Y-122807905D01*
X103601964Y-123035390D01*
X103650000Y-123276884D01*
X103650000Y-123523116D01*
X103601964Y-123764610D01*
X103510065Y-123986473D01*
X103507735Y-123992097D01*
X103370938Y-124196828D01*
X103196828Y-124370938D01*
X102992097Y-124507735D01*
X102992096Y-124507736D01*
X102992095Y-124507736D01*
X102764610Y-124601964D01*
X102523116Y-124650000D01*
X102276884Y-124650000D01*
X102035390Y-124601964D01*
X101807905Y-124507736D01*
X101807904Y-124507736D01*
X101807903Y-124507735D01*
X101603172Y-124370938D01*
X101429062Y-124196828D01*
X101292265Y-123992097D01*
X101289935Y-123986473D01*
X101198036Y-123764610D01*
X101150000Y-123523116D01*
X101150000Y-123276884D01*
X101198036Y-123035390D01*
X101292264Y-122807905D01*
X101429062Y-122603172D01*
X101603172Y-122429062D01*
X101807903Y-122292265D01*
X101807905Y-122292264D01*
X102035390Y-122198036D01*
X102276884Y-122150000D01*
X102523116Y-122150000D01*
X102764610Y-122198036D01*
G37*
G36*
X57264610Y-122198036D02*
G01*
X57492095Y-122292264D01*
X57492097Y-122292265D01*
X57696828Y-122429062D01*
X57870938Y-122603172D01*
X58007736Y-122807905D01*
X58101964Y-123035390D01*
X58150000Y-123276884D01*
X58150000Y-123523116D01*
X58101964Y-123764610D01*
X58010065Y-123986473D01*
X58007735Y-123992097D01*
X57870938Y-124196828D01*
X57696828Y-124370938D01*
X57492097Y-124507735D01*
X57492096Y-124507736D01*
X57492095Y-124507736D01*
X57264610Y-124601964D01*
X57023116Y-124650000D01*
X56776884Y-124650000D01*
X56535390Y-124601964D01*
X56307905Y-124507736D01*
X56307904Y-124507736D01*
X56307903Y-124507735D01*
X56103172Y-124370938D01*
X55929062Y-124196828D01*
X55792265Y-123992097D01*
X55789935Y-123986473D01*
X55698036Y-123764610D01*
X55650000Y-123523116D01*
X55650000Y-123276884D01*
X55698036Y-123035390D01*
X55792264Y-122807905D01*
X55929062Y-122603172D01*
X56103172Y-122429062D01*
X56307903Y-122292265D01*
X56307905Y-122292264D01*
X56535390Y-122198036D01*
X56776884Y-122150000D01*
X57023116Y-122150000D01*
X57264610Y-122198036D01*
G37*
G36*
X143464610Y-122198036D02*
G01*
X143692095Y-122292264D01*
X143692097Y-122292265D01*
X143896828Y-122429062D01*
X144070938Y-122603172D01*
X144207736Y-122807905D01*
X144301964Y-123035390D01*
X144350000Y-123276884D01*
X144350000Y-123523116D01*
X144301964Y-123764610D01*
X144210065Y-123986473D01*
X144207735Y-123992097D01*
X144070938Y-124196828D01*
X143896828Y-124370938D01*
X143692097Y-124507735D01*
X143692096Y-124507736D01*
X143692095Y-124507736D01*
X143464610Y-124601964D01*
X143223116Y-124650000D01*
X142976884Y-124650000D01*
X142735390Y-124601964D01*
X142507905Y-124507736D01*
X142507904Y-124507736D01*
X142507903Y-124507735D01*
X142303172Y-124370938D01*
X142129062Y-124196828D01*
X141992265Y-123992097D01*
X141989935Y-123986473D01*
X141898036Y-123764610D01*
X141850000Y-123523116D01*
X141850000Y-123276884D01*
X141898036Y-123035390D01*
X141992264Y-122807905D01*
X142129062Y-122603172D01*
X142303172Y-122429062D01*
X142507903Y-122292265D01*
X142507905Y-122292264D01*
X142735390Y-122198036D01*
X142976884Y-122150000D01*
X143223116Y-122150000D01*
X143464610Y-122198036D01*
G37*
G36*
X132247765Y-121754403D02*
G01*
X132370445Y-121778805D01*
X132601571Y-121874541D01*
X132809578Y-122013527D01*
X132986473Y-122190422D01*
X133125459Y-122398429D01*
X133210267Y-122603172D01*
X133221195Y-122629556D01*
X133270000Y-122874915D01*
X133270000Y-123125085D01*
X133221195Y-123370444D01*
X133125460Y-123601569D01*
X132986474Y-123809577D01*
X132809577Y-123986474D01*
X132706279Y-124055495D01*
X132601571Y-124125459D01*
X132370445Y-124221195D01*
X132247764Y-124245598D01*
X132125085Y-124270000D01*
X131874915Y-124270000D01*
X131752236Y-124245598D01*
X131629555Y-124221195D01*
X131398429Y-124125459D01*
X131293721Y-124055495D01*
X131190423Y-123986474D01*
X131013526Y-123809577D01*
X130874540Y-123601569D01*
X130778805Y-123370444D01*
X130730000Y-123125085D01*
X130730000Y-122874915D01*
X130778805Y-122629556D01*
X130789734Y-122603172D01*
X130874541Y-122398429D01*
X131013527Y-122190422D01*
X131190422Y-122013527D01*
X131398429Y-121874541D01*
X131629555Y-121778805D01*
X131752235Y-121754403D01*
X131874915Y-121730000D01*
X132125085Y-121730000D01*
X132247765Y-121754403D01*
G37*
G36*
X59300000Y-121310000D02*
G01*
X54500000Y-121310000D01*
X54500000Y-116310000D01*
X59300000Y-116310000D01*
X59300000Y-121310000D01*
G37*
G36*
X145500000Y-121310000D02*
G01*
X140700000Y-121310000D01*
X140700000Y-116310000D01*
X145500000Y-116310000D01*
X145500000Y-121310000D01*
G37*
G36*
X103700000Y-121310000D02*
G01*
X101100000Y-121310000D01*
X101100000Y-116310000D01*
X103700000Y-116310000D01*
X103700000Y-121310000D01*
G37*
G36*
X128375000Y-119050000D02*
G01*
X128025000Y-119050000D01*
X128025000Y-117050000D01*
X128375000Y-117050000D01*
X128375000Y-119050000D01*
G37*
G36*
X136175000Y-119050000D02*
G01*
X135825000Y-119050000D01*
X135825000Y-117050000D01*
X136175000Y-117050000D01*
X136175000Y-119050000D01*
G37*
G36*
X119375000Y-119050000D02*
G01*
X119025000Y-119050000D01*
X119025000Y-117050000D01*
X119375000Y-117050000D01*
X119375000Y-119050000D01*
G37*
G36*
X129575000Y-119050000D02*
G01*
X129225000Y-119050000D01*
X129225000Y-117050000D01*
X129575000Y-117050000D01*
X129575000Y-119050000D01*
G37*
G36*
X130175000Y-119050000D02*
G01*
X129825000Y-119050000D01*
X129825000Y-117050000D01*
X130175000Y-117050000D01*
X130175000Y-119050000D01*
G37*
G36*
X130775000Y-119050000D02*
G01*
X130425000Y-119050000D01*
X130425000Y-117050000D01*
X130775000Y-117050000D01*
X130775000Y-119050000D01*
G37*
G36*
X131375000Y-119050000D02*
G01*
X131025000Y-119050000D01*
X131025000Y-117050000D01*
X131375000Y-117050000D01*
X131375000Y-119050000D01*
G37*
G36*
X131975000Y-119050000D02*
G01*
X131625000Y-119050000D01*
X131625000Y-117050000D01*
X131975000Y-117050000D01*
X131975000Y-119050000D01*
G37*
G36*
X132575000Y-119050000D02*
G01*
X132225000Y-119050000D01*
X132225000Y-117050000D01*
X132575000Y-117050000D01*
X132575000Y-119050000D01*
G37*
G36*
X133175000Y-119050000D02*
G01*
X132825000Y-119050000D01*
X132825000Y-117050000D01*
X133175000Y-117050000D01*
X133175000Y-119050000D01*
G37*
G36*
X133775000Y-119050000D02*
G01*
X133425000Y-119050000D01*
X133425000Y-117050000D01*
X133775000Y-117050000D01*
X133775000Y-119050000D01*
G37*
G36*
X134375000Y-119050000D02*
G01*
X134025000Y-119050000D01*
X134025000Y-117050000D01*
X134375000Y-117050000D01*
X134375000Y-119050000D01*
G37*
G36*
X134975000Y-119050000D02*
G01*
X134625000Y-119050000D01*
X134625000Y-117050000D01*
X134975000Y-117050000D01*
X134975000Y-119050000D01*
G37*
G36*
X135575000Y-119050000D02*
G01*
X135225000Y-119050000D01*
X135225000Y-117050000D01*
X135575000Y-117050000D01*
X135575000Y-119050000D01*
G37*
G36*
X85175000Y-119050000D02*
G01*
X84825000Y-119050000D01*
X84825000Y-117050000D01*
X85175000Y-117050000D01*
X85175000Y-119050000D01*
G37*
G36*
X127775000Y-119050000D02*
G01*
X127425000Y-119050000D01*
X127425000Y-117050000D01*
X127775000Y-117050000D01*
X127775000Y-119050000D01*
G37*
G36*
X127175000Y-119050000D02*
G01*
X126825000Y-119050000D01*
X126825000Y-117050000D01*
X127175000Y-117050000D01*
X127175000Y-119050000D01*
G37*
G36*
X126575000Y-119050000D02*
G01*
X126225000Y-119050000D01*
X126225000Y-117050000D01*
X126575000Y-117050000D01*
X126575000Y-119050000D01*
G37*
G36*
X125975000Y-119050000D02*
G01*
X125625000Y-119050000D01*
X125625000Y-117050000D01*
X125975000Y-117050000D01*
X125975000Y-119050000D01*
G37*
G36*
X125375000Y-119050000D02*
G01*
X125025000Y-119050000D01*
X125025000Y-117050000D01*
X125375000Y-117050000D01*
X125375000Y-119050000D01*
G37*
G36*
X124775000Y-119050000D02*
G01*
X124425000Y-119050000D01*
X124425000Y-117050000D01*
X124775000Y-117050000D01*
X124775000Y-119050000D01*
G37*
G36*
X124175000Y-119050000D02*
G01*
X123825000Y-119050000D01*
X123825000Y-117050000D01*
X124175000Y-117050000D01*
X124175000Y-119050000D01*
G37*
G36*
X123575000Y-119050000D02*
G01*
X123225000Y-119050000D01*
X123225000Y-117050000D01*
X123575000Y-117050000D01*
X123575000Y-119050000D01*
G37*
G36*
X122975000Y-119050000D02*
G01*
X122625000Y-119050000D01*
X122625000Y-117050000D01*
X122975000Y-117050000D01*
X122975000Y-119050000D01*
G37*
G36*
X122375000Y-119050000D02*
G01*
X122025000Y-119050000D01*
X122025000Y-117050000D01*
X122375000Y-117050000D01*
X122375000Y-119050000D01*
G37*
G36*
X121775000Y-119050000D02*
G01*
X121425000Y-119050000D01*
X121425000Y-117050000D01*
X121775000Y-117050000D01*
X121775000Y-119050000D01*
G37*
G36*
X121175000Y-119050000D02*
G01*
X120825000Y-119050000D01*
X120825000Y-117050000D01*
X121175000Y-117050000D01*
X121175000Y-119050000D01*
G37*
G36*
X120575000Y-119050000D02*
G01*
X120225000Y-119050000D01*
X120225000Y-117050000D01*
X120575000Y-117050000D01*
X120575000Y-119050000D01*
G37*
G36*
X119975000Y-119050000D02*
G01*
X119625000Y-119050000D01*
X119625000Y-117050000D01*
X119975000Y-117050000D01*
X119975000Y-119050000D01*
G37*
G36*
X128975000Y-119050000D02*
G01*
X128625000Y-119050000D01*
X128625000Y-117050000D01*
X128975000Y-117050000D01*
X128975000Y-119050000D01*
G37*
G36*
X109775000Y-119050000D02*
G01*
X109425000Y-119050000D01*
X109425000Y-117050000D01*
X109775000Y-117050000D01*
X109775000Y-119050000D01*
G37*
G36*
X118775000Y-119050000D02*
G01*
X118425000Y-119050000D01*
X118425000Y-117050000D01*
X118775000Y-117050000D01*
X118775000Y-119050000D01*
G37*
G36*
X118175000Y-119050000D02*
G01*
X117825000Y-119050000D01*
X117825000Y-117050000D01*
X118175000Y-117050000D01*
X118175000Y-119050000D01*
G37*
G36*
X117575000Y-119050000D02*
G01*
X117225000Y-119050000D01*
X117225000Y-117050000D01*
X117575000Y-117050000D01*
X117575000Y-119050000D01*
G37*
G36*
X116975000Y-119050000D02*
G01*
X116625000Y-119050000D01*
X116625000Y-117050000D01*
X116975000Y-117050000D01*
X116975000Y-119050000D01*
G37*
G36*
X116375000Y-119050000D02*
G01*
X116025000Y-119050000D01*
X116025000Y-117050000D01*
X116375000Y-117050000D01*
X116375000Y-119050000D01*
G37*
G36*
X115775000Y-119050000D02*
G01*
X115425000Y-119050000D01*
X115425000Y-117050000D01*
X115775000Y-117050000D01*
X115775000Y-119050000D01*
G37*
G36*
X115175000Y-119050000D02*
G01*
X114825000Y-119050000D01*
X114825000Y-117050000D01*
X115175000Y-117050000D01*
X115175000Y-119050000D01*
G37*
G36*
X114575000Y-119050000D02*
G01*
X114225000Y-119050000D01*
X114225000Y-117050000D01*
X114575000Y-117050000D01*
X114575000Y-119050000D01*
G37*
G36*
X113975000Y-119050000D02*
G01*
X113625000Y-119050000D01*
X113625000Y-117050000D01*
X113975000Y-117050000D01*
X113975000Y-119050000D01*
G37*
G36*
X113375000Y-119050000D02*
G01*
X113025000Y-119050000D01*
X113025000Y-117050000D01*
X113375000Y-117050000D01*
X113375000Y-119050000D01*
G37*
G36*
X112775000Y-119050000D02*
G01*
X112425000Y-119050000D01*
X112425000Y-117050000D01*
X112775000Y-117050000D01*
X112775000Y-119050000D01*
G37*
G36*
X112175000Y-119050000D02*
G01*
X111825000Y-119050000D01*
X111825000Y-117050000D01*
X112175000Y-117050000D01*
X112175000Y-119050000D01*
G37*
G36*
X111575000Y-119050000D02*
G01*
X111225000Y-119050000D01*
X111225000Y-117050000D01*
X111575000Y-117050000D01*
X111575000Y-119050000D01*
G37*
G36*
X110975000Y-119050000D02*
G01*
X110625000Y-119050000D01*
X110625000Y-117050000D01*
X110975000Y-117050000D01*
X110975000Y-119050000D01*
G37*
G36*
X65375000Y-119050000D02*
G01*
X65025000Y-119050000D01*
X65025000Y-117050000D01*
X65375000Y-117050000D01*
X65375000Y-119050000D01*
G37*
G36*
X136775000Y-119050000D02*
G01*
X136425000Y-119050000D01*
X136425000Y-117050000D01*
X136775000Y-117050000D01*
X136775000Y-119050000D01*
G37*
G36*
X109175000Y-119050000D02*
G01*
X108825000Y-119050000D01*
X108825000Y-117050000D01*
X109175000Y-117050000D01*
X109175000Y-119050000D01*
G37*
G36*
X108575000Y-119050000D02*
G01*
X108225000Y-119050000D01*
X108225000Y-117050000D01*
X108575000Y-117050000D01*
X108575000Y-119050000D01*
G37*
G36*
X107975000Y-119050000D02*
G01*
X107625000Y-119050000D01*
X107625000Y-117050000D01*
X107975000Y-117050000D01*
X107975000Y-119050000D01*
G37*
G36*
X73175000Y-119050000D02*
G01*
X72825000Y-119050000D01*
X72825000Y-117050000D01*
X73175000Y-117050000D01*
X73175000Y-119050000D01*
G37*
G36*
X107375000Y-119050000D02*
G01*
X107025000Y-119050000D01*
X107025000Y-117050000D01*
X107375000Y-117050000D01*
X107375000Y-119050000D01*
G37*
G36*
X106775000Y-119050000D02*
G01*
X106425000Y-119050000D01*
X106425000Y-117050000D01*
X106775000Y-117050000D01*
X106775000Y-119050000D01*
G37*
G36*
X62375000Y-119050000D02*
G01*
X62025000Y-119050000D01*
X62025000Y-117050000D01*
X62375000Y-117050000D01*
X62375000Y-119050000D01*
G37*
G36*
X62975000Y-119050000D02*
G01*
X62625000Y-119050000D01*
X62625000Y-117050000D01*
X62975000Y-117050000D01*
X62975000Y-119050000D01*
G37*
G36*
X63575000Y-119050000D02*
G01*
X63225000Y-119050000D01*
X63225000Y-117050000D01*
X63575000Y-117050000D01*
X63575000Y-119050000D01*
G37*
G36*
X64175000Y-119050000D02*
G01*
X63825000Y-119050000D01*
X63825000Y-117050000D01*
X64175000Y-117050000D01*
X64175000Y-119050000D01*
G37*
G36*
X64775000Y-119050000D02*
G01*
X64425000Y-119050000D01*
X64425000Y-117050000D01*
X64775000Y-117050000D01*
X64775000Y-119050000D01*
G37*
G36*
X110375000Y-119050000D02*
G01*
X110025000Y-119050000D01*
X110025000Y-117050000D01*
X110375000Y-117050000D01*
X110375000Y-119050000D01*
G37*
G36*
X137975000Y-119050000D02*
G01*
X137625000Y-119050000D01*
X137625000Y-117050000D01*
X137975000Y-117050000D01*
X137975000Y-119050000D01*
G37*
G36*
X137375000Y-119050000D02*
G01*
X137025000Y-119050000D01*
X137025000Y-117050000D01*
X137375000Y-117050000D01*
X137375000Y-119050000D01*
G37*
G36*
X83375000Y-119050000D02*
G01*
X83025000Y-119050000D01*
X83025000Y-117050000D01*
X83375000Y-117050000D01*
X83375000Y-119050000D01*
G37*
G36*
X66575000Y-119050000D02*
G01*
X66225000Y-119050000D01*
X66225000Y-117050000D01*
X66575000Y-117050000D01*
X66575000Y-119050000D01*
G37*
G36*
X67175000Y-119050000D02*
G01*
X66825000Y-119050000D01*
X66825000Y-117050000D01*
X67175000Y-117050000D01*
X67175000Y-119050000D01*
G37*
G36*
X67775000Y-119050000D02*
G01*
X67425000Y-119050000D01*
X67425000Y-117050000D01*
X67775000Y-117050000D01*
X67775000Y-119050000D01*
G37*
G36*
X68375000Y-119050000D02*
G01*
X68025000Y-119050000D01*
X68025000Y-117050000D01*
X68375000Y-117050000D01*
X68375000Y-119050000D01*
G37*
G36*
X68975000Y-119050000D02*
G01*
X68625000Y-119050000D01*
X68625000Y-117050000D01*
X68975000Y-117050000D01*
X68975000Y-119050000D01*
G37*
G36*
X69575000Y-119050000D02*
G01*
X69225000Y-119050000D01*
X69225000Y-117050000D01*
X69575000Y-117050000D01*
X69575000Y-119050000D01*
G37*
G36*
X70175000Y-119050000D02*
G01*
X69825000Y-119050000D01*
X69825000Y-117050000D01*
X70175000Y-117050000D01*
X70175000Y-119050000D01*
G37*
G36*
X70775000Y-119050000D02*
G01*
X70425000Y-119050000D01*
X70425000Y-117050000D01*
X70775000Y-117050000D01*
X70775000Y-119050000D01*
G37*
G36*
X71375000Y-119050000D02*
G01*
X71025000Y-119050000D01*
X71025000Y-117050000D01*
X71375000Y-117050000D01*
X71375000Y-119050000D01*
G37*
G36*
X71975000Y-119050000D02*
G01*
X71625000Y-119050000D01*
X71625000Y-117050000D01*
X71975000Y-117050000D01*
X71975000Y-119050000D01*
G37*
G36*
X72575000Y-119050000D02*
G01*
X72225000Y-119050000D01*
X72225000Y-117050000D01*
X72575000Y-117050000D01*
X72575000Y-119050000D01*
G37*
G36*
X73775000Y-119050000D02*
G01*
X73425000Y-119050000D01*
X73425000Y-117050000D01*
X73775000Y-117050000D01*
X73775000Y-119050000D01*
G37*
G36*
X74375000Y-119050000D02*
G01*
X74025000Y-119050000D01*
X74025000Y-117050000D01*
X74375000Y-117050000D01*
X74375000Y-119050000D01*
G37*
G36*
X74975000Y-119050000D02*
G01*
X74625000Y-119050000D01*
X74625000Y-117050000D01*
X74975000Y-117050000D01*
X74975000Y-119050000D01*
G37*
G36*
X65975000Y-119050000D02*
G01*
X65625000Y-119050000D01*
X65625000Y-117050000D01*
X65975000Y-117050000D01*
X65975000Y-119050000D01*
G37*
G36*
X86375000Y-119050000D02*
G01*
X86025000Y-119050000D01*
X86025000Y-117050000D01*
X86375000Y-117050000D01*
X86375000Y-119050000D01*
G37*
G36*
X82775000Y-119050000D02*
G01*
X82425000Y-119050000D01*
X82425000Y-117050000D01*
X82775000Y-117050000D01*
X82775000Y-119050000D01*
G37*
G36*
X82175000Y-119050000D02*
G01*
X81825000Y-119050000D01*
X81825000Y-117050000D01*
X82175000Y-117050000D01*
X82175000Y-119050000D01*
G37*
G36*
X81575000Y-119050000D02*
G01*
X81225000Y-119050000D01*
X81225000Y-117050000D01*
X81575000Y-117050000D01*
X81575000Y-119050000D01*
G37*
G36*
X80975000Y-119050000D02*
G01*
X80625000Y-119050000D01*
X80625000Y-117050000D01*
X80975000Y-117050000D01*
X80975000Y-119050000D01*
G37*
G36*
X80375000Y-119050000D02*
G01*
X80025000Y-119050000D01*
X80025000Y-117050000D01*
X80375000Y-117050000D01*
X80375000Y-119050000D01*
G37*
G36*
X79775000Y-119050000D02*
G01*
X79425000Y-119050000D01*
X79425000Y-117050000D01*
X79775000Y-117050000D01*
X79775000Y-119050000D01*
G37*
G36*
X79175000Y-119050000D02*
G01*
X78825000Y-119050000D01*
X78825000Y-117050000D01*
X79175000Y-117050000D01*
X79175000Y-119050000D01*
G37*
G36*
X78575000Y-119050000D02*
G01*
X78225000Y-119050000D01*
X78225000Y-117050000D01*
X78575000Y-117050000D01*
X78575000Y-119050000D01*
G37*
G36*
X77975000Y-119050000D02*
G01*
X77625000Y-119050000D01*
X77625000Y-117050000D01*
X77975000Y-117050000D01*
X77975000Y-119050000D01*
G37*
G36*
X77375000Y-119050000D02*
G01*
X77025000Y-119050000D01*
X77025000Y-117050000D01*
X77375000Y-117050000D01*
X77375000Y-119050000D01*
G37*
G36*
X76775000Y-119050000D02*
G01*
X76425000Y-119050000D01*
X76425000Y-117050000D01*
X76775000Y-117050000D01*
X76775000Y-119050000D01*
G37*
G36*
X76175000Y-119050000D02*
G01*
X75825000Y-119050000D01*
X75825000Y-117050000D01*
X76175000Y-117050000D01*
X76175000Y-119050000D01*
G37*
G36*
X83975000Y-119050000D02*
G01*
X83625000Y-119050000D01*
X83625000Y-117050000D01*
X83975000Y-117050000D01*
X83975000Y-119050000D01*
G37*
G36*
X75575000Y-119050000D02*
G01*
X75225000Y-119050000D01*
X75225000Y-117050000D01*
X75575000Y-117050000D01*
X75575000Y-119050000D01*
G37*
G36*
X91775000Y-119050000D02*
G01*
X91425000Y-119050000D01*
X91425000Y-117050000D01*
X91775000Y-117050000D01*
X91775000Y-119050000D01*
G37*
G36*
X105575000Y-119050000D02*
G01*
X105225000Y-119050000D01*
X105225000Y-117050000D01*
X105575000Y-117050000D01*
X105575000Y-119050000D01*
G37*
G36*
X85775000Y-119050000D02*
G01*
X85425000Y-119050000D01*
X85425000Y-117050000D01*
X85775000Y-117050000D01*
X85775000Y-119050000D01*
G37*
G36*
X86975000Y-119050000D02*
G01*
X86625000Y-119050000D01*
X86625000Y-117050000D01*
X86975000Y-117050000D01*
X86975000Y-119050000D01*
G37*
G36*
X87575000Y-119050000D02*
G01*
X87225000Y-119050000D01*
X87225000Y-117050000D01*
X87575000Y-117050000D01*
X87575000Y-119050000D01*
G37*
G36*
X88175000Y-119050000D02*
G01*
X87825000Y-119050000D01*
X87825000Y-117050000D01*
X88175000Y-117050000D01*
X88175000Y-119050000D01*
G37*
G36*
X88775000Y-119050000D02*
G01*
X88425000Y-119050000D01*
X88425000Y-117050000D01*
X88775000Y-117050000D01*
X88775000Y-119050000D01*
G37*
G36*
X89375000Y-119050000D02*
G01*
X89025000Y-119050000D01*
X89025000Y-117050000D01*
X89375000Y-117050000D01*
X89375000Y-119050000D01*
G37*
G36*
X89975000Y-119050000D02*
G01*
X89625000Y-119050000D01*
X89625000Y-117050000D01*
X89975000Y-117050000D01*
X89975000Y-119050000D01*
G37*
G36*
X90575000Y-119050000D02*
G01*
X90225000Y-119050000D01*
X90225000Y-117050000D01*
X90575000Y-117050000D01*
X90575000Y-119050000D01*
G37*
G36*
X91175000Y-119050000D02*
G01*
X90825000Y-119050000D01*
X90825000Y-117050000D01*
X91175000Y-117050000D01*
X91175000Y-119050000D01*
G37*
G36*
X92375000Y-119050000D02*
G01*
X92025000Y-119050000D01*
X92025000Y-117050000D01*
X92375000Y-117050000D01*
X92375000Y-119050000D01*
G37*
G36*
X92975000Y-119050000D02*
G01*
X92625000Y-119050000D01*
X92625000Y-117050000D01*
X92975000Y-117050000D01*
X92975000Y-119050000D01*
G37*
G36*
X84575000Y-119050000D02*
G01*
X84225000Y-119050000D01*
X84225000Y-117050000D01*
X84575000Y-117050000D01*
X84575000Y-119050000D01*
G37*
G36*
X94175000Y-119050000D02*
G01*
X93825000Y-119050000D01*
X93825000Y-117050000D01*
X94175000Y-117050000D01*
X94175000Y-119050000D01*
G37*
G36*
X104975000Y-119050000D02*
G01*
X104625000Y-119050000D01*
X104625000Y-117050000D01*
X104975000Y-117050000D01*
X104975000Y-119050000D01*
G37*
G36*
X93575000Y-119050000D02*
G01*
X93225000Y-119050000D01*
X93225000Y-117050000D01*
X93575000Y-117050000D01*
X93575000Y-119050000D01*
G37*
G36*
X106175000Y-119050000D02*
G01*
X105825000Y-119050000D01*
X105825000Y-117050000D01*
X106175000Y-117050000D01*
X106175000Y-119050000D01*
G37*
G36*
X94775000Y-119050000D02*
G01*
X94425000Y-119050000D01*
X94425000Y-117050000D01*
X94775000Y-117050000D01*
X94775000Y-119050000D01*
G37*
G36*
X104375000Y-119050000D02*
G01*
X104025000Y-119050000D01*
X104025000Y-117050000D01*
X104375000Y-117050000D01*
X104375000Y-119050000D01*
G37*
G36*
X100775000Y-119050000D02*
G01*
X100425000Y-119050000D01*
X100425000Y-117050000D01*
X100775000Y-117050000D01*
X100775000Y-119050000D01*
G37*
G36*
X100175000Y-119050000D02*
G01*
X99825000Y-119050000D01*
X99825000Y-117050000D01*
X100175000Y-117050000D01*
X100175000Y-119050000D01*
G37*
G36*
X99575000Y-119050000D02*
G01*
X99225000Y-119050000D01*
X99225000Y-117050000D01*
X99575000Y-117050000D01*
X99575000Y-119050000D01*
G37*
G36*
X98375000Y-119050000D02*
G01*
X98025000Y-119050000D01*
X98025000Y-117050000D01*
X98375000Y-117050000D01*
X98375000Y-119050000D01*
G37*
G36*
X95375000Y-119050000D02*
G01*
X95025000Y-119050000D01*
X95025000Y-117050000D01*
X95375000Y-117050000D01*
X95375000Y-119050000D01*
G37*
G36*
X95975000Y-119050000D02*
G01*
X95625000Y-119050000D01*
X95625000Y-117050000D01*
X95975000Y-117050000D01*
X95975000Y-119050000D01*
G37*
G36*
X96575000Y-119050000D02*
G01*
X96225000Y-119050000D01*
X96225000Y-117050000D01*
X96575000Y-117050000D01*
X96575000Y-119050000D01*
G37*
G36*
X97175000Y-119050000D02*
G01*
X96825000Y-119050000D01*
X96825000Y-117050000D01*
X97175000Y-117050000D01*
X97175000Y-119050000D01*
G37*
G36*
X97775000Y-119050000D02*
G01*
X97425000Y-119050000D01*
X97425000Y-117050000D01*
X97775000Y-117050000D01*
X97775000Y-119050000D01*
G37*
G36*
X98975000Y-119050000D02*
G01*
X98625000Y-119050000D01*
X98625000Y-117050000D01*
X98975000Y-117050000D01*
X98975000Y-119050000D01*
G37*
G36*
X125975000Y-100236141D02*
G01*
X120975000Y-100236141D01*
X120975000Y-96736141D01*
X125975000Y-96736141D01*
X125975000Y-100236141D01*
G37*
G36*
X79025000Y-100236141D02*
G01*
X74025000Y-100236141D01*
X74025000Y-96736141D01*
X79025000Y-96736141D01*
X79025000Y-100236141D01*
G37*
G36*
X61798127Y-96113042D02*
G01*
X61933365Y-96139942D01*
X62188149Y-96245477D01*
X62417448Y-96398690D01*
X62612451Y-96593693D01*
X62765664Y-96822992D01*
X62871199Y-97077776D01*
X62925000Y-97348253D01*
X62925000Y-97624029D01*
X62871199Y-97894506D01*
X62765664Y-98149290D01*
X62612451Y-98378589D01*
X62417448Y-98573592D01*
X62188149Y-98726805D01*
X61933365Y-98832340D01*
X61798127Y-98859240D01*
X61662889Y-98886141D01*
X61387111Y-98886141D01*
X61251874Y-98859241D01*
X61116635Y-98832340D01*
X60861851Y-98726805D01*
X60632552Y-98573592D01*
X60437549Y-98378589D01*
X60284336Y-98149290D01*
X60178801Y-97894506D01*
X60125000Y-97624029D01*
X60125000Y-97348253D01*
X60178801Y-97077776D01*
X60284336Y-96822992D01*
X60437549Y-96593693D01*
X60632552Y-96398690D01*
X60861851Y-96245477D01*
X61116635Y-96139942D01*
X61251873Y-96113042D01*
X61387111Y-96086141D01*
X61662889Y-96086141D01*
X61798127Y-96113042D01*
G37*
G36*
X138748127Y-96113042D02*
G01*
X138883365Y-96139942D01*
X139138149Y-96245477D01*
X139367448Y-96398690D01*
X139562451Y-96593693D01*
X139715664Y-96822992D01*
X139821199Y-97077776D01*
X139875000Y-97348253D01*
X139875000Y-97624029D01*
X139821199Y-97894506D01*
X139715664Y-98149290D01*
X139562451Y-98378589D01*
X139367448Y-98573592D01*
X139138149Y-98726805D01*
X138883365Y-98832340D01*
X138748127Y-98859240D01*
X138612889Y-98886141D01*
X138337111Y-98886141D01*
X138201874Y-98859241D01*
X138066635Y-98832340D01*
X137811851Y-98726805D01*
X137582552Y-98573592D01*
X137387549Y-98378589D01*
X137234336Y-98149290D01*
X137128801Y-97894506D01*
X137075000Y-97624029D01*
X137075000Y-97348253D01*
X137128801Y-97077776D01*
X137234336Y-96822992D01*
X137387549Y-96593693D01*
X137582552Y-96398690D01*
X137811851Y-96245477D01*
X138066635Y-96139942D01*
X138201873Y-96113042D01*
X138337111Y-96086141D01*
X138612889Y-96086141D01*
X138748127Y-96113042D01*
G37*
G36*
X99480570Y-94750570D02*
G01*
X97979430Y-94750570D01*
X97979430Y-93249430D01*
X99480570Y-93249430D01*
X99480570Y-94750570D01*
G37*
G36*
X102020570Y-94750570D02*
G01*
X100519430Y-94750570D01*
X100519430Y-93249430D01*
X102020570Y-93249430D01*
X102020570Y-94750570D01*
G37*
G36*
X138711907Y-91105837D02*
G01*
X138883365Y-91139942D01*
X139138149Y-91245477D01*
X139367448Y-91398690D01*
X139562451Y-91593693D01*
X139694695Y-91791610D01*
X139715665Y-91822994D01*
X139729660Y-91856781D01*
X139821199Y-92077776D01*
X139875000Y-92348253D01*
X139875000Y-92624029D01*
X139821199Y-92894506D01*
X139715664Y-93149290D01*
X139562451Y-93378589D01*
X139367448Y-93573592D01*
X139138149Y-93726805D01*
X138883365Y-93832340D01*
X138748126Y-93859241D01*
X138612889Y-93886141D01*
X138337111Y-93886141D01*
X138201874Y-93859241D01*
X138066635Y-93832340D01*
X137811851Y-93726805D01*
X137582552Y-93573592D01*
X137387549Y-93378589D01*
X137234336Y-93149290D01*
X137128801Y-92894506D01*
X137075000Y-92624029D01*
X137075000Y-92348253D01*
X137128801Y-92077776D01*
X137220340Y-91856781D01*
X137234335Y-91822994D01*
X137255305Y-91791610D01*
X137387549Y-91593693D01*
X137582552Y-91398690D01*
X137811851Y-91245477D01*
X138066635Y-91139942D01*
X138238093Y-91105837D01*
X138337111Y-91086141D01*
X138612889Y-91086141D01*
X138711907Y-91105837D01*
G37*
G36*
X61761907Y-91105837D02*
G01*
X61933365Y-91139942D01*
X62188149Y-91245477D01*
X62417448Y-91398690D01*
X62612451Y-91593693D01*
X62744695Y-91791610D01*
X62765665Y-91822994D01*
X62779660Y-91856781D01*
X62871199Y-92077776D01*
X62925000Y-92348253D01*
X62925000Y-92624029D01*
X62871199Y-92894506D01*
X62765664Y-93149290D01*
X62612451Y-93378589D01*
X62417448Y-93573592D01*
X62188149Y-93726805D01*
X61933365Y-93832340D01*
X61798126Y-93859241D01*
X61662889Y-93886141D01*
X61387111Y-93886141D01*
X61251874Y-93859241D01*
X61116635Y-93832340D01*
X60861851Y-93726805D01*
X60632552Y-93573592D01*
X60437549Y-93378589D01*
X60284336Y-93149290D01*
X60178801Y-92894506D01*
X60125000Y-92624029D01*
X60125000Y-92348253D01*
X60178801Y-92077776D01*
X60270340Y-91856781D01*
X60284335Y-91822994D01*
X60305305Y-91791610D01*
X60437549Y-91593693D01*
X60632552Y-91398690D01*
X60861851Y-91245477D01*
X61116635Y-91139942D01*
X61288093Y-91105837D01*
X61387111Y-91086141D01*
X61662889Y-91086141D01*
X61761907Y-91105837D01*
G37*
G36*
X125975000Y-93236141D02*
G01*
X120975000Y-93236141D01*
X120975000Y-89736141D01*
X125975000Y-89736141D01*
X125975000Y-93236141D01*
G37*
G36*
X79025000Y-93236141D02*
G01*
X74025000Y-93236141D01*
X74025000Y-89736141D01*
X79025000Y-89736141D01*
X79025000Y-93236141D01*
G37*
G36*
X101365116Y-91082595D02*
G01*
X101394311Y-91091452D01*
X101421223Y-91105837D01*
X101444808Y-91125192D01*
X101464163Y-91148777D01*
X101478548Y-91175689D01*
X101487405Y-91204884D01*
X101491000Y-91241390D01*
X101491000Y-91791610D01*
X101487405Y-91828116D01*
X101478548Y-91857311D01*
X101464163Y-91884223D01*
X101444808Y-91907808D01*
X101421223Y-91927163D01*
X101394311Y-91941548D01*
X101365116Y-91950405D01*
X101328610Y-91954000D01*
X100703390Y-91954000D01*
X100666884Y-91950405D01*
X100637689Y-91941548D01*
X100610777Y-91927163D01*
X100587192Y-91907808D01*
X100567837Y-91884223D01*
X100553452Y-91857311D01*
X100544595Y-91828116D01*
X100541000Y-91791610D01*
X100541000Y-91241390D01*
X100544595Y-91204884D01*
X100553452Y-91175689D01*
X100567837Y-91148777D01*
X100587192Y-91125192D01*
X100610777Y-91105837D01*
X100637689Y-91091452D01*
X100666884Y-91082595D01*
X100703390Y-91079000D01*
X101328610Y-91079000D01*
X101365116Y-91082595D01*
G37*
G36*
X99333116Y-91082595D02*
G01*
X99362311Y-91091452D01*
X99389223Y-91105837D01*
X99412808Y-91125192D01*
X99432163Y-91148777D01*
X99446548Y-91175689D01*
X99455405Y-91204884D01*
X99459000Y-91241390D01*
X99459000Y-91791610D01*
X99455405Y-91828116D01*
X99446548Y-91857311D01*
X99432163Y-91884223D01*
X99412808Y-91907808D01*
X99389223Y-91927163D01*
X99362311Y-91941548D01*
X99333116Y-91950405D01*
X99296610Y-91954000D01*
X98671390Y-91954000D01*
X98634884Y-91950405D01*
X98605689Y-91941548D01*
X98578777Y-91927163D01*
X98555192Y-91907808D01*
X98535837Y-91884223D01*
X98521452Y-91857311D01*
X98512595Y-91828116D01*
X98509000Y-91791610D01*
X98509000Y-91241390D01*
X98512595Y-91204884D01*
X98521452Y-91175689D01*
X98535837Y-91148777D01*
X98555192Y-91125192D01*
X98578777Y-91105837D01*
X98605689Y-91091452D01*
X98634884Y-91082595D01*
X98671390Y-91079000D01*
X99296610Y-91079000D01*
X99333116Y-91082595D01*
G37*
G36*
X69254570Y-91352570D02*
G01*
X67753430Y-91352570D01*
X67753430Y-89851430D01*
X69254570Y-89851430D01*
X69254570Y-91352570D01*
G37*
G36*
X99333116Y-89507595D02*
G01*
X99362311Y-89516452D01*
X99389223Y-89530837D01*
X99412808Y-89550192D01*
X99432163Y-89573777D01*
X99446548Y-89600689D01*
X99455405Y-89629884D01*
X99459000Y-89666390D01*
X99459000Y-90216610D01*
X99455405Y-90253116D01*
X99446548Y-90282311D01*
X99432163Y-90309223D01*
X99412808Y-90332808D01*
X99389223Y-90352163D01*
X99362311Y-90366548D01*
X99333116Y-90375405D01*
X99296610Y-90379000D01*
X98671390Y-90379000D01*
X98634884Y-90375405D01*
X98605689Y-90366548D01*
X98578777Y-90352163D01*
X98555192Y-90332808D01*
X98535837Y-90309223D01*
X98521452Y-90282311D01*
X98512595Y-90253116D01*
X98509000Y-90216610D01*
X98509000Y-89666390D01*
X98512595Y-89629884D01*
X98521452Y-89600689D01*
X98535837Y-89573777D01*
X98555192Y-89550192D01*
X98578777Y-89530837D01*
X98605689Y-89516452D01*
X98634884Y-89507595D01*
X98671390Y-89504000D01*
X99296610Y-89504000D01*
X99333116Y-89507595D01*
G37*
G36*
X101365116Y-89507595D02*
G01*
X101394311Y-89516452D01*
X101421223Y-89530837D01*
X101444808Y-89550192D01*
X101464163Y-89573777D01*
X101478548Y-89600689D01*
X101487405Y-89629884D01*
X101491000Y-89666390D01*
X101491000Y-90216610D01*
X101487405Y-90253116D01*
X101478548Y-90282311D01*
X101464163Y-90309223D01*
X101444808Y-90332808D01*
X101421223Y-90352163D01*
X101394311Y-90366548D01*
X101365116Y-90375405D01*
X101328610Y-90379000D01*
X100703390Y-90379000D01*
X100666884Y-90375405D01*
X100637689Y-90366548D01*
X100610777Y-90352163D01*
X100587192Y-90332808D01*
X100567837Y-90309223D01*
X100553452Y-90282311D01*
X100544595Y-90253116D01*
X100541000Y-90216610D01*
X100541000Y-89666390D01*
X100544595Y-89629884D01*
X100553452Y-89600689D01*
X100567837Y-89573777D01*
X100587192Y-89550192D01*
X100610777Y-89530837D01*
X100637689Y-89516452D01*
X100666884Y-89507595D01*
X100703390Y-89504000D01*
X101328610Y-89504000D01*
X101365116Y-89507595D01*
G37*
G36*
X84824391Y-88763075D02*
G01*
X84858279Y-88773355D01*
X84889512Y-88790050D01*
X84916886Y-88812514D01*
X84939350Y-88839888D01*
X84956045Y-88871121D01*
X84966325Y-88905009D01*
X84970400Y-88946388D01*
X84970400Y-89971612D01*
X84966325Y-90012991D01*
X84956045Y-90046879D01*
X84939350Y-90078112D01*
X84916886Y-90105486D01*
X84889512Y-90127950D01*
X84858279Y-90144645D01*
X84824391Y-90154925D01*
X84783012Y-90159000D01*
X84182788Y-90159000D01*
X84141409Y-90154925D01*
X84107521Y-90144645D01*
X84076288Y-90127950D01*
X84048914Y-90105486D01*
X84026450Y-90078112D01*
X84009755Y-90046879D01*
X83999475Y-90012991D01*
X83995400Y-89971612D01*
X83995400Y-88946388D01*
X83999475Y-88905009D01*
X84009755Y-88871121D01*
X84026450Y-88839888D01*
X84048914Y-88812514D01*
X84076288Y-88790050D01*
X84107521Y-88773355D01*
X84141409Y-88763075D01*
X84182788Y-88759000D01*
X84783012Y-88759000D01*
X84824391Y-88763075D01*
G37*
G36*
X86699391Y-88763075D02*
G01*
X86733279Y-88773355D01*
X86764512Y-88790050D01*
X86791886Y-88812514D01*
X86814350Y-88839888D01*
X86831045Y-88871121D01*
X86841325Y-88905009D01*
X86845400Y-88946388D01*
X86845400Y-89971612D01*
X86841325Y-90012991D01*
X86831045Y-90046879D01*
X86814350Y-90078112D01*
X86791886Y-90105486D01*
X86764512Y-90127950D01*
X86733279Y-90144645D01*
X86699391Y-90154925D01*
X86658012Y-90159000D01*
X86057788Y-90159000D01*
X86016409Y-90154925D01*
X85982521Y-90144645D01*
X85951288Y-90127950D01*
X85923914Y-90105486D01*
X85901450Y-90078112D01*
X85884755Y-90046879D01*
X85874475Y-90012991D01*
X85870400Y-89971612D01*
X85870400Y-88946388D01*
X85874475Y-88905009D01*
X85884755Y-88871121D01*
X85901450Y-88839888D01*
X85923914Y-88812514D01*
X85951288Y-88790050D01*
X85982521Y-88773355D01*
X86016409Y-88763075D01*
X86057788Y-88759000D01*
X86658012Y-88759000D01*
X86699391Y-88763075D01*
G37*
G36*
X81312316Y-88987595D02*
G01*
X81341511Y-88996452D01*
X81368423Y-89010837D01*
X81392008Y-89030192D01*
X81411363Y-89053777D01*
X81425748Y-89080689D01*
X81434605Y-89109884D01*
X81438200Y-89146390D01*
X81438200Y-89771610D01*
X81434605Y-89808116D01*
X81425748Y-89837311D01*
X81411363Y-89864223D01*
X81392008Y-89887808D01*
X81368423Y-89907163D01*
X81341511Y-89921548D01*
X81312316Y-89930405D01*
X81275810Y-89934000D01*
X80725590Y-89934000D01*
X80689084Y-89930405D01*
X80659889Y-89921548D01*
X80632977Y-89907163D01*
X80609392Y-89887808D01*
X80590037Y-89864223D01*
X80575652Y-89837311D01*
X80566795Y-89808116D01*
X80563200Y-89771610D01*
X80563200Y-89146390D01*
X80566795Y-89109884D01*
X80575652Y-89080689D01*
X80590037Y-89053777D01*
X80609392Y-89030192D01*
X80632977Y-89010837D01*
X80659889Y-88996452D01*
X80689084Y-88987595D01*
X80725590Y-88984000D01*
X81275810Y-88984000D01*
X81312316Y-88987595D01*
G37*
G36*
X82887316Y-88987595D02*
G01*
X82916511Y-88996452D01*
X82943423Y-89010837D01*
X82967008Y-89030192D01*
X82986363Y-89053777D01*
X83000748Y-89080689D01*
X83009605Y-89109884D01*
X83013200Y-89146390D01*
X83013200Y-89771610D01*
X83009605Y-89808116D01*
X83000748Y-89837311D01*
X82986363Y-89864223D01*
X82967008Y-89887808D01*
X82943423Y-89907163D01*
X82916511Y-89921548D01*
X82887316Y-89930405D01*
X82850810Y-89934000D01*
X82300590Y-89934000D01*
X82264084Y-89930405D01*
X82234889Y-89921548D01*
X82207977Y-89907163D01*
X82184392Y-89887808D01*
X82165037Y-89864223D01*
X82150652Y-89837311D01*
X82141795Y-89808116D01*
X82138200Y-89771610D01*
X82138200Y-89146390D01*
X82141795Y-89109884D01*
X82150652Y-89080689D01*
X82165037Y-89053777D01*
X82184392Y-89030192D01*
X82207977Y-89010837D01*
X82234889Y-88996452D01*
X82264084Y-88987595D01*
X82300590Y-88984000D01*
X82850810Y-88984000D01*
X82887316Y-88987595D01*
G37*
G36*
X68091116Y-88034595D02*
G01*
X68120311Y-88043452D01*
X68147223Y-88057837D01*
X68170808Y-88077192D01*
X68190163Y-88100777D01*
X68204548Y-88127689D01*
X68213405Y-88156884D01*
X68217000Y-88193390D01*
X68217000Y-88743610D01*
X68213405Y-88780116D01*
X68204548Y-88809311D01*
X68190163Y-88836223D01*
X68170808Y-88859808D01*
X68147223Y-88879163D01*
X68120311Y-88893548D01*
X68091116Y-88902405D01*
X68054610Y-88906000D01*
X67429390Y-88906000D01*
X67392884Y-88902405D01*
X67363689Y-88893548D01*
X67336777Y-88879163D01*
X67313192Y-88859808D01*
X67293837Y-88836223D01*
X67279452Y-88809311D01*
X67270595Y-88780116D01*
X67267000Y-88743610D01*
X67267000Y-88193390D01*
X67270595Y-88156884D01*
X67279452Y-88127689D01*
X67293837Y-88100777D01*
X67313192Y-88077192D01*
X67336777Y-88057837D01*
X67363689Y-88043452D01*
X67392884Y-88034595D01*
X67429390Y-88031000D01*
X68054610Y-88031000D01*
X68091116Y-88034595D01*
G37*
G36*
X69615116Y-88034595D02*
G01*
X69644311Y-88043452D01*
X69671223Y-88057837D01*
X69694808Y-88077192D01*
X69714163Y-88100777D01*
X69728548Y-88127689D01*
X69737405Y-88156884D01*
X69741000Y-88193390D01*
X69741000Y-88743610D01*
X69737405Y-88780116D01*
X69728548Y-88809311D01*
X69714163Y-88836223D01*
X69694808Y-88859808D01*
X69671223Y-88879163D01*
X69644311Y-88893548D01*
X69615116Y-88902405D01*
X69578610Y-88906000D01*
X68953390Y-88906000D01*
X68916884Y-88902405D01*
X68887689Y-88893548D01*
X68860777Y-88879163D01*
X68837192Y-88859808D01*
X68817837Y-88836223D01*
X68803452Y-88809311D01*
X68794595Y-88780116D01*
X68791000Y-88743610D01*
X68791000Y-88193390D01*
X68794595Y-88156884D01*
X68803452Y-88127689D01*
X68817837Y-88100777D01*
X68837192Y-88077192D01*
X68860777Y-88057837D01*
X68887689Y-88043452D01*
X68916884Y-88034595D01*
X68953390Y-88031000D01*
X69578610Y-88031000D01*
X69615116Y-88034595D01*
G37*
G36*
X71076116Y-87946195D02*
G01*
X71105311Y-87955052D01*
X71132223Y-87969437D01*
X71155808Y-87988792D01*
X71175163Y-88012377D01*
X71189548Y-88039289D01*
X71198405Y-88068484D01*
X71202000Y-88104990D01*
X71202000Y-88730210D01*
X71198405Y-88766716D01*
X71189548Y-88795911D01*
X71175163Y-88822823D01*
X71155808Y-88846408D01*
X71132223Y-88865763D01*
X71105311Y-88880148D01*
X71076116Y-88889005D01*
X71039610Y-88892600D01*
X70489390Y-88892600D01*
X70452884Y-88889005D01*
X70423689Y-88880148D01*
X70396777Y-88865763D01*
X70373192Y-88846408D01*
X70353837Y-88822823D01*
X70339452Y-88795911D01*
X70330595Y-88766716D01*
X70327000Y-88730210D01*
X70327000Y-88104990D01*
X70330595Y-88068484D01*
X70339452Y-88039289D01*
X70353837Y-88012377D01*
X70373192Y-87988792D01*
X70396777Y-87969437D01*
X70423689Y-87955052D01*
X70452884Y-87946195D01*
X70489390Y-87942600D01*
X71039610Y-87942600D01*
X71076116Y-87946195D01*
G37*
G36*
X75699116Y-87946195D02*
G01*
X75728311Y-87955052D01*
X75755223Y-87969437D01*
X75778808Y-87988792D01*
X75798163Y-88012377D01*
X75812548Y-88039289D01*
X75821405Y-88068484D01*
X75825000Y-88104990D01*
X75825000Y-88730210D01*
X75821405Y-88766716D01*
X75812548Y-88795911D01*
X75798163Y-88822823D01*
X75778808Y-88846408D01*
X75755223Y-88865763D01*
X75728311Y-88880148D01*
X75699116Y-88889005D01*
X75662610Y-88892600D01*
X75112390Y-88892600D01*
X75075884Y-88889005D01*
X75046689Y-88880148D01*
X75019777Y-88865763D01*
X74996192Y-88846408D01*
X74976837Y-88822823D01*
X74962452Y-88795911D01*
X74953595Y-88766716D01*
X74950000Y-88730210D01*
X74950000Y-88104990D01*
X74953595Y-88068484D01*
X74962452Y-88039289D01*
X74976837Y-88012377D01*
X74996192Y-87988792D01*
X75019777Y-87969437D01*
X75046689Y-87955052D01*
X75075884Y-87946195D01*
X75112390Y-87942600D01*
X75662610Y-87942600D01*
X75699116Y-87946195D01*
G37*
G36*
X72651116Y-87946195D02*
G01*
X72680311Y-87955052D01*
X72707223Y-87969437D01*
X72730808Y-87988792D01*
X72750163Y-88012377D01*
X72764548Y-88039289D01*
X72773405Y-88068484D01*
X72777000Y-88104990D01*
X72777000Y-88730210D01*
X72773405Y-88766716D01*
X72764548Y-88795911D01*
X72750163Y-88822823D01*
X72730808Y-88846408D01*
X72707223Y-88865763D01*
X72680311Y-88880148D01*
X72651116Y-88889005D01*
X72614610Y-88892600D01*
X72064390Y-88892600D01*
X72027884Y-88889005D01*
X71998689Y-88880148D01*
X71971777Y-88865763D01*
X71948192Y-88846408D01*
X71928837Y-88822823D01*
X71914452Y-88795911D01*
X71905595Y-88766716D01*
X71902000Y-88730210D01*
X71902000Y-88104990D01*
X71905595Y-88068484D01*
X71914452Y-88039289D01*
X71928837Y-88012377D01*
X71948192Y-87988792D01*
X71971777Y-87969437D01*
X71998689Y-87955052D01*
X72027884Y-87946195D01*
X72064390Y-87942600D01*
X72614610Y-87942600D01*
X72651116Y-87946195D01*
G37*
G36*
X74124116Y-87946195D02*
G01*
X74153311Y-87955052D01*
X74180223Y-87969437D01*
X74203808Y-87988792D01*
X74223163Y-88012377D01*
X74237548Y-88039289D01*
X74246405Y-88068484D01*
X74250000Y-88104990D01*
X74250000Y-88730210D01*
X74246405Y-88766716D01*
X74237548Y-88795911D01*
X74223163Y-88822823D01*
X74203808Y-88846408D01*
X74180223Y-88865763D01*
X74153311Y-88880148D01*
X74124116Y-88889005D01*
X74087610Y-88892600D01*
X73537390Y-88892600D01*
X73500884Y-88889005D01*
X73471689Y-88880148D01*
X73444777Y-88865763D01*
X73421192Y-88846408D01*
X73401837Y-88822823D01*
X73387452Y-88795911D01*
X73378595Y-88766716D01*
X73375000Y-88730210D01*
X73375000Y-88104990D01*
X73378595Y-88068484D01*
X73387452Y-88039289D01*
X73401837Y-88012377D01*
X73421192Y-87988792D01*
X73444777Y-87969437D01*
X73471689Y-87955052D01*
X73500884Y-87946195D01*
X73537390Y-87942600D01*
X74087610Y-87942600D01*
X74124116Y-87946195D01*
G37*
G36*
X77235116Y-87399595D02*
G01*
X77264311Y-87408452D01*
X77291223Y-87422837D01*
X77314808Y-87442192D01*
X77334163Y-87465777D01*
X77348548Y-87492689D01*
X77357405Y-87521884D01*
X77361000Y-87558390D01*
X77361000Y-88108610D01*
X77357405Y-88145116D01*
X77348548Y-88174311D01*
X77334163Y-88201223D01*
X77314808Y-88224808D01*
X77291223Y-88244163D01*
X77264311Y-88258548D01*
X77235116Y-88267405D01*
X77198610Y-88271000D01*
X76573390Y-88271000D01*
X76536884Y-88267405D01*
X76507689Y-88258548D01*
X76480777Y-88244163D01*
X76457192Y-88224808D01*
X76437837Y-88201223D01*
X76423452Y-88174311D01*
X76414595Y-88145116D01*
X76411000Y-88108610D01*
X76411000Y-87558390D01*
X76414595Y-87521884D01*
X76423452Y-87492689D01*
X76437837Y-87465777D01*
X76457192Y-87442192D01*
X76480777Y-87422837D01*
X76507689Y-87408452D01*
X76536884Y-87399595D01*
X76573390Y-87396000D01*
X77198610Y-87396000D01*
X77235116Y-87399595D01*
G37*
G36*
X87203771Y-81256594D02*
G01*
X87215392Y-81260119D01*
X87226087Y-81265836D01*
X87235467Y-81273533D01*
X87243164Y-81282913D01*
X87248881Y-81293608D01*
X87252406Y-81305229D01*
X87254200Y-81323441D01*
X87254200Y-81686159D01*
X87252406Y-81704371D01*
X87248881Y-81715992D01*
X87243164Y-81726687D01*
X87232576Y-81739590D01*
X87221666Y-81750498D01*
X87208052Y-81770872D01*
X87198674Y-81793511D01*
X87193892Y-81817544D01*
X87193892Y-81842048D01*
X87198671Y-81866081D01*
X87208048Y-81888721D01*
X87221661Y-81909095D01*
X87232572Y-81920006D01*
X87243164Y-81932913D01*
X87248881Y-81943608D01*
X87252406Y-81955229D01*
X87254200Y-81973441D01*
X87254200Y-82336159D01*
X87252406Y-82354371D01*
X87248881Y-82365992D01*
X87243164Y-82376687D01*
X87232576Y-82389590D01*
X87221666Y-82400498D01*
X87208052Y-82420872D01*
X87198674Y-82443511D01*
X87193892Y-82467544D01*
X87193892Y-82492048D01*
X87198671Y-82516081D01*
X87208048Y-82538721D01*
X87221661Y-82559095D01*
X87232572Y-82570006D01*
X87243164Y-82582913D01*
X87248881Y-82593608D01*
X87252406Y-82605229D01*
X87254200Y-82623441D01*
X87254200Y-82986159D01*
X87252406Y-83004371D01*
X87248881Y-83015992D01*
X87243164Y-83026687D01*
X87232576Y-83039590D01*
X87221666Y-83050498D01*
X87208052Y-83070872D01*
X87198674Y-83093511D01*
X87193892Y-83117544D01*
X87193892Y-83142048D01*
X87198671Y-83166081D01*
X87208048Y-83188721D01*
X87221661Y-83209095D01*
X87232572Y-83220006D01*
X87243164Y-83232913D01*
X87248881Y-83243608D01*
X87252406Y-83255229D01*
X87254200Y-83273441D01*
X87254200Y-83636159D01*
X87252406Y-83654371D01*
X87248881Y-83665992D01*
X87243164Y-83676687D01*
X87232576Y-83689590D01*
X87221666Y-83700498D01*
X87208052Y-83720872D01*
X87198674Y-83743511D01*
X87193892Y-83767544D01*
X87193892Y-83792048D01*
X87198671Y-83816081D01*
X87208048Y-83838721D01*
X87221661Y-83859095D01*
X87232572Y-83870006D01*
X87243164Y-83882913D01*
X87248881Y-83893608D01*
X87252406Y-83905229D01*
X87254200Y-83923441D01*
X87254200Y-84286159D01*
X87252406Y-84304371D01*
X87248881Y-84315992D01*
X87243164Y-84326687D01*
X87232576Y-84339590D01*
X87221666Y-84350498D01*
X87208052Y-84370872D01*
X87198674Y-84393511D01*
X87193892Y-84417544D01*
X87193892Y-84442048D01*
X87198671Y-84466081D01*
X87208048Y-84488721D01*
X87221661Y-84509095D01*
X87232572Y-84520006D01*
X87243164Y-84532913D01*
X87248881Y-84543608D01*
X87252406Y-84555229D01*
X87254200Y-84573441D01*
X87254200Y-84936159D01*
X87252406Y-84954371D01*
X87248881Y-84965992D01*
X87243164Y-84976687D01*
X87232576Y-84989590D01*
X87221666Y-85000498D01*
X87208052Y-85020872D01*
X87198674Y-85043511D01*
X87193892Y-85067544D01*
X87193892Y-85092048D01*
X87198671Y-85116081D01*
X87208048Y-85138721D01*
X87221661Y-85159095D01*
X87232572Y-85170006D01*
X87243164Y-85182913D01*
X87248881Y-85193608D01*
X87252406Y-85205229D01*
X87254200Y-85223441D01*
X87254200Y-85586159D01*
X87252406Y-85604371D01*
X87248881Y-85615992D01*
X87243164Y-85626687D01*
X87232576Y-85639590D01*
X87221666Y-85650498D01*
X87208052Y-85670872D01*
X87198674Y-85693511D01*
X87193892Y-85717544D01*
X87193892Y-85742048D01*
X87198671Y-85766081D01*
X87208048Y-85788721D01*
X87221661Y-85809095D01*
X87232572Y-85820006D01*
X87243164Y-85832913D01*
X87248881Y-85843608D01*
X87252406Y-85855229D01*
X87254200Y-85873441D01*
X87254200Y-86236159D01*
X87252406Y-86254371D01*
X87248881Y-86265992D01*
X87243164Y-86276687D01*
X87232576Y-86289590D01*
X87221666Y-86300498D01*
X87208052Y-86320872D01*
X87198674Y-86343511D01*
X87193892Y-86367544D01*
X87193892Y-86392048D01*
X87198671Y-86416081D01*
X87208048Y-86438721D01*
X87221661Y-86459095D01*
X87232572Y-86470006D01*
X87243164Y-86482913D01*
X87248881Y-86493608D01*
X87252406Y-86505229D01*
X87254200Y-86523441D01*
X87254200Y-86886159D01*
X87252406Y-86904371D01*
X87248881Y-86915992D01*
X87243164Y-86926687D01*
X87232576Y-86939590D01*
X87221666Y-86950498D01*
X87208052Y-86970872D01*
X87198674Y-86993511D01*
X87193892Y-87017544D01*
X87193892Y-87042048D01*
X87198671Y-87066081D01*
X87208048Y-87088721D01*
X87221661Y-87109095D01*
X87232572Y-87120006D01*
X87243164Y-87132913D01*
X87248881Y-87143608D01*
X87252406Y-87155229D01*
X87254200Y-87173441D01*
X87254200Y-87536159D01*
X87252406Y-87554371D01*
X87248881Y-87565992D01*
X87243164Y-87576687D01*
X87235467Y-87586067D01*
X87226087Y-87593764D01*
X87215392Y-87599481D01*
X87203771Y-87603006D01*
X87185559Y-87604800D01*
X85422841Y-87604800D01*
X85404629Y-87603006D01*
X85393008Y-87599481D01*
X85382313Y-87593764D01*
X85372933Y-87586067D01*
X85365236Y-87576687D01*
X85359519Y-87565992D01*
X85355994Y-87554371D01*
X85354200Y-87536159D01*
X85354200Y-87173441D01*
X85355994Y-87155229D01*
X85359519Y-87143608D01*
X85365236Y-87132913D01*
X85375824Y-87120010D01*
X85386734Y-87109102D01*
X85400348Y-87088728D01*
X85409726Y-87066089D01*
X85414508Y-87042056D01*
X85414508Y-87017552D01*
X85409729Y-86993519D01*
X85400352Y-86970879D01*
X85386739Y-86950505D01*
X85375828Y-86939594D01*
X85365236Y-86926687D01*
X85359519Y-86915992D01*
X85355994Y-86904371D01*
X85354200Y-86886159D01*
X85354200Y-86523441D01*
X85355994Y-86505229D01*
X85359519Y-86493608D01*
X85365236Y-86482913D01*
X85375824Y-86470010D01*
X85386734Y-86459102D01*
X85400348Y-86438728D01*
X85409726Y-86416089D01*
X85414508Y-86392056D01*
X85414508Y-86367552D01*
X85409729Y-86343519D01*
X85400352Y-86320879D01*
X85386739Y-86300505D01*
X85375828Y-86289594D01*
X85365236Y-86276687D01*
X85359519Y-86265992D01*
X85355994Y-86254371D01*
X85354200Y-86236159D01*
X85354200Y-85873441D01*
X85355994Y-85855229D01*
X85359519Y-85843608D01*
X85365236Y-85832913D01*
X85375824Y-85820010D01*
X85386734Y-85809102D01*
X85400348Y-85788728D01*
X85409726Y-85766089D01*
X85414508Y-85742056D01*
X85414508Y-85717552D01*
X85409729Y-85693519D01*
X85400352Y-85670879D01*
X85386739Y-85650505D01*
X85375828Y-85639594D01*
X85365236Y-85626687D01*
X85359519Y-85615992D01*
X85355994Y-85604371D01*
X85354200Y-85586159D01*
X85354200Y-85223441D01*
X85355994Y-85205229D01*
X85359519Y-85193608D01*
X85365236Y-85182913D01*
X85375824Y-85170010D01*
X85386734Y-85159102D01*
X85400348Y-85138728D01*
X85409726Y-85116089D01*
X85414508Y-85092056D01*
X85414508Y-85067552D01*
X85409729Y-85043519D01*
X85400352Y-85020879D01*
X85386739Y-85000505D01*
X85375828Y-84989594D01*
X85365236Y-84976687D01*
X85359519Y-84965992D01*
X85355994Y-84954371D01*
X85354200Y-84936159D01*
X85354200Y-84573441D01*
X85355994Y-84555229D01*
X85359519Y-84543608D01*
X85365236Y-84532913D01*
X85375824Y-84520010D01*
X85386734Y-84509102D01*
X85400348Y-84488728D01*
X85409726Y-84466089D01*
X85414508Y-84442056D01*
X85414508Y-84417552D01*
X85409729Y-84393519D01*
X85400352Y-84370879D01*
X85386739Y-84350505D01*
X85375828Y-84339594D01*
X85365236Y-84326687D01*
X85359519Y-84315992D01*
X85355994Y-84304371D01*
X85354200Y-84286159D01*
X85354200Y-83923441D01*
X85355994Y-83905229D01*
X85359519Y-83893608D01*
X85365236Y-83882913D01*
X85375824Y-83870010D01*
X85386734Y-83859102D01*
X85400348Y-83838728D01*
X85409726Y-83816089D01*
X85414508Y-83792056D01*
X85414508Y-83767552D01*
X85409729Y-83743519D01*
X85400352Y-83720879D01*
X85386739Y-83700505D01*
X85375828Y-83689594D01*
X85365236Y-83676687D01*
X85359519Y-83665992D01*
X85355994Y-83654371D01*
X85354200Y-83636159D01*
X85354200Y-83273441D01*
X85355994Y-83255229D01*
X85359519Y-83243608D01*
X85365236Y-83232913D01*
X85375824Y-83220010D01*
X85386734Y-83209102D01*
X85400348Y-83188728D01*
X85409726Y-83166089D01*
X85414508Y-83142056D01*
X85414508Y-83117552D01*
X85409729Y-83093519D01*
X85400352Y-83070879D01*
X85386739Y-83050505D01*
X85375828Y-83039594D01*
X85365236Y-83026687D01*
X85359519Y-83015992D01*
X85355994Y-83004371D01*
X85354200Y-82986159D01*
X85354200Y-82623441D01*
X85355994Y-82605229D01*
X85359519Y-82593608D01*
X85365236Y-82582913D01*
X85375824Y-82570010D01*
X85386734Y-82559102D01*
X85400348Y-82538728D01*
X85409726Y-82516089D01*
X85414508Y-82492056D01*
X85414508Y-82467552D01*
X85409729Y-82443519D01*
X85400352Y-82420879D01*
X85386739Y-82400505D01*
X85375828Y-82389594D01*
X85365236Y-82376687D01*
X85359519Y-82365992D01*
X85355994Y-82354371D01*
X85354200Y-82336159D01*
X85354200Y-81973441D01*
X85355994Y-81955229D01*
X85359519Y-81943608D01*
X85365236Y-81932913D01*
X85375824Y-81920010D01*
X85386734Y-81909102D01*
X85400348Y-81888728D01*
X85409726Y-81866089D01*
X85414508Y-81842056D01*
X85414508Y-81817552D01*
X85409729Y-81793519D01*
X85400352Y-81770879D01*
X85386739Y-81750505D01*
X85375828Y-81739594D01*
X85365236Y-81726687D01*
X85359519Y-81715992D01*
X85355994Y-81704371D01*
X85354200Y-81686159D01*
X85354200Y-81323441D01*
X85355994Y-81305229D01*
X85359519Y-81293608D01*
X85365236Y-81282913D01*
X85372933Y-81273533D01*
X85382313Y-81265836D01*
X85393008Y-81260119D01*
X85404629Y-81256594D01*
X85422841Y-81254800D01*
X87185559Y-81254800D01*
X87203771Y-81256594D01*
G37*
G36*
X80203771Y-81256594D02*
G01*
X80215392Y-81260119D01*
X80226087Y-81265836D01*
X80235467Y-81273533D01*
X80243164Y-81282913D01*
X80248881Y-81293608D01*
X80252406Y-81305229D01*
X80254200Y-81323441D01*
X80254200Y-81686159D01*
X80252406Y-81704371D01*
X80248881Y-81715992D01*
X80243164Y-81726687D01*
X80232576Y-81739590D01*
X80221666Y-81750498D01*
X80208052Y-81770872D01*
X80198674Y-81793511D01*
X80193892Y-81817544D01*
X80193892Y-81842048D01*
X80198671Y-81866081D01*
X80208048Y-81888721D01*
X80221661Y-81909095D01*
X80232572Y-81920006D01*
X80243164Y-81932913D01*
X80248881Y-81943608D01*
X80252406Y-81955229D01*
X80254200Y-81973441D01*
X80254200Y-82336159D01*
X80252406Y-82354371D01*
X80248881Y-82365992D01*
X80243164Y-82376687D01*
X80232576Y-82389590D01*
X80221666Y-82400498D01*
X80208052Y-82420872D01*
X80198674Y-82443511D01*
X80193892Y-82467544D01*
X80193892Y-82492048D01*
X80198671Y-82516081D01*
X80208048Y-82538721D01*
X80221661Y-82559095D01*
X80232572Y-82570006D01*
X80243164Y-82582913D01*
X80248881Y-82593608D01*
X80252406Y-82605229D01*
X80254200Y-82623441D01*
X80254200Y-82986159D01*
X80252406Y-83004371D01*
X80248881Y-83015992D01*
X80243164Y-83026687D01*
X80232576Y-83039590D01*
X80221666Y-83050498D01*
X80208052Y-83070872D01*
X80198674Y-83093511D01*
X80193892Y-83117544D01*
X80193892Y-83142048D01*
X80198671Y-83166081D01*
X80208048Y-83188721D01*
X80221661Y-83209095D01*
X80232572Y-83220006D01*
X80243164Y-83232913D01*
X80248881Y-83243608D01*
X80252406Y-83255229D01*
X80254200Y-83273441D01*
X80254200Y-83636159D01*
X80252406Y-83654371D01*
X80248881Y-83665992D01*
X80243164Y-83676687D01*
X80232576Y-83689590D01*
X80221666Y-83700498D01*
X80208052Y-83720872D01*
X80198674Y-83743511D01*
X80193892Y-83767544D01*
X80193892Y-83792048D01*
X80198671Y-83816081D01*
X80208048Y-83838721D01*
X80221661Y-83859095D01*
X80232572Y-83870006D01*
X80243164Y-83882913D01*
X80248881Y-83893608D01*
X80252406Y-83905229D01*
X80254200Y-83923441D01*
X80254200Y-84286159D01*
X80252406Y-84304371D01*
X80248881Y-84315992D01*
X80243164Y-84326687D01*
X80232576Y-84339590D01*
X80221666Y-84350498D01*
X80208052Y-84370872D01*
X80198674Y-84393511D01*
X80193892Y-84417544D01*
X80193892Y-84442048D01*
X80198671Y-84466081D01*
X80208048Y-84488721D01*
X80221661Y-84509095D01*
X80232572Y-84520006D01*
X80243164Y-84532913D01*
X80248881Y-84543608D01*
X80252406Y-84555229D01*
X80254200Y-84573441D01*
X80254200Y-84936159D01*
X80252406Y-84954371D01*
X80248881Y-84965992D01*
X80243164Y-84976687D01*
X80232576Y-84989590D01*
X80221666Y-85000498D01*
X80208052Y-85020872D01*
X80198674Y-85043511D01*
X80193892Y-85067544D01*
X80193892Y-85092048D01*
X80198671Y-85116081D01*
X80208048Y-85138721D01*
X80221661Y-85159095D01*
X80232572Y-85170006D01*
X80243164Y-85182913D01*
X80248881Y-85193608D01*
X80252406Y-85205229D01*
X80254200Y-85223441D01*
X80254200Y-85586159D01*
X80252406Y-85604371D01*
X80248881Y-85615992D01*
X80243164Y-85626687D01*
X80232576Y-85639590D01*
X80221666Y-85650498D01*
X80208052Y-85670872D01*
X80198674Y-85693511D01*
X80193892Y-85717544D01*
X80193892Y-85742048D01*
X80198671Y-85766081D01*
X80208048Y-85788721D01*
X80221661Y-85809095D01*
X80232572Y-85820006D01*
X80243164Y-85832913D01*
X80248881Y-85843608D01*
X80252406Y-85855229D01*
X80254200Y-85873441D01*
X80254200Y-86236159D01*
X80252406Y-86254371D01*
X80248881Y-86265992D01*
X80243164Y-86276687D01*
X80232576Y-86289590D01*
X80221666Y-86300498D01*
X80208052Y-86320872D01*
X80198674Y-86343511D01*
X80193892Y-86367544D01*
X80193892Y-86392048D01*
X80198671Y-86416081D01*
X80208048Y-86438721D01*
X80221661Y-86459095D01*
X80232572Y-86470006D01*
X80243164Y-86482913D01*
X80248881Y-86493608D01*
X80252406Y-86505229D01*
X80254200Y-86523441D01*
X80254200Y-86886159D01*
X80252406Y-86904371D01*
X80248881Y-86915992D01*
X80243164Y-86926687D01*
X80232576Y-86939590D01*
X80221666Y-86950498D01*
X80208052Y-86970872D01*
X80198674Y-86993511D01*
X80193892Y-87017544D01*
X80193892Y-87042048D01*
X80198671Y-87066081D01*
X80208048Y-87088721D01*
X80221661Y-87109095D01*
X80232572Y-87120006D01*
X80243164Y-87132913D01*
X80248881Y-87143608D01*
X80252406Y-87155229D01*
X80254200Y-87173441D01*
X80254200Y-87536159D01*
X80252406Y-87554371D01*
X80248881Y-87565992D01*
X80243164Y-87576687D01*
X80235467Y-87586067D01*
X80226087Y-87593764D01*
X80215392Y-87599481D01*
X80203771Y-87603006D01*
X80185559Y-87604800D01*
X78422841Y-87604800D01*
X78404629Y-87603006D01*
X78393008Y-87599481D01*
X78382313Y-87593764D01*
X78372933Y-87586067D01*
X78365236Y-87576687D01*
X78359519Y-87565992D01*
X78355994Y-87554371D01*
X78354200Y-87536159D01*
X78354200Y-87173441D01*
X78355994Y-87155229D01*
X78359519Y-87143608D01*
X78365236Y-87132913D01*
X78375824Y-87120010D01*
X78386734Y-87109102D01*
X78400348Y-87088728D01*
X78409726Y-87066089D01*
X78414508Y-87042056D01*
X78414508Y-87017552D01*
X78409729Y-86993519D01*
X78400352Y-86970879D01*
X78386739Y-86950505D01*
X78375828Y-86939594D01*
X78365236Y-86926687D01*
X78359519Y-86915992D01*
X78355994Y-86904371D01*
X78354200Y-86886159D01*
X78354200Y-86523441D01*
X78355994Y-86505229D01*
X78359519Y-86493608D01*
X78365236Y-86482913D01*
X78375824Y-86470010D01*
X78386734Y-86459102D01*
X78400348Y-86438728D01*
X78409726Y-86416089D01*
X78414508Y-86392056D01*
X78414508Y-86367552D01*
X78409729Y-86343519D01*
X78400352Y-86320879D01*
X78386739Y-86300505D01*
X78375828Y-86289594D01*
X78365236Y-86276687D01*
X78359519Y-86265992D01*
X78355994Y-86254371D01*
X78354200Y-86236159D01*
X78354200Y-85873441D01*
X78355994Y-85855229D01*
X78359519Y-85843608D01*
X78365236Y-85832913D01*
X78375824Y-85820010D01*
X78386734Y-85809102D01*
X78400348Y-85788728D01*
X78409726Y-85766089D01*
X78414508Y-85742056D01*
X78414508Y-85717552D01*
X78409729Y-85693519D01*
X78400352Y-85670879D01*
X78386739Y-85650505D01*
X78375828Y-85639594D01*
X78365236Y-85626687D01*
X78359519Y-85615992D01*
X78355994Y-85604371D01*
X78354200Y-85586159D01*
X78354200Y-85223441D01*
X78355994Y-85205229D01*
X78359519Y-85193608D01*
X78365236Y-85182913D01*
X78375824Y-85170010D01*
X78386734Y-85159102D01*
X78400348Y-85138728D01*
X78409726Y-85116089D01*
X78414508Y-85092056D01*
X78414508Y-85067552D01*
X78409729Y-85043519D01*
X78400352Y-85020879D01*
X78386739Y-85000505D01*
X78375828Y-84989594D01*
X78365236Y-84976687D01*
X78359519Y-84965992D01*
X78355994Y-84954371D01*
X78354200Y-84936159D01*
X78354200Y-84573441D01*
X78355994Y-84555229D01*
X78359519Y-84543608D01*
X78365236Y-84532913D01*
X78375824Y-84520010D01*
X78386734Y-84509102D01*
X78400348Y-84488728D01*
X78409726Y-84466089D01*
X78414508Y-84442056D01*
X78414508Y-84417552D01*
X78409729Y-84393519D01*
X78400352Y-84370879D01*
X78386739Y-84350505D01*
X78375828Y-84339594D01*
X78365236Y-84326687D01*
X78359519Y-84315992D01*
X78355994Y-84304371D01*
X78354200Y-84286159D01*
X78354200Y-83923441D01*
X78355994Y-83905229D01*
X78359519Y-83893608D01*
X78365236Y-83882913D01*
X78375824Y-83870010D01*
X78386734Y-83859102D01*
X78400348Y-83838728D01*
X78409726Y-83816089D01*
X78414508Y-83792056D01*
X78414508Y-83767552D01*
X78409729Y-83743519D01*
X78400352Y-83720879D01*
X78386739Y-83700505D01*
X78375828Y-83689594D01*
X78365236Y-83676687D01*
X78359519Y-83665992D01*
X78355994Y-83654371D01*
X78354200Y-83636159D01*
X78354200Y-83273441D01*
X78355994Y-83255229D01*
X78359519Y-83243608D01*
X78365236Y-83232913D01*
X78375824Y-83220010D01*
X78386734Y-83209102D01*
X78400348Y-83188728D01*
X78409726Y-83166089D01*
X78414508Y-83142056D01*
X78414508Y-83117552D01*
X78409729Y-83093519D01*
X78400352Y-83070879D01*
X78386739Y-83050505D01*
X78375828Y-83039594D01*
X78365236Y-83026687D01*
X78359519Y-83015992D01*
X78355994Y-83004371D01*
X78354200Y-82986159D01*
X78354200Y-82623441D01*
X78355994Y-82605229D01*
X78359519Y-82593608D01*
X78365236Y-82582913D01*
X78375824Y-82570010D01*
X78386734Y-82559102D01*
X78400348Y-82538728D01*
X78409726Y-82516089D01*
X78414508Y-82492056D01*
X78414508Y-82467552D01*
X78409729Y-82443519D01*
X78400352Y-82420879D01*
X78386739Y-82400505D01*
X78375828Y-82389594D01*
X78365236Y-82376687D01*
X78359519Y-82365992D01*
X78355994Y-82354371D01*
X78354200Y-82336159D01*
X78354200Y-81973441D01*
X78355994Y-81955229D01*
X78359519Y-81943608D01*
X78365236Y-81932913D01*
X78375824Y-81920010D01*
X78386734Y-81909102D01*
X78400348Y-81888728D01*
X78409726Y-81866089D01*
X78414508Y-81842056D01*
X78414508Y-81817552D01*
X78409729Y-81793519D01*
X78400352Y-81770879D01*
X78386739Y-81750505D01*
X78375828Y-81739594D01*
X78365236Y-81726687D01*
X78359519Y-81715992D01*
X78355994Y-81704371D01*
X78354200Y-81686159D01*
X78354200Y-81323441D01*
X78355994Y-81305229D01*
X78359519Y-81293608D01*
X78365236Y-81282913D01*
X78372933Y-81273533D01*
X78382313Y-81265836D01*
X78393008Y-81260119D01*
X78404629Y-81256594D01*
X78422841Y-81254800D01*
X80185559Y-81254800D01*
X80203771Y-81256594D01*
G37*
G36*
X69615116Y-86459595D02*
G01*
X69644311Y-86468452D01*
X69671223Y-86482837D01*
X69694808Y-86502192D01*
X69714163Y-86525777D01*
X69728548Y-86552689D01*
X69737405Y-86581884D01*
X69741000Y-86618390D01*
X69741000Y-87168610D01*
X69737405Y-87205116D01*
X69728548Y-87234311D01*
X69714163Y-87261223D01*
X69694808Y-87284808D01*
X69671223Y-87304163D01*
X69644311Y-87318548D01*
X69615116Y-87327405D01*
X69578610Y-87331000D01*
X68953390Y-87331000D01*
X68916884Y-87327405D01*
X68887689Y-87318548D01*
X68860777Y-87304163D01*
X68837192Y-87284808D01*
X68817837Y-87261223D01*
X68803452Y-87234311D01*
X68794595Y-87205116D01*
X68791000Y-87168610D01*
X68791000Y-86618390D01*
X68794595Y-86581884D01*
X68803452Y-86552689D01*
X68817837Y-86525777D01*
X68837192Y-86502192D01*
X68860777Y-86482837D01*
X68887689Y-86468452D01*
X68916884Y-86459595D01*
X68953390Y-86456000D01*
X69578610Y-86456000D01*
X69615116Y-86459595D01*
G37*
G36*
X68091116Y-86459595D02*
G01*
X68120311Y-86468452D01*
X68147223Y-86482837D01*
X68170808Y-86502192D01*
X68190163Y-86525777D01*
X68204548Y-86552689D01*
X68213405Y-86581884D01*
X68217000Y-86618390D01*
X68217000Y-87168610D01*
X68213405Y-87205116D01*
X68204548Y-87234311D01*
X68190163Y-87261223D01*
X68170808Y-87284808D01*
X68147223Y-87304163D01*
X68120311Y-87318548D01*
X68091116Y-87327405D01*
X68054610Y-87331000D01*
X67429390Y-87331000D01*
X67392884Y-87327405D01*
X67363689Y-87318548D01*
X67336777Y-87304163D01*
X67313192Y-87284808D01*
X67293837Y-87261223D01*
X67279452Y-87234311D01*
X67270595Y-87205116D01*
X67267000Y-87168610D01*
X67267000Y-86618390D01*
X67270595Y-86581884D01*
X67279452Y-86552689D01*
X67293837Y-86525777D01*
X67313192Y-86502192D01*
X67336777Y-86482837D01*
X67363689Y-86468452D01*
X67392884Y-86459595D01*
X67429390Y-86456000D01*
X68054610Y-86456000D01*
X68091116Y-86459595D01*
G37*
G36*
X115736570Y-86780570D02*
G01*
X114235430Y-86780570D01*
X114235430Y-85279430D01*
X115736570Y-85279430D01*
X115736570Y-86780570D01*
G37*
G36*
X74215000Y-86714000D02*
G01*
X72445000Y-86714000D01*
X72445000Y-86164000D01*
X74215000Y-86164000D01*
X74215000Y-86714000D01*
G37*
G36*
X77235116Y-85824595D02*
G01*
X77264311Y-85833452D01*
X77291223Y-85847837D01*
X77314808Y-85867192D01*
X77334163Y-85890777D01*
X77348548Y-85917689D01*
X77357405Y-85946884D01*
X77361000Y-85983390D01*
X77361000Y-86533610D01*
X77357405Y-86570116D01*
X77348548Y-86599311D01*
X77334163Y-86626223D01*
X77314808Y-86649808D01*
X77291223Y-86669163D01*
X77264311Y-86683548D01*
X77235116Y-86692405D01*
X77198610Y-86696000D01*
X76573390Y-86696000D01*
X76536884Y-86692405D01*
X76507689Y-86683548D01*
X76480777Y-86669163D01*
X76457192Y-86649808D01*
X76437837Y-86626223D01*
X76423452Y-86599311D01*
X76414595Y-86570116D01*
X76411000Y-86533610D01*
X76411000Y-85983390D01*
X76414595Y-85946884D01*
X76423452Y-85917689D01*
X76437837Y-85890777D01*
X76457192Y-85867192D01*
X76480777Y-85847837D01*
X76507689Y-85833452D01*
X76536884Y-85824595D01*
X76573390Y-85821000D01*
X77198610Y-85821000D01*
X77235116Y-85824595D01*
G37*
G36*
X74230000Y-85914000D02*
G01*
X72430000Y-85914000D01*
X72430000Y-84114000D01*
X74230000Y-84114000D01*
X74230000Y-85914000D01*
G37*
G36*
X75030000Y-85899000D02*
G01*
X74480000Y-85899000D01*
X74480000Y-84129000D01*
X75030000Y-84129000D01*
X75030000Y-85899000D01*
G37*
G36*
X72180000Y-85899000D02*
G01*
X71630000Y-85899000D01*
X71630000Y-84629000D01*
X72180000Y-84629000D01*
X72180000Y-85899000D01*
G37*
G36*
X70250116Y-84986595D02*
G01*
X70279311Y-84995452D01*
X70306223Y-85009837D01*
X70329808Y-85029192D01*
X70349163Y-85052777D01*
X70363548Y-85079689D01*
X70372405Y-85108884D01*
X70376000Y-85145390D01*
X70376000Y-85695610D01*
X70372405Y-85732116D01*
X70363548Y-85761311D01*
X70349163Y-85788223D01*
X70329808Y-85811808D01*
X70306223Y-85831163D01*
X70279311Y-85845548D01*
X70250116Y-85854405D01*
X70213610Y-85858000D01*
X69588390Y-85858000D01*
X69551884Y-85854405D01*
X69522689Y-85845548D01*
X69495777Y-85831163D01*
X69472192Y-85811808D01*
X69452837Y-85788223D01*
X69438452Y-85761311D01*
X69429595Y-85732116D01*
X69426000Y-85695610D01*
X69426000Y-85145390D01*
X69429595Y-85108884D01*
X69438452Y-85079689D01*
X69452837Y-85052777D01*
X69472192Y-85029192D01*
X69495777Y-85009837D01*
X69522689Y-84995452D01*
X69551884Y-84986595D01*
X69588390Y-84983000D01*
X70213610Y-84983000D01*
X70250116Y-84986595D01*
G37*
G36*
X77235116Y-84224595D02*
G01*
X77264311Y-84233452D01*
X77291223Y-84247837D01*
X77314808Y-84267192D01*
X77334163Y-84290777D01*
X77348548Y-84317689D01*
X77357405Y-84346884D01*
X77361000Y-84383390D01*
X77361000Y-84933610D01*
X77357405Y-84970116D01*
X77348548Y-84999311D01*
X77334163Y-85026223D01*
X77314808Y-85049808D01*
X77291223Y-85069163D01*
X77264311Y-85083548D01*
X77235116Y-85092405D01*
X77198610Y-85096000D01*
X76573390Y-85096000D01*
X76536884Y-85092405D01*
X76507689Y-85083548D01*
X76480777Y-85069163D01*
X76457192Y-85049808D01*
X76437837Y-85026223D01*
X76423452Y-84999311D01*
X76414595Y-84970116D01*
X76411000Y-84933610D01*
X76411000Y-84383390D01*
X76414595Y-84346884D01*
X76423452Y-84317689D01*
X76437837Y-84290777D01*
X76457192Y-84267192D01*
X76480777Y-84247837D01*
X76507689Y-84233452D01*
X76536884Y-84224595D01*
X76573390Y-84221000D01*
X77198610Y-84221000D01*
X77235116Y-84224595D01*
G37*
G36*
X72180000Y-84349000D02*
G01*
X71630000Y-84349000D01*
X71630000Y-84079000D01*
X72180000Y-84079000D01*
X72180000Y-84349000D01*
G37*
G36*
X70250116Y-83411595D02*
G01*
X70279311Y-83420452D01*
X70306223Y-83434837D01*
X70329808Y-83454192D01*
X70349163Y-83477777D01*
X70363548Y-83504689D01*
X70372405Y-83533884D01*
X70376000Y-83570390D01*
X70376000Y-84120610D01*
X70372405Y-84157116D01*
X70363548Y-84186311D01*
X70349163Y-84213223D01*
X70329808Y-84236808D01*
X70306223Y-84256163D01*
X70279311Y-84270548D01*
X70250116Y-84279405D01*
X70213610Y-84283000D01*
X69588390Y-84283000D01*
X69551884Y-84279405D01*
X69522689Y-84270548D01*
X69495777Y-84256163D01*
X69472192Y-84236808D01*
X69452837Y-84213223D01*
X69438452Y-84186311D01*
X69429595Y-84157116D01*
X69426000Y-84120610D01*
X69426000Y-83570390D01*
X69429595Y-83533884D01*
X69438452Y-83504689D01*
X69452837Y-83477777D01*
X69472192Y-83454192D01*
X69495777Y-83434837D01*
X69522689Y-83420452D01*
X69551884Y-83411595D01*
X69588390Y-83408000D01*
X70213610Y-83408000D01*
X70250116Y-83411595D01*
G37*
G36*
X115736570Y-84240570D02*
G01*
X114235430Y-84240570D01*
X114235430Y-82739430D01*
X115736570Y-82739430D01*
X115736570Y-84240570D01*
G37*
G36*
X74215000Y-83864000D02*
G01*
X72445000Y-83864000D01*
X72445000Y-83314000D01*
X74215000Y-83314000D01*
X74215000Y-83864000D01*
G37*
G36*
X77235116Y-82649595D02*
G01*
X77264311Y-82658452D01*
X77291223Y-82672837D01*
X77314808Y-82692192D01*
X77334163Y-82715777D01*
X77348548Y-82742689D01*
X77357405Y-82771884D01*
X77361000Y-82808390D01*
X77361000Y-83358610D01*
X77357405Y-83395116D01*
X77348548Y-83424311D01*
X77334163Y-83451223D01*
X77314808Y-83474808D01*
X77291223Y-83494163D01*
X77264311Y-83508548D01*
X77235116Y-83517405D01*
X77198610Y-83521000D01*
X76573390Y-83521000D01*
X76536884Y-83517405D01*
X76507689Y-83508548D01*
X76480777Y-83494163D01*
X76457192Y-83474808D01*
X76437837Y-83451223D01*
X76423452Y-83424311D01*
X76414595Y-83395116D01*
X76411000Y-83358610D01*
X76411000Y-82808390D01*
X76414595Y-82771884D01*
X76423452Y-82742689D01*
X76437837Y-82715777D01*
X76457192Y-82692192D01*
X76480777Y-82672837D01*
X76507689Y-82658452D01*
X76536884Y-82649595D01*
X76573390Y-82646000D01*
X77198610Y-82646000D01*
X77235116Y-82649595D01*
G37*
G36*
X72473116Y-80834195D02*
G01*
X72502311Y-80843052D01*
X72529223Y-80857437D01*
X72552808Y-80876792D01*
X72572163Y-80900377D01*
X72586548Y-80927289D01*
X72595405Y-80956484D01*
X72599000Y-80992990D01*
X72599000Y-81618210D01*
X72595405Y-81654716D01*
X72586548Y-81683911D01*
X72572163Y-81710823D01*
X72552808Y-81734408D01*
X72529223Y-81753763D01*
X72502311Y-81768148D01*
X72473116Y-81777005D01*
X72436610Y-81780600D01*
X71886390Y-81780600D01*
X71849884Y-81777005D01*
X71820689Y-81768148D01*
X71793777Y-81753763D01*
X71770192Y-81734408D01*
X71750837Y-81710823D01*
X71736452Y-81683911D01*
X71727595Y-81654716D01*
X71724000Y-81618210D01*
X71724000Y-80992990D01*
X71727595Y-80956484D01*
X71736452Y-80927289D01*
X71750837Y-80900377D01*
X71770192Y-80876792D01*
X71793777Y-80857437D01*
X71820689Y-80843052D01*
X71849884Y-80834195D01*
X71886390Y-80830600D01*
X72436610Y-80830600D01*
X72473116Y-80834195D01*
G37*
G36*
X74048116Y-80834195D02*
G01*
X74077311Y-80843052D01*
X74104223Y-80857437D01*
X74127808Y-80876792D01*
X74147163Y-80900377D01*
X74161548Y-80927289D01*
X74170405Y-80956484D01*
X74174000Y-80992990D01*
X74174000Y-81618210D01*
X74170405Y-81654716D01*
X74161548Y-81683911D01*
X74147163Y-81710823D01*
X74127808Y-81734408D01*
X74104223Y-81753763D01*
X74077311Y-81768148D01*
X74048116Y-81777005D01*
X74011610Y-81780600D01*
X73461390Y-81780600D01*
X73424884Y-81777005D01*
X73395689Y-81768148D01*
X73368777Y-81753763D01*
X73345192Y-81734408D01*
X73325837Y-81710823D01*
X73311452Y-81683911D01*
X73302595Y-81654716D01*
X73299000Y-81618210D01*
X73299000Y-80992990D01*
X73302595Y-80956484D01*
X73311452Y-80927289D01*
X73325837Y-80900377D01*
X73345192Y-80876792D01*
X73368777Y-80857437D01*
X73395689Y-80843052D01*
X73424884Y-80834195D01*
X73461390Y-80830600D01*
X74011610Y-80830600D01*
X74048116Y-80834195D01*
G37*
G36*
X75521116Y-80834195D02*
G01*
X75550311Y-80843052D01*
X75577223Y-80857437D01*
X75600808Y-80876792D01*
X75620163Y-80900377D01*
X75634548Y-80927289D01*
X75643405Y-80956484D01*
X75647000Y-80992990D01*
X75647000Y-81618210D01*
X75643405Y-81654716D01*
X75634548Y-81683911D01*
X75620163Y-81710823D01*
X75600808Y-81734408D01*
X75577223Y-81753763D01*
X75550311Y-81768148D01*
X75521116Y-81777005D01*
X75484610Y-81780600D01*
X74934390Y-81780600D01*
X74897884Y-81777005D01*
X74868689Y-81768148D01*
X74841777Y-81753763D01*
X74818192Y-81734408D01*
X74798837Y-81710823D01*
X74784452Y-81683911D01*
X74775595Y-81654716D01*
X74772000Y-81618210D01*
X74772000Y-80992990D01*
X74775595Y-80956484D01*
X74784452Y-80927289D01*
X74798837Y-80900377D01*
X74818192Y-80876792D01*
X74841777Y-80857437D01*
X74868689Y-80843052D01*
X74897884Y-80834195D01*
X74934390Y-80830600D01*
X75484610Y-80830600D01*
X75521116Y-80834195D01*
G37*
G36*
X77096116Y-80834195D02*
G01*
X77125311Y-80843052D01*
X77152223Y-80857437D01*
X77175808Y-80876792D01*
X77195163Y-80900377D01*
X77209548Y-80927289D01*
X77218405Y-80956484D01*
X77222000Y-80992990D01*
X77222000Y-81618210D01*
X77218405Y-81654716D01*
X77209548Y-81683911D01*
X77195163Y-81710823D01*
X77175808Y-81734408D01*
X77152223Y-81753763D01*
X77125311Y-81768148D01*
X77096116Y-81777005D01*
X77059610Y-81780600D01*
X76509390Y-81780600D01*
X76472884Y-81777005D01*
X76443689Y-81768148D01*
X76416777Y-81753763D01*
X76393192Y-81734408D01*
X76373837Y-81710823D01*
X76359452Y-81683911D01*
X76350595Y-81654716D01*
X76347000Y-81618210D01*
X76347000Y-80992990D01*
X76350595Y-80956484D01*
X76359452Y-80927289D01*
X76373837Y-80900377D01*
X76393192Y-80876792D01*
X76416777Y-80857437D01*
X76443689Y-80843052D01*
X76472884Y-80834195D01*
X76509390Y-80830600D01*
X77059610Y-80830600D01*
X77096116Y-80834195D01*
G37*
G36*
X56466703Y-72461486D02*
G01*
X56757883Y-72582097D01*
X57019940Y-72757198D01*
X57242802Y-72980060D01*
X57417903Y-73242117D01*
X57538514Y-73533297D01*
X57600000Y-73842412D01*
X57600000Y-74157588D01*
X57538514Y-74466703D01*
X57417903Y-74757883D01*
X57242802Y-75019940D01*
X57019940Y-75242802D01*
X56757883Y-75417903D01*
X56466703Y-75538514D01*
X56157588Y-75600000D01*
X55842412Y-75600000D01*
X55533297Y-75538514D01*
X55242117Y-75417903D01*
X54980060Y-75242802D01*
X54757198Y-75019940D01*
X54582097Y-74757883D01*
X54461486Y-74466703D01*
X54400000Y-74157588D01*
X54400000Y-73842412D01*
X54461486Y-73533297D01*
X54582097Y-73242117D01*
X54757198Y-72980060D01*
X54980060Y-72757198D01*
X55242117Y-72582097D01*
X55533297Y-72461486D01*
X55842412Y-72400000D01*
X56157588Y-72400000D01*
X56466703Y-72461486D01*
G37*
G36*
X144466703Y-72461486D02*
G01*
X144757883Y-72582097D01*
X145019940Y-72757198D01*
X145242802Y-72980060D01*
X145417903Y-73242117D01*
X145538514Y-73533297D01*
X145600000Y-73842412D01*
X145600000Y-74157588D01*
X145538514Y-74466703D01*
X145417903Y-74757883D01*
X145242802Y-75019940D01*
X145019940Y-75242802D01*
X144757883Y-75417903D01*
X144466703Y-75538514D01*
X144157588Y-75600000D01*
X143842412Y-75600000D01*
X143533297Y-75538514D01*
X143242117Y-75417903D01*
X142980060Y-75242802D01*
X142757198Y-75019940D01*
X142582097Y-74757883D01*
X142461486Y-74466703D01*
X142400000Y-74157588D01*
X142400000Y-73842412D01*
X142461486Y-73533297D01*
X142582097Y-73242117D01*
X142757198Y-72980060D01*
X142980060Y-72757198D01*
X143242117Y-72582097D01*
X143533297Y-72461486D01*
X143842412Y-72400000D01*
X144157588Y-72400000D01*
X144466703Y-72461486D01*
G37*
G36*
X63247765Y-72754403D02*
G01*
X63370445Y-72778805D01*
X63601571Y-72874541D01*
X63809578Y-73013527D01*
X63986473Y-73190422D01*
X64125459Y-73398429D01*
X64221195Y-73629555D01*
X64270000Y-73874916D01*
X64270000Y-74125084D01*
X64221195Y-74370445D01*
X64125459Y-74601571D01*
X63986473Y-74809578D01*
X63809578Y-74986473D01*
X63601571Y-75125459D01*
X63370445Y-75221195D01*
X63247765Y-75245597D01*
X63125085Y-75270000D01*
X62874915Y-75270000D01*
X62752235Y-75245597D01*
X62629555Y-75221195D01*
X62398429Y-75125459D01*
X62190422Y-74986473D01*
X62013527Y-74809578D01*
X61874541Y-74601571D01*
X61778805Y-74370445D01*
X61730000Y-74125084D01*
X61730000Y-73874916D01*
X61778805Y-73629555D01*
X61874541Y-73398429D01*
X62013527Y-73190422D01*
X62190422Y-73013527D01*
X62398429Y-72874541D01*
X62629555Y-72778805D01*
X62752235Y-72754403D01*
X62874915Y-72730000D01*
X63125085Y-72730000D01*
X63247765Y-72754403D01*
G37*
G36*
X137247765Y-72754403D02*
G01*
X137370445Y-72778805D01*
X137601571Y-72874541D01*
X137809578Y-73013527D01*
X137986473Y-73190422D01*
X138125459Y-73398429D01*
X138221195Y-73629555D01*
X138270000Y-73874916D01*
X138270000Y-74125084D01*
X138221195Y-74370445D01*
X138125459Y-74601571D01*
X137986473Y-74809578D01*
X137809578Y-74986473D01*
X137601571Y-75125459D01*
X137370445Y-75221195D01*
X137247765Y-75245597D01*
X137125085Y-75270000D01*
X136874915Y-75270000D01*
X136752235Y-75245597D01*
X136629555Y-75221195D01*
X136398429Y-75125459D01*
X136190422Y-74986473D01*
X136013527Y-74809578D01*
X135874541Y-74601571D01*
X135778805Y-74370445D01*
X135730000Y-74125084D01*
X135730000Y-73874916D01*
X135778805Y-73629555D01*
X135874541Y-73398429D01*
X136013527Y-73190422D01*
X136190422Y-73013527D01*
X136398429Y-72874541D01*
X136629555Y-72778805D01*
X136752235Y-72754403D01*
X136874915Y-72730000D01*
X137125085Y-72730000D01*
X137247765Y-72754403D01*
G37*
M02*
