*
%FSLAX26Y26*%
%MOIN*%
%ADD10C,0.015748*%
%ADD11C,0.021654*%
%ADD12C,0.023622*%
%ADD13C,0.072835*%
%IPPOS*%
%LNdrl.gbr*%
%LPD*%
G75*
G54D10*
X531589Y1591050D03*
Y1049750D03*
X693989Y1591050D03*
Y1049750D03*
X748189Y1699350D03*
Y1482850D03*
Y1158050D03*
Y941450D03*
X802289Y1591050D03*
Y1049750D03*
X910589Y1699350D03*
Y1591050D03*
Y1482850D03*
Y1374550D03*
Y1266250D03*
Y1158050D03*
Y1049750D03*
Y941450D03*
X1018789Y1699350D03*
Y1591050D03*
Y1482850D03*
Y1374550D03*
Y1266250D03*
Y1158050D03*
Y1049750D03*
Y941450D03*
X1127089Y1699350D03*
Y1374550D03*
Y1266250D03*
Y1158050D03*
Y1049750D03*
Y941450D03*
X1235389Y1699350D03*
Y1591050D03*
Y1482850D03*
Y1374550D03*
Y1266250D03*
Y1158050D03*
Y1049750D03*
Y941450D03*
X1343589Y1699350D03*
Y1591050D03*
Y1482850D03*
Y1374550D03*
Y1266250D03*
Y1158050D03*
Y1049750D03*
Y941450D03*
X1451889Y1699350D03*
Y1591050D03*
Y1482850D03*
Y1374550D03*
Y1266250D03*
Y1158050D03*
Y1049750D03*
Y941450D03*
X1560189Y1699350D03*
Y1374550D03*
Y1266250D03*
Y1158050D03*
Y1049750D03*
Y941450D03*
X1668389Y1699350D03*
Y1591050D03*
Y1482850D03*
Y1374550D03*
Y1266250D03*
Y1158050D03*
Y1049750D03*
Y941450D03*
X1776689Y1699350D03*
Y1591050D03*
Y1482850D03*
Y1374550D03*
Y1266250D03*
Y1158050D03*
Y1049750D03*
Y941450D03*
X1884989Y1699350D03*
Y1591050D03*
Y1482850D03*
Y1374550D03*
Y1266250D03*
Y1158050D03*
Y1049750D03*
Y941450D03*
X1993189Y1699350D03*
Y1591050D03*
Y1482850D03*
Y1374550D03*
Y1266250D03*
Y1158050D03*
Y1049750D03*
Y941450D03*
X2101489Y1699350D03*
Y1374550D03*
Y1266250D03*
Y1158050D03*
Y1049750D03*
Y941450D03*
X2209789Y1699350D03*
Y1591050D03*
Y1482850D03*
Y1374550D03*
Y1266250D03*
Y1158050D03*
Y1049750D03*
Y941450D03*
X2317989Y1699350D03*
Y1591050D03*
Y1482850D03*
Y1374550D03*
Y1266250D03*
Y1158050D03*
Y1049750D03*
Y941450D03*
X2426289Y1591050D03*
Y1049750D03*
X2480389Y1699350D03*
Y1482850D03*
Y1158050D03*
Y941450D03*
X2534589Y1591050D03*
Y1049750D03*
X2696989Y1591050D03*
Y1049750D03*
X149289Y576250D03*
X244289Y566250D03*
X289289Y641250D03*
X693389Y323350D03*
Y292650D03*
X740289Y323350D03*
X741089Y353350D03*
X882389Y255650D03*
X906789Y293450D03*
X930089Y255650D03*
X930389Y223350D03*
X1446289Y210250D03*
X1447389Y244250D03*
X1483989Y301750D03*
X1484389Y270250D03*
X1560289Y366250D03*
X1584789Y270250D03*
X1602289Y336250D03*
X1608289Y291850D03*
X1614289Y216050D03*
X1632289Y248550D03*
X2370189Y260750D03*
Y226550D03*
X2395389Y310350D03*
X2418589Y258450D03*
X2522989Y289150D03*
X2523789Y257250D03*
X2579289Y320650D03*
X2583189Y287550D03*
X1127089Y1536950D03*
X1560189D03*
X2101489D03*
G54D11*
X1127089Y1591050D03*
Y1482850D03*
X1560189Y1591050D03*
Y1482850D03*
X2101489Y1591050D03*
Y1482850D03*
G54D12*
X104289Y536250D03*
X144289D03*
X199289Y516250D03*
X209289Y561250D03*
X244289Y606250D03*
X289289Y601250D03*
X339089Y648550D03*
X341489Y608850D03*
X1034289Y1976250D03*
X1124289Y2021250D03*
X1464289Y2016250D03*
X1564289Y2061250D03*
G54D13*
X78889Y236150D03*
X3149689D03*
M02*
