*
%FSLAX26Y26*%
%MOIN*%
%ADD10C,0.011811*%
%ADD11C,0.005906*%
%ADD12C,0.005010*%
%ADD13R,0.028748X0.028748*%
%ADD14C,0.049550*%
%ADD15C,0.049500*%
%ADD16C,0.049525*%
%ADD17R,0.033158X0.033158*%
%ADD18C,0.005039*%
%ADD19R,0.005039X0.005039*%
%ADD20R,0.022449X0.022449*%
%ADD21C,0.002362*%
%ADD22R,0.002362X0.002362*%
%ADD23R,0.041346X0.041346*%
%ADD24C,0.003150*%
%ADD25R,0.003150X0.003150*%
%ADD26C,0.041925*%
%ADD27C,0.017906*%
%ADD28C,0.016000*%
%ADD29R,0.025748X0.025748*%
%ADD30C,0.088835*%
%ADD31C,0.001000*%
%ADD32C,0.002000*%
%IPPOS*%
%LNgbo.gbr*%
%LPD*%
G75*
G54D10*
X2171102Y1995779D02*
X2159853D01*
X2154229Y1992967D01*
X2148605Y1987343D01*
X2145793Y1976094D01*
Y1956409D01*
X2148605Y1945160D01*
X2154229Y1939536D01*
X2159853Y1936724D01*
X2171102D01*
X2176726Y1939536D01*
X2182350Y1945160D01*
X2185163Y1956409D01*
Y1976094D01*
X2182350Y1987343D01*
X2176726Y1992967D01*
X2171102Y1995779D01*
X2120483Y1976094D02*
Y1917039D01*
Y1973282D02*
X2114859Y1976094D01*
X2103610D01*
X2097986Y1973282D01*
X2095174Y1970470D01*
X2092362Y1964845D01*
Y1947973D01*
X2095174Y1942348D01*
X2097986Y1939536D01*
X2103610Y1936724D01*
X2114859D01*
X2120483Y1939536D01*
X2044555D02*
X2050179Y1936724D01*
X2061428D01*
X2067052Y1939536D01*
X2069864Y1945160D01*
Y1967658D01*
X2067052Y1973282D01*
X2061428Y1976094D01*
X2050179D01*
X2044555Y1973282D01*
X2041743Y1967658D01*
Y1962033D01*
X2069864Y1956409D01*
X2016434Y1976094D02*
Y1936724D01*
Y1970470D02*
X2013622Y1973282D01*
X2007997Y1976094D01*
X1999561D01*
X1993937Y1973282D01*
X1991124Y1967658D01*
Y1936724D01*
X1963003D02*
Y1995779D01*
X1948942D01*
X1940506Y1992967D01*
X1934881Y1987343D01*
X1932069Y1981718D01*
X1929257Y1970470D01*
Y1962033D01*
X1932069Y1950785D01*
X1934881Y1945160D01*
X1940506Y1939536D01*
X1948942Y1936724D01*
X1963003D01*
X1903948D02*
Y1976094D01*
Y1964845D02*
X1901136Y1970470D01*
X1898323Y1973282D01*
X1892699Y1976094D01*
X1887075D01*
X1858953Y1936724D02*
X1864578Y1939536D01*
X1867390Y1942348D01*
X1870202Y1947973D01*
Y1964845D01*
X1867390Y1970470D01*
X1864578Y1973282D01*
X1858953Y1976094D01*
X1850517D01*
X1844893Y1973282D01*
X1842081Y1970470D01*
X1839268Y1964845D01*
Y1947973D01*
X1842081Y1942348D01*
X1844893Y1939536D01*
X1850517Y1936724D01*
X1858953D01*
X1813959Y1976094D02*
Y1917039D01*
Y1973282D02*
X1808335Y1976094D01*
X1797086D01*
X1791462Y1973282D01*
X1788650Y1970470D01*
X1785838Y1964845D01*
Y1947973D01*
X1788650Y1942348D01*
X1791462Y1939536D01*
X1797086Y1936724D01*
X1808335D01*
X1813959Y1939536D01*
X1681788Y1942348D02*
X1684600Y1939536D01*
X1693037Y1936724D01*
X1698661D01*
X1707097Y1939536D01*
X1712722Y1945160D01*
X1715534Y1950785D01*
X1718346Y1962033D01*
Y1970470D01*
X1715534Y1981718D01*
X1712722Y1987343D01*
X1707097Y1992967D01*
X1698661Y1995779D01*
X1693037D01*
X1684600Y1992967D01*
X1681788Y1990155D01*
X1631169Y1936724D02*
Y1967658D01*
X1633981Y1973282D01*
X1639606Y1976094D01*
X1650854D01*
X1656479Y1973282D01*
X1631169Y1939536D02*
X1636794Y1936724D01*
X1650854D01*
X1656479Y1939536D01*
X1659291Y1945160D01*
Y1950785D01*
X1656479Y1956409D01*
X1650854Y1959221D01*
X1636794D01*
X1631169Y1962033D01*
X1603048Y1936724D02*
Y1976094D01*
Y1964845D02*
X1600236Y1970470D01*
X1597424Y1973282D01*
X1591799Y1976094D01*
X1586175D01*
X1574926D02*
X1552429D01*
X1566490Y1995779D02*
Y1945160D01*
X1563678Y1939536D01*
X1558053Y1936724D01*
X1552429D01*
X1532744D02*
Y1976094D01*
Y1964845D02*
X1529932Y1970470D01*
X1527120Y1973282D01*
X1521496Y1976094D01*
X1515871D01*
X1496186Y1936724D02*
Y1976094D01*
Y1995779D02*
X1498998Y1992967D01*
X1496186Y1990155D01*
X1493374Y1992967D01*
X1496186Y1995779D01*
Y1990155D01*
X1442755Y1936724D02*
Y1995779D01*
Y1939536D02*
X1448380Y1936724D01*
X1459628D01*
X1465253Y1939536D01*
X1468065Y1942348D01*
X1470877Y1947973D01*
Y1964845D01*
X1468065Y1970470D01*
X1465253Y1973282D01*
X1459628Y1976094D01*
X1448380D01*
X1442755Y1973282D01*
X1389325Y1976094D02*
Y1928288D01*
X1392137Y1922663D01*
X1394949Y1919851D01*
X1400573Y1917039D01*
X1409010D01*
X1414634Y1919851D01*
X1389325Y1939536D02*
X1394949Y1936724D01*
X1406197D01*
X1411822Y1939536D01*
X1414634Y1942348D01*
X1417446Y1947973D01*
Y1964845D01*
X1414634Y1970470D01*
X1411822Y1973282D01*
X1406197Y1976094D01*
X1394949D01*
X1389325Y1973282D01*
X1338706Y1939536D02*
X1344330Y1936724D01*
X1355579D01*
X1361203Y1939536D01*
X1364015Y1945160D01*
Y1967658D01*
X1361203Y1973282D01*
X1355579Y1976094D01*
X1344330D01*
X1338706Y1973282D01*
X1335894Y1967658D01*
Y1962033D01*
X1364015Y1956409D01*
X1274026Y1995779D02*
X1254341Y1936724D01*
X1234656Y1995779D01*
X1189662Y1976094D02*
Y1936724D01*
X1203723Y1998591D02*
X1217783Y1956409D01*
X1181226D01*
X1158728Y1942348D02*
X1155916Y1939536D01*
X1158728Y1936724D01*
X1161541Y1939536D01*
X1158728Y1942348D01*
Y1936724D01*
X1099673D02*
X1133419D01*
X1116546D02*
Y1995779D01*
X1122170Y1987343D01*
X1127795Y1981718D01*
X1133419Y1978906D01*
X2141574Y1881015D02*
X2130326Y1841645D01*
X2119077Y1869767D01*
X2107829Y1841645D01*
X2096580Y1881015D01*
X2079707D02*
X2068458Y1841645D01*
X2057210Y1869767D01*
X2045961Y1841645D01*
X2034713Y1881015D01*
X2017840D02*
X2006591Y1841645D01*
X1995343Y1869767D01*
X1984094Y1841645D01*
X1972845Y1881015D01*
X1950348Y1847269D02*
X1947536Y1844457D01*
X1950348Y1841645D01*
X1953160Y1844457D01*
X1950348Y1847269D01*
Y1841645D01*
X1896917Y1881015D02*
Y1833209D01*
X1899730Y1827584D01*
X1902542Y1824772D01*
X1908166Y1821960D01*
X1916602D01*
X1922227Y1824772D01*
X1896917Y1844457D02*
X1902542Y1841645D01*
X1913790D01*
X1919415Y1844457D01*
X1922227Y1847269D01*
X1925039Y1852894D01*
Y1869767D01*
X1922227Y1875391D01*
X1919415Y1878203D01*
X1913790Y1881015D01*
X1902542D01*
X1896917Y1878203D01*
X1843487Y1841645D02*
Y1872579D01*
X1846299Y1878203D01*
X1851923Y1881015D01*
X1863172D01*
X1868796Y1878203D01*
X1843487Y1844457D02*
X1849111Y1841645D01*
X1863172D01*
X1868796Y1844457D01*
X1871608Y1850082D01*
Y1855706D01*
X1868796Y1861330D01*
X1863172Y1864142D01*
X1849111D01*
X1843487Y1866955D01*
X1790056Y1881015D02*
Y1841645D01*
X1815365Y1881015D02*
Y1850082D01*
X1812553Y1844457D01*
X1806929Y1841645D01*
X1798492D01*
X1792868Y1844457D01*
X1790056Y1847269D01*
X1736625Y1841645D02*
Y1900700D01*
Y1844457D02*
X1742249Y1841645D01*
X1753498D01*
X1759122Y1844457D01*
X1761934Y1847269D01*
X1764746Y1852894D01*
Y1869767D01*
X1761934Y1875391D01*
X1759122Y1878203D01*
X1753498Y1881015D01*
X1742249D01*
X1736625Y1878203D01*
X1708503Y1841645D02*
Y1881015D01*
Y1900700D02*
X1711316Y1897888D01*
X1708503Y1895076D01*
X1705691Y1897888D01*
X1708503Y1900700D01*
Y1895076D01*
X1680382Y1847269D02*
X1677570Y1844457D01*
X1680382Y1841645D01*
X1683194Y1844457D01*
X1680382Y1847269D01*
Y1841645D01*
X1626951Y1844457D02*
X1632575Y1841645D01*
X1643824D01*
X1649448Y1844457D01*
X1652260Y1847269D01*
X1655073Y1852894D01*
Y1869767D01*
X1652260Y1875391D01*
X1649448Y1878203D01*
X1643824Y1881015D01*
X1632575D01*
X1626951Y1878203D01*
X1601642Y1841645D02*
Y1900700D01*
X1576332Y1841645D02*
Y1872579D01*
X1579145Y1878203D01*
X1584769Y1881015D01*
X1593205D01*
X1598830Y1878203D01*
X1601642Y1875391D01*
X1506029Y1903513D02*
X1556647Y1827584D01*
X1475095Y1900700D02*
X1463846D01*
X1458222Y1897888D01*
X1452598Y1892264D01*
X1449786Y1881015D01*
Y1861330D01*
X1452598Y1850082D01*
X1458222Y1844457D01*
X1463846Y1841645D01*
X1475095D01*
X1480719Y1844457D01*
X1486344Y1850082D01*
X1489156Y1861330D01*
Y1881015D01*
X1486344Y1892264D01*
X1480719Y1897888D01*
X1475095Y1900700D01*
X1424476Y1881015D02*
Y1821960D01*
Y1878203D02*
X1418852Y1881015D01*
X1407604D01*
X1401979Y1878203D01*
X1399167Y1875391D01*
X1396355Y1869767D01*
Y1852894D01*
X1399167Y1847269D01*
X1401979Y1844457D01*
X1407604Y1841645D01*
X1418852D01*
X1424476Y1844457D01*
X1348548D02*
X1354173Y1841645D01*
X1365421D01*
X1371046Y1844457D01*
X1373858Y1850082D01*
Y1872579D01*
X1371046Y1878203D01*
X1365421Y1881015D01*
X1354173D01*
X1348548Y1878203D01*
X1345736Y1872579D01*
Y1866955D01*
X1373858Y1861330D01*
X1320427Y1881015D02*
Y1841645D01*
Y1875391D02*
X1317615Y1878203D01*
X1311990Y1881015D01*
X1303554D01*
X1297930Y1878203D01*
X1295118Y1872579D01*
Y1841645D01*
X1266996D02*
Y1900700D01*
X1252935D01*
X1244499Y1897888D01*
X1238875Y1892264D01*
X1236063Y1886640D01*
X1233250Y1875391D01*
Y1866955D01*
X1236063Y1855706D01*
X1238875Y1850082D01*
X1244499Y1844457D01*
X1252935Y1841645D01*
X1266996D01*
X1207941D02*
Y1881015D01*
Y1869767D02*
X1205129Y1875391D01*
X1202317Y1878203D01*
X1196692Y1881015D01*
X1191068D01*
X1162947Y1841645D02*
X1168571Y1844457D01*
X1171383Y1847269D01*
X1174195Y1852894D01*
Y1869767D01*
X1171383Y1875391D01*
X1168571Y1878203D01*
X1162947Y1881015D01*
X1154510D01*
X1148886Y1878203D01*
X1146074Y1875391D01*
X1143262Y1869767D01*
Y1852894D01*
X1146074Y1847269D01*
X1148886Y1844457D01*
X1154510Y1841645D01*
X1162947D01*
X1117952Y1881015D02*
Y1821960D01*
Y1878203D02*
X1112328Y1881015D01*
X1101079D01*
X1095455Y1878203D01*
X1092643Y1875391D01*
X1089831Y1869767D01*
Y1852894D01*
X1092643Y1847269D01*
X1095455Y1844457D01*
X1101079Y1841645D01*
X1112328D01*
X1117952Y1844457D01*
G54D11*
X1027907Y1557932D02*
X1005410D01*
X1016659Y1518562D02*
Y1557932D01*
X992287Y1518562D02*
Y1557932D01*
Y1539185D02*
X969789D01*
Y1518562D02*
Y1557932D01*
X930419Y1518562D02*
X952917D01*
X941668D02*
Y1557932D01*
X945418Y1552308D01*
X949167Y1548558D01*
X952917Y1546684D01*
X1133653Y1638247D02*
X1146777Y1656995D01*
X1156151Y1638247D02*
Y1677617D01*
X1141152D01*
X1137403Y1675743D01*
X1135528Y1673868D01*
X1133653Y1670118D01*
Y1664494D01*
X1135528Y1660744D01*
X1137403Y1658870D01*
X1141152Y1656995D01*
X1156151D01*
X1096158Y1638247D02*
X1118655D01*
X1107407D02*
Y1677617D01*
X1111156Y1671993D01*
X1114906Y1668244D01*
X1118655Y1666369D01*
X1132275Y1394546D02*
X1145399Y1413294D01*
X1154773Y1394546D02*
Y1433917D01*
X1139775D01*
X1136025Y1432042D01*
X1134150Y1430167D01*
X1132275Y1426417D01*
Y1420793D01*
X1134150Y1417044D01*
X1136025Y1415169D01*
X1139775Y1413294D01*
X1154773D01*
X1117277Y1430167D02*
X1115403Y1432042D01*
X1111653Y1433917D01*
X1102279D01*
X1098530Y1432042D01*
X1096655Y1430167D01*
X1094780Y1426417D01*
Y1422668D01*
X1096655Y1417044D01*
X1119152Y1394546D01*
X1094780D01*
X1564559Y1638641D02*
X1577682Y1657389D01*
X1587056Y1638641D02*
Y1678011D01*
X1572058D01*
X1568308Y1676136D01*
X1566434Y1674261D01*
X1564559Y1670512D01*
Y1664888D01*
X1566434Y1661138D01*
X1568308Y1659263D01*
X1572058Y1657389D01*
X1587056D01*
X1551436Y1678011D02*
X1527064D01*
X1540187Y1663013D01*
X1534563D01*
X1530813Y1661138D01*
X1528938Y1659263D01*
X1527064Y1655514D01*
Y1646140D01*
X1528938Y1642390D01*
X1530813Y1640516D01*
X1534563Y1638641D01*
X1545811D01*
X1549561Y1640516D01*
X1551436Y1642390D01*
X1566134Y1394153D02*
X1579257Y1412900D01*
X1588631Y1394153D02*
Y1433523D01*
X1573633D01*
X1569883Y1431648D01*
X1568008Y1429773D01*
X1566134Y1426024D01*
Y1420399D01*
X1568008Y1416650D01*
X1569883Y1414775D01*
X1573633Y1412900D01*
X1588631D01*
X1532388Y1420399D02*
Y1394153D01*
X1541762Y1435398D02*
X1551136Y1407276D01*
X1526764D01*
X2110622Y1638247D02*
X2123745Y1656995D01*
X2133119Y1638247D02*
Y1677617D01*
X2118121D01*
X2114371Y1675743D01*
X2112497Y1673868D01*
X2110622Y1670118D01*
Y1664494D01*
X2112497Y1660744D01*
X2114371Y1658870D01*
X2118121Y1656995D01*
X2133119D01*
X2075001Y1677617D02*
X2093749D01*
X2095624Y1658870D01*
X2093749Y1660744D01*
X2090000Y1662619D01*
X2080626D01*
X2076876Y1660744D01*
X2075001Y1658870D01*
X2073127Y1655120D01*
Y1645746D01*
X2075001Y1641997D01*
X2076876Y1640122D01*
X2080626Y1638247D01*
X2090000D01*
X2093749Y1640122D01*
X2095624Y1641997D01*
X2107866Y1395728D02*
X2120989Y1414475D01*
X2130363Y1395728D02*
Y1435098D01*
X2115365D01*
X2111616Y1433223D01*
X2109741Y1431348D01*
X2107866Y1427599D01*
Y1421974D01*
X2109741Y1418225D01*
X2111616Y1416350D01*
X2115365Y1414475D01*
X2130363D01*
X2074120Y1435098D02*
X2081619D01*
X2085369Y1433223D01*
X2087244Y1431348D01*
X2090993Y1425724D01*
X2092868Y1418225D01*
Y1403227D01*
X2090993Y1399477D01*
X2089118Y1397602D01*
X2085369Y1395728D01*
X2077870D01*
X2074120Y1397602D01*
X2072245Y1399477D01*
X2070371Y1403227D01*
Y1412600D01*
X2072245Y1416350D01*
X2074120Y1418225D01*
X2077870Y1420100D01*
X2085369D01*
X2089118Y1418225D01*
X2090993Y1416350D01*
X2092868Y1412600D01*
X2003104Y1562263D02*
X1980607D01*
X1991856Y1522893D02*
Y1562263D01*
X1967484Y1522893D02*
Y1562263D01*
Y1543515D02*
X1944986D01*
Y1522893D02*
Y1562263D01*
X1929988D02*
X1905616D01*
X1918740Y1547265D01*
X1913115D01*
X1909366Y1545390D01*
X1907491Y1543515D01*
X1905616Y1539766D01*
Y1530392D01*
X1907491Y1526642D01*
X1909366Y1524768D01*
X1913115Y1522893D01*
X1924364D01*
X1928113Y1524768D01*
X1929988Y1526642D01*
X1460978Y1558720D02*
X1438481D01*
X1449730Y1519350D02*
Y1558720D01*
X1425358Y1519350D02*
Y1558720D01*
Y1539972D02*
X1402860D01*
Y1519350D02*
Y1558720D01*
X1385988Y1554970D02*
X1384113Y1556845D01*
X1380363Y1558720D01*
X1370989D01*
X1367240Y1556845D01*
X1365365Y1554970D01*
X1363490Y1551221D01*
Y1547471D01*
X1365365Y1541847D01*
X1387862Y1519350D01*
X1363490D01*
G54D12*
X1103388Y1558786D02*
X1150795D01*
X1103388Y1626924D02*
X1150795D01*
X1103388Y1515197D02*
X1150795D01*
X1103388Y1447002D02*
X1150795D01*
X1583866Y1558786D02*
X1536459D01*
X1583866Y1626924D02*
X1536459D01*
X1583866Y1447002D02*
X1536459D01*
X1583866Y1515197D02*
X1536459D01*
X2125205Y1626924D02*
X2077798D01*
X2125205Y1558786D02*
X2077798D01*
X2125205Y1515197D02*
X2077798D01*
X2125205Y1447002D02*
X2077798D01*
%LPC*%
G75*
X2077798Y1447002D02*
G36*
X-489Y714675D02*
X14602Y716211D01*
X28148Y720423D01*
X40433Y727097D01*
X51164Y735955D01*
X59996Y746664D01*
X66671Y758967D01*
X70886Y772549D01*
X72358Y787136D01*
X70889Y801742D01*
X66677Y815325D01*
X60005Y827628D01*
X51157Y838356D01*
X40454Y847195D01*
X28175Y853868D01*
X14580Y858101D01*
X-1406Y859774D01*
X-2411Y860108D01*
X-3350Y860620D01*
X-4182Y861290D01*
X-4898Y862116D01*
X-5443Y863042D01*
X-5813Y864045D01*
X-6000Y865108D01*
X-6002Y2108652D01*
G02X38465Y2152628I45284J-1320D01*
G01X3189763D01*
G02X3234189Y2108120I-800J-45225D01*
G01X3222243D01*
G03X3189964Y2140620I-33137J-632D01*
G01X38330D01*
G03X5979Y2107254I1001J-33337D01*
G01Y871034D01*
X17204Y869853D01*
X33060Y864872D01*
X47358Y857057D01*
X59813Y846723D01*
X70102Y834183D01*
X77849Y819813D01*
X82620Y804400D01*
X84389Y787156D01*
X82640Y769931D01*
X77645Y754045D01*
X69868Y739774D01*
X59526Y727294D01*
X47017Y717018D01*
X33047Y709439D01*
X16737Y704360D01*
X6059Y703278D01*
X5979Y703258D01*
Y438691D01*
X-6021D01*
X-6012Y709026D01*
X-5856Y710089D01*
G02X-489Y714675I5836J-1397D01*
G37*
G36*
X-6021Y432671D02*
G01Y438681D01*
X5979D01*
X39503Y438682D01*
G02X64580Y355974I-190J-45213D01*
G02X39374Y348087I-26148J39344D01*
G01X6000Y348086D01*
Y6000D01*
X95533D01*
Y114128D01*
G02X102485Y121081I6953J0D01*
G01X1704708D01*
Y131948D01*
X1716708D01*
Y121081D01*
X1739781D01*
Y126515D01*
X1751781D01*
Y121081D01*
X3126107D01*
G02X3133060Y114128I0J-6953D01*
G01Y5993D01*
X3221829D01*
Y348078D01*
X3188907D01*
G02X3187141Y348344I1J6000D01*
G02X3189123Y438674I1695J45150D01*
G01X3221967D01*
Y703306D01*
X3211643Y704387D01*
G02X3210435Y704641I624J5968D01*
G01X3195054Y709509D01*
X3180783Y717348D01*
X3168360Y727691D01*
X3158129Y740192D01*
X3150736Y753847D01*
G02X3150287Y754923I5287J2838D01*
G01X3145732Y769621D01*
G02X3145504Y770747I5739J1748D01*
G01X3143909Y786563D01*
G02X3143911Y787730I5972J573D01*
G01X3145624Y804311D01*
X3150565Y820126D01*
X3158355Y834434D01*
X3168663Y846901D01*
X3181144Y857185D01*
X3195455Y864951D01*
X3210506Y869669D01*
G02X3211702Y869914I1796J-5725D01*
G01X3222187Y871006D01*
X3222243Y2108118D01*
X3234189D01*
G02X3234195Y2107402I-45227J-737D01*
G02X3234187Y2106591I-45233J39D01*
G01Y865586D01*
G02X3228427Y859591I-6000J0D01*
G01X3213521Y858039D01*
X3199977Y853793D01*
X3187721Y847103D01*
X3177040Y838257D01*
X3168229Y827546D01*
X3161581Y815267D01*
X3157381Y801709D01*
X3155912Y787136D01*
X3157381Y772572D01*
X3161580Y759021D01*
X3168226Y746748D01*
X3177031Y736042D01*
X3187705Y727197D01*
X3199953Y720508D01*
X3213489Y716259D01*
X3228675Y714669D01*
G02X3233967Y707865I-649J-5965D01*
G01Y432663D01*
G02X3227613Y426674I-6000J0D01*
G01X3188898D01*
G03X3156353Y386739I-73J-33169D01*
G03X3189507Y360206I32573J6722D01*
G02X3190273Y360078I-604J-5969D01*
G01X3227888D01*
G02X3233829Y353239I0J-6000D01*
G01Y-7D01*
G02X3227785Y-6006I-6000J0D01*
G01X1745781Y-6007D01*
G02X1739781Y-7I0J6000D01*
G01Y107176D01*
X1716708D01*
Y0D01*
G02X1710708Y-6000I-6000J0D01*
G01X0D01*
G02X-6000Y0I0J6000D01*
G01Y354086D01*
G02X0Y360086I6000J0D01*
G01X38926D01*
X46126Y360954D01*
G03X39283Y426681I-6865J32505D01*
G01X333D01*
G02X-6021Y432671I-354J5990D01*
G37*
G36*
X1704708Y131948D02*
G02X1751781Y131948I23537J0D01*
G01Y126515D01*
X1739781D01*
Y131948D01*
G03X1716708Y131948I-11537J0D01*
G01X1704708D01*
G37*
G36*
X-5021Y439681D02*
X4979D01*
G02X4979Y437681I0J-1000D01*
G01X-5021D01*
G02X-5021Y439681I0J1000D01*
G37*
G36*
X3223243Y2109118D02*
G01X3233189D01*
G02X3233189Y2107118I0J-1000D01*
G01X3223243D01*
G02X3223243Y2109118I0J1000D01*
G37*
G36*
X1740781Y127515D02*
G01X1750781D01*
G02X1750781Y125515I0J-1000D01*
G01X1740781D01*
G02X1740781Y127515I0J1000D01*
G37*
G36*
X1705708Y132948D02*
G01X1715708D01*
G02X1715708Y130948I0J-1000D01*
G01X1705708D01*
G02X1705708Y132948I0J1000D01*
G37*
G36*
X33471Y236150D02*
G02X33471Y236150I45417J0D01*
G37*
G36*
X510589Y1049750D02*
G02X510589Y1049750I21000J0D01*
G37*
G36*
Y1591050D02*
G02X510589Y1591050I21000J0D01*
G37*
G36*
X672989Y1049750D02*
G02X672989Y1049750I21000J0D01*
G37*
G36*
Y1591050D02*
G02X672989Y1591050I21000J0D01*
G37*
G36*
X727189Y941450D02*
G02X727189Y941450I21000J0D01*
G37*
G36*
Y1158050D02*
G02X727189Y1158050I21000J0D01*
G37*
G36*
Y1482850D02*
G02X727189Y1482850I21000J0D01*
G37*
G36*
Y1699350D02*
G02X727189Y1699350I21000J0D01*
G37*
G36*
X781289Y1049750D02*
G02X781289Y1049750I21000J0D01*
G37*
G36*
Y1591050D02*
G02X781289Y1591050I21000J0D01*
G37*
G36*
X889589Y941450D02*
G02X889589Y941450I21000J0D01*
G37*
G36*
Y1049750D02*
G02X889589Y1049750I21000J0D01*
G37*
G36*
Y1158050D02*
G02X889589Y1158050I21000J0D01*
G37*
G36*
Y1266250D02*
G02X889589Y1266250I21000J0D01*
G37*
G36*
Y1374550D02*
G02X889589Y1374550I21000J0D01*
G37*
G36*
Y1482850D02*
G02X889589Y1482850I21000J0D01*
G37*
G36*
Y1591050D02*
G02X889589Y1591050I21000J0D01*
G37*
G36*
Y1699350D02*
G02X889589Y1699350I21000J0D01*
G37*
G36*
X997789Y941450D02*
G02X997789Y941450I21000J0D01*
G37*
G36*
Y1049750D02*
G02X997789Y1049750I21000J0D01*
G37*
G36*
Y1158050D02*
G02X997789Y1158050I21000J0D01*
G37*
G36*
Y1266250D02*
G02X997789Y1266250I21000J0D01*
G37*
G36*
Y1374550D02*
G02X997789Y1374550I21000J0D01*
G37*
G36*
Y1482850D02*
G02X997789Y1482850I21000J0D01*
G37*
G36*
Y1591050D02*
G02X997789Y1591050I21000J0D01*
G37*
G36*
Y1699350D02*
G02X997789Y1699350I21000J0D01*
G37*
G36*
X1045789Y1447455D02*
G01Y1518203D01*
G02X1051363Y1523778I5575J0D01*
G01X1084710D01*
G02X1090285Y1518203I0J-5575D01*
G01Y1447455D01*
G02X1084710Y1441880I-5575J0D01*
G01X1051363D01*
G02X1045789Y1447455I0J5575D01*
G37*
G36*
Y1555723D02*
G01Y1626471D01*
G02X1051363Y1632046I5575J0D01*
G01X1084710D01*
G02X1090285Y1626471I0J-5575D01*
G01Y1555723D01*
G02X1084710Y1550148I-5575J0D01*
G01X1051363D01*
G02X1045789Y1555723I0J5575D01*
G37*
G36*
X1051694Y1523046D02*
G01Y1550880D01*
G02X1056875Y1556061I5181J0D01*
G01X1071324D01*
G02X1076505Y1550880I0J-5181D01*
G01Y1523046D01*
G02X1071324Y1517865I-5181J0D01*
G01X1056875D01*
G02X1051694Y1523046I0J5181D01*
G37*
G36*
X1085159Y1524384D02*
G01Y1549542D01*
G02X1091678Y1556061I6520J-0D01*
G01X1119198D01*
G02X1125718Y1549542I0J-6520D01*
G01Y1524384D01*
G02X1119198Y1517865I-6519J0D01*
G01X1091678D01*
G02X1085159Y1524384I0J6519D01*
G37*
G36*
X1102217Y1591097D02*
G02X1102217Y1591097I24875J0D01*
G37*
G36*
X1102342Y1482829D02*
G02X1102342Y1482829I24750J0D01*
G37*
G36*
X1106089Y941450D02*
G02X1106089Y941450I21000J0D01*
G37*
G36*
Y1049750D02*
G02X1106089Y1049750I21000J0D01*
G37*
G36*
Y1158050D02*
G02X1106089Y1158050I21000J0D01*
G37*
G36*
Y1266250D02*
G02X1106089Y1266250I21000J0D01*
G37*
G36*
Y1374550D02*
G02X1106089Y1374550I21000J0D01*
G37*
G36*
Y1699350D02*
G02X1106089Y1699350I21000J0D01*
G37*
G36*
X1163899Y1447455D02*
G01Y1518203D01*
G02X1169474Y1523778I5575J0D01*
G01X1202820D01*
G02X1208395Y1518203I0J-5575D01*
G01Y1447455D01*
G02X1202820Y1441880I-5575J0D01*
G01X1169474D01*
G02X1163899Y1447455I0J5575D01*
G37*
G36*
Y1555723D02*
G01Y1626471D01*
G02X1169474Y1632046I5575J0D01*
G01X1202820D01*
G02X1208395Y1626471I0J-5575D01*
G01Y1555723D01*
G02X1202820Y1550148I-5575J0D01*
G01X1169474D01*
G02X1163899Y1555723I0J5575D01*
G37*
G36*
X1214389Y941450D02*
G02X1214389Y941450I21000J0D01*
G37*
G36*
Y1049750D02*
G02X1214389Y1049750I21000J0D01*
G37*
G36*
Y1158050D02*
G02X1214389Y1158050I21000J0D01*
G37*
G36*
Y1266250D02*
G02X1214389Y1266250I21000J0D01*
G37*
G36*
Y1374550D02*
G02X1214389Y1374550I21000J0D01*
G37*
G36*
Y1482850D02*
G02X1214389Y1482850I21000J0D01*
G37*
G36*
Y1591050D02*
G02X1214389Y1591050I21000J0D01*
G37*
G36*
Y1699350D02*
G02X1214389Y1699350I21000J0D01*
G37*
G36*
X1322589Y941450D02*
G02X1322589Y941450I21000J0D01*
G37*
G36*
Y1049750D02*
G02X1322589Y1049750I21000J0D01*
G37*
G36*
Y1158050D02*
G02X1322589Y1158050I21000J0D01*
G37*
G36*
Y1266250D02*
G02X1322589Y1266250I21000J0D01*
G37*
G36*
Y1374550D02*
G02X1322589Y1374550I21000J0D01*
G37*
G36*
Y1482850D02*
G02X1322589Y1482850I21000J0D01*
G37*
G36*
Y1591050D02*
G02X1322589Y1591050I21000J0D01*
G37*
G36*
Y1699350D02*
G02X1322589Y1699350I21000J0D01*
G37*
G36*
X1430889Y941450D02*
G02X1430889Y941450I21000J0D01*
G37*
G36*
Y1049750D02*
G02X1430889Y1049750I21000J0D01*
G37*
G36*
Y1158050D02*
G02X1430889Y1158050I21000J0D01*
G37*
G36*
Y1266250D02*
G02X1430889Y1266250I21000J0D01*
G37*
G36*
Y1374550D02*
G02X1430889Y1374550I21000J0D01*
G37*
G36*
Y1482850D02*
G02X1430889Y1482850I21000J0D01*
G37*
G36*
Y1591050D02*
G02X1430889Y1591050I21000J0D01*
G37*
G36*
Y1699350D02*
G02X1430889Y1699350I21000J0D01*
G37*
G36*
X1478859Y1447455D02*
G01Y1518203D01*
G02X1484434Y1523778I5575J0D01*
G01X1517781D01*
G02X1523356Y1518203I0J-5575D01*
G01Y1447455D01*
G02X1517781Y1441880I-5575J0D01*
G01X1484434D01*
G02X1478859Y1447455I0J5575D01*
G37*
G36*
Y1555723D02*
G01Y1626471D01*
G02X1484434Y1632046I5575J0D01*
G01X1517781D01*
G02X1523356Y1626471I0J-5575D01*
G01Y1555723D01*
G02X1517781Y1550148I-5575J0D01*
G01X1484434D01*
G02X1478859Y1555723I0J5575D01*
G37*
G36*
X1484765Y1523046D02*
G01Y1550880D01*
G02X1489946Y1556061I5181J0D01*
G01X1504395D01*
G02X1509576Y1550880I0J-5181D01*
G01Y1523046D01*
G02X1504395Y1517865I-5181J0D01*
G01X1489946D01*
G02X1484765Y1523046I0J5181D01*
G37*
G36*
X1518230Y1524384D02*
G01Y1549542D01*
G02X1524749Y1556061I6519J0D01*
G01X1552269D01*
G02X1558789Y1549542I0J-6520D01*
G01Y1524384D01*
G02X1552269Y1517865I-6519J0D01*
G01X1524749D01*
G02X1518230Y1524384I0J6519D01*
G37*
G36*
X1535288Y1482829D02*
G02X1535288Y1482829I24875J0D01*
G37*
G36*
Y1591097D02*
G02X1535288Y1591097I24875J0D01*
G37*
G36*
X1539189Y941450D02*
G02X1539189Y941450I21000J0D01*
G37*
G36*
Y1049750D02*
G02X1539189Y1049750I21000J0D01*
G37*
G36*
Y1158050D02*
G02X1539189Y1158050I21000J0D01*
G37*
G36*
Y1266250D02*
G02X1539189Y1266250I21000J0D01*
G37*
G36*
Y1374550D02*
G02X1539189Y1374550I21000J0D01*
G37*
G36*
Y1699350D02*
G02X1539189Y1699350I21000J0D01*
G37*
G36*
X1596970Y1447455D02*
G01Y1518203D01*
G02X1602544Y1523778I5575J0D01*
G01X1635891D01*
G02X1641466Y1518203I0J-5575D01*
G01Y1447455D01*
G02X1635891Y1441880I-5575J0D01*
G01X1602544D01*
G02X1596970Y1447455I0J5575D01*
G37*
G36*
Y1555723D02*
G01Y1626471D01*
G02X1602544Y1632046I5575J0D01*
G01X1635891D01*
G02X1641466Y1626471I0J-5575D01*
G01Y1555723D01*
G02X1635891Y1550148I-5575J0D01*
G01X1602544D01*
G02X1596970Y1555723I0J5575D01*
G37*
G36*
X1647389Y941450D02*
G02X1647389Y941450I21000J0D01*
G37*
G36*
Y1049750D02*
G02X1647389Y1049750I21000J0D01*
G37*
G36*
Y1158050D02*
G02X1647389Y1158050I21000J0D01*
G37*
G36*
Y1266250D02*
G02X1647389Y1266250I21000J0D01*
G37*
G36*
Y1374550D02*
G02X1647389Y1374550I21000J0D01*
G37*
G36*
Y1482850D02*
G02X1647389Y1482850I21000J0D01*
G37*
G36*
Y1591050D02*
G02X1647389Y1591050I21000J0D01*
G37*
G36*
Y1699350D02*
G02X1647389Y1699350I21000J0D01*
G37*
G36*
X1755689Y941450D02*
G02X1755689Y941450I21000J0D01*
G37*
G36*
Y1049750D02*
G02X1755689Y1049750I21000J0D01*
G37*
G36*
Y1158050D02*
G02X1755689Y1158050I21000J0D01*
G37*
G36*
Y1266250D02*
G02X1755689Y1266250I21000J0D01*
G37*
G36*
Y1374550D02*
G02X1755689Y1374550I21000J0D01*
G37*
G36*
Y1482850D02*
G02X1755689Y1482850I21000J0D01*
G37*
G36*
Y1591050D02*
G02X1755689Y1591050I21000J0D01*
G37*
G36*
Y1699350D02*
G02X1755689Y1699350I21000J0D01*
G37*
G36*
X1863989Y941450D02*
G02X1863989Y941450I21000J0D01*
G37*
G36*
Y1049750D02*
G02X1863989Y1049750I21000J0D01*
G37*
G36*
Y1158050D02*
G02X1863989Y1158050I21000J0D01*
G37*
G36*
Y1266250D02*
G02X1863989Y1266250I21000J0D01*
G37*
G36*
Y1374550D02*
G02X1863989Y1374550I21000J0D01*
G37*
G36*
Y1482850D02*
G02X1863989Y1482850I21000J0D01*
G37*
G36*
Y1591050D02*
G02X1863989Y1591050I21000J0D01*
G37*
G36*
Y1699350D02*
G02X1863989Y1699350I21000J0D01*
G37*
G36*
X1972189Y941450D02*
G02X1972189Y941450I21000J0D01*
G37*
G36*
Y1049750D02*
G02X1972189Y1049750I21000J0D01*
G37*
G36*
Y1158050D02*
G02X1972189Y1158050I21000J0D01*
G37*
G36*
Y1266250D02*
G02X1972189Y1266250I21000J0D01*
G37*
G36*
Y1374550D02*
G02X1972189Y1374550I21000J0D01*
G37*
G36*
Y1482850D02*
G02X1972189Y1482850I21000J0D01*
G37*
G36*
Y1591050D02*
G02X1972189Y1591050I21000J0D01*
G37*
G36*
Y1699350D02*
G02X1972189Y1699350I21000J0D01*
G37*
G36*
X2020198Y1447455D02*
G01Y1518203D01*
G02X2025773Y1523778I5575J0D01*
G01X2059119D01*
G02X2064694Y1518203I0J-5575D01*
G01Y1447455D01*
G02X2059119Y1441880I-5575J0D01*
G01X2025773D01*
G02X2020198Y1447455I0J5575D01*
G37*
G36*
Y1555723D02*
G01Y1626471D01*
G02X2025773Y1632046I5575J0D01*
G01X2059119D01*
G02X2064694Y1626471I0J-5575D01*
G01Y1555723D01*
G02X2059119Y1550148I-5575J0D01*
G01X2025773D01*
G02X2020198Y1555723I0J5575D01*
G37*
G36*
X2026104Y1523046D02*
G01Y1550880D01*
G02X2031285Y1556061I5181J0D01*
G01X2045733D01*
G02X2050915Y1550880I0J-5181D01*
G01Y1523046D01*
G02X2045733Y1517865I-5181J0D01*
G01X2031285D01*
G02X2026104Y1523046I0J5181D01*
G37*
G36*
X2059568Y1524384D02*
G01Y1549542D01*
G02X2066088Y1556061I6519J0D01*
G01X2093607D01*
G02X2100127Y1549542I0J-6520D01*
G01Y1524384D01*
G02X2093607Y1517865I-6519J0D01*
G01X2066088D01*
G02X2059568Y1524384I0J6520D01*
G37*
G36*
X2076626Y1591097D02*
G02X2076626Y1591097I24875J0D01*
G37*
G36*
X2076751Y1482829D02*
G02X2076751Y1482829I24750J0D01*
G37*
G36*
X2080489Y941450D02*
G02X2080489Y941450I21000J0D01*
G37*
G36*
Y1049750D02*
G02X2080489Y1049750I21000J0D01*
G37*
G36*
Y1158050D02*
G02X2080489Y1158050I21000J0D01*
G37*
G36*
Y1266250D02*
G02X2080489Y1266250I21000J0D01*
G37*
G36*
Y1374550D02*
G02X2080489Y1374550I21000J0D01*
G37*
G36*
Y1699350D02*
G02X2080489Y1699350I21000J0D01*
G37*
G36*
X2138308Y1447455D02*
G01Y1518203D01*
G02X2143883Y1523778I5575J0D01*
G01X2177230D01*
G02X2182804Y1518203I-0J-5575D01*
G01Y1447455D01*
G02X2177230Y1441880I-5575J0D01*
G01X2143883D01*
G02X2138308Y1447455I0J5575D01*
G37*
G36*
Y1555723D02*
G01Y1626471D01*
G02X2143883Y1632046I5575J0D01*
G01X2177230D01*
G02X2182804Y1626471I-0J-5575D01*
G01Y1555723D01*
G02X2177230Y1550148I-5575J0D01*
G01X2143883D01*
G02X2138308Y1555723I0J5575D01*
G37*
G36*
X2188789Y941450D02*
G02X2188789Y941450I21000J0D01*
G37*
G36*
Y1049750D02*
G02X2188789Y1049750I21000J0D01*
G37*
G36*
Y1158050D02*
G02X2188789Y1158050I21000J0D01*
G37*
G36*
Y1266250D02*
G02X2188789Y1266250I21000J0D01*
G37*
G36*
Y1374550D02*
G02X2188789Y1374550I21000J0D01*
G37*
G36*
Y1482850D02*
G02X2188789Y1482850I21000J0D01*
G37*
G36*
Y1591050D02*
G02X2188789Y1591050I21000J0D01*
G37*
G36*
Y1699350D02*
G02X2188789Y1699350I21000J0D01*
G37*
G36*
X2296989Y941450D02*
G02X2296989Y941450I21000J0D01*
G37*
G36*
Y1049750D02*
G02X2296989Y1049750I21000J0D01*
G37*
G36*
Y1158050D02*
G02X2296989Y1158050I21000J0D01*
G37*
G36*
Y1266250D02*
G02X2296989Y1266250I21000J0D01*
G37*
G36*
Y1374550D02*
G02X2296989Y1374550I21000J0D01*
G37*
G36*
Y1482850D02*
G02X2296989Y1482850I21000J0D01*
G37*
G36*
Y1591050D02*
G02X2296989Y1591050I21000J0D01*
G37*
G36*
Y1699350D02*
G02X2296989Y1699350I21000J0D01*
G37*
G36*
X2405289Y1049750D02*
G02X2405289Y1049750I21000J0D01*
G37*
G36*
Y1591050D02*
G02X2405289Y1591050I21000J0D01*
G37*
G36*
X2459389Y941450D02*
G02X2459389Y941450I21000J0D01*
G37*
G36*
Y1158050D02*
G02X2459389Y1158050I21000J0D01*
G37*
G36*
Y1482850D02*
G02X2459389Y1482850I21000J0D01*
G37*
G36*
Y1699350D02*
G02X2459389Y1699350I21000J0D01*
G37*
G36*
X2513589Y1049750D02*
G02X2513589Y1049750I21000J0D01*
G37*
G36*
Y1591050D02*
G02X2513589Y1591050I21000J0D01*
G37*
G36*
X2675989Y1049750D02*
G02X2675989Y1049750I21000J0D01*
G37*
G36*
Y1591050D02*
G02X2675989Y1591050I21000J0D01*
G37*
G36*
X3104271Y236150D02*
G02X3104271Y236150I45417J0D01*
G37*
G54D13*
X3102485Y23578D02*
G01Y98381D01*
X3078863Y23578D02*
Y98381D01*
X3055241Y23578D02*
Y98381D01*
X3031619Y23578D02*
Y98381D01*
X3007997Y23578D02*
Y98381D01*
X2984375Y23578D02*
Y98381D01*
X2960753Y23578D02*
Y98381D01*
X2937131Y23578D02*
Y98381D01*
X2913509Y23578D02*
Y98381D01*
X2889887Y23578D02*
Y98381D01*
X2866265Y23578D02*
Y98381D01*
X2842643Y23578D02*
Y98381D01*
X2819021Y23578D02*
Y98381D01*
X2795399Y23578D02*
Y98381D01*
X2771777Y23578D02*
Y98381D01*
X2748155Y23578D02*
Y98381D01*
X2724533Y23578D02*
Y98381D01*
X2700911Y23578D02*
Y98381D01*
X2677289Y23578D02*
Y98381D01*
X2653667Y23578D02*
Y98381D01*
X2630044Y23578D02*
Y98381D01*
X2606422Y23578D02*
Y98381D01*
X2582800Y23578D02*
Y98381D01*
X2559178Y23578D02*
Y98381D01*
X2535556Y23578D02*
Y98381D01*
X2511934Y23578D02*
Y98381D01*
X2488312Y23578D02*
Y98381D01*
X2464690Y23578D02*
Y98381D01*
X2441068Y23578D02*
Y98381D01*
X2417446Y23578D02*
Y98381D01*
X2393824Y23578D02*
Y98381D01*
X2370202Y23578D02*
Y98381D01*
X2346580Y23578D02*
Y98381D01*
X2322958Y23578D02*
Y98381D01*
X2299336Y23578D02*
Y98381D01*
X2275714Y23578D02*
Y98381D01*
X2252092Y23578D02*
Y98381D01*
X2228470Y23578D02*
Y98381D01*
X2204848Y23578D02*
Y98381D01*
X2181226Y23578D02*
Y98381D01*
X2157604Y23578D02*
Y98381D01*
X2133981Y23578D02*
Y98381D01*
X2110359Y23578D02*
Y98381D01*
X2086737Y23578D02*
Y98381D01*
X2063115Y23578D02*
Y98381D01*
X2039493Y23578D02*
Y98381D01*
X2015871Y23578D02*
Y98381D01*
X1992249Y23578D02*
Y98381D01*
X1968627Y23578D02*
Y98381D01*
X1945005Y23578D02*
Y98381D01*
X1921383Y23578D02*
Y98381D01*
X1897761Y23578D02*
Y98381D01*
X1874139Y23578D02*
Y98381D01*
X1850517Y23578D02*
Y98381D01*
X1826895Y23578D02*
Y98381D01*
X1803273Y23578D02*
Y98381D01*
X1779651Y23578D02*
Y98381D01*
X1637919Y23578D02*
Y98381D01*
X1614296Y23578D02*
Y98381D01*
X1590674Y23578D02*
Y98381D01*
X1567052Y23578D02*
Y98381D01*
X1543430Y23578D02*
Y98381D01*
X1519808Y23578D02*
Y98381D01*
X1496186Y23578D02*
Y98381D01*
X1472564Y23578D02*
Y98381D01*
X1448942Y23578D02*
Y98381D01*
X1425320Y23578D02*
Y98381D01*
X1401698Y23578D02*
Y98381D01*
X1378076Y23578D02*
Y98381D01*
X1354454Y23578D02*
Y98381D01*
X1330832Y23578D02*
Y98381D01*
X1307210Y23578D02*
Y98381D01*
X1283588Y23578D02*
Y98381D01*
X1259966Y23578D02*
Y98381D01*
X1236344Y23578D02*
Y98381D01*
X1212722Y23578D02*
Y98381D01*
X1189100Y23578D02*
Y98381D01*
X1165478Y23578D02*
Y98381D01*
X1141856Y23578D02*
Y98381D01*
X1118233Y23578D02*
Y98381D01*
X1094611Y23578D02*
Y98381D01*
X1070989Y23578D02*
Y98381D01*
X1047367Y23578D02*
Y98381D01*
X1023745Y23578D02*
Y98381D01*
X1000123Y23578D02*
Y98381D01*
X976501Y23578D02*
Y98381D01*
X952879Y23578D02*
Y98381D01*
X929257Y23578D02*
Y98381D01*
X905635Y23578D02*
Y98381D01*
X882013Y23578D02*
Y98381D01*
X858391Y23578D02*
Y98381D01*
X834769Y23578D02*
Y98381D01*
X811147Y23578D02*
Y98381D01*
X787525Y23578D02*
Y98381D01*
X763903Y23578D02*
Y98381D01*
X740281Y23578D02*
Y98381D01*
X716659Y23578D02*
Y98381D01*
X693037Y23578D02*
Y98381D01*
X669415Y23578D02*
Y98381D01*
X645793Y23578D02*
Y98381D01*
X622170Y23578D02*
Y98381D01*
X598548Y23578D02*
Y98381D01*
X574926Y23578D02*
Y98381D01*
X551304Y23578D02*
Y98381D01*
X527682Y23578D02*
Y98381D01*
X504060Y23578D02*
Y98381D01*
X480438Y23578D02*
Y98381D01*
X456816Y23578D02*
Y98381D01*
X433194Y23578D02*
Y98381D01*
X409572Y23578D02*
Y98381D01*
X385950Y23578D02*
Y98381D01*
X362328Y23578D02*
Y98381D01*
X338706Y23578D02*
Y98381D01*
X315084Y23578D02*
Y98381D01*
X291462Y23578D02*
Y98381D01*
X267840Y23578D02*
Y98381D01*
X244218Y23578D02*
Y98381D01*
X220596Y23578D02*
Y98381D01*
X196974Y23578D02*
Y98381D01*
X173352Y23578D02*
Y98381D01*
X149730Y23578D02*
Y98381D01*
X126107Y23578D02*
Y98381D01*
G54D14*
X1127092Y1591097D03*
G54D15*
Y1482829D03*
G54D14*
X2101501Y1591097D03*
G54D15*
Y1482829D03*
G54D14*
X1560163Y1591097D03*
G54D16*
Y1482829D03*
G54D17*
X1101737Y1536963D02*
X1109138D01*
G54D18*
X1087678Y1553542D03*
X1123198D03*
G54D19*
X1090197D02*
X1120679D01*
G54D18*
X1087678Y1520384D03*
X1123198D03*
G54D19*
X1090197D02*
X1120679D01*
G54D20*
X1064100Y1529088D02*
Y1544837D01*
G54D21*
X1052876Y1519046D03*
Y1554880D03*
G54D22*
Y1520227D02*
Y1553699D01*
G54D21*
X1075324Y1519046D03*
Y1554880D03*
G54D22*
Y1520227D02*
Y1553699D01*
G54D23*
X1068037Y1570821D02*
Y1611373D01*
G54D24*
X1047364Y1551723D03*
Y1630471D03*
G54D25*
Y1553298D02*
Y1628896D01*
G54D24*
X1088710Y1551723D03*
Y1630471D03*
G54D25*
Y1553298D02*
Y1628896D01*
G54D23*
X1186147Y1570821D02*
Y1611373D01*
G54D24*
X1165474Y1551723D03*
Y1630471D03*
G54D25*
Y1553298D02*
Y1628896D01*
G54D24*
X1206820Y1551723D03*
Y1630471D03*
G54D25*
Y1553298D02*
Y1628896D01*
G54D23*
X1068037Y1462553D02*
Y1503105D01*
G54D24*
X1047364Y1443455D03*
Y1522203D03*
G54D25*
Y1445030D02*
Y1520628D01*
G54D24*
X1088710Y1443455D03*
Y1522203D03*
G54D25*
Y1445030D02*
Y1520628D01*
G54D23*
X1186147Y1462553D02*
Y1503105D01*
G54D24*
X1165474Y1443455D03*
Y1522203D03*
G54D25*
Y1445030D02*
Y1520628D01*
G54D24*
X1206820Y1443455D03*
Y1522203D03*
G54D25*
Y1445030D02*
Y1520628D01*
G54D23*
X1619218Y1570821D02*
Y1611373D01*
G54D24*
X1598545Y1551723D03*
Y1630471D03*
G54D25*
Y1553298D02*
Y1628896D01*
G54D24*
X1639891Y1551723D03*
Y1630471D03*
G54D25*
Y1553298D02*
Y1628896D01*
G54D23*
X1501107Y1570821D02*
Y1611373D01*
G54D24*
X1480434Y1551723D03*
Y1630471D03*
G54D25*
Y1553298D02*
Y1628896D01*
G54D24*
X1521780Y1551723D03*
Y1630471D03*
G54D25*
Y1553298D02*
Y1628896D01*
G54D23*
X1619218Y1462553D02*
Y1503105D01*
G54D24*
X1598545Y1443455D03*
Y1522203D03*
G54D25*
Y1445030D02*
Y1520628D01*
G54D24*
X1639891Y1443455D03*
Y1522203D03*
G54D25*
Y1445030D02*
Y1520628D01*
G54D23*
X1501107Y1462553D02*
Y1503105D01*
G54D24*
X1480434Y1443455D03*
Y1522203D03*
G54D25*
Y1445030D02*
Y1520628D01*
G54D24*
X1521780Y1443455D03*
Y1522203D03*
G54D25*
Y1445030D02*
Y1520628D01*
G54D23*
X2160556Y1570821D02*
Y1611373D01*
G54D24*
X2139883Y1551723D03*
Y1630471D03*
G54D25*
Y1553298D02*
Y1628896D01*
G54D24*
X2181229Y1551723D03*
Y1630471D03*
G54D25*
Y1553298D02*
Y1628896D01*
G54D23*
X2042446Y1570821D02*
Y1611373D01*
G54D24*
X2021773Y1551723D03*
Y1630471D03*
G54D25*
Y1553298D02*
Y1628896D01*
G54D24*
X2063119Y1551723D03*
Y1630471D03*
G54D25*
Y1553298D02*
Y1628896D01*
G54D23*
X2160556Y1462553D02*
Y1503105D01*
G54D24*
X2139883Y1443455D03*
Y1522203D03*
G54D25*
Y1445030D02*
Y1520628D01*
G54D24*
X2181229Y1443455D03*
Y1522203D03*
G54D25*
Y1445030D02*
Y1520628D01*
G54D23*
X2042446Y1462553D02*
Y1503105D01*
G54D24*
X2021773Y1443455D03*
Y1522203D03*
G54D25*
Y1445030D02*
Y1520628D01*
G54D24*
X2063119Y1443455D03*
Y1522203D03*
G54D25*
Y1445030D02*
Y1520628D01*
G54D17*
X2076147Y1536963D02*
X2083548D01*
G54D18*
X2062088Y1553542D03*
X2097608D03*
G54D19*
X2064607D02*
X2095089D01*
G54D18*
X2062088Y1520384D03*
X2097608D03*
G54D19*
X2064607D02*
X2095089D01*
G54D20*
X2038508Y1529088D02*
Y1544837D01*
G54D21*
X2027285Y1519046D03*
Y1554880D03*
G54D22*
Y1520227D02*
Y1553699D01*
G54D21*
X2049733Y1519046D03*
Y1554880D03*
G54D22*
Y1520227D02*
Y1553699D01*
G54D17*
X1534808Y1536963D02*
X1542209D01*
G54D18*
X1520749Y1553542D03*
X1556269D03*
G54D19*
X1523268D02*
X1553750D01*
G54D18*
X1520749Y1520384D03*
X1556269D03*
G54D19*
X1523268D02*
X1553750D01*
G54D20*
X1497169Y1529088D02*
Y1544837D01*
G54D21*
X1485946Y1519046D03*
Y1554880D03*
G54D22*
Y1520227D02*
Y1553699D01*
G54D21*
X1508394Y1519046D03*
Y1554880D03*
G54D22*
Y1520227D02*
Y1553699D01*
G54D26*
X531589Y1591050D03*
Y1049750D03*
X693989Y1591050D03*
Y1049750D03*
X748189Y1699350D03*
Y1482850D03*
Y1158050D03*
Y941450D03*
X802289Y1591050D03*
Y1049750D03*
X910589Y1699350D03*
Y1591050D03*
Y1482850D03*
Y1374550D03*
Y1266250D03*
Y1158050D03*
Y1049750D03*
Y941450D03*
X1018789Y1699350D03*
Y1591050D03*
Y1482850D03*
Y1374550D03*
Y1266250D03*
Y1158050D03*
Y1049750D03*
Y941450D03*
X1127089Y1699350D03*
Y1374550D03*
Y1266250D03*
Y1158050D03*
Y1049750D03*
Y941450D03*
X1235389Y1699350D03*
Y1591050D03*
Y1482850D03*
Y1374550D03*
Y1266250D03*
Y1158050D03*
Y1049750D03*
Y941450D03*
X1343589Y1699350D03*
Y1591050D03*
Y1482850D03*
Y1374550D03*
Y1266250D03*
Y1158050D03*
Y1049750D03*
Y941450D03*
X1451889Y1699350D03*
Y1591050D03*
Y1482850D03*
Y1374550D03*
Y1266250D03*
Y1158050D03*
Y1049750D03*
Y941450D03*
X1560189Y1699350D03*
Y1374550D03*
Y1266250D03*
Y1158050D03*
Y1049750D03*
Y941450D03*
X1668389Y1699350D03*
Y1591050D03*
Y1482850D03*
Y1374550D03*
Y1266250D03*
Y1158050D03*
Y1049750D03*
Y941450D03*
X1776689Y1699350D03*
Y1591050D03*
Y1482850D03*
Y1374550D03*
Y1266250D03*
Y1158050D03*
Y1049750D03*
Y941450D03*
X1884989Y1699350D03*
Y1591050D03*
Y1482850D03*
Y1374550D03*
Y1266250D03*
Y1158050D03*
Y1049750D03*
Y941450D03*
X1993189Y1699350D03*
Y1591050D03*
Y1482850D03*
Y1374550D03*
Y1266250D03*
Y1158050D03*
Y1049750D03*
Y941450D03*
X2101489Y1699350D03*
Y1374550D03*
Y1266250D03*
Y1158050D03*
Y1049750D03*
Y941450D03*
X2209789Y1699350D03*
Y1591050D03*
Y1482850D03*
Y1374550D03*
Y1266250D03*
Y1158050D03*
Y1049750D03*
Y941450D03*
X2317989Y1699350D03*
Y1591050D03*
Y1482850D03*
Y1374550D03*
Y1266250D03*
Y1158050D03*
Y1049750D03*
Y941450D03*
X2426289Y1591050D03*
Y1049750D03*
X2480389Y1699350D03*
Y1482850D03*
Y1158050D03*
Y941450D03*
X2534589Y1591050D03*
Y1049750D03*
X2696989Y1591050D03*
Y1049750D03*
G36*
X96485Y-5000D02*
Y120128D01*
X1715708D01*
Y-5000D01*
X96485D01*
G37*
G36*
X1740781Y-5007D02*
Y120128D01*
X3132107D01*
Y-5007D01*
X1740781D01*
G37*
G54D27*
X102485Y3953D02*
Y114128D01*
X3126107D01*
Y3946D01*
G54D28*
X0Y0D02*
Y354086D01*
X39286D01*
X47194Y355039D01*
X54560Y357322D01*
X61226Y360937D01*
X67034Y365726D01*
X71826Y371531D01*
X75445Y378196D01*
X77732Y385560D01*
X78531Y393468D01*
X77732Y401375D01*
X75445Y408740D01*
X71826Y415404D01*
X67034Y421209D01*
X61226Y425999D01*
X54560Y429613D01*
X47194Y431896D01*
X39286Y432692D01*
X-21Y432671D01*
Y708692D01*
X15782Y710294D01*
X30500Y714872D01*
X43819Y722107D01*
X55422Y731687D01*
X64996Y743296D01*
X72225Y756618D01*
X76794Y771338D01*
X78389Y787142D01*
X76798Y802949D01*
X72231Y817673D01*
X65003Y830998D01*
X55429Y842610D01*
X43825Y852193D01*
X30505Y859431D01*
X15785Y864009D01*
X-21Y865612D01*
Y2107311D01*
X779Y2115236D01*
X3073Y2122618D01*
X6702Y2129298D01*
X11508Y2135119D01*
X17332Y2139921D01*
X24015Y2143547D01*
X31399Y2145839D01*
X39326Y2146638D01*
X3188978Y2146632D01*
X3196904Y2145833D01*
X3204286Y2143542D01*
X3210967Y2139916D01*
X3216787Y2135113D01*
X3221589Y2129293D01*
X3225215Y2122613D01*
X3227506Y2115231D01*
X3228306Y2107306D01*
X3228069Y865586D01*
X3212301Y863944D01*
X3197620Y859342D01*
X3184339Y852093D01*
X3172771Y842511D01*
X3163228Y830911D01*
X3156024Y817606D01*
X3151472Y802909D01*
X3149881Y787136D01*
X3151472Y771370D01*
X3156024Y756682D01*
X3163224Y743383D01*
X3172761Y731787D01*
X3184322Y722209D01*
X3197594Y714959D01*
X3212267Y710354D01*
X3228026Y708705D01*
X3227908Y432663D01*
X3188907Y432684D01*
X3180999Y431889D01*
X3173633Y429606D01*
X3166967Y425991D01*
X3161159Y421202D01*
X3156367Y415396D01*
X3152748Y408732D01*
X3150461Y401367D01*
X3149662Y393460D01*
X3150461Y385552D01*
X3152748Y378188D01*
X3156367Y371524D01*
X3161159Y365718D01*
X3166967Y360929D01*
X3173633Y357315D01*
X3180999Y355031D01*
X3188907Y354236D01*
X3188891Y354157D01*
X3188907Y354078D01*
X3227888D01*
X3227770Y-7D01*
X1745781D01*
Y131948D01*
X1745290Y136069D01*
X1743844Y139960D01*
X1741524Y143402D01*
X1738460Y146202D01*
X1734824Y148203D01*
X1730820Y149294D01*
X1726671Y149414D01*
X1722610Y148555D01*
X1718865Y146766D01*
X1715646Y144146D01*
X1713132Y140844D01*
X1711464Y137043D01*
X1710737Y132957D01*
X1710708Y131948D01*
Y0D01*
X0D01*
G54D29*
X3102485Y23577D02*
Y98381D01*
X3078863Y23577D02*
Y98381D01*
X3055241Y23577D02*
Y98381D01*
X3031619Y23577D02*
Y98381D01*
X3007997Y23577D02*
Y98381D01*
X2984375Y23577D02*
Y98381D01*
X2960753Y23577D02*
Y98381D01*
X2937131Y23577D02*
Y98381D01*
X2913509Y23577D02*
Y98381D01*
X2889887Y23577D02*
Y98381D01*
X2866265Y23577D02*
Y98381D01*
X2842643Y23577D02*
Y98381D01*
X2819021Y23577D02*
Y98381D01*
X2795399Y23577D02*
Y98381D01*
X2771777Y23577D02*
Y98381D01*
X2748155Y23577D02*
Y98381D01*
X2724533Y23577D02*
Y98381D01*
X2700911Y23577D02*
Y98381D01*
X2677289Y23577D02*
Y98381D01*
X2653667Y23577D02*
Y98381D01*
X2630044Y23577D02*
Y98381D01*
X2606422Y23577D02*
Y98381D01*
X2582800Y23577D02*
Y98381D01*
X2559178Y23577D02*
Y98381D01*
X2535556Y23577D02*
Y98381D01*
X2511934Y23577D02*
Y98381D01*
X2488312Y23577D02*
Y98381D01*
X2464690Y23577D02*
Y98381D01*
X2441068Y23577D02*
Y98381D01*
X2417446Y23577D02*
Y98381D01*
X2393824Y23577D02*
Y98381D01*
X2370202Y23577D02*
Y98381D01*
X2346580Y23577D02*
Y98381D01*
X2322958Y23577D02*
Y98381D01*
X2299336Y23577D02*
Y98381D01*
X2275714Y23577D02*
Y98381D01*
X2252092Y23577D02*
Y98381D01*
X2228470Y23577D02*
Y98381D01*
X2204848Y23577D02*
Y98381D01*
X2181226Y23577D02*
Y98381D01*
X2157604Y23577D02*
Y98381D01*
X2133981Y23577D02*
Y98381D01*
X2110359Y23577D02*
Y98381D01*
X2086737Y23577D02*
Y98381D01*
X2063115Y23577D02*
Y98381D01*
X2039493Y23577D02*
Y98381D01*
X2015871Y23577D02*
Y98381D01*
X1992249Y23577D02*
Y98381D01*
X1968627Y23577D02*
Y98381D01*
X1945005Y23577D02*
Y98381D01*
X1921383Y23577D02*
Y98381D01*
X1897761Y23577D02*
Y98381D01*
X1874139Y23577D02*
Y98381D01*
X1850517Y23577D02*
Y98381D01*
X1826895Y23577D02*
Y98381D01*
X1803273Y23577D02*
Y98381D01*
X1779651Y23577D02*
Y98381D01*
X1637919Y23577D02*
Y98381D01*
X1614296Y23577D02*
Y98381D01*
X1590674Y23577D02*
Y98381D01*
X1567052Y23577D02*
Y98381D01*
X1543430Y23577D02*
Y98381D01*
X1519808Y23577D02*
Y98381D01*
X1496186Y23577D02*
Y98381D01*
X1472564Y23577D02*
Y98381D01*
X1448942Y23577D02*
Y98381D01*
X1425320Y23577D02*
Y98381D01*
X1401698Y23577D02*
Y98381D01*
X1378076Y23577D02*
Y98381D01*
X1354454Y23577D02*
Y98381D01*
X1330832Y23577D02*
Y98381D01*
X1307210Y23577D02*
Y98381D01*
X1283588Y23577D02*
Y98381D01*
X1259966Y23577D02*
Y98381D01*
X1236344Y23577D02*
Y98381D01*
X1212722Y23577D02*
Y98381D01*
X1189100Y23577D02*
Y98381D01*
X1165478Y23577D02*
Y98381D01*
X1141856Y23577D02*
Y98381D01*
X1118233Y23577D02*
Y98381D01*
X1094611Y23577D02*
Y98381D01*
X1070989Y23577D02*
Y98381D01*
X1047367Y23577D02*
Y98381D01*
X1023745Y23577D02*
Y98381D01*
X1000123Y23577D02*
Y98381D01*
X976501Y23577D02*
Y98381D01*
X952879Y23577D02*
Y98381D01*
X929257Y23577D02*
Y98381D01*
X905635Y23577D02*
Y98381D01*
X882013Y23577D02*
Y98381D01*
X858391Y23577D02*
Y98381D01*
X834769Y23577D02*
Y98381D01*
X811147Y23577D02*
Y98381D01*
X787525Y23577D02*
Y98381D01*
X763903Y23577D02*
Y98381D01*
X740281Y23577D02*
Y98381D01*
X716659Y23577D02*
Y98381D01*
X693037Y23577D02*
Y98381D01*
X669415Y23577D02*
Y98381D01*
X645793Y23577D02*
Y98381D01*
X622170Y23577D02*
Y98381D01*
X598548Y23577D02*
Y98381D01*
X574926Y23577D02*
Y98381D01*
X551304Y23577D02*
Y98381D01*
X527682Y23577D02*
Y98381D01*
X504060Y23577D02*
Y98381D01*
X480438Y23577D02*
Y98381D01*
X456816Y23577D02*
Y98381D01*
X433194Y23577D02*
Y98381D01*
X409572Y23577D02*
Y98381D01*
X385950Y23577D02*
Y98381D01*
X362328Y23577D02*
Y98381D01*
X338706Y23577D02*
Y98381D01*
X315084Y23577D02*
Y98381D01*
X291462Y23577D02*
Y98381D01*
X267840Y23577D02*
Y98381D01*
X244218Y23577D02*
Y98381D01*
X220596Y23577D02*
Y98381D01*
X196974Y23577D02*
Y98381D01*
X173352Y23577D02*
Y98381D01*
X149730Y23577D02*
Y98381D01*
X126107Y23577D02*
Y98381D01*
G54D30*
X78889Y236150D03*
X3149689D03*
%LPD*%
G75*
X3149689Y236150D02*
G54D10*
X1049055Y1995779D02*
X1060303D01*
X1065927Y1992967D01*
X1068740Y1990155D01*
X1074364Y1981718D01*
X1077176Y1970470D01*
Y1947973D01*
X1074364Y1942348D01*
X1071552Y1939536D01*
X1065927Y1936724D01*
X1054679D01*
X1049055Y1939536D01*
X1046242Y1942348D01*
X1043430Y1947973D01*
Y1962033D01*
X1046242Y1967658D01*
X1049055Y1970470D01*
X1054679Y1973282D01*
X1065927D01*
X1071552Y1970470D01*
X1074364Y1967658D01*
X1077176Y1962033D01*
%LPC*%
G75*
X1077176Y1962033D02*
G54D23*
X1066856Y1570821D02*
Y1611373D01*
G54D24*
X1046183Y1551723D03*
Y1630471D03*
G54D25*
Y1553298D02*
Y1628896D01*
G54D24*
X1087529Y1551723D03*
Y1630471D03*
G54D25*
Y1553298D02*
Y1628896D01*
G54D23*
X1187328Y1570821D02*
Y1611373D01*
G54D24*
X1166655Y1551723D03*
Y1630471D03*
G54D25*
Y1553298D02*
Y1628896D01*
G54D24*
X1208001Y1551723D03*
Y1630471D03*
G54D25*
Y1553298D02*
Y1628896D01*
G54D23*
X1066856Y1462553D02*
Y1503105D01*
G54D24*
X1046183Y1443455D03*
Y1522203D03*
G54D25*
Y1445030D02*
Y1520628D01*
G54D24*
X1087529Y1443455D03*
Y1522203D03*
G54D25*
Y1445030D02*
Y1520628D01*
G54D23*
X1187328Y1462553D02*
Y1503105D01*
G54D24*
X1166655Y1443455D03*
Y1522203D03*
G54D25*
Y1445030D02*
Y1520628D01*
G54D24*
X1208001Y1443455D03*
Y1522203D03*
G54D25*
Y1445030D02*
Y1520628D01*
G54D23*
X1620399Y1570821D02*
Y1611373D01*
G54D24*
X1599726Y1551723D03*
Y1630471D03*
G54D25*
Y1553298D02*
Y1628896D01*
G54D24*
X1641072Y1551723D03*
Y1630471D03*
G54D25*
Y1553298D02*
Y1628896D01*
G54D23*
X1499926Y1570821D02*
Y1611373D01*
G54D24*
X1479253Y1551723D03*
Y1630471D03*
G54D25*
Y1553298D02*
Y1628896D01*
G54D24*
X1520599Y1551723D03*
Y1630471D03*
G54D25*
Y1553298D02*
Y1628896D01*
G54D23*
X1620399Y1462553D02*
Y1503105D01*
G54D24*
X1599726Y1443455D03*
Y1522203D03*
G54D25*
Y1445030D02*
Y1520628D01*
G54D24*
X1641072Y1443455D03*
Y1522203D03*
G54D25*
Y1445030D02*
Y1520628D01*
G54D23*
X1499926Y1462553D02*
Y1503105D01*
G54D24*
X1479253Y1443455D03*
Y1522203D03*
G54D25*
Y1445030D02*
Y1520628D01*
G54D24*
X1520599Y1443455D03*
Y1522203D03*
G54D25*
Y1445030D02*
Y1520628D01*
G54D23*
X2161737Y1570821D02*
Y1611373D01*
G54D24*
X2141064Y1551723D03*
Y1630471D03*
G54D25*
Y1553298D02*
Y1628896D01*
G54D24*
X2182410Y1551723D03*
Y1630471D03*
G54D25*
Y1553298D02*
Y1628896D01*
G54D23*
X2041265Y1570821D02*
Y1611373D01*
G54D24*
X2020592Y1551723D03*
Y1630471D03*
G54D25*
Y1553298D02*
Y1628896D01*
G54D24*
X2061938Y1551723D03*
Y1630471D03*
G54D25*
Y1553298D02*
Y1628896D01*
G54D23*
X2161737Y1462553D02*
Y1503105D01*
G54D24*
X2141064Y1443455D03*
Y1522203D03*
G54D25*
Y1445030D02*
Y1520628D01*
G54D24*
X2182410Y1443455D03*
Y1522203D03*
G54D25*
Y1445030D02*
Y1520628D01*
G54D23*
X2041265Y1462553D02*
Y1503105D01*
G54D24*
X2020592Y1443455D03*
Y1522203D03*
G54D25*
Y1445030D02*
Y1520628D01*
G54D24*
X2061938Y1443455D03*
Y1522203D03*
G54D25*
Y1445030D02*
Y1520628D01*
G54D31*
X2115833Y1622490D02*
X2130248Y1629609D01*
X2133347Y1623332D01*
X2118932Y1616214D01*
X2115833Y1622490D01*
G54D32*
X2118173Y1623106D02*
X2131794D01*
X2117386Y1622717D02*
X2131007D01*
X2118475Y1618268D02*
X2121964D01*
X2117624Y1619993D02*
X2125455D01*
X2116772Y1621717D02*
X2128947D01*
X2119159Y1616883D02*
X2116502Y1622263D01*
X2132691Y1623566D02*
X2119159Y1616883D01*
X2120233Y1624106D02*
X2132408D01*
X2123725Y1625830D02*
X2131556D01*
X2127216Y1627554D02*
X2130705D01*
X2116488Y1622256D02*
X2130021Y1628939D01*
X2132678Y1623559D01*
M02*
