*
%FSLAX26Y26*%
%MOIN*%
%ADD10R,0.020748X0.020748*%
%ADD11C,0.041750*%
%ADD12C,0.041500*%
%ADD13R,0.025157X0.025157*%
%ADD14C,0.005039*%
%ADD15R,0.005039X0.005039*%
%ADD16R,0.014449X0.014449*%
%ADD17C,0.002362*%
%ADD18R,0.002362X0.002362*%
%ADD19C,0.034000*%
%ADD20C,0.077250*%
%ADD21C,0.004000*%
%ADD22C,0.082835*%
%ADD23C,0.005906*%
%ADD24R,0.033346X0.033346*%
%ADD25C,0.003150*%
%ADD26R,0.003150X0.003150*%
%ADD27C,0.001500*%
%ADD28C,0.000750*%
%ADD29C,0.001250*%
%ADD30R,0.001000X0.001000*%
%ADD31C,0.001000*%
%ADD32R,0.001750X0.001750*%
%ADD33R,0.001500X0.001500*%
%ADD34R,0.004500X0.004500*%
%ADD35R,0.002000X0.002000*%
%IPPOS*%
%LNgbs.gbr*%
%LPD*%
G75*
G54D10*
X3102485Y23577D02*
Y98381D01*
X3078863Y23577D02*
Y98381D01*
X3055241Y23577D02*
Y98381D01*
X3031619Y23577D02*
Y98381D01*
X3007997Y23577D02*
Y98381D01*
X2984375Y23577D02*
Y98381D01*
X2960753Y23577D02*
Y98381D01*
X2937131Y23577D02*
Y98381D01*
X2913509Y23577D02*
Y98381D01*
X2889887Y23577D02*
Y98381D01*
X2866265Y23577D02*
Y98381D01*
X2842643Y23577D02*
Y98381D01*
X2819021Y23577D02*
Y98381D01*
X2795399Y23577D02*
Y98381D01*
X2771777Y23577D02*
Y98381D01*
X2748155Y23577D02*
Y98381D01*
X2724533Y23577D02*
Y98381D01*
X2700911Y23577D02*
Y98381D01*
X2677289Y23577D02*
Y98381D01*
X2653667Y23577D02*
Y98381D01*
X2630044Y23577D02*
Y98381D01*
X2606422Y23577D02*
Y98381D01*
X2582800Y23577D02*
Y98381D01*
X2559178Y23577D02*
Y98381D01*
X2535556Y23577D02*
Y98381D01*
X2511934Y23577D02*
Y98381D01*
X2488312Y23577D02*
Y98381D01*
X2464690Y23577D02*
Y98381D01*
X2441068Y23577D02*
Y98381D01*
X2417446Y23577D02*
Y98381D01*
X2393824Y23577D02*
Y98381D01*
X2370202Y23577D02*
Y98381D01*
X2346580Y23577D02*
Y98381D01*
X2322958Y23577D02*
Y98381D01*
X2299336Y23577D02*
Y98381D01*
X2275714Y23577D02*
Y98381D01*
X2252092Y23577D02*
Y98381D01*
X2228470Y23577D02*
Y98381D01*
X2204848Y23577D02*
Y98381D01*
X2181226Y23577D02*
Y98381D01*
X2157604Y23577D02*
Y98381D01*
X2133981Y23577D02*
Y98381D01*
X2110359Y23577D02*
Y98381D01*
X2086737Y23577D02*
Y98381D01*
X2063115Y23577D02*
Y98381D01*
X2039493Y23577D02*
Y98381D01*
X2015871Y23577D02*
Y98381D01*
X1992249Y23577D02*
Y98381D01*
X1968627Y23577D02*
Y98381D01*
X1945005Y23577D02*
Y98381D01*
X1921383Y23577D02*
Y98381D01*
X1897761Y23577D02*
Y98381D01*
X1874139Y23577D02*
Y98381D01*
X1850517Y23577D02*
Y98381D01*
X1826895Y23577D02*
Y98381D01*
X1803273Y23577D02*
Y98381D01*
X1779651Y23577D02*
Y98381D01*
X1637919Y23577D02*
Y98381D01*
X1614296Y23577D02*
Y98381D01*
X1590674Y23577D02*
Y98381D01*
X1567052Y23577D02*
Y98381D01*
X1543430Y23577D02*
Y98381D01*
X1519808Y23577D02*
Y98381D01*
X1496186Y23577D02*
Y98381D01*
X1472564Y23577D02*
Y98381D01*
X1448942Y23577D02*
Y98381D01*
X1425320Y23577D02*
Y98381D01*
X1401698Y23577D02*
Y98381D01*
X1378076Y23577D02*
Y98381D01*
X1354454Y23577D02*
Y98381D01*
X1330832Y23577D02*
Y98381D01*
X1307210Y23577D02*
Y98381D01*
X1283588Y23577D02*
Y98381D01*
X1259966Y23577D02*
Y98381D01*
X1236344Y23577D02*
Y98381D01*
X1212722Y23577D02*
Y98381D01*
X1189100Y23577D02*
Y98381D01*
X1165478Y23577D02*
Y98381D01*
X1141856Y23577D02*
Y98381D01*
X1118233Y23577D02*
Y98381D01*
X1094611Y23577D02*
Y98381D01*
X1070989Y23577D02*
Y98381D01*
X1047367Y23577D02*
Y98381D01*
X1023745Y23577D02*
Y98381D01*
X1000123Y23577D02*
Y98381D01*
X976501Y23577D02*
Y98381D01*
X952879Y23577D02*
Y98381D01*
X929257Y23577D02*
Y98381D01*
X905635Y23577D02*
Y98381D01*
X882013Y23577D02*
Y98381D01*
X858391Y23577D02*
Y98381D01*
X834769Y23577D02*
Y98381D01*
X811147Y23577D02*
Y98381D01*
X787525Y23577D02*
Y98381D01*
X763903Y23577D02*
Y98381D01*
X740281Y23577D02*
Y98381D01*
X716659Y23577D02*
Y98381D01*
X693037Y23577D02*
Y98381D01*
X669415Y23577D02*
Y98381D01*
X645793Y23577D02*
Y98381D01*
X622170Y23577D02*
Y98381D01*
X598548Y23577D02*
Y98381D01*
X574926Y23577D02*
Y98381D01*
X551304Y23577D02*
Y98381D01*
X527682Y23577D02*
Y98381D01*
X504060Y23577D02*
Y98381D01*
X480438Y23577D02*
Y98381D01*
X456816Y23577D02*
Y98381D01*
X433194Y23577D02*
Y98381D01*
X409572Y23577D02*
Y98381D01*
X385950Y23577D02*
Y98381D01*
X362328Y23577D02*
Y98381D01*
X338706Y23577D02*
Y98381D01*
X315084Y23577D02*
Y98381D01*
X291462Y23577D02*
Y98381D01*
X267840Y23577D02*
Y98381D01*
X244218Y23577D02*
Y98381D01*
X220596Y23577D02*
Y98381D01*
X196974Y23577D02*
Y98381D01*
X173352Y23577D02*
Y98381D01*
X149730Y23577D02*
Y98381D01*
X126107Y23577D02*
Y98381D01*
G54D11*
X1127092Y1591097D03*
G54D12*
Y1482829D03*
G54D11*
X2101501Y1591097D03*
G54D12*
Y1482829D03*
G54D11*
X1560163Y1591097D03*
Y1482829D03*
G54D13*
X1101737Y1536963D02*
X1109138D01*
G54D14*
X1091678Y1549542D03*
X1119198D03*
G54D15*
X1094197D02*
X1116679D01*
G54D14*
X1091678Y1524384D03*
X1119198D03*
G54D15*
X1094197D02*
X1116679D01*
G54D16*
X1064100Y1529089D02*
Y1544838D01*
G54D17*
X1056876Y1523046D03*
Y1550880D03*
G54D18*
Y1524227D02*
Y1549699D01*
G54D17*
X1071324Y1523046D03*
Y1550880D03*
G54D18*
Y1524227D02*
Y1549699D01*
G54D13*
X2076147Y1536963D02*
X2083549D01*
G54D14*
X2066088Y1549542D03*
X2093608D03*
G54D15*
X2068607D02*
X2091089D01*
G54D14*
X2066088Y1524384D03*
X2093608D03*
G54D15*
X2068607D02*
X2091089D01*
G54D16*
X2038509Y1529089D02*
Y1544838D01*
G54D17*
X2031285Y1523046D03*
Y1550880D03*
G54D18*
Y1524227D02*
Y1549699D01*
G54D17*
X2045733Y1523046D03*
Y1550880D03*
G54D18*
Y1524227D02*
Y1549699D01*
G54D13*
X1534807Y1536963D02*
X1542209D01*
G54D14*
X1524749Y1549542D03*
X1552269D03*
G54D15*
X1527268D02*
X1549750D01*
G54D14*
X1524749Y1524384D03*
X1552269D03*
G54D15*
X1527268D02*
X1549750D01*
G54D16*
X1497170Y1529089D02*
Y1544838D01*
G54D17*
X1489946Y1523046D03*
Y1550880D03*
G54D18*
Y1524227D02*
Y1549699D01*
G54D17*
X1504394Y1523046D03*
Y1550880D03*
G54D18*
Y1524227D02*
Y1549699D01*
G54D19*
X531589Y1591050D03*
Y1049750D03*
X693989Y1591050D03*
Y1049750D03*
X748189Y1699350D03*
Y1482850D03*
Y1158050D03*
Y941450D03*
X802289Y1591050D03*
Y1049750D03*
X910589Y1699350D03*
Y1591050D03*
Y1482850D03*
Y1374550D03*
Y1266250D03*
Y1158050D03*
Y1049750D03*
Y941450D03*
X1018789Y1699350D03*
Y1591050D03*
Y1482850D03*
Y1374550D03*
Y1266250D03*
Y1158050D03*
Y1049750D03*
Y941450D03*
X1127089Y1699350D03*
Y1374550D03*
Y1266250D03*
Y1158050D03*
Y1049750D03*
Y941450D03*
X1235389Y1699350D03*
Y1591050D03*
Y1482850D03*
Y1374550D03*
Y1266250D03*
Y1158050D03*
Y1049750D03*
Y941450D03*
X1343589Y1699350D03*
Y1591050D03*
Y1482850D03*
Y1374550D03*
Y1266250D03*
Y1158050D03*
Y1049750D03*
Y941450D03*
X1451889Y1699350D03*
Y1591050D03*
Y1482850D03*
Y1374550D03*
Y1266250D03*
Y1158050D03*
Y1049750D03*
Y941450D03*
X1560189Y1699350D03*
Y1374550D03*
Y1266250D03*
Y1158050D03*
Y1049750D03*
Y941450D03*
X1668389Y1699350D03*
Y1591050D03*
Y1482850D03*
Y1374550D03*
Y1266250D03*
Y1158050D03*
Y1049750D03*
Y941450D03*
X1776689Y1699350D03*
Y1591050D03*
Y1482850D03*
Y1374550D03*
Y1266250D03*
Y1158050D03*
Y1049750D03*
Y941450D03*
X1884989Y1699350D03*
Y1591050D03*
Y1482850D03*
Y1374550D03*
Y1266250D03*
Y1158050D03*
Y1049750D03*
Y941450D03*
X1993189Y1699350D03*
Y1591050D03*
Y1482850D03*
Y1374550D03*
Y1266250D03*
Y1158050D03*
Y1049750D03*
Y941450D03*
X2101489Y1699350D03*
Y1374550D03*
Y1266250D03*
Y1158050D03*
Y1049750D03*
Y941450D03*
X2209789Y1699350D03*
Y1591050D03*
Y1482850D03*
Y1374550D03*
Y1266250D03*
Y1158050D03*
Y1049750D03*
Y941450D03*
X2317989Y1699350D03*
Y1591050D03*
Y1482850D03*
Y1374550D03*
Y1266250D03*
Y1158050D03*
Y1049750D03*
Y941450D03*
X2426289Y1591050D03*
Y1049750D03*
X2480389Y1699350D03*
Y1482850D03*
Y1158050D03*
Y941450D03*
X2534589Y1591050D03*
Y1049750D03*
X2696989Y1591050D03*
Y1049750D03*
G54D20*
X78889Y236150D03*
X3149689D03*
G54D21*
X0Y0D02*
Y354086D01*
X39286D01*
X47194Y355039D01*
X54560Y357322D01*
X61226Y360937D01*
X67034Y365726D01*
X71826Y371531D01*
X75445Y378196D01*
X77732Y385560D01*
X78531Y393468D01*
X77732Y401375D01*
X75445Y408740D01*
X71826Y415404D01*
X67034Y421209D01*
X61226Y425999D01*
X54560Y429613D01*
X47194Y431896D01*
X39286Y432692D01*
X-21Y432671D01*
Y708692D01*
X15782Y710294D01*
X30500Y714872D01*
X43819Y722107D01*
X55422Y731687D01*
X64996Y743296D01*
X72225Y756618D01*
X76794Y771338D01*
X78389Y787142D01*
X76798Y802949D01*
X72231Y817673D01*
X65003Y830998D01*
X55429Y842610D01*
X43825Y852193D01*
X30505Y859431D01*
X15785Y864009D01*
X-21Y865612D01*
Y2107311D01*
X779Y2115236D01*
X3073Y2122618D01*
X6702Y2129298D01*
X11508Y2135119D01*
X17332Y2139921D01*
X24015Y2143547D01*
X31399Y2145839D01*
X39326Y2146638D01*
X3188978Y2146632D01*
X3196904Y2145833D01*
X3204286Y2143542D01*
X3210967Y2139916D01*
X3216787Y2135113D01*
X3221589Y2129293D01*
X3225215Y2122613D01*
X3227506Y2115231D01*
X3228306Y2107306D01*
X3228069Y865586D01*
X3212301Y863944D01*
X3197620Y859342D01*
X3184339Y852093D01*
X3172771Y842511D01*
X3163228Y830911D01*
X3156024Y817606D01*
X3151472Y802909D01*
X3149881Y787136D01*
X3151472Y771370D01*
X3156024Y756682D01*
X3163224Y743383D01*
X3172761Y731787D01*
X3184322Y722209D01*
X3197594Y714959D01*
X3212267Y710354D01*
X3228026Y708705D01*
X3227908Y432663D01*
X3188907Y432684D01*
X3180999Y431889D01*
X3173633Y429606D01*
X3166967Y425991D01*
X3161159Y421202D01*
X3156367Y415396D01*
X3152748Y408732D01*
X3150461Y401367D01*
X3149662Y393460D01*
X3150461Y385552D01*
X3152748Y378188D01*
X3156367Y371524D01*
X3161159Y365718D01*
X3166967Y360929D01*
X3173633Y357315D01*
X3180999Y355031D01*
X3188907Y354236D01*
X3188891Y354157D01*
X3188907Y354078D01*
X3227888D01*
X3227770Y-7D01*
X1745781D01*
Y131948D01*
X1745290Y136069D01*
X1743844Y139960D01*
X1741524Y143402D01*
X1738460Y146202D01*
X1734824Y148203D01*
X1730820Y149294D01*
X1726671Y149414D01*
X1722610Y148555D01*
X1718865Y146766D01*
X1715646Y144146D01*
X1713132Y140844D01*
X1711464Y137043D01*
X1710737Y132957D01*
X1710708Y131948D01*
Y0D01*
X0D01*
G54D22*
X78889Y236150D03*
X3149689D03*
G36*
X102485Y0D02*
Y90506D01*
X1710708D01*
Y0D01*
X102485D01*
G37*
G36*
X1745781Y-7D02*
Y90506D01*
X3126107D01*
Y-7D01*
X1745781D01*
G37*
G54D23*
X102485Y2953D02*
Y90506D01*
X3126107D01*
Y2946D01*
G54D24*
X1066856Y1570821D02*
Y1611373D01*
G54D25*
X1050183Y1555723D03*
Y1626471D03*
G54D26*
Y1557298D02*
Y1624896D01*
G54D25*
X1083529Y1555723D03*
Y1626471D03*
G54D26*
Y1557298D02*
Y1624896D01*
G54D24*
X1187328Y1570821D02*
Y1611373D01*
G54D25*
X1170655Y1555723D03*
Y1626471D03*
G54D26*
Y1557298D02*
Y1624896D01*
G54D25*
X1204001Y1555723D03*
Y1626471D03*
G54D26*
Y1557298D02*
Y1624896D01*
G54D24*
X1066856Y1462553D02*
Y1503105D01*
G54D25*
X1050183Y1447455D03*
Y1518203D03*
G54D26*
Y1449030D02*
Y1516628D01*
G54D25*
X1083529Y1447455D03*
Y1518203D03*
G54D26*
Y1449030D02*
Y1516628D01*
G54D24*
X1187328Y1462553D02*
Y1503105D01*
G54D25*
X1170655Y1447455D03*
Y1518203D03*
G54D26*
Y1449030D02*
Y1516628D01*
G54D25*
X1204001Y1447455D03*
Y1518203D03*
G54D26*
Y1449030D02*
Y1516628D01*
G54D24*
X1620399Y1570821D02*
Y1611373D01*
G54D25*
X1603726Y1555723D03*
Y1626471D03*
G54D26*
Y1557298D02*
Y1624896D01*
G54D25*
X1637072Y1555723D03*
Y1626471D03*
G54D26*
Y1557298D02*
Y1624896D01*
G54D24*
X1499926Y1570821D02*
Y1611373D01*
G54D25*
X1483253Y1555723D03*
Y1626471D03*
G54D26*
Y1557298D02*
Y1624896D01*
G54D25*
X1516599Y1555723D03*
Y1626471D03*
G54D26*
Y1557298D02*
Y1624896D01*
G54D24*
X1620399Y1462553D02*
Y1503105D01*
G54D25*
X1603726Y1447455D03*
Y1518203D03*
G54D26*
Y1449030D02*
Y1516628D01*
G54D25*
X1637072Y1447455D03*
Y1518203D03*
G54D26*
Y1449030D02*
Y1516628D01*
G54D24*
X1499926Y1462553D02*
Y1503105D01*
G54D25*
X1483253Y1447455D03*
Y1518203D03*
G54D26*
Y1449030D02*
Y1516628D01*
G54D25*
X1516599Y1447455D03*
Y1518203D03*
G54D26*
Y1449030D02*
Y1516628D01*
G54D24*
X2161737Y1570821D02*
Y1611373D01*
G54D25*
X2145064Y1555723D03*
Y1626471D03*
G54D26*
Y1557298D02*
Y1624896D01*
G54D25*
X2178410Y1555723D03*
Y1626471D03*
G54D26*
Y1557298D02*
Y1624896D01*
G54D24*
X2041265Y1570821D02*
Y1611373D01*
G54D25*
X2024592Y1555723D03*
Y1626471D03*
G54D26*
Y1557298D02*
Y1624896D01*
G54D25*
X2057938Y1555723D03*
Y1626471D03*
G54D26*
Y1557298D02*
Y1624896D01*
G54D24*
X2161737Y1462553D02*
Y1503105D01*
G54D25*
X2145064Y1447455D03*
Y1518203D03*
G54D26*
Y1449030D02*
Y1516628D01*
G54D25*
X2178410Y1447455D03*
Y1518203D03*
G54D26*
Y1449030D02*
Y1516628D01*
G54D24*
X2041265Y1462553D02*
Y1503105D01*
G54D25*
X2024592Y1447455D03*
Y1518203D03*
G54D26*
Y1449030D02*
Y1516628D01*
G54D25*
X2057938Y1447455D03*
Y1518203D03*
G54D26*
Y1449030D02*
Y1516628D01*
%LPC*%
G75*
X2057938Y1516628D02*
G54D27*
X1167212Y1556069D02*
X1169819Y1553462D01*
G54D28*
X1600522Y1555385D02*
X1602207Y1553700D01*
G54D29*
X2141646Y1555995D02*
X2144156Y1553486D01*
G54D30*
X819276Y1595649D02*
Y1586452D01*
Y1054349D02*
Y1045152D01*
X927568Y1595693D02*
Y1586408D01*
Y1487493D02*
Y1478208D01*
Y1379193D02*
Y1369908D01*
Y1270893D02*
Y1261608D01*
Y1162693D02*
Y1153408D01*
Y1054393D02*
Y1045108D01*
X893593Y936896D02*
Y946005D01*
X927568Y946093D02*
Y936808D01*
X1035785Y1379101D02*
Y1370000D01*
Y1270801D02*
Y1261700D01*
Y1162601D02*
Y1153500D01*
Y1054301D02*
Y1045200D01*
X1001810Y936804D02*
Y946097D01*
X1035785Y946001D02*
Y936900D01*
X1144077Y1379145D02*
Y1369956D01*
G54D31*
X1143424Y1381377D02*
X1144569Y1371737D01*
G54D30*
X1144077Y1270845D02*
Y1261656D01*
Y1162645D02*
Y1153456D01*
Y1054345D02*
Y1045156D01*
X1110102Y936847D02*
Y946054D01*
X1144077Y946045D02*
Y936856D01*
X1218394Y1586491D02*
Y1595609D01*
G54D28*
X1253013Y1375307D02*
X1251236Y1366803D01*
X1253013Y1375307D02*
X1251236Y1366803D01*
G54D30*
X1252369Y1270889D02*
Y1261612D01*
Y1162689D02*
Y1153412D01*
Y1054389D02*
Y1045112D01*
X1218394Y936891D02*
Y946009D01*
X1252369Y946089D02*
Y936812D01*
X1360586Y1595596D02*
Y1586505D01*
Y1487396D02*
Y1478305D01*
Y1379096D02*
Y1370005D01*
Y1270796D02*
Y1261705D01*
Y1162596D02*
Y1153505D01*
Y1054296D02*
Y1045205D01*
X1326611Y936799D02*
Y946101D01*
X1360586Y945996D02*
Y936905D01*
X1468878Y1379141D02*
Y1369960D01*
Y1270841D02*
Y1261660D01*
Y1162641D02*
Y1153460D01*
Y1054341D02*
Y1045160D01*
X1434902Y936843D02*
Y946058D01*
X1468878Y946041D02*
Y936860D01*
G54D31*
X1576613Y1381204D02*
X1577610Y1371303D01*
G54D30*
X1577170Y1379184D02*
Y1369916D01*
Y1270884D02*
Y1261616D01*
Y1162684D02*
Y1153416D01*
Y1054384D02*
Y1045116D01*
X1543194Y936887D02*
Y946014D01*
X1577170Y946084D02*
Y936816D01*
G54D32*
X1651775Y1584991D02*
Y1597110D01*
G54D28*
X1661696Y1390785D02*
X1668813Y1392105D01*
X1661696Y1390785D02*
X1668813Y1392105D01*
X1685993Y1374706D02*
X1684210Y1366829D01*
X1685993Y1374706D02*
X1684210Y1366829D01*
G54D30*
X1685387Y1270792D02*
Y1261709D01*
Y1162592D02*
Y1153509D01*
Y1054292D02*
Y1045209D01*
Y945992D02*
Y936909D01*
X1651411Y936795D02*
Y946106D01*
X1793679Y1595636D02*
Y1586464D01*
Y1487436D02*
Y1478264D01*
Y1379136D02*
Y1369964D01*
Y1270836D02*
Y1261664D01*
Y1162636D02*
Y1153464D01*
Y1054336D02*
Y1045164D01*
Y946036D02*
Y936864D01*
X1759703Y936839D02*
Y946062D01*
X1901971Y1595680D02*
Y1586421D01*
Y1487480D02*
Y1478221D01*
Y1379180D02*
Y1369921D01*
Y1270880D02*
Y1261621D01*
Y1162680D02*
Y1153421D01*
Y1054380D02*
Y1045121D01*
Y946080D02*
Y936821D01*
X1867995Y936883D02*
Y946018D01*
X2010188Y1379088D02*
Y1370013D01*
Y1270788D02*
Y1261713D01*
Y1162588D02*
Y1153513D01*
Y1054288D02*
Y1045213D01*
X1976212Y936791D02*
Y946110D01*
X2010188Y945988D02*
Y936913D01*
G54D31*
X2117829Y1381360D02*
X2118969Y1371752D01*
X2117789Y1381581D02*
X2118931Y1371250D01*
X2117789Y1381581D02*
X2118931Y1371250D01*
X2118429Y1379954D02*
X2118432Y1369158D01*
X2118437Y1271604D02*
X2118440Y1260907D01*
X2118445Y1163355D02*
X2118448Y1152756D01*
X2118453Y1055005D02*
X2118456Y1044506D01*
G54D30*
X2084504Y936834D02*
Y946066D01*
G54D31*
X2118461Y946654D02*
X2118464Y936257D01*
G54D33*
X2192993Y1585540D02*
Y1596561D01*
G54D28*
X2227411Y1375290D02*
X2225643Y1366821D01*
X2227411Y1375290D02*
X2225643Y1366821D01*
G54D30*
X2226771Y1270876D02*
Y1261625D01*
Y1162676D02*
Y1153425D01*
Y1054376D02*
Y1045125D01*
X2192796Y936878D02*
Y946022D01*
X2226771Y946076D02*
Y936825D01*
X2334988Y1487383D02*
Y1478318D01*
Y1379083D02*
Y1370018D01*
Y1270783D02*
Y1261718D01*
Y1162583D02*
Y1153518D01*
Y1054283D02*
Y1045218D01*
X2301013Y936787D02*
Y946114D01*
X2334988Y945983D02*
Y936918D01*
X2409305Y1045130D02*
Y1054371D01*
G54D34*
X1084241Y1553105D02*
X1044412D01*
X1045362Y1520821D02*
X1084241D01*
X1482549Y1553105D02*
X1517312D01*
Y1520821D02*
X1480333D01*
X2022765Y1553105D02*
X2058650D01*
Y1520821D02*
X2018018D01*
G54D35*
X1206360Y1629126D02*
Y1551720D01*
G54D34*
X137940Y109319D02*
Y95480D01*
X161562Y109319D02*
Y95480D01*
X185184Y109319D02*
Y95480D01*
X208806Y109319D02*
Y95480D01*
X232428Y109319D02*
Y95480D01*
X256050Y109319D02*
Y95480D01*
X279672Y109319D02*
Y95480D01*
X303294Y109319D02*
Y95480D01*
X326916Y109319D02*
Y95480D01*
X350538Y109319D02*
Y95480D01*
X374160Y109319D02*
Y95480D01*
X397782Y109319D02*
Y95480D01*
X421404Y109319D02*
Y95480D01*
X445026Y109319D02*
Y95480D01*
X468648Y109319D02*
Y95480D01*
X492270Y109319D02*
Y95480D01*
X515892Y109319D02*
Y95480D01*
X539514Y109319D02*
Y95480D01*
X563137Y109319D02*
Y95480D01*
X586759Y109319D02*
Y95480D01*
X610381Y109319D02*
Y95480D01*
X634003Y109319D02*
Y95480D01*
X657625Y109319D02*
Y95480D01*
X681247Y109319D02*
Y95480D01*
X704869Y109319D02*
Y95480D01*
X728491Y109319D02*
Y95480D01*
X752113Y109319D02*
Y95480D01*
X775735Y109319D02*
Y95480D01*
X799357Y109319D02*
Y95480D01*
X822979Y109319D02*
Y95480D01*
X846601Y109319D02*
Y95480D01*
X870223Y109319D02*
Y95480D01*
X893845Y109319D02*
Y95480D01*
X917467Y109319D02*
Y95480D01*
X941089Y109319D02*
Y95480D01*
X964711Y109319D02*
Y95480D01*
X988333Y109319D02*
Y95480D01*
X1011955Y109319D02*
Y95480D01*
X1035577Y109319D02*
Y95480D01*
X1059200Y109319D02*
Y95480D01*
X1082822Y109319D02*
Y95480D01*
X1106444Y109319D02*
Y95480D01*
X1130066Y109319D02*
Y95480D01*
X1153688Y109319D02*
Y95480D01*
X1177310Y109319D02*
Y95480D01*
X1200932Y109319D02*
Y95480D01*
X1224554Y109319D02*
Y95480D01*
X1248176Y109319D02*
Y95480D01*
X1271798Y109319D02*
Y95480D01*
X1295420Y109319D02*
Y95480D01*
X1319042Y109319D02*
Y95480D01*
X1342664Y109319D02*
Y95480D01*
X1366286Y109319D02*
Y95480D01*
X1389908Y109319D02*
Y95480D01*
X1413530Y109319D02*
Y95480D01*
X1437152Y109319D02*
Y95480D01*
X1460774Y109319D02*
Y95480D01*
X1484396Y109319D02*
Y95480D01*
X1508018Y109319D02*
Y95480D01*
X1531640Y109319D02*
Y95480D01*
X1555263Y109319D02*
Y95480D01*
X1578885Y109319D02*
Y95480D01*
X1602507Y109319D02*
Y95480D01*
X1626129Y109319D02*
Y95480D01*
X1791483Y109319D02*
Y95480D01*
X1815105Y109319D02*
Y95480D01*
X1838727Y109319D02*
Y95480D01*
X1862349Y109319D02*
Y95480D01*
X1885971Y109319D02*
Y95480D01*
X1909593Y109319D02*
Y95480D01*
X1933215Y109319D02*
Y95480D01*
X1956837Y109319D02*
Y95480D01*
X1980459Y109319D02*
Y95480D01*
X2004081Y109319D02*
Y95480D01*
X2027703Y109319D02*
Y95480D01*
X2051325Y109319D02*
Y95480D01*
X2074948Y109319D02*
Y95480D01*
X2098570Y109319D02*
Y95480D01*
X2122192Y109319D02*
Y95480D01*
X2145814Y109319D02*
Y95480D01*
X2169436Y109319D02*
Y95480D01*
X2193058Y109319D02*
Y95480D01*
X2216680Y109319D02*
Y95480D01*
X2240302Y109319D02*
Y95480D01*
X2263924Y109319D02*
Y95480D01*
X2287546Y109319D02*
Y95480D01*
X2311168Y109319D02*
Y95480D01*
X2334790Y109319D02*
Y95480D01*
X2358412Y109319D02*
Y95480D01*
X2382034Y109319D02*
Y95480D01*
X2405656Y109319D02*
Y95480D01*
X2429278Y109319D02*
Y95480D01*
X2452900Y109319D02*
Y95480D01*
X2476522Y109319D02*
Y95480D01*
X2500144Y109319D02*
Y95480D01*
X2523766Y109319D02*
Y95480D01*
X2547388Y109319D02*
Y95480D01*
X2571011Y109319D02*
Y95480D01*
X2594633Y109319D02*
Y95480D01*
X2618255Y109319D02*
Y95480D01*
X2641877Y109319D02*
Y95480D01*
X2665499Y109319D02*
Y95480D01*
X2689121Y109319D02*
Y95480D01*
X2712743Y109319D02*
Y95480D01*
X2736365Y109319D02*
Y95480D01*
X2759987Y109319D02*
Y95480D01*
X2783609Y109319D02*
Y95480D01*
X2807231Y109319D02*
Y95480D01*
X2830853Y109319D02*
Y95480D01*
X2854475Y109319D02*
Y95480D01*
X2878097Y109319D02*
Y95480D01*
X2925341Y109319D02*
Y95480D01*
X2948963Y109319D02*
Y95480D01*
X2972585Y109319D02*
Y95480D01*
X2996207Y109319D02*
Y95480D01*
X3019829Y109319D02*
Y95480D01*
X3043451Y109319D02*
Y95480D01*
X3067074Y109319D02*
Y95480D01*
X3090696Y109319D02*
Y95480D01*
X2901719Y109319D02*
Y95480D01*
M02*
