*
%FSLAX26Y26*%
%MOIN*%
%ADD10C,0.005906*%
%ADD11C,0.043625*%
%ADD12C,0.043650*%
%ADD13C,0.043675*%
%ADD14C,0.043600*%
%ADD15C,0.043575*%
%ADD16R,0.170480X0.170480*%
%ADD17R,0.028748X0.028748*%
%ADD18C,0.049550*%
%ADD19C,0.049500*%
%ADD20C,0.049525*%
%ADD21C,0.039550*%
%ADD22C,0.047425*%
%ADD23C,0.015937*%
%ADD24C,0.017906*%
%ADD25C,0.016000*%
%ADD26C,0.033811*%
%ADD27R,0.025748X0.025748*%
%ADD28C,0.088835*%
%IPPOS*%
%LNgto.gbr*%
%LPD*%
G75*
G54D10*
X1847836Y413838D02*
Y453208D01*
X1862834D01*
X1866584Y451333D01*
X1868458Y449458D01*
X1870333Y445709D01*
Y440084D01*
X1868458Y436335D01*
X1866584Y434460D01*
X1862834Y432585D01*
X1847836D01*
X1907829Y413838D02*
X1885331D01*
X1896580D02*
Y453208D01*
X1892830Y447584D01*
X1889081Y443834D01*
X1885331Y441959D01*
X3166134Y87066D02*
Y58945D01*
X3164259Y53320D01*
X3160509Y49571D01*
X3154885Y47696D01*
X3151136D01*
X3205504D02*
X3183007D01*
X3194255D02*
Y87066D01*
X3190506Y81442D01*
X3186756Y77692D01*
X3183007Y75818D01*
%LPC*%
G75*
X3183007Y75818D02*
G36*
X1410921Y394774D02*
Y478032D01*
X5979D01*
Y438691D01*
X-6021D01*
X-6012Y709026D01*
G02X-488Y714676I5992J-333D01*
G01X14603Y716211D01*
X28148Y720424D01*
X40434Y727097D01*
X51164Y735955D01*
X59996Y746664D01*
X66671Y758967D01*
X70886Y772550D01*
X72358Y787136D01*
X70889Y801743D01*
X66677Y815325D01*
X60005Y827628D01*
X51157Y838357D01*
X40453Y847195D01*
X28175Y853869D01*
X14580Y858101D01*
X-1407Y859774D01*
X-2412Y860109D01*
X-3351Y860620D01*
X-4183Y861290D01*
X-4898Y862117D01*
X-5443Y863042D01*
X-5813Y864046D01*
X-6000Y865109D01*
X-6002Y2108652D01*
G02X38476Y2152628I45283J-1319D01*
G01X3189751D01*
G02X3234195Y2107353I-789J-45226D01*
G01X3234187Y865581D01*
G02X3228963Y859636I-6000J5D01*
G01X3213551Y858042D01*
X3199972Y853790D01*
X3187713Y847097D01*
X3177042Y838258D01*
X3168232Y827550D01*
X3161581Y815266D01*
X3157380Y801703D01*
X3155912Y787136D01*
X3157382Y772569D01*
X3161579Y759026D01*
X3168230Y746743D01*
X3177021Y736054D01*
X3187709Y727195D01*
X3199970Y720502D01*
X3213454Y716270D01*
X3228930Y714636D01*
G02X3233970Y707884I-903J-5931D01*
G01X3233967Y458376D01*
X3221967D01*
Y478032D01*
X1817671D01*
X1817651Y394223D01*
X1817465Y393160D01*
X1817096Y392156D01*
X1816552Y391231D01*
X1815838Y390404D01*
X1815009Y389735D01*
X1814074Y389223D01*
X1813079Y388888D01*
X1812015Y388731D01*
X1416578D01*
X1415514Y388888D01*
G02X1410921Y394774I1407J5833D01*
G37*
G36*
X-6021Y432671D02*
G01Y438681D01*
X5979D01*
X39503Y438682D01*
G02X64580Y355974I-190J-45213D01*
G02X39374Y348087I-26148J39344D01*
G01X6000Y348086D01*
Y6000D01*
X95533D01*
Y114128D01*
G02X102485Y121081I6953J0D01*
G01X1704708D01*
Y131948D01*
X1716708D01*
Y121081D01*
X1739781D01*
Y126515D01*
X1751781D01*
Y121081D01*
X3126107D01*
G02X3133060Y114128I0J-6953D01*
G01Y5993D01*
X3221829D01*
Y348078D01*
X3188907D01*
G02X3187141Y348344I1J6000D01*
G02X3189123Y438674I1695J45150D01*
G01X3221967D01*
Y458358D01*
X3233967D01*
Y432663D01*
G02X3227613Y426674I-6000J0D01*
G01X3188898D01*
G03X3156353Y386739I-73J-33169D01*
G03X3189507Y360206I32573J6722D01*
G02X3190273Y360078I-604J-5969D01*
G01X3227888D01*
G02X3233829Y353239I0J-6000D01*
G01Y-7D01*
G02X3227785Y-6006I-6000J0D01*
G01X1745781Y-6007D01*
G02X1739781Y-7I0J6000D01*
G01Y107176D01*
X1716708D01*
Y0D01*
G02X1710708Y-6000I-6000J0D01*
G01X0D01*
G02X-6000Y0I0J6000D01*
G01Y354086D01*
G02X0Y360086I6000J0D01*
G01X38926D01*
X46126Y360954D01*
G03X39283Y426681I-6865J32505D01*
G01X333D01*
G02X-6021Y432671I-354J5990D01*
G37*
G36*
X1704708Y131948D02*
G02X1751781Y131948I23537J0D01*
G01Y126515D01*
X1739781D01*
Y131948D01*
G03X1716708Y131948I-11537J0D01*
G01X1704708D01*
G37*
G36*
X-5021Y439681D02*
X4979D01*
G02X4979Y437681I0J-1000D01*
G01X-5021D01*
G02X-5021Y439681I0J1000D01*
G37*
G36*
X3222967Y459358D02*
G01X3232967D01*
G02X3232967Y457358I0J-1000D01*
G01X3222967D01*
G02X3222967Y459358I0J1000D01*
G37*
G36*
X1740781Y127515D02*
G01X1750781D01*
G02X1750781Y125515I0J-1000D01*
G01X1740781D01*
G02X1740781Y127515I0J1000D01*
G37*
G36*
X1705708Y132948D02*
G01X1715708D01*
G02X1715708Y130948I0J-1000D01*
G01X1705708D01*
G02X1705708Y132948I0J1000D01*
G37*
G36*
X33471Y236150D02*
G02X33471Y236150I45417J0D01*
G37*
G36*
X3104271D02*
G02X3104271Y236150I45417J0D01*
G37*
G54D11*
X910556Y1049758D03*
Y1482829D03*
Y1374561D03*
G54D12*
Y1266294D03*
G54D11*
Y1158026D03*
G54D12*
X2318037Y1482829D03*
Y1374561D03*
G54D13*
Y1266294D03*
G54D12*
Y1158026D03*
X694021Y1591097D03*
G54D11*
X910556Y1699365D03*
G54D12*
X2318037D03*
G54D13*
Y941491D03*
G54D12*
X802289Y1591097D03*
G54D11*
X748155Y1699365D03*
Y1482829D03*
G54D12*
X531619Y1591097D03*
X748155Y941491D03*
X2480438Y1158026D03*
G54D14*
X531619Y1049758D03*
G54D11*
X694021D03*
X748155Y1158026D03*
G54D15*
X802289Y1049758D03*
G54D12*
X2426304Y1591097D03*
X2480438Y1699365D03*
X2534572Y1591097D03*
X2696974D03*
G54D15*
Y1049758D03*
X2534572D03*
G54D13*
X2480438Y941491D03*
G54D15*
X2426304Y1049758D03*
G54D12*
X2480438Y1482829D03*
G54D16*
X1496186Y473971D02*
G01X1732406D01*
G54D17*
X126107Y23578D02*
Y98381D01*
X149730Y23578D02*
Y98381D01*
X173352Y23578D02*
Y98381D01*
X196974Y23578D02*
Y98381D01*
X220596Y23578D02*
Y98381D01*
X244218Y23578D02*
Y98381D01*
X267840Y23578D02*
Y98381D01*
X291462Y23578D02*
Y98381D01*
X315084Y23578D02*
Y98381D01*
X338706Y23578D02*
Y98381D01*
X362328Y23578D02*
Y98381D01*
X385950Y23578D02*
Y98381D01*
X409572Y23578D02*
Y98381D01*
X433194Y23578D02*
Y98381D01*
X456816Y23578D02*
Y98381D01*
X480438Y23578D02*
Y98381D01*
X504060Y23578D02*
Y98381D01*
X527682Y23578D02*
Y98381D01*
X551304Y23578D02*
Y98381D01*
X574926Y23578D02*
Y98381D01*
X598548Y23578D02*
Y98381D01*
X622170Y23578D02*
Y98381D01*
X645793Y23578D02*
Y98381D01*
X669415Y23578D02*
Y98381D01*
X693037Y23578D02*
Y98381D01*
X716659Y23578D02*
Y98381D01*
X740281Y23578D02*
Y98381D01*
X763903Y23578D02*
Y98381D01*
X787525Y23578D02*
Y98381D01*
X811147Y23578D02*
Y98381D01*
X834769Y23578D02*
Y98381D01*
X858391Y23578D02*
Y98381D01*
X882013Y23578D02*
Y98381D01*
X905635Y23578D02*
Y98381D01*
X929257Y23578D02*
Y98381D01*
X952879Y23578D02*
Y98381D01*
X976501Y23578D02*
Y98381D01*
X1000123Y23578D02*
Y98381D01*
X1023745Y23578D02*
Y98381D01*
X1047367Y23578D02*
Y98381D01*
X1070989Y23578D02*
Y98381D01*
X1094611Y23578D02*
Y98381D01*
X1118233Y23578D02*
Y98381D01*
X1141856Y23578D02*
Y98381D01*
X1165478Y23578D02*
Y98381D01*
X1189100Y23578D02*
Y98381D01*
X1212722Y23578D02*
Y98381D01*
X1236344Y23578D02*
Y98381D01*
X1259966Y23578D02*
Y98381D01*
X1283588Y23578D02*
Y98381D01*
X1307210Y23578D02*
Y98381D01*
X1330832Y23578D02*
Y98381D01*
X1354454Y23578D02*
Y98381D01*
X1378076Y23578D02*
Y98381D01*
X1401698Y23578D02*
Y98381D01*
X1425320Y23578D02*
Y98381D01*
X1448942Y23578D02*
Y98381D01*
X1472564Y23578D02*
Y98381D01*
X1496186Y23578D02*
Y98381D01*
X1519808Y23578D02*
Y98381D01*
X1543430Y23578D02*
Y98381D01*
X1567052Y23578D02*
Y98381D01*
X1590674Y23578D02*
Y98381D01*
X1614296Y23578D02*
Y98381D01*
X1637919Y23578D02*
Y98381D01*
X1779651Y23578D02*
Y98381D01*
X1803273Y23578D02*
Y98381D01*
X1826895Y23578D02*
Y98381D01*
X1850517Y23578D02*
Y98381D01*
X1874139Y23578D02*
Y98381D01*
X1897761Y23578D02*
Y98381D01*
X1921383Y23578D02*
Y98381D01*
X1945005Y23578D02*
Y98381D01*
X1968627Y23578D02*
Y98381D01*
X1992249Y23578D02*
Y98381D01*
X2015871Y23578D02*
Y98381D01*
X2039493Y23578D02*
Y98381D01*
X2063115Y23578D02*
Y98381D01*
X2086737Y23578D02*
Y98381D01*
X2110359Y23578D02*
Y98381D01*
X2133981Y23578D02*
Y98381D01*
X2157604Y23578D02*
Y98381D01*
X2181226Y23578D02*
Y98381D01*
X2204848Y23578D02*
Y98381D01*
X2228470Y23578D02*
Y98381D01*
X2252092Y23578D02*
Y98381D01*
X2275714Y23578D02*
Y98381D01*
X2299336Y23578D02*
Y98381D01*
X2322958Y23578D02*
Y98381D01*
X2346580Y23578D02*
Y98381D01*
X2370202Y23578D02*
Y98381D01*
X2393824Y23578D02*
Y98381D01*
X2417446Y23578D02*
Y98381D01*
X2441068Y23578D02*
Y98381D01*
X2464690Y23578D02*
Y98381D01*
X2488312Y23578D02*
Y98381D01*
X2511934Y23578D02*
Y98381D01*
X2535556Y23578D02*
Y98381D01*
X2559178Y23578D02*
Y98381D01*
X2582800Y23578D02*
Y98381D01*
X2606422Y23578D02*
Y98381D01*
X2630044Y23578D02*
Y98381D01*
X2653667Y23578D02*
Y98381D01*
X2677289Y23578D02*
Y98381D01*
X2700911Y23578D02*
Y98381D01*
X2724533Y23578D02*
Y98381D01*
X2748155Y23578D02*
Y98381D01*
X2771777Y23578D02*
Y98381D01*
X2795399Y23578D02*
Y98381D01*
X2819021Y23578D02*
Y98381D01*
X2842643Y23578D02*
Y98381D01*
X2866265Y23578D02*
Y98381D01*
X2889887Y23578D02*
Y98381D01*
X2913509Y23578D02*
Y98381D01*
X2937131Y23578D02*
Y98381D01*
X2960753Y23578D02*
Y98381D01*
X2984375Y23578D02*
Y98381D01*
X3007997Y23578D02*
Y98381D01*
X3031619Y23578D02*
Y98381D01*
X3055241Y23578D02*
Y98381D01*
X3078863Y23578D02*
Y98381D01*
X3102485Y23578D02*
Y98381D01*
G54D12*
X1776698Y1591097D03*
G54D14*
Y1482829D03*
G54D15*
Y1374561D03*
G54D11*
Y1266294D03*
G54D14*
Y1158026D03*
G54D15*
Y1049758D03*
G54D12*
X1884966Y1591097D03*
G54D14*
Y1482829D03*
Y1374561D03*
G54D12*
Y1266294D03*
G54D11*
Y1158026D03*
G54D14*
Y1049758D03*
G54D13*
X1993233Y1591097D03*
G54D12*
Y1482829D03*
Y1374561D03*
G54D13*
Y1266294D03*
G54D12*
Y1158026D03*
Y1049758D03*
G54D15*
X2101501Y1374561D03*
G54D12*
Y1266294D03*
G54D14*
Y1158026D03*
G54D15*
Y1049758D03*
G54D12*
X2209769Y1591097D03*
G54D14*
Y1482829D03*
Y1374561D03*
G54D12*
Y1266294D03*
G54D14*
Y1158026D03*
Y1049758D03*
G54D13*
X2318037Y1591097D03*
G54D12*
Y1049758D03*
X910556Y1591097D03*
G54D13*
X1018824D03*
G54D11*
Y1482829D03*
Y1374561D03*
G54D12*
Y1266294D03*
G54D11*
Y1158026D03*
Y1049758D03*
G54D15*
X1127092Y1374561D03*
G54D11*
Y1266294D03*
G54D14*
Y1158026D03*
G54D15*
Y1049758D03*
G54D12*
X1235359Y1591097D03*
G54D11*
Y1482829D03*
G54D14*
Y1374561D03*
G54D12*
Y1266294D03*
G54D11*
Y1158026D03*
G54D14*
Y1049758D03*
G54D13*
X1343627Y1591097D03*
G54D11*
Y1482829D03*
Y1374561D03*
G54D13*
Y1266294D03*
G54D12*
Y1158026D03*
G54D11*
Y1049758D03*
G54D12*
X1451895Y1591097D03*
G54D14*
Y1482829D03*
G54D15*
Y1374561D03*
G54D11*
Y1266294D03*
G54D14*
Y1158026D03*
G54D15*
Y1049758D03*
G54D14*
X1560163Y1374561D03*
G54D12*
Y1266294D03*
G54D11*
Y1158026D03*
G54D14*
Y1049758D03*
G54D13*
X1668430Y1591097D03*
G54D12*
Y1482829D03*
G54D11*
Y1374561D03*
G54D13*
Y1266294D03*
G54D12*
Y1158026D03*
G54D11*
Y1049758D03*
G54D15*
X1776698Y1699365D03*
G54D11*
Y941491D03*
G54D14*
X1884966Y1699365D03*
G54D12*
Y941491D03*
X1993233Y1699365D03*
G54D13*
Y941491D03*
G54D15*
X2101501Y1699365D03*
G54D11*
Y941491D03*
G54D14*
X2209769Y1699365D03*
G54D11*
Y941491D03*
X1018824Y1699365D03*
G54D12*
Y941491D03*
G54D15*
X1127092Y1699365D03*
G54D11*
Y941491D03*
X1235359Y1699365D03*
G54D12*
Y941491D03*
G54D11*
X1343627Y1699365D03*
G54D12*
Y941491D03*
G54D15*
X1451895Y1699365D03*
G54D11*
Y941491D03*
G54D14*
X1560163Y1699365D03*
G54D12*
Y941491D03*
G54D11*
X1668430Y1699365D03*
G54D13*
Y941491D03*
G54D18*
X1127092Y1591097D03*
G54D19*
Y1482829D03*
G54D18*
X2101501Y1591097D03*
G54D12*
X910556Y941491D03*
G54D19*
X2101501Y1482829D03*
G54D18*
X1560163Y1591097D03*
G54D20*
Y1482829D03*
G54D21*
X149289Y576250D03*
X244289Y566250D03*
X289289Y641250D03*
X1127089Y1536950D03*
X1560189D03*
X2101489D03*
G54D22*
X104289Y536250D03*
X144289D03*
X199289Y516250D03*
X209289Y561250D03*
X244289Y606250D03*
X289289Y601250D03*
X339089Y648550D03*
X341489Y608850D03*
X1034289Y1976250D03*
X1124289Y2021250D03*
X1464289Y2016250D03*
X1564289Y2061250D03*
G36*
X-5021Y713211D02*
X14778Y715218D01*
X28545Y719500D01*
X41008Y726270D01*
X51869Y735238D01*
X60832Y746105D01*
X62539Y749252D01*
X68106Y756584D01*
X69785Y765623D01*
X71872Y772348D01*
X72846Y781785D01*
X72838Y781928D01*
X73364Y787142D01*
X71873Y801948D01*
X67601Y815721D01*
X64728Y821018D01*
X63774Y823748D01*
X62521Y825086D01*
X60838Y828190D01*
X51876Y839060D01*
X41013Y848030D01*
X28550Y854803D01*
X14780Y859086D01*
X-5021Y861093D01*
Y2107562D01*
X-4145Y2116240D01*
X-1556Y2124571D01*
X2539Y2132109D01*
X7957Y2138671D01*
X14523Y2144086D01*
X22063Y2148176D01*
X30398Y2150763D01*
X39075Y2151638D01*
X2369868Y2151634D01*
X3191244Y2151429D01*
X3197906Y2150757D01*
X3206240Y2148170D01*
X3213776Y2144080D01*
X3220339Y2138665D01*
X3225753Y2132102D01*
X3229844Y2124565D01*
X3232430Y2116234D01*
X3233306Y2107556D01*
X3233069Y861180D01*
X3213332Y859027D01*
X3199584Y854717D01*
X3187157Y847935D01*
X3176328Y838966D01*
X3171146Y832666D01*
X3170373Y831946D01*
X3170104Y831400D01*
X3167396Y828107D01*
X3160655Y815657D01*
X3156396Y801908D01*
X3154906Y787136D01*
X3155370Y782543D01*
X3155065Y779969D01*
X3155855Y777735D01*
X3156396Y772372D01*
X3160654Y758631D01*
X3167392Y746187D01*
X3176319Y735333D01*
X3187141Y726366D01*
X3192297Y723550D01*
X3193044Y722803D01*
X3194379Y722413D01*
X3199561Y719583D01*
X3213285Y715275D01*
X3233028Y713208D01*
X3232927Y478010D01*
X-5021D01*
Y713211D01*
G37*
G54D23*
X3226708Y866561D02*
X3226347Y866486D01*
X3149101Y780627D02*
X3148942Y779286D01*
X3149262Y778383D01*
X3189887Y717475D02*
X3190104Y717411D01*
X3224961Y484010D02*
X2947D01*
X69089Y747957D02*
X73745Y754089D01*
X75254Y762213D01*
X69545Y825422D02*
X69021Y826924D01*
X2371832Y2145633D02*
X3188974Y2145430D01*
G36*
X96485Y-5000D02*
Y120128D01*
X1715708D01*
Y-5000D01*
X96485D01*
G37*
G36*
X1740781Y-5007D02*
Y120128D01*
X3132107D01*
Y-5007D01*
X1740781D01*
G37*
G54D24*
X102485Y3953D02*
Y114128D01*
X3126107D01*
Y3946D01*
G54D25*
X0Y0D02*
Y354086D01*
X39286D01*
X47194Y355039D01*
X54560Y357322D01*
X61226Y360937D01*
X67034Y365726D01*
X71826Y371531D01*
X75445Y378196D01*
X77732Y385560D01*
X78531Y393468D01*
X77732Y401375D01*
X75445Y408740D01*
X71826Y415404D01*
X67034Y421209D01*
X61226Y425999D01*
X54560Y429613D01*
X47194Y431896D01*
X39286Y432692D01*
X-21Y432671D01*
Y708692D01*
X15782Y710294D01*
X30500Y714872D01*
X43819Y722107D01*
X55422Y731687D01*
X64996Y743296D01*
X72225Y756618D01*
X76794Y771338D01*
X78389Y787142D01*
X76798Y802949D01*
X72231Y817673D01*
X65003Y830998D01*
X55429Y842610D01*
X43825Y852193D01*
X30505Y859431D01*
X15785Y864009D01*
X-21Y865612D01*
Y2107311D01*
X779Y2115236D01*
X3073Y2122618D01*
X6702Y2129298D01*
X11508Y2135119D01*
X17332Y2139921D01*
X24015Y2143547D01*
X31399Y2145839D01*
X39326Y2146638D01*
X3188978Y2146632D01*
X3196904Y2145833D01*
X3204286Y2143542D01*
X3210967Y2139916D01*
X3216787Y2135113D01*
X3221589Y2129293D01*
X3225215Y2122613D01*
X3227506Y2115231D01*
X3228306Y2107306D01*
X3228069Y865586D01*
X3212301Y863944D01*
X3197620Y859342D01*
X3184339Y852093D01*
X3172771Y842511D01*
X3163228Y830911D01*
X3156024Y817606D01*
X3151472Y802909D01*
X3149881Y787136D01*
X3151472Y771370D01*
X3156024Y756682D01*
X3163224Y743383D01*
X3172761Y731787D01*
X3184322Y722209D01*
X3197594Y714959D01*
X3212267Y710354D01*
X3228026Y708705D01*
X3227908Y432663D01*
X3188907Y432684D01*
X3180999Y431889D01*
X3173633Y429606D01*
X3166967Y425991D01*
X3161159Y421202D01*
X3156367Y415396D01*
X3152748Y408732D01*
X3150461Y401367D01*
X3149662Y393460D01*
X3150461Y385552D01*
X3152748Y378188D01*
X3156367Y371524D01*
X3161159Y365718D01*
X3166967Y360929D01*
X3173633Y357315D01*
X3180999Y355031D01*
X3188907Y354236D01*
X3188891Y354157D01*
X3188907Y354078D01*
X3227888D01*
X3227770Y-7D01*
X1745781D01*
Y131948D01*
X1745290Y136069D01*
X1743844Y139960D01*
X1741524Y143402D01*
X1738460Y146202D01*
X1734824Y148203D01*
X1730820Y149294D01*
X1726671Y149414D01*
X1722610Y148555D01*
X1718865Y146766D01*
X1715646Y144146D01*
X1713132Y140844D01*
X1711464Y137043D01*
X1710737Y132957D01*
X1710708Y131948D01*
Y0D01*
X0D01*
G54D26*
X910556Y1049758D03*
Y1482829D03*
Y1374561D03*
Y1266294D03*
Y1158026D03*
X2318037Y1482829D03*
Y1374561D03*
Y1266294D03*
Y1158026D03*
X694021Y1591097D03*
X910556Y1699365D03*
X2318037D03*
Y941491D03*
X802289Y1591097D03*
X748155Y1699365D03*
Y1482829D03*
X531619Y1591097D03*
X748155Y941491D03*
X2480438Y1158026D03*
X531619Y1049758D03*
X694021D03*
X748155Y1158026D03*
X802289Y1049758D03*
X2426304Y1591097D03*
X2480438Y1699365D03*
X2534572Y1591097D03*
X2696974D03*
Y1049758D03*
X2534572D03*
X2480438Y941491D03*
X2426304Y1049758D03*
X2480438Y1482829D03*
G54D27*
X126107Y23577D02*
Y98381D01*
X149730Y23577D02*
Y98381D01*
X173352Y23577D02*
Y98381D01*
X196974Y23577D02*
Y98381D01*
X220596Y23577D02*
Y98381D01*
X244218Y23577D02*
Y98381D01*
X267840Y23577D02*
Y98381D01*
X291462Y23577D02*
Y98381D01*
X315084Y23577D02*
Y98381D01*
X338706Y23577D02*
Y98381D01*
X362328Y23577D02*
Y98381D01*
X385950Y23577D02*
Y98381D01*
X409572Y23577D02*
Y98381D01*
X433194Y23577D02*
Y98381D01*
X456816Y23577D02*
Y98381D01*
X480438Y23577D02*
Y98381D01*
X504060Y23577D02*
Y98381D01*
X527682Y23577D02*
Y98381D01*
X551304Y23577D02*
Y98381D01*
X574926Y23577D02*
Y98381D01*
X598548Y23577D02*
Y98381D01*
X622170Y23577D02*
Y98381D01*
X645793Y23577D02*
Y98381D01*
X669415Y23577D02*
Y98381D01*
X693037Y23577D02*
Y98381D01*
X716659Y23577D02*
Y98381D01*
X740281Y23577D02*
Y98381D01*
X763903Y23577D02*
Y98381D01*
X787525Y23577D02*
Y98381D01*
X811147Y23577D02*
Y98381D01*
X834769Y23577D02*
Y98381D01*
X858391Y23577D02*
Y98381D01*
X882013Y23577D02*
Y98381D01*
X905635Y23577D02*
Y98381D01*
X929257Y23577D02*
Y98381D01*
X952879Y23577D02*
Y98381D01*
X976501Y23577D02*
Y98381D01*
X1000123Y23577D02*
Y98381D01*
X1023745Y23577D02*
Y98381D01*
X1047367Y23577D02*
Y98381D01*
X1070989Y23577D02*
Y98381D01*
X1094611Y23577D02*
Y98381D01*
X1118233Y23577D02*
Y98381D01*
X1141856Y23577D02*
Y98381D01*
X1165478Y23577D02*
Y98381D01*
X1189100Y23577D02*
Y98381D01*
X1212722Y23577D02*
Y98381D01*
X1236344Y23577D02*
Y98381D01*
X1259966Y23577D02*
Y98381D01*
X1283588Y23577D02*
Y98381D01*
X1307210Y23577D02*
Y98381D01*
X1330832Y23577D02*
Y98381D01*
X1354454Y23577D02*
Y98381D01*
X1378076Y23577D02*
Y98381D01*
X1401698Y23577D02*
Y98381D01*
X1425320Y23577D02*
Y98381D01*
X1448942Y23577D02*
Y98381D01*
X1472564Y23577D02*
Y98381D01*
X1496186Y23577D02*
Y98381D01*
X1519808Y23577D02*
Y98381D01*
X1543430Y23577D02*
Y98381D01*
X1567052Y23577D02*
Y98381D01*
X1590674Y23577D02*
Y98381D01*
X1614296Y23577D02*
Y98381D01*
X1637919Y23577D02*
Y98381D01*
X1779651Y23577D02*
Y98381D01*
X1803273Y23577D02*
Y98381D01*
X1826895Y23577D02*
Y98381D01*
X1850517Y23577D02*
Y98381D01*
X1874139Y23577D02*
Y98381D01*
X1897761Y23577D02*
Y98381D01*
X1921383Y23577D02*
Y98381D01*
X1945005Y23577D02*
Y98381D01*
X1968627Y23577D02*
Y98381D01*
X1992249Y23577D02*
Y98381D01*
X2015871Y23577D02*
Y98381D01*
X2039493Y23577D02*
Y98381D01*
X2063115Y23577D02*
Y98381D01*
X2086737Y23577D02*
Y98381D01*
X2110359Y23577D02*
Y98381D01*
X2133981Y23577D02*
Y98381D01*
X2157604Y23577D02*
Y98381D01*
X2181226Y23577D02*
Y98381D01*
X2204848Y23577D02*
Y98381D01*
X2228470Y23577D02*
Y98381D01*
X2252092Y23577D02*
Y98381D01*
X2275714Y23577D02*
Y98381D01*
X2299336Y23577D02*
Y98381D01*
X2322958Y23577D02*
Y98381D01*
X2346580Y23577D02*
Y98381D01*
X2370202Y23577D02*
Y98381D01*
X2393824Y23577D02*
Y98381D01*
X2417446Y23577D02*
Y98381D01*
X2441068Y23577D02*
Y98381D01*
X2464690Y23577D02*
Y98381D01*
X2488312Y23577D02*
Y98381D01*
X2511934Y23577D02*
Y98381D01*
X2535556Y23577D02*
Y98381D01*
X2559178Y23577D02*
Y98381D01*
X2582800Y23577D02*
Y98381D01*
X2606422Y23577D02*
Y98381D01*
X2630044Y23577D02*
Y98381D01*
X2653667Y23577D02*
Y98381D01*
X2677289Y23577D02*
Y98381D01*
X2700911Y23577D02*
Y98381D01*
X2724533Y23577D02*
Y98381D01*
X2748155Y23577D02*
Y98381D01*
X2771777Y23577D02*
Y98381D01*
X2795399Y23577D02*
Y98381D01*
X2819021Y23577D02*
Y98381D01*
X2842643Y23577D02*
Y98381D01*
X2866265Y23577D02*
Y98381D01*
X2889887Y23577D02*
Y98381D01*
X2913509Y23577D02*
Y98381D01*
X2937131Y23577D02*
Y98381D01*
X2960753Y23577D02*
Y98381D01*
X2984375Y23577D02*
Y98381D01*
X3007997Y23577D02*
Y98381D01*
X3031619Y23577D02*
Y98381D01*
X3055241Y23577D02*
Y98381D01*
X3078863Y23577D02*
Y98381D01*
X3102485Y23577D02*
Y98381D01*
G54D26*
X1776698Y1591097D03*
Y1482829D03*
Y1374561D03*
Y1266294D03*
Y1158026D03*
Y1049758D03*
X1884966Y1591097D03*
Y1482829D03*
Y1374561D03*
Y1266294D03*
Y1158026D03*
Y1049758D03*
X1993233Y1591097D03*
Y1482829D03*
Y1374561D03*
Y1266294D03*
Y1158026D03*
Y1049758D03*
X2101501Y1374561D03*
Y1266294D03*
Y1158026D03*
Y1049758D03*
X2209769Y1591097D03*
Y1482829D03*
Y1374561D03*
Y1266294D03*
Y1158026D03*
Y1049758D03*
X2318037Y1591097D03*
Y1049758D03*
X910556Y1591097D03*
X1018824D03*
Y1482829D03*
Y1374561D03*
Y1266294D03*
Y1158026D03*
Y1049758D03*
X1127092Y1374561D03*
Y1266294D03*
Y1158026D03*
Y1049758D03*
X1235359Y1591097D03*
Y1482829D03*
Y1374561D03*
Y1266294D03*
Y1158026D03*
Y1049758D03*
X1343627Y1591097D03*
Y1482829D03*
Y1374561D03*
Y1266294D03*
Y1158026D03*
Y1049758D03*
X1451895Y1591097D03*
Y1482829D03*
Y1374561D03*
Y1266294D03*
Y1158026D03*
Y1049758D03*
X1560163Y1374561D03*
Y1266294D03*
Y1158026D03*
Y1049758D03*
X1668430Y1591097D03*
Y1482829D03*
Y1374561D03*
Y1266294D03*
Y1158026D03*
Y1049758D03*
X1776698Y1699365D03*
Y941491D03*
X1884966Y1699365D03*
Y941491D03*
X1993233Y1699365D03*
Y941491D03*
X2101501Y1699365D03*
Y941491D03*
X2209769Y1699365D03*
Y941491D03*
X1018824Y1699365D03*
Y941491D03*
X1127092Y1699365D03*
Y941491D03*
X1235359Y1699365D03*
Y941491D03*
X1343627Y1699365D03*
Y941491D03*
X1451895Y1699365D03*
Y941491D03*
X1560163Y1699365D03*
Y941491D03*
X1668430Y1699365D03*
Y941491D03*
X1127092Y1591097D03*
Y1482829D03*
X2101501Y1591097D03*
X910556Y941491D03*
X2101501Y1482829D03*
X1560163Y1591097D03*
Y1482829D03*
G54D28*
X78889Y236150D03*
X3149689D03*
G54D25*
X0Y0D02*
Y354086D01*
X39286D01*
X47194Y355039D01*
X54560Y357322D01*
X61226Y360937D01*
X67034Y365726D01*
X71826Y371531D01*
X75445Y378196D01*
X77732Y385560D01*
X78531Y393468D01*
X77732Y401375D01*
X75445Y408740D01*
X71826Y415404D01*
X67034Y421209D01*
X61226Y425999D01*
X54560Y429613D01*
X47194Y431896D01*
X39286Y432692D01*
X-21Y432671D01*
Y708692D01*
X15782Y710294D01*
X30500Y714872D01*
X43819Y722107D01*
X55422Y731687D01*
X64996Y743296D01*
X72225Y756618D01*
X76794Y771338D01*
X78389Y787142D01*
X76798Y802949D01*
X72231Y817673D01*
X65003Y830998D01*
X55429Y842610D01*
X43825Y852193D01*
X30505Y859431D01*
X15785Y864009D01*
X-21Y865612D01*
Y2107311D01*
X779Y2115236D01*
X3073Y2122618D01*
X6702Y2129298D01*
X11508Y2135119D01*
X17332Y2139921D01*
X24015Y2143547D01*
X31399Y2145839D01*
X39326Y2146638D01*
X3188978Y2146632D01*
X3196904Y2145833D01*
X3204286Y2143542D01*
X3210967Y2139916D01*
X3216787Y2135113D01*
X3221589Y2129293D01*
X3225215Y2122613D01*
X3227506Y2115231D01*
X3228306Y2107306D01*
X3228069Y865586D01*
X3212301Y863944D01*
X3197620Y859342D01*
X3184339Y852093D01*
X3172771Y842511D01*
X3163228Y830911D01*
X3156024Y817606D01*
X3151472Y802909D01*
X3149881Y787136D01*
X3151472Y771370D01*
X3156024Y756682D01*
X3163224Y743383D01*
X3172761Y731787D01*
X3184322Y722209D01*
X3197594Y714959D01*
X3212267Y710354D01*
X3228026Y708705D01*
X3227908Y432663D01*
X3188907Y432684D01*
X3180999Y431889D01*
X3173633Y429606D01*
X3166967Y425991D01*
X3161159Y421202D01*
X3156367Y415396D01*
X3152748Y408732D01*
X3150461Y401367D01*
X3149662Y393460D01*
X3150461Y385552D01*
X3152748Y378188D01*
X3156367Y371524D01*
X3161159Y365718D01*
X3166967Y360929D01*
X3173633Y357315D01*
X3180999Y355031D01*
X3188907Y354236D01*
X3188891Y354157D01*
X3188907Y354078D01*
X3227888D01*
X3227770Y-7D01*
X1745781D01*
Y131948D01*
X1745290Y136069D01*
X1743844Y139960D01*
X1741524Y143402D01*
X1738460Y146202D01*
X1734824Y148203D01*
X1730820Y149294D01*
X1726671Y149414D01*
X1722610Y148555D01*
X1718865Y146766D01*
X1715646Y144146D01*
X1713132Y140844D01*
X1711464Y137043D01*
X1710737Y132957D01*
X1710708Y131948D01*
Y0D01*
X0D01*
M02*
