*
%FSLAX26Y26*%
%MOIN*%
%ADD10C,0.003937*%
%ADD11C,0.005906*%
%ADD12R,0.089370X0.089370*%
%ADD13C,0.023811*%
%ADD14R,0.059055X0.059055*%
%ADD15R,0.157480X0.157480*%
%ADD16R,0.094488X0.094488*%
%ADD17R,0.020748X0.020748*%
%ADD18R,0.076772X0.076772*%
%ADD19R,0.158500X0.158500*%
%ADD20C,0.004000*%
%ADD21R,0.004000X0.004000*%
%ADD22C,0.077250*%
%ADD23C,0.082835*%
%ADD24R,0.004500X0.004500*%
%IPPOS*%
%LNgts.gbr*%
%LPD*%
G75*
G36*
X979Y484010D02*
Y707788D01*
X15983Y709310D01*
X30891Y713946D01*
X44381Y721275D01*
X56132Y730977D01*
X65829Y742734D01*
X67595Y745988D01*
X73745Y754089D01*
X75620Y764181D01*
X77779Y771139D01*
X78863Y781648D01*
X78855Y781797D01*
X79394Y787142D01*
X77783Y803149D01*
X73157Y818063D01*
X70233Y823453D01*
X69021Y826924D01*
X67428Y828625D01*
X65836Y831560D01*
X56139Y843320D01*
X44387Y853025D01*
X30896Y860356D01*
X15986Y864994D01*
X979Y866516D01*
Y2107260D01*
X1764Y2115036D01*
X3998Y2122227D01*
X7534Y2128736D01*
X12218Y2134408D01*
X17894Y2139088D01*
X24405Y2142621D01*
X31599Y2144854D01*
X39377Y2145638D01*
X2369866Y2145634D01*
X3190942Y2145429D01*
X3196703Y2144848D01*
X3203897Y2142615D01*
X3210404Y2139083D01*
X3216077Y2134403D01*
X3220757Y2128731D01*
X3224289Y2122222D01*
X3226521Y2115031D01*
X3227306Y2107255D01*
X3227069Y866561D01*
X3212097Y864928D01*
X3197227Y860266D01*
X3183775Y852925D01*
X3172059Y843221D01*
X3166765Y836785D01*
X3165478Y835585D01*
X3165029Y834675D01*
X3162395Y831472D01*
X3155098Y817996D01*
X3150487Y803109D01*
X3148876Y787136D01*
X3149334Y782596D01*
X3148942Y779286D01*
X3149958Y776414D01*
X3150487Y771170D01*
X3155097Y756293D01*
X3162391Y742822D01*
X3172049Y731079D01*
X3183758Y721377D01*
X3188664Y718697D01*
X3189887Y717475D01*
X3192073Y716836D01*
X3197202Y714035D01*
X3212062Y709370D01*
X3227026Y707804D01*
X3226930Y484010D01*
X979D01*
G37*
G54D10*
X3226708Y866561D02*
X3226347Y866486D01*
X3149101Y780627D02*
X3148942Y779286D01*
X3149262Y778383D01*
X3189887Y717475D02*
X3190104Y717411D01*
X3224961Y484010D02*
X2947D01*
X69089Y747957D02*
X73745Y754089D01*
X75254Y762213D01*
X69545Y825422D02*
X69021Y826924D01*
X2371832Y2145633D02*
X3188974Y2145430D01*
G54D11*
X102485Y3953D02*
Y90506D01*
X3126107D02*
Y3946D01*
G54D12*
X910556Y1049758D03*
G54D13*
D03*
G54D12*
Y1482829D03*
G54D13*
D03*
Y1374561D03*
G54D12*
D03*
Y1266294D03*
G54D13*
D03*
G54D12*
Y1158026D03*
G54D13*
D03*
X2318037Y1482829D03*
G54D12*
D03*
G54D13*
Y1374561D03*
G54D12*
D03*
G54D13*
Y1266294D03*
G54D12*
D03*
G54D13*
Y1158026D03*
G54D12*
D03*
G54D14*
X624730Y1575940D02*
Y1606255D01*
G54D13*
X694021Y1591097D03*
G54D12*
D03*
G54D13*
X910556Y1699365D03*
G54D12*
D03*
X2318037D03*
G54D13*
D03*
Y941491D03*
G54D12*
D03*
G54D13*
X802289Y1591097D03*
G54D12*
D03*
X748155Y1699365D03*
G54D13*
D03*
Y1482829D03*
G54D12*
D03*
G54D15*
X413509Y1512357D02*
Y1669837D01*
G54D16*
X535163Y1480270D02*
X637525D01*
X535163Y1701924D02*
X637525D01*
G54D13*
X531619Y1591097D03*
G54D12*
Y1557042D02*
Y1625152D01*
G54D13*
X748155Y941491D03*
G54D12*
D03*
X2480438Y1158026D03*
G54D13*
D03*
G54D15*
X413509Y971018D02*
Y1128498D01*
G54D16*
X535163Y1160585D02*
X637525D01*
X535163Y938931D02*
X637525D01*
G54D13*
X531619Y1049758D03*
G54D12*
Y1015703D02*
Y1083813D01*
G54D14*
X624730Y1034600D02*
Y1064915D01*
G54D12*
X694021Y1049758D03*
G54D13*
D03*
G54D12*
X748155Y1158026D03*
G54D13*
D03*
X802289Y1049758D03*
G54D12*
D03*
X2426304Y1591097D03*
G54D13*
D03*
X2480438Y1699365D03*
G54D12*
D03*
G54D14*
X2603863Y1575940D02*
Y1606255D01*
G54D12*
X2534572Y1591097D03*
G54D13*
D03*
G54D15*
X2815084Y1512357D02*
Y1669837D01*
G54D16*
X2591068Y1701924D02*
X2693430D01*
X2591068Y1480270D02*
X2693430D01*
G54D13*
X2696974Y1591097D03*
G54D12*
Y1557042D02*
Y1625152D01*
G54D16*
X2591068Y938931D02*
X2693430D01*
X2591068Y1160585D02*
X2693430D01*
G54D15*
X2815084Y971018D02*
Y1128498D01*
G54D12*
X2696974Y1015703D02*
Y1083813D01*
G54D13*
Y1049758D03*
G54D14*
X2603863Y1034600D02*
Y1064915D01*
G54D12*
X2534572Y1049758D03*
G54D13*
D03*
X2480438Y941491D03*
G54D12*
D03*
X2426304Y1049758D03*
G54D13*
D03*
X2480438Y1482829D03*
G54D12*
D03*
G54D17*
X126107Y23577D02*
Y98381D01*
X149730Y23577D02*
Y98381D01*
X173352Y23577D02*
Y98381D01*
X196974Y23577D02*
Y98381D01*
X220596Y23577D02*
Y98381D01*
X244218Y23577D02*
Y98381D01*
X267840Y23577D02*
Y98381D01*
X291462Y23577D02*
Y98381D01*
X315084Y23577D02*
Y98381D01*
X338706Y23577D02*
Y98381D01*
X362328Y23577D02*
Y98381D01*
X385950Y23577D02*
Y98381D01*
X409572Y23577D02*
Y98381D01*
X433194Y23577D02*
Y98381D01*
X456816Y23577D02*
Y98381D01*
X480438Y23577D02*
Y98381D01*
X504060Y23577D02*
Y98381D01*
X527682Y23577D02*
Y98381D01*
X551304Y23577D02*
Y98381D01*
X574926Y23577D02*
Y98381D01*
X598548Y23577D02*
Y98381D01*
X622170Y23577D02*
Y98381D01*
X645793Y23577D02*
Y98381D01*
X669415Y23577D02*
Y98381D01*
X693037Y23577D02*
Y98381D01*
X716659Y23577D02*
Y98381D01*
X740281Y23577D02*
Y98381D01*
X763903Y23577D02*
Y98381D01*
X787525Y23577D02*
Y98381D01*
X811147Y23577D02*
Y98381D01*
X834769Y23577D02*
Y98381D01*
X858391Y23577D02*
Y98381D01*
X882013Y23577D02*
Y98381D01*
X905635Y23577D02*
Y98381D01*
X929257Y23577D02*
Y98381D01*
X952879Y23577D02*
Y98381D01*
X976501Y23577D02*
Y98381D01*
X1000123Y23577D02*
Y98381D01*
X1023745Y23577D02*
Y98381D01*
X1047367Y23577D02*
Y98381D01*
X1070989Y23577D02*
Y98381D01*
X1094611Y23577D02*
Y98381D01*
X1118233Y23577D02*
Y98381D01*
X1141856Y23577D02*
Y98381D01*
X1165478Y23577D02*
Y98381D01*
X1189100Y23577D02*
Y98381D01*
X1212722Y23577D02*
Y98381D01*
X1236344Y23577D02*
Y98381D01*
X1259966Y23577D02*
Y98381D01*
X1283588Y23577D02*
Y98381D01*
X1307210Y23577D02*
Y98381D01*
X1330832Y23577D02*
Y98381D01*
X1354454Y23577D02*
Y98381D01*
X1378076Y23577D02*
Y98381D01*
X1401698Y23577D02*
Y98381D01*
X1425320Y23577D02*
Y98381D01*
X1448942Y23577D02*
Y98381D01*
X1472564Y23577D02*
Y98381D01*
X1496186Y23577D02*
Y98381D01*
X1519808Y23577D02*
Y98381D01*
X1543430Y23577D02*
Y98381D01*
X1567052Y23577D02*
Y98381D01*
X1590674Y23577D02*
Y98381D01*
X1614296Y23577D02*
Y98381D01*
X1637919Y23577D02*
Y98381D01*
X1779651Y23577D02*
Y98381D01*
X1803273Y23577D02*
Y98381D01*
X1826895Y23577D02*
Y98381D01*
X1850517Y23577D02*
Y98381D01*
X1874139Y23577D02*
Y98381D01*
X1897761Y23577D02*
Y98381D01*
X1921383Y23577D02*
Y98381D01*
X1945005Y23577D02*
Y98381D01*
X1968627Y23577D02*
Y98381D01*
X1992249Y23577D02*
Y98381D01*
X2015871Y23577D02*
Y98381D01*
X2039493Y23577D02*
Y98381D01*
X2063115Y23577D02*
Y98381D01*
X2086737Y23577D02*
Y98381D01*
X2110359Y23577D02*
Y98381D01*
X2133981Y23577D02*
Y98381D01*
X2157604Y23577D02*
Y98381D01*
X2181226Y23577D02*
Y98381D01*
X2204848Y23577D02*
Y98381D01*
X2228470Y23577D02*
Y98381D01*
X2252092Y23577D02*
Y98381D01*
X2275714Y23577D02*
Y98381D01*
X2299336Y23577D02*
Y98381D01*
X2322958Y23577D02*
Y98381D01*
X2346580Y23577D02*
Y98381D01*
X2370202Y23577D02*
Y98381D01*
X2393824Y23577D02*
Y98381D01*
X2417446Y23577D02*
Y98381D01*
X2441068Y23577D02*
Y98381D01*
X2464690Y23577D02*
Y98381D01*
X2488312Y23577D02*
Y98381D01*
X2511934Y23577D02*
Y98381D01*
X2535556Y23577D02*
Y98381D01*
X2559178Y23577D02*
Y98381D01*
X2582800Y23577D02*
Y98381D01*
X2606422Y23577D02*
Y98381D01*
X2630044Y23577D02*
Y98381D01*
X2653667Y23577D02*
Y98381D01*
X2677289Y23577D02*
Y98381D01*
X2700911Y23577D02*
Y98381D01*
X2724533Y23577D02*
Y98381D01*
X2748155Y23577D02*
Y98381D01*
X2771777Y23577D02*
Y98381D01*
X2795399Y23577D02*
Y98381D01*
X2819021Y23577D02*
Y98381D01*
X2842643Y23577D02*
Y98381D01*
X2866265Y23577D02*
Y98381D01*
X2889887Y23577D02*
Y98381D01*
X2913509Y23577D02*
Y98381D01*
X2937131Y23577D02*
Y98381D01*
X2960753Y23577D02*
Y98381D01*
X2984375Y23577D02*
Y98381D01*
X3007997Y23577D02*
Y98381D01*
X3031619Y23577D02*
Y98381D01*
X3055241Y23577D02*
Y98381D01*
X3078863Y23577D02*
Y98381D01*
X3102485Y23577D02*
Y98381D01*
G54D12*
X1776698Y1591097D03*
G54D13*
D03*
Y1482829D03*
G54D12*
D03*
Y1374561D03*
G54D13*
D03*
G54D12*
Y1266294D03*
G54D13*
D03*
Y1158026D03*
G54D12*
D03*
G54D13*
Y1049758D03*
G54D12*
D03*
G54D13*
X1884966Y1591097D03*
G54D12*
D03*
Y1482829D03*
G54D13*
D03*
G54D12*
Y1374561D03*
G54D13*
D03*
Y1266294D03*
G54D12*
D03*
G54D13*
Y1158026D03*
G54D12*
D03*
Y1049758D03*
G54D13*
D03*
X1993233Y1591097D03*
G54D12*
D03*
G54D13*
Y1482829D03*
G54D12*
D03*
Y1374561D03*
G54D13*
D03*
G54D12*
Y1266294D03*
G54D13*
D03*
Y1158026D03*
G54D12*
D03*
Y1049758D03*
G54D13*
D03*
X2101501Y1374561D03*
G54D12*
D03*
G54D13*
Y1266294D03*
G54D12*
D03*
G54D13*
Y1158026D03*
G54D12*
D03*
Y1049758D03*
G54D13*
D03*
G54D12*
X2209769Y1591097D03*
G54D13*
D03*
G54D12*
Y1482829D03*
G54D13*
D03*
Y1374561D03*
G54D12*
D03*
G54D13*
Y1266294D03*
G54D12*
D03*
Y1158026D03*
G54D13*
D03*
G54D12*
Y1049758D03*
G54D13*
D03*
X2318037Y1591097D03*
G54D12*
D03*
Y1049758D03*
G54D13*
D03*
G54D12*
X910556Y1591097D03*
G54D13*
D03*
X1018824D03*
G54D12*
D03*
Y1482829D03*
G54D13*
D03*
Y1374561D03*
G54D12*
D03*
Y1266294D03*
G54D13*
D03*
Y1158026D03*
G54D12*
D03*
Y1049758D03*
G54D13*
D03*
G54D12*
X1127092Y1374561D03*
G54D13*
D03*
G54D12*
Y1266294D03*
G54D13*
D03*
Y1158026D03*
G54D12*
D03*
Y1049758D03*
G54D13*
D03*
X1235359Y1591097D03*
G54D12*
D03*
G54D13*
Y1482829D03*
G54D12*
D03*
Y1374561D03*
G54D13*
D03*
G54D12*
Y1266294D03*
G54D13*
D03*
Y1158026D03*
G54D12*
D03*
G54D13*
Y1049758D03*
G54D12*
D03*
G54D13*
X1343627Y1591097D03*
G54D12*
D03*
G54D13*
Y1482829D03*
G54D12*
D03*
Y1374561D03*
G54D13*
D03*
G54D12*
Y1266294D03*
G54D13*
D03*
G54D12*
Y1158026D03*
G54D13*
D03*
Y1049758D03*
G54D12*
D03*
G54D13*
X1451895Y1591097D03*
G54D12*
D03*
Y1482829D03*
G54D13*
D03*
Y1374561D03*
G54D12*
D03*
G54D13*
Y1266294D03*
G54D12*
D03*
Y1158026D03*
G54D13*
D03*
Y1049758D03*
G54D12*
D03*
X1560163Y1374561D03*
G54D13*
D03*
Y1266294D03*
G54D12*
D03*
G54D13*
Y1158026D03*
G54D12*
D03*
G54D13*
Y1049758D03*
G54D12*
D03*
X1668430Y1591097D03*
G54D13*
D03*
G54D12*
Y1482829D03*
G54D13*
D03*
Y1374561D03*
G54D12*
D03*
Y1266294D03*
G54D13*
D03*
Y1158026D03*
G54D12*
D03*
G54D13*
Y1049758D03*
G54D12*
D03*
G54D13*
X1776698Y1699365D03*
G54D12*
D03*
G54D13*
Y941491D03*
G54D12*
D03*
G54D13*
X1884966Y1699365D03*
G54D12*
D03*
G54D13*
Y941491D03*
G54D12*
D03*
G54D13*
X1993233Y1699365D03*
G54D12*
D03*
Y941491D03*
G54D13*
D03*
X2101501Y1699365D03*
G54D12*
D03*
G54D13*
Y941491D03*
G54D12*
D03*
G54D13*
X2209769Y1699365D03*
G54D12*
D03*
Y941491D03*
G54D13*
D03*
G54D12*
X1018824Y1699365D03*
G54D13*
D03*
G54D12*
Y941491D03*
G54D13*
D03*
G54D12*
X1127092Y1699365D03*
G54D13*
D03*
Y941491D03*
G54D12*
D03*
X1235359Y1699365D03*
G54D13*
D03*
Y941491D03*
G54D12*
D03*
X1343627Y1699365D03*
G54D13*
D03*
Y941491D03*
G54D12*
D03*
G54D13*
X1451895Y1699365D03*
G54D12*
D03*
G54D13*
Y941491D03*
G54D12*
D03*
X1560163Y1699365D03*
G54D13*
D03*
Y941491D03*
G54D12*
D03*
G54D13*
X1668430Y1699365D03*
G54D12*
D03*
G54D13*
Y941491D03*
G54D12*
D03*
G54D18*
X1120793Y1597396D02*
X1133391D01*
G54D13*
X1127092Y1591097D03*
Y1482829D03*
G54D18*
X1120793Y1476530D02*
X1133391D01*
G54D13*
X2101501Y1591097D03*
G54D18*
X2095202Y1597396D02*
X2107800D01*
G54D12*
X910556Y941491D03*
G54D13*
D03*
G54D18*
X2095202Y1476530D02*
X2107800D01*
G54D13*
X2101501Y1482829D03*
G54D18*
X1553864Y1597396D02*
X1566462D01*
G54D13*
X1560163Y1591097D03*
G54D18*
X1553864Y1476530D02*
X1566462D01*
G54D13*
X1560163Y1482829D03*
G54D19*
X1494171Y473971D02*
X1734421D01*
G54D20*
X1416921Y553221D03*
X1811671D03*
G54D21*
X1418921D02*
X1809671D01*
G54D20*
X1416921Y394721D03*
X1811671D03*
G54D21*
X1418921D02*
X1809671D01*
G54D22*
X78889Y236150D03*
X3149689D03*
G54D20*
X0Y0D02*
Y354086D01*
X39286D01*
X47194Y355039D01*
X54560Y357322D01*
X61226Y360937D01*
X67034Y365726D01*
X71826Y371531D01*
X75445Y378196D01*
X77732Y385560D01*
X78531Y393468D01*
X77732Y401375D01*
X75445Y408740D01*
X71826Y415404D01*
X67034Y421209D01*
X61226Y425999D01*
X54560Y429613D01*
X47194Y431896D01*
X39286Y432692D01*
X-21Y432671D01*
Y708692D01*
X15782Y710294D01*
X30500Y714872D01*
X43819Y722107D01*
X55422Y731687D01*
X64996Y743296D01*
X72225Y756618D01*
X76794Y771338D01*
X78389Y787142D01*
X76798Y802949D01*
X72231Y817673D01*
X65003Y830998D01*
X55429Y842610D01*
X43825Y852193D01*
X30505Y859431D01*
X15785Y864009D01*
X-21Y865612D01*
Y2107311D01*
X779Y2115236D01*
X3073Y2122618D01*
X6702Y2129298D01*
X11508Y2135119D01*
X17332Y2139921D01*
X24015Y2143547D01*
X31399Y2145839D01*
X39326Y2146638D01*
X3188978Y2146632D01*
X3196904Y2145833D01*
X3204286Y2143542D01*
X3210967Y2139916D01*
X3216787Y2135113D01*
X3221589Y2129293D01*
X3225215Y2122613D01*
X3227506Y2115231D01*
X3228306Y2107306D01*
X3228069Y865586D01*
X3212301Y863944D01*
X3197620Y859342D01*
X3184339Y852093D01*
X3172771Y842511D01*
X3163228Y830911D01*
X3156024Y817606D01*
X3151472Y802909D01*
X3149881Y787136D01*
X3151472Y771370D01*
X3156024Y756682D01*
X3163224Y743383D01*
X3172761Y731787D01*
X3184322Y722209D01*
X3197594Y714959D01*
X3212267Y710354D01*
X3228026Y708705D01*
X3227908Y432663D01*
X3188907Y432684D01*
X3180999Y431889D01*
X3173633Y429606D01*
X3166967Y425991D01*
X3161159Y421202D01*
X3156367Y415396D01*
X3152748Y408732D01*
X3150461Y401367D01*
X3149662Y393460D01*
X3150461Y385552D01*
X3152748Y378188D01*
X3156367Y371524D01*
X3161159Y365718D01*
X3166967Y360929D01*
X3173633Y357315D01*
X3180999Y355031D01*
X3188907Y354236D01*
X3188891Y354157D01*
X3188907Y354078D01*
X3227888D01*
X3227770Y-7D01*
X1745781D01*
Y131948D01*
X1745290Y136069D01*
X1743844Y139960D01*
X1741524Y143402D01*
X1738460Y146202D01*
X1734824Y148203D01*
X1730820Y149294D01*
X1726671Y149414D01*
X1722610Y148555D01*
X1718865Y146766D01*
X1715646Y144146D01*
X1713132Y140844D01*
X1711464Y137043D01*
X1710737Y132957D01*
X1710708Y131948D01*
Y0D01*
X0D01*
G54D23*
X78889Y236150D03*
X3149689D03*
G36*
X102485Y0D02*
Y90506D01*
X1710708D01*
Y0D01*
X102485D01*
G37*
G36*
X1745781Y-7D02*
Y90506D01*
X3126107D01*
Y-7D01*
X1745781D01*
G37*
G54D11*
X102485Y90506D02*
X3126107D01*
%LPC*%
G75*
X3126107Y90506D02*
G54D24*
X137940Y109319D02*
Y95480D01*
X161562Y109319D02*
Y95480D01*
X185184Y109319D02*
Y95480D01*
X208806Y109319D02*
Y95480D01*
X232428Y109319D02*
Y95480D01*
X256050Y109319D02*
Y95480D01*
X279672Y109319D02*
Y95480D01*
X303294Y109319D02*
Y95480D01*
X326916Y109319D02*
Y95480D01*
X350538Y109319D02*
Y95480D01*
X374160Y109319D02*
Y95480D01*
X397782Y109319D02*
Y95480D01*
X421404Y109319D02*
Y95480D01*
X445026Y109319D02*
Y95480D01*
X468648Y109319D02*
Y95480D01*
X492270Y109319D02*
Y95480D01*
X515892Y109319D02*
Y95480D01*
X539514Y109319D02*
Y95480D01*
X563137Y109319D02*
Y95480D01*
X586759Y109319D02*
Y95480D01*
X610381Y109319D02*
Y95480D01*
X634003Y109319D02*
Y95480D01*
X657625Y109319D02*
Y95480D01*
X681247Y109319D02*
Y95480D01*
X704869Y109319D02*
Y95480D01*
X728491Y109319D02*
Y95480D01*
X752113Y109319D02*
Y95480D01*
X775735Y109319D02*
Y95480D01*
X799357Y109319D02*
Y95480D01*
X822979Y109319D02*
Y95480D01*
X846601Y109319D02*
Y95480D01*
X870223Y109319D02*
Y95480D01*
X893845Y109319D02*
Y95480D01*
X917467Y109319D02*
Y95480D01*
X941089Y109319D02*
Y95480D01*
X964711Y109319D02*
Y95480D01*
X988333Y109319D02*
Y95480D01*
X1011955Y109319D02*
Y95480D01*
X1035577Y109319D02*
Y95480D01*
X1059200Y109319D02*
Y95480D01*
X1082822Y109319D02*
Y95480D01*
X1106444Y109319D02*
Y95480D01*
X1130066Y109319D02*
Y95480D01*
X1153688Y109319D02*
Y95480D01*
X1177310Y109319D02*
Y95480D01*
X1200932Y109319D02*
Y95480D01*
X1224554Y109319D02*
Y95480D01*
X1248176Y109319D02*
Y95480D01*
X1271798Y109319D02*
Y95480D01*
X1295420Y109319D02*
Y95480D01*
X1319042Y109319D02*
Y95480D01*
X1342664Y109319D02*
Y95480D01*
X1366286Y109319D02*
Y95480D01*
X1389908Y109319D02*
Y95480D01*
X1413530Y109319D02*
Y95480D01*
X1437152Y109319D02*
Y95480D01*
X1460774Y109319D02*
Y95480D01*
X1484396Y109319D02*
Y95480D01*
X1508018Y109319D02*
Y95480D01*
X1531640Y109319D02*
Y95480D01*
X1555263Y109319D02*
Y95480D01*
X1578885Y109319D02*
Y95480D01*
X1602507Y109319D02*
Y95480D01*
X1626129Y109319D02*
Y95480D01*
X1791483Y109319D02*
Y95480D01*
X1815105Y109319D02*
Y95480D01*
X1838727Y109319D02*
Y95480D01*
X1862349Y109319D02*
Y95480D01*
X1885971Y109319D02*
Y95480D01*
X1909593Y109319D02*
Y95480D01*
X1933215Y109319D02*
Y95480D01*
X1956837Y109319D02*
Y95480D01*
X1980459Y109319D02*
Y95480D01*
X2004081Y109319D02*
Y95480D01*
X2027703Y109319D02*
Y95480D01*
X2051325Y109319D02*
Y95480D01*
X2074948Y109319D02*
Y95480D01*
X2098570Y109319D02*
Y95480D01*
X2122192Y109319D02*
Y95480D01*
X2145814Y109319D02*
Y95480D01*
X2169436Y109319D02*
Y95480D01*
X2193058Y109319D02*
Y95480D01*
X2216680Y109319D02*
Y95480D01*
X2240302Y109319D02*
Y95480D01*
X2263924Y109319D02*
Y95480D01*
X2287546Y109319D02*
Y95480D01*
X2311168Y109319D02*
Y95480D01*
X2334790Y109319D02*
Y95480D01*
X2358412Y109319D02*
Y95480D01*
X2382034Y109319D02*
Y95480D01*
X2405656Y109319D02*
Y95480D01*
X2429278Y109319D02*
Y95480D01*
X2452900Y109319D02*
Y95480D01*
X2476522Y109319D02*
Y95480D01*
X2500144Y109319D02*
Y95480D01*
X2523766Y109319D02*
Y95480D01*
X2547388Y109319D02*
Y95480D01*
X2571011Y109319D02*
Y95480D01*
X2594633Y109319D02*
Y95480D01*
X2618255Y109319D02*
Y95480D01*
X2641877Y109319D02*
Y95480D01*
X2665499Y109319D02*
Y95480D01*
X2689121Y109319D02*
Y95480D01*
X2712743Y109319D02*
Y95480D01*
X2736365Y109319D02*
Y95480D01*
X2759987Y109319D02*
Y95480D01*
X2783609Y109319D02*
Y95480D01*
X2807231Y109319D02*
Y95480D01*
X2830853Y109319D02*
Y95480D01*
X2854475Y109319D02*
Y95480D01*
X2878097Y109319D02*
Y95480D01*
X2925341Y109319D02*
Y95480D01*
X2948963Y109319D02*
Y95480D01*
X2972585Y109319D02*
Y95480D01*
X2996207Y109319D02*
Y95480D01*
X3019829Y109319D02*
Y95480D01*
X3043451Y109319D02*
Y95480D01*
X3067074Y109319D02*
Y95480D01*
X3090696Y109319D02*
Y95480D01*
X2901719Y109319D02*
Y95480D01*
M02*
