G04 #@! TF.GenerationSoftware,KiCad,Pcbnew,5.1.5+dfsg1-2build2*
G04 #@! TF.CreationDate,2021-10-18T18:16:56+02:00*
G04 #@! TF.ProjectId,DIMMCartridgeV4,44494d4d-4361-4727-9472-696467655634,rev?*
G04 #@! TF.SameCoordinates,Original*
G04 #@! TF.FileFunction,Soldermask,Top*
G04 #@! TF.FilePolarity,Negative*
%FSLAX46Y46*%
G04 Gerber Fmt 4.6, Leading zero omitted, Abs format (unit mm)*
G04 Created by KiCad (PCBNEW 5.1.5+dfsg1-2build2) date 2021-10-18 18:16:56*
%MOMM*%
%LPD*%
G04 APERTURE LIST*
%ADD10C,0.100000*%
%ADD11C,0.150000*%
G04 APERTURE END LIST*
D10*
G36*
X140380000Y-78595000D02*
G01*
X140730000Y-78835000D01*
X140920000Y-79125000D01*
X140990000Y-79505000D01*
X140990000Y-111045000D01*
X140240000Y-111195000D01*
X139590000Y-111635000D01*
X139150000Y-112265000D01*
X139000000Y-113055000D01*
X139140000Y-113795000D01*
X139590000Y-114445000D01*
X140210000Y-114885000D01*
X140990000Y-115035000D01*
X140980000Y-120785000D01*
X134550000Y-120785000D01*
X132740000Y-120975000D01*
X131080000Y-121525000D01*
X129450000Y-122465000D01*
X128040000Y-123795000D01*
X125920000Y-125765000D01*
X123560000Y-127135000D01*
X121030000Y-127995000D01*
X118290000Y-128295000D01*
X105040000Y-128295000D01*
X105040000Y-123005000D01*
X95000000Y-123025000D01*
X95000000Y-128295000D01*
X84650000Y-128285000D01*
X81530000Y-128265000D01*
X79020000Y-127995000D01*
X76410000Y-127135000D01*
X74060000Y-125765000D01*
X73030000Y-124835000D01*
X72140000Y-123985000D01*
X70550000Y-122495000D01*
X68920000Y-121535000D01*
X67250000Y-120985000D01*
X65440000Y-120785000D01*
X59000000Y-120775000D01*
X59000000Y-119035000D01*
X59020000Y-115045000D01*
X59770000Y-114875000D01*
X60420000Y-114435000D01*
X60830000Y-113815000D01*
X60990000Y-113015000D01*
X60830000Y-112265000D01*
X60400000Y-111635000D01*
X59730000Y-111195000D01*
X58990000Y-111045000D01*
X58990000Y-79545000D01*
X59070000Y-79125000D01*
X59280000Y-78805000D01*
X59590000Y-78585000D01*
X60000000Y-78515000D01*
X139970000Y-78505000D01*
X140380000Y-78595000D01*
G37*
X140380000Y-78595000D02*
X140730000Y-78835000D01*
X140920000Y-79125000D01*
X140990000Y-79505000D01*
X140990000Y-111045000D01*
X140240000Y-111195000D01*
X139590000Y-111635000D01*
X139150000Y-112265000D01*
X139000000Y-113055000D01*
X139140000Y-113795000D01*
X139590000Y-114445000D01*
X140210000Y-114885000D01*
X140990000Y-115035000D01*
X140980000Y-120785000D01*
X134550000Y-120785000D01*
X132740000Y-120975000D01*
X131080000Y-121525000D01*
X129450000Y-122465000D01*
X128040000Y-123795000D01*
X125920000Y-125765000D01*
X123560000Y-127135000D01*
X121030000Y-127995000D01*
X118290000Y-128295000D01*
X105040000Y-128295000D01*
X105040000Y-123005000D01*
X95000000Y-123025000D01*
X95000000Y-128295000D01*
X84650000Y-128285000D01*
X81530000Y-128265000D01*
X79020000Y-127995000D01*
X76410000Y-127135000D01*
X74060000Y-125765000D01*
X73030000Y-124835000D01*
X72140000Y-123985000D01*
X70550000Y-122495000D01*
X68920000Y-121535000D01*
X67250000Y-120985000D01*
X65440000Y-120785000D01*
X59000000Y-120775000D01*
X59000000Y-119035000D01*
X59020000Y-115045000D01*
X59770000Y-114875000D01*
X60420000Y-114435000D01*
X60830000Y-113815000D01*
X60990000Y-113015000D01*
X60830000Y-112265000D01*
X60400000Y-111635000D01*
X59730000Y-111195000D01*
X58990000Y-111045000D01*
X58990000Y-79545000D01*
X59070000Y-79125000D01*
X59280000Y-78805000D01*
X59590000Y-78585000D01*
X60000000Y-78515000D01*
X139970000Y-78505000D01*
X140380000Y-78595000D01*
D11*
G36*
X61600000Y-130140000D02*
G01*
X61600000Y-133040000D01*
X138400000Y-133040000D01*
X138400000Y-130140000D01*
X61600000Y-130140000D01*
G37*
X61600000Y-130140000D02*
X61600000Y-133040000D01*
X138400000Y-133040000D01*
X138400000Y-130140000D01*
X61600000Y-130140000D01*
D10*
G36*
X100800000Y-132640000D02*
G01*
X62000000Y-132640000D01*
X62000000Y-130340000D01*
X100800000Y-130340000D01*
X100800000Y-132640000D01*
G37*
G36*
X138000000Y-132640000D02*
G01*
X104000000Y-132640000D01*
X104000000Y-130340000D01*
X138000000Y-130340000D01*
X138000000Y-132640000D01*
G37*
G36*
X61262520Y-126174586D02*
G01*
X61426310Y-126242430D01*
X61573717Y-126340924D01*
X61699076Y-126466283D01*
X61797570Y-126613690D01*
X61865414Y-126777480D01*
X61900000Y-126951358D01*
X61900000Y-127128642D01*
X61865414Y-127302520D01*
X61797570Y-127466310D01*
X61699076Y-127613717D01*
X61573717Y-127739076D01*
X61426310Y-127837570D01*
X61426309Y-127837571D01*
X61426308Y-127837571D01*
X61262520Y-127905414D01*
X61088644Y-127940000D01*
X60911356Y-127940000D01*
X60737480Y-127905414D01*
X60573692Y-127837571D01*
X60573691Y-127837571D01*
X60573690Y-127837570D01*
X60426283Y-127739076D01*
X60300924Y-127613717D01*
X60202430Y-127466310D01*
X60134586Y-127302520D01*
X60100000Y-127128642D01*
X60100000Y-126951358D01*
X60134586Y-126777480D01*
X60202430Y-126613690D01*
X60300924Y-126466283D01*
X60426283Y-126340924D01*
X60573690Y-126242430D01*
X60737480Y-126174586D01*
X60911356Y-126140000D01*
X61088644Y-126140000D01*
X61262520Y-126174586D01*
G37*
G36*
X139262520Y-126174586D02*
G01*
X139426310Y-126242430D01*
X139573717Y-126340924D01*
X139699076Y-126466283D01*
X139797570Y-126613690D01*
X139865414Y-126777480D01*
X139900000Y-126951358D01*
X139900000Y-127128642D01*
X139865414Y-127302520D01*
X139797570Y-127466310D01*
X139699076Y-127613717D01*
X139573717Y-127739076D01*
X139426310Y-127837570D01*
X139426309Y-127837571D01*
X139426308Y-127837571D01*
X139262520Y-127905414D01*
X139088644Y-127940000D01*
X138911356Y-127940000D01*
X138737480Y-127905414D01*
X138573692Y-127837571D01*
X138573691Y-127837571D01*
X138573690Y-127837570D01*
X138426283Y-127739076D01*
X138300924Y-127613717D01*
X138202430Y-127466310D01*
X138134586Y-127302520D01*
X138100000Y-127128642D01*
X138100000Y-126951358D01*
X138134586Y-126777480D01*
X138202430Y-126613690D01*
X138300924Y-126466283D01*
X138426283Y-126340924D01*
X138573690Y-126242430D01*
X138737480Y-126174586D01*
X138911356Y-126140000D01*
X139088644Y-126140000D01*
X139262520Y-126174586D01*
G37*
G36*
X105000000Y-123000000D02*
G01*
X95000000Y-123000000D01*
X95000000Y-119000000D01*
X105000000Y-119000000D01*
X105000000Y-123000000D01*
G37*
G36*
X76390000Y-104760000D02*
G01*
X73759999Y-104760000D01*
X73735613Y-104762402D01*
X73712164Y-104769515D01*
X73690553Y-104781066D01*
X73671611Y-104796611D01*
X73656066Y-104815553D01*
X73644515Y-104837164D01*
X73637402Y-104860613D01*
X73635000Y-104884999D01*
X73635000Y-107865001D01*
X73637402Y-107889387D01*
X73644515Y-107912836D01*
X73656066Y-107934447D01*
X73671611Y-107953389D01*
X73690553Y-107968934D01*
X73712164Y-107980485D01*
X73735613Y-107987598D01*
X73759999Y-107990000D01*
X76390000Y-107990000D01*
X76390000Y-110390000D01*
X71323098Y-110390000D01*
X71312836Y-110384515D01*
X71289387Y-110377402D01*
X71265001Y-110375000D01*
X67500000Y-110375000D01*
X67500000Y-102375000D01*
X71265001Y-102375000D01*
X71289387Y-102372598D01*
X71312836Y-102365485D01*
X71323098Y-102360000D01*
X76390000Y-102360000D01*
X76390000Y-104760000D01*
G37*
G36*
X128687164Y-102365485D02*
G01*
X128710613Y-102372598D01*
X128734999Y-102375000D01*
X132500000Y-102375000D01*
X132500000Y-110375000D01*
X128734999Y-110375000D01*
X128710613Y-110377402D01*
X128687164Y-110384515D01*
X128676902Y-110390000D01*
X123610000Y-110390000D01*
X123610000Y-107990000D01*
X126240001Y-107990000D01*
X126264387Y-107987598D01*
X126287836Y-107980485D01*
X126309447Y-107968934D01*
X126328389Y-107953389D01*
X126343934Y-107934447D01*
X126355485Y-107912836D01*
X126362598Y-107889387D01*
X126365000Y-107865001D01*
X126365000Y-104884999D01*
X126362598Y-104860613D01*
X126355485Y-104837164D01*
X126343934Y-104815553D01*
X126328389Y-104796611D01*
X126309447Y-104781066D01*
X126287836Y-104769515D01*
X126264387Y-104762402D01*
X126240001Y-104760000D01*
X123610000Y-104760000D01*
X123610000Y-102360000D01*
X128676902Y-102360000D01*
X128687164Y-102365485D01*
G37*
G36*
X116260000Y-110260000D02*
G01*
X113990000Y-110260000D01*
X113990000Y-107990000D01*
X116260000Y-107990000D01*
X116260000Y-110260000D01*
G37*
G36*
X123135000Y-110260000D02*
G01*
X120865000Y-110260000D01*
X120865000Y-107990000D01*
X123135000Y-107990000D01*
X123135000Y-110260000D01*
G37*
G36*
X99760000Y-110260000D02*
G01*
X97490000Y-110260000D01*
X97490000Y-107990000D01*
X99760000Y-107990000D01*
X99760000Y-110260000D01*
G37*
G36*
X108010000Y-110260000D02*
G01*
X105740000Y-110260000D01*
X105740000Y-107990000D01*
X108010000Y-107990000D01*
X108010000Y-110260000D01*
G37*
G36*
X110760000Y-110260000D02*
G01*
X108490000Y-110260000D01*
X108490000Y-107990000D01*
X110760000Y-107990000D01*
X110760000Y-110260000D01*
G37*
G36*
X97010000Y-110260000D02*
G01*
X94740000Y-110260000D01*
X94740000Y-107990000D01*
X97010000Y-107990000D01*
X97010000Y-110260000D01*
G37*
G36*
X113510000Y-110260000D02*
G01*
X111240000Y-110260000D01*
X111240000Y-107990000D01*
X113510000Y-107990000D01*
X113510000Y-110260000D01*
G37*
G36*
X88760000Y-110260000D02*
G01*
X86490000Y-110260000D01*
X86490000Y-107990000D01*
X88760000Y-107990000D01*
X88760000Y-110260000D01*
G37*
G36*
X105260000Y-110260000D02*
G01*
X102990000Y-110260000D01*
X102990000Y-107990000D01*
X105260000Y-107990000D01*
X105260000Y-110260000D01*
G37*
G36*
X83260000Y-110260000D02*
G01*
X80990000Y-110260000D01*
X80990000Y-107990000D01*
X83260000Y-107990000D01*
X83260000Y-110260000D01*
G37*
G36*
X119010000Y-110260000D02*
G01*
X116740000Y-110260000D01*
X116740000Y-107990000D01*
X119010000Y-107990000D01*
X119010000Y-110260000D01*
G37*
G36*
X91510000Y-110260000D02*
G01*
X89240000Y-110260000D01*
X89240000Y-107990000D01*
X91510000Y-107990000D01*
X91510000Y-110260000D01*
G37*
G36*
X79135000Y-110260000D02*
G01*
X76865000Y-110260000D01*
X76865000Y-107990000D01*
X79135000Y-107990000D01*
X79135000Y-110260000D01*
G37*
G36*
X86010000Y-110260000D02*
G01*
X83740000Y-110260000D01*
X83740000Y-107990000D01*
X86010000Y-107990000D01*
X86010000Y-110260000D01*
G37*
G36*
X102510000Y-110260000D02*
G01*
X100240000Y-110260000D01*
X100240000Y-107990000D01*
X102510000Y-107990000D01*
X102510000Y-110260000D01*
G37*
G36*
X94260000Y-110260000D02*
G01*
X91990000Y-110260000D01*
X91990000Y-107990000D01*
X94260000Y-107990000D01*
X94260000Y-110260000D01*
G37*
G36*
X105260000Y-107510000D02*
G01*
X102990000Y-107510000D01*
X102990000Y-105240000D01*
X105260000Y-105240000D01*
X105260000Y-107510000D01*
G37*
G36*
X108010000Y-107510000D02*
G01*
X105740000Y-107510000D01*
X105740000Y-105240000D01*
X108010000Y-105240000D01*
X108010000Y-107510000D01*
G37*
G36*
X110760000Y-107510000D02*
G01*
X108490000Y-107510000D01*
X108490000Y-105240000D01*
X110760000Y-105240000D01*
X110760000Y-107510000D01*
G37*
G36*
X113510000Y-107510000D02*
G01*
X111240000Y-107510000D01*
X111240000Y-105240000D01*
X113510000Y-105240000D01*
X113510000Y-107510000D01*
G37*
G36*
X116260000Y-107510000D02*
G01*
X113990000Y-107510000D01*
X113990000Y-105240000D01*
X116260000Y-105240000D01*
X116260000Y-107510000D01*
G37*
G36*
X119010000Y-107510000D02*
G01*
X116740000Y-107510000D01*
X116740000Y-105240000D01*
X119010000Y-105240000D01*
X119010000Y-107510000D01*
G37*
G36*
X121760000Y-107510000D02*
G01*
X119490000Y-107510000D01*
X119490000Y-105240000D01*
X121760000Y-105240000D01*
X121760000Y-107510000D01*
G37*
G36*
X125885000Y-107510000D02*
G01*
X122240000Y-107510000D01*
X122240000Y-105240000D01*
X125885000Y-105240000D01*
X125885000Y-107510000D01*
G37*
G36*
X102510000Y-107510000D02*
G01*
X100240000Y-107510000D01*
X100240000Y-105240000D01*
X102510000Y-105240000D01*
X102510000Y-107510000D01*
G37*
G36*
X99760000Y-107510000D02*
G01*
X97490000Y-107510000D01*
X97490000Y-105240000D01*
X99760000Y-105240000D01*
X99760000Y-107510000D01*
G37*
G36*
X94260000Y-107510000D02*
G01*
X91990000Y-107510000D01*
X91990000Y-105240000D01*
X94260000Y-105240000D01*
X94260000Y-107510000D01*
G37*
G36*
X91510000Y-107510000D02*
G01*
X89240000Y-107510000D01*
X89240000Y-105240000D01*
X91510000Y-105240000D01*
X91510000Y-107510000D01*
G37*
G36*
X88760000Y-107510000D02*
G01*
X86490000Y-107510000D01*
X86490000Y-105240000D01*
X88760000Y-105240000D01*
X88760000Y-107510000D01*
G37*
G36*
X86010000Y-107510000D02*
G01*
X83740000Y-107510000D01*
X83740000Y-105240000D01*
X86010000Y-105240000D01*
X86010000Y-107510000D01*
G37*
G36*
X83260000Y-107510000D02*
G01*
X80990000Y-107510000D01*
X80990000Y-105240000D01*
X83260000Y-105240000D01*
X83260000Y-107510000D01*
G37*
G36*
X80510000Y-107510000D02*
G01*
X78240000Y-107510000D01*
X78240000Y-105240000D01*
X80510000Y-105240000D01*
X80510000Y-107510000D01*
G37*
G36*
X77760000Y-107510000D02*
G01*
X74115000Y-107510000D01*
X74115000Y-105240000D01*
X77760000Y-105240000D01*
X77760000Y-107510000D01*
G37*
G36*
X97010000Y-107510000D02*
G01*
X94740000Y-107510000D01*
X94740000Y-105240000D01*
X97010000Y-105240000D01*
X97010000Y-107510000D01*
G37*
G36*
X110760000Y-104760000D02*
G01*
X108490000Y-104760000D01*
X108490000Y-102490000D01*
X110760000Y-102490000D01*
X110760000Y-104760000D01*
G37*
G36*
X97010000Y-104760000D02*
G01*
X94740000Y-104760000D01*
X94740000Y-102490000D01*
X97010000Y-102490000D01*
X97010000Y-104760000D01*
G37*
G36*
X94260000Y-104760000D02*
G01*
X91990000Y-104760000D01*
X91990000Y-102490000D01*
X94260000Y-102490000D01*
X94260000Y-104760000D01*
G37*
G36*
X91510000Y-104760000D02*
G01*
X89240000Y-104760000D01*
X89240000Y-102490000D01*
X91510000Y-102490000D01*
X91510000Y-104760000D01*
G37*
G36*
X102510000Y-104760000D02*
G01*
X100240000Y-104760000D01*
X100240000Y-102490000D01*
X102510000Y-102490000D01*
X102510000Y-104760000D01*
G37*
G36*
X88760000Y-104760000D02*
G01*
X86490000Y-104760000D01*
X86490000Y-102490000D01*
X88760000Y-102490000D01*
X88760000Y-104760000D01*
G37*
G36*
X86010000Y-104760000D02*
G01*
X83740000Y-104760000D01*
X83740000Y-102490000D01*
X86010000Y-102490000D01*
X86010000Y-104760000D01*
G37*
G36*
X105260000Y-104760000D02*
G01*
X102990000Y-104760000D01*
X102990000Y-102490000D01*
X105260000Y-102490000D01*
X105260000Y-104760000D01*
G37*
G36*
X108010000Y-104760000D02*
G01*
X105740000Y-104760000D01*
X105740000Y-102490000D01*
X108010000Y-102490000D01*
X108010000Y-104760000D01*
G37*
G36*
X113510000Y-104760000D02*
G01*
X111240000Y-104760000D01*
X111240000Y-102490000D01*
X113510000Y-102490000D01*
X113510000Y-104760000D01*
G37*
G36*
X116260000Y-104760000D02*
G01*
X113990000Y-104760000D01*
X113990000Y-102490000D01*
X116260000Y-102490000D01*
X116260000Y-104760000D01*
G37*
G36*
X83260000Y-104760000D02*
G01*
X80990000Y-104760000D01*
X80990000Y-102490000D01*
X83260000Y-102490000D01*
X83260000Y-104760000D01*
G37*
G36*
X119010000Y-104760000D02*
G01*
X116740000Y-104760000D01*
X116740000Y-102490000D01*
X119010000Y-102490000D01*
X119010000Y-104760000D01*
G37*
G36*
X123135000Y-104760000D02*
G01*
X120865000Y-104760000D01*
X120865000Y-102490000D01*
X123135000Y-102490000D01*
X123135000Y-104760000D01*
G37*
G36*
X79135000Y-104760000D02*
G01*
X76865000Y-104760000D01*
X76865000Y-102490000D01*
X79135000Y-102490000D01*
X79135000Y-104760000D01*
G37*
G36*
X99760000Y-104760000D02*
G01*
X97490000Y-104760000D01*
X97490000Y-102490000D01*
X99760000Y-102490000D01*
X99760000Y-104760000D01*
G37*
G36*
X105260000Y-102010000D02*
G01*
X102990000Y-102010000D01*
X102990000Y-99740000D01*
X105260000Y-99740000D01*
X105260000Y-102010000D01*
G37*
G36*
X86010000Y-102010000D02*
G01*
X83740000Y-102010000D01*
X83740000Y-99740000D01*
X86010000Y-99740000D01*
X86010000Y-102010000D01*
G37*
G36*
X88760000Y-102010000D02*
G01*
X86490000Y-102010000D01*
X86490000Y-99740000D01*
X88760000Y-99740000D01*
X88760000Y-102010000D01*
G37*
G36*
X102510000Y-102010000D02*
G01*
X100240000Y-102010000D01*
X100240000Y-99740000D01*
X102510000Y-99740000D01*
X102510000Y-102010000D01*
G37*
G36*
X113510000Y-102010000D02*
G01*
X111240000Y-102010000D01*
X111240000Y-99740000D01*
X113510000Y-99740000D01*
X113510000Y-102010000D01*
G37*
G36*
X116260000Y-102010000D02*
G01*
X113990000Y-102010000D01*
X113990000Y-99740000D01*
X116260000Y-99740000D01*
X116260000Y-102010000D01*
G37*
G36*
X119010000Y-102010000D02*
G01*
X116740000Y-102010000D01*
X116740000Y-99740000D01*
X119010000Y-99740000D01*
X119010000Y-102010000D01*
G37*
G36*
X91510000Y-102010000D02*
G01*
X89240000Y-102010000D01*
X89240000Y-99740000D01*
X91510000Y-99740000D01*
X91510000Y-102010000D01*
G37*
G36*
X83260000Y-102010000D02*
G01*
X80990000Y-102010000D01*
X80990000Y-99740000D01*
X83260000Y-99740000D01*
X83260000Y-102010000D01*
G37*
G36*
X108010000Y-102010000D02*
G01*
X105740000Y-102010000D01*
X105740000Y-99740000D01*
X108010000Y-99740000D01*
X108010000Y-102010000D01*
G37*
G36*
X97010000Y-102010000D02*
G01*
X94740000Y-102010000D01*
X94740000Y-99740000D01*
X97010000Y-99740000D01*
X97010000Y-102010000D01*
G37*
G36*
X110760000Y-102010000D02*
G01*
X108490000Y-102010000D01*
X108490000Y-99740000D01*
X110760000Y-99740000D01*
X110760000Y-102010000D01*
G37*
G36*
X94260000Y-102010000D02*
G01*
X91990000Y-102010000D01*
X91990000Y-99740000D01*
X94260000Y-99740000D01*
X94260000Y-102010000D01*
G37*
G36*
X99760000Y-102010000D02*
G01*
X97490000Y-102010000D01*
X97490000Y-99740000D01*
X99760000Y-99740000D01*
X99760000Y-102010000D01*
G37*
G36*
X88760000Y-99260000D02*
G01*
X86490000Y-99260000D01*
X86490000Y-96990000D01*
X88760000Y-96990000D01*
X88760000Y-99260000D01*
G37*
G36*
X102510000Y-99260000D02*
G01*
X100240000Y-99260000D01*
X100240000Y-96990000D01*
X102510000Y-96990000D01*
X102510000Y-99260000D01*
G37*
G36*
X83260000Y-99260000D02*
G01*
X80990000Y-99260000D01*
X80990000Y-96990000D01*
X83260000Y-96990000D01*
X83260000Y-99260000D01*
G37*
G36*
X110760000Y-99260000D02*
G01*
X108490000Y-99260000D01*
X108490000Y-96990000D01*
X110760000Y-96990000D01*
X110760000Y-99260000D01*
G37*
G36*
X86010000Y-99260000D02*
G01*
X83740000Y-99260000D01*
X83740000Y-96990000D01*
X86010000Y-96990000D01*
X86010000Y-99260000D01*
G37*
G36*
X113510000Y-99260000D02*
G01*
X111240000Y-99260000D01*
X111240000Y-96990000D01*
X113510000Y-96990000D01*
X113510000Y-99260000D01*
G37*
G36*
X116260000Y-99260000D02*
G01*
X113990000Y-99260000D01*
X113990000Y-96990000D01*
X116260000Y-96990000D01*
X116260000Y-99260000D01*
G37*
G36*
X108010000Y-99260000D02*
G01*
X105740000Y-99260000D01*
X105740000Y-96990000D01*
X108010000Y-96990000D01*
X108010000Y-99260000D01*
G37*
G36*
X99760000Y-99260000D02*
G01*
X97490000Y-99260000D01*
X97490000Y-96990000D01*
X99760000Y-96990000D01*
X99760000Y-99260000D01*
G37*
G36*
X94260000Y-99260000D02*
G01*
X91990000Y-99260000D01*
X91990000Y-96990000D01*
X94260000Y-96990000D01*
X94260000Y-99260000D01*
G37*
G36*
X97010000Y-99260000D02*
G01*
X94740000Y-99260000D01*
X94740000Y-96990000D01*
X97010000Y-96990000D01*
X97010000Y-99260000D01*
G37*
G36*
X119010000Y-99260000D02*
G01*
X116740000Y-99260000D01*
X116740000Y-96990000D01*
X119010000Y-96990000D01*
X119010000Y-99260000D01*
G37*
G36*
X91510000Y-99260000D02*
G01*
X89240000Y-99260000D01*
X89240000Y-96990000D01*
X91510000Y-96990000D01*
X91510000Y-99260000D01*
G37*
G36*
X105260000Y-99260000D02*
G01*
X102990000Y-99260000D01*
X102990000Y-96990000D01*
X105260000Y-96990000D01*
X105260000Y-99260000D01*
G37*
G36*
X128687164Y-88615485D02*
G01*
X128710613Y-88622598D01*
X128734999Y-88625000D01*
X132500000Y-88625000D01*
X132500000Y-96625000D01*
X128734999Y-96625000D01*
X128710613Y-96627402D01*
X128687164Y-96634515D01*
X128676902Y-96640000D01*
X123610000Y-96640000D01*
X123610000Y-94240000D01*
X126240001Y-94240000D01*
X126264387Y-94237598D01*
X126287836Y-94230485D01*
X126309447Y-94218934D01*
X126328389Y-94203389D01*
X126343934Y-94184447D01*
X126355485Y-94162836D01*
X126362598Y-94139387D01*
X126365000Y-94115001D01*
X126365000Y-91134999D01*
X126362598Y-91110613D01*
X126355485Y-91087164D01*
X126343934Y-91065553D01*
X126328389Y-91046611D01*
X126309447Y-91031066D01*
X126287836Y-91019515D01*
X126264387Y-91012402D01*
X126240001Y-91010000D01*
X123610000Y-91010000D01*
X123610000Y-88610000D01*
X128676902Y-88610000D01*
X128687164Y-88615485D01*
G37*
G36*
X76390000Y-91010000D02*
G01*
X73759999Y-91010000D01*
X73735613Y-91012402D01*
X73712164Y-91019515D01*
X73690553Y-91031066D01*
X73671611Y-91046611D01*
X73656066Y-91065553D01*
X73644515Y-91087164D01*
X73637402Y-91110613D01*
X73635000Y-91134999D01*
X73635000Y-94115001D01*
X73637402Y-94139387D01*
X73644515Y-94162836D01*
X73656066Y-94184447D01*
X73671611Y-94203389D01*
X73690553Y-94218934D01*
X73712164Y-94230485D01*
X73735613Y-94237598D01*
X73759999Y-94240000D01*
X76390000Y-94240000D01*
X76390000Y-96640000D01*
X71323098Y-96640000D01*
X71312836Y-96634515D01*
X71289387Y-96627402D01*
X71265001Y-96625000D01*
X67500000Y-96625000D01*
X67500000Y-88625000D01*
X71265001Y-88625000D01*
X71289387Y-88622598D01*
X71312836Y-88615485D01*
X71323098Y-88610000D01*
X76390000Y-88610000D01*
X76390000Y-91010000D01*
G37*
G36*
X105260000Y-96510000D02*
G01*
X102990000Y-96510000D01*
X102990000Y-94240000D01*
X105260000Y-94240000D01*
X105260000Y-96510000D01*
G37*
G36*
X108010000Y-96510000D02*
G01*
X105740000Y-96510000D01*
X105740000Y-94240000D01*
X108010000Y-94240000D01*
X108010000Y-96510000D01*
G37*
G36*
X110760000Y-96510000D02*
G01*
X108490000Y-96510000D01*
X108490000Y-94240000D01*
X110760000Y-94240000D01*
X110760000Y-96510000D01*
G37*
G36*
X113510000Y-96510000D02*
G01*
X111240000Y-96510000D01*
X111240000Y-94240000D01*
X113510000Y-94240000D01*
X113510000Y-96510000D01*
G37*
G36*
X116260000Y-96510000D02*
G01*
X113990000Y-96510000D01*
X113990000Y-94240000D01*
X116260000Y-94240000D01*
X116260000Y-96510000D01*
G37*
G36*
X88760000Y-96510000D02*
G01*
X86490000Y-96510000D01*
X86490000Y-94240000D01*
X88760000Y-94240000D01*
X88760000Y-96510000D01*
G37*
G36*
X123135000Y-96510000D02*
G01*
X120865000Y-96510000D01*
X120865000Y-94240000D01*
X123135000Y-94240000D01*
X123135000Y-96510000D01*
G37*
G36*
X119010000Y-96510000D02*
G01*
X116740000Y-96510000D01*
X116740000Y-94240000D01*
X119010000Y-94240000D01*
X119010000Y-96510000D01*
G37*
G36*
X83260000Y-96510000D02*
G01*
X80990000Y-96510000D01*
X80990000Y-94240000D01*
X83260000Y-94240000D01*
X83260000Y-96510000D01*
G37*
G36*
X99760000Y-96510000D02*
G01*
X97490000Y-96510000D01*
X97490000Y-94240000D01*
X99760000Y-94240000D01*
X99760000Y-96510000D01*
G37*
G36*
X91510000Y-96510000D02*
G01*
X89240000Y-96510000D01*
X89240000Y-94240000D01*
X91510000Y-94240000D01*
X91510000Y-96510000D01*
G37*
G36*
X97010000Y-96510000D02*
G01*
X94740000Y-96510000D01*
X94740000Y-94240000D01*
X97010000Y-94240000D01*
X97010000Y-96510000D01*
G37*
G36*
X94260000Y-96510000D02*
G01*
X91990000Y-96510000D01*
X91990000Y-94240000D01*
X94260000Y-94240000D01*
X94260000Y-96510000D01*
G37*
G36*
X79135000Y-96510000D02*
G01*
X76865000Y-96510000D01*
X76865000Y-94240000D01*
X79135000Y-94240000D01*
X79135000Y-96510000D01*
G37*
G36*
X86010000Y-96510000D02*
G01*
X83740000Y-96510000D01*
X83740000Y-94240000D01*
X86010000Y-94240000D01*
X86010000Y-96510000D01*
G37*
G36*
X102510000Y-96510000D02*
G01*
X100240000Y-96510000D01*
X100240000Y-94240000D01*
X102510000Y-94240000D01*
X102510000Y-96510000D01*
G37*
G36*
X86010000Y-93760000D02*
G01*
X83740000Y-93760000D01*
X83740000Y-91490000D01*
X86010000Y-91490000D01*
X86010000Y-93760000D01*
G37*
G36*
X108010000Y-93760000D02*
G01*
X105740000Y-93760000D01*
X105740000Y-91490000D01*
X108010000Y-91490000D01*
X108010000Y-93760000D01*
G37*
G36*
X102510000Y-93760000D02*
G01*
X100240000Y-93760000D01*
X100240000Y-91490000D01*
X102510000Y-91490000D01*
X102510000Y-93760000D01*
G37*
G36*
X105260000Y-93760000D02*
G01*
X102990000Y-93760000D01*
X102990000Y-91490000D01*
X105260000Y-91490000D01*
X105260000Y-93760000D01*
G37*
G36*
X77760000Y-93760000D02*
G01*
X74115000Y-93760000D01*
X74115000Y-91490000D01*
X77760000Y-91490000D01*
X77760000Y-93760000D01*
G37*
G36*
X113510000Y-93760000D02*
G01*
X111240000Y-93760000D01*
X111240000Y-91490000D01*
X113510000Y-91490000D01*
X113510000Y-93760000D01*
G37*
G36*
X110760000Y-93760000D02*
G01*
X108490000Y-93760000D01*
X108490000Y-91490000D01*
X110760000Y-91490000D01*
X110760000Y-93760000D01*
G37*
G36*
X83260000Y-93760000D02*
G01*
X80990000Y-93760000D01*
X80990000Y-91490000D01*
X83260000Y-91490000D01*
X83260000Y-93760000D01*
G37*
G36*
X125885000Y-93760000D02*
G01*
X122240000Y-93760000D01*
X122240000Y-91490000D01*
X125885000Y-91490000D01*
X125885000Y-93760000D01*
G37*
G36*
X99760000Y-93760000D02*
G01*
X97490000Y-93760000D01*
X97490000Y-91490000D01*
X99760000Y-91490000D01*
X99760000Y-93760000D01*
G37*
G36*
X116260000Y-93760000D02*
G01*
X113990000Y-93760000D01*
X113990000Y-91490000D01*
X116260000Y-91490000D01*
X116260000Y-93760000D01*
G37*
G36*
X121760000Y-93760000D02*
G01*
X119490000Y-93760000D01*
X119490000Y-91490000D01*
X121760000Y-91490000D01*
X121760000Y-93760000D01*
G37*
G36*
X91510000Y-93760000D02*
G01*
X89240000Y-93760000D01*
X89240000Y-91490000D01*
X91510000Y-91490000D01*
X91510000Y-93760000D01*
G37*
G36*
X88760000Y-93760000D02*
G01*
X86490000Y-93760000D01*
X86490000Y-91490000D01*
X88760000Y-91490000D01*
X88760000Y-93760000D01*
G37*
G36*
X94260000Y-93760000D02*
G01*
X91990000Y-93760000D01*
X91990000Y-91490000D01*
X94260000Y-91490000D01*
X94260000Y-93760000D01*
G37*
G36*
X97010000Y-93760000D02*
G01*
X94740000Y-93760000D01*
X94740000Y-91490000D01*
X97010000Y-91490000D01*
X97010000Y-93760000D01*
G37*
G36*
X119010000Y-93760000D02*
G01*
X116740000Y-93760000D01*
X116740000Y-91490000D01*
X119010000Y-91490000D01*
X119010000Y-93760000D01*
G37*
G36*
X80510000Y-93760000D02*
G01*
X78240000Y-93760000D01*
X78240000Y-91490000D01*
X80510000Y-91490000D01*
X80510000Y-93760000D01*
G37*
G36*
X99760000Y-91010000D02*
G01*
X97490000Y-91010000D01*
X97490000Y-88740000D01*
X99760000Y-88740000D01*
X99760000Y-91010000D01*
G37*
G36*
X116260000Y-91010000D02*
G01*
X113990000Y-91010000D01*
X113990000Y-88740000D01*
X116260000Y-88740000D01*
X116260000Y-91010000D01*
G37*
G36*
X113510000Y-91010000D02*
G01*
X111240000Y-91010000D01*
X111240000Y-88740000D01*
X113510000Y-88740000D01*
X113510000Y-91010000D01*
G37*
G36*
X110760000Y-91010000D02*
G01*
X108490000Y-91010000D01*
X108490000Y-88740000D01*
X110760000Y-88740000D01*
X110760000Y-91010000D01*
G37*
G36*
X108010000Y-91010000D02*
G01*
X105740000Y-91010000D01*
X105740000Y-88740000D01*
X108010000Y-88740000D01*
X108010000Y-91010000D01*
G37*
G36*
X105260000Y-91010000D02*
G01*
X102990000Y-91010000D01*
X102990000Y-88740000D01*
X105260000Y-88740000D01*
X105260000Y-91010000D01*
G37*
G36*
X102510000Y-91010000D02*
G01*
X100240000Y-91010000D01*
X100240000Y-88740000D01*
X102510000Y-88740000D01*
X102510000Y-91010000D01*
G37*
G36*
X79135000Y-91010000D02*
G01*
X76865000Y-91010000D01*
X76865000Y-88740000D01*
X79135000Y-88740000D01*
X79135000Y-91010000D01*
G37*
G36*
X83260000Y-91010000D02*
G01*
X80990000Y-91010000D01*
X80990000Y-88740000D01*
X83260000Y-88740000D01*
X83260000Y-91010000D01*
G37*
G36*
X86010000Y-91010000D02*
G01*
X83740000Y-91010000D01*
X83740000Y-88740000D01*
X86010000Y-88740000D01*
X86010000Y-91010000D01*
G37*
G36*
X88760000Y-91010000D02*
G01*
X86490000Y-91010000D01*
X86490000Y-88740000D01*
X88760000Y-88740000D01*
X88760000Y-91010000D01*
G37*
G36*
X91510000Y-91010000D02*
G01*
X89240000Y-91010000D01*
X89240000Y-88740000D01*
X91510000Y-88740000D01*
X91510000Y-91010000D01*
G37*
G36*
X94260000Y-91010000D02*
G01*
X91990000Y-91010000D01*
X91990000Y-88740000D01*
X94260000Y-88740000D01*
X94260000Y-91010000D01*
G37*
G36*
X119010000Y-91010000D02*
G01*
X116740000Y-91010000D01*
X116740000Y-88740000D01*
X119010000Y-88740000D01*
X119010000Y-91010000D01*
G37*
G36*
X123135000Y-91010000D02*
G01*
X120865000Y-91010000D01*
X120865000Y-88740000D01*
X123135000Y-88740000D01*
X123135000Y-91010000D01*
G37*
G36*
X97010000Y-91010000D02*
G01*
X94740000Y-91010000D01*
X94740000Y-88740000D01*
X97010000Y-88740000D01*
X97010000Y-91010000D01*
G37*
M02*
