G04 #@! TF.GenerationSoftware,KiCad,Pcbnew,5.1.5+dfsg1-2build2*
G04 #@! TF.CreationDate,2021-10-18T18:16:56+02:00*
G04 #@! TF.ProjectId,DIMMCartridgeV4,44494d4d-4361-4727-9472-696467655634,rev?*
G04 #@! TF.SameCoordinates,Original*
G04 #@! TF.FileFunction,Soldermask,Bot*
G04 #@! TF.FilePolarity,Negative*
%FSLAX46Y46*%
G04 Gerber Fmt 4.6, Leading zero omitted, Abs format (unit mm)*
G04 Created by KiCad (PCBNEW 5.1.5+dfsg1-2build2) date 2021-10-18 18:16:56*
%MOMM*%
%LPD*%
G04 APERTURE LIST*
%ADD10C,0.150000*%
%ADD11C,0.100000*%
G04 APERTURE END LIST*
D10*
G36*
X61600000Y-130140000D02*
G01*
X61600000Y-133040000D01*
X138400000Y-133040000D01*
X138400000Y-130140000D01*
X61600000Y-130140000D01*
G37*
X61600000Y-130140000D02*
X61600000Y-133040000D01*
X138400000Y-133040000D01*
X138400000Y-130140000D01*
X61600000Y-130140000D01*
D11*
G36*
X138000000Y-132640000D02*
G01*
X104000000Y-132640000D01*
X104000000Y-130340000D01*
X138000000Y-130340000D01*
X138000000Y-132640000D01*
G37*
G36*
X100800000Y-132640000D02*
G01*
X62000000Y-132640000D01*
X62000000Y-130340000D01*
X100800000Y-130340000D01*
X100800000Y-132640000D01*
G37*
G36*
X61262520Y-126174586D02*
G01*
X61426310Y-126242430D01*
X61573717Y-126340924D01*
X61699076Y-126466283D01*
X61797570Y-126613690D01*
X61865414Y-126777480D01*
X61900000Y-126951358D01*
X61900000Y-127128642D01*
X61865414Y-127302520D01*
X61797570Y-127466310D01*
X61699076Y-127613717D01*
X61573717Y-127739076D01*
X61426310Y-127837570D01*
X61426309Y-127837571D01*
X61426308Y-127837571D01*
X61262520Y-127905414D01*
X61088644Y-127940000D01*
X60911356Y-127940000D01*
X60737480Y-127905414D01*
X60573692Y-127837571D01*
X60573691Y-127837571D01*
X60573690Y-127837570D01*
X60426283Y-127739076D01*
X60300924Y-127613717D01*
X60202430Y-127466310D01*
X60134586Y-127302520D01*
X60100000Y-127128642D01*
X60100000Y-126951358D01*
X60134586Y-126777480D01*
X60202430Y-126613690D01*
X60300924Y-126466283D01*
X60426283Y-126340924D01*
X60573690Y-126242430D01*
X60737480Y-126174586D01*
X60911356Y-126140000D01*
X61088644Y-126140000D01*
X61262520Y-126174586D01*
G37*
G36*
X139262520Y-126174586D02*
G01*
X139426310Y-126242430D01*
X139573717Y-126340924D01*
X139699076Y-126466283D01*
X139797570Y-126613690D01*
X139865414Y-126777480D01*
X139900000Y-126951358D01*
X139900000Y-127128642D01*
X139865414Y-127302520D01*
X139797570Y-127466310D01*
X139699076Y-127613717D01*
X139573717Y-127739076D01*
X139426310Y-127837570D01*
X139426309Y-127837571D01*
X139426308Y-127837571D01*
X139262520Y-127905414D01*
X139088644Y-127940000D01*
X138911356Y-127940000D01*
X138737480Y-127905414D01*
X138573692Y-127837571D01*
X138573691Y-127837571D01*
X138573690Y-127837570D01*
X138426283Y-127739076D01*
X138300924Y-127613717D01*
X138202430Y-127466310D01*
X138134586Y-127302520D01*
X138100000Y-127128642D01*
X138100000Y-126951358D01*
X138134586Y-126777480D01*
X138202430Y-126613690D01*
X138300924Y-126466283D01*
X138426283Y-126340924D01*
X138573690Y-126242430D01*
X138737480Y-126174586D01*
X138911356Y-126140000D01*
X139088644Y-126140000D01*
X139262520Y-126174586D01*
G37*
G36*
X112433996Y-108828411D02*
G01*
X112463207Y-108834221D01*
X112518240Y-108857017D01*
X112567769Y-108890111D01*
X112609889Y-108932231D01*
X112642983Y-108981760D01*
X112665779Y-109036793D01*
X112677400Y-109095216D01*
X112677400Y-109154784D01*
X112665779Y-109213207D01*
X112642983Y-109268240D01*
X112609889Y-109317769D01*
X112567769Y-109359889D01*
X112518240Y-109392983D01*
X112463207Y-109415779D01*
X112433995Y-109421590D01*
X112404785Y-109427400D01*
X112345215Y-109427400D01*
X112316005Y-109421590D01*
X112286793Y-109415779D01*
X112231760Y-109392983D01*
X112182231Y-109359889D01*
X112140111Y-109317769D01*
X112107017Y-109268240D01*
X112084221Y-109213207D01*
X112072600Y-109154784D01*
X112072600Y-109095216D01*
X112084221Y-109036793D01*
X112107017Y-108981760D01*
X112140111Y-108932231D01*
X112182231Y-108890111D01*
X112231760Y-108857017D01*
X112286793Y-108834221D01*
X112316004Y-108828411D01*
X112345215Y-108822600D01*
X112404785Y-108822600D01*
X112433996Y-108828411D01*
G37*
G36*
X101433996Y-108828411D02*
G01*
X101463207Y-108834221D01*
X101518240Y-108857017D01*
X101567769Y-108890111D01*
X101609889Y-108932231D01*
X101642983Y-108981760D01*
X101665779Y-109036793D01*
X101677400Y-109095216D01*
X101677400Y-109154784D01*
X101665779Y-109213207D01*
X101642983Y-109268240D01*
X101609889Y-109317769D01*
X101567769Y-109359889D01*
X101518240Y-109392983D01*
X101463207Y-109415779D01*
X101433995Y-109421590D01*
X101404785Y-109427400D01*
X101345215Y-109427400D01*
X101316005Y-109421590D01*
X101286793Y-109415779D01*
X101231760Y-109392983D01*
X101182231Y-109359889D01*
X101140111Y-109317769D01*
X101107017Y-109268240D01*
X101084221Y-109213207D01*
X101072600Y-109154784D01*
X101072600Y-109095216D01*
X101084221Y-109036793D01*
X101107017Y-108981760D01*
X101140111Y-108932231D01*
X101182231Y-108890111D01*
X101231760Y-108857017D01*
X101286793Y-108834221D01*
X101316004Y-108828411D01*
X101345215Y-108822600D01*
X101404785Y-108822600D01*
X101433996Y-108828411D01*
G37*
G36*
X104183996Y-108828411D02*
G01*
X104213207Y-108834221D01*
X104268240Y-108857017D01*
X104317769Y-108890111D01*
X104359889Y-108932231D01*
X104392983Y-108981760D01*
X104415779Y-109036793D01*
X104427400Y-109095216D01*
X104427400Y-109154784D01*
X104415779Y-109213207D01*
X104392983Y-109268240D01*
X104359889Y-109317769D01*
X104317769Y-109359889D01*
X104268240Y-109392983D01*
X104213207Y-109415779D01*
X104183995Y-109421590D01*
X104154785Y-109427400D01*
X104095215Y-109427400D01*
X104066005Y-109421590D01*
X104036793Y-109415779D01*
X103981760Y-109392983D01*
X103932231Y-109359889D01*
X103890111Y-109317769D01*
X103857017Y-109268240D01*
X103834221Y-109213207D01*
X103822600Y-109154784D01*
X103822600Y-109095216D01*
X103834221Y-109036793D01*
X103857017Y-108981760D01*
X103890111Y-108932231D01*
X103932231Y-108890111D01*
X103981760Y-108857017D01*
X104036793Y-108834221D01*
X104066004Y-108828411D01*
X104095215Y-108822600D01*
X104154785Y-108822600D01*
X104183996Y-108828411D01*
G37*
G36*
X106933996Y-108828411D02*
G01*
X106963207Y-108834221D01*
X107018240Y-108857017D01*
X107067769Y-108890111D01*
X107109889Y-108932231D01*
X107142983Y-108981760D01*
X107165779Y-109036793D01*
X107177400Y-109095216D01*
X107177400Y-109154784D01*
X107165779Y-109213207D01*
X107142983Y-109268240D01*
X107109889Y-109317769D01*
X107067769Y-109359889D01*
X107018240Y-109392983D01*
X106963207Y-109415779D01*
X106933995Y-109421590D01*
X106904785Y-109427400D01*
X106845215Y-109427400D01*
X106816005Y-109421590D01*
X106786793Y-109415779D01*
X106731760Y-109392983D01*
X106682231Y-109359889D01*
X106640111Y-109317769D01*
X106607017Y-109268240D01*
X106584221Y-109213207D01*
X106572600Y-109154784D01*
X106572600Y-109095216D01*
X106584221Y-109036793D01*
X106607017Y-108981760D01*
X106640111Y-108932231D01*
X106682231Y-108890111D01*
X106731760Y-108857017D01*
X106786793Y-108834221D01*
X106816004Y-108828411D01*
X106845215Y-108822600D01*
X106904785Y-108822600D01*
X106933996Y-108828411D01*
G37*
G36*
X109683996Y-108828411D02*
G01*
X109713207Y-108834221D01*
X109768240Y-108857017D01*
X109817769Y-108890111D01*
X109859889Y-108932231D01*
X109892983Y-108981760D01*
X109915779Y-109036793D01*
X109927400Y-109095216D01*
X109927400Y-109154784D01*
X109915779Y-109213207D01*
X109892983Y-109268240D01*
X109859889Y-109317769D01*
X109817769Y-109359889D01*
X109768240Y-109392983D01*
X109713207Y-109415779D01*
X109683995Y-109421590D01*
X109654785Y-109427400D01*
X109595215Y-109427400D01*
X109566005Y-109421590D01*
X109536793Y-109415779D01*
X109481760Y-109392983D01*
X109432231Y-109359889D01*
X109390111Y-109317769D01*
X109357017Y-109268240D01*
X109334221Y-109213207D01*
X109322600Y-109154784D01*
X109322600Y-109095216D01*
X109334221Y-109036793D01*
X109357017Y-108981760D01*
X109390111Y-108932231D01*
X109432231Y-108890111D01*
X109481760Y-108857017D01*
X109536793Y-108834221D01*
X109566004Y-108828411D01*
X109595215Y-108822600D01*
X109654785Y-108822600D01*
X109683996Y-108828411D01*
G37*
G36*
X115183996Y-108828411D02*
G01*
X115213207Y-108834221D01*
X115268240Y-108857017D01*
X115317769Y-108890111D01*
X115359889Y-108932231D01*
X115392983Y-108981760D01*
X115415779Y-109036793D01*
X115427400Y-109095216D01*
X115427400Y-109154784D01*
X115415779Y-109213207D01*
X115392983Y-109268240D01*
X115359889Y-109317769D01*
X115317769Y-109359889D01*
X115268240Y-109392983D01*
X115213207Y-109415779D01*
X115183995Y-109421590D01*
X115154785Y-109427400D01*
X115095215Y-109427400D01*
X115066005Y-109421590D01*
X115036793Y-109415779D01*
X114981760Y-109392983D01*
X114932231Y-109359889D01*
X114890111Y-109317769D01*
X114857017Y-109268240D01*
X114834221Y-109213207D01*
X114822600Y-109154784D01*
X114822600Y-109095216D01*
X114834221Y-109036793D01*
X114857017Y-108981760D01*
X114890111Y-108932231D01*
X114932231Y-108890111D01*
X114981760Y-108857017D01*
X115036793Y-108834221D01*
X115066004Y-108828411D01*
X115095215Y-108822600D01*
X115154785Y-108822600D01*
X115183996Y-108828411D01*
G37*
G36*
X117933996Y-108828411D02*
G01*
X117963207Y-108834221D01*
X118018240Y-108857017D01*
X118067769Y-108890111D01*
X118109889Y-108932231D01*
X118142983Y-108981760D01*
X118165779Y-109036793D01*
X118177400Y-109095216D01*
X118177400Y-109154784D01*
X118165779Y-109213207D01*
X118142983Y-109268240D01*
X118109889Y-109317769D01*
X118067769Y-109359889D01*
X118018240Y-109392983D01*
X117963207Y-109415779D01*
X117933995Y-109421590D01*
X117904785Y-109427400D01*
X117845215Y-109427400D01*
X117816005Y-109421590D01*
X117786793Y-109415779D01*
X117731760Y-109392983D01*
X117682231Y-109359889D01*
X117640111Y-109317769D01*
X117607017Y-109268240D01*
X117584221Y-109213207D01*
X117572600Y-109154784D01*
X117572600Y-109095216D01*
X117584221Y-109036793D01*
X117607017Y-108981760D01*
X117640111Y-108932231D01*
X117682231Y-108890111D01*
X117731760Y-108857017D01*
X117786793Y-108834221D01*
X117816004Y-108828411D01*
X117845215Y-108822600D01*
X117904785Y-108822600D01*
X117933996Y-108828411D01*
G37*
G36*
X122058996Y-108828411D02*
G01*
X122088207Y-108834221D01*
X122143240Y-108857017D01*
X122192769Y-108890111D01*
X122234889Y-108932231D01*
X122267983Y-108981760D01*
X122290779Y-109036793D01*
X122302400Y-109095216D01*
X122302400Y-109154784D01*
X122290779Y-109213207D01*
X122267983Y-109268240D01*
X122234889Y-109317769D01*
X122192769Y-109359889D01*
X122143240Y-109392983D01*
X122088207Y-109415779D01*
X122058995Y-109421590D01*
X122029785Y-109427400D01*
X121970215Y-109427400D01*
X121941005Y-109421590D01*
X121911793Y-109415779D01*
X121856760Y-109392983D01*
X121807231Y-109359889D01*
X121765111Y-109317769D01*
X121732017Y-109268240D01*
X121709221Y-109213207D01*
X121697600Y-109154784D01*
X121697600Y-109095216D01*
X121709221Y-109036793D01*
X121732017Y-108981760D01*
X121765111Y-108932231D01*
X121807231Y-108890111D01*
X121856760Y-108857017D01*
X121911793Y-108834221D01*
X121941004Y-108828411D01*
X121970215Y-108822600D01*
X122029785Y-108822600D01*
X122058996Y-108828411D01*
G37*
G36*
X82183996Y-108828411D02*
G01*
X82213207Y-108834221D01*
X82268240Y-108857017D01*
X82317769Y-108890111D01*
X82359889Y-108932231D01*
X82392983Y-108981760D01*
X82415779Y-109036793D01*
X82427400Y-109095216D01*
X82427400Y-109154784D01*
X82415779Y-109213207D01*
X82392983Y-109268240D01*
X82359889Y-109317769D01*
X82317769Y-109359889D01*
X82268240Y-109392983D01*
X82213207Y-109415779D01*
X82183995Y-109421590D01*
X82154785Y-109427400D01*
X82095215Y-109427400D01*
X82066005Y-109421590D01*
X82036793Y-109415779D01*
X81981760Y-109392983D01*
X81932231Y-109359889D01*
X81890111Y-109317769D01*
X81857017Y-109268240D01*
X81834221Y-109213207D01*
X81822600Y-109154784D01*
X81822600Y-109095216D01*
X81834221Y-109036793D01*
X81857017Y-108981760D01*
X81890111Y-108932231D01*
X81932231Y-108890111D01*
X81981760Y-108857017D01*
X82036793Y-108834221D01*
X82066004Y-108828411D01*
X82095215Y-108822600D01*
X82154785Y-108822600D01*
X82183996Y-108828411D01*
G37*
G36*
X78058996Y-108828411D02*
G01*
X78088207Y-108834221D01*
X78143240Y-108857017D01*
X78192769Y-108890111D01*
X78234889Y-108932231D01*
X78267983Y-108981760D01*
X78290779Y-109036793D01*
X78302400Y-109095216D01*
X78302400Y-109154784D01*
X78290779Y-109213207D01*
X78267983Y-109268240D01*
X78234889Y-109317769D01*
X78192769Y-109359889D01*
X78143240Y-109392983D01*
X78088207Y-109415779D01*
X78058995Y-109421590D01*
X78029785Y-109427400D01*
X77970215Y-109427400D01*
X77941005Y-109421590D01*
X77911793Y-109415779D01*
X77856760Y-109392983D01*
X77807231Y-109359889D01*
X77765111Y-109317769D01*
X77732017Y-109268240D01*
X77709221Y-109213207D01*
X77697600Y-109154784D01*
X77697600Y-109095216D01*
X77709221Y-109036793D01*
X77732017Y-108981760D01*
X77765111Y-108932231D01*
X77807231Y-108890111D01*
X77856760Y-108857017D01*
X77911793Y-108834221D01*
X77941004Y-108828411D01*
X77970215Y-108822600D01*
X78029785Y-108822600D01*
X78058996Y-108828411D01*
G37*
G36*
X95933996Y-108828411D02*
G01*
X95963207Y-108834221D01*
X96018240Y-108857017D01*
X96067769Y-108890111D01*
X96109889Y-108932231D01*
X96142983Y-108981760D01*
X96165779Y-109036793D01*
X96177400Y-109095216D01*
X96177400Y-109154784D01*
X96165779Y-109213207D01*
X96142983Y-109268240D01*
X96109889Y-109317769D01*
X96067769Y-109359889D01*
X96018240Y-109392983D01*
X95963207Y-109415779D01*
X95933995Y-109421590D01*
X95904785Y-109427400D01*
X95845215Y-109427400D01*
X95816005Y-109421590D01*
X95786793Y-109415779D01*
X95731760Y-109392983D01*
X95682231Y-109359889D01*
X95640111Y-109317769D01*
X95607017Y-109268240D01*
X95584221Y-109213207D01*
X95572600Y-109154784D01*
X95572600Y-109095216D01*
X95584221Y-109036793D01*
X95607017Y-108981760D01*
X95640111Y-108932231D01*
X95682231Y-108890111D01*
X95731760Y-108857017D01*
X95786793Y-108834221D01*
X95816004Y-108828411D01*
X95845215Y-108822600D01*
X95904785Y-108822600D01*
X95933996Y-108828411D01*
G37*
G36*
X84933996Y-108828411D02*
G01*
X84963207Y-108834221D01*
X85018240Y-108857017D01*
X85067769Y-108890111D01*
X85109889Y-108932231D01*
X85142983Y-108981760D01*
X85165779Y-109036793D01*
X85177400Y-109095216D01*
X85177400Y-109154784D01*
X85165779Y-109213207D01*
X85142983Y-109268240D01*
X85109889Y-109317769D01*
X85067769Y-109359889D01*
X85018240Y-109392983D01*
X84963207Y-109415779D01*
X84933995Y-109421590D01*
X84904785Y-109427400D01*
X84845215Y-109427400D01*
X84816005Y-109421590D01*
X84786793Y-109415779D01*
X84731760Y-109392983D01*
X84682231Y-109359889D01*
X84640111Y-109317769D01*
X84607017Y-109268240D01*
X84584221Y-109213207D01*
X84572600Y-109154784D01*
X84572600Y-109095216D01*
X84584221Y-109036793D01*
X84607017Y-108981760D01*
X84640111Y-108932231D01*
X84682231Y-108890111D01*
X84731760Y-108857017D01*
X84786793Y-108834221D01*
X84816004Y-108828411D01*
X84845215Y-108822600D01*
X84904785Y-108822600D01*
X84933996Y-108828411D01*
G37*
G36*
X87683996Y-108828411D02*
G01*
X87713207Y-108834221D01*
X87768240Y-108857017D01*
X87817769Y-108890111D01*
X87859889Y-108932231D01*
X87892983Y-108981760D01*
X87915779Y-109036793D01*
X87927400Y-109095216D01*
X87927400Y-109154784D01*
X87915779Y-109213207D01*
X87892983Y-109268240D01*
X87859889Y-109317769D01*
X87817769Y-109359889D01*
X87768240Y-109392983D01*
X87713207Y-109415779D01*
X87683995Y-109421590D01*
X87654785Y-109427400D01*
X87595215Y-109427400D01*
X87566005Y-109421590D01*
X87536793Y-109415779D01*
X87481760Y-109392983D01*
X87432231Y-109359889D01*
X87390111Y-109317769D01*
X87357017Y-109268240D01*
X87334221Y-109213207D01*
X87322600Y-109154784D01*
X87322600Y-109095216D01*
X87334221Y-109036793D01*
X87357017Y-108981760D01*
X87390111Y-108932231D01*
X87432231Y-108890111D01*
X87481760Y-108857017D01*
X87536793Y-108834221D01*
X87566004Y-108828411D01*
X87595215Y-108822600D01*
X87654785Y-108822600D01*
X87683996Y-108828411D01*
G37*
G36*
X90433996Y-108828411D02*
G01*
X90463207Y-108834221D01*
X90518240Y-108857017D01*
X90567769Y-108890111D01*
X90609889Y-108932231D01*
X90642983Y-108981760D01*
X90665779Y-109036793D01*
X90677400Y-109095216D01*
X90677400Y-109154784D01*
X90665779Y-109213207D01*
X90642983Y-109268240D01*
X90609889Y-109317769D01*
X90567769Y-109359889D01*
X90518240Y-109392983D01*
X90463207Y-109415779D01*
X90433995Y-109421590D01*
X90404785Y-109427400D01*
X90345215Y-109427400D01*
X90316005Y-109421590D01*
X90286793Y-109415779D01*
X90231760Y-109392983D01*
X90182231Y-109359889D01*
X90140111Y-109317769D01*
X90107017Y-109268240D01*
X90084221Y-109213207D01*
X90072600Y-109154784D01*
X90072600Y-109095216D01*
X90084221Y-109036793D01*
X90107017Y-108981760D01*
X90140111Y-108932231D01*
X90182231Y-108890111D01*
X90231760Y-108857017D01*
X90286793Y-108834221D01*
X90316004Y-108828411D01*
X90345215Y-108822600D01*
X90404785Y-108822600D01*
X90433996Y-108828411D01*
G37*
G36*
X98683996Y-108828411D02*
G01*
X98713207Y-108834221D01*
X98768240Y-108857017D01*
X98817769Y-108890111D01*
X98859889Y-108932231D01*
X98892983Y-108981760D01*
X98915779Y-109036793D01*
X98927400Y-109095216D01*
X98927400Y-109154784D01*
X98915779Y-109213207D01*
X98892983Y-109268240D01*
X98859889Y-109317769D01*
X98817769Y-109359889D01*
X98768240Y-109392983D01*
X98713207Y-109415779D01*
X98683995Y-109421590D01*
X98654785Y-109427400D01*
X98595215Y-109427400D01*
X98566005Y-109421590D01*
X98536793Y-109415779D01*
X98481760Y-109392983D01*
X98432231Y-109359889D01*
X98390111Y-109317769D01*
X98357017Y-109268240D01*
X98334221Y-109213207D01*
X98322600Y-109154784D01*
X98322600Y-109095216D01*
X98334221Y-109036793D01*
X98357017Y-108981760D01*
X98390111Y-108932231D01*
X98432231Y-108890111D01*
X98481760Y-108857017D01*
X98536793Y-108834221D01*
X98566004Y-108828411D01*
X98595215Y-108822600D01*
X98654785Y-108822600D01*
X98683996Y-108828411D01*
G37*
G36*
X93183996Y-108828411D02*
G01*
X93213207Y-108834221D01*
X93268240Y-108857017D01*
X93317769Y-108890111D01*
X93359889Y-108932231D01*
X93392983Y-108981760D01*
X93415779Y-109036793D01*
X93427400Y-109095216D01*
X93427400Y-109154784D01*
X93415779Y-109213207D01*
X93392983Y-109268240D01*
X93359889Y-109317769D01*
X93317769Y-109359889D01*
X93268240Y-109392983D01*
X93213207Y-109415779D01*
X93183995Y-109421590D01*
X93154785Y-109427400D01*
X93095215Y-109427400D01*
X93066005Y-109421590D01*
X93036793Y-109415779D01*
X92981760Y-109392983D01*
X92932231Y-109359889D01*
X92890111Y-109317769D01*
X92857017Y-109268240D01*
X92834221Y-109213207D01*
X92822600Y-109154784D01*
X92822600Y-109095216D01*
X92834221Y-109036793D01*
X92857017Y-108981760D01*
X92890111Y-108932231D01*
X92932231Y-108890111D01*
X92981760Y-108857017D01*
X93036793Y-108834221D01*
X93066004Y-108828411D01*
X93095215Y-108822600D01*
X93154785Y-108822600D01*
X93183996Y-108828411D01*
G37*
G36*
X101433996Y-106078411D02*
G01*
X101463207Y-106084221D01*
X101518240Y-106107017D01*
X101567769Y-106140111D01*
X101609889Y-106182231D01*
X101642983Y-106231760D01*
X101665779Y-106286793D01*
X101677400Y-106345216D01*
X101677400Y-106404784D01*
X101665779Y-106463207D01*
X101642983Y-106518240D01*
X101609889Y-106567769D01*
X101567769Y-106609889D01*
X101518240Y-106642983D01*
X101463207Y-106665779D01*
X101433995Y-106671590D01*
X101404785Y-106677400D01*
X101345215Y-106677400D01*
X101316004Y-106671589D01*
X101286793Y-106665779D01*
X101231760Y-106642983D01*
X101182231Y-106609889D01*
X101140111Y-106567769D01*
X101107017Y-106518240D01*
X101084221Y-106463207D01*
X101072600Y-106404784D01*
X101072600Y-106345216D01*
X101084221Y-106286793D01*
X101107017Y-106231760D01*
X101140111Y-106182231D01*
X101182231Y-106140111D01*
X101231760Y-106107017D01*
X101286793Y-106084221D01*
X101316004Y-106078411D01*
X101345215Y-106072600D01*
X101404785Y-106072600D01*
X101433996Y-106078411D01*
G37*
G36*
X106933996Y-106078411D02*
G01*
X106963207Y-106084221D01*
X107018240Y-106107017D01*
X107067769Y-106140111D01*
X107109889Y-106182231D01*
X107142983Y-106231760D01*
X107165779Y-106286793D01*
X107177400Y-106345216D01*
X107177400Y-106404784D01*
X107165779Y-106463207D01*
X107142983Y-106518240D01*
X107109889Y-106567769D01*
X107067769Y-106609889D01*
X107018240Y-106642983D01*
X106963207Y-106665779D01*
X106933995Y-106671590D01*
X106904785Y-106677400D01*
X106845215Y-106677400D01*
X106816004Y-106671589D01*
X106786793Y-106665779D01*
X106731760Y-106642983D01*
X106682231Y-106609889D01*
X106640111Y-106567769D01*
X106607017Y-106518240D01*
X106584221Y-106463207D01*
X106572600Y-106404784D01*
X106572600Y-106345216D01*
X106584221Y-106286793D01*
X106607017Y-106231760D01*
X106640111Y-106182231D01*
X106682231Y-106140111D01*
X106731760Y-106107017D01*
X106786793Y-106084221D01*
X106816004Y-106078411D01*
X106845215Y-106072600D01*
X106904785Y-106072600D01*
X106933996Y-106078411D01*
G37*
G36*
X109683996Y-106078411D02*
G01*
X109713207Y-106084221D01*
X109768240Y-106107017D01*
X109817769Y-106140111D01*
X109859889Y-106182231D01*
X109892983Y-106231760D01*
X109915779Y-106286793D01*
X109927400Y-106345216D01*
X109927400Y-106404784D01*
X109915779Y-106463207D01*
X109892983Y-106518240D01*
X109859889Y-106567769D01*
X109817769Y-106609889D01*
X109768240Y-106642983D01*
X109713207Y-106665779D01*
X109683995Y-106671590D01*
X109654785Y-106677400D01*
X109595215Y-106677400D01*
X109566004Y-106671589D01*
X109536793Y-106665779D01*
X109481760Y-106642983D01*
X109432231Y-106609889D01*
X109390111Y-106567769D01*
X109357017Y-106518240D01*
X109334221Y-106463207D01*
X109322600Y-106404784D01*
X109322600Y-106345216D01*
X109334221Y-106286793D01*
X109357017Y-106231760D01*
X109390111Y-106182231D01*
X109432231Y-106140111D01*
X109481760Y-106107017D01*
X109536793Y-106084221D01*
X109566004Y-106078411D01*
X109595215Y-106072600D01*
X109654785Y-106072600D01*
X109683996Y-106078411D01*
G37*
G36*
X112433996Y-106078411D02*
G01*
X112463207Y-106084221D01*
X112518240Y-106107017D01*
X112567769Y-106140111D01*
X112609889Y-106182231D01*
X112642983Y-106231760D01*
X112665779Y-106286793D01*
X112677400Y-106345216D01*
X112677400Y-106404784D01*
X112665779Y-106463207D01*
X112642983Y-106518240D01*
X112609889Y-106567769D01*
X112567769Y-106609889D01*
X112518240Y-106642983D01*
X112463207Y-106665779D01*
X112433995Y-106671590D01*
X112404785Y-106677400D01*
X112345215Y-106677400D01*
X112316004Y-106671589D01*
X112286793Y-106665779D01*
X112231760Y-106642983D01*
X112182231Y-106609889D01*
X112140111Y-106567769D01*
X112107017Y-106518240D01*
X112084221Y-106463207D01*
X112072600Y-106404784D01*
X112072600Y-106345216D01*
X112084221Y-106286793D01*
X112107017Y-106231760D01*
X112140111Y-106182231D01*
X112182231Y-106140111D01*
X112231760Y-106107017D01*
X112286793Y-106084221D01*
X112316004Y-106078411D01*
X112345215Y-106072600D01*
X112404785Y-106072600D01*
X112433996Y-106078411D01*
G37*
G36*
X115183996Y-106078411D02*
G01*
X115213207Y-106084221D01*
X115268240Y-106107017D01*
X115317769Y-106140111D01*
X115359889Y-106182231D01*
X115392983Y-106231760D01*
X115415779Y-106286793D01*
X115427400Y-106345216D01*
X115427400Y-106404784D01*
X115415779Y-106463207D01*
X115392983Y-106518240D01*
X115359889Y-106567769D01*
X115317769Y-106609889D01*
X115268240Y-106642983D01*
X115213207Y-106665779D01*
X115183995Y-106671590D01*
X115154785Y-106677400D01*
X115095215Y-106677400D01*
X115066004Y-106671589D01*
X115036793Y-106665779D01*
X114981760Y-106642983D01*
X114932231Y-106609889D01*
X114890111Y-106567769D01*
X114857017Y-106518240D01*
X114834221Y-106463207D01*
X114822600Y-106404784D01*
X114822600Y-106345216D01*
X114834221Y-106286793D01*
X114857017Y-106231760D01*
X114890111Y-106182231D01*
X114932231Y-106140111D01*
X114981760Y-106107017D01*
X115036793Y-106084221D01*
X115066004Y-106078411D01*
X115095215Y-106072600D01*
X115154785Y-106072600D01*
X115183996Y-106078411D01*
G37*
G36*
X117933996Y-106078411D02*
G01*
X117963207Y-106084221D01*
X118018240Y-106107017D01*
X118067769Y-106140111D01*
X118109889Y-106182231D01*
X118142983Y-106231760D01*
X118165779Y-106286793D01*
X118177400Y-106345216D01*
X118177400Y-106404784D01*
X118165779Y-106463207D01*
X118142983Y-106518240D01*
X118109889Y-106567769D01*
X118067769Y-106609889D01*
X118018240Y-106642983D01*
X117963207Y-106665779D01*
X117933995Y-106671590D01*
X117904785Y-106677400D01*
X117845215Y-106677400D01*
X117816004Y-106671589D01*
X117786793Y-106665779D01*
X117731760Y-106642983D01*
X117682231Y-106609889D01*
X117640111Y-106567769D01*
X117607017Y-106518240D01*
X117584221Y-106463207D01*
X117572600Y-106404784D01*
X117572600Y-106345216D01*
X117584221Y-106286793D01*
X117607017Y-106231760D01*
X117640111Y-106182231D01*
X117682231Y-106140111D01*
X117731760Y-106107017D01*
X117786793Y-106084221D01*
X117816004Y-106078411D01*
X117845215Y-106072600D01*
X117904785Y-106072600D01*
X117933996Y-106078411D01*
G37*
G36*
X127558996Y-106078411D02*
G01*
X127588207Y-106084221D01*
X127643240Y-106107017D01*
X127692769Y-106140111D01*
X127734889Y-106182231D01*
X127767983Y-106231760D01*
X127790779Y-106286793D01*
X127802400Y-106345216D01*
X127802400Y-106404784D01*
X127790779Y-106463207D01*
X127767983Y-106518240D01*
X127734889Y-106567769D01*
X127692769Y-106609889D01*
X127643240Y-106642983D01*
X127588207Y-106665779D01*
X127558995Y-106671590D01*
X127529785Y-106677400D01*
X127470215Y-106677400D01*
X127441004Y-106671589D01*
X127411793Y-106665779D01*
X127356760Y-106642983D01*
X127307231Y-106609889D01*
X127265111Y-106567769D01*
X127232017Y-106518240D01*
X127209221Y-106463207D01*
X127197600Y-106404784D01*
X127197600Y-106345216D01*
X127209221Y-106286793D01*
X127232017Y-106231760D01*
X127265111Y-106182231D01*
X127307231Y-106140111D01*
X127356760Y-106107017D01*
X127411793Y-106084221D01*
X127441004Y-106078411D01*
X127470215Y-106072600D01*
X127529785Y-106072600D01*
X127558996Y-106078411D01*
G37*
G36*
X123433996Y-106078411D02*
G01*
X123463207Y-106084221D01*
X123518240Y-106107017D01*
X123567769Y-106140111D01*
X123609889Y-106182231D01*
X123642983Y-106231760D01*
X123665779Y-106286793D01*
X123677400Y-106345216D01*
X123677400Y-106404784D01*
X123665779Y-106463207D01*
X123642983Y-106518240D01*
X123609889Y-106567769D01*
X123567769Y-106609889D01*
X123518240Y-106642983D01*
X123463207Y-106665779D01*
X123433995Y-106671590D01*
X123404785Y-106677400D01*
X123345215Y-106677400D01*
X123316004Y-106671589D01*
X123286793Y-106665779D01*
X123231760Y-106642983D01*
X123182231Y-106609889D01*
X123140111Y-106567769D01*
X123107017Y-106518240D01*
X123084221Y-106463207D01*
X123072600Y-106404784D01*
X123072600Y-106345216D01*
X123084221Y-106286793D01*
X123107017Y-106231760D01*
X123140111Y-106182231D01*
X123182231Y-106140111D01*
X123231760Y-106107017D01*
X123286793Y-106084221D01*
X123316004Y-106078411D01*
X123345215Y-106072600D01*
X123404785Y-106072600D01*
X123433996Y-106078411D01*
G37*
G36*
X120683996Y-106078411D02*
G01*
X120713207Y-106084221D01*
X120768240Y-106107017D01*
X120817769Y-106140111D01*
X120859889Y-106182231D01*
X120892983Y-106231760D01*
X120915779Y-106286793D01*
X120927400Y-106345216D01*
X120927400Y-106404784D01*
X120915779Y-106463207D01*
X120892983Y-106518240D01*
X120859889Y-106567769D01*
X120817769Y-106609889D01*
X120768240Y-106642983D01*
X120713207Y-106665779D01*
X120683995Y-106671590D01*
X120654785Y-106677400D01*
X120595215Y-106677400D01*
X120566004Y-106671589D01*
X120536793Y-106665779D01*
X120481760Y-106642983D01*
X120432231Y-106609889D01*
X120390111Y-106567769D01*
X120357017Y-106518240D01*
X120334221Y-106463207D01*
X120322600Y-106404784D01*
X120322600Y-106345216D01*
X120334221Y-106286793D01*
X120357017Y-106231760D01*
X120390111Y-106182231D01*
X120432231Y-106140111D01*
X120481760Y-106107017D01*
X120536793Y-106084221D01*
X120566004Y-106078411D01*
X120595215Y-106072600D01*
X120654785Y-106072600D01*
X120683996Y-106078411D01*
G37*
G36*
X104183996Y-106078411D02*
G01*
X104213207Y-106084221D01*
X104268240Y-106107017D01*
X104317769Y-106140111D01*
X104359889Y-106182231D01*
X104392983Y-106231760D01*
X104415779Y-106286793D01*
X104427400Y-106345216D01*
X104427400Y-106404784D01*
X104415779Y-106463207D01*
X104392983Y-106518240D01*
X104359889Y-106567769D01*
X104317769Y-106609889D01*
X104268240Y-106642983D01*
X104213207Y-106665779D01*
X104183995Y-106671590D01*
X104154785Y-106677400D01*
X104095215Y-106677400D01*
X104066004Y-106671589D01*
X104036793Y-106665779D01*
X103981760Y-106642983D01*
X103932231Y-106609889D01*
X103890111Y-106567769D01*
X103857017Y-106518240D01*
X103834221Y-106463207D01*
X103822600Y-106404784D01*
X103822600Y-106345216D01*
X103834221Y-106286793D01*
X103857017Y-106231760D01*
X103890111Y-106182231D01*
X103932231Y-106140111D01*
X103981760Y-106107017D01*
X104036793Y-106084221D01*
X104066004Y-106078411D01*
X104095215Y-106072600D01*
X104154785Y-106072600D01*
X104183996Y-106078411D01*
G37*
G36*
X98683996Y-106078411D02*
G01*
X98713207Y-106084221D01*
X98768240Y-106107017D01*
X98817769Y-106140111D01*
X98859889Y-106182231D01*
X98892983Y-106231760D01*
X98915779Y-106286793D01*
X98927400Y-106345216D01*
X98927400Y-106404784D01*
X98915779Y-106463207D01*
X98892983Y-106518240D01*
X98859889Y-106567769D01*
X98817769Y-106609889D01*
X98768240Y-106642983D01*
X98713207Y-106665779D01*
X98683995Y-106671590D01*
X98654785Y-106677400D01*
X98595215Y-106677400D01*
X98566004Y-106671589D01*
X98536793Y-106665779D01*
X98481760Y-106642983D01*
X98432231Y-106609889D01*
X98390111Y-106567769D01*
X98357017Y-106518240D01*
X98334221Y-106463207D01*
X98322600Y-106404784D01*
X98322600Y-106345216D01*
X98334221Y-106286793D01*
X98357017Y-106231760D01*
X98390111Y-106182231D01*
X98432231Y-106140111D01*
X98481760Y-106107017D01*
X98536793Y-106084221D01*
X98566004Y-106078411D01*
X98595215Y-106072600D01*
X98654785Y-106072600D01*
X98683996Y-106078411D01*
G37*
G36*
X76683996Y-106078411D02*
G01*
X76713207Y-106084221D01*
X76768240Y-106107017D01*
X76817769Y-106140111D01*
X76859889Y-106182231D01*
X76892983Y-106231760D01*
X76915779Y-106286793D01*
X76927400Y-106345216D01*
X76927400Y-106404784D01*
X76915779Y-106463207D01*
X76892983Y-106518240D01*
X76859889Y-106567769D01*
X76817769Y-106609889D01*
X76768240Y-106642983D01*
X76713207Y-106665779D01*
X76683995Y-106671590D01*
X76654785Y-106677400D01*
X76595215Y-106677400D01*
X76566004Y-106671589D01*
X76536793Y-106665779D01*
X76481760Y-106642983D01*
X76432231Y-106609889D01*
X76390111Y-106567769D01*
X76357017Y-106518240D01*
X76334221Y-106463207D01*
X76322600Y-106404784D01*
X76322600Y-106345216D01*
X76334221Y-106286793D01*
X76357017Y-106231760D01*
X76390111Y-106182231D01*
X76432231Y-106140111D01*
X76481760Y-106107017D01*
X76536793Y-106084221D01*
X76566004Y-106078411D01*
X76595215Y-106072600D01*
X76654785Y-106072600D01*
X76683996Y-106078411D01*
G37*
G36*
X79433996Y-106078411D02*
G01*
X79463207Y-106084221D01*
X79518240Y-106107017D01*
X79567769Y-106140111D01*
X79609889Y-106182231D01*
X79642983Y-106231760D01*
X79665779Y-106286793D01*
X79677400Y-106345216D01*
X79677400Y-106404784D01*
X79665779Y-106463207D01*
X79642983Y-106518240D01*
X79609889Y-106567769D01*
X79567769Y-106609889D01*
X79518240Y-106642983D01*
X79463207Y-106665779D01*
X79433995Y-106671590D01*
X79404785Y-106677400D01*
X79345215Y-106677400D01*
X79316004Y-106671589D01*
X79286793Y-106665779D01*
X79231760Y-106642983D01*
X79182231Y-106609889D01*
X79140111Y-106567769D01*
X79107017Y-106518240D01*
X79084221Y-106463207D01*
X79072600Y-106404784D01*
X79072600Y-106345216D01*
X79084221Y-106286793D01*
X79107017Y-106231760D01*
X79140111Y-106182231D01*
X79182231Y-106140111D01*
X79231760Y-106107017D01*
X79286793Y-106084221D01*
X79316004Y-106078411D01*
X79345215Y-106072600D01*
X79404785Y-106072600D01*
X79433996Y-106078411D01*
G37*
G36*
X82183996Y-106078411D02*
G01*
X82213207Y-106084221D01*
X82268240Y-106107017D01*
X82317769Y-106140111D01*
X82359889Y-106182231D01*
X82392983Y-106231760D01*
X82415779Y-106286793D01*
X82427400Y-106345216D01*
X82427400Y-106404784D01*
X82415779Y-106463207D01*
X82392983Y-106518240D01*
X82359889Y-106567769D01*
X82317769Y-106609889D01*
X82268240Y-106642983D01*
X82213207Y-106665779D01*
X82183995Y-106671590D01*
X82154785Y-106677400D01*
X82095215Y-106677400D01*
X82066004Y-106671589D01*
X82036793Y-106665779D01*
X81981760Y-106642983D01*
X81932231Y-106609889D01*
X81890111Y-106567769D01*
X81857017Y-106518240D01*
X81834221Y-106463207D01*
X81822600Y-106404784D01*
X81822600Y-106345216D01*
X81834221Y-106286793D01*
X81857017Y-106231760D01*
X81890111Y-106182231D01*
X81932231Y-106140111D01*
X81981760Y-106107017D01*
X82036793Y-106084221D01*
X82066004Y-106078411D01*
X82095215Y-106072600D01*
X82154785Y-106072600D01*
X82183996Y-106078411D01*
G37*
G36*
X84933996Y-106078411D02*
G01*
X84963207Y-106084221D01*
X85018240Y-106107017D01*
X85067769Y-106140111D01*
X85109889Y-106182231D01*
X85142983Y-106231760D01*
X85165779Y-106286793D01*
X85177400Y-106345216D01*
X85177400Y-106404784D01*
X85165779Y-106463207D01*
X85142983Y-106518240D01*
X85109889Y-106567769D01*
X85067769Y-106609889D01*
X85018240Y-106642983D01*
X84963207Y-106665779D01*
X84933995Y-106671590D01*
X84904785Y-106677400D01*
X84845215Y-106677400D01*
X84816004Y-106671589D01*
X84786793Y-106665779D01*
X84731760Y-106642983D01*
X84682231Y-106609889D01*
X84640111Y-106567769D01*
X84607017Y-106518240D01*
X84584221Y-106463207D01*
X84572600Y-106404784D01*
X84572600Y-106345216D01*
X84584221Y-106286793D01*
X84607017Y-106231760D01*
X84640111Y-106182231D01*
X84682231Y-106140111D01*
X84731760Y-106107017D01*
X84786793Y-106084221D01*
X84816004Y-106078411D01*
X84845215Y-106072600D01*
X84904785Y-106072600D01*
X84933996Y-106078411D01*
G37*
G36*
X87683996Y-106078411D02*
G01*
X87713207Y-106084221D01*
X87768240Y-106107017D01*
X87817769Y-106140111D01*
X87859889Y-106182231D01*
X87892983Y-106231760D01*
X87915779Y-106286793D01*
X87927400Y-106345216D01*
X87927400Y-106404784D01*
X87915779Y-106463207D01*
X87892983Y-106518240D01*
X87859889Y-106567769D01*
X87817769Y-106609889D01*
X87768240Y-106642983D01*
X87713207Y-106665779D01*
X87683995Y-106671590D01*
X87654785Y-106677400D01*
X87595215Y-106677400D01*
X87566004Y-106671589D01*
X87536793Y-106665779D01*
X87481760Y-106642983D01*
X87432231Y-106609889D01*
X87390111Y-106567769D01*
X87357017Y-106518240D01*
X87334221Y-106463207D01*
X87322600Y-106404784D01*
X87322600Y-106345216D01*
X87334221Y-106286793D01*
X87357017Y-106231760D01*
X87390111Y-106182231D01*
X87432231Y-106140111D01*
X87481760Y-106107017D01*
X87536793Y-106084221D01*
X87566004Y-106078411D01*
X87595215Y-106072600D01*
X87654785Y-106072600D01*
X87683996Y-106078411D01*
G37*
G36*
X90433996Y-106078411D02*
G01*
X90463207Y-106084221D01*
X90518240Y-106107017D01*
X90567769Y-106140111D01*
X90609889Y-106182231D01*
X90642983Y-106231760D01*
X90665779Y-106286793D01*
X90677400Y-106345216D01*
X90677400Y-106404784D01*
X90665779Y-106463207D01*
X90642983Y-106518240D01*
X90609889Y-106567769D01*
X90567769Y-106609889D01*
X90518240Y-106642983D01*
X90463207Y-106665779D01*
X90433995Y-106671590D01*
X90404785Y-106677400D01*
X90345215Y-106677400D01*
X90316004Y-106671589D01*
X90286793Y-106665779D01*
X90231760Y-106642983D01*
X90182231Y-106609889D01*
X90140111Y-106567769D01*
X90107017Y-106518240D01*
X90084221Y-106463207D01*
X90072600Y-106404784D01*
X90072600Y-106345216D01*
X90084221Y-106286793D01*
X90107017Y-106231760D01*
X90140111Y-106182231D01*
X90182231Y-106140111D01*
X90231760Y-106107017D01*
X90286793Y-106084221D01*
X90316004Y-106078411D01*
X90345215Y-106072600D01*
X90404785Y-106072600D01*
X90433996Y-106078411D01*
G37*
G36*
X93183996Y-106078411D02*
G01*
X93213207Y-106084221D01*
X93268240Y-106107017D01*
X93317769Y-106140111D01*
X93359889Y-106182231D01*
X93392983Y-106231760D01*
X93415779Y-106286793D01*
X93427400Y-106345216D01*
X93427400Y-106404784D01*
X93415779Y-106463207D01*
X93392983Y-106518240D01*
X93359889Y-106567769D01*
X93317769Y-106609889D01*
X93268240Y-106642983D01*
X93213207Y-106665779D01*
X93183995Y-106671590D01*
X93154785Y-106677400D01*
X93095215Y-106677400D01*
X93066004Y-106671589D01*
X93036793Y-106665779D01*
X92981760Y-106642983D01*
X92932231Y-106609889D01*
X92890111Y-106567769D01*
X92857017Y-106518240D01*
X92834221Y-106463207D01*
X92822600Y-106404784D01*
X92822600Y-106345216D01*
X92834221Y-106286793D01*
X92857017Y-106231760D01*
X92890111Y-106182231D01*
X92932231Y-106140111D01*
X92981760Y-106107017D01*
X93036793Y-106084221D01*
X93066004Y-106078411D01*
X93095215Y-106072600D01*
X93154785Y-106072600D01*
X93183996Y-106078411D01*
G37*
G36*
X95933996Y-106078411D02*
G01*
X95963207Y-106084221D01*
X96018240Y-106107017D01*
X96067769Y-106140111D01*
X96109889Y-106182231D01*
X96142983Y-106231760D01*
X96165779Y-106286793D01*
X96177400Y-106345216D01*
X96177400Y-106404784D01*
X96165779Y-106463207D01*
X96142983Y-106518240D01*
X96109889Y-106567769D01*
X96067769Y-106609889D01*
X96018240Y-106642983D01*
X95963207Y-106665779D01*
X95933995Y-106671590D01*
X95904785Y-106677400D01*
X95845215Y-106677400D01*
X95816004Y-106671589D01*
X95786793Y-106665779D01*
X95731760Y-106642983D01*
X95682231Y-106609889D01*
X95640111Y-106567769D01*
X95607017Y-106518240D01*
X95584221Y-106463207D01*
X95572600Y-106404784D01*
X95572600Y-106345216D01*
X95584221Y-106286793D01*
X95607017Y-106231760D01*
X95640111Y-106182231D01*
X95682231Y-106140111D01*
X95731760Y-106107017D01*
X95786793Y-106084221D01*
X95816004Y-106078411D01*
X95845215Y-106072600D01*
X95904785Y-106072600D01*
X95933996Y-106078411D01*
G37*
G36*
X72558996Y-106078411D02*
G01*
X72588207Y-106084221D01*
X72643240Y-106107017D01*
X72692769Y-106140111D01*
X72734889Y-106182231D01*
X72767983Y-106231760D01*
X72790779Y-106286793D01*
X72802400Y-106345216D01*
X72802400Y-106404784D01*
X72790779Y-106463207D01*
X72767983Y-106518240D01*
X72734889Y-106567769D01*
X72692769Y-106609889D01*
X72643240Y-106642983D01*
X72588207Y-106665779D01*
X72558995Y-106671590D01*
X72529785Y-106677400D01*
X72470215Y-106677400D01*
X72441004Y-106671589D01*
X72411793Y-106665779D01*
X72356760Y-106642983D01*
X72307231Y-106609889D01*
X72265111Y-106567769D01*
X72232017Y-106518240D01*
X72209221Y-106463207D01*
X72197600Y-106404784D01*
X72197600Y-106345216D01*
X72209221Y-106286793D01*
X72232017Y-106231760D01*
X72265111Y-106182231D01*
X72307231Y-106140111D01*
X72356760Y-106107017D01*
X72411793Y-106084221D01*
X72441004Y-106078411D01*
X72470215Y-106072600D01*
X72529785Y-106072600D01*
X72558996Y-106078411D01*
G37*
G36*
X112433995Y-103328410D02*
G01*
X112463207Y-103334221D01*
X112518240Y-103357017D01*
X112567769Y-103390111D01*
X112609889Y-103432231D01*
X112642983Y-103481760D01*
X112665779Y-103536793D01*
X112677400Y-103595216D01*
X112677400Y-103654784D01*
X112665779Y-103713207D01*
X112642983Y-103768240D01*
X112609889Y-103817769D01*
X112567769Y-103859889D01*
X112518240Y-103892983D01*
X112463207Y-103915779D01*
X112433995Y-103921590D01*
X112404785Y-103927400D01*
X112345215Y-103927400D01*
X112316005Y-103921590D01*
X112286793Y-103915779D01*
X112231760Y-103892983D01*
X112182231Y-103859889D01*
X112140111Y-103817769D01*
X112107017Y-103768240D01*
X112084221Y-103713207D01*
X112072600Y-103654784D01*
X112072600Y-103595216D01*
X112084221Y-103536793D01*
X112107017Y-103481760D01*
X112140111Y-103432231D01*
X112182231Y-103390111D01*
X112231760Y-103357017D01*
X112286793Y-103334221D01*
X112316005Y-103328410D01*
X112345215Y-103322600D01*
X112404785Y-103322600D01*
X112433995Y-103328410D01*
G37*
G36*
X78058995Y-103328410D02*
G01*
X78088207Y-103334221D01*
X78143240Y-103357017D01*
X78192769Y-103390111D01*
X78234889Y-103432231D01*
X78267983Y-103481760D01*
X78290779Y-103536793D01*
X78302400Y-103595216D01*
X78302400Y-103654784D01*
X78290779Y-103713207D01*
X78267983Y-103768240D01*
X78234889Y-103817769D01*
X78192769Y-103859889D01*
X78143240Y-103892983D01*
X78088207Y-103915779D01*
X78058995Y-103921590D01*
X78029785Y-103927400D01*
X77970215Y-103927400D01*
X77941005Y-103921590D01*
X77911793Y-103915779D01*
X77856760Y-103892983D01*
X77807231Y-103859889D01*
X77765111Y-103817769D01*
X77732017Y-103768240D01*
X77709221Y-103713207D01*
X77697600Y-103654784D01*
X77697600Y-103595216D01*
X77709221Y-103536793D01*
X77732017Y-103481760D01*
X77765111Y-103432231D01*
X77807231Y-103390111D01*
X77856760Y-103357017D01*
X77911793Y-103334221D01*
X77941005Y-103328410D01*
X77970215Y-103322600D01*
X78029785Y-103322600D01*
X78058995Y-103328410D01*
G37*
G36*
X82183995Y-103328410D02*
G01*
X82213207Y-103334221D01*
X82268240Y-103357017D01*
X82317769Y-103390111D01*
X82359889Y-103432231D01*
X82392983Y-103481760D01*
X82415779Y-103536793D01*
X82427400Y-103595216D01*
X82427400Y-103654784D01*
X82415779Y-103713207D01*
X82392983Y-103768240D01*
X82359889Y-103817769D01*
X82317769Y-103859889D01*
X82268240Y-103892983D01*
X82213207Y-103915779D01*
X82183995Y-103921590D01*
X82154785Y-103927400D01*
X82095215Y-103927400D01*
X82066005Y-103921590D01*
X82036793Y-103915779D01*
X81981760Y-103892983D01*
X81932231Y-103859889D01*
X81890111Y-103817769D01*
X81857017Y-103768240D01*
X81834221Y-103713207D01*
X81822600Y-103654784D01*
X81822600Y-103595216D01*
X81834221Y-103536793D01*
X81857017Y-103481760D01*
X81890111Y-103432231D01*
X81932231Y-103390111D01*
X81981760Y-103357017D01*
X82036793Y-103334221D01*
X82066005Y-103328410D01*
X82095215Y-103322600D01*
X82154785Y-103322600D01*
X82183995Y-103328410D01*
G37*
G36*
X106933995Y-103328410D02*
G01*
X106963207Y-103334221D01*
X107018240Y-103357017D01*
X107067769Y-103390111D01*
X107109889Y-103432231D01*
X107142983Y-103481760D01*
X107165779Y-103536793D01*
X107177400Y-103595216D01*
X107177400Y-103654784D01*
X107165779Y-103713207D01*
X107142983Y-103768240D01*
X107109889Y-103817769D01*
X107067769Y-103859889D01*
X107018240Y-103892983D01*
X106963207Y-103915779D01*
X106933995Y-103921590D01*
X106904785Y-103927400D01*
X106845215Y-103927400D01*
X106816005Y-103921590D01*
X106786793Y-103915779D01*
X106731760Y-103892983D01*
X106682231Y-103859889D01*
X106640111Y-103817769D01*
X106607017Y-103768240D01*
X106584221Y-103713207D01*
X106572600Y-103654784D01*
X106572600Y-103595216D01*
X106584221Y-103536793D01*
X106607017Y-103481760D01*
X106640111Y-103432231D01*
X106682231Y-103390111D01*
X106731760Y-103357017D01*
X106786793Y-103334221D01*
X106816005Y-103328410D01*
X106845215Y-103322600D01*
X106904785Y-103322600D01*
X106933995Y-103328410D01*
G37*
G36*
X84933995Y-103328410D02*
G01*
X84963207Y-103334221D01*
X85018240Y-103357017D01*
X85067769Y-103390111D01*
X85109889Y-103432231D01*
X85142983Y-103481760D01*
X85165779Y-103536793D01*
X85177400Y-103595216D01*
X85177400Y-103654784D01*
X85165779Y-103713207D01*
X85142983Y-103768240D01*
X85109889Y-103817769D01*
X85067769Y-103859889D01*
X85018240Y-103892983D01*
X84963207Y-103915779D01*
X84933995Y-103921590D01*
X84904785Y-103927400D01*
X84845215Y-103927400D01*
X84816005Y-103921590D01*
X84786793Y-103915779D01*
X84731760Y-103892983D01*
X84682231Y-103859889D01*
X84640111Y-103817769D01*
X84607017Y-103768240D01*
X84584221Y-103713207D01*
X84572600Y-103654784D01*
X84572600Y-103595216D01*
X84584221Y-103536793D01*
X84607017Y-103481760D01*
X84640111Y-103432231D01*
X84682231Y-103390111D01*
X84731760Y-103357017D01*
X84786793Y-103334221D01*
X84816005Y-103328410D01*
X84845215Y-103322600D01*
X84904785Y-103322600D01*
X84933995Y-103328410D01*
G37*
G36*
X104183995Y-103328410D02*
G01*
X104213207Y-103334221D01*
X104268240Y-103357017D01*
X104317769Y-103390111D01*
X104359889Y-103432231D01*
X104392983Y-103481760D01*
X104415779Y-103536793D01*
X104427400Y-103595216D01*
X104427400Y-103654784D01*
X104415779Y-103713207D01*
X104392983Y-103768240D01*
X104359889Y-103817769D01*
X104317769Y-103859889D01*
X104268240Y-103892983D01*
X104213207Y-103915779D01*
X104183995Y-103921590D01*
X104154785Y-103927400D01*
X104095215Y-103927400D01*
X104066005Y-103921590D01*
X104036793Y-103915779D01*
X103981760Y-103892983D01*
X103932231Y-103859889D01*
X103890111Y-103817769D01*
X103857017Y-103768240D01*
X103834221Y-103713207D01*
X103822600Y-103654784D01*
X103822600Y-103595216D01*
X103834221Y-103536793D01*
X103857017Y-103481760D01*
X103890111Y-103432231D01*
X103932231Y-103390111D01*
X103981760Y-103357017D01*
X104036793Y-103334221D01*
X104066005Y-103328410D01*
X104095215Y-103322600D01*
X104154785Y-103322600D01*
X104183995Y-103328410D01*
G37*
G36*
X87683995Y-103328410D02*
G01*
X87713207Y-103334221D01*
X87768240Y-103357017D01*
X87817769Y-103390111D01*
X87859889Y-103432231D01*
X87892983Y-103481760D01*
X87915779Y-103536793D01*
X87927400Y-103595216D01*
X87927400Y-103654784D01*
X87915779Y-103713207D01*
X87892983Y-103768240D01*
X87859889Y-103817769D01*
X87817769Y-103859889D01*
X87768240Y-103892983D01*
X87713207Y-103915779D01*
X87683995Y-103921590D01*
X87654785Y-103927400D01*
X87595215Y-103927400D01*
X87566005Y-103921590D01*
X87536793Y-103915779D01*
X87481760Y-103892983D01*
X87432231Y-103859889D01*
X87390111Y-103817769D01*
X87357017Y-103768240D01*
X87334221Y-103713207D01*
X87322600Y-103654784D01*
X87322600Y-103595216D01*
X87334221Y-103536793D01*
X87357017Y-103481760D01*
X87390111Y-103432231D01*
X87432231Y-103390111D01*
X87481760Y-103357017D01*
X87536793Y-103334221D01*
X87566005Y-103328410D01*
X87595215Y-103322600D01*
X87654785Y-103322600D01*
X87683995Y-103328410D01*
G37*
G36*
X90433995Y-103328410D02*
G01*
X90463207Y-103334221D01*
X90518240Y-103357017D01*
X90567769Y-103390111D01*
X90609889Y-103432231D01*
X90642983Y-103481760D01*
X90665779Y-103536793D01*
X90677400Y-103595216D01*
X90677400Y-103654784D01*
X90665779Y-103713207D01*
X90642983Y-103768240D01*
X90609889Y-103817769D01*
X90567769Y-103859889D01*
X90518240Y-103892983D01*
X90463207Y-103915779D01*
X90433995Y-103921590D01*
X90404785Y-103927400D01*
X90345215Y-103927400D01*
X90316005Y-103921590D01*
X90286793Y-103915779D01*
X90231760Y-103892983D01*
X90182231Y-103859889D01*
X90140111Y-103817769D01*
X90107017Y-103768240D01*
X90084221Y-103713207D01*
X90072600Y-103654784D01*
X90072600Y-103595216D01*
X90084221Y-103536793D01*
X90107017Y-103481760D01*
X90140111Y-103432231D01*
X90182231Y-103390111D01*
X90231760Y-103357017D01*
X90286793Y-103334221D01*
X90316005Y-103328410D01*
X90345215Y-103322600D01*
X90404785Y-103322600D01*
X90433995Y-103328410D01*
G37*
G36*
X101433995Y-103328410D02*
G01*
X101463207Y-103334221D01*
X101518240Y-103357017D01*
X101567769Y-103390111D01*
X101609889Y-103432231D01*
X101642983Y-103481760D01*
X101665779Y-103536793D01*
X101677400Y-103595216D01*
X101677400Y-103654784D01*
X101665779Y-103713207D01*
X101642983Y-103768240D01*
X101609889Y-103817769D01*
X101567769Y-103859889D01*
X101518240Y-103892983D01*
X101463207Y-103915779D01*
X101433995Y-103921590D01*
X101404785Y-103927400D01*
X101345215Y-103927400D01*
X101316005Y-103921590D01*
X101286793Y-103915779D01*
X101231760Y-103892983D01*
X101182231Y-103859889D01*
X101140111Y-103817769D01*
X101107017Y-103768240D01*
X101084221Y-103713207D01*
X101072600Y-103654784D01*
X101072600Y-103595216D01*
X101084221Y-103536793D01*
X101107017Y-103481760D01*
X101140111Y-103432231D01*
X101182231Y-103390111D01*
X101231760Y-103357017D01*
X101286793Y-103334221D01*
X101316005Y-103328410D01*
X101345215Y-103322600D01*
X101404785Y-103322600D01*
X101433995Y-103328410D01*
G37*
G36*
X93183995Y-103328410D02*
G01*
X93213207Y-103334221D01*
X93268240Y-103357017D01*
X93317769Y-103390111D01*
X93359889Y-103432231D01*
X93392983Y-103481760D01*
X93415779Y-103536793D01*
X93427400Y-103595216D01*
X93427400Y-103654784D01*
X93415779Y-103713207D01*
X93392983Y-103768240D01*
X93359889Y-103817769D01*
X93317769Y-103859889D01*
X93268240Y-103892983D01*
X93213207Y-103915779D01*
X93183995Y-103921590D01*
X93154785Y-103927400D01*
X93095215Y-103927400D01*
X93066005Y-103921590D01*
X93036793Y-103915779D01*
X92981760Y-103892983D01*
X92932231Y-103859889D01*
X92890111Y-103817769D01*
X92857017Y-103768240D01*
X92834221Y-103713207D01*
X92822600Y-103654784D01*
X92822600Y-103595216D01*
X92834221Y-103536793D01*
X92857017Y-103481760D01*
X92890111Y-103432231D01*
X92932231Y-103390111D01*
X92981760Y-103357017D01*
X93036793Y-103334221D01*
X93066005Y-103328410D01*
X93095215Y-103322600D01*
X93154785Y-103322600D01*
X93183995Y-103328410D01*
G37*
G36*
X95933995Y-103328410D02*
G01*
X95963207Y-103334221D01*
X96018240Y-103357017D01*
X96067769Y-103390111D01*
X96109889Y-103432231D01*
X96142983Y-103481760D01*
X96165779Y-103536793D01*
X96177400Y-103595216D01*
X96177400Y-103654784D01*
X96165779Y-103713207D01*
X96142983Y-103768240D01*
X96109889Y-103817769D01*
X96067769Y-103859889D01*
X96018240Y-103892983D01*
X95963207Y-103915779D01*
X95933995Y-103921590D01*
X95904785Y-103927400D01*
X95845215Y-103927400D01*
X95816005Y-103921590D01*
X95786793Y-103915779D01*
X95731760Y-103892983D01*
X95682231Y-103859889D01*
X95640111Y-103817769D01*
X95607017Y-103768240D01*
X95584221Y-103713207D01*
X95572600Y-103654784D01*
X95572600Y-103595216D01*
X95584221Y-103536793D01*
X95607017Y-103481760D01*
X95640111Y-103432231D01*
X95682231Y-103390111D01*
X95731760Y-103357017D01*
X95786793Y-103334221D01*
X95816005Y-103328410D01*
X95845215Y-103322600D01*
X95904785Y-103322600D01*
X95933995Y-103328410D01*
G37*
G36*
X109683995Y-103328410D02*
G01*
X109713207Y-103334221D01*
X109768240Y-103357017D01*
X109817769Y-103390111D01*
X109859889Y-103432231D01*
X109892983Y-103481760D01*
X109915779Y-103536793D01*
X109927400Y-103595216D01*
X109927400Y-103654784D01*
X109915779Y-103713207D01*
X109892983Y-103768240D01*
X109859889Y-103817769D01*
X109817769Y-103859889D01*
X109768240Y-103892983D01*
X109713207Y-103915779D01*
X109683995Y-103921590D01*
X109654785Y-103927400D01*
X109595215Y-103927400D01*
X109566005Y-103921590D01*
X109536793Y-103915779D01*
X109481760Y-103892983D01*
X109432231Y-103859889D01*
X109390111Y-103817769D01*
X109357017Y-103768240D01*
X109334221Y-103713207D01*
X109322600Y-103654784D01*
X109322600Y-103595216D01*
X109334221Y-103536793D01*
X109357017Y-103481760D01*
X109390111Y-103432231D01*
X109432231Y-103390111D01*
X109481760Y-103357017D01*
X109536793Y-103334221D01*
X109566005Y-103328410D01*
X109595215Y-103322600D01*
X109654785Y-103322600D01*
X109683995Y-103328410D01*
G37*
G36*
X98683995Y-103328410D02*
G01*
X98713207Y-103334221D01*
X98768240Y-103357017D01*
X98817769Y-103390111D01*
X98859889Y-103432231D01*
X98892983Y-103481760D01*
X98915779Y-103536793D01*
X98927400Y-103595216D01*
X98927400Y-103654784D01*
X98915779Y-103713207D01*
X98892983Y-103768240D01*
X98859889Y-103817769D01*
X98817769Y-103859889D01*
X98768240Y-103892983D01*
X98713207Y-103915779D01*
X98683995Y-103921590D01*
X98654785Y-103927400D01*
X98595215Y-103927400D01*
X98566005Y-103921590D01*
X98536793Y-103915779D01*
X98481760Y-103892983D01*
X98432231Y-103859889D01*
X98390111Y-103817769D01*
X98357017Y-103768240D01*
X98334221Y-103713207D01*
X98322600Y-103654784D01*
X98322600Y-103595216D01*
X98334221Y-103536793D01*
X98357017Y-103481760D01*
X98390111Y-103432231D01*
X98432231Y-103390111D01*
X98481760Y-103357017D01*
X98536793Y-103334221D01*
X98566005Y-103328410D01*
X98595215Y-103322600D01*
X98654785Y-103322600D01*
X98683995Y-103328410D01*
G37*
G36*
X122058995Y-103328410D02*
G01*
X122088207Y-103334221D01*
X122143240Y-103357017D01*
X122192769Y-103390111D01*
X122234889Y-103432231D01*
X122267983Y-103481760D01*
X122290779Y-103536793D01*
X122302400Y-103595216D01*
X122302400Y-103654784D01*
X122290779Y-103713207D01*
X122267983Y-103768240D01*
X122234889Y-103817769D01*
X122192769Y-103859889D01*
X122143240Y-103892983D01*
X122088207Y-103915779D01*
X122058995Y-103921590D01*
X122029785Y-103927400D01*
X121970215Y-103927400D01*
X121941005Y-103921590D01*
X121911793Y-103915779D01*
X121856760Y-103892983D01*
X121807231Y-103859889D01*
X121765111Y-103817769D01*
X121732017Y-103768240D01*
X121709221Y-103713207D01*
X121697600Y-103654784D01*
X121697600Y-103595216D01*
X121709221Y-103536793D01*
X121732017Y-103481760D01*
X121765111Y-103432231D01*
X121807231Y-103390111D01*
X121856760Y-103357017D01*
X121911793Y-103334221D01*
X121941005Y-103328410D01*
X121970215Y-103322600D01*
X122029785Y-103322600D01*
X122058995Y-103328410D01*
G37*
G36*
X115183995Y-103328410D02*
G01*
X115213207Y-103334221D01*
X115268240Y-103357017D01*
X115317769Y-103390111D01*
X115359889Y-103432231D01*
X115392983Y-103481760D01*
X115415779Y-103536793D01*
X115427400Y-103595216D01*
X115427400Y-103654784D01*
X115415779Y-103713207D01*
X115392983Y-103768240D01*
X115359889Y-103817769D01*
X115317769Y-103859889D01*
X115268240Y-103892983D01*
X115213207Y-103915779D01*
X115183995Y-103921590D01*
X115154785Y-103927400D01*
X115095215Y-103927400D01*
X115066005Y-103921590D01*
X115036793Y-103915779D01*
X114981760Y-103892983D01*
X114932231Y-103859889D01*
X114890111Y-103817769D01*
X114857017Y-103768240D01*
X114834221Y-103713207D01*
X114822600Y-103654784D01*
X114822600Y-103595216D01*
X114834221Y-103536793D01*
X114857017Y-103481760D01*
X114890111Y-103432231D01*
X114932231Y-103390111D01*
X114981760Y-103357017D01*
X115036793Y-103334221D01*
X115066005Y-103328410D01*
X115095215Y-103322600D01*
X115154785Y-103322600D01*
X115183995Y-103328410D01*
G37*
G36*
X117933995Y-103328410D02*
G01*
X117963207Y-103334221D01*
X118018240Y-103357017D01*
X118067769Y-103390111D01*
X118109889Y-103432231D01*
X118142983Y-103481760D01*
X118165779Y-103536793D01*
X118177400Y-103595216D01*
X118177400Y-103654784D01*
X118165779Y-103713207D01*
X118142983Y-103768240D01*
X118109889Y-103817769D01*
X118067769Y-103859889D01*
X118018240Y-103892983D01*
X117963207Y-103915779D01*
X117933995Y-103921590D01*
X117904785Y-103927400D01*
X117845215Y-103927400D01*
X117816005Y-103921590D01*
X117786793Y-103915779D01*
X117731760Y-103892983D01*
X117682231Y-103859889D01*
X117640111Y-103817769D01*
X117607017Y-103768240D01*
X117584221Y-103713207D01*
X117572600Y-103654784D01*
X117572600Y-103595216D01*
X117584221Y-103536793D01*
X117607017Y-103481760D01*
X117640111Y-103432231D01*
X117682231Y-103390111D01*
X117731760Y-103357017D01*
X117786793Y-103334221D01*
X117816005Y-103328410D01*
X117845215Y-103322600D01*
X117904785Y-103322600D01*
X117933995Y-103328410D01*
G37*
G36*
X82183996Y-100578411D02*
G01*
X82213207Y-100584221D01*
X82268240Y-100607017D01*
X82317769Y-100640111D01*
X82359889Y-100682231D01*
X82392983Y-100731760D01*
X82415779Y-100786793D01*
X82427400Y-100845216D01*
X82427400Y-100904784D01*
X82415779Y-100963207D01*
X82392983Y-101018240D01*
X82359889Y-101067769D01*
X82317769Y-101109889D01*
X82268240Y-101142983D01*
X82213207Y-101165779D01*
X82183995Y-101171590D01*
X82154785Y-101177400D01*
X82095215Y-101177400D01*
X82066005Y-101171590D01*
X82036793Y-101165779D01*
X81981760Y-101142983D01*
X81932231Y-101109889D01*
X81890111Y-101067769D01*
X81857017Y-101018240D01*
X81834221Y-100963207D01*
X81822600Y-100904784D01*
X81822600Y-100845216D01*
X81834221Y-100786793D01*
X81857017Y-100731760D01*
X81890111Y-100682231D01*
X81932231Y-100640111D01*
X81981760Y-100607017D01*
X82036793Y-100584221D01*
X82066005Y-100578410D01*
X82095215Y-100572600D01*
X82154785Y-100572600D01*
X82183996Y-100578411D01*
G37*
G36*
X93183996Y-100578411D02*
G01*
X93213207Y-100584221D01*
X93268240Y-100607017D01*
X93317769Y-100640111D01*
X93359889Y-100682231D01*
X93392983Y-100731760D01*
X93415779Y-100786793D01*
X93427400Y-100845216D01*
X93427400Y-100904784D01*
X93415779Y-100963207D01*
X93392983Y-101018240D01*
X93359889Y-101067769D01*
X93317769Y-101109889D01*
X93268240Y-101142983D01*
X93213207Y-101165779D01*
X93183995Y-101171590D01*
X93154785Y-101177400D01*
X93095215Y-101177400D01*
X93066005Y-101171590D01*
X93036793Y-101165779D01*
X92981760Y-101142983D01*
X92932231Y-101109889D01*
X92890111Y-101067769D01*
X92857017Y-101018240D01*
X92834221Y-100963207D01*
X92822600Y-100904784D01*
X92822600Y-100845216D01*
X92834221Y-100786793D01*
X92857017Y-100731760D01*
X92890111Y-100682231D01*
X92932231Y-100640111D01*
X92981760Y-100607017D01*
X93036793Y-100584221D01*
X93066005Y-100578410D01*
X93095215Y-100572600D01*
X93154785Y-100572600D01*
X93183996Y-100578411D01*
G37*
G36*
X117933996Y-100578411D02*
G01*
X117963207Y-100584221D01*
X118018240Y-100607017D01*
X118067769Y-100640111D01*
X118109889Y-100682231D01*
X118142983Y-100731760D01*
X118165779Y-100786793D01*
X118177400Y-100845216D01*
X118177400Y-100904784D01*
X118165779Y-100963207D01*
X118142983Y-101018240D01*
X118109889Y-101067769D01*
X118067769Y-101109889D01*
X118018240Y-101142983D01*
X117963207Y-101165779D01*
X117933995Y-101171590D01*
X117904785Y-101177400D01*
X117845215Y-101177400D01*
X117816005Y-101171590D01*
X117786793Y-101165779D01*
X117731760Y-101142983D01*
X117682231Y-101109889D01*
X117640111Y-101067769D01*
X117607017Y-101018240D01*
X117584221Y-100963207D01*
X117572600Y-100904784D01*
X117572600Y-100845216D01*
X117584221Y-100786793D01*
X117607017Y-100731760D01*
X117640111Y-100682231D01*
X117682231Y-100640111D01*
X117731760Y-100607017D01*
X117786793Y-100584221D01*
X117816005Y-100578410D01*
X117845215Y-100572600D01*
X117904785Y-100572600D01*
X117933996Y-100578411D01*
G37*
G36*
X109683996Y-100578411D02*
G01*
X109713207Y-100584221D01*
X109768240Y-100607017D01*
X109817769Y-100640111D01*
X109859889Y-100682231D01*
X109892983Y-100731760D01*
X109915779Y-100786793D01*
X109927400Y-100845216D01*
X109927400Y-100904784D01*
X109915779Y-100963207D01*
X109892983Y-101018240D01*
X109859889Y-101067769D01*
X109817769Y-101109889D01*
X109768240Y-101142983D01*
X109713207Y-101165779D01*
X109683995Y-101171590D01*
X109654785Y-101177400D01*
X109595215Y-101177400D01*
X109566005Y-101171590D01*
X109536793Y-101165779D01*
X109481760Y-101142983D01*
X109432231Y-101109889D01*
X109390111Y-101067769D01*
X109357017Y-101018240D01*
X109334221Y-100963207D01*
X109322600Y-100904784D01*
X109322600Y-100845216D01*
X109334221Y-100786793D01*
X109357017Y-100731760D01*
X109390111Y-100682231D01*
X109432231Y-100640111D01*
X109481760Y-100607017D01*
X109536793Y-100584221D01*
X109566005Y-100578410D01*
X109595215Y-100572600D01*
X109654785Y-100572600D01*
X109683996Y-100578411D01*
G37*
G36*
X101433996Y-100578411D02*
G01*
X101463207Y-100584221D01*
X101518240Y-100607017D01*
X101567769Y-100640111D01*
X101609889Y-100682231D01*
X101642983Y-100731760D01*
X101665779Y-100786793D01*
X101677400Y-100845216D01*
X101677400Y-100904784D01*
X101665779Y-100963207D01*
X101642983Y-101018240D01*
X101609889Y-101067769D01*
X101567769Y-101109889D01*
X101518240Y-101142983D01*
X101463207Y-101165779D01*
X101433995Y-101171590D01*
X101404785Y-101177400D01*
X101345215Y-101177400D01*
X101316005Y-101171590D01*
X101286793Y-101165779D01*
X101231760Y-101142983D01*
X101182231Y-101109889D01*
X101140111Y-101067769D01*
X101107017Y-101018240D01*
X101084221Y-100963207D01*
X101072600Y-100904784D01*
X101072600Y-100845216D01*
X101084221Y-100786793D01*
X101107017Y-100731760D01*
X101140111Y-100682231D01*
X101182231Y-100640111D01*
X101231760Y-100607017D01*
X101286793Y-100584221D01*
X101316005Y-100578410D01*
X101345215Y-100572600D01*
X101404785Y-100572600D01*
X101433996Y-100578411D01*
G37*
G36*
X98683996Y-100578411D02*
G01*
X98713207Y-100584221D01*
X98768240Y-100607017D01*
X98817769Y-100640111D01*
X98859889Y-100682231D01*
X98892983Y-100731760D01*
X98915779Y-100786793D01*
X98927400Y-100845216D01*
X98927400Y-100904784D01*
X98915779Y-100963207D01*
X98892983Y-101018240D01*
X98859889Y-101067769D01*
X98817769Y-101109889D01*
X98768240Y-101142983D01*
X98713207Y-101165779D01*
X98683995Y-101171590D01*
X98654785Y-101177400D01*
X98595215Y-101177400D01*
X98566005Y-101171590D01*
X98536793Y-101165779D01*
X98481760Y-101142983D01*
X98432231Y-101109889D01*
X98390111Y-101067769D01*
X98357017Y-101018240D01*
X98334221Y-100963207D01*
X98322600Y-100904784D01*
X98322600Y-100845216D01*
X98334221Y-100786793D01*
X98357017Y-100731760D01*
X98390111Y-100682231D01*
X98432231Y-100640111D01*
X98481760Y-100607017D01*
X98536793Y-100584221D01*
X98566005Y-100578410D01*
X98595215Y-100572600D01*
X98654785Y-100572600D01*
X98683996Y-100578411D01*
G37*
G36*
X95933996Y-100578411D02*
G01*
X95963207Y-100584221D01*
X96018240Y-100607017D01*
X96067769Y-100640111D01*
X96109889Y-100682231D01*
X96142983Y-100731760D01*
X96165779Y-100786793D01*
X96177400Y-100845216D01*
X96177400Y-100904784D01*
X96165779Y-100963207D01*
X96142983Y-101018240D01*
X96109889Y-101067769D01*
X96067769Y-101109889D01*
X96018240Y-101142983D01*
X95963207Y-101165779D01*
X95933995Y-101171590D01*
X95904785Y-101177400D01*
X95845215Y-101177400D01*
X95816005Y-101171590D01*
X95786793Y-101165779D01*
X95731760Y-101142983D01*
X95682231Y-101109889D01*
X95640111Y-101067769D01*
X95607017Y-101018240D01*
X95584221Y-100963207D01*
X95572600Y-100904784D01*
X95572600Y-100845216D01*
X95584221Y-100786793D01*
X95607017Y-100731760D01*
X95640111Y-100682231D01*
X95682231Y-100640111D01*
X95731760Y-100607017D01*
X95786793Y-100584221D01*
X95816005Y-100578410D01*
X95845215Y-100572600D01*
X95904785Y-100572600D01*
X95933996Y-100578411D01*
G37*
G36*
X104183996Y-100578411D02*
G01*
X104213207Y-100584221D01*
X104268240Y-100607017D01*
X104317769Y-100640111D01*
X104359889Y-100682231D01*
X104392983Y-100731760D01*
X104415779Y-100786793D01*
X104427400Y-100845216D01*
X104427400Y-100904784D01*
X104415779Y-100963207D01*
X104392983Y-101018240D01*
X104359889Y-101067769D01*
X104317769Y-101109889D01*
X104268240Y-101142983D01*
X104213207Y-101165779D01*
X104183995Y-101171590D01*
X104154785Y-101177400D01*
X104095215Y-101177400D01*
X104066005Y-101171590D01*
X104036793Y-101165779D01*
X103981760Y-101142983D01*
X103932231Y-101109889D01*
X103890111Y-101067769D01*
X103857017Y-101018240D01*
X103834221Y-100963207D01*
X103822600Y-100904784D01*
X103822600Y-100845216D01*
X103834221Y-100786793D01*
X103857017Y-100731760D01*
X103890111Y-100682231D01*
X103932231Y-100640111D01*
X103981760Y-100607017D01*
X104036793Y-100584221D01*
X104066005Y-100578410D01*
X104095215Y-100572600D01*
X104154785Y-100572600D01*
X104183996Y-100578411D01*
G37*
G36*
X115183996Y-100578411D02*
G01*
X115213207Y-100584221D01*
X115268240Y-100607017D01*
X115317769Y-100640111D01*
X115359889Y-100682231D01*
X115392983Y-100731760D01*
X115415779Y-100786793D01*
X115427400Y-100845216D01*
X115427400Y-100904784D01*
X115415779Y-100963207D01*
X115392983Y-101018240D01*
X115359889Y-101067769D01*
X115317769Y-101109889D01*
X115268240Y-101142983D01*
X115213207Y-101165779D01*
X115183995Y-101171590D01*
X115154785Y-101177400D01*
X115095215Y-101177400D01*
X115066005Y-101171590D01*
X115036793Y-101165779D01*
X114981760Y-101142983D01*
X114932231Y-101109889D01*
X114890111Y-101067769D01*
X114857017Y-101018240D01*
X114834221Y-100963207D01*
X114822600Y-100904784D01*
X114822600Y-100845216D01*
X114834221Y-100786793D01*
X114857017Y-100731760D01*
X114890111Y-100682231D01*
X114932231Y-100640111D01*
X114981760Y-100607017D01*
X115036793Y-100584221D01*
X115066005Y-100578410D01*
X115095215Y-100572600D01*
X115154785Y-100572600D01*
X115183996Y-100578411D01*
G37*
G36*
X84933996Y-100578411D02*
G01*
X84963207Y-100584221D01*
X85018240Y-100607017D01*
X85067769Y-100640111D01*
X85109889Y-100682231D01*
X85142983Y-100731760D01*
X85165779Y-100786793D01*
X85177400Y-100845216D01*
X85177400Y-100904784D01*
X85165779Y-100963207D01*
X85142983Y-101018240D01*
X85109889Y-101067769D01*
X85067769Y-101109889D01*
X85018240Y-101142983D01*
X84963207Y-101165779D01*
X84933995Y-101171590D01*
X84904785Y-101177400D01*
X84845215Y-101177400D01*
X84816005Y-101171590D01*
X84786793Y-101165779D01*
X84731760Y-101142983D01*
X84682231Y-101109889D01*
X84640111Y-101067769D01*
X84607017Y-101018240D01*
X84584221Y-100963207D01*
X84572600Y-100904784D01*
X84572600Y-100845216D01*
X84584221Y-100786793D01*
X84607017Y-100731760D01*
X84640111Y-100682231D01*
X84682231Y-100640111D01*
X84731760Y-100607017D01*
X84786793Y-100584221D01*
X84816005Y-100578410D01*
X84845215Y-100572600D01*
X84904785Y-100572600D01*
X84933996Y-100578411D01*
G37*
G36*
X106933996Y-100578411D02*
G01*
X106963207Y-100584221D01*
X107018240Y-100607017D01*
X107067769Y-100640111D01*
X107109889Y-100682231D01*
X107142983Y-100731760D01*
X107165779Y-100786793D01*
X107177400Y-100845216D01*
X107177400Y-100904784D01*
X107165779Y-100963207D01*
X107142983Y-101018240D01*
X107109889Y-101067769D01*
X107067769Y-101109889D01*
X107018240Y-101142983D01*
X106963207Y-101165779D01*
X106933995Y-101171590D01*
X106904785Y-101177400D01*
X106845215Y-101177400D01*
X106816005Y-101171590D01*
X106786793Y-101165779D01*
X106731760Y-101142983D01*
X106682231Y-101109889D01*
X106640111Y-101067769D01*
X106607017Y-101018240D01*
X106584221Y-100963207D01*
X106572600Y-100904784D01*
X106572600Y-100845216D01*
X106584221Y-100786793D01*
X106607017Y-100731760D01*
X106640111Y-100682231D01*
X106682231Y-100640111D01*
X106731760Y-100607017D01*
X106786793Y-100584221D01*
X106816005Y-100578410D01*
X106845215Y-100572600D01*
X106904785Y-100572600D01*
X106933996Y-100578411D01*
G37*
G36*
X112433996Y-100578411D02*
G01*
X112463207Y-100584221D01*
X112518240Y-100607017D01*
X112567769Y-100640111D01*
X112609889Y-100682231D01*
X112642983Y-100731760D01*
X112665779Y-100786793D01*
X112677400Y-100845216D01*
X112677400Y-100904784D01*
X112665779Y-100963207D01*
X112642983Y-101018240D01*
X112609889Y-101067769D01*
X112567769Y-101109889D01*
X112518240Y-101142983D01*
X112463207Y-101165779D01*
X112433995Y-101171590D01*
X112404785Y-101177400D01*
X112345215Y-101177400D01*
X112316005Y-101171590D01*
X112286793Y-101165779D01*
X112231760Y-101142983D01*
X112182231Y-101109889D01*
X112140111Y-101067769D01*
X112107017Y-101018240D01*
X112084221Y-100963207D01*
X112072600Y-100904784D01*
X112072600Y-100845216D01*
X112084221Y-100786793D01*
X112107017Y-100731760D01*
X112140111Y-100682231D01*
X112182231Y-100640111D01*
X112231760Y-100607017D01*
X112286793Y-100584221D01*
X112316005Y-100578410D01*
X112345215Y-100572600D01*
X112404785Y-100572600D01*
X112433996Y-100578411D01*
G37*
G36*
X90433996Y-100578411D02*
G01*
X90463207Y-100584221D01*
X90518240Y-100607017D01*
X90567769Y-100640111D01*
X90609889Y-100682231D01*
X90642983Y-100731760D01*
X90665779Y-100786793D01*
X90677400Y-100845216D01*
X90677400Y-100904784D01*
X90665779Y-100963207D01*
X90642983Y-101018240D01*
X90609889Y-101067769D01*
X90567769Y-101109889D01*
X90518240Y-101142983D01*
X90463207Y-101165779D01*
X90433995Y-101171590D01*
X90404785Y-101177400D01*
X90345215Y-101177400D01*
X90316005Y-101171590D01*
X90286793Y-101165779D01*
X90231760Y-101142983D01*
X90182231Y-101109889D01*
X90140111Y-101067769D01*
X90107017Y-101018240D01*
X90084221Y-100963207D01*
X90072600Y-100904784D01*
X90072600Y-100845216D01*
X90084221Y-100786793D01*
X90107017Y-100731760D01*
X90140111Y-100682231D01*
X90182231Y-100640111D01*
X90231760Y-100607017D01*
X90286793Y-100584221D01*
X90316005Y-100578410D01*
X90345215Y-100572600D01*
X90404785Y-100572600D01*
X90433996Y-100578411D01*
G37*
G36*
X87683996Y-100578411D02*
G01*
X87713207Y-100584221D01*
X87768240Y-100607017D01*
X87817769Y-100640111D01*
X87859889Y-100682231D01*
X87892983Y-100731760D01*
X87915779Y-100786793D01*
X87927400Y-100845216D01*
X87927400Y-100904784D01*
X87915779Y-100963207D01*
X87892983Y-101018240D01*
X87859889Y-101067769D01*
X87817769Y-101109889D01*
X87768240Y-101142983D01*
X87713207Y-101165779D01*
X87683995Y-101171590D01*
X87654785Y-101177400D01*
X87595215Y-101177400D01*
X87566005Y-101171590D01*
X87536793Y-101165779D01*
X87481760Y-101142983D01*
X87432231Y-101109889D01*
X87390111Y-101067769D01*
X87357017Y-101018240D01*
X87334221Y-100963207D01*
X87322600Y-100904784D01*
X87322600Y-100845216D01*
X87334221Y-100786793D01*
X87357017Y-100731760D01*
X87390111Y-100682231D01*
X87432231Y-100640111D01*
X87481760Y-100607017D01*
X87536793Y-100584221D01*
X87566005Y-100578410D01*
X87595215Y-100572600D01*
X87654785Y-100572600D01*
X87683996Y-100578411D01*
G37*
G36*
X87683995Y-97828410D02*
G01*
X87713207Y-97834221D01*
X87768240Y-97857017D01*
X87817769Y-97890111D01*
X87859889Y-97932231D01*
X87892983Y-97981760D01*
X87915779Y-98036793D01*
X87927400Y-98095216D01*
X87927400Y-98154784D01*
X87915779Y-98213207D01*
X87892983Y-98268240D01*
X87859889Y-98317769D01*
X87817769Y-98359889D01*
X87768240Y-98392983D01*
X87713207Y-98415779D01*
X87683995Y-98421590D01*
X87654785Y-98427400D01*
X87595215Y-98427400D01*
X87566005Y-98421590D01*
X87536793Y-98415779D01*
X87481760Y-98392983D01*
X87432231Y-98359889D01*
X87390111Y-98317769D01*
X87357017Y-98268240D01*
X87334221Y-98213207D01*
X87322600Y-98154784D01*
X87322600Y-98095216D01*
X87334221Y-98036793D01*
X87357017Y-97981760D01*
X87390111Y-97932231D01*
X87432231Y-97890111D01*
X87481760Y-97857017D01*
X87536793Y-97834221D01*
X87566005Y-97828410D01*
X87595215Y-97822600D01*
X87654785Y-97822600D01*
X87683995Y-97828410D01*
G37*
G36*
X115183995Y-97828410D02*
G01*
X115213207Y-97834221D01*
X115268240Y-97857017D01*
X115317769Y-97890111D01*
X115359889Y-97932231D01*
X115392983Y-97981760D01*
X115415779Y-98036793D01*
X115427400Y-98095216D01*
X115427400Y-98154784D01*
X115415779Y-98213207D01*
X115392983Y-98268240D01*
X115359889Y-98317769D01*
X115317769Y-98359889D01*
X115268240Y-98392983D01*
X115213207Y-98415779D01*
X115183995Y-98421590D01*
X115154785Y-98427400D01*
X115095215Y-98427400D01*
X115066005Y-98421590D01*
X115036793Y-98415779D01*
X114981760Y-98392983D01*
X114932231Y-98359889D01*
X114890111Y-98317769D01*
X114857017Y-98268240D01*
X114834221Y-98213207D01*
X114822600Y-98154784D01*
X114822600Y-98095216D01*
X114834221Y-98036793D01*
X114857017Y-97981760D01*
X114890111Y-97932231D01*
X114932231Y-97890111D01*
X114981760Y-97857017D01*
X115036793Y-97834221D01*
X115066005Y-97828410D01*
X115095215Y-97822600D01*
X115154785Y-97822600D01*
X115183995Y-97828410D01*
G37*
G36*
X106933995Y-97828410D02*
G01*
X106963207Y-97834221D01*
X107018240Y-97857017D01*
X107067769Y-97890111D01*
X107109889Y-97932231D01*
X107142983Y-97981760D01*
X107165779Y-98036793D01*
X107177400Y-98095216D01*
X107177400Y-98154784D01*
X107165779Y-98213207D01*
X107142983Y-98268240D01*
X107109889Y-98317769D01*
X107067769Y-98359889D01*
X107018240Y-98392983D01*
X106963207Y-98415779D01*
X106933995Y-98421590D01*
X106904785Y-98427400D01*
X106845215Y-98427400D01*
X106816005Y-98421590D01*
X106786793Y-98415779D01*
X106731760Y-98392983D01*
X106682231Y-98359889D01*
X106640111Y-98317769D01*
X106607017Y-98268240D01*
X106584221Y-98213207D01*
X106572600Y-98154784D01*
X106572600Y-98095216D01*
X106584221Y-98036793D01*
X106607017Y-97981760D01*
X106640111Y-97932231D01*
X106682231Y-97890111D01*
X106731760Y-97857017D01*
X106786793Y-97834221D01*
X106816005Y-97828410D01*
X106845215Y-97822600D01*
X106904785Y-97822600D01*
X106933995Y-97828410D01*
G37*
G36*
X112433995Y-97828410D02*
G01*
X112463207Y-97834221D01*
X112518240Y-97857017D01*
X112567769Y-97890111D01*
X112609889Y-97932231D01*
X112642983Y-97981760D01*
X112665779Y-98036793D01*
X112677400Y-98095216D01*
X112677400Y-98154784D01*
X112665779Y-98213207D01*
X112642983Y-98268240D01*
X112609889Y-98317769D01*
X112567769Y-98359889D01*
X112518240Y-98392983D01*
X112463207Y-98415779D01*
X112433995Y-98421590D01*
X112404785Y-98427400D01*
X112345215Y-98427400D01*
X112316005Y-98421590D01*
X112286793Y-98415779D01*
X112231760Y-98392983D01*
X112182231Y-98359889D01*
X112140111Y-98317769D01*
X112107017Y-98268240D01*
X112084221Y-98213207D01*
X112072600Y-98154784D01*
X112072600Y-98095216D01*
X112084221Y-98036793D01*
X112107017Y-97981760D01*
X112140111Y-97932231D01*
X112182231Y-97890111D01*
X112231760Y-97857017D01*
X112286793Y-97834221D01*
X112316005Y-97828410D01*
X112345215Y-97822600D01*
X112404785Y-97822600D01*
X112433995Y-97828410D01*
G37*
G36*
X84933995Y-97828410D02*
G01*
X84963207Y-97834221D01*
X85018240Y-97857017D01*
X85067769Y-97890111D01*
X85109889Y-97932231D01*
X85142983Y-97981760D01*
X85165779Y-98036793D01*
X85177400Y-98095216D01*
X85177400Y-98154784D01*
X85165779Y-98213207D01*
X85142983Y-98268240D01*
X85109889Y-98317769D01*
X85067769Y-98359889D01*
X85018240Y-98392983D01*
X84963207Y-98415779D01*
X84933995Y-98421590D01*
X84904785Y-98427400D01*
X84845215Y-98427400D01*
X84816005Y-98421590D01*
X84786793Y-98415779D01*
X84731760Y-98392983D01*
X84682231Y-98359889D01*
X84640111Y-98317769D01*
X84607017Y-98268240D01*
X84584221Y-98213207D01*
X84572600Y-98154784D01*
X84572600Y-98095216D01*
X84584221Y-98036793D01*
X84607017Y-97981760D01*
X84640111Y-97932231D01*
X84682231Y-97890111D01*
X84731760Y-97857017D01*
X84786793Y-97834221D01*
X84816005Y-97828410D01*
X84845215Y-97822600D01*
X84904785Y-97822600D01*
X84933995Y-97828410D01*
G37*
G36*
X109683995Y-97828410D02*
G01*
X109713207Y-97834221D01*
X109768240Y-97857017D01*
X109817769Y-97890111D01*
X109859889Y-97932231D01*
X109892983Y-97981760D01*
X109915779Y-98036793D01*
X109927400Y-98095216D01*
X109927400Y-98154784D01*
X109915779Y-98213207D01*
X109892983Y-98268240D01*
X109859889Y-98317769D01*
X109817769Y-98359889D01*
X109768240Y-98392983D01*
X109713207Y-98415779D01*
X109683995Y-98421590D01*
X109654785Y-98427400D01*
X109595215Y-98427400D01*
X109566005Y-98421590D01*
X109536793Y-98415779D01*
X109481760Y-98392983D01*
X109432231Y-98359889D01*
X109390111Y-98317769D01*
X109357017Y-98268240D01*
X109334221Y-98213207D01*
X109322600Y-98154784D01*
X109322600Y-98095216D01*
X109334221Y-98036793D01*
X109357017Y-97981760D01*
X109390111Y-97932231D01*
X109432231Y-97890111D01*
X109481760Y-97857017D01*
X109536793Y-97834221D01*
X109566005Y-97828410D01*
X109595215Y-97822600D01*
X109654785Y-97822600D01*
X109683995Y-97828410D01*
G37*
G36*
X98683995Y-97828410D02*
G01*
X98713207Y-97834221D01*
X98768240Y-97857017D01*
X98817769Y-97890111D01*
X98859889Y-97932231D01*
X98892983Y-97981760D01*
X98915779Y-98036793D01*
X98927400Y-98095216D01*
X98927400Y-98154784D01*
X98915779Y-98213207D01*
X98892983Y-98268240D01*
X98859889Y-98317769D01*
X98817769Y-98359889D01*
X98768240Y-98392983D01*
X98713207Y-98415779D01*
X98683995Y-98421590D01*
X98654785Y-98427400D01*
X98595215Y-98427400D01*
X98566005Y-98421590D01*
X98536793Y-98415779D01*
X98481760Y-98392983D01*
X98432231Y-98359889D01*
X98390111Y-98317769D01*
X98357017Y-98268240D01*
X98334221Y-98213207D01*
X98322600Y-98154784D01*
X98322600Y-98095216D01*
X98334221Y-98036793D01*
X98357017Y-97981760D01*
X98390111Y-97932231D01*
X98432231Y-97890111D01*
X98481760Y-97857017D01*
X98536793Y-97834221D01*
X98566005Y-97828410D01*
X98595215Y-97822600D01*
X98654785Y-97822600D01*
X98683995Y-97828410D01*
G37*
G36*
X82183995Y-97828410D02*
G01*
X82213207Y-97834221D01*
X82268240Y-97857017D01*
X82317769Y-97890111D01*
X82359889Y-97932231D01*
X82392983Y-97981760D01*
X82415779Y-98036793D01*
X82427400Y-98095216D01*
X82427400Y-98154784D01*
X82415779Y-98213207D01*
X82392983Y-98268240D01*
X82359889Y-98317769D01*
X82317769Y-98359889D01*
X82268240Y-98392983D01*
X82213207Y-98415779D01*
X82183995Y-98421590D01*
X82154785Y-98427400D01*
X82095215Y-98427400D01*
X82066005Y-98421590D01*
X82036793Y-98415779D01*
X81981760Y-98392983D01*
X81932231Y-98359889D01*
X81890111Y-98317769D01*
X81857017Y-98268240D01*
X81834221Y-98213207D01*
X81822600Y-98154784D01*
X81822600Y-98095216D01*
X81834221Y-98036793D01*
X81857017Y-97981760D01*
X81890111Y-97932231D01*
X81932231Y-97890111D01*
X81981760Y-97857017D01*
X82036793Y-97834221D01*
X82066005Y-97828410D01*
X82095215Y-97822600D01*
X82154785Y-97822600D01*
X82183995Y-97828410D01*
G37*
G36*
X104183995Y-97828410D02*
G01*
X104213207Y-97834221D01*
X104268240Y-97857017D01*
X104317769Y-97890111D01*
X104359889Y-97932231D01*
X104392983Y-97981760D01*
X104415779Y-98036793D01*
X104427400Y-98095216D01*
X104427400Y-98154784D01*
X104415779Y-98213207D01*
X104392983Y-98268240D01*
X104359889Y-98317769D01*
X104317769Y-98359889D01*
X104268240Y-98392983D01*
X104213207Y-98415779D01*
X104183995Y-98421590D01*
X104154785Y-98427400D01*
X104095215Y-98427400D01*
X104066005Y-98421590D01*
X104036793Y-98415779D01*
X103981760Y-98392983D01*
X103932231Y-98359889D01*
X103890111Y-98317769D01*
X103857017Y-98268240D01*
X103834221Y-98213207D01*
X103822600Y-98154784D01*
X103822600Y-98095216D01*
X103834221Y-98036793D01*
X103857017Y-97981760D01*
X103890111Y-97932231D01*
X103932231Y-97890111D01*
X103981760Y-97857017D01*
X104036793Y-97834221D01*
X104066005Y-97828410D01*
X104095215Y-97822600D01*
X104154785Y-97822600D01*
X104183995Y-97828410D01*
G37*
G36*
X90433995Y-97828410D02*
G01*
X90463207Y-97834221D01*
X90518240Y-97857017D01*
X90567769Y-97890111D01*
X90609889Y-97932231D01*
X90642983Y-97981760D01*
X90665779Y-98036793D01*
X90677400Y-98095216D01*
X90677400Y-98154784D01*
X90665779Y-98213207D01*
X90642983Y-98268240D01*
X90609889Y-98317769D01*
X90567769Y-98359889D01*
X90518240Y-98392983D01*
X90463207Y-98415779D01*
X90433995Y-98421590D01*
X90404785Y-98427400D01*
X90345215Y-98427400D01*
X90316005Y-98421590D01*
X90286793Y-98415779D01*
X90231760Y-98392983D01*
X90182231Y-98359889D01*
X90140111Y-98317769D01*
X90107017Y-98268240D01*
X90084221Y-98213207D01*
X90072600Y-98154784D01*
X90072600Y-98095216D01*
X90084221Y-98036793D01*
X90107017Y-97981760D01*
X90140111Y-97932231D01*
X90182231Y-97890111D01*
X90231760Y-97857017D01*
X90286793Y-97834221D01*
X90316005Y-97828410D01*
X90345215Y-97822600D01*
X90404785Y-97822600D01*
X90433995Y-97828410D01*
G37*
G36*
X95933995Y-97828410D02*
G01*
X95963207Y-97834221D01*
X96018240Y-97857017D01*
X96067769Y-97890111D01*
X96109889Y-97932231D01*
X96142983Y-97981760D01*
X96165779Y-98036793D01*
X96177400Y-98095216D01*
X96177400Y-98154784D01*
X96165779Y-98213207D01*
X96142983Y-98268240D01*
X96109889Y-98317769D01*
X96067769Y-98359889D01*
X96018240Y-98392983D01*
X95963207Y-98415779D01*
X95933995Y-98421590D01*
X95904785Y-98427400D01*
X95845215Y-98427400D01*
X95816005Y-98421590D01*
X95786793Y-98415779D01*
X95731760Y-98392983D01*
X95682231Y-98359889D01*
X95640111Y-98317769D01*
X95607017Y-98268240D01*
X95584221Y-98213207D01*
X95572600Y-98154784D01*
X95572600Y-98095216D01*
X95584221Y-98036793D01*
X95607017Y-97981760D01*
X95640111Y-97932231D01*
X95682231Y-97890111D01*
X95731760Y-97857017D01*
X95786793Y-97834221D01*
X95816005Y-97828410D01*
X95845215Y-97822600D01*
X95904785Y-97822600D01*
X95933995Y-97828410D01*
G37*
G36*
X117933995Y-97828410D02*
G01*
X117963207Y-97834221D01*
X118018240Y-97857017D01*
X118067769Y-97890111D01*
X118109889Y-97932231D01*
X118142983Y-97981760D01*
X118165779Y-98036793D01*
X118177400Y-98095216D01*
X118177400Y-98154784D01*
X118165779Y-98213207D01*
X118142983Y-98268240D01*
X118109889Y-98317769D01*
X118067769Y-98359889D01*
X118018240Y-98392983D01*
X117963207Y-98415779D01*
X117933995Y-98421590D01*
X117904785Y-98427400D01*
X117845215Y-98427400D01*
X117816005Y-98421590D01*
X117786793Y-98415779D01*
X117731760Y-98392983D01*
X117682231Y-98359889D01*
X117640111Y-98317769D01*
X117607017Y-98268240D01*
X117584221Y-98213207D01*
X117572600Y-98154784D01*
X117572600Y-98095216D01*
X117584221Y-98036793D01*
X117607017Y-97981760D01*
X117640111Y-97932231D01*
X117682231Y-97890111D01*
X117731760Y-97857017D01*
X117786793Y-97834221D01*
X117816005Y-97828410D01*
X117845215Y-97822600D01*
X117904785Y-97822600D01*
X117933995Y-97828410D01*
G37*
G36*
X93183995Y-97828410D02*
G01*
X93213207Y-97834221D01*
X93268240Y-97857017D01*
X93317769Y-97890111D01*
X93359889Y-97932231D01*
X93392983Y-97981760D01*
X93415779Y-98036793D01*
X93427400Y-98095216D01*
X93427400Y-98154784D01*
X93415779Y-98213207D01*
X93392983Y-98268240D01*
X93359889Y-98317769D01*
X93317769Y-98359889D01*
X93268240Y-98392983D01*
X93213207Y-98415779D01*
X93183995Y-98421590D01*
X93154785Y-98427400D01*
X93095215Y-98427400D01*
X93066005Y-98421590D01*
X93036793Y-98415779D01*
X92981760Y-98392983D01*
X92932231Y-98359889D01*
X92890111Y-98317769D01*
X92857017Y-98268240D01*
X92834221Y-98213207D01*
X92822600Y-98154784D01*
X92822600Y-98095216D01*
X92834221Y-98036793D01*
X92857017Y-97981760D01*
X92890111Y-97932231D01*
X92932231Y-97890111D01*
X92981760Y-97857017D01*
X93036793Y-97834221D01*
X93066005Y-97828410D01*
X93095215Y-97822600D01*
X93154785Y-97822600D01*
X93183995Y-97828410D01*
G37*
G36*
X101433995Y-97828410D02*
G01*
X101463207Y-97834221D01*
X101518240Y-97857017D01*
X101567769Y-97890111D01*
X101609889Y-97932231D01*
X101642983Y-97981760D01*
X101665779Y-98036793D01*
X101677400Y-98095216D01*
X101677400Y-98154784D01*
X101665779Y-98213207D01*
X101642983Y-98268240D01*
X101609889Y-98317769D01*
X101567769Y-98359889D01*
X101518240Y-98392983D01*
X101463207Y-98415779D01*
X101433995Y-98421590D01*
X101404785Y-98427400D01*
X101345215Y-98427400D01*
X101316005Y-98421590D01*
X101286793Y-98415779D01*
X101231760Y-98392983D01*
X101182231Y-98359889D01*
X101140111Y-98317769D01*
X101107017Y-98268240D01*
X101084221Y-98213207D01*
X101072600Y-98154784D01*
X101072600Y-98095216D01*
X101084221Y-98036793D01*
X101107017Y-97981760D01*
X101140111Y-97932231D01*
X101182231Y-97890111D01*
X101231760Y-97857017D01*
X101286793Y-97834221D01*
X101316005Y-97828410D01*
X101345215Y-97822600D01*
X101404785Y-97822600D01*
X101433995Y-97828410D01*
G37*
G36*
X84933995Y-95078410D02*
G01*
X84963207Y-95084221D01*
X85018240Y-95107017D01*
X85067769Y-95140111D01*
X85109889Y-95182231D01*
X85142983Y-95231760D01*
X85165779Y-95286793D01*
X85177400Y-95345216D01*
X85177400Y-95404784D01*
X85165779Y-95463207D01*
X85142983Y-95518240D01*
X85109889Y-95567769D01*
X85067769Y-95609889D01*
X85018240Y-95642983D01*
X84963207Y-95665779D01*
X84933995Y-95671590D01*
X84904785Y-95677400D01*
X84845215Y-95677400D01*
X84816005Y-95671590D01*
X84786793Y-95665779D01*
X84731760Y-95642983D01*
X84682231Y-95609889D01*
X84640111Y-95567769D01*
X84607017Y-95518240D01*
X84584221Y-95463207D01*
X84572600Y-95404784D01*
X84572600Y-95345216D01*
X84584221Y-95286793D01*
X84607017Y-95231760D01*
X84640111Y-95182231D01*
X84682231Y-95140111D01*
X84731760Y-95107017D01*
X84786793Y-95084221D01*
X84816005Y-95078410D01*
X84845215Y-95072600D01*
X84904785Y-95072600D01*
X84933995Y-95078410D01*
G37*
G36*
X87683995Y-95078410D02*
G01*
X87713207Y-95084221D01*
X87768240Y-95107017D01*
X87817769Y-95140111D01*
X87859889Y-95182231D01*
X87892983Y-95231760D01*
X87915779Y-95286793D01*
X87927400Y-95345216D01*
X87927400Y-95404784D01*
X87915779Y-95463207D01*
X87892983Y-95518240D01*
X87859889Y-95567769D01*
X87817769Y-95609889D01*
X87768240Y-95642983D01*
X87713207Y-95665779D01*
X87683995Y-95671590D01*
X87654785Y-95677400D01*
X87595215Y-95677400D01*
X87566005Y-95671590D01*
X87536793Y-95665779D01*
X87481760Y-95642983D01*
X87432231Y-95609889D01*
X87390111Y-95567769D01*
X87357017Y-95518240D01*
X87334221Y-95463207D01*
X87322600Y-95404784D01*
X87322600Y-95345216D01*
X87334221Y-95286793D01*
X87357017Y-95231760D01*
X87390111Y-95182231D01*
X87432231Y-95140111D01*
X87481760Y-95107017D01*
X87536793Y-95084221D01*
X87566005Y-95078410D01*
X87595215Y-95072600D01*
X87654785Y-95072600D01*
X87683995Y-95078410D01*
G37*
G36*
X95933995Y-95078410D02*
G01*
X95963207Y-95084221D01*
X96018240Y-95107017D01*
X96067769Y-95140111D01*
X96109889Y-95182231D01*
X96142983Y-95231760D01*
X96165779Y-95286793D01*
X96177400Y-95345216D01*
X96177400Y-95404784D01*
X96165779Y-95463207D01*
X96142983Y-95518240D01*
X96109889Y-95567769D01*
X96067769Y-95609889D01*
X96018240Y-95642983D01*
X95963207Y-95665779D01*
X95933995Y-95671590D01*
X95904785Y-95677400D01*
X95845215Y-95677400D01*
X95816005Y-95671590D01*
X95786793Y-95665779D01*
X95731760Y-95642983D01*
X95682231Y-95609889D01*
X95640111Y-95567769D01*
X95607017Y-95518240D01*
X95584221Y-95463207D01*
X95572600Y-95404784D01*
X95572600Y-95345216D01*
X95584221Y-95286793D01*
X95607017Y-95231760D01*
X95640111Y-95182231D01*
X95682231Y-95140111D01*
X95731760Y-95107017D01*
X95786793Y-95084221D01*
X95816005Y-95078410D01*
X95845215Y-95072600D01*
X95904785Y-95072600D01*
X95933995Y-95078410D01*
G37*
G36*
X93183995Y-95078410D02*
G01*
X93213207Y-95084221D01*
X93268240Y-95107017D01*
X93317769Y-95140111D01*
X93359889Y-95182231D01*
X93392983Y-95231760D01*
X93415779Y-95286793D01*
X93427400Y-95345216D01*
X93427400Y-95404784D01*
X93415779Y-95463207D01*
X93392983Y-95518240D01*
X93359889Y-95567769D01*
X93317769Y-95609889D01*
X93268240Y-95642983D01*
X93213207Y-95665779D01*
X93183995Y-95671590D01*
X93154785Y-95677400D01*
X93095215Y-95677400D01*
X93066005Y-95671590D01*
X93036793Y-95665779D01*
X92981760Y-95642983D01*
X92932231Y-95609889D01*
X92890111Y-95567769D01*
X92857017Y-95518240D01*
X92834221Y-95463207D01*
X92822600Y-95404784D01*
X92822600Y-95345216D01*
X92834221Y-95286793D01*
X92857017Y-95231760D01*
X92890111Y-95182231D01*
X92932231Y-95140111D01*
X92981760Y-95107017D01*
X93036793Y-95084221D01*
X93066005Y-95078410D01*
X93095215Y-95072600D01*
X93154785Y-95072600D01*
X93183995Y-95078410D01*
G37*
G36*
X90433995Y-95078410D02*
G01*
X90463207Y-95084221D01*
X90518240Y-95107017D01*
X90567769Y-95140111D01*
X90609889Y-95182231D01*
X90642983Y-95231760D01*
X90665779Y-95286793D01*
X90677400Y-95345216D01*
X90677400Y-95404784D01*
X90665779Y-95463207D01*
X90642983Y-95518240D01*
X90609889Y-95567769D01*
X90567769Y-95609889D01*
X90518240Y-95642983D01*
X90463207Y-95665779D01*
X90433995Y-95671590D01*
X90404785Y-95677400D01*
X90345215Y-95677400D01*
X90316005Y-95671590D01*
X90286793Y-95665779D01*
X90231760Y-95642983D01*
X90182231Y-95609889D01*
X90140111Y-95567769D01*
X90107017Y-95518240D01*
X90084221Y-95463207D01*
X90072600Y-95404784D01*
X90072600Y-95345216D01*
X90084221Y-95286793D01*
X90107017Y-95231760D01*
X90140111Y-95182231D01*
X90182231Y-95140111D01*
X90231760Y-95107017D01*
X90286793Y-95084221D01*
X90316005Y-95078410D01*
X90345215Y-95072600D01*
X90404785Y-95072600D01*
X90433995Y-95078410D01*
G37*
G36*
X98683995Y-95078410D02*
G01*
X98713207Y-95084221D01*
X98768240Y-95107017D01*
X98817769Y-95140111D01*
X98859889Y-95182231D01*
X98892983Y-95231760D01*
X98915779Y-95286793D01*
X98927400Y-95345216D01*
X98927400Y-95404784D01*
X98915779Y-95463207D01*
X98892983Y-95518240D01*
X98859889Y-95567769D01*
X98817769Y-95609889D01*
X98768240Y-95642983D01*
X98713207Y-95665779D01*
X98683995Y-95671590D01*
X98654785Y-95677400D01*
X98595215Y-95677400D01*
X98566005Y-95671590D01*
X98536793Y-95665779D01*
X98481760Y-95642983D01*
X98432231Y-95609889D01*
X98390111Y-95567769D01*
X98357017Y-95518240D01*
X98334221Y-95463207D01*
X98322600Y-95404784D01*
X98322600Y-95345216D01*
X98334221Y-95286793D01*
X98357017Y-95231760D01*
X98390111Y-95182231D01*
X98432231Y-95140111D01*
X98481760Y-95107017D01*
X98536793Y-95084221D01*
X98566005Y-95078410D01*
X98595215Y-95072600D01*
X98654785Y-95072600D01*
X98683995Y-95078410D01*
G37*
G36*
X82183995Y-95078410D02*
G01*
X82213207Y-95084221D01*
X82268240Y-95107017D01*
X82317769Y-95140111D01*
X82359889Y-95182231D01*
X82392983Y-95231760D01*
X82415779Y-95286793D01*
X82427400Y-95345216D01*
X82427400Y-95404784D01*
X82415779Y-95463207D01*
X82392983Y-95518240D01*
X82359889Y-95567769D01*
X82317769Y-95609889D01*
X82268240Y-95642983D01*
X82213207Y-95665779D01*
X82183995Y-95671590D01*
X82154785Y-95677400D01*
X82095215Y-95677400D01*
X82066005Y-95671590D01*
X82036793Y-95665779D01*
X81981760Y-95642983D01*
X81932231Y-95609889D01*
X81890111Y-95567769D01*
X81857017Y-95518240D01*
X81834221Y-95463207D01*
X81822600Y-95404784D01*
X81822600Y-95345216D01*
X81834221Y-95286793D01*
X81857017Y-95231760D01*
X81890111Y-95182231D01*
X81932231Y-95140111D01*
X81981760Y-95107017D01*
X82036793Y-95084221D01*
X82066005Y-95078410D01*
X82095215Y-95072600D01*
X82154785Y-95072600D01*
X82183995Y-95078410D01*
G37*
G36*
X115183995Y-95078410D02*
G01*
X115213207Y-95084221D01*
X115268240Y-95107017D01*
X115317769Y-95140111D01*
X115359889Y-95182231D01*
X115392983Y-95231760D01*
X115415779Y-95286793D01*
X115427400Y-95345216D01*
X115427400Y-95404784D01*
X115415779Y-95463207D01*
X115392983Y-95518240D01*
X115359889Y-95567769D01*
X115317769Y-95609889D01*
X115268240Y-95642983D01*
X115213207Y-95665779D01*
X115183995Y-95671590D01*
X115154785Y-95677400D01*
X115095215Y-95677400D01*
X115066005Y-95671590D01*
X115036793Y-95665779D01*
X114981760Y-95642983D01*
X114932231Y-95609889D01*
X114890111Y-95567769D01*
X114857017Y-95518240D01*
X114834221Y-95463207D01*
X114822600Y-95404784D01*
X114822600Y-95345216D01*
X114834221Y-95286793D01*
X114857017Y-95231760D01*
X114890111Y-95182231D01*
X114932231Y-95140111D01*
X114981760Y-95107017D01*
X115036793Y-95084221D01*
X115066005Y-95078410D01*
X115095215Y-95072600D01*
X115154785Y-95072600D01*
X115183995Y-95078410D01*
G37*
G36*
X106933995Y-95078410D02*
G01*
X106963207Y-95084221D01*
X107018240Y-95107017D01*
X107067769Y-95140111D01*
X107109889Y-95182231D01*
X107142983Y-95231760D01*
X107165779Y-95286793D01*
X107177400Y-95345216D01*
X107177400Y-95404784D01*
X107165779Y-95463207D01*
X107142983Y-95518240D01*
X107109889Y-95567769D01*
X107067769Y-95609889D01*
X107018240Y-95642983D01*
X106963207Y-95665779D01*
X106933995Y-95671590D01*
X106904785Y-95677400D01*
X106845215Y-95677400D01*
X106816005Y-95671590D01*
X106786793Y-95665779D01*
X106731760Y-95642983D01*
X106682231Y-95609889D01*
X106640111Y-95567769D01*
X106607017Y-95518240D01*
X106584221Y-95463207D01*
X106572600Y-95404784D01*
X106572600Y-95345216D01*
X106584221Y-95286793D01*
X106607017Y-95231760D01*
X106640111Y-95182231D01*
X106682231Y-95140111D01*
X106731760Y-95107017D01*
X106786793Y-95084221D01*
X106816005Y-95078410D01*
X106845215Y-95072600D01*
X106904785Y-95072600D01*
X106933995Y-95078410D01*
G37*
G36*
X117933995Y-95078410D02*
G01*
X117963207Y-95084221D01*
X118018240Y-95107017D01*
X118067769Y-95140111D01*
X118109889Y-95182231D01*
X118142983Y-95231760D01*
X118165779Y-95286793D01*
X118177400Y-95345216D01*
X118177400Y-95404784D01*
X118165779Y-95463207D01*
X118142983Y-95518240D01*
X118109889Y-95567769D01*
X118067769Y-95609889D01*
X118018240Y-95642983D01*
X117963207Y-95665779D01*
X117933995Y-95671590D01*
X117904785Y-95677400D01*
X117845215Y-95677400D01*
X117816005Y-95671590D01*
X117786793Y-95665779D01*
X117731760Y-95642983D01*
X117682231Y-95609889D01*
X117640111Y-95567769D01*
X117607017Y-95518240D01*
X117584221Y-95463207D01*
X117572600Y-95404784D01*
X117572600Y-95345216D01*
X117584221Y-95286793D01*
X117607017Y-95231760D01*
X117640111Y-95182231D01*
X117682231Y-95140111D01*
X117731760Y-95107017D01*
X117786793Y-95084221D01*
X117816005Y-95078410D01*
X117845215Y-95072600D01*
X117904785Y-95072600D01*
X117933995Y-95078410D01*
G37*
G36*
X112433995Y-95078410D02*
G01*
X112463207Y-95084221D01*
X112518240Y-95107017D01*
X112567769Y-95140111D01*
X112609889Y-95182231D01*
X112642983Y-95231760D01*
X112665779Y-95286793D01*
X112677400Y-95345216D01*
X112677400Y-95404784D01*
X112665779Y-95463207D01*
X112642983Y-95518240D01*
X112609889Y-95567769D01*
X112567769Y-95609889D01*
X112518240Y-95642983D01*
X112463207Y-95665779D01*
X112433995Y-95671590D01*
X112404785Y-95677400D01*
X112345215Y-95677400D01*
X112316005Y-95671590D01*
X112286793Y-95665779D01*
X112231760Y-95642983D01*
X112182231Y-95609889D01*
X112140111Y-95567769D01*
X112107017Y-95518240D01*
X112084221Y-95463207D01*
X112072600Y-95404784D01*
X112072600Y-95345216D01*
X112084221Y-95286793D01*
X112107017Y-95231760D01*
X112140111Y-95182231D01*
X112182231Y-95140111D01*
X112231760Y-95107017D01*
X112286793Y-95084221D01*
X112316005Y-95078410D01*
X112345215Y-95072600D01*
X112404785Y-95072600D01*
X112433995Y-95078410D01*
G37*
G36*
X109683995Y-95078410D02*
G01*
X109713207Y-95084221D01*
X109768240Y-95107017D01*
X109817769Y-95140111D01*
X109859889Y-95182231D01*
X109892983Y-95231760D01*
X109915779Y-95286793D01*
X109927400Y-95345216D01*
X109927400Y-95404784D01*
X109915779Y-95463207D01*
X109892983Y-95518240D01*
X109859889Y-95567769D01*
X109817769Y-95609889D01*
X109768240Y-95642983D01*
X109713207Y-95665779D01*
X109683995Y-95671590D01*
X109654785Y-95677400D01*
X109595215Y-95677400D01*
X109566005Y-95671590D01*
X109536793Y-95665779D01*
X109481760Y-95642983D01*
X109432231Y-95609889D01*
X109390111Y-95567769D01*
X109357017Y-95518240D01*
X109334221Y-95463207D01*
X109322600Y-95404784D01*
X109322600Y-95345216D01*
X109334221Y-95286793D01*
X109357017Y-95231760D01*
X109390111Y-95182231D01*
X109432231Y-95140111D01*
X109481760Y-95107017D01*
X109536793Y-95084221D01*
X109566005Y-95078410D01*
X109595215Y-95072600D01*
X109654785Y-95072600D01*
X109683995Y-95078410D01*
G37*
G36*
X78058995Y-95078410D02*
G01*
X78088207Y-95084221D01*
X78143240Y-95107017D01*
X78192769Y-95140111D01*
X78234889Y-95182231D01*
X78267983Y-95231760D01*
X78290779Y-95286793D01*
X78302400Y-95345216D01*
X78302400Y-95404784D01*
X78290779Y-95463207D01*
X78267983Y-95518240D01*
X78234889Y-95567769D01*
X78192769Y-95609889D01*
X78143240Y-95642983D01*
X78088207Y-95665779D01*
X78058995Y-95671590D01*
X78029785Y-95677400D01*
X77970215Y-95677400D01*
X77941005Y-95671590D01*
X77911793Y-95665779D01*
X77856760Y-95642983D01*
X77807231Y-95609889D01*
X77765111Y-95567769D01*
X77732017Y-95518240D01*
X77709221Y-95463207D01*
X77697600Y-95404784D01*
X77697600Y-95345216D01*
X77709221Y-95286793D01*
X77732017Y-95231760D01*
X77765111Y-95182231D01*
X77807231Y-95140111D01*
X77856760Y-95107017D01*
X77911793Y-95084221D01*
X77941005Y-95078410D01*
X77970215Y-95072600D01*
X78029785Y-95072600D01*
X78058995Y-95078410D01*
G37*
G36*
X101433995Y-95078410D02*
G01*
X101463207Y-95084221D01*
X101518240Y-95107017D01*
X101567769Y-95140111D01*
X101609889Y-95182231D01*
X101642983Y-95231760D01*
X101665779Y-95286793D01*
X101677400Y-95345216D01*
X101677400Y-95404784D01*
X101665779Y-95463207D01*
X101642983Y-95518240D01*
X101609889Y-95567769D01*
X101567769Y-95609889D01*
X101518240Y-95642983D01*
X101463207Y-95665779D01*
X101433995Y-95671590D01*
X101404785Y-95677400D01*
X101345215Y-95677400D01*
X101316005Y-95671590D01*
X101286793Y-95665779D01*
X101231760Y-95642983D01*
X101182231Y-95609889D01*
X101140111Y-95567769D01*
X101107017Y-95518240D01*
X101084221Y-95463207D01*
X101072600Y-95404784D01*
X101072600Y-95345216D01*
X101084221Y-95286793D01*
X101107017Y-95231760D01*
X101140111Y-95182231D01*
X101182231Y-95140111D01*
X101231760Y-95107017D01*
X101286793Y-95084221D01*
X101316005Y-95078410D01*
X101345215Y-95072600D01*
X101404785Y-95072600D01*
X101433995Y-95078410D01*
G37*
G36*
X122058995Y-95078410D02*
G01*
X122088207Y-95084221D01*
X122143240Y-95107017D01*
X122192769Y-95140111D01*
X122234889Y-95182231D01*
X122267983Y-95231760D01*
X122290779Y-95286793D01*
X122302400Y-95345216D01*
X122302400Y-95404784D01*
X122290779Y-95463207D01*
X122267983Y-95518240D01*
X122234889Y-95567769D01*
X122192769Y-95609889D01*
X122143240Y-95642983D01*
X122088207Y-95665779D01*
X122058995Y-95671590D01*
X122029785Y-95677400D01*
X121970215Y-95677400D01*
X121941005Y-95671590D01*
X121911793Y-95665779D01*
X121856760Y-95642983D01*
X121807231Y-95609889D01*
X121765111Y-95567769D01*
X121732017Y-95518240D01*
X121709221Y-95463207D01*
X121697600Y-95404784D01*
X121697600Y-95345216D01*
X121709221Y-95286793D01*
X121732017Y-95231760D01*
X121765111Y-95182231D01*
X121807231Y-95140111D01*
X121856760Y-95107017D01*
X121911793Y-95084221D01*
X121941005Y-95078410D01*
X121970215Y-95072600D01*
X122029785Y-95072600D01*
X122058995Y-95078410D01*
G37*
G36*
X104183995Y-95078410D02*
G01*
X104213207Y-95084221D01*
X104268240Y-95107017D01*
X104317769Y-95140111D01*
X104359889Y-95182231D01*
X104392983Y-95231760D01*
X104415779Y-95286793D01*
X104427400Y-95345216D01*
X104427400Y-95404784D01*
X104415779Y-95463207D01*
X104392983Y-95518240D01*
X104359889Y-95567769D01*
X104317769Y-95609889D01*
X104268240Y-95642983D01*
X104213207Y-95665779D01*
X104183995Y-95671590D01*
X104154785Y-95677400D01*
X104095215Y-95677400D01*
X104066005Y-95671590D01*
X104036793Y-95665779D01*
X103981760Y-95642983D01*
X103932231Y-95609889D01*
X103890111Y-95567769D01*
X103857017Y-95518240D01*
X103834221Y-95463207D01*
X103822600Y-95404784D01*
X103822600Y-95345216D01*
X103834221Y-95286793D01*
X103857017Y-95231760D01*
X103890111Y-95182231D01*
X103932231Y-95140111D01*
X103981760Y-95107017D01*
X104036793Y-95084221D01*
X104066005Y-95078410D01*
X104095215Y-95072600D01*
X104154785Y-95072600D01*
X104183995Y-95078410D01*
G37*
G36*
X93183996Y-92328411D02*
G01*
X93213207Y-92334221D01*
X93268240Y-92357017D01*
X93317769Y-92390111D01*
X93359889Y-92432231D01*
X93392983Y-92481760D01*
X93415779Y-92536793D01*
X93427400Y-92595216D01*
X93427400Y-92654784D01*
X93415779Y-92713207D01*
X93392983Y-92768240D01*
X93359889Y-92817769D01*
X93317769Y-92859889D01*
X93268240Y-92892983D01*
X93213207Y-92915779D01*
X93183996Y-92921589D01*
X93154785Y-92927400D01*
X93095215Y-92927400D01*
X93066004Y-92921589D01*
X93036793Y-92915779D01*
X92981760Y-92892983D01*
X92932231Y-92859889D01*
X92890111Y-92817769D01*
X92857017Y-92768240D01*
X92834221Y-92713207D01*
X92822600Y-92654784D01*
X92822600Y-92595216D01*
X92834221Y-92536793D01*
X92857017Y-92481760D01*
X92890111Y-92432231D01*
X92932231Y-92390111D01*
X92981760Y-92357017D01*
X93036793Y-92334221D01*
X93066005Y-92328410D01*
X93095215Y-92322600D01*
X93154785Y-92322600D01*
X93183996Y-92328411D01*
G37*
G36*
X82183996Y-92328411D02*
G01*
X82213207Y-92334221D01*
X82268240Y-92357017D01*
X82317769Y-92390111D01*
X82359889Y-92432231D01*
X82392983Y-92481760D01*
X82415779Y-92536793D01*
X82427400Y-92595216D01*
X82427400Y-92654784D01*
X82415779Y-92713207D01*
X82392983Y-92768240D01*
X82359889Y-92817769D01*
X82317769Y-92859889D01*
X82268240Y-92892983D01*
X82213207Y-92915779D01*
X82183996Y-92921589D01*
X82154785Y-92927400D01*
X82095215Y-92927400D01*
X82066004Y-92921589D01*
X82036793Y-92915779D01*
X81981760Y-92892983D01*
X81932231Y-92859889D01*
X81890111Y-92817769D01*
X81857017Y-92768240D01*
X81834221Y-92713207D01*
X81822600Y-92654784D01*
X81822600Y-92595216D01*
X81834221Y-92536793D01*
X81857017Y-92481760D01*
X81890111Y-92432231D01*
X81932231Y-92390111D01*
X81981760Y-92357017D01*
X82036793Y-92334221D01*
X82066005Y-92328410D01*
X82095215Y-92322600D01*
X82154785Y-92322600D01*
X82183996Y-92328411D01*
G37*
G36*
X90433996Y-92328411D02*
G01*
X90463207Y-92334221D01*
X90518240Y-92357017D01*
X90567769Y-92390111D01*
X90609889Y-92432231D01*
X90642983Y-92481760D01*
X90665779Y-92536793D01*
X90677400Y-92595216D01*
X90677400Y-92654784D01*
X90665779Y-92713207D01*
X90642983Y-92768240D01*
X90609889Y-92817769D01*
X90567769Y-92859889D01*
X90518240Y-92892983D01*
X90463207Y-92915779D01*
X90433996Y-92921589D01*
X90404785Y-92927400D01*
X90345215Y-92927400D01*
X90316004Y-92921589D01*
X90286793Y-92915779D01*
X90231760Y-92892983D01*
X90182231Y-92859889D01*
X90140111Y-92817769D01*
X90107017Y-92768240D01*
X90084221Y-92713207D01*
X90072600Y-92654784D01*
X90072600Y-92595216D01*
X90084221Y-92536793D01*
X90107017Y-92481760D01*
X90140111Y-92432231D01*
X90182231Y-92390111D01*
X90231760Y-92357017D01*
X90286793Y-92334221D01*
X90316005Y-92328410D01*
X90345215Y-92322600D01*
X90404785Y-92322600D01*
X90433996Y-92328411D01*
G37*
G36*
X87683996Y-92328411D02*
G01*
X87713207Y-92334221D01*
X87768240Y-92357017D01*
X87817769Y-92390111D01*
X87859889Y-92432231D01*
X87892983Y-92481760D01*
X87915779Y-92536793D01*
X87927400Y-92595216D01*
X87927400Y-92654784D01*
X87915779Y-92713207D01*
X87892983Y-92768240D01*
X87859889Y-92817769D01*
X87817769Y-92859889D01*
X87768240Y-92892983D01*
X87713207Y-92915779D01*
X87683996Y-92921589D01*
X87654785Y-92927400D01*
X87595215Y-92927400D01*
X87566004Y-92921589D01*
X87536793Y-92915779D01*
X87481760Y-92892983D01*
X87432231Y-92859889D01*
X87390111Y-92817769D01*
X87357017Y-92768240D01*
X87334221Y-92713207D01*
X87322600Y-92654784D01*
X87322600Y-92595216D01*
X87334221Y-92536793D01*
X87357017Y-92481760D01*
X87390111Y-92432231D01*
X87432231Y-92390111D01*
X87481760Y-92357017D01*
X87536793Y-92334221D01*
X87566005Y-92328410D01*
X87595215Y-92322600D01*
X87654785Y-92322600D01*
X87683996Y-92328411D01*
G37*
G36*
X84933996Y-92328411D02*
G01*
X84963207Y-92334221D01*
X85018240Y-92357017D01*
X85067769Y-92390111D01*
X85109889Y-92432231D01*
X85142983Y-92481760D01*
X85165779Y-92536793D01*
X85177400Y-92595216D01*
X85177400Y-92654784D01*
X85165779Y-92713207D01*
X85142983Y-92768240D01*
X85109889Y-92817769D01*
X85067769Y-92859889D01*
X85018240Y-92892983D01*
X84963207Y-92915779D01*
X84933996Y-92921589D01*
X84904785Y-92927400D01*
X84845215Y-92927400D01*
X84816004Y-92921589D01*
X84786793Y-92915779D01*
X84731760Y-92892983D01*
X84682231Y-92859889D01*
X84640111Y-92817769D01*
X84607017Y-92768240D01*
X84584221Y-92713207D01*
X84572600Y-92654784D01*
X84572600Y-92595216D01*
X84584221Y-92536793D01*
X84607017Y-92481760D01*
X84640111Y-92432231D01*
X84682231Y-92390111D01*
X84731760Y-92357017D01*
X84786793Y-92334221D01*
X84816005Y-92328410D01*
X84845215Y-92322600D01*
X84904785Y-92322600D01*
X84933996Y-92328411D01*
G37*
G36*
X79433996Y-92328411D02*
G01*
X79463207Y-92334221D01*
X79518240Y-92357017D01*
X79567769Y-92390111D01*
X79609889Y-92432231D01*
X79642983Y-92481760D01*
X79665779Y-92536793D01*
X79677400Y-92595216D01*
X79677400Y-92654784D01*
X79665779Y-92713207D01*
X79642983Y-92768240D01*
X79609889Y-92817769D01*
X79567769Y-92859889D01*
X79518240Y-92892983D01*
X79463207Y-92915779D01*
X79433996Y-92921589D01*
X79404785Y-92927400D01*
X79345215Y-92927400D01*
X79316004Y-92921589D01*
X79286793Y-92915779D01*
X79231760Y-92892983D01*
X79182231Y-92859889D01*
X79140111Y-92817769D01*
X79107017Y-92768240D01*
X79084221Y-92713207D01*
X79072600Y-92654784D01*
X79072600Y-92595216D01*
X79084221Y-92536793D01*
X79107017Y-92481760D01*
X79140111Y-92432231D01*
X79182231Y-92390111D01*
X79231760Y-92357017D01*
X79286793Y-92334221D01*
X79316005Y-92328410D01*
X79345215Y-92322600D01*
X79404785Y-92322600D01*
X79433996Y-92328411D01*
G37*
G36*
X76683996Y-92328411D02*
G01*
X76713207Y-92334221D01*
X76768240Y-92357017D01*
X76817769Y-92390111D01*
X76859889Y-92432231D01*
X76892983Y-92481760D01*
X76915779Y-92536793D01*
X76927400Y-92595216D01*
X76927400Y-92654784D01*
X76915779Y-92713207D01*
X76892983Y-92768240D01*
X76859889Y-92817769D01*
X76817769Y-92859889D01*
X76768240Y-92892983D01*
X76713207Y-92915779D01*
X76683996Y-92921589D01*
X76654785Y-92927400D01*
X76595215Y-92927400D01*
X76566004Y-92921589D01*
X76536793Y-92915779D01*
X76481760Y-92892983D01*
X76432231Y-92859889D01*
X76390111Y-92817769D01*
X76357017Y-92768240D01*
X76334221Y-92713207D01*
X76322600Y-92654784D01*
X76322600Y-92595216D01*
X76334221Y-92536793D01*
X76357017Y-92481760D01*
X76390111Y-92432231D01*
X76432231Y-92390111D01*
X76481760Y-92357017D01*
X76536793Y-92334221D01*
X76566005Y-92328410D01*
X76595215Y-92322600D01*
X76654785Y-92322600D01*
X76683996Y-92328411D01*
G37*
G36*
X72558996Y-92328411D02*
G01*
X72588207Y-92334221D01*
X72643240Y-92357017D01*
X72692769Y-92390111D01*
X72734889Y-92432231D01*
X72767983Y-92481760D01*
X72790779Y-92536793D01*
X72802400Y-92595216D01*
X72802400Y-92654784D01*
X72790779Y-92713207D01*
X72767983Y-92768240D01*
X72734889Y-92817769D01*
X72692769Y-92859889D01*
X72643240Y-92892983D01*
X72588207Y-92915779D01*
X72558996Y-92921589D01*
X72529785Y-92927400D01*
X72470215Y-92927400D01*
X72441004Y-92921589D01*
X72411793Y-92915779D01*
X72356760Y-92892983D01*
X72307231Y-92859889D01*
X72265111Y-92817769D01*
X72232017Y-92768240D01*
X72209221Y-92713207D01*
X72197600Y-92654784D01*
X72197600Y-92595216D01*
X72209221Y-92536793D01*
X72232017Y-92481760D01*
X72265111Y-92432231D01*
X72307231Y-92390111D01*
X72356760Y-92357017D01*
X72411793Y-92334221D01*
X72441004Y-92328411D01*
X72470215Y-92322600D01*
X72529785Y-92322600D01*
X72558996Y-92328411D01*
G37*
G36*
X115183996Y-92328411D02*
G01*
X115213207Y-92334221D01*
X115268240Y-92357017D01*
X115317769Y-92390111D01*
X115359889Y-92432231D01*
X115392983Y-92481760D01*
X115415779Y-92536793D01*
X115427400Y-92595216D01*
X115427400Y-92654784D01*
X115415779Y-92713207D01*
X115392983Y-92768240D01*
X115359889Y-92817769D01*
X115317769Y-92859889D01*
X115268240Y-92892983D01*
X115213207Y-92915779D01*
X115183996Y-92921589D01*
X115154785Y-92927400D01*
X115095215Y-92927400D01*
X115066004Y-92921589D01*
X115036793Y-92915779D01*
X114981760Y-92892983D01*
X114932231Y-92859889D01*
X114890111Y-92817769D01*
X114857017Y-92768240D01*
X114834221Y-92713207D01*
X114822600Y-92654784D01*
X114822600Y-92595216D01*
X114834221Y-92536793D01*
X114857017Y-92481760D01*
X114890111Y-92432231D01*
X114932231Y-92390111D01*
X114981760Y-92357017D01*
X115036793Y-92334221D01*
X115066005Y-92328410D01*
X115095215Y-92322600D01*
X115154785Y-92322600D01*
X115183996Y-92328411D01*
G37*
G36*
X117933996Y-92328411D02*
G01*
X117963207Y-92334221D01*
X118018240Y-92357017D01*
X118067769Y-92390111D01*
X118109889Y-92432231D01*
X118142983Y-92481760D01*
X118165779Y-92536793D01*
X118177400Y-92595216D01*
X118177400Y-92654784D01*
X118165779Y-92713207D01*
X118142983Y-92768240D01*
X118109889Y-92817769D01*
X118067769Y-92859889D01*
X118018240Y-92892983D01*
X117963207Y-92915779D01*
X117933996Y-92921589D01*
X117904785Y-92927400D01*
X117845215Y-92927400D01*
X117816004Y-92921589D01*
X117786793Y-92915779D01*
X117731760Y-92892983D01*
X117682231Y-92859889D01*
X117640111Y-92817769D01*
X117607017Y-92768240D01*
X117584221Y-92713207D01*
X117572600Y-92654784D01*
X117572600Y-92595216D01*
X117584221Y-92536793D01*
X117607017Y-92481760D01*
X117640111Y-92432231D01*
X117682231Y-92390111D01*
X117731760Y-92357017D01*
X117786793Y-92334221D01*
X117816005Y-92328410D01*
X117845215Y-92322600D01*
X117904785Y-92322600D01*
X117933996Y-92328411D01*
G37*
G36*
X98683996Y-92328411D02*
G01*
X98713207Y-92334221D01*
X98768240Y-92357017D01*
X98817769Y-92390111D01*
X98859889Y-92432231D01*
X98892983Y-92481760D01*
X98915779Y-92536793D01*
X98927400Y-92595216D01*
X98927400Y-92654784D01*
X98915779Y-92713207D01*
X98892983Y-92768240D01*
X98859889Y-92817769D01*
X98817769Y-92859889D01*
X98768240Y-92892983D01*
X98713207Y-92915779D01*
X98683996Y-92921589D01*
X98654785Y-92927400D01*
X98595215Y-92927400D01*
X98566004Y-92921589D01*
X98536793Y-92915779D01*
X98481760Y-92892983D01*
X98432231Y-92859889D01*
X98390111Y-92817769D01*
X98357017Y-92768240D01*
X98334221Y-92713207D01*
X98322600Y-92654784D01*
X98322600Y-92595216D01*
X98334221Y-92536793D01*
X98357017Y-92481760D01*
X98390111Y-92432231D01*
X98432231Y-92390111D01*
X98481760Y-92357017D01*
X98536793Y-92334221D01*
X98566005Y-92328410D01*
X98595215Y-92322600D01*
X98654785Y-92322600D01*
X98683996Y-92328411D01*
G37*
G36*
X95933996Y-92328411D02*
G01*
X95963207Y-92334221D01*
X96018240Y-92357017D01*
X96067769Y-92390111D01*
X96109889Y-92432231D01*
X96142983Y-92481760D01*
X96165779Y-92536793D01*
X96177400Y-92595216D01*
X96177400Y-92654784D01*
X96165779Y-92713207D01*
X96142983Y-92768240D01*
X96109889Y-92817769D01*
X96067769Y-92859889D01*
X96018240Y-92892983D01*
X95963207Y-92915779D01*
X95933996Y-92921589D01*
X95904785Y-92927400D01*
X95845215Y-92927400D01*
X95816004Y-92921589D01*
X95786793Y-92915779D01*
X95731760Y-92892983D01*
X95682231Y-92859889D01*
X95640111Y-92817769D01*
X95607017Y-92768240D01*
X95584221Y-92713207D01*
X95572600Y-92654784D01*
X95572600Y-92595216D01*
X95584221Y-92536793D01*
X95607017Y-92481760D01*
X95640111Y-92432231D01*
X95682231Y-92390111D01*
X95731760Y-92357017D01*
X95786793Y-92334221D01*
X95816005Y-92328410D01*
X95845215Y-92322600D01*
X95904785Y-92322600D01*
X95933996Y-92328411D01*
G37*
G36*
X112433996Y-92328411D02*
G01*
X112463207Y-92334221D01*
X112518240Y-92357017D01*
X112567769Y-92390111D01*
X112609889Y-92432231D01*
X112642983Y-92481760D01*
X112665779Y-92536793D01*
X112677400Y-92595216D01*
X112677400Y-92654784D01*
X112665779Y-92713207D01*
X112642983Y-92768240D01*
X112609889Y-92817769D01*
X112567769Y-92859889D01*
X112518240Y-92892983D01*
X112463207Y-92915779D01*
X112433996Y-92921589D01*
X112404785Y-92927400D01*
X112345215Y-92927400D01*
X112316004Y-92921589D01*
X112286793Y-92915779D01*
X112231760Y-92892983D01*
X112182231Y-92859889D01*
X112140111Y-92817769D01*
X112107017Y-92768240D01*
X112084221Y-92713207D01*
X112072600Y-92654784D01*
X112072600Y-92595216D01*
X112084221Y-92536793D01*
X112107017Y-92481760D01*
X112140111Y-92432231D01*
X112182231Y-92390111D01*
X112231760Y-92357017D01*
X112286793Y-92334221D01*
X112316005Y-92328410D01*
X112345215Y-92322600D01*
X112404785Y-92322600D01*
X112433996Y-92328411D01*
G37*
G36*
X120683996Y-92328411D02*
G01*
X120713207Y-92334221D01*
X120768240Y-92357017D01*
X120817769Y-92390111D01*
X120859889Y-92432231D01*
X120892983Y-92481760D01*
X120915779Y-92536793D01*
X120927400Y-92595216D01*
X120927400Y-92654784D01*
X120915779Y-92713207D01*
X120892983Y-92768240D01*
X120859889Y-92817769D01*
X120817769Y-92859889D01*
X120768240Y-92892983D01*
X120713207Y-92915779D01*
X120683996Y-92921589D01*
X120654785Y-92927400D01*
X120595215Y-92927400D01*
X120566004Y-92921589D01*
X120536793Y-92915779D01*
X120481760Y-92892983D01*
X120432231Y-92859889D01*
X120390111Y-92817769D01*
X120357017Y-92768240D01*
X120334221Y-92713207D01*
X120322600Y-92654784D01*
X120322600Y-92595216D01*
X120334221Y-92536793D01*
X120357017Y-92481760D01*
X120390111Y-92432231D01*
X120432231Y-92390111D01*
X120481760Y-92357017D01*
X120536793Y-92334221D01*
X120566005Y-92328410D01*
X120595215Y-92322600D01*
X120654785Y-92322600D01*
X120683996Y-92328411D01*
G37*
G36*
X101433996Y-92328411D02*
G01*
X101463207Y-92334221D01*
X101518240Y-92357017D01*
X101567769Y-92390111D01*
X101609889Y-92432231D01*
X101642983Y-92481760D01*
X101665779Y-92536793D01*
X101677400Y-92595216D01*
X101677400Y-92654784D01*
X101665779Y-92713207D01*
X101642983Y-92768240D01*
X101609889Y-92817769D01*
X101567769Y-92859889D01*
X101518240Y-92892983D01*
X101463207Y-92915779D01*
X101433996Y-92921589D01*
X101404785Y-92927400D01*
X101345215Y-92927400D01*
X101316004Y-92921589D01*
X101286793Y-92915779D01*
X101231760Y-92892983D01*
X101182231Y-92859889D01*
X101140111Y-92817769D01*
X101107017Y-92768240D01*
X101084221Y-92713207D01*
X101072600Y-92654784D01*
X101072600Y-92595216D01*
X101084221Y-92536793D01*
X101107017Y-92481760D01*
X101140111Y-92432231D01*
X101182231Y-92390111D01*
X101231760Y-92357017D01*
X101286793Y-92334221D01*
X101316005Y-92328410D01*
X101345215Y-92322600D01*
X101404785Y-92322600D01*
X101433996Y-92328411D01*
G37*
G36*
X104183996Y-92328411D02*
G01*
X104213207Y-92334221D01*
X104268240Y-92357017D01*
X104317769Y-92390111D01*
X104359889Y-92432231D01*
X104392983Y-92481760D01*
X104415779Y-92536793D01*
X104427400Y-92595216D01*
X104427400Y-92654784D01*
X104415779Y-92713207D01*
X104392983Y-92768240D01*
X104359889Y-92817769D01*
X104317769Y-92859889D01*
X104268240Y-92892983D01*
X104213207Y-92915779D01*
X104183996Y-92921589D01*
X104154785Y-92927400D01*
X104095215Y-92927400D01*
X104066004Y-92921589D01*
X104036793Y-92915779D01*
X103981760Y-92892983D01*
X103932231Y-92859889D01*
X103890111Y-92817769D01*
X103857017Y-92768240D01*
X103834221Y-92713207D01*
X103822600Y-92654784D01*
X103822600Y-92595216D01*
X103834221Y-92536793D01*
X103857017Y-92481760D01*
X103890111Y-92432231D01*
X103932231Y-92390111D01*
X103981760Y-92357017D01*
X104036793Y-92334221D01*
X104066005Y-92328410D01*
X104095215Y-92322600D01*
X104154785Y-92322600D01*
X104183996Y-92328411D01*
G37*
G36*
X106933996Y-92328411D02*
G01*
X106963207Y-92334221D01*
X107018240Y-92357017D01*
X107067769Y-92390111D01*
X107109889Y-92432231D01*
X107142983Y-92481760D01*
X107165779Y-92536793D01*
X107177400Y-92595216D01*
X107177400Y-92654784D01*
X107165779Y-92713207D01*
X107142983Y-92768240D01*
X107109889Y-92817769D01*
X107067769Y-92859889D01*
X107018240Y-92892983D01*
X106963207Y-92915779D01*
X106933996Y-92921589D01*
X106904785Y-92927400D01*
X106845215Y-92927400D01*
X106816004Y-92921589D01*
X106786793Y-92915779D01*
X106731760Y-92892983D01*
X106682231Y-92859889D01*
X106640111Y-92817769D01*
X106607017Y-92768240D01*
X106584221Y-92713207D01*
X106572600Y-92654784D01*
X106572600Y-92595216D01*
X106584221Y-92536793D01*
X106607017Y-92481760D01*
X106640111Y-92432231D01*
X106682231Y-92390111D01*
X106731760Y-92357017D01*
X106786793Y-92334221D01*
X106816005Y-92328410D01*
X106845215Y-92322600D01*
X106904785Y-92322600D01*
X106933996Y-92328411D01*
G37*
G36*
X123433996Y-92328411D02*
G01*
X123463207Y-92334221D01*
X123518240Y-92357017D01*
X123567769Y-92390111D01*
X123609889Y-92432231D01*
X123642983Y-92481760D01*
X123665779Y-92536793D01*
X123677400Y-92595216D01*
X123677400Y-92654784D01*
X123665779Y-92713207D01*
X123642983Y-92768240D01*
X123609889Y-92817769D01*
X123567769Y-92859889D01*
X123518240Y-92892983D01*
X123463207Y-92915779D01*
X123433996Y-92921589D01*
X123404785Y-92927400D01*
X123345215Y-92927400D01*
X123316004Y-92921589D01*
X123286793Y-92915779D01*
X123231760Y-92892983D01*
X123182231Y-92859889D01*
X123140111Y-92817769D01*
X123107017Y-92768240D01*
X123084221Y-92713207D01*
X123072600Y-92654784D01*
X123072600Y-92595216D01*
X123084221Y-92536793D01*
X123107017Y-92481760D01*
X123140111Y-92432231D01*
X123182231Y-92390111D01*
X123231760Y-92357017D01*
X123286793Y-92334221D01*
X123316005Y-92328410D01*
X123345215Y-92322600D01*
X123404785Y-92322600D01*
X123433996Y-92328411D01*
G37*
G36*
X109683996Y-92328411D02*
G01*
X109713207Y-92334221D01*
X109768240Y-92357017D01*
X109817769Y-92390111D01*
X109859889Y-92432231D01*
X109892983Y-92481760D01*
X109915779Y-92536793D01*
X109927400Y-92595216D01*
X109927400Y-92654784D01*
X109915779Y-92713207D01*
X109892983Y-92768240D01*
X109859889Y-92817769D01*
X109817769Y-92859889D01*
X109768240Y-92892983D01*
X109713207Y-92915779D01*
X109683996Y-92921589D01*
X109654785Y-92927400D01*
X109595215Y-92927400D01*
X109566004Y-92921589D01*
X109536793Y-92915779D01*
X109481760Y-92892983D01*
X109432231Y-92859889D01*
X109390111Y-92817769D01*
X109357017Y-92768240D01*
X109334221Y-92713207D01*
X109322600Y-92654784D01*
X109322600Y-92595216D01*
X109334221Y-92536793D01*
X109357017Y-92481760D01*
X109390111Y-92432231D01*
X109432231Y-92390111D01*
X109481760Y-92357017D01*
X109536793Y-92334221D01*
X109566005Y-92328410D01*
X109595215Y-92322600D01*
X109654785Y-92322600D01*
X109683996Y-92328411D01*
G37*
G36*
X127558996Y-92328411D02*
G01*
X127588207Y-92334221D01*
X127643240Y-92357017D01*
X127692769Y-92390111D01*
X127734889Y-92432231D01*
X127767983Y-92481760D01*
X127790779Y-92536793D01*
X127802400Y-92595216D01*
X127802400Y-92654784D01*
X127790779Y-92713207D01*
X127767983Y-92768240D01*
X127734889Y-92817769D01*
X127692769Y-92859889D01*
X127643240Y-92892983D01*
X127588207Y-92915779D01*
X127558996Y-92921589D01*
X127529785Y-92927400D01*
X127470215Y-92927400D01*
X127441004Y-92921589D01*
X127411793Y-92915779D01*
X127356760Y-92892983D01*
X127307231Y-92859889D01*
X127265111Y-92817769D01*
X127232017Y-92768240D01*
X127209221Y-92713207D01*
X127197600Y-92654784D01*
X127197600Y-92595216D01*
X127209221Y-92536793D01*
X127232017Y-92481760D01*
X127265111Y-92432231D01*
X127307231Y-92390111D01*
X127356760Y-92357017D01*
X127411793Y-92334221D01*
X127441005Y-92328410D01*
X127470215Y-92322600D01*
X127529785Y-92322600D01*
X127558996Y-92328411D01*
G37*
G36*
X117933995Y-89578410D02*
G01*
X117963207Y-89584221D01*
X118018240Y-89607017D01*
X118067769Y-89640111D01*
X118109889Y-89682231D01*
X118142983Y-89731760D01*
X118165779Y-89786793D01*
X118177400Y-89845216D01*
X118177400Y-89904784D01*
X118165779Y-89963207D01*
X118142983Y-90018240D01*
X118109889Y-90067769D01*
X118067769Y-90109889D01*
X118018240Y-90142983D01*
X117963207Y-90165779D01*
X117933996Y-90171589D01*
X117904785Y-90177400D01*
X117845215Y-90177400D01*
X117816004Y-90171589D01*
X117786793Y-90165779D01*
X117731760Y-90142983D01*
X117682231Y-90109889D01*
X117640111Y-90067769D01*
X117607017Y-90018240D01*
X117584221Y-89963207D01*
X117572600Y-89904784D01*
X117572600Y-89845216D01*
X117584221Y-89786793D01*
X117607017Y-89731760D01*
X117640111Y-89682231D01*
X117682231Y-89640111D01*
X117731760Y-89607017D01*
X117786793Y-89584221D01*
X117816004Y-89578411D01*
X117845215Y-89572600D01*
X117904785Y-89572600D01*
X117933995Y-89578410D01*
G37*
G36*
X115183995Y-89578410D02*
G01*
X115213207Y-89584221D01*
X115268240Y-89607017D01*
X115317769Y-89640111D01*
X115359889Y-89682231D01*
X115392983Y-89731760D01*
X115415779Y-89786793D01*
X115427400Y-89845216D01*
X115427400Y-89904784D01*
X115415779Y-89963207D01*
X115392983Y-90018240D01*
X115359889Y-90067769D01*
X115317769Y-90109889D01*
X115268240Y-90142983D01*
X115213207Y-90165779D01*
X115183996Y-90171589D01*
X115154785Y-90177400D01*
X115095215Y-90177400D01*
X115066004Y-90171589D01*
X115036793Y-90165779D01*
X114981760Y-90142983D01*
X114932231Y-90109889D01*
X114890111Y-90067769D01*
X114857017Y-90018240D01*
X114834221Y-89963207D01*
X114822600Y-89904784D01*
X114822600Y-89845216D01*
X114834221Y-89786793D01*
X114857017Y-89731760D01*
X114890111Y-89682231D01*
X114932231Y-89640111D01*
X114981760Y-89607017D01*
X115036793Y-89584221D01*
X115066004Y-89578411D01*
X115095215Y-89572600D01*
X115154785Y-89572600D01*
X115183995Y-89578410D01*
G37*
G36*
X101433995Y-89578410D02*
G01*
X101463207Y-89584221D01*
X101518240Y-89607017D01*
X101567769Y-89640111D01*
X101609889Y-89682231D01*
X101642983Y-89731760D01*
X101665779Y-89786793D01*
X101677400Y-89845216D01*
X101677400Y-89904784D01*
X101665779Y-89963207D01*
X101642983Y-90018240D01*
X101609889Y-90067769D01*
X101567769Y-90109889D01*
X101518240Y-90142983D01*
X101463207Y-90165779D01*
X101433996Y-90171589D01*
X101404785Y-90177400D01*
X101345215Y-90177400D01*
X101316004Y-90171589D01*
X101286793Y-90165779D01*
X101231760Y-90142983D01*
X101182231Y-90109889D01*
X101140111Y-90067769D01*
X101107017Y-90018240D01*
X101084221Y-89963207D01*
X101072600Y-89904784D01*
X101072600Y-89845216D01*
X101084221Y-89786793D01*
X101107017Y-89731760D01*
X101140111Y-89682231D01*
X101182231Y-89640111D01*
X101231760Y-89607017D01*
X101286793Y-89584221D01*
X101316004Y-89578411D01*
X101345215Y-89572600D01*
X101404785Y-89572600D01*
X101433995Y-89578410D01*
G37*
G36*
X104183995Y-89578410D02*
G01*
X104213207Y-89584221D01*
X104268240Y-89607017D01*
X104317769Y-89640111D01*
X104359889Y-89682231D01*
X104392983Y-89731760D01*
X104415779Y-89786793D01*
X104427400Y-89845216D01*
X104427400Y-89904784D01*
X104415779Y-89963207D01*
X104392983Y-90018240D01*
X104359889Y-90067769D01*
X104317769Y-90109889D01*
X104268240Y-90142983D01*
X104213207Y-90165779D01*
X104183996Y-90171589D01*
X104154785Y-90177400D01*
X104095215Y-90177400D01*
X104066004Y-90171589D01*
X104036793Y-90165779D01*
X103981760Y-90142983D01*
X103932231Y-90109889D01*
X103890111Y-90067769D01*
X103857017Y-90018240D01*
X103834221Y-89963207D01*
X103822600Y-89904784D01*
X103822600Y-89845216D01*
X103834221Y-89786793D01*
X103857017Y-89731760D01*
X103890111Y-89682231D01*
X103932231Y-89640111D01*
X103981760Y-89607017D01*
X104036793Y-89584221D01*
X104066004Y-89578411D01*
X104095215Y-89572600D01*
X104154785Y-89572600D01*
X104183995Y-89578410D01*
G37*
G36*
X106933995Y-89578410D02*
G01*
X106963207Y-89584221D01*
X107018240Y-89607017D01*
X107067769Y-89640111D01*
X107109889Y-89682231D01*
X107142983Y-89731760D01*
X107165779Y-89786793D01*
X107177400Y-89845216D01*
X107177400Y-89904784D01*
X107165779Y-89963207D01*
X107142983Y-90018240D01*
X107109889Y-90067769D01*
X107067769Y-90109889D01*
X107018240Y-90142983D01*
X106963207Y-90165779D01*
X106933996Y-90171589D01*
X106904785Y-90177400D01*
X106845215Y-90177400D01*
X106816004Y-90171589D01*
X106786793Y-90165779D01*
X106731760Y-90142983D01*
X106682231Y-90109889D01*
X106640111Y-90067769D01*
X106607017Y-90018240D01*
X106584221Y-89963207D01*
X106572600Y-89904784D01*
X106572600Y-89845216D01*
X106584221Y-89786793D01*
X106607017Y-89731760D01*
X106640111Y-89682231D01*
X106682231Y-89640111D01*
X106731760Y-89607017D01*
X106786793Y-89584221D01*
X106816004Y-89578411D01*
X106845215Y-89572600D01*
X106904785Y-89572600D01*
X106933995Y-89578410D01*
G37*
G36*
X109683995Y-89578410D02*
G01*
X109713207Y-89584221D01*
X109768240Y-89607017D01*
X109817769Y-89640111D01*
X109859889Y-89682231D01*
X109892983Y-89731760D01*
X109915779Y-89786793D01*
X109927400Y-89845216D01*
X109927400Y-89904784D01*
X109915779Y-89963207D01*
X109892983Y-90018240D01*
X109859889Y-90067769D01*
X109817769Y-90109889D01*
X109768240Y-90142983D01*
X109713207Y-90165779D01*
X109683996Y-90171589D01*
X109654785Y-90177400D01*
X109595215Y-90177400D01*
X109566004Y-90171589D01*
X109536793Y-90165779D01*
X109481760Y-90142983D01*
X109432231Y-90109889D01*
X109390111Y-90067769D01*
X109357017Y-90018240D01*
X109334221Y-89963207D01*
X109322600Y-89904784D01*
X109322600Y-89845216D01*
X109334221Y-89786793D01*
X109357017Y-89731760D01*
X109390111Y-89682231D01*
X109432231Y-89640111D01*
X109481760Y-89607017D01*
X109536793Y-89584221D01*
X109566004Y-89578411D01*
X109595215Y-89572600D01*
X109654785Y-89572600D01*
X109683995Y-89578410D01*
G37*
G36*
X122058995Y-89578410D02*
G01*
X122088207Y-89584221D01*
X122143240Y-89607017D01*
X122192769Y-89640111D01*
X122234889Y-89682231D01*
X122267983Y-89731760D01*
X122290779Y-89786793D01*
X122302400Y-89845216D01*
X122302400Y-89904784D01*
X122290779Y-89963207D01*
X122267983Y-90018240D01*
X122234889Y-90067769D01*
X122192769Y-90109889D01*
X122143240Y-90142983D01*
X122088207Y-90165779D01*
X122058996Y-90171589D01*
X122029785Y-90177400D01*
X121970215Y-90177400D01*
X121941004Y-90171589D01*
X121911793Y-90165779D01*
X121856760Y-90142983D01*
X121807231Y-90109889D01*
X121765111Y-90067769D01*
X121732017Y-90018240D01*
X121709221Y-89963207D01*
X121697600Y-89904784D01*
X121697600Y-89845216D01*
X121709221Y-89786793D01*
X121732017Y-89731760D01*
X121765111Y-89682231D01*
X121807231Y-89640111D01*
X121856760Y-89607017D01*
X121911793Y-89584221D01*
X121941004Y-89578411D01*
X121970215Y-89572600D01*
X122029785Y-89572600D01*
X122058995Y-89578410D01*
G37*
G36*
X112433995Y-89578410D02*
G01*
X112463207Y-89584221D01*
X112518240Y-89607017D01*
X112567769Y-89640111D01*
X112609889Y-89682231D01*
X112642983Y-89731760D01*
X112665779Y-89786793D01*
X112677400Y-89845216D01*
X112677400Y-89904784D01*
X112665779Y-89963207D01*
X112642983Y-90018240D01*
X112609889Y-90067769D01*
X112567769Y-90109889D01*
X112518240Y-90142983D01*
X112463207Y-90165779D01*
X112433996Y-90171589D01*
X112404785Y-90177400D01*
X112345215Y-90177400D01*
X112316004Y-90171589D01*
X112286793Y-90165779D01*
X112231760Y-90142983D01*
X112182231Y-90109889D01*
X112140111Y-90067769D01*
X112107017Y-90018240D01*
X112084221Y-89963207D01*
X112072600Y-89904784D01*
X112072600Y-89845216D01*
X112084221Y-89786793D01*
X112107017Y-89731760D01*
X112140111Y-89682231D01*
X112182231Y-89640111D01*
X112231760Y-89607017D01*
X112286793Y-89584221D01*
X112316004Y-89578411D01*
X112345215Y-89572600D01*
X112404785Y-89572600D01*
X112433995Y-89578410D01*
G37*
G36*
X98683995Y-89578410D02*
G01*
X98713207Y-89584221D01*
X98768240Y-89607017D01*
X98817769Y-89640111D01*
X98859889Y-89682231D01*
X98892983Y-89731760D01*
X98915779Y-89786793D01*
X98927400Y-89845216D01*
X98927400Y-89904784D01*
X98915779Y-89963207D01*
X98892983Y-90018240D01*
X98859889Y-90067769D01*
X98817769Y-90109889D01*
X98768240Y-90142983D01*
X98713207Y-90165779D01*
X98683996Y-90171589D01*
X98654785Y-90177400D01*
X98595215Y-90177400D01*
X98566004Y-90171589D01*
X98536793Y-90165779D01*
X98481760Y-90142983D01*
X98432231Y-90109889D01*
X98390111Y-90067769D01*
X98357017Y-90018240D01*
X98334221Y-89963207D01*
X98322600Y-89904784D01*
X98322600Y-89845216D01*
X98334221Y-89786793D01*
X98357017Y-89731760D01*
X98390111Y-89682231D01*
X98432231Y-89640111D01*
X98481760Y-89607017D01*
X98536793Y-89584221D01*
X98566004Y-89578411D01*
X98595215Y-89572600D01*
X98654785Y-89572600D01*
X98683995Y-89578410D01*
G37*
G36*
X95933995Y-89578410D02*
G01*
X95963207Y-89584221D01*
X96018240Y-89607017D01*
X96067769Y-89640111D01*
X96109889Y-89682231D01*
X96142983Y-89731760D01*
X96165779Y-89786793D01*
X96177400Y-89845216D01*
X96177400Y-89904784D01*
X96165779Y-89963207D01*
X96142983Y-90018240D01*
X96109889Y-90067769D01*
X96067769Y-90109889D01*
X96018240Y-90142983D01*
X95963207Y-90165779D01*
X95933996Y-90171589D01*
X95904785Y-90177400D01*
X95845215Y-90177400D01*
X95816004Y-90171589D01*
X95786793Y-90165779D01*
X95731760Y-90142983D01*
X95682231Y-90109889D01*
X95640111Y-90067769D01*
X95607017Y-90018240D01*
X95584221Y-89963207D01*
X95572600Y-89904784D01*
X95572600Y-89845216D01*
X95584221Y-89786793D01*
X95607017Y-89731760D01*
X95640111Y-89682231D01*
X95682231Y-89640111D01*
X95731760Y-89607017D01*
X95786793Y-89584221D01*
X95816004Y-89578411D01*
X95845215Y-89572600D01*
X95904785Y-89572600D01*
X95933995Y-89578410D01*
G37*
G36*
X93183995Y-89578410D02*
G01*
X93213207Y-89584221D01*
X93268240Y-89607017D01*
X93317769Y-89640111D01*
X93359889Y-89682231D01*
X93392983Y-89731760D01*
X93415779Y-89786793D01*
X93427400Y-89845216D01*
X93427400Y-89904784D01*
X93415779Y-89963207D01*
X93392983Y-90018240D01*
X93359889Y-90067769D01*
X93317769Y-90109889D01*
X93268240Y-90142983D01*
X93213207Y-90165779D01*
X93183996Y-90171589D01*
X93154785Y-90177400D01*
X93095215Y-90177400D01*
X93066004Y-90171589D01*
X93036793Y-90165779D01*
X92981760Y-90142983D01*
X92932231Y-90109889D01*
X92890111Y-90067769D01*
X92857017Y-90018240D01*
X92834221Y-89963207D01*
X92822600Y-89904784D01*
X92822600Y-89845216D01*
X92834221Y-89786793D01*
X92857017Y-89731760D01*
X92890111Y-89682231D01*
X92932231Y-89640111D01*
X92981760Y-89607017D01*
X93036793Y-89584221D01*
X93066004Y-89578411D01*
X93095215Y-89572600D01*
X93154785Y-89572600D01*
X93183995Y-89578410D01*
G37*
G36*
X78058995Y-89578410D02*
G01*
X78088207Y-89584221D01*
X78143240Y-89607017D01*
X78192769Y-89640111D01*
X78234889Y-89682231D01*
X78267983Y-89731760D01*
X78290779Y-89786793D01*
X78302400Y-89845216D01*
X78302400Y-89904784D01*
X78290779Y-89963207D01*
X78267983Y-90018240D01*
X78234889Y-90067769D01*
X78192769Y-90109889D01*
X78143240Y-90142983D01*
X78088207Y-90165779D01*
X78058996Y-90171589D01*
X78029785Y-90177400D01*
X77970215Y-90177400D01*
X77941004Y-90171589D01*
X77911793Y-90165779D01*
X77856760Y-90142983D01*
X77807231Y-90109889D01*
X77765111Y-90067769D01*
X77732017Y-90018240D01*
X77709221Y-89963207D01*
X77697600Y-89904784D01*
X77697600Y-89845216D01*
X77709221Y-89786793D01*
X77732017Y-89731760D01*
X77765111Y-89682231D01*
X77807231Y-89640111D01*
X77856760Y-89607017D01*
X77911793Y-89584221D01*
X77941005Y-89578410D01*
X77970215Y-89572600D01*
X78029785Y-89572600D01*
X78058995Y-89578410D01*
G37*
G36*
X82183995Y-89578410D02*
G01*
X82213207Y-89584221D01*
X82268240Y-89607017D01*
X82317769Y-89640111D01*
X82359889Y-89682231D01*
X82392983Y-89731760D01*
X82415779Y-89786793D01*
X82427400Y-89845216D01*
X82427400Y-89904784D01*
X82415779Y-89963207D01*
X82392983Y-90018240D01*
X82359889Y-90067769D01*
X82317769Y-90109889D01*
X82268240Y-90142983D01*
X82213207Y-90165779D01*
X82183996Y-90171589D01*
X82154785Y-90177400D01*
X82095215Y-90177400D01*
X82066004Y-90171589D01*
X82036793Y-90165779D01*
X81981760Y-90142983D01*
X81932231Y-90109889D01*
X81890111Y-90067769D01*
X81857017Y-90018240D01*
X81834221Y-89963207D01*
X81822600Y-89904784D01*
X81822600Y-89845216D01*
X81834221Y-89786793D01*
X81857017Y-89731760D01*
X81890111Y-89682231D01*
X81932231Y-89640111D01*
X81981760Y-89607017D01*
X82036793Y-89584221D01*
X82066005Y-89578410D01*
X82095215Y-89572600D01*
X82154785Y-89572600D01*
X82183995Y-89578410D01*
G37*
G36*
X84933995Y-89578410D02*
G01*
X84963207Y-89584221D01*
X85018240Y-89607017D01*
X85067769Y-89640111D01*
X85109889Y-89682231D01*
X85142983Y-89731760D01*
X85165779Y-89786793D01*
X85177400Y-89845216D01*
X85177400Y-89904784D01*
X85165779Y-89963207D01*
X85142983Y-90018240D01*
X85109889Y-90067769D01*
X85067769Y-90109889D01*
X85018240Y-90142983D01*
X84963207Y-90165779D01*
X84933996Y-90171589D01*
X84904785Y-90177400D01*
X84845215Y-90177400D01*
X84816004Y-90171589D01*
X84786793Y-90165779D01*
X84731760Y-90142983D01*
X84682231Y-90109889D01*
X84640111Y-90067769D01*
X84607017Y-90018240D01*
X84584221Y-89963207D01*
X84572600Y-89904784D01*
X84572600Y-89845216D01*
X84584221Y-89786793D01*
X84607017Y-89731760D01*
X84640111Y-89682231D01*
X84682231Y-89640111D01*
X84731760Y-89607017D01*
X84786793Y-89584221D01*
X84816005Y-89578410D01*
X84845215Y-89572600D01*
X84904785Y-89572600D01*
X84933995Y-89578410D01*
G37*
G36*
X90433995Y-89578410D02*
G01*
X90463207Y-89584221D01*
X90518240Y-89607017D01*
X90567769Y-89640111D01*
X90609889Y-89682231D01*
X90642983Y-89731760D01*
X90665779Y-89786793D01*
X90677400Y-89845216D01*
X90677400Y-89904784D01*
X90665779Y-89963207D01*
X90642983Y-90018240D01*
X90609889Y-90067769D01*
X90567769Y-90109889D01*
X90518240Y-90142983D01*
X90463207Y-90165779D01*
X90433996Y-90171589D01*
X90404785Y-90177400D01*
X90345215Y-90177400D01*
X90316004Y-90171589D01*
X90286793Y-90165779D01*
X90231760Y-90142983D01*
X90182231Y-90109889D01*
X90140111Y-90067769D01*
X90107017Y-90018240D01*
X90084221Y-89963207D01*
X90072600Y-89904784D01*
X90072600Y-89845216D01*
X90084221Y-89786793D01*
X90107017Y-89731760D01*
X90140111Y-89682231D01*
X90182231Y-89640111D01*
X90231760Y-89607017D01*
X90286793Y-89584221D01*
X90316004Y-89578411D01*
X90345215Y-89572600D01*
X90404785Y-89572600D01*
X90433995Y-89578410D01*
G37*
G36*
X87683995Y-89578410D02*
G01*
X87713207Y-89584221D01*
X87768240Y-89607017D01*
X87817769Y-89640111D01*
X87859889Y-89682231D01*
X87892983Y-89731760D01*
X87915779Y-89786793D01*
X87927400Y-89845216D01*
X87927400Y-89904784D01*
X87915779Y-89963207D01*
X87892983Y-90018240D01*
X87859889Y-90067769D01*
X87817769Y-90109889D01*
X87768240Y-90142983D01*
X87713207Y-90165779D01*
X87683996Y-90171589D01*
X87654785Y-90177400D01*
X87595215Y-90177400D01*
X87566004Y-90171589D01*
X87536793Y-90165779D01*
X87481760Y-90142983D01*
X87432231Y-90109889D01*
X87390111Y-90067769D01*
X87357017Y-90018240D01*
X87334221Y-89963207D01*
X87322600Y-89904784D01*
X87322600Y-89845216D01*
X87334221Y-89786793D01*
X87357017Y-89731760D01*
X87390111Y-89682231D01*
X87432231Y-89640111D01*
X87481760Y-89607017D01*
X87536793Y-89584221D01*
X87566004Y-89578411D01*
X87595215Y-89572600D01*
X87654785Y-89572600D01*
X87683995Y-89578410D01*
G37*
M02*
