G04 #@! TF.GenerationSoftware,KiCad,Pcbnew,5.1.5+dfsg1-2build2*
G04 #@! TF.CreationDate,2021-10-18T18:16:56+02:00*
G04 #@! TF.ProjectId,DIMMCartridgeV4,44494d4d-4361-4727-9472-696467655634,rev?*
G04 #@! TF.SameCoordinates,Original*
G04 #@! TF.FileFunction,Legend,Bot*
G04 #@! TF.FilePolarity,Positive*
%FSLAX46Y46*%
G04 Gerber Fmt 4.6, Leading zero omitted, Abs format (unit mm)*
G04 Created by KiCad (PCBNEW 5.1.5+dfsg1-2build2) date 2021-10-18 18:16:56*
%MOMM*%
%LPD*%
G04 APERTURE LIST*
%ADD10C,0.300000*%
G04 APERTURE END LIST*
D10*
X113428571Y-81518571D02*
X113142857Y-81518571D01*
X113000000Y-81590000D01*
X112857142Y-81732857D01*
X112785714Y-82018571D01*
X112785714Y-82518571D01*
X112857142Y-82804285D01*
X113000000Y-82947142D01*
X113142857Y-83018571D01*
X113428571Y-83018571D01*
X113571428Y-82947142D01*
X113714285Y-82804285D01*
X113785714Y-82518571D01*
X113785714Y-82018571D01*
X113714285Y-81732857D01*
X113571428Y-81590000D01*
X113428571Y-81518571D01*
X112142857Y-82018571D02*
X112142857Y-83518571D01*
X112142857Y-82090000D02*
X112000000Y-82018571D01*
X111714285Y-82018571D01*
X111571428Y-82090000D01*
X111500000Y-82161428D01*
X111428571Y-82304285D01*
X111428571Y-82732857D01*
X111500000Y-82875714D01*
X111571428Y-82947142D01*
X111714285Y-83018571D01*
X112000000Y-83018571D01*
X112142857Y-82947142D01*
X110214285Y-82947142D02*
X110357142Y-83018571D01*
X110642857Y-83018571D01*
X110785714Y-82947142D01*
X110857142Y-82804285D01*
X110857142Y-82232857D01*
X110785714Y-82090000D01*
X110642857Y-82018571D01*
X110357142Y-82018571D01*
X110214285Y-82090000D01*
X110142857Y-82232857D01*
X110142857Y-82375714D01*
X110857142Y-82518571D01*
X109500000Y-82018571D02*
X109500000Y-83018571D01*
X109500000Y-82161428D02*
X109428571Y-82090000D01*
X109285714Y-82018571D01*
X109071428Y-82018571D01*
X108928571Y-82090000D01*
X108857142Y-82232857D01*
X108857142Y-83018571D01*
X108142857Y-83018571D02*
X108142857Y-81518571D01*
X107785714Y-81518571D01*
X107571428Y-81590000D01*
X107428571Y-81732857D01*
X107357142Y-81875714D01*
X107285714Y-82161428D01*
X107285714Y-82375714D01*
X107357142Y-82661428D01*
X107428571Y-82804285D01*
X107571428Y-82947142D01*
X107785714Y-83018571D01*
X108142857Y-83018571D01*
X106642857Y-83018571D02*
X106642857Y-82018571D01*
X106642857Y-82304285D02*
X106571428Y-82161428D01*
X106500000Y-82090000D01*
X106357142Y-82018571D01*
X106214285Y-82018571D01*
X105500000Y-83018571D02*
X105642857Y-82947142D01*
X105714285Y-82875714D01*
X105785714Y-82732857D01*
X105785714Y-82304285D01*
X105714285Y-82161428D01*
X105642857Y-82090000D01*
X105500000Y-82018571D01*
X105285714Y-82018571D01*
X105142857Y-82090000D01*
X105071428Y-82161428D01*
X105000000Y-82304285D01*
X105000000Y-82732857D01*
X105071428Y-82875714D01*
X105142857Y-82947142D01*
X105285714Y-83018571D01*
X105500000Y-83018571D01*
X104357142Y-82018571D02*
X104357142Y-83518571D01*
X104357142Y-82090000D02*
X104214285Y-82018571D01*
X103928571Y-82018571D01*
X103785714Y-82090000D01*
X103714285Y-82161428D01*
X103642857Y-82304285D01*
X103642857Y-82732857D01*
X103714285Y-82875714D01*
X103785714Y-82947142D01*
X103928571Y-83018571D01*
X104214285Y-83018571D01*
X104357142Y-82947142D01*
X101000000Y-82875714D02*
X101071428Y-82947142D01*
X101285714Y-83018571D01*
X101428571Y-83018571D01*
X101642857Y-82947142D01*
X101785714Y-82804285D01*
X101857142Y-82661428D01*
X101928571Y-82375714D01*
X101928571Y-82161428D01*
X101857142Y-81875714D01*
X101785714Y-81732857D01*
X101642857Y-81590000D01*
X101428571Y-81518571D01*
X101285714Y-81518571D01*
X101071428Y-81590000D01*
X101000000Y-81661428D01*
X99714285Y-83018571D02*
X99714285Y-82232857D01*
X99785714Y-82090000D01*
X99928571Y-82018571D01*
X100214285Y-82018571D01*
X100357142Y-82090000D01*
X99714285Y-82947142D02*
X99857142Y-83018571D01*
X100214285Y-83018571D01*
X100357142Y-82947142D01*
X100428571Y-82804285D01*
X100428571Y-82661428D01*
X100357142Y-82518571D01*
X100214285Y-82447142D01*
X99857142Y-82447142D01*
X99714285Y-82375714D01*
X99000000Y-83018571D02*
X99000000Y-82018571D01*
X99000000Y-82304285D02*
X98928571Y-82161428D01*
X98857142Y-82090000D01*
X98714285Y-82018571D01*
X98571428Y-82018571D01*
X98285714Y-82018571D02*
X97714285Y-82018571D01*
X98071428Y-81518571D02*
X98071428Y-82804285D01*
X98000000Y-82947142D01*
X97857142Y-83018571D01*
X97714285Y-83018571D01*
X97214285Y-83018571D02*
X97214285Y-82018571D01*
X97214285Y-82304285D02*
X97142857Y-82161428D01*
X97071428Y-82090000D01*
X96928571Y-82018571D01*
X96785714Y-82018571D01*
X96285714Y-83018571D02*
X96285714Y-82018571D01*
X96285714Y-81518571D02*
X96357142Y-81590000D01*
X96285714Y-81661428D01*
X96214285Y-81590000D01*
X96285714Y-81518571D01*
X96285714Y-81661428D01*
X94928571Y-83018571D02*
X94928571Y-81518571D01*
X94928571Y-82947142D02*
X95071428Y-83018571D01*
X95357142Y-83018571D01*
X95500000Y-82947142D01*
X95571428Y-82875714D01*
X95642857Y-82732857D01*
X95642857Y-82304285D01*
X95571428Y-82161428D01*
X95500000Y-82090000D01*
X95357142Y-82018571D01*
X95071428Y-82018571D01*
X94928571Y-82090000D01*
X93571428Y-82018571D02*
X93571428Y-83232857D01*
X93642857Y-83375714D01*
X93714285Y-83447142D01*
X93857142Y-83518571D01*
X94071428Y-83518571D01*
X94214285Y-83447142D01*
X93571428Y-82947142D02*
X93714285Y-83018571D01*
X94000000Y-83018571D01*
X94142857Y-82947142D01*
X94214285Y-82875714D01*
X94285714Y-82732857D01*
X94285714Y-82304285D01*
X94214285Y-82161428D01*
X94142857Y-82090000D01*
X94000000Y-82018571D01*
X93714285Y-82018571D01*
X93571428Y-82090000D01*
X92285714Y-82947142D02*
X92428571Y-83018571D01*
X92714285Y-83018571D01*
X92857142Y-82947142D01*
X92928571Y-82804285D01*
X92928571Y-82232857D01*
X92857142Y-82090000D01*
X92714285Y-82018571D01*
X92428571Y-82018571D01*
X92285714Y-82090000D01*
X92214285Y-82232857D01*
X92214285Y-82375714D01*
X92928571Y-82518571D01*
X90642857Y-81518571D02*
X90142857Y-83018571D01*
X89642857Y-81518571D01*
X88500000Y-82018571D02*
X88500000Y-83018571D01*
X88857142Y-81447142D02*
X89214285Y-82518571D01*
X88285714Y-82518571D01*
X87714285Y-82875714D02*
X87642857Y-82947142D01*
X87714285Y-83018571D01*
X87785714Y-82947142D01*
X87714285Y-82875714D01*
X87714285Y-83018571D01*
X86214285Y-83018571D02*
X87071428Y-83018571D01*
X86642857Y-83018571D02*
X86642857Y-81518571D01*
X86785714Y-81732857D01*
X86928571Y-81875714D01*
X87071428Y-81947142D01*
X113392857Y-84568571D02*
X113107142Y-85568571D01*
X112821428Y-84854285D01*
X112535714Y-85568571D01*
X112250000Y-84568571D01*
X111821428Y-84568571D02*
X111535714Y-85568571D01*
X111250000Y-84854285D01*
X110964285Y-85568571D01*
X110678571Y-84568571D01*
X110250000Y-84568571D02*
X109964285Y-85568571D01*
X109678571Y-84854285D01*
X109392857Y-85568571D01*
X109107142Y-84568571D01*
X108535714Y-85425714D02*
X108464285Y-85497142D01*
X108535714Y-85568571D01*
X108607142Y-85497142D01*
X108535714Y-85425714D01*
X108535714Y-85568571D01*
X107178571Y-84568571D02*
X107178571Y-85782857D01*
X107250000Y-85925714D01*
X107321428Y-85997142D01*
X107464285Y-86068571D01*
X107678571Y-86068571D01*
X107821428Y-85997142D01*
X107178571Y-85497142D02*
X107321428Y-85568571D01*
X107607142Y-85568571D01*
X107750000Y-85497142D01*
X107821428Y-85425714D01*
X107892857Y-85282857D01*
X107892857Y-84854285D01*
X107821428Y-84711428D01*
X107750000Y-84640000D01*
X107607142Y-84568571D01*
X107321428Y-84568571D01*
X107178571Y-84640000D01*
X105821428Y-85568571D02*
X105821428Y-84782857D01*
X105892857Y-84640000D01*
X106035714Y-84568571D01*
X106321428Y-84568571D01*
X106464285Y-84640000D01*
X105821428Y-85497142D02*
X105964285Y-85568571D01*
X106321428Y-85568571D01*
X106464285Y-85497142D01*
X106535714Y-85354285D01*
X106535714Y-85211428D01*
X106464285Y-85068571D01*
X106321428Y-84997142D01*
X105964285Y-84997142D01*
X105821428Y-84925714D01*
X104464285Y-84568571D02*
X104464285Y-85568571D01*
X105107142Y-84568571D02*
X105107142Y-85354285D01*
X105035714Y-85497142D01*
X104892857Y-85568571D01*
X104678571Y-85568571D01*
X104535714Y-85497142D01*
X104464285Y-85425714D01*
X103107142Y-85568571D02*
X103107142Y-84068571D01*
X103107142Y-85497142D02*
X103250000Y-85568571D01*
X103535714Y-85568571D01*
X103678571Y-85497142D01*
X103750000Y-85425714D01*
X103821428Y-85282857D01*
X103821428Y-84854285D01*
X103750000Y-84711428D01*
X103678571Y-84640000D01*
X103535714Y-84568571D01*
X103250000Y-84568571D01*
X103107142Y-84640000D01*
X102392857Y-85568571D02*
X102392857Y-84568571D01*
X102392857Y-84068571D02*
X102464285Y-84140000D01*
X102392857Y-84211428D01*
X102321428Y-84140000D01*
X102392857Y-84068571D01*
X102392857Y-84211428D01*
X101678571Y-85425714D02*
X101607142Y-85497142D01*
X101678571Y-85568571D01*
X101750000Y-85497142D01*
X101678571Y-85425714D01*
X101678571Y-85568571D01*
X100321428Y-85497142D02*
X100464285Y-85568571D01*
X100750000Y-85568571D01*
X100892857Y-85497142D01*
X100964285Y-85425714D01*
X101035714Y-85282857D01*
X101035714Y-84854285D01*
X100964285Y-84711428D01*
X100892857Y-84640000D01*
X100750000Y-84568571D01*
X100464285Y-84568571D01*
X100321428Y-84640000D01*
X99678571Y-85568571D02*
X99678571Y-84068571D01*
X99035714Y-85568571D02*
X99035714Y-84782857D01*
X99107142Y-84640000D01*
X99250000Y-84568571D01*
X99464285Y-84568571D01*
X99607142Y-84640000D01*
X99678571Y-84711428D01*
X97250000Y-83997142D02*
X98535714Y-85925714D01*
X96464285Y-84068571D02*
X96178571Y-84068571D01*
X96035714Y-84140000D01*
X95892857Y-84282857D01*
X95821428Y-84568571D01*
X95821428Y-85068571D01*
X95892857Y-85354285D01*
X96035714Y-85497142D01*
X96178571Y-85568571D01*
X96464285Y-85568571D01*
X96607142Y-85497142D01*
X96750000Y-85354285D01*
X96821428Y-85068571D01*
X96821428Y-84568571D01*
X96750000Y-84282857D01*
X96607142Y-84140000D01*
X96464285Y-84068571D01*
X95178571Y-84568571D02*
X95178571Y-86068571D01*
X95178571Y-84640000D02*
X95035714Y-84568571D01*
X94750000Y-84568571D01*
X94607142Y-84640000D01*
X94535714Y-84711428D01*
X94464285Y-84854285D01*
X94464285Y-85282857D01*
X94535714Y-85425714D01*
X94607142Y-85497142D01*
X94750000Y-85568571D01*
X95035714Y-85568571D01*
X95178571Y-85497142D01*
X93250000Y-85497142D02*
X93392857Y-85568571D01*
X93678571Y-85568571D01*
X93821428Y-85497142D01*
X93892857Y-85354285D01*
X93892857Y-84782857D01*
X93821428Y-84640000D01*
X93678571Y-84568571D01*
X93392857Y-84568571D01*
X93250000Y-84640000D01*
X93178571Y-84782857D01*
X93178571Y-84925714D01*
X93892857Y-85068571D01*
X92535714Y-84568571D02*
X92535714Y-85568571D01*
X92535714Y-84711428D02*
X92464285Y-84640000D01*
X92321428Y-84568571D01*
X92107142Y-84568571D01*
X91964285Y-84640000D01*
X91892857Y-84782857D01*
X91892857Y-85568571D01*
X91178571Y-85568571D02*
X91178571Y-84068571D01*
X90821428Y-84068571D01*
X90607142Y-84140000D01*
X90464285Y-84282857D01*
X90392857Y-84425714D01*
X90321428Y-84711428D01*
X90321428Y-84925714D01*
X90392857Y-85211428D01*
X90464285Y-85354285D01*
X90607142Y-85497142D01*
X90821428Y-85568571D01*
X91178571Y-85568571D01*
X89678571Y-85568571D02*
X89678571Y-84568571D01*
X89678571Y-84854285D02*
X89607142Y-84711428D01*
X89535714Y-84640000D01*
X89392857Y-84568571D01*
X89250000Y-84568571D01*
X88535714Y-85568571D02*
X88678571Y-85497142D01*
X88750000Y-85425714D01*
X88821428Y-85282857D01*
X88821428Y-84854285D01*
X88750000Y-84711428D01*
X88678571Y-84640000D01*
X88535714Y-84568571D01*
X88321428Y-84568571D01*
X88178571Y-84640000D01*
X88107142Y-84711428D01*
X88035714Y-84854285D01*
X88035714Y-85282857D01*
X88107142Y-85425714D01*
X88178571Y-85497142D01*
X88321428Y-85568571D01*
X88535714Y-85568571D01*
X87392857Y-84568571D02*
X87392857Y-86068571D01*
X87392857Y-84640000D02*
X87250000Y-84568571D01*
X86964285Y-84568571D01*
X86821428Y-84640000D01*
X86750000Y-84711428D01*
X86678571Y-84854285D01*
X86678571Y-85282857D01*
X86750000Y-85425714D01*
X86821428Y-85497142D01*
X86964285Y-85568571D01*
X87250000Y-85568571D01*
X87392857Y-85497142D01*
M02*
