G04 #@! TF.GenerationSoftware,KiCad,Pcbnew,5.1.5+dfsg1-2build2*
G04 #@! TF.CreationDate,2021-10-18T18:16:56+02:00*
G04 #@! TF.ProjectId,DIMMCartridgeV4,44494d4d-4361-4727-9472-696467655634,rev?*
G04 #@! TF.SameCoordinates,Original*
G04 #@! TF.FileFunction,OtherDrawing,Comment*
%FSLAX46Y46*%
G04 Gerber Fmt 4.6, Leading zero omitted, Abs format (unit mm)*
G04 Created by KiCad (PCBNEW 5.1.5+dfsg1-2build2) date 2021-10-18 18:16:56*
%MOMM*%
%LPD*%
G04 APERTURE LIST*
%ADD10C,0.150000*%
%ADD11C,0.300000*%
%ADD12C,0.200000*%
%ADD13C,0.100000*%
G04 APERTURE END LIST*
D10*
X117730000Y-99395000D02*
X118640000Y-99585000D01*
X117720000Y-99385000D02*
X118590000Y-99065000D01*
X117720000Y-99405000D02*
X145260000Y-97135000D01*
D11*
X147329999Y-95678571D02*
X148187142Y-95678571D01*
X147758571Y-97178571D02*
X147758571Y-95678571D01*
X148687142Y-97178571D02*
X148687142Y-96178571D01*
X148687142Y-96464285D02*
X148758571Y-96321428D01*
X148829999Y-96250000D01*
X148972857Y-96178571D01*
X149115714Y-96178571D01*
X150258571Y-97178571D02*
X150258571Y-96392857D01*
X150187142Y-96250000D01*
X150044285Y-96178571D01*
X149758571Y-96178571D01*
X149615714Y-96250000D01*
X150258571Y-97107142D02*
X150115714Y-97178571D01*
X149758571Y-97178571D01*
X149615714Y-97107142D01*
X149544285Y-96964285D01*
X149544285Y-96821428D01*
X149615714Y-96678571D01*
X149758571Y-96607142D01*
X150115714Y-96607142D01*
X150258571Y-96535714D01*
X151615714Y-97107142D02*
X151472857Y-97178571D01*
X151187142Y-97178571D01*
X151044285Y-97107142D01*
X150972857Y-97035714D01*
X150901428Y-96892857D01*
X150901428Y-96464285D01*
X150972857Y-96321428D01*
X151044285Y-96250000D01*
X151187142Y-96178571D01*
X151472857Y-96178571D01*
X151615714Y-96250000D01*
X152829999Y-97107142D02*
X152687142Y-97178571D01*
X152401428Y-97178571D01*
X152258571Y-97107142D01*
X152187142Y-96964285D01*
X152187142Y-96392857D01*
X152258571Y-96250000D01*
X152401428Y-96178571D01*
X152687142Y-96178571D01*
X152829999Y-96250000D01*
X152901428Y-96392857D01*
X152901428Y-96535714D01*
X152187142Y-96678571D01*
X153472857Y-97107142D02*
X153615714Y-97178571D01*
X153901428Y-97178571D01*
X154044285Y-97107142D01*
X154115714Y-96964285D01*
X154115714Y-96892857D01*
X154044285Y-96750000D01*
X153901428Y-96678571D01*
X153687142Y-96678571D01*
X153544285Y-96607142D01*
X153472857Y-96464285D01*
X153472857Y-96392857D01*
X153544285Y-96250000D01*
X153687142Y-96178571D01*
X153901428Y-96178571D01*
X154044285Y-96250000D01*
X155901428Y-97178571D02*
X155901428Y-95678571D01*
X155901428Y-96250000D02*
X156044285Y-96178571D01*
X156329999Y-96178571D01*
X156472857Y-96250000D01*
X156544285Y-96321428D01*
X156615714Y-96464285D01*
X156615714Y-96892857D01*
X156544285Y-97035714D01*
X156472857Y-97107142D01*
X156329999Y-97178571D01*
X156044285Y-97178571D01*
X155901428Y-97107142D01*
X157829999Y-97107142D02*
X157687142Y-97178571D01*
X157401428Y-97178571D01*
X157258571Y-97107142D01*
X157187142Y-96964285D01*
X157187142Y-96392857D01*
X157258571Y-96250000D01*
X157401428Y-96178571D01*
X157687142Y-96178571D01*
X157829999Y-96250000D01*
X157901428Y-96392857D01*
X157901428Y-96535714D01*
X157187142Y-96678571D01*
X158329999Y-96178571D02*
X158901428Y-96178571D01*
X158544285Y-95678571D02*
X158544285Y-96964285D01*
X158615714Y-97107142D01*
X158758571Y-97178571D01*
X158901428Y-97178571D01*
X159258571Y-96178571D02*
X159544285Y-97178571D01*
X159829999Y-96464285D01*
X160115714Y-97178571D01*
X160401428Y-96178571D01*
X161544285Y-97107142D02*
X161401428Y-97178571D01*
X161115714Y-97178571D01*
X160972857Y-97107142D01*
X160901428Y-96964285D01*
X160901428Y-96392857D01*
X160972857Y-96250000D01*
X161115714Y-96178571D01*
X161401428Y-96178571D01*
X161544285Y-96250000D01*
X161615714Y-96392857D01*
X161615714Y-96535714D01*
X160901428Y-96678571D01*
X162829999Y-97107142D02*
X162687142Y-97178571D01*
X162401428Y-97178571D01*
X162258571Y-97107142D01*
X162187142Y-96964285D01*
X162187142Y-96392857D01*
X162258571Y-96250000D01*
X162401428Y-96178571D01*
X162687142Y-96178571D01*
X162829999Y-96250000D01*
X162901428Y-96392857D01*
X162901428Y-96535714D01*
X162187142Y-96678571D01*
X163544285Y-96178571D02*
X163544285Y-97178571D01*
X163544285Y-96321428D02*
X163615714Y-96250000D01*
X163758571Y-96178571D01*
X163972857Y-96178571D01*
X164115714Y-96250000D01*
X164187142Y-96392857D01*
X164187142Y-97178571D01*
X165829999Y-96178571D02*
X166401428Y-96178571D01*
X166044285Y-95678571D02*
X166044285Y-96964285D01*
X166115714Y-97107142D01*
X166258571Y-97178571D01*
X166401428Y-97178571D01*
X166901428Y-97178571D02*
X166901428Y-95678571D01*
X167544285Y-97178571D02*
X167544285Y-96392857D01*
X167472857Y-96250000D01*
X167329999Y-96178571D01*
X167115714Y-96178571D01*
X166972857Y-96250000D01*
X166901428Y-96321428D01*
X168829999Y-97107142D02*
X168687142Y-97178571D01*
X168401428Y-97178571D01*
X168258571Y-97107142D01*
X168187142Y-96964285D01*
X168187142Y-96392857D01*
X168258571Y-96250000D01*
X168401428Y-96178571D01*
X168687142Y-96178571D01*
X168829999Y-96250000D01*
X168901428Y-96392857D01*
X168901428Y-96535714D01*
X168187142Y-96678571D01*
X171258571Y-97107142D02*
X171115714Y-97178571D01*
X170829999Y-97178571D01*
X170687142Y-97107142D01*
X170615714Y-96964285D01*
X170615714Y-96392857D01*
X170687142Y-96250000D01*
X170829999Y-96178571D01*
X171115714Y-96178571D01*
X171258571Y-96250000D01*
X171329999Y-96392857D01*
X171329999Y-96535714D01*
X170615714Y-96678571D01*
X172187142Y-97178571D02*
X172044285Y-97107142D01*
X171972857Y-96964285D01*
X171972857Y-95678571D01*
X173329999Y-97107142D02*
X173187142Y-97178571D01*
X172901428Y-97178571D01*
X172758571Y-97107142D01*
X172687142Y-96964285D01*
X172687142Y-96392857D01*
X172758571Y-96250000D01*
X172901428Y-96178571D01*
X173187142Y-96178571D01*
X173329999Y-96250000D01*
X173401428Y-96392857D01*
X173401428Y-96535714D01*
X172687142Y-96678571D01*
X174687142Y-97107142D02*
X174544285Y-97178571D01*
X174258571Y-97178571D01*
X174115714Y-97107142D01*
X174044285Y-97035714D01*
X173972857Y-96892857D01*
X173972857Y-96464285D01*
X174044285Y-96321428D01*
X174115714Y-96250000D01*
X174258571Y-96178571D01*
X174544285Y-96178571D01*
X174687142Y-96250000D01*
X175115714Y-96178571D02*
X175687142Y-96178571D01*
X175330000Y-95678571D02*
X175330000Y-96964285D01*
X175401428Y-97107142D01*
X175544285Y-97178571D01*
X175687142Y-97178571D01*
X176187142Y-97178571D02*
X176187142Y-96178571D01*
X176187142Y-96464285D02*
X176258571Y-96321428D01*
X176330000Y-96250000D01*
X176472857Y-96178571D01*
X176615714Y-96178571D01*
X177330000Y-97178571D02*
X177187142Y-97107142D01*
X177115714Y-97035714D01*
X177044285Y-96892857D01*
X177044285Y-96464285D01*
X177115714Y-96321428D01*
X177187142Y-96250000D01*
X177330000Y-96178571D01*
X177544285Y-96178571D01*
X177687142Y-96250000D01*
X177758571Y-96321428D01*
X177830000Y-96464285D01*
X177830000Y-96892857D01*
X177758571Y-97035714D01*
X177687142Y-97107142D01*
X177544285Y-97178571D01*
X177330000Y-97178571D01*
X179115714Y-97178571D02*
X179115714Y-95678571D01*
X179115714Y-97107142D02*
X178972857Y-97178571D01*
X178687142Y-97178571D01*
X178544285Y-97107142D01*
X178472857Y-97035714D01*
X178401428Y-96892857D01*
X178401428Y-96464285D01*
X178472857Y-96321428D01*
X178544285Y-96250000D01*
X178687142Y-96178571D01*
X178972857Y-96178571D01*
X179115714Y-96250000D01*
X180401428Y-97107142D02*
X180258571Y-97178571D01*
X179972857Y-97178571D01*
X179830000Y-97107142D01*
X179758571Y-96964285D01*
X179758571Y-96392857D01*
X179830000Y-96250000D01*
X179972857Y-96178571D01*
X180258571Y-96178571D01*
X180401428Y-96250000D01*
X180472857Y-96392857D01*
X180472857Y-96535714D01*
X179758571Y-96678571D01*
X181044285Y-97107142D02*
X181187142Y-97178571D01*
X181472857Y-97178571D01*
X181615714Y-97107142D01*
X181687142Y-96964285D01*
X181687142Y-96892857D01*
X181615714Y-96750000D01*
X181472857Y-96678571D01*
X181258571Y-96678571D01*
X181115714Y-96607142D01*
X181044285Y-96464285D01*
X181044285Y-96392857D01*
X181115714Y-96250000D01*
X181258571Y-96178571D01*
X181472857Y-96178571D01*
X181615714Y-96250000D01*
X183687142Y-97178571D02*
X183544285Y-97107142D01*
X183472857Y-97035714D01*
X183401428Y-96892857D01*
X183401428Y-96464285D01*
X183472857Y-96321428D01*
X183544285Y-96250000D01*
X183687142Y-96178571D01*
X183901428Y-96178571D01*
X184044285Y-96250000D01*
X184115714Y-96321428D01*
X184187142Y-96464285D01*
X184187142Y-96892857D01*
X184115714Y-97035714D01*
X184044285Y-97107142D01*
X183901428Y-97178571D01*
X183687142Y-97178571D01*
X184830000Y-96178571D02*
X184830000Y-97178571D01*
X184830000Y-96321428D02*
X184901428Y-96250000D01*
X185044285Y-96178571D01*
X185258571Y-96178571D01*
X185401428Y-96250000D01*
X185472857Y-96392857D01*
X185472857Y-97178571D01*
X187115714Y-96178571D02*
X187687142Y-96178571D01*
X187330000Y-95678571D02*
X187330000Y-96964285D01*
X187401428Y-97107142D01*
X187544285Y-97178571D01*
X187687142Y-97178571D01*
X188187142Y-97178571D02*
X188187142Y-95678571D01*
X188830000Y-97178571D02*
X188830000Y-96392857D01*
X188758571Y-96250000D01*
X188615714Y-96178571D01*
X188401428Y-96178571D01*
X188258571Y-96250000D01*
X188187142Y-96321428D01*
X190115714Y-97107142D02*
X189972857Y-97178571D01*
X189687142Y-97178571D01*
X189544285Y-97107142D01*
X189472857Y-96964285D01*
X189472857Y-96392857D01*
X189544285Y-96250000D01*
X189687142Y-96178571D01*
X189972857Y-96178571D01*
X190115714Y-96250000D01*
X190187142Y-96392857D01*
X190187142Y-96535714D01*
X189472857Y-96678571D01*
X144580000Y-99657142D02*
X144437142Y-99728571D01*
X144151428Y-99728571D01*
X144008571Y-99657142D01*
X143937142Y-99514285D01*
X143937142Y-98942857D01*
X144008571Y-98800000D01*
X144151428Y-98728571D01*
X144437142Y-98728571D01*
X144580000Y-98800000D01*
X144651428Y-98942857D01*
X144651428Y-99085714D01*
X143937142Y-99228571D01*
X145508571Y-99728571D02*
X145365714Y-99657142D01*
X145294285Y-99514285D01*
X145294285Y-98228571D01*
X146651428Y-99657142D02*
X146508571Y-99728571D01*
X146222857Y-99728571D01*
X146080000Y-99657142D01*
X146008571Y-99514285D01*
X146008571Y-98942857D01*
X146080000Y-98800000D01*
X146222857Y-98728571D01*
X146508571Y-98728571D01*
X146651428Y-98800000D01*
X146722857Y-98942857D01*
X146722857Y-99085714D01*
X146008571Y-99228571D01*
X148008571Y-99657142D02*
X147865714Y-99728571D01*
X147580000Y-99728571D01*
X147437142Y-99657142D01*
X147365714Y-99585714D01*
X147294285Y-99442857D01*
X147294285Y-99014285D01*
X147365714Y-98871428D01*
X147437142Y-98800000D01*
X147580000Y-98728571D01*
X147865714Y-98728571D01*
X148008571Y-98800000D01*
X148437142Y-98728571D02*
X149008571Y-98728571D01*
X148651428Y-98228571D02*
X148651428Y-99514285D01*
X148722857Y-99657142D01*
X148865714Y-99728571D01*
X149008571Y-99728571D01*
X149508571Y-99728571D02*
X149508571Y-98728571D01*
X149508571Y-99014285D02*
X149580000Y-98871428D01*
X149651428Y-98800000D01*
X149794285Y-98728571D01*
X149937142Y-98728571D01*
X150651428Y-99728571D02*
X150508571Y-99657142D01*
X150437142Y-99585714D01*
X150365714Y-99442857D01*
X150365714Y-99014285D01*
X150437142Y-98871428D01*
X150508571Y-98800000D01*
X150651428Y-98728571D01*
X150865714Y-98728571D01*
X151008571Y-98800000D01*
X151080000Y-98871428D01*
X151151428Y-99014285D01*
X151151428Y-99442857D01*
X151080000Y-99585714D01*
X151008571Y-99657142D01*
X150865714Y-99728571D01*
X150651428Y-99728571D01*
X152437142Y-99728571D02*
X152437142Y-98228571D01*
X152437142Y-99657142D02*
X152294285Y-99728571D01*
X152008571Y-99728571D01*
X151865714Y-99657142D01*
X151794285Y-99585714D01*
X151722857Y-99442857D01*
X151722857Y-99014285D01*
X151794285Y-98871428D01*
X151865714Y-98800000D01*
X152008571Y-98728571D01*
X152294285Y-98728571D01*
X152437142Y-98800000D01*
X153722857Y-99657142D02*
X153580000Y-99728571D01*
X153294285Y-99728571D01*
X153151428Y-99657142D01*
X153080000Y-99514285D01*
X153080000Y-98942857D01*
X153151428Y-98800000D01*
X153294285Y-98728571D01*
X153580000Y-98728571D01*
X153722857Y-98800000D01*
X153794285Y-98942857D01*
X153794285Y-99085714D01*
X153080000Y-99228571D01*
X156222857Y-99728571D02*
X156222857Y-98942857D01*
X156151428Y-98800000D01*
X156008571Y-98728571D01*
X155722857Y-98728571D01*
X155580000Y-98800000D01*
X156222857Y-99657142D02*
X156080000Y-99728571D01*
X155722857Y-99728571D01*
X155580000Y-99657142D01*
X155508571Y-99514285D01*
X155508571Y-99371428D01*
X155580000Y-99228571D01*
X155722857Y-99157142D01*
X156080000Y-99157142D01*
X156222857Y-99085714D01*
X156937142Y-99728571D02*
X156937142Y-98728571D01*
X156937142Y-99014285D02*
X157008571Y-98871428D01*
X157080000Y-98800000D01*
X157222857Y-98728571D01*
X157365714Y-98728571D01*
X157865714Y-99728571D02*
X157865714Y-98728571D01*
X157865714Y-99014285D02*
X157937142Y-98871428D01*
X158008571Y-98800000D01*
X158151428Y-98728571D01*
X158294285Y-98728571D01*
X159437142Y-99728571D02*
X159437142Y-98942857D01*
X159365714Y-98800000D01*
X159222857Y-98728571D01*
X158937142Y-98728571D01*
X158794285Y-98800000D01*
X159437142Y-99657142D02*
X159294285Y-99728571D01*
X158937142Y-99728571D01*
X158794285Y-99657142D01*
X158722857Y-99514285D01*
X158722857Y-99371428D01*
X158794285Y-99228571D01*
X158937142Y-99157142D01*
X159294285Y-99157142D01*
X159437142Y-99085714D01*
X160008571Y-98728571D02*
X160365714Y-99728571D01*
X160722857Y-98728571D02*
X160365714Y-99728571D01*
X160222857Y-100085714D01*
X160151428Y-100157142D01*
X160008571Y-100228571D01*
X162437142Y-99728571D02*
X162437142Y-98728571D01*
X162437142Y-98871428D02*
X162508571Y-98800000D01*
X162651428Y-98728571D01*
X162865714Y-98728571D01*
X163008571Y-98800000D01*
X163080000Y-98942857D01*
X163080000Y-99728571D01*
X163080000Y-98942857D02*
X163151428Y-98800000D01*
X163294285Y-98728571D01*
X163508571Y-98728571D01*
X163651428Y-98800000D01*
X163722857Y-98942857D01*
X163722857Y-99728571D01*
X165080000Y-98728571D02*
X165080000Y-99728571D01*
X164437142Y-98728571D02*
X164437142Y-99514285D01*
X164508571Y-99657142D01*
X164651428Y-99728571D01*
X164865714Y-99728571D01*
X165008571Y-99657142D01*
X165080000Y-99585714D01*
X165722857Y-99657142D02*
X165865714Y-99728571D01*
X166151428Y-99728571D01*
X166294285Y-99657142D01*
X166365714Y-99514285D01*
X166365714Y-99442857D01*
X166294285Y-99300000D01*
X166151428Y-99228571D01*
X165937142Y-99228571D01*
X165794285Y-99157142D01*
X165722857Y-99014285D01*
X165722857Y-98942857D01*
X165794285Y-98800000D01*
X165937142Y-98728571D01*
X166151428Y-98728571D01*
X166294285Y-98800000D01*
X166794285Y-98728571D02*
X167365714Y-98728571D01*
X167008571Y-98228571D02*
X167008571Y-99514285D01*
X167080000Y-99657142D01*
X167222857Y-99728571D01*
X167365714Y-99728571D01*
X169008571Y-99728571D02*
X169008571Y-98228571D01*
X169008571Y-98800000D02*
X169151428Y-98728571D01*
X169437142Y-98728571D01*
X169580000Y-98800000D01*
X169651428Y-98871428D01*
X169722857Y-99014285D01*
X169722857Y-99442857D01*
X169651428Y-99585714D01*
X169580000Y-99657142D01*
X169437142Y-99728571D01*
X169151428Y-99728571D01*
X169008571Y-99657142D01*
X170937142Y-99657142D02*
X170794285Y-99728571D01*
X170508571Y-99728571D01*
X170365714Y-99657142D01*
X170294285Y-99514285D01*
X170294285Y-98942857D01*
X170365714Y-98800000D01*
X170508571Y-98728571D01*
X170794285Y-98728571D01*
X170937142Y-98800000D01*
X171008571Y-98942857D01*
X171008571Y-99085714D01*
X170294285Y-99228571D01*
X173080000Y-98228571D02*
X173222857Y-98228571D01*
X173365714Y-98300000D01*
X173437142Y-98371428D01*
X173508571Y-98514285D01*
X173580000Y-98800000D01*
X173580000Y-99157142D01*
X173508571Y-99442857D01*
X173437142Y-99585714D01*
X173365714Y-99657142D01*
X173222857Y-99728571D01*
X173080000Y-99728571D01*
X172937142Y-99657142D01*
X172865714Y-99585714D01*
X172794285Y-99442857D01*
X172722857Y-99157142D01*
X172722857Y-98800000D01*
X172794285Y-98514285D01*
X172865714Y-98371428D01*
X172937142Y-98300000D01*
X173080000Y-98228571D01*
X174222857Y-99585714D02*
X174294285Y-99657142D01*
X174222857Y-99728571D01*
X174151428Y-99657142D01*
X174222857Y-99585714D01*
X174222857Y-99728571D01*
X175722857Y-99728571D02*
X174865714Y-99728571D01*
X175294285Y-99728571D02*
X175294285Y-98228571D01*
X175151428Y-98442857D01*
X175008571Y-98585714D01*
X174865714Y-98657142D01*
X177508571Y-99728571D02*
X177508571Y-98728571D01*
X177508571Y-98871428D02*
X177580000Y-98800000D01*
X177722857Y-98728571D01*
X177937142Y-98728571D01*
X178080000Y-98800000D01*
X178151428Y-98942857D01*
X178151428Y-99728571D01*
X178151428Y-98942857D02*
X178222857Y-98800000D01*
X178365714Y-98728571D01*
X178580000Y-98728571D01*
X178722857Y-98800000D01*
X178794285Y-98942857D01*
X178794285Y-99728571D01*
X179508571Y-99728571D02*
X179508571Y-98728571D01*
X179508571Y-98871428D02*
X179580000Y-98800000D01*
X179722857Y-98728571D01*
X179937142Y-98728571D01*
X180080000Y-98800000D01*
X180151428Y-98942857D01*
X180151428Y-99728571D01*
X180151428Y-98942857D02*
X180222857Y-98800000D01*
X180365714Y-98728571D01*
X180580000Y-98728571D01*
X180722857Y-98800000D01*
X180794285Y-98942857D01*
X180794285Y-99728571D01*
X182651428Y-99157142D02*
X183794285Y-99157142D01*
X183222857Y-99728571D02*
X183222857Y-98585714D01*
X185580000Y-98157142D02*
X184294285Y-100085714D01*
X186080000Y-99157142D02*
X187222857Y-99157142D01*
X189008571Y-98371428D02*
X189080000Y-98300000D01*
X189222857Y-98228571D01*
X189580000Y-98228571D01*
X189722857Y-98300000D01*
X189794285Y-98371428D01*
X189865714Y-98514285D01*
X189865714Y-98657142D01*
X189794285Y-98871428D01*
X188937142Y-99728571D01*
X189865714Y-99728571D01*
X190794285Y-98228571D02*
X190937142Y-98228571D01*
X191080000Y-98300000D01*
X191151428Y-98371428D01*
X191222857Y-98514285D01*
X191294285Y-98800000D01*
X191294285Y-99157142D01*
X191222857Y-99442857D01*
X191151428Y-99585714D01*
X191080000Y-99657142D01*
X190937142Y-99728571D01*
X190794285Y-99728571D01*
X190651428Y-99657142D01*
X190580000Y-99585714D01*
X190508571Y-99442857D01*
X190437142Y-99157142D01*
X190437142Y-98800000D01*
X190508571Y-98514285D01*
X190580000Y-98371428D01*
X190651428Y-98300000D01*
X190794285Y-98228571D01*
X191865714Y-99728571D02*
X193008571Y-98228571D01*
X192080000Y-98228571D02*
X192222857Y-98300000D01*
X192294285Y-98442857D01*
X192222857Y-98585714D01*
X192080000Y-98657142D01*
X191937142Y-98585714D01*
X191865714Y-98442857D01*
X191937142Y-98300000D01*
X192080000Y-98228571D01*
X192937142Y-99657142D02*
X193008571Y-99514285D01*
X192937142Y-99371428D01*
X192794285Y-99300000D01*
X192651428Y-99371428D01*
X192580000Y-99514285D01*
X192651428Y-99657142D01*
X192794285Y-99728571D01*
X192937142Y-99657142D01*
X193651428Y-99585714D02*
X193722857Y-99657142D01*
X193651428Y-99728571D01*
X193580000Y-99657142D01*
X193651428Y-99585714D01*
X193651428Y-99728571D01*
D12*
X81217142Y-134177857D02*
X81331428Y-134177857D01*
X81445714Y-134235000D01*
X81502857Y-134292142D01*
X81560000Y-134406428D01*
X81617142Y-134635000D01*
X81617142Y-134920714D01*
X81560000Y-135149285D01*
X81502857Y-135263571D01*
X81445714Y-135320714D01*
X81331428Y-135377857D01*
X81217142Y-135377857D01*
X81102857Y-135320714D01*
X81045714Y-135263571D01*
X80988571Y-135149285D01*
X80931428Y-134920714D01*
X80931428Y-134635000D01*
X80988571Y-134406428D01*
X81045714Y-134292142D01*
X81102857Y-134235000D01*
X81217142Y-134177857D01*
X82131428Y-135263571D02*
X82188571Y-135320714D01*
X82131428Y-135377857D01*
X82074285Y-135320714D01*
X82131428Y-135263571D01*
X82131428Y-135377857D01*
X82760000Y-135377857D02*
X82988571Y-135377857D01*
X83102857Y-135320714D01*
X83160000Y-135263571D01*
X83274285Y-135092142D01*
X83331428Y-134863571D01*
X83331428Y-134406428D01*
X83274285Y-134292142D01*
X83217142Y-134235000D01*
X83102857Y-134177857D01*
X82874285Y-134177857D01*
X82760000Y-134235000D01*
X82702857Y-134292142D01*
X82645714Y-134406428D01*
X82645714Y-134692142D01*
X82702857Y-134806428D01*
X82760000Y-134863571D01*
X82874285Y-134920714D01*
X83102857Y-134920714D01*
X83217142Y-134863571D01*
X83274285Y-134806428D01*
X83331428Y-134692142D01*
X85674285Y-135377857D02*
X85674285Y-134577857D01*
X85674285Y-134692142D02*
X85731428Y-134635000D01*
X85845714Y-134577857D01*
X86017142Y-134577857D01*
X86131428Y-134635000D01*
X86188571Y-134749285D01*
X86188571Y-135377857D01*
X86188571Y-134749285D02*
X86245714Y-134635000D01*
X86360000Y-134577857D01*
X86531428Y-134577857D01*
X86645714Y-134635000D01*
X86702857Y-134749285D01*
X86702857Y-135377857D01*
X87274285Y-135377857D02*
X87274285Y-134577857D01*
X87274285Y-134692142D02*
X87331428Y-134635000D01*
X87445714Y-134577857D01*
X87617142Y-134577857D01*
X87731428Y-134635000D01*
X87788571Y-134749285D01*
X87788571Y-135377857D01*
X87788571Y-134749285D02*
X87845714Y-134635000D01*
X87960000Y-134577857D01*
X88131428Y-134577857D01*
X88245714Y-134635000D01*
X88302857Y-134749285D01*
X88302857Y-135377857D01*
X89788571Y-134920714D02*
X90702857Y-134920714D01*
X90245714Y-135377857D02*
X90245714Y-134463571D01*
X92131428Y-134120714D02*
X91102857Y-135663571D01*
X92531428Y-134920714D02*
X93445714Y-134920714D01*
X95160000Y-134177857D02*
X95274285Y-134177857D01*
X95388571Y-134235000D01*
X95445714Y-134292142D01*
X95502857Y-134406428D01*
X95560000Y-134635000D01*
X95560000Y-134920714D01*
X95502857Y-135149285D01*
X95445714Y-135263571D01*
X95388571Y-135320714D01*
X95274285Y-135377857D01*
X95160000Y-135377857D01*
X95045714Y-135320714D01*
X94988571Y-135263571D01*
X94931428Y-135149285D01*
X94874285Y-134920714D01*
X94874285Y-134635000D01*
X94931428Y-134406428D01*
X94988571Y-134292142D01*
X95045714Y-134235000D01*
X95160000Y-134177857D01*
X96074285Y-135263571D02*
X96131428Y-135320714D01*
X96074285Y-135377857D01*
X96017142Y-135320714D01*
X96074285Y-135263571D01*
X96074285Y-135377857D01*
X97274285Y-135377857D02*
X96588571Y-135377857D01*
X96931428Y-135377857D02*
X96931428Y-134177857D01*
X96817142Y-134349285D01*
X96702857Y-134463571D01*
X96588571Y-134520714D01*
X98702857Y-135377857D02*
X98702857Y-134577857D01*
X98702857Y-134692142D02*
X98760000Y-134635000D01*
X98874285Y-134577857D01*
X99045714Y-134577857D01*
X99160000Y-134635000D01*
X99217142Y-134749285D01*
X99217142Y-135377857D01*
X99217142Y-134749285D02*
X99274285Y-134635000D01*
X99388571Y-134577857D01*
X99560000Y-134577857D01*
X99674285Y-134635000D01*
X99731428Y-134749285D01*
X99731428Y-135377857D01*
X100302857Y-135377857D02*
X100302857Y-134577857D01*
X100302857Y-134692142D02*
X100360000Y-134635000D01*
X100474285Y-134577857D01*
X100645714Y-134577857D01*
X100760000Y-134635000D01*
X100817142Y-134749285D01*
X100817142Y-135377857D01*
X100817142Y-134749285D02*
X100874285Y-134635000D01*
X100988571Y-134577857D01*
X101160000Y-134577857D01*
X101274285Y-134635000D01*
X101331428Y-134749285D01*
X101331428Y-135377857D01*
X81717142Y-138527857D02*
X81031428Y-138527857D01*
X81374285Y-138527857D02*
X81374285Y-137327857D01*
X81260000Y-137499285D01*
X81145714Y-137613571D01*
X81031428Y-137670714D01*
X82231428Y-138413571D02*
X82288571Y-138470714D01*
X82231428Y-138527857D01*
X82174285Y-138470714D01*
X82231428Y-138413571D01*
X82231428Y-138527857D01*
X82688571Y-137327857D02*
X83431428Y-137327857D01*
X83031428Y-137785000D01*
X83202857Y-137785000D01*
X83317142Y-137842142D01*
X83374285Y-137899285D01*
X83431428Y-138013571D01*
X83431428Y-138299285D01*
X83374285Y-138413571D01*
X83317142Y-138470714D01*
X83202857Y-138527857D01*
X82860000Y-138527857D01*
X82745714Y-138470714D01*
X82688571Y-138413571D01*
X85774285Y-138527857D02*
X85774285Y-137727857D01*
X85774285Y-137842142D02*
X85831428Y-137785000D01*
X85945714Y-137727857D01*
X86117142Y-137727857D01*
X86231428Y-137785000D01*
X86288571Y-137899285D01*
X86288571Y-138527857D01*
X86288571Y-137899285D02*
X86345714Y-137785000D01*
X86460000Y-137727857D01*
X86631428Y-137727857D01*
X86745714Y-137785000D01*
X86802857Y-137899285D01*
X86802857Y-138527857D01*
X87374285Y-138527857D02*
X87374285Y-137727857D01*
X87374285Y-137842142D02*
X87431428Y-137785000D01*
X87545714Y-137727857D01*
X87717142Y-137727857D01*
X87831428Y-137785000D01*
X87888571Y-137899285D01*
X87888571Y-138527857D01*
X87888571Y-137899285D02*
X87945714Y-137785000D01*
X88060000Y-137727857D01*
X88231428Y-137727857D01*
X88345714Y-137785000D01*
X88402857Y-137899285D01*
X88402857Y-138527857D01*
X89888571Y-138070714D02*
X90802857Y-138070714D01*
X90345714Y-138527857D02*
X90345714Y-137613571D01*
X92231428Y-137270714D02*
X91202857Y-138813571D01*
X92631428Y-138070714D02*
X93545714Y-138070714D01*
X95260000Y-137327857D02*
X95374285Y-137327857D01*
X95488571Y-137385000D01*
X95545714Y-137442142D01*
X95602857Y-137556428D01*
X95660000Y-137785000D01*
X95660000Y-138070714D01*
X95602857Y-138299285D01*
X95545714Y-138413571D01*
X95488571Y-138470714D01*
X95374285Y-138527857D01*
X95260000Y-138527857D01*
X95145714Y-138470714D01*
X95088571Y-138413571D01*
X95031428Y-138299285D01*
X94974285Y-138070714D01*
X94974285Y-137785000D01*
X95031428Y-137556428D01*
X95088571Y-137442142D01*
X95145714Y-137385000D01*
X95260000Y-137327857D01*
X96174285Y-138413571D02*
X96231428Y-138470714D01*
X96174285Y-138527857D01*
X96117142Y-138470714D01*
X96174285Y-138413571D01*
X96174285Y-138527857D01*
X97374285Y-138527857D02*
X96688571Y-138527857D01*
X97031428Y-138527857D02*
X97031428Y-137327857D01*
X96917142Y-137499285D01*
X96802857Y-137613571D01*
X96688571Y-137670714D01*
X98802857Y-138527857D02*
X98802857Y-137727857D01*
X98802857Y-137842142D02*
X98860000Y-137785000D01*
X98974285Y-137727857D01*
X99145714Y-137727857D01*
X99260000Y-137785000D01*
X99317142Y-137899285D01*
X99317142Y-138527857D01*
X99317142Y-137899285D02*
X99374285Y-137785000D01*
X99488571Y-137727857D01*
X99660000Y-137727857D01*
X99774285Y-137785000D01*
X99831428Y-137899285D01*
X99831428Y-138527857D01*
X100402857Y-138527857D02*
X100402857Y-137727857D01*
X100402857Y-137842142D02*
X100460000Y-137785000D01*
X100574285Y-137727857D01*
X100745714Y-137727857D01*
X100860000Y-137785000D01*
X100917142Y-137899285D01*
X100917142Y-138527857D01*
X100917142Y-137899285D02*
X100974285Y-137785000D01*
X101088571Y-137727857D01*
X101260000Y-137727857D01*
X101374285Y-137785000D01*
X101431428Y-137899285D01*
X101431428Y-138527857D01*
D10*
X104180000Y-139095000D02*
X104860000Y-139435000D01*
X104190000Y-139085000D02*
X104830000Y-138755000D01*
X104180000Y-139095000D02*
X105780000Y-139095000D01*
X102870000Y-139095000D02*
X102080000Y-139445000D01*
X102880000Y-139075000D02*
X102080000Y-138725000D01*
X102870000Y-139095000D02*
X96410000Y-139095000D01*
X102440000Y-136085000D02*
X101680000Y-136345000D01*
X102440000Y-136055000D02*
X101680000Y-135785000D01*
X102390000Y-136055000D02*
X96540000Y-136055000D01*
X103360000Y-136055000D02*
X104060000Y-136405000D01*
X103360000Y-136065000D02*
X104040000Y-135795000D01*
X105430000Y-136065000D02*
X103360000Y-136065000D01*
D13*
X103339699Y-130225000D02*
X103339699Y-137900000D01*
X102448850Y-130225000D02*
X102448850Y-137915000D01*
X104194275Y-128235000D02*
X104194275Y-140000000D01*
X102894275Y-128235000D02*
X102894275Y-140000000D01*
D10*
X58996870Y-132815000D02*
X140983729Y-132815000D01*
X140983729Y-133015000D02*
X58996870Y-133035000D01*
X126660000Y-134225000D02*
X126420000Y-133485000D01*
X127120000Y-134045000D02*
X126660000Y-134225000D01*
X126460000Y-133485000D02*
X127120000Y-134045000D01*
X126480000Y-133495000D02*
X129940000Y-138845000D01*
D11*
X131255714Y-138717857D02*
X131470000Y-138789285D01*
X131541428Y-138860714D01*
X131612857Y-139003571D01*
X131612857Y-139217857D01*
X131541428Y-139360714D01*
X131470000Y-139432142D01*
X131327142Y-139503571D01*
X130755714Y-139503571D01*
X130755714Y-138003571D01*
X131255714Y-138003571D01*
X131398571Y-138075000D01*
X131470000Y-138146428D01*
X131541428Y-138289285D01*
X131541428Y-138432142D01*
X131470000Y-138575000D01*
X131398571Y-138646428D01*
X131255714Y-138717857D01*
X130755714Y-138717857D01*
X132827142Y-139432142D02*
X132684285Y-139503571D01*
X132398571Y-139503571D01*
X132255714Y-139432142D01*
X132184285Y-139289285D01*
X132184285Y-138717857D01*
X132255714Y-138575000D01*
X132398571Y-138503571D01*
X132684285Y-138503571D01*
X132827142Y-138575000D01*
X132898571Y-138717857D01*
X132898571Y-138860714D01*
X132184285Y-139003571D01*
X133398571Y-138503571D02*
X133755714Y-139503571D01*
X134112857Y-138503571D01*
X135255714Y-139432142D02*
X135112857Y-139503571D01*
X134827142Y-139503571D01*
X134684285Y-139432142D01*
X134612857Y-139289285D01*
X134612857Y-138717857D01*
X134684285Y-138575000D01*
X134827142Y-138503571D01*
X135112857Y-138503571D01*
X135255714Y-138575000D01*
X135327142Y-138717857D01*
X135327142Y-138860714D01*
X134612857Y-139003571D01*
X136184285Y-139503571D02*
X136041428Y-139432142D01*
X135970000Y-139289285D01*
X135970000Y-138003571D01*
X136755714Y-139503571D02*
X136755714Y-138503571D01*
X136755714Y-138003571D02*
X136684285Y-138075000D01*
X136755714Y-138146428D01*
X136827142Y-138075000D01*
X136755714Y-138003571D01*
X136755714Y-138146428D01*
X137470000Y-138503571D02*
X137470000Y-139503571D01*
X137470000Y-138646428D02*
X137541428Y-138575000D01*
X137684285Y-138503571D01*
X137898571Y-138503571D01*
X138041428Y-138575000D01*
X138112857Y-138717857D01*
X138112857Y-139503571D01*
X139470000Y-138503571D02*
X139470000Y-139717857D01*
X139398571Y-139860714D01*
X139327142Y-139932142D01*
X139184285Y-140003571D01*
X138970000Y-140003571D01*
X138827142Y-139932142D01*
X139470000Y-139432142D02*
X139327142Y-139503571D01*
X139041428Y-139503571D01*
X138898571Y-139432142D01*
X138827142Y-139360714D01*
X138755714Y-139217857D01*
X138755714Y-138789285D01*
X138827142Y-138646428D01*
X138898571Y-138575000D01*
X139041428Y-138503571D01*
X139327142Y-138503571D01*
X139470000Y-138575000D01*
X141612857Y-138003571D02*
X141755714Y-138003571D01*
X141898571Y-138075000D01*
X141970000Y-138146428D01*
X142041428Y-138289285D01*
X142112857Y-138575000D01*
X142112857Y-138932142D01*
X142041428Y-139217857D01*
X141970000Y-139360714D01*
X141898571Y-139432142D01*
X141755714Y-139503571D01*
X141612857Y-139503571D01*
X141470000Y-139432142D01*
X141398571Y-139360714D01*
X141327142Y-139217857D01*
X141255714Y-138932142D01*
X141255714Y-138575000D01*
X141327142Y-138289285D01*
X141398571Y-138146428D01*
X141470000Y-138075000D01*
X141612857Y-138003571D01*
X142755714Y-139360714D02*
X142827142Y-139432142D01*
X142755714Y-139503571D01*
X142684285Y-139432142D01*
X142755714Y-139360714D01*
X142755714Y-139503571D01*
X143398571Y-138146428D02*
X143470000Y-138075000D01*
X143612857Y-138003571D01*
X143970000Y-138003571D01*
X144112857Y-138075000D01*
X144184285Y-138146428D01*
X144255714Y-138289285D01*
X144255714Y-138432142D01*
X144184285Y-138646428D01*
X143327142Y-139503571D01*
X144255714Y-139503571D01*
X146041428Y-139503571D02*
X146041428Y-138503571D01*
X146041428Y-138646428D02*
X146112857Y-138575000D01*
X146255714Y-138503571D01*
X146470000Y-138503571D01*
X146612857Y-138575000D01*
X146684285Y-138717857D01*
X146684285Y-139503571D01*
X146684285Y-138717857D02*
X146755714Y-138575000D01*
X146898571Y-138503571D01*
X147112857Y-138503571D01*
X147255714Y-138575000D01*
X147327142Y-138717857D01*
X147327142Y-139503571D01*
X148041428Y-139503571D02*
X148041428Y-138503571D01*
X148041428Y-138646428D02*
X148112857Y-138575000D01*
X148255714Y-138503571D01*
X148470000Y-138503571D01*
X148612857Y-138575000D01*
X148684285Y-138717857D01*
X148684285Y-139503571D01*
X148684285Y-138717857D02*
X148755714Y-138575000D01*
X148898571Y-138503571D01*
X149112857Y-138503571D01*
X149255714Y-138575000D01*
X149327142Y-138717857D01*
X149327142Y-139503571D01*
X151041428Y-139503571D02*
X151827142Y-138503571D01*
X151041428Y-138503571D02*
X151827142Y-139503571D01*
X153827142Y-138003571D02*
X153970000Y-138003571D01*
X154112857Y-138075000D01*
X154184285Y-138146428D01*
X154255714Y-138289285D01*
X154327142Y-138575000D01*
X154327142Y-138932142D01*
X154255714Y-139217857D01*
X154184285Y-139360714D01*
X154112857Y-139432142D01*
X153970000Y-139503571D01*
X153827142Y-139503571D01*
X153684285Y-139432142D01*
X153612857Y-139360714D01*
X153541428Y-139217857D01*
X153470000Y-138932142D01*
X153470000Y-138575000D01*
X153541428Y-138289285D01*
X153612857Y-138146428D01*
X153684285Y-138075000D01*
X153827142Y-138003571D01*
X154970000Y-139360714D02*
X155041428Y-139432142D01*
X154970000Y-139503571D01*
X154898571Y-139432142D01*
X154970000Y-139360714D01*
X154970000Y-139503571D01*
X155612857Y-138146428D02*
X155684285Y-138075000D01*
X155827142Y-138003571D01*
X156184285Y-138003571D01*
X156327142Y-138075000D01*
X156398571Y-138146428D01*
X156470000Y-138289285D01*
X156470000Y-138432142D01*
X156398571Y-138646428D01*
X155541428Y-139503571D01*
X156470000Y-139503571D01*
X158255714Y-139503571D02*
X158255714Y-138503571D01*
X158255714Y-138646428D02*
X158327142Y-138575000D01*
X158470000Y-138503571D01*
X158684285Y-138503571D01*
X158827142Y-138575000D01*
X158898571Y-138717857D01*
X158898571Y-139503571D01*
X158898571Y-138717857D02*
X158970000Y-138575000D01*
X159112857Y-138503571D01*
X159327142Y-138503571D01*
X159470000Y-138575000D01*
X159541428Y-138717857D01*
X159541428Y-139503571D01*
X160255714Y-139503571D02*
X160255714Y-138503571D01*
X160255714Y-138646428D02*
X160327142Y-138575000D01*
X160470000Y-138503571D01*
X160684285Y-138503571D01*
X160827142Y-138575000D01*
X160898571Y-138717857D01*
X160898571Y-139503571D01*
X160898571Y-138717857D02*
X160970000Y-138575000D01*
X161112857Y-138503571D01*
X161327142Y-138503571D01*
X161470000Y-138575000D01*
X161541428Y-138717857D01*
X161541428Y-139503571D01*
X163827142Y-140075000D02*
X163755714Y-140003571D01*
X163612857Y-139789285D01*
X163541428Y-139646428D01*
X163470000Y-139432142D01*
X163398571Y-139075000D01*
X163398571Y-138789285D01*
X163470000Y-138432142D01*
X163541428Y-138217857D01*
X163612857Y-138075000D01*
X163755714Y-137860714D01*
X163827142Y-137789285D01*
X165041428Y-138503571D02*
X165041428Y-139503571D01*
X164684285Y-137932142D02*
X164327142Y-139003571D01*
X165255714Y-139003571D01*
X166541428Y-138003571D02*
X165827142Y-138003571D01*
X165755714Y-138717857D01*
X165827142Y-138646428D01*
X165970000Y-138575000D01*
X166327142Y-138575000D01*
X166470000Y-138646428D01*
X166541428Y-138717857D01*
X166612857Y-138860714D01*
X166612857Y-139217857D01*
X166541428Y-139360714D01*
X166470000Y-139432142D01*
X166327142Y-139503571D01*
X165970000Y-139503571D01*
X165827142Y-139432142D01*
X165755714Y-139360714D01*
X167470000Y-138003571D02*
X167327142Y-138075000D01*
X167255714Y-138217857D01*
X167327142Y-138360714D01*
X167470000Y-138432142D01*
X167612857Y-138360714D01*
X167684285Y-138217857D01*
X167612857Y-138075000D01*
X167470000Y-138003571D01*
X168255714Y-140075000D02*
X168327142Y-140003571D01*
X168470000Y-139789285D01*
X168541428Y-139646428D01*
X168612857Y-139432142D01*
X168684285Y-139075000D01*
X168684285Y-138789285D01*
X168612857Y-138432142D01*
X168541428Y-138217857D01*
X168470000Y-138075000D01*
X168327142Y-137860714D01*
X168255714Y-137789285D01*
M02*
