G04 #@! TF.GenerationSoftware,KiCad,Pcbnew,6.0.9-8da3e8f707~117~ubuntu22.04.1*
G04 #@! TF.CreationDate,2023-03-03T14:59:22+01:00*
G04 #@! TF.ProjectId,ModulAdapterBasic,4d6f6475-6c41-4646-9170-746572426173,rev?*
G04 #@! TF.SameCoordinates,Original*
G04 #@! TF.FileFunction,Profile,NP*
%FSLAX46Y46*%
G04 Gerber Fmt 4.6, Leading zero omitted, Abs format (unit mm)*
G04 Created by KiCad (PCBNEW 6.0.9-8da3e8f707~117~ubuntu22.04.1) date 2023-03-03 14:59:22*
%MOMM*%
%LPD*%
G01*
G04 APERTURE LIST*
G04 #@! TA.AperFunction,Profile*
%ADD10C,0.100000*%
G04 #@! TD*
G04 APERTURE END LIST*
D10*
X112600000Y-67980000D02*
X150000000Y-67980000D01*
X67550000Y-108500000D02*
G75*
G03*
X67550000Y-108500000I-1050000J0D01*
G01*
X134550000Y-108500000D02*
G75*
G03*
X134550000Y-108500000I-1050000J0D01*
G01*
X87440000Y-67980000D02*
X87427000Y-68027000D01*
X112573000Y-68027000D02*
X112600000Y-67980000D01*
X138380000Y-134250000D02*
G75*
G03*
X132750417Y-130999277I-5630000J-3250000D01*
G01*
X138380000Y-134250000D02*
X138375417Y-134257937D01*
X61629165Y-134250000D02*
X61620835Y-134250000D01*
X107721247Y-72121673D02*
G75*
G03*
X112573000Y-68027000I28753J4887673D01*
G01*
X144000000Y-137500000D02*
X150000000Y-137500000D01*
X50000000Y-137500000D02*
X50000000Y-67980000D01*
X87427000Y-68027000D02*
G75*
G03*
X92278753Y-72121673I4823000J793000D01*
G01*
X67250000Y-131000000D02*
G75*
G03*
X61620835Y-134250000I0J-6500000D01*
G01*
X87440000Y-67980000D02*
X50000000Y-67980000D01*
X92278000Y-72121600D02*
X107720000Y-72121600D01*
X138375388Y-134257954D02*
G75*
G03*
X144000000Y-137500000I5620012J3250054D01*
G01*
X67250000Y-131000000D02*
X132750000Y-131000000D01*
X150000000Y-137500000D02*
X150000000Y-67980000D01*
X56000000Y-137500000D02*
G75*
G03*
X61629165Y-134250000I0J6500000D01*
G01*
X56000000Y-137500000D02*
X50000000Y-137500000D01*
M02*
