G04 #@! TF.GenerationSoftware,KiCad,Pcbnew,6.0.9-8da3e8f707~117~ubuntu22.04.1*
G04 #@! TF.CreationDate,2023-03-03T14:59:22+01:00*
G04 #@! TF.ProjectId,ModulAdapterBasic,4d6f6475-6c41-4646-9170-746572426173,rev?*
G04 #@! TF.SameCoordinates,Original*
G04 #@! TF.FileFunction,Legend,Top*
G04 #@! TF.FilePolarity,Positive*
%FSLAX46Y46*%
G04 Gerber Fmt 4.6, Leading zero omitted, Abs format (unit mm)*
G04 Created by KiCad (PCBNEW 6.0.9-8da3e8f707~117~ubuntu22.04.1) date 2023-03-03 14:59:22*
%MOMM*%
%LPD*%
G01*
G04 APERTURE LIST*
%ADD10C,0.100000*%
%ADD11C,0.128000*%
%ADD12C,0.150000*%
%ADD13C,0.120000*%
G04 APERTURE END LIST*
D10*
X50000000Y-80000000D02*
X150000000Y-80000000D01*
D11*
X103215238Y-110571428D02*
X103251428Y-110607619D01*
X103215238Y-110643809D01*
X103179047Y-110607619D01*
X103215238Y-110571428D01*
X103215238Y-110643809D01*
X103577142Y-110571428D02*
X103613333Y-110607619D01*
X103577142Y-110643809D01*
X103540952Y-110607619D01*
X103577142Y-110571428D01*
X103577142Y-110643809D01*
X104373333Y-110643809D02*
X104120000Y-110281904D01*
X103939047Y-110643809D02*
X103939047Y-109883809D01*
X104228571Y-109883809D01*
X104300952Y-109920000D01*
X104337142Y-109956190D01*
X104373333Y-110028571D01*
X104373333Y-110137142D01*
X104337142Y-110209523D01*
X104300952Y-110245714D01*
X104228571Y-110281904D01*
X103939047Y-110281904D01*
X105024761Y-109883809D02*
X104880000Y-109883809D01*
X104807619Y-109920000D01*
X104771428Y-109956190D01*
X104699047Y-110064761D01*
X104662857Y-110209523D01*
X104662857Y-110499047D01*
X104699047Y-110571428D01*
X104735238Y-110607619D01*
X104807619Y-110643809D01*
X104952380Y-110643809D01*
X105024761Y-110607619D01*
X105060952Y-110571428D01*
X105097142Y-110499047D01*
X105097142Y-110318095D01*
X105060952Y-110245714D01*
X105024761Y-110209523D01*
X104952380Y-110173333D01*
X104807619Y-110173333D01*
X104735238Y-110209523D01*
X104699047Y-110245714D01*
X104662857Y-110318095D01*
X105784761Y-109883809D02*
X105422857Y-109883809D01*
X105386666Y-110245714D01*
X105422857Y-110209523D01*
X105495238Y-110173333D01*
X105676190Y-110173333D01*
X105748571Y-110209523D01*
X105784761Y-110245714D01*
X105820952Y-110318095D01*
X105820952Y-110499047D01*
X105784761Y-110571428D01*
X105748571Y-110607619D01*
X105676190Y-110643809D01*
X105495238Y-110643809D01*
X105422857Y-110607619D01*
X105386666Y-110571428D01*
D12*
X116238095Y-81891428D02*
X117000000Y-81891428D01*
X116619047Y-82272380D02*
X116619047Y-81510476D01*
X117952380Y-81272380D02*
X117476190Y-81272380D01*
X117428571Y-81748571D01*
X117476190Y-81700952D01*
X117571428Y-81653333D01*
X117809523Y-81653333D01*
X117904761Y-81700952D01*
X117952380Y-81748571D01*
X118000000Y-81843809D01*
X118000000Y-82081904D01*
X117952380Y-82177142D01*
X117904761Y-82224761D01*
X117809523Y-82272380D01*
X117571428Y-82272380D01*
X117476190Y-82224761D01*
X117428571Y-82177142D01*
X118285714Y-81272380D02*
X118619047Y-82272380D01*
X118952380Y-81272380D01*
X119476190Y-81272380D02*
X119571428Y-81272380D01*
X119666666Y-81320000D01*
X119714285Y-81367619D01*
X119761904Y-81462857D01*
X119809523Y-81653333D01*
X119809523Y-81891428D01*
X119761904Y-82081904D01*
X119714285Y-82177142D01*
X119666666Y-82224761D01*
X119571428Y-82272380D01*
X119476190Y-82272380D01*
X119380952Y-82224761D01*
X119333333Y-82177142D01*
X119285714Y-82081904D01*
X119238095Y-81891428D01*
X119238095Y-81653333D01*
X119285714Y-81462857D01*
X119333333Y-81367619D01*
X119380952Y-81320000D01*
X119476190Y-81272380D01*
X65535500Y-102008142D02*
X65487880Y-102055761D01*
X65345023Y-102103380D01*
X65249785Y-102103380D01*
X65106928Y-102055761D01*
X65011690Y-101960523D01*
X64964071Y-101865285D01*
X64916452Y-101674809D01*
X64916452Y-101531952D01*
X64964071Y-101341476D01*
X65011690Y-101246238D01*
X65106928Y-101151000D01*
X65249785Y-101103380D01*
X65345023Y-101103380D01*
X65487880Y-101151000D01*
X65535500Y-101198619D01*
X65916452Y-101817666D02*
X66392642Y-101817666D01*
X65821214Y-102103380D02*
X66154547Y-101103380D01*
X66487880Y-102103380D01*
X67392642Y-102103380D02*
X67059309Y-101627190D01*
X66821214Y-102103380D02*
X66821214Y-101103380D01*
X67202166Y-101103380D01*
X67297404Y-101151000D01*
X67345023Y-101198619D01*
X67392642Y-101293857D01*
X67392642Y-101436714D01*
X67345023Y-101531952D01*
X67297404Y-101579571D01*
X67202166Y-101627190D01*
X66821214Y-101627190D01*
X67678357Y-101103380D02*
X68249785Y-101103380D01*
X67964071Y-102103380D02*
X67964071Y-101103380D01*
X117018095Y-86400000D02*
X116922857Y-86352380D01*
X116780000Y-86352380D01*
X116637142Y-86400000D01*
X116541904Y-86495238D01*
X116494285Y-86590476D01*
X116446666Y-86780952D01*
X116446666Y-86923809D01*
X116494285Y-87114285D01*
X116541904Y-87209523D01*
X116637142Y-87304761D01*
X116780000Y-87352380D01*
X116875238Y-87352380D01*
X117018095Y-87304761D01*
X117065714Y-87257142D01*
X117065714Y-86923809D01*
X116875238Y-86923809D01*
X117494285Y-87352380D02*
X117494285Y-86352380D01*
X118065714Y-87352380D01*
X118065714Y-86352380D01*
X118541904Y-87352380D02*
X118541904Y-86352380D01*
X118780000Y-86352380D01*
X118922857Y-86400000D01*
X119018095Y-86495238D01*
X119065714Y-86590476D01*
X119113333Y-86780952D01*
X119113333Y-86923809D01*
X119065714Y-87114285D01*
X119018095Y-87209523D01*
X118922857Y-87304761D01*
X118780000Y-87352380D01*
X118541904Y-87352380D01*
D11*
X99449523Y-110643809D02*
X99196190Y-110281904D01*
X99015238Y-110643809D02*
X99015238Y-109883809D01*
X99304761Y-109883809D01*
X99377142Y-109920000D01*
X99413333Y-109956190D01*
X99449523Y-110028571D01*
X99449523Y-110137142D01*
X99413333Y-110209523D01*
X99377142Y-110245714D01*
X99304761Y-110281904D01*
X99015238Y-110281904D01*
X100100952Y-109883809D02*
X99956190Y-109883809D01*
X99883809Y-109920000D01*
X99847619Y-109956190D01*
X99775238Y-110064761D01*
X99739047Y-110209523D01*
X99739047Y-110499047D01*
X99775238Y-110571428D01*
X99811428Y-110607619D01*
X99883809Y-110643809D01*
X100028571Y-110643809D01*
X100100952Y-110607619D01*
X100137142Y-110571428D01*
X100173333Y-110499047D01*
X100173333Y-110318095D01*
X100137142Y-110245714D01*
X100100952Y-110209523D01*
X100028571Y-110173333D01*
X99883809Y-110173333D01*
X99811428Y-110209523D01*
X99775238Y-110245714D01*
X99739047Y-110318095D01*
X100643809Y-109883809D02*
X100716190Y-109883809D01*
X100788571Y-109920000D01*
X100824761Y-109956190D01*
X100860952Y-110028571D01*
X100897142Y-110173333D01*
X100897142Y-110354285D01*
X100860952Y-110499047D01*
X100824761Y-110571428D01*
X100788571Y-110607619D01*
X100716190Y-110643809D01*
X100643809Y-110643809D01*
X100571428Y-110607619D01*
X100535238Y-110571428D01*
X100499047Y-110499047D01*
X100462857Y-110354285D01*
X100462857Y-110173333D01*
X100499047Y-110028571D01*
X100535238Y-109956190D01*
X100571428Y-109920000D01*
X100643809Y-109883809D01*
X101222857Y-110571428D02*
X101259047Y-110607619D01*
X101222857Y-110643809D01*
X101186666Y-110607619D01*
X101222857Y-110571428D01*
X101222857Y-110643809D01*
X101584761Y-110571428D02*
X101620952Y-110607619D01*
X101584761Y-110643809D01*
X101548571Y-110607619D01*
X101584761Y-110571428D01*
X101584761Y-110643809D01*
D12*
X98923809Y-103452380D02*
X98923809Y-102452380D01*
X99352380Y-102547619D02*
X99400000Y-102500000D01*
X99495238Y-102452380D01*
X99733333Y-102452380D01*
X99828571Y-102500000D01*
X99876190Y-102547619D01*
X99923809Y-102642857D01*
X99923809Y-102738095D01*
X99876190Y-102880952D01*
X99304761Y-103452380D01*
X99923809Y-103452380D01*
X100923809Y-103357142D02*
X100876190Y-103404761D01*
X100733333Y-103452380D01*
X100638095Y-103452380D01*
X100495238Y-103404761D01*
X100400000Y-103309523D01*
X100352380Y-103214285D01*
X100304761Y-103023809D01*
X100304761Y-102880952D01*
X100352380Y-102690476D01*
X100400000Y-102595238D01*
X100495238Y-102500000D01*
X100638095Y-102452380D01*
X100733333Y-102452380D01*
X100876190Y-102500000D01*
X100923809Y-102547619D01*
D11*
X134053333Y-111621428D02*
X134089523Y-111657619D01*
X134053333Y-111693809D01*
X134017142Y-111657619D01*
X134053333Y-111621428D01*
X134053333Y-111693809D01*
X134415238Y-111621428D02*
X134451428Y-111657619D01*
X134415238Y-111693809D01*
X134379047Y-111657619D01*
X134415238Y-111621428D01*
X134415238Y-111693809D01*
X135211428Y-111693809D02*
X134958095Y-111331904D01*
X134777142Y-111693809D02*
X134777142Y-110933809D01*
X135066666Y-110933809D01*
X135139047Y-110970000D01*
X135175238Y-111006190D01*
X135211428Y-111078571D01*
X135211428Y-111187142D01*
X135175238Y-111259523D01*
X135139047Y-111295714D01*
X135066666Y-111331904D01*
X134777142Y-111331904D01*
X135500952Y-111006190D02*
X135537142Y-110970000D01*
X135609523Y-110933809D01*
X135790476Y-110933809D01*
X135862857Y-110970000D01*
X135899047Y-111006190D01*
X135935238Y-111078571D01*
X135935238Y-111150952D01*
X135899047Y-111259523D01*
X135464761Y-111693809D01*
X135935238Y-111693809D01*
X136586666Y-111187142D02*
X136586666Y-111693809D01*
X136405714Y-110897619D02*
X136224761Y-111440476D01*
X136695238Y-111440476D01*
X137310476Y-111187142D02*
X137310476Y-111693809D01*
X137129523Y-110897619D02*
X136948571Y-111440476D01*
X137419047Y-111440476D01*
X62937619Y-111693809D02*
X62684285Y-111331904D01*
X62503333Y-111693809D02*
X62503333Y-110933809D01*
X62792857Y-110933809D01*
X62865238Y-110970000D01*
X62901428Y-111006190D01*
X62937619Y-111078571D01*
X62937619Y-111187142D01*
X62901428Y-111259523D01*
X62865238Y-111295714D01*
X62792857Y-111331904D01*
X62503333Y-111331904D01*
X63661428Y-111693809D02*
X63227142Y-111693809D01*
X63444285Y-111693809D02*
X63444285Y-110933809D01*
X63371904Y-111042380D01*
X63299523Y-111114761D01*
X63227142Y-111150952D01*
X63950952Y-111006190D02*
X63987142Y-110970000D01*
X64059523Y-110933809D01*
X64240476Y-110933809D01*
X64312857Y-110970000D01*
X64349047Y-111006190D01*
X64385238Y-111078571D01*
X64385238Y-111150952D01*
X64349047Y-111259523D01*
X63914761Y-111693809D01*
X64385238Y-111693809D01*
X64638571Y-110933809D02*
X65109047Y-110933809D01*
X64855714Y-111223333D01*
X64964285Y-111223333D01*
X65036666Y-111259523D01*
X65072857Y-111295714D01*
X65109047Y-111368095D01*
X65109047Y-111549047D01*
X65072857Y-111621428D01*
X65036666Y-111657619D01*
X64964285Y-111693809D01*
X64747142Y-111693809D01*
X64674761Y-111657619D01*
X64638571Y-111621428D01*
X65434761Y-111621428D02*
X65470952Y-111657619D01*
X65434761Y-111693809D01*
X65398571Y-111657619D01*
X65434761Y-111621428D01*
X65434761Y-111693809D01*
X65796666Y-111621428D02*
X65832857Y-111657619D01*
X65796666Y-111693809D01*
X65760476Y-111657619D01*
X65796666Y-111621428D01*
X65796666Y-111693809D01*
D12*
X116238095Y-84331428D02*
X117000000Y-84331428D01*
X116619047Y-84712380D02*
X116619047Y-83950476D01*
X117380952Y-83712380D02*
X118000000Y-83712380D01*
X117666666Y-84093333D01*
X117809523Y-84093333D01*
X117904761Y-84140952D01*
X117952380Y-84188571D01*
X118000000Y-84283809D01*
X118000000Y-84521904D01*
X117952380Y-84617142D01*
X117904761Y-84664761D01*
X117809523Y-84712380D01*
X117523809Y-84712380D01*
X117428571Y-84664761D01*
X117380952Y-84617142D01*
X118285714Y-83712380D02*
X118619047Y-84712380D01*
X118952380Y-83712380D01*
X119190476Y-83712380D02*
X119809523Y-83712380D01*
X119476190Y-84093333D01*
X119619047Y-84093333D01*
X119714285Y-84140952D01*
X119761904Y-84188571D01*
X119809523Y-84283809D01*
X119809523Y-84521904D01*
X119761904Y-84617142D01*
X119714285Y-84664761D01*
X119619047Y-84712380D01*
X119333333Y-84712380D01*
X119238095Y-84664761D01*
X119190476Y-84617142D01*
X147545666Y-128027380D02*
X147545666Y-128741666D01*
X147498047Y-128884523D01*
X147402809Y-128979761D01*
X147259952Y-129027380D01*
X147164714Y-129027380D01*
X148545666Y-129027380D02*
X147974238Y-129027380D01*
X148259952Y-129027380D02*
X148259952Y-128027380D01*
X148164714Y-128170238D01*
X148069476Y-128265476D01*
X147974238Y-128313095D01*
X148559228Y-118358230D02*
X148082628Y-118738960D01*
X144682868Y-115058640D02*
X144937058Y-114646180D01*
X48695321Y-115058640D02*
X48695321Y-115026940D01*
X55876114Y-115058640D02*
X55272421Y-115058640D01*
X48600000Y-114900000D02*
X48631750Y-114963500D01*
X151291748Y-115026900D02*
X151291748Y-115058600D01*
X150560958Y-112583940D02*
X150560958Y-112234940D01*
X54414539Y-125623700D02*
X54573408Y-119912860D01*
X55876114Y-115058640D02*
X57750749Y-115058640D01*
X52063302Y-111854210D02*
X52063302Y-111759010D01*
X99501045Y-119151410D02*
X99310405Y-119151410D01*
X148082628Y-118738960D02*
X147701348Y-119214860D01*
X146430408Y-117120880D02*
X147065868Y-117501600D01*
X48600000Y-114900000D02*
X48631750Y-114900000D01*
X105696865Y-125623700D02*
X105506224Y-125623700D01*
X147955538Y-110807230D02*
X147923738Y-110807230D01*
X152658048Y-112583940D02*
X152657998Y-112393570D01*
X52063302Y-112552210D02*
X52857643Y-112108030D01*
X145413658Y-115058640D02*
X145540748Y-115058640D01*
X103440951Y-117089160D02*
X103440951Y-119151410D01*
X63565288Y-119151410D02*
X63342876Y-119151410D01*
X51237198Y-113059840D02*
X51078328Y-112774300D01*
X60324397Y-113853010D02*
X57750749Y-113853010D01*
X53080054Y-118802410D02*
X53111804Y-119278320D01*
X67759381Y-122990370D02*
X67251009Y-122990370D01*
X143666138Y-120198400D02*
X143761438Y-120420480D01*
X144047398Y-119278320D02*
X143824978Y-119500400D01*
X136644188Y-125623700D02*
X136834828Y-125623700D01*
X98897350Y-125623700D02*
X98706710Y-125623700D01*
X104298834Y-119151410D02*
X104076420Y-119151410D01*
X145953808Y-114646180D02*
X147923758Y-114646180D01*
X52063302Y-112266670D02*
X52031552Y-112266670D01*
X138455278Y-119151410D02*
X139630888Y-119151410D01*
X101343905Y-117089160D02*
X101343905Y-119151410D01*
X150116118Y-117057430D02*
X149607748Y-117914060D01*
X52063302Y-111632080D02*
X52063302Y-111568630D01*
X148781638Y-113059840D02*
X148908738Y-112774300D01*
X149734838Y-112520480D02*
X149734838Y-112869480D01*
X146716368Y-119976310D02*
X146843458Y-119500400D01*
X139916808Y-113662640D02*
X140043898Y-113662640D01*
X48250490Y-114202010D02*
X48218740Y-114233710D01*
X143443698Y-129653020D02*
X143443698Y-125623700D01*
X147383568Y-109220890D02*
X147224698Y-109252590D01*
X56289166Y-120039760D02*
X56289166Y-119785940D01*
X52031531Y-110838960D02*
X52031531Y-110870660D01*
X52031531Y-112234940D02*
X52063281Y-112234940D01*
X85902016Y-120769480D02*
X86473937Y-120769480D01*
X152054308Y-113757830D02*
X151291748Y-115058640D01*
X145540748Y-115058640D02*
X145604348Y-115058640D01*
X55081801Y-120706030D02*
X55335991Y-120769530D01*
X146430408Y-121023290D02*
X146875228Y-120547390D01*
X56638705Y-111632130D02*
X56670427Y-111378310D01*
X73383279Y-122990370D02*
X72843128Y-122990370D01*
X145350108Y-119785940D02*
X145286508Y-119595580D01*
X64168980Y-119151410D02*
X63946569Y-119151410D01*
X55717252Y-119151410D02*
X55463062Y-119087910D01*
X140043948Y-111854210D02*
X139789758Y-111885910D01*
X82120977Y-120769480D02*
X82692899Y-120769480D01*
X145095928Y-119341770D02*
X144873508Y-119183130D01*
X105093170Y-125623700D02*
X105283810Y-125623700D01*
X52031531Y-118865870D02*
X51554930Y-118453410D01*
X54764049Y-119500400D02*
X54700479Y-119595600D01*
X143824978Y-119500400D02*
X143761378Y-119595600D01*
X103409178Y-129970290D02*
X101375678Y-129970290D01*
X144079268Y-119183150D02*
X143825078Y-119373520D01*
X48186920Y-114106830D02*
X48218698Y-114138530D01*
X143697838Y-120071490D02*
X143761438Y-120325300D01*
X52031531Y-111759030D02*
X52063281Y-111759030D01*
X95656460Y-125623700D02*
X98706710Y-125623700D01*
X52063302Y-111695580D02*
X52031552Y-111695580D01*
X52063302Y-112552210D02*
X51237198Y-113059840D01*
X52063302Y-112139760D02*
X52063302Y-112076260D01*
X144746418Y-115058640D02*
X145413658Y-115058640D01*
X53493107Y-109601610D02*
X52794094Y-109252610D01*
X47360837Y-112425300D02*
X47360836Y-112583940D01*
X144206268Y-110585140D02*
X144015628Y-110616840D01*
X53588427Y-129653020D02*
X53588427Y-115534540D01*
X52031531Y-111632130D02*
X52031531Y-111695630D01*
X54319218Y-113345380D02*
X54827591Y-114202010D01*
X56543356Y-129653020D02*
X60959869Y-129653020D01*
X143443698Y-129653020D02*
X145604298Y-129653020D01*
X56289174Y-120261830D02*
X56352744Y-120008020D01*
X47996308Y-113821290D02*
X48028058Y-113821290D01*
X54636950Y-120008040D02*
X54700520Y-120261850D01*
X54732270Y-120420480D02*
X54954689Y-120642570D01*
X60356168Y-119151410D02*
X60324418Y-113853010D01*
X152022528Y-113726110D02*
X152594448Y-112774300D01*
X137025468Y-119151410D02*
X136644188Y-119151410D01*
X55653703Y-112583940D02*
X56225624Y-112234940D01*
X54636950Y-120008040D02*
X54700520Y-120261850D01*
X146938778Y-118358230D02*
X146938778Y-118802410D01*
X86823445Y-120769480D02*
X87395367Y-120769480D01*
X151291748Y-115026900D02*
X150910468Y-115661450D01*
X49457883Y-112583980D02*
X49426133Y-112234940D01*
X144968838Y-120706010D02*
X145223028Y-120515650D01*
X52857643Y-115788350D02*
X53397786Y-116771890D01*
X142236318Y-114646180D02*
X142236318Y-113853010D01*
X54573408Y-115058640D02*
X54446310Y-115058640D01*
X52063302Y-111568670D02*
X52031552Y-111568670D01*
X143952078Y-120547390D02*
X144206268Y-120706030D01*
X56543356Y-125623700D02*
X56352716Y-119912860D01*
X56257416Y-120293580D02*
X56289166Y-120039760D01*
X49870935Y-117057430D02*
X50379315Y-117914060D01*
X142236318Y-115058640D02*
X142236318Y-114646180D01*
X145604298Y-129653020D02*
X146430408Y-129653020D01*
X55749023Y-110585140D02*
X55494833Y-110616840D01*
X61563561Y-119151410D02*
X62167254Y-119151410D01*
X105283810Y-119151410D02*
X105506224Y-119151410D01*
X145604298Y-115058640D02*
X145922028Y-115058640D01*
X144238038Y-120801210D02*
X144492228Y-120832910D01*
X144142718Y-119214830D02*
X144047418Y-119278330D01*
X60197306Y-113599150D02*
X60451489Y-113503950D01*
X51078328Y-112774300D02*
X50283995Y-112869500D01*
X52063302Y-112266670D02*
X52063302Y-112234970D01*
X94925671Y-125623700D02*
X95116311Y-125623700D01*
X105283810Y-119151410D02*
X105506224Y-119151410D01*
X67251009Y-120928110D02*
X67759381Y-120928110D01*
X104902529Y-119151410D02*
X105283810Y-119151410D01*
X54636930Y-119817680D02*
X54636930Y-120039760D01*
X141028918Y-129970290D02*
X145032378Y-129970290D01*
X147383608Y-117184340D02*
X147923758Y-116264250D01*
X48282240Y-114265490D02*
X48345839Y-114392370D01*
X48155170Y-114106830D02*
X48186920Y-114138530D01*
X56162075Y-120515650D02*
X56289174Y-120261830D01*
X135659218Y-125623700D02*
X106109920Y-125623700D01*
X138677688Y-125623700D02*
X139027198Y-125623700D01*
X100708436Y-125623700D02*
X100517795Y-125623700D01*
X56352744Y-120008020D02*
X56352716Y-119944580D01*
X145286658Y-119468680D02*
X145064248Y-119246590D01*
X54414539Y-129653020D02*
X56543356Y-129653020D01*
X151387068Y-111949400D02*
X151387068Y-112298390D01*
X47996308Y-113757830D02*
X47932738Y-113757830D01*
X53429543Y-120198400D02*
X53588405Y-120452210D01*
X52031531Y-111981130D02*
X52063281Y-111981130D01*
X145413718Y-120008020D02*
X145413658Y-119944580D01*
X105887505Y-125623700D02*
X106109920Y-125623700D01*
X99914100Y-119151410D02*
X100104741Y-119151410D01*
X81771469Y-122926910D02*
X81231321Y-122926910D01*
X52635224Y-117184360D02*
X52063302Y-116264250D01*
X145350108Y-120008040D02*
X145350108Y-119785940D01*
X136453548Y-125623700D02*
X136644188Y-125623700D01*
X54954689Y-129653020D02*
X54954689Y-129970290D01*
X143348358Y-111441770D02*
X143380078Y-111695580D01*
X56352716Y-119944580D02*
X56320966Y-119690760D01*
X61341150Y-125623700D02*
X60959869Y-125623700D01*
X52794094Y-117089160D02*
X52635224Y-117184360D01*
X135849858Y-119151410D02*
X106109920Y-119151410D01*
X136040498Y-125623700D02*
X135849858Y-125623700D01*
X137629158Y-119151410D02*
X137851578Y-119151410D01*
X143952078Y-120547390D02*
X144206268Y-120706030D01*
X100899076Y-125623700D02*
X100899076Y-129653020D01*
X147923758Y-110807230D02*
X147923758Y-112330120D01*
X144682868Y-110712040D02*
X144460458Y-110585140D01*
X56257395Y-119595580D02*
X56066755Y-119341770D01*
X64168980Y-125623700D02*
X93877147Y-125623700D01*
X48123378Y-113979950D02*
X48059829Y-113884720D01*
X139440208Y-113408800D02*
X139694388Y-113567440D01*
X52031531Y-111759030D02*
X52031531Y-111854230D01*
X147828438Y-115724900D02*
X147796638Y-115756600D01*
X143380158Y-111156220D02*
X143380158Y-111219720D01*
X101343905Y-117089160D02*
X100899076Y-117089160D01*
X54541630Y-111124500D02*
X55335971Y-110680320D01*
X52158623Y-115724900D02*
X52190373Y-115756600D01*
X144746418Y-120801210D02*
X144968838Y-120706010D01*
X145350108Y-119785940D02*
X145286508Y-119595580D01*
X53366015Y-115502810D02*
X52857643Y-115788350D01*
X48695321Y-114995180D02*
X48695321Y-115026880D01*
X56320966Y-119690760D02*
X56225646Y-119468680D01*
X52031531Y-112076310D02*
X52063281Y-112076310D01*
X105093170Y-125623700D02*
X104902529Y-125623700D01*
X55971434Y-119278320D02*
X55717252Y-119151410D01*
X52031531Y-110838960D02*
X52063281Y-110838960D01*
X47456157Y-112234940D02*
X47360837Y-112425300D01*
X52031531Y-110838960D02*
X52031531Y-110807260D01*
X60546858Y-112076240D02*
X60324447Y-111917610D01*
X48600000Y-114900000D02*
X48568250Y-114836500D01*
X54764049Y-119500400D02*
X54700479Y-119595600D01*
X137247878Y-119151410D02*
X137629158Y-119151410D01*
X105887505Y-119151410D02*
X106109920Y-119151410D01*
X53588427Y-119183130D02*
X52603453Y-119754220D01*
X138677688Y-125623700D02*
X137851578Y-125623700D01*
X104680115Y-119151410D02*
X104902529Y-119151410D01*
X47615026Y-112076350D02*
X47456157Y-112234940D01*
X95116311Y-125623700D02*
X95529366Y-125623700D01*
X101375678Y-129970290D02*
X101375678Y-128320490D01*
X52794094Y-117089160D02*
X52253943Y-116137350D01*
X48377560Y-114455870D02*
X48409339Y-114487520D01*
X100104741Y-119151410D02*
X100517795Y-119151410D01*
X52063302Y-111854210D02*
X52031552Y-111854210D01*
X49870935Y-117057430D02*
X50665276Y-116613250D01*
X60864569Y-112805960D02*
X60832819Y-112552140D01*
X55971434Y-119278320D02*
X55717252Y-119151410D01*
X52349263Y-119341770D02*
X52031531Y-118865870D01*
X145445428Y-111124500D02*
X146207988Y-111568670D01*
X63565288Y-119151410D02*
X63946569Y-119151410D01*
X143761438Y-119595580D02*
X143697838Y-119817680D01*
X86473937Y-122926910D02*
X85902016Y-122926910D01*
X144682868Y-120769530D02*
X144937058Y-120674330D01*
X60832819Y-112552140D02*
X60737499Y-112330060D01*
X61341150Y-125623700D02*
X61976614Y-125623700D01*
X66869727Y-122990370D02*
X64391400Y-122990370D01*
X104680115Y-125623700D02*
X104902529Y-125623700D01*
X151387068Y-111949400D02*
X152213168Y-112044600D01*
X52031531Y-110807230D02*
X52063281Y-110807230D01*
X142236318Y-115058640D02*
X144142718Y-115058640D01*
X52857643Y-115788350D02*
X52253943Y-116137350D01*
X48155170Y-114106830D02*
X48186920Y-114106830D01*
X53779067Y-111568670D02*
X54541630Y-111124500D01*
X52031531Y-110997590D02*
X52031531Y-110902390D01*
X55463062Y-119087910D02*
X55240650Y-119151410D01*
X145604298Y-125623700D02*
X145604298Y-129653020D01*
X100517795Y-125623700D02*
X100708436Y-125623700D01*
X138455278Y-119151410D02*
X137851578Y-119151410D01*
X48631751Y-114963400D02*
X48695341Y-114963460D01*
X53270695Y-115058640D02*
X54033257Y-114646180D01*
X152594448Y-112774300D02*
X152658048Y-112583940D01*
X53111804Y-119278320D02*
X53207124Y-119722490D01*
X139789758Y-111885910D02*
X139567348Y-112012820D01*
X144460458Y-110585140D02*
X144206268Y-110585140D01*
X145381888Y-120008040D02*
X144047398Y-119246590D01*
X144206268Y-120706030D02*
X144460458Y-120801230D01*
X55876114Y-115058640D02*
X55272421Y-115058640D01*
X54573408Y-115058640D02*
X55272421Y-115058640D01*
X87744875Y-120769480D02*
X90223203Y-120769480D01*
X52031531Y-111251410D02*
X52063281Y-111251410D01*
X60356168Y-119151410D02*
X61563561Y-119151410D01*
X55494833Y-110616840D02*
X55335971Y-110712060D01*
X100104741Y-125623700D02*
X100295381Y-125623700D01*
X146493948Y-109601610D02*
X146621048Y-109918870D01*
X48695321Y-114995180D02*
X48695321Y-114963480D01*
X144810058Y-119087950D02*
X144555868Y-119056250D01*
X47996308Y-113821290D02*
X47964558Y-113789590D01*
X48441131Y-114551000D02*
X48409381Y-114582700D01*
X48536451Y-114741360D02*
X48536451Y-114741360D01*
X52031531Y-111346590D02*
X52063281Y-111346590D01*
X103885779Y-129653020D02*
X103885779Y-125623700D01*
X54033257Y-114646180D02*
X52063302Y-114646180D01*
X105506224Y-125623700D02*
X105283810Y-125623700D01*
X62357895Y-119151410D02*
X62167254Y-119151410D01*
X103409178Y-116771890D02*
X101375678Y-116771890D01*
X48091628Y-114011650D02*
X48155198Y-114106850D01*
X144492228Y-120832910D02*
X144746418Y-120801210D01*
X143761438Y-120420480D02*
X144015628Y-120642570D01*
X145318338Y-110902410D02*
X146049128Y-110553420D01*
X55590174Y-120769530D02*
X55844364Y-120706030D01*
X54859390Y-120515670D02*
X55081801Y-120706030D01*
X105887505Y-119151410D02*
X105506224Y-119151410D01*
X52762323Y-109252610D02*
X52571682Y-109220910D01*
X56543356Y-125623700D02*
X56543356Y-129653020D01*
X48345810Y-114487550D02*
X48314060Y-114392350D01*
X55240650Y-119151410D02*
X54986460Y-119278320D01*
X54636972Y-119627330D02*
X54605222Y-119881140D01*
X55971463Y-110585140D02*
X55749023Y-110585140D01*
X48409360Y-114519280D02*
X48441110Y-114550980D01*
X85552508Y-122926910D02*
X83042407Y-122926910D01*
X50379315Y-117914060D02*
X50538177Y-117945760D01*
X71921703Y-120928110D02*
X72461847Y-120928110D01*
X47996308Y-113757830D02*
X47964558Y-113726130D01*
X52794094Y-117089160D02*
X53397786Y-116771890D01*
X104076420Y-125623700D02*
X103885779Y-125623700D01*
X139630888Y-119151410D02*
X139694488Y-113853010D01*
X56575135Y-111854210D02*
X59943116Y-111854210D01*
X47996308Y-113789550D02*
X48028058Y-113821250D01*
X150116118Y-117057430D02*
X149321788Y-116613250D01*
X136834828Y-125623700D02*
X137025468Y-125623700D01*
X54573408Y-115058640D02*
X54446310Y-115058640D01*
X52031531Y-111346590D02*
X52031531Y-111283090D01*
X143697988Y-119627330D02*
X143634388Y-119881140D01*
X147129418Y-112108030D02*
X147923758Y-112552210D01*
X139186068Y-112456990D02*
X139154268Y-112679080D01*
X101375678Y-117089160D02*
X101375678Y-116771890D01*
X58958142Y-129970290D02*
X58958142Y-129653020D01*
X103409178Y-117089160D02*
X103409178Y-118421690D01*
X145095928Y-119341770D02*
X144873508Y-119183130D01*
X52444583Y-116042170D02*
X52190401Y-115756630D01*
X53175375Y-120610850D02*
X53588427Y-121023290D01*
X145922028Y-110267870D02*
X146621048Y-109918870D01*
X135849858Y-125623700D02*
X135659218Y-125623700D01*
X143697838Y-120071490D02*
X143761438Y-120325300D01*
X103409178Y-128320490D02*
X103409178Y-129970290D01*
X144365138Y-119119630D02*
X144142718Y-119214830D01*
X53080054Y-118358230D02*
X53080054Y-118802410D01*
X54700520Y-120261850D02*
X54859390Y-120515670D01*
X144206268Y-120706030D02*
X144460458Y-120801230D01*
X144015628Y-120642570D02*
X144238038Y-120801210D01*
X136453548Y-119151410D02*
X136644188Y-119151410D01*
X142236318Y-113853010D02*
X139694438Y-113853010D01*
X139694388Y-113567440D02*
X139916808Y-113662640D01*
X50252216Y-112520480D02*
X49457883Y-112583980D01*
X94512616Y-125623700D02*
X94925671Y-125623700D01*
X55272421Y-115058640D02*
X54573408Y-115058640D01*
X101343905Y-129653020D02*
X101343905Y-125623700D01*
X52063302Y-111092770D02*
X52031552Y-111092770D01*
X76274659Y-120928110D02*
X76274659Y-122990370D01*
X145286568Y-119595580D02*
X145095928Y-119341770D01*
X56289166Y-120039760D02*
X56289166Y-119785940D01*
X52031531Y-112266670D02*
X52031531Y-112330170D01*
X52031531Y-111251410D02*
X52031531Y-111283110D01*
X147383608Y-119754220D02*
X147637798Y-119341770D01*
X104076420Y-119151410D02*
X104298834Y-119151410D01*
X60800999Y-113059780D02*
X60864569Y-112805960D01*
X54382768Y-115058640D02*
X54446338Y-115058640D01*
X55240650Y-119151410D02*
X54986460Y-119278320D01*
X55431291Y-120832910D02*
X55685473Y-120801210D01*
X99914100Y-119151410D02*
X99501045Y-119151410D01*
X143761438Y-119595580D02*
X143697838Y-119817680D01*
X147955538Y-112330120D02*
X147955538Y-110807230D01*
X47932758Y-113757830D02*
X47964508Y-113726130D01*
X99310405Y-125623700D02*
X99501045Y-125623700D01*
X48345810Y-114487550D02*
X48377560Y-114487550D01*
X78371713Y-122926910D02*
X78371713Y-120769480D01*
X62357895Y-125623700D02*
X62167254Y-125623700D01*
X82692899Y-122926910D02*
X82120977Y-122926910D01*
X55844364Y-120706030D02*
X56066775Y-120515670D01*
X52063302Y-112139760D02*
X52031552Y-112139760D01*
X52095081Y-109538170D02*
X52063331Y-109728530D01*
X136040498Y-119151410D02*
X135849858Y-119151410D01*
X145286568Y-119595580D02*
X145095928Y-119341770D01*
X135849858Y-119151410D02*
X136040498Y-119151410D01*
X54605179Y-120198400D02*
X54732270Y-120420480D01*
X144746418Y-111854210D02*
X144746418Y-111536950D01*
X55717252Y-119151410D02*
X55463062Y-119087910D01*
X54509859Y-111219680D02*
X55240650Y-111536950D01*
X147764898Y-116137350D02*
X147192968Y-117089160D01*
X143380158Y-111219720D02*
X143348358Y-111441770D01*
X48345810Y-114392370D02*
X48377560Y-114455870D01*
X145286568Y-119595580D02*
X143761438Y-119595580D01*
X137629158Y-125623700D02*
X137851578Y-125623700D01*
X142236318Y-115058640D02*
X142236318Y-114646180D01*
X103440951Y-125623700D02*
X103440951Y-129653020D01*
X101375678Y-128320490D02*
X103409178Y-128320490D01*
X147796668Y-115756630D02*
X147574248Y-116042170D01*
X52253943Y-116137350D02*
X52063302Y-116264250D01*
X55749044Y-119087950D02*
X55494854Y-119056250D01*
X100295381Y-125623700D02*
X100517795Y-125623700D01*
X48631771Y-112298390D02*
X48600021Y-111949400D01*
X143411928Y-111854210D02*
X144746418Y-111854210D01*
X72843128Y-120928110D02*
X73383279Y-120928110D01*
X57750749Y-113662650D02*
X59943116Y-113662650D01*
X143348378Y-119912860D02*
X145699618Y-119912860D01*
X55335991Y-120769530D02*
X55590174Y-120769530D01*
X62739176Y-119151410D02*
X62961595Y-119151410D01*
X144555868Y-119056250D02*
X144333458Y-119087950D01*
X83042407Y-120769480D02*
X85552508Y-120769480D01*
X137025468Y-125623700D02*
X137247878Y-125623700D01*
X54700500Y-119595580D02*
X54636930Y-119817680D01*
X48600000Y-114836540D02*
X48631750Y-114900040D01*
X55494854Y-119056250D02*
X55272443Y-119087950D01*
X52031531Y-112076310D02*
X52031531Y-111981110D01*
X105696865Y-125623700D02*
X105887505Y-125623700D01*
X104902529Y-125623700D02*
X104680115Y-125623700D01*
X147891938Y-109538150D02*
X147764848Y-109347790D01*
X52031531Y-112330120D02*
X52063281Y-112330120D01*
X147161198Y-115788350D02*
X146621048Y-115502810D01*
X52349263Y-119341770D02*
X52603453Y-119754220D01*
X48218719Y-114233730D02*
X48186969Y-114138530D01*
X52031531Y-111251410D02*
X52031531Y-111219710D01*
X99914100Y-125623700D02*
X99501045Y-125623700D01*
X55907893Y-120706010D02*
X56162075Y-120515650D01*
X143761438Y-120325300D02*
X143952078Y-120547390D01*
X62167254Y-125623700D02*
X61976614Y-125623700D01*
X56066755Y-119341770D02*
X55971435Y-119278270D01*
X144873508Y-119183130D02*
X144619328Y-119119630D01*
X145445428Y-111124500D02*
X145318338Y-110902410D01*
X147923758Y-110807230D02*
X147923758Y-109728510D01*
X63152236Y-125623700D02*
X63342876Y-125623700D01*
X52063302Y-111283130D02*
X52031552Y-111283130D01*
X146621048Y-115502810D02*
X146430408Y-115851810D01*
X55272443Y-119087950D02*
X55018253Y-119183150D01*
X48028079Y-113916470D02*
X48091649Y-114011670D01*
X146398608Y-115344180D02*
X146271508Y-115153820D01*
X144873508Y-119183130D02*
X144619328Y-119119630D01*
X52063302Y-111854210D02*
X52063302Y-111981130D01*
X101343908Y-129653020D02*
X100899076Y-129653020D01*
X54382768Y-115058640D02*
X54446338Y-115058640D01*
X147383608Y-119754220D02*
X147161198Y-120134940D01*
X137629158Y-125623700D02*
X137629158Y-125623700D01*
X104076420Y-125623700D02*
X104298834Y-125623700D01*
X98897350Y-119151410D02*
X98706710Y-119151410D01*
X56066755Y-119341770D02*
X55971435Y-119278270D01*
X137438518Y-125623700D02*
X137597388Y-125623700D01*
X99501045Y-125623700D02*
X99310405Y-125623700D01*
X56448036Y-112044580D02*
X56575135Y-111854210D01*
X48091628Y-114011650D02*
X48123378Y-113979950D01*
X146589268Y-116771890D02*
X147161198Y-115788350D01*
X55081801Y-120706030D02*
X55335991Y-120769530D01*
X63342876Y-119151410D02*
X63565288Y-119151410D01*
X146430408Y-115534540D02*
X146398608Y-115344180D01*
X62961595Y-125623700D02*
X63152236Y-125623700D01*
X60673908Y-113281860D02*
X60800999Y-113059780D01*
X149448878Y-117945780D02*
X149004058Y-118136150D01*
X56257416Y-120293580D02*
X56289166Y-120039760D01*
X51427839Y-118358210D02*
X50983008Y-118104420D01*
X55018253Y-119183150D02*
X54764070Y-119373520D01*
X103409178Y-129653020D02*
X103440948Y-129653020D01*
X54096807Y-110267870D02*
X53937937Y-110553420D01*
X54636930Y-119817680D02*
X54636930Y-120039760D01*
X52063302Y-111727330D02*
X52063302Y-111695610D01*
X147764848Y-109347790D02*
X147574208Y-109252590D01*
X57750749Y-115058640D02*
X57750749Y-114646180D01*
X54605222Y-119881140D02*
X54605222Y-119944640D01*
X52031531Y-111092770D02*
X52031531Y-111219680D01*
X52031531Y-112234940D02*
X52031531Y-112266640D01*
X52031531Y-111346590D02*
X52031531Y-111441790D01*
X56003213Y-110585140D02*
X55971463Y-110585140D01*
X152054308Y-113757830D02*
X152022508Y-113726130D01*
X60451489Y-113503950D02*
X60673908Y-113281860D01*
X137247878Y-119151410D02*
X137025468Y-119151410D01*
X48250490Y-114297190D02*
X48282240Y-114265490D01*
X144937058Y-120674330D02*
X145191248Y-120452240D01*
X142236318Y-113662650D02*
X140043948Y-113662650D01*
X48314039Y-114392370D02*
X48345789Y-114392370D01*
X48600000Y-111949400D02*
X47805667Y-112044600D01*
X137629158Y-125623700D02*
X137597458Y-125623700D01*
X52063302Y-112139760D02*
X52063302Y-112234960D01*
X99310405Y-125623700D02*
X98897350Y-125623700D01*
X57750749Y-114646180D02*
X57750749Y-115058640D01*
X57750749Y-113853010D02*
X57750749Y-113662650D01*
X48409360Y-114519280D02*
X48409360Y-114582780D01*
X146875228Y-120547390D02*
X147161198Y-120134940D01*
X52063302Y-111283130D02*
X52063302Y-111251430D01*
X104298834Y-125623700D02*
X104489475Y-125623700D01*
X52063302Y-111759030D02*
X52063302Y-111727330D01*
X145413658Y-115058640D02*
X145540748Y-115058640D01*
X99310405Y-119151410D02*
X99501045Y-119151410D01*
X98897350Y-119151410D02*
X98706710Y-119151410D01*
X54986460Y-119278320D02*
X54764049Y-119500400D01*
X48695341Y-114963460D02*
X48631751Y-114899960D01*
X63342876Y-119151410D02*
X62961595Y-119151410D01*
X144619328Y-119119630D02*
X144365138Y-119119630D01*
X56575135Y-111854210D02*
X56638705Y-111632130D01*
X101343905Y-117089160D02*
X101375675Y-117089160D01*
X52031531Y-111092770D02*
X52031531Y-110997570D01*
X147923758Y-112330120D02*
X147955558Y-112330120D01*
X142236318Y-113853010D02*
X142236318Y-113662650D01*
X137629158Y-125623700D02*
X137851578Y-125623700D01*
X139313158Y-112203180D02*
X139186068Y-112456990D01*
X63565288Y-125623700D02*
X63755928Y-125623700D01*
X52031531Y-111632130D02*
X52031531Y-111568630D01*
X94321976Y-125623700D02*
X93908921Y-125623700D01*
X52063302Y-112076260D02*
X52063302Y-111981110D01*
X63946569Y-125623700D02*
X63755928Y-125623700D01*
X147764898Y-116137350D02*
X147161198Y-115788350D01*
X69062094Y-120928110D02*
X71540422Y-120928110D01*
X103409178Y-116771890D02*
X103409178Y-117089160D01*
X55463062Y-119087910D02*
X55240650Y-119151410D01*
X48472909Y-114646180D02*
X48409339Y-114582680D01*
X55971434Y-119246590D02*
X54636950Y-120008040D01*
X49108373Y-115661450D02*
X48727092Y-115026900D01*
X55590174Y-120769530D02*
X55844364Y-120706030D01*
X146271508Y-115153820D02*
X146080868Y-115058620D01*
X93908921Y-125623700D02*
X93877151Y-125623700D01*
X62961595Y-119151410D02*
X62739176Y-119151410D01*
X56066775Y-120515670D02*
X56257416Y-120293580D01*
X144682868Y-120769530D02*
X144937058Y-120674330D01*
X149448878Y-117945780D02*
X149607748Y-117914080D01*
X144460458Y-120801230D02*
X144682868Y-120769530D01*
X56575135Y-111854210D02*
X55240650Y-111854210D01*
X146049128Y-110553420D02*
X145922028Y-110267870D01*
X76274659Y-122990370D02*
X73764560Y-122990370D01*
X54668729Y-110902410D02*
X53937937Y-110553420D01*
X53683747Y-115217230D02*
X53588427Y-115375870D01*
X94512616Y-125623700D02*
X94321976Y-125623700D01*
X57750749Y-113853010D02*
X57750749Y-114646180D01*
X143443698Y-125623700D02*
X143634338Y-119912860D01*
X52063302Y-110997590D02*
X52031552Y-110997590D01*
X52031531Y-111727310D02*
X52031531Y-111695610D01*
X62357895Y-119151410D02*
X62167254Y-119151410D01*
X143443698Y-111854210D02*
X143602568Y-112108030D01*
X98897350Y-119151410D02*
X99310405Y-119151410D01*
X52031531Y-110902410D02*
X52031531Y-110870710D01*
X52126852Y-117945780D02*
X51427839Y-118358230D01*
X146493948Y-109601610D02*
X147192968Y-109252610D01*
X137025468Y-119151410D02*
X137247878Y-119151410D01*
X60070257Y-111854110D02*
X59943166Y-111854110D01*
X47360836Y-112583940D02*
X47392586Y-112774300D01*
X48727092Y-115026900D02*
X48695342Y-115058600D01*
X103885779Y-129653020D02*
X103440951Y-129653020D01*
X104680115Y-125623700D02*
X104489475Y-125623700D01*
X147383608Y-119754220D02*
X146430408Y-119183130D01*
X54954689Y-120642570D02*
X55177101Y-120801210D01*
X146080868Y-115058620D02*
X145922008Y-115026920D01*
X52063302Y-112552210D02*
X52063302Y-114646180D01*
X144047398Y-119278320D02*
X143824978Y-119500400D01*
X139567348Y-112012820D02*
X139313158Y-112203180D01*
X138677688Y-125623700D02*
X138455278Y-119151410D01*
X141028918Y-129653020D02*
X141028918Y-129970290D01*
X145223028Y-120515650D02*
X145350118Y-120261830D01*
X55335991Y-120769530D02*
X55590174Y-120769530D01*
X52063302Y-111251430D02*
X52063302Y-111219710D01*
X146716368Y-115058640D02*
X145953808Y-114646180D01*
X81231321Y-120769480D02*
X81771469Y-120769480D01*
X48409360Y-114519280D02*
X48409360Y-114487580D01*
X48218719Y-114233730D02*
X48250469Y-114297230D01*
X147923758Y-112552210D02*
X147923758Y-114646180D01*
X98706710Y-125623700D02*
X98897350Y-125623700D01*
X146843458Y-119500400D02*
X146938758Y-119056230D01*
X150560958Y-112583940D02*
X149734838Y-112520440D01*
X145032378Y-129970290D02*
X145032378Y-129653020D01*
X54319218Y-113345380D02*
X54922911Y-112996380D01*
X52031531Y-111568670D02*
X52031531Y-111441770D01*
X52031531Y-110902410D02*
X52063281Y-110902410D01*
X47932758Y-113757830D02*
X47964508Y-113789530D01*
X105887505Y-125623700D02*
X106109920Y-125623700D01*
X136453548Y-125623700D02*
X136644188Y-125623700D01*
X54033257Y-114646180D02*
X57750749Y-114646180D01*
X103885779Y-125623700D02*
X100708436Y-125623700D01*
X52222172Y-109347810D02*
X52095081Y-109538170D01*
X148908738Y-112774300D02*
X149734838Y-112869500D01*
X59943116Y-113662650D02*
X60197306Y-113599150D01*
X147955538Y-109728510D02*
X147891938Y-109538150D01*
X53366015Y-109918870D02*
X53493107Y-109601610D01*
X71540422Y-122990370D02*
X69062094Y-122990370D01*
X54859390Y-120515670D02*
X55081801Y-120706030D01*
X52063302Y-111219680D02*
X52031552Y-111219680D01*
X144333458Y-119087950D02*
X144079268Y-119183150D01*
X62961595Y-125623700D02*
X62739176Y-125623700D01*
X52063302Y-111092770D02*
X52063302Y-110997570D01*
X48472909Y-114646180D02*
X48536479Y-114741380D01*
X48059850Y-113884740D02*
X48028100Y-113821240D01*
X56289166Y-119785940D02*
X56225596Y-119595580D01*
X145318338Y-120230150D02*
X145381938Y-120008060D01*
X55844364Y-120706030D02*
X56066775Y-120515670D01*
X56638677Y-119912860D02*
X54287447Y-119912860D01*
X137025468Y-125623700D02*
X137247878Y-125623700D01*
X101375678Y-129653020D02*
X101343908Y-129653020D01*
X54065028Y-115026900D02*
X53874388Y-115058600D01*
X54700520Y-120261850D02*
X54859390Y-120515670D01*
X52063302Y-111695610D02*
X52063302Y-111632080D01*
X63342876Y-125623700D02*
X63565288Y-125623700D01*
X103440951Y-117089160D02*
X103409181Y-117089160D01*
X55240650Y-111854210D02*
X55240650Y-111536950D01*
X149004058Y-118136150D02*
X148527458Y-118358230D01*
X103440951Y-117089160D02*
X103885779Y-117089160D01*
X145350108Y-120008040D02*
X145350108Y-119785940D01*
X143443698Y-129653020D02*
X139027198Y-129653020D01*
X52063302Y-110997570D02*
X52063302Y-110902390D01*
X146430408Y-120452210D02*
X146716368Y-119976310D01*
X48059850Y-113884740D02*
X48028100Y-113916440D01*
X136231138Y-125623700D02*
X136453548Y-125623700D01*
X51554930Y-118453410D02*
X51427839Y-118358210D01*
X143634388Y-119944640D02*
X143666138Y-120198400D01*
X50983008Y-118104420D02*
X50538177Y-117945780D01*
X48631771Y-112298390D02*
X49426112Y-112234890D01*
X54414539Y-129653020D02*
X53588427Y-129653020D01*
X48250469Y-114297230D02*
X48314060Y-114392390D01*
X145953808Y-114646180D02*
X142236318Y-114646180D01*
X135849858Y-125623700D02*
X136040498Y-125623700D01*
X55685473Y-120801210D02*
X55907893Y-120706010D01*
X48695321Y-115026940D02*
X48631751Y-114963400D01*
X101375678Y-118421690D02*
X101375678Y-117089160D01*
X143411928Y-111854210D02*
X140043948Y-111854210D01*
X54541630Y-111124500D02*
X54509880Y-111219700D01*
X78371713Y-120769480D02*
X80850040Y-120769480D01*
X52063302Y-110870680D02*
X52031552Y-110870680D01*
X62739176Y-125623700D02*
X62961595Y-125623700D01*
X55177101Y-120801210D02*
X55431291Y-120832910D01*
X54414539Y-129653020D02*
X54414539Y-125623700D01*
X53588427Y-117120880D02*
X52921185Y-117501600D01*
X145318338Y-120230150D02*
X145381938Y-120008060D01*
X62739176Y-125623700D02*
X62580314Y-125623700D01*
X52603453Y-119754220D02*
X52825865Y-120134940D01*
X47996308Y-113789530D02*
X47964558Y-113789550D01*
X63565288Y-125623700D02*
X63342876Y-125623700D01*
X147764898Y-116137350D02*
X147923758Y-116264250D01*
X48186948Y-114106830D02*
X48123378Y-113979920D01*
X143697838Y-119817680D02*
X143697838Y-120071490D01*
X144746418Y-115058640D02*
X144142718Y-115058640D01*
X100517795Y-119151410D02*
X100708436Y-119151410D01*
X90254976Y-122926910D02*
X87744875Y-122926910D01*
X139027198Y-125623700D02*
X139027198Y-129653020D01*
X72461847Y-122990370D02*
X71921703Y-122990370D01*
X60737499Y-112330060D02*
X60546858Y-112076240D01*
X51586701Y-116073890D02*
X52349263Y-115629720D01*
X147891988Y-117945780D02*
X148559228Y-118358230D01*
X48409360Y-114519280D02*
X48409360Y-114519280D01*
X52063302Y-110902390D02*
X52063302Y-110870710D01*
X146938758Y-119056230D02*
X146938758Y-118802410D01*
X145413658Y-119944580D02*
X145381958Y-119690760D01*
X152022508Y-113726130D02*
X151291748Y-115026900D01*
X87395367Y-122926910D02*
X86823445Y-122926910D01*
X63946569Y-119151410D02*
X64168980Y-119151410D01*
X145540748Y-115058640D02*
X145604348Y-115058640D01*
X136453548Y-119151410D02*
X136040498Y-119151410D01*
X48218719Y-114138550D02*
X48250469Y-114202050D01*
X152657998Y-112393570D02*
X152530908Y-112203210D01*
X143761438Y-120325300D02*
X143952078Y-120547390D01*
X55304192Y-115058640D02*
X55050010Y-114646180D01*
X145191248Y-120452240D02*
X145318338Y-120230150D01*
X137629158Y-119151410D02*
X137851578Y-119151410D01*
X145413658Y-119912860D02*
X145604298Y-125623700D01*
X50283995Y-112869500D02*
X50252245Y-112520480D01*
X144619328Y-119119630D02*
X144365138Y-119119630D01*
X61341150Y-125623700D02*
X61563561Y-119151410D01*
X100899076Y-119151410D02*
X100899076Y-117089160D01*
X143380078Y-111695580D02*
X143443758Y-111854210D01*
X145413658Y-115058640D02*
X144746418Y-115058640D01*
X47996308Y-113821290D02*
X48028058Y-113916490D01*
X56289166Y-119785940D02*
X56225596Y-119595580D01*
X152530908Y-112203210D02*
X152372038Y-112076310D01*
X139154268Y-112679080D02*
X139154268Y-112932890D01*
X73764560Y-120928110D02*
X76274659Y-120928110D01*
X52063302Y-111283130D02*
X52063302Y-111346630D01*
X148781638Y-113059840D02*
X147923758Y-112552210D01*
X53588427Y-116644980D02*
X53397786Y-116771890D01*
X143824978Y-119500400D02*
X143761378Y-119595600D01*
X52381042Y-109252610D02*
X52222172Y-109347810D01*
X56003234Y-119246590D02*
X55749044Y-119087950D01*
X54954689Y-129970290D02*
X58958142Y-129970290D01*
X60324447Y-111917610D02*
X60070257Y-111854110D01*
X55463062Y-121118470D02*
X55463062Y-118770690D01*
X146430408Y-115534540D02*
X146430408Y-129653020D01*
X147192968Y-117089160D02*
X147383608Y-117184360D01*
X145477208Y-111219680D02*
X144746418Y-111536950D01*
X52063302Y-112330120D02*
X52063302Y-112552210D01*
X100104741Y-125623700D02*
X99914100Y-125623700D01*
X139154268Y-112932890D02*
X139249568Y-113186710D01*
X145064248Y-119246590D02*
X144810058Y-119087950D01*
X63946569Y-125623700D02*
X64168980Y-125623700D01*
X52063302Y-110807230D02*
X52063302Y-109728510D01*
X48377589Y-114487550D02*
X48409339Y-114487550D01*
X147574208Y-109252590D02*
X147383568Y-109220890D01*
X52031531Y-111727310D02*
X52063281Y-111727310D01*
X147192968Y-117089160D02*
X146589268Y-116771890D01*
X53588427Y-115375870D02*
X53556677Y-115534500D01*
X147923758Y-112552210D02*
X147923758Y-112330120D01*
X48155198Y-114106850D02*
X48186920Y-114106830D01*
X52063302Y-110838960D02*
X52063302Y-110807260D01*
X52031531Y-111727310D02*
X52031531Y-111759010D01*
X144142718Y-115058640D02*
X144746418Y-115058640D01*
X100104741Y-119151410D02*
X99914100Y-119151410D01*
X104680115Y-119151410D02*
X104902529Y-119151410D01*
X56225624Y-112234940D02*
X56448036Y-112044580D01*
X56257395Y-119595580D02*
X56066755Y-119341770D01*
X48472909Y-114646180D02*
X48504659Y-114646180D01*
X48536451Y-114741360D02*
X48600021Y-114836560D01*
X100104741Y-125623700D02*
X99914100Y-125623700D01*
X136453548Y-119151410D02*
X136644188Y-119151410D01*
X60959869Y-125623700D02*
X60959869Y-129653020D01*
X52063302Y-112266670D02*
X52063302Y-112330170D01*
X64359621Y-122990370D02*
X64359621Y-120928110D01*
X144142718Y-119214830D02*
X144047418Y-119278330D01*
X144523998Y-121118470D02*
X144523998Y-118770690D01*
X64359621Y-120928110D02*
X66869727Y-120928110D01*
X101375678Y-118421690D02*
X103409178Y-118421690D01*
X104680115Y-119151410D02*
X104298834Y-119151410D01*
X147701348Y-119214860D02*
X147637748Y-119341770D01*
X150465628Y-116422890D02*
X150116118Y-117057430D01*
X48345810Y-114487550D02*
X48377560Y-114455850D01*
X145191248Y-120452240D02*
X145318338Y-120230150D01*
X54700500Y-119595580D02*
X54636930Y-119817680D01*
X52825865Y-120134940D02*
X53175375Y-120610850D01*
X48282269Y-114265460D02*
X48250519Y-114201960D01*
X54382768Y-115058640D02*
X54065028Y-115058640D01*
X48377589Y-114487550D02*
X48409339Y-114519250D01*
X48218698Y-114138530D02*
X48186969Y-114138550D01*
X48504659Y-114646180D02*
X48536430Y-114741380D01*
X95656460Y-125623700D02*
X95529366Y-125623700D01*
X56225646Y-119468680D02*
X56003234Y-119246590D01*
X148400358Y-116073890D02*
X147637798Y-115629720D01*
X47964529Y-113726110D02*
X47392607Y-112774300D01*
X143634388Y-119881140D02*
X143634388Y-119944640D01*
X143825078Y-119373520D02*
X143697988Y-119627330D01*
X52571682Y-109220910D02*
X52381042Y-109252610D01*
X145445428Y-111124500D02*
X144682868Y-110680320D01*
X48600000Y-114836540D02*
X48568250Y-114836540D01*
X145350118Y-120261830D02*
X145413718Y-120008020D01*
X54541630Y-111124500D02*
X54668729Y-110902410D01*
X90254976Y-120769480D02*
X90254976Y-122926910D01*
X49870935Y-117057430D02*
X49521433Y-116422890D01*
X64168980Y-125623700D02*
X63946569Y-125623700D01*
X47805667Y-112012850D02*
X47615026Y-112076350D01*
X52063302Y-110838960D02*
X52063302Y-110870660D01*
X48536451Y-114741360D02*
X48568201Y-114836560D01*
X52063302Y-111092770D02*
X52063302Y-111219680D01*
X144460458Y-120801230D02*
X144682868Y-120769530D01*
X52031531Y-111632130D02*
X52063281Y-111632130D01*
X54605222Y-119944640D02*
X54605179Y-120198400D01*
X52063302Y-111346590D02*
X52063302Y-111441790D01*
X104076420Y-119151410D02*
X100708436Y-119151410D01*
X52031531Y-112139760D02*
X52031531Y-112234960D01*
X104298834Y-125623700D02*
X104076420Y-125623700D01*
X105887505Y-119151410D02*
X106109920Y-119151410D01*
X53874388Y-115058600D02*
X53683747Y-115217230D01*
X62357895Y-125623700D02*
X62580314Y-125623700D01*
X54096807Y-110267870D02*
X53366015Y-109918870D01*
X52031531Y-112139760D02*
X52031531Y-112076260D01*
X48186948Y-114106830D02*
X48186948Y-114106830D01*
X68140662Y-120928110D02*
X68712584Y-120928110D01*
X143602568Y-112108030D02*
X143793208Y-112234940D01*
X145477208Y-111219680D02*
X145445408Y-111124480D01*
X142236318Y-114646180D02*
X142236318Y-113853010D01*
X144937058Y-120674330D02*
X145191248Y-120452240D01*
X54033257Y-114646180D02*
X54827591Y-114202010D01*
X145381958Y-119690760D02*
X145286658Y-119468680D01*
X56670427Y-111378310D02*
X56606885Y-111187950D01*
X53588427Y-115851810D02*
X53366015Y-115502810D01*
X56066775Y-120515670D02*
X56257416Y-120293580D01*
X68712584Y-122990370D02*
X68140662Y-122990370D01*
X52063302Y-111568630D02*
X52063302Y-111441770D01*
X62167254Y-125623700D02*
X62357895Y-125623700D01*
X152372038Y-112076310D02*
X152213168Y-112012810D01*
X48695321Y-114995180D02*
X48727071Y-115026880D01*
X47996308Y-113757830D02*
X47996308Y-113789530D01*
X143697838Y-119817680D02*
X143697838Y-120071490D01*
X54764070Y-119373520D02*
X54636972Y-119627330D01*
X100517795Y-119151410D02*
X100708436Y-119151410D01*
X80850040Y-122926910D02*
X78371713Y-122926910D01*
X139249568Y-113186710D02*
X139440208Y-113408800D01*
X145699618Y-113345380D02*
X145095928Y-112996380D01*
X52031531Y-111854230D02*
X52031531Y-111981130D01*
X48441131Y-114551000D02*
X48504701Y-114646200D01*
X144365138Y-112583940D02*
X143761438Y-112234940D01*
X145191248Y-114202010D02*
X145953808Y-114646180D01*
X105506224Y-125623700D02*
X105283810Y-125623700D01*
X150560958Y-112234940D02*
X151387068Y-112298440D01*
X62357895Y-119151410D02*
X62739176Y-119151410D01*
X64168980Y-119151410D02*
X98706710Y-119151410D01*
X57750749Y-114646180D02*
X57750749Y-113853010D01*
X56257395Y-119595580D02*
X54700500Y-119595580D01*
X146430408Y-116644980D02*
X146589268Y-116771890D01*
X54986460Y-119278320D02*
X54764049Y-119500400D01*
X144365138Y-119119630D02*
X144142718Y-119214830D01*
X103885779Y-119151410D02*
X103885779Y-117089160D01*
X136040498Y-125623700D02*
X136231138Y-125623700D01*
X145191248Y-114202010D02*
X145699618Y-113345380D01*
X137247878Y-125623700D02*
X137438518Y-125623700D01*
X53207124Y-119722490D02*
X53429543Y-120198400D01*
X52031531Y-111441790D02*
X52063281Y-111441770D01*
X59100000Y-74000000D02*
G75*
G03*
X59100000Y-74000000I-3100000J0D01*
G01*
X147100000Y-74000000D02*
G75*
G03*
X147100000Y-74000000I-3100000J0D01*
G01*
X59100000Y-134000000D02*
G75*
G03*
X59100000Y-134000000I-3100000J0D01*
G01*
X147100000Y-134000000D02*
G75*
G03*
X147100000Y-134000000I-3100000J0D01*
G01*
D13*
X89580000Y-113603641D02*
X89580000Y-113296359D01*
X88820000Y-113603641D02*
X88820000Y-113296359D01*
X96620000Y-115553641D02*
X96620000Y-115246359D01*
X97380000Y-115553641D02*
X97380000Y-115246359D01*
X99180000Y-113603641D02*
X99180000Y-113296359D01*
X98420000Y-113603641D02*
X98420000Y-113296359D01*
X81620000Y-113603641D02*
X81620000Y-113296359D01*
X82380000Y-113603641D02*
X82380000Y-113296359D01*
X107420000Y-115553641D02*
X107420000Y-115246359D01*
X108180000Y-115553641D02*
X108180000Y-115246359D01*
X115980000Y-113603641D02*
X115980000Y-113296359D01*
X115220000Y-113603641D02*
X115220000Y-113296359D01*
X125580000Y-113603641D02*
X125580000Y-113296359D01*
X124820000Y-113603641D02*
X124820000Y-113296359D01*
X63620000Y-113603641D02*
X63620000Y-113296359D01*
X64380000Y-113603641D02*
X64380000Y-113296359D01*
X131580000Y-113603641D02*
X131580000Y-113296359D01*
X130820000Y-113603641D02*
X130820000Y-113296359D01*
X84780000Y-113603641D02*
X84780000Y-113296359D01*
X84020000Y-113603641D02*
X84020000Y-113296359D01*
X105780000Y-115553641D02*
X105780000Y-115246359D01*
X105020000Y-115553641D02*
X105020000Y-115246359D01*
X89420000Y-115553641D02*
X89420000Y-115246359D01*
X90180000Y-115553641D02*
X90180000Y-115246359D01*
X82980000Y-115553641D02*
X82980000Y-115246359D01*
X82220000Y-115553641D02*
X82220000Y-115246359D01*
X116420000Y-113603641D02*
X116420000Y-113296359D01*
X117180000Y-113603641D02*
X117180000Y-113296359D01*
X114020000Y-113603641D02*
X114020000Y-113296359D01*
X114780000Y-113603641D02*
X114780000Y-113296359D01*
X82820000Y-113603641D02*
X82820000Y-113296359D01*
X83580000Y-113603641D02*
X83580000Y-113296359D01*
X66620000Y-115553641D02*
X66620000Y-115246359D01*
X67380000Y-115553641D02*
X67380000Y-115246359D01*
X113580000Y-113603641D02*
X113580000Y-113296359D01*
X112820000Y-113603641D02*
X112820000Y-113296359D01*
X134420000Y-113603641D02*
X134420000Y-113296359D01*
X135180000Y-113603641D02*
X135180000Y-113296359D01*
X77580000Y-113603641D02*
X77580000Y-113296359D01*
X76820000Y-113603641D02*
X76820000Y-113296359D01*
X91380000Y-115553641D02*
X91380000Y-115246359D01*
X90620000Y-115553641D02*
X90620000Y-115246359D01*
X95420000Y-115553641D02*
X95420000Y-115246359D01*
X96180000Y-115553641D02*
X96180000Y-115246359D01*
X135020000Y-115553641D02*
X135020000Y-115246359D01*
X135780000Y-115553641D02*
X135780000Y-115246359D01*
X76220000Y-115553641D02*
X76220000Y-115246359D01*
X76980000Y-115553641D02*
X76980000Y-115246359D01*
X72780000Y-113603641D02*
X72780000Y-113296359D01*
X72020000Y-113603641D02*
X72020000Y-113296359D01*
X98580000Y-115553641D02*
X98580000Y-115246359D01*
X97820000Y-115553641D02*
X97820000Y-115246359D01*
X87180000Y-113603641D02*
X87180000Y-113296359D01*
X86420000Y-113603641D02*
X86420000Y-113296359D01*
X67980000Y-113603641D02*
X67980000Y-113296359D01*
X67220000Y-113603641D02*
X67220000Y-113296359D01*
X91220000Y-113603641D02*
X91220000Y-113296359D01*
X91980000Y-113603641D02*
X91980000Y-113296359D01*
X121980000Y-113603641D02*
X121980000Y-113296359D01*
X121220000Y-113603641D02*
X121220000Y-113296359D01*
X126780000Y-113603641D02*
X126780000Y-113296359D01*
X126020000Y-113603641D02*
X126020000Y-113296359D01*
X66020000Y-113603641D02*
X66020000Y-113296359D01*
X66780000Y-113603641D02*
X66780000Y-113296359D01*
X71580000Y-113603641D02*
X71580000Y-113296359D01*
X70820000Y-113603641D02*
X70820000Y-113296359D01*
X99020000Y-115553641D02*
X99020000Y-115246359D01*
X99780000Y-115553641D02*
X99780000Y-115246359D01*
X112980000Y-115553641D02*
X112980000Y-115246359D01*
X112220000Y-115553641D02*
X112220000Y-115246359D01*
X134580000Y-115553641D02*
X134580000Y-115246359D01*
X133820000Y-115553641D02*
X133820000Y-115246359D01*
X75620000Y-113603641D02*
X75620000Y-113296359D01*
X76380000Y-113603641D02*
X76380000Y-113296359D01*
X113420000Y-115553641D02*
X113420000Y-115246359D01*
X114180000Y-115553641D02*
X114180000Y-115246359D01*
X94380000Y-113603641D02*
X94380000Y-113296359D01*
X93620000Y-113603641D02*
X93620000Y-113296359D01*
X126180000Y-115553641D02*
X126180000Y-115246359D01*
X125420000Y-115553641D02*
X125420000Y-115246359D01*
X87020000Y-115553641D02*
X87020000Y-115246359D01*
X87780000Y-115553641D02*
X87780000Y-115246359D01*
X117020000Y-115553641D02*
X117020000Y-115246359D01*
X117780000Y-115553641D02*
X117780000Y-115246359D01*
X132780000Y-113603641D02*
X132780000Y-113296359D01*
X132020000Y-113603641D02*
X132020000Y-113296359D01*
X70220000Y-115553641D02*
X70220000Y-115246359D01*
X70980000Y-115553641D02*
X70980000Y-115246359D01*
X121820000Y-115553641D02*
X121820000Y-115246359D01*
X122580000Y-115553641D02*
X122580000Y-115246359D01*
X81020000Y-115553641D02*
X81020000Y-115246359D01*
X81780000Y-115553641D02*
X81780000Y-115246359D01*
X74580000Y-115553641D02*
X74580000Y-115246359D01*
X73820000Y-115553641D02*
X73820000Y-115246359D01*
X94220000Y-115553641D02*
X94220000Y-115246359D01*
X94980000Y-115553641D02*
X94980000Y-115246359D01*
X127380000Y-115553641D02*
X127380000Y-115246359D01*
X126620000Y-115553641D02*
X126620000Y-115246359D01*
X78180000Y-115553641D02*
X78180000Y-115246359D01*
X77420000Y-115553641D02*
X77420000Y-115246359D01*
X97980000Y-113603641D02*
X97980000Y-113296359D01*
X97220000Y-113603641D02*
X97220000Y-113296359D01*
X104205000Y-111881359D02*
X104205000Y-112188641D01*
X103445000Y-111881359D02*
X103445000Y-112188641D01*
X130220000Y-115553641D02*
X130220000Y-115246359D01*
X130980000Y-115553641D02*
X130980000Y-115246359D01*
X73380000Y-115553641D02*
X73380000Y-115246359D01*
X72620000Y-115553641D02*
X72620000Y-115246359D01*
X95580000Y-113603641D02*
X95580000Y-113296359D01*
X94820000Y-113603641D02*
X94820000Y-113296359D01*
X79220000Y-113603641D02*
X79220000Y-113296359D01*
X79980000Y-113603641D02*
X79980000Y-113296359D01*
X85380000Y-115553641D02*
X85380000Y-115246359D01*
X84620000Y-115553641D02*
X84620000Y-115246359D01*
X62420000Y-113603641D02*
X62420000Y-113296359D01*
X63180000Y-113603641D02*
X63180000Y-113296359D01*
X69020000Y-115553641D02*
X69020000Y-115246359D01*
X69780000Y-115553641D02*
X69780000Y-115246359D01*
X123620000Y-113603641D02*
X123620000Y-113296359D01*
X124380000Y-113603641D02*
X124380000Y-113296359D01*
X63780000Y-115553641D02*
X63780000Y-115246359D01*
X63020000Y-115553641D02*
X63020000Y-115246359D01*
X74420000Y-113603641D02*
X74420000Y-113296359D01*
X75180000Y-113603641D02*
X75180000Y-113296359D01*
X73980000Y-113603641D02*
X73980000Y-113296359D01*
X73220000Y-113603641D02*
X73220000Y-113296359D01*
X136980000Y-115553641D02*
X136980000Y-115246359D01*
X136220000Y-115553641D02*
X136220000Y-115246359D01*
X105620000Y-113603641D02*
X105620000Y-113296359D01*
X106380000Y-113603641D02*
X106380000Y-113296359D01*
X80420000Y-113603641D02*
X80420000Y-113296359D01*
X81180000Y-113603641D02*
X81180000Y-113296359D01*
X117620000Y-113603641D02*
X117620000Y-113296359D01*
X118380000Y-113603641D02*
X118380000Y-113296359D01*
X127820000Y-115553641D02*
X127820000Y-115246359D01*
X128580000Y-115553641D02*
X128580000Y-115246359D01*
X72180000Y-115553641D02*
X72180000Y-115246359D01*
X71420000Y-115553641D02*
X71420000Y-115246359D01*
X118980000Y-115553641D02*
X118980000Y-115246359D01*
X118220000Y-115553641D02*
X118220000Y-115246359D01*
X120020000Y-113603641D02*
X120020000Y-113296359D01*
X120780000Y-113603641D02*
X120780000Y-113296359D01*
X75020000Y-115553641D02*
X75020000Y-115246359D01*
X75780000Y-115553641D02*
X75780000Y-115246359D01*
X102620000Y-114646359D02*
X102620000Y-114953641D01*
X103380000Y-114646359D02*
X103380000Y-114953641D01*
X92580000Y-115553641D02*
X92580000Y-115246359D01*
X91820000Y-115553641D02*
X91820000Y-115246359D01*
X65420000Y-115553641D02*
X65420000Y-115246359D01*
X66180000Y-115553641D02*
X66180000Y-115246359D01*
X88380000Y-113603641D02*
X88380000Y-113296359D01*
X87620000Y-113603641D02*
X87620000Y-113296359D01*
X85220000Y-113603641D02*
X85220000Y-113296359D01*
X85980000Y-113603641D02*
X85980000Y-113296359D01*
X118820000Y-113603641D02*
X118820000Y-113296359D01*
X119580000Y-113603641D02*
X119580000Y-113296359D01*
X127220000Y-113603641D02*
X127220000Y-113296359D01*
X127980000Y-113603641D02*
X127980000Y-113296359D01*
X90780000Y-113603641D02*
X90780000Y-113296359D01*
X90020000Y-113603641D02*
X90020000Y-113296359D01*
X102180000Y-114646359D02*
X102180000Y-114953641D01*
X101420000Y-114646359D02*
X101420000Y-114953641D01*
X85820000Y-115553641D02*
X85820000Y-115246359D01*
X86580000Y-115553641D02*
X86580000Y-115246359D01*
X109820000Y-115553641D02*
X109820000Y-115246359D01*
X110580000Y-115553641D02*
X110580000Y-115246359D01*
X99620000Y-113603641D02*
X99620000Y-113296359D01*
X100380000Y-113603641D02*
X100380000Y-113296359D01*
X106220000Y-115553641D02*
X106220000Y-115246359D01*
X106980000Y-115553641D02*
X106980000Y-115246359D01*
X108780000Y-113603641D02*
X108780000Y-113296359D01*
X108020000Y-113603641D02*
X108020000Y-113296359D01*
X96780000Y-113603641D02*
X96780000Y-113296359D01*
X96020000Y-113603641D02*
X96020000Y-113296359D01*
X64980000Y-115553641D02*
X64980000Y-115246359D01*
X64220000Y-115553641D02*
X64220000Y-115246359D01*
X114620000Y-115553641D02*
X114620000Y-115246359D01*
X115380000Y-115553641D02*
X115380000Y-115246359D01*
X136380000Y-113603641D02*
X136380000Y-113296359D01*
X135620000Y-113603641D02*
X135620000Y-113296359D01*
X79380000Y-115553641D02*
X79380000Y-115246359D01*
X78620000Y-115553641D02*
X78620000Y-115246359D01*
X110420000Y-113603641D02*
X110420000Y-113296359D01*
X111180000Y-113603641D02*
X111180000Y-113296359D01*
X109980000Y-113603641D02*
X109980000Y-113296359D01*
X109220000Y-113603641D02*
X109220000Y-113296359D01*
X88220000Y-115553641D02*
X88220000Y-115246359D01*
X88980000Y-115553641D02*
X88980000Y-115246359D01*
X132180000Y-115553641D02*
X132180000Y-115246359D01*
X131420000Y-115553641D02*
X131420000Y-115246359D01*
X100980000Y-115553641D02*
X100980000Y-115246359D01*
X100220000Y-115553641D02*
X100220000Y-115246359D01*
X69620000Y-113603641D02*
X69620000Y-113296359D01*
X70380000Y-113603641D02*
X70380000Y-113296359D01*
X137580000Y-113603641D02*
X137580000Y-113296359D01*
X136820000Y-113603641D02*
X136820000Y-113296359D01*
X122420000Y-113603641D02*
X122420000Y-113296359D01*
X123180000Y-113603641D02*
X123180000Y-113296359D01*
X68420000Y-113603641D02*
X68420000Y-113296359D01*
X69180000Y-113603641D02*
X69180000Y-113296359D01*
X111780000Y-115553641D02*
X111780000Y-115246359D01*
X111020000Y-115553641D02*
X111020000Y-115246359D01*
X79820000Y-115553641D02*
X79820000Y-115246359D01*
X80580000Y-115553641D02*
X80580000Y-115246359D01*
X101545000Y-111881359D02*
X101545000Y-112188641D01*
X102305000Y-111881359D02*
X102305000Y-112188641D01*
X68580000Y-115553641D02*
X68580000Y-115246359D01*
X67820000Y-115553641D02*
X67820000Y-115246359D01*
X128420000Y-113603641D02*
X128420000Y-113296359D01*
X129180000Y-113603641D02*
X129180000Y-113296359D01*
X137420000Y-115553641D02*
X137420000Y-115246359D01*
X138180000Y-115553641D02*
X138180000Y-115246359D01*
X121380000Y-115553641D02*
X121380000Y-115246359D01*
X120620000Y-115553641D02*
X120620000Y-115246359D01*
X115820000Y-115553641D02*
X115820000Y-115246359D01*
X116580000Y-115553641D02*
X116580000Y-115246359D01*
X104580000Y-115553641D02*
X104580000Y-115246359D01*
X103820000Y-115553641D02*
X103820000Y-115246359D01*
X120180000Y-115553641D02*
X120180000Y-115246359D01*
X119420000Y-115553641D02*
X119420000Y-115246359D01*
X93020000Y-115553641D02*
X93020000Y-115246359D01*
X93780000Y-115553641D02*
X93780000Y-115246359D01*
X108620000Y-115553641D02*
X108620000Y-115246359D01*
X109380000Y-115553641D02*
X109380000Y-115246359D01*
X106820000Y-113603641D02*
X106820000Y-113296359D01*
X107580000Y-113603641D02*
X107580000Y-113296359D01*
X130380000Y-113603641D02*
X130380000Y-113296359D01*
X129620000Y-113603641D02*
X129620000Y-113296359D01*
X129780000Y-115553641D02*
X129780000Y-115246359D01*
X129020000Y-115553641D02*
X129020000Y-115246359D01*
X105180000Y-113603641D02*
X105180000Y-113296359D01*
X104420000Y-113603641D02*
X104420000Y-113296359D01*
X78020000Y-113603641D02*
X78020000Y-113296359D01*
X78780000Y-113603641D02*
X78780000Y-113296359D01*
X103255000Y-111881359D02*
X103255000Y-112188641D01*
X102495000Y-111881359D02*
X102495000Y-112188641D01*
X133980000Y-113603641D02*
X133980000Y-113296359D01*
X133220000Y-113603641D02*
X133220000Y-113296359D01*
X92420000Y-113603641D02*
X92420000Y-113296359D01*
X93180000Y-113603641D02*
X93180000Y-113296359D01*
X84180000Y-115553641D02*
X84180000Y-115246359D01*
X83420000Y-115553641D02*
X83420000Y-115246359D01*
X100595000Y-111881359D02*
X100595000Y-112188641D01*
X101355000Y-111881359D02*
X101355000Y-112188641D01*
X123780000Y-115553641D02*
X123780000Y-115246359D01*
X123020000Y-115553641D02*
X123020000Y-115246359D01*
X112380000Y-113603641D02*
X112380000Y-113296359D01*
X111620000Y-113603641D02*
X111620000Y-113296359D01*
X62580000Y-115553641D02*
X62580000Y-115246359D01*
X61820000Y-115553641D02*
X61820000Y-115246359D01*
X132620000Y-115553641D02*
X132620000Y-115246359D01*
X133380000Y-115553641D02*
X133380000Y-115246359D01*
X65580000Y-113603641D02*
X65580000Y-113296359D01*
X64820000Y-113603641D02*
X64820000Y-113296359D01*
X124220000Y-115553641D02*
X124220000Y-115246359D01*
X124980000Y-115553641D02*
X124980000Y-115246359D01*
M02*
