G04 #@! TF.GenerationSoftware,KiCad,Pcbnew,5.0.2-bee76a0~70~ubuntu18.04.1*
G04 #@! TF.CreationDate,2020-04-09T14:35:26+02:00*
G04 #@! TF.ProjectId,ModulAdapter,4d6f6475-6c41-4646-9170-7465722e6b69,rev?*
G04 #@! TF.SameCoordinates,Original*
G04 #@! TF.FileFunction,Copper,L2,Bot*
G04 #@! TF.FilePolarity,Positive*
%FSLAX46Y46*%
G04 Gerber Fmt 4.6, Leading zero omitted, Abs format (unit mm)*
G04 Created by KiCad (PCBNEW 5.0.2-bee76a0~70~ubuntu18.04.1) date Do 09 Apr 2020 14:35:26 CEST*
%MOMM*%
%LPD*%
G01*
G04 APERTURE LIST*
G04 #@! TA.AperFunction,SMDPad,CuDef*
%ADD10R,0.500000X1.480000*%
G04 #@! TD*
G04 #@! TA.AperFunction,SMDPad,CuDef*
%ADD11R,1.480000X0.500000*%
G04 #@! TD*
G04 #@! TA.AperFunction,SMDPad,CuDef*
%ADD12R,1.250000X1.000000*%
G04 #@! TD*
G04 #@! TA.AperFunction,SMDPad,CuDef*
%ADD13R,2.000000X1.300000*%
G04 #@! TD*
G04 #@! TA.AperFunction,SMDPad,CuDef*
%ADD14R,0.300000X1.000000*%
G04 #@! TD*
G04 #@! TA.AperFunction,ViaPad*
%ADD15C,0.600000*%
G04 #@! TD*
G04 #@! TA.AperFunction,ViaPad*
%ADD16C,0.800000*%
G04 #@! TD*
G04 #@! TA.AperFunction,Conductor*
%ADD17C,0.200000*%
G04 #@! TD*
G04 #@! TA.AperFunction,Conductor*
%ADD18C,0.500000*%
G04 #@! TD*
G04 #@! TA.AperFunction,Conductor*
%ADD19C,0.300000*%
G04 #@! TD*
G04 #@! TA.AperFunction,Conductor*
%ADD20C,0.250000*%
G04 #@! TD*
G04 #@! TA.AperFunction,Conductor*
%ADD21C,0.150000*%
G04 #@! TD*
G04 #@! TA.AperFunction,Conductor*
%ADD22C,0.254000*%
G04 #@! TD*
G04 APERTURE END LIST*
D10*
G04 #@! TO.P,U4,1*
G04 #@! TO.N,Net-(J1-Pad197)*
X109800000Y-91260000D03*
G04 #@! TO.P,U4,2*
G04 #@! TO.N,Net-(J1-Pad199)*
X110600000Y-91260000D03*
G04 #@! TO.P,U4,3*
G04 #@! TO.N,Net-(J1-Pad201)*
X111400000Y-91260000D03*
G04 #@! TO.P,U4,4*
G04 #@! TO.N,Net-(J1-Pad203)*
X112200000Y-91260000D03*
G04 #@! TO.P,U4,5*
G04 #@! TO.N,Net-(J1-Pad205)*
X113000000Y-91260000D03*
G04 #@! TO.P,U4,6*
G04 #@! TO.N,Net-(J1-Pad207)*
X113800000Y-91260000D03*
G04 #@! TO.P,U4,7*
G04 #@! TO.N,Net-(J1-Pad209)*
X114600000Y-91260000D03*
G04 #@! TO.P,U4,8*
G04 #@! TO.N,Net-(J1-Pad211)*
X115400000Y-91260000D03*
G04 #@! TO.P,U4,9*
G04 #@! TO.N,Net-(J1-Pad213)*
X116200000Y-91260000D03*
G04 #@! TO.P,U4,10*
G04 #@! TO.N,Net-(J1-Pad215)*
X117000000Y-91260000D03*
G04 #@! TO.P,U4,11*
G04 #@! TO.N,Net-(J1-Pad217)*
X117800000Y-91260000D03*
G04 #@! TO.P,U4,12*
G04 #@! TO.N,Net-(J1-Pad219)*
X118600000Y-91260000D03*
G04 #@! TO.P,U4,13*
G04 #@! TO.N,Net-(J1-Pad221)*
X119400000Y-91260000D03*
G04 #@! TO.P,U4,14*
G04 #@! TO.N,Net-(J1-Pad223)*
X120200000Y-91260000D03*
G04 #@! TO.P,U4,15*
G04 #@! TO.N,Net-(J1-Pad225)*
X121000000Y-91260000D03*
G04 #@! TO.P,U4,16*
G04 #@! TO.N,Net-(J1-Pad227)*
X121800000Y-91260000D03*
G04 #@! TO.P,U4,17*
G04 #@! TO.N,Net-(J1-Pad229)*
X122600000Y-91260000D03*
G04 #@! TO.P,U4,18*
G04 #@! TO.N,Net-(J1-Pad231)*
X123400000Y-91260000D03*
G04 #@! TO.P,U4,19*
G04 #@! TO.N,Net-(J1-Pad233)*
X124200000Y-91260000D03*
G04 #@! TO.P,U4,20*
G04 #@! TO.N,Net-(J1-Pad235)*
X125000000Y-91260000D03*
G04 #@! TO.P,U4,21*
G04 #@! TO.N,Net-(J1-Pad237)*
X125800000Y-91260000D03*
G04 #@! TO.P,U4,22*
G04 #@! TO.N,Net-(J1-Pad239)*
X126600000Y-91260000D03*
G04 #@! TO.P,U4,23*
G04 #@! TO.N,Net-(J1-Pad241)*
X127400000Y-91260000D03*
G04 #@! TO.P,U4,24*
G04 #@! TO.N,Net-(J1-Pad243)*
X128200000Y-91260000D03*
D11*
G04 #@! TO.P,U4,25*
G04 #@! TO.N,N/C*
X130240000Y-93500000D03*
G04 #@! TO.P,U4,26*
G04 #@! TO.N,DI_C*
X130240000Y-94300000D03*
G04 #@! TO.P,U4,27*
G04 #@! TO.N,N/C*
X130240000Y-95100000D03*
G04 #@! TO.P,U4,28*
X130240000Y-95900000D03*
G04 #@! TO.P,U4,29*
X130240000Y-96700000D03*
G04 #@! TO.P,U4,30*
X130240000Y-97500000D03*
G04 #@! TO.P,U4,31*
G04 #@! TO.N,VDD_C*
X130240000Y-98300000D03*
G04 #@! TO.P,U4,32*
G04 #@! TO.N,GND_C*
X130240000Y-99100000D03*
G04 #@! TO.P,U4,33*
X130240000Y-99900000D03*
G04 #@! TO.P,U4,34*
X130240000Y-100700000D03*
G04 #@! TO.P,U4,35*
G04 #@! TO.N,N/C*
X130240000Y-101500000D03*
G04 #@! TO.P,U4,36*
X130240000Y-102300000D03*
G04 #@! TO.P,U4,37*
G04 #@! TO.N,CLK_C*
X130240000Y-103100000D03*
G04 #@! TO.P,U4,38*
G04 #@! TO.N,LE_C*
X130240000Y-103900000D03*
G04 #@! TO.P,U4,39*
G04 #@! TO.N,Net-(U2-Pad26)*
X130240000Y-104700000D03*
G04 #@! TO.P,U4,40*
G04 #@! TO.N,V_HV_C*
X130240000Y-105500000D03*
D10*
G04 #@! TO.P,U4,41*
G04 #@! TO.N,Net-(J1-Pad244)*
X128200000Y-107740000D03*
G04 #@! TO.P,U4,42*
G04 #@! TO.N,Net-(J1-Pad242)*
X127400000Y-107740000D03*
G04 #@! TO.P,U4,43*
G04 #@! TO.N,Net-(J1-Pad240)*
X126600000Y-107740000D03*
G04 #@! TO.P,U4,44*
G04 #@! TO.N,Net-(J1-Pad238)*
X125800000Y-107740000D03*
G04 #@! TO.P,U4,45*
G04 #@! TO.N,Net-(J1-Pad236)*
X125000000Y-107740000D03*
G04 #@! TO.P,U4,46*
G04 #@! TO.N,Net-(J1-Pad234)*
X124200000Y-107740000D03*
G04 #@! TO.P,U4,47*
G04 #@! TO.N,Net-(J1-Pad232)*
X123400000Y-107740000D03*
G04 #@! TO.P,U4,48*
G04 #@! TO.N,Net-(J1-Pad230)*
X122600000Y-107740000D03*
G04 #@! TO.P,U4,49*
G04 #@! TO.N,Net-(J1-Pad228)*
X121800000Y-107740000D03*
G04 #@! TO.P,U4,50*
G04 #@! TO.N,Net-(J1-Pad226)*
X121000000Y-107740000D03*
G04 #@! TO.P,U4,51*
G04 #@! TO.N,Net-(J1-Pad224)*
X120200000Y-107740000D03*
G04 #@! TO.P,U4,52*
G04 #@! TO.N,Net-(J1-Pad222)*
X119400000Y-107740000D03*
G04 #@! TO.P,U4,53*
G04 #@! TO.N,Net-(J1-Pad220)*
X118600000Y-107740000D03*
G04 #@! TO.P,U4,54*
G04 #@! TO.N,Net-(J1-Pad218)*
X117800000Y-107740000D03*
G04 #@! TO.P,U4,55*
G04 #@! TO.N,Net-(J1-Pad216)*
X117000000Y-107740000D03*
G04 #@! TO.P,U4,56*
G04 #@! TO.N,Net-(J1-Pad214)*
X116200000Y-107740000D03*
G04 #@! TO.P,U4,57*
G04 #@! TO.N,Net-(J1-Pad212)*
X115400000Y-107740000D03*
G04 #@! TO.P,U4,58*
G04 #@! TO.N,Net-(J1-Pad210)*
X114600000Y-107740000D03*
G04 #@! TO.P,U4,59*
G04 #@! TO.N,Net-(J1-Pad208)*
X113800000Y-107740000D03*
G04 #@! TO.P,U4,60*
G04 #@! TO.N,Net-(J1-Pad206)*
X113000000Y-107740000D03*
G04 #@! TO.P,U4,61*
G04 #@! TO.N,Net-(J1-Pad204)*
X112200000Y-107740000D03*
G04 #@! TO.P,U4,62*
G04 #@! TO.N,Net-(J1-Pad202)*
X111400000Y-107740000D03*
G04 #@! TO.P,U4,63*
G04 #@! TO.N,Net-(J1-Pad200)*
X110600000Y-107740000D03*
G04 #@! TO.P,U4,64*
G04 #@! TO.N,Net-(J1-Pad198)*
X109800000Y-107740000D03*
D11*
G04 #@! TO.P,U4,65*
G04 #@! TO.N,Net-(J1-Pad196)*
X107760000Y-105500000D03*
G04 #@! TO.P,U4,66*
G04 #@! TO.N,Net-(J1-Pad194)*
X107760000Y-104700000D03*
G04 #@! TO.P,U4,67*
G04 #@! TO.N,Net-(J1-Pad192)*
X107760000Y-103900000D03*
G04 #@! TO.P,U4,68*
G04 #@! TO.N,Net-(J1-Pad190)*
X107760000Y-103100000D03*
G04 #@! TO.P,U4,69*
G04 #@! TO.N,Net-(J1-Pad188)*
X107760000Y-102300000D03*
G04 #@! TO.P,U4,70*
G04 #@! TO.N,Net-(J1-Pad186)*
X107760000Y-101500000D03*
G04 #@! TO.P,U4,71*
G04 #@! TO.N,Net-(J1-Pad184)*
X107760000Y-100700000D03*
G04 #@! TO.P,U4,72*
G04 #@! TO.N,Net-(J1-Pad63)*
X107760000Y-99900000D03*
G04 #@! TO.P,U4,73*
G04 #@! TO.N,Net-(J1-Pad64)*
X107760000Y-99100000D03*
G04 #@! TO.P,U4,74*
G04 #@! TO.N,Net-(J1-Pad65)*
X107760000Y-98300000D03*
G04 #@! TO.P,U4,75*
G04 #@! TO.N,Net-(J1-Pad185)*
X107760000Y-97500000D03*
G04 #@! TO.P,U4,76*
G04 #@! TO.N,Net-(J1-Pad187)*
X107760000Y-96700000D03*
G04 #@! TO.P,U4,77*
G04 #@! TO.N,Net-(J1-Pad189)*
X107760000Y-95900000D03*
G04 #@! TO.P,U4,78*
G04 #@! TO.N,Net-(J1-Pad191)*
X107760000Y-95100000D03*
G04 #@! TO.P,U4,79*
G04 #@! TO.N,Net-(J1-Pad193)*
X107760000Y-94300000D03*
G04 #@! TO.P,U4,80*
G04 #@! TO.N,Net-(J1-Pad195)*
X107760000Y-93500000D03*
G04 #@! TD*
D10*
G04 #@! TO.P,U2,1*
G04 #@! TO.N,Net-(J1-Pad170)*
X90200000Y-107740000D03*
G04 #@! TO.P,U2,2*
G04 #@! TO.N,Net-(J1-Pad168)*
X89400000Y-107740000D03*
G04 #@! TO.P,U2,3*
G04 #@! TO.N,Net-(J1-Pad166)*
X88600000Y-107740000D03*
G04 #@! TO.P,U2,4*
G04 #@! TO.N,Net-(J1-Pad164)*
X87800000Y-107740000D03*
G04 #@! TO.P,U2,5*
G04 #@! TO.N,Net-(J1-Pad162)*
X87000000Y-107740000D03*
G04 #@! TO.P,U2,6*
G04 #@! TO.N,Net-(J1-Pad160)*
X86200000Y-107740000D03*
G04 #@! TO.P,U2,7*
G04 #@! TO.N,Net-(J1-Pad158)*
X85400000Y-107740000D03*
G04 #@! TO.P,U2,8*
G04 #@! TO.N,Net-(J1-Pad156)*
X84600000Y-107740000D03*
G04 #@! TO.P,U2,9*
G04 #@! TO.N,Net-(J1-Pad154)*
X83800000Y-107740000D03*
G04 #@! TO.P,U2,10*
G04 #@! TO.N,Net-(J1-Pad152)*
X83000000Y-107740000D03*
G04 #@! TO.P,U2,11*
G04 #@! TO.N,Net-(J1-Pad150)*
X82200000Y-107740000D03*
G04 #@! TO.P,U2,12*
G04 #@! TO.N,Net-(J1-Pad148)*
X81400000Y-107740000D03*
G04 #@! TO.P,U2,13*
G04 #@! TO.N,Net-(J1-Pad146)*
X80600000Y-107740000D03*
G04 #@! TO.P,U2,14*
G04 #@! TO.N,Net-(J1-Pad144)*
X79800000Y-107740000D03*
G04 #@! TO.P,U2,15*
G04 #@! TO.N,Net-(J1-Pad142)*
X79000000Y-107740000D03*
G04 #@! TO.P,U2,16*
G04 #@! TO.N,Net-(J1-Pad140)*
X78200000Y-107740000D03*
G04 #@! TO.P,U2,17*
G04 #@! TO.N,Net-(J1-Pad138)*
X77400000Y-107740000D03*
G04 #@! TO.P,U2,18*
G04 #@! TO.N,Net-(J1-Pad136)*
X76600000Y-107740000D03*
G04 #@! TO.P,U2,19*
G04 #@! TO.N,Net-(J1-Pad134)*
X75800000Y-107740000D03*
G04 #@! TO.P,U2,20*
G04 #@! TO.N,Net-(J1-Pad132)*
X75000000Y-107740000D03*
G04 #@! TO.P,U2,21*
G04 #@! TO.N,Net-(J1-Pad130)*
X74200000Y-107740000D03*
G04 #@! TO.P,U2,22*
G04 #@! TO.N,Net-(J1-Pad128)*
X73400000Y-107740000D03*
G04 #@! TO.P,U2,23*
G04 #@! TO.N,Net-(J1-Pad126)*
X72600000Y-107740000D03*
G04 #@! TO.P,U2,24*
G04 #@! TO.N,Net-(J1-Pad124)*
X71800000Y-107740000D03*
D11*
G04 #@! TO.P,U2,25*
G04 #@! TO.N,V_HV_C*
X69760000Y-105500000D03*
G04 #@! TO.P,U2,26*
G04 #@! TO.N,Net-(U2-Pad26)*
X69760000Y-104700000D03*
G04 #@! TO.P,U2,27*
G04 #@! TO.N,N/C*
X69760000Y-103900000D03*
G04 #@! TO.P,U2,28*
X69760000Y-103100000D03*
G04 #@! TO.P,U2,29*
G04 #@! TO.N,BL_C*
X69760000Y-102300000D03*
G04 #@! TO.P,U2,30*
G04 #@! TO.N,POL_C*
X69760000Y-101500000D03*
G04 #@! TO.P,U2,31*
G04 #@! TO.N,VDD_C*
X69760000Y-100700000D03*
G04 #@! TO.P,U2,32*
G04 #@! TO.N,GND_C*
X69760000Y-99900000D03*
G04 #@! TO.P,U2,33*
X69760000Y-99100000D03*
G04 #@! TO.P,U2,34*
X69760000Y-98300000D03*
G04 #@! TO.P,U2,35*
G04 #@! TO.N,N/C*
X69760000Y-97500000D03*
G04 #@! TO.P,U2,36*
X69760000Y-96700000D03*
G04 #@! TO.P,U2,37*
G04 #@! TO.N,CLK_C*
X69760000Y-95900000D03*
G04 #@! TO.P,U2,38*
G04 #@! TO.N,LE_C*
X69760000Y-95100000D03*
G04 #@! TO.P,U2,39*
G04 #@! TO.N,N/C*
X69760000Y-94300000D03*
G04 #@! TO.P,U2,40*
X69760000Y-93500000D03*
D10*
G04 #@! TO.P,U2,41*
G04 #@! TO.N,Net-(J1-Pad123)*
X71800000Y-91260000D03*
G04 #@! TO.P,U2,42*
G04 #@! TO.N,Net-(J1-Pad125)*
X72600000Y-91260000D03*
G04 #@! TO.P,U2,43*
G04 #@! TO.N,Net-(J1-Pad127)*
X73400000Y-91260000D03*
G04 #@! TO.P,U2,44*
G04 #@! TO.N,Net-(J1-Pad129)*
X74200000Y-91260000D03*
G04 #@! TO.P,U2,45*
G04 #@! TO.N,Net-(J1-Pad131)*
X75000000Y-91260000D03*
G04 #@! TO.P,U2,46*
G04 #@! TO.N,Net-(J1-Pad133)*
X75800000Y-91260000D03*
G04 #@! TO.P,U2,47*
G04 #@! TO.N,Net-(J1-Pad135)*
X76600000Y-91260000D03*
G04 #@! TO.P,U2,48*
G04 #@! TO.N,Net-(J1-Pad137)*
X77400000Y-91260000D03*
G04 #@! TO.P,U2,49*
G04 #@! TO.N,Net-(J1-Pad139)*
X78200000Y-91260000D03*
G04 #@! TO.P,U2,50*
G04 #@! TO.N,Net-(J1-Pad141)*
X79000000Y-91260000D03*
G04 #@! TO.P,U2,51*
G04 #@! TO.N,Net-(J1-Pad143)*
X79800000Y-91260000D03*
G04 #@! TO.P,U2,52*
G04 #@! TO.N,Net-(J1-Pad145)*
X80600000Y-91260000D03*
G04 #@! TO.P,U2,53*
G04 #@! TO.N,Net-(J1-Pad147)*
X81400000Y-91260000D03*
G04 #@! TO.P,U2,54*
G04 #@! TO.N,Net-(J1-Pad149)*
X82200000Y-91260000D03*
G04 #@! TO.P,U2,55*
G04 #@! TO.N,Net-(J1-Pad151)*
X83000000Y-91260000D03*
G04 #@! TO.P,U2,56*
G04 #@! TO.N,Net-(J1-Pad153)*
X83800000Y-91260000D03*
G04 #@! TO.P,U2,57*
G04 #@! TO.N,Net-(J1-Pad155)*
X84600000Y-91260000D03*
G04 #@! TO.P,U2,58*
G04 #@! TO.N,Net-(J1-Pad157)*
X85400000Y-91260000D03*
G04 #@! TO.P,U2,59*
G04 #@! TO.N,Net-(J1-Pad159)*
X86200000Y-91260000D03*
G04 #@! TO.P,U2,60*
G04 #@! TO.N,Net-(J1-Pad161)*
X87000000Y-91260000D03*
G04 #@! TO.P,U2,61*
G04 #@! TO.N,Net-(J1-Pad163)*
X87800000Y-91260000D03*
G04 #@! TO.P,U2,62*
G04 #@! TO.N,Net-(J1-Pad165)*
X88600000Y-91260000D03*
G04 #@! TO.P,U2,63*
G04 #@! TO.N,Net-(J1-Pad167)*
X89400000Y-91260000D03*
G04 #@! TO.P,U2,64*
G04 #@! TO.N,Net-(J1-Pad169)*
X90200000Y-91260000D03*
D11*
G04 #@! TO.P,U2,65*
G04 #@! TO.N,Net-(J1-Pad171)*
X92240000Y-93500000D03*
G04 #@! TO.P,U2,66*
G04 #@! TO.N,Net-(J1-Pad173)*
X92240000Y-94300000D03*
G04 #@! TO.P,U2,67*
G04 #@! TO.N,Net-(J1-Pad175)*
X92240000Y-95100000D03*
G04 #@! TO.P,U2,68*
G04 #@! TO.N,Net-(J1-Pad177)*
X92240000Y-95900000D03*
G04 #@! TO.P,U2,69*
G04 #@! TO.N,Net-(J1-Pad179)*
X92240000Y-96700000D03*
G04 #@! TO.P,U2,70*
G04 #@! TO.N,Net-(J1-Pad181)*
X92240000Y-97500000D03*
G04 #@! TO.P,U2,71*
G04 #@! TO.N,Net-(J1-Pad183)*
X92240000Y-98300000D03*
G04 #@! TO.P,U2,72*
G04 #@! TO.N,Net-(J1-Pad62)*
X92240000Y-99100000D03*
G04 #@! TO.P,U2,73*
G04 #@! TO.N,Net-(J1-Pad61)*
X92240000Y-99900000D03*
G04 #@! TO.P,U2,74*
G04 #@! TO.N,Net-(J1-Pad60)*
X92240000Y-100700000D03*
G04 #@! TO.P,U2,75*
G04 #@! TO.N,Net-(J1-Pad182)*
X92240000Y-101500000D03*
G04 #@! TO.P,U2,76*
G04 #@! TO.N,Net-(J1-Pad180)*
X92240000Y-102300000D03*
G04 #@! TO.P,U2,77*
G04 #@! TO.N,Net-(J1-Pad178)*
X92240000Y-103100000D03*
G04 #@! TO.P,U2,78*
G04 #@! TO.N,Net-(J1-Pad176)*
X92240000Y-103900000D03*
G04 #@! TO.P,U2,79*
G04 #@! TO.N,Net-(J1-Pad174)*
X92240000Y-104700000D03*
G04 #@! TO.P,U2,80*
G04 #@! TO.N,Net-(J1-Pad172)*
X92240000Y-105500000D03*
G04 #@! TD*
D12*
G04 #@! TO.P,C12,1*
G04 #@! TO.N,VDD_C*
X134000000Y-98500000D03*
G04 #@! TO.P,C12,2*
G04 #@! TO.N,GND_C*
X134000000Y-100500000D03*
G04 #@! TD*
G04 #@! TO.P,C13,1*
G04 #@! TO.N,VDD_C*
X66000000Y-100500000D03*
G04 #@! TO.P,C13,2*
G04 #@! TO.N,GND_C*
X66000000Y-98500000D03*
G04 #@! TD*
D13*
G04 #@! TO.P,J2,*
G04 #@! TO.N,*
X108050000Y-87500000D03*
X91950000Y-87500000D03*
D14*
G04 #@! TO.P,J2,1*
G04 #@! TO.N,+3V3*
X105750000Y-84800000D03*
G04 #@! TO.P,J2,2*
G04 #@! TO.N,V_GND*
X105250000Y-84800000D03*
G04 #@! TO.P,J2,3*
G04 #@! TO.N,GND*
X104750000Y-84800000D03*
G04 #@! TO.P,J2,4*
G04 #@! TO.N,DI_C*
X104250000Y-84800000D03*
G04 #@! TO.P,J2,5*
G04 #@! TO.N,GND*
X103750000Y-84800000D03*
G04 #@! TO.P,J2,6*
G04 #@! TO.N,BL_C*
X103250000Y-84800000D03*
G04 #@! TO.P,J2,7*
G04 #@! TO.N,GND*
X102750000Y-84800000D03*
G04 #@! TO.P,J2,8*
G04 #@! TO.N,POL_C*
X102250000Y-84800000D03*
G04 #@! TO.P,J2,9*
G04 #@! TO.N,GND*
X101750000Y-84800000D03*
G04 #@! TO.P,J2,10*
G04 #@! TO.N,LE_C*
X101250000Y-84800000D03*
G04 #@! TO.P,J2,11*
G04 #@! TO.N,GND*
X100750000Y-84800000D03*
G04 #@! TO.P,J2,12*
G04 #@! TO.N,CLK_C*
X100250000Y-84800000D03*
G04 #@! TO.P,J2,13*
G04 #@! TO.N,GND*
X99750000Y-84800000D03*
G04 #@! TO.P,J2,14*
G04 #@! TO.N,DIG1*
X99250000Y-84800000D03*
G04 #@! TO.P,J2,15*
G04 #@! TO.N,DIG0*
X98750000Y-84800000D03*
G04 #@! TO.P,J2,16*
G04 #@! TO.N,SENS_PAD*
X98250000Y-84800000D03*
G04 #@! TO.P,J2,17*
G04 #@! TO.N,GND*
X97750000Y-84800000D03*
G04 #@! TO.P,J2,18*
G04 #@! TO.N,VDD_C*
X97250000Y-84800000D03*
G04 #@! TO.P,J2,19*
G04 #@! TO.N,GND*
X96750000Y-84800000D03*
G04 #@! TO.P,J2,20*
G04 #@! TO.N,V_HV_C*
X96250000Y-84800000D03*
G04 #@! TO.P,J2,21*
G04 #@! TO.N,GND*
X95750000Y-84800000D03*
G04 #@! TO.P,J2,22*
G04 #@! TO.N,GND_C*
X95250000Y-84800000D03*
G04 #@! TO.P,J2,23*
X94750000Y-84800000D03*
G04 #@! TO.P,J2,24*
G04 #@! TO.N,GND*
X94250000Y-84800000D03*
G04 #@! TD*
D15*
G04 #@! TO.N,V_GND*
X139116000Y-126670000D03*
X108509000Y-72822000D03*
X108509000Y-78029000D03*
D16*
G04 #@! TO.N,VDD_C*
X97206000Y-75489000D03*
X105842000Y-76632000D03*
G04 #@! TO.N,GND_C*
X95047000Y-76378000D03*
X104191000Y-76632000D03*
D15*
G04 #@! TO.N,Net-(J1-Pad123)*
X71400000Y-105000000D03*
G04 #@! TO.N,Net-(J1-Pad124)*
X62800000Y-116600000D03*
G04 #@! TO.N,Net-(J1-Pad125)*
X72200000Y-105800000D03*
G04 #@! TO.N,Net-(J1-Pad126)*
X64000000Y-116600000D03*
G04 #@! TO.N,Net-(J1-Pad127)*
X73000000Y-105000000D03*
G04 #@! TO.N,Net-(J1-Pad128)*
X65200000Y-116600000D03*
G04 #@! TO.N,Net-(J1-Pad129)*
X73800000Y-105800000D03*
G04 #@! TO.N,Net-(J1-Pad130)*
X66400000Y-116600000D03*
G04 #@! TO.N,Net-(J1-Pad131)*
X74600000Y-105000000D03*
G04 #@! TO.N,Net-(J1-Pad132)*
X67600000Y-116600000D03*
G04 #@! TO.N,Net-(J1-Pad133)*
X75400000Y-105800000D03*
G04 #@! TO.N,Net-(J1-Pad134)*
X68800000Y-116600000D03*
G04 #@! TO.N,Net-(J1-Pad135)*
X76200000Y-105000000D03*
G04 #@! TO.N,Net-(J1-Pad136)*
X70000000Y-116600000D03*
G04 #@! TO.N,Net-(J1-Pad137)*
X77000000Y-105800000D03*
G04 #@! TO.N,Net-(J1-Pad138)*
X71200000Y-116600000D03*
G04 #@! TO.N,Net-(J1-Pad139)*
X77800000Y-105000000D03*
G04 #@! TO.N,Net-(J1-Pad140)*
X72400000Y-116600000D03*
G04 #@! TO.N,Net-(J1-Pad141)*
X78600000Y-105800000D03*
G04 #@! TO.N,Net-(J1-Pad142)*
X73600000Y-116600000D03*
G04 #@! TO.N,Net-(J1-Pad143)*
X79400000Y-105000000D03*
G04 #@! TO.N,Net-(J1-Pad144)*
X74800000Y-116600000D03*
G04 #@! TO.N,Net-(J1-Pad145)*
X80200000Y-105800000D03*
G04 #@! TO.N,Net-(J1-Pad146)*
X76000000Y-116600000D03*
G04 #@! TO.N,Net-(J1-Pad147)*
X81000000Y-105000000D03*
G04 #@! TO.N,Net-(J1-Pad148)*
X77200000Y-116600000D03*
G04 #@! TO.N,Net-(J1-Pad149)*
X81800000Y-105800000D03*
G04 #@! TO.N,Net-(J1-Pad150)*
X78400000Y-116600000D03*
G04 #@! TO.N,Net-(J1-Pad151)*
X82600000Y-105000000D03*
G04 #@! TO.N,Net-(J1-Pad152)*
X79600000Y-116600000D03*
G04 #@! TO.N,Net-(J1-Pad153)*
X83400000Y-105800000D03*
G04 #@! TO.N,Net-(J1-Pad154)*
X80800000Y-116600000D03*
G04 #@! TO.N,Net-(J1-Pad155)*
X84200000Y-105000000D03*
G04 #@! TO.N,Net-(J1-Pad156)*
X82000000Y-116600000D03*
G04 #@! TO.N,Net-(J1-Pad157)*
X85000000Y-105800000D03*
G04 #@! TO.N,Net-(J1-Pad158)*
X83200000Y-116600000D03*
G04 #@! TO.N,Net-(J1-Pad159)*
X85800000Y-105000000D03*
G04 #@! TO.N,Net-(J1-Pad160)*
X84400000Y-116600000D03*
G04 #@! TO.N,Net-(J1-Pad161)*
X86600000Y-105800000D03*
G04 #@! TO.N,Net-(J1-Pad162)*
X85600000Y-116600000D03*
G04 #@! TO.N,Net-(J1-Pad163)*
X87400000Y-105000000D03*
G04 #@! TO.N,Net-(J1-Pad164)*
X86800000Y-116600000D03*
G04 #@! TO.N,Net-(J1-Pad165)*
X88200000Y-105800000D03*
G04 #@! TO.N,Net-(J1-Pad166)*
X88000000Y-116600000D03*
G04 #@! TO.N,Net-(J1-Pad167)*
X89000000Y-105000000D03*
G04 #@! TO.N,Net-(J1-Pad168)*
X89200000Y-116600000D03*
G04 #@! TO.N,Net-(J1-Pad169)*
X89800000Y-105800000D03*
G04 #@! TO.N,Net-(J1-Pad170)*
X90400000Y-116600000D03*
G04 #@! TO.N,Net-(J1-Pad171)*
X90600000Y-105000000D03*
G04 #@! TO.N,Net-(J1-Pad172)*
X91600000Y-116600000D03*
G04 #@! TO.N,Net-(J1-Pad173)*
X94000000Y-94400000D03*
G04 #@! TO.N,Net-(J1-Pad174)*
X92800000Y-116600000D03*
G04 #@! TO.N,Net-(J1-Pad175)*
X94800000Y-95200000D03*
G04 #@! TO.N,Net-(J1-Pad176)*
X94000000Y-116600000D03*
G04 #@! TO.N,Net-(J1-Pad177)*
X95600000Y-96000000D03*
G04 #@! TO.N,Net-(J1-Pad178)*
X95200000Y-116600000D03*
G04 #@! TO.N,Net-(J1-Pad180)*
X96400000Y-116600000D03*
G04 #@! TO.N,Net-(J1-Pad186)*
X103600000Y-111700000D03*
G04 #@! TO.N,Net-(J1-Pad188)*
X104200000Y-116600000D03*
G04 #@! TO.N,Net-(J1-Pad190)*
X105400000Y-116600000D03*
G04 #@! TO.N,Net-(J1-Pad192)*
X106600000Y-116600000D03*
G04 #@! TO.N,Net-(J1-Pad193)*
X105200000Y-94400000D03*
G04 #@! TO.N,Net-(J1-Pad194)*
X107800000Y-116600000D03*
G04 #@! TO.N,Net-(J1-Pad195)*
X106000000Y-93600000D03*
G04 #@! TO.N,Net-(J1-Pad196)*
X109000000Y-116600000D03*
G04 #@! TO.N,Net-(J1-Pad197)*
X110200000Y-104990248D03*
G04 #@! TO.N,Net-(J1-Pad198)*
X110200000Y-116590248D03*
G04 #@! TO.N,Net-(J1-Pad199)*
X111000000Y-105790248D03*
G04 #@! TO.N,Net-(J1-Pad200)*
X111400000Y-116590248D03*
G04 #@! TO.N,Net-(J1-Pad201)*
X111800000Y-104990248D03*
G04 #@! TO.N,Net-(J1-Pad202)*
X112600000Y-116590248D03*
G04 #@! TO.N,Net-(J1-Pad203)*
X112600000Y-105790248D03*
G04 #@! TO.N,Net-(J1-Pad204)*
X113800000Y-116590248D03*
G04 #@! TO.N,Net-(J1-Pad205)*
X113400000Y-104990248D03*
G04 #@! TO.N,Net-(J1-Pad206)*
X115000000Y-116590248D03*
G04 #@! TO.N,Net-(J1-Pad207)*
X114200000Y-105790248D03*
G04 #@! TO.N,Net-(J1-Pad208)*
X116200000Y-116590248D03*
G04 #@! TO.N,Net-(J1-Pad209)*
X115000000Y-104990248D03*
G04 #@! TO.N,Net-(J1-Pad210)*
X117400000Y-116590248D03*
G04 #@! TO.N,Net-(J1-Pad211)*
X115800000Y-105790248D03*
G04 #@! TO.N,Net-(J1-Pad212)*
X118600000Y-116590248D03*
G04 #@! TO.N,Net-(J1-Pad213)*
X116600000Y-104990248D03*
G04 #@! TO.N,Net-(J1-Pad214)*
X119800000Y-116590248D03*
G04 #@! TO.N,Net-(J1-Pad215)*
X117400000Y-105790248D03*
G04 #@! TO.N,Net-(J1-Pad216)*
X121000000Y-116590248D03*
G04 #@! TO.N,Net-(J1-Pad217)*
X118200000Y-104990248D03*
G04 #@! TO.N,Net-(J1-Pad218)*
X122200000Y-116590248D03*
G04 #@! TO.N,Net-(J1-Pad219)*
X119000000Y-105790248D03*
G04 #@! TO.N,Net-(J1-Pad220)*
X123400000Y-116590248D03*
G04 #@! TO.N,Net-(J1-Pad221)*
X119800000Y-104990248D03*
G04 #@! TO.N,Net-(J1-Pad222)*
X124600000Y-116590248D03*
G04 #@! TO.N,Net-(J1-Pad223)*
X120600000Y-105790248D03*
G04 #@! TO.N,Net-(J1-Pad224)*
X125800000Y-116590248D03*
G04 #@! TO.N,Net-(J1-Pad225)*
X121400000Y-104990248D03*
G04 #@! TO.N,Net-(J1-Pad226)*
X127000000Y-116590248D03*
G04 #@! TO.N,Net-(J1-Pad227)*
X122200000Y-105790248D03*
G04 #@! TO.N,Net-(J1-Pad228)*
X128200000Y-116590248D03*
G04 #@! TO.N,Net-(J1-Pad229)*
X123000000Y-104990248D03*
G04 #@! TO.N,Net-(J1-Pad230)*
X129400000Y-116590248D03*
G04 #@! TO.N,Net-(J1-Pad231)*
X123800000Y-105790248D03*
G04 #@! TO.N,Net-(J1-Pad232)*
X130600000Y-116590248D03*
G04 #@! TO.N,Net-(J1-Pad233)*
X124600000Y-104990248D03*
G04 #@! TO.N,Net-(J1-Pad234)*
X131800000Y-116590248D03*
G04 #@! TO.N,Net-(J1-Pad235)*
X125400000Y-105790248D03*
G04 #@! TO.N,Net-(J1-Pad236)*
X133000000Y-116590248D03*
G04 #@! TO.N,Net-(J1-Pad237)*
X126200000Y-104990248D03*
G04 #@! TO.N,Net-(J1-Pad238)*
X134200000Y-116590248D03*
G04 #@! TO.N,Net-(J1-Pad239)*
X127000000Y-105790248D03*
G04 #@! TO.N,Net-(J1-Pad240)*
X135400000Y-116590248D03*
G04 #@! TO.N,Net-(J1-Pad241)*
X127800000Y-104990248D03*
G04 #@! TO.N,Net-(J1-Pad242)*
X136600000Y-116590248D03*
G04 #@! TO.N,Net-(J1-Pad243)*
X128600000Y-105790248D03*
G04 #@! TO.N,Net-(J1-Pad244)*
X137800000Y-116590248D03*
G04 #@! TO.N,Net-(J1-Pad179)*
X96400000Y-96800000D03*
G04 #@! TO.N,Net-(J1-Pad181)*
X97200000Y-97600000D03*
G04 #@! TO.N,Net-(J1-Pad182)*
X97600000Y-116600000D03*
G04 #@! TO.N,Net-(J1-Pad183)*
X98000000Y-98400000D03*
G04 #@! TO.N,Net-(J1-Pad184)*
X105588000Y-92253000D03*
G04 #@! TO.N,Net-(J1-Pad185)*
X102667000Y-97460000D03*
G04 #@! TO.N,Net-(J1-Pad187)*
X100600000Y-116700000D03*
G04 #@! TO.N,Net-(J1-Pad189)*
X103600000Y-96000000D03*
G04 #@! TO.N,Net-(J1-Pad191)*
X104400000Y-95200000D03*
G04 #@! TO.N,Net-(J1-Pad60)*
X96800000Y-120600000D03*
G04 #@! TO.N,Net-(J1-Pad61)*
X97600000Y-121200000D03*
G04 #@! TO.N,Net-(J1-Pad62)*
X98400000Y-121800000D03*
G04 #@! TO.N,Net-(J1-Pad63)*
X99400000Y-123200000D03*
D16*
G04 #@! TO.N,V_HV_C*
X104572000Y-74092000D03*
X96190000Y-74346000D03*
X136195000Y-123749000D03*
X136195000Y-121463000D03*
D15*
G04 #@! TO.N,LE_C*
X93523000Y-79045000D03*
X101270000Y-79045000D03*
X140640000Y-79299000D03*
X134417000Y-79299000D03*
X106604000Y-79426000D03*
G04 #@! TO.N,CLK_C*
X92761000Y-78283000D03*
X100254000Y-78283000D03*
X139624000Y-78410000D03*
X133909000Y-78410000D03*
X107747000Y-78918000D03*
G04 #@! TO.N,Net-(J1-Pad64)*
X99400000Y-122200000D03*
G04 #@! TO.N,Net-(J1-Pad65)*
X99400000Y-121200000D03*
G04 #@! TO.N,SENS_PAD*
X94750000Y-129250000D03*
X104318000Y-72949000D03*
X98095000Y-72949000D03*
D16*
G04 #@! TO.N,GND*
X88000000Y-123250000D03*
X57201000Y-79045000D03*
X88697000Y-83490000D03*
X100762000Y-86792000D03*
X88697000Y-87300000D03*
X113208000Y-86030000D03*
D15*
G04 #@! TO.N,DIG1*
X86411000Y-86030000D03*
G04 #@! TO.N,DIG0*
X86538000Y-83871000D03*
G04 #@! TO.N,+3V3*
X112954000Y-83744000D03*
G04 #@! TD*
D17*
G04 #@! TO.N,V_GND*
X146990000Y-115113000D02*
X146990000Y-124257000D01*
X146990000Y-115113000D02*
X146990000Y-115510000D01*
X146990000Y-124257000D02*
X144577000Y-126670000D01*
X144577000Y-126670000D02*
X139116000Y-126670000D01*
X106731000Y-78029000D02*
X105715000Y-78029000D01*
X106731000Y-78029000D02*
X106477000Y-78029000D01*
X108509000Y-78029000D02*
X106731000Y-78029000D01*
X105250000Y-78494000D02*
X105250000Y-81077000D01*
X105250000Y-80907000D02*
X105250000Y-81077000D01*
X105715000Y-78029000D02*
X105250000Y-78494000D01*
X105250000Y-81077000D02*
X105250000Y-84800000D01*
X146990000Y-83363000D02*
X146990000Y-78537000D01*
X146990000Y-83363000D02*
X146990000Y-115113000D01*
X146990000Y-83236000D02*
X146990000Y-83363000D01*
X146990000Y-78537000D02*
X148006000Y-77521000D01*
X148006000Y-77521000D02*
X148006000Y-71679000D01*
X148006000Y-71679000D02*
X146355000Y-70028000D01*
X136703000Y-70028000D02*
X136322000Y-70028000D01*
X146355000Y-70028000D02*
X136703000Y-70028000D01*
X112446000Y-72822000D02*
X115240000Y-70028000D01*
X108509000Y-72822000D02*
X112446000Y-72822000D01*
X136703000Y-70028000D02*
X115240000Y-70028000D01*
D18*
G04 #@! TO.N,VDD_C*
X66000000Y-100500000D02*
X67607000Y-100500000D01*
X67607000Y-100500000D02*
X67742000Y-100635000D01*
X67742000Y-100635000D02*
X68123000Y-100635000D01*
X134000000Y-98500000D02*
X132536000Y-98500000D01*
X132536000Y-98500000D02*
X132385000Y-98349000D01*
X132385000Y-98349000D02*
X131750000Y-98349000D01*
X92507000Y-75489000D02*
X92761000Y-75489000D01*
X138227000Y-96571000D02*
X138227000Y-94666000D01*
X136298000Y-98500000D02*
X138227000Y-96571000D01*
X134000000Y-98500000D02*
X136298000Y-98500000D01*
X92507000Y-75489000D02*
X93015000Y-75489000D01*
X93015000Y-75489000D02*
X95301000Y-73203000D01*
X97206000Y-73838000D02*
X96571000Y-73203000D01*
X97206000Y-75489000D02*
X97206000Y-73838000D01*
X95301000Y-73203000D02*
X96571000Y-73203000D01*
X65075000Y-75489000D02*
X92507000Y-75489000D01*
X63424000Y-77140000D02*
X65075000Y-75489000D01*
X66000000Y-100500000D02*
X63924000Y-100500000D01*
X63924000Y-100500000D02*
X60376000Y-96952000D01*
X60376000Y-96952000D02*
X60376000Y-80188000D01*
X60376000Y-80188000D02*
X63424000Y-77140000D01*
X138227000Y-79807000D02*
X135052000Y-76632000D01*
X138227000Y-80696000D02*
X138227000Y-79807000D01*
X105842000Y-76632000D02*
X135052000Y-76632000D01*
X138227000Y-94666000D02*
X138227000Y-80696000D01*
X97206000Y-78664000D02*
X97206000Y-82855000D01*
X97206000Y-75489000D02*
X97206000Y-78664000D01*
D19*
X97250000Y-82899000D02*
X97206000Y-82855000D01*
X97250000Y-84800000D02*
X97250000Y-82899000D01*
X68188000Y-100700000D02*
X68123000Y-100635000D01*
X69760000Y-100700000D02*
X68188000Y-100700000D01*
X131701000Y-98300000D02*
X131750000Y-98349000D01*
X130240000Y-98300000D02*
X131701000Y-98300000D01*
D18*
G04 #@! TO.N,GND_C*
X69760000Y-98370000D02*
X69760000Y-99170000D01*
X69750000Y-99492000D02*
X69750000Y-99890000D01*
X69750000Y-99090000D02*
X69750000Y-99492000D01*
X130240000Y-99100000D02*
X130240000Y-100700000D01*
X66000000Y-98500000D02*
X67512000Y-98500000D01*
X68112000Y-99100000D02*
X69760000Y-99100000D01*
X67512000Y-98500000D02*
X68112000Y-99100000D01*
X66000000Y-98500000D02*
X63829000Y-98500000D01*
X63829000Y-98500000D02*
X63297000Y-97968000D01*
X63297000Y-97968000D02*
X61392000Y-96063000D01*
X61392000Y-94158000D02*
X61392000Y-80569000D01*
X61392000Y-94158000D02*
X61392000Y-93904000D01*
X61392000Y-96063000D02*
X61392000Y-94158000D01*
X134000000Y-100500000D02*
X132631000Y-100500000D01*
X132031000Y-99900000D02*
X130240000Y-99900000D01*
X132631000Y-100500000D02*
X132031000Y-99900000D01*
X94031000Y-76378000D02*
X94285000Y-76378000D01*
X134000000Y-100500000D02*
X136330000Y-100500000D01*
X136330000Y-100500000D02*
X139243000Y-97587000D01*
X139243000Y-97587000D02*
X139243000Y-96063000D01*
X94285000Y-76378000D02*
X95047000Y-76378000D01*
X104191000Y-76632000D02*
X104318000Y-76505000D01*
X104191000Y-76632000D02*
X104191000Y-76505000D01*
X104191000Y-76505000D02*
X105334000Y-75362000D01*
X61392000Y-80569000D02*
X65583000Y-76378000D01*
X65583000Y-76378000D02*
X94031000Y-76378000D01*
X139243000Y-79553000D02*
X139243000Y-79045000D01*
X105334000Y-75362000D02*
X135560000Y-75362000D01*
X139243000Y-79045000D02*
X135560000Y-75362000D01*
X139243000Y-96063000D02*
X139243000Y-79553000D01*
X95047000Y-78029000D02*
X95047000Y-76378000D01*
X95047000Y-83490000D02*
X95047000Y-78029000D01*
D19*
X94920000Y-84800000D02*
X94920000Y-84379000D01*
X94920000Y-84800000D02*
X94750000Y-84800000D01*
X95250000Y-84800000D02*
X94920000Y-84800000D01*
X95047000Y-84252000D02*
X95047000Y-83490000D01*
X94920000Y-84379000D02*
X95047000Y-84252000D01*
X95047000Y-84597000D02*
X95250000Y-84800000D01*
X95047000Y-84252000D02*
X95047000Y-84597000D01*
D17*
G04 #@! TO.N,Net-(J1-Pad123)*
X71800000Y-91260000D02*
X71800000Y-93600000D01*
X71400000Y-94000000D02*
X71400000Y-105000000D01*
X71800000Y-93600000D02*
X71400000Y-94000000D01*
G04 #@! TO.N,Net-(J1-Pad124)*
X64700000Y-114300000D02*
X62800000Y-116200000D01*
X62800000Y-116200000D02*
X62800000Y-116600000D01*
X66100000Y-114300000D02*
X64700000Y-114300000D01*
X71800000Y-107740000D02*
X71800000Y-108600000D01*
X71800000Y-108600000D02*
X66100000Y-114300000D01*
G04 #@! TO.N,Net-(J1-Pad125)*
X72600000Y-91260000D02*
X72600000Y-93600000D01*
X72200000Y-94000000D02*
X72200000Y-105800000D01*
X72600000Y-93600000D02*
X72200000Y-94000000D01*
G04 #@! TO.N,Net-(J1-Pad126)*
X64000000Y-116100000D02*
X64000000Y-116600000D01*
X65300000Y-114800000D02*
X64000000Y-116100000D01*
X66400000Y-114800000D02*
X65300000Y-114800000D01*
X72600000Y-108600000D02*
X66400000Y-114800000D01*
X72600000Y-107740000D02*
X72600000Y-108600000D01*
G04 #@! TO.N,Net-(J1-Pad127)*
X73400000Y-91260000D02*
X73400000Y-93800000D01*
X73400000Y-93800000D02*
X73000000Y-94200000D01*
X73000000Y-94200000D02*
X73000000Y-105000000D01*
G04 #@! TO.N,Net-(J1-Pad128)*
X73400000Y-108600000D02*
X66600000Y-115400000D01*
X73400000Y-107740000D02*
X73400000Y-108600000D01*
X65200000Y-116000000D02*
X65800000Y-115400000D01*
X66600000Y-115400000D02*
X65800000Y-115400000D01*
X65200000Y-116000000D02*
X65200000Y-116600000D01*
G04 #@! TO.N,Net-(J1-Pad129)*
X73800000Y-105800000D02*
X73800000Y-94200000D01*
X74200000Y-93800000D02*
X74200000Y-91260000D01*
X73800000Y-94200000D02*
X74200000Y-93800000D01*
G04 #@! TO.N,Net-(J1-Pad130)*
X74200000Y-108600000D02*
X66700000Y-116100000D01*
X74200000Y-107740000D02*
X74200000Y-108600000D01*
X66600000Y-116100000D02*
X66400000Y-116300000D01*
X66400000Y-116300000D02*
X66400000Y-116600000D01*
X66700000Y-116100000D02*
X66600000Y-116100000D01*
G04 #@! TO.N,Net-(J1-Pad131)*
X74600000Y-105000000D02*
X74600000Y-94200000D01*
X75000000Y-93800000D02*
X75000000Y-91260000D01*
X74600000Y-94200000D02*
X75000000Y-93800000D01*
G04 #@! TO.N,Net-(J1-Pad132)*
X67600000Y-116000000D02*
X67600000Y-116600000D01*
X75000000Y-108600000D02*
X67600000Y-116000000D01*
X75000000Y-107740000D02*
X75000000Y-108600000D01*
G04 #@! TO.N,Net-(J1-Pad133)*
X75400000Y-105800000D02*
X75400000Y-94200000D01*
X75800000Y-93800000D02*
X75800000Y-91260000D01*
X75400000Y-94200000D02*
X75800000Y-93800000D01*
G04 #@! TO.N,Net-(J1-Pad134)*
X68800000Y-115600000D02*
X68800000Y-116600000D01*
X75800000Y-108600000D02*
X68800000Y-115600000D01*
X75800000Y-107740000D02*
X75800000Y-108600000D01*
G04 #@! TO.N,Net-(J1-Pad135)*
X76200000Y-105000000D02*
X76200000Y-94400000D01*
X76600000Y-94000000D02*
X76600000Y-91260000D01*
X76200000Y-94400000D02*
X76600000Y-94000000D01*
G04 #@! TO.N,Net-(J1-Pad136)*
X76600000Y-108600000D02*
X76600000Y-107740000D01*
X70000000Y-115200000D02*
X76600000Y-108600000D01*
X70000000Y-116600000D02*
X70000000Y-115200000D01*
G04 #@! TO.N,Net-(J1-Pad137)*
X77000000Y-105800000D02*
X77000000Y-94600000D01*
X77400000Y-94200000D02*
X77400000Y-91260000D01*
X77000000Y-94600000D02*
X77400000Y-94200000D01*
G04 #@! TO.N,Net-(J1-Pad138)*
X71200000Y-116600000D02*
X71200000Y-114800000D01*
X71200000Y-114800000D02*
X77400000Y-108600000D01*
X77400000Y-108600000D02*
X77400000Y-107740000D01*
G04 #@! TO.N,Net-(J1-Pad139)*
X77800000Y-105000000D02*
X77800000Y-94600000D01*
X78200000Y-94200000D02*
X78200000Y-91260000D01*
X77800000Y-94600000D02*
X78200000Y-94200000D01*
G04 #@! TO.N,Net-(J1-Pad140)*
X72400000Y-116600000D02*
X72400000Y-114400000D01*
X72400000Y-114400000D02*
X78200000Y-108600000D01*
X78200000Y-108600000D02*
X78200000Y-107740000D01*
G04 #@! TO.N,Net-(J1-Pad141)*
X78600000Y-105800000D02*
X78600000Y-94800000D01*
X79000000Y-94400000D02*
X79000000Y-91260000D01*
X78600000Y-94800000D02*
X79000000Y-94400000D01*
G04 #@! TO.N,Net-(J1-Pad142)*
X73600000Y-114000000D02*
X73600000Y-116600000D01*
X79000000Y-107740000D02*
X79000000Y-108600000D01*
X79000000Y-108600000D02*
X73600000Y-114000000D01*
G04 #@! TO.N,Net-(J1-Pad143)*
X79400000Y-105000000D02*
X79400000Y-95000000D01*
X79800000Y-94600000D02*
X79800000Y-91260000D01*
X79400000Y-95000000D02*
X79800000Y-94600000D01*
G04 #@! TO.N,Net-(J1-Pad144)*
X79800000Y-108680000D02*
X79800000Y-107740000D01*
X74800000Y-113680000D02*
X79800000Y-108680000D01*
X74800000Y-113800000D02*
X74800000Y-113680000D01*
X74800000Y-116600000D02*
X74800000Y-113800000D01*
G04 #@! TO.N,Net-(J1-Pad145)*
X80200000Y-105800000D02*
X80200000Y-95200000D01*
X80600000Y-94800000D02*
X80600000Y-91260000D01*
X80200000Y-95200000D02*
X80600000Y-94800000D01*
G04 #@! TO.N,Net-(J1-Pad146)*
X76000000Y-116600000D02*
X76000000Y-113600000D01*
X80600000Y-109000000D02*
X80600000Y-107740000D01*
X76000000Y-113600000D02*
X80600000Y-109000000D01*
G04 #@! TO.N,Net-(J1-Pad147)*
X81000000Y-105000000D02*
X81000000Y-95400000D01*
X81400000Y-95000000D02*
X81400000Y-91260000D01*
X81000000Y-95400000D02*
X81400000Y-95000000D01*
G04 #@! TO.N,Net-(J1-Pad148)*
X77200000Y-116600000D02*
X77200000Y-113600000D01*
X81400000Y-109400000D02*
X81400000Y-107740000D01*
X77200000Y-113600000D02*
X81400000Y-109400000D01*
G04 #@! TO.N,Net-(J1-Pad149)*
X81800000Y-105800000D02*
X81800000Y-95600000D01*
X82200000Y-95200000D02*
X82200000Y-91260000D01*
X81800000Y-95600000D02*
X82200000Y-95200000D01*
G04 #@! TO.N,Net-(J1-Pad150)*
X82200000Y-109800000D02*
X82200000Y-107740000D01*
X78400000Y-113600000D02*
X82200000Y-109800000D01*
X78400000Y-116600000D02*
X78400000Y-113600000D01*
G04 #@! TO.N,Net-(J1-Pad151)*
X82600000Y-105000000D02*
X82600000Y-96000000D01*
X83000000Y-95600000D02*
X83000000Y-91260000D01*
X82600000Y-96000000D02*
X83000000Y-95600000D01*
G04 #@! TO.N,Net-(J1-Pad152)*
X79600000Y-116600000D02*
X79600000Y-113600000D01*
X83000000Y-110200000D02*
X83000000Y-107740000D01*
X79600000Y-113600000D02*
X83000000Y-110200000D01*
G04 #@! TO.N,Net-(J1-Pad153)*
X83400000Y-105800000D02*
X83400000Y-96400000D01*
X83800000Y-96000000D02*
X83800000Y-91260000D01*
X83400000Y-96400000D02*
X83800000Y-96000000D01*
G04 #@! TO.N,Net-(J1-Pad154)*
X80800000Y-116600000D02*
X80800000Y-113600000D01*
X83800000Y-110600000D02*
X83800000Y-107740000D01*
X80800000Y-113600000D02*
X83800000Y-110600000D01*
G04 #@! TO.N,Net-(J1-Pad155)*
X84200000Y-105000000D02*
X84200000Y-97000000D01*
X84600000Y-96600000D02*
X84600000Y-91260000D01*
X84200000Y-97000000D02*
X84600000Y-96600000D01*
G04 #@! TO.N,Net-(J1-Pad156)*
X82000000Y-116600000D02*
X82000000Y-113600000D01*
X84600000Y-111000000D02*
X84600000Y-107740000D01*
X82000000Y-113600000D02*
X84600000Y-111000000D01*
G04 #@! TO.N,Net-(J1-Pad157)*
X85000000Y-105800000D02*
X85000000Y-97800000D01*
X85400000Y-97400000D02*
X85400000Y-91260000D01*
X85000000Y-97800000D02*
X85400000Y-97400000D01*
G04 #@! TO.N,Net-(J1-Pad158)*
X83200000Y-116600000D02*
X83200000Y-113600000D01*
X85400000Y-111400000D02*
X85400000Y-107740000D01*
X83200000Y-113600000D02*
X85400000Y-111400000D01*
G04 #@! TO.N,Net-(J1-Pad159)*
X85800000Y-105000000D02*
X85800000Y-98800000D01*
X86200000Y-98400000D02*
X86200000Y-91260000D01*
X85800000Y-98800000D02*
X86200000Y-98400000D01*
G04 #@! TO.N,Net-(J1-Pad160)*
X84400000Y-116600000D02*
X84400000Y-113600000D01*
X86200000Y-111800000D02*
X86200000Y-107740000D01*
X84400000Y-113600000D02*
X86200000Y-111800000D01*
G04 #@! TO.N,Net-(J1-Pad161)*
X86600000Y-105800000D02*
X86600000Y-100000000D01*
X87000000Y-99600000D02*
X87000000Y-91260000D01*
X86600000Y-100000000D02*
X87000000Y-99600000D01*
G04 #@! TO.N,Net-(J1-Pad162)*
X85600000Y-116600000D02*
X85600000Y-113600000D01*
X87000000Y-112200000D02*
X87000000Y-107740000D01*
X85600000Y-113600000D02*
X87000000Y-112200000D01*
G04 #@! TO.N,Net-(J1-Pad163)*
X87400000Y-105000000D02*
X87400000Y-100600000D01*
X87800000Y-100200000D02*
X87800000Y-91260000D01*
X87400000Y-100600000D02*
X87800000Y-100200000D01*
G04 #@! TO.N,Net-(J1-Pad164)*
X87800000Y-112600000D02*
X87800000Y-112200000D01*
X87800000Y-112200000D02*
X87800000Y-107740000D01*
X86800000Y-113600000D02*
X87800000Y-112600000D01*
X86800000Y-116600000D02*
X86800000Y-113600000D01*
G04 #@! TO.N,Net-(J1-Pad165)*
X88600000Y-100400000D02*
X88600000Y-91260000D01*
X88200000Y-105800000D02*
X88200000Y-100800000D01*
X88200000Y-100800000D02*
X88600000Y-100400000D01*
G04 #@! TO.N,Net-(J1-Pad166)*
X88000000Y-116600000D02*
X88000000Y-113600000D01*
X88600000Y-113000000D02*
X88600000Y-107740000D01*
X88000000Y-113600000D02*
X88600000Y-113000000D01*
D20*
G04 #@! TO.N,Net-(J1-Pad167)*
X89400000Y-91260000D02*
X89400000Y-100068000D01*
D17*
X89000000Y-105000000D02*
X89000000Y-101200000D01*
X89400000Y-100800000D02*
X89400000Y-100068000D01*
X89000000Y-101200000D02*
X89400000Y-100800000D01*
G04 #@! TO.N,Net-(J1-Pad168)*
X89200000Y-116600000D02*
X89200000Y-113600000D01*
X89400000Y-113400000D02*
X89400000Y-107740000D01*
X89200000Y-113600000D02*
X89400000Y-113400000D01*
D20*
G04 #@! TO.N,Net-(J1-Pad169)*
X90200000Y-91260000D02*
X90200000Y-98074000D01*
X90200000Y-98074000D02*
X90200000Y-100868000D01*
D17*
X89800000Y-105800000D02*
X89800000Y-102000000D01*
X90200000Y-101600000D02*
X90200000Y-100868000D01*
X89800000Y-102000000D02*
X90200000Y-101600000D01*
G04 #@! TO.N,Net-(J1-Pad170)*
X90200000Y-113400000D02*
X90400000Y-113600000D01*
X90200000Y-107740000D02*
X90200000Y-113400000D01*
X90400000Y-113600000D02*
X90400000Y-116600000D01*
G04 #@! TO.N,Net-(J1-Pad171)*
X91300000Y-93500000D02*
X92240000Y-93500000D01*
X90898001Y-93901999D02*
X91300000Y-93500000D01*
X90898001Y-102200000D02*
X90898001Y-93901999D01*
X90898001Y-102200000D02*
X90898001Y-102701999D01*
X90898001Y-102701999D02*
X90600000Y-103000000D01*
X90600000Y-103000000D02*
X90600000Y-105000000D01*
G04 #@! TO.N,Net-(J1-Pad172)*
X91600000Y-116600000D02*
X91600000Y-107200000D01*
X92240000Y-106560000D02*
X92240000Y-105500000D01*
X91600000Y-107200000D02*
X92240000Y-106560000D01*
G04 #@! TO.N,Net-(J1-Pad173)*
X92240000Y-94300000D02*
X93900000Y-94300000D01*
X93900000Y-94300000D02*
X94000000Y-94400000D01*
G04 #@! TO.N,Net-(J1-Pad174)*
X92800000Y-108200000D02*
X92800000Y-116600000D01*
X93600000Y-105000000D02*
X93600000Y-107400000D01*
X92240000Y-104700000D02*
X93300000Y-104700000D01*
X93600000Y-107400000D02*
X92800000Y-108200000D01*
X93300000Y-104700000D02*
X93600000Y-105000000D01*
G04 #@! TO.N,Net-(J1-Pad175)*
X92340000Y-95200000D02*
X92240000Y-95100000D01*
X94600000Y-95200000D02*
X92340000Y-95200000D01*
G04 #@! TO.N,Net-(J1-Pad176)*
X94000000Y-109400000D02*
X94000000Y-116600000D01*
X94400000Y-109000000D02*
X94000000Y-109400000D01*
X94400000Y-104800000D02*
X94400000Y-109000000D01*
X92240000Y-103900000D02*
X93500000Y-103900000D01*
X93500000Y-103900000D02*
X94400000Y-104800000D01*
G04 #@! TO.N,Net-(J1-Pad177)*
X95500000Y-95900000D02*
X95600000Y-96000000D01*
X92240000Y-95900000D02*
X95500000Y-95900000D01*
G04 #@! TO.N,Net-(J1-Pad178)*
X92240000Y-103100000D02*
X93180000Y-103100000D01*
X93180000Y-103100000D02*
X93200000Y-103100000D01*
X95200000Y-116000000D02*
X95200000Y-116600000D01*
X95200000Y-106200000D02*
X95200000Y-116600000D01*
X95200000Y-104800000D02*
X95200000Y-106200000D01*
X93180000Y-103100000D02*
X93500000Y-103100000D01*
X93500000Y-103100000D02*
X95200000Y-104800000D01*
G04 #@! TO.N,Net-(J1-Pad180)*
X92240000Y-102300000D02*
X93900000Y-102300000D01*
X93900000Y-102300000D02*
X95600000Y-104000000D01*
X95800000Y-104200000D02*
X96000000Y-104400000D01*
X95600000Y-104000000D02*
X95800000Y-104200000D01*
X96400000Y-115400000D02*
X96000000Y-115000000D01*
X96400000Y-116600000D02*
X96400000Y-115400000D01*
X96000000Y-104400000D02*
X96000000Y-115000000D01*
G04 #@! TO.N,Net-(J1-Pad186)*
X104500000Y-101500000D02*
X107760000Y-101500000D01*
X103500000Y-109000000D02*
X103500000Y-102500000D01*
X103600000Y-111700000D02*
X103600000Y-109100000D01*
X103500000Y-102500000D02*
X104500000Y-101500000D01*
X103600000Y-109100000D02*
X103500000Y-109000000D01*
G04 #@! TO.N,Net-(J1-Pad188)*
X105100000Y-102300000D02*
X107760000Y-102300000D01*
X104000000Y-103400000D02*
X105100000Y-102300000D01*
X104000000Y-109000000D02*
X104000000Y-103400000D01*
X104200000Y-109200000D02*
X104000000Y-109000000D01*
X104200000Y-116600000D02*
X104200000Y-109200000D01*
G04 #@! TO.N,Net-(J1-Pad190)*
X105500000Y-103100000D02*
X107760000Y-103100000D01*
X105400000Y-116600000D02*
X105400000Y-109000000D01*
X104800000Y-103800000D02*
X104800000Y-108400000D01*
X105400000Y-109000000D02*
X104800000Y-108400000D01*
X104800000Y-103800000D02*
X105500000Y-103100000D01*
G04 #@! TO.N,Net-(J1-Pad192)*
X105900000Y-103900000D02*
X107760000Y-103900000D01*
X106600000Y-116600000D02*
X106600000Y-108800000D01*
X105600000Y-104200000D02*
X105600000Y-107800000D01*
X106600000Y-108800000D02*
X105600000Y-107800000D01*
X105600000Y-104200000D02*
X105900000Y-103900000D01*
G04 #@! TO.N,Net-(J1-Pad193)*
X105100000Y-94300000D02*
X105000000Y-94400000D01*
X107760000Y-94300000D02*
X105100000Y-94300000D01*
G04 #@! TO.N,Net-(J1-Pad194)*
X107800000Y-116600000D02*
X107800000Y-108600000D01*
X107800000Y-108600000D02*
X106400000Y-107200000D01*
X106400000Y-107200000D02*
X106400000Y-105000000D01*
X106700000Y-104700000D02*
X107760000Y-104700000D01*
X106400000Y-105000000D02*
X106700000Y-104700000D01*
G04 #@! TO.N,Net-(J1-Pad195)*
X107660000Y-93600000D02*
X107760000Y-93500000D01*
X105900000Y-93600000D02*
X107660000Y-93600000D01*
G04 #@! TO.N,Net-(J1-Pad196)*
X109000000Y-116600000D02*
X109000000Y-107400000D01*
X107760000Y-106160000D02*
X107760000Y-105500000D01*
X109000000Y-107400000D02*
X107760000Y-106160000D01*
G04 #@! TO.N,Net-(J1-Pad197)*
X109800000Y-101600000D02*
X109800000Y-100868000D01*
X110200000Y-102000000D02*
X109800000Y-101600000D01*
D20*
X109800000Y-91260000D02*
X109800000Y-98074000D01*
X109800000Y-98074000D02*
X109800000Y-100868000D01*
D17*
X110200000Y-104300000D02*
X110200000Y-104990248D01*
X110200000Y-104300000D02*
X110200000Y-102000000D01*
G04 #@! TO.N,Net-(J1-Pad198)*
X110200000Y-113590248D02*
X110190248Y-113590248D01*
X110200000Y-113900000D02*
X110200000Y-113590248D01*
X110200000Y-114100000D02*
X110200000Y-113600000D01*
X110200000Y-114100000D02*
X110200000Y-116590248D01*
X110200000Y-113900000D02*
X110200000Y-114100000D01*
X109800000Y-113200000D02*
X109800000Y-107740000D01*
X110200000Y-113600000D02*
X109800000Y-113200000D01*
G04 #@! TO.N,Net-(J1-Pad199)*
X111000000Y-105000000D02*
X111000000Y-101200000D01*
X110600000Y-100800000D02*
X110600000Y-100068000D01*
X111000000Y-101200000D02*
X110600000Y-100800000D01*
D20*
X110600000Y-91260000D02*
X110600000Y-100068000D01*
D17*
X111000000Y-105000000D02*
X111000000Y-105790248D01*
G04 #@! TO.N,Net-(J1-Pad200)*
X111400000Y-116590248D02*
X111400000Y-113590248D01*
X111400000Y-113590248D02*
X111200000Y-113390248D01*
X110600000Y-112790248D02*
X111200000Y-113390248D01*
X110600000Y-107740000D02*
X110600000Y-112790248D01*
G04 #@! TO.N,Net-(J1-Pad201)*
X111400000Y-100400000D02*
X111400000Y-91260000D01*
X111800000Y-100800000D02*
X111400000Y-100400000D01*
X111800000Y-104300000D02*
X111800000Y-104990248D01*
X111800000Y-104300000D02*
X111800000Y-100800000D01*
G04 #@! TO.N,Net-(J1-Pad202)*
X112600000Y-116590248D02*
X112600000Y-113590248D01*
X112600000Y-113590248D02*
X112000000Y-112990248D01*
X111400000Y-112390248D02*
X112000000Y-112990248D01*
X111400000Y-107740000D02*
X111400000Y-112390248D01*
G04 #@! TO.N,Net-(J1-Pad203)*
X112600000Y-105000000D02*
X112600000Y-100600000D01*
X112200000Y-100200000D02*
X112200000Y-91260000D01*
X112600000Y-100600000D02*
X112200000Y-100200000D01*
X112600000Y-105000000D02*
X112600000Y-105790248D01*
G04 #@! TO.N,Net-(J1-Pad204)*
X113800000Y-116590248D02*
X113800000Y-113590248D01*
X112200000Y-111990248D02*
X112900000Y-112690248D01*
X113800000Y-113590248D02*
X112900000Y-112690248D01*
X112200000Y-107740000D02*
X112200000Y-111990248D01*
X112900000Y-112690248D02*
X112800000Y-112590248D01*
G04 #@! TO.N,Net-(J1-Pad205)*
X113000000Y-99600000D02*
X113000000Y-91260000D01*
X113400000Y-100000000D02*
X113000000Y-99600000D01*
X113400000Y-104300000D02*
X113400000Y-100000000D01*
X113400000Y-104300000D02*
X113400000Y-104990248D01*
G04 #@! TO.N,Net-(J1-Pad206)*
X115000000Y-116590248D02*
X115000000Y-113590248D01*
X115000000Y-113590248D02*
X113600000Y-112190248D01*
X113000000Y-111590248D02*
X113600000Y-112190248D01*
X113000000Y-107740000D02*
X113000000Y-111590248D01*
G04 #@! TO.N,Net-(J1-Pad207)*
X113800000Y-98400000D02*
X113800000Y-91260000D01*
X114200000Y-98800000D02*
X113800000Y-98400000D01*
X114200000Y-104900000D02*
X114200000Y-105790248D01*
X114200000Y-104900000D02*
X114200000Y-98800000D01*
X114200000Y-105000000D02*
X114200000Y-104900000D01*
G04 #@! TO.N,Net-(J1-Pad208)*
X113800000Y-107740000D02*
X113800000Y-111190248D01*
X116200000Y-113590248D02*
X116200000Y-116590248D01*
X113800000Y-111190248D02*
X116200000Y-113590248D01*
G04 #@! TO.N,Net-(J1-Pad209)*
X114600000Y-97400000D02*
X114600000Y-91260000D01*
X115000000Y-97800000D02*
X114600000Y-97400000D01*
X115000000Y-104300000D02*
X115000000Y-104990248D01*
X115000000Y-104300000D02*
X115000000Y-97800000D01*
G04 #@! TO.N,Net-(J1-Pad210)*
X117400000Y-116590248D02*
X117400000Y-113590248D01*
X114600000Y-107740000D02*
X114600000Y-110790248D01*
X117400000Y-113590248D02*
X115300000Y-111490248D01*
X114600000Y-110790248D02*
X115300000Y-111490248D01*
X115300000Y-111490248D02*
X115200000Y-111390248D01*
G04 #@! TO.N,Net-(J1-Pad211)*
X115800000Y-105000000D02*
X115800000Y-97000000D01*
X115400000Y-96600000D02*
X115400000Y-91260000D01*
X115800000Y-97000000D02*
X115400000Y-96600000D01*
X115800000Y-105000000D02*
X115800000Y-105790248D01*
G04 #@! TO.N,Net-(J1-Pad212)*
X118600000Y-116590248D02*
X118600000Y-113590248D01*
X115400000Y-110390248D02*
X116109752Y-111100000D01*
X118600000Y-113590248D02*
X116109752Y-111100000D01*
X115400000Y-107740000D02*
X115400000Y-110390248D01*
X116109752Y-111100000D02*
X116000000Y-110990248D01*
G04 #@! TO.N,Net-(J1-Pad213)*
X116200000Y-96000000D02*
X116200000Y-91260000D01*
X116600000Y-96400000D02*
X116200000Y-96000000D01*
X116600000Y-104300000D02*
X116600000Y-104990248D01*
X116600000Y-104300000D02*
X116600000Y-96400000D01*
G04 #@! TO.N,Net-(J1-Pad214)*
X119800000Y-116590248D02*
X119800000Y-113590248D01*
X116200000Y-109990248D02*
X117200000Y-110990248D01*
X116200000Y-107740000D02*
X116200000Y-109990248D01*
X119800000Y-113590248D02*
X117200000Y-110990248D01*
X117200000Y-110990248D02*
X116800000Y-110590248D01*
G04 #@! TO.N,Net-(J1-Pad215)*
X117400000Y-105000000D02*
X117400000Y-96000000D01*
X117000000Y-95600000D02*
X117000000Y-91260000D01*
X117400000Y-96000000D02*
X117000000Y-95600000D01*
X117400000Y-105000000D02*
X117400000Y-105790248D01*
G04 #@! TO.N,Net-(J1-Pad216)*
X117000000Y-107740000D02*
X117000000Y-109590248D01*
X121000000Y-113590248D02*
X121000000Y-116590248D01*
X117000000Y-109590248D02*
X121000000Y-113590248D01*
G04 #@! TO.N,Net-(J1-Pad217)*
X117800000Y-95200000D02*
X117800000Y-91260000D01*
X118200000Y-95600000D02*
X117800000Y-95200000D01*
X118200000Y-104400000D02*
X118200000Y-104990248D01*
X118200000Y-104400000D02*
X118200000Y-95600000D01*
G04 #@! TO.N,Net-(J1-Pad218)*
X122200000Y-116590248D02*
X122200000Y-113590248D01*
X117800000Y-109190248D02*
X118509752Y-109900000D01*
X117800000Y-107740000D02*
X117800000Y-109190248D01*
X122200000Y-113590248D02*
X118509752Y-109900000D01*
X118509752Y-109900000D02*
X118400000Y-109790248D01*
G04 #@! TO.N,Net-(J1-Pad219)*
X118600000Y-95000000D02*
X118600000Y-91260000D01*
X119000000Y-95400000D02*
X118600000Y-95000000D01*
X119000000Y-104900000D02*
X119000000Y-105790248D01*
X119000000Y-104900000D02*
X119000000Y-95400000D01*
X119000000Y-105000000D02*
X119000000Y-104900000D01*
G04 #@! TO.N,Net-(J1-Pad220)*
X123400000Y-116590248D02*
X123400000Y-113590248D01*
X118600000Y-108790248D02*
X119509752Y-109700000D01*
X123400000Y-113590248D02*
X119509752Y-109700000D01*
X118600000Y-107740000D02*
X118600000Y-108790248D01*
X119509752Y-109700000D02*
X119200000Y-109390248D01*
G04 #@! TO.N,Net-(J1-Pad221)*
X119400000Y-94800000D02*
X119400000Y-91260000D01*
X119800000Y-95200000D02*
X119400000Y-94800000D01*
X119800000Y-104300000D02*
X119800000Y-104990248D01*
X119800000Y-104300000D02*
X119800000Y-95200000D01*
G04 #@! TO.N,Net-(J1-Pad222)*
X119400000Y-108800000D02*
X120500000Y-109900000D01*
X119400000Y-107740000D02*
X119400000Y-108800000D01*
X120600000Y-109900000D02*
X124600000Y-113900000D01*
X124600000Y-113900000D02*
X124600000Y-116590248D01*
X120500000Y-109900000D02*
X120600000Y-109900000D01*
G04 #@! TO.N,Net-(J1-Pad223)*
X120600000Y-105000000D02*
X120600000Y-95000000D01*
X120200000Y-94600000D02*
X120200000Y-91260000D01*
X120600000Y-95000000D02*
X120200000Y-94600000D01*
X120600000Y-105000000D02*
X120600000Y-105790248D01*
G04 #@! TO.N,Net-(J1-Pad224)*
X120900000Y-109500000D02*
X120200000Y-108800000D01*
X121200000Y-109500000D02*
X120900000Y-109500000D01*
X120200000Y-108800000D02*
X120200000Y-107740000D01*
X125800000Y-114100000D02*
X121200000Y-109500000D01*
X125800000Y-116590248D02*
X125800000Y-114100000D01*
G04 #@! TO.N,Net-(J1-Pad225)*
X121000000Y-94400000D02*
X121000000Y-91260000D01*
X121400000Y-94800000D02*
X121000000Y-94400000D01*
X121400000Y-104300000D02*
X121400000Y-104990248D01*
X121400000Y-104300000D02*
X121400000Y-94800000D01*
G04 #@! TO.N,Net-(J1-Pad226)*
X127000000Y-114900000D02*
X127000000Y-116590248D01*
X127000000Y-114500000D02*
X127000000Y-114900000D01*
X121330010Y-109030010D02*
X121530010Y-109030010D01*
X121530010Y-109030010D02*
X127000000Y-114500000D01*
X121000000Y-107740000D02*
X121000000Y-108700000D01*
X121000000Y-108700000D02*
X121330010Y-109030010D01*
G04 #@! TO.N,Net-(J1-Pad227)*
X121800000Y-94200000D02*
X121800000Y-91260000D01*
X122200000Y-94600000D02*
X121800000Y-94200000D01*
X122200000Y-104900000D02*
X122200000Y-105790248D01*
X122200000Y-104900000D02*
X122200000Y-94600000D01*
X122200000Y-105000000D02*
X122200000Y-104900000D01*
G04 #@! TO.N,Net-(J1-Pad228)*
X121800000Y-108680000D02*
X128200000Y-115080000D01*
X121800000Y-107740000D02*
X121800000Y-108680000D01*
X128200000Y-115080000D02*
X128200000Y-115300000D01*
X128200000Y-116590248D02*
X128200000Y-115300000D01*
X128200000Y-115300000D02*
X128200000Y-115200000D01*
G04 #@! TO.N,Net-(J1-Pad229)*
X122600000Y-94200000D02*
X122600000Y-91260000D01*
X123000000Y-94600000D02*
X122600000Y-94200000D01*
X123000000Y-104200000D02*
X123000000Y-104990248D01*
X123000000Y-104200000D02*
X123000000Y-94600000D01*
G04 #@! TO.N,Net-(J1-Pad230)*
X129400000Y-116165984D02*
X129400000Y-116590248D01*
X129400000Y-115480000D02*
X129400000Y-116165984D01*
X122600000Y-108680000D02*
X129400000Y-115480000D01*
X122600000Y-107740000D02*
X122600000Y-108680000D01*
G04 #@! TO.N,Net-(J1-Pad231)*
X123400000Y-94000000D02*
X123400000Y-91260000D01*
X123800000Y-94400000D02*
X123400000Y-94000000D01*
X123800000Y-104900000D02*
X123800000Y-105790248D01*
X123800000Y-104900000D02*
X123800000Y-94400000D01*
X123800000Y-105000000D02*
X123800000Y-104900000D01*
G04 #@! TO.N,Net-(J1-Pad232)*
X130600000Y-116300000D02*
X130600000Y-116590248D01*
X130600000Y-115880000D02*
X130600000Y-116300000D01*
X123400000Y-107740000D02*
X123400000Y-108680000D01*
X123400000Y-108680000D02*
X130600000Y-115880000D01*
G04 #@! TO.N,Net-(J1-Pad233)*
X124600000Y-94200000D02*
X124200000Y-93800000D01*
X124200000Y-93800000D02*
X124200000Y-91260000D01*
X124600000Y-104200000D02*
X124600000Y-104990248D01*
X124600000Y-104200000D02*
X124600000Y-94200000D01*
G04 #@! TO.N,Net-(J1-Pad234)*
X129720000Y-114200000D02*
X124200000Y-108680000D01*
X124200000Y-108680000D02*
X124200000Y-107740000D01*
X130300000Y-114200000D02*
X129720000Y-114200000D01*
X131800000Y-116590248D02*
X131800000Y-115700000D01*
X131800000Y-115700000D02*
X130300000Y-114200000D01*
G04 #@! TO.N,Net-(J1-Pad235)*
X125000000Y-93800000D02*
X125000000Y-91260000D01*
X125400000Y-94200000D02*
X125000000Y-93800000D01*
X125400000Y-103600000D02*
X125400000Y-94200000D01*
X125400000Y-103600000D02*
X125400000Y-105790248D01*
G04 #@! TO.N,Net-(J1-Pad236)*
X125000000Y-108680000D02*
X129700000Y-113380000D01*
X125000000Y-107740000D02*
X125000000Y-108680000D01*
X129700000Y-113380000D02*
X129700000Y-113400000D01*
X129700000Y-113400000D02*
X129900000Y-113600000D01*
X129900000Y-113600000D02*
X130800000Y-113600000D01*
X133000000Y-115800000D02*
X133000000Y-116590248D01*
X130800000Y-113600000D02*
X133000000Y-115800000D01*
G04 #@! TO.N,Net-(J1-Pad237)*
X125800000Y-93800000D02*
X125800000Y-91260000D01*
X126200000Y-94200000D02*
X125800000Y-93800000D01*
X126200000Y-103200000D02*
X126200000Y-94200000D01*
X126200000Y-103200000D02*
X126200000Y-104990248D01*
G04 #@! TO.N,Net-(J1-Pad238)*
X125800000Y-108690248D02*
X129900000Y-112790248D01*
X125800000Y-107740000D02*
X125800000Y-108690248D01*
X129900000Y-112790248D02*
X129900000Y-112800000D01*
X129900000Y-112800000D02*
X130800000Y-112800000D01*
X130800000Y-112800000D02*
X130900000Y-112800000D01*
X134200000Y-115900000D02*
X134200000Y-116590248D01*
X131100000Y-112800000D02*
X134200000Y-115900000D01*
X130800000Y-112800000D02*
X131100000Y-112800000D01*
G04 #@! TO.N,Net-(J1-Pad239)*
X126600000Y-93800000D02*
X127000000Y-94200000D01*
X126600000Y-91260000D02*
X126600000Y-93800000D01*
X127000000Y-94200000D02*
X127000000Y-103900000D01*
X127000000Y-103900000D02*
X127000000Y-105790248D01*
G04 #@! TO.N,Net-(J1-Pad240)*
X126600000Y-108680000D02*
X129910248Y-111990248D01*
X126600000Y-107740000D02*
X126600000Y-108680000D01*
X129910248Y-111990248D02*
X129910248Y-112010248D01*
X129910248Y-112010248D02*
X130000000Y-112100000D01*
X131300000Y-112100000D02*
X131500000Y-112100000D01*
X130000000Y-112100000D02*
X131300000Y-112100000D01*
X135400000Y-116000000D02*
X135400000Y-116100000D01*
X131500000Y-112100000D02*
X135400000Y-116000000D01*
X135400000Y-116100000D02*
X135400000Y-116590248D01*
G04 #@! TO.N,Net-(J1-Pad241)*
X127400000Y-91260000D02*
X127400000Y-93600000D01*
X127400000Y-93600000D02*
X127800000Y-94000000D01*
X127800000Y-94000000D02*
X127800000Y-103700000D01*
X127800000Y-103700000D02*
X127800000Y-104990248D01*
G04 #@! TO.N,Net-(J1-Pad242)*
X129910248Y-111190248D02*
X130700000Y-111190248D01*
X127400000Y-107740000D02*
X127400000Y-108680000D01*
X127400000Y-108680000D02*
X129910248Y-111190248D01*
X130700000Y-111190248D02*
X130520000Y-111190248D01*
X136600000Y-116300000D02*
X136600000Y-116590248D01*
X130700000Y-111190248D02*
X131490248Y-111190248D01*
X131490248Y-111190248D02*
X136600000Y-116300000D01*
G04 #@! TO.N,Net-(J1-Pad243)*
X128200000Y-93600000D02*
X128600000Y-94000000D01*
X128200000Y-91260000D02*
X128200000Y-93600000D01*
X128600000Y-94000000D02*
X128600000Y-104800000D01*
X128600000Y-104800000D02*
X128600000Y-105790248D01*
G04 #@! TO.N,Net-(J1-Pad244)*
X128990248Y-107740000D02*
X128200000Y-107740000D01*
X129000000Y-107730248D02*
X128990248Y-107740000D01*
X129000000Y-107730248D02*
X128800000Y-107730248D01*
X128200000Y-107740000D02*
X128949752Y-107740000D01*
X131496000Y-110286248D02*
X130987248Y-110286248D01*
X131496000Y-110286248D02*
X137800000Y-116590248D01*
X129401252Y-108700252D02*
X129401252Y-108191500D01*
X130987248Y-110286248D02*
X129401252Y-108700252D01*
X128949752Y-107740000D02*
X129401252Y-108191500D01*
G04 #@! TO.N,Net-(J1-Pad179)*
X96300000Y-96700000D02*
X96400000Y-96800000D01*
X92240000Y-96700000D02*
X96300000Y-96700000D01*
G04 #@! TO.N,Net-(J1-Pad181)*
X97100000Y-97500000D02*
X97200000Y-97600000D01*
X92240000Y-97500000D02*
X97100000Y-97500000D01*
G04 #@! TO.N,Net-(J1-Pad182)*
X92240000Y-101500000D02*
X94100000Y-101500000D01*
X97600000Y-116600000D02*
X97600000Y-115400000D01*
X97600000Y-115400000D02*
X97000000Y-114800000D01*
X96600000Y-104000000D02*
X96800000Y-104200000D01*
X97000000Y-114800000D02*
X96800000Y-114600000D01*
X96800000Y-114600000D02*
X96800000Y-107800000D01*
X96800000Y-104200000D02*
X96400000Y-103800000D01*
X96800000Y-107800000D02*
X96800000Y-104200000D01*
X96600000Y-104000000D02*
X96400000Y-103800000D01*
X96400000Y-103800000D02*
X94100000Y-101500000D01*
G04 #@! TO.N,Net-(J1-Pad183)*
X92240000Y-98300000D02*
X97900000Y-98300000D01*
X97900000Y-98300000D02*
X98000000Y-98400000D01*
G04 #@! TO.N,Net-(J1-Pad184)*
X108700000Y-100700000D02*
X107760000Y-100700000D01*
X109200000Y-92800000D02*
X109200000Y-100200000D01*
X109200000Y-100200000D02*
X108700000Y-100700000D01*
X108653000Y-92253000D02*
X108780000Y-92380000D01*
X105588000Y-92253000D02*
X108653000Y-92253000D01*
X108780000Y-92380000D02*
X109200000Y-92800000D01*
G04 #@! TO.N,Net-(J1-Pad185)*
X107660000Y-97600000D02*
X107760000Y-97500000D01*
X102707000Y-97500000D02*
X102667000Y-97460000D01*
X107760000Y-97500000D02*
X102707000Y-97500000D01*
G04 #@! TO.N,Net-(J1-Pad187)*
X100600000Y-115300000D02*
X100600000Y-116700000D01*
X107760000Y-96700000D02*
X102286000Y-96700000D01*
X102286000Y-96700000D02*
X101905000Y-97081000D01*
X101905000Y-97081000D02*
X101905000Y-98660000D01*
X101200000Y-114700000D02*
X100600000Y-115300000D01*
X101905000Y-98660000D02*
X101200000Y-99365000D01*
X101200000Y-99365000D02*
X101200000Y-114700000D01*
G04 #@! TO.N,Net-(J1-Pad189)*
X106820000Y-95900000D02*
X107760000Y-95900000D01*
X103699999Y-95900001D02*
X106820000Y-95900000D01*
G04 #@! TO.N,Net-(J1-Pad191)*
X104300000Y-95100000D02*
X104200000Y-95200000D01*
X107760000Y-95100000D02*
X104300000Y-95100000D01*
G04 #@! TO.N,Net-(J1-Pad60)*
X95700000Y-100700000D02*
X97600000Y-102600000D01*
X97600000Y-102600000D02*
X97600000Y-113600000D01*
X92240000Y-100700000D02*
X95700000Y-100700000D01*
X97900000Y-113900000D02*
X98500000Y-114500000D01*
X97600000Y-113600000D02*
X97900000Y-113900000D01*
X98500000Y-114500000D02*
X98400000Y-114400000D01*
X97900000Y-113900000D02*
X98400000Y-114400000D01*
X98500000Y-118600000D02*
X98500000Y-114500000D01*
X98500000Y-119324264D02*
X98500000Y-118600000D01*
X96800000Y-120600000D02*
X97224264Y-120600000D01*
X97224264Y-120600000D02*
X98500000Y-119324264D01*
G04 #@! TO.N,Net-(J1-Pad61)*
X95900000Y-99900000D02*
X92240000Y-99900000D01*
X98400000Y-102400000D02*
X95900000Y-99900000D01*
X99100000Y-113700000D02*
X98400000Y-113000000D01*
X98400000Y-113000000D02*
X98400000Y-102400000D01*
X97899999Y-120900001D02*
X97899999Y-120700001D01*
X97600000Y-121200000D02*
X97899999Y-120900001D01*
X99100000Y-119500000D02*
X99100000Y-119200000D01*
X97899999Y-120700001D02*
X99100000Y-119500000D01*
X99100000Y-119200000D02*
X99100000Y-113700000D01*
G04 #@! TO.N,Net-(J1-Pad62)*
X98400000Y-121200000D02*
X98400000Y-121800000D01*
X96300000Y-99100000D02*
X99200000Y-102000000D01*
X92240000Y-99100000D02*
X96300000Y-99100000D01*
X98400000Y-121000000D02*
X98400000Y-121200000D01*
X99200000Y-102000000D02*
X99200000Y-113000000D01*
X99200000Y-113000000D02*
X99700000Y-113500000D01*
X99700000Y-119700000D02*
X98400000Y-121000000D01*
X99700000Y-113500000D02*
X99700000Y-119700000D01*
G04 #@! TO.N,Net-(J1-Pad63)*
X104700000Y-99900000D02*
X107760000Y-99900000D01*
X103000000Y-101600000D02*
X104700000Y-99900000D01*
X100600000Y-121800000D02*
X103000000Y-119400000D01*
X103000000Y-119400000D02*
X103000000Y-101600000D01*
X99699999Y-122900001D02*
X99899999Y-122900001D01*
X99400000Y-123200000D02*
X99699999Y-122900001D01*
X100600000Y-122200000D02*
X100600000Y-121800000D01*
X99899999Y-122900001D02*
X100600000Y-122200000D01*
D18*
G04 #@! TO.N,V_HV_C*
X61900000Y-120193000D02*
X60122000Y-118415000D01*
X60122000Y-118415000D02*
X60122000Y-110287000D01*
X97000000Y-123750000D02*
X94750000Y-123750000D01*
X99285000Y-126035000D02*
X97000000Y-123750000D01*
X106477000Y-126035000D02*
X99285000Y-126035000D01*
X135472000Y-105500000D02*
X139624000Y-109652000D01*
X139624000Y-109652000D02*
X139624000Y-118669000D01*
X139624000Y-118669000D02*
X137846000Y-120447000D01*
X91193000Y-120193000D02*
X61900000Y-120193000D01*
X94750000Y-123750000D02*
X91193000Y-120193000D01*
X130240000Y-105500000D02*
X135472000Y-105500000D01*
X112065000Y-120447000D02*
X106477000Y-126035000D01*
X136195000Y-120447000D02*
X112065000Y-120447000D01*
X137846000Y-120447000D02*
X136195000Y-120447000D01*
X142799000Y-120066000D02*
X142799000Y-80569000D01*
X142799000Y-80442000D02*
X142799000Y-80569000D01*
X138735000Y-124130000D02*
X142799000Y-120066000D01*
X136449000Y-124130000D02*
X138735000Y-124130000D01*
X136195000Y-123876000D02*
X136449000Y-124130000D01*
X136195000Y-123749000D02*
X136195000Y-123876000D01*
X136195000Y-120447000D02*
X136195000Y-121463000D01*
X142799000Y-80569000D02*
X142799000Y-80061000D01*
X136830000Y-74092000D02*
X136322000Y-74092000D01*
X142799000Y-80061000D02*
X136830000Y-74092000D01*
X104572000Y-74092000D02*
X136322000Y-74092000D01*
X96190000Y-74600000D02*
X96190000Y-74346000D01*
X96063000Y-74727000D02*
X96190000Y-74600000D01*
X96063000Y-76886000D02*
X96063000Y-74727000D01*
X96190000Y-82982000D02*
X96190000Y-77013000D01*
X96190000Y-77013000D02*
X96063000Y-76886000D01*
D19*
X96250000Y-83042000D02*
X96190000Y-82982000D01*
X96250000Y-84800000D02*
X96250000Y-83042000D01*
D18*
X69760000Y-105500000D02*
X63258000Y-105500000D01*
X60122000Y-108636000D02*
X60122000Y-110287000D01*
X63258000Y-105500000D02*
X60122000Y-108636000D01*
D17*
G04 #@! TO.N,LE_C*
X69760000Y-95100000D02*
X63477000Y-95100000D01*
X63477000Y-95100000D02*
X63170000Y-94793000D01*
X63170000Y-84125000D02*
X63170000Y-83998000D01*
X63170000Y-94793000D02*
X63170000Y-84125000D01*
X130240000Y-103900000D02*
X136232000Y-103900000D01*
X136232000Y-103900000D02*
X136613000Y-103900000D01*
X136613000Y-103900000D02*
X138227000Y-102286000D01*
X63170000Y-84125000D02*
X63170000Y-80823000D01*
X141402000Y-99111000D02*
X141402000Y-80569000D01*
X136613000Y-103900000D02*
X141402000Y-99111000D01*
X141402000Y-80569000D02*
X141402000Y-80061000D01*
X141402000Y-80061000D02*
X140640000Y-79299000D01*
X64948000Y-79045000D02*
X64059000Y-79934000D01*
X93523000Y-79045000D02*
X64948000Y-79045000D01*
X63170000Y-80823000D02*
X64059000Y-79934000D01*
X101270000Y-84780000D02*
X101250000Y-84800000D01*
X101270000Y-79045000D02*
X101270000Y-84780000D01*
X134417000Y-79299000D02*
X111049000Y-79299000D01*
X111049000Y-79299000D02*
X110668000Y-79680000D01*
X106858000Y-79680000D02*
X106604000Y-79426000D01*
X110668000Y-79680000D02*
X106858000Y-79680000D01*
G04 #@! TO.N,CLK_C*
X63932000Y-95900000D02*
X63642000Y-95900000D01*
X69760000Y-95900000D02*
X63932000Y-95900000D01*
X62535000Y-95174000D02*
X62535000Y-80569000D01*
X63261000Y-95900000D02*
X62535000Y-95174000D01*
X63932000Y-95900000D02*
X63261000Y-95900000D01*
X135635000Y-103100000D02*
X130240000Y-103100000D01*
X140005000Y-78791000D02*
X140005000Y-79807000D01*
X140640000Y-98730000D02*
X136270000Y-103100000D01*
X140005000Y-79807000D02*
X140640000Y-80442000D01*
X139624000Y-78410000D02*
X140005000Y-78791000D01*
X140640000Y-80442000D02*
X140640000Y-98730000D01*
X136270000Y-103100000D02*
X135635000Y-103100000D01*
X92761000Y-78283000D02*
X64821000Y-78283000D01*
X62535000Y-80569000D02*
X64313000Y-78791000D01*
X64821000Y-78283000D02*
X64313000Y-78791000D01*
X100254000Y-81962000D02*
X100250000Y-81966000D01*
X100254000Y-78283000D02*
X100254000Y-81962000D01*
X100250000Y-81835000D02*
X100250000Y-81966000D01*
X100250000Y-81966000D02*
X100250000Y-84800000D01*
X107747000Y-78918000D02*
X110541000Y-78918000D01*
X111049000Y-78410000D02*
X133909000Y-78410000D01*
X110541000Y-78918000D02*
X111049000Y-78410000D01*
G04 #@! TO.N,Net-(U2-Pad26)*
X138353000Y-104700000D02*
X130240000Y-104700000D01*
X138354000Y-104699000D02*
X138353000Y-104700000D01*
X141275000Y-107620000D02*
X138354000Y-104699000D01*
X137973000Y-122860000D02*
X141275000Y-119558000D01*
X113335000Y-122860000D02*
X137973000Y-122860000D01*
X107239000Y-128956000D02*
X113335000Y-122860000D01*
X96000000Y-125000000D02*
X99956000Y-128956000D01*
X69760000Y-104700000D02*
X62280000Y-104700000D01*
X92250000Y-125000000D02*
X96000000Y-125000000D01*
X61392000Y-121971000D02*
X89221000Y-121971000D01*
X59233000Y-107747000D02*
X59233000Y-119812000D01*
X99956000Y-128956000D02*
X107239000Y-128956000D01*
X62280000Y-104700000D02*
X59233000Y-107747000D01*
X89221000Y-121971000D02*
X92250000Y-125000000D01*
X141275000Y-119558000D02*
X141275000Y-107620000D01*
X59233000Y-119812000D02*
X61392000Y-121971000D01*
G04 #@! TO.N,Net-(J1-Pad64)*
X103900000Y-99100000D02*
X107760000Y-99100000D01*
X102400000Y-100600000D02*
X103900000Y-99100000D01*
X102400000Y-118000000D02*
X102400000Y-117800000D01*
X102400000Y-117800000D02*
X102400000Y-100600000D01*
X99400000Y-122200000D02*
X102400000Y-119200000D01*
X102400000Y-118800000D02*
X102400000Y-117800000D01*
X102400000Y-119200000D02*
X102400000Y-118800000D01*
G04 #@! TO.N,Net-(J1-Pad65)*
X103600000Y-98300000D02*
X107760000Y-98300000D01*
X103500000Y-98300000D02*
X103600000Y-98300000D01*
X103300000Y-98300000D02*
X103600000Y-98300000D01*
X101800000Y-99800000D02*
X103300000Y-98300000D01*
X99400000Y-121200000D02*
X99699999Y-120900001D01*
X101600000Y-119200000D02*
X101600000Y-117200000D01*
X99699999Y-120900001D02*
X99899999Y-120900001D01*
X99899999Y-120900001D02*
X101600000Y-119200000D01*
X101800000Y-117000000D02*
X101800000Y-99800000D01*
X101600000Y-117200000D02*
X101800000Y-117000000D01*
G04 #@! TO.N,SENS_PAD*
X98000000Y-129750000D02*
X95750000Y-129750000D01*
X98000000Y-129750000D02*
X95250000Y-129750000D01*
X95250000Y-129750000D02*
X94750000Y-129250000D01*
X98250000Y-83137000D02*
X98095000Y-82982000D01*
X98250000Y-84800000D02*
X98250000Y-83137000D01*
X98095000Y-82982000D02*
X98095000Y-75489000D01*
X98095000Y-75489000D02*
X98095000Y-75362000D01*
X98095000Y-72949000D02*
X98095000Y-73457000D01*
X98095000Y-75489000D02*
X98095000Y-73457000D01*
X98095000Y-73457000D02*
X98095000Y-73330000D01*
X105588000Y-72949000D02*
X105969000Y-72568000D01*
X104318000Y-72949000D02*
X105588000Y-72949000D01*
X105842000Y-72695000D02*
X105969000Y-72568000D01*
X144500000Y-129750000D02*
X98000000Y-129750000D01*
X148000000Y-79051000D02*
X148000000Y-126250000D01*
X149022000Y-78029000D02*
X148000000Y-79051000D01*
X148000000Y-126250000D02*
X144500000Y-129750000D01*
X106350000Y-72187000D02*
X110541000Y-72187000D01*
X110541000Y-72187000D02*
X113589000Y-69139000D01*
X105969000Y-72568000D02*
X106350000Y-72187000D01*
X149022000Y-71171000D02*
X149022000Y-78029000D01*
X113589000Y-69139000D02*
X146990000Y-69139000D01*
X146990000Y-69139000D02*
X149022000Y-71171000D01*
D19*
G04 #@! TO.N,GND*
X88000000Y-123250000D02*
X60250000Y-123250000D01*
X60250000Y-123250000D02*
X57250000Y-120250000D01*
D17*
X95750000Y-84800000D02*
X95750000Y-83812000D01*
X96750000Y-84800000D02*
X96750000Y-83923000D01*
D19*
X57250000Y-98603000D02*
X57250000Y-79377000D01*
X57250000Y-98603000D02*
X57250000Y-98250000D01*
X57250000Y-120250000D02*
X57250000Y-98603000D01*
D17*
X94250000Y-84800000D02*
X94250000Y-85487000D01*
X94250000Y-85487000D02*
X94666000Y-85903000D01*
X97750000Y-85613000D02*
X97750000Y-84800000D01*
X97460000Y-85903000D02*
X97750000Y-85613000D01*
X96750000Y-85851000D02*
X96698000Y-85903000D01*
X96750000Y-84800000D02*
X96750000Y-85851000D01*
X96698000Y-85903000D02*
X97460000Y-85903000D01*
X95750000Y-84800000D02*
X95750000Y-85844000D01*
X95750000Y-85844000D02*
X95809000Y-85903000D01*
X94666000Y-85903000D02*
X95809000Y-85903000D01*
X95809000Y-85903000D02*
X96698000Y-85903000D01*
X104750000Y-85725000D02*
X104699000Y-85776000D01*
X104750000Y-84800000D02*
X104750000Y-85725000D01*
X103750000Y-84800000D02*
X103750000Y-85709000D01*
X103750000Y-85709000D02*
X103683000Y-85776000D01*
X103683000Y-85776000D02*
X104699000Y-85776000D01*
X102750000Y-84800000D02*
X102750000Y-85693000D01*
X102750000Y-85693000D02*
X102667000Y-85776000D01*
X102667000Y-85776000D02*
X103683000Y-85776000D01*
X101750000Y-85748000D02*
X101778000Y-85776000D01*
X101750000Y-84800000D02*
X101750000Y-85748000D01*
X101778000Y-85776000D02*
X102667000Y-85776000D01*
X99750000Y-84800000D02*
X99750000Y-85399000D01*
X101016000Y-85776000D02*
X101143000Y-85776000D01*
X99750000Y-85399000D02*
X100127000Y-85776000D01*
X101143000Y-85776000D02*
X101778000Y-85776000D01*
X100750000Y-85764000D02*
X100762000Y-85776000D01*
X100750000Y-84800000D02*
X100750000Y-85764000D01*
X100127000Y-85776000D02*
X100762000Y-85776000D01*
X100762000Y-85776000D02*
X101143000Y-85776000D01*
D18*
X57250000Y-79377000D02*
X57250000Y-79094000D01*
X57250000Y-79094000D02*
X57201000Y-79045000D01*
D17*
X94250000Y-84800000D02*
X90007000Y-84800000D01*
X88951000Y-83744000D02*
X88697000Y-83490000D01*
X90007000Y-84800000D02*
X88951000Y-83744000D01*
D18*
X100762000Y-85776000D02*
X100762000Y-86792000D01*
X100762000Y-86792000D02*
X105715000Y-86792000D01*
X105715000Y-86792000D02*
X106477000Y-86030000D01*
X106477000Y-86030000D02*
X113208000Y-86030000D01*
D21*
G04 #@! TO.N,DI_C*
X130302000Y-94300000D02*
X130322000Y-94300000D01*
D17*
X104318000Y-84732000D02*
X104250000Y-84800000D01*
X104250000Y-84800000D02*
X104250000Y-81712000D01*
X104250000Y-81712000D02*
X104250000Y-79934000D01*
X104250000Y-79934000D02*
X104250000Y-79875000D01*
X104250000Y-77970000D02*
X104250000Y-80061000D01*
X104250000Y-80061000D02*
X104250000Y-79934000D01*
X104826000Y-77394000D02*
X104250000Y-77970000D01*
X109144000Y-77394000D02*
X104826000Y-77394000D01*
X130240000Y-94300000D02*
X136180000Y-94300000D01*
X136830000Y-80188000D02*
X134417000Y-77775000D01*
X109525000Y-77775000D02*
X109144000Y-77394000D01*
X136830000Y-93650000D02*
X136830000Y-80188000D01*
X136180000Y-94300000D02*
X136830000Y-93650000D01*
X134417000Y-77775000D02*
X109525000Y-77775000D01*
G04 #@! TO.N,BL_C*
X63424000Y-102300000D02*
X62422000Y-102300000D01*
X63424000Y-102300000D02*
X63057000Y-102300000D01*
X69760000Y-102300000D02*
X63424000Y-102300000D01*
X62422000Y-102300000D02*
X58852000Y-98730000D01*
X58852000Y-96317000D02*
X58852000Y-95809000D01*
X58852000Y-98730000D02*
X58852000Y-96317000D01*
X103250000Y-74929000D02*
X103250000Y-74981000D01*
X103250000Y-74981000D02*
X103250000Y-84800000D01*
X103250000Y-71881000D02*
X102667000Y-71298000D01*
X64440000Y-73965000D02*
X58852000Y-79553000D01*
X103250000Y-74981000D02*
X103250000Y-71881000D01*
X102667000Y-71298000D02*
X92380000Y-71298000D01*
X92380000Y-71298000D02*
X89713000Y-73965000D01*
X58852000Y-79553000D02*
X58852000Y-96317000D01*
X89713000Y-73965000D02*
X64440000Y-73965000D01*
G04 #@! TO.N,POL_C*
X64059000Y-101500000D02*
X62892000Y-101500000D01*
X64059000Y-101500000D02*
X63781000Y-101500000D01*
X69760000Y-101500000D02*
X64059000Y-101500000D01*
X62892000Y-101500000D02*
X59487000Y-98095000D01*
X59487000Y-96698000D02*
X59487000Y-96571000D01*
X59487000Y-98095000D02*
X59487000Y-96698000D01*
X91872000Y-73330000D02*
X91999000Y-73203000D01*
X90602000Y-74600000D02*
X91872000Y-73330000D01*
X59487000Y-96698000D02*
X59487000Y-79807000D01*
X64694000Y-74600000D02*
X90602000Y-74600000D01*
X59487000Y-79807000D02*
X64694000Y-74600000D01*
X102250000Y-77358000D02*
X102250000Y-77394000D01*
X102250000Y-77394000D02*
X102250000Y-84800000D01*
X102250000Y-75870000D02*
X102250000Y-77394000D01*
X102250000Y-75707000D02*
X102250000Y-75870000D01*
X102250000Y-73838000D02*
X102250000Y-73675000D01*
X102250000Y-75870000D02*
X102250000Y-73838000D01*
X91872000Y-73330000D02*
X92761000Y-72441000D01*
X92761000Y-72441000D02*
X93015000Y-72187000D01*
X93269000Y-71933000D02*
X92761000Y-72441000D01*
X102032000Y-71933000D02*
X93269000Y-71933000D01*
X102250000Y-73838000D02*
X102250000Y-72151000D01*
X102250000Y-72151000D02*
X102032000Y-71933000D01*
G04 #@! TO.N,DIG1*
X99250000Y-84800000D02*
X99250000Y-86272000D01*
X99250000Y-86272000D02*
X98349000Y-87173000D01*
X98349000Y-87173000D02*
X94285000Y-87173000D01*
X89586000Y-86284000D02*
X89332000Y-86030000D01*
X89332000Y-86030000D02*
X86284000Y-86030000D01*
X93396000Y-86284000D02*
X89586000Y-86284000D01*
X94285000Y-87173000D02*
X93396000Y-86284000D01*
G04 #@! TO.N,DIG0*
X88316000Y-85649000D02*
X86538000Y-83871000D01*
X98095000Y-86792000D02*
X94539000Y-86792000D01*
X98750000Y-84800000D02*
X98750000Y-86137000D01*
X98750000Y-86137000D02*
X98095000Y-86792000D01*
X93650000Y-85903000D02*
X90348000Y-85903000D01*
X90348000Y-85903000D02*
X90094000Y-85649000D01*
X90094000Y-85649000D02*
X88316000Y-85649000D01*
X94539000Y-86792000D02*
X93650000Y-85903000D01*
G04 #@! TO.N,+3V3*
X111517000Y-84800000D02*
X105750000Y-84800000D01*
X112573000Y-83744000D02*
X111517000Y-84800000D01*
X112954000Y-83744000D02*
X112573000Y-83744000D01*
G04 #@! TD*
D22*
G04 #@! TO.N,GND*
G36*
X111938000Y-87935000D02*
X109485365Y-87935000D01*
X109485365Y-86850000D01*
X109452225Y-86683393D01*
X109357850Y-86542150D01*
X109216607Y-86447775D01*
X109050000Y-86414635D01*
X107050000Y-86414635D01*
X106883393Y-86447775D01*
X106742150Y-86542150D01*
X106647775Y-86683393D01*
X106614635Y-86850000D01*
X106614635Y-88150000D01*
X106647775Y-88316607D01*
X106731000Y-88441163D01*
X106731000Y-91726000D01*
X106089134Y-91726000D01*
X105999813Y-91636679D01*
X105732609Y-91526000D01*
X105443391Y-91526000D01*
X105176187Y-91636679D01*
X104971679Y-91841187D01*
X104861000Y-92108391D01*
X104861000Y-92397609D01*
X104971679Y-92664813D01*
X105176187Y-92869321D01*
X105443391Y-92980000D01*
X105597069Y-92980000D01*
X105588187Y-92983679D01*
X105383679Y-93188187D01*
X105273000Y-93455391D01*
X105273000Y-93673000D01*
X105055391Y-93673000D01*
X104788187Y-93783679D01*
X104583679Y-93988187D01*
X104473000Y-94255391D01*
X104473000Y-94348102D01*
X104462677Y-94400000D01*
X104473000Y-94451898D01*
X104473000Y-94473000D01*
X104255391Y-94473000D01*
X103988187Y-94583679D01*
X103783679Y-94788187D01*
X103673000Y-95055391D01*
X103673000Y-95148102D01*
X103662677Y-95200000D01*
X103673000Y-95251898D01*
X103673000Y-95273000D01*
X103455391Y-95273000D01*
X103188187Y-95383679D01*
X102983679Y-95588187D01*
X102873000Y-95855391D01*
X102873000Y-96144609D01*
X102884760Y-96173000D01*
X102337897Y-96173000D01*
X102285999Y-96162677D01*
X102234101Y-96173000D01*
X102234097Y-96173000D01*
X102080375Y-96203577D01*
X101906055Y-96320055D01*
X101876655Y-96364055D01*
X101569055Y-96671655D01*
X101525055Y-96701055D01*
X101408577Y-96875376D01*
X101378000Y-97029098D01*
X101378000Y-97029102D01*
X101367677Y-97081000D01*
X101378000Y-97132898D01*
X101378001Y-98441708D01*
X100864055Y-98955655D01*
X100820055Y-98985055D01*
X100790655Y-99029055D01*
X100790654Y-99029056D01*
X100745174Y-99097121D01*
X100703577Y-99159376D01*
X100673000Y-99313098D01*
X100673000Y-99313102D01*
X100662677Y-99365000D01*
X100673000Y-99416898D01*
X100673000Y-104191000D01*
X99727000Y-104191000D01*
X99727000Y-102051897D01*
X99737323Y-101999999D01*
X99727000Y-101948101D01*
X99727000Y-101948097D01*
X99696423Y-101794375D01*
X99637122Y-101705625D01*
X99609346Y-101664055D01*
X99609343Y-101664052D01*
X99579945Y-101620055D01*
X99535948Y-101590657D01*
X96772290Y-98827000D01*
X97398866Y-98827000D01*
X97588187Y-99016321D01*
X97855391Y-99127000D01*
X98144609Y-99127000D01*
X98411813Y-99016321D01*
X98616321Y-98811813D01*
X98727000Y-98544609D01*
X98727000Y-98255391D01*
X98616321Y-97988187D01*
X98411813Y-97783679D01*
X98144609Y-97673000D01*
X97927000Y-97673000D01*
X97927000Y-97455391D01*
X97816321Y-97188187D01*
X97611813Y-96983679D01*
X97344609Y-96873000D01*
X97127000Y-96873000D01*
X97127000Y-96655391D01*
X97016321Y-96388187D01*
X96811813Y-96183679D01*
X96544609Y-96073000D01*
X96327000Y-96073000D01*
X96327000Y-95855391D01*
X96216321Y-95588187D01*
X96011813Y-95383679D01*
X95744609Y-95273000D01*
X95527000Y-95273000D01*
X95527000Y-95055391D01*
X95416321Y-94788187D01*
X95211813Y-94583679D01*
X94944609Y-94473000D01*
X94727000Y-94473000D01*
X94727000Y-94255391D01*
X94616321Y-93988187D01*
X94411813Y-93783679D01*
X94144609Y-93673000D01*
X93855391Y-93673000D01*
X93613969Y-93773000D01*
X93410790Y-93773000D01*
X93415365Y-93750000D01*
X93415365Y-93250000D01*
X93382225Y-93083393D01*
X93287850Y-92942150D01*
X93269000Y-92929555D01*
X93269000Y-88441163D01*
X93352225Y-88316607D01*
X93385365Y-88150000D01*
X93385365Y-87018655D01*
X93875656Y-87508947D01*
X93905055Y-87552945D01*
X93949052Y-87582343D01*
X93949055Y-87582346D01*
X94079374Y-87669423D01*
X94111387Y-87675791D01*
X94233097Y-87700000D01*
X94233101Y-87700000D01*
X94285000Y-87710323D01*
X94336899Y-87700000D01*
X98297102Y-87700000D01*
X98349000Y-87710323D01*
X98400898Y-87700000D01*
X98400903Y-87700000D01*
X98554625Y-87669423D01*
X98728945Y-87552945D01*
X98758345Y-87508945D01*
X99585945Y-86681345D01*
X99629945Y-86651945D01*
X99746423Y-86477625D01*
X99777000Y-86323903D01*
X99777000Y-86323899D01*
X99787323Y-86272001D01*
X99777000Y-86220103D01*
X99777000Y-85827000D01*
X99877002Y-85827000D01*
X99877002Y-85747252D01*
X99956750Y-85827000D01*
X100004827Y-85827000D01*
X100198522Y-85746769D01*
X100209926Y-85735365D01*
X100290074Y-85735365D01*
X100301478Y-85746769D01*
X100495173Y-85827000D01*
X100543250Y-85827000D01*
X100675000Y-85695250D01*
X100675000Y-85629800D01*
X100707850Y-85607850D01*
X100750000Y-85544768D01*
X100792150Y-85607850D01*
X100825000Y-85629800D01*
X100825000Y-85695250D01*
X100956750Y-85827000D01*
X101004827Y-85827000D01*
X101198522Y-85746769D01*
X101209926Y-85735365D01*
X101290074Y-85735365D01*
X101301478Y-85746769D01*
X101495173Y-85827000D01*
X101543250Y-85827000D01*
X101675000Y-85695250D01*
X101675000Y-85629800D01*
X101707850Y-85607850D01*
X101750000Y-85544768D01*
X101792150Y-85607850D01*
X101825000Y-85629800D01*
X101825000Y-85695250D01*
X101956750Y-85827000D01*
X102004827Y-85827000D01*
X102198522Y-85746769D01*
X102209926Y-85735365D01*
X102290074Y-85735365D01*
X102301478Y-85746769D01*
X102495173Y-85827000D01*
X102543250Y-85827000D01*
X102675000Y-85695250D01*
X102675000Y-85629800D01*
X102707850Y-85607850D01*
X102750000Y-85544768D01*
X102792150Y-85607850D01*
X102825000Y-85629800D01*
X102825000Y-85695250D01*
X102956750Y-85827000D01*
X103004827Y-85827000D01*
X103198522Y-85746769D01*
X103209926Y-85735365D01*
X103290074Y-85735365D01*
X103301478Y-85746769D01*
X103495173Y-85827000D01*
X103543250Y-85827000D01*
X103675000Y-85695250D01*
X103675000Y-85629800D01*
X103707850Y-85607850D01*
X103750000Y-85544768D01*
X103792150Y-85607850D01*
X103825000Y-85629800D01*
X103825000Y-85695250D01*
X103956750Y-85827000D01*
X104004827Y-85827000D01*
X104198522Y-85746769D01*
X104209926Y-85735365D01*
X104290074Y-85735365D01*
X104301478Y-85746769D01*
X104495173Y-85827000D01*
X104543250Y-85827000D01*
X104675000Y-85695250D01*
X104675000Y-85629800D01*
X104707850Y-85607850D01*
X104750000Y-85544768D01*
X104792150Y-85607850D01*
X104825000Y-85629800D01*
X104825000Y-85695250D01*
X104956750Y-85827000D01*
X105004827Y-85827000D01*
X105198522Y-85746769D01*
X105209926Y-85735365D01*
X105400000Y-85735365D01*
X105500000Y-85715474D01*
X105600000Y-85735365D01*
X105900000Y-85735365D01*
X106066607Y-85702225D01*
X106207850Y-85607850D01*
X106302225Y-85466607D01*
X106329994Y-85327000D01*
X111465102Y-85327000D01*
X111517000Y-85337323D01*
X111568898Y-85327000D01*
X111568903Y-85327000D01*
X111722625Y-85296423D01*
X111831757Y-85223502D01*
X111852944Y-85209346D01*
X111852945Y-85209345D01*
X111896945Y-85179945D01*
X111926345Y-85135945D01*
X111938000Y-85124290D01*
X111938000Y-87935000D01*
X111938000Y-87935000D01*
G37*
X111938000Y-87935000D02*
X109485365Y-87935000D01*
X109485365Y-86850000D01*
X109452225Y-86683393D01*
X109357850Y-86542150D01*
X109216607Y-86447775D01*
X109050000Y-86414635D01*
X107050000Y-86414635D01*
X106883393Y-86447775D01*
X106742150Y-86542150D01*
X106647775Y-86683393D01*
X106614635Y-86850000D01*
X106614635Y-88150000D01*
X106647775Y-88316607D01*
X106731000Y-88441163D01*
X106731000Y-91726000D01*
X106089134Y-91726000D01*
X105999813Y-91636679D01*
X105732609Y-91526000D01*
X105443391Y-91526000D01*
X105176187Y-91636679D01*
X104971679Y-91841187D01*
X104861000Y-92108391D01*
X104861000Y-92397609D01*
X104971679Y-92664813D01*
X105176187Y-92869321D01*
X105443391Y-92980000D01*
X105597069Y-92980000D01*
X105588187Y-92983679D01*
X105383679Y-93188187D01*
X105273000Y-93455391D01*
X105273000Y-93673000D01*
X105055391Y-93673000D01*
X104788187Y-93783679D01*
X104583679Y-93988187D01*
X104473000Y-94255391D01*
X104473000Y-94348102D01*
X104462677Y-94400000D01*
X104473000Y-94451898D01*
X104473000Y-94473000D01*
X104255391Y-94473000D01*
X103988187Y-94583679D01*
X103783679Y-94788187D01*
X103673000Y-95055391D01*
X103673000Y-95148102D01*
X103662677Y-95200000D01*
X103673000Y-95251898D01*
X103673000Y-95273000D01*
X103455391Y-95273000D01*
X103188187Y-95383679D01*
X102983679Y-95588187D01*
X102873000Y-95855391D01*
X102873000Y-96144609D01*
X102884760Y-96173000D01*
X102337897Y-96173000D01*
X102285999Y-96162677D01*
X102234101Y-96173000D01*
X102234097Y-96173000D01*
X102080375Y-96203577D01*
X101906055Y-96320055D01*
X101876655Y-96364055D01*
X101569055Y-96671655D01*
X101525055Y-96701055D01*
X101408577Y-96875376D01*
X101378000Y-97029098D01*
X101378000Y-97029102D01*
X101367677Y-97081000D01*
X101378000Y-97132898D01*
X101378001Y-98441708D01*
X100864055Y-98955655D01*
X100820055Y-98985055D01*
X100790655Y-99029055D01*
X100790654Y-99029056D01*
X100745174Y-99097121D01*
X100703577Y-99159376D01*
X100673000Y-99313098D01*
X100673000Y-99313102D01*
X100662677Y-99365000D01*
X100673000Y-99416898D01*
X100673000Y-104191000D01*
X99727000Y-104191000D01*
X99727000Y-102051897D01*
X99737323Y-101999999D01*
X99727000Y-101948101D01*
X99727000Y-101948097D01*
X99696423Y-101794375D01*
X99637122Y-101705625D01*
X99609346Y-101664055D01*
X99609343Y-101664052D01*
X99579945Y-101620055D01*
X99535948Y-101590657D01*
X96772290Y-98827000D01*
X97398866Y-98827000D01*
X97588187Y-99016321D01*
X97855391Y-99127000D01*
X98144609Y-99127000D01*
X98411813Y-99016321D01*
X98616321Y-98811813D01*
X98727000Y-98544609D01*
X98727000Y-98255391D01*
X98616321Y-97988187D01*
X98411813Y-97783679D01*
X98144609Y-97673000D01*
X97927000Y-97673000D01*
X97927000Y-97455391D01*
X97816321Y-97188187D01*
X97611813Y-96983679D01*
X97344609Y-96873000D01*
X97127000Y-96873000D01*
X97127000Y-96655391D01*
X97016321Y-96388187D01*
X96811813Y-96183679D01*
X96544609Y-96073000D01*
X96327000Y-96073000D01*
X96327000Y-95855391D01*
X96216321Y-95588187D01*
X96011813Y-95383679D01*
X95744609Y-95273000D01*
X95527000Y-95273000D01*
X95527000Y-95055391D01*
X95416321Y-94788187D01*
X95211813Y-94583679D01*
X94944609Y-94473000D01*
X94727000Y-94473000D01*
X94727000Y-94255391D01*
X94616321Y-93988187D01*
X94411813Y-93783679D01*
X94144609Y-93673000D01*
X93855391Y-93673000D01*
X93613969Y-93773000D01*
X93410790Y-93773000D01*
X93415365Y-93750000D01*
X93415365Y-93250000D01*
X93382225Y-93083393D01*
X93287850Y-92942150D01*
X93269000Y-92929555D01*
X93269000Y-88441163D01*
X93352225Y-88316607D01*
X93385365Y-88150000D01*
X93385365Y-87018655D01*
X93875656Y-87508947D01*
X93905055Y-87552945D01*
X93949052Y-87582343D01*
X93949055Y-87582346D01*
X94079374Y-87669423D01*
X94111387Y-87675791D01*
X94233097Y-87700000D01*
X94233101Y-87700000D01*
X94285000Y-87710323D01*
X94336899Y-87700000D01*
X98297102Y-87700000D01*
X98349000Y-87710323D01*
X98400898Y-87700000D01*
X98400903Y-87700000D01*
X98554625Y-87669423D01*
X98728945Y-87552945D01*
X98758345Y-87508945D01*
X99585945Y-86681345D01*
X99629945Y-86651945D01*
X99746423Y-86477625D01*
X99777000Y-86323903D01*
X99777000Y-86323899D01*
X99787323Y-86272001D01*
X99777000Y-86220103D01*
X99777000Y-85827000D01*
X99877002Y-85827000D01*
X99877002Y-85747252D01*
X99956750Y-85827000D01*
X100004827Y-85827000D01*
X100198522Y-85746769D01*
X100209926Y-85735365D01*
X100290074Y-85735365D01*
X100301478Y-85746769D01*
X100495173Y-85827000D01*
X100543250Y-85827000D01*
X100675000Y-85695250D01*
X100675000Y-85629800D01*
X100707850Y-85607850D01*
X100750000Y-85544768D01*
X100792150Y-85607850D01*
X100825000Y-85629800D01*
X100825000Y-85695250D01*
X100956750Y-85827000D01*
X101004827Y-85827000D01*
X101198522Y-85746769D01*
X101209926Y-85735365D01*
X101290074Y-85735365D01*
X101301478Y-85746769D01*
X101495173Y-85827000D01*
X101543250Y-85827000D01*
X101675000Y-85695250D01*
X101675000Y-85629800D01*
X101707850Y-85607850D01*
X101750000Y-85544768D01*
X101792150Y-85607850D01*
X101825000Y-85629800D01*
X101825000Y-85695250D01*
X101956750Y-85827000D01*
X102004827Y-85827000D01*
X102198522Y-85746769D01*
X102209926Y-85735365D01*
X102290074Y-85735365D01*
X102301478Y-85746769D01*
X102495173Y-85827000D01*
X102543250Y-85827000D01*
X102675000Y-85695250D01*
X102675000Y-85629800D01*
X102707850Y-85607850D01*
X102750000Y-85544768D01*
X102792150Y-85607850D01*
X102825000Y-85629800D01*
X102825000Y-85695250D01*
X102956750Y-85827000D01*
X103004827Y-85827000D01*
X103198522Y-85746769D01*
X103209926Y-85735365D01*
X103290074Y-85735365D01*
X103301478Y-85746769D01*
X103495173Y-85827000D01*
X103543250Y-85827000D01*
X103675000Y-85695250D01*
X103675000Y-85629800D01*
X103707850Y-85607850D01*
X103750000Y-85544768D01*
X103792150Y-85607850D01*
X103825000Y-85629800D01*
X103825000Y-85695250D01*
X103956750Y-85827000D01*
X104004827Y-85827000D01*
X104198522Y-85746769D01*
X104209926Y-85735365D01*
X104290074Y-85735365D01*
X104301478Y-85746769D01*
X104495173Y-85827000D01*
X104543250Y-85827000D01*
X104675000Y-85695250D01*
X104675000Y-85629800D01*
X104707850Y-85607850D01*
X104750000Y-85544768D01*
X104792150Y-85607850D01*
X104825000Y-85629800D01*
X104825000Y-85695250D01*
X104956750Y-85827000D01*
X105004827Y-85827000D01*
X105198522Y-85746769D01*
X105209926Y-85735365D01*
X105400000Y-85735365D01*
X105500000Y-85715474D01*
X105600000Y-85735365D01*
X105900000Y-85735365D01*
X106066607Y-85702225D01*
X106207850Y-85607850D01*
X106302225Y-85466607D01*
X106329994Y-85327000D01*
X111465102Y-85327000D01*
X111517000Y-85337323D01*
X111568898Y-85327000D01*
X111568903Y-85327000D01*
X111722625Y-85296423D01*
X111831757Y-85223502D01*
X111852944Y-85209346D01*
X111852945Y-85209345D01*
X111896945Y-85179945D01*
X111926345Y-85135945D01*
X111938000Y-85124290D01*
X111938000Y-87935000D01*
G36*
X89176654Y-86619944D02*
X89206055Y-86663945D01*
X89380375Y-86780423D01*
X89534097Y-86811000D01*
X89534101Y-86811000D01*
X89585999Y-86821323D01*
X89637897Y-86811000D01*
X90522393Y-86811000D01*
X90514635Y-86850000D01*
X90514635Y-87935000D01*
X88189000Y-87935000D01*
X88189000Y-86557000D01*
X89113710Y-86557000D01*
X89176654Y-86619944D01*
X89176654Y-86619944D01*
G37*
X89176654Y-86619944D02*
X89206055Y-86663945D01*
X89380375Y-86780423D01*
X89534097Y-86811000D01*
X89534101Y-86811000D01*
X89585999Y-86821323D01*
X89637897Y-86811000D01*
X90522393Y-86811000D01*
X90514635Y-86850000D01*
X90514635Y-87935000D01*
X88189000Y-87935000D01*
X88189000Y-86557000D01*
X89113710Y-86557000D01*
X89176654Y-86619944D01*
G36*
X97792150Y-85607850D02*
X97825000Y-85629800D01*
X97825000Y-85695250D01*
X97956750Y-85827000D01*
X98004827Y-85827000D01*
X98198522Y-85746769D01*
X98209926Y-85735365D01*
X98223001Y-85735365D01*
X98223001Y-85918708D01*
X97876710Y-86265000D01*
X94757291Y-86265000D01*
X94319290Y-85827000D01*
X94377002Y-85827000D01*
X94377002Y-85747252D01*
X94456750Y-85827000D01*
X94504827Y-85827000D01*
X94698522Y-85746769D01*
X94709926Y-85735365D01*
X94900000Y-85735365D01*
X95000000Y-85715474D01*
X95100000Y-85735365D01*
X95290074Y-85735365D01*
X95301478Y-85746769D01*
X95495173Y-85827000D01*
X95543250Y-85827000D01*
X95675000Y-85695250D01*
X95675000Y-85629800D01*
X95707850Y-85607850D01*
X95750000Y-85544768D01*
X95792150Y-85607850D01*
X95825000Y-85629800D01*
X95825000Y-85695250D01*
X95956750Y-85827000D01*
X96004827Y-85827000D01*
X96198522Y-85746769D01*
X96209926Y-85735365D01*
X96290074Y-85735365D01*
X96301478Y-85746769D01*
X96495173Y-85827000D01*
X96543250Y-85827000D01*
X96675000Y-85695250D01*
X96675000Y-85629800D01*
X96707850Y-85607850D01*
X96750000Y-85544768D01*
X96792150Y-85607850D01*
X96825000Y-85629800D01*
X96825000Y-85695250D01*
X96956750Y-85827000D01*
X97004827Y-85827000D01*
X97198522Y-85746769D01*
X97209926Y-85735365D01*
X97290074Y-85735365D01*
X97301478Y-85746769D01*
X97495173Y-85827000D01*
X97543250Y-85827000D01*
X97675000Y-85695250D01*
X97675000Y-85629800D01*
X97707850Y-85607850D01*
X97750000Y-85544768D01*
X97792150Y-85607850D01*
X97792150Y-85607850D01*
G37*
X97792150Y-85607850D02*
X97825000Y-85629800D01*
X97825000Y-85695250D01*
X97956750Y-85827000D01*
X98004827Y-85827000D01*
X98198522Y-85746769D01*
X98209926Y-85735365D01*
X98223001Y-85735365D01*
X98223001Y-85918708D01*
X97876710Y-86265000D01*
X94757291Y-86265000D01*
X94319290Y-85827000D01*
X94377002Y-85827000D01*
X94377002Y-85747252D01*
X94456750Y-85827000D01*
X94504827Y-85827000D01*
X94698522Y-85746769D01*
X94709926Y-85735365D01*
X94900000Y-85735365D01*
X95000000Y-85715474D01*
X95100000Y-85735365D01*
X95290074Y-85735365D01*
X95301478Y-85746769D01*
X95495173Y-85827000D01*
X95543250Y-85827000D01*
X95675000Y-85695250D01*
X95675000Y-85629800D01*
X95707850Y-85607850D01*
X95750000Y-85544768D01*
X95792150Y-85607850D01*
X95825000Y-85629800D01*
X95825000Y-85695250D01*
X95956750Y-85827000D01*
X96004827Y-85827000D01*
X96198522Y-85746769D01*
X96209926Y-85735365D01*
X96290074Y-85735365D01*
X96301478Y-85746769D01*
X96495173Y-85827000D01*
X96543250Y-85827000D01*
X96675000Y-85695250D01*
X96675000Y-85629800D01*
X96707850Y-85607850D01*
X96750000Y-85544768D01*
X96792150Y-85607850D01*
X96825000Y-85629800D01*
X96825000Y-85695250D01*
X96956750Y-85827000D01*
X97004827Y-85827000D01*
X97198522Y-85746769D01*
X97209926Y-85735365D01*
X97290074Y-85735365D01*
X97301478Y-85746769D01*
X97495173Y-85827000D01*
X97543250Y-85827000D01*
X97675000Y-85695250D01*
X97675000Y-85629800D01*
X97707850Y-85607850D01*
X97750000Y-85544768D01*
X97792150Y-85607850D01*
G36*
X94370000Y-83556677D02*
X94409280Y-83754151D01*
X94435844Y-83793906D01*
X94325000Y-83904750D01*
X94325000Y-83970200D01*
X94292150Y-83992150D01*
X94197775Y-84133393D01*
X94175000Y-84247891D01*
X94175000Y-83904750D01*
X94043250Y-83773000D01*
X93995173Y-83773000D01*
X93801478Y-83853231D01*
X93653231Y-84001479D01*
X93573000Y-84195173D01*
X93573000Y-84541250D01*
X93704750Y-84673000D01*
X94164635Y-84673000D01*
X94164635Y-84785225D01*
X94161696Y-84800000D01*
X94164635Y-84814775D01*
X94164635Y-84927000D01*
X93704750Y-84927000D01*
X93573000Y-85058750D01*
X93573000Y-85376000D01*
X90566290Y-85376000D01*
X90503345Y-85313055D01*
X90473945Y-85269055D01*
X90299625Y-85152577D01*
X90145903Y-85122000D01*
X90145898Y-85122000D01*
X90094000Y-85111677D01*
X90042102Y-85122000D01*
X88534291Y-85122000D01*
X88189000Y-84776709D01*
X88189000Y-82855000D01*
X94370000Y-82855000D01*
X94370000Y-83556677D01*
X94370000Y-83556677D01*
G37*
X94370000Y-83556677D02*
X94409280Y-83754151D01*
X94435844Y-83793906D01*
X94325000Y-83904750D01*
X94325000Y-83970200D01*
X94292150Y-83992150D01*
X94197775Y-84133393D01*
X94175000Y-84247891D01*
X94175000Y-83904750D01*
X94043250Y-83773000D01*
X93995173Y-83773000D01*
X93801478Y-83853231D01*
X93653231Y-84001479D01*
X93573000Y-84195173D01*
X93573000Y-84541250D01*
X93704750Y-84673000D01*
X94164635Y-84673000D01*
X94164635Y-84785225D01*
X94161696Y-84800000D01*
X94164635Y-84814775D01*
X94164635Y-84927000D01*
X93704750Y-84927000D01*
X93573000Y-85058750D01*
X93573000Y-85376000D01*
X90566290Y-85376000D01*
X90503345Y-85313055D01*
X90473945Y-85269055D01*
X90299625Y-85152577D01*
X90145903Y-85122000D01*
X90145898Y-85122000D01*
X90094000Y-85111677D01*
X90042102Y-85122000D01*
X88534291Y-85122000D01*
X88189000Y-84776709D01*
X88189000Y-82855000D01*
X94370000Y-82855000D01*
X94370000Y-83556677D01*
G36*
X95673001Y-83773000D02*
X95672126Y-83773000D01*
X95673001Y-83771691D01*
X95673001Y-83773000D01*
X95673001Y-83773000D01*
G37*
X95673001Y-83773000D02*
X95672126Y-83773000D01*
X95673001Y-83771691D01*
X95673001Y-83773000D01*
G04 #@! TD*
M02*
