G04 #@! TF.GenerationSoftware,KiCad,Pcbnew,5.0.2-bee76a0~70~ubuntu18.04.1*
G04 #@! TF.CreationDate,2019-04-15T09:41:49+02:00*
G04 #@! TF.ProjectId,DIMMTop,44494d4d-546f-4702-9e6b-696361645f70,rev?*
G04 #@! TF.SameCoordinates,Original*
G04 #@! TF.FileFunction,Copper,L1,Top*
G04 #@! TF.FilePolarity,Positive*
%FSLAX46Y46*%
G04 Gerber Fmt 4.6, Leading zero omitted, Abs format (unit mm)*
G04 Created by KiCad (PCBNEW 5.0.2-bee76a0~70~ubuntu18.04.1) date Mo 15 Apr 2019 09:41:49 CEST*
%MOMM*%
%LPD*%
G01*
G04 APERTURE LIST*
G04 #@! TA.AperFunction,EtchedComponent*
%ADD10C,0.010000*%
G04 #@! TD*
G04 APERTURE END LIST*
D10*
G04 #@! TO.C,G\002A\002A\002A*
G36*
X85003540Y-86554398D02*
X86100491Y-86554536D01*
X87263465Y-86554762D01*
X88494425Y-86555068D01*
X89795333Y-86555450D01*
X91168151Y-86555903D01*
X92614840Y-86556421D01*
X94137364Y-86556998D01*
X95737683Y-86557630D01*
X97417761Y-86558311D01*
X99179560Y-86559035D01*
X100094666Y-86559413D01*
X126912833Y-86570500D01*
X127166521Y-86672635D01*
X127394509Y-86797670D01*
X127621804Y-86979757D01*
X127823069Y-87194945D01*
X127972965Y-87419285D01*
X127987892Y-87448985D01*
X128048894Y-87605120D01*
X128104101Y-87795375D01*
X128131531Y-87924009D01*
X128178443Y-88197881D01*
X130784138Y-88209691D01*
X133389833Y-88221500D01*
X133625835Y-88337484D01*
X133914191Y-88522725D01*
X134167741Y-88770803D01*
X134366408Y-89061182D01*
X134402168Y-89131667D01*
X134532833Y-89406834D01*
X134544318Y-94148167D01*
X134546069Y-94883193D01*
X134547515Y-95538444D01*
X134548581Y-96118815D01*
X134549197Y-96629196D01*
X134549290Y-97074481D01*
X134548787Y-97459562D01*
X134547617Y-97789331D01*
X134545707Y-98068681D01*
X134542985Y-98302504D01*
X134539379Y-98495693D01*
X134534817Y-98653140D01*
X134529227Y-98779738D01*
X134522536Y-98880379D01*
X134514672Y-98959956D01*
X134505563Y-99023360D01*
X134495136Y-99075485D01*
X134483321Y-99121223D01*
X134470292Y-99164667D01*
X134323126Y-99501405D01*
X134107024Y-99790088D01*
X133824632Y-100027882D01*
X133503105Y-100201616D01*
X133459225Y-100219176D01*
X133411280Y-100234187D01*
X133352500Y-100246886D01*
X133276115Y-100257510D01*
X133175358Y-100266297D01*
X133043457Y-100273483D01*
X132873644Y-100279306D01*
X132659149Y-100284002D01*
X132393202Y-100287809D01*
X132069035Y-100290965D01*
X131679878Y-100293705D01*
X131218960Y-100296268D01*
X130733416Y-100298636D01*
X128161666Y-100310771D01*
X128161666Y-101662334D01*
X130629272Y-101662334D01*
X131183002Y-101662475D01*
X131659018Y-101663313D01*
X132064273Y-101665471D01*
X132405721Y-101669571D01*
X132690314Y-101676236D01*
X132925006Y-101686088D01*
X133116748Y-101699749D01*
X133272496Y-101717842D01*
X133399200Y-101740990D01*
X133503815Y-101769814D01*
X133593293Y-101804938D01*
X133674587Y-101846984D01*
X133754651Y-101896574D01*
X133832806Y-101949127D01*
X134107544Y-102184848D01*
X134323091Y-102472062D01*
X134468170Y-102795641D01*
X134471187Y-102805334D01*
X134484301Y-102849736D01*
X134495969Y-102896053D01*
X134506262Y-102949178D01*
X134515251Y-103014004D01*
X134523007Y-103095424D01*
X134529603Y-103198330D01*
X134535109Y-103327616D01*
X134539596Y-103488175D01*
X134543137Y-103684899D01*
X134545801Y-103922682D01*
X134547662Y-104206416D01*
X134548789Y-104540994D01*
X134549254Y-104931310D01*
X134549129Y-105382256D01*
X134548485Y-105898725D01*
X134547393Y-106485611D01*
X134545925Y-107147805D01*
X134544318Y-107821834D01*
X134532833Y-112563167D01*
X134402168Y-112838334D01*
X134218935Y-113135525D01*
X133976210Y-113395131D01*
X133694070Y-113596616D01*
X133625835Y-113632517D01*
X133389833Y-113748500D01*
X130784138Y-113760310D01*
X128178443Y-113772119D01*
X128131531Y-114045992D01*
X128030440Y-114407789D01*
X127862188Y-114726154D01*
X127633527Y-114993468D01*
X127351213Y-115202112D01*
X127021999Y-115344468D01*
X126966342Y-115360340D01*
X126941933Y-115364399D01*
X126898673Y-115368273D01*
X126834710Y-115371965D01*
X126748192Y-115375480D01*
X126637269Y-115378821D01*
X126500087Y-115381993D01*
X126334795Y-115384999D01*
X126139541Y-115387844D01*
X125912473Y-115390530D01*
X125651739Y-115393063D01*
X125355489Y-115395446D01*
X125021869Y-115397683D01*
X124649027Y-115399778D01*
X124235113Y-115401736D01*
X123778274Y-115403559D01*
X123276659Y-115405251D01*
X122728415Y-115406818D01*
X122131691Y-115408262D01*
X121484634Y-115409589D01*
X120785394Y-115410800D01*
X120032118Y-115411902D01*
X119222954Y-115412896D01*
X118356050Y-115413789D01*
X117429556Y-115414582D01*
X116441618Y-115415281D01*
X115390385Y-115415890D01*
X114274006Y-115416411D01*
X113090627Y-115416850D01*
X111838399Y-115417210D01*
X110515467Y-115417495D01*
X109119982Y-115417708D01*
X107650091Y-115417855D01*
X106103941Y-115417939D01*
X104479683Y-115417964D01*
X102775462Y-115417933D01*
X100989428Y-115417851D01*
X99988833Y-115417787D01*
X98187218Y-115417658D01*
X96468308Y-115417525D01*
X94830138Y-115417382D01*
X93270747Y-115417223D01*
X91788172Y-115417042D01*
X90380450Y-115416832D01*
X89045619Y-115416588D01*
X87781715Y-115416304D01*
X86586776Y-115415972D01*
X85458839Y-115415588D01*
X84395942Y-115415145D01*
X83396121Y-115414637D01*
X82457415Y-115414058D01*
X81577860Y-115413402D01*
X80755493Y-115412662D01*
X79988353Y-115411832D01*
X79274476Y-115410907D01*
X78611899Y-115409880D01*
X77998660Y-115408745D01*
X77432796Y-115407495D01*
X76912344Y-115406126D01*
X76435342Y-115404631D01*
X75999827Y-115403003D01*
X75603837Y-115401236D01*
X75245407Y-115399325D01*
X74922577Y-115397263D01*
X74633382Y-115395044D01*
X74375861Y-115392661D01*
X74148051Y-115390110D01*
X73947988Y-115387384D01*
X73773711Y-115384476D01*
X73623256Y-115381380D01*
X73494661Y-115378091D01*
X73385963Y-115374602D01*
X73295199Y-115370907D01*
X73220407Y-115367000D01*
X73159623Y-115362875D01*
X73110886Y-115358525D01*
X73072233Y-115353945D01*
X73041700Y-115349129D01*
X73017325Y-115344070D01*
X72997146Y-115338762D01*
X72980166Y-115333513D01*
X72647468Y-115183233D01*
X72365087Y-114968177D01*
X72138990Y-114695692D01*
X71975142Y-114373122D01*
X71879510Y-114007812D01*
X71874302Y-113971981D01*
X71847162Y-113772128D01*
X66630166Y-113748500D01*
X66394164Y-113632517D01*
X66105808Y-113447276D01*
X65852258Y-113199197D01*
X65653591Y-112908819D01*
X65617831Y-112838334D01*
X65487166Y-112563167D01*
X65487166Y-102868834D01*
X65584855Y-102658550D01*
X65772990Y-102345264D01*
X66020273Y-102075841D01*
X66201689Y-101936035D01*
X66285773Y-101881503D01*
X66365261Y-101834741D01*
X66447110Y-101795153D01*
X66538277Y-101762141D01*
X66645719Y-101735107D01*
X66776395Y-101713456D01*
X66937262Y-101696589D01*
X67135277Y-101683910D01*
X67377397Y-101674821D01*
X67670581Y-101668726D01*
X68021786Y-101665026D01*
X68437969Y-101663126D01*
X68926087Y-101662428D01*
X69390727Y-101662334D01*
X71858333Y-101662334D01*
X71858333Y-100307667D01*
X69390727Y-100307667D01*
X68837698Y-100307517D01*
X68362372Y-100306666D01*
X67957783Y-100304511D01*
X67616966Y-100300449D01*
X67332957Y-100293877D01*
X67098791Y-100284192D01*
X66907504Y-100270791D01*
X66752131Y-100253071D01*
X66625707Y-100230430D01*
X66521268Y-100202264D01*
X66431849Y-100167971D01*
X66350484Y-100126948D01*
X66270211Y-100078591D01*
X66197602Y-100031252D01*
X65924966Y-99803295D01*
X65708435Y-99522518D01*
X65560739Y-99205816D01*
X65549868Y-99171580D01*
X65536593Y-99126292D01*
X65524780Y-99079561D01*
X65514358Y-99026488D01*
X65505254Y-98962173D01*
X65497396Y-98881717D01*
X65490712Y-98780221D01*
X65485129Y-98652785D01*
X65480575Y-98494510D01*
X65476977Y-98300496D01*
X65474264Y-98065845D01*
X65472363Y-97785657D01*
X65471201Y-97455032D01*
X65470706Y-97069071D01*
X65470806Y-96622875D01*
X65471428Y-96111544D01*
X65472501Y-95530179D01*
X65473951Y-94873882D01*
X65475681Y-94148167D01*
X65479580Y-92538183D01*
X66275752Y-92538183D01*
X66276416Y-93234204D01*
X66277972Y-94011833D01*
X66278840Y-94345617D01*
X66291500Y-98945734D01*
X66418500Y-99125513D01*
X66530395Y-99252734D01*
X66663437Y-99362512D01*
X66714833Y-99393730D01*
X66751425Y-99411741D01*
X66791396Y-99427198D01*
X66841328Y-99440356D01*
X66907797Y-99451470D01*
X66997385Y-99460797D01*
X67116669Y-99468592D01*
X67272230Y-99475111D01*
X67470646Y-99480608D01*
X67718496Y-99485340D01*
X68022360Y-99489563D01*
X68388816Y-99493530D01*
X68824445Y-99497499D01*
X69335825Y-99501724D01*
X69536700Y-99503334D01*
X72189233Y-99524500D01*
X72347410Y-99652561D01*
X72444416Y-99735030D01*
X72519208Y-99813936D01*
X72574662Y-99901443D01*
X72613657Y-100009717D01*
X72639072Y-100150922D01*
X72653784Y-100337225D01*
X72660673Y-100580788D01*
X72662616Y-100893779D01*
X72662666Y-100985000D01*
X72661515Y-101317396D01*
X72656144Y-101577301D01*
X72643673Y-101776879D01*
X72621225Y-101928298D01*
X72585921Y-102043720D01*
X72534884Y-102135312D01*
X72465235Y-102215238D01*
X72374095Y-102295664D01*
X72347410Y-102317440D01*
X72189233Y-102445500D01*
X69536700Y-102466667D01*
X68996863Y-102471045D01*
X68535113Y-102475075D01*
X68144868Y-102479014D01*
X67819550Y-102483117D01*
X67552580Y-102487639D01*
X67337379Y-102492835D01*
X67167367Y-102498962D01*
X67035966Y-102506275D01*
X66936596Y-102515030D01*
X66862677Y-102525481D01*
X66807631Y-102537885D01*
X66764879Y-102552496D01*
X66727841Y-102569572D01*
X66714833Y-102576270D01*
X66585997Y-102666939D01*
X66459904Y-102791710D01*
X66418500Y-102844487D01*
X66291500Y-103024267D01*
X66278840Y-107624383D01*
X66276931Y-108435207D01*
X66275909Y-109163551D01*
X66275789Y-109811600D01*
X66276586Y-110381537D01*
X66278316Y-110875545D01*
X66280995Y-111295808D01*
X66284637Y-111644509D01*
X66289259Y-111923831D01*
X66294875Y-112135958D01*
X66301502Y-112283074D01*
X66309154Y-112367361D01*
X66312499Y-112383952D01*
X66394673Y-112559498D01*
X66525866Y-112728638D01*
X66680155Y-112861390D01*
X66765728Y-112908139D01*
X66810400Y-112920516D01*
X66884561Y-112931075D01*
X66994128Y-112939943D01*
X67145017Y-112947246D01*
X67343145Y-112953111D01*
X67594426Y-112957665D01*
X67904777Y-112961034D01*
X68280115Y-112963345D01*
X68726355Y-112964724D01*
X69249413Y-112965299D01*
X69437656Y-112965334D01*
X69982236Y-112965472D01*
X70448824Y-112966158D01*
X70844094Y-112967802D01*
X71174721Y-112970812D01*
X71447379Y-112975597D01*
X71668743Y-112982565D01*
X71845486Y-112992125D01*
X71984284Y-113004685D01*
X72091810Y-113020655D01*
X72174739Y-113040443D01*
X72239746Y-113064458D01*
X72293505Y-113093108D01*
X72342690Y-113126802D01*
X72366333Y-113144656D01*
X72494385Y-113276126D01*
X72596854Y-113442036D01*
X72655360Y-113609356D01*
X72662449Y-113676837D01*
X72694755Y-113934996D01*
X72783951Y-114171225D01*
X72919676Y-114369012D01*
X73091571Y-114511846D01*
X73221949Y-114568617D01*
X73274005Y-114571419D01*
X73409715Y-114574111D01*
X73628067Y-114576691D01*
X73928049Y-114579157D01*
X74308649Y-114581509D01*
X74768855Y-114583746D01*
X75307653Y-114585865D01*
X75924033Y-114587866D01*
X76616982Y-114589748D01*
X77385487Y-114591508D01*
X78228536Y-114593147D01*
X79145118Y-114594662D01*
X80134220Y-114596053D01*
X81194829Y-114597318D01*
X82325934Y-114598456D01*
X83526522Y-114599466D01*
X84795581Y-114600346D01*
X86132099Y-114601095D01*
X87535064Y-114601712D01*
X89003463Y-114602196D01*
X90536284Y-114602545D01*
X92132515Y-114602758D01*
X93791144Y-114602834D01*
X95511158Y-114602772D01*
X97291546Y-114602570D01*
X99131294Y-114602227D01*
X100080437Y-114602001D01*
X126799707Y-114595167D01*
X126979500Y-114468167D01*
X127160818Y-114298550D01*
X127279106Y-114085443D01*
X127340681Y-113816978D01*
X127344329Y-113782876D01*
X127403694Y-113500167D01*
X127522360Y-113277222D01*
X127701926Y-113111839D01*
X127903400Y-113014962D01*
X127964777Y-113003545D01*
X128080400Y-112993774D01*
X128254189Y-112985576D01*
X128490066Y-112978879D01*
X128791954Y-112973610D01*
X129163773Y-112969697D01*
X129609445Y-112967067D01*
X130132893Y-112965648D01*
X130582343Y-112965334D01*
X131131741Y-112964994D01*
X131602390Y-112963891D01*
X132000207Y-112961898D01*
X132331109Y-112958888D01*
X132601010Y-112954735D01*
X132815827Y-112949311D01*
X132981476Y-112942491D01*
X133103873Y-112934148D01*
X133188934Y-112924154D01*
X133242576Y-112912384D01*
X133254271Y-112908139D01*
X133410205Y-112808300D01*
X133557346Y-112655528D01*
X133669772Y-112479809D01*
X133707500Y-112383952D01*
X133715566Y-112324142D01*
X133722600Y-112202375D01*
X133728618Y-112016468D01*
X133733635Y-111764237D01*
X133737666Y-111443500D01*
X133740728Y-111052073D01*
X133742835Y-110587773D01*
X133744003Y-110048415D01*
X133744247Y-109431817D01*
X133743583Y-108735796D01*
X133742027Y-107958168D01*
X133741159Y-107624383D01*
X133728500Y-103024267D01*
X133601500Y-102844487D01*
X133489604Y-102717266D01*
X133356562Y-102607489D01*
X133305166Y-102576270D01*
X133268574Y-102558259D01*
X133228603Y-102542803D01*
X133178671Y-102529645D01*
X133112202Y-102518530D01*
X133022614Y-102509203D01*
X132903330Y-102501408D01*
X132747769Y-102494889D01*
X132549353Y-102489392D01*
X132301503Y-102484660D01*
X131997639Y-102480438D01*
X131631183Y-102476470D01*
X131195554Y-102472501D01*
X130684174Y-102468276D01*
X130483299Y-102466667D01*
X127830766Y-102445500D01*
X127672589Y-102317440D01*
X127575583Y-102234970D01*
X127500791Y-102156064D01*
X127445337Y-102068557D01*
X127406342Y-101960283D01*
X127380927Y-101819078D01*
X127366215Y-101632776D01*
X127359326Y-101389212D01*
X127357383Y-101076221D01*
X127357333Y-100985000D01*
X127358484Y-100652604D01*
X127363855Y-100392700D01*
X127376326Y-100193121D01*
X127398774Y-100041703D01*
X127434078Y-99926280D01*
X127485115Y-99834689D01*
X127554764Y-99754762D01*
X127645904Y-99674337D01*
X127672589Y-99652561D01*
X127830766Y-99524500D01*
X130483299Y-99503334D01*
X131023136Y-99498956D01*
X131484886Y-99494925D01*
X131875131Y-99490986D01*
X132200449Y-99486884D01*
X132467419Y-99482362D01*
X132682620Y-99477165D01*
X132852632Y-99471038D01*
X132984033Y-99463725D01*
X133083403Y-99454971D01*
X133157322Y-99444520D01*
X133212368Y-99432116D01*
X133255120Y-99417504D01*
X133292158Y-99400428D01*
X133305166Y-99393730D01*
X133434002Y-99303061D01*
X133560095Y-99178290D01*
X133601500Y-99125513D01*
X133728500Y-98945734D01*
X133741159Y-94345617D01*
X133743068Y-93534794D01*
X133744090Y-92806449D01*
X133744210Y-92158401D01*
X133743413Y-91588464D01*
X133741683Y-91094456D01*
X133739004Y-90674193D01*
X133735362Y-90325492D01*
X133730740Y-90046169D01*
X133725124Y-89834042D01*
X133718497Y-89686926D01*
X133710845Y-89602639D01*
X133707500Y-89586048D01*
X133625326Y-89410503D01*
X133494133Y-89241362D01*
X133339844Y-89108610D01*
X133254271Y-89061861D01*
X133209599Y-89049484D01*
X133135438Y-89038925D01*
X133025871Y-89030058D01*
X132874982Y-89022754D01*
X132676854Y-89016889D01*
X132425573Y-89012336D01*
X132115222Y-89008967D01*
X131739884Y-89006656D01*
X131293644Y-89005276D01*
X130770586Y-89004701D01*
X130582343Y-89004667D01*
X130037763Y-89004529D01*
X129571175Y-89003842D01*
X129175905Y-89002198D01*
X128845278Y-88999188D01*
X128572620Y-88994403D01*
X128351256Y-88987435D01*
X128174513Y-88977876D01*
X128035715Y-88965315D01*
X127928189Y-88949345D01*
X127845260Y-88929557D01*
X127780253Y-88905542D01*
X127726494Y-88876892D01*
X127677309Y-88843199D01*
X127653666Y-88825345D01*
X127525614Y-88693874D01*
X127423145Y-88527964D01*
X127364639Y-88360644D01*
X127357550Y-88293163D01*
X127324611Y-88026559D01*
X127232975Y-87787553D01*
X127092130Y-87590952D01*
X126911564Y-87451563D01*
X126785833Y-87400919D01*
X126732117Y-87397701D01*
X126596503Y-87394589D01*
X126381756Y-87391585D01*
X126090646Y-87388687D01*
X125725940Y-87385897D01*
X125290404Y-87383213D01*
X124786808Y-87380636D01*
X124217917Y-87378166D01*
X123586500Y-87375804D01*
X122895325Y-87373548D01*
X122147158Y-87371399D01*
X121344768Y-87369357D01*
X120490922Y-87367422D01*
X119588387Y-87365594D01*
X118639931Y-87363873D01*
X117648322Y-87362258D01*
X116616326Y-87360751D01*
X115546713Y-87359351D01*
X114442248Y-87358058D01*
X113305701Y-87356871D01*
X112139837Y-87355792D01*
X110947426Y-87354819D01*
X109731234Y-87353954D01*
X108494028Y-87353195D01*
X107238578Y-87352544D01*
X105967649Y-87351999D01*
X104684010Y-87351561D01*
X103390427Y-87351230D01*
X102089670Y-87351007D01*
X100784504Y-87350890D01*
X99477699Y-87350880D01*
X98172020Y-87350977D01*
X96870237Y-87351181D01*
X95575115Y-87351492D01*
X94289424Y-87351910D01*
X93015930Y-87352435D01*
X91757401Y-87353066D01*
X90516605Y-87353805D01*
X89296308Y-87354651D01*
X88099280Y-87355603D01*
X86928286Y-87356663D01*
X85786095Y-87357830D01*
X84675474Y-87359103D01*
X83599191Y-87360484D01*
X82560014Y-87361971D01*
X81560709Y-87363565D01*
X80604045Y-87365267D01*
X79692789Y-87367075D01*
X78829708Y-87368990D01*
X78017570Y-87371012D01*
X77259143Y-87373141D01*
X76557194Y-87375377D01*
X75914491Y-87377720D01*
X75333800Y-87380170D01*
X74817891Y-87382727D01*
X74369530Y-87385391D01*
X73991485Y-87388162D01*
X73686523Y-87391040D01*
X73457412Y-87394024D01*
X73306920Y-87397116D01*
X73237813Y-87400315D01*
X73234166Y-87400919D01*
X73033483Y-87498262D01*
X72867255Y-87661919D01*
X72744729Y-87877373D01*
X72675155Y-88130112D01*
X72662666Y-88297839D01*
X72632016Y-88440851D01*
X72552473Y-88602821D01*
X72442653Y-88751601D01*
X72351424Y-88835334D01*
X72303573Y-88868348D01*
X72253941Y-88896581D01*
X72195840Y-88920413D01*
X72122582Y-88940231D01*
X72027480Y-88956415D01*
X71903846Y-88969351D01*
X71744993Y-88979422D01*
X71544232Y-88987011D01*
X71294876Y-88992502D01*
X70990237Y-88996277D01*
X70623628Y-88998722D01*
X70188361Y-89000218D01*
X69677749Y-89001150D01*
X69454556Y-89001446D01*
X68902661Y-89002484D01*
X68429563Y-89004188D01*
X68029395Y-89006691D01*
X67696290Y-89010123D01*
X67424380Y-89014618D01*
X67207798Y-89020306D01*
X67040676Y-89027320D01*
X66917147Y-89035791D01*
X66831343Y-89045851D01*
X66777398Y-89057632D01*
X66765728Y-89061861D01*
X66609794Y-89161701D01*
X66462653Y-89314472D01*
X66350227Y-89490192D01*
X66312499Y-89586048D01*
X66304433Y-89645859D01*
X66297399Y-89767626D01*
X66291381Y-89953533D01*
X66286364Y-90205763D01*
X66282333Y-90526500D01*
X66279271Y-90917927D01*
X66277164Y-91382228D01*
X66275996Y-91921585D01*
X66275752Y-92538183D01*
X65479580Y-92538183D01*
X65487166Y-89406834D01*
X65617831Y-89131667D01*
X65801064Y-88834476D01*
X66043789Y-88574869D01*
X66325929Y-88373384D01*
X66394164Y-88337484D01*
X66630166Y-88221500D01*
X69238664Y-88209686D01*
X71847162Y-88197873D01*
X71874302Y-87998020D01*
X71963373Y-87627490D01*
X72120979Y-87300877D01*
X72341732Y-87024707D01*
X72620239Y-86805509D01*
X72951112Y-86649807D01*
X73001333Y-86633439D01*
X73020252Y-86627715D01*
X73040445Y-86622255D01*
X73063873Y-86617053D01*
X73092500Y-86612104D01*
X73128288Y-86607401D01*
X73173197Y-86602941D01*
X73229191Y-86598718D01*
X73298231Y-86594725D01*
X73382281Y-86590959D01*
X73483300Y-86587413D01*
X73603253Y-86584083D01*
X73744101Y-86580962D01*
X73907806Y-86578045D01*
X74096330Y-86575328D01*
X74311635Y-86572805D01*
X74555684Y-86570469D01*
X74830438Y-86568317D01*
X75137860Y-86566343D01*
X75479912Y-86564541D01*
X75858556Y-86562905D01*
X76275753Y-86561432D01*
X76733467Y-86560114D01*
X77233658Y-86558947D01*
X77778291Y-86557926D01*
X78369325Y-86557045D01*
X79008724Y-86556299D01*
X79698450Y-86555682D01*
X80440464Y-86555189D01*
X81236729Y-86554815D01*
X82089207Y-86554554D01*
X82999860Y-86554401D01*
X83970650Y-86554351D01*
X85003540Y-86554398D01*
X85003540Y-86554398D01*
G37*
X85003540Y-86554398D02*
X86100491Y-86554536D01*
X87263465Y-86554762D01*
X88494425Y-86555068D01*
X89795333Y-86555450D01*
X91168151Y-86555903D01*
X92614840Y-86556421D01*
X94137364Y-86556998D01*
X95737683Y-86557630D01*
X97417761Y-86558311D01*
X99179560Y-86559035D01*
X100094666Y-86559413D01*
X126912833Y-86570500D01*
X127166521Y-86672635D01*
X127394509Y-86797670D01*
X127621804Y-86979757D01*
X127823069Y-87194945D01*
X127972965Y-87419285D01*
X127987892Y-87448985D01*
X128048894Y-87605120D01*
X128104101Y-87795375D01*
X128131531Y-87924009D01*
X128178443Y-88197881D01*
X130784138Y-88209691D01*
X133389833Y-88221500D01*
X133625835Y-88337484D01*
X133914191Y-88522725D01*
X134167741Y-88770803D01*
X134366408Y-89061182D01*
X134402168Y-89131667D01*
X134532833Y-89406834D01*
X134544318Y-94148167D01*
X134546069Y-94883193D01*
X134547515Y-95538444D01*
X134548581Y-96118815D01*
X134549197Y-96629196D01*
X134549290Y-97074481D01*
X134548787Y-97459562D01*
X134547617Y-97789331D01*
X134545707Y-98068681D01*
X134542985Y-98302504D01*
X134539379Y-98495693D01*
X134534817Y-98653140D01*
X134529227Y-98779738D01*
X134522536Y-98880379D01*
X134514672Y-98959956D01*
X134505563Y-99023360D01*
X134495136Y-99075485D01*
X134483321Y-99121223D01*
X134470292Y-99164667D01*
X134323126Y-99501405D01*
X134107024Y-99790088D01*
X133824632Y-100027882D01*
X133503105Y-100201616D01*
X133459225Y-100219176D01*
X133411280Y-100234187D01*
X133352500Y-100246886D01*
X133276115Y-100257510D01*
X133175358Y-100266297D01*
X133043457Y-100273483D01*
X132873644Y-100279306D01*
X132659149Y-100284002D01*
X132393202Y-100287809D01*
X132069035Y-100290965D01*
X131679878Y-100293705D01*
X131218960Y-100296268D01*
X130733416Y-100298636D01*
X128161666Y-100310771D01*
X128161666Y-101662334D01*
X130629272Y-101662334D01*
X131183002Y-101662475D01*
X131659018Y-101663313D01*
X132064273Y-101665471D01*
X132405721Y-101669571D01*
X132690314Y-101676236D01*
X132925006Y-101686088D01*
X133116748Y-101699749D01*
X133272496Y-101717842D01*
X133399200Y-101740990D01*
X133503815Y-101769814D01*
X133593293Y-101804938D01*
X133674587Y-101846984D01*
X133754651Y-101896574D01*
X133832806Y-101949127D01*
X134107544Y-102184848D01*
X134323091Y-102472062D01*
X134468170Y-102795641D01*
X134471187Y-102805334D01*
X134484301Y-102849736D01*
X134495969Y-102896053D01*
X134506262Y-102949178D01*
X134515251Y-103014004D01*
X134523007Y-103095424D01*
X134529603Y-103198330D01*
X134535109Y-103327616D01*
X134539596Y-103488175D01*
X134543137Y-103684899D01*
X134545801Y-103922682D01*
X134547662Y-104206416D01*
X134548789Y-104540994D01*
X134549254Y-104931310D01*
X134549129Y-105382256D01*
X134548485Y-105898725D01*
X134547393Y-106485611D01*
X134545925Y-107147805D01*
X134544318Y-107821834D01*
X134532833Y-112563167D01*
X134402168Y-112838334D01*
X134218935Y-113135525D01*
X133976210Y-113395131D01*
X133694070Y-113596616D01*
X133625835Y-113632517D01*
X133389833Y-113748500D01*
X130784138Y-113760310D01*
X128178443Y-113772119D01*
X128131531Y-114045992D01*
X128030440Y-114407789D01*
X127862188Y-114726154D01*
X127633527Y-114993468D01*
X127351213Y-115202112D01*
X127021999Y-115344468D01*
X126966342Y-115360340D01*
X126941933Y-115364399D01*
X126898673Y-115368273D01*
X126834710Y-115371965D01*
X126748192Y-115375480D01*
X126637269Y-115378821D01*
X126500087Y-115381993D01*
X126334795Y-115384999D01*
X126139541Y-115387844D01*
X125912473Y-115390530D01*
X125651739Y-115393063D01*
X125355489Y-115395446D01*
X125021869Y-115397683D01*
X124649027Y-115399778D01*
X124235113Y-115401736D01*
X123778274Y-115403559D01*
X123276659Y-115405251D01*
X122728415Y-115406818D01*
X122131691Y-115408262D01*
X121484634Y-115409589D01*
X120785394Y-115410800D01*
X120032118Y-115411902D01*
X119222954Y-115412896D01*
X118356050Y-115413789D01*
X117429556Y-115414582D01*
X116441618Y-115415281D01*
X115390385Y-115415890D01*
X114274006Y-115416411D01*
X113090627Y-115416850D01*
X111838399Y-115417210D01*
X110515467Y-115417495D01*
X109119982Y-115417708D01*
X107650091Y-115417855D01*
X106103941Y-115417939D01*
X104479683Y-115417964D01*
X102775462Y-115417933D01*
X100989428Y-115417851D01*
X99988833Y-115417787D01*
X98187218Y-115417658D01*
X96468308Y-115417525D01*
X94830138Y-115417382D01*
X93270747Y-115417223D01*
X91788172Y-115417042D01*
X90380450Y-115416832D01*
X89045619Y-115416588D01*
X87781715Y-115416304D01*
X86586776Y-115415972D01*
X85458839Y-115415588D01*
X84395942Y-115415145D01*
X83396121Y-115414637D01*
X82457415Y-115414058D01*
X81577860Y-115413402D01*
X80755493Y-115412662D01*
X79988353Y-115411832D01*
X79274476Y-115410907D01*
X78611899Y-115409880D01*
X77998660Y-115408745D01*
X77432796Y-115407495D01*
X76912344Y-115406126D01*
X76435342Y-115404631D01*
X75999827Y-115403003D01*
X75603837Y-115401236D01*
X75245407Y-115399325D01*
X74922577Y-115397263D01*
X74633382Y-115395044D01*
X74375861Y-115392661D01*
X74148051Y-115390110D01*
X73947988Y-115387384D01*
X73773711Y-115384476D01*
X73623256Y-115381380D01*
X73494661Y-115378091D01*
X73385963Y-115374602D01*
X73295199Y-115370907D01*
X73220407Y-115367000D01*
X73159623Y-115362875D01*
X73110886Y-115358525D01*
X73072233Y-115353945D01*
X73041700Y-115349129D01*
X73017325Y-115344070D01*
X72997146Y-115338762D01*
X72980166Y-115333513D01*
X72647468Y-115183233D01*
X72365087Y-114968177D01*
X72138990Y-114695692D01*
X71975142Y-114373122D01*
X71879510Y-114007812D01*
X71874302Y-113971981D01*
X71847162Y-113772128D01*
X66630166Y-113748500D01*
X66394164Y-113632517D01*
X66105808Y-113447276D01*
X65852258Y-113199197D01*
X65653591Y-112908819D01*
X65617831Y-112838334D01*
X65487166Y-112563167D01*
X65487166Y-102868834D01*
X65584855Y-102658550D01*
X65772990Y-102345264D01*
X66020273Y-102075841D01*
X66201689Y-101936035D01*
X66285773Y-101881503D01*
X66365261Y-101834741D01*
X66447110Y-101795153D01*
X66538277Y-101762141D01*
X66645719Y-101735107D01*
X66776395Y-101713456D01*
X66937262Y-101696589D01*
X67135277Y-101683910D01*
X67377397Y-101674821D01*
X67670581Y-101668726D01*
X68021786Y-101665026D01*
X68437969Y-101663126D01*
X68926087Y-101662428D01*
X69390727Y-101662334D01*
X71858333Y-101662334D01*
X71858333Y-100307667D01*
X69390727Y-100307667D01*
X68837698Y-100307517D01*
X68362372Y-100306666D01*
X67957783Y-100304511D01*
X67616966Y-100300449D01*
X67332957Y-100293877D01*
X67098791Y-100284192D01*
X66907504Y-100270791D01*
X66752131Y-100253071D01*
X66625707Y-100230430D01*
X66521268Y-100202264D01*
X66431849Y-100167971D01*
X66350484Y-100126948D01*
X66270211Y-100078591D01*
X66197602Y-100031252D01*
X65924966Y-99803295D01*
X65708435Y-99522518D01*
X65560739Y-99205816D01*
X65549868Y-99171580D01*
X65536593Y-99126292D01*
X65524780Y-99079561D01*
X65514358Y-99026488D01*
X65505254Y-98962173D01*
X65497396Y-98881717D01*
X65490712Y-98780221D01*
X65485129Y-98652785D01*
X65480575Y-98494510D01*
X65476977Y-98300496D01*
X65474264Y-98065845D01*
X65472363Y-97785657D01*
X65471201Y-97455032D01*
X65470706Y-97069071D01*
X65470806Y-96622875D01*
X65471428Y-96111544D01*
X65472501Y-95530179D01*
X65473951Y-94873882D01*
X65475681Y-94148167D01*
X65479580Y-92538183D01*
X66275752Y-92538183D01*
X66276416Y-93234204D01*
X66277972Y-94011833D01*
X66278840Y-94345617D01*
X66291500Y-98945734D01*
X66418500Y-99125513D01*
X66530395Y-99252734D01*
X66663437Y-99362512D01*
X66714833Y-99393730D01*
X66751425Y-99411741D01*
X66791396Y-99427198D01*
X66841328Y-99440356D01*
X66907797Y-99451470D01*
X66997385Y-99460797D01*
X67116669Y-99468592D01*
X67272230Y-99475111D01*
X67470646Y-99480608D01*
X67718496Y-99485340D01*
X68022360Y-99489563D01*
X68388816Y-99493530D01*
X68824445Y-99497499D01*
X69335825Y-99501724D01*
X69536700Y-99503334D01*
X72189233Y-99524500D01*
X72347410Y-99652561D01*
X72444416Y-99735030D01*
X72519208Y-99813936D01*
X72574662Y-99901443D01*
X72613657Y-100009717D01*
X72639072Y-100150922D01*
X72653784Y-100337225D01*
X72660673Y-100580788D01*
X72662616Y-100893779D01*
X72662666Y-100985000D01*
X72661515Y-101317396D01*
X72656144Y-101577301D01*
X72643673Y-101776879D01*
X72621225Y-101928298D01*
X72585921Y-102043720D01*
X72534884Y-102135312D01*
X72465235Y-102215238D01*
X72374095Y-102295664D01*
X72347410Y-102317440D01*
X72189233Y-102445500D01*
X69536700Y-102466667D01*
X68996863Y-102471045D01*
X68535113Y-102475075D01*
X68144868Y-102479014D01*
X67819550Y-102483117D01*
X67552580Y-102487639D01*
X67337379Y-102492835D01*
X67167367Y-102498962D01*
X67035966Y-102506275D01*
X66936596Y-102515030D01*
X66862677Y-102525481D01*
X66807631Y-102537885D01*
X66764879Y-102552496D01*
X66727841Y-102569572D01*
X66714833Y-102576270D01*
X66585997Y-102666939D01*
X66459904Y-102791710D01*
X66418500Y-102844487D01*
X66291500Y-103024267D01*
X66278840Y-107624383D01*
X66276931Y-108435207D01*
X66275909Y-109163551D01*
X66275789Y-109811600D01*
X66276586Y-110381537D01*
X66278316Y-110875545D01*
X66280995Y-111295808D01*
X66284637Y-111644509D01*
X66289259Y-111923831D01*
X66294875Y-112135958D01*
X66301502Y-112283074D01*
X66309154Y-112367361D01*
X66312499Y-112383952D01*
X66394673Y-112559498D01*
X66525866Y-112728638D01*
X66680155Y-112861390D01*
X66765728Y-112908139D01*
X66810400Y-112920516D01*
X66884561Y-112931075D01*
X66994128Y-112939943D01*
X67145017Y-112947246D01*
X67343145Y-112953111D01*
X67594426Y-112957665D01*
X67904777Y-112961034D01*
X68280115Y-112963345D01*
X68726355Y-112964724D01*
X69249413Y-112965299D01*
X69437656Y-112965334D01*
X69982236Y-112965472D01*
X70448824Y-112966158D01*
X70844094Y-112967802D01*
X71174721Y-112970812D01*
X71447379Y-112975597D01*
X71668743Y-112982565D01*
X71845486Y-112992125D01*
X71984284Y-113004685D01*
X72091810Y-113020655D01*
X72174739Y-113040443D01*
X72239746Y-113064458D01*
X72293505Y-113093108D01*
X72342690Y-113126802D01*
X72366333Y-113144656D01*
X72494385Y-113276126D01*
X72596854Y-113442036D01*
X72655360Y-113609356D01*
X72662449Y-113676837D01*
X72694755Y-113934996D01*
X72783951Y-114171225D01*
X72919676Y-114369012D01*
X73091571Y-114511846D01*
X73221949Y-114568617D01*
X73274005Y-114571419D01*
X73409715Y-114574111D01*
X73628067Y-114576691D01*
X73928049Y-114579157D01*
X74308649Y-114581509D01*
X74768855Y-114583746D01*
X75307653Y-114585865D01*
X75924033Y-114587866D01*
X76616982Y-114589748D01*
X77385487Y-114591508D01*
X78228536Y-114593147D01*
X79145118Y-114594662D01*
X80134220Y-114596053D01*
X81194829Y-114597318D01*
X82325934Y-114598456D01*
X83526522Y-114599466D01*
X84795581Y-114600346D01*
X86132099Y-114601095D01*
X87535064Y-114601712D01*
X89003463Y-114602196D01*
X90536284Y-114602545D01*
X92132515Y-114602758D01*
X93791144Y-114602834D01*
X95511158Y-114602772D01*
X97291546Y-114602570D01*
X99131294Y-114602227D01*
X100080437Y-114602001D01*
X126799707Y-114595167D01*
X126979500Y-114468167D01*
X127160818Y-114298550D01*
X127279106Y-114085443D01*
X127340681Y-113816978D01*
X127344329Y-113782876D01*
X127403694Y-113500167D01*
X127522360Y-113277222D01*
X127701926Y-113111839D01*
X127903400Y-113014962D01*
X127964777Y-113003545D01*
X128080400Y-112993774D01*
X128254189Y-112985576D01*
X128490066Y-112978879D01*
X128791954Y-112973610D01*
X129163773Y-112969697D01*
X129609445Y-112967067D01*
X130132893Y-112965648D01*
X130582343Y-112965334D01*
X131131741Y-112964994D01*
X131602390Y-112963891D01*
X132000207Y-112961898D01*
X132331109Y-112958888D01*
X132601010Y-112954735D01*
X132815827Y-112949311D01*
X132981476Y-112942491D01*
X133103873Y-112934148D01*
X133188934Y-112924154D01*
X133242576Y-112912384D01*
X133254271Y-112908139D01*
X133410205Y-112808300D01*
X133557346Y-112655528D01*
X133669772Y-112479809D01*
X133707500Y-112383952D01*
X133715566Y-112324142D01*
X133722600Y-112202375D01*
X133728618Y-112016468D01*
X133733635Y-111764237D01*
X133737666Y-111443500D01*
X133740728Y-111052073D01*
X133742835Y-110587773D01*
X133744003Y-110048415D01*
X133744247Y-109431817D01*
X133743583Y-108735796D01*
X133742027Y-107958168D01*
X133741159Y-107624383D01*
X133728500Y-103024267D01*
X133601500Y-102844487D01*
X133489604Y-102717266D01*
X133356562Y-102607489D01*
X133305166Y-102576270D01*
X133268574Y-102558259D01*
X133228603Y-102542803D01*
X133178671Y-102529645D01*
X133112202Y-102518530D01*
X133022614Y-102509203D01*
X132903330Y-102501408D01*
X132747769Y-102494889D01*
X132549353Y-102489392D01*
X132301503Y-102484660D01*
X131997639Y-102480438D01*
X131631183Y-102476470D01*
X131195554Y-102472501D01*
X130684174Y-102468276D01*
X130483299Y-102466667D01*
X127830766Y-102445500D01*
X127672589Y-102317440D01*
X127575583Y-102234970D01*
X127500791Y-102156064D01*
X127445337Y-102068557D01*
X127406342Y-101960283D01*
X127380927Y-101819078D01*
X127366215Y-101632776D01*
X127359326Y-101389212D01*
X127357383Y-101076221D01*
X127357333Y-100985000D01*
X127358484Y-100652604D01*
X127363855Y-100392700D01*
X127376326Y-100193121D01*
X127398774Y-100041703D01*
X127434078Y-99926280D01*
X127485115Y-99834689D01*
X127554764Y-99754762D01*
X127645904Y-99674337D01*
X127672589Y-99652561D01*
X127830766Y-99524500D01*
X130483299Y-99503334D01*
X131023136Y-99498956D01*
X131484886Y-99494925D01*
X131875131Y-99490986D01*
X132200449Y-99486884D01*
X132467419Y-99482362D01*
X132682620Y-99477165D01*
X132852632Y-99471038D01*
X132984033Y-99463725D01*
X133083403Y-99454971D01*
X133157322Y-99444520D01*
X133212368Y-99432116D01*
X133255120Y-99417504D01*
X133292158Y-99400428D01*
X133305166Y-99393730D01*
X133434002Y-99303061D01*
X133560095Y-99178290D01*
X133601500Y-99125513D01*
X133728500Y-98945734D01*
X133741159Y-94345617D01*
X133743068Y-93534794D01*
X133744090Y-92806449D01*
X133744210Y-92158401D01*
X133743413Y-91588464D01*
X133741683Y-91094456D01*
X133739004Y-90674193D01*
X133735362Y-90325492D01*
X133730740Y-90046169D01*
X133725124Y-89834042D01*
X133718497Y-89686926D01*
X133710845Y-89602639D01*
X133707500Y-89586048D01*
X133625326Y-89410503D01*
X133494133Y-89241362D01*
X133339844Y-89108610D01*
X133254271Y-89061861D01*
X133209599Y-89049484D01*
X133135438Y-89038925D01*
X133025871Y-89030058D01*
X132874982Y-89022754D01*
X132676854Y-89016889D01*
X132425573Y-89012336D01*
X132115222Y-89008967D01*
X131739884Y-89006656D01*
X131293644Y-89005276D01*
X130770586Y-89004701D01*
X130582343Y-89004667D01*
X130037763Y-89004529D01*
X129571175Y-89003842D01*
X129175905Y-89002198D01*
X128845278Y-88999188D01*
X128572620Y-88994403D01*
X128351256Y-88987435D01*
X128174513Y-88977876D01*
X128035715Y-88965315D01*
X127928189Y-88949345D01*
X127845260Y-88929557D01*
X127780253Y-88905542D01*
X127726494Y-88876892D01*
X127677309Y-88843199D01*
X127653666Y-88825345D01*
X127525614Y-88693874D01*
X127423145Y-88527964D01*
X127364639Y-88360644D01*
X127357550Y-88293163D01*
X127324611Y-88026559D01*
X127232975Y-87787553D01*
X127092130Y-87590952D01*
X126911564Y-87451563D01*
X126785833Y-87400919D01*
X126732117Y-87397701D01*
X126596503Y-87394589D01*
X126381756Y-87391585D01*
X126090646Y-87388687D01*
X125725940Y-87385897D01*
X125290404Y-87383213D01*
X124786808Y-87380636D01*
X124217917Y-87378166D01*
X123586500Y-87375804D01*
X122895325Y-87373548D01*
X122147158Y-87371399D01*
X121344768Y-87369357D01*
X120490922Y-87367422D01*
X119588387Y-87365594D01*
X118639931Y-87363873D01*
X117648322Y-87362258D01*
X116616326Y-87360751D01*
X115546713Y-87359351D01*
X114442248Y-87358058D01*
X113305701Y-87356871D01*
X112139837Y-87355792D01*
X110947426Y-87354819D01*
X109731234Y-87353954D01*
X108494028Y-87353195D01*
X107238578Y-87352544D01*
X105967649Y-87351999D01*
X104684010Y-87351561D01*
X103390427Y-87351230D01*
X102089670Y-87351007D01*
X100784504Y-87350890D01*
X99477699Y-87350880D01*
X98172020Y-87350977D01*
X96870237Y-87351181D01*
X95575115Y-87351492D01*
X94289424Y-87351910D01*
X93015930Y-87352435D01*
X91757401Y-87353066D01*
X90516605Y-87353805D01*
X89296308Y-87354651D01*
X88099280Y-87355603D01*
X86928286Y-87356663D01*
X85786095Y-87357830D01*
X84675474Y-87359103D01*
X83599191Y-87360484D01*
X82560014Y-87361971D01*
X81560709Y-87363565D01*
X80604045Y-87365267D01*
X79692789Y-87367075D01*
X78829708Y-87368990D01*
X78017570Y-87371012D01*
X77259143Y-87373141D01*
X76557194Y-87375377D01*
X75914491Y-87377720D01*
X75333800Y-87380170D01*
X74817891Y-87382727D01*
X74369530Y-87385391D01*
X73991485Y-87388162D01*
X73686523Y-87391040D01*
X73457412Y-87394024D01*
X73306920Y-87397116D01*
X73237813Y-87400315D01*
X73234166Y-87400919D01*
X73033483Y-87498262D01*
X72867255Y-87661919D01*
X72744729Y-87877373D01*
X72675155Y-88130112D01*
X72662666Y-88297839D01*
X72632016Y-88440851D01*
X72552473Y-88602821D01*
X72442653Y-88751601D01*
X72351424Y-88835334D01*
X72303573Y-88868348D01*
X72253941Y-88896581D01*
X72195840Y-88920413D01*
X72122582Y-88940231D01*
X72027480Y-88956415D01*
X71903846Y-88969351D01*
X71744993Y-88979422D01*
X71544232Y-88987011D01*
X71294876Y-88992502D01*
X70990237Y-88996277D01*
X70623628Y-88998722D01*
X70188361Y-89000218D01*
X69677749Y-89001150D01*
X69454556Y-89001446D01*
X68902661Y-89002484D01*
X68429563Y-89004188D01*
X68029395Y-89006691D01*
X67696290Y-89010123D01*
X67424380Y-89014618D01*
X67207798Y-89020306D01*
X67040676Y-89027320D01*
X66917147Y-89035791D01*
X66831343Y-89045851D01*
X66777398Y-89057632D01*
X66765728Y-89061861D01*
X66609794Y-89161701D01*
X66462653Y-89314472D01*
X66350227Y-89490192D01*
X66312499Y-89586048D01*
X66304433Y-89645859D01*
X66297399Y-89767626D01*
X66291381Y-89953533D01*
X66286364Y-90205763D01*
X66282333Y-90526500D01*
X66279271Y-90917927D01*
X66277164Y-91382228D01*
X66275996Y-91921585D01*
X66275752Y-92538183D01*
X65479580Y-92538183D01*
X65487166Y-89406834D01*
X65617831Y-89131667D01*
X65801064Y-88834476D01*
X66043789Y-88574869D01*
X66325929Y-88373384D01*
X66394164Y-88337484D01*
X66630166Y-88221500D01*
X69238664Y-88209686D01*
X71847162Y-88197873D01*
X71874302Y-87998020D01*
X71963373Y-87627490D01*
X72120979Y-87300877D01*
X72341732Y-87024707D01*
X72620239Y-86805509D01*
X72951112Y-86649807D01*
X73001333Y-86633439D01*
X73020252Y-86627715D01*
X73040445Y-86622255D01*
X73063873Y-86617053D01*
X73092500Y-86612104D01*
X73128288Y-86607401D01*
X73173197Y-86602941D01*
X73229191Y-86598718D01*
X73298231Y-86594725D01*
X73382281Y-86590959D01*
X73483300Y-86587413D01*
X73603253Y-86584083D01*
X73744101Y-86580962D01*
X73907806Y-86578045D01*
X74096330Y-86575328D01*
X74311635Y-86572805D01*
X74555684Y-86570469D01*
X74830438Y-86568317D01*
X75137860Y-86566343D01*
X75479912Y-86564541D01*
X75858556Y-86562905D01*
X76275753Y-86561432D01*
X76733467Y-86560114D01*
X77233658Y-86558947D01*
X77778291Y-86557926D01*
X78369325Y-86557045D01*
X79008724Y-86556299D01*
X79698450Y-86555682D01*
X80440464Y-86555189D01*
X81236729Y-86554815D01*
X82089207Y-86554554D01*
X82999860Y-86554401D01*
X83970650Y-86554351D01*
X85003540Y-86554398D01*
G04 #@! TD*
M02*
