G04 #@! TF.GenerationSoftware,KiCad,Pcbnew,5.1.5+dfsg1-2build2*
G04 #@! TF.CreationDate,2022-02-17T14:46:20+01:00*
G04 #@! TF.ProjectId,ModulAdapter_universal,4d6f6475-6c41-4646-9170-7465725f756e,rev?*
G04 #@! TF.SameCoordinates,Original*
G04 #@! TF.FileFunction,Soldermask,Top*
G04 #@! TF.FilePolarity,Negative*
%FSLAX46Y46*%
G04 Gerber Fmt 4.6, Leading zero omitted, Abs format (unit mm)*
G04 Created by KiCad (PCBNEW 5.1.5+dfsg1-2build2) date 2022-02-17 14:46:20*
%MOMM*%
%LPD*%
G04 APERTURE LIST*
%ADD10C,0.100000*%
G04 APERTURE END LIST*
D10*
G36*
X144466703Y-132461486D02*
G01*
X144757883Y-132582097D01*
X145019940Y-132757198D01*
X145242802Y-132980060D01*
X145417903Y-133242117D01*
X145538514Y-133533297D01*
X145600000Y-133842412D01*
X145600000Y-134157588D01*
X145538514Y-134466703D01*
X145417903Y-134757883D01*
X145242802Y-135019940D01*
X145019940Y-135242802D01*
X144757883Y-135417903D01*
X144466703Y-135538514D01*
X144157588Y-135600000D01*
X143842412Y-135600000D01*
X143533297Y-135538514D01*
X143242117Y-135417903D01*
X142980060Y-135242802D01*
X142757198Y-135019940D01*
X142582097Y-134757883D01*
X142461486Y-134466703D01*
X142400000Y-134157588D01*
X142400000Y-133842412D01*
X142461486Y-133533297D01*
X142582097Y-133242117D01*
X142757198Y-132980060D01*
X142980060Y-132757198D01*
X143242117Y-132582097D01*
X143533297Y-132461486D01*
X143842412Y-132400000D01*
X144157588Y-132400000D01*
X144466703Y-132461486D01*
G37*
G36*
X56466703Y-132461486D02*
G01*
X56757883Y-132582097D01*
X57019940Y-132757198D01*
X57242802Y-132980060D01*
X57417903Y-133242117D01*
X57538514Y-133533297D01*
X57600000Y-133842412D01*
X57600000Y-134157588D01*
X57538514Y-134466703D01*
X57417903Y-134757883D01*
X57242802Y-135019940D01*
X57019940Y-135242802D01*
X56757883Y-135417903D01*
X56466703Y-135538514D01*
X56157588Y-135600000D01*
X55842412Y-135600000D01*
X55533297Y-135538514D01*
X55242117Y-135417903D01*
X54980060Y-135242802D01*
X54757198Y-135019940D01*
X54582097Y-134757883D01*
X54461486Y-134466703D01*
X54400000Y-134157588D01*
X54400000Y-133842412D01*
X54461486Y-133533297D01*
X54582097Y-133242117D01*
X54757198Y-132980060D01*
X54980060Y-132757198D01*
X55242117Y-132582097D01*
X55533297Y-132461486D01*
X55842412Y-132400000D01*
X56157588Y-132400000D01*
X56466703Y-132461486D01*
G37*
G36*
X59300000Y-130490000D02*
G01*
X54500000Y-130490000D01*
X54500000Y-125490000D01*
X59300000Y-125490000D01*
X59300000Y-130490000D01*
G37*
G36*
X145500000Y-130490000D02*
G01*
X140700000Y-130490000D01*
X140700000Y-125490000D01*
X145500000Y-125490000D01*
X145500000Y-130490000D01*
G37*
G36*
X103700000Y-130490000D02*
G01*
X101100000Y-130490000D01*
X101100000Y-125490000D01*
X103700000Y-125490000D01*
X103700000Y-130490000D01*
G37*
G36*
X128375000Y-127750000D02*
G01*
X128025000Y-127750000D01*
X128025000Y-125750000D01*
X128375000Y-125750000D01*
X128375000Y-127750000D01*
G37*
G36*
X137975000Y-127750000D02*
G01*
X137625000Y-127750000D01*
X137625000Y-125750000D01*
X137975000Y-125750000D01*
X137975000Y-127750000D01*
G37*
G36*
X128975000Y-127750000D02*
G01*
X128625000Y-127750000D01*
X128625000Y-125750000D01*
X128975000Y-125750000D01*
X128975000Y-127750000D01*
G37*
G36*
X129575000Y-127750000D02*
G01*
X129225000Y-127750000D01*
X129225000Y-125750000D01*
X129575000Y-125750000D01*
X129575000Y-127750000D01*
G37*
G36*
X130175000Y-127750000D02*
G01*
X129825000Y-127750000D01*
X129825000Y-125750000D01*
X130175000Y-125750000D01*
X130175000Y-127750000D01*
G37*
G36*
X121175000Y-127750000D02*
G01*
X120825000Y-127750000D01*
X120825000Y-125750000D01*
X121175000Y-125750000D01*
X121175000Y-127750000D01*
G37*
G36*
X131375000Y-127750000D02*
G01*
X131025000Y-127750000D01*
X131025000Y-125750000D01*
X131375000Y-125750000D01*
X131375000Y-127750000D01*
G37*
G36*
X131975000Y-127750000D02*
G01*
X131625000Y-127750000D01*
X131625000Y-125750000D01*
X131975000Y-125750000D01*
X131975000Y-127750000D01*
G37*
G36*
X132575000Y-127750000D02*
G01*
X132225000Y-127750000D01*
X132225000Y-125750000D01*
X132575000Y-125750000D01*
X132575000Y-127750000D01*
G37*
G36*
X133175000Y-127750000D02*
G01*
X132825000Y-127750000D01*
X132825000Y-125750000D01*
X133175000Y-125750000D01*
X133175000Y-127750000D01*
G37*
G36*
X133775000Y-127750000D02*
G01*
X133425000Y-127750000D01*
X133425000Y-125750000D01*
X133775000Y-125750000D01*
X133775000Y-127750000D01*
G37*
G36*
X134375000Y-127750000D02*
G01*
X134025000Y-127750000D01*
X134025000Y-125750000D01*
X134375000Y-125750000D01*
X134375000Y-127750000D01*
G37*
G36*
X135575000Y-127750000D02*
G01*
X135225000Y-127750000D01*
X135225000Y-125750000D01*
X135575000Y-125750000D01*
X135575000Y-127750000D01*
G37*
G36*
X136775000Y-127750000D02*
G01*
X136425000Y-127750000D01*
X136425000Y-125750000D01*
X136775000Y-125750000D01*
X136775000Y-127750000D01*
G37*
G36*
X137375000Y-127750000D02*
G01*
X137025000Y-127750000D01*
X137025000Y-125750000D01*
X137375000Y-125750000D01*
X137375000Y-127750000D01*
G37*
G36*
X78575000Y-127750000D02*
G01*
X78225000Y-127750000D01*
X78225000Y-125750000D01*
X78575000Y-125750000D01*
X78575000Y-127750000D01*
G37*
G36*
X127775000Y-127750000D02*
G01*
X127425000Y-127750000D01*
X127425000Y-125750000D01*
X127775000Y-125750000D01*
X127775000Y-127750000D01*
G37*
G36*
X127175000Y-127750000D02*
G01*
X126825000Y-127750000D01*
X126825000Y-125750000D01*
X127175000Y-125750000D01*
X127175000Y-127750000D01*
G37*
G36*
X126575000Y-127750000D02*
G01*
X126225000Y-127750000D01*
X126225000Y-125750000D01*
X126575000Y-125750000D01*
X126575000Y-127750000D01*
G37*
G36*
X125975000Y-127750000D02*
G01*
X125625000Y-127750000D01*
X125625000Y-125750000D01*
X125975000Y-125750000D01*
X125975000Y-127750000D01*
G37*
G36*
X125375000Y-127750000D02*
G01*
X125025000Y-127750000D01*
X125025000Y-125750000D01*
X125375000Y-125750000D01*
X125375000Y-127750000D01*
G37*
G36*
X124775000Y-127750000D02*
G01*
X124425000Y-127750000D01*
X124425000Y-125750000D01*
X124775000Y-125750000D01*
X124775000Y-127750000D01*
G37*
G36*
X124175000Y-127750000D02*
G01*
X123825000Y-127750000D01*
X123825000Y-125750000D01*
X124175000Y-125750000D01*
X124175000Y-127750000D01*
G37*
G36*
X123575000Y-127750000D02*
G01*
X123225000Y-127750000D01*
X123225000Y-125750000D01*
X123575000Y-125750000D01*
X123575000Y-127750000D01*
G37*
G36*
X122975000Y-127750000D02*
G01*
X122625000Y-127750000D01*
X122625000Y-125750000D01*
X122975000Y-125750000D01*
X122975000Y-127750000D01*
G37*
G36*
X122375000Y-127750000D02*
G01*
X122025000Y-127750000D01*
X122025000Y-125750000D01*
X122375000Y-125750000D01*
X122375000Y-127750000D01*
G37*
G36*
X121775000Y-127750000D02*
G01*
X121425000Y-127750000D01*
X121425000Y-125750000D01*
X121775000Y-125750000D01*
X121775000Y-127750000D01*
G37*
G36*
X130775000Y-127750000D02*
G01*
X130425000Y-127750000D01*
X130425000Y-125750000D01*
X130775000Y-125750000D01*
X130775000Y-127750000D01*
G37*
G36*
X79775000Y-127750000D02*
G01*
X79425000Y-127750000D01*
X79425000Y-125750000D01*
X79775000Y-125750000D01*
X79775000Y-127750000D01*
G37*
G36*
X79175000Y-127750000D02*
G01*
X78825000Y-127750000D01*
X78825000Y-125750000D01*
X79175000Y-125750000D01*
X79175000Y-127750000D01*
G37*
G36*
X100175000Y-127750000D02*
G01*
X99825000Y-127750000D01*
X99825000Y-125750000D01*
X100175000Y-125750000D01*
X100175000Y-127750000D01*
G37*
G36*
X99575000Y-127750000D02*
G01*
X99225000Y-127750000D01*
X99225000Y-125750000D01*
X99575000Y-125750000D01*
X99575000Y-127750000D01*
G37*
G36*
X120575000Y-127750000D02*
G01*
X120225000Y-127750000D01*
X120225000Y-125750000D01*
X120575000Y-125750000D01*
X120575000Y-127750000D01*
G37*
G36*
X119975000Y-127750000D02*
G01*
X119625000Y-127750000D01*
X119625000Y-125750000D01*
X119975000Y-125750000D01*
X119975000Y-127750000D01*
G37*
G36*
X119375000Y-127750000D02*
G01*
X119025000Y-127750000D01*
X119025000Y-125750000D01*
X119375000Y-125750000D01*
X119375000Y-127750000D01*
G37*
G36*
X118775000Y-127750000D02*
G01*
X118425000Y-127750000D01*
X118425000Y-125750000D01*
X118775000Y-125750000D01*
X118775000Y-127750000D01*
G37*
G36*
X118175000Y-127750000D02*
G01*
X117825000Y-127750000D01*
X117825000Y-125750000D01*
X118175000Y-125750000D01*
X118175000Y-127750000D01*
G37*
G36*
X117575000Y-127750000D02*
G01*
X117225000Y-127750000D01*
X117225000Y-125750000D01*
X117575000Y-125750000D01*
X117575000Y-127750000D01*
G37*
G36*
X116975000Y-127750000D02*
G01*
X116625000Y-127750000D01*
X116625000Y-125750000D01*
X116975000Y-125750000D01*
X116975000Y-127750000D01*
G37*
G36*
X116375000Y-127750000D02*
G01*
X116025000Y-127750000D01*
X116025000Y-125750000D01*
X116375000Y-125750000D01*
X116375000Y-127750000D01*
G37*
G36*
X115775000Y-127750000D02*
G01*
X115425000Y-127750000D01*
X115425000Y-125750000D01*
X115775000Y-125750000D01*
X115775000Y-127750000D01*
G37*
G36*
X115175000Y-127750000D02*
G01*
X114825000Y-127750000D01*
X114825000Y-125750000D01*
X115175000Y-125750000D01*
X115175000Y-127750000D01*
G37*
G36*
X114575000Y-127750000D02*
G01*
X114225000Y-127750000D01*
X114225000Y-125750000D01*
X114575000Y-125750000D01*
X114575000Y-127750000D01*
G37*
G36*
X113975000Y-127750000D02*
G01*
X113625000Y-127750000D01*
X113625000Y-125750000D01*
X113975000Y-125750000D01*
X113975000Y-127750000D01*
G37*
G36*
X113375000Y-127750000D02*
G01*
X113025000Y-127750000D01*
X113025000Y-125750000D01*
X113375000Y-125750000D01*
X113375000Y-127750000D01*
G37*
G36*
X112775000Y-127750000D02*
G01*
X112425000Y-127750000D01*
X112425000Y-125750000D01*
X112775000Y-125750000D01*
X112775000Y-127750000D01*
G37*
G36*
X112175000Y-127750000D02*
G01*
X111825000Y-127750000D01*
X111825000Y-125750000D01*
X112175000Y-125750000D01*
X112175000Y-127750000D01*
G37*
G36*
X111575000Y-127750000D02*
G01*
X111225000Y-127750000D01*
X111225000Y-125750000D01*
X111575000Y-125750000D01*
X111575000Y-127750000D01*
G37*
G36*
X110975000Y-127750000D02*
G01*
X110625000Y-127750000D01*
X110625000Y-125750000D01*
X110975000Y-125750000D01*
X110975000Y-127750000D01*
G37*
G36*
X110375000Y-127750000D02*
G01*
X110025000Y-127750000D01*
X110025000Y-125750000D01*
X110375000Y-125750000D01*
X110375000Y-127750000D01*
G37*
G36*
X109775000Y-127750000D02*
G01*
X109425000Y-127750000D01*
X109425000Y-125750000D01*
X109775000Y-125750000D01*
X109775000Y-127750000D01*
G37*
G36*
X109175000Y-127750000D02*
G01*
X108825000Y-127750000D01*
X108825000Y-125750000D01*
X109175000Y-125750000D01*
X109175000Y-127750000D01*
G37*
G36*
X108575000Y-127750000D02*
G01*
X108225000Y-127750000D01*
X108225000Y-125750000D01*
X108575000Y-125750000D01*
X108575000Y-127750000D01*
G37*
G36*
X107975000Y-127750000D02*
G01*
X107625000Y-127750000D01*
X107625000Y-125750000D01*
X107975000Y-125750000D01*
X107975000Y-127750000D01*
G37*
G36*
X107375000Y-127750000D02*
G01*
X107025000Y-127750000D01*
X107025000Y-125750000D01*
X107375000Y-125750000D01*
X107375000Y-127750000D01*
G37*
G36*
X106775000Y-127750000D02*
G01*
X106425000Y-127750000D01*
X106425000Y-125750000D01*
X106775000Y-125750000D01*
X106775000Y-127750000D01*
G37*
G36*
X106175000Y-127750000D02*
G01*
X105825000Y-127750000D01*
X105825000Y-125750000D01*
X106175000Y-125750000D01*
X106175000Y-127750000D01*
G37*
G36*
X105575000Y-127750000D02*
G01*
X105225000Y-127750000D01*
X105225000Y-125750000D01*
X105575000Y-125750000D01*
X105575000Y-127750000D01*
G37*
G36*
X104975000Y-127750000D02*
G01*
X104625000Y-127750000D01*
X104625000Y-125750000D01*
X104975000Y-125750000D01*
X104975000Y-127750000D01*
G37*
G36*
X104375000Y-127750000D02*
G01*
X104025000Y-127750000D01*
X104025000Y-125750000D01*
X104375000Y-125750000D01*
X104375000Y-127750000D01*
G37*
G36*
X100775000Y-127750000D02*
G01*
X100425000Y-127750000D01*
X100425000Y-125750000D01*
X100775000Y-125750000D01*
X100775000Y-127750000D01*
G37*
G36*
X81575000Y-127750000D02*
G01*
X81225000Y-127750000D01*
X81225000Y-125750000D01*
X81575000Y-125750000D01*
X81575000Y-127750000D01*
G37*
G36*
X89375000Y-127750000D02*
G01*
X89025000Y-127750000D01*
X89025000Y-125750000D01*
X89375000Y-125750000D01*
X89375000Y-127750000D01*
G37*
G36*
X97175000Y-127750000D02*
G01*
X96825000Y-127750000D01*
X96825000Y-125750000D01*
X97175000Y-125750000D01*
X97175000Y-127750000D01*
G37*
G36*
X96575000Y-127750000D02*
G01*
X96225000Y-127750000D01*
X96225000Y-125750000D01*
X96575000Y-125750000D01*
X96575000Y-127750000D01*
G37*
G36*
X95975000Y-127750000D02*
G01*
X95625000Y-127750000D01*
X95625000Y-125750000D01*
X95975000Y-125750000D01*
X95975000Y-127750000D01*
G37*
G36*
X95375000Y-127750000D02*
G01*
X95025000Y-127750000D01*
X95025000Y-125750000D01*
X95375000Y-125750000D01*
X95375000Y-127750000D01*
G37*
G36*
X94775000Y-127750000D02*
G01*
X94425000Y-127750000D01*
X94425000Y-125750000D01*
X94775000Y-125750000D01*
X94775000Y-127750000D01*
G37*
G36*
X94175000Y-127750000D02*
G01*
X93825000Y-127750000D01*
X93825000Y-125750000D01*
X94175000Y-125750000D01*
X94175000Y-127750000D01*
G37*
G36*
X93575000Y-127750000D02*
G01*
X93225000Y-127750000D01*
X93225000Y-125750000D01*
X93575000Y-125750000D01*
X93575000Y-127750000D01*
G37*
G36*
X92975000Y-127750000D02*
G01*
X92625000Y-127750000D01*
X92625000Y-125750000D01*
X92975000Y-125750000D01*
X92975000Y-127750000D01*
G37*
G36*
X92375000Y-127750000D02*
G01*
X92025000Y-127750000D01*
X92025000Y-125750000D01*
X92375000Y-125750000D01*
X92375000Y-127750000D01*
G37*
G36*
X91775000Y-127750000D02*
G01*
X91425000Y-127750000D01*
X91425000Y-125750000D01*
X91775000Y-125750000D01*
X91775000Y-127750000D01*
G37*
G36*
X91175000Y-127750000D02*
G01*
X90825000Y-127750000D01*
X90825000Y-125750000D01*
X91175000Y-125750000D01*
X91175000Y-127750000D01*
G37*
G36*
X89975000Y-127750000D02*
G01*
X89625000Y-127750000D01*
X89625000Y-125750000D01*
X89975000Y-125750000D01*
X89975000Y-127750000D01*
G37*
G36*
X90575000Y-127750000D02*
G01*
X90225000Y-127750000D01*
X90225000Y-125750000D01*
X90575000Y-125750000D01*
X90575000Y-127750000D01*
G37*
G36*
X98975000Y-127750000D02*
G01*
X98625000Y-127750000D01*
X98625000Y-125750000D01*
X98975000Y-125750000D01*
X98975000Y-127750000D01*
G37*
G36*
X97775000Y-127750000D02*
G01*
X97425000Y-127750000D01*
X97425000Y-125750000D01*
X97775000Y-125750000D01*
X97775000Y-127750000D01*
G37*
G36*
X82175000Y-127750000D02*
G01*
X81825000Y-127750000D01*
X81825000Y-125750000D01*
X82175000Y-125750000D01*
X82175000Y-127750000D01*
G37*
G36*
X82775000Y-127750000D02*
G01*
X82425000Y-127750000D01*
X82425000Y-125750000D01*
X82775000Y-125750000D01*
X82775000Y-127750000D01*
G37*
G36*
X83375000Y-127750000D02*
G01*
X83025000Y-127750000D01*
X83025000Y-125750000D01*
X83375000Y-125750000D01*
X83375000Y-127750000D01*
G37*
G36*
X83975000Y-127750000D02*
G01*
X83625000Y-127750000D01*
X83625000Y-125750000D01*
X83975000Y-125750000D01*
X83975000Y-127750000D01*
G37*
G36*
X84575000Y-127750000D02*
G01*
X84225000Y-127750000D01*
X84225000Y-125750000D01*
X84575000Y-125750000D01*
X84575000Y-127750000D01*
G37*
G36*
X85175000Y-127750000D02*
G01*
X84825000Y-127750000D01*
X84825000Y-125750000D01*
X85175000Y-125750000D01*
X85175000Y-127750000D01*
G37*
G36*
X85775000Y-127750000D02*
G01*
X85425000Y-127750000D01*
X85425000Y-125750000D01*
X85775000Y-125750000D01*
X85775000Y-127750000D01*
G37*
G36*
X86375000Y-127750000D02*
G01*
X86025000Y-127750000D01*
X86025000Y-125750000D01*
X86375000Y-125750000D01*
X86375000Y-127750000D01*
G37*
G36*
X86975000Y-127750000D02*
G01*
X86625000Y-127750000D01*
X86625000Y-125750000D01*
X86975000Y-125750000D01*
X86975000Y-127750000D01*
G37*
G36*
X87575000Y-127750000D02*
G01*
X87225000Y-127750000D01*
X87225000Y-125750000D01*
X87575000Y-125750000D01*
X87575000Y-127750000D01*
G37*
G36*
X88175000Y-127750000D02*
G01*
X87825000Y-127750000D01*
X87825000Y-125750000D01*
X88175000Y-125750000D01*
X88175000Y-127750000D01*
G37*
G36*
X88775000Y-127750000D02*
G01*
X88425000Y-127750000D01*
X88425000Y-125750000D01*
X88775000Y-125750000D01*
X88775000Y-127750000D01*
G37*
G36*
X80975000Y-127750000D02*
G01*
X80625000Y-127750000D01*
X80625000Y-125750000D01*
X80975000Y-125750000D01*
X80975000Y-127750000D01*
G37*
G36*
X77975000Y-127750000D02*
G01*
X77625000Y-127750000D01*
X77625000Y-125750000D01*
X77975000Y-125750000D01*
X77975000Y-127750000D01*
G37*
G36*
X69575000Y-127750000D02*
G01*
X69225000Y-127750000D01*
X69225000Y-125750000D01*
X69575000Y-125750000D01*
X69575000Y-127750000D01*
G37*
G36*
X77375000Y-127750000D02*
G01*
X77025000Y-127750000D01*
X77025000Y-125750000D01*
X77375000Y-125750000D01*
X77375000Y-127750000D01*
G37*
G36*
X76775000Y-127750000D02*
G01*
X76425000Y-127750000D01*
X76425000Y-125750000D01*
X76775000Y-125750000D01*
X76775000Y-127750000D01*
G37*
G36*
X76175000Y-127750000D02*
G01*
X75825000Y-127750000D01*
X75825000Y-125750000D01*
X76175000Y-125750000D01*
X76175000Y-127750000D01*
G37*
G36*
X75575000Y-127750000D02*
G01*
X75225000Y-127750000D01*
X75225000Y-125750000D01*
X75575000Y-125750000D01*
X75575000Y-127750000D01*
G37*
G36*
X74975000Y-127750000D02*
G01*
X74625000Y-127750000D01*
X74625000Y-125750000D01*
X74975000Y-125750000D01*
X74975000Y-127750000D01*
G37*
G36*
X74375000Y-127750000D02*
G01*
X74025000Y-127750000D01*
X74025000Y-125750000D01*
X74375000Y-125750000D01*
X74375000Y-127750000D01*
G37*
G36*
X73775000Y-127750000D02*
G01*
X73425000Y-127750000D01*
X73425000Y-125750000D01*
X73775000Y-125750000D01*
X73775000Y-127750000D01*
G37*
G36*
X73175000Y-127750000D02*
G01*
X72825000Y-127750000D01*
X72825000Y-125750000D01*
X73175000Y-125750000D01*
X73175000Y-127750000D01*
G37*
G36*
X72575000Y-127750000D02*
G01*
X72225000Y-127750000D01*
X72225000Y-125750000D01*
X72575000Y-125750000D01*
X72575000Y-127750000D01*
G37*
G36*
X71975000Y-127750000D02*
G01*
X71625000Y-127750000D01*
X71625000Y-125750000D01*
X71975000Y-125750000D01*
X71975000Y-127750000D01*
G37*
G36*
X71375000Y-127750000D02*
G01*
X71025000Y-127750000D01*
X71025000Y-125750000D01*
X71375000Y-125750000D01*
X71375000Y-127750000D01*
G37*
G36*
X80375000Y-127750000D02*
G01*
X80025000Y-127750000D01*
X80025000Y-125750000D01*
X80375000Y-125750000D01*
X80375000Y-127750000D01*
G37*
G36*
X70175000Y-127750000D02*
G01*
X69825000Y-127750000D01*
X69825000Y-125750000D01*
X70175000Y-125750000D01*
X70175000Y-127750000D01*
G37*
G36*
X98375000Y-127750000D02*
G01*
X98025000Y-127750000D01*
X98025000Y-125750000D01*
X98375000Y-125750000D01*
X98375000Y-127750000D01*
G37*
G36*
X68975000Y-127750000D02*
G01*
X68625000Y-127750000D01*
X68625000Y-125750000D01*
X68975000Y-125750000D01*
X68975000Y-127750000D01*
G37*
G36*
X67775000Y-127750000D02*
G01*
X67425000Y-127750000D01*
X67425000Y-125750000D01*
X67775000Y-125750000D01*
X67775000Y-127750000D01*
G37*
G36*
X136175000Y-127750000D02*
G01*
X135825000Y-127750000D01*
X135825000Y-125750000D01*
X136175000Y-125750000D01*
X136175000Y-127750000D01*
G37*
G36*
X70775000Y-127750000D02*
G01*
X70425000Y-127750000D01*
X70425000Y-125750000D01*
X70775000Y-125750000D01*
X70775000Y-127750000D01*
G37*
G36*
X134975000Y-127750000D02*
G01*
X134625000Y-127750000D01*
X134625000Y-125750000D01*
X134975000Y-125750000D01*
X134975000Y-127750000D01*
G37*
G36*
X62975000Y-127750000D02*
G01*
X62625000Y-127750000D01*
X62625000Y-125750000D01*
X62975000Y-125750000D01*
X62975000Y-127750000D01*
G37*
G36*
X62375000Y-127750000D02*
G01*
X62025000Y-127750000D01*
X62025000Y-125750000D01*
X62375000Y-125750000D01*
X62375000Y-127750000D01*
G37*
G36*
X63575000Y-127750000D02*
G01*
X63225000Y-127750000D01*
X63225000Y-125750000D01*
X63575000Y-125750000D01*
X63575000Y-127750000D01*
G37*
G36*
X64175000Y-127750000D02*
G01*
X63825000Y-127750000D01*
X63825000Y-125750000D01*
X64175000Y-125750000D01*
X64175000Y-127750000D01*
G37*
G36*
X64775000Y-127750000D02*
G01*
X64425000Y-127750000D01*
X64425000Y-125750000D01*
X64775000Y-125750000D01*
X64775000Y-127750000D01*
G37*
G36*
X65375000Y-127750000D02*
G01*
X65025000Y-127750000D01*
X65025000Y-125750000D01*
X65375000Y-125750000D01*
X65375000Y-127750000D01*
G37*
G36*
X65975000Y-127750000D02*
G01*
X65625000Y-127750000D01*
X65625000Y-125750000D01*
X65975000Y-125750000D01*
X65975000Y-127750000D01*
G37*
G36*
X66575000Y-127750000D02*
G01*
X66225000Y-127750000D01*
X66225000Y-125750000D01*
X66575000Y-125750000D01*
X66575000Y-127750000D01*
G37*
G36*
X67175000Y-127750000D02*
G01*
X66825000Y-127750000D01*
X66825000Y-125750000D01*
X67175000Y-125750000D01*
X67175000Y-127750000D01*
G37*
G36*
X68375000Y-127750000D02*
G01*
X68025000Y-127750000D01*
X68025000Y-125750000D01*
X68375000Y-125750000D01*
X68375000Y-127750000D01*
G37*
G36*
X143464610Y-122198036D02*
G01*
X143692095Y-122292264D01*
X143692097Y-122292265D01*
X143896828Y-122429062D01*
X144070938Y-122603172D01*
X144207736Y-122807905D01*
X144301964Y-123035390D01*
X144350000Y-123276884D01*
X144350000Y-123523116D01*
X144301964Y-123764610D01*
X144210065Y-123986473D01*
X144207735Y-123992097D01*
X144070938Y-124196828D01*
X143896828Y-124370938D01*
X143692097Y-124507735D01*
X143692096Y-124507736D01*
X143692095Y-124507736D01*
X143464610Y-124601964D01*
X143223116Y-124650000D01*
X142976884Y-124650000D01*
X142735390Y-124601964D01*
X142507905Y-124507736D01*
X142507904Y-124507736D01*
X142507903Y-124507735D01*
X142303172Y-124370938D01*
X142129062Y-124196828D01*
X141992265Y-123992097D01*
X141989935Y-123986473D01*
X141898036Y-123764610D01*
X141850000Y-123523116D01*
X141850000Y-123276884D01*
X141898036Y-123035390D01*
X141992264Y-122807905D01*
X142129062Y-122603172D01*
X142303172Y-122429062D01*
X142507903Y-122292265D01*
X142507905Y-122292264D01*
X142735390Y-122198036D01*
X142976884Y-122150000D01*
X143223116Y-122150000D01*
X143464610Y-122198036D01*
G37*
G36*
X57264610Y-122198036D02*
G01*
X57492095Y-122292264D01*
X57492097Y-122292265D01*
X57696828Y-122429062D01*
X57870938Y-122603172D01*
X58007736Y-122807905D01*
X58101964Y-123035390D01*
X58150000Y-123276884D01*
X58150000Y-123523116D01*
X58101964Y-123764610D01*
X58010065Y-123986473D01*
X58007735Y-123992097D01*
X57870938Y-124196828D01*
X57696828Y-124370938D01*
X57492097Y-124507735D01*
X57492096Y-124507736D01*
X57492095Y-124507736D01*
X57264610Y-124601964D01*
X57023116Y-124650000D01*
X56776884Y-124650000D01*
X56535390Y-124601964D01*
X56307905Y-124507736D01*
X56307904Y-124507736D01*
X56307903Y-124507735D01*
X56103172Y-124370938D01*
X55929062Y-124196828D01*
X55792265Y-123992097D01*
X55789935Y-123986473D01*
X55698036Y-123764610D01*
X55650000Y-123523116D01*
X55650000Y-123276884D01*
X55698036Y-123035390D01*
X55792264Y-122807905D01*
X55929062Y-122603172D01*
X56103172Y-122429062D01*
X56307903Y-122292265D01*
X56307905Y-122292264D01*
X56535390Y-122198036D01*
X56776884Y-122150000D01*
X57023116Y-122150000D01*
X57264610Y-122198036D01*
G37*
G36*
X102764610Y-122198036D02*
G01*
X102992095Y-122292264D01*
X102992097Y-122292265D01*
X103196828Y-122429062D01*
X103370938Y-122603172D01*
X103507736Y-122807905D01*
X103601964Y-123035390D01*
X103650000Y-123276884D01*
X103650000Y-123523116D01*
X103601964Y-123764610D01*
X103510065Y-123986473D01*
X103507735Y-123992097D01*
X103370938Y-124196828D01*
X103196828Y-124370938D01*
X102992097Y-124507735D01*
X102992096Y-124507736D01*
X102992095Y-124507736D01*
X102764610Y-124601964D01*
X102523116Y-124650000D01*
X102276884Y-124650000D01*
X102035390Y-124601964D01*
X101807905Y-124507736D01*
X101807904Y-124507736D01*
X101807903Y-124507735D01*
X101603172Y-124370938D01*
X101429062Y-124196828D01*
X101292265Y-123992097D01*
X101289935Y-123986473D01*
X101198036Y-123764610D01*
X101150000Y-123523116D01*
X101150000Y-123276884D01*
X101198036Y-123035390D01*
X101292264Y-122807905D01*
X101429062Y-122603172D01*
X101603172Y-122429062D01*
X101807903Y-122292265D01*
X101807905Y-122292264D01*
X102035390Y-122198036D01*
X102276884Y-122150000D01*
X102523116Y-122150000D01*
X102764610Y-122198036D01*
G37*
G36*
X132247765Y-121754403D02*
G01*
X132370445Y-121778805D01*
X132601571Y-121874541D01*
X132809578Y-122013527D01*
X132986473Y-122190422D01*
X133125459Y-122398429D01*
X133210267Y-122603172D01*
X133221195Y-122629556D01*
X133270000Y-122874915D01*
X133270000Y-123125085D01*
X133221195Y-123370444D01*
X133125460Y-123601569D01*
X132986474Y-123809577D01*
X132809577Y-123986474D01*
X132706279Y-124055495D01*
X132601571Y-124125459D01*
X132370445Y-124221195D01*
X132247764Y-124245598D01*
X132125085Y-124270000D01*
X131874915Y-124270000D01*
X131752236Y-124245598D01*
X131629555Y-124221195D01*
X131398429Y-124125459D01*
X131293721Y-124055495D01*
X131190423Y-123986474D01*
X131013526Y-123809577D01*
X130874540Y-123601569D01*
X130778805Y-123370444D01*
X130730000Y-123125085D01*
X130730000Y-122874915D01*
X130778805Y-122629556D01*
X130789734Y-122603172D01*
X130874541Y-122398429D01*
X131013527Y-122190422D01*
X131190422Y-122013527D01*
X131398429Y-121874541D01*
X131629555Y-121778805D01*
X131752235Y-121754403D01*
X131874915Y-121730000D01*
X132125085Y-121730000D01*
X132247765Y-121754403D01*
G37*
G36*
X145500000Y-121310000D02*
G01*
X140700000Y-121310000D01*
X140700000Y-116310000D01*
X145500000Y-116310000D01*
X145500000Y-121310000D01*
G37*
G36*
X103700000Y-121310000D02*
G01*
X101100000Y-121310000D01*
X101100000Y-116310000D01*
X103700000Y-116310000D01*
X103700000Y-121310000D01*
G37*
G36*
X59300000Y-121310000D02*
G01*
X54500000Y-121310000D01*
X54500000Y-116310000D01*
X59300000Y-116310000D01*
X59300000Y-121310000D01*
G37*
G36*
X74375000Y-119050000D02*
G01*
X74025000Y-119050000D01*
X74025000Y-117050000D01*
X74375000Y-117050000D01*
X74375000Y-119050000D01*
G37*
G36*
X97775000Y-119050000D02*
G01*
X97425000Y-119050000D01*
X97425000Y-117050000D01*
X97775000Y-117050000D01*
X97775000Y-119050000D01*
G37*
G36*
X73775000Y-119050000D02*
G01*
X73425000Y-119050000D01*
X73425000Y-117050000D01*
X73775000Y-117050000D01*
X73775000Y-119050000D01*
G37*
G36*
X73175000Y-119050000D02*
G01*
X72825000Y-119050000D01*
X72825000Y-117050000D01*
X73175000Y-117050000D01*
X73175000Y-119050000D01*
G37*
G36*
X96575000Y-119050000D02*
G01*
X96225000Y-119050000D01*
X96225000Y-117050000D01*
X96575000Y-117050000D01*
X96575000Y-119050000D01*
G37*
G36*
X106775000Y-119050000D02*
G01*
X106425000Y-119050000D01*
X106425000Y-117050000D01*
X106775000Y-117050000D01*
X106775000Y-119050000D01*
G37*
G36*
X106175000Y-119050000D02*
G01*
X105825000Y-119050000D01*
X105825000Y-117050000D01*
X106175000Y-117050000D01*
X106175000Y-119050000D01*
G37*
G36*
X105575000Y-119050000D02*
G01*
X105225000Y-119050000D01*
X105225000Y-117050000D01*
X105575000Y-117050000D01*
X105575000Y-119050000D01*
G37*
G36*
X104975000Y-119050000D02*
G01*
X104625000Y-119050000D01*
X104625000Y-117050000D01*
X104975000Y-117050000D01*
X104975000Y-119050000D01*
G37*
G36*
X104375000Y-119050000D02*
G01*
X104025000Y-119050000D01*
X104025000Y-117050000D01*
X104375000Y-117050000D01*
X104375000Y-119050000D01*
G37*
G36*
X68975000Y-119050000D02*
G01*
X68625000Y-119050000D01*
X68625000Y-117050000D01*
X68975000Y-117050000D01*
X68975000Y-119050000D01*
G37*
G36*
X99575000Y-119050000D02*
G01*
X99225000Y-119050000D01*
X99225000Y-117050000D01*
X99575000Y-117050000D01*
X99575000Y-119050000D01*
G37*
G36*
X98975000Y-119050000D02*
G01*
X98625000Y-119050000D01*
X98625000Y-117050000D01*
X98975000Y-117050000D01*
X98975000Y-119050000D01*
G37*
G36*
X98375000Y-119050000D02*
G01*
X98025000Y-119050000D01*
X98025000Y-117050000D01*
X98375000Y-117050000D01*
X98375000Y-119050000D01*
G37*
G36*
X83975000Y-119050000D02*
G01*
X83625000Y-119050000D01*
X83625000Y-117050000D01*
X83975000Y-117050000D01*
X83975000Y-119050000D01*
G37*
G36*
X74975000Y-119050000D02*
G01*
X74625000Y-119050000D01*
X74625000Y-117050000D01*
X74975000Y-117050000D01*
X74975000Y-119050000D01*
G37*
G36*
X75575000Y-119050000D02*
G01*
X75225000Y-119050000D01*
X75225000Y-117050000D01*
X75575000Y-117050000D01*
X75575000Y-119050000D01*
G37*
G36*
X76175000Y-119050000D02*
G01*
X75825000Y-119050000D01*
X75825000Y-117050000D01*
X76175000Y-117050000D01*
X76175000Y-119050000D01*
G37*
G36*
X76775000Y-119050000D02*
G01*
X76425000Y-119050000D01*
X76425000Y-117050000D01*
X76775000Y-117050000D01*
X76775000Y-119050000D01*
G37*
G36*
X77375000Y-119050000D02*
G01*
X77025000Y-119050000D01*
X77025000Y-117050000D01*
X77375000Y-117050000D01*
X77375000Y-119050000D01*
G37*
G36*
X77975000Y-119050000D02*
G01*
X77625000Y-119050000D01*
X77625000Y-117050000D01*
X77975000Y-117050000D01*
X77975000Y-119050000D01*
G37*
G36*
X78575000Y-119050000D02*
G01*
X78225000Y-119050000D01*
X78225000Y-117050000D01*
X78575000Y-117050000D01*
X78575000Y-119050000D01*
G37*
G36*
X79175000Y-119050000D02*
G01*
X78825000Y-119050000D01*
X78825000Y-117050000D01*
X79175000Y-117050000D01*
X79175000Y-119050000D01*
G37*
G36*
X79775000Y-119050000D02*
G01*
X79425000Y-119050000D01*
X79425000Y-117050000D01*
X79775000Y-117050000D01*
X79775000Y-119050000D01*
G37*
G36*
X88775000Y-119050000D02*
G01*
X88425000Y-119050000D01*
X88425000Y-117050000D01*
X88775000Y-117050000D01*
X88775000Y-119050000D01*
G37*
G36*
X80975000Y-119050000D02*
G01*
X80625000Y-119050000D01*
X80625000Y-117050000D01*
X80975000Y-117050000D01*
X80975000Y-119050000D01*
G37*
G36*
X81575000Y-119050000D02*
G01*
X81225000Y-119050000D01*
X81225000Y-117050000D01*
X81575000Y-117050000D01*
X81575000Y-119050000D01*
G37*
G36*
X82175000Y-119050000D02*
G01*
X81825000Y-119050000D01*
X81825000Y-117050000D01*
X82175000Y-117050000D01*
X82175000Y-119050000D01*
G37*
G36*
X82775000Y-119050000D02*
G01*
X82425000Y-119050000D01*
X82425000Y-117050000D01*
X82775000Y-117050000D01*
X82775000Y-119050000D01*
G37*
G36*
X83375000Y-119050000D02*
G01*
X83025000Y-119050000D01*
X83025000Y-117050000D01*
X83375000Y-117050000D01*
X83375000Y-119050000D01*
G37*
G36*
X134975000Y-119050000D02*
G01*
X134625000Y-119050000D01*
X134625000Y-117050000D01*
X134975000Y-117050000D01*
X134975000Y-119050000D01*
G37*
G36*
X67775000Y-119050000D02*
G01*
X67425000Y-119050000D01*
X67425000Y-117050000D01*
X67775000Y-117050000D01*
X67775000Y-119050000D01*
G37*
G36*
X68375000Y-119050000D02*
G01*
X68025000Y-119050000D01*
X68025000Y-117050000D01*
X68375000Y-117050000D01*
X68375000Y-119050000D01*
G37*
G36*
X100775000Y-119050000D02*
G01*
X100425000Y-119050000D01*
X100425000Y-117050000D01*
X100775000Y-117050000D01*
X100775000Y-119050000D01*
G37*
G36*
X69575000Y-119050000D02*
G01*
X69225000Y-119050000D01*
X69225000Y-117050000D01*
X69575000Y-117050000D01*
X69575000Y-119050000D01*
G37*
G36*
X70175000Y-119050000D02*
G01*
X69825000Y-119050000D01*
X69825000Y-117050000D01*
X70175000Y-117050000D01*
X70175000Y-119050000D01*
G37*
G36*
X70775000Y-119050000D02*
G01*
X70425000Y-119050000D01*
X70425000Y-117050000D01*
X70775000Y-117050000D01*
X70775000Y-119050000D01*
G37*
G36*
X71375000Y-119050000D02*
G01*
X71025000Y-119050000D01*
X71025000Y-117050000D01*
X71375000Y-117050000D01*
X71375000Y-119050000D01*
G37*
G36*
X71975000Y-119050000D02*
G01*
X71625000Y-119050000D01*
X71625000Y-117050000D01*
X71975000Y-117050000D01*
X71975000Y-119050000D01*
G37*
G36*
X72575000Y-119050000D02*
G01*
X72225000Y-119050000D01*
X72225000Y-117050000D01*
X72575000Y-117050000D01*
X72575000Y-119050000D01*
G37*
G36*
X136175000Y-119050000D02*
G01*
X135825000Y-119050000D01*
X135825000Y-117050000D01*
X136175000Y-117050000D01*
X136175000Y-119050000D01*
G37*
G36*
X136775000Y-119050000D02*
G01*
X136425000Y-119050000D01*
X136425000Y-117050000D01*
X136775000Y-117050000D01*
X136775000Y-119050000D01*
G37*
G36*
X137375000Y-119050000D02*
G01*
X137025000Y-119050000D01*
X137025000Y-117050000D01*
X137375000Y-117050000D01*
X137375000Y-119050000D01*
G37*
G36*
X137975000Y-119050000D02*
G01*
X137625000Y-119050000D01*
X137625000Y-117050000D01*
X137975000Y-117050000D01*
X137975000Y-119050000D01*
G37*
G36*
X133775000Y-119050000D02*
G01*
X133425000Y-119050000D01*
X133425000Y-117050000D01*
X133775000Y-117050000D01*
X133775000Y-119050000D01*
G37*
G36*
X134375000Y-119050000D02*
G01*
X134025000Y-119050000D01*
X134025000Y-117050000D01*
X134375000Y-117050000D01*
X134375000Y-119050000D01*
G37*
G36*
X97175000Y-119050000D02*
G01*
X96825000Y-119050000D01*
X96825000Y-117050000D01*
X97175000Y-117050000D01*
X97175000Y-119050000D01*
G37*
G36*
X135575000Y-119050000D02*
G01*
X135225000Y-119050000D01*
X135225000Y-117050000D01*
X135575000Y-117050000D01*
X135575000Y-119050000D01*
G37*
G36*
X89375000Y-119050000D02*
G01*
X89025000Y-119050000D01*
X89025000Y-117050000D01*
X89375000Y-117050000D01*
X89375000Y-119050000D01*
G37*
G36*
X89975000Y-119050000D02*
G01*
X89625000Y-119050000D01*
X89625000Y-117050000D01*
X89975000Y-117050000D01*
X89975000Y-119050000D01*
G37*
G36*
X90575000Y-119050000D02*
G01*
X90225000Y-119050000D01*
X90225000Y-117050000D01*
X90575000Y-117050000D01*
X90575000Y-119050000D01*
G37*
G36*
X91175000Y-119050000D02*
G01*
X90825000Y-119050000D01*
X90825000Y-117050000D01*
X91175000Y-117050000D01*
X91175000Y-119050000D01*
G37*
G36*
X91775000Y-119050000D02*
G01*
X91425000Y-119050000D01*
X91425000Y-117050000D01*
X91775000Y-117050000D01*
X91775000Y-119050000D01*
G37*
G36*
X92375000Y-119050000D02*
G01*
X92025000Y-119050000D01*
X92025000Y-117050000D01*
X92375000Y-117050000D01*
X92375000Y-119050000D01*
G37*
G36*
X92975000Y-119050000D02*
G01*
X92625000Y-119050000D01*
X92625000Y-117050000D01*
X92975000Y-117050000D01*
X92975000Y-119050000D01*
G37*
G36*
X93575000Y-119050000D02*
G01*
X93225000Y-119050000D01*
X93225000Y-117050000D01*
X93575000Y-117050000D01*
X93575000Y-119050000D01*
G37*
G36*
X94175000Y-119050000D02*
G01*
X93825000Y-119050000D01*
X93825000Y-117050000D01*
X94175000Y-117050000D01*
X94175000Y-119050000D01*
G37*
G36*
X94775000Y-119050000D02*
G01*
X94425000Y-119050000D01*
X94425000Y-117050000D01*
X94775000Y-117050000D01*
X94775000Y-119050000D01*
G37*
G36*
X95375000Y-119050000D02*
G01*
X95025000Y-119050000D01*
X95025000Y-117050000D01*
X95375000Y-117050000D01*
X95375000Y-119050000D01*
G37*
G36*
X95975000Y-119050000D02*
G01*
X95625000Y-119050000D01*
X95625000Y-117050000D01*
X95975000Y-117050000D01*
X95975000Y-119050000D01*
G37*
G36*
X107375000Y-119050000D02*
G01*
X107025000Y-119050000D01*
X107025000Y-117050000D01*
X107375000Y-117050000D01*
X107375000Y-119050000D01*
G37*
G36*
X109775000Y-119050000D02*
G01*
X109425000Y-119050000D01*
X109425000Y-117050000D01*
X109775000Y-117050000D01*
X109775000Y-119050000D01*
G37*
G36*
X66575000Y-119050000D02*
G01*
X66225000Y-119050000D01*
X66225000Y-117050000D01*
X66575000Y-117050000D01*
X66575000Y-119050000D01*
G37*
G36*
X67175000Y-119050000D02*
G01*
X66825000Y-119050000D01*
X66825000Y-117050000D01*
X67175000Y-117050000D01*
X67175000Y-119050000D01*
G37*
G36*
X131375000Y-119050000D02*
G01*
X131025000Y-119050000D01*
X131025000Y-117050000D01*
X131375000Y-117050000D01*
X131375000Y-119050000D01*
G37*
G36*
X116975000Y-119050000D02*
G01*
X116625000Y-119050000D01*
X116625000Y-117050000D01*
X116975000Y-117050000D01*
X116975000Y-119050000D01*
G37*
G36*
X116375000Y-119050000D02*
G01*
X116025000Y-119050000D01*
X116025000Y-117050000D01*
X116375000Y-117050000D01*
X116375000Y-119050000D01*
G37*
G36*
X115775000Y-119050000D02*
G01*
X115425000Y-119050000D01*
X115425000Y-117050000D01*
X115775000Y-117050000D01*
X115775000Y-119050000D01*
G37*
G36*
X115175000Y-119050000D02*
G01*
X114825000Y-119050000D01*
X114825000Y-117050000D01*
X115175000Y-117050000D01*
X115175000Y-119050000D01*
G37*
G36*
X114575000Y-119050000D02*
G01*
X114225000Y-119050000D01*
X114225000Y-117050000D01*
X114575000Y-117050000D01*
X114575000Y-119050000D01*
G37*
G36*
X113975000Y-119050000D02*
G01*
X113625000Y-119050000D01*
X113625000Y-117050000D01*
X113975000Y-117050000D01*
X113975000Y-119050000D01*
G37*
G36*
X113375000Y-119050000D02*
G01*
X113025000Y-119050000D01*
X113025000Y-117050000D01*
X113375000Y-117050000D01*
X113375000Y-119050000D01*
G37*
G36*
X107975000Y-119050000D02*
G01*
X107625000Y-119050000D01*
X107625000Y-117050000D01*
X107975000Y-117050000D01*
X107975000Y-119050000D01*
G37*
G36*
X112175000Y-119050000D02*
G01*
X111825000Y-119050000D01*
X111825000Y-117050000D01*
X112175000Y-117050000D01*
X112175000Y-119050000D01*
G37*
G36*
X111575000Y-119050000D02*
G01*
X111225000Y-119050000D01*
X111225000Y-117050000D01*
X111575000Y-117050000D01*
X111575000Y-119050000D01*
G37*
G36*
X110975000Y-119050000D02*
G01*
X110625000Y-119050000D01*
X110625000Y-117050000D01*
X110975000Y-117050000D01*
X110975000Y-119050000D01*
G37*
G36*
X110375000Y-119050000D02*
G01*
X110025000Y-119050000D01*
X110025000Y-117050000D01*
X110375000Y-117050000D01*
X110375000Y-119050000D01*
G37*
G36*
X119975000Y-119050000D02*
G01*
X119625000Y-119050000D01*
X119625000Y-117050000D01*
X119975000Y-117050000D01*
X119975000Y-119050000D01*
G37*
G36*
X109175000Y-119050000D02*
G01*
X108825000Y-119050000D01*
X108825000Y-117050000D01*
X109175000Y-117050000D01*
X109175000Y-119050000D01*
G37*
G36*
X108575000Y-119050000D02*
G01*
X108225000Y-119050000D01*
X108225000Y-117050000D01*
X108575000Y-117050000D01*
X108575000Y-119050000D01*
G37*
G36*
X100175000Y-119050000D02*
G01*
X99825000Y-119050000D01*
X99825000Y-117050000D01*
X100175000Y-117050000D01*
X100175000Y-119050000D01*
G37*
G36*
X112775000Y-119050000D02*
G01*
X112425000Y-119050000D01*
X112425000Y-117050000D01*
X112775000Y-117050000D01*
X112775000Y-119050000D01*
G37*
G36*
X120575000Y-119050000D02*
G01*
X120225000Y-119050000D01*
X120225000Y-117050000D01*
X120575000Y-117050000D01*
X120575000Y-119050000D01*
G37*
G36*
X121775000Y-119050000D02*
G01*
X121425000Y-119050000D01*
X121425000Y-117050000D01*
X121775000Y-117050000D01*
X121775000Y-119050000D01*
G37*
G36*
X117575000Y-119050000D02*
G01*
X117225000Y-119050000D01*
X117225000Y-117050000D01*
X117575000Y-117050000D01*
X117575000Y-119050000D01*
G37*
G36*
X119375000Y-119050000D02*
G01*
X119025000Y-119050000D01*
X119025000Y-117050000D01*
X119375000Y-117050000D01*
X119375000Y-119050000D01*
G37*
G36*
X118775000Y-119050000D02*
G01*
X118425000Y-119050000D01*
X118425000Y-117050000D01*
X118775000Y-117050000D01*
X118775000Y-119050000D01*
G37*
G36*
X118175000Y-119050000D02*
G01*
X117825000Y-119050000D01*
X117825000Y-117050000D01*
X118175000Y-117050000D01*
X118175000Y-119050000D01*
G37*
G36*
X122375000Y-119050000D02*
G01*
X122025000Y-119050000D01*
X122025000Y-117050000D01*
X122375000Y-117050000D01*
X122375000Y-119050000D01*
G37*
G36*
X121175000Y-119050000D02*
G01*
X120825000Y-119050000D01*
X120825000Y-117050000D01*
X121175000Y-117050000D01*
X121175000Y-119050000D01*
G37*
G36*
X122975000Y-119050000D02*
G01*
X122625000Y-119050000D01*
X122625000Y-117050000D01*
X122975000Y-117050000D01*
X122975000Y-119050000D01*
G37*
G36*
X84575000Y-119050000D02*
G01*
X84225000Y-119050000D01*
X84225000Y-117050000D01*
X84575000Y-117050000D01*
X84575000Y-119050000D01*
G37*
G36*
X65375000Y-119050000D02*
G01*
X65025000Y-119050000D01*
X65025000Y-117050000D01*
X65375000Y-117050000D01*
X65375000Y-119050000D01*
G37*
G36*
X85175000Y-119050000D02*
G01*
X84825000Y-119050000D01*
X84825000Y-117050000D01*
X85175000Y-117050000D01*
X85175000Y-119050000D01*
G37*
G36*
X85775000Y-119050000D02*
G01*
X85425000Y-119050000D01*
X85425000Y-117050000D01*
X85775000Y-117050000D01*
X85775000Y-119050000D01*
G37*
G36*
X86375000Y-119050000D02*
G01*
X86025000Y-119050000D01*
X86025000Y-117050000D01*
X86375000Y-117050000D01*
X86375000Y-119050000D01*
G37*
G36*
X86975000Y-119050000D02*
G01*
X86625000Y-119050000D01*
X86625000Y-117050000D01*
X86975000Y-117050000D01*
X86975000Y-119050000D01*
G37*
G36*
X87575000Y-119050000D02*
G01*
X87225000Y-119050000D01*
X87225000Y-117050000D01*
X87575000Y-117050000D01*
X87575000Y-119050000D01*
G37*
G36*
X88175000Y-119050000D02*
G01*
X87825000Y-119050000D01*
X87825000Y-117050000D01*
X88175000Y-117050000D01*
X88175000Y-119050000D01*
G37*
G36*
X80375000Y-119050000D02*
G01*
X80025000Y-119050000D01*
X80025000Y-117050000D01*
X80375000Y-117050000D01*
X80375000Y-119050000D01*
G37*
G36*
X124175000Y-119050000D02*
G01*
X123825000Y-119050000D01*
X123825000Y-117050000D01*
X124175000Y-117050000D01*
X124175000Y-119050000D01*
G37*
G36*
X124775000Y-119050000D02*
G01*
X124425000Y-119050000D01*
X124425000Y-117050000D01*
X124775000Y-117050000D01*
X124775000Y-119050000D01*
G37*
G36*
X125375000Y-119050000D02*
G01*
X125025000Y-119050000D01*
X125025000Y-117050000D01*
X125375000Y-117050000D01*
X125375000Y-119050000D01*
G37*
G36*
X125975000Y-119050000D02*
G01*
X125625000Y-119050000D01*
X125625000Y-117050000D01*
X125975000Y-117050000D01*
X125975000Y-119050000D01*
G37*
G36*
X126575000Y-119050000D02*
G01*
X126225000Y-119050000D01*
X126225000Y-117050000D01*
X126575000Y-117050000D01*
X126575000Y-119050000D01*
G37*
G36*
X127175000Y-119050000D02*
G01*
X126825000Y-119050000D01*
X126825000Y-117050000D01*
X127175000Y-117050000D01*
X127175000Y-119050000D01*
G37*
G36*
X127775000Y-119050000D02*
G01*
X127425000Y-119050000D01*
X127425000Y-117050000D01*
X127775000Y-117050000D01*
X127775000Y-119050000D01*
G37*
G36*
X128975000Y-119050000D02*
G01*
X128625000Y-119050000D01*
X128625000Y-117050000D01*
X128975000Y-117050000D01*
X128975000Y-119050000D01*
G37*
G36*
X65975000Y-119050000D02*
G01*
X65625000Y-119050000D01*
X65625000Y-117050000D01*
X65975000Y-117050000D01*
X65975000Y-119050000D01*
G37*
G36*
X64775000Y-119050000D02*
G01*
X64425000Y-119050000D01*
X64425000Y-117050000D01*
X64775000Y-117050000D01*
X64775000Y-119050000D01*
G37*
G36*
X64175000Y-119050000D02*
G01*
X63825000Y-119050000D01*
X63825000Y-117050000D01*
X64175000Y-117050000D01*
X64175000Y-119050000D01*
G37*
G36*
X63575000Y-119050000D02*
G01*
X63225000Y-119050000D01*
X63225000Y-117050000D01*
X63575000Y-117050000D01*
X63575000Y-119050000D01*
G37*
G36*
X62975000Y-119050000D02*
G01*
X62625000Y-119050000D01*
X62625000Y-117050000D01*
X62975000Y-117050000D01*
X62975000Y-119050000D01*
G37*
G36*
X62375000Y-119050000D02*
G01*
X62025000Y-119050000D01*
X62025000Y-117050000D01*
X62375000Y-117050000D01*
X62375000Y-119050000D01*
G37*
G36*
X133175000Y-119050000D02*
G01*
X132825000Y-119050000D01*
X132825000Y-117050000D01*
X133175000Y-117050000D01*
X133175000Y-119050000D01*
G37*
G36*
X131975000Y-119050000D02*
G01*
X131625000Y-119050000D01*
X131625000Y-117050000D01*
X131975000Y-117050000D01*
X131975000Y-119050000D01*
G37*
G36*
X128375000Y-119050000D02*
G01*
X128025000Y-119050000D01*
X128025000Y-117050000D01*
X128375000Y-117050000D01*
X128375000Y-119050000D01*
G37*
G36*
X129575000Y-119050000D02*
G01*
X129225000Y-119050000D01*
X129225000Y-117050000D01*
X129575000Y-117050000D01*
X129575000Y-119050000D01*
G37*
G36*
X130175000Y-119050000D02*
G01*
X129825000Y-119050000D01*
X129825000Y-117050000D01*
X130175000Y-117050000D01*
X130175000Y-119050000D01*
G37*
G36*
X123575000Y-119050000D02*
G01*
X123225000Y-119050000D01*
X123225000Y-117050000D01*
X123575000Y-117050000D01*
X123575000Y-119050000D01*
G37*
G36*
X132575000Y-119050000D02*
G01*
X132225000Y-119050000D01*
X132225000Y-117050000D01*
X132575000Y-117050000D01*
X132575000Y-119050000D01*
G37*
G36*
X130775000Y-119050000D02*
G01*
X130425000Y-119050000D01*
X130425000Y-117050000D01*
X130775000Y-117050000D01*
X130775000Y-119050000D01*
G37*
G36*
X101196889Y-106350939D02*
G01*
X101319731Y-106401822D01*
X101430287Y-106475693D01*
X101524307Y-106569713D01*
X101598178Y-106680269D01*
X101649061Y-106803111D01*
X101675000Y-106933517D01*
X101675000Y-107066483D01*
X101649061Y-107196889D01*
X101598178Y-107319731D01*
X101524307Y-107430287D01*
X101430287Y-107524307D01*
X101319731Y-107598178D01*
X101196889Y-107649061D01*
X101066483Y-107675000D01*
X100933517Y-107675000D01*
X100803111Y-107649061D01*
X100680269Y-107598178D01*
X100569713Y-107524307D01*
X100475693Y-107430287D01*
X100401822Y-107319731D01*
X100350939Y-107196889D01*
X100325000Y-107066483D01*
X100325000Y-106933517D01*
X100350939Y-106803111D01*
X100401822Y-106680269D01*
X100475693Y-106569713D01*
X100569713Y-106475693D01*
X100680269Y-106401822D01*
X100803111Y-106350939D01*
X100933517Y-106325000D01*
X101066483Y-106325000D01*
X101196889Y-106350939D01*
G37*
G36*
X99675000Y-107675000D02*
G01*
X98325000Y-107675000D01*
X98325000Y-106325000D01*
X99675000Y-106325000D01*
X99675000Y-107675000D01*
G37*
G36*
X66275000Y-105975000D02*
G01*
X64925000Y-105975000D01*
X64925000Y-104625000D01*
X66275000Y-104625000D01*
X66275000Y-105975000D01*
G37*
G36*
X67796889Y-104650939D02*
G01*
X67919731Y-104701822D01*
X68030287Y-104775693D01*
X68124307Y-104869713D01*
X68198178Y-104980269D01*
X68249061Y-105103111D01*
X68275000Y-105233517D01*
X68275000Y-105366483D01*
X68249061Y-105496889D01*
X68198178Y-105619731D01*
X68124307Y-105730287D01*
X68030287Y-105824307D01*
X67919731Y-105898178D01*
X67796889Y-105949061D01*
X67666483Y-105975000D01*
X67533517Y-105975000D01*
X67403111Y-105949061D01*
X67280269Y-105898178D01*
X67169713Y-105824307D01*
X67075693Y-105730287D01*
X67001822Y-105619731D01*
X66950939Y-105496889D01*
X66925000Y-105366483D01*
X66925000Y-105233517D01*
X66950939Y-105103111D01*
X67001822Y-104980269D01*
X67075693Y-104869713D01*
X67169713Y-104775693D01*
X67280269Y-104701822D01*
X67403111Y-104650939D01*
X67533517Y-104625000D01*
X67666483Y-104625000D01*
X67796889Y-104650939D01*
G37*
G36*
X101196889Y-104350939D02*
G01*
X101319731Y-104401822D01*
X101430287Y-104475693D01*
X101524307Y-104569713D01*
X101598178Y-104680269D01*
X101649061Y-104803111D01*
X101675000Y-104933517D01*
X101675000Y-105066483D01*
X101649061Y-105196889D01*
X101598178Y-105319731D01*
X101524307Y-105430287D01*
X101430287Y-105524307D01*
X101319731Y-105598178D01*
X101196889Y-105649061D01*
X101066483Y-105675000D01*
X100933517Y-105675000D01*
X100803111Y-105649061D01*
X100680269Y-105598178D01*
X100569713Y-105524307D01*
X100475693Y-105430287D01*
X100401822Y-105319731D01*
X100350939Y-105196889D01*
X100325000Y-105066483D01*
X100325000Y-104933517D01*
X100350939Y-104803111D01*
X100401822Y-104680269D01*
X100475693Y-104569713D01*
X100569713Y-104475693D01*
X100680269Y-104401822D01*
X100803111Y-104350939D01*
X100933517Y-104325000D01*
X101066483Y-104325000D01*
X101196889Y-104350939D01*
G37*
G36*
X99196889Y-104350939D02*
G01*
X99319731Y-104401822D01*
X99430287Y-104475693D01*
X99524307Y-104569713D01*
X99598178Y-104680269D01*
X99649061Y-104803111D01*
X99675000Y-104933517D01*
X99675000Y-105066483D01*
X99649061Y-105196889D01*
X99598178Y-105319731D01*
X99524307Y-105430287D01*
X99430287Y-105524307D01*
X99319731Y-105598178D01*
X99196889Y-105649061D01*
X99066483Y-105675000D01*
X98933517Y-105675000D01*
X98803111Y-105649061D01*
X98680269Y-105598178D01*
X98569713Y-105524307D01*
X98475693Y-105430287D01*
X98401822Y-105319731D01*
X98350939Y-105196889D01*
X98325000Y-105066483D01*
X98325000Y-104933517D01*
X98350939Y-104803111D01*
X98401822Y-104680269D01*
X98475693Y-104569713D01*
X98569713Y-104475693D01*
X98680269Y-104401822D01*
X98803111Y-104350939D01*
X98933517Y-104325000D01*
X99066483Y-104325000D01*
X99196889Y-104350939D01*
G37*
G36*
X65796889Y-102650939D02*
G01*
X65919731Y-102701822D01*
X66030287Y-102775693D01*
X66124307Y-102869713D01*
X66198178Y-102980269D01*
X66249061Y-103103111D01*
X66275000Y-103233517D01*
X66275000Y-103366483D01*
X66249061Y-103496889D01*
X66198178Y-103619731D01*
X66124307Y-103730287D01*
X66030287Y-103824307D01*
X65919731Y-103898178D01*
X65796889Y-103949061D01*
X65666483Y-103975000D01*
X65533517Y-103975000D01*
X65403111Y-103949061D01*
X65280269Y-103898178D01*
X65169713Y-103824307D01*
X65075693Y-103730287D01*
X65001822Y-103619731D01*
X64950939Y-103496889D01*
X64925000Y-103366483D01*
X64925000Y-103233517D01*
X64950939Y-103103111D01*
X65001822Y-102980269D01*
X65075693Y-102869713D01*
X65169713Y-102775693D01*
X65280269Y-102701822D01*
X65403111Y-102650939D01*
X65533517Y-102625000D01*
X65666483Y-102625000D01*
X65796889Y-102650939D01*
G37*
G36*
X67796889Y-102650939D02*
G01*
X67919731Y-102701822D01*
X68030287Y-102775693D01*
X68124307Y-102869713D01*
X68198178Y-102980269D01*
X68249061Y-103103111D01*
X68275000Y-103233517D01*
X68275000Y-103366483D01*
X68249061Y-103496889D01*
X68198178Y-103619731D01*
X68124307Y-103730287D01*
X68030287Y-103824307D01*
X67919731Y-103898178D01*
X67796889Y-103949061D01*
X67666483Y-103975000D01*
X67533517Y-103975000D01*
X67403111Y-103949061D01*
X67280269Y-103898178D01*
X67169713Y-103824307D01*
X67075693Y-103730287D01*
X67001822Y-103619731D01*
X66950939Y-103496889D01*
X66925000Y-103366483D01*
X66925000Y-103233517D01*
X66950939Y-103103111D01*
X67001822Y-102980269D01*
X67075693Y-102869713D01*
X67169713Y-102775693D01*
X67280269Y-102701822D01*
X67403111Y-102650939D01*
X67533517Y-102625000D01*
X67666483Y-102625000D01*
X67796889Y-102650939D01*
G37*
G36*
X56204000Y-103291500D02*
G01*
X55404000Y-103291500D01*
X55404000Y-102391500D01*
X56204000Y-102391500D01*
X56204000Y-103291500D01*
G37*
G36*
X53549616Y-102195095D02*
G01*
X53578811Y-102203952D01*
X53605723Y-102218337D01*
X53629308Y-102237692D01*
X53648663Y-102261277D01*
X53663048Y-102288189D01*
X53671905Y-102317384D01*
X53675500Y-102353890D01*
X53675500Y-102904110D01*
X53671905Y-102940616D01*
X53663048Y-102969811D01*
X53648663Y-102996723D01*
X53629308Y-103020308D01*
X53605723Y-103039663D01*
X53578811Y-103054048D01*
X53549616Y-103062905D01*
X53513110Y-103066500D01*
X52887890Y-103066500D01*
X52851384Y-103062905D01*
X52822189Y-103054048D01*
X52795277Y-103039663D01*
X52771692Y-103020308D01*
X52752337Y-102996723D01*
X52737952Y-102969811D01*
X52729095Y-102940616D01*
X52725500Y-102904110D01*
X52725500Y-102353890D01*
X52729095Y-102317384D01*
X52737952Y-102288189D01*
X52752337Y-102261277D01*
X52771692Y-102237692D01*
X52795277Y-102218337D01*
X52822189Y-102203952D01*
X52851384Y-102195095D01*
X52887890Y-102191500D01*
X53513110Y-102191500D01*
X53549616Y-102195095D01*
G37*
G36*
X71698000Y-102950000D02*
G01*
X70898000Y-102950000D01*
X70898000Y-102050000D01*
X71698000Y-102050000D01*
X71698000Y-102950000D01*
G37*
G36*
X82302500Y-102950000D02*
G01*
X81502500Y-102950000D01*
X81502500Y-102050000D01*
X82302500Y-102050000D01*
X82302500Y-102950000D01*
G37*
G36*
X85922000Y-102950000D02*
G01*
X85122000Y-102950000D01*
X85122000Y-102050000D01*
X85922000Y-102050000D01*
X85922000Y-102950000D01*
G37*
G36*
X53549616Y-100620095D02*
G01*
X53578811Y-100628952D01*
X53605723Y-100643337D01*
X53629308Y-100662692D01*
X53648663Y-100686277D01*
X53663048Y-100713189D01*
X53671905Y-100742384D01*
X53675500Y-100778890D01*
X53675500Y-101329110D01*
X53671905Y-101365616D01*
X53663048Y-101394811D01*
X53648663Y-101421723D01*
X53629308Y-101445308D01*
X53605723Y-101464663D01*
X53578811Y-101479048D01*
X53549616Y-101487905D01*
X53513110Y-101491500D01*
X52887890Y-101491500D01*
X52851384Y-101487905D01*
X52822189Y-101479048D01*
X52795277Y-101464663D01*
X52771692Y-101445308D01*
X52752337Y-101421723D01*
X52737952Y-101394811D01*
X52729095Y-101365616D01*
X52725500Y-101329110D01*
X52725500Y-100778890D01*
X52729095Y-100742384D01*
X52737952Y-100713189D01*
X52752337Y-100686277D01*
X52771692Y-100662692D01*
X52795277Y-100643337D01*
X52822189Y-100628952D01*
X52851384Y-100620095D01*
X52887890Y-100616500D01*
X53513110Y-100616500D01*
X53549616Y-100620095D01*
G37*
G36*
X57154000Y-101291500D02*
G01*
X56354000Y-101291500D01*
X56354000Y-100391500D01*
X57154000Y-100391500D01*
X57154000Y-101291500D01*
G37*
G36*
X55254000Y-101291500D02*
G01*
X54454000Y-101291500D01*
X54454000Y-100391500D01*
X55254000Y-100391500D01*
X55254000Y-101291500D01*
G37*
G36*
X84972000Y-100950000D02*
G01*
X84172000Y-100950000D01*
X84172000Y-100050000D01*
X84972000Y-100050000D01*
X84972000Y-100950000D01*
G37*
G36*
X86872000Y-100950000D02*
G01*
X86072000Y-100950000D01*
X86072000Y-100050000D01*
X86872000Y-100050000D01*
X86872000Y-100950000D01*
G37*
G36*
X81352500Y-100950000D02*
G01*
X80552500Y-100950000D01*
X80552500Y-100050000D01*
X81352500Y-100050000D01*
X81352500Y-100950000D01*
G37*
G36*
X70748000Y-100950000D02*
G01*
X69948000Y-100950000D01*
X69948000Y-100050000D01*
X70748000Y-100050000D01*
X70748000Y-100950000D01*
G37*
G36*
X83252500Y-100950000D02*
G01*
X82452500Y-100950000D01*
X82452500Y-100050000D01*
X83252500Y-100050000D01*
X83252500Y-100950000D01*
G37*
G36*
X72648000Y-100950000D02*
G01*
X71848000Y-100950000D01*
X71848000Y-100050000D01*
X72648000Y-100050000D01*
X72648000Y-100950000D01*
G37*
G36*
X125975000Y-100236141D02*
G01*
X120975000Y-100236141D01*
X120975000Y-96736141D01*
X125975000Y-96736141D01*
X125975000Y-100236141D01*
G37*
G36*
X79025000Y-100236141D02*
G01*
X74025000Y-100236141D01*
X74025000Y-96736141D01*
X79025000Y-96736141D01*
X79025000Y-100236141D01*
G37*
G36*
X56204000Y-99735500D02*
G01*
X55404000Y-99735500D01*
X55404000Y-98835500D01*
X56204000Y-98835500D01*
X56204000Y-99735500D01*
G37*
G36*
X100320857Y-97442272D02*
G01*
X100521043Y-97525192D01*
X100521045Y-97525193D01*
X100611738Y-97585792D01*
X100701208Y-97645574D01*
X100854426Y-97798792D01*
X100974808Y-97978957D01*
X101057728Y-98179143D01*
X101100000Y-98391658D01*
X101100000Y-98608342D01*
X101057728Y-98820857D01*
X100974808Y-99021043D01*
X100854426Y-99201208D01*
X100701208Y-99354426D01*
X100631792Y-99400808D01*
X100521045Y-99474807D01*
X100521044Y-99474808D01*
X100521043Y-99474808D01*
X100320857Y-99557728D01*
X100108342Y-99600000D01*
X99891658Y-99600000D01*
X99679143Y-99557728D01*
X99478957Y-99474808D01*
X99478956Y-99474808D01*
X99478955Y-99474807D01*
X99368208Y-99400808D01*
X99298792Y-99354426D01*
X99145574Y-99201208D01*
X99025192Y-99021043D01*
X98942272Y-98820857D01*
X98900000Y-98608342D01*
X98900000Y-98391658D01*
X98942272Y-98179143D01*
X99025192Y-97978957D01*
X99145574Y-97798792D01*
X99298792Y-97645574D01*
X99388262Y-97585792D01*
X99478955Y-97525193D01*
X99478957Y-97525192D01*
X99679143Y-97442272D01*
X99891658Y-97400000D01*
X100108342Y-97400000D01*
X100320857Y-97442272D01*
G37*
G36*
X53549616Y-98575595D02*
G01*
X53578811Y-98584452D01*
X53605723Y-98598837D01*
X53629308Y-98618192D01*
X53648663Y-98641777D01*
X53663048Y-98668689D01*
X53671905Y-98697884D01*
X53675500Y-98734390D01*
X53675500Y-99284610D01*
X53671905Y-99321116D01*
X53663048Y-99350311D01*
X53648663Y-99377223D01*
X53629308Y-99400808D01*
X53605723Y-99420163D01*
X53578811Y-99434548D01*
X53549616Y-99443405D01*
X53513110Y-99447000D01*
X52887890Y-99447000D01*
X52851384Y-99443405D01*
X52822189Y-99434548D01*
X52795277Y-99420163D01*
X52771692Y-99400808D01*
X52752337Y-99377223D01*
X52737952Y-99350311D01*
X52729095Y-99321116D01*
X52725500Y-99284610D01*
X52725500Y-98734390D01*
X52729095Y-98697884D01*
X52737952Y-98668689D01*
X52752337Y-98641777D01*
X52771692Y-98618192D01*
X52795277Y-98598837D01*
X52822189Y-98584452D01*
X52851384Y-98575595D01*
X52887890Y-98572000D01*
X53513110Y-98572000D01*
X53549616Y-98575595D01*
G37*
G36*
X138748127Y-96113042D02*
G01*
X138883365Y-96139942D01*
X139138149Y-96245477D01*
X139367448Y-96398690D01*
X139562451Y-96593693D01*
X139715664Y-96822992D01*
X139821199Y-97077776D01*
X139831992Y-97132038D01*
X139875000Y-97348252D01*
X139875000Y-97624030D01*
X139848099Y-97759268D01*
X139821199Y-97894506D01*
X139715664Y-98149290D01*
X139562451Y-98378589D01*
X139367448Y-98573592D01*
X139138149Y-98726805D01*
X139138148Y-98726806D01*
X139138147Y-98726806D01*
X139086801Y-98748074D01*
X138883365Y-98832340D01*
X138748127Y-98859240D01*
X138612889Y-98886141D01*
X138337111Y-98886141D01*
X138201874Y-98859241D01*
X138066635Y-98832340D01*
X137863199Y-98748074D01*
X137811853Y-98726806D01*
X137811852Y-98726806D01*
X137811851Y-98726805D01*
X137582552Y-98573592D01*
X137387549Y-98378589D01*
X137234336Y-98149290D01*
X137128801Y-97894506D01*
X137101900Y-97759267D01*
X137075000Y-97624030D01*
X137075000Y-97348252D01*
X137118008Y-97132038D01*
X137128801Y-97077776D01*
X137234336Y-96822992D01*
X137387549Y-96593693D01*
X137582552Y-96398690D01*
X137811851Y-96245477D01*
X138066635Y-96139942D01*
X138201873Y-96113042D01*
X138337111Y-96086141D01*
X138612889Y-96086141D01*
X138748127Y-96113042D01*
G37*
G36*
X61798127Y-96113042D02*
G01*
X61933365Y-96139942D01*
X62188149Y-96245477D01*
X62417448Y-96398690D01*
X62612451Y-96593693D01*
X62765664Y-96822992D01*
X62871199Y-97077776D01*
X62881992Y-97132038D01*
X62925000Y-97348252D01*
X62925000Y-97624030D01*
X62898100Y-97759267D01*
X62871199Y-97894506D01*
X62765664Y-98149290D01*
X62612451Y-98378589D01*
X62417448Y-98573592D01*
X62188149Y-98726805D01*
X62188148Y-98726806D01*
X62188147Y-98726806D01*
X62136801Y-98748074D01*
X61933365Y-98832340D01*
X61798127Y-98859240D01*
X61662889Y-98886141D01*
X61387111Y-98886141D01*
X61251874Y-98859241D01*
X61116635Y-98832340D01*
X60913199Y-98748074D01*
X60861853Y-98726806D01*
X60861852Y-98726806D01*
X60861851Y-98726805D01*
X60632552Y-98573592D01*
X60437549Y-98378589D01*
X60284336Y-98149290D01*
X60178801Y-97894506D01*
X60151900Y-97759267D01*
X60125000Y-97624030D01*
X60125000Y-97348252D01*
X60168008Y-97132038D01*
X60178801Y-97077776D01*
X60284336Y-96822992D01*
X60437549Y-96593693D01*
X60632552Y-96398690D01*
X60861851Y-96245477D01*
X61116635Y-96139942D01*
X61251873Y-96113042D01*
X61387111Y-96086141D01*
X61662889Y-96086141D01*
X61798127Y-96113042D01*
G37*
G36*
X53549616Y-97000595D02*
G01*
X53578811Y-97009452D01*
X53605723Y-97023837D01*
X53629308Y-97043192D01*
X53648663Y-97066777D01*
X53663048Y-97093689D01*
X53671905Y-97122884D01*
X53675500Y-97159390D01*
X53675500Y-97709610D01*
X53671905Y-97746116D01*
X53663048Y-97775311D01*
X53648663Y-97802223D01*
X53629308Y-97825808D01*
X53605723Y-97845163D01*
X53578811Y-97859548D01*
X53549616Y-97868405D01*
X53513110Y-97872000D01*
X52887890Y-97872000D01*
X52851384Y-97868405D01*
X52822189Y-97859548D01*
X52795277Y-97845163D01*
X52771692Y-97825808D01*
X52752337Y-97802223D01*
X52737952Y-97775311D01*
X52729095Y-97746116D01*
X52725500Y-97709610D01*
X52725500Y-97159390D01*
X52729095Y-97122884D01*
X52737952Y-97093689D01*
X52752337Y-97066777D01*
X52771692Y-97043192D01*
X52795277Y-97023837D01*
X52822189Y-97009452D01*
X52851384Y-97000595D01*
X52887890Y-96997000D01*
X53513110Y-96997000D01*
X53549616Y-97000595D01*
G37*
G36*
X55254000Y-97735500D02*
G01*
X54454000Y-97735500D01*
X54454000Y-96835500D01*
X55254000Y-96835500D01*
X55254000Y-97735500D01*
G37*
G36*
X57154000Y-97735500D02*
G01*
X56354000Y-97735500D01*
X56354000Y-96835500D01*
X57154000Y-96835500D01*
X57154000Y-97735500D01*
G37*
G36*
X67190116Y-96023395D02*
G01*
X67219311Y-96032252D01*
X67246223Y-96046637D01*
X67269808Y-96065992D01*
X67289163Y-96089577D01*
X67303548Y-96116489D01*
X67312405Y-96145684D01*
X67316000Y-96182190D01*
X67316000Y-96807410D01*
X67312405Y-96843916D01*
X67303548Y-96873111D01*
X67289163Y-96900023D01*
X67269808Y-96923608D01*
X67246223Y-96942963D01*
X67219311Y-96957348D01*
X67190116Y-96966205D01*
X67153610Y-96969800D01*
X66603390Y-96969800D01*
X66566884Y-96966205D01*
X66537689Y-96957348D01*
X66510777Y-96942963D01*
X66487192Y-96923608D01*
X66467837Y-96900023D01*
X66453452Y-96873111D01*
X66444595Y-96843916D01*
X66441000Y-96807410D01*
X66441000Y-96182190D01*
X66444595Y-96145684D01*
X66453452Y-96116489D01*
X66467837Y-96089577D01*
X66487192Y-96065992D01*
X66510777Y-96046637D01*
X66537689Y-96032252D01*
X66566884Y-96023395D01*
X66603390Y-96019800D01*
X67153610Y-96019800D01*
X67190116Y-96023395D01*
G37*
G36*
X65615116Y-96023395D02*
G01*
X65644311Y-96032252D01*
X65671223Y-96046637D01*
X65694808Y-96065992D01*
X65714163Y-96089577D01*
X65728548Y-96116489D01*
X65737405Y-96145684D01*
X65741000Y-96182190D01*
X65741000Y-96807410D01*
X65737405Y-96843916D01*
X65728548Y-96873111D01*
X65714163Y-96900023D01*
X65694808Y-96923608D01*
X65671223Y-96942963D01*
X65644311Y-96957348D01*
X65615116Y-96966205D01*
X65578610Y-96969800D01*
X65028390Y-96969800D01*
X64991884Y-96966205D01*
X64962689Y-96957348D01*
X64935777Y-96942963D01*
X64912192Y-96923608D01*
X64892837Y-96900023D01*
X64878452Y-96873111D01*
X64869595Y-96843916D01*
X64866000Y-96807410D01*
X64866000Y-96182190D01*
X64869595Y-96145684D01*
X64878452Y-96116489D01*
X64892837Y-96089577D01*
X64912192Y-96065992D01*
X64935777Y-96046637D01*
X64962689Y-96032252D01*
X64991884Y-96023395D01*
X65028390Y-96019800D01*
X65578610Y-96019800D01*
X65615116Y-96023395D01*
G37*
G36*
X56206500Y-96227000D02*
G01*
X55406500Y-96227000D01*
X55406500Y-95327000D01*
X56206500Y-95327000D01*
X56206500Y-96227000D01*
G37*
G36*
X53549616Y-95210095D02*
G01*
X53578811Y-95218952D01*
X53605723Y-95233337D01*
X53629308Y-95252692D01*
X53648663Y-95276277D01*
X53663048Y-95303189D01*
X53671905Y-95332384D01*
X53675500Y-95368890D01*
X53675500Y-95919110D01*
X53671905Y-95955616D01*
X53663048Y-95984811D01*
X53648663Y-96011723D01*
X53629308Y-96035308D01*
X53605723Y-96054663D01*
X53578811Y-96069048D01*
X53549616Y-96077905D01*
X53513110Y-96081500D01*
X52887890Y-96081500D01*
X52851384Y-96077905D01*
X52822189Y-96069048D01*
X52795277Y-96054663D01*
X52771692Y-96035308D01*
X52752337Y-96011723D01*
X52737952Y-95984811D01*
X52729095Y-95955616D01*
X52725500Y-95919110D01*
X52725500Y-95368890D01*
X52729095Y-95332384D01*
X52737952Y-95303189D01*
X52752337Y-95276277D01*
X52771692Y-95252692D01*
X52795277Y-95233337D01*
X52822189Y-95218952D01*
X52851384Y-95210095D01*
X52887890Y-95206500D01*
X53513110Y-95206500D01*
X53549616Y-95210095D01*
G37*
G36*
X67190116Y-94486695D02*
G01*
X67219311Y-94495552D01*
X67246223Y-94509937D01*
X67269808Y-94529292D01*
X67289163Y-94552877D01*
X67303548Y-94579789D01*
X67312405Y-94608984D01*
X67316000Y-94645490D01*
X67316000Y-95270710D01*
X67312405Y-95307216D01*
X67303548Y-95336411D01*
X67289163Y-95363323D01*
X67269808Y-95386908D01*
X67246223Y-95406263D01*
X67219311Y-95420648D01*
X67190116Y-95429505D01*
X67153610Y-95433100D01*
X66603390Y-95433100D01*
X66566884Y-95429505D01*
X66537689Y-95420648D01*
X66510777Y-95406263D01*
X66487192Y-95386908D01*
X66467837Y-95363323D01*
X66453452Y-95336411D01*
X66444595Y-95307216D01*
X66441000Y-95270710D01*
X66441000Y-94645490D01*
X66444595Y-94608984D01*
X66453452Y-94579789D01*
X66467837Y-94552877D01*
X66487192Y-94529292D01*
X66510777Y-94509937D01*
X66537689Y-94495552D01*
X66566884Y-94486695D01*
X66603390Y-94483100D01*
X67153610Y-94483100D01*
X67190116Y-94486695D01*
G37*
G36*
X65615116Y-94486695D02*
G01*
X65644311Y-94495552D01*
X65671223Y-94509937D01*
X65694808Y-94529292D01*
X65714163Y-94552877D01*
X65728548Y-94579789D01*
X65737405Y-94608984D01*
X65741000Y-94645490D01*
X65741000Y-95270710D01*
X65737405Y-95307216D01*
X65728548Y-95336411D01*
X65714163Y-95363323D01*
X65694808Y-95386908D01*
X65671223Y-95406263D01*
X65644311Y-95420648D01*
X65615116Y-95429505D01*
X65578610Y-95433100D01*
X65028390Y-95433100D01*
X64991884Y-95429505D01*
X64962689Y-95420648D01*
X64935777Y-95406263D01*
X64912192Y-95386908D01*
X64892837Y-95363323D01*
X64878452Y-95336411D01*
X64869595Y-95307216D01*
X64866000Y-95270710D01*
X64866000Y-94645490D01*
X64869595Y-94608984D01*
X64878452Y-94579789D01*
X64892837Y-94552877D01*
X64912192Y-94529292D01*
X64935777Y-94509937D01*
X64962689Y-94495552D01*
X64991884Y-94486695D01*
X65028390Y-94483100D01*
X65578610Y-94483100D01*
X65615116Y-94486695D01*
G37*
G36*
X53549616Y-93635095D02*
G01*
X53578811Y-93643952D01*
X53605723Y-93658337D01*
X53629308Y-93677692D01*
X53648663Y-93701277D01*
X53663048Y-93728189D01*
X53671905Y-93757384D01*
X53675500Y-93793890D01*
X53675500Y-94344110D01*
X53671905Y-94380616D01*
X53663048Y-94409811D01*
X53648663Y-94436723D01*
X53629308Y-94460308D01*
X53605723Y-94479663D01*
X53578811Y-94494048D01*
X53549616Y-94502905D01*
X53513110Y-94506500D01*
X52887890Y-94506500D01*
X52851384Y-94502905D01*
X52822189Y-94494048D01*
X52795277Y-94479663D01*
X52771692Y-94460308D01*
X52752337Y-94436723D01*
X52737952Y-94409811D01*
X52729095Y-94380616D01*
X52725500Y-94344110D01*
X52725500Y-93793890D01*
X52729095Y-93757384D01*
X52737952Y-93728189D01*
X52752337Y-93701277D01*
X52771692Y-93677692D01*
X52795277Y-93658337D01*
X52822189Y-93643952D01*
X52851384Y-93635095D01*
X52887890Y-93631500D01*
X53513110Y-93631500D01*
X53549616Y-93635095D01*
G37*
G36*
X57156500Y-94227000D02*
G01*
X56356500Y-94227000D01*
X56356500Y-93327000D01*
X57156500Y-93327000D01*
X57156500Y-94227000D01*
G37*
G36*
X55256500Y-94227000D02*
G01*
X54456500Y-94227000D01*
X54456500Y-93327000D01*
X55256500Y-93327000D01*
X55256500Y-94227000D01*
G37*
G36*
X65615116Y-92949995D02*
G01*
X65644311Y-92958852D01*
X65671223Y-92973237D01*
X65694808Y-92992592D01*
X65714163Y-93016177D01*
X65728548Y-93043089D01*
X65737405Y-93072284D01*
X65741000Y-93108790D01*
X65741000Y-93734010D01*
X65737405Y-93770516D01*
X65728548Y-93799711D01*
X65714163Y-93826623D01*
X65694808Y-93850208D01*
X65671223Y-93869563D01*
X65644311Y-93883948D01*
X65615116Y-93892805D01*
X65578610Y-93896400D01*
X65028390Y-93896400D01*
X64991884Y-93892805D01*
X64962689Y-93883948D01*
X64935777Y-93869563D01*
X64912192Y-93850208D01*
X64892837Y-93826623D01*
X64878452Y-93799711D01*
X64869595Y-93770516D01*
X64866000Y-93734010D01*
X64866000Y-93108790D01*
X64869595Y-93072284D01*
X64878452Y-93043089D01*
X64892837Y-93016177D01*
X64912192Y-92992592D01*
X64935777Y-92973237D01*
X64962689Y-92958852D01*
X64991884Y-92949995D01*
X65028390Y-92946400D01*
X65578610Y-92946400D01*
X65615116Y-92949995D01*
G37*
G36*
X67190116Y-92949995D02*
G01*
X67219311Y-92958852D01*
X67246223Y-92973237D01*
X67269808Y-92992592D01*
X67289163Y-93016177D01*
X67303548Y-93043089D01*
X67312405Y-93072284D01*
X67316000Y-93108790D01*
X67316000Y-93734010D01*
X67312405Y-93770516D01*
X67303548Y-93799711D01*
X67289163Y-93826623D01*
X67269808Y-93850208D01*
X67246223Y-93869563D01*
X67219311Y-93883948D01*
X67190116Y-93892805D01*
X67153610Y-93896400D01*
X66603390Y-93896400D01*
X66566884Y-93892805D01*
X66537689Y-93883948D01*
X66510777Y-93869563D01*
X66487192Y-93850208D01*
X66467837Y-93826623D01*
X66453452Y-93799711D01*
X66444595Y-93770516D01*
X66441000Y-93734010D01*
X66441000Y-93108790D01*
X66444595Y-93072284D01*
X66453452Y-93043089D01*
X66467837Y-93016177D01*
X66487192Y-92992592D01*
X66510777Y-92973237D01*
X66537689Y-92958852D01*
X66566884Y-92949995D01*
X66603390Y-92946400D01*
X67153610Y-92946400D01*
X67190116Y-92949995D01*
G37*
G36*
X138748127Y-91113042D02*
G01*
X138883365Y-91139942D01*
X139138149Y-91245477D01*
X139367448Y-91398690D01*
X139562451Y-91593693D01*
X139715664Y-91822992D01*
X139821199Y-92077776D01*
X139875000Y-92348253D01*
X139875000Y-92624029D01*
X139821199Y-92894506D01*
X139715664Y-93149290D01*
X139562451Y-93378589D01*
X139367448Y-93573592D01*
X139138149Y-93726805D01*
X139138148Y-93726806D01*
X139138147Y-93726806D01*
X139120755Y-93734010D01*
X138883365Y-93832340D01*
X138793536Y-93850208D01*
X138612889Y-93886141D01*
X138337111Y-93886141D01*
X138156464Y-93850208D01*
X138066635Y-93832340D01*
X137829245Y-93734010D01*
X137811853Y-93726806D01*
X137811852Y-93726806D01*
X137811851Y-93726805D01*
X137582552Y-93573592D01*
X137387549Y-93378589D01*
X137234336Y-93149290D01*
X137128801Y-92894506D01*
X137075000Y-92624029D01*
X137075000Y-92348253D01*
X137128801Y-92077776D01*
X137234336Y-91822992D01*
X137387549Y-91593693D01*
X137582552Y-91398690D01*
X137811851Y-91245477D01*
X138066635Y-91139942D01*
X138201874Y-91113041D01*
X138337111Y-91086141D01*
X138612889Y-91086141D01*
X138748127Y-91113042D01*
G37*
G36*
X61798127Y-91113042D02*
G01*
X61933365Y-91139942D01*
X62188149Y-91245477D01*
X62417448Y-91398690D01*
X62612451Y-91593693D01*
X62765664Y-91822992D01*
X62871199Y-92077776D01*
X62925000Y-92348253D01*
X62925000Y-92624029D01*
X62871199Y-92894506D01*
X62765664Y-93149290D01*
X62612451Y-93378589D01*
X62417448Y-93573592D01*
X62188149Y-93726805D01*
X62188148Y-93726806D01*
X62188147Y-93726806D01*
X62170755Y-93734010D01*
X61933365Y-93832340D01*
X61843536Y-93850208D01*
X61662889Y-93886141D01*
X61387111Y-93886141D01*
X61206464Y-93850208D01*
X61116635Y-93832340D01*
X60879245Y-93734010D01*
X60861853Y-93726806D01*
X60861852Y-93726806D01*
X60861851Y-93726805D01*
X60632552Y-93573592D01*
X60437549Y-93378589D01*
X60284336Y-93149290D01*
X60178801Y-92894506D01*
X60125000Y-92624029D01*
X60125000Y-92348253D01*
X60178801Y-92077776D01*
X60284336Y-91822992D01*
X60437549Y-91593693D01*
X60632552Y-91398690D01*
X60861851Y-91245477D01*
X61116635Y-91139942D01*
X61251873Y-91113042D01*
X61387111Y-91086141D01*
X61662889Y-91086141D01*
X61798127Y-91113042D01*
G37*
G36*
X79025000Y-93236141D02*
G01*
X74025000Y-93236141D01*
X74025000Y-89736141D01*
X79025000Y-89736141D01*
X79025000Y-93236141D01*
G37*
G36*
X125975000Y-93236141D02*
G01*
X120975000Y-93236141D01*
X120975000Y-89736141D01*
X125975000Y-89736141D01*
X125975000Y-93236141D01*
G37*
G36*
X68623000Y-91248000D02*
G01*
X67623000Y-91248000D01*
X67623000Y-89448000D01*
X68623000Y-89448000D01*
X68623000Y-91248000D01*
G37*
G36*
X66123000Y-91248000D02*
G01*
X65123000Y-91248000D01*
X65123000Y-89448000D01*
X66123000Y-89448000D01*
X66123000Y-91248000D01*
G37*
G36*
X70060116Y-89749595D02*
G01*
X70089311Y-89758452D01*
X70116223Y-89772837D01*
X70139808Y-89792192D01*
X70159163Y-89815777D01*
X70173548Y-89842689D01*
X70182405Y-89871884D01*
X70186000Y-89908390D01*
X70186000Y-90533610D01*
X70182405Y-90570116D01*
X70173548Y-90599311D01*
X70159163Y-90626223D01*
X70139808Y-90649808D01*
X70116223Y-90669163D01*
X70089311Y-90683548D01*
X70060116Y-90692405D01*
X70023610Y-90696000D01*
X69473390Y-90696000D01*
X69436884Y-90692405D01*
X69407689Y-90683548D01*
X69380777Y-90669163D01*
X69357192Y-90649808D01*
X69337837Y-90626223D01*
X69323452Y-90599311D01*
X69314595Y-90570116D01*
X69311000Y-90533610D01*
X69311000Y-89908390D01*
X69314595Y-89871884D01*
X69323452Y-89842689D01*
X69337837Y-89815777D01*
X69357192Y-89792192D01*
X69380777Y-89772837D01*
X69407689Y-89758452D01*
X69436884Y-89749595D01*
X69473390Y-89746000D01*
X70023610Y-89746000D01*
X70060116Y-89749595D01*
G37*
G36*
X71635116Y-89749595D02*
G01*
X71664311Y-89758452D01*
X71691223Y-89772837D01*
X71714808Y-89792192D01*
X71734163Y-89815777D01*
X71748548Y-89842689D01*
X71757405Y-89871884D01*
X71761000Y-89908390D01*
X71761000Y-90533610D01*
X71757405Y-90570116D01*
X71748548Y-90599311D01*
X71734163Y-90626223D01*
X71714808Y-90649808D01*
X71691223Y-90669163D01*
X71664311Y-90683548D01*
X71635116Y-90692405D01*
X71598610Y-90696000D01*
X71048390Y-90696000D01*
X71011884Y-90692405D01*
X70982689Y-90683548D01*
X70955777Y-90669163D01*
X70932192Y-90649808D01*
X70912837Y-90626223D01*
X70898452Y-90599311D01*
X70889595Y-90570116D01*
X70886000Y-90533610D01*
X70886000Y-89908390D01*
X70889595Y-89871884D01*
X70898452Y-89842689D01*
X70912837Y-89815777D01*
X70932192Y-89792192D01*
X70955777Y-89772837D01*
X70982689Y-89758452D01*
X71011884Y-89749595D01*
X71048390Y-89746000D01*
X71598610Y-89746000D01*
X71635116Y-89749595D01*
G37*
G36*
X66186116Y-88034595D02*
G01*
X66215311Y-88043452D01*
X66242223Y-88057837D01*
X66265808Y-88077192D01*
X66285163Y-88100777D01*
X66299548Y-88127689D01*
X66308405Y-88156884D01*
X66312000Y-88193390D01*
X66312000Y-88743610D01*
X66308405Y-88780116D01*
X66299548Y-88809311D01*
X66285163Y-88836223D01*
X66265808Y-88859808D01*
X66242223Y-88879163D01*
X66215311Y-88893548D01*
X66186116Y-88902405D01*
X66149610Y-88906000D01*
X65524390Y-88906000D01*
X65487884Y-88902405D01*
X65458689Y-88893548D01*
X65431777Y-88879163D01*
X65408192Y-88859808D01*
X65388837Y-88836223D01*
X65374452Y-88809311D01*
X65365595Y-88780116D01*
X65362000Y-88743610D01*
X65362000Y-88193390D01*
X65365595Y-88156884D01*
X65374452Y-88127689D01*
X65388837Y-88100777D01*
X65408192Y-88077192D01*
X65431777Y-88057837D01*
X65458689Y-88043452D01*
X65487884Y-88034595D01*
X65524390Y-88031000D01*
X66149610Y-88031000D01*
X66186116Y-88034595D01*
G37*
G36*
X67710116Y-88034595D02*
G01*
X67739311Y-88043452D01*
X67766223Y-88057837D01*
X67789808Y-88077192D01*
X67809163Y-88100777D01*
X67823548Y-88127689D01*
X67832405Y-88156884D01*
X67836000Y-88193390D01*
X67836000Y-88743610D01*
X67832405Y-88780116D01*
X67823548Y-88809311D01*
X67809163Y-88836223D01*
X67789808Y-88859808D01*
X67766223Y-88879163D01*
X67739311Y-88893548D01*
X67710116Y-88902405D01*
X67673610Y-88906000D01*
X67048390Y-88906000D01*
X67011884Y-88902405D01*
X66982689Y-88893548D01*
X66955777Y-88879163D01*
X66932192Y-88859808D01*
X66912837Y-88836223D01*
X66898452Y-88809311D01*
X66889595Y-88780116D01*
X66886000Y-88743610D01*
X66886000Y-88193390D01*
X66889595Y-88156884D01*
X66898452Y-88127689D01*
X66912837Y-88100777D01*
X66932192Y-88077192D01*
X66955777Y-88057837D01*
X66982689Y-88043452D01*
X67011884Y-88034595D01*
X67048390Y-88031000D01*
X67673610Y-88031000D01*
X67710116Y-88034595D01*
G37*
G36*
X72196449Y-87887551D02*
G01*
X72197000Y-87893141D01*
X72197000Y-88755859D01*
X72196449Y-88761449D01*
X72190859Y-88762000D01*
X71953141Y-88762000D01*
X71947551Y-88761449D01*
X71947000Y-88755859D01*
X71947000Y-87893141D01*
X71947551Y-87887551D01*
X71953141Y-87887000D01*
X72190859Y-87887000D01*
X72196449Y-87887551D01*
G37*
G36*
X70196449Y-87887551D02*
G01*
X70197000Y-87893141D01*
X70197000Y-88755859D01*
X70196449Y-88761449D01*
X70190859Y-88762000D01*
X69953141Y-88762000D01*
X69947551Y-88761449D01*
X69947000Y-88755859D01*
X69947000Y-87887000D01*
X70190859Y-87887000D01*
X70196449Y-87887551D01*
G37*
G36*
X70696449Y-87887551D02*
G01*
X70697000Y-87893141D01*
X70697000Y-88755859D01*
X70696449Y-88761449D01*
X70690859Y-88762000D01*
X70453141Y-88762000D01*
X70447551Y-88761449D01*
X70447000Y-88755859D01*
X70447000Y-87893141D01*
X70447551Y-87887551D01*
X70453141Y-87887000D01*
X70690859Y-87887000D01*
X70696449Y-87887551D01*
G37*
G36*
X71196449Y-87887551D02*
G01*
X71197000Y-87893141D01*
X71197000Y-88755859D01*
X71196449Y-88761449D01*
X71190859Y-88762000D01*
X70953141Y-88762000D01*
X70947551Y-88761449D01*
X70947000Y-88755859D01*
X70947000Y-87893141D01*
X70947551Y-87887551D01*
X70953141Y-87887000D01*
X71190859Y-87887000D01*
X71196449Y-87887551D01*
G37*
G36*
X71696449Y-87887551D02*
G01*
X71697000Y-87893141D01*
X71697000Y-88755859D01*
X71696449Y-88761449D01*
X71690859Y-88762000D01*
X71453141Y-88762000D01*
X71447551Y-88761449D01*
X71447000Y-88755859D01*
X71447000Y-87893141D01*
X71447551Y-87887551D01*
X71453141Y-87887000D01*
X71690859Y-87887000D01*
X71696449Y-87887551D01*
G37*
G36*
X72696449Y-87887551D02*
G01*
X72697000Y-87893141D01*
X72697000Y-88755859D01*
X72696449Y-88761449D01*
X72690859Y-88762000D01*
X72453141Y-88762000D01*
X72447551Y-88761449D01*
X72447000Y-88755859D01*
X72447000Y-87893141D01*
X72447551Y-87887551D01*
X72453141Y-87887000D01*
X72690859Y-87887000D01*
X72696449Y-87887551D01*
G37*
G36*
X73196449Y-87887551D02*
G01*
X73197000Y-87893141D01*
X73197000Y-88755859D01*
X73196449Y-88761449D01*
X73190859Y-88762000D01*
X72953141Y-88762000D01*
X72947551Y-88761449D01*
X72947000Y-88755859D01*
X72947000Y-87893141D01*
X72947551Y-87887551D01*
X72953141Y-87887000D01*
X73190859Y-87887000D01*
X73196449Y-87887551D01*
G37*
G36*
X74196449Y-87887551D02*
G01*
X74197000Y-87893141D01*
X74197000Y-88755859D01*
X74196449Y-88761449D01*
X74190859Y-88762000D01*
X73953141Y-88762000D01*
X73947551Y-88761449D01*
X73947000Y-88755859D01*
X73947000Y-87893141D01*
X73947551Y-87887551D01*
X73953141Y-87887000D01*
X74190859Y-87887000D01*
X74196449Y-87887551D01*
G37*
G36*
X74696449Y-87887551D02*
G01*
X74697000Y-87893141D01*
X74697000Y-88755859D01*
X74696449Y-88761449D01*
X74690859Y-88762000D01*
X74453141Y-88762000D01*
X74447551Y-88761449D01*
X74447000Y-88755859D01*
X74447000Y-87893141D01*
X74447551Y-87887551D01*
X74453141Y-87887000D01*
X74690859Y-87887000D01*
X74696449Y-87887551D01*
G37*
G36*
X75196449Y-87887551D02*
G01*
X75197000Y-87893141D01*
X75197000Y-88755859D01*
X75196449Y-88761449D01*
X75190859Y-88762000D01*
X74953141Y-88762000D01*
X74947551Y-88761449D01*
X74947000Y-88755859D01*
X74947000Y-87893141D01*
X74947551Y-87887551D01*
X74953141Y-87887000D01*
X75190859Y-87887000D01*
X75196449Y-87887551D01*
G37*
G36*
X75697000Y-88755859D02*
G01*
X75696449Y-88761449D01*
X75690859Y-88762000D01*
X75453141Y-88762000D01*
X75447551Y-88761449D01*
X75447000Y-88755859D01*
X75447000Y-87893141D01*
X75447551Y-87887551D01*
X75453141Y-87887000D01*
X75697000Y-87887000D01*
X75697000Y-88755859D01*
G37*
G36*
X73696449Y-87887551D02*
G01*
X73697000Y-87893141D01*
X73697000Y-88755859D01*
X73696449Y-88761449D01*
X73690859Y-88762000D01*
X73453141Y-88762000D01*
X73447551Y-88761449D01*
X73447000Y-88755859D01*
X73447000Y-87893141D01*
X73447551Y-87887551D01*
X73453141Y-87887000D01*
X73690859Y-87887000D01*
X73696449Y-87887551D01*
G37*
G36*
X80562516Y-87501295D02*
G01*
X80591711Y-87510152D01*
X80618623Y-87524537D01*
X80642208Y-87543892D01*
X80661563Y-87567477D01*
X80675948Y-87594389D01*
X80684805Y-87623584D01*
X80688400Y-87660090D01*
X80688400Y-88210310D01*
X80684805Y-88246816D01*
X80675948Y-88276011D01*
X80661563Y-88302923D01*
X80642208Y-88326508D01*
X80618623Y-88345863D01*
X80591711Y-88360248D01*
X80562516Y-88369105D01*
X80526010Y-88372700D01*
X79900790Y-88372700D01*
X79864284Y-88369105D01*
X79835089Y-88360248D01*
X79808177Y-88345863D01*
X79784592Y-88326508D01*
X79765237Y-88302923D01*
X79750852Y-88276011D01*
X79741995Y-88246816D01*
X79738400Y-88210310D01*
X79738400Y-87660090D01*
X79741995Y-87623584D01*
X79750852Y-87594389D01*
X79765237Y-87567477D01*
X79784592Y-87543892D01*
X79808177Y-87524537D01*
X79835089Y-87510152D01*
X79864284Y-87501295D01*
X79900790Y-87497700D01*
X80526010Y-87497700D01*
X80562516Y-87501295D01*
G37*
G36*
X79038516Y-87501195D02*
G01*
X79067711Y-87510052D01*
X79094623Y-87524437D01*
X79118208Y-87543792D01*
X79137563Y-87567377D01*
X79151948Y-87594289D01*
X79160805Y-87623484D01*
X79164400Y-87659990D01*
X79164400Y-88210210D01*
X79160805Y-88246716D01*
X79151948Y-88275911D01*
X79137563Y-88302823D01*
X79118208Y-88326408D01*
X79094623Y-88345763D01*
X79067711Y-88360148D01*
X79038516Y-88369005D01*
X79002010Y-88372600D01*
X78376790Y-88372600D01*
X78340284Y-88369005D01*
X78311089Y-88360148D01*
X78284177Y-88345763D01*
X78260592Y-88326408D01*
X78241237Y-88302823D01*
X78226852Y-88275911D01*
X78217995Y-88246716D01*
X78214400Y-88210210D01*
X78214400Y-87659990D01*
X78217995Y-87623484D01*
X78226852Y-87594289D01*
X78241237Y-87567377D01*
X78260592Y-87543792D01*
X78284177Y-87524437D01*
X78311089Y-87510052D01*
X78340284Y-87501195D01*
X78376790Y-87497600D01*
X79002010Y-87497600D01*
X79038516Y-87501195D01*
G37*
G36*
X85173116Y-87412795D02*
G01*
X85202311Y-87421652D01*
X85229223Y-87436037D01*
X85252808Y-87455392D01*
X85272163Y-87478977D01*
X85286548Y-87505889D01*
X85295405Y-87535084D01*
X85299000Y-87571590D01*
X85299000Y-88196810D01*
X85295405Y-88233316D01*
X85286548Y-88262511D01*
X85272163Y-88289423D01*
X85252808Y-88313008D01*
X85229223Y-88332363D01*
X85202311Y-88346748D01*
X85173116Y-88355605D01*
X85136610Y-88359200D01*
X84586390Y-88359200D01*
X84549884Y-88355605D01*
X84520689Y-88346748D01*
X84493777Y-88332363D01*
X84470192Y-88313008D01*
X84450837Y-88289423D01*
X84436452Y-88262511D01*
X84427595Y-88233316D01*
X84424000Y-88196810D01*
X84424000Y-87571590D01*
X84427595Y-87535084D01*
X84436452Y-87505889D01*
X84450837Y-87478977D01*
X84470192Y-87455392D01*
X84493777Y-87436037D01*
X84520689Y-87421652D01*
X84549884Y-87412795D01*
X84586390Y-87409200D01*
X85136610Y-87409200D01*
X85173116Y-87412795D01*
G37*
G36*
X83700116Y-87412795D02*
G01*
X83729311Y-87421652D01*
X83756223Y-87436037D01*
X83779808Y-87455392D01*
X83799163Y-87478977D01*
X83813548Y-87505889D01*
X83822405Y-87535084D01*
X83826000Y-87571590D01*
X83826000Y-88196810D01*
X83822405Y-88233316D01*
X83813548Y-88262511D01*
X83799163Y-88289423D01*
X83779808Y-88313008D01*
X83756223Y-88332363D01*
X83729311Y-88346748D01*
X83700116Y-88355605D01*
X83663610Y-88359200D01*
X83113390Y-88359200D01*
X83076884Y-88355605D01*
X83047689Y-88346748D01*
X83020777Y-88332363D01*
X82997192Y-88313008D01*
X82977837Y-88289423D01*
X82963452Y-88262511D01*
X82954595Y-88233316D01*
X82951000Y-88196810D01*
X82951000Y-87571590D01*
X82954595Y-87535084D01*
X82963452Y-87505889D01*
X82977837Y-87478977D01*
X82997192Y-87455392D01*
X83020777Y-87436037D01*
X83047689Y-87421652D01*
X83076884Y-87412795D01*
X83113390Y-87409200D01*
X83663610Y-87409200D01*
X83700116Y-87412795D01*
G37*
G36*
X82125116Y-87412795D02*
G01*
X82154311Y-87421652D01*
X82181223Y-87436037D01*
X82204808Y-87455392D01*
X82224163Y-87478977D01*
X82238548Y-87505889D01*
X82247405Y-87535084D01*
X82251000Y-87571590D01*
X82251000Y-88196810D01*
X82247405Y-88233316D01*
X82238548Y-88262511D01*
X82224163Y-88289423D01*
X82204808Y-88313008D01*
X82181223Y-88332363D01*
X82154311Y-88346748D01*
X82125116Y-88355605D01*
X82088610Y-88359200D01*
X81538390Y-88359200D01*
X81501884Y-88355605D01*
X81472689Y-88346748D01*
X81445777Y-88332363D01*
X81422192Y-88313008D01*
X81402837Y-88289423D01*
X81388452Y-88262511D01*
X81379595Y-88233316D01*
X81376000Y-88196810D01*
X81376000Y-87571590D01*
X81379595Y-87535084D01*
X81388452Y-87505889D01*
X81402837Y-87478977D01*
X81422192Y-87455392D01*
X81445777Y-87436037D01*
X81472689Y-87421652D01*
X81501884Y-87412795D01*
X81538390Y-87409200D01*
X82088610Y-87409200D01*
X82125116Y-87412795D01*
G37*
G36*
X86748116Y-87412795D02*
G01*
X86777311Y-87421652D01*
X86804223Y-87436037D01*
X86827808Y-87455392D01*
X86847163Y-87478977D01*
X86861548Y-87505889D01*
X86870405Y-87535084D01*
X86874000Y-87571590D01*
X86874000Y-88196810D01*
X86870405Y-88233316D01*
X86861548Y-88262511D01*
X86847163Y-88289423D01*
X86827808Y-88313008D01*
X86804223Y-88332363D01*
X86777311Y-88346748D01*
X86748116Y-88355605D01*
X86711610Y-88359200D01*
X86161390Y-88359200D01*
X86124884Y-88355605D01*
X86095689Y-88346748D01*
X86068777Y-88332363D01*
X86045192Y-88313008D01*
X86025837Y-88289423D01*
X86011452Y-88262511D01*
X86002595Y-88233316D01*
X85999000Y-88196810D01*
X85999000Y-87571590D01*
X86002595Y-87535084D01*
X86011452Y-87505889D01*
X86025837Y-87478977D01*
X86045192Y-87455392D01*
X86068777Y-87436037D01*
X86095689Y-87421652D01*
X86124884Y-87412795D01*
X86161390Y-87409200D01*
X86711610Y-87409200D01*
X86748116Y-87412795D01*
G37*
G36*
X76696449Y-87512551D02*
G01*
X76697000Y-87518141D01*
X76697000Y-87755859D01*
X76696449Y-87761449D01*
X76690859Y-87762000D01*
X75822000Y-87762000D01*
X75822000Y-87518141D01*
X75822551Y-87512551D01*
X75828141Y-87512000D01*
X76690859Y-87512000D01*
X76696449Y-87512551D01*
G37*
G36*
X69821449Y-87512551D02*
G01*
X69822000Y-87518141D01*
X69822000Y-87762000D01*
X68953141Y-87762000D01*
X68947551Y-87761449D01*
X68947000Y-87755859D01*
X68947000Y-87518141D01*
X68947551Y-87512551D01*
X68953141Y-87512000D01*
X69815859Y-87512000D01*
X69821449Y-87512551D01*
G37*
G36*
X75286496Y-82315228D02*
G01*
X75312112Y-82322999D01*
X75335718Y-82335616D01*
X75356406Y-82352594D01*
X75373384Y-82373282D01*
X75386001Y-82396888D01*
X75393772Y-82422504D01*
X75397000Y-82455278D01*
X75397000Y-87318722D01*
X75393772Y-87351496D01*
X75386001Y-87377112D01*
X75373384Y-87400718D01*
X75356406Y-87421406D01*
X75335718Y-87438384D01*
X75312112Y-87451001D01*
X75286496Y-87458772D01*
X75253722Y-87462000D01*
X70390278Y-87462000D01*
X70357504Y-87458772D01*
X70331888Y-87451001D01*
X70308282Y-87438384D01*
X70287594Y-87421406D01*
X70270616Y-87400718D01*
X70257999Y-87377112D01*
X70250228Y-87351496D01*
X70247000Y-87318722D01*
X70247000Y-82455278D01*
X70250228Y-82422504D01*
X70257999Y-82396888D01*
X70270616Y-82373282D01*
X70287594Y-82352594D01*
X70308282Y-82335616D01*
X70331888Y-82322999D01*
X70357504Y-82315228D01*
X70390278Y-82312000D01*
X75253722Y-82312000D01*
X75286496Y-82315228D01*
G37*
G36*
X67710116Y-86459595D02*
G01*
X67739311Y-86468452D01*
X67766223Y-86482837D01*
X67789808Y-86502192D01*
X67809163Y-86525777D01*
X67823548Y-86552689D01*
X67832405Y-86581884D01*
X67836000Y-86618390D01*
X67836000Y-87168610D01*
X67832405Y-87205116D01*
X67823548Y-87234311D01*
X67809163Y-87261223D01*
X67789808Y-87284808D01*
X67766223Y-87304163D01*
X67739311Y-87318548D01*
X67710116Y-87327405D01*
X67673610Y-87331000D01*
X67048390Y-87331000D01*
X67011884Y-87327405D01*
X66982689Y-87318548D01*
X66955777Y-87304163D01*
X66932192Y-87284808D01*
X66912837Y-87261223D01*
X66898452Y-87234311D01*
X66889595Y-87205116D01*
X66886000Y-87168610D01*
X66886000Y-86618390D01*
X66889595Y-86581884D01*
X66898452Y-86552689D01*
X66912837Y-86525777D01*
X66932192Y-86502192D01*
X66955777Y-86482837D01*
X66982689Y-86468452D01*
X67011884Y-86459595D01*
X67048390Y-86456000D01*
X67673610Y-86456000D01*
X67710116Y-86459595D01*
G37*
G36*
X66186116Y-86459595D02*
G01*
X66215311Y-86468452D01*
X66242223Y-86482837D01*
X66265808Y-86502192D01*
X66285163Y-86525777D01*
X66299548Y-86552689D01*
X66308405Y-86581884D01*
X66312000Y-86618390D01*
X66312000Y-87168610D01*
X66308405Y-87205116D01*
X66299548Y-87234311D01*
X66285163Y-87261223D01*
X66265808Y-87284808D01*
X66242223Y-87304163D01*
X66215311Y-87318548D01*
X66186116Y-87327405D01*
X66149610Y-87331000D01*
X65524390Y-87331000D01*
X65487884Y-87327405D01*
X65458689Y-87318548D01*
X65431777Y-87304163D01*
X65408192Y-87284808D01*
X65388837Y-87261223D01*
X65374452Y-87234311D01*
X65365595Y-87205116D01*
X65362000Y-87168610D01*
X65362000Y-86618390D01*
X65365595Y-86581884D01*
X65374452Y-86552689D01*
X65388837Y-86525777D01*
X65408192Y-86502192D01*
X65431777Y-86482837D01*
X65458689Y-86468452D01*
X65487884Y-86459595D01*
X65524390Y-86456000D01*
X66149610Y-86456000D01*
X66186116Y-86459595D01*
G37*
G36*
X69821449Y-87012551D02*
G01*
X69822000Y-87018141D01*
X69822000Y-87255859D01*
X69821449Y-87261449D01*
X69815859Y-87262000D01*
X68953141Y-87262000D01*
X68947551Y-87261449D01*
X68947000Y-87255859D01*
X68947000Y-87018141D01*
X68947551Y-87012551D01*
X68953141Y-87012000D01*
X69815859Y-87012000D01*
X69821449Y-87012551D01*
G37*
G36*
X76696449Y-87012551D02*
G01*
X76697000Y-87018141D01*
X76697000Y-87255859D01*
X76696449Y-87261449D01*
X76690859Y-87262000D01*
X75828141Y-87262000D01*
X75822551Y-87261449D01*
X75822000Y-87255859D01*
X75822000Y-87018141D01*
X75822551Y-87012551D01*
X75828141Y-87012000D01*
X76690859Y-87012000D01*
X76696449Y-87012551D01*
G37*
G36*
X80562516Y-85926295D02*
G01*
X80591711Y-85935152D01*
X80618623Y-85949537D01*
X80642208Y-85968892D01*
X80661563Y-85992477D01*
X80675948Y-86019389D01*
X80684805Y-86048584D01*
X80688400Y-86085090D01*
X80688400Y-86635310D01*
X80684805Y-86671816D01*
X80675948Y-86701011D01*
X80661563Y-86727923D01*
X80642208Y-86751508D01*
X80618623Y-86770863D01*
X80591711Y-86785248D01*
X80562516Y-86794105D01*
X80526010Y-86797700D01*
X79900790Y-86797700D01*
X79864284Y-86794105D01*
X79835089Y-86785248D01*
X79808177Y-86770863D01*
X79784592Y-86751508D01*
X79765237Y-86727923D01*
X79750852Y-86701011D01*
X79741995Y-86671816D01*
X79738400Y-86635310D01*
X79738400Y-86085090D01*
X79741995Y-86048584D01*
X79750852Y-86019389D01*
X79765237Y-85992477D01*
X79784592Y-85968892D01*
X79808177Y-85949537D01*
X79835089Y-85935152D01*
X79864284Y-85926295D01*
X79900790Y-85922700D01*
X80526010Y-85922700D01*
X80562516Y-85926295D01*
G37*
G36*
X79038516Y-85926195D02*
G01*
X79067711Y-85935052D01*
X79094623Y-85949437D01*
X79118208Y-85968792D01*
X79137563Y-85992377D01*
X79151948Y-86019289D01*
X79160805Y-86048484D01*
X79164400Y-86084990D01*
X79164400Y-86635210D01*
X79160805Y-86671716D01*
X79151948Y-86700911D01*
X79137563Y-86727823D01*
X79118208Y-86751408D01*
X79094623Y-86770763D01*
X79067711Y-86785148D01*
X79038516Y-86794005D01*
X79002010Y-86797600D01*
X78376790Y-86797600D01*
X78340284Y-86794005D01*
X78311089Y-86785148D01*
X78284177Y-86770763D01*
X78260592Y-86751408D01*
X78241237Y-86727823D01*
X78226852Y-86700911D01*
X78217995Y-86671716D01*
X78214400Y-86635210D01*
X78214400Y-86084990D01*
X78217995Y-86048484D01*
X78226852Y-86019289D01*
X78241237Y-85992377D01*
X78260592Y-85968792D01*
X78284177Y-85949437D01*
X78311089Y-85935052D01*
X78340284Y-85926195D01*
X78376790Y-85922600D01*
X79002010Y-85922600D01*
X79038516Y-85926195D01*
G37*
G36*
X115736570Y-86780570D02*
G01*
X114235430Y-86780570D01*
X114235430Y-85279430D01*
X115736570Y-85279430D01*
X115736570Y-86780570D01*
G37*
G36*
X76696449Y-86512551D02*
G01*
X76697000Y-86518141D01*
X76697000Y-86755859D01*
X76696449Y-86761449D01*
X76690859Y-86762000D01*
X75828141Y-86762000D01*
X75822551Y-86761449D01*
X75822000Y-86755859D01*
X75822000Y-86518141D01*
X75822551Y-86512551D01*
X75828141Y-86512000D01*
X76690859Y-86512000D01*
X76696449Y-86512551D01*
G37*
G36*
X69821449Y-86512551D02*
G01*
X69822000Y-86518141D01*
X69822000Y-86755859D01*
X69821449Y-86761449D01*
X69815859Y-86762000D01*
X68953141Y-86762000D01*
X68947551Y-86761449D01*
X68947000Y-86755859D01*
X68947000Y-86518141D01*
X68947551Y-86512551D01*
X68953141Y-86512000D01*
X69815859Y-86512000D01*
X69821449Y-86512551D01*
G37*
G36*
X84756000Y-86460000D02*
G01*
X82986000Y-86460000D01*
X82986000Y-85910000D01*
X84756000Y-85910000D01*
X84756000Y-86460000D01*
G37*
G36*
X87445916Y-85392995D02*
G01*
X87475111Y-85401852D01*
X87502023Y-85416237D01*
X87525608Y-85435592D01*
X87544963Y-85459177D01*
X87559348Y-85486089D01*
X87568205Y-85515284D01*
X87571800Y-85551790D01*
X87571800Y-86102010D01*
X87568205Y-86138516D01*
X87559348Y-86167711D01*
X87544963Y-86194623D01*
X87525608Y-86218208D01*
X87502023Y-86237563D01*
X87475111Y-86251948D01*
X87445916Y-86260805D01*
X87409410Y-86264400D01*
X86784190Y-86264400D01*
X86747684Y-86260805D01*
X86718489Y-86251948D01*
X86691577Y-86237563D01*
X86667992Y-86218208D01*
X86648637Y-86194623D01*
X86634252Y-86167711D01*
X86625395Y-86138516D01*
X86621800Y-86102010D01*
X86621800Y-85551790D01*
X86625395Y-85515284D01*
X86634252Y-85486089D01*
X86648637Y-85459177D01*
X86667992Y-85435592D01*
X86691577Y-85416237D01*
X86718489Y-85401852D01*
X86747684Y-85392995D01*
X86784190Y-85389400D01*
X87409410Y-85389400D01*
X87445916Y-85392995D01*
G37*
G36*
X76696449Y-86012551D02*
G01*
X76697000Y-86018141D01*
X76697000Y-86255859D01*
X76696449Y-86261449D01*
X76690859Y-86262000D01*
X75828141Y-86262000D01*
X75822551Y-86261449D01*
X75822000Y-86255859D01*
X75822000Y-86018141D01*
X75822551Y-86012551D01*
X75828141Y-86012000D01*
X76690859Y-86012000D01*
X76696449Y-86012551D01*
G37*
G36*
X69821449Y-86012551D02*
G01*
X69822000Y-86018141D01*
X69822000Y-86255859D01*
X69821449Y-86261449D01*
X69815859Y-86262000D01*
X68953141Y-86262000D01*
X68947551Y-86261449D01*
X68947000Y-86255859D01*
X68947000Y-86018141D01*
X68947551Y-86012551D01*
X68953141Y-86012000D01*
X69815859Y-86012000D01*
X69821449Y-86012551D01*
G37*
G36*
X67710116Y-85050095D02*
G01*
X67739311Y-85058952D01*
X67766223Y-85073337D01*
X67789808Y-85092692D01*
X67809163Y-85116277D01*
X67823548Y-85143189D01*
X67832405Y-85172384D01*
X67836000Y-85208890D01*
X67836000Y-85759110D01*
X67832405Y-85795616D01*
X67823548Y-85824811D01*
X67809163Y-85851723D01*
X67789808Y-85875308D01*
X67766223Y-85894663D01*
X67739311Y-85909048D01*
X67710116Y-85917905D01*
X67673610Y-85921500D01*
X67048390Y-85921500D01*
X67011884Y-85917905D01*
X66982689Y-85909048D01*
X66955777Y-85894663D01*
X66932192Y-85875308D01*
X66912837Y-85851723D01*
X66898452Y-85824811D01*
X66889595Y-85795616D01*
X66886000Y-85759110D01*
X66886000Y-85208890D01*
X66889595Y-85172384D01*
X66898452Y-85143189D01*
X66912837Y-85116277D01*
X66932192Y-85092692D01*
X66955777Y-85073337D01*
X66982689Y-85058952D01*
X67011884Y-85050095D01*
X67048390Y-85046500D01*
X67673610Y-85046500D01*
X67710116Y-85050095D01*
G37*
G36*
X69821449Y-85512551D02*
G01*
X69822000Y-85518141D01*
X69822000Y-85755859D01*
X69821449Y-85761449D01*
X69815859Y-85762000D01*
X68953141Y-85762000D01*
X68947551Y-85761449D01*
X68947000Y-85755859D01*
X68947000Y-85518141D01*
X68947551Y-85512551D01*
X68953141Y-85512000D01*
X69815859Y-85512000D01*
X69821449Y-85512551D01*
G37*
G36*
X76696449Y-85512551D02*
G01*
X76697000Y-85518141D01*
X76697000Y-85755859D01*
X76696449Y-85761449D01*
X76690859Y-85762000D01*
X75828141Y-85762000D01*
X75822551Y-85761449D01*
X75822000Y-85755859D01*
X75822000Y-85518141D01*
X75822551Y-85512551D01*
X75828141Y-85512000D01*
X76690859Y-85512000D01*
X76696449Y-85512551D01*
G37*
G36*
X84771000Y-85660000D02*
G01*
X82971000Y-85660000D01*
X82971000Y-83860000D01*
X84771000Y-83860000D01*
X84771000Y-85660000D01*
G37*
G36*
X85571000Y-85645000D02*
G01*
X85021000Y-85645000D01*
X85021000Y-83875000D01*
X85571000Y-83875000D01*
X85571000Y-85645000D01*
G37*
G36*
X82721000Y-85645000D02*
G01*
X82171000Y-85645000D01*
X82171000Y-84375000D01*
X82721000Y-84375000D01*
X82721000Y-85645000D01*
G37*
G36*
X76696449Y-85012551D02*
G01*
X76697000Y-85018141D01*
X76697000Y-85255859D01*
X76696449Y-85261449D01*
X76690859Y-85262000D01*
X75828141Y-85262000D01*
X75822551Y-85261449D01*
X75822000Y-85255859D01*
X75822000Y-85018141D01*
X75822551Y-85012551D01*
X75828141Y-85012000D01*
X76690859Y-85012000D01*
X76696449Y-85012551D01*
G37*
G36*
X69821449Y-85012551D02*
G01*
X69822000Y-85018141D01*
X69822000Y-85255859D01*
X69821449Y-85261449D01*
X69815859Y-85262000D01*
X68953141Y-85262000D01*
X68947551Y-85261449D01*
X68947000Y-85255859D01*
X68947000Y-85018141D01*
X68947551Y-85012551D01*
X68953141Y-85012000D01*
X69815859Y-85012000D01*
X69821449Y-85012551D01*
G37*
G36*
X79038516Y-84233595D02*
G01*
X79067711Y-84242452D01*
X79094623Y-84256837D01*
X79118208Y-84276192D01*
X79137563Y-84299777D01*
X79151948Y-84326689D01*
X79160805Y-84355884D01*
X79164400Y-84392390D01*
X79164400Y-84942610D01*
X79160805Y-84979116D01*
X79151948Y-85008311D01*
X79137563Y-85035223D01*
X79118208Y-85058808D01*
X79094623Y-85078163D01*
X79067711Y-85092548D01*
X79038516Y-85101405D01*
X79002010Y-85105000D01*
X78376790Y-85105000D01*
X78340284Y-85101405D01*
X78311089Y-85092548D01*
X78284177Y-85078163D01*
X78260592Y-85058808D01*
X78241237Y-85035223D01*
X78226852Y-85008311D01*
X78217995Y-84979116D01*
X78214400Y-84942610D01*
X78214400Y-84392390D01*
X78217995Y-84355884D01*
X78226852Y-84326689D01*
X78241237Y-84299777D01*
X78260592Y-84276192D01*
X78284177Y-84256837D01*
X78311089Y-84242452D01*
X78340284Y-84233595D01*
X78376790Y-84230000D01*
X79002010Y-84230000D01*
X79038516Y-84233595D01*
G37*
G36*
X80562516Y-84233595D02*
G01*
X80591711Y-84242452D01*
X80618623Y-84256837D01*
X80642208Y-84276192D01*
X80661563Y-84299777D01*
X80675948Y-84326689D01*
X80684805Y-84355884D01*
X80688400Y-84392390D01*
X80688400Y-84942610D01*
X80684805Y-84979116D01*
X80675948Y-85008311D01*
X80661563Y-85035223D01*
X80642208Y-85058808D01*
X80618623Y-85078163D01*
X80591711Y-85092548D01*
X80562516Y-85101405D01*
X80526010Y-85105000D01*
X79900790Y-85105000D01*
X79864284Y-85101405D01*
X79835089Y-85092548D01*
X79808177Y-85078163D01*
X79784592Y-85058808D01*
X79765237Y-85035223D01*
X79750852Y-85008311D01*
X79741995Y-84979116D01*
X79738400Y-84942610D01*
X79738400Y-84392390D01*
X79741995Y-84355884D01*
X79750852Y-84326689D01*
X79765237Y-84299777D01*
X79784592Y-84276192D01*
X79808177Y-84256837D01*
X79835089Y-84242452D01*
X79864284Y-84233595D01*
X79900790Y-84230000D01*
X80526010Y-84230000D01*
X80562516Y-84233595D01*
G37*
G36*
X69821449Y-84512551D02*
G01*
X69822000Y-84518141D01*
X69822000Y-84755859D01*
X69821449Y-84761449D01*
X69815859Y-84762000D01*
X68953141Y-84762000D01*
X68947551Y-84761449D01*
X68947000Y-84755859D01*
X68947000Y-84518141D01*
X68947551Y-84512551D01*
X68953141Y-84512000D01*
X69815859Y-84512000D01*
X69821449Y-84512551D01*
G37*
G36*
X76696449Y-84512551D02*
G01*
X76697000Y-84518141D01*
X76697000Y-84755859D01*
X76696449Y-84761449D01*
X76690859Y-84762000D01*
X75828141Y-84762000D01*
X75822551Y-84761449D01*
X75822000Y-84755859D01*
X75822000Y-84518141D01*
X75822551Y-84512551D01*
X75828141Y-84512000D01*
X76690859Y-84512000D01*
X76696449Y-84512551D01*
G37*
G36*
X87445916Y-83817995D02*
G01*
X87475111Y-83826852D01*
X87502023Y-83841237D01*
X87525608Y-83860592D01*
X87544963Y-83884177D01*
X87559348Y-83911089D01*
X87568205Y-83940284D01*
X87571800Y-83976790D01*
X87571800Y-84527010D01*
X87568205Y-84563516D01*
X87559348Y-84592711D01*
X87544963Y-84619623D01*
X87525608Y-84643208D01*
X87502023Y-84662563D01*
X87475111Y-84676948D01*
X87445916Y-84685805D01*
X87409410Y-84689400D01*
X86784190Y-84689400D01*
X86747684Y-84685805D01*
X86718489Y-84676948D01*
X86691577Y-84662563D01*
X86667992Y-84643208D01*
X86648637Y-84619623D01*
X86634252Y-84592711D01*
X86625395Y-84563516D01*
X86621800Y-84527010D01*
X86621800Y-83976790D01*
X86625395Y-83940284D01*
X86634252Y-83911089D01*
X86648637Y-83884177D01*
X86667992Y-83860592D01*
X86691577Y-83841237D01*
X86718489Y-83826852D01*
X86747684Y-83817995D01*
X86784190Y-83814400D01*
X87409410Y-83814400D01*
X87445916Y-83817995D01*
G37*
G36*
X67710116Y-83475095D02*
G01*
X67739311Y-83483952D01*
X67766223Y-83498337D01*
X67789808Y-83517692D01*
X67809163Y-83541277D01*
X67823548Y-83568189D01*
X67832405Y-83597384D01*
X67836000Y-83633890D01*
X67836000Y-84184110D01*
X67832405Y-84220616D01*
X67823548Y-84249811D01*
X67809163Y-84276723D01*
X67789808Y-84300308D01*
X67766223Y-84319663D01*
X67739311Y-84334048D01*
X67710116Y-84342905D01*
X67673610Y-84346500D01*
X67048390Y-84346500D01*
X67011884Y-84342905D01*
X66982689Y-84334048D01*
X66955777Y-84319663D01*
X66932192Y-84300308D01*
X66912837Y-84276723D01*
X66898452Y-84249811D01*
X66889595Y-84220616D01*
X66886000Y-84184110D01*
X66886000Y-83633890D01*
X66889595Y-83597384D01*
X66898452Y-83568189D01*
X66912837Y-83541277D01*
X66932192Y-83517692D01*
X66955777Y-83498337D01*
X66982689Y-83483952D01*
X67011884Y-83475095D01*
X67048390Y-83471500D01*
X67673610Y-83471500D01*
X67710116Y-83475095D01*
G37*
G36*
X69821449Y-84012551D02*
G01*
X69822000Y-84018141D01*
X69822000Y-84255859D01*
X69821449Y-84261449D01*
X69815859Y-84262000D01*
X68953141Y-84262000D01*
X68947551Y-84261449D01*
X68947000Y-84255859D01*
X68947000Y-84018141D01*
X68947551Y-84012551D01*
X68953141Y-84012000D01*
X69815859Y-84012000D01*
X69821449Y-84012551D01*
G37*
G36*
X76696449Y-84012551D02*
G01*
X76697000Y-84018141D01*
X76697000Y-84255859D01*
X76696449Y-84261449D01*
X76690859Y-84262000D01*
X75828141Y-84262000D01*
X75822551Y-84261449D01*
X75822000Y-84255859D01*
X75822000Y-84018141D01*
X75822551Y-84012551D01*
X75828141Y-84012000D01*
X76690859Y-84012000D01*
X76696449Y-84012551D01*
G37*
G36*
X115736570Y-84240570D02*
G01*
X114235430Y-84240570D01*
X114235430Y-82739430D01*
X115736570Y-82739430D01*
X115736570Y-84240570D01*
G37*
G36*
X82721000Y-84095000D02*
G01*
X82171000Y-84095000D01*
X82171000Y-83825000D01*
X82721000Y-83825000D01*
X82721000Y-84095000D01*
G37*
G36*
X76696449Y-83512551D02*
G01*
X76697000Y-83518141D01*
X76697000Y-83755859D01*
X76696449Y-83761449D01*
X76690859Y-83762000D01*
X75828141Y-83762000D01*
X75822551Y-83761449D01*
X75822000Y-83755859D01*
X75822000Y-83518141D01*
X75822551Y-83512551D01*
X75828141Y-83512000D01*
X76690859Y-83512000D01*
X76696449Y-83512551D01*
G37*
G36*
X69821449Y-83512551D02*
G01*
X69822000Y-83518141D01*
X69822000Y-83755859D01*
X69821449Y-83761449D01*
X69815859Y-83762000D01*
X68953141Y-83762000D01*
X68947551Y-83761449D01*
X68947000Y-83755859D01*
X68947000Y-83518141D01*
X68947551Y-83512551D01*
X68953141Y-83512000D01*
X69815859Y-83512000D01*
X69821449Y-83512551D01*
G37*
G36*
X84756000Y-83610000D02*
G01*
X82986000Y-83610000D01*
X82986000Y-83060000D01*
X84756000Y-83060000D01*
X84756000Y-83610000D01*
G37*
G36*
X79038516Y-82658595D02*
G01*
X79067711Y-82667452D01*
X79094623Y-82681837D01*
X79118208Y-82701192D01*
X79137563Y-82724777D01*
X79151948Y-82751689D01*
X79160805Y-82780884D01*
X79164400Y-82817390D01*
X79164400Y-83367610D01*
X79160805Y-83404116D01*
X79151948Y-83433311D01*
X79137563Y-83460223D01*
X79118208Y-83483808D01*
X79094623Y-83503163D01*
X79067711Y-83517548D01*
X79038516Y-83526405D01*
X79002010Y-83530000D01*
X78376790Y-83530000D01*
X78340284Y-83526405D01*
X78311089Y-83517548D01*
X78284177Y-83503163D01*
X78260592Y-83483808D01*
X78241237Y-83460223D01*
X78226852Y-83433311D01*
X78217995Y-83404116D01*
X78214400Y-83367610D01*
X78214400Y-82817390D01*
X78217995Y-82780884D01*
X78226852Y-82751689D01*
X78241237Y-82724777D01*
X78260592Y-82701192D01*
X78284177Y-82681837D01*
X78311089Y-82667452D01*
X78340284Y-82658595D01*
X78376790Y-82655000D01*
X79002010Y-82655000D01*
X79038516Y-82658595D01*
G37*
G36*
X80562516Y-82658595D02*
G01*
X80591711Y-82667452D01*
X80618623Y-82681837D01*
X80642208Y-82701192D01*
X80661563Y-82724777D01*
X80675948Y-82751689D01*
X80684805Y-82780884D01*
X80688400Y-82817390D01*
X80688400Y-83367610D01*
X80684805Y-83404116D01*
X80675948Y-83433311D01*
X80661563Y-83460223D01*
X80642208Y-83483808D01*
X80618623Y-83503163D01*
X80591711Y-83517548D01*
X80562516Y-83526405D01*
X80526010Y-83530000D01*
X79900790Y-83530000D01*
X79864284Y-83526405D01*
X79835089Y-83517548D01*
X79808177Y-83503163D01*
X79784592Y-83483808D01*
X79765237Y-83460223D01*
X79750852Y-83433311D01*
X79741995Y-83404116D01*
X79738400Y-83367610D01*
X79738400Y-82817390D01*
X79741995Y-82780884D01*
X79750852Y-82751689D01*
X79765237Y-82724777D01*
X79784592Y-82701192D01*
X79808177Y-82681837D01*
X79835089Y-82667452D01*
X79864284Y-82658595D01*
X79900790Y-82655000D01*
X80526010Y-82655000D01*
X80562516Y-82658595D01*
G37*
G36*
X69821449Y-83012551D02*
G01*
X69822000Y-83018141D01*
X69822000Y-83255859D01*
X69821449Y-83261449D01*
X69815859Y-83262000D01*
X68953141Y-83262000D01*
X68947551Y-83261449D01*
X68947000Y-83255859D01*
X68947000Y-83018141D01*
X68947551Y-83012551D01*
X68953141Y-83012000D01*
X69815859Y-83012000D01*
X69821449Y-83012551D01*
G37*
G36*
X76696449Y-83012551D02*
G01*
X76697000Y-83018141D01*
X76697000Y-83255859D01*
X76696449Y-83261449D01*
X76690859Y-83262000D01*
X75828141Y-83262000D01*
X75822551Y-83261449D01*
X75822000Y-83255859D01*
X75822000Y-83018141D01*
X75822551Y-83012551D01*
X75828141Y-83012000D01*
X76690859Y-83012000D01*
X76696449Y-83012551D01*
G37*
G36*
X87445916Y-82344995D02*
G01*
X87475111Y-82353852D01*
X87502023Y-82368237D01*
X87525608Y-82387592D01*
X87544963Y-82411177D01*
X87559348Y-82438089D01*
X87568205Y-82467284D01*
X87571800Y-82503790D01*
X87571800Y-83054010D01*
X87568205Y-83090516D01*
X87559348Y-83119711D01*
X87544963Y-83146623D01*
X87525608Y-83170208D01*
X87502023Y-83189563D01*
X87475111Y-83203948D01*
X87445916Y-83212805D01*
X87409410Y-83216400D01*
X86784190Y-83216400D01*
X86747684Y-83212805D01*
X86718489Y-83203948D01*
X86691577Y-83189563D01*
X86667992Y-83170208D01*
X86648637Y-83146623D01*
X86634252Y-83119711D01*
X86625395Y-83090516D01*
X86621800Y-83054010D01*
X86621800Y-82503790D01*
X86625395Y-82467284D01*
X86634252Y-82438089D01*
X86648637Y-82411177D01*
X86667992Y-82387592D01*
X86691577Y-82368237D01*
X86718489Y-82353852D01*
X86747684Y-82344995D01*
X86784190Y-82341400D01*
X87409410Y-82341400D01*
X87445916Y-82344995D01*
G37*
G36*
X76696449Y-82512551D02*
G01*
X76697000Y-82518141D01*
X76697000Y-82755859D01*
X76696449Y-82761449D01*
X76690859Y-82762000D01*
X75828141Y-82762000D01*
X75822551Y-82761449D01*
X75822000Y-82755859D01*
X75822000Y-82518141D01*
X75822551Y-82512551D01*
X75828141Y-82512000D01*
X76690859Y-82512000D01*
X76696449Y-82512551D01*
G37*
G36*
X69821449Y-82512551D02*
G01*
X69822000Y-82518141D01*
X69822000Y-82755859D01*
X69821449Y-82761449D01*
X69815859Y-82762000D01*
X68953141Y-82762000D01*
X68947551Y-82761449D01*
X68947000Y-82755859D01*
X68947000Y-82518141D01*
X68947551Y-82512551D01*
X68953141Y-82512000D01*
X69815859Y-82512000D01*
X69821449Y-82512551D01*
G37*
G36*
X76696449Y-82012551D02*
G01*
X76697000Y-82018141D01*
X76697000Y-82255859D01*
X76696449Y-82261449D01*
X76690859Y-82262000D01*
X75828141Y-82262000D01*
X75822551Y-82261449D01*
X75822000Y-82255859D01*
X75822000Y-82012000D01*
X76690859Y-82012000D01*
X76696449Y-82012551D01*
G37*
G36*
X69822000Y-82255859D02*
G01*
X69821449Y-82261449D01*
X69815859Y-82262000D01*
X68953141Y-82262000D01*
X68947551Y-82261449D01*
X68947000Y-82255859D01*
X68947000Y-82018141D01*
X68947551Y-82012551D01*
X68953141Y-82012000D01*
X69822000Y-82012000D01*
X69822000Y-82255859D01*
G37*
G36*
X72196449Y-81012551D02*
G01*
X72197000Y-81018141D01*
X72197000Y-81880859D01*
X72196449Y-81886449D01*
X72190859Y-81887000D01*
X71953141Y-81887000D01*
X71947551Y-81886449D01*
X71947000Y-81880859D01*
X71947000Y-81018141D01*
X71947551Y-81012551D01*
X71953141Y-81012000D01*
X72190859Y-81012000D01*
X72196449Y-81012551D01*
G37*
G36*
X73196449Y-81012551D02*
G01*
X73197000Y-81018141D01*
X73197000Y-81880859D01*
X73196449Y-81886449D01*
X73190859Y-81887000D01*
X72953141Y-81887000D01*
X72947551Y-81886449D01*
X72947000Y-81880859D01*
X72947000Y-81018141D01*
X72947551Y-81012551D01*
X72953141Y-81012000D01*
X73190859Y-81012000D01*
X73196449Y-81012551D01*
G37*
G36*
X71196449Y-81012551D02*
G01*
X71197000Y-81018141D01*
X71197000Y-81880859D01*
X71196449Y-81886449D01*
X71190859Y-81887000D01*
X70953141Y-81887000D01*
X70947551Y-81886449D01*
X70947000Y-81880859D01*
X70947000Y-81018141D01*
X70947551Y-81012551D01*
X70953141Y-81012000D01*
X71190859Y-81012000D01*
X71196449Y-81012551D01*
G37*
G36*
X70696449Y-81012551D02*
G01*
X70697000Y-81018141D01*
X70697000Y-81880859D01*
X70696449Y-81886449D01*
X70690859Y-81887000D01*
X70453141Y-81887000D01*
X70447551Y-81886449D01*
X70447000Y-81880859D01*
X70447000Y-81018141D01*
X70447551Y-81012551D01*
X70453141Y-81012000D01*
X70690859Y-81012000D01*
X70696449Y-81012551D01*
G37*
G36*
X70196449Y-81012551D02*
G01*
X70197000Y-81018141D01*
X70197000Y-81880859D01*
X70196449Y-81886449D01*
X70190859Y-81887000D01*
X69947000Y-81887000D01*
X69947000Y-81018141D01*
X69947551Y-81012551D01*
X69953141Y-81012000D01*
X70190859Y-81012000D01*
X70196449Y-81012551D01*
G37*
G36*
X75196449Y-81012551D02*
G01*
X75197000Y-81018141D01*
X75197000Y-81880859D01*
X75196449Y-81886449D01*
X75190859Y-81887000D01*
X74953141Y-81887000D01*
X74947551Y-81886449D01*
X74947000Y-81880859D01*
X74947000Y-81018141D01*
X74947551Y-81012551D01*
X74953141Y-81012000D01*
X75190859Y-81012000D01*
X75196449Y-81012551D01*
G37*
G36*
X74696449Y-81012551D02*
G01*
X74697000Y-81018141D01*
X74697000Y-81880859D01*
X74696449Y-81886449D01*
X74690859Y-81887000D01*
X74453141Y-81887000D01*
X74447551Y-81886449D01*
X74447000Y-81880859D01*
X74447000Y-81018141D01*
X74447551Y-81012551D01*
X74453141Y-81012000D01*
X74690859Y-81012000D01*
X74696449Y-81012551D01*
G37*
G36*
X74196449Y-81012551D02*
G01*
X74197000Y-81018141D01*
X74197000Y-81880859D01*
X74196449Y-81886449D01*
X74190859Y-81887000D01*
X73953141Y-81887000D01*
X73947551Y-81886449D01*
X73947000Y-81880859D01*
X73947000Y-81018141D01*
X73947551Y-81012551D01*
X73953141Y-81012000D01*
X74190859Y-81012000D01*
X74196449Y-81012551D01*
G37*
G36*
X73696449Y-81012551D02*
G01*
X73697000Y-81018141D01*
X73697000Y-81880859D01*
X73696449Y-81886449D01*
X73690859Y-81887000D01*
X73453141Y-81887000D01*
X73447551Y-81886449D01*
X73447000Y-81880859D01*
X73447000Y-81018141D01*
X73447551Y-81012551D01*
X73453141Y-81012000D01*
X73690859Y-81012000D01*
X73696449Y-81012551D01*
G37*
G36*
X72696449Y-81012551D02*
G01*
X72697000Y-81018141D01*
X72697000Y-81880859D01*
X72696449Y-81886449D01*
X72690859Y-81887000D01*
X72453141Y-81887000D01*
X72447551Y-81886449D01*
X72447000Y-81880859D01*
X72447000Y-81018141D01*
X72447551Y-81012551D01*
X72453141Y-81012000D01*
X72690859Y-81012000D01*
X72696449Y-81012551D01*
G37*
G36*
X71696449Y-81012551D02*
G01*
X71697000Y-81018141D01*
X71697000Y-81880859D01*
X71696449Y-81886449D01*
X71690859Y-81887000D01*
X71453141Y-81887000D01*
X71447551Y-81886449D01*
X71447000Y-81880859D01*
X71447000Y-81018141D01*
X71447551Y-81012551D01*
X71453141Y-81012000D01*
X71690859Y-81012000D01*
X71696449Y-81012551D01*
G37*
G36*
X75696449Y-81012551D02*
G01*
X75697000Y-81018141D01*
X75697000Y-81887000D01*
X75453141Y-81887000D01*
X75447551Y-81886449D01*
X75447000Y-81880859D01*
X75447000Y-81018141D01*
X75447551Y-81012551D01*
X75453141Y-81012000D01*
X75690859Y-81012000D01*
X75696449Y-81012551D01*
G37*
G36*
X82709516Y-80757995D02*
G01*
X82738711Y-80766852D01*
X82765623Y-80781237D01*
X82789208Y-80800592D01*
X82808563Y-80824177D01*
X82822948Y-80851089D01*
X82831805Y-80880284D01*
X82835400Y-80916790D01*
X82835400Y-81542010D01*
X82831805Y-81578516D01*
X82822948Y-81607711D01*
X82808563Y-81634623D01*
X82789208Y-81658208D01*
X82765623Y-81677563D01*
X82738711Y-81691948D01*
X82709516Y-81700805D01*
X82673010Y-81704400D01*
X82122790Y-81704400D01*
X82086284Y-81700805D01*
X82057089Y-81691948D01*
X82030177Y-81677563D01*
X82006592Y-81658208D01*
X81987237Y-81634623D01*
X81972852Y-81607711D01*
X81963995Y-81578516D01*
X81960400Y-81542010D01*
X81960400Y-80916790D01*
X81963995Y-80880284D01*
X81972852Y-80851089D01*
X81987237Y-80824177D01*
X82006592Y-80800592D01*
X82030177Y-80781237D01*
X82057089Y-80766852D01*
X82086284Y-80757995D01*
X82122790Y-80754400D01*
X82673010Y-80754400D01*
X82709516Y-80757995D01*
G37*
G36*
X85833716Y-80757995D02*
G01*
X85862911Y-80766852D01*
X85889823Y-80781237D01*
X85913408Y-80800592D01*
X85932763Y-80824177D01*
X85947148Y-80851089D01*
X85956005Y-80880284D01*
X85959600Y-80916790D01*
X85959600Y-81542010D01*
X85956005Y-81578516D01*
X85947148Y-81607711D01*
X85932763Y-81634623D01*
X85913408Y-81658208D01*
X85889823Y-81677563D01*
X85862911Y-81691948D01*
X85833716Y-81700805D01*
X85797210Y-81704400D01*
X85246990Y-81704400D01*
X85210484Y-81700805D01*
X85181289Y-81691948D01*
X85154377Y-81677563D01*
X85130792Y-81658208D01*
X85111437Y-81634623D01*
X85097052Y-81607711D01*
X85088195Y-81578516D01*
X85084600Y-81542010D01*
X85084600Y-80916790D01*
X85088195Y-80880284D01*
X85097052Y-80851089D01*
X85111437Y-80824177D01*
X85130792Y-80800592D01*
X85154377Y-80781237D01*
X85181289Y-80766852D01*
X85210484Y-80757995D01*
X85246990Y-80754400D01*
X85797210Y-80754400D01*
X85833716Y-80757995D01*
G37*
G36*
X78086516Y-80757995D02*
G01*
X78115711Y-80766852D01*
X78142623Y-80781237D01*
X78166208Y-80800592D01*
X78185563Y-80824177D01*
X78199948Y-80851089D01*
X78208805Y-80880284D01*
X78212400Y-80916790D01*
X78212400Y-81542010D01*
X78208805Y-81578516D01*
X78199948Y-81607711D01*
X78185563Y-81634623D01*
X78166208Y-81658208D01*
X78142623Y-81677563D01*
X78115711Y-81691948D01*
X78086516Y-81700805D01*
X78050010Y-81704400D01*
X77499790Y-81704400D01*
X77463284Y-81700805D01*
X77434089Y-81691948D01*
X77407177Y-81677563D01*
X77383592Y-81658208D01*
X77364237Y-81634623D01*
X77349852Y-81607711D01*
X77340995Y-81578516D01*
X77337400Y-81542010D01*
X77337400Y-80916790D01*
X77340995Y-80880284D01*
X77349852Y-80851089D01*
X77364237Y-80824177D01*
X77383592Y-80800592D01*
X77407177Y-80781237D01*
X77434089Y-80766852D01*
X77463284Y-80757995D01*
X77499790Y-80754400D01*
X78050010Y-80754400D01*
X78086516Y-80757995D01*
G37*
G36*
X79661516Y-80757995D02*
G01*
X79690711Y-80766852D01*
X79717623Y-80781237D01*
X79741208Y-80800592D01*
X79760563Y-80824177D01*
X79774948Y-80851089D01*
X79783805Y-80880284D01*
X79787400Y-80916790D01*
X79787400Y-81542010D01*
X79783805Y-81578516D01*
X79774948Y-81607711D01*
X79760563Y-81634623D01*
X79741208Y-81658208D01*
X79717623Y-81677563D01*
X79690711Y-81691948D01*
X79661516Y-81700805D01*
X79625010Y-81704400D01*
X79074790Y-81704400D01*
X79038284Y-81700805D01*
X79009089Y-81691948D01*
X78982177Y-81677563D01*
X78958592Y-81658208D01*
X78939237Y-81634623D01*
X78924852Y-81607711D01*
X78915995Y-81578516D01*
X78912400Y-81542010D01*
X78912400Y-80916790D01*
X78915995Y-80880284D01*
X78924852Y-80851089D01*
X78939237Y-80824177D01*
X78958592Y-80800592D01*
X78982177Y-80781237D01*
X79009089Y-80766852D01*
X79038284Y-80757995D01*
X79074790Y-80754400D01*
X79625010Y-80754400D01*
X79661516Y-80757995D01*
G37*
G36*
X81134516Y-80757995D02*
G01*
X81163711Y-80766852D01*
X81190623Y-80781237D01*
X81214208Y-80800592D01*
X81233563Y-80824177D01*
X81247948Y-80851089D01*
X81256805Y-80880284D01*
X81260400Y-80916790D01*
X81260400Y-81542010D01*
X81256805Y-81578516D01*
X81247948Y-81607711D01*
X81233563Y-81634623D01*
X81214208Y-81658208D01*
X81190623Y-81677563D01*
X81163711Y-81691948D01*
X81134516Y-81700805D01*
X81098010Y-81704400D01*
X80547790Y-81704400D01*
X80511284Y-81700805D01*
X80482089Y-81691948D01*
X80455177Y-81677563D01*
X80431592Y-81658208D01*
X80412237Y-81634623D01*
X80397852Y-81607711D01*
X80388995Y-81578516D01*
X80385400Y-81542010D01*
X80385400Y-80916790D01*
X80388995Y-80880284D01*
X80397852Y-80851089D01*
X80412237Y-80824177D01*
X80431592Y-80800592D01*
X80455177Y-80781237D01*
X80482089Y-80766852D01*
X80511284Y-80757995D01*
X80547790Y-80754400D01*
X81098010Y-80754400D01*
X81134516Y-80757995D01*
G37*
G36*
X84258716Y-80757995D02*
G01*
X84287911Y-80766852D01*
X84314823Y-80781237D01*
X84338408Y-80800592D01*
X84357763Y-80824177D01*
X84372148Y-80851089D01*
X84381005Y-80880284D01*
X84384600Y-80916790D01*
X84384600Y-81542010D01*
X84381005Y-81578516D01*
X84372148Y-81607711D01*
X84357763Y-81634623D01*
X84338408Y-81658208D01*
X84314823Y-81677563D01*
X84287911Y-81691948D01*
X84258716Y-81700805D01*
X84222210Y-81704400D01*
X83671990Y-81704400D01*
X83635484Y-81700805D01*
X83606289Y-81691948D01*
X83579377Y-81677563D01*
X83555792Y-81658208D01*
X83536437Y-81634623D01*
X83522052Y-81607711D01*
X83513195Y-81578516D01*
X83509600Y-81542010D01*
X83509600Y-80916790D01*
X83513195Y-80880284D01*
X83522052Y-80851089D01*
X83536437Y-80824177D01*
X83555792Y-80800592D01*
X83579377Y-80781237D01*
X83606289Y-80766852D01*
X83635484Y-80757995D01*
X83671990Y-80754400D01*
X84222210Y-80754400D01*
X84258716Y-80757995D01*
G37*
G36*
X87445916Y-80769995D02*
G01*
X87475111Y-80778852D01*
X87502023Y-80793237D01*
X87525608Y-80812592D01*
X87544963Y-80836177D01*
X87559348Y-80863089D01*
X87568205Y-80892284D01*
X87571800Y-80928790D01*
X87571800Y-81479010D01*
X87568205Y-81515516D01*
X87559348Y-81544711D01*
X87544963Y-81571623D01*
X87525608Y-81595208D01*
X87502023Y-81614563D01*
X87475111Y-81628948D01*
X87445916Y-81637805D01*
X87409410Y-81641400D01*
X86784190Y-81641400D01*
X86747684Y-81637805D01*
X86718489Y-81628948D01*
X86691577Y-81614563D01*
X86667992Y-81595208D01*
X86648637Y-81571623D01*
X86634252Y-81544711D01*
X86625395Y-81515516D01*
X86621800Y-81479010D01*
X86621800Y-80928790D01*
X86625395Y-80892284D01*
X86634252Y-80863089D01*
X86648637Y-80836177D01*
X86667992Y-80812592D01*
X86691577Y-80793237D01*
X86718489Y-80778852D01*
X86747684Y-80769995D01*
X86784190Y-80766400D01*
X87409410Y-80766400D01*
X87445916Y-80769995D01*
G37*
G36*
X56466703Y-72461486D02*
G01*
X56757883Y-72582097D01*
X57019940Y-72757198D01*
X57242802Y-72980060D01*
X57417903Y-73242117D01*
X57538514Y-73533297D01*
X57600000Y-73842412D01*
X57600000Y-74157588D01*
X57538514Y-74466703D01*
X57417903Y-74757883D01*
X57242802Y-75019940D01*
X57019940Y-75242802D01*
X56757883Y-75417903D01*
X56466703Y-75538514D01*
X56157588Y-75600000D01*
X55842412Y-75600000D01*
X55533297Y-75538514D01*
X55242117Y-75417903D01*
X54980060Y-75242802D01*
X54757198Y-75019940D01*
X54582097Y-74757883D01*
X54461486Y-74466703D01*
X54400000Y-74157588D01*
X54400000Y-73842412D01*
X54461486Y-73533297D01*
X54582097Y-73242117D01*
X54757198Y-72980060D01*
X54980060Y-72757198D01*
X55242117Y-72582097D01*
X55533297Y-72461486D01*
X55842412Y-72400000D01*
X56157588Y-72400000D01*
X56466703Y-72461486D01*
G37*
G36*
X144466703Y-72461486D02*
G01*
X144757883Y-72582097D01*
X145019940Y-72757198D01*
X145242802Y-72980060D01*
X145417903Y-73242117D01*
X145538514Y-73533297D01*
X145600000Y-73842412D01*
X145600000Y-74157588D01*
X145538514Y-74466703D01*
X145417903Y-74757883D01*
X145242802Y-75019940D01*
X145019940Y-75242802D01*
X144757883Y-75417903D01*
X144466703Y-75538514D01*
X144157588Y-75600000D01*
X143842412Y-75600000D01*
X143533297Y-75538514D01*
X143242117Y-75417903D01*
X142980060Y-75242802D01*
X142757198Y-75019940D01*
X142582097Y-74757883D01*
X142461486Y-74466703D01*
X142400000Y-74157588D01*
X142400000Y-73842412D01*
X142461486Y-73533297D01*
X142582097Y-73242117D01*
X142757198Y-72980060D01*
X142980060Y-72757198D01*
X143242117Y-72582097D01*
X143533297Y-72461486D01*
X143842412Y-72400000D01*
X144157588Y-72400000D01*
X144466703Y-72461486D01*
G37*
G36*
X63247765Y-72754403D02*
G01*
X63370445Y-72778805D01*
X63601571Y-72874541D01*
X63704671Y-72943430D01*
X63789035Y-72999800D01*
X63809578Y-73013527D01*
X63986473Y-73190422D01*
X64125459Y-73398429D01*
X64221195Y-73629555D01*
X64270000Y-73874916D01*
X64270000Y-74125084D01*
X64221195Y-74370445D01*
X64125459Y-74601571D01*
X63986473Y-74809578D01*
X63809578Y-74986473D01*
X63601571Y-75125459D01*
X63370445Y-75221195D01*
X63247765Y-75245597D01*
X63125085Y-75270000D01*
X62874915Y-75270000D01*
X62752235Y-75245597D01*
X62629555Y-75221195D01*
X62398429Y-75125459D01*
X62190422Y-74986473D01*
X62013527Y-74809578D01*
X61874541Y-74601571D01*
X61778805Y-74370445D01*
X61730000Y-74125084D01*
X61730000Y-73874916D01*
X61778805Y-73629555D01*
X61874541Y-73398429D01*
X62013527Y-73190422D01*
X62190422Y-73013527D01*
X62210966Y-72999800D01*
X62295329Y-72943430D01*
X62398429Y-72874541D01*
X62629555Y-72778805D01*
X62752235Y-72754403D01*
X62874915Y-72730000D01*
X63125085Y-72730000D01*
X63247765Y-72754403D01*
G37*
G36*
X137247765Y-72754403D02*
G01*
X137370445Y-72778805D01*
X137601571Y-72874541D01*
X137704671Y-72943430D01*
X137789035Y-72999800D01*
X137809578Y-73013527D01*
X137986473Y-73190422D01*
X138125459Y-73398429D01*
X138221195Y-73629555D01*
X138270000Y-73874916D01*
X138270000Y-74125084D01*
X138221195Y-74370445D01*
X138125459Y-74601571D01*
X137986473Y-74809578D01*
X137809578Y-74986473D01*
X137601571Y-75125459D01*
X137370445Y-75221195D01*
X137247765Y-75245597D01*
X137125085Y-75270000D01*
X136874915Y-75270000D01*
X136752235Y-75245597D01*
X136629555Y-75221195D01*
X136398429Y-75125459D01*
X136190422Y-74986473D01*
X136013527Y-74809578D01*
X135874541Y-74601571D01*
X135778805Y-74370445D01*
X135730000Y-74125084D01*
X135730000Y-73874916D01*
X135778805Y-73629555D01*
X135874541Y-73398429D01*
X136013527Y-73190422D01*
X136190422Y-73013527D01*
X136210966Y-72999800D01*
X136295329Y-72943430D01*
X136398429Y-72874541D01*
X136629555Y-72778805D01*
X136752235Y-72754403D01*
X136874915Y-72730000D01*
X137125085Y-72730000D01*
X137247765Y-72754403D01*
G37*
G36*
X79659374Y-72028234D02*
G01*
X79749513Y-72065570D01*
X79830636Y-72119775D01*
X79899625Y-72188764D01*
X79953830Y-72269887D01*
X79991166Y-72360026D01*
X80010200Y-72455717D01*
X80010200Y-72553283D01*
X79991166Y-72648974D01*
X79953830Y-72739113D01*
X79899625Y-72820236D01*
X79830636Y-72889225D01*
X79749513Y-72943430D01*
X79749512Y-72943431D01*
X79749511Y-72943431D01*
X79659374Y-72980766D01*
X79563683Y-72999800D01*
X79466117Y-72999800D01*
X79370426Y-72980766D01*
X79280289Y-72943431D01*
X79280288Y-72943431D01*
X79280287Y-72943430D01*
X79199164Y-72889225D01*
X79130175Y-72820236D01*
X79075970Y-72739113D01*
X79038634Y-72648974D01*
X79019600Y-72553283D01*
X79019600Y-72455717D01*
X79038634Y-72360026D01*
X79075970Y-72269887D01*
X79130175Y-72188764D01*
X79199164Y-72119775D01*
X79280287Y-72065570D01*
X79370426Y-72028234D01*
X79466117Y-72009200D01*
X79563683Y-72009200D01*
X79659374Y-72028234D01*
G37*
G36*
X78359735Y-71744929D02*
G01*
X78359737Y-71744930D01*
X78359738Y-71744930D01*
X78431387Y-71774608D01*
X78495869Y-71817693D01*
X78550707Y-71872531D01*
X78593792Y-71937013D01*
X78623471Y-72008665D01*
X78638600Y-72084723D01*
X78638600Y-72162277D01*
X78633331Y-72188768D01*
X78623470Y-72238338D01*
X78593792Y-72309987D01*
X78550707Y-72374469D01*
X78495869Y-72429307D01*
X78431387Y-72472392D01*
X78359738Y-72502070D01*
X78359737Y-72502070D01*
X78359735Y-72502071D01*
X78283677Y-72517200D01*
X78206123Y-72517200D01*
X78130065Y-72502071D01*
X78130063Y-72502070D01*
X78130062Y-72502070D01*
X78058413Y-72472392D01*
X77993931Y-72429307D01*
X77939093Y-72374469D01*
X77896008Y-72309987D01*
X77866330Y-72238338D01*
X77856470Y-72188768D01*
X77851200Y-72162277D01*
X77851200Y-72084723D01*
X77866329Y-72008665D01*
X77896008Y-71937013D01*
X77939093Y-71872531D01*
X77993931Y-71817693D01*
X78058413Y-71774608D01*
X78130062Y-71744930D01*
X78130063Y-71744930D01*
X78130065Y-71744929D01*
X78206123Y-71729800D01*
X78283677Y-71729800D01*
X78359735Y-71744929D01*
G37*
G36*
X77089735Y-71744929D02*
G01*
X77089737Y-71744930D01*
X77089738Y-71744930D01*
X77161387Y-71774608D01*
X77225869Y-71817693D01*
X77280707Y-71872531D01*
X77323792Y-71937013D01*
X77353471Y-72008665D01*
X77368600Y-72084723D01*
X77368600Y-72162277D01*
X77363331Y-72188768D01*
X77353470Y-72238338D01*
X77323792Y-72309987D01*
X77280707Y-72374469D01*
X77225869Y-72429307D01*
X77161387Y-72472392D01*
X77089738Y-72502070D01*
X77089737Y-72502070D01*
X77089735Y-72502071D01*
X77013677Y-72517200D01*
X76936123Y-72517200D01*
X76860065Y-72502071D01*
X76860063Y-72502070D01*
X76860062Y-72502070D01*
X76788413Y-72472392D01*
X76723931Y-72429307D01*
X76669093Y-72374469D01*
X76626008Y-72309987D01*
X76596330Y-72238338D01*
X76586470Y-72188768D01*
X76581200Y-72162277D01*
X76581200Y-72084723D01*
X76596329Y-72008665D01*
X76626008Y-71937013D01*
X76669093Y-71872531D01*
X76723931Y-71817693D01*
X76788413Y-71774608D01*
X76860062Y-71744930D01*
X76860063Y-71744930D01*
X76860065Y-71744929D01*
X76936123Y-71729800D01*
X77013677Y-71729800D01*
X77089735Y-71744929D01*
G37*
G36*
X75819735Y-71744929D02*
G01*
X75819737Y-71744930D01*
X75819738Y-71744930D01*
X75891387Y-71774608D01*
X75955869Y-71817693D01*
X76010707Y-71872531D01*
X76053792Y-71937013D01*
X76083471Y-72008665D01*
X76098600Y-72084723D01*
X76098600Y-72162277D01*
X76093331Y-72188768D01*
X76083470Y-72238338D01*
X76053792Y-72309987D01*
X76010707Y-72374469D01*
X75955869Y-72429307D01*
X75891387Y-72472392D01*
X75819738Y-72502070D01*
X75819737Y-72502070D01*
X75819735Y-72502071D01*
X75743677Y-72517200D01*
X75666123Y-72517200D01*
X75590065Y-72502071D01*
X75590063Y-72502070D01*
X75590062Y-72502070D01*
X75518413Y-72472392D01*
X75453931Y-72429307D01*
X75399093Y-72374469D01*
X75356008Y-72309987D01*
X75326330Y-72238338D01*
X75316470Y-72188768D01*
X75311200Y-72162277D01*
X75311200Y-72084723D01*
X75326329Y-72008665D01*
X75356008Y-71937013D01*
X75399093Y-71872531D01*
X75453931Y-71817693D01*
X75518413Y-71774608D01*
X75590062Y-71744930D01*
X75590063Y-71744930D01*
X75590065Y-71744929D01*
X75666123Y-71729800D01*
X75743677Y-71729800D01*
X75819735Y-71744929D01*
G37*
G36*
X74579374Y-71012234D02*
G01*
X74669513Y-71049570D01*
X74750636Y-71103775D01*
X74819625Y-71172764D01*
X74873830Y-71253887D01*
X74911166Y-71344026D01*
X74930200Y-71439717D01*
X74930200Y-71537283D01*
X74911166Y-71632974D01*
X74873830Y-71723113D01*
X74819625Y-71804236D01*
X74750636Y-71873225D01*
X74669513Y-71927430D01*
X74669512Y-71927431D01*
X74669511Y-71927431D01*
X74579374Y-71964766D01*
X74483683Y-71983800D01*
X74386117Y-71983800D01*
X74290426Y-71964766D01*
X74200289Y-71927431D01*
X74200288Y-71927431D01*
X74200287Y-71927430D01*
X74119164Y-71873225D01*
X74050175Y-71804236D01*
X73995970Y-71723113D01*
X73958634Y-71632974D01*
X73939600Y-71537283D01*
X73939600Y-71439717D01*
X73958634Y-71344026D01*
X73995970Y-71253887D01*
X74050175Y-71172764D01*
X74119164Y-71103775D01*
X74200287Y-71049570D01*
X74290426Y-71012234D01*
X74386117Y-70993200D01*
X74483683Y-70993200D01*
X74579374Y-71012234D01*
G37*
G36*
X75819735Y-70474929D02*
G01*
X75819737Y-70474930D01*
X75819738Y-70474930D01*
X75891387Y-70504608D01*
X75955869Y-70547693D01*
X76010707Y-70602531D01*
X76020357Y-70616974D01*
X76053792Y-70667013D01*
X76083471Y-70738665D01*
X76098600Y-70814723D01*
X76098600Y-70892277D01*
X76087364Y-70948766D01*
X76083470Y-70968338D01*
X76053792Y-71039987D01*
X76010707Y-71104469D01*
X75955869Y-71159307D01*
X75891387Y-71202392D01*
X75819738Y-71232070D01*
X75819737Y-71232070D01*
X75819735Y-71232071D01*
X75743677Y-71247200D01*
X75666123Y-71247200D01*
X75590065Y-71232071D01*
X75590063Y-71232070D01*
X75590062Y-71232070D01*
X75518413Y-71202392D01*
X75453931Y-71159307D01*
X75399093Y-71104469D01*
X75356008Y-71039987D01*
X75326330Y-70968338D01*
X75322437Y-70948766D01*
X75311200Y-70892277D01*
X75311200Y-70814723D01*
X75326329Y-70738665D01*
X75356008Y-70667013D01*
X75389443Y-70616974D01*
X75399093Y-70602531D01*
X75453931Y-70547693D01*
X75518413Y-70504608D01*
X75590062Y-70474930D01*
X75590063Y-70474930D01*
X75590065Y-70474929D01*
X75666123Y-70459800D01*
X75743677Y-70459800D01*
X75819735Y-70474929D01*
G37*
G36*
X77089735Y-70474929D02*
G01*
X77089737Y-70474930D01*
X77089738Y-70474930D01*
X77161387Y-70504608D01*
X77225869Y-70547693D01*
X77280707Y-70602531D01*
X77290357Y-70616974D01*
X77323792Y-70667013D01*
X77353471Y-70738665D01*
X77368600Y-70814723D01*
X77368600Y-70892277D01*
X77357364Y-70948766D01*
X77353470Y-70968338D01*
X77323792Y-71039987D01*
X77280707Y-71104469D01*
X77225869Y-71159307D01*
X77161387Y-71202392D01*
X77089738Y-71232070D01*
X77089737Y-71232070D01*
X77089735Y-71232071D01*
X77013677Y-71247200D01*
X76936123Y-71247200D01*
X76860065Y-71232071D01*
X76860063Y-71232070D01*
X76860062Y-71232070D01*
X76788413Y-71202392D01*
X76723931Y-71159307D01*
X76669093Y-71104469D01*
X76626008Y-71039987D01*
X76596330Y-70968338D01*
X76592437Y-70948766D01*
X76581200Y-70892277D01*
X76581200Y-70814723D01*
X76596329Y-70738665D01*
X76626008Y-70667013D01*
X76659443Y-70616974D01*
X76669093Y-70602531D01*
X76723931Y-70547693D01*
X76788413Y-70504608D01*
X76860062Y-70474930D01*
X76860063Y-70474930D01*
X76860065Y-70474929D01*
X76936123Y-70459800D01*
X77013677Y-70459800D01*
X77089735Y-70474929D01*
G37*
G36*
X78359735Y-70474929D02*
G01*
X78359737Y-70474930D01*
X78359738Y-70474930D01*
X78431387Y-70504608D01*
X78495869Y-70547693D01*
X78550707Y-70602531D01*
X78560357Y-70616974D01*
X78593792Y-70667013D01*
X78623471Y-70738665D01*
X78638600Y-70814723D01*
X78638600Y-70892277D01*
X78627364Y-70948766D01*
X78623470Y-70968338D01*
X78593792Y-71039987D01*
X78550707Y-71104469D01*
X78495869Y-71159307D01*
X78431387Y-71202392D01*
X78359738Y-71232070D01*
X78359737Y-71232070D01*
X78359735Y-71232071D01*
X78283677Y-71247200D01*
X78206123Y-71247200D01*
X78130065Y-71232071D01*
X78130063Y-71232070D01*
X78130062Y-71232070D01*
X78058413Y-71202392D01*
X77993931Y-71159307D01*
X77939093Y-71104469D01*
X77896008Y-71039987D01*
X77866330Y-70968338D01*
X77862437Y-70948766D01*
X77851200Y-70892277D01*
X77851200Y-70814723D01*
X77866329Y-70738665D01*
X77896008Y-70667013D01*
X77929443Y-70616974D01*
X77939093Y-70602531D01*
X77993931Y-70547693D01*
X78058413Y-70504608D01*
X78130062Y-70474930D01*
X78130063Y-70474930D01*
X78130065Y-70474929D01*
X78206123Y-70459800D01*
X78283677Y-70459800D01*
X78359735Y-70474929D01*
G37*
G36*
X79659374Y-69996234D02*
G01*
X79749513Y-70033570D01*
X79830636Y-70087775D01*
X79899625Y-70156764D01*
X79953830Y-70237887D01*
X79991166Y-70328026D01*
X80010200Y-70423717D01*
X80010200Y-70521283D01*
X79991166Y-70616974D01*
X79953830Y-70707113D01*
X79899625Y-70788236D01*
X79830636Y-70857225D01*
X79749513Y-70911430D01*
X79659374Y-70948766D01*
X79563683Y-70967800D01*
X79466117Y-70967800D01*
X79370426Y-70948766D01*
X79280287Y-70911430D01*
X79199164Y-70857225D01*
X79130175Y-70788236D01*
X79075970Y-70707113D01*
X79038634Y-70616974D01*
X79019600Y-70521283D01*
X79019600Y-70423717D01*
X79038634Y-70328026D01*
X79075970Y-70237887D01*
X79130175Y-70156764D01*
X79199164Y-70087775D01*
X79280287Y-70033570D01*
X79370426Y-69996234D01*
X79466117Y-69977200D01*
X79563683Y-69977200D01*
X79659374Y-69996234D01*
G37*
M02*
