G04 #@! TF.GenerationSoftware,KiCad,Pcbnew,5.1.5+dfsg1-2build2*
G04 #@! TF.CreationDate,2022-02-17T14:46:20+01:00*
G04 #@! TF.ProjectId,ModulAdapter_universal,4d6f6475-6c41-4646-9170-7465725f756e,rev?*
G04 #@! TF.SameCoordinates,Original*
G04 #@! TF.FileFunction,Other,ECO1*
%FSLAX46Y46*%
G04 Gerber Fmt 4.6, Leading zero omitted, Abs format (unit mm)*
G04 Created by KiCad (PCBNEW 5.1.5+dfsg1-2build2) date 2022-02-17 14:46:20*
%MOMM*%
%LPD*%
G04 APERTURE LIST*
%ADD10C,0.150000*%
%ADD11C,0.100000*%
G04 APERTURE END LIST*
D10*
X153083999Y-96384571D02*
X154083999Y-96384571D01*
X153083999Y-97884571D01*
X154083999Y-97884571D01*
X154655428Y-97313142D02*
X155798285Y-97313142D01*
X156512571Y-97884571D02*
X156512571Y-96384571D01*
X157012571Y-97456000D01*
X157512571Y-96384571D01*
X157512571Y-97884571D01*
X158226857Y-97884571D02*
X158226857Y-96884571D01*
X158226857Y-96384571D02*
X158155428Y-96456000D01*
X158226857Y-96527428D01*
X158298285Y-96456000D01*
X158226857Y-96384571D01*
X158226857Y-96527428D01*
X159155428Y-97884571D02*
X159012571Y-97813142D01*
X158941142Y-97670285D01*
X158941142Y-96384571D01*
X159941142Y-97884571D02*
X159798285Y-97813142D01*
X159726857Y-97670285D01*
X159726857Y-96384571D01*
X160512571Y-97884571D02*
X160512571Y-96884571D01*
X160512571Y-96384571D02*
X160441142Y-96456000D01*
X160512571Y-96527428D01*
X160583999Y-96456000D01*
X160512571Y-96384571D01*
X160512571Y-96527428D01*
X161226857Y-96884571D02*
X161226857Y-97884571D01*
X161226857Y-97027428D02*
X161298285Y-96956000D01*
X161441142Y-96884571D01*
X161655428Y-96884571D01*
X161798285Y-96956000D01*
X161869714Y-97098857D01*
X161869714Y-97884571D01*
X163226857Y-96884571D02*
X163226857Y-98098857D01*
X163155428Y-98241714D01*
X163083999Y-98313142D01*
X162941142Y-98384571D01*
X162726857Y-98384571D01*
X162583999Y-98313142D01*
X163226857Y-97813142D02*
X163083999Y-97884571D01*
X162798285Y-97884571D01*
X162655428Y-97813142D01*
X162583999Y-97741714D01*
X162512571Y-97598857D01*
X162512571Y-97170285D01*
X162583999Y-97027428D01*
X162655428Y-96956000D01*
X162798285Y-96884571D01*
X163083999Y-96884571D01*
X163226857Y-96956000D01*
X164012571Y-97813142D02*
X164012571Y-97884571D01*
X163941142Y-98027428D01*
X163869714Y-98098857D01*
X166441142Y-97884571D02*
X166441142Y-96384571D01*
X166441142Y-97813142D02*
X166298285Y-97884571D01*
X166012571Y-97884571D01*
X165869714Y-97813142D01*
X165798285Y-97741714D01*
X165726857Y-97598857D01*
X165726857Y-97170285D01*
X165798285Y-97027428D01*
X165869714Y-96956000D01*
X166012571Y-96884571D01*
X166298285Y-96884571D01*
X166441142Y-96956000D01*
X167726857Y-97813142D02*
X167583999Y-97884571D01*
X167298285Y-97884571D01*
X167155428Y-97813142D01*
X167083999Y-97670285D01*
X167083999Y-97098857D01*
X167155428Y-96956000D01*
X167298285Y-96884571D01*
X167583999Y-96884571D01*
X167726857Y-96956000D01*
X167798285Y-97098857D01*
X167798285Y-97241714D01*
X167083999Y-97384571D01*
X168441142Y-96884571D02*
X168441142Y-98384571D01*
X168441142Y-96956000D02*
X168583999Y-96884571D01*
X168869714Y-96884571D01*
X169012571Y-96956000D01*
X169083999Y-97027428D01*
X169155428Y-97170285D01*
X169155428Y-97598857D01*
X169083999Y-97741714D01*
X169012571Y-97813142D01*
X168869714Y-97884571D01*
X168583999Y-97884571D01*
X168441142Y-97813142D01*
X169583999Y-96884571D02*
X170155428Y-96884571D01*
X169798285Y-96384571D02*
X169798285Y-97670285D01*
X169869714Y-97813142D01*
X170012571Y-97884571D01*
X170155428Y-97884571D01*
X170655428Y-97884571D02*
X170655428Y-96384571D01*
X171298285Y-97884571D02*
X171298285Y-97098857D01*
X171226857Y-96956000D01*
X171083999Y-96884571D01*
X170869714Y-96884571D01*
X170726857Y-96956000D01*
X170655428Y-97027428D01*
X172012571Y-97098857D02*
X173155428Y-97098857D01*
X173155428Y-97527428D02*
X172012571Y-97527428D01*
X175298285Y-96384571D02*
X175441142Y-96384571D01*
X175583999Y-96456000D01*
X175655428Y-96527428D01*
X175726857Y-96670285D01*
X175798285Y-96956000D01*
X175798285Y-97313142D01*
X175726857Y-97598857D01*
X175655428Y-97741714D01*
X175583999Y-97813142D01*
X175441142Y-97884571D01*
X175298285Y-97884571D01*
X175155428Y-97813142D01*
X175083999Y-97741714D01*
X175012571Y-97598857D01*
X174941142Y-97313142D01*
X174941142Y-96956000D01*
X175012571Y-96670285D01*
X175083999Y-96527428D01*
X175155428Y-96456000D01*
X175298285Y-96384571D01*
X176441142Y-97741714D02*
X176512571Y-97813142D01*
X176441142Y-97884571D01*
X176369714Y-97813142D01*
X176441142Y-97741714D01*
X176441142Y-97884571D01*
X177798285Y-96384571D02*
X177512571Y-96384571D01*
X177369714Y-96456000D01*
X177298285Y-96527428D01*
X177155428Y-96741714D01*
X177083999Y-97027428D01*
X177083999Y-97598857D01*
X177155428Y-97741714D01*
X177226857Y-97813142D01*
X177369714Y-97884571D01*
X177655428Y-97884571D01*
X177798285Y-97813142D01*
X177869714Y-97741714D01*
X177941142Y-97598857D01*
X177941142Y-97241714D01*
X177869714Y-97098857D01*
X177798285Y-97027428D01*
X177655428Y-96956000D01*
X177369714Y-96956000D01*
X177226857Y-97027428D01*
X177155428Y-97098857D01*
X177083999Y-97241714D01*
X178869714Y-96384571D02*
X179012571Y-96384571D01*
X179155428Y-96456000D01*
X179226857Y-96527428D01*
X179298285Y-96670285D01*
X179369714Y-96956000D01*
X179369714Y-97313142D01*
X179298285Y-97598857D01*
X179226857Y-97741714D01*
X179155428Y-97813142D01*
X179012571Y-97884571D01*
X178869714Y-97884571D01*
X178726857Y-97813142D01*
X178655428Y-97741714D01*
X178583999Y-97598857D01*
X178512571Y-97313142D01*
X178512571Y-96956000D01*
X178583999Y-96670285D01*
X178655428Y-96527428D01*
X178726857Y-96456000D01*
X178869714Y-96384571D01*
X181155428Y-97884571D02*
X181155428Y-96884571D01*
X181155428Y-97027428D02*
X181226857Y-96956000D01*
X181369714Y-96884571D01*
X181583999Y-96884571D01*
X181726857Y-96956000D01*
X181798285Y-97098857D01*
X181798285Y-97884571D01*
X181798285Y-97098857D02*
X181869714Y-96956000D01*
X182012571Y-96884571D01*
X182226857Y-96884571D01*
X182369714Y-96956000D01*
X182441142Y-97098857D01*
X182441142Y-97884571D01*
X183155428Y-97884571D02*
X183155428Y-96884571D01*
X183155428Y-97027428D02*
X183226857Y-96956000D01*
X183369714Y-96884571D01*
X183583999Y-96884571D01*
X183726857Y-96956000D01*
X183798285Y-97098857D01*
X183798285Y-97884571D01*
X183798285Y-97098857D02*
X183869714Y-96956000D01*
X184012571Y-96884571D01*
X184226857Y-96884571D01*
X184369714Y-96956000D01*
X184441142Y-97098857D01*
X184441142Y-97884571D01*
D11*
X89025000Y-96336141D02*
X89025000Y-93636141D01*
X88025000Y-93636141D02*
X70000000Y-93636141D01*
X70000000Y-93636141D02*
G75*
G03X69000000Y-93636141I-500000J0D01*
G01*
X88025000Y-93636141D02*
G75*
G02X89025000Y-93636141I500000J0D01*
G01*
X70000000Y-96336141D02*
G75*
G02X69000000Y-96336141I-500000J0D01*
G01*
X88025000Y-96336141D02*
G75*
G03X89025000Y-96336141I500000J0D01*
G01*
X70005000Y-96336141D02*
X88025000Y-96336141D01*
X69000000Y-93636141D02*
X69000000Y-96336141D01*
X130000000Y-96336141D02*
G75*
G03X131000000Y-96336141I500000J0D01*
G01*
X111975000Y-96336141D02*
G75*
G02X110975000Y-96336141I-500000J0D01*
G01*
X130000000Y-93636141D02*
G75*
G02X131000000Y-93636141I500000J0D01*
G01*
X111975000Y-93636141D02*
G75*
G03X110975000Y-93636141I-500000J0D01*
G01*
X130000000Y-93636141D02*
X111975000Y-93636141D01*
X131000000Y-96336141D02*
X131000000Y-93636141D01*
X111980000Y-96336141D02*
X130000000Y-96336141D01*
X110975000Y-93636141D02*
X110975000Y-96336141D01*
M02*
