<?xml version="1.0" standalone="no"?>
 <!DOCTYPE svg PUBLIC "-//W3C//DTD SVG 1.1//EN" 
 "http://www.w3.org/Graphics/SVG/1.1/DTD/svg11.dtd"> 
<svg xmlns="http://www.w3.org/2000/svg" version="1.1" 
    width="29.7002cm" height="21.0007cm" viewBox="0 0 116930 82680 ">
<title>SVG Picture created as OpenDropV3-B.Paste.svg date 2017/11/20 16:31:17 </title>
  <desc>Picture generated by PCBNEW </desc>
<g style="fill:#000000; fill-opacity:1;stroke:#000000; stroke-opacity:1;
stroke-linecap:round; stroke-linejoin:round; "
 transform="translate(0 0) scale(1 1)">
</g>
<g style="fill:#000000; fill-opacity:0.0; 
stroke:#000000; stroke-width:-0.000393701; stroke-opacity:1; 
stroke-linecap:round; stroke-linejoin:round;">
</g>
<g style="fill:#000000; fill-opacity:0.0; 
stroke:#000000; stroke-width:39.3701; stroke-opacity:1; 
stroke-linecap:round; stroke-linejoin:round;">
</g>
<g style="fill:#000000; fill-opacity:0.0; 
stroke:#000000; stroke-width:59.0551; stroke-opacity:1; 
stroke-linecap:round; stroke-linejoin:round;">
<rect x="69685.9" y="65357.2" width="42519.7" height="12598.4" rx="0" />
</g>
<g style="fill:#000000; fill-opacity:0.0; 
stroke:#000000; stroke-width:39.3701; stroke-opacity:1; 
stroke-linecap:round; stroke-linejoin:round;">
</g>
<g style="fill:#000000; fill-opacity:0.0; 
stroke:#000000; stroke-width:59.0551; stroke-opacity:1; 
stroke-linecap:round; stroke-linejoin:round;">
<rect x="3937.01" y="3937.01" width="109056" height="74806" rx="0" />
</g>
<g style="fill:#000000; fill-opacity:0.0; 
stroke:#000000; stroke-width:39.3701; stroke-opacity:1; 
stroke-linecap:round; stroke-linejoin:round;">
</g>
<g style="fill:#000000; fill-opacity:0.0; 
stroke:#000000; stroke-width:59.0551; stroke-opacity:1; 
stroke-linecap:round; stroke-linejoin:round;">
<rect x="4724.41" y="4724.41" width="107481" height="73231.2" rx="0" />
</g>
<g style="fill:#000000; fill-opacity:0.0; 
stroke:#000000; stroke-width:39.3701; stroke-opacity:1; 
stroke-linecap:round; stroke-linejoin:round;">
</g>
<g style="fill:#000000; fill-opacity:0.0; 
stroke:#000000; stroke-width:59.0551; stroke-opacity:1; 
stroke-linecap:round; stroke-linejoin:round;">
<path d="M23622 4724
L23622 3937
" />
</g>
<g style="fill:#000000; fill-opacity:0.0; 
stroke:#000000; stroke-width:39.3701; stroke-opacity:1; 
stroke-linecap:round; stroke-linejoin:round;">
</g>
<g style="fill:#000000; fill-opacity:0.0; 
stroke:#000000; stroke-width:59.0551; stroke-opacity:1; 
stroke-linecap:round; stroke-linejoin:round;">
<path d="M43307 4724
L43307 3937
" />
</g>
<g style="fill:#000000; fill-opacity:0.0; 
stroke:#000000; stroke-width:39.3701; stroke-opacity:1; 
stroke-linecap:round; stroke-linejoin:round;">
</g>
<g style="fill:#000000; fill-opacity:0.0; 
stroke:#000000; stroke-width:59.0551; stroke-opacity:1; 
stroke-linecap:round; stroke-linejoin:round;">
<path d="M62992 4724
L62992 3937
" />
</g>
<g style="fill:#000000; fill-opacity:0.0; 
stroke:#000000; stroke-width:39.3701; stroke-opacity:1; 
stroke-linecap:round; stroke-linejoin:round;">
</g>
<g style="fill:#000000; fill-opacity:0.0; 
stroke:#000000; stroke-width:59.0551; stroke-opacity:1; 
stroke-linecap:round; stroke-linejoin:round;">
<path d="M82677 4724
L82677 3937
" />
</g>
<g style="fill:#000000; fill-opacity:0.0; 
stroke:#000000; stroke-width:39.3701; stroke-opacity:1; 
stroke-linecap:round; stroke-linejoin:round;">
</g>
<g style="fill:#000000; fill-opacity:0.0; 
stroke:#000000; stroke-width:59.0551; stroke-opacity:1; 
stroke-linecap:round; stroke-linejoin:round;">
<path d="M102362 4724
L102362 3937
" />
</g>
<g style="fill:#000000; fill-opacity:0.0; 
stroke:#000000; stroke-width:39.3701; stroke-opacity:1; 
stroke-linecap:round; stroke-linejoin:round;">
</g>
<g style="fill:#000000; fill-opacity:0.0; 
stroke:#000000; stroke-width:59.0551; stroke-opacity:1; 
stroke-linecap:round; stroke-linejoin:round;">
<path d="M14199 4562
L13906 4562
" />
<path d="M14052 4562
L14052 4050
L14004 4123
L13955 4172
L13906 4196
" />
</g>
<g style="fill:#000000; fill-opacity:0.0; 
stroke:#000000; stroke-width:39.3701; stroke-opacity:1; 
stroke-linecap:round; stroke-linejoin:round;">
</g>
<g style="fill:#000000; fill-opacity:0.0; 
stroke:#000000; stroke-width:59.0551; stroke-opacity:1; 
stroke-linecap:round; stroke-linejoin:round;">
<path d="M33591 4099
L33615 4074
L33664 4050
L33786 4050
L33835 4074
L33859 4099
L33884 4147
L33884 4196
L33859 4269
L33567 4562
L33884 4562
" />
</g>
<g style="fill:#000000; fill-opacity:0.0; 
stroke:#000000; stroke-width:39.3701; stroke-opacity:1; 
stroke-linecap:round; stroke-linejoin:round;">
</g>
<g style="fill:#000000; fill-opacity:0.0; 
stroke:#000000; stroke-width:59.0551; stroke-opacity:1; 
stroke-linecap:round; stroke-linejoin:round;">
<path d="M53252 4050
L53569 4050
L53398 4245
L53471 4245
L53520 4269
L53544 4294
L53569 4342
L53569 4464
L53544 4513
L53520 4537
L53471 4562
L53325 4562
L53276 4537
L53252 4513
" />
</g>
<g style="fill:#000000; fill-opacity:0.0; 
stroke:#000000; stroke-width:39.3701; stroke-opacity:1; 
stroke-linecap:round; stroke-linejoin:round;">
</g>
<g style="fill:#000000; fill-opacity:0.0; 
stroke:#000000; stroke-width:59.0551; stroke-opacity:1; 
stroke-linecap:round; stroke-linejoin:round;">
<path d="M73205 4221
L73205 4562
" />
<path d="M73083 4026
L72961 4391
L73278 4391
" />
</g>
<g style="fill:#000000; fill-opacity:0.0; 
stroke:#000000; stroke-width:39.3701; stroke-opacity:1; 
stroke-linecap:round; stroke-linejoin:round;">
</g>
<g style="fill:#000000; fill-opacity:0.0; 
stroke:#000000; stroke-width:59.0551; stroke-opacity:1; 
stroke-linecap:round; stroke-linejoin:round;">
<path d="M92914 4050
L92671 4050
L92646 4294
L92671 4269
L92719 4245
L92841 4245
L92890 4269
L92914 4294
L92939 4342
L92939 4464
L92914 4513
L92890 4537
L92841 4562
L92719 4562
L92671 4537
L92646 4513
" />
</g>
<g style="fill:#000000; fill-opacity:0.0; 
stroke:#000000; stroke-width:39.3701; stroke-opacity:1; 
stroke-linecap:round; stroke-linejoin:round;">
</g>
<g style="fill:#000000; fill-opacity:0.0; 
stroke:#000000; stroke-width:59.0551; stroke-opacity:1; 
stroke-linecap:round; stroke-linejoin:round;">
<path d="M112575 4050
L112477 4050
L112429 4074
L112404 4099
L112356 4172
L112331 4269
L112331 4464
L112356 4513
L112380 4537
L112429 4562
L112526 4562
L112575 4537
L112599 4513
L112624 4464
L112624 4342
L112599 4294
L112575 4269
L112526 4245
L112429 4245
L112380 4269
L112356 4294
L112331 4342
" />
</g>
<g style="fill:#000000; fill-opacity:0.0; 
stroke:#000000; stroke-width:39.3701; stroke-opacity:1; 
stroke-linecap:round; stroke-linejoin:round;">
</g>
<g style="fill:#000000; fill-opacity:0.0; 
stroke:#000000; stroke-width:59.0551; stroke-opacity:1; 
stroke-linecap:round; stroke-linejoin:round;">
<path d="M23622 77955
L23622 78742
" />
</g>
<g style="fill:#000000; fill-opacity:0.0; 
stroke:#000000; stroke-width:39.3701; stroke-opacity:1; 
stroke-linecap:round; stroke-linejoin:round;">
</g>
<g style="fill:#000000; fill-opacity:0.0; 
stroke:#000000; stroke-width:59.0551; stroke-opacity:1; 
stroke-linecap:round; stroke-linejoin:round;">
<path d="M43307 77955
L43307 78742
" />
</g>
<g style="fill:#000000; fill-opacity:0.0; 
stroke:#000000; stroke-width:39.3701; stroke-opacity:1; 
stroke-linecap:round; stroke-linejoin:round;">
</g>
<g style="fill:#000000; fill-opacity:0.0; 
stroke:#000000; stroke-width:59.0551; stroke-opacity:1; 
stroke-linecap:round; stroke-linejoin:round;">
<path d="M62992 77955
L62992 78742
" />
</g>
<g style="fill:#000000; fill-opacity:0.0; 
stroke:#000000; stroke-width:39.3701; stroke-opacity:1; 
stroke-linecap:round; stroke-linejoin:round;">
</g>
<g style="fill:#000000; fill-opacity:0.0; 
stroke:#000000; stroke-width:59.0551; stroke-opacity:1; 
stroke-linecap:round; stroke-linejoin:round;">
<path d="M82677 77955
L82677 78742
" />
</g>
<g style="fill:#000000; fill-opacity:0.0; 
stroke:#000000; stroke-width:39.3701; stroke-opacity:1; 
stroke-linecap:round; stroke-linejoin:round;">
</g>
<g style="fill:#000000; fill-opacity:0.0; 
stroke:#000000; stroke-width:59.0551; stroke-opacity:1; 
stroke-linecap:round; stroke-linejoin:round;">
<path d="M102362 77955
L102362 78742
" />
</g>
<g style="fill:#000000; fill-opacity:0.0; 
stroke:#000000; stroke-width:39.3701; stroke-opacity:1; 
stroke-linecap:round; stroke-linejoin:round;">
</g>
<g style="fill:#000000; fill-opacity:0.0; 
stroke:#000000; stroke-width:59.0551; stroke-opacity:1; 
stroke-linecap:round; stroke-linejoin:round;">
<path d="M14199 78580
L13906 78580
" />
<path d="M14052 78580
L14052 78069
L14004 78142
L13955 78190
L13906 78215
" />
</g>
<g style="fill:#000000; fill-opacity:0.0; 
stroke:#000000; stroke-width:39.3701; stroke-opacity:1; 
stroke-linecap:round; stroke-linejoin:round;">
</g>
<g style="fill:#000000; fill-opacity:0.0; 
stroke:#000000; stroke-width:59.0551; stroke-opacity:1; 
stroke-linecap:round; stroke-linejoin:round;">
<path d="M33591 78117
L33615 78093
L33664 78069
L33786 78069
L33835 78093
L33859 78117
L33884 78166
L33884 78215
L33859 78288
L33567 78580
L33884 78580
" />
</g>
<g style="fill:#000000; fill-opacity:0.0; 
stroke:#000000; stroke-width:39.3701; stroke-opacity:1; 
stroke-linecap:round; stroke-linejoin:round;">
</g>
<g style="fill:#000000; fill-opacity:0.0; 
stroke:#000000; stroke-width:59.0551; stroke-opacity:1; 
stroke-linecap:round; stroke-linejoin:round;">
<path d="M53252 78069
L53569 78069
L53398 78263
L53471 78263
L53520 78288
L53544 78312
L53569 78361
L53569 78483
L53544 78532
L53520 78556
L53471 78580
L53325 78580
L53276 78556
L53252 78532
" />
</g>
<g style="fill:#000000; fill-opacity:0.0; 
stroke:#000000; stroke-width:39.3701; stroke-opacity:1; 
stroke-linecap:round; stroke-linejoin:round;">
</g>
<g style="fill:#000000; fill-opacity:0.0; 
stroke:#000000; stroke-width:59.0551; stroke-opacity:1; 
stroke-linecap:round; stroke-linejoin:round;">
<path d="M73205 78239
L73205 78580
" />
<path d="M73083 78044
L72961 78410
L73278 78410
" />
</g>
<g style="fill:#000000; fill-opacity:0.0; 
stroke:#000000; stroke-width:39.3701; stroke-opacity:1; 
stroke-linecap:round; stroke-linejoin:round;">
</g>
<g style="fill:#000000; fill-opacity:0.0; 
stroke:#000000; stroke-width:59.0551; stroke-opacity:1; 
stroke-linecap:round; stroke-linejoin:round;">
<path d="M92914 78069
L92671 78069
L92646 78312
L92671 78288
L92719 78263
L92841 78263
L92890 78288
L92914 78312
L92939 78361
L92939 78483
L92914 78532
L92890 78556
L92841 78580
L92719 78580
L92671 78556
L92646 78532
" />
</g>
<g style="fill:#000000; fill-opacity:0.0; 
stroke:#000000; stroke-width:39.3701; stroke-opacity:1; 
stroke-linecap:round; stroke-linejoin:round;">
</g>
<g style="fill:#000000; fill-opacity:0.0; 
stroke:#000000; stroke-width:59.0551; stroke-opacity:1; 
stroke-linecap:round; stroke-linejoin:round;">
<path d="M112575 78069
L112477 78069
L112429 78093
L112404 78117
L112356 78190
L112331 78288
L112331 78483
L112356 78532
L112380 78556
L112429 78580
L112526 78580
L112575 78556
L112599 78532
L112624 78483
L112624 78361
L112599 78312
L112575 78288
L112526 78263
L112429 78263
L112380 78288
L112356 78312
L112331 78361
" />
</g>
<g style="fill:#000000; fill-opacity:0.0; 
stroke:#000000; stroke-width:39.3701; stroke-opacity:1; 
stroke-linecap:round; stroke-linejoin:round;">
</g>
<g style="fill:#000000; fill-opacity:0.0; 
stroke:#000000; stroke-width:59.0551; stroke-opacity:1; 
stroke-linecap:round; stroke-linejoin:round;">
<path d="M3937 23622
L4724 23622
" />
</g>
<g style="fill:#000000; fill-opacity:0.0; 
stroke:#000000; stroke-width:39.3701; stroke-opacity:1; 
stroke-linecap:round; stroke-linejoin:round;">
</g>
<g style="fill:#000000; fill-opacity:0.0; 
stroke:#000000; stroke-width:59.0551; stroke-opacity:1; 
stroke-linecap:round; stroke-linejoin:round;">
<path d="M3937 43307
L4724 43307
" />
</g>
<g style="fill:#000000; fill-opacity:0.0; 
stroke:#000000; stroke-width:39.3701; stroke-opacity:1; 
stroke-linecap:round; stroke-linejoin:round;">
</g>
<g style="fill:#000000; fill-opacity:0.0; 
stroke:#000000; stroke-width:59.0551; stroke-opacity:1; 
stroke-linecap:round; stroke-linejoin:round;">
<path d="M3937 62992
L4724 62992
" />
</g>
<g style="fill:#000000; fill-opacity:0.0; 
stroke:#000000; stroke-width:39.3701; stroke-opacity:1; 
stroke-linecap:round; stroke-linejoin:round;">
</g>
<g style="fill:#000000; fill-opacity:0.0; 
stroke:#000000; stroke-width:59.0551; stroke-opacity:1; 
stroke-linecap:round; stroke-linejoin:round;">
<path d="M4208 13864
L4452 13864
" />
<path d="M4160 14011
L4330 13499
L4501 14011
" />
</g>
<g style="fill:#000000; fill-opacity:0.0; 
stroke:#000000; stroke-width:39.3701; stroke-opacity:1; 
stroke-linecap:round; stroke-linejoin:round;">
</g>
<g style="fill:#000000; fill-opacity:0.0; 
stroke:#000000; stroke-width:59.0551; stroke-opacity:1; 
stroke-linecap:round; stroke-linejoin:round;">
<path d="M4367 33428
L4440 33452
L4464 33476
L4489 33525
L4489 33598
L4464 33647
L4440 33671
L4391 33696
L4196 33696
L4196 33184
L4367 33184
L4416 33208
L4440 33233
L4464 33281
L4464 33330
L4440 33379
L4416 33403
L4367 33428
L4196 33428
" />
</g>
<g style="fill:#000000; fill-opacity:0.0; 
stroke:#000000; stroke-width:39.3701; stroke-opacity:1; 
stroke-linecap:round; stroke-linejoin:round;">
</g>
<g style="fill:#000000; fill-opacity:0.0; 
stroke:#000000; stroke-width:59.0551; stroke-opacity:1; 
stroke-linecap:round; stroke-linejoin:round;">
<path d="M4489 53332
L4464 53356
L4391 53381
L4342 53381
L4269 53356
L4221 53308
L4196 53259
L4172 53161
L4172 53088
L4196 52991
L4221 52942
L4269 52893
L4342 52869
L4391 52869
L4464 52893
L4489 52918
" />
</g>
<g style="fill:#000000; fill-opacity:0.0; 
stroke:#000000; stroke-width:39.3701; stroke-opacity:1; 
stroke-linecap:round; stroke-linejoin:round;">
</g>
<g style="fill:#000000; fill-opacity:0.0; 
stroke:#000000; stroke-width:59.0551; stroke-opacity:1; 
stroke-linecap:round; stroke-linejoin:round;">
<path d="M4196 73066
L4196 72554
L4318 72554
L4391 72578
L4440 72627
L4464 72676
L4489 72773
L4489 72846
L4464 72944
L4440 72993
L4391 73041
L4318 73066
L4196 73066
" />
</g>
<g style="fill:#000000; fill-opacity:0.0; 
stroke:#000000; stroke-width:39.3701; stroke-opacity:1; 
stroke-linecap:round; stroke-linejoin:round;">
</g>
<g style="fill:#000000; fill-opacity:0.0; 
stroke:#000000; stroke-width:59.0551; stroke-opacity:1; 
stroke-linecap:round; stroke-linejoin:round;">
<path d="M112992 23622
L112205 23622
" />
</g>
<g style="fill:#000000; fill-opacity:0.0; 
stroke:#000000; stroke-width:39.3701; stroke-opacity:1; 
stroke-linecap:round; stroke-linejoin:round;">
</g>
<g style="fill:#000000; fill-opacity:0.0; 
stroke:#000000; stroke-width:59.0551; stroke-opacity:1; 
stroke-linecap:round; stroke-linejoin:round;">
<path d="M112992 43307
L112205 43307
" />
</g>
<g style="fill:#000000; fill-opacity:0.0; 
stroke:#000000; stroke-width:39.3701; stroke-opacity:1; 
stroke-linecap:round; stroke-linejoin:round;">
</g>
<g style="fill:#000000; fill-opacity:0.0; 
stroke:#000000; stroke-width:59.0551; stroke-opacity:1; 
stroke-linecap:round; stroke-linejoin:round;">
<path d="M112992 62992
L112205 62992
" />
</g>
<g style="fill:#000000; fill-opacity:0.0; 
stroke:#000000; stroke-width:39.3701; stroke-opacity:1; 
stroke-linecap:round; stroke-linejoin:round;">
</g>
<g style="fill:#000000; fill-opacity:0.0; 
stroke:#000000; stroke-width:59.0551; stroke-opacity:1; 
stroke-linecap:round; stroke-linejoin:round;">
<path d="M112477 13864
L112721 13864
" />
<path d="M112428 14011
L112599 13499
L112769 14011
" />
</g>
<g style="fill:#000000; fill-opacity:0.0; 
stroke:#000000; stroke-width:39.3701; stroke-opacity:1; 
stroke-linecap:round; stroke-linejoin:round;">
</g>
<g style="fill:#000000; fill-opacity:0.0; 
stroke:#000000; stroke-width:59.0551; stroke-opacity:1; 
stroke-linecap:round; stroke-linejoin:round;">
<path d="M112635 33428
L112708 33452
L112733 33476
L112757 33525
L112757 33598
L112733 33647
L112708 33671
L112660 33696
L112465 33696
L112465 33184
L112635 33184
L112684 33208
L112708 33233
L112733 33281
L112733 33330
L112708 33379
L112684 33403
L112635 33428
L112465 33428
" />
</g>
<g style="fill:#000000; fill-opacity:0.0; 
stroke:#000000; stroke-width:39.3701; stroke-opacity:1; 
stroke-linecap:round; stroke-linejoin:round;">
</g>
<g style="fill:#000000; fill-opacity:0.0; 
stroke:#000000; stroke-width:59.0551; stroke-opacity:1; 
stroke-linecap:round; stroke-linejoin:round;">
<path d="M112757 53332
L112733 53356
L112660 53381
L112611 53381
L112538 53356
L112489 53308
L112465 53259
L112440 53161
L112440 53088
L112465 52991
L112489 52942
L112538 52893
L112611 52869
L112660 52869
L112733 52893
L112757 52918
" />
</g>
<g style="fill:#000000; fill-opacity:0.0; 
stroke:#000000; stroke-width:39.3701; stroke-opacity:1; 
stroke-linecap:round; stroke-linejoin:round;">
</g>
<g style="fill:#000000; fill-opacity:0.0; 
stroke:#000000; stroke-width:59.0551; stroke-opacity:1; 
stroke-linecap:round; stroke-linejoin:round;">
<path d="M112465 73066
L112465 72554
L112587 72554
L112660 72578
L112708 72627
L112733 72676
L112757 72773
L112757 72846
L112733 72944
L112708 72993
L112660 73041
L112587 73066
L112465 73066
" />
</g>
<g style="fill:#000000; fill-opacity:0.0; 
stroke:#000000; stroke-width:39.3701; stroke-opacity:1; 
stroke-linecap:round; stroke-linejoin:round;">
</g>
<g style="fill:#000000; fill-opacity:0.0; 
stroke:#000000; stroke-width:59.0551; stroke-opacity:1; 
stroke-linecap:round; stroke-linejoin:round;">
<path d="M78911 76293
L78911 75703
L79051 75703
L79136 75731
L79192 75787
L79220 75843
L79248 75956
L79248 76040
L79220 76153
L79192 76209
L79136 76265
L79051 76293
L78911 76293
" />
<path d="M79754 76293
L79754 75984
L79726 75928
L79670 75899
L79557 75899
L79501 75928
" />
<path d="M79754 76265
L79698 76293
L79557 76293
L79501 76265
L79473 76209
L79473 76153
L79501 76096
L79557 76068
L79698 76068
L79754 76040
" />
<path d="M79951 75899
L80176 75899
" />
<path d="M80036 75703
L80036 76209
L80064 76265
L80120 76293
L80176 76293
" />
<path d="M80598 76265
L80542 76293
L80429 76293
L80373 76265
L80345 76209
L80345 75984
L80373 75928
L80429 75899
L80542 75899
L80598 75928
L80626 75984
L80626 76040
L80345 76096
" />
<path d="M80879 76237
L80907 76265
L80879 76293
L80851 76265
L80879 76237
L80879 76293
" />
<path d="M80879 75928
L80907 75956
L80879 75984
L80851 75956
L80879 75928
L80879 75984
" />
</g>
<g style="fill:#000000; fill-opacity:0.0; 
stroke:#000000; stroke-width:39.3701; stroke-opacity:1; 
stroke-linecap:round; stroke-linejoin:round;">
</g>
<g style="fill:#000000; fill-opacity:0.0; 
stroke:#000000; stroke-width:59.0551; stroke-opacity:1; 
stroke-linecap:round; stroke-linejoin:round;">
<path d="M69685 76577
L112205 76577
" />
</g>
<g style="fill:#000000; fill-opacity:0.0; 
stroke:#000000; stroke-width:39.3701; stroke-opacity:1; 
stroke-linecap:round; stroke-linejoin:round;">
</g>
<g style="fill:#000000; fill-opacity:0.0; 
stroke:#000000; stroke-width:59.0551; stroke-opacity:1; 
stroke-linecap:round; stroke-linejoin:round;">
<path d="M70249 77395
L70249 76805
" />
<path d="M70587 77395
L70334 77058
" />
<path d="M70587 76805
L70249 77142
" />
<path d="M70840 77395
L70840 77002
" />
<path d="M70840 76805
L70812 76833
L70840 76861
L70868 76833
L70840 76805
L70840 76861
" />
<path d="M71458 77339
L71430 77367
L71346 77395
L71290 77395
L71205 77367
L71149 77311
L71121 77255
L71093 77142
L71093 77058
L71121 76946
L71149 76889
L71205 76833
L71290 76805
L71346 76805
L71430 76833
L71458 76861
" />
<path d="M71965 77395
L71965 77086
L71937 77030
L71880 77002
L71768 77002
L71712 77030
" />
<path d="M71965 77367
L71908 77395
L71768 77395
L71712 77367
L71683 77311
L71683 77255
L71712 77199
L71768 77171
L71908 77171
L71965 77142
" />
<path d="M72499 77395
L72499 76805
" />
<path d="M72499 77367
L72443 77395
L72330 77395
L72274 77367
L72246 77339
L72218 77283
L72218 77114
L72246 77058
L72274 77030
L72330 77002
L72443 77002
L72499 77030
" />
<path d="M73230 77086
L73427 77086
" />
<path d="M73511 77395
L73230 77395
L73230 76805
L73511 76805
" />
<path d="M73764 77339
L73793 77367
L73764 77395
L73736 77367
L73764 77339
L73764 77395
" />
<path d="M74046 77395
L74046 76805
L74186 76805
L74271 76833
L74327 76889
L74355 76946
L74383 77058
L74383 77142
L74355 77255
L74327 77311
L74271 77367
L74186 77395
L74046 77395
" />
<path d="M74636 77339
L74664 77367
L74636 77395
L74608 77367
L74636 77339
L74636 77395
" />
<path d="M74889 77227
L75171 77227
" />
<path d="M74833 77395
L75030 76805
L75227 77395
" />
<path d="M75424 77339
L75452 77367
L75424 77395
L75395 77367
L75424 77339
L75424 77395
" />
<path d="M76605 77395
L76605 76805
" />
<path d="M76661 77171
L76830 77395
" />
<path d="M76830 77002
L76605 77227
" />
<path d="M77083 77395
L77083 77002
" />
<path d="M77083 76805
L77055 76833
L77083 76861
L77111 76833
L77083 76805
L77083 76861
" />
<path d="M77617 77367
L77561 77395
L77448 77395
L77392 77367
L77364 77339
L77336 77283
L77336 77114
L77364 77058
L77392 77030
L77448 77002
L77561 77002
L77617 77030
" />
<path d="M78123 77395
L78123 77086
L78095 77030
L78039 77002
L77926 77002
L77870 77030
" />
<path d="M78123 77367
L78067 77395
L77926 77395
L77870 77367
L77842 77311
L77842 77255
L77870 77199
L77926 77171
L78067 77171
L78123 77142
" />
<path d="M78658 77395
L78658 76805
" />
<path d="M78658 77367
L78601 77395
L78489 77395
L78433 77367
L78404 77339
L78376 77283
L78376 77114
L78404 77058
L78433 77030
L78489 77002
L78601 77002
L78658 77030
" />
<path d="M79389 77002
L79389 77395
" />
<path d="M79389 77058
L79417 77030
L79473 77002
L79557 77002
L79614 77030
L79642 77086
L79642 77395
" />
<path d="M80007 77395
L79951 77367
L79923 77339
L79895 77283
L79895 77114
L79923 77058
L79951 77030
L80007 77002
L80092 77002
L80148 77030
L80176 77058
L80204 77114
L80204 77283
L80176 77339
L80148 77367
L80092 77395
L80007 77395
" />
<path d="M80457 77171
L80907 77171
" />
<path d="M81132 77002
L81273 77395
L81413 77002
" />
<path d="M81892 77367
L81835 77395
L81723 77395
L81667 77367
L81638 77339
L81610 77283
L81610 77114
L81638 77058
L81667 77030
L81723 77002
L81835 77002
L81892 77030
" />
<path d="M82117 77367
L82173 77395
L82285 77395
L82341 77367
L82370 77311
L82370 77283
L82341 77227
L82285 77199
L82201 77199
L82145 77171
L82117 77114
L82117 77086
L82145 77030
L82201 77002
L82285 77002
L82341 77030
" />
<path d="M82623 77171
L83073 77171
" />
<path d="M83269 77002
L83494 77002
" />
<path d="M83354 77395
L83354 76889
L83382 76833
L83438 76805
L83494 76805
" />
<path d="M83776 77395
L83719 77367
L83691 77339
L83663 77283
L83663 77114
L83691 77058
L83719 77030
L83776 77002
L83860 77002
L83916 77030
L83944 77058
L83973 77114
L83973 77283
L83944 77339
L83916 77367
L83860 77395
L83776 77395
" />
<path d="M84479 77002
L84479 77395
" />
<path d="M84226 77002
L84226 77311
L84254 77367
L84310 77395
L84394 77395
L84451 77367
L84479 77339
" />
<path d="M84760 77002
L84760 77395
" />
<path d="M84760 77058
L84788 77030
L84844 77002
L84929 77002
L84985 77030
L85013 77086
L85013 77395
" />
<path d="M85547 77395
L85547 76805
" />
<path d="M85547 77367
L85491 77395
L85379 77395
L85322 77367
L85294 77339
L85266 77283
L85266 77114
L85294 77058
L85322 77030
L85379 77002
L85491 77002
L85547 77030
" />
<path d="M85829 77171
L86278 77171
" />
<path d="M86588 77395
L86700 77395
L86757 77367
L86785 77339
L86841 77255
L86869 77142
L86869 76917
L86841 76861
L86813 76833
L86757 76805
L86644 76805
L86588 76833
L86560 76861
L86532 76917
L86532 77058
L86560 77114
L86588 77142
L86644 77171
L86757 77171
L86813 77142
L86841 77114
L86869 77058
" />
<path d="M87122 77395
L87122 76805
" />
<path d="M87122 77030
L87178 77002
L87291 77002
L87347 77030
L87375 77058
L87403 77114
L87403 77283
L87375 77339
L87347 77367
L87291 77395
L87178 77395
L87122 77367
" />
<path d="M87910 77002
L87910 77395
" />
<path d="M87769 76777
L87628 77199
L87994 77199
" />
<path d="M88444 77367
L88388 77395
L88275 77395
L88219 77367
L88191 77311
L88191 77086
L88219 77030
L88275 77002
L88388 77002
L88444 77030
L88472 77086
L88472 77142
L88191 77199
" />
<path d="M88978 77395
L88978 76805
" />
<path d="M88978 77367
L88922 77395
L88809 77395
L88753 77367
L88725 77339
L88697 77283
L88697 77114
L88725 77058
L88753 77030
L88809 77002
L88922 77002
L88978 77030
" />
<path d="M89512 77395
L89512 76805
" />
<path d="M89512 77367
L89456 77395
L89344 77395
L89287 77367
L89259 77339
L89231 77283
L89231 77114
L89259 77058
L89287 77030
L89344 77002
L89456 77002
L89512 77030
" />
<path d="M89794 77395
L89794 76805
" />
<path d="M89794 77030
L89850 77002
L89962 77002
L90019 77030
L90047 77058
L90075 77114
L90075 77283
L90047 77339
L90019 77367
L89962 77395
L89850 77395
L89794 77367
" />
<path d="M90285 76644
L90750 76644
" />
<path d="M90581 76805
L90469 76805
L90412 76833
L90384 76861
L90328 76946
L90300 77058
L90300 77283
L90328 77339
L90356 77367
L90412 77395
L90525 77395
L90581 77367
L90609 77339
L90637 77283
L90637 77142
L90609 77086
L90581 77058
L90525 77030
L90412 77030
L90356 77058
L90328 77086
L90300 77142
" />
<path d="M90750 76644
L91312 76644
" />
<path d="M91003 76805
L91059 76805
L91115 76833
L91144 76861
L91172 76917
L91200 77030
L91200 77171
L91172 77283
L91144 77339
L91115 77367
L91059 77395
L91003 77395
L90947 77367
L90919 77339
L90890 77283
L90862 77171
L90862 77030
L90890 76917
L90919 76861
L90947 76833
L91003 76805
" />
<path d="M91706 77002
L91706 77395
" />
<path d="M91453 77002
L91453 77311
L91481 77367
L91537 77395
L91622 77395
L91678 77367
L91706 77339
" />
<path d="M91987 77395
L91987 76805
" />
<path d="M91987 77030
L92043 77002
L92156 77002
L92212 77030
L92240 77058
L92268 77114
L92268 77283
L92240 77339
L92212 77367
L92156 77395
L92043 77395
L91987 77367
" />
<path d="M92775 77002
L92775 77395
" />
<path d="M92521 77002
L92521 77311
L92550 77367
L92606 77395
L92690 77395
L92746 77367
L92775 77339
" />
<path d="M93056 77002
L93056 77395
" />
<path d="M93056 77058
L93084 77030
L93140 77002
L93224 77002
L93281 77030
L93309 77086
L93309 77395
" />
<path d="M93506 77002
L93731 77002
" />
<path d="M93590 76805
L93590 77311
L93618 77367
L93674 77395
L93731 77395
" />
<path d="M94181 77002
L94181 77395
" />
<path d="M93928 77002
L93928 77311
L93956 77367
L94012 77395
L94096 77395
L94153 77367
L94181 77339
" />
<path d="M94771 77395
L94434 77395
" />
<path d="M94602 77395
L94602 76805
L94546 76889
L94490 76946
L94434 76974
" />
<path d="M95277 76805
L95165 76805
L95109 76833
L95081 76861
L95024 76946
L94996 77058
L94996 77283
L95024 77339
L95052 77367
L95109 77395
L95221 77395
L95277 77367
L95305 77339
L95334 77283
L95334 77142
L95305 77086
L95277 77058
L95221 77030
L95109 77030
L95052 77058
L95024 77086
L94996 77142
" />
<path d="M95587 77339
L95615 77367
L95587 77395
L95559 77367
L95587 77339
L95587 77395
" />
<path d="M95980 76805
L96037 76805
L96093 76833
L96121 76861
L96149 76917
L96177 77030
L96177 77171
L96149 77283
L96121 77339
L96093 77367
L96037 77395
L95980 77395
L95924 77367
L95896 77339
L95868 77283
L95840 77171
L95840 77030
L95868 76917
L95896 76861
L95924 76833
L95980 76805
" />
<path d="M96683 77002
L96683 77395
" />
<path d="M96543 76777
L96402 77199
L96768 77199
" />
<path d="M96993 77339
L97021 77367
L96993 77395
L96965 77367
L96993 77339
L96993 77395
" />
<path d="M97583 77395
L97246 77395
" />
<path d="M97415 77395
L97415 76805
L97358 76889
L97302 76946
L97246 76974
" />
</g>
<g style="fill:#000000; fill-opacity:0.0; 
stroke:#000000; stroke-width:39.3701; stroke-opacity:1; 
stroke-linecap:round; stroke-linejoin:round;">
</g>
<g style="fill:#000000; fill-opacity:0.0; 
stroke:#000000; stroke-width:59.0551; stroke-opacity:1; 
stroke-linecap:round; stroke-linejoin:round;">
<path d="M69685 75396
L112205 75396
" />
</g>
<g style="fill:#000000; fill-opacity:0.0; 
stroke:#000000; stroke-width:39.3701; stroke-opacity:1; 
stroke-linecap:round; stroke-linejoin:round;">
</g>
<g style="fill:#000000; fill-opacity:0.0; 
stroke:#000000; stroke-width:118.11; stroke-opacity:1; 
stroke-linecap:round; stroke-linejoin:round;">
<path d="M104099 76293
L103902 76012
" />
<path d="M103761 76293
L103761 75703
L103986 75703
L104042 75731
L104070 75759
L104099 75815
L104099 75899
L104070 75956
L104042 75984
L103986 76012
L103761 76012
" />
<path d="M104577 76265
L104520 76293
L104408 76293
L104352 76265
L104323 76209
L104323 75984
L104352 75928
L104408 75899
L104520 75899
L104577 75928
L104605 75984
L104605 76040
L104323 76096
" />
<path d="M104802 75899
L104942 76293
L105083 75899
" />
<path d="M105308 76237
L105336 76265
L105308 76293
L105280 76265
L105308 76237
L105308 76293
" />
<path d="M105308 75928
L105336 75956
L105308 75984
L105280 75956
L105308 75928
L105308 75984
" />
</g>
<g style="fill:#000000; fill-opacity:0.0; 
stroke:#000000; stroke-width:39.3701; stroke-opacity:1; 
stroke-linecap:round; stroke-linejoin:round;">
</g>
<g style="fill:#000000; fill-opacity:0.0; 
stroke:#000000; stroke-width:59.0551; stroke-opacity:1; 
stroke-linecap:round; stroke-linejoin:round;">
<path d="M70221 76265
L70305 76293
L70446 76293
L70502 76265
L70530 76237
L70559 76181
L70559 76124
L70530 76068
L70502 76040
L70446 76012
L70334 75984
L70277 75956
L70249 75928
L70221 75871
L70221 75815
L70249 75759
L70277 75731
L70334 75703
L70474 75703
L70559 75731
" />
<path d="M70812 76293
L70812 75899
" />
<path d="M70812 75703
L70784 75731
L70812 75759
L70840 75731
L70812 75703
L70812 75759
" />
<path d="M71037 75899
L71346 75899
L71037 76293
L71346 76293
" />
<path d="M71796 76265
L71740 76293
L71627 76293
L71571 76265
L71543 76209
L71543 75984
L71571 75928
L71627 75899
L71740 75899
L71796 75928
L71824 75984
L71824 76040
L71543 76096
" />
<path d="M72077 76237
L72105 76265
L72077 76293
L72049 76265
L72077 76237
L72077 76293
" />
<path d="M72077 75928
L72105 75956
L72077 75984
L72049 75956
L72077 75928
L72077 75984
" />
<path d="M72780 76124
L73061 76124
" />
<path d="M72724 76293
L72921 75703
L73118 76293
" />
<path d="M73568 75899
L73568 76293
" />
<path d="M73427 75674
L73286 76096
L73652 76096
" />
</g>
<g style="fill:#000000; fill-opacity:0.0; 
stroke:#000000; stroke-width:39.3701; stroke-opacity:1; 
stroke-linecap:round; stroke-linejoin:round;">
</g>
<g style="fill:#000000; fill-opacity:0.0; 
stroke:#000000; stroke-width:59.0551; stroke-opacity:1; 
stroke-linecap:round; stroke-linejoin:round;">
<path d="M103714 77395
L103714 76805
" />
<path d="M104248 77395
L104248 76805
" />
<path d="M104248 77367
L104192 77395
L104079 77395
L104023 77367
L103995 77339
L103967 77283
L103967 77114
L103995 77058
L104023 77030
L104079 77002
L104192 77002
L104248 77030
" />
<path d="M104529 77339
L104557 77367
L104529 77395
L104501 77367
L104529 77339
L104529 77395
" />
<path d="M104529 77030
L104557 77058
L104529 77086
L104501 77058
L104529 77030
L104529 77086
" />
<path d="M105570 77395
L105232 77395
" />
<path d="M105401 77395
L105401 76805
L105345 76889
L105289 76946
L105232 76974
" />
<path d="M106245 76777
L105739 77536
" />
<path d="M106751 77395
L106413 77395
" />
<path d="M106582 77395
L106582 76805
L106526 76889
L106470 76946
L106413 76974
" />
</g>
<g style="fill:#000000; fill-opacity:0.0; 
stroke:#000000; stroke-width:39.3701; stroke-opacity:1; 
stroke-linecap:round; stroke-linejoin:round;">
</g>
<g style="fill:#000000; fill-opacity:0.0; 
stroke:#000000; stroke-width:59.0551; stroke-opacity:1; 
stroke-linecap:round; stroke-linejoin:round;">
<path d="M69685 73821
L112205 73821
" />
</g>
<g style="fill:#000000; fill-opacity:0.0; 
stroke:#000000; stroke-width:39.3701; stroke-opacity:1; 
stroke-linecap:round; stroke-linejoin:round;">
</g>
<g style="fill:#000000; fill-opacity:0.0; 
stroke:#000000; stroke-width:157.48; stroke-opacity:1; 
stroke-linecap:round; stroke-linejoin:round;">
<path d="M70360 74099
L70810 74099
" />
<path d="M70486 74886
L70585 74099
" />
<path d="M70974 74886
L71039 74361
" />
<path d="M71072 74099
L71030 74136
L71063 74174
L71105 74136
L71072 74099
L71063 74174
" />
<path d="M71302 74361
L71602 74361
" />
<path d="M71447 74099
L71363 74774
L71391 74849
L71461 74886
L71536 74886
" />
<path d="M71911 74886
L71841 74849
L71813 74774
L71897 74099
" />
<path d="M72516 74849
L72436 74886
L72286 74886
L72216 74849
L72187 74774
L72225 74474
L72272 74399
L72352 74361
L72501 74361
L72572 74399
L72600 74474
L72591 74549
L72206 74624
" />
<path d="M72895 74811
L72928 74849
L72886 74886
L72853 74849
L72895 74811
L72886 74886
" />
<path d="M72947 74399
L72980 74436
L72937 74474
L72905 74436
L72947 74399
L72937 74474
" />
</g>
<g style="fill:#000000; fill-opacity:0.0; 
stroke:#000000; stroke-width:39.3701; stroke-opacity:1; 
stroke-linecap:round; stroke-linejoin:round;">
</g>
<g style="fill:#000000; fill-opacity:0.0; 
stroke:#000000; stroke-width:59.0551; stroke-opacity:1; 
stroke-linecap:round; stroke-linejoin:round;">
<path d="M70446 73070
L70249 73070
" />
<path d="M70249 73380
L70249 72789
L70530 72789
" />
<path d="M70755 73380
L70755 72986
" />
<path d="M70755 72789
L70727 72817
L70755 72845
L70784 72817
L70755 72789
L70755 72845
" />
<path d="M71121 73380
L71065 73352
L71037 73295
L71037 72789
" />
<path d="M71571 73352
L71515 73380
L71402 73380
L71346 73352
L71318 73295
L71318 73070
L71346 73014
L71402 72986
L71515 72986
L71571 73014
L71599 73070
L71599 73127
L71318 73183
" />
<path d="M71852 73323
L71880 73352
L71852 73380
L71824 73352
L71852 73323
L71852 73380
" />
<path d="M71852 73014
L71880 73042
L71852 73070
L71824 73042
L71852 73014
L71852 73070
" />
<path d="M72696 72789
L72808 72789
L72865 72817
L72921 72874
L72949 72986
L72949 73183
L72921 73295
L72865 73352
L72808 73380
L72696 73380
L72640 73352
L72583 73295
L72555 73183
L72555 72986
L72583 72874
L72640 72817
L72696 72789
" />
<path d="M73202 72986
L73202 73577
" />
<path d="M73202 73014
L73258 72986
L73371 72986
L73427 73014
L73455 73042
L73483 73099
L73483 73267
L73455 73323
L73427 73352
L73371 73380
L73258 73380
L73202 73352
" />
<path d="M73961 73352
L73905 73380
L73793 73380
L73736 73352
L73708 73295
L73708 73070
L73736 73014
L73793 72986
L73905 72986
L73961 73014
L73989 73070
L73989 73127
L73708 73183
" />
<path d="M74242 72986
L74242 73380
" />
<path d="M74242 73042
L74271 73014
L74327 72986
L74411 72986
L74467 73014
L74496 73070
L74496 73380
" />
<path d="M74777 73380
L74777 72789
L74917 72789
L75002 72817
L75058 72874
L75086 72930
L75114 73042
L75114 73127
L75086 73239
L75058 73295
L75002 73352
L74917 73380
L74777 73380
" />
<path d="M75367 73380
L75367 72986
" />
<path d="M75367 73099
L75395 73042
L75424 73014
L75480 72986
L75536 72986
" />
<path d="M75817 73380
L75761 73352
L75733 73323
L75705 73267
L75705 73099
L75733 73042
L75761 73014
L75817 72986
L75902 72986
L75958 73014
L75986 73042
L76014 73099
L76014 73267
L75986 73323
L75958 73352
L75902 73380
L75817 73380
" />
<path d="M76267 72986
L76267 73577
" />
<path d="M76267 73014
L76323 72986
L76436 72986
L76492 73014
L76520 73042
L76548 73099
L76548 73267
L76520 73323
L76492 73352
L76436 73380
L76323 73380
L76267 73352
" />
<path d="M76717 72789
L76914 73380
L77111 72789
" />
<path d="M77251 72789
L77617 72789
L77420 73014
L77505 73014
L77561 73042
L77589 73070
L77617 73127
L77617 73267
L77589 73323
L77561 73352
L77505 73380
L77336 73380
L77280 73352
L77251 73323
" />
<path d="M77870 73323
L77898 73352
L77870 73380
L77842 73352
L77870 73323
L77870 73380
" />
<path d="M78151 73380
L78151 72789
" />
<path d="M78208 73155
L78376 73380
" />
<path d="M78376 72986
L78151 73211
" />
<path d="M78629 73380
L78629 72986
" />
<path d="M78629 72789
L78601 72817
L78629 72845
L78658 72817
L78629 72789
L78629 72845
" />
<path d="M79164 73352
L79108 73380
L78995 73380
L78939 73352
L78911 73323
L78883 73267
L78883 73099
L78911 73042
L78939 73014
L78995 72986
L79108 72986
L79164 73014
" />
<path d="M79670 73380
L79670 73070
L79642 73014
L79586 72986
L79473 72986
L79417 73014
" />
<path d="M79670 73352
L79614 73380
L79473 73380
L79417 73352
L79389 73295
L79389 73239
L79417 73183
L79473 73155
L79614 73155
L79670 73127
" />
<path d="M80204 73380
L80204 72789
" />
<path d="M80204 73352
L80148 73380
L80036 73380
L79979 73352
L79951 73323
L79923 73267
L79923 73099
L79951 73042
L79979 73014
L80036 72986
L80148 72986
L80204 73014
" />
<path d="M80345 73436
L80795 73436
" />
<path d="M80935 72986
L80935 73577
" />
<path d="M80935 73014
L80992 72986
L81104 72986
L81160 73014
L81188 73042
L81217 73099
L81217 73267
L81188 73323
L81160 73352
L81104 73380
L80992 73380
L80935 73352
" />
<path d="M81723 73352
L81667 73380
L81554 73380
L81498 73352
L81470 73323
L81442 73267
L81442 73099
L81470 73042
L81498 73014
L81554 72986
L81667 72986
L81723 73014
" />
<path d="M81976 73380
L81976 72789
" />
<path d="M81976 73014
L82032 72986
L82145 72986
L82201 73014
L82229 73042
L82257 73099
L82257 73267
L82229 73323
L82201 73352
L82145 73380
L82032 73380
L81976 73352
" />
</g>
<g style="fill:#000000; fill-opacity:0.0; 
stroke:#000000; stroke-width:39.3701; stroke-opacity:1; 
stroke-linecap:round; stroke-linejoin:round;">
</g>
<g style="fill:#000000; fill-opacity:0.0; 
stroke:#000000; stroke-width:59.0551; stroke-opacity:1; 
stroke-linecap:round; stroke-linejoin:round;">
<path d="M69685 71459
L112205 71459
" />
</g>
<g style="fill:#000000; fill-opacity:0.0; 
stroke:#000000; stroke-width:39.3701; stroke-opacity:1; 
stroke-linecap:round; stroke-linejoin:round;">
</g>
<g style="fill:#000000; fill-opacity:0.0; 
stroke:#000000; stroke-width:59.0551; stroke-opacity:1; 
stroke-linecap:round; stroke-linejoin:round;">
<path d="M70221 72289
L70305 72317
L70446 72317
L70502 72289
L70530 72260
L70559 72204
L70559 72148
L70530 72092
L70502 72064
L70446 72036
L70334 72007
L70277 71979
L70249 71951
L70221 71895
L70221 71839
L70249 71782
L70277 71754
L70334 71726
L70474 71726
L70559 71754
" />
<path d="M70812 72317
L70812 71726
" />
<path d="M71065 72317
L71065 72007
L71037 71951
L70980 71923
L70896 71923
L70840 71951
L70812 71979
" />
<path d="M71571 72289
L71515 72317
L71402 72317
L71346 72289
L71318 72232
L71318 72007
L71346 71951
L71402 71923
L71515 71923
L71571 71951
L71599 72007
L71599 72064
L71318 72120
" />
<path d="M72077 72289
L72021 72317
L71908 72317
L71852 72289
L71824 72232
L71824 72007
L71852 71951
L71908 71923
L72021 71923
L72077 71951
L72105 72007
L72105 72064
L71824 72120
" />
<path d="M72274 71923
L72499 71923
" />
<path d="M72358 71726
L72358 72232
L72386 72289
L72443 72317
L72499 72317
" />
<path d="M72696 72260
L72724 72289
L72696 72317
L72668 72289
L72696 72260
L72696 72317
" />
<path d="M72696 71951
L72724 71979
L72696 72007
L72668 71979
L72696 71951
L72696 72007
" />
</g>
<g style="fill:#000000; fill-opacity:0.0; 
stroke:#000000; stroke-width:39.3701; stroke-opacity:1; 
stroke-linecap:round; stroke-linejoin:round;">
</g>
<g style="fill:#000000; fill-opacity:0.0; 
stroke:#000000; stroke-width:59.0551; stroke-opacity:1; 
stroke-linecap:round; stroke-linejoin:round;">
<path d="M77559 75396
L77559 76577
" />
</g>
<g style="fill:#000000; fill-opacity:0.0; 
stroke:#000000; stroke-width:39.3701; stroke-opacity:1; 
stroke-linecap:round; stroke-linejoin:round;">
</g>
<g style="fill:#000000; fill-opacity:0.0; 
stroke:#000000; stroke-width:59.0551; stroke-opacity:1; 
stroke-linecap:round; stroke-linejoin:round;">
<path d="M102756 75396
L102756 77955
" />
</g>
<g style="fill:#C2C200; fill-opacity:0.0; 
stroke:#C2C200; stroke-width:59.0551; stroke-opacity:1; 
stroke-linecap:round; stroke-linejoin:round;">
</g>
<g style="fill:#C2C200; fill-opacity:0.0; 
stroke:#C2C200; stroke-width:39.3701; stroke-opacity:1; 
stroke-linecap:round; stroke-linejoin:round;">
<path d="M55118.1 22844.5 A196.85 196.85 0.0 0 0 55118.1 22450.8 " />
<path d="M48818.9 22450.8 A196.85 196.85 0.0 0 0 48818.9 22844.5 " />
<path d="M55118 22844
L48818 22844
" />
<path d="M48818 22450
L55118 22450
" />
<path d="M20988 53903
L19681 53537
" />
<path d="M22256 54226
L20988 53903
" />
<path d="M24296 54699
L22256 54226
" />
<path d="M26626 55163
L24296 54699
" />
<path d="M28697 55510
L26626 55163
" />
<path d="M30784 55793
L28697 55510
" />
<path d="M32894 56014
L30784 55793
" />
<path d="M34937 56175
L32894 56014
" />
<path d="M36567 56258
L34937 56175
" />
<path d="M38819 56301
L36567 56258
" />
<path d="M40386 56301
L38819 56301
" />
<path d="M41815 56266
L40386 56301
" />
<path d="M43882 56163
L41815 56266
" />
<path d="M45607 56037
L43882 56163
" />
<path d="M47622 55825
L45607 56037
" />
<path d="M49197 55628
L47622 55825
" />
<path d="M51193 55321
L49197 55628
" />
<path d="M53288 54935
L51193 55321
" />
<path d="M54823 54612
L53288 54935
" />
<path d="M56284 54274
L54823 54612
" />
<path d="M57953 53844
L56284 54274
" />
<path d="M59051 53537
L57953 53844
" />
<path d="M59055.1 13779.5 A1574.8 1574.8 0.0 0 0 57480.3 12204.7 " />
<path d="M21259.8 12204.7 A1574.8 1574.8 0.0 0 0 19685 13779.5 " />
<path d="M59055 14173
L59055 21653
" />
<path d="M19685 13779
L19685 53543
" />
<path d="M59055 13779
L59055 53543
" />
<path d="M21259 12204
L57480 12204
" />
</g>
<g style="fill:#00C2C2; fill-opacity:0.0; 
stroke:#00C2C2; stroke-width:39.3701; stroke-opacity:1; 
stroke-linecap:round; stroke-linejoin:round;">
</g>
<g style="fill:#00C2C2; fill-opacity:0.0; 
stroke:#00C2C2; stroke-width:885.827; stroke-opacity:1; 
stroke-linecap:round; stroke-linejoin:round;">
<circle cx="56692.9" cy="29133.9" r="1174.32" /> 
<circle cx="22047.2" cy="29133.9" r="1174.32" /> 
<circle cx="22047.2" cy="49212.6" r="1174.32" /> 
<circle cx="56692.9" cy="49212.6" r="1174.32" /> 
</g>
<g style="fill:#008400; fill-opacity:0.0; 
stroke:#008400; stroke-width:885.827; stroke-opacity:1; 
stroke-linecap:round; stroke-linejoin:round;">
</g>
<g style="fill:#008400; fill-opacity:0.0; 
stroke:#008400; stroke-width:0; stroke-opacity:1; 
stroke-linecap:round; stroke-linejoin:round;">
</g>
<g style="fill:#008400; fill-opacity:1.0; 
stroke:#008400; stroke-width:0; stroke-opacity:1; 
stroke-linecap:round; stroke-linejoin:round;">
<polyline style="fill-rule:evenodd;"
points="57859,25433
57859,24173
59040,24173
59040,25433
57859,25433
" /> 
<polyline style="fill-rule:evenodd;"
points="29139,51432
29139,50566
30911,50566
30911,51432
29139,51432
" /> 
<polyline style="fill-rule:evenodd;"
points="29139,53401
29139,52535
30911,52535
30911,53401
29139,53401
" /> 
<polyline style="fill-rule:evenodd;"
points="41804,14979
42095,14979
42095,15924
41804,15924
41804,14979
" /> 
<polyline style="fill-rule:evenodd;"
points="41804,13443
42095,13443
42095,14388
41804,14388
41804,13443
" /> 
<polyline style="fill-rule:evenodd;"
points="41304,14979
41595,14979
41595,15924
41304,15924
41304,14979
" /> 
<polyline style="fill-rule:evenodd;"
points="41304,13443
41595,13443
41595,14388
41304,14388
41304,13443
" /> 
<polyline style="fill-rule:evenodd;"
points="40804,14979
41095,14979
41095,15924
40804,15924
40804,14979
" /> 
<polyline style="fill-rule:evenodd;"
points="40804,13443
41095,13443
41095,14388
40804,14388
40804,13443
" /> 
<polyline style="fill-rule:evenodd;"
points="40304,14979
40595,14979
40595,15924
40304,15924
40304,14979
" /> 
<polyline style="fill-rule:evenodd;"
points="40304,13443
40595,13443
40595,14388
40304,14388
40304,13443
" /> 
<polyline style="fill-rule:evenodd;"
points="39804,14979
40095,14979
40095,15924
39804,15924
39804,14979
" /> 
<polyline style="fill-rule:evenodd;"
points="39804,13443
40095,13443
40095,14388
39804,14388
39804,13443
" /> 
<polyline style="fill-rule:evenodd;"
points="44718,17351
44718,17450
44206,17450
44206,17351
44718,17351
" /> 
<polyline style="fill-rule:evenodd;"
points="44718,17548
44718,17647
44206,17647
44206,17548
44718,17548
" /> 
<polyline style="fill-rule:evenodd;"
points="44718,17745
44718,17844
44206,17844
44206,17745
44718,17745
" /> 
<polyline style="fill-rule:evenodd;"
points="44718,17942
44718,18040
44206,18040
44206,17942
44718,17942
" /> 
<polyline style="fill-rule:evenodd;"
points="44718,18139
44718,18237
44206,18237
44206,18139
44718,18139
" /> 
<polyline style="fill-rule:evenodd;"
points="44718,18336
44718,18434
44206,18434
44206,18336
44718,18336
" /> 
<polyline style="fill-rule:evenodd;"
points="44718,18533
44718,18631
44206,18631
44206,18533
44718,18533
" /> 
<polyline style="fill-rule:evenodd;"
points="44718,18729
44718,18828
44206,18828
44206,18729
44718,18729
" /> 
<polyline style="fill-rule:evenodd;"
points="44718,18926
44718,19025
44206,19025
44206,18926
44718,18926
" /> 
<polyline style="fill-rule:evenodd;"
points="44718,19123
44718,19222
44206,19222
44206,19123
44718,19123
" /> 
<polyline style="fill-rule:evenodd;"
points="44718,19320
44718,19418
44206,19418
44206,19320
44718,19320
" /> 
<polyline style="fill-rule:evenodd;"
points="44718,19517
44718,19615
44206,19615
44206,19517
44718,19517
" /> 
<polyline style="fill-rule:evenodd;"
points="43881,20452
43783,20452
43783,19940
43881,19940
43881,20452
" /> 
<polyline style="fill-rule:evenodd;"
points="43685,20452
43586,20452
43586,19940
43685,19940
43685,20452
" /> 
<polyline style="fill-rule:evenodd;"
points="43488,20452
43389,20452
43389,19940
43488,19940
43488,20452
" /> 
<polyline style="fill-rule:evenodd;"
points="43291,20452
43192,20452
43192,19940
43291,19940
43291,20452
" /> 
<polyline style="fill-rule:evenodd;"
points="43094,20452
42996,20452
42996,19940
43094,19940
43094,20452
" /> 
<polyline style="fill-rule:evenodd;"
points="42897,20452
42799,20452
42799,19940
42897,19940
42897,20452
" /> 
<polyline style="fill-rule:evenodd;"
points="42700,20452
42602,20452
42602,19940
42700,19940
42700,20452
" /> 
<polyline style="fill-rule:evenodd;"
points="42503,20452
42405,20452
42405,19940
42503,19940
42503,20452
" /> 
<polyline style="fill-rule:evenodd;"
points="42307,20452
42208,20452
42208,19940
42307,19940
42307,20452
" /> 
<polyline style="fill-rule:evenodd;"
points="42110,20452
42011,20452
42011,19940
42110,19940
42110,20452
" /> 
<polyline style="fill-rule:evenodd;"
points="41913,20452
41814,20452
41814,19940
41913,19940
41913,20452
" /> 
<polyline style="fill-rule:evenodd;"
points="41716,20452
41618,20452
41618,19940
41716,19940
41716,20452
" /> 
<polyline style="fill-rule:evenodd;"
points="41293,19517
41293,19615
40781,19615
40781,19517
41293,19517
" /> 
<polyline style="fill-rule:evenodd;"
points="41293,19320
41293,19418
40781,19418
40781,19320
41293,19320
" /> 
<polyline style="fill-rule:evenodd;"
points="41293,19123
41293,19222
40781,19222
40781,19123
41293,19123
" /> 
<polyline style="fill-rule:evenodd;"
points="41293,18926
41293,19025
40781,19025
40781,18926
41293,18926
" /> 
<polyline style="fill-rule:evenodd;"
points="41293,18729
41293,18828
40781,18828
40781,18729
41293,18729
" /> 
<polyline style="fill-rule:evenodd;"
points="41293,18533
41293,18631
40781,18631
40781,18533
41293,18533
" /> 
<polyline style="fill-rule:evenodd;"
points="41293,18336
41293,18434
40781,18434
40781,18336
41293,18336
" /> 
<polyline style="fill-rule:evenodd;"
points="41293,18139
41293,18237
40781,18237
40781,18139
41293,18139
" /> 
<polyline style="fill-rule:evenodd;"
points="41293,17942
41293,18040
40781,18040
40781,17942
41293,17942
" /> 
<polyline style="fill-rule:evenodd;"
points="41293,17745
41293,17844
40781,17844
40781,17745
41293,17745
" /> 
<polyline style="fill-rule:evenodd;"
points="41293,17548
41293,17647
40781,17647
40781,17548
41293,17548
" /> 
<polyline style="fill-rule:evenodd;"
points="41293,17351
41293,17450
40781,17450
40781,17351
41293,17351
" /> 
<polyline style="fill-rule:evenodd;"
points="41716,17027
41618,17027
41618,16515
41716,16515
41716,17027
" /> 
<polyline style="fill-rule:evenodd;"
points="41913,17027
41814,17027
41814,16515
41913,16515
41913,17027
" /> 
<polyline style="fill-rule:evenodd;"
points="42110,17027
42011,17027
42011,16515
42110,16515
42110,17027
" /> 
<polyline style="fill-rule:evenodd;"
points="42307,17027
42208,17027
42208,16515
42307,16515
42307,17027
" /> 
<polyline style="fill-rule:evenodd;"
points="42503,17027
42405,17027
42405,16515
42503,16515
42503,17027
" /> 
<polyline style="fill-rule:evenodd;"
points="42700,17027
42602,17027
42602,16515
42700,16515
42700,17027
" /> 
<polyline style="fill-rule:evenodd;"
points="42897,17027
42799,17027
42799,16515
42897,16515
42897,17027
" /> 
<polyline style="fill-rule:evenodd;"
points="43094,17027
42996,17027
42996,16515
43094,16515
43094,17027
" /> 
<polyline style="fill-rule:evenodd;"
points="43291,17027
43192,17027
43192,16515
43291,16515
43291,17027
" /> 
<polyline style="fill-rule:evenodd;"
points="43488,17027
43389,17027
43389,16515
43488,16515
43488,17027
" /> 
<polyline style="fill-rule:evenodd;"
points="43685,17027
43586,17027
43586,16515
43685,16515
43685,17027
" /> 
<polyline style="fill-rule:evenodd;"
points="43881,17027
43783,17027
43783,16515
43881,16515
43881,17027
" /> 
<polyline style="fill-rule:evenodd;"
points="54763,18759
54763,18267
54881,18267
54881,18759
54763,18759
" /> 
<polyline style="fill-rule:evenodd;"
points="53976,18759
53976,18267
54094,18267
54094,18759
53976,18759
" /> 
<polyline style="fill-rule:evenodd;"
points="54173,18759
54173,18267
54291,18267
54291,18759
54173,18759
" /> 
<polyline style="fill-rule:evenodd;"
points="54566,18759
54566,18267
54685,18267
54685,18759
54566,18759
" /> 
<polyline style="fill-rule:evenodd;"
points="54370,18759
54370,18267
54488,18267
54488,18759
54370,18759
" /> 
<polyline style="fill-rule:evenodd;"
points="53582,18759
53582,18267
53700,18267
53700,18759
53582,18759
" /> 
<polyline style="fill-rule:evenodd;"
points="53779,18759
53779,18267
53897,18267
53897,18759
53779,18759
" /> 
<polyline style="fill-rule:evenodd;"
points="53385,18759
53385,18267
53503,18267
53503,18759
53385,18759
" /> 
<polyline style="fill-rule:evenodd;"
points="53188,18759
53188,18267
53307,18267
53307,18759
53188,18759
" /> 
<polyline style="fill-rule:evenodd;"
points="52007,18759
52007,18267
52125,18267
52125,18759
52007,18759
" /> 
<polyline style="fill-rule:evenodd;"
points="52204,18759
52204,18267
52322,18267
52322,18759
52204,18759
" /> 
<polyline style="fill-rule:evenodd;"
points="52598,18759
52598,18267
52716,18267
52716,18759
52598,18759
" /> 
<polyline style="fill-rule:evenodd;"
points="52401,18759
52401,18267
52519,18267
52519,18759
52401,18759
" /> 
<polyline style="fill-rule:evenodd;"
points="52992,18759
52992,18267
53110,18267
53110,18759
52992,18759
" /> 
<polyline style="fill-rule:evenodd;"
points="52795,18759
52795,18267
52913,18267
52913,18759
52795,18759
" /> 
<polyline style="fill-rule:evenodd;"
points="49842,18759
49842,18267
49960,18267
49960,18759
49842,18759
" /> 
<polyline style="fill-rule:evenodd;"
points="50039,18759
50039,18267
50157,18267
50157,18759
50039,18759
" /> 
<polyline style="fill-rule:evenodd;"
points="49448,18759
49448,18267
49566,18267
49566,18759
49448,18759
" /> 
<polyline style="fill-rule:evenodd;"
points="49645,18759
49645,18267
49763,18267
49763,18759
49645,18759
" /> 
<polyline style="fill-rule:evenodd;"
points="49251,18759
49251,18267
49370,18267
49370,18759
49251,18759
" /> 
<polyline style="fill-rule:evenodd;"
points="49055,18759
49055,18267
49173,18267
49173,18759
49055,18759
" /> 
<polyline style="fill-rule:evenodd;"
points="50236,18759
50236,18267
50354,18267
50354,18759
50236,18759
" /> 
<polyline style="fill-rule:evenodd;"
points="50433,18759
50433,18267
50551,18267
50551,18759
50433,18759
" /> 
<polyline style="fill-rule:evenodd;"
points="50826,18759
50826,18267
50944,18267
50944,18759
50826,18759
" /> 
<polyline style="fill-rule:evenodd;"
points="50629,18759
50629,18267
50748,18267
50748,18759
50629,18759
" /> 
<polyline style="fill-rule:evenodd;"
points="51417,18759
51417,18267
51535,18267
51535,18759
51417,18759
" /> 
<polyline style="fill-rule:evenodd;"
points="51614,18759
51614,18267
51732,18267
51732,18759
51614,18759
" /> 
<polyline style="fill-rule:evenodd;"
points="51220,18759
51220,18267
51338,18267
51338,18759
51220,18759
" /> 
<polyline style="fill-rule:evenodd;"
points="51023,18759
51023,18267
51141,18267
51141,18759
51023,18759
" /> 
<polyline style="fill-rule:evenodd;"
points="48114,20019
48114,18838
48901,18838
48901,20019
48114,20019
" /> 
<polyline style="fill-rule:evenodd;"
points="55035,20019
55035,18838
55822,18838
55822,20019
55035,20019
" /> 
<polyline style="fill-rule:evenodd;"
points="51811,18759
51811,18267
51929,18267
51929,18759
51811,18759
" /> 
<polyline style="fill-rule:evenodd;"
points="39059,18929
39059,18437
39453,18437
39453,18929
39059,18929
" /> 
<polyline style="fill-rule:evenodd;"
points="39846,18929
39846,18437
40240,18437
40240,18929
39846,18929
" /> 
<polyline style="fill-rule:evenodd;"
points="31703,28195
31034,28195
31034,27565
31703,27565
31703,28195
" /> 
<polyline style="fill-rule:evenodd;"
points="32703,28195
32034,28195
32034,27565
32703,27565
32703,28195
" /> 
<polyline style="fill-rule:evenodd;"
points="32703,24455
32034,24455
32034,23825
32703,23825
32703,24455
" /> 
<polyline style="fill-rule:evenodd;"
points="31703,24455
31034,24455
31034,23825
31703,23825
31703,24455
" /> 
<polyline style="fill-rule:evenodd;"
points="22212,23527
22212,24472
20637,24472
20637,23527
22212,23527
" /> 
<polyline style="fill-rule:evenodd;"
points="25362,23527
25362,24472
23787,24472
23787,23527
25362,23527
" /> 
<polyline style="fill-rule:evenodd;"
points="40474,24397
39962,24397
39962,24121
40474,24121
40474,24397
" /> 
<polyline style="fill-rule:evenodd;"
points="40474,23649
39962,23649
39962,23373
40474,23373
40474,23649
" /> 
<polyline style="fill-rule:evenodd;"
points="46448,27560
46448,26962
46688,26962
46688,27560
46448,27560
" /> 
<polyline style="fill-rule:evenodd;"
points="45948,27560
45948,26962
46188,26962
46188,27560
45948,27560
" /> 
<polyline style="fill-rule:evenodd;"
points="45448,27560
45448,26962
45688,26962
45688,27560
45448,27560
" /> 
<polyline style="fill-rule:evenodd;"
points="44948,27560
44948,26962
45188,26962
45188,27560
44948,27560
" /> 
<polyline style="fill-rule:evenodd;"
points="44948,25409
44948,24810
45188,24810
45188,25409
44948,25409
" /> 
<polyline style="fill-rule:evenodd;"
points="45448,25409
45448,24810
45688,24810
45688,25409
45448,25409
" /> 
<polyline style="fill-rule:evenodd;"
points="45948,25409
45948,24810
46188,24810
46188,25409
45948,25409
" /> 
<polyline style="fill-rule:evenodd;"
points="46448,25409
46448,24810
46688,24810
46688,25409
46448,25409
" /> 
<polyline style="fill-rule:evenodd;"
points="43948,25409
43948,24810
44188,24810
44188,25409
43948,25409
" /> 
<polyline style="fill-rule:evenodd;"
points="43448,25409
43448,24810
43688,24810
43688,25409
43448,25409
" /> 
<polyline style="fill-rule:evenodd;"
points="42948,25409
42948,24810
43188,24810
43188,25409
42948,25409
" /> 
<polyline style="fill-rule:evenodd;"
points="42448,25409
42448,24810
42688,24810
42688,25409
42448,25409
" /> 
<polyline style="fill-rule:evenodd;"
points="42448,27560
42448,26962
42688,26962
42688,27560
42448,27560
" /> 
<polyline style="fill-rule:evenodd;"
points="42948,27560
42948,26962
43188,26962
43188,27560
42948,27560
" /> 
<polyline style="fill-rule:evenodd;"
points="43448,27560
43448,26962
43688,26962
43688,27560
43448,27560
" /> 
<polyline style="fill-rule:evenodd;"
points="43948,27560
43948,26962
44188,26962
44188,27560
43948,27560
" /> 
<polyline style="fill-rule:evenodd;"
points="40630,27929
40630,28441
40355,28441
40355,27929
40630,27929
" /> 
<polyline style="fill-rule:evenodd;"
points="39882,27929
39882,28441
39607,28441
39607,27929
39882,27929
" /> 
<polyline style="fill-rule:evenodd;"
points="25555,21211
25044,21211
25044,20936
25555,20936
25555,21211
" /> 
<polyline style="fill-rule:evenodd;"
points="25555,20463
25044,20463
25044,20188
25555,20188
25555,20463
" /> 
<polyline style="fill-rule:evenodd;"
points="39594,16572
40105,16572
40105,16847
39594,16847
39594,16572
" /> 
<polyline style="fill-rule:evenodd;"
points="39594,17320
40105,17320
40105,17595
39594,17595
39594,17320
" /> 
<polyline style="fill-rule:evenodd;"
points="40574,54219
40062,54219
40062,53943
40574,53943
40574,54219
" /> 
<polyline style="fill-rule:evenodd;"
points="40574,53471
40062,53471
40062,53195
40574,53195
40574,53471
" /> 
<polyline style="fill-rule:evenodd;"
points="39112,53195
39624,53195
39624,53471
39112,53471
39112,53195
" /> 
<polyline style="fill-rule:evenodd;"
points="39112,53943
39624,53943
39624,54219
39112,54219
39112,53943
" /> 
<polyline style="fill-rule:evenodd;"
points="38062,53795
38574,53795
38574,54071
38062,54071
38062,53795
" /> 
<polyline style="fill-rule:evenodd;"
points="38062,54543
38574,54543
38574,54819
38062,54819
38062,54543
" /> 
<polyline style="fill-rule:evenodd;"
points="38062,52445
38574,52445
38574,52721
38062,52721
38062,52445
" /> 
<polyline style="fill-rule:evenodd;"
points="38062,53193
38574,53193
38574,53469
38062,53469
38062,53193
" /> 
<polyline style="fill-rule:evenodd;"
points="52549,28233
52549,28745
52274,28745
52274,28233
52549,28233
" /> 
<polyline style="fill-rule:evenodd;"
points="51801,28233
51801,28745
51525,28745
51525,28233
51801,28233
" /> 
<polyline style="fill-rule:evenodd;"
points="52093,27801
51581,27801
51581,27525
52093,27525
52093,27801
" /> 
<polyline style="fill-rule:evenodd;"
points="52093,27053
51581,27053
51581,26777
52093,26777
52093,27053
" /> 
<polyline style="fill-rule:evenodd;"
points="48993,27601
48481,27601
48481,27325
48993,27325
48993,27601
" /> 
<polyline style="fill-rule:evenodd;"
points="48993,26853
48481,26853
48481,26577
48993,26577
48993,26853
" /> 
<polyline style="fill-rule:evenodd;"
points="45861,27927
45861,28439
45586,28439
45586,27927
45861,27927
" /> 
<polyline style="fill-rule:evenodd;"
points="45113,27927
45113,28439
44838,28439
44838,27927
45113,27927
" /> 
<polyline style="fill-rule:evenodd;"
points="43230,27929
43230,28441
42955,28441
42955,27929
43230,27929
" /> 
<polyline style="fill-rule:evenodd;"
points="42482,27929
42482,28441
42207,28441
42207,27929
42482,27929
" /> 
<polyline style="fill-rule:evenodd;"
points="40888,28439
40888,27927
41163,27927
41163,28439
40888,28439
" /> 
<polyline style="fill-rule:evenodd;"
points="41636,28439
41636,27927
41911,27927
41911,28439
41636,28439
" /> 
<polyline style="fill-rule:evenodd;"
points="43507,28441
43507,27929
43782,27929
43782,28441
43507,28441
" /> 
<polyline style="fill-rule:evenodd;"
points="44255,28441
44255,27929
44530,27929
44530,28441
44255,28441
" /> 
<polyline style="fill-rule:evenodd;"
points="37338,29739
37338,29227
37613,29227
37613,29739
37338,29739
" /> 
<polyline style="fill-rule:evenodd;"
points="38086,29739
38086,29227
38361,29227
38361,29739
38086,29739
" /> 
<polyline style="fill-rule:evenodd;"
points="34561,28627
34561,29139
34286,29139
34286,28627
34561,28627
" /> 
<polyline style="fill-rule:evenodd;"
points="33813,28627
33813,29139
33538,29139
33538,28627
33813,28627
" /> 
<polyline style="fill-rule:evenodd;"
points="28038,29139
28038,28627
28313,28627
28313,29139
28038,29139
" /> 
<polyline style="fill-rule:evenodd;"
points="28786,29139
28786,28627
29061,28627
29061,29139
28786,29139
" /> 
<polyline style="fill-rule:evenodd;"
points="31938,29139
31938,28627
32213,28627
32213,29139
31938,29139
" /> 
<polyline style="fill-rule:evenodd;"
points="32686,29139
32686,28627
32961,28627
32961,29139
32686,29139
" /> 
<polyline style="fill-rule:evenodd;"
points="30138,29139
30138,28627
30413,28627
30413,29139
30138,29139
" /> 
<polyline style="fill-rule:evenodd;"
points="30886,29139
30886,28627
31161,28627
31161,29139
30886,29139
" /> 
<polyline style="fill-rule:evenodd;"
points="46574,24397
46062,24397
46062,24121
46574,24121
46574,24397
" /> 
<polyline style="fill-rule:evenodd;"
points="46574,23649
46062,23649
46062,23373
46574,23373
46574,23649
" /> 
<polyline style="fill-rule:evenodd;"
points="46107,28441
46107,27929
46382,27929
46382,28441
46107,28441
" /> 
<polyline style="fill-rule:evenodd;"
points="46855,28441
46855,27929
47130,27929
47130,28441
46855,28441
" /> 
<polyline style="fill-rule:evenodd;"
points="54338,16439
54338,15927
54613,15927
54613,16439
54338,16439
" /> 
<polyline style="fill-rule:evenodd;"
points="55086,16439
55086,15927
55361,15927
55361,16439
55086,16439
" /> 
<polyline style="fill-rule:evenodd;"
points="56494,21972
57005,21972
57005,22247
56494,22247
56494,21972
" /> 
<polyline style="fill-rule:evenodd;"
points="56494,22720
57005,22720
57005,22995
56494,22995
56494,22720
" /> 
<polyline style="fill-rule:evenodd;"
points="47494,21972
48005,21972
48005,22247
47494,22247
47494,21972
" /> 
<polyline style="fill-rule:evenodd;"
points="47494,22720
48005,22720
48005,22995
47494,22995
47494,22720
" /> 
<polyline style="fill-rule:evenodd;"
points="55694,21972
56205,21972
56205,22247
55694,22247
55694,21972
" /> 
<polyline style="fill-rule:evenodd;"
points="55694,22720
56205,22720
56205,22995
55694,22995
55694,22720
" /> 
<polyline style="fill-rule:evenodd;"
points="45600,24399
45088,24399
45088,24124
45600,24124
45600,24399
" /> 
<polyline style="fill-rule:evenodd;"
points="45600,23651
45088,23651
45088,23375
45600,23375
45600,23651
" /> 
<polyline style="fill-rule:evenodd;"
points="43074,24397
42562,24397
42562,24121
43074,24121
43074,24397
" /> 
<polyline style="fill-rule:evenodd;"
points="43074,23649
42562,23649
42562,23373
43074,23373
43074,23649
" /> 
<polyline style="fill-rule:evenodd;"
points="41584,24399
41072,24399
41072,24124
41584,24124
41584,24399
" /> 
<polyline style="fill-rule:evenodd;"
points="41584,23651
41072,23651
41072,23375
41584,23375
41584,23651
" /> 
<polyline style="fill-rule:evenodd;"
points="44074,24397
43562,24397
43562,24121
44074,24121
44074,24397
" /> 
<polyline style="fill-rule:evenodd;"
points="44074,23649
43562,23649
43562,23373
44074,23373
44074,23649
" /> 
<polyline style="fill-rule:evenodd;"
points="39605,20595
39094,20595
39094,20320
39605,20320
39605,20595
" /> 
<polyline style="fill-rule:evenodd;"
points="39605,19847
39094,19847
39094,19572
39605,19572
39605,19847
" /> 
<polyline style="fill-rule:evenodd;"
points="36961,29227
36961,29739
36686,29739
36686,29227
36961,29227
" /> 
<polyline style="fill-rule:evenodd;"
points="36213,29227
36213,29739
35938,29739
35938,29227
36213,29227
" /> 
<polyline style="fill-rule:evenodd;"
points="37238,23889
37238,23377
37513,23377
37513,23889
37238,23889
" /> 
<polyline style="fill-rule:evenodd;"
points="37986,23889
37986,23377
38261,23377
38261,23889
37986,23889
" /> 
<polyline style="fill-rule:evenodd;"
points="37578,42708
37381,42708
37381,42125
37578,42125
37578,42708
" /> 
<polyline style="fill-rule:evenodd;"
points="37263,42708
37066,42708
37066,42125
37263,42125
37263,42708
" /> 
<polyline style="fill-rule:evenodd;"
points="36948,42708
36751,42708
36751,42125
36948,42125
36948,42708
" /> 
<polyline style="fill-rule:evenodd;"
points="36633,42708
36437,42708
36437,42125
36633,42125
36633,42708
" /> 
<polyline style="fill-rule:evenodd;"
points="36318,42708
36122,42708
36122,42125
36318,42125
36318,42708
" /> 
<polyline style="fill-rule:evenodd;"
points="36003,42708
35807,42708
35807,42125
36003,42125
36003,42708
" /> 
<polyline style="fill-rule:evenodd;"
points="35688,42708
35492,42708
35492,42125
35688,42125
35688,42708
" /> 
<polyline style="fill-rule:evenodd;"
points="35374,42708
35177,42708
35177,42125
35374,42125
35374,42708
" /> 
<polyline style="fill-rule:evenodd;"
points="35059,42708
34862,42708
34862,42125
35059,42125
35059,42708
" /> 
<polyline style="fill-rule:evenodd;"
points="34744,42708
34547,42708
34547,42125
34744,42125
34744,42708
" /> 
<polyline style="fill-rule:evenodd;"
points="34429,42708
34232,42708
34232,42125
34429,42125
34429,42708
" /> 
<polyline style="fill-rule:evenodd;"
points="34114,42708
33917,42708
33917,42125
34114,42125
34114,42708
" /> 
<polyline style="fill-rule:evenodd;"
points="33799,42708
33602,42708
33602,42125
33799,42125
33799,42708
" /> 
<polyline style="fill-rule:evenodd;"
points="33484,42708
33287,42708
33287,42125
33484,42125
33484,42708
" /> 
<polyline style="fill-rule:evenodd;"
points="33169,42708
32972,42708
32972,42125
33169,42125
33169,42708
" /> 
<polyline style="fill-rule:evenodd;"
points="32854,42708
32657,42708
32657,42125
32854,42125
32854,42708
" /> 
<polyline style="fill-rule:evenodd;"
points="32539,42708
32342,42708
32342,42125
32539,42125
32539,42708
" /> 
<polyline style="fill-rule:evenodd;"
points="32224,42708
32027,42708
32027,42125
32224,42125
32224,42708
" /> 
<polyline style="fill-rule:evenodd;"
points="31909,42708
31712,42708
31712,42125
31909,42125
31909,42708
" /> 
<polyline style="fill-rule:evenodd;"
points="31594,42708
31397,42708
31397,42125
31594,42125
31594,42708
" /> 
<polyline style="fill-rule:evenodd;"
points="31279,42708
31082,42708
31082,42125
31279,42125
31279,42708
" /> 
<polyline style="fill-rule:evenodd;"
points="30964,42708
30767,42708
30767,42125
30964,42125
30964,42708
" /> 
<polyline style="fill-rule:evenodd;"
points="30649,42708
30452,42708
30452,42125
30649,42125
30649,42708
" /> 
<polyline style="fill-rule:evenodd;"
points="30334,42708
30137,42708
30137,42125
30334,42125
30334,42708
" /> 
<polyline style="fill-rule:evenodd;"
points="29141,41633
29141,41437
29724,41437
29724,41633
29141,41633
" /> 
<polyline style="fill-rule:evenodd;"
points="29141,41318
29141,41122
29724,41122
29724,41318
29141,41318
" /> 
<polyline style="fill-rule:evenodd;"
points="29141,41003
29141,40807
29724,40807
29724,41003
29141,41003
" /> 
<polyline style="fill-rule:evenodd;"
points="29141,40688
29141,40492
29724,40492
29724,40688
29141,40688
" /> 
<polyline style="fill-rule:evenodd;"
points="29141,40374
29141,40177
29724,40177
29724,40374
29141,40374
" /> 
<polyline style="fill-rule:evenodd;"
points="29141,40059
29141,39862
29724,39862
29724,40059
29141,40059
" /> 
<polyline style="fill-rule:evenodd;"
points="29141,39744
29141,39547
29724,39547
29724,39744
29141,39744
" /> 
<polyline style="fill-rule:evenodd;"
points="29141,39429
29141,39232
29724,39232
29724,39429
29141,39429
" /> 
<polyline style="fill-rule:evenodd;"
points="29141,39114
29141,38917
29724,38917
29724,39114
29141,39114
" /> 
<polyline style="fill-rule:evenodd;"
points="29141,38799
29141,38602
29724,38602
29724,38799
29141,38799
" /> 
<polyline style="fill-rule:evenodd;"
points="29141,38484
29141,38287
29724,38287
29724,38484
29141,38484
" /> 
<polyline style="fill-rule:evenodd;"
points="29141,38169
29141,37972
29724,37972
29724,38169
29141,38169
" /> 
<polyline style="fill-rule:evenodd;"
points="29141,37854
29141,37657
29724,37657
29724,37854
29141,37854
" /> 
<polyline style="fill-rule:evenodd;"
points="29141,37539
29141,37342
29724,37342
29724,37539
29141,37539
" /> 
<polyline style="fill-rule:evenodd;"
points="29141,37224
29141,37027
29724,37027
29724,37224
29141,37224
" /> 
<polyline style="fill-rule:evenodd;"
points="29141,36909
29141,36712
29724,36712
29724,36909
29141,36909
" /> 
<polyline style="fill-rule:evenodd;"
points="30334,36220
30137,36220
30137,35637
30334,35637
30334,36220
" /> 
<polyline style="fill-rule:evenodd;"
points="30649,36220
30452,36220
30452,35637
30649,35637
30649,36220
" /> 
<polyline style="fill-rule:evenodd;"
points="30964,36220
30767,36220
30767,35637
30964,35637
30964,36220
" /> 
<polyline style="fill-rule:evenodd;"
points="31279,36220
31082,36220
31082,35637
31279,35637
31279,36220
" /> 
<polyline style="fill-rule:evenodd;"
points="31594,36220
31397,36220
31397,35637
31594,35637
31594,36220
" /> 
<polyline style="fill-rule:evenodd;"
points="31909,36220
31712,36220
31712,35637
31909,35637
31909,36220
" /> 
<polyline style="fill-rule:evenodd;"
points="32224,36220
32027,36220
32027,35637
32224,35637
32224,36220
" /> 
<polyline style="fill-rule:evenodd;"
points="32539,36220
32342,36220
32342,35637
32539,35637
32539,36220
" /> 
<polyline style="fill-rule:evenodd;"
points="32854,36220
32657,36220
32657,35637
32854,35637
32854,36220
" /> 
<polyline style="fill-rule:evenodd;"
points="33169,36220
32972,36220
32972,35637
33169,35637
33169,36220
" /> 
<polyline style="fill-rule:evenodd;"
points="33484,36220
33287,36220
33287,35637
33484,35637
33484,36220
" /> 
<polyline style="fill-rule:evenodd;"
points="33799,36220
33602,36220
33602,35637
33799,35637
33799,36220
" /> 
<polyline style="fill-rule:evenodd;"
points="34114,36220
33917,36220
33917,35637
34114,35637
34114,36220
" /> 
<polyline style="fill-rule:evenodd;"
points="34429,36220
34232,36220
34232,35637
34429,35637
34429,36220
" /> 
<polyline style="fill-rule:evenodd;"
points="34744,36220
34547,36220
34547,35637
34744,35637
34744,36220
" /> 
<polyline style="fill-rule:evenodd;"
points="35059,36220
34862,36220
34862,35637
35059,35637
35059,36220
" /> 
<polyline style="fill-rule:evenodd;"
points="35374,36220
35177,36220
35177,35637
35374,35637
35374,36220
" /> 
<polyline style="fill-rule:evenodd;"
points="35688,36220
35492,36220
35492,35637
35688,35637
35688,36220
" /> 
<polyline style="fill-rule:evenodd;"
points="36003,36220
35807,36220
35807,35637
36003,35637
36003,36220
" /> 
<polyline style="fill-rule:evenodd;"
points="36318,36220
36122,36220
36122,35637
36318,35637
36318,36220
" /> 
<polyline style="fill-rule:evenodd;"
points="36633,36220
36437,36220
36437,35637
36633,35637
36633,36220
" /> 
<polyline style="fill-rule:evenodd;"
points="36948,36220
36751,36220
36751,35637
36948,35637
36948,36220
" /> 
<polyline style="fill-rule:evenodd;"
points="37263,36220
37066,36220
37066,35637
37263,35637
37263,36220
" /> 
<polyline style="fill-rule:evenodd;"
points="37578,36220
37381,36220
37381,35637
37578,35637
37578,36220
" /> 
<polyline style="fill-rule:evenodd;"
points="37992,36909
37992,36712
38574,36712
38574,36909
37992,36909
" /> 
<polyline style="fill-rule:evenodd;"
points="37992,37224
37992,37027
38574,37027
38574,37224
37992,37224
" /> 
<polyline style="fill-rule:evenodd;"
points="37992,37539
37992,37342
38574,37342
38574,37539
37992,37539
" /> 
<polyline style="fill-rule:evenodd;"
points="37992,37854
37992,37657
38574,37657
38574,37854
37992,37854
" /> 
<polyline style="fill-rule:evenodd;"
points="37992,38169
37992,37972
38574,37972
38574,38169
37992,38169
" /> 
<polyline style="fill-rule:evenodd;"
points="37992,38484
37992,38287
38574,38287
38574,38484
37992,38484
" /> 
<polyline style="fill-rule:evenodd;"
points="37992,38799
37992,38602
38574,38602
38574,38799
37992,38799
" /> 
<polyline style="fill-rule:evenodd;"
points="37992,39114
37992,38917
38574,38917
38574,39114
37992,39114
" /> 
<polyline style="fill-rule:evenodd;"
points="37992,39429
37992,39232
38574,39232
38574,39429
37992,39429
" /> 
<polyline style="fill-rule:evenodd;"
points="37992,39744
37992,39547
38574,39547
38574,39744
37992,39744
" /> 
<polyline style="fill-rule:evenodd;"
points="37992,40059
37992,39862
38574,39862
38574,40059
37992,40059
" /> 
<polyline style="fill-rule:evenodd;"
points="37992,40374
37992,40177
38574,40177
38574,40374
37992,40374
" /> 
<polyline style="fill-rule:evenodd;"
points="37992,40688
37992,40492
38574,40492
38574,40688
37992,40688
" /> 
<polyline style="fill-rule:evenodd;"
points="37992,41003
37992,40807
38574,40807
38574,41003
37992,41003
" /> 
<polyline style="fill-rule:evenodd;"
points="37992,41318
37992,41122
38574,41122
38574,41318
37992,41318
" /> 
<polyline style="fill-rule:evenodd;"
points="37992,41633
37992,41437
38574,41437
38574,41633
37992,41633
" /> 
<polyline style="fill-rule:evenodd;"
points="38316,35639
38316,35127
38592,35127
38592,35639
38316,35639
" /> 
<polyline style="fill-rule:evenodd;"
points="39064,35639
39064,35127
39340,35127
39340,35639
39064,35639
" /> 
<polyline style="fill-rule:evenodd;"
points="41161,35637
41358,35637
41358,36220
41161,36220
41161,35637
" /> 
<polyline style="fill-rule:evenodd;"
points="41476,35637
41673,35637
41673,36220
41476,36220
41476,35637
" /> 
<polyline style="fill-rule:evenodd;"
points="41791,35637
41988,35637
41988,36220
41791,36220
41791,35637
" /> 
<polyline style="fill-rule:evenodd;"
points="42106,35637
42303,35637
42303,36220
42106,36220
42106,35637
" /> 
<polyline style="fill-rule:evenodd;"
points="42421,35637
42618,35637
42618,36220
42421,36220
42421,35637
" /> 
<polyline style="fill-rule:evenodd;"
points="42736,35637
42933,35637
42933,36220
42736,36220
42736,35637
" /> 
<polyline style="fill-rule:evenodd;"
points="43051,35637
43248,35637
43248,36220
43051,36220
43051,35637
" /> 
<polyline style="fill-rule:evenodd;"
points="43366,35637
43562,35637
43562,36220
43366,36220
43366,35637
" /> 
<polyline style="fill-rule:evenodd;"
points="43681,35637
43877,35637
43877,36220
43681,36220
43681,35637
" /> 
<polyline style="fill-rule:evenodd;"
points="43996,35637
44192,35637
44192,36220
43996,36220
43996,35637
" /> 
<polyline style="fill-rule:evenodd;"
points="44311,35637
44507,35637
44507,36220
44311,36220
44311,35637
" /> 
<polyline style="fill-rule:evenodd;"
points="44625,35637
44822,35637
44822,36220
44625,36220
44625,35637
" /> 
<polyline style="fill-rule:evenodd;"
points="44940,35637
45137,35637
45137,36220
44940,36220
44940,35637
" /> 
<polyline style="fill-rule:evenodd;"
points="45255,35637
45452,35637
45452,36220
45255,36220
45255,35637
" /> 
<polyline style="fill-rule:evenodd;"
points="45570,35637
45767,35637
45767,36220
45570,36220
45570,35637
" /> 
<polyline style="fill-rule:evenodd;"
points="45885,35637
46082,35637
46082,36220
45885,36220
45885,35637
" /> 
<polyline style="fill-rule:evenodd;"
points="46200,35637
46397,35637
46397,36220
46200,36220
46200,35637
" /> 
<polyline style="fill-rule:evenodd;"
points="46515,35637
46712,35637
46712,36220
46515,36220
46515,35637
" /> 
<polyline style="fill-rule:evenodd;"
points="46830,35637
47027,35637
47027,36220
46830,36220
46830,35637
" /> 
<polyline style="fill-rule:evenodd;"
points="47145,35637
47342,35637
47342,36220
47145,36220
47145,35637
" /> 
<polyline style="fill-rule:evenodd;"
points="47460,35637
47657,35637
47657,36220
47460,36220
47460,35637
" /> 
<polyline style="fill-rule:evenodd;"
points="47775,35637
47972,35637
47972,36220
47775,36220
47775,35637
" /> 
<polyline style="fill-rule:evenodd;"
points="48090,35637
48287,35637
48287,36220
48090,36220
48090,35637
" /> 
<polyline style="fill-rule:evenodd;"
points="48405,35637
48602,35637
48602,36220
48405,36220
48405,35637
" /> 
<polyline style="fill-rule:evenodd;"
points="49598,36712
49598,36909
49015,36909
49015,36712
49598,36712
" /> 
<polyline style="fill-rule:evenodd;"
points="49598,37027
49598,37224
49015,37224
49015,37027
49598,37027
" /> 
<polyline style="fill-rule:evenodd;"
points="49598,37342
49598,37539
49015,37539
49015,37342
49598,37342
" /> 
<polyline style="fill-rule:evenodd;"
points="49598,37657
49598,37854
49015,37854
49015,37657
49598,37657
" /> 
<polyline style="fill-rule:evenodd;"
points="49598,37972
49598,38169
49015,38169
49015,37972
49598,37972
" /> 
<polyline style="fill-rule:evenodd;"
points="49598,38287
49598,38484
49015,38484
49015,38287
49598,38287
" /> 
<polyline style="fill-rule:evenodd;"
points="49598,38602
49598,38799
49015,38799
49015,38602
49598,38602
" /> 
<polyline style="fill-rule:evenodd;"
points="49598,38917
49598,39114
49015,39114
49015,38917
49598,38917
" /> 
<polyline style="fill-rule:evenodd;"
points="49598,39232
49598,39429
49015,39429
49015,39232
49598,39232
" /> 
<polyline style="fill-rule:evenodd;"
points="49598,39547
49598,39744
49015,39744
49015,39547
49598,39547
" /> 
<polyline style="fill-rule:evenodd;"
points="49598,39862
49598,40059
49015,40059
49015,39862
49598,39862
" /> 
<polyline style="fill-rule:evenodd;"
points="49598,40177
49598,40374
49015,40374
49015,40177
49598,40177
" /> 
<polyline style="fill-rule:evenodd;"
points="49598,40492
49598,40688
49015,40688
49015,40492
49598,40492
" /> 
<polyline style="fill-rule:evenodd;"
points="49598,40807
49598,41003
49015,41003
49015,40807
49598,40807
" /> 
<polyline style="fill-rule:evenodd;"
points="49598,41122
49598,41318
49015,41318
49015,41122
49598,41122
" /> 
<polyline style="fill-rule:evenodd;"
points="49598,41437
49598,41633
49015,41633
49015,41437
49598,41437
" /> 
<polyline style="fill-rule:evenodd;"
points="48405,42125
48602,42125
48602,42708
48405,42708
48405,42125
" /> 
<polyline style="fill-rule:evenodd;"
points="48090,42125
48287,42125
48287,42708
48090,42708
48090,42125
" /> 
<polyline style="fill-rule:evenodd;"
points="47775,42125
47972,42125
47972,42708
47775,42708
47775,42125
" /> 
<polyline style="fill-rule:evenodd;"
points="47460,42125
47657,42125
47657,42708
47460,42708
47460,42125
" /> 
<polyline style="fill-rule:evenodd;"
points="47145,42125
47342,42125
47342,42708
47145,42708
47145,42125
" /> 
<polyline style="fill-rule:evenodd;"
points="46830,42125
47027,42125
47027,42708
46830,42708
46830,42125
" /> 
<polyline style="fill-rule:evenodd;"
points="46515,42125
46712,42125
46712,42708
46515,42708
46515,42125
" /> 
<polyline style="fill-rule:evenodd;"
points="46200,42125
46397,42125
46397,42708
46200,42708
46200,42125
" /> 
<polyline style="fill-rule:evenodd;"
points="45885,42125
46082,42125
46082,42708
45885,42708
45885,42125
" /> 
<polyline style="fill-rule:evenodd;"
points="45570,42125
45767,42125
45767,42708
45570,42708
45570,42125
" /> 
<polyline style="fill-rule:evenodd;"
points="45255,42125
45452,42125
45452,42708
45255,42708
45255,42125
" /> 
<polyline style="fill-rule:evenodd;"
points="44940,42125
45137,42125
45137,42708
44940,42708
44940,42125
" /> 
<polyline style="fill-rule:evenodd;"
points="44625,42125
44822,42125
44822,42708
44625,42708
44625,42125
" /> 
<polyline style="fill-rule:evenodd;"
points="44311,42125
44507,42125
44507,42708
44311,42708
44311,42125
" /> 
<polyline style="fill-rule:evenodd;"
points="43996,42125
44192,42125
44192,42708
43996,42708
43996,42125
" /> 
<polyline style="fill-rule:evenodd;"
points="43681,42125
43877,42125
43877,42708
43681,42708
43681,42125
" /> 
<polyline style="fill-rule:evenodd;"
points="43366,42125
43562,42125
43562,42708
43366,42708
43366,42125
" /> 
<polyline style="fill-rule:evenodd;"
points="43051,42125
43248,42125
43248,42708
43051,42708
43051,42125
" /> 
<polyline style="fill-rule:evenodd;"
points="42736,42125
42933,42125
42933,42708
42736,42708
42736,42125
" /> 
<polyline style="fill-rule:evenodd;"
points="42421,42125
42618,42125
42618,42708
42421,42708
42421,42125
" /> 
<polyline style="fill-rule:evenodd;"
points="42106,42125
42303,42125
42303,42708
42106,42708
42106,42125
" /> 
<polyline style="fill-rule:evenodd;"
points="41791,42125
41988,42125
41988,42708
41791,42708
41791,42125
" /> 
<polyline style="fill-rule:evenodd;"
points="41476,42125
41673,42125
41673,42708
41476,42708
41476,42125
" /> 
<polyline style="fill-rule:evenodd;"
points="41161,42125
41358,42125
41358,42708
41161,42708
41161,42125
" /> 
<polyline style="fill-rule:evenodd;"
points="40748,41437
40748,41633
40165,41633
40165,41437
40748,41437
" /> 
<polyline style="fill-rule:evenodd;"
points="40748,41122
40748,41318
40165,41318
40165,41122
40748,41122
" /> 
<polyline style="fill-rule:evenodd;"
points="40748,40807
40748,41003
40165,41003
40165,40807
40748,40807
" /> 
<polyline style="fill-rule:evenodd;"
points="40748,40492
40748,40688
40165,40688
40165,40492
40748,40492
" /> 
<polyline style="fill-rule:evenodd;"
points="40748,40177
40748,40374
40165,40374
40165,40177
40748,40177
" /> 
<polyline style="fill-rule:evenodd;"
points="40748,39862
40748,40059
40165,40059
40165,39862
40748,39862
" /> 
<polyline style="fill-rule:evenodd;"
points="40748,39547
40748,39744
40165,39744
40165,39547
40748,39547
" /> 
<polyline style="fill-rule:evenodd;"
points="40748,39232
40748,39429
40165,39429
40165,39232
40748,39232
" /> 
<polyline style="fill-rule:evenodd;"
points="40748,38917
40748,39114
40165,39114
40165,38917
40748,38917
" /> 
<polyline style="fill-rule:evenodd;"
points="40748,38602
40748,38799
40165,38799
40165,38602
40748,38602
" /> 
<polyline style="fill-rule:evenodd;"
points="40748,38287
40748,38484
40165,38484
40165,38287
40748,38287
" /> 
<polyline style="fill-rule:evenodd;"
points="40748,37972
40748,38169
40165,38169
40165,37972
40748,37972
" /> 
<polyline style="fill-rule:evenodd;"
points="40748,37657
40748,37854
40165,37854
40165,37657
40748,37657
" /> 
<polyline style="fill-rule:evenodd;"
points="40748,37342
40748,37539
40165,37539
40165,37342
40748,37342
" /> 
<polyline style="fill-rule:evenodd;"
points="40748,37027
40748,37224
40165,37224
40165,37027
40748,37027
" /> 
<polyline style="fill-rule:evenodd;"
points="40748,36712
40748,36909
40165,36909
40165,36712
40748,36712
" /> 
<polyline style="fill-rule:evenodd;"
points="29654,19446
28559,19446
28559,18836
29654,18836
29654,19446
" /> 
<polyline style="fill-rule:evenodd;"
points="33044,21326
30394,21326
30394,18673
33044,18673
33044,21326
" /> 
<polyline style="fill-rule:evenodd;"
points="29654,21163
28559,21163
28559,20553
29654,20553
29654,21163
" /> 
<polyline style="fill-rule:evenodd;"
points="27503,28195
26834,28195
26834,27565
27503,27565
27503,28195
" /> 
<polyline style="fill-rule:evenodd;"
points="28503,28195
27834,28195
27834,27565
28503,27565
28503,28195
" /> 
<polyline style="fill-rule:evenodd;"
points="28503,24455
27834,24455
27834,23825
28503,23825
28503,24455
" /> 
<polyline style="fill-rule:evenodd;"
points="27503,24455
26834,24455
26834,23825
27503,23825
27503,24455
" /> 
<polyline style="fill-rule:evenodd;"
points="33803,28195
33134,28195
33134,27565
33803,27565
33803,28195
" /> 
<polyline style="fill-rule:evenodd;"
points="34803,28195
34134,28195
34134,27565
34803,27565
34803,28195
" /> 
<polyline style="fill-rule:evenodd;"
points="34803,24455
34134,24455
34134,23825
34803,23825
34803,24455
" /> 
<polyline style="fill-rule:evenodd;"
points="33803,24455
33134,24455
33134,23825
33803,23825
33803,24455
" /> 
<polyline style="fill-rule:evenodd;"
points="29603,28195
28934,28195
28934,27565
29603,27565
29603,28195
" /> 
<polyline style="fill-rule:evenodd;"
points="30603,28195
29934,28195
29934,27565
30603,27565
30603,28195
" /> 
<polyline style="fill-rule:evenodd;"
points="30603,24455
29934,24455
29934,23825
30603,23825
30603,24455
" /> 
<polyline style="fill-rule:evenodd;"
points="29603,24455
28934,24455
28934,23825
29603,23825
29603,24455
" /> 
<polyline style="fill-rule:evenodd;"
points="41448,27560
41448,26962
41688,26962
41688,27560
41448,27560
" /> 
<polyline style="fill-rule:evenodd;"
points="40948,27560
40948,26962
41188,26962
41188,27560
40948,27560
" /> 
<polyline style="fill-rule:evenodd;"
points="40448,27560
40448,26962
40688,26962
40688,27560
40448,27560
" /> 
<polyline style="fill-rule:evenodd;"
points="39948,27560
39948,26962
40188,26962
40188,27560
39948,27560
" /> 
<polyline style="fill-rule:evenodd;"
points="39948,25409
39948,24810
40188,24810
40188,25409
39948,25409
" /> 
<polyline style="fill-rule:evenodd;"
points="40448,25409
40448,24810
40688,24810
40688,25409
40448,25409
" /> 
<polyline style="fill-rule:evenodd;"
points="40948,25409
40948,24810
41188,24810
41188,25409
40948,25409
" /> 
<polyline style="fill-rule:evenodd;"
points="41448,25409
41448,24810
41688,24810
41688,25409
41448,25409
" /> 
<polyline style="fill-rule:evenodd;"
points="48983,26179
48491,26179
48491,25786
48983,25786
48983,26179
" /> 
<polyline style="fill-rule:evenodd;"
points="48983,25392
48491,25392
48491,24998
48983,24998
48983,25392
" /> 
<polyline style="fill-rule:evenodd;"
points="50957,28799
50957,27999
51217,27999
51217,28799
50957,28799
" /> 
<polyline style="fill-rule:evenodd;"
points="50457,28799
50457,27999
50717,27999
50717,28799
50457,28799
" /> 
<polyline style="fill-rule:evenodd;"
points="49957,28799
49957,27999
50217,27999
50217,28799
49957,28799
" /> 
<polyline style="fill-rule:evenodd;"
points="49457,28799
49457,27999
49717,27999
49717,28799
49457,28799
" /> 
<polyline style="fill-rule:evenodd;"
points="49457,26379
49457,25579
49717,25579
49717,26379
49457,26379
" /> 
<polyline style="fill-rule:evenodd;"
points="49957,26379
49957,25579
50217,25579
50217,26379
49957,26379
" /> 
<polyline style="fill-rule:evenodd;"
points="50457,26379
50457,25579
50717,25579
50717,26379
50457,26379
" /> 
<polyline style="fill-rule:evenodd;"
points="50957,26379
50957,25579
51217,25579
51217,26379
50957,26379
" /> 
<polyline style="fill-rule:evenodd;"
points="28332,23213
28332,21953
28726,21953
28726,23213
28332,23213
" /> 
<polyline style="fill-rule:evenodd;"
points="30773,23213
30773,21953
31167,21953
31167,23213
30773,23213
" /> 
<polyline style="fill-rule:evenodd;"
points="29061,17872
28076,17872
28076,17478
29061,17478
29061,17872
" /> 
<polyline style="fill-rule:evenodd;"
points="29061,15942
28076,15942
28076,15549
29061,15549
29061,15942
" /> 
<polyline style="fill-rule:evenodd;"
points="24646,19790
24153,19790
24153,19396
24646,19396
24646,19790
" /> 
<polyline style="fill-rule:evenodd;"
points="24646,19003
24153,19003
24153,18609
24646,18609
24646,19003
" /> 
<polyline style="fill-rule:evenodd;"
points="25053,18609
25546,18609
25546,19003
25053,19003
25053,18609
" /> 
<polyline style="fill-rule:evenodd;"
points="25053,19396
25546,19396
25546,19790
25053,19790
25053,19396
" /> 
<polyline style="fill-rule:evenodd;"
points="34270,13913
35529,13913
35529,14976
34270,14976
34270,13913
" /> 
<polyline style="fill-rule:evenodd;"
points="34270,17023
35529,17023
35529,18086
34270,18086
34270,17023
" /> 
<polyline style="fill-rule:evenodd;"
points="49924,38482
50416,38482
50416,38876
49924,38876
49924,38482
" /> 
<polyline style="fill-rule:evenodd;"
points="49924,39270
50416,39270
50416,39663
49924,39663
49924,39270
" /> 
<polyline style="fill-rule:evenodd;"
points="28616,39963
28124,39963
28124,39570
28616,39570
28616,39963
" /> 
<polyline style="fill-rule:evenodd;"
points="28616,39176
28124,39176
28124,38782
28616,38782
28616,39176
" /> 
<polyline style="fill-rule:evenodd;"
points="27214,13757
27214,14663
26230,14663
26230,13757
27214,13757
" /> 
<polyline style="fill-rule:evenodd;"
points="28907,13757
28907,14663
27923,14663
27923,13757
28907,13757
" /> 
<polyline style="fill-rule:evenodd;"
points="51591,25398
52083,25398
52083,25792
51591,25792
51591,25398
" /> 
<polyline style="fill-rule:evenodd;"
points="51591,26186
52083,26186
52083,26579
51591,26579
51591,26186
" /> 
<polyline style="fill-rule:evenodd;"
points="49459,25229
49459,24737
49853,24737
49853,25229
49459,25229
" /> 
<polyline style="fill-rule:evenodd;"
points="50246,25229
50246,24737
50640,24737
50640,25229
50246,25229
" /> 
<polyline style="fill-rule:evenodd;"
points="39399,43218
39399,42706
39675,42706
39675,43218
39399,43218
" /> 
<polyline style="fill-rule:evenodd;"
points="40147,43218
40147,42706
40423,42706
40423,43218
40147,43218
" /> 
<polyline style="fill-rule:evenodd;"
points="39399,35639
39399,35127
39675,35127
39675,35639
39399,35639
" /> 
<polyline style="fill-rule:evenodd;"
points="40147,35639
40147,35127
40423,35127
40423,35639
40147,35639
" /> 
<polyline style="fill-rule:evenodd;"
points="39340,42706
39340,43218
39064,43218
39064,42706
39340,42706
" /> 
<polyline style="fill-rule:evenodd;"
points="38592,42706
38592,43218
38316,43218
38316,42706
38592,42706
" /> 
<polyline style="fill-rule:evenodd;"
points="23787,15872
23787,14927
25362,14927
25362,15872
23787,15872
" /> 
<polyline style="fill-rule:evenodd;"
points="20637,15872
20637,14927
22212,14927
22212,15872
20637,15872
" /> 
<polyline style="fill-rule:evenodd;"
points="43940,15037
43940,15529
43546,15529
43546,15037
43940,15037
" /> 
<polyline style="fill-rule:evenodd;"
points="43153,15037
43153,15529
42759,15529
42759,15037
43153,15037
" /> 
<polyline style="fill-rule:evenodd;"
points="50096,16374
49603,16374
49603,15980
50096,15980
50096,16374
" /> 
<polyline style="fill-rule:evenodd;"
points="50096,15587
49603,15587
49603,15193
50096,15193
50096,15587
" /> 
<polyline style="fill-rule:evenodd;"
points="56196,24874
55703,24874
55703,24480
56196,24480
56196,24874
" /> 
<polyline style="fill-rule:evenodd;"
points="56196,24087
55703,24087
55703,23693
56196,23693
56196,24087
" /> 
<polyline style="fill-rule:evenodd;"
points="43546,13929
43546,13437
43940,13437
43940,13929
43546,13929
" /> 
<polyline style="fill-rule:evenodd;"
points="42759,13929
42759,13437
43153,13437
43153,13929
42759,13929
" /> 
<polyline style="fill-rule:evenodd;"
points="46296,18274
45803,18274
45803,17880
46296,17880
46296,18274
" /> 
<polyline style="fill-rule:evenodd;"
points="46296,17487
45803,17487
45803,17093
46296,17093
46296,17487
" /> 
<polyline style="fill-rule:evenodd;"
points="43546,14729
43546,14237
43940,14237
43940,14729
43546,14729
" /> 
<polyline style="fill-rule:evenodd;"
points="42759,14729
42759,14237
43153,14237
43153,14729
42759,14729
" /> 
<polyline style="fill-rule:evenodd;"
points="26523,41006
26523,40415
27114,40415
27114,41006
26523,41006
" /> 
<polyline style="fill-rule:evenodd;"
points="26523,43006
26523,42415
27114,42415
27114,43006
26523,43006
" /> 
<polyline style="fill-rule:evenodd;"
points="26523,38006
26523,37415
27114,37415
27114,38006
26523,38006
" /> 
<polyline style="fill-rule:evenodd;"
points="26523,37006
26523,36415
27114,36415
27114,37006
26523,37006
" /> 
<polyline style="fill-rule:evenodd;"
points="26523,42006
26523,41415
27114,41415
27114,42006
26523,42006
" /> 
<polyline style="fill-rule:evenodd;"
points="26523,39006
26523,38415
27114,38415
27114,39006
26523,39006
" /> 
<polyline style="fill-rule:evenodd;"
points="26523,40006
26523,39415
27114,39415
27114,40006
26523,40006
" /> 
<polyline style="fill-rule:evenodd;"
points="58543,15275
57992,15275
57992,14448
58543,14448
58543,15275
" /> 
<polyline style="fill-rule:evenodd;"
points="56771,15275
56220,15275
56220,14448
56771,14448
56771,15275
" /> 
<polyline style="fill-rule:evenodd;"
points="58543,19212
57992,19212
57992,18385
58543,18385
58543,19212
" /> 
<polyline style="fill-rule:evenodd;"
points="56771,19212
56220,19212
56220,18385
56771,18385
56771,19212
" /> 
<polyline style="fill-rule:evenodd;"
points="35354,20934
34724,20934
34724,19517
35354,19517
35354,20934
" /> 
<polyline style="fill-rule:evenodd;"
points="35354,23100
34724,23100
34724,21683
35354,21683
35354,23100
" /> 
<polyline style="fill-rule:evenodd;"
points="33738,13975
33738,17991
32360,17991
32360,13975
33738,13975
" /> 
<polyline style="fill-rule:evenodd;"
points="31139,13975
31139,17991
29761,17991
29761,13975
31139,13975
" /> 
<polyline style="fill-rule:evenodd;"
points="49246,17329
49246,16837
49640,16837
49640,17329
49246,17329
" /> 
<polyline style="fill-rule:evenodd;"
points="48459,17329
48459,16837
48853,16837
48853,17329
48459,17329
" /> 
<polyline style="fill-rule:evenodd;"
points="54259,17329
54259,16837
54653,16837
54653,17329
54259,17329
" /> 
<polyline style="fill-rule:evenodd;"
points="55046,17329
55046,16837
55440,16837
55440,17329
55046,17329
" /> 
<polyline style="fill-rule:evenodd;"
points="50059,17329
50059,16837
50453,16837
50453,17329
50059,17329
" /> 
<polyline style="fill-rule:evenodd;"
points="50846,17329
50846,16837
51240,16837
51240,17329
50846,17329
" /> 
<polyline style="fill-rule:evenodd;"
points="53446,17329
53446,16837
53840,16837
53840,17329
53446,17329
" /> 
<polyline style="fill-rule:evenodd;"
points="52659,17329
52659,16837
53053,16837
53053,17329
52659,17329
" /> 
<polyline style="fill-rule:evenodd;"
points="45459,21129
45459,20637
45853,20637
45853,21129
45459,21129
" /> 
<polyline style="fill-rule:evenodd;"
points="46246,21129
46246,20637
46640,20637
46640,21129
46246,21129
" /> 
<polyline style="fill-rule:evenodd;"
points="26228,15411
27409,15411
27409,16198
26228,16198
26228,15411
" /> 
<polyline style="fill-rule:evenodd;"
points="26228,17222
27409,17222
27409,18009
26228,18009
26228,17222
" /> 
<polyline style="fill-rule:evenodd;"
points="47696,25374
47203,25374
47203,24980
47696,24980
47696,25374
" /> 
<polyline style="fill-rule:evenodd;"
points="47696,24587
47203,24587
47203,24193
47696,24193
47696,24587
" /> 
<polyline style="fill-rule:evenodd;"
points="45650,14163
46450,14163
46450,15603
45650,15603
45650,14163
" /> 
<polyline style="fill-rule:evenodd;"
points="48250,14683
49050,14683
49050,15083
48250,15083
48250,14683
" /> 
<polyline style="fill-rule:evenodd;"
points="48250,15583
49050,15583
49050,15983
48250,15983
48250,15583
" /> 
<polyline style="fill-rule:evenodd;"
points="48250,13783
49050,13783
49050,14183
48250,14183
48250,13783
" /> 
<polyline style="fill-rule:evenodd;"
points="26380,18390
26380,19190
26120,19190
26120,18390
26380,18390
" /> 
<polyline style="fill-rule:evenodd;"
points="26880,18390
26880,19190
26620,19190
26620,18390
26880,18390
" /> 
<polyline style="fill-rule:evenodd;"
points="27380,18390
27380,19190
27120,19190
27120,18390
27380,18390
" /> 
<polyline style="fill-rule:evenodd;"
points="27880,18390
27880,19190
27620,19190
27620,18390
27880,18390
" /> 
<polyline style="fill-rule:evenodd;"
points="27880,20810
27880,21610
27620,21610
27620,20810
27880,20810
" /> 
<polyline style="fill-rule:evenodd;"
points="27380,20810
27380,21610
27120,21610
27120,20810
27380,20810
" /> 
<polyline style="fill-rule:evenodd;"
points="26880,20810
26880,21610
26620,21610
26620,20810
26880,20810
" /> 
<polyline style="fill-rule:evenodd;"
points="26380,20810
26380,21610
26120,21610
26120,20810
26380,20810
" /> 
<polyline style="fill-rule:evenodd;"
points="37130,18373
37130,19173
36870,19173
36870,18373
37130,18373
" /> 
<polyline style="fill-rule:evenodd;"
points="37630,18373
37630,19173
37370,19173
37370,18373
37630,18373
" /> 
<polyline style="fill-rule:evenodd;"
points="38130,18373
38130,19173
37870,19173
37870,18373
38130,18373
" /> 
<polyline style="fill-rule:evenodd;"
points="38630,18373
38630,19173
38370,19173
38370,18373
38630,18373
" /> 
<polyline style="fill-rule:evenodd;"
points="38630,20793
38630,21593
38370,21593
38370,20793
38630,20793
" /> 
<polyline style="fill-rule:evenodd;"
points="38130,20793
38130,21593
37870,21593
37870,20793
38130,20793
" /> 
<polyline style="fill-rule:evenodd;"
points="37630,20793
37630,21593
37370,21593
37370,20793
37630,20793
" /> 
<polyline style="fill-rule:evenodd;"
points="37130,20793
37130,21593
36870,21593
36870,20793
37130,20793
" /> 
<polyline style="fill-rule:evenodd;"
points="54603,13693
55096,13693
55096,14087
54603,14087
54603,13693
" /> 
<polyline style="fill-rule:evenodd;"
points="54603,14480
55096,14480
55096,14874
54603,14874
54603,14480
" /> 
<polyline style="fill-rule:evenodd;"
points="45408,22485
45408,22229
45825,22229
45825,22485
45408,22485
" /> 
<polyline style="fill-rule:evenodd;"
points="45408,22111
45408,21855
45825,21855
45825,22111
45408,22111
" /> 
<polyline style="fill-rule:evenodd;"
points="45408,21737
45408,21481
45825,21481
45825,21737
45408,21737
" /> 
<polyline style="fill-rule:evenodd;"
points="46274,21737
46274,21481
46691,21481
46691,21737
46274,21737
" /> 
<polyline style="fill-rule:evenodd;"
points="46274,22485
46274,22229
46691,22229
46691,22485
46274,22485
" /> 
<polyline style="fill-rule:evenodd;"
points="46274,22111
46274,21855
46691,21855
46691,22111
46274,22111
" /> 
<polyline style="fill-rule:evenodd;"
points="35596,28987
35103,28987
35103,28593
35596,28593
35596,28987
" /> 
<polyline style="fill-rule:evenodd;"
points="35596,29774
35103,29774
35103,29380
35596,29380
35596,29774
" /> 
<polyline style="fill-rule:evenodd;"
points="39196,29774
38703,29774
38703,29380
39196,29380
39196,29774
" /> 
<polyline style="fill-rule:evenodd;"
points="39196,28987
38703,28987
38703,28593
39196,28593
39196,28987
" /> 
<polyline style="fill-rule:evenodd;"
points="37553,22387
37553,22879
37159,22879
37159,22387
37553,22387
" /> 
<polyline style="fill-rule:evenodd;"
points="38340,22387
38340,22879
37946,22879
37946,22387
38340,22387
" /> 
<polyline style="fill-rule:evenodd;"
points="36154,28495
36154,28672
35918,28672
35918,28495
36154,28495
" /> 
<polyline style="fill-rule:evenodd;"
points="36981,28495
36981,28672
36745,28672
36745,28495
36981,28495
" /> 
<polyline style="fill-rule:evenodd;"
points="38381,28495
38381,28672
38145,28672
38145,28495
38381,28495
" /> 
<polyline style="fill-rule:evenodd;"
points="37554,28495
37554,28672
37318,28672
37318,28495
37554,28495
" /> 
<polyline style="fill-rule:evenodd;"
points="38353,16357
38746,16357
38746,17598
38353,17598
38353,16357
" /> 
<polyline style="fill-rule:evenodd;"
points="38353,14369
38746,14369
38746,15609
38353,15609
38353,14369
" /> 
<polyline style="fill-rule:evenodd;"
points="37353,16357
37746,16357
37746,17598
37353,17598
37353,16357
" /> 
<polyline style="fill-rule:evenodd;"
points="37353,14369
37746,14369
37746,15609
37353,15609
37353,14369
" /> 
<polyline style="fill-rule:evenodd;"
points="36353,16357
36746,16357
36746,17598
36353,17598
36353,16357
" /> 
<polyline style="fill-rule:evenodd;"
points="36353,14369
36746,14369
36746,15609
36353,15609
36353,14369
" /> 
<polyline style="fill-rule:evenodd;"
points="35574,25371
35574,24571
35834,24571
35834,25371
35574,25371
" /> 
<polyline style="fill-rule:evenodd;"
points="36074,25371
36074,24571
36334,24571
36334,25371
36074,25371
" /> 
<polyline style="fill-rule:evenodd;"
points="36574,25371
36574,24571
36834,24571
36834,25371
36574,25371
" /> 
<polyline style="fill-rule:evenodd;"
points="37074,25371
37074,24571
37334,24571
37334,25371
37074,25371
" /> 
<polyline style="fill-rule:evenodd;"
points="37574,25371
37574,24571
37834,24571
37834,25371
37574,25371
" /> 
<polyline style="fill-rule:evenodd;"
points="38074,25371
38074,24571
38334,24571
38334,25371
38074,25371
" /> 
<polyline style="fill-rule:evenodd;"
points="38574,25371
38574,24571
38834,24571
38834,25371
38574,25371
" /> 
<polyline style="fill-rule:evenodd;"
points="38574,27791
38574,26991
38834,26991
38834,27791
38574,27791
" /> 
<polyline style="fill-rule:evenodd;"
points="38074,27791
38074,26991
38334,26991
38334,27791
38074,27791
" /> 
<polyline style="fill-rule:evenodd;"
points="37074,27791
37074,26991
37334,26991
37334,27791
37074,27791
" /> 
<polyline style="fill-rule:evenodd;"
points="36574,27791
36574,26991
36834,26991
36834,27791
36574,27791
" /> 
<polyline style="fill-rule:evenodd;"
points="36074,27791
36074,26991
36334,26991
36334,27791
36074,27791
" /> 
<polyline style="fill-rule:evenodd;"
points="35574,27791
35574,26991
35834,26991
35834,27791
35574,27791
" /> 
<polyline style="fill-rule:evenodd;"
points="37574,27791
37574,26991
37834,26991
37834,27791
37574,27791
" /> 
<polyline style="fill-rule:evenodd;"
points="45104,14972
44395,14972
44395,14579
45104,14579
45104,14972
" /> 
<polyline style="fill-rule:evenodd;"
points="45104,13988
44395,13988
44395,13594
45104,13594
45104,13988
" /> 
<polyline style="fill-rule:evenodd;"
points="50650,16374
50650,15193
51438,15193
51438,16374
50650,16374
" /> 
<polyline style="fill-rule:evenodd;"
points="52461,16374
52461,15193
53249,15193
53249,16374
52461,16374
" /> 
<polyline style="fill-rule:evenodd;"
points="46803,17880
47296,17880
47296,18274
46803,18274
46803,17880
" /> 
<polyline style="fill-rule:evenodd;"
points="46803,17093
47296,17093
47296,17487
46803,17487
46803,17093
" /> 
<polyline style="fill-rule:evenodd;"
points="53110,12409
53818,12409
53818,13157
53110,13157
53110,12409
" /> 
<polyline style="fill-rule:evenodd;"
points="50118,12409
50826,12409
50826,13157
50118,13157
50118,12409
" /> 
<polyline style="fill-rule:evenodd;"
points="51122,12409
51870,12409
51870,13157
51122,13157
51122,12409
" /> 
<polyline style="fill-rule:evenodd;"
points="52066,12409
52814,12409
52814,13157
52066,13157
52066,12409
" /> 
<polyline style="fill-rule:evenodd;"
points="52775,13472
53602,13472
53602,14102
52775,14102
52775,13472
" /> 
<polyline style="fill-rule:evenodd;"
points="50334,13472
51161,13472
51161,14102
50334,14102
50334,13472
" /> 
<polyline style="fill-rule:evenodd;"
points="51377,13571
51535,13571
51535,14102
51377,14102
51377,13571
" /> 
<polyline style="fill-rule:evenodd;"
points="51633,13571
51791,13571
51791,14102
51633,14102
51633,13571
" /> 
<polyline style="fill-rule:evenodd;"
points="51889,13571
52046,13571
52046,14102
51889,14102
51889,13571
" /> 
<polyline style="fill-rule:evenodd;"
points="52145,13571
52303,13571
52303,14102
52145,14102
52145,13571
" /> 
<polyline style="fill-rule:evenodd;"
points="52401,13571
52559,13571
52559,14102
52401,14102
52401,13571
" /> 
</g> 
</svg>
