G04 #@! TF.FileFunction,Copper,L2,Bot,Signal*
%FSLAX46Y46*%
G04 Gerber Fmt 4.6, Leading zero omitted, Abs format (unit mm)*
G04 Created by KiCad (PCBNEW 4.0.6) date 07/11/18 14:22:35*
%MOMM*%
%LPD*%
G01*
G04 APERTURE LIST*
%ADD10C,0.100000*%
%ADD11C,2.250000*%
%ADD12C,1.000000*%
%ADD13C,0.150000*%
%ADD14R,1.000000X1.250000*%
%ADD15R,1.800000X1.000000*%
%ADD16R,1.250000X1.000000*%
%ADD17R,1.700000X1.600000*%
%ADD18R,4.000500X2.400300*%
%ADD19R,1.300000X0.700000*%
%ADD20R,0.610000X1.520000*%
%ADD21R,0.700000X1.300000*%
%ADD22R,0.800000X1.300000*%
%ADD23R,2.780000X1.550000*%
%ADD24R,6.730000X6.740000*%
%ADD25R,1.397000X1.397000*%
%ADD26C,1.397000*%
%ADD27R,0.660400X2.032000*%
%ADD28R,1.000000X3.200000*%
%ADD29R,2.500000X1.000000*%
%ADD30R,3.200000X2.700000*%
%ADD31R,2.500000X2.300000*%
%ADD32C,1.000000*%
%ADD33R,1.501140X1.501140*%
%ADD34R,1.600200X3.599180*%
%ADD35R,3.500000X10.200000*%
%ADD36R,3.000000X2.000000*%
%ADD37R,1.060000X0.650000*%
%ADD38R,0.600000X0.450000*%
%ADD39C,0.604800*%
%ADD40R,0.740000X2.400000*%
%ADD41R,1.300000X0.250000*%
%ADD42R,0.250000X1.300000*%
%ADD43R,2.032000X3.657600*%
%ADD44R,2.032000X1.016000*%
%ADD45R,1.000000X0.900000*%
%ADD46O,0.800000X1.400000*%
%ADD47R,0.300000X0.700000*%
%ADD48R,1.600000X1.000000*%
%ADD49C,3.200000*%
%ADD50R,3.000000X3.200000*%
%ADD51R,0.500000X1.480000*%
%ADD52R,1.480000X0.500000*%
%ADD53C,0.600000*%
%ADD54R,4.500000X2.200000*%
%ADD55R,0.300000X1.250000*%
%ADD56R,2.500000X2.500000*%
%ADD57C,1.524000*%
%ADD58R,1.500000X1.500000*%
%ADD59C,0.800000*%
%ADD60C,0.500000*%
%ADD61C,0.250000*%
%ADD62C,0.300000*%
%ADD63C,0.200000*%
%ADD64C,0.254000*%
G04 APERTURE END LIST*
D10*
D11*
X146982767Y-74000000D02*
G75*
G03X146982767Y-74000000I-2982767J0D01*
G01*
D12*
X144000000Y-69400000D02*
X148000000Y-71700000D01*
X148000000Y-71700000D02*
X148000000Y-76300000D01*
X148000000Y-76300000D02*
X144000000Y-78600000D01*
X144000000Y-78600000D02*
X140000000Y-76300000D01*
X140000000Y-76300000D02*
X140000000Y-71700000D01*
X140000000Y-71700000D02*
X144000000Y-69400000D01*
D13*
X148500000Y-76598000D02*
X144000000Y-79196000D01*
X144000000Y-79196000D02*
X139500000Y-76598000D01*
X139500000Y-71402000D02*
X144000000Y-68804000D01*
X144000000Y-68804000D02*
X148500000Y-71402000D01*
X148500000Y-71402000D02*
X148500000Y-76598000D01*
X139500000Y-71402000D02*
X139500000Y-76598000D01*
D11*
X146982767Y-125000000D02*
G75*
G03X146982767Y-125000000I-2982767J0D01*
G01*
D12*
X144000000Y-120400000D02*
X148000000Y-122700000D01*
X148000000Y-122700000D02*
X148000000Y-127300000D01*
X148000000Y-127300000D02*
X144000000Y-129600000D01*
X144000000Y-129600000D02*
X140000000Y-127300000D01*
X140000000Y-127300000D02*
X140000000Y-122700000D01*
X140000000Y-122700000D02*
X144000000Y-120400000D01*
D13*
X148500000Y-127598000D02*
X144000000Y-130196000D01*
X144000000Y-130196000D02*
X139500000Y-127598000D01*
X139500000Y-122402000D02*
X144000000Y-119804000D01*
X144000000Y-119804000D02*
X148500000Y-122402000D01*
X148500000Y-122402000D02*
X148500000Y-127598000D01*
X139500000Y-122402000D02*
X139500000Y-127598000D01*
D11*
X58982767Y-125000000D02*
G75*
G03X58982767Y-125000000I-2982767J0D01*
G01*
D12*
X56000000Y-120400000D02*
X60000000Y-122700000D01*
X60000000Y-122700000D02*
X60000000Y-127300000D01*
X60000000Y-127300000D02*
X56000000Y-129600000D01*
X56000000Y-129600000D02*
X52000000Y-127300000D01*
X52000000Y-127300000D02*
X52000000Y-122700000D01*
X52000000Y-122700000D02*
X56000000Y-120400000D01*
D13*
X60500000Y-127598000D02*
X56000000Y-130196000D01*
X56000000Y-130196000D02*
X51500000Y-127598000D01*
X51500000Y-122402000D02*
X56000000Y-119804000D01*
X56000000Y-119804000D02*
X60500000Y-122402000D01*
X60500000Y-122402000D02*
X60500000Y-127598000D01*
X51500000Y-122402000D02*
X51500000Y-127598000D01*
D11*
X58982767Y-74000000D02*
G75*
G03X58982767Y-74000000I-2982767J0D01*
G01*
D12*
X56000000Y-69400000D02*
X60000000Y-71700000D01*
X60000000Y-71700000D02*
X60000000Y-76300000D01*
X60000000Y-76300000D02*
X56000000Y-78600000D01*
X56000000Y-78600000D02*
X52000000Y-76300000D01*
X52000000Y-76300000D02*
X52000000Y-71700000D01*
X52000000Y-71700000D02*
X56000000Y-69400000D01*
D13*
X60500000Y-76598000D02*
X56000000Y-79196000D01*
X56000000Y-79196000D02*
X51500000Y-76598000D01*
X51500000Y-71402000D02*
X56000000Y-68804000D01*
X56000000Y-68804000D02*
X60500000Y-71402000D01*
X60500000Y-71402000D02*
X60500000Y-76598000D01*
X51500000Y-71402000D02*
X51500000Y-76598000D01*
D14*
X108950000Y-34757000D03*
X106950000Y-34757000D03*
D15*
X111252000Y-34523000D03*
X111252000Y-37023000D03*
D16*
X101219000Y-45949000D03*
X101219000Y-47949000D03*
D17*
X79677000Y-70817000D03*
X82217000Y-70817000D03*
X82217000Y-61317000D03*
X79677000Y-61317000D03*
D18*
X54419500Y-60960000D03*
X62420500Y-60960000D03*
D19*
X102156000Y-61619500D03*
X102156000Y-59719500D03*
D20*
X118285000Y-69244000D03*
X117015000Y-69244000D03*
X115745000Y-69244000D03*
X114475000Y-69244000D03*
X114475000Y-63779000D03*
X115745000Y-63779000D03*
X117015000Y-63779000D03*
X118285000Y-63779000D03*
X111935000Y-63779000D03*
X110665000Y-63779000D03*
X109395000Y-63779000D03*
X108125000Y-63779000D03*
X108125000Y-69244000D03*
X109395000Y-69244000D03*
X110665000Y-69244000D03*
X111935000Y-69244000D03*
D21*
X102852000Y-71591500D03*
X100952000Y-71591500D03*
D19*
X64262000Y-53528000D03*
X64262000Y-51628000D03*
X101219000Y-42443000D03*
X101219000Y-44343000D03*
X102410000Y-137367000D03*
X102410000Y-135467000D03*
X99997000Y-135467000D03*
X99997000Y-137367000D03*
X97330000Y-136991000D03*
X97330000Y-138891000D03*
X97330000Y-133562000D03*
X97330000Y-135462000D03*
D21*
X133126000Y-72363040D03*
X131226000Y-72363040D03*
D19*
X131668000Y-70265040D03*
X131668000Y-68365040D03*
X123794000Y-69757040D03*
X123794000Y-67857040D03*
D21*
X116139000Y-71587000D03*
X114239000Y-71587000D03*
X109456000Y-71591500D03*
X107556000Y-71591500D03*
X104206000Y-71587000D03*
X106106000Y-71587000D03*
X110858000Y-71591500D03*
X112758000Y-71591500D03*
X95189000Y-74889000D03*
X97089000Y-74889000D03*
X87437000Y-73365000D03*
X85537000Y-73365000D03*
X71567000Y-73365000D03*
X73467000Y-73365000D03*
X81473000Y-73365000D03*
X83373000Y-73365000D03*
X76901000Y-73365000D03*
X78801000Y-73365000D03*
D19*
X117650000Y-61619500D03*
X117650000Y-59719500D03*
D21*
X117462000Y-71591500D03*
X119362000Y-71591500D03*
D19*
X138811000Y-41168000D03*
X138811000Y-39268000D03*
X144145000Y-56159000D03*
X144145000Y-58059000D03*
D21*
X121605000Y-59903000D03*
X123505000Y-59903000D03*
D19*
X142113000Y-56159000D03*
X142113000Y-58059000D03*
X115175000Y-61625000D03*
X115175000Y-59725000D03*
X108760000Y-61619500D03*
X108760000Y-59719500D03*
X104975000Y-61625000D03*
X104975000Y-59725000D03*
X111300000Y-61619500D03*
X111300000Y-59719500D03*
X99949000Y-51963000D03*
X99949000Y-50063000D03*
D21*
X93533000Y-74889000D03*
X91633000Y-74889000D03*
X94935000Y-60030000D03*
X96835000Y-60030000D03*
D22*
X98625000Y-89875000D03*
D21*
X97675000Y-89875000D03*
X99575000Y-89875000D03*
D23*
X73932000Y-48620000D03*
D24*
X80567000Y-50800000D03*
D23*
X73932000Y-52980000D03*
D17*
X69009000Y-70817000D03*
X71549000Y-70817000D03*
X71549000Y-61317000D03*
X69009000Y-61317000D03*
X85011000Y-70817000D03*
X87551000Y-70817000D03*
X87551000Y-61317000D03*
X85011000Y-61317000D03*
X74343000Y-70817000D03*
X76883000Y-70817000D03*
X76883000Y-61317000D03*
X74343000Y-61317000D03*
D20*
X105585000Y-69244000D03*
X104315000Y-69244000D03*
X103045000Y-69244000D03*
X101775000Y-69244000D03*
X101775000Y-63779000D03*
X103045000Y-63779000D03*
X104315000Y-63779000D03*
X105585000Y-63779000D03*
D16*
X123794000Y-65997040D03*
X123794000Y-63997040D03*
D25*
X59230000Y-52605000D03*
D26*
X59230000Y-50065000D03*
X59230000Y-47525000D03*
D27*
X129763000Y-72134440D03*
X128493000Y-72134440D03*
X127223000Y-72134440D03*
X125953000Y-72134440D03*
X125953000Y-65987640D03*
X127223000Y-65987640D03*
X128493000Y-65987640D03*
X129763000Y-65987640D03*
D28*
X72465000Y-57363000D03*
X78665000Y-57363000D03*
D29*
X72565000Y-44895000D03*
X72565000Y-39995000D03*
D16*
X61976000Y-49768000D03*
X61976000Y-47768000D03*
X64262000Y-47768000D03*
X64262000Y-49768000D03*
D30*
X88646000Y-36690000D03*
X88646000Y-44590000D03*
D16*
X127432000Y-98246000D03*
X127432000Y-100246000D03*
X72060000Y-101008000D03*
X72060000Y-99008000D03*
D31*
X67875000Y-36095000D03*
X72175000Y-36095000D03*
D32*
X147000000Y-34000000D03*
X147000000Y-134000000D03*
X53000000Y-134000000D03*
D16*
X131668000Y-65013040D03*
X131668000Y-67013040D03*
D14*
X126127000Y-63459000D03*
X128127000Y-63459000D03*
D22*
X101375000Y-109125000D03*
D21*
X100425000Y-109125000D03*
X102325000Y-109125000D03*
D22*
X101375000Y-89875000D03*
D21*
X100425000Y-89875000D03*
X102325000Y-89875000D03*
D22*
X98625000Y-109125000D03*
D21*
X99575000Y-109125000D03*
X97675000Y-109125000D03*
D18*
X62420500Y-39116000D03*
X54419500Y-39116000D03*
D14*
X106791000Y-38821000D03*
X104791000Y-38821000D03*
D16*
X140716000Y-62681000D03*
X140716000Y-60681000D03*
D14*
X108950000Y-36789000D03*
X106950000Y-36789000D03*
D16*
X116967000Y-45917000D03*
X116967000Y-43917000D03*
D33*
X65913000Y-103591000D03*
X65913000Y-108671000D03*
X65913000Y-95971000D03*
X65913000Y-93431000D03*
X65913000Y-106131000D03*
X65913000Y-98511000D03*
X65913000Y-101051000D03*
D34*
X89000000Y-51374180D03*
X89000000Y-56875820D03*
D35*
X83945000Y-40599000D03*
X77345000Y-40599000D03*
D14*
X125587000Y-43393000D03*
X123587000Y-43393000D03*
X136922000Y-43393000D03*
X138922000Y-43393000D03*
X127651000Y-43393000D03*
X129651000Y-43393000D03*
X134858000Y-43393000D03*
X132858000Y-43393000D03*
X117840000Y-53045000D03*
X115840000Y-53045000D03*
D36*
X68120000Y-40145000D03*
X68120000Y-44745000D03*
D16*
X120523000Y-63951000D03*
X120523000Y-61951000D03*
D27*
X66675000Y-47726600D03*
X67945000Y-47726600D03*
X69215000Y-47726600D03*
X70485000Y-47726600D03*
X70485000Y-53873400D03*
X69215000Y-53873400D03*
X67945000Y-53873400D03*
X66675000Y-53873400D03*
X93980000Y-47685600D03*
X95250000Y-47685600D03*
X96520000Y-47685600D03*
X97790000Y-47685600D03*
X97790000Y-53832400D03*
X96520000Y-53832400D03*
X95250000Y-53832400D03*
X93980000Y-53832400D03*
D37*
X115867000Y-56789000D03*
X115867000Y-55839000D03*
X115867000Y-54889000D03*
X118067000Y-54889000D03*
X118067000Y-56789000D03*
X118067000Y-55839000D03*
D16*
X89789000Y-73127000D03*
X89789000Y-75127000D03*
X98933000Y-75127000D03*
X98933000Y-73127000D03*
D14*
X94885000Y-57490000D03*
X96885000Y-57490000D03*
D38*
X91533000Y-72603000D03*
X93633000Y-72603000D03*
X97189000Y-72603000D03*
X95089000Y-72603000D03*
D27*
X90690000Y-63426600D03*
X91960000Y-63426600D03*
X93230000Y-63426600D03*
X94500000Y-63426600D03*
X95770000Y-63426600D03*
X97040000Y-63426600D03*
X98310000Y-63426600D03*
X98310000Y-69573400D03*
X97040000Y-69573400D03*
X94500000Y-69573400D03*
X93230000Y-69573400D03*
X91960000Y-69573400D03*
X90690000Y-69573400D03*
X95770000Y-69573400D03*
D14*
X108474000Y-38821000D03*
X110474000Y-38821000D03*
D39*
X82125000Y-92625000D03*
X82125000Y-106375000D03*
X84875000Y-92625000D03*
X84875000Y-95375000D03*
X84875000Y-98125000D03*
X84875000Y-100875000D03*
X84875000Y-103625000D03*
X84875000Y-106375000D03*
X87625000Y-92625000D03*
X87625000Y-95375000D03*
X87625000Y-98125000D03*
X87625000Y-100875000D03*
X87625000Y-103625000D03*
X87625000Y-106375000D03*
X90375000Y-92625000D03*
X90375000Y-95375000D03*
X90375000Y-98125000D03*
X90375000Y-100875000D03*
X90375000Y-103625000D03*
X90375000Y-106375000D03*
X93125000Y-92625000D03*
X93125000Y-95375000D03*
X93125000Y-98125000D03*
X93125000Y-100875000D03*
X93125000Y-103625000D03*
X93125000Y-106375000D03*
X95875000Y-92625000D03*
X95875000Y-95375000D03*
X95875000Y-98125000D03*
X95875000Y-100875000D03*
X95875000Y-103625000D03*
X95875000Y-106375000D03*
X98625000Y-92625000D03*
X98625000Y-95375000D03*
X98625000Y-98125000D03*
X98625000Y-100875000D03*
X98625000Y-103625000D03*
X98625000Y-106375000D03*
X101375000Y-92625000D03*
X101375000Y-95375000D03*
X101375000Y-98125000D03*
X101375000Y-100875000D03*
X101375000Y-103625000D03*
X101375000Y-106375000D03*
X104125000Y-92625000D03*
X104125000Y-95375000D03*
X104125000Y-98125000D03*
X104125000Y-100875000D03*
X104125000Y-103625000D03*
X104125000Y-106375000D03*
X106875000Y-92625000D03*
X106875000Y-95375000D03*
X106875000Y-98125000D03*
X106875000Y-100875000D03*
X106875000Y-103625000D03*
X106875000Y-106375000D03*
X109625000Y-92625000D03*
X109625000Y-95375000D03*
X109625000Y-98125000D03*
X109625000Y-100875000D03*
X109625000Y-103625000D03*
X109625000Y-106375000D03*
X112375000Y-92625000D03*
X112375000Y-95375000D03*
X112375000Y-98125000D03*
X112375000Y-100875000D03*
X112375000Y-103625000D03*
X112375000Y-106375000D03*
X115125000Y-92625000D03*
X115125000Y-95375000D03*
X115125000Y-98125000D03*
X115125000Y-100875000D03*
X115125000Y-103625000D03*
X115125000Y-106375000D03*
X117875000Y-92625000D03*
X117875000Y-106375000D03*
X84875000Y-89875000D03*
X84875000Y-109125000D03*
X87625000Y-89875000D03*
X87625000Y-109125000D03*
X90375000Y-89875000D03*
X90375000Y-109125000D03*
X93125000Y-89875000D03*
X93125000Y-109125000D03*
X95875000Y-89875000D03*
X95875000Y-109125000D03*
X98625000Y-89875000D03*
X98625000Y-109125000D03*
X101375000Y-89875000D03*
X101375000Y-109125000D03*
X104125000Y-89875000D03*
X104125000Y-109125000D03*
X106875000Y-89875000D03*
X106875000Y-109125000D03*
X109625000Y-89875000D03*
X109625000Y-109125000D03*
X112375000Y-89875000D03*
X112375000Y-109125000D03*
X115125000Y-89875000D03*
X115125000Y-109125000D03*
X82125000Y-95375000D03*
X82125000Y-98125000D03*
X82125000Y-100875000D03*
X82125000Y-103625000D03*
X117875000Y-95375000D03*
X117875000Y-98125000D03*
X117875000Y-100875000D03*
X117875000Y-103625000D03*
X120625000Y-106375000D03*
X120625000Y-92625000D03*
X79375000Y-106375000D03*
X79375000Y-92625000D03*
X78000000Y-89875000D03*
X78000000Y-103625000D03*
X122000000Y-95375000D03*
X122000000Y-109125000D03*
X78000000Y-95375000D03*
X78000000Y-109125000D03*
X122000000Y-89875000D03*
X122000000Y-103625000D03*
X82125000Y-89875000D03*
X82125000Y-109125000D03*
X117875000Y-89875000D03*
X117875000Y-109125000D03*
D40*
X98475800Y-39475600D03*
X98475800Y-35575600D03*
X97205800Y-39475600D03*
X97205800Y-35575600D03*
X95935800Y-39475600D03*
X95935800Y-35575600D03*
X94665800Y-39475600D03*
X94665800Y-35575600D03*
X93395800Y-39475600D03*
X93395800Y-35575600D03*
D41*
X112935000Y-44199000D03*
X112935000Y-44699000D03*
X112935000Y-45199000D03*
X112935000Y-45699000D03*
X112935000Y-46199000D03*
X112935000Y-46699000D03*
X112935000Y-47199000D03*
X112935000Y-47699000D03*
X112935000Y-48199000D03*
X112935000Y-48699000D03*
X112935000Y-49199000D03*
X112935000Y-49699000D03*
D42*
X111335000Y-51299000D03*
X110835000Y-51299000D03*
X110335000Y-51299000D03*
X109835000Y-51299000D03*
X109335000Y-51299000D03*
X108835000Y-51299000D03*
X108335000Y-51299000D03*
X107835000Y-51299000D03*
X107335000Y-51299000D03*
X106835000Y-51299000D03*
X106335000Y-51299000D03*
X105835000Y-51299000D03*
D41*
X104235000Y-49699000D03*
X104235000Y-49199000D03*
X104235000Y-48699000D03*
X104235000Y-48199000D03*
X104235000Y-47699000D03*
X104235000Y-47199000D03*
X104235000Y-46699000D03*
X104235000Y-46199000D03*
X104235000Y-45699000D03*
X104235000Y-45199000D03*
X104235000Y-44699000D03*
X104235000Y-44199000D03*
D42*
X105835000Y-42599000D03*
X106335000Y-42599000D03*
X106835000Y-42599000D03*
X107335000Y-42599000D03*
X107835000Y-42599000D03*
X108335000Y-42599000D03*
X108835000Y-42599000D03*
X109335000Y-42599000D03*
X109835000Y-42599000D03*
X110335000Y-42599000D03*
X110835000Y-42599000D03*
X111335000Y-42599000D03*
D14*
X111363000Y-54315000D03*
X109363000Y-54315000D03*
D16*
X116967000Y-47727000D03*
X116967000Y-49727000D03*
D43*
X115189000Y-37297000D03*
D44*
X121793000Y-37297000D03*
X121793000Y-39583000D03*
X121793000Y-35011000D03*
D30*
X141986000Y-34871000D03*
X141986000Y-42771000D03*
D45*
X146977000Y-44808000D03*
X145377000Y-44808000D03*
X146977000Y-40708000D03*
X145377000Y-40708000D03*
D46*
X127870000Y-39010000D03*
D47*
X129250000Y-40920000D03*
X129750000Y-40920000D03*
X130250000Y-40920000D03*
X130750000Y-40920000D03*
X131250000Y-40920000D03*
X131750000Y-40920000D03*
X132250000Y-40920000D03*
X134750000Y-40920000D03*
X133750000Y-40920000D03*
X133250000Y-40920000D03*
X132750000Y-40920000D03*
X134250000Y-40920000D03*
X134500000Y-39220000D03*
D46*
X136130000Y-39010000D03*
X136490000Y-33060000D03*
X127510000Y-33060000D03*
D47*
X134000000Y-39220000D03*
X133500000Y-39220000D03*
X133000000Y-39220000D03*
X132500000Y-39220000D03*
X132000000Y-39220000D03*
X131500000Y-39220000D03*
X131000000Y-39220000D03*
X130500000Y-39220000D03*
X130000000Y-39220000D03*
X129500000Y-39220000D03*
X129000000Y-39220000D03*
D48*
X138811000Y-34400000D03*
X138811000Y-37400000D03*
X124714000Y-37654000D03*
X124714000Y-34654000D03*
D16*
X124714000Y-41218000D03*
X124714000Y-39218000D03*
D49*
X146963000Y-63000000D03*
D50*
X148463000Y-63000000D03*
D39*
X127500000Y-92625000D03*
X127500000Y-106375000D03*
X72500000Y-106375000D03*
X72500000Y-92625000D03*
D51*
X104800000Y-91260000D03*
X105600000Y-91260000D03*
X106400000Y-91260000D03*
X107200000Y-91260000D03*
X108000000Y-91260000D03*
X108800000Y-91260000D03*
X109600000Y-91260000D03*
X110400000Y-91260000D03*
X111200000Y-91260000D03*
X112000000Y-91260000D03*
X112800000Y-91260000D03*
X113600000Y-91260000D03*
X114400000Y-91260000D03*
X115200000Y-91260000D03*
X116000000Y-91260000D03*
X116800000Y-91260000D03*
X117600000Y-91260000D03*
X118400000Y-91260000D03*
X119200000Y-91260000D03*
X120000000Y-91260000D03*
X120800000Y-91260000D03*
X121600000Y-91260000D03*
X122400000Y-91260000D03*
X123200000Y-91260000D03*
D52*
X125240000Y-93500000D03*
X125240000Y-94300000D03*
X125240000Y-95100000D03*
X125240000Y-95900000D03*
X125240000Y-96700000D03*
X125240000Y-97500000D03*
X125240000Y-98300000D03*
X125240000Y-99100000D03*
X125240000Y-99900000D03*
X125240000Y-100700000D03*
X125240000Y-101500000D03*
X125240000Y-102300000D03*
X125240000Y-103100000D03*
X125240000Y-103900000D03*
X125240000Y-104700000D03*
X125240000Y-105500000D03*
D51*
X123200000Y-107740000D03*
X122400000Y-107740000D03*
X121600000Y-107740000D03*
X120800000Y-107740000D03*
X120000000Y-107740000D03*
X119200000Y-107740000D03*
X118400000Y-107740000D03*
X117600000Y-107740000D03*
X116800000Y-107740000D03*
X116000000Y-107740000D03*
X115200000Y-107740000D03*
X114400000Y-107740000D03*
X113600000Y-107740000D03*
X112800000Y-107740000D03*
X112000000Y-107740000D03*
X111200000Y-107740000D03*
X110400000Y-107740000D03*
X109600000Y-107740000D03*
X108800000Y-107740000D03*
X108000000Y-107740000D03*
X107200000Y-107740000D03*
X106400000Y-107740000D03*
X105600000Y-107740000D03*
X104800000Y-107740000D03*
D52*
X102760000Y-105500000D03*
X102760000Y-104700000D03*
X102760000Y-103900000D03*
X102760000Y-103100000D03*
X102760000Y-102300000D03*
X102760000Y-101500000D03*
X102760000Y-100700000D03*
X102760000Y-99900000D03*
X102760000Y-99100000D03*
X102760000Y-98300000D03*
X102760000Y-97500000D03*
X102760000Y-96700000D03*
X102760000Y-95900000D03*
X102760000Y-95100000D03*
X102760000Y-94300000D03*
X102760000Y-93500000D03*
D51*
X95200000Y-107740000D03*
X94400000Y-107740000D03*
X93600000Y-107740000D03*
X92800000Y-107740000D03*
X92000000Y-107740000D03*
X91200000Y-107740000D03*
X90400000Y-107740000D03*
X89600000Y-107740000D03*
X88800000Y-107740000D03*
X88000000Y-107740000D03*
X87200000Y-107740000D03*
X86400000Y-107740000D03*
X85600000Y-107740000D03*
X84800000Y-107740000D03*
X84000000Y-107740000D03*
X83200000Y-107740000D03*
X82400000Y-107740000D03*
X81600000Y-107740000D03*
X80800000Y-107740000D03*
X80000000Y-107740000D03*
X79200000Y-107740000D03*
X78400000Y-107740000D03*
X77600000Y-107740000D03*
X76800000Y-107740000D03*
D52*
X74760000Y-105500000D03*
X74760000Y-104700000D03*
X74760000Y-103900000D03*
X74760000Y-103100000D03*
X74760000Y-102300000D03*
X74760000Y-101500000D03*
X74760000Y-100700000D03*
X74760000Y-99900000D03*
X74760000Y-99100000D03*
X74760000Y-98300000D03*
X74760000Y-97500000D03*
X74760000Y-96700000D03*
X74760000Y-95900000D03*
X74760000Y-95100000D03*
X74760000Y-94300000D03*
X74760000Y-93500000D03*
D51*
X76800000Y-91260000D03*
X77600000Y-91260000D03*
X78400000Y-91260000D03*
X79200000Y-91260000D03*
X80000000Y-91260000D03*
X80800000Y-91260000D03*
X81600000Y-91260000D03*
X82400000Y-91260000D03*
X83200000Y-91260000D03*
X84000000Y-91260000D03*
X84800000Y-91260000D03*
X85600000Y-91260000D03*
X86400000Y-91260000D03*
X87200000Y-91260000D03*
X88000000Y-91260000D03*
X88800000Y-91260000D03*
X89600000Y-91260000D03*
X90400000Y-91260000D03*
X91200000Y-91260000D03*
X92000000Y-91260000D03*
X92800000Y-91260000D03*
X93600000Y-91260000D03*
X94400000Y-91260000D03*
X95200000Y-91260000D03*
D52*
X97240000Y-93500000D03*
X97240000Y-94300000D03*
X97240000Y-95100000D03*
X97240000Y-95900000D03*
X97240000Y-96700000D03*
X97240000Y-97500000D03*
X97240000Y-98300000D03*
X97240000Y-99100000D03*
X97240000Y-99900000D03*
X97240000Y-100700000D03*
X97240000Y-101500000D03*
X97240000Y-102300000D03*
X97240000Y-103100000D03*
X97240000Y-103900000D03*
X97240000Y-104700000D03*
X97240000Y-105500000D03*
D39*
X76625000Y-92625000D03*
X76625000Y-106375000D03*
X123375000Y-92625000D03*
X123375000Y-106375000D03*
D53*
X90265000Y-135539000D03*
X89265000Y-135539000D03*
X88265000Y-135539000D03*
X87265000Y-135539000D03*
X86265000Y-135539000D03*
X90265000Y-134539000D03*
X89765000Y-135039000D03*
X89265000Y-134539000D03*
X88765000Y-135039000D03*
X88265000Y-134539000D03*
X87765000Y-135039000D03*
X87265000Y-134539000D03*
X86765000Y-135039000D03*
X86265000Y-134539000D03*
X90265000Y-133539000D03*
X89765000Y-134039000D03*
X89265000Y-133539000D03*
X88765000Y-134039000D03*
X88265000Y-133539000D03*
X87765000Y-134039000D03*
X87265000Y-133539000D03*
X86765000Y-134039000D03*
X86265000Y-133539000D03*
D54*
X76265000Y-129539000D03*
X76265000Y-134539000D03*
D55*
X139250000Y-47025000D03*
X137250000Y-47025000D03*
X137750000Y-47025000D03*
X138750000Y-47025000D03*
X138250000Y-47025000D03*
X136250000Y-47025000D03*
X136750000Y-47025000D03*
X135750000Y-47025000D03*
X135250000Y-47025000D03*
X132250000Y-47025000D03*
X132750000Y-47025000D03*
X133750000Y-47025000D03*
X133250000Y-47025000D03*
X134750000Y-47025000D03*
X134250000Y-47025000D03*
X126750000Y-47025000D03*
X127250000Y-47025000D03*
X125750000Y-47025000D03*
X126250000Y-47025000D03*
X125250000Y-47025000D03*
X124750000Y-47025000D03*
X127750000Y-47025000D03*
X128250000Y-47025000D03*
X129250000Y-47025000D03*
X128750000Y-47025000D03*
X130750000Y-47025000D03*
X131250000Y-47025000D03*
X130250000Y-47025000D03*
X129750000Y-47025000D03*
D56*
X122250000Y-48125000D03*
X141750000Y-48125000D03*
D55*
X131750000Y-47025000D03*
D19*
X121158000Y-54757000D03*
X121158000Y-52857000D03*
X121158000Y-56159000D03*
X121158000Y-58059000D03*
D57*
X144000000Y-70900000D03*
X144000000Y-121900000D03*
X56000000Y-121900000D03*
X56000000Y-70900000D03*
D58*
X77875000Y-86375000D03*
D36*
X55225000Y-48825000D03*
X55225000Y-53425000D03*
D16*
X99568000Y-58903000D03*
X99568000Y-60903000D03*
D19*
X144875000Y-36625000D03*
X144875000Y-38525000D03*
X146875000Y-36625000D03*
X146875000Y-38525000D03*
D53*
X110109000Y-57900000D03*
D59*
X83693000Y-46695000D03*
X69215000Y-50759000D03*
X145475000Y-35375000D03*
X120269000Y-34503000D03*
X123317000Y-34503000D03*
X140970000Y-40726000D03*
X142875000Y-40726000D03*
X137160000Y-132039000D03*
D53*
X121158000Y-57109000D03*
D59*
X52578000Y-65999000D03*
X116586000Y-41361000D03*
X139446000Y-62697000D03*
X114681000Y-54442000D03*
X88646000Y-42631000D03*
X90932000Y-44790000D03*
X90932000Y-43647000D03*
X65659000Y-44663000D03*
X55245000Y-41615000D03*
X55372000Y-36281000D03*
X57023000Y-39456000D03*
X57023000Y-38694000D03*
X132334000Y-49743000D03*
X129667000Y-64475000D03*
X138811000Y-38313000D03*
X99441000Y-35519000D03*
X105664000Y-36916000D03*
X104902000Y-37805000D03*
X110109000Y-54950000D03*
X110109000Y-53807000D03*
X102743000Y-45298000D03*
X118872000Y-41107000D03*
X123571000Y-41488000D03*
X135128000Y-41869000D03*
X134874000Y-38821000D03*
X128905000Y-38186000D03*
X128651000Y-41361000D03*
D53*
X94742000Y-37170000D03*
X98425000Y-37170000D03*
X130937000Y-59141000D03*
X121575000Y-64575000D03*
X124841000Y-60411000D03*
X134493000Y-60665000D03*
X65659000Y-42885000D03*
X56769000Y-41615000D03*
X56769000Y-36281000D03*
X85725000Y-59903000D03*
X84963000Y-59903000D03*
X93345000Y-55585000D03*
X99075000Y-63475000D03*
X103759000Y-62633500D03*
X110109000Y-62633500D03*
X116459000Y-62633500D03*
X128143000Y-61681000D03*
X110617000Y-56601000D03*
X105029000Y-57363000D03*
X130429000Y-48219000D03*
X107061000Y-48854000D03*
X130556000Y-49235000D03*
X106299000Y-49870000D03*
X133223000Y-61681000D03*
X133223000Y-45044000D03*
X106553000Y-45933000D03*
X133985000Y-45679000D03*
X107569000Y-46187000D03*
X113919000Y-50505000D03*
X137795000Y-65745000D03*
X77391000Y-138195000D03*
X109093000Y-47457000D03*
X118364000Y-47457000D03*
X118110000Y-51140000D03*
X135509000Y-66253000D03*
X129080000Y-135147000D03*
X110617000Y-49997000D03*
X131572000Y-48854000D03*
X118618000Y-43774000D03*
X121666000Y-43774000D03*
X121793000Y-42377000D03*
X112141000Y-42377000D03*
X96187000Y-133623000D03*
X96060000Y-140227000D03*
X136271000Y-64983000D03*
X114808000Y-51140000D03*
X103807000Y-137306000D03*
X96060000Y-137433000D03*
X118999000Y-46695000D03*
X136896000Y-66878000D03*
X118999000Y-50886000D03*
X108331000Y-46695000D03*
X103299000Y-138703000D03*
X113875000Y-57375000D03*
X108468000Y-57275000D03*
X122555000Y-60284000D03*
X115951000Y-58379000D03*
X142240000Y-64348000D03*
X129413000Y-63459000D03*
X62103000Y-65237000D03*
X65659000Y-65237000D03*
D59*
X90678000Y-54188000D03*
X98425000Y-58575000D03*
D53*
X74295000Y-63205000D03*
X120439417Y-65607457D03*
X102997000Y-66507000D03*
X121031000Y-66207457D03*
X115697000Y-66207457D03*
X107696000Y-55458000D03*
X105918000Y-55458000D03*
X109347000Y-66761000D03*
X122301000Y-67396000D03*
X119507000Y-64983000D03*
X104267000Y-65722999D03*
X110617000Y-66253000D03*
X121689229Y-66807457D03*
D59*
X63373000Y-66761000D03*
D53*
X66929000Y-66761000D03*
D59*
X98275000Y-59775000D03*
X88975000Y-59275000D03*
X100375000Y-66975000D03*
X82169000Y-62502600D03*
X58801000Y-60919000D03*
D53*
X114681000Y-67615000D03*
X111887000Y-67523000D03*
X105791000Y-67523000D03*
D59*
X125603000Y-39202000D03*
X126365000Y-41234000D03*
X138557000Y-64221000D03*
X137414000Y-64221000D03*
D53*
X133223000Y-64475000D03*
X102235000Y-141437000D03*
X101219000Y-134071000D03*
X114427000Y-41615000D03*
X112268000Y-39329000D03*
X113030000Y-38821000D03*
X115443000Y-41615000D03*
X109982000Y-49362000D03*
X102362000Y-51267000D03*
X138303000Y-44790000D03*
X136144000Y-45679000D03*
X144272000Y-43139000D03*
X107823000Y-43774000D03*
X105156000Y-40091000D03*
X111125000Y-40980000D03*
X103632000Y-41234000D03*
X110109000Y-40970000D03*
X106299000Y-44917000D03*
X131064000Y-44790000D03*
X105029000Y-56093000D03*
X140081000Y-56093000D03*
X80137000Y-58379000D03*
X64897000Y-54823000D03*
X77343000Y-57363000D03*
X67945000Y-52029000D03*
X137414000Y-59776000D03*
X101473000Y-52029000D03*
X111506000Y-50124000D03*
X129159000Y-60157000D03*
X116967000Y-58379000D03*
X118110000Y-57744000D03*
X129790291Y-59566849D03*
X132250000Y-41953000D03*
X131445000Y-38186000D03*
X131699000Y-44155000D03*
X105664000Y-45552000D03*
X94567126Y-65069990D03*
X93853000Y-67015000D03*
X102870000Y-47965000D03*
X97663000Y-51267000D03*
X96647000Y-51648000D03*
X103886000Y-50378000D03*
X106553000Y-52791000D03*
X98679000Y-53807000D03*
X94869000Y-67015000D03*
X98171000Y-67015000D03*
X95412277Y-64979211D03*
X91313000Y-61681000D03*
D59*
X92329000Y-45171000D03*
D53*
X69977000Y-59395000D03*
X76835000Y-62824000D03*
D59*
X119253000Y-62189000D03*
X96647000Y-61681000D03*
X89281000Y-67523000D03*
D53*
X130475000Y-41775000D03*
X148075000Y-38575000D03*
X132375000Y-38175000D03*
X143575000Y-38475000D03*
X122936000Y-53172000D03*
X117094000Y-50886000D03*
X144272000Y-41615000D03*
X112014000Y-41615000D03*
D60*
X83945000Y-46443000D02*
X83945000Y-40599000D01*
X83693000Y-46695000D02*
X83945000Y-46443000D01*
X69215000Y-53873400D02*
X69215000Y-50759000D01*
X68707000Y-56093000D02*
X69215000Y-55585000D01*
X69215000Y-55585000D02*
X69215000Y-53873400D01*
X63627000Y-56093000D02*
X68707000Y-56093000D01*
X61976000Y-54442000D02*
X63627000Y-56093000D01*
X61976000Y-49768000D02*
X61976000Y-54442000D01*
X60833000Y-49128000D02*
X60833000Y-49750000D01*
X60833000Y-49750000D02*
X60851000Y-49768000D01*
X60851000Y-49768000D02*
X61976000Y-49768000D01*
X59230000Y-47525000D02*
X60833000Y-49128000D01*
X88646000Y-36690000D02*
X87335000Y-36690000D01*
X87335000Y-36690000D02*
X83485000Y-40540000D01*
D61*
X76885000Y-40540000D02*
X76885000Y-43951000D01*
X76885000Y-43951000D02*
X80567000Y-47633000D01*
X80567000Y-47633000D02*
X80567000Y-50800000D01*
X72175000Y-36095000D02*
X74109000Y-36095000D01*
X74109000Y-36095000D02*
X76885000Y-38871000D01*
X76885000Y-38871000D02*
X76885000Y-40540000D01*
D62*
X145875000Y-36625000D02*
X145875000Y-35775000D01*
X145875000Y-35775000D02*
X145475000Y-35375000D01*
X144875000Y-36625000D02*
X145875000Y-36625000D01*
X145875000Y-36625000D02*
X146875000Y-36625000D01*
D60*
X120777000Y-35011000D02*
X120269000Y-34503000D01*
X121793000Y-35011000D02*
X120777000Y-35011000D01*
X123444000Y-35011000D02*
X124357000Y-35011000D01*
X123444000Y-35011000D02*
X123444000Y-34630000D01*
X121793000Y-35011000D02*
X123444000Y-35011000D01*
X123444000Y-34630000D02*
X123317000Y-34503000D01*
X124357000Y-35011000D02*
X124714000Y-34654000D01*
D62*
X129750000Y-47025000D02*
X129750000Y-49406000D01*
D60*
X141986000Y-42771000D02*
X141986000Y-41742000D01*
X141986000Y-41742000D02*
X140970000Y-40726000D01*
X141986000Y-42771000D02*
X141986000Y-41615000D01*
X141986000Y-41615000D02*
X142875000Y-40726000D01*
X141986000Y-42771000D02*
X141986000Y-39583000D01*
X141671000Y-39268000D02*
X141986000Y-39583000D01*
X141671000Y-39268000D02*
X138811000Y-39268000D01*
X138557000Y-78318000D02*
X141732000Y-81493000D01*
X140716000Y-64094000D02*
X139446000Y-65364000D01*
X139446000Y-65364000D02*
X139446000Y-67777000D01*
X140716000Y-64094000D02*
X140716000Y-62681000D01*
X138176000Y-76032000D02*
X138176000Y-69047000D01*
X138176000Y-69047000D02*
X139446000Y-67777000D01*
X138557000Y-78318000D02*
X138176000Y-77937000D01*
X138176000Y-77937000D02*
X138176000Y-76032000D01*
X138176000Y-131023000D02*
X137160000Y-132039000D01*
X138176000Y-122387000D02*
X138176000Y-131023000D01*
X141732000Y-118831000D02*
X138176000Y-122387000D01*
X141732000Y-81493000D02*
X141732000Y-118831000D01*
D61*
X121158000Y-58059000D02*
X121158000Y-57109000D01*
D62*
X145377000Y-40708000D02*
X145377000Y-42288000D01*
X145288000Y-42377000D02*
X142380000Y-42377000D01*
X145377000Y-42288000D02*
X145288000Y-42377000D01*
X142380000Y-42377000D02*
X141986000Y-42771000D01*
D60*
X56000000Y-70900000D02*
X54431000Y-70900000D01*
X52578000Y-69047000D02*
X52578000Y-65999000D01*
X54431000Y-70900000D02*
X52578000Y-69047000D01*
X116586000Y-41361000D02*
X116586000Y-41615000D01*
X116840000Y-41869000D02*
X119335598Y-41869000D01*
X116586000Y-41615000D02*
X116840000Y-41869000D01*
X140716000Y-62681000D02*
X139462000Y-62681000D01*
X139462000Y-62681000D02*
X139446000Y-62697000D01*
X115867000Y-55839000D02*
X114935000Y-55839000D01*
X114681000Y-55585000D02*
X114681000Y-54442000D01*
X114935000Y-55839000D02*
X114681000Y-55585000D01*
X88646000Y-44590000D02*
X88646000Y-42631000D01*
X88646000Y-44590000D02*
X89081000Y-44590000D01*
X88646000Y-44590000D02*
X90224000Y-44590000D01*
X90224000Y-44590000D02*
X90424000Y-44790000D01*
X90424000Y-44790000D02*
X90932000Y-44790000D01*
X88646000Y-44590000D02*
X89227000Y-44590000D01*
X89227000Y-44590000D02*
X90170000Y-43647000D01*
X90170000Y-43647000D02*
X90932000Y-43647000D01*
X68120000Y-44745000D02*
X65741000Y-44745000D01*
X65741000Y-44745000D02*
X65659000Y-44663000D01*
X54419500Y-39116000D02*
X54419500Y-40789500D01*
X54419500Y-40789500D02*
X55245000Y-41615000D01*
X54419500Y-39116000D02*
X54419500Y-37233500D01*
X54419500Y-37233500D02*
X55372000Y-36281000D01*
X54419500Y-39116000D02*
X56048000Y-39116000D01*
X56048000Y-39116000D02*
X56388000Y-39456000D01*
X56388000Y-39456000D02*
X57023000Y-39456000D01*
X54419500Y-39116000D02*
X55966000Y-39116000D01*
X55966000Y-39116000D02*
X56388000Y-38694000D01*
X56388000Y-38694000D02*
X57023000Y-38694000D01*
D62*
X132207000Y-49489000D02*
X132207000Y-49616000D01*
X131445000Y-50251000D02*
X132207000Y-49489000D01*
X130175000Y-50251000D02*
X131445000Y-50251000D01*
X129750000Y-49826000D02*
X130175000Y-50251000D01*
X129750000Y-49406000D02*
X129750000Y-49826000D01*
X132207000Y-49616000D02*
X132334000Y-49743000D01*
D60*
X146644000Y-62681000D02*
X146963000Y-63000000D01*
X129763000Y-64571000D02*
X129667000Y-64475000D01*
X129763000Y-65987640D02*
X129763000Y-64571000D01*
X138922000Y-43393000D02*
X141364000Y-43393000D01*
X141364000Y-43393000D02*
X141986000Y-42771000D01*
X138811000Y-38313000D02*
X138811000Y-39268000D01*
X138811000Y-37400000D02*
X138811000Y-38313000D01*
X98475800Y-35575600D02*
X99384400Y-35575600D01*
X99384400Y-35575600D02*
X99441000Y-35519000D01*
X104902000Y-38710000D02*
X104902000Y-37805000D01*
X105664000Y-36916000D02*
X104902000Y-37678000D01*
X105664000Y-36916000D02*
X106823000Y-36916000D01*
X104902000Y-37678000D02*
X104902000Y-37805000D01*
X104902000Y-38710000D02*
X104791000Y-38821000D01*
X106950000Y-34757000D02*
X106950000Y-36789000D01*
X106950000Y-36789000D02*
X106823000Y-36916000D01*
X109363000Y-54315000D02*
X109474000Y-54315000D01*
X109474000Y-54315000D02*
X110109000Y-54950000D01*
X109363000Y-54315000D02*
X109601000Y-54315000D01*
X109601000Y-54315000D02*
X110109000Y-53807000D01*
D62*
X103342000Y-44699000D02*
X102743000Y-45298000D01*
X104235000Y-44699000D02*
X103342000Y-44699000D01*
D60*
X102743000Y-45298000D02*
X102743000Y-46425000D01*
X102743000Y-46425000D02*
X101219000Y-47949000D01*
X116967000Y-45917000D02*
X118253000Y-45917000D01*
X119335598Y-41570598D02*
X118872000Y-41107000D01*
X119335598Y-44834402D02*
X119335598Y-41869000D01*
X119335598Y-41869000D02*
X119335598Y-41570598D01*
X118253000Y-45917000D02*
X119335598Y-44834402D01*
X116967000Y-45917000D02*
X116967000Y-47727000D01*
X116685000Y-46199000D02*
X115443000Y-46199000D01*
D62*
X113885000Y-46199000D02*
X112935000Y-46199000D01*
X115443000Y-46199000D02*
X113885000Y-46199000D01*
D60*
X116685000Y-46199000D02*
X116967000Y-45917000D01*
X124714000Y-41218000D02*
X123841000Y-41218000D01*
X123841000Y-41218000D02*
X123571000Y-41488000D01*
D62*
X134750000Y-40920000D02*
X134750000Y-41618000D01*
X134750000Y-41618000D02*
X135128000Y-41869000D01*
X134500000Y-39220000D02*
X134500000Y-39195000D01*
X134500000Y-39195000D02*
X134874000Y-38821000D01*
X129000000Y-39220000D02*
X129000000Y-38281000D01*
X129000000Y-38281000D02*
X128905000Y-38186000D01*
X129250000Y-40920000D02*
X129092000Y-40920000D01*
X129092000Y-40920000D02*
X128651000Y-41361000D01*
X101219000Y-47949000D02*
X101489000Y-47949000D01*
X102834000Y-45207000D02*
X102743000Y-45298000D01*
X134858000Y-43393000D02*
X134858000Y-41980000D01*
X134750000Y-41872000D02*
X134750000Y-40920000D01*
X134858000Y-41980000D02*
X134750000Y-41872000D01*
X141986000Y-44917000D02*
X145268000Y-44917000D01*
X145268000Y-44917000D02*
X145377000Y-44808000D01*
X134750000Y-40920000D02*
X134750000Y-40221000D01*
X134500000Y-39971000D02*
X134500000Y-39220000D01*
X134750000Y-40221000D02*
X134500000Y-39971000D01*
X129250000Y-40920000D02*
X129250000Y-40182000D01*
X129000000Y-39932000D02*
X129000000Y-39220000D01*
X129250000Y-40182000D02*
X129000000Y-39932000D01*
X95935800Y-35575600D02*
X95935800Y-37297000D01*
X95935800Y-37297000D02*
X95885000Y-37297000D01*
X94665800Y-35575600D02*
X94665800Y-37093800D01*
X98171000Y-37297000D02*
X98475800Y-36992200D01*
X98475800Y-36992200D02*
X98475800Y-35575600D01*
X94869000Y-37297000D02*
X95885000Y-37297000D01*
X95885000Y-37297000D02*
X98171000Y-37297000D01*
X94665800Y-37093800D02*
X94869000Y-37297000D01*
X139700000Y-47025000D02*
X139700000Y-46187000D01*
X139250000Y-47025000D02*
X139700000Y-47025000D01*
X141986000Y-45044000D02*
X141986000Y-44917000D01*
X141986000Y-44917000D02*
X141986000Y-42771000D01*
X141859000Y-45171000D02*
X141986000Y-45044000D01*
X140716000Y-45171000D02*
X141859000Y-45171000D01*
X139700000Y-46187000D02*
X140716000Y-45171000D01*
X141364000Y-43393000D02*
X141986000Y-42771000D01*
X108335000Y-42599000D02*
X108335000Y-41492000D01*
X108335000Y-41492000D02*
X107569000Y-40726000D01*
X107569000Y-40726000D02*
X106553000Y-40726000D01*
X106553000Y-40726000D02*
X105791000Y-39964000D01*
X105791000Y-39964000D02*
X105791000Y-38948000D01*
X105791000Y-38948000D02*
X105664000Y-38821000D01*
X105664000Y-38821000D02*
X104791000Y-38821000D01*
D63*
X108474000Y-38821000D02*
X108474000Y-38313000D01*
X108474000Y-38313000D02*
X106950000Y-36789000D01*
X109363000Y-54315000D02*
X109363000Y-54172000D01*
D62*
X108835000Y-51299000D02*
X108835000Y-52660000D01*
X108835000Y-52660000D02*
X109363000Y-53188000D01*
X109363000Y-53188000D02*
X109363000Y-54315000D01*
X99441000Y-71333000D02*
X99908001Y-71800001D01*
X99908001Y-71800001D02*
X99908001Y-74276999D01*
X99908001Y-74276999D02*
X99058000Y-75127000D01*
X99058000Y-75127000D02*
X98933000Y-75127000D01*
X99441000Y-64265264D02*
X99441000Y-71333000D01*
X99075000Y-63475000D02*
X99075000Y-63899264D01*
X99075000Y-63899264D02*
X99441000Y-64265264D01*
X120523000Y-63951000D02*
X120951000Y-63951000D01*
X120951000Y-63951000D02*
X121575000Y-64575000D01*
X99075000Y-63475000D02*
X98358400Y-63475000D01*
X98358400Y-63475000D02*
X98310000Y-63426600D01*
X85011000Y-61317000D02*
X85011000Y-62903000D01*
X85011000Y-62903000D02*
X84455000Y-63459000D01*
X84455000Y-63459000D02*
X80719000Y-63459000D01*
X80719000Y-63459000D02*
X79677000Y-62417000D01*
X79677000Y-62417000D02*
X79677000Y-61317000D01*
X120523000Y-63671500D02*
X120523000Y-64157500D01*
X68120000Y-44745000D02*
X67620000Y-44745000D01*
X67620000Y-44745000D02*
X65760000Y-42885000D01*
X65760000Y-42885000D02*
X65659000Y-42885000D01*
X55219600Y-39116000D02*
X56769000Y-40665400D01*
X56769000Y-40665400D02*
X56769000Y-41615000D01*
X55219600Y-39116000D02*
X56769000Y-37566600D01*
X56769000Y-37566600D02*
X56769000Y-36281000D01*
X85011000Y-61317000D02*
X85011000Y-60617000D01*
X85011000Y-60617000D02*
X85725000Y-59903000D01*
X85011000Y-61317000D02*
X85011000Y-59951000D01*
X85011000Y-59951000D02*
X84963000Y-59903000D01*
X93980000Y-53832400D02*
X93980000Y-54950000D01*
X93980000Y-54950000D02*
X93345000Y-55585000D01*
X88973000Y-44917000D02*
X88646000Y-44590000D01*
X89335000Y-43901000D02*
X88646000Y-44590000D01*
X88646000Y-44590000D02*
X89208000Y-44590000D01*
X103759000Y-63779000D02*
X104315000Y-63779000D01*
X103045000Y-63779000D02*
X103759000Y-63779000D01*
X103759000Y-63779000D02*
X103759000Y-62633500D01*
X110109000Y-63779000D02*
X110665000Y-63779000D01*
X109395000Y-63779000D02*
X110109000Y-63779000D01*
X110109000Y-63779000D02*
X110109000Y-62633500D01*
X116459000Y-63779000D02*
X117015000Y-63779000D01*
X115745000Y-63779000D02*
X116459000Y-63779000D01*
X116459000Y-63779000D02*
X116459000Y-62633500D01*
X131668000Y-67013040D02*
X130788400Y-67013040D01*
X130788400Y-67013040D02*
X129763000Y-65987640D01*
X89789000Y-75127000D02*
X89789000Y-75927000D01*
X89789000Y-75927000D02*
X90529000Y-76667000D01*
X90529000Y-76667000D02*
X98193000Y-76667000D01*
X98193000Y-76667000D02*
X98933000Y-75927000D01*
X98933000Y-75927000D02*
X98933000Y-75127000D01*
X108347000Y-42587000D02*
X108335000Y-42599000D01*
X138557000Y-49489000D02*
X136271000Y-49489000D01*
X136271000Y-49489000D02*
X132207000Y-49489000D01*
X136250000Y-47025000D02*
X136250000Y-49468000D01*
X136250000Y-49468000D02*
X136271000Y-49489000D01*
X132250000Y-47025000D02*
X132250000Y-49446000D01*
X132250000Y-49446000D02*
X132207000Y-49489000D01*
X129667000Y-49489000D02*
X128397000Y-49489000D01*
X128250000Y-48072000D02*
X128250000Y-47025000D01*
X128250000Y-49342000D02*
X128250000Y-48072000D01*
X128397000Y-49489000D02*
X128250000Y-49342000D01*
X129750000Y-49406000D02*
X129667000Y-49489000D01*
X138750000Y-47025000D02*
X138750000Y-49296000D01*
X138750000Y-49296000D02*
X138557000Y-49489000D01*
X132250000Y-47025000D02*
X132750000Y-47025000D01*
X129750000Y-47025000D02*
X130250000Y-47025000D01*
X129250000Y-47025000D02*
X129750000Y-47025000D01*
X135250000Y-47025000D02*
X134750000Y-47025000D01*
X135750000Y-47025000D02*
X135250000Y-47025000D01*
X136250000Y-47025000D02*
X135750000Y-47025000D01*
X136750000Y-47025000D02*
X136250000Y-47025000D01*
X139250000Y-47025000D02*
X138750000Y-47025000D01*
X61976000Y-47768000D02*
X61976000Y-45872400D01*
X61976000Y-45872400D02*
X55219600Y-39116000D01*
X55219600Y-39116000D02*
X54419500Y-39116000D01*
X64262000Y-49768000D02*
X64101000Y-49768000D01*
X64101000Y-49768000D02*
X62101000Y-47768000D01*
X62101000Y-47768000D02*
X61976000Y-47768000D01*
X71501000Y-42885000D02*
X72565000Y-41821000D01*
X72565000Y-41821000D02*
X72565000Y-39995000D01*
X68680000Y-42885000D02*
X71501000Y-42885000D01*
X68120000Y-44745000D02*
X68120000Y-43445000D01*
X68120000Y-43445000D02*
X68680000Y-42885000D01*
X67945000Y-47726600D02*
X67945000Y-44920000D01*
X67945000Y-44920000D02*
X68120000Y-44745000D01*
X67945000Y-47726600D02*
X67945000Y-48981000D01*
X67945000Y-48981000D02*
X67158000Y-49768000D01*
X67158000Y-49768000D02*
X64262000Y-49768000D01*
X65766000Y-51628000D02*
X66675000Y-52537000D01*
X66675000Y-52537000D02*
X66675000Y-53873400D01*
X64262000Y-51628000D02*
X65766000Y-51628000D01*
X64262000Y-49768000D02*
X64262000Y-51628000D01*
X67945000Y-47726600D02*
X69215000Y-47726600D01*
X129763000Y-65987640D02*
X129763000Y-65124040D01*
X131668000Y-68365040D02*
X131668000Y-67013040D01*
D60*
X74803000Y-46187000D02*
X76327000Y-47711000D01*
X67875000Y-38567000D02*
X74295000Y-38567000D01*
X74295000Y-38567000D02*
X74803000Y-39075000D01*
X74803000Y-39075000D02*
X74803000Y-46187000D01*
X75057000Y-57363000D02*
X72465000Y-57363000D01*
X76327000Y-56093000D02*
X75057000Y-57363000D01*
X76327000Y-47711000D02*
X76327000Y-56093000D01*
X67875000Y-38567000D02*
X67875000Y-39075000D01*
X67875000Y-36095000D02*
X67875000Y-38567000D01*
X72263000Y-57363000D02*
X71549000Y-58077000D01*
X71549000Y-58077000D02*
X71549000Y-61317000D01*
X72465000Y-57363000D02*
X72263000Y-57363000D01*
X67875000Y-39075000D02*
X67875000Y-39900000D01*
X62420500Y-39116000D02*
X67834000Y-39116000D01*
X67834000Y-39116000D02*
X67875000Y-39075000D01*
X67875000Y-39900000D02*
X68120000Y-40145000D01*
D61*
X70485000Y-47726600D02*
X72517000Y-47726600D01*
X72517000Y-47726600D02*
X73038600Y-47726600D01*
X72565000Y-44895000D02*
X72565000Y-47678600D01*
X72565000Y-47678600D02*
X72517000Y-47726600D01*
X73038600Y-47726600D02*
X73932000Y-48620000D01*
X70485000Y-53873400D02*
X71065200Y-53873400D01*
X71065200Y-53873400D02*
X71958600Y-52980000D01*
X71958600Y-52980000D02*
X73932000Y-52980000D01*
X125250000Y-47025000D02*
X125250000Y-45181000D01*
X125250000Y-45181000D02*
X123587000Y-43518000D01*
X123587000Y-43518000D02*
X123587000Y-43393000D01*
X125750000Y-47025000D02*
X125750000Y-43556000D01*
X125750000Y-43556000D02*
X125587000Y-43393000D01*
X138250000Y-47025000D02*
X138250000Y-45753000D01*
X136922000Y-44425000D02*
X136922000Y-43393000D01*
X138250000Y-45753000D02*
X136922000Y-44425000D01*
X127651000Y-43393000D02*
X127651000Y-44268000D01*
X127651000Y-44268000D02*
X126250000Y-45669000D01*
X126250000Y-46150000D02*
X126250000Y-47025000D01*
X126250000Y-45669000D02*
X126250000Y-46150000D01*
X127889000Y-44917000D02*
X126750000Y-46056000D01*
X126750000Y-46056000D02*
X126750000Y-47025000D01*
X129002000Y-44917000D02*
X127889000Y-44917000D01*
X129651000Y-43393000D02*
X129651000Y-44268000D01*
X129651000Y-44268000D02*
X129002000Y-44917000D01*
X137750000Y-47025000D02*
X137750000Y-45888000D01*
X134382000Y-44917000D02*
X132858000Y-43393000D01*
X134904000Y-44917000D02*
X134382000Y-44917000D01*
X136779000Y-44917000D02*
X134904000Y-44917000D01*
X137750000Y-45888000D02*
X136779000Y-44917000D01*
X123952000Y-61173000D02*
X123444000Y-60665000D01*
X123952000Y-61173000D02*
X124460000Y-61681000D01*
X124460000Y-61681000D02*
X128143000Y-61681000D01*
X123444000Y-60665000D02*
X123444000Y-59964000D01*
X123444000Y-59964000D02*
X123505000Y-59903000D01*
X102156000Y-58194000D02*
X102156000Y-58077000D01*
X102156000Y-59719500D02*
X102156000Y-59119500D01*
X107835000Y-54466002D02*
X106326002Y-55975000D01*
X107835000Y-54466002D02*
X107835000Y-51299000D01*
X102156000Y-58194000D02*
X102156000Y-59119500D01*
X105573002Y-56728000D02*
X106326002Y-55975000D01*
X103505000Y-56728000D02*
X105573002Y-56728000D01*
X102156000Y-58077000D02*
X103505000Y-56728000D01*
X107835000Y-51299000D02*
X107835000Y-51824000D01*
X110617000Y-56601000D02*
X111379000Y-56601000D01*
X111335000Y-52493000D02*
X111335000Y-51299000D01*
X111506000Y-52664000D02*
X111335000Y-52493000D01*
X112014000Y-52664000D02*
X111506000Y-52664000D01*
X112395000Y-53045000D02*
X112014000Y-52664000D01*
X112395000Y-55585000D02*
X112395000Y-53045000D01*
X111379000Y-56601000D02*
X112395000Y-55585000D01*
X110677000Y-56541000D02*
X110617000Y-56601000D01*
X104975000Y-57375000D02*
X104975000Y-59725000D01*
X107335000Y-50378000D02*
X107335000Y-49128000D01*
X130750000Y-47821400D02*
X130750000Y-47025000D01*
X130750000Y-47821400D02*
X130429000Y-48219000D01*
X107335000Y-49128000D02*
X107061000Y-48854000D01*
X107335000Y-51299000D02*
X107335000Y-50378000D01*
X107335000Y-50378000D02*
X107335000Y-50358000D01*
X131250000Y-48160000D02*
X131250000Y-48287000D01*
X130810000Y-48727000D02*
X130556000Y-48981000D01*
X130556000Y-48981000D02*
X130556000Y-49235000D01*
X131250000Y-47025000D02*
X131250000Y-48065600D01*
X131250000Y-48065600D02*
X131250000Y-48160000D01*
X105835000Y-50505000D02*
X105835000Y-50399000D01*
X106299000Y-49870000D02*
X105835000Y-50334000D01*
X105835000Y-50334000D02*
X105835000Y-50399000D01*
X105835000Y-50505000D02*
X105835000Y-51299000D01*
X131250000Y-48287000D02*
X130810000Y-48727000D01*
X131250000Y-47025000D02*
X131250000Y-47652000D01*
X139065000Y-59649000D02*
X138811000Y-59649000D01*
X141351000Y-59649000D02*
X140589000Y-59649000D01*
X143637000Y-59649000D02*
X141351000Y-59649000D01*
X144145000Y-59141000D02*
X143637000Y-59649000D01*
X144145000Y-58059000D02*
X144145000Y-59141000D01*
X140589000Y-59649000D02*
X139065000Y-59649000D01*
X138811000Y-59649000D02*
X136779000Y-61681000D01*
X136779000Y-61681000D02*
X133223000Y-61681000D01*
X133223000Y-46998000D02*
X133223000Y-45044000D01*
X106287000Y-46199000D02*
X104235000Y-46199000D01*
X106287000Y-46199000D02*
X106553000Y-45933000D01*
X133223000Y-46998000D02*
X133250000Y-47025000D01*
X104247000Y-46187000D02*
X104235000Y-46199000D01*
X133985000Y-45679000D02*
X133750000Y-45914000D01*
X133750000Y-47025000D02*
X133750000Y-45914000D01*
X107057000Y-46699000D02*
X107569000Y-46187000D01*
X107057000Y-46699000D02*
X104235000Y-46699000D01*
X104239000Y-46695000D02*
X104235000Y-46699000D01*
X133750000Y-45952000D02*
X133731000Y-45933000D01*
X137287000Y-79207000D02*
X140081000Y-82001000D01*
X140335000Y-118069000D02*
X135509000Y-122895000D01*
X140335000Y-82255000D02*
X140335000Y-118069000D01*
X140081000Y-82001000D02*
X140335000Y-82255000D01*
X136779000Y-78699000D02*
X136779000Y-76921000D01*
X137287000Y-79207000D02*
X136779000Y-78699000D01*
X136779000Y-68031000D02*
X137287000Y-67523000D01*
X136779000Y-76921000D02*
X136779000Y-68031000D01*
X114172998Y-49826736D02*
X114172998Y-50378002D01*
X113835000Y-49199000D02*
X114172998Y-49536998D01*
X114172998Y-49536998D02*
X114172998Y-49826736D01*
X113835000Y-49199000D02*
X112935000Y-49199000D01*
X114172998Y-50378002D02*
X113919000Y-50505000D01*
X137287000Y-67523000D02*
X137795000Y-67015000D01*
X137795000Y-67015000D02*
X137795000Y-65745000D01*
X135509000Y-122895000D02*
X135509000Y-131277000D01*
X133144000Y-133642000D02*
X133144000Y-134639000D01*
X135509000Y-131277000D02*
X133144000Y-133642000D01*
D63*
X131175500Y-136607500D02*
X132890000Y-134893000D01*
X133144000Y-134639000D02*
X132890000Y-134893000D01*
X118158000Y-137306000D02*
X108887000Y-137306000D01*
X130477000Y-137306000D02*
X118158000Y-137306000D01*
X131175500Y-136607500D02*
X130477000Y-137306000D01*
X106220000Y-139973000D02*
X101902000Y-139973000D01*
X108887000Y-137306000D02*
X106220000Y-139973000D01*
X77391000Y-138195000D02*
X77391000Y-138576000D01*
X77391000Y-138576000D02*
X78534000Y-139719000D01*
X78534000Y-139719000D02*
X90726000Y-139719000D01*
X91996000Y-139719000D02*
X90726000Y-139719000D01*
X93774000Y-141497000D02*
X91996000Y-139719000D01*
X100378000Y-141497000D02*
X93774000Y-141497000D01*
X101902000Y-139973000D02*
X100378000Y-141497000D01*
X131175500Y-136607500D02*
X131112000Y-136671000D01*
D61*
X135763000Y-80350000D02*
X138684000Y-83271000D01*
X138811000Y-116945002D02*
X133985000Y-121771002D01*
X138811000Y-83398000D02*
X138811000Y-116945002D01*
X138684000Y-83271000D02*
X138811000Y-83398000D01*
X118110000Y-51140000D02*
X118110000Y-50632000D01*
X108851000Y-47699000D02*
X105283000Y-47699000D01*
X108851000Y-47699000D02*
X109093000Y-47457000D01*
X118364000Y-50378000D02*
X118364000Y-47457000D01*
X118110000Y-50632000D02*
X118364000Y-50378000D01*
X135255000Y-79842000D02*
X135255000Y-77937000D01*
X135763000Y-80350000D02*
X135255000Y-79842000D01*
X135255000Y-66507000D02*
X135509000Y-66253000D01*
X135255000Y-77937000D02*
X135255000Y-66507000D01*
X133985000Y-121771002D02*
X133985000Y-130515000D01*
X133985000Y-130515000D02*
X131620000Y-132880000D01*
X131620000Y-132880000D02*
X131620000Y-133750000D01*
D63*
X131620000Y-133750000D02*
X130223000Y-135147000D01*
X130223000Y-135147000D02*
X129080000Y-135147000D01*
D61*
X104235000Y-47699000D02*
X105283000Y-47699000D01*
X105283000Y-47699000D02*
X105271000Y-47699000D01*
X131750000Y-48422000D02*
X131750000Y-48676000D01*
X109835000Y-50525000D02*
X110363000Y-49997000D01*
X110363000Y-49997000D02*
X110617000Y-49997000D01*
X109835000Y-51299000D02*
X109835000Y-50525000D01*
X131750000Y-48422000D02*
X131750000Y-47025000D01*
X131750000Y-48676000D02*
X131572000Y-48854000D01*
X109855000Y-51279000D02*
X109835000Y-51299000D01*
X123888500Y-49870000D02*
X123888500Y-50126500D01*
X123888500Y-50126500D02*
X121158000Y-52857000D01*
X123888500Y-46187000D02*
X123888500Y-46123500D01*
X123888500Y-46123500D02*
X123444000Y-45679000D01*
X118491000Y-43647000D02*
X118618000Y-43774000D01*
X121666000Y-43774000D02*
X121666000Y-45171000D01*
X121666000Y-45171000D02*
X122174000Y-45679000D01*
X122174000Y-45679000D02*
X123444000Y-45679000D01*
X113637000Y-45199000D02*
X114526000Y-45199000D01*
X112935000Y-45199000D02*
X113637000Y-45199000D01*
X115570000Y-43139000D02*
X116078000Y-42631000D01*
X115570000Y-44155000D02*
X115570000Y-43139000D01*
X114526000Y-45199000D02*
X115570000Y-44155000D01*
X117983000Y-42631000D02*
X118491000Y-43139000D01*
X116078000Y-42631000D02*
X117983000Y-42631000D01*
X118491000Y-43139000D02*
X118491000Y-43647000D01*
X123888500Y-46187000D02*
X123888500Y-49870000D01*
X123888500Y-49870000D02*
X123888500Y-49933500D01*
X112935000Y-45199000D02*
X112410000Y-45199000D01*
X122682000Y-57998000D02*
X122682000Y-58826000D01*
X124288502Y-54740498D02*
X122682000Y-56347000D01*
X122682000Y-56347000D02*
X122682000Y-57998000D01*
X124288502Y-52918000D02*
X124288502Y-54740498D01*
X122682000Y-58826000D02*
X121605000Y-59903000D01*
X124288502Y-52537000D02*
X124288502Y-52918000D01*
X122428000Y-43266000D02*
X122428000Y-43012000D01*
X122428000Y-43266000D02*
X122428000Y-44663000D01*
X122428000Y-44663000D02*
X122809000Y-45044000D01*
X122809000Y-45044000D02*
X123698000Y-45044000D01*
X123698000Y-45044000D02*
X124288502Y-45634502D01*
X124288502Y-48600000D02*
X124288502Y-45634502D01*
X111335000Y-42599000D02*
X111557000Y-42377000D01*
X112141000Y-42377000D02*
X111557000Y-42377000D01*
X122428000Y-43012000D02*
X121793000Y-42377000D01*
X124288502Y-48600000D02*
X124288502Y-52537000D01*
X124288502Y-52537000D02*
X124288502Y-52555498D01*
D63*
X97330000Y-133562000D02*
X96248000Y-133562000D01*
X96248000Y-133562000D02*
X96187000Y-133623000D01*
X99997000Y-135467000D02*
X99423000Y-135467000D01*
X99423000Y-135467000D02*
X98600000Y-136290000D01*
X98600000Y-136290000D02*
X98600000Y-137621000D01*
X98600000Y-137621000D02*
X97330000Y-138891000D01*
X97330000Y-138891000D02*
X97330000Y-138957000D01*
X97330000Y-138957000D02*
X96060000Y-140227000D01*
D61*
X134493000Y-122133000D02*
X137668000Y-118958000D01*
X139319000Y-83017000D02*
X136144000Y-79842000D01*
X139319000Y-117307000D02*
X139319000Y-83017000D01*
X137668000Y-118958000D02*
X139319000Y-117307000D01*
X135763000Y-67142000D02*
X136271000Y-66634000D01*
X135763000Y-77429000D02*
X135763000Y-67142000D01*
X136271000Y-64983000D02*
X136271000Y-66634000D01*
D63*
X132128000Y-134004000D02*
X130223000Y-135909000D01*
X130223000Y-135909000D02*
X104315000Y-135909000D01*
X104315000Y-135909000D02*
X103807000Y-136417000D01*
X103807000Y-137306000D02*
X103807000Y-136417000D01*
D61*
X132128000Y-133134000D02*
X132128000Y-134004000D01*
X134493000Y-130769000D02*
X132128000Y-133134000D01*
X134493000Y-122133000D02*
X134493000Y-130769000D01*
X136144000Y-79842000D02*
X135763000Y-79461000D01*
X135763000Y-79461000D02*
X135763000Y-77429000D01*
X112935000Y-48699000D02*
X114173000Y-48699000D01*
X114173000Y-48699000D02*
X114272000Y-48699000D01*
X114272000Y-48699000D02*
X114808000Y-49235000D01*
X114808000Y-49235000D02*
X114808000Y-51140000D01*
D63*
X102410000Y-137367000D02*
X103746000Y-137367000D01*
X103746000Y-137367000D02*
X103807000Y-137306000D01*
X99997000Y-137367000D02*
X102410000Y-137367000D01*
X97330000Y-136991000D02*
X96502000Y-136991000D01*
X96502000Y-136991000D02*
X96060000Y-137433000D01*
X97330000Y-135462000D02*
X97330000Y-136991000D01*
D61*
X136779000Y-79588000D02*
X139827000Y-82636000D01*
X139827000Y-117688000D02*
X135001000Y-122514000D01*
X139827000Y-82636000D02*
X139827000Y-117688000D01*
X136271000Y-79080000D02*
X136271000Y-77048000D01*
X136779000Y-79588000D02*
X136271000Y-79080000D01*
X136271000Y-67503000D02*
X136896000Y-66878000D01*
X136271000Y-77048000D02*
X136271000Y-67503000D01*
X118999000Y-46695000D02*
X118999000Y-50886000D01*
X118872000Y-50759000D02*
X118999000Y-50886000D01*
X118872000Y-50759000D02*
X118999000Y-50886000D01*
X107827000Y-47199000D02*
X106807000Y-47199000D01*
X107827000Y-47199000D02*
X108331000Y-46695000D01*
X136896000Y-66878000D02*
X136779000Y-66761000D01*
D63*
X132636000Y-134258000D02*
X130350000Y-136544000D01*
D61*
X132636000Y-134258000D02*
X132693990Y-134200010D01*
X132693990Y-134200010D02*
X132693990Y-133330010D01*
X132693990Y-133330010D02*
X135001000Y-131023000D01*
X135001000Y-131023000D02*
X135001000Y-122514000D01*
D63*
X120317000Y-136544000D02*
X130350000Y-136544000D01*
D61*
X104235000Y-47199000D02*
X106807000Y-47199000D01*
X106807000Y-47199000D02*
X106819998Y-47199000D01*
D63*
X120317000Y-136544000D02*
X108379000Y-136544000D01*
X108379000Y-136544000D02*
X106220000Y-138703000D01*
X106220000Y-138703000D02*
X103299000Y-138703000D01*
X120317000Y-136544000D02*
X120190000Y-136544000D01*
D13*
X128397000Y-105369000D02*
X132461000Y-105369000D01*
X125240000Y-104700000D02*
X124300000Y-104700000D01*
X124079000Y-104921000D02*
X124300000Y-104700000D01*
X125857000Y-106893000D02*
X124841000Y-106893000D01*
X128397000Y-105369000D02*
X127381000Y-105369000D01*
X127381000Y-105369000D02*
X125857000Y-106893000D01*
X124079000Y-106131000D02*
X124079000Y-104921000D01*
X124841000Y-106893000D02*
X124079000Y-106131000D01*
X69215000Y-110449000D02*
X67564000Y-110449000D01*
D63*
X67564000Y-110449000D02*
X67056000Y-110957000D01*
X67056000Y-110957000D02*
X67056000Y-116672000D01*
X67056000Y-116672000D02*
X67691000Y-117307000D01*
X67691000Y-117307000D02*
X127889000Y-117307000D01*
D13*
X75912000Y-104700000D02*
X74760000Y-104700000D01*
X71247000Y-106385000D02*
X71247000Y-108417000D01*
X75311000Y-106639000D02*
X73787000Y-106639000D01*
X75912000Y-104700000D02*
X76022599Y-104810599D01*
X76022599Y-104810599D02*
X76022599Y-105927401D01*
X76022599Y-105927401D02*
X75311000Y-106639000D01*
X73787000Y-106639000D02*
X72771000Y-105623000D01*
X72771000Y-105623000D02*
X72009000Y-105623000D01*
X72009000Y-105623000D02*
X71247000Y-106385000D01*
X71247000Y-108417000D02*
X69215000Y-110449000D01*
D63*
X132080000Y-117307000D02*
X127889000Y-117307000D01*
X132588000Y-116799000D02*
X132080000Y-117307000D01*
X132588000Y-105496000D02*
X132588000Y-116799000D01*
X132461000Y-105369000D02*
X132588000Y-105496000D01*
D61*
X112935000Y-49699000D02*
X112935000Y-59109000D01*
X112935000Y-59109000D02*
X112324500Y-59719500D01*
X112324500Y-59719500D02*
X111300000Y-59719500D01*
X113875000Y-57375000D02*
X115175000Y-58675000D01*
X115175000Y-58675000D02*
X115175000Y-59725000D01*
X108335000Y-51299000D02*
X108335000Y-57142000D01*
X108335000Y-57142000D02*
X108468000Y-57275000D01*
X108335000Y-57075000D02*
X108335000Y-57142000D01*
D13*
X71207000Y-94300000D02*
X66782000Y-94300000D01*
X74760000Y-94300000D02*
X71207000Y-94300000D01*
D63*
X66782000Y-94300000D02*
X65913000Y-93431000D01*
D61*
X123794000Y-63997040D02*
X125588960Y-63997040D01*
X125588960Y-63997040D02*
X126127000Y-63459000D01*
X127127000Y-65205840D02*
X127127000Y-64584000D01*
X127127000Y-64584000D02*
X126127000Y-63584000D01*
X126127000Y-63584000D02*
X126127000Y-63459000D01*
X127223000Y-65987640D02*
X127223000Y-65301840D01*
X127223000Y-65301840D02*
X127127000Y-65205840D01*
D63*
X123794000Y-67857040D02*
X123794000Y-68045040D01*
X123794000Y-68045040D02*
X122778000Y-69061040D01*
X127223000Y-68934040D02*
X127223000Y-65987640D01*
X125572000Y-70585040D02*
X127223000Y-68934040D01*
X123032000Y-70585040D02*
X125572000Y-70585040D01*
X122778000Y-70331040D02*
X123032000Y-70585040D01*
X122778000Y-69061040D02*
X122778000Y-70331040D01*
X123794000Y-67857040D02*
X123352000Y-67857040D01*
X127366000Y-65844640D02*
X127223000Y-65987640D01*
D61*
X122555000Y-64997040D02*
X122524000Y-64997040D01*
D63*
X122524000Y-64997040D02*
X123794000Y-64997040D01*
D61*
X122555000Y-60284000D02*
X122555000Y-64997040D01*
X113975000Y-56403000D02*
X113975000Y-52354000D01*
X115951000Y-58379000D02*
X113975000Y-56403000D01*
X114034000Y-47699000D02*
X115697000Y-49362000D01*
X115697000Y-49362000D02*
X115697000Y-51394000D01*
X115697000Y-51394000D02*
X115189000Y-51902000D01*
X115189000Y-51902000D02*
X114427000Y-51902000D01*
X114427000Y-51902000D02*
X113975000Y-52354000D01*
X114034000Y-47699000D02*
X112935000Y-47699000D01*
X113699000Y-47699000D02*
X112935000Y-47699000D01*
D63*
X124810000Y-64997040D02*
X124962400Y-64997040D01*
X124962400Y-64997040D02*
X125953000Y-65987640D01*
X123794000Y-64997040D02*
X124810000Y-64997040D01*
X123794000Y-64997040D02*
X123794000Y-65997040D01*
X125953000Y-65987640D02*
X125800600Y-65987640D01*
X123794000Y-69757040D02*
X124876000Y-69757040D01*
X124876000Y-69757040D02*
X125953000Y-68680040D01*
X125953000Y-68680040D02*
X125953000Y-65987640D01*
X123803400Y-65987640D02*
X123794000Y-65997040D01*
X131226000Y-72363040D02*
X129991600Y-72363040D01*
X129991600Y-72363040D02*
X129763000Y-72134440D01*
X129763000Y-72134440D02*
X129798600Y-72134440D01*
X129798600Y-72134440D02*
X131668000Y-70265040D01*
X128493000Y-72134440D02*
X128493000Y-65987640D01*
X128493000Y-72134440D02*
X127223000Y-72134440D01*
X127162000Y-72195440D02*
X127223000Y-72134440D01*
X128432000Y-65926640D02*
X128493000Y-65987640D01*
D61*
X143383000Y-65491000D02*
X142240000Y-64348000D01*
X143383000Y-65745000D02*
X143383000Y-70283000D01*
X143383000Y-70283000D02*
X144000000Y-70900000D01*
X143383000Y-65745000D02*
X143383000Y-65491000D01*
X143383000Y-70317000D02*
X143383000Y-70571000D01*
X129413000Y-63459000D02*
X128127000Y-63459000D01*
X102164500Y-62379500D02*
X102156000Y-62371000D01*
X102156000Y-62371000D02*
X102156000Y-61619500D01*
X101775000Y-63779000D02*
X101775000Y-62769000D01*
X101775000Y-62769000D02*
X102164500Y-62379500D01*
D60*
X127432000Y-98246000D02*
X130291000Y-98246000D01*
X62103000Y-67015000D02*
X62103000Y-65237000D01*
X62103000Y-76413000D02*
X62103000Y-67015000D01*
X58547000Y-79969000D02*
X62103000Y-76413000D01*
X58547000Y-100035000D02*
X58547000Y-79969000D01*
X58547000Y-106385000D02*
X58547000Y-100035000D01*
X58547000Y-113116000D02*
X58547000Y-106385000D01*
X65659000Y-120228000D02*
X58547000Y-113116000D01*
X132461000Y-120228000D02*
X65659000Y-120228000D01*
X135509000Y-117180000D02*
X132461000Y-120228000D01*
X135509000Y-103464000D02*
X135509000Y-117180000D01*
X130291000Y-98246000D02*
X135509000Y-103464000D01*
X65913000Y-103591000D02*
X64770000Y-103591000D01*
X64770000Y-103591000D02*
X62103000Y-100924000D01*
X62103000Y-100924000D02*
X62103000Y-81239000D01*
X62103000Y-81239000D02*
X65659000Y-77683000D01*
X65659000Y-77683000D02*
X65659000Y-65237000D01*
X69977000Y-101008000D02*
X68115000Y-101008000D01*
X67437000Y-102067000D02*
X66099000Y-103405000D01*
X67437000Y-101686000D02*
X67437000Y-102067000D01*
X68115000Y-101008000D02*
X67437000Y-101686000D01*
X66099000Y-103405000D02*
X65913000Y-103591000D01*
X72060000Y-101008000D02*
X69977000Y-101008000D01*
X69977000Y-101008000D02*
X69893000Y-101008000D01*
X90678000Y-52537000D02*
X90678000Y-52029000D01*
X90678000Y-54188000D02*
X90678000Y-52537000D01*
X90023180Y-51374180D02*
X89000000Y-51374180D01*
X90678000Y-52029000D02*
X90023180Y-51374180D01*
X101075998Y-61075998D02*
X101075998Y-60410998D01*
D62*
X101283998Y-64983000D02*
X101075998Y-64775000D01*
X101727000Y-64983000D02*
X101283998Y-64983000D01*
X101075998Y-64775000D02*
X101075998Y-61075998D01*
D60*
X101075998Y-60410998D02*
X99240000Y-58575000D01*
X99240000Y-58575000D02*
X98425000Y-58575000D01*
X86804500Y-56283500D02*
X87122000Y-55966000D01*
X87122000Y-54950000D02*
X89000000Y-53072000D01*
X87122000Y-55966000D02*
X87122000Y-54950000D01*
X89000000Y-53072000D02*
X89000000Y-51374180D01*
D62*
X98575000Y-58575000D02*
X98375000Y-58575000D01*
X115209000Y-72857000D02*
X118396500Y-72857000D01*
X118396500Y-72857000D02*
X119362000Y-71891500D01*
X119362000Y-71891500D02*
X119362000Y-71591500D01*
X114239000Y-71587000D02*
X114239000Y-71887000D01*
X114239000Y-71887000D02*
X115209000Y-72857000D01*
X74760000Y-100700000D02*
X72368000Y-100700000D01*
X72368000Y-100700000D02*
X72060000Y-101008000D01*
X127432000Y-98246000D02*
X127557000Y-98246000D01*
D61*
X113411000Y-68685000D02*
X113411000Y-67015000D01*
X113411000Y-67015000D02*
X111887000Y-65491000D01*
X114475000Y-69244000D02*
X113970000Y-69244000D01*
X113970000Y-69244000D02*
X113411000Y-68685000D01*
X111887000Y-65491000D02*
X108077000Y-65491000D01*
X108077000Y-65491000D02*
X106807000Y-65491000D01*
X108125000Y-69244000D02*
X108125000Y-65539000D01*
X108125000Y-65539000D02*
X108077000Y-65491000D01*
X106299000Y-64983000D02*
X101727000Y-64983000D01*
X101727000Y-68236000D02*
X101727000Y-64983000D01*
X101775000Y-69244000D02*
X101775000Y-68284000D01*
X101775000Y-68284000D02*
X101727000Y-68236000D01*
X106807000Y-65491000D02*
X106299000Y-64983000D01*
X114475000Y-69244000D02*
X114475000Y-71351000D01*
X114475000Y-71351000D02*
X114239000Y-71587000D01*
D60*
X74295000Y-63205000D02*
X74295000Y-61365000D01*
D61*
X74295000Y-61365000D02*
X74343000Y-61317000D01*
D60*
X82423000Y-59649000D02*
X84455000Y-57617000D01*
X74343000Y-61317000D02*
X74343000Y-60267000D01*
X74343000Y-60267000D02*
X75469000Y-59141000D01*
X75469000Y-59141000D02*
X77343000Y-59141000D01*
X85471000Y-57617000D02*
X86804500Y-56283500D01*
X86804500Y-56283500D02*
X86804670Y-56283330D01*
X77343000Y-59141000D02*
X77851000Y-59649000D01*
X77851000Y-59649000D02*
X82423000Y-59649000D01*
X84455000Y-57617000D02*
X85471000Y-57617000D01*
D61*
X114160000Y-71591500D02*
X112758000Y-71591500D01*
X114475000Y-71276500D02*
X114160000Y-71591500D01*
X107556000Y-71282500D02*
X108125000Y-70713500D01*
X108125000Y-70713500D02*
X108125000Y-69244000D01*
X107556000Y-71591500D02*
X107556000Y-71282500D01*
X106154000Y-71591500D02*
X107556000Y-71591500D01*
X100952000Y-71591500D02*
X100952000Y-71291500D01*
X100952000Y-71291500D02*
X101775000Y-70468500D01*
X101775000Y-70468500D02*
X101775000Y-69244000D01*
X89000000Y-52373670D02*
X89000000Y-51374180D01*
D62*
X72060000Y-101008000D02*
X72041000Y-101008000D01*
X125150000Y-98300000D02*
X127378000Y-98300000D01*
X127378000Y-98300000D02*
X127432000Y-98246000D01*
X72368000Y-100700000D02*
X72060000Y-101008000D01*
D60*
X72044000Y-101024000D02*
X72060000Y-101008000D01*
D63*
X133096000Y-93431000D02*
X133350000Y-93177000D01*
X133350000Y-82255000D02*
X132969000Y-81874000D01*
X133350000Y-93177000D02*
X133350000Y-82255000D01*
X120846970Y-78006970D02*
X120846970Y-77302669D01*
X120846970Y-77302669D02*
X120846970Y-75143000D01*
X120846970Y-75143000D02*
X120846970Y-69246990D01*
X120430999Y-65615875D02*
X120439417Y-65607457D01*
X120430999Y-68831019D02*
X120430999Y-65615875D01*
X120846970Y-69246990D02*
X120430999Y-68831019D01*
X132745990Y-93781010D02*
X133096000Y-93431000D01*
D13*
X132745990Y-93781010D02*
X129540000Y-93781010D01*
D63*
X124079000Y-81239000D02*
X120846970Y-78006970D01*
X132334000Y-81239000D02*
X124079000Y-81239000D01*
X133096000Y-82001000D02*
X132969000Y-81874000D01*
X132969000Y-81874000D02*
X132334000Y-81239000D01*
X65024000Y-82763000D02*
X65024000Y-81620000D01*
X102852000Y-71591500D02*
X102852000Y-78590000D01*
X63881000Y-96987000D02*
X63881000Y-91526000D01*
X63881000Y-91526000D02*
X65024000Y-90383000D01*
X65024000Y-90383000D02*
X65024000Y-82763000D01*
X63881000Y-96987000D02*
X65405000Y-98511000D01*
X101727000Y-79715000D02*
X102852000Y-78590000D01*
X66929000Y-79715000D02*
X101727000Y-79715000D01*
X65024000Y-81620000D02*
X66929000Y-79715000D01*
X65913000Y-98511000D02*
X65405000Y-98511000D01*
D13*
X72580500Y-95900000D02*
X68206500Y-95900000D01*
D63*
X67246500Y-97177500D02*
X65913000Y-98511000D01*
X67246500Y-96860000D02*
X67246500Y-97177500D01*
D13*
X68206500Y-95900000D02*
X67246500Y-96860000D01*
D63*
X102997000Y-66507000D02*
X102997000Y-69196000D01*
X102997000Y-69196000D02*
X103045000Y-69244000D01*
D13*
X126619000Y-93348998D02*
X127051012Y-93781010D01*
X125240000Y-103100000D02*
X123842000Y-103100000D01*
X123571000Y-102829000D02*
X123571000Y-93996688D01*
X123842000Y-103100000D02*
X123571000Y-102829000D01*
X123571000Y-93996688D02*
X123571000Y-93869688D01*
X123571000Y-93773998D02*
X124675998Y-92669000D01*
X123571000Y-93869688D02*
X123571000Y-93773998D01*
X124675998Y-92669000D02*
X124841000Y-92669000D01*
X125939002Y-92669000D02*
X126619000Y-93348998D01*
X124841000Y-92669000D02*
X125939002Y-92669000D01*
X127051012Y-93781010D02*
X129540000Y-93781010D01*
X129540000Y-93781010D02*
X129570990Y-93781010D01*
D61*
X102852000Y-71591500D02*
X102852000Y-69437000D01*
X102852000Y-69437000D02*
X103045000Y-69244000D01*
D13*
X74760000Y-95900000D02*
X72580500Y-95900000D01*
X72580500Y-95900000D02*
X72577000Y-95900000D01*
D61*
X114950000Y-62379500D02*
X114864500Y-62379500D01*
X114864500Y-62379500D02*
X114475000Y-62769000D01*
X114475000Y-62769000D02*
X114475000Y-63779000D01*
X115110000Y-61619500D02*
X115110000Y-62219500D01*
X115110000Y-62219500D02*
X114950000Y-62379500D01*
D63*
X133477000Y-81747000D02*
X133731000Y-82001000D01*
X133858000Y-93558000D02*
X133350000Y-94066000D01*
X133858000Y-82128000D02*
X133858000Y-93558000D01*
X133731000Y-82001000D02*
X133858000Y-82128000D01*
X121246980Y-77136980D02*
X121246980Y-75181020D01*
X121031000Y-67960701D02*
X121031000Y-66207457D01*
X121246980Y-68176681D02*
X121031000Y-67960701D01*
X121246980Y-75181020D02*
X121246980Y-68176681D01*
X115697000Y-69196000D02*
X115697000Y-66207457D01*
X133116000Y-94300000D02*
X133350000Y-94066000D01*
D13*
X133116000Y-94300000D02*
X130302000Y-94300000D01*
D63*
X121246980Y-77263980D02*
X121246980Y-77136980D01*
X124714000Y-80731000D02*
X121246980Y-77263980D01*
X132461000Y-80731000D02*
X124714000Y-80731000D01*
X133477000Y-81747000D02*
X132461000Y-80731000D01*
X115697000Y-69196000D02*
X115745000Y-69244000D01*
D13*
X125240000Y-94300000D02*
X130302000Y-94300000D01*
X130302000Y-94300000D02*
X130322000Y-94300000D01*
D63*
X115745000Y-69244000D02*
X115745000Y-71193000D01*
X115745000Y-71193000D02*
X116139000Y-71587000D01*
D61*
X108346000Y-62633500D02*
X108260500Y-62633500D01*
X108260500Y-62633500D02*
X108125000Y-62769000D01*
X108125000Y-62769000D02*
X108125000Y-63779000D01*
X108760000Y-61619500D02*
X108760000Y-62219500D01*
X108760000Y-62219500D02*
X108346000Y-62633500D01*
X108760000Y-59316000D02*
X108760000Y-59719500D01*
X105918000Y-53680000D02*
X105918000Y-55458000D01*
X107696000Y-58252000D02*
X107696000Y-55458000D01*
X108760000Y-59316000D02*
X107696000Y-58252000D01*
X106335000Y-52120000D02*
X106335000Y-51299000D01*
X105918000Y-52537000D02*
X105918000Y-53680000D01*
X106335000Y-52120000D02*
X105918000Y-52537000D01*
X105537000Y-62887500D02*
X104950000Y-62300500D01*
X104950000Y-62300500D02*
X104950000Y-61619500D01*
X105537000Y-63276000D02*
X105537000Y-62887500D01*
X105585000Y-63779000D02*
X105585000Y-63324000D01*
X105585000Y-63324000D02*
X105537000Y-63276000D01*
D63*
X125857000Y-79334000D02*
X126238000Y-79715000D01*
X125857000Y-79334000D02*
X122047000Y-75524000D01*
X122047000Y-75524000D02*
X122047000Y-75397000D01*
D61*
X122047000Y-67650000D02*
X122301000Y-67396000D01*
D63*
X109347000Y-67523000D02*
X109347000Y-66761000D01*
X109347000Y-69196000D02*
X109347000Y-67523000D01*
X122047000Y-75397000D02*
X122047000Y-68285000D01*
D61*
X122047000Y-68285000D02*
X122047000Y-67650000D01*
D63*
X126238000Y-79715000D02*
X132715000Y-79715000D01*
X132588000Y-97241000D02*
X133096000Y-97241000D01*
X133096000Y-97241000D02*
X134874000Y-95463000D01*
X134874000Y-95463000D02*
X134874000Y-81874000D01*
X134874000Y-81874000D02*
X132715000Y-79715000D01*
D13*
X126180000Y-97500000D02*
X126487000Y-97500000D01*
D63*
X126180000Y-97500000D02*
X125240000Y-97500000D01*
D13*
X126746000Y-97241000D02*
X132588000Y-97241000D01*
X126487000Y-97500000D02*
X126746000Y-97241000D01*
D63*
X66357500Y-86001500D02*
X66357500Y-82255000D01*
X109456000Y-71591500D02*
X109456000Y-74526000D01*
X67183000Y-90192500D02*
X66357500Y-89367000D01*
X66357500Y-89367000D02*
X66357500Y-86001500D01*
X67183000Y-90192500D02*
X67183000Y-90637000D01*
X109456000Y-76177000D02*
X109456000Y-74526000D01*
X104648000Y-80985000D02*
X109456000Y-76177000D01*
X67627500Y-80985000D02*
X104648000Y-80985000D01*
X66357500Y-82255000D02*
X67627500Y-80985000D01*
D13*
X71843311Y-93831010D02*
X67519510Y-93831010D01*
D63*
X67519510Y-93831010D02*
X67183000Y-93494500D01*
X67183000Y-93494500D02*
X67183000Y-90637000D01*
D13*
X74676000Y-92796000D02*
X73914000Y-92796000D01*
X73914000Y-92796000D02*
X72878990Y-93831010D01*
X72878990Y-93831010D02*
X71843311Y-93831010D01*
X75541002Y-92796000D02*
X74676000Y-92796000D01*
X76300000Y-93939000D02*
X76300000Y-93554998D01*
X76300000Y-93554998D02*
X75541002Y-92796000D01*
X76300000Y-95275000D02*
X76300000Y-93939000D01*
X74760000Y-101500000D02*
X75825000Y-101500000D01*
X76300000Y-101025000D02*
X76300000Y-95275000D01*
X75825000Y-101500000D02*
X76300000Y-101025000D01*
D63*
X67183000Y-90637000D02*
X67183000Y-90573500D01*
X109347000Y-69196000D02*
X109395000Y-69244000D01*
D61*
X109395000Y-69244000D02*
X109395000Y-71530500D01*
X109395000Y-71530500D02*
X109456000Y-71591500D01*
D63*
X132715000Y-93177000D02*
X132715000Y-82255000D01*
X120446960Y-78876960D02*
X120446960Y-77468358D01*
X122047000Y-80477000D02*
X120446960Y-78876960D01*
X120446960Y-77468358D02*
X120446960Y-76667000D01*
X120446960Y-76667000D02*
X120446960Y-71136458D01*
X120446960Y-71136458D02*
X120446960Y-69478960D01*
X119507000Y-68539000D02*
X119507000Y-64983000D01*
X120446960Y-69478960D02*
X119507000Y-68539000D01*
X104267000Y-69196000D02*
X104267000Y-65722999D01*
X132461000Y-93431000D02*
X132715000Y-93177000D01*
D13*
X128143000Y-93431000D02*
X128905000Y-93431000D01*
X127195990Y-93431000D02*
X128143000Y-93431000D01*
X125603000Y-92161000D02*
X125925990Y-92161000D01*
X125925990Y-92161000D02*
X127195990Y-93431000D01*
X125349000Y-92161000D02*
X125603000Y-92161000D01*
X124759720Y-92161000D02*
X125349000Y-92161000D01*
X123108720Y-93812000D02*
X124759720Y-92161000D01*
X123063000Y-93812000D02*
X123108720Y-93812000D01*
X123063000Y-93939000D02*
X123063000Y-93812000D01*
X123372000Y-103900000D02*
X123063000Y-103591000D01*
X123063000Y-103591000D02*
X123063000Y-93939000D01*
X123372000Y-103900000D02*
X125240000Y-103900000D01*
X128905000Y-93431000D02*
X132461000Y-93431000D01*
D63*
X123317000Y-81747000D02*
X122047000Y-80477000D01*
X132207000Y-81747000D02*
X123317000Y-81747000D01*
X132715000Y-82255000D02*
X132207000Y-81747000D01*
X65659000Y-82001000D02*
X67310000Y-80350000D01*
X104206000Y-71587000D02*
X104206000Y-78506000D01*
X65151000Y-95971000D02*
X64389000Y-95209000D01*
X64389000Y-95209000D02*
X64389000Y-91907000D01*
X64389000Y-91907000D02*
X65659000Y-90637000D01*
X65659000Y-90637000D02*
X65659000Y-82001000D01*
X65151000Y-95971000D02*
X65913000Y-95971000D01*
X104206000Y-79141000D02*
X104206000Y-78506000D01*
X102997000Y-80350000D02*
X104206000Y-79141000D01*
X102235000Y-80350000D02*
X102997000Y-80350000D01*
X100457000Y-80350000D02*
X102235000Y-80350000D01*
X84963000Y-80350000D02*
X100457000Y-80350000D01*
X70739000Y-80350000D02*
X84963000Y-80350000D01*
X67310000Y-80350000D02*
X70739000Y-80350000D01*
D13*
X71882000Y-95100000D02*
X66784000Y-95100000D01*
D63*
X66784000Y-95100000D02*
X65913000Y-95971000D01*
X104267000Y-69196000D02*
X104315000Y-69244000D01*
X104315000Y-69244000D02*
X104315000Y-71478000D01*
X104315000Y-71478000D02*
X104206000Y-71587000D01*
D61*
X104254000Y-69305000D02*
X104315000Y-69244000D01*
D13*
X74760000Y-95100000D02*
X71882000Y-95100000D01*
X71882000Y-95100000D02*
X71853000Y-95100000D01*
D61*
X111887000Y-62806500D02*
X111887000Y-63731000D01*
X111887000Y-63731000D02*
X111935000Y-63779000D01*
X111300000Y-61619500D02*
X111300000Y-62219500D01*
X111300000Y-62219500D02*
X111887000Y-62806500D01*
X118237000Y-62806500D02*
X118237000Y-63731000D01*
X118237000Y-63731000D02*
X118285000Y-63779000D01*
X117650000Y-61619500D02*
X117650000Y-62219500D01*
X117650000Y-62219500D02*
X118237000Y-62806500D01*
D63*
X133858000Y-95590000D02*
X134366000Y-95082000D01*
X134366000Y-82001000D02*
X133858000Y-81493000D01*
X134366000Y-95082000D02*
X134366000Y-82001000D01*
X132461000Y-96700000D02*
X132748000Y-96700000D01*
X121646990Y-76266990D02*
X121646990Y-75562689D01*
X133858000Y-81493000D02*
X132588000Y-80223000D01*
X132588000Y-80223000D02*
X125603000Y-80223000D01*
X125603000Y-80223000D02*
X121646990Y-76266990D01*
X110617000Y-66923000D02*
X110617000Y-66253000D01*
X110617000Y-66923000D02*
X110617000Y-69196000D01*
X121646990Y-75562689D02*
X121646990Y-68010992D01*
X121646990Y-68010992D02*
X121446999Y-67811001D01*
X121446999Y-67811001D02*
X121446999Y-67049687D01*
X121446999Y-67049687D02*
X121689229Y-66807457D01*
X132748000Y-96700000D02*
X133858000Y-95590000D01*
D13*
X126414301Y-96700000D02*
X132461000Y-96700000D01*
D63*
X132461000Y-96700000D02*
X132494000Y-96700000D01*
D13*
X125240000Y-96700000D02*
X126414301Y-96700000D01*
D63*
X67691000Y-90764000D02*
X67691000Y-89621000D01*
X110858000Y-74394000D02*
X110858000Y-71591500D01*
X110858000Y-75981500D02*
X110858000Y-74394000D01*
X105283000Y-81556500D02*
X110858000Y-75981500D01*
X67881500Y-81556500D02*
X105283000Y-81556500D01*
X67056000Y-82382000D02*
X67881500Y-81556500D01*
X67056000Y-88986000D02*
X67056000Y-82382000D01*
X67691000Y-89621000D02*
X67056000Y-88986000D01*
X72326500Y-102300000D02*
X68410500Y-102300000D01*
X67310000Y-104734000D02*
X65913000Y-106131000D01*
X67310000Y-103400500D02*
X67310000Y-104734000D01*
X68410500Y-102300000D02*
X67310000Y-103400500D01*
D13*
X72072500Y-93431000D02*
X67881500Y-93431000D01*
D63*
X67691000Y-93240500D02*
X67691000Y-90764000D01*
X67691000Y-90764000D02*
X67691000Y-90700500D01*
X67881500Y-93431000D02*
X67691000Y-93240500D01*
X72284000Y-102300000D02*
X72326500Y-102300000D01*
X72326500Y-102300000D02*
X73173000Y-102300000D01*
X110617000Y-69196000D02*
X110665000Y-69244000D01*
D13*
X75057000Y-92288000D02*
X73856302Y-92288000D01*
X73856302Y-92288000D02*
X72713302Y-93431000D01*
X72713302Y-93431000D02*
X72072500Y-93431000D01*
X72072500Y-93431000D02*
X72009000Y-93431000D01*
D63*
X74760000Y-102300000D02*
X73173000Y-102300000D01*
D13*
X75457280Y-92288000D02*
X75057000Y-92288000D01*
X76700010Y-93692990D02*
X76700010Y-93530730D01*
X76700010Y-93530730D02*
X75457280Y-92288000D01*
X76700010Y-101190689D02*
X76700010Y-93692990D01*
X75713000Y-102300000D02*
X76700010Y-101312990D01*
X76700010Y-101312990D02*
X76700010Y-101190689D01*
X74760000Y-102300000D02*
X75713000Y-102300000D01*
D61*
X110858000Y-71591500D02*
X110858000Y-70691500D01*
X110665000Y-70498500D02*
X110665000Y-69244000D01*
X110858000Y-70691500D02*
X110665000Y-70498500D01*
X117221000Y-70450500D02*
X117211500Y-70450500D01*
X117211500Y-70450500D02*
X117015000Y-70254000D01*
X117015000Y-70254000D02*
X117015000Y-69244000D01*
X117462000Y-71591500D02*
X117462000Y-70691500D01*
X117462000Y-70691500D02*
X117221000Y-70450500D01*
X87437000Y-73365000D02*
X87437000Y-70931000D01*
X87437000Y-70931000D02*
X87551000Y-70817000D01*
X71567000Y-73365000D02*
X71567000Y-70835000D01*
X71567000Y-70835000D02*
X71549000Y-70817000D01*
X81473000Y-73365000D02*
X82073000Y-73365000D01*
X82217000Y-71867000D02*
X82217000Y-70817000D01*
X82073000Y-73365000D02*
X82217000Y-73221000D01*
X82217000Y-73221000D02*
X82217000Y-71867000D01*
X76901000Y-73365000D02*
X76901000Y-70835000D01*
X76901000Y-70835000D02*
X76883000Y-70817000D01*
D60*
X127432000Y-100246000D02*
X130386000Y-100246000D01*
X59817000Y-95717000D02*
X59817000Y-88605000D01*
X59817000Y-88605000D02*
X59817000Y-80477000D01*
X59817000Y-80477000D02*
X63373000Y-76921000D01*
X63373000Y-76921000D02*
X63373000Y-67015000D01*
X59817000Y-112227000D02*
X59817000Y-95717000D01*
X66802000Y-119212000D02*
X59817000Y-112227000D01*
X132207000Y-119212000D02*
X66802000Y-119212000D01*
X134493000Y-116926000D02*
X132207000Y-119212000D01*
X134493000Y-104353000D02*
X134493000Y-116926000D01*
X130386000Y-100246000D02*
X134493000Y-104353000D01*
X65913000Y-101051000D02*
X65024000Y-101051000D01*
X66929000Y-77937000D02*
X66929000Y-66761000D01*
X63119000Y-81747000D02*
X66929000Y-77937000D01*
X63119000Y-99146000D02*
X63119000Y-81747000D01*
X65024000Y-101051000D02*
X63119000Y-99146000D01*
X69797500Y-99008000D02*
X67956000Y-99008000D01*
X72060000Y-99008000D02*
X70993000Y-99008000D01*
X70993000Y-99008000D02*
X69797500Y-99008000D01*
X67956000Y-99008000D02*
X65913000Y-101051000D01*
X98275000Y-59775000D02*
X98440000Y-59775000D01*
X88975000Y-56900820D02*
X88975000Y-59275000D01*
X98440000Y-59775000D02*
X99568000Y-60903000D01*
X100375000Y-61681000D02*
X100346000Y-61681000D01*
X100346000Y-61681000D02*
X99568000Y-60903000D01*
X58801000Y-60919000D02*
X58801000Y-58252000D01*
X58801000Y-58252000D02*
X58420000Y-57871000D01*
X55225000Y-53425000D02*
X55225000Y-54676000D01*
X55225000Y-54676000D02*
X58420000Y-57871000D01*
X62420500Y-59585500D02*
X62420500Y-60960000D01*
X58420000Y-57871000D02*
X60706000Y-57871000D01*
X60706000Y-57871000D02*
X62420500Y-59585500D01*
D61*
X105585000Y-68173500D02*
X105585000Y-67729000D01*
X105585000Y-67729000D02*
X105791000Y-67523000D01*
D60*
X88975000Y-56900820D02*
X89000000Y-56875820D01*
X100375000Y-66975000D02*
X100375000Y-61681000D01*
X100375000Y-61681000D02*
X100375000Y-61675000D01*
X82169000Y-62502600D02*
X82169000Y-61365000D01*
X82169000Y-61365000D02*
X82217000Y-61317000D01*
X58801000Y-60919000D02*
X62379500Y-60919000D01*
X62379500Y-60919000D02*
X62420500Y-60960000D01*
X125240000Y-99900000D02*
X127086000Y-99900000D01*
X127086000Y-99900000D02*
X127432000Y-100246000D01*
D61*
X114681000Y-67615000D02*
X114681000Y-65999000D01*
X114681000Y-65999000D02*
X115189000Y-65491000D01*
X115189000Y-65491000D02*
X117221000Y-65491000D01*
X117221000Y-65491000D02*
X118285000Y-66555000D01*
X118285000Y-66555000D02*
X118285000Y-67761500D01*
X114589000Y-67523000D02*
X114681000Y-67615000D01*
X111887000Y-67523000D02*
X111887000Y-69196000D01*
X111887000Y-69196000D02*
X111935000Y-69244000D01*
X118285000Y-69244000D02*
X118285000Y-67761500D01*
X118285000Y-67761500D02*
X118269500Y-67777000D01*
X105585000Y-68173500D02*
X105585000Y-69244000D01*
D60*
X62461500Y-60919000D02*
X62420500Y-60960000D01*
X85979000Y-58846720D02*
X84737280Y-58846720D01*
X84737280Y-58846720D02*
X82267000Y-61317000D01*
X82267000Y-61317000D02*
X82217000Y-61317000D01*
X89000000Y-56875820D02*
X87949900Y-56875820D01*
X87949900Y-56875820D02*
X85979000Y-58846720D01*
X82217000Y-61317000D02*
X82217000Y-60871000D01*
X74850000Y-99100000D02*
X72152000Y-99100000D01*
X72152000Y-99100000D02*
X72044000Y-98992000D01*
X125150000Y-100700000D02*
X125150000Y-99900000D01*
X125150000Y-99900000D02*
X125150000Y-99100000D01*
X74850000Y-98300000D02*
X74850000Y-99100000D01*
X74850000Y-99100000D02*
X74850000Y-99900000D01*
D62*
X132461000Y-117942000D02*
X131953000Y-118450000D01*
X67437000Y-118450000D02*
X66548000Y-117561000D01*
X131953000Y-118450000D02*
X67437000Y-118450000D01*
X133032500Y-104797500D02*
X133731000Y-105496000D01*
X133731000Y-116672000D02*
X132461000Y-117942000D01*
X133731000Y-105496000D02*
X133731000Y-116672000D01*
X129159000Y-104607000D02*
X132842000Y-104607000D01*
X127173000Y-104607000D02*
X129159000Y-104607000D01*
X126280000Y-105500000D02*
X127173000Y-104607000D01*
X125240000Y-105500000D02*
X126280000Y-105500000D01*
X65913000Y-116926000D02*
X65913000Y-108671000D01*
X66548000Y-117561000D02*
X65913000Y-116926000D01*
X132842000Y-104607000D02*
X133032500Y-104797500D01*
D60*
X61087000Y-80731000D02*
X64643000Y-77175000D01*
X64643000Y-77175000D02*
X64643000Y-63967000D01*
X61087000Y-81239000D02*
X61087000Y-80731000D01*
X61087000Y-105115000D02*
X64643000Y-108671000D01*
X65913000Y-108671000D02*
X64643000Y-108671000D01*
X61087000Y-81239000D02*
X61087000Y-105115000D01*
D62*
X71501000Y-104861000D02*
X69977000Y-106385000D01*
D60*
X52725000Y-56325000D02*
X54419500Y-58019500D01*
X54419500Y-58019500D02*
X54419500Y-60960000D01*
X52725000Y-49325000D02*
X52725000Y-56325000D01*
X55225000Y-48825000D02*
X53225000Y-48825000D01*
X53225000Y-48825000D02*
X52725000Y-49325000D01*
X87551000Y-61317000D02*
X87551000Y-62367000D01*
X87551000Y-62367000D02*
X85697000Y-64221000D01*
X85697000Y-64221000D02*
X70739000Y-64221000D01*
X70739000Y-64221000D02*
X70485000Y-63967000D01*
X70485000Y-63967000D02*
X68961000Y-63967000D01*
X62357000Y-63967000D02*
X64389000Y-63967000D01*
X64389000Y-63967000D02*
X64643000Y-63967000D01*
X64643000Y-63967000D02*
X68961000Y-63967000D01*
X68120000Y-108485000D02*
X66235000Y-108485000D01*
D62*
X69977000Y-106385000D02*
X69977000Y-107678570D01*
X69977000Y-107678570D02*
X69170570Y-108485000D01*
X69170570Y-108485000D02*
X68120000Y-108485000D01*
X73081000Y-104861000D02*
X71501000Y-104861000D01*
X74760000Y-105500000D02*
X73720000Y-105500000D01*
X73720000Y-105500000D02*
X73081000Y-104861000D01*
D60*
X55976350Y-63967000D02*
X62357000Y-63967000D01*
D62*
X69009000Y-63919000D02*
X68961000Y-63967000D01*
D60*
X69009000Y-61317000D02*
X69009000Y-63919000D01*
X54419500Y-60960000D02*
X54419500Y-62410150D01*
X54419500Y-62410150D02*
X55976350Y-63967000D01*
D62*
X125270000Y-105530000D02*
X125240000Y-105500000D01*
X118067000Y-54889000D02*
X117489000Y-54889000D01*
X116375000Y-50319000D02*
X116967000Y-49727000D01*
X116375000Y-51425598D02*
X116375000Y-50319000D01*
X116875000Y-51925598D02*
X116375000Y-51425598D01*
X116875000Y-54275000D02*
X116875000Y-51925598D01*
X117489000Y-54889000D02*
X116875000Y-54275000D01*
X126365000Y-41234000D02*
X126365000Y-41765000D01*
X125587000Y-39218000D02*
X125603000Y-39202000D01*
X124714000Y-39218000D02*
X125587000Y-39218000D01*
X126975000Y-42375000D02*
X130275000Y-42375000D01*
X126365000Y-41765000D02*
X126975000Y-42375000D01*
X121793000Y-37297000D02*
X124357000Y-37297000D01*
X124714000Y-37654000D02*
X124714000Y-39218000D01*
X121793000Y-37297000D02*
X115189000Y-37297000D01*
X137795000Y-78826000D02*
X140843000Y-81874000D01*
X138557000Y-64475000D02*
X138557000Y-67269000D01*
X138557000Y-67269000D02*
X137795000Y-68031000D01*
X137414000Y-76540000D02*
X137414000Y-68412000D01*
X137414000Y-68412000D02*
X137795000Y-68031000D01*
X137795000Y-78826000D02*
X137414000Y-78445000D01*
X137414000Y-78445000D02*
X137414000Y-76540000D01*
X140843000Y-118323000D02*
X136017000Y-123149000D01*
X140843000Y-81874000D02*
X140843000Y-118323000D01*
D60*
X142494000Y-60411000D02*
X140986000Y-60411000D01*
X140986000Y-60411000D02*
X140716000Y-60681000D01*
D62*
X140446000Y-60411000D02*
X140081000Y-60411000D01*
X137414000Y-62189000D02*
X139192000Y-60411000D01*
X139192000Y-60411000D02*
X140081000Y-60411000D01*
X133126000Y-64572000D02*
X133126000Y-65185040D01*
X133126000Y-64572000D02*
X133223000Y-64475000D01*
X137414000Y-63205000D02*
X137414000Y-64221000D01*
X137414000Y-63205000D02*
X137414000Y-62189000D01*
X140446000Y-60411000D02*
X140716000Y-60681000D01*
X138557000Y-63078000D02*
X138557000Y-61935000D01*
X139811000Y-60681000D02*
X140716000Y-60681000D01*
X138557000Y-61935000D02*
X139811000Y-60681000D01*
X138557000Y-64221000D02*
X138557000Y-63078000D01*
X138557000Y-63078000D02*
X138557000Y-62951000D01*
D60*
X127250000Y-48342000D02*
X127250000Y-51390000D01*
X127381000Y-51521000D02*
X130429000Y-54569000D01*
X144145000Y-55331000D02*
X144145000Y-56159000D01*
X143383000Y-54569000D02*
X144145000Y-55331000D01*
X130429000Y-54569000D02*
X143383000Y-54569000D01*
X127250000Y-51390000D02*
X127381000Y-51521000D01*
D62*
X127250000Y-47838000D02*
X127250000Y-48342000D01*
X127250000Y-48342000D02*
X127254000Y-48346000D01*
X127381000Y-46187000D02*
X127635000Y-45933000D01*
X127635000Y-45933000D02*
X128473002Y-45933000D01*
D63*
X127250000Y-47900000D02*
X127250000Y-47838000D01*
X127250000Y-47838000D02*
X127250000Y-47025000D01*
D62*
X101219000Y-44343000D02*
X101026000Y-44343000D01*
X101026000Y-44343000D02*
X100711000Y-44028000D01*
X100711000Y-44028000D02*
X94996000Y-44028000D01*
X94996000Y-44028000D02*
X92456000Y-41488000D01*
X92456000Y-41488000D02*
X92456000Y-36515400D01*
X92456000Y-36515400D02*
X93395800Y-35575600D01*
X104267000Y-44028000D02*
X101534000Y-44028000D01*
X101534000Y-44028000D02*
X101219000Y-44343000D01*
X104235000Y-44028000D02*
X104267000Y-44028000D01*
X104267000Y-44028000D02*
X105664000Y-44028000D01*
X104235000Y-44199000D02*
X101363000Y-44199000D01*
X101363000Y-44199000D02*
X101219000Y-44343000D01*
X101219000Y-45171000D02*
X101219000Y-44343000D01*
X98370200Y-47685600D02*
X99212400Y-47685600D01*
X97790000Y-47685600D02*
X98370200Y-47685600D01*
X101219000Y-45171000D02*
X101219000Y-45949000D01*
X100203000Y-45171000D02*
X101219000Y-45171000D01*
X99949000Y-45425000D02*
X100203000Y-45171000D01*
X99949000Y-46949000D02*
X99949000Y-45425000D01*
X99212400Y-47685600D02*
X99949000Y-46949000D01*
X124357000Y-37297000D02*
X124714000Y-37654000D01*
X130476001Y-42576001D02*
X130275000Y-42375000D01*
X130476001Y-44278001D02*
X130476001Y-42576001D01*
X128821002Y-45933000D02*
X130476001Y-44278001D01*
X128473002Y-45933000D02*
X128821002Y-45933000D01*
X109791500Y-45869500D02*
X112141000Y-43520000D01*
X112141000Y-43520000D02*
X112522000Y-43139000D01*
X112522000Y-43139000D02*
X113030000Y-43139000D01*
X113030000Y-43139000D02*
X113157000Y-43012000D01*
X113157000Y-43012000D02*
X113157000Y-41869000D01*
X113157000Y-41869000D02*
X112395000Y-41107000D01*
X110490000Y-40345000D02*
X110490000Y-38837000D01*
D63*
X110490000Y-38837000D02*
X110474000Y-38821000D01*
D62*
X109335000Y-51299000D02*
X109335000Y-52398000D01*
X109335000Y-52398000D02*
X109982000Y-53045000D01*
X109982000Y-53045000D02*
X110744000Y-53045000D01*
X110744000Y-53045000D02*
X111363000Y-53664000D01*
X111363000Y-53664000D02*
X111363000Y-54315000D01*
X109335000Y-49501000D02*
X109335000Y-48485000D01*
X109335000Y-48485000D02*
X110490000Y-47330000D01*
X110490000Y-47330000D02*
X110490000Y-46568000D01*
X109335000Y-51299000D02*
X109335000Y-49501000D01*
X112935000Y-46699000D02*
X113923000Y-46699000D01*
X113923000Y-46699000D02*
X116951000Y-49727000D01*
D63*
X116951000Y-49727000D02*
X116967000Y-49727000D01*
X97790000Y-47685600D02*
X97790000Y-48901600D01*
X99060000Y-51013000D02*
X98552000Y-51521000D01*
X97790000Y-48901600D02*
X97869400Y-48981000D01*
X95885000Y-58780000D02*
X96835000Y-59730000D01*
X97869400Y-48981000D02*
X100965000Y-48981000D01*
X99279001Y-54476999D02*
X97536000Y-56220000D01*
X100965000Y-48981000D02*
X101219000Y-49235000D01*
X101219000Y-49235000D02*
X101219000Y-50505000D01*
X95885000Y-56855000D02*
X95885000Y-58780000D01*
X101219000Y-50505000D02*
X100711000Y-51013000D01*
X100711000Y-51013000D02*
X99060000Y-51013000D01*
X99279001Y-53518999D02*
X99279001Y-54476999D01*
X98552000Y-52791998D02*
X99279001Y-53518999D01*
X98552000Y-51521000D02*
X98552000Y-52791998D01*
X97536000Y-56220000D02*
X96520000Y-56220000D01*
X96520000Y-56220000D02*
X95885000Y-56855000D01*
X96835000Y-59730000D02*
X96835000Y-60030000D01*
D62*
X109335000Y-42599000D02*
X109335000Y-40611000D01*
X109335000Y-40611000D02*
X109601000Y-40345000D01*
X111633000Y-40345000D02*
X112395000Y-41107000D01*
X110490000Y-40345000D02*
X111633000Y-40345000D01*
X109601000Y-40345000D02*
X110490000Y-40345000D01*
X104235000Y-44199000D02*
X104235000Y-44028000D01*
D60*
X144653000Y-60411000D02*
X145669000Y-59395000D01*
X142367000Y-60411000D02*
X142494000Y-60411000D01*
X142494000Y-60411000D02*
X144653000Y-60411000D01*
X145669000Y-56347000D02*
X145481000Y-56159000D01*
X145669000Y-59395000D02*
X145669000Y-56347000D01*
X145481000Y-56159000D02*
X144145000Y-56159000D01*
D62*
X136017000Y-123657000D02*
X136017000Y-123149000D01*
X136017000Y-131531000D02*
X136017000Y-123657000D01*
X133985000Y-133563000D02*
X136017000Y-131531000D01*
X133985000Y-134833000D02*
X133985000Y-133563000D01*
X130683000Y-138135000D02*
X133985000Y-134833000D01*
X111887000Y-138135000D02*
X130683000Y-138135000D01*
X111633000Y-138389000D02*
X111887000Y-138135000D01*
X111125000Y-138897000D02*
X111633000Y-138389000D01*
X107359000Y-44199000D02*
X108573000Y-45413000D01*
X108573000Y-45413000D02*
X109335000Y-45413000D01*
X104235000Y-44199000D02*
X107359000Y-44199000D01*
X110621000Y-46699000D02*
X110490000Y-46568000D01*
X110490000Y-46568000D02*
X109791500Y-45869500D01*
X109791500Y-45869500D02*
X109335000Y-45413000D01*
X109335000Y-45413000D02*
X109335000Y-42599000D01*
X112935000Y-46699000D02*
X110621000Y-46699000D01*
D63*
X128709999Y-46159999D02*
X128750000Y-46200000D01*
X128750000Y-46200000D02*
X128750000Y-47025000D01*
X128473002Y-45933000D02*
X128700001Y-46159999D01*
X127250000Y-46318000D02*
X127381000Y-46187000D01*
X127381000Y-46187000D02*
X127585001Y-45982999D01*
D62*
X127250000Y-47025000D02*
X127250000Y-46572000D01*
D63*
X127250000Y-46572000D02*
X127250000Y-46318000D01*
D62*
X108585000Y-141437000D02*
X111125000Y-138897000D01*
X102235000Y-141437000D02*
X108585000Y-141437000D01*
X102410000Y-135467000D02*
X102410000Y-135262000D01*
X102410000Y-135262000D02*
X101219000Y-134071000D01*
X133126000Y-72363040D02*
X133126000Y-65185040D01*
X132954000Y-65013040D02*
X132938000Y-65013040D01*
X133126000Y-65185040D02*
X132954000Y-65013040D01*
X132938000Y-65013040D02*
X131668000Y-65013040D01*
X125953000Y-72134440D02*
X125953000Y-73506040D01*
X133126000Y-73445040D02*
X133126000Y-72363040D01*
X132684000Y-73887040D02*
X133126000Y-73445040D01*
X126334000Y-73887040D02*
X132684000Y-73887040D01*
X125953000Y-73506040D02*
X126334000Y-73887040D01*
D60*
X118067000Y-54889000D02*
X118067000Y-55839000D01*
X118272000Y-54889000D02*
X118067000Y-54889000D01*
D61*
X108835000Y-41234000D02*
X108835000Y-40468000D01*
X107823000Y-40218000D02*
X107188000Y-40218000D01*
X107188000Y-40218000D02*
X106791000Y-39821000D01*
X106791000Y-39821000D02*
X106791000Y-38821000D01*
X108585000Y-40218000D02*
X107823000Y-40218000D01*
X108835000Y-40468000D02*
X108585000Y-40218000D01*
X108835000Y-42599000D02*
X108835000Y-41234000D01*
X108835000Y-41234000D02*
X108835000Y-41230000D01*
D62*
X106836400Y-38833000D02*
X106848400Y-38821000D01*
D61*
X114427000Y-42250000D02*
X114427000Y-41615000D01*
X112268000Y-38821000D02*
X112268000Y-39329000D01*
X113875000Y-44199000D02*
X114427000Y-43647000D01*
X113875000Y-44199000D02*
X112935000Y-44199000D01*
X114427000Y-43647000D02*
X114427000Y-42250000D01*
X112268000Y-38821000D02*
X112268000Y-38948000D01*
X112268000Y-38821000D02*
X111887000Y-38440000D01*
X111887000Y-37658000D02*
X111252000Y-37023000D01*
X111887000Y-38440000D02*
X111887000Y-37658000D01*
X108848400Y-36789000D02*
X110662400Y-36789000D01*
X112935000Y-45699000D02*
X114915000Y-45699000D01*
X114915000Y-45699000D02*
X116697000Y-43917000D01*
X116697000Y-43917000D02*
X116967000Y-43917000D01*
X112935000Y-45699000D02*
X113835000Y-45699000D01*
X114935000Y-42885000D02*
X114935000Y-42123000D01*
X111252000Y-34523000D02*
X112288000Y-34523000D01*
X112903000Y-38694000D02*
X112903000Y-35138000D01*
X113030000Y-38821000D02*
X112903000Y-38694000D01*
X112903000Y-35138000D02*
X112288000Y-34523000D01*
X114264000Y-44699000D02*
X114935000Y-44028000D01*
X114935000Y-44028000D02*
X114935000Y-42885000D01*
X114264000Y-44699000D02*
X112935000Y-44699000D01*
X114935000Y-42123000D02*
X115443000Y-41615000D01*
X108848400Y-34757000D02*
X111130400Y-34757000D01*
X112935000Y-44699000D02*
X112410000Y-44699000D01*
X112145000Y-47199000D02*
X109982000Y-49362000D01*
X112935000Y-47199000D02*
X112145000Y-47199000D01*
X98552000Y-57490000D02*
X96885000Y-57490000D01*
X102362000Y-53680000D02*
X98552000Y-57490000D01*
X102362000Y-51267000D02*
X102362000Y-53680000D01*
X137922000Y-44155000D02*
X137922000Y-44409000D01*
X137922000Y-44155000D02*
X137922000Y-42057000D01*
X137922000Y-42057000D02*
X138811000Y-41168000D01*
X137922000Y-44409000D02*
X138303000Y-44790000D01*
X137250000Y-46150000D02*
X136906000Y-45806000D01*
X137250000Y-46150000D02*
X137250000Y-47025000D01*
X136271000Y-45806000D02*
X136144000Y-45679000D01*
X136906000Y-45806000D02*
X136271000Y-45806000D01*
X146977000Y-43139000D02*
X144272000Y-43139000D01*
X107335000Y-43286000D02*
X107335000Y-42599000D01*
X107823000Y-43774000D02*
X107335000Y-43286000D01*
X146977000Y-40708000D02*
X146977000Y-43139000D01*
X146977000Y-43139000D02*
X146977000Y-44808000D01*
X146939000Y-44770000D02*
X146977000Y-44808000D01*
X100711000Y-39475600D02*
X101238600Y-39475600D01*
X104013000Y-40599000D02*
X104775000Y-41361000D01*
X102362000Y-40599000D02*
X104013000Y-40599000D01*
X101238600Y-39475600D02*
X102362000Y-40599000D01*
X104775000Y-41361000D02*
X103693000Y-42443000D01*
X101219000Y-42443000D02*
X103693000Y-42443000D01*
X98475800Y-39475600D02*
X100711000Y-39475600D01*
X100711000Y-39475600D02*
X100730600Y-39475600D01*
X104775000Y-41361000D02*
X105156000Y-41361000D01*
X105283000Y-41361000D02*
X105156000Y-41361000D01*
X107335000Y-41381000D02*
X107315000Y-41361000D01*
X107335000Y-41381000D02*
X107335000Y-42599000D01*
X107315000Y-41361000D02*
X106553000Y-41361000D01*
X105283000Y-41361000D02*
X106553000Y-41361000D01*
X110335000Y-41643000D02*
X110744000Y-41234000D01*
X93395800Y-39475600D02*
X93395800Y-38262200D01*
X105156000Y-40091000D02*
X104140000Y-40091000D01*
X104140000Y-40091000D02*
X103378000Y-40091000D01*
X103251000Y-40091000D02*
X103378000Y-40091000D01*
X100965000Y-37805000D02*
X103251000Y-40091000D01*
X93853000Y-37805000D02*
X100965000Y-37805000D01*
X93395800Y-38262200D02*
X93853000Y-37805000D01*
X110335000Y-41643000D02*
X110335000Y-41742000D01*
X110871000Y-41234000D02*
X111125000Y-40980000D01*
X110744000Y-41234000D02*
X110871000Y-41234000D01*
X110335000Y-41699000D02*
X110335000Y-41742000D01*
X110335000Y-41742000D02*
X110335000Y-42599000D01*
X93345000Y-39424800D02*
X93395800Y-39475600D01*
X103632000Y-41234000D02*
X100076000Y-41234000D01*
X99314000Y-41615000D02*
X94996000Y-41615000D01*
X94996000Y-41615000D02*
X94665800Y-41284800D01*
X94665800Y-41284800D02*
X94665800Y-39475600D01*
X99314000Y-41615000D02*
X99695000Y-41615000D01*
X100076000Y-41234000D02*
X99695000Y-41615000D01*
X109835000Y-42599000D02*
X109835000Y-41244000D01*
X109835000Y-41244000D02*
X110109000Y-40970000D01*
X131750000Y-41564000D02*
X131064000Y-42250000D01*
X131064000Y-42250000D02*
X131064000Y-44790000D01*
X131750000Y-40920000D02*
X131750000Y-40294000D01*
X131750000Y-40294000D02*
X132000000Y-40044000D01*
X132000000Y-40044000D02*
X132000000Y-39220000D01*
X131750000Y-40920000D02*
X131750000Y-41564000D01*
X105001000Y-45199000D02*
X104235000Y-45199000D01*
X105283000Y-44917000D02*
X106299000Y-44917000D01*
X105001000Y-45199000D02*
X105283000Y-44917000D01*
X64262000Y-47768000D02*
X66633600Y-47768000D01*
X66633600Y-47768000D02*
X66675000Y-47726600D01*
X102997000Y-54061000D02*
X102997000Y-54823000D01*
X102997000Y-54061000D02*
X102997000Y-49537000D01*
X102997000Y-49537000D02*
X103335000Y-49199000D01*
X104235000Y-49199000D02*
X103335000Y-49199000D01*
X140147000Y-56159000D02*
X142113000Y-56159000D01*
X140147000Y-56159000D02*
X140081000Y-56093000D01*
X104267000Y-56093000D02*
X105029000Y-56093000D01*
X102997000Y-54823000D02*
X104267000Y-56093000D01*
X80137000Y-58379000D02*
X82169000Y-58379000D01*
X82169000Y-58379000D02*
X83693000Y-56855000D01*
X92710000Y-49108000D02*
X96520000Y-49108000D01*
X83693000Y-56855000D02*
X84709000Y-56855000D01*
X84709000Y-56855000D02*
X86233000Y-55331000D01*
X86233000Y-55331000D02*
X86233000Y-53553000D01*
X92329000Y-48727000D02*
X92710000Y-49108000D01*
X86233000Y-53553000D02*
X86995000Y-52791000D01*
X87757000Y-48727000D02*
X92329000Y-48727000D01*
X86995000Y-52791000D02*
X86995000Y-49489000D01*
X86995000Y-49489000D02*
X87757000Y-48727000D01*
X97475000Y-50063000D02*
X96520000Y-49108000D01*
X96520000Y-49108000D02*
X96520000Y-47685600D01*
X99949000Y-50063000D02*
X97475000Y-50063000D01*
X64262000Y-53528000D02*
X64262000Y-54188000D01*
X64262000Y-54188000D02*
X64897000Y-54823000D01*
X78665000Y-57363000D02*
X79415000Y-57363000D01*
X83185000Y-55839000D02*
X84201000Y-55839000D01*
X79415000Y-57363000D02*
X79669000Y-57109000D01*
X79669000Y-57109000D02*
X81915000Y-57109000D01*
X84201000Y-55839000D02*
X85217000Y-54823000D01*
X81915000Y-57109000D02*
X83185000Y-55839000D01*
X85217000Y-54823000D02*
X85217000Y-49235000D01*
X85217000Y-49235000D02*
X86766400Y-47685600D01*
X86766400Y-47685600D02*
X93980000Y-47685600D01*
X93980000Y-47685600D02*
X95250000Y-47685600D01*
X77343000Y-57363000D02*
X78665000Y-57363000D01*
X67945000Y-53873400D02*
X67945000Y-52029000D01*
X138938000Y-59014000D02*
X138176000Y-59014000D01*
X138176000Y-59014000D02*
X137414000Y-59776000D01*
X139954000Y-59014000D02*
X138938000Y-59014000D01*
X138938000Y-59014000D02*
X138811000Y-59014000D01*
X139954000Y-59014000D02*
X140716000Y-59014000D01*
X141671000Y-58059000D02*
X140716000Y-59014000D01*
X141671000Y-58059000D02*
X142113000Y-58059000D01*
X142113000Y-58059000D02*
X141813000Y-58059000D01*
X115840000Y-53045000D02*
X115840000Y-54862000D01*
X115840000Y-54862000D02*
X115867000Y-54889000D01*
X116248000Y-54889000D02*
X115867000Y-54889000D01*
X100899000Y-51963000D02*
X100965000Y-52029000D01*
X100965000Y-52029000D02*
X101473000Y-52029000D01*
X99949000Y-51963000D02*
X100899000Y-51963000D01*
X112034000Y-48199000D02*
X111506000Y-48727000D01*
X111506000Y-48727000D02*
X111506000Y-50124000D01*
X112935000Y-48199000D02*
X112034000Y-48199000D01*
X134683500Y-81048500D02*
X137668000Y-84033000D01*
X137795000Y-116291000D02*
X132969000Y-121117000D01*
X137795000Y-84160000D02*
X137795000Y-116291000D01*
X137668000Y-84033000D02*
X137795000Y-84160000D01*
X134683500Y-81048500D02*
X134239000Y-80604000D01*
X134239000Y-80604000D02*
X134239000Y-79080000D01*
X134239000Y-79080000D02*
X134239000Y-77429000D01*
X134239000Y-77429000D02*
X134239000Y-67777000D01*
X133985000Y-67523000D02*
X133985000Y-64221000D01*
X133985000Y-64221000D02*
X132715000Y-62951000D01*
X132715000Y-62951000D02*
X130429000Y-62951000D01*
X134239000Y-67777000D02*
X133985000Y-67523000D01*
X130429000Y-62951000D02*
X129159000Y-61681000D01*
X129159000Y-61681000D02*
X129159000Y-60157000D01*
X115867000Y-56789000D02*
X115867000Y-57279000D01*
X115867000Y-57279000D02*
X116967000Y-58379000D01*
X76265000Y-129539000D02*
X79669000Y-129539000D01*
X132969000Y-130007000D02*
X132969000Y-121117000D01*
X131953000Y-131023000D02*
X132969000Y-130007000D01*
X81153000Y-131023000D02*
X131953000Y-131023000D01*
X79669000Y-129539000D02*
X81153000Y-131023000D01*
X133477000Y-121371000D02*
X136017000Y-118831000D01*
X138303000Y-83779000D02*
X135255000Y-80731000D01*
X138303000Y-116545000D02*
X138303000Y-83779000D01*
X136017000Y-118831000D02*
X138303000Y-116545000D01*
X134747000Y-80223000D02*
X134747000Y-78445000D01*
X135255000Y-80731000D02*
X134747000Y-80223000D01*
X134747000Y-78445000D02*
X134747000Y-76794000D01*
X134747000Y-76794000D02*
X134747000Y-67015000D01*
X118067000Y-57701000D02*
X118110000Y-57744000D01*
X118067000Y-56789000D02*
X118067000Y-57701000D01*
X78765000Y-134539000D02*
X76265000Y-134539000D01*
X131699000Y-132039000D02*
X81265000Y-132039000D01*
X133477000Y-130261000D02*
X131699000Y-132039000D01*
X133477000Y-121371000D02*
X133477000Y-130261000D01*
X130773998Y-62443000D02*
X132843410Y-62443000D01*
X81265000Y-132039000D02*
X78765000Y-134539000D01*
X129790291Y-61459293D02*
X130773998Y-62443000D01*
X129790291Y-59566849D02*
X129790291Y-61459293D01*
X134747000Y-67015000D02*
X134747000Y-64346590D01*
X132843410Y-62443000D02*
X134747000Y-64346590D01*
X131500000Y-39220000D02*
X131500000Y-38241000D01*
X131445000Y-38186000D02*
X131500000Y-38241000D01*
X131699000Y-44155000D02*
X131699000Y-42504000D01*
X105517000Y-45699000D02*
X105664000Y-45552000D01*
X104235000Y-45699000D02*
X105517000Y-45699000D01*
X132250000Y-41953000D02*
X132250000Y-40920000D01*
X131699000Y-42504000D02*
X132250000Y-41953000D01*
X91960000Y-69573400D02*
X91960000Y-72176000D01*
X91960000Y-72176000D02*
X91533000Y-72603000D01*
X91633000Y-74889000D02*
X91633000Y-73751000D01*
X91633000Y-73751000D02*
X91009000Y-73127000D01*
X89789000Y-73127000D02*
X91009000Y-73127000D01*
X91009000Y-73127000D02*
X91533000Y-72603000D01*
X97040000Y-69573400D02*
X97040000Y-72454000D01*
X97040000Y-72454000D02*
X97189000Y-72603000D01*
X98933000Y-73111000D02*
X98425000Y-72603000D01*
X98425000Y-72603000D02*
X97189000Y-72603000D01*
X98933000Y-73127000D02*
X98933000Y-73111000D01*
X97089000Y-74889000D02*
X97089000Y-72703000D01*
X97089000Y-72703000D02*
X97189000Y-72603000D01*
D63*
X72500000Y-92432000D02*
X73672000Y-91260000D01*
X73672000Y-91260000D02*
X74434000Y-91260000D01*
X72500000Y-92625000D02*
X72500000Y-92432000D01*
X76800000Y-91260000D02*
X74434000Y-91260000D01*
X79200000Y-91260000D02*
X79200000Y-92450000D01*
X79200000Y-92450000D02*
X79375000Y-92625000D01*
X77600000Y-91260000D02*
X77600000Y-92200000D01*
X77600000Y-92200000D02*
X77175000Y-92625000D01*
X77175000Y-92625000D02*
X77052658Y-92625000D01*
X77052658Y-92625000D02*
X76625000Y-92625000D01*
D61*
X77875000Y-86375000D02*
X77875000Y-89750000D01*
X77875000Y-89750000D02*
X78000000Y-89875000D01*
D63*
X78000000Y-95375000D02*
X78000000Y-93536000D01*
X78000000Y-93536000D02*
X78400000Y-93136000D01*
X78400000Y-93136000D02*
X78400000Y-91260000D01*
X78400000Y-91260000D02*
X78400000Y-90275000D01*
X78400000Y-90275000D02*
X78000000Y-89875000D01*
X78400000Y-107740000D02*
X78400000Y-108725000D01*
X78400000Y-108725000D02*
X78000000Y-109125000D01*
X78400000Y-107740000D02*
X78400000Y-104025000D01*
X78400000Y-104025000D02*
X78000000Y-103625000D01*
X76625000Y-106375000D02*
X77175000Y-106375000D01*
X77175000Y-106375000D02*
X77600000Y-106800000D01*
X77600000Y-106800000D02*
X77600000Y-107740000D01*
X79200000Y-107740000D02*
X79200000Y-106550000D01*
X79200000Y-106550000D02*
X79375000Y-106375000D01*
X76800000Y-107740000D02*
X73865000Y-107740000D01*
X73865000Y-107740000D02*
X72500000Y-106375000D01*
X81600000Y-91350000D02*
X81600000Y-90400000D01*
X81600000Y-90400000D02*
X82125000Y-89875000D01*
X82400000Y-91350000D02*
X82400000Y-92350000D01*
X82400000Y-92350000D02*
X82125000Y-92625000D01*
X80800000Y-91350000D02*
X80800000Y-94050000D01*
X80800000Y-94050000D02*
X82125000Y-95375000D01*
X80000000Y-91350000D02*
X80000000Y-92200000D01*
X80188000Y-96188000D02*
X82125000Y-98125000D01*
X80188000Y-92388000D02*
X80188000Y-96188000D01*
X80000000Y-92200000D02*
X80188000Y-92388000D01*
X80000000Y-107650000D02*
X80000000Y-106757998D01*
X80188000Y-102812000D02*
X82125000Y-100875000D01*
X80188000Y-106569998D02*
X80188000Y-102812000D01*
X80000000Y-106757998D02*
X80188000Y-106569998D01*
X80800000Y-107650000D02*
X80800000Y-104950000D01*
X80800000Y-104950000D02*
X82125000Y-103625000D01*
X82400000Y-107650000D02*
X82400000Y-106650000D01*
X82400000Y-106650000D02*
X82125000Y-106375000D01*
X81600000Y-107650000D02*
X81600000Y-108600000D01*
X81600000Y-108600000D02*
X82125000Y-109125000D01*
X84800000Y-91350000D02*
X84800000Y-89950000D01*
X84800000Y-89950000D02*
X84875000Y-89875000D01*
X84000000Y-91350000D02*
X84000000Y-92136000D01*
X84489000Y-92625000D02*
X84875000Y-92625000D01*
X84000000Y-92136000D02*
X84489000Y-92625000D01*
X85600000Y-91350000D02*
X85600000Y-94650000D01*
X85600000Y-94650000D02*
X84875000Y-95375000D01*
X83200000Y-91350000D02*
X83200000Y-96450000D01*
X83200000Y-96450000D02*
X84875000Y-98125000D01*
X83200000Y-107650000D02*
X83200000Y-102550000D01*
X83200000Y-102550000D02*
X84875000Y-100875000D01*
X85600000Y-107650000D02*
X85600000Y-104350000D01*
X85600000Y-104350000D02*
X84875000Y-103625000D01*
X84000000Y-107650000D02*
X84000000Y-106864000D01*
X84489000Y-106375000D02*
X84875000Y-106375000D01*
X84000000Y-106864000D02*
X84489000Y-106375000D01*
X84800000Y-107650000D02*
X84800000Y-109050000D01*
X84800000Y-109050000D02*
X84875000Y-109125000D01*
X87200000Y-91350000D02*
X87200000Y-90300000D01*
X87200000Y-90300000D02*
X87625000Y-89875000D01*
X88800000Y-91350000D02*
X88800000Y-94200000D01*
X88800000Y-94200000D02*
X87625000Y-95375000D01*
X86400000Y-91350000D02*
X86400000Y-96900000D01*
X86400000Y-96900000D02*
X87625000Y-98125000D01*
X86400000Y-107650000D02*
X86400000Y-102100000D01*
X86400000Y-102100000D02*
X87625000Y-100875000D01*
X88800000Y-107650000D02*
X88800000Y-104800000D01*
X88800000Y-104800000D02*
X87625000Y-103625000D01*
X87625000Y-106375000D02*
X87825000Y-106375000D01*
X87825000Y-106375000D02*
X88000000Y-106550000D01*
X88000000Y-106550000D02*
X88000000Y-107650000D01*
X90400000Y-91350000D02*
X90400000Y-89900000D01*
X90400000Y-89900000D02*
X90375000Y-89875000D01*
X91200000Y-91350000D02*
X91200000Y-92298000D01*
X90873000Y-92625000D02*
X90375000Y-92625000D01*
X91200000Y-92298000D02*
X90873000Y-92625000D01*
X92000000Y-91350000D02*
X92000000Y-93750000D01*
X92000000Y-93750000D02*
X90375000Y-95375000D01*
X89600000Y-91350000D02*
X89600000Y-97350000D01*
X89600000Y-97350000D02*
X90375000Y-98125000D01*
X89600000Y-107650000D02*
X89600000Y-101650000D01*
X89600000Y-101650000D02*
X90375000Y-100875000D01*
X92000000Y-107650000D02*
X92000000Y-105250000D01*
X92000000Y-105250000D02*
X90375000Y-103625000D01*
X91200000Y-107650000D02*
X91200000Y-106702000D01*
X90873000Y-106375000D02*
X90375000Y-106375000D01*
X91200000Y-106702000D02*
X90873000Y-106375000D01*
X90400000Y-107650000D02*
X90400000Y-109100000D01*
X90400000Y-109100000D02*
X90375000Y-109125000D01*
X92800000Y-91350000D02*
X92800000Y-90200000D01*
X92800000Y-90200000D02*
X93125000Y-89875000D01*
X93600000Y-91350000D02*
X93600000Y-92150000D01*
X93600000Y-92150000D02*
X93125000Y-92625000D01*
X94400000Y-91350000D02*
X94400000Y-94100000D01*
X94400000Y-94100000D02*
X93125000Y-95375000D01*
X95200000Y-91350000D02*
X95200000Y-94140000D01*
X94666000Y-96584000D02*
X93125000Y-98125000D01*
X94666000Y-94674000D02*
X94666000Y-96584000D01*
X95200000Y-94140000D02*
X94666000Y-94674000D01*
X95200000Y-107650000D02*
X95200000Y-104860000D01*
X94666000Y-102416000D02*
X93125000Y-100875000D01*
X94666000Y-104326000D02*
X94666000Y-102416000D01*
X95200000Y-104860000D02*
X94666000Y-104326000D01*
X94400000Y-107650000D02*
X94400000Y-104900000D01*
X94400000Y-104900000D02*
X93125000Y-103625000D01*
X93600000Y-107650000D02*
X93600000Y-106850000D01*
X93600000Y-106850000D02*
X93125000Y-106375000D01*
X95875000Y-89875000D02*
X95963000Y-89875000D01*
X95963000Y-89875000D02*
X96444000Y-90356000D01*
X96444000Y-90356000D02*
X96444000Y-91372000D01*
X96444000Y-91372000D02*
X97150000Y-92078000D01*
X97150000Y-92078000D02*
X97150000Y-93500000D01*
X95875000Y-92625000D02*
X95875000Y-94227000D01*
X95930000Y-96700000D02*
X97150000Y-96700000D01*
X95174000Y-95944000D02*
X95930000Y-96700000D01*
X95174000Y-94928000D02*
X95174000Y-95944000D01*
X95875000Y-94227000D02*
X95174000Y-94928000D01*
X95875000Y-95375000D02*
X95875000Y-95629000D01*
X95875000Y-95629000D02*
X96146000Y-95900000D01*
X96146000Y-95900000D02*
X97150000Y-95900000D01*
X95875000Y-98125000D02*
X95875000Y-98677000D01*
X96298000Y-99100000D02*
X97150000Y-99100000D01*
X95875000Y-98677000D02*
X96298000Y-99100000D01*
X95875000Y-100875000D02*
X95875000Y-100323000D01*
X96298000Y-99900000D02*
X97150000Y-99900000D01*
X95875000Y-100323000D02*
X96298000Y-99900000D01*
X95875000Y-103625000D02*
X95997000Y-103625000D01*
X95997000Y-103625000D02*
X96272000Y-103900000D01*
X96272000Y-103900000D02*
X97150000Y-103900000D01*
X95875000Y-106375000D02*
X95875000Y-104773000D01*
X95930000Y-102300000D02*
X97150000Y-102300000D01*
X95174000Y-103056000D02*
X95930000Y-102300000D01*
X95174000Y-104072000D02*
X95174000Y-103056000D01*
X95875000Y-104773000D02*
X95174000Y-104072000D01*
X95875000Y-109125000D02*
X95963000Y-109125000D01*
X95963000Y-109125000D02*
X96444000Y-108644000D01*
X96444000Y-108644000D02*
X96444000Y-107501000D01*
X96444000Y-107501000D02*
X97150000Y-106795000D01*
X97150000Y-106795000D02*
X97150000Y-105500000D01*
X98625000Y-90505000D02*
X98625000Y-89875000D01*
X98190000Y-97500000D02*
X97150000Y-97500000D01*
X98730000Y-96960000D02*
X98190000Y-97500000D01*
X98730000Y-96452000D02*
X98730000Y-96960000D01*
X99492000Y-95690000D02*
X98730000Y-96452000D01*
X99492000Y-91372000D02*
X99492000Y-95690000D01*
X98625000Y-90505000D02*
X99492000Y-91372000D01*
X98625000Y-92625000D02*
X98625000Y-93763000D01*
X98088000Y-94300000D02*
X97150000Y-94300000D01*
X98625000Y-93763000D02*
X98088000Y-94300000D01*
X98625000Y-95375000D02*
X98625000Y-95331000D01*
X98625000Y-95331000D02*
X98394000Y-95100000D01*
X98394000Y-95100000D02*
X97150000Y-95100000D01*
X98625000Y-98125000D02*
X98327000Y-98125000D01*
X98327000Y-98125000D02*
X98152000Y-98300000D01*
X98152000Y-98300000D02*
X97150000Y-98300000D01*
X98625000Y-100875000D02*
X98327000Y-100875000D01*
X98327000Y-100875000D02*
X98152000Y-100700000D01*
X98152000Y-100700000D02*
X97150000Y-100700000D01*
X98625000Y-103625000D02*
X98625000Y-103459000D01*
X98625000Y-103459000D02*
X98266000Y-103100000D01*
X98266000Y-103100000D02*
X97150000Y-103100000D01*
X98625000Y-106375000D02*
X98625000Y-105237000D01*
X98088000Y-104700000D02*
X97150000Y-104700000D01*
X98625000Y-105237000D02*
X98088000Y-104700000D01*
X98625000Y-107987000D02*
X98625000Y-109125000D01*
X97936000Y-101500000D02*
X97150000Y-101500000D01*
X98476000Y-102040000D02*
X97936000Y-101500000D01*
X98476000Y-102294000D02*
X98476000Y-102040000D01*
X99492000Y-103310000D02*
X98476000Y-102294000D01*
X99492000Y-107120000D02*
X99492000Y-103310000D01*
X98625000Y-107987000D02*
X99492000Y-107120000D01*
X88000000Y-91350000D02*
X88000000Y-92250000D01*
X88000000Y-92250000D02*
X87625000Y-92625000D01*
X87625000Y-109125000D02*
X87625000Y-108969000D01*
X87625000Y-108969000D02*
X87200000Y-108544000D01*
X87200000Y-108544000D02*
X87200000Y-107650000D01*
X92800000Y-107650000D02*
X92800000Y-108800000D01*
X92800000Y-108800000D02*
X93125000Y-109125000D01*
X101375000Y-90525000D02*
X101375000Y-89875000D01*
X101800000Y-97500000D02*
X102850000Y-97500000D01*
X101400000Y-97100000D02*
X101800000Y-97500000D01*
X101400000Y-96500000D02*
X101400000Y-97100000D01*
X100400000Y-95500000D02*
X101400000Y-96500000D01*
X100400000Y-91500000D02*
X100400000Y-95500000D01*
X101375000Y-90525000D02*
X100400000Y-91500000D01*
X102850000Y-94300000D02*
X102000000Y-94300000D01*
X101375000Y-93675000D02*
X101375000Y-92625000D01*
X102000000Y-94300000D02*
X101375000Y-93675000D01*
X102850000Y-95900000D02*
X101600000Y-95900000D01*
X101600000Y-95900000D02*
X101375000Y-95675000D01*
X101375000Y-95675000D02*
X101375000Y-95375000D01*
X102850000Y-98300000D02*
X101550000Y-98300000D01*
X101550000Y-98300000D02*
X101375000Y-98125000D01*
X101375000Y-100875000D02*
X101625000Y-100875000D01*
X101625000Y-100875000D02*
X101800000Y-100700000D01*
X101800000Y-100700000D02*
X102850000Y-100700000D01*
X101375000Y-103625000D02*
X101375000Y-103875000D01*
X101375000Y-103875000D02*
X101400000Y-103900000D01*
X101400000Y-103900000D02*
X102850000Y-103900000D01*
X104125000Y-89875000D02*
X104125000Y-90041000D01*
X104125000Y-90041000D02*
X103556000Y-90610000D01*
X103556000Y-90610000D02*
X103556000Y-91499000D01*
X103556000Y-91499000D02*
X102850000Y-92205000D01*
X102850000Y-92205000D02*
X102850000Y-93500000D01*
X102850000Y-96700000D02*
X104208000Y-96700000D01*
X104125000Y-94289000D02*
X104125000Y-92625000D01*
X104864000Y-95028000D02*
X104125000Y-94289000D01*
X104864000Y-96044000D02*
X104864000Y-95028000D01*
X104208000Y-96700000D02*
X104864000Y-96044000D01*
X104125000Y-95375000D02*
X104075000Y-95375000D01*
X104075000Y-95375000D02*
X103800000Y-95100000D01*
X103800000Y-95100000D02*
X102850000Y-95100000D01*
X102850000Y-99900000D02*
X103800000Y-99900000D01*
X104125000Y-100225000D02*
X104125000Y-100875000D01*
X103800000Y-99900000D02*
X104125000Y-100225000D01*
X104125000Y-103625000D02*
X104125000Y-103425000D01*
X104125000Y-103425000D02*
X103800000Y-103100000D01*
X103800000Y-103100000D02*
X102850000Y-103100000D01*
X106875000Y-89875000D02*
X106975000Y-89875000D01*
X106975000Y-89875000D02*
X107200000Y-90100000D01*
X107200000Y-90100000D02*
X107200000Y-91350000D01*
X106400000Y-91350000D02*
X106400000Y-92150000D01*
X106400000Y-92150000D02*
X106875000Y-92625000D01*
X105600000Y-91350000D02*
X105600000Y-94100000D01*
X105600000Y-94100000D02*
X106875000Y-95375000D01*
X104800000Y-91350000D02*
X104800000Y-94140000D01*
X106350000Y-97600000D02*
X106875000Y-98125000D01*
X106350000Y-95690000D02*
X106350000Y-97600000D01*
X104800000Y-94140000D02*
X106350000Y-95690000D01*
X104800000Y-107650000D02*
X104800000Y-104700000D01*
X105400000Y-102350000D02*
X106875000Y-100875000D01*
X105400000Y-104100000D02*
X105400000Y-102350000D01*
X104800000Y-104700000D02*
X105400000Y-104100000D01*
X105600000Y-107650000D02*
X105600000Y-104900000D01*
X105600000Y-104900000D02*
X106875000Y-103625000D01*
X109625000Y-89875000D02*
X109625000Y-91325000D01*
X109625000Y-91325000D02*
X109600000Y-91350000D01*
X108800000Y-91350000D02*
X108800000Y-92300000D01*
X109125000Y-92625000D02*
X109625000Y-92625000D01*
X108800000Y-92300000D02*
X109125000Y-92625000D01*
X108000000Y-91350000D02*
X108000000Y-93750000D01*
X108000000Y-93750000D02*
X109625000Y-95375000D01*
X110400000Y-91350000D02*
X110400000Y-97350000D01*
X110400000Y-97350000D02*
X109625000Y-98125000D01*
X110400000Y-107650000D02*
X110400000Y-101650000D01*
X110400000Y-101650000D02*
X109625000Y-100875000D01*
X108000000Y-107650000D02*
X108000000Y-105250000D01*
X108000000Y-105250000D02*
X109625000Y-103625000D01*
X101375000Y-106375000D02*
X101375000Y-105375000D01*
X102050000Y-104700000D02*
X102850000Y-104700000D01*
X101375000Y-105375000D02*
X102050000Y-104700000D01*
X101375000Y-108075000D02*
X101375000Y-109125000D01*
X101375000Y-108075000D02*
X101385000Y-108075000D01*
X102850000Y-101500000D02*
X102000000Y-101500000D01*
X101375000Y-108075000D02*
X100400000Y-107100000D01*
X100400000Y-107100000D02*
X100400000Y-103500000D01*
X100400000Y-103500000D02*
X101600000Y-102300000D01*
X101600000Y-102300000D02*
X101600000Y-101900000D01*
X101600000Y-101900000D02*
X102000000Y-101500000D01*
X102850000Y-99100000D02*
X103600000Y-99100000D01*
X104125000Y-98575000D02*
X104125000Y-98125000D01*
X103600000Y-99100000D02*
X104125000Y-98575000D01*
X104125000Y-106375000D02*
X104125000Y-104657000D01*
X104262000Y-102300000D02*
X102850000Y-102300000D01*
X104864000Y-102902000D02*
X104262000Y-102300000D01*
X104864000Y-103918000D02*
X104864000Y-102902000D01*
X104125000Y-104657000D02*
X104864000Y-103918000D01*
X104125000Y-109125000D02*
X104125000Y-109086000D01*
X104125000Y-109086000D02*
X103556000Y-108517000D01*
X103556000Y-108517000D02*
X103556000Y-107628000D01*
X103556000Y-107628000D02*
X102850000Y-106922000D01*
X102850000Y-106922000D02*
X102850000Y-105500000D01*
X106400000Y-107650000D02*
X106400000Y-106850000D01*
X106400000Y-106850000D02*
X106875000Y-106375000D01*
X106875000Y-109125000D02*
X106975000Y-109125000D01*
X106975000Y-109125000D02*
X107200000Y-108900000D01*
X107200000Y-108900000D02*
X107200000Y-107650000D01*
X108800000Y-107650000D02*
X108800000Y-106700000D01*
X109125000Y-106375000D02*
X109625000Y-106375000D01*
X108800000Y-106700000D02*
X109125000Y-106375000D01*
X109600000Y-107650000D02*
X109600000Y-109100000D01*
X109600000Y-109100000D02*
X109625000Y-109125000D01*
X112375000Y-89875000D02*
X112575000Y-89875000D01*
X112575000Y-89875000D02*
X112800000Y-90100000D01*
X112800000Y-90100000D02*
X112800000Y-91350000D01*
X112000000Y-91350000D02*
X112000000Y-92250000D01*
X112000000Y-92250000D02*
X112375000Y-92625000D01*
X111200000Y-91350000D02*
X111200000Y-94200000D01*
X111200000Y-94200000D02*
X112375000Y-95375000D01*
X113600000Y-91350000D02*
X113600000Y-96900000D01*
X113600000Y-96900000D02*
X112375000Y-98125000D01*
X113600000Y-107650000D02*
X113600000Y-102100000D01*
X113600000Y-102100000D02*
X112375000Y-100875000D01*
X111200000Y-107650000D02*
X111200000Y-104800000D01*
X111200000Y-104800000D02*
X112375000Y-103625000D01*
X112000000Y-107650000D02*
X112000000Y-106750000D01*
X112000000Y-106750000D02*
X112375000Y-106375000D01*
X112375000Y-109125000D02*
X112575000Y-109125000D01*
X112575000Y-109125000D02*
X112800000Y-108900000D01*
X112800000Y-108900000D02*
X112800000Y-107650000D01*
X115200000Y-91350000D02*
X115200000Y-89950000D01*
X115200000Y-89950000D02*
X115125000Y-89875000D01*
X116000000Y-91350000D02*
X116000000Y-92020000D01*
X116000000Y-92020000D02*
X115395000Y-92625000D01*
X115395000Y-92625000D02*
X115125000Y-92625000D01*
X114400000Y-91350000D02*
X114400000Y-94650000D01*
X114400000Y-94650000D02*
X115125000Y-95375000D01*
X116800000Y-91350000D02*
X116800000Y-96450000D01*
X116800000Y-96450000D02*
X115125000Y-98125000D01*
X116800000Y-107650000D02*
X116800000Y-102550000D01*
X116800000Y-102550000D02*
X115125000Y-100875000D01*
X114400000Y-107650000D02*
X114400000Y-104350000D01*
X114400000Y-104350000D02*
X115125000Y-103625000D01*
X116000000Y-107650000D02*
X116000000Y-106700000D01*
X115675000Y-106375000D02*
X115125000Y-106375000D01*
X116000000Y-106700000D02*
X115675000Y-106375000D01*
X115200000Y-107650000D02*
X115200000Y-109050000D01*
X115200000Y-109050000D02*
X115125000Y-109125000D01*
X117875000Y-89875000D02*
X117975000Y-89875000D01*
X117975000Y-89875000D02*
X118400000Y-90300000D01*
X118400000Y-90300000D02*
X118400000Y-91350000D01*
X117600000Y-91350000D02*
X117600000Y-92350000D01*
X117600000Y-92350000D02*
X117875000Y-92625000D01*
X119200000Y-91350000D02*
X119200000Y-94050000D01*
X119200000Y-94050000D02*
X117875000Y-95375000D01*
X120000000Y-91350000D02*
X120000000Y-94300000D01*
X119000000Y-97000000D02*
X117875000Y-98125000D01*
X119000000Y-95300000D02*
X119000000Y-97000000D01*
X120000000Y-94300000D02*
X119000000Y-95300000D01*
X119200000Y-107650000D02*
X119200000Y-104950000D01*
X119200000Y-104950000D02*
X117875000Y-103625000D01*
X117600000Y-107650000D02*
X117600000Y-106650000D01*
X117600000Y-106650000D02*
X117875000Y-106375000D01*
X117875000Y-109125000D02*
X117975000Y-109125000D01*
X117975000Y-109125000D02*
X118400000Y-108700000D01*
X118400000Y-108700000D02*
X118400000Y-107650000D01*
X123200000Y-91260000D02*
X126226000Y-91260000D01*
X127500000Y-92534000D02*
X127500000Y-92625000D01*
X126226000Y-91260000D02*
X127500000Y-92534000D01*
X120800000Y-91260000D02*
X120800000Y-92450000D01*
X120800000Y-92450000D02*
X120625000Y-92625000D01*
X122825000Y-92625000D02*
X123375000Y-92625000D01*
X122400000Y-92200000D02*
X122825000Y-92625000D01*
X122400000Y-91260000D02*
X122400000Y-92200000D01*
X121600000Y-91260000D02*
X121600000Y-94975000D01*
X121600000Y-94975000D02*
X122000000Y-95375000D01*
X121600000Y-91260000D02*
X121600000Y-90275000D01*
X121600000Y-90275000D02*
X122000000Y-89875000D01*
X121600000Y-107740000D02*
X121600000Y-108725000D01*
X121600000Y-108725000D02*
X122000000Y-109125000D01*
X121600000Y-107740000D02*
X121600000Y-104025000D01*
X121600000Y-104025000D02*
X122000000Y-103625000D01*
X122947342Y-106375000D02*
X123375000Y-106375000D01*
X122400000Y-107740000D02*
X122400000Y-106800000D01*
X122400000Y-106800000D02*
X122825000Y-106375000D01*
X122825000Y-106375000D02*
X122947342Y-106375000D01*
X120800000Y-107740000D02*
X120800000Y-106550000D01*
X120800000Y-106550000D02*
X120625000Y-106375000D01*
X123200000Y-107740000D02*
X126026000Y-107740000D01*
X126026000Y-107740000D02*
X127391000Y-106375000D01*
X127391000Y-106375000D02*
X127500000Y-106375000D01*
X120000000Y-107650000D02*
X120000000Y-104500000D01*
X119200000Y-102200000D02*
X117875000Y-100875000D01*
X119200000Y-103700000D02*
X119200000Y-102200000D01*
X120000000Y-104500000D02*
X119200000Y-103700000D01*
D61*
X93230000Y-63426600D02*
X93230000Y-61135000D01*
X93230000Y-61135000D02*
X94335000Y-60030000D01*
X94335000Y-60030000D02*
X94935000Y-60030000D01*
X94935000Y-60030000D02*
X94935000Y-57540000D01*
X94935000Y-57540000D02*
X94885000Y-57490000D01*
D63*
X93853000Y-67015000D02*
X93853000Y-72383000D01*
D61*
X93853000Y-72383000D02*
X93633000Y-72603000D01*
X94500000Y-65002864D02*
X94567126Y-65069990D01*
X94500000Y-63426600D02*
X94500000Y-65002864D01*
X93533000Y-74889000D02*
X95189000Y-74889000D01*
X93633000Y-72603000D02*
X93633000Y-74789000D01*
X93633000Y-74789000D02*
X93533000Y-74889000D01*
X95089000Y-72603000D02*
X93633000Y-72603000D01*
X97663000Y-51267000D02*
X97663000Y-51775000D01*
X103104000Y-48199000D02*
X102870000Y-47965000D01*
X104235000Y-48199000D02*
X103104000Y-48199000D01*
X97663000Y-51775000D02*
X96520000Y-52918000D01*
X96520000Y-52918000D02*
X96520000Y-53832400D01*
X104255000Y-48219000D02*
X104235000Y-48199000D01*
X96520000Y-52918000D02*
X96520000Y-53832400D01*
X96647000Y-51648000D02*
X95631000Y-51648000D01*
X104235000Y-49699000D02*
X104235000Y-50029000D01*
X104235000Y-50029000D02*
X103886000Y-50378000D01*
X95250000Y-52029000D02*
X95250000Y-53832400D01*
X95631000Y-51648000D02*
X95250000Y-52029000D01*
X106835000Y-52509000D02*
X106553000Y-52791000D01*
X97815400Y-53807000D02*
X98679000Y-53807000D01*
X106835000Y-52509000D02*
X106835000Y-51299000D01*
X97815400Y-53807000D02*
X97790000Y-53832400D01*
X93230000Y-69573400D02*
X93230000Y-68307400D01*
X93230000Y-68307400D02*
X91683600Y-66761000D01*
X91683600Y-66761000D02*
X87503000Y-66761000D01*
X87503000Y-66761000D02*
X85011000Y-69253000D01*
X85011000Y-69253000D02*
X85011000Y-70817000D01*
X72517000Y-65237000D02*
X69009000Y-68745000D01*
X69009000Y-68745000D02*
X69009000Y-70817000D01*
X91415600Y-65237000D02*
X72517000Y-65237000D01*
X91960000Y-63426600D02*
X91960000Y-64692600D01*
X91960000Y-64692600D02*
X91415600Y-65237000D01*
X91960000Y-63426600D02*
X91960000Y-64112400D01*
X91960000Y-64112400D02*
X91821000Y-64251400D01*
X93715600Y-66253000D02*
X95123000Y-66253000D01*
X79677000Y-70817000D02*
X79677000Y-69253000D01*
X82677000Y-66253000D02*
X79677000Y-69253000D01*
X93715600Y-66253000D02*
X82677000Y-66253000D01*
X95770000Y-67916000D02*
X95770000Y-69573400D01*
X95770000Y-66900000D02*
X95770000Y-67916000D01*
X95123000Y-66253000D02*
X95770000Y-66900000D01*
X94869000Y-65745000D02*
X96393000Y-65745000D01*
X97040000Y-63426600D02*
X97040000Y-65098000D01*
X74343000Y-68999000D02*
X74343000Y-70817000D01*
X94869000Y-65745000D02*
X77597000Y-65745000D01*
X77597000Y-65745000D02*
X74343000Y-68999000D01*
X96393000Y-65745000D02*
X97040000Y-65098000D01*
X97040000Y-63426600D02*
X97040000Y-64112400D01*
X94500000Y-69573400D02*
X94500000Y-67384000D01*
X94500000Y-67384000D02*
X94869000Y-67015000D01*
X98310000Y-67154000D02*
X98310000Y-69573400D01*
X98310000Y-67154000D02*
X98171000Y-67015000D01*
X95483389Y-64979211D02*
X95412277Y-64979211D01*
X95770000Y-63426600D02*
X95770000Y-64692600D01*
X95770000Y-64692600D02*
X95483389Y-64979211D01*
X90690000Y-63426600D02*
X90690000Y-62304000D01*
X90690000Y-62304000D02*
X91313000Y-61681000D01*
X94615000Y-69458400D02*
X94500000Y-69573400D01*
D60*
X119761000Y-55204000D02*
X119761000Y-52283000D01*
X119761000Y-52283000D02*
X120523000Y-51521000D01*
X137033000Y-34503000D02*
X137033000Y-34757000D01*
X137350500Y-35074500D02*
X137350500Y-34900000D01*
X137033000Y-34757000D02*
X137350500Y-35074500D01*
X130500000Y-38257000D02*
X130500000Y-37988000D01*
X129667000Y-37297000D02*
X130500000Y-38257000D01*
X130500000Y-37988000D02*
X131064000Y-37424000D01*
X122682000Y-40218000D02*
X121920000Y-40218000D01*
X121920000Y-40218000D02*
X121793000Y-40091000D01*
X121793000Y-40091000D02*
X121793000Y-39583000D01*
X141986000Y-34871000D02*
X140856000Y-34871000D01*
X121793000Y-39583000D02*
X122047000Y-39583000D01*
X122047000Y-39583000D02*
X122682000Y-40218000D01*
X122682000Y-40218000D02*
X125857000Y-40218000D01*
X91567000Y-41996000D02*
X91567000Y-34249000D01*
X92329000Y-45171000D02*
X92329000Y-42758000D01*
X92329000Y-42758000D02*
X91567000Y-41996000D01*
X125857000Y-33360000D02*
X127000000Y-34503000D01*
X92456000Y-33360000D02*
X125857000Y-33360000D01*
X91567000Y-34249000D02*
X92456000Y-33360000D01*
X120523000Y-42123000D02*
X120523000Y-51521000D01*
X121793000Y-40853000D02*
X120523000Y-42123000D01*
X121793000Y-39583000D02*
X121793000Y-40853000D01*
X120523000Y-60919000D02*
X120523000Y-61951000D01*
X119761000Y-60157000D02*
X120523000Y-60919000D01*
X119761000Y-55204000D02*
X119761000Y-60157000D01*
D62*
X121793000Y-39583000D02*
X121412000Y-39583000D01*
X133000000Y-39220000D02*
X133000000Y-37424000D01*
X132969000Y-37551000D02*
X132969000Y-37424000D01*
X132969000Y-37455000D02*
X132969000Y-37551000D01*
X133000000Y-37424000D02*
X132969000Y-37455000D01*
X133250000Y-40920000D02*
X133250000Y-40118000D01*
X133000000Y-39868000D02*
X133000000Y-39220000D01*
X133250000Y-40118000D02*
X133000000Y-39868000D01*
X130750000Y-40920000D02*
X130750000Y-40158000D01*
X130500000Y-39908000D02*
X130500000Y-39220000D01*
X130750000Y-40158000D02*
X130500000Y-39908000D01*
X130500000Y-39220000D02*
X130500000Y-37424000D01*
X130500000Y-37424000D02*
X130429000Y-37424000D01*
D60*
X141986000Y-34871000D02*
X140830000Y-34871000D01*
X140830000Y-34871000D02*
X140462000Y-34503000D01*
X140462000Y-34503000D02*
X138414000Y-34503000D01*
X138414000Y-34503000D02*
X138811000Y-34900000D01*
X137525000Y-34900000D02*
X137350500Y-34900000D01*
X135001000Y-37424000D02*
X137525000Y-34900000D01*
X132969000Y-37424000D02*
X135001000Y-37424000D01*
X137350500Y-34900000D02*
X138811000Y-34900000D01*
X129667000Y-37297000D02*
X130429000Y-37424000D01*
X130429000Y-37424000D02*
X131064000Y-37424000D01*
X131064000Y-37424000D02*
X132715000Y-37424000D01*
X138811000Y-34900000D02*
X141957000Y-34900000D01*
X141957000Y-34900000D02*
X141986000Y-34871000D01*
X63881000Y-58125000D02*
X68707000Y-58125000D01*
X68707000Y-58125000D02*
X69977000Y-59395000D01*
X60833000Y-55077000D02*
X63881000Y-58125000D01*
X60833000Y-51521000D02*
X60833000Y-55077000D01*
X60075499Y-50763499D02*
X60833000Y-51521000D01*
X59230000Y-50065000D02*
X59928499Y-50763499D01*
X59928499Y-50763499D02*
X60075499Y-50763499D01*
X127000000Y-34503000D02*
X137033000Y-34503000D01*
X137033000Y-34503000D02*
X138414000Y-34503000D01*
X138414000Y-34503000D02*
X138811000Y-34900000D01*
X76835000Y-62824000D02*
X76835000Y-61269000D01*
X119507000Y-61935000D02*
X119523000Y-61951000D01*
X119523000Y-61951000D02*
X120523000Y-61951000D01*
X119253000Y-62189000D02*
X119507000Y-61935000D01*
X89281000Y-69555000D02*
X89281000Y-67523000D01*
X89299400Y-69573400D02*
X89281000Y-69555000D01*
X90690000Y-69573400D02*
X89299400Y-69573400D01*
X89281000Y-69555000D02*
X89281000Y-71587000D01*
X89281000Y-71587000D02*
X88519000Y-72349000D01*
X88519000Y-72349000D02*
X88519000Y-74635000D01*
X88519000Y-74635000D02*
X88011000Y-75143000D01*
X88011000Y-75143000D02*
X85471000Y-75143000D01*
X85471000Y-75143000D02*
X83439000Y-75143000D01*
X85537000Y-75077000D02*
X85537000Y-73365000D01*
X85471000Y-75143000D02*
X85537000Y-75077000D01*
X83439000Y-75143000D02*
X78867000Y-75143000D01*
X83373000Y-75077000D02*
X83373000Y-73365000D01*
X83439000Y-75143000D02*
X83373000Y-75077000D01*
X78867000Y-75143000D02*
X74095000Y-75143000D01*
X78801000Y-73365000D02*
X78801000Y-75077000D01*
X78801000Y-75077000D02*
X78867000Y-75143000D01*
X74095000Y-75143000D02*
X73467000Y-74515000D01*
X73467000Y-74515000D02*
X73467000Y-73365000D01*
X76835000Y-61269000D02*
X76883000Y-61317000D01*
X132334000Y-37043000D02*
X132715000Y-37424000D01*
X125857000Y-40218000D02*
X126492000Y-39583000D01*
X132715000Y-37424000D02*
X132969000Y-37424000D01*
X131318000Y-37043000D02*
X132334000Y-37043000D01*
X126492000Y-37932000D02*
X126492000Y-39583000D01*
X131318000Y-37043000D02*
X129159000Y-37043000D01*
X126492000Y-39583000D02*
X126492000Y-38440000D01*
X127381000Y-37043000D02*
X126492000Y-37932000D01*
X129159000Y-37043000D02*
X127381000Y-37043000D01*
X127508000Y-37297000D02*
X129667000Y-37297000D01*
X126492000Y-38440000D02*
X127508000Y-37297000D01*
D61*
X110871000Y-51263000D02*
X110835000Y-51299000D01*
D13*
X131250000Y-41569022D02*
X131044022Y-41775000D01*
X131044022Y-41775000D02*
X130475000Y-41775000D01*
X131250000Y-40920000D02*
X131250000Y-41569022D01*
X148025000Y-38525000D02*
X146875000Y-38525000D01*
X148075000Y-38575000D02*
X148025000Y-38525000D01*
X132500000Y-38300000D02*
X132375000Y-38175000D01*
X132500000Y-39220000D02*
X132500000Y-38300000D01*
X143625000Y-38525000D02*
X144875000Y-38525000D01*
X143575000Y-38475000D02*
X143625000Y-38525000D01*
D61*
X121351000Y-54757000D02*
X122936000Y-53172000D01*
X117840000Y-52140000D02*
X117840000Y-53045000D01*
X117094000Y-51394000D02*
X117840000Y-52140000D01*
X117094000Y-50886000D02*
X117094000Y-51394000D01*
X121158000Y-54757000D02*
X121351000Y-54757000D01*
X121158000Y-54757000D02*
X121158000Y-56159000D01*
X117967000Y-53045000D02*
X117967000Y-53170000D01*
X139446000Y-78064000D02*
X142494000Y-81112000D01*
X143129000Y-61681000D02*
X142240000Y-62570000D01*
X142240000Y-62570000D02*
X142240000Y-63332000D01*
X142240000Y-63332000D02*
X141478000Y-64094000D01*
X141478000Y-64094000D02*
X141478000Y-64602000D01*
X141478000Y-64602000D02*
X140208000Y-65872000D01*
X140208000Y-65872000D02*
X140208000Y-68285000D01*
X140208000Y-68285000D02*
X138811000Y-69682000D01*
X138811000Y-69682000D02*
X138811000Y-77429000D01*
X138811000Y-77429000D02*
X139446000Y-78064000D01*
X144272000Y-41615000D02*
X144272000Y-39837000D01*
X148336000Y-57871000D02*
X144526000Y-61681000D01*
X148336000Y-39964000D02*
X148336000Y-57871000D01*
X147828000Y-39456000D02*
X148336000Y-39964000D01*
X144653000Y-39456000D02*
X147828000Y-39456000D01*
X144272000Y-39837000D02*
X144653000Y-39456000D01*
X144526000Y-61681000D02*
X143129000Y-61681000D01*
X142494000Y-120394000D02*
X144000000Y-121900000D01*
X142494000Y-81112000D02*
X142494000Y-120394000D01*
X110835000Y-42599000D02*
X110835000Y-41778000D01*
X110998000Y-41615000D02*
X112014000Y-41615000D01*
X110835000Y-41778000D02*
X110998000Y-41615000D01*
D64*
G36*
X88392000Y-37678000D02*
X86487000Y-37678000D01*
X86437590Y-37688006D01*
X86410800Y-37703400D01*
X84582000Y-39075000D01*
X84582000Y-35900000D01*
X88392000Y-35900000D01*
X88392000Y-37678000D01*
X88392000Y-37678000D01*
G37*
X88392000Y-37678000D02*
X86487000Y-37678000D01*
X86437590Y-37688006D01*
X86410800Y-37703400D01*
X84582000Y-39075000D01*
X84582000Y-35900000D01*
X88392000Y-35900000D01*
X88392000Y-37678000D01*
G36*
X78994000Y-39456000D02*
X76633606Y-39456000D01*
X74130803Y-36953197D01*
X74088789Y-36925334D01*
X74041000Y-36916000D01*
X71882000Y-36916000D01*
X71882000Y-35138000D01*
X78994000Y-35138000D01*
X78994000Y-39456000D01*
X78994000Y-39456000D01*
G37*
X78994000Y-39456000D02*
X76633606Y-39456000D01*
X74130803Y-36953197D01*
X74088789Y-36925334D01*
X74041000Y-36916000D01*
X71882000Y-36916000D01*
X71882000Y-35138000D01*
X78994000Y-35138000D01*
X78994000Y-39456000D01*
G36*
X68834000Y-37043000D02*
X68844006Y-37092410D01*
X68871197Y-37132803D01*
X69342000Y-37603606D01*
X69342000Y-40980000D01*
X65965606Y-40980000D01*
X65240803Y-40255197D01*
X65198789Y-40227334D01*
X65151000Y-40218000D01*
X62992000Y-40218000D01*
X62992000Y-38111606D01*
X65965606Y-35138000D01*
X68834000Y-35138000D01*
X68834000Y-37043000D01*
X68834000Y-37043000D01*
G37*
X68834000Y-37043000D02*
X68844006Y-37092410D01*
X68871197Y-37132803D01*
X69342000Y-37603606D01*
X69342000Y-40980000D01*
X65965606Y-40980000D01*
X65240803Y-40255197D01*
X65198789Y-40227334D01*
X65151000Y-40218000D01*
X62992000Y-40218000D01*
X62992000Y-38111606D01*
X65965606Y-35138000D01*
X68834000Y-35138000D01*
X68834000Y-37043000D01*
G36*
X73914000Y-46695000D02*
X73924006Y-46744410D01*
X73951197Y-46784803D01*
X75184000Y-48017606D01*
X75184000Y-49362000D01*
X70358000Y-49362000D01*
X70358000Y-46239606D01*
X70828803Y-45768803D01*
X70856666Y-45726789D01*
X70866000Y-45679000D01*
X70866000Y-44282000D01*
X73914000Y-44282000D01*
X73914000Y-46695000D01*
X73914000Y-46695000D01*
G37*
X73914000Y-46695000D02*
X73924006Y-46744410D01*
X73951197Y-46784803D01*
X75184000Y-48017606D01*
X75184000Y-49362000D01*
X70358000Y-49362000D01*
X70358000Y-46239606D01*
X70828803Y-45768803D01*
X70856666Y-45726789D01*
X70866000Y-45679000D01*
X70866000Y-44282000D01*
X73914000Y-44282000D01*
X73914000Y-46695000D01*
G36*
X75184000Y-54950000D02*
X70358000Y-54950000D01*
X70358000Y-52156000D01*
X75184000Y-52156000D01*
X75184000Y-54950000D01*
X75184000Y-54950000D01*
G37*
X75184000Y-54950000D02*
X70358000Y-54950000D01*
X70358000Y-52156000D01*
X75184000Y-52156000D01*
X75184000Y-54950000D01*
G36*
X59182000Y-41107000D02*
X59192006Y-41156410D01*
X59219197Y-41196803D01*
X59727197Y-41704803D01*
X59769211Y-41732666D01*
X59817000Y-41742000D01*
X70231000Y-41742000D01*
X70280410Y-41731994D01*
X70322035Y-41703553D01*
X70349315Y-41661159D01*
X70358000Y-41615000D01*
X70358000Y-39456000D01*
X73914000Y-39456000D01*
X73914000Y-43520000D01*
X70231000Y-43520000D01*
X70181590Y-43530006D01*
X70139965Y-43558447D01*
X70112685Y-43600841D01*
X70104000Y-43647000D01*
X70104000Y-45118394D01*
X69633197Y-45589197D01*
X69605334Y-45631211D01*
X69596000Y-45679000D01*
X69596000Y-48600000D01*
X67564000Y-48600000D01*
X67564000Y-46187000D01*
X67553994Y-46137590D01*
X67525553Y-46095965D01*
X67483159Y-46068685D01*
X67437000Y-46060000D01*
X63119000Y-46060000D01*
X63069590Y-46070006D01*
X63027965Y-46098447D01*
X63000685Y-46140841D01*
X62992000Y-46187000D01*
X62992000Y-48092000D01*
X61468000Y-48092000D01*
X61468000Y-47203000D01*
X61457994Y-47153590D01*
X61430803Y-47113197D01*
X59906803Y-45589197D01*
X59864789Y-45561334D01*
X59817000Y-45552000D01*
X52070000Y-45552000D01*
X52070000Y-34809606D01*
X53011606Y-33868000D01*
X59182000Y-33868000D01*
X59182000Y-41107000D01*
X59182000Y-41107000D01*
G37*
X59182000Y-41107000D02*
X59192006Y-41156410D01*
X59219197Y-41196803D01*
X59727197Y-41704803D01*
X59769211Y-41732666D01*
X59817000Y-41742000D01*
X70231000Y-41742000D01*
X70280410Y-41731994D01*
X70322035Y-41703553D01*
X70349315Y-41661159D01*
X70358000Y-41615000D01*
X70358000Y-39456000D01*
X73914000Y-39456000D01*
X73914000Y-43520000D01*
X70231000Y-43520000D01*
X70181590Y-43530006D01*
X70139965Y-43558447D01*
X70112685Y-43600841D01*
X70104000Y-43647000D01*
X70104000Y-45118394D01*
X69633197Y-45589197D01*
X69605334Y-45631211D01*
X69596000Y-45679000D01*
X69596000Y-48600000D01*
X67564000Y-48600000D01*
X67564000Y-46187000D01*
X67553994Y-46137590D01*
X67525553Y-46095965D01*
X67483159Y-46068685D01*
X67437000Y-46060000D01*
X63119000Y-46060000D01*
X63069590Y-46070006D01*
X63027965Y-46098447D01*
X63000685Y-46140841D01*
X62992000Y-46187000D01*
X62992000Y-48092000D01*
X61468000Y-48092000D01*
X61468000Y-47203000D01*
X61457994Y-47153590D01*
X61430803Y-47113197D01*
X59906803Y-45589197D01*
X59864789Y-45561334D01*
X59817000Y-45552000D01*
X52070000Y-45552000D01*
X52070000Y-34809606D01*
X53011606Y-33868000D01*
X59182000Y-33868000D01*
X59182000Y-41107000D01*
G36*
X78994000Y-45679000D02*
X79004006Y-45728410D01*
X79031197Y-45768803D01*
X81608394Y-48346000D01*
X77470000Y-48346000D01*
X77470000Y-47457000D01*
X77459994Y-47407590D01*
X77432803Y-47367197D01*
X75692000Y-45626394D01*
X75692000Y-44790000D01*
X78994000Y-44790000D01*
X78994000Y-45679000D01*
X78994000Y-45679000D01*
G37*
X78994000Y-45679000D02*
X79004006Y-45728410D01*
X79031197Y-45768803D01*
X81608394Y-48346000D01*
X77470000Y-48346000D01*
X77470000Y-47457000D01*
X77459994Y-47407590D01*
X77432803Y-47367197D01*
X75692000Y-45626394D01*
X75692000Y-44790000D01*
X78994000Y-44790000D01*
X78994000Y-45679000D01*
G36*
X125984000Y-37824414D02*
X125962600Y-37932000D01*
X125962600Y-39363715D01*
X125716000Y-39610316D01*
X125716000Y-39439250D01*
X125621750Y-39345000D01*
X124841000Y-39345000D01*
X124841000Y-39365000D01*
X124587000Y-39365000D01*
X124587000Y-39345000D01*
X123806250Y-39345000D01*
X123712000Y-39439250D01*
X123712000Y-39688600D01*
X123093873Y-39688600D01*
X123093873Y-39075000D01*
X123074391Y-38971461D01*
X123013199Y-38876366D01*
X122919832Y-38812571D01*
X122809000Y-38790127D01*
X120777000Y-38790127D01*
X120673461Y-38809609D01*
X120578366Y-38870801D01*
X120514571Y-38964168D01*
X120492127Y-39075000D01*
X120492127Y-39964000D01*
X118618000Y-39964000D01*
X118573780Y-39971947D01*
X116662996Y-40681667D01*
X116451452Y-40681483D01*
X116201654Y-40784697D01*
X116092652Y-40893509D01*
X115626782Y-41066546D01*
X115558276Y-41038100D01*
X115328731Y-41037900D01*
X115116583Y-41125558D01*
X114954129Y-41287729D01*
X114940058Y-41321615D01*
X114931417Y-41324825D01*
X114916442Y-41288583D01*
X114754271Y-41126129D01*
X114542276Y-41038100D01*
X114312731Y-41037900D01*
X114100583Y-41125558D01*
X113938129Y-41287729D01*
X113850100Y-41499724D01*
X113849900Y-41729269D01*
X113937558Y-41941417D01*
X114025000Y-42029012D01*
X114025000Y-43480486D01*
X113985486Y-43520000D01*
X113157000Y-43520000D01*
X113107590Y-43530006D01*
X113065965Y-43558447D01*
X113038685Y-43600841D01*
X113030000Y-43647000D01*
X113030000Y-43791574D01*
X112285000Y-43791574D01*
X112182350Y-43810889D01*
X112088073Y-43871555D01*
X112024825Y-43964120D01*
X112002574Y-44074000D01*
X112002574Y-44324000D01*
X112021889Y-44426650D01*
X112035730Y-44448160D01*
X112024825Y-44464120D01*
X112002574Y-44574000D01*
X112002574Y-44824000D01*
X112021889Y-44926650D01*
X112035730Y-44948160D01*
X112024825Y-44964120D01*
X112002574Y-45074000D01*
X112002574Y-45324000D01*
X112021889Y-45426650D01*
X112035730Y-45448160D01*
X112024825Y-45464120D01*
X112002574Y-45574000D01*
X112002574Y-45824000D01*
X112021889Y-45926650D01*
X112034322Y-45945971D01*
X112022571Y-45963168D01*
X112000127Y-46074000D01*
X112000127Y-46324000D01*
X112000399Y-46325443D01*
X111965395Y-46360447D01*
X111908000Y-46499010D01*
X111908000Y-46542250D01*
X112002250Y-46636500D01*
X112808000Y-46636500D01*
X112808000Y-46608873D01*
X112836831Y-46608873D01*
X112935000Y-46628400D01*
X113030000Y-46628400D01*
X113030000Y-46791574D01*
X112808000Y-46791574D01*
X112808000Y-46761500D01*
X112002250Y-46761500D01*
X111908000Y-46855750D01*
X111908000Y-46883167D01*
X111860743Y-46914743D01*
X109990479Y-48785007D01*
X109867731Y-48784900D01*
X109655583Y-48872558D01*
X109493129Y-49034729D01*
X109405100Y-49246724D01*
X109404900Y-49476269D01*
X109492558Y-49688417D01*
X109654729Y-49850871D01*
X109856734Y-49934752D01*
X109550743Y-50240743D01*
X109529858Y-50272000D01*
X109491750Y-50272000D01*
X109397500Y-50366250D01*
X109397500Y-51172000D01*
X109427574Y-51172000D01*
X109427574Y-51394000D01*
X109264400Y-51394000D01*
X109264400Y-51299000D01*
X109244873Y-51200831D01*
X109244873Y-51172000D01*
X109272500Y-51172000D01*
X109272500Y-50366250D01*
X109178250Y-50272000D01*
X109135010Y-50272000D01*
X108996447Y-50329395D01*
X108961426Y-50364416D01*
X108960000Y-50364127D01*
X108710000Y-50364127D01*
X108606461Y-50383609D01*
X108583690Y-50398261D01*
X108569880Y-50388825D01*
X108460000Y-50366574D01*
X108210000Y-50366574D01*
X108107350Y-50385889D01*
X108085840Y-50399730D01*
X108069880Y-50388825D01*
X107960000Y-50366574D01*
X107737000Y-50366574D01*
X107737000Y-49128000D01*
X107706400Y-48974161D01*
X107637985Y-48871771D01*
X107638100Y-48739731D01*
X107550442Y-48527583D01*
X107388271Y-48365129D01*
X107176276Y-48277100D01*
X106946731Y-48276900D01*
X106734583Y-48364558D01*
X106572129Y-48526729D01*
X106484100Y-48738724D01*
X106483900Y-48968269D01*
X106571558Y-49180417D01*
X106733729Y-49342871D01*
X106933000Y-49425616D01*
X106933000Y-50366574D01*
X106710000Y-50366574D01*
X106607350Y-50385889D01*
X106585840Y-50399730D01*
X106569880Y-50388825D01*
X106559428Y-50386708D01*
X106625417Y-50359442D01*
X106787871Y-50197271D01*
X106875900Y-49985276D01*
X106876100Y-49755731D01*
X106788442Y-49543583D01*
X106626271Y-49381129D01*
X106414276Y-49293100D01*
X106184731Y-49292900D01*
X105972583Y-49380558D01*
X105810129Y-49542729D01*
X105722100Y-49754724D01*
X105721992Y-49878494D01*
X105550743Y-50049743D01*
X105463600Y-50180161D01*
X105433000Y-50334000D01*
X105433000Y-50622205D01*
X105427574Y-50649000D01*
X105427574Y-51394000D01*
X104648000Y-51394000D01*
X104648000Y-50106426D01*
X104885000Y-50106426D01*
X104987650Y-50087111D01*
X105081927Y-50026445D01*
X105145175Y-49933880D01*
X105167426Y-49824000D01*
X105167426Y-49574000D01*
X105148111Y-49471350D01*
X105134270Y-49449840D01*
X105145175Y-49433880D01*
X105167426Y-49324000D01*
X105167426Y-49074000D01*
X105148111Y-48971350D01*
X105134270Y-48949840D01*
X105145175Y-48933880D01*
X105167426Y-48824000D01*
X105167426Y-48574000D01*
X105148111Y-48471350D01*
X105134270Y-48449840D01*
X105145175Y-48433880D01*
X105167426Y-48324000D01*
X105167426Y-48101000D01*
X108851000Y-48101000D01*
X109004839Y-48070400D01*
X109059358Y-48033971D01*
X109207269Y-48034100D01*
X109419417Y-47946442D01*
X109581871Y-47784271D01*
X109669900Y-47572276D01*
X109670100Y-47342731D01*
X109582442Y-47130583D01*
X109420271Y-46968129D01*
X109208276Y-46880100D01*
X108978731Y-46879900D01*
X108858332Y-46929648D01*
X108907900Y-46810276D01*
X108908100Y-46580731D01*
X108820442Y-46368583D01*
X108658271Y-46206129D01*
X108446276Y-46118100D01*
X108216731Y-46117900D01*
X108146035Y-46147111D01*
X108146100Y-46072731D01*
X108058442Y-45860583D01*
X107896271Y-45698129D01*
X107684276Y-45610100D01*
X107454731Y-45609900D01*
X107242583Y-45697558D01*
X107127501Y-45812440D01*
X107042442Y-45606583D01*
X106880271Y-45444129D01*
X106673623Y-45358320D01*
X106787871Y-45244271D01*
X106875900Y-45032276D01*
X106876100Y-44802731D01*
X106788442Y-44590583D01*
X106626271Y-44428129D01*
X106414276Y-44340100D01*
X106184731Y-44339900D01*
X105972583Y-44427558D01*
X105884988Y-44515000D01*
X105283000Y-44515000D01*
X105207747Y-44529969D01*
X105262000Y-44398990D01*
X105262000Y-44355750D01*
X105167750Y-44261500D01*
X104648000Y-44261500D01*
X104648000Y-44136500D01*
X105167750Y-44136500D01*
X105262000Y-44042250D01*
X105262000Y-43999010D01*
X105204605Y-43860447D01*
X105098553Y-43754395D01*
X104959990Y-43697000D01*
X104648000Y-43697000D01*
X104648000Y-43139000D01*
X105427574Y-43139000D01*
X105427574Y-43249000D01*
X105446889Y-43351650D01*
X105507555Y-43445927D01*
X105600120Y-43509175D01*
X105710000Y-43531426D01*
X105960000Y-43531426D01*
X106062650Y-43512111D01*
X106084160Y-43498270D01*
X106100120Y-43509175D01*
X106210000Y-43531426D01*
X106460000Y-43531426D01*
X106562650Y-43512111D01*
X106584160Y-43498270D01*
X106600120Y-43509175D01*
X106710000Y-43531426D01*
X106960000Y-43531426D01*
X107017560Y-43520595D01*
X107050743Y-43570257D01*
X107246007Y-43765521D01*
X107245900Y-43888269D01*
X107333558Y-44100417D01*
X107495729Y-44262871D01*
X107707724Y-44350900D01*
X107937269Y-44351100D01*
X108149417Y-44263442D01*
X108311871Y-44101271D01*
X108399900Y-43889276D01*
X108400100Y-43659731D01*
X108348096Y-43533873D01*
X108460000Y-43533873D01*
X108563539Y-43514391D01*
X108586310Y-43499739D01*
X108600120Y-43509175D01*
X108710000Y-43531426D01*
X108959268Y-43531426D01*
X108996447Y-43568605D01*
X109135010Y-43626000D01*
X109178250Y-43626000D01*
X109272500Y-43531750D01*
X109272500Y-43139000D01*
X109397500Y-43139000D01*
X109397500Y-43531750D01*
X109491750Y-43626000D01*
X109534990Y-43626000D01*
X109673553Y-43568605D01*
X109710732Y-43531426D01*
X109960000Y-43531426D01*
X110062650Y-43512111D01*
X110084160Y-43498270D01*
X110100120Y-43509175D01*
X110210000Y-43531426D01*
X110460000Y-43531426D01*
X110562650Y-43512111D01*
X110584160Y-43498270D01*
X110600120Y-43509175D01*
X110710000Y-43531426D01*
X110960000Y-43531426D01*
X111062650Y-43512111D01*
X111084160Y-43498270D01*
X111100120Y-43509175D01*
X111210000Y-43531426D01*
X111460000Y-43531426D01*
X111562650Y-43512111D01*
X111656927Y-43451445D01*
X111720175Y-43358880D01*
X111742426Y-43249000D01*
X111742426Y-42794444D01*
X111813729Y-42865871D01*
X112025724Y-42953900D01*
X112255269Y-42954100D01*
X112467417Y-42866442D01*
X112629871Y-42704271D01*
X112717900Y-42492276D01*
X112718100Y-42262731D01*
X112630442Y-42050583D01*
X112508584Y-41928512D01*
X112590900Y-41730276D01*
X112591100Y-41500731D01*
X112503442Y-41288583D01*
X112341271Y-41126129D01*
X112129276Y-41038100D01*
X111899731Y-41037900D01*
X111689687Y-41124689D01*
X111701900Y-41095276D01*
X111702100Y-40865731D01*
X111614442Y-40653583D01*
X111452271Y-40491129D01*
X111240276Y-40403100D01*
X111010731Y-40402900D01*
X110798583Y-40490558D01*
X110636129Y-40652729D01*
X110619133Y-40693659D01*
X110598442Y-40643583D01*
X110436271Y-40481129D01*
X110224276Y-40393100D01*
X109994731Y-40392900D01*
X109782583Y-40480558D01*
X109620129Y-40642729D01*
X109601000Y-40688796D01*
X109601000Y-39530647D01*
X109654395Y-39659553D01*
X109760447Y-39765605D01*
X109899010Y-39823000D01*
X110252750Y-39823000D01*
X110347000Y-39728750D01*
X110347000Y-38948000D01*
X110601000Y-38948000D01*
X110601000Y-39728750D01*
X110695250Y-39823000D01*
X111048990Y-39823000D01*
X111187553Y-39765605D01*
X111293605Y-39659553D01*
X111351000Y-39520990D01*
X111351000Y-39042250D01*
X111256750Y-38948000D01*
X110601000Y-38948000D01*
X110347000Y-38948000D01*
X110327000Y-38948000D01*
X110327000Y-38694000D01*
X110347000Y-38694000D01*
X110347000Y-38674000D01*
X110601000Y-38674000D01*
X110601000Y-38694000D01*
X111256750Y-38694000D01*
X111351000Y-38599750D01*
X111351000Y-38186000D01*
X111485000Y-38186000D01*
X111485000Y-38440000D01*
X111515600Y-38593839D01*
X111602743Y-38724257D01*
X111829716Y-38951230D01*
X111779129Y-39001729D01*
X111691100Y-39213724D01*
X111690900Y-39443269D01*
X111778558Y-39655417D01*
X111940729Y-39817871D01*
X112152724Y-39905900D01*
X112382269Y-39906100D01*
X112594417Y-39818442D01*
X112756871Y-39656271D01*
X112844900Y-39444276D01*
X112844966Y-39368933D01*
X112914724Y-39397900D01*
X113144269Y-39398100D01*
X113356417Y-39310442D01*
X113518871Y-39148271D01*
X113606900Y-38936276D01*
X113607100Y-38706731D01*
X113519442Y-38494583D01*
X113357271Y-38332129D01*
X113305000Y-38310424D01*
X113305000Y-38186000D01*
X113796000Y-38186000D01*
X113796000Y-39200790D01*
X113853395Y-39339353D01*
X113959447Y-39445405D01*
X114098010Y-39502800D01*
X114967750Y-39502800D01*
X115062000Y-39408550D01*
X115062000Y-37424000D01*
X115316000Y-37424000D01*
X115316000Y-39408550D01*
X115410250Y-39502800D01*
X116279990Y-39502800D01*
X116418553Y-39445405D01*
X116524605Y-39339353D01*
X116582000Y-39200790D01*
X116582000Y-37518250D01*
X120400000Y-37518250D01*
X120400000Y-37879990D01*
X120457395Y-38018553D01*
X120563447Y-38124605D01*
X120702010Y-38182000D01*
X121571750Y-38182000D01*
X121666000Y-38087750D01*
X121666000Y-37424000D01*
X121920000Y-37424000D01*
X121920000Y-38087750D01*
X122014250Y-38182000D01*
X122883990Y-38182000D01*
X123022553Y-38124605D01*
X123128605Y-38018553D01*
X123186000Y-37879990D01*
X123186000Y-37875250D01*
X123537000Y-37875250D01*
X123537000Y-38228990D01*
X123594395Y-38367553D01*
X123700447Y-38473605D01*
X123771009Y-38502833D01*
X123769395Y-38504447D01*
X123712000Y-38643010D01*
X123712000Y-38996750D01*
X123806250Y-39091000D01*
X124587000Y-39091000D01*
X124587000Y-37781000D01*
X124841000Y-37781000D01*
X124841000Y-39091000D01*
X125621750Y-39091000D01*
X125716000Y-38996750D01*
X125716000Y-38643010D01*
X125658605Y-38504447D01*
X125656991Y-38502833D01*
X125727553Y-38473605D01*
X125833605Y-38367553D01*
X125891000Y-38228990D01*
X125891000Y-37875250D01*
X125796750Y-37781000D01*
X124841000Y-37781000D01*
X124587000Y-37781000D01*
X123631250Y-37781000D01*
X123537000Y-37875250D01*
X123186000Y-37875250D01*
X123186000Y-37518250D01*
X123091750Y-37424000D01*
X121920000Y-37424000D01*
X121666000Y-37424000D01*
X120494250Y-37424000D01*
X120400000Y-37518250D01*
X116582000Y-37518250D01*
X116487750Y-37424000D01*
X115316000Y-37424000D01*
X115062000Y-37424000D01*
X115042000Y-37424000D01*
X115042000Y-37170000D01*
X115062000Y-37170000D01*
X115062000Y-37150000D01*
X115316000Y-37150000D01*
X115316000Y-37170000D01*
X116487750Y-37170000D01*
X116582000Y-37075750D01*
X116582000Y-36714010D01*
X120400000Y-36714010D01*
X120400000Y-37075750D01*
X120494250Y-37170000D01*
X121666000Y-37170000D01*
X121666000Y-36506250D01*
X121920000Y-36506250D01*
X121920000Y-37170000D01*
X123091750Y-37170000D01*
X123182740Y-37079010D01*
X123537000Y-37079010D01*
X123537000Y-37432750D01*
X123631250Y-37527000D01*
X124587000Y-37527000D01*
X124587000Y-36871250D01*
X124841000Y-36871250D01*
X124841000Y-37527000D01*
X125796750Y-37527000D01*
X125891000Y-37432750D01*
X125891000Y-37079010D01*
X125833605Y-36940447D01*
X125727553Y-36834395D01*
X125588990Y-36777000D01*
X124935250Y-36777000D01*
X124841000Y-36871250D01*
X124587000Y-36871250D01*
X124492750Y-36777000D01*
X123839010Y-36777000D01*
X123700447Y-36834395D01*
X123594395Y-36940447D01*
X123537000Y-37079010D01*
X123182740Y-37079010D01*
X123186000Y-37075750D01*
X123186000Y-36714010D01*
X123128605Y-36575447D01*
X123022553Y-36469395D01*
X122883990Y-36412000D01*
X122014250Y-36412000D01*
X121920000Y-36506250D01*
X121666000Y-36506250D01*
X121571750Y-36412000D01*
X120702010Y-36412000D01*
X120563447Y-36469395D01*
X120457395Y-36575447D01*
X120400000Y-36714010D01*
X116582000Y-36714010D01*
X116582000Y-35900000D01*
X125984000Y-35900000D01*
X125984000Y-37824414D01*
X125984000Y-37824414D01*
G37*
X125984000Y-37824414D02*
X125962600Y-37932000D01*
X125962600Y-39363715D01*
X125716000Y-39610316D01*
X125716000Y-39439250D01*
X125621750Y-39345000D01*
X124841000Y-39345000D01*
X124841000Y-39365000D01*
X124587000Y-39365000D01*
X124587000Y-39345000D01*
X123806250Y-39345000D01*
X123712000Y-39439250D01*
X123712000Y-39688600D01*
X123093873Y-39688600D01*
X123093873Y-39075000D01*
X123074391Y-38971461D01*
X123013199Y-38876366D01*
X122919832Y-38812571D01*
X122809000Y-38790127D01*
X120777000Y-38790127D01*
X120673461Y-38809609D01*
X120578366Y-38870801D01*
X120514571Y-38964168D01*
X120492127Y-39075000D01*
X120492127Y-39964000D01*
X118618000Y-39964000D01*
X118573780Y-39971947D01*
X116662996Y-40681667D01*
X116451452Y-40681483D01*
X116201654Y-40784697D01*
X116092652Y-40893509D01*
X115626782Y-41066546D01*
X115558276Y-41038100D01*
X115328731Y-41037900D01*
X115116583Y-41125558D01*
X114954129Y-41287729D01*
X114940058Y-41321615D01*
X114931417Y-41324825D01*
X114916442Y-41288583D01*
X114754271Y-41126129D01*
X114542276Y-41038100D01*
X114312731Y-41037900D01*
X114100583Y-41125558D01*
X113938129Y-41287729D01*
X113850100Y-41499724D01*
X113849900Y-41729269D01*
X113937558Y-41941417D01*
X114025000Y-42029012D01*
X114025000Y-43480486D01*
X113985486Y-43520000D01*
X113157000Y-43520000D01*
X113107590Y-43530006D01*
X113065965Y-43558447D01*
X113038685Y-43600841D01*
X113030000Y-43647000D01*
X113030000Y-43791574D01*
X112285000Y-43791574D01*
X112182350Y-43810889D01*
X112088073Y-43871555D01*
X112024825Y-43964120D01*
X112002574Y-44074000D01*
X112002574Y-44324000D01*
X112021889Y-44426650D01*
X112035730Y-44448160D01*
X112024825Y-44464120D01*
X112002574Y-44574000D01*
X112002574Y-44824000D01*
X112021889Y-44926650D01*
X112035730Y-44948160D01*
X112024825Y-44964120D01*
X112002574Y-45074000D01*
X112002574Y-45324000D01*
X112021889Y-45426650D01*
X112035730Y-45448160D01*
X112024825Y-45464120D01*
X112002574Y-45574000D01*
X112002574Y-45824000D01*
X112021889Y-45926650D01*
X112034322Y-45945971D01*
X112022571Y-45963168D01*
X112000127Y-46074000D01*
X112000127Y-46324000D01*
X112000399Y-46325443D01*
X111965395Y-46360447D01*
X111908000Y-46499010D01*
X111908000Y-46542250D01*
X112002250Y-46636500D01*
X112808000Y-46636500D01*
X112808000Y-46608873D01*
X112836831Y-46608873D01*
X112935000Y-46628400D01*
X113030000Y-46628400D01*
X113030000Y-46791574D01*
X112808000Y-46791574D01*
X112808000Y-46761500D01*
X112002250Y-46761500D01*
X111908000Y-46855750D01*
X111908000Y-46883167D01*
X111860743Y-46914743D01*
X109990479Y-48785007D01*
X109867731Y-48784900D01*
X109655583Y-48872558D01*
X109493129Y-49034729D01*
X109405100Y-49246724D01*
X109404900Y-49476269D01*
X109492558Y-49688417D01*
X109654729Y-49850871D01*
X109856734Y-49934752D01*
X109550743Y-50240743D01*
X109529858Y-50272000D01*
X109491750Y-50272000D01*
X109397500Y-50366250D01*
X109397500Y-51172000D01*
X109427574Y-51172000D01*
X109427574Y-51394000D01*
X109264400Y-51394000D01*
X109264400Y-51299000D01*
X109244873Y-51200831D01*
X109244873Y-51172000D01*
X109272500Y-51172000D01*
X109272500Y-50366250D01*
X109178250Y-50272000D01*
X109135010Y-50272000D01*
X108996447Y-50329395D01*
X108961426Y-50364416D01*
X108960000Y-50364127D01*
X108710000Y-50364127D01*
X108606461Y-50383609D01*
X108583690Y-50398261D01*
X108569880Y-50388825D01*
X108460000Y-50366574D01*
X108210000Y-50366574D01*
X108107350Y-50385889D01*
X108085840Y-50399730D01*
X108069880Y-50388825D01*
X107960000Y-50366574D01*
X107737000Y-50366574D01*
X107737000Y-49128000D01*
X107706400Y-48974161D01*
X107637985Y-48871771D01*
X107638100Y-48739731D01*
X107550442Y-48527583D01*
X107388271Y-48365129D01*
X107176276Y-48277100D01*
X106946731Y-48276900D01*
X106734583Y-48364558D01*
X106572129Y-48526729D01*
X106484100Y-48738724D01*
X106483900Y-48968269D01*
X106571558Y-49180417D01*
X106733729Y-49342871D01*
X106933000Y-49425616D01*
X106933000Y-50366574D01*
X106710000Y-50366574D01*
X106607350Y-50385889D01*
X106585840Y-50399730D01*
X106569880Y-50388825D01*
X106559428Y-50386708D01*
X106625417Y-50359442D01*
X106787871Y-50197271D01*
X106875900Y-49985276D01*
X106876100Y-49755731D01*
X106788442Y-49543583D01*
X106626271Y-49381129D01*
X106414276Y-49293100D01*
X106184731Y-49292900D01*
X105972583Y-49380558D01*
X105810129Y-49542729D01*
X105722100Y-49754724D01*
X105721992Y-49878494D01*
X105550743Y-50049743D01*
X105463600Y-50180161D01*
X105433000Y-50334000D01*
X105433000Y-50622205D01*
X105427574Y-50649000D01*
X105427574Y-51394000D01*
X104648000Y-51394000D01*
X104648000Y-50106426D01*
X104885000Y-50106426D01*
X104987650Y-50087111D01*
X105081927Y-50026445D01*
X105145175Y-49933880D01*
X105167426Y-49824000D01*
X105167426Y-49574000D01*
X105148111Y-49471350D01*
X105134270Y-49449840D01*
X105145175Y-49433880D01*
X105167426Y-49324000D01*
X105167426Y-49074000D01*
X105148111Y-48971350D01*
X105134270Y-48949840D01*
X105145175Y-48933880D01*
X105167426Y-48824000D01*
X105167426Y-48574000D01*
X105148111Y-48471350D01*
X105134270Y-48449840D01*
X105145175Y-48433880D01*
X105167426Y-48324000D01*
X105167426Y-48101000D01*
X108851000Y-48101000D01*
X109004839Y-48070400D01*
X109059358Y-48033971D01*
X109207269Y-48034100D01*
X109419417Y-47946442D01*
X109581871Y-47784271D01*
X109669900Y-47572276D01*
X109670100Y-47342731D01*
X109582442Y-47130583D01*
X109420271Y-46968129D01*
X109208276Y-46880100D01*
X108978731Y-46879900D01*
X108858332Y-46929648D01*
X108907900Y-46810276D01*
X108908100Y-46580731D01*
X108820442Y-46368583D01*
X108658271Y-46206129D01*
X108446276Y-46118100D01*
X108216731Y-46117900D01*
X108146035Y-46147111D01*
X108146100Y-46072731D01*
X108058442Y-45860583D01*
X107896271Y-45698129D01*
X107684276Y-45610100D01*
X107454731Y-45609900D01*
X107242583Y-45697558D01*
X107127501Y-45812440D01*
X107042442Y-45606583D01*
X106880271Y-45444129D01*
X106673623Y-45358320D01*
X106787871Y-45244271D01*
X106875900Y-45032276D01*
X106876100Y-44802731D01*
X106788442Y-44590583D01*
X106626271Y-44428129D01*
X106414276Y-44340100D01*
X106184731Y-44339900D01*
X105972583Y-44427558D01*
X105884988Y-44515000D01*
X105283000Y-44515000D01*
X105207747Y-44529969D01*
X105262000Y-44398990D01*
X105262000Y-44355750D01*
X105167750Y-44261500D01*
X104648000Y-44261500D01*
X104648000Y-44136500D01*
X105167750Y-44136500D01*
X105262000Y-44042250D01*
X105262000Y-43999010D01*
X105204605Y-43860447D01*
X105098553Y-43754395D01*
X104959990Y-43697000D01*
X104648000Y-43697000D01*
X104648000Y-43139000D01*
X105427574Y-43139000D01*
X105427574Y-43249000D01*
X105446889Y-43351650D01*
X105507555Y-43445927D01*
X105600120Y-43509175D01*
X105710000Y-43531426D01*
X105960000Y-43531426D01*
X106062650Y-43512111D01*
X106084160Y-43498270D01*
X106100120Y-43509175D01*
X106210000Y-43531426D01*
X106460000Y-43531426D01*
X106562650Y-43512111D01*
X106584160Y-43498270D01*
X106600120Y-43509175D01*
X106710000Y-43531426D01*
X106960000Y-43531426D01*
X107017560Y-43520595D01*
X107050743Y-43570257D01*
X107246007Y-43765521D01*
X107245900Y-43888269D01*
X107333558Y-44100417D01*
X107495729Y-44262871D01*
X107707724Y-44350900D01*
X107937269Y-44351100D01*
X108149417Y-44263442D01*
X108311871Y-44101271D01*
X108399900Y-43889276D01*
X108400100Y-43659731D01*
X108348096Y-43533873D01*
X108460000Y-43533873D01*
X108563539Y-43514391D01*
X108586310Y-43499739D01*
X108600120Y-43509175D01*
X108710000Y-43531426D01*
X108959268Y-43531426D01*
X108996447Y-43568605D01*
X109135010Y-43626000D01*
X109178250Y-43626000D01*
X109272500Y-43531750D01*
X109272500Y-43139000D01*
X109397500Y-43139000D01*
X109397500Y-43531750D01*
X109491750Y-43626000D01*
X109534990Y-43626000D01*
X109673553Y-43568605D01*
X109710732Y-43531426D01*
X109960000Y-43531426D01*
X110062650Y-43512111D01*
X110084160Y-43498270D01*
X110100120Y-43509175D01*
X110210000Y-43531426D01*
X110460000Y-43531426D01*
X110562650Y-43512111D01*
X110584160Y-43498270D01*
X110600120Y-43509175D01*
X110710000Y-43531426D01*
X110960000Y-43531426D01*
X111062650Y-43512111D01*
X111084160Y-43498270D01*
X111100120Y-43509175D01*
X111210000Y-43531426D01*
X111460000Y-43531426D01*
X111562650Y-43512111D01*
X111656927Y-43451445D01*
X111720175Y-43358880D01*
X111742426Y-43249000D01*
X111742426Y-42794444D01*
X111813729Y-42865871D01*
X112025724Y-42953900D01*
X112255269Y-42954100D01*
X112467417Y-42866442D01*
X112629871Y-42704271D01*
X112717900Y-42492276D01*
X112718100Y-42262731D01*
X112630442Y-42050583D01*
X112508584Y-41928512D01*
X112590900Y-41730276D01*
X112591100Y-41500731D01*
X112503442Y-41288583D01*
X112341271Y-41126129D01*
X112129276Y-41038100D01*
X111899731Y-41037900D01*
X111689687Y-41124689D01*
X111701900Y-41095276D01*
X111702100Y-40865731D01*
X111614442Y-40653583D01*
X111452271Y-40491129D01*
X111240276Y-40403100D01*
X111010731Y-40402900D01*
X110798583Y-40490558D01*
X110636129Y-40652729D01*
X110619133Y-40693659D01*
X110598442Y-40643583D01*
X110436271Y-40481129D01*
X110224276Y-40393100D01*
X109994731Y-40392900D01*
X109782583Y-40480558D01*
X109620129Y-40642729D01*
X109601000Y-40688796D01*
X109601000Y-39530647D01*
X109654395Y-39659553D01*
X109760447Y-39765605D01*
X109899010Y-39823000D01*
X110252750Y-39823000D01*
X110347000Y-39728750D01*
X110347000Y-38948000D01*
X110601000Y-38948000D01*
X110601000Y-39728750D01*
X110695250Y-39823000D01*
X111048990Y-39823000D01*
X111187553Y-39765605D01*
X111293605Y-39659553D01*
X111351000Y-39520990D01*
X111351000Y-39042250D01*
X111256750Y-38948000D01*
X110601000Y-38948000D01*
X110347000Y-38948000D01*
X110327000Y-38948000D01*
X110327000Y-38694000D01*
X110347000Y-38694000D01*
X110347000Y-38674000D01*
X110601000Y-38674000D01*
X110601000Y-38694000D01*
X111256750Y-38694000D01*
X111351000Y-38599750D01*
X111351000Y-38186000D01*
X111485000Y-38186000D01*
X111485000Y-38440000D01*
X111515600Y-38593839D01*
X111602743Y-38724257D01*
X111829716Y-38951230D01*
X111779129Y-39001729D01*
X111691100Y-39213724D01*
X111690900Y-39443269D01*
X111778558Y-39655417D01*
X111940729Y-39817871D01*
X112152724Y-39905900D01*
X112382269Y-39906100D01*
X112594417Y-39818442D01*
X112756871Y-39656271D01*
X112844900Y-39444276D01*
X112844966Y-39368933D01*
X112914724Y-39397900D01*
X113144269Y-39398100D01*
X113356417Y-39310442D01*
X113518871Y-39148271D01*
X113606900Y-38936276D01*
X113607100Y-38706731D01*
X113519442Y-38494583D01*
X113357271Y-38332129D01*
X113305000Y-38310424D01*
X113305000Y-38186000D01*
X113796000Y-38186000D01*
X113796000Y-39200790D01*
X113853395Y-39339353D01*
X113959447Y-39445405D01*
X114098010Y-39502800D01*
X114967750Y-39502800D01*
X115062000Y-39408550D01*
X115062000Y-37424000D01*
X115316000Y-37424000D01*
X115316000Y-39408550D01*
X115410250Y-39502800D01*
X116279990Y-39502800D01*
X116418553Y-39445405D01*
X116524605Y-39339353D01*
X116582000Y-39200790D01*
X116582000Y-37518250D01*
X120400000Y-37518250D01*
X120400000Y-37879990D01*
X120457395Y-38018553D01*
X120563447Y-38124605D01*
X120702010Y-38182000D01*
X121571750Y-38182000D01*
X121666000Y-38087750D01*
X121666000Y-37424000D01*
X121920000Y-37424000D01*
X121920000Y-38087750D01*
X122014250Y-38182000D01*
X122883990Y-38182000D01*
X123022553Y-38124605D01*
X123128605Y-38018553D01*
X123186000Y-37879990D01*
X123186000Y-37875250D01*
X123537000Y-37875250D01*
X123537000Y-38228990D01*
X123594395Y-38367553D01*
X123700447Y-38473605D01*
X123771009Y-38502833D01*
X123769395Y-38504447D01*
X123712000Y-38643010D01*
X123712000Y-38996750D01*
X123806250Y-39091000D01*
X124587000Y-39091000D01*
X124587000Y-37781000D01*
X124841000Y-37781000D01*
X124841000Y-39091000D01*
X125621750Y-39091000D01*
X125716000Y-38996750D01*
X125716000Y-38643010D01*
X125658605Y-38504447D01*
X125656991Y-38502833D01*
X125727553Y-38473605D01*
X125833605Y-38367553D01*
X125891000Y-38228990D01*
X125891000Y-37875250D01*
X125796750Y-37781000D01*
X124841000Y-37781000D01*
X124587000Y-37781000D01*
X123631250Y-37781000D01*
X123537000Y-37875250D01*
X123186000Y-37875250D01*
X123186000Y-37518250D01*
X123091750Y-37424000D01*
X121920000Y-37424000D01*
X121666000Y-37424000D01*
X120494250Y-37424000D01*
X120400000Y-37518250D01*
X116582000Y-37518250D01*
X116487750Y-37424000D01*
X115316000Y-37424000D01*
X115062000Y-37424000D01*
X115042000Y-37424000D01*
X115042000Y-37170000D01*
X115062000Y-37170000D01*
X115062000Y-37150000D01*
X115316000Y-37150000D01*
X115316000Y-37170000D01*
X116487750Y-37170000D01*
X116582000Y-37075750D01*
X116582000Y-36714010D01*
X120400000Y-36714010D01*
X120400000Y-37075750D01*
X120494250Y-37170000D01*
X121666000Y-37170000D01*
X121666000Y-36506250D01*
X121920000Y-36506250D01*
X121920000Y-37170000D01*
X123091750Y-37170000D01*
X123182740Y-37079010D01*
X123537000Y-37079010D01*
X123537000Y-37432750D01*
X123631250Y-37527000D01*
X124587000Y-37527000D01*
X124587000Y-36871250D01*
X124841000Y-36871250D01*
X124841000Y-37527000D01*
X125796750Y-37527000D01*
X125891000Y-37432750D01*
X125891000Y-37079010D01*
X125833605Y-36940447D01*
X125727553Y-36834395D01*
X125588990Y-36777000D01*
X124935250Y-36777000D01*
X124841000Y-36871250D01*
X124587000Y-36871250D01*
X124492750Y-36777000D01*
X123839010Y-36777000D01*
X123700447Y-36834395D01*
X123594395Y-36940447D01*
X123537000Y-37079010D01*
X123182740Y-37079010D01*
X123186000Y-37075750D01*
X123186000Y-36714010D01*
X123128605Y-36575447D01*
X123022553Y-36469395D01*
X122883990Y-36412000D01*
X122014250Y-36412000D01*
X121920000Y-36506250D01*
X121666000Y-36506250D01*
X121571750Y-36412000D01*
X120702010Y-36412000D01*
X120563447Y-36469395D01*
X120457395Y-36575447D01*
X120400000Y-36714010D01*
X116582000Y-36714010D01*
X116582000Y-35900000D01*
X125984000Y-35900000D01*
X125984000Y-37824414D01*
M02*
