G04 #@! TF.GenerationSoftware,KiCad,Pcbnew,no-vcs-found-9b4eddb~60~ubuntu16.04.1*
G04 #@! TF.CreationDate,2017-11-10T15:55:15+01:00*
G04 #@! TF.ProjectId,OpenDropV3,4F70656E44726F7056332E6B69636164,rev?*
G04 #@! TF.SameCoordinates,Original*
G04 #@! TF.FileFunction,Copper,L2,Bot,Signal*
G04 #@! TF.FilePolarity,Positive*
%FSLAX46Y46*%
G04 Gerber Fmt 4.6, Leading zero omitted, Abs format (unit mm)*
G04 Created by KiCad (PCBNEW no-vcs-found-9b4eddb~60~ubuntu16.04.1) date Fri Nov 10 15:55:15 2017*
%MOMM*%
%LPD*%
G01*
G04 APERTURE LIST*
%ADD10C,2.250000*%
%ADD11C,1.000000*%
%ADD12C,0.150000*%
%ADD13C,3.200000*%
%ADD14R,3.000000X3.200000*%
%ADD15C,0.604800*%
%ADD16C,0.600000*%
%ADD17R,4.500000X2.200000*%
%ADD18R,0.740000X2.400000*%
%ADD19R,1.300000X0.250000*%
%ADD20R,0.250000X1.300000*%
%ADD21R,0.300000X1.250000*%
%ADD22R,2.000000X3.000000*%
%ADD23R,1.000000X1.250000*%
%ADD24R,1.700000X1.600000*%
%ADD25R,4.000500X2.400300*%
%ADD26R,1.300000X0.700000*%
%ADD27R,0.610000X1.520000*%
%ADD28R,0.700000X1.300000*%
%ADD29R,0.500000X1.480000*%
%ADD30R,1.480000X0.500000*%
%ADD31R,0.800000X1.300000*%
%ADD32R,2.780000X1.550000*%
%ADD33R,6.730000X6.740000*%
%ADD34R,1.250000X1.000000*%
%ADD35R,1.397000X1.397000*%
%ADD36C,1.397000*%
%ADD37R,0.660400X2.032000*%
%ADD38R,1.000000X3.200000*%
%ADD39R,2.500000X1.000000*%
%ADD40R,3.200000X2.700000*%
%ADD41R,2.500000X2.300000*%
%ADD42C,1.000000*%
%ADD43R,1.501140X1.501140*%
%ADD44R,1.400000X2.100000*%
%ADD45R,1.600200X3.599180*%
%ADD46R,3.500000X10.200000*%
%ADD47R,3.000000X2.000000*%
%ADD48R,2.032000X3.657600*%
%ADD49R,2.032000X1.016000*%
%ADD50R,1.060000X0.650000*%
%ADD51R,0.600000X0.450000*%
%ADD52R,1.000000X3.150000*%
%ADD53R,1.800000X1.000000*%
%ADD54R,1.800000X1.900000*%
%ADD55R,1.900000X1.900000*%
%ADD56R,2.100000X1.600000*%
%ADD57R,0.400000X1.350000*%
%ADD58C,0.800000*%
%ADD59C,0.500000*%
%ADD60C,0.250000*%
%ADD61C,0.300000*%
%ADD62C,0.200000*%
%ADD63C,0.400000*%
%ADD64C,0.450000*%
%ADD65C,0.254000*%
G04 APERTURE END LIST*
D10*
X146982767Y-74000000D02*
G75*
G03X146982767Y-74000000I-2982767J0D01*
G01*
D11*
X144000000Y-69400000D02*
X148000000Y-71700000D01*
X148000000Y-71700000D02*
X148000000Y-76300000D01*
X148000000Y-76300000D02*
X144000000Y-78600000D01*
X144000000Y-78600000D02*
X140000000Y-76300000D01*
X140000000Y-76300000D02*
X140000000Y-71700000D01*
X140000000Y-71700000D02*
X144000000Y-69400000D01*
D12*
X148500000Y-76598000D02*
X144000000Y-79196000D01*
X144000000Y-79196000D02*
X139500000Y-76598000D01*
X139500000Y-71402000D02*
X144000000Y-68804000D01*
X144000000Y-68804000D02*
X148500000Y-71402000D01*
X148500000Y-71402000D02*
X148500000Y-76598000D01*
X139500000Y-71402000D02*
X139500000Y-76598000D01*
D10*
X58982767Y-74000000D02*
G75*
G03X58982767Y-74000000I-2982767J0D01*
G01*
D11*
X56000000Y-69400000D02*
X60000000Y-71700000D01*
X60000000Y-71700000D02*
X60000000Y-76300000D01*
X60000000Y-76300000D02*
X56000000Y-78600000D01*
X56000000Y-78600000D02*
X52000000Y-76300000D01*
X52000000Y-76300000D02*
X52000000Y-71700000D01*
X52000000Y-71700000D02*
X56000000Y-69400000D01*
D12*
X60500000Y-76598000D02*
X56000000Y-79196000D01*
X56000000Y-79196000D02*
X51500000Y-76598000D01*
X51500000Y-71402000D02*
X56000000Y-68804000D01*
X56000000Y-68804000D02*
X60500000Y-71402000D01*
X60500000Y-71402000D02*
X60500000Y-76598000D01*
X51500000Y-71402000D02*
X51500000Y-76598000D01*
X51500000Y-122402000D02*
X51500000Y-127598000D01*
X60500000Y-122402000D02*
X60500000Y-127598000D01*
X56000000Y-119804000D02*
X60500000Y-122402000D01*
X51500000Y-122402000D02*
X56000000Y-119804000D01*
X56000000Y-130196000D02*
X51500000Y-127598000D01*
X60500000Y-127598000D02*
X56000000Y-130196000D01*
D11*
X52000000Y-122700000D02*
X56000000Y-120400000D01*
X52000000Y-127300000D02*
X52000000Y-122700000D01*
X56000000Y-129600000D02*
X52000000Y-127300000D01*
X60000000Y-127300000D02*
X56000000Y-129600000D01*
X60000000Y-122700000D02*
X60000000Y-127300000D01*
X56000000Y-120400000D02*
X60000000Y-122700000D01*
D10*
X58982767Y-125000000D02*
G75*
G03X58982767Y-125000000I-2982767J0D01*
G01*
X146982767Y-125000000D02*
G75*
G03X146982767Y-125000000I-2982767J0D01*
G01*
D11*
X144000000Y-120400000D02*
X148000000Y-122700000D01*
X148000000Y-122700000D02*
X148000000Y-127300000D01*
X148000000Y-127300000D02*
X144000000Y-129600000D01*
X144000000Y-129600000D02*
X140000000Y-127300000D01*
X140000000Y-127300000D02*
X140000000Y-122700000D01*
X140000000Y-122700000D02*
X144000000Y-120400000D01*
D12*
X148500000Y-127598000D02*
X144000000Y-130196000D01*
X144000000Y-130196000D02*
X139500000Y-127598000D01*
X139500000Y-122402000D02*
X144000000Y-119804000D01*
X144000000Y-119804000D02*
X148500000Y-122402000D01*
X148500000Y-122402000D02*
X148500000Y-127598000D01*
X139500000Y-122402000D02*
X139500000Y-127598000D01*
D13*
X146963000Y-63000000D03*
D14*
X148463000Y-63000000D03*
D15*
X76625000Y-92625000D03*
X76625000Y-106375000D03*
X123375000Y-92625000D03*
X123375000Y-106375000D03*
X127500000Y-92625000D03*
X72500000Y-106375000D03*
X127500000Y-106375000D03*
X72500000Y-92625000D03*
D16*
X90265000Y-135539000D03*
X89265000Y-135539000D03*
X88265000Y-135539000D03*
X87265000Y-135539000D03*
X86265000Y-135539000D03*
X90265000Y-134539000D03*
X89765000Y-135039000D03*
X89265000Y-134539000D03*
X88765000Y-135039000D03*
X88265000Y-134539000D03*
X87765000Y-135039000D03*
X87265000Y-134539000D03*
X86765000Y-135039000D03*
X86265000Y-134539000D03*
X90265000Y-133539000D03*
X89765000Y-134039000D03*
X89265000Y-133539000D03*
X88765000Y-134039000D03*
X88265000Y-133539000D03*
X87765000Y-134039000D03*
X87265000Y-133539000D03*
X86765000Y-134039000D03*
X86265000Y-133539000D03*
D17*
X76265000Y-129539000D03*
X76265000Y-134539000D03*
D18*
X106553000Y-39247000D03*
X106553000Y-35347000D03*
X105283000Y-39247000D03*
X105283000Y-35347000D03*
X104013000Y-39247000D03*
X104013000Y-35347000D03*
X102743000Y-39247000D03*
X102743000Y-35347000D03*
X101473000Y-39247000D03*
X101473000Y-35347000D03*
D19*
X112935000Y-44199000D03*
X112935000Y-44699000D03*
X112935000Y-45199000D03*
X112935000Y-45699000D03*
X112935000Y-46199000D03*
X112935000Y-46699000D03*
X112935000Y-47199000D03*
X112935000Y-47699000D03*
X112935000Y-48199000D03*
X112935000Y-48699000D03*
X112935000Y-49199000D03*
X112935000Y-49699000D03*
D20*
X111335000Y-51299000D03*
X110835000Y-51299000D03*
X110335000Y-51299000D03*
X109835000Y-51299000D03*
X109335000Y-51299000D03*
X108835000Y-51299000D03*
X108335000Y-51299000D03*
X107835000Y-51299000D03*
X107335000Y-51299000D03*
X106835000Y-51299000D03*
X106335000Y-51299000D03*
X105835000Y-51299000D03*
D19*
X104235000Y-49699000D03*
X104235000Y-49199000D03*
X104235000Y-48699000D03*
X104235000Y-48199000D03*
X104235000Y-47699000D03*
X104235000Y-47199000D03*
X104235000Y-46699000D03*
X104235000Y-46199000D03*
X104235000Y-45699000D03*
X104235000Y-45199000D03*
X104235000Y-44699000D03*
X104235000Y-44199000D03*
D20*
X105835000Y-42599000D03*
X106335000Y-42599000D03*
X106835000Y-42599000D03*
X107335000Y-42599000D03*
X107835000Y-42599000D03*
X108335000Y-42599000D03*
X108835000Y-42599000D03*
X109335000Y-42599000D03*
X109835000Y-42599000D03*
X110335000Y-42599000D03*
X110835000Y-42599000D03*
X111335000Y-42599000D03*
D21*
X139250000Y-47025000D03*
X137250000Y-47025000D03*
X137750000Y-47025000D03*
X138750000Y-47025000D03*
X138250000Y-47025000D03*
X136250000Y-47025000D03*
X136750000Y-47025000D03*
X135750000Y-47025000D03*
X135250000Y-47025000D03*
X132250000Y-47025000D03*
X132750000Y-47025000D03*
X133750000Y-47025000D03*
X133250000Y-47025000D03*
X134750000Y-47025000D03*
X134250000Y-47025000D03*
X126750000Y-47025000D03*
X127250000Y-47025000D03*
X125750000Y-47025000D03*
X126250000Y-47025000D03*
X125250000Y-47025000D03*
X124750000Y-47025000D03*
X127750000Y-47025000D03*
X128250000Y-47025000D03*
X129250000Y-47025000D03*
X128750000Y-47025000D03*
X130750000Y-47025000D03*
X131250000Y-47025000D03*
X130250000Y-47025000D03*
X129750000Y-47025000D03*
D22*
X123210000Y-49350000D03*
X140790000Y-49350000D03*
D21*
X131750000Y-47025000D03*
D23*
X99711000Y-47457000D03*
X101711000Y-47457000D03*
D24*
X79677000Y-70817000D03*
X82217000Y-70817000D03*
X82217000Y-61317000D03*
X79677000Y-61317000D03*
D25*
X54419500Y-60960000D03*
X62420500Y-60960000D03*
D26*
X102156000Y-61619500D03*
X102156000Y-59719500D03*
D27*
X118285000Y-69244000D03*
X117015000Y-69244000D03*
X115745000Y-69244000D03*
X114475000Y-69244000D03*
X114475000Y-63779000D03*
X115745000Y-63779000D03*
X117015000Y-63779000D03*
X118285000Y-63779000D03*
X111935000Y-63779000D03*
X110665000Y-63779000D03*
X109395000Y-63779000D03*
X108125000Y-63779000D03*
X108125000Y-69244000D03*
X109395000Y-69244000D03*
X110665000Y-69244000D03*
X111935000Y-69244000D03*
D28*
X102852000Y-71591500D03*
X100952000Y-71591500D03*
D26*
X64262000Y-53528000D03*
X64262000Y-51628000D03*
X101219000Y-42443000D03*
X101219000Y-44343000D03*
X102410000Y-137367000D03*
X102410000Y-135467000D03*
X99997000Y-135467000D03*
X99997000Y-137367000D03*
X97330000Y-136991000D03*
X97330000Y-138891000D03*
X97330000Y-133562000D03*
X97330000Y-135462000D03*
D28*
X133126000Y-72363040D03*
X131226000Y-72363040D03*
D26*
X131668000Y-70265040D03*
X131668000Y-68365040D03*
X123794000Y-69757040D03*
X123794000Y-67857040D03*
D28*
X116139000Y-71587000D03*
X114239000Y-71587000D03*
X109456000Y-71591500D03*
X107556000Y-71591500D03*
X104206000Y-71587000D03*
X106106000Y-71587000D03*
X110858000Y-71591500D03*
X112758000Y-71591500D03*
X95189000Y-74889000D03*
X97089000Y-74889000D03*
X87437000Y-73365000D03*
X85537000Y-73365000D03*
X71567000Y-73365000D03*
X73467000Y-73365000D03*
X81473000Y-73365000D03*
X83373000Y-73365000D03*
X76901000Y-73365000D03*
X78801000Y-73365000D03*
D26*
X117650000Y-61619500D03*
X117650000Y-59719500D03*
D28*
X117462000Y-71591500D03*
X119362000Y-71591500D03*
X138369000Y-41107000D03*
X140269000Y-41107000D03*
D26*
X144145000Y-56159000D03*
X144145000Y-58059000D03*
X121285000Y-56159000D03*
X121285000Y-58059000D03*
X142113000Y-56159000D03*
X142113000Y-58059000D03*
X115175000Y-61625000D03*
X115175000Y-59725000D03*
X108760000Y-61619500D03*
X108760000Y-59719500D03*
X104975000Y-61625000D03*
X104975000Y-59725000D03*
X111300000Y-61619500D03*
X111300000Y-59719500D03*
X99949000Y-51963000D03*
X99949000Y-50063000D03*
D28*
X93533000Y-74889000D03*
X91633000Y-74889000D03*
X94935000Y-60030000D03*
X96835000Y-60030000D03*
D15*
X78000000Y-109125000D03*
D29*
X95200000Y-107740000D03*
X94400000Y-107740000D03*
X93600000Y-107740000D03*
X92800000Y-107740000D03*
X92000000Y-107740000D03*
X91200000Y-107740000D03*
X90400000Y-107740000D03*
X89600000Y-107740000D03*
X88800000Y-107740000D03*
X88000000Y-107740000D03*
X87200000Y-107740000D03*
X86400000Y-107740000D03*
X85600000Y-107740000D03*
X84800000Y-107740000D03*
X84000000Y-107740000D03*
X83200000Y-107740000D03*
X82400000Y-107740000D03*
X81600000Y-107740000D03*
X80800000Y-107740000D03*
X80000000Y-107740000D03*
X79200000Y-107740000D03*
X78400000Y-107740000D03*
X77600000Y-107740000D03*
X76800000Y-107740000D03*
D30*
X74760000Y-105500000D03*
X74760000Y-104700000D03*
X74760000Y-103900000D03*
X74760000Y-103100000D03*
X74760000Y-102300000D03*
X74760000Y-101500000D03*
X74760000Y-100700000D03*
X74760000Y-99900000D03*
X74760000Y-99100000D03*
X74760000Y-98300000D03*
X74760000Y-97500000D03*
X74760000Y-96700000D03*
X74760000Y-95900000D03*
X74760000Y-95100000D03*
X74760000Y-94300000D03*
X74760000Y-93500000D03*
D29*
X76800000Y-91260000D03*
X77600000Y-91260000D03*
X78400000Y-91260000D03*
X79200000Y-91260000D03*
X80000000Y-91260000D03*
X80800000Y-91260000D03*
X81600000Y-91260000D03*
X82400000Y-91260000D03*
X83200000Y-91260000D03*
X84000000Y-91260000D03*
X84800000Y-91260000D03*
X85600000Y-91260000D03*
X86400000Y-91260000D03*
X87200000Y-91260000D03*
X88000000Y-91260000D03*
X88800000Y-91260000D03*
X89600000Y-91260000D03*
X90400000Y-91260000D03*
X91200000Y-91260000D03*
X92000000Y-91260000D03*
X92800000Y-91260000D03*
X93600000Y-91260000D03*
X94400000Y-91260000D03*
X95200000Y-91260000D03*
D30*
X97240000Y-93500000D03*
X97240000Y-94300000D03*
X97240000Y-95100000D03*
X97240000Y-95900000D03*
X97240000Y-96700000D03*
X97240000Y-97500000D03*
X97240000Y-98300000D03*
X97240000Y-99100000D03*
X97240000Y-99900000D03*
X97240000Y-100700000D03*
X97240000Y-101500000D03*
X97240000Y-102300000D03*
X97240000Y-103100000D03*
X97240000Y-103900000D03*
X97240000Y-104700000D03*
X97240000Y-105500000D03*
D31*
X98625000Y-89875000D03*
D28*
X97675000Y-89875000D03*
X99575000Y-89875000D03*
D29*
X104800000Y-91260000D03*
X105600000Y-91260000D03*
X106400000Y-91260000D03*
X107200000Y-91260000D03*
X108000000Y-91260000D03*
X108800000Y-91260000D03*
X109600000Y-91260000D03*
X110400000Y-91260000D03*
X111200000Y-91260000D03*
X112000000Y-91260000D03*
X112800000Y-91260000D03*
X113600000Y-91260000D03*
X114400000Y-91260000D03*
X115200000Y-91260000D03*
X116000000Y-91260000D03*
X116800000Y-91260000D03*
X117600000Y-91260000D03*
X118400000Y-91260000D03*
X119200000Y-91260000D03*
X120000000Y-91260000D03*
X120800000Y-91260000D03*
X121600000Y-91260000D03*
X122400000Y-91260000D03*
X123200000Y-91260000D03*
D30*
X125240000Y-93500000D03*
X125240000Y-94300000D03*
X125240000Y-95100000D03*
X125240000Y-95900000D03*
X125240000Y-96700000D03*
X125240000Y-97500000D03*
X125240000Y-98300000D03*
X125240000Y-99100000D03*
X125240000Y-99900000D03*
X125240000Y-100700000D03*
X125240000Y-101500000D03*
X125240000Y-102300000D03*
X125240000Y-103100000D03*
X125240000Y-103900000D03*
X125240000Y-104700000D03*
X125240000Y-105500000D03*
D29*
X123200000Y-107740000D03*
X122400000Y-107740000D03*
X121600000Y-107740000D03*
X120800000Y-107740000D03*
X120000000Y-107740000D03*
X119200000Y-107740000D03*
X118400000Y-107740000D03*
X117600000Y-107740000D03*
X116800000Y-107740000D03*
X116000000Y-107740000D03*
X115200000Y-107740000D03*
X114400000Y-107740000D03*
X113600000Y-107740000D03*
X112800000Y-107740000D03*
X112000000Y-107740000D03*
X111200000Y-107740000D03*
X110400000Y-107740000D03*
X109600000Y-107740000D03*
X108800000Y-107740000D03*
X108000000Y-107740000D03*
X107200000Y-107740000D03*
X106400000Y-107740000D03*
X105600000Y-107740000D03*
X104800000Y-107740000D03*
D30*
X102760000Y-105500000D03*
X102760000Y-104700000D03*
X102760000Y-103900000D03*
X102760000Y-103100000D03*
X102760000Y-102300000D03*
X102760000Y-101500000D03*
X102760000Y-100700000D03*
X102760000Y-99900000D03*
X102760000Y-99100000D03*
X102760000Y-98300000D03*
X102760000Y-97500000D03*
X102760000Y-96700000D03*
X102760000Y-95900000D03*
X102760000Y-95100000D03*
X102760000Y-94300000D03*
X102760000Y-93500000D03*
D32*
X73932000Y-48620000D03*
D33*
X80567000Y-50800000D03*
D32*
X73932000Y-52980000D03*
D24*
X69009000Y-70817000D03*
X71549000Y-70817000D03*
X71549000Y-61317000D03*
X69009000Y-61317000D03*
X85011000Y-70817000D03*
X87551000Y-70817000D03*
X87551000Y-61317000D03*
X85011000Y-61317000D03*
X74343000Y-70817000D03*
X76883000Y-70817000D03*
X76883000Y-61317000D03*
X74343000Y-61317000D03*
D27*
X105585000Y-69244000D03*
X104315000Y-69244000D03*
X103045000Y-69244000D03*
X101775000Y-69244000D03*
X101775000Y-63779000D03*
X103045000Y-63779000D03*
X104315000Y-63779000D03*
X105585000Y-63779000D03*
D34*
X123794000Y-65997040D03*
X123794000Y-63997040D03*
D35*
X59230000Y-52605000D03*
D36*
X59230000Y-50065000D03*
X59230000Y-47525000D03*
D37*
X129763000Y-72134440D03*
X128493000Y-72134440D03*
X127223000Y-72134440D03*
X125953000Y-72134440D03*
X125953000Y-65987640D03*
X127223000Y-65987640D03*
X128493000Y-65987640D03*
X129763000Y-65987640D03*
D38*
X72465000Y-57363000D03*
X78665000Y-57363000D03*
D39*
X72565000Y-44895000D03*
X72565000Y-39995000D03*
D34*
X61976000Y-49768000D03*
X61976000Y-47768000D03*
X64262000Y-47768000D03*
X64262000Y-49768000D03*
D40*
X88646000Y-36690000D03*
X88646000Y-44590000D03*
D34*
X127432000Y-98246000D03*
X127432000Y-100246000D03*
X72060000Y-101008000D03*
X72060000Y-99008000D03*
D41*
X67875000Y-36095000D03*
X72175000Y-36095000D03*
D42*
X147000000Y-34000000D03*
X147000000Y-134000000D03*
X53000000Y-134000000D03*
D34*
X131668000Y-65013040D03*
X131668000Y-67013040D03*
D23*
X126127000Y-63459000D03*
X128127000Y-63459000D03*
D31*
X101375000Y-109125000D03*
D28*
X100425000Y-109125000D03*
X102325000Y-109125000D03*
D31*
X101375000Y-89875000D03*
D28*
X100425000Y-89875000D03*
X102325000Y-89875000D03*
D31*
X98625000Y-109125000D03*
D28*
X99575000Y-109125000D03*
X97675000Y-109125000D03*
D25*
X62420500Y-39116000D03*
X54419500Y-39116000D03*
D23*
X111109000Y-38821000D03*
X109109000Y-38821000D03*
D34*
X126619000Y-41091000D03*
X126619000Y-39091000D03*
X142113000Y-62681000D03*
X142113000Y-60681000D03*
D23*
X111109000Y-34757000D03*
X109109000Y-34757000D03*
D34*
X116967000Y-45917000D03*
X116967000Y-43917000D03*
D23*
X111109000Y-36789000D03*
X109109000Y-36789000D03*
D43*
X68120000Y-103405000D03*
X68120000Y-108485000D03*
X68120000Y-95785000D03*
X68120000Y-93245000D03*
X68120000Y-105945000D03*
X68120000Y-98325000D03*
X68120000Y-100865000D03*
D44*
X148000000Y-37750000D03*
X143500000Y-37750000D03*
X148000000Y-47750000D03*
X143500000Y-47750000D03*
D45*
X89000000Y-51374180D03*
X89000000Y-56875820D03*
D46*
X83945000Y-40599000D03*
X77345000Y-40599000D03*
D23*
X125587000Y-43393000D03*
X123587000Y-43393000D03*
X138319000Y-43393000D03*
X140319000Y-43393000D03*
X127651000Y-43393000D03*
X129651000Y-43393000D03*
X136255000Y-43393000D03*
X134255000Y-43393000D03*
X115967000Y-53045000D03*
X117967000Y-53045000D03*
D47*
X68120000Y-40145000D03*
X68120000Y-44745000D03*
D34*
X120523000Y-63951000D03*
X120523000Y-61951000D03*
D48*
X116967000Y-37805000D03*
D49*
X123571000Y-37805000D03*
X123571000Y-40091000D03*
X123571000Y-35519000D03*
D37*
X66675000Y-47726600D03*
X67945000Y-47726600D03*
X69215000Y-47726600D03*
X70485000Y-47726600D03*
X70485000Y-53873400D03*
X69215000Y-53873400D03*
X67945000Y-53873400D03*
X66675000Y-53873400D03*
X93980000Y-47685600D03*
X95250000Y-47685600D03*
X96520000Y-47685600D03*
X97790000Y-47685600D03*
X97790000Y-53832400D03*
X96520000Y-53832400D03*
X95250000Y-53832400D03*
X93980000Y-53832400D03*
D34*
X139319000Y-35281000D03*
X139319000Y-37281000D03*
D50*
X115867000Y-56789000D03*
X115867000Y-55839000D03*
X115867000Y-54889000D03*
X118067000Y-54889000D03*
X118067000Y-56789000D03*
X118067000Y-55839000D03*
D34*
X89789000Y-73127000D03*
X89789000Y-75127000D03*
X98933000Y-75127000D03*
X98933000Y-73127000D03*
D15*
X84875000Y-92625000D03*
X84875000Y-95375000D03*
X84875000Y-98125000D03*
X84875000Y-100875000D03*
X84875000Y-103625000D03*
X84875000Y-106375000D03*
X87625000Y-92625000D03*
X87625000Y-95375000D03*
X87625000Y-98125000D03*
X87625000Y-100875000D03*
X87625000Y-103625000D03*
X87625000Y-106375000D03*
X90375000Y-92625000D03*
X90375000Y-95375000D03*
X90375000Y-98125000D03*
X90375000Y-100875000D03*
X90375000Y-103625000D03*
X90375000Y-106375000D03*
X93125000Y-92625000D03*
X93125000Y-95375000D03*
X93125000Y-98125000D03*
X93125000Y-100875000D03*
X93125000Y-103625000D03*
X93125000Y-106375000D03*
X95875000Y-92625000D03*
X95875000Y-95375000D03*
X95875000Y-98125000D03*
X95875000Y-100875000D03*
X95875000Y-103625000D03*
X95875000Y-106375000D03*
X98625000Y-92625000D03*
X98625000Y-95375000D03*
X98625000Y-98125000D03*
X98625000Y-100875000D03*
X98625000Y-103625000D03*
X98625000Y-106375000D03*
X101375000Y-92625000D03*
X101375000Y-95375000D03*
X101375000Y-98125000D03*
X101375000Y-100875000D03*
X101375000Y-103625000D03*
X101375000Y-106375000D03*
X104125000Y-92625000D03*
X104125000Y-95375000D03*
X104125000Y-98125000D03*
X104125000Y-100875000D03*
X104125000Y-103625000D03*
X104125000Y-106375000D03*
X106875000Y-92625000D03*
X106875000Y-95375000D03*
X106875000Y-98125000D03*
X106875000Y-100875000D03*
X106875000Y-103625000D03*
X106875000Y-106375000D03*
X109625000Y-92625000D03*
X109625000Y-95375000D03*
X109625000Y-98125000D03*
X109625000Y-100875000D03*
X109625000Y-103625000D03*
X109625000Y-106375000D03*
X112375000Y-92625000D03*
X112375000Y-95375000D03*
X112375000Y-98125000D03*
X112375000Y-100875000D03*
X112375000Y-103625000D03*
X112375000Y-106375000D03*
X115125000Y-92625000D03*
X115125000Y-95375000D03*
X115125000Y-98125000D03*
X115125000Y-100875000D03*
X115125000Y-103625000D03*
X115125000Y-106375000D03*
X79375000Y-92625000D03*
X78000000Y-89875000D03*
X78000000Y-103625000D03*
X79375000Y-106375000D03*
X82125000Y-89875000D03*
X82125000Y-95375000D03*
X82125000Y-98125000D03*
X82125000Y-100875000D03*
X82125000Y-103625000D03*
X84875000Y-89875000D03*
X87625000Y-109125000D03*
X90375000Y-89875000D03*
X93125000Y-109125000D03*
X95875000Y-89875000D03*
X98625000Y-109125000D03*
X101375000Y-89875000D03*
X101375000Y-109125000D03*
X104125000Y-89875000D03*
X104125000Y-109125000D03*
X106875000Y-89875000D03*
X106875000Y-109125000D03*
X109625000Y-89875000D03*
X109625000Y-109125000D03*
X112375000Y-89875000D03*
X112375000Y-109125000D03*
X115125000Y-89875000D03*
X115125000Y-109125000D03*
X117875000Y-89875000D03*
X117875000Y-95375000D03*
X117875000Y-98125000D03*
X117875000Y-100875000D03*
X117875000Y-103625000D03*
X117875000Y-109125000D03*
X82125000Y-109125000D03*
X84875000Y-109125000D03*
X90375000Y-109125000D03*
X93125000Y-89875000D03*
X95875000Y-109125000D03*
X98625000Y-89875000D03*
X87625000Y-89875000D03*
X120625000Y-92625000D03*
X122000000Y-95375000D03*
X122000000Y-109125000D03*
X120625000Y-106375000D03*
X82125000Y-92625000D03*
X82125000Y-106375000D03*
X117875000Y-92625000D03*
X117875000Y-106375000D03*
X122000000Y-89875000D03*
X78000000Y-95375000D03*
X122000000Y-103625000D03*
D23*
X94885000Y-57490000D03*
X96885000Y-57490000D03*
D51*
X91533000Y-72603000D03*
X93633000Y-72603000D03*
X97189000Y-72603000D03*
X95089000Y-72603000D03*
D52*
X97917000Y-43124000D03*
X97917000Y-38074000D03*
X95377000Y-43124000D03*
X95377000Y-38074000D03*
X92837000Y-43124000D03*
X92837000Y-38074000D03*
D37*
X90690000Y-63426600D03*
X91960000Y-63426600D03*
X93230000Y-63426600D03*
X94500000Y-63426600D03*
X95770000Y-63426600D03*
X97040000Y-63426600D03*
X98310000Y-63426600D03*
X98310000Y-69573400D03*
X97040000Y-69573400D03*
X94500000Y-69573400D03*
X93230000Y-69573400D03*
X91960000Y-69573400D03*
X90690000Y-69573400D03*
X95770000Y-69573400D03*
D53*
X113665000Y-37531000D03*
X113665000Y-35031000D03*
D22*
X129653000Y-40091000D03*
X134253000Y-40091000D03*
D34*
X119507000Y-45917000D03*
X119507000Y-43917000D03*
D54*
X135800000Y-32471000D03*
X128200000Y-32471000D03*
D55*
X130800000Y-32471000D03*
X133200000Y-32471000D03*
D56*
X135100000Y-35021000D03*
X128900000Y-35021000D03*
D57*
X130700000Y-35146000D03*
X131350000Y-35146000D03*
X131999100Y-35146000D03*
X132650000Y-35146000D03*
X133300000Y-35146000D03*
D58*
X83693000Y-46695000D03*
X69215000Y-50759000D03*
D16*
X57150000Y-39456000D03*
X57150000Y-38694000D03*
X120396000Y-40472000D03*
X136779000Y-131785000D03*
X140081000Y-67523000D03*
X130937000Y-59141000D03*
X110109000Y-57900000D03*
X110109000Y-54569000D03*
X114681000Y-52283000D03*
X97917000Y-35773000D03*
X108077000Y-35265000D03*
X139319000Y-38313000D03*
X136275000Y-40375000D03*
X136275000Y-38475000D03*
X121575000Y-64575000D03*
X114675000Y-54475000D03*
X129667000Y-64729000D03*
X124841000Y-60411000D03*
X134493000Y-60665000D03*
X108960000Y-54061000D03*
X102743000Y-44663000D03*
X108077000Y-36789000D03*
X65659000Y-44663000D03*
X65659000Y-42885000D03*
X56769000Y-41615000D03*
X55499000Y-41615000D03*
X56769000Y-36281000D03*
X55499000Y-36281000D03*
X85725000Y-59903000D03*
X84963000Y-59903000D03*
X93345000Y-55585000D03*
X91059000Y-45933000D03*
X91059000Y-44917000D03*
X91059000Y-43901000D03*
X99075000Y-63475000D03*
X103759000Y-62633500D03*
X110109000Y-62633500D03*
X116459000Y-62633500D03*
X126111000Y-36027000D03*
X136271000Y-39329000D03*
X133223000Y-61681000D03*
X104971259Y-56715328D03*
X111275000Y-56575000D03*
X130352400Y-48219000D03*
X105791000Y-48727000D03*
X130556000Y-49235000D03*
X106807000Y-48981000D03*
X141859000Y-64221000D03*
X129413000Y-63459000D03*
X106299000Y-44917000D03*
X132461000Y-44663000D03*
X139065000Y-60411000D03*
X133223000Y-45044000D03*
X106553000Y-45933000D03*
X133985000Y-45679000D03*
X107569000Y-46187000D03*
X114172998Y-50251000D03*
X137795000Y-65745000D03*
X135509000Y-66253000D03*
X119253000Y-50251000D03*
X118491000Y-47457000D03*
X109093000Y-47457000D03*
X131445000Y-48854000D03*
X105283000Y-49743000D03*
X112141000Y-42377000D03*
X121793000Y-42377000D03*
X136271000Y-64983000D03*
X110363000Y-53299000D03*
X136896000Y-66878000D03*
X120269000Y-50251000D03*
X119507000Y-47203000D03*
X108331000Y-46695000D03*
X113875000Y-57375000D03*
X108468000Y-57275000D03*
X121539000Y-60157000D03*
X115951000Y-58379000D03*
X90675000Y-54175000D03*
X98375000Y-58575000D03*
X62103000Y-65237000D03*
X74295000Y-63205000D03*
X65659000Y-65237000D03*
X102997000Y-66507000D03*
X120439417Y-65607457D03*
X115697000Y-66207457D03*
X121031000Y-66207457D03*
X109347000Y-66761000D03*
X122047000Y-67523000D03*
X104267000Y-65722999D03*
X119507000Y-64983000D03*
X109093000Y-55077000D03*
X106807000Y-54569000D03*
X110617000Y-66253000D03*
X121689229Y-66807457D03*
D58*
X88975000Y-59275000D03*
X98275000Y-59775000D03*
X100375000Y-66975000D03*
X82169000Y-62502600D03*
X58801000Y-60919000D03*
X63373000Y-66761000D03*
D16*
X114681000Y-67615000D03*
X111887000Y-67523000D03*
X105791000Y-67523000D03*
X66929000Y-66761000D03*
X138557000Y-64221000D03*
X133223000Y-64475000D03*
X112395000Y-41107000D03*
X125349000Y-37805000D03*
X125349000Y-41107000D03*
X102235000Y-141437000D03*
X101219000Y-134071000D03*
X137668000Y-44536000D03*
X136779000Y-45679000D03*
X141859000Y-43139000D03*
X108331000Y-43774000D03*
X94107000Y-41869000D03*
X101473000Y-40736000D03*
X111125000Y-41107000D03*
X96647000Y-41869000D03*
X102743000Y-40736000D03*
X110109000Y-40970000D03*
X104267000Y-55331000D03*
X140081000Y-56093000D03*
X80137000Y-58379000D03*
X64897000Y-54823000D03*
X77343000Y-57363000D03*
X67945000Y-52029000D03*
X128143000Y-61681000D03*
X110871000Y-50114000D03*
X101473000Y-51521000D03*
X129159000Y-60157000D03*
X116967000Y-58379000D03*
X129790291Y-59566849D03*
X118745000Y-58379000D03*
X131191000Y-43901000D03*
X105664000Y-45552000D03*
X77391000Y-138195000D03*
X129080000Y-135147000D03*
X96187000Y-133623000D03*
X96060000Y-140227000D03*
X103807000Y-137306000D03*
X96060000Y-137433000D03*
X103299000Y-138703000D03*
X94567126Y-65069990D03*
X93853000Y-67523000D03*
X109601000Y-52537000D03*
X97409000Y-52029000D03*
X95377000Y-55585000D03*
X107061000Y-53553000D03*
X98679000Y-53807000D03*
X106553000Y-52791000D03*
X95412277Y-64979211D03*
X91313000Y-61681000D03*
X94615000Y-68031000D03*
X98171000Y-67777000D03*
D58*
X129032000Y-37043000D03*
X134620000Y-37043000D03*
X119253000Y-62189000D03*
X96647000Y-61681000D03*
X89281000Y-67523000D03*
D16*
X76835000Y-59903000D03*
X69977000Y-59395000D03*
D59*
X83945000Y-46443000D02*
X83945000Y-40599000D01*
X83693000Y-46695000D02*
X83945000Y-46443000D01*
X69215000Y-53873400D02*
X69215000Y-50759000D01*
X68707000Y-56093000D02*
X69215000Y-55585000D01*
X69215000Y-55585000D02*
X69215000Y-53873400D01*
X63627000Y-56093000D02*
X68707000Y-56093000D01*
X61976000Y-54442000D02*
X63627000Y-56093000D01*
X61976000Y-49768000D02*
X61976000Y-54442000D01*
X60833000Y-49128000D02*
X60833000Y-49750000D01*
X60833000Y-49750000D02*
X60851000Y-49768000D01*
X60851000Y-49768000D02*
X61976000Y-49768000D01*
X59230000Y-47525000D02*
X60833000Y-49128000D01*
X88646000Y-36690000D02*
X87335000Y-36690000D01*
X87335000Y-36690000D02*
X83485000Y-40540000D01*
D60*
X76885000Y-40540000D02*
X76885000Y-43951000D01*
X76885000Y-43951000D02*
X80567000Y-47633000D01*
X80567000Y-47633000D02*
X80567000Y-50800000D01*
X72175000Y-36095000D02*
X74109000Y-36095000D01*
X74109000Y-36095000D02*
X76885000Y-38871000D01*
X76885000Y-38871000D02*
X76885000Y-40540000D01*
D61*
X133299100Y-36408000D02*
X133299100Y-35146900D01*
X133299100Y-35146900D02*
X133300000Y-35146000D01*
X54419500Y-39116000D02*
X56810000Y-39116000D01*
X56810000Y-39116000D02*
X57150000Y-39456000D01*
X54419500Y-39116000D02*
X56728000Y-39116000D01*
X56728000Y-39116000D02*
X57150000Y-38694000D01*
X119777000Y-45917000D02*
X120434401Y-45259599D01*
X120434401Y-45259599D02*
X120434401Y-40510401D01*
X120434401Y-40510401D02*
X120396000Y-40472000D01*
X119507000Y-45917000D02*
X119777000Y-45917000D01*
X140081000Y-67523000D02*
X140081000Y-64713000D01*
X136779000Y-131785000D02*
X136779000Y-123403000D01*
X136779000Y-123403000D02*
X136779000Y-121117000D01*
X136779000Y-121117000D02*
X138303000Y-119593000D01*
X138303000Y-69301000D02*
X140081000Y-67523000D01*
X138303000Y-119593000D02*
X138303000Y-69301000D01*
X140081000Y-64713000D02*
X142113000Y-62681000D01*
X110109000Y-54569000D02*
X110109000Y-57900000D01*
X109868009Y-54360999D02*
X109900999Y-54360999D01*
X109900999Y-54360999D02*
X110109000Y-54569000D01*
X108960000Y-54061000D02*
X109259999Y-54360999D01*
X109259999Y-54360999D02*
X109868009Y-54360999D01*
X115443000Y-46199000D02*
X113885000Y-46199000D01*
X115760000Y-46199000D02*
X115443000Y-46199000D01*
X115443000Y-46199000D02*
X115443000Y-51521000D01*
X115443000Y-51521000D02*
X114681000Y-52283000D01*
X97917000Y-38074000D02*
X97917000Y-35773000D01*
X106553000Y-35347000D02*
X107995000Y-35347000D01*
X107995000Y-35347000D02*
X108077000Y-35265000D01*
X104013000Y-35347000D02*
X104013000Y-33847000D01*
X104013000Y-33847000D02*
X104119000Y-33741000D01*
X104119000Y-33741000D02*
X106553000Y-33741000D01*
X106553000Y-33741000D02*
X106553000Y-35347000D01*
X102743000Y-35347000D02*
X104013000Y-35347000D01*
X108585000Y-38821000D02*
X109109000Y-38821000D01*
X108331000Y-39075000D02*
X108585000Y-38821000D01*
X108331000Y-40935235D02*
X108331000Y-39075000D01*
X108335000Y-42599000D02*
X108335000Y-40939235D01*
X108335000Y-40939235D02*
X108331000Y-40935235D01*
X101711000Y-47457000D02*
X101711000Y-45695000D01*
X101711000Y-45695000D02*
X102743000Y-44663000D01*
X139319000Y-37281000D02*
X139319000Y-38313000D01*
X99441000Y-71333000D02*
X99908001Y-71800001D01*
X99908001Y-71800001D02*
X99908001Y-74276999D01*
X99908001Y-74276999D02*
X99058000Y-75127000D01*
X99058000Y-75127000D02*
X98933000Y-75127000D01*
X99441000Y-64265264D02*
X99441000Y-71333000D01*
X99075000Y-63475000D02*
X99075000Y-63899264D01*
X99075000Y-63899264D02*
X99441000Y-64265264D01*
X134253000Y-40091000D02*
X135991000Y-40091000D01*
X135991000Y-40091000D02*
X136275000Y-40375000D01*
X134253000Y-39497000D02*
X135275000Y-38475000D01*
X135275000Y-38475000D02*
X136275000Y-38475000D01*
X134253000Y-40091000D02*
X134253000Y-39497000D01*
X120523000Y-63951000D02*
X120951000Y-63951000D01*
X120951000Y-63951000D02*
X121575000Y-64575000D01*
X115867000Y-55839000D02*
X115039000Y-55839000D01*
X114675000Y-55475000D02*
X114675000Y-54475000D01*
X115039000Y-55839000D02*
X114675000Y-55475000D01*
X99075000Y-63475000D02*
X98358400Y-63475000D01*
X98358400Y-63475000D02*
X98310000Y-63426600D01*
X85011000Y-61317000D02*
X85011000Y-62903000D01*
X85011000Y-62903000D02*
X84455000Y-63459000D01*
X84455000Y-63459000D02*
X80719000Y-63459000D01*
X80719000Y-63459000D02*
X79677000Y-62417000D01*
X79677000Y-62417000D02*
X79677000Y-61317000D01*
X129763000Y-65987640D02*
X129763000Y-64825000D01*
X129763000Y-64825000D02*
X129667000Y-64729000D01*
X120523000Y-63671500D02*
X120523000Y-64157500D01*
X108835000Y-51299000D02*
X108835000Y-53936000D01*
X108835000Y-53936000D02*
X108960000Y-54061000D01*
X104235000Y-44699000D02*
X102779000Y-44699000D01*
X102779000Y-44699000D02*
X102743000Y-44663000D01*
X109093000Y-36789000D02*
X108061000Y-36789000D01*
X68120000Y-44745000D02*
X65741000Y-44745000D01*
X65741000Y-44745000D02*
X65659000Y-44663000D01*
X68120000Y-44745000D02*
X67620000Y-44745000D01*
X67620000Y-44745000D02*
X65760000Y-42885000D01*
X65760000Y-42885000D02*
X65659000Y-42885000D01*
X55219600Y-39116000D02*
X56769000Y-40665400D01*
X56769000Y-40665400D02*
X56769000Y-41615000D01*
X54419500Y-39116000D02*
X54419500Y-40535500D01*
X54419500Y-40535500D02*
X55499000Y-41615000D01*
X55219600Y-39116000D02*
X56769000Y-37566600D01*
X56769000Y-37566600D02*
X56769000Y-36281000D01*
X54419500Y-39116000D02*
X54419500Y-37360500D01*
X54419500Y-37360500D02*
X55499000Y-36281000D01*
X85011000Y-61317000D02*
X85011000Y-60617000D01*
X85011000Y-60617000D02*
X85725000Y-59903000D01*
X85011000Y-61317000D02*
X85011000Y-59951000D01*
X85011000Y-59951000D02*
X84963000Y-59903000D01*
X93980000Y-53832400D02*
X93980000Y-54950000D01*
X93980000Y-54950000D02*
X93345000Y-55585000D01*
X91059000Y-44917000D02*
X88973000Y-44917000D01*
X88973000Y-44917000D02*
X88646000Y-44590000D01*
X91059000Y-45933000D02*
X89989000Y-45933000D01*
X89989000Y-45933000D02*
X88646000Y-44590000D01*
X91059000Y-43901000D02*
X89335000Y-43901000D01*
X89335000Y-43901000D02*
X88646000Y-44590000D01*
X88646000Y-44590000D02*
X89208000Y-44590000D01*
X103759000Y-63779000D02*
X104315000Y-63779000D01*
X103045000Y-63779000D02*
X103759000Y-63779000D01*
X103759000Y-63779000D02*
X103759000Y-62633500D01*
X110109000Y-63779000D02*
X110665000Y-63779000D01*
X109395000Y-63779000D02*
X110109000Y-63779000D01*
X110109000Y-63779000D02*
X110109000Y-62633500D01*
X116459000Y-63779000D02*
X117015000Y-63779000D01*
X115745000Y-63779000D02*
X116459000Y-63779000D01*
X116459000Y-63779000D02*
X116459000Y-62633500D01*
X125603000Y-36535000D02*
X126619000Y-37551000D01*
X124587000Y-35519000D02*
X125603000Y-36535000D01*
X125603000Y-36535000D02*
X126111000Y-36027000D01*
X134253000Y-40091000D02*
X135509000Y-40091000D01*
X135509000Y-40091000D02*
X136271000Y-39329000D01*
X131668000Y-67013040D02*
X130788400Y-67013040D01*
X130788400Y-67013040D02*
X129763000Y-65987640D01*
X129750000Y-49406000D02*
X129750000Y-49826000D01*
X129750000Y-49826000D02*
X130175000Y-50251000D01*
X130175000Y-50251000D02*
X131445000Y-50251000D01*
X131445000Y-50251000D02*
X132207000Y-49489000D01*
X109109000Y-36789000D02*
X109109000Y-34757000D01*
X109109000Y-38821000D02*
X109109000Y-36789000D01*
X109097000Y-38833000D02*
X109109000Y-38821000D01*
X116967000Y-45917000D02*
X116042000Y-45917000D01*
X116042000Y-45917000D02*
X115760000Y-46199000D01*
X113885000Y-46199000D02*
X112935000Y-46199000D01*
X89789000Y-75127000D02*
X89789000Y-75927000D01*
X89789000Y-75927000D02*
X90529000Y-76667000D01*
X90529000Y-76667000D02*
X98193000Y-76667000D01*
X98193000Y-76667000D02*
X98933000Y-75927000D01*
X98933000Y-75927000D02*
X98933000Y-75127000D01*
X108347000Y-42587000D02*
X108335000Y-42599000D01*
X123571000Y-35519000D02*
X124587000Y-35519000D01*
X126619000Y-37551000D02*
X126619000Y-39091000D01*
X126619000Y-39091000D02*
X126619000Y-38291000D01*
X138557000Y-49489000D02*
X136271000Y-49489000D01*
X136271000Y-49489000D02*
X132207000Y-49489000D01*
X136250000Y-47025000D02*
X136250000Y-49468000D01*
X136250000Y-49468000D02*
X136271000Y-49489000D01*
X132250000Y-47025000D02*
X132250000Y-49446000D01*
X132250000Y-49446000D02*
X132207000Y-49489000D01*
X129667000Y-49489000D02*
X128397000Y-49489000D01*
X129750000Y-47025000D02*
X129750000Y-49406000D01*
X129750000Y-49406000D02*
X129667000Y-49489000D01*
X138750000Y-47025000D02*
X138750000Y-49296000D01*
X138750000Y-49296000D02*
X138557000Y-49489000D01*
X128397000Y-49489000D02*
X128250000Y-49342000D01*
X128250000Y-49342000D02*
X128250000Y-48072000D01*
X128250000Y-48072000D02*
X128250000Y-47025000D01*
X132250000Y-47025000D02*
X132750000Y-47025000D01*
X129750000Y-47025000D02*
X130250000Y-47025000D01*
X129250000Y-47025000D02*
X129750000Y-47025000D01*
X135250000Y-47025000D02*
X134750000Y-47025000D01*
X135750000Y-47025000D02*
X135250000Y-47025000D01*
X136250000Y-47025000D02*
X135750000Y-47025000D01*
X136750000Y-47025000D02*
X136250000Y-47025000D01*
X139250000Y-47025000D02*
X138750000Y-47025000D01*
X143500000Y-47066000D02*
X142840000Y-46406000D01*
X142840000Y-46406000D02*
X140319000Y-46406000D01*
X143500000Y-47750000D02*
X143500000Y-47066000D01*
X140269000Y-41107000D02*
X140269000Y-38106000D01*
X140269000Y-38106000D02*
X139444000Y-37281000D01*
X139444000Y-37281000D02*
X139319000Y-37281000D01*
X140319000Y-43393000D02*
X140319000Y-41157000D01*
X140319000Y-41157000D02*
X140269000Y-41107000D01*
X139250000Y-47025000D02*
X139700000Y-47025000D01*
X139700000Y-47025000D02*
X140319000Y-46406000D01*
X140319000Y-46406000D02*
X140319000Y-44318000D01*
X140319000Y-44318000D02*
X140319000Y-43393000D01*
X136271000Y-40809000D02*
X136255000Y-40825000D01*
X136255000Y-40825000D02*
X136255000Y-43393000D01*
X134253000Y-40091000D02*
X135553000Y-40091000D01*
X135553000Y-40091000D02*
X136271000Y-40809000D01*
X133299100Y-36312540D02*
X133299100Y-36408000D01*
X133299100Y-36408000D02*
X133299100Y-39137100D01*
X133299100Y-39137100D02*
X134253000Y-40091000D01*
X61976000Y-47768000D02*
X61976000Y-45872400D01*
X61976000Y-45872400D02*
X55219600Y-39116000D01*
X55219600Y-39116000D02*
X54419500Y-39116000D01*
X64262000Y-49768000D02*
X64101000Y-49768000D01*
X64101000Y-49768000D02*
X62101000Y-47768000D01*
X62101000Y-47768000D02*
X61976000Y-47768000D01*
X71501000Y-42885000D02*
X72565000Y-41821000D01*
X72565000Y-41821000D02*
X72565000Y-39995000D01*
X68680000Y-42885000D02*
X71501000Y-42885000D01*
X68120000Y-44745000D02*
X68120000Y-43445000D01*
X68120000Y-43445000D02*
X68680000Y-42885000D01*
X67945000Y-47726600D02*
X67945000Y-44920000D01*
X67945000Y-44920000D02*
X68120000Y-44745000D01*
X67945000Y-47726600D02*
X67945000Y-48981000D01*
X67945000Y-48981000D02*
X67158000Y-49768000D01*
X67158000Y-49768000D02*
X64262000Y-49768000D01*
X65766000Y-51628000D02*
X66675000Y-52537000D01*
X66675000Y-52537000D02*
X66675000Y-53873400D01*
X64262000Y-51628000D02*
X65766000Y-51628000D01*
X64262000Y-49768000D02*
X64262000Y-51628000D01*
X67945000Y-47726600D02*
X69215000Y-47726600D01*
D59*
X74803000Y-46187000D02*
X76327000Y-47711000D01*
X67875000Y-38567000D02*
X74295000Y-38567000D01*
X74295000Y-38567000D02*
X74803000Y-39075000D01*
X74803000Y-39075000D02*
X74803000Y-46187000D01*
X75057000Y-57363000D02*
X72465000Y-57363000D01*
X76327000Y-56093000D02*
X75057000Y-57363000D01*
X76327000Y-47711000D02*
X76327000Y-56093000D01*
X67875000Y-38567000D02*
X67875000Y-39075000D01*
X67875000Y-36095000D02*
X67875000Y-38567000D01*
X72263000Y-57363000D02*
X71549000Y-58077000D01*
X71549000Y-58077000D02*
X71549000Y-61317000D01*
X72465000Y-57363000D02*
X72263000Y-57363000D01*
X67875000Y-39075000D02*
X67875000Y-39900000D01*
X62420500Y-39116000D02*
X67834000Y-39116000D01*
X67834000Y-39116000D02*
X67875000Y-39075000D01*
X67875000Y-39900000D02*
X68120000Y-40145000D01*
D60*
X70485000Y-47726600D02*
X72517000Y-47726600D01*
X72517000Y-47726600D02*
X73038600Y-47726600D01*
X72565000Y-44895000D02*
X72565000Y-47678600D01*
X72565000Y-47678600D02*
X72517000Y-47726600D01*
X73038600Y-47726600D02*
X73932000Y-48620000D01*
X70485000Y-53873400D02*
X71065200Y-53873400D01*
X71065200Y-53873400D02*
X71958600Y-52980000D01*
X71958600Y-52980000D02*
X73932000Y-52980000D01*
X125250000Y-47025000D02*
X125250000Y-45181000D01*
X125250000Y-45181000D02*
X123587000Y-43518000D01*
X123587000Y-43518000D02*
X123587000Y-43393000D01*
X125750000Y-47025000D02*
X125750000Y-43556000D01*
X125750000Y-43556000D02*
X125587000Y-43393000D01*
X138250000Y-47025000D02*
X138250000Y-43462000D01*
X138250000Y-43462000D02*
X138319000Y-43393000D01*
X127651000Y-43393000D02*
X127651000Y-44268000D01*
X127651000Y-44268000D02*
X126250000Y-45669000D01*
X126250000Y-46150000D02*
X126250000Y-47025000D01*
X126250000Y-45669000D02*
X126250000Y-46150000D01*
X127889000Y-44917000D02*
X126750000Y-46056000D01*
X126750000Y-46056000D02*
X126750000Y-47025000D01*
X129002000Y-44917000D02*
X127889000Y-44917000D01*
X129651000Y-43393000D02*
X129651000Y-44268000D01*
X129651000Y-44268000D02*
X129002000Y-44917000D01*
X137033000Y-44917000D02*
X137750000Y-45634000D01*
X137750000Y-45634000D02*
X137750000Y-47025000D01*
X134904000Y-44917000D02*
X137033000Y-44917000D01*
X134255000Y-43393000D02*
X134255000Y-44268000D01*
X134255000Y-44268000D02*
X134904000Y-44917000D01*
X139573000Y-61681000D02*
X133223000Y-61681000D01*
X144145000Y-58059000D02*
X144145000Y-59141000D01*
X144145000Y-59141000D02*
X143637000Y-59649000D01*
X143637000Y-59649000D02*
X141351000Y-59649000D01*
X141351000Y-59649000D02*
X140589000Y-60411000D01*
X140589000Y-60411000D02*
X140589000Y-61173000D01*
X140081000Y-61681000D02*
X139573000Y-61681000D01*
X140589000Y-61173000D02*
X140081000Y-61681000D01*
X104375000Y-55975000D02*
X102156000Y-58194000D01*
X102156000Y-58194000D02*
X102156000Y-59119500D01*
X106326002Y-55975000D02*
X104375000Y-55975000D01*
X107835000Y-51299000D02*
X107835000Y-54466002D01*
X107835000Y-54466002D02*
X106326002Y-55975000D01*
X102156000Y-59719500D02*
X102156000Y-59119500D01*
X107835000Y-51299000D02*
X107835000Y-51824000D01*
X111335000Y-51299000D02*
X111887000Y-51851000D01*
X111335000Y-56315000D02*
X111335000Y-56515000D01*
X111887000Y-51851000D02*
X111887000Y-55763000D01*
X111887000Y-55763000D02*
X111335000Y-56315000D01*
X111335000Y-56515000D02*
X111275000Y-56575000D01*
X104975000Y-57375000D02*
X104975000Y-59725000D01*
X104975000Y-57143333D02*
X104975000Y-57375000D01*
X104971259Y-56715328D02*
X104971259Y-57139592D01*
X104971259Y-57139592D02*
X104975000Y-57143333D01*
X130750000Y-47821400D02*
X130352400Y-48219000D01*
X130750000Y-47025000D02*
X130750000Y-47821400D01*
X105263000Y-48199000D02*
X105791000Y-48727000D01*
X105263000Y-48199000D02*
X104235000Y-48199000D01*
X104255000Y-48219000D02*
X104235000Y-48199000D01*
X105835000Y-50505000D02*
X105835000Y-50207000D01*
X131250000Y-48065600D02*
X131250000Y-48160000D01*
X131250000Y-48065600D02*
X131250000Y-47025000D01*
X130556000Y-48854000D02*
X130556000Y-49235000D01*
X131250000Y-48160000D02*
X130556000Y-48854000D01*
X106299000Y-49489000D02*
X106807000Y-48981000D01*
X106299000Y-49743000D02*
X106299000Y-49489000D01*
X105835000Y-50207000D02*
X106299000Y-49743000D01*
X105835000Y-51299000D02*
X105835000Y-50505000D01*
X105835000Y-50505000D02*
X105835000Y-50399000D01*
X131250000Y-47025000D02*
X131250000Y-47652000D01*
X143383000Y-70317000D02*
X143383000Y-70571000D01*
X143383000Y-65745000D02*
X143383000Y-70317000D01*
X141859000Y-64221000D02*
X143383000Y-65745000D01*
X129413000Y-63459000D02*
X128127000Y-63459000D01*
D62*
X97790000Y-47685600D02*
X97790000Y-48901600D01*
X99060000Y-51013000D02*
X98552000Y-51521000D01*
X97790000Y-48901600D02*
X97869400Y-48981000D01*
X95885000Y-58780000D02*
X96835000Y-59730000D01*
X97869400Y-48981000D02*
X100965000Y-48981000D01*
X99279001Y-54476999D02*
X97536000Y-56220000D01*
X100965000Y-48981000D02*
X101219000Y-49235000D01*
X101219000Y-49235000D02*
X101219000Y-50505000D01*
X95885000Y-56855000D02*
X95885000Y-58780000D01*
X101219000Y-50505000D02*
X100711000Y-51013000D01*
X100711000Y-51013000D02*
X99060000Y-51013000D01*
X99279001Y-53518999D02*
X99279001Y-54476999D01*
X98552000Y-52791998D02*
X99279001Y-53518999D01*
X98552000Y-51521000D02*
X98552000Y-52791998D01*
X97536000Y-56220000D02*
X96520000Y-56220000D01*
X96520000Y-56220000D02*
X95885000Y-56855000D01*
X96835000Y-59730000D02*
X96835000Y-60030000D01*
D61*
X119507000Y-40472000D02*
X122174000Y-37805000D01*
X122174000Y-37805000D02*
X123571000Y-37805000D01*
X119507000Y-43917000D02*
X119507000Y-40472000D01*
D60*
X104235000Y-48699000D02*
X102771000Y-48699000D01*
X102771000Y-48699000D02*
X102235000Y-49235000D01*
X102235000Y-49235000D02*
X102235000Y-55458000D01*
X102235000Y-55458000D02*
X100203000Y-57490000D01*
X100203000Y-57490000D02*
X97635000Y-57490000D01*
X97635000Y-57490000D02*
X96885000Y-57490000D01*
X137287000Y-41589000D02*
X137287000Y-44155000D01*
X137287000Y-44155000D02*
X137668000Y-44536000D01*
X131999100Y-35146000D02*
X131999100Y-36312540D01*
X105001000Y-45199000D02*
X104235000Y-45199000D01*
X131999100Y-36312540D02*
X131999100Y-44201100D01*
X131999100Y-44201100D02*
X132461000Y-44663000D01*
X105283000Y-44917000D02*
X106299000Y-44917000D01*
X105001000Y-45199000D02*
X105283000Y-44917000D01*
X142113000Y-58059000D02*
X141813000Y-58059000D01*
X141813000Y-58059000D02*
X139461000Y-60411000D01*
X139461000Y-60411000D02*
X139065000Y-60411000D01*
X133223000Y-46998000D02*
X133223000Y-45044000D01*
X106287000Y-46199000D02*
X104235000Y-46199000D01*
X106287000Y-46199000D02*
X106553000Y-45933000D01*
X133223000Y-46998000D02*
X133250000Y-47025000D01*
X104247000Y-46187000D02*
X104235000Y-46199000D01*
X133985000Y-45679000D02*
X133750000Y-45914000D01*
X133750000Y-47025000D02*
X133750000Y-45914000D01*
X107057000Y-46699000D02*
X107569000Y-46187000D01*
X107057000Y-46699000D02*
X104235000Y-46699000D01*
X104239000Y-46695000D02*
X104235000Y-46699000D01*
X133750000Y-45952000D02*
X133731000Y-45933000D01*
D62*
X133144000Y-134639000D02*
X132890000Y-134893000D01*
X131175500Y-136607500D02*
X132890000Y-134893000D01*
D60*
X114172998Y-49826736D02*
X114172998Y-50251000D01*
X113835000Y-49199000D02*
X112935000Y-49199000D01*
X114172998Y-49536998D02*
X114172998Y-49826736D01*
X113835000Y-49199000D02*
X114172998Y-49536998D01*
X135509000Y-131277000D02*
X133144000Y-133642000D01*
X133144000Y-133642000D02*
X133144000Y-134639000D01*
X137287000Y-118831000D02*
X135509000Y-120609000D01*
X135509000Y-120609000D02*
X135509000Y-131277000D01*
X137287000Y-67777000D02*
X137287000Y-67523000D01*
X137287000Y-67777000D02*
X137287000Y-118831000D01*
X137287000Y-67523000D02*
X137795000Y-67015000D01*
X137795000Y-67015000D02*
X137795000Y-65745000D01*
X135509000Y-66253000D02*
X135763000Y-66507000D01*
X135763000Y-66507000D02*
X135763000Y-118069000D01*
X135763000Y-118069000D02*
X133985000Y-119847000D01*
X133985000Y-119847000D02*
X133985000Y-130515000D01*
X133985000Y-130515000D02*
X131620000Y-132880000D01*
X131620000Y-132880000D02*
X131620000Y-133750000D01*
X118491000Y-47457000D02*
X118491000Y-49489000D01*
X118491000Y-49489000D02*
X119253000Y-50251000D01*
X108851000Y-47699000D02*
X109093000Y-47457000D01*
X108851000Y-47699000D02*
X105283000Y-47699000D01*
X104235000Y-47699000D02*
X105283000Y-47699000D01*
X105283000Y-47699000D02*
X105271000Y-47699000D01*
X131750000Y-48422000D02*
X131445000Y-48854000D01*
X131750000Y-47025000D02*
X131750000Y-48422000D01*
X105283000Y-49743000D02*
X104279000Y-49743000D01*
X104279000Y-49743000D02*
X104235000Y-49699000D01*
X112935000Y-45199000D02*
X113637000Y-45199000D01*
X113637000Y-45199000D02*
X114681000Y-44155000D01*
X114681000Y-44155000D02*
X114681000Y-43647000D01*
X118491000Y-43139000D02*
X118491000Y-46187000D01*
X115967000Y-48711000D02*
X115967000Y-52283000D01*
X114681000Y-43647000D02*
X115697000Y-42631000D01*
X115967000Y-52283000D02*
X115967000Y-53045000D01*
X115697000Y-42631000D02*
X117983000Y-42631000D01*
X117983000Y-42631000D02*
X118491000Y-43139000D01*
X118491000Y-46187000D02*
X115967000Y-48711000D01*
X112935000Y-45199000D02*
X112410000Y-45199000D01*
X112141000Y-42377000D02*
X111557000Y-42377000D01*
X111557000Y-42377000D02*
X111335000Y-42599000D01*
X121793000Y-55051000D02*
X121793000Y-42377000D01*
X121285000Y-56159000D02*
X121285000Y-55559000D01*
X121285000Y-55559000D02*
X121793000Y-55051000D01*
X136271000Y-64983000D02*
X136271000Y-118323000D01*
X134493000Y-120101000D02*
X134493000Y-130769000D01*
X136271000Y-118323000D02*
X134493000Y-120101000D01*
X134493000Y-130769000D02*
X132128000Y-133134000D01*
X132128000Y-133134000D02*
X132128000Y-134004000D01*
X110335000Y-52819000D02*
X110363000Y-52847000D01*
X110363000Y-52847000D02*
X110363000Y-53299000D01*
X110335000Y-51299000D02*
X110335000Y-52819000D01*
X136896000Y-66878000D02*
X136779000Y-66761000D01*
X135001000Y-120355000D02*
X136779000Y-118577000D01*
X132636000Y-134258000D02*
X132693990Y-134200010D01*
X132693990Y-134200010D02*
X132693990Y-133330010D01*
X132693990Y-133330010D02*
X135001000Y-131023000D01*
X135001000Y-131023000D02*
X135001000Y-120355000D01*
X136779000Y-118577000D02*
X136779000Y-66995000D01*
X136779000Y-66995000D02*
X136896000Y-66878000D01*
X119507000Y-49235000D02*
X119878001Y-49606001D01*
X119878001Y-49606001D02*
X119878001Y-49860001D01*
X119878001Y-49860001D02*
X120269000Y-50251000D01*
X119507000Y-47203000D02*
X119507000Y-49235000D01*
X106807000Y-47199000D02*
X107827000Y-47199000D01*
X107827000Y-47199000D02*
X108331000Y-46695000D01*
X104235000Y-47199000D02*
X106807000Y-47199000D01*
X106807000Y-47199000D02*
X106819998Y-47199000D01*
D62*
X74760000Y-104700000D02*
X75912000Y-104700000D01*
X71247000Y-106385000D02*
X71247000Y-108417000D01*
X75311000Y-106639000D02*
X73787000Y-106639000D01*
X128905000Y-105877000D02*
X128397000Y-105369000D01*
X75912000Y-104700000D02*
X76022599Y-104810599D01*
X76022599Y-104810599D02*
X76022599Y-105927401D01*
X71247000Y-108417000D02*
X74363000Y-111533000D01*
X124238170Y-111533000D02*
X125042178Y-110728992D01*
X76022599Y-105927401D02*
X75311000Y-106639000D01*
X73787000Y-106639000D02*
X72771000Y-105623000D01*
X125042178Y-110728992D02*
X125069008Y-110728992D01*
X72771000Y-105623000D02*
X72009000Y-105623000D01*
X124841000Y-106893000D02*
X124079000Y-106131000D01*
X125069008Y-110728992D02*
X128905000Y-106893000D01*
X72009000Y-105623000D02*
X71247000Y-106385000D01*
X124079000Y-106131000D02*
X124079000Y-104921000D01*
X74363000Y-111533000D02*
X124238170Y-111533000D01*
X127381000Y-105369000D02*
X125857000Y-106893000D01*
X128905000Y-106893000D02*
X128905000Y-105877000D01*
X128397000Y-105369000D02*
X127381000Y-105369000D01*
X125857000Y-106893000D02*
X124841000Y-106893000D01*
X124079000Y-104921000D02*
X124300000Y-104700000D01*
X124300000Y-104700000D02*
X125240000Y-104700000D01*
D60*
X112935000Y-49699000D02*
X112935000Y-59109000D01*
X112935000Y-59109000D02*
X112324500Y-59719500D01*
X112324500Y-59719500D02*
X111300000Y-59719500D01*
X113875000Y-57375000D02*
X115175000Y-58675000D01*
X115175000Y-58675000D02*
X115175000Y-59725000D01*
X108335000Y-51299000D02*
X108335000Y-57142000D01*
X108335000Y-57142000D02*
X108468000Y-57275000D01*
X108335000Y-57075000D02*
X108335000Y-57142000D01*
X123794000Y-63997040D02*
X125588960Y-63997040D01*
X125588960Y-63997040D02*
X126127000Y-63459000D01*
X127127000Y-65205840D02*
X127127000Y-64584000D01*
X127127000Y-64584000D02*
X126127000Y-63584000D01*
X126127000Y-63584000D02*
X126127000Y-63459000D01*
X127223000Y-65987640D02*
X127223000Y-65301840D01*
X127223000Y-65301840D02*
X127127000Y-65205840D01*
X115951000Y-58379000D02*
X113975000Y-56403000D01*
X113699000Y-47699000D02*
X112935000Y-47699000D01*
X113975000Y-56403000D02*
X113975000Y-51975000D01*
X113975000Y-51975000D02*
X114875000Y-51075000D01*
X114875000Y-51075000D02*
X114875000Y-48875000D01*
X114875000Y-48875000D02*
X113699000Y-47699000D01*
D62*
X122524000Y-64997040D02*
X123794000Y-64997040D01*
D60*
X122524000Y-64997040D02*
X122524000Y-61142000D01*
X122524000Y-61142000D02*
X121539000Y-60157000D01*
X102164500Y-62379500D02*
X102156000Y-62371000D01*
X102156000Y-62371000D02*
X102156000Y-61619500D01*
X101775000Y-63779000D02*
X101775000Y-62769000D01*
X101775000Y-62769000D02*
X102164500Y-62379500D01*
D61*
X90675000Y-54175000D02*
X90675000Y-51949080D01*
X90675000Y-51949080D02*
X90100100Y-51374180D01*
X90100100Y-51374180D02*
X89000000Y-51374180D01*
X101075998Y-61075998D02*
X98575000Y-58575000D01*
X98575000Y-58575000D02*
X98375000Y-58575000D01*
X101075998Y-64775000D02*
X101075998Y-61075998D01*
X101727000Y-64983000D02*
X101283998Y-64983000D01*
X101283998Y-64983000D02*
X101075998Y-64775000D01*
X62103000Y-67015000D02*
X62103000Y-65237000D01*
X115209000Y-72857000D02*
X118396500Y-72857000D01*
X118396500Y-72857000D02*
X119362000Y-71891500D01*
X119362000Y-71891500D02*
X119362000Y-71591500D01*
X114239000Y-71587000D02*
X114239000Y-71887000D01*
X114239000Y-71887000D02*
X115209000Y-72857000D01*
X62103000Y-76413000D02*
X62103000Y-67015000D01*
X58547000Y-79969000D02*
X62103000Y-76413000D01*
X58547000Y-100035000D02*
X58547000Y-79969000D01*
X68120000Y-103405000D02*
X64457000Y-103405000D01*
X62865000Y-101813000D02*
X62865000Y-81747000D01*
X64457000Y-103405000D02*
X62865000Y-101813000D01*
X62865000Y-81747000D02*
X65659000Y-78953000D01*
X65659000Y-78953000D02*
X65659000Y-65237000D01*
X58547000Y-106385000D02*
X58547000Y-100035000D01*
X67437000Y-115275000D02*
X58547000Y-106385000D01*
X124587000Y-115275000D02*
X67437000Y-115275000D01*
X74760000Y-100700000D02*
X72368000Y-100700000D01*
X72368000Y-100700000D02*
X72060000Y-101008000D01*
X127432000Y-98246000D02*
X128257000Y-98246000D01*
X128257000Y-98246000D02*
X131699000Y-101688000D01*
X131699000Y-101688000D02*
X131699000Y-109941000D01*
X131699000Y-109941000D02*
X126365000Y-115275000D01*
X126365000Y-115275000D02*
X124587000Y-115275000D01*
X127432000Y-98246000D02*
X127557000Y-98246000D01*
D60*
X113411000Y-68685000D02*
X113411000Y-67015000D01*
X113411000Y-67015000D02*
X111887000Y-65491000D01*
X114475000Y-69244000D02*
X113970000Y-69244000D01*
X113970000Y-69244000D02*
X113411000Y-68685000D01*
X111887000Y-65491000D02*
X108077000Y-65491000D01*
X108077000Y-65491000D02*
X106807000Y-65491000D01*
X108125000Y-69244000D02*
X108125000Y-65539000D01*
X108125000Y-65539000D02*
X108077000Y-65491000D01*
X106299000Y-64983000D02*
X101727000Y-64983000D01*
X101727000Y-68236000D02*
X101727000Y-64983000D01*
X101775000Y-69244000D02*
X101775000Y-68284000D01*
X101775000Y-68284000D02*
X101727000Y-68236000D01*
X106807000Y-65491000D02*
X106299000Y-64983000D01*
X114475000Y-69244000D02*
X114475000Y-71351000D01*
X114475000Y-71351000D02*
X114239000Y-71587000D01*
X74295000Y-63205000D02*
X74295000Y-61365000D01*
X74295000Y-61365000D02*
X74343000Y-61317000D01*
X82423000Y-59649000D02*
X84455000Y-57617000D01*
X86804670Y-54569000D02*
X89000000Y-52373670D01*
X74343000Y-61317000D02*
X74343000Y-60267000D01*
X74343000Y-60267000D02*
X75469000Y-59141000D01*
X75469000Y-59141000D02*
X77343000Y-59141000D01*
X85471000Y-57617000D02*
X86804670Y-56283330D01*
X86804670Y-56283330D02*
X86804670Y-54569000D01*
X77343000Y-59141000D02*
X77851000Y-59649000D01*
X77851000Y-59649000D02*
X82423000Y-59649000D01*
X84455000Y-57617000D02*
X85471000Y-57617000D01*
X114160000Y-71591500D02*
X112758000Y-71591500D01*
X114475000Y-71276500D02*
X114160000Y-71591500D01*
X107556000Y-71282500D02*
X108125000Y-70713500D01*
X108125000Y-70713500D02*
X108125000Y-69244000D01*
X107556000Y-71591500D02*
X107556000Y-71282500D01*
X106154000Y-71591500D02*
X107556000Y-71591500D01*
X100952000Y-71591500D02*
X100952000Y-71291500D01*
X100952000Y-71291500D02*
X101775000Y-70468500D01*
X101775000Y-70468500D02*
X101775000Y-69244000D01*
X89000000Y-52373670D02*
X89000000Y-51374180D01*
D62*
X102997000Y-66507000D02*
X102997000Y-69196000D01*
X102997000Y-69196000D02*
X103045000Y-69244000D01*
X120846970Y-69246990D02*
X120430999Y-68831019D01*
X120430999Y-68831019D02*
X120430999Y-65615875D01*
X120430999Y-65615875D02*
X120439417Y-65607457D01*
X120846970Y-75143000D02*
X120846970Y-69246990D01*
X120846970Y-77302669D02*
X120846970Y-75143000D01*
X124333000Y-81493000D02*
X120846970Y-78006970D01*
X120846970Y-78006970D02*
X120846970Y-77302669D01*
X130175000Y-87335000D02*
X124333000Y-81493000D01*
X130175000Y-91907000D02*
X130175000Y-87335000D01*
X130175000Y-93177000D02*
X130175000Y-91907000D01*
X129570990Y-93781010D02*
X130175000Y-93177000D01*
X126619000Y-93348998D02*
X127051012Y-93781010D01*
X127051012Y-93781010D02*
X129570990Y-93781010D01*
X124841000Y-92669000D02*
X125939002Y-92669000D01*
X125939002Y-92669000D02*
X126619000Y-93348998D01*
X68120000Y-98325000D02*
X67169430Y-98325000D01*
X67169430Y-98325000D02*
X65405000Y-96560570D01*
X65405000Y-96560570D02*
X65405000Y-83779000D01*
X65405000Y-83779000D02*
X67183000Y-82001000D01*
X67183000Y-82001000D02*
X99441000Y-82001000D01*
X99441000Y-82001000D02*
X102852000Y-78590000D01*
X102852000Y-78590000D02*
X102852000Y-71591500D01*
D12*
X124675998Y-92669000D02*
X124841000Y-92669000D01*
X123571000Y-93869688D02*
X123571000Y-93773998D01*
X123571000Y-93773998D02*
X124675998Y-92669000D01*
D62*
X123571000Y-93996688D02*
X123571000Y-93869688D01*
X123842000Y-103100000D02*
X123571000Y-102829000D01*
X123571000Y-102829000D02*
X123571000Y-93996688D01*
X125240000Y-103100000D02*
X123842000Y-103100000D01*
D60*
X102852000Y-71591500D02*
X102852000Y-69437000D01*
X102852000Y-69437000D02*
X103045000Y-69244000D01*
X105537000Y-62887500D02*
X104950000Y-62300500D01*
X104950000Y-62300500D02*
X104950000Y-61619500D01*
X105537000Y-63276000D02*
X105537000Y-62887500D01*
X105585000Y-63779000D02*
X105585000Y-63324000D01*
X105585000Y-63324000D02*
X105537000Y-63276000D01*
D62*
X115697000Y-66207457D02*
X115697000Y-69196000D01*
X115697000Y-69196000D02*
X115745000Y-69244000D01*
X121246980Y-75181020D02*
X121246980Y-68176681D01*
X121246980Y-68176681D02*
X121031000Y-67960701D01*
X121031000Y-67960701D02*
X121031000Y-66207457D01*
X121246980Y-77136980D02*
X121246980Y-75181020D01*
X130683000Y-86573000D02*
X121246980Y-77136980D01*
X130683000Y-92161000D02*
X130683000Y-86573000D01*
X130683000Y-93939000D02*
X130683000Y-92161000D01*
X130322000Y-94300000D02*
X130683000Y-93939000D01*
X125240000Y-94300000D02*
X130322000Y-94300000D01*
X115745000Y-69244000D02*
X115745000Y-71193000D01*
X115745000Y-71193000D02*
X116139000Y-71587000D01*
D60*
X109093000Y-55077000D02*
X109093000Y-59395000D01*
X109093000Y-59395000D02*
X109084500Y-59395000D01*
X109084500Y-59395000D02*
X108760000Y-59719500D01*
D62*
X109347000Y-67523000D02*
X109347000Y-66761000D01*
X109347000Y-67523000D02*
X109347000Y-69196000D01*
X109347000Y-69196000D02*
X109395000Y-69244000D01*
X122047000Y-68285000D02*
X122047000Y-67523000D01*
X122047000Y-75397000D02*
X122047000Y-68285000D01*
X131953000Y-85303000D02*
X122047000Y-75397000D01*
X131953000Y-95717000D02*
X131953000Y-85303000D01*
X130683000Y-96987000D02*
X131953000Y-95717000D01*
X129921000Y-96987000D02*
X130683000Y-96987000D01*
X126693000Y-96987000D02*
X129921000Y-96987000D01*
X125240000Y-97500000D02*
X126180000Y-97500000D01*
X126180000Y-97500000D02*
X126693000Y-96987000D01*
X74676000Y-92796000D02*
X73914000Y-92796000D01*
X100457000Y-83525000D02*
X109456000Y-74526000D01*
X73914000Y-92796000D02*
X72878990Y-93831010D01*
X72878990Y-93831010D02*
X71843311Y-93831010D01*
X71843311Y-93831010D02*
X70846992Y-92834690D01*
X70846992Y-92834690D02*
X70650690Y-92834690D01*
X109456000Y-74526000D02*
X109456000Y-71591500D01*
X70650690Y-92834690D02*
X70231000Y-92415000D01*
X70231000Y-92415000D02*
X70231000Y-85303000D01*
X70231000Y-85303000D02*
X72009000Y-83525000D01*
X72009000Y-83525000D02*
X100457000Y-83525000D01*
X104267000Y-65722999D02*
X104267000Y-69196000D01*
X104267000Y-69196000D02*
X104315000Y-69244000D01*
X120446960Y-69478960D02*
X119507000Y-68539000D01*
X119507000Y-68539000D02*
X119507000Y-64983000D01*
X120446960Y-71136458D02*
X120446960Y-69478960D01*
X120446960Y-76667000D02*
X120446960Y-71136458D01*
X120446960Y-77468358D02*
X120446960Y-76667000D01*
X122047000Y-80477000D02*
X120446960Y-78876960D01*
X120446960Y-78876960D02*
X120446960Y-77468358D01*
X129413000Y-87843000D02*
X122047000Y-80477000D01*
X129413000Y-91653000D02*
X129413000Y-87843000D01*
X129413000Y-92923000D02*
X129413000Y-91653000D01*
X128905000Y-93431000D02*
X129413000Y-92923000D01*
X128143000Y-93431000D02*
X128905000Y-93431000D01*
X127195990Y-93431000D02*
X128143000Y-93431000D01*
X125603000Y-92161000D02*
X125925990Y-92161000D01*
X125925990Y-92161000D02*
X127195990Y-93431000D01*
D12*
X125349000Y-92161000D02*
X125603000Y-92161000D01*
X124759720Y-92161000D02*
X125349000Y-92161000D01*
X123108720Y-93812000D02*
X124759720Y-92161000D01*
D62*
X68120000Y-95785000D02*
X67104000Y-95785000D01*
X67104000Y-95785000D02*
X66088000Y-94769000D01*
X66088000Y-94769000D02*
X66088000Y-84874000D01*
X66088000Y-84874000D02*
X68199000Y-82763000D01*
X68199000Y-82763000D02*
X99949000Y-82763000D01*
X99949000Y-82763000D02*
X104206000Y-78506000D01*
X104206000Y-78506000D02*
X104206000Y-71587000D01*
X104315000Y-69244000D02*
X104315000Y-71478000D01*
X104315000Y-71478000D02*
X104206000Y-71587000D01*
D60*
X104254000Y-69305000D02*
X104315000Y-69244000D01*
X108346000Y-62633500D02*
X108260500Y-62633500D01*
X108260500Y-62633500D02*
X108125000Y-62769000D01*
X108125000Y-62769000D02*
X108125000Y-63779000D01*
X108760000Y-61619500D02*
X108760000Y-62219500D01*
X108760000Y-62219500D02*
X108346000Y-62633500D01*
X106335000Y-51299000D02*
X106335000Y-52120000D01*
X106335000Y-54097000D02*
X106807000Y-54569000D01*
X105918000Y-53680000D02*
X106335000Y-54097000D01*
X105918000Y-52537000D02*
X105918000Y-53680000D01*
X106335000Y-52120000D02*
X105918000Y-52537000D01*
X114950000Y-62379500D02*
X114864500Y-62379500D01*
X114864500Y-62379500D02*
X114475000Y-62769000D01*
X114475000Y-62769000D02*
X114475000Y-63779000D01*
X115110000Y-61619500D02*
X115110000Y-62219500D01*
X115110000Y-62219500D02*
X114950000Y-62379500D01*
D12*
X75541002Y-92796000D02*
X74676000Y-92796000D01*
X76300000Y-93939000D02*
X76300000Y-93554998D01*
X76300000Y-93554998D02*
X75541002Y-92796000D01*
D62*
X76300000Y-95275000D02*
X76300000Y-93939000D01*
D60*
X109395000Y-69244000D02*
X109395000Y-71530500D01*
X109395000Y-71530500D02*
X109456000Y-71591500D01*
D12*
X123063000Y-93812000D02*
X123108720Y-93812000D01*
D62*
X123063000Y-93939000D02*
X123063000Y-93812000D01*
X123372000Y-103900000D02*
X123063000Y-103591000D01*
X123063000Y-103591000D02*
X123063000Y-93939000D01*
X125240000Y-103900000D02*
X123372000Y-103900000D01*
D60*
X111887000Y-62806500D02*
X111887000Y-63731000D01*
X111887000Y-63731000D02*
X111935000Y-63779000D01*
X111300000Y-61619500D02*
X111300000Y-62219500D01*
X111300000Y-62219500D02*
X111887000Y-62806500D01*
X118237000Y-62806500D02*
X118237000Y-63731000D01*
X118237000Y-63731000D02*
X118285000Y-63779000D01*
X117650000Y-61619500D02*
X117650000Y-62219500D01*
X117650000Y-62219500D02*
X118237000Y-62806500D01*
D62*
X68639000Y-105945000D02*
X72284000Y-102300000D01*
X72284000Y-102300000D02*
X73173000Y-102300000D01*
X68120000Y-105945000D02*
X68639000Y-105945000D01*
X110617000Y-66923000D02*
X110617000Y-66253000D01*
X110617000Y-66923000D02*
X110617000Y-69196000D01*
X110617000Y-69196000D02*
X110665000Y-69244000D01*
X121646990Y-75562689D02*
X121646990Y-68010992D01*
X121646990Y-68010992D02*
X121446999Y-67811001D01*
X121446999Y-67811001D02*
X121446999Y-67049687D01*
X121446999Y-67049687D02*
X121689229Y-66807457D01*
X131445000Y-86065000D02*
X121646990Y-76266990D01*
X121646990Y-76266990D02*
X121646990Y-75562689D01*
X131445000Y-94447000D02*
X131445000Y-86065000D01*
X131445000Y-95209000D02*
X131445000Y-94447000D01*
X130429000Y-96225000D02*
X131445000Y-95209000D01*
X126889301Y-96225000D02*
X130429000Y-96225000D01*
X125240000Y-96700000D02*
X126414301Y-96700000D01*
X126414301Y-96700000D02*
X126889301Y-96225000D01*
X75057000Y-92288000D02*
X73856302Y-92288000D01*
X110858000Y-74394000D02*
X110858000Y-71591500D01*
X73856302Y-92288000D02*
X72713302Y-93431000D01*
X72713302Y-93431000D02*
X72009000Y-93431000D01*
X72009000Y-93431000D02*
X71247000Y-92669000D01*
X71247000Y-85811000D02*
X72771000Y-84287000D01*
X71247000Y-92669000D02*
X71247000Y-85811000D01*
X72771000Y-84287000D02*
X100965000Y-84287000D01*
X100965000Y-84287000D02*
X110858000Y-74394000D01*
X74760000Y-102300000D02*
X73173000Y-102300000D01*
D12*
X75457280Y-92288000D02*
X75057000Y-92288000D01*
X76700010Y-93692990D02*
X76700010Y-93530730D01*
X76700010Y-93530730D02*
X75457280Y-92288000D01*
D62*
X76700010Y-101190689D02*
X76700010Y-93692990D01*
X75713000Y-102300000D02*
X76700010Y-101312990D01*
X76700010Y-101312990D02*
X76700010Y-101190689D01*
X74760000Y-102300000D02*
X75713000Y-102300000D01*
D60*
X110858000Y-71591500D02*
X110858000Y-70691500D01*
X110858000Y-70691500D02*
X110665000Y-70498500D01*
X110665000Y-70498500D02*
X110665000Y-69244000D01*
X117221000Y-70450500D02*
X117211500Y-70450500D01*
X117211500Y-70450500D02*
X117015000Y-70254000D01*
X117015000Y-70254000D02*
X117015000Y-69244000D01*
X117462000Y-71591500D02*
X117462000Y-70691500D01*
X117462000Y-70691500D02*
X117221000Y-70450500D01*
X87437000Y-73365000D02*
X87437000Y-70931000D01*
X87437000Y-70931000D02*
X87551000Y-70817000D01*
X71567000Y-73365000D02*
X71567000Y-70835000D01*
X71567000Y-70835000D02*
X71549000Y-70817000D01*
X81473000Y-73365000D02*
X82073000Y-73365000D01*
X82217000Y-71867000D02*
X82217000Y-70817000D01*
X82073000Y-73365000D02*
X82217000Y-73221000D01*
X82217000Y-73221000D02*
X82217000Y-71867000D01*
X76901000Y-73365000D02*
X76901000Y-70835000D01*
X76901000Y-70835000D02*
X76883000Y-70817000D01*
D59*
X88975000Y-59275000D02*
X88975000Y-56900820D01*
X88975000Y-56900820D02*
X89000000Y-56875820D01*
X100375000Y-61675000D02*
X98475000Y-59775000D01*
X98475000Y-59775000D02*
X98275000Y-59775000D01*
X100375000Y-66975000D02*
X100375000Y-61675000D01*
X82169000Y-62502600D02*
X82169000Y-61365000D01*
X82169000Y-61365000D02*
X82217000Y-61317000D01*
X58801000Y-60919000D02*
X62379500Y-60919000D01*
X62379500Y-60919000D02*
X62420500Y-60960000D01*
X63373000Y-76921000D02*
X63373000Y-67015000D01*
X59817000Y-80477000D02*
X63373000Y-76921000D01*
X59817000Y-88605000D02*
X59817000Y-80477000D01*
X59817000Y-95717000D02*
X59817000Y-88605000D01*
X68120000Y-100865000D02*
X66596000Y-100865000D01*
X66596000Y-100865000D02*
X64056000Y-98325000D01*
X64056000Y-98325000D02*
X64056000Y-82334000D01*
X64056000Y-82334000D02*
X66929000Y-79461000D01*
X66929000Y-79461000D02*
X66929000Y-66761000D01*
X59817000Y-95717000D02*
X59817000Y-105369000D01*
X59817000Y-105369000D02*
X68707000Y-114259000D01*
X68707000Y-114259000D02*
X125857000Y-114259000D01*
X125857000Y-114259000D02*
X130937000Y-109179000D01*
X130937000Y-109179000D02*
X130937000Y-102826000D01*
X128357000Y-100246000D02*
X127432000Y-100246000D01*
X130937000Y-102826000D02*
X128357000Y-100246000D01*
X125240000Y-99900000D02*
X127086000Y-99900000D01*
X127086000Y-99900000D02*
X127432000Y-100246000D01*
D60*
X114681000Y-67615000D02*
X114681000Y-65999000D01*
X114681000Y-65999000D02*
X115189000Y-65491000D01*
X115189000Y-65491000D02*
X117221000Y-65491000D01*
X117221000Y-65491000D02*
X118285000Y-66555000D01*
X118285000Y-66555000D02*
X118285000Y-67761500D01*
X114589000Y-67523000D02*
X114681000Y-67615000D01*
X111887000Y-67523000D02*
X111887000Y-69196000D01*
X111887000Y-69196000D02*
X111935000Y-69244000D01*
X105585000Y-68173500D02*
X105585000Y-67729000D01*
X105585000Y-67729000D02*
X105791000Y-67523000D01*
X118285000Y-69244000D02*
X118285000Y-67761500D01*
X118285000Y-67761500D02*
X118269500Y-67777000D01*
X105585000Y-68173500D02*
X105585000Y-69244000D01*
D59*
X62461500Y-60919000D02*
X62420500Y-60960000D01*
X85979000Y-58846720D02*
X84737280Y-58846720D01*
X84737280Y-58846720D02*
X82267000Y-61317000D01*
X82267000Y-61317000D02*
X82217000Y-61317000D01*
X89000000Y-56875820D02*
X87949900Y-56875820D01*
X87949900Y-56875820D02*
X85979000Y-58846720D01*
X82217000Y-61317000D02*
X82217000Y-60871000D01*
D61*
X87551000Y-61317000D02*
X87551000Y-62367000D01*
X87551000Y-62367000D02*
X85697000Y-64221000D01*
X85697000Y-64221000D02*
X70739000Y-64221000D01*
X70739000Y-64221000D02*
X70485000Y-63967000D01*
X70485000Y-63967000D02*
X68961000Y-63967000D01*
X62357000Y-63967000D02*
X64389000Y-63967000D01*
X64389000Y-63967000D02*
X68961000Y-63967000D01*
X68120000Y-108485000D02*
X66235000Y-108485000D01*
X66235000Y-108485000D02*
X61087000Y-103337000D01*
X61087000Y-103337000D02*
X61087000Y-81239000D01*
X61087000Y-81239000D02*
X64389000Y-77937000D01*
X64389000Y-77937000D02*
X64389000Y-63967000D01*
X125240000Y-105500000D02*
X126280000Y-105500000D01*
X126280000Y-105500000D02*
X127173000Y-104607000D01*
X127173000Y-104607000D02*
X129159000Y-104607000D01*
X129159000Y-104607000D02*
X129921000Y-105369000D01*
X71755000Y-113243000D02*
X68120000Y-109608000D01*
X129921000Y-105369000D02*
X129921000Y-108925000D01*
X125603000Y-113243000D02*
X71755000Y-113243000D01*
X129921000Y-108925000D02*
X125603000Y-113243000D01*
X68120000Y-109608000D02*
X68120000Y-108485000D01*
X69977000Y-106385000D02*
X69977000Y-107678570D01*
X69977000Y-107678570D02*
X69170570Y-108485000D01*
X69170570Y-108485000D02*
X68120000Y-108485000D01*
X71501000Y-104861000D02*
X69977000Y-106385000D01*
X73081000Y-104861000D02*
X71501000Y-104861000D01*
X74760000Y-105500000D02*
X73720000Y-105500000D01*
X73720000Y-105500000D02*
X73081000Y-104861000D01*
X55976350Y-63967000D02*
X62357000Y-63967000D01*
X69009000Y-63919000D02*
X68961000Y-63967000D01*
X69009000Y-61317000D02*
X69009000Y-63919000D01*
X54419500Y-60960000D02*
X54419500Y-62410150D01*
X54419500Y-62410150D02*
X55976350Y-63967000D01*
X101219000Y-44343000D02*
X100319000Y-44343000D01*
X100319000Y-44343000D02*
X99695000Y-43719000D01*
X99695000Y-43719000D02*
X99695000Y-41615000D01*
X99695000Y-41615000D02*
X98933000Y-40853000D01*
X98933000Y-40853000D02*
X93599000Y-40853000D01*
X93599000Y-40853000D02*
X92837000Y-40091000D01*
X92837000Y-40091000D02*
X92837000Y-38074000D01*
X94075000Y-35011000D02*
X100517000Y-35011000D01*
X100517000Y-35011000D02*
X100853000Y-35347000D01*
X100853000Y-35347000D02*
X101473000Y-35347000D01*
X92837000Y-38074000D02*
X92837000Y-36249000D01*
X92837000Y-36249000D02*
X94075000Y-35011000D01*
X109335000Y-42599000D02*
X109335000Y-40611000D01*
X109335000Y-40611000D02*
X109601000Y-40345000D01*
X111633000Y-40345000D02*
X112395000Y-41107000D01*
X109601000Y-40345000D02*
X111633000Y-40345000D01*
X99711000Y-47457000D02*
X99711000Y-46171000D01*
X99711000Y-46171000D02*
X100203000Y-45679000D01*
X100203000Y-45679000D02*
X100483000Y-45679000D01*
X100483000Y-45679000D02*
X101219000Y-44943000D01*
X101219000Y-44943000D02*
X101219000Y-44343000D01*
X104235000Y-44199000D02*
X104235000Y-43824000D01*
X104058000Y-43647000D02*
X101315000Y-43647000D01*
X104235000Y-43824000D02*
X104058000Y-43647000D01*
X101315000Y-43647000D02*
X101219000Y-43743000D01*
X101219000Y-43743000D02*
X101219000Y-44343000D01*
X98370200Y-47685600D02*
X98598800Y-47457000D01*
X98598800Y-47457000D02*
X99711000Y-47457000D01*
D62*
X127250000Y-47025000D02*
X127250000Y-47900000D01*
X127250000Y-47900000D02*
X127381000Y-48031000D01*
D61*
X127381000Y-48031000D02*
X127381000Y-51521000D01*
X127381000Y-51521000D02*
X130429000Y-54569000D01*
X130429000Y-54569000D02*
X143383000Y-54569000D01*
X143383000Y-54569000D02*
X144145000Y-55331000D01*
X144145000Y-55331000D02*
X144145000Y-56159000D01*
X138557000Y-64221000D02*
X142367000Y-60411000D01*
X144653000Y-60411000D02*
X145669000Y-59395000D01*
X142367000Y-60411000D02*
X144653000Y-60411000D01*
X145669000Y-56347000D02*
X145481000Y-56159000D01*
X145669000Y-59395000D02*
X145669000Y-56347000D01*
X145481000Y-56159000D02*
X144145000Y-56159000D01*
X133126000Y-65185040D02*
X133126000Y-64572000D01*
X133126000Y-64572000D02*
X133223000Y-64475000D01*
X138557000Y-64475000D02*
X138557000Y-67269000D01*
X138557000Y-67269000D02*
X137795000Y-68031000D01*
X137795000Y-68031000D02*
X137795000Y-68793000D01*
X137795000Y-118831000D02*
X137795000Y-68793000D01*
X137795000Y-119085000D02*
X137795000Y-118831000D01*
X136017000Y-120863000D02*
X137795000Y-119085000D01*
X136017000Y-121117000D02*
X136017000Y-120863000D01*
X136017000Y-123657000D02*
X136017000Y-121117000D01*
X136017000Y-131531000D02*
X136017000Y-123657000D01*
X133985000Y-133563000D02*
X136017000Y-131531000D01*
X133985000Y-134833000D02*
X133985000Y-133563000D01*
X130683000Y-138135000D02*
X133985000Y-134833000D01*
X111887000Y-138135000D02*
X130683000Y-138135000D01*
X111633000Y-138389000D02*
X111887000Y-138135000D01*
X111125000Y-138897000D02*
X111633000Y-138389000D01*
X128473002Y-45933000D02*
X127635000Y-45933000D01*
X130175000Y-42123000D02*
X128526000Y-42123000D01*
X128526000Y-42123000D02*
X127494000Y-41091000D01*
X127494000Y-41091000D02*
X126619000Y-41091000D01*
X130476001Y-42424001D02*
X130175000Y-42123000D01*
X128473002Y-45933000D02*
X128821002Y-45933000D01*
X128821002Y-45933000D02*
X130476001Y-44278001D01*
X130476001Y-44278001D02*
X130476001Y-42424001D01*
X125349000Y-37805000D02*
X123571000Y-37805000D01*
X126619000Y-41091000D02*
X125365000Y-41091000D01*
X125365000Y-41091000D02*
X125349000Y-41107000D01*
X97790000Y-47685600D02*
X98370200Y-47685600D01*
X107359000Y-44199000D02*
X108573000Y-45413000D01*
X108573000Y-45413000D02*
X109335000Y-45413000D01*
X104235000Y-44199000D02*
X107359000Y-44199000D01*
X110621000Y-48215000D02*
X109335000Y-49501000D01*
X109335000Y-49501000D02*
X109335000Y-51299000D01*
X110621000Y-46699000D02*
X110621000Y-48215000D01*
X110621000Y-46699000D02*
X109335000Y-45413000D01*
X109335000Y-45413000D02*
X109335000Y-42599000D01*
X112935000Y-46699000D02*
X110621000Y-46699000D01*
D62*
X128709999Y-46159999D02*
X128750000Y-46200000D01*
X128750000Y-46200000D02*
X128750000Y-47025000D01*
X128473002Y-45933000D02*
X128700001Y-46159999D01*
X127250000Y-46318000D02*
X127585001Y-45982999D01*
D61*
X127250000Y-47025000D02*
X127250000Y-46572000D01*
D62*
X127250000Y-46572000D02*
X127250000Y-46318000D01*
D61*
X108585000Y-141437000D02*
X111125000Y-138897000D01*
X102235000Y-141437000D02*
X108585000Y-141437000D01*
X102410000Y-135467000D02*
X102410000Y-135262000D01*
X102410000Y-135262000D02*
X101219000Y-134071000D01*
D60*
X108835000Y-42599000D02*
X108835000Y-40349000D01*
X108835000Y-40349000D02*
X109347000Y-39837000D01*
X110109000Y-39071000D02*
X110359000Y-38821000D01*
X109347000Y-39837000D02*
X109855000Y-39837000D01*
X109855000Y-39837000D02*
X110109000Y-39583000D01*
X110109000Y-39583000D02*
X110109000Y-39071000D01*
X110359000Y-38821000D02*
X111109000Y-38821000D01*
X114447000Y-36047000D02*
X113931000Y-36047000D01*
X113931000Y-36047000D02*
X113665000Y-35781000D01*
X113665000Y-35781000D02*
X113665000Y-35031000D01*
X112935000Y-44199000D02*
X112935000Y-43824000D01*
X112935000Y-43824000D02*
X114935000Y-41824000D01*
X114935000Y-41824000D02*
X114935000Y-36535000D01*
X114935000Y-36535000D02*
X114447000Y-36047000D01*
X113685000Y-35285000D02*
X113303000Y-35285000D01*
X114065000Y-35031000D02*
X113665000Y-35031000D01*
X111109000Y-34757000D02*
X113391000Y-34757000D01*
X113391000Y-34757000D02*
X113665000Y-35031000D01*
X112935000Y-45699000D02*
X113835000Y-45699000D01*
X113835000Y-45699000D02*
X115617000Y-43917000D01*
X115617000Y-43917000D02*
X116967000Y-43917000D01*
X112935000Y-44699000D02*
X112410000Y-44699000D01*
X112410000Y-44699000D02*
X112374000Y-44663000D01*
X112374000Y-44663000D02*
X111633000Y-44663000D01*
X111633000Y-44663000D02*
X111633000Y-44155000D01*
X113665000Y-39055000D02*
X113665000Y-37531000D01*
X111633000Y-44155000D02*
X113665000Y-42123000D01*
X113665000Y-42123000D02*
X113665000Y-39055000D01*
X112923000Y-36789000D02*
X113665000Y-37531000D01*
X111109000Y-36789000D02*
X112923000Y-36789000D01*
X137287000Y-41589000D02*
X137769000Y-41107000D01*
X137769000Y-41107000D02*
X138369000Y-41107000D01*
X137250000Y-47025000D02*
X137250000Y-46150000D01*
X137250000Y-46150000D02*
X136779000Y-45679000D01*
X101219000Y-41869000D02*
X101473000Y-41615000D01*
X101473000Y-41615000D02*
X105029000Y-41615000D01*
X105029000Y-41615000D02*
X105283000Y-41361000D01*
X105283000Y-41361000D02*
X106553000Y-41361000D01*
X95377000Y-38074000D02*
X95377000Y-39149000D01*
X95377000Y-39149000D02*
X96573000Y-40345000D01*
X101219000Y-41869000D02*
X101219000Y-42443000D01*
X96573000Y-40345000D02*
X99695000Y-40345000D01*
X99695000Y-40345000D02*
X101219000Y-41869000D01*
X107315000Y-41361000D02*
X106553000Y-41361000D01*
X106553000Y-39247000D02*
X106553000Y-41361000D01*
X107335000Y-42599000D02*
X107335000Y-41381000D01*
X107335000Y-41381000D02*
X107315000Y-41361000D01*
X107335000Y-42599000D02*
X107335000Y-43413000D01*
X147050000Y-47750000D02*
X142439000Y-43139000D01*
X147050000Y-47750000D02*
X148000000Y-47750000D01*
X142439000Y-43139000D02*
X141859000Y-43139000D01*
X107696000Y-43774000D02*
X108331000Y-43774000D01*
X107335000Y-43413000D02*
X107696000Y-43774000D01*
X94107000Y-41869000D02*
X94092000Y-41869000D01*
X94092000Y-41869000D02*
X92837000Y-43124000D01*
X110419000Y-41615000D02*
X110617000Y-41615000D01*
X110617000Y-41615000D02*
X111125000Y-41107000D01*
X110335000Y-42599000D02*
X110335000Y-41699000D01*
X110335000Y-41699000D02*
X110419000Y-41615000D01*
X101473000Y-40736000D02*
X101473000Y-39247000D01*
X96647000Y-41869000D02*
X96632000Y-41869000D01*
X96632000Y-41869000D02*
X95377000Y-43124000D01*
X102743000Y-40736000D02*
X102743000Y-39247000D01*
X109835000Y-42599000D02*
X109835000Y-41244000D01*
X109835000Y-41244000D02*
X110109000Y-40970000D01*
X64262000Y-47768000D02*
X66633600Y-47768000D01*
X66633600Y-47768000D02*
X66675000Y-47726600D01*
X102997000Y-54061000D02*
X102997000Y-49537000D01*
X102997000Y-49537000D02*
X103335000Y-49199000D01*
X103335000Y-49199000D02*
X104235000Y-49199000D01*
X104267000Y-55331000D02*
X102997000Y-54061000D01*
X142113000Y-56159000D02*
X140147000Y-56159000D01*
X140147000Y-56159000D02*
X140081000Y-56093000D01*
X80137000Y-58379000D02*
X82169000Y-58379000D01*
X82169000Y-58379000D02*
X83693000Y-56855000D01*
X92710000Y-49108000D02*
X96520000Y-49108000D01*
X83693000Y-56855000D02*
X84709000Y-56855000D01*
X84709000Y-56855000D02*
X86233000Y-55331000D01*
X86233000Y-55331000D02*
X86233000Y-53553000D01*
X92329000Y-48727000D02*
X92710000Y-49108000D01*
X86233000Y-53553000D02*
X86995000Y-52791000D01*
X87757000Y-48727000D02*
X92329000Y-48727000D01*
X86995000Y-52791000D02*
X86995000Y-49489000D01*
X86995000Y-49489000D02*
X87757000Y-48727000D01*
X97475000Y-50063000D02*
X96520000Y-49108000D01*
X96520000Y-49108000D02*
X96520000Y-47685600D01*
X99949000Y-50063000D02*
X97475000Y-50063000D01*
X64262000Y-53528000D02*
X64262000Y-54188000D01*
X64262000Y-54188000D02*
X64897000Y-54823000D01*
X78665000Y-57363000D02*
X79415000Y-57363000D01*
X83185000Y-55839000D02*
X84201000Y-55839000D01*
X79415000Y-57363000D02*
X79669000Y-57109000D01*
X79669000Y-57109000D02*
X81915000Y-57109000D01*
X84201000Y-55839000D02*
X85217000Y-54823000D01*
X81915000Y-57109000D02*
X83185000Y-55839000D01*
X85217000Y-54823000D02*
X85217000Y-49235000D01*
X85217000Y-49235000D02*
X86766400Y-47685600D01*
X86766400Y-47685600D02*
X93980000Y-47685600D01*
X93980000Y-47685600D02*
X95250000Y-47685600D01*
X77343000Y-57363000D02*
X78665000Y-57363000D01*
X67945000Y-53873400D02*
X67945000Y-52029000D01*
X124307000Y-61681000D02*
X128143000Y-61681000D01*
X121285000Y-58059000D02*
X121285000Y-58659000D01*
X121285000Y-58659000D02*
X124307000Y-61681000D01*
X117967000Y-53045000D02*
X117967000Y-53170000D01*
X117967000Y-53170000D02*
X116248000Y-54889000D01*
X116248000Y-54889000D02*
X115867000Y-54889000D01*
X110871000Y-50114000D02*
X110871000Y-51263000D01*
X110871000Y-51263000D02*
X110835000Y-51299000D01*
X99949000Y-51963000D02*
X101031000Y-51963000D01*
X101031000Y-51963000D02*
X101473000Y-51521000D01*
X76265000Y-129539000D02*
X79669000Y-129539000D01*
X79669000Y-129539000D02*
X81153000Y-131023000D01*
X81153000Y-131023000D02*
X131953000Y-131023000D01*
X131953000Y-131023000D02*
X132969000Y-130007000D01*
X134747000Y-117561000D02*
X134747000Y-68285000D01*
X132969000Y-130007000D02*
X132969000Y-119339000D01*
X132969000Y-119339000D02*
X134747000Y-117561000D01*
X133985000Y-67523000D02*
X133985000Y-64221000D01*
X133985000Y-64221000D02*
X132715000Y-62951000D01*
X132715000Y-62951000D02*
X130429000Y-62951000D01*
X134747000Y-68285000D02*
X133985000Y-67523000D01*
X130429000Y-62951000D02*
X129159000Y-61681000D01*
X129159000Y-61681000D02*
X129159000Y-60157000D01*
X115867000Y-56789000D02*
X115867000Y-57279000D01*
X115867000Y-57279000D02*
X116967000Y-58379000D01*
X132843410Y-62443000D02*
X134747000Y-64346590D01*
X134747000Y-67015000D02*
X134747000Y-64346590D01*
X135255000Y-67523000D02*
X135255000Y-117815000D01*
X135255000Y-67523000D02*
X134747000Y-67015000D01*
X129790291Y-59566849D02*
X129790291Y-61459293D01*
X129790291Y-61459293D02*
X130773998Y-62443000D01*
X81265000Y-132039000D02*
X78765000Y-134539000D01*
X130773998Y-62443000D02*
X132843410Y-62443000D01*
X135255000Y-117815000D02*
X133477000Y-119593000D01*
X133477000Y-119593000D02*
X133477000Y-130261000D01*
X133477000Y-130261000D02*
X131699000Y-132039000D01*
X131699000Y-132039000D02*
X81265000Y-132039000D01*
X78765000Y-134539000D02*
X76265000Y-134539000D01*
X118067000Y-56789000D02*
X118067000Y-57701000D01*
X118067000Y-57701000D02*
X118745000Y-58379000D01*
X131349100Y-35146900D02*
X131349100Y-36312540D01*
X105517000Y-45699000D02*
X104235000Y-45699000D01*
X131349100Y-43742900D02*
X131191000Y-43901000D01*
X131349100Y-36312540D02*
X131349100Y-43742900D01*
X105517000Y-45699000D02*
X105664000Y-45552000D01*
X131349100Y-35146900D02*
X131350000Y-35146000D01*
X91960000Y-69573400D02*
X91960000Y-72176000D01*
X91960000Y-72176000D02*
X91533000Y-72603000D01*
X97040000Y-69573400D02*
X97040000Y-72454000D01*
X97040000Y-72454000D02*
X97189000Y-72603000D01*
X98933000Y-73111000D02*
X98425000Y-72603000D01*
X98425000Y-72603000D02*
X97189000Y-72603000D01*
X98933000Y-73127000D02*
X98933000Y-73111000D01*
X97089000Y-74889000D02*
X97089000Y-72703000D01*
X97089000Y-72703000D02*
X97189000Y-72603000D01*
X91633000Y-74889000D02*
X91633000Y-73751000D01*
X91633000Y-73751000D02*
X91009000Y-73127000D01*
X89789000Y-73127000D02*
X91009000Y-73127000D01*
X91009000Y-73127000D02*
X91533000Y-72603000D01*
D62*
X72500000Y-92432000D02*
X73672000Y-91260000D01*
X73672000Y-91260000D02*
X74434000Y-91260000D01*
X72500000Y-92625000D02*
X72500000Y-92432000D01*
X76800000Y-91260000D02*
X74434000Y-91260000D01*
X79200000Y-91260000D02*
X79200000Y-92450000D01*
X79200000Y-92450000D02*
X79375000Y-92625000D01*
X77600000Y-91260000D02*
X77600000Y-92200000D01*
X77600000Y-92200000D02*
X77175000Y-92625000D01*
X77175000Y-92625000D02*
X77052658Y-92625000D01*
X77052658Y-92625000D02*
X76625000Y-92625000D01*
X78000000Y-95375000D02*
X78000000Y-93536000D01*
X78000000Y-93536000D02*
X78400000Y-93136000D01*
X78400000Y-93136000D02*
X78400000Y-91260000D01*
X78400000Y-91260000D02*
X78400000Y-90275000D01*
X78400000Y-90275000D02*
X78000000Y-89875000D01*
X78400000Y-107740000D02*
X78400000Y-108725000D01*
X78400000Y-108725000D02*
X78000000Y-109125000D01*
X78400000Y-107740000D02*
X78400000Y-104025000D01*
X78400000Y-104025000D02*
X78000000Y-103625000D01*
X76625000Y-106375000D02*
X77175000Y-106375000D01*
X77175000Y-106375000D02*
X77600000Y-106800000D01*
X77600000Y-106800000D02*
X77600000Y-107740000D01*
X79200000Y-107740000D02*
X79200000Y-106550000D01*
X79200000Y-106550000D02*
X79375000Y-106375000D01*
X76800000Y-107740000D02*
X73865000Y-107740000D01*
X73865000Y-107740000D02*
X72500000Y-106375000D01*
X81600000Y-91350000D02*
X81600000Y-90400000D01*
X81600000Y-90400000D02*
X82125000Y-89875000D01*
X84800000Y-91350000D02*
X84800000Y-89950000D01*
X84800000Y-89950000D02*
X84875000Y-89875000D01*
X87200000Y-91350000D02*
X87200000Y-90300000D01*
X87200000Y-90300000D02*
X87625000Y-89875000D01*
X90400000Y-91350000D02*
X90400000Y-89900000D01*
X90400000Y-89900000D02*
X90375000Y-89875000D01*
X92800000Y-91350000D02*
X92800000Y-90200000D01*
X92800000Y-90200000D02*
X93125000Y-89875000D01*
X95875000Y-89875000D02*
X95963000Y-89875000D01*
X95963000Y-89875000D02*
X96444000Y-90356000D01*
X96444000Y-90356000D02*
X96444000Y-91372000D01*
X96444000Y-91372000D02*
X97150000Y-92078000D01*
X97150000Y-92078000D02*
X97150000Y-93500000D01*
X98625000Y-90505000D02*
X98625000Y-89875000D01*
X98190000Y-97500000D02*
X97150000Y-97500000D01*
X98730000Y-96960000D02*
X98190000Y-97500000D01*
X98730000Y-96452000D02*
X98730000Y-96960000D01*
X99492000Y-95690000D02*
X98730000Y-96452000D01*
X99492000Y-91372000D02*
X99492000Y-95690000D01*
X98625000Y-90505000D02*
X99492000Y-91372000D01*
X82400000Y-91350000D02*
X82400000Y-92350000D01*
X82400000Y-92350000D02*
X82125000Y-92625000D01*
X84000000Y-91350000D02*
X84000000Y-92136000D01*
X84489000Y-92625000D02*
X84875000Y-92625000D01*
X84000000Y-92136000D02*
X84489000Y-92625000D01*
X98625000Y-107987000D02*
X98625000Y-109125000D01*
X88000000Y-91350000D02*
X88000000Y-92250000D01*
X88000000Y-92250000D02*
X87625000Y-92625000D01*
X91200000Y-91350000D02*
X91200000Y-92298000D01*
X90873000Y-92625000D02*
X90375000Y-92625000D01*
X91200000Y-92298000D02*
X90873000Y-92625000D01*
X93600000Y-91350000D02*
X93600000Y-92150000D01*
X93600000Y-92150000D02*
X93125000Y-92625000D01*
X95875000Y-92625000D02*
X95875000Y-94227000D01*
X95930000Y-96700000D02*
X97150000Y-96700000D01*
X95174000Y-95944000D02*
X95930000Y-96700000D01*
X95174000Y-94928000D02*
X95174000Y-95944000D01*
X95875000Y-94227000D02*
X95174000Y-94928000D01*
X98625000Y-92625000D02*
X98625000Y-93763000D01*
X98088000Y-94300000D02*
X97150000Y-94300000D01*
X98625000Y-93763000D02*
X98088000Y-94300000D01*
X80800000Y-91350000D02*
X80800000Y-94050000D01*
X80800000Y-94050000D02*
X82125000Y-95375000D01*
X85600000Y-91350000D02*
X85600000Y-94650000D01*
X85600000Y-94650000D02*
X84875000Y-95375000D01*
X88800000Y-91350000D02*
X88800000Y-94200000D01*
X88800000Y-94200000D02*
X87625000Y-95375000D01*
X92000000Y-91350000D02*
X92000000Y-93750000D01*
X92000000Y-93750000D02*
X90375000Y-95375000D01*
X94400000Y-91350000D02*
X94400000Y-94100000D01*
X94400000Y-94100000D02*
X93125000Y-95375000D01*
X95875000Y-95375000D02*
X95875000Y-95629000D01*
X95875000Y-95629000D02*
X96146000Y-95900000D01*
X96146000Y-95900000D02*
X97150000Y-95900000D01*
X98625000Y-95375000D02*
X98625000Y-95331000D01*
X98625000Y-95331000D02*
X98394000Y-95100000D01*
X98394000Y-95100000D02*
X97150000Y-95100000D01*
X80000000Y-91350000D02*
X80000000Y-92200000D01*
X80188000Y-96188000D02*
X82125000Y-98125000D01*
X80188000Y-92388000D02*
X80188000Y-96188000D01*
X80000000Y-92200000D02*
X80188000Y-92388000D01*
X83200000Y-91350000D02*
X83200000Y-96450000D01*
X83200000Y-96450000D02*
X84875000Y-98125000D01*
X86400000Y-91350000D02*
X86400000Y-96900000D01*
X86400000Y-96900000D02*
X87625000Y-98125000D01*
X89600000Y-91350000D02*
X89600000Y-97350000D01*
X89600000Y-97350000D02*
X90375000Y-98125000D01*
X95200000Y-91350000D02*
X95200000Y-94140000D01*
X94666000Y-96584000D02*
X93125000Y-98125000D01*
X94666000Y-94674000D02*
X94666000Y-96584000D01*
X95200000Y-94140000D02*
X94666000Y-94674000D01*
X95875000Y-98125000D02*
X95875000Y-98677000D01*
X96298000Y-99100000D02*
X97150000Y-99100000D01*
X95875000Y-98677000D02*
X96298000Y-99100000D01*
X98625000Y-98125000D02*
X98327000Y-98125000D01*
X98327000Y-98125000D02*
X98152000Y-98300000D01*
X98152000Y-98300000D02*
X97150000Y-98300000D01*
X80000000Y-107650000D02*
X80000000Y-106757998D01*
X80188000Y-102812000D02*
X82125000Y-100875000D01*
X80188000Y-106569998D02*
X80188000Y-102812000D01*
X80000000Y-106757998D02*
X80188000Y-106569998D01*
X83200000Y-107650000D02*
X83200000Y-102550000D01*
X83200000Y-102550000D02*
X84875000Y-100875000D01*
X86400000Y-107650000D02*
X86400000Y-102100000D01*
X86400000Y-102100000D02*
X87625000Y-100875000D01*
X89600000Y-107650000D02*
X89600000Y-101650000D01*
X89600000Y-101650000D02*
X90375000Y-100875000D01*
X95200000Y-107650000D02*
X95200000Y-104860000D01*
X94666000Y-102416000D02*
X93125000Y-100875000D01*
X94666000Y-104326000D02*
X94666000Y-102416000D01*
X95200000Y-104860000D02*
X94666000Y-104326000D01*
X95875000Y-100875000D02*
X95875000Y-100323000D01*
X96298000Y-99900000D02*
X97150000Y-99900000D01*
X95875000Y-100323000D02*
X96298000Y-99900000D01*
X98625000Y-100875000D02*
X98327000Y-100875000D01*
X98327000Y-100875000D02*
X98152000Y-100700000D01*
X98152000Y-100700000D02*
X97150000Y-100700000D01*
X80800000Y-107650000D02*
X80800000Y-104950000D01*
X80800000Y-104950000D02*
X82125000Y-103625000D01*
X85600000Y-107650000D02*
X85600000Y-104350000D01*
X85600000Y-104350000D02*
X84875000Y-103625000D01*
X88800000Y-107650000D02*
X88800000Y-104800000D01*
X88800000Y-104800000D02*
X87625000Y-103625000D01*
X92000000Y-107650000D02*
X92000000Y-105250000D01*
X92000000Y-105250000D02*
X90375000Y-103625000D01*
X94400000Y-107650000D02*
X94400000Y-104900000D01*
X94400000Y-104900000D02*
X93125000Y-103625000D01*
X95875000Y-103625000D02*
X95997000Y-103625000D01*
X95997000Y-103625000D02*
X96272000Y-103900000D01*
X96272000Y-103900000D02*
X97150000Y-103900000D01*
X98625000Y-103625000D02*
X98625000Y-103459000D01*
X98625000Y-103459000D02*
X98266000Y-103100000D01*
X98266000Y-103100000D02*
X97150000Y-103100000D01*
X82400000Y-107650000D02*
X82400000Y-106650000D01*
X82400000Y-106650000D02*
X82125000Y-106375000D01*
X84000000Y-107650000D02*
X84000000Y-106864000D01*
X84489000Y-106375000D02*
X84875000Y-106375000D01*
X84000000Y-106864000D02*
X84489000Y-106375000D01*
X87625000Y-106375000D02*
X87825000Y-106375000D01*
X87825000Y-106375000D02*
X88000000Y-106550000D01*
X88000000Y-106550000D02*
X88000000Y-107650000D01*
X91200000Y-107650000D02*
X91200000Y-106702000D01*
X90873000Y-106375000D02*
X90375000Y-106375000D01*
X91200000Y-106702000D02*
X90873000Y-106375000D01*
X93600000Y-107650000D02*
X93600000Y-106850000D01*
X93600000Y-106850000D02*
X93125000Y-106375000D01*
X95875000Y-106375000D02*
X95875000Y-104773000D01*
X95930000Y-102300000D02*
X97150000Y-102300000D01*
X95174000Y-103056000D02*
X95930000Y-102300000D01*
X95174000Y-104072000D02*
X95174000Y-103056000D01*
X95875000Y-104773000D02*
X95174000Y-104072000D01*
X98625000Y-106375000D02*
X98625000Y-105237000D01*
X98088000Y-104700000D02*
X97150000Y-104700000D01*
X98625000Y-105237000D02*
X98088000Y-104700000D01*
X81600000Y-107650000D02*
X81600000Y-108600000D01*
X81600000Y-108600000D02*
X82125000Y-109125000D01*
X84800000Y-107650000D02*
X84800000Y-109050000D01*
X84800000Y-109050000D02*
X84875000Y-109125000D01*
X87625000Y-109125000D02*
X87625000Y-108969000D01*
X87625000Y-108969000D02*
X87200000Y-108544000D01*
X87200000Y-108544000D02*
X87200000Y-107650000D01*
X90400000Y-107650000D02*
X90400000Y-109100000D01*
X90400000Y-109100000D02*
X90375000Y-109125000D01*
X92800000Y-107650000D02*
X92800000Y-108800000D01*
X92800000Y-108800000D02*
X93125000Y-109125000D01*
X95875000Y-109125000D02*
X95963000Y-109125000D01*
X95963000Y-109125000D02*
X96444000Y-108644000D01*
X96444000Y-108644000D02*
X96444000Y-107501000D01*
X96444000Y-107501000D02*
X97150000Y-106795000D01*
X97150000Y-106795000D02*
X97150000Y-105500000D01*
X97936000Y-101500000D02*
X97150000Y-101500000D01*
X98476000Y-102040000D02*
X97936000Y-101500000D01*
X98476000Y-102294000D02*
X98476000Y-102040000D01*
X99492000Y-103310000D02*
X98476000Y-102294000D01*
X99492000Y-107120000D02*
X99492000Y-103310000D01*
X98625000Y-107987000D02*
X99492000Y-107120000D01*
X74760000Y-101500000D02*
X75825000Y-101500000D01*
X76300000Y-101025000D02*
X76300000Y-95275000D01*
X75825000Y-101500000D02*
X76300000Y-101025000D01*
D59*
X74850000Y-99100000D02*
X72152000Y-99100000D01*
D61*
X129763000Y-65987640D02*
X129763000Y-65124040D01*
X131668000Y-68365040D02*
X131668000Y-67013040D01*
D59*
X72060000Y-99008000D02*
X70993000Y-99008000D01*
X70993000Y-99008000D02*
X69136000Y-100865000D01*
X69136000Y-100865000D02*
X68120000Y-100865000D01*
X72152000Y-99100000D02*
X72044000Y-98992000D01*
X125150000Y-100700000D02*
X125150000Y-99900000D01*
X125150000Y-99900000D02*
X125150000Y-99100000D01*
X74850000Y-98300000D02*
X74850000Y-99100000D01*
X74850000Y-99100000D02*
X74850000Y-99900000D01*
D61*
X125270000Y-105530000D02*
X125240000Y-105500000D01*
D62*
X101375000Y-90525000D02*
X101375000Y-89875000D01*
X101375000Y-108075000D02*
X101375000Y-109125000D01*
X101375000Y-108075000D02*
X101385000Y-108075000D01*
X123200000Y-91260000D02*
X126226000Y-91260000D01*
X127500000Y-92534000D02*
X127500000Y-92625000D01*
X126226000Y-91260000D02*
X127500000Y-92534000D01*
X120800000Y-91260000D02*
X120800000Y-92450000D01*
X120800000Y-92450000D02*
X120625000Y-92625000D01*
X122400000Y-91260000D02*
X122400000Y-92200000D01*
X122400000Y-92200000D02*
X122825000Y-92625000D01*
X122825000Y-92625000D02*
X123375000Y-92625000D01*
X121600000Y-91260000D02*
X121600000Y-94975000D01*
X121600000Y-94975000D02*
X122000000Y-95375000D01*
X121600000Y-91260000D02*
X121600000Y-90275000D01*
X121600000Y-90275000D02*
X122000000Y-89875000D01*
X121600000Y-107740000D02*
X121600000Y-108725000D01*
X121600000Y-108725000D02*
X122000000Y-109125000D01*
X121600000Y-107740000D02*
X121600000Y-104025000D01*
X121600000Y-104025000D02*
X122000000Y-103625000D01*
X122947342Y-106375000D02*
X123375000Y-106375000D01*
X122400000Y-107740000D02*
X122400000Y-106800000D01*
X122400000Y-106800000D02*
X122825000Y-106375000D01*
X122825000Y-106375000D02*
X122947342Y-106375000D01*
X120800000Y-107740000D02*
X120800000Y-106550000D01*
X120800000Y-106550000D02*
X120625000Y-106375000D01*
X123200000Y-107740000D02*
X126026000Y-107740000D01*
X126026000Y-107740000D02*
X127391000Y-106375000D01*
X127391000Y-106375000D02*
X127500000Y-106375000D01*
X120000000Y-107650000D02*
X120000000Y-104500000D01*
X119200000Y-102200000D02*
X117875000Y-100875000D01*
X119200000Y-103700000D02*
X119200000Y-102200000D01*
X120000000Y-104500000D02*
X119200000Y-103700000D01*
X119200000Y-107650000D02*
X119200000Y-104950000D01*
X119200000Y-104950000D02*
X117875000Y-103625000D01*
X117875000Y-109125000D02*
X117975000Y-109125000D01*
X117975000Y-109125000D02*
X118400000Y-108700000D01*
X118400000Y-108700000D02*
X118400000Y-107650000D01*
X117600000Y-107650000D02*
X117600000Y-106650000D01*
X117600000Y-106650000D02*
X117875000Y-106375000D01*
X116800000Y-107650000D02*
X116800000Y-102550000D01*
X116800000Y-102550000D02*
X115125000Y-100875000D01*
X116000000Y-107650000D02*
X116000000Y-106700000D01*
X115675000Y-106375000D02*
X115125000Y-106375000D01*
X116000000Y-106700000D02*
X115675000Y-106375000D01*
X115200000Y-107650000D02*
X115200000Y-109050000D01*
X115200000Y-109050000D02*
X115125000Y-109125000D01*
X114400000Y-107650000D02*
X114400000Y-104350000D01*
X114400000Y-104350000D02*
X115125000Y-103625000D01*
X113600000Y-107650000D02*
X113600000Y-102100000D01*
X113600000Y-102100000D02*
X112375000Y-100875000D01*
X112375000Y-109125000D02*
X112575000Y-109125000D01*
X112575000Y-109125000D02*
X112800000Y-108900000D01*
X112800000Y-108900000D02*
X112800000Y-107650000D01*
X112000000Y-107650000D02*
X112000000Y-106750000D01*
X112000000Y-106750000D02*
X112375000Y-106375000D01*
X111200000Y-107650000D02*
X111200000Y-104800000D01*
X111200000Y-104800000D02*
X112375000Y-103625000D01*
X110400000Y-107650000D02*
X110400000Y-101650000D01*
X110400000Y-101650000D02*
X109625000Y-100875000D01*
X109600000Y-107650000D02*
X109600000Y-109100000D01*
X109600000Y-109100000D02*
X109625000Y-109125000D01*
X108800000Y-107650000D02*
X108800000Y-106700000D01*
X109125000Y-106375000D02*
X109625000Y-106375000D01*
X108800000Y-106700000D02*
X109125000Y-106375000D01*
X108000000Y-107650000D02*
X108000000Y-105250000D01*
X108000000Y-105250000D02*
X109625000Y-103625000D01*
X106875000Y-109125000D02*
X106975000Y-109125000D01*
X106975000Y-109125000D02*
X107200000Y-108900000D01*
X107200000Y-108900000D02*
X107200000Y-107650000D01*
X106400000Y-107650000D02*
X106400000Y-106850000D01*
X106400000Y-106850000D02*
X106875000Y-106375000D01*
X105600000Y-107650000D02*
X105600000Y-104900000D01*
X105600000Y-104900000D02*
X106875000Y-103625000D01*
X104800000Y-107650000D02*
X104800000Y-104700000D01*
X105400000Y-102350000D02*
X106875000Y-100875000D01*
X105400000Y-104100000D02*
X105400000Y-102350000D01*
X104800000Y-104700000D02*
X105400000Y-104100000D01*
X104125000Y-109125000D02*
X104125000Y-109086000D01*
X104125000Y-109086000D02*
X103556000Y-108517000D01*
X103556000Y-108517000D02*
X103556000Y-107628000D01*
X103556000Y-107628000D02*
X102850000Y-106922000D01*
X102850000Y-106922000D02*
X102850000Y-105500000D01*
X101375000Y-106375000D02*
X101375000Y-105375000D01*
X102050000Y-104700000D02*
X102850000Y-104700000D01*
X101375000Y-105375000D02*
X102050000Y-104700000D01*
X101375000Y-103625000D02*
X101375000Y-103875000D01*
X101375000Y-103875000D02*
X101400000Y-103900000D01*
X101400000Y-103900000D02*
X102850000Y-103900000D01*
X104125000Y-103625000D02*
X104125000Y-103425000D01*
X104125000Y-103425000D02*
X103800000Y-103100000D01*
X103800000Y-103100000D02*
X102850000Y-103100000D01*
X104125000Y-106375000D02*
X104125000Y-104657000D01*
X104262000Y-102300000D02*
X102850000Y-102300000D01*
X104864000Y-102902000D02*
X104262000Y-102300000D01*
X104864000Y-103918000D02*
X104864000Y-102902000D01*
X104125000Y-104657000D02*
X104864000Y-103918000D01*
X102850000Y-101500000D02*
X102000000Y-101500000D01*
X101375000Y-108075000D02*
X100400000Y-107100000D01*
X100400000Y-107100000D02*
X100400000Y-103500000D01*
X100400000Y-103500000D02*
X101600000Y-102300000D01*
X101600000Y-102300000D02*
X101600000Y-101900000D01*
X101600000Y-101900000D02*
X102000000Y-101500000D01*
X101375000Y-100875000D02*
X101625000Y-100875000D01*
X101625000Y-100875000D02*
X101800000Y-100700000D01*
X101800000Y-100700000D02*
X102850000Y-100700000D01*
X102850000Y-99900000D02*
X103800000Y-99900000D01*
X104125000Y-100225000D02*
X104125000Y-100875000D01*
X103800000Y-99900000D02*
X104125000Y-100225000D01*
X102850000Y-99100000D02*
X103600000Y-99100000D01*
X104125000Y-98575000D02*
X104125000Y-98125000D01*
X103600000Y-99100000D02*
X104125000Y-98575000D01*
X102850000Y-98300000D02*
X101550000Y-98300000D01*
X101550000Y-98300000D02*
X101375000Y-98125000D01*
X101800000Y-97500000D02*
X102850000Y-97500000D01*
X101400000Y-97100000D02*
X101800000Y-97500000D01*
X101400000Y-96500000D02*
X101400000Y-97100000D01*
X100400000Y-95500000D02*
X101400000Y-96500000D01*
X100400000Y-91500000D02*
X100400000Y-95500000D01*
X101375000Y-90525000D02*
X100400000Y-91500000D01*
X102850000Y-96700000D02*
X104208000Y-96700000D01*
X104125000Y-94289000D02*
X104125000Y-92625000D01*
X104864000Y-95028000D02*
X104125000Y-94289000D01*
X104864000Y-96044000D02*
X104864000Y-95028000D01*
X104208000Y-96700000D02*
X104864000Y-96044000D01*
X102850000Y-95900000D02*
X101600000Y-95900000D01*
X101600000Y-95900000D02*
X101375000Y-95675000D01*
X101375000Y-95675000D02*
X101375000Y-95375000D01*
X104125000Y-95375000D02*
X104075000Y-95375000D01*
X104075000Y-95375000D02*
X103800000Y-95100000D01*
X103800000Y-95100000D02*
X102850000Y-95100000D01*
X102850000Y-94300000D02*
X102000000Y-94300000D01*
X101375000Y-93675000D02*
X101375000Y-92625000D01*
X102000000Y-94300000D02*
X101375000Y-93675000D01*
X104125000Y-89875000D02*
X104125000Y-90041000D01*
X104125000Y-90041000D02*
X103556000Y-90610000D01*
X103556000Y-90610000D02*
X103556000Y-91499000D01*
X103556000Y-91499000D02*
X102850000Y-92205000D01*
X102850000Y-92205000D02*
X102850000Y-93500000D01*
X104800000Y-91350000D02*
X104800000Y-94140000D01*
X106350000Y-97600000D02*
X106875000Y-98125000D01*
X106350000Y-95690000D02*
X106350000Y-97600000D01*
X104800000Y-94140000D02*
X106350000Y-95690000D01*
X105600000Y-91350000D02*
X105600000Y-94100000D01*
X105600000Y-94100000D02*
X106875000Y-95375000D01*
X106400000Y-91350000D02*
X106400000Y-92150000D01*
X106400000Y-92150000D02*
X106875000Y-92625000D01*
X106875000Y-89875000D02*
X106975000Y-89875000D01*
X106975000Y-89875000D02*
X107200000Y-90100000D01*
X107200000Y-90100000D02*
X107200000Y-91350000D01*
X108000000Y-91350000D02*
X108000000Y-93750000D01*
X108000000Y-93750000D02*
X109625000Y-95375000D01*
X108800000Y-91350000D02*
X108800000Y-92300000D01*
X109125000Y-92625000D02*
X109625000Y-92625000D01*
X108800000Y-92300000D02*
X109125000Y-92625000D01*
X109625000Y-89875000D02*
X109625000Y-91325000D01*
X109625000Y-91325000D02*
X109600000Y-91350000D01*
X110400000Y-91350000D02*
X110400000Y-97350000D01*
X110400000Y-97350000D02*
X109625000Y-98125000D01*
X111200000Y-91350000D02*
X111200000Y-94200000D01*
X111200000Y-94200000D02*
X112375000Y-95375000D01*
X112000000Y-91350000D02*
X112000000Y-92250000D01*
X112000000Y-92250000D02*
X112375000Y-92625000D01*
X112375000Y-89875000D02*
X112575000Y-89875000D01*
X112575000Y-89875000D02*
X112800000Y-90100000D01*
X112800000Y-90100000D02*
X112800000Y-91350000D01*
X113600000Y-91350000D02*
X113600000Y-96900000D01*
X113600000Y-96900000D02*
X112375000Y-98125000D01*
X114400000Y-91350000D02*
X114400000Y-94650000D01*
X114400000Y-94650000D02*
X115125000Y-95375000D01*
X115200000Y-91350000D02*
X115200000Y-89950000D01*
X115200000Y-89950000D02*
X115125000Y-89875000D01*
X116000000Y-91350000D02*
X116000000Y-92020000D01*
X116000000Y-92020000D02*
X115395000Y-92625000D01*
X115395000Y-92625000D02*
X115125000Y-92625000D01*
X116800000Y-91350000D02*
X116800000Y-96450000D01*
X116800000Y-96450000D02*
X115125000Y-98125000D01*
X117600000Y-91350000D02*
X117600000Y-92350000D01*
X117600000Y-92350000D02*
X117875000Y-92625000D01*
X117875000Y-89875000D02*
X117975000Y-89875000D01*
X117975000Y-89875000D02*
X118400000Y-90300000D01*
X118400000Y-90300000D02*
X118400000Y-91350000D01*
X119200000Y-91350000D02*
X119200000Y-94050000D01*
X119200000Y-94050000D02*
X117875000Y-95375000D01*
X120000000Y-91350000D02*
X120000000Y-94300000D01*
X119000000Y-97000000D02*
X117875000Y-98125000D01*
X119000000Y-95300000D02*
X119000000Y-97000000D01*
X120000000Y-94300000D02*
X119000000Y-95300000D01*
D61*
X133126000Y-72363040D02*
X133126000Y-65185040D01*
X132954000Y-65013040D02*
X132938000Y-65013040D01*
X132938000Y-65013040D02*
X131668000Y-65013040D01*
X133126000Y-65185040D02*
X132954000Y-65013040D01*
X125953000Y-72134440D02*
X125953000Y-73506040D01*
X133126000Y-73445040D02*
X133126000Y-72363040D01*
X132684000Y-73887040D02*
X133126000Y-73445040D01*
X126334000Y-73887040D02*
X132684000Y-73887040D01*
X125953000Y-73506040D02*
X126334000Y-73887040D01*
X68120000Y-103405000D02*
X67612000Y-103405000D01*
X72060000Y-101008000D02*
X72041000Y-101008000D01*
X72041000Y-101008000D02*
X69644000Y-103405000D01*
X69644000Y-103405000D02*
X68120000Y-103405000D01*
X125150000Y-98300000D02*
X127378000Y-98300000D01*
X127378000Y-98300000D02*
X127432000Y-98246000D01*
X72368000Y-100700000D02*
X72060000Y-101008000D01*
D59*
X72044000Y-101024000D02*
X72060000Y-101008000D01*
D62*
X74760000Y-95900000D02*
X72577000Y-95900000D01*
X72577000Y-95900000D02*
X70152000Y-98325000D01*
X70152000Y-98325000D02*
X68120000Y-98325000D01*
X74760000Y-95100000D02*
X71853000Y-95100000D01*
X71168000Y-95785000D02*
X68120000Y-95785000D01*
X71853000Y-95100000D02*
X71168000Y-95785000D01*
X118158000Y-137306000D02*
X108887000Y-137306000D01*
X130477000Y-137306000D02*
X118158000Y-137306000D01*
X131175500Y-136607500D02*
X130477000Y-137306000D01*
X106220000Y-139973000D02*
X101902000Y-139973000D01*
X108887000Y-137306000D02*
X106220000Y-139973000D01*
X77391000Y-138195000D02*
X77391000Y-138576000D01*
X77391000Y-138576000D02*
X78534000Y-139719000D01*
X78534000Y-139719000D02*
X90726000Y-139719000D01*
X91996000Y-139719000D02*
X90726000Y-139719000D01*
X93774000Y-141497000D02*
X91996000Y-139719000D01*
X100378000Y-141497000D02*
X93774000Y-141497000D01*
X101902000Y-139973000D02*
X100378000Y-141497000D01*
X131175500Y-136607500D02*
X131112000Y-136671000D01*
X131620000Y-133750000D02*
X130223000Y-135147000D01*
X130223000Y-135147000D02*
X129080000Y-135147000D01*
X97330000Y-133562000D02*
X96248000Y-133562000D01*
X96248000Y-133562000D02*
X96187000Y-133623000D01*
X99997000Y-135467000D02*
X99423000Y-135467000D01*
X99423000Y-135467000D02*
X98600000Y-136290000D01*
X98600000Y-136290000D02*
X98600000Y-137621000D01*
X98600000Y-137621000D02*
X97330000Y-138891000D01*
X97330000Y-138891000D02*
X97330000Y-138957000D01*
X97330000Y-138957000D02*
X96060000Y-140227000D01*
X103807000Y-136417000D02*
X103807000Y-137306000D01*
X104315000Y-135909000D02*
X103807000Y-136417000D01*
X130223000Y-135909000D02*
X104315000Y-135909000D01*
X132128000Y-134004000D02*
X130223000Y-135909000D01*
X102410000Y-137367000D02*
X103746000Y-137367000D01*
X103746000Y-137367000D02*
X103807000Y-137306000D01*
X99997000Y-137367000D02*
X102410000Y-137367000D01*
X97330000Y-136991000D02*
X96502000Y-136991000D01*
X96502000Y-136991000D02*
X96060000Y-137433000D01*
X97330000Y-135462000D02*
X97330000Y-136991000D01*
X120317000Y-136544000D02*
X130350000Y-136544000D01*
X132636000Y-134258000D02*
X130350000Y-136544000D01*
X120317000Y-136544000D02*
X108379000Y-136544000D01*
X108379000Y-136544000D02*
X106220000Y-138703000D01*
X106220000Y-138703000D02*
X103299000Y-138703000D01*
X120317000Y-136544000D02*
X120190000Y-136544000D01*
X74760000Y-94300000D02*
X71207000Y-94300000D01*
X70152000Y-93245000D02*
X68120000Y-93245000D01*
X71207000Y-94300000D02*
X70152000Y-93245000D01*
X123794000Y-67857040D02*
X123794000Y-68045040D01*
X123794000Y-68045040D02*
X122778000Y-69061040D01*
X127223000Y-68934040D02*
X127223000Y-65987640D01*
X125572000Y-70585040D02*
X127223000Y-68934040D01*
X123032000Y-70585040D02*
X125572000Y-70585040D01*
X122778000Y-70331040D02*
X123032000Y-70585040D01*
X122778000Y-69061040D02*
X122778000Y-70331040D01*
X123794000Y-67857040D02*
X123352000Y-67857040D01*
X127366000Y-65844640D02*
X127223000Y-65987640D01*
X124810000Y-64997040D02*
X124962400Y-64997040D01*
X123794000Y-64997040D02*
X124810000Y-64997040D01*
X124962400Y-64997040D02*
X125953000Y-65987640D01*
X123794000Y-64997040D02*
X123794000Y-65997040D01*
X125953000Y-65987640D02*
X125800600Y-65987640D01*
X123794000Y-69757040D02*
X124876000Y-69757040D01*
X124876000Y-69757040D02*
X125953000Y-68680040D01*
X125953000Y-68680040D02*
X125953000Y-65987640D01*
X123803400Y-65987640D02*
X123794000Y-65997040D01*
X131226000Y-72363040D02*
X129991600Y-72363040D01*
X129991600Y-72363040D02*
X129763000Y-72134440D01*
X129763000Y-72134440D02*
X129798600Y-72134440D01*
X129798600Y-72134440D02*
X131668000Y-70265040D01*
X128493000Y-72134440D02*
X128493000Y-65987640D01*
X128493000Y-72134440D02*
X127223000Y-72134440D01*
X127162000Y-72195440D02*
X127223000Y-72134440D01*
X128432000Y-65926640D02*
X128493000Y-65987640D01*
D60*
X93230000Y-63426600D02*
X93230000Y-61135000D01*
X93230000Y-61135000D02*
X94335000Y-60030000D01*
X94335000Y-60030000D02*
X94935000Y-60030000D01*
X94935000Y-60030000D02*
X94935000Y-57540000D01*
X94935000Y-57540000D02*
X94885000Y-57490000D01*
D62*
X93853000Y-67523000D02*
X93853000Y-72383000D01*
D60*
X93853000Y-72383000D02*
X93633000Y-72603000D01*
X94500000Y-65002864D02*
X94567126Y-65069990D01*
X94500000Y-63426600D02*
X94500000Y-65002864D01*
X93533000Y-74889000D02*
X95189000Y-74889000D01*
X93633000Y-72603000D02*
X93633000Y-74789000D01*
X93633000Y-74789000D02*
X93533000Y-74889000D01*
X95089000Y-72603000D02*
X93633000Y-72603000D01*
X109835000Y-52303000D02*
X109601000Y-52537000D01*
X109835000Y-51299000D02*
X109835000Y-52303000D01*
X97409000Y-52029000D02*
X96520000Y-52918000D01*
X96520000Y-52918000D02*
X96520000Y-53832400D01*
X109835000Y-51299000D02*
X109835000Y-52049000D01*
X95377000Y-55585000D02*
X95377000Y-53959400D01*
X95377000Y-53959400D02*
X95250000Y-53832400D01*
X107335000Y-51299000D02*
X107335000Y-53279000D01*
X107335000Y-53279000D02*
X107061000Y-53553000D01*
X106835000Y-51299000D02*
X106835000Y-52509000D01*
X98679000Y-53807000D02*
X97815400Y-53807000D01*
X106835000Y-52509000D02*
X106553000Y-52791000D01*
X97815400Y-53807000D02*
X97790000Y-53832400D01*
X93230000Y-69573400D02*
X93230000Y-68307400D01*
X93230000Y-68307400D02*
X91683600Y-66761000D01*
X91683600Y-66761000D02*
X87503000Y-66761000D01*
X87503000Y-66761000D02*
X85011000Y-69253000D01*
X85011000Y-69253000D02*
X85011000Y-70817000D01*
X72517000Y-65237000D02*
X69009000Y-68745000D01*
X69009000Y-68745000D02*
X69009000Y-70817000D01*
X91415600Y-65237000D02*
X72517000Y-65237000D01*
X91960000Y-63426600D02*
X91960000Y-64692600D01*
X91960000Y-64692600D02*
X91415600Y-65237000D01*
X91960000Y-63426600D02*
X91960000Y-64112400D01*
X91960000Y-64112400D02*
X91821000Y-64251400D01*
X95770000Y-69573400D02*
X95770000Y-67916000D01*
X95770000Y-67916000D02*
X94615000Y-66761000D01*
X94615000Y-66761000D02*
X94223600Y-66761000D01*
X94223600Y-66761000D02*
X93715600Y-66253000D01*
X93715600Y-66253000D02*
X82677000Y-66253000D01*
X82677000Y-66253000D02*
X79677000Y-69253000D01*
X79677000Y-69253000D02*
X79677000Y-70817000D01*
X95123000Y-65999000D02*
X94869000Y-65745000D01*
X77597000Y-65745000D02*
X74343000Y-68999000D01*
X94869000Y-65745000D02*
X77597000Y-65745000D01*
X74343000Y-68999000D02*
X74343000Y-70817000D01*
X95123000Y-65999000D02*
X96139000Y-65999000D01*
X97040000Y-65098000D02*
X97040000Y-63426600D01*
X96139000Y-65999000D02*
X97040000Y-65098000D01*
X95153400Y-65999000D02*
X95123000Y-65999000D01*
X97040000Y-63426600D02*
X97040000Y-64112400D01*
X95483389Y-64979211D02*
X95412277Y-64979211D01*
X95770000Y-63426600D02*
X95770000Y-64692600D01*
X95770000Y-64692600D02*
X95483389Y-64979211D01*
X90690000Y-63426600D02*
X90690000Y-62304000D01*
X90690000Y-62304000D02*
X91313000Y-61681000D01*
X94615000Y-68031000D02*
X94615000Y-69458400D01*
X94615000Y-69458400D02*
X94500000Y-69573400D01*
X98310000Y-69573400D02*
X98310000Y-67916000D01*
X98310000Y-67916000D02*
X98171000Y-67777000D01*
D59*
X130175000Y-37043000D02*
X129653000Y-37565000D01*
X129032000Y-37043000D02*
X130175000Y-37043000D01*
D63*
X130700000Y-36518000D02*
X130700000Y-35146000D01*
D59*
X130175000Y-37043000D02*
X130700000Y-36518000D01*
X129653000Y-37565000D02*
X129018000Y-37057000D01*
X129018000Y-37057000D02*
X129032000Y-37043000D01*
X129653000Y-40091000D02*
X129653000Y-37565000D01*
D63*
X134620000Y-37043000D02*
X137033000Y-37043000D01*
X137033000Y-37043000D02*
X137795000Y-36281000D01*
X137795000Y-36281000D02*
X137795000Y-35646000D01*
X137795000Y-35646000D02*
X138160000Y-35281000D01*
X138160000Y-35281000D02*
X139319000Y-35281000D01*
D59*
X119507000Y-61935000D02*
X119523000Y-61951000D01*
X119523000Y-61951000D02*
X120523000Y-61951000D01*
X119253000Y-62189000D02*
X119507000Y-61935000D01*
X118067000Y-54889000D02*
X118067000Y-55839000D01*
X119761000Y-54889000D02*
X119906999Y-55034999D01*
X119906999Y-55034999D02*
X119906999Y-61805001D01*
X120203000Y-54889000D02*
X119761000Y-54889000D01*
X119761000Y-54889000D02*
X118067000Y-54889000D01*
X123571000Y-40091000D02*
X122055000Y-40091000D01*
X122055000Y-40091000D02*
X121031000Y-41115000D01*
X121031000Y-41115000D02*
X121031000Y-54061000D01*
X121031000Y-54061000D02*
X120203000Y-54889000D01*
X89299400Y-69573400D02*
X89281000Y-69555000D01*
X89281000Y-69555000D02*
X89281000Y-67523000D01*
X90690000Y-69573400D02*
X89299400Y-69573400D01*
X89281000Y-69555000D02*
X89281000Y-71587000D01*
X89281000Y-71587000D02*
X88519000Y-72349000D01*
X88519000Y-72349000D02*
X88519000Y-74635000D01*
X88519000Y-74635000D02*
X88011000Y-75143000D01*
X88011000Y-75143000D02*
X85471000Y-75143000D01*
X85471000Y-75143000D02*
X83439000Y-75143000D01*
X85537000Y-75077000D02*
X85537000Y-73365000D01*
X85471000Y-75143000D02*
X85537000Y-75077000D01*
X83439000Y-75143000D02*
X78867000Y-75143000D01*
X83373000Y-75077000D02*
X83373000Y-73365000D01*
X83439000Y-75143000D02*
X83373000Y-75077000D01*
X78867000Y-75143000D02*
X74095000Y-75143000D01*
X78801000Y-73365000D02*
X78801000Y-75077000D01*
X78801000Y-75077000D02*
X78867000Y-75143000D01*
X74095000Y-75143000D02*
X73467000Y-74515000D01*
X73467000Y-74515000D02*
X73467000Y-73365000D01*
X118272000Y-54889000D02*
X118067000Y-54889000D01*
D64*
X129653000Y-40091000D02*
X123571000Y-40091000D01*
D59*
X76835000Y-59903000D02*
X76835000Y-61269000D01*
X76835000Y-61269000D02*
X76883000Y-61317000D01*
X63881000Y-58125000D02*
X68707000Y-58125000D01*
X68707000Y-58125000D02*
X69977000Y-59395000D01*
X60833000Y-55077000D02*
X63881000Y-58125000D01*
X60833000Y-51521000D02*
X60833000Y-55077000D01*
X60075499Y-50763499D02*
X60833000Y-51521000D01*
X59230000Y-50065000D02*
X59928499Y-50763499D01*
X59928499Y-50763499D02*
X60075499Y-50763499D01*
D65*
G36*
X88392000Y-37678000D02*
X86487000Y-37678000D01*
X86438399Y-37687667D01*
X86410800Y-37703400D01*
X84582000Y-39075000D01*
X84582000Y-35900000D01*
X88392000Y-35900000D01*
X88392000Y-37678000D01*
X88392000Y-37678000D01*
G37*
X88392000Y-37678000D02*
X86487000Y-37678000D01*
X86438399Y-37687667D01*
X86410800Y-37703400D01*
X84582000Y-39075000D01*
X84582000Y-35900000D01*
X88392000Y-35900000D01*
X88392000Y-37678000D01*
G36*
X78994000Y-39456000D02*
X76633606Y-39456000D01*
X74130803Y-36953197D01*
X74089601Y-36925667D01*
X74041000Y-36916000D01*
X71882000Y-36916000D01*
X71882000Y-35138000D01*
X78994000Y-35138000D01*
X78994000Y-39456000D01*
X78994000Y-39456000D01*
G37*
X78994000Y-39456000D02*
X76633606Y-39456000D01*
X74130803Y-36953197D01*
X74089601Y-36925667D01*
X74041000Y-36916000D01*
X71882000Y-36916000D01*
X71882000Y-35138000D01*
X78994000Y-35138000D01*
X78994000Y-39456000D01*
G36*
X68834000Y-37043000D02*
X68843667Y-37091601D01*
X68871197Y-37132803D01*
X69342000Y-37603606D01*
X69342000Y-40980000D01*
X65965606Y-40980000D01*
X65240803Y-40255197D01*
X65199601Y-40227667D01*
X65151000Y-40218000D01*
X62992000Y-40218000D01*
X62992000Y-38111606D01*
X65965606Y-35138000D01*
X68834000Y-35138000D01*
X68834000Y-37043000D01*
X68834000Y-37043000D01*
G37*
X68834000Y-37043000D02*
X68843667Y-37091601D01*
X68871197Y-37132803D01*
X69342000Y-37603606D01*
X69342000Y-40980000D01*
X65965606Y-40980000D01*
X65240803Y-40255197D01*
X65199601Y-40227667D01*
X65151000Y-40218000D01*
X62992000Y-40218000D01*
X62992000Y-38111606D01*
X65965606Y-35138000D01*
X68834000Y-35138000D01*
X68834000Y-37043000D01*
G36*
X73914000Y-46695000D02*
X73923667Y-46743601D01*
X73951197Y-46784803D01*
X75184000Y-48017606D01*
X75184000Y-49362000D01*
X70358000Y-49362000D01*
X70358000Y-46239606D01*
X70828803Y-45768803D01*
X70856333Y-45727601D01*
X70866000Y-45679000D01*
X70866000Y-44282000D01*
X73914000Y-44282000D01*
X73914000Y-46695000D01*
X73914000Y-46695000D01*
G37*
X73914000Y-46695000D02*
X73923667Y-46743601D01*
X73951197Y-46784803D01*
X75184000Y-48017606D01*
X75184000Y-49362000D01*
X70358000Y-49362000D01*
X70358000Y-46239606D01*
X70828803Y-45768803D01*
X70856333Y-45727601D01*
X70866000Y-45679000D01*
X70866000Y-44282000D01*
X73914000Y-44282000D01*
X73914000Y-46695000D01*
G36*
X75184000Y-54950000D02*
X70358000Y-54950000D01*
X70358000Y-52156000D01*
X75184000Y-52156000D01*
X75184000Y-54950000D01*
X75184000Y-54950000D01*
G37*
X75184000Y-54950000D02*
X70358000Y-54950000D01*
X70358000Y-52156000D01*
X75184000Y-52156000D01*
X75184000Y-54950000D01*
G36*
X59182000Y-41107000D02*
X59191667Y-41155601D01*
X59219197Y-41196803D01*
X59727197Y-41704803D01*
X59768399Y-41732333D01*
X59817000Y-41742000D01*
X70231000Y-41742000D01*
X70279601Y-41732333D01*
X70320803Y-41704803D01*
X70348333Y-41663601D01*
X70358000Y-41615000D01*
X70358000Y-39456000D01*
X73914000Y-39456000D01*
X73914000Y-43520000D01*
X70231000Y-43520000D01*
X70182399Y-43529667D01*
X70141197Y-43557197D01*
X70113667Y-43598399D01*
X70104000Y-43647000D01*
X70104000Y-45118394D01*
X69633197Y-45589197D01*
X69605667Y-45630399D01*
X69596000Y-45679000D01*
X69596000Y-48600000D01*
X67564000Y-48600000D01*
X67564000Y-46187000D01*
X67554333Y-46138399D01*
X67526803Y-46097197D01*
X67485601Y-46069667D01*
X67437000Y-46060000D01*
X63119000Y-46060000D01*
X63070399Y-46069667D01*
X63029197Y-46097197D01*
X63001667Y-46138399D01*
X62992000Y-46187000D01*
X62992000Y-48092000D01*
X61468000Y-48092000D01*
X61468000Y-47203000D01*
X61458333Y-47154399D01*
X61430803Y-47113197D01*
X59906803Y-45589197D01*
X59865601Y-45561667D01*
X59817000Y-45552000D01*
X52070000Y-45552000D01*
X52070000Y-34809606D01*
X53011606Y-33868000D01*
X59182000Y-33868000D01*
X59182000Y-41107000D01*
X59182000Y-41107000D01*
G37*
X59182000Y-41107000D02*
X59191667Y-41155601D01*
X59219197Y-41196803D01*
X59727197Y-41704803D01*
X59768399Y-41732333D01*
X59817000Y-41742000D01*
X70231000Y-41742000D01*
X70279601Y-41732333D01*
X70320803Y-41704803D01*
X70348333Y-41663601D01*
X70358000Y-41615000D01*
X70358000Y-39456000D01*
X73914000Y-39456000D01*
X73914000Y-43520000D01*
X70231000Y-43520000D01*
X70182399Y-43529667D01*
X70141197Y-43557197D01*
X70113667Y-43598399D01*
X70104000Y-43647000D01*
X70104000Y-45118394D01*
X69633197Y-45589197D01*
X69605667Y-45630399D01*
X69596000Y-45679000D01*
X69596000Y-48600000D01*
X67564000Y-48600000D01*
X67564000Y-46187000D01*
X67554333Y-46138399D01*
X67526803Y-46097197D01*
X67485601Y-46069667D01*
X67437000Y-46060000D01*
X63119000Y-46060000D01*
X63070399Y-46069667D01*
X63029197Y-46097197D01*
X63001667Y-46138399D01*
X62992000Y-46187000D01*
X62992000Y-48092000D01*
X61468000Y-48092000D01*
X61468000Y-47203000D01*
X61458333Y-47154399D01*
X61430803Y-47113197D01*
X59906803Y-45589197D01*
X59865601Y-45561667D01*
X59817000Y-45552000D01*
X52070000Y-45552000D01*
X52070000Y-34809606D01*
X53011606Y-33868000D01*
X59182000Y-33868000D01*
X59182000Y-41107000D01*
G36*
X78994000Y-45679000D02*
X79003667Y-45727601D01*
X79031197Y-45768803D01*
X81608394Y-48346000D01*
X77470000Y-48346000D01*
X77470000Y-47457000D01*
X77460333Y-47408399D01*
X77432803Y-47367197D01*
X75692000Y-45626394D01*
X75692000Y-44790000D01*
X78994000Y-44790000D01*
X78994000Y-45679000D01*
X78994000Y-45679000D01*
G37*
X78994000Y-45679000D02*
X79003667Y-45727601D01*
X79031197Y-45768803D01*
X81608394Y-48346000D01*
X77470000Y-48346000D01*
X77470000Y-47457000D01*
X77460333Y-47408399D01*
X77432803Y-47367197D01*
X75692000Y-45626394D01*
X75692000Y-44790000D01*
X78994000Y-44790000D01*
X78994000Y-45679000D01*
M02*
