<?xml version="1.0" encoding="UTF-8" standalone="no"?>
<!-- Created with Inkscape (http://www.inkscape.org/) -->

<svg
   xmlns:dc="http://purl.org/dc/elements/1.1/"
   xmlns:cc="http://creativecommons.org/ns#"
   xmlns:rdf="http://www.w3.org/1999/02/22-rdf-syntax-ns#"
   xmlns:svg="http://www.w3.org/2000/svg"
   xmlns="http://www.w3.org/2000/svg"
   xmlns:sodipodi="http://sodipodi.sourceforge.net/DTD/sodipodi-0.dtd"
   xmlns:inkscape="http://www.inkscape.org/namespaces/inkscape"
   version="1.1"
   id="svg2"
   xml:space="preserve"
   width="3095.4268"
   height="1961.5732"
   viewBox="0 0 3095.4268 1961.5732"
   sodipodi:docname="OpenDropBaseV3_2.ai.svg"
   inkscape:version="0.92.3 (d244b95, 2018-08-02)"><metadata
     id="metadata8"><rdf:RDF><cc:Work
         rdf:about=""><dc:format>image/svg+xml</dc:format><dc:type
           rdf:resource="http://purl.org/dc/dcmitype/StillImage" /><dc:title></dc:title></cc:Work></rdf:RDF></metadata><defs
     id="defs6" /><sodipodi:namedview
     pagecolor="#ffffff"
     bordercolor="#666666"
     borderopacity="1"
     objecttolerance="10"
     gridtolerance="10"
     guidetolerance="10"
     inkscape:pageopacity="0"
     inkscape:pageshadow="2"
     inkscape:window-width="2479"
     inkscape:window-height="1410"
     id="namedview4"
     showgrid="false"
     inkscape:zoom="0.59027875"
     inkscape:cx="1547.7134"
     inkscape:cy="980.78662"
     inkscape:window-x="81"
     inkscape:window-y="30"
     inkscape:window-maximized="1"
     inkscape:current-layer="g10" /><g
     id="g10"
     inkscape:groupmode="layer"
     inkscape:label="OpenDropBaseV3_2"
     transform="matrix(1.3333333,0,0,-1.3333333,0,1961.5733)"><g
       id="g12"
       transform="translate(1098.6992,589.4883)"><path
         d="M 0,0 -0.3,-2.6 M -16.8,2.301 -14.699,2 -12.6,1.701 -10.5,1.4 -8.399,1.101 -6.3,0.801 -4.199,0.5 -2.1,0.201 0,0 m -17.199,-0.199 0.399,2.5 M -0.3,-2.6 -2.399,-2.299 -4.5,-2 l -2.1,0.301 -2.099,0.3 -2.101,0.299 -2.099,0.301 -2.201,0.299 -2.099,0.301 m 87.8,-3.6 v -2.5 m -17,2.5 H 55.7 57.801 60 62.101 64.2 66.301 68.5 70.601 m -17,-2.5 v 2.5 m 17,-2.5 -2.101,-0.1 H 66.301 64.2 62.101 60 57.801 55.7 l -2.099,0.1 m -5.701,302.6 h 28.401 m -28.401,-2.5 v 2.5 m 28.401,-2.5 H 47.9 m 28.401,2.5 v -2.5 M 193.9,52.801 V 69.9 m 2.6,-17.099 h -2.6 M 196.5,69.9 V 52.801 M 193.9,69.9 h 2.6 M -69.699,170.5 v -17 m -2.601,17 h 2.601 m -2.601,-17 v 17 m 264.8,123.301 h -7.399 M 193.9,292.4 v 0.202 l -0.099,0.298 -0.101,0.301 -0.2,0.199 -0.199,0.1 -0.301,0.201 -0.199,0.1 H 192.5 M 193.9,285 v 7.4 m 2.6,-7.4 h -2.6 m 2.6,11.301 V 285 m -11.399,11.301 H 196.5 m -11.399,-2.5 v 2.5 M -62.6,32.9 l -1.2,0.1 -1,0.4 -0.899,0.701 -0.7,1 -0.5,1 -0.101,1.2 0.101,1.099 0.5,1 0.7,1 0.899,0.701 1,0.399 1.2,0.101 1.1,-0.101 1.101,-0.399 0.899,-0.701 0.7,-1 0.401,-1 0.2,-1.099 -0.2,-1.2 -0.401,-1 -0.7,-1 L -60.399,33.4 -61.5,33 -62.6,32.9 m 0,153.301 1.1,-0.1 1.101,-0.5 0.899,-0.701 0.7,-0.9 0.401,-1 0.2,-1.199 -0.2,-1.1 -0.401,-1.1 -0.7,-0.9 -0.899,-0.701 -1.101,-0.399 -1.1,-0.201 -1.2,0.201 -1,0.399 -0.899,0.701 -0.7,0.9 -0.5,1.1 -0.101,1.1 0.101,1.199 0.5,1 0.7,0.9 0.899,0.701 1,0.5 1.2,0.1 m -17,-180.1 V 292.4 m 0,0 0.1,1.901 0.5,1.9 0.9,1.799 1.1,1.701 1.4,1.401 1.6,1.099 1.801,0.799 1.899,0.5 2,0.201 m 0,0 h 260.8 m 0,0 2,-0.201 1.9,-0.5 1.8,-0.799 1.601,-1.099 1.399,-1.401 1.101,-1.701 0.8,-1.799 0.599,-1.9 0.101,-1.901 m 0,0 V 6.101 m 0,0 -12,-3.3 -12.101,-3 -12.2,-2.7 -12.3,-2.4 -12.3,-2.1 -12.299,-1.8 -12.401,-1.5 -12.5,-1.2 -12.399,-0.9 -12.5,-0.6 -12.5,-0.3 H 55.9 l -12.5,0.3 -12.5,0.6 -12.4,0.9 -12.5,1.2 -12.399,1.5 -12.3,1.8 -12.301,2.1 -12.3,2.4 -12.2,2.7 -12.1,3 -12,3.3 m 266.401,171.299 -1.101,0.201 -1.099,0.399 -0.901,0.701 -0.7,0.9 -0.399,1.1 -0.201,1.1 0.201,1.199 0.399,1 0.7,0.9 0.901,0.701 1.099,0.5 1.101,0.1 1.199,-0.1 1,-0.5 0.9,-0.701 0.701,-0.9 0.5,-1 0.099,-1.199 -0.099,-1.1 -0.5,-1.1 -0.701,-0.9 -0.9,-0.701 -1,-0.399 -1.199,-0.201 m 0,-135.799 1.199,-0.101 1,-0.399 0.9,-0.701 0.701,-1 0.5,-1 0.099,-1.099 -0.099,-1.2 -0.5,-1 -0.701,-1 L 189,33.4 188,33 186.801,32.9 185.7,33 l -1.099,0.4 -0.901,0.701 -0.7,1 -0.399,1 -0.201,1.2 0.201,1.099 0.399,1 0.7,1 0.901,0.701 1.099,0.399 1.101,0.101 M -72.3,285 v 11.301 M -69.699,285 H -72.3 m 2.601,7.4 V 285 m 1.399,8.801 h -0.3 l -0.2,-0.1 -0.3,-0.201 -0.2,-0.1 -0.2,-0.199 -0.1,-0.301 -0.099,-0.298 V 292.4 m 8.8,1.401 H -68.3 m 7.401,2.5 v -2.5 m -11.401,2.5 h 11.401 m -8.8,-275.2 v -7.5 m -2.601,7.5 h 2.601 m -2.601,-9.4 v 9.4 m 9.2,-11.9 -1.2,0.299 -1.099,0.301 -1.201,0.3 -1.099,0.299 -1.101,0.301 -1.2,0.299 -1.1,0.4 -1.2,0.301 m 9.901,0 -0.701,-2.5 m -6.599,4.4 0.899,-0.201 0.901,-0.299 0.899,-0.201 0.9,-0.299 1,-0.201 0.901,-0.199 0.899,-0.301 0.901,-0.199 M -72.3,69.9 h 2.601 M -72.3,52.801 V 69.9 m 2.601,-17.099 H -72.3 M -69.699,69.9 V 52.801 M 193.9,170.5 h 2.6 m -2.6,-17 v 17 m 2.6,-17 h -2.6 m 2.6,17 v -17 m -9.199,-144.299 -0.7,2.5 m 9.899,0 L 195.301,11.4 194.2,11 193,10.701 191.9,10.4 190.7,10.101 189.601,9.801 188.5,9.5 187.301,9.201 m 9.199,11.9 v -9.4 m -2.6,9.4 h 2.6 m -2.6,-7.5 v 7.5 m -7.299,-9.4 0.899,0.199 0.9,0.301 0.901,0.199 1,0.201 0.899,0.299 0.901,0.201 0.899,0.299 0.9,0.201 m -52.9,-11.3 0.301,-2.5 M 124.2,0 l 2.101,0.201 2.099,0.299 2.1,0.301 2.101,0.3 L 134.7,1.4 136.801,1.701 138.9,2 141,2.301 M 124.5,-2.6 124.2,0 M 141.301,-0.199 139.2,-0.5 137.101,-0.799 135,-1.1 132.9,-1.399 130.801,-1.699 128.7,-2 126.601,-2.299 124.5,-2.6 M -69.699,153.5 H -72.3"
         style="fill:none;stroke:#000000;stroke-width:0.28299999;stroke-linecap:round;stroke-linejoin:round;stroke-miterlimit:10;stroke-dasharray:none;stroke-opacity:1"
         id="path14"
         inkscape:connector-curvature="0" /></g></g></svg>