<?xml version="1.0" encoding="UTF-8" standalone="no"?>
<!-- Created with Inkscape (http://www.inkscape.org/) -->

<svg
   xmlns:dc="http://purl.org/dc/elements/1.1/"
   xmlns:cc="http://creativecommons.org/ns#"
   xmlns:rdf="http://www.w3.org/1999/02/22-rdf-syntax-ns#"
   xmlns:svg="http://www.w3.org/2000/svg"
   xmlns="http://www.w3.org/2000/svg"
   xmlns:sodipodi="http://sodipodi.sourceforge.net/DTD/sodipodi-0.dtd"
   xmlns:inkscape="http://www.inkscape.org/namespaces/inkscape"
   version="1.1"
   id="svg2"
   xml:space="preserve"
   width="3401.5732"
   height="2267.72"
   viewBox="0 0 3401.5732 2267.72"
   sodipodi:docname="SideFoilV3_2.svg"
   inkscape:version="0.92.3 (d244b95, 2018-08-02)"><metadata
     id="metadata8"><rdf:RDF><cc:Work
         rdf:about=""><dc:format>image/svg+xml</dc:format><dc:type
           rdf:resource="http://purl.org/dc/dcmitype/StillImage" /><dc:title></dc:title></cc:Work></rdf:RDF></metadata><defs
     id="defs6"><clipPath
       clipPathUnits="userSpaceOnUse"
       id="clipPath58"><path
         d="M 0,1700.787 H 2551.181 V 0 H 0 Z"
         id="path56"
         inkscape:connector-curvature="0" /></clipPath></defs><sodipodi:namedview
     pagecolor="#ffffff"
     bordercolor="#666666"
     borderopacity="1"
     objecttolerance="10"
     gridtolerance="10"
     guidetolerance="10"
     inkscape:pageopacity="0"
     inkscape:pageshadow="2"
     inkscape:window-width="2479"
     inkscape:window-height="1410"
     id="namedview4"
     showgrid="false"
     inkscape:zoom="0.51058994"
     inkscape:cx="1700.7866"
     inkscape:cy="1133.86"
     inkscape:window-x="81"
     inkscape:window-y="30"
     inkscape:window-maximized="1"
     inkscape:current-layer="g10" /><g
     id="g10"
     inkscape:groupmode="layer"
     inkscape:label="SideFoilV3_2"
     transform="matrix(1.3333333,0,0,-1.3333333,0,2267.72)"><g
       id="g12"
       transform="translate(724.7002,815.637)"><path
         d="M 0,0 H 14.2 M 0,65.2 V 0 M 879.284,65.229 0,65.2 m 915.083,0 h -24.46 m 103.477,0 H 932.025 M 994.1,53.8 v 11.4 m 28.4,-11.4 h -28.4 m 28.4,11.4 V 53.8 m 77.8,11.4 h -77.8 M 1100.3,0 V 65.2 M 1086.1,0 h 14.2 m -14.2,14.101 V 0 M 977.3,14.101 h 108.8 M 977.3,0 V 14.101 M 957.1,0 h 20.2 M 957.1,14.101 V 0 M 842.6,14.101 H 957.1 M 842.6,0 V 14.101 M 825.6,0 h 17 m -17,14.101 V 0 M 742,14.101 h 83.6 M 742,0 V 14.101 M 725,0 h 17 M 725,14.101 V 0 M 693.3,14.101 H 725 M 693.3,0 V 14.101 M 676.3,0 h 17 m -17,14.101 V 0 m -46.8,14.101 h 46.8 M 629.5,0 V 14.101 M 612.5,0 h 17 m -17,14.101 V 0 m -53.9,14.101 h 53.9 M 558.6,0 V 14.101 M 541.6,0 h 17 m -17,14.101 V 0 m -53.8,14.101 h 53.8 M 487.8,0 V 14.101 M 470.8,0 h 17 m -17,14.101 V 0 M 424,14.101 h 46.8 M 424,0 V 14.101 M 407,0 h 17 M 407,14.101 V 0 M 375.3,14.101 H 407 M 375.3,0 V 14.101 M 358.3,0 h 17 m -17,14.101 V 0 m -83.6,14.101 h 83.6 M 274.7,0 V 14.101 M 257.7,0 h 17 m -17,14.101 V 0 M 143.1,14.101 H 257.7 M 143.1,0 V 14.101 M 123,0 h 20.1 M 123,14.101 V 0 M 14.2,14.101 H 123 M 14.2,0 v 14.101"
         style="fill:none;stroke:#000000;stroke-width:0.70899999;stroke-linecap:round;stroke-linejoin:round;stroke-miterlimit:10;stroke-dasharray:none;stroke-opacity:1"
         id="path14"
         inkscape:connector-curvature="0" /></g><g
       id="g16"
       transform="translate(1656.751,880.8372)"><path
         d="M 0,0 V -8.504 H -17.008 V 0"
         style="fill:none;stroke:#000000;stroke-width:0.69999999;stroke-linecap:butt;stroke-linejoin:miter;stroke-miterlimit:10;stroke-dasharray:none;stroke-opacity:1"
         id="path18"
         inkscape:connector-curvature="0" /></g><g
       id="g20"
       transform="translate(1409.5,815.637)"><path
         d="M 0,0 V 14.101"
         style="fill:none;stroke:#000000;stroke-width:0.69999999;stroke-linecap:butt;stroke-linejoin:miter;stroke-miterlimit:10;stroke-dasharray:none;stroke-opacity:1"
         id="path22"
         inkscape:connector-curvature="0" /></g><g
       id="g24"
       transform="translate(1140.2002,816.637)"><path
         d="M 0,0 V 14.101"
         style="fill:none;stroke:#000000;stroke-width:0.69999999;stroke-linecap:butt;stroke-linejoin:miter;stroke-miterlimit:10;stroke-dasharray:none;stroke-opacity:1"
         id="path26"
         inkscape:connector-curvature="0" /></g><g
       id="g28"
       transform="translate(857.75,815.637)"><path
         d="M 0,0 V 14.101"
         style="fill:none;stroke:#000000;stroke-width:0.69999999;stroke-linecap:butt;stroke-linejoin:miter;stroke-miterlimit:10;stroke-dasharray:none;stroke-opacity:1"
         id="path30"
         inkscape:connector-curvature="0" /></g><g
       id="g32"
       transform="translate(1691.9004,815.637)"><path
         d="M 0,0 V 14.101"
         style="fill:none;stroke:#000000;stroke-width:0.69999999;stroke-linecap:butt;stroke-linejoin:miter;stroke-miterlimit:10;stroke-dasharray:none;stroke-opacity:1"
         id="path34"
         inkscape:connector-curvature="0" /></g><g
       id="g36"
       transform="translate(1409.5,875.6375)"><path
         d="M 0,0 V 4.855"
         style="fill:none;stroke:#000000;stroke-width:0.69999999;stroke-linecap:butt;stroke-linejoin:miter;stroke-miterlimit:10;stroke-dasharray:none;stroke-opacity:1"
         id="path38"
         inkscape:connector-curvature="0" /></g><g
       id="g40"
       transform="translate(1140.2002,875.9818)"><path
         d="M 0,0 V 4.856"
         style="fill:none;stroke:#000000;stroke-width:0.69999999;stroke-linecap:butt;stroke-linejoin:miter;stroke-miterlimit:10;stroke-dasharray:none;stroke-opacity:1"
         id="path42"
         inkscape:connector-curvature="0" /></g><g
       id="g44"
       transform="translate(857.75,875.6375)"><path
         d="M 0,0 V 4.855"
         style="fill:none;stroke:#000000;stroke-width:0.69999999;stroke-linecap:butt;stroke-linejoin:miter;stroke-miterlimit:10;stroke-dasharray:none;stroke-opacity:1"
         id="path46"
         inkscape:connector-curvature="0" /></g><g
       id="g48"
       transform="translate(1691.9004,875.6375)"><path
         d="M 0,0 V 4.855"
         style="fill:none;stroke:#000000;stroke-width:0.69999999;stroke-linecap:butt;stroke-linejoin:miter;stroke-miterlimit:10;stroke-dasharray:none;stroke-opacity:1"
         id="path50"
         inkscape:connector-curvature="0" /></g><g
       id="g52"><g
         id="g54"
         clip-path="url(#clipPath58)"><g
           id="g60"
           transform="translate(1603.9785,880.7444)"><path
             d="m 0,0 v -6.708 c 0.258,-1.605 2.778,-3.521 5.8,-3.521 2.853,0 5.539,1.875 5.538,3.312 0,7.584 0.001,6.917 0.001,6.917"
             style="fill:none;stroke:#000000;stroke-width:0.69999999;stroke-linecap:butt;stroke-linejoin:miter;stroke-miterlimit:10;stroke-dasharray:none;stroke-opacity:1"
             id="path62"
             inkscape:connector-curvature="0" /></g></g></g></g></svg>