<?xml version="1.0" standalone="no"?>
 <!DOCTYPE svg PUBLIC "-//W3C//DTD SVG 1.1//EN" 
 "http://www.w3.org/Graphics/SVG/1.1/DTD/svg11.dtd"> 
<svg xmlns="http://www.w3.org/2000/svg" version="1.1" 
    width="29.7002cm" height="21.0007cm" viewBox="0 0 116930 82680 ">
<title>SVG Picture created as OpenDropV4-F_Mask.svg date 2021/08/02 14:24:08 </title>
  <desc>Picture generated by PCBNEW </desc>
<g style="fill:#000000; fill-opacity:1;stroke:#000000; stroke-opacity:1;
stroke-linecap:round; stroke-linejoin:round; "
 transform="translate(0 0) scale(1 1)">
</g>
<g style="fill:#000000; fill-opacity:0.0; 
stroke:#000000; stroke-width:-0.000393701; stroke-opacity:1; 
stroke-linecap:round; stroke-linejoin:round;">
</g>
<g style="fill:#000000; fill-opacity:0.0; 
stroke:#000000; stroke-width:39.3701; stroke-opacity:1; 
stroke-linecap:round; stroke-linejoin:round;">
</g>
<g style="fill:#000000; fill-opacity:0.0; 
stroke:#000000; stroke-width:59.0551; stroke-opacity:1; 
stroke-linecap:round; stroke-linejoin:round;">
<rect x="69685.9" y="65357.2" width="42519.7" height="12598.4" rx="0" />
</g>
<g style="fill:#000000; fill-opacity:0.0; 
stroke:#000000; stroke-width:39.3701; stroke-opacity:1; 
stroke-linecap:round; stroke-linejoin:round;">
</g>
<g style="fill:#000000; fill-opacity:0.0; 
stroke:#000000; stroke-width:59.0551; stroke-opacity:1; 
stroke-linecap:round; stroke-linejoin:round;">
<rect x="3937.01" y="3937.01" width="109056" height="74806" rx="0" />
</g>
<g style="fill:#000000; fill-opacity:0.0; 
stroke:#000000; stroke-width:39.3701; stroke-opacity:1; 
stroke-linecap:round; stroke-linejoin:round;">
</g>
<g style="fill:#000000; fill-opacity:0.0; 
stroke:#000000; stroke-width:59.0551; stroke-opacity:1; 
stroke-linecap:round; stroke-linejoin:round;">
<rect x="4724.41" y="4724.41" width="107481" height="73231.2" rx="0" />
</g>
<g style="fill:#000000; fill-opacity:0.0; 
stroke:#000000; stroke-width:39.3701; stroke-opacity:1; 
stroke-linecap:round; stroke-linejoin:round;">
</g>
<g style="fill:#000000; fill-opacity:0.0; 
stroke:#000000; stroke-width:59.0551; stroke-opacity:1; 
stroke-linecap:round; stroke-linejoin:round;">
<path d="M23622 4724
L23622 3937
" />
</g>
<g style="fill:#000000; fill-opacity:0.0; 
stroke:#000000; stroke-width:39.3701; stroke-opacity:1; 
stroke-linecap:round; stroke-linejoin:round;">
</g>
<g style="fill:#000000; fill-opacity:0.0; 
stroke:#000000; stroke-width:59.0551; stroke-opacity:1; 
stroke-linecap:round; stroke-linejoin:round;">
<path d="M43307 4724
L43307 3937
" />
</g>
<g style="fill:#000000; fill-opacity:0.0; 
stroke:#000000; stroke-width:39.3701; stroke-opacity:1; 
stroke-linecap:round; stroke-linejoin:round;">
</g>
<g style="fill:#000000; fill-opacity:0.0; 
stroke:#000000; stroke-width:59.0551; stroke-opacity:1; 
stroke-linecap:round; stroke-linejoin:round;">
<path d="M62992 4724
L62992 3937
" />
</g>
<g style="fill:#000000; fill-opacity:0.0; 
stroke:#000000; stroke-width:39.3701; stroke-opacity:1; 
stroke-linecap:round; stroke-linejoin:round;">
</g>
<g style="fill:#000000; fill-opacity:0.0; 
stroke:#000000; stroke-width:59.0551; stroke-opacity:1; 
stroke-linecap:round; stroke-linejoin:round;">
<path d="M82677 4724
L82677 3937
" />
</g>
<g style="fill:#000000; fill-opacity:0.0; 
stroke:#000000; stroke-width:39.3701; stroke-opacity:1; 
stroke-linecap:round; stroke-linejoin:round;">
</g>
<g style="fill:#000000; fill-opacity:0.0; 
stroke:#000000; stroke-width:59.0551; stroke-opacity:1; 
stroke-linecap:round; stroke-linejoin:round;">
<path d="M102362 4724
L102362 3937
" />
</g>
<g style="fill:#000000; fill-opacity:0.0; 
stroke:#000000; stroke-width:39.3701; stroke-opacity:1; 
stroke-linecap:round; stroke-linejoin:round;">
</g>
<g style="fill:#000000; fill-opacity:0.0; 
stroke:#000000; stroke-width:59.0551; stroke-opacity:1; 
stroke-linecap:round; stroke-linejoin:round;">
<text x="13779.5" y="4586.61"
textLength="546.494" font-size="682.415" lengthAdjust="spacingAndGlyphs"
text-anchor="start" opacity="0">1</text>
<path d="M14199 4562
L13906 4562
" />
<path d="M14052 4562
L14052 4050
L14004 4123
L13955 4172
L13906 4196
" />
</g>
<g style="fill:#000000; fill-opacity:0.0; 
stroke:#000000; stroke-width:39.3701; stroke-opacity:1; 
stroke-linecap:round; stroke-linejoin:round;">
</g>
<g style="fill:#000000; fill-opacity:0.0; 
stroke:#000000; stroke-width:59.0551; stroke-opacity:1; 
stroke-linecap:round; stroke-linejoin:round;">
<text x="33464.6" y="4586.61"
textLength="546.494" font-size="682.415" lengthAdjust="spacingAndGlyphs"
text-anchor="start" opacity="0">2</text>
<path d="M33591 4099
L33615 4074
L33664 4050
L33786 4050
L33835 4074
L33859 4099
L33884 4147
L33884 4196
L33859 4269
L33567 4562
L33884 4562
" />
</g>
<g style="fill:#000000; fill-opacity:0.0; 
stroke:#000000; stroke-width:39.3701; stroke-opacity:1; 
stroke-linecap:round; stroke-linejoin:round;">
</g>
<g style="fill:#000000; fill-opacity:0.0; 
stroke:#000000; stroke-width:59.0551; stroke-opacity:1; 
stroke-linecap:round; stroke-linejoin:round;">
<text x="53149.6" y="4586.61"
textLength="546.494" font-size="682.415" lengthAdjust="spacingAndGlyphs"
text-anchor="start" opacity="0">3</text>
<path d="M53252 4050
L53569 4050
L53398 4245
L53471 4245
L53520 4269
L53544 4294
L53569 4342
L53569 4464
L53544 4513
L53520 4537
L53471 4562
L53325 4562
L53276 4537
L53252 4513
" />
</g>
<g style="fill:#000000; fill-opacity:0.0; 
stroke:#000000; stroke-width:39.3701; stroke-opacity:1; 
stroke-linecap:round; stroke-linejoin:round;">
</g>
<g style="fill:#000000; fill-opacity:0.0; 
stroke:#000000; stroke-width:59.0551; stroke-opacity:1; 
stroke-linecap:round; stroke-linejoin:round;">
<text x="72834.6" y="4586.61"
textLength="546.494" font-size="682.415" lengthAdjust="spacingAndGlyphs"
text-anchor="start" opacity="0">4</text>
<path d="M73205 4221
L73205 4562
" />
<path d="M73083 4026
L72961 4391
L73278 4391
" />
</g>
<g style="fill:#000000; fill-opacity:0.0; 
stroke:#000000; stroke-width:39.3701; stroke-opacity:1; 
stroke-linecap:round; stroke-linejoin:round;">
</g>
<g style="fill:#000000; fill-opacity:0.0; 
stroke:#000000; stroke-width:59.0551; stroke-opacity:1; 
stroke-linecap:round; stroke-linejoin:round;">
<text x="92519.7" y="4586.61"
textLength="546.494" font-size="682.415" lengthAdjust="spacingAndGlyphs"
text-anchor="start" opacity="0">5</text>
<path d="M92914 4050
L92671 4050
L92646 4294
L92671 4269
L92719 4245
L92841 4245
L92890 4269
L92914 4294
L92939 4342
L92939 4464
L92914 4513
L92890 4537
L92841 4562
L92719 4562
L92671 4537
L92646 4513
" />
</g>
<g style="fill:#000000; fill-opacity:0.0; 
stroke:#000000; stroke-width:39.3701; stroke-opacity:1; 
stroke-linecap:round; stroke-linejoin:round;">
</g>
<g style="fill:#000000; fill-opacity:0.0; 
stroke:#000000; stroke-width:59.0551; stroke-opacity:1; 
stroke-linecap:round; stroke-linejoin:round;">
<text x="112205" y="4586.61"
textLength="546.494" font-size="682.415" lengthAdjust="spacingAndGlyphs"
text-anchor="start" opacity="0">6</text>
<path d="M112575 4050
L112477 4050
L112429 4074
L112404 4099
L112356 4172
L112331 4269
L112331 4464
L112356 4513
L112380 4537
L112429 4562
L112526 4562
L112575 4537
L112599 4513
L112624 4464
L112624 4342
L112599 4294
L112575 4269
L112526 4245
L112429 4245
L112380 4269
L112356 4294
L112331 4342
" />
</g>
<g style="fill:#000000; fill-opacity:0.0; 
stroke:#000000; stroke-width:39.3701; stroke-opacity:1; 
stroke-linecap:round; stroke-linejoin:round;">
</g>
<g style="fill:#000000; fill-opacity:0.0; 
stroke:#000000; stroke-width:59.0551; stroke-opacity:1; 
stroke-linecap:round; stroke-linejoin:round;">
<path d="M23622 77955
L23622 78742
" />
</g>
<g style="fill:#000000; fill-opacity:0.0; 
stroke:#000000; stroke-width:39.3701; stroke-opacity:1; 
stroke-linecap:round; stroke-linejoin:round;">
</g>
<g style="fill:#000000; fill-opacity:0.0; 
stroke:#000000; stroke-width:59.0551; stroke-opacity:1; 
stroke-linecap:round; stroke-linejoin:round;">
<path d="M43307 77955
L43307 78742
" />
</g>
<g style="fill:#000000; fill-opacity:0.0; 
stroke:#000000; stroke-width:39.3701; stroke-opacity:1; 
stroke-linecap:round; stroke-linejoin:round;">
</g>
<g style="fill:#000000; fill-opacity:0.0; 
stroke:#000000; stroke-width:59.0551; stroke-opacity:1; 
stroke-linecap:round; stroke-linejoin:round;">
<path d="M62992 77955
L62992 78742
" />
</g>
<g style="fill:#000000; fill-opacity:0.0; 
stroke:#000000; stroke-width:39.3701; stroke-opacity:1; 
stroke-linecap:round; stroke-linejoin:round;">
</g>
<g style="fill:#000000; fill-opacity:0.0; 
stroke:#000000; stroke-width:59.0551; stroke-opacity:1; 
stroke-linecap:round; stroke-linejoin:round;">
<path d="M82677 77955
L82677 78742
" />
</g>
<g style="fill:#000000; fill-opacity:0.0; 
stroke:#000000; stroke-width:39.3701; stroke-opacity:1; 
stroke-linecap:round; stroke-linejoin:round;">
</g>
<g style="fill:#000000; fill-opacity:0.0; 
stroke:#000000; stroke-width:59.0551; stroke-opacity:1; 
stroke-linecap:round; stroke-linejoin:round;">
<path d="M102362 77955
L102362 78742
" />
</g>
<g style="fill:#000000; fill-opacity:0.0; 
stroke:#000000; stroke-width:39.3701; stroke-opacity:1; 
stroke-linecap:round; stroke-linejoin:round;">
</g>
<g style="fill:#000000; fill-opacity:0.0; 
stroke:#000000; stroke-width:59.0551; stroke-opacity:1; 
stroke-linecap:round; stroke-linejoin:round;">
<text x="13779.5" y="78605.2"
textLength="546.494" font-size="682.415" lengthAdjust="spacingAndGlyphs"
text-anchor="start" opacity="0">1</text>
<path d="M14199 78580
L13906 78580
" />
<path d="M14052 78580
L14052 78069
L14004 78142
L13955 78190
L13906 78215
" />
</g>
<g style="fill:#000000; fill-opacity:0.0; 
stroke:#000000; stroke-width:39.3701; stroke-opacity:1; 
stroke-linecap:round; stroke-linejoin:round;">
</g>
<g style="fill:#000000; fill-opacity:0.0; 
stroke:#000000; stroke-width:59.0551; stroke-opacity:1; 
stroke-linecap:round; stroke-linejoin:round;">
<text x="33464.6" y="78605.2"
textLength="546.494" font-size="682.415" lengthAdjust="spacingAndGlyphs"
text-anchor="start" opacity="0">2</text>
<path d="M33591 78117
L33615 78093
L33664 78069
L33786 78069
L33835 78093
L33859 78117
L33884 78166
L33884 78215
L33859 78288
L33567 78580
L33884 78580
" />
</g>
<g style="fill:#000000; fill-opacity:0.0; 
stroke:#000000; stroke-width:39.3701; stroke-opacity:1; 
stroke-linecap:round; stroke-linejoin:round;">
</g>
<g style="fill:#000000; fill-opacity:0.0; 
stroke:#000000; stroke-width:59.0551; stroke-opacity:1; 
stroke-linecap:round; stroke-linejoin:round;">
<text x="53149.6" y="78605.2"
textLength="546.494" font-size="682.415" lengthAdjust="spacingAndGlyphs"
text-anchor="start" opacity="0">3</text>
<path d="M53252 78069
L53569 78069
L53398 78263
L53471 78263
L53520 78288
L53544 78312
L53569 78361
L53569 78483
L53544 78532
L53520 78556
L53471 78580
L53325 78580
L53276 78556
L53252 78532
" />
</g>
<g style="fill:#000000; fill-opacity:0.0; 
stroke:#000000; stroke-width:39.3701; stroke-opacity:1; 
stroke-linecap:round; stroke-linejoin:round;">
</g>
<g style="fill:#000000; fill-opacity:0.0; 
stroke:#000000; stroke-width:59.0551; stroke-opacity:1; 
stroke-linecap:round; stroke-linejoin:round;">
<text x="72834.6" y="78605.2"
textLength="546.494" font-size="682.415" lengthAdjust="spacingAndGlyphs"
text-anchor="start" opacity="0">4</text>
<path d="M73205 78239
L73205 78580
" />
<path d="M73083 78044
L72961 78410
L73278 78410
" />
</g>
<g style="fill:#000000; fill-opacity:0.0; 
stroke:#000000; stroke-width:39.3701; stroke-opacity:1; 
stroke-linecap:round; stroke-linejoin:round;">
</g>
<g style="fill:#000000; fill-opacity:0.0; 
stroke:#000000; stroke-width:59.0551; stroke-opacity:1; 
stroke-linecap:round; stroke-linejoin:round;">
<text x="92519.7" y="78605.2"
textLength="546.494" font-size="682.415" lengthAdjust="spacingAndGlyphs"
text-anchor="start" opacity="0">5</text>
<path d="M92914 78069
L92671 78069
L92646 78312
L92671 78288
L92719 78263
L92841 78263
L92890 78288
L92914 78312
L92939 78361
L92939 78483
L92914 78532
L92890 78556
L92841 78580
L92719 78580
L92671 78556
L92646 78532
" />
</g>
<g style="fill:#000000; fill-opacity:0.0; 
stroke:#000000; stroke-width:39.3701; stroke-opacity:1; 
stroke-linecap:round; stroke-linejoin:round;">
</g>
<g style="fill:#000000; fill-opacity:0.0; 
stroke:#000000; stroke-width:59.0551; stroke-opacity:1; 
stroke-linecap:round; stroke-linejoin:round;">
<text x="112205" y="78605.2"
textLength="546.494" font-size="682.415" lengthAdjust="spacingAndGlyphs"
text-anchor="start" opacity="0">6</text>
<path d="M112575 78069
L112477 78069
L112429 78093
L112404 78117
L112356 78190
L112331 78288
L112331 78483
L112356 78532
L112380 78556
L112429 78580
L112526 78580
L112575 78556
L112599 78532
L112624 78483
L112624 78361
L112599 78312
L112575 78288
L112526 78263
L112429 78263
L112380 78288
L112356 78312
L112331 78361
" />
</g>
<g style="fill:#000000; fill-opacity:0.0; 
stroke:#000000; stroke-width:39.3701; stroke-opacity:1; 
stroke-linecap:round; stroke-linejoin:round;">
</g>
<g style="fill:#000000; fill-opacity:0.0; 
stroke:#000000; stroke-width:59.0551; stroke-opacity:1; 
stroke-linecap:round; stroke-linejoin:round;">
<path d="M3937 23622
L4724 23622
" />
</g>
<g style="fill:#000000; fill-opacity:0.0; 
stroke:#000000; stroke-width:39.3701; stroke-opacity:1; 
stroke-linecap:round; stroke-linejoin:round;">
</g>
<g style="fill:#000000; fill-opacity:0.0; 
stroke:#000000; stroke-width:59.0551; stroke-opacity:1; 
stroke-linecap:round; stroke-linejoin:round;">
<path d="M3937 43307
L4724 43307
" />
</g>
<g style="fill:#000000; fill-opacity:0.0; 
stroke:#000000; stroke-width:39.3701; stroke-opacity:1; 
stroke-linecap:round; stroke-linejoin:round;">
</g>
<g style="fill:#000000; fill-opacity:0.0; 
stroke:#000000; stroke-width:59.0551; stroke-opacity:1; 
stroke-linecap:round; stroke-linejoin:round;">
<path d="M3937 62992
L4724 62992
" />
</g>
<g style="fill:#000000; fill-opacity:0.0; 
stroke:#000000; stroke-width:39.3701; stroke-opacity:1; 
stroke-linecap:round; stroke-linejoin:round;">
</g>
<g style="fill:#000000; fill-opacity:0.0; 
stroke:#000000; stroke-width:59.0551; stroke-opacity:1; 
stroke-linecap:round; stroke-linejoin:round;">
<text x="4330.71" y="14035.4"
textLength="497.75" font-size="682.415" lengthAdjust="spacingAndGlyphs"
text-anchor="middle" opacity="0">A</text>
<path d="M4208 13864
L4452 13864
" />
<path d="M4160 14011
L4330 13499
L4501 14011
" />
</g>
<g style="fill:#000000; fill-opacity:0.0; 
stroke:#000000; stroke-width:39.3701; stroke-opacity:1; 
stroke-linecap:round; stroke-linejoin:round;">
</g>
<g style="fill:#000000; fill-opacity:0.0; 
stroke:#000000; stroke-width:59.0551; stroke-opacity:1; 
stroke-linecap:round; stroke-linejoin:round;">
<text x="4330.71" y="33720.5"
textLength="570.866" font-size="682.415" lengthAdjust="spacingAndGlyphs"
text-anchor="middle" opacity="0">B</text>
<path d="M4367 33428
L4440 33452
L4464 33476
L4489 33525
L4489 33598
L4464 33647
L4440 33671
L4391 33696
L4196 33696
L4196 33184
L4367 33184
L4416 33208
L4440 33233
L4464 33281
L4464 33330
L4440 33379
L4416 33403
L4367 33428
L4196 33428
" />
</g>
<g style="fill:#000000; fill-opacity:0.0; 
stroke:#000000; stroke-width:39.3701; stroke-opacity:1; 
stroke-linecap:round; stroke-linejoin:round;">
</g>
<g style="fill:#000000; fill-opacity:0.0; 
stroke:#000000; stroke-width:59.0551; stroke-opacity:1; 
stroke-linecap:round; stroke-linejoin:round;">
<text x="4330.71" y="53405.5"
textLength="570.866" font-size="682.415" lengthAdjust="spacingAndGlyphs"
text-anchor="middle" opacity="0">C</text>
<path d="M4489 53332
L4464 53356
L4391 53381
L4342 53381
L4269 53356
L4221 53308
L4196 53259
L4172 53161
L4172 53088
L4196 52991
L4221 52942
L4269 52893
L4342 52869
L4391 52869
L4464 52893
L4489 52918
" />
</g>
<g style="fill:#000000; fill-opacity:0.0; 
stroke:#000000; stroke-width:39.3701; stroke-opacity:1; 
stroke-linecap:round; stroke-linejoin:round;">
</g>
<g style="fill:#000000; fill-opacity:0.0; 
stroke:#000000; stroke-width:59.0551; stroke-opacity:1; 
stroke-linecap:round; stroke-linejoin:round;">
<text x="4330.71" y="73090.6"
textLength="570.866" font-size="682.415" lengthAdjust="spacingAndGlyphs"
text-anchor="middle" opacity="0">D</text>
<path d="M4196 73066
L4196 72554
L4318 72554
L4391 72578
L4440 72627
L4464 72676
L4489 72773
L4489 72846
L4464 72944
L4440 72993
L4391 73041
L4318 73066
L4196 73066
" />
</g>
<g style="fill:#000000; fill-opacity:0.0; 
stroke:#000000; stroke-width:39.3701; stroke-opacity:1; 
stroke-linecap:round; stroke-linejoin:round;">
</g>
<g style="fill:#000000; fill-opacity:0.0; 
stroke:#000000; stroke-width:59.0551; stroke-opacity:1; 
stroke-linecap:round; stroke-linejoin:round;">
<path d="M112992 23622
L112205 23622
" />
</g>
<g style="fill:#000000; fill-opacity:0.0; 
stroke:#000000; stroke-width:39.3701; stroke-opacity:1; 
stroke-linecap:round; stroke-linejoin:round;">
</g>
<g style="fill:#000000; fill-opacity:0.0; 
stroke:#000000; stroke-width:59.0551; stroke-opacity:1; 
stroke-linecap:round; stroke-linejoin:round;">
<path d="M112992 43307
L112205 43307
" />
</g>
<g style="fill:#000000; fill-opacity:0.0; 
stroke:#000000; stroke-width:39.3701; stroke-opacity:1; 
stroke-linecap:round; stroke-linejoin:round;">
</g>
<g style="fill:#000000; fill-opacity:0.0; 
stroke:#000000; stroke-width:59.0551; stroke-opacity:1; 
stroke-linecap:round; stroke-linejoin:round;">
<path d="M112992 62992
L112205 62992
" />
</g>
<g style="fill:#000000; fill-opacity:0.0; 
stroke:#000000; stroke-width:39.3701; stroke-opacity:1; 
stroke-linecap:round; stroke-linejoin:round;">
</g>
<g style="fill:#000000; fill-opacity:0.0; 
stroke:#000000; stroke-width:59.0551; stroke-opacity:1; 
stroke-linecap:round; stroke-linejoin:round;">
<text x="112599" y="14035.4"
textLength="497.75" font-size="682.415" lengthAdjust="spacingAndGlyphs"
text-anchor="middle" opacity="0">A</text>
<path d="M112477 13864
L112721 13864
" />
<path d="M112428 14011
L112599 13499
L112769 14011
" />
</g>
<g style="fill:#000000; fill-opacity:0.0; 
stroke:#000000; stroke-width:39.3701; stroke-opacity:1; 
stroke-linecap:round; stroke-linejoin:round;">
</g>
<g style="fill:#000000; fill-opacity:0.0; 
stroke:#000000; stroke-width:59.0551; stroke-opacity:1; 
stroke-linecap:round; stroke-linejoin:round;">
<text x="112599" y="33720.5"
textLength="570.866" font-size="682.415" lengthAdjust="spacingAndGlyphs"
text-anchor="middle" opacity="0">B</text>
<path d="M112635 33428
L112708 33452
L112733 33476
L112757 33525
L112757 33598
L112733 33647
L112708 33671
L112660 33696
L112465 33696
L112465 33184
L112635 33184
L112684 33208
L112708 33233
L112733 33281
L112733 33330
L112708 33379
L112684 33403
L112635 33428
L112465 33428
" />
</g>
<g style="fill:#000000; fill-opacity:0.0; 
stroke:#000000; stroke-width:39.3701; stroke-opacity:1; 
stroke-linecap:round; stroke-linejoin:round;">
</g>
<g style="fill:#000000; fill-opacity:0.0; 
stroke:#000000; stroke-width:59.0551; stroke-opacity:1; 
stroke-linecap:round; stroke-linejoin:round;">
<text x="112599" y="53405.5"
textLength="570.866" font-size="682.415" lengthAdjust="spacingAndGlyphs"
text-anchor="middle" opacity="0">C</text>
<path d="M112757 53332
L112733 53356
L112660 53381
L112611 53381
L112538 53356
L112489 53308
L112465 53259
L112440 53161
L112440 53088
L112465 52991
L112489 52942
L112538 52893
L112611 52869
L112660 52869
L112733 52893
L112757 52918
" />
</g>
<g style="fill:#000000; fill-opacity:0.0; 
stroke:#000000; stroke-width:39.3701; stroke-opacity:1; 
stroke-linecap:round; stroke-linejoin:round;">
</g>
<g style="fill:#000000; fill-opacity:0.0; 
stroke:#000000; stroke-width:59.0551; stroke-opacity:1; 
stroke-linecap:round; stroke-linejoin:round;">
<text x="112599" y="73090.6"
textLength="570.866" font-size="682.415" lengthAdjust="spacingAndGlyphs"
text-anchor="middle" opacity="0">D</text>
<path d="M112465 73066
L112465 72554
L112587 72554
L112660 72578
L112708 72627
L112733 72676
L112757 72773
L112757 72846
L112733 72944
L112708 72993
L112660 73041
L112587 73066
L112465 73066
" />
</g>
<g style="fill:#000000; fill-opacity:0.0; 
stroke:#000000; stroke-width:39.3701; stroke-opacity:1; 
stroke-linecap:round; stroke-linejoin:round;">
</g>
<g style="fill:#000000; fill-opacity:0.0; 
stroke:#000000; stroke-width:59.0551; stroke-opacity:1; 
stroke-linecap:round; stroke-linejoin:round;">
<text x="78741" y="76321.7"
textLength="2758.72" font-size="787.402" lengthAdjust="spacingAndGlyphs"
text-anchor="start" opacity="0">Date: </text>
<path d="M78911 76293
L78911 75703
L79051 75703
L79136 75731
L79192 75787
L79220 75843
L79248 75956
L79248 76040
L79220 76153
L79192 76209
L79136 76265
L79051 76293
L78911 76293
" />
<path d="M79754 76293
L79754 75984
L79726 75928
L79670 75899
L79557 75899
L79501 75928
" />
<path d="M79754 76265
L79698 76293
L79557 76293
L79501 76265
L79473 76209
L79473 76153
L79501 76096
L79557 76068
L79698 76068
L79754 76040
" />
<path d="M79951 75899
L80176 75899
" />
<path d="M80036 75703
L80036 76209
L80064 76265
L80120 76293
L80176 76293
" />
<path d="M80598 76265
L80542 76293
L80429 76293
L80373 76265
L80345 76209
L80345 75984
L80373 75928
L80429 75899
L80542 75899
L80598 75928
L80626 75984
L80626 76040
L80345 76096
" />
<path d="M80879 76237
L80907 76265
L80879 76293
L80851 76265
L80879 76237
L80879 76293
" />
<path d="M80879 75928
L80907 75956
L80879 75984
L80851 75956
L80879 75928
L80879 75984
" />
</g>
<g style="fill:#000000; fill-opacity:0.0; 
stroke:#000000; stroke-width:39.3701; stroke-opacity:1; 
stroke-linecap:round; stroke-linejoin:round;">
</g>
<g style="fill:#000000; fill-opacity:0.0; 
stroke:#000000; stroke-width:59.0551; stroke-opacity:1; 
stroke-linecap:round; stroke-linejoin:round;">
<path d="M69685 76577
L112205 76577
" />
</g>
<g style="fill:#000000; fill-opacity:0.0; 
stroke:#000000; stroke-width:39.3701; stroke-opacity:1; 
stroke-linecap:round; stroke-linejoin:round;">
</g>
<g style="fill:#000000; fill-opacity:0.0; 
stroke:#000000; stroke-width:59.0551; stroke-opacity:1; 
stroke-linecap:round; stroke-linejoin:round;">
<text x="70079.6" y="77424.1"
textLength="18675.5" font-size="787.402" lengthAdjust="spacingAndGlyphs"
text-anchor="start" opacity="0">KiCad E.D.A.  kicad 5.1.5+dfsg1-2build2</text>
<path d="M70249 77395
L70249 76805
" />
<path d="M70587 77395
L70334 77058
" />
<path d="M70587 76805
L70249 77142
" />
<path d="M70840 77395
L70840 77002
" />
<path d="M70840 76805
L70812 76833
L70840 76861
L70868 76833
L70840 76805
L70840 76861
" />
<path d="M71458 77339
L71430 77367
L71346 77395
L71290 77395
L71205 77367
L71149 77311
L71121 77255
L71093 77142
L71093 77058
L71121 76946
L71149 76889
L71205 76833
L71290 76805
L71346 76805
L71430 76833
L71458 76861
" />
<path d="M71965 77395
L71965 77086
L71937 77030
L71880 77002
L71768 77002
L71712 77030
" />
<path d="M71965 77367
L71908 77395
L71768 77395
L71712 77367
L71683 77311
L71683 77255
L71712 77199
L71768 77171
L71908 77171
L71965 77142
" />
<path d="M72499 77395
L72499 76805
" />
<path d="M72499 77367
L72443 77395
L72330 77395
L72274 77367
L72246 77339
L72218 77283
L72218 77114
L72246 77058
L72274 77030
L72330 77002
L72443 77002
L72499 77030
" />
<path d="M73230 77086
L73427 77086
" />
<path d="M73511 77395
L73230 77395
L73230 76805
L73511 76805
" />
<path d="M73764 77339
L73793 77367
L73764 77395
L73736 77367
L73764 77339
L73764 77395
" />
<path d="M74046 77395
L74046 76805
L74186 76805
L74271 76833
L74327 76889
L74355 76946
L74383 77058
L74383 77142
L74355 77255
L74327 77311
L74271 77367
L74186 77395
L74046 77395
" />
<path d="M74636 77339
L74664 77367
L74636 77395
L74608 77367
L74636 77339
L74636 77395
" />
<path d="M74889 77227
L75171 77227
" />
<path d="M74833 77395
L75030 76805
L75227 77395
" />
<path d="M75424 77339
L75452 77367
L75424 77395
L75395 77367
L75424 77339
L75424 77395
" />
<path d="M76605 77395
L76605 76805
" />
<path d="M76661 77171
L76830 77395
" />
<path d="M76830 77002
L76605 77227
" />
<path d="M77083 77395
L77083 77002
" />
<path d="M77083 76805
L77055 76833
L77083 76861
L77111 76833
L77083 76805
L77083 76861
" />
<path d="M77617 77367
L77561 77395
L77448 77395
L77392 77367
L77364 77339
L77336 77283
L77336 77114
L77364 77058
L77392 77030
L77448 77002
L77561 77002
L77617 77030
" />
<path d="M78123 77395
L78123 77086
L78095 77030
L78039 77002
L77926 77002
L77870 77030
" />
<path d="M78123 77367
L78067 77395
L77926 77395
L77870 77367
L77842 77311
L77842 77255
L77870 77199
L77926 77171
L78067 77171
L78123 77142
" />
<path d="M78658 77395
L78658 76805
" />
<path d="M78658 77367
L78601 77395
L78489 77395
L78433 77367
L78404 77339
L78376 77283
L78376 77114
L78404 77058
L78433 77030
L78489 77002
L78601 77002
L78658 77030
" />
<path d="M79670 76805
L79389 76805
L79361 77086
L79389 77058
L79445 77030
L79586 77030
L79642 77058
L79670 77086
L79698 77142
L79698 77283
L79670 77339
L79642 77367
L79586 77395
L79445 77395
L79389 77367
L79361 77339
" />
<path d="M79951 77339
L79979 77367
L79951 77395
L79923 77367
L79951 77339
L79951 77395
" />
<path d="M80542 77395
L80204 77395
" />
<path d="M80373 77395
L80373 76805
L80317 76889
L80260 76946
L80204 76974
" />
<path d="M80795 77339
L80823 77367
L80795 77395
L80767 77367
L80795 77339
L80795 77395
" />
<path d="M81357 76805
L81076 76805
L81048 77086
L81076 77058
L81132 77030
L81273 77030
L81329 77058
L81357 77086
L81385 77142
L81385 77283
L81357 77339
L81329 77367
L81273 77395
L81132 77395
L81076 77367
L81048 77339
" />
<path d="M81638 77171
L82088 77171
" />
<path d="M81863 77395
L81863 76946
" />
<path d="M82623 77395
L82623 76805
" />
<path d="M82623 77367
L82566 77395
L82454 77395
L82398 77367
L82370 77339
L82341 77283
L82341 77114
L82370 77058
L82398 77030
L82454 77002
L82566 77002
L82623 77030
" />
<path d="M82820 77002
L83045 77002
" />
<path d="M82904 77395
L82904 76889
L82932 76833
L82988 76805
L83045 76805
" />
<path d="M83213 77367
L83269 77395
L83382 77395
L83438 77367
L83466 77311
L83466 77283
L83438 77227
L83382 77199
L83298 77199
L83241 77171
L83213 77114
L83213 77086
L83241 77030
L83298 77002
L83382 77002
L83438 77030
" />
<path d="M83973 77002
L83973 77480
L83944 77536
L83916 77564
L83860 77592
L83776 77592
L83719 77564
" />
<path d="M83973 77367
L83916 77395
L83804 77395
L83748 77367
L83719 77339
L83691 77283
L83691 77114
L83719 77058
L83748 77030
L83804 77002
L83916 77002
L83973 77030
" />
<path d="M84563 77395
L84226 77395
" />
<path d="M84394 77395
L84394 76805
L84338 76889
L84282 76946
L84226 76974
" />
<path d="M84816 77171
L85266 77171
" />
<path d="M85519 76861
L85547 76833
L85604 76805
L85744 76805
L85800 76833
L85829 76861
L85857 76917
L85857 76974
L85829 77058
L85491 77395
L85857 77395
" />
<path d="M86110 77395
L86110 76805
" />
<path d="M86110 77030
L86166 77002
L86278 77002
L86335 77030
L86363 77058
L86391 77114
L86391 77283
L86363 77339
L86335 77367
L86278 77395
L86166 77395
L86110 77367
" />
<path d="M86897 77002
L86897 77395
" />
<path d="M86644 77002
L86644 77311
L86672 77367
L86728 77395
L86813 77395
L86869 77367
L86897 77339
" />
<path d="M87178 77395
L87178 77002
" />
<path d="M87178 76805
L87150 76833
L87178 76861
L87206 76833
L87178 76805
L87178 76861
" />
<path d="M87544 77395
L87488 77367
L87460 77311
L87460 76805
" />
<path d="M88022 77395
L88022 76805
" />
<path d="M88022 77367
L87966 77395
L87853 77395
L87797 77367
L87769 77339
L87741 77283
L87741 77114
L87769 77058
L87797 77030
L87853 77002
L87966 77002
L88022 77030
" />
<path d="M88275 76861
L88303 76833
L88359 76805
L88500 76805
L88556 76833
L88584 76861
L88613 76917
L88613 76974
L88584 77058
L88247 77395
L88613 77395
" />
</g>
<g style="fill:#000000; fill-opacity:0.0; 
stroke:#000000; stroke-width:39.3701; stroke-opacity:1; 
stroke-linecap:round; stroke-linejoin:round;">
</g>
<g style="fill:#000000; fill-opacity:0.0; 
stroke:#000000; stroke-width:59.0551; stroke-opacity:1; 
stroke-linecap:round; stroke-linejoin:round;">
<path d="M69685 75396
L112205 75396
" />
</g>
<g style="fill:#000000; fill-opacity:0.0; 
stroke:#000000; stroke-width:39.3701; stroke-opacity:1; 
stroke-linecap:round; stroke-linejoin:round;">
</g>
<g style="fill:#000000; fill-opacity:0.0; 
stroke:#000000; stroke-width:118.11; stroke-opacity:1; 
stroke-linecap:round; stroke-linejoin:round;">
<text x="103544" y="76321.7"
textLength="2336.9" font-size="787.402" lengthAdjust="spacingAndGlyphs"
text-anchor="start" opacity="0">Rev: </text>
<path d="M104099 76293
L103902 76012
" />
<path d="M103761 76293
L103761 75703
L103986 75703
L104042 75731
L104070 75759
L104099 75815
L104099 75899
L104070 75956
L104042 75984
L103986 76012
L103761 76012
" />
<path d="M104577 76265
L104520 76293
L104408 76293
L104352 76265
L104323 76209
L104323 75984
L104352 75928
L104408 75899
L104520 75899
L104577 75928
L104605 75984
L104605 76040
L104323 76096
" />
<path d="M104802 75899
L104942 76293
L105083 75899
" />
<path d="M105308 76237
L105336 76265
L105308 76293
L105280 76265
L105308 76237
L105308 76293
" />
<path d="M105308 75928
L105336 75956
L105308 75984
L105280 75956
L105308 75928
L105308 75984
" />
</g>
<g style="fill:#000000; fill-opacity:0.0; 
stroke:#000000; stroke-width:39.3701; stroke-opacity:1; 
stroke-linecap:round; stroke-linejoin:round;">
</g>
<g style="fill:#000000; fill-opacity:0.0; 
stroke:#000000; stroke-width:59.0551; stroke-opacity:1; 
stroke-linecap:round; stroke-linejoin:round;">
<text x="70079.6" y="76321.7"
textLength="3781.21" font-size="787.402" lengthAdjust="spacingAndGlyphs"
text-anchor="start" opacity="0">Size: A4</text>
<path d="M70221 76265
L70305 76293
L70446 76293
L70502 76265
L70530 76237
L70559 76181
L70559 76124
L70530 76068
L70502 76040
L70446 76012
L70334 75984
L70277 75956
L70249 75928
L70221 75871
L70221 75815
L70249 75759
L70277 75731
L70334 75703
L70474 75703
L70559 75731
" />
<path d="M70812 76293
L70812 75899
" />
<path d="M70812 75703
L70784 75731
L70812 75759
L70840 75731
L70812 75703
L70812 75759
" />
<path d="M71037 75899
L71346 75899
L71037 76293
L71346 76293
" />
<path d="M71796 76265
L71740 76293
L71627 76293
L71571 76265
L71543 76209
L71543 75984
L71571 75928
L71627 75899
L71740 75899
L71796 75928
L71824 75984
L71824 76040
L71543 76096
" />
<path d="M72077 76237
L72105 76265
L72077 76293
L72049 76265
L72077 76237
L72077 76293
" />
<path d="M72077 75928
L72105 75956
L72077 75984
L72049 75956
L72077 75928
L72077 75984
" />
<path d="M72780 76124
L73061 76124
" />
<path d="M72724 76293
L72921 75703
L73118 76293
" />
<path d="M73568 75899
L73568 76293
" />
<path d="M73427 75674
L73286 76096
L73652 76096
" />
</g>
<g style="fill:#000000; fill-opacity:0.0; 
stroke:#000000; stroke-width:39.3701; stroke-opacity:1; 
stroke-linecap:round; stroke-linejoin:round;">
</g>
<g style="fill:#000000; fill-opacity:0.0; 
stroke:#000000; stroke-width:59.0551; stroke-opacity:1; 
stroke-linecap:round; stroke-linejoin:round;">
<text x="103544" y="77424.1"
textLength="3349.27" font-size="787.402" lengthAdjust="spacingAndGlyphs"
text-anchor="start" opacity="0">Id: 1/1</text>
<path d="M103714 77395
L103714 76805
" />
<path d="M104248 77395
L104248 76805
" />
<path d="M104248 77367
L104192 77395
L104079 77395
L104023 77367
L103995 77339
L103967 77283
L103967 77114
L103995 77058
L104023 77030
L104079 77002
L104192 77002
L104248 77030
" />
<path d="M104529 77339
L104557 77367
L104529 77395
L104501 77367
L104529 77339
L104529 77395
" />
<path d="M104529 77030
L104557 77058
L104529 77086
L104501 77058
L104529 77030
L104529 77086
" />
<path d="M105570 77395
L105232 77395
" />
<path d="M105401 77395
L105401 76805
L105345 76889
L105289 76946
L105232 76974
" />
<path d="M106245 76777
L105739 77536
" />
<path d="M106751 77395
L106413 77395
" />
<path d="M106582 77395
L106582 76805
L106526 76889
L106470 76946
L106413 76974
" />
</g>
<g style="fill:#000000; fill-opacity:0.0; 
stroke:#000000; stroke-width:39.3701; stroke-opacity:1; 
stroke-linecap:round; stroke-linejoin:round;">
</g>
<g style="fill:#000000; fill-opacity:0.0; 
stroke:#000000; stroke-width:59.0551; stroke-opacity:1; 
stroke-linecap:round; stroke-linejoin:round;">
<path d="M69685 73821
L112205 73821
" />
</g>
<g style="fill:#000000; fill-opacity:0.0; 
stroke:#000000; stroke-width:39.3701; stroke-opacity:1; 
stroke-linecap:round; stroke-linejoin:round;">
</g>
<g style="fill:#000000; fill-opacity:0.0; 
stroke:#000000; stroke-width:157.48; stroke-opacity:1; 
stroke-linecap:round; stroke-linejoin:round;">
<text x="70079.6" y="74924.1"
textLength="3701.14" font-size="1049.87" lengthAdjust="spacingAndGlyphs"
text-anchor="start" opacity="0">Title: </text>
<path d="M70360 74099
L70810 74099
" />
<path d="M70486 74886
L70585 74099
" />
<path d="M70974 74886
L71039 74361
" />
<path d="M71072 74099
L71030 74136
L71063 74174
L71105 74136
L71072 74099
L71063 74174
" />
<path d="M71302 74361
L71602 74361
" />
<path d="M71447 74099
L71363 74774
L71391 74849
L71461 74886
L71536 74886
" />
<path d="M71911 74886
L71841 74849
L71813 74774
L71897 74099
" />
<path d="M72516 74849
L72436 74886
L72286 74886
L72216 74849
L72187 74774
L72225 74474
L72272 74399
L72352 74361
L72501 74361
L72572 74399
L72600 74474
L72591 74549
L72206 74624
" />
<path d="M72895 74811
L72928 74849
L72886 74886
L72853 74849
L72895 74811
L72886 74886
" />
<path d="M72947 74399
L72980 74436
L72937 74474
L72905 74436
L72947 74399
L72937 74474
" />
</g>
<g style="fill:#000000; fill-opacity:0.0; 
stroke:#000000; stroke-width:39.3701; stroke-opacity:1; 
stroke-linecap:round; stroke-linejoin:round;">
</g>
<g style="fill:#000000; fill-opacity:0.0; 
stroke:#000000; stroke-width:59.0551; stroke-opacity:1; 
stroke-linecap:round; stroke-linejoin:round;">
<text x="70079.6" y="73408.3"
textLength="12465.7" font-size="787.402" lengthAdjust="spacingAndGlyphs"
text-anchor="start" opacity="0">File: OpenDropV4.kicad_pcb</text>
<path d="M70446 73070
L70249 73070
" />
<path d="M70249 73380
L70249 72789
L70530 72789
" />
<path d="M70755 73380
L70755 72986
" />
<path d="M70755 72789
L70727 72817
L70755 72845
L70784 72817
L70755 72789
L70755 72845
" />
<path d="M71121 73380
L71065 73352
L71037 73295
L71037 72789
" />
<path d="M71571 73352
L71515 73380
L71402 73380
L71346 73352
L71318 73295
L71318 73070
L71346 73014
L71402 72986
L71515 72986
L71571 73014
L71599 73070
L71599 73127
L71318 73183
" />
<path d="M71852 73323
L71880 73352
L71852 73380
L71824 73352
L71852 73323
L71852 73380
" />
<path d="M71852 73014
L71880 73042
L71852 73070
L71824 73042
L71852 73014
L71852 73070
" />
<path d="M72696 72789
L72808 72789
L72865 72817
L72921 72874
L72949 72986
L72949 73183
L72921 73295
L72865 73352
L72808 73380
L72696 73380
L72640 73352
L72583 73295
L72555 73183
L72555 72986
L72583 72874
L72640 72817
L72696 72789
" />
<path d="M73202 72986
L73202 73577
" />
<path d="M73202 73014
L73258 72986
L73371 72986
L73427 73014
L73455 73042
L73483 73099
L73483 73267
L73455 73323
L73427 73352
L73371 73380
L73258 73380
L73202 73352
" />
<path d="M73961 73352
L73905 73380
L73793 73380
L73736 73352
L73708 73295
L73708 73070
L73736 73014
L73793 72986
L73905 72986
L73961 73014
L73989 73070
L73989 73127
L73708 73183
" />
<path d="M74242 72986
L74242 73380
" />
<path d="M74242 73042
L74271 73014
L74327 72986
L74411 72986
L74467 73014
L74496 73070
L74496 73380
" />
<path d="M74777 73380
L74777 72789
L74917 72789
L75002 72817
L75058 72874
L75086 72930
L75114 73042
L75114 73127
L75086 73239
L75058 73295
L75002 73352
L74917 73380
L74777 73380
" />
<path d="M75367 73380
L75367 72986
" />
<path d="M75367 73099
L75395 73042
L75424 73014
L75480 72986
L75536 72986
" />
<path d="M75817 73380
L75761 73352
L75733 73323
L75705 73267
L75705 73099
L75733 73042
L75761 73014
L75817 72986
L75902 72986
L75958 73014
L75986 73042
L76014 73099
L76014 73267
L75986 73323
L75958 73352
L75902 73380
L75817 73380
" />
<path d="M76267 72986
L76267 73577
" />
<path d="M76267 73014
L76323 72986
L76436 72986
L76492 73014
L76520 73042
L76548 73099
L76548 73267
L76520 73323
L76492 73352
L76436 73380
L76323 73380
L76267 73352
" />
<path d="M76717 72789
L76914 73380
L77111 72789
" />
<path d="M77561 72986
L77561 73380
" />
<path d="M77420 72761
L77280 73183
L77645 73183
" />
<path d="M77870 73323
L77898 73352
L77870 73380
L77842 73352
L77870 73323
L77870 73380
" />
<path d="M78151 73380
L78151 72789
" />
<path d="M78208 73155
L78376 73380
" />
<path d="M78376 72986
L78151 73211
" />
<path d="M78629 73380
L78629 72986
" />
<path d="M78629 72789
L78601 72817
L78629 72845
L78658 72817
L78629 72789
L78629 72845
" />
<path d="M79164 73352
L79108 73380
L78995 73380
L78939 73352
L78911 73323
L78883 73267
L78883 73099
L78911 73042
L78939 73014
L78995 72986
L79108 72986
L79164 73014
" />
<path d="M79670 73380
L79670 73070
L79642 73014
L79586 72986
L79473 72986
L79417 73014
" />
<path d="M79670 73352
L79614 73380
L79473 73380
L79417 73352
L79389 73295
L79389 73239
L79417 73183
L79473 73155
L79614 73155
L79670 73127
" />
<path d="M80204 73380
L80204 72789
" />
<path d="M80204 73352
L80148 73380
L80036 73380
L79979 73352
L79951 73323
L79923 73267
L79923 73099
L79951 73042
L79979 73014
L80036 72986
L80148 72986
L80204 73014
" />
<path d="M80345 73436
L80795 73436
" />
<path d="M80935 72986
L80935 73577
" />
<path d="M80935 73014
L80992 72986
L81104 72986
L81160 73014
L81188 73042
L81217 73099
L81217 73267
L81188 73323
L81160 73352
L81104 73380
L80992 73380
L80935 73352
" />
<path d="M81723 73352
L81667 73380
L81554 73380
L81498 73352
L81470 73323
L81442 73267
L81442 73099
L81470 73042
L81498 73014
L81554 72986
L81667 72986
L81723 73014
" />
<path d="M81976 73380
L81976 72789
" />
<path d="M81976 73014
L82032 72986
L82145 72986
L82201 73014
L82229 73042
L82257 73099
L82257 73267
L82229 73323
L82201 73352
L82145 73380
L82032 73380
L81976 73352
" />
</g>
<g style="fill:#000000; fill-opacity:0.0; 
stroke:#000000; stroke-width:39.3701; stroke-opacity:1; 
stroke-linecap:round; stroke-linejoin:round;">
</g>
<g style="fill:#000000; fill-opacity:0.0; 
stroke:#000000; stroke-width:59.0551; stroke-opacity:1; 
stroke-linecap:round; stroke-linejoin:round;">
<path d="M69685 71459
L112205 71459
" />
</g>
<g style="fill:#000000; fill-opacity:0.0; 
stroke:#000000; stroke-width:39.3701; stroke-opacity:1; 
stroke-linecap:round; stroke-linejoin:round;">
</g>
<g style="fill:#000000; fill-opacity:0.0; 
stroke:#000000; stroke-width:59.0551; stroke-opacity:1; 
stroke-linecap:round; stroke-linejoin:round;">
<text x="70079.6" y="72345.4"
textLength="3236.78" font-size="787.402" lengthAdjust="spacingAndGlyphs"
text-anchor="start" opacity="0">Sheet: </text>
<path d="M70221 72289
L70305 72317
L70446 72317
L70502 72289
L70530 72260
L70559 72204
L70559 72148
L70530 72092
L70502 72064
L70446 72036
L70334 72007
L70277 71979
L70249 71951
L70221 71895
L70221 71839
L70249 71782
L70277 71754
L70334 71726
L70474 71726
L70559 71754
" />
<path d="M70812 72317
L70812 71726
" />
<path d="M71065 72317
L71065 72007
L71037 71951
L70980 71923
L70896 71923
L70840 71951
L70812 71979
" />
<path d="M71571 72289
L71515 72317
L71402 72317
L71346 72289
L71318 72232
L71318 72007
L71346 71951
L71402 71923
L71515 71923
L71571 71951
L71599 72007
L71599 72064
L71318 72120
" />
<path d="M72077 72289
L72021 72317
L71908 72317
L71852 72289
L71824 72232
L71824 72007
L71852 71951
L71908 71923
L72021 71923
L72077 71951
L72105 72007
L72105 72064
L71824 72120
" />
<path d="M72274 71923
L72499 71923
" />
<path d="M72358 71726
L72358 72232
L72386 72289
L72443 72317
L72499 72317
" />
<path d="M72696 72260
L72724 72289
L72696 72317
L72668 72289
L72696 72260
L72696 72317
" />
<path d="M72696 71951
L72724 71979
L72696 72007
L72668 71979
L72696 71951
L72696 72007
" />
</g>
<g style="fill:#000000; fill-opacity:0.0; 
stroke:#000000; stroke-width:39.3701; stroke-opacity:1; 
stroke-linecap:round; stroke-linejoin:round;">
</g>
<g style="fill:#000000; fill-opacity:0.0; 
stroke:#000000; stroke-width:59.0551; stroke-opacity:1; 
stroke-linecap:round; stroke-linejoin:round;">
<path d="M77559 75396
L77559 76577
" />
</g>
<g style="fill:#000000; fill-opacity:0.0; 
stroke:#000000; stroke-width:39.3701; stroke-opacity:1; 
stroke-linecap:round; stroke-linejoin:round;">
</g>
<g style="fill:#000000; fill-opacity:0.0; 
stroke:#000000; stroke-width:59.0551; stroke-opacity:1; 
stroke-linecap:round; stroke-linejoin:round;">
<path d="M102756 75396
L102756 77955
" />
</g>
<g style="fill:#840084; fill-opacity:0.0; 
stroke:#840084; stroke-width:59.0551; stroke-opacity:1; 
stroke-linecap:round; stroke-linejoin:round;">
</g>
<g style="fill:#840084; fill-opacity:1.0; 
stroke:#840084; stroke-width:0; stroke-opacity:1; 
stroke-linecap:round; stroke-linejoin:round;">
<path style="fill:#840084; fill-opacity:1.0; 
stroke:#840084; stroke-width:0; stroke-opacity:1; 
stroke-linecap:round; stroke-linejoin:round;fill-rule:evenodd;"
d="M 40295.6,56210.7
40017.3,56489
39641.4,56113.2
39919.8,55834.8
Z" /> 
<path style="fill:#840084; fill-opacity:1.0; 
stroke:#840084; stroke-width:0; stroke-opacity:1; 
stroke-linecap:round; stroke-linejoin:round;fill-rule:evenodd;"
d="M 38771.5,55925.3
38270.4,56426.4
37713.6,55869.6
38214.7,55368.5
Z" /> 
<path style="fill:#840084; fill-opacity:1.0; 
stroke:#840084; stroke-width:0; stroke-opacity:1; 
stroke-linecap:round; stroke-linejoin:round;fill-rule:evenodd;"
d="M 61908.6,55178.9
61956.9,55188.5
62047.9,55226.2
62048.1,55226.3
62126.3,55278.6
62129.8,55280.9
62199.4,55350.6
62254.1,55432.5
62287.2,55512.4
62291.8,55523.4
62311,55620
62311,55718.5
62301.4,55766.8
62291.8,55815.1
62254.1,55906.1
62199.4,55988
62129.8,56057.7
62047.9,56112.4
62047.9,56112.4
62047.9,56112.4
62021.2,56123.4
61956.9,56150.1
61908.6,56159.7
61860.3,56169.3
61761.8,56169.3
61713.5,56159.7
61665.2,56150.1
61600.8,56123.4
61574.2,56112.4
61574.2,56112.4
61574.2,56112.4
61492.3,56057.7
61422.6,55988
61367.9,55906.1
61330.2,55815.1
61320.6,55766.8
61311,55718.5
61311,55620
61330.2,55523.4
61334.8,55512.4
61367.9,55432.5
61422.6,55350.6
61492.3,55280.9
61495.8,55278.6
61574,55226.3
61574.2,55226.2
61665.2,55188.5
61713.5,55178.9
61761.8,55169.3
61860.3,55169.3
Z" /> 
<path style="fill:#840084; fill-opacity:1.0; 
stroke:#840084; stroke-width:0; stroke-opacity:1; 
stroke-linecap:round; stroke-linejoin:round;fill-rule:evenodd;"
d="M 40692.3,55814
40414,56092.3
40038.1,55716.5
40316.5,55438.1
Z" /> 
<path style="fill:#840084; fill-opacity:1.0; 
stroke:#840084; stroke-width:0; stroke-opacity:1; 
stroke-linecap:round; stroke-linejoin:round;fill-rule:evenodd;"
d="M 17026.7,54785.2
17075,54794.8
17166,54832.5
17247.9,54887.2
17317.5,54956.9
17372.2,55038.8
17404.1,55115.8
17409.9,55129.7
17429.1,55226.2
17429.1,55226.3
17429.1,55324.8
17409.9,55421.4
17403,55438.1
17378.3,55497.7
17372.2,55512.4
17317.5,55594.3
17247.9,55664
17166,55718.7
17075,55756.4
17026.7,55766
16978.4,55775.6
16879.9,55775.6
16831.6,55766
16783.3,55756.4
16692.3,55718.7
16610.4,55664
16540.8,55594.3
16486,55512.4
16479.9,55497.7
16455.3,55438.1
16448.3,55421.4
16429.1,55324.8
16429.1,55226.3
16429.2,55226.2
16448.3,55129.7
16454.1,55115.8
16486,55038.8
16540.8,54956.9
16610.4,54887.2
16692.3,54832.5
16783.3,54794.8
16831.6,54785.2
16879.9,54775.6
16978.4,54775.6
Z" /> 
<path style="fill:#840084; fill-opacity:1.0; 
stroke:#840084; stroke-width:0; stroke-opacity:1; 
stroke-linecap:round; stroke-linejoin:round;fill-rule:evenodd;"
d="M 41089,55417.3
40810.7,55695.6
40434.8,55319.8
40713.2,55041.4
Z" /> 
<path style="fill:#840084; fill-opacity:1.0; 
stroke:#840084; stroke-width:0; stroke-opacity:1; 
stroke-linecap:round; stroke-linejoin:round;fill-rule:evenodd;"
d="M 51200.8,55570.9
50374,55570.9
50374,55019.7
51200.8,55019.7
Z" /> 
<path style="fill:#840084; fill-opacity:1.0; 
stroke:#840084; stroke-width:0; stroke-opacity:1; 
stroke-linecap:round; stroke-linejoin:round;fill-rule:evenodd;"
d="M 47263.8,55570.9
46437,55570.9
46437,55019.7
47263.8,55019.7
Z" /> 
<path style="fill:#840084; fill-opacity:1.0; 
stroke:#840084; stroke-width:0; stroke-opacity:1; 
stroke-linecap:round; stroke-linejoin:round;fill-rule:evenodd;"
d="M 28366.1,55570.9
27539.4,55570.9
27539.4,55019.7
28366.1,55019.7
Z" /> 
<path style="fill:#840084; fill-opacity:1.0; 
stroke:#840084; stroke-width:0; stroke-opacity:1; 
stroke-linecap:round; stroke-linejoin:round;fill-rule:evenodd;"
d="M 32303.1,55570.9
31476.4,55570.9
31476.4,55019.7
32303.1,55019.7
Z" /> 
<path style="fill:#840084; fill-opacity:1.0; 
stroke:#840084; stroke-width:0; stroke-opacity:1; 
stroke-linecap:round; stroke-linejoin:round;fill-rule:evenodd;"
d="M 38901.4,55100.2
38939,55115.8
38939,55115.8
38972.8,55138.4
39001.6,55167.2
39015.9,55188.5
39024.2,55201
39039.8,55238.6
39047.8,55278.6
39047.8,55319.3
39039.8,55359.2
39024.2,55396.8
39024.2,55396.8
39001.6,55430.7
38972.8,55459.5
38939,55482.1
38939,55482.1
38939,55482.1
38901.4,55497.7
38861.4,55505.6
38820.7,55505.6
38780.8,55497.7
38743.2,55482.1
38743.2,55482.1
38743.2,55482.1
38709.3,55459.5
38680.5,55430.7
38657.9,55396.8
38657.9,55396.8
38642.3,55359.2
38634.4,55319.3
38634.4,55278.6
38642.3,55238.6
38657.9,55201
38666.3,55188.5
38680.5,55167.2
38709.3,55138.4
38743.2,55115.8
38743.2,55115.8
38780.8,55100.2
38820.7,55092.2
38861.4,55092.2
Z" /> 
<path style="fill:#840084; fill-opacity:1.0; 
stroke:#840084; stroke-width:0; stroke-opacity:1; 
stroke-linecap:round; stroke-linejoin:round;fill-rule:evenodd;"
d="M 35773.6,54897.2
33726.4,54897.2
33726.4,53716.1
35773.6,53716.1
Z" /> 
<path style="fill:#840084; fill-opacity:1.0; 
stroke:#840084; stroke-width:0; stroke-opacity:1; 
stroke-linecap:round; stroke-linejoin:round;fill-rule:evenodd;"
d="M 38305.2,54220.2
38026.8,54498.6
37651,54122.7
37929.3,53844.4
Z" /> 
<path style="fill:#840084; fill-opacity:1.0; 
stroke:#840084; stroke-width:0; stroke-opacity:1; 
stroke-linecap:round; stroke-linejoin:round;fill-rule:evenodd;"
d="M 39942,54099.1
39968.9,54110.2
39985.7,54121.5
39993.1,54126.4
40013.6,54146.9
40029.8,54171.1
40035.6,54185.1
40040.9,54198
40046.6,54226.5
40046.6,54255.6
40040.9,54284.1
40029.8,54311
40013.6,54335.2
39993.1,54355.7
39968.9,54371.9
39968.9,54371.9
39968.9,54371.9
39942,54383
39913.5,54388.7
39884.4,54388.7
39855.9,54383
39829,54371.9
39829,54371.9
39829,54371.9
39804.8,54355.7
39784.3,54335.2
39768.1,54311
39757,54284.1
39751.3,54255.6
39751.3,54226.5
39757,54198
39762.3,54185.1
39768.1,54171.1
39784.3,54146.9
39804.8,54126.4
39812.2,54121.5
39829,54110.2
39855.9,54099.1
39884.4,54093.4
39913.5,54093.4
Z" /> 
<path style="fill:#840084; fill-opacity:1.0; 
stroke:#840084; stroke-width:0; stroke-opacity:1; 
stroke-linecap:round; stroke-linejoin:round;fill-rule:evenodd;"
d="M 41026.4,53670.4
40525.3,54171.5
39968.5,53614.7
40469.6,53113.6
Z" /> 
<path style="fill:#840084; fill-opacity:1.0; 
stroke:#840084; stroke-width:0; stroke-opacity:1; 
stroke-linecap:round; stroke-linejoin:round;fill-rule:evenodd;"
d="M 38701.9,53823.5
38423.5,54101.9
38047.7,53726
38326,53447.7
Z" /> 
<path style="fill:#840084; fill-opacity:1.0; 
stroke:#840084; stroke-width:0; stroke-opacity:1; 
stroke-linecap:round; stroke-linejoin:round;fill-rule:evenodd;"
d="M 51200.8,53799.2
50374,53799.2
50374,53248
51200.8,53248
Z" /> 
<path style="fill:#840084; fill-opacity:1.0; 
stroke:#840084; stroke-width:0; stroke-opacity:1; 
stroke-linecap:round; stroke-linejoin:round;fill-rule:evenodd;"
d="M 47263.8,53799.2
46437,53799.2
46437,53248
47263.8,53248
Z" /> 
<path style="fill:#840084; fill-opacity:1.0; 
stroke:#840084; stroke-width:0; stroke-opacity:1; 
stroke-linecap:round; stroke-linejoin:round;fill-rule:evenodd;"
d="M 32303.1,53799.2
31476.4,53799.2
31476.4,53248
32303.1,53248
Z" /> 
<path style="fill:#840084; fill-opacity:1.0; 
stroke:#840084; stroke-width:0; stroke-opacity:1; 
stroke-linecap:round; stroke-linejoin:round;fill-rule:evenodd;"
d="M 28366.1,53799.2
27539.4,53799.2
27539.4,53248
28366.1,53248
Z" /> 
<path style="fill:#840084; fill-opacity:1.0; 
stroke:#840084; stroke-width:0; stroke-opacity:1; 
stroke-linecap:round; stroke-linejoin:round;fill-rule:evenodd;"
d="M 39098.6,53426.8
38820.2,53705.2
38444.4,53329.3
38722.7,53051
Z" /> 
<path style="fill:#840084; fill-opacity:1.0; 
stroke:#840084; stroke-width:0; stroke-opacity:1; 
stroke-linecap:round; stroke-linejoin:round;fill-rule:evenodd;"
d="M 56876.7,52150.2
56991.3,52197.7
57094.5,52266.6
57182.2,52354.4
57251.1,52457.5
57298.6,52572.2
57322.8,52693.9
57322.8,52817.9
57298.6,52939.6
57251.1,53054.3
57182.2,53157.5
57094.5,53245.2
56991.3,53314.1
56876.7,53361.6
56755,53385.8
56630.9,53385.8
56509.2,53361.6
56394.5,53314.1
56291.4,53245.2
56203.6,53157.5
56134.7,53054.3
56087.2,52939.6
56063,52817.9
56063,52693.9
56087.2,52572.2
56134.7,52457.5
56203.6,52354.4
56291.4,52266.6
56394.5,52197.7
56509.2,52150.2
56630.9,52126
56755,52126
Z" /> 
<path style="fill:#840084; fill-opacity:1.0; 
stroke:#840084; stroke-width:0; stroke-opacity:1; 
stroke-linecap:round; stroke-linejoin:round;fill-rule:evenodd;"
d="M 22231,52150.2
22345.6,52197.7
22448.8,52266.6
22536.5,52354.4
22605.5,52457.5
22653,52572.2
22677.2,52693.9
22677.2,52817.9
22653,52939.6
22605.5,53054.3
22536.5,53157.5
22448.8,53245.2
22345.6,53314.1
22231,53361.6
22109.3,53385.8
21985.2,53385.8
21863.5,53361.6
21748.9,53314.1
21645.7,53245.2
21558,53157.5
21489,53054.3
21441.5,52939.6
21417.3,52817.9
21417.3,52693.9
21441.5,52572.2
21489,52457.5
21558,52354.4
21645.7,52266.6
21748.9,52197.7
21863.5,52150.2
21985.2,52126
22109.3,52126
Z" /> 
<path style="fill:#840084; fill-opacity:1.0; 
stroke:#840084; stroke-width:0; stroke-opacity:1; 
stroke-linecap:round; stroke-linejoin:round;fill-rule:evenodd;"
d="M 57971.6,50690.7
58019.9,50700.3
58063.4,50718.4
58109.3,50737.4
58110.9,50738
58136.7,50755.3
58181.4,50785.1
58192.7,50792.7
58262.4,50862.4
58317.1,50944.3
58354.8,51035.3
58374,51131.9
58374,51230.3
58354.8,51326.9
58317.1,51417.9
58262.4,51499.8
58192.7,51569.5
58110.9,51624.2
58019.9,51661.9
57971.6,51671.5
57923.3,51681.1
57824.8,51681.1
57776.5,51671.5
57728.2,51661.9
57637.2,51624.2
57555.3,51569.5
57485.6,51499.8
57430.9,51417.9
57393.2,51326.9
57374,51230.3
57374,51131.9
57393.2,51035.3
57430.9,50944.3
57485.6,50862.4
57555.3,50792.7
57566.7,50785.1
57611.3,50755.3
57637.2,50738
57638.7,50737.4
57684.6,50718.4
57728.2,50700.3
57776.5,50690.7
57824.8,50681.1
57923.3,50681.1
Z" /> 
<path style="fill:#840084; fill-opacity:1.0; 
stroke:#840084; stroke-width:0; stroke-opacity:1; 
stroke-linecap:round; stroke-linejoin:round;fill-rule:evenodd;"
d="M 20963.7,50690.7
21012,50700.3
21055.5,50718.4
21101.4,50737.4
21103,50738
21128.8,50755.3
21173.5,50785.1
21184.9,50792.7
21254.5,50862.4
21309.2,50944.3
21346.9,51035.3
21366.1,51131.9
21366.1,51230.3
21346.9,51326.9
21309.2,51417.9
21254.5,51499.8
21184.9,51569.5
21103,51624.2
21012,51661.9
20963.7,51671.5
20915.4,51681.1
20816.9,51681.1
20768.6,51671.5
20720.3,51661.9
20629.3,51624.2
20547.4,51569.5
20477.8,51499.8
20423,51417.9
20385.4,51326.9
20366.1,51230.3
20366.1,51131.9
20385.4,51035.3
20423,50944.3
20477.8,50862.4
20547.4,50792.7
20558.8,50785.1
20603.5,50755.3
20629.3,50738
20630.8,50737.4
20676.7,50718.4
20720.3,50700.3
20768.6,50690.7
20816.9,50681.1
20915.4,50681.1
Z" /> 
<path style="fill:#840084; fill-opacity:1.0; 
stroke:#840084; stroke-width:0; stroke-opacity:1; 
stroke-linecap:round; stroke-linejoin:round;fill-rule:evenodd;"
d="M 19595.6,51243.9
19606.9,51248.6
19613.6,51251.4
19629.7,51262.1
19643.4,51275.8
19654.2,51292
19661.6,51309.9
19665.4,51328.9
19665.4,51348.3
19661.6,51367.3
19654.2,51385.2
19643.4,51401.3
19629.7,51415
19613.6,51425.8
19606.9,51428.5
19595.6,51433.2
19576.6,51437
19557.2,51437
19538.2,51433.2
19526.9,51428.5
19520.3,51425.8
19504.2,51415
19490.5,51401.3
19479.7,51385.2
19472.3,51367.3
19468.5,51348.3
19468.5,51328.9
19472.3,51309.9
19479.7,51292
19490.5,51275.8
19504.2,51262.1
19520.3,51251.4
19526.9,51248.6
19538.2,51243.9
19557.2,51240.2
19576.6,51240.2
Z" /> 
<path style="fill:#840084; fill-opacity:1.0; 
stroke:#840084; stroke-width:0; stroke-opacity:1; 
stroke-linecap:round; stroke-linejoin:round;fill-rule:evenodd;"
d="M 59201.9,51243.9
59213.2,51248.6
59219.9,51251.4
59236,51262.1
59249.7,51275.8
59260.5,51292
59267.9,51309.9
59271.7,51328.9
59271.7,51348.3
59267.9,51367.3
59260.5,51385.2
59249.7,51401.3
59236,51415
59219.9,51425.8
59213.2,51428.5
59201.9,51433.2
59182.9,51437
59163.5,51437
59144.5,51433.2
59133.2,51428.5
59126.6,51425.8
59110.5,51415
59096.8,51401.3
59086,51385.2
59078.6,51367.3
59074.8,51348.3
59074.8,51328.9
59078.6,51309.9
59086,51292
59096.8,51275.8
59110.5,51262.1
59126.6,51251.4
59133.2,51248.6
59144.5,51243.9
59163.5,51240.2
59182.9,51240.2
Z" /> 
<path style="fill:#840084; fill-opacity:1.0; 
stroke:#840084; stroke-width:0; stroke-opacity:1; 
stroke-linecap:round; stroke-linejoin:round;fill-rule:evenodd;"
d="M 59201.9,50929
59213.2,50933.7
59219.9,50936.4
59236,50947.2
59249.7,50960.9
59260.5,50977
59267.9,50994.9
59271.7,51013.9
59271.7,51033.3
59267.9,51052.3
59260.5,51070.2
59249.7,51086.4
59236,51100.1
59219.9,51110.8
59213.2,51113.6
59201.9,51118.3
59182.9,51122
59163.5,51122
59144.5,51118.3
59133.2,51113.6
59126.6,51110.8
59110.5,51100.1
59096.8,51086.4
59086,51070.2
59078.6,51052.3
59074.8,51033.3
59074.8,51013.9
59078.6,50994.9
59086,50977
59096.8,50960.9
59110.5,50947.2
59126.6,50936.4
59133.2,50933.7
59144.5,50929
59163.5,50925.2
59182.9,50925.2
Z" /> 
<path style="fill:#840084; fill-opacity:1.0; 
stroke:#840084; stroke-width:0; stroke-opacity:1; 
stroke-linecap:round; stroke-linejoin:round;fill-rule:evenodd;"
d="M 19595.6,50929
19606.9,50933.7
19613.6,50936.4
19629.7,50947.2
19643.4,50960.9
19654.2,50977
19661.6,50994.9
19665.4,51013.9
19665.4,51033.3
19661.6,51052.3
19654.2,51070.2
19643.4,51086.4
19629.7,51100.1
19613.6,51110.8
19606.9,51113.6
19595.6,51118.3
19576.6,51122
19557.2,51122
19538.2,51118.3
19526.9,51113.6
19520.3,51110.8
19504.2,51100.1
19490.5,51086.4
19479.7,51070.2
19472.3,51052.3
19468.5,51033.3
19468.5,51013.9
19472.3,50994.9
19479.7,50977
19490.5,50960.9
19504.2,50947.2
19520.3,50936.4
19526.9,50933.7
19538.2,50929
19557.2,50925.2
19576.6,50925.2
Z" /> 
<path style="fill:#840084; fill-opacity:1.0; 
stroke:#840084; stroke-width:0; stroke-opacity:1; 
stroke-linecap:round; stroke-linejoin:round;fill-rule:evenodd;"
d="M 19595.6,50614
19606.9,50618.7
19613.6,50621.4
19629.7,50632.2
19643.4,50645.9
19654.2,50662
19654.2,50662
19661.6,50680
19665.4,50699
19665.4,50718.4
19661.6,50737.4
19656.9,50748.7
19654.2,50755.3
19643.4,50771.4
19629.7,50785.1
19613.6,50795.9
19606.9,50798.6
19595.6,50803.3
19576.6,50807.1
19557.2,50807.1
19538.2,50803.3
19526.9,50798.6
19520.3,50795.9
19504.2,50785.1
19490.5,50771.4
19479.7,50755.3
19477,50748.7
19472.3,50737.4
19468.5,50718.4
19468.5,50699
19472.3,50680
19479.7,50662
19479.7,50662
19490.5,50645.9
19504.2,50632.2
19520.3,50621.4
19526.9,50618.7
19538.2,50614
19557.2,50610.2
19576.6,50610.2
Z" /> 
<path style="fill:#840084; fill-opacity:1.0; 
stroke:#840084; stroke-width:0; stroke-opacity:1; 
stroke-linecap:round; stroke-linejoin:round;fill-rule:evenodd;"
d="M 59201.9,50614
59213.2,50618.7
59219.9,50621.4
59236,50632.2
59249.7,50645.9
59260.5,50662
59260.5,50662
59267.9,50680
59271.7,50699
59271.7,50718.4
59267.9,50737.4
59263.2,50748.7
59260.5,50755.3
59249.7,50771.4
59236,50785.1
59219.9,50795.9
59213.2,50798.6
59201.9,50803.3
59182.9,50807.1
59163.5,50807.1
59144.5,50803.3
59133.2,50798.6
59126.6,50795.9
59110.5,50785.1
59096.8,50771.4
59086,50755.3
59083.3,50748.7
59078.6,50737.4
59074.8,50718.4
59074.8,50699
59078.6,50680
59086,50662
59086,50662
59096.8,50645.9
59110.5,50632.2
59126.6,50621.4
59133.2,50618.7
59144.5,50614
59163.5,50610.2
59182.9,50610.2
Z" /> 
<path style="fill:#840084; fill-opacity:1.0; 
stroke:#840084; stroke-width:0; stroke-opacity:1; 
stroke-linecap:round; stroke-linejoin:round;fill-rule:evenodd;"
d="M 59201.9,50299.1
59213.2,50303.7
59219.9,50306.5
59236,50317.2
59249.7,50331
59260.5,50347.1
59267.9,50365
59271.7,50384
59271.7,50403.4
59267.9,50422.4
59260.5,50440.3
59249.7,50456.4
59236,50470.2
59219.9,50480.9
59213.2,50483.7
59201.9,50488.3
59182.9,50492.1
59163.5,50492.1
59144.5,50488.3
59133.2,50483.7
59126.6,50480.9
59110.5,50470.2
59096.8,50456.4
59086,50440.3
59078.6,50422.4
59074.8,50403.4
59074.8,50384
59078.6,50365
59086,50347.1
59096.8,50331
59110.5,50317.2
59126.6,50306.5
59133.2,50303.7
59144.5,50299.1
59163.5,50295.3
59182.9,50295.3
Z" /> 
<path style="fill:#840084; fill-opacity:1.0; 
stroke:#840084; stroke-width:0; stroke-opacity:1; 
stroke-linecap:round; stroke-linejoin:round;fill-rule:evenodd;"
d="M 19595.6,50299.1
19606.9,50303.7
19613.6,50306.5
19629.7,50317.2
19643.4,50331
19654.2,50347.1
19661.6,50365
19665.4,50384
19665.4,50403.4
19661.6,50422.4
19654.2,50440.3
19643.4,50456.4
19629.7,50470.2
19613.6,50480.9
19606.9,50483.7
19595.6,50488.3
19576.6,50492.1
19557.2,50492.1
19538.2,50488.3
19526.9,50483.7
19520.3,50480.9
19504.2,50470.2
19490.5,50456.4
19479.7,50440.3
19472.3,50422.4
19468.5,50403.4
19468.5,50384
19472.3,50365
19479.7,50347.1
19490.5,50331
19504.2,50317.2
19520.3,50306.5
19526.9,50303.7
19538.2,50299.1
19557.2,50295.3
19576.6,50295.3
Z" /> 
<path style="fill:#840084; fill-opacity:1.0; 
stroke:#840084; stroke-width:0; stroke-opacity:1; 
stroke-linecap:round; stroke-linejoin:round;fill-rule:evenodd;"
d="M 59201.9,49984.1
59213.2,49988.8
59219.9,49991.5
59236,50002.3
59249.7,50016
59260.5,50032.1
59267.9,50050
59271.7,50069
59271.7,50088.4
59267.9,50107.4
59260.5,50125.4
59249.7,50141.5
59236,50155.2
59219.9,50166
59213.2,50168.7
59201.9,50173.4
59182.9,50177.2
59163.5,50177.2
59144.5,50173.4
59133.2,50168.7
59126.6,50166
59110.5,50155.2
59096.8,50141.5
59086,50125.4
59078.6,50107.4
59074.8,50088.4
59074.8,50069
59078.6,50050
59086,50032.1
59096.8,50016
59110.5,50002.3
59126.6,49991.5
59133.2,49988.8
59144.5,49984.1
59163.5,49980.3
59182.9,49980.3
Z" /> 
<path style="fill:#840084; fill-opacity:1.0; 
stroke:#840084; stroke-width:0; stroke-opacity:1; 
stroke-linecap:round; stroke-linejoin:round;fill-rule:evenodd;"
d="M 19595.6,49984.1
19606.9,49988.8
19613.6,49991.5
19629.7,50002.3
19643.4,50016
19654.2,50032.1
19661.6,50050
19665.4,50069
19665.4,50088.4
19661.6,50107.4
19654.2,50125.4
19643.4,50141.5
19629.7,50155.2
19613.6,50166
19606.9,50168.7
19595.6,50173.4
19576.6,50177.2
19557.2,50177.2
19538.2,50173.4
19526.9,50168.7
19520.3,50166
19504.2,50155.2
19490.5,50141.5
19479.7,50125.4
19472.3,50107.4
19468.5,50088.4
19468.5,50069
19472.3,50050
19479.7,50032.1
19490.5,50016
19504.2,50002.3
19520.3,49991.5
19526.9,49988.8
19538.2,49984.1
19557.2,49980.3
19576.6,49980.3
Z" /> 
<path style="fill:#840084; fill-opacity:1.0; 
stroke:#840084; stroke-width:0; stroke-opacity:1; 
stroke-linecap:round; stroke-linejoin:round;fill-rule:evenodd;"
d="M 19595.6,49669.1
19606.9,49673.8
19613.6,49676.6
19629.7,49687.3
19643.4,49701
19654.2,49717.2
19661.6,49735.1
19665.4,49754.1
19665.4,49773.5
19661.6,49792.5
19654.2,49810.4
19643.4,49826.5
19629.7,49840.2
19613.6,49851
19606.9,49853.7
19595.6,49858.4
19576.6,49862.2
19557.2,49862.2
19538.2,49858.4
19526.9,49853.7
19520.3,49851
19504.2,49840.2
19490.5,49826.5
19479.7,49810.4
19472.3,49792.5
19468.5,49773.5
19468.5,49754.1
19472.3,49735.1
19479.7,49717.2
19490.5,49701
19504.2,49687.3
19520.3,49676.6
19526.9,49673.8
19538.2,49669.1
19557.2,49665.4
19576.6,49665.4
Z" /> 
<path style="fill:#840084; fill-opacity:1.0; 
stroke:#840084; stroke-width:0; stroke-opacity:1; 
stroke-linecap:round; stroke-linejoin:round;fill-rule:evenodd;"
d="M 59201.9,49669.1
59213.2,49673.8
59219.9,49676.6
59236,49687.3
59249.7,49701
59260.5,49717.2
59267.9,49735.1
59271.7,49754.1
59271.7,49773.5
59267.9,49792.5
59260.5,49810.4
59249.7,49826.5
59236,49840.2
59219.9,49851
59213.2,49853.7
59201.9,49858.4
59182.9,49862.2
59163.5,49862.2
59144.5,49858.4
59133.2,49853.7
59126.6,49851
59110.5,49840.2
59096.8,49826.5
59086,49810.4
59078.6,49792.5
59074.8,49773.5
59074.8,49754.1
59078.6,49735.1
59086,49717.2
59096.8,49701
59110.5,49687.3
59126.6,49676.6
59133.2,49673.8
59144.5,49669.1
59163.5,49665.4
59182.9,49665.4
Z" /> 
<path style="fill:#840084; fill-opacity:1.0; 
stroke:#840084; stroke-width:0; stroke-opacity:1; 
stroke-linecap:round; stroke-linejoin:round;fill-rule:evenodd;"
d="M 22556.6,48071.6
22653.3,48111.7
22653.3,48111.7
22697.2,48141
22740.4,48169.8
22814.4,48243.9
22872.6,48330.9
22912.6,48427.6
22933.1,48530.3
22933.1,48635
22912.6,48737.7
22872.6,48834.4
22872.6,48834.4
22814.4,48921.5
22740.4,48995.5
22653.3,49053.7
22653.3,49053.7
22653.3,49053.7
22556.6,49093.7
22453.9,49114.2
22349.2,49114.2
22246.5,49093.7
22149.8,49053.7
22149.8,49053.7
22149.8,49053.7
22062.8,48995.5
21988.7,48921.5
21930.6,48834.4
21930.6,48834.4
21890.5,48737.7
21870.1,48635
21870.1,48530.3
21890.5,48427.6
21930.6,48330.9
21988.7,48243.9
22062.8,48169.8
22106,48141
22149.8,48111.7
22149.8,48111.7
22246.5,48071.6
22349.2,48051.2
22453.9,48051.2
Z" /> 
<path style="fill:#840084; fill-opacity:1.0; 
stroke:#840084; stroke-width:0; stroke-opacity:1; 
stroke-linecap:round; stroke-linejoin:round;fill-rule:evenodd;"
d="M 56493.6,48071.6
56590.3,48111.7
56590.3,48111.7
56634.2,48141
56677.4,48169.8
56751.4,48243.9
56809.6,48330.9
56849.7,48427.6
56870.1,48530.3
56870.1,48635
56849.7,48737.7
56809.6,48834.4
56809.6,48834.4
56751.4,48921.5
56677.4,48995.5
56590.3,49053.7
56590.3,49053.7
56590.3,49053.7
56493.6,49093.7
56390.9,49114.2
56286.2,49114.2
56183.6,49093.7
56086.8,49053.7
56086.8,49053.7
56086.8,49053.7
55999.8,48995.5
55925.7,48921.5
55867.6,48834.4
55867.6,48834.4
55827.5,48737.7
55807.1,48635
55807.1,48530.3
55827.5,48427.6
55867.6,48330.9
55925.7,48243.9
55999.8,48169.8
56043,48141
56086.8,48111.7
56086.8,48111.7
56183.6,48071.6
56286.2,48051.2
56390.9,48051.2
Z" /> 
<path style="fill:#840084; fill-opacity:1.0; 
stroke:#840084; stroke-width:0; stroke-opacity:1; 
stroke-linecap:round; stroke-linejoin:round;fill-rule:evenodd;"
d="M 40470,48071.6
40566.7,48111.7
40566.7,48111.7
40610.5,48141
40653.8,48169.8
40727.8,48243.9
40786,48330.9
40826,48427.6
40846.5,48530.3
40846.5,48635
40826,48737.7
40786,48834.4
40786,48834.4
40727.8,48921.5
40653.8,48995.5
40566.7,49053.7
40566.7,49053.7
40566.7,49053.7
40470,49093.7
40367.3,49114.2
40262.6,49114.2
40159.9,49093.7
40063.2,49053.7
40063.2,49053.7
40063.2,49053.7
39976.2,48995.5
39902.1,48921.5
39844,48834.4
39844,48834.4
39803.9,48737.7
39783.5,48635
39783.5,48530.3
39803.9,48427.6
39844,48330.9
39902.1,48243.9
39976.2,48169.8
40019.4,48141
40063.2,48111.7
40063.2,48111.7
40159.9,48071.6
40262.6,48051.2
40367.3,48051.2
Z" /> 
<path style="fill:#840084; fill-opacity:1.0; 
stroke:#840084; stroke-width:0; stroke-opacity:1; 
stroke-linecap:round; stroke-linejoin:round;fill-rule:evenodd;"
d="M 56876.7,28528.1
56991.3,28575.6
57094.5,28644.6
57182.2,28732.3
57251.1,28835.5
57298.6,28950.1
57322.8,29071.8
57322.8,29195.9
57298.6,29317.6
57251.1,29432.2
57182.2,29535.4
57094.5,29623.2
56991.3,29692.1
56876.7,29739.6
56755,29763.8
56630.9,29763.8
56509.2,29739.6
56394.5,29692.1
56291.4,29623.2
56203.6,29535.4
56134.7,29432.2
56087.2,29317.6
56063,29195.9
56063,29071.8
56087.2,28950.1
56134.7,28835.5
56203.6,28732.3
56291.4,28644.6
56394.5,28575.6
56509.2,28528.1
56630.9,28503.9
56755,28503.9
Z" /> 
<path style="fill:#840084; fill-opacity:1.0; 
stroke:#840084; stroke-width:0; stroke-opacity:1; 
stroke-linecap:round; stroke-linejoin:round;fill-rule:evenodd;"
d="M 22231,28528.1
22345.6,28575.6
22448.8,28644.6
22536.5,28732.3
22605.5,28835.5
22653,28950.1
22677.2,29071.8
22677.2,29195.9
22653,29317.6
22605.5,29432.2
22536.5,29535.4
22448.8,29623.2
22345.6,29692.1
22231,29739.6
22109.3,29763.8
21985.2,29763.8
21863.5,29739.6
21748.9,29692.1
21645.7,29623.2
21558,29535.4
21489,29432.2
21441.5,29317.6
21417.3,29195.9
21417.3,29071.8
21441.5,28950.1
21489,28835.5
21558,28732.3
21645.7,28644.6
21748.9,28575.6
21863.5,28528.1
21985.2,28503.9
22109.3,28503.9
Z" /> 
<path style="fill:#840084; fill-opacity:1.0; 
stroke:#840084; stroke-width:0; stroke-opacity:1; 
stroke-linecap:round; stroke-linejoin:round;fill-rule:evenodd;"
d="M 59040.6,25433.1
57797.4,25433.1
57675.7,25408.9
57561.1,25361.4
57457.9,25292.4
57370.2,25204.7
57301.2,25101.5
57253.7,24986.9
57229.5,24865.2
57229.5,24741.1
57253.7,24619.4
57301.2,24504.8
57370.2,24401.6
57457.9,24313.9
57561.1,24244.9
57675.7,24197.4
57797.4,24173.2
59040.6,24173.2
Z" /> 
<path style="fill:#840084; fill-opacity:1.0; 
stroke:#840084; stroke-width:0; stroke-opacity:1; 
stroke-linecap:round; stroke-linejoin:round;fill-rule:evenodd;"
d="M 56201,25098.6
55610,25098.6
55610,24507.6
56201,24507.6
Z" /> 
<path style="fill:#840084; fill-opacity:1.0; 
stroke:#840084; stroke-width:0; stroke-opacity:1; 
stroke-linecap:round; stroke-linejoin:round;fill-rule:evenodd;"
d="M 53749.7,23598.3
53761.1,23601.8
53771.7,23607.4
53781,23615
53788.6,23624.3
53794.3,23634.9
53797.8,23646.4
53799.2,23660.8
53799.2,23906.9
53797.8,23921.3
53794.3,23932.8
53788.6,23943.4
53781,23952.7
53771.7,23960.3
53761.1,23966
53749.7,23969.5
53735.3,23970.9
53518.7,23970.9
53504.3,23969.5
53492.8,23966
53482.2,23960.3
53472.9,23952.7
53465.3,23943.4
53459.6,23932.8
53456.1,23921.3
53454.7,23906.9
53454.7,23660.8
53456.1,23646.4
53459.6,23634.9
53465.3,23624.3
53472.9,23615
53482.2,23607.4
53492.8,23601.8
53504.3,23598.3
53518.7,23596.9
53735.3,23596.9
Z" /> 
<path style="fill:#840084; fill-opacity:1.0; 
stroke:#840084; stroke-width:0; stroke-opacity:1; 
stroke-linecap:round; stroke-linejoin:round;fill-rule:evenodd;"
d="M 52401.2,23598.3
52412.7,23601.8
52423.3,23607.4
52432.6,23615
52440.2,23624.3
52445.9,23634.9
52449.4,23646.4
52450.8,23660.8
52450.8,23906.9
52449.4,23921.3
52445.9,23932.8
52440.2,23943.4
52432.6,23952.7
52423.3,23960.3
52412.7,23966
52401.2,23969.5
52386.9,23970.9
52170.2,23970.9
52155.9,23969.5
52144.4,23966
52133.8,23960.3
52124.5,23952.7
52116.9,23943.4
52111.2,23932.8
52107.7,23921.3
52106.3,23906.9
52106.3,23660.8
52107.7,23646.4
52111.2,23634.9
52116.9,23624.3
52124.5,23615
52133.8,23607.4
52144.4,23601.8
52155.9,23598.3
52170.2,23596.9
52386.9,23596.9
Z" /> 
<path style="fill:#840084; fill-opacity:1.0; 
stroke:#840084; stroke-width:0; stroke-opacity:1; 
stroke-linecap:round; stroke-linejoin:round;fill-rule:evenodd;"
d="M 51781.1,23598.3
51792.6,23601.8
51803.2,23607.4
51812.5,23615
51820.1,23624.3
51825.8,23634.9
51829.3,23646.4
51830.7,23660.8
51830.7,23906.9
51829.3,23921.3
51825.8,23932.8
51820.1,23943.4
51812.5,23952.7
51803.2,23960.3
51792.6,23966
51781.1,23969.5
51766.8,23970.9
51550.2,23970.9
51535.8,23969.5
51524.3,23966
51513.7,23960.3
51504.4,23952.7
51496.8,23943.4
51491.1,23932.8
51487.6,23921.3
51486.2,23906.9
51486.2,23660.8
51487.6,23646.4
51491.1,23634.9
51496.8,23624.3
51504.4,23615
51513.7,23607.4
51524.3,23601.8
51535.8,23598.3
51550.2,23596.9
51766.8,23596.9
Z" /> 
<path style="fill:#840084; fill-opacity:1.0; 
stroke:#840084; stroke-width:0; stroke-opacity:1; 
stroke-linecap:round; stroke-linejoin:round;fill-rule:evenodd;"
d="M 49812.6,23598.3
49824.1,23601.8
49834.7,23607.4
49844,23615
49851.6,23624.3
49857.3,23634.9
49860.8,23646.4
49862.2,23660.8
49862.2,23906.9
49860.8,23921.3
49857.3,23932.8
49851.6,23943.4
49844,23952.7
49834.7,23960.3
49824.1,23966
49812.6,23969.5
49798.3,23970.9
49581.6,23970.9
49567.3,23969.5
49555.8,23966
49545.2,23960.3
49535.9,23952.7
49528.3,23943.4
49522.6,23932.8
49519.1,23921.3
49517.7,23906.9
49517.7,23660.8
49519.1,23646.4
49522.6,23634.9
49528.3,23624.3
49535.9,23615
49545.2,23607.4
49555.8,23601.8
49567.3,23598.3
49581.6,23596.9
49798.3,23596.9
Z" /> 
<path style="fill:#840084; fill-opacity:1.0; 
stroke:#840084; stroke-width:0; stroke-opacity:1; 
stroke-linecap:round; stroke-linejoin:round;fill-rule:evenodd;"
d="M 50432.7,23598.3
50444.2,23601.8
50454.8,23607.4
50464.1,23615
50471.7,23624.3
50477.4,23634.9
50480.9,23646.4
50482.3,23660.8
50482.3,23906.9
50480.9,23921.3
50477.4,23932.8
50471.7,23943.4
50464.1,23952.7
50454.8,23960.3
50444.2,23966
50432.7,23969.5
50418.4,23970.9
50201.7,23970.9
50187.4,23969.5
50175.9,23966
50165.3,23960.3
50156,23952.7
50148.4,23943.4
50142.7,23932.8
50139.2,23921.3
50137.8,23906.9
50137.8,23660.8
50139.2,23646.4
50142.7,23634.9
50148.4,23624.3
50156,23615
50165.3,23607.4
50175.9,23601.8
50187.4,23598.3
50201.7,23596.9
50418.4,23596.9
Z" /> 
<path style="fill:#840084; fill-opacity:1.0; 
stroke:#840084; stroke-width:0; stroke-opacity:1; 
stroke-linecap:round; stroke-linejoin:round;fill-rule:evenodd;"
d="M 54369.7,23598.3
54381.2,23601.8
54391.8,23607.4
54401.1,23615
54408.7,23624.3
54414.4,23634.9
54417.9,23646.4
54419.3,23660.8
54419.3,23906.9
54417.9,23921.3
54414.4,23932.8
54408.7,23943.4
54401.1,23952.7
54391.8,23960.3
54381.2,23966
54369.7,23969.5
54355.4,23970.9
54138.7,23970.9
54124.4,23969.5
54112.9,23966
54102.3,23960.3
54093,23952.7
54085.4,23943.4
54079.7,23932.8
54076.2,23921.3
54074.8,23906.9
54074.8,23660.8
54076.2,23646.4
54079.7,23634.9
54085.4,23624.3
54093,23615
54102.3,23607.4
54112.9,23601.8
54124.4,23598.3
54138.7,23596.9
54355.4,23596.9
Z" /> 
<path style="fill:#840084; fill-opacity:1.0; 
stroke:#840084; stroke-width:0; stroke-opacity:1; 
stroke-linecap:round; stroke-linejoin:round;fill-rule:evenodd;"
d="M 23593.9,20985.6
23043.9,20985.6
23043.9,20435.6
23593.9,20435.6
Z" /> 
<path style="fill:#840084; fill-opacity:1.0; 
stroke:#840084; stroke-width:0; stroke-opacity:1; 
stroke-linecap:round; stroke-linejoin:round;fill-rule:evenodd;"
d="M 23399.1,19446.2
23449.2,19466.9
23449.2,19466.9
23494.2,19497
23532.5,19535.3
23562.6,19580.4
23562.6,19580.4
23583.3,19630.4
23593.9,19683.5
23593.9,19737.7
23583.3,19790.8
23562.6,19840.9
23562.6,19840.9
23532.5,19885.9
23494.2,19924.2
23449.2,19954.3
23449.2,19954.3
23449.2,19954.3
23399.1,19975.1
23346,19985.6
23291.8,19985.6
23238.7,19975.1
23188.6,19954.3
23188.6,19954.3
23188.6,19954.3
23143.6,19924.2
23105.3,19885.9
23075.2,19840.9
23075.2,19840.9
23054.5,19790.8
23043.9,19737.7
23043.9,19683.5
23054.5,19630.4
23075.2,19580.4
23075.2,19580.4
23105.3,19535.3
23143.6,19497
23188.6,19466.9
23188.6,19466.9
23238.7,19446.2
23291.8,19435.6
23346,19435.6
Z" /> 
<path style="fill:#840084; fill-opacity:1.0; 
stroke:#840084; stroke-width:0; stroke-opacity:1; 
stroke-linecap:round; stroke-linejoin:round;fill-rule:evenodd;"
d="M 23399.1,18446.2
23449.2,18466.9
23449.2,18466.9
23494.2,18497
23532.5,18535.3
23562.6,18580.4
23562.6,18580.4
23583.3,18630.4
23593.9,18683.5
23593.9,18737.7
23583.3,18790.8
23562.6,18840.9
23562.6,18840.9
23532.5,18885.9
23494.2,18924.2
23449.2,18954.3
23449.2,18954.3
23449.2,18954.3
23399.1,18975.1
23346,18985.6
23291.8,18985.6
23238.7,18975.1
23188.6,18954.3
23188.6,18954.3
23188.6,18954.3
23143.6,18924.2
23105.3,18885.9
23075.2,18840.9
23075.2,18840.9
23054.5,18790.8
23043.9,18737.7
23043.9,18683.5
23054.5,18630.4
23075.2,18580.4
23075.2,18580.4
23105.3,18535.3
23143.6,18497
23188.6,18466.9
23188.6,18466.9
23238.7,18446.2
23291.8,18435.6
23346,18435.6
Z" /> 
<path style="fill:#840084; fill-opacity:1.0; 
stroke:#840084; stroke-width:0; stroke-opacity:1; 
stroke-linecap:round; stroke-linejoin:round;fill-rule:evenodd;"
d="M 59201.9,16834.5
59213.2,16839.2
59219.9,16841.9
59236,16852.7
59249.7,16866.4
59260.5,16882.5
59267.9,16900.4
59271.7,16919.4
59271.7,16938.8
59267.9,16957.8
59260.5,16975.8
59249.7,16991.9
59236,17005.6
59219.9,17016.4
59213.2,17019.1
59201.9,17023.8
59182.9,17027.6
59163.5,17027.6
59144.5,17023.8
59133.2,17019.1
59126.6,17016.4
59110.5,17005.6
59096.8,16991.9
59086,16975.8
59078.6,16957.8
59074.8,16938.8
59074.8,16919.4
59078.6,16900.4
59086,16882.5
59096.8,16866.4
59110.5,16852.7
59126.6,16841.9
59133.2,16839.2
59144.5,16834.5
59163.5,16830.7
59182.9,16830.7
Z" /> 
<path style="fill:#840084; fill-opacity:1.0; 
stroke:#840084; stroke-width:0; stroke-opacity:1; 
stroke-linecap:round; stroke-linejoin:round;fill-rule:evenodd;"
d="M 19595.6,16834.5
19606.9,16839.2
19613.6,16841.9
19629.7,16852.7
19643.4,16866.4
19654.2,16882.5
19661.6,16900.4
19665.4,16919.4
19665.4,16938.8
19661.6,16957.8
19654.2,16975.8
19643.4,16991.9
19629.7,17005.6
19613.6,17016.4
19606.9,17019.1
19595.6,17023.8
19576.6,17027.6
19557.2,17027.6
19538.2,17023.8
19526.9,17019.1
19520.3,17016.4
19504.2,17005.6
19490.5,16991.9
19479.7,16975.8
19472.3,16957.8
19468.5,16938.8
19468.5,16919.4
19472.3,16900.4
19479.7,16882.5
19490.5,16866.4
19504.2,16852.7
19520.3,16841.9
19526.9,16839.2
19538.2,16834.5
19557.2,16830.7
19576.6,16830.7
Z" /> 
<path style="fill:#840084; fill-opacity:1.0; 
stroke:#840084; stroke-width:0; stroke-opacity:1; 
stroke-linecap:round; stroke-linejoin:round;fill-rule:evenodd;"
d="M 59201.9,16519.5
59213.2,16524.2
59219.9,16527
59236,16537.7
59249.7,16551.4
59260.5,16567.6
59267.9,16585.5
59271.7,16604.5
59271.7,16623.9
59267.9,16642.9
59260.5,16660.8
59249.7,16676.9
59236,16690.6
59219.9,16701.4
59213.2,16704.1
59201.9,16708.8
59182.9,16712.6
59163.5,16712.6
59144.5,16708.8
59133.2,16704.1
59126.6,16701.4
59110.5,16690.6
59096.8,16676.9
59086,16660.8
59078.6,16642.9
59074.8,16623.9
59074.8,16604.5
59078.6,16585.5
59086,16567.6
59096.8,16551.4
59110.5,16537.7
59126.6,16527
59133.2,16524.2
59144.5,16519.5
59163.5,16515.7
59182.9,16515.7
Z" /> 
<path style="fill:#840084; fill-opacity:1.0; 
stroke:#840084; stroke-width:0; stroke-opacity:1; 
stroke-linecap:round; stroke-linejoin:round;fill-rule:evenodd;"
d="M 19595.6,16519.5
19606.9,16524.2
19613.6,16527
19629.7,16537.7
19643.4,16551.4
19654.2,16567.6
19661.6,16585.5
19665.4,16604.5
19665.4,16623.9
19661.6,16642.9
19654.2,16660.8
19643.4,16676.9
19629.7,16690.6
19613.6,16701.4
19606.9,16704.1
19595.6,16708.8
19576.6,16712.6
19557.2,16712.6
19538.2,16708.8
19526.9,16704.1
19520.3,16701.4
19504.2,16690.6
19490.5,16676.9
19479.7,16660.8
19472.3,16642.9
19468.5,16623.9
19468.5,16604.5
19472.3,16585.5
19479.7,16567.6
19490.5,16551.4
19504.2,16537.7
19520.3,16527
19526.9,16524.2
19538.2,16519.5
19557.2,16515.7
19576.6,16515.7
Z" /> 
<path style="fill:#840084; fill-opacity:1.0; 
stroke:#840084; stroke-width:0; stroke-opacity:1; 
stroke-linecap:round; stroke-linejoin:round;fill-rule:evenodd;"
d="M 59201.9,16204.6
59213.2,16209.2
59219.9,16212
59236,16222.8
59249.7,16236.5
59260.5,16252.6
59267.9,16270.5
59271.7,16289.5
59271.7,16308.9
59267.9,16327.9
59260.5,16345.8
59249.7,16362
59236,16375.7
59219.9,16386.4
59213.2,16389.2
59201.9,16393.9
59182.9,16397.6
59163.5,16397.6
59144.5,16393.9
59133.2,16389.2
59126.6,16386.4
59110.5,16375.7
59096.8,16362
59086,16345.8
59078.6,16327.9
59074.8,16308.9
59074.8,16289.5
59078.6,16270.5
59086,16252.6
59096.8,16236.5
59110.5,16222.8
59126.6,16212
59133.2,16209.2
59144.5,16204.6
59163.5,16200.8
59182.9,16200.8
Z" /> 
<path style="fill:#840084; fill-opacity:1.0; 
stroke:#840084; stroke-width:0; stroke-opacity:1; 
stroke-linecap:round; stroke-linejoin:round;fill-rule:evenodd;"
d="M 19595.6,16204.6
19606.9,16209.2
19613.6,16212
19629.7,16222.8
19643.4,16236.5
19654.2,16252.6
19661.6,16270.5
19665.4,16289.5
19665.4,16308.9
19661.6,16327.9
19654.2,16345.8
19643.4,16362
19629.7,16375.7
19613.6,16386.4
19606.9,16389.2
19595.6,16393.9
19576.6,16397.6
19557.2,16397.6
19538.2,16393.9
19526.9,16389.2
19520.3,16386.4
19504.2,16375.7
19490.5,16362
19479.7,16345.8
19472.3,16327.9
19468.5,16308.9
19468.5,16289.5
19472.3,16270.5
19479.7,16252.6
19490.5,16236.5
19504.2,16222.8
19520.3,16212
19526.9,16209.2
19538.2,16204.6
19557.2,16200.8
19576.6,16200.8
Z" /> 
<path style="fill:#840084; fill-opacity:1.0; 
stroke:#840084; stroke-width:0; stroke-opacity:1; 
stroke-linecap:round; stroke-linejoin:round;fill-rule:evenodd;"
d="M 59201.9,15889.6
59213.2,15894.3
59219.9,15897
59236,15907.8
59249.7,15921.5
59260.5,15937.6
59263.2,15944.2
59267.9,15955.5
59271.4,15973.4
59271.7,15974.6
59271.7,15993.9
59267.9,16013
59260.5,16030.9
59249.7,16047
59236,16060.7
59219.9,16071.5
59213.2,16074.2
59201.9,16078.9
59182.9,16082.7
59163.5,16082.7
59144.5,16078.9
59133.2,16074.2
59126.6,16071.5
59110.5,16060.7
59096.8,16047
59086,16030.9
59078.6,16013
59074.8,15993.9
59074.8,15974.6
59075,15973.4
59078.6,15955.5
59083.3,15944.2
59086,15937.6
59096.8,15921.5
59110.5,15907.8
59126.6,15897
59133.2,15894.3
59144.5,15889.6
59163.5,15885.8
59182.9,15885.8
Z" /> 
<path style="fill:#840084; fill-opacity:1.0; 
stroke:#840084; stroke-width:0; stroke-opacity:1; 
stroke-linecap:round; stroke-linejoin:round;fill-rule:evenodd;"
d="M 19595.6,15889.6
19606.9,15894.3
19613.6,15897
19629.7,15907.8
19643.4,15921.5
19654.2,15937.6
19656.9,15944.2
19661.6,15955.5
19665.1,15973.4
19665.4,15974.6
19665.4,15993.9
19661.6,16013
19654.2,16030.9
19643.4,16047
19629.7,16060.7
19613.6,16071.5
19606.9,16074.2
19595.6,16078.9
19576.6,16082.7
19557.2,16082.7
19538.2,16078.9
19526.9,16074.2
19520.3,16071.5
19504.2,16060.7
19490.5,16047
19479.7,16030.9
19472.3,16013
19468.5,15993.9
19468.5,15974.6
19468.7,15973.4
19472.3,15955.5
19477,15944.2
19479.7,15937.6
19490.5,15921.5
19504.2,15907.8
19520.3,15897
19526.9,15894.3
19538.2,15889.6
19557.2,15885.8
19576.6,15885.8
Z" /> 
<path style="fill:#840084; fill-opacity:1.0; 
stroke:#840084; stroke-width:0; stroke-opacity:1; 
stroke-linecap:round; stroke-linejoin:round;fill-rule:evenodd;"
d="M 53470,15724.3
53494.1,15731.6
53516.3,15743.5
53535.8,15759.5
53551.8,15779
53563.7,15801.2
53571,15825.3
53573.5,15850.4
53571,15875.5
53563.7,15899.6
53551.8,15921.8
53535.8,15941.3
53516.3,15957.3
53494.1,15969.2
53470,15976.5
53451.2,15978.3
53320.5,15978.3
53301.7,15976.5
53277.6,15969.2
53255.3,15957.3
53235.9,15941.3
53219.9,15921.8
53208,15899.6
53200.7,15875.5
53198.2,15850.4
53200.7,15825.3
53208,15801.2
53219.9,15779
53235.9,15759.5
53255.3,15743.5
53277.6,15731.6
53301.7,15724.3
53320.5,15722.4
53451.2,15722.4
Z" /> 
<path style="fill:#840084; fill-opacity:1.0; 
stroke:#840084; stroke-width:0; stroke-opacity:1; 
stroke-linecap:round; stroke-linejoin:round;fill-rule:evenodd;"
d="M 50588.5,15727.4
50611.8,15737
50632.7,15751
50650.6,15768.8
50664.6,15789.8
50674.2,15813.1
50679.1,15837.8
50679.1,15863
50674.2,15887.7
50664.6,15911
50650.6,15932
50632.7,15949.8
50611.8,15963.8
50588.5,15973.4
50563.8,15978.3
50538.6,15978.3
50513.9,15973.4
50490.6,15963.8
50469.6,15949.8
50451.8,15932
50437.8,15911
50428.1,15887.7
50423.2,15863
50423.2,15837.8
50428.1,15813.1
50437.8,15789.8
50451.8,15768.8
50469.6,15751
50490.6,15737
50513.9,15727.4
50538.6,15722.4
50563.8,15722.4
Z" /> 
<path style="fill:#840084; fill-opacity:1.0; 
stroke:#840084; stroke-width:0; stroke-opacity:1; 
stroke-linecap:round; stroke-linejoin:round;fill-rule:evenodd;"
d="M 59201.9,15574.6
59213.2,15579.3
59219.9,15582.1
59236,15592.8
59249.7,15606.5
59260.5,15622.7
59267.9,15640.6
59271.7,15659.6
59271.7,15679
59267.9,15698
59260.5,15715.9
59249.7,15732
59236,15745.7
59219.9,15756.5
59213.2,15759.3
59201.9,15763.9
59182.9,15767.7
59163.5,15767.7
59144.5,15763.9
59133.2,15759.3
59126.6,15756.5
59110.5,15745.7
59096.8,15732
59086,15715.9
59078.6,15698
59074.8,15679
59074.8,15659.6
59078.6,15640.6
59086,15622.7
59096.8,15606.5
59110.5,15592.8
59126.6,15582.1
59133.2,15579.3
59144.5,15574.6
59163.5,15570.9
59182.9,15570.9
Z" /> 
<path style="fill:#840084; fill-opacity:1.0; 
stroke:#840084; stroke-width:0; stroke-opacity:1; 
stroke-linecap:round; stroke-linejoin:round;fill-rule:evenodd;"
d="M 19595.6,15574.6
19606.9,15579.3
19613.6,15582.1
19629.7,15592.8
19643.4,15606.5
19654.2,15622.7
19661.6,15640.6
19665.4,15659.6
19665.4,15679
19661.6,15698
19654.2,15715.9
19643.4,15732
19629.7,15745.7
19613.6,15756.5
19606.9,15759.3
19595.6,15763.9
19576.6,15767.7
19557.2,15767.7
19538.2,15763.9
19526.9,15759.3
19520.3,15756.5
19504.2,15745.7
19490.5,15732
19479.7,15715.9
19472.3,15698
19468.5,15679
19468.5,15659.6
19472.3,15640.6
19479.7,15622.7
19490.5,15606.5
19504.2,15592.8
19520.3,15582.1
19526.9,15579.3
19538.2,15574.6
19557.2,15570.9
19576.6,15570.9
Z" /> 
<path style="fill:#840084; fill-opacity:1.0; 
stroke:#840084; stroke-width:0; stroke-opacity:1; 
stroke-linecap:round; stroke-linejoin:round;fill-rule:evenodd;"
d="M 50373.4,15085
50403.1,15094
50428.5,15107.6
50430.4,15108.6
50454.4,15128.3
50474.1,15152.2
50488.7,15179.6
50497.7,15209.3
50500,15232.4
50500,15484.1
50497.7,15507.2
50488.7,15536.9
50474.1,15564.3
50454.4,15588.3
50430.4,15608
50403.1,15622.6
50373.4,15631.6
50342.5,15634.6
50311.6,15631.6
50282,15622.6
50254.6,15608
50230.6,15588.3
50210.9,15564.3
50196.3,15536.9
50187.3,15507.2
50186.6,15499.6
50185,15484.1
50185,15232.4
50187.3,15209.3
50187.3,15209.3
50196.3,15179.6
50210.9,15152.2
50210.9,15152.2
50230.6,15128.3
50254.6,15108.6
50254.6,15108.6
50254.6,15108.6
50282,15094
50311.6,15085
50342.5,15081.9
Z" /> 
<path style="fill:#840084; fill-opacity:1.0; 
stroke:#840084; stroke-width:0; stroke-opacity:1; 
stroke-linecap:round; stroke-linejoin:round;fill-rule:evenodd;"
d="M 53625.4,15085
53655,15094
53680.5,15107.6
53682.4,15108.6
53706.4,15128.3
53726.1,15152.2
53740.7,15179.6
53749.7,15209.3
53752,15232.4
53752,15484.1
53749.7,15507.2
53740.7,15536.9
53726.1,15564.3
53706.4,15588.3
53682.4,15608
53655,15622.6
53625.4,15631.6
53594.5,15634.6
53563.6,15631.6
53533.9,15622.6
53506.6,15608
53482.6,15588.3
53462.9,15564.3
53448.3,15536.9
53439.3,15507.2
53438.5,15499.6
53437,15484.1
53437,15232.4
53439.3,15209.3
53439.3,15209.3
53448.3,15179.6
53462.9,15152.2
53462.9,15152.2
53482.6,15128.3
53506.6,15108.6
53506.6,15108.6
53506.6,15108.6
53533.9,15094
53563.6,15085
53594.5,15081.9
Z" /> 
<path style="fill:#840084; fill-opacity:1.0; 
stroke:#840084; stroke-width:0; stroke-opacity:1; 
stroke-linecap:round; stroke-linejoin:round;fill-rule:evenodd;"
d="M 19595.6,15259.7
19606.9,15264.4
19613.6,15267.1
19629.7,15277.9
19643.4,15291.6
19654.2,15307.7
19661.6,15325.6
19665.4,15344.6
19665.4,15364
19661.6,15383
19654.2,15401
19643.4,15417.1
19629.7,15430.8
19613.6,15441.6
19606.9,15444.3
19595.6,15449
19576.6,15452.8
19557.2,15452.8
19538.2,15449
19526.9,15444.3
19520.3,15441.6
19504.2,15430.8
19490.5,15417.1
19479.7,15401
19472.3,15383
19468.5,15364
19468.5,15344.6
19472.3,15325.6
19479.7,15307.7
19490.5,15291.6
19504.2,15277.9
19520.3,15267.1
19526.9,15264.4
19538.2,15259.7
19557.2,15255.9
19576.6,15255.9
Z" /> 
<path style="fill:#840084; fill-opacity:1.0; 
stroke:#840084; stroke-width:0; stroke-opacity:1; 
stroke-linecap:round; stroke-linejoin:round;fill-rule:evenodd;"
d="M 59201.9,15259.7
59213.2,15264.4
59219.9,15267.1
59236,15277.9
59249.7,15291.6
59260.5,15307.7
59267.9,15325.6
59271.7,15344.6
59271.7,15364
59267.9,15383
59260.5,15401
59249.7,15417.1
59236,15430.8
59219.9,15441.6
59213.2,15444.3
59201.9,15449
59182.9,15452.8
59163.5,15452.8
59144.5,15449
59133.2,15444.3
59126.6,15441.6
59110.5,15430.8
59096.8,15417.1
59086,15401
59078.6,15383
59074.8,15364
59074.8,15344.6
59078.6,15325.6
59086,15307.7
59096.8,15291.6
59110.5,15277.9
59126.6,15267.1
59133.2,15264.4
59144.5,15259.7
59163.5,15255.9
59182.9,15255.9
Z" /> 
<path style="fill:#840084; fill-opacity:1.0; 
stroke:#840084; stroke-width:0; stroke-opacity:1; 
stroke-linecap:round; stroke-linejoin:round;fill-rule:evenodd;"
d="M 61908.6,13682.8
61956.9,13692.4
62047.9,13730.1
62089.1,13757.7
62113.8,13774.2
62129.8,13784.9
62199.4,13854.5
62254.1,13936.4
62291.8,14027.4
62311,14124
62311,14222.5
62291.8,14319.1
62254.1,14410.1
62199.4,14492
62129.8,14561.6
62047.9,14616.3
61956.9,14654
61908.6,14663.6
61860.3,14673.2
61761.8,14673.2
61713.5,14663.6
61665.2,14654
61574.2,14616.3
61492.3,14561.6
61422.6,14492
61367.9,14410.1
61330.2,14319.1
61311,14222.5
61311,14124
61330.2,14027.4
61367.9,13936.4
61422.6,13854.5
61492.3,13784.9
61508.2,13774.2
61533,13757.7
61574.2,13730.1
61665.2,13692.4
61713.5,13682.8
61761.8,13673.2
61860.3,13673.2
Z" /> 
<path style="fill:#840084; fill-opacity:1.0; 
stroke:#840084; stroke-width:0; stroke-opacity:1; 
stroke-linecap:round; stroke-linejoin:round;fill-rule:evenodd;"
d="M 17026.7,13682.8
17075,13692.4
17166,13730.1
17207.2,13757.7
17231.9,13774.2
17247.9,13784.9
17317.5,13854.5
17372.2,13936.4
17409.9,14027.4
17429.1,14124
17429.1,14222.5
17409.9,14319.1
17372.2,14410.1
17317.5,14492
17247.9,14561.6
17166,14616.3
17075,14654
17026.7,14663.6
16978.4,14673.2
16879.9,14673.2
16831.6,14663.6
16783.3,14654
16692.3,14616.3
16610.4,14561.6
16540.8,14492
16486,14410.1
16448.3,14319.1
16429.1,14222.5
16429.1,14124
16448.3,14027.4
16486,13936.4
16540.8,13854.5
16610.4,13784.9
16626.3,13774.2
16651.1,13757.7
16692.3,13730.1
16783.3,13692.4
16831.6,13682.8
16879.9,13673.2
16978.4,13673.2
Z" /> 
<path style="fill:#840084; fill-opacity:1.0; 
stroke:#840084; stroke-width:0; stroke-opacity:1; 
stroke-linecap:round; stroke-linejoin:round;fill-rule:evenodd;"
d="M 57971.6,12895.4
58019.9,12905
58110.9,12942.7
58192.7,12997.5
58262.4,13067.1
58317.1,13149
58347.3,13221.8
58354.8,13240
58374,13336.6
58374,13435.1
58354.8,13531.7
58317.1,13622.7
58262.4,13704.6
58192.7,13774.2
58176.8,13784.9
58110.9,13828.9
58019.9,13866.6
57971.6,13876.2
57923.3,13885.8
57824.8,13885.8
57776.5,13876.2
57728.2,13866.6
57637.2,13828.9
57571.2,13784.9
57555.3,13774.2
57485.6,13704.6
57430.9,13622.7
57393.2,13531.7
57374,13435.1
57374,13336.6
57393.2,13240
57400.8,13221.8
57430.9,13149
57485.6,13067.1
57555.3,12997.5
57637.2,12942.7
57728.2,12905
57776.5,12895.4
57824.8,12885.8
57923.3,12885.8
Z" /> 
<path style="fill:#840084; fill-opacity:1.0; 
stroke:#840084; stroke-width:0; stroke-opacity:1; 
stroke-linecap:round; stroke-linejoin:round;fill-rule:evenodd;"
d="M 53767.1,12742.4
53796.8,12751.4
53822.2,12765.1
53824.1,12766.1
53848.1,12785.7
53867.8,12809.7
53882.4,12837.1
53891.4,12866.8
53893.7,12889.9
53893.7,13141.6
53891.4,13164.7
53882.4,13194.4
53867.8,13221.8
53848.1,13245.8
53824.1,13265.4
53796.8,13280.1
53767.1,13289.1
53736.2,13292.1
53705.3,13289.1
53675.7,13280.1
53648.3,13265.4
53624.3,13245.8
53604.6,13221.8
53590,13194.4
53581,13164.7
53579.5,13149
53578.7,13141.6
53578.7,12889.9
53581,12866.8
53581,12866.8
53590,12837.1
53604.6,12809.7
53604.6,12809.7
53624.3,12785.7
53648.3,12766.1
53648.3,12766.1
53648.3,12766.1
53675.7,12751.4
53705.3,12742.4
53736.2,12739.4
Z" /> 
<path style="fill:#840084; fill-opacity:1.0; 
stroke:#840084; stroke-width:0; stroke-opacity:1; 
stroke-linecap:round; stroke-linejoin:round;fill-rule:evenodd;"
d="M 50231.7,12742.4
50261.3,12751.4
50286.8,12765.1
50288.7,12766.1
50312.7,12785.7
50332.4,12809.7
50347,12837.1
50356,12866.8
50358.3,12889.9
50358.3,13141.6
50356,13164.7
50347,13194.4
50332.4,13221.8
50312.7,13245.8
50288.7,13265.4
50261.3,13280.1
50231.7,13289.1
50200.8,13292.1
50169.9,13289.1
50140.2,13280.1
50112.9,13265.4
50088.9,13245.8
50069.2,13221.8
50054.6,13194.4
50045.6,13164.7
50044,13149
50043.3,13141.6
50043.3,12889.9
50045.6,12866.8
50045.6,12866.8
50054.6,12837.1
50069.2,12809.7
50069.2,12809.7
50088.9,12785.7
50112.9,12766.1
50112.9,12766.1
50112.9,12766.1
50140.2,12751.4
50169.9,12742.4
50200.8,12739.4
Z" /> 
</g>
<g style="fill:#000000; fill-opacity:1.0; 
stroke:#000000; stroke-width:0; stroke-opacity:1; 
stroke-linecap:round; stroke-linejoin:round;">
</g>
<g style="fill:#C2C200; fill-opacity:1.0; 
stroke:#C2C200; stroke-width:0; stroke-opacity:1; 
stroke-linecap:round; stroke-linejoin:round;">
</g>
<g style="fill:#C2C200; fill-opacity:0.0; 
stroke:#C2C200; stroke-width:39.3701; stroke-opacity:1; 
stroke-linecap:round; stroke-linejoin:round;">
<path d="M44094.5 34448.8 A196.85 196.85 0.0 0 0 44291.3 34645.7 " />
<path d="M44094.5 32677.2 A196.85 196.85 0.0 0 0 43897.6 32480.3 " />
<path d="M34842.5 32480.3 A196.85 196.85 0.0 0 0 34645.7 32677.2 " />
<path d="M34448.8 34645.7 A196.85 196.85 0.0 0 0 34645.7 34448.8 " />
<path d="M53346.5 43700.8 A196.85 196.85 0.0 0 0 53543.3 43503.9 " />
<path d="M53543.3 34842.5 A196.85 196.85 0.0 0 0 53346.5 34645.7 " />
<path d="M25393.7 34645.7 A196.85 196.85 0.0 0 0 25196.9 34842.5 " />
<path d="M25196.9 43503.9 A196.85 196.85 0.0 0 0 25393.7 43700.8 " />
<path d="M44291 34645
L53346 34645
" />
<path d="M44094 32677
L44094 34448
" />
<path d="M34645 32677
L34645 34448
" />
<path d="M25393 43700
L53346 43700
" />
<path d="M34842 32480
L43897 32480
" />
<path d="M53543 34842
L53543 43503
" />
<path d="M25196 34842
L25196 43503
" />
<path d="M25393 34645
L34448 34645
" />
<path d="M18897 51338
L18897 57637
" />
<path d="M18897 16929
L18897 49763
" />
<path d="M18897 12204
L18897 15354
" />
<path d="M59842 15354
L59842 12204
" />
<path d="M59842 49763
L59842 16929
" />
<path d="M59842 57637
L59842 51338
" />
<path d="M19685 15354
L19685 13779
" />
<path d="M19685 49763
L19685 16929
" />
<path d="M18897 51338
L19685 51338
" />
<path d="M18897 49763
L19685 49763
" />
<path d="M18897 16929
L19685 16929
" />
<path d="M18897 15354
L19685 15354
" />
<path d="M59055 15354
L59055 13779
" />
<path d="M59055 49763
L59055 16929
" />
<path d="M59055 49763
L59842 49763
" />
<path d="M59055 51338
L59842 51338
" />
<path d="M59842 16929
L59055 16929
" />
<path d="M59842 15354
L59055 15354
" />
<path d="M59842 57637
L63779 57637
" />
<path d="M63779 12204
L59842 12204
" />
<path d="M14960 12204
L18897 12204
" />
<path d="M14960 57637
L18897 57637
" />
<path d="M14960 12204
L14960 57637
" />
<path d="M63779 12204
L63779 57637
" />
<path d="M59055 51338
L59055 54876
" />
<path d="M55118.1 22844.5 A196.85 196.85 0.0 0 0 55118.1 22450.8 " />
<path d="M48818.9 22450.8 A196.85 196.85 0.0 0 0 48818.9 22844.5 " />
<path d="M55118 22844
L48818 22844
" />
<path d="M48818 22450
L55118 22450
" />
<path d="M20988 55242
L19685 54876
" />
<path d="M22256 55565
L20988 55242
" />
<path d="M24296 56037
L22256 55565
" />
<path d="M26626 56502
L24296 56037
" />
<path d="M28697 56848
L26626 56502
" />
<path d="M30784 57132
L28697 56848
" />
<path d="M32894 57352
L30784 57132
" />
<path d="M34937 57514
L32894 57352
" />
<path d="M36567 57596
L34937 57514
" />
<path d="M38819 57640
L36567 57596
" />
<path d="M40386 57640
L38819 57640
" />
<path d="M41815 57604
L40386 57640
" />
<path d="M43882 57502
L41815 57604
" />
<path d="M45607 57376
L43882 57502
" />
<path d="M47622 57163
L45607 57376
" />
<path d="M49197 56966
L47622 57163
" />
<path d="M51193 56659
L49197 56966
" />
<path d="M53288 56274
L51193 56659
" />
<path d="M54823 55951
L53288 56274
" />
<path d="M56284 55612
L54823 55951
" />
<path d="M57953 55183
L56284 55612
" />
<path d="M59055 54876
L57953 55183
" />
<path d="M59055.1 13779.5 A1574.8 1574.8 0.0 0 0 57480.3 12204.7 " />
<path d="M21259.8 12204.7 A1574.8 1574.8 0.0 0 0 19685 13779.5 " />
<path d="M19685 51338
L19685 54876
" />
<path d="M21259 12204
L57480 12204
" />
<g >
</g>
<g >
</g>
<g >
</g>
<g >
</g>
<g >
</g>
<g >
</g>
<g >
</g>
<g >
</g>
<g >
</g>
<g >
</g>
<g >
</g>
<g >
</g>
<g >
</g>
<g >
</g>
<g >
</g>
<g >
</g>
<g >
</g>
<g >
</g>
<g >
</g>
<g >
</g>
<g >
</g>
<g >
</g>
<g >
</g>
<g >
</g>
<g >
</g>
<g >
</g>
<g >
</g>
<g >
</g>
<g >
</g>
<g >
</g>
<g >
</g>
<g >
</g>
<g >
</g>
<g >
</g>
<g >
</g>
<g >
</g>
<g >
</g>
<g >
</g>
<g >
</g>
<g >
</g>
<g >
</g>
<g >
</g>
<g >
</g>
<g >
</g>
<g >
</g>
<g >
</g>
<g >
</g>
<g >
</g>
<g >
</g>
<g >
</g>
<g >
</g>
<g >
</g>
<g >
</g>
<g >
</g>
<g >
</g>
<g >
</g>
<g >
</g>
<g >
</g>
<g >
</g>
<g >
</g>
<g >
</g>
<g >
</g>
<g >
</g>
<g >
</g>
<g >
</g>
<g >
</g>
<g >
</g>
<g >
</g>
<g >
</g>
<g >
</g>
<g >
</g>
<g >
</g>
<g >
</g>
<g >
</g>
<g >
</g>
<g >
</g>
<g >
</g>
<g >
</g>
<g >
</g>
<g >
</g>
<g >
</g>
<g >
</g>
<g >
</g>
<g >
</g>
<g >
</g>
<g >
</g>
<g >
</g>
<g >
</g>
<g >
</g>
<g >
</g>
<g >
</g>
<g >
</g>
<g >
</g>
<g >
</g>
<g >
</g>
<g >
</g>
<g >
</g>
<g >
</g>
<g >
</g>
<g >
</g>
<g >
</g>
<g >
</g>
<g >
</g>
<g >
</g>
<g >
</g>
<g >
</g>
<g >
</g>
<g >
</g>
<g >
</g>
<g >
</g>
<g >
</g>
<g >
</g>
<g >
</g>
<g >
</g>
<g >
</g>
<g >
</g>
<g >
</g>
<g >
</g>
<g >
</g>
<g >
</g>
<g >
</g>
<g >
</g>
<g >
</g>
<g >
</g>
<g >
</g>
<g >
</g>
<g >
</g>
<g >
</g>
<g >
</g>
<g >
</g>
<g >
</g>
<g >
</g>
<g >
</g>
<g >
</g>
<g >
</g>
<g >
</g>
<g >
</g>
<g >
</g>
<g >
</g>
<g >
</g>
<g >
</g>
<g >
</g>
<g >
</g>
<g >
</g>
<g >
</g>
<g >
</g>
<g >
</g>
<g >
</g>
<g >
</g>
<g >
</g>
<g >
</g>
<g >
</g>
<g >
</g>
<g >
</g>
<g >
</g>
<g >
</g>
<g >
</g>
<g >
</g>
<g >
</g>
<g >
</g>
<g >
</g>
<g >
</g>
<g >
</g>
<g >
</g>
<g >
</g>
<g >
</g>
<g >
</g>
<g >
</g>
<g >
</g>
<g >
</g>
<g >
</g>
</g> 
</svg>
