<?xml version="1.0" standalone="no"?>
 <!DOCTYPE svg PUBLIC "-//W3C//DTD SVG 1.1//EN" 
 "http://www.w3.org/Graphics/SVG/1.1/DTD/svg11.dtd"> 
<svg xmlns="http://www.w3.org/2000/svg" version="1.1" 
    width="29.7002cm" height="21.0007cm" viewBox="0 0 116930 82680 ">
<title>SVG Picture created as OpenDropV2-B.Paste.svg date 2016/05/17 15:02:39 </title>
  <desc>Picture generated by PCBNEW </desc>
<g style="fill:#000000; fill-opacity:1;stroke:#000000; stroke-opacity:1;
stroke-linecap:round; stroke-linejoin:round; "
 transform="translate(0 0) scale(1 1)">
</g>
<g style="fill:#000000; fill-opacity:0.0; 
stroke:#000000; stroke-width:-0.000393701; stroke-opacity:1; 
stroke-linecap:round; stroke-linejoin:round;">
</g>
<g style="fill:#000000; fill-opacity:0.0; 
stroke:#000000; stroke-width:39.3701; stroke-opacity:1; 
stroke-linecap:round; stroke-linejoin:round;">
</g>
<g style="fill:#000000; fill-opacity:0.0; 
stroke:#000000; stroke-width:59.0551; stroke-opacity:1; 
stroke-linecap:round; stroke-linejoin:round;">
<rect x="69685.9" y="65357.2" width="42519.7" height="12598.4" rx="0" />
</g>
<g style="fill:#000000; fill-opacity:0.0; 
stroke:#000000; stroke-width:39.3701; stroke-opacity:1; 
stroke-linecap:round; stroke-linejoin:round;">
</g>
<g style="fill:#000000; fill-opacity:0.0; 
stroke:#000000; stroke-width:59.0551; stroke-opacity:1; 
stroke-linecap:round; stroke-linejoin:round;">
<rect x="3937.01" y="3937.01" width="109056" height="74806" rx="0" />
</g>
<g style="fill:#000000; fill-opacity:0.0; 
stroke:#000000; stroke-width:39.3701; stroke-opacity:1; 
stroke-linecap:round; stroke-linejoin:round;">
</g>
<g style="fill:#000000; fill-opacity:0.0; 
stroke:#000000; stroke-width:59.0551; stroke-opacity:1; 
stroke-linecap:round; stroke-linejoin:round;">
<rect x="4724.41" y="4724.41" width="107481" height="73231.2" rx="0" />
</g>
<g style="fill:#000000; fill-opacity:0.0; 
stroke:#000000; stroke-width:39.3701; stroke-opacity:1; 
stroke-linecap:round; stroke-linejoin:round;">
</g>
<g style="fill:#000000; fill-opacity:0.0; 
stroke:#000000; stroke-width:59.0551; stroke-opacity:1; 
stroke-linecap:round; stroke-linejoin:round;">
<path d="M23622 4724
L23622 3937
" />
</g>
<g style="fill:#000000; fill-opacity:0.0; 
stroke:#000000; stroke-width:39.3701; stroke-opacity:1; 
stroke-linecap:round; stroke-linejoin:round;">
</g>
<g style="fill:#000000; fill-opacity:0.0; 
stroke:#000000; stroke-width:59.0551; stroke-opacity:1; 
stroke-linecap:round; stroke-linejoin:round;">
<path d="M43307 4724
L43307 3937
" />
</g>
<g style="fill:#000000; fill-opacity:0.0; 
stroke:#000000; stroke-width:39.3701; stroke-opacity:1; 
stroke-linecap:round; stroke-linejoin:round;">
</g>
<g style="fill:#000000; fill-opacity:0.0; 
stroke:#000000; stroke-width:59.0551; stroke-opacity:1; 
stroke-linecap:round; stroke-linejoin:round;">
<path d="M62992 4724
L62992 3937
" />
</g>
<g style="fill:#000000; fill-opacity:0.0; 
stroke:#000000; stroke-width:39.3701; stroke-opacity:1; 
stroke-linecap:round; stroke-linejoin:round;">
</g>
<g style="fill:#000000; fill-opacity:0.0; 
stroke:#000000; stroke-width:59.0551; stroke-opacity:1; 
stroke-linecap:round; stroke-linejoin:round;">
<path d="M82677 4724
L82677 3937
" />
</g>
<g style="fill:#000000; fill-opacity:0.0; 
stroke:#000000; stroke-width:39.3701; stroke-opacity:1; 
stroke-linecap:round; stroke-linejoin:round;">
</g>
<g style="fill:#000000; fill-opacity:0.0; 
stroke:#000000; stroke-width:59.0551; stroke-opacity:1; 
stroke-linecap:round; stroke-linejoin:round;">
<path d="M102362 4724
L102362 3937
" />
</g>
<g style="fill:#000000; fill-opacity:0.0; 
stroke:#000000; stroke-width:39.3701; stroke-opacity:1; 
stroke-linecap:round; stroke-linejoin:round;">
</g>
<g style="fill:#000000; fill-opacity:0.0; 
stroke:#000000; stroke-width:59.0551; stroke-opacity:1; 
stroke-linecap:round; stroke-linejoin:round;">
<path d="M14199 4562
L13906 4562
" />
<path d="M14052 4562
L14052 4050
L14004 4123
L13955 4172
L13906 4196
" />
</g>
<g style="fill:#000000; fill-opacity:0.0; 
stroke:#000000; stroke-width:39.3701; stroke-opacity:1; 
stroke-linecap:round; stroke-linejoin:round;">
</g>
<g style="fill:#000000; fill-opacity:0.0; 
stroke:#000000; stroke-width:59.0551; stroke-opacity:1; 
stroke-linecap:round; stroke-linejoin:round;">
<path d="M33591 4099
L33615 4074
L33664 4050
L33786 4050
L33835 4074
L33859 4099
L33884 4147
L33884 4196
L33859 4269
L33567 4562
L33884 4562
" />
</g>
<g style="fill:#000000; fill-opacity:0.0; 
stroke:#000000; stroke-width:39.3701; stroke-opacity:1; 
stroke-linecap:round; stroke-linejoin:round;">
</g>
<g style="fill:#000000; fill-opacity:0.0; 
stroke:#000000; stroke-width:59.0551; stroke-opacity:1; 
stroke-linecap:round; stroke-linejoin:round;">
<path d="M53252 4050
L53569 4050
L53398 4245
L53471 4245
L53520 4269
L53544 4294
L53569 4342
L53569 4464
L53544 4513
L53520 4537
L53471 4562
L53325 4562
L53276 4537
L53252 4513
" />
</g>
<g style="fill:#000000; fill-opacity:0.0; 
stroke:#000000; stroke-width:39.3701; stroke-opacity:1; 
stroke-linecap:round; stroke-linejoin:round;">
</g>
<g style="fill:#000000; fill-opacity:0.0; 
stroke:#000000; stroke-width:59.0551; stroke-opacity:1; 
stroke-linecap:round; stroke-linejoin:round;">
<path d="M73205 4221
L73205 4562
" />
<path d="M73083 4026
L72961 4391
L73278 4391
" />
</g>
<g style="fill:#000000; fill-opacity:0.0; 
stroke:#000000; stroke-width:39.3701; stroke-opacity:1; 
stroke-linecap:round; stroke-linejoin:round;">
</g>
<g style="fill:#000000; fill-opacity:0.0; 
stroke:#000000; stroke-width:59.0551; stroke-opacity:1; 
stroke-linecap:round; stroke-linejoin:round;">
<path d="M92914 4050
L92671 4050
L92646 4294
L92671 4269
L92719 4245
L92841 4245
L92890 4269
L92914 4294
L92939 4342
L92939 4464
L92914 4513
L92890 4537
L92841 4562
L92719 4562
L92671 4537
L92646 4513
" />
</g>
<g style="fill:#000000; fill-opacity:0.0; 
stroke:#000000; stroke-width:39.3701; stroke-opacity:1; 
stroke-linecap:round; stroke-linejoin:round;">
</g>
<g style="fill:#000000; fill-opacity:0.0; 
stroke:#000000; stroke-width:59.0551; stroke-opacity:1; 
stroke-linecap:round; stroke-linejoin:round;">
<path d="M112575 4050
L112477 4050
L112429 4074
L112404 4099
L112356 4172
L112331 4269
L112331 4464
L112356 4513
L112380 4537
L112429 4562
L112526 4562
L112575 4537
L112599 4513
L112624 4464
L112624 4342
L112599 4294
L112575 4269
L112526 4245
L112429 4245
L112380 4269
L112356 4294
L112331 4342
" />
</g>
<g style="fill:#000000; fill-opacity:0.0; 
stroke:#000000; stroke-width:39.3701; stroke-opacity:1; 
stroke-linecap:round; stroke-linejoin:round;">
</g>
<g style="fill:#000000; fill-opacity:0.0; 
stroke:#000000; stroke-width:59.0551; stroke-opacity:1; 
stroke-linecap:round; stroke-linejoin:round;">
<path d="M23622 77955
L23622 78742
" />
</g>
<g style="fill:#000000; fill-opacity:0.0; 
stroke:#000000; stroke-width:39.3701; stroke-opacity:1; 
stroke-linecap:round; stroke-linejoin:round;">
</g>
<g style="fill:#000000; fill-opacity:0.0; 
stroke:#000000; stroke-width:59.0551; stroke-opacity:1; 
stroke-linecap:round; stroke-linejoin:round;">
<path d="M43307 77955
L43307 78742
" />
</g>
<g style="fill:#000000; fill-opacity:0.0; 
stroke:#000000; stroke-width:39.3701; stroke-opacity:1; 
stroke-linecap:round; stroke-linejoin:round;">
</g>
<g style="fill:#000000; fill-opacity:0.0; 
stroke:#000000; stroke-width:59.0551; stroke-opacity:1; 
stroke-linecap:round; stroke-linejoin:round;">
<path d="M62992 77955
L62992 78742
" />
</g>
<g style="fill:#000000; fill-opacity:0.0; 
stroke:#000000; stroke-width:39.3701; stroke-opacity:1; 
stroke-linecap:round; stroke-linejoin:round;">
</g>
<g style="fill:#000000; fill-opacity:0.0; 
stroke:#000000; stroke-width:59.0551; stroke-opacity:1; 
stroke-linecap:round; stroke-linejoin:round;">
<path d="M82677 77955
L82677 78742
" />
</g>
<g style="fill:#000000; fill-opacity:0.0; 
stroke:#000000; stroke-width:39.3701; stroke-opacity:1; 
stroke-linecap:round; stroke-linejoin:round;">
</g>
<g style="fill:#000000; fill-opacity:0.0; 
stroke:#000000; stroke-width:59.0551; stroke-opacity:1; 
stroke-linecap:round; stroke-linejoin:round;">
<path d="M102362 77955
L102362 78742
" />
</g>
<g style="fill:#000000; fill-opacity:0.0; 
stroke:#000000; stroke-width:39.3701; stroke-opacity:1; 
stroke-linecap:round; stroke-linejoin:round;">
</g>
<g style="fill:#000000; fill-opacity:0.0; 
stroke:#000000; stroke-width:59.0551; stroke-opacity:1; 
stroke-linecap:round; stroke-linejoin:round;">
<path d="M14199 78580
L13906 78580
" />
<path d="M14052 78580
L14052 78069
L14004 78142
L13955 78190
L13906 78215
" />
</g>
<g style="fill:#000000; fill-opacity:0.0; 
stroke:#000000; stroke-width:39.3701; stroke-opacity:1; 
stroke-linecap:round; stroke-linejoin:round;">
</g>
<g style="fill:#000000; fill-opacity:0.0; 
stroke:#000000; stroke-width:59.0551; stroke-opacity:1; 
stroke-linecap:round; stroke-linejoin:round;">
<path d="M33591 78117
L33615 78093
L33664 78069
L33786 78069
L33835 78093
L33859 78117
L33884 78166
L33884 78215
L33859 78288
L33567 78580
L33884 78580
" />
</g>
<g style="fill:#000000; fill-opacity:0.0; 
stroke:#000000; stroke-width:39.3701; stroke-opacity:1; 
stroke-linecap:round; stroke-linejoin:round;">
</g>
<g style="fill:#000000; fill-opacity:0.0; 
stroke:#000000; stroke-width:59.0551; stroke-opacity:1; 
stroke-linecap:round; stroke-linejoin:round;">
<path d="M53252 78069
L53569 78069
L53398 78263
L53471 78263
L53520 78288
L53544 78312
L53569 78361
L53569 78483
L53544 78532
L53520 78556
L53471 78580
L53325 78580
L53276 78556
L53252 78532
" />
</g>
<g style="fill:#000000; fill-opacity:0.0; 
stroke:#000000; stroke-width:39.3701; stroke-opacity:1; 
stroke-linecap:round; stroke-linejoin:round;">
</g>
<g style="fill:#000000; fill-opacity:0.0; 
stroke:#000000; stroke-width:59.0551; stroke-opacity:1; 
stroke-linecap:round; stroke-linejoin:round;">
<path d="M73205 78239
L73205 78580
" />
<path d="M73083 78044
L72961 78410
L73278 78410
" />
</g>
<g style="fill:#000000; fill-opacity:0.0; 
stroke:#000000; stroke-width:39.3701; stroke-opacity:1; 
stroke-linecap:round; stroke-linejoin:round;">
</g>
<g style="fill:#000000; fill-opacity:0.0; 
stroke:#000000; stroke-width:59.0551; stroke-opacity:1; 
stroke-linecap:round; stroke-linejoin:round;">
<path d="M92914 78069
L92671 78069
L92646 78312
L92671 78288
L92719 78263
L92841 78263
L92890 78288
L92914 78312
L92939 78361
L92939 78483
L92914 78532
L92890 78556
L92841 78580
L92719 78580
L92671 78556
L92646 78532
" />
</g>
<g style="fill:#000000; fill-opacity:0.0; 
stroke:#000000; stroke-width:39.3701; stroke-opacity:1; 
stroke-linecap:round; stroke-linejoin:round;">
</g>
<g style="fill:#000000; fill-opacity:0.0; 
stroke:#000000; stroke-width:59.0551; stroke-opacity:1; 
stroke-linecap:round; stroke-linejoin:round;">
<path d="M112575 78069
L112477 78069
L112429 78093
L112404 78117
L112356 78190
L112331 78288
L112331 78483
L112356 78532
L112380 78556
L112429 78580
L112526 78580
L112575 78556
L112599 78532
L112624 78483
L112624 78361
L112599 78312
L112575 78288
L112526 78263
L112429 78263
L112380 78288
L112356 78312
L112331 78361
" />
</g>
<g style="fill:#000000; fill-opacity:0.0; 
stroke:#000000; stroke-width:39.3701; stroke-opacity:1; 
stroke-linecap:round; stroke-linejoin:round;">
</g>
<g style="fill:#000000; fill-opacity:0.0; 
stroke:#000000; stroke-width:59.0551; stroke-opacity:1; 
stroke-linecap:round; stroke-linejoin:round;">
<path d="M3937 23622
L4724 23622
" />
</g>
<g style="fill:#000000; fill-opacity:0.0; 
stroke:#000000; stroke-width:39.3701; stroke-opacity:1; 
stroke-linecap:round; stroke-linejoin:round;">
</g>
<g style="fill:#000000; fill-opacity:0.0; 
stroke:#000000; stroke-width:59.0551; stroke-opacity:1; 
stroke-linecap:round; stroke-linejoin:round;">
<path d="M3937 43307
L4724 43307
" />
</g>
<g style="fill:#000000; fill-opacity:0.0; 
stroke:#000000; stroke-width:39.3701; stroke-opacity:1; 
stroke-linecap:round; stroke-linejoin:round;">
</g>
<g style="fill:#000000; fill-opacity:0.0; 
stroke:#000000; stroke-width:59.0551; stroke-opacity:1; 
stroke-linecap:round; stroke-linejoin:round;">
<path d="M3937 62992
L4724 62992
" />
</g>
<g style="fill:#000000; fill-opacity:0.0; 
stroke:#000000; stroke-width:39.3701; stroke-opacity:1; 
stroke-linecap:round; stroke-linejoin:round;">
</g>
<g style="fill:#000000; fill-opacity:0.0; 
stroke:#000000; stroke-width:59.0551; stroke-opacity:1; 
stroke-linecap:round; stroke-linejoin:round;">
<path d="M4208 13864
L4452 13864
" />
<path d="M4160 14011
L4330 13499
L4501 14011
" />
</g>
<g style="fill:#000000; fill-opacity:0.0; 
stroke:#000000; stroke-width:39.3701; stroke-opacity:1; 
stroke-linecap:round; stroke-linejoin:round;">
</g>
<g style="fill:#000000; fill-opacity:0.0; 
stroke:#000000; stroke-width:59.0551; stroke-opacity:1; 
stroke-linecap:round; stroke-linejoin:round;">
<path d="M4367 33428
L4440 33452
L4464 33476
L4489 33525
L4489 33598
L4464 33647
L4440 33671
L4391 33696
L4196 33696
L4196 33184
L4367 33184
L4416 33208
L4440 33233
L4464 33281
L4464 33330
L4440 33379
L4416 33403
L4367 33428
L4196 33428
" />
</g>
<g style="fill:#000000; fill-opacity:0.0; 
stroke:#000000; stroke-width:39.3701; stroke-opacity:1; 
stroke-linecap:round; stroke-linejoin:round;">
</g>
<g style="fill:#000000; fill-opacity:0.0; 
stroke:#000000; stroke-width:59.0551; stroke-opacity:1; 
stroke-linecap:round; stroke-linejoin:round;">
<path d="M4489 53332
L4464 53356
L4391 53381
L4342 53381
L4269 53356
L4221 53308
L4196 53259
L4172 53161
L4172 53088
L4196 52991
L4221 52942
L4269 52893
L4342 52869
L4391 52869
L4464 52893
L4489 52918
" />
</g>
<g style="fill:#000000; fill-opacity:0.0; 
stroke:#000000; stroke-width:39.3701; stroke-opacity:1; 
stroke-linecap:round; stroke-linejoin:round;">
</g>
<g style="fill:#000000; fill-opacity:0.0; 
stroke:#000000; stroke-width:59.0551; stroke-opacity:1; 
stroke-linecap:round; stroke-linejoin:round;">
<path d="M4196 73066
L4196 72554
L4318 72554
L4391 72578
L4440 72627
L4464 72676
L4489 72773
L4489 72846
L4464 72944
L4440 72993
L4391 73041
L4318 73066
L4196 73066
" />
</g>
<g style="fill:#000000; fill-opacity:0.0; 
stroke:#000000; stroke-width:39.3701; stroke-opacity:1; 
stroke-linecap:round; stroke-linejoin:round;">
</g>
<g style="fill:#000000; fill-opacity:0.0; 
stroke:#000000; stroke-width:59.0551; stroke-opacity:1; 
stroke-linecap:round; stroke-linejoin:round;">
<path d="M112992 23622
L112205 23622
" />
</g>
<g style="fill:#000000; fill-opacity:0.0; 
stroke:#000000; stroke-width:39.3701; stroke-opacity:1; 
stroke-linecap:round; stroke-linejoin:round;">
</g>
<g style="fill:#000000; fill-opacity:0.0; 
stroke:#000000; stroke-width:59.0551; stroke-opacity:1; 
stroke-linecap:round; stroke-linejoin:round;">
<path d="M112992 43307
L112205 43307
" />
</g>
<g style="fill:#000000; fill-opacity:0.0; 
stroke:#000000; stroke-width:39.3701; stroke-opacity:1; 
stroke-linecap:round; stroke-linejoin:round;">
</g>
<g style="fill:#000000; fill-opacity:0.0; 
stroke:#000000; stroke-width:59.0551; stroke-opacity:1; 
stroke-linecap:round; stroke-linejoin:round;">
<path d="M112992 62992
L112205 62992
" />
</g>
<g style="fill:#000000; fill-opacity:0.0; 
stroke:#000000; stroke-width:39.3701; stroke-opacity:1; 
stroke-linecap:round; stroke-linejoin:round;">
</g>
<g style="fill:#000000; fill-opacity:0.0; 
stroke:#000000; stroke-width:59.0551; stroke-opacity:1; 
stroke-linecap:round; stroke-linejoin:round;">
<path d="M112477 13864
L112721 13864
" />
<path d="M112428 14011
L112599 13499
L112769 14011
" />
</g>
<g style="fill:#000000; fill-opacity:0.0; 
stroke:#000000; stroke-width:39.3701; stroke-opacity:1; 
stroke-linecap:round; stroke-linejoin:round;">
</g>
<g style="fill:#000000; fill-opacity:0.0; 
stroke:#000000; stroke-width:59.0551; stroke-opacity:1; 
stroke-linecap:round; stroke-linejoin:round;">
<path d="M112635 33428
L112708 33452
L112733 33476
L112757 33525
L112757 33598
L112733 33647
L112708 33671
L112660 33696
L112465 33696
L112465 33184
L112635 33184
L112684 33208
L112708 33233
L112733 33281
L112733 33330
L112708 33379
L112684 33403
L112635 33428
L112465 33428
" />
</g>
<g style="fill:#000000; fill-opacity:0.0; 
stroke:#000000; stroke-width:39.3701; stroke-opacity:1; 
stroke-linecap:round; stroke-linejoin:round;">
</g>
<g style="fill:#000000; fill-opacity:0.0; 
stroke:#000000; stroke-width:59.0551; stroke-opacity:1; 
stroke-linecap:round; stroke-linejoin:round;">
<path d="M112757 53332
L112733 53356
L112660 53381
L112611 53381
L112538 53356
L112489 53308
L112465 53259
L112440 53161
L112440 53088
L112465 52991
L112489 52942
L112538 52893
L112611 52869
L112660 52869
L112733 52893
L112757 52918
" />
</g>
<g style="fill:#000000; fill-opacity:0.0; 
stroke:#000000; stroke-width:39.3701; stroke-opacity:1; 
stroke-linecap:round; stroke-linejoin:round;">
</g>
<g style="fill:#000000; fill-opacity:0.0; 
stroke:#000000; stroke-width:59.0551; stroke-opacity:1; 
stroke-linecap:round; stroke-linejoin:round;">
<path d="M112465 73066
L112465 72554
L112587 72554
L112660 72578
L112708 72627
L112733 72676
L112757 72773
L112757 72846
L112733 72944
L112708 72993
L112660 73041
L112587 73066
L112465 73066
" />
</g>
<g style="fill:#000000; fill-opacity:0.0; 
stroke:#000000; stroke-width:39.3701; stroke-opacity:1; 
stroke-linecap:round; stroke-linejoin:round;">
</g>
<g style="fill:#000000; fill-opacity:0.0; 
stroke:#000000; stroke-width:59.0551; stroke-opacity:1; 
stroke-linecap:round; stroke-linejoin:round;">
<path d="M78911 76293
L78911 75703
L79051 75703
L79136 75731
L79192 75787
L79220 75843
L79248 75956
L79248 76040
L79220 76153
L79192 76209
L79136 76265
L79051 76293
L78911 76293
" />
<path d="M79754 76293
L79754 75984
L79726 75928
L79670 75899
L79557 75899
L79501 75928
" />
<path d="M79754 76265
L79698 76293
L79557 76293
L79501 76265
L79473 76209
L79473 76153
L79501 76096
L79557 76068
L79698 76068
L79754 76040
" />
<path d="M79951 75899
L80176 75899
" />
<path d="M80036 75703
L80036 76209
L80064 76265
L80120 76293
L80176 76293
" />
<path d="M80598 76265
L80542 76293
L80429 76293
L80373 76265
L80345 76209
L80345 75984
L80373 75928
L80429 75899
L80542 75899
L80598 75928
L80626 75984
L80626 76040
L80345 76096
" />
<path d="M80879 76237
L80907 76265
L80879 76293
L80851 76265
L80879 76237
L80879 76293
" />
<path d="M80879 75928
L80907 75956
L80879 75984
L80851 75956
L80879 75928
L80879 75984
" />
</g>
<g style="fill:#000000; fill-opacity:0.0; 
stroke:#000000; stroke-width:39.3701; stroke-opacity:1; 
stroke-linecap:round; stroke-linejoin:round;">
</g>
<g style="fill:#000000; fill-opacity:0.0; 
stroke:#000000; stroke-width:59.0551; stroke-opacity:1; 
stroke-linecap:round; stroke-linejoin:round;">
<path d="M69685 76577
L112205 76577
" />
</g>
<g style="fill:#000000; fill-opacity:0.0; 
stroke:#000000; stroke-width:39.3701; stroke-opacity:1; 
stroke-linecap:round; stroke-linejoin:round;">
</g>
<g style="fill:#000000; fill-opacity:0.0; 
stroke:#000000; stroke-width:59.0551; stroke-opacity:1; 
stroke-linecap:round; stroke-linejoin:round;">
<path d="M70249 77395
L70249 76805
" />
<path d="M70587 77395
L70334 77058
" />
<path d="M70587 76805
L70249 77142
" />
<path d="M70840 77395
L70840 77002
" />
<path d="M70840 76805
L70812 76833
L70840 76861
L70868 76833
L70840 76805
L70840 76861
" />
<path d="M71458 77339
L71430 77367
L71346 77395
L71290 77395
L71205 77367
L71149 77311
L71121 77255
L71093 77142
L71093 77058
L71121 76946
L71149 76889
L71205 76833
L71290 76805
L71346 76805
L71430 76833
L71458 76861
" />
<path d="M71965 77395
L71965 77086
L71937 77030
L71880 77002
L71768 77002
L71712 77030
" />
<path d="M71965 77367
L71908 77395
L71768 77395
L71712 77367
L71683 77311
L71683 77255
L71712 77199
L71768 77171
L71908 77171
L71965 77142
" />
<path d="M72499 77395
L72499 76805
" />
<path d="M72499 77367
L72443 77395
L72330 77395
L72274 77367
L72246 77339
L72218 77283
L72218 77114
L72246 77058
L72274 77030
L72330 77002
L72443 77002
L72499 77030
" />
<path d="M73230 77086
L73427 77086
" />
<path d="M73511 77395
L73230 77395
L73230 76805
L73511 76805
" />
<path d="M73764 77339
L73793 77367
L73764 77395
L73736 77367
L73764 77339
L73764 77395
" />
<path d="M74046 77395
L74046 76805
L74186 76805
L74271 76833
L74327 76889
L74355 76946
L74383 77058
L74383 77142
L74355 77255
L74327 77311
L74271 77367
L74186 77395
L74046 77395
" />
<path d="M74636 77339
L74664 77367
L74636 77395
L74608 77367
L74636 77339
L74636 77395
" />
<path d="M74889 77227
L75171 77227
" />
<path d="M74833 77395
L75030 76805
L75227 77395
" />
<path d="M75424 77339
L75452 77367
L75424 77395
L75395 77367
L75424 77339
L75424 77395
" />
<path d="M76605 77395
L76605 76805
" />
<path d="M76661 77171
L76830 77395
" />
<path d="M76830 77002
L76605 77227
" />
<path d="M77083 77395
L77083 77002
" />
<path d="M77083 76805
L77055 76833
L77083 76861
L77111 76833
L77083 76805
L77083 76861
" />
<path d="M77617 77367
L77561 77395
L77448 77395
L77392 77367
L77364 77339
L77336 77283
L77336 77114
L77364 77058
L77392 77030
L77448 77002
L77561 77002
L77617 77030
" />
<path d="M78123 77395
L78123 77086
L78095 77030
L78039 77002
L77926 77002
L77870 77030
" />
<path d="M78123 77367
L78067 77395
L77926 77395
L77870 77367
L77842 77311
L77842 77255
L77870 77199
L77926 77171
L78067 77171
L78123 77142
" />
<path d="M78658 77395
L78658 76805
" />
<path d="M78658 77367
L78601 77395
L78489 77395
L78433 77367
L78404 77339
L78376 77283
L78376 77114
L78404 77058
L78433 77030
L78489 77002
L78601 77002
L78658 77030
" />
<path d="M79501 76805
L79557 76805
L79614 76833
L79642 76861
L79670 76917
L79698 77030
L79698 77171
L79670 77283
L79642 77339
L79614 77367
L79557 77395
L79501 77395
L79445 77367
L79417 77339
L79389 77283
L79361 77171
L79361 77030
L79389 76917
L79417 76861
L79445 76833
L79501 76805
" />
<path d="M79951 77339
L79979 77367
L79951 77395
L79923 77367
L79951 77339
L79951 77395
" />
<path d="M80204 76861
L80232 76833
L80289 76805
L80429 76805
L80485 76833
L80514 76861
L80542 76917
L80542 76974
L80514 77058
L80176 77395
L80542 77395
" />
<path d="M80907 76805
L80964 76805
L81020 76833
L81048 76861
L81076 76917
L81104 77030
L81104 77171
L81076 77283
L81048 77339
L81020 77367
L80964 77395
L80907 77395
L80851 77367
L80823 77339
L80795 77283
L80767 77171
L80767 77030
L80795 76917
L80823 76861
L80851 76833
L80907 76805
" />
<path d="M81667 77395
L81329 77395
" />
<path d="M81498 77395
L81498 76805
L81442 76889
L81385 76946
L81329 76974
" />
<path d="M82173 76805
L82060 76805
L82004 76833
L81976 76861
L81920 76946
L81892 77058
L81892 77283
L81920 77339
L81948 77367
L82004 77395
L82117 77395
L82173 77367
L82201 77339
L82229 77283
L82229 77142
L82201 77086
L82173 77058
L82117 77030
L82004 77030
L81948 77058
L81920 77086
L81892 77142
" />
<path d="M82595 76805
L82651 76805
L82707 76833
L82735 76861
L82763 76917
L82791 77030
L82791 77171
L82763 77283
L82735 77339
L82707 77367
L82651 77395
L82595 77395
L82538 77367
L82510 77339
L82482 77283
L82454 77171
L82454 77030
L82482 76917
L82510 76861
L82538 76833
L82595 76805
" />
<path d="M83298 77002
L83298 77395
" />
<path d="M83157 76777
L83016 77199
L83382 77199
" />
<path d="M83579 76861
L83607 76833
L83663 76805
L83804 76805
L83860 76833
L83888 76861
L83916 76917
L83916 76974
L83888 77058
L83551 77395
L83916 77395
" />
<path d="M84113 76805
L84479 76805
L84282 77030
L84366 77030
L84422 77058
L84451 77086
L84479 77142
L84479 77283
L84451 77339
L84422 77367
L84366 77395
L84197 77395
L84141 77367
L84113 77339
" />
<path d="M84704 76861
L84732 76833
L84788 76805
L84929 76805
L84985 76833
L85013 76861
L85041 76917
L85041 76974
L85013 77058
L84676 77395
L85041 77395
" />
<path d="M85407 76805
L85463 76805
L85519 76833
L85547 76861
L85575 76917
L85604 77030
L85604 77171
L85575 77283
L85547 77339
L85519 77367
L85463 77395
L85407 77395
L85350 77367
L85322 77339
L85294 77283
L85266 77171
L85266 77030
L85294 76917
L85322 76861
L85350 76833
L85407 76805
" />
<path d="M85800 76805
L86166 76805
L85969 77030
L86054 77030
L86110 77058
L86138 77086
L86166 77142
L86166 77283
L86138 77339
L86110 77367
L86054 77395
L85885 77395
L85829 77367
L85800 77339
" />
<path d="M86728 77395
L86391 77395
" />
<path d="M86560 77395
L86560 76805
L86503 76889
L86447 76946
L86391 76974
" />
<path d="M86982 77171
L87431 77171
" />
<path d="M87206 77395
L87206 76946
" />
<path d="M87966 76805
L87853 76805
L87797 76833
L87769 76861
L87713 76946
L87685 77058
L87685 77283
L87713 77339
L87741 77367
L87797 77395
L87910 77395
L87966 77367
L87994 77339
L88022 77283
L88022 77142
L87994 77086
L87966 77058
L87910 77030
L87797 77030
L87741 77058
L87713 77086
L87685 77142
" />
<path d="M88219 76805
L88613 76805
L88359 77395
" />
<path d="M89147 77395
L88809 77395
" />
<path d="M88978 77395
L88978 76805
L88922 76889
L88866 76946
L88809 76974
" />
<path d="M89512 76805
L89569 76805
L89625 76833
L89653 76861
L89681 76917
L89709 77030
L89709 77171
L89681 77283
L89653 77339
L89625 77367
L89569 77395
L89512 77395
L89456 77367
L89428 77339
L89400 77283
L89372 77171
L89372 77030
L89400 76917
L89428 76861
L89456 76833
L89512 76805
" />
<path d="M89919 76644
L90384 76644
" />
<path d="M90215 77002
L90215 77395
" />
<path d="M90075 76777
L89934 77199
L90300 77199
" />
<path d="M90384 76644
L90947 76644
" />
<path d="M90778 77002
L90778 77395
" />
<path d="M90637 76777
L90497 77199
L90862 77199
" />
<path d="M91340 77002
L91340 77395
" />
<path d="M91087 77002
L91087 77311
L91115 77367
L91172 77395
L91256 77395
L91312 77367
L91340 77339
" />
<path d="M91622 77395
L91622 76805
" />
<path d="M91622 77030
L91678 77002
L91790 77002
L91847 77030
L91875 77058
L91903 77114
L91903 77283
L91875 77339
L91847 77367
L91790 77395
L91678 77395
L91622 77367
" />
<path d="M92409 77002
L92409 77395
" />
<path d="M92156 77002
L92156 77311
L92184 77367
L92240 77395
L92325 77395
L92381 77367
L92409 77339
" />
<path d="M92690 77002
L92690 77395
" />
<path d="M92690 77058
L92718 77030
L92775 77002
L92859 77002
L92915 77030
L92943 77086
L92943 77395
" />
<path d="M93140 77002
L93365 77002
" />
<path d="M93224 76805
L93224 77311
L93253 77367
L93309 77395
L93365 77395
" />
<path d="M93815 77002
L93815 77395
" />
<path d="M93562 77002
L93562 77311
L93590 77367
L93646 77395
L93731 77395
L93787 77367
L93815 77339
" />
<path d="M94406 77395
L94068 77395
" />
<path d="M94237 77395
L94237 76805
L94181 76889
L94124 76946
L94068 76974
" />
<path d="M94912 77002
L94912 77395
" />
<path d="M94771 76777
L94631 77199
L94996 77199
" />
<path d="M95221 77339
L95249 77367
L95221 77395
L95193 77367
L95221 77339
L95221 77395
" />
<path d="M95615 76805
L95671 76805
L95727 76833
L95755 76861
L95784 76917
L95812 77030
L95812 77171
L95784 77283
L95755 77339
L95727 77367
L95671 77395
L95615 77395
L95559 77367
L95530 77339
L95502 77283
L95474 77171
L95474 77030
L95502 76917
L95530 76861
L95559 76833
L95615 76805
" />
<path d="M96318 77002
L96318 77395
" />
<path d="M96177 76777
L96037 77199
L96402 77199
" />
<path d="M96627 77339
L96655 77367
L96627 77395
L96599 77367
L96627 77339
L96627 77395
" />
<path d="M97218 77395
L96880 77395
" />
<path d="M97049 77395
L97049 76805
L96993 76889
L96937 76946
L96880 76974
" />
<path d="M97471 77171
L97921 77171
" />
<path d="M98202 77002
L98202 77592
" />
<path d="M98202 77030
L98258 77002
L98371 77002
L98427 77030
L98455 77058
L98483 77114
L98483 77283
L98455 77339
L98427 77367
L98371 77395
L98258 77395
L98202 77367
" />
<path d="M98736 77395
L98736 77002
" />
<path d="M98736 77114
L98764 77058
L98793 77030
L98849 77002
L98905 77002
" />
<path d="M99186 77395
L99130 77367
L99102 77339
L99074 77283
L99074 77114
L99102 77058
L99130 77030
L99186 77002
L99271 77002
L99327 77030
L99355 77058
L99383 77114
L99383 77283
L99355 77339
L99327 77367
L99271 77395
L99186 77395
" />
<path d="M99889 77395
L99889 76805
" />
<path d="M99889 77367
L99833 77395
L99721 77395
L99664 77367
L99636 77339
L99608 77283
L99608 77114
L99636 77058
L99664 77030
L99721 77002
L99833 77002
L99889 77030
" />
<path d="M100424 77002
L100424 77395
" />
<path d="M100171 77002
L100171 77311
L100199 77367
L100255 77395
L100339 77395
L100395 77367
L100424 77339
" />
<path d="M100958 77367
L100902 77395
L100789 77395
L100733 77367
L100705 77339
L100677 77283
L100677 77114
L100705 77058
L100733 77030
L100789 77002
L100902 77002
L100958 77030
" />
<path d="M101127 77002
L101352 77002
" />
<path d="M101211 76805
L101211 77311
L101239 77367
L101295 77395
L101352 77395
" />
</g>
<g style="fill:#000000; fill-opacity:0.0; 
stroke:#000000; stroke-width:39.3701; stroke-opacity:1; 
stroke-linecap:round; stroke-linejoin:round;">
</g>
<g style="fill:#000000; fill-opacity:0.0; 
stroke:#000000; stroke-width:59.0551; stroke-opacity:1; 
stroke-linecap:round; stroke-linejoin:round;">
<path d="M69685 75396
L112205 75396
" />
</g>
<g style="fill:#000000; fill-opacity:0.0; 
stroke:#000000; stroke-width:39.3701; stroke-opacity:1; 
stroke-linecap:round; stroke-linejoin:round;">
</g>
<g style="fill:#000000; fill-opacity:0.0; 
stroke:#000000; stroke-width:118.11; stroke-opacity:1; 
stroke-linecap:round; stroke-linejoin:round;">
<path d="M104099 76293
L103902 76012
" />
<path d="M103761 76293
L103761 75703
L103986 75703
L104042 75731
L104070 75759
L104099 75815
L104099 75899
L104070 75956
L104042 75984
L103986 76012
L103761 76012
" />
<path d="M104577 76265
L104520 76293
L104408 76293
L104352 76265
L104323 76209
L104323 75984
L104352 75928
L104408 75899
L104520 75899
L104577 75928
L104605 75984
L104605 76040
L104323 76096
" />
<path d="M104802 75899
L104942 76293
L105083 75899
" />
<path d="M105308 76237
L105336 76265
L105308 76293
L105280 76265
L105308 76237
L105308 76293
" />
<path d="M105308 75928
L105336 75956
L105308 75984
L105280 75956
L105308 75928
L105308 75984
" />
</g>
<g style="fill:#000000; fill-opacity:0.0; 
stroke:#000000; stroke-width:39.3701; stroke-opacity:1; 
stroke-linecap:round; stroke-linejoin:round;">
</g>
<g style="fill:#000000; fill-opacity:0.0; 
stroke:#000000; stroke-width:59.0551; stroke-opacity:1; 
stroke-linecap:round; stroke-linejoin:round;">
<path d="M70221 76265
L70305 76293
L70446 76293
L70502 76265
L70530 76237
L70559 76181
L70559 76124
L70530 76068
L70502 76040
L70446 76012
L70334 75984
L70277 75956
L70249 75928
L70221 75871
L70221 75815
L70249 75759
L70277 75731
L70334 75703
L70474 75703
L70559 75731
" />
<path d="M70812 76293
L70812 75899
" />
<path d="M70812 75703
L70784 75731
L70812 75759
L70840 75731
L70812 75703
L70812 75759
" />
<path d="M71037 75899
L71346 75899
L71037 76293
L71346 76293
" />
<path d="M71796 76265
L71740 76293
L71627 76293
L71571 76265
L71543 76209
L71543 75984
L71571 75928
L71627 75899
L71740 75899
L71796 75928
L71824 75984
L71824 76040
L71543 76096
" />
<path d="M72077 76237
L72105 76265
L72077 76293
L72049 76265
L72077 76237
L72077 76293
" />
<path d="M72077 75928
L72105 75956
L72077 75984
L72049 75956
L72077 75928
L72077 75984
" />
<path d="M72780 76124
L73061 76124
" />
<path d="M72724 76293
L72921 75703
L73118 76293
" />
<path d="M73568 75899
L73568 76293
" />
<path d="M73427 75674
L73286 76096
L73652 76096
" />
</g>
<g style="fill:#000000; fill-opacity:0.0; 
stroke:#000000; stroke-width:39.3701; stroke-opacity:1; 
stroke-linecap:round; stroke-linejoin:round;">
</g>
<g style="fill:#000000; fill-opacity:0.0; 
stroke:#000000; stroke-width:59.0551; stroke-opacity:1; 
stroke-linecap:round; stroke-linejoin:round;">
<path d="M103714 77395
L103714 76805
" />
<path d="M104248 77395
L104248 76805
" />
<path d="M104248 77367
L104192 77395
L104079 77395
L104023 77367
L103995 77339
L103967 77283
L103967 77114
L103995 77058
L104023 77030
L104079 77002
L104192 77002
L104248 77030
" />
<path d="M104529 77339
L104557 77367
L104529 77395
L104501 77367
L104529 77339
L104529 77395
" />
<path d="M104529 77030
L104557 77058
L104529 77086
L104501 77058
L104529 77030
L104529 77086
" />
<path d="M105570 77395
L105232 77395
" />
<path d="M105401 77395
L105401 76805
L105345 76889
L105289 76946
L105232 76974
" />
<path d="M106245 76777
L105739 77536
" />
<path d="M106751 77395
L106413 77395
" />
<path d="M106582 77395
L106582 76805
L106526 76889
L106470 76946
L106413 76974
" />
</g>
<g style="fill:#000000; fill-opacity:0.0; 
stroke:#000000; stroke-width:39.3701; stroke-opacity:1; 
stroke-linecap:round; stroke-linejoin:round;">
</g>
<g style="fill:#000000; fill-opacity:0.0; 
stroke:#000000; stroke-width:59.0551; stroke-opacity:1; 
stroke-linecap:round; stroke-linejoin:round;">
<path d="M69685 73821
L112205 73821
" />
</g>
<g style="fill:#000000; fill-opacity:0.0; 
stroke:#000000; stroke-width:39.3701; stroke-opacity:1; 
stroke-linecap:round; stroke-linejoin:round;">
</g>
<g style="fill:#000000; fill-opacity:0.0; 
stroke:#000000; stroke-width:157.48; stroke-opacity:1; 
stroke-linecap:round; stroke-linejoin:round;">
<path d="M70360 74099
L70810 74099
" />
<path d="M70486 74886
L70585 74099
" />
<path d="M70974 74886
L71039 74361
" />
<path d="M71072 74099
L71030 74136
L71063 74174
L71105 74136
L71072 74099
L71063 74174
" />
<path d="M71302 74361
L71602 74361
" />
<path d="M71447 74099
L71363 74774
L71391 74849
L71461 74886
L71536 74886
" />
<path d="M71911 74886
L71841 74849
L71813 74774
L71897 74099
" />
<path d="M72516 74849
L72436 74886
L72286 74886
L72216 74849
L72187 74774
L72225 74474
L72272 74399
L72352 74361
L72501 74361
L72572 74399
L72600 74474
L72591 74549
L72206 74624
" />
<path d="M72895 74811
L72928 74849
L72886 74886
L72853 74849
L72895 74811
L72886 74886
" />
<path d="M72947 74399
L72980 74436
L72937 74474
L72905 74436
L72947 74399
L72937 74474
" />
</g>
<g style="fill:#000000; fill-opacity:0.0; 
stroke:#000000; stroke-width:39.3701; stroke-opacity:1; 
stroke-linecap:round; stroke-linejoin:round;">
</g>
<g style="fill:#000000; fill-opacity:0.0; 
stroke:#000000; stroke-width:59.0551; stroke-opacity:1; 
stroke-linecap:round; stroke-linejoin:round;">
<path d="M70446 73070
L70249 73070
" />
<path d="M70249 73380
L70249 72789
L70530 72789
" />
<path d="M70755 73380
L70755 72986
" />
<path d="M70755 72789
L70727 72817
L70755 72845
L70784 72817
L70755 72789
L70755 72845
" />
<path d="M71121 73380
L71065 73352
L71037 73295
L71037 72789
" />
<path d="M71571 73352
L71515 73380
L71402 73380
L71346 73352
L71318 73295
L71318 73070
L71346 73014
L71402 72986
L71515 72986
L71571 73014
L71599 73070
L71599 73127
L71318 73183
" />
<path d="M71852 73323
L71880 73352
L71852 73380
L71824 73352
L71852 73323
L71852 73380
" />
<path d="M71852 73014
L71880 73042
L71852 73070
L71824 73042
L71852 73014
L71852 73070
" />
<path d="M72696 72789
L72808 72789
L72865 72817
L72921 72874
L72949 72986
L72949 73183
L72921 73295
L72865 73352
L72808 73380
L72696 73380
L72640 73352
L72583 73295
L72555 73183
L72555 72986
L72583 72874
L72640 72817
L72696 72789
" />
<path d="M73202 72986
L73202 73577
" />
<path d="M73202 73014
L73258 72986
L73371 72986
L73427 73014
L73455 73042
L73483 73099
L73483 73267
L73455 73323
L73427 73352
L73371 73380
L73258 73380
L73202 73352
" />
<path d="M73961 73352
L73905 73380
L73793 73380
L73736 73352
L73708 73295
L73708 73070
L73736 73014
L73793 72986
L73905 72986
L73961 73014
L73989 73070
L73989 73127
L73708 73183
" />
<path d="M74242 72986
L74242 73380
" />
<path d="M74242 73042
L74271 73014
L74327 72986
L74411 72986
L74467 73014
L74496 73070
L74496 73380
" />
<path d="M74777 73380
L74777 72789
L74917 72789
L75002 72817
L75058 72874
L75086 72930
L75114 73042
L75114 73127
L75086 73239
L75058 73295
L75002 73352
L74917 73380
L74777 73380
" />
<path d="M75367 73380
L75367 72986
" />
<path d="M75367 73099
L75395 73042
L75424 73014
L75480 72986
L75536 72986
" />
<path d="M75817 73380
L75761 73352
L75733 73323
L75705 73267
L75705 73099
L75733 73042
L75761 73014
L75817 72986
L75902 72986
L75958 73014
L75986 73042
L76014 73099
L76014 73267
L75986 73323
L75958 73352
L75902 73380
L75817 73380
" />
<path d="M76267 72986
L76267 73577
" />
<path d="M76267 73014
L76323 72986
L76436 72986
L76492 73014
L76520 73042
L76548 73099
L76548 73267
L76520 73323
L76492 73352
L76436 73380
L76323 73380
L76267 73352
" />
<path d="M76717 72789
L76914 73380
L77111 72789
" />
<path d="M77280 72845
L77308 72817
L77364 72789
L77505 72789
L77561 72817
L77589 72845
L77617 72902
L77617 72958
L77589 73042
L77251 73380
L77617 73380
" />
<path d="M77870 73323
L77898 73352
L77870 73380
L77842 73352
L77870 73323
L77870 73380
" />
<path d="M78151 73380
L78151 72789
" />
<path d="M78208 73155
L78376 73380
" />
<path d="M78376 72986
L78151 73211
" />
<path d="M78629 73380
L78629 72986
" />
<path d="M78629 72789
L78601 72817
L78629 72845
L78658 72817
L78629 72789
L78629 72845
" />
<path d="M79164 73352
L79108 73380
L78995 73380
L78939 73352
L78911 73323
L78883 73267
L78883 73099
L78911 73042
L78939 73014
L78995 72986
L79108 72986
L79164 73014
" />
<path d="M79670 73380
L79670 73070
L79642 73014
L79586 72986
L79473 72986
L79417 73014
" />
<path d="M79670 73352
L79614 73380
L79473 73380
L79417 73352
L79389 73295
L79389 73239
L79417 73183
L79473 73155
L79614 73155
L79670 73127
" />
<path d="M80204 73380
L80204 72789
" />
<path d="M80204 73352
L80148 73380
L80036 73380
L79979 73352
L79951 73323
L79923 73267
L79923 73099
L79951 73042
L79979 73014
L80036 72986
L80148 72986
L80204 73014
" />
<path d="M80345 73436
L80795 73436
" />
<path d="M80935 72986
L80935 73577
" />
<path d="M80935 73014
L80992 72986
L81104 72986
L81160 73014
L81188 73042
L81217 73099
L81217 73267
L81188 73323
L81160 73352
L81104 73380
L80992 73380
L80935 73352
" />
<path d="M81723 73352
L81667 73380
L81554 73380
L81498 73352
L81470 73323
L81442 73267
L81442 73099
L81470 73042
L81498 73014
L81554 72986
L81667 72986
L81723 73014
" />
<path d="M81976 73380
L81976 72789
" />
<path d="M81976 73014
L82032 72986
L82145 72986
L82201 73014
L82229 73042
L82257 73099
L82257 73267
L82229 73323
L82201 73352
L82145 73380
L82032 73380
L81976 73352
" />
</g>
<g style="fill:#000000; fill-opacity:0.0; 
stroke:#000000; stroke-width:39.3701; stroke-opacity:1; 
stroke-linecap:round; stroke-linejoin:round;">
</g>
<g style="fill:#000000; fill-opacity:0.0; 
stroke:#000000; stroke-width:59.0551; stroke-opacity:1; 
stroke-linecap:round; stroke-linejoin:round;">
<path d="M69685 71459
L112205 71459
" />
</g>
<g style="fill:#000000; fill-opacity:0.0; 
stroke:#000000; stroke-width:39.3701; stroke-opacity:1; 
stroke-linecap:round; stroke-linejoin:round;">
</g>
<g style="fill:#000000; fill-opacity:0.0; 
stroke:#000000; stroke-width:59.0551; stroke-opacity:1; 
stroke-linecap:round; stroke-linejoin:round;">
<path d="M70221 72289
L70305 72317
L70446 72317
L70502 72289
L70530 72260
L70559 72204
L70559 72148
L70530 72092
L70502 72064
L70446 72036
L70334 72007
L70277 71979
L70249 71951
L70221 71895
L70221 71839
L70249 71782
L70277 71754
L70334 71726
L70474 71726
L70559 71754
" />
<path d="M70812 72317
L70812 71726
" />
<path d="M71065 72317
L71065 72007
L71037 71951
L70980 71923
L70896 71923
L70840 71951
L70812 71979
" />
<path d="M71571 72289
L71515 72317
L71402 72317
L71346 72289
L71318 72232
L71318 72007
L71346 71951
L71402 71923
L71515 71923
L71571 71951
L71599 72007
L71599 72064
L71318 72120
" />
<path d="M72077 72289
L72021 72317
L71908 72317
L71852 72289
L71824 72232
L71824 72007
L71852 71951
L71908 71923
L72021 71923
L72077 71951
L72105 72007
L72105 72064
L71824 72120
" />
<path d="M72274 71923
L72499 71923
" />
<path d="M72358 71726
L72358 72232
L72386 72289
L72443 72317
L72499 72317
" />
<path d="M72696 72260
L72724 72289
L72696 72317
L72668 72289
L72696 72260
L72696 72317
" />
<path d="M72696 71951
L72724 71979
L72696 72007
L72668 71979
L72696 71951
L72696 72007
" />
</g>
<g style="fill:#000000; fill-opacity:0.0; 
stroke:#000000; stroke-width:39.3701; stroke-opacity:1; 
stroke-linecap:round; stroke-linejoin:round;">
</g>
<g style="fill:#000000; fill-opacity:0.0; 
stroke:#000000; stroke-width:59.0551; stroke-opacity:1; 
stroke-linecap:round; stroke-linejoin:round;">
<path d="M77559 75396
L77559 76577
" />
</g>
<g style="fill:#000000; fill-opacity:0.0; 
stroke:#000000; stroke-width:39.3701; stroke-opacity:1; 
stroke-linecap:round; stroke-linejoin:round;">
</g>
<g style="fill:#000000; fill-opacity:0.0; 
stroke:#000000; stroke-width:59.0551; stroke-opacity:1; 
stroke-linecap:round; stroke-linejoin:round;">
<path d="M102756 75396
L102756 77955
" />
</g>
<g style="fill:#000000; fill-opacity:0.0; 
stroke:#000000; stroke-width:39.3701; stroke-opacity:1; 
stroke-linecap:round; stroke-linejoin:round;">
<path d="M20988 53510
L19681 53144
" />
<path d="M22256 53833
L20988 53510
" />
<path d="M24296 54305
L22256 53833
" />
<path d="M26626 54770
L24296 54305
" />
<path d="M28697 55116
L26626 54770
" />
<path d="M30784 55400
L28697 55116
" />
<path d="M32894 55620
L30784 55400
" />
<path d="M34937 55781
L32894 55620
" />
<path d="M36567 55864
L34937 55781
" />
<path d="M38819 55907
L36567 55864
" />
<path d="M40386 55907
L38819 55907
" />
<path d="M41815 55872
L40386 55907
" />
<path d="M43882 55770
L41815 55872
" />
<path d="M45607 55644
L43882 55770
" />
<path d="M47622 55431
L45607 55644
" />
<path d="M49197 55234
L47622 55431
" />
<path d="M51193 54927
L49197 55234
" />
<path d="M53288 54541
L51193 54927
" />
<path d="M54823 54218
L53288 54541
" />
<path d="M56284 53880
L54823 54218
" />
<path d="M57953 53451
L56284 53880
" />
<path d="M59051 53144
L57953 53451
" />
<path d="M59055.1 18110.2 A1574.8 1574.8 0.0 0 0 57480.3 16535.4 " />
<path d="M21259.8 16535.4 A1574.8 1574.8 0.0 0 0 19685 18110.2 " />
<path d="M59055 18503
L59055 25984
" />
<path d="M19685 18110
L19685 53149
" />
<path d="M59055 18110
L59055 53149
" />
<path d="M21259 16535
L57480 16535
" />
</g>
<g style="fill:#000000; fill-opacity:0.0; 
stroke:#000000; stroke-width:0; stroke-opacity:1; 
stroke-linecap:round; stroke-linejoin:round;">
</g>
<g style="fill:#000000; fill-opacity:1.0; 
stroke:#000000; stroke-width:0; stroke-opacity:1; 
stroke-linecap:round; stroke-linejoin:round;">
<polyline style="fill-rule:evenodd;"
points="45738,31120
45738,30320
45998,30320
45998,31120
45738,31120
" /> 
<polyline style="fill-rule:evenodd;"
points="45238,31120
45238,30320
45498,30320
45498,31120
45238,31120
" /> 
<polyline style="fill-rule:evenodd;"
points="44738,31120
44738,30320
44998,30320
44998,31120
44738,31120
" /> 
<polyline style="fill-rule:evenodd;"
points="44238,31120
44238,30320
44498,30320
44498,31120
44238,31120
" /> 
<polyline style="fill-rule:evenodd;"
points="44238,28700
44238,27900
44498,27900
44498,28700
44238,28700
" /> 
<polyline style="fill-rule:evenodd;"
points="44738,28700
44738,27900
44998,27900
44998,28700
44738,28700
" /> 
<polyline style="fill-rule:evenodd;"
points="45238,28700
45238,27900
45498,27900
45498,28700
45238,28700
" /> 
<polyline style="fill-rule:evenodd;"
points="45738,28700
45738,27900
45998,27900
45998,28700
45738,28700
" /> 
<polyline style="fill-rule:evenodd;"
points="57807,24023
57807,24771
57405,24771
57405,24023
57807,24023
" /> 
<polyline style="fill-rule:evenodd;"
points="56807,25322
56807,26070
56405,26070
56405,25322
56807,25322
" /> 
<polyline style="fill-rule:evenodd;"
points="55807,24023
55807,24771
55405,24771
55405,24023
55807,24023
" /> 
<polyline style="fill-rule:evenodd;"
points="54807,25322
54807,26070
54405,26070
54405,25322
54807,25322
" /> 
<polyline style="fill-rule:evenodd;"
points="53807,24023
53807,24771
53405,24771
53405,24023
53807,24023
" /> 
<polyline style="fill-rule:evenodd;"
points="52807,25322
52807,26070
52405,26070
52405,25322
52807,25322
" /> 
<polyline style="fill-rule:evenodd;"
points="51807,24023
51807,24771
51405,24771
51405,24023
51807,24023
" /> 
<polyline style="fill-rule:evenodd;"
points="50807,25322
50807,26070
50405,26070
50405,25322
50807,25322
" /> 
<polyline style="fill-rule:evenodd;"
points="49807,24023
49807,24771
49405,24771
49405,24023
49807,24023
" /> 
<polyline style="fill-rule:evenodd;"
points="48807,25322
48807,26070
48405,26070
48405,25322
48807,25322
" /> 
<polyline style="fill-rule:evenodd;"
points="46807,25322
46807,26070
46405,26070
46405,25322
46807,25322
" /> 
<polyline style="fill-rule:evenodd;"
points="44807,25322
44807,26070
44405,26070
44405,25322
44807,25322
" /> 
<polyline style="fill-rule:evenodd;"
points="42807,25322
42807,26070
42405,26070
42405,25322
42807,25322
" /> 
<polyline style="fill-rule:evenodd;"
points="41807,24023
41807,24771
41405,24771
41405,24023
41807,24023
" /> 
<polyline style="fill-rule:evenodd;"
points="45807,24023
45807,24771
45405,24771
45405,24023
45807,24023
" /> 
<polyline style="fill-rule:evenodd;"
points="43807,24023
43807,24771
43405,24771
43405,24023
43807,24023
" /> 
<polyline style="fill-rule:evenodd;"
points="47807,24023
47807,24771
47405,24771
47405,24023
47807,24023
" /> 
<polyline style="fill-rule:evenodd;"
points="53405,20070
53405,19322
53807,19322
53807,20070
53405,20070
" /> 
<polyline style="fill-rule:evenodd;"
points="55405,20070
55405,19322
55807,19322
55807,20070
55405,20070
" /> 
<polyline style="fill-rule:evenodd;"
points="51405,20070
51405,19322
51807,19322
51807,20070
51405,20070
" /> 
<polyline style="fill-rule:evenodd;"
points="57405,20070
57405,19322
57807,19322
57807,20070
57405,20070
" /> 
<polyline style="fill-rule:evenodd;"
points="56405,18771
56405,18023
56807,18023
56807,18771
56405,18771
" /> 
<polyline style="fill-rule:evenodd;"
points="54405,18771
54405,18023
54807,18023
54807,18771
54405,18771
" /> 
<polyline style="fill-rule:evenodd;"
points="52405,18771
52405,18023
52807,18023
52807,18771
52405,18771
" /> 
<polyline style="fill-rule:evenodd;"
points="50405,18771
50405,18023
50807,18023
50807,18771
50405,18771
" /> 
<polyline style="fill-rule:evenodd;"
points="49405,20070
49405,19322
49807,19322
49807,20070
49405,20070
" /> 
<polyline style="fill-rule:evenodd;"
points="48405,18771
48405,18023
48807,18023
48807,18771
48405,18771
" /> 
<polyline style="fill-rule:evenodd;"
points="47405,20070
47405,19322
47807,19322
47807,20070
47405,20070
" /> 
<polyline style="fill-rule:evenodd;"
points="46405,18771
46405,18023
46807,18023
46807,18771
46405,18771
" /> 
<polyline style="fill-rule:evenodd;"
points="45405,20070
45405,19322
45807,19322
45807,20070
45405,20070
" /> 
<polyline style="fill-rule:evenodd;"
points="44405,18771
44405,18023
44807,18023
44807,18771
44405,18771
" /> 
<polyline style="fill-rule:evenodd;"
points="43405,20070
43405,19322
43807,19322
43807,20070
43405,20070
" /> 
<polyline style="fill-rule:evenodd;"
points="42405,18771
42405,18023
42807,18023
42807,18771
42405,18771
" /> 
<polyline style="fill-rule:evenodd;"
points="41405,20070
41405,19322
41807,19322
41807,20070
41405,20070
" /> 
<polyline style="fill-rule:evenodd;"
points="27785,26533
27785,27792
27391,27792
27391,26533
27785,26533
" /> 
<polyline style="fill-rule:evenodd;"
points="25344,26533
25344,27792
24950,27792
24950,26533
25344,26533
" /> 
<polyline style="fill-rule:evenodd;"
points="35679,20820
35679,21805
35285,21805
35285,20820
35679,20820
" /> 
<polyline style="fill-rule:evenodd;"
points="33750,20820
33750,21805
33356,21805
33356,20820
33750,20820
" /> 
<polyline style="fill-rule:evenodd;"
points="31869,30506
31869,29408
33019,29408
33019,30506
31869,30506
" /> 
<polyline style="fill-rule:evenodd;"
points="37920,30506
37920,29408
39070,29408
39070,30506
37920,30506
" /> 
<polyline style="fill-rule:evenodd;"
points="33820,24682
32920,24682
32920,24232
33820,24232
33820,24682
" /> 
<polyline style="fill-rule:evenodd;"
points="38997,26583
36242,26583
36242,22331
38997,22331
38997,26583
" /> 
<polyline style="fill-rule:evenodd;"
points="33820,23682
32920,23682
32920,23232
33820,23232
33820,23682
" /> 
<polyline style="fill-rule:evenodd;"
points="33820,25682
32920,25682
32920,25232
33820,25232
33820,25682
" /> 
<polyline style="fill-rule:evenodd;"
points="29958,26916
29958,27409
29564,27409
29564,26916
29958,26916
" /> 
<polyline style="fill-rule:evenodd;"
points="29170,26916
29170,27409
28777,27409
28777,26916
29170,26916
" /> 
<polyline style="fill-rule:evenodd;"
points="29021,23272
29513,23272
29513,23666
29021,23666
29021,23272
" /> 
<polyline style="fill-rule:evenodd;"
points="29021,24059
29513,24059
29513,24453
29021,24453
29021,24059
" /> 
<polyline style="fill-rule:evenodd;"
points="30948,27820
30948,28805
30161,28805
30161,27820
30948,27820
" /> 
<polyline style="fill-rule:evenodd;"
points="29374,27820
29374,28805
28586,28805
28586,27820
29374,27820
" /> 
<polyline style="fill-rule:evenodd;"
points="29011,24851
29523,24851
29523,25126
29011,25126
29011,24851
" /> 
<polyline style="fill-rule:evenodd;"
points="29011,25599
29523,25599
29523,25874
29011,25874
29011,25599
" /> 
<polyline style="fill-rule:evenodd;"
points="30651,20748
30651,19566
32619,19566
32619,20748
30651,20748
" /> 
<polyline style="fill-rule:evenodd;"
points="26320,20748
26320,19566
28288,19566
28288,20748
26320,20748
" /> 
<polyline style="fill-rule:evenodd;"
points="31104,29433
31104,30692
30041,30692
30041,29433
31104,29433
" /> 
<polyline style="fill-rule:evenodd;"
points="27994,29433
27994,30692
26931,30692
26931,29433
27994,29433
" /> 
<polyline style="fill-rule:evenodd;"
points="47038,20912
47531,20912
47531,21306
47038,21306
47038,20912
" /> 
<polyline style="fill-rule:evenodd;"
points="47038,21700
47531,21700
47531,22093
47038,22093
47038,21700
" /> 
<polyline style="fill-rule:evenodd;"
points="57364,22901
56872,22901
56872,22507
57364,22507
57364,22901
" /> 
<polyline style="fill-rule:evenodd;"
points="57364,22113
56872,22113
56872,21720
57364,21720
57364,22113
" /> 
<polyline style="fill-rule:evenodd;"
points="48764,21601
48272,21601
48272,21207
48764,21207
48764,21601
" /> 
<polyline style="fill-rule:evenodd;"
points="48764,20813
48272,20813
48272,20420
48764,20420
48764,20813
" /> 
<polyline style="fill-rule:evenodd;"
points="56072,21720
56564,21720
56564,22113
56072,22113
56072,21720
" /> 
<polyline style="fill-rule:evenodd;"
points="56072,22507
56564,22507
56564,22901
56072,22901
56072,22507
" /> 
<polyline style="fill-rule:evenodd;"
points="57119,36134
57119,36862
56718,36862
56718,36134
57119,36134
" /> 
<polyline style="fill-rule:evenodd;"
points="56119,36134
56119,36862
55718,36862
55718,36134
56119,36134
" /> 
<polyline style="fill-rule:evenodd;"
points="55119,36134
55119,36862
54718,36862
54718,36134
55119,36134
" /> 
<polyline style="fill-rule:evenodd;"
points="54119,36134
54119,36862
53718,36862
53718,36134
54119,36134
" /> 
<polyline style="fill-rule:evenodd;"
points="57119,38358
57119,39087
56718,39087
56718,38358
57119,38358
" /> 
<polyline style="fill-rule:evenodd;"
points="56119,38358
56119,39087
55718,39087
55718,38358
56119,38358
" /> 
<polyline style="fill-rule:evenodd;"
points="55119,38358
55119,39087
54718,39087
54718,38358
55119,38358
" /> 
<polyline style="fill-rule:evenodd;"
points="54119,38358
54119,39087
53718,39087
53718,38358
54119,38358
" /> 
<polyline style="fill-rule:evenodd;"
points="20472,17244
21259,17244
21259,18188
20472,18188
20472,17244
" /> 
<polyline style="fill-rule:evenodd;"
points="24803,17244
25590,17244
25590,18188
24803,18188
24803,17244
" /> 
<polyline style="fill-rule:evenodd;"
points="20472,19685
21259,19685
21259,20629
20472,20629
20472,19685
" /> 
<polyline style="fill-rule:evenodd;"
points="24803,19685
25590,19685
25590,20629
24803,20629
24803,19685
" /> 
<polyline style="fill-rule:evenodd;"
points="44725,23375
44214,23375
44214,23100
44725,23100
44725,23375
" /> 
<polyline style="fill-rule:evenodd;"
points="44725,22627
44214,22627
44214,22351
44725,22351
44725,22627
" /> 
<polyline style="fill-rule:evenodd;"
points="56740,20814
56229,20814
56229,20539
56740,20539
56740,20814
" /> 
<polyline style="fill-rule:evenodd;"
points="56740,20066
56229,20066
56229,19791
56740,19791
56740,20066
" /> 
<polyline style="fill-rule:evenodd;"
points="57672,22507
58164,22507
58164,22901
57672,22901
57672,22507
" /> 
<polyline style="fill-rule:evenodd;"
points="57672,21720
58164,21720
58164,22113
57672,22113
57672,21720
" /> 
<polyline style="fill-rule:evenodd;"
points="58230,20279
58407,20279
58407,20511
58230,20511
58230,20279
" /> 
<polyline style="fill-rule:evenodd;"
points="58230,21109
58407,21109
58407,21342
58230,21342
58230,21109
" /> 
<polyline style="fill-rule:evenodd;"
points="57150,23722
57150,23899
56918,23899
56918,23722
57150,23722
" /> 
<polyline style="fill-rule:evenodd;"
points="56319,23722
56319,23899
56087,23899
56087,23722
56319,23722
" /> 
<polyline style="fill-rule:evenodd;"
points="52553,22466
52553,22151
52868,22151
52868,22466
52553,22466
" /> 
<polyline style="fill-rule:evenodd;"
points="53301,22466
53301,22151
53616,22151
53616,22466
53301,22466
" /> 
<polyline style="fill-rule:evenodd;"
points="52927,23253
52927,22938
53242,22938
53242,23253
52927,23253
" /> 
<polyline style="fill-rule:evenodd;"
points="49903,22366
49903,22051
50218,22051
50218,22366
49903,22366
" /> 
<polyline style="fill-rule:evenodd;"
points="50651,22366
50651,22051
50966,22051
50966,22366
50651,22366
" /> 
<polyline style="fill-rule:evenodd;"
points="50277,23153
50277,22838
50592,22838
50592,23153
50277,23153
" /> 
<polyline style="fill-rule:evenodd;"
points="47925,28785
47414,28785
47414,28509
47925,28509
47925,28785
" /> 
<polyline style="fill-rule:evenodd;"
points="47925,28037
47414,28037
47414,27761
47925,27761
47925,28037
" /> 
<polyline style="fill-rule:evenodd;"
points="45214,20851
45725,20851
45725,21127
45214,21127
45214,20851
" /> 
<polyline style="fill-rule:evenodd;"
points="45214,21600
45725,21600
45725,21875
45214,21875
45214,21600
" /> 
<polyline style="fill-rule:evenodd;"
points="48507,23166
48507,22654
48782,22654
48782,23166
48507,23166
" /> 
<polyline style="fill-rule:evenodd;"
points="49255,23166
49255,22654
49530,22654
49530,23166
49255,23166
" /> 
<polyline style="fill-rule:evenodd;"
points="53040,24614
52529,24614
52529,24339
53040,24339
53040,24614
" /> 
<polyline style="fill-rule:evenodd;"
points="53040,23866
52529,23866
52529,23591
53040,23591
53040,23866
" /> 
<polyline style="fill-rule:evenodd;"
points="51790,23114
51279,23114
51279,22839
51790,22839
51790,23114
" /> 
<polyline style="fill-rule:evenodd;"
points="51790,22366
51279,22366
51279,22091
51790,22091
51790,22366
" /> 
<polyline style="fill-rule:evenodd;"
points="49862,20498
50374,20498
50374,20774
49862,20774
49862,20498
" /> 
<polyline style="fill-rule:evenodd;"
points="49862,21246
50374,21246
50374,21522
49862,21522
49862,21246
" /> 
<polyline style="fill-rule:evenodd;"
points="54062,19798
54574,19798
54574,20074
54062,20074
54062,19798
" /> 
<polyline style="fill-rule:evenodd;"
points="54062,20546
54574,20546
54574,20822
54062,20822
54062,20546
" /> 
<polyline style="fill-rule:evenodd;"
points="52662,20498
53174,20498
53174,20774
52662,20774
52662,20498
" /> 
<polyline style="fill-rule:evenodd;"
points="52662,21246
53174,21246
53174,21522
52662,21522
52662,21246
" /> 
<polyline style="fill-rule:evenodd;"
points="57430,20279
57607,20279
57607,20511
57430,20511
57430,20279
" /> 
<polyline style="fill-rule:evenodd;"
points="57430,21109
57607,21109
57607,21342
57430,21342
57430,21109
" /> 
<polyline style="fill-rule:evenodd;"
points="49206,27741
49521,27741
49521,28056
49206,28056
49206,27741
" /> 
<polyline style="fill-rule:evenodd;"
points="49206,28489
49521,28489
49521,28804
49206,28804
49206,28489
" /> 
<polyline style="fill-rule:evenodd;"
points="48419,28115
48734,28115
48734,28430
48419,28430
48419,28115
" /> 
<polyline style="fill-rule:evenodd;"
points="50662,20498
51174,20498
51174,20774
50662,20774
50662,20498
" /> 
<polyline style="fill-rule:evenodd;"
points="50662,21246
51174,21246
51174,21522
50662,21522
50662,21246
" /> 
<polyline style="fill-rule:evenodd;"
points="26523,41006
26523,40415
27114,40415
27114,41006
26523,41006
" /> 
<polyline style="fill-rule:evenodd;"
points="49924,38482
50416,38482
50416,38876
49924,38876
49924,38482
" /> 
<polyline style="fill-rule:evenodd;"
points="49924,39270
50416,39270
50416,39663
49924,39663
49924,39270
" /> 
<polyline style="fill-rule:evenodd;"
points="28616,39963
28124,39963
28124,39570
28616,39570
28616,39963
" /> 
<polyline style="fill-rule:evenodd;"
points="28616,39176
28124,39176
28124,38782
28616,38782
28616,39176
" /> 
<polyline style="fill-rule:evenodd;"
points="35265,20218
35265,18407
36053,18407
36053,20218
35265,20218
" /> 
<polyline style="fill-rule:evenodd;"
points="32982,20218
32982,18407
33769,18407
33769,20218
32982,20218
" /> 
<polyline style="fill-rule:evenodd;"
points="38220,19708
37314,19708
37314,18724
38220,18724
38220,19708
" /> 
<polyline style="fill-rule:evenodd;"
points="38220,21401
37314,21401
37314,20417
38220,20417
38220,21401
" /> 
<polyline style="fill-rule:evenodd;"
points="30550,23147
30550,23947
30290,23947
30290,23147
30550,23147
" /> 
<polyline style="fill-rule:evenodd;"
points="31050,23147
31050,23947
30790,23947
30790,23147
31050,23147
" /> 
<polyline style="fill-rule:evenodd;"
points="31550,23147
31550,23947
31290,23947
31290,23147
31550,23147
" /> 
<polyline style="fill-rule:evenodd;"
points="32050,23147
32050,23947
31790,23947
31790,23147
32050,23147
" /> 
<polyline style="fill-rule:evenodd;"
points="32050,25567
32050,26367
31790,26367
31790,25567
32050,25567
" /> 
<polyline style="fill-rule:evenodd;"
points="31550,25567
31550,26367
31290,26367
31290,25567
31550,25567
" /> 
<polyline style="fill-rule:evenodd;"
points="31050,25567
31050,26367
30790,26367
30790,25567
31050,25567
" /> 
<polyline style="fill-rule:evenodd;"
points="30550,25567
30550,26367
30290,26367
30290,25567
30550,25567
" /> 
<polyline style="fill-rule:evenodd;"
points="40574,54022
40062,54022
40062,53746
40574,53746
40574,54022
" /> 
<polyline style="fill-rule:evenodd;"
points="40574,53274
40062,53274
40062,52998
40574,52998
40574,53274
" /> 
<polyline style="fill-rule:evenodd;"
points="39112,52998
39624,52998
39624,53274
39112,53274
39112,52998
" /> 
<polyline style="fill-rule:evenodd;"
points="39112,53746
39624,53746
39624,54022
39112,54022
39112,53746
" /> 
<polyline style="fill-rule:evenodd;"
points="38062,53598
38574,53598
38574,53874
38062,53874
38062,53598
" /> 
<polyline style="fill-rule:evenodd;"
points="38062,54346
38574,54346
38574,54622
38062,54622
38062,54346
" /> 
<polyline style="fill-rule:evenodd;"
points="38062,52248
38574,52248
38574,52524
38062,52524
38062,52248
" /> 
<polyline style="fill-rule:evenodd;"
points="38062,52996
38574,52996
38574,53272
38062,53272
38062,52996
" /> 
<polyline style="fill-rule:evenodd;"
points="37578,42708
37381,42708
37381,42125
37578,42125
37578,42708
" /> 
<polyline style="fill-rule:evenodd;"
points="37263,42708
37066,42708
37066,42125
37263,42125
37263,42708
" /> 
<polyline style="fill-rule:evenodd;"
points="36948,42708
36751,42708
36751,42125
36948,42125
36948,42708
" /> 
<polyline style="fill-rule:evenodd;"
points="36633,42708
36437,42708
36437,42125
36633,42125
36633,42708
" /> 
<polyline style="fill-rule:evenodd;"
points="36318,42708
36122,42708
36122,42125
36318,42125
36318,42708
" /> 
<polyline style="fill-rule:evenodd;"
points="36003,42708
35807,42708
35807,42125
36003,42125
36003,42708
" /> 
<polyline style="fill-rule:evenodd;"
points="35688,42708
35492,42708
35492,42125
35688,42125
35688,42708
" /> 
<polyline style="fill-rule:evenodd;"
points="35374,42708
35177,42708
35177,42125
35374,42125
35374,42708
" /> 
<polyline style="fill-rule:evenodd;"
points="35059,42708
34862,42708
34862,42125
35059,42125
35059,42708
" /> 
<polyline style="fill-rule:evenodd;"
points="34744,42708
34547,42708
34547,42125
34744,42125
34744,42708
" /> 
<polyline style="fill-rule:evenodd;"
points="34429,42708
34232,42708
34232,42125
34429,42125
34429,42708
" /> 
<polyline style="fill-rule:evenodd;"
points="34114,42708
33917,42708
33917,42125
34114,42125
34114,42708
" /> 
<polyline style="fill-rule:evenodd;"
points="33799,42708
33602,42708
33602,42125
33799,42125
33799,42708
" /> 
<polyline style="fill-rule:evenodd;"
points="33484,42708
33287,42708
33287,42125
33484,42125
33484,42708
" /> 
<polyline style="fill-rule:evenodd;"
points="33169,42708
32972,42708
32972,42125
33169,42125
33169,42708
" /> 
<polyline style="fill-rule:evenodd;"
points="32854,42708
32657,42708
32657,42125
32854,42125
32854,42708
" /> 
<polyline style="fill-rule:evenodd;"
points="32539,42708
32342,42708
32342,42125
32539,42125
32539,42708
" /> 
<polyline style="fill-rule:evenodd;"
points="32224,42708
32027,42708
32027,42125
32224,42125
32224,42708
" /> 
<polyline style="fill-rule:evenodd;"
points="31909,42708
31712,42708
31712,42125
31909,42125
31909,42708
" /> 
<polyline style="fill-rule:evenodd;"
points="31594,42708
31397,42708
31397,42125
31594,42125
31594,42708
" /> 
<polyline style="fill-rule:evenodd;"
points="31279,42708
31082,42708
31082,42125
31279,42125
31279,42708
" /> 
<polyline style="fill-rule:evenodd;"
points="30964,42708
30767,42708
30767,42125
30964,42125
30964,42708
" /> 
<polyline style="fill-rule:evenodd;"
points="30649,42708
30452,42708
30452,42125
30649,42125
30649,42708
" /> 
<polyline style="fill-rule:evenodd;"
points="30334,42708
30137,42708
30137,42125
30334,42125
30334,42708
" /> 
<polyline style="fill-rule:evenodd;"
points="29141,41633
29141,41437
29724,41437
29724,41633
29141,41633
" /> 
<polyline style="fill-rule:evenodd;"
points="29141,41318
29141,41122
29724,41122
29724,41318
29141,41318
" /> 
<polyline style="fill-rule:evenodd;"
points="29141,41003
29141,40807
29724,40807
29724,41003
29141,41003
" /> 
<polyline style="fill-rule:evenodd;"
points="29141,40688
29141,40492
29724,40492
29724,40688
29141,40688
" /> 
<polyline style="fill-rule:evenodd;"
points="29141,40374
29141,40177
29724,40177
29724,40374
29141,40374
" /> 
<polyline style="fill-rule:evenodd;"
points="29141,40059
29141,39862
29724,39862
29724,40059
29141,40059
" /> 
<polyline style="fill-rule:evenodd;"
points="29141,39744
29141,39547
29724,39547
29724,39744
29141,39744
" /> 
<polyline style="fill-rule:evenodd;"
points="29141,39429
29141,39232
29724,39232
29724,39429
29141,39429
" /> 
<polyline style="fill-rule:evenodd;"
points="29141,39114
29141,38917
29724,38917
29724,39114
29141,39114
" /> 
<polyline style="fill-rule:evenodd;"
points="29141,38799
29141,38602
29724,38602
29724,38799
29141,38799
" /> 
<polyline style="fill-rule:evenodd;"
points="29141,38484
29141,38287
29724,38287
29724,38484
29141,38484
" /> 
<polyline style="fill-rule:evenodd;"
points="29141,38169
29141,37972
29724,37972
29724,38169
29141,38169
" /> 
<polyline style="fill-rule:evenodd;"
points="29141,37854
29141,37657
29724,37657
29724,37854
29141,37854
" /> 
<polyline style="fill-rule:evenodd;"
points="29141,37539
29141,37342
29724,37342
29724,37539
29141,37539
" /> 
<polyline style="fill-rule:evenodd;"
points="29141,37224
29141,37027
29724,37027
29724,37224
29141,37224
" /> 
<polyline style="fill-rule:evenodd;"
points="29141,36909
29141,36712
29724,36712
29724,36909
29141,36909
" /> 
<polyline style="fill-rule:evenodd;"
points="30334,36220
30137,36220
30137,35637
30334,35637
30334,36220
" /> 
<polyline style="fill-rule:evenodd;"
points="30649,36220
30452,36220
30452,35637
30649,35637
30649,36220
" /> 
<polyline style="fill-rule:evenodd;"
points="30964,36220
30767,36220
30767,35637
30964,35637
30964,36220
" /> 
<polyline style="fill-rule:evenodd;"
points="31279,36220
31082,36220
31082,35637
31279,35637
31279,36220
" /> 
<polyline style="fill-rule:evenodd;"
points="31594,36220
31397,36220
31397,35637
31594,35637
31594,36220
" /> 
<polyline style="fill-rule:evenodd;"
points="31909,36220
31712,36220
31712,35637
31909,35637
31909,36220
" /> 
<polyline style="fill-rule:evenodd;"
points="32224,36220
32027,36220
32027,35637
32224,35637
32224,36220
" /> 
<polyline style="fill-rule:evenodd;"
points="32539,36220
32342,36220
32342,35637
32539,35637
32539,36220
" /> 
<polyline style="fill-rule:evenodd;"
points="32854,36220
32657,36220
32657,35637
32854,35637
32854,36220
" /> 
<polyline style="fill-rule:evenodd;"
points="33169,36220
32972,36220
32972,35637
33169,35637
33169,36220
" /> 
<polyline style="fill-rule:evenodd;"
points="33484,36220
33287,36220
33287,35637
33484,35637
33484,36220
" /> 
<polyline style="fill-rule:evenodd;"
points="33799,36220
33602,36220
33602,35637
33799,35637
33799,36220
" /> 
<polyline style="fill-rule:evenodd;"
points="34114,36220
33917,36220
33917,35637
34114,35637
34114,36220
" /> 
<polyline style="fill-rule:evenodd;"
points="34429,36220
34232,36220
34232,35637
34429,35637
34429,36220
" /> 
<polyline style="fill-rule:evenodd;"
points="34744,36220
34547,36220
34547,35637
34744,35637
34744,36220
" /> 
<polyline style="fill-rule:evenodd;"
points="35059,36220
34862,36220
34862,35637
35059,35637
35059,36220
" /> 
<polyline style="fill-rule:evenodd;"
points="35374,36220
35177,36220
35177,35637
35374,35637
35374,36220
" /> 
<polyline style="fill-rule:evenodd;"
points="35688,36220
35492,36220
35492,35637
35688,35637
35688,36220
" /> 
<polyline style="fill-rule:evenodd;"
points="36003,36220
35807,36220
35807,35637
36003,35637
36003,36220
" /> 
<polyline style="fill-rule:evenodd;"
points="36318,36220
36122,36220
36122,35637
36318,35637
36318,36220
" /> 
<polyline style="fill-rule:evenodd;"
points="36633,36220
36437,36220
36437,35637
36633,35637
36633,36220
" /> 
<polyline style="fill-rule:evenodd;"
points="36948,36220
36751,36220
36751,35637
36948,35637
36948,36220
" /> 
<polyline style="fill-rule:evenodd;"
points="37263,36220
37066,36220
37066,35637
37263,35637
37263,36220
" /> 
<polyline style="fill-rule:evenodd;"
points="37578,36220
37381,36220
37381,35637
37578,35637
37578,36220
" /> 
<polyline style="fill-rule:evenodd;"
points="37992,36909
37992,36712
38574,36712
38574,36909
37992,36909
" /> 
<polyline style="fill-rule:evenodd;"
points="37992,37224
37992,37027
38574,37027
38574,37224
37992,37224
" /> 
<polyline style="fill-rule:evenodd;"
points="37992,37539
37992,37342
38574,37342
38574,37539
37992,37539
" /> 
<polyline style="fill-rule:evenodd;"
points="37992,37854
37992,37657
38574,37657
38574,37854
37992,37854
" /> 
<polyline style="fill-rule:evenodd;"
points="37992,38169
37992,37972
38574,37972
38574,38169
37992,38169
" /> 
<polyline style="fill-rule:evenodd;"
points="37992,38484
37992,38287
38574,38287
38574,38484
37992,38484
" /> 
<polyline style="fill-rule:evenodd;"
points="37992,38799
37992,38602
38574,38602
38574,38799
37992,38799
" /> 
<polyline style="fill-rule:evenodd;"
points="37992,39114
37992,38917
38574,38917
38574,39114
37992,39114
" /> 
<polyline style="fill-rule:evenodd;"
points="37992,39429
37992,39232
38574,39232
38574,39429
37992,39429
" /> 
<polyline style="fill-rule:evenodd;"
points="37992,39744
37992,39547
38574,39547
38574,39744
37992,39744
" /> 
<polyline style="fill-rule:evenodd;"
points="37992,40059
37992,39862
38574,39862
38574,40059
37992,40059
" /> 
<polyline style="fill-rule:evenodd;"
points="37992,40374
37992,40177
38574,40177
38574,40374
37992,40374
" /> 
<polyline style="fill-rule:evenodd;"
points="37992,40688
37992,40492
38574,40492
38574,40688
37992,40688
" /> 
<polyline style="fill-rule:evenodd;"
points="37992,41003
37992,40807
38574,40807
38574,41003
37992,41003
" /> 
<polyline style="fill-rule:evenodd;"
points="37992,41318
37992,41122
38574,41122
38574,41318
37992,41318
" /> 
<polyline style="fill-rule:evenodd;"
points="37992,41633
37992,41437
38574,41437
38574,41633
37992,41633
" /> 
<polyline style="fill-rule:evenodd;"
points="41161,35637
41358,35637
41358,36220
41161,36220
41161,35637
" /> 
<polyline style="fill-rule:evenodd;"
points="41476,35637
41673,35637
41673,36220
41476,36220
41476,35637
" /> 
<polyline style="fill-rule:evenodd;"
points="41791,35637
41988,35637
41988,36220
41791,36220
41791,35637
" /> 
<polyline style="fill-rule:evenodd;"
points="42106,35637
42303,35637
42303,36220
42106,36220
42106,35637
" /> 
<polyline style="fill-rule:evenodd;"
points="42421,35637
42618,35637
42618,36220
42421,36220
42421,35637
" /> 
<polyline style="fill-rule:evenodd;"
points="42736,35637
42933,35637
42933,36220
42736,36220
42736,35637
" /> 
<polyline style="fill-rule:evenodd;"
points="43051,35637
43248,35637
43248,36220
43051,36220
43051,35637
" /> 
<polyline style="fill-rule:evenodd;"
points="43366,35637
43562,35637
43562,36220
43366,36220
43366,35637
" /> 
<polyline style="fill-rule:evenodd;"
points="43681,35637
43877,35637
43877,36220
43681,36220
43681,35637
" /> 
<polyline style="fill-rule:evenodd;"
points="43996,35637
44192,35637
44192,36220
43996,36220
43996,35637
" /> 
<polyline style="fill-rule:evenodd;"
points="44311,35637
44507,35637
44507,36220
44311,36220
44311,35637
" /> 
<polyline style="fill-rule:evenodd;"
points="44625,35637
44822,35637
44822,36220
44625,36220
44625,35637
" /> 
<polyline style="fill-rule:evenodd;"
points="44940,35637
45137,35637
45137,36220
44940,36220
44940,35637
" /> 
<polyline style="fill-rule:evenodd;"
points="45255,35637
45452,35637
45452,36220
45255,36220
45255,35637
" /> 
<polyline style="fill-rule:evenodd;"
points="45570,35637
45767,35637
45767,36220
45570,36220
45570,35637
" /> 
<polyline style="fill-rule:evenodd;"
points="45885,35637
46082,35637
46082,36220
45885,36220
45885,35637
" /> 
<polyline style="fill-rule:evenodd;"
points="46200,35637
46397,35637
46397,36220
46200,36220
46200,35637
" /> 
<polyline style="fill-rule:evenodd;"
points="46515,35637
46712,35637
46712,36220
46515,36220
46515,35637
" /> 
<polyline style="fill-rule:evenodd;"
points="46830,35637
47027,35637
47027,36220
46830,36220
46830,35637
" /> 
<polyline style="fill-rule:evenodd;"
points="47145,35637
47342,35637
47342,36220
47145,36220
47145,35637
" /> 
<polyline style="fill-rule:evenodd;"
points="47460,35637
47657,35637
47657,36220
47460,36220
47460,35637
" /> 
<polyline style="fill-rule:evenodd;"
points="47775,35637
47972,35637
47972,36220
47775,36220
47775,35637
" /> 
<polyline style="fill-rule:evenodd;"
points="48090,35637
48287,35637
48287,36220
48090,36220
48090,35637
" /> 
<polyline style="fill-rule:evenodd;"
points="48405,35637
48602,35637
48602,36220
48405,36220
48405,35637
" /> 
<polyline style="fill-rule:evenodd;"
points="49598,36712
49598,36909
49015,36909
49015,36712
49598,36712
" /> 
<polyline style="fill-rule:evenodd;"
points="49598,37027
49598,37224
49015,37224
49015,37027
49598,37027
" /> 
<polyline style="fill-rule:evenodd;"
points="49598,37342
49598,37539
49015,37539
49015,37342
49598,37342
" /> 
<polyline style="fill-rule:evenodd;"
points="49598,37657
49598,37854
49015,37854
49015,37657
49598,37657
" /> 
<polyline style="fill-rule:evenodd;"
points="49598,37972
49598,38169
49015,38169
49015,37972
49598,37972
" /> 
<polyline style="fill-rule:evenodd;"
points="49598,38287
49598,38484
49015,38484
49015,38287
49598,38287
" /> 
<polyline style="fill-rule:evenodd;"
points="49598,38602
49598,38799
49015,38799
49015,38602
49598,38602
" /> 
<polyline style="fill-rule:evenodd;"
points="49598,38917
49598,39114
49015,39114
49015,38917
49598,38917
" /> 
<polyline style="fill-rule:evenodd;"
points="49598,39232
49598,39429
49015,39429
49015,39232
49598,39232
" /> 
<polyline style="fill-rule:evenodd;"
points="49598,39547
49598,39744
49015,39744
49015,39547
49598,39547
" /> 
<polyline style="fill-rule:evenodd;"
points="49598,39862
49598,40059
49015,40059
49015,39862
49598,39862
" /> 
<polyline style="fill-rule:evenodd;"
points="49598,40177
49598,40374
49015,40374
49015,40177
49598,40177
" /> 
<polyline style="fill-rule:evenodd;"
points="49598,40492
49598,40688
49015,40688
49015,40492
49598,40492
" /> 
<polyline style="fill-rule:evenodd;"
points="49598,40807
49598,41003
49015,41003
49015,40807
49598,40807
" /> 
<polyline style="fill-rule:evenodd;"
points="49598,41122
49598,41318
49015,41318
49015,41122
49598,41122
" /> 
<polyline style="fill-rule:evenodd;"
points="49598,41437
49598,41633
49015,41633
49015,41437
49598,41437
" /> 
<polyline style="fill-rule:evenodd;"
points="48405,42125
48602,42125
48602,42708
48405,42708
48405,42125
" /> 
<polyline style="fill-rule:evenodd;"
points="48090,42125
48287,42125
48287,42708
48090,42708
48090,42125
" /> 
<polyline style="fill-rule:evenodd;"
points="47775,42125
47972,42125
47972,42708
47775,42708
47775,42125
" /> 
<polyline style="fill-rule:evenodd;"
points="47460,42125
47657,42125
47657,42708
47460,42708
47460,42125
" /> 
<polyline style="fill-rule:evenodd;"
points="47145,42125
47342,42125
47342,42708
47145,42708
47145,42125
" /> 
<polyline style="fill-rule:evenodd;"
points="46830,42125
47027,42125
47027,42708
46830,42708
46830,42125
" /> 
<polyline style="fill-rule:evenodd;"
points="46515,42125
46712,42125
46712,42708
46515,42708
46515,42125
" /> 
<polyline style="fill-rule:evenodd;"
points="46200,42125
46397,42125
46397,42708
46200,42708
46200,42125
" /> 
<polyline style="fill-rule:evenodd;"
points="45885,42125
46082,42125
46082,42708
45885,42708
45885,42125
" /> 
<polyline style="fill-rule:evenodd;"
points="45570,42125
45767,42125
45767,42708
45570,42708
45570,42125
" /> 
<polyline style="fill-rule:evenodd;"
points="45255,42125
45452,42125
45452,42708
45255,42708
45255,42125
" /> 
<polyline style="fill-rule:evenodd;"
points="44940,42125
45137,42125
45137,42708
44940,42708
44940,42125
" /> 
<polyline style="fill-rule:evenodd;"
points="44625,42125
44822,42125
44822,42708
44625,42708
44625,42125
" /> 
<polyline style="fill-rule:evenodd;"
points="44311,42125
44507,42125
44507,42708
44311,42708
44311,42125
" /> 
<polyline style="fill-rule:evenodd;"
points="43996,42125
44192,42125
44192,42708
43996,42708
43996,42125
" /> 
<polyline style="fill-rule:evenodd;"
points="43681,42125
43877,42125
43877,42708
43681,42708
43681,42125
" /> 
<polyline style="fill-rule:evenodd;"
points="43366,42125
43562,42125
43562,42708
43366,42708
43366,42125
" /> 
<polyline style="fill-rule:evenodd;"
points="43051,42125
43248,42125
43248,42708
43051,42708
43051,42125
" /> 
<polyline style="fill-rule:evenodd;"
points="42736,42125
42933,42125
42933,42708
42736,42708
42736,42125
" /> 
<polyline style="fill-rule:evenodd;"
points="42421,42125
42618,42125
42618,42708
42421,42708
42421,42125
" /> 
<polyline style="fill-rule:evenodd;"
points="42106,42125
42303,42125
42303,42708
42106,42708
42106,42125
" /> 
<polyline style="fill-rule:evenodd;"
points="41791,42125
41988,42125
41988,42708
41791,42708
41791,42125
" /> 
<polyline style="fill-rule:evenodd;"
points="41476,42125
41673,42125
41673,42708
41476,42708
41476,42125
" /> 
<polyline style="fill-rule:evenodd;"
points="41161,42125
41358,42125
41358,42708
41161,42708
41161,42125
" /> 
<polyline style="fill-rule:evenodd;"
points="40748,41437
40748,41633
40165,41633
40165,41437
40748,41437
" /> 
<polyline style="fill-rule:evenodd;"
points="40748,41122
40748,41318
40165,41318
40165,41122
40748,41122
" /> 
<polyline style="fill-rule:evenodd;"
points="40748,40807
40748,41003
40165,41003
40165,40807
40748,40807
" /> 
<polyline style="fill-rule:evenodd;"
points="40748,40492
40748,40688
40165,40688
40165,40492
40748,40492
" /> 
<polyline style="fill-rule:evenodd;"
points="40748,40177
40748,40374
40165,40374
40165,40177
40748,40177
" /> 
<polyline style="fill-rule:evenodd;"
points="40748,39862
40748,40059
40165,40059
40165,39862
40748,39862
" /> 
<polyline style="fill-rule:evenodd;"
points="40748,39547
40748,39744
40165,39744
40165,39547
40748,39547
" /> 
<polyline style="fill-rule:evenodd;"
points="40748,39232
40748,39429
40165,39429
40165,39232
40748,39232
" /> 
<polyline style="fill-rule:evenodd;"
points="40748,38917
40748,39114
40165,39114
40165,38917
40748,38917
" /> 
<polyline style="fill-rule:evenodd;"
points="40748,38602
40748,38799
40165,38799
40165,38602
40748,38602
" /> 
<polyline style="fill-rule:evenodd;"
points="40748,38287
40748,38484
40165,38484
40165,38287
40748,38287
" /> 
<polyline style="fill-rule:evenodd;"
points="40748,37972
40748,38169
40165,38169
40165,37972
40748,37972
" /> 
<polyline style="fill-rule:evenodd;"
points="40748,37657
40748,37854
40165,37854
40165,37657
40748,37657
" /> 
<polyline style="fill-rule:evenodd;"
points="40748,37342
40748,37539
40165,37539
40165,37342
40748,37342
" /> 
<polyline style="fill-rule:evenodd;"
points="40748,37027
40748,37224
40165,37224
40165,37027
40748,37027
" /> 
<polyline style="fill-rule:evenodd;"
points="40748,36712
40748,36909
40165,36909
40165,36712
40748,36712
" /> 
<polyline style="fill-rule:evenodd;"
points="55928,40356
55928,39864
56322,39864
56322,40356
55928,40356
" /> 
<polyline style="fill-rule:evenodd;"
points="56715,40356
56715,39864
57109,39864
57109,40356
56715,40356
" /> 
<polyline style="fill-rule:evenodd;"
points="55050,40022
55050,40199
54818,40199
54818,40022
55050,40022
" /> 
<polyline style="fill-rule:evenodd;"
points="54219,40022
54219,40199
53987,40199
53987,40022
54219,40022
" /> 
<polyline style="fill-rule:evenodd;"
points="56250,35347
56250,35662
55935,35662
55935,35347
56250,35347
" /> 
<polyline style="fill-rule:evenodd;"
points="55502,35347
55502,35662
55187,35662
55187,35347
55502,35347
" /> 
<polyline style="fill-rule:evenodd;"
points="55876,34560
55876,34875
55561,34875
55561,34560
55876,34560
" /> 
<polyline style="fill-rule:evenodd;"
points="56487,34874
56487,34559
56802,34559
56802,34874
56487,34874
" /> 
<polyline style="fill-rule:evenodd;"
points="57235,34874
57235,34559
57550,34559
57550,34874
57235,34874
" /> 
<polyline style="fill-rule:evenodd;"
points="56861,35661
56861,35346
57176,35346
57176,35661
56861,35661
" /> 
<polyline style="fill-rule:evenodd;"
points="53687,34874
53687,34559
54002,34559
54002,34874
53687,34874
" /> 
<polyline style="fill-rule:evenodd;"
points="54435,34874
54435,34559
54750,34559
54750,34874
54435,34874
" /> 
<polyline style="fill-rule:evenodd;"
points="54061,35661
54061,35346
54376,35346
54376,35661
54061,35661
" /> 
<polyline style="fill-rule:evenodd;"
points="26523,43006
26523,42415
27114,42415
27114,43006
26523,43006
" /> 
<polyline style="fill-rule:evenodd;"
points="26523,38006
26523,37415
27114,37415
27114,38006
26523,38006
" /> 
<polyline style="fill-rule:evenodd;"
points="26523,37006
26523,36415
27114,36415
27114,37006
26523,37006
" /> 
<polyline style="fill-rule:evenodd;"
points="26523,42006
26523,41415
27114,41415
27114,42006
26523,42006
" /> 
<polyline style="fill-rule:evenodd;"
points="26523,39006
26523,38415
27114,38415
27114,39006
26523,39006
" /> 
<polyline style="fill-rule:evenodd;"
points="26523,40006
26523,39415
27114,39415
27114,40006
26523,40006
" /> 
<polyline style="fill-rule:evenodd;"
points="53223,28506
53223,27915
53814,27915
53814,28506
53223,28506
" /> 
<polyline style="fill-rule:evenodd;"
points="55974,33922
55462,33922
55462,33646
55974,33646
55974,33922
" /> 
<polyline style="fill-rule:evenodd;"
points="55974,33174
55462,33174
55462,32898
55974,32898
55974,33174
" /> 
<polyline style="fill-rule:evenodd;"
points="53162,39398
53674,39398
53674,39674
53162,39674
53162,39398
" /> 
<polyline style="fill-rule:evenodd;"
points="53162,40146
53674,40146
53674,40422
53162,40422
53162,40146
" /> 
<polyline style="fill-rule:evenodd;"
points="56762,32898
57274,32898
57274,33174
56762,33174
56762,32898
" /> 
<polyline style="fill-rule:evenodd;"
points="56762,33646
57274,33646
57274,33922
56762,33922
56762,33646
" /> 
<polyline style="fill-rule:evenodd;"
points="57862,39198
58374,39198
58374,39474
57862,39474
57862,39198
" /> 
<polyline style="fill-rule:evenodd;"
points="57862,39946
58374,39946
58374,40222
57862,40222
57862,39946
" /> 
<polyline style="fill-rule:evenodd;"
points="53562,32898
54074,32898
54074,33174
53562,33174
53562,32898
" /> 
<polyline style="fill-rule:evenodd;"
points="53562,33646
54074,33646
54074,33922
53562,33922
53562,33646
" /> 
<polyline style="fill-rule:evenodd;"
points="54874,33922
54362,33922
54362,33646
54874,33646
54874,33922
" /> 
<polyline style="fill-rule:evenodd;"
points="54874,33174
54362,33174
54362,32898
54874,32898
54874,33174
" /> 
<polyline style="fill-rule:evenodd;"
points="58074,33922
57562,33922
57562,33646
58074,33646
58074,33922
" /> 
<polyline style="fill-rule:evenodd;"
points="58074,33174
57562,33174
57562,32898
58074,32898
58074,33174
" /> 
<polyline style="fill-rule:evenodd;"
points="46372,27720
46864,27720
46864,28113
46372,28113
46372,27720
" /> 
<polyline style="fill-rule:evenodd;"
points="46372,28507
46864,28507
46864,28901
46372,28901
46372,28507
" /> 
<polyline style="fill-rule:evenodd;"
points="44728,27556
44728,27064
45122,27064
45122,27556
44728,27556
" /> 
<polyline style="fill-rule:evenodd;"
points="45515,27556
45515,27064
45909,27064
45909,27556
45515,27556
" /> 
<polyline style="fill-rule:evenodd;"
points="43764,28501
43272,28501
43272,28107
43764,28107
43764,28501
" /> 
<polyline style="fill-rule:evenodd;"
points="43764,27713
43272,27713
43272,27320
43764,27320
43764,27713
" /> 
<polyline style="fill-rule:evenodd;"
points="47330,30554
47330,31066
47055,31066
47055,30554
47330,30554
" /> 
<polyline style="fill-rule:evenodd;"
points="46582,30554
46582,31066
46307,31066
46307,30554
46582,30554
" /> 
<polyline style="fill-rule:evenodd;"
points="46874,30122
46362,30122
46362,29846
46874,29846
46874,30122
" /> 
<polyline style="fill-rule:evenodd;"
points="46874,29374
46362,29374
46362,29098
46874,29098
46874,29374
" /> 
<polyline style="fill-rule:evenodd;"
points="43774,29922
43262,29922
43262,29646
43774,29646
43774,29922
" /> 
<polyline style="fill-rule:evenodd;"
points="43774,29174
43262,29174
43262,28898
43774,28898
43774,29174
" /> 
<circle cx="56692.9" cy="29133.9" r="1771.65" /> 
</g>
<g style="fill:#000000; fill-opacity:1.0; 
stroke:#000000; stroke-width:39.3701; stroke-opacity:1; 
stroke-linecap:round; stroke-linejoin:round;">
</g>
<g style="fill:#000000; fill-opacity:1.0; 
stroke:#000000; stroke-width:0; stroke-opacity:1; 
stroke-linecap:round; stroke-linejoin:round;">
<circle cx="56692.9" cy="49212.6" r="1771.65" /> 
</g>
<g style="fill:#000000; fill-opacity:1.0; 
stroke:#000000; stroke-width:39.3701; stroke-opacity:1; 
stroke-linecap:round; stroke-linejoin:round;">
</g>
<g style="fill:#000000; fill-opacity:1.0; 
stroke:#000000; stroke-width:0; stroke-opacity:1; 
stroke-linecap:round; stroke-linejoin:round;">
<circle cx="22047.2" cy="49212.6" r="1771.65" /> 
</g>
<g style="fill:#000000; fill-opacity:1.0; 
stroke:#000000; stroke-width:39.3701; stroke-opacity:1; 
stroke-linecap:round; stroke-linejoin:round;">
</g>
<g style="fill:#000000; fill-opacity:1.0; 
stroke:#000000; stroke-width:0; stroke-opacity:1; 
stroke-linecap:round; stroke-linejoin:round;">
<circle cx="22047.2" cy="29133.9" r="1771.65" /> 
</g>
<g style="fill:#000000; fill-opacity:1.0; 
stroke:#000000; stroke-width:39.3701; stroke-opacity:1; 
stroke-linecap:round; stroke-linejoin:round;">
</g>
<g style="fill:#000000; fill-opacity:1.0; 
stroke:#000000; stroke-width:0; stroke-opacity:1; 
stroke-linecap:round; stroke-linejoin:round;">
<polyline style="fill-rule:evenodd;"
points="39397,43210
39397,42698
39673,42698
39673,43210
39397,43210
" /> 
<polyline style="fill-rule:evenodd;"
points="40145,43210
40145,42698
40421,42698
40421,43210
40145,43210
" /> 
<polyline style="fill-rule:evenodd;"
points="38314,35631
38314,35119
38590,35119
38590,35631
38314,35631
" /> 
<polyline style="fill-rule:evenodd;"
points="39062,35631
39062,35119
39338,35119
39338,35631
39062,35631
" /> 
<polyline style="fill-rule:evenodd;"
points="39397,35631
39397,35119
39673,35119
39673,35631
39397,35631
" /> 
<polyline style="fill-rule:evenodd;"
points="40145,35631
40145,35119
40421,35119
40421,35631
40145,35631
" /> 
<polyline style="fill-rule:evenodd;"
points="39338,42698
39338,43210
39062,43210
39062,42698
39338,42698
" /> 
<polyline style="fill-rule:evenodd;"
points="38590,42698
38590,43210
38314,43210
38314,42698
38590,42698
" /> 
</g> 
</svg>
