  0
SECTION
  2
HEADER
  9
$ACADVER
  1
AC1014
  9
$HANDSEED
  5
FFFF
  9
$MEASUREMENT
 70
     1
  0
ENDSEC
  0
SECTION
  2
TABLES
  0
TABLE
  2
VPORT
  5
8
330
0
100
AcDbSymbolTable
 70
     4
  0
VPORT
  5
2E
330
8
100
AcDbSymbolTableRecord
100
AcDbViewportTableRecord
  2
*ACTIVE
 70
     0
 10
0.0
 20
0.0
 11
1.0
 21
1.0
 12
210.0
 22
148.5
 13
0.0
 23
0.0
 14
10.0
 24
10.0
 15
10.0
 25
10.0
 16
0.0
 26
0.0
 36
1.0
 17
0.0
 27
0.0
 37
0.0
 40
341.0
 41
1.24
 42
50.0
 43
0.0
 44
0.0
 50
0.0
 51
0.0
 71
     0
 72
   100
 73
     1
 74
     3
 75
     0
 76
     0
 77
     0
 78
     0
  0
ENDTAB
  0
TABLE
  2
LTYPE
  5
5
330
0
100
AcDbSymbolTable
 70
     1
  0
LTYPE
  5
14
330
5
100
AcDbSymbolTableRecord
100
AcDbLinetypeTableRecord
  2
BYBLOCK
 70
     0
  3

 72
    65
 73
     0
 40
0.0
  0
LTYPE
  5
15
330
5
100
AcDbSymbolTableRecord
100
AcDbLinetypeTableRecord
  2
BYLAYER
 70
     0
  3

 72
    65
 73
     0
 40
0.0
  0
LTYPE
  5
16
330
5
100
AcDbSymbolTableRecord
100
AcDbLinetypeTableRecord
  2
CONTINUOUS
 70
     0
  3
Solid line
 72
    65
 73
     0
 40
0.0
  0
ENDTAB
  0
TABLE
  2
LAYER
  5
2
100
AcDbSymbolTable
 70
2
  0
LAYER
  5
50
100
AcDbSymbolTableRecord
100
AcDbLayerTableRecord
  2
0
 70
0
  6
CONTINUOUS
  0
LAYER
  5
51
100
AcDbSymbolTableRecord
100
AcDbLayerTableRecord
  2
Layer_1
 70
0
  6
CONTINUOUS
  0
ENDTAB
  0
TABLE
  2
STYLE
  5
3
330
0
100
AcDbSymbolTable
 70
     1
  0
STYLE
  5
11
330
3
100
AcDbSymbolTableRecord
100
AcDbTextStyleTableRecord
  2
STANDARD
 70
     0
 40
0.0
 41
1.0
 50
0.0
 71
     0
 42
2.5
  3
txt
  4

  0
ENDTAB
  0
TABLE
  2
VIEW
  5
6
330
0
100
AcDbSymbolTable
 70
     0
  0
ENDTAB
  0
TABLE
  2
UCS
  5
7
330
0
100
AcDbSymbolTable
 70
     0
  0
ENDTAB
  0
TABLE
  2
APPID
  5
9
330
0
100
AcDbSymbolTable
 70
     2
  0
APPID
  5
12
330
9
100
AcDbSymbolTableRecord
100
AcDbRegAppTableRecord
  2
ACAD
 70
     0
  0
ENDTAB
  0
TABLE
  2
DIMSTYLE
  5
A
330
0
100
AcDbSymbolTable
 70
     1
  0
DIMSTYLE
105
27
330
A
100
AcDbSymbolTableRecord
100
AcDbDimStyleTableRecord
  2
ISO-25
 70
     0
  3

  4

  5

  6

  7

 40
1.0
 41
2.5
 42
0.625
 43
3.75
 44
1.25
 45
0.0
 46
0.0
 47
0.0
 48
0.0
140
2.5
141
2.5
142
0.0
143
0.03937007874016
144
1.0
145
0.0
146
1.0
147
0.625
 71
     0
 72
     0
 73
     0
 74
     0
 75
     0
 76
     0
 77
     1
 78
     8
170
     0
171
     3
172
     1
173
     0
174
     0
175
     0
176
     0
177
     0
178
     0
270
     2
271
     2
272
     2
273
     2
274
     3
340
11
275
     0
280
     0
281
     0
282
     0
283
     0
284
     8
285
     0
286
     0
287
     3
288
     0
  0
ENDTAB
  0
TABLE
  2
BLOCK_RECORD
  5
1
330
0
100
AcDbSymbolTable
 70
     1
  0
BLOCK_RECORD
  5
1F
330
1
100
AcDbSymbolTableRecord
100
AcDbBlockTableRecord
  2
*MODEL_SPACE
  0
BLOCK_RECORD
  5
1B
330
1
100
AcDbSymbolTableRecord
100
AcDbBlockTableRecord
  2
*PAPER_SPACE
  0
ENDTAB
  0
ENDSEC
  0
SECTION
  2
BLOCKS
  0
BLOCK
  5
20
330
1F
100
AcDbEntity
  8
0
100
AcDbBlockBegin
  2
*MODEL_SPACE
 70
     0
 10
0.0
 20
0.0
 30
0.0
  3
*MODEL_SPACE
  1

  0
ENDBLK
  5
21
330
1F
100
AcDbEntity
  8
0
100
AcDbBlockEnd
  0
BLOCK
  5
1C
330
1B
100
AcDbEntity
 67
     1
  8
0
100
AcDbBlockBegin
  2
*PAPER_SPACE
  1

  0
ENDBLK
  5
1D
330
1B
100
AcDbEntity
 67
     1
  8
0
100
AcDbBlockEnd
  0
ENDSEC
  0
SECTION
  2
ENTITIES
  0
LWPOLYLINE
  5
100
100
AcDbEntity
  8
Layer_1
 62
7
100
AcDbPolyline
 90
32
 70
1
 10
136.002020
 20
177.546770
 30
0.0
 10
135.981820
 20
177.345940
 30
0.0
 10
135.923720
 20
177.158890
 30
0.0
 10
135.831820
 20
176.989620
 30
0.0
 10
135.710140
 20
176.842140
 30
0.0
 10
135.562660
 20
176.720460
 30
0.0
 10
135.393390
 20
176.628560
 30
0.0
 10
135.206340
 20
176.570460
 30
0.0
 10
135.005510
 20
176.550260
 30
0.0
 10
134.804680
 20
176.570560
 30
0.0
 10
134.617630
 20
176.628660
 30
0.0
 10
134.448360
 20
176.720560
 30
0.0
 10
134.300880
 20
176.842240
 30
0.0
 10
134.179200
 20
176.989720
 30
0.0
 10
134.087300
 20
177.158990
 30
0.0
 10
134.029200
 20
177.346040
 30
0.0
 10
134.009000
 20
177.546870
 30
0.0
 10
134.029300
 20
177.747700
 30
0.0
 10
134.087400
 20
177.934750
 30
0.0
 10
134.179300
 20
178.104020
 30
0.0
 10
134.300980
 20
178.251490
 30
0.0
 10
134.448450
 20
178.373170
 30
0.0
 10
134.617720
 20
178.465070
 30
0.0
 10
134.804770
 20
178.523170
 30
0.0
 10
135.005600
 20
178.543470
 30
0.0
 10
135.206430
 20
178.523270
 30
0.0
 10
135.393480
 20
178.465170
 30
0.0
 10
135.562750
 20
178.373270
 30
0.0
 10
135.710230
 20
178.251590
 30
0.0
 10
135.831910
 20
178.104110
 30
0.0
 10
135.923810
 20
177.934840
 30
0.0
 10
135.981910
 20
177.747790
 30
0.0
  0
LWPOLYLINE
  5
101
100
AcDbEntity
  8
Layer_1
 62
7
100
AcDbPolyline
 90
32
 70
1
 10
58.002046
 20
177.546770
 30
0.0
 10
57.981806
 20
177.345940
 30
0.0
 10
57.923746
 20
177.158890
 30
0.0
 10
57.831866
 20
176.989620
 30
0.0
 10
57.710185
 20
176.842140
 30
0.0
 10
57.562706
 20
176.720460
 30
0.0
 10
57.393436
 20
176.628560
 30
0.0
 10
57.206383
 20
176.570460
 30
0.0
 10
57.005554
 20
176.550160
 30
0.0
 10
56.804725
 20
176.570460
 30
0.0
 10
56.617672
 20
176.628560
 30
0.0
 10
56.448403
 20
176.720460
 30
0.0
 10
56.300924
 20
176.842140
 30
0.0
 10
56.179243
 20
176.989620
 30
0.0
 10
56.087363
 20
177.158890
 30
0.0
 10
56.029303
 20
177.345940
 30
0.0
 10
56.009063
 20
177.546770
 30
0.0
 10
56.029313
 20
177.747600
 30
0.0
 10
56.087383
 20
177.934650
 30
0.0
 10
56.179263
 20
178.103920
 30
0.0
 10
56.300944
 20
178.251390
 30
0.0
 10
56.448422
 20
178.373080
 30
0.0
 10
56.617690
 20
178.464980
 30
0.0
 10
56.804742
 20
178.523080
 30
0.0
 10
57.005570
 20
178.543380
 30
0.0
 10
57.206398
 20
178.523080
 30
0.0
 10
57.393450
 20
178.464980
 30
0.0
 10
57.562719
 20
178.373080
 30
0.0
 10
57.710197
 20
178.251400
 30
0.0
 10
57.831878
 20
178.103920
 30
0.0
 10
57.923758
 20
177.934650
 30
0.0
 10
57.981818
 20
177.747600
 30
0.0
  0
LWPOLYLINE
  5
102
100
AcDbEntity
  8
Layer_1
 62
7
100
AcDbPolyline
 90
4
 70
1
 10
63.520790
 20
216.085266
 30
0.0
 10
128.490257
 20
216.085266
 30
0.0
 10
128.490257
 20
194.115793
 30
0.0
 10
63.520790
 20
194.115793
 30
0.0
  0
LWPOLYLINE
  5
103
100
AcDbEntity
  8
Layer_1
 62
7
100
AcDbPolyline
 90
256
 70
1
 10
56.005890
 20
226.077884
 30
0.0
 10
55.804554
 20
226.057584
 30
0.0
 10
55.616992
 20
225.999374
 30
0.0
 10
55.447233
 20
225.907274
 30
0.0
 10
55.299305
 20
225.785293
 30
0.0
 10
55.177237
 20
225.637455
 30
0.0
 10
55.085057
 20
225.467777
 30
0.0
 10
55.026797
 20
225.280280
 30
0.0
 10
55.006477
 20
225.078980
 30
0.0
 10
55.006477
 20
221.136585
 30
0.0
 10
55.006477
 20
217.194190
 30
0.0
 10
55.006477
 20
213.251795
 30
0.0
 10
55.006477
 20
209.309400
 30
0.0
 10
55.006477
 20
205.367006
 30
0.0
 10
55.006477
 20
201.424611
 30
0.0
 10
55.006477
 20
197.482216
 30
0.0
 10
55.006477
 20
193.539821
 30
0.0
 10
55.407944
 20
193.499121
 30
0.0
 10
55.781840
 20
193.382821
 30
0.0
 10
56.120162
 20
193.198971
 30
0.0
 10
56.414908
 20
192.955571
 30
0.0
 10
56.658077
 20
192.660641
 30
0.0
 10
56.841666
 20
192.322171
 30
0.0
 10
56.957673
 20
191.948191
 30
0.0
 10
56.998093
 20
191.546691
 30
0.0
 10
56.957583
 20
191.145271
 30
0.0
 10
56.841518
 20
190.771371
 30
0.0
 10
56.657899
 20
190.432991
 30
0.0
 10
56.414727
 20
190.138141
 30
0.0
 10
56.119999
 20
189.894811
 30
0.0
 10
55.781715
 20
189.711021
 30
0.0
 10
55.407875
 20
189.594761
 30
0.0
 10
55.006476
 20
189.554061
 30
0.0
 10
55.006476
 20
188.677691
 30
0.0
 10
55.006476
 20
187.801321
 30
0.0
 10
55.006476
 20
186.924961
 30
0.0
 10
55.006476
 20
186.048591
 30
0.0
 10
55.006476
 20
185.172221
 30
0.0
 10
55.006476
 20
184.295851
 30
0.0
 10
55.006476
 20
183.419491
 30
0.0
 10
55.006476
 20
182.543121
 30
0.0
 10
55.131276
 20
182.543191
 30
0.0
 10
55.256076
 20
182.543251
 30
0.0
 10
55.380876
 20
182.543321
 30
0.0
 10
55.505676
 20
182.543381
 30
0.0
 10
55.630476
 20
182.543451
 30
0.0
 10
55.755276
 20
182.543521
 30
0.0
 10
55.880076
 20
182.543581
 30
0.0
 10
56.004876
 20
182.543651
 30
0.0
 10
56.205736
 20
182.523451
 30
0.0
 10
56.392826
 20
182.465451
 30
0.0
 10
56.562139
 20
182.373651
 30
0.0
 10
56.709664
 20
182.252001
 30
0.0
 10
56.831391
 20
182.104541
 30
0.0
 10
56.923311
 20
181.935271
 30
0.0
 10
56.981411
 20
181.748211
 30
0.0
 10
57.001691
 20
181.547361
 30
0.0
 10
56.981411
 20
181.346511
 30
0.0
 10
56.923311
 20
181.159451
 30
0.0
 10
56.831391
 20
180.990181
 30
0.0
 10
56.709664
 20
180.842721
 30
0.0
 10
56.562139
 20
180.721071
 30
0.0
 10
56.392826
 20
180.629271
 30
0.0
 10
56.205736
 20
180.571271
 30
0.0
 10
56.004876
 20
180.551071
 30
0.0
 10
56.004876
 20
180.550571
 30
0.0
 10
56.004876
 20
180.550071
 30
0.0
 10
56.004876
 20
180.549571
 30
0.0
 10
56.004876
 20
180.549071
 30
0.0
 10
56.004876
 20
180.548571
 30
0.0
 10
56.004876
 20
180.548071
 30
0.0
 10
56.004876
 20
180.547571
 30
0.0
 10
56.004876
 20
180.547071
 30
0.0
 10
55.880146
 20
180.547071
 30
0.0
 10
55.755413
 20
180.547071
 30
0.0
 10
55.630679
 20
180.547071
 30
0.0
 10
55.505945
 20
180.547071
 30
0.0
 10
55.381211
 20
180.547071
 30
0.0
 10
55.256478
 20
180.547071
 30
0.0
 10
55.131744
 20
180.547071
 30
0.0
 10
55.007010
 20
180.547071
 30
0.0
 10
55.007010
 20
179.422851
 30
0.0
 10
55.007010
 20
178.298621
 30
0.0
 10
55.007010
 20
177.174401
 30
0.0
 10
55.007010
 20
176.050171
 30
0.0
 10
55.007010
 20
174.925951
 30
0.0
 10
55.007010
 20
173.801731
 30
0.0
 10
55.007010
 20
172.677501
 30
0.0
 10
55.007010
 20
171.553281
 30
0.0
 10
60.432257
 20
171.553281
 30
0.0
 10
65.857505
 20
171.553281
 30
0.0
 10
71.282752
 20
171.553281
 30
0.0
 10
76.708000
 20
171.553281
 30
0.0
 10
82.133248
 20
171.553281
 30
0.0
 10
87.558495
 20
171.553281
 30
0.0
 10
92.983743
 20
171.553281
 30
0.0
 10
98.408990
 20
171.553281
 30
0.0
 10
98.408990
 20
171.959461
 30
0.0
 10
98.408990
 20
172.365631
 30
0.0
 10
98.408990
 20
172.771811
 30
0.0
 10
98.408990
 20
173.177981
 30
0.0
 10
98.408990
 20
173.584161
 30
0.0
 10
98.408990
 20
173.990341
 30
0.0
 10
98.408990
 20
174.396511
 30
0.0
 10
98.408990
 20
174.802691
 30
0.0
 10
98.408000
 20
174.808691
 30
0.0
 10
98.407256
 20
174.814691
 30
0.0
 10
98.406722
 20
174.820691
 30
0.0
 10
98.406365
 20
174.826691
 30
0.0
 10
98.406148
 20
174.832691
 30
0.0
 10
98.406037
 20
174.838691
 30
0.0
 10
98.405996
 20
174.844691
 30
0.0
 10
98.405990
 20
174.850691
 30
0.0
 10
98.416160
 20
174.951271
 30
0.0
 10
98.445240
 20
175.044971
 30
0.0
 10
98.491230
 20
175.129771
 30
0.0
 10
98.552130
 20
175.203671
 30
0.0
 10
98.625930
 20
175.264671
 30
0.0
 10
98.710620
 20
175.310671
 30
0.0
 10
98.804200
 20
175.339771
 30
0.0
 10
98.904673
 20
175.349971
 30
0.0
 10
98.904673
 20
175.349971
 30
0.0
 10
98.904673
 20
175.349971
 30
0.0
 10
98.904673
 20
175.349971
 30
0.0
 10
98.904673
 20
175.349971
 30
0.0
 10
98.904673
 20
175.349971
 30
0.0
 10
98.904673
 20
175.349971
 30
0.0
 10
98.904673
 20
175.349971
 30
0.0
 10
98.904673
 20
175.349971
 30
0.0
 10
99.005059
 20
175.339671
 30
0.0
 10
99.098549
 20
175.310471
 30
0.0
 10
99.183149
 20
175.264371
 30
0.0
 10
99.256859
 20
175.203371
 30
0.0
 10
99.317679
 20
175.129571
 30
0.0
 10
99.363619
 20
175.044871
 30
0.0
 10
99.392669
 20
174.951271
 30
0.0
 10
99.402839
 20
174.850771
 30
0.0
 10
99.402833
 20
174.843771
 30
0.0
 10
99.402792
 20
174.836771
 30
0.0
 10
99.402681
 20
174.829771
 30
0.0
 10
99.402464
 20
174.822771
 30
0.0
 10
99.402107
 20
174.815771
 30
0.0
 10
99.401573
 20
174.808771
 30
0.0
 10
99.400829
 20
174.801771
 30
0.0
 10
99.399839
 20
174.794771
 30
0.0
 10
99.399839
 20
174.389561
 30
0.0
 10
99.399839
 20
173.984351
 30
0.0
 10
99.399839
 20
173.579151
 30
0.0
 10
99.399839
 20
173.173941
 30
0.0
 10
99.399839
 20
172.768731
 30
0.0
 10
99.399839
 20
172.363521
 30
0.0
 10
99.399839
 20
171.958321
 30
0.0
 10
99.399839
 20
171.553111
 30
0.0
 10
104.098909
 20
171.553111
 30
0.0
 10
108.797969
 20
171.553111
 30
0.0
 10
113.497039
 20
171.553111
 30
0.0
 10
118.196099
 20
171.553111
 30
0.0
 10
122.895169
 20
171.553111
 30
0.0
 10
127.594239
 20
171.553111
 30
0.0
 10
132.293299
 20
171.553111
 30
0.0
 10
136.992369
 20
171.553111
 30
0.0
 10
136.992739
 20
172.677331
 30
0.0
 10
136.993119
 20
173.801551
 30
0.0
 10
136.993489
 20
174.925771
 30
0.0
 10
136.993869
 20
176.049991
 30
0.0
 10
136.994249
 20
177.174211
 30
0.0
 10
136.994619
 20
178.298431
 30
0.0
 10
136.994989
 20
179.422651
 30
0.0
 10
136.995369
 20
180.546871
 30
0.0
 10
136.871599
 20
180.546871
 30
0.0
 10
136.747839
 20
180.546871
 30
0.0
 10
136.624069
 20
180.546871
 30
0.0
 10
136.500309
 20
180.546871
 30
0.0
 10
136.376539
 20
180.546871
 30
0.0
 10
136.252779
 20
180.546871
 30
0.0
 10
136.129009
 20
180.546871
 30
0.0
 10
136.005249
 20
180.546871
 30
0.0
 10
136.005249
 20
180.547371
 30
0.0
 10
136.005249
 20
180.547871
 30
0.0
 10
136.005249
 20
180.548371
 30
0.0
 10
136.005249
 20
180.548871
 30
0.0
 10
136.005249
 20
180.549371
 30
0.0
 10
136.005249
 20
180.549871
 30
0.0
 10
136.005249
 20
180.550371
 30
0.0
 10
136.005249
 20
180.550871
 30
0.0
 10
135.804389
 20
180.571071
 30
0.0
 10
135.617299
 20
180.629071
 30
0.0
 10
135.447979
 20
180.720871
 30
0.0
 10
135.300449
 20
180.842521
 30
0.0
 10
135.178719
 20
180.989981
 30
0.0
 10
135.086819
 20
181.159251
 30
0.0
 10
135.028719
 20
181.346311
 30
0.0
 10
135.008419
 20
181.547161
 30
0.0
 10
135.028719
 20
181.748011
 30
0.0
 10
135.086819
 20
181.935071
 30
0.0
 10
135.178719
 20
182.104341
 30
0.0
 10
135.300449
 20
182.251811
 30
0.0
 10
135.447979
 20
182.373461
 30
0.0
 10
135.617299
 20
182.465261
 30
0.0
 10
135.804389
 20
182.523261
 30
0.0
 10
136.005249
 20
182.543461
 30
0.0
 10
136.129079
 20
182.543391
 30
0.0
 10
136.252899
 20
182.543331
 30
0.0
 10
136.376729
 20
182.543261
 30
0.0
 10
136.500559
 20
182.543191
 30
0.0
 10
136.624389
 20
182.543131
 30
0.0
 10
136.748209
 20
182.543061
 30
0.0
 10
136.872039
 20
182.543001
 30
0.0
 10
136.995869
 20
182.542931
 30
0.0
 10
136.996239
 20
183.419361
 30
0.0
 10
136.996619
 20
184.295791
 30
0.0
 10
136.996989
 20
185.172221
 30
0.0
 10
136.997369
 20
186.048651
 30
0.0
 10
136.997739
 20
186.925091
 30
0.0
 10
136.998119
 20
187.801521
 30
0.0
 10
136.998489
 20
188.677951
 30
0.0
 10
136.998869
 20
189.554381
 30
0.0
 10
136.598579
 20
189.596281
 30
0.0
 10
136.225909
 20
189.713251
 30
0.0
 10
135.888789
 20
189.897381
 30
0.0
 10
135.595139
 20
190.140681
 30
0.0
 10
135.352909
 20
190.435211
 30
0.0
 10
135.170009
 20
190.773001
 30
0.0
 10
135.054389
 20
191.146091
 30
0.0
 10
135.013989
 20
191.546531
 30
0.0
 10
135.054389
 20
191.947181
 30
0.0
 10
135.170029
 20
192.320471
 30
0.0
 10
135.353009
 20
192.658431
 30
0.0
 10
135.595389
 20
192.953071
 30
0.0
 10
135.889219
 20
193.196441
 30
0.0
 10
136.226559
 20
193.380561
 30
0.0
 10
136.599449
 20
193.497461
 30
0.0
 10
136.999969
 20
193.539161
 30
0.0
 10
137.000719
 20
197.481621
 30
0.0
 10
137.001469
 20
201.424081
 30
0.0
 10
137.002219
 20
205.366541
 30
0.0
 10
137.002969
 20
209.309001
 30
0.0
 10
137.003719
 20
213.251462
 30
0.0
 10
137.004469
 20
217.193922
 30
0.0
 10
137.005219
 20
221.136382
 30
0.0
 10
137.005969
 20
225.078842
 30
0.0
 10
136.985669
 20
225.280142
 30
0.0
 10
136.927469
 20
225.467639
 30
0.0
 10
136.835369
 20
225.637317
 30
0.0
 10
136.713399
 20
225.785155
 30
0.0
 10
136.565559
 20
225.907136
 30
0.0
 10
136.395879
 20
225.999236
 30
0.0
 10
136.208369
 20
226.057446
 30
0.0
 10
136.007049
 20
226.077746
 30
0.0
 10
126.006909
 20
226.077743
 30
0.0
 10
116.006769
 20
226.077740
 30
0.0
 10
106.006629
 20
226.077738
 30
0.0
 10
96.006484
 20
226.077735
 30
0.0
 10
86.006343
 20
226.077732
 30
0.0
 10
76.006202
 20
226.077729
 30
0.0
 10
66.006060
 20
226.077727
 30
0.0
  0
LWPOLYLINE
  5
104
100
AcDbEntity
  8
Layer_1
 62
7
100
AcDbPolyline
 90
32
 70
1
 10
91.006004
 20
185.590440
 30
0.0
 10
92.255889
 20
185.590440
 30
0.0
 10
93.505773
 20
185.590440
 30
0.0
 10
94.755658
 20
185.590440
 30
0.0
 10
96.005542
 20
185.590440
 30
0.0
 10
97.255427
 20
185.590440
 30
0.0
 10
98.505311
 20
185.590440
 30
0.0
 10
99.755195
 20
185.590440
 30
0.0
 10
101.005080
 20
185.590440
 30
0.0
 10
101.005080
 20
185.090550
 30
0.0
 10
101.005080
 20
184.590670
 30
0.0
 10
101.005080
 20
184.090780
 30
0.0
 10
101.005080
 20
183.590900
 30
0.0
 10
101.005080
 20
183.091010
 30
0.0
 10
101.005080
 20
182.591130
 30
0.0
 10
101.005080
 20
182.091240
 30
0.0
 10
101.005080
 20
181.591360
 30
0.0
 10
99.755195
 20
181.591360
 30
0.0
 10
98.505311
 20
181.591360
 30
0.0
 10
97.255427
 20
181.591360
 30
0.0
 10
96.005542
 20
181.591360
 30
0.0
 10
94.755658
 20
181.591360
 30
0.0
 10
93.505773
 20
181.591360
 30
0.0
 10
92.255889
 20
181.591360
 30
0.0
 10
91.006004
 20
181.591360
 30
0.0
 10
91.006004
 20
182.091240
 30
0.0
 10
91.006004
 20
182.591130
 30
0.0
 10
91.006004
 20
183.091010
 30
0.0
 10
91.006004
 20
183.590900
 30
0.0
 10
91.006004
 20
184.090780
 30
0.0
 10
91.006004
 20
184.590670
 30
0.0
 10
91.006004
 20
185.090550
 30
0.0
  0
ENDSEC
  0
SECTION
  2
OBJECTS
  0
DICTIONARY
  5
C
330
0
100
AcDbDictionary
  3
ACAD_GROUP
350
D
  3
ACAD_MLINESTYLE
350
17
  0
DICTIONARY
  5
D
330
C
100
AcDbDictionary
  0
DICTIONARY
  5
1A
330
C
100
AcDbDictionary
  0
DICTIONARY
  5
17
330
C
100
AcDbDictionary
  3
STANDARD
350
18
  0
DICTIONARY
  5
19
330
C
100
AcDbDictionary
  0
ENDSEC
  0
EOF
