M48
;DRILL file {KiCad 5.0.2-bee76a0~70~ubuntu18.04.1} date Mo 15 Apr 2019 15:13:06 CEST
;FORMAT={-:-/ absolute / inch / decimal}
FMAT,2
INCH,TZ
T1C0.0157
T2C0.0236
T3C0.0315
%
G90
G05
T1
X2.4724Y-4.5906
X2.5197Y-4.5906
X2.5669Y-4.5906
X2.6142Y-4.5906
X2.6614Y-4.5906
X2.7087Y-4.5906
X2.7559Y-4.5906
X2.8031Y-4.5906
X2.811Y-4.1339
X2.8425Y-4.1654
X2.8504Y-4.5906
X2.874Y-4.1339
X2.8976Y-4.5906
X2.9055Y-4.1654
X2.937Y-4.1339
X2.9449Y-4.5906
X2.9685Y-4.1654
X2.9921Y-4.5906
X3.Y-4.1339
X3.0315Y-4.1654
X3.0394Y-4.5906
X3.063Y-4.1339
X3.0866Y-4.5906
X3.0945Y-4.1654
X3.126Y-4.1339
X3.1339Y-4.5906
X3.1575Y-4.1654
X3.1811Y-4.5906
X3.189Y-4.1339
X3.2205Y-4.1654
X3.2283Y-4.5906
X3.252Y-4.1339
X3.2756Y-4.5906
X3.2835Y-4.1654
X3.315Y-4.1339
X3.3228Y-4.5906
X3.3465Y-4.1654
X3.3701Y-4.5906
X3.378Y-4.1339
X3.4094Y-4.1654
X3.4173Y-4.5906
X3.4409Y-4.1339
X3.4646Y-4.5906
X3.4724Y-4.1654
X3.5039Y-4.1339
X3.5118Y-4.5906
X3.5354Y-4.1654
X3.5591Y-4.5906
X3.5669Y-4.1339
X3.6063Y-4.5906
X3.6535Y-4.5906
X3.7008Y-3.7165
X3.7008Y-4.5906
X3.7303Y-5.0886
X3.7323Y-3.748
X3.748Y-4.5906
X3.7638Y-3.7795
X3.7953Y-3.811
X3.7953Y-4.5906
X3.811Y-4.748
X3.8268Y-3.8425
X3.8425Y-4.5906
X3.8425Y-4.7717
X3.8583Y-3.874
X3.874Y-4.7953
X3.9134Y-3.874
X3.9134Y-4.7717
X3.9134Y-4.811
X3.9134Y-4.8504
X3.922Y-3.137
X3.9606Y-4.5945
X4.0236Y-3.8386
X4.0787Y-3.7795
X4.0787Y-4.3976
X4.1024Y-4.5906
X4.1102Y-3.748
X4.1417Y-3.7165
X4.1496Y-4.5906
X4.1732Y-3.685
X4.1969Y-4.5906
X4.2441Y-4.5906
X4.2913Y-4.5906
X4.3386Y-4.1335
X4.3386Y-4.5902
X4.3701Y-4.165
X4.3858Y-4.5902
X4.4016Y-4.1335
X4.4331Y-4.165
X4.4331Y-4.5902
X4.4646Y-4.1335
X4.4803Y-4.5902
X4.4961Y-4.165
X4.5276Y-4.1335
X4.5276Y-4.5902
X4.5591Y-4.165
X4.572Y-3.387
X4.5748Y-4.5902
X4.5906Y-4.1335
X4.6063Y-3.248
X4.622Y-4.165
X4.622Y-4.5902
X4.627Y-3.4104
X4.6535Y-4.1335
X4.667Y-3.272
X4.6693Y-4.5902
X4.685Y-4.165
X4.7165Y-4.1335
X4.7165Y-4.5902
X4.748Y-4.165
X4.7638Y-4.5902
X4.7795Y-4.1335
X4.811Y-4.165
X4.811Y-4.5902
X4.817Y-3.277
X4.8425Y-4.1335
X4.857Y-3.247
X4.8583Y-4.5902
X4.874Y-4.165
X4.9055Y-4.1335
X4.9055Y-4.5902
X4.937Y-4.165
X4.9528Y-4.5902
X4.9685Y-4.1335
X5.Y-4.165
X5.Y-4.5902
X5.0315Y-4.1335
X5.0472Y-4.5902
X5.063Y-4.165
X5.0945Y-4.5902
X5.1417Y-4.5902
X5.189Y-4.5902
X5.2362Y-4.5902
X5.2835Y-4.5902
X5.3307Y-4.5902
X5.378Y-4.5902
X5.4252Y-4.5902
X5.4429Y-4.9016
T2
X3.4646Y-4.8524
X4.702Y-3.127
X4.767Y-3.357
X5.247Y-3.867
X5.247Y-3.932
X5.307Y-3.827
T3
X4.498Y-3.2087
X2.595Y-3.8784
X2.595Y-3.6784
X2.595Y-4.2784
X5.8268Y-4.9705
X2.595Y-3.9784
X2.595Y-4.1784
X5.787Y-3.189
X2.595Y-4.0784
X2.0965Y-3.189
X4.412Y-3.2095
X2.595Y-3.7784
X4.327Y-3.2095
T0
M30
