<?xml version="1.0" standalone="no"?>
 <!DOCTYPE svg PUBLIC "-//W3C//DTD SVG 1.1//EN" 
 "http://www.w3.org/Graphics/SVG/1.1/DTD/svg11.dtd"> 
<svg xmlns="http://www.w3.org/2000/svg" version="1.1" 
    width="29.7002cm" height="21.0007cm" viewBox="0 0 116930 82680 ">
<title>SVG Picture created as ModulAdapter-brd.svg date 2020/04/07 13:41:32 </title>
  <desc>Picture generated by PCBNEW </desc>
<g style="fill:#000000; fill-opacity:1;stroke:#000000; stroke-opacity:1;
stroke-linecap:round; stroke-linejoin:round; "
 transform="translate(0 0) scale(1 1)">
</g>
<g style="fill:#000000; fill-opacity:0.0; 
stroke:#000000; stroke-width:-0.000393701; stroke-opacity:1; 
stroke-linecap:round; stroke-linejoin:round;">
</g>
<g style="fill:#000000; fill-opacity:0.0; 
stroke:#000000; stroke-width:39.3701; stroke-opacity:1; 
stroke-linecap:round; stroke-linejoin:round;">
</g>
<g style="fill:#000000; fill-opacity:0.0; 
stroke:#000000; stroke-width:59.0551; stroke-opacity:1; 
stroke-linecap:round; stroke-linejoin:round;">
<rect x="69685.9" y="65357.2" width="42519.7" height="12598.4" rx="0" />
</g>
<g style="fill:#000000; fill-opacity:0.0; 
stroke:#000000; stroke-width:39.3701; stroke-opacity:1; 
stroke-linecap:round; stroke-linejoin:round;">
</g>
<g style="fill:#000000; fill-opacity:0.0; 
stroke:#000000; stroke-width:59.0551; stroke-opacity:1; 
stroke-linecap:round; stroke-linejoin:round;">
<rect x="3937.01" y="3937.01" width="109056" height="74806" rx="0" />
</g>
<g style="fill:#000000; fill-opacity:0.0; 
stroke:#000000; stroke-width:39.3701; stroke-opacity:1; 
stroke-linecap:round; stroke-linejoin:round;">
</g>
<g style="fill:#000000; fill-opacity:0.0; 
stroke:#000000; stroke-width:59.0551; stroke-opacity:1; 
stroke-linecap:round; stroke-linejoin:round;">
<rect x="4724.41" y="4724.41" width="107481" height="73231.2" rx="0" />
</g>
<g style="fill:#000000; fill-opacity:0.0; 
stroke:#000000; stroke-width:39.3701; stroke-opacity:1; 
stroke-linecap:round; stroke-linejoin:round;">
</g>
<g style="fill:#000000; fill-opacity:0.0; 
stroke:#000000; stroke-width:59.0551; stroke-opacity:1; 
stroke-linecap:round; stroke-linejoin:round;">
<path d="M23622 4724
L23622 3937
" />
</g>
<g style="fill:#000000; fill-opacity:0.0; 
stroke:#000000; stroke-width:39.3701; stroke-opacity:1; 
stroke-linecap:round; stroke-linejoin:round;">
</g>
<g style="fill:#000000; fill-opacity:0.0; 
stroke:#000000; stroke-width:59.0551; stroke-opacity:1; 
stroke-linecap:round; stroke-linejoin:round;">
<path d="M43307 4724
L43307 3937
" />
</g>
<g style="fill:#000000; fill-opacity:0.0; 
stroke:#000000; stroke-width:39.3701; stroke-opacity:1; 
stroke-linecap:round; stroke-linejoin:round;">
</g>
<g style="fill:#000000; fill-opacity:0.0; 
stroke:#000000; stroke-width:59.0551; stroke-opacity:1; 
stroke-linecap:round; stroke-linejoin:round;">
<path d="M62992 4724
L62992 3937
" />
</g>
<g style="fill:#000000; fill-opacity:0.0; 
stroke:#000000; stroke-width:39.3701; stroke-opacity:1; 
stroke-linecap:round; stroke-linejoin:round;">
</g>
<g style="fill:#000000; fill-opacity:0.0; 
stroke:#000000; stroke-width:59.0551; stroke-opacity:1; 
stroke-linecap:round; stroke-linejoin:round;">
<path d="M82677 4724
L82677 3937
" />
</g>
<g style="fill:#000000; fill-opacity:0.0; 
stroke:#000000; stroke-width:39.3701; stroke-opacity:1; 
stroke-linecap:round; stroke-linejoin:round;">
</g>
<g style="fill:#000000; fill-opacity:0.0; 
stroke:#000000; stroke-width:59.0551; stroke-opacity:1; 
stroke-linecap:round; stroke-linejoin:round;">
<path d="M102362 4724
L102362 3937
" />
</g>
<g style="fill:#000000; fill-opacity:0.0; 
stroke:#000000; stroke-width:39.3701; stroke-opacity:1; 
stroke-linecap:round; stroke-linejoin:round;">
</g>
<g style="fill:#000000; fill-opacity:0.0; 
stroke:#000000; stroke-width:59.0551; stroke-opacity:1; 
stroke-linecap:round; stroke-linejoin:round;">
<path d="M14199 4562
L13906 4562
" />
<path d="M14052 4562
L14052 4050
L14004 4123
L13955 4172
L13906 4196
" />
</g>
<g style="fill:#000000; fill-opacity:0.0; 
stroke:#000000; stroke-width:39.3701; stroke-opacity:1; 
stroke-linecap:round; stroke-linejoin:round;">
</g>
<g style="fill:#000000; fill-opacity:0.0; 
stroke:#000000; stroke-width:59.0551; stroke-opacity:1; 
stroke-linecap:round; stroke-linejoin:round;">
<path d="M33591 4099
L33615 4074
L33664 4050
L33786 4050
L33835 4074
L33859 4099
L33884 4147
L33884 4196
L33859 4269
L33567 4562
L33884 4562
" />
</g>
<g style="fill:#000000; fill-opacity:0.0; 
stroke:#000000; stroke-width:39.3701; stroke-opacity:1; 
stroke-linecap:round; stroke-linejoin:round;">
</g>
<g style="fill:#000000; fill-opacity:0.0; 
stroke:#000000; stroke-width:59.0551; stroke-opacity:1; 
stroke-linecap:round; stroke-linejoin:round;">
<path d="M53252 4050
L53569 4050
L53398 4245
L53471 4245
L53520 4269
L53544 4294
L53569 4342
L53569 4464
L53544 4513
L53520 4537
L53471 4562
L53325 4562
L53276 4537
L53252 4513
" />
</g>
<g style="fill:#000000; fill-opacity:0.0; 
stroke:#000000; stroke-width:39.3701; stroke-opacity:1; 
stroke-linecap:round; stroke-linejoin:round;">
</g>
<g style="fill:#000000; fill-opacity:0.0; 
stroke:#000000; stroke-width:59.0551; stroke-opacity:1; 
stroke-linecap:round; stroke-linejoin:round;">
<path d="M73205 4221
L73205 4562
" />
<path d="M73083 4026
L72961 4391
L73278 4391
" />
</g>
<g style="fill:#000000; fill-opacity:0.0; 
stroke:#000000; stroke-width:39.3701; stroke-opacity:1; 
stroke-linecap:round; stroke-linejoin:round;">
</g>
<g style="fill:#000000; fill-opacity:0.0; 
stroke:#000000; stroke-width:59.0551; stroke-opacity:1; 
stroke-linecap:round; stroke-linejoin:round;">
<path d="M92914 4050
L92671 4050
L92646 4294
L92671 4269
L92719 4245
L92841 4245
L92890 4269
L92914 4294
L92939 4342
L92939 4464
L92914 4513
L92890 4537
L92841 4562
L92719 4562
L92671 4537
L92646 4513
" />
</g>
<g style="fill:#000000; fill-opacity:0.0; 
stroke:#000000; stroke-width:39.3701; stroke-opacity:1; 
stroke-linecap:round; stroke-linejoin:round;">
</g>
<g style="fill:#000000; fill-opacity:0.0; 
stroke:#000000; stroke-width:59.0551; stroke-opacity:1; 
stroke-linecap:round; stroke-linejoin:round;">
<path d="M112575 4050
L112477 4050
L112429 4074
L112404 4099
L112356 4172
L112331 4269
L112331 4464
L112356 4513
L112380 4537
L112429 4562
L112526 4562
L112575 4537
L112599 4513
L112624 4464
L112624 4342
L112599 4294
L112575 4269
L112526 4245
L112429 4245
L112380 4269
L112356 4294
L112331 4342
" />
</g>
<g style="fill:#000000; fill-opacity:0.0; 
stroke:#000000; stroke-width:39.3701; stroke-opacity:1; 
stroke-linecap:round; stroke-linejoin:round;">
</g>
<g style="fill:#000000; fill-opacity:0.0; 
stroke:#000000; stroke-width:59.0551; stroke-opacity:1; 
stroke-linecap:round; stroke-linejoin:round;">
<path d="M23622 77955
L23622 78742
" />
</g>
<g style="fill:#000000; fill-opacity:0.0; 
stroke:#000000; stroke-width:39.3701; stroke-opacity:1; 
stroke-linecap:round; stroke-linejoin:round;">
</g>
<g style="fill:#000000; fill-opacity:0.0; 
stroke:#000000; stroke-width:59.0551; stroke-opacity:1; 
stroke-linecap:round; stroke-linejoin:round;">
<path d="M43307 77955
L43307 78742
" />
</g>
<g style="fill:#000000; fill-opacity:0.0; 
stroke:#000000; stroke-width:39.3701; stroke-opacity:1; 
stroke-linecap:round; stroke-linejoin:round;">
</g>
<g style="fill:#000000; fill-opacity:0.0; 
stroke:#000000; stroke-width:59.0551; stroke-opacity:1; 
stroke-linecap:round; stroke-linejoin:round;">
<path d="M62992 77955
L62992 78742
" />
</g>
<g style="fill:#000000; fill-opacity:0.0; 
stroke:#000000; stroke-width:39.3701; stroke-opacity:1; 
stroke-linecap:round; stroke-linejoin:round;">
</g>
<g style="fill:#000000; fill-opacity:0.0; 
stroke:#000000; stroke-width:59.0551; stroke-opacity:1; 
stroke-linecap:round; stroke-linejoin:round;">
<path d="M82677 77955
L82677 78742
" />
</g>
<g style="fill:#000000; fill-opacity:0.0; 
stroke:#000000; stroke-width:39.3701; stroke-opacity:1; 
stroke-linecap:round; stroke-linejoin:round;">
</g>
<g style="fill:#000000; fill-opacity:0.0; 
stroke:#000000; stroke-width:59.0551; stroke-opacity:1; 
stroke-linecap:round; stroke-linejoin:round;">
<path d="M102362 77955
L102362 78742
" />
</g>
<g style="fill:#000000; fill-opacity:0.0; 
stroke:#000000; stroke-width:39.3701; stroke-opacity:1; 
stroke-linecap:round; stroke-linejoin:round;">
</g>
<g style="fill:#000000; fill-opacity:0.0; 
stroke:#000000; stroke-width:59.0551; stroke-opacity:1; 
stroke-linecap:round; stroke-linejoin:round;">
<path d="M14199 78580
L13906 78580
" />
<path d="M14052 78580
L14052 78069
L14004 78142
L13955 78190
L13906 78215
" />
</g>
<g style="fill:#000000; fill-opacity:0.0; 
stroke:#000000; stroke-width:39.3701; stroke-opacity:1; 
stroke-linecap:round; stroke-linejoin:round;">
</g>
<g style="fill:#000000; fill-opacity:0.0; 
stroke:#000000; stroke-width:59.0551; stroke-opacity:1; 
stroke-linecap:round; stroke-linejoin:round;">
<path d="M33591 78117
L33615 78093
L33664 78069
L33786 78069
L33835 78093
L33859 78117
L33884 78166
L33884 78215
L33859 78288
L33567 78580
L33884 78580
" />
</g>
<g style="fill:#000000; fill-opacity:0.0; 
stroke:#000000; stroke-width:39.3701; stroke-opacity:1; 
stroke-linecap:round; stroke-linejoin:round;">
</g>
<g style="fill:#000000; fill-opacity:0.0; 
stroke:#000000; stroke-width:59.0551; stroke-opacity:1; 
stroke-linecap:round; stroke-linejoin:round;">
<path d="M53252 78069
L53569 78069
L53398 78263
L53471 78263
L53520 78288
L53544 78312
L53569 78361
L53569 78483
L53544 78532
L53520 78556
L53471 78580
L53325 78580
L53276 78556
L53252 78532
" />
</g>
<g style="fill:#000000; fill-opacity:0.0; 
stroke:#000000; stroke-width:39.3701; stroke-opacity:1; 
stroke-linecap:round; stroke-linejoin:round;">
</g>
<g style="fill:#000000; fill-opacity:0.0; 
stroke:#000000; stroke-width:59.0551; stroke-opacity:1; 
stroke-linecap:round; stroke-linejoin:round;">
<path d="M73205 78239
L73205 78580
" />
<path d="M73083 78044
L72961 78410
L73278 78410
" />
</g>
<g style="fill:#000000; fill-opacity:0.0; 
stroke:#000000; stroke-width:39.3701; stroke-opacity:1; 
stroke-linecap:round; stroke-linejoin:round;">
</g>
<g style="fill:#000000; fill-opacity:0.0; 
stroke:#000000; stroke-width:59.0551; stroke-opacity:1; 
stroke-linecap:round; stroke-linejoin:round;">
<path d="M92914 78069
L92671 78069
L92646 78312
L92671 78288
L92719 78263
L92841 78263
L92890 78288
L92914 78312
L92939 78361
L92939 78483
L92914 78532
L92890 78556
L92841 78580
L92719 78580
L92671 78556
L92646 78532
" />
</g>
<g style="fill:#000000; fill-opacity:0.0; 
stroke:#000000; stroke-width:39.3701; stroke-opacity:1; 
stroke-linecap:round; stroke-linejoin:round;">
</g>
<g style="fill:#000000; fill-opacity:0.0; 
stroke:#000000; stroke-width:59.0551; stroke-opacity:1; 
stroke-linecap:round; stroke-linejoin:round;">
<path d="M112575 78069
L112477 78069
L112429 78093
L112404 78117
L112356 78190
L112331 78288
L112331 78483
L112356 78532
L112380 78556
L112429 78580
L112526 78580
L112575 78556
L112599 78532
L112624 78483
L112624 78361
L112599 78312
L112575 78288
L112526 78263
L112429 78263
L112380 78288
L112356 78312
L112331 78361
" />
</g>
<g style="fill:#000000; fill-opacity:0.0; 
stroke:#000000; stroke-width:39.3701; stroke-opacity:1; 
stroke-linecap:round; stroke-linejoin:round;">
</g>
<g style="fill:#000000; fill-opacity:0.0; 
stroke:#000000; stroke-width:59.0551; stroke-opacity:1; 
stroke-linecap:round; stroke-linejoin:round;">
<path d="M3937 23622
L4724 23622
" />
</g>
<g style="fill:#000000; fill-opacity:0.0; 
stroke:#000000; stroke-width:39.3701; stroke-opacity:1; 
stroke-linecap:round; stroke-linejoin:round;">
</g>
<g style="fill:#000000; fill-opacity:0.0; 
stroke:#000000; stroke-width:59.0551; stroke-opacity:1; 
stroke-linecap:round; stroke-linejoin:round;">
<path d="M3937 43307
L4724 43307
" />
</g>
<g style="fill:#000000; fill-opacity:0.0; 
stroke:#000000; stroke-width:39.3701; stroke-opacity:1; 
stroke-linecap:round; stroke-linejoin:round;">
</g>
<g style="fill:#000000; fill-opacity:0.0; 
stroke:#000000; stroke-width:59.0551; stroke-opacity:1; 
stroke-linecap:round; stroke-linejoin:round;">
<path d="M3937 62992
L4724 62992
" />
</g>
<g style="fill:#000000; fill-opacity:0.0; 
stroke:#000000; stroke-width:39.3701; stroke-opacity:1; 
stroke-linecap:round; stroke-linejoin:round;">
</g>
<g style="fill:#000000; fill-opacity:0.0; 
stroke:#000000; stroke-width:59.0551; stroke-opacity:1; 
stroke-linecap:round; stroke-linejoin:round;">
<path d="M4208 13864
L4452 13864
" />
<path d="M4160 14011
L4330 13499
L4501 14011
" />
</g>
<g style="fill:#000000; fill-opacity:0.0; 
stroke:#000000; stroke-width:39.3701; stroke-opacity:1; 
stroke-linecap:round; stroke-linejoin:round;">
</g>
<g style="fill:#000000; fill-opacity:0.0; 
stroke:#000000; stroke-width:59.0551; stroke-opacity:1; 
stroke-linecap:round; stroke-linejoin:round;">
<path d="M4367 33428
L4440 33452
L4464 33476
L4489 33525
L4489 33598
L4464 33647
L4440 33671
L4391 33696
L4196 33696
L4196 33184
L4367 33184
L4416 33208
L4440 33233
L4464 33281
L4464 33330
L4440 33379
L4416 33403
L4367 33428
L4196 33428
" />
</g>
<g style="fill:#000000; fill-opacity:0.0; 
stroke:#000000; stroke-width:39.3701; stroke-opacity:1; 
stroke-linecap:round; stroke-linejoin:round;">
</g>
<g style="fill:#000000; fill-opacity:0.0; 
stroke:#000000; stroke-width:59.0551; stroke-opacity:1; 
stroke-linecap:round; stroke-linejoin:round;">
<path d="M4489 53332
L4464 53356
L4391 53381
L4342 53381
L4269 53356
L4221 53308
L4196 53259
L4172 53161
L4172 53088
L4196 52991
L4221 52942
L4269 52893
L4342 52869
L4391 52869
L4464 52893
L4489 52918
" />
</g>
<g style="fill:#000000; fill-opacity:0.0; 
stroke:#000000; stroke-width:39.3701; stroke-opacity:1; 
stroke-linecap:round; stroke-linejoin:round;">
</g>
<g style="fill:#000000; fill-opacity:0.0; 
stroke:#000000; stroke-width:59.0551; stroke-opacity:1; 
stroke-linecap:round; stroke-linejoin:round;">
<path d="M4196 73066
L4196 72554
L4318 72554
L4391 72578
L4440 72627
L4464 72676
L4489 72773
L4489 72846
L4464 72944
L4440 72993
L4391 73041
L4318 73066
L4196 73066
" />
</g>
<g style="fill:#000000; fill-opacity:0.0; 
stroke:#000000; stroke-width:39.3701; stroke-opacity:1; 
stroke-linecap:round; stroke-linejoin:round;">
</g>
<g style="fill:#000000; fill-opacity:0.0; 
stroke:#000000; stroke-width:59.0551; stroke-opacity:1; 
stroke-linecap:round; stroke-linejoin:round;">
<path d="M112992 23622
L112205 23622
" />
</g>
<g style="fill:#000000; fill-opacity:0.0; 
stroke:#000000; stroke-width:39.3701; stroke-opacity:1; 
stroke-linecap:round; stroke-linejoin:round;">
</g>
<g style="fill:#000000; fill-opacity:0.0; 
stroke:#000000; stroke-width:59.0551; stroke-opacity:1; 
stroke-linecap:round; stroke-linejoin:round;">
<path d="M112992 43307
L112205 43307
" />
</g>
<g style="fill:#000000; fill-opacity:0.0; 
stroke:#000000; stroke-width:39.3701; stroke-opacity:1; 
stroke-linecap:round; stroke-linejoin:round;">
</g>
<g style="fill:#000000; fill-opacity:0.0; 
stroke:#000000; stroke-width:59.0551; stroke-opacity:1; 
stroke-linecap:round; stroke-linejoin:round;">
<path d="M112992 62992
L112205 62992
" />
</g>
<g style="fill:#000000; fill-opacity:0.0; 
stroke:#000000; stroke-width:39.3701; stroke-opacity:1; 
stroke-linecap:round; stroke-linejoin:round;">
</g>
<g style="fill:#000000; fill-opacity:0.0; 
stroke:#000000; stroke-width:59.0551; stroke-opacity:1; 
stroke-linecap:round; stroke-linejoin:round;">
<path d="M112477 13864
L112721 13864
" />
<path d="M112428 14011
L112599 13499
L112769 14011
" />
</g>
<g style="fill:#000000; fill-opacity:0.0; 
stroke:#000000; stroke-width:39.3701; stroke-opacity:1; 
stroke-linecap:round; stroke-linejoin:round;">
</g>
<g style="fill:#000000; fill-opacity:0.0; 
stroke:#000000; stroke-width:59.0551; stroke-opacity:1; 
stroke-linecap:round; stroke-linejoin:round;">
<path d="M112635 33428
L112708 33452
L112733 33476
L112757 33525
L112757 33598
L112733 33647
L112708 33671
L112660 33696
L112465 33696
L112465 33184
L112635 33184
L112684 33208
L112708 33233
L112733 33281
L112733 33330
L112708 33379
L112684 33403
L112635 33428
L112465 33428
" />
</g>
<g style="fill:#000000; fill-opacity:0.0; 
stroke:#000000; stroke-width:39.3701; stroke-opacity:1; 
stroke-linecap:round; stroke-linejoin:round;">
</g>
<g style="fill:#000000; fill-opacity:0.0; 
stroke:#000000; stroke-width:59.0551; stroke-opacity:1; 
stroke-linecap:round; stroke-linejoin:round;">
<path d="M112757 53332
L112733 53356
L112660 53381
L112611 53381
L112538 53356
L112489 53308
L112465 53259
L112440 53161
L112440 53088
L112465 52991
L112489 52942
L112538 52893
L112611 52869
L112660 52869
L112733 52893
L112757 52918
" />
</g>
<g style="fill:#000000; fill-opacity:0.0; 
stroke:#000000; stroke-width:39.3701; stroke-opacity:1; 
stroke-linecap:round; stroke-linejoin:round;">
</g>
<g style="fill:#000000; fill-opacity:0.0; 
stroke:#000000; stroke-width:59.0551; stroke-opacity:1; 
stroke-linecap:round; stroke-linejoin:round;">
<path d="M112465 73066
L112465 72554
L112587 72554
L112660 72578
L112708 72627
L112733 72676
L112757 72773
L112757 72846
L112733 72944
L112708 72993
L112660 73041
L112587 73066
L112465 73066
" />
</g>
<g style="fill:#000000; fill-opacity:0.0; 
stroke:#000000; stroke-width:39.3701; stroke-opacity:1; 
stroke-linecap:round; stroke-linejoin:round;">
</g>
<g style="fill:#000000; fill-opacity:0.0; 
stroke:#000000; stroke-width:59.0551; stroke-opacity:1; 
stroke-linecap:round; stroke-linejoin:round;">
<path d="M78911 76293
L78911 75703
L79051 75703
L79136 75731
L79192 75787
L79220 75843
L79248 75956
L79248 76040
L79220 76153
L79192 76209
L79136 76265
L79051 76293
L78911 76293
" />
<path d="M79754 76293
L79754 75984
L79726 75928
L79670 75899
L79557 75899
L79501 75928
" />
<path d="M79754 76265
L79698 76293
L79557 76293
L79501 76265
L79473 76209
L79473 76153
L79501 76096
L79557 76068
L79698 76068
L79754 76040
" />
<path d="M79951 75899
L80176 75899
" />
<path d="M80036 75703
L80036 76209
L80064 76265
L80120 76293
L80176 76293
" />
<path d="M80598 76265
L80542 76293
L80429 76293
L80373 76265
L80345 76209
L80345 75984
L80373 75928
L80429 75899
L80542 75899
L80598 75928
L80626 75984
L80626 76040
L80345 76096
" />
<path d="M80879 76237
L80907 76265
L80879 76293
L80851 76265
L80879 76237
L80879 76293
" />
<path d="M80879 75928
L80907 75956
L80879 75984
L80851 75956
L80879 75928
L80879 75984
" />
</g>
<g style="fill:#000000; fill-opacity:0.0; 
stroke:#000000; stroke-width:39.3701; stroke-opacity:1; 
stroke-linecap:round; stroke-linejoin:round;">
</g>
<g style="fill:#000000; fill-opacity:0.0; 
stroke:#000000; stroke-width:59.0551; stroke-opacity:1; 
stroke-linecap:round; stroke-linejoin:round;">
<path d="M69685 76577
L112205 76577
" />
</g>
<g style="fill:#000000; fill-opacity:0.0; 
stroke:#000000; stroke-width:39.3701; stroke-opacity:1; 
stroke-linecap:round; stroke-linejoin:round;">
</g>
<g style="fill:#000000; fill-opacity:0.0; 
stroke:#000000; stroke-width:59.0551; stroke-opacity:1; 
stroke-linecap:round; stroke-linejoin:round;">
<path d="M70249 77395
L70249 76805
" />
<path d="M70587 77395
L70334 77058
" />
<path d="M70587 76805
L70249 77142
" />
<path d="M70840 77395
L70840 77002
" />
<path d="M70840 76805
L70812 76833
L70840 76861
L70868 76833
L70840 76805
L70840 76861
" />
<path d="M71458 77339
L71430 77367
L71346 77395
L71290 77395
L71205 77367
L71149 77311
L71121 77255
L71093 77142
L71093 77058
L71121 76946
L71149 76889
L71205 76833
L71290 76805
L71346 76805
L71430 76833
L71458 76861
" />
<path d="M71965 77395
L71965 77086
L71937 77030
L71880 77002
L71768 77002
L71712 77030
" />
<path d="M71965 77367
L71908 77395
L71768 77395
L71712 77367
L71683 77311
L71683 77255
L71712 77199
L71768 77171
L71908 77171
L71965 77142
" />
<path d="M72499 77395
L72499 76805
" />
<path d="M72499 77367
L72443 77395
L72330 77395
L72274 77367
L72246 77339
L72218 77283
L72218 77114
L72246 77058
L72274 77030
L72330 77002
L72443 77002
L72499 77030
" />
<path d="M73230 77086
L73427 77086
" />
<path d="M73511 77395
L73230 77395
L73230 76805
L73511 76805
" />
<path d="M73764 77339
L73793 77367
L73764 77395
L73736 77367
L73764 77339
L73764 77395
" />
<path d="M74046 77395
L74046 76805
L74186 76805
L74271 76833
L74327 76889
L74355 76946
L74383 77058
L74383 77142
L74355 77255
L74327 77311
L74271 77367
L74186 77395
L74046 77395
" />
<path d="M74636 77339
L74664 77367
L74636 77395
L74608 77367
L74636 77339
L74636 77395
" />
<path d="M74889 77227
L75171 77227
" />
<path d="M74833 77395
L75030 76805
L75227 77395
" />
<path d="M75424 77339
L75452 77367
L75424 77395
L75395 77367
L75424 77339
L75424 77395
" />
<path d="M76605 77395
L76605 76805
" />
<path d="M76661 77171
L76830 77395
" />
<path d="M76830 77002
L76605 77227
" />
<path d="M77083 77395
L77083 77002
" />
<path d="M77083 76805
L77055 76833
L77083 76861
L77111 76833
L77083 76805
L77083 76861
" />
<path d="M77617 77367
L77561 77395
L77448 77395
L77392 77367
L77364 77339
L77336 77283
L77336 77114
L77364 77058
L77392 77030
L77448 77002
L77561 77002
L77617 77030
" />
<path d="M78123 77395
L78123 77086
L78095 77030
L78039 77002
L77926 77002
L77870 77030
" />
<path d="M78123 77367
L78067 77395
L77926 77395
L77870 77367
L77842 77311
L77842 77255
L77870 77199
L77926 77171
L78067 77171
L78123 77142
" />
<path d="M78658 77395
L78658 76805
" />
<path d="M78658 77367
L78601 77395
L78489 77395
L78433 77367
L78404 77339
L78376 77283
L78376 77114
L78404 77058
L78433 77030
L78489 77002
L78601 77002
L78658 77030
" />
<path d="M79670 76805
L79389 76805
L79361 77086
L79389 77058
L79445 77030
L79586 77030
L79642 77058
L79670 77086
L79698 77142
L79698 77283
L79670 77339
L79642 77367
L79586 77395
L79445 77395
L79389 77367
L79361 77339
" />
<path d="M79951 77339
L79979 77367
L79951 77395
L79923 77367
L79951 77339
L79951 77395
" />
<path d="M80345 76805
L80401 76805
L80457 76833
L80485 76861
L80514 76917
L80542 77030
L80542 77171
L80514 77283
L80485 77339
L80457 77367
L80401 77395
L80345 77395
L80289 77367
L80260 77339
L80232 77283
L80204 77171
L80204 77030
L80232 76917
L80260 76861
L80289 76833
L80345 76805
" />
<path d="M80795 77339
L80823 77367
L80795 77395
L80767 77367
L80795 77339
L80795 77395
" />
<path d="M81048 76861
L81076 76833
L81132 76805
L81273 76805
L81329 76833
L81357 76861
L81385 76917
L81385 76974
L81357 77058
L81020 77395
L81385 77395
" />
<path d="M81638 77171
L82088 77171
" />
<path d="M82370 77395
L82370 76805
" />
<path d="M82370 77030
L82426 77002
L82538 77002
L82595 77030
L82623 77058
L82651 77114
L82651 77283
L82623 77339
L82595 77367
L82538 77395
L82426 77395
L82370 77367
" />
<path d="M83129 77367
L83073 77395
L82960 77395
L82904 77367
L82876 77311
L82876 77086
L82904 77030
L82960 77002
L83073 77002
L83129 77030
L83157 77086
L83157 77142
L82876 77199
" />
<path d="M83635 77367
L83579 77395
L83466 77395
L83410 77367
L83382 77311
L83382 77086
L83410 77030
L83466 77002
L83579 77002
L83635 77030
L83663 77086
L83663 77142
L83382 77199
" />
<path d="M83860 76805
L84254 76805
L84001 77395
" />
<path d="M84732 76805
L84619 76805
L84563 76833
L84535 76861
L84479 76946
L84451 77058
L84451 77283
L84479 77339
L84507 77367
L84563 77395
L84676 77395
L84732 77367
L84760 77339
L84788 77283
L84788 77142
L84760 77086
L84732 77058
L84676 77030
L84563 77030
L84507 77058
L84479 77086
L84451 77142
" />
<path d="M85294 77395
L85294 77086
L85266 77030
L85210 77002
L85097 77002
L85041 77030
" />
<path d="M85294 77367
L85238 77395
L85097 77395
L85041 77367
L85013 77311
L85013 77255
L85041 77199
L85097 77171
L85238 77171
L85294 77142
" />
<path d="M85688 76805
L85744 76805
L85800 76833
L85829 76861
L85857 76917
L85885 77030
L85885 77171
L85857 77283
L85829 77339
L85800 77367
L85744 77395
L85688 77395
L85632 77367
L85604 77339
L85575 77283
L85547 77171
L85547 77030
L85575 76917
L85604 76861
L85632 76833
L85688 76805
" />
<path d="M85997 76644
L86560 76644
" />
<path d="M86082 76805
L86475 76805
L86222 77395
" />
<path d="M86560 76644
L87122 76644
" />
<path d="M86813 76805
L86869 76805
L86925 76833
L86953 76861
L86982 76917
L87010 77030
L87010 77171
L86982 77283
L86953 77339
L86925 77367
L86869 77395
L86813 77395
L86757 77367
L86728 77339
L86700 77283
L86672 77171
L86672 77030
L86700 76917
L86728 76861
L86757 76833
L86813 76805
" />
<path d="M87516 77002
L87516 77395
" />
<path d="M87263 77002
L87263 77311
L87291 77367
L87347 77395
L87431 77395
L87488 77367
L87516 77339
" />
<path d="M87797 77395
L87797 76805
" />
<path d="M87797 77030
L87853 77002
L87966 77002
L88022 77030
L88050 77058
L88078 77114
L88078 77283
L88050 77339
L88022 77367
L87966 77395
L87853 77395
L87797 77367
" />
<path d="M88584 77002
L88584 77395
" />
<path d="M88331 77002
L88331 77311
L88359 77367
L88416 77395
L88500 77395
L88556 77367
L88584 77339
" />
<path d="M88866 77002
L88866 77395
" />
<path d="M88866 77058
L88894 77030
L88950 77002
L89034 77002
L89091 77030
L89119 77086
L89119 77395
" />
<path d="M89316 77002
L89541 77002
" />
<path d="M89400 76805
L89400 77311
L89428 77367
L89484 77395
L89541 77395
" />
<path d="M89991 77002
L89991 77395
" />
<path d="M89737 77002
L89737 77311
L89766 77367
L89822 77395
L89906 77395
L89962 77367
L89991 77339
" />
<path d="M90581 77395
L90244 77395
" />
<path d="M90412 77395
L90412 76805
L90356 76889
L90300 76946
L90244 76974
" />
<path d="M90919 77058
L90862 77030
L90834 77002
L90806 76946
L90806 76917
L90834 76861
L90862 76833
L90919 76805
L91031 76805
L91087 76833
L91115 76861
L91144 76917
L91144 76946
L91115 77002
L91087 77030
L91031 77058
L90919 77058
L90862 77086
L90834 77114
L90806 77171
L90806 77283
L90834 77339
L90862 77367
L90919 77395
L91031 77395
L91087 77367
L91115 77339
L91144 77283
L91144 77171
L91115 77114
L91087 77086
L91031 77058
" />
<path d="M91397 77339
L91425 77367
L91397 77395
L91368 77367
L91397 77339
L91397 77395
" />
<path d="M91790 76805
L91847 76805
L91903 76833
L91931 76861
L91959 76917
L91987 77030
L91987 77171
L91959 77283
L91931 77339
L91903 77367
L91847 77395
L91790 77395
L91734 77367
L91706 77339
L91678 77283
L91650 77171
L91650 77030
L91678 76917
L91706 76861
L91734 76833
L91790 76805
" />
<path d="M92493 77002
L92493 77395
" />
<path d="M92353 76777
L92212 77199
L92578 77199
" />
<path d="M92803 77339
L92831 77367
L92803 77395
L92775 77367
L92803 77339
L92803 77395
" />
<path d="M93393 77395
L93056 77395
" />
<path d="M93224 77395
L93224 76805
L93168 76889
L93112 76946
L93056 76974
" />
</g>
<g style="fill:#000000; fill-opacity:0.0; 
stroke:#000000; stroke-width:39.3701; stroke-opacity:1; 
stroke-linecap:round; stroke-linejoin:round;">
</g>
<g style="fill:#000000; fill-opacity:0.0; 
stroke:#000000; stroke-width:59.0551; stroke-opacity:1; 
stroke-linecap:round; stroke-linejoin:round;">
<path d="M69685 75396
L112205 75396
" />
</g>
<g style="fill:#000000; fill-opacity:0.0; 
stroke:#000000; stroke-width:39.3701; stroke-opacity:1; 
stroke-linecap:round; stroke-linejoin:round;">
</g>
<g style="fill:#000000; fill-opacity:0.0; 
stroke:#000000; stroke-width:118.11; stroke-opacity:1; 
stroke-linecap:round; stroke-linejoin:round;">
<path d="M104099 76293
L103902 76012
" />
<path d="M103761 76293
L103761 75703
L103986 75703
L104042 75731
L104070 75759
L104099 75815
L104099 75899
L104070 75956
L104042 75984
L103986 76012
L103761 76012
" />
<path d="M104577 76265
L104520 76293
L104408 76293
L104352 76265
L104323 76209
L104323 75984
L104352 75928
L104408 75899
L104520 75899
L104577 75928
L104605 75984
L104605 76040
L104323 76096
" />
<path d="M104802 75899
L104942 76293
L105083 75899
" />
<path d="M105308 76237
L105336 76265
L105308 76293
L105280 76265
L105308 76237
L105308 76293
" />
<path d="M105308 75928
L105336 75956
L105308 75984
L105280 75956
L105308 75928
L105308 75984
" />
</g>
<g style="fill:#000000; fill-opacity:0.0; 
stroke:#000000; stroke-width:39.3701; stroke-opacity:1; 
stroke-linecap:round; stroke-linejoin:round;">
</g>
<g style="fill:#000000; fill-opacity:0.0; 
stroke:#000000; stroke-width:59.0551; stroke-opacity:1; 
stroke-linecap:round; stroke-linejoin:round;">
<path d="M70221 76265
L70305 76293
L70446 76293
L70502 76265
L70530 76237
L70559 76181
L70559 76124
L70530 76068
L70502 76040
L70446 76012
L70334 75984
L70277 75956
L70249 75928
L70221 75871
L70221 75815
L70249 75759
L70277 75731
L70334 75703
L70474 75703
L70559 75731
" />
<path d="M70812 76293
L70812 75899
" />
<path d="M70812 75703
L70784 75731
L70812 75759
L70840 75731
L70812 75703
L70812 75759
" />
<path d="M71037 75899
L71346 75899
L71037 76293
L71346 76293
" />
<path d="M71796 76265
L71740 76293
L71627 76293
L71571 76265
L71543 76209
L71543 75984
L71571 75928
L71627 75899
L71740 75899
L71796 75928
L71824 75984
L71824 76040
L71543 76096
" />
<path d="M72077 76237
L72105 76265
L72077 76293
L72049 76265
L72077 76237
L72077 76293
" />
<path d="M72077 75928
L72105 75956
L72077 75984
L72049 75956
L72077 75928
L72077 75984
" />
<path d="M72780 76124
L73061 76124
" />
<path d="M72724 76293
L72921 75703
L73118 76293
" />
<path d="M73568 75899
L73568 76293
" />
<path d="M73427 75674
L73286 76096
L73652 76096
" />
</g>
<g style="fill:#000000; fill-opacity:0.0; 
stroke:#000000; stroke-width:39.3701; stroke-opacity:1; 
stroke-linecap:round; stroke-linejoin:round;">
</g>
<g style="fill:#000000; fill-opacity:0.0; 
stroke:#000000; stroke-width:59.0551; stroke-opacity:1; 
stroke-linecap:round; stroke-linejoin:round;">
<path d="M103714 77395
L103714 76805
" />
<path d="M104248 77395
L104248 76805
" />
<path d="M104248 77367
L104192 77395
L104079 77395
L104023 77367
L103995 77339
L103967 77283
L103967 77114
L103995 77058
L104023 77030
L104079 77002
L104192 77002
L104248 77030
" />
<path d="M104529 77339
L104557 77367
L104529 77395
L104501 77367
L104529 77339
L104529 77395
" />
<path d="M104529 77030
L104557 77058
L104529 77086
L104501 77058
L104529 77030
L104529 77086
" />
<path d="M105570 77395
L105232 77395
" />
<path d="M105401 77395
L105401 76805
L105345 76889
L105289 76946
L105232 76974
" />
<path d="M106245 76777
L105739 77536
" />
<path d="M106751 77395
L106413 77395
" />
<path d="M106582 77395
L106582 76805
L106526 76889
L106470 76946
L106413 76974
" />
</g>
<g style="fill:#000000; fill-opacity:0.0; 
stroke:#000000; stroke-width:39.3701; stroke-opacity:1; 
stroke-linecap:round; stroke-linejoin:round;">
</g>
<g style="fill:#000000; fill-opacity:0.0; 
stroke:#000000; stroke-width:59.0551; stroke-opacity:1; 
stroke-linecap:round; stroke-linejoin:round;">
<path d="M69685 73821
L112205 73821
" />
</g>
<g style="fill:#000000; fill-opacity:0.0; 
stroke:#000000; stroke-width:39.3701; stroke-opacity:1; 
stroke-linecap:round; stroke-linejoin:round;">
</g>
<g style="fill:#000000; fill-opacity:0.0; 
stroke:#000000; stroke-width:157.48; stroke-opacity:1; 
stroke-linecap:round; stroke-linejoin:round;">
<path d="M70360 74099
L70810 74099
" />
<path d="M70486 74886
L70585 74099
" />
<path d="M70974 74886
L71039 74361
" />
<path d="M71072 74099
L71030 74136
L71063 74174
L71105 74136
L71072 74099
L71063 74174
" />
<path d="M71302 74361
L71602 74361
" />
<path d="M71447 74099
L71363 74774
L71391 74849
L71461 74886
L71536 74886
" />
<path d="M71911 74886
L71841 74849
L71813 74774
L71897 74099
" />
<path d="M72516 74849
L72436 74886
L72286 74886
L72216 74849
L72187 74774
L72225 74474
L72272 74399
L72352 74361
L72501 74361
L72572 74399
L72600 74474
L72591 74549
L72206 74624
" />
<path d="M72895 74811
L72928 74849
L72886 74886
L72853 74849
L72895 74811
L72886 74886
" />
<path d="M72947 74399
L72980 74436
L72937 74474
L72905 74436
L72947 74399
L72937 74474
" />
</g>
<g style="fill:#000000; fill-opacity:0.0; 
stroke:#000000; stroke-width:39.3701; stroke-opacity:1; 
stroke-linecap:round; stroke-linejoin:round;">
</g>
<g style="fill:#000000; fill-opacity:0.0; 
stroke:#000000; stroke-width:59.0551; stroke-opacity:1; 
stroke-linecap:round; stroke-linejoin:round;">
<path d="M70446 73070
L70249 73070
" />
<path d="M70249 73380
L70249 72789
L70530 72789
" />
<path d="M70755 73380
L70755 72986
" />
<path d="M70755 72789
L70727 72817
L70755 72845
L70784 72817
L70755 72789
L70755 72845
" />
<path d="M71121 73380
L71065 73352
L71037 73295
L71037 72789
" />
<path d="M71571 73352
L71515 73380
L71402 73380
L71346 73352
L71318 73295
L71318 73070
L71346 73014
L71402 72986
L71515 72986
L71571 73014
L71599 73070
L71599 73127
L71318 73183
" />
<path d="M71852 73323
L71880 73352
L71852 73380
L71824 73352
L71852 73323
L71852 73380
" />
<path d="M71852 73014
L71880 73042
L71852 73070
L71824 73042
L71852 73014
L71852 73070
" />
<path d="M72583 73380
L72583 72789
L72780 73211
L72977 72789
L72977 73380
" />
<path d="M73343 73380
L73286 73352
L73258 73323
L73230 73267
L73230 73099
L73258 73042
L73286 73014
L73343 72986
L73427 72986
L73483 73014
L73511 73042
L73539 73099
L73539 73267
L73511 73323
L73483 73352
L73427 73380
L73343 73380
" />
<path d="M74046 73380
L74046 72789
" />
<path d="M74046 73352
L73989 73380
L73877 73380
L73821 73352
L73793 73323
L73764 73267
L73764 73099
L73793 73042
L73821 73014
L73877 72986
L73989 72986
L74046 73014
" />
<path d="M74580 72986
L74580 73380
" />
<path d="M74327 72986
L74327 73295
L74355 73352
L74411 73380
L74496 73380
L74552 73352
L74580 73323
" />
<path d="M74946 73380
L74889 73352
L74861 73295
L74861 72789
" />
<path d="M75142 73211
L75424 73211
" />
<path d="M75086 73380
L75283 72789
L75480 73380
" />
<path d="M75930 73380
L75930 72789
" />
<path d="M75930 73352
L75874 73380
L75761 73380
L75705 73352
L75677 73323
L75649 73267
L75649 73099
L75677 73042
L75705 73014
L75761 72986
L75874 72986
L75930 73014
" />
<path d="M76464 73380
L76464 73070
L76436 73014
L76380 72986
L76267 72986
L76211 73014
" />
<path d="M76464 73352
L76408 73380
L76267 73380
L76211 73352
L76183 73295
L76183 73239
L76211 73183
L76267 73155
L76408 73155
L76464 73127
" />
<path d="M76745 72986
L76745 73577
" />
<path d="M76745 73014
L76802 72986
L76914 72986
L76970 73014
L76998 73042
L77027 73099
L77027 73267
L76998 73323
L76970 73352
L76914 73380
L76802 73380
L76745 73352
" />
<path d="M77195 72986
L77420 72986
" />
<path d="M77280 72789
L77280 73295
L77308 73352
L77364 73380
L77420 73380
" />
<path d="M77842 73352
L77786 73380
L77673 73380
L77617 73352
L77589 73295
L77589 73070
L77617 73014
L77673 72986
L77786 72986
L77842 73014
L77870 73070
L77870 73127
L77589 73183
" />
<path d="M78123 73380
L78123 72986
" />
<path d="M78123 73099
L78151 73042
L78180 73014
L78236 72986
L78292 72986
" />
<path d="M78489 73323
L78517 73352
L78489 73380
L78461 73352
L78489 73323
L78489 73380
" />
<path d="M78770 73380
L78770 72789
" />
<path d="M78826 73155
L78995 73380
" />
<path d="M78995 72986
L78770 73211
" />
<path d="M79248 73380
L79248 72986
" />
<path d="M79248 72789
L79220 72817
L79248 72845
L79276 72817
L79248 72789
L79248 72845
" />
<path d="M79782 73352
L79726 73380
L79614 73380
L79557 73352
L79529 73323
L79501 73267
L79501 73099
L79529 73042
L79557 73014
L79614 72986
L79726 72986
L79782 73014
" />
<path d="M80289 73380
L80289 73070
L80260 73014
L80204 72986
L80092 72986
L80036 73014
" />
<path d="M80289 73352
L80232 73380
L80092 73380
L80036 73352
L80007 73295
L80007 73239
L80036 73183
L80092 73155
L80232 73155
L80289 73127
" />
<path d="M80823 73380
L80823 72789
" />
<path d="M80823 73352
L80767 73380
L80654 73380
L80598 73352
L80570 73323
L80542 73267
L80542 73099
L80570 73042
L80598 73014
L80654 72986
L80767 72986
L80823 73014
" />
<path d="M80964 73436
L81413 73436
" />
<path d="M81554 72986
L81554 73577
" />
<path d="M81554 73014
L81610 72986
L81723 72986
L81779 73014
L81807 73042
L81835 73099
L81835 73267
L81807 73323
L81779 73352
L81723 73380
L81610 73380
L81554 73352
" />
<path d="M82341 73352
L82285 73380
L82173 73380
L82117 73352
L82088 73323
L82060 73267
L82060 73099
L82088 73042
L82117 73014
L82173 72986
L82285 72986
L82341 73014
" />
<path d="M82595 73380
L82595 72789
" />
<path d="M82595 73014
L82651 72986
L82763 72986
L82820 73014
L82848 73042
L82876 73099
L82876 73267
L82848 73323
L82820 73352
L82763 73380
L82651 73380
L82595 73352
" />
</g>
<g style="fill:#000000; fill-opacity:0.0; 
stroke:#000000; stroke-width:39.3701; stroke-opacity:1; 
stroke-linecap:round; stroke-linejoin:round;">
</g>
<g style="fill:#000000; fill-opacity:0.0; 
stroke:#000000; stroke-width:59.0551; stroke-opacity:1; 
stroke-linecap:round; stroke-linejoin:round;">
<path d="M69685 71459
L112205 71459
" />
</g>
<g style="fill:#000000; fill-opacity:0.0; 
stroke:#000000; stroke-width:39.3701; stroke-opacity:1; 
stroke-linecap:round; stroke-linejoin:round;">
</g>
<g style="fill:#000000; fill-opacity:0.0; 
stroke:#000000; stroke-width:59.0551; stroke-opacity:1; 
stroke-linecap:round; stroke-linejoin:round;">
<path d="M70221 72289
L70305 72317
L70446 72317
L70502 72289
L70530 72260
L70559 72204
L70559 72148
L70530 72092
L70502 72064
L70446 72036
L70334 72007
L70277 71979
L70249 71951
L70221 71895
L70221 71839
L70249 71782
L70277 71754
L70334 71726
L70474 71726
L70559 71754
" />
<path d="M70812 72317
L70812 71726
" />
<path d="M71065 72317
L71065 72007
L71037 71951
L70980 71923
L70896 71923
L70840 71951
L70812 71979
" />
<path d="M71571 72289
L71515 72317
L71402 72317
L71346 72289
L71318 72232
L71318 72007
L71346 71951
L71402 71923
L71515 71923
L71571 71951
L71599 72007
L71599 72064
L71318 72120
" />
<path d="M72077 72289
L72021 72317
L71908 72317
L71852 72289
L71824 72232
L71824 72007
L71852 71951
L71908 71923
L72021 71923
L72077 71951
L72105 72007
L72105 72064
L71824 72120
" />
<path d="M72274 71923
L72499 71923
" />
<path d="M72358 71726
L72358 72232
L72386 72289
L72443 72317
L72499 72317
" />
<path d="M72696 72260
L72724 72289
L72696 72317
L72668 72289
L72696 72260
L72696 72317
" />
<path d="M72696 71951
L72724 71979
L72696 72007
L72668 71979
L72696 71951
L72696 72007
" />
</g>
<g style="fill:#000000; fill-opacity:0.0; 
stroke:#000000; stroke-width:39.3701; stroke-opacity:1; 
stroke-linecap:round; stroke-linejoin:round;">
</g>
<g style="fill:#000000; fill-opacity:0.0; 
stroke:#000000; stroke-width:59.0551; stroke-opacity:1; 
stroke-linecap:round; stroke-linejoin:round;">
<path d="M77559 75396
L77559 76577
" />
</g>
<g style="fill:#000000; fill-opacity:0.0; 
stroke:#000000; stroke-width:39.3701; stroke-opacity:1; 
stroke-linecap:round; stroke-linejoin:round;">
</g>
<g style="fill:#000000; fill-opacity:0.0; 
stroke:#000000; stroke-width:59.0551; stroke-opacity:1; 
stroke-linecap:round; stroke-linejoin:round;">
<path d="M102756 75396
L102756 77955
" />
</g>
<g style="fill:#848484; fill-opacity:0.0; 
stroke:#848484; stroke-width:59.0551; stroke-opacity:1; 
stroke-linecap:round; stroke-linejoin:round;">
</g>
<g style="fill:#848484; fill-opacity:0.0; 
stroke:#848484; stroke-width:39.3701; stroke-opacity:1; 
stroke-linecap:round; stroke-linejoin:round;">
<path d="M53346 32480
L25393 32480
" />
<path d="M48031 34842
L48031 43503
" />
<path d="M58267 11811
L58267 27559
" />
<path d="M19212 12204
L17637 12204
" />
<path d="M19212 51574
L17637 51574
" />
<path d="M20472 9448
L20472 25546
" />
<path d="M20472 12992
L57480 12992
" />
<circle cx="22047.2" cy="29133.9" r="1181.1" /> 
<circle cx="22047.2" cy="49212.6" r="1181.1" /> 
<circle cx="56692.9" cy="49212.6" r="1181.1" /> 
<circle cx="56692.9" cy="29133.9" r="1181.1" /> 
<circle cx="22047.2" cy="49212.6" r="590.551" /> 
<circle cx="56692.9" cy="49212.6" r="590.551" /> 
<circle cx="56692.9" cy="29133.9" r="590.551" /> 
<path d="M58858 26968
L58858 51377
" />
<circle cx="22047.2" cy="29133.9" r="590.551" /> 
<path d="M19881 26968
L19881 51377
" />
<path d="M19685 51574
L59055 51574
" />
<path d="M19685 26771
L59055 26771
" />
<path d="M19685 51377
L59055 51377
" />
<path d="M19685 26968
L59055 26968
" />
<path d="M25393 45866
L53346 45866
" />
<path d="M25393 45866
L25393 32480
" />
<path d="M53346 45866
L53346 32480
" />
<path d="M30708 43503
L48031 43503
" />
<path d="M30708 34842
L30708 43503
" />
<path d="M30708 34842
L48031 34842
" />
</g>
<g style="fill:#848484; fill-opacity:0.0; 
stroke:#848484; stroke-width:59.0551; stroke-opacity:1; 
stroke-linecap:round; stroke-linejoin:round;">
<path d="M38140 50760
L38140 50367
L38271 50648
L38402 50367
L38402 50760
" />
<path d="M38590 50760
L38590 50498
" />
<path d="M38590 50367
L38571 50385
L38590 50404
L38608 50385
L38590 50367
L38590 50404
" />
<path d="M38777 50498
L38777 50760
" />
<path d="M38777 50535
L38796 50517
L38833 50498
L38890 50498
L38927 50517
L38946 50554
L38946 50760
" />
<path d="M39133 50760
L39133 50498
" />
<path d="M39133 50367
L39115 50385
L39133 50404
L39152 50385
L39133 50367
L39133 50404
" />
<path d="M39227 50798
L39527 50798
" />
<path d="M39621 50760
L39621 50367
L39715 50367
L39771 50385
L39808 50423
L39827 50460
L39846 50535
L39846 50592
L39827 50667
L39808 50704
L39771 50742
L39715 50760
L39621 50760
" />
<path d="M40014 50760
L40014 50498
" />
<path d="M40014 50367
L39996 50385
L40014 50404
L40033 50385
L40014 50367
L40014 50404
" />
<path d="M40202 50760
L40202 50498
" />
<path d="M40202 50535
L40221 50517
L40258 50498
L40314 50498
L40352 50517
L40371 50554
L40371 50760
" />
<path d="M40371 50554
L40389 50517
L40427 50498
L40483 50498
L40521 50517
L40539 50554
L40539 50760
" />
<path d="M40727 50760
L40727 50498
" />
<path d="M40727 50535
L40746 50517
L40783 50498
L40839 50498
L40877 50517
L40896 50554
L40896 50760
" />
<path d="M40896 50554
L40914 50517
L40952 50498
L41008 50498
L41046 50517
L41064 50554
L41064 50760
" />
<path d="M41158 50798
L41458 50798
" />
<path d="M41533 50404
L41552 50385
L41589 50367
L41683 50367
L41721 50385
L41739 50404
L41758 50442
L41758 50479
L41739 50535
L41514 50760
L41758 50760
" />
<path d="M42095 50498
L42095 50760
" />
<path d="M42002 50348
L41908 50629
L42152 50629
" />
<path d="M42470 50498
L42470 50760
" />
<path d="M42377 50348
L42283 50629
L42527 50629
" />
<path d="M30321 31507
L30378 31526
L30471 31526
L30509 31507
L30528 31489
L30546 31451
L30546 31414
L30528 31376
L30509 31357
L30471 31339
L30396 31320
L30359 31301
L30340 31282
L30321 31245
L30321 31207
L30340 31170
L30359 31151
L30396 31132
L30490 31132
L30546 31151
" />
<path d="M30884 31507
L30846 31526
L30771 31526
L30734 31507
L30715 31489
L30696 31451
L30696 31339
L30715 31301
L30734 31282
L30771 31264
L30846 31264
L30884 31282
" />
<path d="M31053 31526
L31053 31264
" />
<path d="M31053 31339
L31071 31301
L31090 31282
L31128 31264
L31165 31264
" />
<path d="M31446 31507
L31409 31526
L31334 31526
L31296 31507
L31278 31470
L31278 31320
L31296 31282
L31334 31264
L31409 31264
L31446 31282
L31465 31320
L31465 31357
L31278 31395
" />
<path d="M31596 31264
L31671 31526
L31746 31339
L31821 31526
L31896 31264
" />
<path d="M32046 31526
L32046 31132
L32196 31132
L32234 31151
L32252 31170
L32271 31207
L32271 31264
L32252 31301
L32234 31320
L32196 31339
L32046 31339
" />
<path d="M32609 31526
L32609 31320
L32590 31282
L32552 31264
L32477 31264
L32440 31282
" />
<path d="M32609 31507
L32571 31526
L32477 31526
L32440 31507
L32421 31470
L32421 31432
L32440 31395
L32477 31376
L32571 31376
L32609 31357
" />
<path d="M32965 31526
L32965 31132
" />
<path d="M32965 31507
L32927 31526
L32852 31526
L32815 31507
L32796 31489
L32777 31451
L32777 31339
L32796 31301
L32815 31282
L32852 31264
L32927 31264
L32965 31282
" />
<path d="M33359 31526
L33134 31526
" />
<path d="M33246 31526
L33246 31132
L33209 31189
L33171 31226
L33134 31245
" />
<path d="M64967 31507
L65023 31526
L65117 31526
L65155 31507
L65173 31489
L65192 31451
L65192 31414
L65173 31376
L65155 31357
L65117 31339
L65042 31320
L65005 31301
L64986 31282
L64967 31245
L64967 31207
L64986 31170
L65005 31151
L65042 31132
L65136 31132
L65192 31151
" />
<path d="M65530 31507
L65492 31526
L65417 31526
L65380 31507
L65361 31489
L65342 31451
L65342 31339
L65361 31301
L65380 31282
L65417 31264
L65492 31264
L65530 31282
" />
<path d="M65698 31526
L65698 31264
" />
<path d="M65698 31339
L65717 31301
L65736 31282
L65773 31264
L65811 31264
" />
<path d="M66092 31507
L66055 31526
L65980 31526
L65942 31507
L65923 31470
L65923 31320
L65942 31282
L65980 31264
L66055 31264
L66092 31282
L66111 31320
L66111 31357
L65923 31395
" />
<path d="M66242 31264
L66317 31526
L66392 31339
L66467 31526
L66542 31264
" />
<path d="M66692 31526
L66692 31132
L66842 31132
L66879 31151
L66898 31170
L66917 31207
L66917 31264
L66898 31301
L66879 31320
L66842 31339
L66692 31339
" />
<path d="M67254 31526
L67254 31320
L67236 31282
L67198 31264
L67123 31264
L67086 31282
" />
<path d="M67254 31507
L67217 31526
L67123 31526
L67086 31507
L67067 31470
L67067 31432
L67086 31395
L67123 31376
L67217 31376
L67254 31357
" />
<path d="M67611 31526
L67611 31132
" />
<path d="M67611 31507
L67573 31526
L67498 31526
L67461 31507
L67442 31489
L67423 31451
L67423 31339
L67442 31301
L67461 31282
L67498 31264
L67573 31264
L67611 31282
" />
<path d="M67779 31170
L67798 31151
L67836 31132
L67929 31132
L67967 31151
L67986 31170
L68004 31207
L68004 31245
L67986 31301
L67761 31526
L68004 31526
" />
<path d="M30321 55129
L30378 55148
L30471 55148
L30509 55129
L30528 55111
L30546 55073
L30546 55036
L30528 54998
L30509 54979
L30471 54961
L30396 54942
L30359 54923
L30340 54904
L30321 54867
L30321 54829
L30340 54792
L30359 54773
L30396 54754
L30490 54754
L30546 54773
" />
<path d="M30884 55129
L30846 55148
L30771 55148
L30734 55129
L30715 55111
L30696 55073
L30696 54961
L30715 54923
L30734 54904
L30771 54886
L30846 54886
L30884 54904
" />
<path d="M31053 55148
L31053 54886
" />
<path d="M31053 54961
L31071 54923
L31090 54904
L31128 54886
L31165 54886
" />
<path d="M31446 55129
L31409 55148
L31334 55148
L31296 55129
L31278 55092
L31278 54942
L31296 54904
L31334 54886
L31409 54886
L31446 54904
L31465 54942
L31465 54979
L31278 55017
" />
<path d="M31596 54886
L31671 55148
L31746 54961
L31821 55148
L31896 54886
" />
<path d="M32046 55148
L32046 54754
L32196 54754
L32234 54773
L32252 54792
L32271 54829
L32271 54886
L32252 54923
L32234 54942
L32196 54961
L32046 54961
" />
<path d="M32609 55148
L32609 54942
L32590 54904
L32552 54886
L32477 54886
L32440 54904
" />
<path d="M32609 55129
L32571 55148
L32477 55148
L32440 55129
L32421 55092
L32421 55054
L32440 55017
L32477 54998
L32571 54998
L32609 54979
" />
<path d="M32965 55148
L32965 54754
" />
<path d="M32965 55129
L32927 55148
L32852 55148
L32815 55129
L32796 55111
L32777 55073
L32777 54961
L32796 54923
L32815 54904
L32852 54886
L32927 54886
L32965 54904
" />
<path d="M33134 54792
L33152 54773
L33190 54754
L33284 54754
L33321 54773
L33340 54792
L33359 54829
L33359 54867
L33340 54923
L33115 55148
L33359 55148
" />
<path d="M64967 55129
L65023 55148
L65117 55148
L65155 55129
L65173 55111
L65192 55073
L65192 55036
L65173 54998
L65155 54979
L65117 54961
L65042 54942
L65005 54923
L64986 54904
L64967 54867
L64967 54829
L64986 54792
L65005 54773
L65042 54754
L65136 54754
L65192 54773
" />
<path d="M65530 55129
L65492 55148
L65417 55148
L65380 55129
L65361 55111
L65342 55073
L65342 54961
L65361 54923
L65380 54904
L65417 54886
L65492 54886
L65530 54904
" />
<path d="M65698 55148
L65698 54886
" />
<path d="M65698 54961
L65717 54923
L65736 54904
L65773 54886
L65811 54886
" />
<path d="M66092 55129
L66055 55148
L65980 55148
L65942 55129
L65923 55092
L65923 54942
L65942 54904
L65980 54886
L66055 54886
L66092 54904
L66111 54942
L66111 54979
L65923 55017
" />
<path d="M66242 54886
L66317 55148
L66392 54961
L66467 55148
L66542 54886
" />
<path d="M66692 55148
L66692 54754
L66842 54754
L66879 54773
L66898 54792
L66917 54829
L66917 54886
L66898 54923
L66879 54942
L66842 54961
L66692 54961
" />
<path d="M67254 55148
L67254 54942
L67236 54904
L67198 54886
L67123 54886
L67086 54904
" />
<path d="M67254 55129
L67217 55148
L67123 55148
L67086 55129
L67067 55092
L67067 55054
L67086 55017
L67123 54998
L67217 54998
L67254 54979
" />
<path d="M67611 55148
L67611 54754
" />
<path d="M67611 55129
L67573 55148
L67498 55148
L67461 55129
L67442 55111
L67423 55073
L67423 54961
L67442 54923
L67461 54904
L67498 54886
L67573 54886
L67611 54904
" />
<path d="M68004 55148
L67779 55148
" />
<path d="M67892 55148
L67892 54754
L67854 54811
L67817 54848
L67779 54867
" />
<path d="M32951 35529
L33007 35548
L33101 35548
L33138 35529
L33157 35510
L33176 35473
L33176 35435
L33157 35398
L33138 35379
L33101 35360
L33026 35341
L32989 35323
L32970 35304
L32951 35266
L32951 35229
L32970 35191
L32989 35173
L33026 35154
L33120 35154
L33176 35173
" />
<path d="M33513 35529
L33476 35548
L33401 35548
L33363 35529
L33345 35510
L33326 35473
L33326 35360
L33345 35323
L33363 35304
L33401 35285
L33476 35285
L33513 35304
" />
<path d="M33682 35548
L33682 35285
" />
<path d="M33682 35360
L33701 35323
L33720 35304
L33757 35285
L33795 35285
" />
<path d="M34076 35529
L34038 35548
L33963 35548
L33926 35529
L33907 35491
L33907 35341
L33926 35304
L33963 35285
L34038 35285
L34076 35304
L34095 35341
L34095 35379
L33907 35416
" />
<path d="M34226 35285
L34301 35548
L34376 35360
L34451 35548
L34526 35285
" />
<path d="M34676 35548
L34676 35154
L34826 35154
L34863 35173
L34882 35191
L34901 35229
L34901 35285
L34882 35323
L34863 35341
L34826 35360
L34676 35360
" />
<path d="M35238 35548
L35238 35341
L35219 35304
L35182 35285
L35107 35285
L35070 35304
" />
<path d="M35238 35529
L35201 35548
L35107 35548
L35070 35529
L35051 35491
L35051 35454
L35070 35416
L35107 35398
L35201 35398
L35238 35379
" />
<path d="M35594 35548
L35594 35154
" />
<path d="M35594 35529
L35557 35548
L35482 35548
L35444 35529
L35426 35510
L35407 35473
L35407 35360
L35426 35323
L35444 35304
L35482 35285
L35557 35285
L35594 35304
" />
<path d="M35763 35191
L35782 35173
L35819 35154
L35913 35154
L35951 35173
L35969 35191
L35988 35229
L35988 35266
L35969 35323
L35744 35548
L35988 35548
" />
<path d="M32951 34529
L33007 34548
L33101 34548
L33138 34529
L33157 34510
L33176 34473
L33176 34435
L33157 34398
L33138 34379
L33101 34360
L33026 34341
L32989 34323
L32970 34304
L32951 34266
L32951 34229
L32970 34191
L32989 34173
L33026 34154
L33120 34154
L33176 34173
" />
<path d="M33513 34529
L33476 34548
L33401 34548
L33363 34529
L33345 34510
L33326 34473
L33326 34360
L33345 34323
L33363 34304
L33401 34285
L33476 34285
L33513 34304
" />
<path d="M33682 34548
L33682 34285
" />
<path d="M33682 34360
L33701 34323
L33720 34304
L33757 34285
L33795 34285
" />
<path d="M34076 34529
L34038 34548
L33963 34548
L33926 34529
L33907 34491
L33907 34341
L33926 34304
L33963 34285
L34038 34285
L34076 34304
L34095 34341
L34095 34379
L33907 34416
" />
<path d="M34226 34285
L34301 34548
L34376 34360
L34451 34548
L34526 34285
" />
<path d="M34676 34548
L34676 34154
L34826 34154
L34863 34173
L34882 34191
L34901 34229
L34901 34285
L34882 34323
L34863 34341
L34826 34360
L34676 34360
" />
<path d="M35238 34548
L35238 34341
L35219 34304
L35182 34285
L35107 34285
L35070 34304
" />
<path d="M35238 34529
L35201 34548
L35107 34548
L35070 34529
L35051 34491
L35051 34454
L35070 34416
L35107 34398
L35201 34398
L35238 34379
" />
<path d="M35594 34548
L35594 34154
" />
<path d="M35594 34529
L35557 34548
L35482 34548
L35444 34529
L35426 34510
L35407 34473
L35407 34360
L35426 34323
L35444 34304
L35482 34285
L35557 34285
L35594 34304
" />
<path d="M35763 34191
L35782 34173
L35819 34154
L35913 34154
L35951 34173
L35969 34191
L35988 34229
L35988 34266
L35969 34323
L35744 34548
L35988 34548
" />
<path d="M44751 34529
L44807 34548
L44901 34548
L44938 34529
L44957 34510
L44976 34473
L44976 34435
L44957 34398
L44938 34379
L44901 34360
L44826 34341
L44789 34323
L44770 34304
L44751 34266
L44751 34229
L44770 34191
L44789 34173
L44826 34154
L44920 34154
L44976 34173
" />
<path d="M45313 34529
L45276 34548
L45201 34548
L45163 34529
L45145 34510
L45126 34473
L45126 34360
L45145 34323
L45163 34304
L45201 34285
L45276 34285
L45313 34304
" />
<path d="M45482 34548
L45482 34285
" />
<path d="M45482 34360
L45501 34323
L45520 34304
L45557 34285
L45595 34285
" />
<path d="M45876 34529
L45838 34548
L45763 34548
L45726 34529
L45707 34491
L45707 34341
L45726 34304
L45763 34285
L45838 34285
L45876 34304
L45895 34341
L45895 34379
L45707 34416
" />
<path d="M46026 34285
L46101 34548
L46176 34360
L46251 34548
L46326 34285
" />
<path d="M46476 34548
L46476 34154
L46626 34154
L46663 34173
L46682 34191
L46701 34229
L46701 34285
L46682 34323
L46663 34341
L46626 34360
L46476 34360
" />
<path d="M47038 34548
L47038 34341
L47019 34304
L46982 34285
L46907 34285
L46870 34304
" />
<path d="M47038 34529
L47001 34548
L46907 34548
L46870 34529
L46851 34491
L46851 34454
L46870 34416
L46907 34398
L47001 34398
L47038 34379
" />
<path d="M47394 34548
L47394 34154
" />
<path d="M47394 34529
L47357 34548
L47282 34548
L47244 34529
L47226 34510
L47207 34473
L47207 34360
L47226 34323
L47244 34304
L47282 34285
L47357 34285
L47394 34304
" />
<path d="M47563 34191
L47582 34173
L47619 34154
L47713 34154
L47751 34173
L47769 34191
L47788 34229
L47788 34266
L47769 34323
L47544 34548
L47788 34548
" />
<path d="M44751 35529
L44807 35548
L44901 35548
L44938 35529
L44957 35510
L44976 35473
L44976 35435
L44957 35398
L44938 35379
L44901 35360
L44826 35341
L44789 35323
L44770 35304
L44751 35266
L44751 35229
L44770 35191
L44789 35173
L44826 35154
L44920 35154
L44976 35173
" />
<path d="M45313 35529
L45276 35548
L45201 35548
L45163 35529
L45145 35510
L45126 35473
L45126 35360
L45145 35323
L45163 35304
L45201 35285
L45276 35285
L45313 35304
" />
<path d="M45482 35548
L45482 35285
" />
<path d="M45482 35360
L45501 35323
L45520 35304
L45557 35285
L45595 35285
" />
<path d="M45876 35529
L45838 35548
L45763 35548
L45726 35529
L45707 35491
L45707 35341
L45726 35304
L45763 35285
L45838 35285
L45876 35304
L45895 35341
L45895 35379
L45707 35416
" />
<path d="M46026 35285
L46101 35548
L46176 35360
L46251 35548
L46326 35285
" />
<path d="M46476 35548
L46476 35154
L46626 35154
L46663 35173
L46682 35191
L46701 35229
L46701 35285
L46682 35323
L46663 35341
L46626 35360
L46476 35360
" />
<path d="M47038 35548
L47038 35341
L47019 35304
L46982 35285
L46907 35285
L46870 35304
" />
<path d="M47038 35529
L47001 35548
L46907 35548
L46870 35529
L46851 35491
L46851 35454
L46870 35416
L46907 35398
L47001 35398
L47038 35379
" />
<path d="M47394 35548
L47394 35154
" />
<path d="M47394 35529
L47357 35548
L47282 35548
L47244 35529
L47226 35510
L47207 35473
L47207 35360
L47226 35323
L47244 35304
L47282 35285
L47357 35285
L47394 35304
" />
<path d="M47563 35191
L47582 35173
L47619 35154
L47713 35154
L47751 35173
L47769 35191
L47788 35229
L47788 35266
L47769 35323
L47544 35548
L47788 35548
" />
</g>
<g style="fill:#000000; fill-opacity:0.0; 
stroke:#000000; stroke-width:59.0551; stroke-opacity:1; 
stroke-linecap:round; stroke-linejoin:round;">
</g>
<g style="fill:#C2C200; fill-opacity:0.0; 
stroke:#C2C200; stroke-width:59.0551; stroke-opacity:1; 
stroke-linecap:round; stroke-linejoin:round;">
</g>
<g style="fill:#C2C200; fill-opacity:0.0; 
stroke:#C2C200; stroke-width:39.3701; stroke-opacity:1; 
stroke-linecap:round; stroke-linejoin:round;">
<path d="M22047 54133
L19685 54133
" />
<path d="M56692 54133
L59055 54133
" />
<path d="M54480.3 52854.3 A2559.34 2559.34 0.0 0 0 52263.9 51574.5 " />
<path d="M54480.3 52854.3 A2555.93 2555.93 0.0 0 0 56694.7 54130.7 " />
<path d="M26476.4 51574.8 A2559.06 2559.06 0.0 0 0 24260.2 52854.3 " />
<path d="M22047.2 54133.9 A2559.06 2559.06 0.0 0 0 24263.5 52854.3 " />
<circle cx="52559.1" cy="42716.5" r="413.386" /> 
<circle cx="26181.1" cy="42716.5" r="393.701" /> 
<path d="M59055 54133
L59055 26763
" />
<path d="M19685 54133
L19685 26763
" />
<path d="M26476 51574
L52263 51574
" />
<path d="M19685 26763
L59055 26763
" />
</g> 
</svg>
