G04 #@! TF.GenerationSoftware,KiCad,Pcbnew,5.1.5+dfsg1-2build2*
G04 #@! TF.CreationDate,2021-05-28T07:54:39+02:00*
G04 #@! TF.ProjectId,DIMMCartridge_heaters,44494d4d-4361-4727-9472-696467655f68,rev?*
G04 #@! TF.SameCoordinates,Original*
G04 #@! TF.FileFunction,Legend,Bot*
G04 #@! TF.FilePolarity,Positive*
%FSLAX46Y46*%
G04 Gerber Fmt 4.6, Leading zero omitted, Abs format (unit mm)*
G04 Created by KiCad (PCBNEW 5.1.5+dfsg1-2build2) date 2021-05-28 07:54:39*
%MOMM*%
%LPD*%
G04 APERTURE LIST*
%ADD10C,0.300000*%
%ADD11C,0.120000*%
%ADD12C,0.150000*%
G04 APERTURE END LIST*
D10*
X113428571Y-81518571D02*
X113142857Y-81518571D01*
X113000000Y-81590000D01*
X112857142Y-81732857D01*
X112785714Y-82018571D01*
X112785714Y-82518571D01*
X112857142Y-82804285D01*
X113000000Y-82947142D01*
X113142857Y-83018571D01*
X113428571Y-83018571D01*
X113571428Y-82947142D01*
X113714285Y-82804285D01*
X113785714Y-82518571D01*
X113785714Y-82018571D01*
X113714285Y-81732857D01*
X113571428Y-81590000D01*
X113428571Y-81518571D01*
X112142857Y-82018571D02*
X112142857Y-83518571D01*
X112142857Y-82090000D02*
X112000000Y-82018571D01*
X111714285Y-82018571D01*
X111571428Y-82090000D01*
X111500000Y-82161428D01*
X111428571Y-82304285D01*
X111428571Y-82732857D01*
X111500000Y-82875714D01*
X111571428Y-82947142D01*
X111714285Y-83018571D01*
X112000000Y-83018571D01*
X112142857Y-82947142D01*
X110214285Y-82947142D02*
X110357142Y-83018571D01*
X110642857Y-83018571D01*
X110785714Y-82947142D01*
X110857142Y-82804285D01*
X110857142Y-82232857D01*
X110785714Y-82090000D01*
X110642857Y-82018571D01*
X110357142Y-82018571D01*
X110214285Y-82090000D01*
X110142857Y-82232857D01*
X110142857Y-82375714D01*
X110857142Y-82518571D01*
X109500000Y-82018571D02*
X109500000Y-83018571D01*
X109500000Y-82161428D02*
X109428571Y-82090000D01*
X109285714Y-82018571D01*
X109071428Y-82018571D01*
X108928571Y-82090000D01*
X108857142Y-82232857D01*
X108857142Y-83018571D01*
X108142857Y-83018571D02*
X108142857Y-81518571D01*
X107785714Y-81518571D01*
X107571428Y-81590000D01*
X107428571Y-81732857D01*
X107357142Y-81875714D01*
X107285714Y-82161428D01*
X107285714Y-82375714D01*
X107357142Y-82661428D01*
X107428571Y-82804285D01*
X107571428Y-82947142D01*
X107785714Y-83018571D01*
X108142857Y-83018571D01*
X106642857Y-83018571D02*
X106642857Y-82018571D01*
X106642857Y-82304285D02*
X106571428Y-82161428D01*
X106500000Y-82090000D01*
X106357142Y-82018571D01*
X106214285Y-82018571D01*
X105500000Y-83018571D02*
X105642857Y-82947142D01*
X105714285Y-82875714D01*
X105785714Y-82732857D01*
X105785714Y-82304285D01*
X105714285Y-82161428D01*
X105642857Y-82090000D01*
X105500000Y-82018571D01*
X105285714Y-82018571D01*
X105142857Y-82090000D01*
X105071428Y-82161428D01*
X105000000Y-82304285D01*
X105000000Y-82732857D01*
X105071428Y-82875714D01*
X105142857Y-82947142D01*
X105285714Y-83018571D01*
X105500000Y-83018571D01*
X104357142Y-82018571D02*
X104357142Y-83518571D01*
X104357142Y-82090000D02*
X104214285Y-82018571D01*
X103928571Y-82018571D01*
X103785714Y-82090000D01*
X103714285Y-82161428D01*
X103642857Y-82304285D01*
X103642857Y-82732857D01*
X103714285Y-82875714D01*
X103785714Y-82947142D01*
X103928571Y-83018571D01*
X104214285Y-83018571D01*
X104357142Y-82947142D01*
X101000000Y-82875714D02*
X101071428Y-82947142D01*
X101285714Y-83018571D01*
X101428571Y-83018571D01*
X101642857Y-82947142D01*
X101785714Y-82804285D01*
X101857142Y-82661428D01*
X101928571Y-82375714D01*
X101928571Y-82161428D01*
X101857142Y-81875714D01*
X101785714Y-81732857D01*
X101642857Y-81590000D01*
X101428571Y-81518571D01*
X101285714Y-81518571D01*
X101071428Y-81590000D01*
X101000000Y-81661428D01*
X99714285Y-83018571D02*
X99714285Y-82232857D01*
X99785714Y-82090000D01*
X99928571Y-82018571D01*
X100214285Y-82018571D01*
X100357142Y-82090000D01*
X99714285Y-82947142D02*
X99857142Y-83018571D01*
X100214285Y-83018571D01*
X100357142Y-82947142D01*
X100428571Y-82804285D01*
X100428571Y-82661428D01*
X100357142Y-82518571D01*
X100214285Y-82447142D01*
X99857142Y-82447142D01*
X99714285Y-82375714D01*
X99000000Y-83018571D02*
X99000000Y-82018571D01*
X99000000Y-82304285D02*
X98928571Y-82161428D01*
X98857142Y-82090000D01*
X98714285Y-82018571D01*
X98571428Y-82018571D01*
X98285714Y-82018571D02*
X97714285Y-82018571D01*
X98071428Y-81518571D02*
X98071428Y-82804285D01*
X98000000Y-82947142D01*
X97857142Y-83018571D01*
X97714285Y-83018571D01*
X97214285Y-83018571D02*
X97214285Y-82018571D01*
X97214285Y-82304285D02*
X97142857Y-82161428D01*
X97071428Y-82090000D01*
X96928571Y-82018571D01*
X96785714Y-82018571D01*
X96285714Y-83018571D02*
X96285714Y-82018571D01*
X96285714Y-81518571D02*
X96357142Y-81590000D01*
X96285714Y-81661428D01*
X96214285Y-81590000D01*
X96285714Y-81518571D01*
X96285714Y-81661428D01*
X94928571Y-83018571D02*
X94928571Y-81518571D01*
X94928571Y-82947142D02*
X95071428Y-83018571D01*
X95357142Y-83018571D01*
X95500000Y-82947142D01*
X95571428Y-82875714D01*
X95642857Y-82732857D01*
X95642857Y-82304285D01*
X95571428Y-82161428D01*
X95500000Y-82090000D01*
X95357142Y-82018571D01*
X95071428Y-82018571D01*
X94928571Y-82090000D01*
X93571428Y-82018571D02*
X93571428Y-83232857D01*
X93642857Y-83375714D01*
X93714285Y-83447142D01*
X93857142Y-83518571D01*
X94071428Y-83518571D01*
X94214285Y-83447142D01*
X93571428Y-82947142D02*
X93714285Y-83018571D01*
X94000000Y-83018571D01*
X94142857Y-82947142D01*
X94214285Y-82875714D01*
X94285714Y-82732857D01*
X94285714Y-82304285D01*
X94214285Y-82161428D01*
X94142857Y-82090000D01*
X94000000Y-82018571D01*
X93714285Y-82018571D01*
X93571428Y-82090000D01*
X92285714Y-82947142D02*
X92428571Y-83018571D01*
X92714285Y-83018571D01*
X92857142Y-82947142D01*
X92928571Y-82804285D01*
X92928571Y-82232857D01*
X92857142Y-82090000D01*
X92714285Y-82018571D01*
X92428571Y-82018571D01*
X92285714Y-82090000D01*
X92214285Y-82232857D01*
X92214285Y-82375714D01*
X92928571Y-82518571D01*
X90642857Y-81518571D02*
X90142857Y-83018571D01*
X89642857Y-81518571D01*
X88500000Y-82018571D02*
X88500000Y-83018571D01*
X88857142Y-81447142D02*
X89214285Y-82518571D01*
X88285714Y-82518571D01*
X87714285Y-82875714D02*
X87642857Y-82947142D01*
X87714285Y-83018571D01*
X87785714Y-82947142D01*
X87714285Y-82875714D01*
X87714285Y-83018571D01*
X86214285Y-83018571D02*
X87071428Y-83018571D01*
X86642857Y-83018571D02*
X86642857Y-81518571D01*
X86785714Y-81732857D01*
X86928571Y-81875714D01*
X87071428Y-81947142D01*
X113392857Y-84568571D02*
X113107142Y-85568571D01*
X112821428Y-84854285D01*
X112535714Y-85568571D01*
X112250000Y-84568571D01*
X111821428Y-84568571D02*
X111535714Y-85568571D01*
X111250000Y-84854285D01*
X110964285Y-85568571D01*
X110678571Y-84568571D01*
X110250000Y-84568571D02*
X109964285Y-85568571D01*
X109678571Y-84854285D01*
X109392857Y-85568571D01*
X109107142Y-84568571D01*
X108535714Y-85425714D02*
X108464285Y-85497142D01*
X108535714Y-85568571D01*
X108607142Y-85497142D01*
X108535714Y-85425714D01*
X108535714Y-85568571D01*
X107178571Y-84568571D02*
X107178571Y-85782857D01*
X107250000Y-85925714D01*
X107321428Y-85997142D01*
X107464285Y-86068571D01*
X107678571Y-86068571D01*
X107821428Y-85997142D01*
X107178571Y-85497142D02*
X107321428Y-85568571D01*
X107607142Y-85568571D01*
X107750000Y-85497142D01*
X107821428Y-85425714D01*
X107892857Y-85282857D01*
X107892857Y-84854285D01*
X107821428Y-84711428D01*
X107750000Y-84640000D01*
X107607142Y-84568571D01*
X107321428Y-84568571D01*
X107178571Y-84640000D01*
X105821428Y-85568571D02*
X105821428Y-84782857D01*
X105892857Y-84640000D01*
X106035714Y-84568571D01*
X106321428Y-84568571D01*
X106464285Y-84640000D01*
X105821428Y-85497142D02*
X105964285Y-85568571D01*
X106321428Y-85568571D01*
X106464285Y-85497142D01*
X106535714Y-85354285D01*
X106535714Y-85211428D01*
X106464285Y-85068571D01*
X106321428Y-84997142D01*
X105964285Y-84997142D01*
X105821428Y-84925714D01*
X104464285Y-84568571D02*
X104464285Y-85568571D01*
X105107142Y-84568571D02*
X105107142Y-85354285D01*
X105035714Y-85497142D01*
X104892857Y-85568571D01*
X104678571Y-85568571D01*
X104535714Y-85497142D01*
X104464285Y-85425714D01*
X103107142Y-85568571D02*
X103107142Y-84068571D01*
X103107142Y-85497142D02*
X103250000Y-85568571D01*
X103535714Y-85568571D01*
X103678571Y-85497142D01*
X103750000Y-85425714D01*
X103821428Y-85282857D01*
X103821428Y-84854285D01*
X103750000Y-84711428D01*
X103678571Y-84640000D01*
X103535714Y-84568571D01*
X103250000Y-84568571D01*
X103107142Y-84640000D01*
X102392857Y-85568571D02*
X102392857Y-84568571D01*
X102392857Y-84068571D02*
X102464285Y-84140000D01*
X102392857Y-84211428D01*
X102321428Y-84140000D01*
X102392857Y-84068571D01*
X102392857Y-84211428D01*
X101678571Y-85425714D02*
X101607142Y-85497142D01*
X101678571Y-85568571D01*
X101750000Y-85497142D01*
X101678571Y-85425714D01*
X101678571Y-85568571D01*
X100321428Y-85497142D02*
X100464285Y-85568571D01*
X100750000Y-85568571D01*
X100892857Y-85497142D01*
X100964285Y-85425714D01*
X101035714Y-85282857D01*
X101035714Y-84854285D01*
X100964285Y-84711428D01*
X100892857Y-84640000D01*
X100750000Y-84568571D01*
X100464285Y-84568571D01*
X100321428Y-84640000D01*
X99678571Y-85568571D02*
X99678571Y-84068571D01*
X99035714Y-85568571D02*
X99035714Y-84782857D01*
X99107142Y-84640000D01*
X99250000Y-84568571D01*
X99464285Y-84568571D01*
X99607142Y-84640000D01*
X99678571Y-84711428D01*
X97250000Y-83997142D02*
X98535714Y-85925714D01*
X96464285Y-84068571D02*
X96178571Y-84068571D01*
X96035714Y-84140000D01*
X95892857Y-84282857D01*
X95821428Y-84568571D01*
X95821428Y-85068571D01*
X95892857Y-85354285D01*
X96035714Y-85497142D01*
X96178571Y-85568571D01*
X96464285Y-85568571D01*
X96607142Y-85497142D01*
X96750000Y-85354285D01*
X96821428Y-85068571D01*
X96821428Y-84568571D01*
X96750000Y-84282857D01*
X96607142Y-84140000D01*
X96464285Y-84068571D01*
X95178571Y-84568571D02*
X95178571Y-86068571D01*
X95178571Y-84640000D02*
X95035714Y-84568571D01*
X94750000Y-84568571D01*
X94607142Y-84640000D01*
X94535714Y-84711428D01*
X94464285Y-84854285D01*
X94464285Y-85282857D01*
X94535714Y-85425714D01*
X94607142Y-85497142D01*
X94750000Y-85568571D01*
X95035714Y-85568571D01*
X95178571Y-85497142D01*
X93250000Y-85497142D02*
X93392857Y-85568571D01*
X93678571Y-85568571D01*
X93821428Y-85497142D01*
X93892857Y-85354285D01*
X93892857Y-84782857D01*
X93821428Y-84640000D01*
X93678571Y-84568571D01*
X93392857Y-84568571D01*
X93250000Y-84640000D01*
X93178571Y-84782857D01*
X93178571Y-84925714D01*
X93892857Y-85068571D01*
X92535714Y-84568571D02*
X92535714Y-85568571D01*
X92535714Y-84711428D02*
X92464285Y-84640000D01*
X92321428Y-84568571D01*
X92107142Y-84568571D01*
X91964285Y-84640000D01*
X91892857Y-84782857D01*
X91892857Y-85568571D01*
X91178571Y-85568571D02*
X91178571Y-84068571D01*
X90821428Y-84068571D01*
X90607142Y-84140000D01*
X90464285Y-84282857D01*
X90392857Y-84425714D01*
X90321428Y-84711428D01*
X90321428Y-84925714D01*
X90392857Y-85211428D01*
X90464285Y-85354285D01*
X90607142Y-85497142D01*
X90821428Y-85568571D01*
X91178571Y-85568571D01*
X89678571Y-85568571D02*
X89678571Y-84568571D01*
X89678571Y-84854285D02*
X89607142Y-84711428D01*
X89535714Y-84640000D01*
X89392857Y-84568571D01*
X89250000Y-84568571D01*
X88535714Y-85568571D02*
X88678571Y-85497142D01*
X88750000Y-85425714D01*
X88821428Y-85282857D01*
X88821428Y-84854285D01*
X88750000Y-84711428D01*
X88678571Y-84640000D01*
X88535714Y-84568571D01*
X88321428Y-84568571D01*
X88178571Y-84640000D01*
X88107142Y-84711428D01*
X88035714Y-84854285D01*
X88035714Y-85282857D01*
X88107142Y-85425714D01*
X88178571Y-85497142D01*
X88321428Y-85568571D01*
X88535714Y-85568571D01*
X87392857Y-84568571D02*
X87392857Y-86068571D01*
X87392857Y-84640000D02*
X87250000Y-84568571D01*
X86964285Y-84568571D01*
X86821428Y-84640000D01*
X86750000Y-84711428D01*
X86678571Y-84854285D01*
X86678571Y-85282857D01*
X86750000Y-85425714D01*
X86821428Y-85497142D01*
X86964285Y-85568571D01*
X87250000Y-85568571D01*
X87392857Y-85497142D01*
D11*
X87022936Y-93535000D02*
X88227064Y-93535000D01*
X87022936Y-91715000D02*
X88227064Y-91715000D01*
X87022936Y-96285000D02*
X88227064Y-96285000D01*
X87022936Y-94465000D02*
X88227064Y-94465000D01*
X99227064Y-91715000D02*
X98022936Y-91715000D01*
X99227064Y-93535000D02*
X98022936Y-93535000D01*
X99227064Y-94465000D02*
X98022936Y-94465000D01*
X99227064Y-96285000D02*
X98022936Y-96285000D01*
X112977064Y-91715000D02*
X111772936Y-91715000D01*
X112977064Y-93535000D02*
X111772936Y-93535000D01*
X112977064Y-94465000D02*
X111772936Y-94465000D01*
X112977064Y-96285000D02*
X111772936Y-96285000D01*
D12*
X85105714Y-93467380D02*
X84534285Y-93467380D01*
X84820000Y-94467380D02*
X84820000Y-93467380D01*
X84200952Y-94467380D02*
X84200952Y-93467380D01*
X84200952Y-93943571D02*
X83629523Y-93943571D01*
X83629523Y-94467380D02*
X83629523Y-93467380D01*
X82629523Y-94467380D02*
X83200952Y-94467380D01*
X82915238Y-94467380D02*
X82915238Y-93467380D01*
X83010476Y-93610238D01*
X83105714Y-93705476D01*
X83200952Y-93753095D01*
X96105714Y-93447380D02*
X95534285Y-93447380D01*
X95820000Y-94447380D02*
X95820000Y-93447380D01*
X95200952Y-94447380D02*
X95200952Y-93447380D01*
X95200952Y-93923571D02*
X94629523Y-93923571D01*
X94629523Y-94447380D02*
X94629523Y-93447380D01*
X94200952Y-93542619D02*
X94153333Y-93495000D01*
X94058095Y-93447380D01*
X93820000Y-93447380D01*
X93724761Y-93495000D01*
X93677142Y-93542619D01*
X93629523Y-93637857D01*
X93629523Y-93733095D01*
X93677142Y-93875952D01*
X94248571Y-94447380D01*
X93629523Y-94447380D01*
X109875714Y-93357380D02*
X109304285Y-93357380D01*
X109590000Y-94357380D02*
X109590000Y-93357380D01*
X108970952Y-94357380D02*
X108970952Y-93357380D01*
X108970952Y-93833571D02*
X108399523Y-93833571D01*
X108399523Y-94357380D02*
X108399523Y-93357380D01*
X108018571Y-93357380D02*
X107399523Y-93357380D01*
X107732857Y-93738333D01*
X107590000Y-93738333D01*
X107494761Y-93785952D01*
X107447142Y-93833571D01*
X107399523Y-93928809D01*
X107399523Y-94166904D01*
X107447142Y-94262142D01*
X107494761Y-94309761D01*
X107590000Y-94357380D01*
X107875714Y-94357380D01*
X107970952Y-94309761D01*
X108018571Y-94262142D01*
X87791666Y-91427380D02*
X88125000Y-90951190D01*
X88363095Y-91427380D02*
X88363095Y-90427380D01*
X87982142Y-90427380D01*
X87886904Y-90475000D01*
X87839285Y-90522619D01*
X87791666Y-90617857D01*
X87791666Y-90760714D01*
X87839285Y-90855952D01*
X87886904Y-90903571D01*
X87982142Y-90951190D01*
X88363095Y-90951190D01*
X86839285Y-91427380D02*
X87410714Y-91427380D01*
X87125000Y-91427380D02*
X87125000Y-90427380D01*
X87220238Y-90570238D01*
X87315476Y-90665476D01*
X87410714Y-90713095D01*
X87756666Y-97617380D02*
X88090000Y-97141190D01*
X88328095Y-97617380D02*
X88328095Y-96617380D01*
X87947142Y-96617380D01*
X87851904Y-96665000D01*
X87804285Y-96712619D01*
X87756666Y-96807857D01*
X87756666Y-96950714D01*
X87804285Y-97045952D01*
X87851904Y-97093571D01*
X87947142Y-97141190D01*
X88328095Y-97141190D01*
X87375714Y-96712619D02*
X87328095Y-96665000D01*
X87232857Y-96617380D01*
X86994761Y-96617380D01*
X86899523Y-96665000D01*
X86851904Y-96712619D01*
X86804285Y-96807857D01*
X86804285Y-96903095D01*
X86851904Y-97045952D01*
X87423333Y-97617380D01*
X86804285Y-97617380D01*
X98736666Y-91417380D02*
X99070000Y-90941190D01*
X99308095Y-91417380D02*
X99308095Y-90417380D01*
X98927142Y-90417380D01*
X98831904Y-90465000D01*
X98784285Y-90512619D01*
X98736666Y-90607857D01*
X98736666Y-90750714D01*
X98784285Y-90845952D01*
X98831904Y-90893571D01*
X98927142Y-90941190D01*
X99308095Y-90941190D01*
X98403333Y-90417380D02*
X97784285Y-90417380D01*
X98117619Y-90798333D01*
X97974761Y-90798333D01*
X97879523Y-90845952D01*
X97831904Y-90893571D01*
X97784285Y-90988809D01*
X97784285Y-91226904D01*
X97831904Y-91322142D01*
X97879523Y-91369761D01*
X97974761Y-91417380D01*
X98260476Y-91417380D01*
X98355714Y-91369761D01*
X98403333Y-91322142D01*
X98776666Y-97627380D02*
X99110000Y-97151190D01*
X99348095Y-97627380D02*
X99348095Y-96627380D01*
X98967142Y-96627380D01*
X98871904Y-96675000D01*
X98824285Y-96722619D01*
X98776666Y-96817857D01*
X98776666Y-96960714D01*
X98824285Y-97055952D01*
X98871904Y-97103571D01*
X98967142Y-97151190D01*
X99348095Y-97151190D01*
X97919523Y-96960714D02*
X97919523Y-97627380D01*
X98157619Y-96579761D02*
X98395714Y-97294047D01*
X97776666Y-97294047D01*
X112606666Y-91427380D02*
X112940000Y-90951190D01*
X113178095Y-91427380D02*
X113178095Y-90427380D01*
X112797142Y-90427380D01*
X112701904Y-90475000D01*
X112654285Y-90522619D01*
X112606666Y-90617857D01*
X112606666Y-90760714D01*
X112654285Y-90855952D01*
X112701904Y-90903571D01*
X112797142Y-90951190D01*
X113178095Y-90951190D01*
X111701904Y-90427380D02*
X112178095Y-90427380D01*
X112225714Y-90903571D01*
X112178095Y-90855952D01*
X112082857Y-90808333D01*
X111844761Y-90808333D01*
X111749523Y-90855952D01*
X111701904Y-90903571D01*
X111654285Y-90998809D01*
X111654285Y-91236904D01*
X111701904Y-91332142D01*
X111749523Y-91379761D01*
X111844761Y-91427380D01*
X112082857Y-91427380D01*
X112178095Y-91379761D01*
X112225714Y-91332142D01*
X112536666Y-97587380D02*
X112870000Y-97111190D01*
X113108095Y-97587380D02*
X113108095Y-96587380D01*
X112727142Y-96587380D01*
X112631904Y-96635000D01*
X112584285Y-96682619D01*
X112536666Y-96777857D01*
X112536666Y-96920714D01*
X112584285Y-97015952D01*
X112631904Y-97063571D01*
X112727142Y-97111190D01*
X113108095Y-97111190D01*
X111679523Y-96587380D02*
X111870000Y-96587380D01*
X111965238Y-96635000D01*
X112012857Y-96682619D01*
X112108095Y-96825476D01*
X112155714Y-97015952D01*
X112155714Y-97396904D01*
X112108095Y-97492142D01*
X112060476Y-97539761D01*
X111965238Y-97587380D01*
X111774761Y-97587380D01*
X111679523Y-97539761D01*
X111631904Y-97492142D01*
X111584285Y-97396904D01*
X111584285Y-97158809D01*
X111631904Y-97063571D01*
X111679523Y-97015952D01*
X111774761Y-96968333D01*
X111965238Y-96968333D01*
X112060476Y-97015952D01*
X112108095Y-97063571D01*
X112155714Y-97158809D01*
M02*
