M48
; DRILL file {KiCad 6.0.11-2627ca5db0~126~ubuntu22.04.1} date Mo 08 Mai 2023 08:47:42
; FORMAT={-:-/ absolute / inch / decimal}
; #@! TF.CreationDate,2023-05-08T08:47:42+02:00
; #@! TF.GenerationSoftware,Kicad,Pcbnew,6.0.11-2627ca5db0~126~ubuntu22.04.1
; #@! TF.FileFunction,Plated,1,2,PTH
FMAT,2
INCH
; #@! TA.AperFunction,Plated,PTH,ComponentDrill
T1C0.0118
; #@! TA.AperFunction,Plated,PTH,ViaDrill
T2C0.0157
; #@! TA.AperFunction,Plated,PTH,ComponentDrill
T3C0.0157
; #@! TA.AperFunction,Plated,PTH,ComponentDrill
T4C0.0177
; #@! TA.AperFunction,Plated,PTH,ViaDrill
T5C0.0236
%
G90
G05
T1
X2.8543Y-3.6467
X2.8543Y-4.188
X3.0167Y-3.6467
X3.0167Y-4.188
X3.0709Y-3.5384
X3.0709Y-3.7549
X3.0709Y-4.0797
X3.0709Y-4.2963
X3.125Y-3.6467
X3.125Y-4.188
X3.2333Y-3.5384
X3.2333Y-3.6467
X3.2333Y-3.7549
X3.2333Y-3.8632
X3.2333Y-3.9715
X3.2333Y-4.0797
X3.2333Y-4.188
X3.2333Y-4.2963
X3.3415Y-3.5384
X3.3415Y-3.6467
X3.3415Y-3.7549
X3.3415Y-3.8632
X3.3415Y-3.9715
X3.3415Y-4.0797
X3.3415Y-4.188
X3.3415Y-4.2963
X3.4498Y-3.5384
X3.4498Y-3.8632
X3.4498Y-3.9715
X3.4498Y-4.0797
X3.4498Y-4.188
X3.4498Y-4.2963
X3.5581Y-3.5384
X3.5581Y-3.6467
X3.5581Y-3.7549
X3.5581Y-3.8632
X3.5581Y-3.9715
X3.5581Y-4.0797
X3.5581Y-4.188
X3.5581Y-4.2963
X3.6663Y-3.5384
X3.6663Y-3.6467
X3.6663Y-3.7549
X3.6663Y-3.8632
X3.6663Y-3.9715
X3.6663Y-4.0797
X3.6663Y-4.188
X3.6663Y-4.2963
X3.7746Y-3.5384
X3.7746Y-3.6467
X3.7746Y-3.7549
X3.7746Y-3.8632
X3.7746Y-3.9715
X3.7746Y-4.0797
X3.7746Y-4.188
X3.7746Y-4.2963
X3.8829Y-3.5384
X3.8829Y-3.8632
X3.8829Y-3.9715
X3.8829Y-4.0797
X3.8829Y-4.188
X3.8829Y-4.2963
X3.9911Y-3.5384
X3.9911Y-3.6467
X3.9911Y-3.7549
X3.9911Y-3.8632
X3.9911Y-3.9715
X3.9911Y-4.0797
X3.9911Y-4.188
X3.9911Y-4.2963
X4.0994Y-3.5384
X4.0994Y-3.6467
X4.0994Y-3.7549
X4.0994Y-3.8632
X4.0994Y-3.9715
X4.0994Y-4.0797
X4.0994Y-4.188
X4.0994Y-4.2963
X4.2077Y-3.5384
X4.2077Y-3.6467
X4.2077Y-3.7549
X4.2077Y-3.8632
X4.2077Y-3.9715
X4.2077Y-4.0797
X4.2077Y-4.188
X4.2077Y-4.2963
X4.3159Y-3.5384
X4.3159Y-3.6467
X4.3159Y-3.7549
X4.3159Y-3.8632
X4.3159Y-3.9715
X4.3159Y-4.0797
X4.3159Y-4.188
X4.3159Y-4.2963
X4.4242Y-3.5384
X4.4242Y-3.8632
X4.4242Y-3.9715
X4.4242Y-4.0797
X4.4242Y-4.188
X4.4242Y-4.2963
X4.5325Y-3.5384
X4.5325Y-3.6467
X4.5325Y-3.7549
X4.5325Y-3.8632
X4.5325Y-3.9715
X4.5325Y-4.0797
X4.5325Y-4.188
X4.5325Y-4.2963
X4.6407Y-3.5384
X4.6407Y-3.6467
X4.6407Y-3.7549
X4.6407Y-3.8632
X4.6407Y-3.9715
X4.6407Y-4.0797
X4.6407Y-4.188
X4.6407Y-4.2963
X4.749Y-3.6467
X4.749Y-4.188
X4.8031Y-3.5384
X4.8031Y-3.7549
X4.8031Y-4.0797
X4.8031Y-4.2963
X4.8573Y-3.6467
X4.8573Y-4.188
X5.0197Y-3.6467
X5.0197Y-4.188
T2
X2.472Y-4.6615
X2.567Y-4.6715
X2.612Y-4.5965
X3.0161Y-4.9144
X3.0161Y-4.9451
X3.063Y-4.9144
X3.0638Y-4.8844
X3.2051Y-4.9821
X3.2295Y-4.9443
X3.2528Y-4.9821
X3.2531Y-5.0144
X3.769Y-5.0275
X3.7701Y-4.9935
X3.8067Y-4.936
X3.8071Y-4.9675
X3.883Y-4.8715
X3.9075Y-4.9675
X3.925Y-4.9015
X3.931Y-4.9459
X3.937Y-5.0217
X3.955Y-4.9892
X4.6929Y-4.977
X4.6929Y-5.0112
X4.7181Y-4.9274
X4.7413Y-4.9793
X4.8457Y-4.9486
X4.8465Y-4.9805
X4.902Y-4.9171
X4.9059Y-4.9502
T3
X3.4498Y-3.7008
X3.8829Y-3.7008
X4.4242Y-3.7008
T4
X3.4498Y-3.6467
X3.4498Y-3.7549
X3.8829Y-3.6467
X3.8829Y-3.7549
X4.4242Y-3.6467
X4.4242Y-3.7549
T5
X2.427Y-4.7015
X2.467Y-4.7015
X2.522Y-4.7215
X2.532Y-4.6765
X2.567Y-4.6315
X2.612Y-4.6365
X2.6618Y-4.5892
X2.6642Y-4.6289
X3.357Y-3.2615
X3.447Y-3.2165
X3.787Y-3.2215
X3.887Y-3.1765
T0
M30
