G04 #@! TF.GenerationSoftware,KiCad,Pcbnew,6.0.11-2627ca5db0~126~ubuntu22.04.1*
G04 #@! TF.CreationDate,2023-05-08T08:47:40+02:00*
G04 #@! TF.ProjectId,DIMMCartridge_heaters,44494d4d-4361-4727-9472-696467655f68,rev?*
G04 #@! TF.SameCoordinates,Original*
G04 #@! TF.FileFunction,Copper,L2,Bot*
G04 #@! TF.FilePolarity,Positive*
%FSLAX46Y46*%
G04 Gerber Fmt 4.6, Leading zero omitted, Abs format (unit mm)*
G04 Created by KiCad (PCBNEW 6.0.11-2627ca5db0~126~ubuntu22.04.1) date 2023-05-08 08:47:40*
%MOMM*%
%LPD*%
G01*
G04 APERTURE LIST*
G04 Aperture macros list*
%AMRoundRect*
0 Rectangle with rounded corners*
0 $1 Rounding radius*
0 $2 $3 $4 $5 $6 $7 $8 $9 X,Y pos of 4 corners*
0 Add a 4 corners polygon primitive as box body*
4,1,4,$2,$3,$4,$5,$6,$7,$8,$9,$2,$3,0*
0 Add four circle primitives for the rounded corners*
1,1,$1+$1,$2,$3*
1,1,$1+$1,$4,$5*
1,1,$1+$1,$6,$7*
1,1,$1+$1,$8,$9*
0 Add four rect primitives between the rounded corners*
20,1,$1+$1,$2,$3,$4,$5,0*
20,1,$1+$1,$4,$5,$6,$7,0*
20,1,$1+$1,$6,$7,$8,$9,0*
20,1,$1+$1,$8,$9,$2,$3,0*%
G04 Aperture macros list end*
G04 #@! TA.AperFunction,EtchedComponent*
%ADD10C,0.100000*%
G04 #@! TD*
G04 #@! TA.AperFunction,SMDPad,CuDef*
%ADD11RoundRect,0.070000X-0.630000X-0.805000X0.630000X-0.805000X0.630000X0.805000X-0.630000X0.805000X0*%
G04 #@! TD*
G04 #@! TA.AperFunction,SMDPad,CuDef*
%ADD12RoundRect,0.040000X-0.360000X-0.835000X0.360000X-0.835000X0.360000X0.835000X-0.360000X0.835000X0*%
G04 #@! TD*
G04 #@! TA.AperFunction,SMDPad,CuDef*
%ADD13RoundRect,0.070000X0.630000X0.805000X-0.630000X0.805000X-0.630000X-0.805000X0.630000X-0.805000X0*%
G04 #@! TD*
G04 #@! TA.AperFunction,SMDPad,CuDef*
%ADD14RoundRect,0.040000X0.360000X0.835000X-0.360000X0.835000X-0.360000X-0.835000X0.360000X-0.835000X0*%
G04 #@! TD*
G04 #@! TA.AperFunction,ComponentPad*
%ADD15C,0.604800*%
G04 #@! TD*
G04 #@! TA.AperFunction,SMDPad,CuDef*
%ADD16R,0.400000X2.300000*%
G04 #@! TD*
G04 #@! TA.AperFunction,ComponentPad*
%ADD17C,0.650000*%
G04 #@! TD*
G04 #@! TA.AperFunction,SMDPad,CuDef*
%ADD18RoundRect,0.030000X0.120000X0.290000X-0.120000X0.290000X-0.120000X-0.290000X0.120000X-0.290000X0*%
G04 #@! TD*
G04 #@! TA.AperFunction,SMDPad,CuDef*
%ADD19RoundRect,0.064000X0.286000X0.256000X-0.286000X0.256000X-0.286000X-0.256000X0.286000X-0.256000X0*%
G04 #@! TD*
G04 #@! TA.AperFunction,ViaPad*
%ADD20C,0.600000*%
G04 #@! TD*
G04 #@! TA.AperFunction,ViaPad*
%ADD21C,0.800000*%
G04 #@! TD*
G04 #@! TA.AperFunction,Conductor*
%ADD22C,0.110000*%
G04 #@! TD*
G04 #@! TA.AperFunction,Conductor*
%ADD23C,0.200000*%
G04 #@! TD*
G04 #@! TA.AperFunction,Conductor*
%ADD24C,0.100000*%
G04 #@! TD*
G04 #@! TA.AperFunction,Conductor*
%ADD25C,0.250000*%
G04 #@! TD*
G04 #@! TA.AperFunction,Conductor*
%ADD26C,0.500000*%
G04 #@! TD*
G04 APERTURE END LIST*
D10*
X87275000Y-94270000D02*
X87615000Y-94270000D01*
X87275000Y-93730000D02*
X87615000Y-93730000D01*
X112025000Y-94270000D02*
X112365000Y-94270000D01*
X112025000Y-93730000D02*
X112365000Y-93730000D01*
X98275000Y-94270000D02*
X98615000Y-94270000D01*
X98275000Y-93730000D02*
X98615000Y-93730000D01*
D11*
X87625000Y-92625000D03*
D12*
X86095000Y-92625000D03*
X89155000Y-92625000D03*
D11*
X87625000Y-95375000D03*
D12*
X86095000Y-95375000D03*
X89155000Y-95375000D03*
D13*
X98625000Y-92625000D03*
D14*
X100155000Y-92625000D03*
X97095000Y-92625000D03*
D13*
X98625000Y-95375000D03*
D14*
X100155000Y-95375000D03*
X97095000Y-95375000D03*
D13*
X112375000Y-92625000D03*
D14*
X113905000Y-92625000D03*
X110845000Y-92625000D03*
D13*
X112375000Y-95375000D03*
D14*
X113905000Y-95375000D03*
X110845000Y-95375000D03*
D15*
X82125000Y-106375000D03*
X117875000Y-89875000D03*
X82125000Y-109125000D03*
X76625000Y-92625000D03*
X76625000Y-106375000D03*
X123375000Y-92625000D03*
X123375000Y-106375000D03*
X82125000Y-95375000D03*
X82125000Y-98125000D03*
X82125000Y-100875000D03*
X82125000Y-103625000D03*
X117875000Y-95375000D03*
X117875000Y-98125000D03*
X117875000Y-100875000D03*
X117875000Y-103625000D03*
X104125000Y-89875000D03*
X104125000Y-109125000D03*
X106875000Y-89875000D03*
X106875000Y-109125000D03*
X109625000Y-89875000D03*
X109625000Y-109125000D03*
X112375000Y-89875000D03*
X112375000Y-109125000D03*
X115125000Y-89875000D03*
X115125000Y-109125000D03*
X84875000Y-89875000D03*
X84875000Y-109125000D03*
X87625000Y-89875000D03*
X87625000Y-109125000D03*
X90375000Y-89875000D03*
X90375000Y-109125000D03*
X93125000Y-89875000D03*
X93125000Y-109125000D03*
X95875000Y-89875000D03*
X95875000Y-109125000D03*
X98625000Y-89875000D03*
X98625000Y-109125000D03*
X101375000Y-89875000D03*
X101375000Y-109125000D03*
X82125000Y-89875000D03*
X117875000Y-109125000D03*
X72500000Y-92625000D03*
X72500000Y-106375000D03*
X127500000Y-92625000D03*
X127500000Y-106375000D03*
X104125000Y-92625000D03*
X104125000Y-95375000D03*
X104125000Y-98125000D03*
X104125000Y-100875000D03*
X104125000Y-103625000D03*
X104125000Y-106375000D03*
X106875000Y-92625000D03*
X106875000Y-95375000D03*
X106875000Y-98125000D03*
X106875000Y-100875000D03*
X106875000Y-103625000D03*
X106875000Y-106375000D03*
X109625000Y-92625000D03*
X109625000Y-95375000D03*
X109625000Y-98125000D03*
X109625000Y-100875000D03*
X109625000Y-103625000D03*
X109625000Y-106375000D03*
X112375000Y-98125000D03*
X112375000Y-100875000D03*
X112375000Y-103625000D03*
X112375000Y-106375000D03*
X115125000Y-92625000D03*
X115125000Y-95375000D03*
X115125000Y-98125000D03*
X115125000Y-100875000D03*
X115125000Y-103625000D03*
X115125000Y-106375000D03*
X117875000Y-92625000D03*
X117875000Y-106375000D03*
X82125000Y-92625000D03*
X84875000Y-92625000D03*
X84875000Y-95375000D03*
X84875000Y-98125000D03*
X84875000Y-100875000D03*
X84875000Y-103625000D03*
X84875000Y-106375000D03*
X87625000Y-98125000D03*
X87625000Y-100875000D03*
X87625000Y-103625000D03*
X87625000Y-106375000D03*
X90375000Y-92625000D03*
X90375000Y-95375000D03*
X90375000Y-98125000D03*
X90375000Y-100875000D03*
X90375000Y-103625000D03*
X90375000Y-106375000D03*
X93125000Y-92625000D03*
X93125000Y-95375000D03*
X93125000Y-98125000D03*
X93125000Y-100875000D03*
X93125000Y-103625000D03*
X93125000Y-106375000D03*
X95875000Y-92625000D03*
X95875000Y-95375000D03*
X95875000Y-98125000D03*
X95875000Y-100875000D03*
X95875000Y-103625000D03*
X95875000Y-106375000D03*
X98625000Y-98125000D03*
X98625000Y-100875000D03*
X98625000Y-103625000D03*
X98625000Y-106375000D03*
X101375000Y-92625000D03*
X101375000Y-95375000D03*
X101375000Y-98125000D03*
X101375000Y-100875000D03*
X101375000Y-103625000D03*
X101375000Y-106375000D03*
X79375000Y-92625000D03*
X78000000Y-89875000D03*
X78000000Y-95375000D03*
X78000000Y-109125000D03*
X122000000Y-103625000D03*
X78000000Y-103625000D03*
X79375000Y-106375000D03*
X120625000Y-92625000D03*
X122000000Y-89875000D03*
X122000000Y-109125000D03*
X120625000Y-106375000D03*
X122000000Y-95375000D03*
D16*
X137800000Y-131490000D03*
X137200000Y-131490000D03*
X136600000Y-131490000D03*
X136000000Y-131490000D03*
X135400000Y-131490000D03*
X134800000Y-131490000D03*
X134200000Y-131490000D03*
X133600000Y-131490000D03*
X133000000Y-131490000D03*
X132400000Y-131490000D03*
X131800000Y-131490000D03*
X131200000Y-131490000D03*
X130600000Y-131490000D03*
X130000000Y-131490000D03*
X129400000Y-131490000D03*
X128800000Y-131490000D03*
X128200000Y-131490000D03*
X127600000Y-131490000D03*
X127000000Y-131490000D03*
X126400000Y-131490000D03*
X125800000Y-131490000D03*
X125200000Y-131490000D03*
X124600000Y-131490000D03*
X124000000Y-131490000D03*
X123400000Y-131490000D03*
X122800000Y-131490000D03*
X122200000Y-131490000D03*
X121600000Y-131490000D03*
X121000000Y-131490000D03*
X120400000Y-131490000D03*
X119800000Y-131490000D03*
X119200000Y-131490000D03*
X118600000Y-131490000D03*
X118000000Y-131490000D03*
X117400000Y-131490000D03*
X116800000Y-131490000D03*
X116200000Y-131490000D03*
X115600000Y-131490000D03*
X115000000Y-131490000D03*
X114400000Y-131490000D03*
X113800000Y-131490000D03*
X113200000Y-131490000D03*
X112600000Y-131490000D03*
X112000000Y-131490000D03*
X111400000Y-131490000D03*
X110800000Y-131490000D03*
X110200000Y-131490000D03*
X109600000Y-131490000D03*
X109000000Y-131490000D03*
X108400000Y-131490000D03*
X107800000Y-131490000D03*
X107200000Y-131490000D03*
X106600000Y-131490000D03*
X106000000Y-131490000D03*
X105400000Y-131490000D03*
X104800000Y-131490000D03*
X104200000Y-131490000D03*
X100600000Y-131490000D03*
X100000000Y-131490000D03*
X99400000Y-131490000D03*
X98800000Y-131490000D03*
X98200000Y-131490000D03*
X97600000Y-131490000D03*
X97000000Y-131490000D03*
X96400000Y-131490000D03*
X95800000Y-131490000D03*
X95200000Y-131490000D03*
X94600000Y-131490000D03*
X94000000Y-131490000D03*
X93400000Y-131490000D03*
X92800000Y-131490000D03*
X92200000Y-131490000D03*
X91600000Y-131490000D03*
X91000000Y-131490000D03*
X90400000Y-131490000D03*
X89800000Y-131490000D03*
X89200000Y-131490000D03*
X88600000Y-131490000D03*
X88000000Y-131490000D03*
X87400000Y-131490000D03*
X86800000Y-131490000D03*
X86200000Y-131490000D03*
X85600000Y-131490000D03*
X85000000Y-131490000D03*
X84400000Y-131490000D03*
X83800000Y-131490000D03*
X83200000Y-131490000D03*
X82600000Y-131490000D03*
X82000000Y-131490000D03*
X81400000Y-131490000D03*
X80800000Y-131490000D03*
X80200000Y-131490000D03*
X79600000Y-131490000D03*
X79000000Y-131490000D03*
X78400000Y-131490000D03*
X77800000Y-131490000D03*
X77200000Y-131490000D03*
X76600000Y-131490000D03*
X76000000Y-131490000D03*
X75400000Y-131490000D03*
X74800000Y-131490000D03*
X74200000Y-131490000D03*
X73600000Y-131490000D03*
X73000000Y-131490000D03*
X72400000Y-131490000D03*
X71800000Y-131490000D03*
X71200000Y-131490000D03*
X70600000Y-131490000D03*
X70000000Y-131490000D03*
X69400000Y-131490000D03*
X68800000Y-131490000D03*
X68200000Y-131490000D03*
X67600000Y-131490000D03*
X67000000Y-131490000D03*
X66400000Y-131490000D03*
X65800000Y-131490000D03*
X65200000Y-131490000D03*
X64600000Y-131490000D03*
X64000000Y-131490000D03*
X63400000Y-131490000D03*
X62800000Y-131490000D03*
X62200000Y-131490000D03*
D15*
X87625000Y-92625000D03*
X87625000Y-95375000D03*
X112375000Y-92625000D03*
X112375000Y-95375000D03*
X98625000Y-92625000D03*
X98625000Y-95375000D03*
D17*
X87625000Y-94000000D03*
D18*
X86025000Y-94000000D03*
D19*
X87075000Y-94000000D03*
D17*
X112375000Y-94000000D03*
D18*
X110775000Y-94000000D03*
D19*
X111825000Y-94000000D03*
D17*
X98625000Y-94000000D03*
D18*
X97025000Y-94000000D03*
D19*
X98075000Y-94000000D03*
D20*
X76610000Y-125605000D03*
X82030000Y-125585000D03*
X77800000Y-124825000D03*
X76610000Y-124825000D03*
X82620000Y-126545000D03*
X81410000Y-126545000D03*
X77820000Y-124065000D03*
X82630000Y-127365000D03*
X99695200Y-124497000D03*
X95732800Y-127697400D03*
X96700000Y-126175000D03*
X95760000Y-126835000D03*
X100000000Y-127550000D03*
X100457200Y-126725000D03*
X98628400Y-123735000D03*
X99847600Y-125625000D03*
X99250000Y-126173400D03*
X96690000Y-125375000D03*
X123100000Y-126505000D03*
X119200000Y-127285000D03*
X120430000Y-126475000D03*
X119200000Y-126415000D03*
X123080000Y-125695000D03*
X124610000Y-125735000D03*
X119840000Y-125155000D03*
X124510000Y-124895000D03*
D21*
X96190000Y-81825000D03*
X67670000Y-117575000D03*
X85268000Y-82841000D03*
X98730000Y-80682000D03*
X67610000Y-116565000D03*
X87554000Y-81698000D03*
X61646000Y-119417000D03*
X62662000Y-119417000D03*
D20*
X62789000Y-118401000D03*
D21*
X64059000Y-119925000D03*
X64313000Y-118782000D03*
D20*
X65202000Y-118655000D03*
D21*
X65202000Y-117639000D03*
X66345000Y-117766000D03*
D20*
X66345000Y-116750000D03*
D22*
X112871576Y-96953424D02*
X111490000Y-96945000D01*
X112871576Y-96953424D02*
X113280000Y-96545000D01*
X113280000Y-93530000D02*
X112375000Y-92625000D01*
X113280000Y-96545000D02*
X113280000Y-93530000D01*
X110766000Y-80526000D02*
X110766000Y-90691000D01*
X110766000Y-90691000D02*
X111460000Y-91385000D01*
X111460000Y-91385000D02*
X111460000Y-93635000D01*
X111460000Y-93635000D02*
X111825000Y-94000000D01*
X98883030Y-96961970D02*
X99113030Y-96961970D01*
X99113030Y-96961970D02*
X99530000Y-96545000D01*
X99530000Y-96545000D02*
X99530000Y-93530000D01*
X99530000Y-93530000D02*
X98625000Y-92625000D01*
X98883030Y-96961970D02*
X97740000Y-96955000D01*
X97016000Y-90671000D02*
X97016000Y-81635000D01*
X97720000Y-91485000D02*
X97720000Y-93645000D01*
X97016000Y-90788000D02*
X97016000Y-90671000D01*
X97016000Y-90671000D02*
X97016000Y-90781000D01*
X97016000Y-90781000D02*
X97720000Y-91485000D01*
X97720000Y-93645000D02*
X98075000Y-94000000D01*
X88171273Y-96953727D02*
X88530000Y-96595000D01*
X88530000Y-96595000D02*
X88530000Y-93530000D01*
X88530000Y-93530000D02*
X87625000Y-92625000D01*
X88171273Y-96953727D02*
X86740000Y-96945000D01*
X86110000Y-90915000D02*
X86717600Y-91522600D01*
X86717600Y-91522600D02*
X86717600Y-93642600D01*
X86717600Y-93642600D02*
X87075000Y-94000000D01*
X86340000Y-91145000D02*
X86110000Y-90915000D01*
X86110000Y-90915000D02*
X86020000Y-90825000D01*
X62200000Y-129050000D02*
X62600000Y-128650000D01*
X62600000Y-128650000D02*
X62600000Y-123700000D01*
X62600000Y-123700000D02*
X68375000Y-117925000D01*
X78790001Y-89050000D02*
X79375000Y-89634999D01*
X68375000Y-92075000D02*
X71400000Y-89050000D01*
X62200000Y-131640000D02*
X62200000Y-129050000D01*
X71400000Y-89050000D02*
X78790001Y-89050000D01*
X68375000Y-117925000D02*
X68375000Y-92075000D01*
X79375000Y-89634999D02*
X79375000Y-92625000D01*
X62800000Y-131640000D02*
X62800000Y-129200000D01*
X68925000Y-117925000D02*
X68925000Y-92625000D01*
X63150000Y-128925000D02*
X63150000Y-123700000D01*
X78000000Y-89875000D02*
X78000000Y-95375000D01*
X62875000Y-129200000D02*
X63150000Y-128925000D01*
X62800000Y-129200000D02*
X62875000Y-129200000D01*
X63150000Y-123700000D02*
X68925000Y-117925000D01*
X71675000Y-89875000D02*
X78000000Y-89875000D01*
X68925000Y-92625000D02*
X71675000Y-89875000D01*
X63400000Y-129225000D02*
X63700000Y-128925000D01*
X75525000Y-91525000D02*
X76625000Y-92625000D01*
X69750000Y-117650000D02*
X69750000Y-93175000D01*
X71400000Y-91525000D02*
X75525000Y-91525000D01*
X63700000Y-128925000D02*
X63700000Y-123700000D01*
X63400000Y-131640000D02*
X63400000Y-129225000D01*
X63700000Y-123700000D02*
X69750000Y-117650000D01*
X69750000Y-93175000D02*
X71400000Y-91525000D01*
X64000000Y-129450000D02*
X64250000Y-129200000D01*
X70300000Y-117650000D02*
X70300000Y-94000000D01*
X64250000Y-123700000D02*
X70300000Y-117650000D01*
X71675000Y-92625000D02*
X72500000Y-92625000D01*
X70300000Y-94000000D02*
X71675000Y-92625000D01*
X64250000Y-129200000D02*
X64250000Y-123700000D01*
X64000000Y-131640000D02*
X64000000Y-129450000D01*
X72500000Y-116275000D02*
X72500000Y-106375000D01*
X64600000Y-131640000D02*
X64600000Y-124175000D01*
X64600000Y-124175000D02*
X72500000Y-116275000D01*
X65200000Y-124125000D02*
X76625000Y-112700000D01*
X65200000Y-131640000D02*
X65200000Y-124125000D01*
X76625000Y-112700000D02*
X76625000Y-106375000D01*
X78000000Y-109125000D02*
X78000000Y-103625000D01*
X65800000Y-124075000D02*
X78000000Y-111875000D01*
X78000000Y-111875000D02*
X78000000Y-109125000D01*
X65800000Y-131640000D02*
X65800000Y-124075000D01*
X66400000Y-131640000D02*
X66400000Y-124025000D01*
X66400000Y-124025000D02*
X79375000Y-111050000D01*
X79375000Y-111050000D02*
X79375000Y-106375000D01*
X79925000Y-92075000D02*
X82125000Y-89875000D01*
X67000000Y-131640000D02*
X67000000Y-124250000D01*
X79925000Y-111325000D02*
X79925000Y-92075000D01*
D23*
X82125000Y-89875000D02*
X82125000Y-90062000D01*
D22*
X67000000Y-124250000D02*
X79925000Y-111325000D01*
X80200000Y-94550000D02*
X82125000Y-92625000D01*
X67600000Y-131640000D02*
X67600000Y-124200000D01*
X67600000Y-124200000D02*
X80200000Y-111600000D01*
X80200000Y-111600000D02*
X80200000Y-94550000D01*
X80475000Y-111875000D02*
X80475000Y-97025000D01*
X80475000Y-97025000D02*
X82125000Y-95375000D01*
X68200000Y-131640000D02*
X68200000Y-124150000D01*
X68200000Y-124150000D02*
X80475000Y-111875000D01*
X80750000Y-112150000D02*
X80750000Y-99500000D01*
X68800000Y-126725000D02*
X68800000Y-126025000D01*
X68800000Y-124100000D02*
X80750000Y-112150000D01*
X68800000Y-126725000D02*
X68800000Y-124100000D01*
X68800000Y-131640000D02*
X68800000Y-126725000D01*
X80750000Y-99500000D02*
X82125000Y-98125000D01*
X69400000Y-124050000D02*
X81025000Y-112425000D01*
X69400000Y-131640000D02*
X69400000Y-124050000D01*
X81025000Y-111050000D02*
X81025000Y-101975000D01*
X81025000Y-111325000D02*
X81025000Y-111050000D01*
X82125000Y-100875000D02*
X82125000Y-100967494D01*
X81025000Y-112425000D02*
X81025000Y-111050000D01*
X81025000Y-101975000D02*
X82125000Y-100875000D01*
X70000000Y-124000000D02*
X81300000Y-112700000D01*
X81300000Y-112700000D02*
X81300000Y-104450000D01*
X81300000Y-104450000D02*
X82125000Y-103625000D01*
X70000000Y-131640000D02*
X70000000Y-124000000D01*
X81575000Y-106925000D02*
X82125000Y-106375000D01*
X70600000Y-123950000D02*
X81575000Y-112975000D01*
X70600000Y-131640000D02*
X70600000Y-123950000D01*
X81575000Y-112975000D02*
X81575000Y-106925000D01*
X82125000Y-112975000D02*
X82125000Y-111325000D01*
X82125000Y-111325000D02*
X82125000Y-109125000D01*
X71200000Y-123900000D02*
X82125000Y-112975000D01*
X71200000Y-131640000D02*
X71200000Y-123900000D01*
X82675000Y-113250000D02*
X82675000Y-92075000D01*
X71800000Y-124125000D02*
X82675000Y-113250000D01*
X84875000Y-89875000D02*
X82675000Y-92075000D01*
X71800000Y-131640000D02*
X71800000Y-124125000D01*
X82950000Y-113525000D02*
X82950000Y-110775000D01*
X82950000Y-111050000D02*
X82950000Y-110775000D01*
X72400000Y-131640000D02*
X72400000Y-124075000D01*
X84875000Y-92625000D02*
X82950000Y-94550000D01*
X82950000Y-110775000D02*
X82950000Y-94550000D01*
X72400000Y-124075000D02*
X82950000Y-113525000D01*
X83225000Y-113800000D02*
X83225000Y-110775000D01*
X73000000Y-131640000D02*
X73000000Y-124025000D01*
X84875000Y-95375000D02*
X83225000Y-97025000D01*
X83225000Y-111050000D02*
X83225000Y-110775000D01*
X73000000Y-124025000D02*
X83225000Y-113800000D01*
X83225000Y-110775000D02*
X83225000Y-97025000D01*
X83500000Y-114075000D02*
X83500000Y-110775000D01*
X73600000Y-123975000D02*
X83500000Y-114075000D01*
X83500000Y-99500000D02*
X84875000Y-98125000D01*
X83500000Y-110775000D02*
X83500000Y-99500000D01*
X73600000Y-131640000D02*
X73600000Y-123975000D01*
X83500000Y-111325000D02*
X83500000Y-110775000D01*
X74200000Y-131640000D02*
X74200000Y-123925000D01*
X83775000Y-111325000D02*
X83775000Y-101975000D01*
X83775000Y-101975000D02*
X84875000Y-100875000D01*
X74200000Y-123925000D02*
X83775000Y-114350000D01*
X83775000Y-114350000D02*
X83775000Y-111050000D01*
X74800000Y-123875000D02*
X84050000Y-114625000D01*
X84050000Y-104450000D02*
X84875000Y-103625000D01*
X84050000Y-111325000D02*
X84050000Y-104450000D01*
X74800000Y-131640000D02*
X74800000Y-124150000D01*
X74800000Y-124150000D02*
X74800000Y-123875000D01*
X84050000Y-114625000D02*
X84050000Y-111050000D01*
X84325000Y-106925000D02*
X84875000Y-106375000D01*
X75400000Y-131640000D02*
X75400000Y-123825000D01*
X75400000Y-123825000D02*
X84325000Y-114900000D01*
X84325000Y-111325000D02*
X84325000Y-111050000D01*
X84325000Y-111050000D02*
X84325000Y-106925000D01*
X84325000Y-114900000D02*
X84325000Y-111050000D01*
X84875000Y-111050000D02*
X84875000Y-109125000D01*
X84875000Y-111325000D02*
X84875000Y-111050000D01*
X76000000Y-123775000D02*
X84875000Y-114900000D01*
X84875000Y-114900000D02*
X84875000Y-111050000D01*
X76000000Y-131640000D02*
X76000000Y-123775000D01*
X82000000Y-125555000D02*
X82030000Y-125585000D01*
X88450000Y-110775000D02*
X88450000Y-117375000D01*
X91090000Y-91895000D02*
X91090000Y-94415000D01*
X91350000Y-95915000D02*
X91350000Y-95935000D01*
X82020000Y-125645000D02*
X82030000Y-125655000D01*
X76620000Y-125685000D02*
X76610000Y-125675000D01*
X91350000Y-95935000D02*
X90030000Y-97255000D01*
X88450000Y-117375000D02*
X82000000Y-123825000D01*
X88450000Y-98435000D02*
X88450000Y-110775000D01*
X89060000Y-89875000D02*
X90150000Y-90965000D01*
X88450000Y-98225000D02*
X89420000Y-97255000D01*
X90150000Y-90965000D02*
X90160000Y-90965000D01*
X87625000Y-89875000D02*
X87625000Y-90080000D01*
X76600000Y-131490000D02*
X76600000Y-125835000D01*
X89420000Y-97255000D02*
X89540000Y-97255000D01*
X82000000Y-123825000D02*
X82000000Y-125555000D01*
X91090000Y-94415000D02*
X91350000Y-94675000D01*
X87625000Y-89875000D02*
X89060000Y-89875000D01*
X88450000Y-111050000D02*
X88450000Y-110775000D01*
X89540000Y-97255000D02*
X89530000Y-97255000D01*
X91350000Y-94675000D02*
X91350000Y-95915000D01*
X88450000Y-98435000D02*
X88450000Y-98225000D01*
X90030000Y-97255000D02*
X89540000Y-97255000D01*
X90160000Y-90965000D02*
X91090000Y-91895000D01*
X76620000Y-124865000D02*
X76610000Y-124875000D01*
X77780000Y-131470000D02*
X77800000Y-131490000D01*
X86320000Y-96665000D02*
X85840000Y-96665000D01*
X86770000Y-96665000D02*
X86320000Y-96665000D01*
X77780000Y-125025000D02*
X77780000Y-131470000D01*
X86320000Y-96665000D02*
X86300000Y-96665000D01*
X87625000Y-95375000D02*
X87625000Y-95810000D01*
X85425000Y-97080000D02*
X85425000Y-115175000D01*
X76610000Y-124010000D02*
X76600000Y-124000000D01*
X85840000Y-96665000D02*
X85425000Y-97080000D01*
X87625000Y-95810000D02*
X86770000Y-96665000D01*
X86320000Y-96665000D02*
X86310000Y-96665000D01*
X76610000Y-124825000D02*
X76610000Y-124010000D01*
X85425000Y-115175000D02*
X76600000Y-124000000D01*
X86250000Y-111050000D02*
X86250000Y-110500000D01*
X86250000Y-116000000D02*
X86250000Y-110500000D01*
X78400000Y-131640000D02*
X78400000Y-123850000D01*
X86250000Y-99500000D02*
X87625000Y-98125000D01*
X86250000Y-110500000D02*
X86250000Y-99500000D01*
X78400000Y-123850000D02*
X86250000Y-116000000D01*
X79000000Y-123800000D02*
X86525000Y-116275000D01*
X79000000Y-131640000D02*
X79000000Y-123800000D01*
X86525000Y-116275000D02*
X86525000Y-110500000D01*
X86525000Y-110500000D02*
X86525000Y-101975000D01*
X86525000Y-111050000D02*
X86525000Y-110500000D01*
X86525000Y-101975000D02*
X87625000Y-100875000D01*
X86800000Y-116550000D02*
X86800000Y-110500000D01*
X86800000Y-104450000D02*
X87625000Y-103625000D01*
X79600000Y-123750000D02*
X86800000Y-116550000D01*
X86800000Y-111050000D02*
X86800000Y-110775000D01*
X79600000Y-131640000D02*
X79600000Y-123750000D01*
X86800000Y-110500000D02*
X86800000Y-110775000D01*
X86800000Y-110775000D02*
X86800000Y-104450000D01*
X87075000Y-116825000D02*
X87075000Y-110775000D01*
X87075000Y-106925000D02*
X87625000Y-106375000D01*
X87075000Y-110775000D02*
X87075000Y-106925000D01*
X80200000Y-131640000D02*
X80200000Y-123700000D01*
X87075000Y-111050000D02*
X87075000Y-110775000D01*
X80200000Y-123700000D02*
X87075000Y-116825000D01*
X90375000Y-89875000D02*
X90430000Y-89875000D01*
X88720000Y-99065000D02*
X88720000Y-98845000D01*
X90270000Y-97555000D02*
X89710000Y-97555000D01*
X88720000Y-98845000D02*
X88720000Y-98545000D01*
X82600000Y-123775000D02*
X82600000Y-126525000D01*
X82600000Y-123775000D02*
X82620000Y-123705000D01*
X91660000Y-94455000D02*
X91660000Y-95795000D01*
X88725000Y-117650000D02*
X88725000Y-99170000D01*
X88720000Y-99065000D02*
X88720000Y-99205000D01*
X82610000Y-123715000D02*
X82620000Y-123705000D01*
X91410000Y-94205000D02*
X91660000Y-94455000D01*
X88720000Y-98845000D02*
X88720000Y-98685000D01*
X82600000Y-126525000D02*
X82620000Y-126545000D01*
X91660000Y-95795000D02*
X91660000Y-96165000D01*
X81400000Y-131490000D02*
X81400000Y-126555000D01*
X81410000Y-131480000D02*
X81400000Y-131490000D01*
X90375000Y-89875000D02*
X90480000Y-89875000D01*
X91660000Y-96165000D02*
X90270000Y-97555000D01*
X88720000Y-98545000D02*
X89720000Y-97545000D01*
X91410000Y-90855000D02*
X91410000Y-94205000D01*
X81400000Y-126555000D02*
X81410000Y-126545000D01*
X90430000Y-89875000D02*
X91410000Y-90855000D01*
X82620000Y-123705000D02*
X88725000Y-117650000D01*
X88720000Y-99065000D02*
X88720000Y-98735000D01*
X81950000Y-131440000D02*
X82000000Y-131490000D01*
X91060000Y-95005000D02*
X91060000Y-95775000D01*
X90375000Y-92625000D02*
X90375000Y-94320000D01*
X88175000Y-117100000D02*
X81400000Y-123875000D01*
X88175000Y-98060000D02*
X88175000Y-117100000D01*
X91060000Y-95775000D02*
X89920000Y-96915000D01*
X81950000Y-126875000D02*
X81950000Y-126315000D01*
X89410000Y-96915000D02*
X89320000Y-96915000D01*
X81460000Y-125835000D02*
X81430000Y-125795000D01*
X81400000Y-123875000D02*
X81400000Y-125775000D01*
X81950000Y-126875000D02*
X81950000Y-131440000D01*
X81950000Y-126655000D02*
X81950000Y-126875000D01*
X89920000Y-96915000D02*
X89400000Y-96915000D01*
X90375000Y-94320000D02*
X91060000Y-95005000D01*
X89320000Y-96915000D02*
X88175000Y-98060000D01*
X81950000Y-126315000D02*
X81460000Y-125835000D01*
X81400000Y-125775000D02*
X81460000Y-125835000D01*
X90375000Y-95375000D02*
X90375000Y-96020000D01*
X85975000Y-98240000D02*
X86960000Y-97255000D01*
X90375000Y-96040000D02*
X89810000Y-96605000D01*
X86960000Y-97255000D02*
X88530000Y-97255000D01*
X89180000Y-96605000D02*
X88530000Y-97255000D01*
X89310000Y-96605000D02*
X89200000Y-96605000D01*
X89810000Y-96605000D02*
X89310000Y-96605000D01*
X77800000Y-123900000D02*
X85975000Y-115725000D01*
X85975000Y-111050000D02*
X85975000Y-98690000D01*
X82600000Y-127395000D02*
X82630000Y-127365000D01*
X89200000Y-96605000D02*
X89180000Y-96605000D01*
X82600000Y-131490000D02*
X82600000Y-127395000D01*
X90375000Y-96020000D02*
X90375000Y-96040000D01*
X85975000Y-115725000D02*
X85975000Y-110775000D01*
X85975000Y-98690000D02*
X85975000Y-98240000D01*
X83200000Y-131640000D02*
X83200000Y-123725000D01*
X89000000Y-111050000D02*
X89000000Y-110775000D01*
X89000000Y-99500000D02*
X90375000Y-98125000D01*
X89000000Y-110775000D02*
X89000000Y-99500000D01*
X89000000Y-117925000D02*
X89000000Y-110775000D01*
X83200000Y-123725000D02*
X89000000Y-117925000D01*
X89275000Y-101975000D02*
X90375000Y-100875000D01*
X83800000Y-131640000D02*
X83800000Y-123675000D01*
X89275000Y-118200000D02*
X89275000Y-101975000D01*
X83800000Y-123675000D02*
X89275000Y-118200000D01*
X84400000Y-123625000D02*
X89550000Y-118475000D01*
X89550000Y-118475000D02*
X89550000Y-111050000D01*
X89550000Y-104450000D02*
X90375000Y-103625000D01*
X84400000Y-131640000D02*
X84400000Y-123625000D01*
X89550000Y-111050000D02*
X89550000Y-104450000D01*
X89825000Y-106925000D02*
X90375000Y-106375000D01*
X89825000Y-118750000D02*
X89825000Y-106925000D01*
X85000000Y-123575000D02*
X89825000Y-118750000D01*
X85000000Y-131640000D02*
X85000000Y-123575000D01*
X85600000Y-123525000D02*
X90375000Y-118750000D01*
X85600000Y-131640000D02*
X85600000Y-123525000D01*
X90375000Y-111050000D02*
X90375000Y-109125000D01*
X90375000Y-118750000D02*
X90375000Y-111050000D01*
X90925000Y-99540000D02*
X90925000Y-98240000D01*
X90925000Y-111050000D02*
X90925000Y-110775000D01*
X92020000Y-97145000D02*
X92020000Y-91095000D01*
X92020000Y-91095000D02*
X93125000Y-89990000D01*
X90925000Y-98240000D02*
X92020000Y-97145000D01*
X90925000Y-119025000D02*
X90925000Y-110775000D01*
X93125000Y-89990000D02*
X93125000Y-89875000D01*
X90925000Y-99540000D02*
X90925000Y-99470000D01*
X86200000Y-123750000D02*
X90925000Y-119025000D01*
X90925000Y-110775000D02*
X90925000Y-99540000D01*
X86200000Y-131640000D02*
X86200000Y-123750000D01*
X93010000Y-92625000D02*
X93125000Y-92625000D01*
X86800000Y-131640000D02*
X86800000Y-123700000D01*
X86800000Y-123700000D02*
X91200000Y-119300000D01*
X92380000Y-93255000D02*
X93010000Y-92625000D01*
X91200000Y-119300000D02*
X91200000Y-98445000D01*
X92380000Y-97265000D02*
X92380000Y-93255000D01*
X91200000Y-98445000D02*
X92380000Y-97265000D01*
X87400000Y-123650000D02*
X91475000Y-119575000D01*
X91475000Y-111050000D02*
X91475000Y-110775000D01*
X87400000Y-131640000D02*
X87400000Y-123650000D01*
X93125000Y-96960000D02*
X91480000Y-98605000D01*
X91475000Y-119575000D02*
X91475000Y-110775000D01*
X91475000Y-110775000D02*
X91480000Y-98605000D01*
X93125000Y-95375000D02*
X93125000Y-96960000D01*
X91750000Y-99500000D02*
X93125000Y-98125000D01*
X88000000Y-123600000D02*
X91750000Y-119850000D01*
X91750000Y-110775000D02*
X91750000Y-99500000D01*
X88000000Y-131640000D02*
X88000000Y-123600000D01*
X91750000Y-111050000D02*
X91750000Y-110775000D01*
X91750000Y-119850000D02*
X91750000Y-110775000D01*
X92025000Y-111050000D02*
X92025000Y-101975000D01*
X88600000Y-131640000D02*
X88600000Y-123550000D01*
X92025000Y-120125000D02*
X92025000Y-111050000D01*
X88600000Y-123550000D02*
X92025000Y-120125000D01*
X92025000Y-101975000D02*
X93125000Y-100875000D01*
X92300000Y-110775000D02*
X92300000Y-104450000D01*
X92300000Y-120400000D02*
X92300000Y-110775000D01*
X89200000Y-131640000D02*
X89200000Y-123500000D01*
X89200000Y-123500000D02*
X92300000Y-120400000D01*
X92300000Y-104450000D02*
X93125000Y-103625000D01*
X89800000Y-123450000D02*
X92575000Y-120675000D01*
X89800000Y-131640000D02*
X89800000Y-123450000D01*
X92575000Y-120675000D02*
X92575000Y-106925000D01*
X92575000Y-106925000D02*
X93125000Y-106375000D01*
X91000000Y-123625000D02*
X93675000Y-120950000D01*
X93675000Y-111050000D02*
X93675000Y-110775000D01*
X93675000Y-92075000D02*
X95875000Y-89875000D01*
X91000000Y-131640000D02*
X91000000Y-123625000D01*
X93675000Y-120950000D02*
X93675000Y-110775000D01*
X93675000Y-110775000D02*
X93675000Y-92075000D01*
X93950000Y-110775000D02*
X93950000Y-94550000D01*
X93950000Y-121225000D02*
X93950000Y-110775000D01*
X91600000Y-123575000D02*
X93950000Y-121225000D01*
X93950000Y-94550000D02*
X95875000Y-92625000D01*
X93950000Y-111050000D02*
X93950000Y-110775000D01*
X91600000Y-131640000D02*
X91600000Y-123575000D01*
X94225000Y-111050000D02*
X94225000Y-110775000D01*
X92200000Y-123525000D02*
X94225000Y-121500000D01*
X94225000Y-110775000D02*
X94225000Y-97025000D01*
X94225000Y-121500000D02*
X94225000Y-110775000D01*
X92200000Y-131640000D02*
X92200000Y-123525000D01*
X94225000Y-97025000D02*
X95875000Y-95375000D01*
X94500000Y-121775000D02*
X94500000Y-99500000D01*
X92800000Y-131640000D02*
X92800000Y-123475000D01*
X94500000Y-99500000D02*
X95875000Y-98125000D01*
X92800000Y-123475000D02*
X94500000Y-121775000D01*
X94775000Y-101975000D02*
X95875000Y-100875000D01*
X93400000Y-123425000D02*
X94775000Y-122050000D01*
X94775000Y-122050000D02*
X94775000Y-110775000D01*
X93400000Y-131640000D02*
X93400000Y-123425000D01*
X94775000Y-110775000D02*
X94775000Y-101975000D01*
X94775000Y-111050000D02*
X94775000Y-110775000D01*
X94000000Y-131640000D02*
X94000000Y-123375000D01*
X95050000Y-104450000D02*
X95875000Y-103625000D01*
X94000000Y-123375000D02*
X95050000Y-122325000D01*
X95050000Y-122325000D02*
X95050000Y-104450000D01*
X95325000Y-122600000D02*
X95325000Y-110775000D01*
X95325000Y-110775000D02*
X95325000Y-106925000D01*
X94600000Y-131640000D02*
X94600000Y-123325000D01*
X95325000Y-106925000D02*
X95875000Y-106375000D01*
X94600000Y-123325000D02*
X95325000Y-122600000D01*
X95200000Y-131640000D02*
X95200000Y-123275000D01*
X95200000Y-123275000D02*
X95875000Y-122600000D01*
X95875000Y-122600000D02*
X95875000Y-110775000D01*
X95875000Y-111050000D02*
X95875000Y-110775000D01*
X95875000Y-110775000D02*
X95875000Y-109125000D01*
X99450000Y-98235000D02*
X100420000Y-97265000D01*
X102090000Y-94425000D02*
X102350000Y-94685000D01*
X98625000Y-89885000D02*
X100060000Y-89885000D01*
X102090000Y-91905000D02*
X102090000Y-94425000D01*
X100060000Y-89885000D02*
X101150000Y-90975000D01*
X102350000Y-94685000D02*
X102350000Y-95925000D01*
X100540000Y-97265000D02*
X100530000Y-97265000D01*
X101150000Y-90975000D02*
X101160000Y-90975000D01*
X98625000Y-89885000D02*
X98625000Y-90090000D01*
X100420000Y-97265000D02*
X100540000Y-97265000D01*
X102350000Y-95925000D02*
X102350000Y-95945000D01*
X101030000Y-97265000D02*
X100540000Y-97265000D01*
X102350000Y-95945000D02*
X101030000Y-97265000D01*
X101160000Y-90975000D02*
X102090000Y-91905000D01*
X99450000Y-98385000D02*
X99450000Y-123845000D01*
X99450000Y-124251800D02*
X99695200Y-124497000D01*
X99450000Y-123980200D02*
X99450000Y-124251800D01*
X95800000Y-127764600D02*
X95732800Y-127697400D01*
X99450000Y-123980200D02*
X99450000Y-124185000D01*
X95800000Y-131490000D02*
X95800000Y-127764600D01*
X99450000Y-98445000D02*
X99450000Y-98385000D01*
X99450000Y-123845000D02*
X99450000Y-123980200D01*
X99450000Y-123845000D02*
X99450000Y-123985000D01*
X99450000Y-98385000D02*
X99450000Y-98235000D01*
X96300000Y-123550000D02*
X96300000Y-124755000D01*
X96110000Y-126325000D02*
X96300000Y-126515000D01*
X96700000Y-123150000D02*
X96300000Y-123550000D01*
X96400000Y-127965000D02*
X96400000Y-131490000D01*
X96300000Y-127865000D02*
X96400000Y-127965000D01*
X96300000Y-126515000D02*
X96300000Y-127865000D01*
X96300000Y-124755000D02*
X96110000Y-124945000D01*
X97740000Y-96955000D02*
X97490000Y-96955000D01*
X98625000Y-92635000D02*
X98650000Y-92635000D01*
X97490000Y-96955000D02*
X96700000Y-97745000D01*
X96110000Y-124945000D02*
X96110000Y-126325000D01*
X96700000Y-97745000D02*
X96700000Y-123150000D01*
X97770000Y-96675000D02*
X97320000Y-96675000D01*
X97320000Y-96675000D02*
X96840000Y-96675000D01*
X97320000Y-96675000D02*
X97310000Y-96675000D01*
X96840000Y-96675000D02*
X96425000Y-97090000D01*
X97320000Y-96675000D02*
X97300000Y-96675000D01*
X98625000Y-95385000D02*
X98625000Y-95820000D01*
X98625000Y-95820000D02*
X97770000Y-96675000D01*
X96425000Y-97090000D02*
X96425000Y-110770000D01*
X96425000Y-110775000D02*
X96425000Y-111325000D01*
X96820000Y-126295000D02*
X96700000Y-126175000D01*
X96820000Y-127195000D02*
X96820000Y-127413000D01*
X96820000Y-126865000D02*
X96800000Y-126845000D01*
X96820000Y-126865000D02*
X96820000Y-126295000D01*
X97000000Y-127985000D02*
X97000000Y-131490000D01*
X95760000Y-126835000D02*
X95760000Y-123540000D01*
X96820000Y-127413000D02*
X96820000Y-127805000D01*
X96820000Y-127413000D02*
X96820000Y-126865000D01*
X96820000Y-127805000D02*
X97000000Y-127985000D01*
X96425000Y-122875000D02*
X96425000Y-110775000D01*
X95760000Y-123540000D02*
X96425000Y-122875000D01*
X97260010Y-126450000D02*
X97260010Y-111335010D01*
X97260010Y-127485010D02*
X97260010Y-126450000D01*
X97260010Y-127485010D02*
X97600000Y-127825000D01*
X97250000Y-99500000D02*
X97250000Y-110775000D01*
X97600000Y-127825000D02*
X97600000Y-131640000D01*
X97260010Y-111335010D02*
X97260010Y-110785010D01*
X97250000Y-99500000D02*
X98625000Y-98125000D01*
X97525000Y-126875000D02*
X98200000Y-127550000D01*
X98625000Y-100875000D02*
X97525000Y-101975000D01*
X97525000Y-101975000D02*
X97525000Y-126875000D01*
X98200000Y-127550000D02*
X98200000Y-131640000D01*
X97800000Y-126175000D02*
X98625000Y-127000000D01*
X98625000Y-103625000D02*
X97800000Y-104450000D01*
X97800000Y-104450000D02*
X97800000Y-126175000D01*
X99175000Y-127550000D02*
X98625000Y-127000000D01*
X100000000Y-127550000D02*
X99175000Y-127550000D01*
X98875200Y-126725000D02*
X98075000Y-125924800D01*
X98075000Y-125924800D02*
X98075000Y-110775000D01*
X98075000Y-110775000D02*
X98075000Y-106925000D01*
X98075000Y-106925000D02*
X98625000Y-106375000D01*
X98075000Y-111050000D02*
X98075000Y-110775000D01*
X100457200Y-126725000D02*
X98875200Y-126725000D01*
X98625000Y-123731600D02*
X98628400Y-123735000D01*
X98625000Y-110775000D02*
X98625000Y-123579200D01*
X98625000Y-111050000D02*
X98625000Y-110775000D01*
X98625000Y-110775000D02*
X98625000Y-109125000D01*
X98625000Y-123579200D02*
X98625000Y-123731600D01*
X85700000Y-111050000D02*
X85700000Y-110775000D01*
X85700000Y-97735000D02*
X86490000Y-96945000D01*
X87625000Y-92625000D02*
X87650000Y-92625000D01*
X86490000Y-96945000D02*
X86740000Y-96945000D01*
X85700000Y-115450000D02*
X85700000Y-110775000D01*
X77200000Y-123950000D02*
X77200000Y-131490000D01*
X85700000Y-110775000D02*
X85700000Y-97735000D01*
X77200000Y-123950000D02*
X85700000Y-115450000D01*
X87625000Y-111050000D02*
X87625000Y-109125000D01*
X80800000Y-131640000D02*
X80800000Y-123650000D01*
X80800000Y-123650000D02*
X87625000Y-116825000D01*
X87625000Y-116825000D02*
X87625000Y-110775000D01*
X93125000Y-110775000D02*
X93125000Y-111050000D01*
X90400000Y-131640000D02*
X90400000Y-123400000D01*
X93125000Y-111050000D02*
X93125000Y-109125000D01*
X90400000Y-123400000D02*
X93125000Y-120675000D01*
X93125000Y-120675000D02*
X93125000Y-111050000D01*
X101270000Y-97565000D02*
X100710000Y-97565000D01*
X99720000Y-98555000D02*
X100720000Y-97555000D01*
X101375000Y-89885000D02*
X101430000Y-89885000D01*
X101375000Y-89885000D02*
X101480000Y-89885000D01*
X102660000Y-96175000D02*
X101270000Y-97565000D01*
X102410000Y-90865000D02*
X102410000Y-94215000D01*
X102660000Y-95805000D02*
X102660000Y-96175000D01*
X102660000Y-94465000D02*
X102660000Y-95805000D01*
X101430000Y-89885000D02*
X102410000Y-90865000D01*
X102410000Y-94215000D02*
X102660000Y-94465000D01*
X99725000Y-110775000D02*
X99725000Y-98550000D01*
X99725000Y-110775000D02*
X99725000Y-123764800D01*
X100304800Y-125167800D02*
X99847600Y-125625000D01*
X99725000Y-111050000D02*
X99725000Y-110775000D01*
X100304800Y-124344600D02*
X100304800Y-125167800D01*
X99725000Y-123764800D02*
X100304800Y-124344600D01*
X100320000Y-96925000D02*
X99175000Y-98070000D01*
X102060000Y-95785000D02*
X100920000Y-96925000D01*
X101375000Y-94330000D02*
X102060000Y-95015000D01*
X101375000Y-92635000D02*
X101375000Y-94330000D01*
X100920000Y-96925000D02*
X100400000Y-96925000D01*
X102060000Y-95015000D02*
X102060000Y-95785000D01*
X100410000Y-96925000D02*
X100320000Y-96925000D01*
X99175000Y-98070000D02*
X99175000Y-123680000D01*
X99250000Y-126173400D02*
X99250000Y-126125000D01*
X98780800Y-124497000D02*
X98750000Y-125625000D01*
X99175000Y-124102800D02*
X98780800Y-124497000D01*
X99250000Y-126125000D02*
X98750000Y-125625000D01*
X99175000Y-123680000D02*
X99175000Y-124102800D01*
X101375000Y-96050000D02*
X100810000Y-96615000D01*
X100310000Y-96615000D02*
X100200000Y-96615000D01*
X101375000Y-96030000D02*
X101375000Y-96050000D01*
X100180000Y-96615000D02*
X99530000Y-97265000D01*
X96975000Y-98250000D02*
X97960000Y-97265000D01*
X100810000Y-96615000D02*
X100310000Y-96615000D01*
X97960000Y-97265000D02*
X99530000Y-97265000D01*
X100200000Y-96615000D02*
X100180000Y-96615000D01*
X101375000Y-95385000D02*
X101375000Y-96030000D01*
X96975000Y-98250000D02*
X96975000Y-111050000D01*
X97000000Y-123995000D02*
X97000000Y-124375000D01*
X97000000Y-111075000D02*
X96975000Y-111050000D01*
X97000000Y-125065000D02*
X96690000Y-125375000D01*
X97000000Y-124375000D02*
X97000000Y-125065000D01*
X97000000Y-111075000D02*
X97000000Y-123995000D01*
X100000000Y-110775000D02*
X100000000Y-123430200D01*
X100000000Y-123430200D02*
X102133600Y-125563800D01*
X99310000Y-128475000D02*
X98800000Y-128985000D01*
X100000000Y-99500000D02*
X101375000Y-98125000D01*
X100440000Y-128475000D02*
X99310000Y-128475000D01*
X100000000Y-110775000D02*
X100000000Y-99500000D01*
X102133600Y-126783000D02*
X100440000Y-128475000D01*
X100000000Y-111050000D02*
X100000000Y-110775000D01*
X102133600Y-125563800D02*
X102133600Y-126783000D01*
X98800000Y-128985000D02*
X98800000Y-131225000D01*
X99400000Y-128995000D02*
X99580000Y-128815000D01*
X100275000Y-123150000D02*
X100275000Y-101975000D01*
X102750000Y-125625000D02*
X100275000Y-123150000D01*
X102750000Y-126725000D02*
X102750000Y-125625000D01*
X100275000Y-101975000D02*
X101375000Y-100875000D01*
X99580000Y-128815000D02*
X100570000Y-128815000D01*
X100570000Y-128815000D02*
X102750000Y-126725000D01*
X99400000Y-131640000D02*
X99400000Y-128995000D01*
X100550000Y-122875000D02*
X103300000Y-125625000D01*
X100550000Y-104450000D02*
X101375000Y-103625000D01*
X100000000Y-130300000D02*
X100000000Y-131640000D01*
X100000000Y-129355000D02*
X100180000Y-129175000D01*
X100180000Y-129175000D02*
X101090000Y-129175000D01*
X100550000Y-110775000D02*
X100550000Y-104450000D01*
X100550000Y-110775000D02*
X100550000Y-122875000D01*
X103300000Y-127000000D02*
X101090000Y-129175000D01*
X103300000Y-125625000D02*
X103300000Y-127000000D01*
X100000000Y-131490000D02*
X100000000Y-129355000D01*
X100550000Y-111050000D02*
X100550000Y-110775000D01*
X101925000Y-98250000D02*
X103020000Y-97155000D01*
X103020000Y-97155000D02*
X103020000Y-91105000D01*
X104125000Y-90000000D02*
X104125000Y-89885000D01*
X103020000Y-91105000D02*
X104125000Y-90000000D01*
X104800000Y-131640000D02*
X104800000Y-125475000D01*
X101925000Y-122600000D02*
X101925000Y-98250000D01*
X104800000Y-125475000D02*
X101925000Y-122600000D01*
X103380000Y-93265000D02*
X104010000Y-92635000D01*
X103380000Y-97275000D02*
X103380000Y-93265000D01*
X102200000Y-98455000D02*
X103380000Y-97275000D01*
X104010000Y-92635000D02*
X104125000Y-92635000D01*
X102200000Y-122325000D02*
X102200000Y-110775000D01*
X105400000Y-131640000D02*
X105400000Y-125525000D01*
X105400000Y-125525000D02*
X102200000Y-122325000D01*
X102200000Y-111050000D02*
X102200000Y-110775000D01*
X102200000Y-98455000D02*
X102200000Y-110775000D01*
X104125000Y-96970000D02*
X102480000Y-98615000D01*
X104125000Y-95385000D02*
X104125000Y-96970000D01*
X106000000Y-125575000D02*
X102475000Y-122050000D01*
X102475000Y-122050000D02*
X102475000Y-111050000D01*
X102475000Y-111325000D02*
X102475000Y-111050000D01*
X106000000Y-131640000D02*
X106000000Y-125575000D01*
X102475000Y-111050000D02*
X102475000Y-98650000D01*
X103025000Y-110775000D02*
X103025000Y-101975000D01*
X103025000Y-121500000D02*
X103025000Y-110775000D01*
X103025000Y-101975000D02*
X104125000Y-100875000D01*
X107200000Y-131640000D02*
X107200000Y-125675000D01*
X107200000Y-125675000D02*
X103025000Y-121500000D01*
X103025000Y-111050000D02*
X103025000Y-110775000D01*
X107800000Y-125725000D02*
X103300000Y-121225000D01*
X107800000Y-131640000D02*
X107800000Y-125725000D01*
X103300000Y-121225000D02*
X103300000Y-104450000D01*
X103300000Y-104450000D02*
X104125000Y-103625000D01*
X104675000Y-92075000D02*
X106875000Y-89875000D01*
X104675000Y-110775000D02*
X104675000Y-92075000D01*
X104675000Y-120675000D02*
X104675000Y-110775000D01*
X109600000Y-131640000D02*
X109600000Y-125600000D01*
X109600000Y-125600000D02*
X104675000Y-120675000D01*
X104675000Y-111050000D02*
X104675000Y-110775000D01*
X110200000Y-125650000D02*
X104950000Y-120400000D01*
X104950000Y-111050000D02*
X104950000Y-94550000D01*
X110200000Y-131640000D02*
X110200000Y-125650000D01*
X104950000Y-120400000D02*
X104950000Y-111050000D01*
X104950000Y-94550000D02*
X106875000Y-92625000D01*
X104950000Y-111325000D02*
X104950000Y-111050000D01*
X105225000Y-111325000D02*
X105225000Y-111050000D01*
X110800000Y-131640000D02*
X110800000Y-125700000D01*
X105225000Y-120125000D02*
X105225000Y-111050000D01*
X105225000Y-97025000D02*
X106875000Y-95375000D01*
X110800000Y-125700000D02*
X105225000Y-120125000D01*
X105225000Y-111050000D02*
X105225000Y-97025000D01*
X111400000Y-125750000D02*
X105500000Y-119850000D01*
X105500000Y-99500000D02*
X106875000Y-98125000D01*
X105500000Y-111325000D02*
X105500000Y-111050000D01*
X105500000Y-119850000D02*
X105500000Y-111050000D01*
X105500000Y-111050000D02*
X105500000Y-99500000D01*
X111400000Y-131640000D02*
X111400000Y-125750000D01*
X105775000Y-111325000D02*
X105775000Y-111050000D01*
X112000000Y-125800000D02*
X105775000Y-119575000D01*
X105775000Y-101975000D02*
X106875000Y-100875000D01*
X112000000Y-131640000D02*
X112000000Y-125800000D01*
X105775000Y-119575000D02*
X105775000Y-111050000D01*
X105775000Y-111050000D02*
X105775000Y-101975000D01*
X106050000Y-119300000D02*
X106050000Y-110775000D01*
X112600000Y-131640000D02*
X112600000Y-125850000D01*
X106050000Y-104450000D02*
X106875000Y-103625000D01*
X112600000Y-125850000D02*
X106050000Y-119300000D01*
X106050000Y-111325000D02*
X106050000Y-104450000D01*
X107425000Y-111600000D02*
X107425000Y-92075000D01*
X107425000Y-118750000D02*
X107425000Y-111050000D01*
X107425000Y-92075000D02*
X109625000Y-89875000D01*
X114400000Y-131640000D02*
X114400000Y-125725000D01*
X114400000Y-125725000D02*
X107425000Y-118750000D01*
X107700000Y-111050000D02*
X107700000Y-110775000D01*
X107700000Y-118475000D02*
X107700000Y-110775000D01*
X107700000Y-94550000D02*
X109625000Y-92625000D01*
X107700000Y-110775000D02*
X107700000Y-94550000D01*
X115000000Y-125775000D02*
X107700000Y-118475000D01*
X115000000Y-131640000D02*
X115000000Y-125775000D01*
X107975000Y-118200000D02*
X107975000Y-97025000D01*
X115600000Y-125825000D02*
X107975000Y-118200000D01*
X115600000Y-131640000D02*
X115600000Y-125825000D01*
X107975000Y-97025000D02*
X109625000Y-95375000D01*
X108250000Y-111050000D02*
X108250000Y-99500000D01*
X108250000Y-117925000D02*
X108250000Y-111050000D01*
X116200000Y-125875000D02*
X108250000Y-117925000D01*
X108250000Y-99500000D02*
X109625000Y-98125000D01*
X116200000Y-131640000D02*
X116200000Y-125875000D01*
X108250000Y-111325000D02*
X108250000Y-111050000D01*
X108525000Y-101975000D02*
X109625000Y-100875000D01*
X116800000Y-125925000D02*
X108525000Y-117650000D01*
X116800000Y-131640000D02*
X116800000Y-125925000D01*
X108525000Y-117650000D02*
X108525000Y-101975000D01*
X108800000Y-104450000D02*
X109625000Y-103625000D01*
X117400000Y-125975000D02*
X108800000Y-117375000D01*
X108800000Y-117375000D02*
X108800000Y-104450000D01*
X117400000Y-131640000D02*
X117400000Y-125975000D01*
X100825000Y-106925000D02*
X101375000Y-106375000D01*
X100600000Y-131490000D02*
X100600000Y-129575000D01*
X101360000Y-129485000D02*
X102475000Y-128375000D01*
X100825000Y-121225000D02*
X100825000Y-106925000D01*
X100600000Y-131640000D02*
X100600000Y-130250000D01*
X102475000Y-128375000D02*
X103575000Y-128375000D01*
X100690000Y-129485000D02*
X101360000Y-129485000D01*
X100600000Y-129575000D02*
X100690000Y-129485000D01*
X100825000Y-122600000D02*
X100825000Y-121225000D01*
X103575000Y-125350000D02*
X100825000Y-122600000D01*
X103575000Y-128375000D02*
X103575000Y-125350000D01*
X101375000Y-110775000D02*
X101375000Y-109125000D01*
X101375000Y-122600000D02*
X101375000Y-109125000D01*
X104200000Y-131640000D02*
X104200000Y-125425000D01*
X104200000Y-125425000D02*
X101375000Y-122600000D01*
X102750000Y-111050000D02*
X102750000Y-110775000D01*
X106600000Y-125625000D02*
X102750000Y-121775000D01*
X102750000Y-110775000D02*
X102750000Y-99500000D01*
X102750000Y-121775000D02*
X102750000Y-110775000D01*
X102750000Y-99500000D02*
X104125000Y-98125000D01*
X106600000Y-131640000D02*
X106600000Y-125625000D01*
X103575000Y-111050000D02*
X103575000Y-110775000D01*
X103575000Y-110775000D02*
X103575000Y-106925000D01*
X103575000Y-120950000D02*
X103575000Y-110775000D01*
X108400000Y-131640000D02*
X108400000Y-125775000D01*
X108400000Y-125775000D02*
X103575000Y-120950000D01*
X103575000Y-106925000D02*
X104125000Y-106375000D01*
X104125000Y-120950000D02*
X104125000Y-111050000D01*
X109000000Y-131640000D02*
X109000000Y-125825000D01*
X104125000Y-111050000D02*
X104125000Y-109125000D01*
X104125000Y-111325000D02*
X104125000Y-111050000D01*
X109000000Y-125825000D02*
X104125000Y-120950000D01*
X106325000Y-110775000D02*
X106325000Y-106925000D01*
X106325000Y-119025000D02*
X106325000Y-110775000D01*
X113200000Y-125900000D02*
X106325000Y-119025000D01*
X106325000Y-111050000D02*
X106325000Y-110775000D01*
X106325000Y-106925000D02*
X106875000Y-106375000D01*
X113200000Y-131640000D02*
X113200000Y-125900000D01*
X106875000Y-111050000D02*
X106875000Y-110775000D01*
X106875000Y-110775000D02*
X106875000Y-119025000D01*
X113800000Y-131640000D02*
X113800000Y-125950000D01*
X106875000Y-110775000D02*
X106875000Y-109125000D01*
X113800000Y-125950000D02*
X106875000Y-119025000D01*
X118000000Y-126025000D02*
X109075000Y-117100000D01*
X118000000Y-131640000D02*
X118000000Y-126025000D01*
X109075000Y-117100000D02*
X109075000Y-111325000D01*
X109075000Y-111325000D02*
X109075000Y-106925000D01*
X109075000Y-106925000D02*
X109625000Y-106375000D01*
X118600000Y-131640000D02*
X118600000Y-126725000D01*
X118600000Y-126725000D02*
X118600000Y-126350000D01*
X109625000Y-117100000D02*
X109625000Y-111050000D01*
X109625000Y-111325000D02*
X109625000Y-111050000D01*
X118600000Y-126075000D02*
X109625000Y-117100000D01*
X109625000Y-111050000D02*
X109625000Y-109125000D01*
X118600000Y-126725000D02*
X118600000Y-126075000D01*
X113200000Y-98225000D02*
X114170000Y-97255000D01*
X115840000Y-94415000D02*
X116100000Y-94675000D01*
X112375000Y-89875000D02*
X113810000Y-89875000D01*
X115840000Y-91895000D02*
X115840000Y-94415000D01*
X113810000Y-89875000D02*
X114900000Y-90965000D01*
X116100000Y-94675000D02*
X116100000Y-95915000D01*
X114290000Y-97255000D02*
X114280000Y-97255000D01*
X113200000Y-98435000D02*
X113200000Y-98225000D01*
X114900000Y-90965000D02*
X114910000Y-90965000D01*
X112375000Y-89875000D02*
X112375000Y-90080000D01*
X114170000Y-97255000D02*
X114290000Y-97255000D01*
X116100000Y-95915000D02*
X116100000Y-95935000D01*
X114780000Y-97255000D02*
X114290000Y-97255000D01*
X116100000Y-95935000D02*
X114780000Y-97255000D01*
X114910000Y-90965000D02*
X115840000Y-91895000D01*
X123100000Y-126505000D02*
X123170000Y-126505000D01*
X123170000Y-126505000D02*
X123650000Y-126025000D01*
X120120000Y-121485000D02*
X113200000Y-114625000D01*
X123650000Y-126025000D02*
X123650000Y-125015000D01*
X123650000Y-125015000D02*
X120120000Y-121485000D01*
X113200000Y-114625000D02*
X113200000Y-114645000D01*
X119200000Y-131490000D02*
X119200000Y-127285000D01*
X113200000Y-114625000D02*
X113200000Y-98445000D01*
X111240000Y-96945000D02*
X111490000Y-96945000D01*
X112375000Y-92625000D02*
X112400000Y-92625000D01*
X110450000Y-110775000D02*
X110450000Y-97705000D01*
X110570000Y-97585000D02*
X111240000Y-96945000D01*
X110450000Y-116550000D02*
X110450000Y-110775000D01*
X119800000Y-125900000D02*
X119800000Y-131490000D01*
X110450000Y-97735000D02*
X110570000Y-97585000D01*
X119800000Y-125900000D02*
X110450000Y-116550000D01*
X110450000Y-111050000D02*
X110450000Y-110775000D01*
X110450000Y-97705000D02*
X110570000Y-97585000D01*
X111520000Y-96665000D02*
X111070000Y-96665000D01*
X111070000Y-96665000D02*
X110590000Y-96665000D01*
X111070000Y-96665000D02*
X111060000Y-96665000D01*
X110590000Y-96665000D02*
X110175000Y-97080000D01*
X111070000Y-96665000D02*
X111050000Y-96665000D01*
X112375000Y-95375000D02*
X112375000Y-95810000D01*
X112375000Y-95810000D02*
X111520000Y-96665000D01*
X119200000Y-125850000D02*
X110175000Y-116825000D01*
X120430000Y-126475000D02*
X120400000Y-126505000D01*
X110175000Y-116825000D02*
X110175000Y-110775000D01*
X119200000Y-125850000D02*
X119200000Y-126415000D01*
X110175000Y-111050000D02*
X110175000Y-110775000D01*
X120400000Y-126505000D02*
X120400000Y-131490000D01*
X110175000Y-110775000D02*
X110175000Y-97070000D01*
X111000000Y-116000000D02*
X111000000Y-110500000D01*
X111000000Y-110500000D02*
X111000000Y-99500000D01*
X120040000Y-124585000D02*
X119585000Y-124585000D01*
X121000000Y-131640000D02*
X121000000Y-125545000D01*
X111000000Y-110775000D02*
X111000000Y-110500000D01*
X119585000Y-124585000D02*
X111000000Y-116000000D01*
X121000000Y-125545000D02*
X120040000Y-124585000D01*
X111000000Y-99500000D02*
X112375000Y-98125000D01*
X121350000Y-128025000D02*
X121580000Y-128255000D01*
X120070000Y-124185000D02*
X121350000Y-125465000D01*
X111275000Y-115770000D02*
X119690000Y-124185000D01*
X111275000Y-111325000D02*
X111275000Y-111050000D01*
X121350000Y-125465000D02*
X121350000Y-128025000D01*
X111275000Y-111050000D02*
X111275000Y-115770000D01*
X111275000Y-111050000D02*
X111275000Y-101975000D01*
X121580000Y-128255000D02*
X121600000Y-131640000D01*
X119690000Y-124185000D02*
X120070000Y-124185000D01*
X111275000Y-101975000D02*
X112375000Y-100875000D01*
X121650000Y-125305000D02*
X121650000Y-127735000D01*
X111550000Y-104450000D02*
X112375000Y-103625000D01*
X120030000Y-123685000D02*
X121650000Y-125305000D01*
X122190000Y-128275000D02*
X122200000Y-131640000D01*
X111550000Y-111325000D02*
X111550000Y-111050000D01*
X121650000Y-127735000D02*
X122190000Y-128275000D01*
X111550000Y-115450000D02*
X119785000Y-123685000D01*
X111550000Y-111050000D02*
X111550000Y-104450000D01*
X119785000Y-123685000D02*
X120030000Y-123685000D01*
X111550000Y-111050000D02*
X111550000Y-115450000D01*
X120300000Y-123385000D02*
X122040000Y-125125000D01*
X122800000Y-131640000D02*
X122800000Y-128285000D01*
X120010000Y-123365000D02*
X120300000Y-123365000D01*
X111825000Y-111050000D02*
X111825000Y-106925000D01*
X111825000Y-115180000D02*
X120010000Y-123365000D01*
X122040000Y-127525000D02*
X122800000Y-128285000D01*
X111825000Y-111050000D02*
X111825000Y-115180000D01*
X120300000Y-123365000D02*
X120300000Y-123385000D01*
X122040000Y-125125000D02*
X122040000Y-127525000D01*
X111825000Y-106925000D02*
X112375000Y-106375000D01*
X111825000Y-111325000D02*
X111825000Y-111050000D01*
X112375000Y-111325000D02*
X112375000Y-111050000D01*
X122400000Y-127285000D02*
X122400000Y-125025000D01*
X123140000Y-128055000D02*
X122400000Y-127285000D01*
X112375000Y-111050000D02*
X112375000Y-109125000D01*
X123400000Y-131640000D02*
X123400000Y-128315000D01*
X112375000Y-115175000D02*
X112375000Y-111050000D01*
X122400000Y-125025000D02*
X119890000Y-122475000D01*
X119675000Y-122475000D02*
X112375000Y-115175000D01*
X119890000Y-122475000D02*
X119675000Y-122475000D01*
X123400000Y-128315000D02*
X123140000Y-128055000D01*
X115020000Y-97555000D02*
X114460000Y-97555000D01*
X113470000Y-98545000D02*
X114470000Y-97545000D01*
X115125000Y-89875000D02*
X115180000Y-89875000D01*
X115125000Y-89875000D02*
X115230000Y-89875000D01*
X116410000Y-96165000D02*
X115020000Y-97555000D01*
X116160000Y-90855000D02*
X116160000Y-94205000D01*
X113470000Y-98845000D02*
X113470000Y-98685000D01*
X116410000Y-95795000D02*
X116410000Y-96165000D01*
X116410000Y-94455000D02*
X116410000Y-95795000D01*
X115180000Y-89875000D02*
X116160000Y-90855000D01*
X113470000Y-98845000D02*
X113470000Y-98545000D01*
X116160000Y-94205000D02*
X116410000Y-94455000D01*
X113475000Y-114330000D02*
X120040000Y-120895000D01*
X113475000Y-114350000D02*
X113475000Y-114160000D01*
X123430000Y-124235000D02*
X123430000Y-124275000D01*
X113475000Y-114160000D02*
X113475000Y-114330000D01*
X123350000Y-124175000D02*
X123430000Y-124235000D01*
X124000000Y-124825000D02*
X123350000Y-124175000D01*
X120040000Y-120895000D02*
X120090000Y-120895000D01*
X113475000Y-114350000D02*
X113475000Y-114450000D01*
X113475000Y-114160000D02*
X113475000Y-110775000D01*
X113475000Y-111050000D02*
X113475000Y-110775000D01*
X120090000Y-120895000D02*
X123350000Y-124175000D01*
X113475000Y-110775000D02*
X113475000Y-98830000D01*
X124000000Y-131490000D02*
X124000000Y-124825000D01*
X114070000Y-96915000D02*
X112925000Y-98060000D01*
X115810000Y-95775000D02*
X114670000Y-96915000D01*
X115125000Y-94320000D02*
X115810000Y-95005000D01*
X115125000Y-92625000D02*
X115125000Y-94320000D01*
X114670000Y-96915000D02*
X114150000Y-96915000D01*
X115810000Y-95005000D02*
X115810000Y-95775000D01*
X114160000Y-96915000D02*
X114070000Y-96915000D01*
X124600000Y-131490000D02*
X124600000Y-126745000D01*
X123080000Y-125695000D02*
X122760000Y-125375000D01*
X122760000Y-124765000D02*
X120070000Y-122075000D01*
X112925000Y-98070000D02*
X112920000Y-98065000D01*
X112924979Y-115189979D02*
X112924979Y-114830021D01*
X112920000Y-98065000D02*
X112920000Y-98055000D01*
X122760000Y-125375000D02*
X122760000Y-124765000D01*
X112925000Y-114900000D02*
X112924979Y-114830021D01*
X112924979Y-114830021D02*
X112920000Y-98055000D01*
X124600000Y-126745000D02*
X124600000Y-125745000D01*
X120070000Y-122075000D02*
X119810000Y-122075000D01*
X119810000Y-122075000D02*
X112924979Y-115189979D01*
X115125000Y-96040000D02*
X114560000Y-96605000D01*
X114060000Y-96605000D02*
X113950000Y-96605000D01*
X115125000Y-96020000D02*
X115125000Y-96040000D01*
X113930000Y-96605000D02*
X113280000Y-97255000D01*
X110725000Y-98240000D02*
X111710000Y-97255000D01*
X110725000Y-98690000D02*
X110725000Y-98240000D01*
X114560000Y-96605000D02*
X114060000Y-96605000D01*
X111710000Y-97255000D02*
X113280000Y-97255000D01*
X113950000Y-96605000D02*
X113930000Y-96605000D01*
X115125000Y-95375000D02*
X115125000Y-96020000D01*
X124670000Y-124895000D02*
X124965000Y-125190000D01*
X110725000Y-116275000D02*
X110725000Y-110775000D01*
X110725000Y-110775000D02*
X110725000Y-98650000D01*
X124965000Y-125190000D02*
X125190000Y-125415000D01*
X125190000Y-125415000D02*
X125190000Y-126355000D01*
X119467500Y-125017500D02*
X110725000Y-116275000D01*
X125190000Y-126355000D02*
X125200000Y-126255000D01*
X125200000Y-131490000D02*
X125190000Y-126355000D01*
X110725000Y-111050000D02*
X110725000Y-110775000D01*
X119467500Y-125017500D02*
X119682500Y-125017500D01*
X124920000Y-125145000D02*
X124965000Y-125190000D01*
X124510000Y-124895000D02*
X124670000Y-124895000D01*
X113750000Y-110775000D02*
X113750000Y-99500000D01*
X125800000Y-131640000D02*
X125790000Y-126285000D01*
X125790000Y-125365000D02*
X125790000Y-126285000D01*
X113750000Y-114075000D02*
X113750000Y-110775000D01*
X123610000Y-123935000D02*
X113750000Y-114075000D01*
X113750000Y-111050000D02*
X113750000Y-110775000D01*
X123610000Y-123935000D02*
X124360000Y-123935000D01*
X113750000Y-99500000D02*
X115125000Y-98125000D01*
X124360000Y-123935000D02*
X125790000Y-125365000D01*
X124490000Y-123605000D02*
X126360000Y-125475000D01*
X114025000Y-111325000D02*
X114025000Y-110775000D01*
X114025000Y-101975000D02*
X115125000Y-100875000D01*
X126360000Y-125475000D02*
X126360000Y-126455000D01*
X123830000Y-123605000D02*
X124490000Y-123605000D01*
X114025000Y-110775000D02*
X114025000Y-101975000D01*
X114025000Y-113800000D02*
X114025000Y-110775000D01*
X123830000Y-123605000D02*
X114025000Y-113800000D01*
X126400000Y-131640000D02*
X126360000Y-126455000D01*
X114300000Y-111600000D02*
X114300000Y-111325000D01*
X114300000Y-111325000D02*
X114300000Y-104450000D01*
X127020000Y-125685000D02*
X127020000Y-126355000D01*
X124610000Y-123275000D02*
X127020000Y-125685000D01*
X127000000Y-131640000D02*
X127020000Y-126355000D01*
X124050000Y-123275000D02*
X114300000Y-113525000D01*
X114300000Y-104450000D02*
X115125000Y-103625000D01*
X124050000Y-123275000D02*
X124610000Y-123275000D01*
X114300000Y-113525000D02*
X114300000Y-111325000D01*
X127600000Y-131640000D02*
X127600000Y-126275000D01*
X124190000Y-122865000D02*
X124670000Y-122865000D01*
X114575000Y-113250000D02*
X114575000Y-106925000D01*
X124190000Y-122865000D02*
X114575000Y-113250000D01*
X124670000Y-122865000D02*
X127600000Y-125795000D01*
X127600000Y-125795000D02*
X127600000Y-131490000D01*
X114575000Y-106925000D02*
X115125000Y-106375000D01*
X115125000Y-112425000D02*
X115125000Y-109125000D01*
X128200000Y-125985000D02*
X124740000Y-122525000D01*
X124740000Y-122525000D02*
X124400000Y-122525000D01*
X115125000Y-113250000D02*
X115125000Y-112425000D01*
X128200000Y-131640000D02*
X128200000Y-125985000D01*
X124400000Y-122525000D02*
X115125000Y-113250000D01*
X115675000Y-98240000D02*
X116770000Y-97145000D01*
X116770000Y-97145000D02*
X116770000Y-91095000D01*
X117875000Y-89990000D02*
X117875000Y-89875000D01*
X116770000Y-91095000D02*
X117875000Y-89990000D01*
X128800000Y-131640000D02*
X128800000Y-126100000D01*
X115675000Y-112975000D02*
X115675000Y-110775000D01*
X115675000Y-111050000D02*
X115675000Y-110775000D01*
X115675000Y-98240000D02*
X115675000Y-110775000D01*
X128800000Y-126100000D02*
X115675000Y-112975000D01*
X117130000Y-93255000D02*
X117760000Y-92625000D01*
X117130000Y-97265000D02*
X117130000Y-93255000D01*
X115950000Y-98445000D02*
X117130000Y-97265000D01*
X117760000Y-92625000D02*
X117875000Y-92625000D01*
X129400000Y-126150000D02*
X115950000Y-112700000D01*
X115950000Y-111325000D02*
X115950000Y-98445000D01*
X115950000Y-111600000D02*
X115950000Y-111325000D01*
X129400000Y-131640000D02*
X129400000Y-126150000D01*
X115950000Y-112700000D02*
X115950000Y-111325000D01*
X117875000Y-96960000D02*
X116230000Y-98605000D01*
X117875000Y-95375000D02*
X117875000Y-96960000D01*
X116225000Y-112425000D02*
X116225000Y-111050000D01*
X130000000Y-126200000D02*
X116225000Y-112425000D01*
X116230000Y-98605000D02*
X116230000Y-111075000D01*
X116230000Y-111075000D02*
X116220000Y-111085000D01*
X116225000Y-111325000D02*
X116220000Y-111085000D01*
X130000000Y-131640000D02*
X130000000Y-126200000D01*
X116220000Y-111085000D02*
X116225000Y-111050000D01*
X130600000Y-131640000D02*
X130600000Y-126250000D01*
X116500000Y-111325000D02*
X116500000Y-111050000D01*
X116500000Y-112150000D02*
X116500000Y-111050000D01*
X116500000Y-99500000D02*
X117875000Y-98125000D01*
X116500000Y-111050000D02*
X116500000Y-99500000D01*
X130600000Y-126250000D02*
X116500000Y-112150000D01*
X131800000Y-126350000D02*
X117050000Y-111600000D01*
X117050000Y-111600000D02*
X117050000Y-104450000D01*
X117050000Y-104450000D02*
X117875000Y-103625000D01*
X131800000Y-131640000D02*
X131800000Y-126350000D01*
X117325000Y-111325000D02*
X117325000Y-111050000D01*
X117325000Y-106925000D02*
X117875000Y-106375000D01*
X132400000Y-131640000D02*
X132400000Y-126400000D01*
X117325000Y-111050000D02*
X117325000Y-106925000D01*
X132400000Y-126400000D02*
X117325000Y-111325000D01*
X133000000Y-126450000D02*
X117875000Y-111325000D01*
X117875000Y-111325000D02*
X117875000Y-109125000D01*
X133000000Y-131640000D02*
X133000000Y-126450000D01*
X118425000Y-94825000D02*
X120625000Y-92625000D01*
X133600000Y-131640000D02*
X133600000Y-126225000D01*
X133600000Y-126225000D02*
X118425000Y-111050000D01*
X118425000Y-111050000D02*
X118425000Y-94825000D01*
X134200000Y-131640000D02*
X134200000Y-126725000D01*
X118700000Y-110775000D02*
X118700000Y-109950000D01*
X118700000Y-109950000D02*
X118700000Y-98675000D01*
X134200000Y-126275000D02*
X118700000Y-110775000D01*
X134200000Y-126725000D02*
X134200000Y-126275000D01*
X122000000Y-95375000D02*
X122000000Y-89875000D01*
X118700000Y-110500000D02*
X118700000Y-109950000D01*
X118700000Y-98675000D02*
X122000000Y-95375000D01*
X118975000Y-110500000D02*
X118975000Y-100600000D01*
X134800000Y-131640000D02*
X134800000Y-126325000D01*
X118975000Y-100600000D02*
X123375000Y-96200000D01*
X134800000Y-126325000D02*
X118975000Y-110500000D01*
X123375000Y-96200000D02*
X123375000Y-92625000D01*
X135400000Y-126375000D02*
X119250000Y-110225000D01*
X119250000Y-110225000D02*
X119250000Y-102525000D01*
X125850000Y-94275000D02*
X127500000Y-92625000D01*
X125850000Y-95925000D02*
X125850000Y-94275000D01*
X135400000Y-131640000D02*
X135400000Y-126375000D01*
X119250000Y-102525000D02*
X125850000Y-95925000D01*
X119525000Y-102800000D02*
X120625000Y-101700000D01*
X127500000Y-104450000D02*
X127500000Y-106375000D01*
X124750000Y-101700000D02*
X127500000Y-104450000D01*
X135750000Y-129475000D02*
X135750000Y-126175000D01*
X136000000Y-129725000D02*
X135750000Y-129475000D01*
X136000000Y-131640000D02*
X136000000Y-129725000D01*
X120625000Y-101700000D02*
X124750000Y-101700000D01*
X135750000Y-126175000D02*
X119525000Y-109950000D01*
X119525000Y-109950000D02*
X119525000Y-102800000D01*
X136300000Y-126175000D02*
X133825000Y-123700000D01*
X122825000Y-102284999D02*
X123375000Y-102834999D01*
X136600000Y-129500000D02*
X136300000Y-129200000D01*
X119800000Y-103350000D02*
X120865001Y-102284999D01*
X123375000Y-102834999D02*
X123375000Y-106375000D01*
X136600000Y-129750000D02*
X136600000Y-129500000D01*
X136600000Y-131640000D02*
X136600000Y-129750000D01*
X120865001Y-102284999D02*
X122825000Y-102284999D01*
X133825000Y-123700000D02*
X119800000Y-109675000D01*
X119800000Y-109675000D02*
X119800000Y-103350000D01*
X136300000Y-129200000D02*
X136300000Y-126175000D01*
X137200000Y-129475000D02*
X137200000Y-129275000D01*
X120075000Y-104725000D02*
X121175000Y-103625000D01*
X121175000Y-103625000D02*
X122000000Y-103625000D01*
X136850000Y-128925000D02*
X136850000Y-126175000D01*
X120075000Y-109400000D02*
X120075000Y-104725000D01*
X137200000Y-131640000D02*
X137200000Y-129475000D01*
X137200000Y-129275000D02*
X136850000Y-128925000D01*
X122000000Y-103625000D02*
X122000000Y-109125000D01*
X120075000Y-109400000D02*
X136850000Y-126175000D01*
X137400000Y-126175000D02*
X120625000Y-109400000D01*
X137800000Y-131640000D02*
X137800000Y-129050000D01*
X120625000Y-109400000D02*
X120625000Y-106375000D01*
X137400000Y-128650000D02*
X137400000Y-126175000D01*
X137800000Y-129050000D02*
X137400000Y-128650000D01*
X116775000Y-111325000D02*
X116775000Y-101975000D01*
X131200000Y-131640000D02*
X131200000Y-126300000D01*
X116775000Y-101975000D02*
X117875000Y-100875000D01*
X116775000Y-111600000D02*
X116775000Y-111325000D01*
X131200000Y-126300000D02*
X116775000Y-111875000D01*
X116775000Y-111875000D02*
X116775000Y-111325000D01*
D24*
X97005000Y-94000000D02*
X96185000Y-94000000D01*
D23*
X96170000Y-93495000D02*
X96170000Y-93985000D01*
X96170000Y-93985000D02*
X96170000Y-94365000D01*
X96905000Y-92760000D02*
X96170000Y-93495000D01*
X96170000Y-94365000D02*
X96905000Y-95100000D01*
X109920000Y-93985000D02*
X109920000Y-94365000D01*
X109920000Y-94365000D02*
X110655000Y-95100000D01*
X109920000Y-93495000D02*
X109920000Y-93985000D01*
D24*
X110755000Y-94000000D02*
X109935000Y-94000000D01*
D23*
X110655000Y-92760000D02*
X109920000Y-93495000D01*
D22*
X96925000Y-95385000D02*
X96925000Y-94920000D01*
X96925000Y-93030000D02*
X96925000Y-92635000D01*
X96921000Y-92588000D02*
X96921000Y-93423000D01*
D25*
X96921000Y-91335000D02*
X96645000Y-91059000D01*
X96645000Y-91059000D02*
X96645000Y-82804000D01*
D22*
X96921000Y-95338000D02*
X96921000Y-94873000D01*
X96921000Y-92983000D02*
X96921000Y-92588000D01*
D25*
X96921000Y-92588000D02*
X96921000Y-91335000D01*
X110671000Y-92488000D02*
X110671000Y-91235000D01*
X110395000Y-90959000D02*
X110395000Y-82704000D01*
X110671000Y-91235000D02*
X110395000Y-90959000D01*
D26*
X67361000Y-116316000D02*
X67610000Y-116565000D01*
D23*
X96645000Y-82804000D02*
X96645000Y-82153000D01*
X96190000Y-81698000D02*
X87554000Y-81698000D01*
X85925000Y-95100000D02*
X85925000Y-95375000D01*
D25*
X85649000Y-91096000D02*
X85522000Y-83222000D01*
D24*
X86025000Y-94000000D02*
X85205000Y-94000000D01*
D23*
X85190000Y-94365000D02*
X85925000Y-95100000D01*
D25*
X85925000Y-91372000D02*
X85649000Y-91096000D01*
D23*
X84252000Y-82841000D02*
X84125000Y-82841000D01*
D26*
X110287000Y-81698000D02*
X110287000Y-82714000D01*
X66345000Y-82841000D02*
X66091000Y-83095000D01*
X66091000Y-83095000D02*
X66091000Y-114972000D01*
X66091000Y-114972000D02*
X67361000Y-116242000D01*
D23*
X85925000Y-92625000D02*
X85925000Y-92760000D01*
D22*
X85925000Y-93020000D02*
X85925000Y-92625000D01*
D26*
X96190000Y-81825000D02*
X96190000Y-81952000D01*
D23*
X84379000Y-82841000D02*
X85268000Y-82841000D01*
X96645000Y-82153000D02*
X96190000Y-81698000D01*
X85190000Y-93495000D02*
X85190000Y-93985000D01*
D26*
X85268000Y-82841000D02*
X66345000Y-82841000D01*
X67361000Y-116242000D02*
X67361000Y-116316000D01*
X110287000Y-82714000D02*
X110287000Y-87921000D01*
D23*
X85205000Y-94000000D02*
X85190000Y-93985000D01*
D26*
X96190000Y-81952000D02*
X96444000Y-82206000D01*
X85522000Y-83222000D02*
X85522000Y-87921000D01*
D22*
X85925000Y-95375000D02*
X85925000Y-94910000D01*
D23*
X84252000Y-82841000D02*
X67234000Y-82841000D01*
D26*
X85268000Y-82968000D02*
X85522000Y-83222000D01*
X109271000Y-80682000D02*
X110287000Y-81698000D01*
D23*
X85190000Y-93985000D02*
X85190000Y-94365000D01*
D26*
X85268000Y-82841000D02*
X85268000Y-82968000D01*
D23*
X85925000Y-92760000D02*
X85190000Y-93495000D01*
D25*
X85925000Y-92625000D02*
X85925000Y-91372000D01*
D26*
X96190000Y-81825000D02*
X87681000Y-81825000D01*
X96444000Y-82206000D02*
X96444000Y-87667000D01*
X87681000Y-81825000D02*
X87554000Y-81698000D01*
D23*
X84379000Y-82841000D02*
X84252000Y-82841000D01*
D26*
X98730000Y-80682000D02*
X109271000Y-80682000D01*
D23*
X111113000Y-79158000D02*
X111540000Y-79585000D01*
X62662000Y-79158000D02*
X61773000Y-80047000D01*
X91343000Y-79158000D02*
X91745000Y-79158000D01*
X91343000Y-79158000D02*
X111113000Y-79158000D01*
X86792000Y-79158000D02*
X91343000Y-79158000D01*
X86792000Y-79158000D02*
X62662000Y-79158000D01*
X114526000Y-91407000D02*
X114532000Y-91407000D01*
X111538000Y-87276000D02*
X111538000Y-90197000D01*
X111919000Y-90578000D02*
X113697000Y-90578000D01*
X111540000Y-79585000D02*
X111540000Y-87355000D01*
X114071000Y-94163000D02*
X114071000Y-95238000D01*
X114532000Y-91407000D02*
X114550000Y-91425000D01*
X61773000Y-80047000D02*
X61773000Y-114718000D01*
X61773000Y-117766000D02*
X61773000Y-119290000D01*
X61773000Y-117766000D02*
X61773000Y-114718000D01*
X113697000Y-90578000D02*
X114526000Y-91407000D01*
X61773000Y-119290000D02*
X61646000Y-119417000D01*
X111538000Y-90197000D02*
X111919000Y-90578000D01*
X114550000Y-93684000D02*
X114071000Y-94163000D01*
X114550000Y-91425000D02*
X114550000Y-93684000D01*
X61773000Y-114718000D02*
X61773000Y-114845000D01*
X110784000Y-79539000D02*
X111150000Y-79905000D01*
X111157000Y-90324000D02*
X111792000Y-90959000D01*
X62154000Y-80301000D02*
X62916000Y-79539000D01*
X62916000Y-79539000D02*
X110784000Y-79539000D01*
X114071000Y-91460000D02*
X114071000Y-92024000D01*
X111157000Y-87403000D02*
X111157000Y-90324000D01*
X111150000Y-79905000D02*
X111150000Y-87435000D01*
X62154000Y-118020000D02*
X62154000Y-80301000D01*
X62154000Y-118020000D02*
X62154000Y-118909000D01*
X111792000Y-90959000D02*
X113570000Y-90959000D01*
X62662000Y-119417000D02*
X62154000Y-118909000D01*
X113570000Y-90959000D02*
X114071000Y-91460000D01*
D22*
X110766000Y-80526000D02*
X110766000Y-80145000D01*
X90866000Y-79930000D02*
X110551000Y-79930000D01*
X86020000Y-79930000D02*
X86030000Y-79920000D01*
X110766000Y-80145000D02*
X110541000Y-79920000D01*
X110766000Y-80526000D02*
X110766000Y-80448000D01*
X90866000Y-79930000D02*
X91227000Y-79930000D01*
X86167000Y-79930000D02*
X90866000Y-79930000D01*
X86167000Y-79930000D02*
X63033000Y-79930000D01*
X86020000Y-79930000D02*
X86167000Y-79930000D01*
X62535000Y-80428000D02*
X62535000Y-114591000D01*
X63033000Y-79930000D02*
X62535000Y-80428000D01*
X62535000Y-118020000D02*
X62535000Y-114591000D01*
X111825000Y-94000000D02*
X112375000Y-94000000D01*
X62535000Y-118020000D02*
X62535000Y-118147000D01*
X62535000Y-118147000D02*
X62789000Y-118401000D01*
D23*
X97788000Y-81624000D02*
X97788000Y-81391000D01*
X97788000Y-81624000D02*
X97788000Y-80629000D01*
X97788000Y-80629000D02*
X97460000Y-80301000D01*
X91618000Y-80301000D02*
X97206000Y-80301000D01*
X91618000Y-80301000D02*
X91745000Y-80301000D01*
X86792000Y-80301000D02*
X91618000Y-80301000D01*
X97460000Y-80301000D02*
X97206000Y-80301000D01*
X100810000Y-91545000D02*
X100810000Y-93774000D01*
X97788000Y-87487000D02*
X97788000Y-90297000D01*
X100810000Y-93774000D02*
X100321000Y-94263000D01*
X86792000Y-80301000D02*
X63170000Y-80301000D01*
X100321000Y-94263000D02*
X100321000Y-95338000D01*
X97788000Y-87487000D02*
X97788000Y-81624000D01*
X62916000Y-114845000D02*
X62916000Y-115480000D01*
X63551000Y-118274000D02*
X62916000Y-117639000D01*
X63170000Y-80301000D02*
X62916000Y-80555000D01*
X64059000Y-119925000D02*
X63551000Y-119417000D01*
X62916000Y-117385000D02*
X62916000Y-117639000D01*
X62916000Y-117385000D02*
X62916000Y-114845000D01*
X97788000Y-90297000D02*
X98169000Y-90678000D01*
X99947000Y-90678000D02*
X100776000Y-91507000D01*
X97788000Y-87487000D02*
X97788000Y-87376000D01*
X100776000Y-91507000D02*
X100776000Y-91511000D01*
X63551000Y-119417000D02*
X63551000Y-118274000D01*
X100776000Y-91511000D02*
X100810000Y-91545000D01*
X98169000Y-90678000D02*
X99947000Y-90678000D01*
X62916000Y-80555000D02*
X62916000Y-114845000D01*
X99820000Y-91059000D02*
X98042000Y-91059000D01*
X100321000Y-91560000D02*
X99820000Y-91059000D01*
X97407000Y-80883000D02*
X97206000Y-80682000D01*
X97206000Y-80682000D02*
X91618000Y-80682000D01*
X86792000Y-80682000D02*
X91745000Y-80682000D01*
X97407000Y-87503000D02*
X97407000Y-80883000D01*
X63297000Y-117385000D02*
X64059000Y-118147000D01*
X64059000Y-118528000D02*
X64313000Y-118782000D01*
X63551000Y-80682000D02*
X86792000Y-80682000D01*
X63297000Y-80936000D02*
X63551000Y-80682000D01*
X98030000Y-91055000D02*
X97534000Y-90551000D01*
X98042000Y-91059000D02*
X98030000Y-91055000D01*
X63297000Y-116496000D02*
X63297000Y-117385000D01*
X100325000Y-92625000D02*
X100325000Y-91560000D01*
X97407000Y-90432000D02*
X98030000Y-91055000D01*
X64059000Y-118147000D02*
X64059000Y-118528000D01*
X97407000Y-87503000D02*
X97407000Y-90432000D01*
X63297000Y-116496000D02*
X63297000Y-80936000D01*
D22*
X97336000Y-91108000D02*
X97016000Y-90788000D01*
X96835000Y-81073000D02*
X96952000Y-81190000D01*
X90993000Y-81073000D02*
X91227000Y-81073000D01*
X97016000Y-81254000D02*
X96952000Y-81190000D01*
X97016000Y-81635000D02*
X97016000Y-81254000D01*
X90993000Y-81073000D02*
X96835000Y-81073000D01*
X63678000Y-116496000D02*
X63678000Y-117131000D01*
X86147000Y-81073000D02*
X90993000Y-81073000D01*
X86020000Y-81073000D02*
X86147000Y-81073000D01*
X63678000Y-81317000D02*
X63922000Y-81073000D01*
X65202000Y-118655000D02*
X63805000Y-117258000D01*
X63678000Y-117131000D02*
X63805000Y-117258000D01*
X63678000Y-116496000D02*
X63678000Y-81317000D01*
X98075000Y-94000000D02*
X98625000Y-94000000D01*
X63922000Y-81073000D02*
X86147000Y-81073000D01*
D23*
X86411000Y-81444000D02*
X83490000Y-81444000D01*
X86792000Y-81825000D02*
X86411000Y-81444000D01*
X89780000Y-91544000D02*
X88951000Y-90715000D01*
X64059000Y-81698000D02*
X64059000Y-82079000D01*
X89325000Y-95375000D02*
X89325000Y-94300000D01*
X89780000Y-93845000D02*
X89780000Y-91798000D01*
X88951000Y-90715000D02*
X87173000Y-90715000D01*
X89780000Y-91798000D02*
X89780000Y-91544000D01*
X89325000Y-94300000D02*
X89780000Y-93845000D01*
X89780000Y-91798000D02*
X89780000Y-91555000D01*
X83490000Y-81444000D02*
X64694000Y-81444000D01*
X64694000Y-81444000D02*
X64313000Y-81444000D01*
X64059000Y-82079000D02*
X64059000Y-82460000D01*
X64059000Y-82079000D02*
X64059000Y-113067000D01*
X87173000Y-90715000D02*
X86792000Y-90334000D01*
X64059000Y-113067000D02*
X64059000Y-113194000D01*
X64313000Y-81444000D02*
X64059000Y-81698000D01*
X86792000Y-90334000D02*
X86792000Y-81825000D01*
X64694000Y-81444000D02*
X64440000Y-81444000D01*
X64059000Y-116115000D02*
X64059000Y-116496000D01*
X89780000Y-91555000D02*
X89780000Y-91535000D01*
X64059000Y-116496000D02*
X64186000Y-116623000D01*
X65202000Y-117639000D02*
X64186000Y-116623000D01*
X64059000Y-116115000D02*
X64059000Y-113067000D01*
X86157000Y-81825000D02*
X83871000Y-81825000D01*
X86411000Y-82079000D02*
X86157000Y-81825000D01*
X83871000Y-81825000D02*
X64694000Y-81825000D01*
X87046000Y-91096000D02*
X86538000Y-90588000D01*
X64440000Y-115099000D02*
X64440000Y-115861000D01*
X64440000Y-115861000D02*
X64567000Y-115988000D01*
X66345000Y-117766000D02*
X64567000Y-115988000D01*
X64440000Y-115099000D02*
X64440000Y-114337000D01*
X86411000Y-90461000D02*
X86411000Y-87540000D01*
X88824000Y-91096000D02*
X87046000Y-91096000D01*
X64694000Y-81825000D02*
X64440000Y-82079000D01*
X86538000Y-90588000D02*
X86411000Y-90461000D01*
X86411000Y-87540000D02*
X86411000Y-82079000D01*
X89325000Y-92625000D02*
X89325000Y-91597000D01*
X89325000Y-91597000D02*
X88824000Y-91096000D01*
X64440000Y-114337000D02*
X64440000Y-114464000D01*
X64440000Y-82079000D02*
X64440000Y-114337000D01*
D22*
X86020000Y-82216000D02*
X83099000Y-82216000D01*
X66345000Y-116750000D02*
X64948000Y-115353000D01*
X83099000Y-82216000D02*
X65065000Y-82216000D01*
X64821000Y-115226000D02*
X64948000Y-115353000D01*
X86370000Y-91145000D02*
X86340000Y-91145000D01*
X64821000Y-114845000D02*
X64821000Y-115226000D01*
X64821000Y-114845000D02*
X64821000Y-113321000D01*
X65065000Y-82216000D02*
X64821000Y-82460000D01*
X87075000Y-94000000D02*
X87625000Y-94000000D01*
X83099000Y-82216000D02*
X82992000Y-82216000D01*
X86020000Y-90825000D02*
X86020000Y-82216000D01*
X64821000Y-82460000D02*
X64821000Y-113321000D01*
X64821000Y-113321000D02*
X64821000Y-113575000D01*
M02*
