G04 #@! TF.GenerationSoftware,KiCad,Pcbnew,6.0.11-2627ca5db0~126~ubuntu22.04.1*
G04 #@! TF.CreationDate,2023-05-08T08:47:40+02:00*
G04 #@! TF.ProjectId,DIMMCartridge_heaters,44494d4d-4361-4727-9472-696467655f68,rev?*
G04 #@! TF.SameCoordinates,Original*
G04 #@! TF.FileFunction,Soldermask,Top*
G04 #@! TF.FilePolarity,Negative*
%FSLAX46Y46*%
G04 Gerber Fmt 4.6, Leading zero omitted, Abs format (unit mm)*
G04 Created by KiCad (PCBNEW 6.0.11-2627ca5db0~126~ubuntu22.04.1) date 2023-05-08 08:47:40*
%MOMM*%
%LPD*%
G01*
G04 APERTURE LIST*
%ADD10C,0.100000*%
%ADD11C,0.150000*%
%ADD12R,2.270000X2.270000*%
%ADD13C,0.604800*%
%ADD14R,1.500000X2.270000*%
%ADD15R,2.270000X4.000000*%
%ADD16R,5.000000X2.400000*%
%ADD17R,4.000000X8.000000*%
%ADD18R,10.000000X4.000000*%
%ADD19C,1.800000*%
%ADD20R,0.400000X2.300000*%
%ADD21R,2.270000X1.950000*%
G04 APERTURE END LIST*
D10*
G36*
X140220000Y-78545000D02*
G01*
X140510000Y-78655000D01*
X140740000Y-78835000D01*
X140930000Y-79105000D01*
X140990000Y-79545000D01*
X140980000Y-111025000D01*
X140350000Y-111155000D01*
X139840000Y-111405000D01*
X139400000Y-111815000D01*
X139070000Y-112485000D01*
X138980000Y-113245000D01*
X139270000Y-114065000D01*
X140020000Y-114815000D01*
X140670000Y-115005000D01*
X140990000Y-115065000D01*
X141000000Y-120745000D01*
X59000000Y-120745000D01*
X59020000Y-115035000D01*
X59290000Y-115015000D01*
X59860000Y-114845000D01*
X60460000Y-114425000D01*
X60870000Y-113885000D01*
X61000000Y-113185000D01*
X60970000Y-112665000D01*
X60750000Y-112035000D01*
X60160000Y-111405000D01*
X59500000Y-111105000D01*
X59010000Y-111045000D01*
X59010000Y-79465000D01*
X59040000Y-79235000D01*
X59170000Y-78945000D01*
X59390000Y-78715000D01*
X59720000Y-78555000D01*
X59980000Y-78525000D01*
X140220000Y-78545000D01*
G37*
X140220000Y-78545000D02*
X140510000Y-78655000D01*
X140740000Y-78835000D01*
X140930000Y-79105000D01*
X140990000Y-79545000D01*
X140980000Y-111025000D01*
X140350000Y-111155000D01*
X139840000Y-111405000D01*
X139400000Y-111815000D01*
X139070000Y-112485000D01*
X138980000Y-113245000D01*
X139270000Y-114065000D01*
X140020000Y-114815000D01*
X140670000Y-115005000D01*
X140990000Y-115065000D01*
X141000000Y-120745000D01*
X59000000Y-120745000D01*
X59020000Y-115035000D01*
X59290000Y-115015000D01*
X59860000Y-114845000D01*
X60460000Y-114425000D01*
X60870000Y-113885000D01*
X61000000Y-113185000D01*
X60970000Y-112665000D01*
X60750000Y-112035000D01*
X60160000Y-111405000D01*
X59500000Y-111105000D01*
X59010000Y-111045000D01*
X59010000Y-79465000D01*
X59040000Y-79235000D01*
X59170000Y-78945000D01*
X59390000Y-78715000D01*
X59720000Y-78555000D01*
X59980000Y-78525000D01*
X140220000Y-78545000D01*
G36*
X138400000Y-133040000D02*
G01*
X61600000Y-133040000D01*
X61600000Y-130740000D01*
X138400000Y-130740000D01*
X138400000Y-133040000D01*
G37*
D11*
X138400000Y-133040000D02*
X61600000Y-133040000D01*
X61600000Y-130740000D01*
X138400000Y-130740000D01*
X138400000Y-133040000D01*
D12*
X82125000Y-106375000D03*
D13*
X82125000Y-106375000D03*
D12*
X117875000Y-89875000D03*
D13*
X117875000Y-89875000D03*
D12*
X82125000Y-109125000D03*
D13*
X82125000Y-109125000D03*
D14*
X74865000Y-92625000D03*
D12*
X76625000Y-92625000D03*
D13*
X76625000Y-92625000D03*
D14*
X74865000Y-106375000D03*
D12*
X76625000Y-106375000D03*
D13*
X76625000Y-106375000D03*
D14*
X125135000Y-92625000D03*
D12*
X123375000Y-92625000D03*
D13*
X123375000Y-92625000D03*
D14*
X125135000Y-106375000D03*
D12*
X123375000Y-106375000D03*
D13*
X123375000Y-106375000D03*
D12*
X82125000Y-95375000D03*
D13*
X82125000Y-95375000D03*
D12*
X82125000Y-98125000D03*
D13*
X82125000Y-98125000D03*
D12*
X82125000Y-100875000D03*
D13*
X82125000Y-100875000D03*
D12*
X82125000Y-103625000D03*
D13*
X82125000Y-103625000D03*
D12*
X117875000Y-95375000D03*
D13*
X117875000Y-95375000D03*
D12*
X117875000Y-98125000D03*
D13*
X117875000Y-98125000D03*
D12*
X117875000Y-100875000D03*
D13*
X117875000Y-100875000D03*
D12*
X117875000Y-103625000D03*
D13*
X117875000Y-103625000D03*
X104125000Y-89875000D03*
D12*
X104125000Y-89875000D03*
D13*
X104125000Y-109125000D03*
D12*
X104125000Y-109125000D03*
D13*
X106875000Y-89875000D03*
D12*
X106875000Y-89875000D03*
D13*
X106875000Y-109125000D03*
D12*
X106875000Y-109125000D03*
D13*
X109625000Y-89875000D03*
D12*
X109625000Y-89875000D03*
D13*
X109625000Y-109125000D03*
D12*
X109625000Y-109125000D03*
D13*
X112375000Y-89875000D03*
D12*
X112375000Y-89875000D03*
D13*
X112375000Y-109125000D03*
D12*
X112375000Y-109125000D03*
D13*
X115125000Y-89875000D03*
D12*
X115125000Y-89875000D03*
D13*
X115125000Y-109125000D03*
D12*
X115125000Y-109125000D03*
D13*
X84875000Y-89875000D03*
D12*
X84875000Y-89875000D03*
D13*
X84875000Y-109125000D03*
D12*
X84875000Y-109125000D03*
D13*
X87625000Y-89875000D03*
D12*
X87625000Y-89875000D03*
D13*
X87625000Y-109125000D03*
D12*
X87625000Y-109125000D03*
D13*
X90375000Y-89875000D03*
D12*
X90375000Y-89875000D03*
D13*
X90375000Y-109125000D03*
D12*
X90375000Y-109125000D03*
D13*
X93125000Y-89875000D03*
D12*
X93125000Y-89875000D03*
D13*
X93125000Y-109125000D03*
D12*
X93125000Y-109125000D03*
D13*
X95875000Y-89875000D03*
D12*
X95875000Y-89875000D03*
D13*
X95875000Y-109125000D03*
D12*
X95875000Y-109125000D03*
D13*
X98625000Y-89875000D03*
D12*
X98625000Y-89875000D03*
D13*
X98625000Y-109125000D03*
D12*
X98625000Y-109125000D03*
D13*
X101375000Y-89875000D03*
D12*
X101375000Y-89875000D03*
D13*
X101375000Y-109125000D03*
D12*
X101375000Y-109125000D03*
X82125000Y-89875000D03*
D13*
X82125000Y-89875000D03*
D12*
X117875000Y-109125000D03*
D13*
X117875000Y-109125000D03*
D15*
X72500000Y-92625000D03*
D16*
X73890000Y-95440000D03*
X73890000Y-89810000D03*
D17*
X69500000Y-92625000D03*
D13*
X72500000Y-92625000D03*
D15*
X72500000Y-106375000D03*
D16*
X73890000Y-109190000D03*
X73890000Y-103560000D03*
D17*
X69500000Y-106375000D03*
D13*
X72500000Y-106375000D03*
D15*
X127500000Y-92625000D03*
D16*
X126110000Y-89810000D03*
X126110000Y-95440000D03*
D17*
X130500000Y-92625000D03*
D13*
X127500000Y-92625000D03*
D15*
X127500000Y-106375000D03*
D16*
X126110000Y-103560000D03*
X126110000Y-109190000D03*
D17*
X130500000Y-106375000D03*
D13*
X127500000Y-106375000D03*
D12*
X104125000Y-92625000D03*
D13*
X104125000Y-92625000D03*
D12*
X104125000Y-95375000D03*
D13*
X104125000Y-95375000D03*
D12*
X104125000Y-98125000D03*
D13*
X104125000Y-98125000D03*
D12*
X104125000Y-100875000D03*
D13*
X104125000Y-100875000D03*
D12*
X104125000Y-103625000D03*
D13*
X104125000Y-103625000D03*
D12*
X104125000Y-106375000D03*
D13*
X104125000Y-106375000D03*
D12*
X106875000Y-92625000D03*
D13*
X106875000Y-92625000D03*
D12*
X106875000Y-95375000D03*
D13*
X106875000Y-95375000D03*
D12*
X106875000Y-98125000D03*
D13*
X106875000Y-98125000D03*
D12*
X106875000Y-100875000D03*
D13*
X106875000Y-100875000D03*
D12*
X106875000Y-103625000D03*
D13*
X106875000Y-103625000D03*
D12*
X106875000Y-106375000D03*
D13*
X106875000Y-106375000D03*
D12*
X109625000Y-92625000D03*
D13*
X109625000Y-92625000D03*
D12*
X109625000Y-95375000D03*
D13*
X109625000Y-95375000D03*
D12*
X109625000Y-98125000D03*
D13*
X109625000Y-98125000D03*
D12*
X109625000Y-100875000D03*
D13*
X109625000Y-100875000D03*
D12*
X109625000Y-103625000D03*
D13*
X109625000Y-103625000D03*
D12*
X109625000Y-106375000D03*
D13*
X109625000Y-106375000D03*
D12*
X112375000Y-98125000D03*
D13*
X112375000Y-98125000D03*
D12*
X112375000Y-100875000D03*
D13*
X112375000Y-100875000D03*
D12*
X112375000Y-103625000D03*
D13*
X112375000Y-103625000D03*
D12*
X112375000Y-106375000D03*
D13*
X112375000Y-106375000D03*
D12*
X115125000Y-92625000D03*
D13*
X115125000Y-92625000D03*
D12*
X115125000Y-95375000D03*
D13*
X115125000Y-95375000D03*
D12*
X115125000Y-98125000D03*
D13*
X115125000Y-98125000D03*
D12*
X115125000Y-100875000D03*
D13*
X115125000Y-100875000D03*
D12*
X115125000Y-103625000D03*
D13*
X115125000Y-103625000D03*
D12*
X115125000Y-106375000D03*
D13*
X115125000Y-106375000D03*
D12*
X117875000Y-92625000D03*
D13*
X117875000Y-92625000D03*
D12*
X117875000Y-106375000D03*
D13*
X117875000Y-106375000D03*
D12*
X82125000Y-92625000D03*
D13*
X82125000Y-92625000D03*
D12*
X84875000Y-92625000D03*
D13*
X84875000Y-92625000D03*
D12*
X84875000Y-95375000D03*
D13*
X84875000Y-95375000D03*
D12*
X84875000Y-98125000D03*
D13*
X84875000Y-98125000D03*
D12*
X84875000Y-100875000D03*
D13*
X84875000Y-100875000D03*
D12*
X84875000Y-103625000D03*
D13*
X84875000Y-103625000D03*
D12*
X84875000Y-106375000D03*
D13*
X84875000Y-106375000D03*
D12*
X87625000Y-98125000D03*
D13*
X87625000Y-98125000D03*
D12*
X87625000Y-100875000D03*
D13*
X87625000Y-100875000D03*
D12*
X87625000Y-103625000D03*
D13*
X87625000Y-103625000D03*
D12*
X87625000Y-106375000D03*
D13*
X87625000Y-106375000D03*
D12*
X90375000Y-92625000D03*
D13*
X90375000Y-92625000D03*
D12*
X90375000Y-95375000D03*
D13*
X90375000Y-95375000D03*
D12*
X90375000Y-98125000D03*
D13*
X90375000Y-98125000D03*
D12*
X90375000Y-100875000D03*
D13*
X90375000Y-100875000D03*
D12*
X90375000Y-103625000D03*
D13*
X90375000Y-103625000D03*
D12*
X90375000Y-106375000D03*
D13*
X90375000Y-106375000D03*
D12*
X93125000Y-92625000D03*
D13*
X93125000Y-92625000D03*
D12*
X93125000Y-95375000D03*
D13*
X93125000Y-95375000D03*
D12*
X93125000Y-98125000D03*
D13*
X93125000Y-98125000D03*
D12*
X93125000Y-100875000D03*
D13*
X93125000Y-100875000D03*
D12*
X93125000Y-103625000D03*
D13*
X93125000Y-103625000D03*
D12*
X93125000Y-106375000D03*
D13*
X93125000Y-106375000D03*
D12*
X95875000Y-92625000D03*
D13*
X95875000Y-92625000D03*
D12*
X95875000Y-95375000D03*
D13*
X95875000Y-95375000D03*
D12*
X95875000Y-98125000D03*
D13*
X95875000Y-98125000D03*
D12*
X95875000Y-100875000D03*
D13*
X95875000Y-100875000D03*
D12*
X95875000Y-103625000D03*
D13*
X95875000Y-103625000D03*
D12*
X95875000Y-106375000D03*
D13*
X95875000Y-106375000D03*
D12*
X98625000Y-98125000D03*
D13*
X98625000Y-98125000D03*
D12*
X98625000Y-100875000D03*
D13*
X98625000Y-100875000D03*
D12*
X98625000Y-103625000D03*
D13*
X98625000Y-103625000D03*
D12*
X98625000Y-106375000D03*
D13*
X98625000Y-106375000D03*
D12*
X101375000Y-92625000D03*
D13*
X101375000Y-92625000D03*
D12*
X101375000Y-95375000D03*
D13*
X101375000Y-95375000D03*
D12*
X101375000Y-98125000D03*
D13*
X101375000Y-98125000D03*
D12*
X101375000Y-100875000D03*
D13*
X101375000Y-100875000D03*
D12*
X101375000Y-103625000D03*
D13*
X101375000Y-103625000D03*
D12*
X101375000Y-106375000D03*
D13*
X101375000Y-106375000D03*
X79375000Y-92625000D03*
D12*
X79375000Y-92625000D03*
X78000000Y-89875000D03*
D13*
X78000000Y-89875000D03*
D12*
X78000000Y-95375000D03*
D13*
X78000000Y-95375000D03*
D12*
X78000000Y-109125000D03*
D13*
X78000000Y-109125000D03*
D12*
X122000000Y-103625000D03*
D13*
X122000000Y-103625000D03*
D12*
X78000000Y-103625000D03*
D13*
X78000000Y-103625000D03*
X79375000Y-106375000D03*
D12*
X79375000Y-106375000D03*
D13*
X120625000Y-92625000D03*
D12*
X120625000Y-92625000D03*
X122000000Y-89875000D03*
D13*
X122000000Y-89875000D03*
D12*
X122000000Y-109125000D03*
D13*
X122000000Y-109125000D03*
X120625000Y-106375000D03*
D12*
X120625000Y-106375000D03*
X122000000Y-95375000D03*
D13*
X122000000Y-95375000D03*
D18*
X100000000Y-121000000D03*
D19*
X139000000Y-127040000D03*
X61000000Y-127040000D03*
D20*
X62200000Y-131490000D03*
X62800000Y-131490000D03*
X63400000Y-131490000D03*
X64000000Y-131490000D03*
X64600000Y-131490000D03*
X65200000Y-131490000D03*
X65800000Y-131490000D03*
X66400000Y-131490000D03*
X67000000Y-131490000D03*
X67600000Y-131490000D03*
X68200000Y-131490000D03*
X68800000Y-131490000D03*
X69400000Y-131490000D03*
X70000000Y-131490000D03*
X70600000Y-131490000D03*
X71200000Y-131490000D03*
X71800000Y-131490000D03*
X72400000Y-131490000D03*
X73000000Y-131490000D03*
X73600000Y-131490000D03*
X74200000Y-131490000D03*
X74800000Y-131490000D03*
X75400000Y-131490000D03*
X76000000Y-131490000D03*
X76600000Y-131490000D03*
X77200000Y-131490000D03*
X77800000Y-131490000D03*
X78400000Y-131490000D03*
X79000000Y-131490000D03*
X79600000Y-131490000D03*
X80200000Y-131490000D03*
X80800000Y-131490000D03*
X81400000Y-131490000D03*
X82000000Y-131490000D03*
X82600000Y-131490000D03*
X83200000Y-131490000D03*
X83800000Y-131490000D03*
X84400000Y-131490000D03*
X85000000Y-131490000D03*
X85600000Y-131490000D03*
X86200000Y-131490000D03*
X86800000Y-131490000D03*
X87400000Y-131490000D03*
X88000000Y-131490000D03*
X88600000Y-131490000D03*
X89200000Y-131490000D03*
X89800000Y-131490000D03*
X90400000Y-131490000D03*
X91000000Y-131490000D03*
X91600000Y-131490000D03*
X92200000Y-131490000D03*
X92800000Y-131490000D03*
X93400000Y-131490000D03*
X94000000Y-131490000D03*
X94600000Y-131490000D03*
X95200000Y-131490000D03*
X95800000Y-131490000D03*
X96400000Y-131490000D03*
X97000000Y-131490000D03*
X97600000Y-131490000D03*
X98200000Y-131490000D03*
X98800000Y-131490000D03*
X99400000Y-131490000D03*
X100000000Y-131490000D03*
X100600000Y-131490000D03*
X104200000Y-131490000D03*
X104800000Y-131490000D03*
X105400000Y-131490000D03*
X106000000Y-131490000D03*
X106600000Y-131490000D03*
X107200000Y-131490000D03*
X107800000Y-131490000D03*
X108400000Y-131490000D03*
X109000000Y-131490000D03*
X109600000Y-131490000D03*
X110200000Y-131490000D03*
X110800000Y-131490000D03*
X111400000Y-131490000D03*
X112000000Y-131490000D03*
X112600000Y-131490000D03*
X113200000Y-131490000D03*
X113800000Y-131490000D03*
X114400000Y-131490000D03*
X115000000Y-131490000D03*
X115600000Y-131490000D03*
X116200000Y-131490000D03*
X116800000Y-131490000D03*
X117400000Y-131490000D03*
X118000000Y-131490000D03*
X118600000Y-131490000D03*
X119200000Y-131490000D03*
X119800000Y-131490000D03*
X120400000Y-131490000D03*
X121000000Y-131490000D03*
X121600000Y-131490000D03*
X122200000Y-131490000D03*
X122800000Y-131490000D03*
X123400000Y-131490000D03*
X124000000Y-131490000D03*
X124600000Y-131490000D03*
X125200000Y-131490000D03*
X125800000Y-131490000D03*
X126400000Y-131490000D03*
X127000000Y-131490000D03*
X127600000Y-131490000D03*
X128200000Y-131490000D03*
X128800000Y-131490000D03*
X129400000Y-131490000D03*
X130000000Y-131490000D03*
X130600000Y-131490000D03*
X131200000Y-131490000D03*
X131800000Y-131490000D03*
X132400000Y-131490000D03*
X133000000Y-131490000D03*
X133600000Y-131490000D03*
X134200000Y-131490000D03*
X134800000Y-131490000D03*
X135400000Y-131490000D03*
X136000000Y-131490000D03*
X136600000Y-131490000D03*
X137200000Y-131490000D03*
X137800000Y-131490000D03*
D21*
X87625000Y-92465000D03*
D13*
X87625000Y-92625000D03*
D21*
X87625000Y-95535000D03*
D13*
X87625000Y-95375000D03*
D21*
X112375000Y-92465000D03*
D13*
X112375000Y-92625000D03*
D21*
X112375000Y-95535000D03*
D13*
X112375000Y-95375000D03*
D21*
X98625000Y-92465000D03*
D13*
X98625000Y-92625000D03*
D21*
X98625000Y-95535000D03*
D13*
X98625000Y-95375000D03*
M02*
