M48
;DRILL file {KiCad 5.0.2-bee76a0~70~ubuntu18.04.1} date Do 30 Apr 2020 09:20:20 CEST
;FORMAT={-:-/ absolute / inch / decimal}
FMAT,2
INCH,TZ
T1C0.0138
T2C0.0157
T3C0.0197
T4C0.0236
T5C0.0320
T6C0.0394
%
G90
G05
T1
X3.3963Y-5.3913
X3.3963Y-5.4307
X3.3963Y-5.47
X3.4159Y-5.411
X3.4159Y-5.4504
X3.4356Y-5.3913
X3.4356Y-5.4307
X3.4356Y-5.47
X3.4553Y-5.411
X3.4553Y-5.4504
X3.475Y-5.3913
X3.475Y-5.4307
X3.475Y-5.47
X3.4947Y-5.411
X3.4947Y-5.4504
X3.5144Y-5.3913
X3.5144Y-5.4307
X3.5144Y-5.47
X3.5341Y-5.411
X3.5341Y-5.4504
X3.5537Y-5.3913
X3.5537Y-5.4307
X3.5537Y-5.47
T2
X2.235Y-1.4284
X2.235Y-1.6384
X2.555Y-2.1584
X2.5745Y-1.6884
X2.675Y-2.0484
X3.045Y-2.2584
X3.0469Y-5.5274
X3.155Y-2.2984
X3.57Y-2.5434
X3.57Y-2.6534
X3.62Y-2.6534
X3.67Y-2.5484
X3.675Y-2.1884
X3.695Y-2.3284
X3.695Y-2.6384
X3.7231Y-2.5618
X3.735Y-2.6384
X3.7564Y-2.5582
X3.757Y-2.877
X3.789Y-5.349
X3.805Y-2.0334
X3.815Y-1.4634
X3.837Y-5.453
X3.845Y-2.0184
X3.865Y-2.6384
X3.885Y-2.1034
X3.9006Y-2.499
X3.9245Y-2.882
X3.937Y-5.605
X3.955Y-1.4634
X3.977Y-2.0484
X4.002Y-2.0184
X4.037Y-2.277
X4.05Y-1.8884
X4.082Y-2.512
X4.085Y-1.6234
X4.085Y-5.481
X4.09Y-1.9834
X4.14Y-1.5784
X4.141Y-5.413
X4.16Y-1.7934
X4.167Y-2.1834
X4.167Y-2.217
X4.185Y-1.7684
X4.185Y-1.9634
X4.195Y-1.8084
X4.195Y-2.0784
X4.215Y-1.9234
X4.225Y-2.192
X4.232Y-2.262
X4.235Y-1.8184
X4.245Y-1.7234
X4.265Y-1.8384
X4.295Y-1.8684
X4.307Y-2.2549
X4.33Y-1.9434
X4.332Y-2.512
X4.335Y-1.613
X4.335Y-2.2795
X4.342Y-2.0715
X4.355Y-1.9684
X4.355Y-2.2284
X4.375Y-1.6134
X4.382Y-2.092
X4.39Y-1.9734
X4.415Y-1.6684
X4.42Y-1.5484
X4.437Y-2.362
X4.45Y-1.5284
X4.452Y-2.052
X4.472Y-2.347
X4.482Y-2.077
X4.485Y-1.9884
X4.497Y-2.272
X4.505Y-1.6384
X4.52Y-2.0134
X4.545Y-1.6384
X4.565Y-2.2984
X4.585Y-2.4659
X4.605Y-2.2984
X4.61Y-2.0034
X4.65Y-2.0134
X4.65Y-2.2734
X4.66Y-1.8684
X4.667Y-2.822
X4.67Y-1.7234
X4.685Y-1.8384
X4.685Y-2.0034
X4.717Y-2.577
X4.752Y-2.587
X4.77Y-2.2484
X4.785Y-1.6684
X4.785Y-1.7234
X4.7864Y-2.522
X4.787Y-2.602
X4.825Y-2.3734
X4.84Y-2.0934
X4.915Y-2.3784
X5.045Y-2.4284
X5.0819Y-5.4074
X5.085Y-2.3684
X5.095Y-2.4984
X5.1099Y-2.3452
X5.135Y-1.8984
X5.14Y-1.9384
X5.155Y-2.3284
X5.16Y-1.7634
X5.17Y-1.5034
X5.18Y-1.9234
X5.2Y-1.7634
X5.205Y-1.5034
X5.2067Y-1.6517
X5.245Y-1.7734
X5.245Y-2.4284
X5.245Y-2.5384
X5.275Y-1.7984
X5.295Y-2.3884
X5.335Y-2.6084
X5.36Y-1.7984
X5.365Y-2.5584
X5.3896Y-2.633
X5.41Y-1.4984
X5.422Y-2.3445
X5.425Y-2.5884
X5.445Y-1.7634
X5.515Y-2.2084
X5.765Y-1.7034
T4
X2.07Y-2.5984
X2.175Y-1.6384
X2.18Y-1.4284
X2.2895Y-1.522
X2.2895Y-1.5545
X2.522Y-2.762
X2.522Y-2.862
X2.5695Y-1.7584
X2.582Y-2.762
X2.587Y-2.912
X2.6325Y-2.3959
X2.6325Y-2.4509
X2.725Y-1.9984
X3.235Y-2.4784
X3.295Y-1.8384
X3.335Y-2.3584
X3.375Y-2.3584
X3.4625Y-2.6334
X3.48Y-1.6284
X3.515Y-2.3734
X3.562Y-1.577
X3.562Y-1.632
X3.6125Y-2.3734
X3.635Y-1.7784
X3.682Y-2.982
X3.937Y-2.757
X3.988Y-3.062
X4.01Y-1.3984
X4.045Y-1.8084
X4.13Y-1.4534
X4.13Y-1.4884
X4.152Y-3.062
X4.315Y-2.127
X4.315Y-2.1634
X4.353Y-5.373
X4.353Y-5.525
X4.427Y-3.107
X4.457Y-2.462
X4.497Y-3.297
X4.515Y-2.1434
X4.59Y-1.6284
X4.68Y-1.6184
X4.707Y-2.847
X4.735Y-1.3584
X4.822Y-2.847
X4.8463Y-1.3569
X4.865Y-1.6334
X4.945Y-1.5434
X4.975Y-1.6234
X5.065Y-1.6284
X5.075Y-1.5034
X5.105Y-2.5384
X5.21Y-1.9584
X5.31Y-1.5284
X5.32Y-1.6484
X5.3346Y-5.5118
X5.41Y-2.5284
X5.455Y-2.5284
X5.465Y-1.5084
X5.49Y-2.4684
X5.5945Y-1.4995
X5.615Y-1.6084
X5.652Y-1.5495
T5
X2.3319Y-1.8711
X2.3319Y-1.9711
X2.3319Y-2.0711
T6
X5.7859Y-2.4803
T3
X5.0201Y-1.2898G85X5.0201Y-1.3134
G05
X5.0343Y-1.524G85X5.0343Y-1.5476
G05
X5.3594Y-1.524G85X5.3594Y-1.5476
G05
X5.3736Y-1.2898G85X5.3736Y-1.3134
G05
T0
M30
