M48
; DRILL file {KiCad 5.1.5+dfsg1-2build2} date Fr 28 Mai 2021 09:23:45
; FORMAT={-:-/ absolute / inch / decimal}
; #@! TF.CreationDate,2021-05-28T09:23:45+02:00
; #@! TF.GenerationSoftware,Kicad,Pcbnew,5.1.5+dfsg1-2build2
; #@! TF.FileFunction,NonPlated,1,2,NPTH
FMAT,2
INCH
T1C0.0197
T2C0.0256
T3C0.0295
T4C0.0413
T5C0.1063
T6C0.1260
%
G90
G05
T1
X1.9567Y-1.6299
X1.9567Y-1.6614
X1.9567Y-5.0709
X5.9173Y-1.5354
X5.9173Y-1.5984
X5.9173Y-4.9764
X5.9173Y-5.1339
X5.9173Y-1.6299
X5.9173Y-5.0079
X1.9567Y-1.5669
X1.9567Y-1.6929
X1.9567Y-5.1024
X5.9173Y-5.0394
X1.9567Y-1.5984
X1.9567Y-4.9764
X1.9567Y-5.1339
X5.9173Y-1.6614
X5.9173Y-5.0709
X1.9567Y-5.0079
X5.9173Y-1.5669
X5.9173Y-5.1024
X1.9567Y-5.0394
X1.9567Y-1.5354
X5.9173Y-1.6929
T2
X5.0551Y-1.585
T3
X3.9899Y-5.4241
T4
X3.8841Y-5.5299
T5
X4.0315Y-4.8583
X5.6339Y-4.8583
X2.2402Y-4.8583
T6
X2.2047Y-2.9134
X2.2047Y-5.2756
X5.6693Y-5.2756
X5.6693Y-2.9134
T2
G00X5.3327Y-1.585
M15
G01X5.3445Y-1.585
M16
G05
T0
M30
