G04 #@! TF.GenerationSoftware,KiCad,Pcbnew,5.0.2-bee76a0~70~ubuntu18.04.1*
G04 #@! TF.CreationDate,2020-04-30T09:20:18+02:00*
G04 #@! TF.ProjectId,OpenDropV4,4f70656e-4472-46f7-9056-342e6b696361,rev?*
G04 #@! TF.SameCoordinates,Original*
G04 #@! TF.FileFunction,Copper,L1,Top*
G04 #@! TF.FilePolarity,Positive*
%FSLAX46Y46*%
G04 Gerber Fmt 4.6, Leading zero omitted, Abs format (unit mm)*
G04 Created by KiCad (PCBNEW 5.0.2-bee76a0~70~ubuntu18.04.1) date Do 30 Apr 2020 09:20:18 CEST*
%MOMM*%
%LPD*%
G01*
G04 APERTURE LIST*
G04 #@! TA.AperFunction,ComponentPad*
%ADD10O,0.800000X1.400000*%
G04 #@! TD*
G04 #@! TA.AperFunction,SMDPad,CuDef*
%ADD11R,5.200000X3.000000*%
G04 #@! TD*
G04 #@! TA.AperFunction,ComponentPad*
%ADD12C,0.600000*%
G04 #@! TD*
G04 #@! TA.AperFunction,BGAPad,CuDef*
%ADD13C,1.000000*%
G04 #@! TD*
G04 #@! TA.AperFunction,ComponentPad*
%ADD14R,1.397000X1.397000*%
G04 #@! TD*
G04 #@! TA.AperFunction,ComponentPad*
%ADD15C,1.397000*%
G04 #@! TD*
G04 #@! TA.AperFunction,SMDPad,CuDef*
%ADD16R,2.100000X1.400000*%
G04 #@! TD*
G04 #@! TA.AperFunction,SMDPad,CuDef*
%ADD17R,3.000000X3.200000*%
G04 #@! TD*
G04 #@! TA.AperFunction,ComponentPad*
%ADD18C,3.200000*%
G04 #@! TD*
G04 #@! TA.AperFunction,SMDPad,CuDef*
%ADD19C,1.800000*%
G04 #@! TD*
G04 #@! TA.AperFunction,Conductor*
%ADD20C,0.100000*%
G04 #@! TD*
G04 #@! TA.AperFunction,SMDPad,CuDef*
%ADD21C,1.000000*%
G04 #@! TD*
G04 #@! TA.AperFunction,SMDPad,CuDef*
%ADD22R,1.501140X1.501140*%
G04 #@! TD*
G04 #@! TA.AperFunction,SMDPad,CuDef*
%ADD23C,0.875000*%
G04 #@! TD*
G04 #@! TA.AperFunction,ViaPad*
%ADD24C,0.600000*%
G04 #@! TD*
G04 #@! TA.AperFunction,ViaPad*
%ADD25C,0.800000*%
G04 #@! TD*
G04 #@! TA.AperFunction,Conductor*
%ADD26C,0.500000*%
G04 #@! TD*
G04 #@! TA.AperFunction,Conductor*
%ADD27C,0.300000*%
G04 #@! TD*
G04 #@! TA.AperFunction,Conductor*
%ADD28C,0.250000*%
G04 #@! TD*
G04 #@! TA.AperFunction,Conductor*
%ADD29C,0.200000*%
G04 #@! TD*
G04 #@! TA.AperFunction,Conductor*
%ADD30C,0.254000*%
G04 #@! TD*
G04 APERTURE END LIST*
D10*
G04 #@! TO.P,J1,S1*
G04 #@! TO.N,Net-(J1-PadS1)*
X127870000Y-39010000D03*
X136130000Y-39010000D03*
X136490000Y-33060000D03*
X127510000Y-33060000D03*
G04 #@! TD*
D11*
G04 #@! TO.P,SP1,3*
G04 #@! TO.N,N/C*
X88265000Y-137939000D03*
D12*
X86265000Y-136939000D03*
X86765000Y-137439000D03*
X87265000Y-136939000D03*
X87765000Y-137439000D03*
X88265000Y-136939000D03*
X88765000Y-137439000D03*
X89265000Y-136939000D03*
X89765000Y-137439000D03*
X90265000Y-136939000D03*
X86265000Y-137939000D03*
X86765000Y-138439000D03*
X87265000Y-137939000D03*
X87765000Y-138439000D03*
X88265000Y-137939000D03*
X88765000Y-138439000D03*
X89265000Y-137939000D03*
X89765000Y-138439000D03*
X90265000Y-137939000D03*
X86265000Y-138939000D03*
X87265000Y-138939000D03*
X88265000Y-138939000D03*
X89265000Y-138939000D03*
X90265000Y-138939000D03*
G04 #@! TD*
D13*
G04 #@! TO.P,REF\002A\002A,~*
G04 #@! TO.N,N/C*
X43000000Y-140400000D03*
G04 #@! TD*
G04 #@! TO.P,REF\002A\002A,~*
G04 #@! TO.N,N/C*
X43000000Y-36000000D03*
G04 #@! TD*
G04 #@! TO.P,REF\002A\002A,~*
G04 #@! TO.N,N/C*
X157000000Y-141400000D03*
G04 #@! TD*
G04 #@! TO.P,REF\002A\002A,~*
G04 #@! TO.N,N/C*
X157000000Y-36000000D03*
G04 #@! TD*
D14*
G04 #@! TO.P,SW5,3*
G04 #@! TO.N,N/C*
X59230000Y-52605000D03*
D15*
G04 #@! TO.P,SW5,2*
G04 #@! TO.N,V_USB*
X59230000Y-50065000D03*
G04 #@! TO.P,SW5,1*
G04 #@! TO.N,Net-(C1-Pad1)*
X59230000Y-47525000D03*
G04 #@! TD*
D13*
G04 #@! TO.P,REF\002A\002A,~*
G04 #@! TO.N,N/C*
X147000000Y-130000000D03*
G04 #@! TD*
G04 #@! TO.P,REF\002A\002A,~*
G04 #@! TO.N,N/C*
X147000000Y-34000000D03*
G04 #@! TD*
G04 #@! TO.P,REF\002A\002A,~*
G04 #@! TO.N,N/C*
X53000000Y-130000000D03*
G04 #@! TD*
D16*
G04 #@! TO.P,SW1,3*
G04 #@! TO.N,N/C*
X71000000Y-140450000D03*
G04 #@! TO.P,SW1,4*
X71000000Y-135950000D03*
G04 #@! TO.P,SW1,1*
G04 #@! TO.N,SW1*
X81000000Y-140450000D03*
G04 #@! TO.P,SW1,2*
G04 #@! TO.N,GND*
X81000000Y-135950000D03*
G04 #@! TD*
G04 #@! TO.P,SW2,3*
G04 #@! TO.N,N/C*
X119000000Y-140450000D03*
G04 #@! TO.P,SW2,4*
X119000000Y-135950000D03*
G04 #@! TO.P,SW2,1*
G04 #@! TO.N,SW2*
X129000000Y-140450000D03*
G04 #@! TO.P,SW2,2*
G04 #@! TO.N,GND*
X129000000Y-135950000D03*
G04 #@! TD*
D17*
G04 #@! TO.P,P2,1*
G04 #@! TO.N,GND*
X148463000Y-63000000D03*
D18*
X146963000Y-63000000D03*
G04 #@! TD*
D19*
G04 #@! TO.P,JS2,*
G04 #@! TO.N,*
X102863582Y-136252018D03*
D20*
G04 #@! TD*
G04 #@! TO.N,*
G04 #@! TO.C,JS2*
G36*
X101520079Y-136181307D02*
X102792871Y-134908515D01*
X104207085Y-136322729D01*
X102934293Y-137595521D01*
X101520079Y-136181307D01*
X101520079Y-136181307D01*
G37*
D19*
G04 #@! TO.P,JS2,*
G04 #@! TO.N,*
X97136018Y-141979582D03*
D20*
G04 #@! TD*
G04 #@! TO.N,*
G04 #@! TO.C,JS2*
G36*
X95792515Y-141908871D02*
X97065307Y-140636079D01*
X98479521Y-142050293D01*
X97206729Y-143323085D01*
X95792515Y-141908871D01*
X95792515Y-141908871D01*
G37*
D21*
G04 #@! TO.P,JS2,1*
G04 #@! TO.N,Net-(JS2-Pad1)*
X98479520Y-135580266D03*
D20*
G04 #@! TD*
G04 #@! TO.N,Net-(JS2-Pad1)*
G04 #@! TO.C,JS2*
G36*
X97648670Y-135456522D02*
X98355776Y-134749416D01*
X99310370Y-135704010D01*
X98603264Y-136411116D01*
X97648670Y-135456522D01*
X97648670Y-135456522D01*
G37*
D21*
G04 #@! TO.P,JS2,2*
G04 #@! TO.N,SW3*
X97471893Y-136587893D03*
D20*
G04 #@! TD*
G04 #@! TO.N,SW3*
G04 #@! TO.C,JS2*
G36*
X96641043Y-136464149D02*
X97348149Y-135757043D01*
X98302743Y-136711637D01*
X97595637Y-137418743D01*
X96641043Y-136464149D01*
X96641043Y-136464149D01*
G37*
D21*
G04 #@! TO.P,JS2,3*
G04 #@! TO.N,Net-(JS2-Pad3)*
X96464266Y-137595520D03*
D20*
G04 #@! TD*
G04 #@! TO.N,Net-(JS2-Pad3)*
G04 #@! TO.C,JS2*
G36*
X95633416Y-137471776D02*
X96340522Y-136764670D01*
X97295116Y-137719264D01*
X96588010Y-138426370D01*
X95633416Y-137471776D01*
X95633416Y-137471776D01*
G37*
D21*
G04 #@! TO.P,JS2,4*
G04 #@! TO.N,JOY*
X103535334Y-140636080D03*
D20*
G04 #@! TD*
G04 #@! TO.N,JOY*
G04 #@! TO.C,JS2*
G36*
X102704484Y-140512336D02*
X103411590Y-139805230D01*
X104366184Y-140759824D01*
X103659078Y-141466930D01*
X102704484Y-140512336D01*
X102704484Y-140512336D01*
G37*
D21*
G04 #@! TO.P,JS2,5*
G04 #@! TO.N,GND*
X102527707Y-141643707D03*
D20*
G04 #@! TD*
G04 #@! TO.N,GND*
G04 #@! TO.C,JS2*
G36*
X101696857Y-141519963D02*
X102403963Y-140812857D01*
X103358557Y-141767451D01*
X102651451Y-142474557D01*
X101696857Y-141519963D01*
X101696857Y-141519963D01*
G37*
D21*
G04 #@! TO.P,JS2,6*
G04 #@! TO.N,Net-(JS2-Pad6)*
X101520080Y-142651334D03*
D20*
G04 #@! TD*
G04 #@! TO.N,Net-(JS2-Pad6)*
G04 #@! TO.C,JS2*
G36*
X100689230Y-142527590D02*
X101396336Y-141820484D01*
X102350930Y-142775078D01*
X101643824Y-143482184D01*
X100689230Y-142527590D01*
X100689230Y-142527590D01*
G37*
D22*
G04 #@! TO.P,P1,1*
G04 #@! TO.N,V_GND*
X142000000Y-63000000D03*
G04 #@! TD*
D20*
G04 #@! TO.N,Net-(LED1-Pad2)*
G04 #@! TO.C,LED1*
G36*
X128027691Y-59937053D02*
X128048926Y-59940203D01*
X128069750Y-59945419D01*
X128089962Y-59952651D01*
X128109368Y-59961830D01*
X128127781Y-59972866D01*
X128145024Y-59985654D01*
X128160930Y-60000070D01*
X128175346Y-60015976D01*
X128188134Y-60033219D01*
X128199170Y-60051632D01*
X128208349Y-60071038D01*
X128215581Y-60091250D01*
X128220797Y-60112074D01*
X128223947Y-60133309D01*
X128225000Y-60154750D01*
X128225000Y-60667250D01*
X128223947Y-60688691D01*
X128220797Y-60709926D01*
X128215581Y-60730750D01*
X128208349Y-60750962D01*
X128199170Y-60770368D01*
X128188134Y-60788781D01*
X128175346Y-60806024D01*
X128160930Y-60821930D01*
X128145024Y-60836346D01*
X128127781Y-60849134D01*
X128109368Y-60860170D01*
X128089962Y-60869349D01*
X128069750Y-60876581D01*
X128048926Y-60881797D01*
X128027691Y-60884947D01*
X128006250Y-60886000D01*
X127568750Y-60886000D01*
X127547309Y-60884947D01*
X127526074Y-60881797D01*
X127505250Y-60876581D01*
X127485038Y-60869349D01*
X127465632Y-60860170D01*
X127447219Y-60849134D01*
X127429976Y-60836346D01*
X127414070Y-60821930D01*
X127399654Y-60806024D01*
X127386866Y-60788781D01*
X127375830Y-60770368D01*
X127366651Y-60750962D01*
X127359419Y-60730750D01*
X127354203Y-60709926D01*
X127351053Y-60688691D01*
X127350000Y-60667250D01*
X127350000Y-60154750D01*
X127351053Y-60133309D01*
X127354203Y-60112074D01*
X127359419Y-60091250D01*
X127366651Y-60071038D01*
X127375830Y-60051632D01*
X127386866Y-60033219D01*
X127399654Y-60015976D01*
X127414070Y-60000070D01*
X127429976Y-59985654D01*
X127447219Y-59972866D01*
X127465632Y-59961830D01*
X127485038Y-59952651D01*
X127505250Y-59945419D01*
X127526074Y-59940203D01*
X127547309Y-59937053D01*
X127568750Y-59936000D01*
X128006250Y-59936000D01*
X128027691Y-59937053D01*
X128027691Y-59937053D01*
G37*
D23*
G04 #@! TD*
G04 #@! TO.P,LED1,2*
G04 #@! TO.N,Net-(LED1-Pad2)*
X127787500Y-60411000D03*
D20*
G04 #@! TO.N,GND*
G04 #@! TO.C,LED1*
G36*
X126452691Y-59937053D02*
X126473926Y-59940203D01*
X126494750Y-59945419D01*
X126514962Y-59952651D01*
X126534368Y-59961830D01*
X126552781Y-59972866D01*
X126570024Y-59985654D01*
X126585930Y-60000070D01*
X126600346Y-60015976D01*
X126613134Y-60033219D01*
X126624170Y-60051632D01*
X126633349Y-60071038D01*
X126640581Y-60091250D01*
X126645797Y-60112074D01*
X126648947Y-60133309D01*
X126650000Y-60154750D01*
X126650000Y-60667250D01*
X126648947Y-60688691D01*
X126645797Y-60709926D01*
X126640581Y-60730750D01*
X126633349Y-60750962D01*
X126624170Y-60770368D01*
X126613134Y-60788781D01*
X126600346Y-60806024D01*
X126585930Y-60821930D01*
X126570024Y-60836346D01*
X126552781Y-60849134D01*
X126534368Y-60860170D01*
X126514962Y-60869349D01*
X126494750Y-60876581D01*
X126473926Y-60881797D01*
X126452691Y-60884947D01*
X126431250Y-60886000D01*
X125993750Y-60886000D01*
X125972309Y-60884947D01*
X125951074Y-60881797D01*
X125930250Y-60876581D01*
X125910038Y-60869349D01*
X125890632Y-60860170D01*
X125872219Y-60849134D01*
X125854976Y-60836346D01*
X125839070Y-60821930D01*
X125824654Y-60806024D01*
X125811866Y-60788781D01*
X125800830Y-60770368D01*
X125791651Y-60750962D01*
X125784419Y-60730750D01*
X125779203Y-60709926D01*
X125776053Y-60688691D01*
X125775000Y-60667250D01*
X125775000Y-60154750D01*
X125776053Y-60133309D01*
X125779203Y-60112074D01*
X125784419Y-60091250D01*
X125791651Y-60071038D01*
X125800830Y-60051632D01*
X125811866Y-60033219D01*
X125824654Y-60015976D01*
X125839070Y-60000070D01*
X125854976Y-59985654D01*
X125872219Y-59972866D01*
X125890632Y-59961830D01*
X125910038Y-59952651D01*
X125930250Y-59945419D01*
X125951074Y-59940203D01*
X125972309Y-59937053D01*
X125993750Y-59936000D01*
X126431250Y-59936000D01*
X126452691Y-59937053D01*
X126452691Y-59937053D01*
G37*
D23*
G04 #@! TD*
G04 #@! TO.P,LED1,1*
G04 #@! TO.N,GND*
X126212500Y-60411000D03*
D20*
G04 #@! TO.N,GND*
G04 #@! TO.C,LED2*
G36*
X131452691Y-59937053D02*
X131473926Y-59940203D01*
X131494750Y-59945419D01*
X131514962Y-59952651D01*
X131534368Y-59961830D01*
X131552781Y-59972866D01*
X131570024Y-59985654D01*
X131585930Y-60000070D01*
X131600346Y-60015976D01*
X131613134Y-60033219D01*
X131624170Y-60051632D01*
X131633349Y-60071038D01*
X131640581Y-60091250D01*
X131645797Y-60112074D01*
X131648947Y-60133309D01*
X131650000Y-60154750D01*
X131650000Y-60667250D01*
X131648947Y-60688691D01*
X131645797Y-60709926D01*
X131640581Y-60730750D01*
X131633349Y-60750962D01*
X131624170Y-60770368D01*
X131613134Y-60788781D01*
X131600346Y-60806024D01*
X131585930Y-60821930D01*
X131570024Y-60836346D01*
X131552781Y-60849134D01*
X131534368Y-60860170D01*
X131514962Y-60869349D01*
X131494750Y-60876581D01*
X131473926Y-60881797D01*
X131452691Y-60884947D01*
X131431250Y-60886000D01*
X130993750Y-60886000D01*
X130972309Y-60884947D01*
X130951074Y-60881797D01*
X130930250Y-60876581D01*
X130910038Y-60869349D01*
X130890632Y-60860170D01*
X130872219Y-60849134D01*
X130854976Y-60836346D01*
X130839070Y-60821930D01*
X130824654Y-60806024D01*
X130811866Y-60788781D01*
X130800830Y-60770368D01*
X130791651Y-60750962D01*
X130784419Y-60730750D01*
X130779203Y-60709926D01*
X130776053Y-60688691D01*
X130775000Y-60667250D01*
X130775000Y-60154750D01*
X130776053Y-60133309D01*
X130779203Y-60112074D01*
X130784419Y-60091250D01*
X130791651Y-60071038D01*
X130800830Y-60051632D01*
X130811866Y-60033219D01*
X130824654Y-60015976D01*
X130839070Y-60000070D01*
X130854976Y-59985654D01*
X130872219Y-59972866D01*
X130890632Y-59961830D01*
X130910038Y-59952651D01*
X130930250Y-59945419D01*
X130951074Y-59940203D01*
X130972309Y-59937053D01*
X130993750Y-59936000D01*
X131431250Y-59936000D01*
X131452691Y-59937053D01*
X131452691Y-59937053D01*
G37*
D23*
G04 #@! TD*
G04 #@! TO.P,LED2,1*
G04 #@! TO.N,GND*
X131212500Y-60411000D03*
D20*
G04 #@! TO.N,Net-(LED2-Pad2)*
G04 #@! TO.C,LED2*
G36*
X133027691Y-59937053D02*
X133048926Y-59940203D01*
X133069750Y-59945419D01*
X133089962Y-59952651D01*
X133109368Y-59961830D01*
X133127781Y-59972866D01*
X133145024Y-59985654D01*
X133160930Y-60000070D01*
X133175346Y-60015976D01*
X133188134Y-60033219D01*
X133199170Y-60051632D01*
X133208349Y-60071038D01*
X133215581Y-60091250D01*
X133220797Y-60112074D01*
X133223947Y-60133309D01*
X133225000Y-60154750D01*
X133225000Y-60667250D01*
X133223947Y-60688691D01*
X133220797Y-60709926D01*
X133215581Y-60730750D01*
X133208349Y-60750962D01*
X133199170Y-60770368D01*
X133188134Y-60788781D01*
X133175346Y-60806024D01*
X133160930Y-60821930D01*
X133145024Y-60836346D01*
X133127781Y-60849134D01*
X133109368Y-60860170D01*
X133089962Y-60869349D01*
X133069750Y-60876581D01*
X133048926Y-60881797D01*
X133027691Y-60884947D01*
X133006250Y-60886000D01*
X132568750Y-60886000D01*
X132547309Y-60884947D01*
X132526074Y-60881797D01*
X132505250Y-60876581D01*
X132485038Y-60869349D01*
X132465632Y-60860170D01*
X132447219Y-60849134D01*
X132429976Y-60836346D01*
X132414070Y-60821930D01*
X132399654Y-60806024D01*
X132386866Y-60788781D01*
X132375830Y-60770368D01*
X132366651Y-60750962D01*
X132359419Y-60730750D01*
X132354203Y-60709926D01*
X132351053Y-60688691D01*
X132350000Y-60667250D01*
X132350000Y-60154750D01*
X132351053Y-60133309D01*
X132354203Y-60112074D01*
X132359419Y-60091250D01*
X132366651Y-60071038D01*
X132375830Y-60051632D01*
X132386866Y-60033219D01*
X132399654Y-60015976D01*
X132414070Y-60000070D01*
X132429976Y-59985654D01*
X132447219Y-59972866D01*
X132465632Y-59961830D01*
X132485038Y-59952651D01*
X132505250Y-59945419D01*
X132526074Y-59940203D01*
X132547309Y-59937053D01*
X132568750Y-59936000D01*
X133006250Y-59936000D01*
X133027691Y-59937053D01*
X133027691Y-59937053D01*
G37*
D23*
G04 #@! TD*
G04 #@! TO.P,LED2,2*
G04 #@! TO.N,Net-(LED2-Pad2)*
X132787500Y-60411000D03*
D20*
G04 #@! TO.N,GND*
G04 #@! TO.C,LED3*
G36*
X136452691Y-59937053D02*
X136473926Y-59940203D01*
X136494750Y-59945419D01*
X136514962Y-59952651D01*
X136534368Y-59961830D01*
X136552781Y-59972866D01*
X136570024Y-59985654D01*
X136585930Y-60000070D01*
X136600346Y-60015976D01*
X136613134Y-60033219D01*
X136624170Y-60051632D01*
X136633349Y-60071038D01*
X136640581Y-60091250D01*
X136645797Y-60112074D01*
X136648947Y-60133309D01*
X136650000Y-60154750D01*
X136650000Y-60667250D01*
X136648947Y-60688691D01*
X136645797Y-60709926D01*
X136640581Y-60730750D01*
X136633349Y-60750962D01*
X136624170Y-60770368D01*
X136613134Y-60788781D01*
X136600346Y-60806024D01*
X136585930Y-60821930D01*
X136570024Y-60836346D01*
X136552781Y-60849134D01*
X136534368Y-60860170D01*
X136514962Y-60869349D01*
X136494750Y-60876581D01*
X136473926Y-60881797D01*
X136452691Y-60884947D01*
X136431250Y-60886000D01*
X135993750Y-60886000D01*
X135972309Y-60884947D01*
X135951074Y-60881797D01*
X135930250Y-60876581D01*
X135910038Y-60869349D01*
X135890632Y-60860170D01*
X135872219Y-60849134D01*
X135854976Y-60836346D01*
X135839070Y-60821930D01*
X135824654Y-60806024D01*
X135811866Y-60788781D01*
X135800830Y-60770368D01*
X135791651Y-60750962D01*
X135784419Y-60730750D01*
X135779203Y-60709926D01*
X135776053Y-60688691D01*
X135775000Y-60667250D01*
X135775000Y-60154750D01*
X135776053Y-60133309D01*
X135779203Y-60112074D01*
X135784419Y-60091250D01*
X135791651Y-60071038D01*
X135800830Y-60051632D01*
X135811866Y-60033219D01*
X135824654Y-60015976D01*
X135839070Y-60000070D01*
X135854976Y-59985654D01*
X135872219Y-59972866D01*
X135890632Y-59961830D01*
X135910038Y-59952651D01*
X135930250Y-59945419D01*
X135951074Y-59940203D01*
X135972309Y-59937053D01*
X135993750Y-59936000D01*
X136431250Y-59936000D01*
X136452691Y-59937053D01*
X136452691Y-59937053D01*
G37*
D23*
G04 #@! TD*
G04 #@! TO.P,LED3,1*
G04 #@! TO.N,GND*
X136212500Y-60411000D03*
D20*
G04 #@! TO.N,Net-(LED3-Pad2)*
G04 #@! TO.C,LED3*
G36*
X138027691Y-59937053D02*
X138048926Y-59940203D01*
X138069750Y-59945419D01*
X138089962Y-59952651D01*
X138109368Y-59961830D01*
X138127781Y-59972866D01*
X138145024Y-59985654D01*
X138160930Y-60000070D01*
X138175346Y-60015976D01*
X138188134Y-60033219D01*
X138199170Y-60051632D01*
X138208349Y-60071038D01*
X138215581Y-60091250D01*
X138220797Y-60112074D01*
X138223947Y-60133309D01*
X138225000Y-60154750D01*
X138225000Y-60667250D01*
X138223947Y-60688691D01*
X138220797Y-60709926D01*
X138215581Y-60730750D01*
X138208349Y-60750962D01*
X138199170Y-60770368D01*
X138188134Y-60788781D01*
X138175346Y-60806024D01*
X138160930Y-60821930D01*
X138145024Y-60836346D01*
X138127781Y-60849134D01*
X138109368Y-60860170D01*
X138089962Y-60869349D01*
X138069750Y-60876581D01*
X138048926Y-60881797D01*
X138027691Y-60884947D01*
X138006250Y-60886000D01*
X137568750Y-60886000D01*
X137547309Y-60884947D01*
X137526074Y-60881797D01*
X137505250Y-60876581D01*
X137485038Y-60869349D01*
X137465632Y-60860170D01*
X137447219Y-60849134D01*
X137429976Y-60836346D01*
X137414070Y-60821930D01*
X137399654Y-60806024D01*
X137386866Y-60788781D01*
X137375830Y-60770368D01*
X137366651Y-60750962D01*
X137359419Y-60730750D01*
X137354203Y-60709926D01*
X137351053Y-60688691D01*
X137350000Y-60667250D01*
X137350000Y-60154750D01*
X137351053Y-60133309D01*
X137354203Y-60112074D01*
X137359419Y-60091250D01*
X137366651Y-60071038D01*
X137375830Y-60051632D01*
X137386866Y-60033219D01*
X137399654Y-60015976D01*
X137414070Y-60000070D01*
X137429976Y-59985654D01*
X137447219Y-59972866D01*
X137465632Y-59961830D01*
X137485038Y-59952651D01*
X137505250Y-59945419D01*
X137526074Y-59940203D01*
X137547309Y-59937053D01*
X137568750Y-59936000D01*
X138006250Y-59936000D01*
X138027691Y-59937053D01*
X138027691Y-59937053D01*
G37*
D23*
G04 #@! TD*
G04 #@! TO.P,LED3,2*
G04 #@! TO.N,Net-(LED3-Pad2)*
X137787500Y-60411000D03*
D24*
G04 #@! TO.N,*
X110109000Y-57900000D03*
D25*
G04 #@! TO.N,Net-(C1-Pad1)*
X83693000Y-46695000D03*
X69215000Y-50759000D03*
G04 #@! TO.N,GND*
X102743000Y-45933000D03*
D24*
X100457000Y-37170000D03*
D25*
X135128000Y-41869000D03*
D24*
X93345000Y-55585000D03*
D25*
X123095000Y-34465000D03*
D24*
X96901000Y-37170000D03*
D25*
X101854000Y-35519000D03*
X143561000Y-39357500D03*
X142100500Y-38087500D03*
X142621000Y-40853000D03*
X66865500Y-62252500D03*
X66865500Y-60855500D03*
X85725000Y-59903000D03*
X84709000Y-59903000D03*
X135500000Y-140000000D03*
D24*
X121158000Y-57109000D03*
D25*
X116586000Y-41361000D03*
X139446000Y-62697000D03*
X114681000Y-54442000D03*
X90475000Y-41453000D03*
X90475000Y-40056000D03*
X65265500Y-44663000D03*
X55245000Y-41615000D03*
X55372000Y-36281000D03*
X58153500Y-39484500D03*
X58153500Y-38659000D03*
X132334000Y-49743000D03*
X129667000Y-64475000D03*
X138811000Y-38313000D03*
X104902000Y-36916000D03*
X104902000Y-37805000D03*
X109601000Y-54950000D03*
X109601000Y-54026000D03*
X118872000Y-41107000D03*
X123571000Y-41488000D03*
X120269000Y-34503000D03*
X134874000Y-38821000D03*
X128905000Y-38186000D03*
X128651000Y-41361000D03*
D24*
X130937000Y-59141000D03*
X121575000Y-64059000D03*
X124841000Y-60411000D03*
X134493000Y-60665000D03*
X65392500Y-42885000D03*
X56769000Y-41615000D03*
X56769000Y-36281000D03*
X103683000Y-63805000D03*
X110033000Y-63805000D03*
X116459000Y-62633500D03*
X99075000Y-63475000D03*
D25*
X52578000Y-65999000D03*
X101295400Y-77775000D03*
X105461000Y-77775000D03*
X93523000Y-75743000D03*
X114224000Y-83744000D03*
X88392000Y-41361000D03*
X100000000Y-70028000D03*
X112446000Y-78918000D03*
D24*
G04 #@! TO.N,Net-(LED1-Pad2)*
X128143000Y-61681000D03*
G04 #@! TO.N,LE*
X110617000Y-56601000D03*
X107493000Y-57455000D03*
G04 #@! TO.N,DISP_CS*
X130429000Y-48219000D03*
X107061000Y-48854000D03*
G04 #@! TO.N,DISP_RES*
X130556000Y-49235000D03*
X106299000Y-49870000D03*
G04 #@! TO.N,Net-(LED2-Pad2)*
X133223000Y-61681000D03*
G04 #@! TO.N,DISP_SCL*
X133223000Y-45044000D03*
X106553000Y-45933000D03*
G04 #@! TO.N,DISP_SDA*
X133985000Y-45679000D03*
X107569000Y-46187000D03*
G04 #@! TO.N,SW1*
X113919000Y-50505000D03*
X137795000Y-65745000D03*
X77391000Y-140395000D03*
G04 #@! TO.N,SW2*
X109093000Y-47457000D03*
X118364000Y-47457000D03*
X118110000Y-51140000D03*
X135509000Y-66253000D03*
X129080000Y-137347000D03*
G04 #@! TO.N,DISP_DC*
X110617000Y-49997000D03*
X131572000Y-48854000D03*
G04 #@! TO.N,SPK*
X118618000Y-43774000D03*
X121539000Y-43774000D03*
G04 #@! TO.N,RX_LED*
X121539000Y-42377000D03*
X112141000Y-42377000D03*
G04 #@! TO.N,JOY*
X136271000Y-64983000D03*
X114808000Y-51140000D03*
X103759000Y-139217400D03*
G04 #@! TO.N,SW3*
X105181400Y-137490200D03*
X136896000Y-66878000D03*
X118999000Y-46695000D03*
X118999000Y-50886000D03*
X108331000Y-46695000D03*
G04 #@! TO.N,DI*
X114224000Y-57709000D03*
X109398000Y-57275000D03*
G04 #@! TO.N,FEEDBACK*
X122555000Y-60284000D03*
X115951000Y-58379000D03*
G04 #@! TO.N,V_GND*
X129413000Y-63459000D03*
X118542000Y-71679000D03*
D25*
G04 #@! TO.N,VDD_C*
X65583000Y-70155000D03*
X65710000Y-73965000D03*
D24*
G04 #@! TO.N,POL*
X107315000Y-55677000D03*
X105842000Y-55458000D03*
D25*
G04 #@! TO.N,V_HV_C*
X64059000Y-70155000D03*
X64059000Y-72695000D03*
G04 #@! TO.N,+3V3*
X138557000Y-64221000D03*
X110566200Y-140335000D03*
X110566200Y-136474200D03*
X137414000Y-64221000D03*
D24*
X133223000Y-64475000D03*
D25*
X126365000Y-41234000D03*
X125603000Y-39202000D03*
X122479000Y-72314000D03*
X119558000Y-72314000D03*
D24*
G04 #@! TO.N,Net-(C23-Pad2)*
X114427000Y-41615000D03*
X112268000Y-39329000D03*
G04 #@! TO.N,Net-(C25-Pad2)*
X113030000Y-38821000D03*
X115443000Y-41615000D03*
G04 #@! TO.N,AC*
X101651000Y-51267000D03*
X109982000Y-49362000D03*
G04 #@! TO.N,Net-(R3-Pad1)*
X138303000Y-44790000D03*
X136144000Y-45679000D03*
G04 #@! TO.N,RESET*
X107823000Y-43774000D03*
X146431000Y-43266000D03*
G04 #@! TO.N,SWDIO*
X111125000Y-40980000D03*
X105156000Y-40091000D03*
G04 #@! TO.N,SWCLK*
X110109000Y-40970000D03*
X103759000Y-41234000D03*
G04 #@! TO.N,D+*
X131064000Y-44790000D03*
X106299000Y-44917000D03*
G04 #@! TO.N,D13*
X105842000Y-56312000D03*
X140081000Y-56093000D03*
G04 #@! TO.N,Net-(R1-Pad1)*
X80137000Y-58379000D03*
X64897000Y-54823000D03*
G04 #@! TO.N,Net-(R2-Pad2)*
X77343000Y-57363000D03*
X67945000Y-52029000D03*
G04 #@! TO.N,Net-(LED3-Pad2)*
X137719000Y-59550500D03*
G04 #@! TO.N,VSENS*
X101016000Y-52029000D03*
X111506000Y-50124000D03*
G04 #@! TO.N,Net-(SP1-Pad1)*
X129159000Y-60157000D03*
X116967000Y-58379000D03*
G04 #@! TO.N,Net-(SP1-Pad2)*
X118110000Y-57744000D03*
X129790291Y-59566849D03*
G04 #@! TO.N,D-*
X132080000Y-44790000D03*
X105664000Y-45552000D03*
X132250000Y-41953000D03*
X131318000Y-38186000D03*
G04 #@! TO.N,Net-(C28-Pad2)*
X90678000Y-64602000D03*
X90678000Y-67396000D03*
G04 #@! TO.N,Net-(C31-Pad2)*
X93218000Y-64729000D03*
X93853000Y-59141000D03*
G04 #@! TO.N,Net-(D2-Pad1)*
X94567126Y-65069990D03*
X93853000Y-67015000D03*
X99682500Y-73203000D03*
X95428000Y-73076000D03*
G04 #@! TO.N,V_SCK*
X102870000Y-47965000D03*
X97663000Y-51267000D03*
G04 #@! TO.N,V_SI*
X96647000Y-51648000D03*
X103886000Y-50378000D03*
G04 #@! TO.N,V_CS*
X98679000Y-53426000D03*
X106553000Y-52791000D03*
D25*
G04 #@! TO.N,V_USB*
X89281000Y-60284000D03*
X91757500Y-60284000D03*
X87947500Y-66888000D03*
X92329000Y-45171000D03*
X82169000Y-62951000D03*
X113208000Y-62535000D03*
D24*
G04 #@! TO.N,Net-(C11-Pad1)*
X122936000Y-53172000D03*
X117094000Y-50886000D03*
G04 #@! TO.N,SENS_PAD*
X121590000Y-66091000D03*
X102540000Y-57836000D03*
G04 #@! TO.N,Net-(U16-Pad11)*
X91948000Y-67396000D03*
X94869000Y-67015000D03*
X98171000Y-67015000D03*
X95412277Y-64979211D03*
G04 #@! TO.N,Net-(J1-PadB5)*
X137414000Y-38059000D03*
X132207000Y-38186000D03*
G04 #@! TO.N,Net-(JS2-Pad1)*
X96240600Y-135864600D03*
G04 #@! TO.N,Net-(JS2-Pad3)*
X97459800Y-138506200D03*
G04 #@! TO.N,Net-(JS2-Pad6)*
X99999800Y-142367000D03*
G04 #@! TO.N,DIG1*
X119812000Y-65456000D03*
X110287000Y-52616300D03*
X113081000Y-52121000D03*
X112700000Y-59995000D03*
G04 #@! TO.N,DIG0*
X120701000Y-65710000D03*
X111303000Y-53137000D03*
X113843000Y-52756000D03*
X113589000Y-59614000D03*
G04 #@! TD*
D26*
G04 #@! TO.N,Net-(C1-Pad1)*
X76073000Y-50359001D02*
X76472999Y-50359001D01*
X80137000Y-46695000D02*
X83693000Y-46695000D01*
X76472999Y-50359001D02*
X80137000Y-46695000D01*
X69215000Y-50759000D02*
X69614999Y-50359001D01*
X69614999Y-50359001D02*
X76073000Y-50359001D01*
X76073000Y-50359001D02*
X76218999Y-50359001D01*
G04 #@! TO.N,GND*
X148463000Y-53045000D02*
X146685000Y-53045000D01*
X148463000Y-63000000D02*
X148463000Y-65491000D01*
X148463000Y-65491000D02*
X147447000Y-66507000D01*
X148463000Y-63000000D02*
X148463000Y-59268000D01*
X148463000Y-59268000D02*
X148463000Y-53045000D01*
D27*
X128651000Y-41361000D02*
X128524000Y-41361000D01*
X130950980Y-60411000D02*
X130950980Y-59154980D01*
X130950980Y-59154980D02*
X130937000Y-59141000D01*
X124930000Y-60500000D02*
X124841000Y-60411000D01*
D28*
X130937000Y-60513980D02*
X130950980Y-60500000D01*
D29*
X127975000Y-135950000D02*
X128059000Y-136034000D01*
D28*
X126212500Y-60411000D02*
X124841000Y-60411000D01*
X134747000Y-60411000D02*
X134493000Y-60665000D01*
X136212500Y-60411000D02*
X134747000Y-60411000D01*
D26*
X93523000Y-75743000D02*
X93777000Y-75743000D01*
X100000000Y-74092000D02*
X101016000Y-73076000D01*
X101016000Y-73076000D02*
X101016000Y-71044000D01*
X101016000Y-71044000D02*
X100000000Y-70028000D01*
X112446000Y-78918000D02*
X112700000Y-79172000D01*
X112700000Y-79172000D02*
X112700000Y-81712000D01*
X114224000Y-83236000D02*
X114224000Y-83744000D01*
X112700000Y-81712000D02*
X114224000Y-83236000D01*
X94920000Y-74600000D02*
X95428000Y-74092000D01*
X94920000Y-74600000D02*
X97206000Y-74600000D01*
X93777000Y-75743000D02*
X94920000Y-74600000D01*
X97206000Y-74600000D02*
X97460000Y-74346000D01*
X95428000Y-74092000D02*
X100000000Y-74092000D01*
D28*
G04 #@! TO.N,Net-(LED1-Pad2)*
X128143000Y-60593980D02*
X128143000Y-61681000D01*
X128143000Y-60593980D02*
X128049020Y-60500000D01*
G04 #@! TO.N,LE*
X108347000Y-56601000D02*
X107493000Y-57455000D01*
X108763000Y-56601000D02*
X108347000Y-56601000D01*
X108763000Y-56601000D02*
X110617000Y-56601000D01*
G04 #@! TO.N,DISP_CS*
X108077000Y-48219000D02*
X130429000Y-48219000D01*
X107696000Y-48219000D02*
X107061000Y-48854000D01*
X108077000Y-48219000D02*
X107696000Y-48219000D01*
G04 #@! TO.N,DISP_RES*
X129413000Y-48727000D02*
X129540000Y-48727000D01*
X130048000Y-49235000D02*
X130556000Y-49235000D01*
X129540000Y-48727000D02*
X130048000Y-49235000D01*
X108839000Y-48727000D02*
X108204000Y-48727000D01*
X108839000Y-48727000D02*
X129413000Y-48727000D01*
X108204000Y-48727000D02*
X107061000Y-49870000D01*
X107061000Y-49870000D02*
X106299000Y-49870000D01*
G04 #@! TO.N,Net-(LED2-Pad2)*
X133049020Y-60411000D02*
X133049020Y-61507020D01*
X133049020Y-61507020D02*
X133223000Y-61681000D01*
G04 #@! TO.N,DISP_SCL*
X132842000Y-45425000D02*
X107061000Y-45425000D01*
X107061000Y-45425000D02*
X106553000Y-45933000D01*
X133223000Y-45044000D02*
X132842000Y-45425000D01*
G04 #@! TO.N,DISP_SDA*
X108077000Y-45933000D02*
X107823000Y-45933000D01*
X133604000Y-45933000D02*
X115443000Y-45933000D01*
X115443000Y-45933000D02*
X108077000Y-45933000D01*
X133731000Y-45933000D02*
X133985000Y-45679000D01*
X133604000Y-45933000D02*
X133731000Y-45933000D01*
X107823000Y-45933000D02*
X107569000Y-46187000D01*
G04 #@! TO.N,SW1*
X117856000Y-51902000D02*
X117729000Y-51902000D01*
X116586000Y-51775000D02*
X115824000Y-51013000D01*
X117602000Y-51775000D02*
X116586000Y-51775000D01*
X117729000Y-51902000D02*
X117602000Y-51775000D01*
X140843000Y-54569000D02*
X142113000Y-55839000D01*
X143891000Y-60919000D02*
X143891000Y-62062000D01*
X142113000Y-59141000D02*
X143891000Y-60919000D01*
X142113000Y-55839000D02*
X142113000Y-59141000D01*
X122555000Y-55077000D02*
X121031000Y-55077000D01*
X113919000Y-50505000D02*
X115316000Y-50505000D01*
X115316000Y-50505000D02*
X115824000Y-51013000D01*
X121031000Y-55077000D02*
X117856000Y-51902000D01*
X123063000Y-55077000D02*
X122555000Y-55077000D01*
X143891000Y-62062000D02*
X143891000Y-64846000D01*
X123063000Y-55077000D02*
X139190590Y-55077000D01*
X139190590Y-55077000D02*
X139698590Y-54569000D01*
X139698590Y-54569000D02*
X140843000Y-54569000D01*
X138420000Y-65608000D02*
X138283000Y-65745000D01*
X143891000Y-64846000D02*
X143129000Y-65608000D01*
X143129000Y-65608000D02*
X138420000Y-65608000D01*
X138283000Y-65745000D02*
X137795000Y-65745000D01*
X122555000Y-55077000D02*
X122428000Y-55077000D01*
D29*
X81000000Y-140450000D02*
X77446000Y-140450000D01*
X77391000Y-140395000D02*
X77446000Y-140450000D01*
D28*
G04 #@! TO.N,SW2*
X109093000Y-47457000D02*
X110363000Y-47457000D01*
X110363000Y-47457000D02*
X118364000Y-47457000D01*
X121666000Y-54569000D02*
X118872000Y-51775000D01*
X118745000Y-51775000D02*
X118110000Y-51140000D01*
X118872000Y-51775000D02*
X118745000Y-51775000D01*
X141478000Y-54118990D02*
X141535990Y-54118990D01*
X144399000Y-60411000D02*
X144399000Y-62570000D01*
X142748000Y-58760000D02*
X144399000Y-60411000D01*
X142748000Y-55331000D02*
X142748000Y-58760000D01*
X141535990Y-54118990D02*
X142748000Y-55331000D01*
X118110000Y-51140000D02*
X118110000Y-51267000D01*
X137287000Y-66253000D02*
X135509000Y-66253000D01*
X137404001Y-66370001D02*
X137287000Y-66253000D01*
X138212002Y-66253000D02*
X138095001Y-66370001D01*
X138095001Y-66370001D02*
X137404001Y-66370001D01*
X139062180Y-54569000D02*
X139512190Y-54118990D01*
X139512190Y-54118990D02*
X141478000Y-54118990D01*
X123571000Y-54569000D02*
X139062180Y-54569000D01*
X144399000Y-65491000D02*
X143637000Y-66253000D01*
X144399000Y-62570000D02*
X144399000Y-65491000D01*
X143637000Y-66253000D02*
X138212002Y-66253000D01*
X123571000Y-54569000D02*
X121666000Y-54569000D01*
D29*
X129000000Y-137427000D02*
X129000000Y-140450000D01*
X129080000Y-137347000D02*
X129000000Y-137427000D01*
D28*
G04 #@! TO.N,DISP_DC*
X110998000Y-49489000D02*
X110617000Y-49997000D01*
X130810000Y-49997000D02*
X129413000Y-49997000D01*
X129413000Y-49997000D02*
X128905000Y-49489000D01*
X128905000Y-49489000D02*
X110998000Y-49489000D01*
X131572000Y-49235000D02*
X130810000Y-49997000D01*
X131572000Y-48854000D02*
X131572000Y-49235000D01*
G04 #@! TO.N,SPK*
X118618000Y-43774000D02*
X121539000Y-43774000D01*
G04 #@! TO.N,RX_LED*
X117856000Y-42631000D02*
X121285000Y-42631000D01*
X121285000Y-42631000D02*
X121539000Y-42377000D01*
X113157000Y-42631000D02*
X113411000Y-42885000D01*
X117602000Y-42885000D02*
X117856000Y-42631000D01*
X113411000Y-42885000D02*
X117602000Y-42885000D01*
X112141000Y-42377000D02*
X112903000Y-42377000D01*
X112903000Y-42377000D02*
X113157000Y-42631000D01*
G04 #@! TO.N,JOY*
X117348000Y-52410000D02*
X116078000Y-52410000D01*
X116078000Y-52410000D02*
X115443000Y-51775000D01*
X143383000Y-61554000D02*
X143383000Y-61681000D01*
X143383000Y-61554000D02*
X141351000Y-59522000D01*
X140335000Y-55077000D02*
X141351000Y-56093000D01*
X141351000Y-56093000D02*
X141351000Y-59522000D01*
X121920000Y-55585000D02*
X122809000Y-55585000D01*
X115443000Y-51775000D02*
X114808000Y-51140000D01*
X139319000Y-55585000D02*
X139827000Y-55077000D01*
X122809000Y-55585000D02*
X139319000Y-55585000D01*
X120523000Y-55585000D02*
X117348000Y-52410000D01*
X121920000Y-55585000D02*
X120523000Y-55585000D01*
X139827000Y-55077000D02*
X140335000Y-55077000D01*
X142621000Y-64983000D02*
X136271000Y-64983000D01*
X143383000Y-61554000D02*
X143383000Y-61681000D01*
X143383000Y-61681000D02*
X143383000Y-64221000D01*
X143383000Y-64221000D02*
X142621000Y-64983000D01*
X114808000Y-51140000D02*
X114935000Y-51140000D01*
D29*
X103535334Y-140253866D02*
X104214200Y-139575000D01*
X103535334Y-140636080D02*
X103535334Y-140253866D01*
X103759000Y-139217400D02*
X104116600Y-139575000D01*
X104116600Y-139575000D02*
X104214200Y-139575000D01*
G04 #@! TO.N,SW3*
X100203000Y-134848600D02*
X100203000Y-134747000D01*
X100203000Y-134747000D02*
X100609400Y-134340600D01*
X97471893Y-136587893D02*
X98081493Y-136587893D01*
X98081493Y-136587893D02*
X98272600Y-136779000D01*
X98272600Y-136779000D02*
X99695000Y-136779000D01*
X99695000Y-136779000D02*
X99898200Y-136575800D01*
X100203000Y-134848600D02*
X100203000Y-136271000D01*
X103657400Y-134340600D02*
X100609400Y-134340600D01*
X105100000Y-135783200D02*
X103657400Y-134340600D01*
X100203000Y-136271000D02*
X99898200Y-136575800D01*
X105100000Y-135875000D02*
X105100000Y-135783200D01*
X105100000Y-137408800D02*
X105100000Y-135875000D01*
X105181400Y-137490200D02*
X105100000Y-137408800D01*
D28*
X136896000Y-66878000D02*
X140361002Y-66878000D01*
X140498002Y-67015000D02*
X143891000Y-67015000D01*
X140361002Y-66878000D02*
X140498002Y-67015000D01*
X142113000Y-53668982D02*
X142113000Y-53680000D01*
X144907000Y-59903000D02*
X144907000Y-62443000D01*
X143510000Y-58506000D02*
X144907000Y-59903000D01*
X143510000Y-55077000D02*
X143510000Y-58506000D01*
X142113000Y-53680000D02*
X143510000Y-55077000D01*
X124079000Y-54061000D02*
X122555000Y-54061000D01*
X122555000Y-54061000D02*
X118999000Y-50886000D01*
X144907000Y-65999000D02*
X144907000Y-62443000D01*
X143891000Y-67015000D02*
X144907000Y-65999000D01*
X142113000Y-53668982D02*
X139325791Y-53668981D01*
X139325791Y-53668981D02*
X138933770Y-54061000D01*
X138933770Y-54061000D02*
X124079000Y-54061000D01*
X108331000Y-46695000D02*
X118872000Y-46695000D01*
G04 #@! TO.N,DI*
X113775000Y-57275000D02*
X113875000Y-57375000D01*
X109398000Y-57275000D02*
X113775000Y-57275000D01*
X113790000Y-57275000D02*
X114224000Y-57709000D01*
X113775000Y-57275000D02*
X113790000Y-57275000D01*
G04 #@! TO.N,FEEDBACK*
X115951000Y-58379000D02*
X116713000Y-59141000D01*
X122555000Y-60157000D02*
X122555000Y-60284000D01*
X121539000Y-59141000D02*
X122555000Y-60157000D01*
X120904000Y-59141000D02*
X121539000Y-59141000D01*
X116713000Y-59141000D02*
X120904000Y-59141000D01*
X115951000Y-58379000D02*
X115951000Y-58506000D01*
G04 #@! TO.N,V_GND*
X142240000Y-63240000D02*
X142000000Y-63000000D01*
X141859000Y-63141000D02*
X142000000Y-63000000D01*
X141541000Y-63459000D02*
X129413000Y-63459000D01*
X141541000Y-63459000D02*
X142000000Y-63000000D01*
X129413000Y-63459000D02*
X128413000Y-63459000D01*
X128413000Y-63459000D02*
X127940000Y-63932000D01*
X127940000Y-69012000D02*
X127432000Y-69520000D01*
X127940000Y-63932000D02*
X127940000Y-69012000D01*
X127432000Y-69520000D02*
X125527000Y-71425000D01*
X122733000Y-71425000D02*
X123114000Y-71425000D01*
X123114000Y-71425000D02*
X122987000Y-71425000D01*
X118542000Y-71679000D02*
X118796000Y-71425000D01*
X118796000Y-71425000D02*
X123622000Y-71425000D01*
X125527000Y-71425000D02*
X123622000Y-71425000D01*
X123622000Y-71425000D02*
X123114000Y-71425000D01*
D26*
G04 #@! TO.N,VDD_C*
X65583000Y-73838000D02*
X65710000Y-73965000D01*
X65583000Y-70155000D02*
X65583000Y-73838000D01*
D28*
G04 #@! TO.N,POL*
X107096000Y-55458000D02*
X107315000Y-55677000D01*
X106604000Y-55458000D02*
X107096000Y-55458000D01*
X106604000Y-55458000D02*
X105842000Y-55458000D01*
D26*
G04 #@! TO.N,V_HV_C*
X64059000Y-70155000D02*
X64059000Y-72695000D01*
D27*
G04 #@! TO.N,+3V3*
X110566200Y-136474200D02*
X110566200Y-140335000D01*
X137368001Y-64175001D02*
X137414000Y-64221000D01*
X133223000Y-64475000D02*
X133522999Y-64175001D01*
X133522999Y-64175001D02*
X137368001Y-64175001D01*
X126365000Y-39964000D02*
X126365000Y-41234000D01*
X125603000Y-39202000D02*
X126365000Y-39964000D01*
X122479000Y-72314000D02*
X119558000Y-72314000D01*
D28*
G04 #@! TO.N,Net-(C23-Pad2)*
X114427000Y-41615000D02*
X114427000Y-41488000D01*
X114427000Y-41488000D02*
X112268000Y-39329000D01*
G04 #@! TO.N,Net-(C25-Pad2)*
X115443000Y-41488000D02*
X113030000Y-39075000D01*
X113030000Y-39075000D02*
X113030000Y-38821000D01*
X115443000Y-41615000D02*
X115443000Y-41488000D01*
G04 #@! TO.N,AC*
X109855000Y-49362000D02*
X107950000Y-51267000D01*
X107950000Y-51267000D02*
X102362000Y-51267000D01*
X109982000Y-49362000D02*
X109855000Y-49362000D01*
D27*
X102362000Y-51267000D02*
X101651000Y-51267000D01*
D28*
G04 #@! TO.N,Net-(R3-Pad1)*
X137414000Y-45679000D02*
X138303000Y-44790000D01*
X137414000Y-45679000D02*
X136144000Y-45679000D01*
X136144000Y-45679000D02*
X136271000Y-45679000D01*
G04 #@! TO.N,RESET*
X118364000Y-43139000D02*
X146304000Y-43139000D01*
X146304000Y-43139000D02*
X146431000Y-43266000D01*
X112014000Y-43139000D02*
X108966000Y-43139000D01*
X108966000Y-43139000D02*
X108331000Y-43774000D01*
X108331000Y-43774000D02*
X107823000Y-43774000D01*
X112395000Y-43139000D02*
X112649000Y-43393000D01*
X112649000Y-43393000D02*
X118110000Y-43393000D01*
X118110000Y-43393000D02*
X118364000Y-43139000D01*
X112014000Y-43139000D02*
X112395000Y-43139000D01*
G04 #@! TO.N,SWDIO*
X105156000Y-40091000D02*
X110533264Y-40091000D01*
X111125000Y-40682736D02*
X111125000Y-40980000D01*
X110533264Y-40091000D02*
X111125000Y-40682736D01*
D29*
G04 #@! TO.N,SWCLK*
X104013000Y-40970000D02*
X104013000Y-40980000D01*
D28*
X104013000Y-40980000D02*
X103759000Y-41234000D01*
X110109000Y-40970000D02*
X104013000Y-40970000D01*
X103886000Y-41107000D02*
X103759000Y-41234000D01*
G04 #@! TO.N,D+*
X111887000Y-44917000D02*
X130937000Y-44917000D01*
X106299000Y-44917000D02*
X111887000Y-44917000D01*
X130937000Y-44917000D02*
X131064000Y-44790000D01*
G04 #@! TO.N,D13*
X111252000Y-55839000D02*
X109855000Y-55839000D01*
X140081000Y-56093000D02*
X111506000Y-56093000D01*
X109855000Y-55839000D02*
X109601000Y-56093000D01*
X111506000Y-56093000D02*
X111252000Y-55839000D01*
X107782000Y-56312000D02*
X108001000Y-56093000D01*
X105842000Y-56312000D02*
X107782000Y-56312000D01*
X109601000Y-56093000D02*
X108001000Y-56093000D01*
G04 #@! TO.N,Net-(R1-Pad1)*
X68453000Y-58379000D02*
X80137000Y-58379000D01*
X64897000Y-54823000D02*
X68453000Y-58379000D01*
G04 #@! TO.N,Net-(R2-Pad2)*
X67945000Y-54569000D02*
X70739000Y-57363000D01*
X70739000Y-57363000D02*
X77343000Y-57363000D01*
X67945000Y-52029000D02*
X67945000Y-54569000D01*
G04 #@! TO.N,Net-(LED3-Pad2)*
X138138020Y-60411000D02*
X138049020Y-60500000D01*
X137787500Y-59619000D02*
X137719000Y-59550500D01*
X137787500Y-60411000D02*
X137787500Y-59619000D01*
G04 #@! TO.N,VSENS*
X101473000Y-52029000D02*
X101016000Y-52029000D01*
X110871000Y-52029000D02*
X101473000Y-52029000D01*
X111506000Y-50124000D02*
X111506000Y-51394000D01*
X111506000Y-51394000D02*
X110871000Y-52029000D01*
G04 #@! TO.N,Net-(SP1-Pad1)*
X116967000Y-58379000D02*
X121666000Y-58379000D01*
X121666000Y-58379000D02*
X122682000Y-59395000D01*
X122682000Y-59395000D02*
X128905000Y-59395000D01*
X129159000Y-60157000D02*
X129159000Y-59649000D01*
X129159000Y-59649000D02*
X128905000Y-59395000D01*
G04 #@! TO.N,Net-(SP1-Pad2)*
X118110000Y-57744000D02*
X121920000Y-57744000D01*
X122555000Y-58379000D02*
X122809000Y-58633000D01*
X122809000Y-58633000D02*
X123063000Y-58887000D01*
X129534706Y-58887000D02*
X129413000Y-58887000D01*
X129790291Y-59142585D02*
X129534706Y-58887000D01*
X129790291Y-59566849D02*
X129790291Y-59142585D01*
X123063000Y-58887000D02*
X129413000Y-58887000D01*
X121920000Y-57744000D02*
X122555000Y-58379000D01*
G04 #@! TO.N,D-*
X132207000Y-41910000D02*
X132207000Y-38948000D01*
X132207000Y-38948000D02*
X131318000Y-38186000D01*
X131699000Y-44155000D02*
X132080000Y-44536000D01*
X132080000Y-44536000D02*
X132080000Y-44790000D01*
X130429000Y-44409000D02*
X130683000Y-44155000D01*
X105791000Y-44155000D02*
X106807000Y-44155000D01*
X105664000Y-45552000D02*
X105664000Y-44155000D01*
X105664000Y-44155000D02*
X105791000Y-44155000D01*
X107061000Y-44409000D02*
X123317000Y-44409000D01*
X106807000Y-44155000D02*
X107061000Y-44409000D01*
X123317000Y-44409000D02*
X130429000Y-44409000D01*
X130683000Y-44155000D02*
X131699000Y-44155000D01*
X132207000Y-41910000D02*
X132250000Y-41953000D01*
G04 #@! TO.N,Net-(C28-Pad2)*
X90678000Y-64602000D02*
X90678000Y-67396000D01*
G04 #@! TO.N,Net-(C31-Pad2)*
X93154500Y-58950500D02*
X93345000Y-59141000D01*
X93345000Y-59141000D02*
X93853000Y-59141000D01*
X90551000Y-59776000D02*
X91376500Y-58950500D01*
X90551000Y-61173000D02*
X90551000Y-59776000D01*
X93154500Y-63776500D02*
X90551000Y-61173000D01*
X93154500Y-64665500D02*
X93154500Y-63776500D01*
X93218000Y-64729000D02*
X93154500Y-64665500D01*
X91376500Y-58950500D02*
X93154500Y-58950500D01*
G04 #@! TO.N,Net-(D2-Pad1)*
X94267127Y-65369989D02*
X94567126Y-65069990D01*
X93853000Y-67015000D02*
X93853000Y-65784116D01*
X93853000Y-65784116D02*
X94267127Y-65369989D01*
X98158500Y-73076000D02*
X99555500Y-73076000D01*
X99555500Y-73076000D02*
X99682500Y-73203000D01*
X98158500Y-73076000D02*
X95428000Y-73076000D01*
X98349000Y-73076000D02*
X98158500Y-73076000D01*
G04 #@! TO.N,V_SCK*
X102870000Y-47965000D02*
X101981000Y-47965000D01*
X101981000Y-47965000D02*
X98679000Y-51267000D01*
X98679000Y-51267000D02*
X97663000Y-51267000D01*
G04 #@! TO.N,V_SI*
X97028000Y-52029000D02*
X96647000Y-51648000D01*
X100203000Y-50632000D02*
X98806000Y-52029000D01*
X103632000Y-50632000D02*
X100203000Y-50632000D01*
X103886000Y-50378000D02*
X103632000Y-50632000D01*
X98806000Y-52029000D02*
X97028000Y-52029000D01*
G04 #@! TO.N,V_CS*
X99695000Y-52791000D02*
X99314000Y-52791000D01*
X106553000Y-52791000D02*
X99695000Y-52791000D01*
X99314000Y-52791000D02*
X98679000Y-53426000D01*
D26*
G04 #@! TO.N,V_USB*
X86360000Y-61427000D02*
X82931000Y-61427000D01*
X86677500Y-61427000D02*
X87820500Y-60284000D01*
X89281000Y-60284000D02*
X87820500Y-60284000D01*
X86360000Y-61427000D02*
X86677500Y-61427000D01*
X82169000Y-62189000D02*
X82169000Y-62951000D01*
X82931000Y-61427000D02*
X82169000Y-62189000D01*
X89281000Y-65554500D02*
X87947500Y-66888000D01*
X89281000Y-60284000D02*
X89281000Y-65554500D01*
X82296000Y-59268000D02*
X82042000Y-59522000D01*
X91948000Y-47076000D02*
X92329000Y-46695000D01*
X92329000Y-46695000D02*
X92329000Y-45171000D01*
X82296000Y-59268000D02*
X85344000Y-56220000D01*
X85344000Y-56220000D02*
X85344000Y-51013000D01*
X85344000Y-51013000D02*
X89281000Y-47076000D01*
X89281000Y-47076000D02*
X91948000Y-47076000D01*
X82042000Y-59522000D02*
X67881500Y-59522000D01*
X59230000Y-50065000D02*
X59504000Y-50065000D01*
X59504000Y-50065000D02*
X61912500Y-52473500D01*
X67881500Y-59522000D02*
X64960500Y-56601000D01*
X61912500Y-53553000D02*
X64960500Y-56601000D01*
X61912500Y-52473500D02*
X61912500Y-53553000D01*
X99330000Y-62408000D02*
X98603000Y-61681000D01*
X98603000Y-61681000D02*
X94361000Y-61681000D01*
X92964000Y-60284000D02*
X91757500Y-60284000D01*
X94361000Y-61681000D02*
X92964000Y-60284000D01*
X113081000Y-62408000D02*
X113208000Y-62535000D01*
X112319000Y-62408000D02*
X113081000Y-62408000D01*
X112319000Y-62408000D02*
X99330000Y-62408000D01*
X112827000Y-62408000D02*
X112319000Y-62408000D01*
D28*
G04 #@! TO.N,Net-(C11-Pad1)*
X117348000Y-50632000D02*
X117094000Y-50886000D01*
X122936000Y-53172000D02*
X119888000Y-50124000D01*
X119888000Y-50124000D02*
X117856000Y-50124000D01*
X117856000Y-50124000D02*
X117348000Y-50632000D01*
G04 #@! TO.N,SENS_PAD*
X121209000Y-66472000D02*
X121590000Y-66091000D01*
X119050000Y-65837000D02*
X119685000Y-66472000D01*
X119050000Y-61138000D02*
X119050000Y-65837000D01*
X118561010Y-60649010D02*
X119050000Y-61138000D01*
X119685000Y-66472000D02*
X121209000Y-66472000D01*
X102540000Y-57836000D02*
X103937000Y-57836000D01*
X103937000Y-57836000D02*
X103937000Y-57963000D01*
X103937000Y-57963000D02*
X105715000Y-59741000D01*
X105715000Y-59741000D02*
X106858000Y-59741000D01*
X106858000Y-59741000D02*
X107766010Y-60649010D01*
X107766010Y-60649010D02*
X118561010Y-60649010D01*
G04 #@! TO.N,Net-(U16-Pad11)*
X94234000Y-67650000D02*
X94869000Y-67015000D01*
X92202000Y-67650000D02*
X94234000Y-67650000D01*
X91948000Y-67396000D02*
X92202000Y-67650000D01*
X95412277Y-65618000D02*
X95412277Y-67015000D01*
X95412277Y-67015000D02*
X95504000Y-67015000D01*
X94869000Y-67015000D02*
X95504000Y-67015000D01*
X95504000Y-67015000D02*
X98171000Y-67015000D01*
X95412277Y-65403475D02*
X95412277Y-65618000D01*
X95412277Y-65618000D02*
X95412277Y-65653277D01*
X95412277Y-65403475D02*
X95412277Y-64979211D01*
D29*
G04 #@! TO.N,Net-(J1-PadB5)*
X137160000Y-37805000D02*
X137414000Y-38059000D01*
X132588000Y-37805000D02*
X137160000Y-37805000D01*
X132207000Y-38186000D02*
X132588000Y-37805000D01*
G04 #@! TO.N,Net-(JS2-Pad1)*
X96240600Y-135864600D02*
X96240600Y-135661400D01*
X97747854Y-134848600D02*
X98479520Y-135580266D01*
X97053400Y-134848600D02*
X97747854Y-134848600D01*
X96240600Y-135661400D02*
X97053400Y-134848600D01*
G04 #@! TO.N,Net-(JS2-Pad3)*
X96464266Y-137595520D02*
X96549120Y-137595520D01*
X96549120Y-137595520D02*
X97459800Y-138506200D01*
X96464266Y-137595520D02*
X96464266Y-138010734D01*
G04 #@! TO.N,Net-(JS2-Pad6)*
X101520080Y-142651334D02*
X100284134Y-142651334D01*
X100284134Y-142651334D02*
X99999800Y-142367000D01*
D28*
G04 #@! TO.N,DIG1*
X110287000Y-52616300D02*
X110807700Y-52616300D01*
X110807700Y-52616300D02*
X110934700Y-52616300D01*
X110934700Y-52616300D02*
X111176000Y-52375000D01*
X111176000Y-52375000D02*
X112827000Y-52375000D01*
X112827000Y-52375000D02*
X113081000Y-52121000D01*
X112954000Y-60249000D02*
X112700000Y-59995000D01*
X118796000Y-60249000D02*
X112954000Y-60249000D01*
X119812000Y-65456000D02*
X119812000Y-61265000D01*
X119812000Y-61265000D02*
X118796000Y-60249000D01*
G04 #@! TO.N,DIG0*
X120701000Y-65202000D02*
X120701000Y-65710000D01*
X111303000Y-53137000D02*
X113462000Y-53137000D01*
X113462000Y-53137000D02*
X113843000Y-52756000D01*
X120701000Y-65202000D02*
X120701000Y-63805000D01*
X120701000Y-63805000D02*
X120447000Y-63551000D01*
X120447000Y-63551000D02*
X120447000Y-61011000D01*
X120447000Y-61011000D02*
X119177000Y-59741000D01*
X119177000Y-59741000D02*
X114732000Y-59741000D01*
X113716000Y-59741000D02*
X113589000Y-59614000D01*
X114732000Y-59741000D02*
X113716000Y-59741000D01*
G04 #@! TD*
D30*
G04 #@! TO.N,GND*
G36*
X146707901Y-31551360D02*
X147386891Y-31764143D01*
X148009226Y-32109109D01*
X148549479Y-32572163D01*
X148985592Y-33134395D01*
X149299745Y-33772838D01*
X149480586Y-34467098D01*
X149523001Y-35018335D01*
X149523000Y-38953025D01*
X149513656Y-39000000D01*
X149550677Y-39186116D01*
X149620344Y-39290380D01*
X149656103Y-39343897D01*
X149741572Y-39401005D01*
X149726067Y-39416510D01*
X149623000Y-39665336D01*
X149623000Y-39934664D01*
X149726067Y-40183490D01*
X149742577Y-40200000D01*
X149726067Y-40216510D01*
X149623000Y-40465336D01*
X149623000Y-40734664D01*
X149726067Y-40983490D01*
X149742577Y-41000000D01*
X149726067Y-41016510D01*
X149623000Y-41265336D01*
X149623000Y-41534664D01*
X149726067Y-41783490D01*
X149742577Y-41800000D01*
X149726067Y-41816510D01*
X149623000Y-42065336D01*
X149623000Y-42334664D01*
X149726067Y-42583490D01*
X149741572Y-42598995D01*
X149656103Y-42656103D01*
X149550677Y-42813884D01*
X149513656Y-43000000D01*
X149523001Y-43046980D01*
X149523001Y-60873000D01*
X148721750Y-60873000D01*
X148590000Y-61004750D01*
X148590000Y-61711643D01*
X148490320Y-61652285D01*
X148336000Y-61806605D01*
X148336000Y-61004750D01*
X148204250Y-60873000D01*
X147364763Y-60873000D01*
X147344906Y-60865221D01*
X146942414Y-60873000D01*
X146858173Y-60873000D01*
X146854050Y-60874708D01*
X146498891Y-60881572D01*
X145793221Y-61173871D01*
X145615286Y-61472678D01*
X145521082Y-61378474D01*
X145459000Y-61440556D01*
X145459000Y-59957364D01*
X145469814Y-59902999D01*
X145426972Y-59687620D01*
X145413648Y-59667679D01*
X145304970Y-59505030D01*
X145258880Y-59474234D01*
X144062000Y-58277355D01*
X144062000Y-55131364D01*
X144072814Y-55076999D01*
X144029972Y-54861620D01*
X144004167Y-54823000D01*
X143907970Y-54679030D01*
X143861880Y-54648234D01*
X142563955Y-53350310D01*
X142510970Y-53271012D01*
X142328379Y-53149010D01*
X142113000Y-53106168D01*
X142058630Y-53116983D01*
X139380156Y-53116981D01*
X139325792Y-53106167D01*
X139271427Y-53116981D01*
X139110412Y-53149009D01*
X138927822Y-53271011D01*
X138897026Y-53317101D01*
X138705126Y-53509000D01*
X123583309Y-53509000D01*
X123663000Y-53316609D01*
X123663000Y-53027391D01*
X123552321Y-52760187D01*
X123347813Y-52555679D01*
X123080609Y-52445000D01*
X122989646Y-52445000D01*
X120585645Y-50041000D01*
X128676355Y-50041000D01*
X128984233Y-50348879D01*
X129015030Y-50394970D01*
X129161785Y-50493028D01*
X129197620Y-50516972D01*
X129412999Y-50559814D01*
X129467364Y-50549000D01*
X130755635Y-50549000D01*
X130810000Y-50559814D01*
X130864365Y-50549000D01*
X131025380Y-50516972D01*
X131207970Y-50394970D01*
X131238769Y-50348876D01*
X131923876Y-49663769D01*
X131969970Y-49632970D01*
X132091972Y-49450380D01*
X132113877Y-49340257D01*
X132188321Y-49265813D01*
X132299000Y-48998609D01*
X132299000Y-48709391D01*
X132188321Y-48442187D01*
X131983813Y-48237679D01*
X131716609Y-48127000D01*
X131427391Y-48127000D01*
X131160187Y-48237679D01*
X131156000Y-48241866D01*
X131156000Y-48074391D01*
X131045321Y-47807187D01*
X130840813Y-47602679D01*
X130573609Y-47492000D01*
X130284391Y-47492000D01*
X130017187Y-47602679D01*
X129952866Y-47667000D01*
X119063914Y-47667000D01*
X119091000Y-47601609D01*
X119091000Y-47422000D01*
X119143609Y-47422000D01*
X119410813Y-47311321D01*
X119615321Y-47106813D01*
X119726000Y-46839609D01*
X119726000Y-46550391D01*
X119698914Y-46485000D01*
X133676635Y-46485000D01*
X133731000Y-46495814D01*
X133785365Y-46485000D01*
X133946380Y-46452972D01*
X134016679Y-46406000D01*
X134129609Y-46406000D01*
X134396813Y-46295321D01*
X134601321Y-46090813D01*
X134712000Y-45823609D01*
X134712000Y-45534391D01*
X135417000Y-45534391D01*
X135417000Y-45823609D01*
X135527679Y-46090813D01*
X135732187Y-46295321D01*
X135999391Y-46406000D01*
X136288609Y-46406000D01*
X136555813Y-46295321D01*
X136620134Y-46231000D01*
X137359635Y-46231000D01*
X137414000Y-46241814D01*
X137468365Y-46231000D01*
X137629380Y-46198972D01*
X137811970Y-46076970D01*
X137842769Y-46030876D01*
X138356645Y-45517000D01*
X138447609Y-45517000D01*
X138714813Y-45406321D01*
X138919321Y-45201813D01*
X139030000Y-44934609D01*
X139030000Y-44645391D01*
X138919321Y-44378187D01*
X138714813Y-44173679D01*
X138447609Y-44063000D01*
X138158391Y-44063000D01*
X137891187Y-44173679D01*
X137686679Y-44378187D01*
X137576000Y-44645391D01*
X137576000Y-44736355D01*
X137185355Y-45127000D01*
X136620134Y-45127000D01*
X136555813Y-45062679D01*
X136288609Y-44952000D01*
X135999391Y-44952000D01*
X135732187Y-45062679D01*
X135527679Y-45267187D01*
X135417000Y-45534391D01*
X134712000Y-45534391D01*
X134601321Y-45267187D01*
X134396813Y-45062679D01*
X134129609Y-44952000D01*
X133950000Y-44952000D01*
X133950000Y-44899391D01*
X133839321Y-44632187D01*
X133634813Y-44427679D01*
X133367609Y-44317000D01*
X133078391Y-44317000D01*
X132811187Y-44427679D01*
X132744460Y-44494406D01*
X132696321Y-44378187D01*
X132521879Y-44203745D01*
X132477970Y-44138030D01*
X132431879Y-44107234D01*
X132127768Y-43803123D01*
X132096970Y-43757030D01*
X131998149Y-43691000D01*
X145827866Y-43691000D01*
X146019187Y-43882321D01*
X146286391Y-43993000D01*
X146575609Y-43993000D01*
X146842813Y-43882321D01*
X147047321Y-43677813D01*
X147158000Y-43410609D01*
X147158000Y-43121391D01*
X147047321Y-42854187D01*
X146842813Y-42649679D01*
X146575609Y-42539000D01*
X146286391Y-42539000D01*
X146170508Y-42587000D01*
X132619132Y-42587000D01*
X132661813Y-42569321D01*
X132866321Y-42364813D01*
X132977000Y-42097609D01*
X132977000Y-41808391D01*
X132866321Y-41541187D01*
X132759000Y-41433866D01*
X132759000Y-38981036D01*
X132768156Y-38904833D01*
X132744258Y-38819520D01*
X132726972Y-38732620D01*
X132714820Y-38714433D01*
X132713043Y-38708091D01*
X132823321Y-38597813D01*
X132933424Y-38332000D01*
X135387949Y-38332000D01*
X135350984Y-38387322D01*
X135303000Y-38628553D01*
X135303000Y-39391448D01*
X135328077Y-39517520D01*
X135156584Y-39551632D01*
X134907839Y-39717839D01*
X134741632Y-39966584D01*
X134683268Y-40260000D01*
X134741632Y-40553416D01*
X134907839Y-40802161D01*
X135156584Y-40968368D01*
X135375937Y-41012000D01*
X135824063Y-41012000D01*
X136043416Y-40968368D01*
X136292161Y-40802161D01*
X136458368Y-40553416D01*
X136516732Y-40260000D01*
X136479197Y-40071297D01*
X136726233Y-39906233D01*
X136909016Y-39632679D01*
X136957000Y-39391448D01*
X136957000Y-38630134D01*
X137002187Y-38675321D01*
X137269391Y-38786000D01*
X137558609Y-38786000D01*
X137825813Y-38675321D01*
X138030321Y-38470813D01*
X138141000Y-38203609D01*
X138141000Y-37914391D01*
X138030321Y-37647187D01*
X137825813Y-37442679D01*
X137558609Y-37332000D01*
X137400680Y-37332000D01*
X137365625Y-37308577D01*
X137211903Y-37278000D01*
X137211898Y-37278000D01*
X137160000Y-37267677D01*
X137108102Y-37278000D01*
X132639897Y-37278000D01*
X132587999Y-37267677D01*
X132536101Y-37278000D01*
X132536097Y-37278000D01*
X132382375Y-37308577D01*
X132208055Y-37425055D01*
X132185373Y-37459000D01*
X132062391Y-37459000D01*
X131795187Y-37569679D01*
X131762500Y-37602366D01*
X131729813Y-37569679D01*
X131462609Y-37459000D01*
X131173391Y-37459000D01*
X130906187Y-37569679D01*
X130701679Y-37774187D01*
X130591000Y-38041391D01*
X130591000Y-38330609D01*
X130701679Y-38597813D01*
X130906187Y-38802321D01*
X131173391Y-38913000D01*
X131317970Y-38913000D01*
X131655001Y-39201884D01*
X131655000Y-41519866D01*
X131633679Y-41541187D01*
X131523000Y-41808391D01*
X131523000Y-42097609D01*
X131633679Y-42364813D01*
X131838187Y-42569321D01*
X131880868Y-42587000D01*
X122238914Y-42587000D01*
X122266000Y-42521609D01*
X122266000Y-42232391D01*
X122155321Y-41965187D01*
X121950813Y-41760679D01*
X121683609Y-41650000D01*
X121394391Y-41650000D01*
X121127187Y-41760679D01*
X120922679Y-41965187D01*
X120875536Y-42079000D01*
X117910364Y-42079000D01*
X117855999Y-42068186D01*
X117640620Y-42111028D01*
X117458030Y-42233030D01*
X117427231Y-42279124D01*
X117373355Y-42333000D01*
X115609337Y-42333000D01*
X115854813Y-42231321D01*
X116059321Y-42026813D01*
X116170000Y-41759609D01*
X116170000Y-41470391D01*
X116059321Y-41203187D01*
X115854813Y-40998679D01*
X115649128Y-40913482D01*
X113773145Y-39037499D01*
X124776000Y-39037499D01*
X124776000Y-39366501D01*
X124901903Y-39670458D01*
X125134542Y-39903097D01*
X125438499Y-40029000D01*
X125613999Y-40029000D01*
X125788000Y-40203001D01*
X125788001Y-40641444D01*
X125663903Y-40765542D01*
X125538000Y-41069499D01*
X125538000Y-41398501D01*
X125663903Y-41702458D01*
X125896542Y-41935097D01*
X126200499Y-42061000D01*
X126529501Y-42061000D01*
X126833458Y-41935097D01*
X127066097Y-41702458D01*
X127192000Y-41398501D01*
X127192000Y-41069499D01*
X127066097Y-40765542D01*
X126942000Y-40641445D01*
X126942000Y-40020829D01*
X126953304Y-39964000D01*
X126908522Y-39738865D01*
X126857320Y-39662236D01*
X126780994Y-39548006D01*
X126732815Y-39515814D01*
X126430000Y-39212999D01*
X126430000Y-39037499D01*
X126304097Y-38733542D01*
X126199108Y-38628553D01*
X127043000Y-38628553D01*
X127043000Y-39391448D01*
X127090984Y-39632679D01*
X127273768Y-39906233D01*
X127547322Y-40089016D01*
X127648526Y-40109147D01*
X127648000Y-40110418D01*
X127648000Y-40409582D01*
X127762485Y-40685974D01*
X127974026Y-40897515D01*
X128250418Y-41012000D01*
X128549582Y-41012000D01*
X128825974Y-40897515D01*
X129037515Y-40685974D01*
X129152000Y-40409582D01*
X129152000Y-40110418D01*
X129037515Y-39834026D01*
X128825974Y-39622485D01*
X128664360Y-39555542D01*
X128697000Y-39391448D01*
X128697000Y-38628552D01*
X128649016Y-38387321D01*
X128466233Y-38113767D01*
X128192678Y-37930984D01*
X127870000Y-37866799D01*
X127547321Y-37930984D01*
X127273767Y-38113767D01*
X127090984Y-38387322D01*
X127043000Y-38628553D01*
X126199108Y-38628553D01*
X126071458Y-38500903D01*
X125767501Y-38375000D01*
X125438499Y-38375000D01*
X125134542Y-38500903D01*
X124901903Y-38733542D01*
X124776000Y-39037499D01*
X113773145Y-39037499D01*
X113740672Y-39005027D01*
X113757000Y-38965609D01*
X113757000Y-38676391D01*
X113646321Y-38409187D01*
X113441813Y-38204679D01*
X113174609Y-38094000D01*
X112885391Y-38094000D01*
X112618187Y-38204679D01*
X112413679Y-38409187D01*
X112333814Y-38602000D01*
X112123391Y-38602000D01*
X111856187Y-38712679D01*
X111651679Y-38917187D01*
X111541000Y-39184391D01*
X111541000Y-39473609D01*
X111651679Y-39740813D01*
X111856187Y-39945321D01*
X112123391Y-40056000D01*
X112214355Y-40056000D01*
X113700000Y-41541646D01*
X113700000Y-41759609D01*
X113810679Y-42026813D01*
X114015187Y-42231321D01*
X114260663Y-42333000D01*
X113639645Y-42333000D01*
X113331769Y-42025124D01*
X113300970Y-41979030D01*
X113118380Y-41857028D01*
X112957365Y-41825000D01*
X112903000Y-41814186D01*
X112848635Y-41825000D01*
X112617134Y-41825000D01*
X112552813Y-41760679D01*
X112285609Y-41650000D01*
X111996391Y-41650000D01*
X111729187Y-41760679D01*
X111524679Y-41965187D01*
X111414000Y-42232391D01*
X111414000Y-42521609D01*
X111441086Y-42587000D01*
X109020365Y-42587000D01*
X108966000Y-42576186D01*
X108911635Y-42587000D01*
X108750620Y-42619028D01*
X108568030Y-42741030D01*
X108537233Y-42787121D01*
X108186633Y-43137722D01*
X107967609Y-43047000D01*
X107678391Y-43047000D01*
X107411187Y-43157679D01*
X107206679Y-43362187D01*
X107096000Y-43629391D01*
X107096000Y-43684219D01*
X107022380Y-43635028D01*
X106861365Y-43603000D01*
X106807000Y-43592186D01*
X106752635Y-43603000D01*
X105718365Y-43603000D01*
X105664000Y-43592186D01*
X105609635Y-43603000D01*
X105448620Y-43635028D01*
X105266030Y-43757030D01*
X105144028Y-43939620D01*
X105101186Y-44155000D01*
X105112001Y-44209370D01*
X105112000Y-45075866D01*
X105047679Y-45140187D01*
X104937000Y-45407391D01*
X104937000Y-45696609D01*
X105047679Y-45963813D01*
X105252187Y-46168321D01*
X105519391Y-46279000D01*
X105808609Y-46279000D01*
X105894655Y-46243359D01*
X105936679Y-46344813D01*
X106141187Y-46549321D01*
X106408391Y-46660000D01*
X106697609Y-46660000D01*
X106936958Y-46560859D01*
X106952679Y-46598813D01*
X107157187Y-46803321D01*
X107424391Y-46914000D01*
X107634814Y-46914000D01*
X107714679Y-47106813D01*
X107919187Y-47311321D01*
X108186391Y-47422000D01*
X108366000Y-47422000D01*
X108366000Y-47601609D01*
X108393086Y-47667000D01*
X107750365Y-47667000D01*
X107696000Y-47656186D01*
X107641635Y-47667000D01*
X107480620Y-47699028D01*
X107298030Y-47821030D01*
X107267233Y-47867121D01*
X107007354Y-48127000D01*
X106916391Y-48127000D01*
X106649187Y-48237679D01*
X106444679Y-48442187D01*
X106334000Y-48709391D01*
X106334000Y-48998609D01*
X106393808Y-49143000D01*
X106154391Y-49143000D01*
X105887187Y-49253679D01*
X105682679Y-49458187D01*
X105572000Y-49725391D01*
X105572000Y-50014609D01*
X105682679Y-50281813D01*
X105887187Y-50486321D01*
X106154391Y-50597000D01*
X106443609Y-50597000D01*
X106710813Y-50486321D01*
X106775134Y-50422000D01*
X107006635Y-50422000D01*
X107061000Y-50432814D01*
X107115365Y-50422000D01*
X107276380Y-50389972D01*
X107458970Y-50267970D01*
X107489768Y-50221877D01*
X108432646Y-49279000D01*
X109157355Y-49279000D01*
X107721355Y-50715000D01*
X104533309Y-50715000D01*
X104613000Y-50522609D01*
X104613000Y-50233391D01*
X104502321Y-49966187D01*
X104297813Y-49761679D01*
X104030609Y-49651000D01*
X103741391Y-49651000D01*
X103474187Y-49761679D01*
X103269679Y-49966187D01*
X103222536Y-50080000D01*
X100646645Y-50080000D01*
X102209646Y-48517000D01*
X102393866Y-48517000D01*
X102458187Y-48581321D01*
X102725391Y-48692000D01*
X103014609Y-48692000D01*
X103281813Y-48581321D01*
X103486321Y-48376813D01*
X103597000Y-48109609D01*
X103597000Y-47820391D01*
X103486321Y-47553187D01*
X103281813Y-47348679D01*
X103014609Y-47238000D01*
X102725391Y-47238000D01*
X102458187Y-47348679D01*
X102393866Y-47413000D01*
X102035364Y-47413000D01*
X101980999Y-47402186D01*
X101765620Y-47445028D01*
X101583030Y-47567030D01*
X101552233Y-47613121D01*
X98450355Y-50715000D01*
X98139134Y-50715000D01*
X98074813Y-50650679D01*
X97807609Y-50540000D01*
X97518391Y-50540000D01*
X97251187Y-50650679D01*
X97046679Y-50855187D01*
X96986057Y-51001543D01*
X96791609Y-50921000D01*
X96502391Y-50921000D01*
X96235187Y-51031679D01*
X96030679Y-51236187D01*
X95920000Y-51503391D01*
X95920000Y-51792609D01*
X96030679Y-52059813D01*
X96235187Y-52264321D01*
X96502391Y-52375000D01*
X96593354Y-52375000D01*
X96599233Y-52380879D01*
X96630030Y-52426970D01*
X96788436Y-52532813D01*
X96812620Y-52548972D01*
X97027999Y-52591814D01*
X97082364Y-52581000D01*
X98743354Y-52581000D01*
X98625354Y-52699000D01*
X98534391Y-52699000D01*
X98267187Y-52809679D01*
X98062679Y-53014187D01*
X97952000Y-53281391D01*
X97952000Y-53570609D01*
X98062679Y-53837813D01*
X98267187Y-54042321D01*
X98534391Y-54153000D01*
X98823609Y-54153000D01*
X99090813Y-54042321D01*
X99295321Y-53837813D01*
X99406000Y-53570609D01*
X99406000Y-53479646D01*
X99542646Y-53343000D01*
X106076866Y-53343000D01*
X106141187Y-53407321D01*
X106408391Y-53518000D01*
X106697609Y-53518000D01*
X106964813Y-53407321D01*
X107169321Y-53202813D01*
X107280000Y-52935609D01*
X107280000Y-52646391D01*
X107252914Y-52581000D01*
X109560000Y-52581000D01*
X109560000Y-52760909D01*
X109670679Y-53028113D01*
X109875187Y-53232621D01*
X110142391Y-53343300D01*
X110431609Y-53343300D01*
X110576666Y-53283216D01*
X110686679Y-53548813D01*
X110891187Y-53753321D01*
X111158391Y-53864000D01*
X111447609Y-53864000D01*
X111714813Y-53753321D01*
X111779134Y-53689000D01*
X113407635Y-53689000D01*
X113462000Y-53699814D01*
X113516365Y-53689000D01*
X113677380Y-53656972D01*
X113859970Y-53534970D01*
X113890768Y-53488877D01*
X113896645Y-53483000D01*
X113987609Y-53483000D01*
X114254813Y-53372321D01*
X114459321Y-53167813D01*
X114570000Y-52900609D01*
X114570000Y-52611391D01*
X114459321Y-52344187D01*
X114254813Y-52139679D01*
X113987609Y-52029000D01*
X113808000Y-52029000D01*
X113808000Y-51976391D01*
X113697321Y-51709187D01*
X113492813Y-51504679D01*
X113225609Y-51394000D01*
X112936391Y-51394000D01*
X112669187Y-51504679D01*
X112464679Y-51709187D01*
X112417536Y-51823000D01*
X111857646Y-51823000D01*
X111857879Y-51822767D01*
X111903970Y-51791970D01*
X112025972Y-51609380D01*
X112058000Y-51448365D01*
X112068814Y-51394000D01*
X112058000Y-51339635D01*
X112058000Y-50600134D01*
X112122321Y-50535813D01*
X112233000Y-50268609D01*
X112233000Y-50041000D01*
X113354866Y-50041000D01*
X113302679Y-50093187D01*
X113192000Y-50360391D01*
X113192000Y-50649609D01*
X113302679Y-50916813D01*
X113507187Y-51121321D01*
X113774391Y-51232000D01*
X114063609Y-51232000D01*
X114081000Y-51224796D01*
X114081000Y-51284609D01*
X114191679Y-51551813D01*
X114396187Y-51756321D01*
X114663391Y-51867000D01*
X114754354Y-51867000D01*
X115091119Y-52203765D01*
X115091122Y-52203767D01*
X115649233Y-52761879D01*
X115680030Y-52807970D01*
X115862620Y-52929972D01*
X116023635Y-52962000D01*
X116078000Y-52972814D01*
X116132365Y-52962000D01*
X117119355Y-52962000D01*
X119698354Y-55541000D01*
X111734645Y-55541000D01*
X111680769Y-55487124D01*
X111649970Y-55441030D01*
X111467380Y-55319028D01*
X111306365Y-55287000D01*
X111252000Y-55276186D01*
X111197635Y-55287000D01*
X109909364Y-55287000D01*
X109854999Y-55276186D01*
X109667959Y-55313391D01*
X109639620Y-55319028D01*
X109457030Y-55441030D01*
X109426231Y-55487124D01*
X109372355Y-55541000D01*
X108055365Y-55541000D01*
X108042000Y-55538341D01*
X108042000Y-55532391D01*
X107931321Y-55265187D01*
X107726813Y-55060679D01*
X107459609Y-54950000D01*
X107329297Y-54950000D01*
X107311380Y-54938028D01*
X107150365Y-54906000D01*
X107096000Y-54895186D01*
X107041635Y-54906000D01*
X106318134Y-54906000D01*
X106253813Y-54841679D01*
X105986609Y-54731000D01*
X105697391Y-54731000D01*
X105430187Y-54841679D01*
X105225679Y-55046187D01*
X105115000Y-55313391D01*
X105115000Y-55602609D01*
X105225679Y-55869813D01*
X105240866Y-55885000D01*
X105225679Y-55900187D01*
X105115000Y-56167391D01*
X105115000Y-56456609D01*
X105225679Y-56723813D01*
X105430187Y-56928321D01*
X105697391Y-57039000D01*
X105986609Y-57039000D01*
X106253813Y-56928321D01*
X106318134Y-56864000D01*
X107055866Y-56864000D01*
X106876679Y-57043187D01*
X106766000Y-57310391D01*
X106766000Y-57599609D01*
X106876679Y-57866813D01*
X107081187Y-58071321D01*
X107348391Y-58182000D01*
X107637609Y-58182000D01*
X107904813Y-58071321D01*
X108109321Y-57866813D01*
X108220000Y-57599609D01*
X108220000Y-57508645D01*
X108575646Y-57153000D01*
X108671000Y-57153000D01*
X108671000Y-57419609D01*
X108781679Y-57686813D01*
X108986187Y-57891321D01*
X109253391Y-58002000D01*
X109382000Y-58002000D01*
X109382000Y-58044609D01*
X109492679Y-58311813D01*
X109697187Y-58516321D01*
X109964391Y-58627000D01*
X110253609Y-58627000D01*
X110520813Y-58516321D01*
X110725321Y-58311813D01*
X110836000Y-58044609D01*
X110836000Y-57827000D01*
X113497000Y-57827000D01*
X113497000Y-57853609D01*
X113607679Y-58120813D01*
X113812187Y-58325321D01*
X114079391Y-58436000D01*
X114368609Y-58436000D01*
X114635813Y-58325321D01*
X114840321Y-58120813D01*
X114951000Y-57853609D01*
X114951000Y-57564391D01*
X114840321Y-57297187D01*
X114635813Y-57092679D01*
X114368609Y-56982000D01*
X114277645Y-56982000D01*
X114218768Y-56923123D01*
X114187970Y-56877030D01*
X114005380Y-56755028D01*
X113844365Y-56723000D01*
X113790000Y-56712186D01*
X113782500Y-56713678D01*
X113775000Y-56712186D01*
X113720635Y-56723000D01*
X111344000Y-56723000D01*
X111344000Y-56623590D01*
X111505999Y-56655814D01*
X111560364Y-56645000D01*
X123595432Y-56645000D01*
X123543651Y-56666448D01*
X123543649Y-56666450D01*
X123381438Y-56774837D01*
X123315638Y-56840638D01*
X123249837Y-56906438D01*
X123141450Y-57068649D01*
X123141448Y-57068651D01*
X123108738Y-57147621D01*
X123070225Y-57240598D01*
X123070225Y-57240600D01*
X123032166Y-57431939D01*
X123032165Y-57431941D01*
X123032165Y-57618057D01*
X123070225Y-57809399D01*
X123070225Y-57809402D01*
X123090781Y-57859028D01*
X123141448Y-57981349D01*
X123141450Y-57981351D01*
X123249837Y-58143562D01*
X123315638Y-58209362D01*
X123381438Y-58275163D01*
X123470990Y-58335000D01*
X123291645Y-58335000D01*
X122983767Y-58027122D01*
X122983765Y-58027119D01*
X122348768Y-57392123D01*
X122317970Y-57346030D01*
X122135380Y-57224028D01*
X121974365Y-57192000D01*
X121920000Y-57181186D01*
X121865635Y-57192000D01*
X118586134Y-57192000D01*
X118521813Y-57127679D01*
X118254609Y-57017000D01*
X117965391Y-57017000D01*
X117698187Y-57127679D01*
X117493679Y-57332187D01*
X117383000Y-57599391D01*
X117383000Y-57766866D01*
X117378813Y-57762679D01*
X117111609Y-57652000D01*
X116822391Y-57652000D01*
X116555187Y-57762679D01*
X116459000Y-57858866D01*
X116362813Y-57762679D01*
X116095609Y-57652000D01*
X115806391Y-57652000D01*
X115539187Y-57762679D01*
X115334679Y-57967187D01*
X115224000Y-58234391D01*
X115224000Y-58523609D01*
X115334679Y-58790813D01*
X115539187Y-58995321D01*
X115806391Y-59106000D01*
X115897355Y-59106000D01*
X115980355Y-59189000D01*
X114192134Y-59189000D01*
X114000813Y-58997679D01*
X113733609Y-58887000D01*
X113444391Y-58887000D01*
X113177187Y-58997679D01*
X112972679Y-59202187D01*
X112930655Y-59303641D01*
X112844609Y-59268000D01*
X112555391Y-59268000D01*
X112288187Y-59378679D01*
X112083679Y-59583187D01*
X111973000Y-59850391D01*
X111973000Y-60097010D01*
X107994656Y-60097010D01*
X107286768Y-59389123D01*
X107255970Y-59343030D01*
X107073380Y-59221028D01*
X106912365Y-59189000D01*
X106858000Y-59178186D01*
X106803635Y-59189000D01*
X105943646Y-59189000D01*
X104477260Y-57722615D01*
X104456972Y-57620620D01*
X104334970Y-57438030D01*
X104152380Y-57316028D01*
X103991365Y-57284000D01*
X103937000Y-57273186D01*
X103882635Y-57284000D01*
X103016134Y-57284000D01*
X102951813Y-57219679D01*
X102684609Y-57109000D01*
X102395391Y-57109000D01*
X102128187Y-57219679D01*
X101923679Y-57424187D01*
X101813000Y-57691391D01*
X101813000Y-57980609D01*
X101923679Y-58247813D01*
X102128187Y-58452321D01*
X102395391Y-58563000D01*
X102684609Y-58563000D01*
X102951813Y-58452321D01*
X103016134Y-58388000D01*
X103579484Y-58388000D01*
X103585121Y-58391766D01*
X105286233Y-60092879D01*
X105317030Y-60138970D01*
X105499620Y-60260972D01*
X105660635Y-60293000D01*
X105715000Y-60303814D01*
X105769365Y-60293000D01*
X106629355Y-60293000D01*
X107337243Y-61000889D01*
X107368040Y-61046980D01*
X107531246Y-61156030D01*
X107550630Y-61168982D01*
X107766009Y-61211824D01*
X107820374Y-61201010D01*
X118332365Y-61201010D01*
X118498000Y-61366646D01*
X118498001Y-65782630D01*
X118487186Y-65837000D01*
X118530028Y-66052379D01*
X118566452Y-66106891D01*
X118652031Y-66234970D01*
X118698121Y-66265766D01*
X119256233Y-66823879D01*
X119287030Y-66869970D01*
X119469620Y-66991972D01*
X119630635Y-67024000D01*
X119685000Y-67034814D01*
X119739365Y-67024000D01*
X121154635Y-67024000D01*
X121209000Y-67034814D01*
X121263365Y-67024000D01*
X121424380Y-66991972D01*
X121606970Y-66869970D01*
X121637768Y-66823877D01*
X121643645Y-66818000D01*
X121734609Y-66818000D01*
X122001813Y-66707321D01*
X122206321Y-66502813D01*
X122317000Y-66235609D01*
X122317000Y-65946391D01*
X122206321Y-65679187D01*
X122001813Y-65474679D01*
X121734609Y-65364000D01*
X121445391Y-65364000D01*
X121359345Y-65399641D01*
X121317321Y-65298187D01*
X121253000Y-65233866D01*
X121253000Y-63859364D01*
X121263814Y-63804999D01*
X121220972Y-63589620D01*
X121183828Y-63534030D01*
X121098970Y-63407030D01*
X121052876Y-63376231D01*
X120999000Y-63322355D01*
X120999000Y-61065364D01*
X121009814Y-61010999D01*
X120966972Y-60795620D01*
X120949166Y-60768972D01*
X120844970Y-60613030D01*
X120798879Y-60582233D01*
X119909645Y-59693000D01*
X121310355Y-59693000D01*
X121828000Y-60210646D01*
X121828000Y-60428609D01*
X121938679Y-60695813D01*
X122143187Y-60900321D01*
X122410391Y-61011000D01*
X122699609Y-61011000D01*
X122966813Y-60900321D01*
X123171321Y-60695813D01*
X123182116Y-60669750D01*
X125248000Y-60669750D01*
X125248000Y-60990827D01*
X125328231Y-61184521D01*
X125476478Y-61332769D01*
X125670173Y-61413000D01*
X125953750Y-61413000D01*
X126085500Y-61281250D01*
X126085500Y-60538000D01*
X125379750Y-60538000D01*
X125248000Y-60669750D01*
X123182116Y-60669750D01*
X123282000Y-60428609D01*
X123282000Y-60139391D01*
X123202309Y-59947000D01*
X125248000Y-59947000D01*
X125248000Y-60152250D01*
X125379750Y-60284000D01*
X126085500Y-60284000D01*
X126085500Y-60264000D01*
X126339500Y-60264000D01*
X126339500Y-60284000D01*
X126359500Y-60284000D01*
X126359500Y-60538000D01*
X126339500Y-60538000D01*
X126339500Y-61281250D01*
X126471250Y-61413000D01*
X126754827Y-61413000D01*
X126948522Y-61332769D01*
X127096769Y-61184521D01*
X127116578Y-61136699D01*
X127318431Y-61271573D01*
X127509914Y-61309662D01*
X127416000Y-61536391D01*
X127416000Y-61825609D01*
X127526679Y-62092813D01*
X127731187Y-62297321D01*
X127998391Y-62408000D01*
X128287609Y-62408000D01*
X128554813Y-62297321D01*
X128759321Y-62092813D01*
X128870000Y-61825609D01*
X128870000Y-61536391D01*
X128759321Y-61269187D01*
X128695000Y-61204866D01*
X128695000Y-60721134D01*
X128747187Y-60773321D01*
X129014391Y-60884000D01*
X129303609Y-60884000D01*
X129570813Y-60773321D01*
X129674384Y-60669750D01*
X130248000Y-60669750D01*
X130248000Y-60990827D01*
X130328231Y-61184521D01*
X130476478Y-61332769D01*
X130670173Y-61413000D01*
X130953750Y-61413000D01*
X131085500Y-61281250D01*
X131085500Y-60538000D01*
X130379750Y-60538000D01*
X130248000Y-60669750D01*
X129674384Y-60669750D01*
X129775321Y-60568813D01*
X129886000Y-60301609D01*
X129886000Y-60293849D01*
X129934900Y-60293849D01*
X130202104Y-60183170D01*
X130248000Y-60137274D01*
X130248000Y-60152250D01*
X130379750Y-60284000D01*
X131085500Y-60284000D01*
X131085500Y-59540750D01*
X131339500Y-59540750D01*
X131339500Y-60284000D01*
X131359500Y-60284000D01*
X131359500Y-60538000D01*
X131339500Y-60538000D01*
X131339500Y-61281250D01*
X131471250Y-61413000D01*
X131754827Y-61413000D01*
X131948522Y-61332769D01*
X132096769Y-61184521D01*
X132116578Y-61136699D01*
X132318431Y-61271573D01*
X132497021Y-61307097D01*
X132497021Y-61452650D01*
X132486206Y-61507020D01*
X132496000Y-61556257D01*
X132496000Y-61825609D01*
X132606679Y-62092813D01*
X132811187Y-62297321D01*
X133078391Y-62408000D01*
X133367609Y-62408000D01*
X133634813Y-62297321D01*
X133839321Y-62092813D01*
X133950000Y-61825609D01*
X133950000Y-61536391D01*
X133839321Y-61269187D01*
X133634813Y-61064679D01*
X133601020Y-61050682D01*
X133601020Y-60931866D01*
X133610573Y-60917569D01*
X133659867Y-60669750D01*
X135248000Y-60669750D01*
X135248000Y-60990827D01*
X135328231Y-61184521D01*
X135476478Y-61332769D01*
X135670173Y-61413000D01*
X135953750Y-61413000D01*
X136085500Y-61281250D01*
X136085500Y-60538000D01*
X135379750Y-60538000D01*
X135248000Y-60669750D01*
X133659867Y-60669750D01*
X133660365Y-60667250D01*
X133660365Y-60154750D01*
X133610573Y-59904431D01*
X133561624Y-59831173D01*
X135248000Y-59831173D01*
X135248000Y-60152250D01*
X135379750Y-60284000D01*
X136085500Y-60284000D01*
X136085500Y-59540750D01*
X136339500Y-59540750D01*
X136339500Y-60284000D01*
X136359500Y-60284000D01*
X136359500Y-60538000D01*
X136339500Y-60538000D01*
X136339500Y-61281250D01*
X136471250Y-61413000D01*
X136754827Y-61413000D01*
X136948522Y-61332769D01*
X137096769Y-61184521D01*
X137116578Y-61136699D01*
X137318431Y-61271573D01*
X137568750Y-61321365D01*
X138006250Y-61321365D01*
X138256569Y-61271573D01*
X138468779Y-61129779D01*
X138610573Y-60917569D01*
X138660365Y-60667250D01*
X138660365Y-60614449D01*
X138700834Y-60411001D01*
X138660365Y-60207551D01*
X138660365Y-60154750D01*
X138610573Y-59904431D01*
X138468779Y-59692221D01*
X138446000Y-59677001D01*
X138446000Y-59405891D01*
X138335321Y-59138687D01*
X138130813Y-58934179D01*
X137863609Y-58823500D01*
X137574391Y-58823500D01*
X137307187Y-58934179D01*
X137102679Y-59138687D01*
X136992000Y-59405891D01*
X136992000Y-59532709D01*
X136948522Y-59489231D01*
X136754827Y-59409000D01*
X136471250Y-59409000D01*
X136339500Y-59540750D01*
X136085500Y-59540750D01*
X135953750Y-59409000D01*
X135670173Y-59409000D01*
X135476478Y-59489231D01*
X135328231Y-59637479D01*
X135248000Y-59831173D01*
X133561624Y-59831173D01*
X133468779Y-59692221D01*
X133256569Y-59550427D01*
X133006250Y-59500635D01*
X132568750Y-59500635D01*
X132318431Y-59550427D01*
X132116578Y-59685301D01*
X132096769Y-59637479D01*
X131948522Y-59489231D01*
X131754827Y-59409000D01*
X131471250Y-59409000D01*
X131339500Y-59540750D01*
X131085500Y-59540750D01*
X130953750Y-59409000D01*
X130670173Y-59409000D01*
X130517291Y-59472326D01*
X130517291Y-59422240D01*
X130406612Y-59155036D01*
X130342911Y-59091335D01*
X130310263Y-58927206D01*
X130310263Y-58927205D01*
X130188261Y-58744615D01*
X130142165Y-58713815D01*
X129963475Y-58535124D01*
X129941342Y-58502000D01*
X140046975Y-58502000D01*
X140093050Y-58492835D01*
X140093057Y-58492835D01*
X140284400Y-58454775D01*
X140284402Y-58454775D01*
X140355625Y-58425273D01*
X140456349Y-58383552D01*
X140456351Y-58383550D01*
X140618562Y-58275163D01*
X140684362Y-58209362D01*
X140750163Y-58143562D01*
X140799001Y-58070472D01*
X140799001Y-59467630D01*
X140788186Y-59522000D01*
X140831028Y-59737379D01*
X140845495Y-59759030D01*
X140953031Y-59919970D01*
X140999121Y-59950766D01*
X142831000Y-61782646D01*
X142831000Y-61830063D01*
X142750570Y-61814065D01*
X141249430Y-61814065D01*
X141082823Y-61847205D01*
X140941580Y-61941580D01*
X140847205Y-62082823D01*
X140814065Y-62249430D01*
X140814065Y-62907000D01*
X129889134Y-62907000D01*
X129824813Y-62842679D01*
X129557609Y-62732000D01*
X129268391Y-62732000D01*
X129001187Y-62842679D01*
X128936866Y-62907000D01*
X128467364Y-62907000D01*
X128412999Y-62896186D01*
X128265021Y-62925621D01*
X128197620Y-62939028D01*
X128015030Y-63061030D01*
X127984235Y-63107119D01*
X127588123Y-63503232D01*
X127542030Y-63534030D01*
X127430447Y-63701028D01*
X127420028Y-63716621D01*
X127377186Y-63932000D01*
X127388000Y-63986365D01*
X127388000Y-65110000D01*
X122809000Y-65110000D01*
X122760399Y-65119667D01*
X122719197Y-65147197D01*
X122691667Y-65188399D01*
X122682000Y-65237000D01*
X122682000Y-68031000D01*
X122691667Y-68079601D01*
X122719197Y-68120803D01*
X122760399Y-68148333D01*
X122809000Y-68158000D01*
X127388001Y-68158000D01*
X127388001Y-68783353D01*
X127080119Y-69091236D01*
X125298355Y-70873000D01*
X118850364Y-70873000D01*
X118795999Y-70862186D01*
X118580620Y-70905028D01*
X118510321Y-70952000D01*
X118397391Y-70952000D01*
X118130187Y-71062679D01*
X117925679Y-71267187D01*
X117815000Y-71534391D01*
X117815000Y-71823609D01*
X117925679Y-72090813D01*
X118130187Y-72295321D01*
X118397391Y-72406000D01*
X118686609Y-72406000D01*
X118731000Y-72387613D01*
X118731000Y-72478501D01*
X118856903Y-72782458D01*
X119089542Y-73015097D01*
X119393499Y-73141000D01*
X119722501Y-73141000D01*
X120026458Y-73015097D01*
X120150555Y-72891000D01*
X121886445Y-72891000D01*
X122010542Y-73015097D01*
X122314499Y-73141000D01*
X122643501Y-73141000D01*
X122947458Y-73015097D01*
X123180097Y-72782458D01*
X123306000Y-72478501D01*
X123306000Y-72149499D01*
X123234549Y-71977000D01*
X125472635Y-71977000D01*
X125527000Y-71987814D01*
X125581365Y-71977000D01*
X125742380Y-71944972D01*
X125924970Y-71822970D01*
X125955769Y-71776876D01*
X127860764Y-69871881D01*
X128291879Y-69440767D01*
X128337970Y-69409970D01*
X128459972Y-69227380D01*
X128492000Y-69066365D01*
X128502814Y-69012001D01*
X128492000Y-68957636D01*
X128492000Y-68158000D01*
X128905000Y-68158000D01*
X128953601Y-68148333D01*
X128994803Y-68120803D01*
X129022333Y-68079601D01*
X129032000Y-68031000D01*
X129032000Y-64088084D01*
X129268391Y-64186000D01*
X129557609Y-64186000D01*
X129824813Y-64075321D01*
X129889134Y-64011000D01*
X132658866Y-64011000D01*
X132606679Y-64063187D01*
X132496000Y-64330391D01*
X132496000Y-64619609D01*
X132606679Y-64886813D01*
X132811187Y-65091321D01*
X133078391Y-65202000D01*
X133367609Y-65202000D01*
X133634813Y-65091321D01*
X133839321Y-64886813D01*
X133895162Y-64752001D01*
X135579784Y-64752001D01*
X135544000Y-64838391D01*
X135544000Y-65127609D01*
X135654679Y-65394813D01*
X135859187Y-65599321D01*
X136104663Y-65701000D01*
X135985134Y-65701000D01*
X135920813Y-65636679D01*
X135653609Y-65526000D01*
X135364391Y-65526000D01*
X135097187Y-65636679D01*
X134892679Y-65841187D01*
X134782000Y-66108391D01*
X134782000Y-66397609D01*
X134892679Y-66664813D01*
X135097187Y-66869321D01*
X135364391Y-66980000D01*
X135653609Y-66980000D01*
X135920813Y-66869321D01*
X135985134Y-66805000D01*
X136169000Y-66805000D01*
X136169000Y-67022609D01*
X136279679Y-67289813D01*
X136484187Y-67494321D01*
X136751391Y-67605000D01*
X137040609Y-67605000D01*
X137307813Y-67494321D01*
X137372134Y-67430000D01*
X140125519Y-67430000D01*
X140282622Y-67534972D01*
X140371008Y-67552553D01*
X140498001Y-67577814D01*
X140552366Y-67567000D01*
X143836635Y-67567000D01*
X143891000Y-67577814D01*
X143945365Y-67567000D01*
X144106380Y-67534972D01*
X144288970Y-67412970D01*
X144319768Y-67366877D01*
X145258880Y-66427766D01*
X145304970Y-66396970D01*
X145426972Y-66214380D01*
X145435051Y-66173764D01*
X145469814Y-65999000D01*
X145459000Y-65944635D01*
X145459000Y-64559444D01*
X145521082Y-64621526D01*
X145615286Y-64527322D01*
X145793221Y-64826129D01*
X146581094Y-65134779D01*
X146983586Y-65127000D01*
X148204250Y-65127000D01*
X148336000Y-64995250D01*
X148336000Y-64193395D01*
X148490320Y-64347715D01*
X148590000Y-64288357D01*
X148590000Y-64995250D01*
X148721750Y-65127000D01*
X149523001Y-65127000D01*
X149523000Y-126353025D01*
X149513656Y-126400000D01*
X149550677Y-126586116D01*
X149656103Y-126743897D01*
X149741572Y-126801005D01*
X149726067Y-126816510D01*
X149623000Y-127065336D01*
X149623000Y-127334664D01*
X149726067Y-127583490D01*
X149742577Y-127600000D01*
X149726067Y-127616510D01*
X149623000Y-127865336D01*
X149623000Y-128134664D01*
X149726067Y-128383490D01*
X149742577Y-128400000D01*
X149726067Y-128416510D01*
X149623000Y-128665336D01*
X149623000Y-128934664D01*
X149726067Y-129183490D01*
X149742577Y-129200000D01*
X149726067Y-129216510D01*
X149623000Y-129465336D01*
X149623000Y-129734664D01*
X149726067Y-129983490D01*
X149741572Y-129998995D01*
X149656103Y-130056103D01*
X149550677Y-130213884D01*
X149513656Y-130400000D01*
X149523000Y-130446975D01*
X149523001Y-139021828D01*
X147078392Y-139705267D01*
X142848764Y-140792601D01*
X139149070Y-141650212D01*
X135259704Y-142467976D01*
X129952509Y-143445617D01*
X124896154Y-144223519D01*
X120907407Y-144722112D01*
X115799599Y-145260827D01*
X111432805Y-145579862D01*
X106194283Y-145839293D01*
X102576094Y-145929000D01*
X98606554Y-145929000D01*
X92898647Y-145819232D01*
X88772872Y-145609953D01*
X83595625Y-145200961D01*
X78248930Y-144642352D01*
X72963529Y-143924337D01*
X67718047Y-143046767D01*
X62009277Y-141908871D01*
X95357150Y-141908871D01*
X95390290Y-142075478D01*
X95484665Y-142216721D01*
X96898879Y-143630935D01*
X97040122Y-143725310D01*
X97206729Y-143758450D01*
X97373336Y-143725310D01*
X97514579Y-143630935D01*
X98787371Y-142358143D01*
X98878077Y-142222391D01*
X99272800Y-142222391D01*
X99272800Y-142511609D01*
X99383479Y-142778813D01*
X99587987Y-142983321D01*
X99855191Y-143094000D01*
X99998057Y-143094000D01*
X100078509Y-143147757D01*
X100232231Y-143178334D01*
X100232236Y-143178334D01*
X100284134Y-143188657D01*
X100336032Y-143178334D01*
X100724274Y-143178334D01*
X101335974Y-143790034D01*
X101477217Y-143884409D01*
X101643824Y-143917549D01*
X101810431Y-143884409D01*
X101951674Y-143790034D01*
X102658780Y-143082928D01*
X102713150Y-143001557D01*
X102756278Y-143001557D01*
X102949972Y-142921327D01*
X103098220Y-142773079D01*
X103194685Y-142676613D01*
X103194685Y-142490291D01*
X102527707Y-141823312D01*
X102513565Y-141837455D01*
X102333960Y-141657850D01*
X102348102Y-141643707D01*
X101681123Y-140976729D01*
X101494801Y-140976729D01*
X101398335Y-141073194D01*
X101250087Y-141221442D01*
X101169857Y-141415136D01*
X101169857Y-141458264D01*
X101088486Y-141512634D01*
X100624853Y-141976267D01*
X100616121Y-141955187D01*
X100411613Y-141750679D01*
X100144409Y-141640000D01*
X99855191Y-141640000D01*
X99587987Y-141750679D01*
X99383479Y-141955187D01*
X99272800Y-142222391D01*
X98878077Y-142222391D01*
X98881746Y-142216900D01*
X98914886Y-142050293D01*
X98881746Y-141883686D01*
X98787371Y-141742443D01*
X98448664Y-141403736D01*
X98466932Y-141411303D01*
X98845662Y-141411303D01*
X99195562Y-141266370D01*
X99463364Y-140998568D01*
X99608297Y-140648668D01*
X99608297Y-140610801D01*
X101860729Y-140610801D01*
X101860729Y-140797123D01*
X102527707Y-141464102D01*
X102541850Y-141449960D01*
X102721455Y-141629565D01*
X102707312Y-141643707D01*
X103374291Y-142310685D01*
X103560613Y-142310685D01*
X103657079Y-142214220D01*
X103805327Y-142065972D01*
X103885557Y-141872278D01*
X103885557Y-141829150D01*
X103966928Y-141774780D01*
X104674034Y-141067674D01*
X104768409Y-140926431D01*
X104801549Y-140759824D01*
X104768409Y-140593217D01*
X104674034Y-140451974D01*
X104378275Y-140156215D01*
X104550145Y-139984345D01*
X104594145Y-139954945D01*
X104710623Y-139780625D01*
X104751524Y-139575000D01*
X104710623Y-139369375D01*
X104594145Y-139195055D01*
X104486000Y-139122794D01*
X104486000Y-139072791D01*
X104375321Y-138805587D01*
X104170813Y-138601079D01*
X103903609Y-138490400D01*
X103614391Y-138490400D01*
X103347187Y-138601079D01*
X103142679Y-138805587D01*
X103032000Y-139072791D01*
X103032000Y-139362009D01*
X103092661Y-139508459D01*
X102396634Y-140204486D01*
X102342264Y-140285857D01*
X102299136Y-140285857D01*
X102105442Y-140366087D01*
X101957194Y-140514335D01*
X101860729Y-140610801D01*
X99608297Y-140610801D01*
X99608297Y-140269938D01*
X99463364Y-139920038D01*
X99195562Y-139652236D01*
X98845662Y-139507303D01*
X98466932Y-139507303D01*
X98117032Y-139652236D01*
X97849230Y-139920038D01*
X97704297Y-140269938D01*
X97704297Y-140648668D01*
X97711864Y-140666936D01*
X97373157Y-140328229D01*
X97231914Y-140233854D01*
X97065307Y-140200714D01*
X96898700Y-140233854D01*
X96757457Y-140328229D01*
X95484665Y-141601021D01*
X95390290Y-141742264D01*
X95357150Y-141908871D01*
X62009277Y-141908871D01*
X61812507Y-141869650D01*
X56644743Y-140672486D01*
X53435404Y-139855202D01*
X53060749Y-139750000D01*
X69514635Y-139750000D01*
X69514635Y-141150000D01*
X69547775Y-141316607D01*
X69642150Y-141457850D01*
X69783393Y-141552225D01*
X69950000Y-141585365D01*
X72050000Y-141585365D01*
X72216607Y-141552225D01*
X72357850Y-141457850D01*
X72452225Y-141316607D01*
X72485365Y-141150000D01*
X72485365Y-140250391D01*
X76664000Y-140250391D01*
X76664000Y-140539609D01*
X76774679Y-140806813D01*
X76979187Y-141011321D01*
X77246391Y-141122000D01*
X77535609Y-141122000D01*
X77802813Y-141011321D01*
X77837134Y-140977000D01*
X79514635Y-140977000D01*
X79514635Y-141150000D01*
X79547775Y-141316607D01*
X79642150Y-141457850D01*
X79783393Y-141552225D01*
X79950000Y-141585365D01*
X82050000Y-141585365D01*
X82216607Y-141552225D01*
X82357850Y-141457850D01*
X82452225Y-141316607D01*
X82485365Y-141150000D01*
X82485365Y-139750000D01*
X82452225Y-139583393D01*
X82357850Y-139442150D01*
X82216607Y-139347775D01*
X82050000Y-139314635D01*
X79950000Y-139314635D01*
X79783393Y-139347775D01*
X79642150Y-139442150D01*
X79547775Y-139583393D01*
X79514635Y-139750000D01*
X79514635Y-139923000D01*
X77947134Y-139923000D01*
X77802813Y-139778679D01*
X77535609Y-139668000D01*
X77246391Y-139668000D01*
X76979187Y-139778679D01*
X76774679Y-139983187D01*
X76664000Y-140250391D01*
X72485365Y-140250391D01*
X72485365Y-139750000D01*
X72452225Y-139583393D01*
X72357850Y-139442150D01*
X72216607Y-139347775D01*
X72050000Y-139314635D01*
X69950000Y-139314635D01*
X69783393Y-139347775D01*
X69642150Y-139442150D01*
X69547775Y-139583393D01*
X69514635Y-139750000D01*
X53060749Y-139750000D01*
X50477000Y-139024493D01*
X50477000Y-133596805D01*
X53973000Y-133596805D01*
X53973000Y-134403195D01*
X54281593Y-135148203D01*
X54851797Y-135718407D01*
X55596805Y-136027000D01*
X56403195Y-136027000D01*
X57148203Y-135718407D01*
X57616610Y-135250000D01*
X69514635Y-135250000D01*
X69514635Y-136650000D01*
X69547775Y-136816607D01*
X69642150Y-136957850D01*
X69783393Y-137052225D01*
X69950000Y-137085365D01*
X72050000Y-137085365D01*
X72216607Y-137052225D01*
X72357850Y-136957850D01*
X72452225Y-136816607D01*
X72485365Y-136650000D01*
X72485365Y-136208750D01*
X79423000Y-136208750D01*
X79423000Y-136754827D01*
X79503231Y-136948521D01*
X79651478Y-137096769D01*
X79845173Y-137177000D01*
X80741250Y-137177000D01*
X80873000Y-137045250D01*
X80873000Y-136077000D01*
X81127000Y-136077000D01*
X81127000Y-137045250D01*
X81258750Y-137177000D01*
X82154827Y-137177000D01*
X82348522Y-137096769D01*
X82496769Y-136948521D01*
X82577000Y-136754827D01*
X82577000Y-136439000D01*
X85229635Y-136439000D01*
X85229635Y-139439000D01*
X85262775Y-139605607D01*
X85357150Y-139746850D01*
X85498393Y-139841225D01*
X85665000Y-139874365D01*
X90865000Y-139874365D01*
X91031607Y-139841225D01*
X91172850Y-139746850D01*
X91267225Y-139605607D01*
X91300365Y-139439000D01*
X91300365Y-137471776D01*
X95198051Y-137471776D01*
X95231191Y-137638383D01*
X95325566Y-137779626D01*
X96280160Y-138734220D01*
X96421403Y-138828595D01*
X96588010Y-138861735D01*
X96754617Y-138828595D01*
X96795207Y-138801474D01*
X96843479Y-138918013D01*
X97047987Y-139122521D01*
X97315191Y-139233200D01*
X97604409Y-139233200D01*
X97871613Y-139122521D01*
X98076121Y-138918013D01*
X98186800Y-138650809D01*
X98186800Y-138361591D01*
X98076121Y-138094387D01*
X97871613Y-137889879D01*
X97723738Y-137828627D01*
X97762244Y-137820968D01*
X97903487Y-137726593D01*
X98017311Y-137612769D01*
X100541303Y-137612769D01*
X100541303Y-137931825D01*
X100663400Y-138226593D01*
X100889007Y-138452200D01*
X101183775Y-138574297D01*
X101502831Y-138574297D01*
X101797599Y-138452200D01*
X102023206Y-138226593D01*
X102145303Y-137931825D01*
X102145303Y-137612769D01*
X102023206Y-137318001D01*
X101797599Y-137092394D01*
X101502831Y-136970297D01*
X101183775Y-136970297D01*
X100889007Y-137092394D01*
X100663400Y-137318001D01*
X100541303Y-137612769D01*
X98017311Y-137612769D01*
X98323976Y-137306104D01*
X98324497Y-137306000D01*
X99643102Y-137306000D01*
X99695000Y-137316323D01*
X99746898Y-137306000D01*
X99746903Y-137306000D01*
X99900625Y-137275423D01*
X100074945Y-137158945D01*
X100104345Y-137114945D01*
X100538945Y-136680345D01*
X100582945Y-136650945D01*
X100622599Y-136591600D01*
X100665638Y-136527187D01*
X100699423Y-136476625D01*
X100730000Y-136322903D01*
X100730000Y-136322899D01*
X100740323Y-136271001D01*
X100730000Y-136219103D01*
X100730000Y-134965290D01*
X100827690Y-134867600D01*
X102218086Y-134867600D01*
X101212229Y-135873457D01*
X101117854Y-136014700D01*
X101084714Y-136181307D01*
X101117854Y-136347914D01*
X101212229Y-136489157D01*
X102626443Y-137903371D01*
X102767686Y-137997746D01*
X102934293Y-138030886D01*
X103100900Y-137997746D01*
X103242143Y-137903371D01*
X104514935Y-136630579D01*
X104573001Y-136543677D01*
X104573000Y-137070466D01*
X104565079Y-137078387D01*
X104454400Y-137345591D01*
X104454400Y-137634809D01*
X104565079Y-137902013D01*
X104769587Y-138106521D01*
X105036791Y-138217200D01*
X105326009Y-138217200D01*
X105593213Y-138106521D01*
X105797721Y-137902013D01*
X105908400Y-137634809D01*
X105908400Y-137345591D01*
X105797721Y-137078387D01*
X105627000Y-136907666D01*
X105627000Y-136309699D01*
X109739200Y-136309699D01*
X109739200Y-136638701D01*
X109865103Y-136942658D01*
X109989200Y-137066755D01*
X109989201Y-139742444D01*
X109865103Y-139866542D01*
X109739200Y-140170499D01*
X109739200Y-140499501D01*
X109865103Y-140803458D01*
X110097742Y-141036097D01*
X110401699Y-141162000D01*
X110730701Y-141162000D01*
X111034658Y-141036097D01*
X111267297Y-140803458D01*
X111393200Y-140499501D01*
X111393200Y-140170499D01*
X111267297Y-139866542D01*
X111150755Y-139750000D01*
X117514635Y-139750000D01*
X117514635Y-141150000D01*
X117547775Y-141316607D01*
X117642150Y-141457850D01*
X117783393Y-141552225D01*
X117950000Y-141585365D01*
X120050000Y-141585365D01*
X120216607Y-141552225D01*
X120357850Y-141457850D01*
X120452225Y-141316607D01*
X120485365Y-141150000D01*
X120485365Y-139750000D01*
X120452225Y-139583393D01*
X120357850Y-139442150D01*
X120216607Y-139347775D01*
X120050000Y-139314635D01*
X117950000Y-139314635D01*
X117783393Y-139347775D01*
X117642150Y-139442150D01*
X117547775Y-139583393D01*
X117514635Y-139750000D01*
X111150755Y-139750000D01*
X111143200Y-139742445D01*
X111143200Y-137066755D01*
X111267297Y-136942658D01*
X111393200Y-136638701D01*
X111393200Y-136309699D01*
X111267297Y-136005742D01*
X111034658Y-135773103D01*
X110730701Y-135647200D01*
X110401699Y-135647200D01*
X110097742Y-135773103D01*
X109865103Y-136005742D01*
X109739200Y-136309699D01*
X105627000Y-136309699D01*
X105627000Y-135835097D01*
X105637323Y-135783199D01*
X105627000Y-135731301D01*
X105627000Y-135731298D01*
X105596423Y-135577576D01*
X105479945Y-135403255D01*
X105435945Y-135373855D01*
X105312090Y-135250000D01*
X117514635Y-135250000D01*
X117514635Y-136650000D01*
X117547775Y-136816607D01*
X117642150Y-136957850D01*
X117783393Y-137052225D01*
X117950000Y-137085365D01*
X120050000Y-137085365D01*
X120216607Y-137052225D01*
X120357850Y-136957850D01*
X120452225Y-136816607D01*
X120485365Y-136650000D01*
X120485365Y-136208750D01*
X127423000Y-136208750D01*
X127423000Y-136754827D01*
X127503231Y-136948521D01*
X127651478Y-137096769D01*
X127845173Y-137177000D01*
X128363517Y-137177000D01*
X128353000Y-137202391D01*
X128353000Y-137491609D01*
X128463679Y-137758813D01*
X128473000Y-137768134D01*
X128473001Y-139314635D01*
X127950000Y-139314635D01*
X127783393Y-139347775D01*
X127642150Y-139442150D01*
X127547775Y-139583393D01*
X127514635Y-139750000D01*
X127514635Y-141150000D01*
X127547775Y-141316607D01*
X127642150Y-141457850D01*
X127783393Y-141552225D01*
X127950000Y-141585365D01*
X130050000Y-141585365D01*
X130216607Y-141552225D01*
X130357850Y-141457850D01*
X130452225Y-141316607D01*
X130485365Y-141150000D01*
X130485365Y-139750000D01*
X130452225Y-139583393D01*
X130357850Y-139442150D01*
X130216607Y-139347775D01*
X130050000Y-139314635D01*
X129527000Y-139314635D01*
X129527000Y-137928134D01*
X129696321Y-137758813D01*
X129807000Y-137491609D01*
X129807000Y-137202391D01*
X129796483Y-137177000D01*
X130154827Y-137177000D01*
X130348522Y-137096769D01*
X130496769Y-136948521D01*
X130577000Y-136754827D01*
X130577000Y-136208750D01*
X130445250Y-136077000D01*
X129127000Y-136077000D01*
X129127000Y-136097000D01*
X128873000Y-136097000D01*
X128873000Y-136077000D01*
X127554750Y-136077000D01*
X127423000Y-136208750D01*
X120485365Y-136208750D01*
X120485365Y-135250000D01*
X120464514Y-135145173D01*
X127423000Y-135145173D01*
X127423000Y-135691250D01*
X127554750Y-135823000D01*
X128873000Y-135823000D01*
X128873000Y-134854750D01*
X129127000Y-134854750D01*
X129127000Y-135823000D01*
X130445250Y-135823000D01*
X130577000Y-135691250D01*
X130577000Y-135145173D01*
X130496769Y-134951479D01*
X130348522Y-134803231D01*
X130154827Y-134723000D01*
X129258750Y-134723000D01*
X129127000Y-134854750D01*
X128873000Y-134854750D01*
X128741250Y-134723000D01*
X127845173Y-134723000D01*
X127651478Y-134803231D01*
X127503231Y-134951479D01*
X127423000Y-135145173D01*
X120464514Y-135145173D01*
X120452225Y-135083393D01*
X120357850Y-134942150D01*
X120216607Y-134847775D01*
X120050000Y-134814635D01*
X117950000Y-134814635D01*
X117783393Y-134847775D01*
X117642150Y-134942150D01*
X117547775Y-135083393D01*
X117514635Y-135250000D01*
X105312090Y-135250000D01*
X104066745Y-134004655D01*
X104037345Y-133960655D01*
X103863025Y-133844177D01*
X103709303Y-133813600D01*
X103709298Y-133813600D01*
X103657400Y-133803277D01*
X103605502Y-133813600D01*
X100661297Y-133813600D01*
X100609399Y-133803277D01*
X100557501Y-133813600D01*
X100557497Y-133813600D01*
X100403775Y-133844177D01*
X100229455Y-133960655D01*
X100200055Y-134004655D01*
X99867053Y-134337657D01*
X99823056Y-134367055D01*
X99793657Y-134411053D01*
X99793654Y-134411056D01*
X99774813Y-134439254D01*
X99706577Y-134541375D01*
X99676000Y-134695097D01*
X99676000Y-134695102D01*
X99665677Y-134747000D01*
X99676000Y-134798898D01*
X99676000Y-135482635D01*
X99618220Y-135396160D01*
X98663626Y-134441566D01*
X98522383Y-134347191D01*
X98355776Y-134314051D01*
X98189169Y-134347191D01*
X98067592Y-134428426D01*
X97953479Y-134352177D01*
X97799757Y-134321600D01*
X97799752Y-134321600D01*
X97747854Y-134311277D01*
X97695956Y-134321600D01*
X97105299Y-134321600D01*
X97053400Y-134311277D01*
X97001501Y-134321600D01*
X97001497Y-134321600D01*
X96879787Y-134345809D01*
X96847774Y-134352177D01*
X96717455Y-134439254D01*
X96717452Y-134439257D01*
X96673455Y-134468655D01*
X96644056Y-134512653D01*
X95964747Y-135191963D01*
X95828787Y-135248279D01*
X95624279Y-135452787D01*
X95513600Y-135719991D01*
X95513600Y-136009209D01*
X95624279Y-136276413D01*
X95828787Y-136480921D01*
X95955914Y-136533578D01*
X95325566Y-137163926D01*
X95231191Y-137305169D01*
X95198051Y-137471776D01*
X91300365Y-137471776D01*
X91300365Y-136439000D01*
X91267225Y-136272393D01*
X91172850Y-136131150D01*
X91031607Y-136036775D01*
X90865000Y-136003635D01*
X85665000Y-136003635D01*
X85498393Y-136036775D01*
X85357150Y-136131150D01*
X85262775Y-136272393D01*
X85229635Y-136439000D01*
X82577000Y-136439000D01*
X82577000Y-136208750D01*
X82445250Y-136077000D01*
X81127000Y-136077000D01*
X80873000Y-136077000D01*
X79554750Y-136077000D01*
X79423000Y-136208750D01*
X72485365Y-136208750D01*
X72485365Y-135250000D01*
X72464514Y-135145173D01*
X79423000Y-135145173D01*
X79423000Y-135691250D01*
X79554750Y-135823000D01*
X80873000Y-135823000D01*
X80873000Y-134854750D01*
X81127000Y-134854750D01*
X81127000Y-135823000D01*
X82445250Y-135823000D01*
X82577000Y-135691250D01*
X82577000Y-135145173D01*
X82496769Y-134951479D01*
X82348522Y-134803231D01*
X82154827Y-134723000D01*
X81258750Y-134723000D01*
X81127000Y-134854750D01*
X80873000Y-134854750D01*
X80741250Y-134723000D01*
X79845173Y-134723000D01*
X79651478Y-134803231D01*
X79503231Y-134951479D01*
X79423000Y-135145173D01*
X72464514Y-135145173D01*
X72452225Y-135083393D01*
X72357850Y-134942150D01*
X72216607Y-134847775D01*
X72050000Y-134814635D01*
X69950000Y-134814635D01*
X69783393Y-134847775D01*
X69642150Y-134942150D01*
X69547775Y-135083393D01*
X69514635Y-135250000D01*
X57616610Y-135250000D01*
X57718407Y-135148203D01*
X58027000Y-134403195D01*
X58027000Y-133596805D01*
X141973000Y-133596805D01*
X141973000Y-134403195D01*
X142281593Y-135148203D01*
X142851797Y-135718407D01*
X143596805Y-136027000D01*
X144403195Y-136027000D01*
X145148203Y-135718407D01*
X145718407Y-135148203D01*
X146027000Y-134403195D01*
X146027000Y-133596805D01*
X145718407Y-132851797D01*
X145148203Y-132281593D01*
X144403195Y-131973000D01*
X143596805Y-131973000D01*
X142851797Y-132281593D01*
X142281593Y-132851797D01*
X141973000Y-133596805D01*
X58027000Y-133596805D01*
X57718407Y-132851797D01*
X57148203Y-132281593D01*
X56403195Y-131973000D01*
X55596805Y-131973000D01*
X54851797Y-132281593D01*
X54281593Y-132851797D01*
X53973000Y-133596805D01*
X50477000Y-133596805D01*
X50477000Y-130446975D01*
X50486344Y-130400000D01*
X50449323Y-130213884D01*
X50343897Y-130056103D01*
X50258428Y-129998995D01*
X50273933Y-129983490D01*
X50377000Y-129734664D01*
X50377000Y-129722119D01*
X51603000Y-129722119D01*
X51603000Y-130277881D01*
X51815680Y-130791337D01*
X52208663Y-131184320D01*
X52722119Y-131397000D01*
X53277881Y-131397000D01*
X53791337Y-131184320D01*
X54184320Y-130791337D01*
X54397000Y-130277881D01*
X54397000Y-129722119D01*
X145603000Y-129722119D01*
X145603000Y-130277881D01*
X145815680Y-130791337D01*
X146208663Y-131184320D01*
X146722119Y-131397000D01*
X147277881Y-131397000D01*
X147791337Y-131184320D01*
X148184320Y-130791337D01*
X148397000Y-130277881D01*
X148397000Y-129722119D01*
X148184320Y-129208663D01*
X147791337Y-128815680D01*
X147277881Y-128603000D01*
X146722119Y-128603000D01*
X146208663Y-128815680D01*
X145815680Y-129208663D01*
X145603000Y-129722119D01*
X54397000Y-129722119D01*
X54184320Y-129208663D01*
X53791337Y-128815680D01*
X53277881Y-128603000D01*
X52722119Y-128603000D01*
X52208663Y-128815680D01*
X51815680Y-129208663D01*
X51603000Y-129722119D01*
X50377000Y-129722119D01*
X50377000Y-129465336D01*
X50273933Y-129216510D01*
X50257423Y-129200000D01*
X50273933Y-129183490D01*
X50377000Y-128934664D01*
X50377000Y-128665336D01*
X50273933Y-128416510D01*
X50257423Y-128400000D01*
X50273933Y-128383490D01*
X50377000Y-128134664D01*
X50377000Y-127865336D01*
X50273933Y-127616510D01*
X50257423Y-127600000D01*
X50273933Y-127583490D01*
X50377000Y-127334664D01*
X50377000Y-127065336D01*
X50273933Y-126816510D01*
X50258428Y-126801005D01*
X50343897Y-126743897D01*
X50449323Y-126586116D01*
X50486344Y-126400000D01*
X50477000Y-126353025D01*
X50477000Y-123046533D01*
X55123000Y-123046533D01*
X55123000Y-123753467D01*
X55393533Y-124406589D01*
X55893411Y-124906467D01*
X56546533Y-125177000D01*
X57253467Y-125177000D01*
X57906589Y-124906467D01*
X58406467Y-124406589D01*
X58677000Y-123753467D01*
X58677000Y-123046533D01*
X58406467Y-122393411D01*
X57906589Y-121893533D01*
X57253467Y-121623000D01*
X56546533Y-121623000D01*
X55893411Y-121893533D01*
X55393533Y-122393411D01*
X55123000Y-123046533D01*
X50477000Y-123046533D01*
X50477000Y-88000000D01*
X57873000Y-88000000D01*
X57873000Y-121500000D01*
X57881501Y-121545684D01*
X57908004Y-121587554D01*
X60411004Y-124217554D01*
X60454399Y-124247333D01*
X60503000Y-124257000D01*
X89025394Y-124257000D01*
X93687197Y-128918803D01*
X93728399Y-128946333D01*
X93777000Y-128956000D01*
X106096000Y-128956000D01*
X106144601Y-128946333D01*
X106185803Y-128918803D01*
X110847606Y-124257000D01*
X139243000Y-124257000D01*
X139288822Y-124248446D01*
X139330661Y-124221894D01*
X140562778Y-123046533D01*
X141323000Y-123046533D01*
X141323000Y-123753467D01*
X141593533Y-124406589D01*
X142093411Y-124906467D01*
X142746533Y-125177000D01*
X143453467Y-125177000D01*
X144106589Y-124906467D01*
X144606467Y-124406589D01*
X144877000Y-123753467D01*
X144877000Y-123046533D01*
X144606467Y-122393411D01*
X144106589Y-121893533D01*
X143453467Y-121623000D01*
X142746533Y-121623000D01*
X142093411Y-121893533D01*
X141593533Y-122393411D01*
X141323000Y-123046533D01*
X140562778Y-123046533D01*
X142087661Y-121591894D01*
X142117333Y-121548601D01*
X142127000Y-121500000D01*
X142127000Y-88000000D01*
X142117291Y-87951298D01*
X142089725Y-87910120D01*
X127751589Y-73596805D01*
X141973000Y-73596805D01*
X141973000Y-74403195D01*
X142281593Y-75148203D01*
X142851797Y-75718407D01*
X143596805Y-76027000D01*
X144403195Y-76027000D01*
X145148203Y-75718407D01*
X145718407Y-75148203D01*
X146027000Y-74403195D01*
X146027000Y-73596805D01*
X145718407Y-72851797D01*
X145148203Y-72281593D01*
X144403195Y-71973000D01*
X143596805Y-71973000D01*
X142851797Y-72281593D01*
X142281593Y-72851797D01*
X141973000Y-73596805D01*
X127751589Y-73596805D01*
X127648725Y-73494120D01*
X127607601Y-73466667D01*
X127559000Y-73457000D01*
X100364189Y-73457000D01*
X100409500Y-73347609D01*
X100409500Y-73058391D01*
X100298821Y-72791187D01*
X100094313Y-72586679D01*
X99827109Y-72476000D01*
X99537891Y-72476000D01*
X99422008Y-72524000D01*
X95904134Y-72524000D01*
X95839813Y-72459679D01*
X95572609Y-72349000D01*
X95283391Y-72349000D01*
X95016187Y-72459679D01*
X94811679Y-72664187D01*
X94701000Y-72931391D01*
X94701000Y-73220609D01*
X94798916Y-73457000D01*
X72441000Y-73457000D01*
X72392501Y-73466625D01*
X72351275Y-73494120D01*
X57910275Y-87910120D01*
X57882667Y-87951399D01*
X57873000Y-88000000D01*
X50477000Y-88000000D01*
X50477000Y-73596805D01*
X53973000Y-73596805D01*
X53973000Y-74403195D01*
X54281593Y-75148203D01*
X54851797Y-75718407D01*
X55596805Y-76027000D01*
X56403195Y-76027000D01*
X57148203Y-75718407D01*
X57718407Y-75148203D01*
X58027000Y-74403195D01*
X58027000Y-73596805D01*
X57718407Y-72851797D01*
X57148203Y-72281593D01*
X56403195Y-71973000D01*
X55596805Y-71973000D01*
X54851797Y-72281593D01*
X54281593Y-72851797D01*
X53973000Y-73596805D01*
X50477000Y-73596805D01*
X50477000Y-69990499D01*
X63232000Y-69990499D01*
X63232000Y-70319501D01*
X63357903Y-70623458D01*
X63382000Y-70647555D01*
X63382001Y-72202444D01*
X63357903Y-72226542D01*
X63232000Y-72530499D01*
X63232000Y-72859501D01*
X63357903Y-73163458D01*
X63590542Y-73396097D01*
X63894499Y-73522000D01*
X64223501Y-73522000D01*
X64527458Y-73396097D01*
X64760097Y-73163458D01*
X64886000Y-72859501D01*
X64886000Y-72530499D01*
X64760097Y-72226542D01*
X64736000Y-72202445D01*
X64736000Y-70647555D01*
X64760097Y-70623458D01*
X64821000Y-70476425D01*
X64881903Y-70623458D01*
X64906000Y-70647555D01*
X64906001Y-73744970D01*
X64883000Y-73800499D01*
X64883000Y-74129501D01*
X65008903Y-74433458D01*
X65241542Y-74666097D01*
X65545499Y-74792000D01*
X65874501Y-74792000D01*
X66178458Y-74666097D01*
X66411097Y-74433458D01*
X66537000Y-74129501D01*
X66537000Y-73800499D01*
X66411097Y-73496542D01*
X66260000Y-73345445D01*
X66260000Y-70647555D01*
X66284097Y-70623458D01*
X66410000Y-70319501D01*
X66410000Y-69990499D01*
X66284097Y-69686542D01*
X66051458Y-69453903D01*
X65747501Y-69328000D01*
X65418499Y-69328000D01*
X65114542Y-69453903D01*
X64881903Y-69686542D01*
X64821000Y-69833575D01*
X64760097Y-69686542D01*
X64527458Y-69453903D01*
X64223501Y-69328000D01*
X63894499Y-69328000D01*
X63590542Y-69453903D01*
X63357903Y-69686542D01*
X63232000Y-69990499D01*
X50477000Y-69990499D01*
X50477000Y-62786499D01*
X81342000Y-62786499D01*
X81342000Y-63115501D01*
X81467903Y-63419458D01*
X81700542Y-63652097D01*
X82004499Y-63778000D01*
X82333501Y-63778000D01*
X82637458Y-63652097D01*
X82870097Y-63419458D01*
X82996000Y-63115501D01*
X82996000Y-62786499D01*
X82870097Y-62482542D01*
X82851488Y-62463933D01*
X83211422Y-62104000D01*
X86610824Y-62104000D01*
X86677500Y-62117263D01*
X86744176Y-62104000D01*
X86744178Y-62104000D01*
X86941652Y-62064720D01*
X87165590Y-61915090D01*
X87203364Y-61858557D01*
X88100922Y-60961000D01*
X88604000Y-60961000D01*
X88604001Y-65274077D01*
X87817079Y-66061000D01*
X87782999Y-66061000D01*
X87479042Y-66186903D01*
X87246403Y-66419542D01*
X87120500Y-66723499D01*
X87120500Y-67052501D01*
X87246403Y-67356458D01*
X87479042Y-67589097D01*
X87782999Y-67715000D01*
X88112001Y-67715000D01*
X88415958Y-67589097D01*
X88648597Y-67356458D01*
X88774500Y-67052501D01*
X88774500Y-67018421D01*
X89712560Y-66080362D01*
X89769090Y-66042590D01*
X89918720Y-65818652D01*
X89958000Y-65621178D01*
X89958000Y-65621177D01*
X89971263Y-65554500D01*
X89958000Y-65487824D01*
X89958000Y-64763509D01*
X90061679Y-65013813D01*
X90126000Y-65078134D01*
X90126001Y-66919865D01*
X90061679Y-66984187D01*
X89951000Y-67251391D01*
X89951000Y-67540609D01*
X90061679Y-67807813D01*
X90266187Y-68012321D01*
X90533391Y-68123000D01*
X90822609Y-68123000D01*
X91089813Y-68012321D01*
X91294321Y-67807813D01*
X91313000Y-67762718D01*
X91331679Y-67807813D01*
X91536187Y-68012321D01*
X91803391Y-68123000D01*
X91916321Y-68123000D01*
X91954235Y-68148333D01*
X91986620Y-68169972D01*
X92201999Y-68212814D01*
X92256364Y-68202000D01*
X94179635Y-68202000D01*
X94234000Y-68212814D01*
X94288365Y-68202000D01*
X94449380Y-68169972D01*
X94631970Y-68047970D01*
X94662768Y-68001877D01*
X94922645Y-67742000D01*
X95013609Y-67742000D01*
X95280813Y-67631321D01*
X95345134Y-67567000D01*
X95357912Y-67567000D01*
X95412277Y-67577814D01*
X95466642Y-67567000D01*
X97694866Y-67567000D01*
X97759187Y-67631321D01*
X98026391Y-67742000D01*
X98315609Y-67742000D01*
X98582813Y-67631321D01*
X98787321Y-67426813D01*
X98898000Y-67159609D01*
X98898000Y-66870391D01*
X98787321Y-66603187D01*
X98582813Y-66398679D01*
X98315609Y-66288000D01*
X98026391Y-66288000D01*
X97759187Y-66398679D01*
X97694866Y-66463000D01*
X95964277Y-66463000D01*
X95964277Y-65455345D01*
X96028598Y-65391024D01*
X96139277Y-65123820D01*
X96139277Y-64834602D01*
X96028598Y-64567398D01*
X95824090Y-64362890D01*
X95556886Y-64252211D01*
X95267668Y-64252211D01*
X95000464Y-64362890D01*
X94929969Y-64433385D01*
X94711735Y-64342990D01*
X94422517Y-64342990D01*
X94155313Y-64453669D01*
X93950805Y-64658177D01*
X93945000Y-64672192D01*
X93945000Y-64584391D01*
X93834321Y-64317187D01*
X93706500Y-64189366D01*
X93706500Y-63830864D01*
X93717314Y-63776499D01*
X93674472Y-63561120D01*
X93646932Y-63519903D01*
X93552470Y-63378530D01*
X93506379Y-63347733D01*
X91103000Y-60944355D01*
X91103000Y-60799055D01*
X91289042Y-60985097D01*
X91592999Y-61111000D01*
X91922001Y-61111000D01*
X92225958Y-60985097D01*
X92250055Y-60961000D01*
X92683579Y-60961000D01*
X93835139Y-62112562D01*
X93872910Y-62169090D01*
X94096848Y-62318720D01*
X94294322Y-62358000D01*
X94294323Y-62358000D01*
X94360999Y-62371263D01*
X94427676Y-62358000D01*
X98322578Y-62358000D01*
X98804140Y-62839562D01*
X98841910Y-62896090D01*
X99065848Y-63045720D01*
X99263322Y-63085000D01*
X99263323Y-63085000D01*
X99329999Y-63098263D01*
X99396676Y-63085000D01*
X112588445Y-63085000D01*
X112739542Y-63236097D01*
X113043499Y-63362000D01*
X113372501Y-63362000D01*
X113676458Y-63236097D01*
X113909097Y-63003458D01*
X114035000Y-62699501D01*
X114035000Y-62370499D01*
X113909097Y-62066542D01*
X113676458Y-61833903D01*
X113372501Y-61708000D01*
X113043499Y-61708000D01*
X112987972Y-61731000D01*
X99610422Y-61731000D01*
X99128864Y-61249442D01*
X99091090Y-61192910D01*
X98867152Y-61043280D01*
X98669678Y-61004000D01*
X98669676Y-61004000D01*
X98603000Y-60990737D01*
X98536324Y-61004000D01*
X94641423Y-61004000D01*
X93489864Y-59852443D01*
X93452090Y-59795910D01*
X93301227Y-59695107D01*
X93345000Y-59703814D01*
X93380599Y-59696733D01*
X93441187Y-59757321D01*
X93708391Y-59868000D01*
X93997609Y-59868000D01*
X94264813Y-59757321D01*
X94469321Y-59552813D01*
X94580000Y-59285609D01*
X94580000Y-58996391D01*
X94469321Y-58729187D01*
X94264813Y-58524679D01*
X93997609Y-58414000D01*
X93708391Y-58414000D01*
X93484153Y-58506882D01*
X93369880Y-58430528D01*
X93208865Y-58398500D01*
X93154500Y-58387686D01*
X93100135Y-58398500D01*
X91430864Y-58398500D01*
X91376499Y-58387686D01*
X91161120Y-58430528D01*
X90978530Y-58552530D01*
X90947733Y-58598621D01*
X90199121Y-59347234D01*
X90153031Y-59378030D01*
X90071109Y-59500635D01*
X90031028Y-59560621D01*
X89988186Y-59776000D01*
X89999001Y-59830370D01*
X89999001Y-59856352D01*
X89982097Y-59815542D01*
X89749458Y-59582903D01*
X89445501Y-59457000D01*
X89116499Y-59457000D01*
X88812542Y-59582903D01*
X88788445Y-59607000D01*
X87887176Y-59607000D01*
X87820499Y-59593737D01*
X87753823Y-59607000D01*
X87753822Y-59607000D01*
X87556348Y-59646280D01*
X87332410Y-59795910D01*
X87294638Y-59852440D01*
X86397079Y-60750000D01*
X82997676Y-60750000D01*
X82931000Y-60736737D01*
X82864323Y-60750000D01*
X82864322Y-60750000D01*
X82666848Y-60789280D01*
X82442910Y-60938910D01*
X82405138Y-60995440D01*
X81737440Y-61663138D01*
X81680910Y-61700911D01*
X81531280Y-61924849D01*
X81492000Y-62122322D01*
X81478737Y-62189000D01*
X81492000Y-62255676D01*
X81492000Y-62458445D01*
X81467903Y-62482542D01*
X81342000Y-62786499D01*
X50477000Y-62786499D01*
X50477000Y-51906500D01*
X58096135Y-51906500D01*
X58096135Y-53303500D01*
X58129275Y-53470107D01*
X58223650Y-53611350D01*
X58364893Y-53705725D01*
X58531500Y-53738865D01*
X59928500Y-53738865D01*
X60095107Y-53705725D01*
X60236350Y-53611350D01*
X60330725Y-53470107D01*
X60363865Y-53303500D01*
X60363865Y-51906500D01*
X60357853Y-51876275D01*
X61235500Y-52753923D01*
X61235501Y-53486319D01*
X61222237Y-53553000D01*
X61262084Y-53753321D01*
X61274781Y-53817152D01*
X61424411Y-54041090D01*
X61480941Y-54078862D01*
X64528937Y-57126859D01*
X64528940Y-57126861D01*
X67355638Y-59953560D01*
X67393410Y-60010090D01*
X67617348Y-60159720D01*
X67814822Y-60199000D01*
X67814823Y-60199000D01*
X67881500Y-60212263D01*
X67948176Y-60199000D01*
X81975324Y-60199000D01*
X82042000Y-60212263D01*
X82108676Y-60199000D01*
X82108678Y-60199000D01*
X82306152Y-60159720D01*
X82530090Y-60010090D01*
X82567864Y-59953557D01*
X82821859Y-59699562D01*
X85775562Y-56745860D01*
X85832089Y-56708090D01*
X85981720Y-56484152D01*
X86021000Y-56286678D01*
X86021000Y-56286677D01*
X86034263Y-56220000D01*
X86021000Y-56153324D01*
X86021000Y-51293421D01*
X89561422Y-47753000D01*
X91881324Y-47753000D01*
X91948000Y-47766263D01*
X92014676Y-47753000D01*
X92014678Y-47753000D01*
X92212152Y-47713720D01*
X92436090Y-47564090D01*
X92473864Y-47507558D01*
X92760561Y-47220860D01*
X92817089Y-47183090D01*
X92966720Y-46959152D01*
X93006000Y-46761678D01*
X93006000Y-46761677D01*
X93019263Y-46695001D01*
X93006000Y-46628324D01*
X93006000Y-45663555D01*
X93030097Y-45639458D01*
X93156000Y-45335501D01*
X93156000Y-45006499D01*
X93030097Y-44702542D01*
X92797458Y-44469903D01*
X92493501Y-44344000D01*
X92164499Y-44344000D01*
X91860542Y-44469903D01*
X91627903Y-44702542D01*
X91502000Y-45006499D01*
X91502000Y-45335501D01*
X91627903Y-45639458D01*
X91652001Y-45663556D01*
X91652000Y-46399000D01*
X89347676Y-46399000D01*
X89281000Y-46385737D01*
X89214323Y-46399000D01*
X89214322Y-46399000D01*
X89016848Y-46438280D01*
X88792910Y-46587910D01*
X88755138Y-46644440D01*
X84912441Y-50487138D01*
X84855911Y-50524910D01*
X84725303Y-50720379D01*
X84706281Y-50748848D01*
X84653737Y-51013000D01*
X84667001Y-51079681D01*
X84667000Y-55939578D01*
X81864438Y-58742141D01*
X81761579Y-58845000D01*
X80699134Y-58845000D01*
X80753321Y-58790813D01*
X80864000Y-58523609D01*
X80864000Y-58234391D01*
X80753321Y-57967187D01*
X80548813Y-57762679D01*
X80281609Y-57652000D01*
X79992391Y-57652000D01*
X79725187Y-57762679D01*
X79660866Y-57827000D01*
X77907134Y-57827000D01*
X77959321Y-57774813D01*
X78070000Y-57507609D01*
X78070000Y-57218391D01*
X77959321Y-56951187D01*
X77754813Y-56746679D01*
X77487609Y-56636000D01*
X77198391Y-56636000D01*
X76931187Y-56746679D01*
X76866866Y-56811000D01*
X70967646Y-56811000D01*
X68497000Y-54340355D01*
X68497000Y-52505134D01*
X68561321Y-52440813D01*
X68672000Y-52173609D01*
X68672000Y-51884391D01*
X68561321Y-51617187D01*
X68356813Y-51412679D01*
X68089609Y-51302000D01*
X67800391Y-51302000D01*
X67533187Y-51412679D01*
X67328679Y-51617187D01*
X67218000Y-51884391D01*
X67218000Y-52173609D01*
X67328679Y-52440813D01*
X67393000Y-52505134D01*
X67393001Y-54514630D01*
X67382186Y-54569000D01*
X67425028Y-54784379D01*
X67450834Y-54823000D01*
X67547031Y-54966970D01*
X67593121Y-54997766D01*
X70310233Y-57714879D01*
X70341030Y-57760970D01*
X70439851Y-57827000D01*
X68681646Y-57827000D01*
X65624000Y-54769355D01*
X65624000Y-54678391D01*
X65513321Y-54411187D01*
X65308813Y-54206679D01*
X65041609Y-54096000D01*
X64752391Y-54096000D01*
X64485187Y-54206679D01*
X64280679Y-54411187D01*
X64170000Y-54678391D01*
X64170000Y-54853078D01*
X62589500Y-53272579D01*
X62589500Y-52540176D01*
X62602763Y-52473499D01*
X62586757Y-52393031D01*
X62550220Y-52209348D01*
X62488768Y-52117379D01*
X62438359Y-52041936D01*
X62438358Y-52041935D01*
X62400589Y-51985410D01*
X62344065Y-51947642D01*
X60990921Y-50594499D01*
X68388000Y-50594499D01*
X68388000Y-50923501D01*
X68513903Y-51227458D01*
X68746542Y-51460097D01*
X69050499Y-51586000D01*
X69379501Y-51586000D01*
X69683458Y-51460097D01*
X69916097Y-51227458D01*
X69995401Y-51036001D01*
X76406323Y-51036001D01*
X76472999Y-51049264D01*
X76539675Y-51036001D01*
X76539677Y-51036001D01*
X76737151Y-50996721D01*
X76961089Y-50847091D01*
X76998863Y-50790558D01*
X80417422Y-47372000D01*
X83200445Y-47372000D01*
X83224542Y-47396097D01*
X83528499Y-47522000D01*
X83857501Y-47522000D01*
X84161458Y-47396097D01*
X84394097Y-47163458D01*
X84520000Y-46859501D01*
X84520000Y-46530499D01*
X84394097Y-46226542D01*
X84161458Y-45993903D01*
X83857501Y-45868000D01*
X83528499Y-45868000D01*
X83224542Y-45993903D01*
X83200445Y-46018000D01*
X80203676Y-46018000D01*
X80137000Y-46004737D01*
X80070323Y-46018000D01*
X80070322Y-46018000D01*
X79872848Y-46057280D01*
X79648910Y-46206910D01*
X79611138Y-46263440D01*
X76192578Y-49682001D01*
X69681675Y-49682001D01*
X69614998Y-49668738D01*
X69548322Y-49682001D01*
X69548321Y-49682001D01*
X69350847Y-49721281D01*
X69126909Y-49870911D01*
X69089135Y-49927444D01*
X69084579Y-49932000D01*
X69050499Y-49932000D01*
X68746542Y-50057903D01*
X68513903Y-50290542D01*
X68388000Y-50594499D01*
X60990921Y-50594499D01*
X60355500Y-49959079D01*
X60355500Y-49841124D01*
X60184153Y-49427455D01*
X59867545Y-49110847D01*
X59453876Y-48939500D01*
X59006124Y-48939500D01*
X58592455Y-49110847D01*
X58275847Y-49427455D01*
X58104500Y-49841124D01*
X58104500Y-50288876D01*
X58275847Y-50702545D01*
X58592455Y-51019153D01*
X59006124Y-51190500D01*
X59453876Y-51190500D01*
X59608169Y-51126590D01*
X59958725Y-51477147D01*
X59928500Y-51471135D01*
X58531500Y-51471135D01*
X58364893Y-51504275D01*
X58223650Y-51598650D01*
X58129275Y-51739893D01*
X58096135Y-51906500D01*
X50477000Y-51906500D01*
X50477000Y-47301124D01*
X58104500Y-47301124D01*
X58104500Y-47748876D01*
X58275847Y-48162545D01*
X58592455Y-48479153D01*
X59006124Y-48650500D01*
X59453876Y-48650500D01*
X59867545Y-48479153D01*
X60184153Y-48162545D01*
X60355500Y-47748876D01*
X60355500Y-47301124D01*
X60184153Y-46887455D01*
X59867545Y-46570847D01*
X59453876Y-46399500D01*
X59006124Y-46399500D01*
X58592455Y-46570847D01*
X58275847Y-46887455D01*
X58104500Y-47301124D01*
X50477000Y-47301124D01*
X50477000Y-43046975D01*
X50486344Y-43000000D01*
X50449323Y-42813884D01*
X50343897Y-42656103D01*
X50258428Y-42598995D01*
X50273933Y-42583490D01*
X50377000Y-42334664D01*
X50377000Y-42065336D01*
X50273933Y-41816510D01*
X50257423Y-41800000D01*
X50273933Y-41783490D01*
X50377000Y-41534664D01*
X50377000Y-41265336D01*
X50273933Y-41016510D01*
X50257423Y-41000000D01*
X50273933Y-40983490D01*
X50377000Y-40734664D01*
X50377000Y-40465336D01*
X50273933Y-40216510D01*
X50257423Y-40200000D01*
X50273933Y-40183490D01*
X50377000Y-39934664D01*
X50377000Y-39665336D01*
X50273933Y-39416510D01*
X50258428Y-39401005D01*
X50343897Y-39343897D01*
X50449323Y-39186116D01*
X50486344Y-39000000D01*
X50477000Y-38953025D01*
X50477000Y-38313000D01*
X75438000Y-38313000D01*
X75438000Y-43139000D01*
X75447667Y-43187601D01*
X75475197Y-43228803D01*
X78015197Y-45768803D01*
X78056399Y-45796333D01*
X78105000Y-45806000D01*
X83185000Y-45806000D01*
X83233601Y-45796333D01*
X83274803Y-45768803D01*
X85814803Y-43228803D01*
X85842333Y-43187601D01*
X85852000Y-43139000D01*
X85852000Y-41089391D01*
X103032000Y-41089391D01*
X103032000Y-41378609D01*
X103142679Y-41645813D01*
X103347187Y-41850321D01*
X103614391Y-41961000D01*
X103903609Y-41961000D01*
X104170813Y-41850321D01*
X104375321Y-41645813D01*
X104426606Y-41522000D01*
X109632866Y-41522000D01*
X109697187Y-41586321D01*
X109964391Y-41697000D01*
X110253609Y-41697000D01*
X110520813Y-41586321D01*
X110612000Y-41495134D01*
X110713187Y-41596321D01*
X110980391Y-41707000D01*
X111269609Y-41707000D01*
X111536813Y-41596321D01*
X111741321Y-41391813D01*
X111852000Y-41124609D01*
X111852000Y-40835391D01*
X111741321Y-40568187D01*
X111646085Y-40472951D01*
X111644972Y-40467356D01*
X111628618Y-40442881D01*
X111522970Y-40284766D01*
X111476880Y-40253970D01*
X110962032Y-39739123D01*
X110931234Y-39693030D01*
X110748644Y-39571028D01*
X110587629Y-39539000D01*
X110533264Y-39528186D01*
X110478899Y-39539000D01*
X105632134Y-39539000D01*
X105567813Y-39474679D01*
X105300609Y-39364000D01*
X105011391Y-39364000D01*
X104744187Y-39474679D01*
X104539679Y-39679187D01*
X104429000Y-39946391D01*
X104429000Y-40235609D01*
X104504548Y-40418000D01*
X104017091Y-40418000D01*
X104012999Y-40417186D01*
X104008907Y-40418000D01*
X103958635Y-40418000D01*
X103797620Y-40450028D01*
X103712355Y-40507000D01*
X103614391Y-40507000D01*
X103347187Y-40617679D01*
X103142679Y-40822187D01*
X103032000Y-41089391D01*
X85852000Y-41089391D01*
X85852000Y-38059000D01*
X85842333Y-38010399D01*
X85814803Y-37969197D01*
X83274803Y-35429197D01*
X83233601Y-35401667D01*
X83185000Y-35392000D01*
X78359000Y-35392000D01*
X78310399Y-35401667D01*
X78269197Y-35429197D01*
X75475197Y-38223197D01*
X75447667Y-38264399D01*
X75438000Y-38313000D01*
X50477000Y-38313000D01*
X50477000Y-35024163D01*
X50551360Y-34292099D01*
X50764143Y-33613109D01*
X51109109Y-32990774D01*
X51376715Y-32678553D01*
X126683000Y-32678553D01*
X126683000Y-33441448D01*
X126730984Y-33682679D01*
X126913768Y-33956233D01*
X127187322Y-34139016D01*
X127510000Y-34203201D01*
X127832679Y-34139016D01*
X128106233Y-33956233D01*
X128289016Y-33682679D01*
X128337000Y-33441448D01*
X128337000Y-32678553D01*
X135663000Y-32678553D01*
X135663000Y-33441448D01*
X135710984Y-33682679D01*
X135893768Y-33956233D01*
X136167322Y-34139016D01*
X136490000Y-34203201D01*
X136812679Y-34139016D01*
X137086233Y-33956233D01*
X137242663Y-33722119D01*
X145603000Y-33722119D01*
X145603000Y-34277881D01*
X145815680Y-34791337D01*
X146208663Y-35184320D01*
X146722119Y-35397000D01*
X147277881Y-35397000D01*
X147791337Y-35184320D01*
X148184320Y-34791337D01*
X148397000Y-34277881D01*
X148397000Y-33722119D01*
X148184320Y-33208663D01*
X147791337Y-32815680D01*
X147277881Y-32603000D01*
X146722119Y-32603000D01*
X146208663Y-32815680D01*
X145815680Y-33208663D01*
X145603000Y-33722119D01*
X137242663Y-33722119D01*
X137269016Y-33682679D01*
X137317000Y-33441448D01*
X137317000Y-32678552D01*
X137269016Y-32437321D01*
X137086233Y-32163767D01*
X136812678Y-31980984D01*
X136490000Y-31916799D01*
X136167321Y-31980984D01*
X135893767Y-32163767D01*
X135710984Y-32437322D01*
X135663000Y-32678553D01*
X128337000Y-32678553D01*
X128337000Y-32678552D01*
X128289016Y-32437321D01*
X128106233Y-32163767D01*
X127832678Y-31980984D01*
X127510000Y-31916799D01*
X127187321Y-31980984D01*
X126913767Y-32163767D01*
X126730984Y-32437322D01*
X126683000Y-32678553D01*
X51376715Y-32678553D01*
X51572163Y-32450521D01*
X52134395Y-32014408D01*
X52772838Y-31700255D01*
X53467098Y-31519414D01*
X54018322Y-31477000D01*
X145975837Y-31477000D01*
X146707901Y-31551360D01*
X146707901Y-31551360D01*
G37*
X146707901Y-31551360D02*
X147386891Y-31764143D01*
X148009226Y-32109109D01*
X148549479Y-32572163D01*
X148985592Y-33134395D01*
X149299745Y-33772838D01*
X149480586Y-34467098D01*
X149523001Y-35018335D01*
X149523000Y-38953025D01*
X149513656Y-39000000D01*
X149550677Y-39186116D01*
X149620344Y-39290380D01*
X149656103Y-39343897D01*
X149741572Y-39401005D01*
X149726067Y-39416510D01*
X149623000Y-39665336D01*
X149623000Y-39934664D01*
X149726067Y-40183490D01*
X149742577Y-40200000D01*
X149726067Y-40216510D01*
X149623000Y-40465336D01*
X149623000Y-40734664D01*
X149726067Y-40983490D01*
X149742577Y-41000000D01*
X149726067Y-41016510D01*
X149623000Y-41265336D01*
X149623000Y-41534664D01*
X149726067Y-41783490D01*
X149742577Y-41800000D01*
X149726067Y-41816510D01*
X149623000Y-42065336D01*
X149623000Y-42334664D01*
X149726067Y-42583490D01*
X149741572Y-42598995D01*
X149656103Y-42656103D01*
X149550677Y-42813884D01*
X149513656Y-43000000D01*
X149523001Y-43046980D01*
X149523001Y-60873000D01*
X148721750Y-60873000D01*
X148590000Y-61004750D01*
X148590000Y-61711643D01*
X148490320Y-61652285D01*
X148336000Y-61806605D01*
X148336000Y-61004750D01*
X148204250Y-60873000D01*
X147364763Y-60873000D01*
X147344906Y-60865221D01*
X146942414Y-60873000D01*
X146858173Y-60873000D01*
X146854050Y-60874708D01*
X146498891Y-60881572D01*
X145793221Y-61173871D01*
X145615286Y-61472678D01*
X145521082Y-61378474D01*
X145459000Y-61440556D01*
X145459000Y-59957364D01*
X145469814Y-59902999D01*
X145426972Y-59687620D01*
X145413648Y-59667679D01*
X145304970Y-59505030D01*
X145258880Y-59474234D01*
X144062000Y-58277355D01*
X144062000Y-55131364D01*
X144072814Y-55076999D01*
X144029972Y-54861620D01*
X144004167Y-54823000D01*
X143907970Y-54679030D01*
X143861880Y-54648234D01*
X142563955Y-53350310D01*
X142510970Y-53271012D01*
X142328379Y-53149010D01*
X142113000Y-53106168D01*
X142058630Y-53116983D01*
X139380156Y-53116981D01*
X139325792Y-53106167D01*
X139271427Y-53116981D01*
X139110412Y-53149009D01*
X138927822Y-53271011D01*
X138897026Y-53317101D01*
X138705126Y-53509000D01*
X123583309Y-53509000D01*
X123663000Y-53316609D01*
X123663000Y-53027391D01*
X123552321Y-52760187D01*
X123347813Y-52555679D01*
X123080609Y-52445000D01*
X122989646Y-52445000D01*
X120585645Y-50041000D01*
X128676355Y-50041000D01*
X128984233Y-50348879D01*
X129015030Y-50394970D01*
X129161785Y-50493028D01*
X129197620Y-50516972D01*
X129412999Y-50559814D01*
X129467364Y-50549000D01*
X130755635Y-50549000D01*
X130810000Y-50559814D01*
X130864365Y-50549000D01*
X131025380Y-50516972D01*
X131207970Y-50394970D01*
X131238769Y-50348876D01*
X131923876Y-49663769D01*
X131969970Y-49632970D01*
X132091972Y-49450380D01*
X132113877Y-49340257D01*
X132188321Y-49265813D01*
X132299000Y-48998609D01*
X132299000Y-48709391D01*
X132188321Y-48442187D01*
X131983813Y-48237679D01*
X131716609Y-48127000D01*
X131427391Y-48127000D01*
X131160187Y-48237679D01*
X131156000Y-48241866D01*
X131156000Y-48074391D01*
X131045321Y-47807187D01*
X130840813Y-47602679D01*
X130573609Y-47492000D01*
X130284391Y-47492000D01*
X130017187Y-47602679D01*
X129952866Y-47667000D01*
X119063914Y-47667000D01*
X119091000Y-47601609D01*
X119091000Y-47422000D01*
X119143609Y-47422000D01*
X119410813Y-47311321D01*
X119615321Y-47106813D01*
X119726000Y-46839609D01*
X119726000Y-46550391D01*
X119698914Y-46485000D01*
X133676635Y-46485000D01*
X133731000Y-46495814D01*
X133785365Y-46485000D01*
X133946380Y-46452972D01*
X134016679Y-46406000D01*
X134129609Y-46406000D01*
X134396813Y-46295321D01*
X134601321Y-46090813D01*
X134712000Y-45823609D01*
X134712000Y-45534391D01*
X135417000Y-45534391D01*
X135417000Y-45823609D01*
X135527679Y-46090813D01*
X135732187Y-46295321D01*
X135999391Y-46406000D01*
X136288609Y-46406000D01*
X136555813Y-46295321D01*
X136620134Y-46231000D01*
X137359635Y-46231000D01*
X137414000Y-46241814D01*
X137468365Y-46231000D01*
X137629380Y-46198972D01*
X137811970Y-46076970D01*
X137842769Y-46030876D01*
X138356645Y-45517000D01*
X138447609Y-45517000D01*
X138714813Y-45406321D01*
X138919321Y-45201813D01*
X139030000Y-44934609D01*
X139030000Y-44645391D01*
X138919321Y-44378187D01*
X138714813Y-44173679D01*
X138447609Y-44063000D01*
X138158391Y-44063000D01*
X137891187Y-44173679D01*
X137686679Y-44378187D01*
X137576000Y-44645391D01*
X137576000Y-44736355D01*
X137185355Y-45127000D01*
X136620134Y-45127000D01*
X136555813Y-45062679D01*
X136288609Y-44952000D01*
X135999391Y-44952000D01*
X135732187Y-45062679D01*
X135527679Y-45267187D01*
X135417000Y-45534391D01*
X134712000Y-45534391D01*
X134601321Y-45267187D01*
X134396813Y-45062679D01*
X134129609Y-44952000D01*
X133950000Y-44952000D01*
X133950000Y-44899391D01*
X133839321Y-44632187D01*
X133634813Y-44427679D01*
X133367609Y-44317000D01*
X133078391Y-44317000D01*
X132811187Y-44427679D01*
X132744460Y-44494406D01*
X132696321Y-44378187D01*
X132521879Y-44203745D01*
X132477970Y-44138030D01*
X132431879Y-44107234D01*
X132127768Y-43803123D01*
X132096970Y-43757030D01*
X131998149Y-43691000D01*
X145827866Y-43691000D01*
X146019187Y-43882321D01*
X146286391Y-43993000D01*
X146575609Y-43993000D01*
X146842813Y-43882321D01*
X147047321Y-43677813D01*
X147158000Y-43410609D01*
X147158000Y-43121391D01*
X147047321Y-42854187D01*
X146842813Y-42649679D01*
X146575609Y-42539000D01*
X146286391Y-42539000D01*
X146170508Y-42587000D01*
X132619132Y-42587000D01*
X132661813Y-42569321D01*
X132866321Y-42364813D01*
X132977000Y-42097609D01*
X132977000Y-41808391D01*
X132866321Y-41541187D01*
X132759000Y-41433866D01*
X132759000Y-38981036D01*
X132768156Y-38904833D01*
X132744258Y-38819520D01*
X132726972Y-38732620D01*
X132714820Y-38714433D01*
X132713043Y-38708091D01*
X132823321Y-38597813D01*
X132933424Y-38332000D01*
X135387949Y-38332000D01*
X135350984Y-38387322D01*
X135303000Y-38628553D01*
X135303000Y-39391448D01*
X135328077Y-39517520D01*
X135156584Y-39551632D01*
X134907839Y-39717839D01*
X134741632Y-39966584D01*
X134683268Y-40260000D01*
X134741632Y-40553416D01*
X134907839Y-40802161D01*
X135156584Y-40968368D01*
X135375937Y-41012000D01*
X135824063Y-41012000D01*
X136043416Y-40968368D01*
X136292161Y-40802161D01*
X136458368Y-40553416D01*
X136516732Y-40260000D01*
X136479197Y-40071297D01*
X136726233Y-39906233D01*
X136909016Y-39632679D01*
X136957000Y-39391448D01*
X136957000Y-38630134D01*
X137002187Y-38675321D01*
X137269391Y-38786000D01*
X137558609Y-38786000D01*
X137825813Y-38675321D01*
X138030321Y-38470813D01*
X138141000Y-38203609D01*
X138141000Y-37914391D01*
X138030321Y-37647187D01*
X137825813Y-37442679D01*
X137558609Y-37332000D01*
X137400680Y-37332000D01*
X137365625Y-37308577D01*
X137211903Y-37278000D01*
X137211898Y-37278000D01*
X137160000Y-37267677D01*
X137108102Y-37278000D01*
X132639897Y-37278000D01*
X132587999Y-37267677D01*
X132536101Y-37278000D01*
X132536097Y-37278000D01*
X132382375Y-37308577D01*
X132208055Y-37425055D01*
X132185373Y-37459000D01*
X132062391Y-37459000D01*
X131795187Y-37569679D01*
X131762500Y-37602366D01*
X131729813Y-37569679D01*
X131462609Y-37459000D01*
X131173391Y-37459000D01*
X130906187Y-37569679D01*
X130701679Y-37774187D01*
X130591000Y-38041391D01*
X130591000Y-38330609D01*
X130701679Y-38597813D01*
X130906187Y-38802321D01*
X131173391Y-38913000D01*
X131317970Y-38913000D01*
X131655001Y-39201884D01*
X131655000Y-41519866D01*
X131633679Y-41541187D01*
X131523000Y-41808391D01*
X131523000Y-42097609D01*
X131633679Y-42364813D01*
X131838187Y-42569321D01*
X131880868Y-42587000D01*
X122238914Y-42587000D01*
X122266000Y-42521609D01*
X122266000Y-42232391D01*
X122155321Y-41965187D01*
X121950813Y-41760679D01*
X121683609Y-41650000D01*
X121394391Y-41650000D01*
X121127187Y-41760679D01*
X120922679Y-41965187D01*
X120875536Y-42079000D01*
X117910364Y-42079000D01*
X117855999Y-42068186D01*
X117640620Y-42111028D01*
X117458030Y-42233030D01*
X117427231Y-42279124D01*
X117373355Y-42333000D01*
X115609337Y-42333000D01*
X115854813Y-42231321D01*
X116059321Y-42026813D01*
X116170000Y-41759609D01*
X116170000Y-41470391D01*
X116059321Y-41203187D01*
X115854813Y-40998679D01*
X115649128Y-40913482D01*
X113773145Y-39037499D01*
X124776000Y-39037499D01*
X124776000Y-39366501D01*
X124901903Y-39670458D01*
X125134542Y-39903097D01*
X125438499Y-40029000D01*
X125613999Y-40029000D01*
X125788000Y-40203001D01*
X125788001Y-40641444D01*
X125663903Y-40765542D01*
X125538000Y-41069499D01*
X125538000Y-41398501D01*
X125663903Y-41702458D01*
X125896542Y-41935097D01*
X126200499Y-42061000D01*
X126529501Y-42061000D01*
X126833458Y-41935097D01*
X127066097Y-41702458D01*
X127192000Y-41398501D01*
X127192000Y-41069499D01*
X127066097Y-40765542D01*
X126942000Y-40641445D01*
X126942000Y-40020829D01*
X126953304Y-39964000D01*
X126908522Y-39738865D01*
X126857320Y-39662236D01*
X126780994Y-39548006D01*
X126732815Y-39515814D01*
X126430000Y-39212999D01*
X126430000Y-39037499D01*
X126304097Y-38733542D01*
X126199108Y-38628553D01*
X127043000Y-38628553D01*
X127043000Y-39391448D01*
X127090984Y-39632679D01*
X127273768Y-39906233D01*
X127547322Y-40089016D01*
X127648526Y-40109147D01*
X127648000Y-40110418D01*
X127648000Y-40409582D01*
X127762485Y-40685974D01*
X127974026Y-40897515D01*
X128250418Y-41012000D01*
X128549582Y-41012000D01*
X128825974Y-40897515D01*
X129037515Y-40685974D01*
X129152000Y-40409582D01*
X129152000Y-40110418D01*
X129037515Y-39834026D01*
X128825974Y-39622485D01*
X128664360Y-39555542D01*
X128697000Y-39391448D01*
X128697000Y-38628552D01*
X128649016Y-38387321D01*
X128466233Y-38113767D01*
X128192678Y-37930984D01*
X127870000Y-37866799D01*
X127547321Y-37930984D01*
X127273767Y-38113767D01*
X127090984Y-38387322D01*
X127043000Y-38628553D01*
X126199108Y-38628553D01*
X126071458Y-38500903D01*
X125767501Y-38375000D01*
X125438499Y-38375000D01*
X125134542Y-38500903D01*
X124901903Y-38733542D01*
X124776000Y-39037499D01*
X113773145Y-39037499D01*
X113740672Y-39005027D01*
X113757000Y-38965609D01*
X113757000Y-38676391D01*
X113646321Y-38409187D01*
X113441813Y-38204679D01*
X113174609Y-38094000D01*
X112885391Y-38094000D01*
X112618187Y-38204679D01*
X112413679Y-38409187D01*
X112333814Y-38602000D01*
X112123391Y-38602000D01*
X111856187Y-38712679D01*
X111651679Y-38917187D01*
X111541000Y-39184391D01*
X111541000Y-39473609D01*
X111651679Y-39740813D01*
X111856187Y-39945321D01*
X112123391Y-40056000D01*
X112214355Y-40056000D01*
X113700000Y-41541646D01*
X113700000Y-41759609D01*
X113810679Y-42026813D01*
X114015187Y-42231321D01*
X114260663Y-42333000D01*
X113639645Y-42333000D01*
X113331769Y-42025124D01*
X113300970Y-41979030D01*
X113118380Y-41857028D01*
X112957365Y-41825000D01*
X112903000Y-41814186D01*
X112848635Y-41825000D01*
X112617134Y-41825000D01*
X112552813Y-41760679D01*
X112285609Y-41650000D01*
X111996391Y-41650000D01*
X111729187Y-41760679D01*
X111524679Y-41965187D01*
X111414000Y-42232391D01*
X111414000Y-42521609D01*
X111441086Y-42587000D01*
X109020365Y-42587000D01*
X108966000Y-42576186D01*
X108911635Y-42587000D01*
X108750620Y-42619028D01*
X108568030Y-42741030D01*
X108537233Y-42787121D01*
X108186633Y-43137722D01*
X107967609Y-43047000D01*
X107678391Y-43047000D01*
X107411187Y-43157679D01*
X107206679Y-43362187D01*
X107096000Y-43629391D01*
X107096000Y-43684219D01*
X107022380Y-43635028D01*
X106861365Y-43603000D01*
X106807000Y-43592186D01*
X106752635Y-43603000D01*
X105718365Y-43603000D01*
X105664000Y-43592186D01*
X105609635Y-43603000D01*
X105448620Y-43635028D01*
X105266030Y-43757030D01*
X105144028Y-43939620D01*
X105101186Y-44155000D01*
X105112001Y-44209370D01*
X105112000Y-45075866D01*
X105047679Y-45140187D01*
X104937000Y-45407391D01*
X104937000Y-45696609D01*
X105047679Y-45963813D01*
X105252187Y-46168321D01*
X105519391Y-46279000D01*
X105808609Y-46279000D01*
X105894655Y-46243359D01*
X105936679Y-46344813D01*
X106141187Y-46549321D01*
X106408391Y-46660000D01*
X106697609Y-46660000D01*
X106936958Y-46560859D01*
X106952679Y-46598813D01*
X107157187Y-46803321D01*
X107424391Y-46914000D01*
X107634814Y-46914000D01*
X107714679Y-47106813D01*
X107919187Y-47311321D01*
X108186391Y-47422000D01*
X108366000Y-47422000D01*
X108366000Y-47601609D01*
X108393086Y-47667000D01*
X107750365Y-47667000D01*
X107696000Y-47656186D01*
X107641635Y-47667000D01*
X107480620Y-47699028D01*
X107298030Y-47821030D01*
X107267233Y-47867121D01*
X107007354Y-48127000D01*
X106916391Y-48127000D01*
X106649187Y-48237679D01*
X106444679Y-48442187D01*
X106334000Y-48709391D01*
X106334000Y-48998609D01*
X106393808Y-49143000D01*
X106154391Y-49143000D01*
X105887187Y-49253679D01*
X105682679Y-49458187D01*
X105572000Y-49725391D01*
X105572000Y-50014609D01*
X105682679Y-50281813D01*
X105887187Y-50486321D01*
X106154391Y-50597000D01*
X106443609Y-50597000D01*
X106710813Y-50486321D01*
X106775134Y-50422000D01*
X107006635Y-50422000D01*
X107061000Y-50432814D01*
X107115365Y-50422000D01*
X107276380Y-50389972D01*
X107458970Y-50267970D01*
X107489768Y-50221877D01*
X108432646Y-49279000D01*
X109157355Y-49279000D01*
X107721355Y-50715000D01*
X104533309Y-50715000D01*
X104613000Y-50522609D01*
X104613000Y-50233391D01*
X104502321Y-49966187D01*
X104297813Y-49761679D01*
X104030609Y-49651000D01*
X103741391Y-49651000D01*
X103474187Y-49761679D01*
X103269679Y-49966187D01*
X103222536Y-50080000D01*
X100646645Y-50080000D01*
X102209646Y-48517000D01*
X102393866Y-48517000D01*
X102458187Y-48581321D01*
X102725391Y-48692000D01*
X103014609Y-48692000D01*
X103281813Y-48581321D01*
X103486321Y-48376813D01*
X103597000Y-48109609D01*
X103597000Y-47820391D01*
X103486321Y-47553187D01*
X103281813Y-47348679D01*
X103014609Y-47238000D01*
X102725391Y-47238000D01*
X102458187Y-47348679D01*
X102393866Y-47413000D01*
X102035364Y-47413000D01*
X101980999Y-47402186D01*
X101765620Y-47445028D01*
X101583030Y-47567030D01*
X101552233Y-47613121D01*
X98450355Y-50715000D01*
X98139134Y-50715000D01*
X98074813Y-50650679D01*
X97807609Y-50540000D01*
X97518391Y-50540000D01*
X97251187Y-50650679D01*
X97046679Y-50855187D01*
X96986057Y-51001543D01*
X96791609Y-50921000D01*
X96502391Y-50921000D01*
X96235187Y-51031679D01*
X96030679Y-51236187D01*
X95920000Y-51503391D01*
X95920000Y-51792609D01*
X96030679Y-52059813D01*
X96235187Y-52264321D01*
X96502391Y-52375000D01*
X96593354Y-52375000D01*
X96599233Y-52380879D01*
X96630030Y-52426970D01*
X96788436Y-52532813D01*
X96812620Y-52548972D01*
X97027999Y-52591814D01*
X97082364Y-52581000D01*
X98743354Y-52581000D01*
X98625354Y-52699000D01*
X98534391Y-52699000D01*
X98267187Y-52809679D01*
X98062679Y-53014187D01*
X97952000Y-53281391D01*
X97952000Y-53570609D01*
X98062679Y-53837813D01*
X98267187Y-54042321D01*
X98534391Y-54153000D01*
X98823609Y-54153000D01*
X99090813Y-54042321D01*
X99295321Y-53837813D01*
X99406000Y-53570609D01*
X99406000Y-53479646D01*
X99542646Y-53343000D01*
X106076866Y-53343000D01*
X106141187Y-53407321D01*
X106408391Y-53518000D01*
X106697609Y-53518000D01*
X106964813Y-53407321D01*
X107169321Y-53202813D01*
X107280000Y-52935609D01*
X107280000Y-52646391D01*
X107252914Y-52581000D01*
X109560000Y-52581000D01*
X109560000Y-52760909D01*
X109670679Y-53028113D01*
X109875187Y-53232621D01*
X110142391Y-53343300D01*
X110431609Y-53343300D01*
X110576666Y-53283216D01*
X110686679Y-53548813D01*
X110891187Y-53753321D01*
X111158391Y-53864000D01*
X111447609Y-53864000D01*
X111714813Y-53753321D01*
X111779134Y-53689000D01*
X113407635Y-53689000D01*
X113462000Y-53699814D01*
X113516365Y-53689000D01*
X113677380Y-53656972D01*
X113859970Y-53534970D01*
X113890768Y-53488877D01*
X113896645Y-53483000D01*
X113987609Y-53483000D01*
X114254813Y-53372321D01*
X114459321Y-53167813D01*
X114570000Y-52900609D01*
X114570000Y-52611391D01*
X114459321Y-52344187D01*
X114254813Y-52139679D01*
X113987609Y-52029000D01*
X113808000Y-52029000D01*
X113808000Y-51976391D01*
X113697321Y-51709187D01*
X113492813Y-51504679D01*
X113225609Y-51394000D01*
X112936391Y-51394000D01*
X112669187Y-51504679D01*
X112464679Y-51709187D01*
X112417536Y-51823000D01*
X111857646Y-51823000D01*
X111857879Y-51822767D01*
X111903970Y-51791970D01*
X112025972Y-51609380D01*
X112058000Y-51448365D01*
X112068814Y-51394000D01*
X112058000Y-51339635D01*
X112058000Y-50600134D01*
X112122321Y-50535813D01*
X112233000Y-50268609D01*
X112233000Y-50041000D01*
X113354866Y-50041000D01*
X113302679Y-50093187D01*
X113192000Y-50360391D01*
X113192000Y-50649609D01*
X113302679Y-50916813D01*
X113507187Y-51121321D01*
X113774391Y-51232000D01*
X114063609Y-51232000D01*
X114081000Y-51224796D01*
X114081000Y-51284609D01*
X114191679Y-51551813D01*
X114396187Y-51756321D01*
X114663391Y-51867000D01*
X114754354Y-51867000D01*
X115091119Y-52203765D01*
X115091122Y-52203767D01*
X115649233Y-52761879D01*
X115680030Y-52807970D01*
X115862620Y-52929972D01*
X116023635Y-52962000D01*
X116078000Y-52972814D01*
X116132365Y-52962000D01*
X117119355Y-52962000D01*
X119698354Y-55541000D01*
X111734645Y-55541000D01*
X111680769Y-55487124D01*
X111649970Y-55441030D01*
X111467380Y-55319028D01*
X111306365Y-55287000D01*
X111252000Y-55276186D01*
X111197635Y-55287000D01*
X109909364Y-55287000D01*
X109854999Y-55276186D01*
X109667959Y-55313391D01*
X109639620Y-55319028D01*
X109457030Y-55441030D01*
X109426231Y-55487124D01*
X109372355Y-55541000D01*
X108055365Y-55541000D01*
X108042000Y-55538341D01*
X108042000Y-55532391D01*
X107931321Y-55265187D01*
X107726813Y-55060679D01*
X107459609Y-54950000D01*
X107329297Y-54950000D01*
X107311380Y-54938028D01*
X107150365Y-54906000D01*
X107096000Y-54895186D01*
X107041635Y-54906000D01*
X106318134Y-54906000D01*
X106253813Y-54841679D01*
X105986609Y-54731000D01*
X105697391Y-54731000D01*
X105430187Y-54841679D01*
X105225679Y-55046187D01*
X105115000Y-55313391D01*
X105115000Y-55602609D01*
X105225679Y-55869813D01*
X105240866Y-55885000D01*
X105225679Y-55900187D01*
X105115000Y-56167391D01*
X105115000Y-56456609D01*
X105225679Y-56723813D01*
X105430187Y-56928321D01*
X105697391Y-57039000D01*
X105986609Y-57039000D01*
X106253813Y-56928321D01*
X106318134Y-56864000D01*
X107055866Y-56864000D01*
X106876679Y-57043187D01*
X106766000Y-57310391D01*
X106766000Y-57599609D01*
X106876679Y-57866813D01*
X107081187Y-58071321D01*
X107348391Y-58182000D01*
X107637609Y-58182000D01*
X107904813Y-58071321D01*
X108109321Y-57866813D01*
X108220000Y-57599609D01*
X108220000Y-57508645D01*
X108575646Y-57153000D01*
X108671000Y-57153000D01*
X108671000Y-57419609D01*
X108781679Y-57686813D01*
X108986187Y-57891321D01*
X109253391Y-58002000D01*
X109382000Y-58002000D01*
X109382000Y-58044609D01*
X109492679Y-58311813D01*
X109697187Y-58516321D01*
X109964391Y-58627000D01*
X110253609Y-58627000D01*
X110520813Y-58516321D01*
X110725321Y-58311813D01*
X110836000Y-58044609D01*
X110836000Y-57827000D01*
X113497000Y-57827000D01*
X113497000Y-57853609D01*
X113607679Y-58120813D01*
X113812187Y-58325321D01*
X114079391Y-58436000D01*
X114368609Y-58436000D01*
X114635813Y-58325321D01*
X114840321Y-58120813D01*
X114951000Y-57853609D01*
X114951000Y-57564391D01*
X114840321Y-57297187D01*
X114635813Y-57092679D01*
X114368609Y-56982000D01*
X114277645Y-56982000D01*
X114218768Y-56923123D01*
X114187970Y-56877030D01*
X114005380Y-56755028D01*
X113844365Y-56723000D01*
X113790000Y-56712186D01*
X113782500Y-56713678D01*
X113775000Y-56712186D01*
X113720635Y-56723000D01*
X111344000Y-56723000D01*
X111344000Y-56623590D01*
X111505999Y-56655814D01*
X111560364Y-56645000D01*
X123595432Y-56645000D01*
X123543651Y-56666448D01*
X123543649Y-56666450D01*
X123381438Y-56774837D01*
X123315638Y-56840638D01*
X123249837Y-56906438D01*
X123141450Y-57068649D01*
X123141448Y-57068651D01*
X123108738Y-57147621D01*
X123070225Y-57240598D01*
X123070225Y-57240600D01*
X123032166Y-57431939D01*
X123032165Y-57431941D01*
X123032165Y-57618057D01*
X123070225Y-57809399D01*
X123070225Y-57809402D01*
X123090781Y-57859028D01*
X123141448Y-57981349D01*
X123141450Y-57981351D01*
X123249837Y-58143562D01*
X123315638Y-58209362D01*
X123381438Y-58275163D01*
X123470990Y-58335000D01*
X123291645Y-58335000D01*
X122983767Y-58027122D01*
X122983765Y-58027119D01*
X122348768Y-57392123D01*
X122317970Y-57346030D01*
X122135380Y-57224028D01*
X121974365Y-57192000D01*
X121920000Y-57181186D01*
X121865635Y-57192000D01*
X118586134Y-57192000D01*
X118521813Y-57127679D01*
X118254609Y-57017000D01*
X117965391Y-57017000D01*
X117698187Y-57127679D01*
X117493679Y-57332187D01*
X117383000Y-57599391D01*
X117383000Y-57766866D01*
X117378813Y-57762679D01*
X117111609Y-57652000D01*
X116822391Y-57652000D01*
X116555187Y-57762679D01*
X116459000Y-57858866D01*
X116362813Y-57762679D01*
X116095609Y-57652000D01*
X115806391Y-57652000D01*
X115539187Y-57762679D01*
X115334679Y-57967187D01*
X115224000Y-58234391D01*
X115224000Y-58523609D01*
X115334679Y-58790813D01*
X115539187Y-58995321D01*
X115806391Y-59106000D01*
X115897355Y-59106000D01*
X115980355Y-59189000D01*
X114192134Y-59189000D01*
X114000813Y-58997679D01*
X113733609Y-58887000D01*
X113444391Y-58887000D01*
X113177187Y-58997679D01*
X112972679Y-59202187D01*
X112930655Y-59303641D01*
X112844609Y-59268000D01*
X112555391Y-59268000D01*
X112288187Y-59378679D01*
X112083679Y-59583187D01*
X111973000Y-59850391D01*
X111973000Y-60097010D01*
X107994656Y-60097010D01*
X107286768Y-59389123D01*
X107255970Y-59343030D01*
X107073380Y-59221028D01*
X106912365Y-59189000D01*
X106858000Y-59178186D01*
X106803635Y-59189000D01*
X105943646Y-59189000D01*
X104477260Y-57722615D01*
X104456972Y-57620620D01*
X104334970Y-57438030D01*
X104152380Y-57316028D01*
X103991365Y-57284000D01*
X103937000Y-57273186D01*
X103882635Y-57284000D01*
X103016134Y-57284000D01*
X102951813Y-57219679D01*
X102684609Y-57109000D01*
X102395391Y-57109000D01*
X102128187Y-57219679D01*
X101923679Y-57424187D01*
X101813000Y-57691391D01*
X101813000Y-57980609D01*
X101923679Y-58247813D01*
X102128187Y-58452321D01*
X102395391Y-58563000D01*
X102684609Y-58563000D01*
X102951813Y-58452321D01*
X103016134Y-58388000D01*
X103579484Y-58388000D01*
X103585121Y-58391766D01*
X105286233Y-60092879D01*
X105317030Y-60138970D01*
X105499620Y-60260972D01*
X105660635Y-60293000D01*
X105715000Y-60303814D01*
X105769365Y-60293000D01*
X106629355Y-60293000D01*
X107337243Y-61000889D01*
X107368040Y-61046980D01*
X107531246Y-61156030D01*
X107550630Y-61168982D01*
X107766009Y-61211824D01*
X107820374Y-61201010D01*
X118332365Y-61201010D01*
X118498000Y-61366646D01*
X118498001Y-65782630D01*
X118487186Y-65837000D01*
X118530028Y-66052379D01*
X118566452Y-66106891D01*
X118652031Y-66234970D01*
X118698121Y-66265766D01*
X119256233Y-66823879D01*
X119287030Y-66869970D01*
X119469620Y-66991972D01*
X119630635Y-67024000D01*
X119685000Y-67034814D01*
X119739365Y-67024000D01*
X121154635Y-67024000D01*
X121209000Y-67034814D01*
X121263365Y-67024000D01*
X121424380Y-66991972D01*
X121606970Y-66869970D01*
X121637768Y-66823877D01*
X121643645Y-66818000D01*
X121734609Y-66818000D01*
X122001813Y-66707321D01*
X122206321Y-66502813D01*
X122317000Y-66235609D01*
X122317000Y-65946391D01*
X122206321Y-65679187D01*
X122001813Y-65474679D01*
X121734609Y-65364000D01*
X121445391Y-65364000D01*
X121359345Y-65399641D01*
X121317321Y-65298187D01*
X121253000Y-65233866D01*
X121253000Y-63859364D01*
X121263814Y-63804999D01*
X121220972Y-63589620D01*
X121183828Y-63534030D01*
X121098970Y-63407030D01*
X121052876Y-63376231D01*
X120999000Y-63322355D01*
X120999000Y-61065364D01*
X121009814Y-61010999D01*
X120966972Y-60795620D01*
X120949166Y-60768972D01*
X120844970Y-60613030D01*
X120798879Y-60582233D01*
X119909645Y-59693000D01*
X121310355Y-59693000D01*
X121828000Y-60210646D01*
X121828000Y-60428609D01*
X121938679Y-60695813D01*
X122143187Y-60900321D01*
X122410391Y-61011000D01*
X122699609Y-61011000D01*
X122966813Y-60900321D01*
X123171321Y-60695813D01*
X123182116Y-60669750D01*
X125248000Y-60669750D01*
X125248000Y-60990827D01*
X125328231Y-61184521D01*
X125476478Y-61332769D01*
X125670173Y-61413000D01*
X125953750Y-61413000D01*
X126085500Y-61281250D01*
X126085500Y-60538000D01*
X125379750Y-60538000D01*
X125248000Y-60669750D01*
X123182116Y-60669750D01*
X123282000Y-60428609D01*
X123282000Y-60139391D01*
X123202309Y-59947000D01*
X125248000Y-59947000D01*
X125248000Y-60152250D01*
X125379750Y-60284000D01*
X126085500Y-60284000D01*
X126085500Y-60264000D01*
X126339500Y-60264000D01*
X126339500Y-60284000D01*
X126359500Y-60284000D01*
X126359500Y-60538000D01*
X126339500Y-60538000D01*
X126339500Y-61281250D01*
X126471250Y-61413000D01*
X126754827Y-61413000D01*
X126948522Y-61332769D01*
X127096769Y-61184521D01*
X127116578Y-61136699D01*
X127318431Y-61271573D01*
X127509914Y-61309662D01*
X127416000Y-61536391D01*
X127416000Y-61825609D01*
X127526679Y-62092813D01*
X127731187Y-62297321D01*
X127998391Y-62408000D01*
X128287609Y-62408000D01*
X128554813Y-62297321D01*
X128759321Y-62092813D01*
X128870000Y-61825609D01*
X128870000Y-61536391D01*
X128759321Y-61269187D01*
X128695000Y-61204866D01*
X128695000Y-60721134D01*
X128747187Y-60773321D01*
X129014391Y-60884000D01*
X129303609Y-60884000D01*
X129570813Y-60773321D01*
X129674384Y-60669750D01*
X130248000Y-60669750D01*
X130248000Y-60990827D01*
X130328231Y-61184521D01*
X130476478Y-61332769D01*
X130670173Y-61413000D01*
X130953750Y-61413000D01*
X131085500Y-61281250D01*
X131085500Y-60538000D01*
X130379750Y-60538000D01*
X130248000Y-60669750D01*
X129674384Y-60669750D01*
X129775321Y-60568813D01*
X129886000Y-60301609D01*
X129886000Y-60293849D01*
X129934900Y-60293849D01*
X130202104Y-60183170D01*
X130248000Y-60137274D01*
X130248000Y-60152250D01*
X130379750Y-60284000D01*
X131085500Y-60284000D01*
X131085500Y-59540750D01*
X131339500Y-59540750D01*
X131339500Y-60284000D01*
X131359500Y-60284000D01*
X131359500Y-60538000D01*
X131339500Y-60538000D01*
X131339500Y-61281250D01*
X131471250Y-61413000D01*
X131754827Y-61413000D01*
X131948522Y-61332769D01*
X132096769Y-61184521D01*
X132116578Y-61136699D01*
X132318431Y-61271573D01*
X132497021Y-61307097D01*
X132497021Y-61452650D01*
X132486206Y-61507020D01*
X132496000Y-61556257D01*
X132496000Y-61825609D01*
X132606679Y-62092813D01*
X132811187Y-62297321D01*
X133078391Y-62408000D01*
X133367609Y-62408000D01*
X133634813Y-62297321D01*
X133839321Y-62092813D01*
X133950000Y-61825609D01*
X133950000Y-61536391D01*
X133839321Y-61269187D01*
X133634813Y-61064679D01*
X133601020Y-61050682D01*
X133601020Y-60931866D01*
X133610573Y-60917569D01*
X133659867Y-60669750D01*
X135248000Y-60669750D01*
X135248000Y-60990827D01*
X135328231Y-61184521D01*
X135476478Y-61332769D01*
X135670173Y-61413000D01*
X135953750Y-61413000D01*
X136085500Y-61281250D01*
X136085500Y-60538000D01*
X135379750Y-60538000D01*
X135248000Y-60669750D01*
X133659867Y-60669750D01*
X133660365Y-60667250D01*
X133660365Y-60154750D01*
X133610573Y-59904431D01*
X133561624Y-59831173D01*
X135248000Y-59831173D01*
X135248000Y-60152250D01*
X135379750Y-60284000D01*
X136085500Y-60284000D01*
X136085500Y-59540750D01*
X136339500Y-59540750D01*
X136339500Y-60284000D01*
X136359500Y-60284000D01*
X136359500Y-60538000D01*
X136339500Y-60538000D01*
X136339500Y-61281250D01*
X136471250Y-61413000D01*
X136754827Y-61413000D01*
X136948522Y-61332769D01*
X137096769Y-61184521D01*
X137116578Y-61136699D01*
X137318431Y-61271573D01*
X137568750Y-61321365D01*
X138006250Y-61321365D01*
X138256569Y-61271573D01*
X138468779Y-61129779D01*
X138610573Y-60917569D01*
X138660365Y-60667250D01*
X138660365Y-60614449D01*
X138700834Y-60411001D01*
X138660365Y-60207551D01*
X138660365Y-60154750D01*
X138610573Y-59904431D01*
X138468779Y-59692221D01*
X138446000Y-59677001D01*
X138446000Y-59405891D01*
X138335321Y-59138687D01*
X138130813Y-58934179D01*
X137863609Y-58823500D01*
X137574391Y-58823500D01*
X137307187Y-58934179D01*
X137102679Y-59138687D01*
X136992000Y-59405891D01*
X136992000Y-59532709D01*
X136948522Y-59489231D01*
X136754827Y-59409000D01*
X136471250Y-59409000D01*
X136339500Y-59540750D01*
X136085500Y-59540750D01*
X135953750Y-59409000D01*
X135670173Y-59409000D01*
X135476478Y-59489231D01*
X135328231Y-59637479D01*
X135248000Y-59831173D01*
X133561624Y-59831173D01*
X133468779Y-59692221D01*
X133256569Y-59550427D01*
X133006250Y-59500635D01*
X132568750Y-59500635D01*
X132318431Y-59550427D01*
X132116578Y-59685301D01*
X132096769Y-59637479D01*
X131948522Y-59489231D01*
X131754827Y-59409000D01*
X131471250Y-59409000D01*
X131339500Y-59540750D01*
X131085500Y-59540750D01*
X130953750Y-59409000D01*
X130670173Y-59409000D01*
X130517291Y-59472326D01*
X130517291Y-59422240D01*
X130406612Y-59155036D01*
X130342911Y-59091335D01*
X130310263Y-58927206D01*
X130310263Y-58927205D01*
X130188261Y-58744615D01*
X130142165Y-58713815D01*
X129963475Y-58535124D01*
X129941342Y-58502000D01*
X140046975Y-58502000D01*
X140093050Y-58492835D01*
X140093057Y-58492835D01*
X140284400Y-58454775D01*
X140284402Y-58454775D01*
X140355625Y-58425273D01*
X140456349Y-58383552D01*
X140456351Y-58383550D01*
X140618562Y-58275163D01*
X140684362Y-58209362D01*
X140750163Y-58143562D01*
X140799001Y-58070472D01*
X140799001Y-59467630D01*
X140788186Y-59522000D01*
X140831028Y-59737379D01*
X140845495Y-59759030D01*
X140953031Y-59919970D01*
X140999121Y-59950766D01*
X142831000Y-61782646D01*
X142831000Y-61830063D01*
X142750570Y-61814065D01*
X141249430Y-61814065D01*
X141082823Y-61847205D01*
X140941580Y-61941580D01*
X140847205Y-62082823D01*
X140814065Y-62249430D01*
X140814065Y-62907000D01*
X129889134Y-62907000D01*
X129824813Y-62842679D01*
X129557609Y-62732000D01*
X129268391Y-62732000D01*
X129001187Y-62842679D01*
X128936866Y-62907000D01*
X128467364Y-62907000D01*
X128412999Y-62896186D01*
X128265021Y-62925621D01*
X128197620Y-62939028D01*
X128015030Y-63061030D01*
X127984235Y-63107119D01*
X127588123Y-63503232D01*
X127542030Y-63534030D01*
X127430447Y-63701028D01*
X127420028Y-63716621D01*
X127377186Y-63932000D01*
X127388000Y-63986365D01*
X127388000Y-65110000D01*
X122809000Y-65110000D01*
X122760399Y-65119667D01*
X122719197Y-65147197D01*
X122691667Y-65188399D01*
X122682000Y-65237000D01*
X122682000Y-68031000D01*
X122691667Y-68079601D01*
X122719197Y-68120803D01*
X122760399Y-68148333D01*
X122809000Y-68158000D01*
X127388001Y-68158000D01*
X127388001Y-68783353D01*
X127080119Y-69091236D01*
X125298355Y-70873000D01*
X118850364Y-70873000D01*
X118795999Y-70862186D01*
X118580620Y-70905028D01*
X118510321Y-70952000D01*
X118397391Y-70952000D01*
X118130187Y-71062679D01*
X117925679Y-71267187D01*
X117815000Y-71534391D01*
X117815000Y-71823609D01*
X117925679Y-72090813D01*
X118130187Y-72295321D01*
X118397391Y-72406000D01*
X118686609Y-72406000D01*
X118731000Y-72387613D01*
X118731000Y-72478501D01*
X118856903Y-72782458D01*
X119089542Y-73015097D01*
X119393499Y-73141000D01*
X119722501Y-73141000D01*
X120026458Y-73015097D01*
X120150555Y-72891000D01*
X121886445Y-72891000D01*
X122010542Y-73015097D01*
X122314499Y-73141000D01*
X122643501Y-73141000D01*
X122947458Y-73015097D01*
X123180097Y-72782458D01*
X123306000Y-72478501D01*
X123306000Y-72149499D01*
X123234549Y-71977000D01*
X125472635Y-71977000D01*
X125527000Y-71987814D01*
X125581365Y-71977000D01*
X125742380Y-71944972D01*
X125924970Y-71822970D01*
X125955769Y-71776876D01*
X127860764Y-69871881D01*
X128291879Y-69440767D01*
X128337970Y-69409970D01*
X128459972Y-69227380D01*
X128492000Y-69066365D01*
X128502814Y-69012001D01*
X128492000Y-68957636D01*
X128492000Y-68158000D01*
X128905000Y-68158000D01*
X128953601Y-68148333D01*
X128994803Y-68120803D01*
X129022333Y-68079601D01*
X129032000Y-68031000D01*
X129032000Y-64088084D01*
X129268391Y-64186000D01*
X129557609Y-64186000D01*
X129824813Y-64075321D01*
X129889134Y-64011000D01*
X132658866Y-64011000D01*
X132606679Y-64063187D01*
X132496000Y-64330391D01*
X132496000Y-64619609D01*
X132606679Y-64886813D01*
X132811187Y-65091321D01*
X133078391Y-65202000D01*
X133367609Y-65202000D01*
X133634813Y-65091321D01*
X133839321Y-64886813D01*
X133895162Y-64752001D01*
X135579784Y-64752001D01*
X135544000Y-64838391D01*
X135544000Y-65127609D01*
X135654679Y-65394813D01*
X135859187Y-65599321D01*
X136104663Y-65701000D01*
X135985134Y-65701000D01*
X135920813Y-65636679D01*
X135653609Y-65526000D01*
X135364391Y-65526000D01*
X135097187Y-65636679D01*
X134892679Y-65841187D01*
X134782000Y-66108391D01*
X134782000Y-66397609D01*
X134892679Y-66664813D01*
X135097187Y-66869321D01*
X135364391Y-66980000D01*
X135653609Y-66980000D01*
X135920813Y-66869321D01*
X135985134Y-66805000D01*
X136169000Y-66805000D01*
X136169000Y-67022609D01*
X136279679Y-67289813D01*
X136484187Y-67494321D01*
X136751391Y-67605000D01*
X137040609Y-67605000D01*
X137307813Y-67494321D01*
X137372134Y-67430000D01*
X140125519Y-67430000D01*
X140282622Y-67534972D01*
X140371008Y-67552553D01*
X140498001Y-67577814D01*
X140552366Y-67567000D01*
X143836635Y-67567000D01*
X143891000Y-67577814D01*
X143945365Y-67567000D01*
X144106380Y-67534972D01*
X144288970Y-67412970D01*
X144319768Y-67366877D01*
X145258880Y-66427766D01*
X145304970Y-66396970D01*
X145426972Y-66214380D01*
X145435051Y-66173764D01*
X145469814Y-65999000D01*
X145459000Y-65944635D01*
X145459000Y-64559444D01*
X145521082Y-64621526D01*
X145615286Y-64527322D01*
X145793221Y-64826129D01*
X146581094Y-65134779D01*
X146983586Y-65127000D01*
X148204250Y-65127000D01*
X148336000Y-64995250D01*
X148336000Y-64193395D01*
X148490320Y-64347715D01*
X148590000Y-64288357D01*
X148590000Y-64995250D01*
X148721750Y-65127000D01*
X149523001Y-65127000D01*
X149523000Y-126353025D01*
X149513656Y-126400000D01*
X149550677Y-126586116D01*
X149656103Y-126743897D01*
X149741572Y-126801005D01*
X149726067Y-126816510D01*
X149623000Y-127065336D01*
X149623000Y-127334664D01*
X149726067Y-127583490D01*
X149742577Y-127600000D01*
X149726067Y-127616510D01*
X149623000Y-127865336D01*
X149623000Y-128134664D01*
X149726067Y-128383490D01*
X149742577Y-128400000D01*
X149726067Y-128416510D01*
X149623000Y-128665336D01*
X149623000Y-128934664D01*
X149726067Y-129183490D01*
X149742577Y-129200000D01*
X149726067Y-129216510D01*
X149623000Y-129465336D01*
X149623000Y-129734664D01*
X149726067Y-129983490D01*
X149741572Y-129998995D01*
X149656103Y-130056103D01*
X149550677Y-130213884D01*
X149513656Y-130400000D01*
X149523000Y-130446975D01*
X149523001Y-139021828D01*
X147078392Y-139705267D01*
X142848764Y-140792601D01*
X139149070Y-141650212D01*
X135259704Y-142467976D01*
X129952509Y-143445617D01*
X124896154Y-144223519D01*
X120907407Y-144722112D01*
X115799599Y-145260827D01*
X111432805Y-145579862D01*
X106194283Y-145839293D01*
X102576094Y-145929000D01*
X98606554Y-145929000D01*
X92898647Y-145819232D01*
X88772872Y-145609953D01*
X83595625Y-145200961D01*
X78248930Y-144642352D01*
X72963529Y-143924337D01*
X67718047Y-143046767D01*
X62009277Y-141908871D01*
X95357150Y-141908871D01*
X95390290Y-142075478D01*
X95484665Y-142216721D01*
X96898879Y-143630935D01*
X97040122Y-143725310D01*
X97206729Y-143758450D01*
X97373336Y-143725310D01*
X97514579Y-143630935D01*
X98787371Y-142358143D01*
X98878077Y-142222391D01*
X99272800Y-142222391D01*
X99272800Y-142511609D01*
X99383479Y-142778813D01*
X99587987Y-142983321D01*
X99855191Y-143094000D01*
X99998057Y-143094000D01*
X100078509Y-143147757D01*
X100232231Y-143178334D01*
X100232236Y-143178334D01*
X100284134Y-143188657D01*
X100336032Y-143178334D01*
X100724274Y-143178334D01*
X101335974Y-143790034D01*
X101477217Y-143884409D01*
X101643824Y-143917549D01*
X101810431Y-143884409D01*
X101951674Y-143790034D01*
X102658780Y-143082928D01*
X102713150Y-143001557D01*
X102756278Y-143001557D01*
X102949972Y-142921327D01*
X103098220Y-142773079D01*
X103194685Y-142676613D01*
X103194685Y-142490291D01*
X102527707Y-141823312D01*
X102513565Y-141837455D01*
X102333960Y-141657850D01*
X102348102Y-141643707D01*
X101681123Y-140976729D01*
X101494801Y-140976729D01*
X101398335Y-141073194D01*
X101250087Y-141221442D01*
X101169857Y-141415136D01*
X101169857Y-141458264D01*
X101088486Y-141512634D01*
X100624853Y-141976267D01*
X100616121Y-141955187D01*
X100411613Y-141750679D01*
X100144409Y-141640000D01*
X99855191Y-141640000D01*
X99587987Y-141750679D01*
X99383479Y-141955187D01*
X99272800Y-142222391D01*
X98878077Y-142222391D01*
X98881746Y-142216900D01*
X98914886Y-142050293D01*
X98881746Y-141883686D01*
X98787371Y-141742443D01*
X98448664Y-141403736D01*
X98466932Y-141411303D01*
X98845662Y-141411303D01*
X99195562Y-141266370D01*
X99463364Y-140998568D01*
X99608297Y-140648668D01*
X99608297Y-140610801D01*
X101860729Y-140610801D01*
X101860729Y-140797123D01*
X102527707Y-141464102D01*
X102541850Y-141449960D01*
X102721455Y-141629565D01*
X102707312Y-141643707D01*
X103374291Y-142310685D01*
X103560613Y-142310685D01*
X103657079Y-142214220D01*
X103805327Y-142065972D01*
X103885557Y-141872278D01*
X103885557Y-141829150D01*
X103966928Y-141774780D01*
X104674034Y-141067674D01*
X104768409Y-140926431D01*
X104801549Y-140759824D01*
X104768409Y-140593217D01*
X104674034Y-140451974D01*
X104378275Y-140156215D01*
X104550145Y-139984345D01*
X104594145Y-139954945D01*
X104710623Y-139780625D01*
X104751524Y-139575000D01*
X104710623Y-139369375D01*
X104594145Y-139195055D01*
X104486000Y-139122794D01*
X104486000Y-139072791D01*
X104375321Y-138805587D01*
X104170813Y-138601079D01*
X103903609Y-138490400D01*
X103614391Y-138490400D01*
X103347187Y-138601079D01*
X103142679Y-138805587D01*
X103032000Y-139072791D01*
X103032000Y-139362009D01*
X103092661Y-139508459D01*
X102396634Y-140204486D01*
X102342264Y-140285857D01*
X102299136Y-140285857D01*
X102105442Y-140366087D01*
X101957194Y-140514335D01*
X101860729Y-140610801D01*
X99608297Y-140610801D01*
X99608297Y-140269938D01*
X99463364Y-139920038D01*
X99195562Y-139652236D01*
X98845662Y-139507303D01*
X98466932Y-139507303D01*
X98117032Y-139652236D01*
X97849230Y-139920038D01*
X97704297Y-140269938D01*
X97704297Y-140648668D01*
X97711864Y-140666936D01*
X97373157Y-140328229D01*
X97231914Y-140233854D01*
X97065307Y-140200714D01*
X96898700Y-140233854D01*
X96757457Y-140328229D01*
X95484665Y-141601021D01*
X95390290Y-141742264D01*
X95357150Y-141908871D01*
X62009277Y-141908871D01*
X61812507Y-141869650D01*
X56644743Y-140672486D01*
X53435404Y-139855202D01*
X53060749Y-139750000D01*
X69514635Y-139750000D01*
X69514635Y-141150000D01*
X69547775Y-141316607D01*
X69642150Y-141457850D01*
X69783393Y-141552225D01*
X69950000Y-141585365D01*
X72050000Y-141585365D01*
X72216607Y-141552225D01*
X72357850Y-141457850D01*
X72452225Y-141316607D01*
X72485365Y-141150000D01*
X72485365Y-140250391D01*
X76664000Y-140250391D01*
X76664000Y-140539609D01*
X76774679Y-140806813D01*
X76979187Y-141011321D01*
X77246391Y-141122000D01*
X77535609Y-141122000D01*
X77802813Y-141011321D01*
X77837134Y-140977000D01*
X79514635Y-140977000D01*
X79514635Y-141150000D01*
X79547775Y-141316607D01*
X79642150Y-141457850D01*
X79783393Y-141552225D01*
X79950000Y-141585365D01*
X82050000Y-141585365D01*
X82216607Y-141552225D01*
X82357850Y-141457850D01*
X82452225Y-141316607D01*
X82485365Y-141150000D01*
X82485365Y-139750000D01*
X82452225Y-139583393D01*
X82357850Y-139442150D01*
X82216607Y-139347775D01*
X82050000Y-139314635D01*
X79950000Y-139314635D01*
X79783393Y-139347775D01*
X79642150Y-139442150D01*
X79547775Y-139583393D01*
X79514635Y-139750000D01*
X79514635Y-139923000D01*
X77947134Y-139923000D01*
X77802813Y-139778679D01*
X77535609Y-139668000D01*
X77246391Y-139668000D01*
X76979187Y-139778679D01*
X76774679Y-139983187D01*
X76664000Y-140250391D01*
X72485365Y-140250391D01*
X72485365Y-139750000D01*
X72452225Y-139583393D01*
X72357850Y-139442150D01*
X72216607Y-139347775D01*
X72050000Y-139314635D01*
X69950000Y-139314635D01*
X69783393Y-139347775D01*
X69642150Y-139442150D01*
X69547775Y-139583393D01*
X69514635Y-139750000D01*
X53060749Y-139750000D01*
X50477000Y-139024493D01*
X50477000Y-133596805D01*
X53973000Y-133596805D01*
X53973000Y-134403195D01*
X54281593Y-135148203D01*
X54851797Y-135718407D01*
X55596805Y-136027000D01*
X56403195Y-136027000D01*
X57148203Y-135718407D01*
X57616610Y-135250000D01*
X69514635Y-135250000D01*
X69514635Y-136650000D01*
X69547775Y-136816607D01*
X69642150Y-136957850D01*
X69783393Y-137052225D01*
X69950000Y-137085365D01*
X72050000Y-137085365D01*
X72216607Y-137052225D01*
X72357850Y-136957850D01*
X72452225Y-136816607D01*
X72485365Y-136650000D01*
X72485365Y-136208750D01*
X79423000Y-136208750D01*
X79423000Y-136754827D01*
X79503231Y-136948521D01*
X79651478Y-137096769D01*
X79845173Y-137177000D01*
X80741250Y-137177000D01*
X80873000Y-137045250D01*
X80873000Y-136077000D01*
X81127000Y-136077000D01*
X81127000Y-137045250D01*
X81258750Y-137177000D01*
X82154827Y-137177000D01*
X82348522Y-137096769D01*
X82496769Y-136948521D01*
X82577000Y-136754827D01*
X82577000Y-136439000D01*
X85229635Y-136439000D01*
X85229635Y-139439000D01*
X85262775Y-139605607D01*
X85357150Y-139746850D01*
X85498393Y-139841225D01*
X85665000Y-139874365D01*
X90865000Y-139874365D01*
X91031607Y-139841225D01*
X91172850Y-139746850D01*
X91267225Y-139605607D01*
X91300365Y-139439000D01*
X91300365Y-137471776D01*
X95198051Y-137471776D01*
X95231191Y-137638383D01*
X95325566Y-137779626D01*
X96280160Y-138734220D01*
X96421403Y-138828595D01*
X96588010Y-138861735D01*
X96754617Y-138828595D01*
X96795207Y-138801474D01*
X96843479Y-138918013D01*
X97047987Y-139122521D01*
X97315191Y-139233200D01*
X97604409Y-139233200D01*
X97871613Y-139122521D01*
X98076121Y-138918013D01*
X98186800Y-138650809D01*
X98186800Y-138361591D01*
X98076121Y-138094387D01*
X97871613Y-137889879D01*
X97723738Y-137828627D01*
X97762244Y-137820968D01*
X97903487Y-137726593D01*
X98017311Y-137612769D01*
X100541303Y-137612769D01*
X100541303Y-137931825D01*
X100663400Y-138226593D01*
X100889007Y-138452200D01*
X101183775Y-138574297D01*
X101502831Y-138574297D01*
X101797599Y-138452200D01*
X102023206Y-138226593D01*
X102145303Y-137931825D01*
X102145303Y-137612769D01*
X102023206Y-137318001D01*
X101797599Y-137092394D01*
X101502831Y-136970297D01*
X101183775Y-136970297D01*
X100889007Y-137092394D01*
X100663400Y-137318001D01*
X100541303Y-137612769D01*
X98017311Y-137612769D01*
X98323976Y-137306104D01*
X98324497Y-137306000D01*
X99643102Y-137306000D01*
X99695000Y-137316323D01*
X99746898Y-137306000D01*
X99746903Y-137306000D01*
X99900625Y-137275423D01*
X100074945Y-137158945D01*
X100104345Y-137114945D01*
X100538945Y-136680345D01*
X100582945Y-136650945D01*
X100622599Y-136591600D01*
X100665638Y-136527187D01*
X100699423Y-136476625D01*
X100730000Y-136322903D01*
X100730000Y-136322899D01*
X100740323Y-136271001D01*
X100730000Y-136219103D01*
X100730000Y-134965290D01*
X100827690Y-134867600D01*
X102218086Y-134867600D01*
X101212229Y-135873457D01*
X101117854Y-136014700D01*
X101084714Y-136181307D01*
X101117854Y-136347914D01*
X101212229Y-136489157D01*
X102626443Y-137903371D01*
X102767686Y-137997746D01*
X102934293Y-138030886D01*
X103100900Y-137997746D01*
X103242143Y-137903371D01*
X104514935Y-136630579D01*
X104573001Y-136543677D01*
X104573000Y-137070466D01*
X104565079Y-137078387D01*
X104454400Y-137345591D01*
X104454400Y-137634809D01*
X104565079Y-137902013D01*
X104769587Y-138106521D01*
X105036791Y-138217200D01*
X105326009Y-138217200D01*
X105593213Y-138106521D01*
X105797721Y-137902013D01*
X105908400Y-137634809D01*
X105908400Y-137345591D01*
X105797721Y-137078387D01*
X105627000Y-136907666D01*
X105627000Y-136309699D01*
X109739200Y-136309699D01*
X109739200Y-136638701D01*
X109865103Y-136942658D01*
X109989200Y-137066755D01*
X109989201Y-139742444D01*
X109865103Y-139866542D01*
X109739200Y-140170499D01*
X109739200Y-140499501D01*
X109865103Y-140803458D01*
X110097742Y-141036097D01*
X110401699Y-141162000D01*
X110730701Y-141162000D01*
X111034658Y-141036097D01*
X111267297Y-140803458D01*
X111393200Y-140499501D01*
X111393200Y-140170499D01*
X111267297Y-139866542D01*
X111150755Y-139750000D01*
X117514635Y-139750000D01*
X117514635Y-141150000D01*
X117547775Y-141316607D01*
X117642150Y-141457850D01*
X117783393Y-141552225D01*
X117950000Y-141585365D01*
X120050000Y-141585365D01*
X120216607Y-141552225D01*
X120357850Y-141457850D01*
X120452225Y-141316607D01*
X120485365Y-141150000D01*
X120485365Y-139750000D01*
X120452225Y-139583393D01*
X120357850Y-139442150D01*
X120216607Y-139347775D01*
X120050000Y-139314635D01*
X117950000Y-139314635D01*
X117783393Y-139347775D01*
X117642150Y-139442150D01*
X117547775Y-139583393D01*
X117514635Y-139750000D01*
X111150755Y-139750000D01*
X111143200Y-139742445D01*
X111143200Y-137066755D01*
X111267297Y-136942658D01*
X111393200Y-136638701D01*
X111393200Y-136309699D01*
X111267297Y-136005742D01*
X111034658Y-135773103D01*
X110730701Y-135647200D01*
X110401699Y-135647200D01*
X110097742Y-135773103D01*
X109865103Y-136005742D01*
X109739200Y-136309699D01*
X105627000Y-136309699D01*
X105627000Y-135835097D01*
X105637323Y-135783199D01*
X105627000Y-135731301D01*
X105627000Y-135731298D01*
X105596423Y-135577576D01*
X105479945Y-135403255D01*
X105435945Y-135373855D01*
X105312090Y-135250000D01*
X117514635Y-135250000D01*
X117514635Y-136650000D01*
X117547775Y-136816607D01*
X117642150Y-136957850D01*
X117783393Y-137052225D01*
X117950000Y-137085365D01*
X120050000Y-137085365D01*
X120216607Y-137052225D01*
X120357850Y-136957850D01*
X120452225Y-136816607D01*
X120485365Y-136650000D01*
X120485365Y-136208750D01*
X127423000Y-136208750D01*
X127423000Y-136754827D01*
X127503231Y-136948521D01*
X127651478Y-137096769D01*
X127845173Y-137177000D01*
X128363517Y-137177000D01*
X128353000Y-137202391D01*
X128353000Y-137491609D01*
X128463679Y-137758813D01*
X128473000Y-137768134D01*
X128473001Y-139314635D01*
X127950000Y-139314635D01*
X127783393Y-139347775D01*
X127642150Y-139442150D01*
X127547775Y-139583393D01*
X127514635Y-139750000D01*
X127514635Y-141150000D01*
X127547775Y-141316607D01*
X127642150Y-141457850D01*
X127783393Y-141552225D01*
X127950000Y-141585365D01*
X130050000Y-141585365D01*
X130216607Y-141552225D01*
X130357850Y-141457850D01*
X130452225Y-141316607D01*
X130485365Y-141150000D01*
X130485365Y-139750000D01*
X130452225Y-139583393D01*
X130357850Y-139442150D01*
X130216607Y-139347775D01*
X130050000Y-139314635D01*
X129527000Y-139314635D01*
X129527000Y-137928134D01*
X129696321Y-137758813D01*
X129807000Y-137491609D01*
X129807000Y-137202391D01*
X129796483Y-137177000D01*
X130154827Y-137177000D01*
X130348522Y-137096769D01*
X130496769Y-136948521D01*
X130577000Y-136754827D01*
X130577000Y-136208750D01*
X130445250Y-136077000D01*
X129127000Y-136077000D01*
X129127000Y-136097000D01*
X128873000Y-136097000D01*
X128873000Y-136077000D01*
X127554750Y-136077000D01*
X127423000Y-136208750D01*
X120485365Y-136208750D01*
X120485365Y-135250000D01*
X120464514Y-135145173D01*
X127423000Y-135145173D01*
X127423000Y-135691250D01*
X127554750Y-135823000D01*
X128873000Y-135823000D01*
X128873000Y-134854750D01*
X129127000Y-134854750D01*
X129127000Y-135823000D01*
X130445250Y-135823000D01*
X130577000Y-135691250D01*
X130577000Y-135145173D01*
X130496769Y-134951479D01*
X130348522Y-134803231D01*
X130154827Y-134723000D01*
X129258750Y-134723000D01*
X129127000Y-134854750D01*
X128873000Y-134854750D01*
X128741250Y-134723000D01*
X127845173Y-134723000D01*
X127651478Y-134803231D01*
X127503231Y-134951479D01*
X127423000Y-135145173D01*
X120464514Y-135145173D01*
X120452225Y-135083393D01*
X120357850Y-134942150D01*
X120216607Y-134847775D01*
X120050000Y-134814635D01*
X117950000Y-134814635D01*
X117783393Y-134847775D01*
X117642150Y-134942150D01*
X117547775Y-135083393D01*
X117514635Y-135250000D01*
X105312090Y-135250000D01*
X104066745Y-134004655D01*
X104037345Y-133960655D01*
X103863025Y-133844177D01*
X103709303Y-133813600D01*
X103709298Y-133813600D01*
X103657400Y-133803277D01*
X103605502Y-133813600D01*
X100661297Y-133813600D01*
X100609399Y-133803277D01*
X100557501Y-133813600D01*
X100557497Y-133813600D01*
X100403775Y-133844177D01*
X100229455Y-133960655D01*
X100200055Y-134004655D01*
X99867053Y-134337657D01*
X99823056Y-134367055D01*
X99793657Y-134411053D01*
X99793654Y-134411056D01*
X99774813Y-134439254D01*
X99706577Y-134541375D01*
X99676000Y-134695097D01*
X99676000Y-134695102D01*
X99665677Y-134747000D01*
X99676000Y-134798898D01*
X99676000Y-135482635D01*
X99618220Y-135396160D01*
X98663626Y-134441566D01*
X98522383Y-134347191D01*
X98355776Y-134314051D01*
X98189169Y-134347191D01*
X98067592Y-134428426D01*
X97953479Y-134352177D01*
X97799757Y-134321600D01*
X97799752Y-134321600D01*
X97747854Y-134311277D01*
X97695956Y-134321600D01*
X97105299Y-134321600D01*
X97053400Y-134311277D01*
X97001501Y-134321600D01*
X97001497Y-134321600D01*
X96879787Y-134345809D01*
X96847774Y-134352177D01*
X96717455Y-134439254D01*
X96717452Y-134439257D01*
X96673455Y-134468655D01*
X96644056Y-134512653D01*
X95964747Y-135191963D01*
X95828787Y-135248279D01*
X95624279Y-135452787D01*
X95513600Y-135719991D01*
X95513600Y-136009209D01*
X95624279Y-136276413D01*
X95828787Y-136480921D01*
X95955914Y-136533578D01*
X95325566Y-137163926D01*
X95231191Y-137305169D01*
X95198051Y-137471776D01*
X91300365Y-137471776D01*
X91300365Y-136439000D01*
X91267225Y-136272393D01*
X91172850Y-136131150D01*
X91031607Y-136036775D01*
X90865000Y-136003635D01*
X85665000Y-136003635D01*
X85498393Y-136036775D01*
X85357150Y-136131150D01*
X85262775Y-136272393D01*
X85229635Y-136439000D01*
X82577000Y-136439000D01*
X82577000Y-136208750D01*
X82445250Y-136077000D01*
X81127000Y-136077000D01*
X80873000Y-136077000D01*
X79554750Y-136077000D01*
X79423000Y-136208750D01*
X72485365Y-136208750D01*
X72485365Y-135250000D01*
X72464514Y-135145173D01*
X79423000Y-135145173D01*
X79423000Y-135691250D01*
X79554750Y-135823000D01*
X80873000Y-135823000D01*
X80873000Y-134854750D01*
X81127000Y-134854750D01*
X81127000Y-135823000D01*
X82445250Y-135823000D01*
X82577000Y-135691250D01*
X82577000Y-135145173D01*
X82496769Y-134951479D01*
X82348522Y-134803231D01*
X82154827Y-134723000D01*
X81258750Y-134723000D01*
X81127000Y-134854750D01*
X80873000Y-134854750D01*
X80741250Y-134723000D01*
X79845173Y-134723000D01*
X79651478Y-134803231D01*
X79503231Y-134951479D01*
X79423000Y-135145173D01*
X72464514Y-135145173D01*
X72452225Y-135083393D01*
X72357850Y-134942150D01*
X72216607Y-134847775D01*
X72050000Y-134814635D01*
X69950000Y-134814635D01*
X69783393Y-134847775D01*
X69642150Y-134942150D01*
X69547775Y-135083393D01*
X69514635Y-135250000D01*
X57616610Y-135250000D01*
X57718407Y-135148203D01*
X58027000Y-134403195D01*
X58027000Y-133596805D01*
X141973000Y-133596805D01*
X141973000Y-134403195D01*
X142281593Y-135148203D01*
X142851797Y-135718407D01*
X143596805Y-136027000D01*
X144403195Y-136027000D01*
X145148203Y-135718407D01*
X145718407Y-135148203D01*
X146027000Y-134403195D01*
X146027000Y-133596805D01*
X145718407Y-132851797D01*
X145148203Y-132281593D01*
X144403195Y-131973000D01*
X143596805Y-131973000D01*
X142851797Y-132281593D01*
X142281593Y-132851797D01*
X141973000Y-133596805D01*
X58027000Y-133596805D01*
X57718407Y-132851797D01*
X57148203Y-132281593D01*
X56403195Y-131973000D01*
X55596805Y-131973000D01*
X54851797Y-132281593D01*
X54281593Y-132851797D01*
X53973000Y-133596805D01*
X50477000Y-133596805D01*
X50477000Y-130446975D01*
X50486344Y-130400000D01*
X50449323Y-130213884D01*
X50343897Y-130056103D01*
X50258428Y-129998995D01*
X50273933Y-129983490D01*
X50377000Y-129734664D01*
X50377000Y-129722119D01*
X51603000Y-129722119D01*
X51603000Y-130277881D01*
X51815680Y-130791337D01*
X52208663Y-131184320D01*
X52722119Y-131397000D01*
X53277881Y-131397000D01*
X53791337Y-131184320D01*
X54184320Y-130791337D01*
X54397000Y-130277881D01*
X54397000Y-129722119D01*
X145603000Y-129722119D01*
X145603000Y-130277881D01*
X145815680Y-130791337D01*
X146208663Y-131184320D01*
X146722119Y-131397000D01*
X147277881Y-131397000D01*
X147791337Y-131184320D01*
X148184320Y-130791337D01*
X148397000Y-130277881D01*
X148397000Y-129722119D01*
X148184320Y-129208663D01*
X147791337Y-128815680D01*
X147277881Y-128603000D01*
X146722119Y-128603000D01*
X146208663Y-128815680D01*
X145815680Y-129208663D01*
X145603000Y-129722119D01*
X54397000Y-129722119D01*
X54184320Y-129208663D01*
X53791337Y-128815680D01*
X53277881Y-128603000D01*
X52722119Y-128603000D01*
X52208663Y-128815680D01*
X51815680Y-129208663D01*
X51603000Y-129722119D01*
X50377000Y-129722119D01*
X50377000Y-129465336D01*
X50273933Y-129216510D01*
X50257423Y-129200000D01*
X50273933Y-129183490D01*
X50377000Y-128934664D01*
X50377000Y-128665336D01*
X50273933Y-128416510D01*
X50257423Y-128400000D01*
X50273933Y-128383490D01*
X50377000Y-128134664D01*
X50377000Y-127865336D01*
X50273933Y-127616510D01*
X50257423Y-127600000D01*
X50273933Y-127583490D01*
X50377000Y-127334664D01*
X50377000Y-127065336D01*
X50273933Y-126816510D01*
X50258428Y-126801005D01*
X50343897Y-126743897D01*
X50449323Y-126586116D01*
X50486344Y-126400000D01*
X50477000Y-126353025D01*
X50477000Y-123046533D01*
X55123000Y-123046533D01*
X55123000Y-123753467D01*
X55393533Y-124406589D01*
X55893411Y-124906467D01*
X56546533Y-125177000D01*
X57253467Y-125177000D01*
X57906589Y-124906467D01*
X58406467Y-124406589D01*
X58677000Y-123753467D01*
X58677000Y-123046533D01*
X58406467Y-122393411D01*
X57906589Y-121893533D01*
X57253467Y-121623000D01*
X56546533Y-121623000D01*
X55893411Y-121893533D01*
X55393533Y-122393411D01*
X55123000Y-123046533D01*
X50477000Y-123046533D01*
X50477000Y-88000000D01*
X57873000Y-88000000D01*
X57873000Y-121500000D01*
X57881501Y-121545684D01*
X57908004Y-121587554D01*
X60411004Y-124217554D01*
X60454399Y-124247333D01*
X60503000Y-124257000D01*
X89025394Y-124257000D01*
X93687197Y-128918803D01*
X93728399Y-128946333D01*
X93777000Y-128956000D01*
X106096000Y-128956000D01*
X106144601Y-128946333D01*
X106185803Y-128918803D01*
X110847606Y-124257000D01*
X139243000Y-124257000D01*
X139288822Y-124248446D01*
X139330661Y-124221894D01*
X140562778Y-123046533D01*
X141323000Y-123046533D01*
X141323000Y-123753467D01*
X141593533Y-124406589D01*
X142093411Y-124906467D01*
X142746533Y-125177000D01*
X143453467Y-125177000D01*
X144106589Y-124906467D01*
X144606467Y-124406589D01*
X144877000Y-123753467D01*
X144877000Y-123046533D01*
X144606467Y-122393411D01*
X144106589Y-121893533D01*
X143453467Y-121623000D01*
X142746533Y-121623000D01*
X142093411Y-121893533D01*
X141593533Y-122393411D01*
X141323000Y-123046533D01*
X140562778Y-123046533D01*
X142087661Y-121591894D01*
X142117333Y-121548601D01*
X142127000Y-121500000D01*
X142127000Y-88000000D01*
X142117291Y-87951298D01*
X142089725Y-87910120D01*
X127751589Y-73596805D01*
X141973000Y-73596805D01*
X141973000Y-74403195D01*
X142281593Y-75148203D01*
X142851797Y-75718407D01*
X143596805Y-76027000D01*
X144403195Y-76027000D01*
X145148203Y-75718407D01*
X145718407Y-75148203D01*
X146027000Y-74403195D01*
X146027000Y-73596805D01*
X145718407Y-72851797D01*
X145148203Y-72281593D01*
X144403195Y-71973000D01*
X143596805Y-71973000D01*
X142851797Y-72281593D01*
X142281593Y-72851797D01*
X141973000Y-73596805D01*
X127751589Y-73596805D01*
X127648725Y-73494120D01*
X127607601Y-73466667D01*
X127559000Y-73457000D01*
X100364189Y-73457000D01*
X100409500Y-73347609D01*
X100409500Y-73058391D01*
X100298821Y-72791187D01*
X100094313Y-72586679D01*
X99827109Y-72476000D01*
X99537891Y-72476000D01*
X99422008Y-72524000D01*
X95904134Y-72524000D01*
X95839813Y-72459679D01*
X95572609Y-72349000D01*
X95283391Y-72349000D01*
X95016187Y-72459679D01*
X94811679Y-72664187D01*
X94701000Y-72931391D01*
X94701000Y-73220609D01*
X94798916Y-73457000D01*
X72441000Y-73457000D01*
X72392501Y-73466625D01*
X72351275Y-73494120D01*
X57910275Y-87910120D01*
X57882667Y-87951399D01*
X57873000Y-88000000D01*
X50477000Y-88000000D01*
X50477000Y-73596805D01*
X53973000Y-73596805D01*
X53973000Y-74403195D01*
X54281593Y-75148203D01*
X54851797Y-75718407D01*
X55596805Y-76027000D01*
X56403195Y-76027000D01*
X57148203Y-75718407D01*
X57718407Y-75148203D01*
X58027000Y-74403195D01*
X58027000Y-73596805D01*
X57718407Y-72851797D01*
X57148203Y-72281593D01*
X56403195Y-71973000D01*
X55596805Y-71973000D01*
X54851797Y-72281593D01*
X54281593Y-72851797D01*
X53973000Y-73596805D01*
X50477000Y-73596805D01*
X50477000Y-69990499D01*
X63232000Y-69990499D01*
X63232000Y-70319501D01*
X63357903Y-70623458D01*
X63382000Y-70647555D01*
X63382001Y-72202444D01*
X63357903Y-72226542D01*
X63232000Y-72530499D01*
X63232000Y-72859501D01*
X63357903Y-73163458D01*
X63590542Y-73396097D01*
X63894499Y-73522000D01*
X64223501Y-73522000D01*
X64527458Y-73396097D01*
X64760097Y-73163458D01*
X64886000Y-72859501D01*
X64886000Y-72530499D01*
X64760097Y-72226542D01*
X64736000Y-72202445D01*
X64736000Y-70647555D01*
X64760097Y-70623458D01*
X64821000Y-70476425D01*
X64881903Y-70623458D01*
X64906000Y-70647555D01*
X64906001Y-73744970D01*
X64883000Y-73800499D01*
X64883000Y-74129501D01*
X65008903Y-74433458D01*
X65241542Y-74666097D01*
X65545499Y-74792000D01*
X65874501Y-74792000D01*
X66178458Y-74666097D01*
X66411097Y-74433458D01*
X66537000Y-74129501D01*
X66537000Y-73800499D01*
X66411097Y-73496542D01*
X66260000Y-73345445D01*
X66260000Y-70647555D01*
X66284097Y-70623458D01*
X66410000Y-70319501D01*
X66410000Y-69990499D01*
X66284097Y-69686542D01*
X66051458Y-69453903D01*
X65747501Y-69328000D01*
X65418499Y-69328000D01*
X65114542Y-69453903D01*
X64881903Y-69686542D01*
X64821000Y-69833575D01*
X64760097Y-69686542D01*
X64527458Y-69453903D01*
X64223501Y-69328000D01*
X63894499Y-69328000D01*
X63590542Y-69453903D01*
X63357903Y-69686542D01*
X63232000Y-69990499D01*
X50477000Y-69990499D01*
X50477000Y-62786499D01*
X81342000Y-62786499D01*
X81342000Y-63115501D01*
X81467903Y-63419458D01*
X81700542Y-63652097D01*
X82004499Y-63778000D01*
X82333501Y-63778000D01*
X82637458Y-63652097D01*
X82870097Y-63419458D01*
X82996000Y-63115501D01*
X82996000Y-62786499D01*
X82870097Y-62482542D01*
X82851488Y-62463933D01*
X83211422Y-62104000D01*
X86610824Y-62104000D01*
X86677500Y-62117263D01*
X86744176Y-62104000D01*
X86744178Y-62104000D01*
X86941652Y-62064720D01*
X87165590Y-61915090D01*
X87203364Y-61858557D01*
X88100922Y-60961000D01*
X88604000Y-60961000D01*
X88604001Y-65274077D01*
X87817079Y-66061000D01*
X87782999Y-66061000D01*
X87479042Y-66186903D01*
X87246403Y-66419542D01*
X87120500Y-66723499D01*
X87120500Y-67052501D01*
X87246403Y-67356458D01*
X87479042Y-67589097D01*
X87782999Y-67715000D01*
X88112001Y-67715000D01*
X88415958Y-67589097D01*
X88648597Y-67356458D01*
X88774500Y-67052501D01*
X88774500Y-67018421D01*
X89712560Y-66080362D01*
X89769090Y-66042590D01*
X89918720Y-65818652D01*
X89958000Y-65621178D01*
X89958000Y-65621177D01*
X89971263Y-65554500D01*
X89958000Y-65487824D01*
X89958000Y-64763509D01*
X90061679Y-65013813D01*
X90126000Y-65078134D01*
X90126001Y-66919865D01*
X90061679Y-66984187D01*
X89951000Y-67251391D01*
X89951000Y-67540609D01*
X90061679Y-67807813D01*
X90266187Y-68012321D01*
X90533391Y-68123000D01*
X90822609Y-68123000D01*
X91089813Y-68012321D01*
X91294321Y-67807813D01*
X91313000Y-67762718D01*
X91331679Y-67807813D01*
X91536187Y-68012321D01*
X91803391Y-68123000D01*
X91916321Y-68123000D01*
X91954235Y-68148333D01*
X91986620Y-68169972D01*
X92201999Y-68212814D01*
X92256364Y-68202000D01*
X94179635Y-68202000D01*
X94234000Y-68212814D01*
X94288365Y-68202000D01*
X94449380Y-68169972D01*
X94631970Y-68047970D01*
X94662768Y-68001877D01*
X94922645Y-67742000D01*
X95013609Y-67742000D01*
X95280813Y-67631321D01*
X95345134Y-67567000D01*
X95357912Y-67567000D01*
X95412277Y-67577814D01*
X95466642Y-67567000D01*
X97694866Y-67567000D01*
X97759187Y-67631321D01*
X98026391Y-67742000D01*
X98315609Y-67742000D01*
X98582813Y-67631321D01*
X98787321Y-67426813D01*
X98898000Y-67159609D01*
X98898000Y-66870391D01*
X98787321Y-66603187D01*
X98582813Y-66398679D01*
X98315609Y-66288000D01*
X98026391Y-66288000D01*
X97759187Y-66398679D01*
X97694866Y-66463000D01*
X95964277Y-66463000D01*
X95964277Y-65455345D01*
X96028598Y-65391024D01*
X96139277Y-65123820D01*
X96139277Y-64834602D01*
X96028598Y-64567398D01*
X95824090Y-64362890D01*
X95556886Y-64252211D01*
X95267668Y-64252211D01*
X95000464Y-64362890D01*
X94929969Y-64433385D01*
X94711735Y-64342990D01*
X94422517Y-64342990D01*
X94155313Y-64453669D01*
X93950805Y-64658177D01*
X93945000Y-64672192D01*
X93945000Y-64584391D01*
X93834321Y-64317187D01*
X93706500Y-64189366D01*
X93706500Y-63830864D01*
X93717314Y-63776499D01*
X93674472Y-63561120D01*
X93646932Y-63519903D01*
X93552470Y-63378530D01*
X93506379Y-63347733D01*
X91103000Y-60944355D01*
X91103000Y-60799055D01*
X91289042Y-60985097D01*
X91592999Y-61111000D01*
X91922001Y-61111000D01*
X92225958Y-60985097D01*
X92250055Y-60961000D01*
X92683579Y-60961000D01*
X93835139Y-62112562D01*
X93872910Y-62169090D01*
X94096848Y-62318720D01*
X94294322Y-62358000D01*
X94294323Y-62358000D01*
X94360999Y-62371263D01*
X94427676Y-62358000D01*
X98322578Y-62358000D01*
X98804140Y-62839562D01*
X98841910Y-62896090D01*
X99065848Y-63045720D01*
X99263322Y-63085000D01*
X99263323Y-63085000D01*
X99329999Y-63098263D01*
X99396676Y-63085000D01*
X112588445Y-63085000D01*
X112739542Y-63236097D01*
X113043499Y-63362000D01*
X113372501Y-63362000D01*
X113676458Y-63236097D01*
X113909097Y-63003458D01*
X114035000Y-62699501D01*
X114035000Y-62370499D01*
X113909097Y-62066542D01*
X113676458Y-61833903D01*
X113372501Y-61708000D01*
X113043499Y-61708000D01*
X112987972Y-61731000D01*
X99610422Y-61731000D01*
X99128864Y-61249442D01*
X99091090Y-61192910D01*
X98867152Y-61043280D01*
X98669678Y-61004000D01*
X98669676Y-61004000D01*
X98603000Y-60990737D01*
X98536324Y-61004000D01*
X94641423Y-61004000D01*
X93489864Y-59852443D01*
X93452090Y-59795910D01*
X93301227Y-59695107D01*
X93345000Y-59703814D01*
X93380599Y-59696733D01*
X93441187Y-59757321D01*
X93708391Y-59868000D01*
X93997609Y-59868000D01*
X94264813Y-59757321D01*
X94469321Y-59552813D01*
X94580000Y-59285609D01*
X94580000Y-58996391D01*
X94469321Y-58729187D01*
X94264813Y-58524679D01*
X93997609Y-58414000D01*
X93708391Y-58414000D01*
X93484153Y-58506882D01*
X93369880Y-58430528D01*
X93208865Y-58398500D01*
X93154500Y-58387686D01*
X93100135Y-58398500D01*
X91430864Y-58398500D01*
X91376499Y-58387686D01*
X91161120Y-58430528D01*
X90978530Y-58552530D01*
X90947733Y-58598621D01*
X90199121Y-59347234D01*
X90153031Y-59378030D01*
X90071109Y-59500635D01*
X90031028Y-59560621D01*
X89988186Y-59776000D01*
X89999001Y-59830370D01*
X89999001Y-59856352D01*
X89982097Y-59815542D01*
X89749458Y-59582903D01*
X89445501Y-59457000D01*
X89116499Y-59457000D01*
X88812542Y-59582903D01*
X88788445Y-59607000D01*
X87887176Y-59607000D01*
X87820499Y-59593737D01*
X87753823Y-59607000D01*
X87753822Y-59607000D01*
X87556348Y-59646280D01*
X87332410Y-59795910D01*
X87294638Y-59852440D01*
X86397079Y-60750000D01*
X82997676Y-60750000D01*
X82931000Y-60736737D01*
X82864323Y-60750000D01*
X82864322Y-60750000D01*
X82666848Y-60789280D01*
X82442910Y-60938910D01*
X82405138Y-60995440D01*
X81737440Y-61663138D01*
X81680910Y-61700911D01*
X81531280Y-61924849D01*
X81492000Y-62122322D01*
X81478737Y-62189000D01*
X81492000Y-62255676D01*
X81492000Y-62458445D01*
X81467903Y-62482542D01*
X81342000Y-62786499D01*
X50477000Y-62786499D01*
X50477000Y-51906500D01*
X58096135Y-51906500D01*
X58096135Y-53303500D01*
X58129275Y-53470107D01*
X58223650Y-53611350D01*
X58364893Y-53705725D01*
X58531500Y-53738865D01*
X59928500Y-53738865D01*
X60095107Y-53705725D01*
X60236350Y-53611350D01*
X60330725Y-53470107D01*
X60363865Y-53303500D01*
X60363865Y-51906500D01*
X60357853Y-51876275D01*
X61235500Y-52753923D01*
X61235501Y-53486319D01*
X61222237Y-53553000D01*
X61262084Y-53753321D01*
X61274781Y-53817152D01*
X61424411Y-54041090D01*
X61480941Y-54078862D01*
X64528937Y-57126859D01*
X64528940Y-57126861D01*
X67355638Y-59953560D01*
X67393410Y-60010090D01*
X67617348Y-60159720D01*
X67814822Y-60199000D01*
X67814823Y-60199000D01*
X67881500Y-60212263D01*
X67948176Y-60199000D01*
X81975324Y-60199000D01*
X82042000Y-60212263D01*
X82108676Y-60199000D01*
X82108678Y-60199000D01*
X82306152Y-60159720D01*
X82530090Y-60010090D01*
X82567864Y-59953557D01*
X82821859Y-59699562D01*
X85775562Y-56745860D01*
X85832089Y-56708090D01*
X85981720Y-56484152D01*
X86021000Y-56286678D01*
X86021000Y-56286677D01*
X86034263Y-56220000D01*
X86021000Y-56153324D01*
X86021000Y-51293421D01*
X89561422Y-47753000D01*
X91881324Y-47753000D01*
X91948000Y-47766263D01*
X92014676Y-47753000D01*
X92014678Y-47753000D01*
X92212152Y-47713720D01*
X92436090Y-47564090D01*
X92473864Y-47507558D01*
X92760561Y-47220860D01*
X92817089Y-47183090D01*
X92966720Y-46959152D01*
X93006000Y-46761678D01*
X93006000Y-46761677D01*
X93019263Y-46695001D01*
X93006000Y-46628324D01*
X93006000Y-45663555D01*
X93030097Y-45639458D01*
X93156000Y-45335501D01*
X93156000Y-45006499D01*
X93030097Y-44702542D01*
X92797458Y-44469903D01*
X92493501Y-44344000D01*
X92164499Y-44344000D01*
X91860542Y-44469903D01*
X91627903Y-44702542D01*
X91502000Y-45006499D01*
X91502000Y-45335501D01*
X91627903Y-45639458D01*
X91652001Y-45663556D01*
X91652000Y-46399000D01*
X89347676Y-46399000D01*
X89281000Y-46385737D01*
X89214323Y-46399000D01*
X89214322Y-46399000D01*
X89016848Y-46438280D01*
X88792910Y-46587910D01*
X88755138Y-46644440D01*
X84912441Y-50487138D01*
X84855911Y-50524910D01*
X84725303Y-50720379D01*
X84706281Y-50748848D01*
X84653737Y-51013000D01*
X84667001Y-51079681D01*
X84667000Y-55939578D01*
X81864438Y-58742141D01*
X81761579Y-58845000D01*
X80699134Y-58845000D01*
X80753321Y-58790813D01*
X80864000Y-58523609D01*
X80864000Y-58234391D01*
X80753321Y-57967187D01*
X80548813Y-57762679D01*
X80281609Y-57652000D01*
X79992391Y-57652000D01*
X79725187Y-57762679D01*
X79660866Y-57827000D01*
X77907134Y-57827000D01*
X77959321Y-57774813D01*
X78070000Y-57507609D01*
X78070000Y-57218391D01*
X77959321Y-56951187D01*
X77754813Y-56746679D01*
X77487609Y-56636000D01*
X77198391Y-56636000D01*
X76931187Y-56746679D01*
X76866866Y-56811000D01*
X70967646Y-56811000D01*
X68497000Y-54340355D01*
X68497000Y-52505134D01*
X68561321Y-52440813D01*
X68672000Y-52173609D01*
X68672000Y-51884391D01*
X68561321Y-51617187D01*
X68356813Y-51412679D01*
X68089609Y-51302000D01*
X67800391Y-51302000D01*
X67533187Y-51412679D01*
X67328679Y-51617187D01*
X67218000Y-51884391D01*
X67218000Y-52173609D01*
X67328679Y-52440813D01*
X67393000Y-52505134D01*
X67393001Y-54514630D01*
X67382186Y-54569000D01*
X67425028Y-54784379D01*
X67450834Y-54823000D01*
X67547031Y-54966970D01*
X67593121Y-54997766D01*
X70310233Y-57714879D01*
X70341030Y-57760970D01*
X70439851Y-57827000D01*
X68681646Y-57827000D01*
X65624000Y-54769355D01*
X65624000Y-54678391D01*
X65513321Y-54411187D01*
X65308813Y-54206679D01*
X65041609Y-54096000D01*
X64752391Y-54096000D01*
X64485187Y-54206679D01*
X64280679Y-54411187D01*
X64170000Y-54678391D01*
X64170000Y-54853078D01*
X62589500Y-53272579D01*
X62589500Y-52540176D01*
X62602763Y-52473499D01*
X62586757Y-52393031D01*
X62550220Y-52209348D01*
X62488768Y-52117379D01*
X62438359Y-52041936D01*
X62438358Y-52041935D01*
X62400589Y-51985410D01*
X62344065Y-51947642D01*
X60990921Y-50594499D01*
X68388000Y-50594499D01*
X68388000Y-50923501D01*
X68513903Y-51227458D01*
X68746542Y-51460097D01*
X69050499Y-51586000D01*
X69379501Y-51586000D01*
X69683458Y-51460097D01*
X69916097Y-51227458D01*
X69995401Y-51036001D01*
X76406323Y-51036001D01*
X76472999Y-51049264D01*
X76539675Y-51036001D01*
X76539677Y-51036001D01*
X76737151Y-50996721D01*
X76961089Y-50847091D01*
X76998863Y-50790558D01*
X80417422Y-47372000D01*
X83200445Y-47372000D01*
X83224542Y-47396097D01*
X83528499Y-47522000D01*
X83857501Y-47522000D01*
X84161458Y-47396097D01*
X84394097Y-47163458D01*
X84520000Y-46859501D01*
X84520000Y-46530499D01*
X84394097Y-46226542D01*
X84161458Y-45993903D01*
X83857501Y-45868000D01*
X83528499Y-45868000D01*
X83224542Y-45993903D01*
X83200445Y-46018000D01*
X80203676Y-46018000D01*
X80137000Y-46004737D01*
X80070323Y-46018000D01*
X80070322Y-46018000D01*
X79872848Y-46057280D01*
X79648910Y-46206910D01*
X79611138Y-46263440D01*
X76192578Y-49682001D01*
X69681675Y-49682001D01*
X69614998Y-49668738D01*
X69548322Y-49682001D01*
X69548321Y-49682001D01*
X69350847Y-49721281D01*
X69126909Y-49870911D01*
X69089135Y-49927444D01*
X69084579Y-49932000D01*
X69050499Y-49932000D01*
X68746542Y-50057903D01*
X68513903Y-50290542D01*
X68388000Y-50594499D01*
X60990921Y-50594499D01*
X60355500Y-49959079D01*
X60355500Y-49841124D01*
X60184153Y-49427455D01*
X59867545Y-49110847D01*
X59453876Y-48939500D01*
X59006124Y-48939500D01*
X58592455Y-49110847D01*
X58275847Y-49427455D01*
X58104500Y-49841124D01*
X58104500Y-50288876D01*
X58275847Y-50702545D01*
X58592455Y-51019153D01*
X59006124Y-51190500D01*
X59453876Y-51190500D01*
X59608169Y-51126590D01*
X59958725Y-51477147D01*
X59928500Y-51471135D01*
X58531500Y-51471135D01*
X58364893Y-51504275D01*
X58223650Y-51598650D01*
X58129275Y-51739893D01*
X58096135Y-51906500D01*
X50477000Y-51906500D01*
X50477000Y-47301124D01*
X58104500Y-47301124D01*
X58104500Y-47748876D01*
X58275847Y-48162545D01*
X58592455Y-48479153D01*
X59006124Y-48650500D01*
X59453876Y-48650500D01*
X59867545Y-48479153D01*
X60184153Y-48162545D01*
X60355500Y-47748876D01*
X60355500Y-47301124D01*
X60184153Y-46887455D01*
X59867545Y-46570847D01*
X59453876Y-46399500D01*
X59006124Y-46399500D01*
X58592455Y-46570847D01*
X58275847Y-46887455D01*
X58104500Y-47301124D01*
X50477000Y-47301124D01*
X50477000Y-43046975D01*
X50486344Y-43000000D01*
X50449323Y-42813884D01*
X50343897Y-42656103D01*
X50258428Y-42598995D01*
X50273933Y-42583490D01*
X50377000Y-42334664D01*
X50377000Y-42065336D01*
X50273933Y-41816510D01*
X50257423Y-41800000D01*
X50273933Y-41783490D01*
X50377000Y-41534664D01*
X50377000Y-41265336D01*
X50273933Y-41016510D01*
X50257423Y-41000000D01*
X50273933Y-40983490D01*
X50377000Y-40734664D01*
X50377000Y-40465336D01*
X50273933Y-40216510D01*
X50257423Y-40200000D01*
X50273933Y-40183490D01*
X50377000Y-39934664D01*
X50377000Y-39665336D01*
X50273933Y-39416510D01*
X50258428Y-39401005D01*
X50343897Y-39343897D01*
X50449323Y-39186116D01*
X50486344Y-39000000D01*
X50477000Y-38953025D01*
X50477000Y-38313000D01*
X75438000Y-38313000D01*
X75438000Y-43139000D01*
X75447667Y-43187601D01*
X75475197Y-43228803D01*
X78015197Y-45768803D01*
X78056399Y-45796333D01*
X78105000Y-45806000D01*
X83185000Y-45806000D01*
X83233601Y-45796333D01*
X83274803Y-45768803D01*
X85814803Y-43228803D01*
X85842333Y-43187601D01*
X85852000Y-43139000D01*
X85852000Y-41089391D01*
X103032000Y-41089391D01*
X103032000Y-41378609D01*
X103142679Y-41645813D01*
X103347187Y-41850321D01*
X103614391Y-41961000D01*
X103903609Y-41961000D01*
X104170813Y-41850321D01*
X104375321Y-41645813D01*
X104426606Y-41522000D01*
X109632866Y-41522000D01*
X109697187Y-41586321D01*
X109964391Y-41697000D01*
X110253609Y-41697000D01*
X110520813Y-41586321D01*
X110612000Y-41495134D01*
X110713187Y-41596321D01*
X110980391Y-41707000D01*
X111269609Y-41707000D01*
X111536813Y-41596321D01*
X111741321Y-41391813D01*
X111852000Y-41124609D01*
X111852000Y-40835391D01*
X111741321Y-40568187D01*
X111646085Y-40472951D01*
X111644972Y-40467356D01*
X111628618Y-40442881D01*
X111522970Y-40284766D01*
X111476880Y-40253970D01*
X110962032Y-39739123D01*
X110931234Y-39693030D01*
X110748644Y-39571028D01*
X110587629Y-39539000D01*
X110533264Y-39528186D01*
X110478899Y-39539000D01*
X105632134Y-39539000D01*
X105567813Y-39474679D01*
X105300609Y-39364000D01*
X105011391Y-39364000D01*
X104744187Y-39474679D01*
X104539679Y-39679187D01*
X104429000Y-39946391D01*
X104429000Y-40235609D01*
X104504548Y-40418000D01*
X104017091Y-40418000D01*
X104012999Y-40417186D01*
X104008907Y-40418000D01*
X103958635Y-40418000D01*
X103797620Y-40450028D01*
X103712355Y-40507000D01*
X103614391Y-40507000D01*
X103347187Y-40617679D01*
X103142679Y-40822187D01*
X103032000Y-41089391D01*
X85852000Y-41089391D01*
X85852000Y-38059000D01*
X85842333Y-38010399D01*
X85814803Y-37969197D01*
X83274803Y-35429197D01*
X83233601Y-35401667D01*
X83185000Y-35392000D01*
X78359000Y-35392000D01*
X78310399Y-35401667D01*
X78269197Y-35429197D01*
X75475197Y-38223197D01*
X75447667Y-38264399D01*
X75438000Y-38313000D01*
X50477000Y-38313000D01*
X50477000Y-35024163D01*
X50551360Y-34292099D01*
X50764143Y-33613109D01*
X51109109Y-32990774D01*
X51376715Y-32678553D01*
X126683000Y-32678553D01*
X126683000Y-33441448D01*
X126730984Y-33682679D01*
X126913768Y-33956233D01*
X127187322Y-34139016D01*
X127510000Y-34203201D01*
X127832679Y-34139016D01*
X128106233Y-33956233D01*
X128289016Y-33682679D01*
X128337000Y-33441448D01*
X128337000Y-32678553D01*
X135663000Y-32678553D01*
X135663000Y-33441448D01*
X135710984Y-33682679D01*
X135893768Y-33956233D01*
X136167322Y-34139016D01*
X136490000Y-34203201D01*
X136812679Y-34139016D01*
X137086233Y-33956233D01*
X137242663Y-33722119D01*
X145603000Y-33722119D01*
X145603000Y-34277881D01*
X145815680Y-34791337D01*
X146208663Y-35184320D01*
X146722119Y-35397000D01*
X147277881Y-35397000D01*
X147791337Y-35184320D01*
X148184320Y-34791337D01*
X148397000Y-34277881D01*
X148397000Y-33722119D01*
X148184320Y-33208663D01*
X147791337Y-32815680D01*
X147277881Y-32603000D01*
X146722119Y-32603000D01*
X146208663Y-32815680D01*
X145815680Y-33208663D01*
X145603000Y-33722119D01*
X137242663Y-33722119D01*
X137269016Y-33682679D01*
X137317000Y-33441448D01*
X137317000Y-32678552D01*
X137269016Y-32437321D01*
X137086233Y-32163767D01*
X136812678Y-31980984D01*
X136490000Y-31916799D01*
X136167321Y-31980984D01*
X135893767Y-32163767D01*
X135710984Y-32437322D01*
X135663000Y-32678553D01*
X128337000Y-32678553D01*
X128337000Y-32678552D01*
X128289016Y-32437321D01*
X128106233Y-32163767D01*
X127832678Y-31980984D01*
X127510000Y-31916799D01*
X127187321Y-31980984D01*
X126913767Y-32163767D01*
X126730984Y-32437322D01*
X126683000Y-32678553D01*
X51376715Y-32678553D01*
X51572163Y-32450521D01*
X52134395Y-32014408D01*
X52772838Y-31700255D01*
X53467098Y-31519414D01*
X54018322Y-31477000D01*
X145975837Y-31477000D01*
X146707901Y-31551360D01*
G04 #@! TD*
M02*
