G04 #@! TF.GenerationSoftware,KiCad,Pcbnew,5.0.2-bee76a0~70~ubuntu18.04.1*
G04 #@! TF.CreationDate,2020-04-30T09:20:18+02:00*
G04 #@! TF.ProjectId,OpenDropV4,4f70656e-4472-46f7-9056-342e6b696361,rev?*
G04 #@! TF.SameCoordinates,Original*
G04 #@! TF.FileFunction,Legend,Top*
G04 #@! TF.FilePolarity,Positive*
%FSLAX46Y46*%
G04 Gerber Fmt 4.6, Leading zero omitted, Abs format (unit mm)*
G04 Created by KiCad (PCBNEW 5.0.2-bee76a0~70~ubuntu18.04.1) date Do 30 Apr 2020 09:20:18 CEST*
%MOMM*%
%LPD*%
G01*
G04 APERTURE LIST*
%ADD10C,0.100000*%
%ADD11C,0.150000*%
%ADD12C,0.200000*%
%ADD13C,0.300000*%
%ADD14C,0.600000*%
%ADD15C,0.010000*%
%ADD16C,0.050000*%
%ADD17C,0.152400*%
%ADD18C,0.120000*%
G04 APERTURE END LIST*
D10*
X112600000Y-68000000D02*
X150000000Y-68000000D01*
X107716827Y-72115336D02*
G75*
G03X112570000Y-68027000I33173J4885336D01*
G01*
X92250000Y-72100000D02*
X107700000Y-72120000D01*
X92278753Y-72121673D02*
G75*
G02X87427000Y-68027000I-28753J4887673D01*
G01*
D11*
X95523809Y-117452380D02*
X95523809Y-116452380D01*
X95761904Y-116452380D01*
X95904761Y-116500000D01*
X96000000Y-116595238D01*
X96047619Y-116690476D01*
X96095238Y-116880952D01*
X96095238Y-117023809D01*
X96047619Y-117214285D01*
X96000000Y-117309523D01*
X95904761Y-117404761D01*
X95761904Y-117452380D01*
X95523809Y-117452380D01*
X96523809Y-117452380D02*
X96523809Y-116785714D01*
X96523809Y-116976190D02*
X96571428Y-116880952D01*
X96619047Y-116833333D01*
X96714285Y-116785714D01*
X96809523Y-116785714D01*
X97142857Y-117452380D02*
X97142857Y-116785714D01*
X97142857Y-116452380D02*
X97095238Y-116500000D01*
X97142857Y-116547619D01*
X97190476Y-116500000D01*
X97142857Y-116452380D01*
X97142857Y-116547619D01*
X97523809Y-116785714D02*
X97761904Y-117452380D01*
X98000000Y-116785714D01*
X98761904Y-117404761D02*
X98666666Y-117452380D01*
X98476190Y-117452380D01*
X98380952Y-117404761D01*
X98333333Y-117309523D01*
X98333333Y-116928571D01*
X98380952Y-116833333D01*
X98476190Y-116785714D01*
X98666666Y-116785714D01*
X98761904Y-116833333D01*
X98809523Y-116928571D01*
X98809523Y-117023809D01*
X98333333Y-117119047D01*
X99238095Y-117452380D02*
X99238095Y-116785714D01*
X99238095Y-116976190D02*
X99285714Y-116880952D01*
X99333333Y-116833333D01*
X99428571Y-116785714D01*
X99523809Y-116785714D01*
X100952380Y-116928571D02*
X101095238Y-116976190D01*
X101142857Y-117023809D01*
X101190476Y-117119047D01*
X101190476Y-117261904D01*
X101142857Y-117357142D01*
X101095238Y-117404761D01*
X101000000Y-117452380D01*
X100619047Y-117452380D01*
X100619047Y-116452380D01*
X100952380Y-116452380D01*
X101047619Y-116500000D01*
X101095238Y-116547619D01*
X101142857Y-116642857D01*
X101142857Y-116738095D01*
X101095238Y-116833333D01*
X101047619Y-116880952D01*
X100952380Y-116928571D01*
X100619047Y-116928571D01*
X101761904Y-117452380D02*
X101666666Y-117404761D01*
X101619047Y-117357142D01*
X101571428Y-117261904D01*
X101571428Y-116976190D01*
X101619047Y-116880952D01*
X101666666Y-116833333D01*
X101761904Y-116785714D01*
X101904761Y-116785714D01*
X102000000Y-116833333D01*
X102047619Y-116880952D01*
X102095238Y-116976190D01*
X102095238Y-117261904D01*
X102047619Y-117357142D01*
X102000000Y-117404761D01*
X101904761Y-117452380D01*
X101761904Y-117452380D01*
X102952380Y-117452380D02*
X102952380Y-116928571D01*
X102904761Y-116833333D01*
X102809523Y-116785714D01*
X102619047Y-116785714D01*
X102523809Y-116833333D01*
X102952380Y-117404761D02*
X102857142Y-117452380D01*
X102619047Y-117452380D01*
X102523809Y-117404761D01*
X102476190Y-117309523D01*
X102476190Y-117214285D01*
X102523809Y-117119047D01*
X102619047Y-117071428D01*
X102857142Y-117071428D01*
X102952380Y-117023809D01*
X103428571Y-117452380D02*
X103428571Y-116785714D01*
X103428571Y-116976190D02*
X103476190Y-116880952D01*
X103523809Y-116833333D01*
X103619047Y-116785714D01*
X103714285Y-116785714D01*
X104476190Y-117452380D02*
X104476190Y-116452380D01*
X104476190Y-117404761D02*
X104380952Y-117452380D01*
X104190476Y-117452380D01*
X104095238Y-117404761D01*
X104047619Y-117357142D01*
X104000000Y-117261904D01*
X104000000Y-116976190D01*
X104047619Y-116880952D01*
X104095238Y-116833333D01*
X104190476Y-116785714D01*
X104380952Y-116785714D01*
X104476190Y-116833333D01*
D10*
X144000000Y-137500000D02*
X150000000Y-137500000D01*
X132750417Y-130999277D02*
G75*
G02X138380000Y-134250000I-417J-6500723D01*
G01*
X144004583Y-137492062D02*
G75*
G02X138380000Y-134250000I-4583J6492062D01*
G01*
X61620835Y-134250000D02*
G75*
G02X67250000Y-131000000I5629165J-3250000D01*
G01*
X61629165Y-134250000D02*
G75*
G02X56000000Y-137500000I-5629165J3250000D01*
G01*
X50000000Y-137500000D02*
X56000000Y-137500000D01*
X67240000Y-131000000D02*
X132760000Y-131000000D01*
D11*
X149042380Y-50814380D02*
X148566190Y-51147714D01*
X149042380Y-51385809D02*
X148042380Y-51385809D01*
X148042380Y-51004857D01*
X148090000Y-50909619D01*
X148137619Y-50862000D01*
X148232857Y-50814380D01*
X148375714Y-50814380D01*
X148470952Y-50862000D01*
X148518571Y-50909619D01*
X148566190Y-51004857D01*
X148566190Y-51385809D01*
X148518571Y-50385809D02*
X148518571Y-50052476D01*
X149042380Y-49909619D02*
X149042380Y-50385809D01*
X148042380Y-50385809D01*
X148042380Y-49909619D01*
X148994761Y-49528666D02*
X149042380Y-49385809D01*
X149042380Y-49147714D01*
X148994761Y-49052476D01*
X148947142Y-49004857D01*
X148851904Y-48957238D01*
X148756666Y-48957238D01*
X148661428Y-49004857D01*
X148613809Y-49052476D01*
X148566190Y-49147714D01*
X148518571Y-49338190D01*
X148470952Y-49433428D01*
X148423333Y-49481047D01*
X148328095Y-49528666D01*
X148232857Y-49528666D01*
X148137619Y-49481047D01*
X148090000Y-49433428D01*
X148042380Y-49338190D01*
X148042380Y-49100095D01*
X148090000Y-48957238D01*
X148518571Y-48528666D02*
X148518571Y-48195333D01*
X149042380Y-48052476D02*
X149042380Y-48528666D01*
X148042380Y-48528666D01*
X148042380Y-48052476D01*
X148042380Y-47766761D02*
X148042380Y-47195333D01*
X149042380Y-47481047D02*
X148042380Y-47481047D01*
D12*
X140255857Y-60498380D02*
X140589190Y-61498380D01*
X140922523Y-60498380D01*
X141779666Y-60546000D02*
X141684428Y-60498380D01*
X141541571Y-60498380D01*
X141398714Y-60546000D01*
X141303476Y-60641238D01*
X141255857Y-60736476D01*
X141208238Y-60926952D01*
X141208238Y-61069809D01*
X141255857Y-61260285D01*
X141303476Y-61355523D01*
X141398714Y-61450761D01*
X141541571Y-61498380D01*
X141636809Y-61498380D01*
X141779666Y-61450761D01*
X141827285Y-61403142D01*
X141827285Y-61069809D01*
X141636809Y-61069809D01*
X142255857Y-61498380D02*
X142255857Y-60498380D01*
X142827285Y-61498380D01*
X142827285Y-60498380D01*
X143303476Y-61498380D02*
X143303476Y-60498380D01*
X143541571Y-60498380D01*
X143684428Y-60546000D01*
X143779666Y-60641238D01*
X143827285Y-60736476D01*
X143874904Y-60926952D01*
X143874904Y-61069809D01*
X143827285Y-61260285D01*
X143779666Y-61355523D01*
X143684428Y-61450761D01*
X143541571Y-61498380D01*
X143303476Y-61498380D01*
X135691714Y-62514380D02*
X135691714Y-61514380D01*
X135929809Y-61514380D01*
X136072666Y-61562000D01*
X136167904Y-61657238D01*
X136215523Y-61752476D01*
X136263142Y-61942952D01*
X136263142Y-62085809D01*
X136215523Y-62276285D01*
X136167904Y-62371523D01*
X136072666Y-62466761D01*
X135929809Y-62514380D01*
X135691714Y-62514380D01*
X137215523Y-62514380D02*
X136644095Y-62514380D01*
X136929809Y-62514380D02*
X136929809Y-61514380D01*
X136834571Y-61657238D01*
X136739333Y-61752476D01*
X136644095Y-61800095D01*
X137548857Y-61514380D02*
X138167904Y-61514380D01*
X137834571Y-61895333D01*
X137977428Y-61895333D01*
X138072666Y-61942952D01*
X138120285Y-61990571D01*
X138167904Y-62085809D01*
X138167904Y-62323904D01*
X138120285Y-62419142D01*
X138072666Y-62466761D01*
X137977428Y-62514380D01*
X137691714Y-62514380D01*
X137596476Y-62466761D01*
X137548857Y-62419142D01*
X131016476Y-62641380D02*
X130540285Y-62641380D01*
X130540285Y-61641380D01*
X131349809Y-62641380D02*
X131349809Y-61641380D01*
X132159333Y-62117571D02*
X131826000Y-62117571D01*
X131826000Y-62641380D02*
X131826000Y-61641380D01*
X132302190Y-61641380D01*
X132683142Y-62117571D02*
X133016476Y-62117571D01*
X133159333Y-62641380D02*
X132683142Y-62641380D01*
X132683142Y-61641380D01*
X133159333Y-61641380D01*
D13*
X129933142Y-33214571D02*
X129933142Y-34428857D01*
X130004571Y-34571714D01*
X130076000Y-34643142D01*
X130218857Y-34714571D01*
X130504571Y-34714571D01*
X130647428Y-34643142D01*
X130718857Y-34571714D01*
X130790285Y-34428857D01*
X130790285Y-33214571D01*
X131433142Y-34643142D02*
X131647428Y-34714571D01*
X132004571Y-34714571D01*
X132147428Y-34643142D01*
X132218857Y-34571714D01*
X132290285Y-34428857D01*
X132290285Y-34286000D01*
X132218857Y-34143142D01*
X132147428Y-34071714D01*
X132004571Y-34000285D01*
X131718857Y-33928857D01*
X131576000Y-33857428D01*
X131504571Y-33786000D01*
X131433142Y-33643142D01*
X131433142Y-33500285D01*
X131504571Y-33357428D01*
X131576000Y-33286000D01*
X131718857Y-33214571D01*
X132076000Y-33214571D01*
X132290285Y-33286000D01*
X133433142Y-33928857D02*
X133647428Y-34000285D01*
X133718857Y-34071714D01*
X133790285Y-34214571D01*
X133790285Y-34428857D01*
X133718857Y-34571714D01*
X133647428Y-34643142D01*
X133504571Y-34714571D01*
X132933142Y-34714571D01*
X132933142Y-33214571D01*
X133433142Y-33214571D01*
X133576000Y-33286000D01*
X133647428Y-33357428D01*
X133718857Y-33500285D01*
X133718857Y-33643142D01*
X133647428Y-33786000D01*
X133576000Y-33857428D01*
X133433142Y-33928857D01*
X132933142Y-33928857D01*
X58217571Y-138493000D02*
X58074714Y-138421571D01*
X57860428Y-138421571D01*
X57646142Y-138493000D01*
X57503285Y-138635857D01*
X57431857Y-138778714D01*
X57360428Y-139064428D01*
X57360428Y-139278714D01*
X57431857Y-139564428D01*
X57503285Y-139707285D01*
X57646142Y-139850142D01*
X57860428Y-139921571D01*
X58003285Y-139921571D01*
X58217571Y-139850142D01*
X58289000Y-139778714D01*
X58289000Y-139278714D01*
X58003285Y-139278714D01*
X59574714Y-139921571D02*
X59574714Y-139135857D01*
X59503285Y-138993000D01*
X59360428Y-138921571D01*
X59074714Y-138921571D01*
X58931857Y-138993000D01*
X59574714Y-139850142D02*
X59431857Y-139921571D01*
X59074714Y-139921571D01*
X58931857Y-139850142D01*
X58860428Y-139707285D01*
X58860428Y-139564428D01*
X58931857Y-139421571D01*
X59074714Y-139350142D01*
X59431857Y-139350142D01*
X59574714Y-139278714D01*
X60931857Y-138921571D02*
X60931857Y-139921571D01*
X60289000Y-138921571D02*
X60289000Y-139707285D01*
X60360428Y-139850142D01*
X60503285Y-139921571D01*
X60717571Y-139921571D01*
X60860428Y-139850142D01*
X60931857Y-139778714D01*
X62289000Y-139921571D02*
X62289000Y-138421571D01*
X62289000Y-139850142D02*
X62146142Y-139921571D01*
X61860428Y-139921571D01*
X61717571Y-139850142D01*
X61646142Y-139778714D01*
X61574714Y-139635857D01*
X61574714Y-139207285D01*
X61646142Y-139064428D01*
X61717571Y-138993000D01*
X61860428Y-138921571D01*
X62146142Y-138921571D01*
X62289000Y-138993000D01*
X63003285Y-139921571D02*
X63003285Y-138921571D01*
X63003285Y-138421571D02*
X62931857Y-138493000D01*
X63003285Y-138564428D01*
X63074714Y-138493000D01*
X63003285Y-138421571D01*
X63003285Y-138564428D01*
X64431857Y-139921571D02*
X63717571Y-139921571D01*
X63717571Y-138421571D01*
X65574714Y-139921571D02*
X65574714Y-139135857D01*
X65503285Y-138993000D01*
X65360428Y-138921571D01*
X65074714Y-138921571D01*
X64931857Y-138993000D01*
X65574714Y-139850142D02*
X65431857Y-139921571D01*
X65074714Y-139921571D01*
X64931857Y-139850142D01*
X64860428Y-139707285D01*
X64860428Y-139564428D01*
X64931857Y-139421571D01*
X65074714Y-139350142D01*
X65431857Y-139350142D01*
X65574714Y-139278714D01*
X66289000Y-139921571D02*
X66289000Y-138421571D01*
X66289000Y-138993000D02*
X66431857Y-138921571D01*
X66717571Y-138921571D01*
X66860428Y-138993000D01*
X66931857Y-139064428D01*
X67003285Y-139207285D01*
X67003285Y-139635857D01*
X66931857Y-139778714D01*
X66860428Y-139850142D01*
X66717571Y-139921571D01*
X66431857Y-139921571D01*
X66289000Y-139850142D01*
X67574714Y-139850142D02*
X67717571Y-139921571D01*
X68003285Y-139921571D01*
X68146142Y-139850142D01*
X68217571Y-139707285D01*
X68217571Y-139635857D01*
X68146142Y-139493000D01*
X68003285Y-139421571D01*
X67789000Y-139421571D01*
X67646142Y-139350142D01*
X67574714Y-139207285D01*
X67574714Y-139135857D01*
X67646142Y-138993000D01*
X67789000Y-138921571D01*
X68003285Y-138921571D01*
X68146142Y-138993000D01*
D12*
X104791380Y-39543380D02*
X105124714Y-40543380D01*
X105458047Y-39543380D01*
X106219952Y-39876714D02*
X106219952Y-40543380D01*
X105981857Y-39495761D02*
X105743761Y-40210047D01*
X106362809Y-40210047D01*
X106743761Y-40448142D02*
X106791380Y-40495761D01*
X106743761Y-40543380D01*
X106696142Y-40495761D01*
X106743761Y-40448142D01*
X106743761Y-40543380D01*
X107410428Y-39543380D02*
X107505666Y-39543380D01*
X107600904Y-39591000D01*
X107648523Y-39638619D01*
X107696142Y-39733857D01*
X107743761Y-39924333D01*
X107743761Y-40162428D01*
X107696142Y-40352904D01*
X107648523Y-40448142D01*
X107600904Y-40495761D01*
X107505666Y-40543380D01*
X107410428Y-40543380D01*
X107315190Y-40495761D01*
X107267571Y-40448142D01*
X107219952Y-40352904D01*
X107172333Y-40162428D01*
X107172333Y-39924333D01*
X107219952Y-39733857D01*
X107267571Y-39638619D01*
X107315190Y-39591000D01*
X107410428Y-39543380D01*
X108219952Y-40495761D02*
X108219952Y-40543380D01*
X108172333Y-40638619D01*
X108124714Y-40686238D01*
X109362809Y-39638619D02*
X109410428Y-39591000D01*
X109505666Y-39543380D01*
X109743761Y-39543380D01*
X109839000Y-39591000D01*
X109886619Y-39638619D01*
X109934238Y-39733857D01*
X109934238Y-39829095D01*
X109886619Y-39971952D01*
X109315190Y-40543380D01*
X109934238Y-40543380D01*
X110553285Y-39543380D02*
X110648523Y-39543380D01*
X110743761Y-39591000D01*
X110791380Y-39638619D01*
X110839000Y-39733857D01*
X110886619Y-39924333D01*
X110886619Y-40162428D01*
X110839000Y-40352904D01*
X110791380Y-40448142D01*
X110743761Y-40495761D01*
X110648523Y-40543380D01*
X110553285Y-40543380D01*
X110458047Y-40495761D01*
X110410428Y-40448142D01*
X110362809Y-40352904D01*
X110315190Y-40162428D01*
X110315190Y-39924333D01*
X110362809Y-39733857D01*
X110410428Y-39638619D01*
X110458047Y-39591000D01*
X110553285Y-39543380D01*
X111267571Y-39638619D02*
X111315190Y-39591000D01*
X111410428Y-39543380D01*
X111648523Y-39543380D01*
X111743761Y-39591000D01*
X111791380Y-39638619D01*
X111839000Y-39733857D01*
X111839000Y-39829095D01*
X111791380Y-39971952D01*
X111219952Y-40543380D01*
X111839000Y-40543380D01*
X112458047Y-39543380D02*
X112553285Y-39543380D01*
X112648523Y-39591000D01*
X112696142Y-39638619D01*
X112743761Y-39733857D01*
X112791380Y-39924333D01*
X112791380Y-40162428D01*
X112743761Y-40352904D01*
X112696142Y-40448142D01*
X112648523Y-40495761D01*
X112553285Y-40543380D01*
X112458047Y-40543380D01*
X112362809Y-40495761D01*
X112315190Y-40448142D01*
X112267571Y-40352904D01*
X112219952Y-40162428D01*
X112219952Y-39924333D01*
X112267571Y-39733857D01*
X112315190Y-39638619D01*
X112362809Y-39591000D01*
X112458047Y-39543380D01*
D13*
X145796142Y-65376000D02*
X145653285Y-65304571D01*
X145439000Y-65304571D01*
X145224714Y-65376000D01*
X145081857Y-65518857D01*
X145010428Y-65661714D01*
X144939000Y-65947428D01*
X144939000Y-66161714D01*
X145010428Y-66447428D01*
X145081857Y-66590285D01*
X145224714Y-66733142D01*
X145439000Y-66804571D01*
X145581857Y-66804571D01*
X145796142Y-66733142D01*
X145867571Y-66661714D01*
X145867571Y-66161714D01*
X145581857Y-66161714D01*
X146510428Y-66804571D02*
X146510428Y-65304571D01*
X147367571Y-66804571D01*
X147367571Y-65304571D01*
X148081857Y-66804571D02*
X148081857Y-65304571D01*
X148439000Y-65304571D01*
X148653285Y-65376000D01*
X148796142Y-65518857D01*
X148867571Y-65661714D01*
X148939000Y-65947428D01*
X148939000Y-66161714D01*
X148867571Y-66447428D01*
X148796142Y-66590285D01*
X148653285Y-66733142D01*
X148439000Y-66804571D01*
X148081857Y-66804571D01*
D12*
X126706333Y-62641380D02*
X126373000Y-62165190D01*
X126134904Y-62641380D02*
X126134904Y-61641380D01*
X126515857Y-61641380D01*
X126611095Y-61689000D01*
X126658714Y-61736619D01*
X126706333Y-61831857D01*
X126706333Y-61974714D01*
X126658714Y-62069952D01*
X126611095Y-62117571D01*
X126515857Y-62165190D01*
X126134904Y-62165190D01*
X127039666Y-61641380D02*
X127706333Y-62641380D01*
X127706333Y-61641380D02*
X127039666Y-62641380D01*
D13*
X51530428Y-54128571D02*
X51816142Y-54128571D01*
X51959000Y-54200000D01*
X52101857Y-54342857D01*
X52173285Y-54628571D01*
X52173285Y-55128571D01*
X52101857Y-55414285D01*
X51959000Y-55557142D01*
X51816142Y-55628571D01*
X51530428Y-55628571D01*
X51387571Y-55557142D01*
X51244714Y-55414285D01*
X51173285Y-55128571D01*
X51173285Y-54628571D01*
X51244714Y-54342857D01*
X51387571Y-54200000D01*
X51530428Y-54128571D01*
X53316142Y-54842857D02*
X52816142Y-54842857D01*
X52816142Y-55628571D02*
X52816142Y-54128571D01*
X53530428Y-54128571D01*
X54601857Y-54842857D02*
X54101857Y-54842857D01*
X54101857Y-55628571D02*
X54101857Y-54128571D01*
X54816142Y-54128571D01*
X52284428Y-44984571D02*
X52570142Y-44984571D01*
X52713000Y-45056000D01*
X52855857Y-45198857D01*
X52927285Y-45484571D01*
X52927285Y-45984571D01*
X52855857Y-46270285D01*
X52713000Y-46413142D01*
X52570142Y-46484571D01*
X52284428Y-46484571D01*
X52141571Y-46413142D01*
X51998714Y-46270285D01*
X51927285Y-45984571D01*
X51927285Y-45484571D01*
X51998714Y-45198857D01*
X52141571Y-45056000D01*
X52284428Y-44984571D01*
X53570142Y-46484571D02*
X53570142Y-44984571D01*
X54427285Y-46484571D01*
X54427285Y-44984571D01*
X51102571Y-41064571D02*
X51102571Y-39564571D01*
X51102571Y-40278857D02*
X51959714Y-40278857D01*
X51959714Y-41064571D02*
X51959714Y-39564571D01*
X52674000Y-41064571D02*
X52674000Y-39564571D01*
X54174000Y-39636000D02*
X54031142Y-39564571D01*
X53816857Y-39564571D01*
X53602571Y-39636000D01*
X53459714Y-39778857D01*
X53388285Y-39921714D01*
X53316857Y-40207428D01*
X53316857Y-40421714D01*
X53388285Y-40707428D01*
X53459714Y-40850285D01*
X53602571Y-40993142D01*
X53816857Y-41064571D01*
X53959714Y-41064571D01*
X54174000Y-40993142D01*
X54245428Y-40921714D01*
X54245428Y-40421714D01*
X53959714Y-40421714D01*
X54888285Y-41064571D02*
X54888285Y-39564571D01*
X54888285Y-40278857D02*
X55745428Y-40278857D01*
X55745428Y-41064571D02*
X55745428Y-39564571D01*
X57388285Y-39564571D02*
X57888285Y-41064571D01*
X58388285Y-39564571D01*
X59174000Y-39564571D02*
X59459714Y-39564571D01*
X59602571Y-39636000D01*
X59745428Y-39778857D01*
X59816857Y-40064571D01*
X59816857Y-40564571D01*
X59745428Y-40850285D01*
X59602571Y-40993142D01*
X59459714Y-41064571D01*
X59174000Y-41064571D01*
X59031142Y-40993142D01*
X58888285Y-40850285D01*
X58816857Y-40564571D01*
X58816857Y-40064571D01*
X58888285Y-39778857D01*
X59031142Y-39636000D01*
X59174000Y-39564571D01*
X61174000Y-41064571D02*
X60459714Y-41064571D01*
X60459714Y-39564571D01*
X61459714Y-39564571D02*
X62316857Y-39564571D01*
X61888285Y-41064571D02*
X61888285Y-39564571D01*
X62745428Y-40636000D02*
X63459714Y-40636000D01*
X62602571Y-41064571D02*
X63102571Y-39564571D01*
X63602571Y-41064571D01*
X64888285Y-39636000D02*
X64745428Y-39564571D01*
X64531142Y-39564571D01*
X64316857Y-39636000D01*
X64174000Y-39778857D01*
X64102571Y-39921714D01*
X64031142Y-40207428D01*
X64031142Y-40421714D01*
X64102571Y-40707428D01*
X64174000Y-40850285D01*
X64316857Y-40993142D01*
X64531142Y-41064571D01*
X64674000Y-41064571D01*
X64888285Y-40993142D01*
X64959714Y-40921714D01*
X64959714Y-40421714D01*
X64674000Y-40421714D01*
X65602571Y-40278857D02*
X66102571Y-40278857D01*
X66316857Y-41064571D02*
X65602571Y-41064571D01*
X65602571Y-39564571D01*
X66316857Y-39564571D01*
D14*
X90571428Y-34638142D02*
X91142857Y-34638142D01*
X91428571Y-34781000D01*
X91714285Y-35066714D01*
X91857142Y-35638142D01*
X91857142Y-36638142D01*
X91714285Y-37209571D01*
X91428571Y-37495285D01*
X91142857Y-37638142D01*
X90571428Y-37638142D01*
X90285714Y-37495285D01*
X90000000Y-37209571D01*
X89857142Y-36638142D01*
X89857142Y-35638142D01*
X90000000Y-35066714D01*
X90285714Y-34781000D01*
X90571428Y-34638142D01*
X93142857Y-35638142D02*
X93142857Y-38638142D01*
X93142857Y-35781000D02*
X93428571Y-35638142D01*
X94000000Y-35638142D01*
X94285714Y-35781000D01*
X94428571Y-35923857D01*
X94571428Y-36209571D01*
X94571428Y-37066714D01*
X94428571Y-37352428D01*
X94285714Y-37495285D01*
X94000000Y-37638142D01*
X93428571Y-37638142D01*
X93142857Y-37495285D01*
X97000000Y-37495285D02*
X96714285Y-37638142D01*
X96142857Y-37638142D01*
X95857142Y-37495285D01*
X95714285Y-37209571D01*
X95714285Y-36066714D01*
X95857142Y-35781000D01*
X96142857Y-35638142D01*
X96714285Y-35638142D01*
X97000000Y-35781000D01*
X97142857Y-36066714D01*
X97142857Y-36352428D01*
X95714285Y-36638142D01*
X98428571Y-35638142D02*
X98428571Y-37638142D01*
X98428571Y-35923857D02*
X98571428Y-35781000D01*
X98857142Y-35638142D01*
X99285714Y-35638142D01*
X99571428Y-35781000D01*
X99714285Y-36066714D01*
X99714285Y-37638142D01*
X101142857Y-37638142D02*
X101142857Y-34638142D01*
X101857142Y-34638142D01*
X102285714Y-34781000D01*
X102571428Y-35066714D01*
X102714285Y-35352428D01*
X102857142Y-35923857D01*
X102857142Y-36352428D01*
X102714285Y-36923857D01*
X102571428Y-37209571D01*
X102285714Y-37495285D01*
X101857142Y-37638142D01*
X101142857Y-37638142D01*
X104142857Y-37638142D02*
X104142857Y-35638142D01*
X104142857Y-36209571D02*
X104285714Y-35923857D01*
X104428571Y-35781000D01*
X104714285Y-35638142D01*
X105000000Y-35638142D01*
X106428571Y-37638142D02*
X106142857Y-37495285D01*
X106000000Y-37352428D01*
X105857142Y-37066714D01*
X105857142Y-36209571D01*
X106000000Y-35923857D01*
X106142857Y-35781000D01*
X106428571Y-35638142D01*
X106857142Y-35638142D01*
X107142857Y-35781000D01*
X107285714Y-35923857D01*
X107428571Y-36209571D01*
X107428571Y-37066714D01*
X107285714Y-37352428D01*
X107142857Y-37495285D01*
X106857142Y-37638142D01*
X106428571Y-37638142D01*
X108714285Y-35638142D02*
X108714285Y-38638142D01*
X108714285Y-35781000D02*
X109000000Y-35638142D01*
X109571428Y-35638142D01*
X109857142Y-35781000D01*
X110000000Y-35923857D01*
X110142857Y-36209571D01*
X110142857Y-37066714D01*
X110000000Y-37352428D01*
X109857142Y-37495285D01*
X109571428Y-37638142D01*
X109000000Y-37638142D01*
X108714285Y-37495285D01*
D13*
X96354428Y-55247571D02*
X96354428Y-53747571D01*
X96711571Y-53747571D01*
X96925857Y-53819000D01*
X97068714Y-53961857D01*
X97140142Y-54104714D01*
X97211571Y-54390428D01*
X97211571Y-54604714D01*
X97140142Y-54890428D01*
X97068714Y-55033285D01*
X96925857Y-55176142D01*
X96711571Y-55247571D01*
X96354428Y-55247571D01*
X97854428Y-55247571D02*
X97854428Y-53747571D01*
X99354428Y-53819000D02*
X99211571Y-53747571D01*
X98997285Y-53747571D01*
X98783000Y-53819000D01*
X98640142Y-53961857D01*
X98568714Y-54104714D01*
X98497285Y-54390428D01*
X98497285Y-54604714D01*
X98568714Y-54890428D01*
X98640142Y-55033285D01*
X98783000Y-55176142D01*
X98997285Y-55247571D01*
X99140142Y-55247571D01*
X99354428Y-55176142D01*
X99425857Y-55104714D01*
X99425857Y-54604714D01*
X99140142Y-54604714D01*
X100068714Y-55247571D02*
X100068714Y-53747571D01*
X100568714Y-53747571D02*
X101425857Y-53747571D01*
X100997285Y-55247571D02*
X100997285Y-53747571D01*
X101854428Y-54819000D02*
X102568714Y-54819000D01*
X101711571Y-55247571D02*
X102211571Y-53747571D01*
X102711571Y-55247571D01*
X103925857Y-55247571D02*
X103211571Y-55247571D01*
X103211571Y-53747571D01*
X106068714Y-54461857D02*
X106283000Y-54533285D01*
X106354428Y-54604714D01*
X106425857Y-54747571D01*
X106425857Y-54961857D01*
X106354428Y-55104714D01*
X106283000Y-55176142D01*
X106140142Y-55247571D01*
X105568714Y-55247571D01*
X105568714Y-53747571D01*
X106068714Y-53747571D01*
X106211571Y-53819000D01*
X106283000Y-53890428D01*
X106354428Y-54033285D01*
X106354428Y-54176142D01*
X106283000Y-54319000D01*
X106211571Y-54390428D01*
X106068714Y-54461857D01*
X105568714Y-54461857D01*
X107068714Y-55247571D02*
X107068714Y-53747571D01*
X108068714Y-53747571D02*
X108354428Y-53747571D01*
X108497285Y-53819000D01*
X108640142Y-53961857D01*
X108711571Y-54247571D01*
X108711571Y-54747571D01*
X108640142Y-55033285D01*
X108497285Y-55176142D01*
X108354428Y-55247571D01*
X108068714Y-55247571D01*
X107925857Y-55176142D01*
X107783000Y-55033285D01*
X107711571Y-54747571D01*
X107711571Y-54247571D01*
X107783000Y-53961857D01*
X107925857Y-53819000D01*
X108068714Y-53747571D01*
X110068714Y-55247571D02*
X109354428Y-55247571D01*
X109354428Y-53747571D01*
X110854428Y-53747571D02*
X111140142Y-53747571D01*
X111283000Y-53819000D01*
X111425857Y-53961857D01*
X111497285Y-54247571D01*
X111497285Y-54747571D01*
X111425857Y-55033285D01*
X111283000Y-55176142D01*
X111140142Y-55247571D01*
X110854428Y-55247571D01*
X110711571Y-55176142D01*
X110568714Y-55033285D01*
X110497285Y-54747571D01*
X110497285Y-54247571D01*
X110568714Y-53961857D01*
X110711571Y-53819000D01*
X110854428Y-53747571D01*
X112925857Y-53819000D02*
X112783000Y-53747571D01*
X112568714Y-53747571D01*
X112354428Y-53819000D01*
X112211571Y-53961857D01*
X112140142Y-54104714D01*
X112068714Y-54390428D01*
X112068714Y-54604714D01*
X112140142Y-54890428D01*
X112211571Y-55033285D01*
X112354428Y-55176142D01*
X112568714Y-55247571D01*
X112711571Y-55247571D01*
X112925857Y-55176142D01*
X112997285Y-55104714D01*
X112997285Y-54604714D01*
X112711571Y-54604714D01*
X113925857Y-54533285D02*
X113925857Y-55247571D01*
X113425857Y-53747571D02*
X113925857Y-54533285D01*
X114425857Y-53747571D01*
D10*
X50000000Y-68000000D02*
X87440000Y-68000000D01*
D11*
G04 #@! TO.C,P15*
X59100000Y-134000000D02*
G75*
G03X59100000Y-134000000I-3100000J0D01*
G01*
D15*
G04 #@! TO.C,G\002A\002A\002A*
G36*
X100639585Y-40006138D02*
X100788163Y-40086581D01*
X100923026Y-40175785D01*
X101223906Y-40389703D01*
X100820101Y-40526101D01*
X100609382Y-40595253D01*
X100448386Y-40644331D01*
X100373148Y-40662500D01*
X100342111Y-40607636D01*
X100330936Y-40487875D01*
X100359982Y-40301548D01*
X100430541Y-40123704D01*
X100520543Y-40003893D01*
X100555448Y-39983823D01*
X100639585Y-40006138D01*
X100639585Y-40006138D01*
G37*
X100639585Y-40006138D02*
X100788163Y-40086581D01*
X100923026Y-40175785D01*
X101223906Y-40389703D01*
X100820101Y-40526101D01*
X100609382Y-40595253D01*
X100448386Y-40644331D01*
X100373148Y-40662500D01*
X100342111Y-40607636D01*
X100330936Y-40487875D01*
X100359982Y-40301548D01*
X100430541Y-40123704D01*
X100520543Y-40003893D01*
X100555448Y-39983823D01*
X100639585Y-40006138D01*
G36*
X98821389Y-40257366D02*
X99036131Y-40307818D01*
X99260880Y-40375955D01*
X99459304Y-40452887D01*
X99504500Y-40474441D01*
X99698810Y-40596271D01*
X99870018Y-40740370D01*
X99879730Y-40750544D01*
X100032710Y-40914448D01*
X99725997Y-41185349D01*
X99462143Y-41383071D01*
X99221889Y-41482459D01*
X99160266Y-41494134D01*
X98968617Y-41529388D01*
X98819104Y-41569155D01*
X98796486Y-41577862D01*
X98717479Y-41580423D01*
X98652708Y-41492440D01*
X98610167Y-41381227D01*
X98572210Y-41212582D01*
X98544851Y-40985891D01*
X98529496Y-40738375D01*
X98527552Y-40507255D01*
X98540424Y-40329751D01*
X98567248Y-40245084D01*
X98652984Y-40233491D01*
X98821389Y-40257366D01*
X98821389Y-40257366D01*
G37*
X98821389Y-40257366D02*
X99036131Y-40307818D01*
X99260880Y-40375955D01*
X99459304Y-40452887D01*
X99504500Y-40474441D01*
X99698810Y-40596271D01*
X99870018Y-40740370D01*
X99879730Y-40750544D01*
X100032710Y-40914448D01*
X99725997Y-41185349D01*
X99462143Y-41383071D01*
X99221889Y-41482459D01*
X99160266Y-41494134D01*
X98968617Y-41529388D01*
X98819104Y-41569155D01*
X98796486Y-41577862D01*
X98717479Y-41580423D01*
X98652708Y-41492440D01*
X98610167Y-41381227D01*
X98572210Y-41212582D01*
X98544851Y-40985891D01*
X98529496Y-40738375D01*
X98527552Y-40507255D01*
X98540424Y-40329751D01*
X98567248Y-40245084D01*
X98652984Y-40233491D01*
X98821389Y-40257366D01*
G36*
X103359911Y-41139358D02*
X103618027Y-41477048D01*
X103766620Y-41778423D01*
X103810975Y-42061468D01*
X103756377Y-42344168D01*
X103732252Y-42406572D01*
X103649368Y-42553144D01*
X103525896Y-42666189D01*
X103340696Y-42755686D01*
X103072627Y-42831617D01*
X102700550Y-42903965D01*
X102666567Y-42909743D01*
X102390282Y-42958674D01*
X102153353Y-43004854D01*
X101989264Y-43041549D01*
X101941168Y-43055637D01*
X101865486Y-43067627D01*
X101874335Y-42995543D01*
X101882358Y-42975399D01*
X102037641Y-42498286D01*
X102105722Y-42044920D01*
X102108000Y-41955010D01*
X102113164Y-41756238D01*
X102142521Y-41643529D01*
X102216860Y-41575990D01*
X102326415Y-41525444D01*
X102493276Y-41431479D01*
X102696902Y-41283758D01*
X102842203Y-41160076D01*
X103139576Y-40885967D01*
X103359911Y-41139358D01*
X103359911Y-41139358D01*
G37*
X103359911Y-41139358D02*
X103618027Y-41477048D01*
X103766620Y-41778423D01*
X103810975Y-42061468D01*
X103756377Y-42344168D01*
X103732252Y-42406572D01*
X103649368Y-42553144D01*
X103525896Y-42666189D01*
X103340696Y-42755686D01*
X103072627Y-42831617D01*
X102700550Y-42903965D01*
X102666567Y-42909743D01*
X102390282Y-42958674D01*
X102153353Y-43004854D01*
X101989264Y-43041549D01*
X101941168Y-43055637D01*
X101865486Y-43067627D01*
X101874335Y-42995543D01*
X101882358Y-42975399D01*
X102037641Y-42498286D01*
X102105722Y-42044920D01*
X102108000Y-41955010D01*
X102113164Y-41756238D01*
X102142521Y-41643529D01*
X102216860Y-41575990D01*
X102326415Y-41525444D01*
X102493276Y-41431479D01*
X102696902Y-41283758D01*
X102842203Y-41160076D01*
X103139576Y-40885967D01*
X103359911Y-41139358D01*
G36*
X101437067Y-40757035D02*
X101504143Y-40844775D01*
X101585322Y-41023455D01*
X101586817Y-41026930D01*
X101740238Y-41447729D01*
X101808471Y-41811992D01*
X101796969Y-42152142D01*
X101786596Y-42214698D01*
X101730431Y-42424952D01*
X101638502Y-42673579D01*
X101524820Y-42932007D01*
X101403395Y-43171666D01*
X101288238Y-43363985D01*
X101193361Y-43480394D01*
X101155500Y-43501632D01*
X101039977Y-43487227D01*
X100866701Y-43434989D01*
X100806250Y-43411800D01*
X100525236Y-43274961D01*
X100227690Y-43093706D01*
X99956072Y-42896684D01*
X99752843Y-42712545D01*
X99727767Y-42684128D01*
X99600373Y-42440970D01*
X99565647Y-42151002D01*
X99624816Y-41855547D01*
X99698685Y-41704287D01*
X99901748Y-41460444D01*
X100192519Y-41219444D01*
X100533441Y-41005039D01*
X100886953Y-40840980D01*
X101203169Y-40752916D01*
X101348580Y-40734870D01*
X101437067Y-40757035D01*
X101437067Y-40757035D01*
G37*
X101437067Y-40757035D02*
X101504143Y-40844775D01*
X101585322Y-41023455D01*
X101586817Y-41026930D01*
X101740238Y-41447729D01*
X101808471Y-41811992D01*
X101796969Y-42152142D01*
X101786596Y-42214698D01*
X101730431Y-42424952D01*
X101638502Y-42673579D01*
X101524820Y-42932007D01*
X101403395Y-43171666D01*
X101288238Y-43363985D01*
X101193361Y-43480394D01*
X101155500Y-43501632D01*
X101039977Y-43487227D01*
X100866701Y-43434989D01*
X100806250Y-43411800D01*
X100525236Y-43274961D01*
X100227690Y-43093706D01*
X99956072Y-42896684D01*
X99752843Y-42712545D01*
X99727767Y-42684128D01*
X99600373Y-42440970D01*
X99565647Y-42151002D01*
X99624816Y-41855547D01*
X99698685Y-41704287D01*
X99901748Y-41460444D01*
X100192519Y-41219444D01*
X100533441Y-41005039D01*
X100886953Y-40840980D01*
X101203169Y-40752916D01*
X101348580Y-40734870D01*
X101437067Y-40757035D01*
G36*
X99212427Y-41847023D02*
X99245272Y-41972603D01*
X99250500Y-42125529D01*
X99294907Y-42477074D01*
X99433717Y-42788999D01*
X99675316Y-43071404D01*
X100028088Y-43334388D01*
X100441125Y-43559699D01*
X100709297Y-43694580D01*
X100860230Y-43783474D01*
X100894349Y-43828190D01*
X100812077Y-43830538D01*
X100613839Y-43792325D01*
X100488750Y-43762827D01*
X100266543Y-43727883D01*
X99954865Y-43703960D01*
X99590818Y-43691685D01*
X99211506Y-43691685D01*
X98854031Y-43704590D01*
X98561613Y-43730236D01*
X98158477Y-43781723D01*
X98180613Y-43179115D01*
X98203221Y-42831614D01*
X98252515Y-42577336D01*
X98345363Y-42382884D01*
X98498632Y-42214859D01*
X98729189Y-42039867D01*
X98770121Y-42011875D01*
X98992359Y-41870801D01*
X99133959Y-41814470D01*
X99212427Y-41847023D01*
X99212427Y-41847023D01*
G37*
X99212427Y-41847023D02*
X99245272Y-41972603D01*
X99250500Y-42125529D01*
X99294907Y-42477074D01*
X99433717Y-42788999D01*
X99675316Y-43071404D01*
X100028088Y-43334388D01*
X100441125Y-43559699D01*
X100709297Y-43694580D01*
X100860230Y-43783474D01*
X100894349Y-43828190D01*
X100812077Y-43830538D01*
X100613839Y-43792325D01*
X100488750Y-43762827D01*
X100266543Y-43727883D01*
X99954865Y-43703960D01*
X99590818Y-43691685D01*
X99211506Y-43691685D01*
X98854031Y-43704590D01*
X98561613Y-43730236D01*
X98158477Y-43781723D01*
X98180613Y-43179115D01*
X98203221Y-42831614D01*
X98252515Y-42577336D01*
X98345363Y-42382884D01*
X98498632Y-42214859D01*
X98729189Y-42039867D01*
X98770121Y-42011875D01*
X98992359Y-41870801D01*
X99133959Y-41814470D01*
X99212427Y-41847023D01*
G36*
X96430152Y-40996634D02*
X96750822Y-41014199D01*
X96989213Y-41043668D01*
X97190021Y-41094484D01*
X97397941Y-41176091D01*
X97499948Y-41222665D01*
X97755634Y-41353779D01*
X98002963Y-41499471D01*
X98177397Y-41620066D01*
X98425453Y-41816531D01*
X98205112Y-42073950D01*
X97962293Y-42445561D01*
X97828083Y-42870776D01*
X97799193Y-43360376D01*
X97801084Y-43398306D01*
X97825901Y-43837500D01*
X97347575Y-43831121D01*
X97074489Y-43820227D01*
X96817163Y-43797777D01*
X96631024Y-43768616D01*
X96630138Y-43768408D01*
X96222644Y-43622313D01*
X95857214Y-43395991D01*
X95558154Y-43110232D01*
X95349768Y-42785828D01*
X95288623Y-42620846D01*
X95202410Y-42239373D01*
X95154804Y-41864662D01*
X95149609Y-41537877D01*
X95172440Y-41363167D01*
X95221326Y-41219485D01*
X95310818Y-41132361D01*
X95481055Y-41065010D01*
X95506159Y-41057312D01*
X95793030Y-41006413D01*
X96196267Y-40991160D01*
X96430152Y-40996634D01*
X96430152Y-40996634D01*
G37*
X96430152Y-40996634D02*
X96750822Y-41014199D01*
X96989213Y-41043668D01*
X97190021Y-41094484D01*
X97397941Y-41176091D01*
X97499948Y-41222665D01*
X97755634Y-41353779D01*
X98002963Y-41499471D01*
X98177397Y-41620066D01*
X98425453Y-41816531D01*
X98205112Y-42073950D01*
X97962293Y-42445561D01*
X97828083Y-42870776D01*
X97799193Y-43360376D01*
X97801084Y-43398306D01*
X97825901Y-43837500D01*
X97347575Y-43831121D01*
X97074489Y-43820227D01*
X96817163Y-43797777D01*
X96631024Y-43768616D01*
X96630138Y-43768408D01*
X96222644Y-43622313D01*
X95857214Y-43395991D01*
X95558154Y-43110232D01*
X95349768Y-42785828D01*
X95288623Y-42620846D01*
X95202410Y-42239373D01*
X95154804Y-41864662D01*
X95149609Y-41537877D01*
X95172440Y-41363167D01*
X95221326Y-41219485D01*
X95310818Y-41132361D01*
X95481055Y-41065010D01*
X95506159Y-41057312D01*
X95793030Y-41006413D01*
X96196267Y-40991160D01*
X96430152Y-40996634D01*
G36*
X104859450Y-42059278D02*
X104899488Y-42114306D01*
X104911141Y-42135164D01*
X104948631Y-42261981D01*
X104982147Y-42482923D01*
X105007419Y-42765117D01*
X105016788Y-42948500D01*
X105008754Y-43527172D01*
X104933519Y-44031179D01*
X104783843Y-44497810D01*
X104666319Y-44753716D01*
X104564072Y-44915862D01*
X104405777Y-45121150D01*
X104211760Y-45348047D01*
X104002348Y-45575019D01*
X103797868Y-45780531D01*
X103618646Y-45943049D01*
X103485010Y-46041040D01*
X103433321Y-46059949D01*
X103327496Y-46033194D01*
X103159656Y-45965526D01*
X103073295Y-45924790D01*
X102840756Y-45775138D01*
X102567510Y-45545177D01*
X102280886Y-45261841D01*
X102008208Y-44952060D01*
X101785446Y-44655558D01*
X101629767Y-44439993D01*
X101473067Y-44244936D01*
X101360198Y-44123541D01*
X101187250Y-43963052D01*
X101377750Y-43804101D01*
X101702301Y-43562198D01*
X102019961Y-43396723D01*
X102379395Y-43286395D01*
X102693065Y-43228905D01*
X103187583Y-43127267D01*
X103604363Y-42972204D01*
X103985475Y-42743173D01*
X104372989Y-42419629D01*
X104397592Y-42396546D01*
X104599678Y-42207568D01*
X104730228Y-42095382D01*
X104809924Y-42049461D01*
X104859450Y-42059278D01*
X104859450Y-42059278D01*
G37*
X104859450Y-42059278D02*
X104899488Y-42114306D01*
X104911141Y-42135164D01*
X104948631Y-42261981D01*
X104982147Y-42482923D01*
X105007419Y-42765117D01*
X105016788Y-42948500D01*
X105008754Y-43527172D01*
X104933519Y-44031179D01*
X104783843Y-44497810D01*
X104666319Y-44753716D01*
X104564072Y-44915862D01*
X104405777Y-45121150D01*
X104211760Y-45348047D01*
X104002348Y-45575019D01*
X103797868Y-45780531D01*
X103618646Y-45943049D01*
X103485010Y-46041040D01*
X103433321Y-46059949D01*
X103327496Y-46033194D01*
X103159656Y-45965526D01*
X103073295Y-45924790D01*
X102840756Y-45775138D01*
X102567510Y-45545177D01*
X102280886Y-45261841D01*
X102008208Y-44952060D01*
X101785446Y-44655558D01*
X101629767Y-44439993D01*
X101473067Y-44244936D01*
X101360198Y-44123541D01*
X101187250Y-43963052D01*
X101377750Y-43804101D01*
X101702301Y-43562198D01*
X102019961Y-43396723D01*
X102379395Y-43286395D01*
X102693065Y-43228905D01*
X103187583Y-43127267D01*
X103604363Y-42972204D01*
X103985475Y-42743173D01*
X104372989Y-42419629D01*
X104397592Y-42396546D01*
X104599678Y-42207568D01*
X104730228Y-42095382D01*
X104809924Y-42049461D01*
X104859450Y-42059278D01*
G36*
X94890765Y-43282199D02*
X95161085Y-43413690D01*
X95209067Y-43447897D01*
X95617142Y-43742860D01*
X95961254Y-43961998D01*
X96271354Y-44114983D01*
X96577389Y-44211488D01*
X96909309Y-44261185D01*
X97297062Y-44273747D01*
X97726500Y-44260928D01*
X98097474Y-44239992D01*
X98484713Y-44211824D01*
X98836858Y-44180470D01*
X99056062Y-44156161D01*
X99573687Y-44119907D01*
X100061854Y-44152889D01*
X100072062Y-44154284D01*
X100359774Y-44210903D01*
X100650847Y-44296577D01*
X100915401Y-44399250D01*
X101123559Y-44506865D01*
X101245441Y-44607367D01*
X101260532Y-44633843D01*
X101241898Y-44760160D01*
X101113444Y-44948619D01*
X100875730Y-45198556D01*
X100529319Y-45509305D01*
X100497208Y-45536535D01*
X100188068Y-45792515D01*
X99872494Y-46044633D01*
X99566505Y-46281077D01*
X99286117Y-46490038D01*
X99047349Y-46659706D01*
X98866218Y-46778270D01*
X98758743Y-46833920D01*
X98737329Y-46834132D01*
X98699261Y-46751026D01*
X98645527Y-46591402D01*
X98619941Y-46504500D01*
X98508440Y-46216581D01*
X98368323Y-46048751D01*
X98203050Y-45996500D01*
X98014185Y-46037375D01*
X97761090Y-46149133D01*
X97471883Y-46315476D01*
X97174680Y-46520104D01*
X96897599Y-46746716D01*
X96877675Y-46764820D01*
X96659021Y-46954080D01*
X96509664Y-47058759D01*
X96436473Y-47074227D01*
X96431401Y-47065638D01*
X96404207Y-46968548D01*
X96353459Y-46782559D01*
X96288360Y-46541475D01*
X96261385Y-46441000D01*
X96088642Y-45852478D01*
X95912375Y-45374008D01*
X95723531Y-44988765D01*
X95513057Y-44679922D01*
X95271902Y-44430651D01*
X95112398Y-44305305D01*
X94812988Y-44107069D01*
X94538553Y-43967235D01*
X94236510Y-43863050D01*
X93903467Y-43782219D01*
X93393799Y-43672576D01*
X93850735Y-43461961D01*
X94254777Y-43306135D01*
X94595058Y-43246281D01*
X94890765Y-43282199D01*
X94890765Y-43282199D01*
G37*
X94890765Y-43282199D02*
X95161085Y-43413690D01*
X95209067Y-43447897D01*
X95617142Y-43742860D01*
X95961254Y-43961998D01*
X96271354Y-44114983D01*
X96577389Y-44211488D01*
X96909309Y-44261185D01*
X97297062Y-44273747D01*
X97726500Y-44260928D01*
X98097474Y-44239992D01*
X98484713Y-44211824D01*
X98836858Y-44180470D01*
X99056062Y-44156161D01*
X99573687Y-44119907D01*
X100061854Y-44152889D01*
X100072062Y-44154284D01*
X100359774Y-44210903D01*
X100650847Y-44296577D01*
X100915401Y-44399250D01*
X101123559Y-44506865D01*
X101245441Y-44607367D01*
X101260532Y-44633843D01*
X101241898Y-44760160D01*
X101113444Y-44948619D01*
X100875730Y-45198556D01*
X100529319Y-45509305D01*
X100497208Y-45536535D01*
X100188068Y-45792515D01*
X99872494Y-46044633D01*
X99566505Y-46281077D01*
X99286117Y-46490038D01*
X99047349Y-46659706D01*
X98866218Y-46778270D01*
X98758743Y-46833920D01*
X98737329Y-46834132D01*
X98699261Y-46751026D01*
X98645527Y-46591402D01*
X98619941Y-46504500D01*
X98508440Y-46216581D01*
X98368323Y-46048751D01*
X98203050Y-45996500D01*
X98014185Y-46037375D01*
X97761090Y-46149133D01*
X97471883Y-46315476D01*
X97174680Y-46520104D01*
X96897599Y-46746716D01*
X96877675Y-46764820D01*
X96659021Y-46954080D01*
X96509664Y-47058759D01*
X96436473Y-47074227D01*
X96431401Y-47065638D01*
X96404207Y-46968548D01*
X96353459Y-46782559D01*
X96288360Y-46541475D01*
X96261385Y-46441000D01*
X96088642Y-45852478D01*
X95912375Y-45374008D01*
X95723531Y-44988765D01*
X95513057Y-44679922D01*
X95271902Y-44430651D01*
X95112398Y-44305305D01*
X94812988Y-44107069D01*
X94538553Y-43967235D01*
X94236510Y-43863050D01*
X93903467Y-43782219D01*
X93393799Y-43672576D01*
X93850735Y-43461961D01*
X94254777Y-43306135D01*
X94595058Y-43246281D01*
X94890765Y-43282199D01*
G36*
X96670631Y-47499539D02*
X96748867Y-47521369D01*
X97064953Y-47654124D01*
X97347006Y-47828187D01*
X97578020Y-48026235D01*
X97740990Y-48230942D01*
X97818910Y-48424983D01*
X97796194Y-48588424D01*
X97653248Y-48741140D01*
X97407662Y-48879289D01*
X97083765Y-48991024D01*
X96871448Y-49038719D01*
X96617809Y-49071089D01*
X96295584Y-49091500D01*
X95940197Y-49099995D01*
X95587074Y-49096618D01*
X95271640Y-49081415D01*
X95029321Y-49054429D01*
X94945865Y-49036307D01*
X94755570Y-48928102D01*
X94659087Y-48752513D01*
X94656541Y-48527899D01*
X94748060Y-48272619D01*
X94933769Y-48005031D01*
X94938759Y-47999322D01*
X95023819Y-47929234D01*
X95478360Y-47929234D01*
X95485062Y-47962942D01*
X95518939Y-48043026D01*
X95587449Y-48100804D01*
X95714937Y-48145625D01*
X95925748Y-48186840D01*
X96159152Y-48221858D01*
X96393726Y-48262953D01*
X96583623Y-48310429D01*
X96688563Y-48354171D01*
X96689716Y-48355101D01*
X96744453Y-48460192D01*
X96772876Y-48631279D01*
X96774000Y-48672485D01*
X96780123Y-48830506D01*
X96815731Y-48891799D01*
X96906681Y-48886581D01*
X96948625Y-48876564D01*
X97135615Y-48819791D01*
X97327334Y-48748459D01*
X97523972Y-48621492D01*
X97642198Y-48452104D01*
X97663000Y-48347142D01*
X97610259Y-48241005D01*
X97469401Y-48101011D01*
X97266467Y-47948947D01*
X97027500Y-47806602D01*
X96999798Y-47792304D01*
X96824336Y-47711466D01*
X96666699Y-47666757D01*
X96481723Y-47651054D01*
X96224246Y-47657230D01*
X96163064Y-47660307D01*
X95832962Y-47689830D01*
X95616815Y-47740919D01*
X95502616Y-47818934D01*
X95478360Y-47929234D01*
X95023819Y-47929234D01*
X95198272Y-47785490D01*
X95540356Y-47618262D01*
X95925870Y-47507970D01*
X96315676Y-47464951D01*
X96670631Y-47499539D01*
X96670631Y-47499539D01*
G37*
X96670631Y-47499539D02*
X96748867Y-47521369D01*
X97064953Y-47654124D01*
X97347006Y-47828187D01*
X97578020Y-48026235D01*
X97740990Y-48230942D01*
X97818910Y-48424983D01*
X97796194Y-48588424D01*
X97653248Y-48741140D01*
X97407662Y-48879289D01*
X97083765Y-48991024D01*
X96871448Y-49038719D01*
X96617809Y-49071089D01*
X96295584Y-49091500D01*
X95940197Y-49099995D01*
X95587074Y-49096618D01*
X95271640Y-49081415D01*
X95029321Y-49054429D01*
X94945865Y-49036307D01*
X94755570Y-48928102D01*
X94659087Y-48752513D01*
X94656541Y-48527899D01*
X94748060Y-48272619D01*
X94933769Y-48005031D01*
X94938759Y-47999322D01*
X95023819Y-47929234D01*
X95478360Y-47929234D01*
X95485062Y-47962942D01*
X95518939Y-48043026D01*
X95587449Y-48100804D01*
X95714937Y-48145625D01*
X95925748Y-48186840D01*
X96159152Y-48221858D01*
X96393726Y-48262953D01*
X96583623Y-48310429D01*
X96688563Y-48354171D01*
X96689716Y-48355101D01*
X96744453Y-48460192D01*
X96772876Y-48631279D01*
X96774000Y-48672485D01*
X96780123Y-48830506D01*
X96815731Y-48891799D01*
X96906681Y-48886581D01*
X96948625Y-48876564D01*
X97135615Y-48819791D01*
X97327334Y-48748459D01*
X97523972Y-48621492D01*
X97642198Y-48452104D01*
X97663000Y-48347142D01*
X97610259Y-48241005D01*
X97469401Y-48101011D01*
X97266467Y-47948947D01*
X97027500Y-47806602D01*
X96999798Y-47792304D01*
X96824336Y-47711466D01*
X96666699Y-47666757D01*
X96481723Y-47651054D01*
X96224246Y-47657230D01*
X96163064Y-47660307D01*
X95832962Y-47689830D01*
X95616815Y-47740919D01*
X95502616Y-47818934D01*
X95478360Y-47929234D01*
X95023819Y-47929234D01*
X95198272Y-47785490D01*
X95540356Y-47618262D01*
X95925870Y-47507970D01*
X96315676Y-47464951D01*
X96670631Y-47499539D01*
G36*
X93661175Y-44205626D02*
X94034988Y-44267416D01*
X94145417Y-44300450D01*
X94579927Y-44493792D01*
X94952121Y-44743344D01*
X95230884Y-45028004D01*
X95243545Y-45045167D01*
X95343292Y-45220036D01*
X95464528Y-45489958D01*
X95596805Y-45827069D01*
X95729670Y-46203504D01*
X95852674Y-46591400D01*
X95939344Y-46900379D01*
X96001213Y-47137509D01*
X95737088Y-47208630D01*
X95504873Y-47284390D01*
X95279193Y-47377635D01*
X95250357Y-47391683D01*
X95145370Y-47441070D01*
X95054714Y-47463628D01*
X94948515Y-47455154D01*
X94796900Y-47411445D01*
X94569994Y-47328298D01*
X94435879Y-47277093D01*
X94139247Y-47169237D01*
X93936578Y-47110832D01*
X93806998Y-47097100D01*
X93738025Y-47117423D01*
X93644894Y-47243034D01*
X93585332Y-47462319D01*
X93560669Y-47746109D01*
X93572237Y-48065237D01*
X93621370Y-48390536D01*
X93671132Y-48582046D01*
X93777211Y-48781970D01*
X93945192Y-48958721D01*
X94135690Y-49077630D01*
X94268666Y-49108000D01*
X94415947Y-49137189D01*
X94610073Y-49210809D01*
X94692419Y-49250875D01*
X94811745Y-49307717D01*
X94933724Y-49347225D01*
X95084147Y-49372489D01*
X95288803Y-49386599D01*
X95573481Y-49392643D01*
X95885000Y-49393750D01*
X96307598Y-49389294D01*
X96631924Y-49374232D01*
X96886450Y-49346021D01*
X97099649Y-49302116D01*
X97186750Y-49277461D01*
X97728216Y-49048606D01*
X98241390Y-48707351D01*
X98710743Y-48267656D01*
X99120747Y-47743477D01*
X99377402Y-47308260D01*
X99476474Y-47140668D01*
X99596335Y-47000094D01*
X99765498Y-46859829D01*
X100012475Y-46693162D01*
X100079123Y-46650905D01*
X100492784Y-46412087D01*
X100871884Y-46247482D01*
X101241287Y-46155254D01*
X101625859Y-46133566D01*
X102050465Y-46180580D01*
X102539970Y-46294460D01*
X103002562Y-46434927D01*
X103370061Y-46546450D01*
X103700014Y-46631384D01*
X103962959Y-46682734D01*
X104097937Y-46695000D01*
X104271946Y-46702446D01*
X104378398Y-46721354D01*
X104394000Y-46733736D01*
X104366234Y-46805436D01*
X104293506Y-46955820D01*
X104193502Y-47148645D01*
X104002516Y-47460581D01*
X103756608Y-47795967D01*
X103485174Y-48119433D01*
X103217608Y-48395608D01*
X103014624Y-48567155D01*
X102872606Y-48675621D01*
X102793277Y-48768390D01*
X102757814Y-48887828D01*
X102747396Y-49076301D01*
X102746126Y-49171500D01*
X102696917Y-49695493D01*
X102555211Y-50220151D01*
X102376646Y-50649039D01*
X102200765Y-50974737D01*
X101983461Y-51307223D01*
X101750083Y-51612328D01*
X101525978Y-51855881D01*
X101404076Y-51960054D01*
X101162569Y-52081617D01*
X100852389Y-52137046D01*
X100466340Y-52125506D01*
X99997224Y-52046163D01*
X99437844Y-51898181D01*
X98781004Y-51680727D01*
X98679000Y-51644017D01*
X98277299Y-51499031D01*
X97972502Y-51394696D01*
X97742097Y-51328431D01*
X97563572Y-51297655D01*
X97414413Y-51299787D01*
X97272110Y-51332247D01*
X97114151Y-51392454D01*
X96982601Y-51449555D01*
X96756484Y-51543800D01*
X96580657Y-51593878D01*
X96419629Y-51597216D01*
X96237906Y-51551245D01*
X95999996Y-51453392D01*
X95806109Y-51364332D01*
X95567467Y-51269792D01*
X95383973Y-51229553D01*
X95315595Y-51234584D01*
X95222512Y-51291362D01*
X95059483Y-51417446D01*
X94848709Y-51594747D01*
X94612392Y-51805177D01*
X94589247Y-51826392D01*
X94152853Y-52208341D01*
X93777674Y-52493541D01*
X93452090Y-52689279D01*
X93164478Y-52802845D01*
X92976795Y-52837605D01*
X92785133Y-52841369D01*
X92607128Y-52804865D01*
X92393971Y-52715459D01*
X92277466Y-52656625D01*
X91912999Y-52419571D01*
X91533634Y-52084668D01*
X91445822Y-51994689D01*
X91284029Y-51810485D01*
X91089152Y-51566787D01*
X90872326Y-51279958D01*
X90644688Y-50966360D01*
X90417375Y-50642355D01*
X90201522Y-50324307D01*
X90008267Y-50028577D01*
X89848745Y-49771528D01*
X89734094Y-49569523D01*
X89675448Y-49438923D01*
X89677432Y-49396429D01*
X89760624Y-49388461D01*
X89952722Y-49379396D01*
X90235642Y-49369791D01*
X90591301Y-49360201D01*
X91001614Y-49351184D01*
X91356489Y-49344766D01*
X91862324Y-49335418D01*
X92256804Y-49325185D01*
X92555570Y-49312886D01*
X92774268Y-49297341D01*
X92928541Y-49277370D01*
X93034032Y-49251791D01*
X93106384Y-49219425D01*
X93118614Y-49211799D01*
X93244772Y-49072273D01*
X93279551Y-48905443D01*
X93216400Y-48755421D01*
X93190118Y-48730210D01*
X93094021Y-48696718D01*
X92898965Y-48660978D01*
X92632832Y-48627161D01*
X92323501Y-48599442D01*
X92309753Y-48598457D01*
X91804231Y-48548436D01*
X91395280Y-48472536D01*
X91053657Y-48362190D01*
X90750118Y-48208829D01*
X90567869Y-48088132D01*
X90294821Y-47892043D01*
X90089535Y-48065262D01*
X89919331Y-48186290D01*
X89688670Y-48321331D01*
X89432182Y-48453436D01*
X89184493Y-48565656D01*
X88980230Y-48641041D01*
X88867323Y-48663500D01*
X88763797Y-48636321D01*
X88572420Y-48561870D01*
X88318372Y-48450774D01*
X88026835Y-48313658D01*
X87954799Y-48278411D01*
X87643222Y-48123466D01*
X87429226Y-48011164D01*
X87296003Y-47928971D01*
X87226747Y-47864352D01*
X87204651Y-47804774D01*
X87212907Y-47737702D01*
X87215513Y-47727061D01*
X87299022Y-47511960D01*
X87444569Y-47247008D01*
X87627174Y-46974854D01*
X87741634Y-46828822D01*
X87922189Y-46613394D01*
X88871469Y-46844707D01*
X89214790Y-46925703D01*
X89526453Y-46994317D01*
X89780111Y-47045110D01*
X89949416Y-47072648D01*
X89992387Y-47076010D01*
X90253942Y-47029642D01*
X90456977Y-46903057D01*
X90543997Y-46780259D01*
X90607930Y-46567806D01*
X90569234Y-46396037D01*
X90421837Y-46226829D01*
X90229175Y-46055166D01*
X90342462Y-45860557D01*
X90491162Y-45669740D01*
X90728100Y-45440040D01*
X91028141Y-45189804D01*
X91366149Y-44937379D01*
X91716987Y-44701112D01*
X92055521Y-44499350D01*
X92356613Y-44350440D01*
X92472546Y-44305781D01*
X92827216Y-44224976D01*
X93241006Y-44191535D01*
X93661175Y-44205626D01*
X93661175Y-44205626D01*
G37*
X93661175Y-44205626D02*
X94034988Y-44267416D01*
X94145417Y-44300450D01*
X94579927Y-44493792D01*
X94952121Y-44743344D01*
X95230884Y-45028004D01*
X95243545Y-45045167D01*
X95343292Y-45220036D01*
X95464528Y-45489958D01*
X95596805Y-45827069D01*
X95729670Y-46203504D01*
X95852674Y-46591400D01*
X95939344Y-46900379D01*
X96001213Y-47137509D01*
X95737088Y-47208630D01*
X95504873Y-47284390D01*
X95279193Y-47377635D01*
X95250357Y-47391683D01*
X95145370Y-47441070D01*
X95054714Y-47463628D01*
X94948515Y-47455154D01*
X94796900Y-47411445D01*
X94569994Y-47328298D01*
X94435879Y-47277093D01*
X94139247Y-47169237D01*
X93936578Y-47110832D01*
X93806998Y-47097100D01*
X93738025Y-47117423D01*
X93644894Y-47243034D01*
X93585332Y-47462319D01*
X93560669Y-47746109D01*
X93572237Y-48065237D01*
X93621370Y-48390536D01*
X93671132Y-48582046D01*
X93777211Y-48781970D01*
X93945192Y-48958721D01*
X94135690Y-49077630D01*
X94268666Y-49108000D01*
X94415947Y-49137189D01*
X94610073Y-49210809D01*
X94692419Y-49250875D01*
X94811745Y-49307717D01*
X94933724Y-49347225D01*
X95084147Y-49372489D01*
X95288803Y-49386599D01*
X95573481Y-49392643D01*
X95885000Y-49393750D01*
X96307598Y-49389294D01*
X96631924Y-49374232D01*
X96886450Y-49346021D01*
X97099649Y-49302116D01*
X97186750Y-49277461D01*
X97728216Y-49048606D01*
X98241390Y-48707351D01*
X98710743Y-48267656D01*
X99120747Y-47743477D01*
X99377402Y-47308260D01*
X99476474Y-47140668D01*
X99596335Y-47000094D01*
X99765498Y-46859829D01*
X100012475Y-46693162D01*
X100079123Y-46650905D01*
X100492784Y-46412087D01*
X100871884Y-46247482D01*
X101241287Y-46155254D01*
X101625859Y-46133566D01*
X102050465Y-46180580D01*
X102539970Y-46294460D01*
X103002562Y-46434927D01*
X103370061Y-46546450D01*
X103700014Y-46631384D01*
X103962959Y-46682734D01*
X104097937Y-46695000D01*
X104271946Y-46702446D01*
X104378398Y-46721354D01*
X104394000Y-46733736D01*
X104366234Y-46805436D01*
X104293506Y-46955820D01*
X104193502Y-47148645D01*
X104002516Y-47460581D01*
X103756608Y-47795967D01*
X103485174Y-48119433D01*
X103217608Y-48395608D01*
X103014624Y-48567155D01*
X102872606Y-48675621D01*
X102793277Y-48768390D01*
X102757814Y-48887828D01*
X102747396Y-49076301D01*
X102746126Y-49171500D01*
X102696917Y-49695493D01*
X102555211Y-50220151D01*
X102376646Y-50649039D01*
X102200765Y-50974737D01*
X101983461Y-51307223D01*
X101750083Y-51612328D01*
X101525978Y-51855881D01*
X101404076Y-51960054D01*
X101162569Y-52081617D01*
X100852389Y-52137046D01*
X100466340Y-52125506D01*
X99997224Y-52046163D01*
X99437844Y-51898181D01*
X98781004Y-51680727D01*
X98679000Y-51644017D01*
X98277299Y-51499031D01*
X97972502Y-51394696D01*
X97742097Y-51328431D01*
X97563572Y-51297655D01*
X97414413Y-51299787D01*
X97272110Y-51332247D01*
X97114151Y-51392454D01*
X96982601Y-51449555D01*
X96756484Y-51543800D01*
X96580657Y-51593878D01*
X96419629Y-51597216D01*
X96237906Y-51551245D01*
X95999996Y-51453392D01*
X95806109Y-51364332D01*
X95567467Y-51269792D01*
X95383973Y-51229553D01*
X95315595Y-51234584D01*
X95222512Y-51291362D01*
X95059483Y-51417446D01*
X94848709Y-51594747D01*
X94612392Y-51805177D01*
X94589247Y-51826392D01*
X94152853Y-52208341D01*
X93777674Y-52493541D01*
X93452090Y-52689279D01*
X93164478Y-52802845D01*
X92976795Y-52837605D01*
X92785133Y-52841369D01*
X92607128Y-52804865D01*
X92393971Y-52715459D01*
X92277466Y-52656625D01*
X91912999Y-52419571D01*
X91533634Y-52084668D01*
X91445822Y-51994689D01*
X91284029Y-51810485D01*
X91089152Y-51566787D01*
X90872326Y-51279958D01*
X90644688Y-50966360D01*
X90417375Y-50642355D01*
X90201522Y-50324307D01*
X90008267Y-50028577D01*
X89848745Y-49771528D01*
X89734094Y-49569523D01*
X89675448Y-49438923D01*
X89677432Y-49396429D01*
X89760624Y-49388461D01*
X89952722Y-49379396D01*
X90235642Y-49369791D01*
X90591301Y-49360201D01*
X91001614Y-49351184D01*
X91356489Y-49344766D01*
X91862324Y-49335418D01*
X92256804Y-49325185D01*
X92555570Y-49312886D01*
X92774268Y-49297341D01*
X92928541Y-49277370D01*
X93034032Y-49251791D01*
X93106384Y-49219425D01*
X93118614Y-49211799D01*
X93244772Y-49072273D01*
X93279551Y-48905443D01*
X93216400Y-48755421D01*
X93190118Y-48730210D01*
X93094021Y-48696718D01*
X92898965Y-48660978D01*
X92632832Y-48627161D01*
X92323501Y-48599442D01*
X92309753Y-48598457D01*
X91804231Y-48548436D01*
X91395280Y-48472536D01*
X91053657Y-48362190D01*
X90750118Y-48208829D01*
X90567869Y-48088132D01*
X90294821Y-47892043D01*
X90089535Y-48065262D01*
X89919331Y-48186290D01*
X89688670Y-48321331D01*
X89432182Y-48453436D01*
X89184493Y-48565656D01*
X88980230Y-48641041D01*
X88867323Y-48663500D01*
X88763797Y-48636321D01*
X88572420Y-48561870D01*
X88318372Y-48450774D01*
X88026835Y-48313658D01*
X87954799Y-48278411D01*
X87643222Y-48123466D01*
X87429226Y-48011164D01*
X87296003Y-47928971D01*
X87226747Y-47864352D01*
X87204651Y-47804774D01*
X87212907Y-47737702D01*
X87215513Y-47727061D01*
X87299022Y-47511960D01*
X87444569Y-47247008D01*
X87627174Y-46974854D01*
X87741634Y-46828822D01*
X87922189Y-46613394D01*
X88871469Y-46844707D01*
X89214790Y-46925703D01*
X89526453Y-46994317D01*
X89780111Y-47045110D01*
X89949416Y-47072648D01*
X89992387Y-47076010D01*
X90253942Y-47029642D01*
X90456977Y-46903057D01*
X90543997Y-46780259D01*
X90607930Y-46567806D01*
X90569234Y-46396037D01*
X90421837Y-46226829D01*
X90229175Y-46055166D01*
X90342462Y-45860557D01*
X90491162Y-45669740D01*
X90728100Y-45440040D01*
X91028141Y-45189804D01*
X91366149Y-44937379D01*
X91716987Y-44701112D01*
X92055521Y-44499350D01*
X92356613Y-44350440D01*
X92472546Y-44305781D01*
X92827216Y-44224976D01*
X93241006Y-44191535D01*
X93661175Y-44205626D01*
D11*
G04 #@! TO.C,SW5*
X62980000Y-46315000D02*
X62980000Y-43565000D01*
X62980000Y-56565000D02*
X62980000Y-53815000D01*
X55980000Y-57065000D02*
X62480000Y-57065000D01*
X55980000Y-43065000D02*
X62480000Y-43065000D01*
X55480000Y-46315000D02*
X55480000Y-43565000D01*
X55480000Y-56565000D02*
X55480000Y-53815000D01*
X55980000Y-43065000D02*
G75*
G03X55480000Y-43565000I0J-500000D01*
G01*
X62980000Y-43565000D02*
G75*
G03X62480000Y-43065000I-500000J0D01*
G01*
X62480000Y-57065000D02*
G75*
G03X62980000Y-56565000I0J500000D01*
G01*
X55480000Y-56565000D02*
G75*
G03X55980000Y-57065000I500000J0D01*
G01*
X60500000Y-57115000D02*
X57960000Y-57115000D01*
X62980000Y-53875000D02*
X62980000Y-46255000D01*
X57960000Y-43015000D02*
X60500000Y-43015000D01*
X55480000Y-46255000D02*
X55480000Y-53875000D01*
D16*
G04 #@! TO.C,SW1*
X78603553Y-135950000D02*
G75*
G03X78603553Y-135950000I-353553J0D01*
G01*
X74103553Y-135950000D02*
G75*
G03X74103553Y-135950000I-353553J0D01*
G01*
X74103553Y-140450000D02*
G75*
G03X74103553Y-140450000I-353553J0D01*
G01*
X78603553Y-140450000D02*
G75*
G03X78603553Y-140450000I-353553J0D01*
G01*
X73000000Y-135700000D02*
X72000000Y-135700000D01*
X72000000Y-135700000D02*
X72000000Y-136200000D01*
X72000000Y-136200000D02*
X73000000Y-136200000D01*
X79000000Y-136200000D02*
X80000000Y-136200000D01*
X80000000Y-136200000D02*
X80000000Y-135700000D01*
X80000000Y-135700000D02*
X79000000Y-135700000D01*
X79000000Y-140700000D02*
X80000000Y-140700000D01*
X80000000Y-140700000D02*
X80000000Y-140200000D01*
X80000000Y-140200000D02*
X79000000Y-140200000D01*
X73000000Y-140700000D02*
X72000000Y-140700000D01*
X72000000Y-140700000D02*
X72000000Y-140200000D01*
X73000000Y-140200000D02*
X72000000Y-140200000D01*
X73000000Y-141200000D02*
X73000000Y-135200000D01*
X73000000Y-135200000D02*
X79000000Y-135200000D01*
X79000000Y-135200000D02*
X79000000Y-141200000D01*
X77749200Y-138200000D02*
G75*
G03X77749200Y-138200000I-1749200J0D01*
G01*
X79000000Y-141200000D02*
X73000000Y-141200000D01*
G04 #@! TO.C,SW2*
X126603553Y-135950000D02*
G75*
G03X126603553Y-135950000I-353553J0D01*
G01*
X122103553Y-135950000D02*
G75*
G03X122103553Y-135950000I-353553J0D01*
G01*
X122103553Y-140450000D02*
G75*
G03X122103553Y-140450000I-353553J0D01*
G01*
X126603553Y-140450000D02*
G75*
G03X126603553Y-140450000I-353553J0D01*
G01*
X121000000Y-135700000D02*
X120000000Y-135700000D01*
X120000000Y-135700000D02*
X120000000Y-136200000D01*
X120000000Y-136200000D02*
X121000000Y-136200000D01*
X127000000Y-136200000D02*
X128000000Y-136200000D01*
X128000000Y-136200000D02*
X128000000Y-135700000D01*
X128000000Y-135700000D02*
X127000000Y-135700000D01*
X127000000Y-140700000D02*
X128000000Y-140700000D01*
X128000000Y-140700000D02*
X128000000Y-140200000D01*
X128000000Y-140200000D02*
X127000000Y-140200000D01*
X121000000Y-140700000D02*
X120000000Y-140700000D01*
X120000000Y-140700000D02*
X120000000Y-140200000D01*
X121000000Y-140200000D02*
X120000000Y-140200000D01*
X121000000Y-141200000D02*
X121000000Y-135200000D01*
X121000000Y-135200000D02*
X127000000Y-135200000D01*
X127000000Y-135200000D02*
X127000000Y-141200000D01*
X125749200Y-138200000D02*
G75*
G03X125749200Y-138200000I-1749200J0D01*
G01*
X127000000Y-141200000D02*
X121000000Y-141200000D01*
D11*
G04 #@! TO.C,S1*
X145400000Y-36825000D02*
X143400000Y-36825000D01*
X145400000Y-36825000D02*
X145400000Y-38825000D01*
X145400000Y-56025000D02*
X145400000Y-54125000D01*
X145400000Y-56025000D02*
X143400000Y-56025000D01*
X118600000Y-56025000D02*
X120600000Y-56025000D01*
X118600000Y-56025000D02*
X118600000Y-53925000D01*
X118600000Y-36825000D02*
X118600000Y-38825000D01*
X118600000Y-36825000D02*
X120600000Y-36825000D01*
X124837200Y-47985000D02*
X124837200Y-51803000D01*
X122337200Y-50990200D02*
X124242200Y-50990200D01*
X124242200Y-50990200D02*
X124242200Y-51803000D01*
X124242200Y-51803000D02*
X139757800Y-51803000D01*
X139757800Y-51803000D02*
X139757800Y-50990200D01*
X139757800Y-50990200D02*
X141662800Y-50990200D01*
X139162800Y-51803000D02*
X139162800Y-47985000D01*
X141205600Y-50990200D02*
X141205600Y-52361800D01*
X139757800Y-51701400D02*
X140392800Y-51701400D01*
X140392800Y-50990200D02*
X140392800Y-52361800D01*
X124242200Y-51701400D02*
X123607200Y-51701400D01*
X122794400Y-50990200D02*
X122794400Y-52361800D01*
X123607200Y-50990200D02*
X123607200Y-52361800D01*
X121448200Y-53174600D02*
X121448200Y-52361800D01*
X121448200Y-52361800D02*
X124089800Y-52361800D01*
X124089800Y-52361800D02*
X124089800Y-53174600D01*
X121448200Y-53174600D02*
X142551800Y-53174600D01*
X142551800Y-53174600D02*
X142551800Y-52361800D01*
X142551800Y-52361800D02*
X139910200Y-52361800D01*
X139910200Y-52361800D02*
X139910200Y-53174600D01*
X124837200Y-47985000D02*
X139162800Y-47985000D01*
D17*
G04 #@! TO.C,JS2*
X105303101Y-139115800D02*
X99999800Y-144419101D01*
X99999800Y-144419101D02*
X94696499Y-139115800D01*
X94696499Y-139115800D02*
X99999800Y-133812499D01*
X99999800Y-133812499D02*
X105303101Y-139115800D01*
D11*
G04 #@! TO.C,P13*
X59100000Y-74000000D02*
G75*
G03X59100000Y-74000000I-3100000J0D01*
G01*
G04 #@! TO.C,P14*
X147100000Y-74000000D02*
G75*
G03X147100000Y-74000000I-3100000J0D01*
G01*
G04 #@! TO.C,P16*
X147100000Y-134000000D02*
G75*
G03X147100000Y-134000000I-3100000J0D01*
G01*
D18*
G04 #@! TO.C,LED1*
X125515000Y-61146000D02*
X127800000Y-61146000D01*
X125515000Y-59676000D02*
X125515000Y-61146000D01*
X127800000Y-59676000D02*
X125515000Y-59676000D01*
G04 #@! TO.C,LED2*
X132800000Y-59676000D02*
X130515000Y-59676000D01*
X130515000Y-59676000D02*
X130515000Y-61146000D01*
X130515000Y-61146000D02*
X132800000Y-61146000D01*
G04 #@! TO.C,LED3*
X137800000Y-59676000D02*
X135515000Y-59676000D01*
X135515000Y-59676000D02*
X135515000Y-61146000D01*
X135515000Y-61146000D02*
X137800000Y-61146000D01*
G04 #@! TO.C,SP1*
D11*
X87130095Y-141558761D02*
X87272952Y-141606380D01*
X87511047Y-141606380D01*
X87606285Y-141558761D01*
X87653904Y-141511142D01*
X87701523Y-141415904D01*
X87701523Y-141320666D01*
X87653904Y-141225428D01*
X87606285Y-141177809D01*
X87511047Y-141130190D01*
X87320571Y-141082571D01*
X87225333Y-141034952D01*
X87177714Y-140987333D01*
X87130095Y-140892095D01*
X87130095Y-140796857D01*
X87177714Y-140701619D01*
X87225333Y-140654000D01*
X87320571Y-140606380D01*
X87558666Y-140606380D01*
X87701523Y-140654000D01*
X88130095Y-141606380D02*
X88130095Y-140606380D01*
X88511047Y-140606380D01*
X88606285Y-140654000D01*
X88653904Y-140701619D01*
X88701523Y-140796857D01*
X88701523Y-140939714D01*
X88653904Y-141034952D01*
X88606285Y-141082571D01*
X88511047Y-141130190D01*
X88130095Y-141130190D01*
X89653904Y-141606380D02*
X89082476Y-141606380D01*
X89368190Y-141606380D02*
X89368190Y-140606380D01*
X89272952Y-140749238D01*
X89177714Y-140844476D01*
X89082476Y-140892095D01*
G04 #@! TO.C,SW5*
X54884761Y-51398333D02*
X54932380Y-51255476D01*
X54932380Y-51017380D01*
X54884761Y-50922142D01*
X54837142Y-50874523D01*
X54741904Y-50826904D01*
X54646666Y-50826904D01*
X54551428Y-50874523D01*
X54503809Y-50922142D01*
X54456190Y-51017380D01*
X54408571Y-51207857D01*
X54360952Y-51303095D01*
X54313333Y-51350714D01*
X54218095Y-51398333D01*
X54122857Y-51398333D01*
X54027619Y-51350714D01*
X53980000Y-51303095D01*
X53932380Y-51207857D01*
X53932380Y-50969761D01*
X53980000Y-50826904D01*
X53932380Y-50493571D02*
X54932380Y-50255476D01*
X54218095Y-50065000D01*
X54932380Y-49874523D01*
X53932380Y-49636428D01*
X53932380Y-48779285D02*
X53932380Y-49255476D01*
X54408571Y-49303095D01*
X54360952Y-49255476D01*
X54313333Y-49160238D01*
X54313333Y-48922142D01*
X54360952Y-48826904D01*
X54408571Y-48779285D01*
X54503809Y-48731666D01*
X54741904Y-48731666D01*
X54837142Y-48779285D01*
X54884761Y-48826904D01*
X54932380Y-48922142D01*
X54932380Y-49160238D01*
X54884761Y-49255476D01*
X54837142Y-49303095D01*
G04 #@! TO.C,SW1*
X74660666Y-142904761D02*
X74803523Y-142952380D01*
X75041619Y-142952380D01*
X75136857Y-142904761D01*
X75184476Y-142857142D01*
X75232095Y-142761904D01*
X75232095Y-142666666D01*
X75184476Y-142571428D01*
X75136857Y-142523809D01*
X75041619Y-142476190D01*
X74851142Y-142428571D01*
X74755904Y-142380952D01*
X74708285Y-142333333D01*
X74660666Y-142238095D01*
X74660666Y-142142857D01*
X74708285Y-142047619D01*
X74755904Y-142000000D01*
X74851142Y-141952380D01*
X75089238Y-141952380D01*
X75232095Y-142000000D01*
X75565428Y-141952380D02*
X75803523Y-142952380D01*
X75994000Y-142238095D01*
X76184476Y-142952380D01*
X76422571Y-141952380D01*
X77327333Y-142952380D02*
X76755904Y-142952380D01*
X77041619Y-142952380D02*
X77041619Y-141952380D01*
X76946380Y-142095238D01*
X76851142Y-142190476D01*
X76755904Y-142238095D01*
G04 #@! TO.C,SW2*
X122539666Y-142904761D02*
X122682523Y-142952380D01*
X122920619Y-142952380D01*
X123015857Y-142904761D01*
X123063476Y-142857142D01*
X123111095Y-142761904D01*
X123111095Y-142666666D01*
X123063476Y-142571428D01*
X123015857Y-142523809D01*
X122920619Y-142476190D01*
X122730142Y-142428571D01*
X122634904Y-142380952D01*
X122587285Y-142333333D01*
X122539666Y-142238095D01*
X122539666Y-142142857D01*
X122587285Y-142047619D01*
X122634904Y-142000000D01*
X122730142Y-141952380D01*
X122968238Y-141952380D01*
X123111095Y-142000000D01*
X123444428Y-141952380D02*
X123682523Y-142952380D01*
X123873000Y-142238095D01*
X124063476Y-142952380D01*
X124301571Y-141952380D01*
X124634904Y-142047619D02*
X124682523Y-142000000D01*
X124777761Y-141952380D01*
X125015857Y-141952380D01*
X125111095Y-142000000D01*
X125158714Y-142047619D01*
X125206333Y-142142857D01*
X125206333Y-142238095D01*
X125158714Y-142380952D01*
X124587285Y-142952380D01*
X125206333Y-142952380D01*
G04 #@! TO.C,S1*
X131238095Y-49413761D02*
X131380952Y-49461380D01*
X131619047Y-49461380D01*
X131714285Y-49413761D01*
X131761904Y-49366142D01*
X131809523Y-49270904D01*
X131809523Y-49175666D01*
X131761904Y-49080428D01*
X131714285Y-49032809D01*
X131619047Y-48985190D01*
X131428571Y-48937571D01*
X131333333Y-48889952D01*
X131285714Y-48842333D01*
X131238095Y-48747095D01*
X131238095Y-48651857D01*
X131285714Y-48556619D01*
X131333333Y-48509000D01*
X131428571Y-48461380D01*
X131666666Y-48461380D01*
X131809523Y-48509000D01*
X132761904Y-49461380D02*
X132190476Y-49461380D01*
X132476190Y-49461380D02*
X132476190Y-48461380D01*
X132380952Y-48604238D01*
X132285714Y-48699476D01*
X132190476Y-48747095D01*
G04 #@! TO.C,JS2*
X103040476Y-143252380D02*
X103040476Y-143966666D01*
X102992857Y-144109523D01*
X102897619Y-144204761D01*
X102754761Y-144252380D01*
X102659523Y-144252380D01*
X103469047Y-144204761D02*
X103611904Y-144252380D01*
X103850000Y-144252380D01*
X103945238Y-144204761D01*
X103992857Y-144157142D01*
X104040476Y-144061904D01*
X104040476Y-143966666D01*
X103992857Y-143871428D01*
X103945238Y-143823809D01*
X103850000Y-143776190D01*
X103659523Y-143728571D01*
X103564285Y-143680952D01*
X103516666Y-143633333D01*
X103469047Y-143538095D01*
X103469047Y-143442857D01*
X103516666Y-143347619D01*
X103564285Y-143300000D01*
X103659523Y-143252380D01*
X103897619Y-143252380D01*
X104040476Y-143300000D01*
X104421428Y-143347619D02*
X104469047Y-143300000D01*
X104564285Y-143252380D01*
X104802380Y-143252380D01*
X104897619Y-143300000D01*
X104945238Y-143347619D01*
X104992857Y-143442857D01*
X104992857Y-143538095D01*
X104945238Y-143680952D01*
X104373809Y-144252380D01*
X104992857Y-144252380D01*
X99831441Y-143829845D02*
X100538548Y-143122738D01*
X99865112Y-143796173D02*
X99764097Y-143762502D01*
X99629410Y-143627815D01*
X99595738Y-143526799D01*
X99595738Y-143459456D01*
X99629410Y-143358441D01*
X99831441Y-143156410D01*
X99932456Y-143122738D01*
X99999799Y-143122738D01*
X100100815Y-143156410D01*
X100235502Y-143291097D01*
X100269174Y-143392112D01*
X95639307Y-139570368D02*
X95538292Y-139536696D01*
X95403605Y-139402009D01*
X95369933Y-139300994D01*
X95369933Y-139233651D01*
X95403605Y-139132635D01*
X95605636Y-138930605D01*
X95706651Y-138896933D01*
X95773994Y-138896933D01*
X95875010Y-138930605D01*
X96009697Y-139065292D01*
X96043368Y-139166307D01*
X103771036Y-139284158D02*
X104478143Y-138577051D01*
X104208769Y-138846425D02*
X104309784Y-138880097D01*
X104444471Y-139014784D01*
X104478143Y-139115800D01*
X104478143Y-139183143D01*
X104444471Y-139284158D01*
X104242440Y-139486189D01*
X104141425Y-139519861D01*
X104074082Y-139519861D01*
X103973066Y-139486189D01*
X103838379Y-139351502D01*
X103804708Y-139250487D01*
X99831441Y-135344563D02*
X100201830Y-134974174D01*
X100235502Y-134873159D01*
X100201830Y-134772143D01*
X100067143Y-134637456D01*
X99966128Y-134603784D01*
X99865112Y-135310891D02*
X99764097Y-135277220D01*
X99595738Y-135108861D01*
X99562067Y-135007846D01*
X99595738Y-134906830D01*
X99663082Y-134839487D01*
X99764097Y-134805815D01*
X99865112Y-134839487D01*
X100033471Y-135007846D01*
X100134487Y-135041517D01*
G04 #@! TO.C,P1*
X141298904Y-65527380D02*
X141298904Y-64527380D01*
X141679857Y-64527380D01*
X141775095Y-64575000D01*
X141822714Y-64622619D01*
X141870333Y-64717857D01*
X141870333Y-64860714D01*
X141822714Y-64955952D01*
X141775095Y-65003571D01*
X141679857Y-65051190D01*
X141298904Y-65051190D01*
X142822714Y-65527380D02*
X142251285Y-65527380D01*
X142537000Y-65527380D02*
X142537000Y-64527380D01*
X142441761Y-64670238D01*
X142346523Y-64765476D01*
X142251285Y-64813095D01*
G04 #@! TO.C,LED1*
X125880952Y-59433380D02*
X125404761Y-59433380D01*
X125404761Y-58433380D01*
X126214285Y-58909571D02*
X126547619Y-58909571D01*
X126690476Y-59433380D02*
X126214285Y-59433380D01*
X126214285Y-58433380D01*
X126690476Y-58433380D01*
X127119047Y-59433380D02*
X127119047Y-58433380D01*
X127357142Y-58433380D01*
X127500000Y-58481000D01*
X127595238Y-58576238D01*
X127642857Y-58671476D01*
X127690476Y-58861952D01*
X127690476Y-59004809D01*
X127642857Y-59195285D01*
X127595238Y-59290523D01*
X127500000Y-59385761D01*
X127357142Y-59433380D01*
X127119047Y-59433380D01*
X128642857Y-59433380D02*
X128071428Y-59433380D01*
X128357142Y-59433380D02*
X128357142Y-58433380D01*
X128261904Y-58576238D01*
X128166666Y-58671476D01*
X128071428Y-58719095D01*
G04 #@! TO.C,LED2*
X130880952Y-59433380D02*
X130404761Y-59433380D01*
X130404761Y-58433380D01*
X131214285Y-58909571D02*
X131547619Y-58909571D01*
X131690476Y-59433380D02*
X131214285Y-59433380D01*
X131214285Y-58433380D01*
X131690476Y-58433380D01*
X132119047Y-59433380D02*
X132119047Y-58433380D01*
X132357142Y-58433380D01*
X132500000Y-58481000D01*
X132595238Y-58576238D01*
X132642857Y-58671476D01*
X132690476Y-58861952D01*
X132690476Y-59004809D01*
X132642857Y-59195285D01*
X132595238Y-59290523D01*
X132500000Y-59385761D01*
X132357142Y-59433380D01*
X132119047Y-59433380D01*
X133071428Y-58528619D02*
X133119047Y-58481000D01*
X133214285Y-58433380D01*
X133452380Y-58433380D01*
X133547619Y-58481000D01*
X133595238Y-58528619D01*
X133642857Y-58623857D01*
X133642857Y-58719095D01*
X133595238Y-58861952D01*
X133023809Y-59433380D01*
X133642857Y-59433380D01*
G04 #@! TO.C,LED3*
X135880952Y-59433380D02*
X135404761Y-59433380D01*
X135404761Y-58433380D01*
X136214285Y-58909571D02*
X136547619Y-58909571D01*
X136690476Y-59433380D02*
X136214285Y-59433380D01*
X136214285Y-58433380D01*
X136690476Y-58433380D01*
X137119047Y-59433380D02*
X137119047Y-58433380D01*
X137357142Y-58433380D01*
X137500000Y-58481000D01*
X137595238Y-58576238D01*
X137642857Y-58671476D01*
X137690476Y-58861952D01*
X137690476Y-59004809D01*
X137642857Y-59195285D01*
X137595238Y-59290523D01*
X137500000Y-59385761D01*
X137357142Y-59433380D01*
X137119047Y-59433380D01*
X138023809Y-58433380D02*
X138642857Y-58433380D01*
X138309523Y-58814333D01*
X138452380Y-58814333D01*
X138547619Y-58861952D01*
X138595238Y-58909571D01*
X138642857Y-59004809D01*
X138642857Y-59242904D01*
X138595238Y-59338142D01*
X138547619Y-59385761D01*
X138452380Y-59433380D01*
X138166666Y-59433380D01*
X138071428Y-59385761D01*
X138023809Y-59338142D01*
G04 #@! TD*
M02*
