G04 #@! TF.GenerationSoftware,KiCad,Pcbnew,5.0.2-bee76a0~70~ubuntu18.04.1*
G04 #@! TF.CreationDate,2020-04-30T09:20:18+02:00*
G04 #@! TF.ProjectId,OpenDropV4,4f70656e-4472-46f7-9056-342e6b696361,rev?*
G04 #@! TF.SameCoordinates,Original*
G04 #@! TF.FileFunction,Paste,Top*
G04 #@! TF.FilePolarity,Positive*
%FSLAX46Y46*%
G04 Gerber Fmt 4.6, Leading zero omitted, Abs format (unit mm)*
G04 Created by KiCad (PCBNEW 5.0.2-bee76a0~70~ubuntu18.04.1) date Do 30 Apr 2020 09:20:18 CEST*
%MOMM*%
%LPD*%
G01*
G04 APERTURE LIST*
%ADD10R,2.100000X1.400000*%
%ADD11C,1.800000*%
%ADD12C,0.100000*%
%ADD13C,1.000000*%
%ADD14C,0.875000*%
G04 APERTURE END LIST*
D10*
G04 #@! TO.C,SW1*
X71000000Y-140450000D03*
X71000000Y-135950000D03*
X81000000Y-140450000D03*
X81000000Y-135950000D03*
G04 #@! TD*
G04 #@! TO.C,SW2*
X119000000Y-140450000D03*
X119000000Y-135950000D03*
X129000000Y-140450000D03*
X129000000Y-135950000D03*
G04 #@! TD*
D11*
G04 #@! TO.C,JS2*
X102863582Y-136252018D03*
D12*
G36*
X101520079Y-136181307D02*
X102792871Y-134908515D01*
X104207085Y-136322729D01*
X102934293Y-137595521D01*
X101520079Y-136181307D01*
X101520079Y-136181307D01*
G37*
D11*
X97136018Y-141979582D03*
D12*
G36*
X95792515Y-141908871D02*
X97065307Y-140636079D01*
X98479521Y-142050293D01*
X97206729Y-143323085D01*
X95792515Y-141908871D01*
X95792515Y-141908871D01*
G37*
D13*
X98479520Y-135580266D03*
D12*
G36*
X97648670Y-135456522D02*
X98355776Y-134749416D01*
X99310370Y-135704010D01*
X98603264Y-136411116D01*
X97648670Y-135456522D01*
X97648670Y-135456522D01*
G37*
D13*
X97471893Y-136587893D03*
D12*
G36*
X96641043Y-136464149D02*
X97348149Y-135757043D01*
X98302743Y-136711637D01*
X97595637Y-137418743D01*
X96641043Y-136464149D01*
X96641043Y-136464149D01*
G37*
D13*
X96464266Y-137595520D03*
D12*
G36*
X95633416Y-137471776D02*
X96340522Y-136764670D01*
X97295116Y-137719264D01*
X96588010Y-138426370D01*
X95633416Y-137471776D01*
X95633416Y-137471776D01*
G37*
D13*
X103535334Y-140636080D03*
D12*
G36*
X102704484Y-140512336D02*
X103411590Y-139805230D01*
X104366184Y-140759824D01*
X103659078Y-141466930D01*
X102704484Y-140512336D01*
X102704484Y-140512336D01*
G37*
D13*
X102527707Y-141643707D03*
D12*
G36*
X101696857Y-141519963D02*
X102403963Y-140812857D01*
X103358557Y-141767451D01*
X102651451Y-142474557D01*
X101696857Y-141519963D01*
X101696857Y-141519963D01*
G37*
D13*
X101520080Y-142651334D03*
D12*
G36*
X100689230Y-142527590D02*
X101396336Y-141820484D01*
X102350930Y-142775078D01*
X101643824Y-143482184D01*
X100689230Y-142527590D01*
X100689230Y-142527590D01*
G37*
G04 #@! TD*
G04 #@! TO.C,LED1*
G36*
X128027691Y-59937053D02*
X128048926Y-59940203D01*
X128069750Y-59945419D01*
X128089962Y-59952651D01*
X128109368Y-59961830D01*
X128127781Y-59972866D01*
X128145024Y-59985654D01*
X128160930Y-60000070D01*
X128175346Y-60015976D01*
X128188134Y-60033219D01*
X128199170Y-60051632D01*
X128208349Y-60071038D01*
X128215581Y-60091250D01*
X128220797Y-60112074D01*
X128223947Y-60133309D01*
X128225000Y-60154750D01*
X128225000Y-60667250D01*
X128223947Y-60688691D01*
X128220797Y-60709926D01*
X128215581Y-60730750D01*
X128208349Y-60750962D01*
X128199170Y-60770368D01*
X128188134Y-60788781D01*
X128175346Y-60806024D01*
X128160930Y-60821930D01*
X128145024Y-60836346D01*
X128127781Y-60849134D01*
X128109368Y-60860170D01*
X128089962Y-60869349D01*
X128069750Y-60876581D01*
X128048926Y-60881797D01*
X128027691Y-60884947D01*
X128006250Y-60886000D01*
X127568750Y-60886000D01*
X127547309Y-60884947D01*
X127526074Y-60881797D01*
X127505250Y-60876581D01*
X127485038Y-60869349D01*
X127465632Y-60860170D01*
X127447219Y-60849134D01*
X127429976Y-60836346D01*
X127414070Y-60821930D01*
X127399654Y-60806024D01*
X127386866Y-60788781D01*
X127375830Y-60770368D01*
X127366651Y-60750962D01*
X127359419Y-60730750D01*
X127354203Y-60709926D01*
X127351053Y-60688691D01*
X127350000Y-60667250D01*
X127350000Y-60154750D01*
X127351053Y-60133309D01*
X127354203Y-60112074D01*
X127359419Y-60091250D01*
X127366651Y-60071038D01*
X127375830Y-60051632D01*
X127386866Y-60033219D01*
X127399654Y-60015976D01*
X127414070Y-60000070D01*
X127429976Y-59985654D01*
X127447219Y-59972866D01*
X127465632Y-59961830D01*
X127485038Y-59952651D01*
X127505250Y-59945419D01*
X127526074Y-59940203D01*
X127547309Y-59937053D01*
X127568750Y-59936000D01*
X128006250Y-59936000D01*
X128027691Y-59937053D01*
X128027691Y-59937053D01*
G37*
D14*
X127787500Y-60411000D03*
D12*
G36*
X126452691Y-59937053D02*
X126473926Y-59940203D01*
X126494750Y-59945419D01*
X126514962Y-59952651D01*
X126534368Y-59961830D01*
X126552781Y-59972866D01*
X126570024Y-59985654D01*
X126585930Y-60000070D01*
X126600346Y-60015976D01*
X126613134Y-60033219D01*
X126624170Y-60051632D01*
X126633349Y-60071038D01*
X126640581Y-60091250D01*
X126645797Y-60112074D01*
X126648947Y-60133309D01*
X126650000Y-60154750D01*
X126650000Y-60667250D01*
X126648947Y-60688691D01*
X126645797Y-60709926D01*
X126640581Y-60730750D01*
X126633349Y-60750962D01*
X126624170Y-60770368D01*
X126613134Y-60788781D01*
X126600346Y-60806024D01*
X126585930Y-60821930D01*
X126570024Y-60836346D01*
X126552781Y-60849134D01*
X126534368Y-60860170D01*
X126514962Y-60869349D01*
X126494750Y-60876581D01*
X126473926Y-60881797D01*
X126452691Y-60884947D01*
X126431250Y-60886000D01*
X125993750Y-60886000D01*
X125972309Y-60884947D01*
X125951074Y-60881797D01*
X125930250Y-60876581D01*
X125910038Y-60869349D01*
X125890632Y-60860170D01*
X125872219Y-60849134D01*
X125854976Y-60836346D01*
X125839070Y-60821930D01*
X125824654Y-60806024D01*
X125811866Y-60788781D01*
X125800830Y-60770368D01*
X125791651Y-60750962D01*
X125784419Y-60730750D01*
X125779203Y-60709926D01*
X125776053Y-60688691D01*
X125775000Y-60667250D01*
X125775000Y-60154750D01*
X125776053Y-60133309D01*
X125779203Y-60112074D01*
X125784419Y-60091250D01*
X125791651Y-60071038D01*
X125800830Y-60051632D01*
X125811866Y-60033219D01*
X125824654Y-60015976D01*
X125839070Y-60000070D01*
X125854976Y-59985654D01*
X125872219Y-59972866D01*
X125890632Y-59961830D01*
X125910038Y-59952651D01*
X125930250Y-59945419D01*
X125951074Y-59940203D01*
X125972309Y-59937053D01*
X125993750Y-59936000D01*
X126431250Y-59936000D01*
X126452691Y-59937053D01*
X126452691Y-59937053D01*
G37*
D14*
X126212500Y-60411000D03*
G04 #@! TD*
D12*
G04 #@! TO.C,LED2*
G36*
X131452691Y-59937053D02*
X131473926Y-59940203D01*
X131494750Y-59945419D01*
X131514962Y-59952651D01*
X131534368Y-59961830D01*
X131552781Y-59972866D01*
X131570024Y-59985654D01*
X131585930Y-60000070D01*
X131600346Y-60015976D01*
X131613134Y-60033219D01*
X131624170Y-60051632D01*
X131633349Y-60071038D01*
X131640581Y-60091250D01*
X131645797Y-60112074D01*
X131648947Y-60133309D01*
X131650000Y-60154750D01*
X131650000Y-60667250D01*
X131648947Y-60688691D01*
X131645797Y-60709926D01*
X131640581Y-60730750D01*
X131633349Y-60750962D01*
X131624170Y-60770368D01*
X131613134Y-60788781D01*
X131600346Y-60806024D01*
X131585930Y-60821930D01*
X131570024Y-60836346D01*
X131552781Y-60849134D01*
X131534368Y-60860170D01*
X131514962Y-60869349D01*
X131494750Y-60876581D01*
X131473926Y-60881797D01*
X131452691Y-60884947D01*
X131431250Y-60886000D01*
X130993750Y-60886000D01*
X130972309Y-60884947D01*
X130951074Y-60881797D01*
X130930250Y-60876581D01*
X130910038Y-60869349D01*
X130890632Y-60860170D01*
X130872219Y-60849134D01*
X130854976Y-60836346D01*
X130839070Y-60821930D01*
X130824654Y-60806024D01*
X130811866Y-60788781D01*
X130800830Y-60770368D01*
X130791651Y-60750962D01*
X130784419Y-60730750D01*
X130779203Y-60709926D01*
X130776053Y-60688691D01*
X130775000Y-60667250D01*
X130775000Y-60154750D01*
X130776053Y-60133309D01*
X130779203Y-60112074D01*
X130784419Y-60091250D01*
X130791651Y-60071038D01*
X130800830Y-60051632D01*
X130811866Y-60033219D01*
X130824654Y-60015976D01*
X130839070Y-60000070D01*
X130854976Y-59985654D01*
X130872219Y-59972866D01*
X130890632Y-59961830D01*
X130910038Y-59952651D01*
X130930250Y-59945419D01*
X130951074Y-59940203D01*
X130972309Y-59937053D01*
X130993750Y-59936000D01*
X131431250Y-59936000D01*
X131452691Y-59937053D01*
X131452691Y-59937053D01*
G37*
D14*
X131212500Y-60411000D03*
D12*
G36*
X133027691Y-59937053D02*
X133048926Y-59940203D01*
X133069750Y-59945419D01*
X133089962Y-59952651D01*
X133109368Y-59961830D01*
X133127781Y-59972866D01*
X133145024Y-59985654D01*
X133160930Y-60000070D01*
X133175346Y-60015976D01*
X133188134Y-60033219D01*
X133199170Y-60051632D01*
X133208349Y-60071038D01*
X133215581Y-60091250D01*
X133220797Y-60112074D01*
X133223947Y-60133309D01*
X133225000Y-60154750D01*
X133225000Y-60667250D01*
X133223947Y-60688691D01*
X133220797Y-60709926D01*
X133215581Y-60730750D01*
X133208349Y-60750962D01*
X133199170Y-60770368D01*
X133188134Y-60788781D01*
X133175346Y-60806024D01*
X133160930Y-60821930D01*
X133145024Y-60836346D01*
X133127781Y-60849134D01*
X133109368Y-60860170D01*
X133089962Y-60869349D01*
X133069750Y-60876581D01*
X133048926Y-60881797D01*
X133027691Y-60884947D01*
X133006250Y-60886000D01*
X132568750Y-60886000D01*
X132547309Y-60884947D01*
X132526074Y-60881797D01*
X132505250Y-60876581D01*
X132485038Y-60869349D01*
X132465632Y-60860170D01*
X132447219Y-60849134D01*
X132429976Y-60836346D01*
X132414070Y-60821930D01*
X132399654Y-60806024D01*
X132386866Y-60788781D01*
X132375830Y-60770368D01*
X132366651Y-60750962D01*
X132359419Y-60730750D01*
X132354203Y-60709926D01*
X132351053Y-60688691D01*
X132350000Y-60667250D01*
X132350000Y-60154750D01*
X132351053Y-60133309D01*
X132354203Y-60112074D01*
X132359419Y-60091250D01*
X132366651Y-60071038D01*
X132375830Y-60051632D01*
X132386866Y-60033219D01*
X132399654Y-60015976D01*
X132414070Y-60000070D01*
X132429976Y-59985654D01*
X132447219Y-59972866D01*
X132465632Y-59961830D01*
X132485038Y-59952651D01*
X132505250Y-59945419D01*
X132526074Y-59940203D01*
X132547309Y-59937053D01*
X132568750Y-59936000D01*
X133006250Y-59936000D01*
X133027691Y-59937053D01*
X133027691Y-59937053D01*
G37*
D14*
X132787500Y-60411000D03*
G04 #@! TD*
D12*
G04 #@! TO.C,LED3*
G36*
X136452691Y-59937053D02*
X136473926Y-59940203D01*
X136494750Y-59945419D01*
X136514962Y-59952651D01*
X136534368Y-59961830D01*
X136552781Y-59972866D01*
X136570024Y-59985654D01*
X136585930Y-60000070D01*
X136600346Y-60015976D01*
X136613134Y-60033219D01*
X136624170Y-60051632D01*
X136633349Y-60071038D01*
X136640581Y-60091250D01*
X136645797Y-60112074D01*
X136648947Y-60133309D01*
X136650000Y-60154750D01*
X136650000Y-60667250D01*
X136648947Y-60688691D01*
X136645797Y-60709926D01*
X136640581Y-60730750D01*
X136633349Y-60750962D01*
X136624170Y-60770368D01*
X136613134Y-60788781D01*
X136600346Y-60806024D01*
X136585930Y-60821930D01*
X136570024Y-60836346D01*
X136552781Y-60849134D01*
X136534368Y-60860170D01*
X136514962Y-60869349D01*
X136494750Y-60876581D01*
X136473926Y-60881797D01*
X136452691Y-60884947D01*
X136431250Y-60886000D01*
X135993750Y-60886000D01*
X135972309Y-60884947D01*
X135951074Y-60881797D01*
X135930250Y-60876581D01*
X135910038Y-60869349D01*
X135890632Y-60860170D01*
X135872219Y-60849134D01*
X135854976Y-60836346D01*
X135839070Y-60821930D01*
X135824654Y-60806024D01*
X135811866Y-60788781D01*
X135800830Y-60770368D01*
X135791651Y-60750962D01*
X135784419Y-60730750D01*
X135779203Y-60709926D01*
X135776053Y-60688691D01*
X135775000Y-60667250D01*
X135775000Y-60154750D01*
X135776053Y-60133309D01*
X135779203Y-60112074D01*
X135784419Y-60091250D01*
X135791651Y-60071038D01*
X135800830Y-60051632D01*
X135811866Y-60033219D01*
X135824654Y-60015976D01*
X135839070Y-60000070D01*
X135854976Y-59985654D01*
X135872219Y-59972866D01*
X135890632Y-59961830D01*
X135910038Y-59952651D01*
X135930250Y-59945419D01*
X135951074Y-59940203D01*
X135972309Y-59937053D01*
X135993750Y-59936000D01*
X136431250Y-59936000D01*
X136452691Y-59937053D01*
X136452691Y-59937053D01*
G37*
D14*
X136212500Y-60411000D03*
D12*
G36*
X138027691Y-59937053D02*
X138048926Y-59940203D01*
X138069750Y-59945419D01*
X138089962Y-59952651D01*
X138109368Y-59961830D01*
X138127781Y-59972866D01*
X138145024Y-59985654D01*
X138160930Y-60000070D01*
X138175346Y-60015976D01*
X138188134Y-60033219D01*
X138199170Y-60051632D01*
X138208349Y-60071038D01*
X138215581Y-60091250D01*
X138220797Y-60112074D01*
X138223947Y-60133309D01*
X138225000Y-60154750D01*
X138225000Y-60667250D01*
X138223947Y-60688691D01*
X138220797Y-60709926D01*
X138215581Y-60730750D01*
X138208349Y-60750962D01*
X138199170Y-60770368D01*
X138188134Y-60788781D01*
X138175346Y-60806024D01*
X138160930Y-60821930D01*
X138145024Y-60836346D01*
X138127781Y-60849134D01*
X138109368Y-60860170D01*
X138089962Y-60869349D01*
X138069750Y-60876581D01*
X138048926Y-60881797D01*
X138027691Y-60884947D01*
X138006250Y-60886000D01*
X137568750Y-60886000D01*
X137547309Y-60884947D01*
X137526074Y-60881797D01*
X137505250Y-60876581D01*
X137485038Y-60869349D01*
X137465632Y-60860170D01*
X137447219Y-60849134D01*
X137429976Y-60836346D01*
X137414070Y-60821930D01*
X137399654Y-60806024D01*
X137386866Y-60788781D01*
X137375830Y-60770368D01*
X137366651Y-60750962D01*
X137359419Y-60730750D01*
X137354203Y-60709926D01*
X137351053Y-60688691D01*
X137350000Y-60667250D01*
X137350000Y-60154750D01*
X137351053Y-60133309D01*
X137354203Y-60112074D01*
X137359419Y-60091250D01*
X137366651Y-60071038D01*
X137375830Y-60051632D01*
X137386866Y-60033219D01*
X137399654Y-60015976D01*
X137414070Y-60000070D01*
X137429976Y-59985654D01*
X137447219Y-59972866D01*
X137465632Y-59961830D01*
X137485038Y-59952651D01*
X137505250Y-59945419D01*
X137526074Y-59940203D01*
X137547309Y-59937053D01*
X137568750Y-59936000D01*
X138006250Y-59936000D01*
X138027691Y-59937053D01*
X138027691Y-59937053D01*
G37*
D14*
X137787500Y-60411000D03*
G04 #@! TD*
M02*
