<?xml version="1.0" encoding="UTF-8" standalone="no"?>
<!-- Created with Inkscape (http://www.inkscape.org/) -->

<svg
   xmlns:dc="http://purl.org/dc/elements/1.1/"
   xmlns:cc="http://creativecommons.org/ns#"
   xmlns:rdf="http://www.w3.org/1999/02/22-rdf-syntax-ns#"
   xmlns:svg="http://www.w3.org/2000/svg"
   xmlns="http://www.w3.org/2000/svg"
   xmlns:sodipodi="http://sodipodi.sourceforge.net/DTD/sodipodi-0.dtd"
   xmlns:inkscape="http://www.inkscape.org/namespaces/inkscape"
   width="210mm"
   height="297mm"
   viewBox="0 0 210 297"
   version="1.1"
   id="svg6713"
   inkscape:version="0.92.4 (33fec40, 2019-01-16)"
   sodipodi:docname="DimmTopOutline.svg">
  <defs
     id="defs6707" />
  <sodipodi:namedview
     id="base"
     pagecolor="#ffffff"
     bordercolor="#666666"
     borderopacity="1.0"
     inkscape:pageopacity="0.0"
     inkscape:pageshadow="2"
     inkscape:zoom="1"
     inkscape:cx="502.14536"
     inkscape:cy="613.71783"
     inkscape:document-units="mm"
     inkscape:current-layer="layer1"
     showgrid="false"
     inkscape:window-width="1975"
     inkscape:window-height="1097"
     inkscape:window-x="73"
     inkscape:window-y="27"
     inkscape:window-maximized="1" />
  <metadata
     id="metadata6710">
    <rdf:RDF>
      <cc:Work
         rdf:about="">
        <dc:format>image/svg+xml</dc:format>
        <dc:type
           rdf:resource="http://purl.org/dc/dcmitype/StillImage" />
        <dc:title />
      </cc:Work>
    </rdf:RDF>
  </metadata>
  <g
     inkscape:label="Layer 1"
     inkscape:groupmode="layer"
     id="layer1">
    <path
       inkscape:connector-curvature="0"
       d="m 68.179138,144.55431 a 0.79999999,0.79999999 0 0 0 0.8,0.8"
       style="fill:none;stroke:#000000;stroke-width:0.01;stroke-linecap:round;stroke-miterlimit:4;stroke-dasharray:none"
       id="path9993-6-4-1-5-8" />
    <path
       inkscape:connector-curvature="0"
       d="m 61.77914,142.91531 a 0.79999999,0.79999999 0 0 0 0.799998,0.8"
       style="fill:none;stroke:#000000;stroke-width:0.01;stroke-linecap:round;stroke-miterlimit:4;stroke-dasharray:none"
       id="path9995-5-4-7-0-83" />
    <path
       inkscape:connector-curvature="0"
       d="m 62.579138,133.21531 a 0.79999999,0.79999999 0 0 0 -0.799998,0.8"
       style="fill:none;stroke:#000000;stroke-width:0.01;stroke-linecap:round;stroke-miterlimit:4;stroke-dasharray:none"
       id="path9997-7-5-7-4-1" />
    <path
       inkscape:connector-curvature="0"
       d="m 67.379138,133.21531 a 0.79999999,0.79999999 0 0 0 0.8,-0.8"
       style="fill:none;stroke:#000000;stroke-width:0.01;stroke-linecap:round;stroke-miterlimit:4;stroke-dasharray:none"
       id="path9999-6-9-9-1-8" />
    <path
       inkscape:connector-curvature="0"
       d="m 122.84315,132.41531 a 0.79999999,0.79999999 0 0 0 0.8,0.8"
       style="fill:none;stroke:#000000;stroke-width:0.01;stroke-linecap:round;stroke-miterlimit:4;stroke-dasharray:none"
       id="path10001-2-1-7-7-9" />
    <path
       inkscape:connector-curvature="0"
       d="m 129.24315,134.01531 a 0.79999999,0.79999999 0 0 0 -0.8,-0.8"
       style="fill:none;stroke:#000000;stroke-width:0.01;stroke-linecap:round;stroke-miterlimit:4;stroke-dasharray:none"
       id="path10003-1-2-6-9-6" />
    <path
       inkscape:connector-curvature="0"
       d="m 128.44315,143.71531 a 0.79999999,0.79999999 0 0 0 0.8,-0.8"
       style="fill:none;stroke:#000000;stroke-width:0.01;stroke-linecap:round;stroke-miterlimit:4;stroke-dasharray:none"
       id="path10005-5-8-2-3-4" />
    <path
       inkscape:connector-curvature="0"
       d="m 122.04315,145.35431 a 0.79999999,0.79999999 0 0 0 0.8,-0.8"
       style="fill:none;stroke:#000000;stroke-width:0.01;stroke-linecap:round;stroke-miterlimit:4;stroke-dasharray:none"
       id="path10007-0-9-7-6-3" />
    <path
       inkscape:connector-curvature="0"
       d="m 122.84315,118.89231 a 0.79999999,0.79999999 0 0 0 -0.8,-0.8"
       style="fill:none;stroke:#000000;stroke-width:0.01;stroke-linecap:round;stroke-miterlimit:4;stroke-dasharray:none"
       id="path10009-7-6-1-2-3" />
    <path
       inkscape:connector-curvature="0"
       d="m 129.24315,120.53131 a 0.79999999,0.79999999 0 0 0 -0.8,-0.8"
       style="fill:none;stroke:#000000;stroke-width:0.01;stroke-linecap:round;stroke-miterlimit:4;stroke-dasharray:none"
       id="path10011-6-0-5-1-3" />
    <path
       inkscape:connector-curvature="0"
       d="m 128.44315,130.23131 a 0.79999999,0.79999999 0 0 0 0.8,-0.8"
       style="fill:none;stroke:#000000;stroke-width:0.01;stroke-linecap:round;stroke-miterlimit:4;stroke-dasharray:none"
       id="path10013-0-6-8-2-8" />
    <path
       inkscape:connector-curvature="0"
       d="m 123.64315,130.23131 a 0.79999999,0.79999999 0 0 0 -0.8,0.8"
       style="fill:none;stroke:#000000;stroke-width:0.01;stroke-linecap:round;stroke-miterlimit:4;stroke-dasharray:none"
       id="path10017-9-0-4-3-0" />
    <path
       inkscape:connector-curvature="0"
       d="m 68.179138,144.51531 a 0.79999999,0.79999999 0 0 0 -0.8,-0.8"
       style="fill:none;stroke:#000000;stroke-width:0.01;stroke-linecap:round;stroke-miterlimit:4;stroke-dasharray:none"
       id="path10021-2-4-6-1-8" />
    <path
       inkscape:connector-curvature="0"
       d="m 123.64315,143.71531 a 0.79999999,0.79999999 0 0 0 -0.8,0.8"
       style="fill:none;stroke:#000000;stroke-width:0.01;stroke-linecap:round;stroke-miterlimit:4;stroke-dasharray:none"
       id="path10023-6-5-5-8-88" />
    <path
       inkscape:connector-curvature="0"
       d="m 122.84315,118.93131 a 0.79999999,0.79999999 0 0 0 0.8,0.8"
       style="fill:none;stroke:#000000;stroke-width:0.01;stroke-linecap:round;stroke-miterlimit:4;stroke-dasharray:none"
       id="path10025-6-4-6-8-9" />
    <path
       inkscape:connector-curvature="0"
       d="m 123.64315,118.89231 a 1.6,1.6 0 0 0 -1.6,-1.6"
       style="fill:none;stroke:#000000;stroke-width:0.01;stroke-miterlimit:4;stroke-dasharray:none"
       id="path10071-8-9-7-1-7" />
    <path
       inkscape:connector-curvature="0"
       d="m 130.04315,120.53131 a 1.6,1.6 0 0 0 -1.6,-1.6"
       style="fill:none;stroke:#000000;stroke-width:0.01;stroke-miterlimit:4;stroke-dasharray:none"
       id="path10073-4-5-5-9-7" />
    <path
       inkscape:connector-curvature="0"
       d="m 128.44315,131.03131 a 1.6,1.6 0 0 0 1.6,-1.6"
       style="fill:none;stroke:#000000;stroke-width:0.01;stroke-miterlimit:4;stroke-dasharray:none"
       id="path10075-7-5-2-6-64" />
    <path
       inkscape:connector-curvature="0"
       d="m 130.04315,134.01531 a 1.6,1.6 0 0 0 -1.6,-1.6"
       style="fill:none;stroke:#000000;stroke-width:0.01;stroke-miterlimit:4;stroke-dasharray:none"
       id="path10077-8-3-4-3-3" />
    <path
       inkscape:connector-curvature="0"
       d="m 128.44315,144.51531 a 1.6,1.6 0 0 0 1.6,-1.6"
       style="fill:none;stroke:#000000;stroke-width:0.01;stroke-miterlimit:4;stroke-dasharray:none"
       id="path10079-2-8-5-6-0" />
    <path
       inkscape:connector-curvature="0"
       d="m 122.04315,146.15431 a 1.6,1.6 0 0 0 1.6,-1.6"
       style="fill:none;stroke:#000000;stroke-width:0.01;stroke-miterlimit:4;stroke-dasharray:none"
       id="path10081-1-6-0-8-3" />
    <path
       inkscape:connector-curvature="0"
       d="m 67.379138,144.55431 a 1.6,1.6 0 0 0 1.6,1.6"
       style="fill:none;stroke:#000000;stroke-width:0.01;stroke-miterlimit:4;stroke-dasharray:none"
       id="path10083-0-0-5-4-0" />
    <path
       inkscape:connector-curvature="0"
       d="m 60.97914,142.91531 a 1.6,1.6 0 0 0 1.599998,1.6"
       style="fill:none;stroke:#000000;stroke-width:0.01;stroke-miterlimit:4;stroke-dasharray:none"
       id="path10085-5-3-7-6-9" />
    <path
       inkscape:connector-curvature="0"
       d="m 62.579138,132.41531 a 1.6,1.6 0 0 0 -1.599998,1.6"
       style="fill:none;stroke:#000000;stroke-width:0.01;stroke-miterlimit:4;stroke-dasharray:none"
       id="path10087-1-3-3-6-25" />
    <path
       inkscape:connector-curvature="0"
       d="m 122.04315,146.65431 a 2.1,2.1 0 0 0 2.04878,-1.639"
       style="fill:none;stroke:#000000;stroke-width:0.01;stroke-miterlimit:4;stroke-dasharray:none"
       id="path10095-5-7-1-4-9" />
    <path
       inkscape:connector-curvature="0"
       d="m 128.44315,145.01531 a 2.1,2.1 0 0 0 2.1,-2.1"
       style="fill:none;stroke:#000000;stroke-width:0.01;stroke-miterlimit:4;stroke-dasharray:none"
       id="path10097-0-0-3-1-46" />
    <path
       inkscape:connector-curvature="0"
       d="m 130.54315,120.53131 a 2.1,2.1 0 0 0 -2.1,-2.1"
       style="fill:none;stroke:#000000;stroke-width:0.01;stroke-miterlimit:4;stroke-dasharray:none"
       id="path10101-1-1-9-0-9" />
    <path
       inkscape:connector-curvature="0"
       d="m 124.09193,118.43131 a 2.1,2.1 0 0 0 -2.04878,-1.639"
       style="fill:none;stroke:#000000;stroke-width:0.01;stroke-miterlimit:4;stroke-dasharray:none"
       id="path10103-0-1-4-6-2" />
    <path
       inkscape:connector-curvature="0"
       d="m 68.979138,116.79231 a 2.1,2.1 0 0 0 -2.048771,1.639"
       style="fill:none;stroke:#000000;stroke-width:0.01;stroke-miterlimit:4;stroke-dasharray:none"
       id="path10105-7-0-1-4-24" />
    <path
       inkscape:connector-curvature="0"
       d="m 62.579138,118.43131 a 2.1,2.1 0 0 0 -2.099998,2.1"
       style="fill:none;stroke:#000000;stroke-width:0.01;stroke-miterlimit:4;stroke-dasharray:none"
       id="path10107-0-3-9-4-7" />
    <path
       inkscape:connector-curvature="0"
       d="m 60.47914,142.91531 a 2.1,2.1 0 0 0 2.099998,2.1"
       style="fill:none;stroke:#000000;stroke-width:0.01;stroke-miterlimit:4;stroke-dasharray:none"
       id="path10109-8-0-5-3-7" />
    <path
       inkscape:connector-curvature="0"
       d="m 66.930367,145.01531 a 2.1,2.1 0 0 0 2.048771,1.639"
       style="fill:none;stroke:#000000;stroke-width:0.01;stroke-miterlimit:4;stroke-dasharray:none"
       id="path10111-4-0-7-7-5" />
    <path
       inkscape:connector-curvature="0"
       d="m 62.579138,133.21531 h 4.8"
       style="fill:none;stroke:#000000;stroke-width:0.01;stroke-linecap:round;stroke-miterlimit:4;stroke-dasharray:none"
       id="path10129-1-4-2-7-8" />
    <path
       inkscape:connector-curvature="0"
       d="m 62.579138,143.71531 h 4.8"
       style="fill:none;stroke:#000000;stroke-width:0.01;stroke-linecap:round;stroke-miterlimit:4;stroke-dasharray:none"
       id="path10145-4-9-0-5-3" />
    <path
       inkscape:connector-curvature="0"
       d="m 128.44315,143.71531 h -4.8"
       style="fill:none;stroke:#000000;stroke-width:0.01;stroke-linecap:round;stroke-miterlimit:4;stroke-dasharray:none"
       id="path10147-0-4-2-6-6" />
    <path
       inkscape:connector-curvature="0"
       d="m 61.77914,142.91531 v -8.9"
       style="fill:none;stroke:#000000;stroke-width:0.01;stroke-linecap:round;stroke-miterlimit:4;stroke-dasharray:none"
       id="path10149-2-9-2-8-80" />
    <path
       inkscape:connector-curvature="0"
       d="M 68.979138,145.35431 H 122.04315"
       style="fill:none;stroke:#000000;stroke-width:0.01;stroke-linecap:round;stroke-miterlimit:4;stroke-dasharray:none"
       id="path10151-6-8-9-9-2" />
    <path
       inkscape:connector-curvature="0"
       d="m 129.24315,142.91531 v -8.9"
       style="fill:none;stroke:#000000;stroke-width:0.01;stroke-linecap:round;stroke-miterlimit:4;stroke-dasharray:none"
       id="path10153-5-1-7-5-1" />
    <path
       inkscape:connector-curvature="0"
       d="m 128.44315,119.73131 h -4.8"
       style="fill:none;stroke:#000000;stroke-width:0.01;stroke-linecap:round;stroke-miterlimit:4;stroke-dasharray:none"
       id="path10155-8-6-4-5-0" />
    <path
       inkscape:connector-curvature="0"
       d="m 68.179138,144.51531 v 0.039"
       style="fill:none;stroke:#000000;stroke-width:0.01;stroke-linecap:round;stroke-miterlimit:4;stroke-dasharray:none"
       id="path10157-0-3-3-2-5" />
    <path
       inkscape:connector-curvature="0"
       d="m 122.84315,131.03131 v 1.384"
       style="fill:none;stroke:#000000;stroke-width:0.01;stroke-linecap:round;stroke-miterlimit:4;stroke-dasharray:none"
       id="path10159-9-9-5-1-1" />
    <path
       inkscape:connector-curvature="0"
       d="m 122.84315,144.51531 v 0.039"
       style="fill:none;stroke:#000000;stroke-width:0.01;stroke-linecap:round;stroke-miterlimit:4;stroke-dasharray:none"
       id="path10161-6-3-6-5-1" />
    <path
       inkscape:connector-curvature="0"
       d="m 122.84315,118.89231 v 0.039"
       style="fill:none;stroke:#000000;stroke-width:0.01;stroke-linecap:round;stroke-miterlimit:4;stroke-dasharray:none"
       id="path10163-0-3-1-9-0" />
    <path
       inkscape:connector-curvature="0"
       d="m 128.44315,133.21531 h -4.8"
       style="fill:none;stroke:#000000;stroke-width:0.01;stroke-linecap:round;stroke-miterlimit:4;stroke-dasharray:none"
       id="path10165-3-4-4-9-850" />
    <path
       inkscape:connector-curvature="0"
       d="m 129.24315,120.53131 v 8.9"
       style="fill:none;stroke:#000000;stroke-width:0.01;stroke-linecap:round;stroke-miterlimit:4;stroke-dasharray:none"
       id="path10167-7-6-0-1-6" />
    <path
       inkscape:connector-curvature="0"
       d="m 128.44315,130.23131 h -4.8"
       style="fill:none;stroke:#000000;stroke-width:0.01;stroke-linecap:round;stroke-miterlimit:4;stroke-dasharray:none"
       id="path10169-2-1-3-6-4" />
    <path
       inkscape:connector-curvature="0"
       d="m 100.56114,118.09231 h 21.48201"
       style="fill:none;stroke:#000000;stroke-width:0.01;stroke-linecap:round;stroke-miterlimit:4;stroke-dasharray:none"
       id="path10221-9-7-1-2-62" />
    <path
       inkscape:connector-curvature="0"
       d="m 123.64315,118.89231 v 0.039"
       style="fill:none;stroke:#000000;stroke-width:0.01;stroke-miterlimit:4;stroke-dasharray:none"
       id="path10239-2-6-6-6-8" />
    <path
       inkscape:connector-curvature="0"
       d="m 128.44315,118.93131 h -4.8"
       style="fill:none;stroke:#000000;stroke-width:0.01;stroke-miterlimit:4;stroke-dasharray:none"
       id="path10241-2-8-0-8-6" />
    <path
       inkscape:connector-curvature="0"
       d="m 130.04315,120.53131 v 8.9"
       style="fill:none;stroke:#000000;stroke-width:0.01;stroke-miterlimit:4;stroke-dasharray:none"
       id="path10243-0-1-1-2-2" />
    <path
       inkscape:connector-curvature="0"
       d="m 128.44315,131.03131 h -4.8"
       style="fill:none;stroke:#000000;stroke-width:0.01;stroke-miterlimit:4;stroke-dasharray:none"
       id="path10245-5-3-0-0-8" />
    <path
       inkscape:connector-curvature="0"
       d="m 123.64315,131.03131 v 1.384"
       style="fill:none;stroke:#000000;stroke-width:0.01;stroke-miterlimit:4;stroke-dasharray:none"
       id="path10247-5-6-2-6-4" />
    <path
       inkscape:connector-curvature="0"
       d="m 128.44315,132.41531 h -4.8"
       style="fill:none;stroke:#000000;stroke-width:0.01;stroke-miterlimit:4;stroke-dasharray:none"
       id="path10249-9-4-5-4-724" />
    <path
       inkscape:connector-curvature="0"
       d="m 130.04315,142.91531 v -8.9"
       style="fill:none;stroke:#000000;stroke-width:0.01;stroke-miterlimit:4;stroke-dasharray:none"
       id="path10251-9-0-1-3-06" />
    <path
       inkscape:connector-curvature="0"
       d="m 128.44315,144.51531 h -4.8"
       style="fill:none;stroke:#000000;stroke-width:0.01;stroke-miterlimit:4;stroke-dasharray:none"
       id="path10253-2-3-9-3-29" />
    <path
       inkscape:connector-curvature="0"
       d="m 123.64315,144.51531 v 0.039"
       style="fill:none;stroke:#000000;stroke-width:0.01;stroke-miterlimit:4;stroke-dasharray:none"
       id="path10255-8-5-7-6-9" />
    <path
       inkscape:connector-curvature="0"
       d="M 68.979138,146.15431 H 122.04315"
       style="fill:none;stroke:#000000;stroke-width:0.01;stroke-miterlimit:4;stroke-dasharray:none"
       id="path10257-1-8-1-9-08" />
    <path
       inkscape:connector-curvature="0"
       d="m 67.379138,144.51531 v 0.039"
       style="fill:none;stroke:#000000;stroke-width:0.01;stroke-miterlimit:4;stroke-dasharray:none"
       id="path10259-8-5-3-0-1" />
    <path
       inkscape:connector-curvature="0"
       d="m 62.579138,144.51531 h 4.8"
       style="fill:none;stroke:#000000;stroke-width:0.01;stroke-miterlimit:4;stroke-dasharray:none"
       id="path10261-2-0-1-4-3" />
    <path
       inkscape:connector-curvature="0"
       d="m 60.97914,142.91531 v -8.9"
       style="fill:none;stroke:#000000;stroke-width:0.01;stroke-miterlimit:4;stroke-dasharray:none"
       id="path10263-2-9-2-8-1" />
    <path
       inkscape:connector-curvature="0"
       d="m 62.579138,132.41531 h 4.8"
       style="fill:none;stroke:#000000;stroke-width:0.01;stroke-miterlimit:4;stroke-dasharray:none"
       id="path10265-4-9-0-5-1" />
    <path
       inkscape:connector-curvature="0"
       d="M 68.979138,146.65431 H 122.04315"
       style="fill:none;stroke:#000000;stroke-width:0.01;stroke-miterlimit:4;stroke-dasharray:none"
       id="path10277-4-0-2-8-1" />
    <path
       inkscape:connector-curvature="0"
       d="m 128.44315,145.01531 h -4.35122"
       style="fill:none;stroke:#000000;stroke-width:0.01;stroke-miterlimit:4;stroke-dasharray:none"
       id="path10279-9-1-4-0-96" />
    <path
       inkscape:connector-curvature="0"
       d="m 130.54315,142.91531 v -8.9"
       style="fill:none;stroke:#000000;stroke-width:0.01;stroke-miterlimit:4;stroke-dasharray:none"
       id="path10281-8-2-4-9-9" />
    <path
       inkscape:connector-curvature="0"
       d="m 130.54315,129.43131 v 4.584"
       style="fill:none;stroke:#000000;stroke-width:0.01;stroke-miterlimit:4;stroke-dasharray:none"
       id="path10283-2-0-5-2-3" />
    <path
       inkscape:connector-curvature="0"
       d="M 90.461137,116.79231 H 100.56114"
       style="fill:none;stroke:#000000;stroke-width:0.01;stroke-miterlimit:4;stroke-dasharray:none"
       id="path10285-5-0-9-3-38" />
    <path
       inkscape:connector-curvature="0"
       d="m 130.54315,120.53131 v 8.9"
       style="fill:none;stroke:#000000;stroke-width:0.01;stroke-miterlimit:4;stroke-dasharray:none"
       id="path10287-0-6-1-1-0" />
    <path
       inkscape:connector-curvature="0"
       d="m 128.44315,118.43131 h -4.35122"
       style="fill:none;stroke:#000000;stroke-width:0.01;stroke-miterlimit:4;stroke-dasharray:none"
       id="path10289-4-3-2-8-5" />
    <path
       inkscape:connector-curvature="0"
       d="m 100.56114,116.79231 h 21.48201"
       style="fill:none;stroke:#000000;stroke-width:0.01;stroke-miterlimit:4;stroke-dasharray:none"
       id="path10291-4-9-8-7-6" />
    <path
       inkscape:connector-curvature="0"
       d="M 68.979138,116.79231 H 90.461137"
       style="fill:none;stroke:#000000;stroke-width:0.01;stroke-miterlimit:4;stroke-dasharray:none"
       id="path10293-1-0-9-4-64" />
    <path
       inkscape:connector-curvature="0"
       d="m 62.579138,118.43131 h 4.351229"
       style="fill:none;stroke:#000000;stroke-width:0.01;stroke-miterlimit:4;stroke-dasharray:none"
       id="path10295-2-8-6-1-0" />
    <path
       inkscape:connector-curvature="0"
       d="m 60.47914,120.53131 v 8.9"
       style="fill:none;stroke:#000000;stroke-width:0.01;stroke-miterlimit:4;stroke-dasharray:none"
       id="path10297-1-3-0-6-0" />
    <path
       inkscape:connector-curvature="0"
       d="m 60.47914,129.43131 v 4.584"
       style="fill:none;stroke:#000000;stroke-width:0.01;stroke-miterlimit:4;stroke-dasharray:none"
       id="path10299-8-8-6-3-4" />
    <path
       inkscape:connector-curvature="0"
       d="m 60.47914,142.91531 v -8.9"
       style="fill:none;stroke:#000000;stroke-width:0.01;stroke-miterlimit:4;stroke-dasharray:none"
       id="path10301-5-7-4-8-62" />
    <path
       inkscape:connector-curvature="0"
       d="m 62.579138,145.01531 h 4.351229"
       style="fill:none;stroke:#000000;stroke-width:0.01;stroke-miterlimit:4;stroke-dasharray:none"
       id="path10303-5-3-0-5-6" />
    <path
       inkscape:connector-curvature="0"
       d="m 61.77914,142.91531 a 0.79999999,0.79999999 0 0 0 0.799998,0.8"
       style="fill:none;stroke:#000000;stroke-width:0.01;stroke-linecap:round;stroke-miterlimit:4;stroke-dasharray:none"
       id="path10337-3-0-5-1-6" />
    <path
       inkscape:connector-curvature="0"
       d="m 62.579138,143.71531 h 4.8"
       style="fill:none;stroke:#000000;stroke-width:0.01;stroke-linecap:round;stroke-miterlimit:4;stroke-dasharray:none"
       id="path10339-0-5-4-2-9" />
    <path
       inkscape:connector-curvature="0"
       d="m 68.179138,144.51531 a 0.79999999,0.79999999 0 0 0 -0.8,-0.8"
       style="fill:none;stroke:#000000;stroke-width:0.01;stroke-linecap:round;stroke-miterlimit:4;stroke-dasharray:none"
       id="path10341-8-0-6-6-87" />
    <path
       inkscape:connector-curvature="0"
       d="m 68.179148,144.51531 v 0.039"
       style="fill:none;stroke:#000000;stroke-width:0.01;stroke-linecap:round;stroke-miterlimit:4;stroke-dasharray:none"
       id="path10343-9-3-6-4-2" />
    <path
       inkscape:connector-curvature="0"
       d="m 68.179138,144.55431 a 0.79999999,0.79999999 0 0 0 0.8,0.8"
       style="fill:none;stroke:#000000;stroke-width:0.01;stroke-linecap:round;stroke-miterlimit:4;stroke-dasharray:none"
       id="path10345-3-1-3-8-8" />
    <path
       inkscape:connector-curvature="0"
       d="M 68.979138,145.35432 H 122.04316"
       style="fill:none;stroke:#000000;stroke-width:0.01;stroke-linecap:round;stroke-miterlimit:4;stroke-dasharray:none"
       id="path10347-6-8-9-5-2" />
    <path
       inkscape:connector-curvature="0"
       d="m 122.04315,145.35431 a 0.79999999,0.79999999 0 0 0 0.8,-0.8"
       style="fill:none;stroke:#000000;stroke-width:0.01;stroke-linecap:round;stroke-miterlimit:4;stroke-dasharray:none"
       id="path10349-2-0-9-6-99" />
    <path
       inkscape:connector-curvature="0"
       d="m 122.84316,144.55432 v -0.039"
       style="fill:none;stroke:#000000;stroke-width:0.01;stroke-linecap:round;stroke-miterlimit:4;stroke-dasharray:none"
       id="path10351-7-1-5-2-6" />
    <path
       inkscape:connector-curvature="0"
       d="m 123.64315,143.71531 a 0.79999999,0.79999999 0 0 0 -0.8,0.8"
       style="fill:none;stroke:#000000;stroke-width:0.01;stroke-linecap:round;stroke-miterlimit:4;stroke-dasharray:none"
       id="path10353-5-7-2-5-0" />
    <path
       inkscape:connector-curvature="0"
       d="m 123.64315,143.71531 h 4.8"
       style="fill:none;stroke:#000000;stroke-width:0.01;stroke-linecap:round;stroke-miterlimit:4;stroke-dasharray:none"
       id="path10355-1-9-1-2-2" />
    <path
       inkscape:connector-curvature="0"
       d="m 128.44315,143.71531 a 0.79999999,0.79999999 0 0 0 0.8,-0.8"
       style="fill:none;stroke:#000000;stroke-width:0.01;stroke-linecap:round;stroke-miterlimit:4;stroke-dasharray:none"
       id="path10357-3-1-3-6-7" />
    <path
       inkscape:connector-curvature="0"
       d="m 129.24315,142.91531 v -8.9"
       style="fill:none;stroke:#000000;stroke-width:0.01;stroke-linecap:round;stroke-miterlimit:4;stroke-dasharray:none"
       id="path10359-5-0-0-9-6" />
    <path
       inkscape:connector-curvature="0"
       d="m 129.24315,134.01531 a 0.79999999,0.79999999 0 0 0 -0.8,-0.8"
       style="fill:none;stroke:#000000;stroke-width:0.01;stroke-linecap:round;stroke-miterlimit:4;stroke-dasharray:none"
       id="path10361-2-3-9-1-1" />
    <path
       inkscape:connector-curvature="0"
       d="m 128.44315,133.21531 h -4.8"
       style="fill:none;stroke:#000000;stroke-width:0.01;stroke-linecap:round;stroke-miterlimit:4;stroke-dasharray:none"
       id="path10363-3-5-9-3-32" />
    <path
       inkscape:connector-curvature="0"
       d="m 122.84315,132.41531 a 0.79999999,0.79999999 0 0 0 0.8,0.8"
       style="fill:none;stroke:#000000;stroke-width:0.01;stroke-linecap:round;stroke-miterlimit:4;stroke-dasharray:none"
       id="path10365-7-9-1-3-1" />
    <path
       inkscape:connector-curvature="0"
       d="m 122.84316,132.41531 v -1.38399"
       style="fill:none;stroke:#000000;stroke-width:0.01;stroke-linecap:round;stroke-miterlimit:4;stroke-dasharray:none"
       id="path10367-9-4-3-1-5" />
    <path
       inkscape:connector-curvature="0"
       d="m 123.64315,130.23131 a 0.79999999,0.79999999 0 0 0 -0.8,0.8"
       style="fill:none;stroke:#000000;stroke-width:0.01;stroke-linecap:round;stroke-miterlimit:4;stroke-dasharray:none"
       id="path10369-5-8-4-5-9" />
    <path
       inkscape:connector-curvature="0"
       d="m 123.64315,130.23131 h 4.8"
       style="fill:none;stroke:#000000;stroke-width:0.01;stroke-linecap:round;stroke-miterlimit:4;stroke-dasharray:none"
       id="path10371-2-4-5-2-91" />
    <path
       inkscape:connector-curvature="0"
       d="m 128.44315,130.23131 a 0.79999999,0.79999999 0 0 0 0.8,-0.8"
       style="fill:none;stroke:#000000;stroke-width:0.01;stroke-linecap:round;stroke-miterlimit:4;stroke-dasharray:none"
       id="path10373-0-6-8-6-49" />
    <path
       inkscape:connector-curvature="0"
       d="m 129.24315,129.43131 v -8.9"
       style="fill:none;stroke:#000000;stroke-width:0.01;stroke-linecap:round;stroke-miterlimit:4;stroke-dasharray:none"
       id="path10375-9-9-5-9-1" />
    <path
       inkscape:connector-curvature="0"
       d="m 129.24315,120.53131 a 0.79999999,0.79999999 0 0 0 -0.8,-0.8"
       style="fill:none;stroke:#000000;stroke-width:0.01;stroke-linecap:round;stroke-miterlimit:4;stroke-dasharray:none"
       id="path10377-4-2-7-4-0" />
    <path
       inkscape:connector-curvature="0"
       d="m 128.44315,119.73131 h -4.8"
       style="fill:none;stroke:#000000;stroke-width:0.01;stroke-linecap:round;stroke-miterlimit:4;stroke-dasharray:none"
       id="path10379-9-9-3-4-7" />
    <path
       inkscape:connector-curvature="0"
       d="m 122.84315,118.93131 a 0.79999999,0.79999999 0 0 0 0.8,0.8"
       style="fill:none;stroke:#000000;stroke-width:0.01;stroke-linecap:round;stroke-miterlimit:4;stroke-dasharray:none"
       id="path10381-3-0-3-6-5" />
    <path
       inkscape:connector-curvature="0"
       d="m 122.84316,118.93131 v -0.039"
       style="fill:none;stroke:#000000;stroke-width:0.01;stroke-linecap:round;stroke-miterlimit:4;stroke-dasharray:none"
       id="path10383-5-3-8-0-8" />
    <path
       inkscape:connector-curvature="0"
       d="m 122.84315,118.89231 a 0.79999999,0.79999999 0 0 0 -0.8,-0.8"
       style="fill:none;stroke:#000000;stroke-width:0.01;stroke-linecap:round;stroke-miterlimit:4;stroke-dasharray:none"
       id="path10385-5-0-9-7-7" />
    <path
       inkscape:connector-curvature="0"
       style="opacity:1;vector-effect:none;fill:none;fill-opacity:1;stroke:#934bf8;stroke-width:0.00355132;stroke-linecap:butt;stroke-linejoin:miter;stroke-miterlimit:4;stroke-dasharray:none;stroke-dashoffset:0;stroke-opacity:1"
       d="m 55.515428,110.74676 c -0.55163,0 -0.998908,0.44677 -0.998908,0.99839 v 31.53916 a 1.9929911,1.9929911 0 0 1 1.987471,1.99264 1.9929911,1.9929911 0 0 1 -1.987471,1.99316 v 5.50664 l 6.426491,0.001 c 2.476685,0.001 4.830657,1.07191 6.456443,2.93729 l 0.131788,0.15245 c 2.441046,2.79843 5.971144,4.40544 9.685179,4.40644 h 36.566239 c 3.71485,1.4e-4 7.2463,-1.605 9.68677,-4.40438 l 0.13382,-0.15554 c 1.63058,-1.86593 3.98471,-2.93608 6.45957,-2.93626 l 6.42752,-0.001 0.003,-5.50767 a 1.9929911,1.9929911 0 0 1 -1.97405,-1.99213 1.9929911,1.9929911 0 0 1 1.97508,-1.99213 l 0.0109,-31.53967 c 0,-0.55162 -0.44727,-0.99839 -0.9989,-0.99839 z"
       id="path10892-1-3-8-8-2-6" />
    <flowRoot
       xml:space="preserve"
       id="flowRoot4562-0-5-9"
       style="font-style:normal;font-weight:normal;font-size:14.66666698px;line-height:1.25;font-family:sans-serif;letter-spacing:0px;word-spacing:0px;fill:#ffffff;fill-opacity:1;stroke:none"
       transform="matrix(0.26458333,0,0,0.26458333,57.351345,58.060006)"
       inkscape:export-xdpi="600"
       inkscape:export-ydpi="600"><flowRegion
         id="flowRegion4564-7-0-02"
         style="fill:#ffffff;fill-opacity:1"><rect
           id="rect4566-4-7-8"
           width="140.92812"
           height="29.699726"
           x="95.505005"
           y="349.16208"
           style="fill:#ffffff;fill-opacity:1" /></flowRegion><flowPara
         id="flowPara4568-5-7-3"
         style="font-size:13.33333397px;line-height:1.25;fill:#ffffff;fill-opacity:1">CARTRIDGE v3</flowPara></flowRoot>    <path
       inkscape:connector-curvature="0"
       d="M 95.51114,145.35431 H 68.979138 c -0.441828,0 -0.8,-0.35817 -0.799997,-0.8 l -3e-6,-0.039 c 0,-0.44183 -0.358172,-0.8 -0.8,-0.8 h -4.8 c -0.441827,0 -0.799998,-0.35817 -0.799998,-0.8 v -8.9 c 0,-0.44183 0.358171,-0.8 0.799998,-0.8 h 4.8 c 0.441828,0 0.8,-0.35817 0.8,-0.8 v 0 -1.384 0 c 0,-0.44183 -0.358172,-0.8 -0.8,-0.8 h -4.8 c -0.441827,0 -0.799998,-0.35817 -0.799998,-0.8 v -8.9 c 0,-0.44183 0.358171,-0.8 0.799998,-0.8 h 4.8 c 0.441828,0 0.8,-0.35817 0.8,-0.8 l 3e-6,-0.039 c -3e-6,-0.44183 0.358169,-0.8 0.799997,-0.8 h 26.532 26.532022 c 0.44181,0 0.79999,0.35817 0.79998,0.8 l 10e-6,0.039 c 0,0.44183 0.35817,0.8 0.8,0.8 h 4.8 c 0.44182,0 0.79999,0.35817 0.79999,0.8 v 8.9 c 0,0.44183 -0.35817,0.8 -0.79999,0.8 h -4.8 c -0.44183,0 -0.8,0.35817 -0.8,0.8 v 0 1.384 0 c 0,0.44183 0.35817,0.8 0.8,0.8 h 4.8 c 0.44182,0 0.79999,0.35817 0.79999,0.8 v 8.9 c 0,0.44183 -0.35817,0.8 -0.79999,0.8 h -4.8 c -0.44183,0 -0.8,0.35817 -0.8,0.8 l -10e-6,0.039 c 10e-6,0.44183 -0.35817,0.8 -0.79998,0.8 z"
       style="fill:none;stroke:#000000;stroke-width:0.01;stroke-linecap:round;stroke-miterlimit:4;stroke-dasharray:none"
       id="path10387-4-3-5-4-0-8"
       sodipodi:nodetypes="ccccccccccccccccccccccccccccccccccccccccccccccc" />
    <path
       inkscape:connector-curvature="0"
       style="opacity:1;vector-effect:none;fill:none;fill-opacity:1;stroke:#000000;stroke-width:0.05;stroke-linecap:butt;stroke-linejoin:miter;stroke-miterlimit:4;stroke-dasharray:none;stroke-dashoffset:0;stroke-opacity:0.98578197"
       d="m 56.221556,34.901024 -0.388797,0.07843 -0.317514,0.213911 -0.214084,0.317339 -0.0785,0.388713 v 7.884791 7.884792 7.884791 7.884791 l 0.773905,0.15817 0.631661,0.427388 0.425745,0.632769 0.156159,0.774313 -0.156009,0.77448 -0.425712,0.632938 -0.631718,0.427519 -0.774031,0.158223 v 1.37666 1.37666 1.37666 1.37666 l 1.606622,2.5e-4 1.606623,2.5e-4 1.606623,2.5e-4 1.606622,2.5e-4 1.825043,0.197054 1.722265,0.572449 1.56272,0.922019 1.346412,1.245768 0.03295,0.03811 0.03295,0.03811 0.03295,0.03811 0.03295,0.03811 2.02084,1.868953 2.344379,1.383303 2.583064,0.858785 2.736897,0.295399 h 9.141561 9.141561 9.141562 9.14156 l 2.73757,-0.294462 2.58371,-0.857908 2.34476,-1.382817 2.02073,-1.869193 0.0335,-0.03889 0.0335,-0.03889 0.0335,-0.03889 0.0335,-0.03889 1.34918,-1.245949 1.564,-0.921828 1.7223,-0.572003 1.82409,-0.19647 1.60688,-2.5e-4 1.60688,-2.5e-4 1.60688,-2.5e-4 1.60688,-2.5e-4 7.5e-4,-1.376917 7.5e-4,-1.376918 7.5e-4,-1.376917 7.5e-4,-1.376918 -0.76948,-0.161948 -0.62725,-0.428134 -0.42239,-0.631126 -0.15493,-0.770922 0.15503,-0.771169 0.42266,-0.631238 0.62758,-0.428067 0.76981,-0.161656 0.003,-7.884919 0.003,-7.884918 0.003,-7.884919 0.003,-7.884919 -0.0785,-0.388713 -0.21408,-0.317339 -0.31751,-0.213911 -0.3888,-0.07843 H 116.21477 96.217033 76.219294 Z"
       id="path10892-1-3-8-8-2-6-8"
       sodipodi:nodetypes="ccccccccccccccccccccccccccccccccccccccccccccccccccccccccccccccccccccccccccccccccc" />
    <path
       inkscape:connector-curvature="0"
       d="m 96.217276,69.508579 h -6.633 -6.633 -6.633 -6.633 l -0.311397,-0.06287 -0.254289,-0.171446 -0.171446,-0.254289 -0.06287,-0.311397 v -0.0097 -0.0097 -0.0098 -0.0097 l -0.06287,-0.311401 -0.171448,-0.254289 -0.25429,-0.171444 -0.311393,-0.06287 h -1.200002 -1.200003 -1.200002 -1.200003 l -0.311391,-0.06287 -0.254286,-0.17145 -0.171446,-0.254292 -0.06287,-0.311399 v -2.225 -2.225 -2.225 -2.225 l 0.06287,-0.311397 0.171444,-0.254289 0.254287,-0.171446 0.311391,-0.06287 h 1.200003 1.200002 1.200003 1.200002 l 0.311393,-0.06287 0.25429,-0.171446 0.171448,-0.254289 0.06287,-0.311397 v 0 0 0 0 -0.345999 -0.345999 -0.345999 -0.345999 0 0 0 0 l -0.06287,-0.311397 -0.171448,-0.254289 -0.25429,-0.171446 -0.311393,-0.06287 h -1.200002 -1.200003 -1.200002 -1.200003 l -0.311391,-0.06287 -0.254286,-0.171446 -0.171445,-0.254289 -0.06287,-0.311397 v -2.225 -2.224999 -2.225 -2.225 l 0.06287,-0.311397 0.171444,-0.254289 0.254287,-0.171446 0.311391,-0.06287 h 1.200003 1.200002 1.200003 1.200002 l 0.311393,-0.06287 0.25429,-0.171446 0.171448,-0.254289 0.06287,-0.311397 v -0.0098 -0.0097 -0.0098 -0.0097 l 0.06287,-0.311397 0.171446,-0.254289 0.254289,-0.171446 0.311397,-0.06287 h 6.633 6.633 6.633 6.633 6.633004 6.63301 6.633 6.63301 l 0.31139,0.06287 0.25428,0.171446 0.17145,0.254289 0.0629,0.311397 0,0.0097 1e-5,0.0098 0,0.0097 0,0.0098 0.0629,0.311397 0.17144,0.254289 0.25429,0.171446 0.3114,0.06287 h 1.2 1.2 1.2 1.2 l 0.31139,0.06287 0.25429,0.171446 0.17144,0.254289 0.0629,0.311397 v 2.225 2.225 2.225 2.225 l -0.0629,0.311397 -0.17144,0.254289 -0.25429,0.171446 -0.31139,0.06287 h -1.2 -1.2 -1.2 -1.2 l -0.3114,0.06287 -0.25429,0.171446 -0.17144,0.254289 -0.0629,0.311397 v 0 0 0 0 0.346001 0.346002 0.346001 0.346001 0 0 0 0 l 0.0629,0.311397 0.17144,0.254289 0.25429,0.171446 0.3114,0.06287 h 1.2 1.2 1.2 1.2 l 0.31139,0.06287 0.25429,0.171446 0.17144,0.254289 0.0629,0.311397 v 2.224998 2.224997 2.224998 2.224997 l -0.0629,0.311399 -0.17144,0.254292 -0.25429,0.17145 -0.31139,0.06287 h -1.2 -1.2 -1.2 -1.2 l -0.3114,0.06287 -0.25429,0.171446 -0.17144,0.254289 -0.0629,0.311397 0,0.0097 0,0.0098 -1e-5,0.0097 0,0.0097 -0.0629,0.311397 -0.17145,0.254289 -0.25428,0.171446 -0.31139,0.06287 h -6.63301 -6.633 -6.63301 z"
       style="fill:none;stroke:#000000;stroke-width:0.05;stroke-linecap:round;stroke-miterlimit:4;stroke-dasharray:none;stroke-opacity:0.98578197"
       id="path10387-4-3-5-4-0-8-3"
       sodipodi:nodetypes="ccccccccccccccccccccccccccccccccccccccccccccccccccccccccccccccccccccccccccccccccccccccccccccccccccccccccccccccccccccccccccccccccccccccccccccccccccccccccccccccccccccccccccccccccccccccccc" />
    <path
       inkscape:connector-curvature="0"
       d="m 95.511138,146.15431 h -26.532 c -0.883656,0 -1.6,-0.71634 -1.6,-1.6 v -0.039 h -4.800001 c -0.883655,0 -1.599998,-0.71635 -1.599998,-1.6 v -8.9 c 0,-0.88365 0.716343,-1.6 1.599998,-1.6 h 4.800001 v -1.384 h -4.8 c -0.883655,0 -1.599998,-0.71635 -1.599998,-1.6 v -8.9 c 0,-0.88365 0.716343,-1.6 1.599998,-1.6 h 4.8 v -0.039 c 0,-0.88366 0.716344,-1.6 1.6,-1.6 h 26.532 26.532012 c 0.88366,0 1.6,0.71634 1.6,1.6 v 0.039 h 4.8 c 0.88365,0 1.6,0.71635 1.6,1.6 v 8.9 c 0,0.88365 -0.71635,1.6 -1.6,1.6 h -4.8 v 1.384 h 4.8 c 0.88366,0 1.6,0.71635 1.6,1.6 v 8.9 c 0,0.88365 -0.71634,1.60001 -1.6,1.60001 h -4.8 v 0.039 c 0,0.88366 -0.71634,1.59999 -1.6,1.59999 z"
       style="fill:none;stroke:#000000;stroke-width:0.01;stroke-miterlimit:4;stroke-dasharray:none"
       id="path10273-6-4-4-7-03-6"
       sodipodi:nodetypes="ccccccccccccccccccccccccccccccccccc" />
    <path
       inkscape:connector-curvature="0"
       d="M 98.595715,208.43868 H 72.063718 c -0.883656,0 -1.6,-0.71633 -1.6,-1.59999 v -0.039 h -4.800001 c -0.883655,0 -1.599998,-0.71635 -1.599998,-1.6 v -8.9 c 0,-0.88365 0.716343,-1.6 1.599998,-1.6 h 4.800001 v -1.384 h -4.8 c -0.883655,0 -1.599998,-0.71635 -1.599998,-1.6 v -8.9 c 0,-0.88365 0.716343,-1.6 1.599998,-1.6 h 4.8 v -0.039 c 0,-0.88366 0.716344,-1.6 1.6,-1.6 h 26.531997 26.532025 c 0.88366,0 1.6,0.71634 1.6,1.6 v 0.039 h 4.8 c 0.88365,0 1.6,0.71635 1.6,1.6 v 8.9 c 0,0.88365 -0.71635,1.6 -1.6,1.6 h -4.8 v 1.384 h 4.8 c 0.88366,0 1.6,0.71635 1.6,1.6 v 8.9 c 0,0.88365 -0.71634,1.60001 -1.6,1.60001 h -4.8 v 0.039 c 0,0.88366 -0.71634,1.59999 -1.6,1.59999 z"
       style="fill:#000000;stroke:#000000;stroke-width:0.01;stroke-miterlimit:4;stroke-dasharray:none;fill-opacity:0.96521741"
       id="path10273-6-4-4-7-03-6-2"
       sodipodi:nodetypes="ccccccccccccccccccccccccccccccccccc"
       inkscape:export-filename="/home/gaudi/Documents/Projekte/OpenDrop/Carrier/ModularV3/DIMMTop/design/DimmTopCooper.png"
       inkscape:export-xdpi="96"
       inkscape:export-ydpi="96" />
    <path
       inkscape:connector-curvature="0"
       d="M 98.595723,207.63869 H 72.063718 c -0.441828,0 -0.8,-0.35817 -0.799997,-0.8 l -3e-6,-0.039 c 0,-0.44183 -0.358172,-0.8 -0.8,-0.8 h -4.8 c -0.441827,0 -0.799998,-0.35817 -0.799998,-0.8 v -8.9 c 0,-0.44183 0.358171,-0.8 0.799998,-0.8 h 4.8 c 0.441828,0 0.8,-0.35817 0.8,-0.8 v 0 -1.384 0 c 0,-0.44183 -0.358172,-0.8 -0.8,-0.8 h -4.8 c -0.441827,0 -0.799998,-0.35817 -0.799998,-0.8 v -8.9 c 0,-0.44183 0.358171,-0.8 0.799998,-0.8 h 4.8 c 0.441828,0 0.8,-0.35817 0.8,-0.8 l 3e-6,-0.039 c -3e-6,-0.44183 0.358169,-0.8 0.799997,-0.8 h 26.531997 26.532035 c 0.44181,0 0.79998,0.35817 0.79998,0.8 v 0.039 c 0,0.44183 0.35817,0.8 0.80001,0.8 h 4.8 c 0.44182,0 0.79999,0.35817 0.79999,0.8 v 8.9 c 0,0.44183 -0.35817,0.8 -0.79999,0.8 h -4.8 c -0.44184,0 -0.80001,0.35817 -0.80001,0.8 v 0 1.384 0 c 0,0.44183 0.35817,0.8 0.80001,0.8 h 4.8 c 0.44182,0 0.79999,0.35817 0.79999,0.8 v 8.9 c 0,0.44183 -0.35817,0.8 -0.79999,0.8 h -4.8 c -0.44184,0 -0.80001,0.35817 -0.80001,0.8 v 0.039 c 0,0.44183 -0.35817,0.8 -0.79998,0.8 z"
       style="fill:#ffffff;stroke:#000000;stroke-width:0.01;stroke-linecap:round;stroke-miterlimit:4;stroke-dasharray:none;fill-opacity:0.96521741"
       id="path10387-4-3-5-4-0-8-2"
       sodipodi:nodetypes="ccccccccccccccccccccccccccccccccccccccccccccccc"
       inkscape:export-filename="/home/gaudi/Documents/Projekte/OpenDrop/Carrier/ModularV3/DIMMTop/design/DimmTopCooper.png"
       inkscape:export-xdpi="96"
       inkscape:export-ydpi="96" />
  </g>
</svg>
