<?xml version="1.0" standalone="no"?>
 <!DOCTYPE svg PUBLIC "-//W3C//DTD SVG 1.1//EN" 
 "http://www.w3.org/Graphics/SVG/1.1/DTD/svg11.dtd"> 
<svg xmlns="http://www.w3.org/2000/svg" version="1.1" 
    width="29.7002cm" height="21.0007cm" viewBox="0 0 116930 82680 ">
<title>SVG Picture created as OpenDropV2-B.CrtYd.svg date 2016/05/24 14:20:40 </title>
  <desc>Picture generated by PCBNEW </desc>
<g style="fill:#000000; fill-opacity:1;stroke:#000000; stroke-opacity:1;
stroke-linecap:round; stroke-linejoin:round; "
 transform="translate(0 0) scale(1 1)">
</g>
<g style="fill:#000000; fill-opacity:0.0; 
stroke:#000000; stroke-width:-0.000393701; stroke-opacity:1; 
stroke-linecap:round; stroke-linejoin:round;">
</g>
<g style="fill:#000000; fill-opacity:0.0; 
stroke:#000000; stroke-width:39.3701; stroke-opacity:1; 
stroke-linecap:round; stroke-linejoin:round;">
</g>
<g style="fill:#000000; fill-opacity:0.0; 
stroke:#000000; stroke-width:59.0551; stroke-opacity:1; 
stroke-linecap:round; stroke-linejoin:round;">
<rect x="69685.9" y="65357.2" width="42519.7" height="12598.4" rx="0" />
</g>
<g style="fill:#000000; fill-opacity:0.0; 
stroke:#000000; stroke-width:39.3701; stroke-opacity:1; 
stroke-linecap:round; stroke-linejoin:round;">
</g>
<g style="fill:#000000; fill-opacity:0.0; 
stroke:#000000; stroke-width:59.0551; stroke-opacity:1; 
stroke-linecap:round; stroke-linejoin:round;">
<rect x="3937.01" y="3937.01" width="109056" height="74806" rx="0" />
</g>
<g style="fill:#000000; fill-opacity:0.0; 
stroke:#000000; stroke-width:39.3701; stroke-opacity:1; 
stroke-linecap:round; stroke-linejoin:round;">
</g>
<g style="fill:#000000; fill-opacity:0.0; 
stroke:#000000; stroke-width:59.0551; stroke-opacity:1; 
stroke-linecap:round; stroke-linejoin:round;">
<rect x="4724.41" y="4724.41" width="107481" height="73231.2" rx="0" />
</g>
<g style="fill:#000000; fill-opacity:0.0; 
stroke:#000000; stroke-width:39.3701; stroke-opacity:1; 
stroke-linecap:round; stroke-linejoin:round;">
</g>
<g style="fill:#000000; fill-opacity:0.0; 
stroke:#000000; stroke-width:59.0551; stroke-opacity:1; 
stroke-linecap:round; stroke-linejoin:round;">
<path d="M23622 4724
L23622 3937
" />
</g>
<g style="fill:#000000; fill-opacity:0.0; 
stroke:#000000; stroke-width:39.3701; stroke-opacity:1; 
stroke-linecap:round; stroke-linejoin:round;">
</g>
<g style="fill:#000000; fill-opacity:0.0; 
stroke:#000000; stroke-width:59.0551; stroke-opacity:1; 
stroke-linecap:round; stroke-linejoin:round;">
<path d="M43307 4724
L43307 3937
" />
</g>
<g style="fill:#000000; fill-opacity:0.0; 
stroke:#000000; stroke-width:39.3701; stroke-opacity:1; 
stroke-linecap:round; stroke-linejoin:round;">
</g>
<g style="fill:#000000; fill-opacity:0.0; 
stroke:#000000; stroke-width:59.0551; stroke-opacity:1; 
stroke-linecap:round; stroke-linejoin:round;">
<path d="M62992 4724
L62992 3937
" />
</g>
<g style="fill:#000000; fill-opacity:0.0; 
stroke:#000000; stroke-width:39.3701; stroke-opacity:1; 
stroke-linecap:round; stroke-linejoin:round;">
</g>
<g style="fill:#000000; fill-opacity:0.0; 
stroke:#000000; stroke-width:59.0551; stroke-opacity:1; 
stroke-linecap:round; stroke-linejoin:round;">
<path d="M82677 4724
L82677 3937
" />
</g>
<g style="fill:#000000; fill-opacity:0.0; 
stroke:#000000; stroke-width:39.3701; stroke-opacity:1; 
stroke-linecap:round; stroke-linejoin:round;">
</g>
<g style="fill:#000000; fill-opacity:0.0; 
stroke:#000000; stroke-width:59.0551; stroke-opacity:1; 
stroke-linecap:round; stroke-linejoin:round;">
<path d="M102362 4724
L102362 3937
" />
</g>
<g style="fill:#000000; fill-opacity:0.0; 
stroke:#000000; stroke-width:39.3701; stroke-opacity:1; 
stroke-linecap:round; stroke-linejoin:round;">
</g>
<g style="fill:#000000; fill-opacity:0.0; 
stroke:#000000; stroke-width:59.0551; stroke-opacity:1; 
stroke-linecap:round; stroke-linejoin:round;">
<path d="M14199 4562
L13906 4562
" />
<path d="M14052 4562
L14052 4050
L14004 4123
L13955 4172
L13906 4196
" />
</g>
<g style="fill:#000000; fill-opacity:0.0; 
stroke:#000000; stroke-width:39.3701; stroke-opacity:1; 
stroke-linecap:round; stroke-linejoin:round;">
</g>
<g style="fill:#000000; fill-opacity:0.0; 
stroke:#000000; stroke-width:59.0551; stroke-opacity:1; 
stroke-linecap:round; stroke-linejoin:round;">
<path d="M33591 4099
L33615 4074
L33664 4050
L33786 4050
L33835 4074
L33859 4099
L33884 4147
L33884 4196
L33859 4269
L33567 4562
L33884 4562
" />
</g>
<g style="fill:#000000; fill-opacity:0.0; 
stroke:#000000; stroke-width:39.3701; stroke-opacity:1; 
stroke-linecap:round; stroke-linejoin:round;">
</g>
<g style="fill:#000000; fill-opacity:0.0; 
stroke:#000000; stroke-width:59.0551; stroke-opacity:1; 
stroke-linecap:round; stroke-linejoin:round;">
<path d="M53252 4050
L53569 4050
L53398 4245
L53471 4245
L53520 4269
L53544 4294
L53569 4342
L53569 4464
L53544 4513
L53520 4537
L53471 4562
L53325 4562
L53276 4537
L53252 4513
" />
</g>
<g style="fill:#000000; fill-opacity:0.0; 
stroke:#000000; stroke-width:39.3701; stroke-opacity:1; 
stroke-linecap:round; stroke-linejoin:round;">
</g>
<g style="fill:#000000; fill-opacity:0.0; 
stroke:#000000; stroke-width:59.0551; stroke-opacity:1; 
stroke-linecap:round; stroke-linejoin:round;">
<path d="M73205 4221
L73205 4562
" />
<path d="M73083 4026
L72961 4391
L73278 4391
" />
</g>
<g style="fill:#000000; fill-opacity:0.0; 
stroke:#000000; stroke-width:39.3701; stroke-opacity:1; 
stroke-linecap:round; stroke-linejoin:round;">
</g>
<g style="fill:#000000; fill-opacity:0.0; 
stroke:#000000; stroke-width:59.0551; stroke-opacity:1; 
stroke-linecap:round; stroke-linejoin:round;">
<path d="M92914 4050
L92671 4050
L92646 4294
L92671 4269
L92719 4245
L92841 4245
L92890 4269
L92914 4294
L92939 4342
L92939 4464
L92914 4513
L92890 4537
L92841 4562
L92719 4562
L92671 4537
L92646 4513
" />
</g>
<g style="fill:#000000; fill-opacity:0.0; 
stroke:#000000; stroke-width:39.3701; stroke-opacity:1; 
stroke-linecap:round; stroke-linejoin:round;">
</g>
<g style="fill:#000000; fill-opacity:0.0; 
stroke:#000000; stroke-width:59.0551; stroke-opacity:1; 
stroke-linecap:round; stroke-linejoin:round;">
<path d="M112575 4050
L112477 4050
L112429 4074
L112404 4099
L112356 4172
L112331 4269
L112331 4464
L112356 4513
L112380 4537
L112429 4562
L112526 4562
L112575 4537
L112599 4513
L112624 4464
L112624 4342
L112599 4294
L112575 4269
L112526 4245
L112429 4245
L112380 4269
L112356 4294
L112331 4342
" />
</g>
<g style="fill:#000000; fill-opacity:0.0; 
stroke:#000000; stroke-width:39.3701; stroke-opacity:1; 
stroke-linecap:round; stroke-linejoin:round;">
</g>
<g style="fill:#000000; fill-opacity:0.0; 
stroke:#000000; stroke-width:59.0551; stroke-opacity:1; 
stroke-linecap:round; stroke-linejoin:round;">
<path d="M23622 77955
L23622 78742
" />
</g>
<g style="fill:#000000; fill-opacity:0.0; 
stroke:#000000; stroke-width:39.3701; stroke-opacity:1; 
stroke-linecap:round; stroke-linejoin:round;">
</g>
<g style="fill:#000000; fill-opacity:0.0; 
stroke:#000000; stroke-width:59.0551; stroke-opacity:1; 
stroke-linecap:round; stroke-linejoin:round;">
<path d="M43307 77955
L43307 78742
" />
</g>
<g style="fill:#000000; fill-opacity:0.0; 
stroke:#000000; stroke-width:39.3701; stroke-opacity:1; 
stroke-linecap:round; stroke-linejoin:round;">
</g>
<g style="fill:#000000; fill-opacity:0.0; 
stroke:#000000; stroke-width:59.0551; stroke-opacity:1; 
stroke-linecap:round; stroke-linejoin:round;">
<path d="M62992 77955
L62992 78742
" />
</g>
<g style="fill:#000000; fill-opacity:0.0; 
stroke:#000000; stroke-width:39.3701; stroke-opacity:1; 
stroke-linecap:round; stroke-linejoin:round;">
</g>
<g style="fill:#000000; fill-opacity:0.0; 
stroke:#000000; stroke-width:59.0551; stroke-opacity:1; 
stroke-linecap:round; stroke-linejoin:round;">
<path d="M82677 77955
L82677 78742
" />
</g>
<g style="fill:#000000; fill-opacity:0.0; 
stroke:#000000; stroke-width:39.3701; stroke-opacity:1; 
stroke-linecap:round; stroke-linejoin:round;">
</g>
<g style="fill:#000000; fill-opacity:0.0; 
stroke:#000000; stroke-width:59.0551; stroke-opacity:1; 
stroke-linecap:round; stroke-linejoin:round;">
<path d="M102362 77955
L102362 78742
" />
</g>
<g style="fill:#000000; fill-opacity:0.0; 
stroke:#000000; stroke-width:39.3701; stroke-opacity:1; 
stroke-linecap:round; stroke-linejoin:round;">
</g>
<g style="fill:#000000; fill-opacity:0.0; 
stroke:#000000; stroke-width:59.0551; stroke-opacity:1; 
stroke-linecap:round; stroke-linejoin:round;">
<path d="M14199 78580
L13906 78580
" />
<path d="M14052 78580
L14052 78069
L14004 78142
L13955 78190
L13906 78215
" />
</g>
<g style="fill:#000000; fill-opacity:0.0; 
stroke:#000000; stroke-width:39.3701; stroke-opacity:1; 
stroke-linecap:round; stroke-linejoin:round;">
</g>
<g style="fill:#000000; fill-opacity:0.0; 
stroke:#000000; stroke-width:59.0551; stroke-opacity:1; 
stroke-linecap:round; stroke-linejoin:round;">
<path d="M33591 78117
L33615 78093
L33664 78069
L33786 78069
L33835 78093
L33859 78117
L33884 78166
L33884 78215
L33859 78288
L33567 78580
L33884 78580
" />
</g>
<g style="fill:#000000; fill-opacity:0.0; 
stroke:#000000; stroke-width:39.3701; stroke-opacity:1; 
stroke-linecap:round; stroke-linejoin:round;">
</g>
<g style="fill:#000000; fill-opacity:0.0; 
stroke:#000000; stroke-width:59.0551; stroke-opacity:1; 
stroke-linecap:round; stroke-linejoin:round;">
<path d="M53252 78069
L53569 78069
L53398 78263
L53471 78263
L53520 78288
L53544 78312
L53569 78361
L53569 78483
L53544 78532
L53520 78556
L53471 78580
L53325 78580
L53276 78556
L53252 78532
" />
</g>
<g style="fill:#000000; fill-opacity:0.0; 
stroke:#000000; stroke-width:39.3701; stroke-opacity:1; 
stroke-linecap:round; stroke-linejoin:round;">
</g>
<g style="fill:#000000; fill-opacity:0.0; 
stroke:#000000; stroke-width:59.0551; stroke-opacity:1; 
stroke-linecap:round; stroke-linejoin:round;">
<path d="M73205 78239
L73205 78580
" />
<path d="M73083 78044
L72961 78410
L73278 78410
" />
</g>
<g style="fill:#000000; fill-opacity:0.0; 
stroke:#000000; stroke-width:39.3701; stroke-opacity:1; 
stroke-linecap:round; stroke-linejoin:round;">
</g>
<g style="fill:#000000; fill-opacity:0.0; 
stroke:#000000; stroke-width:59.0551; stroke-opacity:1; 
stroke-linecap:round; stroke-linejoin:round;">
<path d="M92914 78069
L92671 78069
L92646 78312
L92671 78288
L92719 78263
L92841 78263
L92890 78288
L92914 78312
L92939 78361
L92939 78483
L92914 78532
L92890 78556
L92841 78580
L92719 78580
L92671 78556
L92646 78532
" />
</g>
<g style="fill:#000000; fill-opacity:0.0; 
stroke:#000000; stroke-width:39.3701; stroke-opacity:1; 
stroke-linecap:round; stroke-linejoin:round;">
</g>
<g style="fill:#000000; fill-opacity:0.0; 
stroke:#000000; stroke-width:59.0551; stroke-opacity:1; 
stroke-linecap:round; stroke-linejoin:round;">
<path d="M112575 78069
L112477 78069
L112429 78093
L112404 78117
L112356 78190
L112331 78288
L112331 78483
L112356 78532
L112380 78556
L112429 78580
L112526 78580
L112575 78556
L112599 78532
L112624 78483
L112624 78361
L112599 78312
L112575 78288
L112526 78263
L112429 78263
L112380 78288
L112356 78312
L112331 78361
" />
</g>
<g style="fill:#000000; fill-opacity:0.0; 
stroke:#000000; stroke-width:39.3701; stroke-opacity:1; 
stroke-linecap:round; stroke-linejoin:round;">
</g>
<g style="fill:#000000; fill-opacity:0.0; 
stroke:#000000; stroke-width:59.0551; stroke-opacity:1; 
stroke-linecap:round; stroke-linejoin:round;">
<path d="M3937 23622
L4724 23622
" />
</g>
<g style="fill:#000000; fill-opacity:0.0; 
stroke:#000000; stroke-width:39.3701; stroke-opacity:1; 
stroke-linecap:round; stroke-linejoin:round;">
</g>
<g style="fill:#000000; fill-opacity:0.0; 
stroke:#000000; stroke-width:59.0551; stroke-opacity:1; 
stroke-linecap:round; stroke-linejoin:round;">
<path d="M3937 43307
L4724 43307
" />
</g>
<g style="fill:#000000; fill-opacity:0.0; 
stroke:#000000; stroke-width:39.3701; stroke-opacity:1; 
stroke-linecap:round; stroke-linejoin:round;">
</g>
<g style="fill:#000000; fill-opacity:0.0; 
stroke:#000000; stroke-width:59.0551; stroke-opacity:1; 
stroke-linecap:round; stroke-linejoin:round;">
<path d="M3937 62992
L4724 62992
" />
</g>
<g style="fill:#000000; fill-opacity:0.0; 
stroke:#000000; stroke-width:39.3701; stroke-opacity:1; 
stroke-linecap:round; stroke-linejoin:round;">
</g>
<g style="fill:#000000; fill-opacity:0.0; 
stroke:#000000; stroke-width:59.0551; stroke-opacity:1; 
stroke-linecap:round; stroke-linejoin:round;">
<path d="M4208 13864
L4452 13864
" />
<path d="M4160 14011
L4330 13499
L4501 14011
" />
</g>
<g style="fill:#000000; fill-opacity:0.0; 
stroke:#000000; stroke-width:39.3701; stroke-opacity:1; 
stroke-linecap:round; stroke-linejoin:round;">
</g>
<g style="fill:#000000; fill-opacity:0.0; 
stroke:#000000; stroke-width:59.0551; stroke-opacity:1; 
stroke-linecap:round; stroke-linejoin:round;">
<path d="M4367 33428
L4440 33452
L4464 33476
L4489 33525
L4489 33598
L4464 33647
L4440 33671
L4391 33696
L4196 33696
L4196 33184
L4367 33184
L4416 33208
L4440 33233
L4464 33281
L4464 33330
L4440 33379
L4416 33403
L4367 33428
L4196 33428
" />
</g>
<g style="fill:#000000; fill-opacity:0.0; 
stroke:#000000; stroke-width:39.3701; stroke-opacity:1; 
stroke-linecap:round; stroke-linejoin:round;">
</g>
<g style="fill:#000000; fill-opacity:0.0; 
stroke:#000000; stroke-width:59.0551; stroke-opacity:1; 
stroke-linecap:round; stroke-linejoin:round;">
<path d="M4489 53332
L4464 53356
L4391 53381
L4342 53381
L4269 53356
L4221 53308
L4196 53259
L4172 53161
L4172 53088
L4196 52991
L4221 52942
L4269 52893
L4342 52869
L4391 52869
L4464 52893
L4489 52918
" />
</g>
<g style="fill:#000000; fill-opacity:0.0; 
stroke:#000000; stroke-width:39.3701; stroke-opacity:1; 
stroke-linecap:round; stroke-linejoin:round;">
</g>
<g style="fill:#000000; fill-opacity:0.0; 
stroke:#000000; stroke-width:59.0551; stroke-opacity:1; 
stroke-linecap:round; stroke-linejoin:round;">
<path d="M4196 73066
L4196 72554
L4318 72554
L4391 72578
L4440 72627
L4464 72676
L4489 72773
L4489 72846
L4464 72944
L4440 72993
L4391 73041
L4318 73066
L4196 73066
" />
</g>
<g style="fill:#000000; fill-opacity:0.0; 
stroke:#000000; stroke-width:39.3701; stroke-opacity:1; 
stroke-linecap:round; stroke-linejoin:round;">
</g>
<g style="fill:#000000; fill-opacity:0.0; 
stroke:#000000; stroke-width:59.0551; stroke-opacity:1; 
stroke-linecap:round; stroke-linejoin:round;">
<path d="M112992 23622
L112205 23622
" />
</g>
<g style="fill:#000000; fill-opacity:0.0; 
stroke:#000000; stroke-width:39.3701; stroke-opacity:1; 
stroke-linecap:round; stroke-linejoin:round;">
</g>
<g style="fill:#000000; fill-opacity:0.0; 
stroke:#000000; stroke-width:59.0551; stroke-opacity:1; 
stroke-linecap:round; stroke-linejoin:round;">
<path d="M112992 43307
L112205 43307
" />
</g>
<g style="fill:#000000; fill-opacity:0.0; 
stroke:#000000; stroke-width:39.3701; stroke-opacity:1; 
stroke-linecap:round; stroke-linejoin:round;">
</g>
<g style="fill:#000000; fill-opacity:0.0; 
stroke:#000000; stroke-width:59.0551; stroke-opacity:1; 
stroke-linecap:round; stroke-linejoin:round;">
<path d="M112992 62992
L112205 62992
" />
</g>
<g style="fill:#000000; fill-opacity:0.0; 
stroke:#000000; stroke-width:39.3701; stroke-opacity:1; 
stroke-linecap:round; stroke-linejoin:round;">
</g>
<g style="fill:#000000; fill-opacity:0.0; 
stroke:#000000; stroke-width:59.0551; stroke-opacity:1; 
stroke-linecap:round; stroke-linejoin:round;">
<path d="M112477 13864
L112721 13864
" />
<path d="M112428 14011
L112599 13499
L112769 14011
" />
</g>
<g style="fill:#000000; fill-opacity:0.0; 
stroke:#000000; stroke-width:39.3701; stroke-opacity:1; 
stroke-linecap:round; stroke-linejoin:round;">
</g>
<g style="fill:#000000; fill-opacity:0.0; 
stroke:#000000; stroke-width:59.0551; stroke-opacity:1; 
stroke-linecap:round; stroke-linejoin:round;">
<path d="M112635 33428
L112708 33452
L112733 33476
L112757 33525
L112757 33598
L112733 33647
L112708 33671
L112660 33696
L112465 33696
L112465 33184
L112635 33184
L112684 33208
L112708 33233
L112733 33281
L112733 33330
L112708 33379
L112684 33403
L112635 33428
L112465 33428
" />
</g>
<g style="fill:#000000; fill-opacity:0.0; 
stroke:#000000; stroke-width:39.3701; stroke-opacity:1; 
stroke-linecap:round; stroke-linejoin:round;">
</g>
<g style="fill:#000000; fill-opacity:0.0; 
stroke:#000000; stroke-width:59.0551; stroke-opacity:1; 
stroke-linecap:round; stroke-linejoin:round;">
<path d="M112757 53332
L112733 53356
L112660 53381
L112611 53381
L112538 53356
L112489 53308
L112465 53259
L112440 53161
L112440 53088
L112465 52991
L112489 52942
L112538 52893
L112611 52869
L112660 52869
L112733 52893
L112757 52918
" />
</g>
<g style="fill:#000000; fill-opacity:0.0; 
stroke:#000000; stroke-width:39.3701; stroke-opacity:1; 
stroke-linecap:round; stroke-linejoin:round;">
</g>
<g style="fill:#000000; fill-opacity:0.0; 
stroke:#000000; stroke-width:59.0551; stroke-opacity:1; 
stroke-linecap:round; stroke-linejoin:round;">
<path d="M112465 73066
L112465 72554
L112587 72554
L112660 72578
L112708 72627
L112733 72676
L112757 72773
L112757 72846
L112733 72944
L112708 72993
L112660 73041
L112587 73066
L112465 73066
" />
</g>
<g style="fill:#000000; fill-opacity:0.0; 
stroke:#000000; stroke-width:39.3701; stroke-opacity:1; 
stroke-linecap:round; stroke-linejoin:round;">
</g>
<g style="fill:#000000; fill-opacity:0.0; 
stroke:#000000; stroke-width:59.0551; stroke-opacity:1; 
stroke-linecap:round; stroke-linejoin:round;">
<path d="M78911 76293
L78911 75703
L79051 75703
L79136 75731
L79192 75787
L79220 75843
L79248 75956
L79248 76040
L79220 76153
L79192 76209
L79136 76265
L79051 76293
L78911 76293
" />
<path d="M79754 76293
L79754 75984
L79726 75928
L79670 75899
L79557 75899
L79501 75928
" />
<path d="M79754 76265
L79698 76293
L79557 76293
L79501 76265
L79473 76209
L79473 76153
L79501 76096
L79557 76068
L79698 76068
L79754 76040
" />
<path d="M79951 75899
L80176 75899
" />
<path d="M80036 75703
L80036 76209
L80064 76265
L80120 76293
L80176 76293
" />
<path d="M80598 76265
L80542 76293
L80429 76293
L80373 76265
L80345 76209
L80345 75984
L80373 75928
L80429 75899
L80542 75899
L80598 75928
L80626 75984
L80626 76040
L80345 76096
" />
<path d="M80879 76237
L80907 76265
L80879 76293
L80851 76265
L80879 76237
L80879 76293
" />
<path d="M80879 75928
L80907 75956
L80879 75984
L80851 75956
L80879 75928
L80879 75984
" />
</g>
<g style="fill:#000000; fill-opacity:0.0; 
stroke:#000000; stroke-width:39.3701; stroke-opacity:1; 
stroke-linecap:round; stroke-linejoin:round;">
</g>
<g style="fill:#000000; fill-opacity:0.0; 
stroke:#000000; stroke-width:59.0551; stroke-opacity:1; 
stroke-linecap:round; stroke-linejoin:round;">
<path d="M69685 76577
L112205 76577
" />
</g>
<g style="fill:#000000; fill-opacity:0.0; 
stroke:#000000; stroke-width:39.3701; stroke-opacity:1; 
stroke-linecap:round; stroke-linejoin:round;">
</g>
<g style="fill:#000000; fill-opacity:0.0; 
stroke:#000000; stroke-width:59.0551; stroke-opacity:1; 
stroke-linecap:round; stroke-linejoin:round;">
<path d="M70249 77395
L70249 76805
" />
<path d="M70587 77395
L70334 77058
" />
<path d="M70587 76805
L70249 77142
" />
<path d="M70840 77395
L70840 77002
" />
<path d="M70840 76805
L70812 76833
L70840 76861
L70868 76833
L70840 76805
L70840 76861
" />
<path d="M71458 77339
L71430 77367
L71346 77395
L71290 77395
L71205 77367
L71149 77311
L71121 77255
L71093 77142
L71093 77058
L71121 76946
L71149 76889
L71205 76833
L71290 76805
L71346 76805
L71430 76833
L71458 76861
" />
<path d="M71965 77395
L71965 77086
L71937 77030
L71880 77002
L71768 77002
L71712 77030
" />
<path d="M71965 77367
L71908 77395
L71768 77395
L71712 77367
L71683 77311
L71683 77255
L71712 77199
L71768 77171
L71908 77171
L71965 77142
" />
<path d="M72499 77395
L72499 76805
" />
<path d="M72499 77367
L72443 77395
L72330 77395
L72274 77367
L72246 77339
L72218 77283
L72218 77114
L72246 77058
L72274 77030
L72330 77002
L72443 77002
L72499 77030
" />
<path d="M73230 77086
L73427 77086
" />
<path d="M73511 77395
L73230 77395
L73230 76805
L73511 76805
" />
<path d="M73764 77339
L73793 77367
L73764 77395
L73736 77367
L73764 77339
L73764 77395
" />
<path d="M74046 77395
L74046 76805
L74186 76805
L74271 76833
L74327 76889
L74355 76946
L74383 77058
L74383 77142
L74355 77255
L74327 77311
L74271 77367
L74186 77395
L74046 77395
" />
<path d="M74636 77339
L74664 77367
L74636 77395
L74608 77367
L74636 77339
L74636 77395
" />
<path d="M74889 77227
L75171 77227
" />
<path d="M74833 77395
L75030 76805
L75227 77395
" />
<path d="M75424 77339
L75452 77367
L75424 77395
L75395 77367
L75424 77339
L75424 77395
" />
<path d="M76605 77395
L76605 76805
" />
<path d="M76661 77171
L76830 77395
" />
<path d="M76830 77002
L76605 77227
" />
<path d="M77083 77395
L77083 77002
" />
<path d="M77083 76805
L77055 76833
L77083 76861
L77111 76833
L77083 76805
L77083 76861
" />
<path d="M77617 77367
L77561 77395
L77448 77395
L77392 77367
L77364 77339
L77336 77283
L77336 77114
L77364 77058
L77392 77030
L77448 77002
L77561 77002
L77617 77030
" />
<path d="M78123 77395
L78123 77086
L78095 77030
L78039 77002
L77926 77002
L77870 77030
" />
<path d="M78123 77367
L78067 77395
L77926 77395
L77870 77367
L77842 77311
L77842 77255
L77870 77199
L77926 77171
L78067 77171
L78123 77142
" />
<path d="M78658 77395
L78658 76805
" />
<path d="M78658 77367
L78601 77395
L78489 77395
L78433 77367
L78404 77339
L78376 77283
L78376 77114
L78404 77058
L78433 77030
L78489 77002
L78601 77002
L78658 77030
" />
<path d="M79642 77002
L79642 77395
" />
<path d="M79501 76777
L79361 77199
L79726 77199
" />
<path d="M79951 77339
L79979 77367
L79951 77395
L79923 77367
L79951 77339
L79951 77395
" />
<path d="M80542 77395
L80204 77395
" />
<path d="M80373 77395
L80373 76805
L80317 76889
L80260 76946
L80204 76974
" />
<path d="M80795 77339
L80823 77367
L80795 77395
L80767 77367
L80795 77339
L80795 77395
" />
<path d="M81188 76805
L81245 76805
L81301 76833
L81329 76861
L81357 76917
L81385 77030
L81385 77171
L81357 77283
L81329 77339
L81301 77367
L81245 77395
L81188 77395
L81132 77367
L81104 77339
L81076 77283
L81048 77171
L81048 77030
L81076 76917
L81104 76861
L81132 76833
L81188 76805
" />
<path d="M81638 77171
L82088 77171
" />
<path d="M82623 77395
L82623 77086
L82595 77030
L82538 77002
L82426 77002
L82370 77030
" />
<path d="M82623 77367
L82566 77395
L82426 77395
L82370 77367
L82341 77311
L82341 77255
L82370 77199
L82426 77171
L82566 77171
L82623 77142
" />
<path d="M82988 77395
L82932 77367
L82904 77311
L82904 76805
" />
<path d="M83213 77002
L83213 77592
" />
<path d="M83213 77030
L83269 77002
L83382 77002
L83438 77030
L83466 77058
L83494 77114
L83494 77283
L83466 77339
L83438 77367
L83382 77395
L83269 77395
L83213 77367
" />
<path d="M83748 77395
L83748 76805
" />
<path d="M84001 77395
L84001 77086
L83973 77030
L83916 77002
L83832 77002
L83776 77030
L83748 77058
" />
<path d="M84535 77395
L84535 77086
L84507 77030
L84451 77002
L84338 77002
L84282 77030
" />
<path d="M84535 77367
L84479 77395
L84338 77395
L84282 77367
L84254 77311
L84254 77255
L84282 77199
L84338 77171
L84479 77171
L84535 77142
" />
<path d="M84816 77171
L85266 77171
" />
<path d="M85041 77395
L85041 76946
" />
<path d="M85519 76861
L85547 76833
L85604 76805
L85744 76805
L85800 76833
L85829 76861
L85857 76917
L85857 76974
L85829 77058
L85491 77395
L85857 77395
" />
<path d="M86222 76805
L86278 76805
L86335 76833
L86363 76861
L86391 76917
L86419 77030
L86419 77171
L86391 77283
L86363 77339
L86335 77367
L86278 77395
L86222 77395
L86166 77367
L86138 77339
L86110 77283
L86082 77171
L86082 77030
L86110 76917
L86138 76861
L86166 76833
L86222 76805
" />
<path d="M86982 77395
L86644 77395
" />
<path d="M86813 77395
L86813 76805
L86757 76889
L86700 76946
L86644 76974
" />
<path d="M87488 76805
L87375 76805
L87319 76833
L87291 76861
L87235 76946
L87206 77058
L87206 77283
L87235 77339
L87263 77367
L87319 77395
L87431 77395
L87488 77367
L87516 77339
L87544 77283
L87544 77142
L87516 77086
L87488 77058
L87431 77030
L87319 77030
L87263 77058
L87235 77086
L87206 77142
" />
<path d="M87910 76805
L87966 76805
L88022 76833
L88050 76861
L88078 76917
L88106 77030
L88106 77171
L88078 77283
L88050 77339
L88022 77367
L87966 77395
L87910 77395
L87853 77367
L87825 77339
L87797 77283
L87769 77171
L87769 77030
L87797 76917
L87825 76861
L87853 76833
L87910 76805
" />
<path d="M88641 76805
L88359 76805
L88331 77086
L88359 77058
L88416 77030
L88556 77030
L88613 77058
L88641 77086
L88669 77142
L88669 77283
L88641 77339
L88613 77367
L88556 77395
L88416 77395
L88359 77367
L88331 77339
" />
<path d="M89231 77395
L88894 77395
" />
<path d="M89063 77395
L89063 76805
L89006 76889
L88950 76946
L88894 76974
" />
<path d="M89512 77395
L89625 77395
L89681 77367
L89709 77339
L89766 77255
L89794 77142
L89794 76917
L89766 76861
L89737 76833
L89681 76805
L89569 76805
L89512 76833
L89484 76861
L89456 76917
L89456 77058
L89484 77114
L89512 77142
L89569 77171
L89681 77171
L89737 77142
L89766 77114
L89794 77058
" />
<path d="M90356 77395
L90019 77395
" />
<path d="M90187 77395
L90187 76805
L90131 76889
L90075 76946
L90019 76974
" />
<path d="M90862 76805
L90750 76805
L90694 76833
L90665 76861
L90609 76946
L90581 77058
L90581 77283
L90609 77339
L90637 77367
L90694 77395
L90806 77395
L90862 77367
L90890 77339
L90919 77283
L90919 77142
L90890 77086
L90862 77058
L90806 77030
L90694 77030
L90637 77058
L90609 77086
L90581 77142
" />
<path d="M91425 77002
L91425 77395
" />
<path d="M91284 76777
L91144 77199
L91509 77199
" />
<path d="M91678 76805
L92072 76805
L91818 77395
" />
<path d="M92296 77171
L92746 77171
" />
<path d="M92521 77395
L92521 76946
" />
<path d="M93281 76805
L93168 76805
L93112 76833
L93084 76861
L93028 76946
L93000 77058
L93000 77283
L93028 77339
L93056 77367
L93112 77395
L93224 77395
L93281 77367
L93309 77339
L93337 77283
L93337 77142
L93309 77086
L93281 77058
L93224 77030
L93112 77030
L93056 77058
L93028 77086
L93000 77142
" />
<path d="M93674 77058
L93618 77030
L93590 77002
L93562 76946
L93562 76917
L93590 76861
L93618 76833
L93674 76805
L93787 76805
L93843 76833
L93871 76861
L93899 76917
L93899 76946
L93871 77002
L93843 77030
L93787 77058
L93674 77058
L93618 77086
L93590 77114
L93562 77171
L93562 77283
L93590 77339
L93618 77367
L93674 77395
L93787 77395
L93843 77367
L93871 77339
L93899 77283
L93899 77171
L93871 77114
L93843 77086
L93787 77058
" />
<path d="M94462 77395
L94124 77395
" />
<path d="M94293 77395
L94293 76805
L94237 76889
L94181 76946
L94124 76974
" />
<path d="M94968 77002
L94968 77395
" />
<path d="M94827 76777
L94687 77199
L95052 77199
" />
<path d="M95234 76644
L95699 76644
" />
<path d="M95530 77002
L95530 77395
" />
<path d="M95390 76777
L95249 77199
L95615 77199
" />
<path d="M95699 76644
L96262 76644
" />
<path d="M96093 77002
L96093 77395
" />
<path d="M95952 76777
L95812 77199
L96177 77199
" />
<path d="M96655 77002
L96655 77395
" />
<path d="M96402 77002
L96402 77311
L96430 77367
L96487 77395
L96571 77395
L96627 77367
L96655 77339
" />
<path d="M96937 77395
L96937 76805
" />
<path d="M96937 77030
L96993 77002
L97105 77002
L97162 77030
L97190 77058
L97218 77114
L97218 77283
L97190 77339
L97162 77367
L97105 77395
L96993 77395
L96937 77367
" />
<path d="M97724 77002
L97724 77395
" />
<path d="M97471 77002
L97471 77311
L97499 77367
L97555 77395
L97640 77395
L97696 77367
L97724 77339
" />
<path d="M98005 77002
L98005 77395
" />
<path d="M98005 77058
L98033 77030
L98090 77002
L98174 77002
L98230 77030
L98258 77086
L98258 77395
" />
<path d="M98455 77002
L98680 77002
" />
<path d="M98539 76805
L98539 77311
L98568 77367
L98624 77395
L98680 77395
" />
<path d="M99130 77002
L99130 77395
" />
<path d="M98877 77002
L98877 77311
L98905 77367
L98961 77395
L99046 77395
L99102 77367
L99130 77339
" />
<path d="M99721 77395
L99383 77395
" />
<path d="M99552 77395
L99552 76805
L99496 76889
L99439 76946
L99383 76974
" />
<path d="M100227 77002
L100227 77395
" />
<path d="M100086 76777
L99946 77199
L100311 77199
" />
<path d="M100536 77339
L100564 77367
L100536 77395
L100508 77367
L100536 77339
L100536 77395
" />
<path d="M100930 76805
L100986 76805
L101042 76833
L101070 76861
L101099 76917
L101127 77030
L101127 77171
L101099 77283
L101070 77339
L101042 77367
L100986 77395
L100930 77395
L100874 77367
L100845 77339
L100817 77283
L100789 77171
L100789 77030
L100817 76917
L100845 76861
L100874 76833
L100930 76805
" />
<path d="M101633 77002
L101633 77395
" />
<path d="M101492 76777
L101352 77199
L101717 77199
" />
<path d="M101942 77339
L101970 77367
L101942 77395
L101914 77367
L101942 77339
L101942 77395
" />
<path d="M102533 77395
L102195 77395
" />
<path d="M102364 77395
L102364 76805
L102308 76889
L102251 76946
L102195 76974
" />
<path d="M102786 77171
L103236 77171
" />
<path d="M103517 77002
L103517 77592
" />
<path d="M103517 77030
L103573 77002
L103686 77002
L103742 77030
L103770 77058
L103798 77114
L103798 77283
L103770 77339
L103742 77367
L103686 77395
L103573 77395
L103517 77367
" />
<path d="M104051 77395
L104051 77002
" />
<path d="M104051 77114
L104079 77058
L104108 77030
L104164 77002
L104220 77002
" />
<path d="M104501 77395
L104445 77367
L104417 77339
L104389 77283
L104389 77114
L104417 77058
L104445 77030
L104501 77002
L104586 77002
L104642 77030
L104670 77058
L104698 77114
L104698 77283
L104670 77339
L104642 77367
L104586 77395
L104501 77395
" />
<path d="M105204 77395
L105204 76805
" />
<path d="M105204 77367
L105148 77395
L105036 77395
L104979 77367
L104951 77339
L104923 77283
L104923 77114
L104951 77058
L104979 77030
L105036 77002
L105148 77002
L105204 77030
" />
<path d="M105739 77002
L105739 77395
" />
<path d="M105485 77002
L105485 77311
L105514 77367
L105570 77395
L105654 77395
L105710 77367
L105739 77339
" />
<path d="M106273 77367
L106217 77395
L106104 77395
L106048 77367
L106020 77339
L105992 77283
L105992 77114
L106020 77058
L106048 77030
L106104 77002
L106217 77002
L106273 77030
" />
<path d="M106442 77002
L106667 77002
" />
<path d="M106526 76805
L106526 77311
L106554 77367
L106610 77395
L106667 77395
" />
</g>
<g style="fill:#000000; fill-opacity:0.0; 
stroke:#000000; stroke-width:39.3701; stroke-opacity:1; 
stroke-linecap:round; stroke-linejoin:round;">
</g>
<g style="fill:#000000; fill-opacity:0.0; 
stroke:#000000; stroke-width:59.0551; stroke-opacity:1; 
stroke-linecap:round; stroke-linejoin:round;">
<path d="M69685 75396
L112205 75396
" />
</g>
<g style="fill:#000000; fill-opacity:0.0; 
stroke:#000000; stroke-width:39.3701; stroke-opacity:1; 
stroke-linecap:round; stroke-linejoin:round;">
</g>
<g style="fill:#000000; fill-opacity:0.0; 
stroke:#000000; stroke-width:118.11; stroke-opacity:1; 
stroke-linecap:round; stroke-linejoin:round;">
<path d="M104099 76293
L103902 76012
" />
<path d="M103761 76293
L103761 75703
L103986 75703
L104042 75731
L104070 75759
L104099 75815
L104099 75899
L104070 75956
L104042 75984
L103986 76012
L103761 76012
" />
<path d="M104577 76265
L104520 76293
L104408 76293
L104352 76265
L104323 76209
L104323 75984
L104352 75928
L104408 75899
L104520 75899
L104577 75928
L104605 75984
L104605 76040
L104323 76096
" />
<path d="M104802 75899
L104942 76293
L105083 75899
" />
<path d="M105308 76237
L105336 76265
L105308 76293
L105280 76265
L105308 76237
L105308 76293
" />
<path d="M105308 75928
L105336 75956
L105308 75984
L105280 75956
L105308 75928
L105308 75984
" />
</g>
<g style="fill:#000000; fill-opacity:0.0; 
stroke:#000000; stroke-width:39.3701; stroke-opacity:1; 
stroke-linecap:round; stroke-linejoin:round;">
</g>
<g style="fill:#000000; fill-opacity:0.0; 
stroke:#000000; stroke-width:59.0551; stroke-opacity:1; 
stroke-linecap:round; stroke-linejoin:round;">
<path d="M70221 76265
L70305 76293
L70446 76293
L70502 76265
L70530 76237
L70559 76181
L70559 76124
L70530 76068
L70502 76040
L70446 76012
L70334 75984
L70277 75956
L70249 75928
L70221 75871
L70221 75815
L70249 75759
L70277 75731
L70334 75703
L70474 75703
L70559 75731
" />
<path d="M70812 76293
L70812 75899
" />
<path d="M70812 75703
L70784 75731
L70812 75759
L70840 75731
L70812 75703
L70812 75759
" />
<path d="M71037 75899
L71346 75899
L71037 76293
L71346 76293
" />
<path d="M71796 76265
L71740 76293
L71627 76293
L71571 76265
L71543 76209
L71543 75984
L71571 75928
L71627 75899
L71740 75899
L71796 75928
L71824 75984
L71824 76040
L71543 76096
" />
<path d="M72077 76237
L72105 76265
L72077 76293
L72049 76265
L72077 76237
L72077 76293
" />
<path d="M72077 75928
L72105 75956
L72077 75984
L72049 75956
L72077 75928
L72077 75984
" />
<path d="M72780 76124
L73061 76124
" />
<path d="M72724 76293
L72921 75703
L73118 76293
" />
<path d="M73568 75899
L73568 76293
" />
<path d="M73427 75674
L73286 76096
L73652 76096
" />
</g>
<g style="fill:#000000; fill-opacity:0.0; 
stroke:#000000; stroke-width:39.3701; stroke-opacity:1; 
stroke-linecap:round; stroke-linejoin:round;">
</g>
<g style="fill:#000000; fill-opacity:0.0; 
stroke:#000000; stroke-width:59.0551; stroke-opacity:1; 
stroke-linecap:round; stroke-linejoin:round;">
<path d="M103714 77395
L103714 76805
" />
<path d="M104248 77395
L104248 76805
" />
<path d="M104248 77367
L104192 77395
L104079 77395
L104023 77367
L103995 77339
L103967 77283
L103967 77114
L103995 77058
L104023 77030
L104079 77002
L104192 77002
L104248 77030
" />
<path d="M104529 77339
L104557 77367
L104529 77395
L104501 77367
L104529 77339
L104529 77395
" />
<path d="M104529 77030
L104557 77058
L104529 77086
L104501 77058
L104529 77030
L104529 77086
" />
<path d="M105570 77395
L105232 77395
" />
<path d="M105401 77395
L105401 76805
L105345 76889
L105289 76946
L105232 76974
" />
<path d="M106245 76777
L105739 77536
" />
<path d="M106751 77395
L106413 77395
" />
<path d="M106582 77395
L106582 76805
L106526 76889
L106470 76946
L106413 76974
" />
</g>
<g style="fill:#000000; fill-opacity:0.0; 
stroke:#000000; stroke-width:39.3701; stroke-opacity:1; 
stroke-linecap:round; stroke-linejoin:round;">
</g>
<g style="fill:#000000; fill-opacity:0.0; 
stroke:#000000; stroke-width:59.0551; stroke-opacity:1; 
stroke-linecap:round; stroke-linejoin:round;">
<path d="M69685 73821
L112205 73821
" />
</g>
<g style="fill:#000000; fill-opacity:0.0; 
stroke:#000000; stroke-width:39.3701; stroke-opacity:1; 
stroke-linecap:round; stroke-linejoin:round;">
</g>
<g style="fill:#000000; fill-opacity:0.0; 
stroke:#000000; stroke-width:157.48; stroke-opacity:1; 
stroke-linecap:round; stroke-linejoin:round;">
<path d="M70360 74099
L70810 74099
" />
<path d="M70486 74886
L70585 74099
" />
<path d="M70974 74886
L71039 74361
" />
<path d="M71072 74099
L71030 74136
L71063 74174
L71105 74136
L71072 74099
L71063 74174
" />
<path d="M71302 74361
L71602 74361
" />
<path d="M71447 74099
L71363 74774
L71391 74849
L71461 74886
L71536 74886
" />
<path d="M71911 74886
L71841 74849
L71813 74774
L71897 74099
" />
<path d="M72516 74849
L72436 74886
L72286 74886
L72216 74849
L72187 74774
L72225 74474
L72272 74399
L72352 74361
L72501 74361
L72572 74399
L72600 74474
L72591 74549
L72206 74624
" />
<path d="M72895 74811
L72928 74849
L72886 74886
L72853 74849
L72895 74811
L72886 74886
" />
<path d="M72947 74399
L72980 74436
L72937 74474
L72905 74436
L72947 74399
L72937 74474
" />
</g>
<g style="fill:#000000; fill-opacity:0.0; 
stroke:#000000; stroke-width:39.3701; stroke-opacity:1; 
stroke-linecap:round; stroke-linejoin:round;">
</g>
<g style="fill:#000000; fill-opacity:0.0; 
stroke:#000000; stroke-width:59.0551; stroke-opacity:1; 
stroke-linecap:round; stroke-linejoin:round;">
<path d="M70446 73070
L70249 73070
" />
<path d="M70249 73380
L70249 72789
L70530 72789
" />
<path d="M70755 73380
L70755 72986
" />
<path d="M70755 72789
L70727 72817
L70755 72845
L70784 72817
L70755 72789
L70755 72845
" />
<path d="M71121 73380
L71065 73352
L71037 73295
L71037 72789
" />
<path d="M71571 73352
L71515 73380
L71402 73380
L71346 73352
L71318 73295
L71318 73070
L71346 73014
L71402 72986
L71515 72986
L71571 73014
L71599 73070
L71599 73127
L71318 73183
" />
<path d="M71852 73323
L71880 73352
L71852 73380
L71824 73352
L71852 73323
L71852 73380
" />
<path d="M71852 73014
L71880 73042
L71852 73070
L71824 73042
L71852 73014
L71852 73070
" />
<path d="M72696 72789
L72808 72789
L72865 72817
L72921 72874
L72949 72986
L72949 73183
L72921 73295
L72865 73352
L72808 73380
L72696 73380
L72640 73352
L72583 73295
L72555 73183
L72555 72986
L72583 72874
L72640 72817
L72696 72789
" />
<path d="M73202 72986
L73202 73577
" />
<path d="M73202 73014
L73258 72986
L73371 72986
L73427 73014
L73455 73042
L73483 73099
L73483 73267
L73455 73323
L73427 73352
L73371 73380
L73258 73380
L73202 73352
" />
<path d="M73961 73352
L73905 73380
L73793 73380
L73736 73352
L73708 73295
L73708 73070
L73736 73014
L73793 72986
L73905 72986
L73961 73014
L73989 73070
L73989 73127
L73708 73183
" />
<path d="M74242 72986
L74242 73380
" />
<path d="M74242 73042
L74271 73014
L74327 72986
L74411 72986
L74467 73014
L74496 73070
L74496 73380
" />
<path d="M74777 73380
L74777 72789
L74917 72789
L75002 72817
L75058 72874
L75086 72930
L75114 73042
L75114 73127
L75086 73239
L75058 73295
L75002 73352
L74917 73380
L74777 73380
" />
<path d="M75367 73380
L75367 72986
" />
<path d="M75367 73099
L75395 73042
L75424 73014
L75480 72986
L75536 72986
" />
<path d="M75817 73380
L75761 73352
L75733 73323
L75705 73267
L75705 73099
L75733 73042
L75761 73014
L75817 72986
L75902 72986
L75958 73014
L75986 73042
L76014 73099
L76014 73267
L75986 73323
L75958 73352
L75902 73380
L75817 73380
" />
<path d="M76267 72986
L76267 73577
" />
<path d="M76267 73014
L76323 72986
L76436 72986
L76492 73014
L76520 73042
L76548 73099
L76548 73267
L76520 73323
L76492 73352
L76436 73380
L76323 73380
L76267 73352
" />
<path d="M76717 72789
L76914 73380
L77111 72789
" />
<path d="M77280 72845
L77308 72817
L77364 72789
L77505 72789
L77561 72817
L77589 72845
L77617 72902
L77617 72958
L77589 73042
L77251 73380
L77617 73380
" />
<path d="M77870 73323
L77898 73352
L77870 73380
L77842 73352
L77870 73323
L77870 73380
" />
<path d="M78151 73380
L78151 72789
" />
<path d="M78208 73155
L78376 73380
" />
<path d="M78376 72986
L78151 73211
" />
<path d="M78629 73380
L78629 72986
" />
<path d="M78629 72789
L78601 72817
L78629 72845
L78658 72817
L78629 72789
L78629 72845
" />
<path d="M79164 73352
L79108 73380
L78995 73380
L78939 73352
L78911 73323
L78883 73267
L78883 73099
L78911 73042
L78939 73014
L78995 72986
L79108 72986
L79164 73014
" />
<path d="M79670 73380
L79670 73070
L79642 73014
L79586 72986
L79473 72986
L79417 73014
" />
<path d="M79670 73352
L79614 73380
L79473 73380
L79417 73352
L79389 73295
L79389 73239
L79417 73183
L79473 73155
L79614 73155
L79670 73127
" />
<path d="M80204 73380
L80204 72789
" />
<path d="M80204 73352
L80148 73380
L80036 73380
L79979 73352
L79951 73323
L79923 73267
L79923 73099
L79951 73042
L79979 73014
L80036 72986
L80148 72986
L80204 73014
" />
<path d="M80345 73436
L80795 73436
" />
<path d="M80935 72986
L80935 73577
" />
<path d="M80935 73014
L80992 72986
L81104 72986
L81160 73014
L81188 73042
L81217 73099
L81217 73267
L81188 73323
L81160 73352
L81104 73380
L80992 73380
L80935 73352
" />
<path d="M81723 73352
L81667 73380
L81554 73380
L81498 73352
L81470 73323
L81442 73267
L81442 73099
L81470 73042
L81498 73014
L81554 72986
L81667 72986
L81723 73014
" />
<path d="M81976 73380
L81976 72789
" />
<path d="M81976 73014
L82032 72986
L82145 72986
L82201 73014
L82229 73042
L82257 73099
L82257 73267
L82229 73323
L82201 73352
L82145 73380
L82032 73380
L81976 73352
" />
</g>
<g style="fill:#000000; fill-opacity:0.0; 
stroke:#000000; stroke-width:39.3701; stroke-opacity:1; 
stroke-linecap:round; stroke-linejoin:round;">
</g>
<g style="fill:#000000; fill-opacity:0.0; 
stroke:#000000; stroke-width:59.0551; stroke-opacity:1; 
stroke-linecap:round; stroke-linejoin:round;">
<path d="M69685 71459
L112205 71459
" />
</g>
<g style="fill:#000000; fill-opacity:0.0; 
stroke:#000000; stroke-width:39.3701; stroke-opacity:1; 
stroke-linecap:round; stroke-linejoin:round;">
</g>
<g style="fill:#000000; fill-opacity:0.0; 
stroke:#000000; stroke-width:59.0551; stroke-opacity:1; 
stroke-linecap:round; stroke-linejoin:round;">
<path d="M70221 72289
L70305 72317
L70446 72317
L70502 72289
L70530 72260
L70559 72204
L70559 72148
L70530 72092
L70502 72064
L70446 72036
L70334 72007
L70277 71979
L70249 71951
L70221 71895
L70221 71839
L70249 71782
L70277 71754
L70334 71726
L70474 71726
L70559 71754
" />
<path d="M70812 72317
L70812 71726
" />
<path d="M71065 72317
L71065 72007
L71037 71951
L70980 71923
L70896 71923
L70840 71951
L70812 71979
" />
<path d="M71571 72289
L71515 72317
L71402 72317
L71346 72289
L71318 72232
L71318 72007
L71346 71951
L71402 71923
L71515 71923
L71571 71951
L71599 72007
L71599 72064
L71318 72120
" />
<path d="M72077 72289
L72021 72317
L71908 72317
L71852 72289
L71824 72232
L71824 72007
L71852 71951
L71908 71923
L72021 71923
L72077 71951
L72105 72007
L72105 72064
L71824 72120
" />
<path d="M72274 71923
L72499 71923
" />
<path d="M72358 71726
L72358 72232
L72386 72289
L72443 72317
L72499 72317
" />
<path d="M72696 72260
L72724 72289
L72696 72317
L72668 72289
L72696 72260
L72696 72317
" />
<path d="M72696 71951
L72724 71979
L72696 72007
L72668 71979
L72696 71951
L72696 72007
" />
</g>
<g style="fill:#000000; fill-opacity:0.0; 
stroke:#000000; stroke-width:39.3701; stroke-opacity:1; 
stroke-linecap:round; stroke-linejoin:round;">
</g>
<g style="fill:#000000; fill-opacity:0.0; 
stroke:#000000; stroke-width:59.0551; stroke-opacity:1; 
stroke-linecap:round; stroke-linejoin:round;">
<path d="M77559 75396
L77559 76577
" />
</g>
<g style="fill:#000000; fill-opacity:0.0; 
stroke:#000000; stroke-width:39.3701; stroke-opacity:1; 
stroke-linecap:round; stroke-linejoin:round;">
</g>
<g style="fill:#000000; fill-opacity:0.0; 
stroke:#000000; stroke-width:59.0551; stroke-opacity:1; 
stroke-linecap:round; stroke-linejoin:round;">
<path d="M102756 75396
L102756 77955
" />
</g>
<g style="fill:#000000; fill-opacity:0.0; 
stroke:#000000; stroke-width:39.3701; stroke-opacity:1; 
stroke-linecap:round; stroke-linejoin:round;">
<path d="M20988 53510
L19681 53144
" />
<path d="M22256 53833
L20988 53510
" />
<path d="M24296 54305
L22256 53833
" />
<path d="M26626 54770
L24296 54305
" />
<path d="M28697 55116
L26626 54770
" />
<path d="M30784 55400
L28697 55116
" />
<path d="M32894 55620
L30784 55400
" />
<path d="M34937 55781
L32894 55620
" />
<path d="M36567 55864
L34937 55781
" />
<path d="M38819 55907
L36567 55864
" />
<path d="M40386 55907
L38819 55907
" />
<path d="M41815 55872
L40386 55907
" />
<path d="M43882 55770
L41815 55872
" />
<path d="M45607 55644
L43882 55770
" />
<path d="M47622 55431
L45607 55644
" />
<path d="M49197 55234
L47622 55431
" />
<path d="M51193 54927
L49197 55234
" />
<path d="M53288 54541
L51193 54927
" />
<path d="M54823 54218
L53288 54541
" />
<path d="M56284 53880
L54823 54218
" />
<path d="M57953 53451
L56284 53880
" />
<path d="M59051 53144
L57953 53451
" />
<path d="M59055.1 18110.2 A1574.8 1574.8 0.0 0 0 57480.3 16535.4 " />
<path d="M21259.8 16535.4 A1574.8 1574.8 0.0 0 0 19685 18110.2 " />
<path d="M59055 18503
L59055 25984
" />
<path d="M19685 18110
L19685 53149
" />
<path d="M59055 18110
L59055 53149
" />
<path d="M21259 16535
L57480 16535
" />
</g>
<g style="fill:#000000; fill-opacity:0.0; 
stroke:#000000; stroke-width:19.685; stroke-opacity:1; 
stroke-linecap:round; stroke-linejoin:round;">
<path d="M27903 26395
L24832 26395
" />
<path d="M27903 27930
L24832 27930
" />
<path d="M27903 26395
L27903 27930
" />
<path d="M24832 26395
L24832 27930
" />
<path d="M35797 20683
L33238 20683
" />
<path d="M35797 21942
L33238 21942
" />
<path d="M35797 20683
L35797 21942
" />
<path d="M33238 20683
L33238 21942
" />
<path d="M30076 26769
L28659 26769
" />
<path d="M30076 27556
L28659 27556
" />
<path d="M30076 26769
L30076 27556
" />
<path d="M28659 26769
L28659 27556
" />
<path d="M28874 23154
L28874 24571
" />
<path d="M29661 23154
L29661 24571
" />
<path d="M28874 23154
L29661 23154
" />
<path d="M28874 24571
L29661 24571
" />
<path d="M31066 27683
L28468 27683
" />
<path d="M31066 28942
L28468 28942
" />
<path d="M31066 27683
L31066 28942
" />
<path d="M28468 27683
L28468 28942
" />
<path d="M28874 24733
L28874 25992
" />
<path d="M29661 24733
L29661 25992
" />
<path d="M28874 24733
L29661 24733
" />
<path d="M28874 25992
L29661 25992
" />
<path d="M31222 29295
L26812 29295
" />
<path d="M31222 30830
L26812 30830
" />
<path d="M31222 29295
L31222 30830
" />
<path d="M26812 29295
L26812 30830
" />
<path d="M46891 20794
L46891 22211
" />
<path d="M47678 20794
L47678 22211
" />
<path d="M46891 20794
L47678 20794
" />
<path d="M46891 22211
L47678 22211
" />
<path d="M57512 23019
L57512 21601
" />
<path d="M56725 23019
L56725 21601
" />
<path d="M57512 23019
L56725 23019
" />
<path d="M57512 21601
L56725 21601
" />
<path d="M48912 21719
L48912 20301
" />
<path d="M48125 21719
L48125 20301
" />
<path d="M48912 21719
L48125 21719
" />
<path d="M48912 20301
L48125 20301
" />
<path d="M55925 21601
L55925 23019
" />
<path d="M56712 21601
L56712 23019
" />
<path d="M55925 21601
L56712 21601
" />
<path d="M55925 23019
L56712 23019
" />
<path d="M44863 23493
L44863 22233
" />
<path d="M44076 23493
L44076 22233
" />
<path d="M44863 23493
L44076 23493
" />
<path d="M44863 22233
L44076 22233
" />
<path d="M56878 20933
L56878 19673
" />
<path d="M56091 20933
L56091 19673
" />
<path d="M56878 20933
L56091 20933
" />
<path d="M56878 19673
L56091 19673
" />
<path d="M57525 21601
L57525 23019
" />
<path d="M58312 21601
L58312 23019
" />
<path d="M57525 21601
L58312 21601
" />
<path d="M57525 23019
L58312 23019
" />
<path d="M57944 20220
L57944 21401
" />
<path d="M57944 21401
L58692 21401
" />
<path d="M58692 20220
L58692 21401
" />
<path d="M57944 20220
L58692 20220
" />
<path d="M57209 23436
L56028 23436
" />
<path d="M56028 23436
L56028 24184
" />
<path d="M57209 24184
L56028 24184
" />
<path d="M57209 23436
L57209 24184
" />
<path d="M52435 23333
L53734 23333
" />
<path d="M53734 23333
L53734 22073
" />
<path d="M53734 22073
L52435 22073
" />
<path d="M52435 22073
L52435 23333
" />
<path d="M49785 23233
L51084 23233
" />
<path d="M51084 23233
L51084 21973
" />
<path d="M51084 21973
L49785 21973
" />
<path d="M49785 21973
L49785 23233
" />
<path d="M48063 28903
L48063 27643
" />
<path d="M47276 28903
L47276 27643
" />
<path d="M48063 28903
L47276 28903
" />
<path d="M48063 27643
L47276 27643
" />
<path d="M45076 20733
L45076 21993
" />
<path d="M45863 20733
L45863 21993
" />
<path d="M45076 20733
L45863 20733
" />
<path d="M45076 21993
L45863 21993
" />
<path d="M48388 23304
L49648 23304
" />
<path d="M48388 22516
L49648 22516
" />
<path d="M48388 23304
L48388 22516
" />
<path d="M49648 23304
L49648 22516
" />
<path d="M53178 24733
L53178 23473
" />
<path d="M52391 24733
L52391 23473
" />
<path d="M53178 24733
L52391 24733
" />
<path d="M53178 23473
L52391 23473
" />
<path d="M51928 23233
L51928 21973
" />
<path d="M51141 23233
L51141 21973
" />
<path d="M51928 23233
L51141 23233
" />
<path d="M51928 21973
L51141 21973
" />
<path d="M49725 20380
L49725 21640
" />
<path d="M50512 20380
L50512 21640
" />
<path d="M49725 20380
L50512 20380
" />
<path d="M49725 21640
L50512 21640
" />
<path d="M53925 19680
L53925 20940
" />
<path d="M54712 19680
L54712 20940
" />
<path d="M53925 19680
L54712 19680
" />
<path d="M53925 20940
L54712 20940
" />
<path d="M52525 20380
L52525 21640
" />
<path d="M53312 20380
L53312 21640
" />
<path d="M52525 20380
L53312 20380
" />
<path d="M52525 21640
L53312 21640
" />
<path d="M57144 20220
L57144 21401
" />
<path d="M57144 21401
L57892 21401
" />
<path d="M57892 20220
L57892 21401
" />
<path d="M57144 20220
L57892 20220
" />
<path d="M48340 27623
L48340 28922
" />
<path d="M48340 28922
L49600 28922
" />
<path d="M49600 28922
L49600 27623
" />
<path d="M49600 27623
L48340 27623
" />
<path d="M50525 20380
L50525 21640
" />
<path d="M51312 20380
L51312 21640
" />
<path d="M50525 20380
L51312 20380
" />
<path d="M50525 21640
L51312 21640
" />
<path d="M49776 38364
L49776 39781
" />
<path d="M50563 38364
L50563 39781
" />
<path d="M49776 38364
L50563 38364
" />
<path d="M49776 39781
L50563 39781
" />
<path d="M28763 40081
L28763 38664
" />
<path d="M27976 40081
L27976 38664
" />
<path d="M28763 40081
L27976 40081
" />
<path d="M28763 38664
L27976 38664
" />
<path d="M40712 54140
L40712 52880
" />
<path d="M39925 54140
L39925 52880
" />
<path d="M40712 54140
L39925 54140
" />
<path d="M40712 52880
L39925 52880
" />
<path d="M38975 52880
L38975 54140
" />
<path d="M39762 52880
L39762 54140
" />
<path d="M38975 52880
L39762 52880
" />
<path d="M38975 54140
L39762 54140
" />
<path d="M37925 53480
L37925 54740
" />
<path d="M38712 53480
L38712 54740
" />
<path d="M37925 53480
L38712 53480
" />
<path d="M37925 54740
L38712 54740
" />
<path d="M37925 52130
L37925 53390
" />
<path d="M38712 52130
L38712 53390
" />
<path d="M37925 52130
L38712 52130
" />
<path d="M37925 53390
L38712 53390
" />
<path d="M38602 42736
L29114 42736
" />
<path d="M38602 35610
L29114 35610
" />
<path d="M38602 42736
L38602 35610
" />
<path d="M29114 42736
L29114 35610
" />
<path d="M40137 35610
L49625 35610
" />
<path d="M40137 42736
L49625 42736
" />
<path d="M40137 35610
L40137 42736
" />
<path d="M49625 35610
L49625 42736
" />
<circle cx="57874" cy="17716.5" r="610.236" /> 
<circle cx="57874" cy="52362.2" r="610.236" /> 
<circle cx="20866.1" cy="52362.2" r="610.236" /> 
<path d="M55810 40504
L57227 40504
" />
<path d="M55810 39716
L57227 39716
" />
<path d="M55810 40504
L55810 39716
" />
<path d="M57227 40504
L57227 39716
" />
<path d="M55109 39736
L53928 39736
" />
<path d="M53928 39736
L53928 40484
" />
<path d="M55109 40484
L53928 40484
" />
<path d="M55109 39736
L55109 40484
" />
<path d="M56368 34480
L55069 34480
" />
<path d="M55069 34480
L55069 35740
" />
<path d="M55069 35740
L56368 35740
" />
<path d="M56368 35740
L56368 34480
" />
<path d="M56369 35740
L57668 35740
" />
<path d="M57668 35740
L57668 34480
" />
<path d="M57668 34480
L56369 34480
" />
<path d="M56369 34480
L56369 35740
" />
<path d="M53569 35740
L54868 35740
" />
<path d="M54868 35740
L54868 34480
" />
<path d="M54868 34480
L53569 34480
" />
<path d="M53569 34480
L53569 35740
" />
<path d="M56112 34040
L56112 32780
" />
<path d="M55325 34040
L55325 32780
" />
<path d="M56112 34040
L55325 34040
" />
<path d="M56112 32780
L55325 32780
" />
<path d="M53025 39280
L53025 40540
" />
<path d="M53812 39280
L53812 40540
" />
<path d="M53025 39280
L53812 39280
" />
<path d="M53025 40540
L53812 40540
" />
<path d="M56625 32780
L56625 34040
" />
<path d="M57412 32780
L57412 34040
" />
<path d="M56625 32780
L57412 32780
" />
<path d="M56625 34040
L57412 34040
" />
<path d="M57725 39080
L57725 40340
" />
<path d="M58512 39080
L58512 40340
" />
<path d="M57725 39080
L58512 39080
" />
<path d="M57725 40340
L58512 40340
" />
<path d="M53425 32780
L53425 34040
" />
<path d="M54212 32780
L54212 34040
" />
<path d="M53425 32780
L54212 32780
" />
<path d="M53425 34040
L54212 34040
" />
<path d="M55012 34040
L55012 32780
" />
<path d="M54225 34040
L54225 32780
" />
<path d="M55012 34040
L54225 34040
" />
<path d="M55012 32780
L54225 32780
" />
<path d="M58212 34040
L58212 32780
" />
<path d="M57425 34040
L57425 32780
" />
<path d="M58212 34040
L57425 34040
" />
<path d="M58212 32780
L57425 32780
" />
<path d="M46225 27601
L46225 29019
" />
<path d="M47012 27601
L47012 29019
" />
<path d="M46225 27601
L47012 27601
" />
<path d="M46225 29019
L47012 29019
" />
<path d="M44610 27704
L46027 27704
" />
<path d="M44610 26916
L46027 26916
" />
<path d="M44610 27704
L44610 26916
" />
<path d="M46027 27704
L46027 26916
" />
<path d="M43912 28619
L43912 27201
" />
<path d="M43125 28619
L43125 27201
" />
<path d="M43912 28619
L43125 28619
" />
<path d="M43912 27201
L43125 27201
" />
<path d="M47448 30416
L46188 30416
" />
<path d="M47448 31204
L46188 31204
" />
<path d="M47448 30416
L47448 31204
" />
<path d="M46188 30416
L46188 31204
" />
<path d="M47012 30240
L47012 28980
" />
<path d="M46225 30240
L46225 28980
" />
<path d="M47012 30240
L46225 30240
" />
<path d="M47012 28980
L46225 28980
" />
<path d="M43912 30040
L43912 28780
" />
<path d="M43125 30040
L43125 28780
" />
<path d="M43912 30040
L43125 30040
" />
<path d="M43912 28780
L43125 28780
" />
<path d="M39279 43348
L40539 43348
" />
<path d="M39279 42560
L40539 42560
" />
<path d="M39279 43348
L39279 42560
" />
<path d="M40539 43348
L40539 42560
" />
<path d="M38196 35769
L39456 35769
" />
<path d="M38196 34981
L39456 34981
" />
<path d="M38196 35769
L38196 34981
" />
<path d="M39456 35769
L39456 34981
" />
<path d="M39279 35769
L40539 35769
" />
<path d="M39279 34981
L40539 34981
" />
<path d="M39279 35769
L39279 34981
" />
<path d="M40539 35769
L40539 34981
" />
<path d="M39456 42560
L38196 42560
" />
<path d="M39456 43348
L38196 43348
" />
<path d="M39456 42560
L39456 43348
" />
<path d="M38196 42560
L38196 43348
" />
</g> 
</svg>
