G04 #@! TF.GenerationSoftware,KiCad,Pcbnew,5.0.2-bee76a0~70~ubuntu18.04.1*
G04 #@! TF.CreationDate,2019-04-15T15:51:27+02:00*
G04 #@! TF.ProjectId,DIMMFrame,44494d4d-4672-4616-9d65-2e6b69636164,rev?*
G04 #@! TF.SameCoordinates,Original*
G04 #@! TF.FileFunction,Profile,NP*
%FSLAX46Y46*%
G04 Gerber Fmt 4.6, Leading zero omitted, Abs format (unit mm)*
G04 Created by KiCad (PCBNEW 5.0.2-bee76a0~70~ubuntu18.04.1) date Mo 15 Apr 2019 15:51:27 CEST*
%MOMM*%
%LPD*%
G01*
G04 APERTURE LIST*
%ADD10C,0.200000*%
G04 APERTURE END LIST*
D10*
X126984720Y-127961256D02*
X129005607Y-126092060D01*
X124639903Y-129344072D02*
X126984720Y-127961256D01*
X122056114Y-130201978D02*
X124639903Y-129344072D01*
X101043940Y-85965000D02*
X118547880Y-85965000D01*
X142028584Y-117492059D02*
X141257323Y-117331520D01*
X142028584Y-118868977D02*
X142028584Y-117492059D01*
X142028584Y-120245895D02*
X142028584Y-118868977D01*
X142028584Y-121622813D02*
X142028584Y-120245895D01*
X91890546Y-130496443D02*
X101033143Y-130496443D01*
X82747948Y-130496443D02*
X91890546Y-130496443D01*
X80010754Y-130201044D02*
X82747948Y-130496443D01*
X130489258Y-124690556D02*
X132053343Y-123768727D01*
X129139963Y-125936514D02*
X130489258Y-124690556D01*
X129106361Y-125975400D02*
X129139963Y-125936514D01*
X75572370Y-117927040D02*
X70804210Y-117926910D01*
X80340520Y-117927160D02*
X75572370Y-117927040D01*
X142030145Y-113507288D02*
X142032791Y-105622499D01*
X141258514Y-113667330D02*
X142030145Y-113507288D01*
X140629097Y-114095026D02*
X141258514Y-113667330D01*
X140205023Y-114726885D02*
X140629097Y-114095026D01*
X70804210Y-117926910D02*
X66036060Y-117926770D01*
X135600029Y-123000261D02*
X137207161Y-123000128D01*
X133775780Y-123196730D02*
X135600029Y-123000261D01*
X132053343Y-123768727D02*
X133775780Y-123196730D01*
X142028584Y-122999731D02*
X142028584Y-121622813D01*
X140421452Y-122999864D02*
X142028584Y-122999731D01*
X138814293Y-122999996D02*
X140421452Y-122999864D01*
X137207161Y-123000128D02*
X138814293Y-122999996D01*
X89706310Y-123520600D02*
X87685980Y-121790300D01*
X92020530Y-124651590D02*
X89706310Y-123520600D01*
X129072785Y-126014285D02*
X129106361Y-125975400D01*
X129039183Y-126053174D02*
X129072785Y-126014285D01*
X129005607Y-126092060D02*
X129039183Y-126053174D01*
X140049395Y-115499416D02*
X140205023Y-114726885D01*
X140204705Y-116271735D02*
X140049395Y-115499416D01*
X140628356Y-116903591D02*
X140204705Y-116271735D01*
X141257323Y-117331520D02*
X140628356Y-116903591D01*
X142040728Y-81968130D02*
X141962226Y-81579335D01*
X142038082Y-89852920D02*
X142040728Y-81968130D01*
X142035437Y-97737709D02*
X142038082Y-89852920D01*
X142032791Y-105622499D02*
X142035437Y-97737709D01*
X61880711Y-116274772D02*
X61454070Y-116908113D01*
X62037079Y-115499416D02*
X61880711Y-116274772D01*
X61880552Y-114724224D02*
X62037079Y-115499416D01*
X141041820Y-80969222D02*
X121041993Y-80969222D01*
X141430626Y-81047729D02*
X141041820Y-80969222D01*
X141748126Y-81261817D02*
X141430626Y-81047729D01*
X141962226Y-81579335D02*
X141748126Y-81261817D01*
X73028797Y-126052012D02*
X73061737Y-126089993D01*
X72995830Y-126014029D02*
X73028797Y-126052012D01*
X72962889Y-125976048D02*
X72995830Y-126014029D01*
X136051820Y-85965000D02*
X136051820Y-93955440D01*
X118547880Y-85965000D02*
X136051820Y-85965000D01*
X60045984Y-105622113D02*
X60045984Y-113506773D01*
X60045984Y-97737450D02*
X60045984Y-105622113D01*
X60045984Y-89852790D02*
X60045984Y-97737450D01*
X68298206Y-123197420D02*
X70020590Y-123770042D01*
X66472978Y-123000261D02*
X68298206Y-123197420D01*
X64866216Y-123000128D02*
X66472978Y-123000261D01*
X101043940Y-125451720D02*
X98641270Y-125451720D01*
X103446620Y-125451730D02*
X101043940Y-125451720D01*
X126516220Y-117927770D02*
X121748430Y-117928270D01*
X131284020Y-117927270D02*
X126516220Y-117927770D01*
X85108670Y-117927290D02*
X80340520Y-117927160D01*
X85393070Y-118515800D02*
X85108670Y-117927290D01*
X116980630Y-117928770D02*
X116696010Y-118517040D01*
X121748430Y-117928270D02*
X116980630Y-117928770D01*
X96238600Y-125451720D02*
X95486810Y-125426420D01*
X98641270Y-125451720D02*
X96238600Y-125451720D01*
X136051820Y-101945890D02*
X136051820Y-109936330D01*
X136051820Y-93955440D02*
X136051820Y-101945890D01*
X115838400Y-119963490D02*
X114402130Y-121790530D01*
X116696010Y-118517040D02*
X115838400Y-119963490D01*
X105849290Y-125451730D02*
X103446620Y-125451730D01*
X107562860Y-125307600D02*
X105849290Y-125451730D01*
X112381580Y-123520590D02*
X110851260Y-124301450D01*
X114402130Y-121790530D02*
X112381580Y-123520590D01*
X136051820Y-117926770D02*
X131284020Y-117927270D01*
X136051820Y-109936330D02*
X136051820Y-117926770D01*
X94014080Y-125223280D02*
X92020530Y-124651590D01*
X95486810Y-125426420D02*
X94014080Y-125223280D01*
X109237600Y-124910650D02*
X107562860Y-125307600D01*
X110851260Y-124301450D02*
X109237600Y-124910650D01*
X61453885Y-114091052D02*
X61880552Y-114724224D01*
X60821054Y-113663901D02*
X61453885Y-114091052D01*
X60045984Y-113506773D02*
X60821054Y-113663901D01*
X81042338Y-80969222D02*
X61044892Y-80969222D01*
X101042165Y-80969222D02*
X81042338Y-80969222D01*
X121041993Y-80969222D02*
X101042165Y-80969222D01*
X119318338Y-130496443D02*
X122056114Y-130201978D01*
X110175741Y-130496443D02*
X119318338Y-130496443D01*
X101033143Y-130496443D02*
X110175741Y-130496443D01*
X60045984Y-81968130D02*
X60045984Y-89852790D01*
X60124486Y-81579335D02*
X60045984Y-81968130D01*
X60045984Y-121622943D02*
X60045984Y-122999731D01*
X60045984Y-120246154D02*
X60045984Y-121622943D01*
X60045984Y-118869363D02*
X60045984Y-120246154D01*
X72929949Y-125938064D02*
X72962889Y-125976048D01*
X71583405Y-124692223D02*
X72929949Y-125938064D01*
X70020590Y-123770042D02*
X71583405Y-124692223D01*
X63259481Y-122999996D02*
X64866216Y-123000128D01*
X61652719Y-122999864D02*
X63259481Y-122999996D01*
X60045984Y-122999731D02*
X61652719Y-122999864D01*
X86250200Y-119962750D02*
X85393070Y-118515800D01*
X87685980Y-121790300D02*
X86250200Y-119962750D01*
X60045984Y-117492575D02*
X60045984Y-118869363D01*
X60821187Y-117335394D02*
X60045984Y-117492575D01*
X61454070Y-116908113D02*
X60821187Y-117335394D01*
X66036060Y-117926770D02*
X66036060Y-109936330D01*
X66036060Y-109936330D02*
X66036060Y-101945890D01*
X66036060Y-101945890D02*
X66036060Y-93955440D01*
X66036060Y-93955440D02*
X66036060Y-85965000D01*
X77427415Y-129342254D02*
X80010754Y-130201044D01*
X75082784Y-127958949D02*
X77427415Y-129342254D01*
X73061737Y-126089993D02*
X75082784Y-127958949D01*
X60338560Y-81261817D02*
X60124486Y-81579335D01*
X60656060Y-81047729D02*
X60338560Y-81261817D01*
X61044892Y-80969222D02*
X60656060Y-81047729D01*
X66036060Y-85965000D02*
X83540000Y-85965000D01*
X83540000Y-85965000D02*
X101043940Y-85965000D01*
M02*
