G04 #@! TF.GenerationSoftware,KiCad,Pcbnew,5.0.2-bee76a0~70~ubuntu18.04.1*
G04 #@! TF.CreationDate,2020-04-09T14:21:13+02:00*
G04 #@! TF.ProjectId,DIMMCartridge,44494d4d-4361-4727-9472-696467652e6b,rev?*
G04 #@! TF.SameCoordinates,Original*
G04 #@! TF.FileFunction,Soldermask,Top*
G04 #@! TF.FilePolarity,Negative*
%FSLAX46Y46*%
G04 Gerber Fmt 4.6, Leading zero omitted, Abs format (unit mm)*
G04 Created by KiCad (PCBNEW 5.0.2-bee76a0~70~ubuntu18.04.1) date Do 09 Apr 2020 14:21:13 CEST*
%MOMM*%
%LPD*%
G01*
G04 APERTURE LIST*
%ADD10C,0.100000*%
G04 APERTURE END LIST*
D10*
G36*
X138000000Y-132540000D02*
X104000000Y-132540000D01*
X104000000Y-130740000D01*
X138000000Y-130740000D01*
X138000000Y-132540000D01*
X138000000Y-132540000D01*
G37*
G36*
X100800000Y-132540000D02*
X62000000Y-132540000D01*
X62000000Y-130740000D01*
X100800000Y-130740000D01*
X100800000Y-132540000D01*
X100800000Y-132540000D01*
G37*
G36*
X61262521Y-126174586D02*
X61426309Y-126242429D01*
X61573720Y-126340926D01*
X61699074Y-126466280D01*
X61797571Y-126613691D01*
X61865414Y-126777479D01*
X61900000Y-126951356D01*
X61900000Y-127128644D01*
X61865414Y-127302521D01*
X61797571Y-127466309D01*
X61699074Y-127613720D01*
X61573720Y-127739074D01*
X61426309Y-127837571D01*
X61262521Y-127905414D01*
X61088644Y-127940000D01*
X60911356Y-127940000D01*
X60737479Y-127905414D01*
X60573691Y-127837571D01*
X60426280Y-127739074D01*
X60300926Y-127613720D01*
X60202429Y-127466309D01*
X60134586Y-127302521D01*
X60100000Y-127128644D01*
X60100000Y-126951356D01*
X60134586Y-126777479D01*
X60202429Y-126613691D01*
X60300926Y-126466280D01*
X60426280Y-126340926D01*
X60573691Y-126242429D01*
X60737479Y-126174586D01*
X60911356Y-126140000D01*
X61088644Y-126140000D01*
X61262521Y-126174586D01*
X61262521Y-126174586D01*
G37*
G36*
X139262521Y-126174586D02*
X139426309Y-126242429D01*
X139573720Y-126340926D01*
X139699074Y-126466280D01*
X139797571Y-126613691D01*
X139865414Y-126777479D01*
X139900000Y-126951356D01*
X139900000Y-127128644D01*
X139865414Y-127302521D01*
X139797571Y-127466309D01*
X139699074Y-127613720D01*
X139573720Y-127739074D01*
X139426309Y-127837571D01*
X139262521Y-127905414D01*
X139088644Y-127940000D01*
X138911356Y-127940000D01*
X138737479Y-127905414D01*
X138573691Y-127837571D01*
X138426280Y-127739074D01*
X138300926Y-127613720D01*
X138202429Y-127466309D01*
X138134586Y-127302521D01*
X138100000Y-127128644D01*
X138100000Y-126951356D01*
X138134586Y-126777479D01*
X138202429Y-126613691D01*
X138300926Y-126466280D01*
X138426280Y-126340926D01*
X138573691Y-126242429D01*
X138737479Y-126174586D01*
X138911356Y-126140000D01*
X139088644Y-126140000D01*
X139262521Y-126174586D01*
X139262521Y-126174586D01*
G37*
G36*
X141099997Y-78422318D02*
X141096512Y-92536793D01*
X141090000Y-118910000D01*
X105125000Y-118910000D01*
X105100614Y-118912402D01*
X105077165Y-118919515D01*
X105055554Y-118931066D01*
X105036612Y-118946612D01*
X105021066Y-118965554D01*
X105009515Y-118987165D01*
X105002402Y-119010614D01*
X105000000Y-119035000D01*
X105000000Y-123000000D01*
X95000000Y-123000000D01*
X95000000Y-119035000D01*
X94997598Y-119010614D01*
X94990485Y-118987165D01*
X94978934Y-118965554D01*
X94963388Y-118946612D01*
X94944446Y-118931066D01*
X94922835Y-118919515D01*
X94899386Y-118912402D01*
X94875000Y-118910000D01*
X58890000Y-118910000D01*
X58890000Y-78410000D01*
X141100000Y-78410000D01*
X141099997Y-78422318D01*
X141099997Y-78422318D01*
G37*
M02*
