M48
;DRILL file {KiCad 5.0.2-bee76a0~70~ubuntu18.04.1} date Do 09 Apr 2020 14:21:14 CEST
;FORMAT={-:-/ absolute / inch / decimal}
FMAT,2
INCH,TZ
T1C0.0118
T2C0.0157
%
G90
G05
T1
X4.4242Y-4.188
X4.4242Y-4.188
X4.2077Y-3.8632
X4.2077Y-3.8632
X3.6663Y-4.2963
X3.6663Y-4.2963
X3.8829Y-3.9715
X3.8829Y-3.9715
X3.9911Y-3.7549
X3.9911Y-3.7549
X3.9911Y-3.8632
X3.9911Y-3.8632
X3.5581Y-3.9715
X3.5581Y-3.9715
X4.8573Y-4.188
X4.8573Y-4.188
X4.3159Y-4.2963
X4.3159Y-4.2963
X3.3415Y-4.188
X3.3415Y-4.188
X4.5325Y-3.8632
X4.5325Y-3.8632
X3.4498Y-3.6467
X3.4498Y-3.6467
X4.6407Y-4.0797
X4.6407Y-4.0797
X3.8829Y-3.8632
X3.8829Y-3.8632
X4.5325Y-3.9715
X4.5325Y-3.9715
X4.2077Y-4.2963
X4.2077Y-4.2963
X3.9911Y-4.188
X3.9911Y-4.188
X3.5581Y-4.188
X3.5581Y-4.188
X3.8829Y-4.2963
X3.8829Y-4.2963
X3.125Y-4.188
X3.125Y-4.188
X3.3415Y-4.0797
X3.3415Y-4.0797
X4.0994Y-3.7549
X4.0994Y-3.7549
X4.5325Y-4.188
X4.5325Y-4.188
X4.0994Y-3.5384
X4.0994Y-3.5384
X4.2077Y-4.188
X4.2077Y-4.188
X4.4242Y-3.8632
X4.4242Y-3.8632
X3.7746Y-3.8632
X3.7746Y-3.8632
X4.5325Y-4.0797
X4.5325Y-4.0797
X5.0197Y-4.188
X5.0197Y-4.188
X3.7746Y-3.5384
X3.7746Y-3.5384
X3.6663Y-3.7549
X3.6663Y-3.7549
X4.6407Y-3.9715
X4.6407Y-3.9715
X3.5581Y-3.5384
X3.5581Y-3.5384
X4.0994Y-4.0797
X4.0994Y-4.0797
X4.2077Y-3.5384
X4.2077Y-3.5384
X3.7746Y-4.188
X3.7746Y-4.188
X3.3415Y-3.8632
X3.3415Y-3.8632
X4.749Y-3.6467
X4.749Y-3.6467
X4.4242Y-3.6467
X4.4242Y-3.6467
X3.2333Y-3.7549
X3.2333Y-3.7549
X3.6663Y-4.0797
X3.6663Y-4.0797
X4.4242Y-3.9715
X4.4242Y-3.9715
X3.7746Y-4.2963
X3.7746Y-4.2963
X3.3415Y-3.6467
X3.3415Y-3.6467
X4.5325Y-3.6467
X4.5325Y-3.6467
X3.9911Y-3.9715
X3.9911Y-3.9715
X4.2077Y-4.0797
X4.2077Y-4.0797
X4.8031Y-3.5384
X4.8031Y-3.5384
X4.2077Y-3.6467
X4.2077Y-3.6467
X4.6407Y-4.2963
X4.6407Y-4.2963
X4.8031Y-3.7549
X4.8031Y-3.7549
X3.5581Y-4.2963
X3.5581Y-4.2963
X3.8829Y-3.6467
X3.8829Y-3.6467
X3.7746Y-3.7549
X3.7746Y-3.7549
X3.3415Y-3.5384
X3.3415Y-3.5384
X3.2333Y-4.188
X3.2333Y-4.188
X3.5581Y-4.0797
X3.5581Y-4.0797
X3.9911Y-4.2963
X3.9911Y-4.2963
X3.4498Y-3.7549
X3.4498Y-3.7549
X4.5325Y-3.7549
X4.5325Y-3.7549
X3.0709Y-3.7549
X3.0709Y-3.7549
X3.3415Y-3.7549
X3.3415Y-3.7549
X3.8829Y-3.7549
X3.8829Y-3.7549
X4.2077Y-3.7549
X4.2077Y-3.7549
X4.0994Y-4.2963
X4.0994Y-4.2963
X3.7746Y-3.6467
X3.7746Y-3.6467
X4.4242Y-3.7549
X4.4242Y-3.7549
X3.4498Y-4.2963
X3.4498Y-4.2963
X4.3159Y-3.8632
X4.3159Y-3.8632
X4.3159Y-3.7549
X4.3159Y-3.7549
X3.4498Y-3.9715
X3.4498Y-3.9715
X4.0994Y-3.6467
X4.0994Y-3.6467
X3.5581Y-3.7549
X3.5581Y-3.7549
X3.8829Y-3.5384
X3.8829Y-3.5384
X4.8031Y-4.2963
X4.8031Y-4.2963
X4.6407Y-3.7549
X4.6407Y-3.7549
X3.4498Y-3.5384
X3.4498Y-3.5384
X4.5325Y-3.5384
X4.5325Y-3.5384
X3.2333Y-3.9715
X3.2333Y-3.9715
X4.3159Y-4.0797
X4.3159Y-4.0797
X3.3415Y-3.9715
X3.3415Y-3.9715
X4.2077Y-3.9715
X4.2077Y-3.9715
X3.5581Y-3.6467
X3.5581Y-3.6467
X4.4242Y-3.5384
X4.4242Y-3.5384
X4.3159Y-3.5384
X4.3159Y-3.5384
X3.0709Y-4.0797
X3.0709Y-4.0797
X4.5325Y-4.2963
X4.5325Y-4.2963
X3.6663Y-3.5384
X3.6663Y-3.5384
X4.3159Y-4.188
X4.3159Y-4.188
X3.5581Y-3.8632
X3.5581Y-3.8632
X3.2333Y-3.6467
X3.2333Y-3.6467
X2.8543Y-4.188
X2.8543Y-4.188
X4.0994Y-3.8632
X4.0994Y-3.8632
X4.749Y-4.188
X4.749Y-4.188
X3.2333Y-3.5384
X3.2333Y-3.5384
X3.4498Y-4.0797
X3.4498Y-4.0797
X5.0197Y-3.6467
X5.0197Y-3.6467
X4.3159Y-3.9715
X4.3159Y-3.9715
X3.2333Y-3.8632
X3.2333Y-3.8632
X4.6407Y-3.8632
X4.6407Y-3.8632
X3.9911Y-3.6467
X3.9911Y-3.6467
X4.4242Y-4.0797
X4.4242Y-4.0797
X3.8829Y-4.0797
X3.8829Y-4.0797
X4.4242Y-4.2963
X4.4242Y-4.2963
X3.4498Y-3.8632
X3.4498Y-3.8632
X4.6407Y-3.6467
X4.6407Y-3.6467
X3.0167Y-3.6467
X3.0167Y-3.6467
X4.6407Y-3.5384
X4.6407Y-3.5384
X4.0994Y-4.188
X4.0994Y-4.188
X3.9911Y-4.0797
X3.9911Y-4.0797
X3.6663Y-3.8632
X3.6663Y-3.8632
X3.8829Y-4.188
X3.8829Y-4.188
X3.0167Y-4.188
X3.0167Y-4.188
X4.8573Y-3.6467
X4.8573Y-3.6467
X3.6663Y-4.188
X3.6663Y-4.188
X3.7746Y-4.0797
X3.7746Y-4.0797
X4.3159Y-3.6467
X4.3159Y-3.6467
X3.2333Y-4.2963
X3.2333Y-4.2963
X3.4498Y-4.188
X3.4498Y-4.188
X3.6663Y-3.9715
X3.6663Y-3.9715
X3.0709Y-4.2963
X3.0709Y-4.2963
X3.125Y-3.6467
X3.125Y-3.6467
X4.8031Y-4.0797
X4.8031Y-4.0797
X4.6407Y-4.188
X4.6407Y-4.188
X3.0709Y-3.5384
X3.0709Y-3.5384
X3.6663Y-3.6467
X3.6663Y-3.6467
X4.0994Y-3.9715
X4.0994Y-3.9715
X2.8543Y-3.6467
X2.8543Y-3.6467
X3.3415Y-4.2963
X3.3415Y-4.2963
X3.7746Y-3.9715
X3.7746Y-3.9715
X3.2333Y-4.0797
X3.2333Y-4.0797
X3.9911Y-3.5384
X3.9911Y-3.5384
T2
X3.9045Y-4.9134
X3.9154Y-4.9892
X3.937Y-4.935
X3.937Y-5.0217
X3.9478Y-4.9783
X3.9803Y-4.9567
T0
M30
